<?xml version='1.0' encoding='utf-8'?>
<svg xmlns="http://www.w3.org/2000/svg" version="1.2" baseProfile="tiny" id="Layer_2_00000096772788605752251670000001833151528359858307_" x="0px" y="0px" viewBox="0 0 900 600" overflow="visible" xml:space="preserve">
<g>
	<path d="M588.6,153.8c-2.1-1.2-2.1-1.2-4.1-1.5c0.3,10.1-3.2,22-14.8,24c-18.4,51.7,9.3,103.3,11.3,155.3c0.4,0.3,0.8,0.6,1.2,0.9   c2.9,32.4-5,64.7-1.2,96.9c9.6,32.7-0.2,66.7,3.7,99.9c10.6-1,4.3,6.1,9.5,11.3c4.4,5.6,6.8,12.4,12.3,17.1   c7,5.5,12.6,11.5,11.9,21.1c-4.5,6.5-22.5,6.4-29.3,3.7c-4.4-2.5-14.1-1.2-14-8.1c-7.2-2-14.8-1.7-20.4-6.7   c10.9-33.9,6.5-55.3-7.8-87.5c-10.2-26.5,4.8-37.3-4.4-63.4c0.9-32.2-14.2-60.3-19.5-91.4c-0.3-0.3-0.8-0.7-1.2-1.2   c-0.1-0.7-0.1-1.4-0.2-2.1c-0.2,0-0.3,0-0.5,0c-5.5,26.2-14,52.2-18.3,79c-2.2,9-6.7,17.4-8.5,26.5c-2,9,1.7,18.3-0.4,27.4   c-8.7,44.7-27.4,76.6-4.9,121.7c3,5.6,9.3,15.9-1.5,16.5c-10.5-0.4-36.1,4.8-39.1-8.4c-1.9-0.2-3.9-0.4-5.6-1.5   c-3.2-12,3.2-23.7,6.4-35c1-3.6,1.3-8.9,5.7-9.9c-1-31.2-7.1-62.8-2.3-94.3c21.7-50.4,5-108.9,13.3-162.1   c4.9-20.1,8.7-40.5,17-59.6c0.4-0.2,0.9-0.4,1.5-0.7c8.2-25.9-8.9-62.6-20.4-86.2c-15.9,10.5-34.3,9.7-52.4,11.6   c-24.9,5.3-50.2,13.2-75.8,10.8c-21.5,2.4-30,13.9-55.6,6.2c0-0.6,0.1-1.1,0.8-1.3c13.4,2.1,28.1,2.6,40.6-3.4   c0.3-0.1,0.9-0.3,0.9-0.6c0.6-2.2,2.5-2.4,4.1-2.5c3.8-0.3,7.4-1.6,10.9-0.8c4.3-2.8,7.9-1.2,12.4-1.3c18.6-0.2,37.5-5.2,55.7-7.7   c0.2-0.7,0.4-1.3,0.7-2c72.9-0.8,51.1-28.5,71,10.4c3.5-2.4,3.5-2.4,5.8-2.8c7.1-9.4,14.3-19,16.6-30.9c2.6-6.3-1.7-14.1,1.5-19.8   c6.9,20-4.7,46.3-22.8,56.1c0.2,2.6,3.7,15.9,5.8,22.5c8.9,5.8,20.6,5.6,30.7,3.7c16.7-1.3,33.5-1.4,50.1-3.5   c0.4-1.6,0.8-3,1.2-4.4c31.9-14.4,4.5-37.4-6.2-55.9c0.3-0.6,0.5-1.1,0.8-1.7c1.8,2.5,3.3,5.2,5.8,7.5c0.4-1.9,0.8-3.6,1.1-5.3   c0.5-0.5,1-1,1.5-1.6c0.5,3.3,0.4,7,0.1,10.3c4.9,6.8,10.1,12.5,13.3,20.1c0.5,0.2,1.3,0.6,1.6,0.4   C586.2,148.6,593,153.5,588.6,153.8z M479.6,557.3c-4.9-2.1-11.3-1.2-16.2,0.1c-0.6-0.3-1.3-0.6-2.1-1c3.8-4.7,10.8-3.3,16.1-3.6   c-2.1-3.9-0.8-8.8-3.9-12c-3.9-0.8-7.2,0.4-10.5,2.4c-1.2,3.3-1.6,7.1-4.1,10c-2.7-0.5-5.4,0.7-7.1-2.2c-4.6,7.1-5.5,15.7-7,23.9   c0.2,0.1,0.5,0.4,0.8,0.7c-0.1,1.9-0.6,3.8-0.2,5.7c1.8,1,3.3,1.9,4.7,2.7c3.8,11.3,19,6.3,27.1,3.3c0,0,0,0,0,0   c4.4,0.2,9.2-1.2,13.4,0.7c0,0.4-0.1,0.7-0.1,1.2c-7-0.2-12.8,0.1-19.8,2.1c2.5,0.5,4.2,0.7,5.8-0.3c5.1-0.5,11.4,1.5,15.6-2   c0.3-1.4,0.3-2.5-1.2-2.8c-2.3-4.6-4.7-8.6-6.6-13.7c-1.8,2.7-21,2.9-19-1.9c5.7-1.5,11.9,0.1,17.8-0.2   C483.1,565.8,483.9,560.2,479.6,557.3z M601.5,578.7c-0.3-0.3-0.5-0.5-0.8-0.8c3.5-3.1,9-2.6,13.4-3.4c1.7-7.1-4.2-9.6-8.8-13.1   c-2.6,1.2-5.3,2.1-8.5,0.9c0.4-0.9,0.7-1.6,1.1-2.4c-16.1,2-5.7-4.8,3.6-3.2c-4-3.8-14.9,2.1-19.5-1.8c4-4.2,10.4-2.9,15.9-2.2   c-0.6-1-1-1.7-1.4-2.5c-6.3-0.4-12.3,1.6-18.5,1.9c-2.8-5,13.5-5.9,17.2-5.4c-3.5-5.3-17.7,3.2-18.8-1.4c4.3-3,10.1-2.7,15.1-3.3   c-1.1-3-2.2-5.8-3.4-8.9c-1.9-0.9-4.3-0.5-6.5-0.3c-8.1,7.6-7.6,4-12.5,15c-2.1-0.3-4.1-0.5-6.3-0.8c0.1,7.3-5,13.2-4.3,20.8   c5.9,1,11.1,3.6,17.2,3.3c-0.9-2-3.4-2.1-3.9-4.4c4,0,5.5,2.7,7,5.4c-0.2,1.1-0.4,2.1-0.6,3.1c5.9,2.8,12.6,3.6,18.9,4.4   c0.1,0.4,0.2,0.7,0.4,1.2c4.1-0.1,17.2,0.6,18.5-3.5C611.2,576,606,577.8,601.5,578.7z M530.2,311.3c-1.9,3.3-4.4,6-7.8,7.9   c0.2,1,0.4,1.8,0.6,2.9c17.7-2.7,34.5-9.9,52.4-10c-1.5-18.6-8.7-35.9-11.1-54.3c-28.9,8.6-58.8,3.3-87.9-2.1   c-5.1,18.8-10.3,38.4-8.7,58c15.9,0.9,30.2,13.1,46.7,9.2c1.2,0.4,2.4,0.8,3.6,1.2c1.5-3,2-6.4,4.5-8.8c0.4,0.1,0.9,0.2,1.4,0.3   c1.8-1.8,3.7-3.7,5.6-5.5C530.4,310.1,530.1,310.8,530.2,311.3z M514.3,258.3c15.2,2.5,32,2.5,46.2-3.7l-0.1-0.1   c1,1.4,2.1,0.9,3.2,0.2c-0.9-24.1-6.3-47.9,0.5-71.6c-23-0.8-59.4,9.8-79,0.2c-0.5,4.1,3,7.6,2.2,11.7c-0.1,2.9,3,5.3,2.4,8.5   c1.1,8.9-0.6,17.3-5.9,24.6c-4.4,7.5-4.2,16.4-6.8,24.7c5.6,0.6,11.1,2.9,16.8,2c3.9,2.6,4.4,2.7,7.2,2.2c0-1.1-1.5-1.7-1-3.3   c1.7,1.3,3.2,2.5,4.7,3.7C508.1,257.7,511.2,258,514.3,258.3z M466.6,537.8c2.5-0.1,5-0.2,7.7-0.3c2.5-22.3,5.7-45,12.8-66.2   c5-14.9,1.8-30.5,3.3-45.6c12.3-31.6,18.7-65.7,26.8-98.9c-16.9-0.9-33.6-3.4-49.5-9.4c-1.4,24.2-1.2,48.4-0.2,72.6   c1.7,23.6-11.1,45.2-13.4,68.3c-3.4,30.7,7.5,61,2.8,91.4C461.8,545.6,458.6,539.8,466.6,537.8z M537.1,322   c-3.8,0.5-7.5,1.7-11.5,2.9c3.5,20.3,12.7,39,16.7,59.2c3.4,16.7,1.4,34.8,7.5,50.8c-11,40.9,16.7,66.3,14.6,105.6   c-0.6,2.4-0.3,2.8,2.9,4.1c1.4-2.6,3-5.1,4.2-7.8c2.2-1.9,5.6-2.3,6-5.8c1.3-0.7,2.8-1.4,4-2c-1.6-23.1-0.1-46.1,1-69.1   c-0.5-20-6.7-38.9-5.1-59.1c-1.2-14,0.9-28,3.2-41.5c-1.3-15.2-3.2-30.3-5.1-45.5C562.7,316.2,549.8,318.4,537.1,322z M454,541.1   c-0.4,2.3-3.1,8.4,0.9,8.2C455.3,546.7,454.6,543.9,454,541.1z M604.1,559.1c-1.1,0.1-1.7,0.1-2.5,0.1   C602.4,560.2,603,560.1,604.1,559.1z" />
	<path fill="#020201" d="M501.5,101.5c-0.9,0.3-0.8,1-0.9,1.6c-2.9-2.9-1.2-7.1-4.1-10c-3.4,1.5-6.9,3.1-10.3,4.6   c-19.7-6.2-59.6,24.5-84.3,30.2c-8.7,2.3-17.7-2.5-26.4,1.9c-18.3,5.3-37.4,11.3-56,14.7c-22.9-8.3-8.7-6-32.7-5   c-0.8-0.6-0.7-1.2,0-2.1c21.7-1.5,13.1-2.9,33.5,4.9c18.2-4.9,36.4-9.5,54.5-14.7c6.9-3,14.2-2.5,21.3-0.8   c6.2-2.2,12.8-3.5,18.6-6.2c5.3-5,14.3-3.8,20.4-8c15.6-9.2,32.1-22,51.5-17c2.1-2.2,5.3-2.7,7.5-4.9c3-1.4,9-1.9,8.1-6.7   c3.1,0,0.2-2.8,0-4.5c1-0.8,0.9-1.8,0.7-3c0.5-0.2,1-0.5,1.6-0.8c0.4-3.3-0.9-6.5-1.7-9.7c0.1-0.5,0.3-0.9,0.4-1.3   c0.5-0.1,0.8-0.1,1.2-0.1c0.1-1.5,0.2-3,0.2-4.5c0.6-0.1,0.9-0.2,1.4-0.3c1.6,10.1,2.4,21.3-3.3,30.4c6.2,12.3,4.9,26.6,8.4,39.7   c6.2,4.5,20.3,9.7,26,9.6c0.2-1.6-0.8-3.1-0.1-4.6c1.8,1.2,1.4,3.5,2.6,5c19.4,1.6,18.2-10.7,10.8-24.2   c-3.8-7.3-5.6-15.4-11.7-21.1c-1.3-6.2-4.2-8.6-2.2-15.8c1.1-0.8,2.4-1,3.7-0.8c0,0.3,0,0.6,0,0.8c-3.9,4.8,0.4,10.6,1.2,16   c3.1,3.9,7.7,0.9,11.5-0.1c8.7-1.5,18.5,5.6,19.1,14.3c-0.3,0-0.5,0-0.8,0c-5.3-8.2-13.2-16-23.6-9.7c3.1,3.8,5.9,7.7,8.6,11.8   c-0.3,0.3-0.6,0.7-0.9,1c-3.1-2.8-5.4-7.7-9.1-9.3c4.7,10.3,18.8,27.7,7,37.2c-14.8,4.4-32.2,0.3-43.8-9.7   c-5.2-11.8-3.6-26.5-8.8-38.3c-0.4,0.3-0.8,0.5-1.2,0.8C500.8,95.6,501.2,98.4,501.5,101.5z" />
	<path fill="#F6D9C7" d="M556.2,111.1c-2.7-4.1-5.5-7.9-8.6-11.8c10.4-6.2,18.3,1.5,23.6,9.7c0.4,8.2,6.7,13.9,13.5,17.5   c1.1,0.5,3.5,3.6,4.2,1.3c0.7,0.7,1.4,1.5,2.1,2.2c-0.5,0-0.9,0-1.6,0c0.3,2,1.3,3.3,2.7,4.2c5.8,3.4,8.7,11.5,16.2,11.2   c0.6,0.8,1.3,0.9,2.4,0.2c-0.5-0.4-0.9-0.8-1.4-1.2c1-1.7,3-2.1,4-3.4c5.2-0.4,8,0.7,10.4,4.1c-0.3,0.3-0.6,0.7-0.9,1   c-1.1-1.1-2.4-0.8-3.8-0.8c-0.1-0.7-0.2-1.4-0.5-2.6c-3.1,2.2,1.5,5.9-1.8,7.3c-0.2,0.3-0.5,0.6-0.7,0.8c0,0.2-0.1,0.4-0.2,0.6   c-5.3,2,2.4,5.6,2.4,9.1c-0.4,1.2,0.4,2,0.7,3c-2.7-0.6-5-3.6-6.4-6c-4.1-7.4-15.3-4.2-21.4-9.3c1.2-2.4,4.6-0.3,5.6-2.1   c0-0.8-0.7-0.7-1.3-0.8c-3.8-3.4-9.6-2.2-13.7-5.1c-1.3-0.8-2.5-0.9-3.9-0.8c-3.2-2.9-5.2-6.7-8-10.3c0.3-3.3,0.4-6.9-0.1-10.3   c-0.1-1.4,1.9-2.8,0-4.4c-2.8,3.3-1,7.2-2.7,11.2C562.2,121.4,560.8,115.3,556.2,111.1z M570.5,110.5c-0.7-0.6-1.3-0.8-1.4,0.1   C569.4,111.5,569.9,111.3,570.5,110.5z" />
	<path fill="#14100F" d="M549.9,30.3c0.1,0.5,0.1,1,0.2,1.5c-0.3,0-0.6,0-0.9,0c-3.2-5-3.6-11.8-8.5-15.6c-0.4,0.4-0.8,0.8-1.2,1.2   c-1.4-2.6-1.4-2.6-3.7-4.1c0,0.7-0.3,1.2-0.2,1.8c-0.3,0-0.5,0-0.7-0.1c-2.5-5.1-7.9-6.1-13.3-5.8c0.4,0.7,0.5,0.9,0.4,1.5   c-0.5-0.1-1-0.1-1.5-0.2c-0.7-1-2-0.3-3-0.7c-1.2-1.6-3.5,0.4-4.5-1.3C530.4,4.6,546.8,11.8,549.9,30.3z" />
	<path fill="#1C1815" d="M512.8,8.4c1.1,1.7,3.4-0.3,4.5,1.3c-3.4,0.1-6.5,0-9.6,1.7c0.5,0.6,0.9,1,1.2,1.5l0-0.1   c-3-0.3-6.6,0.8-7.6,3.9c-3.4,1.2-4.6,4.7-6,7.7c-1.5,3.5,2.4,4.2,3.7,6.7c-1.5-0.4-2.7-1.5-4.2-1.8c-0.3,1.8,0.4,2.7,1.8,3.3   c0.3,0.5,0.6,1.1,0.9,1.6c-0.7-0.3-1.4-0.6-2.3-1c0,2.1,0,4,0,6c-0.2,0.2-0.4,0.5-0.5,0.5c-2-0.5-0.7,2.2-1.2,3.3   c-2.2-10.6-1.8-25.2,9.3-30.8c-0.5-0.6-0.8-1.1-1.1-1.5c0.8-0.1,1.6-0.2,2.4-0.3c-0.3-0.6-0.5-1.1-0.7-1.5c1.9,0.5,4.9,2,5.8-0.7   c0.4-0.1,0.8-0.1,1.2-0.2l-0.1,0.1l0.1-0.1c0.5,1,0.5,1,1.4,0.3C512.3,8.5,512.6,8.4,512.8,8.4z" />
	<path fill="#150C0C" d="M281.1,162.9c-0.7,0.2-0.8,0.7-0.8,1.3c-0.4-0.7-0.9-1.4-1.4-2.3c-1.3-0.2-2.9-0.4-4.7-0.6   c-0.8-2.1-6.6-5.2-3.7-8.2c0.2,0,0.5,0,0.7,0c0,0,0,0,0,0c0,0.8,0.1,1.7,0.2,2.5c7.9,2.1,15.7-3.8,22.6,2.2   c-6.6-1.6-13.2-0.6-20.1-0.1c4.4,5.6,15.6-0.7,21.6,3.6c-3.7,1.4-9.7-0.8-14.2,0.2C281.1,162.1,281.1,162.5,281.1,162.9z" />
	<path fill="#181312" d="M622.7,146.3c0.3-0.4,0.6-0.7,0.9-1c-2.3-3.4-5.2-4.5-10.4-4.1c-1.6,1.4-3.7,2.5-5.1,4.4   c-7.5,0.4-10.4-7.8-16.2-11.2c-1.3-0.9-2.4-2.1-2.7-4.2c0.7,0,1.1,0,1.6,0c5.6,4.2,9.3,11.3,16.1,13.4c3.3-1.7,6.3-5.3,10.3-4   c3.2,0.2,11.9,5,5.4,7.5C622.7,146.8,622.7,146.5,622.7,146.3z" />
	<path fill="#191413" d="M588.6,153.8c0.6-0.1,1.3,0,1.5-0.9c27.2,3.7,16.5,11.4,32.5,13.9c-2.7,1.4-5.4,0.4-8.2-0.2   C607.7,156.3,598.3,158.4,588.6,153.8z" />
	<path fill="#171110" d="M622.7,146.3c0,0.3,0,0.5,0,0.8c-0.8,1.1-1.8,0-2.8,0.3c-1.8,5,12.7,5.7,6.5,11c-2.5-0.8-5-1.6-7.5-2.4   c-0.2-0.6-1.4-0.9-0.4-1.8c2.6,0.3,5.6,2.4,7.3,1.5c-2.4-1-4.3-1.8-6-3.7c-1,1.2-2.2-0.7-3.3,0.1c-0.1,0.1-0.5-0.4-0.8-0.6   c0.1-0.2,0.2-0.4,0.2-0.6c0.2-0.3,0.5-0.6,0.7-0.8C619.7,149.3,615.8,142.8,622.7,146.3z" />
	<path fill="#27201D" d="M493.8,24.1c-0.3,1.4-0.5,2.9-0.8,4.3C488.9,16.9,494.2,0.2,509,7c-0.7,0.4-1.4,0.9-2.1,1.3   c-1.5-1.3-3.1-2.2-5.2-1c0.2,0.4,0.4,0.8,0.6,1.1C494,6.8,491.9,18.7,493.8,24.1z" />
	<path fill="#231E1C" d="M549.1,31.9c0.3,0,0.6,0,0.9,0c1.7,3.5,1.2,8.6,0,12.1c-0.4-1.1-0.7-2.1-1.2-3.4c-0.7,1.6-1.2,3.1-3.1,3.1   c-1-0.8-1.5-2-2.6-2.6c-0.3-2.4,3.8-2.7,5.7-2.2c0.3-1.5,0.6-2.9,0.9-4.3c-2.6-1.7-4.9,1.4-7.3,0c0-0.4,0.1-0.8,0.1-1.2   C544.6,32.8,547.6,33.3,549.1,31.9z" />
	<path fill="#343130" d="M540.1,78.9c0-0.3,0-0.6,0-0.8c11.2-0.4,10.1-23.3,12-31c2.4,10.2-1.3,21.6-6,30.7   C544.3,78.2,542.3,79,540.1,78.9z" />
	<path fill="#2D2423" d="M626.4,158.4c0.5-0.5,0.9-1,1.4-1.5c1,2.2,3.8,2.6,1.9,5.5c-0.8,1.2,0.1,3.3-1.9,3.6   c-3.1,1.9-5.7,3.2-9.2,1.6c2.3,0.2,3.8-0.8,6.1-1.1c-1.7-1.1-3.3-2-4.8-2.9c-0.1-0.2-0.2-0.4-0.3-0.7c3.2-0.2,4.5,3.1,7.9,0.9   c-0.5-2-2.8-1.7-4.3-2.2c2.7-2.3,3.9,1,4.8-0.1C629.8,159.4,627.6,159.3,626.4,158.4z" />
	<path fill="#221D1C" d="M584.6,126.7c-6.8-3.7-13.1-9.4-13.5-17.5c0.3,0,0.5,0,0.8,0c2,7.3,7.4,11.9,13.6,16.7   C585.2,126.1,584.9,126.4,584.6,126.7z" />
	<path fill="#2D2822" d="M502.2,84c-0.2,1.1,0.6,2.4-0.8,3.1c-2.4-4.8-3.2-10.3-3.4-15.5c0.3,0,0.7,0,1.2-0.1c0-0.7,0-1.3,0-1.9   c0.2,0,0.5,0,0.7,0c0.6,2.8,1.2,5.5,1.7,8.3C499.5,79.3,502.1,82.2,502.2,84z" />
	<path fill="#211E1B" d="M272.5,151.2l0-0.1c0.3-0.3,0.5-0.7,0.8-1c0.3,0.2,0.7,0.4,1,0.6c5.7-0.5,11.4-1,17.2-1.5   c0,0.1,0.1,0.4,0.2,0.6c-0.3,0.3-0.7,0.7-1,1c-6.5,1-13.1,1.4-19.6,2.2c0,0,0,0,0,0c0-0.2,0-0.5,0-0.7l0,0   C271.9,152.3,272.6,152.2,272.5,151.2z" />
	<path fill="#251D1C" d="M286.9,139.5c0.6,0,1.2,0,1.8,0c1,3.1,6.2,3.1,8.1,5.9c-2.2,0.8-3.8-0.4-5.2-1.2c-3.7,0.8-7.2,1.4-10.6,2.1   c-0.3-0.2-0.6-0.5-0.9-0.7c2.9-1.6,6-1.6,9.4-2.6C288.3,142.1,287.1,141.1,286.9,139.5z" />
	<path fill="#3A3834" d="M496.2,76.5c-1.8-5.6-3.1-11.5-3-17.4c1.2-0.8,0.4-2.7,0.8-3.9c1.3,6.6,1.3,13.3,2.9,19.8   C497,75.6,497,76.2,496.2,76.5z" />
	<path fill="#A3927C" d="M496.2,76.5c1.8-2.7-1.3-7.2-0.7-10.6c1.4,1.9,1.4,4.3,3.6,3.8c0,0.6,0,1.2,0,1.9c-0.5,0-0.8,0-1.2,0.1   c-0.3,3.3,1.4,6.7,1.2,10.1C497.2,80.6,496.8,78.5,496.2,76.5z" />
	<path fill="#38302E" d="M280.3,145.5c0.3,0.2,0.6,0.5,0.9,0.7c-2.5,0.8-5.2,1.6-7.7,2.3c0,0.7-0.1,1-0.1,1.4   c-0.3,0.3-0.5,0.7-0.8,1c-3.4-4.9,4.1-4.2,6.5-5.5c0.2,0,0.4,0,0.5-0.2C279.7,145.5,280,145.5,280.3,145.5z" />
	<path fill="#1C1815" d="M494,55.2c-0.1,0.8-0.1,1.6-0.2,2.4c-0.3,0-0.5,0.1-0.8,0.1l0,0c-0.5-4-1.2-8.3-0.7-12.2   c1.9,1.4-0.3,4.3,1.4,6.1C493.8,52.8,493.9,54,494,55.2z" />
	<path fill="#2F2D29" d="M493.8,51.6c-1.8-1.7,0.5-4.6-1.4-6.1c0.2-1.6,0.5-3.2,0.7-4.7c0.3,0.8-0.3,1.9,0.8,2.5   C493.8,46,493.8,48.8,493.8,51.6z" />
	<path fill="#2F2D29" d="M492.3,48.3c0,3.2,0.2,6.3,0.8,9.4C491.1,55,491.4,51.4,492.3,48.3z" />
	<path fill="#4C4744" d="M552.1,47c-1,0.6-0.4,1.7-0.8,2.5c-0.4-1.8-0.9-3.7-1.3-5.5c0.3-0.5,0.5-1.1,0.8-1.6   C551.2,43.9,551.7,45.5,552.1,47z" />
	<path fill="#493D3B" d="M584.6,126.7c0.3-0.3,0.6-0.6,0.9-0.9c1.1,0.7,2.1,1.5,3.2,2.2C588.2,130.2,585.7,127.1,584.6,126.7z" />
	<path fill="#503C36" d="M506.9,8.3c0.7-0.4,1.4-0.9,2.1-1.3c0.8,0.1,1.5,0.4,1.7,1.2c-0.7,0.1-1.5,0.3-2.2,0.4   c0.2,0.2,0.4,0.4,0.6,0.7c-0.4,0.7-1.1,0.6-1.7,0.6C507.2,9.3,507.1,8.8,506.9,8.3z" />
	<path fill="#F6D9C7" d="M279,145.6c-0.7,0.8-1.6,0.7-2.5,0.5C277.1,145.1,278.1,145.5,279,145.6z" />
	<path fill="#F6D9C7" d="M280.3,145.5c-0.3,0-0.5-0.1-0.8-0.1c0.6-1,1.5-0.7,2.4-0.7C281.3,145,280.8,145.3,280.3,145.5z" />
	<path fill="#949E9E" d="M521.2,324.2c0-0.7,0-1.4,0-2.1c0.2,0,0.3,0,0.5,0c0.1,0.7,0.1,1.4,0.2,2.1   C521.7,324.2,521.4,324.3,521.2,324.2z" />
	<path fill="#503C36" d="M512.1,8.5c-0.9,0.7-0.9,0.7-1.4-0.3C511.2,8.3,511.6,8.4,512.1,8.5z" />
	<path fill="#231E1C" d="M549.9,30.3c-0.8-0.4-0.7-1.1-0.6-1.8C549.5,29.1,549.7,29.7,549.9,30.3z" />
	<path fill="#2F2D29" d="M493.1,57.6c0.3,0,0.5-0.1,0.8-0.1c0.1,0.6,0.1,1.2-0.6,1.5C493.2,58.6,493.1,58.1,493.1,57.6z" />
	<path fill="#38302E" d="M272.5,151.2c0.1,1-0.6,1.1-1.3,1.1C271.6,151.9,272.1,151.6,272.5,151.2z" />
	<path fill="#38302E" d="M271.2,152.3c0,0.2,0,0.5,0,0.7C270.1,153.2,270.7,152.8,271.2,152.3z" />
	<path fill="#F6D9C7" d="M537.1,322c12.7-3.7,25.6-5.8,38.5-8.2c1.9,15.2,3.8,30.3,5.1,45.5c-2.3,13.5-4.4,27.5-3.2,41.5   c-1.7,20.1,4.6,39,5.1,59.1c-1,23.1-2.6,46.1-1,69.1c-1.2,0.6-2.6,1.3-4,2c-0.3,2.1-1.6,3.2-3.3,3.9c-3.1-3.2-3.5-9.2-4.8-13.5   c-0.6-2.9,1.4-6.7-0.8-9.2l0,0c-1.4-1.7,0.2-4.6-1.4-5.9c-0.8,0.2-0.7,1.6-1.2,2.4c-7.3-24.9-22.7-49.9-12.6-76.1   c4.5,6.6,10.9,11.2,10.2,19.7c1.9-1.9,1.1-3.8,1.3-6.1c3.5-2.5-0.4-6.8-0.8-9.9c-3-10.8-13.7-14.6-13.2-27.5c2,1.8,3.7,2.8,5.6,3.2   c1.3,3.4,4,6.2,3.7,10c3.6-3,0.2-8.9-1.5-12.3c0.4-1.7,0.8-3.4,1.2-5.3c-0.8,0-1.5,0-2.2,0.1c-0.2,0.3-0.4,0.5-0.6,0.8l0,0   c-12.3-10-6.3-22.8-13-34c-1.8-9.7,1.4-19.7-0.6-29.2c-0.9,1.3-1.4,2.2-2.1,3.1C539.4,337.8,539.1,329.7,537.1,322z M565.3,459.7   c-0.4-2.2,0.3-4.6-1.6-6.8C562.3,455.3,563,457.9,565.3,459.7z M572.9,414.5c0.7-1.7,2.8-5.4-0.6-5.3   C572.5,411,572.7,412.8,572.9,414.5z M564.1,483.5c-2,0.2-1.2,1.3,0,2.6C564.1,484.7,564.1,484.1,564.1,483.5z M564.4,468.4   c1-1,1.1-1.9,0-3.4C564.4,466.6,564.4,467.5,564.4,468.4z M564.3,476.4c-0.5,0.6-0.9,1-0.3,1.4C565,477.6,565,477.3,564.3,476.4z" />
	<path fill="#F6D9C7" d="M483.4,322.6c11.2,2.5,22.6,3,33.8,4.2c-8.1,33.2-14.5,67.3-26.8,98.9c-1.5,15.1,1.8,30.7-3.3,45.6   c-7.1,21.3-10.3,44-12.8,66.2c-3.1-0.1-6.1,0.7-8.9-0.1c-1.3-5.2-1.4-10.1-2.2-15.2c0.6-1.2,1.9-2.2,1.8-3.9c-0.8,0-1.3,0-1.8,0   c-6.1-33.1-8.6-70.3,6-101.5c1.9,3.1,2.3,7.4,5.7,9.4c3-8.5-1.8-18.2-0.3-27C479.9,374.1,477.9,347.3,483.4,322.6z M481.6,436.2   c-1,0.9-0.5,2.1-0.7,3.1c-0.2,0.9-1.1,1.7-0.7,3.5c1-2.2,5.6-8.3,3-9.4C482.2,434.1,481.9,435.1,481.6,436.2z M483.9,414.2   c-0.5,0.4-0.9,0.9-1.5,1.4c0.9,0.6,1.3,0.2,1.6-0.4c2.9,0.1,3.9-2.5,5.2-4.7c0.7-0.1,1.4-0.1,2.1-0.2c0.4-4.2,0.4-11.3-4.1-12.6   c-1.6,1-1.6,1-2.6,2.8c1.2,1.6,0.8,3.9,2.4,5.5c0.1,1,0.1,2,0.2,3C485.6,410.4,484.8,412.3,483.9,414.2z M479,450.4   c1.3-2.1,1.3-3.7,1.1-5.5C478.4,446.3,478.4,446.3,479,450.4z M478.8,455.4c0.9-1,1.5-1.1,0.9-2.2   C478.4,453.4,478.9,454,478.8,455.4z M478.6,460.9c-0.2,0-0.4,0-0.6,0c0,0.5,0.1,1,0.2,1.8C478.8,461.9,478.7,461.7,478.6,460.9z" />
	<path fill="#F6D9C7" d="M273.3,150c0-0.4,0.1-0.7,0.1-1.4c6.1-2,11.8-3.3,18.2-4.5c1.4,0.8,3.1,2,5.2,1.2c2.9,0.6,4,4,7.3,3.9   c-2.3-2.3-4.2-4.3-5.8-6c-1.1,0.3-2.1,0.5-3,0.7c-2-1.6-6.1-1.9-6.6-4.5c22.2-1.6,11.2-1.8,30.9,5c18.6-3.3,37.7-9.4,56-14.6   c8.6-4.4,17.7,0.4,26.4-1.9c15.2-6.2,31.3-10.9,45-20.1c11.9-4.6,26.7-14.6,39.3-10.2c3.4-1.5,6.8-3.1,10.3-4.6   c2.9,2.9,1.2,7.1,4.1,10c0.1,11.5,0.3,24.2-6.7,34c-9.4-9.1-22.1-13.6-32.7-21.2c-2.2,0.1-2.2,0.1-5.6,2.1c1.6,1.4,3.7,2.9,3.9,5.3   c-6.4,2.2-13.6,2.3-19.4,5.4c2.1-0.1,3.8,0.4,5.4-0.6c6.3,0.9,14.3-6.5,18.8-2.2c0.1,3.7-2.8,2.8-4.9,2.9   c-14.9,12-33.6,6.9-50.4,11.3c-3.7-0.9-10-3.6-12.1,0.4c0.8,0.8,1.7,1.6,2.7,2.5c-22.7,6.7-47,5.6-70.2,7.6c-3.6,1.1-4.9-1-6.3-4.2   c-1.4,2.4-0.2,3.4,0.4,5.6c-0.8,2-1.6,4.1-2.5,6.1c-8.6,0.4-17.4,5.2-25.7,3.2c-6-4.3-17.2,1.9-21.6-3.6c6.9-0.5,13.5-1.5,20.1,0.1   c-6.9-6-14.7-0.1-22.6-2.2c-0.1-0.6-0.1-1.2-0.2-1.7c5.8-2.8,13.2-1.4,19.6-3c1,0.9,0.2,2.9,2.2,3.3c0.5-2-0.7-3.3-1.4-5   c-5.7,0.5-11.4,1-17.2,1.5C274,150.4,273.7,150.3,273.3,150z M387.2,133.6c-0.3,0.2-0.5,0.3-0.8,0.5c1.1,1.5,2.3,0.1,4-0.8   C388.7,133.4,387.9,133.5,387.2,133.6z M394.7,133.5c2.8,2,4.5,2.2,6.7,0.5C399.1,133.8,397.1,133.7,394.7,133.5z M434.7,130.7   c-1.2-0.5-2.1-0.6-2.7,1.1C433,131.6,434.2,132.5,434.7,130.7z M453.9,116.9c0.2-2.3,0.1-2.4-1.7-2.1   C452.7,115.5,453.2,116.1,453.9,116.9z M306.6,152.3c0.8,0.9,1.5,1.4,2.4,1C308.1,151.6,308.1,151.6,306.6,152.3z M312.7,154.9   c-0.1-0.7-0.3-1.2-1.1-0.9C310.9,154.9,312.1,155.7,312.7,154.9z M424.9,131.5c1.7,0.3,1.7,0.3,1.6-1.1   C425.9,130.8,425.5,131.1,424.9,131.5z" />
	<path fill="#FF9A77" d="M529.5,309.9c-1.9,1.9-3.7,3.7-5.6,5.5c-0.5-0.1-1-0.2-1.4-0.3c-2.5,2.5-3,5.9-4.5,8.8   c-9.4-2.1-21.4,0.9-30.2-5.1c3.9-13.7,7.3-27.6,10.4-41.8c2-1.7,4.3,0.1,7.2,0.1c-1.9-2.1-4.2-2.5-6.3-3.5c0.2-0.6,0.3-1.1,0.5-1.8   c3.9,1.3,7.4,3.3,11.5,2.5c-0.2-1.2-0.7-1.9-1.7-1.5c-0.9,0.3-1.6,0.1-2.1-0.3c-2.1-1.8-5-2.2-7.1-3.7c-1.6-6.5,4.5-1.5,4.6-4.5   c-1.4-0.6-3.2-0.3-4.2-1.6c0.1-0.6,0.2-1.3,0.3-2.1c21.4,1.6,42.5,3.5,63.3-2.9c2.4,18.4,9.6,35.7,11.1,54.3   c-13.2-1.1-25.4,6.3-38.5,5.8c2-1.4,1.7-3.1,1.6-4.7c-0.7-4.8,1.8-8.7,2-13.2C535.3,302.2,530.6,303.9,529.5,309.9z M512.9,277.2   c-0.1-0.4-0.2-0.7-0.4-1.4C512,276.8,512.3,277.1,512.9,277.2c1.6,4.1,4.4,8.6,7,12.2C519.2,284.7,516.3,280.3,512.9,277.2z    M545.2,278.9c2.1-0.7,2.9-1.7,4.1-3.3C547.3,276.1,546.4,277.2,545.2,278.9z M522.6,309.9c-0.1-0.2-0.2-0.4-0.3-0.6   c-0.4,0.2-0.2,0.5-0.2,0.8C522.3,310.1,522.5,310,522.6,309.9z" />
	<path fill="#F6D9C7" d="M560.6,254.6c-14.2,6.2-31,6.2-46.2,3.7c-8.4-10.8-8.9-24.4-7.6-37.4c0.9-4.8-2.3-9-1.3-13.7   c1.5,0.6,2.1,2.7,4,1.7c1.8-5.1-5.6-9.1-3.7-14c2.4,0.4,4,2.9,6.9,2.6c0.1-3.6-3.4-6.2-4.4-9.5c18.2-3.7,37.2-2.9,55.9-4.8   c-6.8,23.7-1.4,47.4-0.5,71.6C562.6,255.4,561.5,255.9,560.6,254.6c0.1-0.1,0.3-0.1,0.5-0.2c-0.1-0.1-0.2-0.2-0.2-0.4   C560.7,254.2,560.7,254.4,560.6,254.6z M518.2,240.9c0.2,1.5-0.8,3.2,0,4.5C519.3,243.7,519.3,243.4,518.2,240.9   c-0.1-1.2,1.9-4.5-0.5-4.2C517.4,237.9,516.7,240,518.2,240.9z M531.8,232.6c0.3,0.2,0.7,0.4,1,0.6l0.3,0l0.2,0.1   c1.4,4.1-0.2,8.7,2.4,12.3c2.6-4.4,0.7-8.4,1.2-12.7c1.3-2.5-1.4-3-3.5-4c-0.6,1-1.1,2-1.8,3.2   C531.5,231.9,531.6,232.3,531.8,232.6z M517.3,226.6c0.1,1.6-0.3,3.3,0.1,5c1.1-0.5,0.7-1.3,0.8-2c0.4,0.5,0.8,1,1.3,1.6   c0-2.8,0-5.5,0-8.5c-1,0.2-1.7,0.3-2.4,0.4C516.6,224.5,516.5,225.6,517.3,226.6z M550.4,248.8c1.9-2.1,2.5-4.7,2.2-7.4   C551.2,243.6,550.9,246.3,550.4,248.8z M552.9,225c-2.4,1.7-1.2,4.1,0,6.9C552.9,229.3,552.9,227.4,552.9,225z M552,219.2   c-1.2,1.2-2,2.4,0,2.5C552,221.2,552,220.5,552,219.2z M518.2,217.2c-0.5-0.2-0.7-0.3-1-0.4C516.5,218,517.5,218.4,518.2,217.2z" />
	<path fill="#FFF0A7" d="M549.2,105.3c8,7.6,12,17.8,19,26.1c7,9.6,16.9,20.2,11.9,33c-8.9,0.6-17.3-1.2-26.1-0.5   c-0.5,0.5-1.2,1.2-1.7,1.8c0,1.4,0,2.5,0,3.7c3.6,4.8,9.7,4.3,14.3,6.5c-0.4,1.4-0.8,2.9-1.2,4.4c-18.4,1.7-37.4,3.4-55.6,3.4   c1-13.7,13.8-4.9,22.6-8c5.7-0.4,17-5.3,11-11.9c-12.7,2.5-26.1,2.3-37.2-4.9c-6.3-4.1-6.1-12.6-11.6-17.2   c5.9-7.4,7.8-16.6,9.1-25.8c0.5-0.2,0.9-0.5,1.4-0.7c2,4.8,1.2,10.9,4,15.1c8.2,7,19.9,11.7,30.8,11.2c27.4,3,15.9-20.8,8.2-35.3   C548.6,105.9,548.9,105.6,549.2,105.3z" />
	<path fill="#E1C7B6" d="M463.6,527.2c1,3.5,0.8,6.7,1.8,10.3c0.3,0.1,0.8,0.2,1.2,0.3c-8.1,2-4.8,7.8-9.8,12   c4.7-30.4-6.2-60.7-2.8-91.4c2.2-23.1,15.1-44.7,13.4-68.3c-1-24.2-1.2-48.4,0.2-72.6c5.7,0.7,10.2,3.9,15.7,5.2   c-5.4,24.7-3.5,51.5-8.8,76.6c-1.5,8.9,3.3,18.5,0.3,27c-3.4-2-3.8-6.3-5.7-9.4c-14.7,31.2-12.2,68.4-6,101.5c0.5,0,1.1,0,1.8,0   c0.1,1.7-1.2,2.7-1.8,3.9c0.2,0.7,0.3,1.3,0.4,1.9c-1.3,0.8-0.8,2.3-2,3.9C462.7,527.5,463.2,527.4,463.6,527.2z M473.9,406.2   c-1.5,1.6-1.1,3.5-1.1,5.8C474,409.9,474.5,408.2,473.9,406.2z M462.7,530.8c-0.2,0-0.4,0-0.6,0c0,0.8,0.1,1.5,0.1,3   C463,532.2,463,532.2,462.7,530.8z" />
	<path fill="#E1C7B6" d="M569.6,522.6c1.8,3.8,1.5,9.4,4.7,12.2c-0.9,0.6-1.8,1.2-2.8,1.9c-1.2,2.7-2.8,5.3-4.2,7.8   c-3.2-1.2-3.5-1.7-2.9-4.1c2.1-39.2-25.5-64.7-14.6-105.6c-6.1-16.1-4.1-34.2-7.5-50.8c-4.1-20.2-13.2-38.9-16.7-59.2   c3.9-1.2,7.6-2.3,11.5-2.9c2,7.6,2.3,15.7,4.8,23.1c0.6-1,1.2-1.8,2.1-3.1c2,9.5-1.2,19.5,0.6,29.2c6.7,11.2,0.7,24.1,13,34   c0,2.3,0.3,4.6-0.6,6.7c-1.9-0.4-3.7-1.4-5.6-3.2c-0.6,12.9,10.2,16.7,13.2,27.5c0.4,3.1,4.3,7.4,0.8,9.9c-0.4-1,0.2-2.3-0.8-3.1   c-0.9-1.7,0-6-3.1-4.9c0.5,2.2,1,4.3,1.5,6.5c-3-3.9-6-7.9-9.2-12c-10.1,26.2,5.3,51.2,12.6,76.1c0.5-0.8,0.4-2.2,1.2-2.4   c1.6,1.3,0,4.2,1.4,5.9c-1.1,2.4-1.2,3.2-0.2,5.6c0.4-1.9,0.5-3.8,0.1-5.6c2.1,2.5,0.1,6.3,0.8,9.2c-1.9,1.3-1.9,1.5-0.7,4.3   C569.1,524.6,569.4,523.6,569.6,522.6z M569.4,529.9c-0.3-0.6-0.6-1.1-0.9-1.9C568,529.1,567.7,529.9,569.4,529.9z" />
	<path fill="#E1C7B6" d="M508.3,187.9c1.1,3.3,4.6,5.8,4.4,9.5c-2.9,0.3-4.5-2.2-6.9-2.6c-1.9,4.8,5.5,8.9,3.7,14   c-1.9,1-2.5-1.1-4-1.7c-0.1,0.7-0.2,1.4-0.3,2c-0.6-0.7-1.2-1.4-2-2.3c-0.1,2.3-0.1,2.3,2,2.9c4,16.5-3.3,33.6,9.1,48.5   c-3.1-0.3-6.3-0.6-9.5-0.8c-1.5-1.2-3-2.4-4.7-3.7c-0.5,1.6,1,2.2,1,3.3c-2.8,0.5-3.3,0.4-7.2-2.2c-5.6,0.8-11.1-1.4-16.8-2   c2.5-8.2,2.4-17.1,6.8-24.7c6-8.6,8.6-20.5,4.2-30.3c-0.6-0.7-1-2-0.7-2.8c0.7-4.2-2.7-7.7-2.2-11.7   C492.2,187.7,500.4,187,508.3,187.9z M495.3,200.1c0.8,0.8,1.7,1.2,3.2,1.3c-1-1.2-3.2-3.7-4.7-2.5   C494.4,199.4,494.9,199.8,495.3,200.1z M492,244.7c0.3-1.9,0.3-1.9-0.9-1.8C491.4,243.4,491.7,243.9,492,244.7z M497.3,250.1   c-0.6,1.1,0.1,1.6,1,2.2C498.7,251.1,498.1,250.6,497.3,250.1z M501.3,204.2c-0.2-0.6-0.5-1-1.2-0.8   C500,204.7,500.5,204.7,501.3,204.2z M494.5,247.2c-0.2-0.2-0.3-0.1-0.5,0.1c0.1,0,0.3,0.1,0.4,0.1   C494.5,247.4,494.5,247.3,494.5,247.2z" />
	<path fill="#EF8A6A" d="M506.9,260.5c-1.9,0.1-3.8,0.1-5.9,0.2c-0.1,0.8-0.2,1.5-0.3,2.1c1,1.2,2.8,1,4.2,1.6   c-0.1,2.9-6.3-2-4.6,4.5c2.1,1.6,5,1.9,7.1,3.7c0.5,0.4,1.2,0.7,2.1,0.3c1-0.4,1.6,0.4,1.7,1.5c-4.1,0.7-7.6-1.2-11.5-2.5   c-0.2,0.6-0.3,1.1-0.5,1.8c2.1,0.9,4.3,1.4,6.3,3.5c-2.8,0-5.2-1.8-7.2-0.1c-3.2,14.2-6.5,28.1-10.4,41.8c-6.8-1.6-13-5.7-20.1-5.2   c-1.6-19.6,3.5-39.2,8.7-58C486.6,257.6,496.7,259.3,506.9,260.5z M495.5,262.7c-5.2-2.1-5.2-2.1-6.5-1.6   C491.2,262.6,491.9,262.8,495.5,262.7z" />
	<path fill="#E1C7B6" d="M324.2,148.5c0.5,0.7,1,1.4,1.5,2.2c-0.2,0.2-0.4,0.4-0.9,0.8c2.4-0.3,4.1,1.2,6.1-0.4   c-0.8-0.3-1.1-0.4-1.5-0.5c1.3-1,2.7-0.4,4.1-0.4c1.5,1.4,1.8,1.4,2.7-0.1c21.1-0.9,42.8-1.2,63.3-7c-1-0.9-1.9-1.8-2.7-2.5   c2.1-4,8.4-1.3,12.1-0.4c16.8-4.4,35.5,0.7,50.4-11.3c2.1-0.1,4.9,0.8,4.9-2.9c1.1,0.4,2.3,0.8,3.3,1.2c0.9-1.4,2.1-0.9,2.8,0.2   c-2.3,0.9-3.9,1.7-6.3,2.6c1.5,0.7,2.4,0.4,3.3-0.3c1.7,0,3.2-0.3,2.9-2.4c3.8,2,9.3,9,13.1,8.7c-3.4-5.3-10.8-8.7-16.1-11.8l0,0.1   c-1.6-1.4-2.1-3.4-3.8-1.5c-1.4-0.8-2.9-1.7-4.3-2.5c-0.5-0.9-1.6-3.5-2.4-1.4c-0.5-0.1-0.9-0.4-1.1-0.9c3.4-2,3.4-2,5.6-2.1   c10.5,7.6,23.2,12.1,32.7,21.2c-4.2,4.5-6.3,10.7-10.5,15c-2.3,0.4-2.3,0.4-5.8,2.8c-3.9-6.3-6.8-17.6-12.9-21.4   c-17.8,10.2-38.3,9.1-58.1,11c-0.2,0.8-0.4,1.3-0.7,2c-20.8,2.9-42,8.9-63.3,7.4c-2.2,0-2.2,0.1-4.9,1.6   c-3.1-0.2-14.2-0.4-15.1,3.3c-12.4,6.8-27.9,6-41.5,4c0-0.4,0.1-0.7,0.1-1.3c4.5-1.1,10.5,1.1,14.2-0.2c8.3,1.9,17-2.9,25.7-3.2   C322.2,154.8,324.2,151.9,324.2,148.5z M324.9,154.5c-0.1-0.2-0.2-0.4-0.3-0.6c-0.6,0.2-0.4,0.5-0.2,0.9   C324.6,154.7,324.8,154.6,324.9,154.5z" />
	<path fill="#EBDA8F" d="M494.6,141.7c5.5,4.6,5.3,13,11.6,17.2c11.1,7.2,24.5,7.4,37.2,4.9c0.3,0.4,0.8,0.9,1.2,1.4   c-4.1,8.7-14.3,7.9-23,8.6c-8.1,0.4-15.8-3.3-21-9.3c-0.5-0.8-0.6-2.1-2.4-1.8c4,6.1,9.8,12.1,17,13c-4.9,0.4-4.1,4.5-5.4,7.9   c0.7,0.2,1.2,0.4,1.8,0.6c-8.6,1.9-19.4,0.7-27-4.1c-2.1-6.6-5.6-19.9-5.8-22.5C486.5,155.9,489.5,147,494.6,141.7z" />
	<path fill="#F7EFD0" d="M568.9,547.7c4.9-11,4.5-7.4,12.5-15c2.2-0.3,4.6-0.6,6.5,0.3c1.2,3.1,2.3,5.9,3.4,8.9   c-5,0.6-10.8,0.3-15.1,3.3c1.1,4.6,15.4-3.9,18.8,1.4c-3.7-0.5-20,0.4-17.2,5.4c6.2-0.2,12.2-2.3,18.5-1.9c0.4,0.8,0.8,1.4,1.4,2.5   c-5.5-0.7-11.9-2-15.9,2.2c3.6,2.7,8.6,0.4,12.9,1c-0.1,0.2-0.1,0.5-0.1,0.7c-10.7,2.3-2.9,4.8,3.1,3.2c-0.4,0.9-0.7,1.5-1.1,2.4   c3.2,1.2,5.9,0.4,8.5-0.9c4.7,3.5,10.6,6,8.8,13.1c-9.8,1.9-19.1,2.2-29.1,1.1c-4-6.3-8.1-13.1-16.6-11.9c-0.9,1-1.7,1.9-2.6,3   c-1.2-0.4-2.3-0.8-3.5-1.2c1.1-5.6,2.2-11.2,3.2-16.7C566.4,547.9,568.1,549.2,568.9,547.7z" />
	<path fill="#F7EFD0" d="M486.2,577.2c1.6,2.6,3.3,5.1,4,8.1c-3.1,2.9-9.9-1.1-12.9,1.8l0,0c-9.6-0.4-27.6,5.7-24.3-10.4   c-1.2-1.1-2.7-2.1-3.8-3.3c1.2-7.2,3.1-14.8,2.2-22.1c0.1-0.1,0.3-0.3,0.4-0.4c1.6,2.9,4.4,1.8,7.1,2.2c2.5-2.9,2.9-6.6,4.1-10   c3.3-2,6.6-3.2,10.5-2.4c3.1,3.2,1.9,8.2,3.9,12c-5.4,0.3-12.4-1.1-16.1,3.6c1.3,0.6,2.1,0.8,3,1.7c-1.2,0.5-2.7,0.5-3.4,2.2   c2.1,3.9,2.5,1.4,5,3.1c-15,6.2,14.1,4.2,17.3,3.5c0,1.1,0,2.2,0,3.5c-5.9,0.3-12.1-1.2-17.8,0.2c-1.2,3.7,5.1,2.9,7.3,3.6   C472.6,581.1,482,577.5,486.2,577.2z" />
	<path fill="#EADBB7" d="M568.9,547.7c-0.8,1.5-2.4,0.1-3.4,1.1c-1.1,5.5-2.1,11.1-3.2,16.7c1.2,0.4,2.4,0.8,3.5,1.2   c0.9-1,1.7-2,2.6-3c8.5-1.1,12.7,5.6,16.6,11.9c5.9-0.1,11.6,1.3,17.3,0.9c-6.6,5.9-17,1.2-24.4-1.3c0.2-1,0.4-2,0.6-3.1   c-1.5-2.7-3-5.4-7-5.4c0.6,2.2,3,2.4,3.9,4.4c-6,0.3-11.3-2.3-17.2-3.3c-0.7-7.6,4.4-13.5,4.3-20.8   C564.7,547.2,566.8,547.5,568.9,547.7z" />
	<path fill="#EBDA8F" d="M566.6,175.8c-4.6-2.2-10.7-1.7-14.3-6.5c0-1.1,0-2.2,0-3.7c0.5-0.5,1.2-1.3,1.7-1.8   c8.8-0.7,17.2,1.1,26.1,0.5C577.8,170.6,571.8,172.9,566.6,175.8z" />
	<path fill="#E0C6B5" d="M619.9,163.5c1.5,0.9,3.1,1.9,4.8,2.9c-16,1.3-7-10.1-34.6-13.5c-0.2-1.5-2.2-1.9-3.2-2.9   c0.1-0.9,0-1.6,0.5-2.4c-2-0.3-3.9-0.6-5.7-0.8c-1.6-2.3-2.1-5.1-4-7.3c1.4-0.1,2.6,0,3.9,0.8c4.1,2.9,9.9,1.7,13.7,5.1   c0,0.5,0,1,0,1.5c-1.2,0-2.4,0.2-3.4-0.6c-0.1,0.4-0.2,0.9-0.3,1.3c-0.2,0.2-0.3,0.3-0.6,0.6c6.1,5.2,17.3,1.9,21.4,9.3   C614.1,160.1,616.6,164.1,619.9,163.5z" />
	<path fill="#E9DBB7" d="M449.9,574.2c1,0.9,2.1,1.7,3.1,2.6c-3.3,16.1,14.7,10,24.3,10.4c-8,3-23.3,8-27.1-3.3   c-1.4-0.8-3-1.7-4.7-2.7c-0.4-1.8,0.1-3.8,0.2-5.7c-0.4-0.3-0.7-0.5-0.8-0.7c1.3-8.1,2.6-16.1,6.5-23.5c0.9,7.3-1,14.9-2.2,22.1   c-1.7-0.1-0.1,7.9,1.3,7.6C451.3,578.5,450.3,576.4,449.9,574.2z" />
	<path fill="#EE896A" d="M530.3,308.4c0.5-5.4,6.2-6.2,10.3-8.5c-0.2,4.6-2.7,8.5-2,13.2c0,1.6,0.3,3.3-1.6,4.7   c1.1,0.2,1.8,0.3,2.5,0.3c-5.4,2-10.7,3-16.4,3.9c-0.2-1.1-0.4-1.9-0.6-2.9c5.6-3.4,9.1-8.8,11.7-14.8   C532.5,306,531.4,307.2,530.3,308.4z" />
	<path fill="#090706" d="M483.2,566.9c-33.4,5-23.2-8.7-0.8-1.9c0.1-1,0.1-1.6,0.2-2.2C483.7,563.9,483.2,565.5,483.2,566.9z" />
	<path fill="#0B0A09" d="M462.1,562c-0.4-0.6-0.8-1.1-1.2-1.6c4.4-4.4,14.7-3.3,19.9-0.7c0.1-0.7,0.1-1,0.1-1.4   c1.1,1.1,1.5,2.5,1.5,4c-0.3-0.2-0.6-0.5-0.9-0.7C475.3,563.1,468.5,561.7,462.1,562z" />
	<path fill="#D4C8A7" d="M596.8,579.5c0.6-0.2,1.2-0.5,1.8-0.7c0.1,0.4,0.1,0.8,0.2,1.4c5-2.7,11.5-4,16.8-3   c-1.3,4.1-14.4,3.4-18.5,3.5C597,580.2,596.9,579.9,596.8,579.5z" />
	<path fill="#CFC488" d="M505.2,115.2c-0.5,0.2-0.9,0.5-1.4,0.7c0.2-6.8-2.3-13.1-3-19.7c0.3,0,0.6,0,0.8,0   C503.9,102.3,504.7,108.7,505.2,115.2z" />
	<path fill="#C7C7A6" d="M490.9,586.2c1.6,0.3,1.5,1.4,1.2,2.8c-4.2,3.6-10.5,1.5-15.6,2c-0.3-0.3-0.5-0.5-0.8-0.8   c4.8-1.5,9.8-0.8,14.8-1c0.1-0.5,0.1-0.9,0.1-1.2C491.9,587.5,490.8,586.7,490.9,586.2z" />
	<path fill="#C0CDB3" d="M473.5,577.2c-1.3-0.4-0.7-1.9-0.9-2.9c4-0.7,8.3,1.3,11.6-1.7c0.7,1.8,1.3,3.3,1.9,4.7   c-0.5,0-1-0.1-1.5-0.1c-1.8-2-8.5-2.3-11.2-1.8C473.5,576,473.5,576.6,473.5,577.2z" />
	<path fill="#C7CFB5" d="M478.6,558.4c-4.2-0.8-8.4-1-12.7-0.4c0-0.4,0-0.7,0-1.1c4.5-0.6,9.6-1.6,13.7,0.5   C479.3,557.7,478.9,558,478.6,558.4z" />
	<path fill="#C8BEA6" d="M474.9,562.2c2.2-0.2,4.5,0.4,6.6-0.7c0.3,0.3,0.6,0.5,0.9,0.7c-0.1,0.2,0,0.4,0.1,0.5   c-0.1,0.6-0.1,1.2-0.2,2.2c-3-1.8-6-1.2-9.1-2.1C473.8,562.7,474.4,562.5,474.9,562.2z" />
	<path fill="#211C16" d="M560.4,119.9c-1.7-2.6-3.5-5.2-5.2-7.8c0.3-0.3,0.6-0.7,0.9-1c2.2,2,4,4.3,5.1,7.1   C561,118.8,560.7,119.3,560.4,119.9z" />
	<path fill="#CDC5AC" d="M454,541.1c0.6,2.8,1.3,5.5,0.9,8.2C450.8,549.5,453.5,543.4,454,541.1z" />
	<path fill="#E9DBB7" d="M490.9,586.2c-0.1,0.6,1,1.3-0.2,1.8c-4.2-1.9-9-0.5-13.4-0.7c2.9-2.9,9.8,1.1,12.9-1.8   C490.4,585.6,490.7,585.9,490.9,586.2z" />
	<path fill="#D7BFA7" d="M594.6,556.7c0-0.2,0-0.5,0.1-0.7c2.3-0.7,4.9-1.4,6.6,0.7C598.8,556.7,596.7,556.7,594.6,556.7z" />
	<path fill="#AB634D" d="M530.3,308.4c1.1-1.2,2.3-2.3,3.8-3.9c-0.6,3.3-2.6,4.3-3.9,6.9c-0.1-0.5,0.2-1.2-0.7-1.4   C529.8,309.4,530,308.9,530.3,308.4z" />
	<path fill="#473A35" d="M568.2,120.5c-0.1-2.1-0.3-4.2,1.5-5.9c1.9,1.6-0.1,2.9,0,4.4C569.2,119.4,568.7,120,568.2,120.5z" />
	<path fill="#1C1C19" d="M581.8,146.8c1.8,0.3,3.6,0.5,5.7,0.8c-0.2,0.4-0.3,0.6-0.4,0.9c-1.4,0.1-3-0.5-4,0.8   C582.7,148.5,582.3,147.7,581.8,146.8z" />
	<path fill="#8C997F" d="M475.8,590.2c0.3,0.3,0.5,0.5,0.8,0.8c-1.6,1-3.2,0.8-5.8,0.3C473,590.8,474.4,590.5,475.8,590.2z" />
	<path fill="#9E9D8F" d="M583.1,149.3c1-1.2,2.6-0.7,4-0.8c0,0.5-0.1,1-0.1,1.5c-0.7-0.1-1.3-1.1-2.3-0.4   C584.5,149.9,583.7,149.4,583.1,149.3z" />
	<path fill="#3E3930" d="M601.5,578.7c-0.8,0.4-1.6,0.9-2.6,1.5c-0.1-0.6-0.2-1-0.2-1.4c0.7-0.3,1.4-0.6,2.1-0.9   C600.9,578.2,601.2,578.5,601.5,578.7z" />
	<path fill="#B0BAA2" d="M465.9,556.9c0,0.4,0,0.7,0,1.1c-0.5,0.1-1,0.1-1.6,0.2c-0.3-0.2-0.6-0.5-0.9-0.7   C464.1,556.7,465,556.8,465.9,556.9z" />
	<path fill="#A7A791" d="M478.6,558.4c0.3-0.3,0.7-0.7,1-1c0.4,0.3,0.9,0.6,1.3,1c0,0.4-0.1,0.7-0.1,1.4   C480,559.2,479.3,558.8,478.6,558.4z" />
	<path fill="#8CB09A" d="M604.1,559.1c-1.1,1.1-1.7,1.1-2.5,0.1C602.4,559.2,603,559.1,604.1,559.1z" />
	<path fill="#EBDA8F" d="M495.3,140.8c-0.2,0.3-0.4,0.6-0.7,0.9C494.9,141.4,495.1,141.1,495.3,140.8z" />
	<path fill="#F6D9C7" d="M550,43.9c3.6,10-0.5,20-3.1,29.8c-1.2,4.9-7.1,3.2-10.5,5.1c-4.1-1.7-9.8-2.6-14.5-3.1l0.1,0   c-0.4-1.6-1.8-2-3.1-2.6c-0.4-0.5-0.7-1.4-1.6-0.5c-2.9-1.7-2.9-5.8-5.5-7.5c-0.7-1.3-1.4-2.6-2.2-3.8c-0.1-0.9,0.5-1.9-0.7-2.3   c-1,0.3-2.1,0.5-3.1,0.8c-3-2.4-7-5.1-7.5-9.1c0.5,0,1-0.1,1.5,0c0.8,1.7,2.1-0.1,3-0.8c0.8,0.5-0.2,1,0.1,1.5   c-0.3,0.7-0.6,1.7,0.1,2.1c1.6,0.8,1.1,3.1,2.7,3.6c2.6-1.9-0.9-4.2-1.4-5.7c0-0.8,0.5-1.8-0.6-2.3c1.5-1.6,3.8,0.6,5.7-0.8   c-1.2-1-2.1-1.9-3.1-2.7c0.4-0.4,0.8-0.7,1.2-0.9c2,0.3,2.2-1.6,2-3.2c1.8-1.6,3.3-4.3,3.1-6.8c0.8-1.2,0.7-2.6,0.9-4   c0.1-0.7,1.3-1,0.8-2.1c-0.6,0.4-1.1,0.6-1.7,0.9c-0.3-0.8-0.5-1.6-0.8-2.4c1.6-1.2,2.5-2.3,0-3.2c0-0.2,0-0.4,0.1-0.5   c0.2-0.3,0.4-0.6,0.7-0.8c0.9-0.3,2.6-0.3,2.3-1.6c1-1.3,2.6-1.7,3.6-2.9c0-0.8,0.3-1.4,0.7-2.2c0.7-0.3,1.9,0.5,2.5-0.6   c2.3-0.4,3.9,1.5,6,1.9c1.6-1,3.2-0.1,4.6,0.7c0.9-0.9,2-0.7,3-0.4c0.4,0.6,0.6,0.6,0.8-0.1c0,0,0,0,0,0c1-0.1,2.1,0,3.1,0   c0.4-0.4,0.8-0.8,1.2-1.2c4.9,3.8,5.4,10.6,8.5,15.6c-15,2.5-8.2,10.4-3,19.7c-0.5,1.7-2.4,1.7-2.2,3.7c7.3-1.4,0-9-1.6-12.8   c0.3-0.5,0.5-1,0.8-1.4c1.1,0.7,1.7,1.9,2.6,2.6c1.9,0,2.4-1.5,3.1-3.1C549.3,41.8,549.6,42.9,550,43.9z M525.8,41.8   c0.5-0.2,0.9-0.1,1.4-0.1c-0.3,3.3,3.7,3.9,5.2,1.4c-0.1-0.6-0.2-1.1-0.4-1.9c0.8,0.6,1.3,0.9,2.2,1.5c-0.4-1.7-0.8-2.8-1.1-4   c-0.8-0.2-1.6-0.3-2.5-0.5c0.4,0.7,0.6,1.1,0.8,1.5c-1.2,0.2-2.3,0.3-3.4,0.5c-1.4-0.6,0.9-0.9,0.1-1.5c-0.9-0.1-6.4,2.1-3.9,2.9   c0.1,0.4,0.1,0.8,0.2,1.5C525.1,42.6,525.4,42.2,525.8,41.8C525.8,41.8,525.8,41.8,525.8,41.8z M521.9,35.6c-0.3,0.5-0.7,1-0.8,1.6   c-0.6,0.2-0.7,0.6-0.3,1.3c4.4-6.2,11.6-0.9,16.6-3.9C531.9,33.2,526.6,32.1,521.9,35.6z M540.2,55.4c0.9-0.3,1.8-0.6,3.2-1.2   c-2-1.7-2.9-0.2-4.8,0.5c-0.9-0.1-1.4-1.2-2.4-0.3C537.1,55.9,538.8,56.9,540.2,55.4z M546.2,66.6c2.1-0.5,1.9-3.4,2.3-5.2   c-5.2-2.4-10,0.7-15.2,0.9c1,2.7,4,1.8,5.6,3.8C539.9,68.7,544.1,67.8,546.2,66.6z M543,57.1c-1,0.9-1,0.9,0.2,2.1   C543.1,58.3,543,57.8,543,57.1z" />
	<path fill="#F6D9C7" d="M538.6,94.7c6.1,5.7,8,13.8,11.7,21.1c7.4,13.5,8.6,25.8-10.8,24.2c-1.2-1.5-0.8-3.7-2.6-5   c-0.7,1.5,0.3,3,0.1,4.6c-5.7,0.1-19.8-5.2-26-9.6c-2.6-11.4-3.2-23-6-34.5c5.4-3.5,5.6-11.5,9.1-16.7c0.5,1.3,0.7,2.7,1.7,3.8v0   c1,2.8,1.7,5.7,3.3,8.2c0.2-0.1,0.3-0.1,0.5-0.2c-0.2-1.2-0.5-2.3-0.7-3.5c-0.5-1.3-2.5-2.3-1-4.3c4.2,8.6,16.2,7.3,14.6,14.7   c0.1,0,0.3,0.1,0.4,0.1c0.4-1,0.8-1.9,1.2-2.9c0.4-0.2,0.9-0.5,1.1-0.6C536.5,94.4,537.6,94.5,538.6,94.7z M541.5,111.3   c1.3-0.4,2.1-1.5,3.1-2.9c-1.9,0.1-2.4,1.1-3,2.2c-2,1.4-9.3,3.3-8.7,5.7C536,115.3,538.8,113.1,541.5,111.3z M523.6,113.5   c-0.6-0.7-1.3-1-2.3-0.1c2.3,1.6,8.1,7.8,9.7,3.2C528.3,115.8,526,114.9,523.6,113.5z M522.6,98c-0.3,0.1-0.5,0.2-0.8,0.3   c0.9,2.6,1.8,5.3,3,8.6C525.2,103.2,523.8,100.6,522.6,98z M515.6,110.6c0.9,1.6,1.6,2.6,2.5,1.2   C517.3,111.4,516.4,111,515.6,110.6z M531.2,102c0.9-0.2,1.7-1.7,0.5-1.9C530.9,100.6,531,101.2,531.2,102z M533.9,128.6   c1,1.8,1,1.8,1.9,1.2C535.4,129.5,535,129.3,533.9,128.6z M511.5,108.5c-0.2,1.4,0.2,1.4,1.4,1C512.4,109.1,512,108.8,511.5,108.5z   " />
	<path fill="#E0C7B6" d="M538.6,94.7c-1.1-0.2-2.1-0.3-3.4-0.5c-0.2,0.1-0.7,0.3-1.1,0.6c-0.1-0.7-0.1-1.4-0.2-2.7   c-0.6,1.2-1,1.9-1.3,2.7c-0.1-1.3-0.7-1.9-2-2.4c-5.2-1.7-9.6-4.9-12.7-9.5c-1.6,2,0.5,2.9,1,4.3c-1,0.1-0.7,0.9-0.9,1.5   c-0.7-2-1.4-4.1-2.1-6.1c0.9-1.2-0.2-7-2.2-6.4c0.2,1,0.3,1.8,0.5,2.7c-3.4,5.2-3.7,13.1-9.1,16.7c-0.8-1.9-1.3-3.4-2.4-5.3   c5.2-8.5,5.4-19.3,3.4-28.9c3.8-0.8,3,5.4,6.1,5.8c-0.1-0.7-0.2-1.3-0.3-1.9c3.2,3.2,4.8,9.5,10.1,10.5l-0.1,0   c1.4,1.8,10.6,4.5,11.3,1.6c1.9,1.4,1.9,1.4,3.3,1.5C534.5,86.1,537.4,88.5,538.6,94.7z" />
	<path fill="#332B25" d="M498.5,52.1c1.9,3.2,4.3,5.7,7.4,7.8c-0.4,0.1-0.7,0.2-1.3,0.3c-0.1,1.4-0.2,2.9-0.2,4.5   c-0.3,0-0.7,0.1-1.2,0.1c-0.1,0.4-0.2,0.8-0.4,1.3c-0.2-0.1-0.4-0.1-0.6-0.1c-0.7-2.9,0.3-6.6-1.8-8.9c0.5,2.9-0.3,6.6,1.8,8.8   c-0.3,2.7,0.6,5.2,1.4,7.8c0.1-1.1,0.2-2.2,0.3-3.3c1.2,1.7,0.3,3.7,0.6,5.4c-0.6,0.3-1.1,0.5-1.6,0.8c-3-7.3-2.2-16.2-5.2-23.6   C498,52.7,498.3,52.4,498.5,52.1z M502.3,59.5c0.3,1,0.7,2,1.1,3.5C503.8,61.4,504.5,58.9,502.3,59.5z" />
	<path fill="#8D7D68" d="M501.6,71.9c0.8,1.5,0.2,3.4,1.4,4.7c0.1,1.1,0.2,2.2-0.7,3c0,0,0,0.1,0,0.1c0-0.7,0-1.3-0.8-1.6l0,0   c-0.2-1.3-0.5-2.6-0.7-3.9C501.9,73.7,501.3,72.6,501.6,71.9z" />
	<path fill="#5B3633" d="M508.9,63c-0.5-1.3-1.3-2.1-2.9-1.6c0-0.5,0-1-0.1-1.5c1-0.3,2-0.5,3-0.8c0.1,0.6-0.2,1.4,0.6,1.7   c0,0.2,0,0.4,0,0.6C508.9,61.7,509.1,62.4,508.9,63z" />
	<path fill="#958670" d="M503.9,70.4c-0.1,1.1-0.2,2.2-0.3,3.3c-0.8-2.6-1.7-5.1-1.4-7.8l0,0c0.2,0,0.4,0.1,0.6,0.1   C503.2,67.5,503.6,69,503.9,70.4z" />
	<path fill="#DFD292" d="M501.6,96.2c-0.3,0-0.6,0-0.8,0c-0.5-1.1-1-2.2-1.6-3.5c0.4-0.3,0.8-0.5,1.2-0.8   C501.7,93.2,501.4,94.7,501.6,96.2z" />
	<path fill="#8D836D" d="M502.2,84c-0.2-1.8-2.7-4.7-0.8-5.9l0,0c0,0.6-0.1,1.3,0.8,1.6c0,0,0-0.1,0-0.1c0.7,1.5,1,2.9,0.7,4.5   C502.7,84,502.4,84,502.2,84z" />
	<path fill="#A2A472" d="M549.2,105.3c-0.3,0.3-0.6,0.6-0.9,0.9c-0.8-1.1-1.6-2.1-2.2-3.4C547.9,103.4,547.9,103.4,549.2,105.3z" />
	<path fill="#2D2822" d="M502.9,84c0.1-0.7,0.1-1.5,0.2-2.2C504.1,83.1,504.1,83.2,502.9,84z" />
	<path fill="#E1CAB9" d="M626.2,160.8c-2.7-0.4-5.4-2-8-0.2c-0.3-0.8-0.5-1.5-0.8-2.3c1-0.1,0.7-0.8,0.7-1.4   c0.3-0.3,0.6-0.6,0.9-0.9c2.2,1.4,11.5,1.7,9,5.4c-0.3,0-0.5,0-0.8,0C626.9,161.2,626.5,161,626.2,160.8z" />
	<path fill="#BFAEA0" d="M618.2,160.6c0.5-0.2,1-0.5,1.6-0.7c1.4,3.2,6.6,0.4,7.8,3.9c-3.5,2.2-4.7-1.1-7.9-0.9c0,0,0.1,0.1,0.1,0.1   c-0.1-0.4-0.1-0.9-0.2-1.3c-0.1,0-0.3,0-0.4,0c0,0.4-0.1,0.8-0.1,1.2l-0.2,0.2C617.9,162.4,618.1,161.5,618.2,160.6z" />
	<path fill="#C6B5A6" d="M619,156c-0.3,0.3-0.6,0.6-0.9,0.9c-1.3-1.5-2.5-3-3.8-4.5c0.5-0.3,1-0.6,1.6-0.9c0.3,0.2,0.7,0.6,0.8,0.6   c1.1-0.8,2.2,1.1,3.3-0.1c0.7,0.6,1.4,1.3,2.1,1.9c-0.3,0.3-0.6,0.5-0.9,0.8c-0.8-0.2-1.6-0.3-2.4-0.5   C617.6,155.1,618.8,155.4,619,156z" />
	<path fill="#4E413C" d="M614.2,152.4c1.3,1.5,2.5,3,3.8,4.5c0.1,0.6,0.3,1.3-0.7,1.4C616.6,156.6,612.5,154.2,614.2,152.4z" />
	<path fill="#3E302C" d="M618.9,145.4c-1.2,0.5-0.6,1.7-0.9,2.5c-1-1.8-1.1-3.5,0.5-5.2C618.7,144,618.8,144.7,618.9,145.4z" />
	<path fill="#7B6860" d="M570.5,110.5c-0.5,0.7-1.1,0.9-1.4,0.1C569.2,109.8,569.8,110,570.5,110.5z" />
	<path fill="#917D74" d="M595.4,147c0-0.5,0-1,0-1.5C597,145.2,597.1,147.3,595.4,147z" />
	<path fill="#5A5952" d="M608.2,145.6c0.3-0.3,0.7-0.7,1-1c0.4,0.4,0.9,0.7,1.4,1.2C609.5,146.5,608.8,146.4,608.2,145.6z" />
	<path fill="#8B756C" d="M591.7,147.7c0.1-0.4,0.2-0.9,0.3-1.3c0.4,0.2,0.7,0.4,1.1,0.6C592.6,147.2,592.1,147.4,591.7,147.7z" />
	<path fill="#BFAEA0" d="M619.9,163.5c-0.3,0-0.7,0.1-1,0.1c0-0.2-0.1-0.4-0.1-0.6l0.2-0.2c0.2,0,0.5,0,0.7,0.1l-0.1-0.1   C619.7,163.1,619.8,163.3,619.9,163.5z" />
	<path fill="#C6B5A6" d="M616.7,150.1c-0.2,0.3-0.5,0.6-0.7,0.8C616.2,150.6,616.4,150.3,616.7,150.1z" />
	<path fill="#2D2923" d="M531.8,17.6c-1.2-0.9-2.5-1-3.8-0.3c-5.8-3-13.1-2-18.9-4.4c0,0,0,0.1,0,0.1c2.2-0.3,5.3-1.1,6.9-2.3   c1,0,2,0,3-0.1c1.5,1.1,1.9,1.1,3,0.1c0-0.2,0-0.5,0-0.7c1.8,0.5,3.5,1,5.3,1.5c0.1,0.2,0.1,0.5,0,0.7c-0.5,0.1-0.9,0.1-1.4,0.2   c0,0.1,0,0.3,0,0.4c1.6,0,2.9,1.1,4.3,1.9c0.2,1.4,1.2,1.2,2.3,1.5C532.2,16.6,532,17.1,531.8,17.6z" />
	<path fill="#B0AC93" d="M527.2,11.5c-1.8-0.5-3.5-1-5.3-1.5c-0.1-0.2-0.2-0.4-0.4-0.8c4,0.1,9.6-0.1,11.7,3.8c-0.5,0-1,0-1.4,0   c0,0,0,0,0,0C530.8,11.8,528.4,9.4,527.2,11.5z" />
	<path fill="#736759" d="M531.8,12.9c0.5,0,1,0,1.4,0c0.5,0.7,1.1,1.4,1.6,2.1c-0.1,1.1,0.3,1.8,1.5,1.7c0,0,0,0,0,0   c0,0.3,0,0.5,0,0.8c0,0,0,0,0,0c-1.3,0.3-2.6-0.6-3.8,0.6c-0.1,0.1-0.5-0.3-0.7-0.4c0.2-0.5,0.5-1,0.7-1.5   C534.1,15.3,531.1,14.2,531.8,12.9z" />
	<path fill="#C2BCA6" d="M539.4,17.4c-0.5,0-1.1,0-1.6,0c0.2-1.6-1.1-2.2-2.2-3c0-0.3,0.1-0.7,0.1-1.1C538,14.8,538,14.8,539.4,17.4   z" />
	<path fill="#786A5B" d="M535.6,14.4c1,0.8,2.3,1.4,2.2,3c-0.2,0-0.4,0-0.6,0c-0.3-0.2-0.6-0.5-0.9-0.7c0,0,0,0,0,0   C536.1,16,535.3,15.2,535.6,14.4z" />
	<path fill="#9FAE95" d="M521.9,10.7c-1.1,1-1.5,1-3-0.1l0,0.1C519.9,10.5,520.9,10.5,521.9,10.7z" />
	<path fill="#95A48C" d="M518.9,10.6c-1,0-2,0-3,0.1c0-0.3,0-0.5-0.1-0.7c1-0.2,2-0.2,3,0C519,10.2,519,10.4,518.9,10.6L518.9,10.6z   " />
	<path fill="#C0B89D" d="M535.5,15.1c0.3,0.5,0.5,1.1,0.8,1.6c-1.2,0.1-1.6-0.6-1.5-1.7C535,15.1,535.3,15.1,535.5,15.1z" />
	<path fill="#2D2923" d="M518.9,10.7c0.1-0.3,0.1-0.5-0.1-0.7c0.6-0.1,1.2-0.1,1.6,0.5C519.9,10.5,519.4,10.6,518.9,10.7z" />
	<path fill="#CEB89A" d="M501.6,71.9c-0.3,0.7,0.3,1.8-0.8,2.3c-1.4-6.2-2.7-12.3-4.4-18.4c-0.9,4.7,1.3,9.3,2.1,13.9   c-6.3-5.9-4.2-19.8-4.5-28.6c1.6,1.1,2.6,2.6,3.1,4.4c-1.7,2.7-1.2,5.2,0.7,7.6C500.2,58.9,500,65.7,501.6,71.9z" />
	<path fill="#C8B698" d="M512.2,23.6c0,0.2,0,0.4-0.1,0.5c-3.7,0.6-8-0.6-11.4,0.9c-1.9-0.1-3.1-1.3-4.4-2.4   c0.9-1.9,1.7-3.9,3.7-5.1l0-0.1c0.3,0.3,0.6,0.6,0.8,0.8c0,0-0.1-0.1-0.1-0.1c-0.1,3.2,4.5,2.4,6.7,3.2c-2,1.7-5-0.6-6.9,1.1   c2.8,0.6,7,2.3,9.2,0.3C510.5,23.1,511.4,23.2,512.2,23.6z" />
	<path fill="#CBB597" d="M493.8,24.1c-1.5-3.6-0.4-9.1,1.5-12.8c0.2,0.5,0.4,1,0.6,1.7c1-0.3,1.8-0.5,2.7-0.8   c0.9,0.4,1.9,0.9,2.8,1.4C497.6,16.2,494.5,19.3,493.8,24.1z" />
	<path fill="#E6D4B6" d="M501.4,13.6c-1-0.5-1.9-1-2.8-1.4c-0.9,0.3-1.7,0.5-2.7,0.8c-0.2-0.7-0.4-1.2-0.6-1.7   c1.2-2,2.9-3.2,5.4-2.8c0.6,1.1,2,0.5,3.1,0.7c0,0-0.1-0.1-0.1-0.1c0.2,0.4,0.4,0.8,0.7,1.5c-0.8,0.1-1.6,0.2-2.4,0.3   c0.3,0.5,0.7,0.9,1.1,1.5C502.5,12.8,502,13.2,501.4,13.6z" />
	<path fill="#E7D9BA" d="M509.1,12.9c1.8,1.3,4.6,0.7,6.7,1.7c-1.1,1.5-3.3-0.3-4.5,1.3c-1.2,0-2.5,0.1-3.7,0.1   c-0.9-0.9-2.6-0.8-3.1-2.3C505.7,12.4,507.4,13,509.1,12.9z" />
	<path fill="#B6A78B" d="M495.5,35.6c0-0.7,0-1.4,0-2.2c1.2,0.5,2.1,0.8,3.1,1.4c0.9-0.5,2.4-1.3,3,0.2c-0.2,0.4-0.3,0.8-0.6,1.5   c1.6,0,3,0,4.3,0c0,0.2,0,0.3,0,0.5C501.9,38,498.5,37,495.5,35.6z" />
	<path fill="#AAA288" d="M513.6,25.8c-0.5,0.5-1,1-1.6,1.4c-2.1-0.5-4.7,0.3-6.9,1.5l0,0c-2.1,0.5-5.6-0.9-6.8,1   c-0.5-0.3-0.9-0.6-1.4-1c3.1-3.2,4.3,0.9,7.5-1.4c1.9-0.1,3.7-0.4,5.3-1.5C511.1,25.9,512.4,25.9,513.6,25.8z" />
	<path fill="#C8BFA4" d="M515.8,9.9c0,0.2,0.1,0.5,0.1,0.7c-1.6,1.2-4.7,2-6.9,2.3c-0.4-0.4-0.7-0.9-1.2-1.5   C510.4,10.3,513,9.4,515.8,9.9z" />
	<path fill="#CBB89A" d="M500,27.3c-1.4-0.4-2,1.1-3,1.4c-2-1-1.9-2.6-1.5-4.4c1.5,0.3,3,0.9,4.4,1.4c0.3,0.7,0.9,0.7,1.6,0.7   C501,26.8,500.5,27.1,500,27.3z" />
	<path fill="#867663" d="M498.4,29.7c0.3-0.9,0.9-1,1.7-0.8c0.6,0.7,1.4,0.9,2.2,1.3c-0.6,0.1-1.3,0.2-2.1,0.4   c1.1,1.2,2.3,1.3,3.5,1.4c-0.6,0.8-1.5,0.6-2.3,0.6c-1.4-0.2-2,1.5-3,2.2c-0.3-0.2-0.6-0.3-0.8-0.5c-0.3-0.5-0.6-1.1-0.9-1.6   c1.1,0,1.9-0.5,2.4-1.6C498.9,30.7,498.7,30.2,498.4,29.7z" />
	<path fill="#332F27" d="M497.1,45.5c-0.5-1.8-1.5-3.4-3.1-4.4c-0.3-2.1,0.8-0.6,1.5-1.7c0.2,0,0.4,0.1,0.6,0.1   c0.7,1.3,2.1,0.5,3.2,0.1c0.8,0.2,1.6,0.4,2.4,0.6c-1.5,1.2-3.3,0.1-4.9,0.8c-0.2,1.2,0.5,2,1,3C497.5,44.5,497.3,45,497.1,45.5z" />
	<path fill="#5C4C40" d="M496,39.5c-0.2,0-0.4-0.1-0.6-0.1c0-1.3,0-2.5,0-3.8c2.6,1.3,5.4,2.1,8.3,1.7c0,0.2,0,0.3-0.1,0.5   c-0.3,0.3-0.6,0.6-0.8,0.9c-2.2-0.3-4.3-0.7-6.7-1C496.2,38.3,496.1,38.9,496,39.5z" />
	<path fill="#C9BDA1" d="M499.9,17.5c0.5-0.2,1-0.5,1.5-0.7c0,0,0-0.1,0-0.1c0.8,0.8,0.9,0.9,1.4,0.1c0.5,0.3,0.9,0.8,1.4,0.9   l0.2-0.2c0.9,0,1.7,0,2.8,0c-1.9,3.1-4,2-6.6,0.7c0,0,0.1,0.1,0.1,0.1C500.5,18,500.2,17.7,499.9,17.5   C499.9,17.4,499.9,17.5,499.9,17.5z" />
	<path fill="#CCC2A6" d="M506.9,8.3c0.2,0.5,0.3,1,0.5,1.5c-1.3,0.5-2.4-0.6-3.7-0.7c0,0,0.1,0.1,0.1,0.1c-0.2-0.9-1-0.7-1.6-0.8   c0,0,0.1,0.1,0.1,0.1c-0.2-0.3-0.3-0.6-0.6-1.1C503.8,6.2,505.4,7.1,506.9,8.3z" />
	<path fill="#CCBB9C" d="M499.2,31.1c-1.1,2.9-5,1.1-4.2-1.8C496.5,29.6,497.6,30.8,499.2,31.1z" />
	<path fill="#4F4439" d="M499.9,25.8c-1.5-0.5-2.9-1.1-4.4-1.4c0.3-0.6,0.5-1.2,0.8-1.8c1.3,1.1,2.5,2.3,4.4,2.4   C500.4,25.3,500.2,25.6,499.9,25.8z" />
	<path fill="#D0C6AA" d="M503.8,17.5c-0.3-0.2-0.6-0.5-0.9-0.7c-0.5,0-0.9-0.1-1.4-0.1c0,0,0,0.1,0,0.1c0.2-0.6,0.5-1.1,0.7-1.7   c1,0.3,2,0.7,2.9,1c-0.3,0.5-0.4,1.2-0.8,1.6C504.1,17.7,503.9,17.6,503.8,17.5z" />
	<path fill="#4E473D" d="M505.1,16.1c-1-0.3-2-0.7-2.9-1c0.7-0.5,1.5-1,2.2-1.4c0.5,1.5,2.2,1.4,3.1,2.3   C507.2,17.1,505.9,16.2,505.1,16.1z" />
	<path fill="#B6B69C" d="M509.1,9.2c-0.2-0.2-0.4-0.4-0.6-0.7c0.3-0.1,0.7-0.1,1-0.2C509.4,8.7,509.2,9,509.1,9.2z" />
	<path fill="#38302E" d="M272,153.1c-0.3,0.2-0.6,0.5-0.9,0.7c0-0.3,0-0.5,0-0.8C271.4,153.1,271.7,153.1,272,153.1z" />
	<path fill="#B2A698" d="M621,154.7c0.3-0.3,0.6-0.5,0.9-0.8c1.2,0.6,2.5,1.1,3.9,1.8C624,156,624,156,621,154.7z" />
	<path fill="#CCC2A6" d="M502.3,9.1c-0.6,0.1-1.2,0.1-1.5-0.6c0.5,0,1,0,1.6-0.1l-0.1-0.1C502.2,8.6,502.2,8.8,502.3,9.1z" />
	<path fill="#D0BAAA" d="M540.8,35.5c0.6-0.7,0.5-1.9,1.7-2.1c0,0.4-0.1,0.7-0.1,1.2c2.4,1.4,4.8-1.7,7.3,0   c-0.3,1.3-0.6,2.8-0.9,4.3c-1.9-0.6-6-0.3-5.7,2.2c-0.3,0.5-0.5,1-0.8,1.4c-0.5-1.1-1.1-2.1-1.6-3.1c0.5-1.3,0.9-2.4,1.3-3.6   C541.5,35.6,541.2,35.6,540.8,35.5z" />
	<path fill="#200F0E" d="M623.2,161.5c-1.3-0.2-2.9,0.1-3.5-1.6c1.8-0.4,3.6,0,5.2,0.8C624.4,161,623.8,161.2,623.2,161.5z" />
	<path fill="#BFAEA0" d="M627.2,161.4c0.3,0,0.5,0,0.8,0C627.7,162,627.5,162,627.2,161.4z" />
	<path fill="#BFAEA0" d="M626.2,160.8c0.3,0.2,0.7,0.4,1,0.6C626.9,161.2,626.5,161,626.2,160.8z" />
	<path fill="#484035" d="M498.5,69.7c-0.8-4.6-3.1-9.1-2.1-13.9c1.5,4.6,2.2,9.3,3.5,14C499.4,69.7,498.9,69.8,498.5,69.7z" />
	<path fill="#3E3631" d="M291.7,149.8c0.9,1.3,1.5,2.7,1.2,4.3c-2-0.5-1.1-2.4-2.2-3.3C291.1,150.5,291.4,150.2,291.7,149.8z" />
	<path fill="#38302E" d="M273.4,150.1c0.3,0.2,0.6,0.4,1,0.6C274.1,150.5,273.7,150.3,273.4,150.1z" />
	<path fill="#38302E" d="M275.2,152.4c-0.3,0.2-0.7,0.3-1,0.5C274.5,152.7,274.9,152.6,275.2,152.4z" />
	<path fill="#3E2F2B" d="M295.4,144c0.9-0.2,1.8-0.4,3-0.7c1.7,1.7,3.5,3.6,5.8,6c-3.3,0.1-4.3-3.3-7.3-3.9   C296.4,144.9,295.9,144.5,295.4,144z" />
	<path fill="#141211" d="M556.9,412c0.2-0.7,0.4-1.5,0.7-2.2c0.5,0,1,0,1.5-0.1c1.6,2.8,3.4,6.6,2.9,9.9c-0.5,0-0.9,0-1.4,0   C559.4,417.1,558.1,414.6,556.9,412z" />
	<path fill="#24201D" d="M562.9,444.6c-0.5-2.2-1-4.3-1.5-6.5c3.1-1.5,3.9,8.1,2.3,9.4C563.4,446.6,563.1,445.6,562.9,444.6z" />
	<path fill="#211D1B" d="M565.3,459.7c-2.3-1.8-3-4.4-1.6-6.8C565.6,455.1,564.9,457.5,565.3,459.7z" />
	<path fill="#2A2623" d="M559.1,409.8c-0.5,0-1,0-1.5,0.1c0-1.5,0-3,0-4.5l0,0c0.2-0.3,0.4-0.5,0.6-0.8c0.7,0,1.3,0,2.2-0.1   C559.9,406.4,559.5,408.1,559.1,409.8z" />
	<path fill="#8A7E75" d="M563.7,447.6c1.4-0.9,0.5-3,0.7-4.5c1.3,2.6,1.4,6.8-0.5,9.2C563.6,450.4,563.7,449,563.7,447.6z" />
	<path fill="#1C1817" d="M572.9,414.5c-0.2-1.8-0.4-3.5-0.6-5.3C575.6,409.2,573.5,412.9,572.9,414.5z" />
	<path fill="#342F2C" d="M569.6,522.6c-0.3,1-0.5,2-0.8,3c-1.1-2.9-1.1-3,0.7-4.3C569.6,521.8,569.6,522.2,569.6,522.6z" />
	<path fill="#D2B9AB" d="M564.1,483.5c0,0.6,0,1.2,0,2.6C562.9,484.8,562.1,483.6,564.1,483.5z" />
	<path fill="#7A776F" d="M560.6,419.6c0.5,0,0.9,0,1.4,0c-0.1,1.2-0.2,1.6-1.4,2.4C560.6,421,560.6,420.3,560.6,419.6z" />
	<path fill="#1D1D1B" d="M564.4,468.4c0-0.9,0-1.9,0-3.4C565.5,466.5,565.5,467.4,564.4,468.4z" />
	<path fill="#B8A196" d="M564.3,476.4c0.6,1,0.6,1.2-0.3,1.4C563.4,477.4,563.9,477,564.3,476.4z" />
	<path fill="#E1C7B6" d="M558.2,404.5c-0.2,0.3-0.4,0.5-0.6,0.8C557.8,405,558,404.8,558.2,404.5z" />
	<path fill="#E1C6B6" d="M487.1,406c-1.6-1.6-1.2-3.9-2.4-5.5c0.9-1.8,0.9-1.8,2.6-2.8c4.4,1.4,4.4,8.4,4.1,12.6   c-0.7,0.1-1.4,0.1-2.1,0.2c-0.1-2.2,0.8-4.2-0.8-6.1C487.9,405.1,487.5,405.6,487.1,406z" />
	<path fill="#1C1816" d="M487.1,406c0.4-0.5,0.8-0.9,1.4-1.6c2.4,3.6,0.3,10.6-4.4,10.8c0-0.3-0.1-0.7-0.1-1   c0.8-1.9,1.7-3.8,3.4-5.2C487.2,408,487.2,407,487.1,406z" />
	<path fill="#2B2321" d="M481.6,436.2c0.3-1.1,0.6-2.2,1.6-2.8c2.3,0.7-0.5,3.6-0.7,5.1C481.1,438.2,482,437,481.6,436.2z" />
	<path fill="#3E3531" d="M479,450.4c-0.6-4.2-0.6-4.2,1.1-5.5C480.4,446.7,480.4,448.3,479,450.4z" />
	<path fill="#97887E" d="M481.6,436.2c0.4,0.8-0.4,2,0.9,2.3c-0.5,1.4-1.3,2.6-2.3,4.3c-0.5-1.8,0.5-2.6,0.7-3.5   C481.1,438.3,480.6,437.1,481.6,436.2z" />
	<path fill="#7C6F68" d="M463.6,527.2c-0.4,0.2-0.8,0.3-2,0.8c1.2-1.6,0.7-3.1,2-3.9C463.6,525.2,463.6,526.2,463.6,527.2z" />
	<path fill="#B7A196" d="M478.8,455.4c0-1.4-0.4-1.9,0.9-2.2C480.4,454.3,479.8,454.4,478.8,455.4z" />
	<path fill="#614F4A" d="M483.9,414.2c0,0.3,0.1,0.7,0.1,1c-0.3,0.6-0.7,1-1.6,0.4C483,415.1,483.5,414.7,483.9,414.2z" />
	<path fill="#7B6F6B" d="M478.6,460.9c0.1,0.8,0.2,1-0.4,1.8c-0.1-0.8-0.1-1.3-0.2-1.8C478.2,460.9,478.4,460.9,478.6,460.9z" />
	<path fill="#251C1A" d="M443.2,127.4c5.4-1.4,10.9-2.7,16.3-4.1c0.3,0.2,0.7,0.5,1,0.7C455.4,126.3,448.5,129.4,443.2,127.4z" />
	<path fill="#332B27" d="M460.5,124.1c-0.3-0.2-0.7-0.5-1-0.7c-0.1-1.1-0.6-2-1.3-2.9c2.8-0.9,7.2,5.7,9.1,3.7c1.3,0,2.2,0.7,3,1.6   c-0.2,0.2-0.5,0.4-0.7,0.6c-1-0.4-1.3-0.2-2,0.7C465,126.7,463.1,124.3,460.5,124.1z" />
	<path fill="#151110" d="M394.7,133.5c2.4,0.2,4.4,0.3,6.7,0.5C399.2,135.7,397.4,135.5,394.7,133.5z" />
	<path fill="#110807" d="M324.2,148.5c-0.5,1.1,0.4,2.5-0.7,3.5c-0.6-2.2-1.8-3.2-0.4-5.6C323.7,147.5,324,148,324.2,148.5z" />
	<path fill="#665F58" d="M443.2,127.4c0.5,0.9,1.6,0.4,2.3,0.7c-1.6,1.1-3.3,0.6-5.4,0.6C441.2,127.8,442.1,127.2,443.2,127.4z" />
	<path fill="#AB9386" d="M329.4,150.6c0.3,0.1,0.7,0.2,1.5,0.5c-1.5,1.3-2.8,0.6-4.5,0.4c0-0.2,0-0.4,0-0.6   C327.4,150.8,328.4,150.7,329.4,150.6z" />
	<path fill="#AE998D" d="M434.7,130.7c-0.5,1.8-1.7,1-2.7,1.1C432.6,130.1,433.5,130.1,434.7,130.7z" />
	<path fill="#2E1513" d="M453.9,116.9c-0.7-0.8-1.2-1.4-1.7-2.1C454,114.5,454.1,114.6,453.9,116.9z" />
	<path fill="#69544D" d="M306.6,152.3c1.5-0.7,1.5-0.7,2.4,1C308.1,153.7,307.4,153.2,306.6,152.3z" />
	<path fill="#594E48" d="M459.2,120.3c-0.3,0-0.6,0.1-1,0.1c-0.5-0.5-1-1-1.5-1.5C457.6,116.8,458.8,119.4,459.2,120.3z" />
	<path fill="#5E332F" d="M336.3,150c-0.9,1.5-1.3,1.5-2.7,0.1C334.4,150.1,335.4,150.1,336.3,150z" />
	<path fill="#77635B" d="M312.7,154.9c-0.7,0.8-1.9,0-1.1-0.9C312.4,153.7,312.6,154.3,312.7,154.9z" />
	<path fill="#784540" d="M387.2,133.6c0.8-0.1,1.6-0.1,3.2-0.3c-1,0.6-1.3,0.8-1.5,1C388.3,134,387.7,133.8,387.2,133.6z" />
	<path fill="#7C776D" d="M387.2,133.6c0.6,0.2,1.1,0.5,1.7,0.7c-0.9,0.2-2,1.1-2.5-0.2C386.6,133.9,386.9,133.7,387.2,133.6z" />
	<path fill="#4A3431" d="M424.9,131.5c0.6-0.4,1-0.7,1.6-1.1C426.6,131.8,426.6,131.8,424.9,131.5z" />
	<path fill="#703D38" d="M326.4,150.9c0,0.2,0,0.4,0,0.6c-0.4,0-0.8,0-1.6,0c0.5-0.4,0.7-0.6,0.9-0.8   C325.9,150.7,326.1,150.8,326.4,150.9z" />
	<path fill="#925E4C" d="M516.6,281.8c1.4,2.5,3.4,4.4,3.3,7.6c-2.2-1.9-2.6-4.5-4.1-6.8C516.1,282.3,516.3,282.1,516.6,281.8z" />
	<path fill="#BD765E" d="M516.6,281.8c-0.3,0.3-0.5,0.5-0.8,0.8c-1.2-1.7-2.8-3.1-3-5.3l0.1-0.1   C514.8,278.2,515.4,280.2,516.6,281.8z" />
	<path fill="#A56C58" d="M545.2,278.9c1.2-1.7,2-2.8,4.1-3.3C548.2,277.3,547.3,278.3,545.2,278.9z" />
	<path fill="#BD765E" d="M512.8,277.3c-0.5-0.2-0.8-0.5-0.3-1.5C512.7,276.5,512.8,276.9,512.8,277.3L512.8,277.3z" />
	<path fill="#9C6551" d="M522.6,309.9c-0.1,0.1-0.3,0.2-0.4,0.3c-0.1-0.3-0.3-0.7,0.2-0.8C522.4,309.5,522.5,309.7,522.6,309.9z" />
	<path fill="#DCC5B5" d="M536.4,230.3c1.2,0.7,0.8,1.8,0.5,2.7c-0.4,4.2,1.4,8.2-1.2,12.7c-2.6-3.6-1-8.3-2.4-12.3   c1-0.3,2.1-0.6,3.1-1C536.4,231.5,536.4,230.9,536.4,230.3z" />
	<path fill="#595250" d="M517.3,226.6c-0.8-1-0.7-2.1-0.2-3.4c0.7-0.1,1.5-0.3,2.4-0.4c0,2.9,0,5.6,0,8.5c-0.5-0.6-0.9-1.1-1.3-1.6   c0-1.4,0-2.8,0-4.2c-0.2,0-0.4-0.1-0.6-0.1C517.5,225.8,517.4,226.2,517.3,226.6z" />
	<path fill="#1E1514" d="M536.4,230.3c0,0.6,0,1.2,0,2c-1,0.3-2.1,0.6-3.1,1c0,0-0.2-0.1-0.2-0.1l-0.3,0c-0.3-0.2-0.7-0.4-1-0.6   c-0.1-0.3-0.3-0.7-0.2-0.5c0.7-1.2,1.2-2.1,1.8-3.2C534.6,229.5,535.5,229.9,536.4,230.3z" />
	<path fill="#7A6F67" d="M550.4,248.8c0.5-2.6,0.8-5.2,2.2-7.4C552.9,244.2,552.3,246.7,550.4,248.8z" />
	<path fill="#3B3431" d="M552.9,225c0,2.5,0,4.3,0,6.9C551.7,229.1,550.6,226.7,552.9,225z" />
	<path fill="#242221" d="M517.3,226.6c0.1-0.4,0.3-0.8,0.4-1.2c0.2,0,0.4,0.1,0.6,0.1c-0.4,2,0.9,4.6-0.8,6.1   C516.9,229.9,517.4,228.3,517.3,226.6z" />
	<path fill="#807068" d="M518.2,240.9c-1.4-0.9-0.8-2.9-0.5-4.2C520.1,236.4,518.1,239.6,518.2,240.9   C518.1,240.9,518.2,240.9,518.2,240.9z" />
	<path fill="#6E6059" d="M518.1,240.9c1.2,2.5,1.2,2.8,0,4.4C517.4,244,518.4,242.4,518.1,240.9L518.1,240.9z" />
	<path fill="#B0998C" d="M505.2,209.8c-2-0.7-2-0.7-2-2.9c0.8,0.9,1.4,1.6,2,2.3C505.2,209.3,505.2,209.6,505.2,209.8z" />
	<path fill="#BFA89C" d="M552,219.2c0,1.3,0,1.9,0,2.5C550,221.6,550.7,220.4,552,219.2z" />
	<path fill="#C8AB9D" d="M518.2,217.2c-0.7,1.1-1.7,0.7-1-0.4C517.4,216.9,517.7,217.1,518.2,217.2z" />
	<path fill="#DCC5B5" d="M531.8,232.6c0.3,0.2,0.7,0.4,1,0.6C532.5,233,532.1,232.8,531.8,232.6z" />
	<path d="M560.6,254.6c0.1-0.2,0.2-0.4,0.2-0.5c0.1,0.1,0.2,0.2,0.2,0.4C560.9,254.4,560.7,254.4,560.6,254.6   C560.5,254.5,560.6,254.6,560.6,254.6z" />
	<path fill="#0C0A07" d="M501.7,167.4c-0.1-0.2-0.3-0.5-0.4-0.7c0.4-0.1,0.8-0.1,1.2-0.2c10.3,9.3,34.8,11.2,42.3-1.4   c1.7,14.5-26,11.3-35.2,9.2C507.9,171.5,503.5,170.5,501.7,167.4z" />
	<path fill="#181412" d="M473.9,406.2c0.5,2,0,3.7-1.1,5.8C472.8,409.7,472.4,407.8,473.9,406.2z" />
	<path fill="#3C3632" d="M462.7,530.8c0.3,1.3,0.3,1.4-0.5,3c-0.1-1.4-0.1-2.2-0.1-3C462.3,530.8,462.5,530.8,462.7,530.8z" />
	<path fill="#47403D" d="M568.8,512.1c0.3,1.8,0.3,3.7-0.1,5.6C567.7,515.4,567.7,514.5,568.8,512.1L568.8,512.1z" />
	<path fill="#352926" d="M569.4,529.9c-1.7,0-1.4-0.8-0.9-1.9C568.8,528.7,569.1,529.3,569.4,529.9z" />
	<path fill="#96887D" d="M496.1,199.3c1.2,0.6,1.5,0.9,2.4,2.2c-1.5-0.1-2.4-0.6-3.2-1.3C495.6,199.8,495.8,199.6,496.1,199.3z" />
	<path fill="#B19C8F" d="M492,244.7c-0.4-0.7-0.6-1.3-0.9-1.8C492.4,242.8,492.4,242.8,492,244.7z" />
	<path fill="#61514B" d="M497.3,250.1c0.8,0.5,1.4,1,1,2.2C497.3,251.7,496.7,251.2,497.3,250.1z" />
	<path fill="#533B37" d="M496.1,199.3c-0.3,0.3-0.5,0.5-0.8,0.8c-0.5-0.4-0.9-0.7-1.4-1.1C495,198,495.5,199,496.1,199.3z" />
	<path fill="#79675E" d="M501.3,204.2c-0.8,0.4-1.4,0.4-1.2-0.8C500.9,203.2,501.2,203.7,501.3,204.2z" />
	<path fill="#5E4B45" d="M494.5,247.2c0,0.1,0,0.1,0,0.2c-0.1,0-0.3-0.1-0.4-0.1C494.2,247.2,494.3,247,494.5,247.2z" />
	<path fill="#884E3D" d="M495.5,262.7c-3.6,0.1-4.3-0.1-6.5-1.6C490.3,260.6,490.3,260.6,495.5,262.7z" />
	<path fill="#2A201D" d="M469.7,126.4c0.2-0.2,0.5-0.4,0.7-0.6c4.2,3.5,10.7,5.2,13.1,10.2c-3.8,0.3-9.2-6.7-13.1-8.7l0.1,0.1   C470.2,127,469.9,126.7,469.7,126.4z" />
	<path fill="#B09488" d="M467.4,124.2c-0.8,1.8-2.7-1-3.8-1.4C465.3,120.9,465.8,122.9,467.4,124.2L467.4,124.2z" />
	<path fill="#221614" d="M466.7,128.9c1.2-0.5,2.3-1.1,3.6-0.8c0.4,1.7-1.8,1.5-2.8,1.6C467.2,129.4,466.9,129.1,466.7,128.9z" />
	<path fill="#5F4C45" d="M466.7,128.9c0.3,0.3,0.5,0.5,0.8,0.8c-0.9,0.7-1.8,1-3.3,0.3C465.2,129.5,465.9,129.2,466.7,128.9z" />
	<path fill="#2A201D" d="M470.3,128c-0.5,0-1,0-1.5-0.1c0.6-0.2,1.1-0.4,1.7-0.7c0,0-0.1-0.1-0.1-0.1   C470.3,127.5,470.3,127.8,470.3,128z" />
	<path fill="#452C29" d="M324.9,154.5c-0.1,0.1-0.3,0.2-0.4,0.3c-0.3-0.4-0.4-0.7,0.2-0.9C324.7,154.1,324.8,154.3,324.9,154.5z" />
	<path fill="#332B27" d="M467.4,124.3c-0.3-0.2-0.5-0.5-0.8-0.7C466.9,123.8,467.2,124,467.4,124.3z" />
	<path fill="#A49764" d="M499.9,165.2c-0.5-0.8-1.1-1.6-1.7-2.5c1.8-0.3,1.9,1,2.4,1.8C500.4,164.7,500.2,164.9,499.9,165.2z" />
	<path fill="#403725" d="M499.9,165.2c0.2-0.2,0.5-0.5,0.7-0.7c0.6,0.7,1.2,1.4,1.8,2.1c-0.4,0.1-0.8,0.1-1.2,0.2   C500.8,166.2,500.4,165.7,499.9,165.2z" />
	<path fill="#403725" d="M501.7,167.4c0.2,0.2,0.4,0.5,0.6,0.7C502,167.9,501.8,167.6,501.7,167.4z" />
	<path fill="#1C1714" d="M473.5,577.2c0-0.6,0-1.2,0-1.8c2.6-0.5,9.4-0.3,11.2,1.8C480.9,578.6,477.2,579.2,473.5,577.2z" />
	<path fill="#D1E8CA" d="M474.9,562.2c-2.8,1.3-6.1,0.8-9.1,1.2c-0.9-1.4-3.1,0.3-3.8-1.5C466.4,562,470.6,562.1,474.9,562.2z" />
	<path fill="#27241F" d="M449.9,574.2c0.4,2.2,1.4,4.3,0.6,6.8c-1.4,0.4-3-7.7-1.3-7.6C449.4,573.7,449.7,573.9,449.9,574.2z" />
	<path fill="#D3B2A2" d="M548.3,62.7c-0.2,0.8-0.5,1.7-0.7,2.5c-1.1-0.2-2.2-0.2-3.2,0.6c-1.9,0.1-3.8,0.2-5.7,0.3   c-1.1-1.5-3.2-1.3-4.7-2.4C538.9,64.1,543.5,61.7,548.3,62.7z" />
	<path fill="#B8AB8E" d="M497.7,44c-0.5-0.9-1.2-1.8-1-3c1.6-0.7,3.4,0.4,4.9-0.8c3.8,0.3,7-1.5,10.4-2.4c-0.4,1.1-0.4,2.4-1.5,3   c0-0.4-0.1-0.9-0.1-1.5C506.3,42.7,501.7,41.6,497.7,44z" />
	<path fill="#231B17" d="M497.7,44c0.5-0.3,1-0.5,1.5-0.8c3.4,0.8,7.1,1.3,10.6,0.1c-0.1,3.5-6-0.5-6,3c-0.5,0-1,0-1.5,0   c-0.6-1.1-2.4-2.8-3.1-0.7l0.1-0.1c-2.8,2.3-0.9,3.9-0.7,6.7c-0.3,0.3-0.5,0.6-0.8,0.9C495.1,50.2,496,47.1,497.7,44z" />
	<path fill="#241A18" d="M548.3,62.7c-4.9-1.1-9.5,1.4-14.3,1c-0.2-0.4-0.5-0.7-0.8-1.4c5.2-0.2,10.1-3.4,15.2-0.9   C548.4,62,548.4,62.4,548.3,62.7z" />
	<path fill="#231F1E" d="M528,40.2c1.1-0.2,2.2-0.3,3.4-0.5c-0.3-0.4-0.5-0.9-0.8-1.5c0.9,0.2,1.7,0.3,2.5,0.5   c0.3,1.2,0.6,2.4,1.1,4c-0.9-0.6-1.4-1-2.2-1.5c0.2,0.8,0.3,1.3,0.4,1.9C530.3,46.6,525.1,43.5,528,40.2z" />
	<path fill="#5C4F49" d="M540.8,35.5c0.3,0.1,0.7,0.1,1.3,0.2c-0.4,1.2-0.9,2.3-1.3,3.6c1.2,4.8,8.6,10.4,5.4,15.2   c0-0.7,0-1.4-0.9-1.6c0.2-0.4,0.5-0.8,0.8-1.4C544,46.6,537.8,41.4,540.8,35.5z" />
	<path fill="#382C29" d="M524.2,34.2c4.3-1.8,8.5-0.8,13.2,0.2C533.9,36.7,528.1,35.2,524.2,34.2z" />
	<path fill="#B9AD94" d="M518.8,17.4c0,0.3,0,0.5,0,0.8c-0.5,0.7-1.4,1.1-2.2,1.5c-0.1-0.2-0.2-0.4-0.3-0.5   c-0.1,0.1-0.2,0.2-0.3,0.3c0.2,0.1,0.4,0.2,0.6,0.3c-0.5,0.5-1,0.9-1.5,1.4c-3.3-0.1-5.8,0.6-9.1-1.2c2.5-0.7,3.7-0.2,6.1,0.2   c0.6-0.6,1.4-1.2,2.1-1.9c1.1,0.1,2.1,0.1,2.9-0.7C517.8,17.5,518.3,17.5,518.8,17.4z" />
	<path fill="#251F1C" d="M503,50c-0.9,0.7-2.2,2.5-3,0.8c0.5-0.8,1-1.6,1.6-2.5c-0.5-0.3-0.8-0.4-1.2-0.6c-0.4,0.8-0.9,1.5-1.3,2.3   c-1.5-0.9,0.1-3.1,0-4.5l-0.1,0.1c1.5,0.4,2.8,1,3.9,2.2C503,48.4,503,49.2,503,50z" />
	<path fill="#292421" d="M503,49.3c0-0.5,0-1.1,0-1.6c0.8,0,1.7,0,2.8,0c-0.9-0.6-1.5-1-2.1-1.4c-0.1-2.2,2.6-1.3,4-1.4   c-0.4,0.3-0.8,0.6-1.2,0.9c1,0.8,1.9,1.7,3.1,2.7c-1.9,1.4-4.2-0.8-5.7,0.8C503.6,49.3,503.3,49.3,503,49.3z" />
	<path fill="#63554F" d="M533.1,77.4c-0.6,2.9-9.9,0.2-11.3-1.6C525.7,76.2,529.4,76.8,533.1,77.4z" />
	<path fill="#2B201B" d="M513.5,33.4c-0.2,0.5-0.5,1-0.7,1.5c-2.2,1.1-4.3,2.2-6.8,2.3c0.5-0.6,1-1,1.6-1.5c0,0,0,0,0,0   c2.7,0.3,3-1.5,2.3-3.8c0.7-0.1,1.1-0.6,1.5-1c1.5-0.1,0.9,1.1,0.8,1.8C512.5,33.1,512.9,33.5,513.5,33.4z" />
	<path fill="#4A392F" d="M502.3,43.9c-1.1-0.2-2.1-0.5-3.2-0.7c3.8-1.3,7.6-1,11.2-3.8c0.1,0.7,0.1,1.1,0.1,1.5   C508.4,43.1,504.6,42.6,502.3,43.9z" />
	<path fill="#C0AA91" d="M518.8,17.4c-1.2,0.1-2.5,0-3.7-0.1c0.8-0.4,1.6-0.7,2.4-1.1c0-0.1-0.1-0.3-0.1-0.4c-2.1,0-4.2,0-6.3,0   c1.2-1.5,3.4,0.2,4.5-1.3c2.1,0.3,4.1,0.5,6.2,0.8c-0.6,1.1-1.8,0.3-2.5,0.6C519.2,16.5,519,17,518.8,17.4z" />
	<path fill="#7A7360" d="M506,37.2c2.5-0.1,4.7-1.2,6.8-2.3c0.3,1.2,0,2.2-0.8,3c-0.2,0-0.6,0-0.7,0c-1.1-2.1-5.9,1.9-8.4,1.4   c0-0.2,0-0.4,0-0.5c0.3-0.3,0.6-0.6,0.8-0.9C504.6,37.8,505.5,38.2,506,37.2L506,37.2z" />
	<path fill="#2E2B28" d="M504.5,51.5c0.5,1.5,4,3.8,1.4,5.7c-1.7-0.5-1.2-2.7-2.7-3.6c-0.7-0.4-0.4-1.4-0.1-2.1   C503.5,51.5,504,51.5,504.5,51.5z" />
	<path fill="#C0AF93" d="M511.9,30.9c-0.1,0-0.4,0-0.5,0c-0.1-0.4-0.1-0.9-0.2-1.4c-1.6,0.3-3.1,1.2-4.2-0.6c1.6,0,3.1-0.6,4.3-1.6   c0.3,0,0.5,0,0.8,0c0.3,0.8,0.5,1.6,0.8,2.4C512.5,30.1,512.2,30.5,511.9,30.9z" />
	<path fill="#221816" d="M538.7,66.1c2.5,0.1,5.2-1,7.4,0.5C544.1,67.8,539.9,68.7,538.7,66.1z" />
	<path fill="#351C18" d="M513.6,25.8c-3,0.5-5.4-1.1-8.3-0.9c0-0.2,0-0.4,0-0.5c2.3-0.1,4.5-0.2,6.8-0.3   C512.8,24.6,514,24.7,513.6,25.8z" />
	<path fill="#3A332F" d="M508.9,63c0.1-0.6,0-1.3,0.8-1.6c1,1.9,2.4,3.5,2.4,5.7C510.1,66,510.1,66,508.9,63z" />
	<path fill="#A3927A" d="M502.3,43.9c2-1.1,5.1-0.9,7.4-2.3c0,0.5,0,1.1,0,1.6C507.3,44.2,504.8,43.9,502.3,43.9z" />
	<path fill="#593631" d="M528,40.2c-0.3,0.5-0.6,1-0.9,1.5c-0.2,0-0.5,0-0.6-0.1c0-0.2-0.1-0.5,0-0.7c-0.1-0.2-0.3-0.3-0.4-0.5   c-0.1,0.2-0.3,0.4-0.4,0.6c0,0.3,0,0.6,0.1,0.8l0.1,0c-0.4-0.1-0.7-0.2-1.1-0.2c0.2-0.5,0.2-1,0.2-1.5c1.5-1.1,1.5-1.1,3.2-1.3   C528.9,39.3,526.6,39.6,528,40.2z" />
	<path fill="#2E1511" d="M509.8,21.3c1.8,0,3.6-0.4,5.3-0.2c0.3,1.4-1.4,1.3-2.3,1.6c-0.2-0.1-0.5-0.1-0.7,0c-0.5-1-1.5-0.6-2.2-0.8   C509.8,21.7,509.8,21.5,509.8,21.3z" />
	<path fill="#201716" d="M538.7,54.7c1.9-0.7,2.7-2.1,4.8-0.5c-1.4,0.5-2.3,0.8-3.2,1.2C539.7,55.2,539.2,55,538.7,54.7z" />
	<path fill="#51443D" d="M511.9,30.9c0.7-1.1,1.4-1.6,2.6-2.2c0.5,1.1-0.6,1.5-0.8,2.1c-0.1,0.8-0.2,1.7-0.2,2.5   c-0.6,0.1-1-0.3-1.4-0.7C512.1,32.1,513.1,31.3,511.9,30.9z" />
	<path fill="#403B37" d="M524.2,34.2c0.6,0.3,1.2,0.5,1.9,0.8c-1.4,0.7-2.9,1.2-4,2.3c-0.3-0.1-0.7-0.1-1-0.2   C521.4,35.5,523,35,524.2,34.2z" />
	<path fill="#92857B" d="M499.2,45.4c0,1.4-1.5,3.6,0,4.5c0,0.3,0,0.5,0,0.8c-0.2,0.1-0.5,0.1-0.7,0   C497.1,48.5,497.3,47.3,499.2,45.4z" />
	<path fill="#5F544E" d="M538.7,54.7c0.5,0.2,1,0.5,1.5,0.7c-1.4,1.4-3.1,0.5-3.9-1C537.2,53.5,537.7,54.7,538.7,54.7z" />
	<path fill="#BBAC9E" d="M499.2,50.7c-0.1-1.2,0.8-2,1.3-3c0.4,0.2,0.7,0.3,1.2,0.6c-0.6,0.9-1.1,1.7-1.6,2.5   C499.7,50.8,499.4,50.7,499.2,50.7z" />
	<path fill="#231816" d="M545.3,52.9c0.9,0.2,0.9,0.9,0.9,1.6c-0.7,0.2-1.3,0.4-2.2,0.7C543.7,54,544.5,53.5,545.3,52.9z" />
	<path fill="#725C55" d="M522,75.8c-1.4,0.2-2-1.1-3-1.6c0-0.3,0-0.7,0-1C520.1,73.8,521.5,74.2,522,75.8z" />
	<path fill="#523B37" d="M546.2,66.6c-0.6-0.3-1.1-0.5-1.7-0.8c0.9-0.8,2-0.7,3.2-0.6C547.5,66,547,66.5,546.2,66.6z" />
	<path fill="#4E4640" d="M504.5,51.5c-0.5,0-1,0-1.4,0c-0.3-0.5,0.7-1.1-0.1-1.5c0-0.2,0-0.5,0-0.7   C504.6,48.9,504.8,50.4,504.5,51.5z" />
	<path fill="#A5877E" d="M518.9,73.2c0,0.3,0,0.7,0,1c-0.5-0.5-1.1-1-1.6-1.4C518.2,71.7,518.5,72.7,518.9,73.2z" />
	<path fill="#524F49" d="M543,57.1c0.1,0.7,0.1,1.2,0.2,2.1C542,58,542,58,543,57.1z" />
	<path fill="#82746C" d="M521.1,37.1c0.3,0.1,0.7,0.1,1,0.2c-0.4,0.4-0.8,0.7-1.3,1.1C520.4,37.7,520.4,37.3,521.1,37.1z" />
	<path fill="#40302E" d="M524.7,41.6c0.4,0.1,0.7,0.2,1.1,0.2c-0.4,0.4-0.7,0.7-1.4,1.4c-0.1-0.7-0.2-1.1-0.2-1.5l-0.1,0l0.3-0.2   C524.4,41.5,524.7,41.6,524.7,41.6z" />
	<path fill="#3E2925" d="M524.9,40.1c0,0.3,0,0.6,0,0.9c-0.3,0.2-0.5,0.5-0.8,0.7c0,0,0.1,0,0.1,0C522.7,41.3,524.1,40.2,524.9,40.1   z" />
	<path fill="#E0C7B6" d="M509.7,60.8c-0.8-0.3-0.5-1.1-0.6-1.7C509.9,59.4,509.8,60.1,509.7,60.8z" />
	<path fill="#82746C" d="M521.9,35.6c-0.2,0.3-0.4,0.6-0.6,0.9C521.5,36.2,521.7,35.9,521.9,35.6z" />
	<path fill="#231F1E" d="M526.5,40.9c0,0.2,0,0.5,0,0.7c-0.2,0.1-0.5,0.1-0.7,0.2c0-0.3,0-0.6-0.1-0.8   C526,40.9,526.2,40.9,526.5,40.9z" />
	<path fill="#C2BCA6" d="M535.5,17.6c0.3,0,0.5-0.1,0.8-0.1C536.1,18.1,535.9,18.2,535.5,17.6z" />
	<path fill="#C2BCA6" d="M536.3,16.7c0.3,0.2,0.6,0.5,0.9,0.7c-0.3,0-0.6,0-0.9,0.1C536.3,17.2,536.3,16.9,536.3,16.7z" />
	<path fill="#C8B698" d="M512.1,22.7c0.2-0.1,0.5,0,0.7,0c-0.2,0.3-0.4,0.6-0.7,0.8c0,0-0.1-0.1-0.1-0.1   C512.1,23.2,512.1,23,512.1,22.7z" />
	<path fill="#C0AA91" d="M518.1,19c0.2-0.2,0.4-0.5,0.7-0.7C518.6,18.5,518.4,18.7,518.1,19z" />
	<path fill="#2E2522" d="M523.6,113.5c2.4,1.4,4.8,2.3,7.5,3c-1.1,4.2-6.6-0.5-8.4-2.1C522.9,114.1,523.2,113.8,523.6,113.5z" />
	<path fill="#3D2F2C" d="M539.3,112.8c-2.1,1.1-4.1,2.9-6.4,3.5c-0.8-2.1,4.2-3,5.5-4.3C538.7,112.3,539,112.6,539.3,112.8z" />
	<path fill="#DCC3B4" d="M522.6,98c1.2,2.6,2.5,5.2,2.2,9c-1.2-3.3-2.1-6-3-8.6C522.1,98.3,522.4,98.1,522.6,98z" />
	<path fill="#5E524C" d="M514.2,78.8c-0.1-0.9-0.3-1.7-0.5-2.7c2-0.5,3.1,5.2,2.2,6.4c0,0,0,0,0,0C514.9,81.6,514.7,80.1,514.2,78.8   z" />
	<path fill="#605650" d="M532.5,94.8c0.4-0.7,0.7-1.5,1.3-2.7c0.5,2.4,0,3.6-0.9,5.6c-0.1,0-0.3-0.1-0.4-0.1   C532.5,96.6,532.5,95.7,532.5,94.8z" />
	<path fill="#AF9C90" d="M541.6,110.6c0.5-1.1,1.1-2.1,3-2.2c-1,1.4-1.7,2.4-3.1,2.9C541.6,111.1,541.6,110.8,541.6,110.6z" />
	<path fill="#5F544F" d="M518,88.7c0.2-0.6-0.1-1.4,0.9-1.5c0.2,1.2,0.5,2.3,0.7,3.5c-0.2,0.1-0.3,0.1-0.5,0.2   C518.8,90.1,518.4,89.4,518,88.7z" />
	<path fill="#815F58" d="M515.6,110.6c0.8,0.4,1.7,0.8,2.5,1.2C517.3,113.2,516.5,112.2,515.6,110.6z" />
	<path fill="#7B625B" d="M541.6,110.6c0,0.2-0.1,0.5-0.1,0.7c-0.7,0.5-1.5,1-2.2,1.5c-0.3-0.3-0.6-0.6-0.9-0.8   C539.5,111.5,540.6,111.1,541.6,110.6z" />
	<path fill="#C1AB9E" d="M531.2,102c-0.4-0.8,0.1-2.4,1-1.6C532.4,101.3,532,101.7,531.2,102z" />
	<path fill="#100A09" d="M533.9,128.6c1.1,0.7,1.5,0.9,1.9,1.2C535,130.4,535,130.4,533.9,128.6z" />
	<path fill="#86665F" d="M523.6,113.5c-0.3,0.3-0.6,0.6-0.9,0.9c-0.4-0.3-0.8-0.7-1.3-1C522.3,112.5,522.9,112.8,523.6,113.5z" />
	<path fill="#988077" d="M511.5,108.5c0.5,0.4,0.8,0.6,1.4,1C511.8,109.9,511.3,109.9,511.5,108.5z" />
	<path fill="#E0C7B6" d="M515.2,81.7c0.2,0.3,0.5,0.6,0.7,0.9C515.6,82.3,515.4,82,515.2,81.7z" />
	<path fill="#9C8C75" d="M502.2,65.9c-2.1-2.2-1.3-5.9-1.8-8.8C502.5,59.3,501.5,63.1,502.2,65.9L502.2,65.9z" />
	<path fill="#A79D87" d="M502.3,59.5c2.2-0.6,1.5,1.9,1.1,3.5C503,61.6,502.6,60.6,502.3,59.5z" />
	<path fill="#342A23" d="M502.2,79.6c-0.9-0.2-0.8-0.9-0.8-1.6C502.3,78.3,502.3,78.9,502.2,79.6z" />
	<path fill="#473430" d="M619.7,162.9c-0.2,0-0.5,0-0.7-0.1c0-0.4,0.1-0.8,0.1-1.2c0.1,0,0.3,0,0.4,0   C619.5,162,619.6,162.5,619.7,162.9z" />
	<path fill="#B1A38B" d="M531.8,12.9c-0.6,1.3,2.3,2.4,0.7,3.1c-0.2-0.1-0.4-0.1-0.7-0.2c-0.4-0.7-0.8-1.3-1.7-1.3   c-0.5-0.3-0.9-0.6-1.4-0.9c0.1-0.2,0.8,0,0.3-0.5c-0.1,0.2-0.2,0.4-0.3,0.5c-0.5-0.3-1-0.6-1.5-0.8c0-0.5,0.1-0.9,0-1.4   C528.4,9.4,530.8,11.8,531.8,12.9C531.8,12.9,531.8,12.9,531.8,12.9z" />
	<path fill="#736759" d="M530.1,14.6c0.9-0.1,1.3,0.6,1.7,1.3C530.7,16.1,530.3,15.5,530.1,14.6z" />
	<path fill="#B0AC93" d="M527.2,12.2c0,0.2,0,0.5,0,0.7c-0.5-0.1-0.9-0.1-1.4-0.2c0-0.1,0-0.3,0-0.4   C526.3,12.3,526.8,12.2,527.2,12.2z" />
	<path fill="#2D2923" d="M531.8,12.9c-0.2-0.2-0.5-0.4-0.7-0.6C531.3,12.5,531.6,12.7,531.8,12.9z" />
	<path fill="#53473D" d="M509.8,21.3c0,0.2,0,0.4,0,0.6c-2.7-1.2-8.9,0.1-9.2-3.7c1.9,0.5,3.5,2.5,5.3,0.7c0.8,0,1.6,0.1,2.3,0.1   c0,0.2,0,0.3,0,0.5c-0.6,0.1-1.2,0.2-2.3,0.4C507.6,20.5,508.7,20.9,509.8,21.3z" />
	<path fill="#5E5849" d="M509.7,22.8c-2.3,2-6.5,0.3-9.2-0.3c1.5-1.3,3.7-0.1,5.5-0.4C507.1,23.2,508.5,22.6,509.7,22.8z" />
	<path fill="#948975" d="M509.7,22.8c-1.3-0.2-2.7,0.4-3.8-0.6c0.5-0.2,0.9-0.5,1.4-0.7c1.5,0.7,5-0.3,4.7,2.1   C511.3,23.2,510.5,23,509.7,22.8z" />
	<path fill="#703C32" d="M505.3,24.4c0,0.2,0,0.4,0,0.5c-1.5,0-3.1,0.1-4.6,0.1C502,23.9,503.7,24.5,505.3,24.4z" />
	<path fill="#1C1815" d="M499.9,17.4c0.3,0.3,0.6,0.6,0.8,0.8C500.5,18,500.2,17.7,499.9,17.4z" />
	<path fill="#1C1815" d="M502.3,9.1c0-0.3,0-0.5-0.1-0.8c0.6,0.2,1.4-0.1,1.6,0.8C503.3,9.1,502.8,9.1,502.3,9.1z" />
	<path fill="#92816F" d="M508.3,19c-0.8,0-1.6-0.1-2.3-0.1c0.4-0.4,0.8-0.9,1.3-1.5c-1.1,0-2,0-2.8,0c0.2-0.5,0.4-0.9,0.7-1.4   c0.8,0.2,2,1.1,2.4-0.1c3.3-0.2,6.7-0.1,10-0.1c0,0.1,0.1,0.3,0.1,0.4c-2.9,2.7-6.2-1.1-9,1c1.1,0.1,2.1,0.2,3,0.4   c0,0.2,0,0.3,0,0.5C510.5,18.4,508.8,17.6,508.3,19z" />
	<path fill="#54473B" d="M507,28.9c1,1.8,2.5,0.9,4.2,0.6c0.1,0.5,0.1,0.9,0.2,1.4c-0.3,0.3-0.6,0.6-1,0.9c-0.1-0.6-0.4-0.6-0.9-0.5   c0.5,1.3,1.6,4-0.5,4.3c-0.6-1-1-0.7-1.4,0.1l0,0c-0.8,0.2-1.8-0.4-2.3,0.8c-1.4,0-2.7,0-4.3,0c0.2-0.6,0.4-1,0.6-1.5   c0.1,0,0.4,0,0.6,0c0.6,0.7,1.2,0.7,1.7-0.1c0.9-0.2,1.9-0.3,2.2-1.5c1.2-0.2,1.6-0.1,3.2-0.2c-1.4-1-1.8-1.1-3.2-1.5   c-0.7-0.9-0.8-1.9-0.7-3l0,0C505.8,28.8,506.4,28.9,507,28.9z" />
	<path fill="#C9BB9C" d="M502.1,35c-0.1,0-0.4,0-0.6,0c-0.4-1.3-1.5-0.5-2.3-0.8c0.3-0.3,0.6-0.6,0.8-0.8c2,0,3.9,0.1,5.9,0.1   C505.5,35.2,503.5,34.8,502.1,35z" />
	<path fill="#8E8771" d="M505.2,36.4c0.5-1.1,1.5-0.6,2.3-0.8c-0.6,0.5-1.1,1-1.6,1.5c0,0,0,0,0,0c-0.3-0.1-0.5-0.1-0.8-0.2   C505.2,36.8,505.2,36.6,505.2,36.4z" />
	<path fill="#331B17" d="M505.2,36.9c0.3,0.1,0.5,0.1,0.8,0.2c-0.5,1.1-1.5,0.7-2.3,0.7c0-0.2,0-0.3,0.1-0.5   C504.3,37.2,504.7,37.1,505.2,36.9z" />
	<path fill="#1C1815" d="M499.2,34.1c0.2,0.1,0.4,0.1,0.6,0.1c-0.4,0.2-0.8,0.4-1.2,0.6C498.8,34.6,499,34.3,499.2,34.1z" />
	<path fill="#422A23" d="M505.2,28.7c0,0.6,0,1.1,0,1.7c-1.8-0.1-3.8-0.1-5.1-1.5C501.8,28.9,503.5,28.8,505.2,28.7z" />
	<path fill="#574237" d="M508.3,25c0.5,0.3,1.1,0.6,1.6,0.8c-2,1.2-4.7,2.1-6.8,0.8C504.8,26.3,507.1,26.8,508.3,25z" />
	<path fill="#563F35" d="M507,28.9c-0.6-0.1-1.2-0.1-1.8-0.2c1.7-0.8,4.5-2.1,6.1-1.5C510.1,28.3,508.6,28.9,507,28.9z" />
	<path fill="#808770" d="M503,26.7c0.5,0.2,1,0.5,1.5,0.7c-1.5,1-3,1.1-4.5,0c0.5-0.3,1-0.5,1.5-0.8l0,0   C502,26.6,502.5,26.6,503,26.7z" />
	<path fill="#808770" d="M508.3,25c-0.5,0.9-1.5,1.1-2.4,1.3c-1.5-0.9-3-1-4.4,0.2l0,0c-0.6,0-1.2,0-1.6-0.7   c0.3-0.3,0.5-0.5,0.8-0.8C503.2,25,505.7,24.9,508.3,25z" />
	<path fill="#C3B597" d="M502.3,30.2c1,0.1,1.9,0.2,2.9,0.2c0.2,0.4,0.5,0.9,0.7,1.3c-2,0.4-4,0.5-5.7-1.2   C501,30.4,501.7,30.3,502.3,30.2z" />
	<path fill="#3C4438" d="M503.8,32c1.1,0,2.1,0.8,3.1,1.3c-2.3,0.4-4.6,0-6.9,0.1C500.8,31.7,502.9,33.4,503.8,32z" />
	<path fill="#2E1F1A" d="M502.9,39.3c2.5,0.6,7.2-3.5,8.4-1.4c-3.7,1.8-8,3.2-12.1,1.7C500.4,39.5,501.7,39.4,502.9,39.3z" />
	<path fill="#AFA085" d="M502.9,39.3c-2.3-0.5-5.3,2-6.9,0.2c0.1-0.6,0.2-1.2,0.2-1.8c2.3,0.4,4.5,0.7,6.7,1   C502.9,38.9,502.9,39.1,502.9,39.3z" />
	<path fill="#1C1815" d="M501.4,16.7c0.5,0,0.9,0.1,1.4,0.1C502.3,17.5,502.2,17.5,501.4,16.7z" />
	<path fill="#1C1815" d="M503.8,17.5c0.1,0.2,0.3,0.2,0.5,0.2C504.1,17.6,503.9,17.5,503.8,17.5z" />
	<path fill="#4E4640" d="M503.7,46.2c0.6,0.4,1.2,0.8,2.1,1.4c-1.1,0-2,0-2.8,0c-0.5-0.5-1.1-0.9-1.6-1.4   C502.2,46.2,503,46.2,503.7,46.2z" />
	<path fill="#B1A99A" d="M502.3,46.2c-1.1,0.2-2.1-0.4-3.1-0.7C499.9,43.5,501.7,45.1,502.3,46.2z" />
	<path fill="#29231E" d="M509.8,18.2c0.6,0,1.2-0.1,1.8-0.1c0-0.2,0-0.3,0-0.5c-0.9-0.1-1.8-0.2-3-0.4c1.6-1.6,3.9-0.2,5.7,0.2   c0,0.2,0,0.5,0,0.7c-0.7,0.7-1.5,1.3-2.1,1.9c-1.5-0.2-2.7-0.4-3.9-0.6c0-0.2,0-0.3,0-0.5C509,19,509.5,18.9,509.8,18.2z" />
	<path fill="#545549" d="M514.3,18.2c0-0.2,0-0.5,0-0.7c1-0.2,2,0,3,0C516.5,18.3,515.4,18.3,514.3,18.2z" />
	<path fill="#502D26" d="M516.6,19.8c-0.2-0.1-0.4-0.2-0.6-0.3c0.1-0.1,0.2-0.2,0.3-0.3C516.5,19.4,516.6,19.6,516.6,19.8   C516.6,19.7,516.6,19.8,516.6,19.8z" />
	<path fill="#9F9F85" d="M509.8,31.9c-0.1-0.2-0.2-0.4-0.3-0.6c0.5-0.2,0.8-0.1,0.9,0.5C510.2,31.8,510,31.9,509.8,31.9z" />
	<path fill="#697864" d="M507.5,35.7c0.4-0.8,0.9-1.1,1.4-0.1C508.5,35.6,508,35.6,507.5,35.7z" />
	<path fill="#F6D9C7" d="M512.1,32.7c0.2,0.2,0.4,0.4,0.7,0.6C512.6,33.1,512.4,32.9,512.1,32.7z" />
	<path fill="#F6D9C7" d="M524.1,41.7c0.3-0.2,0.5-0.5,0.8-0.7c-0.1,0.2-0.1,0.4-0.2,0.6l-0.3,0C524.4,41.5,524.1,41.7,524.1,41.7z" />
	<path fill="#F6D9C7" d="M526.5,40.9c-0.3,0-0.5,0-0.8,0.1c0.1-0.2,0.3-0.4,0.4-0.6C526.2,40.6,526.3,40.7,526.5,40.9z" />
	<path fill="#B0AC93" d="M528.7,13.7c0.1-0.2,0.2-0.4,0.3-0.5C529.5,13.7,528.9,13.5,528.7,13.7L528.7,13.7z" />
	<path fill="#53473D" d="M509.8,18.2c-0.2,0.7-0.8,0.8-1.5,0.8C508.5,18.2,509.1,18.1,509.8,18.2z" />
	<path fill="#1D1915" d="M506.9,33.2c-0.8-0.4-1.5-0.8-2.3-1.2c1.8-0.5,2.8,0,4.5,1.2C508,33.2,507.4,33.2,506.9,33.2z" />
	<path fill="#B6A78B" d="M502.1,35c0.6,0,1.1,0,1.7-0.1C503.2,35.6,502.7,35.6,502.1,35z" />
	<path fill="#D2BB9C" d="M501.4,26.5c1.4-1.2,2.9-1.1,4.4-0.2C504.4,26.5,502.9,26.7,501.4,26.5z" />
</g>
</svg>