<?xml version="1.0" encoding="utf-8"?>
<!-- Generator: Adobe Illustrator 26.0.3, SVG Export Plug-In . SVG Version: 6.00 Build 0)  -->
<svg version="1.2" baseProfile="tiny" id="Layer_2_1_"
	 xmlns="http://www.w3.org/2000/svg" xmlns:xlink="http://www.w3.org/1999/xlink" x="0px" y="0px" viewBox="0 0 900 600"
	 overflow="visible" xml:space="preserve">
<g id="b_00000125602426670011972410000013732624871528021672_" display="none">
	<path display="inline" d="M476.3,111.1c0.2,0.6,0.1,1.8-0.7,2.1l0,0c0-0.6,0-1.2-0.6-1.4c-1-3.8,1.5-12.3-1-14.7
		c-1.4,1.1-1.8,3.1-3.5,3.6c-0.5-0.2-1.1-0.4-1.5-0.5c-0.9,0.5-1.1,2-2.4,1.8c0-1.8-2-3-3.4-2.6c-0.1,0.7-0.2,1.5-0.4,2.5
		c-2.4-1.1-4.7-1.9-6.4-3.9c-0.3,0.7-0.5,1.2-0.7,1.7c-1.8-1.1-3.5-2.1-5.1-3c-0.3,0.4-0.6,0.8-0.7,0.9c-1.2,0.2-2-1-3.1,0.2
		c-0.1,4.9,1.2,11-1.6,15.4c-1.8-6,2.7-13.6-1.6-19.2c-0.5,0.1-1.1,0.3-1.9,0.6c-0.7-2.2-2.4-2.7-3.5-4.6c-1.2,0-2.5,0-4.2,0
		c0.5-1.2,0.8-2.1,1.3-3.4c-1.2,0.3-2,0.4-3,0.6c-0.3-0.9-0.5-1.7-0.8-2.7c-0.9-0.4-1.9-0.8-3.1-1.3c0.5-0.5,0.8-0.9,1.4-1.5
		c-0.5-0.4-1.1-0.9-1.6-1.4c-0.8,0.2-1.4,0.4-2.3,0.6c-1.5-1.8-0.3-3,0.6-4.7c-1.4-1.2-2.2,0.8-3.2,0.8c-1.4-1.2,0.1-2.2,0.1-3.4
		c-0.4,0-0.9,0.1-1.3,0.1c-1.2-3.1-1.2-3.1-0.9-5.3c-0.4-0.5-0.8-1-1.3-1.5c0.1-1.2,0.3-2.5,0.4-3.8c-1.9-0.8-3.1-2.1-3.9-3.9
		c0.4-1.3,2.3-2.1,1.8-4c-0.5,0-1,0-1.8,0c-0.6-2,0.4-3.6,0-5.6c-0.4-1.2,0.8-2.1,1.8-2.8c-0.5-1.6-1.8-0.9-3-1
		c-0.5-2.2,1.6-3.5,2.6-5.2c0.8,0.1,1.1-0.8,0.4-1.1c-0.1,0.2-0.2,0.3-0.3,0.5c-3.4-1.2,0.9-4,2.5-5.4c-1.4,0.2-2.2,0.3-3.1,0.4
		c-0.8-1.2,0.3-2.1,0.5-3.3c0.9-0.4,1.8-0.8,2.9-1.3c0-0.8,0-1.6,0-2.3c1.2-1.1,2.4-2.2,3.9-3.5c0.7-1.1,2.7,0.8,3.5-1
		c-0.8-0.3-1.5-0.5-2.6-0.9c1.7-2.2,4.5-1.3,6.4-3.2c-0.5-0.4-0.9-0.6-1.4-1c1-1.8,4-0.8,4.6-3.2c1.7,0,3.3,0,5,0
		c-0.1-0.9-0.6-1.1-1.1-1.3c-0.3-0.4-0.6-0.7-1-1.2c3.4-3.2,8-1.7,12.3-1.2c0-0.9,0-1.5,0.2-2.4c1.9-0.3,3.7-0.6,5.7-0.9
		c2.1,2.7,3.5,0.3,5.9,1.3c1.7-1.1,5.4-3.9,6.4-0.8c-0.8,0.1-1.7,0.3-2.7,0.5c1.3,2.2,5.9-0.9,8.6-0.8c1.3,1-0.7,2-1.6,2.8
		c5.3-0.2,10.4,1.6,14.8,4.1c-0.7,1.6-3.8-0.5-3,1.9c1.6-0.1,3.2,0,4.5-1.1c0.9-0.1,1.8-0.8,2.6,0.4c-0.2,0.5-0.5,1-0.7,1.6
		c3,0.3,4.6,2.1,5.1,5c-0.4,0-0.8,0-1.1-0.1c-0.7-1.2-1.6-0.6-2.7-0.1c0.7,0.1,1.1,0.2,1.5,0.3c0.7,0.6,1.4,0.8,2.3,0.5
		c1,0.4,2.3,0.6,2.2,2.4c-0.7,0.2-1.5,0.4-2.3,0.7c0.2,0.9,0.5,1.2,1.3,1.3c2.6,0.2,3.2,2.6,5.2,3.9c-0.2,0.4-0.3,0.8-0.5,1.3
		c3,4,3,4,1.7,6.3c0.8,1.4,2.2,2.8,0.9,4.9c3.1,3.4-0.7,7.5,1.7,11.8c-0.3,0.2-0.7,0.4-1.1,0.6c-0.8-0.7-1.7-1.3-2.5-2
		c-0.5,2.2,3.5,3.2,1.1,5.6c0.9,1.7,0.5,3.4,0.3,5.4c-0.5-0.1-0.9-0.1-1.3-0.2c-0.2,2.4-0.4,4.8-0.6,7.5c-0.7-0.2-1.3-0.4-2.3-0.8
		c-0.2,0.4-0.5,1-1,1.9c0.1,0.3,0.2,1,0.4,1.6c-0.4,1.2-0.9,2.4-1.4,3.7c-0.5-0.1-1-0.2-1.6-0.3c-0.3,1-0.6,1.9-1,3
		c-0.7-0.2-1.3-0.3-1.8-0.4c-0.8,1.2-1.6,2.5-2.5,3.8c0,0.6-0.1,1.3-0.1,2.5c-0.7-0.9-1.2-1.4-1.7-2c-1.8,0.7-2.9,2.1-3,4.3
		c-1.3-0.2-2.2-0.3-3.1-0.4c-1.8,1.9-1.9,5.5-5.6,4.2C475.4,97.5,475,107.5,476.3,111.1z M496.2,57.7c0.1,1.4,0.6,1.8,1.8,1.8
		C498,58.2,497.5,57.7,496.2,57.7z M424.9,26.4c-0.4,0.3-0.8,0.7-1.3,1.1C424.7,28.1,425.2,27.9,424.9,26.4z M481.1,23
		c0.4-0.3,0.8-0.7,1.3-1.1C481.4,21.4,480.8,21.5,481.1,23z M441.1,14.9c1.7,0.3,1.7,0.3,1.6-0.8C442.3,14.3,441.8,14.5,441.1,14.9z
		 M503.2,38.7c-0.5-0.3-0.9-0.5-1.3-0.8C501.3,38.9,502.3,39.4,503.2,38.7z M452.5,12c0.1,0,0.3,0,0.4,0c0-0.5,0-0.9,0-1.4
		c-0.1,0-0.3,0-0.4,0C452.5,11,452.5,11.5,452.5,12z M420.2,59.4l0.1-0.2l-0.2,0L420.2,59.4z"/>
	<path display="inline" fill="#020101" d="M530.7,274.8c-4.4,4.3-12.2,1.6-15.7,7.4c4.6,35.8-4.4,70.9-12.1,105.4
		c-2,25.8,6.6,51.1,4.9,76.7c0.3,21.5-5.1,43.3-1.6,64.7c2.5,0.5,5.5,0.8,5.2,3.9c0.2,7.8,1.3,15.6,4.3,22.9c1.9,0.4,3.9,0.8,6,1.2
		c1.2,1.2,1.7,2.7,1.9,4.3c-0.3,0.7,0.3,1.8-0.7,2.3c-0.2-0.3-0.5-0.5-0.7-0.8c0-1.5-0.7-2.7-1.5-4c-1.9-0.5-3.9-1.1-6.2-1.8
		c-2.4-3.3-3.6-7.7-3.6-11.8c-0.6-0.5-1.1-0.9-1.6-1.3c0.3-0.9,0.6-1.6,0.9-2.3c-0.5-0.6-1-1.2-1.2-1.5c0-3.1,1.8-6.3-0.5-8.8
		c-9.5,11.6-16-12.2-26-12.1c1.3-1.2,1.3-1.2,3.3-1.3c0.8-21.5-9.7-40.8-14.2-61.1c-0.8-18.4,2.4-36.6-3.8-54.3
		c-0.6-18-2.9-36.8-9-53.6c-2.1,19.3-5.8,38.5-7.1,57.9c-6.2,16.5-1.5,34.1-3,51.3c-4.3,19.6-16.9,40-13.2,60.5
		c-11.3,4.8-13.2,18.9-24.6,14.8c-0.9-2.1,1.7-1.2,1.8-3c-4.5,0.4-4,6.5-2.8,9.6c-0.5,0.6-1,1.2-1.5,1.8c0.3,0.8,0.6,1.6,0.9,2.3
		c-0.6,0.5-1.2,0.9-2,1.6c1.2,2.2-0.8,3.9-0.9,6.2c-0.1,4.6-4.2,6.3-7.7,7c-3.1,0.6-2.2,5.9-4.2,7.7c-1.8-3,0.3-6.4,2.2-9.5
		c1.9-0.4,4-0.8,6.2-1.3c2.5-7.5,4.3-15.5,4.3-23.4c0.3-3,3-4.9,6.1-4.7c3.4-26.9-1.8-53.7-1.5-80.6c0.3-17.6,5.7-34.7,7-52.2
		c-5.4-32.7-17.4-65.6-14.5-99.6c2.2-49.1,39.8-53.2,15.8-110.1c-3.9,15.5-7.7,33.3-21.3,43.4c-2.8,2.4-6,2.7-9.2,1
		c-6.9-3.5-14.7-2.8-21.8-5.8c-1.2,107.6,0.8,215.6-0.9,323c-1.6-106.3,0-213.7-0.6-320.3c1.3-5-4.7-5-7.1-8
		c0.3-0.3,0.5-0.6,0.8-0.8c6.8,2.9,14.7,9.2,22.3,6.9c3.6,1.7,7.1,3.3,10.7,4.9c24.4-13,26.8-46.2,25.6-71c0.2,0,0.5-0.1,0.7-0.1
		c2.1,5.6,0.1,12.7,1.9,17.9c0.3-0.3,0.6-0.6,1-0.9c0.2,0.2,0.4,0.4,0.5,0.6c-0.6,0.9-1.1,1.8-1.8,2.8c20.4,60.2,3.5,50-13,101.9
		c34.9,5.5,70.3,8.1,105,0c-1.4-4.5-2.5-8.8-3.2-13.3c-1.3-0.7-2.4-0.3-3.7-0.4c0-0.3,0-0.5,0-0.8c7.1-1.2,13.1,4.8,20.8,2.4
		c-3.5,4.9-9.6,0.6-14.5,0c1,3.5,0.6,7,2.6,10.3c1.3-0.8,2.6-1.9,4-2.1C522.5,277.7,528.6,272.4,530.7,274.8z M427.5,521.3
		c1.8-0.7,3.3-1.7,4.8-3.1c-2-0.8-4.2,1.9-6.2,2.3c-3.2,0.8-6.5,0.7-9.6,1.1c-0.7,2.4-1.3,8.4-0.9,10.5
		C421.4,530.8,423.6,525.1,427.5,521.3z M494,520.6c-1.8-0.8-3.7-1.6-5.5-2.4c-1.2,2,2.2,2.8,3.4,3.8c4,2.9,6.5,11.9,12.6,9.5
		c-0.5-3.4-1.1-6.7-1.6-9.9C499.7,521.3,496.9,521,494,520.6z M479,475.6c5.3,12.9,7.2,26.8,8.9,40.8c4.3,2.3,9.8,3.7,15.1,2.6
		c0.4-24.4,3.9-48.6,2.7-73c-2.8-17.2-4.8-34.2-5.3-51.6c4.1-36.8,18-73.8,12.3-111.3c-35.1,6.1-70.4,6.3-105.3-0.1
		c-6.2,37.9,8.3,75.1,13.4,111.8c-1.3,13-2.7,25.7-6,38.3c-4.3,28.5,3.7,57.2,2,85.9c5.2,0.8,10.9,0.2,15.5-2.7
		c1.3-18.3,6.2-35.6,13.4-52.2c1.4-12.6,1.3-25.9,0.5-38.6c0-7.7,2.9-15.2,4.4-22.7c2.4-8.9-1.4-18,2.1-26.8
		c6.4-21.2,5.6-43.6,4.9-65.4c-6.5,4.4-17.2,6.8-24,2.8c8.7,0,18.8,0.9,25.1-6.2c1.2-0.6,2,0.2,2.8,0.9c7.2,6,16.4,5.3,25.3,5.3
		c-8.5,4.1-20.1,1.3-27.2-4.9c-3.5,34.2,9.4,66.2,11.3,100.1C478.1,430.5,467.8,454.9,479,475.6z"/>
	<path display="inline" fill="#0E0E0D" d="M358.4,195c0.2,2,0.4,4,0.7,6.1c2,0.5,4.1,1,6.1,1.5c1.5-51.2-0.3-102.9,1-154.3
		c0.2,0,0.5,0,0.7,0c0.7,51.5,0.3,103,0.5,154.5c6.6,3.8,13-0.4,19.4-2.6c5.8-13.8,10.8-28.2,13.2-42.9c0.2,0.6,0,1.4,0.8,1.7
		c-1.1,14.8-6.6,31-13.9,43.7c-1.2-0.5-2.3-0.5-3.1,0.7c-9.5,4-20.7,2.6-29.4-2.3c0.8-1.5,1.7-0.4,2.6-0.5c1.1-1.1,1.1-1.8,0.2-3.5
		c0-4.9-0.1-9.8-0.1-14.7c0.2-0.3,0.5-0.5,0.7-0.8C358.3,185.9,356.8,191.1,358.4,195z"/>
	<path display="inline" fill="#040303" d="M497,121.6c15.9,1.5,32.6,7.1,38.1,23.8c2.2,6,4.3,12.1,9.7,15.9
		c12.3,10.2,19.7,24.8,27.3,38.5c4.7,12.8-16.1,36.3-23.1,47.4c-0.3-0.3-0.5-0.6-0.8-0.8c4.8-13.6,28.9-34.4,21-48.2
		c-8.3-13.3-16.4-27.1-27.9-37.8c-8.2-8.4-9.1-21.4-19.1-28.6c-8-7.6-20.1-5.5-29.6-9.4C493.4,121,495.6,121.9,497,121.6z"/>
	<path display="inline" fill="#141010" d="M365.6,222.5c2.6,107.4-1,216.8,1.3,324.3c-11.7,15.7-26.5,29.1-38.6,44.5
		c-2.9-0.2,0.1-2.6,0.8-3.5c12.2-13.9,24.3-27.7,36.7-41.7C365.5,438.1,366,330.3,365.6,222.5z"/>
	<path display="inline" fill="#0A0707" d="M400.8,159c-4-50,26.7-23.1,43.7-47.3c4.6,9.8,18.6,6.7,27.5,5.6c0.2,0.2,0.5,0.4,0.7,0.6
		c-9.7,3.9-20.1,4.1-28.6-2.5c-2.5,2.9-4.8,4.6-8.1,6.3c2.3,15.1,0,30.8-6.9,44.4c-2-3.4,3.4-11.8,3.8-16.2
		c2.6-8.9,2.9-18.3,2.2-27.6C404.5,130.3,405,126.1,400.8,159z"/>
	<path display="inline" fill="#181211" d="M517.2,573.4c-10.6,2.5-28.8,1.3-32.6-10.9c-0.5-2.8-1.8-5.3-4.4-6.9
		c-5.6-5.4-16.8-9.2-15-18.7c6-4.7,12.8-8,15.3-15.5c0.3,0.3,0.5,0.6,0.8,0.8c-0.3,9.8-18,12.2-14,20.5c5,6.5,14.1,9.1,17.7,16.6
		c2.7,13.9,19.9,14.4,31.4,13.5C516.6,573,516.9,573.2,517.2,573.4z"/>
	<path display="inline" fill="#130F0E" d="M437.5,520.7c2.7,7.8,9.1,11.2,15.5,16.1c2.8,12.4-15.9,14.7-19.2,24.8
		c-4.4-8.7,23.4-15.4,16.4-23.3c1.1-3.5-11.8-6.2-13.6-16.6C436.9,521.3,437.2,521,437.5,520.7z"/>
	<path display="inline" fill="#191412" d="M433.2,560c4.8,14.7-35,20.9-38.7,6.5c0.8-0.3,0.6-1,0.8-1.6c1.5,3.3,4.5,5.1,6.8,7.6
		c2,0.3,4,0.8,5.8-0.5c5.6,2.7,13.5-1.3,19.3-3.2C431.1,567.7,431.4,563.2,433.2,560z"/>
	<path display="inline" fill="#13100F" d="M359.9,217.5c-0.3,0.3-0.5,0.6-0.8,0.8c-5.5-4.5-11.8-7.7-16.8-12.9
		c-0.3-8.3-0.1-17,0.8-25.3c0.2,0,0.4,0,0.6,0c0.1,0.7-0.3,1.6,0.6,2.1C343.1,204.2,341.6,204.4,359.9,217.5z"/>
	<path display="inline" fill="#100E0D" d="M548.2,246.4c0.3,0.3,0.5,0.6,0.8,0.8c-6.8,8.7-10.2,20.1-18.3,27.6
		c-0.2-0.8-0.8-0.9-1.5-0.9C536.8,266,541,254.9,548.2,246.4z"/>
	<path display="inline" fill="#15100F" d="M497,121.6c-1.4,0.3-3.6-0.5-4.5,0.8c-0.4,0-0.8,0.1-1.2,0.1c-0.3,1.3-0.6,2.3-0.9,3.4
		c-0.3,0-0.5,0-0.8,0c0-0.9,0.1-1.8,0.1-2.7c2.8-1.7-11.9-6.1-13.5-7c-0.1-1-0.5-2-0.8-3c0.8-0.3,0.7-1,0.8-1.6
		C480.5,118.4,489.9,120,497,121.6z"/>
	<path display="inline" fill="#342824" d="M343.6,167.2c1.3-1.8,1.5-3.9,1.6-6.1c1.6,1-0.3,3.2,1.3,4.2c0.7,6.2,5,14,2.2,19.5
		c-0.3-6.6-1.9-11.8-3.3-18.3c-0.5,1.1-0.8,1.7-1,2.3C344,168.3,343.8,167.8,343.6,167.2z"/>
	<path display="inline" fill="#2B2522" d="M352,162.6c2.3,4.8,2.6,10.4,4.3,15.5c-0.2,0.3-0.5,0.6-0.7,0.9c-3.6-2.5-2-7.4-3.2-11
		c-0.9-1.7-1-3.6-0.9-5.4l0,0C351.6,162.6,351.8,162.6,352,162.6z"/>
	<path display="inline" fill="#231E1C" d="M517.2,573.4c-0.3-0.2-0.5-0.4-0.8-0.6c2.2-2.9,6.9-5,6.5-9.1c1-0.5,0.4-1.6,0.7-2.3
		C526.5,566.4,521.1,571,517.2,573.4z"/>
	<path display="inline" fill="#433431" d="M346.4,165.4c-1.6-1,0.3-3.2-1.3-4.2c0.2-2.2,2.9-8.3,5.4-5.6c0,0.4,0.1,0.9,0.1,1.3
		c-0.8,0.1-1.2-0.2-2.1-0.6c0,1.3,0,2.4,0,3.4c-0.3,0.3-0.5,0.6-0.8,0.9c-0.3-0.3-0.6-0.7-1.4-0.3
		C346.4,161.9,346.4,163.6,346.4,165.4z"/>
	<path display="inline" fill="#201F1F" d="M367,48.3c-0.2,0-0.5,0-0.7,0c0-7.1-0.4-14.2,0.2-21.3C367.2,29.7,367.4,42.5,367,48.3z"
		/>
	<path display="inline" fill="#4A403D" d="M343.6,167.2c0.7,1.2,0.9,2.5,1.1,3.8c0,0-0.3,0-0.3,0c-1.2,2.8-0.4,6.1-0.6,9.1
		c-0.2,0-0.4,0-0.6,0C343.4,176,342.1,171.2,343.6,167.2z"/>
	<path display="inline" fill="#292524" d="M358.4,195c-1.7-3.8-0.2-9.1-0.7-13.4C359.2,185.6,358,190.6,358.4,195z"/>
	<path display="inline" fill="#392F2B" d="M350,156.9c0.2,0,0.4,0,0.6,0c1.4,1.6,0.9,3.7,0.8,5.7c0,0,0,0,0,0
		C350,161.3,350,158.8,350,156.9z"/>
	<path display="inline" fill="#CAE0E0" d="M489,16c-1.3,1.2-2.9,1-4.5,1.1c-0.8-2.5,2.4-0.3,3-1.9C488.1,15.5,488.5,15.7,489,16z"/>
	<path display="inline" fill="#292524" d="M355.6,179c0.2-0.3,0.5-0.6,0.7-0.9c0.5,1.2,1,2.3,1.5,3.5c-0.2,0.3-0.5,0.5-0.7,0.8
		C356.6,181.2,356.1,180.1,355.6,179z"/>
	<path display="inline" fill="#5B5B5B" d="M504.6,59c0.2-2-2.5-2.3-1.9-4.2c0.9,0.7,1.7,1.4,2.5,2C505,57.6,504.8,58.3,504.6,59z"/>
	<path display="inline" fill="#493B39" d="M437.5,520.7c-0.3,0.3-0.6,0.6-0.9,0.9c-0.7-0.7-1.4-1.4-2.1-2.1c0.3-0.3,0.6-0.7,0.9-1
		C436.8,518.6,437.7,519.1,437.5,520.7z"/>
	<path display="inline" fill="#A3B2B2" d="M468.5,9.5c-1.6,0.9-1.6,0.9-2.8-0.4c1-0.2,1.8-0.3,2.7-0.5C468.4,9,468.5,9.3,468.5,9.5z
		"/>
	<path display="inline" fill="#15100F" d="M476.3,111.1c-1.3-1.4-0.5-3.4-0.6-5.1C475.9,107.7,476.1,109.4,476.3,111.1z"/>
	<path display="inline" fill="#3A3831" d="M481.3,522.2c-0.3-0.3-0.5-0.6-0.8-0.8c0.3-1,0.9-1.7,1.8-2.2c0.4,0.1,0.8,0.1,1.1,0.2
		C482.8,520.3,482,521.3,481.3,522.2z"/>
	<path display="inline" fill="#615454" d="M438.9,13.8c0.5,0.2,1.1,0.4,1.1,1.3c-0.9,0-1.7,0-2.6,0
		C437.9,14.7,438.4,14.3,438.9,13.8z"/>
	<path display="inline" fill="#EAA388" d="M458.1,355.6c-0.2-1-0.2-1.9,0.4-2.7C458.7,353.9,459,354.8,458.1,355.6z"/>
	<path display="inline" fill="#B2CFCF" d="M494.9,22.9c0.4,0,0.8,0,1.1,0.1c0.1,0.2,0.1,0.4,0,0.6c-0.9,0.3-1.6,0.1-2.3-0.5
		C494.1,23,494.5,22.9,494.9,22.9z"/>
	<path display="inline" fill="#9BA5A5" d="M417.7,39.8c0.1-0.2,0.2-0.3,0.3-0.5c0.7,0.3,0.4,1.2-0.4,1.1
		C417.6,40.3,417.6,40,417.7,39.8z"/>
	<path display="inline" fill="#9C7C70" d="M351.4,162.6c0.1-0.5,0.1-1,0.2-1.5c0.1,0.5,0.3,1,0.4,1.6
		C351.8,162.6,351.6,162.6,351.4,162.6z"/>
	<path display="inline" fill="#9C7C70" d="M350.5,155.6c-0.2-0.2-0.4-0.5-0.6-0.7C350.2,155.1,350.3,155.3,350.5,155.6z"/>
	<path display="inline" fill="#B28C7D" d="M475.6,113.2c0.2,0.7,0.4,1.3,0.6,2c-8.1,3.8-19.3,5.4-27.4,0.8c1.4-2.3,0.4-5.6,0.7-8
		c1.3-1.3,2.2-2.5,3.5-3.3c0.8,0.5,1.5,1,2.6,1.7c0.5-0.8,1-1.5,1.4-2.2c1.1,0.2,1.4,1.6,2.6,1.2c2-0.7,4.4-0.7,5.6-3
		c0.2-0.3,0.8-0.3,1.2-0.5c1.4,0.2,1.5-1.3,2.4-1.8c0.5,0.2,1,0.3,1.5,0.5c1.8-0.5,2.2-2.5,3.5-3.6
		C474.7,102.5,473.1,108.3,475.6,113.2L475.6,113.2z"/>
	<path display="inline" fill="#957163" d="M466.4,101.9c-0.4,0.2-1.1,0.2-1.2,0.5c-1.2,2.3-3.6,2.3-5.6,3c-1.2,0.4-1.5-1-2.6-1.2
		c-0.4,0.7-0.9,1.4-1.4,2.2c-1.1-0.7-1.8-1.2-2.6-1.7c-1.3,0.8-2.2,2-3.5,3.3c-0.3,2.5,0.7,5.7-0.7,8c-1.5-0.3-3.5-1.2-3.6-2.8
		c2.8-4.5,1.5-10.6,1.6-15.4c1-1.2,1.9-0.1,3.1-0.2c0.1-0.1,0.4-0.5,0.7-0.9c1.6,0.9,3.2,1.9,5.1,3c0.2-0.5,0.4-1,0.7-1.7
		c1.7,2.1,4,2.9,6.4,3.9c0.2-1,0.3-1.8,0.4-2.5C464.4,99,466.4,100.1,466.4,101.9z"/>
	<path display="inline" fill="#15100F" d="M474.8,111.2c-1.4-4.5-0.2-9.5-0.9-14.1C476.3,99.3,474.2,107.5,474.8,111.2z"/>
	<path display="inline" fill="#1C1D1D" d="M496.2,57.7c1.4,0,1.8,0.5,1.8,1.8C496.8,59.5,496.3,59,496.2,57.7z"/>
	<path display="inline" fill="#292828" d="M424.9,26.4c0.3,1.5-0.2,1.7-1.3,1.1C424.1,27.1,424.5,26.8,424.9,26.4z"/>
	<path display="inline" fill="#292D2D" d="M481.1,23c-0.3-1.5,0.3-1.6,1.3-1.1C482,22.3,481.5,22.7,481.1,23z"/>
	<path display="inline" fill="#615454" d="M441.1,14.9c0.6-0.3,1.1-0.6,1.6-0.8C442.8,15.1,442.8,15.1,441.1,14.9z"/>
	<path display="inline" fill="#B2E4E4" d="M494.9,22.9c-1,0.2-1.6,0.2-2.7-0.1C493.3,22.2,494.2,21.7,494.9,22.9z"/>
	<path display="inline" fill="#8F8F8F" d="M503.2,38.7c-0.9,0.7-1.8,0.2-1.3-0.8C502.3,38.2,502.7,38.4,503.2,38.7z"/>
	<ellipse display="inline" fill="#5B5E5E" cx="452.6" cy="11.3" rx="0.3" ry="1"/>
	<path display="inline" fill="#15100F" d="M475.6,113.2c-0.2-0.5-0.4-0.9-0.6-1.4C475.6,112.1,475.6,112.6,475.6,113.2z"/>
	<polygon display="inline" fill="#3B5555" points="420.2,59.4 420.1,59.2 420.3,59.2 	"/>
	<path display="inline" fill="#F5DDCE" d="M489.8,123.2c-2.1,19,0,43.9,15.8,56.5c-11.7,40.3-19.1,39.7,0.9,78.9
		c-3.5,3.9-8.8,5-13.3,7.5c0,0.9,0,1.7,0,2.5c1.7,1.1,3.4,1.6,5.4,1.2c1.4,1.3,2.8-0.6,4.3-0.7c0.3-0.3,0.7-0.5,1-0.7c0,0,0,0,0,0
		c0.7-0.5,1.3-0.9,2-1.4c1.3,0.1,2.4-0.3,3.7,0.4c0.7,4.4,1.8,8.8,3.2,13.3c-27.3,5.6-55.6,7.3-83.2,2.5c-1-16.4,7.2-30.8,13.7-45.2
		c2.2,0,4.3,0,7,0c-2-2.4-4-0.7-6.3-1.8c0-0.7,0-1.4,0-2.4c2.7-0.5,6.5,1.2,8.1-1c-2.5-0.4-4.9-0.8-7.4-1.2
		c7.4-17.5-6.2-32.4-8.4-48.8c2.6,1.9,5.3,1.5,8.3,2.3c-3.8-7.4-7.7-14.1-12.2-21c0.4-11.5,5.4-22.9,5-34.4c2-5.3,7.6-6.2,10.4-10.7
		c9.2,2.5,19.9,2.5,28.4-2.7c4.4,1.6,9,3.5,13.4,5.5C489.7,122.2,489.8,122.7,489.8,123.2z M459.4,234.5c-0.1,0.8-1.1,2.2,0.5,2.1
		c0.1-0.4,0.2-0.9,0.3-1.3c0.6-0.6,0.8-1.3,0.2-2.1C459.6,233.2,459.3,233.7,459.4,234.5z M459.2,218.7c-1.1,1.1-0.1,2.1,0.1,3.1
		c-0.1,1.4-1.3,2.7-0.5,4.2c1.2-0.4,1.2-2.5,1.9-3.4c-2.2-2.7,2.8-7.1,0.5-8.9C459.7,215.9,459.7,215.9,459.2,218.7z M460.3,211.6
		c1.4-2.4,3.3-5.5,2.1-8.2C461,206.3,460.3,208.8,460.3,211.6z M463.3,198.8c-2.5,1.7-3.3,3-3.5,5.6
		C461.6,202.7,462.4,200.8,463.3,198.8z M460.4,226.9c-1.7,1.7-2,2.8-1.1,4.4C460.6,229.5,460.8,228.7,460.4,226.9z M461,196.3
		c0.6-0.4,1.6-1.1,0.9-1.9C460.7,195,460.7,195,461,196.3z M459.9,239.8c-0.5,0.7-1.2,1.4,0,1.9
		C459.9,241.1,459.9,240.5,459.9,239.8z M459,245.7c0.7-0.6,0-1.8-0.8-1.1C457.9,245.3,458.3,245.6,459,245.7z M458,251.7
		c0.1,0,0.3,0,0.4,0c0-0.5,0-1.1,0-1.6c-0.1,0-0.3,0-0.4,0C458,250.6,458,251.1,458,251.7z M461.9,191c-0.4-0.2-0.7-0.3-0.9,0.2
		C461.4,191.4,461.7,191.5,461.9,191z M463.3,186.9c0.1-0.3,0.4-0.6,0-0.8C462.9,186.4,463,186.6,463.3,186.9z"/>
	<path display="inline" fill="#EAA388" d="M434.1,286.5c26.2,3.9,52.5,0.1,78.6-3.4c5.7,37.5-8.2,74.5-12.3,111.3
		c0.4,17.4,2.5,34.4,5.3,51.6c1.3,24.4-2.3,48.6-2.7,73c-4.4,0.8-9.8,0.1-13.3-1.8c-1.5-12.2-0.5-24.5-2.9-36.8
		c3,1.5,3.2,5.2,6.6,3.7c-12.9-26.8-22.1-37.4-13-69.3c1.1-2.7,1.2-5.5-1.3-7.5c0.1-15.3-1.1-30.1-4.5-45c-1.6-10-6.7-30.8-1.2-39.2
		c7.7-6.8,23.3-5.1,27.2-15.1c-14.7,7.7-31.9,2.3-41.4-10.7c0.2,3.3-0.3,6,0.6,8.5c-0.7,0.9-1,1.5-1.8,2.1c-16.2,0.4-27.3-3-29-21
		C430.9,286.7,432.5,286.6,434.1,286.5z M491.7,412c-0.1-3.1,0.6-6.6-1.3-9.1c0.3-4.9-5.6-10-8.4-4.4c0.7,5.9,4.4,12.5,8.8,16.2
		C491.1,413.7,491.4,412.8,491.7,412z M500.6,445.9c0.5-4.3-0.2-10.2-3.2-13.4C497.7,437.1,499.7,441.4,500.6,445.9z M501.3,456
		c0.7-4.1,0.7-5.6-0.3-8.1C500.9,451,500.7,453.5,501.3,456z M494.9,428.2c0.5-0.2,0.7-0.3,1.2-0.4c-0.7-1.1-0.3-2.8-2-3.5
		C493.7,425.9,494.7,426.9,494.9,428.2z M501.9,467.3c0.7-1.9,0.5-3.3,0.2-5.4C501.4,464,501.5,465.4,501.9,467.3z"/>
	<path display="inline" fill="#EAA388" d="M441,476.3c-5.7,12.3-7.1,26.6-8.8,40.1c-3.8,2.5-8,3.1-12.4,2.9
		c1.1-13.8,1.6-27.6,2.3-41.5c1.7,1.2,1.3,4.3,4.1,3c-3.7-14-8.8-29.2-4.9-43.4c1.6-1.7,0.1-4.7,0.4-6.9c0.3,0,0.6-0.1,0.9-0.1l0,0
		c0.1,0.6,0.9,0.9,1.2,0.2c0.2-11.6,1.7-23.1,4.8-34.3c5.4,0.8-1.8-26.3-1.2-30.7c-1.9-13.5-0.8-27.5,1.6-41
		c0.4-15.4,20.3-5.2,28.5-13.8c0.7,21.8,1.5,44.3-4.9,65.4c-1.5,5.4-2.3,10.7-1.3,16.3c1,8.4-2.8,16.6-4.2,24.8
		c-3,16.8,3.1,35.5-3.4,51.8c-0.8-0.1-0.5-1.7-1.8-1.1c-0.7,3.1-2.2,5.1-3,8.5c0.9-0.5,1.3-0.8,1.9-1.2
		C440.9,475.6,441,476,441,476.3z M441.7,393.8c-1.1-0.9-2.4-1.3-3.9-1.4c-0.9,0.9-1.7,1.8-2.5,2.6c0,6.9,0.2,13.4,5.5,18.5
		C442.5,407.2,443.5,400.1,441.7,393.8z M437.6,475.7c-1.4,0.9-2.3,2.1-2,4.3C437.2,478.8,437.3,477.2,437.6,475.7z M429.5,406.9
		c0.3-1,0.8-1.9-0.6-2.5C428.3,405.9,428.3,405.9,429.5,406.9z M430.2,400c0-0.6,0-1.2,0-2.3C429.1,398.7,428.4,399.8,430.2,400z
		 M432.9,479.6c-1.1,0.9-1.1,0.9-1.2,2.2C432.8,481.7,432.8,480.9,432.9,479.6z"/>
	<path display="inline" fill="#D69479" d="M439.1,315.4c-22.3-1.8-7.8,65.7-8.6,79.7c-0.2,0.1-0.3,0.2-0.5,0.2
		c0.2,0.2,0.3,0.3,0.5,0.5c-0.4,1-1.1,0.5-1.7,0.4c-3.1,11.2-4.6,22.8-4.8,34.3c-0.3,0.6-1.1,0.4-1.2-0.2c1.7-2,0.6-5.7,0.3-9.1
		c-0.8,3.5-0.6,6.3-0.3,9.1c-0.7,0.1-1.3,0.1-2.1,0.2c-0.4,2.3-0.3,4.6,0.7,6.8c-3.9,14.2,1.3,29.4,4.9,43.4c-2.8,1.3-2.4-1.8-4.1-3
		c-0.7,13.9-1.2,27.6-2.3,41.5c-1,0.2-2.1,0.4-3.1-0.2c1.7-28.7-6.3-57.3-2-85.9c3.3-12.7,4.8-25.3,6-38.3
		c-5.1-36.7-19.6-74-13.4-111.8c8.8,1.5,18.1,2.2,26.7,3.5c-1.6,0.1-3.2,0.2-5.1,0.3c1.7,18.1,12.9,21.5,29,21
		c-6.2,6.6-16.1,5.5-24.5,5.6C434.9,315.3,437.2,314.8,439.1,315.4z M421.7,423.9c-0.4,2.1-2.5,4.5,0.1,6.1
		C422,427.6,421.9,425.8,421.7,423.9z M419.1,443.9c1.2-1,1.1-2.5-0.2-2.8C418.3,442.1,418.3,442.9,419.1,443.9z M432.3,313.3
		c-1.1-1.4-2-1.5-3.1-1C429.7,313.4,430.6,313.5,432.3,313.3z M418.5,310.6c0.1-0.9-0.2-1.6-1.3-1.1
		C417.7,310,418.1,310.3,418.5,310.6z M424.7,310.6c0.4,1.3,0.4,1.3,1.3,0.9C425.6,311.1,425.2,310.8,424.7,310.6z M415.2,308.4
		c0.7-0.8,0.1-1.5-0.6-1.1C414.8,307.7,414.9,308,415.2,308.4z M418.3,449.1c-0.2,0-0.3,0-0.5,0.1c0.1,0.4,0.1,0.9,0.2,1.3
		c0.2,0,0.3,0,0.5-0.1C418.4,450,418.3,449.5,418.3,449.1z"/>
	<path display="inline" fill="#B28C7D" d="M355.6,179c3,6.6,1.2,14.5,1.4,21.6c-0.8,0.1-1.8-1-2.6,0.5c8.7,4.9,19.9,6.3,29.4,2.3
		c0.3,0.2,0.5,0.5,0.8,0.7c0,0.5-0.9,1,0,1.5c1,3.8-0.6,9.2,3.2,12.4c4-17.2,11.7-33.4,15.4-51.1c8.2,2-0.4-23.6,8.2-38.2
		c7.7-3,16-3.2,23.7-6.3c1.2,18.4-2.4,39.1-13.9,53.8c-2.1-7.2,0.5-16.4-3.3-23.4c2.3,25.6,1.2,60.7-23.3,75.5
		c-4.4-5.1-10.8-6.3-17-7.9c-11.9-2.6-21.8-10.3-30.9-17.9c-3.3-11.2,0.4-22.7-2.4-33.6c0.3-0.6,0.5-1.2,1-2.3
		c1.4,6.5,3,11.7,3.3,18.3c3.2-7.2-3.5-16.5-2.2-24.6c0.8-0.4,1,0.1,1.4,0.3c1.1,5.7,2.4,11.6,3.9,17.1c0.1,0,0.2-0.1,0.4-0.1
		c0-1.7,0-3.5,0-5.2c0.2,0,0.4,0,0.6,0C353.5,174.8,353.2,177.6,355.6,179z M350.3,185.2c-0.5,1.4,0,2.2,1,3.2
		C351.6,187,351.7,186,350.3,185.2z M397.6,222.9c1.1-1.1,1.1-1.1,0.6-2.2C397.3,221.2,396.9,221.9,397.6,222.9z M422.4,126.7
		c0.3,1.8,0.3,1.8,1.9,1.5C423.6,127.6,423,127.2,422.4,126.7z M352.6,194c0.1-2.3,0.1-2.3-1.2-2C351.7,192.4,352,192.9,352.6,194z
		 M427.1,127.4c-0.5-0.3-0.7-0.4-1-0.6C425.3,127.7,426.2,128.3,427.1,127.4z M417.8,151c0.2-0.1,0.5-0.2,0.7-0.3
		c-0.1-0.4-0.2-0.8-0.3-1.2C417.2,149.8,417.5,150.3,417.8,151z M398.1,218.1c1.2,0.3,1.5,0,1-1
		C398.7,217.4,398.5,217.6,398.1,218.1z"/>
	<path display="inline" fill="#E6CCBB" d="M432.5,158.8c0,1.8,0,3.5,0,5.2c4.6,6.9,8.4,13.6,12.2,21c-3-0.8-5.8-0.4-8.3-2.3
		c2.2,16.3,15.8,31.2,8.4,48.8c2.5,0.4,4.9,0.8,7.4,1.2c-1.6,2.2-5.4,0.6-8.1,1c0,1,0,1.7,0,2.4c2.3,1,4.3-0.6,6.3,1.8
		c-2.7,0-4.8,0-7,0c-6.5,14.4-14.6,28.9-13.7,45.2c-7.4-0.5-14.4-1.4-21.8-2.5c16.5-51.9,33.4-41.7,13-101.9
		C426.4,172.8,429.4,166.2,432.5,158.8z"/>
	<path display="inline" fill="#D69479" d="M494.6,310.6c1.6-1.4,4-1.6,6.1-2.7c-3,11.4-27.5,7.4-29.3,19.7
		c-1.3,27,9.4,52.6,7.7,79.6c2.5,2.1,2.4,4.8,1.3,7.5c-9.2,32,0.1,42.5,13,69.3c-1.2,0.1-2.3,1.1-2.9-0.2c1-1.1,1-1.1-0.5-2.6
		c-0.1,0.5-0.2,0.9-0.4,1.3c-0.8-0.6-1.6-1.3-2.8-2.3c2.5,12.3,1.4,24.6,2.9,36.8c-0.6-0.3-1.2-0.5-1.8-0.8
		c-1.7-13.9-3.6-27.9-8.9-40.8c0.1-0.4,0.2-0.7,0.3-1c0.7,0.4,1.3,0.6,1.9,0.9c0.6,1.4,0.5,1.6,2.3,2.5c-1.3-3.1-1.4-5.7-2.4-8.1
		c-0.4,0.3-0.5,0.4-0.7,0.6c-0.3,0-0.7-0.1-1-0.1c-1-1.3-1-6.1-3.1-4.8c0.3,1.4,1.6,2.9,0.6,4.3c-6.2-13.4-3.1-29.9-3-44.4
		c0.1-11.6-6.7-22.8-5-34.5c1.5-9.4-3-18.4-4.7-27.5c-4.5-18-6.5-36.3-4.7-54.9c7.1,6.2,18.7,9,27.2,4.9c-8.9,0-18.1,0.6-25.3-5.3
		c-0.8-0.7-1.6-1.5-2.8-0.9c0.3-0.4,0.7-0.9,1.1-1.5c-0.9-2.5-0.3-5.3-0.6-8.5C468.3,308.7,480.2,313.7,494.6,310.6
		c-0.1,0.4-0.3,0.8-0.4,1.2c0.9,0.4,1.2-0.2,1.6-0.9C495.4,310.7,495,310.7,494.6,310.6z M476.7,418.2c0.9-2.3,1.4-4.1-0.4-6.1
		C476.2,414.6,476,416.4,476.7,418.2z M488.2,313c1.7,0.4,1.7,0.4,2.6-0.9C489.8,312,488.7,311.6,488.2,313z M486.8,479.1
		c-0.5-2-0.5-2-1.4-2.7C485.5,478.3,485.5,478.3,486.8,479.1z M477.4,409c0.3-0.4,0.4-0.7-0.2-1C477,408.5,476.9,408.8,477.4,409z
		 M478.3,403.6c-0.1-0.2-0.2-0.3-0.3-0.5c-0.4,0.2-0.1,0.5,0,0.9C478.1,403.9,478.2,403.8,478.3,403.6z"/>
	<path display="inline" fill="#F7EFD0" d="M398.7,558.8c3.5-0.8,7.6-2.4,7.7-7c0.1-2.2,2.1-4,0.9-6.2c0.9-0.7,1.4-1.1,2-1.6
		c-0.3-0.7-0.6-1.5-0.9-2.3c0.5-0.6,1-1.2,1.5-1.8c-1.1-2.4-0.8-4.8-0.5-7.2c12.9,6.8,13.8-10.5,23.2-11.3
		c2.4,6.3,6.7,11.2,12.7,14.3c-14.2,9.6-20.9,28.8-37.2,35.9C404.2,567.3,397.1,566,398.7,558.8z"/>
	<path display="inline" fill="#F7EFD0" d="M487.7,521.3c6,3.5,13.4,20.3,20.7,10c2.3,2.6,0.5,5.7,0.5,8.8c0.3,0.3,0.7,0.8,1.2,1.5
		c-0.3,0.7-0.6,1.4-0.9,2.3c0.5,0.4,1,0.8,1.6,1.3c0.1,4,1.3,8.5,3.6,11.8c2.3,0.6,4.3,1.2,6.2,1.8c1.5,2.1,1.7,3.9,1.2,6.3
		c-22.4,14.8-31.1-18.5-46.2-28C478.5,531.1,483.9,526.8,487.7,521.3z"/>
	<path display="inline" fill="#977164" d="M548.2,246.4c-7.2,8.6-11.4,19.6-19,27.6c-4.6,2.7-10.2,1.8-14.4,5
		c-2-3.2-1.6-6.8-2.6-10.3c4.9,0.6,11,4.9,14.5,0c-8.3,2.4-14.5-3.8-22.2-2.4c8-5.4,13.3,5.8,24.7-2c1.1,0.7,2.7-0.3,3.8,1.1
		c2-3.2,4.4-6.6,4.5-10.3c0.3,0,0.5,0,0.8,0l0,0c0.1,0.4,0.2,0.9,0.4,1.6c5.5-7.7,8.7-17.4,15.9-24.4c4.7-7.9,8-17.1,15.4-23
		C565.1,222.2,554.3,233.5,548.2,246.4z M528.4,268.3c0.7-0.5,1.3-1.1,2.2-1.8C528.7,266.3,528.7,266.3,528.4,268.3z"/>
	<path display="inline" fill="#977164" d="M344.6,171.1c2.3,10-1.2,21,2.1,31.4c9.2,7.6,19,15.3,30.9,17.9c6.2,1.6,12.6,2.8,17,7.9
		c-0.6,0.4-1.1,0.7-1.7,1.1c-3.6-1.6-7-3.2-10.7-4.9c-13.6,1.7-26.5-10-36.3-18.4c-5.1-10.5,0-23.5-1.6-35L344.6,171.1z
		 M377.5,221.8c-0.3-0.5-0.6-0.9-1.3-0.2C376.8,221.7,377.2,221.7,377.5,221.8c-0.4,1.2,1.7,3,2,1.2
		C379.1,222.1,378.4,221.7,377.5,221.8z M347.8,204.5c-0.2-0.3-0.3-0.3-0.5,0C347.5,204.8,347.6,204.8,347.8,204.5z"/>
	<path display="inline" fill="#E6D9B5" d="M479,531.8c-1.1,1.9-2.9,3-3.3,5.3c5,3.6,10.3,8.2,12.6,13.9
		c-6.6-4.9-11.7-13.2-19.7-14.8c8.4-5,10.5-8.8,14.9-16.9c0.4,0.2,0.9,0.4,1.3,0.6c-1.4,4.6-3.6,8.7-7,11.9
		C478.4,531.8,478.7,531.8,479,531.8z M472.3,535.3c1.8-0.5,1.8-0.5,3-1.7C473.5,534,473.5,534,472.3,535.3z"/>
	<path display="inline" fill="#B08A7C" d="M494,520.6c2.9,0.3,5.8,0.7,8.9,1.1c0.5,3.2,1,6.5,1.6,9.9c-6.1,2.3-8.6-6.6-12.6-9.5
		C492.2,521,493,520.7,494,520.6z"/>
	<path display="inline" fill="#E9DAB5" d="M500.2,564.4c9.4,5.5,11.7,6.8,21.7,0.8c0.1-0.9,0.2-1.6,0.3-2.3c0.2,0.3,0.5,0.5,0.7,0.8
		c0.3,4.1-4.3,6.2-6.5,9.1c-2.5,0-5.3,1-7.7,0.2c0-0.3,0-0.5,0-0.8c0.4-0.1,0.7-0.2,1.6-0.4C506,570.1,502.8,568.1,500.2,564.4z"/>
	<path display="inline" fill="#E8DAB6" d="M398.7,558.8c-1.6,7.2,5.5,8.5,9.4,12.7c0,0.2-0.1,0.4-0.2,0.6l0-0.1
		c-1.8,1.2-3.8,0.7-5.8,0.5c-2.3-2.5-5.4-4.3-6.8-7.6C396.4,563.1,396.2,559.2,398.7,558.8z"/>
	<path display="inline" fill="#947163" d="M422.7,527c-1.6,2.8-4.2,4.1-7.1,5.1c-0.3-2.1,0.2-8,0.9-10.5c1.3-0.5,2.7-0.2,4-0.2
		c-0.2,0.4-0.4,0.8-0.7,1.4C420.6,524.3,421.5,525.8,422.7,527z"/>
	<path display="inline" fill="#E1D8B8" d="M432.6,521.4c-0.4,0-0.9,0-1.3,0c1.1-0.7,2.2-1.3,3.4-2c1.2,1.2,2.5,2.4,2.9,4.1
		c0.9,5,5.2,7.3,8.7,10.4l-0.1,0.1c-1.1-0.4-2.2-0.7-3.4-1.1c0,0.4,0,0.7,0,1.1c-1-0.7-1.9-1.4-2.9-2.1c0.3-0.1,0.7-0.2,1.6-0.4
		C436.2,529.7,436.8,523.4,432.6,521.4z"/>
	<path display="inline" fill="#AC8879" d="M422.7,527c-1.2-1.2-2.1-2.7-2.9-4.2c0.3-0.5,0.5-1,0.7-1.4c1.9-0.3,3.7-0.6,5.6-0.9
		c0.5,0.2,0.9,0.5,1.4,0.7C425.5,522.8,424.6,525.3,422.7,527z"/>
	<path display="inline" fill="#805748" d="M481.2,475.6c-0.6-0.3-1.2-0.6-1.9-0.9c-0.1,0.2-0.2,0.6-0.3,1c-1-1.8-1.6-3.7-2-5.7
		c1-1.4-0.3-2.9-0.6-4.3c2.1-1.3,2.1,3.5,3.1,4.8c0.3,0,0.6,0.1,1,0.1C480.7,472.2,480.9,473.9,481.2,475.6z"/>
	<path display="inline" fill="#261F1C" d="M429.1,166.1c-1.2,3.9-2.9,7.4-6.4,9.8c-0.2-0.2-0.4-0.4-0.5-0.6
		c2.6-3.2,4.4-7.1,6.2-10.7C428.4,165.2,428.3,165.9,429.1,166.1z"/>
	<path display="inline" fill="#53382F" d="M441,476.3c-0.1-0.3-0.2-0.6-0.2-1c-0.5,0.3-1,0.6-1.9,1.2c0.8-3.4,2.3-5.3,3-8.5
		c1.2-0.7,1,1,1.8,1.1C442.7,471.4,442.6,474.4,441,476.3z"/>
	<path display="inline" fill="#625B4B" d="M480.2,529.8c1.8-3.2,3.6-6.3,4.6-9.9c0.5,0.2,0.9,0.4,1.4,0.6c-2.1,2.9-2.8,6.4-5.1,9.2
		C480.8,529.8,480.5,529.8,480.2,529.8z"/>
	<path display="inline" fill="#886B5E" d="M494,520.6c-1,0.1-1.8,0.4-2.1,1.4c-1.1-1.1-4.5-1.8-3.4-3.8
		C490.3,519,492.1,519.8,494,520.6z"/>
	<path display="inline" fill="#E6D9B5" d="M483.3,526.3c1.3-1.8,1.3-4.2,2.9-5.7c0.5,0.2,1,0.5,1.4,0.7
		C486.4,523.1,485,524.9,483.3,526.3z"/>
	<path display="inline" fill="#5A4D44" d="M427.5,521.3c-0.5-0.2-0.9-0.5-1.4-0.7c2-0.5,4.2-3.1,6.2-2.3
		C430.9,519.6,429.4,520.7,427.5,521.3z"/>
	<path display="inline" fill="#523E38" d="M418.5,158.3c-0.6-1.9-0.7-3.4-0.6-5.6c1.7,1.8,1.4,3.7,1.4,5.5
		C419,158.3,418.7,158.3,418.5,158.3z"/>
	<path display="inline" fill="#B6C0A8" d="M410.8,533.3c-0.5-0.2-1-0.4-1.5-0.6c0.7-1.2,1.5-2.4,3.3-2.4
		C412.5,532.1,409.9,531.2,410.8,533.3z"/>
	<path display="inline" fill="#1F1B19" d="M504.5,266.2c0.5,0,0.9,0,1.4,0c0,0.3,0,0.5,0,0.8c-0.7,0.5-1.3,0.9-2,1.4
		c-0.1-0.3-0.2-0.7-0.2-1C504,267,504.3,266.6,504.5,266.2L504.5,266.2z"/>
	<path display="inline" fill="#977264" d="M384.6,204.1c-0.3-0.2-0.5-0.5-0.8-0.7c0.8-1.2,1.9-1.2,3.1-0.7
		c6.7-10.8,10.8-25.3,13.5-37.8c2.1-10.9,0-30.5,11-36.2c-8.6,14.7,0,40.2-8.2,38.2c-3.7,17.8-11.4,33.9-15.4,51.1
		c-3.8-3.2-2.2-8.6-3.2-12.4c0.4-0.3,0.8-0.6,1.5-1.2C385.3,204.3,385,204.2,384.6,204.1z"/>
	<path display="inline" fill="#292524" d="M357,200.6c0.1-1.2,0.1-2.3,0.2-3.5C358.1,198.7,358,199.5,357,200.6z"/>
	<path display="inline" fill="#B28C7D" d="M570,209.1c-8.2,6.4-10.9,16.9-16.8,25c-7,6.1-9,15.7-14.5,22.5c-0.2-0.7-0.3-1.2-0.4-1.6
		c2.4-0.2,0.3-2.4,0,0c-0.3,0-0.5,0-0.8,0c-1.6,1.1-1.7,1.5-0.7,2.7c-0.6,2.9-2.3,5.2-3.9,7.7c-1.1-1.3-2.7-0.3-3.8-1.1
		c-11.5,7.8-16.7-3.4-24.7,2l0,0c-3.3,0.5-6.2,2-9.9,1.4c1.6-2.7,9.2-3.1,11.5-6.9c5.9-2.7,14.4-1.2,19.1-5.9
		c4.3-8.3,11.1-15.6,13.8-24.6c3.6-8.3,6.2-17.1,10.4-25.1c1.8-1.3,4.7-0.4,6.3-2.2c3.7,1,9.4,3.8,12.1,2c-2.1-3.5-7.3-4.7-11.1-5.7
		c-7.1-4.9-13.2-10.3-19.7-16.2c4.3-0.4,8.4,1.2,11.7-1.7c-6.5-5.8-16.7-5.5-23.4-11.5c-4.6-3.3-5.7-10-11-12.4
		c-0.5,1.3-2.2,1.5-2,3.1c-0.3,3.1-1.8,5.8-3.3,8.4c-1.6,2.8-0.8,5.9-2.9,8.6c-14.1-9.7-17.2-39-14.8-55c38.4,5.9,30.9,9,49.9,37.8
		c11.6,10.7,19.6,24.5,27.9,37.8C571.9,202.6,571.9,203.4,570,209.1z M514.2,133.1c-0.6-2.3-0.6-2.3-2.7-3.4
		C511.9,131.2,512.4,132.3,514.2,133.1z M525.2,152.1c-0.1,1.3,0.3,1.8,1.3,1.8C527,152.6,527,152.6,525.2,152.1z M515.8,132.3
		c0.1,2,0.1,2,1.6,1.5C516.7,133.2,516.3,132.7,515.8,132.3z M532.8,261.4c1.3,0.2,2.1-0.1,1.8-1.4
		C533.7,260.3,533.3,260.6,532.8,261.4z M533.9,154.7c1.4-0.1,1-1.9-0.2-1.8C533.6,153.6,533.2,154.2,533.9,154.7z M512.6,157.5
		c1-0.8,1.5-1.4,0.8-2.5C512.3,155.4,512.1,156.1,512.6,157.5z M530,152.8c0.1,0.9,0.2,1.6,1.3,1.4
		C531.3,153.2,531.2,152.8,530,152.8z M513.1,152.9c0.2,0,0.4,0,0.6,0c-0.1-0.4-0.2-0.8-0.2-1.2c-0.1,0-0.3,0-0.4,0
		C513.1,152.1,513.1,152.5,513.1,152.9z"/>
	<path display="inline" fill="#E3CABA" d="M449.6,118.8c-0.6,0.1-1.1,0.1-1.7,0.2c-5.3,6.6-10.3,5.5-11.1,15.4
		c0-4.3-0.2-8.3-0.8-12.6c3.4-1.6,5.7-3.4,8.1-6.3C446,116.4,447.9,117.5,449.6,118.8z"/>
	<path display="inline" fill="#483A35" d="M476.3,116.2c-0.9,1.2-2.3,1.5-3.6,1.7c-0.2-0.2-0.5-0.4-0.7-0.6c1.4-0.7,2.8-1.4,4.2-2.1
		C476.2,115.6,476.3,115.9,476.3,116.2z"/>
	<path display="inline" fill="#957163" d="M448.8,116c0.2,0.2,0.5,0.4,0.7,0.5C449.3,116.4,449,116.2,448.8,116z"/>
	<path display="inline" fill="#EADCB8" d="M508.7,572.2c0,0.3,0,0.5,0,0.8c-26.2-2.2-17-6.4-27.4-18.6c-3.9-4.5-16.8-8.9-14-15.8
		C477.1,534,496.7,568.8,508.7,572.2z"/>
	<path display="inline" fill="#6D4D41" d="M472.1,538.2c-1.6-1-3.2,0-4.7,0.3c0.2-0.9,0.3-1.8,1.3-2.2c0.7,1.4,2.6-0.2,3.5,1.1
		C472.1,537.7,472.1,537.9,472.1,538.2z"/>
	<path display="inline" fill="#EADCB8" d="M433.2,560c-1.8,3.2-2.1,7.7-6,8.9c-5.7,1.9-13.7,5.9-19.3,3.2l0,0.1
		c11.3,2.2,37.5-45.3,43.8-31.4C448.4,549.3,435.6,551,433.2,560z"/>
	<path display="inline" fill="#E1D8B8" d="M433.2,548c2.6-5.2,7.4-9,12-12.3c0.4,0.1,0.8,0.1,1.5,0.2c-0.3-0.7-0.5-1.3-0.7-1.9
		l0.1-0.1c1.2,0.8,2.3,1.5,3.5,2.3C443,537.5,438.7,543.9,433.2,548z"/>
	<path display="inline" fill="#554B3F" d="M444.4,538.2c1.2-2,3.9-0.6,5.1-2.1c1.2,0.8,1.2,0.8,0.7,2c-1.7-0.1-3.4-0.2-5,0.7
		C445,538.7,444.7,538.5,444.4,538.2z"/>
	<path display="inline" fill="#060404" d="M344.3,171c0,3.7,0,7.5,0,11.2c-1-0.5-0.5-1.4-0.6-2.1C343.9,177.1,343.2,173.9,344.3,171
		z"/>
	<path display="inline" fill="#030303" d="M548.3,207c-3.1,7.7-6.2,15.5-9.2,23.3c-2.5-8.7,9.2-17.8,6.6-27.2
		c-10.6-12.6-23.7-21.9-33.7-35c-4.6,18.5-22.8,53.2-12.9,69.8c3.9,6.2,6,13.2,9,19.8c0.4,1.8,2.7,0,3.4,1.5
		c-1.8,0.5-3.6,1.1-5.4,1.6c-0.3-0.3-0.6-0.5-0.9-0.8c0.4-0.4,0.8-0.9,1.3-1.4c-20-39.2-12.5-38.6-0.9-78.9
		c-14.7-11.5-18.1-36-15.9-53.8c0.3,0,0.5,0,0.8,0c0.3,16.9,1,40.8,15.7,51.6c2.1-2.7,1.3-5.8,2.9-8.6c1.5-2.6,3-5.3,3.3-8.4
		c0.4-0.3,0.9-0.6,1.5-1c0.8,2.7-1,4.5-1.2,6.7c10.3,10.6,20.7,21.3,31.5,31.4C548.1,201.5,548.1,201.5,548.3,207z"/>
	<path display="inline" fill="#B28C7D" d="M489.8,123.2c-0.1-0.5-0.1-1-0.2-1.4C490.7,122.1,490.4,122.6,489.8,123.2z"/>
	<path display="inline" fill="#9C7C70" d="M352.7,172.4c-0.2,0-0.4,0-0.6,0c-1.5-5.4-3.7-10.4-3.5-16.1c0.6,0.3,1,0.4,1.4,0.6
		c0,1.9,0,4.4,1.5,5.6C350.9,166,353.4,169,352.7,172.4z"/>
	<path display="inline" fill="#3A2E29" d="M348.6,159.7c1.3,6,4,11.7,3.5,17.9c-0.1,0-0.2,0.1-0.4,0.1c-1.6-5.5-2.8-11.4-3.9-17.1
		C348,160.3,348.3,160,348.6,159.7z"/>
	<path display="inline" fill="#221715" d="M505.2,259.9c0.3,0.3,0.6,0.5,0.9,0.8c-2.8,3.6-8.5,4.3-11.8,6.7c2.7,2.7,6.3,1.2,9.3,0
		c0.1,0.3,0.2,0.7,0.2,1l0,0c-0.3,0.2-0.7,0.5-1,0.7c0,0-0.3,0-0.3,0c-2.9,1.2-6.6,1.2-9.4-0.5c0-0.8,0-1.6,0-2.5
		C497.3,264,501.6,262.6,505.2,259.9z"/>
	<path display="inline" fill="#4F4743" d="M460.3,211.6c0-2.8,0.7-5.4,2.1-8.2C463.5,206.1,461.7,209.3,460.3,211.6z"/>
	<path display="inline" fill="#1E1817" d="M459.2,218.7c0.5-2.8,0.5-2.8,2-5c2,0.9-1.1,4.9-1.1,6.7
		C459.2,220.1,459.4,219.3,459.2,218.7z"/>
	<path display="inline" fill="#3B3330" d="M459.2,218.7c0.2,0.6,0,1.4,0.9,1.7c0.2,0.6,0.4,1.3,0.6,2.2c-0.6,0.9-0.7,3-1.9,3.4
		c-0.8-1.5,0.3-2.8,0.5-4.2C459.1,220.8,458.1,219.8,459.2,218.7z"/>
	<path display="inline" fill="#594E49" d="M463.3,198.8c-0.9,2-1.8,3.9-3.5,5.6C460.1,201.8,460.8,200.5,463.3,198.8z"/>
	<path display="inline" fill="#4F4641" d="M460.4,226.9c0.4,1.8,0.2,2.6-1.1,4.4C458.4,229.7,458.7,228.7,460.4,226.9z"/>
	<path display="inline" fill="#5D4D48" d="M461,196.3c-0.3-1.3-0.3-1.3,0.9-1.9C462.6,195.2,461.6,195.9,461,196.3z"/>
	<path display="inline" fill="#745752" d="M459.4,234.5c-0.1-0.8,0.2-1.3,1-1.3c0.6,0.8,0.4,1.5-0.2,2.1
		C459.9,235,459.7,234.7,459.4,234.5z"/>
	<path display="inline" fill="#181615" d="M459.4,234.5c0.3,0.3,0.6,0.5,0.8,0.8c-0.1,0.4-0.2,0.9-0.3,1.3
		C458.3,236.7,459.2,235.3,459.4,234.5z"/>
	<path display="inline" fill="#3A342F" d="M459.9,239.8c0,0.6,0,1.2,0,1.9C458.7,241.3,459.4,240.5,459.9,239.8z"/>
	<path display="inline" fill="#756962" d="M459,245.7c-1,0.1-1.3-1.3-0.2-1.3C459.6,244.7,459.3,245.2,459,245.7z"/>
	<path display="inline" fill="#1F1B19" d="M498.6,269.8c0.8,0,1.6,0,2.4,0C500.2,270.4,499.4,270.5,498.6,269.8z"/>
	<path display="inline" fill="#5A4F49" d="M458,251.7c0-0.5,0-1.1,0-1.6c0.1,0,0.3,0,0.4,0c0,0.5,0,1.1,0,1.6
		C458.3,251.7,458.2,251.7,458,251.7z"/>
	<path display="inline" fill="#705B55" d="M461.9,191c-0.3,0.5-0.5,0.4-0.9,0.2C461.2,190.7,461.5,190.8,461.9,191z"/>
	<path display="inline" fill="#97877E" d="M463.3,186.9c-0.3-0.3-0.4-0.5,0-0.8C463.7,186.3,463.4,186.6,463.3,186.9z"/>
	<path display="inline" fill="#1F1B19" d="M503.1,269c0.3-0.2,0.6-0.4,0.8-0.6C503.6,268.6,503.4,268.8,503.1,269z"/>
	<path display="inline" fill="#1F1B19" d="M501.7,269.6c0.3-0.2,0.6-0.3,0.9-0.5C502.3,269.2,502,269.4,501.7,269.6z"/>
	<path display="inline" fill="#D69479" d="M491.2,405c0.8,1.1,0.7,2.4,0.6,3.7c-0.4,0-0.8,0.1-1.4,0.2c0.1,1.1,0.1,2.1,0.1,3.1
		c0.5,0,0.9,0,1.2,0c-0.3,0.9-0.6,1.7-0.9,2.8c-4.4-3.7-8.2-10.3-8.8-16.2c2.8-5.6,8.7-0.5,8.4,4.4c-1,1.7-1,1.7,0.6,3.9
		C491.1,406.1,491.1,405.6,491.2,405z"/>
	<path display="inline" fill="#32221D" d="M500.6,445.9c-1-4.5-2.9-8.8-3.2-13.4C500.4,435.7,501.1,441.6,500.6,445.9z"/>
	<path display="inline" fill="#31211C" d="M501.3,456c-0.5-2.5-0.4-5-0.3-8.1C502,450.4,502,451.8,501.3,456z"/>
	<path display="inline" fill="#926454" d="M494.9,428.2c-0.2-1.3-1.1-2.3-0.9-4c1.8,0.8,1.4,2.4,2,3.5
		C495.6,428,495.3,428.1,494.9,428.2z"/>
	<path display="inline" fill="#66463A" d="M491.7,412c-0.3,0-0.7,0-1.2,0c0-1-0.1-2-0.1-3.1c0.6-0.1,1-0.1,1.4-0.2
		C491.7,409.8,491.7,410.9,491.7,412z"/>
	<path display="inline" fill="#976856" d="M491.2,405c-0.1,0.5-0.1,1.1-0.2,1.8c-1.6-2.2-1.6-2.2-0.6-3.9
		C491.3,403.4,491,404.3,491.2,405z"/>
	<path display="inline" fill="#835B4C" d="M501.9,467.3c-0.4-1.9-0.5-3.4,0.2-5.4C502.4,464,502.7,465.4,501.9,467.3z"/>
	<path display="inline" fill="#5A3F36" d="M489.6,482.6c0.1-0.4,0.2-0.8,0.4-1.3c1.5,1.5,1.5,1.5,0.5,2.6
		C490.2,483.5,489.9,483.1,489.6,482.6z"/>
	<path display="inline" fill="#D49378" d="M441.6,409.8c-0.2,1.1-0.5,2.2-0.8,3.6c-5.3-5-5.5-11.6-5.5-18.5c0.8-0.8,1.6-1.7,2.5-2.6
		c1.6,0,2.8,0.5,3.9,1.4c-0.7,0.2-1.1,0.6-0.2,1.4c0.1-0.6,0.1-1,0.2-1.4c1.2,4.5,1.2,11,0,15.5c-0.2-1.6,0.3-3-1.2-4.1
		c-0.4,1.8-0.4,3.2,0,4.7C441,409.8,441.3,409.8,441.6,409.8z M441.1,399.9c0.2,0,0.3,0,0.5,0C441.5,398.7,441.2,398.7,441.1,399.9z
		"/>
	<path display="inline" fill="#47322A" d="M421.4,437.4c-1.1-2.2-1.1-4.4-0.7-6.8c0.4-0.1,0.8-0.1,1.1-0.1
		C421.5,432.7,423,435.7,421.4,437.4z"/>
	<path display="inline" fill="#241914" d="M441.6,409.8c-0.3,0-0.7,0-1.1,0c-0.4-1.5-0.5-2.9,0-4.7c1.5,1.1,1,2.6,1.2,4.1
		C441.6,409.5,441.6,409.6,441.6,409.8z"/>
	<path display="inline" fill="#4E352C" d="M437.6,475.7c-0.3,1.5-0.3,3.2-2,4.3C435.3,477.8,436.2,476.6,437.6,475.7z"/>
	<path display="inline" fill="#7D5A4D" d="M429.5,406.9c-1.1-0.9-1.1-0.9-0.6-2.5C430.3,405,429.8,405.9,429.5,406.9z"/>
	<path display="inline" fill="#97695A" d="M430.2,400c-1.9-0.2-1.2-1.3,0-2.3C430.2,398.8,430.2,399.4,430.2,400z"/>
	<path display="inline" fill="#412F29" d="M432.9,479.6c-0.1,1.3-0.1,2.1-1.2,2.2C431.8,480.5,431.8,480.5,432.9,479.6z"/>
	<path display="inline" fill="#715247" d="M430.4,395.9c-0.2-0.2-0.3-0.3-0.5-0.5c0.2-0.1,0.3-0.2,0.5-0.2
		C430.4,395.4,430.4,395.7,430.4,395.9z"/>
	<path display="inline" fill="#EAA388" d="M421.7,423.9c0.2,1.9,0.3,3.7,0.1,6.1C419.2,428.4,421.3,426.1,421.7,423.9z"/>
	<path display="inline" fill="#130E0B" d="M422.7,430.4c-0.3-2.8-0.5-5.5,0.3-9.1C423.3,424.7,424.4,428.4,422.7,430.4z"/>
	<path display="inline" fill="#67473A" d="M419.1,443.9c-0.8-1-0.8-1.8-0.2-2.8C420.1,441.4,420.2,442.9,419.1,443.9z"/>
	<path display="inline" fill="#50332A" d="M432.3,313.3c-1.7,0.2-2.6,0.1-3.1-1C430.3,311.8,431.2,311.8,432.3,313.3z"/>
	<path display="inline" fill="#A3705B" d="M418.5,310.6c-0.4-0.3-0.8-0.7-1.3-1.1C418.3,309,418.6,309.7,418.5,310.6z"/>
	<path display="inline" fill="#966754" d="M424.7,310.6c0.4,0.3,0.8,0.5,1.3,0.9C425.2,311.8,425.2,311.8,424.7,310.6z"/>
	<path display="inline" fill="#A4705B" d="M415.2,308.4c-0.2-0.4-0.4-0.7-0.6-1.1C415.3,306.9,415.9,307.7,415.2,308.4z"/>
	<path display="inline" fill="#754F41" d="M418.3,449.1c0.1,0.4,0.1,0.9,0.2,1.3c-0.2,0-0.3,0-0.5,0.1c-0.1-0.4-0.1-0.9-0.2-1.3
		C417.9,449.1,418.1,449.1,418.3,449.1z"/>
	<path display="inline" fill="#392824" d="M350.3,185.2c1.4,0.8,1.4,1.8,1,3.2C350.3,187.4,349.7,186.6,350.3,185.2z"/>
	<path display="inline" fill="#463731" d="M397.6,222.9c-0.7-1-0.3-1.7,0.6-2.2C398.7,221.8,398.7,221.8,397.6,222.9z"/>
	<path display="inline" fill="#3D2D28" d="M422.4,126.7c0.6,0.5,1.2,0.9,1.9,1.5C422.7,128.5,422.7,128.5,422.4,126.7z"/>
	<path display="inline" fill="#83685D" d="M352.6,194c-0.6-1.1-0.9-1.5-1.2-2C352.7,191.7,352.7,191.7,352.6,194z"/>
	<path display="inline" fill="#5E413A" d="M427.1,127.4c-0.9,0.9-1.8,0.4-1-0.6C426.4,126.9,426.7,127.1,427.1,127.4z"/>
	<path display="inline" fill="#7A5950" d="M417.8,151c-0.3-0.8-0.6-1.2,0.4-1.5c0.1,0.4,0.2,0.8,0.3,1.2
		C418.3,150.8,418,150.9,417.8,151z"/>
	<path display="inline" fill="#483933" d="M384.6,204.1c0.4,0.1,0.8,0.2,1.5,0.3c-0.7,0.5-1.1,0.9-1.5,1.2
		C383.6,205.1,384.5,204.6,384.6,204.1z"/>
	<path display="inline" fill="#65453D" d="M398.1,218.1c0.4-0.4,0.7-0.7,1-1C399.6,218.1,399.3,218.3,398.1,218.1z"/>
	<path display="inline" fill="#32221B" d="M481.2,475.6c-0.3-1.7-0.5-3.4-0.8-5c0.2-0.1,0.3-0.3,0.7-0.6c1,2.5,1.1,5,2.4,8.1
		C481.7,477.2,481.8,477,481.2,475.6z"/>
	<path display="inline" fill="#221612" d="M476.7,418.2c-0.7-1.8-0.5-3.6-0.4-6.1C478.1,414.1,477.6,415.9,476.7,418.2z"/>
	<path display="inline" fill="#4E3229" d="M488.2,313c0.5-1.4,1.6-1,2.6-0.9C489.9,313.4,489.9,313.4,488.2,313z"/>
	<path display="inline" fill="#614236" d="M486.8,479.1c-1.2-0.8-1.2-0.8-1.4-2.7C486.2,477.1,486.2,477.1,486.8,479.1z"/>
	<path display="inline" fill="#966754" d="M494.6,310.6c0.4,0.1,0.8,0.2,1.2,0.3c-0.4,0.7-0.7,1.3-1.6,0.9
		C494.4,311.4,494.5,311,494.6,310.6z"/>
	<path display="inline" fill="#3D2D25" d="M477.4,409c-0.5-0.3-0.4-0.5-0.2-1C477.8,408.3,477.7,408.6,477.4,409z"/>
	<path display="inline" fill="#654B3E" d="M478.3,403.6c-0.1,0.1-0.2,0.3-0.4,0.4c-0.1-0.3-0.4-0.6,0-0.9
		C478.1,403.3,478.2,403.5,478.3,403.6z"/>
	<path display="inline" fill="#2B251F" d="M444.4,538.2c0.3,0.2,0.5,0.4,0.8,0.7c-12.7,8.7-23.3,30.3-37.4,33.3
		c0.1-0.2,0.2-0.4,0.2-0.6C423,564.4,430.8,547.4,444.4,538.2z"/>
	<path display="inline" fill="#49443B" d="M432.6,521.4c4.2,2,3.6,8.3,8.7,10.1C436.6,532.6,434.6,524.6,432.6,521.4z"/>
	<path display="inline" fill="#615B4F" d="M446,534.1c0.2,0.6,0.4,1.1,0.7,1.9c-1.8-0.1-2.7-1.1-4.1-1.9c0-0.3,0-0.6,0-1.1
		C443.7,533.3,444.9,533.7,446,534.1z"/>
	<path display="inline" fill="#E1D8B8" d="M438.9,531.5c0.2,0.1,0.5,0.3,0.7,0.4C439.4,531.8,439.2,531.6,438.9,531.5z"/>
	<path display="inline" fill="#352B23" d="M505.8,570.9c-6.8-5.2-13.2-11.6-18.3-18.4c0.3-0.3,0.5-0.5,0.8-0.8
		c5.6,6.5,11.3,13.4,18.2,18.4C506.3,570.4,506.1,570.6,505.8,570.9z"/>
	<path display="inline" fill="#4E3B31" d="M488.4,551.7c-0.3,0.3-0.5,0.5-0.8,0.8c-2.1-2.1-4.2-4.3-6.3-6.4c0-0.3,0.1-0.7,0.1-1
		c2.3,2,4.6,4,6.9,6C488.3,551.2,488.3,551.5,488.4,551.7z"/>
	<path display="inline" fill="#82836F" d="M480.2,529.8c0.3,0,0.6,0,0.9,0c-0.7,0.7-1.4,1.4-2.1,2c-0.3,0-0.6,0-1.2,0
		C478.2,530.5,479.4,530.4,480.2,529.8z"/>
	<path display="inline" fill="#534039" d="M528.4,268.3c0.3-2,0.3-2,2.2-1.8C529.7,267.2,529.1,267.8,528.4,268.3z"/>
	<path display="inline" fill="#523F38" d="M537,257.6c-1.1-1.1-1-1.5,0.7-2.7C537.9,256,537.5,256.8,537,257.6z"/>
	<path display="inline" fill="#654C43" d="M377.5,221.8c0.9,0,1.6,0.3,2,1.2C379.2,224.8,377.1,222.9,377.5,221.8L377.5,221.8z"/>
	<path display="inline" fill="#654C43" d="M377.5,221.8c-0.4-0.1-0.8-0.1-1.3-0.2C377,220.8,377.3,221.3,377.5,221.8L377.5,221.8z"
		/>
	<path display="inline" fill="#250E0D" d="M347.8,204.5c-0.2,0.2-0.3,0.2-0.5,0C347.5,204.3,347.6,204.3,347.8,204.5z"/>
	<path display="inline" fill="#4D4036" d="M481.4,545c0,0.3-0.1,0.7-0.1,1c-3.9-1.4-5.3-6.1-9.2-7.8c0-0.3,0-0.5,0.1-0.8
		C476.1,538.6,478.3,542.4,481.4,545z"/>
	<path display="inline" fill="#675849" d="M472.3,535.3c1.2-1.3,1.2-1.3,3-1.7C474.1,534.8,474.1,534.8,472.3,535.3z"/>
	<path display="inline" fill="#6E6555" d="M505.8,570.9c0.3-0.3,0.5-0.5,0.8-0.8c1.1,0.5,2.2,1,3.7,1.7c-0.8,0.2-1.2,0.3-1.6,0.4
		C507.8,571.7,506.8,571.3,505.8,570.9z"/>
	<path display="inline" fill="#977164" d="M503.7,267.3c-3,1.2-6.3,2.7-9.1,0.2c3.7,0.6,6.6-0.8,9.9-1.4
		C504.3,266.6,504,267,503.7,267.3z"/>
	<path display="inline" fill="#977264" d="M548.3,207c-0.2-5.4-0.2-5.5-4.2-9.4c-10.8-10.1-21.2-20.7-31.5-31.4
		c0.3-2.2,2.1-4,1.2-6.7c-0.7,0.4-1.1,0.7-1.5,1c-0.3-1.7,1.5-1.8,2-3.1c5.3,2.4,6.4,9.1,11,12.4c6.8,5.9,16.9,5.7,23.4,11.5
		c-3.3,2.9-7.4,1.4-11.7,1.7c6.4,5.4,11.8,11.3,19,15.4c-1.5,0.5,0.1,2.3,0.7,0.8c3.8,1,9,2.3,11.1,5.7c-2.7,1.8-8.5-0.9-12.1-2
		C553.5,205,549.3,203.4,548.3,207z M557.4,200.3c0.8,2.8,2.8,3.6,4.9,2.3C560.8,201.9,559.4,201.2,557.4,200.3z M529.5,174.8
		c0.9,2.1,1.8,2.7,4.7,3C532.8,176.2,531.3,175.4,529.5,174.8z M545.1,181.3c-0.1-0.7-1.6-1.2-1.6-0.3
		C544.1,181.2,544.5,181.8,545.1,181.3z M541.3,180c-0.4-0.2-0.7-0.3-1-0.4C539.7,180.7,540.6,181,541.3,180z M537.4,179
		c-0.3-0.1-0.6-0.3-0.8,0.1C536.9,179.3,537.1,179.5,537.4,179z"/>
	<path display="inline" fill="#181110" d="M538.3,228c0.3,0.7-0.3,1.7,0.7,2.2c-2.7,9-9.5,16.3-13.8,24.6c-3,3.6-9.3,3.3-13.7,4.3
		c-0.8-1.6-3,0.3-3.4-1.5c4.5,0,14.7-1.1,16.9-5.4C529,243.8,535.6,236.8,538.3,228z"/>
	<path display="inline" fill="#3C2D29" d="M514.2,133.1c-1.9-0.7-2.4-1.8-2.7-3.4C513.7,130.8,513.6,130.8,514.2,133.1z"/>
	<path display="inline" fill="#544039" d="M525.2,152.1c1.8,0.5,1.8,0.5,1.3,1.8C525.5,153.9,525,153.4,525.2,152.1z"/>
	<path display="inline" fill="#624941" d="M515.8,132.3c0.5,0.5,1,0.9,1.6,1.5C515.9,134.3,515.9,134.3,515.8,132.3z"/>
	<path display="inline" fill="#624C45" d="M532.8,261.4c0.5-0.8,0.9-1.1,1.8-1.4C534.9,261.3,534.2,261.6,532.8,261.4z"/>
	<path display="inline" fill="#402E29" d="M533.9,154.7c-0.7-0.6-0.3-1.1-0.2-1.8C535,152.8,535.4,154.6,533.9,154.7z"/>
	<path display="inline" fill="#3D2C27" d="M512.6,157.5c-0.5-1.3-0.3-2.1,0.8-2.5C514.1,156,513.6,156.7,512.6,157.5z"/>
	<path display="inline" fill="#3E2D28" d="M530,152.8c1.2-0.1,1.3,0.4,1.3,1.4C530.2,154.4,530.1,153.8,530,152.8z"/>
	<path display="inline" fill="#977164" d="M538.4,254.9C538.6,252.5,540.8,254.7,538.4,254.9L538.4,254.9z"/>
	<path display="inline" fill="#604B41" d="M556.8,199.2c-0.6,1.5-2.3-0.3-0.7-0.8C556.3,198.7,556.5,198.9,556.8,199.2z"/>
	<path display="inline" fill="#543731" d="M513.1,152.9c0-0.4,0-0.8,0-1.2c0.1,0,0.3,0,0.4,0c0.1,0.4,0.2,0.8,0.2,1.2
		C513.5,152.9,513.3,152.9,513.1,152.9z"/>
	<path display="inline" fill="#4E372E" d="M441.7,393.8c-0.1,0.4-0.1,0.8-0.2,1.4C440.7,394.3,441,394,441.7,393.8L441.7,393.8z"/>
	<path display="inline" fill="#30221C" d="M441.1,399.9c0.1-1.3,0.5-1.2,0.5,0C441.4,400,441.2,400,441.1,399.9z"/>
	<path display="inline" fill="#281C18" d="M557.4,200.3c1.9,0.9,3.4,1.5,4.9,2.3C560.2,203.9,558.3,203.2,557.4,200.3z"/>
	<path display="inline" fill="#2C1E1A" d="M529.5,174.8c1.8,0.6,3.3,1.4,4.7,3C531.4,177.4,530.5,176.9,529.5,174.8z"/>
	<path display="inline" fill="#6C5147" d="M545.1,181.3c-0.7,0.5-1-0.1-1.6-0.3C543.5,180.1,545,180.6,545.1,181.3z"/>
	<path display="inline" fill="#4B3730" d="M541.3,180c-0.6,1.1-1.6,0.7-1-0.4C540.6,179.7,540.8,179.8,541.3,180z"/>
	<path display="inline" fill="#5F3E37" d="M537.4,179c-0.2,0.5-0.5,0.3-0.8,0.1C536.8,178.8,537,179,537.4,179z"/>
</g>
<g id="a_00000049190420686451251580000005596962971850430388_">
	<path d="M501.5,88.4c0.6,2.5-0.9,4.4-0.1,7.2c-1-0.3-1.6-0.5-2.5-0.8c-0.3,0.4-0.8,0.9-1,1.2c0.2,2.4,0.2,3.8-1,5.9
		c-0.4-0.2-0.8-0.3-1.4-0.6c-0.4,1.1-0.7,2.1-1.1,3.2c-0.7-0.1-1.2-0.2-1.9-0.3c-0.8,1.9-3,3.1-2.5,6.4c-0.9-1.1-1.3-1.5-1.6-2
		c-2.2,1.2-2.2,1.2-3.6,4.1c-1-0.1-1.9-0.2-3-0.3c-1,3.1-2.2,4.8-5.7,4.5c-3.1,8.7-2.8,21.6,8,24.3c0,0.3,0,0.6-0.1,0.8
		c-12.2-0.4-10.8-13.5-11.2-21.8c-0.3,0-0.6,0-0.8,0c-0.8,1.2-1.4,2.2-2.1,3.3c-0.5-0.2-0.9-0.4-1.4-0.6c0.1-0.8,1.2-1.5,0.3-2.5
		c-1.4,0.3-1,1.5-1.2,2.4c-0.6,0.5-1.2,1.1-2,1.8c-0.9-1.7-2.1-2.7-3.7-3c-1.1,0.8,0.9,2.3-0.9,2.7c-2.1-0.9-4.3-1.3-5.6-3.4
		c-0.4,0.5-0.7,0.9-1.1,1.4c-1.3-1.3-3.4-1.1-4.2-2.9c-1-1.6-3.2,0.2-4.6,0.4c-0.8,1,0.3,2.4-1,3.2c-0.6-2.3-0.1-4.9-2.3-6.6
		c-0.5,0.2-1,0.4-1.7,0.7c-0.4-0.7-0.8-1.5-1.3-2.5c-1-0.2-1.9-0.7-1.8-2.3c-1.5,0-2.8,0-4.4,0c0.4-1.1,0.7-2,0.9-2.9
		c-1.1-1-1.8,0.7-3-0.2c-0.1-0.4-0.4-1.1-0.7-2.2c-0.7-0.3-1.7-0.8-2.9-1.3c0.8-0.6,1.4-1,2.2-1.6c-1.6-1-3.1-1.2-4.9-0.8
		c-1.7-1.9,0.6-3,0.8-4.4c-1.5-1.2-2.2,0.3-3.1,0.7c-1.7-0.6-0.3-2.1,0.1-3.3c-0.7,0-1.1,0-1.8,0c-0.7-3.7-2-6.6-1.5-10.6
		c-1.8-0.8-3.1-2-3.8-3.9c0.6-0.8,3.4-4.8,0.3-4c-2.2-1.4,0.7-3.5-0.3-5.4c-0.5-1.4,1.1-2.2,1.9-3.2c-0.5-0.4-0.9-0.7-1.4-1.1
		c-0.4,0.1-0.9,0.2-1.7,0.4c-0.3-2.8,2-4.1,3.5-6.4c-0.8,0.1-1.3,0.1-1.9,0.2c-1.6-2.1,1.8-3.3,3-4.7c-0.9-1.3-2,0.2-3.1-0.4
		c-0.1-1,0.6-1.8,1-2.8c0.9-0.7,2.6-0.4,3.1-2.1c-0.1-0.4-0.2-1-0.4-1.7c0.6-0.3,1.2-0.7,1.8-1c0.9,1.3,2,0.9,3.2,0.7
		c-0.3-2.2-2.1,0.4-2.6-1.4c1.4-1.4,1.4-1.4,5-2.3c-0.5-0.9-0.5-0.9-2.1-1.4c1.3-2.1,4.6-1.2,6.3-3.3c-0.6-0.4-1-0.7-1.6-1
		c3.3-2.4,4.8-0.7,8,0.3c-0.9-1.2-1.6-2.1-2.9-2c-0.3-0.2-0.5-0.4-1.4-0.9c4.1-1.1,5.8,0.4,9.5-1.4c-1.8,0.1-2.9,0.2-3.9,0.3
		c-0.6-0.6-1.3-1.2-2-1.9c2.5-2.1,4.8-2,7.7-1.3c1.8-1.5,3.8,1.5,5.1-0.4c0.7,0.4,1.5,0.7,2.4,1.2c0.1-0.6,0.2-1.1,0.3-1.8
		c-1.1,0-2-0.1-2.9-0.1c-1.2-1.5,4.6-1.2,5.6-1.7c0.7,0.6,1.3,1.1,1.8,1.5c1.5-0.2,2.9-0.4,4.9-0.7c1-0.7,4.5-3.1,5.3-0.4
		c-0.7,0.1-1.4,0.1-2.1,0.2c-0.1,0.4-0.3,0.7-0.4,1c2.8,0.9,5.7-0.9,8.5-1.6c1.3,1.8-1.7,1.6-1.1,3.2c4.9-1,9.7,2,14.3,3.5
		c-0.6,1.3-1.8,0.3-2.8,0.8c-0.1,0.3-0.2,0.7-0.3,1.4c3,0.6,4.7-2,7.5-1.1c-0.5,0.8-0.9,1.3-1.3,1.9c3.2,0.9,4.1,1.2,5.8,4.5
		c-1.9-0.2-3.1-1.2-4.7,0.8c2.2,0.3,3.9,0.6,5.6,0.8c0.4,0.4,0.8,0.8,1.5,1.3c-1.2,0.6-2.1,1-3.4,1.7c2.2,1.7,4.6,1.1,5.8,3.8
		c0.3,0.5,1,0.8,1.7,1.4c-0.6,0.2-0.9,0.3-1.3,0.4c-0.4-0.2-0.8-0.4-1.2-0.6c-0.2,1.2,0.4,1.3,1.2,1.2c1.6,1.2,4.8,4,2.1,5.7
		c-0.2-0.9-0.8-1.4-1.8-1.4c-0.1,0.3-0.2,0.6-0.4,1c0.8,0.3,1.5,0.6,2.3,0.9c1,1.8,2.2,2.1,0.9,4.6c0.6,0.9,1.1,1.7,1.6,2.4
		c-0.8,2.9-1.2,4.8,0.1,9.8c-0.7,0.1-1.3,0.2-2,0.3c-0.2-1.1-0.6-1.9-2.3-2.1c0.8,1.2,0.9,2.3,2.3,2.1c0.2,0.6,0.4,1.3,0.7,2
		c-0.4,0.6-0.8,1.1-1.2,1.8c0.9,1.7,1.1,3.5,0,5.2c-0.4-0.5-0.6-1.1-1.8-1C501.1,87.8,501.3,88.1,501.5,88.4z M480.9,46.1
		c0.4-0.8,0.6-1.3,0.9-1.8c-1.8-0.2-1.8-0.2-2.4,1.5C479.8,45.9,480.2,46,480.9,46.1z M495.3,81.5c0.4,0.2,0.7,0.3,1,0.4
		C496.9,80.9,496,80.5,495.3,81.5z M419.1,82.8c0.5-0.5,0.9-0.8,0.4-1.3C418.6,81.7,418.6,81.9,419.1,82.8z"/>
	<path fill="#010101" d="M426.9,542.9c-6-38.8-10.7-77.4-5.4-116.4c-0.7-15.8-10.1-29.5-11.6-45.1c-3.8-17.7-6.5-35.8-7-54
		c-2.8-53.1,41.8-63.8,15.8-120.2c-0.9,5.6-1.9,10-3.9,15c-0.2-0.5-0.4-1-0.7-1.5c2.6-9.9,3-20.7,5-30.2c0.2,3-0.3,5.9,0.2,8.9
		c0.6,0.1,1.1,0.2,1.5,0.3c-1.1,1.2-1,2.4-0.5,3.9c3.5,11.2,6,22.6,9.1,33.9c3.2,24.3-19.2,42.4-22.3,65.7
		c34.6,5.4,70,8.1,104.5,0.2c-5.9-23.3-1.5-10.2,14-11.9c-4,4.2-9.6,0.4-14.5-0.4c1.1,3.7,0.9,7.2,2.8,10.2c2-1.4,4.8-2.8,6.9-1
		c-3,0.2-5.2,1.6-7,4.4c3.8,26.8-1,53.7-6,79.9c-3.1,17.2-13.3,33.4-11.3,51.4c6.9,34.5,0.3,71-5.9,104.8c-1,13.6,4.6,3.2-3.6,13.6
		c-6.2,10-14-0.3-21.2-3c0.9-1.2,2.5,0,3.7-1.1c3.7-28.9-9.4-56.9-1.6-85.6c2.5,5.5-0.4,13-0.5,19.1c-1.2,21,7.6,41.4,5,62.6
		c3.8,3.9,12.9,0.4,16-1c6.3-39.8,10.7-80.1,6.4-120c8.9-39,22.7-78.9,17.2-119.5c-34.9,5.6-70.4,6.7-105.1-0.4
		c-5.9,39.9,7.1,80.2,16.8,118.4c-3.7,40.6-0.4,81.3,6.6,121.7c3.8,2.3,8.2,1.6,12.4,2.6c6.4,0.1,2-8.2,3.1-12
		c-0.1-19,7.7-37.1,4.9-56.1c0-4.8-2.3-11.1,0-15.3c7.8,28.8-5.6,57.2-1.4,86.1c1.7,0.1,3.2-0.3,4.1,1.4c-0.3,0.3-0.5,0.5-0.8,0.8
		c-13.2,1-12.2,15.9-25.4-4.4C428.5,547.6,427.8,544.5,426.9,542.9z M436.2,549.3c-2.1-1.1-4-0.6-6.5-1.8c0.7,5.2,4.3,7.6,8,10.2
		c3.3-1.7,6.1-3.3,8.7-5.8c-0.3-0.9-0.5-1.7-0.9-2.6c-0.9,0.4-1.6,0.8-2.4,1.2c0,1.4,0,2.6,0,3.9C440.7,549,442.9,550.4,436.2,549.3
		z M488.2,547.8c-4.1,0.9-7.8,1.8-11.7,2.6c-0.3,1.4-0.6,2.9-0.9,4.3c1.5,1.3,2.9,2.1,4.6,2.9C484.2,555.6,487.9,552.7,488.2,547.8z
		 M474.8,550.4c-1-0.4-1.6-1.1-2.6-0.6c-0.2,0.8-0.3,1.6-0.5,2.6c1.1,0.6,2,1.2,3.1,1.9C474.8,552.8,474.8,551.7,474.8,550.4z"/>
	<path fill="#060504" d="M465.8,551.5c0.6,1,2,0.6,2.8,1.3c-0.9,0.1-1.8,0.2-2.8,0.3c0.7,8.6-4.6,15.6-4.8,23.8
		c12.5,6.8,25.1,0.1,37.8-0.7c9.9,1.2,22.2-2.8,24.7-13.4c3.7,7.5-6.8,11.5-11.9,14.5c-6.9,2.7-14.8-0.6-21.8,2.2
		c-10,4.3-21.7,3.6-31.3-1.7c-11.4,9.3-26.1,1.5-38.6,0.6c-13,1.8-29.7-5.6-26.6-21.1c3.2-5.2,10.6-2.3,15.8-3.1
		c6.4,0,9.7-6.4,14.9-9.1c0.3,0.2,0.6,0.5,0.8,0.7c-2.3,2.8-2.4,6.9-2.8,10.7c-0.8-0.4-1.5-0.7-2.1-1.1c-0.4,1-0.7,1.8-1,2.8
		c-1.6-1.5-0.7-3.3-1.5-4.8c-2.2,1.2-0.4,4-2.5,5.1c-0.6-0.9-1.2-1.9-1.7-2.7c-2.1,0-1.3,3.1-3.5,2.6c-0.2-0.7-0.3-1.5-0.5-2.3
		c-4.3,0.7-11.1-2.4-13.8,1.9c-2.5,6.3,1.8,12.4,7.1,14.7c5,3.8,11,4.1,17,3.6c8.2-0.2,40.2,11.5,37.2-4.9c0.3-0.3,0.5-0.5,0.8-0.8
		c0.5,1.1,1.1,2.2,1.7,3.5c1.6-5.6,4.8-10,4.9-15.8C464.4,556.1,463.7,552.8,465.8,551.5z"/>
	<path fill="#040303" d="M484.1,142c0-0.3,0-0.6,0.1-0.8c18.7,5.9,42.3,4.1,49.8,26.6c2.3,6.1,4.3,12.3,9.8,16.2
		c12.4,10.2,19.7,25,27.5,38.8c3.8,12.9-15.4,34.2-22.2,45.4c-0.3-0.3-0.5-0.6-0.8-0.8c21.5-39.3,33.1-31.5,3.3-71.7
		c-6.5-9.1-16.7-15.2-19.5-26.6C520.4,144,504.3,151.6,484.1,142z"/>
	<path fill="#977264" d="M383.9,249.1c-0.1,0-0.4,0-0.5,0c-0.1-0.3-0.2-0.7-0.3-1.2c-0.8-0.3-1.6-0.7-2.4-1c-0.6,0.4-1,0.8-1.5,1.2
		c-13.8-2.9-25.5-10.7-35.4-20.7c-1-5.3-1.4-11.8,0-17.2c0.4,5.5,1.1,11.1,2.9,16.2c-1.4,1.5,0.9,1.9,0.6,0.1
		c7.8,5.4,14.9,12.1,24.1,14.8c6.5,2.9,14.9,2.7,20.1,7.8c0.8,0.9,1.8,1.5,3.1,1.3c-3.1,3.6-6.8-1.1-10-2
		C384.2,248.8,384.1,249,383.9,249.1z M376.5,245.2c0.1,0.7,0.8,0.6,1.3,1c0.1-0.3,0.2-0.5,0.3-0.8
		C377.5,245.2,377.2,244.6,376.5,245.2z"/>
	<path fill="#0B0707" d="M444.6,122.9c1.3-0.7,0.2-2.2,1-3.2c1.4-0.1,3.6-2,4.6-0.4c-1-0.3-1.3,0.8-1.8,1c-0.8-0.1-1.5-0.2-2.4-0.2
		c-0.2,5.7,0.7,11.4-2.1,16.8c8.7,5.8,19,5,28.6,2.4c0.6-0.2,1.4-0.6,1.7,0.4c-1.1,0.8-2.7,0.4-3.5,1.4c-9.6,3.5-19.4,3.1-27.8-3
		c-2.1,2.6-4.5,4.8-7.6,5.8c-0.2,0.3-0.4,0.5-0.6,0.8l0,0c-22.3,7.4-32.8,1.7-34,31C393.3,130.5,446.5,161.5,444.6,122.9z"/>
	<path fill="#0F0F0F" d="M365,510.6c-0.3-44.9-0.2-89.8,0-134.6c3.5,39.5,0.7,80.5,1.3,120.5C364.1,500.4,367.2,506.7,365,510.6z"/>
	<path fill="#100C0B" d="M357.1,213.2c0.3,3.5,0.6,7,0.9,10.6c10.4,3.6,17.6,4.7,27.8-0.7c5-11.3,8.6-23.4,12.2-35.2
		c0.4,0,0.9,0,1.3,0c-0.2,7.6-4.7,14.6-6.6,22c-2.1,5.2-3,12.2-7.1,15.9c-1.6-0.5-1.6-0.5-3.3,0.8c-8.6,3-22,2.9-28.8-3.2
		c1.1-0.1,1.9-0.2,2.7-0.3C356.8,219.6,355.7,216.1,357.1,213.2z"/>
	<path fill="#242525" d="M366.4,225.8c-0.5-0.2-1-0.5-1.5-0.7c0.1-34.5-0.2-69.1,0.1-103.6C367.7,155.7,365.9,191.1,366.4,225.8z"/>
	<path fill="#292A2A" d="M365,328.8c-0.3-26.3-0.3-52.7,0-79c1.5-0.8-0.2-2.8,1.4-3.5c-0.1,31.7,0.3,63.4-0.1,95.1
		C364.2,337.9,367.1,332.2,365,328.8z"/>
	<path fill="#0D0B0A" d="M491.2,548.7c-1.2-1-1.2-7.4,0-8.4c0,0.8,0,1.6,0,2.5c4.6,2.8,8,6.6,12.3,9.6c6.2,4.8,15.9-1.8,20.9,4.6
		c-0.2,0.6,0,1.4-0.9,1.7c-0.8-0.9-1.7-1.9-2.3-2.6c-4.3,0-8.3,0-12,0c-0.7,0.9,0.2,2.2-1.5,2.5c-0.6-1-1.3-2.3-2.3-2.9
		c-1.3,0.7-1,2.4-2.6,2.7c-0.9-1.6-0.1-5.1-2.3-5.2c-0.2,1.6,0.5,3.7-1.2,4.7c-1.8-2.9-0.1-5.8-2.2-8.6c-0.1,2.2-0.2,4-0.2,5.7
		c-0.3,0-0.7,0-1.2,0c-0.1-4.2,0.2-8.7-4.5-10.7C491,545.9,490.8,547.3,491.2,548.7z"/>
	<path fill="#141111" d="M365.7,547.3c-12.2,15.5-26.1,29.6-39.1,44.3c-0.2-0.5-0.3-0.8-0.5-1.2c12.8-15,25.9-29.7,38.9-44.5
		C365.7,546.1,365.6,546.7,365.7,547.3z"/>
	<path fill="#130F0F" d="M383.9,249.1c0.2-0.2,0.3-0.3,0.7-0.7c15.7,10.9,25.5-16.2,29.7-27.7c0.2,0.5,0.4,1,0.7,1.5
		C411.6,235,399.9,262,383.9,249.1z"/>
	<path fill="#171212" d="M548.2,267.3c0.3,0.3,0.5,0.6,0.8,0.8c-9.4,10.5-12.2,30.5-28.2,32.3c-0.5-1-1.5-0.5-2.2-0.7
		C535.1,297.7,538.2,278.2,548.2,267.3z"/>
	<path fill="#323232" d="M366.3,141.2c-2.2-5.8,1-14-1.2-19.7c-0.2-12,0.1-24,0-36c0.4,0,0.8,0,1.2,0
		C366.5,104.1,366.5,122.7,366.3,141.2z"/>
	<path fill="#1E1F1F" d="M365,328.8c2.1,3.5-0.8,9.2,1.3,12.7c0.2,14.3,0.3,28.7,0,43C363.4,366.5,365.3,347.2,365,328.8z"/>
	<path fill="#1A1615" d="M343.7,210.3c-1.3,5.3-0.9,11.8,0,17.2c3.1,3.5,6.2,6.2,9.8,8.4c-0.2,0.2-0.5,0.4-0.7,0.6
		c-4.2-2.1-7.9-4.8-11.3-8.8c-0.9-8.2-0.1-17,0.9-25.8C343.8,204.4,342.8,207.5,343.7,210.3L343.7,210.3z"/>
	<path fill="#171717" d="M365.7,547.3c0-0.6,0-1.2-0.7-1.4c0-16.4-0.8-33.3,1.3-49.3C366,513.3,367.7,531.1,365.7,547.3z"/>
	<path fill="#322A27" d="M343.2,206.9c0.3-6-3.4-14.1,1-19.2c-0.5-1.9,0-3.7,0.5-5.5c0.4,0,0.8-0.2,1.2-0.1
		c-2.1,8.7,3.7,17.2,2.8,26.1l0,0c-0.4-0.1-0.8-0.2-1.5-0.4c0.5-6.2-1.3-11.9-2.9-17.8C341.8,191.3,345.4,202.8,343.2,206.9z"/>
	<path fill="#2D2826" d="M357.1,213.2c-1.2,2.1-0.5,4.8-0.7,7.2c-1.4-3.9-0.3-8.6-0.5-12.8c0.5-4-2.9-6.3-3.7-9.8
		c-0.6-4.5-1.2-9-2-13.5c0.2,0.1,0.4,0.1,0.6,0.1c0,1.1,0.6,2.1,1.4,2.8C353,196.1,358.5,204,357.1,213.2z"/>
	<path fill="#1D1615" d="M366.4,246.3c-1.6,0.7,0.1,2.7-1.4,3.5c-0.1-1.5-0.2-3-0.2-4.4c-2.4-1.6-4.6-3.2-6.9-4.8
		c0.3-0.2,0.5-0.5,0.8-0.7c6.4,3.7,13.2,6.8,20.5,8.2c0.5-0.4,1-0.7,1.5-1.2c0.8,0.3,1.6,0.7,2.4,1c0.1,0.5,0.2,0.8,0.3,1.2
		C378,250.5,371.8,247.1,366.4,246.3z"/>
	<path fill="#2F2522" d="M345.9,182.1c-0.2,0-0.4,0-0.6,0c-0.1-0.3-0.2-0.5-0.3-0.8c1.3-1.6,1.7-3.6,4-3.9c0.2,1.3,0.7,2.2,0.4,3.3
		c-0.4-0.6-0.8-1.2-1.2-1.9c-3.3,5.7,5.7,15.7,1.9,21.6C349.4,194.4,348.2,187.5,345.9,182.1z"/>
	<path fill="#474747" d="M366.3,85.6c-0.4,0-0.8,0-1.2,0c-0.1-7.5-0.2-15,0-22.5c1.7,1.5-0.5,4.1,1.2,5.6
		C366.3,74.3,366.3,79.9,366.3,85.6z"/>
	<path fill="#272220" d="M399.4,187.8c-0.4,0-0.9,0-1.3,0c0.4-6.9,1.1-13.8,2-20.6c0.4,2.7-0.8,6.3,0.7,8.6
		C400.8,179.8,399.4,183.7,399.4,187.8z"/>
	<path fill="#575757" d="M366.3,68.6c-1.7-1.5,0.5-4.1-1.2-5.6c0-4,0-8,0-11.9c0.4,0.2,0.8,0.4,1.2,0.7
		C366.3,57.4,366.3,63,366.3,68.6z"/>
	<path fill="#373532" d="M523.5,558.6c0.9-0.2,0.8-1,0.9-1.7c1.3,2.4,0.5,6.1,0,8.8c-0.1-1.1,0-2.2-0.8-3
		C523.5,561.4,523.5,560,523.5,558.6z"/>
	<path fill="#38302D" d="M358.7,239.9c-0.3,0.2-0.5,0.5-0.8,0.7c-1.7-1.4-3.3-2.8-5-4.1c0.2-0.2,0.5-0.4,0.7-0.6
		C355.6,236.8,357.4,238,358.7,239.9z"/>
	<path fill="#433F3A" d="M424.8,545.7c-0.3-0.2-0.6-0.5-0.8-0.7c0.7-1.1,1.7-1.8,2.9-2.1c0.9,1.6,1.6,4.6-0.1,5.7
		c-0.1-1.3,0.7-2.9-0.3-3.9C426,545,425.4,545.4,424.8,545.7z"/>
	<path fill="#BFC6C6" d="M496.1,46.7c-1.7-0.2-3.4-0.5-5.6-0.8c1.6-2,2.8-1,4.7-0.8C495.5,45.7,495.8,46.2,496.1,46.7z"/>
	<path fill="#D7E5E5" d="M487,39.2c-1.1,0.9-2.3,0.5-3.7,0.6c0.2-0.7,0.2-1.1,0.3-1.4c1-0.5,2.2,0.5,2.8-0.8
		C487.1,37.9,486.9,38.6,487,39.2z"/>
	<path fill="#D8DCDC" d="M468.7,32.1c-1.2,0.7-2.5,1.2-4,0.4c0.1-0.3,0.2-0.6,0.4-1c0.7-0.1,1.4-0.1,2.1-0.2
		C467.7,31.6,468.2,31.8,468.7,32.1z"/>
	<path fill="#5A6060" d="M449.5,32.7c0.9,0,1.8,0.1,2.9,0.1c-0.1,0.7-0.2,1.2-0.3,1.8c-1-0.5-1.7-0.8-2.4-1.2
		C449.6,33.2,449.6,33,449.5,32.7z"/>
	<path fill="#9A9393" d="M366.3,51.8c-0.4-0.2-0.8-0.4-1.2-0.7c-0.1-1-0.2-1.4,0.6-2.2C366.6,49.9,366.4,50.8,366.3,51.8z"/>
	<path fill="#666B6B" d="M421.9,48.8c0.5,1.7,2.3-0.8,2.6,1.4c-1.2,0.3-2.3,0.6-3.2-0.7C421.5,49.3,421.7,49,421.9,48.8z"/>
	<path fill="#444747" d="M434.7,39.1c1.3-0.1,2,0.8,2.9,2c-1.6,0.1-2.1-1.1-3-1.4C434.6,39.4,434.7,39.2,434.7,39.1z"/>
	<path fill="#96A9A9" d="M502.5,62.2c-0.7-0.3-1.5-0.6-2.3-0.9c0.2-0.5,0.3-0.8,0.4-1C501.8,60.2,502.6,61.2,502.5,62.2z"/>
	<path fill="#91ADAD" d="M438.9,37c1.1-0.1,2.2-0.2,3.9-0.3c-1.7,1.3-2.8,0.7-3.9,0.7C438.9,37.3,438.9,37.2,438.9,37z"/>
	<path fill="#9C7C6F" d="M350.7,184.3c-0.2,0-0.4,0-0.6-0.1l0,0c0-1.2-0.1-2.3-0.1-3.5c0.1-0.1,0.2-0.2,0.3-0.2
		C351.2,181.7,350.8,183,350.7,184.3z"/>
	<path fill="#91ABAB" d="M501.5,88.4c-0.2-0.3-0.4-0.6-0.7-1.1c1.1-0.2,1.4,0.4,1.8,1C502.2,88.3,501.9,88.3,501.5,88.4z"/>
	<path fill="#545454" d="M500.4,55.9c-0.8,0.1-1.4,0.1-1.2-1.2c0.5,0.2,0.8,0.4,1.2,0.6C500.4,55.5,500.4,55.7,500.4,55.9z"/>
	<path fill="#9C7C6F" d="M349.5,180.7c0.1-0.3,0.1-0.6,0.2-0.9c0.2,0.2,0.5,0.5,0.7,0.7c-0.1,0.1-0.2,0.2-0.3,0.2
		C349.9,180.7,349.7,180.6,349.5,180.7L349.5,180.7z"/>
	<path fill="#9C7C6F" d="M352.1,187.2c-0.2-0.2-0.4-0.5-0.6-0.7C351.7,186.7,351.9,186.9,352.1,187.2z"/>
	<path fill="#9C7C6F" d="M351.5,186.4c-0.2-0.3-0.4-0.6-0.5-0.8C351.1,185.9,351.3,186.2,351.5,186.4z"/>
	<path fill="#B28C7D" d="M345.1,181.4c0.1,0.3,0.2,0.5,0.3,0.8c-0.2,0.1-0.4,0.1-0.6,0.1C344.8,181.9,344.9,181.7,345.1,181.4z"/>
	<path fill="#433F3A" d="M423.5,545.3c-0.2,0.2-0.5,0.4-0.7,0.5C423,545.7,423.3,545.5,423.5,545.3z"/>
	<path fill="#F5DDCE" d="M473.5,140.1c0.9-0.3,1.9-0.7,2.8-1c3.9,2.6,8.4,3,12.4,5.1c-1.6,19.8-0.7,44.9,15.8,58.4
		c-11.8,42-19.3,38.4,1,79.1c-4,3.5-9.4,4.5-13.5,7.6c0,0.6,0.1,1.2,0.1,1.9c6.5,4.8,10.5-1.9,16.6-1.1c1,4.4,1.9,8.9,2.9,13.5
		c-26.9,5.6-54.6,6.9-81.8,2.6c-4.3-14.6,7.3-32.1,12.7-45.9c2.4,1.5,4.5,0.5,7.2-0.3c-2.6-0.4-4.9,0.1-6.8-1.3
		c0.3-0.8,0.5-1.5,0.8-2.3c2.6-0.2,5.1,0.1,7.8-0.2c-2.3-1.9-4.9-0.9-7.2-1.5c5.3-20.2-4.7-30.8-9.4-49.1c3.3,1.4,5.4,2.7,9,1.9
		c-20.9-30.9-8-22.2-7.6-55c2-2,2.8-4.4,5.4-5.6c2.8-1,3.9-4.5,6.5-5.5C456.1,145.4,465.9,143.3,473.5,140.1z M458.2,243.5
		c1.8-0.3,2.1-4.6,2.5-6.9C458.8,237.4,457.7,240.4,458.2,243.5z M461.2,226.8c-0.8,2.5-2.1,4.8-2.3,7.7
		C460.7,233,461.7,229.7,461.2,226.8z M462.3,221.6c-0.2-0.1-0.4-0.2-0.6-0.3c-1,1.9-3.2,3.5-2.8,5.8
		C460.2,225.2,461.8,223.7,462.3,221.6z M458,248.5c0.9-1.2,1.8-2.5,1.2-4.8C457.9,245.3,457.7,246.8,458,248.5z M459.3,250
		c-1.1,1.1-1.8,2.3-1.1,4.1C459.5,252.9,459.6,251.5,459.3,250z M458.2,259.7c1.5-1,1.5-2.1,1-3.8
		C458,257.1,457.7,258.2,458.2,259.7z M458.1,264.6c1.1-0.9,1.1-0.9,0.1-2.2C458.1,263.2,458.1,263.8,458.1,264.6z M456.7,274.5
		c1.2-1.2,1.2-1.2-0.1-1.8C456.6,273.3,456.7,273.8,456.7,274.5z M457.9,266.5c-0.8,1.1-0.9,1.6,0,2.1
		C457.9,267.9,457.9,267.5,457.9,266.5z M460.9,217.5c-0.1-0.1-0.3-0.1-0.4-0.2c-0.3,0.4-0.7,0.8-1.3,1.6
		C460.7,218.7,460.7,218.7,460.9,217.5z M462.2,209.6c0.2-0.1,0.4-0.2,0.6-0.3c-0.2-0.4-0.5-0.2-0.8-0.1
		C462,209.3,462.1,209.4,462.2,209.6z M460.6,213.4c-0.5,0.2-0.4,0.5-0.2,0.9C460.9,214,460.8,213.8,460.6,213.4z"/>
	<path fill="#B18C7D" d="M476.4,139c-0.7,0.3-1.4,0.5-2.1,0.8c-0.3-1-1.1-0.6-1.7-0.4c-7.9,1.8-17,3.8-24.4-0.3
		c-0.5-2.9,0.8-5.7,0.8-8.4c1.1-1.4,1.9-2.2,3.2-3.5c1.4,2.1,2.8,1.4,4,0.2c1,0.5,1.8,0.8,2.4,1.1c2.6-0.8,4.3-1.7,6.3-3.3
		c3.5,0.3,5.6-1.9,7.1-4.9c0.1,0,0.5,0,0.8,0C474,126.1,471.4,133.9,476.4,139z"/>
	<path fill="#967264" d="M470,123.5c-1.4,1.5-3.2,1.5-5,1.6c-2,1.6-3.7,2.5-6.3,3.3c-0.6-0.3-1.4-0.6-2.4-1.1
		c-1.2,1.2-2.6,1.9-4-0.2c-1.3,1.3-2.1,2.1-3.2,3.5c0,2.7-1.3,5.5-0.8,8.4c-1.3-0.7-2.7-1.3-4.2-2.1c2.8-5.4,1.9-11.1,2.1-16.8
		c0.8,0.1,1.5,0.2,2.4,0.2c0.5-0.2,0.8-1.3,1.8-1c0.8,1.8,2.9,1.7,4.2,2.9c0.4-0.5,0.7-0.8,1.1-1.4c1.3,2,3.6,2.4,5.6,3.4
		c1.8-0.4-0.2-1.8,0.9-2.7c1.6,0.3,2.8,1.3,3.7,3c0.8-0.7,1.4-1.2,2-1.8C468.6,122.8,469.3,123.2,470,123.5z"/>
	<path fill="#1E1E1E" d="M480.9,46.1c-0.7-0.2-1.1-0.2-1.5-0.3c0.6-1.7,0.6-1.7,2.4-1.5C481.5,44.8,481.3,45.3,480.9,46.1z"/>
	<path fill="#57453D" d="M468.6,122.9c-0.3,0-0.5-0.1-0.8-0.1c0.2-0.9-0.2-2.1,1.2-2.4C469.8,121.4,468.7,122.1,468.6,122.9z"/>
	<path fill="#859595" d="M503.2,79.2c-1.4,0.2-1.6-0.9-2.3-2.1C502.5,77.4,503,78.2,503.2,79.2L503.2,79.2z"/>
	<path fill="#262828" d="M495.3,81.5c0.6-1.1,1.5-0.7,1,0.4C496,81.8,495.8,81.7,495.3,81.5z"/>
	<path fill="#3A3B3B" d="M419.1,82.8c-0.5-0.9-0.5-1.1,0.4-1.3C420,82,419.5,82.3,419.1,82.8z"/>
	<path fill="#EAA388" d="M428.4,309c27.8,3.2,55.7,1.1,83.4-3.1c5.5,40.6-8.2,80.5-17.2,119.5c4.3,39.9-0.1,80.2-6.4,120
		c-3.1,1.8-8.1,2.7-13.3,2.6c1.8-18.4-1.6-37.5-2-55.9c-0.2-19.9,5.3-39.8,5.9-59.6c-2.3,0.3-2.6,2.5-3.7,4
		c-1.1-0.9-1.2-0.9-1.5,0.7c0.9,1.7,0.2,1.6-0.8,2.9c-1.9-3.7,1.3-8-0.2-11.9c-1.4-6.9,0.4-14.1-1-21c0.4-9.9,4.1-20.1,4-30.3
		c-0.9,0.4-1.6,0.7-2.4,1.1c-9.2-41.8-1.2-27.8,26.3-45.4c0-0.8,0-1.4,0-2c-14.3,8.3-32.1,2.1-41.2-10.8c-1,2.5,1.7,4.7-0.2,6.7
		c0.5,1.2,0.9,2.2,1.2,3.2c-1,0.2-1.9,0.5-2.7,1.2C440.6,330,429.2,328.3,428.4,309z M487.6,435.2c2-1.7-0.7-3.1-0.9-5
		c-0.1-1.1-0.5-2.5-2.4-2.8c-2.4,4-2,8-0.6,11.9c1.3,1.1,2.6,0.6,3.9,0.7c0.7,0.9,1.3,3.9,2.8,2.3
		C490.2,439.8,487.5,437.9,487.6,435.2z M491.3,493.7c0.2,2.9-1.8,5.3-1.4,8.6C491.2,500.3,494.2,494.2,491.3,493.7z M492.9,481
		c0.5-0.9,0.7-1.6-0.5-2.2C491.8,479.8,491.6,480.5,492.9,481z M492.5,487.4c-1.4,1.4-1.4,1.4,0,2.5
		C492.5,489,492.5,488.3,492.5,487.4z M487.4,508.5c1.1-0.4,1.2-1.1,0.4-2.5C487.4,507.1,486.4,507.5,487.4,508.5z M485.2,511.4
		c-0.8,0.4-1.3,0.9-0.9,2.1C485.1,512.9,485.8,512.5,485.2,511.4z"/>
	<path fill="#EAA388" d="M449.5,469.2c4.3,22.7-2.9,44.4-4,66.9c1.1,12,0.6,15.1-12,9.6c0.4-8.9-4-17.5-2.5-26.3
		c2.3,2.6,2.3,6.1,4.9,8.6c0.8-12.8-6.9-24.1-7.7-36.7c-0.5-6.4-1.5-12.7-2-19c0.7-4.2-1.7-30.4,2.7-29.5c0.4-1.7,2.1-3.2,1.1-5
		c-1.7,1.2-1.6,3-2.5,4.3c-1.3-3.2-0.3-7.1-0.6-10.6c0-0.4-0.2-1,0.5-1c0.8,0.8,1.6,1.6,2.3,2.4c-0.4,1.8,1.1,2.4,2.2,3.7
		c4.8-8-7.6-27.3-5.8-39.2c-0.7-14.6-3.4-48.8,6.7-59.4c8.1,1.2,16.4,0,23.5-4.6c1.5,23.3-0.1,46.1-4.9,68.9
		c-0.8,12.9,1.1,26.4-2.8,39c-1.9,0.8-3.1,2.4-1.3,4.2C446.9,453.6,447.7,461.6,449.5,469.2z M441,444.4c0.4,0.4,0.5,1.4,1.5,0.8
		c-0.2-4,2.7-27.2-5.7-17.6C437.7,433.4,437.8,439.3,441,444.4z M443.9,517.6c2,0.1,3.2-3.4,1.1-3.2
		C444.7,515.3,444.3,516.2,443.9,517.6z"/>
	<path fill="#B28C7D" d="M345.9,182.1c2.4,5.4,3.5,12.2,4.3,18.3c2.5,1.7,0.5-2.1,2-2.7c5.9,9.6,2.8,15.3,4.1,25.2
		c-0.8,0.1-1.6,0.2-2.7,0.3c6.6,6,20.4,6.2,28.8,3.2c0.3,0.3,0.6,0.6,0.9,0.8c1.2,3.6,0.1,7.7,2.1,11.2c0.7,0.8,0.4,2.9,1.8,2.6
		c3.3-17.6,11-34.2,15.5-51.7c4.6-0.1,2.9-3.4,3.2-6.5c-0.2-10.5,0-21.4,4.1-31.2c7.5-3.5,16.4-2.8,23.8-6.8
		c1.4,18.7-1.8,39.2-13.7,54.2c-0.9-8.2-0.4-15.1-2.6-23.3c0.6,22.2,0.8,69.5-25.9,73.4c-5.3-5.1-13.6-4.9-20.1-7.8
		c-9.6-2.5-16.5-10.2-24.7-14.9c-1.8-5.2-2.5-10.8-2.9-16.2l0,0c1.8-4.2,0.3-9.7,0.7-14.3c-0.6-1.8-2.6-4.6-0.1-6
		c1.6,5.9,3.3,11.6,2.9,17.8c0.6,0.2,1,0.3,1.5,0.4c0.4,0.9,0.8,1.8,1.4,3.1c0.8-1.5,0.2-2.3-0.4-3.1c-0.4,0-0.7,0-1,0
		C349.6,199.3,343.8,190.9,345.9,182.1z M420.8,149.8c0.5,1.3,1.2,1.8,2.7,1.6C423,150,422.2,149.5,420.8,149.8z M351.2,214.2
		c-0.8,0.5-0.2,2.1,0.7,1.5C351.9,215,352,214.4,351.2,214.2z M397.9,239.9c-0.2,0.4-0.3,0.7-0.4,1
		C398.6,241.4,398.9,240.5,397.9,239.9z M397.7,243.7c-1.1,0.3-1.1,0.3-0.7,1.7C397.4,244.8,397.6,244.4,397.7,243.7z M426.3,150.4
		c-0.6-0.5-0.9-0.9-1.4-0.4C425.2,151,425.4,151,426.3,150.4z M416.9,172.2c-0.2,0.4-0.2,0.7-0.3,1
		C417.6,173.8,417.9,172.8,416.9,172.2z"/>
	<path fill="#D69479" d="M429.9,433.1c-0.8-0.8-1.6-1.6-2.3-2.4c-0.7,0-0.5,0.6-0.5,1c0.2,3.8-0.6,7.7,0.7,11.3
		c-3.1,15.5-1,32.6,0.6,48.4c0.8,12.6,8.5,23.9,7.7,36.7c-2.7-2.5-2.7-6-4.9-8.6c-1.5,8.8,2.8,17.4,2.5,26.3c0.9,0.5,1.8,1,2.7,1.5
		c-2.2,0.2-4.2-0.4-6.2-1.6c-6.9-40.4-10.3-81.1-6.5-121.7c-9.7-38.3-22.7-78.6-16.8-118.4c7.2,1.7,14.6,1.8,21.7,3.5
		c0.8,19.3,12.2,21,28.2,21.9c-6.3,6.5-16.2,5-24.4,5.6c4.2,2.3,8,1.2,12.4,1.5c-3.3,1.3-8.1,0.7-11.7,0.2
		c-10,10.4-7.4,44.9-6.7,59.4c-1.8,12,10.5,31.2,5.8,39.2c-0.6-0.7-1.1-1.1-1.5-1.6C431.9,434.7,431.2,432.6,429.9,433.1z
		 M425.3,486.4c0.8-5.2,0.8-5.2-0.3-6.1C424.8,482.1,423.6,483.9,425.3,486.4z M426.8,494.4c0.4-1.4,0.5-2.6,0-4.1
		C425.3,492.4,425.3,493.2,426.8,494.4z M427.5,496.9c-0.6,1.4-0.9,2.2-0.1,3C428.6,499.1,428.6,499.1,427.5,496.9z M427.9,335
		c2.2,1.2,2.2,1.2,3.1,0.4C430.2,334.9,429.4,334.7,427.9,335z M428,504.8c1.3-1.2,1.3-1.2,0-1.9C428,503.6,428,504.2,428,504.8z
		 M429.4,510.1c-0.9,0.5-0.2,2.1,0.7,1.6C430.1,511.1,430.2,510.3,429.4,510.1z M415.1,330.9c-0.5-0.4-0.9-0.9-1.3-0.3
		C414,331.4,414.2,331.5,415.1,330.9z M423.8,333.1c-0.5,1-0.1,1.2,1,1.1C424.4,333.8,424.2,333.5,423.8,333.1z M417.5,332.6
		c-0.3-0.1-0.6-0.4-0.8,0C417,332.9,417.2,333,417.5,332.6z"/>
	<path fill="#E6CCBB" d="M431.1,182.6c1.4,9.5,8.7,16.1,12.7,24.7c-3.6,0.8-5.7-0.5-9-1.9c4.6,18.3,14.6,29,9.4,49.1
		c2.3,0.6,5-0.4,7.2,1.5c-2.7,0.3-5.2,0-7.8,0.2c-0.3,0.8-0.5,1.6-0.8,2.3c1.9,1.5,4.2,0.9,6.8,1.3c-2.7,0.8-4.8,1.7-7.2,0.3
		c-5.4,13.8-17,31.3-12.7,45.9c-7.6-0.5-15.1-1.6-22.6-2.7c2.7-19.9,18.6-34.5,21.6-54.1c5.8-12-10-37.9-7.9-49.5
		C426.2,195.3,428.1,188.8,431.1,182.6z"/>
	<path fill="#D69479" d="M493.3,333.7c1.8-1.5,4-2.1,6.2-3c0,0.6,0,1.3,0,2c-27.5,17.7-35.5,3.4-26.3,45.4c0.8-0.4,1.5-0.7,2.4-1.1
		c0.1,10.2-3.5,20.4-4,30.3c1.4,6.9-0.4,14,1,21c1.5,3.9-1.8,8.2,0.2,11.9c-0.4,1.3-1.2,2.5-0.4,4.2c0.9-1.3,2-3.2,0.5-4.2
		c1-1.2,1.6-1.1,0.8-2.8c2.7,0.2,2.1-4.7,5.2-4.7c-0.6,19.8-6.1,39.7-5.9,59.6c0.4,18.4,3.9,37.5,2,55.9c-1.2,0.1-2-0.6-2.7-1.6
		c2.7-21.2-6.2-41.5-5-62.6c0.9-12.4,3.8-24.4,3.5-36.9c-3.7-9.8-3.7-20.4-4.2-30.6c0.6-0.8,0.6-1.7,0-2.5
		c0.1-27.7-12.4-54.4-7.8-82.5c6,6.2,21.1,8.9,26.7,4.8c-9.5,0.2-23.4,0.7-27.4-9.6c1.9-2-0.9-4.3,0.2-6.7c9.8,12,15.8,14,30.9,14.6
		c-0.7,0.3-1.3,0.6-2.2,1c1.1,1.1,1.9,0.3,2.8,0c-0.1-0.3-0.1-0.7-0.2-1C490.8,334.2,492,333.9,493.3,333.7c0.2,0.6,0.5,1,1.3,0.2
		C494,333.8,493.6,333.7,493.3,333.7z"/>
	<path fill="#F7EFD0" d="M523.5,558.6c1.5,10.4-11.8,14-20,15c-4.3,2.4-7.7-2.7-11.6-1.3c-3.5,0.9-5.7,4.8-9.6,4.6
		c-6.1-0.1-12.1-0.1-18-1.4c0-0.2,0-0.5,0.1-0.7c0.7-0.3,0.6-0.9,0.5-1.5c0.3-1.1,1.1-2.2,0.7-3.4c2.4-5.1,0.5-11.3,3-16.2l0.3,0
		l0.3-0.1c13.3,8.3,12.1,6.8,22-3.9c0.4-0.3,0.6-0.8-0.2-1c-0.4-1.4-0.2-2.7-0.1-4.3c4.6,2,4.3,6.5,4.5,10.7c1,0,1.6,0,2.6,0
		c0.3,0.9,0.7,1.9,1,2.8c1.3-0.6,1-1.8,1.2-2.8c0.4-0.2,0.9-0.5,1.3-0.7c0.3,1.3,0.7,2.6,1,4c1.6-0.3,1.4-2,2.6-2.7
		c1,0.6,1.8,1.9,2.3,2.9c1.7-0.3,0.8-1.6,1.5-2.5c3.7,0,7.6,0,12,0C521.8,556.7,522.7,557.7,523.5,558.6z"/>
	<path fill="#F7EFD0" d="M424.8,545.7c0.6-0.3,1.2-0.7,1.8-1.1c1,1.2,0.3,3.4,0,4.7c9.7,10.8,8.8,12.5,22.2,4.2
		c0.2,0.1,0.5,0.1,0.7,0.1c1.8,1.8,0.2,4.4,1.5,6.4c1,2.9-1.8,8.3,1.6,9.6c-0.1-2.4-0.2-4.6-0.2-6.8c0.3-0.3,0.5-0.5,0.8-0.8
		c0.4,4.8,5.3,9.5,3.7,14.1c-1.9-1.7-1.3-4.3-3.6-5.8c0.3,2.2,0.9,4.1,0.4,6.1c-11.4,3.2-22-1-32.8-4.2c-11.5,2.3-18.7-4-25.5-12.3
		c-0.7-7.3,9.4-3.3,13.8-4.1c0.2,0.8,0.4,1.6,0.5,2.3c2.3,0.5,1.5-2.6,3.5-2.6c0.5,0.8,1.1,1.7,1.7,2.7c2.2-1.1,0.3-3.9,2.5-5.1
		c0.8,1.5-0.1,3.3,1.5,4.8c0.4-1,0.6-1.8,1-2.8c0.7,0.3,1.3,0.7,2.1,1.1C422.4,552.7,422.6,548.6,424.8,545.7z"/>
	<path fill="#977164" d="M548.2,267.3c-10,10.9-13.1,30.4-29.7,32.4c-1.8-0.4-3,0.9-4.6,1.7c-1.9-3-1.7-6.5-2.8-10.2
		c5,0.7,10.5,4.6,14.5,0.4c-5.5,0.8-11-0.8-15.9-2.9c-5.5-2.1-9.9,5-15.2,2c3.1-0.7,6.3-0.9,9.3-2.4c6.7-4,14.2,5.2,20.9,0.1
		c0.5-0.3,1-0.5,1.5-0.9c1.4-1.1,2.9,0.3,4.4-0.2c0.3-0.1,0.8,0.6,1.3,0.9c1.7-2.2,3.1-4.6,4.1-7.1c-0.2-0.4-0.3-0.7-0.4-1.1
		c0.5-0.5,0.9-1,1.4-1.4c1.8,1.5,2.2,0.1,2.1-1.4l0,0c4.1-9.7,11.2-17.5,16.7-26.3c3.3-6.8,6.9-14,13-18.7
		C564.2,244.7,554.1,255.3,548.2,267.3z M529.7,289.2c-1.3-0.5-3,0.2-2.1,1.6C528.3,290.2,529,289.7,529.7,289.2z"/>
	<path fill="#151210" d="M466.6,416.4c-1.3,17.9,8.1,35,2.1,52.8c-0.3-1.4,0.6-3.6-0.9-4.4c2.6-11.1-0.1-21.5-2-32.4
		c1-1.2,1-2.4,0-3.5c0.3-7.6-0.9-16.1,0.6-23.2C466.5,409.2,466.6,412.8,466.6,416.4z"/>
	<path fill="#AB8678" d="M488.2,547.8c-0.3,4.9-4,7.9-8.1,9.8c-1.7-0.8-3-1.6-4.6-2.9c0.3-1.4,0.6-2.9,0.9-4.3
		C480.4,549.5,484.1,548.7,488.2,547.8z"/>
	<path fill="#161211" d="M451.8,435.4c-2.2,9.8-3.3,19.3-1.4,29.3c-1.5,0.9-0.6,3.1-0.9,4.5c-4.4-13.5-0.6-26.3,1.5-39.7
		C452.4,430.9,451.4,433.6,451.8,435.4z"/>
	<path fill="#AB8678" d="M443.2,554.3c-1.5,1.5-3.4,2.4-5.4,3.4c-0.8-0.6-1.6-1.2-2.4-1.8c0.2-2.2-0.5-4.7,0.9-6.6
		C442.9,550.4,440.7,549,443.2,554.3L443.2,554.3z"/>
	<path fill="#241816" d="M494.6,290.8c5.3,3.2,10.5-4.9,15.7-1.5c-0.6,0.1-1.3,0-1.5,0.8c-6.1-0.7-10.1,5.9-16.6,1.1
		c0-0.7-0.1-1.4-0.1-1.9c3.5-2.7,8.2-3.5,11.8-6.3c0.3,0.3,0.5,0.5,0.8,0.8c-3.1,3.5-7.7,4.4-12,6.3
		C493.8,290.4,494.2,290.6,494.6,290.8z"/>
	<path fill="#2D2C28" d="M456.5,571.4c-3.3-5.6-3.9-12-4.3-18.4c0.3-0.3,0.5-0.5,0.8-0.8c2.1,5.8,1.7,12.4,4.3,18.3
		C457.1,570.8,456.8,571.1,456.5,571.4z"/>
	<path fill="#8D6C5E" d="M436.2,549.3c-1.4,1.9-0.6,4.4-0.9,6.6c-3-1.9-4.9-4.5-5.6-8.4C432.2,548.7,434.1,548.2,436.2,549.3z"/>
	<path fill="#120E0D" d="M417.9,197.6c0.2-7.5-1.1-14.3-0.5-21.8c1,5.2,2.4,9.9,1.8,14.8C417.4,192.3,419.6,195.6,417.9,197.6z"/>
	<path fill="#29221F" d="M427,191.3c-0.7,3.8-3.8,5.7-6.1,8.5c-0.4-0.1-0.9-0.2-1.5-0.3c-0.3-2.1-0.3-4.2-0.1-6.2
		c0.8,2,0.5,3.4,0.7,5.8c2.8-3.1,4.5-6,6.2-9.2C426.3,190.4,426.3,191.1,427,191.3z"/>
	<path fill="#B4B396" d="M469.4,553.5c-5.2-0.1-1.4,7.1-3.5,10c-0.3-0.5-0.5-1-0.8-1.5c0.2-2.9,0.5-5.9,0.7-9c1-0.1,1.9-0.2,2.8-0.3
		C468.9,553.1,469.1,553.3,469.4,553.5z"/>
	<path fill="#A68274" d="M443.3,554.4c0-1.3,0-2.5,0-3.9c0.8-0.4,1.5-0.7,2.4-1.2c0.3,0.9,0.6,1.8,0.9,2.6
		C445.6,553.1,444.5,553.8,443.3,554.4L443.3,554.4z"/>
	<path fill="#8D6A5D" d="M474.8,550.4c0,1.3,0,2.4,0,3.9c-1.1-0.7-2.1-1.3-3.1-1.9c0.2-1,0.4-1.8,0.5-2.6
		C473.2,549.2,473.8,550,474.8,550.4z"/>
	<path fill="#BCBEA6" d="M452.3,553c0.3,3,0.5,6.1,0.8,9.1c-0.3,0.3-0.5,0.5-0.8,0.8c-2.3-2.5,1.8-9.7-3.5-9.4
		C449.8,552.4,451.1,553.1,452.3,553z"/>
	<path fill="#EADCB7" d="M395.3,557.9c0,0.7,0,1.4,0,2.2c6.8,8.3,13.9,14.5,25.5,12.3c10.8,3.2,21.4,7.4,32.8,4.2
		c0.1-0.6,0.2-1.2,0.2-1.9c0.4,0.7,0.7,1.4,1.1,2.1c0.1,0,0.3-0.1,0.4-0.1c0-0.9,0-1.7,0-2.6c0.4,0.8,0.9,1.5,1.4,2.2
		c-0.4,0.5-0.9,1.1-1.3,1.6c-13,5.1-23.6-0.8-36.1-1.7C408.8,577.8,391.2,571.3,395.3,557.9z"/>
	<path fill="#EADCB7" d="M465.1,562.1c0.3,0.5,0.5,1,0.8,1.5c-0.1,4.4-3.4,9.2-2.4,13.2c0.4-0.5,0.6-0.9,0.9-1.3
		c5.9,1.3,11.9,1.4,18,1.4c3.8,0.2,6-3.7,9.6-4.6c12.5,2.2,19.4,2.3,30.3-6.7c-3,8.8-15,11.5-23.5,10.6c-12.6,0.8-25.3,7.5-37.8,0.7
		C460.6,571.7,463.6,567,465.1,562.1z"/>
	<path fill="#433F3A" d="M424.7,545.8c-0.2,0.2-0.4,0.4-0.6,0.6C424.3,546.2,424.5,546,424.7,545.8z"/>
	<path fill="#B28C7D" d="M494.6,290.8c-0.4-0.2-0.8-0.3-1.9-0.8c9.7-4,17.9-9.4,28.7-10.5c12.6-12.7,18.6-31.6,25.4-48.1
		c1.4-0.7,0.3-2.2,1.3-3.5c2.1-0.6,4.4-1.4,7-2.2c3.2,1.3,6.6,2.2,10.3,2.8c0.4-0.4,0.8-0.9,1.2-1.4c-9.7-5.3-22.7-12.3-31-21.8
		c1.7,0.2,3.2,0.4,4.6,0.7c1.6,0.3,3.1-1.3,4.7,0c1-0.8,1.8-1.5,2.9-2.3c-18.9-9.8-19.3-4.8-33.6-23.1c-4.6,2-6.4,15.4-9.2,19.7
		c-14.2-11.2-17.1-38.8-14.4-55.6c0.1,0.1,0.2,0.1,0.4,0c9.5,4.2,22.1,1.9,30.1,9.7c9.8,7.1,11,20,18.9,28.3
		c11.7,10.8,19.9,24.6,28.1,38.1c2.4,4.8,3,4.4,0.7,11.2c-6.1,4.7-9.7,11.9-13,18.7c-5.5,8.8-12.6,16.6-16.7,26.3
		c-0.1-0.4-0.2-0.8-0.4-1.6c-0.5,0.5-0.7,0.8-1.2,1.2c0.8,0.2,1.2,0.2,1.6,0.3c0.1,1.5-0.4,2.9-2.1,1.4c-0.5-1.7-3.1,1-1.4,1.4
		c0.1,0.3,0.3,0.6,0.4,1.1c-1,2.5-2.4,4.9-4.1,7.1c-0.5-0.4-1.1-1-1.3-0.9c-1.4,0.6-3-0.9-4.4,0.2c-0.4,0.4-1,0.6-1.5,0.9
		c-6.7,5.1-14.2-4.2-20.9-0.1C500.9,289.9,497.7,290.1,494.6,290.8z M513.5,155.5c-1.1-1.3-1.4-3.6-3-2.5
		C510.9,154,511.3,155.1,513.5,155.5z M530.3,177.1c0.5-0.9,0.2-1.4-0.9-1.8C529.1,176.1,528.9,176.9,530.3,177.1z M514.3,155.5
		c0.5,1.3,0.3,1.2,1.6,1.7C515.7,155.8,515.8,155.6,514.3,155.5z M533.4,177.9c0.1-1.5,0.4-1.6-0.6-2.1
		C532.2,176.8,532.6,176.8,533.4,177.9z M524.9,176.6c0.4-0.3,0.6-0.4,0.7-0.5C524.8,174.7,523.9,175.2,524.9,176.6z M513.1,175
		c-0.6-0.4-1-0.8-1.3-0.1C512.1,175.8,512.3,175.7,513.1,175z M511.7,179.8c0.9-0.5,1.1-1.1,0.7-1.9c-0.3,0-0.4,0-0.7,0.1
		C511.7,178.6,511.7,179.2,511.7,179.8z M532.2,283.9c0.8,0.5,1.5,0,1.1-0.7C532.9,283.4,532.5,283.7,532.2,283.9z"/>
	<path fill="#050404" d="M546.8,231.5c-3.3,8.2-6.5,16.5-10,24.6c-0.2-0.3-0.5-0.6-0.7-0.9c0.5-10.7,10.6-19.7,8.4-30.2
		c-11-11.2-23.2-23.1-33.9-34.1c-5.5,15.9-9.4,32.8-15.3,48.8c-3.5,15.1,7,27.9,12.4,41.2c5.1-1.2,10.1-1.9,15-3.7
		c0.3,0.3,0.6,0.5,0.9,0.8c-5.2,3.7-13,3-18.9,5.7c-0.3-0.3-0.5-0.5-0.8-0.8c0.6-0.4,1.1-0.8,1.7-1.3c-20.3-40.7-12.8-37.2-1-79.1
		c-16.5-13.6-17.3-38.6-15.8-58.4c0.6,0.2,1.2,0.5,1.8,0.7c-2.7,16.8,0.2,44.3,14.4,55.6c2.8-6,4.1-12.5,7.3-18.3
		c2,1.9-0.3,4.7-0.7,6.7c11.1,12.6,23.9,23.2,35.2,35.6C546.8,226.8,546.8,229.1,546.8,231.5z"/>
	<path fill="#050404" d="M492.5,145.5c-0.5-0.2-1.1-0.5-1.6-0.7C491.6,144.8,492.3,144.7,492.5,145.5z"/>
	<path fill="#4D3831" d="M376.5,245.2c0.6-0.5,1,0,1.6,0.2c-0.1,0.3-0.2,0.5-0.3,0.8C377.3,245.8,376.7,245.9,376.5,245.2z"/>
	<path fill="#543A33" d="M346.6,226.5c0.2,0,0.4,0.1,0.6,0.1C347.6,228.4,345.3,228,346.6,226.5z"/>
	<path fill="#977264" d="M383.3,227.2c-0.3-0.3-0.6-0.6-0.9-0.8c1.7-1.3,1.7-1.3,3.3-0.8c4.1-3.7,5-10.7,7.1-15.9
		c1.9-7.3,6.4-14.4,6.6-22c2.6-11.7-0.7-28.7,10.6-36.1c-4.1,9.9-4.3,20.7-4.1,31.2c-0.3,3,1.4,6.3-3.2,6.5
		c-4.4,17.5-12.2,34.1-15.5,51.7c-1.4,0.3-1.2-1.8-1.8-2.6c-2.2-3.2-0.4-7.2-2.1-10.5c0.6-0.1,1.5,0.1,1.2-1.2
		C384.1,227,383.7,227.1,383.3,227.2z"/>
	<path fill="#E3CBBA" d="M448.1,141.2c-2.6,1-3.7,4.5-6.5,5.5c-2.6,1.2-3.5,3.6-5.4,5.6c-0.5,4,1.1,9.3-0.7,12.9
		c-0.1-6.8,0.8-13.7-0.7-20.4l0,0c0.2-0.3,0.4-0.5,0.6-0.8c3.2-1,5.6-3.2,7.6-5.8C444.9,139,446.6,140,448.1,141.2z"/>
	<path fill="#100D0C" d="M434.8,144.8c2.5,15.8-0.2,32.4-7.8,46.5c-1.8-2.8,2.2-7.3,2.6-10.6c4.3-11.4,5.3-23.8,4.2-35.8
		C434.1,144.8,434.5,144.8,434.8,144.8z"/>
	<path fill="#B18C7D" d="M472.1,140.6c-0.3,0.6-0.8,0.7-1.4,0.6C471,140.6,471.5,140.5,472.1,140.6z"/>
	<path fill="#100D0C" d="M433.6,144.9c-0.3,0.2-0.6,0.3-1,0.5C433,145.2,433.3,145,433.6,144.9z"/>
	<path fill="#100D0C" d="M435.3,144.1c-0.2,0.3-0.4,0.5-0.6,0.8C435,144.6,435.2,144.3,435.3,144.1z"/>
	<path fill="#B18C7D" d="M473.5,140.1c-0.2,0.1-0.5,0.3-0.7,0.4C473.1,140.3,473.3,140.2,473.5,140.1z"/>
	<path fill="#B1B19A" d="M498.2,555c-0.5,0-0.9,0-1.4,0c0.1-1.7,0.2-3.5,0.2-5.7C498.6,551.3,498.1,552.8,498.2,555z"/>
	<path fill="#98A48E" d="M501.7,554.3c-0.4,0.2-0.9,0.5-1.3,0.7c0-0.6,0-1.3,0-1.9C501.5,553,501.8,553.5,501.7,554.3z"/>
	<path fill="#977264" d="M343.9,194.8c0.9,4.6,1.3,11.1-0.2,15.5C342.9,205.2,344.3,200,343.9,194.8z"/>
	<path fill="#9C7C6F" d="M352.2,197.7c-1.5,0.7,0.5,4.4-2,2.7c3.8-5.9-5.2-15.9-1.9-21.6c0.4,0.7,0.8,1.3,1.2,1.9l0,0
		c0.1,1.2-0.5,2.6,0.7,3.6l0,0C350.9,188.7,351.6,193.2,352.2,197.7z"/>
	<path fill="#251F1C" d="M350.2,184.3c-1.2-1-0.7-2.3-0.7-3.6c0.2-0.1,0.4,0,0.6,0.1C350.1,182,350.1,183.1,350.2,184.3z"/>
	<path fill="#282220" d="M458.2,243.5c-0.5-3.1,0.5-6.1,2.5-6.9C460.3,238.9,460.1,243.2,458.2,243.5z"/>
	<path fill="#473E3B" d="M461.2,226.8c0.5,2.9-0.5,6.2-2.3,7.7C459.1,231.6,460.3,229.3,461.2,226.8z"/>
	<path fill="#5B514C" d="M462.3,221.6c-0.5,2.1-2.1,3.6-3.5,5.4c-0.4-2.3,1.9-3.9,2.8-5.8C461.9,221.3,462.1,221.5,462.3,221.6z"/>
	<path fill="#2E2422" d="M458,248.5c-0.3-1.7,0-3.2,1.2-4.8C459.8,246,458.9,247.3,458,248.5z"/>
	<path fill="#38332F" d="M459.3,250c0.3,1.5,0.3,2.9-1.1,4.1C457.5,252.4,458.2,251.1,459.3,250z"/>
	<path fill="#4E4743" d="M458.2,259.7c-0.5-1.5-0.2-2.6,1-3.8C459.7,257.6,459.7,258.7,458.2,259.7z"/>
	<path fill="#4B423E" d="M458.1,264.6c0-0.7,0.1-1.3,0.1-2.2C459.2,263.7,459.2,263.7,458.1,264.6z"/>
	<path fill="#786762" d="M456.7,274.5c-0.1-0.7-0.1-1.2-0.1-1.8C457.9,273.2,457.9,273.2,456.7,274.5z"/>
	<path fill="#635A54" d="M457.9,266.5c0,1,0,1.5,0,2.1C457,268.1,457.1,267.6,457.9,266.5z"/>
	<path fill="#443935" d="M460.9,217.5c-0.3,1.1-0.2,1.1-1.7,1.4c0.7-0.8,1-1.2,1.3-1.6C460.7,217.4,460.8,217.4,460.9,217.5z"/>
	<path fill="#988077" d="M462.2,209.6c-0.1-0.1-0.2-0.3-0.3-0.4c0.3-0.1,0.7-0.3,0.8,0.1C462.6,209.4,462.4,209.5,462.2,209.6z"/>
	<path fill="#72645E" d="M460.6,213.4c0.2,0.4,0.3,0.7-0.2,0.9C460.1,213.8,460.1,213.6,460.6,213.4z"/>
	<path fill="#0D0908" d="M459.3,329.7c7,6.7,17,6.9,26.2,6.5c-5.7,4-20.7,1.3-26.7-4.8c-3.6,24.5,4.3,48.2,7.6,72.1
		c-0.4-0.2-0.9-0.5-1.3-0.7c-2.3-10.8-4.4-21.4-6.7-32.1c-0.9,1.7-1,2.9-1.1,4.6c-1.5-13.1,0.3-27.9-0.8-41.6
		c-7.2,4.6-16.3,5.9-24.3,2.8C443,336.6,450.5,336.1,459.3,329.7z"/>
	<path fill="#D69479" d="M487.6,440.1c-1.2-0.1-2.6,0.4-3.9-0.7c-1.4-3.9-1.8-7.9,0.6-11.9c3.1,0.7,2,4,3.9,5.7
		c-1.4-0.6-2,1.6-0.6,2.1c-0.1,1,0.2,1.9,0.7,2.7C487.3,438.4,487.7,439.4,487.6,440.1z"/>
	<path fill="#412F29" d="M491.3,493.7c2.9,0.5-0.1,6.6-1.4,8.6C489.5,498.9,491.5,496.6,491.3,493.7z"/>
	<path fill="#3C2721" d="M487.6,440.1c0.1-0.8-0.4-1.7,0.7-2.1c1.3,1.3,1.6,2.9,2.1,4.4C488.9,444,488.4,441,487.6,440.1z"/>
	<path fill="#725246" d="M492.9,481c-1.3-0.5-1.1-1.2-0.5-2.2C493.6,479.4,493.4,480.1,492.9,481z"/>
	<path fill="#2F1C16" d="M489.6,334.5c0,0.3,0.1,0.6,0.2,1c-0.9,0.4-1.7,1.1-2.8,0c0.9-0.4,1.5-0.7,2.2-1
		C489.3,334.5,489.4,334.6,489.6,334.5z"/>
	<path fill="#62473B" d="M487.6,435.2c-1.4-0.5-0.8-2.7,0.6-2.1C488.3,434,488.4,434.7,487.6,435.2z"/>
	<path fill="#221513" d="M492.5,487.4c0,0.9,0,1.6,0,2.5C491.1,488.8,491.1,488.8,492.5,487.4z"/>
	<path fill="#4E372F" d="M487.4,508.5c-1-1,0-1.4,0.4-2.5C488.6,507.4,488.5,508.1,487.4,508.5z"/>
	<path fill="#7E5244" d="M475.1,436.6c-0.3,0.8-0.9,0.8-1.5,0.7C473.9,435.7,474,435.6,475.1,436.6z"/>
	<path fill="#452F29" d="M485.2,511.4c0.6,1.1-0.1,1.5-0.9,2.1C483.9,512.3,484.4,511.8,485.2,511.4z"/>
	<path fill="#1D1918" d="M456.5,373.7c0.2,0.6,0,1.3,0.8,1.6c-0.2,7.8-1.7,15.3-3.6,22.8c-1.7,12.4,0.3,25.2-2,37.4
		c-0.4-1.8,0.7-4.5-0.8-5.9C450.8,410.7,452.6,392.1,456.5,373.7z"/>
	<path fill="#D59378" d="M442.4,438.6c0,1,0,2,0,3c-0.4,0-0.8,0-1.5,0c0,1,0,1.9,0,2.8c-3.3-5-3.3-11-4.2-16.7
		c1.8-4.4,6.3-1.6,5.7,2.3c-0.6,2.8,1.9,5.6-0.1,8.1c-0.5-0.7-1-1.4-1.7-2.3c-0.3,1.6-0.3,1.6,0.6,2.9
		C441.8,438.7,442.1,438.6,442.4,438.6z M440.7,429.6c-1.3,1.6-0.9,2.1,0.3,2.5C440.9,431.4,440.8,430.9,440.7,429.6z"/>
	<path fill="#3C2721" d="M427.7,442.9c0-0.2-0.1-0.5-0.1-0.7c0.9-1.3,0.8-3.1,2.5-4.3c1,1.8-0.6,3.4-1.1,5
		C428.4,442.9,428.1,442.9,427.7,442.9z"/>
	<path fill="#261D18" d="M441,444.4c0-0.9,0-1.8,0-2.8c0.6,0,1,0,1.5,0c0,1.2,0,2.4,0,3.6C441.5,445.7,441.4,444.8,441,444.4z"/>
	<path fill="#64453B" d="M443.9,517.6c0.5-1.4,0.8-2.3,1.1-3.2C447.1,514.1,445.9,517.7,443.9,517.6z"/>
	<path fill="#2A1A15" d="M442.4,438.6c-0.3,0-0.7,0.1-1,0.1c-1-1.4-1-1.4-0.6-2.9c0.6,0.9,1.2,1.6,1.7,2.3
		C442.4,438.3,442.4,438.4,442.4,438.6z"/>
	<path fill="#A9705E" d="M448.8,441.5c-0.2,1.1-0.5,2.3-0.7,3.4c-0.7-0.7-0.7-1.6-0.8-2.5C447.8,442.1,448.3,441.8,448.8,441.5z"/>
	<path fill="#61473B" d="M429.9,433.1c1.4-0.5,2.1,1.6,0.7,2.1C429.7,434.7,429.8,433.9,429.9,433.1z"/>
	<path fill="#301B17" d="M447.3,442.4c0,0.9,0.1,1.8,0.8,2.5c-0.2,0.3-0.4,0.6-0.6,0.9C446.3,444.3,446.3,443.7,447.3,442.4z"/>
	<path fill="#4E3C36" d="M420.8,149.8c1.4-0.3,2.2,0.1,2.7,1.6C422,151.7,421.3,151.1,420.8,149.8z"/>
	<path fill="#1F1613" d="M348.7,208.2c0.3,0,0.7,0,1,0c0.5,0.8,1.2,1.6,0.4,3.1C349.5,210,349.1,209.1,348.7,208.2L348.7,208.2z"/>
	<path fill="#85665B" d="M351.2,214.2c0.7,0.2,0.7,0.8,0.7,1.5C351.1,216.3,350.4,214.7,351.2,214.2z"/>
	<path fill="#675048" d="M397.9,239.9c1.1,0.6,0.7,1.6-0.4,1C397.6,240.6,397.7,240.3,397.9,239.9z"/>
	<path fill="#2B221E" d="M397.7,243.7c0,0.7-0.2,1.1-0.7,1.7C396.6,244,396.6,244,397.7,243.7z"/>
	<path fill="#594840" d="M426.3,150.4c-0.9,0.6-1.1,0.5-1.4-0.4C425.4,149.5,425.8,150,426.3,150.4z"/>
	<path fill="#6E564D" d="M416.9,172.2c1.1,0.6,0.8,1.6-0.3,1C416.6,172.9,416.7,172.6,416.9,172.2z"/>
	<path fill="#4A332E" d="M383.3,227.2c0.4-0.1,0.8-0.3,1.2-0.4c0.3,1.2-0.6,1.1-1.2,1.2C383.3,227.7,383.3,227.5,383.3,227.2z"/>
	<path fill="#080605" d="M425.3,486.4c-1.6-2.5-0.5-4.2-0.3-6.1C426.1,481.2,426.1,481.2,425.3,486.4z"/>
	<path fill="#1C110E" d="M426.8,494.4c-1.5-1.2-1.5-2,0-4.1C427.2,491.8,427.2,493,426.8,494.4z"/>
	<path fill="#55372E" d="M427.5,496.9c1.1,2.2,1.1,2.2-0.1,3C426.6,499.1,427,498.3,427.5,496.9z"/>
	<path fill="#301C16" d="M427.9,335c1.5-0.2,2.3-0.1,3.1,0.4C430.1,336.2,430.1,336.2,427.9,335z"/>
	<path fill="#815747" d="M428,504.8c0-0.6,0-1.2,0-1.9C429.2,503.7,429.2,503.7,428,504.8z"/>
	<path fill="#6F4F41" d="M429.4,510.1c0.7,0.2,0.7,0.9,0.7,1.6C429.3,512.3,428.6,510.6,429.4,510.1z"/>
	<path fill="#A3745F" d="M415.1,330.9c-0.9,0.6-1.1,0.5-1.3-0.3C414.2,330,414.5,330.5,415.1,330.9z"/>
	<path fill="#94604E" d="M423.8,333.1c0.3,0.4,0.6,0.6,1,1.1C423.7,334.4,423.4,334.2,423.8,333.1z"/>
	<path fill="#8D604F" d="M417.5,332.6c-0.3,0.4-0.5,0.3-0.8,0C417,332.2,417.2,332.5,417.5,332.6z"/>
	<path fill="#2F2A28" d="M465.1,402.8c0.4,0.2,0.9,0.5,1.3,0.7c-1.1,6.6-0.3,13.8-0.7,20.7C464.7,417.1,465.3,409.9,465.1,402.8z"/>
	<path fill="#2F2A28" d="M465.8,428.9c1,1.2,1,2.3,0,3.5C465.8,431.2,465.8,430,465.8,428.9z"/>
	<path fill="#2F2A28" d="M467.1,427.4c-1.4-2.7-0.2-6.3-0.5-9.4C467.6,421,466.8,424.4,467.1,427.4z"/>
	<path fill="#583C31" d="M472.8,440.1c1.6,1,0.5,2.9-0.5,4.2C471.6,442.6,472.3,441.4,472.8,440.1z"/>
	<path fill="#2F2A28" d="M466.6,416.4c0-0.8,0-1.7,0-2.5C467.2,414.7,467.2,415.5,466.6,416.4z"/>
	<path fill="#835748" d="M493.3,333.7c0.4,0.1,0.8,0.1,1.3,0.2C493.8,334.6,493.5,334.3,493.3,333.7L493.3,333.7z"/>
	<path fill="#3B3A33" d="M465,568.3c0.3-3.1,1.7-6,1.6-9.1c0.2,0,0.5,0,0.7,0c0,3.6-0.4,7.1-1.6,10.5
		C465.5,569.3,465.2,568.8,465,568.3z"/>
	<path fill="#6C695A" d="M465,568.3c1.7,2.6-0.2,5.9-1.5,8.4c-0.9-0.8-0.4-1.8-0.1-2.8C464.5,572.2,464.1,570.1,465,568.3z"/>
	<path fill="#6B5347" d="M466.6,555.1c0.2-1.2,1-1.6,2.1-1.5c-1.4,1.6-0.9,3.7-1.4,5.6l-0.3,0C467.1,557.9,467.6,556.4,466.6,555.1z
		"/>
	<path fill="#EADCB7" d="M464.5,574.8c0.2-0.5,0.3-1,0.5-1.5C465.1,573.8,465.2,574.4,464.5,574.8z"/>
	<path fill="#57554A" d="M451.6,562.1c0.2,0.3,0.4,0.6,0.7,0.8c0.1,2.2,0.1,4.4,0.2,6.8c-3.1-0.9-0.9-5.2-1.5-7.6
		C451.2,562.1,451.5,562.1,451.6,562.1z"/>
	<path fill="#4D493F" d="M455.3,574c0,0.9,0,1.7,0,2.6c-0.1,0-0.3,0.1-0.4,0.1c-1.3-2-1.4-3.9-1.7-6.3
		C454.9,571.3,454.5,573,455.3,574z"/>
	<path fill="#6C554A" d="M449.4,553.6c3.7-0.2,0.9,4.3,1.5,6.4C449.6,558.1,451.2,555.5,449.4,553.6z"/>
	<path fill="#33312A" d="M450.9,560c0.1-1.7-0.1-3.4,0.6-4.9c0,2.3,0.1,4.6,0.1,6.9c-0.1,0-0.4,0-0.6,0
		C451,561.4,450.9,560.7,450.9,560z"/>
	<path fill="#553E37" d="M529.7,289.2c-0.7,0.5-1.4,1-2.1,1.6C526.7,289.4,528.4,288.7,529.7,289.2z"/>
	<path fill="#402F2A" d="M535.4,278.7c0.8-0.9,0.9-0.9,1.5,0c-0.5,0.5-0.9,1-1.4,1.4l0,0C535.5,279.6,535.5,279.2,535.4,278.7z"/>
	<path fill="#312F28" d="M466.6,555.1c1,1.3,0.4,2.7,0.4,4.1c-0.1,0-0.3,0-0.4,0C466.6,557.9,466.6,556.5,466.6,555.1z"/>
	<path fill="#977264" d="M546.8,231.5c0-2.3,0-4.7,0-7.1c-11.4-12.3-24.1-23-35.2-35.6c0.4-2.1,2.7-4.9,0.7-6.7
		c0.4-0.8,0.9-1.3,1.9-1.3c14.3,18.3,14.7,13.3,33.6,23.1c-1,0.8-1.9,1.5-2.9,2.3c-1.5-1.3-3.1,0.3-4.7,0c-1.4-0.3-2.8-0.4-4.6-0.7
		c6.1,5.6,11.9,10.9,18.3,15.5c0.1,0.4,0.3,0.8,0.4,1.2c0.4-0.2,0.7-0.4,1.1-0.6c5.2,1.7,9.1,3.7,11.2,5.7c-0.4,0.5-0.8,1-1.2,1.4
		c-3.7-0.6-7.1-1.5-10.3-2.8c-2.5,0.8-4.9,1.5-7,2.2C547.2,229.3,548.2,230.8,546.8,231.5z M556.1,223.8c1.2,2.1,2.9,2.4,4.7,2.4
		C561.5,224.7,557.4,222.9,556.1,223.8z M528.2,197.9c2.3,2.3,2.7,2.5,5,2.8C531.8,198.6,530,197.7,528.2,197.9z M540.2,202.9
		c-0.3-0.1-0.6-0.4-0.8,0C539.6,203.3,539.8,203.2,540.2,202.9z M543.4,203.4c-0.2,0.1-0.3,0.2-0.4,0.3c0.2,0.4,0.5,0.1,0.8,0
		C543.6,203.6,543.5,203.5,543.4,203.4z"/>
	<path fill="#191413" d="M523.6,278c-0.3-0.3-0.6-0.5-0.9-0.8c4-7.6,8.5-15.1,13.4-22c0.2,0.3,0.5,0.6,0.7,0.9
		C533.1,263.8,528,270.7,523.6,278z"/>
	<path fill="#322521" d="M513.5,155.5c-2.2-0.4-2.5-1.5-3-2.5C512.1,151.9,512.3,154.2,513.5,155.5z"/>
	<path fill="#45342E" d="M530.3,177.1c-1.4-0.2-1.1-1-0.9-1.8C530.5,175.7,530.8,176.2,530.3,177.1z"/>
	<path fill="#4D3C36" d="M514.3,155.5c1.5,0.1,1.4,0.3,1.6,1.7C514.6,156.7,514.8,156.8,514.3,155.5z"/>
	<path fill="#140908" d="M533.4,177.9c-0.8-1.2-1.1-1.1-0.6-2.1C533.8,176.4,533.5,176.5,533.4,177.9z"/>
	<path fill="#64463E" d="M555.4,221.6c-0.4,0.2-0.7,0.4-1.1,0.6c-0.1-0.4-0.3-0.8-0.4-1.2C554.5,221.2,555,221.4,555.4,221.6z"/>
	<path fill="#342622" d="M524.9,176.6c-0.9-1.3,0-1.9,0.7-0.5C525.4,176.2,525.3,176.3,524.9,176.6z"/>
	<path fill="#634D45" d="M513.1,175c-0.8,0.6-1.1,0.8-1.3-0.1C512.1,174.2,512.5,174.7,513.1,175z"/>
	<path fill="#977164" d="M539.1,277.3c-0.4-0.1-0.8-0.2-1.6-0.3c0.5-0.5,0.7-0.7,1.2-1.2C538.9,276.5,539,276.9,539.1,277.3
		L539.1,277.3z"/>
	<path fill="#251F1B" d="M511.7,179.8c0-0.7,0-1.2,0-1.8c0.3,0,0.4,0,0.7-0.1C512.8,178.7,512.6,179.3,511.7,179.8z"/>
	<path fill="#3E2F2B" d="M532.2,283.9c0.3-0.2,0.7-0.4,1.1-0.7C533.7,283.9,533,284.4,532.2,283.9z"/>
	<path fill="#977164" d="M535.4,278.7c0,0.5,0.1,0.9,0.1,1.4C534.7,279.7,534.7,279.2,535.4,278.7z"/>
	<path fill="#583B30" d="M440.7,429.6c0.2,1.2,0.2,1.8,0.3,2.5C439.8,431.7,439.4,431.2,440.7,429.6z"/>
	<path fill="#281E1A" d="M556.1,223.8c1.4-0.9,5.4,0.9,4.7,2.4C558.9,226.2,557.3,225.9,556.1,223.8z"/>
	<path fill="#31231F" d="M528.2,197.9c1.9-0.3,3.6,0.7,5,2.8C530.8,200.5,530.4,200.2,528.2,197.9z"/>
	<path fill="#33231E" d="M540.2,202.9c-0.3,0.3-0.6,0.4-0.8,0C539.6,202.4,539.9,202.8,540.2,202.9z"/>
	<path fill="#553731" d="M543.4,203.4c0.1,0.1,0.2,0.2,0.3,0.4c-0.3,0.1-0.6,0.3-0.8,0C543.1,203.6,543.2,203.5,543.4,203.4z"/>
</g>
</svg>
