<?xml version='1.0' encoding='utf-8'?>
<svg xmlns="http://www.w3.org/2000/svg" version="1.2" baseProfile="tiny" id="Layer_2_00000139289302218788366510000005444458761410922937_" x="0px" y="0px" viewBox="0 0 900 600" overflow="visible" xml:space="preserve">
<g>
	<path d="M458.3,94c-0.5-1.3-1.1-2.7-1.7-4.1c-0.6,0.3-1.1,0.5-1.6,0.7c-0.1,0.7-0.3,1.3-0.4,1.9c-1.4,0.3-1.9-1.7-3.4-0.9   c-2.6-1-3.8-4-6.4-4.5c0.5,1.5,1.3,2.5,2.2,3.5c-0.3,0.3-0.6,0.6-0.9,0.9c-2.5-0.6-3.4-2.9-5.2-4c-6,2.5-7.1-4.1-10.3-7.4   c-2.1,1,1.1,1.9-0.1,3.2c-3.2-2.1-3.2-2.1-6.2-6.7c0,0,0-3.5,0-3.5c-0.8,0.3-1.6,0.5-2.4,0.8c-0.7-3-1.4-5.7-2-8.3   c-0.9-0.4-1.6-0.7-2.4-1.1c3-4-0.4-9.7,2.6-13.7c0.7-0.2,1.1-0.6,0.9-1.7c-0.5,0.4-0.7,0.7-1,1c-0.6,0-1.1,0-1.9,0   c-0.4-4,2.3-6.2,3-10.4c-1.2-2.7-0.3-5.4,1.1-8c-0.4-0.8-1.4-1.5-0.5-2.5c0.7-0.8-0.5-1.4-0.2-2.4c0.7-0.6,1.6-1.3,2.7-2.2   c1,0,2.7,0.3,3.5-0.7c0.1-2.4,3.9-2.9,2.4-4.9c-0.8,1-1.6,1.8-2.5,2.7c-0.3,0-0.7,0-1.2,0c-0.2-0.8-0.5-1.6-0.7-2.5   c2.5-4.8,7.1-2.8,11.3-4.4c-1.5,0-2.3,0-3,0c-0.2-0.3-0.3-0.6-0.5-1c1.3-1.8,3.2-2,5.2-2.1c0.1-0.6,0.2-1,0.3-1.7   c1.6-0.2,3-0.2,4.7,0.2c0.1-1.1,0.2-2.1,0.4-3.1c1.5-0.7,2.9-1.3,4.5-2.1c0.3,0.3,0.7,0.7,1.2,1.1c1.8,0.2,3.8,0.4,6.1,0.7   c0.1-0.4,0.2-0.9,0.4-1.6c0.9,0.4,2,0.8,3.1,1.2c0.5-0.4,1-0.8,1.5-1.2c3.8-0.5,3.8-0.5,5.3,0.7c-0.7,0.4-1.4,0.8-2,1.2   c-0.8,0-1.7,0-2.5,0c0,0.2,0,0.3,0,0.5c3.8,1.1,7.9-2.3,11,0.6c-0.9,0.9-1.6,1.5-2.2,2.2c0.2,0.2,0.4,0.4,0.4,0.4   c2.3-1.7,4.9-1,7.3-0.9c1.1,0,1,0.2,2.7,2.3c2.2,2.7,8.9,0.7,8.9,5.3c-1-0.3-2.1-0.6-3.3-1c0,0.6,0,1,0,1.5   c1.6,0.5,4.3,1.1,3.2,3.4c2.8,1.1,4.3,3.2,5.2,5.6c-1,1.1-1.9,2.1-2.9,3.3c3.9,1.6,6.7,4.5,9,7.9c-2.3,1.7-2.3,4.5-3.6,6.9   c0.1,0.3,0.3,0.7,0.5,1.1c-1.8,2.4-0.9,5.9-2.8,7.7c0,1.9,0,3.3,0,4.7c0,1.1-1.8,0.9-1.7,2.3c0.5,0,0.9-0.1,1.6-0.1   c-3.3,3.5-4.5,7.2-7.6,10.5c0.1,1.6-0.9,1.5-2.4,1.6c-0.6-0.9-1.4-1.9-2.3-2.9c0,3.5,0,3.5-2,6.3l0-0.1c-0.6,0.1-1.3,0.2-2,0.3   c-0.1,1.2,0,1.9-0.7,2.8c0,0.4,0,0.8,0,1.2c-0.3,0-0.5,0-0.8,0c-1.4-1.3-1.1-2.8-1.8-4.5c-1,2,0.1,3.6,0.4,5.2   c-2.2-0.4-0.9,2.9-3.3,2.7c-0.2-0.6-0.4-1.1-0.7-1.9c-2.4,2.3-3.1,7.6-6.9,6.5c-0.3,1.1-0.5,2.2-1.8,2.3c-0.5-0.4-0.9-0.8-1.6-1.3   c0.1,0.8,0.2,1.4,0.3,1.8c-0.7,0.5-1.2,0.9-1.7,1.3c0.3,3.9,0.5,7.7-0.5,11.5c-1.3,0.8-0.3,2.3-0.7,3.5c-0.9-1.3-0.7-2.7-0.6-4.1   C459.3,101.2,459.4,96.6,458.3,94z M491.5,32.2c-0.1-0.3,0-0.7-0.5-0.3c1.7,1,3,2.6,3.4,4.5c-1,1.9-2.3,3-4.1,3.8   c1,3.8,0.7,7.6,0.6,11.4c-1.1,0.1-3.2-0.4-2.7,1.4c-0.4,0.5-0.8,1.1-1.1,1.3c0.1,1.5-1.1,3.5,0.8,4c3.4-7.6,7.2-15.2,8.9-23.4   C494.8,34.1,493.8,32.2,491.5,32.2z M488.5,50.6c0.2-1.5,1.5-3.1-0.1-4.2C488.4,47.9,486.8,49.3,488.5,50.6z M480.8,73.5   c-0.6,0.4-1.2,0.7-0.7,1.6C480.9,74.6,481.3,74.2,480.8,73.5z" />
	<path fill="#010101" d="M488.1,544.8c5.8-4.1,13.4,3.4,12.5,9.5c9.9,6.2,21,11.4,32.9,11.8c9.5,9.5-0.9,21.8-11.3,24.3   c-9.7,2.3-20.4,0-30-1.5c-12,7.2-25.8,5.1-38.7,1.3c-0.3-2-1.8-3.3-3.4-4.7c-9.3,4.4-22.6,2.9-30.8-3.7c1.1-3.4,2.8-6.7,2.8-10.3   c-0.7-5.3,3.4-9.2,3.5-14.3c0-4.5,1-9.4,5.8-11c-1.3-26.9-16-53.6-10.6-80.5c6.8-32.7,19.1-34.4,13.8-72c0.3,0,0.7-0.1,1-0.1   c10.6,30.5-14.4,57-12.8,87c1.5,22.2,8.7,43.5,11.1,65.6c3.7,1.2,4.9,4.6,7,7.4c3.9-1.3,8.1-1.9,11-5.1c0.2-1.3,0.8-2.1,0.6-3.4   c-4.8-11.1-2.7-24.1-4.5-35.9c0-12.2,4.4-24,5.5-36.2c3.7-16.1-2.4-33.8,8.8-47.6c0.3,0.3,0.6,0.6,0.9,0.9   c-8.6,14.6-6,30.9-7.2,47.1c-5.6,21.6-6.8,43.6-3.3,65.9c2-1.2,3.9-1.4,5.8-1.1c2.6,2.3,2.4,5.5,2.8,8.5c1.1,0.8,1.6,2.3,3,2.7   c2.6-18.2-0.8-37.9-1.5-56.4c-7.7-21.2-3.5-43.7,6-63.4c1.5,14.6-10,29.5-7.8,45c7,24.4,5.9,50.7,6.4,75.9   c3.9,7.1,14.5,2.3,18.5-2.4c0.1-1.4,0.2-2.7,0.3-3.9c0.5,0.4,1.1,0.7,1.8,1.2C487.9,545.4,488,545.1,488.1,544.8z M445.7,555.1   c-2.7,0.4-3.1,0.5-4.1,1.7c3.9,2.1,9.2,5.1,12.4,0.3c-0.5-1.9-0.9-3.8-1.4-5.7c-1.9,1.1-3.7,2.1-5.5,3.2   C446.5,554.4,446,554.5,445.7,555.1z M459.5,556.3c0.3-1.5,0.6-3.1,0.9-4.6c0.4-0.4,0.8-0.8,1.4-1.4c-3.6-2.4-3.4-6.4-4.6-9.7   c-1.7-0.3-1.7-0.3-4.5,1.1c2,2.8,1.8,6.2,2.3,9.6c1.8-1.6,0.4-3.4,0.7-5.1c4.2,3.4,0.7,9.1-0.8,13.1c-3.4,4.9-10,2-14.6,0.1   c-2.3-4-4-12.8-10.4-9.3c-0.9,7.7-5.2,14.6-5.7,22.2c0.6,3.2-2.4,5.7-2.1,8.9c7.1,6.1,27.4,8.2,30.5-3.1c1.7,1.3,0.3,3.5,0.3,5.4   c1,1.1,1.4,3.1,3.1,3.3c0.2-1,0.3-1.8,0.5-2.7c0.1,0,0.2,0,0.3,0c0,1.4,0,2.9,0,4.5c11.4,2.8,23.8,5.6,34.2-1.5   c12.7,0.9,27.1,6.1,38.4-2.3c5.3-3.7,7.9-11.8,2.6-16.9c-4.2,0.8-8.4-1.8-12.3-0.1c-0.2-0.9-0.4-1.5-0.6-2   c-1.4-0.1-1.6,2.1-3.3,1.7c-0.1-1.1-0.2-2-0.3-3c-0.6-0.3-1.1-0.5-1.8-0.8c-0.5,1.3-0.9,3.4-2.6,2.4c-0.3-1.2-0.6-2.4-0.9-3.6   c-0.9-0.3-1.6-0.6-2.3-0.9c-0.9,1.7,0.5,4.6-2.9,4.7c-0.9-2.2-0.5-4.4-0.3-6.5c-0.5-0.3-0.8-0.5-1.5-0.9c0.2,2.1-1.2,7.6-3.9,5.5   c1.9-27.5-18.9-18.4-8.1-11.7c0.6-1.5-1.6-1.7-1.7-3.1c0.9,0.1,1.7,0.1,2.5,0.1c4.7,4.6-0.4,11.6-2.5,16.4   c-24.3,8.6-13-12.7-26.9-13.7c-0.7,2.1-1.1,3.9-2.4,5.6C459.5,557.6,459.6,556.9,459.5,556.3z M481.1,555.1   c-2.9,1.1-5.8,2.1-9.1,2.2c0.4,4.7,5.6,10,10.6,8.7c5.1-1,5.5-0.6,6.7-6.2c0.4-1.9,1.3-3.7,0.7-5.7c-1.3-1-2.5-2-3.6-3   C484.6,552.5,482.8,553.8,481.1,555.1z" />
	<path fill="#020202" d="M435.6,393.9c-0.3,0-0.7,0.1-1,0.1c-9-20.5-4.1-42.7-3.6-64.3c-34.3-43,35.8-65.9,22.8-103.2   c-13.5,10.6-25,23.5-33.6,38.3c-9.2,7.9-20,13.5-27.9,23c-0.7-0.5-1.4-1-2.2-1.5c1.2-0.9,2-2.1,2.8-3.4c0.2,0.2,0.5,0.4,0.8,0.8   c7.2-7.8,15.7-12.2,23.8-18.9c3.7-2.4,4.5-6.7,6.4-10.4c2.3-4.6,6.3-8.2,9.6-12.2c13.6-12.1,26.3-24.4,33.9-41.4   c11-10.5,21.6-21.7,31.8-33.1c0.2,0.2,0.5,0.5,0.7,0.7c-0.2,0.6-0.5,1.2-0.7,1.8c5,16.4,20.7,10.9,21.4-4.2   c1.8-8.7-3.4-16.2-3.4-24.7c0.5-0.3,0.9-0.5,0.3-1.3c-0.1,0.5-0.2,0.9-0.2,1.3c-0.8-1-0.6-2.3-0.8-3.5c0.8-0.2,0.8-1,0.9-1.6   c2.1,27.4,32.5,33.3,4.9,60c3,22.7-7.6,43.4-6.6,66c8.8,27.9,10.3,57.1,4.4,85.9c-2-17.8,3.9-37.2,0.5-55.3   c-28.5-10-60.2-11.3-89.8-7.6c-9,12.8-6.8,28.9,0.7,42c1.2,2.1,2.2,3.9,1.2,6.4C431.6,353.8,431,374,435.6,393.9z M460.9,217.6   L460.9,217.6c-1.8,2.2-3.6,4.5-5.2,6.5c8.6,26.8-11.6,37.9-23.2,58.6c29.1-1.4,59.6-2.4,87.6,7.5c-17.2-52.8,2.9-47.4-0.1-94.1   c0.2-0.2,0.2-0.3,0.1-0.5c12.4-12.2,16.8-23.7,2.7-37.4c0.3,9.2-1.5,22.5-12.3,24.3c-6.5,0.6-11.3-4.7-12.5-10.6   c-6.4,6-11.6,13.2-17.8,19.4c0.6,1.4,1.5,2.4,1,4.3c-0.9-1.1-1.5-1.8-2.1-2.6c-3.7,4.6-8.8,8-12.3,12.6c1.3,3.7,1.4,5,0.6,7.8   c-1.4-1.3-0.9-3.3-2.1-4.8C463.6,211.7,462.2,214.4,460.9,217.6z" />
	<path fill="#020101" d="M517.3,136.2c-0.1,0.6,0,1.4-0.9,1.6c-8.3-20.5-34.3-14.9-39.5,4.8c-0.7,0.6-0.9,1.2-0.3,2.1   c0.4-0.2,0.7-0.4,1.1-0.6c0.2,0.1,0.4,0,0.6,0c-16.1,22.3-28.4,47.2-44.8,69.3c-11.3,13.6-15.9,33.2-30.2,43.9   c-5.1-0.8-9.6,0.6-14.6,0.7c-1.6-1.2-3.2-2.3-4.9-3.5c0.5-1.3,2.5,0.1,2.7-1.5c9.8-15.7,23.3-29.3,30.8-46.1   c4.4-11.7,7.5-23.9,15.8-33.6c-0.9-3.5-0.5-8-2-11.1c-0.2-0.7-0.2-1.8,0.6-2.1c0.1,0.7,0,1.4,1.4,1c-0.1-10.3,2.7-20.6,8.3-29.3   c-28.1,9.8-20.4,17.1-31.3,40c-6.4,18.2-20.8,32.5-25.7,51.2c-3.4,11-3.7,23.5-11,32.8c-1.1-0.2-2.4,0.5-3.5-0.6   c11-5.7,10.2-40.2,20.6-52.2c14.7-18.2,19.4-41.4,29-61.9c4.7-5.8,12.3-7.4,18.7-10.4c6.7-4.8,14.4-9.5,17.8-17.3   c2.9,3.5-2.7,7.9-5,10.5c-0.6,0.7-0.8,1.6-0.2,2.2c1.1,1.8,0.4,4.2,1.9,6c-2.8,2.6-3.8-3.6-4.6-5.6c-16.6,17.7-16.8,47.2-4.3,67.6   c6.3-6,9.2-14.3,13.7-21.6c2.1-1.8-0.6-6.1,1.6-7.5c0.4,0.8,0.7,1.5,1.3,2.6c1.5-3.9,5-6.1,4.3-10.5c0.7,0.2,1.2,0.4,1.8,0.6   c1-1.8,2-3.6,3-5.4c2-1.2,3-2.9,3.5-5.2c2.4-9.9,9.2-22.3,20.4-23.4c0-0.1,0-0.3,0-0.4c-8.4-3.4-14.6,5.7-21.3,9.5   c-0.2-0.2-0.5-0.4-0.7-0.6c4.3-5.6,10.2-9.5,16.7-11.9c-0.5-1.3-2.2-1.7-1.9-3.5c2.1,1.5,2.2,1.9,3.3-0.6   C491.2,127.2,512.5,117.8,517.3,136.2z M401.9,255.6c10.4-5.9,13.5-19.5,20.4-28.9c5.3-11,14.5-19.4,19.7-30.4   c-3.8-6.6-4.5-14.1-7.7-20.9c-9.3,9.2-9.9,23.6-16.2,34.7c-8.2,15.9-20.8,29.7-30.1,45.2c0.4,0.5,0.9,1,1.3,1.4   C396.6,254.8,396.6,254.8,401.9,255.6z" />
	<path fill="#100A09" d="M386.6,252.8c-0.1,1.6-2.2,0.2-2.7,1.5c-1.6,0-3.3,0-4.9,0c-0.9-1.2-2-0.5-3.1-0.1c0.4,0.1,0.8,0.2,1.2,0.3   c-0.6,0.3-1.2,0.7-2.1,1.2c3.6,0.8,6.6,0.3,9.6,2.5c1.1,0.8,2.4,1.7,4.2,1.6c0-0.7,0-1.3,0-1.8c1,0,1.9,0,2.9,0.1   c-1.5,0.7-1.3,2.2-2.2,3.4c-5.9-0.1-16-8.2-20.7-3.2c8,4.2,18.1,3.6,24.8,10.1c0.1,1.4,0,2.3-0.6,3.4c-1.8,0.5-3.2,1.1-5.1,1   c0,0.2,0,0.3,0,0.5c4.6,0.9,8.6,3.5,3.1,7.1c-4.1,0-8.3,0-12.4,0c-0.5,0.6-0.9,1.2-1.4,1.9c3.1,0.3,6,0,8.9,0   c0.3,0.2,0.5,0.5,0.8,0.7c-4.5,1.1-9,1.2-13.6,0.5c-0.1,0.3-0.2,0.6-0.3,0.9c-0.4,0-0.8,0-1.2,0c-0.4-1.4-1.3-2-2.7-1.8   c-2.1,5.8,6.5,10.3,9.6,5.2c3.9-0.5,8,0.1,11.7-1.4c0.7,0.5,1.4,1,2.2,1.5c-2.7,6.3-8.5,5.4-14.2,3.6c-6.8,0.8-12.5-2.5-11.4-10.1   c-3.6-2.6-5.1-6.3-1.5-9.8c-6.1-4.6,1.1-6.9,3.3-10.5c-0.7-0.4-1.3-0.8-1.7-1c0-2.9,1.1-4.3,3.3-4.7c1,1.2,2.4,0.4,3.5,0.6   c0.7-1,1.4-1.9,2.1-2.8c1.6,0,3.2,0,4.9,0.1c1.2,0.9,1.5,0.9,2.7,0c0.5,0,0.9-0.1,1.4-0.1C385.3,253.3,385.9,253.1,386.6,252.8z    M373.5,280.9c5.5-0.3,1.4-4.4-1.9-4.5c-2.4-0.1-3.7-2-5.7-3C361.4,277.4,369.8,282.7,373.5,280.9z M372.8,266.9   c-1.9-0.7-3.8-1.3-5.7-2c-4.4,3.3-2.4,3.8,1.3,5.1C373.4,273.5,380.8,271.7,372.8,266.9z M377.6,273.2c-3.9,0.7-7.1-0.8-10.6-1.4   c1.1,1.8,2.9,2.5,4.5,3.5c2.2-2.6,5.2,2.6,7.4,3.4c4.3-0.7,10.7,2.4,13.3-2.2C389.4,274.9,380.1,271.5,377.6,273.2z M391.8,269.8   c-3.4-5.6-16-8.5-21.7-5.6C376.6,267.2,384.5,272.7,391.8,269.8z M390.1,288.1c-4.2,0.4-7.2,0.1-11.4,1.4c3.5,1,6.2,2,9.3,1.5   C388.7,290,389.9,289.3,390.1,288.1z M384.4,272.2c-1.1-1.2-5.4-3.1-6.8-2.4C379.7,271,382.2,272.5,384.4,272.2z M370.1,261.9   c1.1,0,2.1,0,3.2,0C372.4,260.4,370.2,259.9,370.1,261.9z" />
	<path fill="#090707" d="M487.4,541.3c0,0.4-0.1,0.8-0.1,1.3c-2.6-27.4,6.9-55.5,11.2-82.6C499,487,487.8,514.2,487.4,541.3z" />
	<path fill="#050504" d="M519.2,345.2c0,1.1-0.1,2.2,0.8,3c-0.3,23-14.4,43.1-17.4,65.3c-1.4-1.1-0.7-3.3-1.5-4.5   c-0.8-0.3-1.4,0.4-1.9-0.4C508.8,388.6,514.7,366.8,519.2,345.2z" />
	<path fill="#181514" d="M501.9,412.6c0.2,0.3,0.5,0.5,0.7,0.8c-1.5,11.3-1.1,22.5-2.2,34c-2.2-5.9,0.9-13.4-3.5-18.4   c0.1-0.9,0.1-1.9,0.2-2.9c0.9-0.5,1.2,0.4,1.8,0.8C501.3,422.4,501,417.4,501.9,412.6z" />
	<path fill="#1E1615" d="M489.4,116.2c-0.5,0.8-1.1,3-2.1,1.4c0.9-0.3,0.8-1,0.7-1.7c0.1-4.7-0.8-11.2,3.5-14.3   c5.4-0.8,14.3,2.6,16.6-4.2c-0.5-1.1-0.9-2.3,0.1-3.4c0.2,0,0.5,0,0.7,0c1.9,10.7-9.2,9-16.4,8.9   C488.5,106.3,490.2,111.7,489.4,116.2z" />
	<path fill="#130F0E" d="M508.1,53.1c1.3,3.1,1.1,6.2,0.3,9.3c0.4,0.4,0.8,0.7,1.2,1c0.1,1.7-1.1,2.3-2,3.2c0.2,1.3,0.5,2.5,0.7,3.7   c-0.2,0.3-0.5,0.5-0.7,0.8c-0.2-0.5-0.4-0.8-0.7,0c-0.2,0-0.4,0-0.6,0c-0.5-1.1-1-2.2-1.5-3.3c0.6-1.7,2.4-2.9,1.8-5   c-0.4,0.1-0.8,0.2-1.1,0.3c0-0.6-0.1-1.1-0.1-1.7c0.7-0.7,1.3-1.4,2-2.1C507.5,57.1,506.9,54.9,508.1,53.1z" />
	<path fill="#3D3330" d="M506.2,71c0.4,0,0.9,0,1.3,0.1c0.2-0.3,0.5-0.5,0.7-0.8c1.2,2.2,3.5,3.8,4.7,5.9c0,2.4-1.9,3.2-3.3,4.6   c0.4,0.7,0.8,1.4,1.1,2.1c-0.4,0-0.9,0-1.3,0c-0.5-1.2-1.5-2.3-1.2-3.9c0.7-0.1,1.5-0.3,2.4-0.4c0.3-0.7,0.6-1.4,1-2.1   C509.8,74.4,508.4,72.4,506.2,71z" />
	<path fill="#302826" d="M508.1,53.1c-0.2,0.5-0.5,1-0.7,1.5c-1.1-5.7-4.3-10.5-7.7-15.3c0.3-0.3,0.6-0.6,0.8-0.8   C504.1,42.7,507,47.5,508.1,53.1z" />
	<path fill="#4D3F3A" d="M499.8,442.5c0.8,6.9,0.7,14.2-0.5,21.1C498.1,456.6,499,449.4,499.8,442.5z" />
	<path fill="#332B28" d="M509,94c-0.2,0-0.5,0-0.7,0c0.2-0.9,0.4-1.8,0.6-2.8c0.4-0.1,0.8-0.1,1.5-0.2c0-1.6-1.2-2.8-2.2-1.2   c-2.1,0.1-1.5-0.9-0.7-2.1c0.9,0,1.9,0,2.8,0C513,89.9,511.2,92.5,509,94z" />
	<path fill="#231E1D" d="M456.9,115c-0.1-0.6-0.1-1.4-0.9-1.6c0.7-2.4,1.4-4.7,2.1-7.1C459.7,109,458.1,112.3,456.9,115z" />
	<path fill="#352E2B" d="M486.6,538.3c0.1,1.5,0,2.9,0.7,4.3c0.4,0.7-0.3,1.8,0.8,2.3c-0.1,0.3-0.2,0.6-0.3,1   c-0.7-0.4-1.2-0.8-1.8-1.2C486.1,542.6,485.7,540.4,486.6,538.3z" />
	<path fill="#231E1D" d="M458.3,94c1.1,2.6,1,7.2,0,9.7C458.3,100.5,458.3,97.2,458.3,94z" />
	<path fill="#352E2B" d="M487.4,541.3c0.3-3-0.9-6.5,0.6-9.1C487.7,535.2,488.4,538.5,487.4,541.3z" />
	<path fill="#C3D0D0" d="M447,90.7c-0.9-1-1.8-2-2.2-3.5c1.8-0.1,2.4,1.8,3.7,2.6C447.9,89.9,447.2,89.9,447,90.7z" />
	<path fill="#C8CCCC" d="M488.1,18.8c-0.6-0.2-1.3-0.4-1.9-0.6c0-0.5,0-0.9,0-1.5c1.2,0.4,2.3,0.7,3.3,1   C489,18.1,488.6,18.4,488.1,18.8z" />
	<path fill="#B6BFBF" d="M427.6,21.7c0.4-0.5,0.9-0.9,1.3-1.4c0.3,0.3,0.5,0.5,0.8,0.8c-1.3,0.5-1.6,1.8-2,2.9   C427.7,23.2,427.7,22.5,427.6,21.7z" />
	<path fill="#292321" d="M510.3,82.9c0.2,0,0.4,0,0.5,0c1.5,1.9,1.5,2.2,0.2,4.2l-0.1-0.1C510.8,85.7,510.5,84.3,510.3,82.9z" />
	<path fill="#EAA388" d="M502.1,421.7c-0.2-1.4-0.3-2.7,0.4-4C502.7,419,502.9,420.4,502.1,421.7z" />
	<path fill="#D69479" d="M434,393.3c0.2,0.2,0.4,0.4,0.6,0.6c0,0.9-0.1,1.8-0.1,2.7C433.6,395.7,433.8,394.5,434,393.3z" />
	<path fill="#344747" d="M463.8,7.8c-0.8,0-1.7,0-2.5-0.1c0-0.2,0-0.3,0-0.5c0.8,0,1.7,0,2.5,0C463.8,7.5,463.8,7.6,463.8,7.8z" />
	<path fill="#A1DFDF" d="M433.9,14.9c0.8,0,1.5,0,3,0c-1.4,0.8-2.2,0.8-3,0.5C433.8,15.2,433.8,15.1,433.9,14.9z" />
	<path fill="#787D7D" d="M420,50.2c0.3-0.3,0.5-0.5,1-1c0.2,1.2-0.3,1.5-0.9,1.7C420,50.7,420,50.5,420,50.2z" />
	<path fill="#292321" d="M511.1,87.1c-0.2,0.3-0.4,0.6-0.6,0.9c0,0-0.2-0.2-0.2-0.2C510.5,87.5,510.8,87.3,511.1,87.1L511.1,87.1z" />
	<path fill="#B28C7D" d="M507.5,87.7c-0.8,1.2-1.4,2.1,0.7,2.1c0,0.2,0,0.5,0,0.7c0.2,0.2,0.5,0.5,0.7,0.7c0,0,0,0,0,0   c-0.2,2.1-2.1,4.2-0.8,6.2c-2.6,6.8-11.9-1.5-16.7-2.5c-4.1-1.9-4.9-6-6.6-9.6c-0.8,0.4-1.7,0.7-2.7,1.2c-1.2-0.7-2.5-1.5-3.7-2.3   c0.2-0.2,0.4-0.4,0.6-0.6c0.6,0,1.1,1,1.9,0.1c-1.1-1-2.2-1.9-3.2-2.9c0-0.4,0-0.8,0-1.2c1.6,1,3.2,2,5.7,1.7   c-0.6-1.6,0.3-3.1-0.8-4.6c-0.7,0-1.5,0-2.3,0c2-2.8,2-2.9,2-6.3c0.9,1,1.7,1.9,2.3,2.9c1.4-0.1,2.5-0.1,2.4-1.6   c3.1-3.3,4.3-7.1,7.6-10.5c-0.8,0.1-1.1,0.1-1.6,0.1c-0.1-1.4,1.7-1.2,1.7-2.3c0-1.4,0-2.8,0-4.7c1.9-1.8,1-5.3,2.8-7.7   c-0.2-0.4-0.4-0.8-0.5-1.1c1.2-2,1.2-4.5,2.8-6c4.3,6,8.4,12.4,7.7,19.9c-1.3,1.6-3.6,3-2.9,5.5c0.3-0.6,0.6-1.1,1-1.7   c0.3-0.1,0.6-0.2,1.1-0.3c0.6,2.1-1.2,3.3-1.8,5c0.5,1.1,1,2.2,1.5,3.3c0.7,1.1,2.3,1,2.9,2.5c0.5,1.1,1.6,1.9,2.5,2.9   c-0.3,0.8-0.7,1.5-1,2.1c-0.9,0.2-1.6,0.3-2.4,0.4c-0.3,1.6,0.7,2.7,1.2,3.9C509.2,84.7,508.6,86.3,507.5,87.7z" />
	<path fill="#977264" d="M495.8,96.8c3.3,1.7,6.7,2.9,10.3,3.5c-4.6,4.3-15-2.6-17.3,4.9c-4.1-2.9-6-7.9-7.9-12.3   c-1.5-0.4-2.7-0.7-3.9-0.9c-8.6,4.6-9.1,43.8-16.7,43.9c0-1.6,1.8-4.2-0.1-5.1c0-0.7,0-1.4,0.1-2.1c1.7-0.6,2-1.1,1.7-3.2   c-0.3,0-0.6-0.1-1-0.1c0-1.3-0.4-2.6,0.5-3.6c0.3,0.2,0.6,0.5,1.2,1c0.1-0.9,0.2-1.4,0.3-2.2c-0.7,0.3-1.1,0.4-1.5,0.6   c0.2-1.7,0.3-3.5,0.5-5.6c-4.8,4.5-7.9,10.4-8.8,16.7c-0.2,0-0.4,0-0.6,0c-1.5-1.8-0.8-4.2-1.9-6c-0.6-0.6-0.4-1.5,0.2-2.2   c8.4-7.7,9.4-20.1,9-31c0.4-0.3,1-0.7,1.7-1.3c-0.1-0.5-0.2-1-0.3-1.8c0.6,0.5,1.1,0.9,1.6,1.3c1.3-0.1,1.5-1.2,1.8-2.3   c3.8,1,4.5-4.2,6.9-6.5c0.3,0.8,0.5,1.3,0.7,1.9c1.3-0.1,1.8-0.8,1.8-2c3,1.6,5.7,6.9,9.9,5.3c1.4,3.3,2.6,7.4,6.7,7.9   C491.9,96.4,494.7,98.1,495.8,96.8z" />
	<path fill="#8F8C9B" d="M490.9,51.7c0.1-3.9,0.4-7.6-0.6-11.4c1.9-0.9,3.1-2,4.1-3.8c-0.3-0.7-0.5-1.5-0.8-2.2   c0.2-0.2,0.5-0.5,0.7-0.7c0.8,0.5,1.5,0.9,2.5,1.5C495.7,40.7,493.3,46.5,490.9,51.7L490.9,51.7z" />
	<path fill="#1B110F" d="M490.8,95.4c-4.1-0.6-5.3-4.6-6.7-7.9c-4.2,1.5-6.9-3.7-9.9-5.3c0.2-0.8,0.9-0.7,1.5-0.7   c1.6,2.3,4.2,3.6,6.5,5c1.1-0.4,1.9-0.8,2.7-1.2c1.7,3.6,2.4,7.7,6.6,9.6C491.2,95.1,491,95.3,490.8,95.4z" />
	<path fill="#878694" d="M488.8,51.7c0.7,0,1.4,0,2,0l-0.1-0.1c-0.4,2.4-2,4.5-2.9,6.8c-1.9-0.5-0.7-2.4-0.8-4   C487.6,53.8,488.5,52.6,488.8,51.7z" />
	<path fill="#2A1E1B" d="M480.4,76.7c0.8,0,1.6,0,2.3,0c1.1,1.6,0.2,3.1,0.8,4.6c-2.5,0.4-4.1-0.6-5.7-1.7c0.2-0.3,0.4-0.6,0.6-0.9   c1,0.4,2,0.8,3.2,1.4c0.1-0.8,0.2-1.4,0.3-1.9C481.3,77.6,480.9,77.1,480.4,76.7L480.4,76.7z" />
	<path fill="#7E665B" d="M478.4,84.2c-2.5-1.8-4.3-4.6-3.2-7.9c0.5,2.9,1.9,5,3.8,7.3C478.8,83.8,478.6,84,478.4,84.2z" />
	<path fill="#9A7C6E" d="M480.4,76.6c0.4,0.5,0.9,1,1.4,1.5c-0.1,0.5-0.2,1.2-0.3,1.9c-1.2-0.5-2.2-0.9-3.2-1.4   c0-0.6,0.1-1.1,0.1-1.9C479.1,76.8,479.8,76.7,480.4,76.6z" />
	<path fill="#4E4F57" d="M488.5,50.6c-1.7-1.3-0.1-2.7-0.1-4.2C490,47.4,488.7,49.1,488.5,50.6z" />
	<path fill="#5A5D67" d="M494.4,33.5c-0.2,0.2-0.5,0.5-0.7,0.7c-0.7-0.7-1.4-1.4-2.1-2c0,0,0,0,0,0   C492.7,32.2,493.6,32.6,494.4,33.5z" />
	<path fill="#8F9F9F" d="M429.8,21.1c-0.3-0.3-0.5-0.5-0.8-0.8c0.4-0.4,0.7-0.8,1.1-1.3C430.8,20,430.6,20.6,429.8,21.1z" />
	<path fill="#B28C7D" d="M480.8,73.5c0.5,0.8,0.1,1.2-0.7,1.6C479.6,74.2,480.2,73.8,480.8,73.5z" />
	<path fill="#231E1D" d="M459.5,104.4c0.1,0.8,0.2,1.6-0.5,2.2C458.9,105.8,458.6,104.9,459.5,104.4z" />
	<path fill="#2A1E1B" d="M477.6,81.5c-0.2-0.2-0.4-0.5-0.6-0.7c0.3,0,0.5,0,0.8,0c0.2,0.2,0.4,0.4,0.7,0.7c0,0-0.3,0.1-0.3,0.1   C478,81.5,477.8,81.5,477.6,81.5z" />
	<path fill="#4E4F57" d="M488.8,51.7c-0.2,0.4-0.5,0.9-0.7,1.3C488.1,52.5,488,51.9,488.8,51.7z" />
	<path fill="#37515A" d="M491.5,32.2c-0.2-0.1-0.4-0.2-0.5-0.3C491.5,31.4,491.4,31.9,491.5,32.2C491.5,32.2,491.5,32.2,491.5,32.2z   " />
	<path fill="#EAA388" d="M486.6,538.3c-0.3,11.6-2.7,16.8-15.9,15c1.3-19.3-0.2-38.1-0.8-57.2c0.4,0.7,0.8,1.2,1.3,2   c0.2-1.4,0.2-1.6,0.6-2.8c1.2,0.5,2.3,0.9,3.5,1.4c4.2-7.9-7.5-13.4-7.3-21.2c-5.8-20.8,10.2-40.1,7.3-60.7   c-0.8-13.2,1.9-26.8-0.8-39.9c-4.5-18.6-2-37.3,8.1-53.6c6-1.4,9.2-3.3,10.7-6.7c-14.3-0.8-31.2,5.4-40.9-8.2   c-1.9-3.9-1.8-9.1-5.1-11.8c-0.1-1.7-0.1-3.4-0.2-5.3c-2,1.5-1.1,3.9-1.4,6c-3.3,2.7,0.1,10.3,2.3,13.1l0,0c0,0.8-0.4,1.7,0.7,2.1   c2,3.7,4.9,6.8,8.5,9.5c-0.9,0.4-1.6,0.7-2.2,1c-4.3-1.9-9,1.2-13.3-1.5c-13.6-5.3-11.3-26.2-2.1-35.3c27-1.9,55.4-0.8,81.2,8.6   c3.7,39.3-4.7,79.9-21.3,115.6c0.5,0.8,1.1,0,1.9,0.4c1.2,4,0.2,8.8-0.7,12.9c-1.3-4.6-6.7-4.5-4.1,0.7l0,0   c0.5,2.1,0.9,4.5,0.5,6.6C506.3,464.3,484.5,502,486.6,538.3z M483.3,433.4c3.7-4.8,5.1-40.2-5.7-28.6   C478.2,414,479.6,423.5,483.3,433.4z M488.9,451.8c-0.5,3.2-0.5,3.2,0.3,5.1C490.2,455,491,452.9,488.9,451.8z M489.2,460.9   c-1.4,1.3-1.4,1.5-0.1,3C489.6,462.4,489.6,462.4,489.2,460.9z M487.7,471.9c-1.6,0.6-1.1,1.9,0.3,2.3   C488.1,473.3,488.2,472.7,487.7,471.9z" />
	<path fill="#EAA388" d="M462.2,425.8c-11.2,13.7-5.1,31.5-8.8,47.6c-1.1,12.2-5.5,24-5.6,36.2c1.8,11.8-0.3,24.9,4.5,35.9   c0.2,1.4-0.4,2.1-0.6,3.4c-2.5,2.2-6,4.7-9.4,3.8c-0.1-8.2-1.7-16.2-3.2-24.2c-0.1-0.5-0.2-1.4-1.2-1.4c-1.4,1.6-0.1,3.7-0.9,5.5   c-3.8-12.8-7.3-26.5-8.6-39.9c2.4,3,4.6,5.7,6.8,8.4c0.6-0.3,1-0.4,1.5-0.7c-1.7-13.6-11.3-26.6-8.1-40.4   c5-19.2,15.2-36.7,14.9-56.9c-2.4-24.9-11.2-54.2,4.4-76.5c4.7,0,8.2-2.2,11.8-5c-0.5,9.8-0.7,20.2,1.2,29.4l0,0   c2.6,19.7,9.2,38.6,6.1,58.8C463.1,414.6,465.2,420.5,462.2,425.8z M460.9,417.6c-0.3,0.4-0.7,0.9-0.8,1.1   c-1.5-0.3-2.3-0.5-3.6-0.3c-3.4,3.1-5.1,9.1-2.1,12.9c5.5-0.3,4.8-8.5,7.9-11.8c0.2-1.2,1.3-2.2,0.6-3.6   C461.7,416.5,461.7,416.5,460.9,417.6z M443.9,497.6c-1.7,1.6-1.7,1.7-2.1,3.8C444.3,499.5,444.4,499.3,443.9,497.6z M446.5,496.2   c1.3-1.2,2.7-2.6,2.7-5.4C448,493.1,447.3,494.7,446.5,496.2z M452.9,440.4c2.1-0.8,1-1.7-0.4-2.8   C452.7,438.9,452.8,439.6,452.9,440.4z M440.5,500.7c-1.5-0.5-2.3,0.2-1.8,1.7C439.3,501.8,439.7,501.4,440.5,500.7z M437.3,503.5   c-0.3-1.4-1.8-1.3-1.6,0.3C436.2,503.6,436.7,503.6,437.3,503.5z M452,432.6c-0.2,0-0.5-0.1-0.7-0.1c0,0.5,0.1,1,0.1,1.5   c0.1,0,0.3,0,0.4,0C451.9,433.6,451.9,433.1,452,432.6z" />
	<path fill="#D69479" d="M448,326.5c-15.6,22.4-6.8,51.6-4.4,76.5c-2.8,48.9-27,42.1-6.8,97.3c-0.6,0.3-1,0.4-1.5,0.7   c-2.2-2.8-4.4-5.5-6.8-8.4c1.3,13.4,4.9,27.1,8.6,39.9c0.8-1.8-0.5-3.9,0.9-5.5c1.1,0,1.1,1,1.2,1.4c1.4,8,3.1,16,3.2,24.2   c0.4,0.1,0.8,0.2,1.2,0.4c-0.9,0.3-1.9,0.6-2.8,0.9c-2.1-2.8-3.3-6.2-7-7.4c-3.8-33.3-19.3-67.6-4.5-100.3   c13.5-23.1,7.2-48.6,3.1-73.2c-1.5-13.1,0.3-26.4,0.3-39.4c1-2.5-0.1-4.3-1.2-6.4c-7.6-11.7-12.6-44.5,8-43   c-9.2,9.1-11.6,30,2.1,35.3c4.3,2.7,9-0.4,13.3,1.5c-1.2,1.4-3,1.6-4.5,2.4c0.5,0.5,1.6-0.1,1.6,1c-1.3,0.3-2.7,0.6-4,0.8   C448,325.8,448,326.2,448,326.5z M435.1,327.4c4.7,0.9,7.3,0.4,9.2-1.4C441,326.5,438,326.9,435.1,327.4z" />
	<path fill="#D69479" d="M447.9,308.5c-2.2-2.8-5.6-10.4-2.3-13.1c0.1,0.7-0.2,1.6,0.6,2.2c0.2,2-0.1,3.7,1.9,5   c-0.5-3-0.8-5.4-1.2-7.8l0.2,0c3.3,2.8,3.2,8,5.1,11.8c9.7,13.6,26.6,7.4,40.9,8.2c-1.5,3.4-4.6,5.3-10.7,6.7   c-10.1,16.3-12.6,35-8.1,53.6c2.7,13.1,0,26.7,0.8,39.9c3,20.6-13.1,40-7.3,60.7c-0.2,7.8,11.5,13.3,7.3,21.2   c-1.2-0.5-2.2-0.9-3.5-1.4c-0.4,1.2-0.4,1.4-0.6,2.8c-0.5-0.8-0.9-1.3-1.3-2c0.7,19,2.2,37.9,0.8,57.2c2.2,0.7,4.2,0.2,6.3,0.4   c-3.5,1.7-7.9,1-9.7-2.8c-0.5-25.2,0.6-51.5-6.4-75.9c-1.1-14.6,6.4-27.9,8.5-42.1c2.5-18.3-0.5-37.4-0.6-55.9   c-1.9-18.3-8.2-36.4-6.2-55c3.7-0.4,7.2-0.7,10.7-1.1c-15.4-1.1-16-0.3-24.3-14.4C448.6,307.2,448.2,307.8,447.9,308.5z M475.8,318   c1.8,0.5,3.9,0.8,5.2-0.9C476.5,316.8,476.5,316.8,475.8,318z" />
	<path fill="#F7EFD0" d="M488.2,548.1c1.8-5,8.7-1.8,9.6,2.3c0.7,4.7,2.9,9,1.7,13.8c2.6,2.2,4-3.4,3.9-5.5c0.6,0.4,1,0.6,1.5,0.9   c-0.2,2.2-0.6,4.3,0.3,6.5c3.3-0.1,2-3,2.9-4.7c0.7,0.3,1.5,0.5,2.3,0.9c0.3,1.2,0.6,2.4,0.9,3.6c1.7,1,2.1-1.1,2.6-2.4   c0.7,0.3,1.1,0.5,1.8,0.8c0.1,1,0.2,2,0.3,3c1.7,0.3,1.9-1.8,3.3-1.7c0.2,0.6,0.3,1.2,0.6,2c3.9-1.7,8.1,0.9,12.3,0.1   c6.5,6.1,1.1,14.3-5.9,16.4c-10,3.2-20.9,0.1-31.2-0.1c-0.8-0.9-1.6-1.8-2.2-2.5c-16.7,5.3-11.5,10.7-32.6,3.1   c1.4-9,0.4-19,5.7-26.9c1.2-0.6,0.8-1.5,0.6-2.5c-1.1-0.4-2.5-0.6-3-2.1c12.1-2.5,2.6,22.2,26.3,12.7   C492.9,560.1,498.3,549.5,488.2,548.1z" />
	<path fill="#F7EFD0" d="M452.6,578c-0.8,1.6-1.7,3.2-2.6,5.1c-0.5,0.3-1.2,0.8-2,1.3c-0.4-0.1-0.9-0.2-1.1-0.3   c-0.6-1.3-1.1-2.5-1.5-3.4c-5.5-3-10.9-2.4-17-2.7c1.6-8.9,1.9-17.7,5-26.4c0.9-0.5,0.5-1.3,0.6-2.1c4,1.1,4.1,6.8,6.3,9.8   c4.6,2,11.2,4.8,14.6-0.1c1.6,2.2-1.7,5.1-0.7,7.7l0,0C452.5,569.9,452.6,574.4,452.6,578z" />
	<path fill="#EADCB7" d="M464.6,552.9c-0.4,0.1-0.8,0.2-1.3,0.4c0.5,1.5,1.9,1.7,3,2.1c0.2,1,0.6,1.9-0.6,2.5c0-0.7,0.5-1.5-0.4-2.2   c-4,5.6-5.5,12.2-5.9,18.9c-1.6,1-1.5,2.3-0.9,3.9c0.2-1.8,1.2-3.3,2.4-4.6c0.4,3.7-0.8,7.2-0.9,10.9c21.2,7.6,15.9,2.1,32.6-3.1   c0.6,0.7,1.4,1.6,2.2,2.5c13,0.1,29.1,5.9,39-5.4c-7.6,16.1-29,9.3-42.9,8.3c-10.4,7.1-22.8,4.3-34.2,1.5c0-1.6,0-3,0-4.5   c-0.1,0-0.2,0-0.3,0c-0.2,0.9-0.3,1.8-0.5,2.7c-1.7-0.2-2.1-2.3-3.1-3.3c1.6-11,5.4-21,9.9-31.1C463.4,552.5,464,552.7,464.6,552.9   z" />
	<path fill="#EADCB7" d="M428.3,578c6,0.3,11.4-0.3,17,2.7c0.4,0.9,0.9,2.1,1.5,3.4c0.3,0.1,0.7,0.2,1.1,0.3   c-8.1,2.3-19.1,2.6-25.8-3.2c-0.4-3.2,2.7-5.6,2.1-8.9c0.4-7.6,4.8-14.5,5.7-22.2c1.3-1.2,2.7-0.4,4-0.5c0,0.7,0.3,1.6-0.6,2.1   c-0.1-0.5-0.2-1-0.4-1.7c-4.1,6.4-3.3,15-4.7,22.4c-0.1,2.3-3.5,6.9-1,8.3C427.6,579.8,428,578.9,428.3,578z" />
	<path fill="#B08B7C" d="M481.1,555.1c1.7-1.3,3.5-2.6,5.3-3.9c1.1,0.9,2.3,1.9,3.6,3c0.6,2-0.3,3.8-0.7,5.7   c-1.3,5.6-1.6,5.2-6.7,6.2c-4.9,1.1-7-1.4-5.1-6c-0.6,3,6.8,4.1,6.2,0.8c-1-0.1-2.1-0.1-3.2-0.2C480.6,558.8,480,556.8,481.1,555.1   z" />
	<path fill="#090807" d="M468.5,426c0.1-0.5,0.3-1,0.7-1.4c-0.1-3.3-1.6-6.3-2.3-9.6c-0.4,1.3-0.7,2.6-1.1,4c-1.3-0.6,0-2.3-1.3-2.8   c-0.6-2.6,1.5-4.1,2.6-6.5c-0.2-4.4,0.5-9.2,0.8-13.7c1-0.9,1-1.2,0-2.1c0.6-5.4,1-11.1,0.8-16.9c0.1,18.4,3.2,37.6,0.6,55.9   c-0.3-0.9,0.5-2.1-0.7-2.9C468.6,428.7,468.6,427.4,468.5,426z" />
	<path fill="#ECE6C8" d="M457.5,552.9c-0.1-2.4,0.7-5.2-1.8-6.7c-0.3,1.7,1.2,3.5-0.7,5.1c-0.4-3.4-0.3-6.8-2.3-9.6   c2.9-1.5,2.9-1.5,4.5-1.1c1.2,3.3,1,7.3,4.6,9.7c-2.1,1.4-1.9,3.4-4.1,4.6C457.6,554.2,457.5,553.5,457.5,552.9z" />
	<path fill="#AD897A" d="M447.1,554.5c1.8-1,3.5-2,5.5-3.2c0.5,1.9,0.9,3.9,1.4,5.7c-1.9,2.3-4,3.6-6.9,2.1c-0.5-1.3-0.9-2.7-1.4-4   C446.2,554.9,446.6,554.7,447.1,554.5z" />
	<path fill="#161411" d="M460.3,557.9c-3.7,7.1-5,14.7-7,22.3c-0.2-0.8,0.3-1.8-0.8-2.2c-0.4-2.8,0.3-5.5,0.8-8.3   c0.9-0.7,0.6-1.8,0.8-2.7l0,0c2.4-3.2,3.5-7.2,5.3-10.7C459.6,556.9,459.5,557.6,460.3,557.9z" />
	<path fill="#947163" d="M481.1,555.1c-1.1,1.8-0.5,3.7-0.7,5.6c-1.8,0.2-0.9-2.4-2.7-2.5c-0.2,0.5-0.4,1.4-0.3,1.9   c-0.9,1.4-0.4,3.2-0.5,4.8c-2.4-1.9-5-4.2-5-7.5C475.3,557.1,478.2,556.1,481.1,555.1z" />
	<path fill="#E0D3B1" d="M459.5,556.3c-1.8,3.5-2.9,7.5-5.3,10.7c-1-2.7,2.3-5.5,0.7-7.7c0.9-2.1,1.7-4.3,2.6-6.4   c0.1,0.6,0.2,1.3,0.2,2c1.8-0.6,1.5-2.2,2.7-3.2C460.1,553.2,459.8,554.8,459.5,556.3z" />
	<path fill="#332E2B" d="M464.5,416.2c1.3,0.5,0,2.2,1.3,2.8c-0.5,2.7-0.8,5.5-2.6,7.8c-0.3-0.3-0.6-0.6-0.9-0.9   C463.5,422.7,464.5,419.6,464.5,416.2z" />
	<path fill="#836458" d="M445.7,555.1c0.5,1.3,0.9,2.7,1.4,4c-2-0.3-3.7-1.4-5.5-2.3C442.7,555.6,442.9,555.5,445.7,555.1z" />
	<path fill="#A7A993" d="M488.2,548.1c1.1,1.3,3.3-0.2,4,1.5c-0.8,0-1.6-0.1-2.5-0.1c0.1,1.4,2.2,1.6,1.7,3.1   C489.5,551.8,488.8,550.8,488.2,548.1z" />
	<path fill="#D69479" d="M468.5,426c0,1.9,0.6,3.8-0.5,5.5C467.9,429.6,467.6,427.8,468.5,426z" />
	<path fill="#836458" d="M447.1,554.5c-0.5,0.2-0.9,0.4-1.4,0.6C446,554.5,446.5,554.4,447.1,554.5z" />
	<path fill="#D69479" d="M467.9,553.6c-0.2-0.1-0.3-0.2-0.5-0.3C467.5,553.3,467.7,553.4,467.9,553.6z" />
	<path fill="#F5DDCE" d="M520,205.8c0.1,42-16.2,33.2,0.1,84.4c-24.5-8.9-50.9-8.7-76.5-8.1c1-7.5,5.2-13.6,10.2-19   c8.7-13.2,11.7-30.6,7.1-45.6l0,0c1.6-1.7,1.4-5.1,3.5-6.9c4.3,6.2,1.5,14.5,1.4,21.5c-1.4,4.6,0.1,9.6-1.4,14.3   c0.2,5.7-4.6,10.7-3.7,16.1c11.1-11.2,17.9-46.3,10-61.1c2.6-2.5,5.1-5.1,7.7-7.6c2.5,3,4.5,6.8,7.7,9l0,0c1.9,2.7,4.9,5.5,8.3,5.4   c-1.9-7.5-9.3-12.4-11.2-20.1c4.7-5.7,9.5-11.3,14.8-16.4c1.2,5.9,6,11.2,12.5,10.6c10.9-1.8,12.7-15.1,12.3-24.3   c6.7,6.8,15,20.3,2.4,24.9c-3.1,2-8,0.2-8.7,5.3c0.9,2.5,3.2,5.2,3.5,7.8C518.9,197.8,518.9,204.1,520,205.8z" />
	<path fill="#B28C7D" d="M390.8,280.2c3.5-2.3,3.8-5.3-0.7-6.4c0-0.4,0-0.9,0-1.3c0.9-0.4,1.7-0.6,2.7-0.9c0.6-1.2,0.7-2.1,0.6-3.4   c-6.6-6.5-16.8-5.9-24.8-10.1c4.7-4.9,14.9,3.2,20.7,3.2c3.4,0.4,6.4-1.8,9.5-3c2.4-0.5,4.6-0.8,6.6-2.5c0.5,0,1.1,0,1.3,0.6   c-0.5,1.7,0.3,3,1.5,4.3c6.1-11.1,16.4-18.7,22-30.2c5.3-9.5,8.7-20.7,16.9-28.3c2,0,3.9,0,5.9,0c0.6-0.6,1.1-1.1,1.7-1.8   c-1.2-1.2-2.3-2.1-3.4-3.2c1.4-1.2,2.3-2.5,3.4-3.9c-0.1-1.2-1.4-0.6-1.9-1.4c3.2-7.1,6.6-14.6,10.8-21.2c1.4-0.5,2.2-1.5,3.6-1.4   c0.4,2-0.3,8.1,2.3,8.1c6.9-19.3,3.7-20.4,19.9-36c0.1-3.6,0-3.7-3.1-3.7c-1.6,1.2-3,3.8-5,4.2c-0.1-0.3-0.1-0.7-0.2-1   c0.3-0.8,1.6-1.3,1.2-2.5c-2.8-0.2-2.4,3.8-4,5.3c0,0,0,0,0,0c-3.9-0.4,1.7-7.7,2.7-9.4c8.6-15.9,33.9-11.2,36.2,6.7l0,0   c-0.1,8.5,5.2,15.9,3.4,24.7c0.3,9.2-10.4,20.3-17.9,10.7c1.5-3.7,2.9-7.3,6.1-9.7c2.3-0.1,4.2,1.5,6.2,0.3   c0.3-3.6-1.4-5.4-5.4-5.8c-10.2,0.5-14.3,13.5-22.1,18.9c-12.6,12.1-23.6,24.6-31.6,40.1c-9.5,10.9-21.5,19.2-30.2,30.9   c-5.4,14.3-13.9,18-25.7,26c-4,0.7-6.5,5.5-11,4C389.5,281,390.2,280.6,390.8,280.2z M515.8,152.3c2-0.1,1.7-2.6-0.5-2.9   C515.5,150.4,515.7,151.4,515.8,152.3c-0.4-0.1-0.8-0.2-1.4-0.4c0.1,1.2,0.1,2.2,0.2,3.5C516.2,154.5,515.8,153.3,515.8,152.3z    M456.8,192.4c-1.4-0.1-1.7,0.4-0.9,1.5C456.2,193.3,456.5,192.9,456.8,192.4z M460.2,191c-0.9-0.7-1.4-0.2-1.7,0.6   C459.3,192.1,459.9,192.1,460.2,191z M513.1,156.8c0.2,0,0.4,0.1,0.6,0.1c0-0.5,0-0.9,0-1.4c-0.1,0-0.3,0-0.4,0   C513.2,155.9,513.1,156.4,513.1,156.8z" />
	<path fill="#E6CCBB" d="M460.9,217.5c4.6,15.1,1.6,32.5-7.1,45.6c-5,5.4-9.2,11.4-10.2,19c-3.8-0.1-7.4,0.2-11.1,0.5   c11.6-20.7,31.8-31.9,23.2-58.6C457.3,222,459.1,219.8,460.9,217.5z" />
	<path fill="#E6CCBB" d="M470.6,201.6c7.9,14.6,1.1,49.9-10,61.1c-0.9-5.4,3.9-10.5,3.7-16.1c1.5-4.7,0-9.7,1.4-14.3   c0.2-7,3-15.4-1.4-21.5c0.3-0.6,0.6-1.2,0.9-1.9c1.2,1.5,0.7,3.5,2.1,4.8c0.8-2.9,0.7-4.1-0.6-7.8   C467.9,204.2,468.9,202.5,470.6,201.6z M468.3,220.6c1.7-1.2,1.5-3.9-0.1-5.3C467.8,217.3,467.6,218.8,468.3,220.6z M468.5,226.5   c1.4-1.4,1.4-1.4,1.4-3C468.1,224.8,468,225,468.5,226.5z M468.9,234.5c1-0.7,1.8-1.4,1.6-2.9C469.1,232.3,469.1,233.4,468.9,234.5   z M467.6,243c0.4-0.9,0.5-1.2,0.6-1.6C467.5,241,467.2,241.5,467.6,243z" />
	<path fill="#E5CBBA" d="M483.1,188.3c1.9,7.6,9.3,12.6,11.2,20.1c-3.5,0.1-6.4-2.6-8.3-5.4c0.4-0.1,0.7-0.1,1.8-0.3   c-0.7-0.7-0.9-1-1.3-1.4c-0.4,1-0.5,0.9-0.4,1.7c-1-0.4-1.7-1.1-2.1-2.1c1-1.5,0.7-2.1-1.5-2.7c0,0.5,0.1,0.9,0.1,1.3   c-1.4-1.9-2.8-3.7-4.2-5.6c0.2-0.2,0.4-0.5,0.7-0.9c0.7,0.8,1.3,1.5,2.1,2.6c0.5-1.9-0.5-3-1-4.3   C481.1,190.3,482.1,189.3,483.1,188.3z" />
	<path fill="#E5CBBA" d="M520.1,195.5c-1.2-2.4-2.4-4.9-3.6-7.2c0.9-6,10.3-2.9,14.6-9.6C530.2,186.1,524.2,190.1,520.1,195.5z" />
	<path fill="#967264" d="M509.5,161.4c3.9,0.4,5.6,2.2,5.4,5.8c-2,1.3-4-0.4-6.2-0.3c-3.1,2.4-4.6,6.1-6.1,9.7   c-1.5-2.1-2.4-4.2-3.4-6.6c1.6-4.2,6.9-5.9,10.9-7.6C509.8,162,509.7,161.7,509.5,161.4z M512.9,164.5c-0.6-1.3-0.6-1.4-1.9-0.3   C511.5,165,512.1,165.1,512.9,164.5z" />
	<path fill="#AA8678" d="M372.8,284.3c0.1-0.3,0.2-0.6,0.3-0.9c6.2,1.4,12.1-1,18.3-0.3c0.1,0.8,0.2,1.3,0.3,1.9   C386.8,288.4,376.8,289.2,372.8,284.3z" />
	<path fill="#1C1411" d="M509.5,161.4c0.1,0.3,0.3,0.6,0.5,1.1c-3.8,1.2-7.1,3.3-10.2,5.8c-0.2-0.2-0.5-0.5-0.7-0.7   C502.1,164.7,504.9,160.6,509.5,161.4z" />
	<path fill="#91695D" d="M391.4,281.6c3.3-0.4,5.2-3.9,8.5-4.2c-1.6,2.6-3.6,4.6-6.2,6.3C392.9,282.9,392.3,282.3,391.4,281.6z" />
	<path fill="#2E1E1B" d="M391.4,281.6c0.5,0.4,1,0.9,1.5,1.3c-0.5,0.7-0.9,1.4-1.3,2.1c-0.1-0.6-0.1-1.1-0.3-1.9   c-1.6-0.1-3.1-0.2-4.7-0.3c-0.3-0.2-0.5-0.5-0.8-0.7c0.1-0.2,0.1-0.4,0.2-0.6C387.8,281.3,389.6,281.3,391.4,281.6z" />
	<path fill="#E5CBBA" d="M520,205.8c-1.1-1.7-1.1-8,0-9.7C520,199.3,520,202.6,520,205.8z" />
	<path fill="#020101" d="M517.2,141.3c0.1-0.4,0.1-0.8,0.2-1.3C518.1,140.8,517.7,141,517.2,141.3   C517.2,141.3,517.2,141.3,517.2,141.3z" />
	<path fill="#E6CCBB" d="M461.6,216.2c0,0.6,0.1,1.2-0.7,1.4C461.2,217.1,461.4,216.6,461.6,216.2z" />
	<path fill="#B28C7D" d="M386.6,252.8c-2.6,0.5-5-1.1-8.2-0.6c7.8-20.5,11.7-42.9,25.2-60.4c5.1-2.5,4.2-8.3,6.8-12.6   c3-5.2,4.6-11.1,8.5-15.6c5-17.3-0.5-25,20.6-30.9c0.3,0.3,0.6,0.6,0.9,0.8c-3.2,5.6-5.3,11.6-6.5,18c-0.4,0.3-0.7,0.7-1.2,1.1   c-1.1-2.9-2.1-5.3-3.6-8.1c-5,8.8,4.8,18.8,4.1,28.5c-8.3,9.7-11.4,21.9-15.8,33.6C409.9,223.5,396.4,237.2,386.6,252.8z    M409.5,196.8c-0.9-2.2-1.9-2.5-4.7-1.7C406.2,196.3,407.7,196.7,409.5,196.8z M405.4,200c1.1,0.4,2,1.3,3.4,0.7   C408.4,198.6,406.3,198,405.4,200z M390.4,243.8c2-0.5,2.2-0.8,2.6-3.3C391.3,241.1,390.8,242.3,390.4,243.8z M394.8,237.3   c-1.1-1.3-2.3-0.1-1,1C394.5,238,394.4,237.9,394.8,237.3z M395.9,232.8c-0.5,0.5-0.9,0.9-0.4,1.3   C396.3,233.9,396.4,233.7,395.9,232.8z" />
	<path fill="#F5DDCE" d="M457.5,172.5c-2.2,4.6-4.9,8.9-7.7,13.1c-0.4,0.1-0.8,0.3-1.2,0.4c-6.2-9.1-8.1-19.5-11.2-29.5   c-2.8-10,4.1-18.6,7.6-27.7c0.7-0.5,1.9-1.4,3.2-2.3c0.9,2.4,0.9,5.8,3.8,6.4c14.5,16.5,26.4-13.1,39.7-9.9c0,0.2-0.1,0.5-0.1,0.7   c-16.3,5.3-14.3,19.5-22.1,28.6c-0.4-0.1-0.9-0.2-1.2-0.3c-0.3-2.6-1.9-5.1-0.3-7.4c0.2-0.7,0.2-1.2-0.6-1.4   c-3.4,2.5-5.5,7.5-3.4,10.9c0.2,1.7-0.8,3.8,0.7,5c0.5,2.6-2.5,4.7-3.5,7c-3-6.8-0.4-14.6-3.5-21.8   C453.1,152.6,453.6,164.3,457.5,172.5z M451.6,165.1c1.2-3,1.2-3.2-0.2-4.5C450.6,162.1,450.7,163.4,451.6,165.1z M448.2,170.4   c-1.4,1.4-1.5,2.7-1.8,4.5C447.9,173.6,448.9,172.6,448.2,170.4z M451.7,158.2c0.5-2.2,0.5-2.2-0.8-2.8   C450.7,156.8,450.7,156.8,451.7,158.2z M449.3,169.7c1.7-1.5,1.7-1.5,1.5-2.8C449.5,167.7,449.5,167.7,449.3,169.7z" />
	<path fill="#977264" d="M406.8,256.5c-0.2-0.6-0.8-0.6-1.3-0.6c9.7-8.5,13.9-21.9,21.3-32.4c7.1-9.6,12.4-20.8,20.3-29.5   c10.8-16.3,19-34.2,31.2-49.9l0,0c0.9,0,2.4-1.4,1.4-2.2c0.1-0.7-0.2-1.5,0.7-2c0.1,0.5,0,1.1,0.7,1.3c0.1,0.3,0.1,0.7,0.2,1   c2-0.5,3.4-3.1,5-4.2c3.1,0,3.2,0.1,3.1,3.7c-16.3,15.7-13,16.8-19.9,36c-2.7,0-1.9-6.2-2.3-8.1c-1.3-0.2-2.2,0.9-3.6,1.4   c-4.2,6.5-7.6,14.1-10.8,21.2c0.5,0.8,1.8,0.2,1.9,1.4c-2.4,0-2.4,0.1-3.2,2.3c0.4,0.1,0.8,0.2,1.2,0.3c-0.4,0.4-0.8,0.8-1.3,1.3   c1.1,1,2.1,2,3.4,3.2c-0.6,0.6-1.1,1.2-1.7,1.8c-2,0-3.9,0-5.9,0c-8.2,7.5-11.6,18.7-16.9,28.3c-3.5,8.8-11.2,14.3-16.5,21.8   c0-0.6-0.1-1.3-0.1-2.4c-1.5,1.1-2.8,2-1.6,3.7c0.3,0,0.6,0.1,1,0.1c-1.4,2.6-3,4.6-4.8,7c-0.3-0.4-0.5-0.6-0.7-0.9   C408.7,258.5,408.6,257.8,406.8,256.5z M469.1,166.6c1.8-3.3,1.8-3.4,1.1-5.9C468.8,162.4,468.3,164.1,469.1,166.6z M450,200.4   c-3-0.3-3-0.3-4.4,0.7C447.2,201.9,448.4,201.8,450,200.4z M469.5,170c1,0,1.4-1.3,0.9-1.9C469.5,168,468.9,169.2,469.5,170z    M452.5,201.4c-0.2-1.9-1.3-1.1-2.5,0C451.3,201.4,451.9,201.4,452.5,201.4z M417.5,245.8c-0.4-0.4-0.6-0.5-0.8-0.7   C415.6,246.3,416.2,247.1,417.5,245.8z M421.4,241c-0.4-0.2-0.7-0.3-0.9-0.4C419.9,241.7,420.8,242,421.4,241z" />
	<path fill="#B28C7D" d="M462.4,135.8c6-12,6.1-35.7,14.7-43.8c1.1,0.3,2.4,0.6,3.9,0.9c1.9,4.3,3.8,9.4,7.9,12.3   c-0.3,3.6-1.3,7.1-0.8,10.8c0.1,0.7,0.2,1.4-0.7,1.7c-0.3-0.2-0.7-0.4-1.2-0.8c-0.2,1.8,1.4,2.2,1.9,3.5   C477.7,122.7,473.1,134.7,462.4,135.8z M484.7,115.4c-0.9-2-1.3-2.3-2-1.5C482.8,114.8,483.1,115.5,484.7,115.4z" />
	<path fill="#967264" d="M425.6,139.2c-5.8,7.7-3.3,17.4-7.3,25.4c-4,3.9-4.9,10-8,14.7c-2.6,4.2-1.6,10.1-6.8,12.6   c-13.6,17.5-17.4,39.9-25.2,60.4c2.4,0.2,4.3-0.4,6.2,0.7c-3,0.3-6,0.1-9,0.1c5.1-9.3,6-20,8.9-30c2.7-11.5,9.6-21.2,15.7-31   c6.2-11.5,12.8-23.2,15.7-36C417.4,149.5,420.5,143.4,425.6,139.2z" />
	<path fill="#E5CBBA" d="M436.6,150.8c1.7,12.2,5.4,24.4,12,35.2c0.4-0.1,0.8-0.3,1.2-0.4c-1.2,3.3-3,6.2-6,8.4   C436.9,181.2,431.8,165.4,436.6,150.8z" />
	<path fill="#E4CABA" d="M459.5,154.3c0,1.5,0,3,0,4.5c-0.4-0.3-0.8-0.6-1.4-1c-0.6,1.5-0.5,2.5,0.4,3.6c0.4-0.6,0.7-1,1-1.5   c0.6,2,0.2,4.9,1.5,6.4c-0.2,0.4-0.3,0.7-0.6,1.4c-0.6-1.1-0.9-1.9-1.3-2.6c-2.2,1.4,0.5,5.7-1.6,7.5c-3.9-8.2-4.4-20,0-28.1   c1.5,3,1.4,5.8,1.3,8.6c-1.3,1-1.3,1-0.4,2.8C458.9,155.3,459.2,154.8,459.5,154.3z" />
	<path fill="#E2C9B8" d="M463.8,153.7c-2.1-3.1,0.5-8.1,3.5-10.4c-0.1,0.6-0.2,1.2,0.6,1.4c-1.5,2.3,0.1,4.8,0.3,7.4   c0.3,0.1,0.8,0.2,1.2,0.3c-1,1.8-2,3.6-3,5.4c-0.6-0.2-1.1-0.4-1.8-0.6c0,0.7-0.1,1.4-0.1,2c-1.5-1.2-0.5-3.3-0.7-5   c0.4,0.2,0.7,0.4,1.1,0.6c0.3-1.1,0.6-1.9-0.3-2.9C464.3,152.6,464,153.2,463.8,153.7z M466.3,149.7c-0.3-0.2-0.5-0.4-0.8-0.6   C464.9,149.7,465.9,150.6,466.3,149.7z" />
	<path fill="#916E60" d="M429.7,157.9c-1.9-3-2.3-6.3-2-9.8c0.4,0.4,0.9,0.9,1.3,1.3c1.5-1.2-0.3-2-1.3-1.9   c-0.1-1.1,0.5-1.9,1.4-2.9c1.4,2.8,2.5,5.2,3.6,8.1c0.4-0.4,0.8-0.7,1.2-1.1c-0.5,2.8,0.1,6.1-2,8.4c-0.4-1.4-0.3-3-2-4   C429.8,156.8,429.7,157.4,429.7,157.9z M429.2,151.6c-0.8,1.5-0.7,1.7,1,2.7C430.6,153.2,430.4,152.4,429.2,151.6z" />
	<path fill="#16100F" d="M462.4,135.8c3.4-0.3,6.3-1.6,9-3.5c0.2,0.2,0.5,0.4,0.7,0.6c-3.6,3.8-12.9,7.7-16.7,2.8   c0.2-0.2,0.5-0.5,0.7-0.7c0.7,0.2,1.5,0.5,2.3,0.7c0.7-1.8,1.3-3.4,1.9-5c1.8,1,0.1,3.5,0.1,5.1   C461.1,136.5,461.8,136.5,462.4,135.8z" />
	<path fill="#A38375" d="M388.8,257.9c0,0.5,0,1.1,0,1.8c-1.8,0.1-3-0.7-4.2-1.6c-3-2.2-6-1.7-9.6-2.5c2.8-2,5.7-1.1,8.9-1.3   C385.5,255.5,387.1,256.7,388.8,257.9z" />
	<path fill="#8D7062" d="M403.3,257.2c-4.7,0.8-9,4.2-13.9,4.1C391.1,255.3,398.5,257.3,403.3,257.2z" />
	<path fill="#261C19" d="M429.7,157.9c0-0.6,0.1-1.1,0.2-1.9c1.6,1,1.6,2.6,2,4c-0.8,0.2-0.6,0.9-0.8,1.5   C430.6,160.3,430.1,159.1,429.7,157.9z" />
	<path fill="#322C28" d="M456.1,135c-0.2,0.2-0.5,0.5-0.7,0.7c-1.2-0.9-2.3-1.8-3.5-2.8c0.3-0.3,0.5-0.5,0.8-0.8c0.2,0,0.4,0,0.6,0   C454.3,133.1,455.2,134,456.1,135z" />
	<path fill="#261C19" d="M431.8,160c0.6-0.6,1-1.4,1.4-2.2c0,1.1,0,2.2,0,3.2C431.8,161.4,431.9,160.7,431.8,160z" />
	<path fill="#6B635B" d="M440.3,133.7c-0.3-0.3-0.6-0.6-0.9-0.8c0.4-0.7,0.9-1.4,2.1-1.1C441,132.4,440.6,133.1,440.3,133.7z" />
	<path fill="#977264" d="M476.9,142.6c0.1,0.6,0.1,1.3,0.8,1.5c-0.4,0.2-0.7,0.4-1.1,0.6C476,143.8,476.2,143.1,476.9,142.6z" />
	<path fill="#696764" d="M491.5,123.8c0-0.2,0.1-0.5,0.1-0.7c0.6,0.1,1.2,0.2,1.8,0.3c0,0.1,0,0.3,0,0.4   C492.8,123.8,492.1,123.8,491.5,123.8z" />
	<path fill="#261C19" d="M431.7,163.6c-0.2-0.5-0.4-1-0.6-1.5C431.9,162.4,431.8,163,431.7,163.6z" />
	<path fill="#322C28" d="M451.3,132.8c-0.2-0.2-0.5-0.4-0.7-0.6C450.8,132.4,451,132.6,451.3,132.8z" />
	<path fill="#322C28" d="M452,130.8c0.2,0.3,0.3,0.5,0.5,0.8C452.3,131.3,452.1,131,452,130.8z" />
	<path fill="#AD8879" d="M391.8,269.8c-7.3,2.9-15.2-2.6-21.7-5.6C375.9,261.3,388.3,264.2,391.8,269.8z" />
	<path fill="#AE897A" d="M377.6,273.2c2.5-1.6,11.8,1.8,14.6,3.3c-2.5,4.5-9,1.5-13.3,2.2c-1.8-1.4-3.6-2.7-5.5-4.1   C374.5,272.9,376.7,274.8,377.6,273.2z" />
	<path fill="#A98577" d="M375.5,271.7c-4.3,0.7-6.9-2.1-11-3.3c-0.7-1.3,1.7-2.6,2.6-3.6c1.9,0.7,3.8,1.3,5.7,2c0,0.8,0,1.6,0,2.5   C373.7,270.1,374.6,270.9,375.5,271.7z" />
	<path fill="#A68476" d="M365.1,274.4c0.3-0.4,0.5-0.7,0.8-1.1c2,1,3.3,2.9,5.7,3c3.3,0.1,7.5,4.2,1.9,4.5   C371.1,278.2,365.8,278.4,365.1,274.4z" />
	<path fill="#927164" d="M377.6,288.5c-3.3,3.9-10.8-1-8.8-6.1C372.5,282.2,371.6,288.2,377.6,288.5z" />
	<path fill="#9A7B6E" d="M390.1,288.1c-0.2,1.3-1.4,2-2.2,2.9c-3,0.5-5.7-0.4-9.3-1.5C382.9,288.1,385.9,288.4,390.1,288.1z" />
	<path fill="#876A5D" d="M388.9,281.3c-0.5,0-1,0.1-1.6,0.1c-1.1-1.1-2.4-0.5-3.7-0.1c0.8,0.1,1.6,0.2,2.5,0.3   c0,0.2-0.1,0.4-0.2,0.6c-2.9,0-5.7,0.3-8.9,0c0.6-0.7,1-1.3,1.4-1.9c4.1,0,8.3,0,12.4,0C390.2,280.6,389.5,281,388.9,281.3z" />
	<path fill="#916A5D" d="M365.1,274.4c0.7,3.9,6.1,3.8,8.4,6.4C370.4,282.5,362.7,278.3,365.1,274.4z" />
	<path fill="#66564C" d="M377.6,273.2c-1,1.6-3.2-0.2-4.2,1.4c-0.8-0.5-1.4-0.2-1.9,0.7c-1.6-0.9-3.4-1.6-4.5-3.5   C370.5,272.4,373.8,273.9,377.6,273.2z" />
	<path fill="#8C6D60" d="M375.5,271.7c-0.9-0.8-1.8-1.6-2.7-2.3c0-1,0-1.7,0-2.5C374.5,267.4,377.7,270.3,375.5,271.7z" />
	<path fill="#261C19" d="M377.6,288.5c-2.6-0.6-5-1.5-6.1-4.3c0.4,0,0.8,0,1.2,0c1.2,2.2,3.6,2.4,5.7,3.4   C378.2,287.9,377.9,288.2,377.6,288.5z" />
	<path fill="#645249" d="M384.4,272.2c-2.2,0.3-4.7-1.2-6.8-2.4C379,269.1,383.3,271,384.4,272.2z" />
	<path fill="#624940" d="M370.1,261.9c0.1-1.9,2.4-1.4,3.2,0C372.1,261.9,371.2,261.9,370.1,261.9z" />
	<path fill="#766459" d="M390.2,272.5c0,0.4,0,0.9,0,1.3c-0.8-0.2-1.6-0.5-2.4-0.7c0-0.2,0-0.3,0-0.5   C388.6,272.6,389.4,272.5,390.2,272.5z" />
	<path fill="#020101" d="M379,254.3c-1.1,0.1-2.1,0.2-3.1-0.1C377,253.8,378.1,253.2,379,254.3z" />
	<path fill="#020101" d="M380.4,253.1c0.9,0,1.8,0,2.7,0C382,254,381.6,254,380.4,253.1z" />
	<path fill="#D08F75" d="M496.4,422.4c-3-8.1,7.8-2.7,2.6,4.4c-0.6-0.3-0.9-1.3-1.8-0.8C496.9,424.9,496.7,423.6,496.4,422.4   c0.3,0,0.7-0.1,1-0.1c0.3-1,0.7-2-0.6-2.5C495.9,420.6,496.4,421.5,496.4,422.4z" />
	<path fill="#3B2F29" d="M505.5,63.1c-0.3,0.6-0.6,1.1-1,1.7c-0.4-1.4,0-2.5,0.9-3.4C505.5,61.9,505.5,62.5,505.5,63.1z" />
	<path fill="#B28C7D" d="M507.5,71.1c-0.2,0-0.5,0-0.7,0C507.1,70.3,507.3,70.5,507.5,71.1z" />
	<path fill="#856458" d="M509,85c0.2-0.7,0.4-1.4,0.6-2.1c0.2,0,0.5,0,0.7,0c0.2,1.4,0.4,2.8,0.7,4.2c-0.2,0.2-0.5,0.5-0.7,0.7   c-0.9,0-1.9,0-2.8,0c0.4-0.7,0.9-1.4,1.3-2.1c0.2,0.1,0.4,0.2,0.6,0.3C509.6,85.4,509.5,85.1,509,85z" />
	<path fill="#8E6B5E" d="M508.2,90.5c-0.1-2.2,2.3-1.7,2.2,0.5c-0.7,0.1-1.1,0.1-1.5,0.2l0,0C508.7,91,508.4,90.8,508.2,90.5z" />
	<path fill="#47322C" d="M490.8,95.4c0.2-0.2,0.4-0.4,0.6-0.6c1.4,0.6,2.9,1.2,4.3,1.9C494.7,98.1,491.9,96.4,490.8,95.4z" />
	<path fill="#402E29" d="M479,83.6c-0.4-0.5-0.8-1-1.2-1.5c0.1-0.2,0.3-0.3,0.4-0.5c0,0,0.3-0.1,0.3-0.1c0.8,0.7,1.7,1.5,2.5,2.2   C480.1,84.6,479.6,83.6,479,83.6z" />
	<path fill="#422E29" d="M509,85c0.5,0.1,0.7,0.4,0.5,0.9c-0.2-0.1-0.4-0.2-0.6-0.3C508.9,85.4,508.9,85.2,509,85z" />
	<path fill="#332B28" d="M508.2,90.5c0.2,0.2,0.5,0.5,0.7,0.7C508.7,91,508.4,90.8,508.2,90.5z" />
	<path fill="#B18B7C" d="M456.1,135c-0.9-0.9-1.8-1.9-2.8-2.8c1-6.3,4-12.2,8.8-16.7c-1,7.2-1.2,13.4-3.8,20.2   C457.6,135.4,456.8,135.2,456.1,135z" />
	<path fill="#382924" d="M460.3,128.7c-0.2-1.2,0-2.3,0.7-3.3c0.3,0,0.7,0.1,1,0.1C462.3,127.6,462,128.1,460.3,128.7z" />
	<path fill="#513C35" d="M461.6,121.8c0-0.2,0.1-0.4,0.1-0.7c0.4-0.2,0.8-0.3,1.5-0.6c-0.1,0.8-0.2,1.3-0.3,2.2   C462.2,122.2,461.9,122,461.6,121.8z" />
	<path d="M478.2,81.6c-0.1,0.2-0.3,0.3-0.4,0.5c-0.1-0.2-0.2-0.4-0.2-0.6C477.8,81.5,478,81.5,478.2,81.6z" />
	<path fill="#050303" d="M468.7,377.1c-0.6,4.3,1.1,9.8-0.9,13.4c-2.6-13.1-2.2-27-6.9-39.6l0,0c0-1.2,0.2-2.5-0.6-3.6   c-0.8-8.7-1.4-17.1-0.6-25.8c-2.5,1.2-5.2,5.6-7.8,3c-0.1-1.1-1.1-0.5-1.6-1c2.6-0.8,4.1-2.3,6.7-3.4c-4-3.3-7.8-6.7-9.1-11.7l0,0   c0.3-0.7,0.7-1.3,1-2c3.7,7.1,9.4,15.6,18.9,13.9c-1.9,1.2-3.9,0.3-6.1,0.9C461,340.3,466.6,358.4,468.7,377.1z" />
	<path fill="#D59378" d="M483.3,433.4c-3.6-9.9-5.1-19.4-5.7-28.6C488.3,393.2,486.9,428.5,483.3,433.4z M482.2,423.8   c1.2-2.9,1.2-2.9,0.4-4.6C480.9,421.8,480.9,421.8,482.2,423.8z M482.1,416.7c1.5-0.9,1.3-2.4,0-3.4   C481.7,415.2,481.7,415.2,482.1,416.7z M482.3,411.5c0.1-2,0.1-2-1-1.7C481.3,410.6,481.6,410.6,482.3,411.5z" />
	<path fill="#AB7764" d="M446.3,297.5c-1.1-2.2-1.2-6.2,0.7-8.1c0.1,1.9,0.1,3.6,0.2,5.3l-0.2,0   C446.3,295.5,446.3,296.5,446.3,297.5z" />
	<path fill="#150E0C" d="M488.9,451.8c2.1,1.1,1.2,3.2,0.3,5.1C488.4,455,488.4,455,488.9,451.8z" />
	<path fill="#160D0B" d="M489.2,460.9c0.4,1.5,0.4,1.5-0.1,3C487.8,462.4,487.9,462.2,489.2,460.9z" />
	<path fill="#996C5A" d="M487.7,471.9c0.5,0.8,0.4,1.3,0.3,2.3C486.6,473.9,486.1,472.5,487.7,471.9z" />
	<path fill="#D69479" d="M447.9,308.5c0.2,0.7,0.5,1.4,0.7,2.1C447.4,310.2,447.8,309.3,447.9,308.5z" />
	<path fill="#D69479" d="M462.3,419.5c-3.1,3.3-2.4,11.5-7.9,11.8c-3-3.9-1.2-9.8,2.1-12.9c1.2-0.2,2.1,0,3.6,0.3   c0.2-0.2,0.5-0.6,0.8-1.1C461,419.4,461,419.4,462.3,419.5z M459.2,422.2c1.2-1.2,1.2-1.2,0.6-2.2   C459,420.6,458.5,421.2,459.2,422.2z" />
	<path fill="#C78B72" d="M461,350.9c1.8,6.4,4.2,13.3,4.2,20.2C463.6,364.7,460.3,357.9,461,350.9z" />
	<path fill="#1B0908" d="M451.9,324.5c0.2,0.8,0.9,0.7,1.4,0.8c-1.7,0.8-3.5,1.3-5.4,1.2c0-0.3,0-0.7-0.1-1.2   C449.3,325.1,450.6,324.8,451.9,324.5z" />
	<path fill="#2A201C" d="M462.3,419.5c-1.3-0.1-1.3-0.1-1.3-1.9c0.8-1,0.8-1,2-1.6C463.6,417.3,462.5,418.3,462.3,419.5z" />
	<path fill="#5A3D33" d="M443.9,497.6c0.5,1.7,0.4,2-2.1,3.8C442.1,499.2,442.2,499.1,443.9,497.6z" />
	<path fill="#010101" d="M446.5,496.2c0.8-1.6,1.6-3.1,2.7-5.4C449.1,493.6,447.8,495,446.5,496.2z" />
	<path fill="#644A40" d="M452.9,440.4c-0.1-0.8-0.2-1.5-0.4-2.8C453.8,438.6,455,439.6,452.9,440.4z" />
	<path fill="#9C6A58" d="M440.5,500.7c-0.7,0.7-1.2,1.2-1.8,1.7C438.2,500.8,439,500.1,440.5,500.7z" />
	<path fill="#A37260" d="M437.3,503.5c-0.6,0.1-1.1,0.2-1.6,0.3C435.6,502.2,437,502.1,437.3,503.5z" />
	<path fill="#C78B72" d="M460.4,347.3c0.8,1.1,0.7,2.4,0.6,3.6C459.9,350,460.4,348.6,460.4,347.3z" />
	<path fill="#6D554D" d="M452,432.6c-0.1,0.5-0.1,0.9-0.2,1.4c-0.1,0-0.3,0-0.4,0c0-0.5-0.1-1-0.1-1.5   C451.5,432.6,451.7,432.6,452,432.6z" />
	<path fill="#050303" d="M467.9,394c1,0.9,1,1.2,0,2.1C467.9,395.4,467.9,394.7,467.9,394z" />
	<path fill="#624337" d="M435.1,327.4c3-0.5,5.9-0.9,9.2-1.4C442.4,327.8,439.7,328.3,435.1,327.4z" />
	<path fill="#46211B" d="M462.3,330.8c-1.3-2.6-0.4-6.4-0.5-9.5c4.1,0.1,7.5-1.9,11.5-0.4c-3.5,0.4-7,0.7-10.7,1.1   C461.8,324.9,462.7,327.9,462.3,330.8z" />
	<path fill="#795445" d="M446.3,297.5c0-1,0-2,0.7-2.8c0.4,2.4,0.7,4.9,1.2,7.8C446.2,301.2,446.5,299.5,446.3,297.5z" />
	<path fill="#B67C65" d="M475.8,318c0.7-1.2,0.7-1.2,5.2-0.9C479.7,318.8,477.6,318.5,475.8,318z" />
	<path fill="#343129" d="M459.5,574.5c0.5-6.7,1.9-13.3,5.9-18.9c0.9,0.8,0.3,1.6,0.4,2.2c-3.5,4.6-3.8,10.5-4.8,16   c-0.2,0.2-0.4,0.5-0.7,0.7C460,574.5,459.7,574.5,459.5,574.5z" />
	<path fill="#D69479" d="M469.2,424.6c-0.2,0.2-0.3,0.5-0.5,0.7C468.9,425,469,424.8,469.2,424.6z" />
	<path fill="#434139" d="M428.3,578c-0.3,0.9-0.7,1.8-1.1,2.6c-2.5-1.3,1-5.9,1-8.3c0.2,0.3,0.5,0.5,0.7,0.8   C428.8,574.7,428.5,576.4,428.3,578z" />
	<path fill="#4D4D45" d="M429.6,563.3c0-3.1,0.5-6.1,1.4-9.1c0.3,0.7-0.3,1.8,0.8,2.2c-0.5,2.5-1,5.1-1.5,7.6   C430.1,563.8,429.9,563.5,429.6,563.3z" />
	<path fill="#58544B" d="M429.6,563.3c0.2,0.3,0.4,0.5,0.6,0.8c0,0.4,0,0.9,0.1,1.3c-1.2,1.9,0,4.5-1.2,6.5   C427.6,569.3,428.9,566,429.6,563.3z" />
	<path fill="#38332D" d="M431.8,556.5c-1.5-1.8-0.9-4.9,1.2-6.5c0.2,0.7,0.3,1.2,0.4,1.7C432.8,553.2,432.3,554.8,431.8,556.5z" />
	<path fill="#E0D3B1" d="M454.2,567c-0.2,0.9,0,2-0.8,2.7C453.3,568.6,453.1,567.6,454.2,567z" />
	<path fill="#1B1715" d="M428.4,570.4c0.2,0.5,0.5,1,0.7,1.5c-0.1,0.4-0.1,0.8-0.2,1.2c-0.2-0.3-0.5-0.5-0.7-0.8   C428.3,571.7,428.4,571.1,428.4,570.4z" />
	<path fill="#EADCB7" d="M429.9,567.6c-0.1-0.8-0.2-1.6,0.4-2.2C430.4,566.1,430.7,567,429.9,567.6z" />
	<path fill="#7E7A68" d="M459.5,574.5c0.3,0,0.6,0,0.8,0c-0.9,1.2-1.6,2.4-1.7,3.9C458,576.9,457.9,575.5,459.5,574.5z" />
	<path fill="#2B201C" d="M477.5,560c-0.1-0.5,0.1-1.4,0.3-1.9c1,0.1,1.2,0.9,1.3,1.7c0.7,1.6,3.2,0.7,4.5,1   C484,564.2,477.4,563,477.5,560z" />
	<path fill="#947163" d="M477.6,560.7c0.3,0.4,0.5,0.9,0.8,1.3C477.6,561.8,477.6,561.3,477.6,560.7z" />
	<path fill="#5B514B" d="M482.5,199.5c0-0.4-0.1-0.8-0.1-1.3c2.2,0.6,2.5,1.2,1.5,2.7C483.5,200.5,483,200,482.5,199.5z" />
	<path fill="#1D1513" d="M413.1,253.7c-0.3,0-0.7-0.1-1-0.1c-1.3-1.7,0.1-2.6,1.6-3.7C413.7,251.7,413.9,252.4,413.1,253.7z" />
	<path fill="#1A1412" d="M452.6,196.1c-0.4-0.1-0.8-0.2-1.2-0.3c0.8-2.3,0.9-2.3,3.2-2.3C454,194.3,453.3,195.2,452.6,196.1z" />
	<path fill="#0B0807" d="M515.9,152.4c-0.2-1-0.3-1.9-0.5-2.9C517.5,149.7,517.8,152.2,515.9,152.4L515.9,152.4z" />
	<path fill="#231B19" d="M515.8,152.3c0,1,0.4,2.2-1.2,3.1c-0.1-1.3-0.2-2.3-0.2-3.5C515.1,152.1,515.5,152.3,515.8,152.3   L515.8,152.3z" />
	<path fill="#5F4C44" d="M481.1,141.1c-0.7-0.2-0.6-0.8-0.7-1.3c0.4-0.6,0.7-1.5,1.9-1.1C482.6,139.8,481.4,140.3,481.1,141.1z" />
	<path fill="#1F1815" d="M406.8,256.5c1.8,1.3,1.9,2,0.7,3.4C406.8,258.8,406.4,257.7,406.8,256.5z" />
	<path fill="#977264" d="M456.8,192.4c-0.3,0.5-0.6,0.9-0.9,1.5C455.1,192.9,455.4,192.3,456.8,192.4z" />
	<path fill="#43332E" d="M479.7,141.8c1,0.8-0.5,2.3-1.4,2.2C478.8,143.3,479.2,142.5,479.7,141.8z" />
	<path fill="#5A453F" d="M460.2,191c-0.3,1.2-0.9,1.2-1.7,0.6C458.8,190.7,459.3,190.3,460.2,191z" />
	<path fill="#2A2622" d="M513.1,156.8c0.1-0.4,0.1-0.9,0.2-1.3c0.1,0,0.3,0,0.4,0c0,0.5,0,0.9,0,1.4   C513.5,156.9,513.3,156.8,513.1,156.8z" />
	<path fill="#2D2723" d="M468.3,220.6c-0.7-1.8-0.5-3.3-0.1-5.3C469.8,216.7,470,219.4,468.3,220.6z" />
	<path fill="#5A4E48" d="M468.5,226.5c-0.4-1.4-0.3-1.7,1.4-3C469.9,225,469.9,225,468.5,226.5z" />
	<path fill="#A08B80" d="M468.9,234.5c0.2-1.1,0.2-2.3,1.6-2.9C470.7,233.1,469.9,233.9,468.9,234.5z" />
	<path fill="#8F7D73" d="M467.6,243c-0.4-1.5-0.1-2,0.6-1.6C468.1,241.7,468,242.1,467.6,243z" />
	<path fill="#5B4F48" d="M486,203c-0.1-0.8,0-0.7,0.4-1.7c0.4,0.4,0.7,0.7,1.3,1.4C486.8,202.9,486.4,202.9,486,203   C486,203,486,203,486,203z" />
	<path fill="#221512" d="M512.9,164.5c-0.8,0.6-1.4,0.5-1.9-0.3C512.3,163.1,512.3,163.1,512.9,164.5z" />
	<path fill="#B28C7D" d="M386,281.5c-0.8-0.1-1.6-0.2-2.5-0.3c1.3-0.3,2.6-0.9,3.7,0.1C386.9,281.5,386.5,281.5,386,281.5z" />
	<path fill="#28201C" d="M409.5,196.8c-1.8-0.1-3.3-0.5-4.7-1.7C407.6,194.3,408.6,194.6,409.5,196.8z" />
	<path fill="#2A1B19" d="M405.4,200c0.8-2,3-1.4,3.4,0.7C407.4,201.3,406.5,200.4,405.4,200z" />
	<path fill="#1D1613" d="M390.4,243.8c0.4-1.5,1-2.8,2.6-3.3C392.6,243,392.4,243.3,390.4,243.8z" />
	<path fill="#3E302A" d="M427.7,147.5c1.1-0.1,2.8,0.7,1.3,1.9c-0.4-0.4-0.9-0.9-1.3-1.3C427.7,147.9,427.7,147.7,427.7,147.5z" />
	<path fill="#7D6358" d="M394.8,237.3c-0.4,0.6-0.3,0.7-1,1C392.5,237.2,393.7,236,394.8,237.3z" />
	<path fill="#6C524A" d="M395.9,232.8c0.5,0.9,0.5,1.1-0.4,1.3C394.9,233.7,395.4,233.3,395.9,232.8z" />
	<path fill="#0B0909" d="M451.6,165.1c-0.9-1.7-1.1-3.1-0.2-4.5C452.9,162,452.9,162.1,451.6,165.1z" />
	<path fill="#161210" d="M459.5,159.8c-0.3,0.4-0.6,0.9-1,1.5c-0.9-1.1-1-2.1-0.4-3.6c0.6,0.4,1,0.7,1.4,1   C459.5,159.1,459.5,159.5,459.5,159.8z" />
	<path fill="#675853" d="M448.2,170.4c0.7,2.2-0.4,3.2-1.8,4.5C446.7,173.1,446.9,171.8,448.2,170.4z" />
	<path fill="#2C2E2A" d="M463.8,153.7c0.3-0.6,0.5-1.1,0.9-1.9c0.9,1,0.6,1.9,0.3,2.9c-0.4-0.2-0.8-0.4-1.1-0.6   C463.9,154,463.9,153.9,463.8,153.7z" />
	<path fill="#74655F" d="M451.7,158.2c-1-1.4-1-1.4-0.8-2.8C452.2,156,452.2,156,451.7,158.2z" />
	<path fill="#584E49" d="M449.3,169.7c0.2-2,0.2-2,1.5-2.8C451.1,168.2,451.1,168.2,449.3,169.7z" />
	<path fill="#1C1110" d="M459.5,154.3c-0.3,0.5-0.6,1.1-1,1.6c-1-1.8-1-1.8,0.4-2.8C459.1,153.5,459.3,153.9,459.5,154.3z" />
	<path fill="#5E4C48" d="M467.9,144.7c-0.8-0.2-0.8-0.8-0.6-1.4C468.1,143.5,468.2,144.1,467.9,144.7z" />
	<path fill="#241A17" d="M469.1,166.6c-0.9-2.5-0.4-4.2,1.1-5.9C470.9,163.2,470.9,163.3,469.1,166.6z" />
	<path fill="#2C201C" d="M450,200.4c-1.6,1.3-2.8,1.4-4.4,0.7C447.1,200.2,447.1,200.2,450,200.4z" />
	<path fill="#5E453C" d="M469.5,170c-0.6-0.8,0-2,0.9-1.9C471,168.7,470.6,170,469.5,170z" />
	<path fill="#3C2925" d="M452.5,201.4c-0.6,0-1.2,0-2.5,0C451.2,200.3,452.3,199.5,452.5,201.4z" />
	<path fill="#5E473F" d="M417.5,245.8c-1.3,1.3-1.9,0.5-0.8-0.7C416.9,245.3,417.1,245.5,417.5,245.8z" />
	<path fill="#634D43" d="M421.4,241c-0.6,1-1.5,0.7-0.9-0.4C420.7,240.7,421,240.8,421.4,241z" />
	<path fill="#352823" d="M484.7,115.4c-1.5,0.2-1.8-0.6-2-1.5C483.3,113.1,483.7,113.4,484.7,115.4z" />
	<path fill="#9D847A" d="M466.3,149.7c-0.5,0.8-1.5,0-0.8-0.6C465.8,149.3,466,149.5,466.3,149.7z" />
	<path fill="#2B201C" d="M429.2,151.6c1.2,0.8,1.5,1.6,1,2.7C428.5,153.3,428.4,153,429.2,151.6z" />
	<path fill="#54392F" d="M496.4,422.4c0-0.9-0.5-1.8,0.4-2.6c1.4,0.5,1,1.5,0.6,2.5C497.1,422.3,496.8,422.4,496.4,422.4   L496.4,422.4z" />
	<path fill="#020101" d="M482.2,423.8c-1.3-1.9-1.3-2,0.4-4.6C483.3,420.9,483.3,420.9,482.2,423.8z" />
	<path fill="#110B09" d="M482.1,416.7c-0.5-1.5-0.5-1.5,0-3.4C483.4,414.3,483.6,415.9,482.1,416.7z" />
	<path fill="#6C4A3D" d="M482.3,411.5c-0.7-0.9-1-0.9-1-1.7C482.4,409.5,482.4,409.5,482.3,411.5z" />
	<path fill="#523B32" d="M459.2,422.2c-0.7-1-0.1-1.6,0.6-2.2C460.4,421,460.4,421,459.2,422.2z" />
</g>
</svg>