<?xml version='1.0' encoding='utf-8'?>
<svg xmlns="http://www.w3.org/2000/svg" version="1.2" baseProfile="tiny" id="Layer_2_00000060718970702854835910000005753197595068261760_" x="0px" y="0px" viewBox="0 0 900 600" overflow="visible" xml:space="preserve">
<g>
	<path fill="#010101" d="M536.8,154.7c-1.5,5.5-4.1,10.3-8.3,14.4c0.5,12.8,2.1,26.2-2.5,38.3c-4.5,13.4-2,27.7-4.5,41.4   c1,0.8,1.9,1.6,2.8,2.3c10,41.1,10.2,85.7,10.2,128.9c-5.2,1.5-10.6,2.9-16.1,3.9c-2.7,14.3-9.8,26.8-11.9,41.3   c-0.1,16.5,2.2,33-2.1,49.2c-6.9,23.5-11.5,47.3-12.3,71.9c6.5-1.3,14.5,4.1,13.2,11.3c11.1,7,23.1,12.3,36.3,12.7   c10.5,10.7-1.5,23.8-12.9,26.3c-10.5,2.3-21.9-0.2-32.2-1.9c-13.3,7.7-28.1,5.2-42.3,1.8c-0.6-2.2-2-3.7-3.7-5.1   c-10.6,4.2-24.6,3.3-33.8-4c3-6.9,2-14.2,5.2-20.8c3-5.8-0.2-14.5,7.5-17.6c-5.1-22.6-8.9-46.4-14.3-69.3   c-5.8-36.3,31.1-67.2,11.8-103.2c-1.6-1-3.3-2-5.1-3c-0.7-17.7,0.3-35.5-0.4-53.2c-3.1-10.7-5.4-22.4-4.2-33.6   c1.4-10.2,4.5-19.8,9.9-28.5c4.4-6.1,10.5-9.9,11.4-18.4c0.9-0.3,1.6-0.5,2.3-0.7c2-6.1,3.5-12,2.7-18.5   c-5.5,5.4-12.2,9.4-16.6,15.8c-3.2,4.1-5,9.9-9.5,12.6c-0.3-0.3-0.7-0.6-1-0.9c11.6-19.8,29.8-34.1,45.7-50.1   c5.1-6.6,5.5-16.8,12.1-21.9c13.9-9.2,22.9-23.6,33.7-35.8C506,127,488.4,118.8,475,118c-2.2,1.6-4.1,3.1-6.1,4.6   c-0.7-1.6-1.9,1.2-3.1,0.6c3.6-4,9.4-5.6,9.9-11.5c0.3,1-0.5,2.3,0.8,3.1c0,0.6-0.1,1.2-0.1,2c14.5,0.1,29.1,7.9,33.6,22.3   c0.9,0.5,2.4-0.2,2.2,1.2c-11.5,7.5-14.9,21.8-26.6,29.1c-3.5,2.5-6.5,5.4-9.8,8.5c-0.1,1.8,0.2,3.3-1.4,4.9   c-0.2-1.6-0.4-2.6-0.6-4.1c-10.8,25.2-8.9,19.6-27.2,37.4c-2.6,3.8,0.1,9.3-0.1,13.4c-1.5,3.3-3,5.5-3.4,9.1   c25-7.1,49.2,2.6,73.6,7.8c1.1-0.5,1.1-0.5,0.3-1.4c0-1,0-2,0-3c1.9,1.6,1.6,2.9,1.6,5.6c4.3-14.1,0.6-30.3,6.7-44.5   c3.7-10.7,0.3-23.6,1.5-35c0.9-0.2,1.4-0.7,1.4-1.7c2.7-4.4,5.4-8.8,7.6-13.6C536.7,153.2,536.7,154,536.8,154.7z M443,244.3   c-0.2,0-0.4,0-0.7,0c-0.2-0.6-0.2-1.3-0.3-1.9c-0.1,0-0.2,0-0.4,0c-0.1,0.4-0.1,0.8-0.2,1.2l0,0c-0.8,0.3-0.8,0.9-0.7,1.6   c-0.5,0.5-1.1,1.1-2,2.1c3.5-0.2,6-1.6,8.8,0.1c-30.2,5.5-30.2,45.5-24.1,69.3c7.6-1.2,14.6-3.7,22.2-3.4c-6.8,3.4-15,2.8-22.1,5.3   c0.2,18.2-0.2,36.2-0.2,54.4c10.3,2.8,34.1,7.7,41.8,1c0.1-20.2-6.5-40.5-5-60.8c1-0.2,1.2,0.4,1.2,1.1c1.4,16.8,3.8,33.7,5.2,50.3   c-0.7,19,5.1,15.4,20.6,16.9c11.2,1.6,22.4,1.8,33.6,0.1c1.8-1-0.3-3.3,1.3-4.5c0.1,1.3-0.1,2.7,0.9,3.7c3.5,0.3,6.6-1.3,10-1.9   c-5-37.3,4.9-87.7-12.2-120.8c0.5-0.5,1-1,1.6-1.6c-1-0.5-1.7-0.9-2.3-1.2c-0.1-1.6-0.2-3.1-0.3-4.7c-0.6,0.2-0.9,0.3-1.4,0.5   c-0.1,2,0.5,4-0.8,5.7c-0.2,0-0.4-0.1-0.6-0.2c0.2-0.9,1.4-1.6,0.4-2.6c-0.3,0.1-0.7,0.3-1,0.4c-0.8-1.7,1.2-2.7,1.3-4.4   c-1.6-1.7-3.4-1.7-5.5-2.6c-1.1,2-1.4,4-1.4,6c-0.4,0-0.7,0-1.1,0c-0.8-2.3,0.1-4.3,0.9-6.5c-0.7,0-1.3,0-1.9,0   c-0.3,2.1-0.5,4-1.4,5.8c-1.6-0.4-0.5-1.9-1.4-2.4c-0.3,0.5-0.6,0.9-1,1.5c-0.6-2.2,0-3.9,1-5.6c-17.3-4-36.7-11.2-54.9-6   c-0.4,1.2-0.7,2.2-1.1,3.2c-0.9-0.1-1.6-0.1-2.3-0.1c0-0.9,0.1-1.6,0.1-2.4c-0.2,0-0.3-0.1-0.5-0.1c-0.5,1.3-1.1,2.7-1.7,4.4   c-0.4-1.4-0.4-2.1-0.3-3.4c-1.1,0-1.2,0.7-1.5,1.2C443,243.1,443,243.7,443,244.3L443,244.3z M428.5,552.8   c-1.2,0.4-0.8,1.4-0.8,2.2c-0.1,0.2-0.2,0.4-0.1,0.6c-1.9,2.8-1.9,6.1-2.2,9.3c-2.2,4-4.3,8.1-3.7,12.8c0.5,3.5-3,5.6-2.1,9.2   c9.4,5.6,28.7,8.8,33.3-3.8c1.8,1.3,0.3,3.9,0.3,5.7c0.9,1.3,1.3,3,3.3,3.6c0.3-1,0.4-1.6,0.7-2.5c0.1,0,0.2,0,0.3,0.1   c0,1.4,0,2.7,0,4.3c12.8,3.8,26.2,5.2,38.1-1.3c13.8,0.5,28.9,6.2,41.3-2.6c6.2-3.8,9.3-14.1,2.5-18.8c-4.5,2.2-8.5-2-12.7,0.3   c-0.4-0.9-0.7-1.6-0.9-2.2c-1.7-0.3-1.5,2.3-3.4,1.7c-0.7-1.2,0.5-3.9-2.5-3.5c-1.1,2.3-1.1,2.3-2.9,2c-0.1-2.2-0.4-4.3-3.5-4.4   c-0.6,2,0.1,5.6-3.3,4.4c0-2.2,0-4.4,0-6.6c-0.6-0.3-1-0.6-1.8-1c0.4,2.3-1.1,7.9-4,5.9c0.8-6.3-0.1-16.3-6.4-19.5   c-2.3-1.6-6.1,0.3-6,3.1c1.3,1.9,1.2,3.8,4.1,3.9c-1.6-1.7-2.5-1.9-2.6-3.7c9.6,0.8,2.3,13,0.3,17.8c-26.4,10.9-15.8-16-29.8-14   c-1.2,2.1-1.1,4.4-2.8,6c-2.1-2.7,0.3-6,1.6-9.1c-0.9-0.7-1.8-1.4-2.7-2c-0.7-2.5-1.5-5.1-2.3-7.7c-1.8-0.8-3,0.1-4.5,1.4   c1.8,3.1,1.7,6.6,2.4,9.9c0.5-0.8,0.7-1.6,0.8-2.4c0.1-0.9-1-1.8-0.1-2.8c4.4,4.8,0.5,14.9-5.5,17c-15.9-1.7-9.6-4.7-17.8-13.5   c-0.3-0.6-0.6-0.7-0.9-0.1c-0.2-0.1-0.4,0-0.6,0.1C430.6,552.2,429.6,551.6,428.5,552.8z M460.4,379c-10.5,1.5-20.6-0.6-31.2-1.9   c19.6,35.4-16.5,66.6-11.9,102.4c3.6,22.3,10.9,44.2,12.9,66.6c1.3,2.7,3.1,3.6,5.5,4.9c0.3-0.7,0.5-1.2,0.8-1.9   c2.2,2.1,1.6,4.8,2.2,7.4c4.4-0.5,9.4-0.2,12.9-2.6c-0.5-18-5-35.2-2.5-53.1c6.1-19.4,8.7-39.1,9.1-59.4l-0.1,0.1   c5.4-8.7,11.1-19.1,8.5-29.7c-1,0.6-1.7,1.1-2.4,1.5c5.5-10.3,3.8-21.6,2.9-32.9c-1.3-0.6-1.4-1.8-2.1-3.1   C463.5,377.9,462,378.5,460.4,379z M513.8,384.5c-14.5,0.7-29-1.3-43.2-2.1c-1.6,13.6,1.7,27.7,1,40.9c-4.4,9.4-14.1,29.7-12,39.5   c3.1,30.4,10.4,60.6,9.5,91.4c1.1,1.4,2.8,4.8,5,3.5c-0.2-1.6-1.5-3.7,0.5-4.8c1.8,1.2,1,3.4,1.8,5.2c4.4,0.2,9.2-2.8,13.4-3.7   c-1.8-33.2,10.4-64.2,14.5-96.7c0.6-11.3,0-23.3,0.3-34.5c2.7-6.7,4.2-13.5,4.7-20.3c3.6-5.3,6-12,5.9-18.4   C514.6,384.5,514.2,384.5,513.8,384.5z M465.4,553.3c3.5-5.5-1-12.6,0.4-18.9c-0.5-18.7-2.1-38-7.8-55.7c-8.7,20-8.9,41.8-4.5,62.8   c6.3-2.9,9,2.7,8.7,8.3C463.1,550.9,464.1,552,465.4,553.3z M480.6,570.2c7.7,1.1,12.7-1.1,13.1-9.1c-1.2-1.6-2.2-2.9-3.2-4.2   c-5,2.6-10.5,4-16.2,4.3C474.2,565.9,478.2,566.8,480.6,570.2z M451.5,563.4c1-0.9,1.9-1.8,2.8-2.7c-0.4-1.4-0.7-2.8-1.1-4.3   c-4.6,2.2-8.6,1.1-13.1,3.4C443.9,561.9,447.3,564,451.5,563.4z M520.9,254.9c0.7-1.1,1.6-1.7,0.8-2.9   C520.3,252.5,520.7,253.5,520.9,254.9z M468.6,408.4c-0.6,0-0.7,0.9-1,1.3c0.3,0.1,0.6,0.3,0.9,0.4   C468.5,409.6,469.1,408.9,468.6,408.4z M494,557.2c-1,0.9-0.5,1.9,0.5,1.1C494.4,558,494.3,557.7,494,557.2z" />
	<path d="M465.8,123.2c1.3,0.6,2.5-2.2,3.1-0.6c-8.2,9.1-8,22.1-14.3,32.2c-2,6.6-8.3,11.9-10.2,18.1   c-16.6,14.4-20.7,37.1-34.3,53.9c-0.8-0.3-0.7-1-0.8-1.6c7.9-13.8,14.6-28.2,22.5-42c-3.4-6.2-5.1-13.1-9.1-19   c-7.9,9.8-8.5,21-12.6,32.2c-1,5.3-5.4,9.1-8.5,13.3c-7.2,8.5-10.6,19.2-16.7,28.4c-0.9,0-1.3,0.8-2,1.3c-0.1-0.4-0.1-0.8-0.2-1.1   c7.9-21.8,28.4-36.9,29.7-61l-0.1,0.1c3.8-4.6,5.7-11.3,9.2-16.3c-3.8-9-4-18.4-5.5-27.9c-4.8-2.5-9.8-2.5-15-2c0,1.1,0,2,0,2.9   l0,0c-1.9,5.1-6.4,9.5-8.4,14.9c-3.6,7-2,15.3-4.8,22.3c-13.2,17.8-10.6,41.9-18.1,61.8c0.2-22.1,7.5-47.4,17.7-67.1   c0.4-9.6,2.2-19.5,8.7-26.9c5.8-7.2,4.5-17.3,9.4-25.1c10.4-16.6,22.2-10.5,33-16.8c4.6-6.8,15.8-8.3,17.3-16.6   c3.5-18,2.5-25.1-3.5-42.2c0.1-0.2,0.2-0.7,0.4-1.2c-3.6-4.5-1.7-11.9-0.3-17c-0.9-2.2,0.9-4.1,1.3-6.1   c13.6-17.4,31.9-17.3,49.5-5.7c6.7,4.6,6.1,14.6,8.3,21.3c-1.9,2.4-1.9,5.8-4.4,8.1c-0.9,1.8,0,3.6-1.8,4.9c-1.9,0.4-2.4-2-4.3-2.3   c-0.5,0.4-1.1,1-1.8,1.5c-0.8-0.1-1.5-1.5-2.3,0c-1.6,0.9-1.5,2.4-1.4,3.9c-6,6.8-7.9,16-16.8,19.9c-5,1.4-6.2,3.7-11.7,0.6   c-1.4,0.4-2.5,0.7-3.6,1c-1.1,0.2-1.9-1.4-3.4-0.3c-0.8,5.4-2.4,10.9-2.7,16.7c2.4,0.6,4.4-0.6,5.9-0.7c1.1-0.9,1.8-1.5,2.6-2.1   c0.4,0.8,0.7,1.4,0.9,2c3.8,0.2,7.6,0.1,11,1.9c-22.4-0.9-26.1,3.6-42.3,18.4c-16.3-5.9-31.9,10.4-33.3,26.2c4.9,0,9.4-0.1,14,1.7   c-0.2-2.1,0.2-2.5,1.2-4.4c2.1,18.8,6.1,38.6,16.2,54.6c14.9-14.8,24.7-34.7,27.5-55.1c0.3,0.7,0.6,1.3,0.9,2   C463.7,126.4,463.8,124.1,465.8,123.2z" />
	<path fill="#0E0908" d="M409.4,225.2c0.1,0.6,0,1.3,0.8,1.6c-2.1,6.2-5.5,10.6-11.7,13.8c-4.6-1.1-9.3,0-13.8,1.6   c-0.3,1-0.6,1.9-0.9,2.8c-5.1-0.3-9.5-3.5-14.7-3.8c-2.5-2.1-7.2-2.6-9,0.8c9.2,3,20.4,3.8,27.8,10.6c0.1,1.5,0,2.5-0.7,3.8   c-1.9,0.5-3.5,1.2-5.6,1.1c0,0.2,0,0.3,0,0.5c4.4,0.9,9.4,3.3,4.1,7.4c-4.8,1.8-9.5-0.2-14.4,0.3c-0.5,0.7-0.9,1.3-1.5,2.1   c3.8,0.3,7.4-0.8,10.6,0.8c-4.9,1.3-9.9,1-14.9,0.7c2.2,7.1,11.9,4,17.6,3.7c0.8-0.6,1.8-1.3,2.6-1.9c0.4-1.6-0.2-2.2-1.4-2.5   c0.5-1,1.5-0.5,2.3-0.7c0.5,0.5,1.1,1,1.8,1.6c8.2-8.6,18-14.9,27.9-21.4c0.3,0.3,0.7,0.6,1,0.9c-7.2,7-16.9,10.8-23.7,18.2   c-4.9,3.4-7.4,11-13.5,12.2c-8.3-1.5-24,0.7-21.3-12.3c-4.4-3-5.8-6.6-2-10.9c-6.4-4.7,1.1-7.7,3.6-11.5c-0.6-0.5-1.1-1-1.6-1.5   c-0.6-6.4,8.4-4.2,10.2-12c0.1,0.6,0,1.4,0.8,1.7c-0.4,1-0.7,1.9-1.1,3c4.4,0.6,10.5-1.9,12.8,2.8c0.6-0.2,0.9-0.3,1.3-0.3   c0.1,0.3,0.1,0.7,0.2,1.1c0.5-0.4,0.9-0.8,1.3-1.2c-0.3,1.3,0.7,2,1.5,0.8c3.8-1.1,7.6-1.1,11.5-0.4   C402.7,235.2,406.7,230.9,409.4,225.2z M366,259.6c2.1,1.4,4.2,3,6.2,4.4c4.6-0.7,11.7,2.7,14.4-2.4c-4.7-2.7-9.9-2.7-14.8-4.8   c-0.5,0.5-0.9,0.9-1.3,1.2c-4.1,0.8-7.8-0.6-11.5-1.7c1,2.3,3.1,2.7,4.8,3.7c0.4-0.4,0.7-0.7,0.9-1   C365.4,259.3,365.7,259.4,366,259.6z M374.5,253.3c3.7,1.5,8.7,3.9,11.8,0.5c-3.8-5-16.8-8.2-24.5-6.3c0.4,0.5,0.5,1,0.8,1.1   C366.8,249.8,369.8,253.4,374.5,253.3z M358.3,258.1c-7.1,5.5,7.2,11.8,11.2,7.3C368.1,260.3,361.1,262.3,358.3,258.1z    M358.4,253.4c3.4,1.7,6.5,3.8,10.6,3c0.9-5.4-6.3-6.1-9.9-7.4c-1.1,0.9-2.1,1.7-3,2.5c0.1,1,0.1,1.7,0.2,2.7   C357.2,253.9,357.7,253.7,358.4,253.4z M370.8,274.8c-4.1-0.6-6.7-2.8-7.6-6.4c-0.9-0.2-1.3-0.4-2-0.2   C358.4,273.3,366.6,279.1,370.8,274.8z M377.8,237.6c-3.6-0.3-6.8-0.2-10.2,1c4.2,1.3,8.1,0.6,11.6,3.5c1,0.7,2.1,1.3,3.6,1.1   C382.7,239.6,379.5,239.4,377.8,237.6z M372.3,276c3.2,1.2,6.2,2,9.3,1.7c1.1-1,2.4-1.7,2.7-3.7C380.3,275.6,376.2,274,372.3,276z    M378.4,257.2c-2.4-1.9-4.7-2.8-8.2-3.1C373.1,256,375.3,257,378.4,257.2z M362.1,245.6c1.5,0,2.5,0,3.8,0   C363.8,243.9,363.4,243.9,362.1,245.6z" />
	<path fill="#0C0909" d="M510.7,30.4c0.3-0.3,0.6-0.6,0.9-0.9c2.2,3.3,3.3,8.2,1.7,11.8c0.3,0.4,0.6,0.8,0.8,1.2   c-0.3,0.6-0.7,1.1-1.1,1.8c4.3,9.8-0.9,20.5-2.7,30.3c-0.3,6.1-7,4.1-11.2,4.8c-0.6,4.1,0.4,7.9-0.4,12.1c10-2.7,21,0.7,27.1,9.1   l0,0c0.3,0.3,0.5,0.6,0.8,0.8c0,0.2,0.1,0.4,0,0.6c-0.2,0.3-0.5,0.5-0.7,0.8c-9.3-11.4-17.2-10.9-30.4-9.4   c-5.5-4.6-13.2-5.9-20-8.1c0.8-0.3,1.9,0.3,2.4-0.8c5.9,0,10.9,4.9,16.5,4.9c0.8,0.9,1.5,1.6,2.6,2.9c0.4-7.9-0.8-14.4,0.7-21.5   c2.5,1.4,0.1,4.4,1,6.8c3.2-0.3,9.9,1,9.6-3.8c1.6-5.7,3.2-11.4,4-17.3c1.5-5.5-2.2-10.3-0.9-15.6   C513.1,37.2,512.7,33.7,510.7,30.4z" />
	<path fill="#090909" d="M526,102.7c0.2-0.3,0.5-0.5,0.7-0.8c6.1,5,7.3,14.3,5.1,21.5c5,9.1,8.8,21.2,5,31.2c-0.1-0.7,0-1.5-1-1.8   c1.9-9.3-1-17.9-4.8-26.4c-0.8,1.1-1.5,1.9-2.5,3.3C530.4,120.3,531.2,111.5,526,102.7z" />
	<path fill="#E0DEE5" d="M525.9,100.5c-0.2-0.3-0.5-0.6-0.7-0.8C525.5,99.9,525.7,100.2,525.9,100.5z" />
	<path fill="#E0DEE5" d="M526.7,101.3c-0.3-0.3-0.5-0.6-0.8-0.8C526.2,100.7,526.4,101,526.7,101.3z" />
	<path fill="#E0DEE5" d="M526,102.7c5.2,8.8,4.4,17.6,2.5,27.2c1.1-1.4,1.7-2.3,2.5-3.3c4.5,10,8.4,21.8,2.1,31.9   c-2.6-0.9-2.6-3.8-4.4-5.3c-1.1,0-2.1,0-3.2,0c-0.9,1.9-8,6.1-3.6,7c-0.4,1.2-0.5,2.7,1.1,2.8c0,0.5,0.1,1,0.1,1.4   c0.6,0.7,1.4,1.2,2.3,1.7c-0.2,0.6-0.4,1.3-0.7,2.1c0.9,0,1.6,0.1,2.2,0.1c-1,11,1.6,22.5-0.9,33.3c-0.7,0.4-0.7,1.1-0.6,1.7   c-4.8,12.6-4,26.4-5.4,39.5c-0.4,0.5-0.9,1-1.3,1.5c-0.4-1.6,0.1-2.4-1.5-3.2c-0.2,1.9,0.1,3.7-0.4,5.5c-16.5-3.2-32.5-9-49.3-10.6   c0.1-7.4,2.5-14.1,4.5-21c3.4-6.3,0.7-14.2,4.3-20.4c1.1,3.4,3.3,5.3,5.5,7.1c1.2,0,2.4,0,3.9,0c0.7-0.8,2.8-2.8,0.9-3.7   c-1.4-9.4-5.1-18.1-1.6-27.7c10.6-6.4,14.3-18.4,23-26.3c1.5-1.5,7.3-4.4,2.2-4.8c-4.2-13.4-17.5-21.5-31.2-22.1c0-0.4,0-0.8,0-1.2   c2.8-1.5,5.6,0,7.7-3c-1.2-0.1-1.5-0.1-2.4,0c1.1-3.2,1.1-3.2-1.5-5.4c-0.8,0-1.7-0.1-2.6-0.1c0.7-1.2,1.4-2.2,1.8-3.5   c0.9-0.8,3.8-1.6,2.6-3.2c-2.4,0.9-2.4,0.9-3.4,3.2c-2.9,2.6-5.4,6-6.1,10.1c-1.7,6-10.4,7.7-12.8,14.1c-0.3-0.7-0.6-1.4-0.9-2   c-2.7,2.5-0.3,5.4-1.5,8.1c-3.9-5.2,0.3-13.6-4.7-18.4c1.5-5.2,3.2-10.8,6-15.2c1.2,1.3,2.5,2.7,3.6,3.9c2.6-0.3,5.1,0.7,7.2-0.7   c1.9-1.9,5-0.1,5.8-3.8c-0.6,0-1.2,0-1.8,0c-2.7-4-8.1-6.9-12.6-3.5c-0.7,0-1.9-0.6-2.9-0.6c-1.1,4-3.9,6.8-4.5,10.9   c-1.2-1.2-0.6-3.3-0.8-4.7c-1.7-3.1-3.9-2.1-5.9,0.1c-1.4-0.5-2.4-2.2-4.6-1.2c-2.4,3.2-15.1,4.7-7.9,10.3c3.2,0.5,6.1-0.7,9.1-0.9   c-0.6,4-1.1,7.9-1.7,12.1c-0.4,0.1-0.8,0.2-1.3,0.3c-0.4-0.2-0.8-0.4-1.6-0.7c0.3,2.4,0.1,2.6,2.1,3.2c0,6.3-1.1,12.2-2,18.3   c-1.3-5.3-0.1-11.1-3.8-15.7c-3.1-3.2-1.4-5.9-6.4-7.6c-2,1.5-3.6-0.1-5.4-0.1c-1.1-2-1.9-4.1-4.5-4.1c-0.6,0.4-1.2,0.9-1.8,1.3   c-0.4-0.2-0.8-0.4-1.2-0.6c-0.3,0.7-0.7,1.3-0.3,2c-0.6,2.5-3,4.8-0.4,6.9c-2.3,1.1-0.7,3.4-1.1,5.4c-2.6-0.6-4.6-1.3-6.8-2.8   c-1.4-14.3,10.4-32,26.1-25c18.7-19.6,34.7-24.5,59.1-10.1c-1.7-0.1-3.4-0.4-4.8,1.5C503.8,92.7,515.9,89,526,102.7z M519.2,206.8   c2.3-0.5,8.3-6.4,4.4-7.5C522.1,201.7,519.9,203.7,519.2,206.8z M518.5,209c-2.5,0.6-5.4,3.9-2.5,4.7   C516.6,212.2,518.5,211.2,518.5,209z M514.3,235.1c-0.2,1.7,0,3.2,1.6,4.4C517.5,238.3,516.3,235.8,514.3,235.1z M461.5,121   c1.3-1,1.8-2.1,1.5-3.8C460.5,118.8,460.4,119,461.5,121z M525.5,128.5c-0.2,2-0.7,3.2,0.1,4.6C527.2,131.3,527.2,131,525.5,128.5z    M434.1,103.6c-2.7,1-2.7,1-2.9,2.4C432.5,106,433.2,105.3,434.1,103.6z M511.8,231.6c0.2,2.1,0.2,2.1,2,2.7   C513.7,233,513.1,232.1,511.8,231.6z M517.3,100.3c0.7,1.7,1.6,2.3,3.2,2.2C519.9,101.1,519.3,100.2,517.3,100.3z M440.2,122.6   c-0.3-1.7-1-2.3-2.5-2.4C437.7,121.8,438.6,122.3,440.2,122.6z M517.3,102.5c-1.5-1-2.3-1.6-3.2-2.2   C513.9,102.3,514.1,102.4,517.3,102.5z M514.3,217.8c0.2-1,0.9-2.5-0.7-2.3C513,216.4,512.8,217.1,514.3,217.8z M510.9,223.9   c1-1.1,0.8-1.8,0-2.6C509.9,222.2,509.8,222.9,510.9,223.9z M513.7,140.1c1.2,1.3,1.2,1.3,2.1,0C515,140.1,514.5,140.1,513.7,140.1   z M523.8,132.6c-1,0.8-1.2,1.5-0.1,2.8C523.7,134.1,523.7,133.4,523.8,132.6z M468,111.1c-1.8,0.5-1.7,1.1-1,2.2   C467.4,112.5,467.6,112,468,111.1z M510,102.9c0.5,0.2,0.8,0.3,1.1,0.4C511.7,102.1,510.7,101.8,510,102.9z M465.2,115.2   c-1.3-0.3-1.3-0.3-1.5,1.3C464.3,116,464.7,115.7,465.2,115.2z M485.8,99.7c0.2,0.2,0.3,0.5,0.5,0.7   C487.4,99.4,487.1,99,485.8,99.7z M518.2,141.5c0.2-0.1,0.4-0.2,0.6-0.2c-0.2-0.5-0.5-0.4-0.9-0.2   C518,141.2,518.1,141.3,518.2,141.5z" />
	<path fill="#544492" d="M487.2,381.3c-15.5-1.5-21.3,2.2-20.6-16.9c-1.4-16.6-3.7-33.5-5.2-50.3c-0.1-0.6-0.2-1.3-1.2-1.1   c-1.2,13.4-9.2,25.8-13.1,38.4c4-6.8,7.9-13.2,12-20c0.5-2.6-1-7.1,0.7-9.5c0.7,6.6,1.8,13.2,2.2,19.8c-1.4-0.7,0-3.3-2.2-3   c0.1-1.1,1.6-3.3-0.2-3.6c-3.3,6.7-8.6,12.5-11.9,19.2c2.6-1.4,4.1-3.6,6-5.8c-3.7,9.9-9.1,14.2-3.6,25.4c0.9-2,2.9-3.4,2.6-5.2   c-0.6-0.3-1.3-0.6-2.1-0.9c0.5-0.4,0.8-0.7,1-0.9c1,1.7,3.9-1.3,2.2-2.3c0.3-1.1,1.6-0.5,2.2-1.2c1-1.3,1.7-2.7,3.2-3.5   c1.9,6.6-4.4,11.2-6.9,16.7c-9.7-0.1-19.4-0.7-28.8-3.9c0-18.2,0.4-36.2,0.2-54.4c7.1-2.4,15.4-1.9,22.1-5.3   c-7.6-0.3-14.6,2.2-22.2,3.4c-7.4-24.7-4.1-74,31.6-68.4c1.8,1.1,16.4,1.4,17.4-0.8c-4.4,0-7.7,0-11.9-0.2   c-0.4-2.9,2.1-4.9,1.5-7.5c-0.7,0.7-1.3,1.4-2,2.1c-0.1-1.2-1-1.9-1.8-2.8c7.4-1.4,15.8-1,23,1.5c-2.3,1.5-3,3.9-3.8,6.2   c5.7,18-11.5,37.7,2.9,54.9c-4.8,0.9-11.3,0.7-14.2,5.3c5-1.7,9.6-3.2,14.2-4.7c1.2,2.5,1.9,5.5,4,7.4c2.5-0.6,5.2-1,7.4,0.1   c-0.9,2-3.2,2.8-4.8,4.4c4.6,2.1,9.5,0.2,14.1,1.6c-1.9,2.3-4.8,1.4-6.4,2.9c2.9,0.7,5.9,1.4,9.1,2.1c-3,1.7-6.2,2.1-9.8,2.3   c4.4,7.5-5.7,16.9-6,25.2c4.1-3.1,10.1-12.4,14.4-11.6c-4.4,8-9.8,15.4-15.1,22.5c0.3,2.9-0.6,6.1,0.4,8.3   c3.5-2.8,6.1-6.7,10.2-8.8l0,0C496.9,367.8,482.9,372.2,487.2,381.3z M449.8,326.6c-0.4,1.5-2.9,1.6-2.5,3.9   c2.3-1.3,4.4-2.5,5.7-5.1c-0.7-0.1-1.1-0.1-1.6-0.2c0.2-1.5,2-2.6,1.2-4.4C450,320.5,448.5,325,449.8,326.6z M474.2,360.8   c3.4,4.3,7.5,8.4,12.7,10.2c-6.7-5.1-12.6-11.5-17.6-18.5c-0.3-0.3-0.6-0.9-1.3-0.1C469.6,355.6,472.1,358.1,474.2,360.8z    M481.7,312c1.9-0.3,3.9-0.6,5.8-0.9c-8.6-1-16.5,0.8-25.2,0.4C467.8,314.6,475.6,312.6,481.7,312z M485.6,319.8   c-7.3-0.9-14.2-5-21.5-4.2c5.9,3.2,12.6,4.1,19.1,4.9c1.3,1.2,2.8,0.6,4.3,0.6C487.4,319.8,486.6,319.7,485.6,319.8z M453.8,314.6   c-5.3,0.3-11.1,2.1-15.6,5.1C444.1,318.6,449.1,317.6,453.8,314.6z M450.9,305.9c1.1,4.3,5.9,7.5,9.7,5.4   C457,309.6,454.4,307.8,450.9,305.9z M451.1,252.9c-3,0.5-5.3,8.9-4.8,12.2C448,260.8,449.5,257,451.1,252.9z M471.3,343.9   c2.2,2.3,4.5,4.6,7.9,5.1C477,346.8,474.4,345,471.3,343.9z M424.4,311.4c0,0.3,0,0.6,0,0.9c3.1,1.1,6,0.4,9-0.9   C430.4,311.4,427.4,311.4,424.4,311.4z M468.1,240.4c-2.5-1.8-3.4,4-2.7,6.1C467.3,244.7,467,242.2,468.1,240.4z M474.6,239.6   c-1.4,1.6-3.2,5.1-0.6,5.8C474.5,243.7,475.4,242.1,474.6,239.6z M469.9,246.3c0.9-1.2,3.2-5.4,0.9-5.5   C470,242.4,469.1,244.1,469.9,246.3z M446,274.1c-2.8,1.9-1.3,5.8-1.2,8.6C445.6,279.7,445.3,277.3,446,274.1z M462.6,244.8   c1-0.8,2.1-1.7,1.4-3.5C462.7,242.3,462.4,243.4,462.6,244.8z M449.7,305.2c-0.4-2.3-0.5-2.2-2.1-3.7   C447.4,303.3,448.2,304.3,449.7,305.2z M445.9,293.1c0.1-1.7,0.5-2.9-1.1-3.6C444.3,290.8,444.2,291.8,445.9,293.1z" />
	<path fill="#6D5CA9" d="M487.2,381.3c-4.3-9.1,9.7-13.5,10.7-22.8c0.4-0.3,0.9-0.7,1.5-1.2c-1.5-0.4-1.4,0.5-1.5,1.2   c-4.1,2.1-6.7,6-10.2,8.8c-1-2.2-0.1-5.4-0.4-8.3c5.3-7.1,10.7-14.5,15.1-22.5c-4.3-0.8-10.3,8.5-14.4,11.6   c0.3-8.3,10.4-17.7,6-25.2c3.5-0.2,6.7-0.6,9.8-2.3c-3.2-0.7-6.2-1.5-9.1-2.1c1.6-1.4,4.5-0.5,6.4-2.9c-4.6-1.5-9.5,0.5-14.1-1.6   c1.6-1.6,3.9-2.3,4.8-4.4c-2.1-1.1-4.8-0.7-7.4-0.1c-2.1-1.9-2.8-4.9-4-7.4l0,0c0.2-0.1,0.4-0.2,0.6-0.3c-0.2-0.1-0.4-0.2-0.6-0.3   l0,0c-14.4-17.3,2.8-36.8-2.9-54.9c0.8-2.4,1.6-4.7,3.8-6.2c0.5,0.1,0.9,0.1,1.4,0.2c0.3,0.5,0.5,1,0.8,1.5   c-0.8,2.6-0.5,5.5-1.1,8.1c5,2.2,10.9,2.2,16.3,2.6c0.5,1,1.5,0.4,2.3,0.7c11.3,3.8,23.2-0.6,25,15.9c8.3,29.5,2.9,61.5,5.4,90.8   c-4.3,4.3-9.9,5.8-14.3,9.8c1.8-0.6,3.1-1.1,4.5-1.5l0,0c0.2,4.3-0.4,8.6-0.7,13C509.6,383.1,498.4,382.9,487.2,381.3z    M520.6,273.3c0-1.1,0.5-2.3-0.6-3.2c-1.1-3.9,0.5-8.7-2.3-11.8c1.5,9.1-8.5,15-14.1,20c0.4,0.1,0.7,0.1,1.1,0.2   c0.8,0.9,0.2,1.4-0.3,2.8c0.1-0.4,0.1-0.2,0,0c0.1-0.2,0.2-0.3,0.3-0.5c5.7-2.6,9.4-9.1,13.7-13.7c1.1,3.2,0.8,6.6,0.8,9.9   c-4.5,2.9-9.6,4.3-14.1,7.3c2.3,0.4,4.9-1.6,7.3-2c-2.4,3.1-7.1,5.4-8.6,9c6.2-2.3,10.6-8.9,16.1-11.9c0.3,4.4,1,8.6,1.6,12.9   c-4.4,3.4-9,5.5-12.8,10c6.2-0.7,9.8-4.9,14.3-8.4c0.1-0.8,0.4-1.8-0.7-2.3C521.7,285.4,521.7,279.3,520.6,273.3z M522.2,324.3   c0.1,10.6,1.1,21.2,0.7,31.8c-1,1.7-9.4,4.2-8.3,6.2c2.7-1.2,5.3-2.7,7.7-4.5c0.2,0,0.5,0,0.7,0c0.1,0.4,0,0.8,0.3,1   c0.5-0.3,0.4-0.6,0.4-1.1c0.7-0.9,1.4-1.7,2.3-2.7c-0.8,0-1.4-0.1-2.1-0.1c-0.5-10.2,1-21-0.7-30.7c-0.3-1.4,0.8-2.3,1.1-3.4   c-0.4-0.3-0.7-0.5-1.2-0.8c-1-6.8,2-13.7-0.7-20.1c-0.9,7.6,0.9,15.5-0.9,22.8c-3.2,2.5-6.6,3.3-9.1,7.1   C516.3,328.4,518.4,325.6,522.2,324.3z M492.2,312.2c6.2,2.3,10.8,1.6,14.4-2.1C501.7,309.6,496.4,308.8,492.2,312.2z" />
	<path fill="#B28C7D" d="M378.9,267.8c-2.9,0-5.7,0-8.9,0c0.6-0.8,1-1.4,1.5-2.1c4.9-0.5,9.6,1.5,14.4-0.3c3.4-2.6,2.8-5.7-1.5-6.6   c0-0.5,0-1,0-1.4c1-0.4,1.8-0.7,3-1c0.7-1.3,0.8-2.3,0.7-3.8c-4.8-5.4-12.6-5.6-18.9-8.3c-0.1-1.1-0.8-2.2,0.1-3.1   c5.2,0.3,9.6,3.5,14.7,3.8c0.3-0.9,0.6-1.9,0.9-2.8c0.3-0.1,0.7-0.1,1.1-0.2c0.1,0.7,0.2,1.4,0.2,2c7,2,11.2-6.7,18.3-0.3   c-1.4-10.6,4.9-4.2,6-9.3c1.2-0.6,0.3-1.9,0.9-2.7c1.8,0.6,2.1-1.3,2.1-2.6c1.7-1.4,2-3.9,3-5.7c0.8,0,1.5,0,2.3,0   c-0.2-0.9-0.4-1.6-0.5-1.8c9.3-13.4,13.3-31.8,25.7-42.1c2.4-1.2,6,0.4,7.4-2.2c1.6-1.6,3.4-4.5,3.2-6.9c-0.7-1.3-1.2-2.6-0.3-3.9   c5.6-8.2,6-18.1,11.7-26.2c0.5,5.1,3.6,8.5,6.9,11.9c9.2-8.6-4.1-23.6,5.5-32.6c12.8-2.1,28.1,9.9,29.7,20.8   c-10.8,12.2-19.8,26.6-33.7,35.8c-6.6,5.1-7,15.3-12.1,21.9c-15.9,16-34.1,30.2-45.7,50.1c-9.9,6.5-19.7,12.8-27.9,21.4   C385.9,266.6,382.2,266.4,378.9,267.8z M499.3,144.6c0.2-0.7,0.3-1.4,0.5-2.3c-1.2,0.3-1.9,0.8-1.9,2.2   C498.5,144.5,498.9,144.5,499.3,144.6c0.4,1-1.5,1.7-0.4,2.9c1.6-0.3,2.1-1.4,2.3-2.7C500.6,144.3,500.1,144.6,499.3,144.6z    M453.7,202.3c-2,0.4-2.8,1.2-3.1,3.1C452.4,205,453.3,204.4,453.7,202.3z M453.6,196.3c1.1-0.5,2.1-1.1,2.2-2.5   C454.1,193.4,454.1,193.4,453.6,196.3z M456,170.2c1.2-0.4,2.3-0.6,2.5-1.9C455.7,168.1,455.5,168.3,456,170.2z M466.9,178.6   c1.2,0.6,1.9,0,2.5-1.2C468.1,177.1,467.3,177.4,466.9,178.6z M463.6,166.5c-2.6-0.5-2.9-0.2-2.6,1.4   C461.7,167.6,462.3,167.3,463.6,166.5z M451.5,200.3c0.1,0.2,0.2,0.4,0.3,0.6C454.5,201.5,453.7,198.4,451.5,200.3z M466.7,166.7   c-0.6-0.5-1-0.9-1.4-0.3C465.5,167.3,465.7,167.3,466.7,166.7z" />
	<path fill="#B28C7D" d="M508.5,408.1c-5.1,16.1-3.9,32.7-4.3,49.6c-4,32.4-16.3,63.5-14.5,96.7c-4.2,0.9-9,3.9-13.4,3.7   c-0.7-1.8,0-4-1.8-5.2c-2,1.1-0.7,3.2-0.5,4.8c-1.8,1.2-3.6-1.3-4.3-2.7c0.5-2.2,2.5-3.6,3.8-5.3c0.4-0.1,0.9-0.2,1.4-0.3   c0-1.8,0-3.4,0-4.9c-0.7-0.5-1.4-1-2.4-1.7c1.8-0.6,1.9-0.7,3.5-1.9c-1-0.1-1.4-0.2-1.9-0.2c-1.4-7.8,1-17.4-0.1-25.8   c-1.2-4.1-0.4-8.5-1.4-12.7c0.4-3.2-2.1-6.3-0.2-9.5c4.4,3,4.4,3,7,0.1c0.2-2.5,0.1-2.6,0.9-3.6c4.2-5.6-3-11.6-4-17.4   c-9-24.3-2.7-23.3,0.7-45.5c1.9-1.3,2.1-4.7,4.3-6.2c0.9-0.1,1.8,0.1,2.6,0.4c1.1,3.1,1.3,6.6,4.4,8.9c9.7-10.3-3.3-28.5-5.1-40.1   c10.7-2.8,21.2-4.2,32.1-4.8c0.3,5.7-2.3,11.3-4.5,16.4c-1.3-0.3,0.5-1.7-1-2.2c-2.4,2.8-6.5,4.9-6.3,9.4c2.4-0.8,2.5-4,5.1-4.3   C508.5,405.3,508.5,406.7,508.5,408.1z M499.4,415.8c-0.5,1.8,0.3,2.7,1.5,3.8c0,1.4-0.4,2.9,0.3,4.4c2-1.1,2.1-1.7,1.2-4.6   c0.7-2.8,3.6-8.4-0.4-9.6C500.6,411.4,499.2,413.2,499.4,415.8z M493.8,448.9c1.9-3.4,1.2-8-0.9-10.8   C490.2,440.8,493,445.4,493.8,448.9z M492.7,449.7c-0.8,2.1-0.1,6.4,1.9,7.4C495.2,452.4,494.9,451.4,492.7,449.7z M491.6,458.1   c0.2,2.7-0.6,4.9,1.3,6.8C494.4,461.9,494.2,460.7,491.6,458.1z M492.6,470.7c-0.1-2.1,0.4-3.6-1.7-4.7   C490.9,467.7,490.5,469.1,492.6,470.7z M487.4,540.8c-0.5,2-0.8,3.2,0.9,4.1C488.8,543.5,489.1,542.4,487.4,540.8z M488.2,532.3   c0.7-1.2,1-2.1,0.1-2.9C486.9,530.4,486.9,530.4,488.2,532.3z M490.1,472.8c-1.8,0.6-1.8,1,0,3   C490.1,474.7,490.1,473.8,490.1,472.8z M487.1,534.3c0.1,1.7,0.1,2.6,0.2,3.9C488.7,536,488.7,536,487.1,534.3z M487.2,551.7   c1.6-1.2,1.4-2.2,0-3.6C487.2,549.6,487.2,550.6,487.2,551.7z M488.1,480.9c0.2,0,0.3,0,0.5,0c0-0.5-0.1-1-0.1-1.6   c-0.2,0-0.4,0-0.5,0C488,479.8,488,480.4,488.1,480.9z" />
	<path fill="#B28C7D" d="M464.3,413.4c0.7-0.5,1.5-0.9,2.4-1.5c2.5,10.6-3.1,21-8.5,29.7c-0.2-2,0.7-4.2-1.1-6   c-1.4,2-1.6,3.7-0.5,6.7c0.5-0.3,1.1-0.5,1.6-0.8c-0.4,20.3-3,39.9-9.1,59.4c-2.4,17.9,2,35.1,2.5,53.1c-3.6,2.3-8.6,2.1-12.9,2.6   c-0.7-2.5-0.1-5.3-2.2-7.4c-0.3,0.6-0.5,1.2-0.8,1.9c-0.6-0.4-1.3-0.8-1.9-1.2c0.5-2.4-1-6,1-7.8c1.8-1.5,1.8-2,0-3.6   c-1.1-1.2-1.1-1.2-0.1-3c1-0.5,0.7-1.4,0.7-2.3c-0.5-0.6-0.9-1.1-1.5-1.8c0.7-8.9-2.5-17.6-3.5-26.3c0.5-0.5,1.2-1.1,1.7-1.5   c2.1,0.4,3.7,0.7,5.6,1.4c2.2-2.1,7.5-3.2,5.6-7.2c-1.3,1.1-1.8,2.7-2.6,4.1c-2.5-1.1-2.8-3.9-4.2-5.4   c-3.8-5.7-10.9-10.9-10.9-18.2c1.2-1.8,1.1-2.4-0.8-3c0.2-0.6,0.4-1.1,0.6-1.7c0,0,0,0.1,0,0.1c1.6-1.2,0.5-3.4,0.8-5.1   c-1-2.8-1-2.8,0.8-4.7c1.5-4.2,2.8-8.3,2.3-12.8c3.9-5.9,4.5-7.1,3.9-9.4c-2.1,1.6-2.8,3.9-4.1,6.1c3.8-15.8,13.7-31,11.7-48.5   c2.4,4.6,0.9,9.4,2.1,14.3c-0.7,1.2-1.4,2.4-2,3.5c1.1,1.5,1.9-0.3,3.2,0.5c0.8,1.5,1.3,3,2.9,3.7c7.5-9.6-1.8-25.1-0.1-35.3   c6.5-2,11.8-5.9,18.1-8.3c0.7,1.3,0.8,2.5,2.1,3.1c0.1,10.5,4,22.2-2.8,31.4c-2.3,0.9-4.4,1.9-3.8,4.9   C462.1,415.5,463.2,414.4,464.3,413.4z M445.2,500.3c3-3.8,5.6-6.4,4.3-10.6C447.2,492.4,446,496,445.2,500.3z M457.7,419.5   c1.7-2,1.8-2.4,0.2-3.8C457.1,416.9,456.3,418,457.7,419.5z M455.6,434.9c1.4-1.6,0.8-2.7-0.1-3.9   C454.4,432.6,454.4,432.6,455.6,434.9z M435.5,436.9c-2.2,0.5-3,1.8-1.7,3C434.2,439,434.7,438.2,435.5,436.9z M436.3,546.8   c1.6-1.3,1.6-1.3,0-2.5C436.3,545.2,436.3,545.9,436.3,546.8z M450.6,424.6c0.3,0.5,0.7,1,1.2,1.6C452,424.7,452,424.7,450.6,424.6   z M453.6,430.4c0.3-1.1,0.4-1.6,0.5-2.1C452.9,427.7,452.5,428.9,453.6,430.4z" />
	<path fill="#977264" d="M473.5,549.7c-1.4,1.7-3.4,3-3.8,5.3c-2.4-17.5-1.2-36.8-4.4-54.9c-1.3-11.9-6.4-23.1-5.4-35.3   c-2.2-14,6.3-28.6,11.7-41.3c0.7-13.2-2.6-27.3-1-40.9c14.3,0.8,28.8,2.8,43.2,2.1c-10.4,0.8-20.5,2-30.8,4.8   c1.8,11.6,14.8,29.8,5.1,40.1c-3.1-2.3-3.2-5.7-4.4-8.9c-0.4-0.1-0.9-0.2-1.3-0.4c1.6-1.6,5.3-3.2,3.5-5.9c-0.4,0-0.7-0.1-1.1-0.1   c2-3,2-3.1,0.7-5.4c-1,1.6-2,3.1-3,4.7c-0.4-0.9-0.8-1.7-1.2-2.7c-0.6,2.7-2.2,5.6-0.3,8.1c0.1,0.5,0.1,0.9,0.2,1.4   c-2.2,1.5-2.4,4.9-4.3,6.2c-3.4,22.2-9.7,21.2-0.7,45.5c1,5.8,8.2,11.7,4,17.4c-0.8,0.9-0.7,1-0.9,3.6c-2.5,2.9-2.5,2.9-7-0.1   c-1.9,3.1,0.6,6.3,0.2,9.5c1,4.2,0.2,8.5,1.4,12.7c1,9-1.3,18.8,0.1,27.3c-0.5,0.2-1,0.4-1.7,0.6c1,0.7,1.7,1.2,2.4,1.7   c-0.4,0.1-0.9,0.1-1.4,0.2C473.5,546.4,473.5,548,473.5,549.7z M467.3,472c0.1-3.6,0.3-7.3,0.1-11.1c-2.2,0.4-2.4,13.3-0.1,13.2   C467.3,473.3,467.3,472.7,467.3,472z M471,487.7c-1.2-3.6-0.7-8.7-3.9-11.1C466.7,479.1,468.3,487.4,471,487.7z M483.5,403.1   c0.9-1.5,1.8-2.6,0.9-4C482.3,400.1,482.2,400.3,483.5,403.1z M472.2,410c1.4-0.4,1.7-2.3,0.1-2.6   C471.6,408.2,471.7,409.1,472.2,410z M485.1,405c-1.3,0.7-1.2,1.6-0.8,2.8C485.9,406.6,485.9,406.6,485.1,405z M473.2,416   c0.5-1.3,0.5-2.6-0.1-4C472.5,414,472.5,414,473.2,416z M468.5,446c0.9,0,1.5-1.1,0.8-1.8C468.2,443.5,467.7,445.4,468.5,446z    M466.9,455.4c-1,0-1.5,1.2-0.7,1.9C467.3,457.9,467.8,456,466.9,455.4z M472.7,403.9c-0.3,0-0.5,0-0.8-0.1   c0.1,0.5,0.1,1.1,0.2,1.6c0.2,0,0.3,0,0.5,0C472.6,404.9,472.6,404.4,472.7,403.9z" />
	<path fill="#B1B6B7" d="M492.4,550.4c8.9-8.4,13.7,11.7,11.8,18c3,2.1,4.4-3.6,4-5.9c0.7,0.4,1.2,0.7,1.8,1c0,2.2,0,4.4,0,6.6   c3.4,1.2,2.8-2.4,3.3-4.4c3.1,0.1,3.4,2.2,3.5,4.4c1.8,0.2,1.8,0.2,2.9-2c3-0.4,1.8,2.3,2.5,3.5c1.8,0.6,1.6-2,3.4-1.7   c0.3,0.6,0.6,1.3,0.9,2.2c4.2-2.3,8.1,1.8,12.7-0.3c3.5,2.6,4.5,5.9,3.5,10c-14.6,13-33.7,8.2-50.4,4.2   c-13.3,9.4-15.8,6.8-32.5,3.8c-0.2-2.2-0.5-4.2,0.8-6c5.7-7.5,6.1-17.5,9.9-25.7c4.1,12.7,9.6,18.2,23.2,12   c1.9-4.7,9.2-17-0.3-17.8C492.6,551.9,492.6,551.1,492.4,550.4z" />
	<path fill="#977264" d="M437.7,504.8c-1.9-0.7-3.5-1-5.6-1.4c-0.5,0.5-1.1,1-1.7,1.5c1,8.7,4.2,17.4,3.5,26.3   c0.6,0.7,1,1.3,1.5,1.8c-1.6,0.9-1.7,1.2-0.7,2.3c-1,1.9-1,1.9,0.1,3c-1.1,1.2-0.3,2.4,0,3.6c-1.9,1.8-0.5,5.4-1,7.8   c-2-0.2-2.4-2.2-3.6-3.7c-2-22.4-9.3-44.3-12.9-66.6c-4.5-35.8,31.5-67,11.9-102.4c10.6,1.2,20.7,3.4,31.2,1.9   c-3.5,4.2-9.1,4.3-13.4,6.8c-1.7,10.2,7.6,25.8,0.1,35.3c-1.7-0.7-2.2-2.2-2.9-3.7c-0.4-0.1-0.8-0.1-1.2-0.2c1-1.8,2.6-2.9,2.1-5.3   c-0.9,0.7-1.5,1.1-2.1,1.5c-1.2-4.8,0.3-9.7-2.1-14.3c-0.6,7.4,0,14.6-2,21.7c-2.5,9.7-11.4,20.7-9.6,30c0,0.5,0,0.9-0.1,1.4   c-1.7,0.8-4,10.3-2.3,11.3c-1.8,1.9-1.8,1.9-0.8,4.7c-0.4,0-0.7,0.1-1.1,0.1c-0.6,2.9-0.6,3,0.3,5c-0.2,0.6-0.4,1.1-0.6,1.7   c0.2,1-0.6,2.3,0.8,3c0.1,7.3,7.2,12.5,10.9,18.2c1.5,1.4,1.7,4.2,4.2,5.4c0,0.2,0.1,0.5,0.1,0.7c-0.5,0.3-1,0.5-1.5,0.8   c-0.2-0.5-0.3-1-0.6-1.7C437.4,502.6,437.6,503.7,437.7,504.8z M437.6,410.3c-2,2.5-2,3.4-0.4,4.4   C438,413.4,437.8,412.2,437.6,410.3z M446.1,402.1c1.5-1.9,1.5-1.9,0.5-3C445.3,400.4,445.3,400.4,446.1,402.1z M445.9,407.2   c-1,0.6-1.6,1.1-0.9,2.2c1,0,1.3-0.6,1.7-1.4C446.4,407.8,446.2,407.6,445.9,407.2z M438.7,406.3c-1.4-0.7-1.5-0.4-2.4,0.6   c0.5,0.4,0.8,0.7,1.2,1C437.8,407.5,438.1,407.1,438.7,406.3z M446.6,402.7c-1.2,1-1.7,1.7-0.9,2.9   C446.7,404.4,446.7,404.4,446.6,402.7z" />
	<path fill="#D5D2DC" d="M486.4,197.9c1.9,1-0.2,2.9-0.9,3.7c-1.5,0-2.7,0-3.9,0c-2.2-1.8-4.4-3.7-5.5-7.1   c-3.6,6.1-0.9,14.1-4.3,20.4c-2,7-4.4,13.7-4.5,21c-8.3,0.2-16.1,1.1-24.3,2.8c0.5-3.6,2-5.8,3.4-9.1c0.2-4.1-2.4-9.6,0.1-13.4   c18.2-17.7,16.4-12.3,27.2-37.4c0.2,1.5,0.4,2.5,0.6,4.1c1.6-1.6,1.3-3.1,1.4-4.9c3.1-2.7,5.5-5.7,9-7.7   c-3.4,9.4,0.1,17.9,1.5,27.1c-0.7-0.5-0.5-2.1-2.1-1.5c-0.4,1.5,0.1,2.7,1.6,4C486.1,198.9,486.2,198.4,486.4,197.9z M477.4,187.8   c-0.1-1.7,0.2-3.2-1.4-4.4c-0.7,2.2-1.1,5.4,1.2,6.2c0.2,2.1,0.2,2.1,1.6,2.8C479.1,190.6,477.8,189.3,477.4,187.8z M456.7,227   c-2.6,0.6-4,1.2-4.4,3.2c0.7,0.3,1.2,0.6,1.8,0.8c-1.2,1.4-5.1,2.8-2.8,4.8c2.4-0.4,4.3-2.4,5-4.6c-0.3-0.4-0.5-0.8-0.8-1.2   C455.8,229.4,456.1,228.6,456.7,227z M455.3,220.7c1.4-1.1,2.9-1.8,2-3.7C454.7,218.1,454.4,218.6,455.3,220.7z M454.3,224.4   c2.4-0.5,2.6-0.8,1.8-2.8C454.9,222.1,454.1,222.8,454.3,224.4z M458.1,208.7c-1.9-0.5-2.2-0.2-1.8,2.4   C457.7,211,457.8,209.8,458.1,208.7z M455.4,214.1c1.8-0.5,1.8-0.5,1.4-1.7C456.3,213.1,455.9,213.6,455.4,214.1z" />
	<path fill="#977264" d="M481.2,119.3c-1,0.1-2,0.2-3.1,0.3c-9.5,9,3.7,24-5.5,32.6c-3.2-3.5-6.4-6.8-6.9-11.9   c-4.7,5.9-4.8,12.9-8.1,19.2c-1.1,3.5-5.5,7.3-3.3,10.9c-1.8,0.1-2.4,1.3-2.8,3c0.9,0,1.4,0,2,0c-0.8,1.3-1,3-2.4,3.9   c-2.8-1.1-2.8-1.1-4.8,0.8c1.6,0,2.9,0,4.3,0c-1.6,1.6-4.3,0-6.2,1.4c0-0.4-0.1-0.8-0.1-1.2c-0.1,0-0.3,0-0.4,0   c0,0.4-0.1,0.8-0.1,1.2c-12.5,10.3-16.4,28.7-25.7,42.1c0,0.2,0.2,0.9,0.5,1.8c-0.8,0-1.5,0-2.3,0c-0.7,1.6-1.4,3.3-2.1,5   c-0.1-0.4-0.2-0.9-0.4-1.4c-0.9,0.7-1.8,1.2-0.5,2.1c0,1.3-0.3,3.2-2.1,2.6c-0.6,0.8,0.3,2.1-0.9,2.7c0.2-1.7-1.3-1.5-2.6-1.6   c4.3-10.8,12.3-20.1,17.4-30.7c4.4-11.1,10.1-21.3,19.3-29.3c1.9-6.2,8.1-11.4,10.2-18.1c7.3-12.3,6.4-29.2,20.4-36.9   C476.9,118.9,479.2,118.1,481.2,119.3z M471.9,145.3c0.2-1.4,0-2.8-0.9-3.9c0.3-2.4,0.3-2.4-0.5-4.1   C468.6,139.4,469.7,144.1,471.9,145.3c-0.1,1.1-1.9,4,0.6,3.5C472.5,147.7,473.4,146,471.9,145.3z M469.4,135.8   c1.6-0.9,1.8-7.6-0.8-7C467.8,132.4,467.9,133.2,469.4,135.8z" />
	<path fill="#9BA1A2" d="M470.6,558c-3.8,8.2-4.2,18.2-9.9,25.7c-1.3,1.8-1,3.8-0.8,6c16.6,3,19.4,5.6,32.5-3.8   c16.7,4,35.8,8.8,50.4-4.2c-6.4,19.9-31.7,12.3-47.3,11.4c-11.9,6.5-25.3,5.1-38.1,1.3c0-1.6,0-3,0-4.3c-0.1,0-0.2,0-0.3-0.1   c-0.3,0.9-0.4,1.5-0.7,2.5c-2-0.6-2.4-2.3-3.3-3.6c1.8-11.7,5.7-22.4,10.9-33C466.3,556,468.9,555.5,470.6,558z M461.3,579.5   c1.9-5.3,1.7-11.2,4.8-16.1c0.7-1.2,1.8-2.5,1-4.5c-4.5,6.1-6.3,13.2-6.7,20.6c-1.8,1-1.5,2.6-1.1,4.2   C459.7,582.1,460.3,580.7,461.3,579.5z" />
	<path fill="#B1B6B7" d="M433.1,552.7c8.2,8.8,1.9,11.8,17.8,13.5c6-2.1,9.9-12.2,5.5-17c-0.9,1,0.2,1.9,0.1,2.8   c-0.1,0.8-0.4,1.6-0.8,2.4c-0.7-3.4-0.6-6.9-2.4-9.9c1.5-1.4,2.8-2.3,4.5-1.4c0.8,2.6,1.5,5.2,2.3,7.7c0.9,0.7,1.8,1.4,2.7,2   c-3.1,10.4-10.4,19.3-9.9,30.4c-0.2,0.3-0.5,0.5-0.7,0.8c-8.7,0.1-16.8,2.2-25.6,0.7c0-10.5,3.2-21.2,5-31.9   C432,552.4,432.6,552.8,433.1,552.7z" />
	<path fill="#6C5CA8" d="M452.2,376.8c2.5-5.5,8.8-10.2,6.9-16.7c-1.6,0.8-2.2,2.2-3.2,3.5c-2.4,0.6-3.4,2.8-5.4,4.3   c0.9,0.4,1.5,0.7,2.1,0.9c0.3,1.8-1.7,3.2-2.6,5.2c-6.6-12.4,3.8-24.5,9.8-35.2c2.2-0.3,0.8,2.3,2.2,3c3.2,15.1-0.3,21.2-4.5,35.1   C455.7,376.8,453.9,376.8,452.2,376.8z M454.8,359.7c1.6-2.1,7-10,4-11.6C456.1,351.5,456,355.8,454.8,359.7z" />
	<path fill="#9AA0A1" d="M426.2,583.1c0.1,0.5,0.3,0.9,0.4,1.6c8.7,1.5,16.9-0.7,25.6-0.7c-3.2,11.8-24.6,8.2-32.6,3   c-0.5-2,0.3-3.5,1-4.9c1.9-5.7,0.8-12,4.8-17.2c0.3,0,0.5,0,0.8,0c-2.5,5.5-3.2,11.4-3.2,17.7c0.2,0.1,0.6,0.4,1,0.6   c0.1,1-0.5,2.2,0.9,2.9C425.4,585,425.8,584.1,426.2,583.1z" />
	<path fill="#6C5BA8" d="M526.8,363.8c1-1.7,3.1-2.1,4.5-3.6c0-2.4,0-4.9,0-7.8c-0.6-1.1-2.1-2.7-1.2-4.1c1.4-8.6,0.2-17.7,0.6-26.5   c2,18.8,0.2,38,2.3,56.9c-3.4,0.6-6.5,2.2-10,1.9c-0.3-3.9,0.6-8.3-0.5-12c-0.3-0.1-0.7-0.2-1.1-0.2l0,0   C522.4,366.9,528.2,365.5,526.8,363.8z" />
	<path fill="#FCFCFC" d="M480.6,570.2c-2.4-3.4-6.4-4.3-6.3-9.1c5.7-0.3,11.1-1.7,16.2-4.3c1,1.4,2,2.7,3.2,4.2   C493.3,569.1,488.3,571.2,480.6,570.2z M479.6,562.2c0.7,1.6,0.9,3.3,2.8,4.4c1.2-0.4,5.4,0.9,4.5-1.8c-1.3,0-2.8,0-4.1,0   c-0.7-1.2-1.3-2.1-1.8-3C480.5,561.9,480.3,562,479.6,562.2z" />
	<path fill="#D4D0DA" d="M525.3,165.9c-0.8-0.5-1.6-1-2.3-1.7c1.8,0.2,1.8,0.2,2.7-1.4c-0.4-0.3-0.8-0.5-1.2-0.8c0-0.4,0-0.9,0-1.6   c-1.2,0.4-2.1,0.7-2.9,1c0.1-0.5,0.2-0.9,0.3-1.4c-1.9-0.7-1.9-0.7-1.2-1.8c0.7,1.2,1.3,0.3,2.2-0.2c-0.6-0.5-0.8-0.7-1.4-0.7   c1.4-1.5,2.7-2.9,4-4.4c1.2,0,2.1,0,3.2,0c1.9,1.5,1.8,4.5,4.4,5.3c-1.6,2.7-3.3,5.4-4.9,8.1c-0.4-0.5-0.8-0.9-1.2-1.4   C526.4,165.4,525.8,165.6,525.3,165.9z" />
	<path fill="#52438F" d="M457.5,376.8c1.2-6.4,4.1-12.3,6.2-18.4c1.7,2.6,2.4,14.7,0.7,16.9c0-1.9,0-3.7-0.2-5.6   c-0.2,0-0.4,0-0.5-0.1C462.2,372.8,462.1,378,457.5,376.8z" />
	<path fill="#5E4F92" d="M491.7,242.8c2.5,0.5,5,1,7.6,1.6c-0.4,2-2.2,3.7-1.1,5.8c1.7-1.2,1.3-3.4,2.5-5c0.7-0.1,1.6-0.1,2.4,0   c-0.4,2.5-0.9,4.7-1.7,7.2c-2.3-0.4-4.6-0.9-6.9-1.3c-0.1-2.5,1.7-4,0.8-6.6c-2,2-1.5,4.1-2.1,6.4c-1.5-0.4-3.3,0-4.5-1   C492,249.8,491,245.1,491.7,242.8z" />
	<path fill="#4D3F87" d="M458.2,238.9c0.5,0.6,1,1.2,1.5,1.8c-0.5,0.4-1,0.9-1.6,1.3c-0.2,0-0.4,0.1-0.7,0.1   c-0.1-0.7-0.1-1.4-0.2-2.7c-2.2,2.3-2.3,5.1-4.2,7.2c-5.1-1.4-9-0.1-14.3,0.7c1.5-1.5,2.1-2,2.8-3.6l0,0c0.2,0,0.5,0,0.7,0   c0,0.5,0.2,0.9,0.4,1.3c0.5-0.8,1.4-1,1.1-2.1c0.3-0.5,0.4-1.2,1.5-1.2c0,1.3,0,1.9,0.3,3.4c0.7-1.7,1.2-3.1,1.7-4.4   c0.2,0,0.3,0.1,0.5,0.1c0,0.8-0.1,1.5-0.1,2.4c0.7,0,1.4,0.1,2.3,0.1c0.3-1,0.7-2,1.1-3.2C453.1,238.4,455.7,239.1,458.2,238.9z" />
	<path fill="#6A5AA7" d="M459.7,322c-1.7,2.4-0.3,6.9-0.7,9.5c-4.1,6.8-7.9,13.2-12,20c3.8-10.9,9.2-22.1,12.7-33.3   C459.7,319.5,459.7,320.7,459.7,322z" />
	<path fill="#130D1C" d="M443.7,246.5c3-1.6,6.3-0.3,9.4,0c1.8-2.1,2-4.9,4.2-7.2c0.1,1.3,0.2,2,0.2,2.7c-1.5,1.2-1.5,2.9-2.1,4.5   c0.5,0.2,0.8,0.4,1.3,0.7c1-1.6,1.1-3.4,1.5-5.2c0.5-0.4,1-0.9,1.6-1.3c0.1,0.3,0.2,0.7,0.3,1.1c0.7-0.7,1.3-1.3,2-2.1   c0.7,2.6-1.9,4.6-1.5,7.5c1.9,0.1,3.6,0.2,5.3,0.2c0.5,0.5,1,0.9,1.5,1.4c-3,0-6.1,0-9.1,0C454.1,247.6,448.2,247.5,443.7,246.5z" />
	<path fill="#F7F9F9" d="M451.5,563.4c-4.2,0.6-7.5-1.5-11.4-3.5c4.5-2.3,8.6-1.2,13.1-3.4c0.4,1.5,0.8,2.9,1.1,4.3   C453.4,561.6,452.5,562.4,451.5,563.4z" />
	<path fill="#AAAEAF" d="M424,583.2c-0.4-0.3-0.8-0.5-1-0.6c-0.4-10.5,4.5-20.1,5.5-29.8c2.8-0.2,0.7,2.3,0.6,3.8   C426.6,564.8,427.7,574.8,424,583.2z" />
	<path fill="#111010" d="M452.9,583.2c-0.8-8.7,4.5-16,7.6-23.7c0.3,0.8-0.3,1.9,0.8,2.4c-3.9,7.5-5.6,15.6-7.5,23.7   C453.5,584.8,454,583.7,452.9,583.2z" />
	<path fill="#584C8C" d="M503.3,254.1c-0.9,0-1.8,0.4-2.4-0.6c4-0.6,1.3-5.8,3.2-8.4c0.6,0.3,1.1,0.6,1.8,0.9   c-1.1,1.7-1.6,3.4-1,5.6c0.4-0.6,0.7-1.1,1-1.5c0.9,0.5-0.2,2,1.4,2.4c0.9-1.7,1.1-3.7,1.4-5.8c0.6,0,1.2,0,1.9,0   c-0.8,2.2-1.8,4.2-0.9,6.5c0.3,0,0.7,0,1.1,0c0,0.3,0.1,0.5,0.1,0.8C508.3,254.2,505.5,252.4,503.3,254.1z" />
	<path fill="#130F1C" d="M503.3,254.1c2.6-1.8,5.7,0.3,8.7,0c0.7-1.8,0.5-4.5,2.6-5.2c-0.4,2.7-1.8,7.7,2.7,4.9   c1,1.1-0.1,1.8-0.4,2.6c-3.3-0.5-6.6-1-9.9-1.5C506.1,253.6,504.6,254.6,503.3,254.1z" />
	<path fill="#1D1614" d="M508.5,408.1c0-1.4,0-2.7,0-4.2c-2.6,0.3-2.7,3.5-5.1,4.3c-0.2-4.5,3.9-6.5,6.3-9.4c1.5,0.5-0.3,1.9,1,2.2   c-0.4,0.6-0.9,1.2-1.5,1.9C509.1,404.5,509.8,406.7,508.5,408.1z" />
	<path fill="#4F457F" d="M482.6,249.6c0-0.5,0.1-1,0.1-1.5c0.4,0,0.7,0,1.2-0.1c0.3-1.9,1.6-3.6,0.6-5.7c-0.4,0-0.7-0.1-1.1-0.1   c-0.3-0.5-0.5-1-0.8-1.5c1.8,0.4,3.7,0.5,5.4,1.5c-0.2,1,0.5,2.2-0.6,3.1c-0.1-0.7-0.2-1.3-0.4-2.1c-1.4,1.6-2.2,4.5-0.6,5.8   c0,0.2,0.1,0.5,0.1,0.7C485.2,249.5,483.9,249.6,482.6,249.6z" />
	<path fill="#65579F" d="M486.5,249.5c-0.2-1.5,0.6-2.9,0.9-4.4c1.1-0.8,0.5-2,0.6-3.1c0.7,0,1.4,0.1,2.1,0.1   c0.2,0.3,0.4,0.6,0.7,1.1c-1.6,1.8-1.4,4.1-1.4,6.4C488.4,249.8,487.4,249.6,486.5,249.5z" />
	<path fill="#241F3A" d="M520.7,258c-1.1-0.4-2.1-0.9-3.2-1.3c1.4-1.6,0.7-3.7,0.8-5.7c0.5-0.2,0.8-0.3,1.4-0.5   c0.1,1.6,0.2,3,0.3,4.7c0.6,0.3,1.4,0.7,2.3,1.2C521.7,257,521.2,257.5,520.7,258z" />
	<path fill="#5A4C8C" d="M516.3,254.2c-3.4,2-1.9-3.6-1.7-5.3l0,0c0.5-0.1,1-0.1,1.5-0.2c0.5,0.4,0.9,0.7,1.4,1.1   C517.5,251.4,515.5,252.5,516.3,254.2z" />
	<path fill="#5D5093" d="M514.6,248.9c-2.2,0.7-1.9,3.4-2.6,5.2c-0.5,0-0.8,0-1.2-0.1c-0.3-2.3,0.1-4.5,1.3-6.8   c0.8,0.3,1.6,0.6,2.4,1C514.5,248.4,514.6,248.7,514.6,248.9L514.6,248.9z" />
	<path fill="#6857A3" d="M461.3,376.1c0.8-2.1,1.6-4.3,2.4-6.4c0.2,0,0.4,0,0.5,0.1c0.1,1.9,0.2,3.7,0.2,5.6   C463.3,375.6,462.3,375.8,461.3,376.1z" />
	<path d="M475.7,111.7c0-1.9,1.5-3,2.4-4.5c0.3,0.3,0.6,0.6,0.9,1c-0.7,1.9-2.1,3.7-1.6,5.8c-0.3,0.3-0.6,0.5-0.9,0.8   C475.2,114,476,112.7,475.7,111.7z" />
	<path fill="#53457E" d="M521.4,368.4c0.4,0.1,0.7,0.2,1.1,0.2c1.1,3.7,0.1,8.1,0.5,12C521.4,376.9,522.2,372.4,521.4,368.4z" />
	<path fill="#191628" d="M489.4,249.7c0.1-2.3-0.2-4.6,1.4-6.4c-0.3-0.5-0.5-0.8-0.7-1.1C493.1,241.1,491.3,249.6,489.4,249.7z" />
	<path fill="#909899" d="M427.7,555.6c0.6,3.3-1.2,6.1-1.4,9.3c-0.3,0-0.5,0-0.8,0C425.8,561.7,425.7,558.4,427.7,555.6z" />
	<path fill="#1B1A2F" d="M502.4,245c-0.6,0-1.2,0.1-1.7,0.1c-1.2,1.5-0.8,3.8-2.5,5c-1.1-2.1,0.7-3.8,1.1-5.8   C500.4,244.5,501.6,243.8,502.4,245z" />
	<path fill="#2B221E" d="M464.3,413.4c-1.1,1-2.3,2.1-3.8,3.4c-0.6-3.1,1.5-4,3.8-4.9C464.3,412.4,464.3,412.9,464.3,413.4z" />
	<path fill="#3C3436" d="M525.3,165.9c0.5-0.3,1.1-0.6,1.7-0.9c0.5,0.5,0.8,1,1.2,1.4c0,2.1-2.1,1.6-3.7,1.6   C524.9,167.2,525.1,166.6,525.3,165.9z" />
	<path fill="#181424" d="M521.5,371.6c1.2,1.5,0.5,3.6,0.6,5.4c-1.7,1.1,0.4,3.5-1.3,4.5C521,378.1,521.2,374.8,521.5,371.6z" />
	<path fill="#808788" d="M492.4,550.4c0.1,0.7,0.2,1.5,1,1.8c0.1,1.9,1.1,2,2.6,3.7C493.9,556.2,490.7,551.8,492.4,550.4z" />
	<path fill="#A5A5AA" d="M476.5,114.8c0.3-0.3,0.6-0.5,0.9-0.8c0.2,0,0.5,0,0.7,0.1c-0.2,0.8-0.2,1.4,0.8,1.7c0,0.4,0,0.8,0,1.2   c-0.8-0.1-1.6-0.1-2.5-0.2C476.4,116,476.4,115.4,476.5,114.8z" />
	<path fill="#7E767A" d="M518.5,244.2c0.4-0.5,0.9-1,1.3-1.5c0.2,1.5,0.4,3.1-1.3,4.9C518.5,246.1,518.5,245.1,518.5,244.2z" />
	<path fill="#0C0911" d="M504.1,245.1c-1,1.9-0.8,4-1,6c-1.6-1.5-0.1-4.1,0-6C503.4,245.1,503.7,245.1,504.1,245.1z" />
	<path fill="#241F3A" d="M520.9,254.9c-0.2-1.4-0.6-2.4,0.8-2.9C522.5,253.2,521.6,253.8,520.9,254.9z" />
	<path fill="#2E221E" d="M468.6,408.4c0.5,0.4-0.1,1.1-0.1,1.7c-0.3-0.1-0.6-0.3-0.9-0.4C467.9,409.3,468,408.5,468.6,408.4z" />
	<path fill="#909899" d="M430.1,553.6c-0.2-0.8-0.9-0.8-1.6-0.9c1-1.2,2-0.5,3,0c0,0.2,0,0.4,0,0.6   C431.1,553.5,430.6,553.6,430.1,553.6z" />
	<path fill="#312A2B" d="M517,242.1c0-0.3,0.1-0.7,0.1-1c1.3,0.9,1.3,0.9,1.3,2.5C517.9,243.1,517.4,242.6,517,242.1z" />
	<path fill="#3F4142" d="M494,557.2c0.3,0.5,0.4,0.8,0.5,1.1C493.5,559.1,493,558.1,494,557.2z" />
	<path fill="#909899" d="M428.5,552.8c-0.1,0.8,0.3,1.8-0.8,2.2C427.7,554.2,427.4,553.2,428.5,552.8z" />
	<path fill="#383637" d="M525.3,203.2c-0.1-0.7-0.1-1.3,0.6-1.7C526.1,202.2,526.1,202.8,525.3,203.2z" />
	<path fill="#312A2B" d="M516.7,246.5c0.1-0.5,0.2-0.9,0.3-1.4C517.7,246,517.7,246,516.7,246.5z" />
	<path fill="#16152E" d="M442.2,243.6c-0.2,0-0.5,0-0.7,0c0.1-0.4,0.1-0.8,0.2-1.2c0.1,0,0.2,0,0.4,0   C442.1,242.8,442.2,243.2,442.2,243.6z" />
	<path fill="#16152E" d="M443.7,242.8c0,0.6,0,1.3-0.7,1.5C443,243.7,443,243.1,443.7,242.8z" />
	<path fill="#16152E" d="M441.5,243.6c-0.2,0.5-0.5,1.1-0.7,1.6C440.7,244.5,440.7,243.8,441.5,243.6z" />
	<path fill="#130F1C" d="M514.6,248.9c0-0.2,0-0.5-0.1-0.7c0.6-0.1,1.3-0.1,1.6,0.5C515.6,248.8,515.1,248.8,514.6,248.9z" />
	<path fill="#909899" d="M433.1,552.7c-0.3,0-0.6-0.1-0.9-0.1C432.5,552.1,432.9,552.1,433.1,552.7z" />
	<path fill="#16152E" d="M443,244.3c-0.1,0.2-0.2,0.4-0.4,0.6c-0.1-0.2-0.2-0.4-0.3-0.6C442.5,244.3,442.8,244.3,443,244.3z" />
	<path fill="#B28C7D" d="M382.8,238.3c-0.3,0.1-0.7,0.2-1.3,0.3c-0.6-1.5-1.9-2.2-3.3-2.8c-1.4-1.8-3.8,0.5-5.2-1.4   c10.7-20.6,8.3-44.9,20.8-64.5c11.1-2.6-0.4-24.1,9.5-32.2c1.1,0,1.9-0.1,3.2-0.2c0.9-2,1.7-3.9,2.5-5.7c2.7-0.6,4.8,0.2,7.1,1.3   c1.5,9.5,1.7,18.9,5.5,27.9c-3.5,5.1-5.4,11.7-9.2,16.3c0-1.4,1.9-4.2-0.4-4.5c-0.7,1.4-1.9,3.8,0.5,4.5   C411.2,201.4,390.7,216.5,382.8,238.3z M403.3,170.1c-0.6-2.4-6.4-0.4-4.5,1.6C400.1,171,402.1,171.8,403.3,170.1z M384.6,225.1   c-1.1,0.5-1.5,1.3-1.4,2.5c0.3,0.2,0.7,0.4,1.4,0.8c0.4-0.9,0.8-1.7,1.1-2.4C385.2,225.7,384.9,225.4,384.6,225.1z M381.3,230.7   c2.1-0.1,2.1-0.1,1.6-1.8C382.3,229.6,381.8,230.1,381.3,230.7z M412.9,168.2c-1.2,0.8-1.2,0.8-0.6,2.8   C413.2,170.1,413.7,169.3,412.9,168.2z M387.1,221.6c-1.5-0.5-2.2,1.4-0.9,1.8C387,223.3,387.5,222.8,387.1,221.6z M389,219.3   c0.4-0.5,0.8-0.7,0.3-1.2C388.8,218.5,388.1,218.6,389,219.3z M416.4,153.5c0.2,0.1,0.3,0.1,0.5,0.2c0.2-0.4,0.3-0.8,0.5-1.3   C416.4,152,416.6,152.9,416.4,153.5z M381.2,233.7c-0.1-0.2-0.3-0.3-0.4-0.5c-0.4,0.2-0.1,0.6,0,0.9   C381,234,381.1,233.8,381.2,233.7z" />
	<path fill="#D5D2DC" d="M416.4,128.7c0-1.2-0.6-2.7,1.1-3.3c-0.4-0.5-0.8-1-1.1-1.4c2.3,0.4,2.2-2.3,0.7-2.9   c0.4-2.5,2.2-3.9,4.2-5.2c2.6,0,3.4,2.1,4.5,4.1c1.7,0,3.4,1.6,5.4,0.1c5,1.7,3.3,4.4,6.4,7.6c3.7,4.7,2.5,10.4,3.8,15.7   c0.1-1.4-0.2-3,0.8-4.1c0.2,1.5,0.5,2.9,0.7,4.4c-0.6,0.5-1.1,1-1.7,1.5c0.4,4.4,0.7,8.4,0.2,12.6c-3.4,2.8-0.2,9.4-2.2,13.6   c-0.2,0.8-0.3,1.8,0.8,2.3c-1.4,2.8-4.2,4.9-6.2,7.4c-10.1-16-14.1-35.8-16.2-54.6C417.1,127.4,416.7,128,416.4,128.7z" />
	<path fill="#D5D2DC" d="M441.5,150.7c0-0.6,0.1-1.2,0.1-1.8c0.4,0.1,0.7,0.1,1.3,0.2c0-2,0.4-3.2,1.6-4.6c0-1.4,0.1-2.7,1.5-3.4   c0.2-0.1,0.2-0.7,0.2-1c0.8-3.8,1.8-12-2.4-13.6c-0.2,0.2-0.4,0.5-0.7,0.8c0.1-0.7,0.1-1.4,0.2-2.3c-0.3-0.5-1.7,0-1.8-1.1   c1.4,0.1,1.4,0.1,1.3-1.4c0.5-0.1,0.9-0.2,1.3-0.3c0.6-4.1,1.1-8,1.7-12.1c-3,0.2-5.9,1.4-9.1,0.9c-7.3-5.6,5.5-7.1,7.9-10.3   c2.2-1,3.2,0.6,4.6,1.2c2-2.3,4.2-3.2,5.9-0.1c0.1,1.4-0.5,3.5,0.8,4.7c0,1,0.2,1.8,1.5,1.5c-0.4,1.3-0.6,2.7-1.4,3.8   c-0.2-1,0.5-2.2-0.7-3.3c-1.8,2.2-2,4.5-1.5,7c0.5,0,0.9,0,1.2,0c5.1,4.8,0.9,13.2,4.7,18.4c-2.2,11.7-7.3,23.3-14.6,32.6   c-0.2-3.4-1-6.6-3.9-8.8l0.1-0.1c1.9-0.8,2-4.7,1.2-6.6C442.2,150.8,441.8,150.7,441.5,150.7z M440.6,108.6   c-1.3-0.7-2.4-1.9-4.1-2.1c-0.3,0.3-0.7,0.6-1.1,1c0.9,1.8,2.5,2.1,4.1,2.7c0.4-0.5,0.9-0.9,1.3-1.3c0.6,0.2,1.3,0.4,2.1,0.6   c0-1.5-0.5-2.1-1.9-2.2C440.9,107.8,440.7,108.2,440.6,108.6z M452.5,124.9c1.6-2.2,2-3.3,0.2-5   C451.6,121.7,450.9,123.2,452.5,124.9z M452.2,129.1c1.9-0.2,1.1-3.2-0.9-2.7C451.7,127.4,451.9,128.2,452.2,129.1z M452.8,132.2   c-1.4,1.4-1.4,1.4,0,3C452.8,134.1,452.8,133.1,452.8,132.2z M447.8,108.2c0.8-0.1,1.6-0.3,2.4-0.5   C449.2,106.3,449.2,106.3,447.8,108.2z M446,108.7c-1.3-1.7-1.3-1.7-2.2-0.1C444.5,108.6,445.2,108.7,446,108.7z" />
	<path fill="#977264" d="M403.4,137.7c-9.9,8.1,1.7,29.5-9.5,32.2c-12.5,19.6-10.1,44-20.8,64.5c1.3,1.9,3.8-0.4,5.2,1.4   c-3.1,0-6.2,0-9.5,0c8.9-20.6,5.4-46,19.2-64.7c3.2-17.5,3-21.5,13.2-37.2c0,0,0,0,0,0c0.2,0,0.4,0,0.7,0l0,0c0.9,2,1.9-2.2,1.6-3   c2.5,0.2,5.3-0.6,7.6,0.6c-0.6,0.1-1.2,0.2-2,0.3c-0.8,1.9-1.7,3.8-2.5,5.7c-1,0.1-1.7,0.1-2.4,0.2c0.3-0.9,1.5-1.8,0-3.1   c-0.5,0.6-1,1.1-1.5,1.6C403,136.8,403.2,137.3,403.4,137.7z" />
	<path fill="#B28C7D" d="M497.8,70.7c-1.5,7.2-0.3,13.7-0.7,21.5c-1.1-1.3-1.8-2-2.6-2.9c-6.7-1-13.5-4.8-20.3-6.4   c0.7-22.2,10.4-15.6,16.7-31.4c2.8,2.1,3,6.5,7,7.4C497.9,62.9,498,66.8,497.8,70.7z" />
	<path fill="#967264" d="M478.8,65.4c-3.2,5.1-3.9,11.6-4.6,17.5c-2.4-0.1-4.8-0.3-7.2-0.4c-0.3-0.6-0.6-1.1-0.9-2   c-0.8,0.6-1.5,1.2-2.6,2.1c-1.6,0.1-3.5,1.3-5.9,0.7c0.3-5.8,2-11.3,2.7-16.7c1.4-1.1,2.3,0.5,3.4,0.3c1.1-0.2,2.2-0.6,3.6-1   C472.6,69.2,473.8,66.8,478.8,65.4z M466.7,79.2c-0.8-1.1-1.8-0.7-1,0.4C466,79.5,466.2,79.4,466.7,79.2z" />
	<path fill="#B18B7C" d="M510.7,30.4c4,5-0.6,10.5,1,15.7c2.9,9.2-1,18.8-3.2,27.7c-3.8-4.1-4.3-9.8-4.5-15.1c3.1-2.4,0.4-3.6,0-6.3   c2.5-2,0.7-5.7-0.1-8.2c1.1-1.6,3.1-2.4,2.9-4.6C507.1,36.2,510.7,34,510.7,30.4z" />
	<path fill="#967164" d="M504,58.6c0.3,5.3,0.8,11,4.5,15.1c0.2,4.8-6.4,3.4-9.6,3.8c-1-2.4,1.5-5.4-1-6.8c0-0.3,0-0.6,0.1-0.9   c2-1.5,2-2.2,0-3.6c0-0.5,0-1.1-0.1-1.6c0.9-0.6,0.9-0.7,0.1-1.4c0-1.4,0-2.7,0-4.2c-4-0.9-4.2-5.3-7-7.4c1.6-2,3.1-4,4.7-6   c0.3,0,0.5,0,0.8,0c0,1.3,0,2.7,0,4.2c0.5-0.4,0.9-0.6,1.2-0.9c0.5,1.2,2.3,4.3,1,5.2c-0.4,0-0.9,0-1.9,0   C499.1,56.4,501.1,58.1,504,58.6z" />
	<path fill="#D2D0D9" d="M416.2,106.2c-3.7,6.6-7.4,13.9-6.6,21.7c0.7,0.5,1.4,0.9,2.1,1.3c-3.1-0.1-6.2-0.1-9.4-0.2   C404.2,120.2,407.3,110,416.2,106.2z" />
	<path fill="#DEDCE3" d="M441.4,157.7c5.5,4.1,4.5,12.8-1.4,15.9c-1.1-0.5-1-1.5-0.8-2.3C441.2,167.1,438,160.5,441.4,157.7z" />
	<path fill="#987A6D" d="M505.4,42.4c-0.5,0.5-0.9,1-1.6,1.7c0.2,0.7,0.5,1.5,0.8,2.3c-1.4,0.6-1.1,0.7-2.1-0.8   c0-1.1,0.7-2.2-0.1-3.2c-0.4,0.1-0.9,0.2-1.2,0.3c-0.4,2.6-1.4,5-0.6,7.5c-0.2,0-0.4,0-0.5,0c-1.4-1-0.5-2.6-1.1-3.8   c-1.3-2.3,0.1-4.9,2.1-6.2C503,40.4,503.5,42.8,505.4,42.4z" />
	<path fill="#302521" d="M499.3,41.7c-0.7,1.5-1.2,3.1-0.3,4.6c0.7,1.2-0.2,2.8,1.1,3.8c0.3,1.5,0.5,3,0.8,4.6   c-1.4,0.6-1.4,0.6-2.3-0.6c1.3-0.9-0.5-4-1-5.2c-0.4,0.3-0.7,0.5-1.2,0.9c0-1.5,0-2.9,0-4.2c0.9-0.8,1.8-3.2,0.7-3.9   C497.8,40.2,498.6,41.6,499.3,41.7z" />
	<path fill="#70584E" d="M497,41.7c1.1,0.7,0.2,3.1-0.7,3.9c-0.3,0-0.5,0-0.8,0C495.5,44,495.4,42.5,497,41.7z" />
	<path fill="#463932" d="M403.5,130.9c0,0.2,0,0.4-0.1,0.7c-1.2,0.3-1.5,1.3-1.6,2.3c-0.2,0-0.4,0-0.7,0c0-0.9,0-1.7,0-2.9   C402.1,131,402.8,131,403.5,130.9z" />
	<path fill="#A4A7A7" d="M385,238.1c0.3,0.3,0.6,0.6,0.9,0.9c-0.8,1.1-1.8,0.5-1.5-0.8C384.6,238.2,384.8,238.1,385,238.1z" />
	<path fill="#463932" d="M401.2,133.9c-0.3,0.5-0.5,1-0.8,1.5C400.3,134.8,400.3,134.1,401.2,133.9z" />
	<path fill="#A88476" d="M384.4,268.6c1.2,0.2,1.8,0.9,1.4,2.5c-0.8,0.6-1.8,1.3-2.6,1.9c-5.7,0.3-15.4,3.4-17.6-3.7   C371.9,270.2,378.1,268.8,384.4,268.6z" />
	<path fill="#AE8A7B" d="M370.6,258c0.4-0.3,0.7-0.7,1.3-1.2c4.8,2.1,10.1,2.1,14.8,4.8c-1.9,4.4-11.7,2.7-15.3,1.8   C371.7,261.5,370.5,259.9,370.6,258z" />
	<path fill="#937062" d="M358.3,258.1c2.8,4.2,9.7,2.1,11.2,7.3C365.5,270,351.2,263.7,358.3,258.1z" />
	<path fill="#AE8A7B" d="M376,248.1c5.8,2.2,8.9,3.9,10.3,5.8c-3.1,3.3-8.2,0.9-11.8-0.5c-1.1-1.8-1.1-3.9-1.5-5.9   c0.3,0,0.5,0,0.8,0.1C374.3,248.4,375.2,248.1,376,248.1z" />
	<path fill="#937062" d="M358.4,253.4c-0.7,0.3-1.2,0.5-2,0.8c-0.1-1-0.2-1.7-0.2-2.7c0.9-0.7,1.9-1.5,3-2.5c3.6,1.3,10.7,2,9.9,7.4   C364.9,257.3,361.8,255.1,358.4,253.4z" />
	<path fill="#927264" d="M407.8,232.8c0.3,0,0.7,0.1,1,0.1c-0.7,1.1-1.2,2.3-0.8,3.7c-2.9-0.2-3.5,1.8-4,4c-0.4-0.2-0.8-0.4-1.4-0.8   c0,0.9-0.1,1.6-0.1,2.2c-8.2-2.6-9.2,3.6-16.4,1.9c-0.1-0.6-0.1-1.3-0.2-2c4-1.9,8.5-2.2,12.7-1.4   C402.3,238.4,405.4,236,407.8,232.8z" />
	<path fill="#906E61" d="M372.9,247.4c0.4,2,0.4,4.1,1.5,5.9c-4.7,0.1-7.7-3.6-11.9-4.7c-0.2-0.1-0.4-0.5-0.8-1.1   C365.6,247.7,369.3,246.1,372.9,247.4z" />
	<path fill="#8F6E61" d="M370.8,274.8c-4.1,4.3-12.4-1.5-9.7-6.6c0.8-0.2,1.1,0,2,0.2C364.1,272,366.6,274.2,370.8,274.8z" />
	<path fill="#A68678" d="M377.8,237.6c1.6,1.8,4.9,2,5.1,5.6c-1.5,0.3-2.6-0.4-3.6-1.1c-3.5-2.9-7.5-2.2-11.6-3.5   C371.1,237.4,374.2,237.3,377.8,237.6z" />
	<path fill="#9A7B6E" d="M372.3,276c3.9-2,8-0.4,12-2.1c-0.3,2-1.6,2.8-2.7,3.7C378.4,277.9,375.5,277.2,372.3,276z" />
	<path fill="#8C6A5D" d="M369.2,241.2c-0.9,0.9-0.2,2.1-0.1,3.1c-3-1.1-6-1.4-8.9-2.3C361.9,238.7,366.6,239.1,369.2,241.2z" />
	<path fill="#7E6155" d="M370.6,258c-0.1,1.9,1.1,3.4,0.7,5.3c-1.8-1.3-3.6-2.5-5.4-3.8c0.7-1.7,2.9,0,3.8-1.4   C370.1,258.1,370.4,258.1,370.6,258z" />
	<path fill="#775E52" d="M369.8,258.2c-0.9,1.5-3.1-0.3-3.8,1.4c-0.3-0.2-0.7-0.3-1.1-0.5c-0.3,0.3-0.6,0.6-0.9,1   c-1.7-1-3.9-1.4-4.8-3.7C362.7,257.3,366,258.7,369.8,258.2z" />
	<path fill="#6B5A50" d="M378.4,257.2c-3.1-0.2-5.3-1.1-8.2-3.1C373.8,254.3,376,255.2,378.4,257.2z" />
	<path fill="#392420" d="M384.4,268.6c-1.9,0-3.9,0.4-5.5-0.8c2.6-1.1,5.2-1.2,7.8,0.1C385.9,268.1,384.9,267.6,384.4,268.6z" />
	<path fill="#624940" d="M362.1,245.6c1.3-1.8,1.7-1.7,3.8,0C364.6,245.6,363.6,245.6,362.1,245.6z" />
	<path fill="#766459" d="M384.4,257.3c0,0.5,0,1,0,1.4c-0.9-0.3-1.8-0.5-2.6-0.8c0-0.2,0-0.3,0-0.5   C382.6,257.4,383.5,257.3,384.4,257.3z" />
	<path fill="#906E61" d="M376,248.1c-0.8,0-1.7,0.4-2.3-0.6C374.5,247.4,375.4,247.2,376,248.1z" />
	<path fill="#444042" d="M495.6,93.3c-2,0.5-3.6,2.3-5.6,1c1.4-1.9,3.2-1.7,4.8-1.5C495.1,92.9,495.3,93.1,495.6,93.3z" />
	<path fill="#D5D2DC" d="M472,103.5c-2.1,1.4-4.5,0.4-7.2,0.7c-1.1-1.2-2.4-2.5-3.6-3.9c0.3-1.5,1.2-2.9,0.8-4.5   c0.5,0.1,1.2,0.5,1.4,0.4c4.5-3.4,9.9-0.5,12.6,3.5c-0.8,0.7-1.7,1.4-2.5,2.1c-1.4,0.1-3-0.5-2.6,1.7   C471.2,103.5,471.6,103.5,472,103.5z" />
	<path fill="#D0CED7" d="M478.1,114.1c-0.2-0.1-0.5-0.1-0.7-0.1c-0.3-2.5,0.9-5.3,2.7-6.9c0.9,0,1.8,0.1,2.6,0.1   c3.1,2.1,2.4,3.8,0.6,6.8c0.6,0,1.1,0,1.6,0l0.1,0.1c-1.4,1.5-3.8,0-5.4,1.4C479.6,114.2,479.6,114.2,478.1,114.1z" />
	<path fill="#151415" d="M462,95.8c0.7,3.6-2.7,5.5-3,9c0,1.1-1,2.1-1.6,3.2c-4.6-0.9,2.8-9.4,3-12.4   C461.1,95.7,461.6,95.8,462,95.8z" />
	<path fill="#141314" d="M443.1,127.3c0.2-0.3,0.5-0.6,0.7-0.8c4.3,1.6,3.2,9.9,2.4,13.6l-0.3-0.2c0-1.2,0.6-2.6-0.5-3.7   C444.7,133.2,443.6,130.3,443.1,127.3z" />
	<path fill="#D5D2DC" d="M443.1,127.6c0.8,2.9,1.5,5.8,2.3,8.6c-0.2,0.2-0.3,0.4-0.2,0.6c-0.3,0.9-0.5,1.9-0.9,3   c-0.8-0.8-1.5-0.4-2.1,0.2C442,135.9,443.6,131.9,443.1,127.6z" />
	<path fill="#383637" d="M519.2,206.8c0.7-3.1,2.9-5.1,4.4-7.5C527.5,200.4,521.5,206.3,519.2,206.8z" />
	<path fill="#2A2829" d="M455.1,115.5c-0.4,0-0.7,0-1.2,0c-0.5-2.5-0.3-4.8,1.5-7C457,110.9,455.5,113.1,455.1,115.5z" />
	<path fill="#2F2F30" d="M518.5,209c0,2.2-1.9,3.2-2.5,4.7C513.1,212.8,515.9,209.7,518.5,209z" />
	<path fill="#251D1E" d="M473.4,101.8c0.8-0.7,1.7-1.4,2.5-2.1c0.6,0,1.2,0,1.8,0c-0.8,2.2-1.7,2.8-4.3,3   C473.4,102.4,473.4,102.1,473.4,101.8z" />
	<path fill="#362829" d="M480.2,104.8c1.8-1.9,1.4-3.7,4.3-4.3c1.3,2.1-3.4,2.5-3.5,5.2c-0.2,0-0.4,0.1-0.6,0.2   C480.4,105.5,480.3,105.2,480.2,104.8z" />
	<path fill="#48484A" d="M514.3,235.1c2,0.7,3.2,3.1,1.6,4.4C514.3,238.4,514.1,236.8,514.3,235.1z" />
	<path fill="#39393B" d="M461.5,121c-1.2-2-1.1-2.2,1.5-3.8C463.3,118.9,462.9,120,461.5,121z" />
	<path fill="#3E3B3E" d="M486.4,197.9c-0.2,0.5-0.4,1-0.7,1.9c-1.5-1.3-1.9-2.5-1.6-4c1.6-0.5,1.4,1.1,2.1,1.5   C486.2,197.5,486.3,197.7,486.4,197.9z" />
	<path fill="#242122" d="M525.5,128.5c1.8,2.5,1.7,2.8,0.1,4.6C524.8,131.8,525.3,130.5,525.5,128.5z" />
	<path fill="#402A2C" d="M521.5,161.5c0.9-0.3,1.8-0.6,2.9-1c0,0.7,0,1.1,0,1.6l0.1-0.1c-0.5,0.3-1,0.5-1.6,0.8   C522.2,162.7,521.5,162.5,521.5,161.5z" />
	<path fill="#574B4E" d="M434.1,103.6c-0.9,1.6-1.6,2.3-2.9,2.4C431.4,104.6,431.3,104.6,434.1,103.6z" />
	<path fill="#635A5D" d="M511.8,231.6c1.2,0.6,1.8,1.4,2,2.7C512,233.7,512,233.7,511.8,231.6z" />
	<path fill="#2B2425" d="M480.2,104.8c0.1,0.6,0.2,1.1,0.3,1.7c-0.3,0.8-1,1.2-1.5,1.8c-0.3-0.3-0.6-0.6-0.9-1   C478.4,106.1,479.1,105.2,480.2,104.8z" />
	<path fill="#302728" d="M517.3,100.3c1.9-0.1,2.6,0.8,3.2,2.2C518.9,102.6,518.1,102,517.3,100.3z" />
	<path fill="#393234" d="M524.5,162.1c0.4,0.3,0.8,0.5,1.2,0.8c-0.9,1.6-0.9,1.6-2.7,1.4c0-0.2,0-0.4,0-0.6   C523.5,163.1,524,162.6,524.5,162.1L524.5,162.1z" />
	<path fill="#403739" d="M440.2,122.6c-1.6-0.3-2.5-0.8-2.5-2.4C439.2,120.2,439.9,120.9,440.2,122.6z" />
	<path fill="#272122" d="M417.1,121c1.5,0.6,1.5,3.3-0.7,2.9C416.2,122.8,416.2,121.8,417.1,121z" />
	<path fill="#4E4244" d="M517.3,102.5c-3.2-0.1-3.4-0.3-3.2-2.2C515,100.9,515.8,101.5,517.3,102.5z" />
	<path fill="#5C5558" d="M514.3,217.8c-1.5-0.7-1.3-1.4-0.7-2.3C515.2,215.3,514.5,216.8,514.3,217.8z" />
	<path fill="#403133" d="M473.4,101.8c0,0.3,0,0.6,0,0.9c-0.6,0-1.2,0.1-1.5,0.8c-0.4,0-0.8,0-1.1,0   C470.4,101.3,472.1,102,473.4,101.8z" />
	<path fill="#69666A" d="M510.9,223.9c-1.1-1-0.9-1.6,0-2.6C511.7,222.1,511.8,222.8,510.9,223.9z" />
	<path fill="#3D3A3C" d="M442.9,122.5c0.1,1.5,0.1,1.5-1.3,1.4c-0.1-0.6-0.2-1.1-0.3-2.1C442,122.2,442.4,122.3,442.9,122.5z" />
	<path fill="#6F696D" d="M419.5,117.1c-0.5,0.4-1,0.9-1.5,1.3c-0.3-0.7,0.1-1.3,0.3-2C418.7,116.7,419.1,116.9,419.5,117.1z" />
	<path fill="#140404" d="M513.7,140.1c0.8,0,1.4,0,2.1,0C514.9,141.3,514.9,141.3,513.7,140.1z" />
	<path fill="#1C1314" d="M523.8,132.6c0,0.8-0.1,1.5-0.1,2.8C522.6,134.2,522.7,133.4,523.8,132.6z" />
	<path fill="#2A1718" d="M478.1,114.1c1.6,0.1,1.6,0.1,1.5,1.5c-0.2,0-0.5,0.1-0.7,0.2C477.9,115.5,477.9,114.9,478.1,114.1z" />
	<path fill="#070707" d="M468,111.1c-0.4,0.9-0.6,1.4-1,2.2C466.3,112.2,466.2,111.6,468,111.1z" />
	<path fill="#A39CA1" d="M510,102.9c0.7-1.2,1.7-0.8,1.1,0.4C510.7,103.2,510.4,103.1,510,102.9z" />
	<path fill="#7D797E" d="M521.4,157.4c0.7,0,0.9,0.1,1.4,0.7c-0.9,0.5-1.5,1.4-2.2,0.2C520.9,158,521.2,157.7,521.4,157.4z" />
	<path fill="#453637" d="M465.2,115.2c-0.5,0.4-0.9,0.8-1.5,1.3C463.9,115,463.9,115,465.2,115.2z" />
	<path fill="#D0CED7" d="M484.8,112.6c0.4,0,0.9,0.1,1.7,0.1c-0.7,0.7-1.1,1.1-1.5,1.4c0,0-0.1-0.1-0.1-0.1   C484.8,113.6,484.8,113.1,484.8,112.6z" />
	<path fill="#D4D0DA" d="M524.5,162c-0.5,0.6-1,1.1-1.5,1.7c0-0.3,0-0.6-0.1-0.9C523.5,162.6,524,162.3,524.5,162z" />
	<path fill="#A8A1A5" d="M485.8,99.7c1.3-0.7,1.7-0.3,0.5,0.7C486.1,100.2,485.9,100,485.8,99.7z" />
	<path fill="#272425" d="M484.8,112.6c0,0.5,0,0.9,0.1,1.4c-0.5,0-0.9,0-1.6,0c0.4-0.6,0.6-1,0.9-1.3   C484.4,112.7,484.6,112.7,484.8,112.6z" />
	<path fill="#776A6D" d="M518.2,141.5c-0.1-0.1-0.2-0.3-0.3-0.4c0.4-0.2,0.7-0.3,0.9,0.2C518.6,141.3,518.4,141.4,518.2,141.5z" />
	<path fill="#D0CED7" d="M480.5,106.5c-0.1-0.2-0.1-0.4-0.1-0.5c0.2-0.1,0.4-0.2,0.6-0.2C480.9,106,480.7,106.2,480.5,106.5z" />
	<path fill="#0E0B16" d="M459.8,338.8c-3.7,5.5-6.3,12-12.2,15.6c3.3-6.7,8.6-12.5,11.9-19.2C461.4,335.5,459.9,337.7,459.8,338.8z" />
	<path fill="#0D0810" d="M483.3,320.5c-6.5-0.9-13.3-1.8-19.1-4.9c7.3-0.9,14.2,3.2,21.5,4.2C485.1,320.9,484.1,320.3,483.3,320.5z" />
	<path fill="#050306" d="M481.7,312c-6.2,0.6-13.9,2.6-19.4-0.5C468.8,311.9,475.7,310.1,481.7,312z" />
	<path fill="#150E1F" d="M453.8,314.6c-4.7,3-9.7,4-15.6,5.1C442.6,316.7,448.4,314.9,453.8,314.6z" />
	<path fill="#0D0812" d="M450.9,305.9c3.5,2,6.1,3.7,9.7,5.4C456.8,313.4,452,310.2,450.9,305.9z" />
	<path fill="#191124" d="M480.3,302.1c-4.6,1.5-9.2,3.1-14.2,4.7c2.9-4.6,9.4-4.5,14.2-5.3l0,0C480.2,301.7,480.3,301.9,480.3,302.1   L480.3,302.1z" />
	<path fill="#2D254D" d="M486.4,370.7c-5-1.6-8.9-5.9-12.2-9.9c0.3-0.3,0.5-0.5,0.8-0.8C478.3,364.2,482.9,367.1,486.4,370.7   L486.4,370.7z" />
	<path fill="#1A152C" d="M451.1,252.9c-1.6,4.1-3.1,7.9-4.8,12.2C445.8,261.7,448.1,253.4,451.1,252.9z" />
	<path fill="#6958A4" d="M449.8,326.6c-1.3-1.5,0.2-6,2.8-5.8c0.8,1.7-1,2.9-1.2,4.4C450.9,325.6,450.3,326.1,449.8,326.6z" />
	<path fill="#1A1329" d="M475,360.1c-0.3,0.3-0.5,0.5-0.8,0.8c-2.2-2.7-4.6-5.2-6.1-8.4C470.4,351.5,473.3,358.4,475,360.1z" />
	<path fill="#181225" d="M471.3,343.9c3.1,1.1,5.6,2.9,7.9,5.1C475.8,348.5,473.5,346.2,471.3,343.9z" />
	<path fill="#0E0205" d="M424.4,311.4c3,0,6,0,9,0c-3,1.3-6,2-9,0.9C424.4,312,424.4,311.7,424.4,311.4z" />
	<path fill="#181224" d="M449.8,326.6c0.6-0.5,1.1-0.9,1.7-1.4c0.4,0,0.9,0.1,1.6,0.2c-1.3,2.7-3.4,3.8-5.7,5.1   C446.9,328.2,449.4,328,449.8,326.6z" />
	<path fill="#1B1730" d="M468.1,240.4c-1.1,1.8-0.8,4.2-2.7,6.1C464.7,244.4,465.6,238.7,468.1,240.4z" />
	<path fill="#211A37" d="M474.6,239.6c0.8,2.5-0.2,4.1-0.6,5.8C471.4,244.8,473.2,241.2,474.6,239.6z" />
	<path fill="#2D1E40" d="M481.7,312c-1.1-0.9-2.4-0.7-3.8-0.7c2.7-1.4,6.4-0.3,9.6-0.1C485.6,311.4,483.7,311.7,481.7,312z" />
	<path fill="#231C3C" d="M469.9,246.3c-0.8-2.2,0.1-3.9,0.9-5.5C473.2,240.9,470.9,245.1,469.9,246.3z" />
	<path fill="#1B162D" d="M467.3,248.8c-0.5-0.5-1-0.9-1.5-1.4c2.1,0,4.2,0,6.6,0C470.9,249.3,469,248.8,467.3,248.8z" />
	<path fill="#231C3A" d="M446,274.1c-0.7,3.2-0.4,5.6-1.2,8.6C444.8,279.9,443.2,276,446,274.1z" />
	<path fill="#282147" d="M462.6,244.8c-0.2-1.4,0.1-2.6,1.4-3.5C464.7,243.2,463.6,244,462.6,244.8z" />
	<path fill="#181226" d="M449.7,305.2c-1.5-0.9-2.2-1.9-2.1-3.7C449.2,303,449.2,303,449.7,305.2z" />
	<path fill="#201C3A" d="M483.3,320.5c0.8-0.3,1.8,0.3,2.3-0.8c0.9,0,1.8,0.1,2,1.4C486.1,321.1,484.6,321.7,483.3,320.5z" />
	<path fill="#272043" d="M445.9,293.1c-1.7-1.2-1.6-2.3-1.1-3.6C446.4,290.2,446.1,291.4,445.9,293.1z" />
	<path fill="#1D1423" d="M451.5,367c0.7-0.8,1.5-1.5,2.2-2.3C455.3,365.7,452.4,368.7,451.5,367z" />
	<path fill="#1B162D" d="M455.1,248.2c1.1,0.1,2.3-0.6,3.1,0.6C457.1,248.8,456,249.2,455.1,248.2z" />
	<path fill="#2D254D" d="M486.4,370.7c0.2,0.1,0.3,0.2,0.5,0.3C486.8,370.9,486.6,370.8,486.4,370.7L486.4,370.7z" />
	<path fill="#554692" d="M510.1,273.3c2.3-3.4,6.3-6.2,7.6-10c0.2,0,0.5,0,0.7,0.1c0,1.3,0,2.5,0,3.8c-4.3,4.6-8,11.1-13.7,13.7   c0.2-0.8,0.7-1.6,0-2.3c2.4-1.6,5.1-2.4,6.8-5.1C510.8,273.4,510.4,273.4,510.1,273.3z" />
	<path fill="#554693" d="M515.3,279.2c1.5-0.6,2.9-2.2,4.5-2.1c0.1,0.7,0.1,1.4,0.2,2.2c-5.7,3-10.1,9.7-16.3,12   C503.6,288.4,517.9,279.7,515.3,279.2z" />
	<path fill="#554593" d="M492.2,312.2c4.3-3.4,9.6-2.6,14.4-2.1C502.9,313.8,498.4,314.5,492.2,312.2z" />
	<path fill="#27223A" d="M522.9,357.8c-0.2,0-0.5,0-0.7,0c-0.2-0.2-0.5-0.5-0.7-0.7c0.2-0.1,0.4-0.1,0.6-0.1   c0.2-0.3,0.5-0.5,0.7-0.8c0.6-10.8-1.4-21.5,0.2-32c1.7,9.8,0.2,20.6,0.7,30.7c0.7,0,1.3,0.1,2.1,0.1c-0.8,1-1.5,1.9-2.3,2.7   C523.4,357.8,523.2,357.8,522.9,357.8z" />
	<path fill="#564694" d="M522.2,291.5c1.1,0.5,0.7,1.5,0.7,2.3c-4.5,3.5-8.1,7.7-14.3,8.4c3.8-4.4,8.4-6.5,12.8-10   c0.1,0.4,0.2,0.8,0.3,1.2c0.2,0,0.3,0,0.5-0.1C522.2,292.7,522.2,292.1,522.2,291.5z" />
	<path fill="#1C1424" d="M502.4,248.8c0.2,0.8-0.3,1.8,0.7,2.3c-0.3,1.9-0.3,1.9-2.2,2.4c-0.2-0.1-0.4-0.1-0.7-0.1   c-2.7-2.4-17.3-0.3-17.6-3.8c2,0,4-0.1,6,0.1c1.2,1,3,0.6,4.5,1c0.1-0.4,0.2-0.8,0.4-1.1c0.4,0,0.8,0,1.2,0c0,0.4-0.1,0.7-0.2,1.4   c2.3,0.4,4.6,0.9,6.9,1.3C501.7,251.1,502,249.9,502.4,248.8z" />
	<path fill="#100E17" d="M523.1,324.2c-0.1,1.6,0.3,3.3-0.8,4.6c-0.2-2.1,0.3-4.2-0.8-6.1c1.8-7.3,0.1-15.2,0.9-22.8   c2.6,6.4-0.3,13.3,0.7,20.1c0.5,0.3,0.8,0.5,1.2,0.8C523.9,321.9,522.8,322.8,523.1,324.2z" />
	<path fill="#453B6B" d="M522.2,291.5c0,0.6,0,1.2,0,1.8c-0.2,0-0.3,0-0.5,0.1c-1-4.6-1.5-9.3-1.9-14c0,0,0.2-0.1,0.2-0.1   c0.9-1.1,0.7-2.5,0.8-3.8C522.1,280.5,521.5,286.3,522.2,291.5z" />
	<path fill="#261B31" d="M515.3,279.2c2,1.9-8.8,5.7-10.3,5.2C508.3,282.1,511.9,280.9,515.3,279.2z" />
	<path fill="#322846" d="M521.4,322.7c0.2,0.5,0.5,1.1,0.7,1.6c-3.8,1.2-5.9,4-9.8,5.5C514.8,326,518.2,325.3,521.4,322.7z" />
	<path fill="#53457E" d="M526.8,363.8c1.3,1.9-7.7,5.5-9.8,6.2C519.6,366.7,523.7,366.5,526.8,363.8z" />
	<path fill="#1E1A2E" d="M518.4,267.2c0.1-1.8-0.4-3.7,0.7-5.3c0.4,3.8,1.1,7.5,0.8,11.4l0,0c-0.2,0-0.5,0-0.7,0   C519.1,271.2,519.1,269.1,518.4,267.2z" />
	<path fill="#291E39" d="M510.1,273.3c0.4,0,0.7,0.1,1.4,0.2c-1.7,2.7-4.4,3.4-6.8,5.1c-0.4-0.1-0.7-0.1-1.1-0.2   C504.8,275.9,508.5,275.8,510.1,273.3z" />
	<path fill="#120F1C" d="M483.4,242.1c0.4,0,0.7,0.1,1.1,0.1c1,2.1-0.3,3.8-0.6,5.7c-0.5,0-0.9,0.1-1.2,0.1   C482.2,246,483.2,244.1,483.4,242.1z" />
	<path fill="#433864" d="M521.6,357.1c0.2,0.2,0.5,0.5,0.7,0.7c-2.4,1.8-5,3.3-7.7,4.5C513.6,360.6,520.2,358.5,521.6,357.1z" />
	<path fill="#433763" d="M519.1,261.9c-0.2,0.5-0.5,1-0.7,1.5c-0.2,0-0.5,0-0.7-0.1c0-1.6,0-3.2,0-5   C519.1,259.4,519.3,260.6,519.1,261.9z" />
	<path fill="#181426" d="M520.8,275.5c-0.1,1.3,0.1,2.7-0.8,3.8c-0.2-2-0.1-4-0.1-6l0,0c0.2,0,0.5,0,0.7,0   C520.7,274,520.7,274.8,520.8,275.5z" />
	<path fill="#5E4F92" d="M491.8,252.1c1.6,0,3.3-0.6,4.7,0.5C494.8,252.6,493.1,253.1,491.8,252.1z" />
	<path fill="#3D3361" d="M519.9,273.2c0,1.3-0.1,2.6-0.1,3.9c-0.2,0-0.5-0.1-0.7-0.1c0-1.3,0-2.6,0.1-3.8   C519.5,273.3,519.7,273.3,519.9,273.2z" />
	<path fill="#3D3361" d="M520.6,273.3c-0.2,0-0.4-0.1-0.7,0c0-1,0.1-2.1,0.1-3.1C521.1,271,520.6,272.2,520.6,273.3z" />
	<path fill="#544492" d="M497.8,358.6c0.1-0.7,0-1.6,1.5-1.2C498.7,357.9,498.3,358.2,497.8,358.6L497.8,358.6z" />
	<path fill="#584C8C" d="M504.7,254.3c0.9-0.1,1.7-0.3,2.3,0.6C506.2,254.9,505.3,255.3,504.7,254.3z" />
	<path fill="#433864" d="M522.9,357.8c0.2,0,0.5-0.1,0.7-0.1c0.1,0.5,0.1,0.9-0.4,1.1C523,358.6,523,358.2,522.9,357.8z" />
	<path fill="#5E4F92" d="M498.6,252.8c0.7-0.1,1.2-0.1,1.6,0.6C499.6,253.5,499,253.5,498.6,252.8z" />
	<path fill="#554692" d="M504.4,281.4C504.6,281,504.5,281.2,504.4,281.4C504.4,281.2,504.5,281,504.4,281.4z" />
	<path fill="#433864" d="M522.9,356.2c-0.2,0.3-0.5,0.5-0.7,0.8C522.4,356.7,522.6,356.5,522.9,356.2z" />
	<path fill="#544492" d="M480.3,302.2c0-0.2,0-0.4,0-0.7c0.2,0.1,0.4,0.2,0.6,0.3C480.6,301.9,480.5,302,480.3,302.2z" />
	<path fill="#1E1715" d="M408,236.6c-0.4-1.4,0.1-2.6,0.8-3.7C411.4,232.5,410.4,237.3,408,236.6z" />
	<path fill="#301815" d="M450.6,178.1c-1.4,0-2.7,0-4.3,0c2-1.9,2-1.9,4.8-0.8C451,177.6,450.8,177.9,450.6,178.1z" />
	<path fill="#160D0C" d="M453.6,173.4c-0.6,0-1.2,0-2,0c0.4-1.7,1-2.9,2.8-3C454.8,171.6,454.2,172.5,453.6,173.4z" />
	<path fill="#1D1A17" d="M499.3,144.6c0.8,0,1.3-0.3,2,0.3c-0.3,1.3-0.8,2.4-2.3,2.7C497.8,146.3,499.7,145.6,499.3,144.6   L499.3,144.6z" />
	<path fill="#2D221F" d="M453.7,202.3c-0.4,2-1.4,2.7-3.1,3.1C450.9,203.6,451.7,202.8,453.7,202.3z" />
	<path fill="#201815" d="M453.6,196.3c0.5-2.9,0.5-2.9,2.2-2.5C455.7,195.1,454.7,195.7,453.6,196.3z" />
	<path fill="#110B0A" d="M456,170.2c-0.6-1.9-0.3-2.1,2.5-1.9C458.4,169.6,457.3,169.8,456,170.2z" />
	<path fill="#211A17" d="M402.5,242.1c0-0.7,0.1-1.4,0.1-2.2c0.6,0.3,1,0.6,1.4,0.8c0.1,0.8,0.1,1.6,0.3,3.1   C403.4,242.9,403,242.5,402.5,242.1z" />
	<path fill="#2D1D1B" d="M466.9,178.6c0.4-1.2,1.1-1.5,2.5-1.2C468.8,178.6,468.2,179.2,466.9,178.6z" />
	<path fill="#4A3A34" d="M463.6,166.5c-1.3,0.7-1.9,1.1-2.6,1.4C460.7,166.3,461,166.1,463.6,166.5z" />
	<path fill="#432A26" d="M499.4,144.5c-0.5,0-0.9,0-1.5-0.1c0-1.4,0.7-1.9,1.9-2.2C499.7,143.2,499.5,143.9,499.4,144.5L499.4,144.5   z" />
	<path fill="#371D1A" d="M451.5,200.3c2.2-1.9,3.1,1.2,0.3,0.6C451.7,200.7,451.6,200.5,451.5,200.3z" />
	<path fill="#604B42" d="M413.3,229.1c-1.3-0.9-0.5-1.5,0.5-2.1c0.1,0.5,0.2,0.9,0.4,1.4C413.9,228.6,413.6,228.9,413.3,229.1z" />
	<path fill="#81675C" d="M466.7,166.7c-0.9,0.6-1.2,0.6-1.4-0.3C465.7,165.8,466.1,166.2,466.7,166.7z" />
	<path fill="#473832" d="M443.8,179.5c0-0.4,0.1-0.8,0.1-1.2c0.1,0,0.3,0,0.4,0c0,0.4,0.1,0.8,0.1,1.2   C444.3,179.6,444,179.6,443.8,179.5z" />
	<path fill="#977264" d="M501,419.6c-0.5-1-1.8-1.1-1.6-2.3c1.7,0.3,1.9-1.9,0.1-1.5c-0.2-2.6,1.2-4.4,2.6-6.1   c4,1.3,1.1,6.9,0.4,9.6C502,419.4,501.5,419.5,501,419.6z" />
	<path fill="#181210" d="M493.8,448.9c-0.9-3.4-3.6-8.1-0.9-10.8C495,440.9,495.7,445.5,493.8,448.9z" />
	<path fill="#150F0D" d="M484.9,414.2c0.4,0,0.7,0.1,1.1,0.1c1.8,2.7-1.9,4.3-3.5,5.9c-0.4,0-0.8,0-1.2,0c-0.1-0.5-0.1-0.9-0.2-1.4   c1-1.3,2.1-2.6,3.1-3.8l-0.1,0.1C484.4,414.7,484.6,414.4,484.9,414.2L484.9,414.2z" />
	<path fill="#181412" d="M492.7,449.7c2.2,1.8,2.4,2.8,1.9,7.4C492.6,456.1,492,451.7,492.7,449.7z" />
	<path fill="#29221E" d="M491.6,458.1c2.6,2.6,2.8,3.8,1.3,6.8C491,463,491.8,460.8,491.6,458.1z" />
	<path fill="#312622" d="M501,419.6c0.5-0.1,1-0.2,1.5-0.2c0.9,2.9,0.7,3.5-1.2,4.6C500.5,422.5,500.9,421,501,419.6z" />
	<path fill="#261F1C" d="M473.5,549.7c0-1.6,0-3.2,0-5.1c0.5-0.1,1-0.1,1.4-0.2c0,1.6,0,3.2,0,4.9   C474.4,549.5,474,549.6,473.5,549.7z" />
	<path fill="#342925" d="M492.6,470.7c-2.1-1.6-1.7-3-1.7-4.7C493,467.1,492.5,468.6,492.6,470.7z" />
	<path fill="#2F2723" d="M487.4,540.8c1.6,1.6,1.3,2.7,0.9,4.1C486.7,544,487,542.8,487.4,540.8z" />
	<path fill="#312420" d="M488.2,532.3c-1.3-1.8-1.3-1.8,0.1-2.9C489.1,530.2,488.9,531.1,488.2,532.3z" />
	<path fill="#251F1C" d="M490.1,472.8c0,1,0,1.9,0,3C488.3,473.8,488.3,473.4,490.1,472.8z" />
	<path fill="#080606" d="M487.1,534.3c1.6,1.7,1.6,1.7,0.2,3.9C487.2,536.9,487.2,536,487.1,534.3z" />
	<path fill="#0E0909" d="M487.2,551.7c0-1.1,0-2.1,0-3.6C488.5,549.5,488.8,550.5,487.2,551.7z" />
	<path fill="#392521" d="M499.4,415.8c1.8-0.4,1.6,1.8-0.1,1.5C499.4,416.8,499.4,416.3,499.4,415.8z" />
	<path fill="#4B3832" d="M488.1,480.9c-0.1-0.5-0.1-1-0.2-1.6c0.2,0,0.4,0,0.5,0c0,0.5,0.1,1,0.1,1.6   C488.4,480.9,488.3,480.9,488.1,480.9z" />
	<path fill="#372F2A" d="M474.3,542.1c0-0.5,0-1-0.1-1.5c0.4,0,0.9,0.1,1.9,0.2C475.1,541.4,474.7,541.7,474.3,542.1z" />
	<path fill="#1B1513" d="M445.2,500.3c0.7-4.3,1.9-7.9,4.3-10.6C450.9,493.9,448.3,496.5,445.2,500.3z" />
	<path fill="#221A18" d="M429.3,450.9c-2.1-2.6,2-7.3,3.9-9.4C433.8,443.8,433.3,444.9,429.3,450.9z" />
	<path fill="#191311" d="M427,463.6c-1.8-1,0.5-10.5,2.3-11.3C429.9,456.2,428,459.9,427,463.6z" />
	<path fill="#1D1715" d="M458.3,441.5c-0.5,0.3-1.1,0.5-1.6,0.8c-1.1-3-1-4.7,0.5-6.7C458.9,437.3,458,439.6,458.3,441.5   L458.3,441.5z" />
	<path fill="#170E0D" d="M443,413.4c0.6-0.4,1.2-0.8,2.1-1.5c0.5,2.4-1.1,3.5-2.1,5.3c-0.6,0.2-1.3,0.9-2-0.3   C441.6,415.8,442.3,414.6,443,413.4z" />
	<path fill="#201816" d="M440.8,502.5c0-0.2-0.1-0.5-0.1-0.7c0.8-1.4,1.3-3,2.6-4.1C444.2,500,443.4,501.6,440.8,502.5z" />
	<path fill="#372925" d="M457.7,419.5c-1.4-1.4-0.6-2.5,0.2-3.8C459.5,417,459.4,417.5,457.7,419.5z" />
	<path fill="#1C1613" d="M425.4,473.4c-0.9-2-0.9-2-0.3-5c0.3,0,0.7-0.1,1.1-0.1c0,0.7,0,1.3,0,2   C425.1,471.2,425.6,472.4,425.4,473.4L425.4,473.4z" />
	<path fill="#0C0706" d="M455.6,434.9c-1.2-2.2-1.2-2.2-0.1-3.9C456.4,432.2,457,433.2,455.6,434.9z" />
	<path fill="#130908" d="M434.8,542c-0.3-1.2-1.2-2.4,0-3.6C436.5,539.9,436.5,540.5,434.8,542z" />
	<path fill="#755B52" d="M425.5,478.1c-1.4-0.7-0.5-2-0.8-3C426.5,475.7,426.7,476.4,425.5,478.1z" />
	<path fill="#52423B" d="M435.5,436.9c-0.8,1.3-1.2,2.1-1.7,3C432.4,438.7,433.3,437.3,435.5,436.9z" />
	<path fill="#1E1715" d="M437.7,504.8c-0.1-1.1-0.3-2.2,1.1-3.2c0.2,0.7,0.4,1.2,0.6,1.7C438.9,503.9,438.6,504.7,437.7,504.8z" />
	<path fill="#0A0505" d="M436.3,546.8c0-0.9,0-1.6,0-2.5C437.9,545.5,437.9,545.5,436.3,546.8z" />
	<path fill="#604C45" d="M450.6,424.6c1.4,0.1,1.4,0.1,1.2,1.6C451.3,425.6,451,425.1,450.6,424.6z" />
	<path fill="#7A5C53" d="M453.6,430.4c-1.1-1.5-0.6-2.7,0.5-2.1C454,428.8,453.8,429.3,453.6,430.4z" />
	<path fill="#513E38" d="M434.6,535.3c-1-1.1-1-1.3,0.7-2.3C435.4,533.9,435.6,534.8,434.6,535.3z" />
	<path fill="#977264" d="M425.4,473.5c0.2-1-0.2-2.3,0.8-3.1C426.2,471.5,426.5,472.7,425.4,473.5z" />
	<path fill="#201815" d="M471,487.7c-2.7-0.3-4.3-8.6-3.9-11.1C470.2,479,469.8,484.1,471,487.7z" />
	<path fill="#191310" d="M465.9,472c0.6-3.7-1.6-8.3,1.5-11.1c0.2,3.8,0,7.5-0.1,11.1C466.8,472,466.4,472,465.9,472z" />
	<path fill="#B28C7D" d="M484.2,414.9c-1,1.3-2.1,2.6-3.1,3.8c-1.9-2.5-0.3-5.4,0.3-8.1C482.6,412.1,482,415.1,484.2,414.9z" />
	<path fill="#150F0E" d="M484.2,414.9c-1.4-0.1-1.4-0.1-1.6-1.5c1-1.5,1.9-3,3-4.7c1.3,2.4,1.3,2.5-0.7,5.4l0.1,0   C484.6,414.4,484.4,414.7,484.2,414.9L484.2,414.9z" />
	<path fill="#2F231E" d="M483.5,403.1c-1.3-2.8-1.2-3,0.9-4C485.3,400.5,484.4,401.6,483.5,403.1z" />
	<path fill="#332722" d="M472.2,410c-0.5-0.9-0.6-1.8,0.1-2.6C473.9,407.7,473.6,409.6,472.2,410z" />
	<path fill="#180F0D" d="M485.1,405c0.8,1.6,0.8,1.6-0.8,2.8C483.9,406.7,483.8,405.7,485.1,405z" />
	<path fill="#0E0A09" d="M473.2,416c-0.8-2-0.7-2-0.1-4C473.8,413.4,473.7,414.7,473.2,416z" />
	<path fill="#372622" d="M468.5,446c-0.8-0.6-0.3-2.5,0.8-1.8C470.1,444.9,469.5,446,468.5,446z" />
	<path fill="#382722" d="M466.9,455.4c0.9,0.6,0.3,2.5-0.7,1.9C465.4,456.6,466,455.5,466.9,455.4z" />
	<path fill="#473A32" d="M465.9,472c0.5,0,0.9,0,1.4,0c0,0.7,0,1.4,0,2.1C466,473.7,465.8,472.9,465.9,472z" />
	<path fill="#2E241F" d="M472.7,403.9c-0.1,0.5-0.1,1-0.2,1.5c-0.2,0-0.3,0-0.5,0c-0.1-0.5-0.1-1.1-0.2-1.6   C472.2,403.9,472.4,403.9,472.7,403.9z" />
	<path fill="#1C1512" d="M437.6,410.3c0.2,1.9,0.4,3.1-0.4,4.4C435.6,413.7,435.6,412.8,437.6,410.3z" />
	<path fill="#3F2E28" d="M446.1,402.1c-0.9-1.8-0.9-1.8,0.5-3C447.7,400.3,447.7,400.3,446.1,402.1z" />
	<path fill="#372823" d="M445.9,407.2c0.3,0.3,0.5,0.5,0.7,0.8c-0.3,0.8-0.7,1.4-1.7,1.4C444.4,408.4,444.9,407.8,445.9,407.2z" />
	<path fill="#4E3C34" d="M438.7,406.3c-0.6,0.8-0.8,1.1-1.2,1.6c-0.4-0.4-0.7-0.6-1.2-1C437.2,406,437.2,405.7,438.7,406.3z" />
	<path fill="#1C1311" d="M446.6,402.7c0.1,1.7,0.1,1.7-0.9,2.9C444.9,404.4,445.4,403.7,446.6,402.7z" />
	<path fill="#161314" d="M456.7,227c-0.6,1.5-0.9,2.3-1.2,3.1c0.3,0.4,0.5,0.8,0.8,1.2c-0.7,2.2-2.6,4.2-5,4.6   c-2.3-2,1.6-3.5,2.8-4.8c-0.6-0.3-1.1-0.5-1.8-0.8C452.7,228.2,454.1,227.6,456.7,227z" />
	<path fill="#181516" d="M477.2,189.6c-2.3-0.8-1.9-4-1.2-6.2C477.9,185,477.3,187.4,477.2,189.6z" />
	<path fill="#3B393A" d="M455.3,220.7c-0.8-2-0.5-2.6,2-3.7C458.1,218.9,456.7,219.6,455.3,220.7z" />
	<path fill="#3A3234" d="M454.3,224.4c-0.2-1.5,0.6-2.3,1.8-2.8C457,223.5,456.8,223.8,454.3,224.4z" />
	<path fill="#2F2D2E" d="M458.1,208.7c-0.2,1.1-0.3,2.3-1.8,2.4C455.9,208.6,456.1,208.2,458.1,208.7z" />
	<path fill="#302B2D" d="M477.2,189.6c0-0.6,0.1-1.2,0.1-1.8c0.4,1.5,1.7,2.8,1.5,4.6C477.4,191.6,477.4,191.6,477.2,189.6z" />
	<path fill="#938E92" d="M455.4,214.1c0.4-0.5,0.9-1.1,1.4-1.7C457.3,213.6,457.3,213.6,455.4,214.1z" />
	<path fill="#16110F" d="M469.4,135.8c-1.5-2.6-1.6-3.5-0.8-7C471.2,128.2,471,135,469.4,135.8z" />
	<path fill="#1B1210" d="M469.7,141.5c0.1-1.4-0.6-3,0.9-4.2c0.8,1.7,0.8,1.7,0.5,4.1C470.6,141.4,470.1,141.4,469.7,141.5z" />
	<path fill="#281D19" d="M471.9,145.3c1.4,0.7,0.5,2.3,0.6,3.5C470,149.3,471.9,146.5,471.9,145.3L471.9,145.3z" />
	<path fill="#5C4940" d="M469.7,141.5c0.5,0,0.9,0,1.4-0.1c0.9,1.2,1.1,2.5,0.9,3.9l0,0C470.2,144.9,470.4,142.8,469.7,141.5z" />
	<path fill="#252626" d="M460.4,579.4c0.5-7.4,2.2-14.5,6.7-20.6c0.8,2-0.3,3.3-1,4.5c-3.1,4.9-2.9,10.9-4.8,16.1   C461,579.4,460.7,579.4,460.4,579.4z" />
	<path fill="#5B6061" d="M460.4,579.4c0.3,0,0.6,0,0.9,0c-1,1.2-1.6,2.6-2,4.2C458.9,582,458.6,580.4,460.4,579.4z" />
	<path fill="#2F3131" d="M424,583.2c2-4.3,2.3-9.1,3.1-13.7c0.2,0.3,0.5,0.5,0.7,0.8c-0.2,5.4-0.9,10.8-2.9,15.8   C423.5,585.4,424.1,584.2,424,583.2z" />
	<path fill="#303031" d="M430.1,553.6c0.5-0.1,1-0.2,1.5-0.2c-0.8,3.6-1.7,7.1-2.5,10.7c-0.2-0.3-0.5-0.5-0.7-0.8   C428.3,560,428.9,556.8,430.1,553.6z" />
	<path fill="#525555" d="M428.4,563.3c0.2,0.3,0.5,0.5,0.7,0.8c-0.2,2-0.5,4-0.7,6c-0.2,0.1-0.4,0.1-0.6,0.2   c-0.2-0.3-0.5-0.5-0.7-0.8c0.2-2,0.5-4.1,0.7-6.1C428,563.4,428.2,563.4,428.4,563.3z" />
	<path fill="#AAAEAF" d="M427.8,570.4c0.2-0.1,0.4-0.2,0.6-0.2c-0.1,1.1,0.6,2.3-0.6,3.2C427.8,572.3,427.8,571.4,427.8,570.4z" />
	<path fill="#5B4A98" d="M454.8,359.7c1.2-3.9,1.4-8.2,4-11.6C461.7,349.7,456.3,357.6,454.8,359.7z" />
	<path fill="#221D1D" d="M479.6,562.2c0.7-0.2,0.9-0.3,1.2-0.4c0.6,0.9,1.1,1.8,1.8,3c1.4,0,2.8,0,4.1,0c0.9,2.7-3.2,1.4-4.5,1.8   C480.5,565.5,480.3,563.8,479.6,562.2z" />
	<path fill="#130E1B" d="M494.6,249.6c-0.4,0-0.8,0-1.2,0c-0.3-2,0.4-3.6,1.8-5.3C496.1,246.4,494.6,247.9,494.6,249.6z" />
	<path fill="#372C5E" d="M458.1,242c-0.4,1.8-0.5,3.6-1.5,5.2c-0.5-0.3-0.8-0.4-1.3-0.7c0.6-1.6,0.6-3.3,2.1-4.5   C457.7,242,457.9,242,458.1,242z" />
	<path fill="#909899" d="M429.2,556.6c0.1,0.9,0.2,1.7-0.6,2.4C428.6,558.1,428.2,557.2,429.2,556.6z" />
	<path fill="#909899" d="M428.4,563.3c-0.2,0.1-0.4,0.1-0.6,0.2c0-0.8-0.3-1.7,0.6-2.3C428.4,561.9,428.4,562.6,428.4,563.3z" />
	<path fill="#909899" d="M429.9,554.3c-0.2,0.3-0.3,0.6-0.5,1C429.6,554.9,429.7,554.6,429.9,554.3z" />
	<path fill="#0E0B15" d="M487.3,245.1c-0.3,1.2-0.6,2.5-0.9,3.7c-1.6-1.4-0.8-4.2,0.6-5.8C487.1,243.8,487.2,244.5,487.3,245.1z" />
	<path fill="#2C201D" d="M403.3,170.1c-1.2,1.7-3.2,0.8-4.5,1.6C396.9,169.7,402.6,167.8,403.3,170.1z" />
	<path fill="#090808" d="M412.5,177.3c-2.3-0.6-1.2-3.1-0.5-4.5C414.4,173.2,412.5,175.9,412.5,177.3L412.5,177.3z" />
	<path fill="#2F2521" d="M384.6,225.1c0.3,0.3,0.6,0.6,1,1c-0.3,0.7-0.7,1.4-1.1,2.4c-0.6-0.4-1-0.6-1.4-0.8   C383.1,226.4,383.5,225.6,384.6,225.1z" />
	<path fill="#42332D" d="M403.4,137.7c-0.2-0.4-0.4-0.9-0.7-1.6c0.4-0.5,1-1,1.5-1.6c1.4,1.3,0.3,2.2,0,3.1   C403.9,137.7,403.5,137.7,403.4,137.7z" />
	<path fill="#614B44" d="M381.3,230.7c0.5-0.5,1-1.1,1.6-1.8C383.4,230.6,383.4,230.6,381.3,230.7z" />
	<path fill="#2C2420" d="M412.9,168.2c0.8,1.1,0.3,2-0.6,2.8C411.6,169,411.6,169,412.9,168.2z" />
	<path fill="#2D1F1C" d="M387.1,221.6c0.4,1.2-0.1,1.6-0.9,1.8C384.9,223,385.6,221.2,387.1,221.6z" />
	<path fill="#664941" d="M389,219.3c-0.8-0.7-0.2-0.7,0.3-1.2C389.8,218.5,389.4,218.8,389,219.3z" />
	<path fill="#241715" d="M416.4,153.5c0.2-0.6,0-1.5,0.9-1.1c-0.2,0.4-0.3,0.8-0.5,1.3C416.7,153.6,416.5,153.5,416.4,153.5z" />
	<path fill="#4F3A34" d="M381.2,233.7c-0.1,0.1-0.3,0.3-0.4,0.4c-0.1-0.3-0.4-0.7,0-0.9C381,233.4,381.1,233.5,381.2,233.7z" />
	<path fill="#020202" d="M442.3,140.1c0.6-0.6,1.3-1,2.1-0.2c0.3-1.2,0.6-2.1,0.9-3c0,1.2-0.1,2.5,1,3.3c-0.1,0.4,0,0.9-0.2,1   c-2.1,0.9-0.9,3-2.1,4.3C442.3,144.2,442.9,141.8,442.3,140.1z" />
	<path fill="#1B1819" d="M442.9,143.6c0.2,0.7,0.1,1.5,1,1.8c-1.1,1-0.8,2.4-1,3.8c-0.5-0.1-0.9-0.2-1.3-0.2   c-0.1-1.2-0.3-2.5-0.4-3.9C441.8,144.5,442.3,144,442.9,143.6z" />
	<path fill="#2A2729" d="M441.5,150.7c0.4,0.1,0.7,0.1,1.1,0.2c1,2.1,0.5,4-0.3,6c-0.1-0.6,0-1.4-0.8-1.6   C442.1,153.7,441.3,152.3,441.5,150.7z" />
	<path fill="#1C1718" d="M441.5,155.2c0.9,0.3,1.2,2.6-0.1,2.3C441.5,156.7,441.5,156,441.5,155.2z" />
	<path fill="#373335" d="M440.8,108.9c-0.4,0.4-0.8,0.9-1.3,1.3c-1.7-0.6-3.3-1-4.1-2.7c0.4-0.4,0.8-0.7,1.1-1   C438.3,106.8,439.6,108,440.8,108.9z" />
	<path fill="#3C393B" d="M452.5,124.9c-1.6-1.7-0.9-3.2,0.2-5C454.4,121.6,454.1,122.7,452.5,124.9z" />
	<path fill="#2D2628" d="M452.2,129.1c-0.3-0.9-0.6-1.7-0.9-2.7C453.3,125.9,454.1,128.9,452.2,129.1z" />
	<path fill="#2C2D2F" d="M452.8,132.2c0,1,0,1.9,0,3C451.5,133.6,451.5,133.6,452.8,132.2z" />
	<path fill="#40373A" d="M440.6,108.6c0.1-0.4,0.3-0.9,0.4-1.3c1.4,0,1.9,0.7,1.9,2.2c-0.8-0.2-1.4-0.4-2.1-0.6   C440.8,108.9,440.6,108.6,440.6,108.6z" />
	<path fill="#0E0C0C" d="M447.8,108.2c1.4-1.9,1.4-1.9,2.4-0.5C449.4,107.9,448.6,108.1,447.8,108.2z" />
	<path fill="#645458" d="M446,108.7c-0.8,0-1.5-0.1-2.2-0.1C444.6,107,444.7,107,446,108.7z" />
	<path d="M401.8,133.9c0.1-1.1,0.4-2,1.6-2.3c0.1,0.9,0.2,1.8-0.7,2.4C402.4,134,402.1,134,401.8,133.9L401.8,133.9z" />
	<path fill="#463932" d="M401.8,133.9c0.3,0,0.6,0,0.9,0.1C402.4,134.7,402.1,134.7,401.8,133.9z" />
	<path fill="#2C1C19" d="M497.9,66.2c2,1.4,2,2.1,0,3.6C497.9,68.6,497.9,67.4,497.9,66.2z" />
	<path fill="#4A302A" d="M497.9,63.2c0.9,0.7,0.9,0.8-0.1,1.4C497.9,64.1,497.9,63.6,497.9,63.2z" />
	<path fill="#654B42" d="M466.7,79.2c-0.5,0.2-0.8,0.3-1,0.4C465,78.5,465.9,78.1,466.7,79.2z" />
	<path fill="#261E1A" d="M498.6,54.1c0.9,1.2,0.9,1.2,2.3,0.6c0.9,0.7,2,3.2,3,1.4c-2.7-4.2-4.6-8.4-2.7-13.4   c0.4-0.1,0.8-0.2,1.2-0.3c0.8,1,0.1,2.1,0.1,3.2c0.9,1.5,0.7,1.4,2.1,0.8c0.7,1.9,1.1,4.6-0.7,5.9c0.3-1.8-1-3-2.3-4.7   c0.4,2.4,0.3,4.4,2.4,5.5c1.3,2.3,2.5,3.4,0,5.5c-2.8-0.5-4.9-2.2-7.3-4.5C497.7,54.1,498.2,54.1,498.6,54.1z" />
	<path fill="#906F63" d="M504,53.1c-2.1-1.1-1.9-3.1-2.4-5.5C503.3,49.6,504.2,50.8,504,53.1z" />
	<path fill="#A07D6F" d="M500.7,50.1c1.1,2,2.2,4.1,3.2,6c-1.1,1.8-2.2-0.8-3-1.4c-0.3-1.5-0.5-3-0.8-4.6   C500.3,50.1,500.5,50.1,500.7,50.1z" />
	<path fill="#B18B7C" d="M503.1,46.5c-0.2-0.3-0.4-0.6-0.6-0.8C502.8,45.9,503,46.2,503.1,46.5z" />
	<path fill="#020101" d="M445.9,139.9c-0.7-1-1-2.6-0.5-3.7C446.5,137.3,445.9,138.6,445.9,139.9z" />
	<path fill="#707C7B" d="M484.1,414.9c0.3-0.3,0.5-0.5,0.8-0.8C484.6,414.4,484.4,414.7,484.1,414.9z" />
</g>
</svg>