<?xml version='1.0' encoding='utf-8'?>
<svg xmlns="http://www.w3.org/2000/svg" version="1.2" baseProfile="tiny" id="Layer_2_00000047036495954845175020000017826898192945522058_" x="0px" y="0px" viewBox="0 0 900 600" overflow="visible" xml:space="preserve">
<g>
	<path fill="#020101" d="M382.4,406.2c0.6-5,0.9-10.1,2.9-14.5c-5-41.4-5.6-84.4,4.5-124.9c7.9-25.8,23-43.8,12.9-71.8   c-0.6,0-0.9-0.1-1.3-0.1c0-1.1,0-2.1,0-3.2c0.4-0.2,0.7-0.3,0.9-0.4c14.4,26.1,1.8,41.8-6.7,65.7c9.4,4.8,19.9,6.1,30.2,6l-0.1-0.1   c16.5,2.1,33.6,4.4,50.4,2.9c0.3,0.3,0.6,0.6,0.9,0.9c-0.5,0.9-1.1,1.8-1.6,2.8c-25.3-5.7-56.2,3-80.2-10.8   c-5.7,17.2-8.7,34.6-9.6,52.7c15.7,8.2,34.5,8.6,51,11.5c-17.4,2.6-35.2-2.7-51-9.8c-4.4,33.8,4.2,67.5-2.4,100.5   C381.5,411.8,382.8,408.5,382.4,406.2z" />
	<path fill="#030303" d="M482.8,403.6c-6.2,20.6,3.5,41.2-2.1,61.6c-4.3,24.1-19.6,46.6-18.9,71.1c0.6,7.3,6.9,11.2,10.1,17.2   c3.4,2.9,4.2,8.1,7.8,10.5c1,0.4,1.9,0.9,2.4,2c-0.2,0.5-0.5,1-0.7,1.6c-6.5-3.7-9.7-11.1-13.6-17.1c-0.7-2.8-4.4-1-6.6-1.3   c-4.2-1.5-7.9,2.9-11.9,0.7c3.5-3.9,10.3-2.7,15.5-2.9c-0.9-1.4-1.6-2.6-2.3-3.7c-5.7,0.5-10.5,2.1-16.1,2.9   c-1.4-5.9,10.5-4.5,14.1-5.4c-0.5-2.4-0.4-4.9-1.5-7.2c-4.1,0.7-8-0.8-11.9,0c-1.2,1.8-2.3,3.5-3.5,5.2c-0.6,0-1.1,0-1.3-0.7   c1.1-2.4,2.5-4.6,4.4-6.4c4.3,0,8.6-0.3,12.7-1c3.5-24.6,16.1-46.2,19.4-70.7c1.8-21.7-1.8-43.1,3.3-64.5   C483.6,397.7,482.3,401,482.8,403.6z" />
	<path fill="#030303" d="M423,382.8c-3.1,13.5-4.1,27.5-8.7,40.6c-1.1,9.8-10.5,16.3-10.3,25.9c2.9,33.5-15.3,63.4-20.4,95.9   c0.4,0.4,0.8,0.7,1.2,0.9c-0.2,0.2-0.5,0.5-0.7,0.7c-0.3,0-0.7,0.1-1.2,0.1c-0.1,0.8-0.3,1.7-0.4,2.6c1.2,1,1.8,2.2,1.6,3.7   c-3.3,1.1-3.4-4.1-4.1-6.2c-1.2-2-1.9-3.7-1.9-6c-4.9-1.9-9.4,0.3-14.2,0c-1,2.8-1.9,5.3-2.9,7.9c-2-3.6,0.2-10.7,5.3-10.1   c1.1-4-1.6-8.9,0.6-12.2c0.5,3.8,1.1,7.6,1.6,11.5c3.7,0.2,7.7-0.6,11.1,1.5c0.2,1.1,0.5,2.3,0.7,3.3c0.6,0.4,1,0.7,1.6,1.2   c5-17.2,6.9-35,13.7-51.8c7.3-14.3,4-29.9,6.6-44.9c1.6-7,5.6-13.8,8.5-20.6c6.3-14.2,6.3-30.7,11.6-44.9   C422.4,382.1,422.7,382.5,423,382.8z" />
	<path fill="#050404" d="M533.9,150.6c9.6,11,20.1,22.1,23.7,36.7c3.1,10.1,11.8,20.2,4.9,30.6c-5.3,16.7-17.8,28.6-25.7,43.8   c-3.7,8.4-12.5,13.7-21.7,12.8c-1.3-1.8-3.7,0.4-5-1.3c10.3-2,20,0.7,24.6-12.3c-0.5-0.2-1-0.4-1.7-0.7   c13.6-13.3,22.3-32.3,31.2-50.3c-6-21.6-17.6-40.5-31.1-58.3C533.3,151.2,533.6,150.9,533.9,150.6z" />
	<path fill="#040303" d="M489.2,372.6c0,0.2,0,0.4-0.2,0.5c-0.2-0.7-1-1.4-0.6-2.1c1.2-0.6,0.4-2.2,1.1-3.3   c6.3-16.7,10.5-33.9,11.6-51.8c-14.7,4.1-29,11.6-44.4,8.2c14.8-1,30-5.2,44.6-9.8c0.8-8.6,0.9-17,2.3-25.5   C506.4,316.8,501.7,347,489.2,372.6z" />
	<path fill="#060605" d="M366.6,526.6c-0.9,0.3-0.7,1.1-0.8,1.8c-3-37.3-1-76.6,14.5-111.3c0.2,0.5,0.5,1,0.7,1.5   c-4.2,19.4-12.3,38.1-13.1,58C365.9,493,368.1,510.1,366.6,526.6z" />
	<path fill="#0D0C0B" d="M477.6,61.2c-1.2,5.1-2.3,10.3-4.3,15.2c-2.4,3.2,1.2,9.4-1.6,12.4c-2.6-1.9-0.2-5.2-2.1-7.3   c-2.3,2.9-5.7,4-9,5.2c-0.5-1.1-1.5-0.8-2.4-0.9c14.8-2.9,15.6-18.2,19.2-30c2.4-4.5-0.4-8.8,0.2-13.2c0.2-0.2,0.7-0.6,0.6-0.7   c-1.4-2.7,0.7-4.7,0.6-7.1c-0.4,0-0.8-0.1-1.3-0.1c1.6-2.5,1-14.2-2.1-14.4c0.1-0.9,0.9-1.5,1.5-2.2c5.4,7.9,2.5,17.7,3.4,26.5   c1.4,0,2.1-2.2,3.4-0.8c4.3,5.1,0.5,11.6-2.4,16.2c-0.3-0.3-0.7-0.6-1-0.9c1.2-2,1.8-4.2,2.3-6.4c1.6-0.9,0.9-3.4,0.6-5.3   c-1.4,0.7-2,1.7-2.4,2.7c0.6,0.9,1.3,1.8,1.9,2.6c-1.9,0.9-1.5,3.5-3.8,4.4c-0.4,0.2-0.6,1.2-0.7,1.9c0.1,0.9,2.5,2.4,0.2,2.2   c-0.2-0.1-0.3-0.3-0.4-0.5C477.9,60.9,477.8,61,477.6,61.2z M480.4,46.9c0.2,0.2,0.3,0.3,0.5,0.5c0.8-0.7,1.8-1.2,1.8-2.4   c-0.2-0.1-0.3-0.2-0.5-0.2C481.6,45.5,481,46.2,480.4,46.9z" />
	<path fill="#080606" d="M386.7,553.3c1.2,9.4,3.6,18.3,7.4,26.9c-3.6,2.7-10.5,5.5-17.1,7c-1.4,3-1.4,6.5-2.2,9.9   c-12.4,1.4-29.5,6.7-39.9-2c2-2.2,1.7-5.3,2.2-8c1.6,2.4,1,6.1,1.7,8.9c10.5,2.6,22.4,1.7,32.8-0.3c4.1-3.2,1.1-10.8,5.1-13.5   c0.4,0.9,0.8,1.8,1.2,2.8c4.8-1.2,9.1-3,13.3-4.9c-3.9-9-4.9-19.1-5.9-28.8c0.3-0.5,0.6-1.1,0.8-1.6   C386.5,550.8,385.3,552.3,386.7,553.3z" />
	<path fill="#0A0707" d="M434.3,17.2c2.3-6.5,9.8-9.9,16.2-9.8c2.8-8.9,21.2-9,19.4,2.1c-0.3,0-0.7,0-1-0.1l0,0   c-1.2-6.6-12.9-8.2-15.4-2.2c1.9,0.1,3.8-0.3,5.5,0.6c0.6-0.4,1.2-0.9,2-0.6c0.1,1.6,3,1.3,4.3,1.6c0.2,0.3,0.3,0.6,0.5,0.9   c-0.4,0.3-0.8,0.6-1.2,0.9c-1.4-0.6-2.7-0.6-4.3-0.7c-0.3,0.9-0.5,1.6-0.7,2.3c-1.5-0.2-0.2-2.2-2.1-2.5c-1.4-0.2-1.4-0.2-3.1,0.6   c1.1,1.7,0.5,3.4,0.2,5.3c-0.6,2.3,1,5.8-0.8,7.4c-0.1-0.8-0.7-0.9-1.3-0.8c-4.9,1.2-5.2-4.8-7.1-7.9c0.8-1.6,0.8-3-0.5-4.2   c-1.5-0.1-1.6,1.5-2.7,2.2c-1.7-0.5-2.8,1.5-4.2,2.2c-0.6,1.8,0.4,3,1.4,4.2c-0.2,0.3-0.5,0.5-0.7,0.8c-0.6-0.9-1.3-1.7-2.2-3   c-0.1,2.5,1.4,3.9,2.2,5.5c-0.4,0.2-0.6,0.4-0.8,0.5c0,0-0.1,0-0.1,0C436.6,20.7,435.1,19.2,434.3,17.2z M453.1,10.9   c1.5-1.2-0.4-1.5-1.4-1.4c-0.6,0.6-1.1,1.3-1.5,2.1c-0.5-1.6-0.5-1.6-2.1-1.2c-1.2,4.4,0.3,8.1,3.2,11.5c0.2-0.8,0.4-1.2,0.5-1.6   c0.6,0.8,0.8,0.9,1.8,1.5c0.1-1.3,0.2-2.3,0.2-3.1c-1.1-1.5-3.8-4.5-0.8-4.9c0.1,0.8,0.2,1.6,0.3,2.4c0.2,0,0.3,0,0.5,0   C454,14.3,453.7,12.6,453.1,10.9L453.1,10.9z" />
	<path fill="#0B0808" d="M458.1,85.7c0.9,0.1,1.9-0.1,2.4,0.9c0,0,0,0,0,0c-0.3,0.2-0.6,0.4-0.9,0.6c0,0,0,0,0,0   c-5.9,0.8-11.1-1.3-16.1-4.2c-1.3,5.5-0.5,9.6-1.6,15.2c-0.4-2-0.7-3.6-1.1-5.4c-2.7,2.6-4.9,4.7-7.9,6.5c0,0.2-0.1,0.4-0.2,0.6   c-1.4-3-3.9-0.1-6.2,0.2c-0.9-0.5-2.2-1.4-3-0.1c-10.7,2.6-24.3-1.5-31.7,8.9c-0.3-0.3-0.6-0.6-0.9-0.9c10.7-16.7,38.2-1.4,49-17.5   c0-3.4,0-6.9,0-10.5c-3.3-3.8-3.3-9.8-6.5-13.5c0-0.3,0.1-0.7,0.1-1c0.8,0.2,1.5-0.4,2.2-0.6c2,6.1,3.4,13.5,9.4,17   C449,83.5,454.1,88.3,458.1,85.7z" />
	<path fill="#090707" d="M484,584.8c-11.7,3.9-27.8,5.7-37.7-2.9c0.1-1.4,0.2-3,0.3-4.9c-6.5-0.3-12.8-2.2-18.1-6   c1-1.6,2-3.1,2.9-4.6c-0.3-6.9,2.3-13.4,2.3-20.3c1.5,0.8-0.2,2.8,1.3,3.6c0.2,0.5,0.4,1.1,0.7,1.6c-2.8,6.2-0.6,13.5-4.2,19.3   c3.8,2,7.2,2.1,10.8,4.7c1.4-0.1,3-0.3,4.3-0.4c0.7-1,1.1-1.6,1.6-2.3c1.9,2.9-0.9,6.7,1.8,9.8C460.4,588.5,473.1,583.8,484,584.8z   " />
	<path fill="#060505" d="M436.5,322.7c-2.4-2-6.7,0.5-9.4-1.4c4.5,0.2,9.1-0.4,13.8,0.5c0.7-1.8,1.5-3.7,2.2-5.5   c0.2,0.5,0.5,1.1,0.7,1.6c-5.4,18.8-8.3,38.9-18.1,56c-1.3-0.6-0.5-2.2-0.3-3.2c5.8-15.6,9.9-31.8,15-47.6   C439.1,322.1,437.8,322.8,436.5,322.7z" />
	<path fill="#070605" d="M477.6,96.5c18,16.8,39.5,6.3,46.1,34.5c-0.2,0.5-0.4,1-0.6,1.5c-12.8-26.9-13.9-15.6-35.5-26.7   c-0.3,0.6-0.5,1-0.6,1.5c-0.3,0-0.6,0-0.9,0c0-0.7,0-1.4,0-2.2c-1.4-1-2.7-2.1-4.4-2.6c-0.2,1.5-0.3,2.8-0.5,4.1   c-2-4.3,0.6-5-4.3-9.2C477.1,97.1,477.4,96.8,477.6,96.5z" />
	<path fill="#090908" d="M442.9,516.9c5.1-21.9-1.8-44.3,1.6-66c1.4-0.9,0.2-2.3,0.7-3.6c1.1,1.2,0.8,2.8,0.6,4.3   c-3.2,21.4,6.9,46.4-2.6,67C443.1,517.8,443,517.4,442.9,516.9z" />
	<path fill="#171513" d="M433.7,65.4c0,0.3-0.1,0.7-0.1,1c-3-2.7-3-7.4-5-10.8c-2.5-3.7-0.3-6.9,1.5-10.6c-0.8-5.3,0-10.7,0.8-16.2   c1.2,2.2,2.7,4.5,2.4,7.1c0,0.1,0.5,0.3,0.9,0.6c0.1-0.7,0.1-1.3,0.2-1.8c1.2,1,0.8,3,1.1,4.3c-1.6,2-3.2,3.7-2.6,6.3l0,0   c-0.5,0.3-0.5,0.5,0,0.8c0,0,0,0,0,0c-1.1,6.6,1.1,12.6,3,18.7c-0.5,0.2-1.1,0.4-1.6,0.7c0.5-2.1-0.1-3.9-1.9-5.8   C432.5,61.9,433.2,63.7,433.7,65.4z M431.3,52.2c-0.6-0.6-1.1-1-1.7-1.7c-0.4,2.2-0.6,3.9,1.1,5.5   C430.9,54.8,431.1,53.7,431.3,52.2z M433.4,39.4c0.1-0.2,0.3-0.3,0.4-0.5c-0.6-0.7-1.2-1.3-2.1-2.4c0,1.2,0,1.8,0,2.4   C432.3,39,432.9,39.2,433.4,39.4z M431,49.6c0.5-0.7,0.2-1.5-0.6-1.1C430.6,48.9,430.8,49.2,431,49.6z" />
	<path fill="#070706" d="M459,323.4c-0.8,0.2-1.8-0.3-2.3,0.8c-3.2,0.3-6.4-1.7-9.5-1.2c0.7,16.4,2.4,32.5,0.2,48.7   c-0.3,0-0.5,0-0.8,0c0-16.9-0.5-34.5-1.3-51.1c0.5-0.7,0.9-1.4,1.3-2.1c0.1,0.7,0.2,1.3,0.4,1.9C451,321.4,454.7,323,459,323.4z" />
	<path fill="#070606" d="M391,108c0.3,0.3,0.6,0.6,0.9,0.9c-7.7,15.2-2.3,32.6-9.5,48.1c-2.1-4.5,2.1-10.5,2.6-15.4   C386.7,130.9,381.3,116,391,108z" />
	<path fill="#0B0B0A" d="M448,428.4c-2-15.4-4.6-31.3-1.4-46.8c0.3,0.3,0.5,0.6,0.8,0.9c0.1,9,1.1,18.1,0.4,27   c-1.4,6.8,3.7,13.8,1,20.6C448.5,429.5,448.2,429,448,428.4z" />
	<path fill="#131213" d="M381.7,154.8c0.2,0.8-0.3,1.8,0.7,2.3c0.1,5.9-1.6,11.7-0.4,17.7c2.9,1,5.6,0,8.3,1.2   c-1.9,1.2-4.1,0.6-6.3,0.7c-0.1,0.7-0.1,1.3-0.2,1.9c-1.1,1.3-0.5,3.1-2.2,4.2c1.7,6-2.5,3.4-3.4,6.1c-0.9,2.2-1.8,4.4-2.9,6.5   c-0.6-0.9-1.3-1.8-1.7-2.9c2.9,0.3,1.6-5.1,3.8-6.5c1.1,0.8,1.9,0.1,3-0.5c-0.3-1.2-0.6-2.4-0.9-3.6c1-1,2.3-1.9,1-3.2   C379.5,170.7,379.3,162.4,381.7,154.8z" />
	<path fill="#171413" d="M368.7,217c-0.8-0.5-1.5-1-2.3-1.5c0.1-0.3,0.1-0.5,0.2-0.8c4.1,2.6,4.1-2,4.8-4.9c-0.4-0.6-0.9-1-1.6-1.3   c0.3,2.4,0.3,2.4-0.3,4.1c-1,0.4-2,0.7-3,1.1c0,0.5,0.1,0.8,0.1,1.1c-0.3,0-0.5,0-0.8,0c-1.6-1.9-2.9-4-3.7-6.4   c0.3-0.3,0.5-0.6,0.8-0.8c1.1,1.4,2.2,2.7,3.2,4c5,0.7,1.1-5.9-0.3-7.6c0.2-0.2,0.4-0.5,0.6-0.7c1.8,1.3,3.1,3.2,4.7,4.7   c0.7-0.1,1.2-0.3,1.6-0.4c1.8-2.1,0.8-3.9-0.5-5.7c0.3-0.3,0.6-0.6,1-0.9c1.1,0.2,2.2,0.5,3.2,0.7c1.2,0.4,0.2,1,0.2,1.6   c0.1,2.9-1.7,4.5-3.7,6.5c0.3,0.3,0.6,0.5,0.8,0.7c0,0.2,0,0.4,0,0.6c-0.4,0.1-0.9,0.1-1.4,0.2c-1.5,6.5-3.1,12.6-2.1,19.2   c-0.1,0.1-0.2,0.2-0.3,0.3c-0.4-0.1-0.8-0.2-1.2-0.3c0-0.2-0.1-0.4-0.2-0.6c1.6-3.5-0.3-6.4,0.3-10C369,219,370.3,216.9,368.7,217z    M375,203.6c0.1-0.3,0.3-0.5,0-0.8C374.6,203.1,374.7,203.3,375,203.6z" />
	<path fill="#161311" d="M337.9,589.5c-0.3-0.8,0.2-1.9-0.8-2.4c-0.3-3.1,0.2-6.2,0.7-8.9c10.5-7.5,12-20.6,21.5-28.7   c1.2,0.4,0,1,0.1,1.5c-2.1,1.8-3,4-3.6,6.5c-0.3,0-0.7-0.1-1.3-0.2c-2.7,5.2-4.2,11.4-8.1,15.8c-0.4-0.1-0.8-0.2-1.2-0.3   c-1.5,2.2-3.3,4.2-6,5.4C338.8,582.3,338.7,585.8,337.9,589.5z" />
	<path fill="#110F0E" d="M442.9,516.9c0.1,0.5,0.2,0.9,0.3,1.7c1-1.1,1.4-1.7,1.9-2.9c0.3,3.6-1.4,6.3-2,10c0.9-0.7,1.5-1.2,2.3-1.8   c-0.4,3.9-1.8,7.1-2.5,10.4c-0.6,0.5-1.2,0.9-1.7,1.2c-0.5,1.6-0.7,4.1-2.6,4.1c-1.2-0.9-0.1-2.3,0-3.5c-0.3-0.3-0.6-0.5-0.9-0.7   c-1.5,1-1.9,2.7-2.6,4.1c-1-0.5-0.5-1.5-0.7-2.2c0.6-1.2,1.1-2.3,1.7-3.6c0.9,0.1,1.6,0.2,2.4,0.3   C441.8,528.9,441.4,522.7,442.9,516.9z" />
	<path fill="#2D2724" d="M366.5,203.2c-0.2,0.2-0.4,0.5-0.6,0.7c-2.2-2.6-3.1-5.9-4-9.2c-2.8,1.5-1.2,5.2-1.6,7.7   c-0.3,0-0.5,0-0.8,0c-0.5-2.7-0.5-5.9,0.5-8.3c2.2-1.6,3.3-5.6,6.6-5.3c0.6,4.9,4.6,8,6.8,12.1c-0.3,0.3-0.6,0.6-1,0.9   c-1.3-1.8-2.8-3.5-4.1-5.3l0,0c-0.6-1.1-1.3-2.1-1.8-3.3c-0.6,0.5-1.3,0.9-1.9,1.3c-0.2-0.2-0.5-0.4-0.9-0.8   c0.8-0.6,1.6-1.2,2.4-1.8c-0.4-0.6-0.8-1.1-1-1.5c-0.8,0.6-1.5,1.1-2,1.4c0.1,1.4-0.3,2.5,0.6,3.4c0,1.4,0.5,2.6,1.4,3.7l0,0   c0,0.8,0.1,1.6,0.8,2.1c0,0.6-0.1,1.2,0.6,1.5l0,0C366.5,202.7,366.5,203,366.5,203.2z" />
	<path fill="#171717" d="M401.4,191.7c0,1.1,0,2.1,0,3.2c0.4,0,0.7,0,1.3,0.1c0,0.6,0,1.1,0,1.7c-2,1.7-2.8,5-3.4,7.5   c0.5,3.7-3.7,4.2-5.2,6.6c0.4,2.1,0.3,4.2-0.2,6.1c-1.1-1.3-0.5-3.3-0.8-4.8c-1.8-2.3-1.7-4.8-1.2-7.4c0.2,0,0.5,0,0.7,0   c2.4,3,7.8,0.8,3.7-2.2c0-0.2,0-0.5,0-0.7c0.7-0.1,1.4-0.1,1.9,0.4c1.1-3.5,2.2-7.1,3.1-10.6C401.2,191.6,401.4,191.7,401.4,191.7z    M393,207.3c-0.6,0.7,0.3,2.2,1.1,1.3C393.8,208.1,393.7,207.3,393,207.3z" />
	<path fill="#E3CAB9" d="M376.6,186.8c-0.5,1.6-1,3.1-1.5,4.7c-2.6-0.1-3.4-3.9-2-5.7c0.1-2.2,2-3.4,2.3-5.5   c1.4-0.3,2.9-2.6,4.2-1.1l-0.1,0.3c-2,0.3,1,4.3,0.8,5.8c-3.2,2.4-2.6-0.8-5.1-1.6C375,185.2,375.8,186,376.6,186.8z" />
	<path fill="#1B1B1C" d="M392,227.3c0.1,1.9,0.5,3.8-0.3,5.7c-6.7,2.5-15.2,1.2-21.5-1.6c-0.1-0.2-0.1-0.4-0.1-0.6   c0.1-0.1,0.2-0.2,0.3-0.3c1.9,0.5,3.7,1.3,5.6,1.6c1,0.9,2.2,0.5,3.4,0.6c3.1-0.4,7.1,0.9,9.8-0.5c2.3-1.5,1.2-5.6,2-8.1   C392,225,391.9,226.1,392,227.3z" />
	<path fill="#241B18" d="M446.5,318.4c-0.4,0.7-0.8,1.4-1.3,2.1c-0.1-1.4-0.1-2.9-0.2-4.6c-0.5,0.8-0.8,1.3-1.2,1.9   c-0.2-0.5-0.5-1.1-0.7-1.6c0.4-1.3,0.8-2.7,1.2-4.1c-1.5-1.5-7.7-5.3-5.3-7.3c2.6,1.9,4.1,5.8,7.5,6.4   C446.6,313.7,446.5,316.1,446.5,318.4z" />
	<path fill="#262120" d="M523.1,132.6c0.2-0.5,0.4-1,0.6-1.5c3.3,6.6,5.5,13.6,10.1,19.5c-0.3,0.3-0.6,0.6-0.9,0.9   C527.8,146.3,525.5,139.3,523.1,132.6z" />
	<path fill="#282624" d="M448,428.4c0.3,0.6,0.5,1.1,0.8,1.7c-1.2,6.4-1.3,13.6-2.8,20.3c0-1.1,0.1-2.2-0.8-3   C445.9,441.1,446.1,434.5,448,428.4z" />
	<path fill="#1F1C1B" d="M477.6,96.5c-0.3,0.3-0.5,0.6-0.8,0.8c-0.7-0.4-1.4-0.7-2.4-1.2c-0.9-2.3-1.9-5-2.8-7.4   c2.8-3-0.8-9.2,1.6-12.4C472.8,83.5,472.7,90.8,477.6,96.5z" />
	<path fill="#373531" d="M484,584.8c-0.5-0.2-0.9-0.4-1.4-0.6c0.4-0.4,0.9-0.8,1.2-1c-0.2-5.4-1.3-10.3-2.5-15.5   c0.2-0.5,0.5-1,0.7-1.6c3,5.7,2.9,11.6,3.1,18C484.9,584.1,484.5,584.5,484,584.8z" />
	<path fill="#201A18" d="M468.9,9.4c0.3,0,0.7,0,1,0.1c0.4,3.8,5.6,4.9,7,8.5c-0.4,0.5-0.9,1-1.3,1.5c-0.9-2.3-2.8-4-4.5-5.7   c-0.4,0-0.9-0.1-1.3-0.1c-0.2-0.8-0.5-1.6-1.5-1.1c-0.8-2.1-1.1,0.2-2.3-0.4c0-0.9-0.3-1.5-1.4-1.3c0,0-0.1-0.2-0.1-0.2   c0.4-0.3,0.8-0.6,1.2-0.9c-0.2-0.3-0.3-0.6-0.5-0.9C466.8,8.1,468,11.1,468.9,9.4z" />
	<path fill="#413E3C" d="M482.8,403.6c-0.4-2.6,0.8-6-0.8-8.1c-0.2-3.9,0.5-7.8,1.5-11.5C485,390.1,483.5,397.3,482.8,403.6z" />
	<path fill="#1E1514" d="M510.1,273.1c1.3,1.7,3.7-0.4,5,1.3c-1.7,0-3.3,0-4.9,0c-3.2,1.9-4.3,5.3-6.6,8l0,0   C501,281.1,507.9,272.5,510.1,273.1z" />
	<path fill="#2A2522" d="M434.3,17.2c0.3,0.5,0.5,1.1,0.8,1.6c-1.7,1.3,0.5,2.6-2.3,4.8c0.6,1,1.1,1.8,1.6,2.7   c-0.4,0.3-0.6,0.4-0.8,0.5c-0.2,0-0.5,0-0.7,0c0.2,1.4,0.1,1.5-0.5,3.3C430.9,25.2,431,21,434.3,17.2z" />
	<path fill="#42312A" d="M503.6,282.4c0.7-1,1.4-1.9,2.1-2.9c-0.1,5.8-0.3,11.7-1.3,17.4c-0.5-2.6,0.7-6-0.8-8.1   C503.4,286.9,505.2,284,503.6,282.4z" />
	<path fill="#2F3333" d="M392,227.3c-0.1-1.1,0-2.3-0.8-3.2c0.8-3.6,0.7-7.6,2-11C394.3,217.9,393.5,222.4,392,227.3z" />
	<path fill="#2C2827" d="M425,372.4c0.1,0.6,0,1.3,0.7,1.5c-0.2,3.2-1.4,6-2.7,8.9c-0.3-0.3-0.6-0.6-0.8-0.9   C423.3,378.7,423.4,375.4,425,372.4z" />
	<path fill="#272420" d="M434.3,537.4c0.2,0.8-0.3,1.7,0.7,2.2c1,3.2-0.4,6.7,0,10.1c-1.5-0.8,0.1-2.8-1.3-3.6   c-0.5-2.5,1.3-4.7,0-7.2C433.6,538.6,434.1,537.9,434.3,537.4z" />
	<path fill="#272423" d="M375.4,180.3c-0.3,2.1-2.3,3.3-2.3,5.5c-0.5,0-0.9,0-1.4,0c-0.1-2.2,0.8-4.6,2-6.5   C374.4,179.4,375.1,179.4,375.4,180.3z" />
	<path fill="#574A48" d="M381.1,418.6c-0.2-0.5-0.5-1-0.7-1.5c0.2-0.5,0.4-1,0.7-1.6c0.5,0,1.6,0.2,0.8-0.6c0.1-2.9-0.4-6,0.6-8.8   c0.4,2.3-0.9,5.6,0.8,7.3c0,1.1,0,2.1,0,3.1c-0.4,0.1-0.8,0.1-1,0.1C381.8,417.4,381.4,418,381.1,418.6z" />
	<path fill="#554946" d="M371.6,184.4c0,0.5,0,0.9,0,1.4c-1.6,0.1-3.2,0.2-4.8,0.3c-0.1,1.1-0.3,1.9-0.4,2.7c-0.4,0-0.8,0-1.2,0   C364.2,184,368.3,184.4,371.6,184.4z" />
	<path fill="#544E4B" d="M484.2,385.8c-0.3-0.6-0.5-1.2-0.8-1.8c0.9-2.2,1.8-4.4,2.7-6.6c0.3,0.3,0.5,0.6,0.8,0.9   C486.1,380.7,485.2,383.3,484.2,385.8z" />
	<path fill="#6F6455" d="M431.4,25.8c0.3,1.1,0.6,2.2,1.1,4.2c0.4-1.2,0.5-1.6,0.6-1.9c0.7,0.2,1.3,0.4,2.1,0.6c0,0.5,0,1.1,0,1.6   c0,0,0,0,0,0c-0.2,0.3-0.5,0.5-0.7,0.8c-0.8,0.1-1.9-1-2.3,0.1c-0.4-0.7-0.8-1.4-1.3-2.2C431,27.9,431.2,26.8,431.4,25.8z" />
	<path fill="#48423F" d="M359.4,202.5c0.3,0,0.5,0,0.8,0c0.9,1.7,1.8,3.4,2.7,5.1c-0.3,0.3-0.5,0.6-0.8,0.8   C360.7,206.6,359.5,204.8,359.4,202.5z" />
	<path fill="#3D3B39" d="M487,378.2c-0.3-0.3-0.5-0.6-0.8-0.9c0.7-1.9,1.4-3.8,2.2-5.7c0.2,0.5,0.5,1,0.7,1.5   C488.4,374.8,487.7,376.5,487,378.2z" />
	<path fill="#060605" d="M447.3,382.5c-0.3-0.3-0.5-0.6-0.8-0.9c0-3.3,0-6.6,0.1-9.9c0.3,0,0.5,0,0.8,0   C447.4,375.3,447.4,378.9,447.3,382.5z" />
	<path fill="#241B18" d="M445.2,323.5c1.6,3.3,0.2,7.5,0.6,11.1C445.1,330.9,445.1,327.2,445.2,323.5z" />
	<path fill="#2A2724" d="M386.1,549.7c-0.3,0.5-0.6,1.1-0.8,1.6c-0.6-1.5-0.3-3.3-1.3-4.5c0.2-0.2,0.5-0.5,0.7-0.7   C386.6,546.2,386.1,548.3,386.1,549.7z" />
	<path fill="#A2D3DD" d="M368.7,222.6c0.5,2.3,0.3,4.8,0,7.2C367.8,227.6,367.6,224.6,368.7,222.6z" />
	<path fill="#4D4B43" d="M359.4,551.1c-0.1-0.5,1.1-1.1-0.1-1.5c0.3-1.5-0.3-3.1,0.7-4.4C359.4,547.1,362.6,550.9,359.4,551.1   L359.4,551.1z" />
	<path fill="#4C504F" d="M480.3,59c0.3,0.3,0.7,0.6,1,0.9c-0.6,0.7-1.1,1.5-1.8,2.4c-0.4-0.5-0.7-0.8-1-1.1c1.2-0.1,1.2-0.1,0.5-1.1   C479.5,59.7,479.9,59.3,480.3,59z" />
	<path fill="#51312F" d="M375.4,180.3c-0.3-0.9-1-0.9-1.7-0.9c1.3-1.1,2.8-0.8,4.3-0.6C377.3,179.5,376.3,179.9,375.4,180.3z" />
	<path fill="#ACA9AA" d="M380.4,178.6c0.5,0.8,1,1.5-0.1,2.2c-0.3-0.4-0.5-0.9-0.8-1.3l0.1-0.3C379.9,179,380.2,178.8,380.4,178.6z" />
	<path fill="#2A2724" d="M386.7,553.3c-1.1-0.8-0.6-2-0.6-3C386.8,551.2,386.9,552.2,386.7,553.3z" />
	<path fill="#A2D3DD" d="M368.7,217c1.6,0,0.3,2,0.2,2.9C368.9,218.9,368.8,217.9,368.7,217z" />
	<path fill="#282624" d="M445.1,448.6c0.1,0.9,0.5,1.8-0.6,2.4C444.7,450.2,444.9,449.4,445.1,448.6z" />
	<path fill="#E1C7B6" d="M381.8,415c0.8,0.8-0.3,0.6-0.8,0.6C381.3,415.4,381.5,415.2,381.8,415z" />
	<path fill="#A2D3DD" d="M370.1,230.7c0,0.2,0,0.4,0.1,0.6c-0.7,0-1.2-0.1-1.3-0.9C369.3,230.5,369.7,230.6,370.1,230.7z" />
	<path fill="#A2D3DD" d="M371.6,232.1c0.5,0.2,1,0.4,1.5,0.6C372.5,232.8,371.9,232.8,371.6,232.1z" />
	<path fill="#A2D3DD" d="M373.8,232.8c0.5,0.2,1.1,0.3,1.6,0.5C374.7,233.5,374.2,233.5,373.8,232.8z" />
	<path fill="#3D3B39" d="M489.2,372.6c0.1-0.3,0.3-0.6,0.4-0.9C489.5,372,489.4,372.3,489.2,372.6z" />
	<path fill="#4C504F" d="M477.6,61.2c0.2-0.2,0.3-0.4,0.5-0.6c0.1,0.1,0.2,0.3,0.3,0.4C478.1,61.2,477.9,61.2,477.6,61.2z" />
	<path fill="#B3A497" d="M365.9,214.8c0.3,0,0.5,0,0.8,0c0,0-0.1-0.1-0.1-0.1c-0.1,0.3-0.1,0.5-0.2,0.8   C366.2,215.2,366.1,215,365.9,214.8z" />
	<path fill="#B3A497" d="M365.2,214c0.2,0.2,0.4,0.5,0.6,0.7C365.6,214.5,365.4,214.2,365.2,214z" />
	<path fill="#A2D3DD" d="M370.2,231.3c0.3,0.2,0.6,0.4,0.9,0.6C370.8,231.7,370.5,231.5,370.2,231.3z" />
	<path fill="#F6D9C7" d="M425,372.4c-8.2,22.9-9.1,48.2-21.6,69.9c-0.5-0.2-1.1-0.4-1.7-0.6c-2.8,2.5-7.5,5.8-6.6,10   c2.4-2.5,3.4-6.1,6.8-8c-1.9,16.3,0.7,33-6.5,48.5c-6.8,16.7-8.7,34.6-13.7,51.8c-0.6-0.5-1.1-0.8-1.6-1.2c-0.2-1-0.4-2.2-0.7-3.3   c-1.5-1.2-3.2-1.1-4.8-1.5c-0.8-1.4-2.6,0-3.5-1.3c-0.6-36.2-0.4-73.5,12.6-107.8c1.6,0.9,2.4,2.3,2.8,3.9c0.6,0,0.9-0.1,1.3-0.1   c0.3-0.6,0.6-1.3,0.9-1.9c8.5-1.5-2.4-11.7-1.2-16.7c1.7-7.1,3.2-12.7,3.6-20c0.6,0.5,1.1,0.8,1.5,1.2c0.2,0.7,0.5,1.4,0.7,2.1   c-0.4,1.8,0.6,3,2.1,3.7c0.3,0.8-0.5,1.8,0.8,2.1c1.2,1.7,3.1,2.6,5,2.2c1,0.7,0.5,2.1,1.7,2c0.8-0.1,2.3-0.5,1.2-1.4   c0-1.4,0-2.9,0-4.6c-12.4-8.8-7.8-67.5-1.5-80.9c11.3-0.3,22.6,4.8,33.9,2c1.3,0,2.6-0.7,3.9,0.3   C435.3,339.5,430.6,356.1,425,372.4z M398.1,407.7c-3.1-0.6-1.8,8.3-0.4,9.3C399.2,413.9,399.3,410.4,398.1,407.7z M395.7,425.2   c1.3-2.3,3.1-5.2,1.5-7.3C395.3,420.7,394.7,423.1,395.7,425.2z M394.4,455.5c-1.4,1.3-1.4,1.3-0.7,2.6   C394.4,457.4,395.2,456.7,394.4,455.5z M391.5,462.8c-0.2-0.1-0.3-0.2-0.5-0.3c-1,0.7-0.6,0.8-0.4,2.5   C391.1,463.7,391.3,463.3,391.5,462.8z M406.8,407c0-0.2,0-0.5,0.1-0.7c-0.4,0.1-0.8,0.1-1.2,0.2c0,0.1,0,0.3,0,0.4   C406,406.9,406.4,407,406.8,407z" />
	<path fill="#F6D9C7" d="M476.1,265.8c-14.3,1.7-28.5-0.7-42.8-1.9c-4.3,0-5.5-4.8-7.7-7.8c-6.3-12.5-10.6-34.5,0.4-44.8   c-0.4-3-2.3-5.4-1.5-8.3c0.6-0.3,1.2-0.5,1.9-0.8c-0.9-2.1-1.8-4.1-2.7-6.2c18.6,1.3,36.9,4.5,55.6,3.8   c-6.1,21,14.8,36.3,21.4,54.7c-5.8,2-11.3-0.5-17,1.5C481.4,259.4,478.6,262.5,476.1,265.8z M454.6,203.1c2.3,1.4,3.9,4.2,6.7,4.3   c-2.8-3-5.5-5.3-9-6.5C452.9,202,453.5,202.7,454.6,203.1z M473.9,237.6c-1.2,2-0.1,4.6-1.1,6.7c0,0.9,1.4,0.1,1.3-0.6   c2.2-5.5,3-11.3,0.7-14.9C473.4,231.6,474.1,234.6,473.9,237.6z M445.9,228.3c-1.1-2.2-1.1-5.1-2.8-7c-2.9,2.5-1,6.6-1.6,9.9   c-1.4,0.6-0.2,15.4,1.7,14.9c1.5-4.4,1.2-8.9,1.2-13.3c1-0.8,2-1.6,3.2-2.5C447,229.5,446.4,228.9,445.9,228.3z M471.7,247.1   c-1.7,1.7-1.7,1.8-0.9,3.9C471.2,249.5,472.3,248.6,471.7,247.1z M465.9,213.4c1.3-1.4-0.4-3.7-1.4-2.4   C464.9,211.6,465.3,212.3,465.9,213.4z M465.7,257.6c-1.3,0.8-1.3,0.8-0.7,2.4C466.1,259.4,466.5,258.7,465.7,257.6z M467.9,254.8   c0.9-0.1,1.5-1.9,0.2-1.7C467.7,253.7,467.2,254.3,467.9,254.8z M445.1,200.5c0.6,0.7,0.9,1.5,2,0.8   C446.7,200.5,446.2,199.9,445.1,200.5z" />
	<path fill="#FF9A77" d="M503.6,282.4c0.8,9.9-2.3,21.3-2.3,31.9c-13.4,3.1-26.1,9.8-40.2,8.2c0.9-5.5,2.3-10.6,2.4-16.2   c0.9-4.4,4.7-7.9,4.6-12.4c-4.4-0.2-6.2,4.5-10.3,4.4c-4.5,3.9-6.7,9-11.2,12.9c-3.4-0.6-4.9-4.5-7.5-6.4c-2.4,2,3.8,5.8,5.3,7.3   c-0.9,3.4-2.1,6.5-3.4,9.6c-12.5-0.6-24.6-1.2-36.8-4.2c0.1-8.7,3.4-17.7,4.6-26.4c4.2,0.7,8.1,2.5,12.3,1.8   c-2.7-3.1-8.2-3.1-11.8-5.5c0.3-1,0.7-1.9,1-2.9c6.6-0.8,12.9,0.2,19.7-0.3c-4.7-4.2-12.4-2.8-18.3-4.5c-0.1-0.4-0.2-0.7-0.2-1.1   c6.1,0.3,11.9,1.8,18-0.1c-0.6-0.3-1.2-0.6-2.2-1.2c1.7-0.2,3-0.3,4.1-0.4c-1.5-3.1-14.5-1.1-18.5-3.9c1.3-2.4,1.2-5.1,3.1-7.2   c19.5,1,39.6,1.2,58.8,2.6c-1.1,1.3-1.7,2.7-2.2,4.3c3,1.4,6.5,1,8.4-0.8c-0.1-0.5-0.1-0.9-0.2-1.4c2.1-3.4,5.2-5.2,9.1-5.5   c0.2,0.2,0.5,0.4,0.7,0.5c-5,3.1-6.1,8.5-7.2,13.9c-1.3,0.5-0.2,2.1-1.6,2.9c-5.4-0.2-11.2,1.4-16.2,2.6c1.9,2.2,6.4,0.5,9.1,1   c2.1-1.1,4.6-0.5,6.9-1.5c0.3,1.3,0.5,1.8,0.8,3c1.4,0.2,2.5,0,3.7-0.4c0.4,1,0.7,1.8,1,2.7c2-1,3.8-2,5-2.6   c2.6-4.8,4.4-9.5,7-13.5c0.3,0.3,0.7,0.6,1,0.9c-1.6,5.5-3.1,12.3-1.1,17.9c1.4-0.1,1.7-1,1.7-2C502.9,287.9,503,285,503.6,282.4   L503.6,282.4z M462.5,281c-0.6,0.1-1.2,0.1-1.8,0.2c0,0.2,0,0.3,0,0.5c4-0.2,8.2,0.7,12.1-0.5C469.4,280.7,466,280.9,462.5,281z    M446.3,279.2c1.2-1.2,1.2-1.2,0.5-3.2C446.5,277.2,445.7,278,446.3,279.2z M431.4,296.3c0.2,2.4,0.2,2.4,1.6,2.2   C432.4,297.7,431.9,297,431.4,296.3z M445.4,296.8c-1.1,0.7-1,1.6-0.6,2.7C445.8,298.8,446.3,298.1,445.4,296.8z M446.3,288.6   c0.7-1,0.7-2,0-3C445.6,286.6,445.5,287.6,446.3,288.6z" />
	<path fill="#E1C7B6" d="M392.6,395.5c-0.4-0.3-0.9-0.7-1.5-1.2c-0.4,7.3-1.9,12.9-3.6,20c-1.2,5,9.7,15.2,1.2,16.7   c-0.3,0.6-0.6,1.2-0.9,1.9c-0.4,0-0.7,0-1.3,0.1c-0.4-1.6-1.2-3-2.8-3.9c-13.1,34.3-13.2,71.6-12.6,107.8c0.8,1.4,2.7-0.1,3.5,1.3   c-2.1,0-4.2,0-6.3,0c-4.5-40.8-0.2-82.5,13.9-121.3c0.2,0,0.6-0.1,1-0.1c0.1-7,1.7-14,2.4-21c1.6-1.6,1.2-3.5,1.1-5.4   c-2.6-25.8-3.1-51.4-1.1-77.3c6.6,3,13.2,5.5,20.1,7.6c-0.9,0.1-1.9,0.2-3,0.2c-6.3,13.2-11,72,1.5,80.9c0,1.7,0,3.1,0,4.6   c-1.5,0.2-1.5,0.2-1.2,1.4c-1.3,0-0.7-1.3-1.7-2c-1,0-2.7,0.3-3.5-0.7c0.6,0,1.2-0.1,2.2-0.2c-1.4-1.5-2.6-2.8-3.7-4   c-0.4,0.3-0.5,0.5-0.7,0.6c-1.5-0.8-2.5-1.9-2.1-3.7c0.9,0.5,0.5,2.1,2.3,2.1c-1.4-3.7-1.5-7.3-3.1-10.8   C390.9,391,392.5,393.3,392.6,395.5z M385.1,420.9c-1.3,1.3-1.3,1.3-0.2,2.7C385.6,422.8,385.6,421.9,385.1,420.9z M392.1,382.2   c-0.4,0.8-0.7,1.2-0.9,1.6C392.1,384.4,392.8,383.7,392.1,382.2z M391.5,379.1c-0.1,0.7-0.5,1.2,0.3,1.2   C392.5,380,391.9,379.7,391.5,379.1z" />
	<path fill="#EF8A6A" d="M411.3,278.9c0.1,0.3,0.2,0.7,0.2,1.1c5.9,1.8,13.6,0.3,18.3,4.5c-4,0.2-7.8,0.2-11.6,0   c-1.7-1.4-4.6-0.4-6.8-0.8c0,0.4,0,0.6-0.1,0.8c-0.4,0.1-0.7,0.1-1.2,0.2c-0.3,0.9-0.7,1.9-1,2.9c3.6,2.4,9.1,2.4,11.8,5.5   c-4.2,0.6-8.1-1.2-12.3-1.8c-1.3,8.7-4.5,17.7-4.6,26.4c-6.6-0.8-12.5-3.7-18.6-6.4c0.9-18.1,3.9-35.5,9.6-52.7   c6.8,4.9,15,5.5,22.8,7.1c-0.7,0.1-1.4,0.2-2.1,0.3c-1.9,2-1.9,4.8-3.1,7.2c1.1,0.4,2,0.8,2.9,1.2c-4.2,0-8.3-1.3-12.5-0.2   c8.8,1.1,19,3.4,27.3,1.9c0.5,0.1,0.9,0.2,0.7,1.1c-1.1,0.1-2.3,0.2-4.1,0.4c1,0.5,1.6,0.8,2.2,1.2c-6.7,2.9-13.2-2.3-19.9-0.9   C410.1,278.2,410.7,278.5,411.3,278.9z" />
	<path fill="#E1C7B6" d="M423.6,195.9c0.9,2.1,1.8,4.1,2.7,6.2c-0.7,0.3-1.2,0.5-1.9,0.8c-0.7,3,1.1,5.3,1.5,8.3   c-12.3,11.2-6.4,42.1,5.5,52.4c-2,0-4,0.5-5.8-0.7c1.2-0.1,0.9-1.6-0.2-1.1c0.1,0.4,0.2,0.8,0.3,1.2c-3.2,0.2-6.4,0.2-9.6-0.6   c0.9-0.1,1.8-0.2,2.9-0.4c-1.2-2.6-2.3-5.1-4.1-8c0,3.2,0,5.7,0,8.2c-6.8-0.4-13.2-2-19.4-5.3c8.3-23.3,20.3-38.2,7.9-63.9   C409.1,191.6,417.4,195.2,423.6,195.9z M417.6,238c0.7,5.2,2.2,12.7,4.8,16.4c-1.8-8.6-4-17.4-4.3-26.4   C416.1,230.4,417,234.9,417.6,238z M418.2,214.8c-0.8,1.3-0.9,2.2-0.1,3.2C418.9,217.1,418.7,216.2,418.2,214.8z M424.8,258.4   c-0.4-0.6-0.6-1.4-1.6-0.8C423.4,258.4,423.7,259,424.8,258.4z M417.3,223.1c0.8-0.3,0.4-0.6,0.2-1.2   C416.7,222.2,417.1,222.6,417.3,223.1z" />
	<path fill="#0B0907" d="M406.3,192.4c-1.1-0.1-2.1-0.1-2.9,0.7c-0.3-0.5-0.7-1.1-1.1-1.8c-0.2,0.1-0.5,0.2-0.9,0.4l-0.2-0.1   c1.1-24.7-16.9-23.1,1.7-49.5l-0.2-0.1l0.2,0.1c1-1.8,0.6-3.5-0.2-5.2l0,0c0.3-0.3,0.6-0.6,1.1-1c1,2,1.1,3.5,1.1,5.5   c-12,18.4-13.3,34.5,11.4,40.5c-4.5,2.7-10.1-2.4-14.4-4.6c0.4,4.5,0.8,8.6,1.1,12.9c0.3,0.2,0.7,0.5,1,0.7   c0.4,0.9,1.2,0.6,1.9,0.6l0.3,0.1C406.3,191.9,406.3,192.1,406.3,192.4z" />
	<path fill="#DBC3B2" d="M475.3,269.4c2.3-3.8,5.3-7.3,8.1-10.7c0.7,1.6,0.8,3.1,0.4,4.8c0.4,0.1,0.6,0.1,0.8,0.2   c-2.6,2.6-4.4,6.2-7.5,8.5c-0.9,0-1.8,0-2.9,0C474.7,271.2,475,270.3,475.3,269.4z" />
	<path fill="#291B17" d="M475.3,269.4c-0.3,0.9-0.7,1.8-1,2.8c1,0,2,0,2.9,0c2.1-1.5,3.4-4,5.4-5.7c0.3,0.3,0.5,0.6,0.8,0.8   c-0.9,1.1-1.8,2.2-2.7,3.3c0.1,0.5,0.1,1,0.2,1.4c-1.9,1.9-5.4,2.3-8.4,0.8c0.4-1.6,1.1-3,2.2-4.3   C474.9,268.9,475.1,269.1,475.3,269.4z" />
	<path fill="#ECCDBC" d="M414.9,262.2c0-2.5,0-5,0-8.2c1.8,2.9,2.9,5.4,4.1,8C417.5,262.2,416.3,262.5,414.9,262.2z" />
	<path fill="#382F2B" d="M482.6,259.3c-1.6,2.7-3.6,5-5.6,7.3c-0.3-0.3-0.6-0.6-0.9-0.9c1.9-2.4,3.8-4.9,5.8-7.3   C482.1,258.8,482.3,259.1,482.6,259.3z" />
	<path fill="#F6D9C7" d="M488.3,371.6c-12.4,28-7.8,58.8-9.6,88.5c-3.2,24.5-15.9,46.1-19.4,70.7c-4.1,0.6-8.4,0.9-12.7,1   c0.7-15.8,10.8-32.6,8.6-48.2c-1.9,3.1-2.7,6.6-5,10.3c2-18.6-2.8-35.9,3.1-54.1c1.5,3.2,1,4.9,1.3,8c0.7,0.3,1.3,0.6,1.8,0.8   c1.3,3.3,1.8,6.8,5.3,8.9c2.8-10-4.1-19.6-5.6-29.3c2.1,1,4,1.9,6,0.9c1.3-3.3-1.9-5.6-3.3-8.2c1-0.8-0.5-1.9-0.8-2.7   c0.1-0.6,0.2-1.3-0.5-1.7c-0.2-0.8-0.6-1.6-1-2.4c0.7-2.5,1.5-5,2.2-7.5c-7.7-8.7-3.2-18.8-3.5-28.9c-1.9-12.2,7.5-22.2,7.5-33.8   c-2-1.1-2.3,2.2-4.3,1.6c0.9-6.3,1.9-12.6,2.8-18.8c13.5-2.2,26.4-6.1,39.9-10.6C500.2,335.3,494.8,353.6,488.3,371.6z    M470.5,411.6c-1.3,2.2-0.8,5.5-0.7,8.3C471.5,419.7,472,411.3,470.5,411.6z M463.8,398.9c2.2,0.9,7.5-6.5,5.4-7.8   C467.4,393.6,465,395.7,463.8,398.9z M468.7,428.9c1.3-0.8,1.3-1.7,0.7-2.8C468.4,426.6,468,427.3,468.7,428.9z M456.4,458.8   c0.5-0.4,0-1.2,0-1.8C454.9,456.9,455,458.9,456.4,458.8z M455.3,450.7c-0.8,0.7-0.8,0.9-0.2,1.5   C456,451.7,455.9,451.5,455.3,450.7z M463,401.1c-1.3-0.2-1.7,0.1-1,1.3C462.4,401.9,462.7,401.5,463,401.1z M458,403.9   c1.4,0,1.4,0,1.9-1.4C459.2,403.1,458.7,403.4,458,403.9z" />
	<path fill="#E1C7B6" d="M471.1,325c-3.3,1.9-6.5-0.8-9.8,1.7c-0.9,6.3-1.9,12.5-2.8,18.8c2,0.6,2.3-2.6,4.3-1.6   c0,11.5-9.4,21.6-7.5,33.8c0.3,10-4.2,20.1,3.5,28.9c-0.3-0.1-0.7-0.2-1.1-0.3c-1.4,1.7-1.4,3.9-2.3,5.8c-0.4,0.1-0.9,0.2-1.4,0.3   c0.1,1.5-0.7,3.7,1.1,4.4c0.3-0.1,0.6-0.3,1-0.4c-0.1,2.2,0.8,3.7,3,4.4c1.4,2.6,4.6,4.9,3.3,8.2c-2.1,1-3.9,0-6-0.9   c1.5,9.7,8.4,19.3,5.6,29.3c-3.5-2.1-4.1-5.6-5.3-8.9c-0.5-0.2-1.1-0.5-1.8-0.8c0-0.4-0.1-0.7-0.1-1.1c0.4,0.1,0.8,0.3,1.4,0.5   c-0.2-1.6,0.8-4.2-1.4-4c-0.3-0.9-0.6-1.7-1.2-3.3c-5.9,18.2-1.1,35.6-3.1,54.1c2.2-3.8,3-7.3,5-10.3c2.2,15.6-7.9,32.3-8.6,48.2   c-1.9,1.9-3.2,4.1-4.4,6.4c-0.4,0.2-0.8,0.4-1.2,0.7c-0.4-1.2-0.2-2,0.2-3.3c0.5-0.3,1-0.7,1.7-1.2c0.7-3.3,2.1-6.5,2.5-10.4   c-0.9,0.7-1.4,1.1-2.3,1.8c8.9-31.6-1.9-63.9,5.7-95.7c0.1-0.1,0.2-0.3,0.2-0.5c0.3,0,0.7,0.1,1.2,0.2c-5.8-35.1,0.2-71-3-106.8   C455.1,323.8,463,325.6,471.1,325z M450.6,431.1c-1.9,1.4-0.2,6.7,2.2,7.6C453.2,435.2,452.5,432.9,450.6,431.1z M446.1,521.1   c1.1-0.5,1.7-3.8,0-3.5C445.8,518.8,445.3,519.9,446.1,521.1z M447.3,514.1c0.2,0.1,0.5,0.1,0.7,0.2c0.5-1.3,1-2-0.5-3.1   C447.4,512.5,447.3,513.3,447.3,514.1z M449.2,509.2c0.3-1.5,0.9-2.3-0.2-3C448.5,507.4,448.8,507.5,449.2,509.2z M449.7,504.2   c0.2,0,0.3,0,0.5,0C450.2,502.9,449.7,502.9,449.7,504.2z" />
	<path fill="#F7EFD0" d="M481.3,567.6c0.8,3.6,1.7,7,1.2,10.8c-9.4,5.9-19.7,3-29.8,2c-1.3-4.1,1.7-12.9-5.1-12.8   c-1.4,1.5-2.7,2.8-3.9,4.1c-2.2-1-4.3-2-6.6-3.1c2.3-8.4,2.5-16.9,2.2-25.6c3.1-2.9,5.5-5.8,7.7-9.5c3.9-0.8,7.8,0.7,11.9,0   c1.1,2.3,1,4.8,1.5,7.2c-3.6,0.9-15.4-0.5-14.1,5.4c5.5-0.8,10.3-2.3,16.1-2.9c0.7,1.1,1.4,2.3,2.3,3.7c-5.2,0.2-12-1.1-15.5,2.9   c1.6,1.3,3.1,0.3,4.6,0.4c0.2,0.2,0.5,0.4,0.7,0.7c-0.9,0.5-1.8,0.9-2,2.2c1.2,1,2.3,2,3.8,1.6c0.7,0,1.4-0.2,1.8,0.6   c-0.2,0.6-0.4,1.2-0.7,1.8c3.2,0.8,8.2,0.6,10.7-1.5c-2.1-1.5-2.1-1.5-5.7-1.7c0-0.2,0-0.5,0.1-0.7c1.9-0.5,3.8-0.8,5.6-1.5   C472.9,557.1,474.8,564.3,481.3,567.6z M471,560.1c-2-1.6-4.2-1-6.2-1.2c-2.4-0.6-3.4,2.9-0.6,3C466.6,562,469.2,561.9,471,560.1z" />
	<path fill="#302C27" d="M443.6,538.8c-1.9,1.9-3.6,3.9-5.7,5.6c-0.5,0-0.9,0-1.5,0c0.3-2,2.4-2.4,2.9-3.9c-0.2-0.3-0.4-0.6-0.6-0.8   c1.4,0.2,1.4-1.3,2.1-2.2c0.1,0.4,0.2,0.9,0.3,1.4c0.4-0.2,0.8-0.5,1.2-0.7C442.5,538.8,443,538.8,443.6,538.8z" />
	<path fill="#979884" d="M454.5,551c-0.2-0.2-0.5-0.4-0.7-0.7c1.9-1.6,4.6,0.1,6.6-1.3c1.1,0.4,2.3,0.4,3.4,0.7   c0,0.2,0.1,0.4,0.1,0.6C460.8,550.2,457.6,550.4,454.5,551z" />
	<path fill="#DBD7BB" d="M464,550.3c0-0.2-0.1-0.4-0.1-0.6c2.3-1.9,4-0.1,4.3,2.2c-0.5,0.2-1.1,0.4-1.6,0.5   C467,550.8,465,550.7,464,550.3z" />
	<path fill="#0A0807" d="M460.4,549c-1.1,0.9-2.4,0.5-3.7,0.5C457.8,548.5,459.2,549.1,460.4,549z" />
	<path fill="#88AF98" d="M464.7,549c-0.3,0.2-0.6,0.4-0.8,0.6c-0.9-0.1-1.8-0.3-2.7-0.4C462.3,549.2,463.5,549.1,464.7,549z" />
	<path fill="#F7EFD0" d="M386,559.2c0.7,7.3,2.6,14.3,5.1,20.8c-4.2,1.9-8.5,3.7-13.3,4.9c-0.4-0.9-0.8-1.9-1.2-2.8   c-4,2.8-1,10.3-5.1,13.5c-9.6-1.1-19.2-2-28.7-4c0.3-4.6-0.2-9.9,3.2-13.3c3.3-3.7,3.6-9.4,8.2-12.2c3.6,0.3,8.2,1.7,11.1-0.9   c-3-1.4-5.9-1.9-9.1-2.1c0-0.1,0-0.3,0-0.4c3.2-1.2,13,1.7,13.8-0.8c-3.5-2.1-7.8-1.4-11.3-3.6c5.3-0.8,10.5,1.2,15.8,0.6   c-1.9-4.5-8.9-3.6-12.9-5.4c5.1-2.3,10.8,2,15.7,1.9c-1-3.9-6.1-3.9-9.3-5.2c-0.8-1.3-2.3-0.2-3.2-0.9c0.5-2.5,0.9-4.9,1.3-7.1   c3.1-2.8,7.8-2.3,11.7-1.2c0,2.3,0.7,3.9,1.9,6c0.7,2.1,0.8,7.3,4.1,6.2c1.8,0.9-0.2,3.2,1.4,4.4   C385.5,558.2,385.7,558.7,386,559.2z M362,571.1c-1.5-2.4-6.4-3.9-8.1-1.1C355.1,572.8,359.8,572.6,362,571.1z" />
	<path fill="#E0D4B1" d="M368,541c-0.6,0.4-1.1,0.7-1.9,1.2c-0.4,2.2-0.8,4.6-1.3,7.1c0.9,0.8,2.4-0.3,3.2,0.9c-2.4,0-4.8,0-7.2,0.1   c-0.1-3.2,1.9-6,2.8-9.3C365.2,541,366.6,541,368,541z" />
	<path fill="#2C2422" d="M402,447.4c0-1.1-0.1-2.3-0.1-3.6c-3.4,1.9-4.4,5.5-6.8,8c-1-4.3,3.7-7.5,6.6-10c0.6,0.2,1.2,0.4,1.7,0.6   C402.1,443.8,403.5,446.2,402,447.4z" />
	<path fill="#D8D5BA" d="M385.3,557.6c-1.6-1.1,0.4-3.5-1.4-4.4c0.2-1.5-0.4-2.7-1.6-3.7c0.2-0.9,0.3-1.8,0.4-2.6   c0.5-0.1,0.8-0.1,1.2-0.1C385.6,550,385.5,554,385.3,557.6z" />
	<path fill="#F6D9C7" d="M484.7,263.6c-0.2,0-0.4-0.1-0.8-0.2c0.3-1.6,0.2-3.2-0.4-4.8c0.5-2.8,16.1-2.8,18.4-1.7   c1.6,1.2,21.2,1.8,20.6-0.5c10.4-4.3,18.4-41.2,24-52.6c2,0,4.1,0,4.7-2.6c-11.7-9.9-20.4-22.6-30.3-34.3   c-6.4-6.2-10.5-28.5-21.7-22.3c-1.9,3.4-3.1,6.8-5.9,9.5c-6.9-14.2-8.2-32.8-5.5-48.4c3.4,1.6,6.1,4.5,10,4.5   c19.4,0.5,23.2,18.2,29.3,32c14.4,21.3,30.8,41.7,37.2,67.3c-7.9,14.4-13.1,30.1-24.5,42.4c-0.4-0.4-0.8-0.9-1.4-1.5   c-1.3,3.8-2.2,6.8-5.3,9.5c0.7,0.3,1.2,0.5,1.7,0.7c-4.6,13-14.2,10.3-24.6,12.3c-2.3-1-9.3,9.6-8.7,11.4c-1.4,1-0.1,2.5-0.8,3.6   c-0.1,0-0.3,0-0.4,0c-1.1-7.4,2.2-13.6,4.7-20c-1.5,1-2.4,2.5-4.2,2.3c-2.2,1.1-3.8,3.4-5,5.5c-1.7-1.4,0.2-4.2-1.5-5.8   c0.7-3.2,6.8-3,7.2-6.1c-3.7,0-10.6,8.2-11.4,4.1c2-2.2,9-4.4,8.2-7.5c-3.1,4.2-8,0.9-12.1,1.7   C485.5,262.8,485.1,263.2,484.7,263.6z M554.9,208.7c2.5-0.3,3.6-10.4,0-8.7C554.9,202.8,554.9,205.7,554.9,208.7z M494,118.6   c-1.7,2.6-2.5,5.8,0,7.5C494.6,123.8,495.5,121.5,494,118.6z M513.4,260.5c0.8,0.5,1.3,0.3,2.1,0   C514.5,259.5,514.5,259.5,513.4,260.5z M491.7,112.8c-1.6-0.6-2.6-0.8-3.8,0C489,113.6,490,113.3,491.7,112.8z M510.7,260.6   c-0.9-0.8-1.5-0.9-2.4,0.1C509.4,261.4,509.8,261.3,510.7,260.6z M504.4,260.5c1,0.4,1.6,0.7,2-0.1   C505.7,259.5,505.2,259.5,504.4,260.5z M555.5,211.3c-0.8-1.1-1.8-0.7-1,0.5C554.8,211.6,555.1,211.5,555.5,211.3z M514.7,265.9   c0.4-0.4,0.6-0.8,1.1-1.3c-0.8,0-1.3,0-2.1,0C514.1,265.1,514.4,265.4,514.7,265.9z M541.9,246.7c0.1,0,0.3,0,0.4,0   c0-0.5,0-1,0-1.4c-0.1,0-0.3,0-0.4,0C541.9,245.7,541.9,246.2,541.9,246.7z M498.2,258.9c-0.7,0-1.4,1.1-0.6,1.2   C498.4,260,498.6,259.5,498.2,258.9z M498,134.1c0.3-0.5,0.7-0.8,0-1.1c-0.2,0.2-0.4,0.5-0.6,0.7   C497.6,133.8,497.7,133.9,498,134.1z M553,214.5c-0.2,0.8-0.2,1.1-0.3,1.4c0.2,0,0.4,0,0.5,0C553.1,215.6,553.1,215.3,553,214.5z" />
	<path fill="#8E736A" d="M536.8,254.4c0.4-1.2,0.8-2.3,1.3-3.8c0.6,0.7,1,1.1,1.4,1.5C539.1,253.4,538.5,255.4,536.8,254.4z" />
	<path fill="#EF8A6A" d="M446.6,311.3c0.3-0.3,0.6-0.6,0.9-0.9c2.2,0.2,7.4-3.8,5-5.6c1.3-2.5,3.1-4.5,5.4-6.4   c4.1,0.1,5.9-4.6,10.3-4.4c0.2,4.5-3.7,8-4.6,12.4c-0.1,5.6-1.5,10.7-2.4,16.2c2.6,0.1,5,0.2,7.3,0.2c-7.3,1.8-14.7-0.3-21.6-2.5   C446.2,317.4,446.7,314.2,446.6,311.3z M456,303.5c2.6-0.4,2.5-0.4,2.7-2.6C457.6,302,456.8,302.7,456,303.5z" />
	<path fill="#3D3B39" d="M488.5,371c0.2-0.5,0.4-1,0.6-1.5C489.2,370.1,489.2,370.7,488.5,371z" />
	<path fill="#F6D9C7" d="M471.6,88.7c0.9,2.4,1.9,5.1,2.8,7.4c2.8,1.1,3.8,2.9,5.8,5.1c-2.6,20.2-5.4,51.6-32.9,49.4   c-0.6-3.6,2.2-5.7,2.7-8.6c-1.2-0.1-1.6,0.6-1.9,1.4c-0.4,0.2-0.7,0.5-1.1,0.7c-1.3-1.9-1.3-1.9-2.7-1.9c1.7,2.6,2.5,5.3,1.1,8.2   c-24.3,0.6-21.4-34.7-12.6-49.5c12.3,14.9,28.5-3.5,36.4-14.1c0.5,0.2,0.8,0.3,1.1,0.4C470.8,87.7,471.2,88.2,471.6,88.7z    M440.2,109.5c2.6-0.2,4.4,2.2,7.1,0.9c-3.2-2-6.5-1.9-10-2.3c-0.2,0.1-0.4,0.2-0.5,0.3c0.2,0.2,0.5,0.4,0.7,0.6l0.2,0   C438.4,109.5,439.3,109.6,440.2,109.5z M453.7,114.6c2.5,3,4.3-4.5,9-4c-2.1-0.7-3.6-0.6-4.9-0.3c-1.2,1.3-2.2,2.4-3.2,3.6   c-1.7,0-1.9-1.7-3.8-1.6C451.4,114,452.3,114.6,453.7,114.6z M470.1,103.4c1.5-1.9,2.1-4.1,1.5-7C469.9,98.8,469.7,101,470.1,103.4   z M467.1,111c0.9-0.9,1.4-1.6,0.7-2.6C466.6,109,466.3,109.7,467.1,111z M469.6,105.2c-1.7,0.1-2.6,1.4-1,2.2   C468.9,106.7,469.2,106.1,469.6,105.2z" />
	<path fill="#F6D9C7" d="M433.5,41.6c0.6-0.8,1.2-1.6,2-2.5c-0.3-1.3,0.1-3.3-1.1-4.3c0-1.5,1.1-2.5,0-3.8c0.2-0.3,0.4-0.5,0.7-0.8   c0,0,0,0,0,0c1-1,0.7-2.3,0.7-3.6c0.2-0.2,0.5-0.5,0.7-0.7c0-0.2,0-0.5,0-0.7c0.8,0,1.6,0,2.3,0c2.3-1.9,5.1-3,7.8-2.9   c0.2,0.5,0.5,0.7,0.7,0c0.5-0.2,0.9-0.5,1.4-0.7c0,0,0,0,0,0c0.1,2.4,3.5,1.1,5.1,1.4l0,0.1c0.6,1.5,1.7-0.2,2.2-0.8   c0.5,0.2,1,0.4,1.8,0.7c1.3-1.2,2.7-2.4,4-3.6c0.7,1.1,1.7,0.8,2.8,0.7c1.2,0.7,2.4,0.9,3.7,0.7c0.5,0.2,1.1,0.4,1.6,0.7   c0.6,0.3,0.2,1.5,1.5,1.3c0.4-0.5,0.8-1.2,1.7-2.5c0,1.7,0,2.5,0,3.3c0.5,0.7,1,1.4,1.4,1.9c0,0.9,0,1.6,0,2.4   c0.4,0,0.7,0.1,0.9,0.1c0.1,1.4-0.8,3.5,0.8,4.4l-0.1-0.1c-0.4,1.1-0.7,2.2-1.1,3.4c2.6,1.8,1.3,4.3,2.5,6.7   c2.3,53.7-36.4,55.1-44.7,3.6c0,0,0,0,0,0c0-0.3,0-0.6,0-0.8c0,0,0,0,0,0C434.1,44.4,433.5,42.9,433.5,41.6z M472.6,36.8   c-0.1,0.7-0.4,1.5,0.4,2.1c0.3-0.1,0.5-0.1,0.8-0.2c-0.3-1.2-0.6-2.5-0.7-3.7c-0.1,0-0.3,0-0.4,0C472.7,35.5,472.6,36.1,472.6,36.8   z M450.3,62.7c0.2-1.1,0.4-2.2,0.6-3.5c-2.3,1-2.5,2.8-1,4.8C451,64.1,451.1,63.3,450.3,62.7z M471.7,46c-1.1-2-3.7-1.7-5.7-2.1   c-3.4-0.9-5.5,2.2-7,4.7c0.3,0.2,0.5,0.3,0.9,0.6c0.7-0.5,1.5-1,2.1-1.5c1,0.9,1.7,1.3,2.7,1.9c-0.2,0.2-0.4,0.5-0.8,1   c1,0,1.7-0.1,2.5-0.1c-0.1-0.8-0.1-1.3-0.2-1.9c0.4-0.4,0.8-0.8,1-1.1c1.4,0.3,2.6,0.6,3.9,1C472.4,47.8,471.6,46.8,471.7,46z    M469.5,40.5c1.1,0.8,2.2,0.7,4.2,0.3c-5.1-2.3-12.8-2.9-17.1,0.8C461,42.5,465,39.7,469.5,40.5z M461.6,74.3c-0.2,0-0.4,0-0.6-0.1   c0.7-1.9,3.1-1.1,3.6-3.5c-6.4-0.2-12.1-2.1-18.2,0.8c0.2,1.4,1.9,2,1.8,3.6c1.8,3.8,10.2,3.5,13.4,0.4   C462.6,75.6,462.6,74.5,461.6,74.3z M444.5,49.8c0.6-0.4,1.1-0.8,1.5-1.1c0.8,0.1,1.4,0.2,2.1,0.3c1-0.9,1.7,0.4,2.4-0.6   c-0.3-0.4-0.6-0.8-0.9-1.2c-0.6,0.2-1,0.4-1.5,0.5c-1.9-3.5-10.1-4.4-11.4-0.9c0.5,0,0.9,0.1,1.4,0.1c-0.3,0.5-0.6,1.1-1,1.7   c1.6,0.6,1.6,0.6,3.9-0.9c0.7,0.9,1.2,2.2,2.7,2.1c-0.5,0.4-1.1,0.7-1.7,1.1c1.9,0.5,1.9,0.5,3.7-0.2   C445.2,50.3,444.8,50,444.5,49.8z M449.3,42.6c-1.6-3.6-10.1-5.3-13.9-1.3C440.6,40.3,445,41,449.3,42.6z M456,62.9   c2.5,3,7.7-0.3,4.5-3c-1.5,0.3,0.5,1.9-0.7,2.7C458.6,62.3,457.3,60.9,456,62.9z M456.3,48.2c-1.3,0.6-1.1,4.4,0.3,4.5   C456.6,51.2,457.2,49.9,456.3,48.2z M456.9,46.9c1.1-1.1,1.9-2.1,1.7-4C457.1,44.1,456.4,45.1,456.9,46.9z M453.7,63.9   c0.2-1.3-0.5-1.5-1.6-1.6c-0.2,0.4-0.4,0.9-0.6,1.6C452.4,63.9,453,63.9,453.7,63.9z M456.1,54c-0.5,0.5-0.9,0.9-0.3,1.3   C456.6,55.1,456.6,54.9,456.1,54z M456.7,59.8c-1.1,0.2-1.5,0.6-1.2,1.4C456.3,60.9,456.3,60.9,456.7,59.8z" />
	<path fill="#E1C7B6" d="M470.4,87.2c-0.3-0.1-0.7-0.2-1.1-0.4c-7.9,10.6-24.1,29-36.4,14.1c0-0.3-0.1-0.5-0.1-0.8   c0.1-0.2,0.2-0.4,0.2-0.6c3-1.9,5.2-3.9,7.9-6.5c0.4,1.8,0.7,3.3,1.1,5.4c1.1-5.6,0.3-9.8,1.6-15.2c1.8,1.3,2.9,3.2,5.5,2.6   c3.4,1.5,7,3.6,10.6,1.6c0,0,0,0,0,0c0.3-0.2,0.6-0.4,0.9-0.6c0,0,0,0,0,0c3.3-1.2,6.7-2.3,9-5.2C471.1,83,469.9,85.2,470.4,87.2z    M442.2,101.8c0.4,0.2,0.7,0.3,1,0.4C443.9,101.1,442.9,100.7,442.2,101.8z" />
	<path fill="#DCC2B1" d="M432.9,46.2c4.8,17.5,6.9,38.2,30.4,37.5c-1.7,0.7-3.4,1.4-5.1,2.1l0,0C438.6,87.1,432.5,61.6,432.9,46.2z" />
	<path fill="#554D42" d="M475.5,28.1c-0.2,0-0.5,0-0.9-0.1c0-0.7,0-1.5,0-2.4c-0.4-0.6-0.9-1.2-1.4-1.9c0-0.8,0-1.6,0-3.3   c-0.8,1.2-1.3,1.9-1.7,2.5c-1.3,0.2-0.9-1-1.5-1.3c-0.5-0.2-1.1-0.4-1.6-0.7c-0.5-1.5,2.1-3,0.7-4.1c-0.1-0.3-0.1-0.6-0.2-1   c0,0,0,0,0,0c0.2-0.1,0.4-0.1,0.6-0.2c-0.1-0.1-0.3-0.3-0.4-0.4c0.2-0.5,0.5-1,0.7-1.5c0.4,0,0.9,0.1,1.3,0.1   c0,0.2,0.1,0.4,0.1,0.5c-0.8,0.8-0.3,1.5-0.1,2.3c-0.6,1.2,0.1,2.2,0.3,3.2c0.5-0.5,1-1.1,1.7-1.7c0.5,0.6,0.8,0.9,1.1,1.2   c0,1.3,0,1.3,1.2,0.8C478.4,20,474.6,26,475.5,28.1C475.4,28.2,475.5,28.1,475.5,28.1z" />
	<path fill="#413A32" d="M476.2,32.5c-1.6-0.9-0.7-3-0.8-4.4c0,0,0,0.1,0,0.1c1.5-1.9,1.8-4.2,1.5-6.5c1.5,3,1.4,7.3,1.4,10.8   c-1.5,0.8-1.6,1-0.8,2.2c0.4,0,0.9,0.1,1.3,0.1c0.1,2.4-2,4.4-0.6,7.1c0.1,0.1-0.4,0.5-0.6,0.7c-1.2-2.4,0.1-4.9-2.5-6.7   C475.4,34.7,475.8,33.6,476.2,32.5c0.7-0.6,1.6-1,1-2.7C476.8,31,476.5,31.8,476.2,32.5z" />
	<path fill="#C7B2A3" d="M480.3,59c-0.4,0.4-0.9,0.7-1.3,1.1c-1-0.7-0.8-2.4-0.1-3c2.2-0.8,1.9-3.5,3.8-4.4l-0.1,0   C482.1,54.8,481.6,57,480.3,59z" />
	<path fill="#DAC2B2" d="M482.7,52.7c-0.6-0.8-1.2-1.7-1.9-2.6c0.5-1,1-2,2.4-2.7C483.5,49.2,484.3,51.8,482.7,52.7   C482.6,52.6,482.7,52.7,482.7,52.7z" />
	<path fill="#F6D9C7" d="M476.9,21.6c0.3,2.4,0,4.6-1.5,6.5c0-2.4,0.4-4.8,1.3-7C476.7,21.3,476.8,21.5,476.9,21.6z" />
	<path fill="#867D72" d="M480.4,46.9c0.6-0.7,1.2-1.4,1.8-2.1c0.2,0.1,0.3,0.2,0.5,0.2c0,1.2-1,1.7-1.8,2.4   C480.7,47.2,480.6,47.1,480.4,46.9z" />
	<path fill="#B09D86" d="M475.4,20.2c-2.1,1.1-1.1-1.4-0.5-2.3c0.2,0.5,0.5,1.1,0.7,1.6C475.5,19.7,475.5,20,475.4,20.2z" />
	<path fill="#897B69" d="M477.5,34.6c-0.7-1.1-0.7-1.3,0.8-2.2C478.1,33.1,477.8,33.9,477.5,34.6z" />
	<path fill="#E9DCB7" d="M354.3,566.2c-4.6,2.8-5,8.5-8.2,12.2c-3.4,3.4-2.9,8.7-3.2,13.3c9.5,2.1,19.1,2.9,28.7,4   c-10.3,1.9-22.3,2.9-32.8,0.3c-1.4-5.8,0-11.6,0.4-17.5c2.7-1.2,4.5-3.2,6-5.4c0.5,0.1,0.8,0.2,1.2,0.3c3.2-3.2,4.2-8.2,6.5-12.1   c0.3,0,0.5,0,0.8,0c2.2,2.2,6-0.2,8.7,1.3c-2.1,0.1-4.1,0.2-6.2,0.3c0,0.1,0,0.3,0,0.4c1.6,0.1,3.2-0.1,4.6,0.8   c-2.3,0.4-5.6-1.2-7.1,1.1C353.9,565.4,354.1,565.8,354.3,566.2z" />
	<path fill="#2A2724" d="M385.3,557.6c0.1-1.2,0.1-2.4,0.2-3.6c1.1,1.5,0.4,3.5,0.5,5.3C385.7,558.7,385.5,558.2,385.3,557.6z" />
	<path fill="#CFBC9E" d="M446.1,22.2c-2.5,0.6-5.1,1-7.3,3c-0.5,0-3.9,0.2-2.2-0.8c0.7-0.2,0.7-0.8,0.7-1.3c0.2-0.2,0.4-0.5,0.7-0.7   c1.2,1.1,1.9-0.1,2.9-0.8c1.9-2.5-0.5-5.8-0.7-8.6c0.6-0.4,1.2-1.2,2.1-0.7C441.7,16.4,443.6,19.3,446.1,22.2z" />
	<path fill="#AB9F88" d="M456,22.3c-0.6,0.6-1.6,2.3-2.2,0.8c1.3-0.4,0.4-1.5,0.8-2.2c0.7-0.4,0.7-0.9,0-1.4   c-0.7-3.1,1.3-6.3-0.2-9.1c1.7-0.8,1.7-0.8,3.1-0.6c2,0.5,0.6,2.4,2.4,2.7c-0.4,0.5-0.7,1-1.1,1.4c-1.5-0.4-1,1.2-1.7,1.7   c-0.2-0.5-0.4-1-1-2.3C456.1,17.1,456,19,456,22.3z" />
	<path fill="#C7B397" d="M450.2,20.3c-2.4-3-2.9-6.3-2-10c3-1.1,1.6,3,2.3,4.4C451.2,16.5,451.6,18.8,450.2,20.3z" />
	<path fill="#8F8670" d="M448.7,21.7c-0.5,0.2-0.9,0.5-1.4,0.7c-0.5-1.1-0.9-2.2-2-2.9c0-0.6,0.1-1.1,0.1-1.9   c-0.5-0.9-1.2-2.1-1.8-3.2c-0.1-1,0.3-2.1-0.6-2.9c0.4-0.8,0.8-1.4,1.8-1.4c1.3,1.3,1.3,2.7,0.5,4.2   C446.5,16.8,447.6,19.2,448.7,21.7z" />
	<path fill="#A5987F" d="M436.6,24.4c-0.5,0.2-0.9,0.4-0.1,0.8c0,0.2,0,0.5,0,0.7c-0.2,0.2-0.5,0.5-0.7,0.7   c-0.7,0.1-1.4,1.5-2.1,0.1c0.2-0.1,0.4-0.2,0.8-0.5c-0.5-0.8-1-1.7-1.6-2.7c2.8-2.2,0.6-3.4,2.3-4.8c0.9,1.2,1.9,2.4,2.8,3.6   c-0.2,0.2-0.4,0.5-0.7,0.7c-0.5,0-0.8-0.8-1.4-0.1C436.1,23.5,436.3,23.9,436.6,24.4z" />
	<path fill="#61584C" d="M450.2,20.3c2.8-3.1-2.3-7.9,1.5-10.8c0,0.8,0,1.6,0,2.6c0.5-0.5,1-0.8,1.4-1.2c0.2,0.9,0.5,1.9,0.7,2.8   c-4.3-0.2-0.8,5.6-2.5,8.2C450.8,21.1,450.5,20.7,450.2,20.3z" />
	<path fill="#BFB093" d="M457.4,7.2c-1.3,0-2.5,0-3.9,0c1.4-2.7,3.5-3.8,7.5-3.7c0,0.3,0,0.5,0,0.8C459.3,4.6,458.1,5.6,457.4,7.2z" />
	<path fill="#C8B99E" d="M459.6,12.3c0.2-0.7,0.5-1.4,0.7-2.3c1,0.1,1.9,0.2,2.8,0.2c0.5,2.3-0.6,4.3-1.5,6.3   c-0.2-0.2-0.5-0.4-0.7-0.6C461.3,14.4,460.9,13.1,459.6,12.3z" />
	<path fill="#2A2720" d="M443.1,11.5c0.8,0.6,0.6,1.5,0.5,2.3c-0.6,0.3-0.4,0.5,0,0.6c0.6,1.1,1.3,2.2,1.8,3.2   c-0.1,0.7-0.1,1.3-0.1,1.9c-0.3,0.1-0.7,0.1-1,0.2c-2.4-1.7-1.9-4.8-2.1-7.3C442.5,12,442.8,11.8,443.1,11.5z" />
	<path fill="#9B8A76" d="M468.9,9.4c-0.2,0.6-0.6,0.7-1.1,0.4c-1.6-1.8-4.2-0.6-6.2-1.7c2-0.1,3.5-1.4,5.1-2.2   C467.6,7,468.6,8,468.9,9.4C468.9,9.4,468.9,9.4,468.9,9.4z" />
	<path fill="#4E483C" d="M440.1,13c0.2,2.8,2.6,6.1,0.7,8.6c-0.7-0.7-1.4-1.4-2.1-2.2c2.1-1.4,0.2-3.7,0.7-5.8   C439.6,13.4,439.9,13.2,440.1,13z" />
	<path fill="#EAD9B9" d="M466.8,5.8c-4.7,3.4-8.8,2.4-2.1-1.6C465.4,4.8,466.1,5.3,466.8,5.8z" />
	<path fill="#353029" d="M461.6,16.5c0.9-2,2-4,1.5-6.3c0.5,0.2,1,0.3,1.5,0.5c0,0,0.1,0.2,0.1,0.2c-0.3,1.4-0.6,2.8-0.9,4.3   c-0.7,0.8-1.3,1.7-1.3,2.9c0,0,0,0,0,0c-0.3,0.2-0.6,0.5-0.9,0.7c-0.2,0-0.5,0-0.7,0C461.1,18,461.4,17.2,461.6,16.5z" />
	<path fill="#A39982" d="M464.7,4.3c-1.5,0.6-2.5,1.8-3.7,2.9c-0.8-0.3-1.4,0.3-2,0.6c0-2.2,2.7-2.2,2-4.3   C462.3,3.6,463.6,3.4,464.7,4.3z" />
	<path fill="#080606" d="M451.8,20.2c0-1.4,0-2.9,0-4.3c0.6,0.8,1.2,1.7,2,2.7c-0.1,0.8-0.1,1.8-0.2,3.1   C452.6,21.1,452.4,21,451.8,20.2z" />
	<path fill="#918771" d="M438.7,19.5c0.7,0.7,1.4,1.4,2.1,2.2c-1,0.6-1.7,1.9-2.9,0.8c0.2-0.1,0.4-0.2,0.8-0.5   c-0.8-1.6-2.3-2.9-2.2-5.5C437.5,17.7,438.1,18.6,438.7,19.5z" />
	<path fill="#AE9B81" d="M439.4,13.6c-0.5,1.7,1,3.7,0,5.1C438.1,17.4,436.7,14.3,439.4,13.6z" />
	<path fill="#3F2E27" d="M461,4.3c0.5,1.3-2.3,1.7-2,3.5c-0.5-0.2-1.1-0.4-1.6-0.6C458.1,5.6,459.3,4.6,461,4.3z" />
	<path fill="#8F8670" d="M453.8,23.1c-1.6-0.3-5.1,1.1-5.1-1.4C450.2,23.1,452.9,21.3,453.8,23.1z" />
	<path fill="#BCB399" d="M453.1,10.9c-0.4,0.4-0.9,0.7-1.4,1.2c0-1,0-1.8,0-2.6c0.4,0,0.9,0,1.3,0C453.1,9.9,453.1,10.4,453.1,10.9   C453.1,10.9,453.1,10.9,453.1,10.9z" />
	<path fill="#C5B59A" d="M453,13.7c0.3,0,0.6,0,0.8-0.1c0,0.8,0,1.6,0,2.4c-0.2,0-0.3,0-0.5,0C453.3,15.3,453.1,14.5,453,13.7z" />
	<path fill="#F6D9C7" d="M454.6,19.5c0.7,0.5,0.7,0.9,0,1.4C454.6,20.4,454.6,20,454.6,19.5z" />
	<path fill="#61584C" d="M453.1,10.9c0-0.5-0.1-0.9-0.1-1.4C453.9,10,453.9,10,453.1,10.9z" />
	<path fill="#201A18" d="M468.9,9.4c-0.2-0.5-0.4-1-0.6-1.5C469,8.3,469,8.8,468.9,9.4z" />
	<path fill="#4E483C" d="M438.8,13.8c-0.3,0.2-0.5,0.5-0.8,0.7C438.3,14.3,438.5,14,438.8,13.8z" />
	<path fill="#FFF0A7" d="M481.2,106.6c0.2-1.3,0.3-2.6,0.5-4.1c1.8,0.5,3,1.6,4.4,2.6c-2.5,13.7-2.9,28.1,2.2,41.4   c0.6,9.5,8.3,16,5.2,26.4c-8.7,5.5-19.1,10.2-29.6,7.9c-6.5,0.4-15.6-9.4-17.2-7.3c1.4,18.5,25.5,17.9,38.1,15.9   c-1.5,2.6-3,5.1-4.5,7.7c-18.6,2.1-37.4-1.7-56-3.4c0.7-3.9-2.9-7.9-1.4-11.4c3.7-0.6,7.6-1.3,10-3.9c-0.4-0.8-1-1.7-1.4-2.3   c-55.2,0.5-16.4-49.5-4.9-75.9c1.8-0.6,3.1-1,5.1-0.7C401.1,165.4,481.3,175,481.2,106.6z" />
	<path fill="#F6D9C7" d="M402.1,142.9c-20.1,28.7,8.1,29.7-3.9,58.6c-0.2,0-0.4,0.1-0.6,0.3c-0.2-0.1-0.4-0.1-0.6-0.2   c-0.2-0.3-0.4-0.6-0.6-0.8c0.8-6.2,1.5-12.7-4.6-16.3c0-5.2,2.9-8.8-4.2-9.3c2.1-10.9-2.8-23.6,3.9-33.7c1,0.4,2,0.8,3.1,1.2   c1.5-2,0.8-4,0.4-6.1c-2.3-11.1-2.4-22,2.7-32.2c8.3-4.6,18.6-2.6,27.7-3.9c-0.9,2.2-2,4-3.2,6c-2.9-0.1-7.5-1.5-9.3-0.1   c2.9,1.3,5.3,0.8,8.2,1.7c-5.2,8.5-10,17-13.9,26.1c-0.5-0.2-1.4-0.2-1.6-0.6c-0.9-2-3-2.6-4.3-4.1c-1.6-1.8-3.3,2-0.6,1.7   c0.6,2,0.5,4.5,2.2,5.8c0,0,0,0,0,0c0.1,1.7,0.1,3.5,0.2,5.2l-0.2-0.1l0.2,0.1C402.3,142.1,402,142.4,402.1,142.9z M408.5,105.7   c-0.5-0.3-0.8-0.7-1.2,0c0.2,0.2,0.5,0.4,0.7,0.7C408.1,106.2,408.3,106,408.5,105.7z M403.7,105.3c0,0.2,0,0.3,0,0.5   C405,105.8,405,105.3,403.7,105.3z" />
	<path fill="#E0C6B6" d="M397.5,104.3c-5.1,10.2-5,21.1-2.7,32.2c0.5,2.2,1.2,4.2-0.4,6.1c-1.1-0.4-2.1-0.8-3.1-1.2   c-6.7,10.1-1.8,22.8-3.9,33.7c-1.8,0.1-3.5,0.3-5.4-0.4c-1.3-10.3,0.8-20.4,4.1-30.1C389.1,131.6,383.6,112.3,397.5,104.3z" />
	<path fill="#0E0C09" d="M408.4,131.8c2.6-8.8,8.2-15.9,12.5-23.9c-2.9-0.9-5.3-0.3-8.2-1.7c1.8-1.4,6.4,0,9.3,0.1   c1.2-2,2.3-3.7,3.2-6c-0.7-0.1-1.2-0.2-1.6-0.3c0.7-1.3,2.1-0.3,3,0.1c-4.1,11.8-12,21.9-17.4,33.1   C408.3,133.1,408.5,132.3,408.4,131.8z" />
	<path fill="#4D4B3D" d="M429.4,105.2c0.7-1.8,1.5-3.7,2.3-5.7c-1-0.1-1.7-0.1-2.3-0.2c1.9-1.4,3.2-0.6,3.6,1.5   c-0.9,1.8-1.7,3.5-2.6,5.3C430,105.8,429.7,105.5,429.4,105.2z" />
	<path fill="#907C72" d="M433.7,65.4c-0.5-1.8-1.2-3.5-1.3-5.8c1.7,1.9,2.4,3.7,1.9,5.8C434.1,65.5,433.9,65.5,433.7,65.4z" />
	<path fill="#0D0C0B" d="M459.6,87.2c-2.3,1.1-4.5,1.1-6.8,0C455.1,87.3,457.4,87.3,459.6,87.2z" />
	<path fill="#DCC2B1" d="M449,85.7c-1.9,0.2-3.5-0.3-4.5-2C446,84.3,447.5,85,449,85.7z" />
	<path fill="#0D0C0B" d="M453.1,85.8c1.7,0,3.3-0.1,5-0.1C456.9,87,454.7,86.6,453.1,85.8z" />
	<path fill="#0D0C0B" d="M460.5,86.6c-0.3,0.2-0.6,0.4-0.9,0.6C459.9,87,460.2,86.8,460.5,86.6z" />
	<path fill="#4D4B3D" d="M433.7,98.8c-0.2,0.2-0.5,0.5-0.7,0.7C433.2,99.2,433.4,99,433.7,98.8z" />
	<path fill="#EBDCB8" d="M437.9,544.4c0.5-0.4,1-0.8,1.5-1.3c0.3,8.7,0.2,17.1-2.2,25.6c2.3,1.1,4.4,2.1,6.6,3.1   c1.2-1.3,2.5-2.6,3.9-4.1c6.7-0.1,3.8,8.6,5.1,12.8c10.1,1,20.4,3.9,29.8-2c0.1-1.5,0.1-2.9,0.2-4.3c0.7,3,0.9,5.9,1.1,9.1   c-0.3,0.3-0.7,0.7-1.2,1c-10.7,1-22.7,3.5-32.6-1.8c-2.7-3.1,0.1-7-1.8-9.8c-0.5,0.7-0.9,1.3-1.6,2.3c-1.3,0.1-2.9,0.2-4.3,0.4   c-3.7-2.5-7-2.7-10.8-4.7c2.2-2.8,2-6.1,2.2-9.5c0.4-5,2.6-10.1,2.2-15.2C436.6,545.2,437.8,545.6,437.9,544.4z" />
	<path fill="#D8CCAB" d="M437.9,544.4c0,1.2-1.3,0.8-2,1.5c-0.1,1.7-0.1,3.5-0.2,5.4c-1.9-3.7,0.6-8.1-0.7-11.7   c0.7-1.4,1.1-3.1,2.6-4.1c0.3,0.2,0.6,0.5,0.9,0.7c-0.5,1.7-0.8,3,0.7,4.3c-0.5,1.6-2.5,1.9-2.9,3.9   C436.9,544.4,437.4,544.4,437.9,544.4z" />
	<path fill="#0D0B09" d="M468.2,146.2c-1,0.5-1.9,0.9-2.9,1.4c-0.3-0.2-0.5-0.5-0.8-0.7c12.8-10,11.5-28.6,15.9-42.8   c0.3,0.8-0.3,1.9,0.8,2.5C480.1,120.3,477.5,135.6,468.2,146.2z" />
	<path fill="#0F0E0C" d="M488.3,146.5c-4.3-12.5-5.6-26.4-2.2-39.2c0.3,0,0.6,0,0.9,0c-2,12.9,0.9,25.4,2.2,38.2   C488.9,145.9,488.6,146.2,488.3,146.5z" />
	<path fill="#282624" d="M445.8,451.7c0.1,1.3,0.2,2.6-0.6,3.8C445.3,454.2,444.7,452.8,445.8,451.7z" />
	<path fill="#B8A58B" d="M434.4,31c1.3,1.7-0.3,3.5-0.2,5.6c-0.5-0.3-1-0.5-0.9-0.6c0.3-1.8-0.7-3.3-1.2-4.9   C432.5,30,433.6,31.1,434.4,31z" />
	<path fill="#B7A496" d="M431.3,52.2c-0.2,1.4-0.4,2.6-0.6,3.8c-1.7-1.6-1.5-3.4-1.1-5.5C430.2,51.2,430.7,51.7,431.3,52.2z" />
	<path fill="#AA9B81" d="M433.4,39.4c-0.5-0.2-1-0.3-1.7-0.6c0-0.6,0-1.2,0-2.4c0.9,1.1,1.5,1.7,2.1,2.4   C433.6,39,433.5,39.2,433.4,39.4z" />
	<path fill="#DCC2B1" d="M433.5,41.6c0,1.3,0.6,2.8-0.6,3.8C432.7,44,432.8,42.8,433.5,41.6z" />
	<path fill="#878075" d="M431,49.6c-0.2-0.4-0.4-0.7-0.6-1.1C431.2,48.1,431.5,48.9,431,49.6z" />
	<path fill="#DCC2B1" d="M432.9,45.4c0,0.3,0,0.6,0,0.8C432.4,45.9,432.4,45.6,432.9,45.4z" />
	<path fill="#443C37" d="M449.6,424.3c1.1,1.7,0.4,3.6,0.6,5.5c-0.6-0.1-0.9-0.1-1.2-0.2C449.6,427.9,449.4,426.1,449.6,424.3z" />
	<path fill="#F0D4C3" d="M373.3,200.9c-1-1.6-2.1-3.2-3.1-4.9c0-2,0.1-3.9,2-5.1c2.6,2.8,5.3,6.6,4.3,10.6   C375.4,201.4,374.3,201.1,373.3,200.9z" />
	<path fill="#A6DDE7" d="M376.6,192.4c0.5-1.2,1-2.4,1.5-3.6c1.7-0.2,3.3,0,5,0.1c0,0.2,0,0.4,0,0.6c-2.6,1.7-3.4,4.5-4.4,7.2   c-0.3,0-0.5,0-0.8,0C376.3,195.7,376.8,193.9,376.6,192.4z" />
	<path fill="#A5D8E3" d="M379.9,188.6c-0.6,0-1.1,0.1-1.7,0.1c1-2.6,5.1-0.1,3.4-6.1c1.7-1.1,1.1-2.9,2.2-4.2   c-0.1,1.3,0.5,2.3,1.5,3c0,0.5,0,0.9,0,1.4c0.8,1.2,0.9,1.2,1.9,0.2c0.5,0.1,0.9,0.2,0.7,1.1c-0.9,0.1-1.9,0.3-3,0.5   c-0.3,0.6-0.7,1.3-1,1.9c0.3,0.5,0.5,0.9,0.7,1.4C383,188.1,381.2,187.5,379.9,188.6z" />
	<path fill="#393939" d="M390.4,175.9c3.6-0.3,1,6.3,1.3,8.6c-0.2,0.2-0.4,0.5-0.6,0.7c-3.1-1.4,0.6-4.1-1.5-5.8l0.1,0.1   c0.3-0.6,0.6-1.2,0.9-1.8c-0.7-0.4-1.2-0.7-1.8-1C389.3,176.4,389.9,176.2,390.4,175.9z" />
	<path fill="#CEDADB" d="M388.8,176.6c0.6,0.3,1.1,0.6,1.8,1c-0.3,0.6-0.6,1.2-0.9,1.8c-1.9-0.8-3.9-1.4-5.8,0.1   c-0.2-1,0-1.8,0.1-2.9C385.7,176.6,387.3,176.6,388.8,176.6z" />
	<path fill="#1F2020" d="M376.6,192.4c0.2,1.6-0.3,3.3,1.5,4.3c0.3,2.1,0.5,4.1-0.4,6.2c-0.3,0.1-0.6,0.2-1,0.3c0-0.5,1-1.2-0.2-1.6   c0.5-2.3,0.1-4.4-1.2-6.4C375.8,194.3,376.2,193.3,376.6,192.4z" />
	<path fill="#6B5B55" d="M373.6,192.4c-1.2-1.2-3.5-3.8-2.2-5.4c0.3,0.2,0.6,0.3,0.9,0.5c0.1,1.7,0.8,4.1,2.8,4.1   C375.1,192.7,374.3,192.4,373.6,192.4z" />
	<path fill="#3B2F2C" d="M376.6,186.8c-0.8-0.8-1.6-1.6-1.3-3c1.4,0.2,1.7,1.2,2.1,2.1C377.1,186.2,376.8,186.5,376.6,186.8z" />
	<path fill="#3A2E2B" d="M379.5,179.5c0.3,0.4,0.5,0.9,0.8,1.3c-0.3,0.3-0.6,0.6-0.9,1C379.1,181.1,378,179.5,379.5,179.5z" />
	<path fill="#6B5B55" d="M374.4,193.9c-0.2-0.3-0.4-0.6-0.5-0.9C374.1,193.3,374.3,193.6,374.4,193.9z" />
	<path fill="#A2D3DD" d="M375.3,231.9c-1.6-0.5-3.3-1-4.9-1.5c-1-6.6,0.6-12.8,2.1-19.2c0.5-0.1,0.9-0.1,1.4-0.2   c1.2,0.8,2.4-0.1,3.6,0.1C373.7,216.9,373.8,225.5,375.3,231.9z" />
	<path fill="#DAC1B1" d="M363,207.5c-2.2-3.5-4.8-9.7-1.1-12.8c0.8,6.1,5.8,9.8,6.9,15.7c-0.5,1.2-1.4,1.3-2.5,1.1   C365.2,210.3,364.1,208.9,363,207.5z" />
	<path fill="#EED2C1" d="M370,198.9c1.7,2.6,5.6,5.4,2.8,8.7c-0.4,0.1-0.9,0.2-1.6,0.4c-1.3-1.3-2.6-2.7-3.8-4.1   c0-0.6,0-1.2-0.8-1.3l0,0c0.1-0.6,0.1-1.2-0.6-1.5c-0.1-0.8,0.4-1.8-0.9-2.1l0,0c0.5-1.4,2.1-1.6,3.1-2.4l0,0   C368.7,197.4,369.3,198.2,370,198.9z" />
	<path fill="#A3D5DF" d="M376.7,203.2c0.3-0.1,0.7-0.2,1-0.3c0.9-2,0.7-4.1,0.4-6.2c0.3,0,0.5,0,0.8,0c3.7,7.2-1,6.9-1.5,12.9   c-1.2,0.3-2.4,0.5-3.6,0.8c-0.2-0.2-0.5-0.4-0.8-0.7C375,207.7,376.8,206.1,376.7,203.2z" />
	<path fill="#B3A497" d="M366.6,214.7c0-0.3,0-0.7-0.1-1.1c1-0.3,2-0.7,3-1.1c0.8,0.2,0.6,1,0.8,1.5   C370.3,216.4,367.8,215.1,366.6,214.7L366.6,214.7z" />
	<path fill="#050303" d="M373.8,210.4c1.2-0.3,2.4-0.5,3.6-0.8c0,0,0.1,0.3,0.1,0.3c1.3,0.8,2.9,0.5,4.4,0.6   c-0.1,0.2-0.3,0.3-0.4,0.5c-2.6-0.2-5.2,0.7-7.7,0C373.9,210.8,373.8,210.6,373.8,210.4z" />
	<path fill="#84786D" d="M370.3,214.1c-0.1-0.6,0-1.3-0.8-1.5c0.6-1.7,0.6-1.7,0.3-4.1c0.7,0.3,1.2,0.6,1.6,1.3   C371.1,211.2,370.8,212.6,370.3,214.1z" />
	<path fill="#100F0F" d="M368.9,228.4c0-1.7,0-3.3,0-5C369.7,225.2,369.7,226.5,368.9,228.4z" />
	<path fill="#55514B" d="M375,203.6c-0.3-0.3-0.4-0.5,0-0.8C375.3,203,375.1,203.3,375,203.6z" />
	<path fill="#D3BBAB" d="M366.5,202.5c0.8,0.1,0.8,0.7,0.8,1.3c-0.3-0.2-0.6-0.4-0.9-0.6C366.5,203,366.5,202.7,366.5,202.5z" />
	<path fill="#D3BBAB" d="M367.4,203.9c0.2,0.2,0.4,0.5,0.7,0.7C367.8,204.4,367.6,204.1,367.4,203.9z" />
	<path fill="#080706" d="M365.2,554.6c3,1,8.3,0.7,9.3,4.3c-6.1-0.2-12.9-0.1-18.7-1.3c0.2-0.7,0.5-1.4,0.7-2   C359.1,554,362.3,554.8,365.2,554.6z" />
	<path fill="#C7BD9F" d="M355.8,557.6c1.8,1.1,4,0.8,5.8,2c-2.5,0.4-6.3-1-7.9,1.5c-0.3,0-0.5,0-0.8,0c0.5-1.3,1.1-2.5,1.6-3.7   C355.1,557.5,355.4,557.6,355.8,557.6z" />
	<path fill="#CAC2A2" d="M365.2,554.6c-2.9,0.2-6.1-0.6-8.7,1c-0.3-1.4,1-2,1.5-3c0.2,0,0.5,0,0.7,0c0.2,1.6,1.8,1.7,2.9,1   C362.8,553.8,364.1,554,365.2,554.6z" />
	<path fill="#4D4B43" d="M358.7,552.5c-0.2,0-0.5,0-0.7,0c0.5-0.5,0.9-1,1.4-1.5l0.1,0.1C359.4,551.7,359.4,552.3,358.7,552.5z" />
	<path fill="#DAC2B2" d="M372.3,187.4c-0.3-0.2-0.6-0.3-0.9-0.5c-1.3,1.1,0.5,2.8,0.8,4.1c-1.9,1.2-2,3.1-2,5.1   c-2.7-2.6-4.2-6.1-3.3-10c2.1-0.1,4.1-0.3,6.2-0.3C372.8,186.3,372.6,186.9,372.3,187.4z M367.7,188.6c0.1-0.1,0.1-0.1,0.2-0.2   c-0.1-0.2-0.2-0.2-0.4,0C367.6,188.5,367.6,188.5,367.7,188.6z" />
	<path fill="#D3BBAB" d="M368.2,196.5c-1.1,0.8-2.6,1-3.1,2.4c-0.8-1.1-1.3-2.3-1.4-3.7c0.6-0.6,1.4-1.1,2.1-1.5   c0.3,0,0.5,0.1,0.8,0.1C367.1,194.7,367.7,195.6,368.2,196.5z" />
	<path fill="#9E9084" d="M364.5,194.6c-0.3,0.2-0.5,0.4-0.8,0.7c-1-0.8-0.6-1.9-0.6-3.4c0.5-0.3,1.2-0.8,2-1.4   c0.3,0.4,0.6,0.9,1,1.5c-0.9,0.6-1.6,1.2-2.4,1.8C364,194.2,364.2,194.4,364.5,194.6z" />
	<path fill="#D3BBAB" d="M365.1,198.9c1.2,0.3,0.8,1.3,0.8,2.1C365.2,200.5,365.1,199.7,365.1,198.9z" />
	<path fill="#D3BBAB" d="M365.9,201c0.8,0.3,0.7,0.9,0.6,1.5C365.8,202.2,365.9,201.6,365.9,201z" />
	<path fill="#D3BBAB" d="M370,198.9c-0.2-0.2-0.3-0.4-0.5-0.6C369.6,198.5,369.8,198.7,370,198.9z" />
	<path fill="#D3BBAB" d="M369.4,198.2c-0.2-0.2-0.4-0.5-0.6-0.7C369,197.7,369.2,197.9,369.4,198.2z" />
	<path fill="#D3BBAB" d="M368.8,197.4c-0.2-0.3-0.4-0.6-0.6-0.8C368.4,196.8,368.6,197.1,368.8,197.4z" />
	<path fill="#9E9084" d="M366.6,193.8c-0.3,0-0.5-0.1-0.8-0.1c0.2-0.1,0.4-0.3,0.6-0.4C366.5,193.5,366.5,193.6,366.6,193.8z" />
	<path fill="#C0EDF7" d="M393.2,213.1c-2.5,5.7-0.6,14.2-4,19c-2.6-5,1-12-0.3-17.6c1.3-1.5-1.8-2.3,0.1-4.1c4.7,0.2,0.3-6.1,3-8   C391.2,206.3,391.7,209.6,393.2,213.1z" />
	<path fill="#E6CCBB" d="M396.9,203c2.8,3.2-2.8,4-4.4,1.6C393.4,203.1,395.2,201.3,396.9,203z" />
	<path fill="#494642" d="M396.2,202.4c-1.9-0.4-2.8,0.9-3.7,2.2c-0.2,0-0.5,0-0.7,0c0.1-0.7,0.1-1.4,0.2-2.1   c0.6-0.5,1.3-1.1,1.9-1.6c0.4,1.2,1.4,0.7,2.3,0.9l0,0C396.2,202,396.2,202.2,396.2,202.4z" />
	<path fill="#CBC0B1" d="M393,207.3c0.7,0,0.8,0.8,1.1,1.3C393.2,209.5,392.3,208,393,207.3z" />
	<path fill="#494642" d="M396.9,203c-0.2-0.2-0.5-0.4-0.7-0.6C396.4,202.6,396.7,202.8,396.9,203z" />
	<path fill="#494642" d="M397.6,201.8c0.2-0.2,0.3-0.3,0.6-0.3c0,0.2-0.1,0.4-0.1,0.6C397.9,202,397.8,201.9,397.6,201.8z" />
	<path fill="#494642" d="M396.3,200.8c0.2,0.3,0.4,0.6,0.6,0.8c-0.3,0-0.5,0-0.8,0.1c0,0,0,0,0,0   C396.2,201.4,396.3,201.1,396.3,200.8z" />
	<path fill="#C1EEF8" d="M377.4,211.1c1.4,0,2.7-0.1,4.1-0.1c0.3,0.2,0.6,0.5,0.9,0.7c-0.1,0.3-0.2,0.5-0.3,0.8c0.4,0,0.8,0,1.2,0   c-0.1-0.3-0.1-0.5-0.2-0.8c0.4-0.2,0.7-0.3,1.3-0.6c-0.2,6.1-1.2,12.4-2.8,18c-0.3,0.1-0.7,0.1-1.3,0.3c1,0.8,1.5,1.4,2,2.5   c-2.4,0-4.8,0.3-7.2,0.1C373.8,225.5,373.7,216.9,377.4,211.1z" />
	<path fill="#ABDFEA" d="M382.5,211.7c-0.3-0.2-0.6-0.5-0.9-0.7c0.1-0.2,0.3-0.3,0.4-0.5c2.3,0,4.7-0.4,7,0c-0.7,0.9-0.9,1.7,0,2.6   c-0.4,0.1-0.8,0.2-1.7,0.4c0.7,0.5,1.2,0.8,1.6,1.1c1.2,5.5-2.4,12.6,0.3,17.6c-0.9,1.3-2.1,0.1-3.2-0.1c-1.2-0.1-2.4-0.1-3.6-0.1   c-0.2-0.4-0.5-0.9-0.7-1.3c0.9-5.9,2.7-12.8,2.8-19.5C383.6,211.5,383.3,211.8,382.5,211.7z M387.5,227.2c-1.3-0.6-2.1-0.6-2.8,0.2   c-0.1,1.1,0.5,1.5,1.7,1.6C386.6,228.5,387,227.9,387.5,227.2z" />
	<path fill="#A2D3DD" d="M382.4,231.9c1.7,0.1,3.6-0.2,5.1,0.8c-3.8-0.4-8,0.8-11.6-0.6C378.1,232,380.3,231.9,382.4,231.9z" />
	<path fill="#443C37" d="M448.6,431.5c-0.1,0.8-0.3,1.6-0.4,2.4C448.1,433.1,447.7,432.2,448.6,431.5z" />
	<path fill="#DED0B2" d="M474.9,17.9c-0.2,0.5-0.5,1-0.7,1.5c-0.3-0.3-0.6-0.7-1.1-1.2c-0.7,0.7-1.2,1.2-1.7,1.7   c-0.2-1-0.9-2-0.3-3.2c-0.3-0.8-0.8-1.4,0.1-2.3c0.2,0.1,0.4,0.2,0.7,0.1C472.8,15.6,473.9,16.7,474.9,17.9z" />
	<path fill="#524E43" d="M466,12.2c1.2,0.5,1.5-1.8,2.3,0.4c-0.4,1.8-0.8,3.5-2.3,4.8c0-0.7,0-1.5,0-2.2c0.6-0.2,0.9-0.6,0.2-1.3   c-0.1,0.5-0.1,0.9-0.2,1.3c-0.5,0.5-1,0.9-1.5,1.4c0-0.5,0-0.9-0.1-1.4C465.1,14.2,465.5,13.2,466,12.2z" />
	<path fill="#BFB298" d="M466,12.2c-0.5,1-1,1.9-1.5,2.9c-0.3,0-0.5,0-0.8,0c0.3-1.4,0.6-2.8,0.9-4.3   C465.8,10.7,466.1,11.3,466,12.2z" />
	<path fill="#D9C5A9" d="M467.5,15.8c0.3-1.1,0.6-2.1,0.9-3.2c0.1-0.1,0.3-0.1,0.4-0.1c0.3,0.2,0.6,0.4,0.8,0.7   c0,0.2,0.1,0.4,0.2,0.6c-0.2,0.7-0.9,1.4-0.9,2.1l0,0c-0.4,0.3-0.9,0.7-1.3,1C467.5,16.5,467.5,16.1,467.5,15.8z" />
	<path fill="#524E43" d="M469.6,13.1c-0.3-0.2-0.6-0.4-0.8-0.7C469.3,12.4,469.6,12.6,469.6,13.1z" />
	<path fill="#39352D" d="M471.8,14.5c-0.2,0-0.5,0-0.7-0.1c0-0.2,0-0.4-0.1-0.5C471.3,14,471.6,14.3,471.8,14.5z" />
	<path fill="#42312A" d="M501.3,284.6c0.1-0.2,0.1-0.4,0.1-0.7c0.8-0.6,0.7-1.4,0.6-2.2c0.3-0.2,0.5-0.5,0.8-0.7   c0,0.6,0,1.3,0.7,1.5c-0.6,2.6-0.7,5.4-2.8,8c-0.3-0.7,0-1.6-0.2-2.3c0.1-0.2,0.2-0.3,0.2-0.6C501.8,286.7,501.4,285.6,501.3,284.6   z" />
	<path fill="#CFBC9E" d="M433.6,26.7c0.7,1.5,1.4,0,2.1-0.1c0,1.3,0.3,2.6-0.7,3.6c0-0.5,0-1.1,0-1.6c-0.7-0.2-1.4-0.4-2.1-0.6   c0-0.5-0.1-0.9-0.1-1.4C433.2,26.7,433.4,26.7,433.6,26.7z" />
	<path fill="#B8A58B" d="M435.1,30.3c-0.2,0.3-0.4,0.5-0.7,0.8C434.6,30.8,434.8,30.5,435.1,30.3z" />
	<path fill="#0B0A09" d="M358.7,552.5c0.7-0.2,0.7-0.8,0.7-1.4c0.6,0,1.2-0.1,1.4-0.8c5.3-0.1,14.1-0.5,16.5,5.1   c-4.9,0.1-10.7-4.2-15.7-1.9C360.5,554.3,358.9,554.2,358.7,552.5z" />
	<path fill="#37312E" d="M398.1,407.7c1.2,2.7,1.1,6.2-0.4,9.3C396.3,416.1,395,407.1,398.1,407.7z" />
	<path fill="#3D3631" d="M392.6,395.5c-0.1-2.2-1.7-4.5-0.1-6.6c1.6,3.5,1.7,7.1,3.1,10.8c-1.7,0-1.4-1.6-2.3-2.1   C393.1,396.9,392.9,396.2,392.6,395.5z" />
	<path fill="#25201D" d="M395.7,425.2c-1-2.1-0.4-4.5,1.5-7.3C398.9,419.9,397,422.9,395.7,425.2z" />
	<path fill="#211715" d="M395.5,401.3c0.2-0.1,0.3-0.3,0.7-0.6c1.1,1.2,2.3,2.5,3.7,4c-1,0.1-1.6,0.1-2.2,0.2   c-0.9-0.9-1.7-1.8-2.1-3C395.6,401.7,395.6,401.5,395.5,401.3z" />
	<path fill="#4D3F3B" d="M394.4,455.5c0.8,1.2,0,1.8-0.7,2.6C393,456.8,393,456.8,394.4,455.5z" />
	<path fill="#1D0201" d="M402.9,407.6c-0.3-1.2-0.3-1.2,1.2-1.4C405.2,407.1,403.6,407.5,402.9,407.6z" />
	<path fill="#4E3A36" d="M391.5,462.8c-0.2,0.5-0.4,0.9-0.9,2.1c-0.2-1.6-0.6-1.7,0.4-2.5C391.2,462.6,391.4,462.7,391.5,462.8z" />
	<path fill="#E1C7B6" d="M395.5,401.9c0.2,0.5,0.5,1,0.7,1.5C395.4,403.2,395.4,402.5,395.5,401.9z" />
	<path fill="#1E1817" d="M406.8,407c-0.4,0-0.8-0.1-1.1-0.1c0-0.1,0-0.3,0-0.4c0.4-0.1,0.8-0.1,1.2-0.2   C406.8,406.5,406.8,406.8,406.8,407z" />
	<path fill="#060404" d="M424.3,193.8c18.6,1.8,37.4,5.6,56,3.4c1.5-2.6,3-5.2,4.5-7.7c0.3,0.3,0.6,0.7,0.9,1   c-17.8,28.9,12.2,38.8,17.6,65.5c5.5,0.7,12.2,1.2,17.5-0.2c0.3,0.3,0.6,0.6,0.9,0.9c-0.1,0.4-0.2,0.8-0.3,1.2   c-6.4-0.5-13.4,1.4-19.6-0.8c-2.2-1.1-17.8-1.2-18.4,1.7c-0.3,0.2-0.5,0.4-0.8,0.6c-0.3-0.3-0.5-0.6-0.8-0.8   c0.6-0.9,1.1-1.8,1.7-2.7c5.7-2,11.2,0.5,17-1.5c-6.5-18.4-27.5-33.7-21.4-54.7c-20.8,0.1-41.6-1.9-62.1-5.2   C419.2,193.2,421.9,194,424.3,193.8z" />
	<path fill="#E1C8B7" d="M444.5,232.8c0,4.5,0.3,9-1.2,13.3c-1.9,0.6-3.1-14.2-1.7-14.9C441.2,233.2,443.1,233,444.5,232.8z" />
	<path fill="#DCC2B1" d="M441.6,232c0.5-3.5-1.4-8,1.5-10.7c1.7,1.8,1.7,4.7,2.8,7c-1.1,0.5-2.1-1.4-3.4,0c0.8,0.6,1.6,1.3,2.4,1.9   C443.6,231.5,443.7,231.6,441.6,232z" />
	<path fill="#1A1715" d="M474.1,243.6c0.1,0.2,0,0.4-0.2,0.6c-0.3-0.3-0.5-0.6-0.8-0.9c1.5-4.7-0.1-9.8,1.6-14.6   c2,3.5,1.9,7.6-0.1,13.3C473.9,242.4,473.9,243,474.1,243.6z" />
	<path fill="#2B211E" d="M441.6,232c2.2-0.4,2.1-0.4,3.4-1.8c-0.8-0.6-1.6-1.2-2.4-1.9c1.3-1.4,2.3,0.5,3.4,0c0.5,0.6,1,1.2,1.7,2   c-1.2,0.9-2.2,1.7-3.2,2.5C443.5,232.8,441.8,233.4,441.6,232z" />
	<path fill="#4E3E3A" d="M455.3,202.4c2,1.4,4.2,2.6,6,5c-2.9-0.1-4.4-2.9-6.7-4.3C454.8,202.9,455,202.7,455.3,202.4z" />
	<path fill="#362F2C" d="M471.7,247.1c0.6,1.5-0.5,2.4-0.9,3.9C469.9,249,470,248.8,471.7,247.1z" />
	<path fill="#816D65" d="M455.3,202.4c-0.2,0.2-0.5,0.5-0.7,0.7c-1-0.4-1.7-1.2-2.3-2.3C453.9,201.3,453.9,201.2,455.3,202.4z" />
	<path fill="#2D211E" d="M465.9,213.4c-0.6-1-1.1-1.7-1.4-2.4C465.5,209.6,467.2,212,465.9,213.4z" />
	<path fill="#454540" d="M465.7,257.6c0.8,1.1,0.4,1.8-0.7,2.4C464.5,258.4,464.5,258.4,465.7,257.6z" />
	<path fill="#7E6B63" d="M467.9,254.8c-0.7-0.5-0.1-1.2,0.2-1.7C469.3,252.9,468.8,254.7,467.9,254.8z" />
	<path fill="#59514B" d="M445.1,200.5c1.2-0.6,1.6,0,2,0.8C446,202,445.7,201.2,445.1,200.5z" />
	<path fill="#45403C" d="M473.9,237.6c0.1,1.1,0.5,2.2-0.5,3.1C473.2,239.6,473.3,238.5,473.9,237.6z" />
	<path fill="#45403C" d="M473.1,243.3c0.3,0.3,0.5,0.6,0.8,0.9C472.8,245.4,472.6,244.1,473.1,243.3z" />
	<path fill="#45403C" d="M474.1,243.6c-0.1-0.6-0.2-1.2,0.5-1.6C474.4,242.6,474.3,243.1,474.1,243.6z" />
	<path fill="#181210" d="M492.7,268.7c2.7-2.3,4.8-3.4,8.6-4.7c-0.2,2.3-4.1,2.8-5.7,4.3c-0.7,0.4-1.6,0.8-1.5,1.8   c-1.3,5.8-4.5,11.5-5.3,17.2c1-0.4,1.9-0.8,2.4-1c3.4-5.4,3.6-12.6,9.4-15.9c1.8,0.1,2.7-1.4,4.2-2.3c-0.2,3.3-3.2,6-4.1,9.3   c-0.2,0-0.5,0.1-0.7,0.1c-0.6-2.5,1.2-3.4,1.1-6c-4.3,4.5-5.6,9.8-8.9,15.7c-1.2,0.6-3,1.6-5,2.6c-0.3-0.9-0.7-1.7-1-2.7   c-1.2,0.4-2.4,0.6-3.7,0.4c-0.2-0.5-0.3-1-0.4-1.4c2.6-5.7,1-13.2,5.7-18c-1.5,5.9-3.1,12-4.1,18c2.1-0.2,2.9-1.9,4.2-2.6   c1.8-4.2,3-8.3,4.2-12.7c0,0-0.1,0.1-0.1,0.1C492.2,270.2,492.5,269.5,492.7,268.7z" />
	<path fill="#100B0A" d="M487.8,268.9c0-0.3,0-0.5,0-0.8c1.4-1.2,2.6-2.5,4.4-3.3c-1.1-0.8-1.7-0.4-2.2,0.3   c-2.3,0.4-4.6,0.8-6.5,2.2c-0.3-0.3-0.5-0.6-0.8-0.8c0.6-1.9,2.1-2.7,3.4-4.2c3.3-0.9,7.1,1.8,10.3-0.1c0.3,0.3,0.5,0.5,0.8,0.8   C494,264.9,491.3,267.7,487.8,268.9z" />
	<path fill="#F08A6A" d="M483.4,279.5c0.1,2.3-0.4,4.5-1.4,6.6c-0.1-0.4-0.2-0.9-0.4-1.6c-2.3,1-4.7,0.4-6.9,1.5   c-0.1-0.4-0.2-0.8-0.4-1.5c-1.9,0-3.6,0-5.4,0c3.6-1.6,8.8-2.1,12.8-2.1C483.2,281.7,482.1,280,483.4,279.5z" />
	<path fill="#3F251D" d="M422.7,276.1c-6.6,0-13-0.7-19.5-1.9c6.7-1.2,13.6,0.7,20.3,1.1C423.2,275.5,423,275.8,422.7,276.1z" />
	<path fill="#BB7158" d="M468.9,284.5c1.8,0,3.5,0,5.4,0c0.2,0.6,0.3,1.1,0.4,1.5c-2.8-0.5-7.2,1.2-9.1-1   C466.6,284.2,467.8,284.7,468.9,284.5z" />
	<path fill="#5C3E34" d="M499.9,275.9c0.2,4.1,0.1,8.2,0.2,12.2c0.2,0.2,0.3,0.4,0.5,0.6c0,0.3,0,0.7,0,1c-0.4,0-0.9,0-1.4,0.1   C499.8,285,497.3,280.3,499.9,275.9z" />
	<path fill="#130E0C" d="M498.6,281.8c1.1,2.5,0.4,5.3,0.6,8.1c0.6,0,1-0.1,1.4-0.1c0.2,1.2,0.2,2.5-1.6,2.7   C497.3,289.2,498.6,285.3,498.6,281.8z" />
	<path fill="#8F5341" d="M411.3,278.9c-0.6-0.3-1.2-0.7-1.9-1c3.2-0.7,8.1,0.2,11.1,1.7C417.4,280,414.5,278.8,411.3,278.9z" />
	<path fill="#553328" d="M452.4,304.8c2.5,1.7-2.7,5.8-5,5.6C448.9,308.2,451.4,307.2,452.4,304.8z" />
	<path fill="#482D26" d="M462.5,281c3.4-0.1,6.9-0.3,10.3,0.2c-3.3,1.1-6.9,0.3-10.4,0.5C462.5,281.5,462.5,281.2,462.5,281z" />
	<path fill="#5B2D25" d="M422.7,276.1c0.3-0.3,0.6-0.5,0.9-0.8c2.3,0.3,4.7,0.5,7,0.8C428.6,277.3,425,276.8,422.7,276.1z" />
	<path fill="#4E382C" d="M411.4,284.5c0-0.2,0-0.5,0.1-0.8c2.2,0.4,5.1-0.6,6.8,0.8C416,284.5,413.7,284.5,411.4,284.5z" />
	<path fill="#4C2F27" d="M446.3,279.2c-0.6-1.1,0.2-1.9,0.5-3.2C447.5,278,447.5,278,446.3,279.2z" />
	<path fill="#A2624F" d="M431.4,296.3c0.5,0.7,1,1.4,1.6,2.2C431.6,298.7,431.6,298.7,431.4,296.3z" />
	<path fill="#B56E57" d="M445.4,296.8c0.9,1.3,0.5,2-0.6,2.7C444.3,298.4,444.3,297.5,445.4,296.8z" />
	<path fill="#987766" d="M499.2,273.7c0.5-0.6,1.1-1.2,1.9-2.2c0.2,1.5-0.4,2.3-1,3C499.8,274.3,499.5,274,499.2,273.7z" />
	<path fill="#392B24" d="M446.3,288.6c-0.8-1-0.7-2,0-3C446.9,286.6,447,287.6,446.3,288.6z" />
	<path fill="#927F7B" d="M489.8,265.1c0.5-0.7,1.2-1.1,2.2-0.3c-0.6,0.3-1.1,0.6-1.5,0.8C490.3,265.4,490.1,265.3,489.8,265.1z" />
	<path fill="#975243" d="M462.5,281c0,0.2-0.1,0.5,0,0.7c-0.6,0-1.1,0-1.7,0c0-0.2,0-0.3,0-0.5C461.3,281.1,461.9,281.1,462.5,281z" />
	<path fill="#6F5D55" d="M385.1,420.9c0.5,1,0.6,1.8-0.2,2.7C383.7,422.3,383.7,422.3,385.1,420.9z" />
	<path fill="#57403A" d="M392.1,382.2c0.7,1.6,0,2.2-0.9,1.6C391.4,383.3,391.7,382.9,392.1,382.2z" />
	<path fill="#39312D" d="M391.5,379.1c0.4,0.5,1.1,0.9,0.3,1.2C391,380.3,391.4,379.8,391.5,379.1z" />
	<path fill="#322C29" d="M420,247.1c-2.4-4.2-3.1-10.4-1.5-15.1c0.2,5.1,1.7,10,2.2,15C420.4,247,420.2,247.1,420,247.1z" />
	<path fill="#32201A" d="M420.8,193.8c-1.3,0-2.6-0.1-3.7,0.7c-3.7-0.4-7.3-0.9-10.8-2.1c0-0.2,0-0.5,0-0.7   C411.1,192.1,416.1,192.5,420.8,193.8z" />
	<path fill="#594E48" d="M418.4,232c-1.1,1.8-0.6,3.9-0.8,5.9c-0.7-3.1-1.5-7.6,0.5-10C418.8,229.4,418.5,230.7,418.4,232z" />
	<path fill="#7F7269" d="M420,247.1c0.2-0.1,0.4-0.1,0.6-0.1c0.6,2.5,2.3,4.7,1.9,7.4C420.9,252.5,420.4,251.1,420,247.1z" />
	<path fill="#212421" d="M418.2,214.8c0.5,1.3,0.8,2.3-0.1,3.2C417.3,217,417.4,216.1,418.2,214.8z" />
	<path fill="#7D5F57" d="M424.8,258.4c-1,0.6-1.4,0-1.6-0.8C424.2,257,424.4,257.8,424.8,258.4z" />
	<path fill="#020101" d="M425.8,263c-0.1-0.4-0.2-0.8-0.3-1.2C426.6,261.4,426.9,262.8,425.8,263C425.7,262.9,425.8,263,425.8,263z" />
	<path fill="#2E2D2A" d="M417.3,223.1c-0.2-0.6-0.5-1,0.2-1.2C417.7,222.5,418,222.8,417.3,223.1z" />
	<path fill="#EBDA8F" d="M420.8,193.8c-5.6-2.1-12.6-0.5-17.7-3.5c-0.4-4.3-0.7-8.4-1.1-12.9c4.3,2.2,9.9,7.3,14.4,4.6   c-25.7-5.8-23-24.4-10.1-42.2c-8,27.9-3.6,34.6,25.2,36.4c0.4,0.7,0.9,1.6,1.4,2.3c-0.1,0.3-0.1,0.5-0.1,0.5   c-1.8,0.2-2.6,1.9-4.2,2.5c0.5-1.6-1.6-1.6-1.3,0c-1.1,0.2-2.1,0.4-3.2,0.7c-0.7-1.5-4.3-1.9-4.6,0c1.2,0.1,2.3,0.1,3.4,0.2   c-1.4,3.5,2.2,7.5,1.4,11.4C423.1,193.8,421.9,193.8,420.8,193.8z" />
	<path fill="#D9BEAE" d="M400.6,132c-0.2-1.3,0.2-2.5-1.5-2.3c1.6-3,6,4.4,8,4.4c-0.7,1.5-0.5,3.6-2.2,4.3c-0.3-0.7-0.6-1.5-1-2.5   c-0.5,0.4-0.8,0.7-1.1,1c-1.1-0.7-1.4-1.8-1.4-3C402.8,133.5,401.9,131.4,400.6,132z" />
	<path fill="#333027" d="M404.8,138.4c2.2-1.4,1.7-4.7,3.6-6.6c0.1,0.6,0,1.3,0.8,1.6c-1.3,2.7-2.3,5.7-4.2,8.1   C404.9,140.4,404.9,139.4,404.8,138.4z" />
	<path fill="#D9BEAE" d="M402.8,142.1c-0.1-1.7-0.1-3.5-0.2-5.2C403.5,138.6,403.8,140.3,402.8,142.1z" />
	<path fill="#32201A" d="M404.1,191c0.5,0.2,1.1,0.4,1.6,0.6C405,191.7,404.4,191.7,404.1,191z" />
	<path fill="#D9BEAE" d="M402.1,142.9c0-0.6,0.2-0.9,0.8-0.8C402.6,142.4,402.3,142.7,402.1,142.9z" />
	<path fill="#221A18" d="M463.8,398.9c1.2-3.2,3.6-5.3,5.4-7.8C471.3,392.4,466,399.8,463.8,398.9z" />
	<path fill="#483F3A" d="M455.3,412.1c0.9-1.9,0.9-4.1,2.3-5.8c0.4,0.1,0.8,0.2,1.1,0.3c-0.7,2.5-1.5,5-2.2,7.5   c-0.4-0.2-0.8-0.4-1.2-0.6C455.4,412.9,455.3,412.5,455.3,412.1z" />
	<path fill="#3B3934" d="M458.9,420.8c-2.1-0.7-3-2.2-3-4.4c0.1-0.2,0.2-0.3,0.2-0.6c0.4,0,0.9,0,1.3-0.1   C457.2,417.6,459.9,419.4,458.9,420.8z" />
	<path fill="#413E39" d="M471.1,417.1c0.2,1.1,0,2-1.3,2.8c-0.1-2.9-0.6-6.1,0.7-8.3C470.6,413.4,469.8,415.6,471.1,417.1z" />
	<path fill="#514842" d="M454.6,443.1c2.2-0.1,1.2,2.5,1.4,4c-0.6-0.2-1-0.3-1.4-0.5C454.6,445.4,454.6,444.3,454.6,443.1z" />
	<path fill="#090606" d="M471.1,417.1c-1.2-1.5-0.4-3.7-0.6-5.5C472.3,412.1,470.7,415.5,471.1,417.1z" />
	<path fill="#64524D" d="M468.7,428.9c-0.7-1.6-0.3-2.3,0.7-2.8C470,427.2,470,428.1,468.7,428.9z" />
	<path fill="#8A766C" d="M456.4,458.8c-1.3,0.1-1.5-1.9,0-1.8C456.4,457.6,456.9,458.4,456.4,458.8z" />
	<path fill="#E1C7B6" d="M457.4,415.8c-0.4,0-0.9,0-1.3,0.1c-0.3-0.8-1.1-1.5-0.7-2.5c0.4,0.2,0.8,0.4,1.2,0.6   C456.9,414.6,457.1,415.2,457.4,415.8z" />
	<path fill="#69655E" d="M455.3,450.7c0.6,0.8,0.7,1.1-0.2,1.5C454.5,451.6,454.5,451.3,455.3,450.7z" />
	<path fill="#321A18" d="M463,401.1c-0.3,0.4-0.6,0.8-1,1.3C461.3,401.2,461.7,400.9,463,401.1z" />
	<path fill="#A08177" d="M458,403.9c0.7-0.5,1.2-0.8,1.9-1.4C459.4,403.9,459.4,403.9,458,403.9z" />
	<path fill="#E1C7B6" d="M458,418.1c-0.2-0.6-0.3-1.1-0.5-1.7C458.3,416.8,458.2,417.4,458,418.1z" />
	<path fill="#443C37" d="M450.6,431.1c1.9,1.8,2.6,4.1,2.2,7.6C450.4,437.8,448.7,432.5,450.6,431.1z" />
	<path fill="#F6D9C7" d="M455.4,413.4c-0.5,1.4,2,3-0.4,3.4c-1.8-0.7-1-2.9-1.1-4.4c0.6-0.1,1-0.2,1.4-0.3   C455.3,412.5,455.4,412.9,455.4,413.4z" />
	<path fill="#251B19" d="M446.1,521.1c-0.7-1.2-0.3-2.3,0-3.5C447.7,517.3,447.2,520.6,446.1,521.1z" />
	<path fill="#382F2B" d="M447.3,514.1c0.1-0.8,0.1-1.6,0.2-2.9c1.4,1.1,1,1.8,0.5,3.1C447.7,514.2,447.5,514.2,447.3,514.1z" />
	<path fill="#52433E" d="M449.2,509.2c-0.4-1.7-0.6-1.8-0.2-3C450.1,506.9,449.5,507.7,449.2,509.2z" />
	<path fill="#4E3B36" d="M449.7,504.2c0.1-1.3,0.5-1.3,0.5,0C450,504.2,449.8,504.2,449.7,504.2z" />
	<path fill="#0A0807" d="M464,550.3c1.1,0.4,3.1,0.5,2.6,2.1c-4.2,1.2-8.5,1.3-12.8,1.8c-0.4-0.3-0.9-0.7-1.3-1   C454.2,549.1,460.3,550.7,464,550.3z" />
	<path fill="#13100E" d="M462.4,554c3.7,0.2,3.7,0.2,5.7,1.7c-2.5,2.1-7.5,2.3-10.7,1.5c0.2-0.6,0.4-1.2,0.7-1.8   C459.6,554.9,461,554.5,462.4,554z" />
	<path fill="#171210" d="M471,560.1c-1.8,1.7-7.9,3.3-8.6,0C463.6,557.9,469,558.7,471,560.1z" />
	<path fill="#AFC2A9" d="M462.4,554c-1.4,0.4-2.9,0.9-4.3,1.3c-1.1-1.6-3.2,0.4-4.4-1.2c2.9-0.3,5.8-0.6,8.7-0.8   C462.5,553.6,462.5,553.8,462.4,554z" />
	<path fill="#140C0A" d="M353.7,561.2c4-3.4,11.7-1.1,16.3,0.8c-1,2.6-5.3,0.2-7.6,0.6C359.7,560.9,356,563.4,353.7,561.2z" />
	<path fill="#161311" d="M354.3,566.2c-0.2-0.4-0.4-0.8-0.5-1.1c2-2.4,8.9-1.2,11.6,0.2C362.6,568,357.9,566.5,354.3,566.2z" />
	<path fill="#1D1815" d="M362,571.1c-2.2,1.5-6.8,1.6-8.1-1.1C355.5,567.3,360.4,568.7,362,571.1z" />
	<path fill="#E1C7B6" d="M508.6,147c11.6,20,25.4,38.9,42.5,54.4c-0.7,2.6-2.7,2.6-4.7,2.6c-5.6,11.5-13.6,48.2-24,52.6l-0.2-0.2   c8.4-17.2,14.7-35.2,21.1-53.3c-8.7-9.1-17.3-18.8-24.9-29.1c-5.1-6.7-8.7-15.4-16.2-19.7c-1,1-2,1.9-2.9,2.9   c-0.3-1.6-0.7-3.1-2.5-3.8c1.3-2.6,3.1-3.8,5.6-5.5c-3.3-1-3.8,1.6-6,2.6c0.7-2,1.7-3.8,2.8-5.7C504,142.5,505.4,142.8,508.6,147   c-0.4,0.1-0.9,0.2-1.5,0.3C507.7,148.7,508.7,148.3,508.6,147z M505.2,147.5c-1-0.5-1.2-0.4-1.3,0.5   C504.3,148.6,504.7,148,505.2,147.5z" />
	<path fill="#090706" d="M498.5,150.6c-1.6,2.8-4,5-5.1,8.1c0.7,1.1,1.3,2.1,2,3.3c2.4-2.7,4.1-5.3,6.8-7.7c1.2,0.7,2.3,1.4,3.5,2.1   c-0.3,0.3-0.5,0.7-0.8,1c-0.7-0.4-1.4-0.8-2-1.1c-2.3,2.6-4.4,5-6.5,7.5c3.6,12-5.2,18-10.6,26.7c-1.8-3.4-7.7,1.1-11.4,0.4   c-0.4-0.3-0.9-0.6-1.7-1.2c10.6,0.3,18.9-6.3,21-16.7c3.1-10.4-4.6-16.9-5.2-26.4c0.3-0.3,0.6-0.6,0.9-1c1.4,2.8,2,6.4,4,8.7   c1.5-1.5,2.4-3.7,4.5-4.5C497.9,150,498.2,150.3,498.5,150.6z" />
	<path fill="#DCC3B2" d="M487.8,268.9c0.7-0.3,1.4-0.5,2.1-0.8c0.4,2.1,1.6,1.3,2.8,0.7c-0.2,0.7-0.5,1.5-0.7,2.2   c-0.1-0.2-0.1-0.4-0.2-0.6c-0.1,0.1-0.2,0.2-0.4,0.3c0.2,0.1,0.4,0.1,0.6,0.2c-1.3,4.4-2.4,8.5-4.2,12.7c-1.3,0.7-2.1,2.4-4.2,2.6   C484.9,280.3,485.7,274.4,487.8,268.9z" />
	<path fill="#D6BDAD" d="M495.6,275.9c-1.1,3.8-2.6,6.7-4.4,10.4c-0.6,0.2-1.4,0.6-2.4,1c0.9-5.7,4-11.4,5.3-17.2   C495.8,271.8,493.9,274.5,495.6,275.9z" />
	<path fill="#171312" d="M554.9,208.7c0-3,0-5.8,0-8.7C558.5,198.2,557.4,208.4,554.9,208.7z" />
	<path fill="#282220" d="M494,118.6c1.5,2.8,0.6,5.1,0,7.5C491.5,124.4,492.3,121.2,494,118.6z" />
	<path fill="#0D1111" d="M513.4,260.5c1.2-1,1.2-1,2.1,0C514.6,260.8,514.1,261,513.4,260.5z" />
	<path fill="#47332F" d="M497.1,262.9c-0.3-0.3-0.5-0.5-0.8-0.8c0.6-0.5,1.2-1,1.8-1.6C498.6,261.9,498.6,261.9,497.1,262.9z" />
	<path fill="#BFA899" d="M500,281.7c0-1.4,0-2.8-0.1-4.2c0.2,0,0.5-0.1,0.7-0.1C500.7,278.9,500.9,280.4,500,281.7z" />
	<path fill="#3D201E" d="M491.7,112.8c-1.7,0.5-2.7,0.8-3.8,0C489,112,490.1,112.2,491.7,112.8z" />
	<path fill="#30100F" d="M510.7,260.6c-1,0.7-1.4,0.9-2.4,0.1C509.2,259.7,509.8,259.8,510.7,260.6z" />
	<path fill="#2F2724" d="M504.4,260.5c0.8-1,1.4-1,2-0.1C505.9,261.2,505.3,260.9,504.4,260.5z" />
	<path fill="#BFA899" d="M501.3,284.6c0,1,0.4,2.2-0.6,3C500.8,286.5,500.2,285.4,501.3,284.6z" />
	<path fill="#9B8076" d="M555.5,211.3c-0.5,0.2-0.8,0.3-1,0.5C553.8,210.6,554.8,210.2,555.5,211.3z" />
	<path fill="#AB9488" d="M514.7,265.9c-0.3-0.4-0.6-0.8-1-1.3c0.8,0,1.3,0,2.1,0C515.4,265.1,515.1,265.4,514.7,265.9z" />
	<path fill="#80685F" d="M541.9,246.7c0-0.5,0-1,0-1.4c0.1,0,0.3,0,0.4,0c0,0.5,0,1,0,1.4C542.2,246.7,542.1,246.7,541.9,246.7z" />
	<path fill="#BFA899" d="M502.1,281.7c0,0.8,0.1,1.6-0.6,2.2C501.4,283.1,501.1,282.2,502.1,281.7z" />
	<path fill="#7B6C64" d="M498.2,258.9c0.3,0.7,0.2,1.1-0.6,1.2C496.8,260,497.6,258.8,498.2,258.9z" />
	<path fill="#A3897F" d="M498,134.1c-0.3-0.2-0.5-0.3-0.6-0.4c0.2-0.2,0.4-0.5,0.6-0.7C498.7,133.3,498.3,133.6,498,134.1z" />
	<path fill="#E1C7B6" d="M521.3,257.8c0.1-0.4,0.2-0.8,0.3-1.2c0.2-0.1,0.3-0.2,0.5-0.3l0.2,0.2   C522.3,257.2,522.2,257.9,521.3,257.8z" />
	<path fill="#8A6B63" d="M553,214.5c0.1,0.8,0.2,1.1,0.2,1.4c-0.2,0-0.4,0-0.5,0C552.7,215.6,552.8,215.3,553,214.5z" />
	<path fill="#BFA899" d="M500.6,288.7c-0.2-0.2-0.3-0.4-0.5-0.6c0.1,0,0.3,0,0.4,0C500.6,288.3,500.6,288.5,500.6,288.7z" />
	<path fill="#573428" d="M456,303.5c0.8-0.7,1.5-1.4,2.7-2.6C458.5,303.1,458.7,303.1,456,303.5z" />
	<path fill="#0C0A08" d="M464.6,146.9c0.3,0.2,0.5,0.5,0.8,0.7c-19.4,14.8-45.4-0.9-40.3-25.1c1.4,11.4,4.9,30,20.3,27.9   c0.2-0.6,0.4-1.2,0.6-1.9c0.4,0.9,0.7,1.9,1.1,2.9C453.1,151.4,458.7,148.2,464.6,146.9z" />
	<path fill="#211D19" d="M426.4,130.4c-2.5-8.3-0.6-17.3,3-25.2c0.3,0.3,0.6,0.6,0.8,0.9C427.4,114,426,122.1,426.4,130.4z" />
	<path fill="#2C2624" d="M451.7,150.7c-1.4,1.2-2.9,0.4-4.5,0.6c-0.4-1-0.8-1.9-1.1-2.9c0.7-2.4-0.7-4.2-1.7-6.3   c1.5,0.1,1.5,0.1,2.7,1.9c0.4-0.2,0.7-0.5,1.1-0.7c0.3,0.3,0.6,0.6,0.9,0.9c-0.6,2-2,3.8-1.6,6.3   C448.9,150.7,450.3,150.7,451.7,150.7z" />
	<path fill="#291C1A" d="M454.6,113.9c1-1.1,2.1-2.3,3.2-3.6c1.3-0.2,2.8-0.3,4.9,0.3c-4.7-0.6-6.4,7-9,4   C454,114.4,454.3,114.1,454.6,113.9z" />
	<path fill="#492623" d="M441.2,109.6c-0.4,0-0.7-0.1-1.1-0.1c-0.7-1.1-1.8-0.6-2.7-0.6l-0.2-0.1c0-0.2,0-0.5,0-0.7   c3.5,0.5,6.8,0.4,10,2.3c-1.4,0.9-2.5,0.2-3.5-0.2C443.2,109.1,442.1,109.6,441.2,109.6z" />
	<path fill="#544A45" d="M470.1,103.4c-0.3-2.4-0.2-4.6,1.5-7C472.1,99.3,471.6,101.4,470.1,103.4z" />
	<path fill="#473733" d="M454.6,113.9c-0.3,0.2-0.6,0.5-0.8,0.7c-1.4,0-2.4-0.6-3-2.3C452.6,112.1,452.8,113.8,454.6,113.9z" />
	<path fill="#2A2825" d="M467.1,111c-0.7-1.3-0.5-2,0.7-2.6C468.5,109.4,468,110.1,467.1,111z" />
	<path fill="#A48F84" d="M469.6,105.2c-0.4,0.9-0.7,1.4-1,2.2C467,106.6,467.9,105.3,469.6,105.2z" />
	<path fill="#63514A" d="M449,144.3c-0.3-0.3-0.6-0.6-0.9-0.9c0.3-0.8,0.7-1.5,1.9-1.4C450.3,143,449.6,143.7,449,144.3z" />
	<path fill="#3D3632" d="M441.2,109.6c0.9,0,1.9-0.5,2.6,0.7C442.9,110,442.1,109.8,441.2,109.6z" />
	<path fill="#3D3632" d="M437.6,108.9c0.9,0,1.9-0.5,2.5,0.6C439.3,109.6,438.4,109.5,437.6,108.9z" />
	<path fill="#3D3632" d="M441.8,108.7c-0.3-0.1-0.5-0.2-0.8-0.2C441.3,108.5,441.5,108.6,441.8,108.7z" />
	<path fill="#3D3632" d="M437.2,108.1c0,0.2,0,0.5,0,0.7c-0.2-0.2-0.4-0.3-0.6-0.5C436.9,108.2,437.1,108.2,437.2,108.1z" />
	<path fill="#BFA193" d="M448.2,75.1c0.2-1.3-1.1-1.9-1.6-2.9c5.7,0.8,11.6-0.3,17.3,0c-0.9,0.9-2.5,0.6-2.9,2.1   C457.4,77,452.3,75.5,448.2,75.1z" />
	<path fill="#181413" d="M443.7,49.8c-1.5,0.1-2-1.2-2.7-2.1c-2.3,1.5-2.3,1.5-3.9,0.9c0.3-0.6,0.7-1.1,1-1.7c0,0-0.1,0.1-0.1,0.1   c1.6-0.2,3-0.2,2.9-2.3c3-0.5,5.4,0.6,7.2,3c0,0.4,0,0.9,0,1.3c-0.6-0.1-1.3-0.2-2.1-0.3c-0.4,0.3-0.9,0.7-1.5,1.1   C444.2,49.8,444,49.8,443.7,49.8z" />
	<path fill="#160C0B" d="M463.9,72.1c-5.8-0.3-11.6,0.9-17.3,0c-0.1-0.2-0.1-0.4-0.2-0.6c6.2-2.9,11.8-1,18.2-0.8   C464.3,71.4,464.1,71.8,463.9,72.1z" />
	<path fill="#1E1917" d="M463.1,48.5c-0.3-0.2-0.5-0.5-1-0.9c-0.7,0.5-1.4,1-2.1,1.5c-0.3-0.2-0.6-0.4-0.9-0.6   c1.9-3.4,4.2-5.6,8.4-4.5c0,0.2,0,0.4,0,0.6c-0.4,0.1-0.8,0.2-1.6,0.4c2.2,1.1,3.9,1.4,5.2,3.2c-1.2-0.3-2.5-0.6-3.9-1   c-0.2,0.3-0.6,0.7-1,1.1C465.2,48.4,464.1,48.4,463.1,48.5z" />
	<path fill="#181A18" d="M448.2,75.1c4.1,0.4,9.3,1.9,12.9-0.9c0.2,0.1,0.4,0.1,0.6,0.1c0,0.4,0,0.8,0,1.2c-3,2.4-6.4,3-10,1.6   c-0.5-0.9-1.3-0.7-2.1-0.6c-0.2-0.1-0.4-0.2-0.7-0.2c-0.2-0.3-0.5-0.5-0.7-0.8C448.1,75.4,448.1,75.2,448.2,75.1z" />
	<path fill="#47332F" d="M469.5,40.5c-4.5-0.8-8.6,2-12.9,1.1c3.6-3.6,10.4-2.7,15.1-1.7C471.2,40.7,470.2,40.2,469.5,40.5z" />
	<path fill="#403532" d="M449.3,42.6c-4.4-1.6-8.7-2.3-13.9-1.3C439.2,37.3,447.7,39,449.3,42.6z" />
	<path fill="#423C33" d="M460.9,18.7c0.2,0,0.5,0,0.7,0c0.1,0.2,0.1,0.5,0.2,0.7c0,0,0,0,0,0c-1.3,1.2-2.7,2.4-4,3.6   c-0.7-0.3-1.3-0.5-1.8-0.7c-0.1-0.2-0.1-0.5,0-0.7c1.7-0.4,1.4-2.2,1.4-3.6c0.2,0,0.5,0,0.6,0c0.1,0.4,0.2,0.7,0.5,1.4   c0.8-2.4,1.2-4,1.9-6.2c1,0.7,0.4,1.7,0.4,2.6c-0.8,1-0.7,2.2-1.3,3.4C460.3,19,460.6,18.8,460.9,18.7z" />
	<path fill="#39322F" d="M456,62.9c1.3-1.9,2.6-0.6,3.8-0.3c1.2-0.8-0.8-2.4,0.7-2.7C463.7,62.5,458.5,65.9,456,62.9z" />
	<path fill="#AFA78F" d="M467.5,15.8c0,0.3,0.1,0.7,0.1,1c-1,2.1-1,2.1-0.9,3.8c0.9-1.5,1.7-2.7,2.4-3.8c1.3,1-1.2,2.6-0.7,4.1   c-1.3,0.2-2.6,0-3.7-0.7c0-0.2,0-0.5,0-0.7c0.9-0.4,1.5-1.1,1.5-2.2c0,0,0,0,0,0C466.5,16.8,467,16.3,467.5,15.8z" />
	<path fill="#B4A89A" d="M471.1,48.3c-1.3-1.9-3-2.1-5.2-3.2c0.8-0.2,1.2-0.3,1.6-0.4c1.4,0.5,2.8,0.9,4.3,1.4   C471.6,46.8,472.4,47.8,471.1,48.3z" />
	<path fill="#533D37" d="M440.9,44.6c-0.1,1.6-0.2,1.7-1.6,2.1c-0.7-0.7-0.8-0.7-1.3,0.2l0.1-0.1c-0.4,0-0.9-0.1-1.4-0.1   C437.4,45,437.5,44.9,440.9,44.6z" />
	<path fill="#85736B" d="M449.5,63.5c-0.9-2.5-0.8-3.1,1.4-4.3c-0.2,1.3-0.4,2.4-0.6,3.5C450,62.9,449.7,63.2,449.5,63.5z" />
	<path fill="#AD998E" d="M456.3,48.2c0.9,1.7,0.3,3,0.3,4.5C455.2,52.5,454.9,48.7,456.3,48.2z" />
	<path fill="#6D5A53" d="M463.1,48.5c1.1,0,2.1,0,3.2,0c0.1,0.6,0.1,1.1,0.2,1.9c-0.7,0-1.4,0.1-2.5,0.1c0.4-0.5,0.6-0.7,0.8-1   C464.2,49.1,463.7,48.8,463.1,48.5z" />
	<path fill="#7A6A62" d="M456.9,46.9c-0.5-1.8,0.2-2.8,1.7-4C458.8,44.8,458,45.8,456.9,46.9z" />
	<path fill="#644E48" d="M471.7,46c-1.4-0.5-2.8-0.9-4.3-1.4c0-0.2,0-0.4,0-0.6C469.1,44.5,470.9,44.3,471.7,46z" />
	<path fill="#1B0A09" d="M453.7,63.9c-0.6,0-1.3,0-2.2,0c0.3-0.7,0.5-1.2,0.6-1.6C453.2,62.3,453.9,62.6,453.7,63.9z" />
	<path fill="#554C41" d="M464.6,19.5c0,0.2,0,0.5,0,0.7c-1.1,0.1-2.1,0.3-2.8-0.7l0,0c0.9-0.2,0.8-0.8,0.7-1.5l0,0   c0.3,0,0.5,0,0.8,0.1c0.1,0.2,0.3,0.4,0.4,0.6c0.2,0.1,0.3,0.2,0.3,0.3C464.2,19.2,464.4,19.3,464.6,19.5z" />
	<path fill="#4D4439" d="M444.3,19.6c0.3-0.1,0.7-0.1,1-0.2c1.1,0.7,1.5,1.8,2,2.9c-0.4,0-0.9,0-1.3-0.2   C445.5,21.4,444.9,20.5,444.3,19.6z" />
	<path fill="#4A302C" d="M443.7,49.8c0.3,0,0.5,0,0.8,0c0.4,0.3,0.7,0.5,1.2,0.9c-1.7,0.7-1.7,0.7-3.7,0.2   C442.6,50.5,443.1,50.1,443.7,49.8z" />
	<path fill="#433A36" d="M448,48.9c0-0.4,0-0.9,0-1.3c0.4-0.1,0.9-0.3,1.5-0.5c0.3,0.4,0.6,0.8,0.9,1.2   C449.7,49.3,449.1,48,448,48.9z" />
	<path fill="#7D756C" d="M469.5,40.5c0.7-0.3,1.7,0.2,2.2-0.7c0.5,0.2,0.9,0.4,2,1C471.8,41.3,470.6,41.3,469.5,40.5z" />
	<path fill="#262523" d="M473.3,36.7c0.2,0.6,0.3,1.2,0.5,1.9c-0.4,0.1-0.6,0.2-0.8,0.2c-0.8-0.6-0.5-1.3-0.4-2.1   C472.8,36.8,473.1,36.7,473.3,36.7z" />
	<path fill="#CBB3A5" d="M456.1,54c0.6,0.9,0.6,1.1-0.3,1.3C455.2,54.9,455.6,54.5,456.1,54z" />
	<path fill="#4B4743" d="M449.5,63.5c0.3-0.3,0.5-0.5,0.8-0.8C451.6,63.5,450.1,64.7,449.5,63.5z" />
	<path fill="#5B4743" d="M456.7,59.8c-0.3,1.1-0.3,1.1-1.2,1.4C455.1,60.4,455.5,60,456.7,59.8z" />
	<path fill="#BFA193" d="M449.5,76.5c0.8,0,1.6-0.2,2.1,0.6C450.8,77.2,450,77.4,449.5,76.5z" />
	<path fill="#725F5C" d="M473.3,36.7c-0.3,0-0.5,0-0.8,0c0.1-0.6,0.1-1.3,0.2-1.9c0.1,0,0.3,0,0.4,0   C473.2,35.5,473.3,36.1,473.3,36.7z" />
	<path fill="#BFA193" d="M461.6,75.5c0-0.4,0-0.8,0-1.2C462.6,74.5,462.6,75.6,461.6,75.5z" />
	<path fill="#BFA193" d="M448.1,75.6c0.2,0.3,0.5,0.5,0.7,0.8C448.3,76.3,448.1,76.1,448.1,75.6z" />
	<path fill="#CFBC9E" d="M435.8,26.6c0.2-0.2,0.4-0.5,0.7-0.7C436.2,26.2,436,26.4,435.8,26.6z" />
	<path fill="#8F8670" d="M446.6,22.4c0.2,0,0.5,0,0.7,0C447.1,23,446.9,22.9,446.6,22.4z" />
	<path fill="#9B8378" d="M442.2,101.8c0.7-1.1,1.6-0.7,1,0.4C443,102.1,442.7,102,442.2,101.8z" />
	<path fill="#39352D" d="M469.1,16.8c-0.7,1.2-1.5,2.3-2.4,3.8c-0.2-1.6,0.3-3.7,2.2-4.8C469,16.1,469,16.4,469.1,16.8z" />
	<path fill="#39352D" d="M468.9,15.8c0-0.2,0-0.5,0.2-0.6c0.1,0.1,0.3,0.3,0.4,0.4C469.3,15.7,469.1,15.7,468.9,15.8z" />
	<path fill="#F6D9C7" d="M476.2,32.5c0.3-0.7,0.6-1.5,1-2.7C477.8,31.5,476.9,31.9,476.2,32.5C476.2,32.4,476.2,32.5,476.2,32.5z" />
	<path fill="#746656" d="M436.6,24.4c-0.3-0.5-0.5-0.9-0.8-1.4c0.6-0.8,1,0.1,1.4,0.1C437.3,23.6,437.3,24.2,436.6,24.4z" />
	<path fill="#312A24" d="M458.1,18c-0.7,0-1.3,0-2,0c0-1.3,0-2.6,0-4.8c0.5,1.3,0.7,1.8,1,2.3c0.7-0.5,0.2-2.1,1.7-1.7   c0,0.1,0,0.3,0,0.4C457.8,15.4,458.5,16.8,458.1,18z" />
	<path fill="#E1CCAF" d="M458.8,14.3c-0.2-0.7,0.8-1.3,1.1-1.9c0.2,0.3,0.4,0.5,0.6,0.8c-0.3,1.1-0.7,2.2-1,3.3c-0.2,0-0.3,0-0.5,0   C458.9,15.8,458.8,15.1,458.8,14.3z" />
	<path fill="#0C0B09" d="M456.1,18.1c0.5,0,0.9,0,1.4,0c-0.1,1.3,0.2,3.1-1.4,3.6C456,20.4,456,19.2,456.1,18.1z" />
	<path fill="#0A0707" d="M443.7,14.4c-0.5-0.2-0.7-0.4,0-0.6C443.7,14,443.7,14.2,443.7,14.4z" />
	<path fill="#837564" d="M460.9,18.7c-0.3,0.1-0.6,0.3-1.3,0.5c0.5-1.3,0.5-2.5,1.3-3.4c0.2,0.2,0.5,0.4,0.7,0.6   C461.4,17.2,461.1,18,460.9,18.7z" />
	<path fill="#A2947E" d="M463.2,18.1c-0.3,0-0.5,0-0.8-0.1c0.1-1.1,0.6-2.1,1.3-2.9c0.3,0,0.5,0,0.8,0c0,0.2,0,0.5,0.1,0.7   c-0.7,0.3-0.7,0.9-0.7,1.6c0,0,0,0,0,0C463.7,17.6,463.5,17.8,463.2,18.1z" />
	<path fill="#A2947E" d="M462.5,18c0.1,0.6,0.1,1.3-0.7,1.5c-0.1-0.2-0.1-0.5-0.2-0.7C461.9,18.5,462.2,18.2,462.5,18z" />
	<path fill="#EBDA8F" d="M493.5,172.9c-2,10.4-10.4,17-21,16.7c0.8,0.6,1.3,0.9,1.7,1.2c-1.6,0.1-3.2-0.3-4.7-0.7   c0.2-0.3,0.5-0.7,1-1.5c-3.2,1.4-8.6-2.4-9.4-0.7c0.7,0.5,1.4,1,2.1,1.6c-8-0.2-16.6-7.7-16.6-15.9c1.4-2.2,11.1,7.8,17.2,7.3   C474.4,183.1,484.8,178.4,493.5,172.9z M459.3,186.8c-0.3-0.1-0.6-0.3-0.8,0.1C458.8,187.2,459,187.4,459.3,186.8z" />
	<path fill="#352E1F" d="M463.2,189.4c-0.7-0.5-1.4-1.1-2.1-1.6c0.8-1.8,6.2,2,9.4,0.7c-0.6,0.9-0.8,1.2-1,1.5   C467.4,190.5,465.3,189.9,463.2,189.4z" />
	<path fill="#1B271C" d="M422.8,182.4c-1.1-0.1-2.3-0.1-3.4-0.2c0.4-1.9,3.9-1.5,4.6,0C423.7,182.2,423.3,182.3,422.8,182.4z" />
	<path fill="#8D875C" d="M427.2,181.5c-0.4-1.7,1.8-1.7,1.3,0C428.1,181.5,427.7,181.5,427.2,181.5z" />
	<path fill="#F6D9C7" d="M468.2,146.2c0.2-0.2,0.5-0.4,0.7-0.6C468.7,145.8,468.5,146,468.2,146.2z" />
	<path fill="#F6D9C7" d="M469.1,145.5c0.2-0.2,0.4-0.4,0.6-0.6C469.5,145.2,469.3,145.3,469.1,145.5z" />
	<path fill="#1E1C1C" d="M396.3,200.8c0,0.3-0.1,0.6-0.1,0.9c-0.8-0.1-1.8,0.3-2.3-0.9c0.3-1.3,0.6-2.6,1-4   c-0.7-0.1-1.1-0.2-1.6-0.3c0-0.2,0-0.5,0-0.7c0.6,0,1.1,0,1.7,0c0.6-1.6,0.5-3-0.3-4.4c0.3-2.7-3-3.8-3.7-6.3   c0.2-0.2,0.4-0.5,0.6-0.7C397.9,188.1,397.1,194.7,396.3,200.8z" />
	<path fill="#65504A" d="M400.6,132c1.3-0.5,2.2,1.5,0.7,1.9C401,133.3,400.8,132.6,400.6,132z" />
	<path fill="#6B665E" d="M399,129.7c1.3,0,1.3,0,1.4,1.4C399.5,131.2,399,130.7,399,129.7z" />
	<path fill="#B09D90" d="M408.5,105.7c-0.2,0.3-0.3,0.5-0.4,0.6c-0.2-0.2-0.5-0.4-0.7-0.7C407.7,105,408,105.4,408.5,105.7z" />
	<path fill="#56423E" d="M403.7,105.3c1.3,0,1.3,0.5,0,0.5C403.7,105.6,403.7,105.5,403.7,105.3z" />
	<path fill="#C1EFF9" d="M393.3,196.6c0.4,0.1,0.9,0.2,1.6,0.3c-0.3,1.4-0.6,2.7-1,4c-3.3,1.7-2.9,4.7-2.8,8   c-4.6,0.1-9.1,0.2-13.7,0.3c0.6-5.8,5-5,1.4-12.4c1-2.7,1.7-5.5,4.4-7.2c1.4,0.1,2.8-0.2,4.3,0.5   C387.3,195.2,387,197.3,393.3,196.6z M386.1,202.8c-1.1,5.5,5.7,5.1,4.2-0.1c-0.7-0.6-1.3-1.1-2-1.8   C387.5,201.5,386.9,202.1,386.1,202.8z" />
	<path fill="#A4D5E0" d="M389.8,196.6c-3.8-0.5-1.8-4.1-2.3-6.7c-1.5-0.7-3-0.3-4.3-0.5c0-0.2,0-0.4,0-0.6c2.1,0.1,3.8-0.5,4.9-2.4   c1.3,0.2,3,1.6,3.8,0.1c0.7,0.7,1.3,1.5,2,2.2c-0.5,0.2-0.9,0.4-1.4,0.6c0-0.3,0.1-0.7,0.1-1.2c-0.9,0-1.8,0-3.3,0   c1.4,0.6,2.1,0.9,2.8,1.2c-1.5,1.6-0.7,3.8-0.8,5.8C390.3,195.4,389.5,195.4,389.8,196.6z" />
	<path fill="#131213" d="M386.8,188.2c-2.1,1.1-4.6,0.6-6.9,0.5C381.8,187.3,384.5,188.1,386.8,188.2z" />
	<path fill="#BCEBF5" d="M386.8,188.2c-0.7-0.1-1.4-0.1-2.1-0.2c-0.2-0.4-0.4-0.8-0.7-1.4c0.3-0.6,0.7-1.3,1-1.9   c1.1-0.2,2.1-0.3,3-0.5c0.4-1.6-1.7-0.9-2.6-1.3c0-0.5,0-0.9,0-1.4c1.4-0.2,2.9-0.4,4.3-0.7c0.1,1.6-0.3,3.5,1.4,4.3   c0.2,0.5,0.5,0.9,0.7,1.4c-0.8,1.5-2.5,0.1-3.8-0.1C387.6,187.1,387.2,187.6,386.8,188.2z" />
	<path fill="#1D1C1D" d="M389.7,180.9c-1.4,0.2-2.9,0.4-4.3,0.7c-0.5-0.6-1.5-1-1.4-2c1.9-1.5,3.8-0.9,5.8-0.1l-0.1-0.1   C389.7,179.9,389.7,180.4,389.7,180.9z" />
	<path fill="#694F51" d="M385.3,182.9c0.6,0.1,1.3,0.1,1.9,0.2C386.2,184.1,386.1,184.1,385.3,182.9z" />
	<path fill="#CEDADB" d="M389.7,180.9c0-0.5,0-1-0.1-1.5c1.2,1,0.7,2,0.1,3C389.7,181.9,389.7,181.4,389.7,180.9z" />
	<path fill="#342425" d="M377.5,209.1c4.6-0.1,9.1-0.2,13.7-0.3c0.4,2.6-3.6,1.5-4.8,0.8c-2.9,0-5.9,0.1-8.8,0.2l-0.1-0.3   C377.5,209.4,377.5,209.3,377.5,209.1z" />
	<path fill="#020303" d="M377.5,209.9c3.3,0.3,7.1-1,10,0.4C384.2,210.2,380.6,211.1,377.5,209.9z" />
	<path fill="#4D4B43" d="M358.9,553.2c0.2,0.2,0.4,0.4,0.5,0.7C359.3,553.6,359.1,553.4,358.9,553.2z" />
	<path fill="#836C62" d="M367.7,188.6c-0.1-0.1-0.1-0.1-0.2-0.2c0.2-0.2,0.3-0.2,0.4,0C367.8,188.5,367.8,188.5,367.7,188.6z" />
	<path fill="#606D72" d="M388.9,214.6c-0.4-0.3-0.8-0.6-1.6-1.1c0.8-0.2,1.2-0.3,1.7-0.4C389.8,213.6,389.1,214.1,388.9,214.6z" />
	<path fill="#404346" d="M381.8,229.1c0.1,0.5,0.7,1,0,1.5c-0.4-0.3-0.8-0.7-1.3-1.2C381.1,229.3,381.4,229.2,381.8,229.1z" />
	<path fill="#68575A" d="M382.5,211.7c0.2,0,0.5,0,0.7,0c0.1,0.3,0.1,0.5,0.2,0.8c-0.4,0-0.8,0-1.2,0   C382.3,212.2,382.4,212,382.5,211.7z" />
	<path fill="#263638" d="M387.5,227.2c-0.5,0.7-0.8,1.3-1.1,1.8c-1.2-0.1-1.8-0.4-1.7-1.6C385.3,226.6,386.1,226.6,387.5,227.2z" />
	<path fill="#AAA28A" d="M464.6,16.5c0.5-0.5,1-0.9,1.5-1.4c0,0,0,0,0,0c0,0.7,0,1.5,0,2.2c0,0,0,0,0,0c-0.7,0.6-1.4,1.2-2.2,1.8   c-0.1-0.2-0.2-0.3-0.3-0.3c0.1-0.5,0.2-0.9,0.3-1.4c0,0,0,0,0,0C464.1,17.1,464.4,16.8,464.6,16.5z" />
	<path fill="#9C917C" d="M466.1,15.2c0.1-0.4,0.1-0.8,0.2-1.3C466.9,14.6,466.7,14.9,466.1,15.2L466.1,15.2z" />
	<path fill="#3F342C" d="M464.6,16.5c-0.2,0.3-0.5,0.5-0.7,0.8c0-0.6,0-1.2,0.7-1.6C464.6,16,464.6,16.3,464.6,16.5z" />
	<path fill="#171514" d="M520.8,255.7c3.6-9.5,8.3-18.8,12.3-28.2c0.2,0.5,0.5,1,0.7,1.6c-2.4,9.6-8.2,18.1-11.6,27.3   c-0.2,0.1-0.3,0.2-0.5,0.3C521.4,256.3,521.1,256,520.8,255.7z" />
	<path fill="#060505" d="M533.8,229.1c-0.2-0.5-0.5-1-0.7-1.6c1.1-8.6,4.7-16.5,8.1-24.3c-14.8-12.9-26.3-29.1-36.3-45.8   c0.3-0.3,0.5-0.7,0.8-1c11.9,15.9,23.3,32.8,37.6,46.7C540.1,211.8,536.9,220.4,533.8,229.1z" />
	<path fill="#EDD1C0" d="M499.3,157.1c-1.1,1.6-2.4,3.2-3.9,4.8c-0.7-1.2-1.3-2.2-2-3.3c0.9-2,1.8-3.8,3.4-5.3   C498.6,154,499,155.5,499.3,157.1z" />
	<path fill="#332622" d="M498.5,150.6c-0.3-0.3-0.6-0.6-0.9-0.9c1-1.6,2.3-2.5,4.7-1.9C500.9,148.9,499.7,149.8,498.5,150.6z" />
	<path fill="#9E8C80" d="M508.6,147c0.1,1.3-0.9,1.7-1.5,0.3C507.7,147.2,508.2,147.1,508.6,147L508.6,147z" />
	<path fill="#857369" d="M505.2,147.5c-0.5,0.5-0.8,1.1-1.3,0.5C503.9,147,504.2,147,505.2,147.5z" />
	<path fill="#181210" d="M492.1,270.9c-0.2-0.1-0.4-0.1-0.6-0.2c0.1-0.1,0.2-0.2,0.4-0.3C491.9,270.5,491.9,270.7,492.1,270.9   L492.1,270.9z" />
	<path fill="#F6D9C7" d="M438,46.9c0.5-0.8,0.6-0.9,1.3-0.2C438.8,46.8,438.4,46.9,438,46.9z" />
	<path fill="#B2A18A" d="M458.9,16.6c0.2,0,0.3,0,0.5,0c-0.3,0.8-0.5,1.7-0.9,2.9c-0.5-1.2-0.5-1.7-0.2-2.8   C458.5,16.6,458.7,16.6,458.9,16.6z" />
	<path fill="#564B40" d="M464,19.1c0.7-0.6,1.4-1.2,2.2-1.8c0,1.1-0.5,1.8-1.5,2.2C464.4,19.3,464.2,19.2,464,19.1z" />
	<path fill="#3C372F" d="M464,17.3c-0.1,0.5-0.2,0.9-0.3,1.4c-0.1-0.2-0.3-0.4-0.4-0.6C463.5,17.8,463.7,17.6,464,17.3z" />
	<path fill="#AB9F88" d="M458.9,16.6c-0.2,0-0.4,0-0.6,0c-0.1-0.8-0.2-1.6,0.4-2.3C458.8,15.1,458.9,15.8,458.9,16.6z" />
	<path fill="#9B9665" d="M459.3,186.8c-0.3,0.5-0.5,0.3-0.8,0.1C458.7,186.6,458.9,186.8,459.3,186.8z" />
	<path fill="#BCE8F2" d="M392.5,189.4c0.5-0.2,0.9-0.4,1.4-0.6c1.8,1.5,0.7,4,0.8,6.1c-1.2,0.5-2.2,0.4-3.5,0.3   c0.2-2-0.6-4.2,0.8-5.8C392.1,189.4,392.3,189.4,392.5,189.4z" />
	<path fill="#0C1819" d="M391.1,195.2c0.7,0,1.3,0.1,2,0.1c0.3,0.4,0.1,0.8,0.2,1.2c-1.2,0-2.3,0-3.5,0.1   C389.5,195.4,390.3,195.4,391.1,195.2z" />
	<path fill="#A4D5E0" d="M393.3,195.9c0-0.2-0.1-0.3-0.2-0.5c0.4-0.1,0.9-0.3,1.4-0.4c0.1-1.2,0.2-2.3,0.2-3.5   c0.7,1.4,0.8,2.8,0.3,4.4C394.5,195.9,393.9,195.9,393.3,195.9z" />
	<path fill="#ADE1EC" d="M386.1,202.8c0.8-0.7,1.4-1.2,2.1-1.9c0.7,0.6,1.3,1.2,2,1.8C391.8,207.9,385,208.3,386.1,202.8z" />
	<path fill="#3F191A" d="M392.5,189.4c-0.1,0-0.4,0-0.5,0c-0.7-0.3-1.4-0.6-2.8-1.2c1.6,0,2.4,0,3.3,0   C392.5,188.7,392.5,189.1,392.5,189.4z" />
	<path fill="#E1C7B6" d="M522.3,252.1c-0.2,0.5-0.5,0.9-0.7,1.4C521.5,252.9,521.6,252.4,522.3,252.1z" />
	<path fill="#E1C7B6" d="M521.5,253.6c-0.2,0.3-0.4,0.6-0.6,0.9C521.1,254.2,521.3,253.9,521.5,253.6z" />
</g>
</svg>