<?xml version='1.0' encoding='utf-8'?>
<svg xmlns="http://www.w3.org/2000/svg" version="1.2" baseProfile="tiny" id="Layer_2_00000100382676470643590820000011585101850175508621_" x="0px" y="0px" viewBox="0 0 900 600" overflow="visible" xml:space="preserve">
<g>
	<path fill="#010101" d="M514.3,37c-4.2,9.3,1.3,18.5,2.2,28c1.1,20.6,4.8,42.5,0.2,62.7c-0.7,2.8-2.1,4.9-1.2,8   c-6.3,19.3-8.7,40.4-14.4,59.9c-11.5,19.4-3.2,42.2,4.1,61.6c20.8,54.7,8.8,112.6,13.5,169.2c16.3,41.4,6.7,83.2,4,126   c9.1,7,5.1,20.2,8.4,29.8c0.5,2.6,2.9,6.6-0.6,7.9c0.1,2.2-0.6,4.7,2.3,6c0,2.7-40.7,7.8-32.8-1.2c0.4,0.8,0.9,1.6,1.6,2.2   c1.1-0.1,2.3,0.9,3.3-0.5c0.2-0.3,1.1-0.1,1.7-0.1c7.2,2.2,15.4,0.5,23-0.6c-0.9-5.1-3.5-9.8-1.2-14.9c-2.1-5.4-0.2-12.1-2.2-17.4   c-0.6,0-1.2,0-1.7,0c-1.1-1-1.4-2.8-3.3-3c-3.1,2.8-7.8,2.5-11.4,0.7c-0.1-0.7-0.3-1.2-0.5-2c0.9-0.2,1.6-0.3,2.6-0.3   c1.1-2,0.5-4.3,0.9-6.5c0.2,0,0.5-0.1,0.7-0.1c1.3,2.1,0.3,4.9,0.2,7.2c3.5,2.2,5.5-1.1,8.1-1.7c-3.3-41.9,12.3-85.3-4.4-126.2   c-7.8-39.5,1.9-81.2-3.4-121c-14.2,11.7-32.9,15-50.7,17.2c1.9,23.3,13.9,44.3,17.5,67.2c0.3,9,1.3,18.1,5,26.5   c1.2,3.7,4.7,9.7,2.3,13.1c-12.2-21.9-6.7-48.3-18.7-70.4c-4.4-12.6-6-25.8-8.9-38.7c-0.7-5.5-0.8-5.6-5.1-9   c0.3-0.4,0.6-0.8,0.9-1.2c0.5-0.1,1-0.1,1.5-0.2c12.8,16.5,43.1,3.7,56.6-7c-3.2-14.8-5.8-29.8-10-43.8c-6.6-3-13.7-3.4-20.6-5.1   c6.3-2.2,13.5,1.7,20,2.4c-18.8-49.7-7.7-46.5,1.4-93.7c-28-2.6-27.5-33.8-18.8-54c-2.5-0.3-3.6-2.7-5.8-3   c-0.6,9.2-4.9,15.8-13.4,19.4c-0.3,0.8-0.6,1.5-0.8,2.1c-0.3,0-0.5,0-0.8,0c0.3-1.7,0.7-3.5,1-5.2c0.7,0.1,1.5,1.5,2.1-0.1   c5.6-5.4,9.5-11.1,9.2-19.2c0.5-0.3,1-0.6,1.4-0.9c1.3,0.6,2.6,1.3,4,2c4.1-10.8,5.6-21.1,5.5-32.4c1.7-0.7-0.2-3.1,1.7-3.8   c5.1,14.4-9,37.4-2.4,41.1c-5.4,17.3-9.4,52,17.6,50.9c5.1-21.7,12-43.6,10.6-66.1c-0.1-20.9-5.3-41.4-6-62.3   c0.2-0.3,0.5-0.5,0.7-0.8c0.3,0.5,0.7,1.1,1.2,1.9c0.5-1.4,0.9-2.4,1.3-3.4C514.2,34.9,514.3,35.9,514.3,37z M466.9,324.6   c-2.5-1.1-2.5-1.1-4.3-0.8C463.3,325.7,465.3,325.1,466.9,324.6z M529.2,587.7c0.2,0.1,0.4,0.1,0.5,0.2c0.8-0.7,0.6-2.9-0.5-3.1   C529.2,585.8,529.2,586.8,529.2,587.7z" />
	<path fill="#020101" d="M391.1,436.6c13.4-45.2-4.3-92.4,6.7-137.9c14.8-53.8,30.2-73.3,13.6-131.2c27.1-5.9,25.9-34.4,28.1-55.9   c2.4,22,1.1,52.9-25.8,57.4c9.8,30.9,9.6,63.1-2.3,93.3c18.9-5.6,39.2-9.4,58.8-5.9c-9.9,2.1-20.6-0.5-30.7,2   c-1.9,0.4-4,1.4-6.1,0.2c-3.1,0.1-6.3,2.1-9.4,2.9c-4.1,1.4-9.6,0.9-12.7,4.2c-8,13.5-6.7,30.6-12.7,45   c-6.5,41.9,9.3,87.3-6.8,127.5C391.6,437.7,391.4,437.1,391.1,436.6z" />
	<path fill="#030303" d="M398.1,316.2c0.1-1.8-0.7-4,0.6-5.5c0.1,0.6,0.1,1.2,0.2,1.6c17.3,4.6,34,12.6,52.2,12.6   c0.9-1.4,1.4-2.1,2.1-3.8c-5.9,1.6-11.3,1.1-16.9-0.3c6.7-0.6,13.7,1,19-4.3c0.5,0.5,1.1,1.1,1.6,1.6c-0.9,0.1-3.7-0.2-2.5,1.5   c0.9-0.4,2.1-0.2,2.6-1.5c1.5,0.7,2.7,1.6,2.8,3.4c-1.8-0.6-2.9,0-4.9,0.4c-5.5,9.2-6.8,20.1-8.1,30.6   c-6.7,26.8-14.9,53.2-20.7,80.3c-7.4,14.3-8.2,26.6-8.2,42.7c-4.2,26.9-22.1,54.7-16.2,82.1c0.1,1.6,0.3,3.1-0.6,4.5   c0-1.8-0.7-3.1-1.7-4.6c-0.9,0.1-1.7,0.1-2.5,0.1c-2.5,4.6-8.5,4.5-12.1,1.3c-1.7-3.7,1.6-1.5,3.4-0.5c1.2-2.2,0.6-4.5,1.1-6.6   c0.4,0,0.8,0,1.1,0c0,2.3,0,4.3,0,6.7c0.9-0.2,1.5-0.4,2.1-0.5c0.2-0.9,0.4-1.6,0.5-2.1c2.1-0.1,3.6-0.4,5.6-1   c0.2-21,4.8-41.9,11.7-61.6c8.6-16.5,2.3-35.9,9.5-52.6c5.4-6.9,4.9-17.6,8-25.9c2.5-14.8,7.8-28.9,11.2-43.5   c4.8-14.6,4.2-30.8,10.8-44.7c-17.6-0.3-34.3-6.4-50.9-12.1C398.6,315.2,398.4,315.7,398.1,316.2z" />
	<path fill="#050504" d="M385.2,556.9c-1.4,0.1-1.4,0.1-0.7,1.3c-0.6,0-0.9,0.3-0.9,0.9l0,0c-1,3-4.2,3.5-6.8,4.7   c-1.9,5.6-2.9,11.8-7.6,16.1c0.1,3.5-0.3,7.4,4.8,6.5c0.2-0.4,0.5-0.8,0.8-1.2c1.1,0.6,0.8,2.3,1.7,3.2c-0.4,1.2-0.7,2.3-1,3.4   c7.4,2.6,14.6-1.8,22.2,0.3c0.4,0.4,0.7,0.8,1.1,1.1c1.6-0.3,3-0.5,4.4-0.7c-0.2-3-2-6.3,0-8.8c0.2,3.7,3,6.9,3.1,10.3   c-4.7,0.6-38.4,5.7-32.4-4.1c-5.5-0.8-7.4-5-6.6-10c9.5-7.5,4.6-27,16.5-29.4c4.6-35.5-11.2-73.4,5.4-107c1.2-0.4,0.2-1.5,0.7-2.2   c1,0.5,0.4,1.5,0.7,2.3C376.9,479.8,390.6,520,385.2,556.9z M383.5,551.9c-3.3,1.8-3.4,4.5-2.5,7.8c0.9-0.6,1.5-1.1,2.1-1.5   C383.1,556.1,384.2,554.2,383.5,551.9z M378.9,561.1c0.2-2,0.2-2-0.7-4.1c-0.4,0.7-0.7,1.3-1,1.9   C377.8,560.3,377.8,560.3,378.9,561.1z" />
	<path fill="#040404" d="M488,434.6c0.9-0.3,0.9-1,1-1.7c13.4,23.4,4.7,33,9.4,56.1c4,22.9,12,45.4,10.9,69c0.6,0.4,1,0.7,1.4,1   c-0.4,0.1-0.9,0.2-1.4,0.2c0.2,0.5,0.3,1,0.4,1.4c-0.4-0.1-0.9-0.3-1.2-0.4c-0.1-1.6-0.3-3-0.4-4.7c-2.1,2.7-0.5,3.3-1.3,5.8   c-0.8,0.4-1.4,1.5-2.7,0.8c-0.4-1.5-1.1-3.1-0.9-4.9c0.7-0.5,1.3-0.9,2.1-1.5c-0.1-0.7-0.1-1.4-0.2-2.2c-0.8,0.2-1.4,0.3-2,0.5   c-0.1-0.5-0.1-1,0-1.6c0.3,0,0.5,0,0.7-0.2c7-4.8-2.3-32.9-3.4-41.8c-2-11.8-6.5-23.4-6-35.4c0-12.3,0.4-24.9-5.5-36.2   C489.6,437.3,488.2,436.1,488,434.6z" />
	<path fill="#050404" d="M402.4,106.3c-6.5-27.3-3.7-54.8,0.9-82c0.5,0,1.1-0.1,1.6-0.1c1.5,14.1-4.5,28.6-3.9,43   C399.3,80.1,404.6,94.2,402.4,106.3z" />
	<path fill="#0B0B0A" d="M431,9.5c18.5-2,37.1-5.7,55.5-7.2c5.9,1.2,10.1,7.1,15.9,9.2c-0.5,1.2-1.6,0.7-2.5,0.9   c-7.2-2.5-12.5-12.6-20.8-7.6c-14.8,3.8-29.9,3.9-44.9,6c-1.3,0-3.3,0.6-4.2-0.7C430.3,9.9,430.6,9.7,431,9.5z" />
	<path fill="#0A0909" d="M402.4,106.3c0.9-0.3,0.7-1.1,0.9-1.7c1.4,8.7,3.2,17.4,7.9,25c-2.5,10.9-1.9,23.3,0.3,34   c-0.3,0.3-0.6,0.6-0.9,1l0,0c0.1-0.7,0.1-1.3-0.7-1.6c-4.6-9.6-2.1-20.6-1.6-30.8c-1.7-7.7-5.6-15-5.7-23.1   C402.5,108.2,402.4,107.3,402.4,106.3z" />
	<path fill="#0C0C0B" d="M503,553c0,0.3,0.1,0.7,0.1,1c-0.4,0.4-0.9,0.8-1.4,1.3c-0.3,5,2.5,10.2-0.1,14.9c-1.5,2.3-1,5-2.2,7.4   c-1.8,3.2-5.6,9.2,1.2,8.9c0.8-1.6,0-3.7,1.4-5.1c1.8,4.1-0.8,10.7-0.2,15.6c-2.5-2-1.4-5.3-1.8-8.2c-1.5-0.6-3-1.1-4.5-1.7   c-2.5-4.3,0.9-7.9,2.5-11.6c0-3.2,1.8-5.8,2.8-8.7c-0.4-4.1-3-11.2,1.6-13.9C502.6,553,502.8,553,503,553z" />
	<path fill="#151413" d="M430,10.2c0.3,0.8,1,0.6,1.6,0.8c-8.7,4.2-20,4.3-27.3,10.7c0.2,0.9,0.4,1.7,0.5,2.5   c-0.5,0-1.1,0.1-1.6,0.1C402,14.3,422.7,12,430,10.2z" />
	<path fill="#1A1918" d="M403.2,583.7c-0.9,0.9-0.8,2-0.9,3.2c-0.2-0.1-0.4-0.2-0.6-0.3c0.3-6.8-4.8-13.3-0.7-20   c1.5-0.9-0.2-2.9,1.3-3.7C404.2,569.4,401.7,576.9,403.2,583.7z" />
	<path fill="#1F1D1C" d="M499.9,12.4c0.8-0.3,2,0.3,2.5-0.9c7.8,1.8,16,8.8,11.9,17.2c0.2-8.2-5.7-15.2-14.2-15.7l0,0   C500.1,12.8,500,12.6,499.9,12.4z" />
	<path fill="#302E2D" d="M514.3,28.7c0.9-0.9,0.8-2.1,0.8-3.3c0.4,2,0.9,4,1.4,6.3c-1.6,1.3-1.6,3.5-2.2,5.3c0-1.1-0.1-2.1-0.7-3   C513.8,32.2,514.1,30.5,514.3,28.7z" />
	<path fill="#23211F" d="M390.5,443.6c-0.2-0.8,0.3-1.8-0.7-2.3c0.4-1.6,0.9-3.1,1.3-4.7c0.2,0.5,0.5,1.1,0.7,1.6   C391.5,440,391.5,441.9,390.5,443.6z" />
	<path fill="#252524" d="M402.4,562.8c-1.6,0.8,0.1,2.8-1.3,3.7c0.1-2.1-0.5-4.3,0.7-6.1C402,561.2,402.2,562,402.4,562.8z" />
	<path fill="#E1C7B6" d="M403.1,21.3c0.3,2.1,0.1,4.1-0.6,6.1C402.7,25.4,401.8,22.9,403.1,21.3z" />
	<path fill="#2C2B29" d="M410.6,164.6c0.3-0.3,0.6-0.6,0.9-1c0.5,1,0.9,2.1,1.4,3.1c-0.5,0.3-1,0.5-1.5,0.8   C411.1,166.5,410.8,165.5,410.6,164.6z" />
	<path fill="#E1C7B6" d="M402.6,109.1c0.7,0.7,0.7,1.5,0.5,2.4C402.1,110.9,402.4,110,402.6,109.1z" />
	<path fill="#F6D9C7" d="M430,10.2c-0.5,0-1-0.1-1.5-0.1c0.6-1,1.5-0.7,2.4-0.5C430.6,9.7,430.3,9.9,430,10.2z" />
	<path fill="#252524" d="M401.6,557.6c-0.8-0.3-0.7-1-0.6-1.7C401.8,556.3,401.7,556.9,401.6,557.6z" />
	<path fill="#F6D9C7" d="M427.2,10.2c-0.6,0.2-1.1,0.3-1.7,0.5C425.9,10,426.6,10,427.2,10.2z" />
	<path fill="#23211F" d="M389.7,441.9c0.1,0.6,0.2,1.3-0.6,1.6C389.3,443,389.5,442.4,389.7,441.9z" />
	<path fill="#2C2B29" d="M409.9,163c0.8,0.3,0.8,0.9,0.7,1.6C410.3,164,410.1,163.5,409.9,163z" />
	<path fill="#E9DBB6" d="M505.4,551.7c-0.1,1.3-0.9,0.7-1.5,0.6C504.2,551.6,504.8,551.7,505.4,551.7z" />
	<path fill="#E1C7B6" d="M489,438.9c0.2,0.5,0.4,1.1,0.6,1.6C488.9,440.2,488.8,439.6,489,438.9z" />
	<path fill="#E1C7B6" d="M403.8,19.8c-0.2,0.3-0.4,0.5-0.6,0.8C403.4,20.3,403.6,20,403.8,19.8z" />
	<path fill="#F6D9C7" d="M514.9,20.6c-0.2-0.3-0.3-0.5-0.5-0.8C514.6,20.1,514.8,20.3,514.9,20.6z" />
	<path fill="#E9DBB6" d="M503,553c-0.2,0-0.5-0.1-0.7-0.1c0.3-0.2,0.5-0.3,0.8-0.5C503.1,552.7,503.1,552.9,503,553z" />
	<path fill="#E9DBB6" d="M501.7,553.2c-0.3,0.2-0.6,0.4-0.8,0.6C501.1,553.6,501.4,553.4,501.7,553.2z" />
	<path fill="#E1C7B6" d="M404.5,19c-0.2,0.2-0.4,0.5-0.6,0.7C404.1,19.5,404.3,19.3,404.5,19z" />
	<path fill="#F6D9C7" d="M478.5,325.7c12.6-2.8,25.5-6.6,35.5-15.1c5.4,39.8-4.4,81.6,3.4,121c16.7,40.8,1.1,84.2,4.4,126.2   c-2.6,0.7-4.6,3.9-8.1,1.7c0.6-3.6,0.4-7.3,0.5-11c0,0,0,0,0,0c4.1-15.2-9.2-31.2-7-46.8c12.3-0.6-10.1-18.3-7.1-25.9   c0.2-8.6,0-16,0-24.8c2.6,3.2,4.3,6.1,7.8,7.1c-0.2-9.9-10.2-15.6-12.3-24.6c-2.5-9.3-3.5-18.8-3.7-28.4c-0.1-14.2-8.5-26.9-9-40.8   C481.4,351.6,480,338.7,478.5,325.7z M513.4,490.4c-0.9,1.1-0.9,2.4-1.5,4.2c2.3-2.5,5.1-4.4,3.5-8.1   C513.4,487.2,513.7,488.7,513.4,490.4z M503.8,436.3c-0.7-2.6-0.3-4.8-2.2-6.6C501.2,434.3,501.4,434.9,503.8,436.3z M511,427.2   c-0.5,0.2-0.8,0.3-1.1,0.4c0.5,2.3-0.1,3.9,2,5.5C512.1,430.8,511.1,429.1,511,427.2z M500.3,425.5c1.7-1.1,1.6-1.3-0.2-2.7   C500.2,423.8,500.3,424.6,500.3,425.5z M499.8,416.3c0.5-1.2,0.2-1.9-1-2.5C498.8,415.4,498.8,415.4,499.8,416.3z M500.8,419.5   c-0.1-0.1-0.3-0.2-0.4-0.3c-0.2,0.4-0.3,0.7,0.2,0.9C500.6,419.9,500.7,419.7,500.8,419.5z" />
	<path fill="#FF9A77" d="M421.6,319c-1.9-0.5-3.9-1.1-5.8-1.6c0.3-18.5,3.2-37.9,8.2-55.9c3.1-0.8,6.3-2.8,9.4-2.9   c23.3-2,48.1-2.2,70.9,5.7c1,3.2,3.1,6.2,2.5,9.9c-1.3,1.1-2.6,0.7-4.4,0.9c1.6,1.7,3.4,1.2,5,1.6c1.7,10.5,5.5,20.8,6.9,31.4   c-5.5,5.4-12.2,8.2-19.3,10.2c-0.2-0.2-0.4-0.5-0.4-0.5c1.9-1.8,3.7-3.4,5.4-4.9c0-1,0-1.8,0-2.9c-8.6,4.5-19,4.7-28.6,4.6   c-6.5-0.1-8.9-7-13.7-10c0-7.2,0.4-14.7-3-21.3c0.2-0.3,0.5-0.5,0.7-0.8c0.1-2.8,0.4-5.6-0.7-8.4c1.1,7.2-2.5,13-2.3,20   c0.2,3.2,0.6,6.5-2.1,9.1c-0.7,3.4-3.2,5.8-4.5,8.8c-9.5,4.6-19.1-0.7-29.2,0.4c1.1,1.6,2.7,2.4,3.1,3.6c0.6,1.8,2.7,1.2,3.4,2.8   C422.5,318.8,422.1,318.9,421.6,319z M455.1,265.7c1.3-1.1,1.4-1.2,0.5-4.8C455.3,262.7,454.1,264,455.1,265.7z" />
	<path fill="#F6D9C7" d="M470.2,256.3c-15.6-3.6-31.3,0.2-46.9,2.2c1.6-9.4,4.9-18.6,6.6-28.1c2.2-7.5,10.2-15.3,6.4-23.3   c-1.9-0.9-2.3,1.6-4,1.6c0-4.6,0-9.2,0-13.7c7.9-1.8,16.5-2.8,24.6-1.4c0.3,16.4-0.3,32.3,3.4,48.1c3.9-15.6,4.2-31.5,4.8-47.6   c11.2,0.4,22.5-1,33.5,1c-10.7,22.4-2.2,44.4,5.2,66.3C492.6,258.8,481.5,257.7,470.2,256.3z M490.2,226.6c0.3,2,0.3,2,1.4,3.1   C491.7,228.1,491.7,228.1,490.2,226.6z M489.8,222c-0.8-0.6-1.1-0.8-1.4,0.2C488.8,222.8,489.2,222.4,489.8,222z" />
	<path fill="#FFF0A7" d="M466.4,132.4c0.3-0.7,0.5-1.4,0.8-2.1c8.5-3.6,12.8-10.2,13.4-19.4c2.2,0.2,3.3,2.6,5.8,3   c-8.8,20.2-9.3,51.4,18.8,54c-7.6,37.5,0.5,23.3-40.9,23.5c-2.4-14.1-3.5-28.4-6-42.5l0.1-0.1c0.2,0,0.5,0.1,0.7,0   c0.3,0.9,0.7,1.7,1,2.7c1.6-3.3,2.4-6.6,3.5-10C465.1,138.9,465.4,135.4,466.4,132.4z" />
	<path fill="#F6D9C7" d="M510.5,36.3c0.8,28.3,10.2,57,4.6,85.2c0.2-1.6-0.8-2.8-1.7-4.1c0.9-0.8,1.6-1.4,2.3-2.1   c0-0.5,0.2-1.4-0.2-1.7c-3.1-4.1-1-8.9-1.4-13.5c-0.7,0-1.3,0.1-2,0.1c-0.6-0.7-1.1-1.3-1.6-1.9c1.6-3.2,0.1-5.9,0.2-9   c0.9,0.2,1.6,0.3,2.3,0.4c2.1-2.1,2.1-2.1,1.4-5c-0.4,0-0.9,0.1-1.5,0.1c-0.2,1.2-0.3,2.2-0.4,3.2c-1.1,0.2-2.1,0.8-2.7-0.5   c1.5-1,1.5-1.2-0.6-2.5c0.2,0.9,0.4,1.7,0.6,2.6c-1.9-0.8-3.3-2.3-4.9-3.7c-2.4,3.9-2.8,8.7-6.4,11.2c-1.3-6.2,7.2-11.8,3.8-17.4   c-1.2,0-2,0-3,0c0-1.3,0-2.4,0-3.5c7.3,1.7,8.6,3.5,12.7,8.9c0.8-1.2,1.4-2.2,2.1-3.2c0-2.2,0-4.4,0-6.6c-2.2-1.3-1.1-3.3-0.7-5.2   c-2.6-1.8-2.7-2.5-0.8-4.9c0.3-0.9-0.3-1.6-0.8-2.3c-2.7-3.6-0.8-8.3-1.4-12.5c-3.9-1-7.5-2.3-10.3,1.7c0,1.3,0.3,3.5-1.5,3.9   c-2.9-3.9,3.4-7.9,2.8-12.2c-4.3,4-4.9,10.9-9.8,14.3c-14.2,10.8-24.7,31.1-19.1,48.6l0,0c0,0.8,0,1.6,0,2.4l0,0   c-0.9,0.3-0.8,1-0.7,1.7c-2.9,4.7-5,9.9-9,13.9c-0.4-0.3-0.6-0.5-0.9-0.7c0.1-6.5,4.4-10.1,7.8-15.3c-5.6,2.7-7.5,7.7-9.2,13   c-0.8-2.1-3-3.4-3.8-5.3c-0.2-0.5-0.6-0.8-1.1-0.5c-0.6,2.5-1.1,4.6-2.3,7c-0.1-3.2-2.1-5-1.8-8c-0.2-0.7,0.4-1.7-1-2.1   c-0.4,1-0.7,2-1.1,3c-2.7-1.3-1.1-4.1-1.7-6.8c-3.7,4.9-2.9,11.4-3.7,17.1c-0.2-0.1-0.3,0-0.5,0c-0.3-0.2-0.5-0.5-0.8-0.7l0,0   c-0.3-3.5,0-6.9,0.1-10.4c1.1-0.9,0.6-2,0.6-3.1c8.8-16.2,19.8-30.2,25.7-48.3c7.9-10.6,15.7-21.3,21-33.6   c8.9,0.7,10.6,12.6,14.7,18.6c5.2,0.7,5.2-7.3,2.6-10.2c-2-2.5-2.6-6.1-2.3-9.2c0.8,0.5,1.6,1,2.2,1.4   C508.3,31.4,509.4,33.9,510.5,36.3z M454.6,97.4c-1.2,0-1.8,0.5-1.3,1.8C454.5,99.1,454.6,98.2,454.6,97.4c0.6-0.3,1-0.6,0.2-1.4   C454.7,96.6,454.7,97,454.6,97.4z M512.3,91.9c-0.5,2-1,4.4,0.9,5.8C513.7,95.4,512.9,93.7,512.3,91.9z M452,109   c0-0.9-0.4-1.5-1.5-1.7C450.9,109.1,450.9,109.1,452,109z M507.4,81.1c-0.7-1.5-0.6-1.5-1.9-2.2C505.5,80.3,505.8,81,507.4,81.1z    M452,99.9c-1,0.3-1.5,0.8-0.8,1.8C452.5,101.5,452.7,100.9,452,99.9z M448.8,105.8c1.2-0.6,0.4-0.9,0-1.6   C447.7,104.7,448.3,105.1,448.8,105.8z M515.5,99.3l-0.2-0.1l0,0.2L515.5,99.3z" />
	<path fill="#E1C7B6" d="M514.2,548.6c0,1.6,0,3.2-0.1,4.7c-0.6-0.8-0.8-1.8-0.9-2.8c-0.1,0-0.3,0-0.4,0.1c-0.2,2.7,0.2,5.7-0.9,8.3   c-0.4,0-0.8,0.1-1.2,0.1c-0.4-0.3-0.8-0.6-1.4-1c1.1-23.5-6.9-46.1-10.9-69c-3.9-12.5,0.4-25.4-1.9-38.1   c-10.1-21.4-14.8-43.6-17.8-66.7c-6.3-18.5-13-36.8-15.4-56.3c5.2-1.1,10-0.9,15.2-2.1c1.5,13.5,3.1,26.9,4.5,40.2   c1,13.4,8.9,25.6,8.9,39.3c0.1,35.9,7.9,28.2,16,53c-3.5-1-5.2-4-7.8-7.1c0,8.8,0.2,16.2,0,24.8c-2.9,7.7,19.5,25.2,7.1,25.9   C505,517.4,518.3,533.4,514.2,548.6c-0.1-1.2-0.1-2.4-1.3-3.3c-0.3,1.3-0.4,2.5,0.1,3.7C513.5,548.8,513.9,548.7,514.2,548.6z    M513.3,540c-0.1,0-0.2,0-0.4,0c0,0.5,0.1,1,0.1,2C513.7,540.9,513.6,540.9,513.3,540z M508.8,499c-0.4-0.1-0.6-0.4-0.9,0   C508.2,499.4,508.5,499.4,508.8,499z" />
	<path fill="#F6D9C7" d="M509.8,87.6c0.6,1.3,1.6,0.8,2.7,0.5c0.1-1,0.3-2.1,0.4-3.2c0.6,0,1.1-0.1,1.5-0.1c0.7,2.9,0.7,2.9-1.4,5   c-0.7-0.1-1.5-0.3-2.3-0.4c-0.1,3.1,1.4,5.7-0.2,9c0.5,0.6,1.1,1.2,1.6,1.9c0.7,0,1.3-0.1,2-0.1c0.4,4.6-1.8,9.4,1.4,13.5   c0.3,0.3,0.1,1.2,0.2,1.7c-0.8,0.7-1.5,1.4-2.3,2.1c5.1,7-2.2,15.6-2.3,23.2c-1.2,8.2-2.2,16.2-5.2,24c-27,1.1-23-33.6-17.6-50.9   c1.2-2.2,3.9-0.6,5.2-2.2c1.8-0.4,5.1,1.2,5.9-0.7c1.5-1.6,4.5-0.8,6.6-1.6c2.1-0.5,2.9-2.3,2.1-4.3c-2-5.1-8.2-2.2-12.2-3.4   c2.2-6.8,6.8-10.6,9.2-17.6C506.6,85.4,508,86.9,509.8,87.6L509.8,87.6z" />
	<path fill="#EF8A6A" d="M454.6,283.1c3.4,6.6,3,14.1,3,21.3c4.8,3.1,7.2,9.9,13.7,10c9.6,0.1,20-0.1,28.6-4.6c0,1.2,0,1.9,0,2.9   c-1.6,1.5-3.4,3.1-5.4,4.9c0.1,0.1,0.2,0.3,0.4,0.5c-12.8,6.3-37,8.9-38.8-9.9c0,2.8,0,4.9,0,7c-4.7,6.7-13,4.9-19.9,5.5   c1.5,0.3,2.9,0.7,4.4,1c-3.6,0.9-7.3-2.2-10.6,0c-2.9-0.6-5.7-1.4-8.4-2.8c0.5-0.1,0.9-0.2,1.4-0.4c-0.7-1.6-2.8-1.1-3.4-2.8   c-0.4-1.3-2-2-3.1-3.6c10-1.1,19.7,4.2,29.2-0.4c1.3-3,3.8-5.4,4.5-8.8C455.2,297.4,449.9,288.9,454.6,283.1L454.6,283.1z    M428.3,319.1c1.4,1.4,3.1,1.7,5.7,0.8C431.4,319.6,430.3,319.1,428.3,319.1z M423,316.4c-0.1-0.8-1.6-1-1.7-0.1   C422,316.4,422.4,316.9,423,316.4z M457.1,299.6c-1.6,0.6-1.7,1.4-0.6,1.9C456.6,301,456.8,300.5,457.1,299.6z" />
	<path fill="#F7EFD0" d="M509.9,561.3c3.6,1.8,8.2,2.1,11.4-0.7c1.9,0.2,2.2,2,3.3,3c0.5,0,1.1,0,1.7,0c2,5.3,0.1,12,2.2,17.4   c-1,3.1-1.6,6.4,0,9.4c-0.1,0.5-0.3,0.9-0.5,1.8c-3.8-1.4-7.6-0.9-11.3-1c-0.8-1.9,0.6-4.2-0.7-6.1c-0.2-0.8,0.4-1.7-0.5-2.5   c-1.3,2.9,0.4,6.3-0.5,9.4c-2.7-0.3-5.1,1.1-7.9,0.5c-1.2-8.1,1.4-17.2-2.2-24.7c0.9-2.3,1-4.6,2.8-6.2   C508.3,561.4,509.1,561.3,509.9,561.3z M514.9,565.1c-0.4,6.3-0.2,11.7,0.6,15.1C515.5,577.4,516.8,565.5,514.9,565.1z" />
	<path fill="#E1C7B6" d="M498.6,95.1c-1.5,1.6-1.7,4.2-2.8,6.4c4,1.2,10.2-1.7,12.2,3.4c2,5.9-6.1,3.8-8.6,5.9   c-4.5-1.2-5.7-1.2-8-0.1c0.8,0.3,1.4,0.6,2,0.9c-1.3,1.6-4,0-5.2,2.2c-1.5-1.1-2.4-2.5-2.2-4.4c6.6-1.2,12.6-2.8,19.5-3.1   c-5.8-3.6-12.7,1-18.6,1.2c0.1-7.4,4.9-14.4,4.4-22c-0.3-8.9-0.9-17.1-0.4-26.2c2.9-2,5.1-4.9,7-8.1c0.2,1-0.6,2.2,0.7,2.9   c-0.7,8,0,15.8,0.8,23.6c1,0,1.8,0,3,0C505.8,83.3,497.3,88.9,498.6,95.1z M494.8,102.4c-3.2-1.7-4-1.7-5.1-0.1   C491.4,103.2,493,102.6,494.8,102.4z" />
	<path fill="#F6D9C7" d="M514.3,28.7c-0.4,3.2-0.6,5.6-1.9,8.7c-1.7-2.4-1.9-5.2-2.7-7.8c0.4-0.8,0.8-1.3,1.1-1.9   c-1.6-1.1-3.8-0.2-4.7-2.2c0.2-0.5,0.4-1.1,0.6-1.7c-7.8,1.4-1.1,12.4,0.7,16.6c-0.3,1.7-0.5,3-0.7,4.5c-0.9-0.7-1.7-1.4-2.2-1.9   c-1.6-7.1-6.6-12.1-10.7-17.3c-7-5.2,0.3-15.6-8.9-19.4c-2.3,0.4-2.6,2.3-2.8,4c-1.3,1.3-3.6,1-3.6,3.3c-0.2,0.2-0.4,0.2-0.7,0.1   c-1.2-1.9-1.4-1.9-3.1-0.8c-1.4,0-2.9,0-4.3,0.1c-0.3,0.2-0.5,0.5-0.8,0.7l0,0c-40.6,6.9-55.7,13.5-44.6,58.1   c-3.7-2.4-6.7-13.5-3.8-16.9c-3.6-3.7-3.8-6.1-0.1-9.1c0-1,0-2,0-3c-0.5-0.6-1-1.1-1.5-1.7C420.7,8,478.8,18,480.3,5   c-0.6-0.1-0.9-0.2-1.3-0.2c8.4-5,13.7,5.1,20.8,7.6c0.1,0.2,0.2,0.4,0.2,0.6c-0.8,0.2-1.6,0.4-2.6,0.7c-1.5-0.8-3.2-1.7-4.9-2.6   c-0.3,0.4-0.5,0.8-0.8,1.1c0.5,1.2,1,2.3,1.6,3.5c-3.3,6,4.5,9.5,7.6,13.7c0.3-0.1,0.6-0.2,1.1-0.3c0.3-2-0.1-3.8-1.5-5.3   c0.7-1.4,1.4-2.3,2.9-2.6c0.6,0.4,1.3,0.8,2.1,1.3c2.7-1.6,4.2,1.3,6.9,1.7c-2.7-5.6-8.2-7.3-12.5-11.1   C508.6,13.6,514.5,20.5,514.3,28.7z" />
	<path fill="#E9DBB6" d="M516.7,591.2c3.8,0.1,7.5-0.4,11.3,1c0.2-0.9,0.4-1.3,0.5-1.8c0.5,1.9,0.8,3.4,1.2,5.4   c-6.6,1.1-13.2,2.4-19.8,1.2c0.5-0.4,1-0.8,1.5-1.2c3.8-0.5,8.6,0.7,11.8-0.9c-5.6-2.5-12.9,0.3-18.1,1.8c-1,1.4-2.2,0.4-3.3,0.5   c-0.6-5,2-11.5,0.2-15.6c-1.4,1.4-0.6,3.5-1.4,5.1c-6.8,0.3-3-5.7-1.2-8.9c1.2-2.4,0.7-5.1,2.2-7.4c2.6-4.7-0.2-9.9,0.1-14.9   c1.1-1.2,1.8-1.5,3.5-1.7c0.1,0.8,0.1,1.5,0.2,2.2c-0.8,0.6-1.5,1-2.1,1.5c-0.2,1.8,0.5,3.4,0.9,4.9c1.4,0.8,1.9-0.4,2.7-0.8   c0.2,0,0.5,0.1,0.7,0.1c-1.7,1.6-1.9,3.9-2.8,6.2c3.6,7.6,1,16.7,2.2,24.7c2.7,0.6,5.2-0.9,7.9-0.5   C516.1,593.4,516.7,593.1,516.7,591.2z" />
	<path fill="#080707" d="M488.9,76.5c-0.1-5,0.5-10.1,0-14.9c-6.2,2.2-5.2,10-9.6,12.9c-5.8,7.6-4.1,18.3-3.6,27.3   c-0.3,0.3-0.5,0.6-0.8,0.8c-0.5-0.6-0.9-1.1-1.6-2c0,1.7,0,3,0,4.3l0.1-0.1c-0.2,0-0.5,0-0.7,0l0,0c-0.2-1.3,0.7-2.8-0.7-3.9   c-3.2-12.6,2.8-24.6,9.9-34.8c5.1-7.4,13.8-11.2,16.8-20.3c2.7,3.9-4.5,11-7.6,13.5c-0.1,4.7-0.3,9-0.4,13.4   C488.7,73.4,490.6,75.7,488.9,76.5z M472.7,88.9c0,1.6,0,2.6,0,4.4C473.4,91.5,473.4,90.6,472.7,88.9z" />
	<path fill="#171512" d="M462,122c0.3,0.2,0.5,0.4,0.9,0.7c4.2-4.5,6.9-10.2,9.7-15.6c0,0,0,0,0,0c0.2-0.8,0.5-1.6,0.7-2.3l-0.1,0.1   c2.5,3-1.4,6.1-2,9.1c-0.3,3.1-3.9,11.4-2.5,13.2c-0.6,1.6-1.4,0.2-2.1,0.1c0.6-2.8,1.5-5.1,1.2-8.1c-3.7,2-2.8,6-3.7,9.4   c-0.4-0.2-0.8-0.5-1.3-0.7c-0.2-1,0.2-2.3-1.5-2.7c-0.3,5-0.7,9-0.7,14.2c0.8-1.4,1.2-2.1,1.7-2.9c0.3,0.2,0.4,0.4,0.6,0.6   c-0.1,1.6-1.2,3.4-0.4,4.8c0.2-0.3,0.4-0.6,0.6-0.9c0.2,0.2,0.4,0.4,0.6,0.5c-1,3.4-1.9,6.7-3.5,10c-0.4-1-0.7-1.8-1-2.7   c0.4-0.4,0.8-0.9,1.3-1.5c-1-2.6,0.2-13.9-3.1-13.4c1.7-4.3,2.4-8.8,3.3-13.3C461.1,121,461.6,121.5,462,122z" />
	<path fill="#EED2C1" d="M468.6,124.8c1.3-5.3,1.9-10.8,4.8-15.5c0.7-1.5,1.1-3-0.2-4.4c0-1.3,0-2.6,0-4.3   c8.3,7.4,4.1,19.1-3.5,25.3C469.3,125.5,469,125.1,468.6,124.8z" />
	<path fill="#312C28" d="M486.6,106.3c0.1,0.4,0.1,0.7,0.2,1.2c6-0.3,12.8-4.8,18.6-1.2c-6.9,0.3-12.9,1.9-19.5,3.1   C486.1,108.3,485.4,107.1,486.6,106.3z" />
	<path fill="#C9B598" d="M464.2,128.6c0.9-3.4,0-7.4,3.7-9.4c-0.3,5.8-1.5,11.6-3.7,17c-0.2,0-0.3,0-0.5,0   C463.9,133.6,464.1,131.1,464.2,128.6z" />
	<path fill="#221E1C" d="M503.8,24.9c0.6-0.9,1.6-1,2.8-1.1c-0.2,0.7-0.4,1.2-0.6,1.7c0.9,2,3.1,1.1,4.7,2.2   c-0.4,0.6-0.7,1.2-1.1,1.9c0.5,1.8,1,3.8,1.6,5.8c-0.2,0.3-0.5,0.5-0.7,0.8c-1.1-2.4-2.2-4.9-3.3-7.5c-1.9-1.1-2.3-2.4-4-0.1   c0-1,0-2,0-3C503.4,25.5,503.6,25.2,503.8,24.9z" />
	<path fill="#3E2D27" d="M470.2,256.3c5.5,1.2,11.2,0.7,16.6,2.1c-7.3,1.8-15-0.7-22.6-1.3C466.2,257,468.4,257.4,470.2,256.3z" />
	<path fill="#544F4B" d="M477.9,107.9c-0.4-2.1-2-3.6-3.1-5.4c0.3-0.3,0.5-0.6,0.8-0.8c1.7,1.4,3.2,3,3.7,5.3   C478.9,107.3,478.4,107.6,477.9,107.9z" />
	<path fill="#050504" d="M495.1,193.5c1.7-0.2,3.8,0.9,5-0.7c-0.4,0.9-0.8,1.8-1.6,2.4c-1.7-0.3-3.4-0.6-5.1-1   C493.7,193.5,494.4,193.6,495.1,193.5z" />
	<path fill="#AC998C" d="M507.6,561.5c-0.2,0-0.5-0.1-0.7-0.1c0.8-2.5-0.8-3.1,1.3-5.8c0.2,1.7,0.3,3.1,0.4,4.7   c0.3,0.1,0.8,0.2,1.2,0.4c0,0.2,0.1,0.4,0.1,0.6C509.1,561.3,508.3,561.4,507.6,561.5z" />
	<path fill="#7E4939" d="M456.2,315.3c0-2.1,0-4.2,0-7c1.2,2.6,1.4,4.7,1.5,6.8C457.2,315.1,456.7,315.2,456.2,315.3z" />
	<path fill="#38251E" d="M507.4,276.6c-1.6-0.3-3.4,0.1-5-1.6c1.8-0.2,3.1,0.2,4.4-0.9C507.9,274.8,507.4,275.8,507.4,276.6z" />
	<path fill="#373328" d="M464.9,134.5c0.2-0.7,0.5-1.4,0.7-2.1c0.3,0,0.5,0,0.8,0c-0.5,2-1,3.9-1.6,5.9c-0.2-0.3-0.5-0.5-0.7-0.8   C464,136.4,464.3,135.5,464.9,134.5z" />
	<path fill="#B7AC90" d="M511.3,595.8c-0.5,0.4-1,0.8-1.5,1.2c-1.1,0.1-2.2,0.4-3.1-0.5c0.9-0.9,2-1.3,3.3-1.5   C510.4,595.3,510.9,595.5,511.3,595.8z" />
	<path fill="#C1745A" d="M466.9,324.6c-1.7,0.5-3.6,1.1-4.3-0.8C464.4,323.6,464.4,323.6,466.9,324.6z" />
	<path fill="#A09B87" d="M529.2,587.7c0-1,0-1.9,0-2.9c1.1,0.2,1.3,2.4,0.5,3.1C529.5,587.9,529.4,587.8,529.2,587.7z" />
	<path fill="#B09D91" d="M468.6,124.8c0.4,0.4,0.7,0.7,1.1,1.1c-0.3,0.4-0.6,0.8-1,1.3C467.8,126.2,467.8,126.2,468.6,124.8z" />
	<path fill="#685D56" d="M512.8,552.4c0-0.6,0-1.2,0-1.8c0.1,0,0.3,0,0.4-0.1c0.1,0.6,0.2,1.2,0.3,1.8   C513.3,552.4,513.1,552.4,512.8,552.4z" />
	<path fill="#F6D9C7" d="M479.1,4.8c0.4,0.1,0.7,0.1,1.3,0.2c-1.7,13-59.7,3-60.9,36.2c0.5,0.6,1,1.1,1.5,1.7c0,1,0,2,0,3   c-3.6,3-3.5,5.4,0.1,9.1c-3,3.5,0.1,14.5,3.8,16.9c2.6,11.9,3.8,24.1,9.7,35c1.3,0.4,2.4,0.7,3.7,1c-0.2,17.6,2.1,39.1-12.6,52.1   c-0.4-0.1-0.7-0.1-1.2-0.2c-1.9-4.4-2.4-8.4-3.2-13.4c2.9,1.5,5.1,4.4,8.6,2.7c-0.5-9.6-11.5-16.4-14.5-25.5   c2.9-2.8,4.4-6.5,7.5-8.8c2.8,0.8,8-3.5,10.1-5.3c-2.6-5.4-16.2-3.9-20,0c-10.6,2.2,3.4-25.2,0.5-31.1c-1.4,0.2-2.3,1.9-4,1.5   c-2-19.1-5.1-40.8,3.3-58.6c-2-0.5-2.6,1-3.7,2.2c-1.3-1.2-0.4-2.6-0.6-3.8C429.6,7.1,455.7,10.9,479.1,4.8z" />
	<path fill="#E1C7B6" d="M390.5,443.6c17.5-40.8,1.6-86.5,8.4-128.9c5.5,2.5,11.5,3.6,17,5.7c-3.6,0.4-2.5,5.8-3.5,8.4   c-7.3,32.2-5.9,65.7-9.9,98.3c-0.3-1.3,0.3-2.8-0.6-4.6c-0.5,2.7-1.4,4.4-1,6.7c-11.5,19.9-10.8,43.7-10.5,66.1   c-0.6,0.1-0.9,0.1-1.5,0.2c-0.3,13.3,2.3,26.4,1.5,39.8c0.8,1.3,2.7,3.3,0.7,4.5c0-1,0-1-0.5-2c-0.4,0.8-0.7,1.6,0.5,2   c-0.7,1.2,0.2,2.4,0,3.8c-0.4,0-0.7,0-1,0c-0.5,1.1-1.2,2.7,0.3,3.6c0,1.6,0,3.1-0.1,4.7c-0.3,0-0.7,0-1.1,0   c-0.5,2.1,0.1,4.4-1.1,6.6c-1.8-1-4.3-1.8-3.5-4.3C392,517.7,376,479.2,390.5,443.6z" />
	<path fill="#E1C7B6" d="M409.9,18.3c-0.4,0.4-0.8,0.8-1.4,1.4c0.2,1.1-0.6,2.6,0.6,3.8c-0.2,1.5-0.9,3-0.5,4.5   c-0.4,0.7-0.5,1.3,0.6,1.5c-0.2,1.7-0.5,3.4-0.7,5.2c-1.1,0.5-2.1,1.9-0.1,2.1c-1.5,14.1-1.2,29.1,1.1,43.1c1.7,0.4,2.6-1.3,4-1.5   c2.9,5.9-11.1,33.4-0.5,31.1c4.4-4,11.9-4,17.1-2.6c-4.7-1-11,4-11.5,7.8c3.8-3.1,6.7-7,12.1-6.3c0-0.6,0-0.9,0-1.3   c1.1,0.5,1.9,1.2,2.3,2.3c-2.2-0.6-4.4,1.4-6.2,3.4c0.4,0.1,0.7,0.1,1.1,0.1c-1.4,1.2-2.7,2.5-5,1.8c-3.1,2.3-4.7,6-7.5,8.8   c3,9.1,14,15.9,14.5,25.5c-3.5,1.7-5.7-1.1-8.6-2.7c0.8,5,1.3,9,3.2,13.4c0.5,0.1,0.9,0.2,1.2,0.2c-3.4,3.4-7.9,6.6-12.7,6.6   c-4.2-11.5-4.2-25.2-1.7-37.1c-10.1-18.8-9.6-41.5-10.2-62.4c-0.8-15.3,6.4-30.6,3.3-45.6C406.1,20.3,407.2,18.1,409.9,18.3z    M413.5,127.3c0.4,0.5,0.8,0.9,1.5,1.8c0.4-2.8-1.7-2.4-3.4-2.5c0,0.2,0,0.3-0.1,0.5C412.2,127.1,412.9,127.2,413.5,127.3z    M404.2,95.6c1.3-0.7,1.3-0.7,1.5-3.9C404.1,92.5,404.7,94.3,404.2,95.6z M406.4,90.9c1-1.2,1.7-1.9,1-3.1   C406.1,88.3,405.8,89.2,406.4,90.9z M416.4,129.9c0.1,2.3,0.1,2.4,1.8,2C417.6,131.2,417.1,130.7,416.4,129.9z M417.6,116.4   c-2.2-0.5-3.3,0.6-2.7,2.1C415.8,117.8,416.5,117.3,417.6,116.4z M409,86.3c0.5-0.5,1-0.9,0.5-1.4C408.5,85.1,408.5,85.3,409,86.3z    M413.2,121.1c0.6-0.9,0.8-1.1,0.6-2C412.6,119.4,412.6,120,413.2,121.1z M419.1,132.8c-0.7,0.6-0.5,1.1,0.1,1.5   C419.9,133.8,420,133.3,419.1,132.8z" />
	<path fill="#FFF0A7" d="M425.5,164.5c8.1-6.2,13.1-15.3,14.2-25.4c1.2-0.5,0.3-1.8,1-2.6c1.1,1.4,2.6,2.8,3.9,4   c4.1,0.4,5.5-0.7,8.4-3c0.9,0,1.6,0.5,2.4,0.9c0.2,0.6,0.4,1.1,0.6,1.7c-0.1,0.2-0.1,0.4,0.1,0.5c-0.1,0.9-0.1,1.8,0.6,2.5   c-0.1,0.2-0.1,0.4,0.1,0.5c0.2,0.5,0.5,1,0.7,1.5l0,0c0.5,1.2,1,2.3,0.9,3.6c0,0-0.1,0.1-0.1,0.1c-0.5-0.2-0.9-0.3-1.5-0.5   c-3,13.4-3.2,28.4-0.2,42c-8.3,0.2-16.7,2.1-24.8,1.5C430,182.7,427.8,173.7,425.5,164.5z" />
	<path fill="#E1C7B6" d="M432.2,195.1c0,4.6,0,9.1,0,13.7c1.7,0,2.2-2.5,4-1.6c3.8,7.9-4.2,15.8-6.4,23.3c-1.8,9.5-5,18.6-6.6,28.1   c-4,1.3-7.7,2.4-11.9,3.6c7.2-20.6,11.8-42.8,8.9-64.8C424.3,196.1,428.3,195.5,432.2,195.1z M422.5,229.2   c-1.9,2.1-1.9,2.1-1.9,3.6c1.8-0.5,2-2.2,2.9-3.5c0.7-0.7,1.4-1.5,0.9-3.2C423.6,227.5,423,228.4,422.5,229.2z M428.5,217.4   c-1.5,0.7-1.5,0.7-0.9,1.9C427.9,218.6,428.2,218,428.5,217.4z M425.7,224.1c0.7,0,1.3-1.2,0.5-1.2   C425.5,223,425.4,223.4,425.7,224.1z" />
	<path fill="#EF8A6A" d="M424,261.5c-5,18-7.9,37.5-8.2,55.9c-5.7-1.6-11.3-3.1-17-5.1c2.7-12.8,6.2-26,8.8-39   C408.9,264.6,416.5,262.6,424,261.5z M416.3,276.3c1.4-2.5-7.7-0.8-5.9,0.6C412.2,276.5,414.4,276.3,416.3,276.3z" />
	<path fill="#EBDA8F" d="M425.5,164.5c2.3,9.1,4.4,18.1,6.3,27.3c0.5,0.1,0.9,0.3,1.4,0.4c-4.3,1.8-9.2,1.5-13.5,3.3   c-1.6-9-3.8-17.5-6-26.6C417.6,167.1,422,167.2,425.5,164.5z" />
	<path fill="#090806" d="M419.7,195.5c24.4-7.1,50.4-4.2,75.4-2c-0.6,0.1-1.4,0-1.7,0.8c-11.5,0.3-22.8-1.3-34.3-0.5   c0.1,5.6,1.3,10.7,0.6,16.1c-2.5-5-1.8-10.9-2.9-16.3c-12.2-1.9-24.5,1-36.5,3.7c0,1,0,1.9,0,2.9C419,199,419.8,197.2,419.7,195.5z   " />
	<path fill="#0D0C0B" d="M438.9,122.9c-1-5-0.6-9.7-0.7-14.9c-1.2-0.3-2.4-0.6-3.7-1c0-0.3-0.1-0.7-0.2-1.2c0.3-0.3,0.6-0.7,0.9-1   c2.1,0.9,4.3,0,6.4,0.5c5-7.4,3.3-20.3-0.7-28c-0.7-0.2-1.4-0.4-2.1-0.6c-0.2-0.3-0.4-0.6-0.7-0.9l0,0c0.6-0.6,1.1-1.1,1.9-1.3   c5.7,3.6,6.7,12.3,6.4,18.7c1.3-0.9,2.5-1.7,3.7-2.6c-4.3,5.7-3.9,13.3-6.8,19.4c-1.5,3-0.3,7-0.8,10.3c-0.8,1.1-1.1,2.2,0.1,3.2   l0,0c0.5,0.4,1,0.8,1.3,1.4c1.9,1.1-2.4,1.6-2.7,0.1c-0.1-5.9-0.4-11.8,0.7-17.6c-3.2-1.2-1.9,2.4-2.4,4.2   C438,114.8,439.3,119.3,438.9,122.9z" />
	<path fill="#E4D48B" d="M441.2,124.9c0.7,1.1,1.7,1.1,2.8,0.9c0.5,3.1-0.9,6.3,0.6,9.4c3.1,0.8,4,1.4,6.3,4   c-2.7,1.5-2.7,1.5-6.3,1.4c-1.3-1.1-2.8-2.6-3.9-4c-0.6,0.8,0.2,2-1,2.6c-0.2-4.7,0.1-9.5,0.7-14.2C440.7,125,441,125,441.2,124.9z   " />
	<path fill="#ABA06D" d="M441.2,124.9c-0.3,0-0.5,0-0.8,0c-0.2-5.5-1.2-11-0.6-16.4c1.6,1.4-0.4,3.9,1.3,5.2   C441.1,117.5,441.2,121.2,441.2,124.9z" />
	<path fill="#F6D9C7" d="M402.5,427.1c4-32.6,2.5-66,9.9-98.3c0.4-17.5,13-0.8,37.4-2.1c-6.6,13.9-6,30-10.8,44.7   c-3.4,14.6-8.7,28.7-11.2,43.5c-3.1,8.3-2.6,19-8,25.9c-3.1,6.8-4.1,15-4,22.5c-0.9,31.3-19.3,59.6-17.3,91.7c-2,0.6-3.5,0.9-5.6,1   c-0.1,0.5-0.3,1.2-0.5,2.1c-0.6,0.1-1.2,0.3-2.1,0.5c0-3.9,0-7.5,0.1-11.4c2-2.1-0.2-5.2,0.7-7.4l0,0c2-1.2,0.1-3.2-0.7-4.5   c0.8-13.4-1.7-26.5-1.5-39.8c0.5-0.1,0.9-0.1,1.5-0.2C390.3,472.3,389.1,446.8,402.5,427.1z M402.3,491.9   c-2.6-4.7-0.6-13.5-6.6-15.6c-0.7,0.6-1.5,1.4-2,1.8c-0.7,4.5,2.9,15.1,7.5,16.1C401.6,493.4,402,492.6,402.3,491.9z M411.6,432.2   c2.6-2.5,0.7-7.2,1.2-11C410.6,425.2,410.3,429,411.6,432.2z M414.3,411.8c-0.1,0-0.3-0.1-0.4-0.1c-0.5,0.8-1.9,2.8,0.2,2.4   C414.2,413.3,414.3,412.5,414.3,411.8z M414.5,407.9c0.5-1.2,0.7-1.3,0.2-2.3C413.8,406.7,413.8,406.7,414.5,407.9z" />
	<path fill="#F7EFD0" d="M401,562.1c0.8,4.5-2.1,8.3-1.5,12.7c1,4.9,3.3,9.1,1.9,14.3c-3.2-2.3-7.1,0.6-9.6-2   c-0.7-2.4,1.5-10.4-1-10.6c-0.6,1.8,0.1,3.9-0.4,5.6c-1.7,1.3,0.3,3.7-1.4,5.2c-3.3-0.1-6.8,0.7-10-1c1.1-8.2,1.4-16.5,2.4-24.6   c0.8-1,2.9-1.3,2.3-2.8l0,0c0.3,0,0.7-0.1,1-0.1c3.6,3.3,9.6,3.3,12.1-1.3c0.7,0,1.6-0.1,2.5-0.1C400.3,559,401,560.3,401,562.1z    M392.3,562.5c-1.4,1.8-1.2,3.1-0.7,5.2C392.2,565.7,392.4,564.4,392.3,562.5z M391.1,574.1c0.2,0,0.5,0.1,0.7,0.1   c0.4-1.2,0.7-2.4-0.5-4.1C391.2,571.8,391.1,573,391.1,574.1z" />
	<path fill="#F09170" d="M430,321.8c7.4-1.8,15.2,2.1,23.1-0.7c-0.7,1.7-1.2,2.4-2.1,3.8c-6.2,0.3-12.1-0.9-18.1-2.3   C432.3,321.4,431,322.3,430,321.8z" />
	<path fill="#9D5E48" d="M456.9,318.1c-0.4,1.3-1.6,1.1-2.6,1.5C453.1,317.9,455.9,318.2,456.9,318.1   C456.9,318.1,456.9,318.1,456.9,318.1z" />
	<path fill="#EF8A6A" d="M431.2,322c0.7-0.1,1.4-0.3,1.8,0.6C432.4,322.4,431.8,322.2,431.2,322z" />
	<path fill="#B7B19A" d="M384.7,558.9c-0.3,0-0.7,0.1-1,0.1c-0.1-0.6,0.3-0.9,0.9-0.9C384.6,558.4,384.7,558.7,384.7,558.9z" />
	<path fill="#252524" d="M400.8,560.1c-0.2-0.3-0.3-0.7-0.5-1C400.4,559.4,400.6,559.8,400.8,560.1z" />
	<path fill="#E9DCB7" d="M381.4,561.8c-1,8.1-1.3,16.4-2.4,24.6c3.1,1.7,6.6,0.8,10,1c1.7-1.5-0.3-3.9,1.4-5.2   c0.1,1.6,0.2,3.3,0.2,5c0.5,0,0.8,0,1.2,0c2.5,2.5,6.4-0.3,9.6,2c0.2-1.2,0.3-1.9,0.3-2.6c0.2,0.1,0.4,0.2,0.6,0.3   c0.3,1.8,0.6,3.6,0.9,5.6c-1.4,0.2-2.9,0.5-4.4,0.7c-0.3-0.4-0.7-0.7-1.1-1.1c-7.6-2.1-14.8,2.3-22.2-0.3c0.3-1.1,0.7-2.2,1-3.4   c-0.2-0.4-0.6-0.9-0.9-1.5c1.3-3,1.7-6.1,1.1-10.3c-2,3.8-0.9,6.9-2.7,9.8c-5.1,0.9-4.7-3-4.8-6.5c4.7-4.3,5.7-10.5,7.6-16.1   C378.5,563.1,380,562.5,381.4,561.8z" />
	<path fill="#B7B19A" d="M383.5,551.9c0.8,2.3-0.4,4.2-0.5,6.3c-0.6,0.4-1.2,0.9-2.1,1.5C380.1,556.3,380.2,553.6,383.5,551.9z" />
	<path fill="#292721" d="M374.8,585.2c0.5-2.6,0.5-5.3,2-8.6c0.6,4.1,0.2,7.3-1.1,10.3C375.5,586.3,375.7,585.5,374.8,585.2z" />
	<path fill="#D1C5A4" d="M378.9,561.1c-1.1-0.8-1.1-0.8-1.8-2.3c0.3-0.5,0.6-1.1,1-1.9C379.1,559.1,379.1,559.1,378.9,561.1z" />
	<path fill="#B7B19A" d="M383.7,559c0.2,0.7,0.2,1.4-0.7,1.5C383.2,560.1,383.4,559.6,383.7,559z" />
	<path fill="#23211F" d="M390.4,444.2c-0.2,0.6-0.4,1.1-0.5,1.7C389.7,445.3,389.6,444.6,390.4,444.2z" />
	<path fill="#2C2B29" d="M410.7,159.2c0.7,0.9,0.7,2,0.6,3.1C410.1,161.4,410.7,160.2,410.7,159.2z" />
	<path fill="#322C29" d="M503.8,436.3c-2.4-1.4-2.6-2-2.2-6.6C503.5,431.4,503.1,433.7,503.8,436.3z" />
	<path fill="#1F1C19" d="M513.4,490.4c0.3-1.7,0-3.2,2-3.9c1.2,2.4,0.2,4-1.1,5.5C513.3,491.8,513.6,490.9,513.4,490.4z" />
	<path fill="#534A45" d="M511,427.2c0.1,1.9,1.1,3.5,0.9,6c-2.1-1.6-1.5-3.3-2-5.5C510.2,427.5,510.5,427.4,511,427.2z" />
	<path fill="#70645C" d="M513.4,490.4c0.2,0.6-0.1,1.4,0.9,1.6c-0.8,1.2-1,1.4-2.4,2.6C512.5,492.7,512.5,491.4,513.4,490.4z" />
	<path fill="#AE9A8E" d="M500.3,425.5c-0.1-0.9-0.1-1.7-0.2-2.7C502,424.2,502,424.4,500.3,425.5z" />
	<path fill="#A8968A" d="M499.8,416.3c-1-1-1-1-1-2.5C500.1,414.4,500.3,415.2,499.8,416.3z" />
	<path fill="#8B7C73" d="M500.8,419.5c-0.1,0.2-0.1,0.4-0.2,0.6c-0.5-0.2-0.4-0.5-0.2-0.9C500.5,419.3,500.6,419.4,500.8,419.5z" />
	<path fill="#765043" d="M454.6,282.3c0-2.8,0-5.6,0-8.3c1.1,2.8,0.8,5.6,0.7,8.4C455.1,282.3,454.9,282.3,454.6,282.3z" />
	<path fill="#704B3E" d="M455.1,265.7c-0.9-1.7,0.2-3,0.5-4.8C456.4,264.5,456.4,264.6,455.1,265.7z" />
	<path fill="#EF8A6A" d="M454.6,282.3c0.2,0,0.5,0.1,0.7,0c-0.2,0.3-0.5,0.5-0.7,0.8c0,0,0,0,0,0   C454.6,282.8,454.6,282.6,454.6,282.3z" />
	<path fill="#E0C6B5" d="M459.7,210c0.7-5.5-0.5-10.5-0.6-16.1c6.7-0.4,13.7-0.4,20.3,0.4c-4.8,0-9.6,0-14.5,0   c-0.6,16.1-0.8,32-4.8,47.6c-1.6-5.2-2.2-10.3-1.8-15.5c0.4,0.4,0.7,0.9,1.3,1.5c0-0.9,0-1.5,0-2.2c-4.6,0.6-2.2-25.5-2.8-30   c1.6,6.3,1.3,13,1.6,19.3c0.1-0.1,0.2-0.1,0.5-0.3C459.3,213.3,459.5,211.6,459.7,210z M459.9,217.4c-1.9,1.9-1.9,2-0.2,3.6   C459.7,219.9,459.8,219,459.9,217.4z" />
	<path fill="#5E544D" d="M490.2,226.6c1.5,1.5,1.5,1.5,1.4,3.1C490.5,228.6,490.5,228.6,490.2,226.6z" />
	<path fill="#B7A296" d="M489.8,222c-0.6,0.4-1,0.8-1.4,0.2C488.7,221.2,488.9,221.3,489.8,222z" />
	<path fill="#4F4640" d="M458.4,225.7c0.4,0,0.7,0,1.3,0c0,0.6,0,1.3,0,2.2c-0.6-0.7-0.9-1.1-1.3-1.5   C458.4,226.1,458.4,225.9,458.4,225.7z" />
	<path fill="#EBDA8F" d="M464.3,191.3c-4.1,0-8.1,0.3-12.1-0.6c1.5-0.1,2.9-0.2,4.5-0.3c-3-13.6-2.8-28.6,0.2-42   c0.5,0.2,1,0.3,1.5,0.5C460.8,163,461.9,177.2,464.3,191.3z" />
	<path fill="#8F806A" d="M458.5,148.7c0-0.5-0.1-0.9-0.1-1.4c1.2-1.3,0.7-2.5,0-3.8c0.2-2.3,1.1-4.4,0.8-6.7   c0.9,3.3,0.8,7.1,1.3,10.5c-0.5,0.6-0.9,1-1.3,1.5C459,148.8,458.6,148.8,458.5,148.7z" />
	<path fill="#B09D83" d="M464.2,136.1c0,0.5,0,0.9,0,1.4c-0.9,0.6-0.7,1.7,0.1,2.3c0.1,0.6,0.1,1.2-0.6,1.5   c-0.2-0.2-0.3-0.3-0.6-0.5c-0.2,0.3-0.4,0.5-0.6,0.9c-0.5-1.6,0.1-4.2,1.1-5.6C463.8,136.1,464,136.1,464.2,136.1z" />
	<path fill="#625849" d="M463.7,139.2c-0.2-0.7-0.1-1.3,0.5-1.7c0.2,0.3,0.5,0.5,0.7,0.8c-0.2,0.3-0.4,0.5-0.5,0.8   C464.1,139.2,463.9,139.2,463.7,139.2z" />
	<path fill="#171512" d="M463.7,139.2c0.2,0,0.4-0.1,0.7-0.1c0,0.2,0,0.5,0,0.7C464.1,139.7,463.9,139.4,463.7,139.2z" />
	<path fill="#F6D9C7" d="M499.3,74.2c-2-3.6,0.2-8.2-1.2-12.2c-0.6-2.7,1-5.2,0.5-8c1.8-0.5,1.5-2.6,1.5-3.9c2.9-4,6.4-2.7,10.3-1.7   c0.6,4.2-1.2,8.9,1.4,12.5c0.6,0.7,1.1,1.4,0.8,2.3c-1.9,2.5-1.8,3.1,0.8,4.9c-0.5,1.9-1.5,3.9,0.7,5.2c0,2.2,0,4.4,0,6.6   c-0.7,1-1.3,2-2.1,3.2C507.8,77.7,506.8,76,499.3,74.2z" />
	<path fill="#E0C6B5" d="M444.9,106.3c0.6-5.7,2.4-10.9,5.3-15.7l-0.1,0.1c7.2-4.1,10.4-12.9,12.2-20.5c8.5-15.1,14.3-32.2,26-45.2   c1.3,0.7,2.1,1.8,3,3c-0.4,0.1-0.7,0.1-1.3,0.2c-5.3,12.2-13.1,22.9-21,33.6C463.1,78.3,454.7,91.9,444.9,106.3z" />
	<path fill="#CEB7A6" d="M460.7,120.5c-1.3,5.6-1.5,11.9-5.6,16.2c-1.5-2.3-0.3-5.3-0.4-7.9c1.5-4.7,0.1-9.8,2-14.5   C457.6,116.6,460.3,118,460.7,120.5z" />
	<path fill="#DAC1B0" d="M447.9,110c0.1,1.5-0.2,3.3,1.6,3.8c0.1,6.8,0.3,13.5-1.1,20.3c-6.8-1.8-1.2-10.6-1.7-15.4   C446.7,115.8,446.6,112.8,447.9,110z" />
	<path fill="#191615" d="M491.3,27.9c-0.6-0.7-1.2-1.4-1.7-2.1c0.3-0.3,0.5-0.5,0.8-0.8c7.4,3,11.6,10.7,13.9,18   c0.5,0.4,1.4,1.1,2.2,1.9c0.2-1.5,0.5-2.8,0.7-4.5c-0.6-1.4-1.4-3.1-2.2-4.7c0.3-0.3,0.5-0.6,0.8-1c3.2,3.1,5.1,12.3-1.3,12.1   C500.8,40.3,499.2,31.3,491.3,27.9z" />
	<path fill="#D9C0B0" d="M451.6,112.9c-0.3,3,1.7,4.8,1.8,8c0.4-1,0.8-1.9,1.2-2.7c-1.1,4.9,0.3,15.1-3.9,17.9   c-1.1-1.3-1.2-1.3-0.9-2.1C451.4,127.1,450.2,119.9,451.6,112.9z" />
	<path fill="#201C1A" d="M447.9,110c-2.1,5.6-0.5,11.7-2.8,17.3c-0.3,0-0.6,0-0.8,0c-0.1-0.5-0.2-0.9-0.2-1.4c0.8-0.3,0.7-0.6,0-0.9   c1.9-5.8-0.4-12.8,3.7-17.9C447.8,108.4,447.8,109.2,447.9,110z" />
	<path fill="#292421" d="M451.6,112.9c-1.2,5.2-0.1,10.7-1.3,16c-0.4-0.8,0.2-1.8-0.8-2.4c0.4-5.2-1-10.8,1-15.7   C452,111.2,451.4,112.2,451.6,112.9z" />
	<path fill="#231F1D" d="M460.7,120.5c-0.1-0.3-0.1-0.5-0.2-0.8c1.2-3.2,1.9-6.6,4.4-9c0.3,0.3,0.6,0.6,0.9,0.9   c-1.3,3.5-4.1,6.3-3.9,10.4C461.6,121.5,461.1,121,460.7,120.5z" />
	<path fill="#332E2A" d="M453.9,125.7c0.3-4,0.5-8,1.7-11.8c0.5-0.3,0.9-0.1,1.1,0.5c-1.9,4.7-0.6,9.8-2,14.5   C454.7,127.7,454.7,126.6,453.9,125.7z" />
	<path fill="#312C28" d="M506,34.7c-0.3,0.3-0.5,0.6-0.8,1c-1.8-2-1.6-4.6-2-7c0.7-0.2,0.6-1.6,1.7-1.3   C504.4,29.9,505.4,32.3,506,34.7z" />
	<path fill="#574D47" d="M465.8,111.6c-0.3-0.3-0.6-0.6-0.9-0.9c1.1-1.6,2.5-2.9,4.8-4C468.9,109.3,466.7,109.9,465.8,111.6z" />
	<path fill="#453D39" d="M499.4,47.4c-0.1-0.7,0-1.4-0.9-1.6c0.9-1.3,1.7-2.8,2.9-3.9C501.5,44.1,500.6,45.8,499.4,47.4z" />
	<path fill="#1F1C1A" d="M512.3,91.9c0.5,1.8,1.4,3.5,0.9,5.8C511.3,96.3,511.8,93.9,512.3,91.9z" />
	<path fill="#AF9B8E" d="M444.8,116c-0.1,2.3,0.7,4.8-0.5,6.9C444.5,120.6,443.5,118,444.8,116z" />
	<path fill="#151212" d="M452,109c-1.1,0.1-1.1,0.1-1.5-1.7C451.6,107.5,452,108.1,452,109z" />
	<path fill="#453D38" d="M509.9,87.6c-0.2-0.8-0.4-1.6-0.6-2.6C511.3,86.4,511.3,86.6,509.9,87.6L509.9,87.6z" />
	<path fill="#1D1B18" d="M507.4,81.1c-1.7-0.1-1.9-0.8-1.9-2.2C506.8,79.6,506.8,79.6,507.4,81.1z" />
	<path fill="#C1AB9D" d="M454.6,97.4c0,0.9-0.1,1.7-1.3,1.8C452.8,97.9,453.4,97.4,454.6,97.4L454.6,97.4z" />
	<path fill="#EED2C1" d="M471.8,100.9c1.4,1.1,0.6,2.6,0.7,3.9C471.3,103.8,471.9,102.3,471.8,100.9z" />
	<path fill="#7C6E66" d="M452,99.9c0.6,0.9,0.5,1.5-0.8,1.8C450.5,100.7,451.1,100.2,452,99.9z" />
	<path fill="#AF9B8E" d="M442.8,113.1c-0.1-1.1-0.4-2.2,0.6-3.1C443.4,111,443.9,112.2,442.8,113.1z" />
	<path fill="#4D453F" d="M448.8,105.8c-0.5-0.7-1.1-1.1,0-1.6C449.1,104.9,450,105.1,448.8,105.8z" />
	<path fill="#AF9B8E" d="M442.7,123.5c-1.3-1-0.9-2.1-0.1-3.2C442.6,121.4,442.6,122.4,442.7,123.5z" />
	<path fill="#EED2C1" d="M473.3,104.8c-0.2,0.8-0.5,1.6-0.7,2.3c0-0.8,0-1.6,0-2.4C472.8,104.8,473,104.8,473.3,104.8z" />
	<path fill="#BAA599" d="M454.6,97.4c0.1-0.4,0.1-0.8,0.2-1.4C455.6,96.8,455.2,97.1,454.6,97.4L454.6,97.4z" />
	<path fill="#EED2C1" d="M472.5,107.1c-0.2,0.6-0.5,1.1-0.7,1.7C471.8,108.1,471.6,107.4,472.5,107.1z" />
	<path fill="#AF9B8E" d="M443.5,124.2c-0.3-0.2-0.5-0.5-0.8-0.7C442.9,123.7,443.2,123.9,443.5,124.2z" />
	<polygon fill="#F6D9C7" points="515.5,99.3 515.3,99.3 515.3,99.1  " />
	<path fill="#AF9B8E" d="M444,124.1c0.1,0.2,0.1,0.5,0,0.7c-0.2-0.2-0.3-0.5-0.5-0.7C443.6,124.1,443.8,124.1,444,124.1z" />
	<path fill="#514842" d="M514.2,548.6c-0.3,0.1-0.7,0.2-1.2,0.4c-0.4-1.2-0.4-2.4-0.1-3.7C514.2,546.2,514.1,547.5,514.2,548.6   L514.2,548.6z" />
	<path fill="#7B6D64" d="M513.3,540c0.4,0.9,0.5,0.9-0.2,2c-0.1-0.9-0.1-1.5-0.1-2C513,540,513.1,540,513.3,540z" />
	<path fill="#8A7B71" d="M508.8,499c-0.3,0.5-0.5,0.4-0.9,0C508.1,498.6,508.4,498.9,508.8,499z" />
	<path fill="#37312D" d="M493.4,111.6c-0.6-0.3-1.2-0.5-2-0.9c2.2-1.1,3.5-1.1,8,0.1C498.5,112.8,495.2,111.2,493.4,111.6z" />
	<path fill="#301D17" d="M428.3,319.1c2,0,3.1,0.4,5.7,0.8C431.4,320.8,429.7,320.6,428.3,319.1z" />
	<path fill="#4E2F25" d="M423,316.4c-0.7,0.5-1.1,0-1.7-0.1C421.4,315.5,422.9,315.6,423,316.4z" />
	<path fill="#8B5341" d="M457.1,299.6c-0.3,0.9-0.4,1.4-0.6,1.9C455.3,301,455.4,300.2,457.1,299.6z" />
	<path fill="#272622" d="M514.9,565.1c1.9,0.3,0.6,12.3,0.6,15.1C514.8,576.9,514.6,571.4,514.9,565.1z" />
	<path fill="#6E6A5E" d="M515.1,589.7c0-1.3,0-2.6,0-3.8c0.3-0.3,0.6-0.6,0.8-0.9c1,1.7,0.4,3.6,0.4,5.4   C515.9,590.2,515.5,590,515.1,589.7z" />
	<path fill="#4D493D" d="M515.1,589.7c0.4,0.2,0.8,0.5,1.2,0.7C517.5,594.4,514.5,592.6,515.1,589.7z" />
	<path fill="#302F2A" d="M515.9,585c-0.3,0.3-0.6,0.6-0.8,0.9c-0.3-1.1-0.4-2.3,0.3-3.3C516.3,583.3,515.7,584.3,515.9,585z" />
	<path fill="#6E6A5E" d="M515.1,591.2c0.2,0.5,0.4,1,0.6,1.5c-0.3-0.3-0.6-0.5-0.8-0.8C515,591.7,515,591.4,515.1,591.2z" />
	<path fill="#3B3530" d="M494.8,102.4c-1.9,0.2-3.5,0.7-5.1-0.1C490.8,100.7,491.6,100.7,494.8,102.4z" />
	<path fill="#060605" d="M490.4,25c-0.3,0.3-0.5,0.5-0.8,0.8c-0.4-0.3-0.8-0.5-1.2-0.8c-10.2,10.2-14.3,24.7-21.9,36.6   c-1.9-1.3,0.5-4.6-1.4-6c-0.5-1,0.4-2.3-0.7-3c-0.5-1.3,0.5-2.8-0.8-3.7c-0.5-1.3,0.6-2.8-0.7-3.7c-0.5-1.3,0.6-2.8-0.7-3.7   c-0.2-2-0.6-4.1,0.5-5.9c0.6,1.8-0.7,3.8,0.7,5.2c0.5,1.3-0.6,2.8,0.7,3.7c0.5,1.3-0.6,2.8,0.8,3.7c0.3,2.5,1.9,12.1,3.8,4.8   c0.6-4.7-1.2-10.4,0.8-14.5c0.5,0.5,0.9,1,1.4,1.4c-2.4,2.5-0.4,6.2-0.7,9.6c0.8-1,1.3-1.7,1.9-2.5c-0.2-0.4-0.4-0.6-0.6-0.9   c1-0.3,2.3-0.2,2.1-1.9c-0.3-0.3-0.8-0.5-0.9-1c2-1.1,2.1-1.6,0.9-3c1.8-0.3,6.2-6.4,5.3-7.7c-0.4,0-0.7,0.1-1.1,0.1   c-0.5-0.2-1-0.5-1.5-0.7c0.4-0.2,0.7-0.4,1.1-0.6c-1.2-2.8-3.9,1.5-5-1.1c0.5-0.4,1-0.7,1.4-1.1c-1.7-2.4-4.4-4-7.3-3.1   c0.6,0.8,1,1.4,1.4,1.9c-0.6,1.5,0.3,3,0.7,4.5c-0.7,0.9-2.2,1.5-2.3,2.7c-0.2,0-0.4,0.1-0.6,0.3c-0.3,0-0.5,0-0.8,0   c-0.1-4.3-1.5-8.3-0.8-12.6c-0.9-0.1-1.5-0.1-2.1-0.2c-1.1-1.2-2.1-0.6-3.1,0.2c-0.6-0.2-1.2-0.8-1.9-0.2l0.1-0.1l0,0.1   c-14.4,0.3-8.3,43.7-5.7,52.3c0.5,1.5-0.7,3.2,0.7,4.5c0,1.5,0.8,3.5-0.7,4.5l0,0c-0.8-3.7-0.9-8.5-3.7-11.2c0-1,0-2,0-3   c2.4-7.5-2.3-15.8-2.3-23.5c-0.5,0.2-0.9,0.3-1.4,0.4c-0.3-0.2-0.5-0.5-0.8-0.7c0.9-1.1,3.4-2.1,1.7-3.6c-1.3,0.5-2.6,0.8-4,1.1   c0-0.2,0.1-0.4,0.1-0.5c1.5-0.8,2.9-1.6,4.5-2.4c-0.2-3.6,0.5-6.4,1.3-10.1c-3.8,1.5-6,4.4-7.3,7.6c0.4,0.3,0.7,0.5,1.1,0.8   c-0.2,0.4-0.4,0.7-0.6,1c-2.6,0-2.6,3.5-3.6,5.3c-0.2,0-0.5,0-0.7,0c-0.2-8.3,6.5-13.7,12-18.9c-8.1,2.2-15,7.5-22.5,9.9   c-0.3-0.3-0.6-0.6-0.9-0.9c16.1-9.9,35.2-17.1,53.1-21.4c0.3,0.1,0.5,0,0.7-0.1c2.2,0.3,4.9-1.3,6.8,0.7c-6.5,2.7-17.2,1.7-23,6.2   c6.9,1.4,12.7,5.9,18.7,9.2c2.2-2.2,4.3-4.3,6.4-6.4c1.7-0.2,0.3-2.2,1.5-2.9C489.3,22.1,489.9,23.5,490.4,25z" />
	<path fill="#E0C6B5" d="M470.3,15.3c-15.8,6.2-33.1,10.9-46.9,21c2.5-14.4,19.4-16.2,31-18.6c5.1-1,9.9-4.2,15.2-3.8   C469.8,14.3,470,14.8,470.3,15.3z" />
	<path fill="#F6D9C7" d="M500.1,13c4.3,3.8,9.8,5.5,12.5,11.1c-2.6-0.4-4.1-3.2-6.9-1.7c-0.7-0.4-1.5-0.9-2.1-1.3   c-1.6,0.3-2.3,1.2-2.9,2.6c1.3,1.5,1.8,3.3,1.5,5.3c-0.5,0.1-0.8,0.2-1.1,0.3c-3.1-4.2-10.9-7.6-7.6-13.7c-0.5-1.2-1-2.3-1.6-3.5   c0.3-0.4,0.5-0.7,0.8-1.1c1.7,0.9,3.3,1.8,4.9,2.6C498.5,13.5,499.3,13.3,500.1,13C500.1,13.1,500.1,13,500.1,13z" />
	<path fill="#0E0D0D" d="M426.3,77.2c-2.9-12.3-7-25.5-3.7-38c1.7,7.7-0.1,16.2,3.5,23.8C426.9,67.6,428,72.9,426.3,77.2z" />
	<path fill="#DEC4B3" d="M485.2,14.5c-0.8-0.5-1.2-1.3-1.6-2c0.4-0.2,0.8-0.5,1.2-0.7c1.8,1.3,1.8,1.3,2.9,0.9   c-1.8-2.3-4.5-1.9-6.9-0.9c0-0.1-0.1-0.2-0.2-0.4c0.4-0.3,0.8-0.6,1.3-1c0.2-1.7,0.5-3.6,2.8-4c9.6,5,1.8,13.4,9.3,20.4   c-1.2-0.6-2.4-1.1-3.6-1.7C488.7,21.5,488.9,16.8,485.2,14.5z" />
	<path fill="#BAA496" d="M483.7,12.4c0.3,0.5,0.5,0.9,0.8,1.4c-2-1-4,0.2-6-0.1c-0.1-1.5,1-2,2.2-2.4c0.6,1.4,1.9,1.1,3,0.6   C483.6,12.2,483.6,12.3,483.7,12.4z" />
	<path fill="#3C3835" d="M423.4,40.8c-0.2-0.5-0.5-1.1-0.7-1.6c0.2-1,0.5-1.9,0.7-2.9c0.4-0.4,0.8-0.7,1.3-1.1   c0.3,0.3,0.6,0.6,0.9,0.9C424.8,37.7,424.1,39.3,423.4,40.8z" />
	<path fill="#BAA496" d="M477.7,13.9c-0.8,1-1.9,0.7-3,0.6c0-0.5-0.1-1-0.1-1.5C476.3,12,476.5,12,477.7,13.9z" />
	<path fill="#BAA496" d="M470.3,15.3c-0.2-0.5-0.5-1-0.7-1.5c0,0,0,0,0,0c0.3-0.2,0.5-0.5,0.8-0.7c0.5,0,1,0,1.5,0   c-0.1,1.1,0.6,1.5,1.6,1.6C472.4,15.4,471.4,15.4,470.3,15.3z" />
	<path fill="#E0C6B5" d="M473.4,14.6c-0.9-0.1-1.7-0.5-1.6-1.6c0.9,0,1.9,0,2.8,0c0,0.5,0.1,1,0.1,1.5   C474.3,14.5,473.8,14.6,473.4,14.6z" />
	<path fill="#E0C6B5" d="M470.3,13.1c-0.3,0.2-0.5,0.5-0.8,0.7C469.8,13.6,470,13.3,470.3,13.1z" />
	<path fill="#312C28" d="M503.8,24.9c-0.2,0.3-0.4,0.6-0.6,0.8C503.4,25.5,503.6,25.2,503.8,24.9z" />
	<path fill="#3C3830" d="M511.3,595.8c-0.5-0.3-0.9-0.5-1.4-0.8c4.2-2,8.3,0.8,12.5-0.7c0.2,0.2,0.5,0.4,0.7,0.6   C519.9,596.4,515.1,595.2,511.3,595.8z" />
	<path fill="#0A0A09" d="M522.4,594.3c-2.1,0.8-3.9,0.8-5.9,0C518.5,594,520.5,593.8,522.4,594.3z" />
	<path fill="#242424" d="M472.7,88.9c0.8,1.6,0.7,2.6,0,4.4C472.7,91.5,472.7,90.6,472.7,88.9z" />
	<path fill="#CCB698" d="M460.7,136c0.2-3.6,0.4-7.1,0.7-10.8C464,125.5,463.4,135.8,460.7,136z" />
	<path fill="#625849" d="M460.7,136c3.2-1.3,1.7-5.4,2.2-8.1c0.4,0.2,0.8,0.5,1.3,0.7c-0.1,2.5-0.3,5-0.5,7.5   c-0.2,0.3-0.4,0.6-0.7,0.8c-0.2-0.2-0.3-0.3-0.6-0.6c-0.4,0.8-0.9,1.6-1.7,2.9C460.7,137.8,460.7,136.9,460.7,136z" />
	<path fill="#CEB7A6" d="M459.2,136.8c-0.1,1.8,0.2,3.7-0.7,5.3c0,0-0.2,0.1-0.2,0.1c0.3-1.7-0.7-3.2-1.3-4.8c0.1-0.2,0-0.4-0.2-0.5   c0.5-1,1-2,1.5-3C459.7,133.9,458.9,135.8,459.2,136.8z" />
	<path fill="#1A1812" d="M458.3,133.9c-0.5,1-1,2-1.5,3c-0.6,0-1.1-0.1-1.7-0.1c0.8-1,1.5-1.9,2.3-2.9   C457.7,133.9,458,133.9,458.3,133.9z" />
	<path fill="#625849" d="M464.9,134.5c-0.2,0.3-0.3,0.6-0.5,0.9C464.6,135.1,464.8,134.8,464.9,134.5z" />
	<path fill="#161514" d="M435.2,104.8c-0.3,0.3-0.6,0.7-0.9,1c-2.3-5.3-7.5-12.7-5.1-18.2C431.3,93.4,434.2,99,435.2,104.8z" />
	<path fill="#3A3836" d="M429.3,87.7c-0.9,0.3-0.7,1-0.8,1.7c-2.5-6-1.7-12.1-1.3-18.2C428.6,76.4,427.5,82.3,429.3,87.7z" />
	<path fill="#302A27" d="M408.6,28c-0.4-1.6,0.2-3,0.5-4.5c1.1-1.2,1.7-2.7,3.7-2.2c-1.3,2.7-2.4,5.1-3.6,7.5   C409,28.6,408.8,28.3,408.6,28z" />
	<path fill="#332E2A" d="M430.5,107.2c0,0.4,0,0.7,0,1.3c-2.6-0.3-4.9,0.6-7.1,1.8c-0.3-0.3-0.6-0.6-0.9-0.9c2.1-2,4.7-2.6,7.5-2.3   C430.2,107.1,430.3,107.2,430.5,107.2z" />
	<path fill="#443C38" d="M427.7,113c-0.4,0-0.7-0.1-1.1-0.1c1.8-1.9,4-4,6.2-3.4C431.7,111.3,429.4,111.8,427.7,113z" />
	<path fill="#544B45" d="M408.3,36.8c-2.1-0.2-1.1-1.7,0.1-2.1C408.4,35.4,408.3,36.1,408.3,36.8z" />
	<path fill="#2C2724" d="M408.6,28c0.3,0.5,0.8,0.9,0.6,1.5C408.1,29.3,408.1,28.8,408.6,28z" />
	<path fill="#36312D" d="M402.5,427.1c-0.5,0.7-1.1,1.4-1.6,2.1c-0.5-2.3,0.5-3.9,1-6.7C402.9,424.3,402.2,425.8,402.5,427.1z" />
	<path fill="#4F4641" d="M391.2,543.5c0,1.2,0.4,2.6-0.7,3.6c-1.5-0.9-0.8-2.5-0.3-3.6C390.5,543.5,390.8,543.5,391.2,543.5z" />
	<path fill="#49423D" d="M391.2,539.7c-1.2-0.4-0.9-1.1-0.5-2C391.2,538.7,391.2,538.7,391.2,539.7L391.2,539.7z" />
	<path fill="#6D6058" d="M422.5,109.3c0.3,0.3,0.6,0.6,0.9,0.9c-1.6,1.5-2.9,3.2-4.9,4.5C419.1,112.2,419.1,112.2,422.5,109.3z" />
	<path fill="#554B45" d="M404.2,95.6c0.5-1.3-0.1-3.1,1.5-3.9C405.5,94.9,405.5,94.9,404.2,95.6z" />
	<path fill="#3D3631" d="M406.4,90.9c-0.6-1.7-0.3-2.5,1-3.1C408,88.9,407.4,89.7,406.4,90.9z" />
	<path fill="#71645C" d="M416.4,129.9c0.7,0.8,1.2,1.4,1.8,2C416.6,132.3,416.5,132.2,416.4,129.9z" />
	<path fill="#5A5049" d="M417.6,116.4c-1.2,0.9-1.9,1.5-2.7,2.1C414.3,117,415.4,115.9,417.6,116.4z" />
	<path fill="#AE9A8C" d="M409,86.3c-0.5-1-0.5-1.2,0.5-1.4C410,85.4,409.5,85.8,409,86.3z" />
	<path fill="#3E3732" d="M413.7,126.7c1.1,0.1,1.5,0.8,1.4,2.4c-0.7-0.9-1.1-1.3-1.5-1.8C413.6,127.1,413.7,126.9,413.7,126.7z" />
	<path fill="#9F8D81" d="M413.2,121.1c-0.6-1.1-0.5-1.7,0.6-2C414,120,413.7,120.2,413.2,121.1z" />
	<path fill="#453E38" d="M419.1,132.8c0.9,0.5,0.8,1,0.1,1.5C418.6,133.9,418.4,133.4,419.1,132.8z" />
	<path fill="#766960" d="M413.7,126.7c0,0.2-0.1,0.4-0.2,0.6c-0.7-0.1-1.3-0.2-2-0.3c0-0.2,0-0.3,0.1-0.5   C412.3,126.6,413,126.6,413.7,126.7z" />
	<path fill="#0D0C0B" d="M455.1,136.8c0.6,0,1.1,0.1,1.7,0.1c0.2,0.1,0.2,0.3,0.2,0.5c1.3,1.5-0.2,3.5,1.3,4.8l0.2-0.1   c-0.2,1,0.3,2.6-0.9,3.1l0,0c0.4-1.1-0.8-1.3-0.8-2c0-0.9,0.5-1.9-0.6-2.5c0-2-0.4-2.2-2.3-3c-0.4-1.6-2,1.2-2.9,1.5   c-2.3-2.6-3.2-3.2-6.3-4c-1.1-2.6-0.7-5.3-0.3-8c0.3,0,0.6,0,0.8,0c0.2,2.7-0.6,6.6,3.3,6.8c0.4-2.6,0.8-5.1,1.1-7.6   c1.4,2,0.8,5.2,0.2,7.5c-0.3,0.8-0.2,0.8,0.9,2.1c3.5-1.4,2-7.3,3.3-10.4C456.1,129,453,133.5,455.1,136.8z" />
	<path fill="#1A1812" d="M457.5,145.1c0.8-0.3,0.8-1,0.8-1.6c0.7,1.3,1.2,2.5,0,3.8C458.1,146.6,457.8,145.9,457.5,145.1z" />
	<path fill="#1A1812" d="M456.1,140.6c1.1,0.6,0.6,1.6,0.6,2.5C456,142.4,456,141.5,456.1,140.6z" />
	<path fill="#1A1812" d="M455.4,138.4c0.8,0.3,0.7,1,0.6,1.7C455.8,139.5,455.6,139,455.4,138.4z" />
	<path fill="#1A1812" d="M456.9,143.6c0.7,0.3,0.7,0.9,0.7,1.5C457.3,144.6,457.1,144.1,456.9,143.6z" />
	<path fill="#CEB7A6" d="M453,137.5c0.4-0.7,0.7-0.6,0.9,0.1C453.5,137.6,453.2,137.6,453,137.5z" />
	<path fill="#020101" d="M423.5,229.4c-0.8,1.2-1,3-2.9,3.5c0-1.5,0-1.5,1.9-3.6C422.8,229.3,423.1,229.3,423.5,229.4z" />
	<path fill="#7F7067" d="M423.5,229.4c-0.3,0-0.7-0.1-1-0.1c0.6-0.9,1.1-1.8,2-3.1C424.8,227.9,424.2,228.6,423.5,229.4z" />
	<path fill="#A39085" d="M428.5,217.4c-0.3,0.6-0.6,1.2-0.9,1.9C427,218.1,427,218.1,428.5,217.4z" />
	<path fill="#817268" d="M425.7,224.1c-0.3-0.6-0.2-1.1,0.5-1.2C427,222.9,426.4,224.1,425.7,224.1z" />
	<path fill="#8E5441" d="M416.3,276.3c-1.9,0.1-4,0.2-5.9,0.6C408.5,275.5,417.7,273.8,416.3,276.3z" />
	<path fill="#3E3732" d="M459.7,210c-0.2,1.6-0.5,3.3-0.7,4.8c-0.3,0.2-0.4,0.2-0.5,0.3c-0.4-2.6,0-5.4-0.1-8   C458.8,208,459.3,209,459.7,210z" />
	<path fill="#E8CDB9" d="M446.5,90.7c0.1-5.7-1.5-13.2-6.4-16.2c-0.3,0.2-0.7,0.3-1,0.5c-0.3-1.2-0.7-2.3-1-3.5   c0.2-0.5,0.5-1.1,0.7-1.6c0.5,0.6,0.9,1.6,2.1,1.4c-0.4-1-0.8-1.9-1.1-2.7c4.9-3.8,4.2,6.7,7.5,8.1c-0.6,3.5,1.4,6,2.8,9   C449.7,87.6,448.8,90.2,446.5,90.7z" />
	<path fill="#E0C6B5" d="M446.5,90.7c2.3-0.5,3.2-3.1,3.6-5.2c0.7,0.2,1.4,0.7,2.1,0.8c-0.6,1.6-2.3,2.7-2.2,4.5   c0,0,0.1-0.1,0.1-0.1c-1.2,0.8-2.4,1.7-3.7,2.6C446.5,92.3,446.5,91.5,446.5,90.7z" />
	<path fill="#353230" d="M438.1,71.4c0.3,1.2,0.7,2.3,1,3.5c-0.3,0.3-0.6,0.6-0.9,0.9c-2.3-2.7-2.2-6.4-3.1-9.8l0.2,0.1   c0.2,0,0.5-0.1,0.7-0.1C437.2,67.6,437.4,69.6,438.1,71.4z" />
	<path fill="#E4D796" d="M441.1,113.7c-1.7-1.3,0.3-3.7-1.3-5.2c0.2-1.6,0.2-1.6,2.1-1.2C441.7,109.5,441.4,111.6,441.1,113.7z" />
	<path fill="#353230" d="M438.8,76.7c-0.2-0.3-0.4-0.6-0.7-0.9C438.4,76.1,438.6,76.4,438.8,76.7z" />
	<path fill="#DFC5B4" d="M402.3,491.9c-0.4,0.8-0.7,1.5-1.1,2.2c-4.6-0.9-8.2-11.6-7.5-16.1c0.5-0.4,1.2-1.1,2-1.8   c5.4,1.8,4.7,9.7,6,14.3C399.3,490.1,400.7,492.6,402.3,491.9z M395.7,479.5c-0.4,2.4-0.3,4.2,1.7,5.8C397,481,397,481,395.7,479.5   z M399.1,487c-0.6,0.2-0.5,0.5-0.2,1C399.5,487.7,399.4,487.4,399.1,487z" />
	<path fill="#040303" d="M411.6,432.2c-1.3-3.2-1-7,1.2-11C412.3,425,414.2,429.7,411.6,432.2z" />
	<path fill="#928379" d="M414.3,411.8c-0.1,0.8-0.1,1.6-0.2,2.3c-2.1,0.4-0.7-1.6-0.2-2.4C414.1,411.7,414.2,411.7,414.3,411.8z" />
	<path fill="#C2ADA0" d="M414.5,407.9c-0.7-1.2-0.7-1.2,0.2-2.3C415.2,406.7,415,406.8,414.5,407.9z" />
	<path fill="#86776E" d="M402.3,491.9c-1.6,0.7-3-1.7-0.7-1.3C401.9,491,402.1,491.4,402.3,491.9z" />
	<path fill="#191816" d="M391.8,587.2c-0.4,0-0.7,0-1.2,0c-0.1-1.7-0.2-3.3-0.2-5c0.1-0.2,0.2-0.4,0.2-0.7c0.4-0.7,0.8-1.4,1.2-2.1   C391.8,582,391.8,584.6,391.8,587.2z" />
	<path fill="#918D7D" d="M391.8,579.4c-0.4,0.7-0.8,1.4-1.2,2.1c0-1.6-0.2-3.4,0.2-5C392.6,576.1,391.7,578.4,391.8,579.4z" />
	<path fill="#56534A" d="M392.3,562.5c0.1,1.9,0,3.3-0.7,5.2C391,565.6,390.9,564.2,392.3,562.5z" />
	<path fill="#31302B" d="M391.1,574.1c0.1-1.1,0.1-2.3,0.2-3.9c1.2,1.7,1,2.9,0.5,4.1C391.6,574.2,391.3,574.1,391.1,574.1z" />
	<path fill="#5C514A" d="M459.9,217.4c-0.1,1.6-0.1,2.5-0.2,3.6C458,219.4,458,219.3,459.9,217.4z" />
	<path fill="#191614" d="M450.1,90.7c-0.2-1.8,1.6-2.9,2.2-4.5c0.7-0.1,1.4,0,1.6-0.9c0.4-1,1.6-1.5,1.4-2.7   c0.3-0.8-0.3-1.8,0.8-2.4c0.1,0.2,0.3,0.3,0.4,0.5c1.8-2.7,3.5-6,3.5-9.4c2.5-2.1,1.5-6.1,3.6-8.3c0,0,0,0,0,0   c0.1,0.2,0.2,0.3,0.3,0.5c0.5-1.2,1.3-2.3,1.9-3.4c0,0.6,0,1.2,0.7,1.4C460.7,71,460.6,84.7,450.1,90.7z" />
	<path fill="#FDFDFD" d="M487.3,23.5c-2.1,2.1-4.2,4.2-6.4,6.4c-5.9-3.3-11.7-7.9-18.7-9.2c5.5-3.6,14.5-4.4,21.4-5.3   C486.5,17.3,487.7,20,487.3,23.5z" />
	<path fill="#CAB597" d="M455.2,82.6c0.2,1.2-1,1.8-1.4,2.7c-2.3-2.1-0.6-6.4-2.1-9c-0.4-1.3,0.3-2.7-0.7-3.8   c-0.4-1.3,0.3-2.7-0.7-3.7c-0.2-2.5-0.4-4.9-0.9-7.3l0.2,0.1c0.8-0.6,0.5-1.5,0.6-2.3c0.3-0.2,0.5-0.5,0.8-0.7   c1.4,1.3,1.1,3.4,1.8,5.2c0.8,0,1.4,0,2,0c1.7,5.3,2.7,10.8,2.2,16.4c-0.1,0.2-0.3,0.3-0.4,0.5c-0.1-0.2-0.3-0.3-0.4-0.5   c-0.3-2.6-0.6-5.2-0.9-7.8C454.6,75.8,453.9,79.5,455.2,82.6z" />
	<path fill="#EBD5B6" d="M465.8,60.1c-0.6,1-1.1,1.9-1.7,2.9c-0.2,0-0.4,0-0.6,0c-0.5-3.8-0.5-7.7-1.8-11.4c-1,2.8,0.9,5.5,0.3,8.4   c0,1.3-0.3,2.7,0.7,3.8c-0.1,0.5-0.1,0.9-0.2,1.4c-0.4-0.2-0.8-0.5-1.1-0.7c-0.7-10.5-2.6-21.5-0.3-31.9   C461.5,42.2,464.5,50.9,465.8,60.1z" />
	<path fill="#EBD5B6" d="M477.8,32.6c0.4,0,0.7-0.1,1.1-0.1c0.9,1.3-3.5,7.4-5.3,7.7c1.3,1.4,1.1,1.8-0.9,3c0.1,0.5,0.6,0.6,0.9,1   c0.2,1.7-1.1,1.6-2.1,1.9c0.2,0.3,0.4,0.6,0.6,0.9c-0.5,0.7-1.1,1.5-1.9,2.5c0.3-3.5-1.7-7.1,0.7-9.6c2.1-1.5,2.1-1.5,2.8-3.1   c-1.5,0.7-2.6,2-4.2,1.7l-0.1,0.1C470,35.2,475.3,34.4,477.8,32.6z" />
	<path fill="#E8D2B4" d="M465.8,35.5c0.2-0.2,0.3-0.3,0.6-0.3c-0.3,4.6,0.8,9.4-0.7,13.8l0.1-0.1c-0.2,0-0.5,0-0.7,0   c0-0.2,0-0.5-0.1-0.7c0.1-0.9,0.1-1.7-0.6-2.4c-0.4-1.3,0.3-2.7-0.7-3.7c-0.4-1.5,0.3-3.1-0.7-4.5c-0.5-2,0.5-4.2-0.8-6   c0-0.2,0-0.4-0.2-0.6c0-0.8,0.2-1.7-0.6-2.4c-0.2-1.7-0.1-3.4-0.1-5.1c0.3-0.3,0.6-0.5,0.9-0.8c0.6,0,1.2,0.1,2.1,0.2   c-0.3,6.2,0.6,12.5,1.4,18.8C466,39.6,465.9,37.5,465.8,35.5z" />
	<path fill="#8A7B67" d="M450.9,58.6c-0.3,0.2-0.5,0.5-0.8,0.7c0,0,0,0,0,0c0-0.6,0.1-2.6-0.8-1.5c-0.2,0-0.4-0.1-0.6-0.2   c-1.8-10.3-0.3-20.6,2-30.6c0,1.3,0.1,2.6,0.7,3.8C448.1,39.9,450.1,49.2,450.9,58.6z" />
	<path fill="#B9A58A" d="M451.7,86.1c-0.5-0.2-1.1-0.4-1.6-0.7c-1.4-3-3.3-5.4-2.8-9c-0.5-0.4-1.1-1-1.7-1.5c1.7-1-0.1-2.8-0.4-4.4   c-0.2,0.7-0.4,1.1-0.5,1.5c-0.4-1.1-0.8-2.2-1.3-3.2c2-1.4,0.8-4.2,2.8-5.5c0.5,1.6-0.3,3.2,0.4,4.7c1.1-1-0.1-2.6,1.1-3.4   c0,3.2,0.7,6.7-0.5,9.7c1.7,2.5,1.7,5.3,2.4,8.2c0.6,0.4,1.3,1,1.9,1.5l0,0C451.6,84.7,451.7,85.4,451.7,86.1z" />
	<path fill="#141312" d="M434.5,60.8c-0.2-1,0.7-1.1,1.4-1.7c0-4.5-1.8-9.4-0.6-13.9c0.5,0,0.9,0,1.4,0c0,0.3,0,0.5,0,0.8   c-1.6,1.6,0.4,4.9,1.3,6.6c-1.9,3.8,1.6,7.4,1,11.3c-0.3,0-0.6,0.1-0.8,0.1C436.9,62.8,436.4,60.8,434.5,60.8z" />
	<path fill="#BAA68A" d="M440.3,39.9c0.2-0.3,0.4-0.6,0.6-1c-0.4-0.3-0.7-0.5-1.1-0.8c1.4-3.2,3.5-6,7.3-7.6   c-0.8,3.3-1.2,5.7-1.4,8.7C443.8,39.1,442.2,40.3,440.3,39.9z" />
	<path fill="#C9B496" d="M446.4,51.2c0.7,2.3-3.2,4.9-1.4,6.7c-0.3,1.9-1.8,3.3-2.7,4.9c-0.2-0.6-0.4-1.1-0.7-1.8   c-0.2,0.5-0.3,0.9-0.5,1.2c-0.2,0-0.4,0.1-0.6,0.1c-0.5-4.6,1.3-8.3,4.9-11.3C445.6,51.1,446,51.1,446.4,51.2z" />
	<path fill="#EAD5B6" d="M466.4,46.9c0.1-4.1-0.2-8.2,0.1-12.3c3.5,5.5,0.8,13.8,1.6,20.3c-0.9,1.1-0.9,1.1-1.6,0c0.1-2-0.1-4-0.7-6   l-0.1,0.1C466,48.2,466.2,47.6,466.4,46.9z" />
	<path fill="#C6B193" d="M440.3,39.9c1.9,0.4,3.5-0.8,5.4-0.7c0,0.5,0,0.9,0.1,1.4c-3.5,1.1-6,4.6-9.1,5.3   C437.2,43.9,437.7,39.9,440.3,39.9z" />
	<path fill="#2B2721" d="M468.1,54.9c-0.8-6.5,2-14.7-1.6-20.3c0.7-0.7,1.5-1.4,2.2-2.1c-0.1,4.3,2.4,0.7,3.8,3   c-1.3,0.8-3.3,1.2-3,3C467.1,42.9,470.4,50.3,468.1,54.9z" />
	<path fill="#C0AC8F" d="M438.3,59.3c-0.2-3.2,3.6-12.1,7.3-13c0,1,0,1.7,0,2.5c-3.4,2.4-5.1,5.8-6,9.7   C439.1,58.8,438.7,59,438.3,59.3z" />
	<path fill="#C3AE92" d="M451.4,30.9c-2.4-4.5,1.3-8.1,5.8-8.1l-0.1,0c0.7-0.6,1.3,0,1.9,0.2c0,0.6,0,1.1-0.7,1.4   c-0.4-1.3-1.6,0.5-2.3,0.8c-0.1-0.4-0.2-0.8-0.3-1.5c-0.6,0.9-1.1,1.2-1.4,2C452.7,26.9,452.4,29.1,451.4,30.9z" />
	<path fill="#F0DABA" d="M470.4,26.4c1.5,0.5,2.7,1.2,3.5,2.7c-1.5,1.5-3.8,1.3-5.7,1.7c-0.3-1-0.6-1.9-0.2-2.9   C469,27.8,469,26.1,470.4,26.4z" />
	<path fill="#3C362D" d="M439.6,58.5c0.9-3.9,2.6-7.3,6-9.7c0.3,0.8,0.5,1.6,0.8,2.4c-0.4-0.1-0.7-0.1-1-0.2   c-3.6,3-5.3,6.6-4.9,11.3C439.1,61.7,439.9,59.7,439.6,58.5z" />
	<path fill="#9F8E76" d="M443.5,61c0.5-0.8,0.9-1.6,1.4-2.4c1,0.7,1.2-0.4,1.9-1.1c0.3,0.4,0.7,0.8,1.1,1.2c0,0.4,0,0.9,0,1.3   c-0.6,0.4-1.3,0.7-2.2,1.3c-0.7,1.7-1.4,3.7-2.2,5.6c-0.5-0.3-0.9-0.7-1.2-0.9C442.7,64.1,444.6,62.5,443.5,61z" />
	<path fill="#2B2720" d="M443.5,66.9c0.8-1.9,1.5-3.9,2.2-5.6c0.9-0.5,1.5-0.9,2.2-1.3c0.1,1.5,0.2,3,0.1,4.5   c-1.4,0.8-0.2,2.5-1.3,3.6c-0.7-1.5,0.1-3.1-0.4-4.7c-1.9,1.4-0.8,4.2-2.8,5.5c0-0.2-0.1-0.3-0.2-0.5   C443.4,67.9,443.4,67.4,443.5,66.9z" />
	<path fill="#26221D" d="M451.6,84c-0.7-0.5-1.4-1-1.9-1.5c-0.6-2.8-0.7-5.6-2.4-8.2c0.2-0.5,0.4-1,0.6-1.6   C450.7,75.5,450.8,80.3,451.6,84z" />
	<path fill="#DBC7AA" d="M470.9,34.6c-1.5,0.2-2.1,0.5-2.1-1.3c2.9,0,6.3-4.8,8.6-2C475.3,32.4,473.1,33.5,470.9,34.6z" />
	<path fill="#2B2826" d="M487.3,23.5c0.4-3.4-0.7-6.2-3.7-8.1c0.6-0.2,1.4,0,1.6-0.9c2.3,1.4,3,3.7,3.6,6.1   C487.5,21.2,489,23.2,487.3,23.5z" />
	<path fill="#E3CEB0" d="M458.4,24.3c0.7-0.2,0.7-0.8,0.7-1.4c1-0.8,2-1.3,3.1-0.2c-1.8,1.4-2.2,3.5-2.5,5.8   C458.8,26.8,456.9,25.8,458.4,24.3z" />
	<path fill="#7E7262" d="M474,31c-1.7,0.9-3.3,1.8-5.2,2.2c-0.1-0.8-0.4-1.6-0.7-2.4c1.4-0.2,2.9-0.4,4.3-0.7   C472.6,31.2,473.4,30.9,474,31z" />
	<path fill="#6A6152" d="M470.9,34.6c1.8-0.9,3.6-1.8,5.4-2.7c0.5,0.2,1,0.5,1.5,0.7c-1.9,0.7-3.5,2-5.3,2.9   C472.3,34.5,471.5,34.8,470.9,34.6z" />
	<path fill="#544B3E" d="M444.2,46.7c-1.7,1.4-2.8,3.3-3.7,5.2c-0.3-0.3-0.5-0.5-0.8-0.8c0.6-2.2,2.1-3.9,3.6-5.5l0.1,0.4   C443.7,46.3,444,46.5,444.2,46.7z" />
	<path fill="#26221D" d="M447.8,58.7c-0.4-0.4-0.7-0.8-1.1-1.2c-0.6,0.7-0.8,1.8-1.9,1.1c0.1-0.2,0.1-0.5,0.1-0.7   c0.5-0.8,1-1.6,1.5-2.3c-0.4-0.6-0.7-1-0.9-1.5c0.2-0.3,0.5-0.6,0.7-1C447.1,54.9,448,56.6,447.8,58.7z" />
	<path fill="#463F36" d="M462.1,31.6c1.7,2.3-0.2,4.6-0.2,7c-0.8-1.2-0.6-2.6-0.5-3.9C462.6,33.9,461.8,32.6,462.1,31.6z" />
	<path fill="#26221D" d="M451.7,86.1c0-0.7-0.1-1.4-0.1-2.2c1.1-0.5,0.5-1.6,0.9-2.4c0.6,1.2,0.1,3.2,1.4,3.8   C453.6,86.4,452.5,86.3,451.7,86.1z" />
	<path fill="#5B5144" d="M439.7,44.2c0.5-0.4,1.1-0.8,1.6-1.2c0,0.2,0,0.4-0.1,0.5c0.6,0.7,1.4,1.2,2.2,1.6   c-0.8,0.2-1.6,0.4-2.3,0.6C440.6,45.2,440.1,44.7,439.7,44.2z" />
	<path fill="#463F36" d="M465.8,35.5c0,2.1,0.2,4.1-0.2,6.2c-0.7-2-0.7-4.1-0.6-6.2C465.3,35.5,465.6,35.5,465.8,35.5z" />
	<path fill="#585044" d="M469.5,38.4c1.6,0.3,2.7-1,4.2-1.7c-0.6,1.6-0.6,1.6-2.8,3.1C470.5,39.4,470,38.9,469.5,38.4z" />
	<path fill="#463F36" d="M465.8,48.8c0.5,2,0.8,4,0.7,6c-0.9-1.7-0.8-4.1-1.4-6C465.3,48.8,465.6,48.8,465.8,48.8z" />
	<path fill="#9A8C78" d="M470.4,26.4c-1.3-0.3-1.4,1.4-2.4,1.6c-0.4-0.6-0.8-1.1-1.4-1.9C468.1,25.7,469.3,25.3,470.4,26.4z" />
	<path fill="#877965" d="M443.4,45.1c-0.8-0.4-1.6-0.9-2.2-1.6c0.8-0.2,1.5-0.3,2.3-0.5c0.5,0.5,1.1,1,1.6,1.5   c-0.5,0.5-1.1,1-1.6,1.5C443.4,45.8,443.4,45.4,443.4,45.1z" />
	<path fill="#26221D" d="M449.4,63c0.8,1.4,0.5,3,0.6,4.6C448.9,66.3,449.5,64.5,449.4,63z" />
	<path fill="#A19078" d="M445.1,44.5c-0.5-0.5-1.1-1-1.6-1.5c0.6-0.2,1.1-0.4,1.7-0.6C446,43.2,445.9,43.9,445.1,44.5z" />
	<path fill="#26221D" d="M448.7,57.7c0.2,0.1,0.4,0.1,0.6,0.2c0.1,1.2,0.1,2.5,0.2,3.7C448.1,60.8,448.8,59,448.7,57.7z" />
	<path fill="#463F36" d="M462.9,37.6c0.8,0.9,0.6,2,0.6,3.1C462.3,39.8,462.8,38.7,462.9,37.6z" />
	<path fill="#26221D" d="M451.7,76.4c0.8,0.9,0.6,2,0.6,3.1C451.1,78.6,451.7,77.4,451.7,76.4z" />
	<path fill="#26221D" d="M447.9,69.8c0-1,0-2,0-3c0.2,0,0.4,0,0.7,0C448.4,67.8,449.2,69,447.9,69.8z" />
	<path fill="#463F36" d="M464.4,45.8c0.7,0.7,0.7,1.5,0.6,2.4C464,47.6,464.3,46.7,464.4,45.8z" />
	<path fill="#463F36" d="M463.4,47.5c-0.7-0.7-0.7-1.5-0.5-2.4C463.8,45.8,463.6,46.7,463.4,47.5z" />
	<path fill="#463F36" d="M463.6,42.1c0.7,0.7,0.7,1.5,0.5,2.4C463.3,43.8,463.5,42.9,463.6,42.1z" />
	<path fill="#26221D" d="M451,72.6c0.7,0.7,0.7,1.6,0.5,2.4C450.5,74.4,450.9,73.4,451,72.6z" />
	<path fill="#463F36" d="M462.7,43.8c-0.7-0.7-0.6-1.5-0.5-2.4C463.1,42,462.9,42.9,462.7,43.8z" />
	<path fill="#26221D" d="M450.2,68.8c0.7,0.7,0.7,1.6,0.6,2.4C449.8,70.6,450.2,69.7,450.2,68.8z" />
	<path fill="#463F36" d="M465.7,57.9c-0.7-0.7-0.8-1.5-0.6-2.3C466.1,56.2,465.9,57,465.7,57.9z" />
	<path fill="#2B2720" d="M448.6,66.8c-0.2,0-0.4,0-0.7,0c0-0.7-0.1-1.4-0.1-2.2l0.1-0.1c0.2,0,0.4,0.1,0.7,0.1   C448.6,65.3,448.6,66,448.6,66.8z" />
	<path fill="#463F36" d="M464.2,51.2c-0.7-0.7-0.7-1.5-0.6-2.4C464.6,49.5,464.3,50.4,464.2,51.2z" />
	<path fill="#26221D" d="M448.6,64.6c-0.2,0-0.4,0-0.7-0.1c0-0.5,0-1,0-1.5C448.2,63.5,448.4,64,448.6,64.6z" />
	<path fill="#463F36" d="M464.9,54.3c-0.2-0.6-0.3-1.1-0.5-1.7C465.1,53,465.1,53.6,464.9,54.3z" />
	<path fill="#27231D" d="M436,45.2c-0.2,0-0.4,0-0.7,0c0.2-0.6,0.3-1.2,0.5-1.8C435.9,44,435.9,44.6,436,45.2z" />
	<path fill="#3C3835" d="M427.1,35.5c-0.5,0.2-1,0.4-1.6,0.7C425.8,35.3,426.4,35.3,427.1,35.5z" />
	<polygon fill="#E3CEB0" points="457.2,22.7 457.2,22.7 457.2,22.6  " />
	<path fill="#5C514A" d="M483.6,10.9c1.7-0.3,3,0.6,4.1,1.7c-1.1,0.4-1.1,0.4-2.9-0.9c-0.4,0.2-0.8,0.4-1.2,0.7   C483.6,11.9,483.7,11.4,483.6,10.9z" />
	<path fill="#060605" d="M483.6,10.9c0,0.4,0,0.7,0,1.1c-1,0.4-2,0.8-2.8-0.3C481.8,11.5,482.7,11.2,483.6,10.9z" />
	<path fill="#1A1812" d="M458.3,142.1c-1.2-0.8-0.5-2-0.7-3.1C458.4,140,458.3,141.1,458.3,142.1z" />
	<path fill="#1A1812" d="M457.4,138.4c-0.2-0.3-0.3-0.7-0.5-1C457.1,137.7,457.3,138.1,457.4,138.4z" />
	<path fill="#F6D9C7" d="M434.5,101.1c1,0.6,0.7,1.5,0.6,2.3C434.4,102.8,434.4,102,434.5,101.1z" />
	<path fill="#D1BEAE" d="M434.5,60.8c1.9,0,2.4,2,3.6,3.1c0.3,2,0.5,3.9,0.8,5.9c-0.2,0.5-0.5,1.1-0.7,1.6c-0.6-2.4-1.7-4.5-2.5-6.7   c-0.2,0-0.3,0.1-0.5,0.1c0.1,0.4,0.2,0.8,0.3,1.3l-0.2,0C433.9,64.7,434.6,62.6,434.5,60.8z" />
	<path fill="#887965" d="M439.6,58.5c0.3,1.2-0.5,4.2,1.5,3.7c-0.1,1.1,0.6,2.3-0.6,3.1c-0.1-0.6-0.2-1.3-0.4-2.4   c-1.2,2.6,0.4,3.1,1.9,4.6c-0.9-0.1-1.5,0.3-2.1,0.9c-1.3-3-0.5-6.1-1.6-9.1C438.7,59,439.1,58.8,439.6,58.5z" />
	<path fill="#5B5144" d="M442,67.5c-0.5-0.5-1-0.9-1.5-1.4c0-0.2,0-0.5,0.1-0.7c1.5-1.3,0-2.8,1-4.3c0.3,0.7,0.5,1.2,0.7,1.8   c0.4-0.6,0.8-1.2,1.3-1.8c1.1,1.5-0.8,3.2-1.3,5c0.3,0.2,0.8,0.6,1.2,0.9c0,0.5-0.1,1-0.1,1.5C442.9,68.1,442.4,67.8,442,67.5z" />
	<path fill="#443D37" d="M438.9,63.8c-0.1,2.7,1.1,4.8,2,7.4c-1.3,0.3-1.6-0.7-2.1-1.4c-0.3-2-0.5-3.9-0.8-5.9   C438.3,63.8,438.6,63.8,438.9,63.8z" />
	<path fill="#827461" d="M444.8,72.1c0.1-0.4,0.3-0.8,0.5-1.5c0.3,1.6,2.1,3.4,0.4,4.4C445.4,74,445.1,73.1,444.8,72.1z" />
	<path fill="#242221" d="M435.5,66.1c-0.1-0.4-0.2-0.8-0.3-1.3c0.2,0,0.3-0.1,0.5-0.1c0.1,0.4,0.3,0.9,0.4,1.3   C435.9,66,435.6,66,435.5,66.1z" />
	<path fill="#312B28" d="M395.7,479.5c1.3,1.5,1.3,1.5,1.7,5.8C395.4,483.7,395.3,481.8,395.7,479.5z" />
	<path fill="#534A44" d="M399.1,487c0.3,0.4,0.4,0.7-0.2,1C398.7,487.5,398.6,487.2,399.1,487z" />
	<path fill="#D3BD9E" d="M458.3,26.5c0.4,0.6,0.7,1.1,1.3,2c0.3-1.9,0.5-3.6,1.7-4.9c-5,16.8,0.7,35.5-2.4,52.7   c-1.9-7.1-2.9-14.8-4.3-22.1c0.3-0.3,0.5-0.6,0.8-0.9C457,45.2,456,35.1,458.3,26.5z" />
	<path fill="#564E43" d="M460,71.3c0.1-8.9-1.2-17.7-0.1-26.4c1.5,6.8-0.3,15.1,2.2,21.3C461.7,68.1,461.5,70,460,71.3z" />
	<path fill="#564D40" d="M457,67.3c1.5,2.8-0.1,6.2,1.9,8.9c-1.2,1.2-0.9,2.9-2,4c0.3-3.8,0-7.5-0.7-11.2   C456.4,68.4,456.7,67.9,457,67.3z" />
	<path fill="#BAA991" d="M462.8,63.8c-1.8-2.9,0.2-6.8-1.4-9.9c-0.3-0.6,0-1.4,0.3-2.2c1.3,3.7,1.4,7.5,1.8,11.4   C463.3,63.3,463,63.6,462.8,63.8z" />
	<path fill="#40392F" d="M455.2,82.6c-1.3-3.2-0.7-6.8-0.2-10.2c0.3,2.6,0.6,5.2,0.9,7.8C455,80.8,455.6,81.8,455.2,82.6z" />
	<path fill="#BAA991" d="M462.1,66.2c-0.8-0.3-0.9-1-0.7-1.7c0.4,0.2,0.8,0.5,1.1,0.7C462.4,65.5,462.3,65.9,462.1,66.2z" />
	<path fill="#BAA991" d="M463.6,63c0.2-0.1,0.4-0.1,0.6,0c-0.1,0.2-0.2,0.4-0.3,0.6C463.8,63.4,463.7,63.2,463.6,63z" />
	<path fill="#CFB99A" d="M450.9,58.6c-1.1-8.7-1.7-16.9,1.4-25.4c-0.3,10.6,0.7,20.3,2.4,30.6c-0.6,0-1.2,0-2,0   C452,62,452.2,59.9,450.9,58.6z" />
	<path fill="#39332B" d="M454.7,63.8c-0.2-2-0.5-4-0.7-6c0.2-0.5,0.5-1.1,0.7-1.6c1,3.7,1.8,7.4,2.3,11.1c-0.3,0.6-0.6,1.1-0.9,1.7   C455.7,67.3,455.2,65.5,454.7,63.8z" />
	<path fill="#8A7B67" d="M449.5,61.6c0-0.8-0.1-1.6-0.1-2.3c0.2,0,0.5,0,0.7,0.1l0,0C450,60.1,450.4,61,449.5,61.6z" />
	<path fill="#554C40" d="M459.9,44.9c-0.1,1.6,0.1,3.3-0.8,4.7c0-6.6-1.1-13.9,1.4-20.2c0.2,1.1,0.5,2.1,0.7,3.2   C459.8,36.5,460.5,40.9,459.9,44.9z" />
	<path fill="#2C2822" d="M461.2,32.6c-0.2-1.9-1.6-4.4,0-6c0.5,1.5-0.6,3.2,0.7,4.3c0.2,1.1,0.6,2.8-0.5,3.7   C461.3,34,461.3,33.3,461.2,32.6z" />
	<path fill="#463F36" d="M466.4,46.9c-0.2,0.7-0.4,1.4-0.7,2C466,48.2,466.2,47.6,466.4,46.9z" />
	<path fill="#463F36" d="M461.9,31c-1-0.6-0.6-1.5-0.6-2.4C462.2,29.3,461.9,30.1,461.9,31z" />
	<path fill="#4C4439" d="M452.5,37c-0.1-1.1-0.1-2.2-0.2-3.8c-1.4,4-2.1,7.5-2.2,11.2c-1.9-4.6,0.4-10.5,2.1-15c0.3,0.9,1,0.9,1.8,1   c0.1,2.3-0.2,4.5-0.8,6.7C452.9,36.9,452.7,36.9,452.5,37z" />
	<path fill="#CFB99A" d="M450.1,59.3c-0.2,0-0.5,0-0.7-0.1c0-0.5-0.1-0.9-0.1-1.4C450.2,56.7,450.2,58.8,450.1,59.3z" />
	<path fill="#BCA88C" d="M443.4,45.1c0,0.2,0,0.4,0,0.6c-2.2,2.5-4.9,5.7-4.9,9.2c0.5-0.1,0.8-0.1,1.2-0.2c-1.4,1.9-1.4,1.9-1.5,3.4   c-1-1.8-1-3.6-0.2-5.6c-0.3-0.6-0.7-1.2-1.1-1.9c0.3-1,0.6-2,0.8-2.6C439.8,46.6,441.1,45.5,443.4,45.1z" />
	<path fill="#27231D" d="M441.1,45.7c-1,0.7-2.1,1.4-3.4,2.3c-0.2,0.6-0.5,1.6-0.8,2.6c0-1.5-1.7-3.6-0.2-4.7c1.3,0.5,2-1.1,3-1.7   C440.1,44.7,440.6,45.2,441.1,45.7z" />
	<path fill="#9F8E76" d="M445.5,54.1c0.3,0.4,0.5,0.8,0.9,1.5c-0.4,0.7-1,1.5-1.5,2.3C443.5,57,445.3,55.3,445.5,54.1z" />
	<path fill="#26221C" d="M439.6,54.7c-0.3,0.1-0.7,0.1-1.2,0.2c-0.5-1.6,0.6-2.6,1.3-3.7c0.3,0.3,0.5,0.5,0.8,0.8   C440.2,52.9,439.9,53.8,439.6,54.7z" />
	<path fill="#25211C" d="M458.3,26.5c-0.7,5.5-2,10.9-2.3,16.4c-2.2-5.6,0.3-12,0.1-17.9c0,0-0.1,0.1-0.1,0.1   c0.7-0.2,1.9-2.1,2.3-0.8C457.9,25,457.3,25.7,458.3,26.5z" />
	<path fill="#181612" d="M453.9,30.3c-0.8,0-1.5-0.1-1.8-1c0.4-1.4,1-2.8,2.2-3.8l0.2,0.2C454.8,27.3,454.3,28.8,453.9,30.3z" />
	<path fill="#25211C" d="M454.7,25c0.3-0.4,0.6-0.8,1.1-1.5c0.1,0.7,0.2,1.1,0.3,1.5l0.1-0.1C455.7,25.3,455.1,25,454.7,25z" />
	<path fill="#181612" d="M454.7,25c0.3,0,0.6,0,0.9,0.1c0.1,0.2,0,0.5-0.1,0.7c-0.3,0-0.5,0-0.8,0l-0.2-0.2   C454.4,25.3,454.5,25.2,454.7,25z" />
	<path fill="#C9B395" d="M440.5,65.3c-0.1,0.2-0.1,0.5-0.1,0.7c-1.1-0.7-0.9-1.6-0.3-3.1C440.3,64.1,440.4,64.7,440.5,65.3z" />
	<path fill="#D8C3A6" d="M455.4,25.8c0.2-0.2,0.2-0.4,0.1-0.7c0.2,0.1,0.4,0,0.6-0.1c-0.5,9.4-2.5,18.7-0.7,28.2   c-0.3,0.3-0.6,0.8-1,1c-1.6-8.9-1.8-18,0.2-26.8C455.2,27,455.6,26.5,455.4,25.8z" />
	<path fill="#423B32" d="M455.4,53.2c-0.5-5.5-1.6-11-0.2-16.5C454.8,41.9,457.8,48.7,455.4,53.2z" />
	<path fill="#1B1814" d="M454.7,56.2c-0.2,0.5-0.5,1.1-0.7,1.6c-0.1-0.7-0.2-1.3-0.2-2c0.2-0.5,0.5-1,0.7-1.6l0.2-0.1   C454.7,54.8,454.7,55.5,454.7,56.2z" />
	<path fill="#494237" d="M454.5,54.2c-0.2,0.5-0.5,1-0.7,1.6c-1.8-5.9-1.5-12.6-1.2-18.8c0.2,0,0.4,0,0.7,0   C452.9,42.7,453.6,48.5,454.5,54.2z" />
	<path fill="#25211C" d="M455.4,25.8c0.2,0.7-0.2,1.2-0.7,1.6c0-0.5,0-1.1-0.1-1.6C454.9,25.8,455.1,25.8,455.4,25.8z" />
</g>
</svg>