<?xml version='1.0' encoding='utf-8'?>
<svg xmlns="http://www.w3.org/2000/svg" version="1.2" baseProfile="tiny" id="Layer_2_00000152223783640621169830000000434742706799156645_" x="0px" y="0px" viewBox="0 0 900 600" overflow="visible" xml:space="preserve">
<g>
	<path fill="#010101" d="M487.2,584.7c-2.2-2.6-5.9-0.8-8.6-2.9c-4.9-3.3-6.1-11.5-4.1-16.7c1-5.9,7.2-4.3,10.1-8.8   c2.4-5-0.1-12.7,7.6-13.9c0.3-1.5,0.7-3.2,1-4.9c2.3-3.1-0.9-8.9,1.5-11.9c2.1,9.8-1.3,19.4-1.5,29.1c1.2,1,2.5,1.7,4.1,1.4   c3.6-4.2,8.5-0.2,12.5-3.6c1.6-33.5,19.5-66.2,14.7-100.2c-4.3-12.9-10.2-25.5-10.4-39.3c1-1,1.2-2.1,0.5-3   c-11.8-1.4-23-2.6-34.7-4.6c-0.4,9.6,3,18.5,5.1,27.6c-0.3,0.8,0.3,1.9-0.8,2.4c-5.1-9.5-5.8-19.7-6.2-30.2   c-5.8,0.3-11.2,3.6-17.4,3.7c-1.5,3.5-3,7-2.5,11c-0.8,8.7-4.4,17.1-2.6,26.1c2.4,19.9,6.9,42.3-4,60.4c-3.2-3.2,5.9-15.8,5.3-20.6   c-1.2-3.1,0.2-6.3-0.4-9.5c0.4-4.9-4.2-14.2-0.8-17.4c0.4-9.1-5.5-16.9-4-26c0.4,0.3,0.7,0.5,1.2,0.9c0.8-8.3,3.3-16.1,5-24.3   c-13.2,1.9-26.8,1.1-39.8,4.2c-0.2,6.4,2,13.9-0.3,19.6c-2.6-6-3.2-12.4-1.9-19c-4.5,1-8.8,3.3-13.2,1.4c0-2.6,0-5.1,0.2-7.7   c0.2,0,0.5,0,0.7,0c0.2,2.1-0.2,4.4,0.3,6.4c0.2-0.1,0.3-0.3,0.5-0.4c21.6-6.8,44.8-4.3,66.5-9.6c-0.4-9.5-2.2-18.9-2-28.4   c1-16.8,6.9-33,3.5-50c0.2,0,0.5,0,0.7,0.1c0.1,1.9,0.1,1.9,1.5,2.2c-0.6,7.7,2.1,15.3,0.2,22.9c-0.5,2.8-1.1,5.6-0.2,8.4l0.1,0   c-0.4-0.1-0.9-0.2-1.4-0.3c-1.6,14.6-3.3,30.5,1.3,44.4c10.1-0.3,20.5,0.1,30.4,2.1c5.5,0.4,12.5,2.8,17.3-0.4   c-3.8-31.7,3.4-63.4-2.4-94.8c-1.1-13-7.1-25.4-6.3-38.5c14,43.3,11.6,90,10.9,134.9c-2.3,2.1-2.3,2.1-7.8,3.2   c-0.3,15.4,7.3,29.1,10.5,43.8c4.2,34.7-12.6,67.3-15.1,101.3c9.3,4.1,4.4,25.6,9.4,36.5c-3.7,8.4-37.2,8.5-34.2-4.4   C488.4,585.8,488.4,585.7,487.2,584.7z M477.5,564.4c-0.8,1.5-1.6,3-2.3,4.3c1.7,18.1,12.6,6.5,14,17.5c-0.8,2.7,0.4,4.5,1.8,6.1   c9.2,1.7,19.3,3.6,27.8-0.8c-0.3-1-0.6-1.9-0.9-2.8c0.2-0.6,0.4-1.1,0.5-1.6c-4.4-5.3,0.5-26.1-7-26.2c-0.5-1.4-1.1-2.9-1.5-4.2   c-3.3,0-6.3,0-9.5,0c-0.7,1.3-1.3,2.5-1.9,3.7c-3.7,0-5.1,3-6.7,5.3c-4.1,1.4-4.9-5-2.9-7.3c2.5-3.8,2.3-8.4,2.9-12.8   c-4.7,0-3.6,6.8-2.9,9.6c-3.2,3.2-5.4,6.7-10.3,7.1C478.2,563.1,477.8,563.8,477.5,564.4z M495.1,559.1c-1.7-0.7-1.9-1.6-3.3-1   c0.1,1.2-1.1,2.2-0.5,3.8C492.5,561,493.5,560.2,495.1,559.1z" />
	<path fill="#020202" d="M450.6,504.7c0,0.7,0,1.4,0.9,1.6c-5.4,16.7-4.2,34.7-6.1,52.1c0.7,0.1,1.5,0.3,2.3,0.4   c1.2,2.2,2.6,6.8,0.6,8.7c-0.7-2.3-1.3-4.7-2.5-6.8c-3,0.3-5.7,0.6-8.5,0.9c-0.6,2.2-1.3,4.1-2.1,6c-2.1,1-3.9,1.7-5.9,2.6   c-5.1-2.4-5-7.9-8.7-11.5c0.4-2,0.8-4,1.2-6.4c-0.8,0-1.3,0.1-1.7,0.1c-1,2.8-1.9,5.3-2.8,7.7c-6.3,1.2-5.9,8.7-10.9,11   c-1.5,0.5-3,1.2-4.7,0.8c-3.2-0.2-4.1,4.9-7.1,5.9c-2.8-8.9,8.8-7.4,13.3-12.2c1.5-3.2,4.4-5.5,7.6-7.9c0.6-4.4,2-7.2,6.6-8.4   c2.1-21.1-4.1-41.6-7.3-62.3c0.2-11.3-1.3-22.7,0.4-34c1-6.6,4-13.3,2.5-19.9c1.3-0.8,0.6-2.7,0.9-4c2.1,18-3.3,35.9-1.1,54.1   c3.2,16.1,4.6,32.4,7.3,48.6c3.2,2.2,0.3,7.5,0.7,10.8c0.8,4.6-0.6,8.8-1.4,13.5c1.9,1.6,3.7,4,6.4,3.8l0.2,0.2   c1.5,0,2.9,0.7,4.4,0.9c1.2-1.4,2.7-1.9,4.3-1.9c0.9,0.5,1.8,0.9,2.9-0.2C447.7,541.3,441.1,520.8,450.6,504.7z M426,561.4   c0.5,0.5,0.9,1.1,1.4,1.6c0,2,0.9,3.5,2.7,4.5c1.4-0.5,2.7-1.1,4.1-1.6c0.2-0.8,0.4-1.4,0.6-2.1c-2.4-0.6-4.8-1.1-7.2-1.7   C427.3,561.4,426.6,561.4,426,561.4c-0.3-1-1-1.6-1.9-1.9C424.4,560.9,424.4,560.9,426,561.4z" />
	<path fill="#020203" d="M402.9,381.6c-0.8-29.5-1-59.1-0.1-88.5c0.5-10.3,9.5-18.1,11.4-28.3c0.1-4.8,4.6-8.8,4.2-13.2   c1.1-0.9,1.9-1.6,2.8-2.3c-3.5-25.9-5.3-51.9-13.3-77.1c0.8-1,1.9-1.4,3-1.7c0.3,0.3,0.6,0.6,0.9,0.8c-0.5,0.5-1,1-1.4,1.3   c7.5,24.5,10.2,49.8,13.5,74.8c12.2-2,25.3-2.2,37.8-0.7c0,0.3,0,0.5,0.1,0.8c-2.4,0.1-4.9-0.6-7.3,0.5c-0.2,1-0.3,1.9-0.6,3.7   c-0.4-1.9-0.6-3-0.8-4.2c-3.5-0.1-7-0.4-10.3,0.1c-0.3,0.5-0.5,0.8-0.8,1.2c-0.4-0.6-0.7-1.1-0.9-1.4c-3.6-0.6-6.2,0.9-9.5,0   c-0.5-0.2-0.9,0.3-0.8,0.9c0.8,0.3,1.5,0.6,2.4,0.9c0.2,1.7,0.8,3.2-0.3,4.7c-0.3-0.2-0.6-0.6-0.8-0.6c-3.5,0.2-2.2-3.4-3.7-5.2   c-0.5,0.2-1,0.5-1.6,0.8c0.2,1.6,0.4,3.1,0.7,4.9c-0.8-0.5-1.4-0.9-1.7-1.1c-0.5,0.4-0.8,0.7-1.2,1c-1.3-1.2,0.9-3.7-1.4-3.9   c-1.9,2.7,0.5,6.9-3,9.1c-0.7-0.1-1.3-0.3-2.1-0.4c-1.5,5-2.3,10-5.4,14.3c0,0.2-0.1,0.4-0.2,0.6c-0.8,0.3-0.7,1-0.6,1.6   c-9,17.3-7.5,38.6-6.9,57.4c-0.5,20.9,0.1,41.1-0.8,61.9C402.2,390.7,405.1,385.1,402.9,381.6z" />
	<path fill="#050404" d="M524.6,128.7c4.6,16.7-3.6,32.5-10.5,47c-0.3,0-0.5,0-0.8,0l0.1,0.1c-0.2-6.4,4.1-11.8,6.1-17.9   c-15.3-14.2-25.2-33.6-32-53.1c0.3-0.2,0-0.3-0.2-0.5c0-1.2-0.1-2.5-0.1-3.7c1.3-0.8,1.4-1.9,0.9-3.1c0.9,0.3,3,2.1,3.9,2.8   c-0.6,0.4-1.2,0.8-1.7,1.2c-0.4-0.4-0.7-0.9-1.5-1.8c3.9,17.8,18.9,43.9,31.9,56.8c2.4-6.6,2.2-13.8,2.5-20.8   C525,133.7,522.5,130.2,524.6,128.7z" />
	<path fill="#050504" d="M406,168.2c-7.9-14.8-7.5-32-8.5-48.2c-4.6-18.6-22.2-32.3-23.8-52.4c0.4-0.7-0.4-1.8,0.7-2.3   c3.3,16,12.3,29.1,21.1,42.5c8.8,18.4,3.1,41.6,11.8,60.3c-0.3,0.3-0.5,0.6-0.8,0.8c0,0,0,0,0,0C406.4,168.8,406.2,168.5,406,168.2   z" />
	<path fill="#060505" d="M448.3,567.4c1.3-0.5,0.7-1.7,1-2.6c1.9,10.4,4.2,20.3,6.8,30.6c-10.4,7.2-26,5.3-36.8-0.4   c-5-3.1-11.7-1.6-16.1-6.1c-2.5-2.9-6.9-4.9-7.9-8.6c0.3-0.3,0.5-0.6,0.8-0.9c5.5,3.3,9.1,10.4,16.1,10.6   c10.9,2.8,21.9,10.8,33.6,6.1c0.6,0.4,1.2,0.7,1.7,0.9c2.2-0.7,4.5-0.7,6.5-2.5c-0.5-2.7-1.3-5.6-2.4-8.3   C448.1,580.4,450.1,573.6,448.3,567.4z" />
	<path fill="#060606" d="M514.9,274.2c-0.9-0.7-0.8-1.6-1.4-2.5c-0.1,0.9-0.2,1.8-0.2,2.8c-0.2-7.4-4-12.8-7.3-18.9   c-1.3-2.5-0.4-6.4-3.8-7.5c2.1-23.1,1.1-51.5,11.2-72.2c0,0-0.1-0.1-0.1-0.1c-5,23-7.9,46.5-8.7,70.3c0.9,0.7,1.7,1.4,2.7,2.2   C506.5,257.9,514.9,264.5,514.9,274.2z" />
	<path fill="#060505" d="M510.4,17.6c7.5,8.2,14.7,18.5,18.4,29c-2,10.3,0.1,21.1-2,31.5c-1.6-23.9-0.3-39.4-17.3-59.5   C509.8,18.2,510.1,17.9,510.4,17.6z" />
	<path fill="#060606" d="M490.9,506.2c-4.4-10-12.6-57.7-4.5-63.4c0.9,11.7-1.6,23.6,0.3,35.2C487.9,487.1,493.2,497.6,490.9,506.2z   " />
	<path fill="#0B0908" d="M409.6,9.4c19.4-1.9,39.7-1,58.9,0.6c-12.8,3.7-27.4,0.7-40.8,0.5C421.7,9.4,415.2,11.9,409.6,9.4z" />
	<path fill="#0F0C0C" d="M372.3,62.3c-4.1-13.7-2.4-30,1.1-43.3c1.2-2.3,4-2.3,6.2-2.7c5.8,0.4,11.9-3.6,17.4-1.9   c-7.2,3.8-17.2,1.1-23,6.6c-0.2,8.6-1.9,17.8-1.9,26.3C371.9,52.2,374.4,57.9,372.3,62.3z" />
	<path fill="#090808" d="M525.9,68.1c0.5,3.1-0.9,7.4,0.9,9.9c-0.1,14.6,8.9,31.1-2.2,43.9c0,2.4,0,4.6,0,6.9   c-2.1,1.5,0.4,5-1.6,6.7c0-3.5-0.2-7,0-10.4c1-1.1,1-1.1,0-2.2C532.8,105.5,522.5,86.2,525.9,68.1z" />
	<path fill="#1B1312" d="M468.5,10c-0.6-0.2-1.2-0.5-1.8-0.7c6.4-2.2,12.1-6.2,18.5-8.1c3.9,2.8,8.3,2.7,12.8,2.7   c3.1,2.6,5.9,4.1,8.1,7c-3.6,0.5-5.6-3.2-8.4-5.1c-4.1-0.3-8.4,0-12.7-0.8c0-0.6,0-1,0-1.5C479,4,474.7,9.2,468.5,10z" />
	<path fill="#1E1715" d="M505,10.9c0.4-0.1,0.8-0.1,1.1-0.2c1.3,2.3,2.7,4.6,4.2,6.8c-0.3,0.3-0.6,0.6-0.9,0.9   c-1.2-1.5-2.4-3-3.5-4.4c-3.1-0.8-5.4-2.4-8.4-3.3c-0.4,0.4-0.8,0.7-1.3,1.2c1,0.4,1.9,0.8,2.8,1.2c0.7,1.4,2.5,2.6,1.4,4.8   c-0.6,0.3-1.3,0.7-2.1,1c0-0.3,0-0.5,0-0.8c1.6-1.9,0.2-3-0.8-4.3c-3.1-0.1-6.4,0.3-8.9-1.5c-1-0.1-1.9-0.1-2.9-0.2   c-0.5-1-1.6-0.4-2.4-0.8c1.1-0.3,2.2-0.6,3.3-0.9c-0.1-0.5-0.2-0.8-0.3-1.2c5.7,1.3,11.5-0.9,16.6,1.8C504.3,12,504.3,12,505,10.9z    M491.8,11.8c1,0.4,1.1,0.7,1.8,0.2C493.1,11.3,492.8,11.7,491.8,11.8z" />
	<path fill="#1B1918" d="M490.9,506.2c1.2-0.5,0.6-1.6,0.8-2.4c1.9,7.2,2.8,14.3,2.9,21.7c-2.4,3.1,0.9,8.8-1.5,11.9   C493.8,527,491.4,516.7,490.9,506.2z" />
	<path fill="#2A292C" d="M402.9,381.6c1.8,8.3,0.9,17.5,0.7,26.1c-0.2,0-0.5,0-0.7,0C403.1,399.1,402.5,390.3,402.9,381.6z" />
	<path fill="#352928" d="M396.9,14.5c-0.6-0.2-1.1-0.5-1.7-0.7c4.7-1.5,9.5-3.2,14.4-4.3c0.5,0.3,1.1,0.5,1.6,0.8   C406.6,11.4,402.1,14.4,396.9,14.5z" />
	<path fill="#2F2B2A" d="M486.4,442.8c-0.5,0-1,0-1.5,0c-0.3-2.5-0.5-4.9-0.8-7.4c1.1-0.5,0.5-1.6,0.8-2.4   C485.7,436.3,487.2,439.4,486.4,442.8z" />
	<path fill="#40403F" d="M372.3,62.3c1.1-1,0.7-2.5,0.8-3.8c0.4,2.3,0.9,4.6,1.3,6.8c-1.1,0.5-0.4,1.6-0.7,2.3   C373.2,65.9,372.7,64.1,372.3,62.3z" />
	<path fill="#48413E" d="M406.6,169c0.3-0.3,0.5-0.6,0.8-0.8c0.5,1,1.1,1.9,1.6,2.9c-0.3,0.3-0.7,0.7-1,1   C407.5,171.1,407,170.1,406.6,169z" />
	<path fill="#2A292C" d="M402.8,409.8c0,1.9,0,3.8,0,5.7C401.6,414.1,402.2,411.5,402.8,409.8z" />
	<path fill="#3D4144" d="M396.1,579.4c-0.3,0.3-0.5,0.6-0.8,0.9c-0.8-0.7-0.7-1.5-0.5-2.4c0.4-0.3,0.9-0.5,1.3-0.8   C396,577.8,396.1,578.6,396.1,579.4z" />
	<path fill="#CECEDC" d="M487.3,586.8c0,1.2,0,2.5-0.1,3.7C486.1,588.9,486.1,588.2,487.3,586.8z" />
	<path fill="#CCD2E9" d="M513.4,178.7c0-1-0.1-2-0.1-3c0.3,0,0.5,0,0.8,0C514,176.7,514.6,177.9,513.4,178.7z" />
	<path fill="#CECEDC" d="M487.2,584.7c1.2,1,1.2,1.1,0.1,2.1C487.2,586.1,487.2,585.4,487.2,584.7z" />
	<path fill="#48413E" d="M406,168.2c0.2,0.3,0.3,0.5,0.5,0.8C406.4,168.8,406.2,168.5,406,168.2z" />
	<path fill="#9D9595" d="M507,232.5c0.1,0.2,0.2,0.2,0.3,0.3c-0.1,0.1-0.2,0.1-0.3,0.2C507,232.9,507,232.7,507,232.5z" />
	<path fill="#5876E8" d="M505.9,255.4c3.4,6.1,7.1,11.6,7.3,19c1.5,15.5,6.5,30.5,8.2,46c-1.8,5.6,0.4,12.4-0.9,18.3   c-0.9,6.4-6.9,11-8,16.9c3.8-4.7,6.9-9.6,8.5-15.5c2.9,6.3,0.9,12.9,0.4,19.4c-0.6,15.2-1,30.4,0.7,45.5   c-9.4,4.1-21.2-1.1-31.2-1.7c-0.5-1.2-1.6-2.4-0.1-3.7c3.7,8.8-2.5-14.4-3.6-15.9c0.2-14.8-2-29.6-3.6-44.2   c4.2,7.7,3.9,18.6,9.5,25.5c0.5-5.5-1.1-11.3,0.6-16.2c1,1.3,1.2,3.1,2.7,4.1c-1.3-5.8-6.7-11.6-6.6-18.2c-1.5-6.6-6.9-12-7.2-18.8   c0.1-2.4-0.5-6-2.8-7.1c-1,0.1-0.7,2.1-2.4,1.4c0.2-4.8-1-10.4-3.6-14.5c-1.3-3,2.5-6.5,0.7-8.9c0.3-7.2-1.1-14.2-1.4-21.3   c0.1,0,0.2,0,0.3,0c1,3.2,1.8,6.3,3.7,9c-0.8-5.3-2.4-10.8-4.4-16c-0.6-0.2-1.2-0.3-2.1-0.5c1.5,10.8,2.4,21.1,3.2,31.9   c-0.6,0.8-1.1,1.5-1.6,2.1c0.2,1.1-0.3,2.3,0.6,3.1c0.3,9.9-0.4,19.9,0.7,29.7c-3.3,1.3,0.8,14.2-0.1,18.2   c-4.2,20.3-5.8,40.4-2.7,61.1c-3.7,2.4-8,1.4-12,2.1c0-21.7,11.3-42.2,9.3-64.1c-1.8,22-10.1,42.4-10.8,64.1   c-13.5,2.7-28.1,1.3-41.1,4.4c1.6-17.2,14.6-30.7,13.1-48.6c-4.1,7.2-4.9,15-9.2,21.9c1.6-24.9,6.2-49.9,15.7-73   c0.8-3.6,4-6.8,3.1-10.6c-6.3,7.7-10.8,16.6-14.8,25.6c0.7-19.9,4.1-40,11.5-58.6c1.5-2.6,1.8-6.4,2.1-9.5c-0.1-1.3-1.4-0.7-2-1.4   c0-0.4,0-0.9,0-1.3c0.5,0,0.8-0.1,1.3-0.1c0.3-2.2-1.6-4.5-0.2-6.9c1.1,0,2.3,0,3.2,0c1.2,1.1,2.2,1.9,3.6,3.1   c-0.1-1.4-0.2-2.2-0.3-3c1.7-0.5,3.4-0.2,5.1-0.2c0.9,11.2-3.6,24.6,0.4,35.4c5.5-11.1,3.8-24.4,2.5-36.2c0.5,0,1,0.1,1.7,0.1   c0.2,1.1,0.4,2.2,0.8,4.2c0.3-1.8,0.5-2.7,0.6-3.7c2.6-1,5.5-0.8,8.1-0.2c0.9,1.5,1.5,3,1.9,4.7c0.4-1.3,0.3-2.7,0.5-4.2   c3-0.5,5.8,0,8.5,0c0.2,2-0.2,4.2,1.8,5.8c1.3-1.7-0.9-3.4,0.5-5.1c1.4,0,3,0,4.6,0c1.1,1,0.5,2.7,1.5,3.8l0,0   c0.1,0.4,0.1,0.8,0.2,1.2c-1.6,7.7,2.7,17,4.9,24.4c0.7-3.7-0.6-6.7,0.9-9.9c1.7,1.9,0.1-6.2-0.6-6.8c-0.3-2.1-1.6-3.8-3.1-5.1   c0,0,0,0,0,0c0.2-0.8-0.3-1.8,0.8-2.3c0.3,0.1,0.5,0.2,0.8,0.3c0.5-1.9-0.5-3.7,0.3-5.4c0.5,0,0.9,0.1,1.2,0.1   c0.2,1.9,0,3.7,2.3,5.1c-0.3-2-0.5-3.6-0.7-5.2c2.9-0.9,2.7,3,3.7,5c0.2,1.3,1.4,0.7,2.1,1c1.1,1.6,1.7-0.6,2.1-1.5   c0.6,1.3,1.3,2.1,2.4,0.6c0.4,0,0.9-0.1,1.3-0.1c0.5-1.7-0.3-3.5,0.7-5.1c0.4,0.4,0.6,0.6,0.9,0.8c-1.4,1.7-1.3,6.7,1.8,5.8   C504.7,254.9,505.3,255.3,505.9,255.4z M466.9,258.6c0.5,5.9-2.2,17.4,0.1,21.6c-0.4-7.7,2.2-16.4,0-23.7   C466.2,257.2,466.3,257.8,466.9,258.6z M444.6,269.7c0.3-3.5,2.2-9.8-0.1-12.3c-1.2,3.6-0.1,8.3-0.5,12.3c-0.2,3-1.8,5.9,0.6,8.4   C444.6,274.9,444.6,272.3,444.6,269.7z M444.7,388.4c-1.6,0.9-3.5,1.2-5.3,2.7c13-1.7,19.7-16.9,16.2-28.6   C455.3,372.5,454,382.9,444.7,388.4z M456.3,269.4c0.3-5.2,2.3-8.3,1.4-13.2C455.6,259,455.2,265.6,456.3,269.4z M469.9,254.4   c-0.9-1.6,0.3-3.9-2.2-5.7C467.9,251.2,468,253.1,469.9,254.4z M434.9,288.9c0.1-1.2-1.5-6.4-3-5.1   C433,285.4,433.2,287.4,434.9,288.9z M439.2,252.8c0.1-1.3,0.9-2.8-1-3.7C437.6,250.6,438.1,251.8,439.2,252.8z M458.2,249.2   c-0.3,1.5,0.7,2.5,1.1,3.6c0.2-1.3,0.6-2.6-0.1-3.9C458.8,249,458.5,249.1,458.2,249.2z M495,276.6c0.4-1.6,0.8-3.3,0-5.6   C494.5,273.3,494.7,275,495,276.6z M472.5,253.6c0.2,0,0.3,0,0.5,0c-0.1-1,0.7-4.9-1.4-3.4C471.9,251.3,472.2,252.4,472.5,253.6z    M518,363.6c1.3-1.4,1.3-1.4,1.2-3.1C518.2,361.4,517.5,362.2,518,363.6z" />
	<path fill="#FBDFD3" d="M431,560l-0.3,0.1l-0.2-0.2c0.3-7.2,2-15.5,0-22.2c-1.2,0.7-0.6,2.6-2.3,3.1c0.1-14.6-1.5-28.9-1.6-43.5   c-6.3-20.1-6.7-41.6,0.4-61.6c3.9,3.3,5.1,8.7,10.2,10.5c0.3-6.4-0.2-12.3-4-17.6c-0.7-0.9-1.7-1.9-1-3.1c5.1-2.3,9.7-4.7,14.7-6.6   c0.6,1.4,0.3,3.3,2,3.8c0.9-1.6,0-3.1,0.2-4.5c2-1.5,3.9-3.1,6.5-3.7c0.7,5.8-1.8,11.4-2.7,17c-0.5-0.5-1-1-1.5-1.5   c0.1-0.2,0-0.4-0.1-0.6c0.1-1.1-0.3-2-1.2-3c-0.9,1.9-0.3,3.2,0.5,4.5c0,0.2,0,0.4,0.1,0.6c-0.1,0.9-0.1,1.7,0.6,2.4   c-0.1,8.8,4.5,16,4.3,24.7c-3.4,3.2,1.1,12.6,0.8,17.4c0.4,6.9,0.5,13.2-2.8,19.6c-1.4-0.5,0.1-2.6-1.5-2.8   c-2.2,3.4-2.1,7.9-5.1,10.9c-0.2,0.3,0,0.8,0,1.4c1.8-0.7,2.4-2,2.9-3.4l0.1,0.1c1.5,2.4-0.1,5.7-2.1,7.5   c-5.1,15.9-1,33.5-5.6,49.6c-1.9,1.7-3.3-0.4-5.1-1.1c0.8-3.9,2.1-14.8-0.8-17.7c-2.7,6.4-2.2,12.9-2.3,19.6   C432.9,559.8,431.9,559.9,431,560z M436.4,460c0.9,1.5,1,2.9,2.8,3.7c-0.4-2.9-2.3-6.1-4.8-6.4C435.1,458.3,435.8,459.1,436.4,460z    M438.2,496.3c-1.9,3.3-3.6,7.2-3.8,10.9C438,505.6,437.8,499.9,438.2,496.3z M439.6,485.2c1.8-1.9,1.5-3.2,0.9-5   C439,481.7,439.4,483.1,439.6,485.2z M438.3,490.2c1.6-0.5,1.4-1.3,0.7-3C438.6,488.7,438.5,489.4,438.3,490.2z M444.1,508.4   c0.9-0.5,1.7-0.9,1-2.1C443.8,506.7,443.5,507.3,444.1,508.4z M439.5,476.4c0.5-1.7,0.5-1.7-0.6-1.9   C439.1,475.1,439.3,475.7,439.5,476.4z" />
	<path fill="#FBDFD3" d="M514.1,413.1c0.2,13.8,6,26.5,10.4,39.3c4.7,34-13.1,66.7-14.7,100.2c-1.7,1.4-3.4,1.8-5.4,1.3   c-0.5-5.4,1.1-11.1-1.2-16.2c-2.2,2.1-1.7,5.2-3.3,8.2c0.4-15.6-2.3-29.5-0.7-44.9c1.9,1.5,2.6,2.4,4.9,2c0.4-0.8,0.8-1.6,1.1-2.2   c-9.5-19.1-16.2-23.5-13.5-47.4c-0.4-0.6-0.9-1.1-1.3-1.7c0.5-5.1,1-10.5,2.5-15.5c3,2.7,3.6,7,7.6,8.7c3.3-18-18.2-22.6-12.1-31.9   c3.4,0,6.6,0,9.7,0c2.7,5.5,3.6,11.5,6.5,17.2c3.3-4.5,2.9-12.3-0.1-16.7c0-0.2,0.1-0.5,0.1-0.7c2.4,0,4.9,0.2,7.2-0.7   C512.4,412,513.6,411.9,514.1,413.1z M512.7,493.4c-0.1-0.9-0.1-2-1.5-2.1c-0.5,1.9,0.8,5.7,3,6.6   C513.6,496.1,513.2,494.8,512.7,493.4z M512.5,449c1.6,5.5-0.2,12,1.7,17c1.6-4.5,0.1-20.4-3-23.8   C510.2,444.7,512.3,446.6,512.5,449z M512.9,467.5c-0.7,1.9-0.2,3.6-0.1,5.5C514.4,470.3,514.4,469,512.9,467.5z M506,496.3   c1.6-2.4,2-3.7,1.5-5.4C506.1,492.5,505.4,494.1,506,496.3z M501.1,429.3c0.2-1.1,0.9-2.2-0.5-3   C499.6,427.6,500.5,428.3,501.1,429.3z M511.7,479.9c-0.2,0-0.3,0-0.5,0c-0.2,0.7-0.2,1.3,0.1,2c0.1,0,0.2-0.1,0.4-0.1   C511.7,481.2,511.7,480.5,511.7,479.9z" />
	<path fill="#4B65C5" d="M435.7,268.2c-7.7,18.3-10.5,38.3-11.4,57.9c4.1-9,8.5-18,14.8-25.6c-1.2,10.3-7.7,20-10,30.6   c-5.8,17.1-7.1,35.3-8.9,53.1c4.2-6.9,5-14.7,9.2-21.9c1.5,17.8-11.5,31.3-13.1,48.6c-3.8,1.9-7.9,2.2-11.9,3   c-0.2-0.1-0.4-0.2-0.6-0.2c-0.2-13.1,1.1-26.1,1.5-39.3c3-3,3-6.6,5.1-10.8c0,2.3,0,3.9,0,5.5c-1.7,5.4-0.7,13.3,0.8,18.7   c0.7,7.6-2.1,16.2,0.5,23.2c1.7-22.4-4.5-45.1,4.7-66.4c1.9-4.7,3.6-9.8,3.6-15.2c-3,8.3-4.3,15.9-7.5,24   c-1.6-6.8-0.4-15.5-2.8-22.2c1.1-6.1,5.6-12.1,4.7-18.4c-1.4,3.8-1.5,7.3-3.9,10.8c-0.3-1.5,0.4-2.8-1-3.5c-1.8,4,0.5,9.9-2.8,13.3   c-4.4-1.2-0.5-9.3-2-13.1c-0.8-16.1,0.8-32.7,8-47.1c0.2-0.1,0.4-0.1,0.7-0.2c-0.4,8.5-2.4,18.2-0.6,26.3c3.3-7.9,0.2-17,1.7-25.6   c-0.4-0.2-0.8-0.5-1.2-0.7c0-0.3,0-0.5,0-0.8c2.7-4.1,3.4-8.7,4.8-13.4c0.8,0.2,1.4,0.3,2.1,0.4c3.5-2.2,1-6.3,3-9.1   c1,0,1.4,0.7,1.1,1.5c-1.1,5.6,5.7,2.4,8.6,2.6c1.1-1.5,0.5-3,0.3-4.7c-0.8-0.3-1.6-0.6-2.4-0.9c-0.1-0.7,0.4-1.1,0.8-0.9   c3.3,0.9,5.9-0.6,9.5,0c0.2,0.3,0.5,0.8,0.9,1.4c0.3-0.5,0.5-0.8,0.8-1.2c2.2-0.4,4.5-0.2,6.9-0.1c-0.4,0.2-0.8,0.5-1.1,0.7   c-1.7,0-3.4-0.3-5.1,0.2c0.1,0.9,0.2,1.7,0.3,3c-1.4-1.2-2.4-2.1-3.6-3.1c-0.9,0-2.1,0-3.2,0c-1.4,2.4,0.5,4.6,0.2,6.9   c-0.5,0-0.8,0.1-1.3,0.1c0,0.5,0,0.9,0,1.3c0.5,0.7,1.9,0.2,2,1.4c-0.6,0-1.1-0.1-2-0.1C436,261.3,434.2,265.2,435.7,268.2z    M428.2,266.6c-0.1-1.7,3-6.5,0.1-6.3c-0.2,4.1-3.3,9.2-1.7,12.7C427.1,270.8,427.7,268.7,428.2,266.6z M410.8,306.3   c-2.1,2.3-1.1,4.7-1,7C410.5,311.1,411.6,309,410.8,306.3z" />
	<path fill="#EECABA" d="M456,417c-0.1-0.7-0.2-1.4-0.3-2.4c-2.7,0.6-4.6,2.2-6.5,3.7c-0.7-1.8-0.9-2.7-0.9-5   c-1.1,2.1-0.4,3.5-1.4,5.6c-5.1,1.9-9.6,4.3-14.7,6.6c-0.7,1.1,0.4,2.2,1,3.1c3.8,5.3,4.4,11.2,4,17.6c-5-1.7-6.3-7.1-10.2-10.5   c-7.1,20-6.7,41.5-0.4,61.6c0.1,14.6,1.7,28.9,1.6,43.5c1.6-0.5,1-2.4,2.3-3.1c2,6.8,0.3,15,0,22.2c-2.7,0.2-4.6-2.3-6.4-3.8   c0.8-4.7,2.2-8.9,1.4-13.5c-0.4-3.3,2.5-8.6-0.7-10.8c-2.6-16.2-4.1-32.5-7.3-48.6c-1.4-23.5,3.5-46.3,0.5-69.8   c13-3.1,26.6-2.3,39.8-4.2C457.2,412.1,456.8,414.4,456,417z" />
	<path fill="#EECABA" d="M504.2,413.7c3,4.4,3.5,12.1,0.1,16.7c-2.9-5.7-3.7-11.7-6.5-17.2c-3.1,0-6.3,0-9.7,0   c-6.1,9.2,15.4,14,12.1,31.9c-3.9-1.8-4.6-6.1-7.6-8.7c-1.4,5-1.9,10.3-2.5,15.5c0.4,0.5,0.9,1.1,1.3,1.7   c-4.3,0.8-1.1,7.9-2.3,11.1c-1,5.9,0.4,12.5,3.8,16.9c0-1,0-1.9,0-2.7l0.1-0.1c2.2,8.5,9.8,13.6,11.9,22.3   c-0.3,0.6-0.7,1.4-1.1,2.2c-2.3,0.4-3-0.5-4.9-2c-1.6,15.4,1.1,29.3,0.7,44.9c1.5-3,1.1-6.1,3.3-8.2c2.4,5.1,0.8,10.8,1.2,16.2   c-3,0.5-4.8-0.3-7.1,2.3c-1.6,0.2-2.9-0.4-4.1-1.4c4.7-26.6-0.9-52.9-6.9-78.9c-1.4-13.1,1.7-26.5-0.4-39.4   c-2.3-10.3-6.3-20.3-6-31.1c11.7,2,22.9,3.2,34.7,4.6c0.7,1,0.5,2-0.5,3c-0.6-1.2-1.8-1.1-2.6-0.8c-2.4,0.8-4.8,0.6-7.2,0.7   c-0.4-0.6-0.7-1.2-1-1.7c-3,0.1-0.7,6.7-0.9,9C504.7,418.5,503.1,416,504.2,413.7z M496.9,497.4c0,0.9,0.3,1.5,1.4,1.8   c0.4-2.4-1.6-2.7-2.9-4.4C495.8,496.5,495.8,496.5,496.9,497.4z M494.5,488.9c0.5-3.3,0.4-3.8-1.4-5.8   C491.7,484.7,493.3,487.3,494.5,488.9z M493.9,490.6c0.6,1.1,1.3,2.2,2,3.5C495.6,491.4,495.6,491.4,493.9,490.6z M502.9,421.6   c-0.3,0-0.5,0-0.8,0c0.1,0.5,0.1,1,0.2,1.5c0.1,0,0.3,0,0.4,0C502.7,422.6,502.8,422.1,502.9,421.6z" />
	<path fill="#4B65C5" d="M493.8,348.9c-1.7,4.9-0.1,10.7-0.6,16.2c-5.6-6.9-5.2-17.8-9.5-25.5c1.4,13.9,3.9,28.1,3.4,42.2   c-5.4-15.5-4.6-32.3-10-47.9c2.2,22.1,6.7,44.6,13.7,65.8c-1.5,1.3-0.4,2.5,0.1,3.7c-5.6,0-11.1,0-16.5,0   c-4.5-13.8-2.9-29.8-1.3-44.4c0.5,0.1,0.9,0.2,1.4,0.3c2.3,13.7,2,27.8,4.2,41.4c1-13.7,0.3-28.5-4.2-41.4   c-0.9-2.8-0.3-5.6,0.2-8.4c1.9-7.7-0.8-15.3-0.2-22.9c1.8-3.5-0.1-7.5-0.3-11.1c-0.4-6.7,0.8-13.4,0.4-20.3   c1.8,4.3,3.3,9.1,2.9,13.7c1.8,0.7,1.5-1.2,2.4-1.4c2.2,1.1,2.8,4.7,2.8,7.1c0.3,7.8,7.5,13.8,7.4,21.7c-3.3-4.8-4.3-11.2-7.5-15.7   C483.8,331.5,489.8,340.2,493.8,348.9z" />
	<path fill="#E4E4EB" d="M477.5,564.4c0.3-0.6,0.7-1.3,1-1.9c4.9-0.4,7.1-3.9,10.3-7.1c-0.6-2.8-1.8-9.7,2.9-9.6   c-0.6,4.3-0.4,8.9-2.9,12.8c-1.9,2.3-1.2,8.6,2.9,7.3c1.6-2.3,3-5.3,6.7-5.3c0.6-1.2,1.2-2.3,1.9-3.7c3.2,0,6.2,0,9.5,0   c0.4,1.2,1,2.7,1.5,4.2c7.5,0.1,2.6,21,7,26.2c-0.2,0.6-0.7,2-0.8,2.6c-8.8-1.1-18.5,4.1-25.3-3.6c0-2.9,0-5.9,0-8.5   c-2.8-4.4-6.9,0.5-13-3.4C478.4,570.9,477.2,567.8,477.5,564.4z M511,584.5c0.1-1.9,0.1-3.9,0.2-5.8c1.3-1.6-0.4-10.1-2.3-4.6   c-0.3-0.2-0.6-0.4-0.9-0.7c0.2-1.6,0.4-3.3-0.5-4.8c-0.6-2.2,0.5-4.8-1.6-7.1c-1.5,7.9,3.8,14.4,2,22.3c-1.1,1.4-1,3.7,0.8,4.3   c0.1-1.6-0.2-2.8,0.2-4.2c0.1,0,0.4,0,0.6,0c0.1,0.9,0.1,1.7,0.2,2.7C510.9,586.1,511.2,585.4,511,584.5z" />
	<path fill="#CECEDC" d="M477.5,564.4c-0.3,3.4,0.9,6.5,1.9,9.9c6.1,3.9,10.2-1,13,3.4c0,2.6,0,5.6,0,8.5c6.8,7.8,16.5,2.6,25.3,3.6   c0-0.2,0.1-0.6,0.2-1.1c0.3,0.9,0.6,1.8,0.9,2.8c-8.5,4.4-18.6,2.5-27.8,0.8c-1.4-1.7-2.6-3.4-1.8-6.1c-1.4-11-12.4,0.6-14-17.5   C475.9,567.4,476.7,565.9,477.5,564.4z" />
	<path fill="#182141" d="M474.6,296.6c0.5,6.8-0.8,13.5-0.4,20.3c0.3,3.6,2.1,7.6,0.3,11.1c-1.5-0.3-1.5-0.3-1.5-2.2   c1-9.4-0.9-20,0.1-29.9c0.3,0,0.6,0,0.8-0.1C474.1,296,474.4,296.3,474.6,296.6z" />
	<path fill="#27305A" d="M522.2,342.9c-0.3-0.9-0.7-1.8-1.1-2.8c-1.7,5.9-4.7,10.8-8.5,15.5c1.1-5.9,7.1-10.5,8-16.9   c1.3-5.9-0.9-12.7,0.9-18.3C521.4,328,521.6,335.4,522.2,342.9z" />
	<path fill="#A08E86" d="M452,492.9c1.7,0.2,0.2,2.3,1.5,2.8c-0.4,2.7-1.9,5-2.9,7.5c-0.2-0.5-0.5-1-0.7-1.5   C451.3,499,452.6,496.2,452,492.9z" />
	<path fill="#ABB1B1" d="M495.1,559.1c-1.6,1.1-2.6,1.9-3.8,2.8c-0.6-1.6,0.6-2.6,0.5-3.8C493.2,557.5,493.4,558.4,495.1,559.1z" />
	<path fill="#364680" d="M457.4,406.3c0.1-2-0.4-4.2,0.7-6c0.2,0.2,0.5,0.5,0.7,0.8c0,1.8,0,3.5,0,5.3   C458.3,406.3,457.8,406.3,457.4,406.3z" />
	<path fill="#3D322F" d="M451.3,434c-1.2-1.1-0.6-2.7,0.1-3.9c0.5,0.5,1,1,1.5,1.5c0,0.6,0,1.1,0,2c-0.5-0.4-0.8-0.7-1.2-0.9   C451.5,433.1,451.4,433.6,451.3,434z" />
	<path fill="#4B65C5" d="M417,410.7c0.6-1,1.5-0.7,2.3-0.6C418.7,410.8,417.9,410.8,417,410.7z" />
	<path fill="#4B65C5" d="M473.6,324.9c-0.2,0.3-0.4,0.6-0.6,0.8c-0.2-0.1-0.5-0.1-0.7-0.1C472.4,324.9,473,324.9,473.6,324.9z" />
	<path fill="#2A292C" d="M403.7,413.6c0.2,0,0.4,0.1,0.6,0.2c-0.2,0.1-0.3,0.3-0.5,0.4C403.8,414,403.8,413.8,403.7,413.6z" />
	<path fill="#E4E4EB" d="M448.3,567.4c1.8,6.2-0.2,12.9,3.2,18.8c1.1,2.3,1.7,4.6,1.1,7.1c-9.3,1.4-17.9,0.1-27-2.6   c-5.5-0.4-10.3-6.1-15.8-4.3c-3.1-2.8-6.1-5.4-9-8c-0.3-2.1-0.6-4-0.9-5.9c0.5-0.8,1.3-0.8,2-0.7c8.9,1.5,8.1-10,15.6-11.8   c0.9-2.4,1.8-5,2.8-7.7c0.5,0,1-0.1,1.7-0.1c-0.5,2.3-0.9,4.4-1.2,6.4c3.7,3.6,3.5,9.2,8.7,11.5c2-0.8,3.8-1.6,5.9-2.6   c0.8-2,1.5-3.8,2.1-6c2.8-0.3,5.5-0.6,8.5-0.9C447,562.8,447.6,565.2,448.3,567.4z M446.3,574c-0.1-0.6-0.2-1.1-0.4-1.7   c-0.2,0-0.3,0-0.5,0c0,0.8-0.1,1.6-0.1,2.4c-0.2,0-0.3,0-0.5,0c-2.3-3.5,0.5-10-3.3-12c0.5,9.8,3.8,18.2,4.1,27.9   c2.2-4.4,0.9-9.4,1.2-14.2C447,575.6,447,574.7,446.3,574z" />
	<path fill="#CFCEDC" d="M399.9,572.6c0.3,1.9,0.6,3.9,0.9,5.9c2.9,2.6,5.9,5.2,9,8c5.5-1.8,10.3,3.9,15.8,4.3c9,2.7,17.6,4,27,2.6   c0.1-1,0.2-2,0.3-2.9c1.2,1.3,0.2,2.9,1,4.1c-2,1.8-4.3,1.8-6.5,2.5c-0.5-0.3-1-0.6-1.7-0.9c-11.7,4.7-22.7-3.3-33.6-6.1   c-7-0.2-10.5-7.4-16.1-10.6c0-0.8,0-1.5,0-2.3C397.3,575.6,398.6,574.1,399.9,572.6z" />
	<path fill="#EECBBB" d="M431,560c1-0.1,1.9-0.2,3.1-0.3c0.1-6.7-0.4-13.2,2.3-19.6c2.9,2.9,1.6,13.8,0.8,17.7   c0.8,0.5,1.5,0.9,2.2,1.3c-1.6,0-3.1,0.5-4.3,1.9C433.7,560.7,432.3,560.4,431,560z" />
	<path fill="#F0F2F2" d="M427.5,562.2c2.4,0.5,4.8,1.1,7.2,1.7c-0.2,0.8-0.4,1.3-0.6,2.1c-1.3,0.5-2.7,1.1-4.1,1.6   C428,566.4,426.9,564.4,427.5,562.2z" />
	<path fill="#323636" d="M426,561.4c-1.6-0.5-1.6-0.5-1.9-1.9C425,559.9,425.7,560.4,426,561.4L426,561.4z" />
	<path fill="#768282" d="M427.5,562.2c-0.1,0.3-0.1,0.6-0.2,0.9c-0.5-0.5-0.9-1.1-1.4-1.6l0,0C426.6,561.4,427.3,561.4,427.5,562.2z   " />
	<path fill="#CCD2E9" d="M513.4,175.7c-10.3,21.1-8.7,48-11.3,71.4c-18.2,0.4-36.3-0.6-54.4-1.4c-2.4-1.7-6.4-0.1-9.1-0.8   c-5.2-19.7,0.1-40.4-2.1-60.4c0.4-0.1,0.9-0.2,1.5-0.3c0-0.9-0.1-1.6-0.1-2.3c-0.1,0-0.2,0-0.5,0c-0.3,0.6-0.6,1.2-1,1.8   c-1.7-0.2-0.8-2.8-2.5-2.7c-1.8,3.8-3,7.7-2.6,12.8c-4.4-10.1-6.9-20.7-10.6-31.1c4.7-7.2,7.8-15.2,11.3-23c0.5-0.3,1-0.5,1.5-0.8   c0,0,0,0,0,0c5.2,3.1,12,3.6,16.4-1.8c-4.1-3.3-9-6.1-14.6-5.2c0.7-10.9,3.5-21.9,2.8-33.1c2,7.7,6.1,13.7,12.7,18.1   c-0.4,0.3-0.7,0.5-1.2,0.8c2.5,0.4,5.2-1.1,7.4,0.8c2.1,6.4,2.8,12.9,3.8,19.3c0.8,0.3,1.8,0.6,2.8,0.9c1.5-0.9,2.2-1.9,3.3-3.2   c0.8,0.7,1.6,1.3,2.4,2c6.5-6.5-0.9-12.7-2.1-19.6c0.8-1.2,1.8-0.6,2.8-0.5c0.7,0.9,1.6,0.7,2.6,0.4c-0.6-0.4-1.2-0.8-1.7-1.1   c1.3-0.9,2.6-1.7,3.8-2.5c2.5,1.3,4.6,3,7.5,2.3c1.2-3.1,0.1-5.7-2.5-7.7c2.6-3.5,4.1-7.1,6.2-10.9c5.3,21.9,16.7,43.9,33.4,59.7   C517.5,164,513.2,169.3,513.4,175.7z M494.7,141.4c-0.6-0.3-1-2-1.5-0.9c-0.2,0-0.5,0-0.7,0c-1.8-5-6.3-8.8-11.5-9.5   c-4,4.3,3.6,10.8,8.4,10.3c1.2-0.1,1.6,1,2.5,1.6c0.8,0,1.8,0,2.8,0c0.5,1.6,0.5,1.6,2.2,1.9C496,143.6,495.4,142.5,494.7,141.4z    M467.8,236.9c0.1,0.8,0.1,1.7,0.2,2.5c0.2,0,0.3,0,0.5,0c8.6-21.9,4.4-45.9,1.5-68.7c-1.6-9.9,2.2-22.6-5.9-30.2   c-10.6,9.3-1.6,44.6,0.8,57.7C465.8,211,465.1,224.7,467.8,236.9z M434.2,148.3c1.4-0.7,3.9-4.8,1.1-5   C435.3,144.1,432.1,149.7,434.2,148.3z M490.7,196.2c-0.1,4.2-0.4,8.2-2,12.6C492.4,206.5,492.3,200,490.7,196.2z M499.1,150   c1.7,3.2,1.9,3.4,4.4,3.9C502.4,152.4,501.6,150.9,499.1,150z M444.6,163.8c-0.4-1.7-0.7-3-1-4.2c-1-0.2-1.2,1-1,1.4   C443.3,161.7,442.5,163.4,444.6,163.8z M455,126.2c-0.9-1.1-1.1-4-2.6-3c0.5,1.2,1,2.4,1.5,3.7C454.2,126.8,454.5,126.6,455,126.2z    M490.3,185.2c-1,1.3-1.1,2.4-0.5,3.9C491,187.8,491.3,186.8,490.3,185.2z M482.1,121.4c-1-1.9-2.4-2-4.1-2.5   C479.1,120.8,480.4,120.9,482.1,121.4z M507.8,156.7c-1.2-1.2-1.2-1.2-2.2-0.6C506.6,157,506.6,157,507.8,156.7z M438.4,178.5   c0.6-1.2,0.3-2-0.9-2.6C437,177.1,437.3,177.8,438.4,178.5z M474.8,117.8c0.6,1.1,1.2,1.7,2.5,0.9   C476.7,117.8,476,117.2,474.8,117.8z M437.8,171.5c-1.6,1.2-1.6,1.2,0,2.5C437.8,173.1,437.8,172.3,437.8,171.5z M489.8,182.2   c0.7-0.3,1.4-0.6,0.8-1.7C489.7,180.8,489.1,181.1,489.8,182.2z M427.4,155.6c0.4-0.4,0.9-0.7,1.4-1.1   C427.6,153.7,427.4,154.6,427.4,155.6z M447.3,171.1c0.5-1-0.1-1.4-0.8-1.8C445.9,170.3,446.7,170.6,447.3,171.1z M504,190.9   c-0.9,0.9-0.9,0.9-0.6,1.6C504,192.1,504.6,191.7,504,190.9z M489.4,193.2c1-1.1,1.2-1.7,0.2-2.5   C489.6,191.5,489.5,192.1,489.4,193.2z M445.6,119.2c-0.2,0.2-0.1,0.3,0.1,0.5c0-0.2,0.1-0.3,0.1-0.5   C445.8,119.2,445.7,119.2,445.6,119.2z" />
	<path fill="#EECABA" d="M409,171.1c-11.1-19.3-4.1-43.8-13.4-63.2c-14.8-20.7-26.7-45.3-22.8-71.4c1.5-6-2.4-18.9,6.9-18.1   c-0.1,3-1.7,6-0.9,9c-0.4,0.1-0.7,0.1-1.1,0.2c-0.7,2.2-0.4,4.3,0.4,6.4c-0.4,0.1-0.7,0.2-1.2,0.4c-0.7,11.3,1,21,5.4,30.9   c0.6-1.4,1.1-2.4,0.5-3.7c0.2-0.2,0.5-0.4,0.7-0.6c-0.3-0.3-0.5-0.6-0.8-0.9c1-1.5,1.3-0.1,1.8,0.3c2.4-2.5,4.8-5.1,7.3-7.7   c1.5,10.4-3.2,21.5-1.6,32.3c1.3,1.3,1.6,3.3,3.5,4c0.9-3.6,3.2-6,6.1-8.2c1.3,6.2,1.9,12.3,1.6,18.3c3.3,4.1,7,9.7,3.9,14.6   c0.7,8.8,8.5,13.8,11.6,21.6c1.1,5.4-6.1,2.8-8.1,0.1c3,8.3,5.8,16.7,10.4,24C416.5,163.7,414.3,169.5,409,171.1z M397.6,86.9   c-0.5,0.7-1.4,1.3-0.7,2.3c1.7-1.4,2.3-3,1.6-4.2C398.2,85.6,397.9,86.3,397.6,86.9z M409,130.1c-0.4-0.5-0.7-1.1-1.8-0.9   c0.9,1,2.6,5.8,4,2.9C410.5,131.5,409.8,130.8,409,130.1z M395.3,98.2c0-0.7,0-1.4,0-2c-1.3-0.1-1.4,0.5-1.3,1.3   c-0.4,4.6-0.4,4.6,1.2,5.5C395.6,101.3,395.4,99.8,395.3,98.2z M383.2,79.8c0.4-3.4-0.5-6.1-0.7-9.2   C380.2,72.5,380.3,78.3,383.2,79.8z M396.7,91.7c-1.7,0.1-3.1,3.3-1,3.3C396.4,94.1,396.5,93,396.7,91.7z M404.1,122.5   c-0.3,1.3-0.3,1.3,1.1,1.4C404.8,123.4,404.5,123,404.1,122.5z M382.9,69.7c1-1,0.9-1.7-0.2-3.2C382.8,68.1,382.8,68.8,382.9,69.7z    M383.6,65.2c0.2,0,0.3,0,0.5,0C384,63.9,383.6,63.9,383.6,65.2z M406.4,126c-0.1-0.1-0.2-0.2-0.2-0.2c-0.1,0.3-0.4,0.5,0,0.7   C406.3,126.3,406.4,126.2,406.4,126z" />
	<path fill="#B7BDD5" d="M436.5,184.7c2.2,20-3,40.7,2.1,60.4c2.6,0.7,6.7-0.9,9.1,0.8c-8,0.2-15.9-0.1-23.6,1.6   c-3.4-25-6-50.4-13.5-74.8c3.3-3.2,6.9-6.5,10.2-9.7c3.7,10.3,6.2,21,10.6,31.1c-0.4-5.1,0.8-9,2.6-12.8c1.6-0.1,0.8,2.5,2.5,2.7   C436.4,184.2,436.4,184.4,436.5,184.7z M436,189.4c-1.6,0.8-1.8,8.6,0,9.4C436,195.5,436,192.5,436,189.4z" />
	<path fill="#4A64C3" d="M405,332.4c0.6,0.3,1.1,0.5,1.7,0.8c0,0.6,0.1,1.2,0.1,1.9c0.2,0,0.3,0.1,0.5,0.1c0.3-0.6,0.6-1.2,0.9-1.8   c0.4,0,0.7,0.1,1.4,0.2c0.7,12.8,2.7,26.9-4.5,38.1C405.1,358.5,405,345.5,405,332.4z" />
	<path fill="#141B35" d="M405,354.8c0,5.6,0.1,11.1,0.1,16.8c4.2-8.6,7-18.7,10.5-27.9c0.2,0.2,0.5,0.4,0.7,0.7   c-2.8,9-6.1,17.9-5.3,27.5c-1.5-2.7-0.4-4.9-0.7-8.4c-2.1,4.2-2.1,7.8-5.1,10.8C403.8,368.3,403.8,360.7,405,354.8z" />
	<path fill="#4861BE" d="M432.9,254c-2.6-0.5-6.4,2.2-8.3-0.1c0.3-0.3,0.7-0.6,1.2-1c0.4,0.2,0.9,0.6,1.7,1.1   c-0.3-1.8-0.5-3.3-0.7-4.9c0.6-0.3,1.1-0.6,1.6-0.8c1.4,1.7,0.2,5.4,3.7,5.2C432.3,253.4,432.6,253.8,432.9,254z" />
	<path fill="#0C0D19" d="M448.6,248.1c0.8-0.7,1.8-0.8,2.9-0.8c-0.2,1.7-0.4,3.5,0.6,5.1c-0.6,0.4-1.2,0.7-1.8,1.1   c-0.3-0.3-0.6-0.7-1-1.1C448.9,251,448.7,249.6,448.6,248.1z" />
	<path fill="#4C1B1D" d="M461.8,246.7c3.9,0,7.7-0.4,11.5,0.5c-3.5,0.2-7.2-0.3-10.7,0.6c-0.3-0.1-0.5-0.2-0.8-0.3   C461.8,247.2,461.8,246.9,461.8,246.7z" />
	<path fill="#302627" d="M415.7,167.6c-1.3,1.2-2.6,2.4-3.8,3.6c-0.3-0.3-0.6-0.6-0.9-0.8c1.3-1.2,2.6-2.4,3.8-3.6   C415.1,167.1,415.4,167.4,415.7,167.6z" />
	<path fill="#12182F" d="M412.5,273.5c-0.2,0.5-0.4,1.1-0.6,1.6C411.8,274.4,411.7,273.8,412.5,273.5z" />
	<path fill="#12182F" d="M413.3,272c0,0.3,0,0.5,0,0.8c0,0,0.1,0,0.1,0c-0.2,0.1-0.4,0.1-0.7,0.2C412.9,272.6,413.1,272.3,413.3,272   z" />
	<path fill="#FBDFD3" d="M498.4,19c0.7-0.4,1.5-0.7,2.1-1c1-2.3-0.7-3.4-1.4-4.8c1.7-2.3,4.7,0.6,7,0.9c22.6,26,19.6,40.9,19.6,72.4   c3.4,13.1,1.5,26-2.6,38.4c-0.5,10.4,1,21.2-2.5,31.2c-7.7-6.3-12.4-15.1-17-23.7c1.1-1.8,3.5-0.1,5-1.2c-0.5-4.4-5.7-6.7-9.6-7   c-4.8-7.7-9.2-15.8-10.3-24.9c1.4,1.5,1.7,2.1,2.3,3.7c0.7-0.1,1.2-0.2,1.8-0.3c1.8,1.4,4,3,6.5,2.8c1.3,0.7,2.5,1.4,3.8,2.1   c0,2.9,1.9,4.6,5.1,4.7c2.4,1.7,2.5,4.9,2.4,7.7c2.6-5.2,8.1-11.7,7.1-17.6c-0.9,0.9-1.4,1.5-1.2,2.4c-0.7,1.2-1.4,2.5-2.1,3.7   c-1.5-2.4-1.4-5.9-3.8-8.3c-1.4-1.3,0.1-3.5-1.6-4.4c-9.5-6.5-8.1-6.9-20.7-6.9c-1.7-6,5.7-9.1,7.7-13.6c-0.5-3.8,2.6-7,1.9-11   c-0.3-2.6,1.6-5.2-0.1-7.4c4.2-4,9.3-7.2,12-12.4c-1.2,0.4-1.9,0.9-2.2,1.8c-14.8,15.1-32.3,13.6-41.2,36.4   c8.9,1.8,5.3,11.7,10,17.2c-0.7,2.7-1.4,3.7-0.1,6.2c-5.4,0.8-3.9-8.6-7.8-8.7c-1.1,1.9,0.2,3.4,0.3,5.1c-10.5,9.1-2.4,21.5-4,33.4   c-0.8,0-1.7,0-2.6,0c0.6-6.3-2.2-11.4-3.8-17.2c-0.5-3.2,1.2-7.2-1.6-9.5c0-1,0-1.9,0-2.9c0.9-0.6,0.8-1.4,0.7-2.3   c-1.1-4.3,5.2-5.2,2.1-9.2c0.8-1,2.1-1.9,1.2-3.7c-0.5,0.4-0.8,0.7-1.2,0.9c-1.6-2,0.2-4.9-2.7-6.6c-1.8,2.1-2.8,4.3-3.9,6.7   c-2-1-1.6-3-2.2-4.4c4.8-7.2,8.2-15.5,10.4-24l0,0c1.7-1.2,3.1-2.9,4.5-4.5c0,0,0,0,0,0c1.2-1.3,3.4-0.9,4.3-2.6   c-1-0.5-2.4,0.4-3.5,0.5c-0.5-1.9,2.1-3.9,2.2-6c0.4-0.4,1.3-1.1,1.4-1.5c0-7.9,8.4-17,15-19.4c0.1,0.4,0.2,0.8,0.3,1.6   c0.8-1,1.3-1.6,1.9-2.2c-0.4-0.4-0.7-0.9-1.1-1.3c1.5-2.9,4.4-4.3,4.6-7.9C493.6,21.2,498.2,24.3,498.4,19z M521.5,89.2   c-0.3-0.8-0.7-1.6-2-1.3c1.4,2.2,1.7,4.7,2.4,7.2C524.6,94.6,522.5,90.6,521.5,89.2z M507.3,22.2c-3.2-0.6-5.4-0.2-9,1.7   C506,23.5,506,23.5,507.3,22.2z M509,43.2c2.7-1.2,3.6-3.3,3-6C510.8,39,509.8,40.7,509,43.2z M495.3,25c-2.7-0.2-3.8,0.7-5.2,2.1   C492.2,27.4,493.4,26.6,495.3,25z M516.5,83.6c-0.1,2.1-0.1,2.1,1.7,2.4C518.1,84.9,517.7,84,516.5,83.6z M473.6,45.6   c-1.4-0.1-2.1,0.4-1.7,1.9C472.5,46.7,473,46.2,473.6,45.6z M483.3,33.5c-1-0.3-1.5-0.1-1.7,1.1C482.4,34.8,482.9,34.3,483.3,33.5z    M461.2,89.1c0.1,0,0.3,0,0.4,0c0-0.5,0-1-0.1-1.5c-0.1,0-0.3,0-0.4,0C461.2,88,461.2,88.5,461.2,89.1z M510.1,77.4   c-0.8,0.8-0.2,1.6,0.7,1.1C510.5,78.2,510.3,77.8,510.1,77.4z M514.5,80.5c-0.4-0.3-0.7-0.4-0.9,0.2C513.9,81,514.2,81,514.5,80.5z   " />
	<path fill="#050404" d="M491.6,80.2c-1.9,4.5-7.7,8.1-7.1,13.1c1.9,1.2,5.7,5.2,2.6,7.1c-0.3-0.7-0.6-1.3-1.1-2.3   c-2.1,3.9-3.6,7.4-6.2,10.9c2.6,2,3.7,4.6,2.5,7.7c-3,0.7-5.1-1-7.5-2.3c-1.5,1-3.3,2-4.7,3.3c-1.8-0.8-3,0.2-3.6,2   c-1.2-1.9-0.3-4.8-2.2-5.5c0.1,1-0.4,1.7-0.8,2.5c0.1-2.1-1.9-5.2-0.1-6.7c3,3.6,5.5,7.1,10.1,3.4c-0.3-0.9-0.9-2.1,0.3-2.6   c2,1.8,4.3,3.1,7.2,3.5c0.1-0.6,0.2-1.1,0.4-1.7c-2.4-1.6-4.2-3.7-5.3-6.3c-0.7-2.1,1.8-4.3,0.1-6.2c-4.7-5.5-1-15.4-10-17.2   c7.2-17.7,18.8-21.3,33.6-29.6c0.3,0.3,0.6,0.6,0.9,0.9c-3.7,3.9-8.7,5.4-13.4,8c-0.6,3.9,0.4,13.9,3.4,16.3c0.3-0.2,0.7-0.3,1-0.5   l-0.1-0.1C491.6,78.7,491.6,79.4,491.6,80.2z M488,82.5c0.2-0.3,0.4-0.5,0.6-0.8c0-0.5,0.2-1.1,0-1.3c-3.2-3.7-1.8-8.6-3.9-12.8   c-0.8,1.9-1.5,3.4-2.1,4.7c0.6,5,1.1,9.7,1.7,14.8c1.7-1.3,1.9-2.5,2.9-3.9l0,0C487.5,83,487.7,82.7,488,82.5L488,82.5z    M481.2,80.2c0.7-2.2,0.7-2.2,0.3-4c-0.6,0.8-1.2,1.6-1.9,2.4c-1.1,0-2.1-0.1-2.7-1.2c-0.9,0.6-1.6,1-2.2,1.4c-0.5,0.7,0,1.9-1,2.1   c-1-0.5-0.2-2.2-1.9-2.1c-0.2,0.8-0.4,1.6-0.6,2.3c-0.7,0.3-1.3,0.6-2,1c1.6,1.3,2.9,2.4,4.4,3.6c0.9,7.4,4.1,13.5,5.5,20.8   c2.6-3.3,4.1-6.6,5-10.4C478.3,92.5,483.1,85.7,481.2,80.2z" />
	<path fill="#EDC9B9" d="M488,97.2c-1.1-1.3-1.8-3.2-3.5-3.9c-1.1-3,1.9-5.1,3.3-7.4c0.1,1,0.2,1.9,0.3,3c12.5,0,11.2,0.4,20.7,6.9   c0,0.8-0.5,1.7,0.7,2.2c0,0.3,0.1,0.5,0.1,0.8c-1.2,0.8-1,1.9-0.6,2.9c1.2,0.2,1.1-0.6,1.1-1.3l0.2-0.2c2.3,2.5,2.2,5.9,3.8,8.3   c-0.2,1.2-0.9,2-1.7,2.4c-3.9-0.8-14.1-10.2-16.2-7.5c0.9,0.6,1.9,1.3,2.9,2c-2.5,0.2-4.7-1.5-6.5-2.8c-0.6,0.1-1.1,0.2-1.8,0.3   c-0.2-0.6-0.5-1.2-0.8-1.9c0.6-0.4,1.1-0.8,1.7-1.2C491,99.3,488.9,97.5,488,97.2z M494.6,101c-0.2,0.2-0.4,0.4-0.5,0.5   c0.3,0.2,0.5,0.4,0.8,0.6C495.5,101.7,495,101.4,494.6,101z" />
	<path fill="#ECC8B8" d="M499,124.3c4,0.3,9.1,2.7,9.6,7c-1.5,1.1-4-0.6-5,1.2C502.1,129.8,500.5,127.1,499,124.3z" />
	<path fill="#EDC9B9" d="M487.4,104.7c-0.2-0.1-0.2-0.3-0.2-0.5C487.4,104.3,487.7,104.4,487.4,104.7z" />
	<path fill="#48413E" d="M406.6,166c0.2,0.5,0.4,1,0.6,1.6C406.5,167.2,406.5,166.6,406.6,166z" />
	<path fill="#1D0D15" d="M462.7,247.8c13-1.3,26.3-0.2,39.4-0.6c0,0.3,0.1,0.5,0.1,0.8c-4.5,0.1-8.9,0.1-13.4,0.2   c-0.5,0.5-1,0.9-1.5,1.4c-0.1-0.2-0.1-0.4-0.1-0.5c-1.2-1.7-2.1-0.6-2.9,0.5c-0.1-1.3-1-1.9-2.1-1.1c-0.3,0.9-0.6,1.9,0.4,2.6   c0,0.5,0,1,0,1.5c-0.2,0-0.5,0-0.7,0.1l0,0c-1.4-1.2,0.1-3.7-1.5-4.5c-5.2,0.3-10.1-0.4-15.4,0.1c-0.1,1.3-0.2,2.4-0.4,3.6l-0.4,0   C464.1,250.4,463.3,249.1,462.7,247.8z" />
	<path fill="#263F7D" d="M488.8,248.2c4.9,0.4,10.4-1.3,14.9,0.6c-0.3,0.3-0.5,0.5-0.8,0.8c-0.3,0-0.6,0-0.9-0.1   c-0.2-0.2-0.5-0.4-0.9-0.8c-1,1.7-0.2,3.4-0.7,5.1c-0.4,0-0.9,0.1-1.3,0.1c0-0.3,0.1-0.5,0.1-0.8c1.8-2.3-0.5-5.6-3-3.6   c-0.3-0.8-0.7-0.7-1,0c-0.4,0-0.9,0-1.3,0c-0.8-1-0.9-1-1.6,0c-0.4,0-0.8,0-1.2,0c-0.5-1.1-1.5-0.8-2.4-0.7   C488.8,248.7,488.8,248.4,488.8,248.2z" />
	<path fill="#1B2548" d="M502,249.5c0.3,0,0.6,0,0.9,0.1c0,1.4,0,2.8,0,4.5c0.9-0.3,1.6-0.6,2.2-0.8c0.3,0.7,0.5,1.4,0.8,2.1   c-0.7-0.2-1.2-0.5-2-0.2C500.7,256.2,500.6,251.2,502,249.5z" />
	<path fill="#4F6CD4" d="M505.1,253.3c-0.6,0.2-1.3,0.4-2.2,0.8c0-1.7,0-3.1,0-4.5c0.3-0.3,0.5-0.5,0.8-0.8   C504.8,250.1,505,251.7,505.1,253.3z" />
	<path fill="#FBDFD3" d="M419.2,159.3c-4.6-7.3-7.4-15.7-10.4-24c2,2.8,9.2,5.4,8.1-0.1c-3.1-7.8-10.9-12.8-11.6-21.6   c3.1-4.9-0.6-10.5-3.9-14.6c0.3-6-0.4-12.1-1.6-18.3c-2.9,2.1-5.2,4.6-6.1,8.2c-1.9-0.7-2.1-2.7-3.5-4c-1.6-10.8,3.1-21.9,1.6-32.3   c-2.5,2.7-4.9,5.2-7.3,7.7c-0.5-0.4-0.8-1.8-1.8-0.3c0,1.9,0.8,3.3-0.4,5.2c-4.4-9.8-6-19.5-5.4-30.9c0.5-0.1,0.8-0.2,1.2-0.4   c0.4,0.3,0.8,0.7,1.4,1.1c-0.1-2.6,1.2-5.8-0.7-7.8c0,0,0,0,0,0c-0.8-3,0.8-6,0.9-9c13.1-1,25.3-8.5,38-7.8   c25.2-0.7,43.9,5.7,67.3-7.2c0,0.5,0,0.9,0,1.5c4.3,0.8,8.6,0.5,12.7,0.8c1.8,1.6,3.5,3,5.1,4.4c0,0.3,0,0.7,0,1   c-5.1-2.7-10.9-0.4-16.6-1.8c0.1,0.5,0.2,0.8,0.3,1.2c-4.1,2.1-8.3-0.5-12.1,2.6c5.1,0.1,9.1-1.5,14.1-0.7c-0.9,1-0.6,1.9,0.2,2.8   l-0.1,0.1c-4.7-0.6-8.4,2.1-12.5,3.7c-0.4-0.5-0.7-1.1-1.5-2.2c0.5,3.3-0.8,4.4-3.4,5.3c-1.9-0.7-3.7-1.3-5.4-1.9   c-0.3-0.8-0.4-1.3-0.7-2c-1,0.8-1.5,1.1-2.5,1.7c-13.3-1.5-77.1,9.4-54.4,30.6c10.6,8.9,11.1,10.2,12.5,23c1.8,9,12,13,14.8,21.6   c-0.2,0.3-0.5,0.6-0.7,0.8c-7.5-0.1-15,6-15.3,13.5c3.2-5.9,7.9-11.6,15.3-12.1c2.4,8.2-0.6,17.2-2.2,25.4   c-0.4,0.2-0.9,0.4-1.3,0.6c-7-3-7-3-9.6-2.4c-2,4.7,1.4,8.8,4.9,11.5c0.1,1,0.6,1.6,1.6,1.6c0,0.6,0.1,1.1,0.8,1.3   C427,143.7,423.4,151.9,419.2,159.3z M401.5,54.8c0.3,1,0.6,2,1,3.1c0.4-0.3,0.7-0.5,1-0.6c-1-1.6,0-3.7-2-4.5   C401.5,53.5,401.5,54.1,401.5,54.8z M413,101.1c1.2,1.2,1.7,2.8,3.6,2.8c-0.2-1.8-1.5-2.2-2.3-3c-1.2-1.4-1.2-1.4-2.7-1.6   C412.1,100.1,412.5,100.6,413,101.1z M427.5,104.1c-1,1.1-1,1.1-1,2.3c2.1-0.7,3-3.6,4.9-5C429.5,99.5,428.5,103,427.5,104.1z    M393,24.6c-1.5-0.1-2.8-0.2-4-0.3c-3.8,2.3-9,8.1-1.9,9.8c-0.5-1.3-0.8-2.4-1.3-3.6c0.8-1.3,1.6-2.5,2.3-3.6   C390.7,26.5,390.7,26.5,393,24.6z M404.5,64c-0.1,2-0.3,3.6-0.6,5.3C406.8,70.5,406.1,65.4,404.5,64z M378.5,40.1   c1.4-1.4,1.6-2.5,0.7-4.3C378.6,37.3,378.1,38.3,378.5,40.1z M403.6,18c-1.3-0.3-2.6,0.3-2,1.7C402.4,19.3,403.5,19.3,403.6,18z    M396.2,22.3c0.1,0.3,0.1,0.5,0.2,0.8c1,0.1,2.6-0.4,2-1.8C397.6,21.6,396.9,21.9,396.2,22.3z M403.9,63c1.5-2,1.4-1.4-0.1-3.2   C403.8,61,403.8,61.6,403.9,63z M408.5,17.4c0-0.1,0-0.3,0-0.4c-0.6,0-1.2,0-1.8,0c0,0.1,0,0.3,0,0.4   C407.3,17.4,407.9,17.4,408.5,17.4z M466.8,17.1c-0.4-0.2-0.7-0.3-0.9,0.2C466.3,17.5,466.6,17.6,466.8,17.1z" />
	<path fill="#050404" d="M523.1,125c0-0.7,0-1.5,0-2.2C524.1,123.9,524.1,123.9,523.1,125z" />
	<path fill="#B5B5AC" d="M502.9,11.1c0-0.3,0-0.7,0-1c0.7,0.3,1.4,0.6,2.1,0.8C504.3,12,504.3,12,502.9,11.1z" />
	<path d="M498.4,19c-0.1,0.2-0.1,0.4-0.1,0.6c-2.7,0-5.4,0-8.2,0c-24.8,19.1-22.1,17.5-33.5,46.5l0.1-0.1c-2.6,0.2-1.7,3.1-3,4.5   c-0.4-0.2-0.9-0.3-1.5-0.6c-1,3.3-2.7,6.2-3.8,9.5c-0.3-0.5-0.6-1-0.8-1.5c0.2-1.9,0.2-1.9-1.3-2.2c-0.9-2.6,0.3-7.3-1.8-8.8   c-0.9-0.4-1.4-2.1-2.9-1.6c0.2-0.7,0.2-1.3-0.6-1.6c-0.3-1.3-3.3-2.7-1.6-3.7c1.2,0.5,1-4,0.2-4.6c-0.3-1.9-1.9-2.2-3.2-2.9   c-0.4-2.8-0.7-5.6-0.5-8.3c0.5-0.6,0.9-1.1,1.2-1.4c0-4.5-1-8.5,0.1-12.7c1.8-0.9-0.5-1.7-1.4-2.2c12.2-4.6,24.9-4.8,37.5-3.2   c8.2-4,15.6-8.4,25.2-6.6C498.4,18.5,498.4,18.8,498.4,19z M462.6,43.7c-1.6,0.7-1.7,1.9-1.2,3.9C461.9,45.9,462.2,44.8,462.6,43.7   c0.8-0.5,0.6-0.4,0.2-1.8C462.7,43,462.6,43.3,462.6,43.7z M464.1,39.9c1.7-0.8,1.9-2.7,3.2-4c-0.8-0.5-1.4-0.8-2.2-1.3   C464.7,36.6,464.4,38.3,464.1,39.9c-0.8,0.5-0.6,0.4-0.3,1.8C464,40.6,464,40.3,464.1,39.9z M458.2,31c0.1,0.1,0.2,0.3,0.4,0.4   c-0.9,1.1-1.8,2.2-2.9,3.5c2.3,1,4.9-3.1,6.5-4.4c0.2-1.9,2.3-0.2,1.8-3c-0.7,0.4-1.4,1-1.7,0.9c-1.9-0.9-3.3,0.6-5,0.6   c-0.5,1-1,2-1.7,3.5C456.8,31.8,457.5,31.4,458.2,31z M465.8,25.9c-1.5,1.6-0.8,3.2-1,4.6c0.6,0.6,1.2,1.1,1.8,1.7   c0.3-1.4-0.2-2-0.1-3.3c1,0,1.7,0,2.3,0c0.8,1,1.3,2.2,2.5,2.5c1.5-0.8,0.5-2.6,0.6-4.1c-0.8,0.2-1.5,0.4-1.8,0.5   C468.5,27.1,467.2,26.5,465.8,25.9z M441.4,39.3c3.3-1.9,4.5-5.4,8.1-5.9c-1.2,0-2.4,0-3.7,0C444,34.8,442.7,36.5,441.4,39.3z    M444.8,30.5c-2,1.8-4.5,3.1-5.5,6.6C441.8,34.8,444.1,33.4,444.8,30.5z M445.7,49.3c-1.3-0.2-1.5-0.6-2.4,0.2   c0.1,1.5-0.4,2.8,0.9,4C444.7,52.1,445.1,51,445.7,49.3z M444.8,62.3c1.4-2.2,2.7-4,1.6-6.8C445.2,57.8,444.7,59.7,444.8,62.3z    M451.5,50.9c1.7-1.6,1.5-3.4,1.1-5.4C451,47.2,451.3,48.9,451.5,50.9z M451.3,28.1c-2.6,0.4-2.6,0.4-2.5,1.9   C449.7,29.4,450.5,28.7,451.3,28.1z M483,22.9c1.8-1.8,1.8-1.8,1.3-2.3c-0.7,0.5-1.4,1-2.3,1.6C482.4,22.6,482.7,22.8,483,22.9z    M458.8,45.4c0.2,0,0.4,0.1,0.5,0.1c0.5-0.8,1.7-2.5-0.2-2.2C459,43.9,458.9,44.6,458.8,45.4z" />
	<path fill="#EED5C9" d="M498.4,18.2c-2.5-0.1-5.2,0.5-7.5-0.5c-0.6-0.9-1.3-1.8-2.2-2.4c1.1-0.5,0.9-1.4,0.8-2.3   c2.6,0.9,5.3,0.9,8.1,0.9C498.6,15.2,500,16.4,498.4,18.2z" />
	<path fill="#B9BBB1" d="M500.8,12.3c-0.7,0.1-1.5,0-1.7,0.9c-0.9-0.4-1.7-0.7-2.8-1.2c0.5-0.4,0.9-0.8,1.3-1.2   C498.8,11,499.9,11.5,500.8,12.3z" />
	<path fill="#160605" d="M479.8,11.7c1.9,0.1,4.4-0.8,5.9,0.6c-1.7,0.1-3.4,0.1-5.1,0.2C480.3,12.2,480,11.9,479.8,11.7z" />
	<path fill="#7A736D" d="M489.5,13c0.1,0.8,0.4,1.7-0.7,2.2c-0.7-0.9-1.1-1.8-0.2-2.8C488.9,12.6,489.2,12.8,489.5,13z" />
	<path fill="#AD9991" d="M491.8,11.8c1-0.1,1.3-0.5,1.8,0.2C492.9,12.5,492.8,12.2,491.8,11.8z" />
	<path fill="#4B65C6" d="M449.2,252.4c0.4,0.4,0.7,0.8,1,1.1c0.7-0.4,1.2-0.7,1.8-1.1c1.4,10.1,1.3,21.8-3.1,31.1   C446.2,276.5,447.3,260.1,449.2,252.4z" />
	<path fill="#4B65C5" d="M484.2,249c0.3,1.7,0.4,3.4,0.7,5.1c-1.2,0.7-0.3,2.5-1.4,3.1c2.2,3.7,3.6,6.9,4.4,11.1   c-1.5,3.3-0.1,6.3-0.9,9.9c-2.1-7.4-6.4-16.7-4.9-24.4C483.8,253,481.2,248.2,484.2,249z" />
	<path fill="#0A0D17" d="M458.7,392.6c1-8.6,3.4-16.8,5.5-25.2c1.1-0.7,0.3-1.9,0.7-3c0.3,0.6,0.5,1.1,0.8,1.7   c-1.7,9.6-4,19.8-6.1,29.6C458.7,394.9,458.8,393.8,458.7,392.6z" />
	<path fill="#0F1426" d="M481.9,355.6c1.7,8.7,1.8,17.9,5.2,26.2c-0.1,1.2,0.7,2.9-0.6,3.6C483.7,376.1,480.2,364.8,481.9,355.6z" />
	<path fill="#0F1324" d="M491,343.5c-2.6-7.2-8-13.8-8.4-21.6c3.5,6.3,6.6,13.8,9.2,20.8C491.5,343,491.3,343.3,491,343.5z" />
	<path fill="#151B36" d="M474.6,268.9c-0.4-1.1-0.7-2.2-1.1-3.4c-0.1,0-0.2,0-0.3,0c-0.3,2.8,0.6,6.1-0.8,8.6   c0.1-5.3-1.1-10.5-1.8-16.1c1,0.3,1.5,0.4,2.1,0.5c1.4,2.8,2,5.8,2.7,8.9C475.2,268,475.4,268.7,474.6,268.9z" />
	<path fill="#171F3D" d="M465.7,366.2c-0.3-0.6-0.5-1.1-0.8-1.7c1.2-7.6,2.2-14.4,3.3-22.4C469.4,350.1,467.6,358.5,465.7,366.2z" />
	<path fill="#181D34" d="M455.9,372.1c-0.6,7-4.2,14.8-11.3,17.1c0-0.3,0-0.6,0-0.8c6.7-3.9,9.7-11.3,10.5-18.6   C456.2,370.3,455.7,371.3,455.9,372.1z" />
	<path fill="#2A3665" d="M472.3,274.2c1.2-1.7,0.5-4,0.8-6c1.1,6.1,1.5,12.5,1.4,18.8c-0.3,0-0.5,0-0.8,0   C473.4,282.6,472.4,278.4,472.3,274.2z" />
	<path fill="#0E1222" d="M435.7,268.2c-1.5-3,0.3-6.8,0.2-10.3c0.8,0.1,1.4,0.1,2,0.1c-0.1,2.7-0.6,5.3-1.5,7.8   c-0.7,0.4-0.7,1-0.6,1.7C435.7,267.7,435.6,267.9,435.7,268.2z" />
	<path fill="#12172A" d="M443.9,269.7c0.4-4-0.7-8.7,0.5-12.3c2.3,2.5,0.4,8.8,0.1,12.3C444.4,269.7,444.1,269.7,443.9,269.7z" />
	<path fill="#181D33" d="M456.3,269.4c-1.1-3.7-0.7-10.3,1.4-13.2C458.7,261.1,456.6,264.1,456.3,269.4z" />
	<path fill="#181F39" d="M486.5,385.3c0.8-0.3,0.6-1,0.7-1.6c1.4,3.4,2.2,6.9,3.1,10.5c-0.3,0.3-0.5,0.5-0.8,0.8   C488.5,391.8,487.5,388.6,486.5,385.3z" />
	<path fill="#22284A" d="M473.6,248.2c2.3,0,4.6-0.1,6.9-0.1c0,0.2,0,0.5,0,0.7c-1.6,0-3.2,0-4.6,0c-1.4,1.7,0.8,3.4-0.5,5.1   C473.4,252.4,473.8,250.2,473.6,248.2z" />
	<path fill="#4B65C6" d="M497,249.5c1.1-0.9,1.4-0.9,2.3,0.2c0,1.4,0,2.8-0.1,4.3c-1,1.1-1.4,1.1-2.2-0.1   C498.2,252.4,497.9,251,497,249.5z" />
	<path fill="#252E53" d="M455.9,372.1c-0.3-0.8,0.3-1.8-0.7-2.3c-0.4-2.2,0.5-4.3,0.4-7.2C456.9,365.4,456.9,369.2,455.9,372.1z" />
	<path fill="#2F3B66" d="M443.9,269.7c0.2,0,0.4,0,0.6,0c0,2.6,0,5.2,0,8.4C442.1,275.6,443.8,272.7,443.9,269.7z" />
	<path fill="#121628" d="M486.5,262.9c-1-1.8-1.9-3.6-3-5.7c0.1-0.1,0.4-0.5,0.6-0.8c0,0,0,0,0,0c1.5,1.3,2.9,3,3.1,5.1   C487,261.9,486.8,262.4,486.5,262.9z" />
	<path fill="#3E53A3" d="M473.8,286.9c3.1,0.1,0.1,4.3-0.1,6.1c-1.1,0.4-0.5,1.5-0.8,2.2c-1-0.9-0.5-2-0.6-3.1   c0.5-0.6,0.9-1.3,1.6-2.1C473.8,289,473.8,287.9,473.8,286.9z" />
	<path fill="#4B64C0" d="M467.8,270.4c-0.6,3.2-0.9,6.6-0.7,9.7c-1.6,0-0.3-7.1-0.7-9C466.8,270.9,467.3,270.7,467.8,270.4z" />
	<path fill="#3A4987" d="M493.8,348.9c-0.5-0.8-0.9-1.5-1.4-2.3c0.3-0.3,0.6-0.6,0.9-0.8c0.8,2.4,3.4,5,3.1,7.3   C495,352,494.8,350.2,493.8,348.9z" />
	<path fill="#4963C3" d="M492.3,249.6c0.7-1,0.9-1,1.6,0c-0.4,1.8,0.3,3.4,0.7,5.1l-0.1,0.2c-0.7-0.3-1.9,0.4-2.1-1   C494.1,252.9,492.7,251,492.3,249.6z" />
	<path fill="#3E54A4" d="M474.6,268.9c0.8-0.2,0.6-0.9,0.8-1.5c0.2,0.3,0.6,0.6,0.6,0.9c-0.4,2.3,1.8,4,1.2,6.2   C476.2,272.7,474.8,271.1,474.6,268.9z" />
	<path fill="#121B34" d="M484.9,254.1c-0.2-1.5-0.4-3-0.6-4.5c0.8-1.1,1.7-2.3,2.9-0.5c-0.4,0-0.7,0-1.2-0.1   c-0.7,1.8,0.2,3.6-0.3,5.4C485.4,254.3,485.1,254.2,484.9,254.1z" />
	<path fill="#1F2847" d="M458.7,392.6c0.1,1.1,0,2.3,0.8,3.1c-0.3,1.7-0.5,3.5-0.8,5.2c-0.2-0.2-0.5-0.5-0.7-0.8   C458.2,397.7,457.7,395,458.7,392.6z" />
	<path fill="#192345" d="M488.8,248.2c0,2,0.4,3.7,0.7,6c-2-1.3-2.3-2.9-2.2-4.6C487.8,249.1,488.3,248.6,488.8,248.2z" />
	<path fill="#3A4B8D" d="M467.8,270.4c-0.5,0.2-1,0.5-1.4,0.7c0.1-2.3-0.5-4.7,0.6-6.8c0.3,0.7-0.3,1.7,0.8,2.2   C467.7,267.9,467.7,269.2,467.8,270.4z" />
	<path fill="#27315A" d="M469.9,254.4c-1.9-1.3-2-3.2-2.2-5.7C470.2,250.5,469,252.8,469.9,254.4z" />
	<path fill="#2C3969" d="M486.5,262.9c0.3-0.5,0.5-1,0.8-1.5c1.2,1.9,0.8,4.6,1.4,6.8c-0.3,0-0.5,0.1-0.8,0.1l-0.1-0.1   C487.4,266.5,487,264.7,486.5,262.9z" />
	<path fill="#334277" d="M489.5,395c0.3-0.3,0.5-0.5,0.8-0.8c1,1.8,2.5,5.3,0.6,6.8C490.9,398.9,490,397,489.5,395z" />
	<path fill="#1A2037" d="M467.7,266.6c-1.6-2.1-0.4-5.5-0.8-8c0.3-0.3,0.6-0.5,0.8-0.8C467.7,260.8,467.7,263.7,467.7,266.6z" />
	<path fill="#4B65C6" d="M495.3,249.7c0.3-0.7,0.7-0.8,1,0c-0.4,1.3,0.1,2.5,0.5,3.7c-0.4,0.9-1,3.2-2.1,1.5   C496.1,253.5,495.2,251.5,495.3,249.7z" />
	<path fill="#3B4A8B" d="M434.9,288.9c-1.7-1.5-2-3.6-3-5.1C433.4,282.5,435.1,287.7,434.9,288.9z" />
	<path fill="#394379" d="M444.7,388.4c0,0.3,0,0.6,0,0.8c-2.2,1.4-2.2,1.4-5.3,1.9C441.2,389.6,443.1,389.3,444.7,388.4z" />
	<path fill="#161E3B" d="M496.8,253.4c-0.4-1.2-0.8-2.4-0.5-3.7c0.2,0,0.5-0.1,0.7-0.2c1,1.5,1.2,2.9,0,4.4   C497,253.7,496.9,253.5,496.8,253.4z" />
	<path fill="#273567" d="M439.2,252.8c-1.1-1-1.6-2.2-1-3.7C440.1,250,439.4,251.5,439.2,252.8z" />
	<path fill="#1A2142" d="M492.3,249.6c0.4,1.3,1.7,3.2,0.2,4.3c-0.3-1.4-1.4-2.9-1.3-4.3C491.6,249.7,491.9,249.6,492.3,249.6z" />
	<path fill="#2E3A68" d="M458.2,249.2c0.3-0.1,0.6-0.2,1-0.3c0.7,1.3,0.4,2.6,0.1,3.9C458.8,251.7,457.9,250.7,458.2,249.2z" />
	<path fill="#354170" d="M495,276.6c-0.3-1.7-0.5-3.3,0-5.6C495.8,273.4,495.4,275,495,276.6z" />
	<path fill="#20284B" d="M493.3,345.7c-0.3,0.3-0.6,0.6-0.9,0.8c-0.5-1-1-2-1.4-3c0.3-0.3,0.5-0.6,0.8-0.8   C492.3,343.7,492.8,344.7,493.3,345.7z" />
	<path fill="#1F243F" d="M472.5,253.6c-0.3-1.1-0.6-2.3-0.9-3.4c2.1-1.5,1.3,2.4,1.4,3.4C472.8,253.6,472.7,253.6,472.5,253.6z" />
	<path fill="#202952" d="M518,363.6c-0.6-1.4,0.2-2.2,1.2-3.1C519.3,362.2,519.3,362.2,518,363.6z" />
	<path fill="#3D4B8C" d="M467.8,257.8c-0.3,0.3-0.6,0.5-0.8,0.8c-0.6-0.8-0.7-1.4,0.2-2.1C467.3,256.9,467.9,257.3,467.8,257.8z" />
	<path fill="#181F3D" d="M472.9,295.2c0.4-0.7-0.3-1.8,0.8-2.2c0.1,1,0.1,1.9,0.2,2.9c-0.3,0-0.6,0-0.8,0.1   C473,295.6,472.9,295.4,472.9,295.2z" />
	<path fill="#4B65C5" d="M491,401c0.8-0.2,0.7-0.9,0.8-1.5C493,400.5,491.9,402.8,491,401z" />
	<path fill="#171F3D" d="M464.9,370.6c0-0.8-0.4-1.8,0.6-2.4C465.6,369.1,465.6,369.9,464.9,370.6z" />
	<path fill="#171F3D" d="M464.7,365.8c0.1,0.6,0.2,1.3-0.5,1.7C464.4,366.9,464.5,366.3,464.7,365.8z" />
	<path fill="#4B65C5" d="M435.8,267.5c-0.2-0.7-0.1-1.3,0.6-1.7C436.5,266.5,436.6,267.1,435.8,267.5z" />
	<path fill="#121B34" d="M482.6,252.5c0.1,0.5,0.2,1.1-0.5,1.3c-0.1-0.4-0.1-0.8-0.2-1.2C482.2,252.6,482.4,252.6,482.6,252.5z" />
	<path fill="#121B34" d="M480.5,248.9c0-0.2,0-0.5,0-0.7c0.9,0.3,0.8,1,0.7,1.7C480.9,249.5,480.7,249.2,480.5,248.9z" />
	<path fill="#4B65C5" d="M487.9,268.3c0.3,0,0.5-0.1,0.8-0.1C488.5,268.9,488.3,269,487.9,268.3z" />
	<path fill="#4B65C5" d="M485,257c-0.3-0.2-0.6-0.4-0.8-0.7C484.4,256.6,484.7,256.8,485,257z" />
	<path fill="#121B34" d="M481.4,251.8c0.2,0.3,0.4,0.5,0.5,0.8C481.8,252.4,481.6,252.1,481.4,251.8z" />
	<path fill="#263F7D" d="M491.1,250.3c0.2,0.3,0.3,0.6,0.4,0.9C491.4,250.9,491.3,250.6,491.1,250.3z" />
	<path fill="#4C1B1D" d="M463.7,249.7c0.1,0.2,0.2,0.4,0.3,0.6C463.9,250.1,463.8,249.9,463.7,249.7z" />
	<path fill="#4C1B1D" d="M464.3,251.9l0.4,0c-0.1,0.2-0.1,0.4-0.2,0.6C464.4,252.2,464.4,252.1,464.3,251.9z" />
	<path fill="#211C1B" d="M438.2,496.3c-0.4,3.6-0.1,9.2-3.8,10.9C434.6,503.5,436.3,499.6,438.2,496.3z" />
	<path fill="#362F2D" d="M446.8,418.9c0.3-1,0.6-2,0.8-3c0.2,0,0.5,0,0.6,0c0.7,2.2,1.5,4.4,0.6,6.8   C447.1,422.3,447.4,420.4,446.8,418.9z" />
	<path fill="#201816" d="M452,492.9c0.6,3.3-0.8,6.1-2,8.9c-0.4-0.2-0.6-0.6-0.9-0.9C450.1,498.3,450.3,495.2,452,492.9z" />
	<path fill="#574B47" d="M449,500.9c0.3,0.3,0.6,0.6,0.8,0.9c-0.5,1.4-1.1,2.7-2.9,3.4C446.5,503.3,448.2,502.3,449,500.9z" />
	<path fill="#7A6B66" d="M439.6,485.2c-0.2-2.1-0.6-3.5,0.9-5C441.1,482,441.5,483.3,439.6,485.2z" />
	<path fill="#443C39" d="M437.2,459.2c0.9,1.2,1.9,2.4,2,4.5c-1.8-0.8-1.9-2.2-2.8-3.7C436.7,459.7,436.9,459.4,437.2,459.2z" />
	<path fill="#3D322F" d="M450.5,431c-0.8-1.3-1.4-2.7-0.5-4.5C451.6,427.9,451.5,429.5,450.5,431z" />
	<path fill="#C1ABA2" d="M437.2,459.2c-0.3,0.3-0.5,0.5-0.8,0.8c-0.6-0.9-1.3-1.7-2-2.7C435.9,457.5,435.9,457.5,437.2,459.2z" />
	<path fill="#403634" d="M438.3,490.2c0.2-0.8,0.3-1.5,0.7-3C439.7,488.9,439.9,489.7,438.3,490.2z" />
	<path fill="#5B4743" d="M444.1,508.4c-0.6-1.1-0.3-1.8,1-2.1C445.8,507.5,445,508,444.1,508.4z" />
	<path fill="#312B29" d="M439.5,476.4c-0.2-0.6-0.4-1.2-0.6-1.9C440,474.7,440,474.7,439.5,476.4z" />
	<path fill="#010101" d="M450.5,431c0.3-0.5,0.5-1.1,0.8-1.6c0.5,0.7-0.4,1.5-0.6,2.2C450.5,431.4,450.5,431.2,450.5,431z" />
	<path fill="#1D1A18" d="M491.7,478.6c-3.9-7.1-2.9-17.1-1.5-24.6c0.5,3-1,7.1,0.7,9.7c-0.2,5.1,1.9,9.9,1.5,14.9   C492.2,478.6,491.9,478.7,491.7,478.6z" />
	<path fill="#6E645F" d="M514.2,453.1c0.8,4,1.1,9.1,0,12.9C512,462.3,514.1,457.2,514.2,453.1z" />
	<path fill="#0C0707" d="M490.9,463.7c-1.7-2.5-0.3-6.6-0.7-9.7c0.2-0.9,0.9-0.6,1.4-0.6C491.6,456.9,491.9,460.3,490.9,463.7z" />
	<path fill="#0E0C0B" d="M504.2,413.7c-0.2,1-0.5,2-0.7,2.9c-0.4-0.2-0.9-0.5-1.3-0.7c0-1.6-1.5-4.5,1.1-4.6c0.3,0.5,0.7,1.1,1,1.7   C504.3,413.2,504.3,413.4,504.2,413.7z" />
	<path fill="#181615" d="M514.2,453.1c-0.1,1.3,0.1,2.7-0.8,3.8c-0.3-2.2-0.5-4.4-0.8-6.7c0.3-0.3,0.5-0.6,0.8-0.9   C514.3,450.5,514,451.9,514.2,453.1z" />
	<path fill="#473C39" d="M512.9,467.5c1.6,1.5,1.5,2.8-0.1,5.5C512.7,471.2,512.2,469.4,512.9,467.5z" />
	<path fill="#AA9790" d="M506,496.3c-0.6-2.2,0.1-3.8,1.5-5.4C508,492.6,507.7,493.9,506,496.3z" />
	<path fill="#141110" d="M512.5,444.4c0.3,1.2,0.5,2.5,0.8,3.7c-0.3,0.3-0.5,0.7-0.8,1c-0.3-1-0.5-2-0.8-3   C512,445.4,512.2,444.9,512.5,444.4z" />
	<path fill="#3F3734" d="M511.9,495c-0.6-1.2-1.2-2.3-0.7-3.7C513,491.4,513.2,494.3,511.9,495z" />
	<path fill="#6B645F" d="M511.9,495c0.9-0.2,0.6-1,0.8-1.6c0.4,1.4,0.9,2.7,1.5,4.5C512.4,497.3,512.4,496,511.9,495z" />
	<path fill="#50413E" d="M512.5,444.4c-0.3,0.5-0.5,1.1-0.8,1.6c-0.8-1.1-1-2.4-0.5-3.7C512.3,442.7,512.6,443.4,512.5,444.4z" />
	<path fill="#7E706A" d="M501.1,429.3c-0.6-1-1.5-1.7-0.5-3C502,427.1,501.3,428.1,501.1,429.3z" />
	<path fill="#EECABA" d="M492.4,478.6c0-1.2,0.1-2.5,0.1-3.7c1,1,0.7,2.4,0.7,3.7l-0.1,0.1C492.9,478.6,492.7,478.6,492.4,478.6z" />
	<path fill="#AB9E97" d="M511.7,479.9c0,0.6,0,1.3,0,1.9c-0.1,0-0.2,0.1-0.4,0.1c-0.3-0.7-0.4-1.3-0.1-2   C511.4,479.9,511.6,479.9,511.7,479.9z" />
	<path fill="#0D0C0C" d="M512.5,449c0.3-0.3,0.5-0.7,0.8-1c0.1,0.4,0.1,0.9,0.2,1.3c-0.3,0.3-0.5,0.6-0.8,0.9   C512.6,449.9,512.5,449.4,512.5,449z" />
	<path fill="#12182F" d="M413.3,272.7c0.4,0.2,0.8,0.5,1.2,0.7c-1.5,8.5,1.6,17.7-1.7,25.6C410.9,290.9,412.9,281.2,413.3,272.7   L413.3,272.7z" />
	<path fill="#2E3E79" d="M412.4,353.1c-0.7,1.6-1.4,3.1-2,4.7c0.2-8.2-0.3-16.3-0.8-24.3c-0.7-0.1-1-0.1-1.4-0.2   c0-0.3-0.1-0.6-0.1-0.9c0.5-0.5,1-1,1.6-1.5C412,337.6,410.8,346.3,412.4,353.1z" />
	<path fill="#0F1322" d="M411.7,387.7c-0.1,7.8,0.5,15.3-0.2,23.1c-2.6-7,0.2-15.6-0.5-23.2C411.3,387.6,411.5,387.6,411.7,387.7z" />
	<path fill="#2B396E" d="M411.7,387.7c-0.2,0-0.4-0.1-0.7-0.1c-1.5-5.4-2.5-13.3-0.8-18.7C411.2,375,411.4,381.4,411.7,387.7z" />
	<path fill="#36488B" d="M409.5,319.8c1.4,0.7,0.7,2,1,3.5c2.4-3.5,2.5-7,3.9-10.8c0.7,4.3-1.4,9.2-3.3,13.2   c-0.7-1.1-0.7,0.6-1.5,0.1C409.6,323.9,409.5,321.9,409.5,319.8z" />
	<path fill="#12172E" d="M409.5,319.8c0.1,2,0.1,4.1,0.2,6c0.7,0.5,0.8-1.2,1.5-0.1c-0.5,1.7-0.9,3.4-1.4,5.2c-0.5,0.5-1,1-1.6,1.5   C408.6,328.3,408.3,323.7,409.5,319.8z" />
	<path fill="#334483" d="M416.3,344.3c-0.2-0.2-0.5-0.4-0.7-0.7c2-5,1.9-9.3,4.3-14.6C419.9,334.6,418.3,339.6,416.3,344.3z" />
	<path fill="#1D2647" d="M427.4,265.2c0.3-1.7,0.6-3.3,0.9-4.9c2.8-0.2-0.3,4.6-0.1,6.3C427.9,266.2,427.6,265.7,427.4,265.2z" />
	<path fill="#222D58" d="M410.8,306.3c0.8,2.7-0.3,4.8-1,7C409.8,311,408.7,308.6,410.8,306.3z" />
	<path fill="#394C92" d="M427.4,265.2c0.3,0.5,0.5,0.9,0.8,1.4c-0.5,2.1-1,4.2-1.6,6.4c-0.9-0.4-0.7-1.6-0.5-2.2   C427.3,269.1,426.1,266.9,427.4,265.2z" />
	<path fill="#28376B" d="M408,331.6c0,0.6,0.1,1.1,0.2,1.7c-0.3,0.6-0.6,1.2-0.9,1.8c-0.2,0-0.3-0.1-0.5-0.1c0-0.6-0.1-1.2-0.1-1.9   C407.1,332.6,407.6,332.1,408,331.6z" />
	<path fill="#483935" d="M448.3,416c-0.2,0-0.5,0-0.6,0c-0.3-1.2-0.1-1.2,0.5-2.6C448.3,414.6,448.3,415.3,448.3,416z" />
	<path fill="#3F332F" d="M494.5,488.9c-1.2-1.6-2.8-4.2-1.4-5.8C494.9,485.2,495,485.6,494.5,488.9z" />
	<path fill="#72675F" d="M502.2,415.9c0.4,0.2,0.9,0.5,1.3,0.7c0.1,1.3,0.4,2.6-1.2,3.6C502.1,418.7,502.1,417.3,502.2,415.9z" />
	<path fill="#554742" d="M493.9,490.6c1.8,0.8,1.8,0.8,2,3.5C495.1,492.8,494.5,491.7,493.9,490.6z" />
	<path fill="#A59387" d="M492.4,478.6c0.2,0,0.5,0,0.7,0.1c0,0.8,0,1.7,0,2.7c-1.6-0.6-1.4-1.7-1.5-2.7   C491.9,478.7,492.2,478.6,492.4,478.6z" />
	<path fill="#A99085" d="M497.1,496.4c0.9,0.6,1.5,1.4,1.2,2.8C496.8,498.9,496.8,497.6,497.1,496.4z" />
	<path fill="#594B45" d="M497.1,496.4c-0.1,0.3-0.1,0.7-0.2,1c-1.1-1-1.1-1-1.5-2.6C496.2,495.5,496.6,496,497.1,496.4z" />
	<path fill="#6C514B" d="M502.9,421.6c-0.1,0.5-0.1,1-0.2,1.4c-0.1,0-0.3,0-0.4,0c-0.1-0.5-0.1-1-0.2-1.5   C502.4,421.6,502.6,421.6,502.9,421.6z" />
	<path fill="#090C16" d="M474.5,359.3c4.5,12.9,5.2,27.6,4.2,41.4C476.5,387,476.8,372.9,474.5,359.3L474.5,359.3z" />
	<path fill="#192242" d="M481.9,355.6c-1.1,0.5-0.5,1.6-0.8,2.3c-1.5-7.8-4.5-16.2-4-24.1C479.3,341.1,480.8,348.1,481.9,355.6z" />
	<path fill="#79787C" d="M508,573.4c0.3,0.2,0.6,0.4,0.9,0.7c0.8,2.3,1.3,5.6,0,7.5c-0.2,0-0.5,0-0.7,0c0.1-2.8-0.2-5.6-0.7-8.3   C507.7,573.3,507.9,573.3,508,573.4z" />
	<path fill="#3E3B3C" d="M506.8,571.1c-1-3-1.5-6.1-0.8-9.6c2.1,2.3,1,4.9,1.6,7.1C507.2,569.4,507.8,570.5,506.8,571.1z" />
	<path fill="#C0BEC4" d="M508.9,581.6c1.3-1.9,0.8-5.3,0-7.5c0.4-0.8,1.3-3,2.1-1.3c-1.9,3.2,0.8,8.1-1.5,11.1c-0.1,0-0.4,0-0.6,0   C509,583.1,509,582.3,508.9,581.6z" />
	<path fill="#605E60" d="M510.5,578.6c0.2-2-0.7-4.2,0.5-5.9c0,1.9,1.5,4.2,0.2,5.9C511,578.6,510.7,578.6,510.5,578.6z" />
	<path fill="#8D9094" d="M508.8,584.5c0,1.1,0,2.2,0,3.5c-1.9-0.6-1.9-2.9-0.8-4.3C508.3,584,508.5,584.2,508.8,584.5z" />
	<path fill="#38383A" d="M510.5,578.6c0.2,0,0.5,0,0.7,0c-0.1,1.9-0.1,3.9-0.2,5.8c-0.3-0.5-0.5-1-0.8-1.4   C510.3,581.6,510.4,580.1,510.5,578.6z" />
	<path fill="#494E50" d="M506.8,571.1c1-0.6,0.4-1.7,0.8-2.5c0.9,1.5,0.7,3.2,0.5,4.8c-0.1-0.1-0.3-0.1-0.5-0.1   C507.3,572.6,507,571.8,506.8,571.1z" />
	<path fill="#898E92" d="M510.2,583c0.7,1.2,1.5,2.8-0.5,3.5c-0.1-0.9-0.1-1.8-0.2-2.7C509.8,583.6,510,583.3,510.2,583z" />
	<path fill="#525154" d="M508.8,584.5c-0.3-0.3-0.5-0.5-0.8-0.8c0.1-0.7,0.1-1.4,0.2-2.1c0.2,0,0.5,0,0.7,0   C508.9,582.6,509.1,583.6,508.8,584.5z" />
	<path fill="#3D3E40" d="M444.8,582.3c-1-5.4-2.6-10.5-1.5-15.9c0.6,5.3,1.8,10.5,2.1,15.9l0,0C445.2,582.3,445,582.3,444.8,582.3z" />
	<path fill="#201E1F" d="M443.3,566.4c-0.1,1.6-0.1,3.2-0.7,4.6c-0.5-2.6-1.2-5.2-1.1-8.3C443.8,563.3,443,564.8,443.3,566.4z" />
	<path fill="#363839" d="M446.8,580.1c0.3,2.7-1,4.9-0.5,7.7c0.1,0.9,0.3,1.9-0.7,2.9c-0.7-3-0.2-5.5-0.2-8.3c0,0,0,0,0,0   c0.2-0.2,0.5-0.5,0.7-0.7c0-0.5,0.1-1,0.1-1.5C446.4,580.1,446.7,580.1,446.8,580.1z" />
	<path fill="#8B888D" d="M446.3,580.1c0,0.5-0.1,1-0.1,1.5c-0.3,0-0.5,0-0.8,0c-0.3-2.3-0.6-4.5-0.6-6.8c0.2,0.1,0.3,0.1,0.5,0   c0.6,1,0.9-0.1,1-0.8C447.9,575.9,445.5,577.9,446.3,580.1z" />
	<path fill="#4D4D4F" d="M446.3,587.8c0.1-1.6-0.6-3.4,0.5-4.7C446.9,584.7,447.1,586.3,446.3,587.8z" />
	<path fill="#525154" d="M446.3,574c-0.1,0.7-0.4,1.8-1,0.8c0-0.8,0.1-1.6,0.1-2.4c0.2,0,0.3,0,0.5,0   C446,572.9,446.2,573.4,446.3,574z" />
	<path fill="#4D4D4F" d="M446.3,580.1c0-1.3-0.4-2.6,0.6-3.7c0,1.2,0,2.4,0,3.7C446.7,580.1,446.4,580.1,446.3,580.1z" />
	<path fill="#4D4D4F" d="M445.4,582.3c0,0.8-0.1,1.6-0.1,2.4c-0.6-0.7-0.6-1.5-0.5-2.4C445,582.3,445.2,582.3,445.4,582.3z" />
	<path fill="#B7BDD5" d="M467.8,236.9c-2.2-8.9-2-19.2-2.1-28.6c1.6-2.7,0-6.3,0.8-9.4c0.1-0.9-1-0.8-1.6-0.6   c-2.5-13.1-11.4-48.3-0.8-57.7c8.1,7.5,4.3,20.3,5.9,30.2c2.3,21.5,7.5,44.6-0.8,65.4c-2-1.6,2.2-10.1-0.7-11.6   C468.9,229,467.8,232.7,467.8,236.9z M466.3,188.4c1-3.6,2.1-8.8-1.3-11.4c0.2,5.8,0.4,10.3,0.9,16   C466.6,191.3,466.4,189.9,466.3,188.4z M465.1,160.9c-3.5,0.7-2.1,13.6,0.2,15.7C464.7,171.1,464.6,166.1,465.1,160.9z    M467.3,221.1c2.4-3.2,0.7-6.2,0.3-9.8C465.3,214.4,467.3,217.4,467.3,221.1z M470.2,205.6c0,1,0,1.8,0,3.3c0.7-1.1,1-1.5,1.4-2   C471.1,206.4,470.8,206.1,470.2,205.6z" />
	<path fill="#030202" d="M419.2,159.3c9.6-19.2,18.3-41.7,15.8-63.3c0.2-0.3,0.5-0.6,0.7-0.8c1.4-0.2,2.9,0.4,4.2,0.8   c0.9-0.6,1.7-1.1,2.5-1.6c0.3,0.3,0.5,0.5,0.8,0.8c-0.8,1.1-1.6,2.1-2.4,3.3c1.4,7.4,8.3,17.7,16.2,18.2c1-1.2-0.3-2.8,1.2-3.6   c-0.1,2.5,0.7,5.2-0.7,7.4c-0.2-0.6-0.3-1.2-0.5-1.8c-2.2-1.9-4.9-0.4-7.4-0.8c0.5-0.3,0.7-0.5,1.2-0.8   c-6.6-4.4-10.8-10.4-12.7-18.1c0.1,24-4.9,51-22.3,68.6c-0.3-0.3-0.6-0.6-0.9-0.8C416.3,164.3,417.7,161.8,419.2,159.3z" />
	<path fill="#B6BBD3" d="M432.7,137.7c0.7-2.3,1.4-4.6,2.1-6.9c0.1,0.5,0.2,0.9,0.4,1.4c5.6-1,10.5,1.9,14.6,5.2   c-2.3,2.4-3.8,3.4-6,4c0.2-0.5,1.1-0.7,0.6-1.8C440.6,139.3,436.4,139.4,432.7,137.7z" />
	<path fill="#141212" d="M457.4,120.5c0.3-0.5,0.5-1.1,0.8-1.6c1.6,5.8,4.4,10.9,3.8,17.2c6.1,0.7,2-2.4,4.3-5.1   c0.9,1.5,1.9,3,3.5,4c0.7-1.6,1.1-2.9,0.2-4.3c0.5-2.1-1.4-3.6-1.5-5.6c0.3-0.3,0.5-0.6,0.8-0.8c2.6,4.5,4.6,8.9,0.1,13.5   c-0.8-0.7-1.6-1.3-2.4-2c-1.1,1.2-1.8,2.3-3.3,3.2c-1-0.3-2-0.7-2.8-0.9C459.7,131.9,459.5,126.9,457.4,120.5z" />
	<path fill="#B7BCD3" d="M481.2,136.9c-1.9-3.1-1.9-3.7-0.2-5.9c5.2,0.7,9.7,4.5,11.5,9.5c-0.3,0.4-0.5,0.9-1,1.7   c1.3-0.1,2.3-0.1,3.2-0.2c0,0.3,0,0.6,0,0.9c-1,0-2,0-2.8,0c-0.9-0.6-1.3-1.7-2.5-1.6c0.4-0.4,0.9-0.7,1.7-1.3   c-4.1,0.3-6.5-2-9.1-4.2C481.5,136.3,481.3,136.6,481.2,136.9z" />
	<path fill="#2C262A" d="M432.7,137.7c3.6,1.7,7.8,1.6,11.7,1.9c0.5,1.1-0.4,1.3-0.6,1.8c-3.4-0.4-7.6,0.2-10.4-2.2c0,0,0,0,0,0   c-0.2-0.9-0.8-0.6-1.4-0.5C432.3,138.3,432.5,138,432.7,137.7z" />
	<path fill="#303136" d="M490.7,196.2c1.6,3.8,1.8,10.2-2,12.6C490.2,204.4,490.6,200.4,490.7,196.2z" />
	<path fill="#211B1E" d="M481.2,136.9c0.2-0.3,0.4-0.6,0.7-1.1c2.6,2.1,5.1,4.4,9.1,4.2c-0.8,0.6-1.2,1-1.7,1.3   C485.8,141.3,483,140,481.2,136.9z" />
	<path fill="#3E4148" d="M464.9,198.3c0.2-0.1,0.4-0.1,0.7-0.1c0.3,0.9-0.6,2.1,0.6,2.8c-0.2,2.4,0.9,5.3-0.5,7.3   C465.2,205,464.5,201.7,464.9,198.3z" />
	<path fill="#4E4A4A" d="M469.2,124.3c-0.3,0.3-0.5,0.6-0.8,0.8c-1.4-1.5-1.3-3.6-2-5.4c0.3-0.5,0.5-1,0.8-1.6   C467.9,120.2,468.5,122.3,469.2,124.3z" />
	<path fill="#332E33" d="M434.2,146.6c0.4-1.1,0.8-2.3,1.2-3.3c2.8,0.2,0.3,4.3-1.1,5C434.2,147.7,434.2,147.1,434.2,146.6z" />
	<path fill="#424047" d="M499.1,150c2.5,0.8,3.3,2.3,4.4,3.9C500.9,153.4,500.7,153.2,499.1,150z" />
	<path fill="#9EA1B1" d="M444.6,163.8c-2.1-0.4-1.3-2-2-2.8c-0.1-0.5,0-1.6,1-1.4C443.9,160.8,444.2,162.1,444.6,163.8z" />
	<path fill="#6E717E" d="M467.8,236.9c0.1-1.8-0.3-3.7,0.7-5.2c0.3,0,0.5,0,0.8,0c-0.2,1.5-1.4,3.2,0,4.5c0,0.2,0,0.4,0,0.7   C468.8,236.8,468.3,236.9,467.8,236.9L467.8,236.9z" />
	<path fill="#9092A1" d="M455,126.2c-0.5,0.3-0.8,0.5-1.1,0.7c-0.5-1.3-1-2.5-1.5-3.7C453.9,122.3,454.2,125.2,455,126.2z" />
	<path fill="#757783" d="M490.3,185.2c1,1.7,0.7,2.7-0.5,3.9C489.2,187.5,489.3,186.5,490.3,185.2z" />
	<path fill="#312529" d="M494.6,142c-0.9,0.1-1.9,0.1-3.2,0.2c0.5-0.8,0.7-1.2,1-1.7c0.5,0,1,0,1.5,0c0.3,0.3,0.5,0.5,0.8,0.8   C494.6,141.6,494.6,141.8,494.6,142z" />
	<path fill="#A1A5B7" d="M494.6,142c0-0.2,0-0.4,0.1-0.6c0.7,1.1,1.3,2.2,2.1,3.4C495,144.7,494.7,143.7,494.6,142z" />
	<path fill="#493F45" d="M482.1,121.4c-1.8-0.5-3.1-0.6-4.1-2.5C479.8,119.4,481.1,119.5,482.1,121.4z" />
	<path fill="#808290" d="M436.5,184.7c0-0.3,0-0.5-0.1-0.8c0.3-0.6,0.7-1.3,1-1.8c0.3,0,0.4,0,0.5,0c0,0.7,0.1,1.4,0.1,2.3   C437.3,184.5,436.9,184.6,436.5,184.7z" />
	<path fill="#888795" d="M507.8,156.7c-1.2,0.3-1.2,0.3-2.2-0.6C506.6,155.5,506.6,155.5,507.8,156.7z" />
	<path fill="#81838F" d="M438.4,178.5c-1.1-0.6-1.4-1.4-0.9-2.6C438.6,176.5,439,177.3,438.4,178.5z" />
	<path fill="#6F6B76" d="M474.8,117.8c1.2-0.6,1.9,0,2.5,0.9C476,119.5,475.4,118.9,474.8,117.8z" />
	<path fill="#70707B" d="M437.8,171.5c0,0.8,0,1.6,0,2.5C436.2,172.6,436.2,172.6,437.8,171.5z" />
	<path fill="#B7BDD5" d="M467.8,236.9c0.5,0,1-0.1,1.4-0.1c-0.3,0.9-0.5,1.8-0.8,2.6c-0.2,0-0.3,0-0.5,0   C467.9,238.6,467.9,237.8,467.8,236.9z" />
	<path fill="#63666F" d="M470,117.7c0.3-0.3,0.6-0.5,0.9-0.8c0.6,0.4,1.1,0.7,1.7,1.1C471.7,118.4,470.8,118.6,470,117.7z" />
	<path fill="#848492" d="M489.8,182.2c-0.7-1.1-0.1-1.4,0.8-1.7C491.2,181.6,490.5,181.9,489.8,182.2z" />
	<path fill="#777783" d="M427.4,155.6c0-1,0.2-1.9,1.4-1.1C428.3,154.9,427.8,155.2,427.4,155.6z" />
	<path fill="#A7A7B9" d="M447.3,171.1c-0.6-0.5-1.4-0.7-0.8-1.8C447.2,169.7,447.8,170.1,447.3,171.1z" />
	<path fill="#A7ACBE" d="M504,190.9c0.6,0.8,0,1.2-0.6,1.6C503.1,191.8,503.1,191.8,504,190.9z" />
	<path fill="#454349" d="M489.4,193.2c0.1-1.2,0.2-1.8,0.2-2.5C490.6,191.5,490.4,192.1,489.4,193.2z" />
	<path fill="#5B606A" d="M434.2,146.6c0,0.6,0,1.1,0.1,1.7C432.9,149.5,433.6,147.1,434.2,146.6z" />
	<path fill="#B6BBD3" d="M432.1,138.6c0.6-0.1,1.2-0.4,1.4,0.5c-0.5,0.3-1,0.5-1.5,0.8C432.1,139.5,432.1,139,432.1,138.6z" />
	<path fill="#50373B" d="M445.6,119.2c0.1,0,0.2,0,0.3,0c0,0.2-0.1,0.3-0.1,0.5C445.6,119.6,445.4,119.5,445.6,119.2z" />
	<path fill="#B6BBD3" d="M433.5,139.1c0.3,0.3,0.6,0.5,0.8,0.8C434,139.6,433.8,139.4,433.5,139.1z" />
	<path fill="#B7BCD3" d="M493.9,140.6c-0.2,0-0.5,0-0.7-0.1C493.5,139.9,493.7,140,493.9,140.6z" />
	<path fill="#292220" d="M383.2,79.8c-2.9-1.5-3-7.3-0.7-9.2C382.7,73.7,383.6,76.4,383.2,79.8z" />
	<path fill="#0F0F0E" d="M379.6,33.4c-0.1,0.5-0.1,1-0.2,1.7c-2.5-1.6-2.5-4.9-1.8-7.5c0.4-0.1,0.8-0.1,1.1-0.2l0,0   C379.1,29.4,378.6,31.5,379.6,33.4z" />
	<path fill="#211B18" d="M395.3,98.2c0.1,1.6,0.3,3.2-0.2,4.8c-1.6-0.9-1.6-0.9-1.2-5.5C394.4,97.7,394.9,98,395.3,98.2z" />
	<path fill="#36332F" d="M409,130.1c0.8,0.7,1.5,1.4,2.2,2c-1.1,2.7-2.5-1-3.3-1.9C408.3,130.2,408.6,130.1,409,130.1z" />
	<path fill="#483D38" d="M396.7,91.7c-0.2,1.3-0.3,2.4-1,3.3C393.6,95,395,91.9,396.7,91.7z" />
	<path fill="#8C766D" d="M397.6,86.9c0.3-0.6,0.6-1.2,1-2c0.5,1.5,0.5,1.5-0.9,3.6C397.7,88,397.7,87.4,397.6,86.9z" />
	<path fill="#8D6C63" d="M395.3,98.2c-0.4-0.2-0.9-0.5-1.3-0.7c-0.1-0.8,0-1.5,1.3-1.3C395.3,96.8,395.3,97.5,395.3,98.2z" />
	<path fill="#8B746B" d="M404.1,122.5c0.4,0.5,0.7,0.9,1.1,1.4C403.8,123.8,403.8,123.8,404.1,122.5z" />
	<path fill="#43403B" d="M382.9,69.7c-0.1-0.9-0.1-1.7-0.2-3.2C383.8,68,383.9,68.7,382.9,69.7z" />
	<path fill="#43332F" d="M397.6,86.9c0,0.5,0.1,1.1,0.1,1.6c-0.2,0.2-0.5,0.4-0.7,0.6C396.2,88.2,397.1,87.6,397.6,86.9z" />
	<path fill="#836059" d="M409,130.1c-0.4,0.1-0.8,0.1-1.1,0.2c-0.2-0.3-0.4-0.6-0.6-1.1C408.3,129,408.6,129.5,409,130.1z" />
	<path fill="#5E4742" d="M383.6,65.2c0-1.3,0.4-1.3,0.5,0C383.9,65.2,383.7,65.2,383.6,65.2z" />
	<path fill="#615752" d="M382.7,61.5c0-0.5,0-1,0-1.5c0.3,0.3,0.5,0.6,0.8,0.9C383.2,61.2,383,61.3,382.7,61.5z" />
	<path fill="#3C2220" d="M406.4,126c-0.1,0.1-0.2,0.3-0.2,0.4c-0.4-0.2-0.1-0.4,0-0.7C406.3,125.9,406.3,125.9,406.4,126z" />
	<path fill="#292A2E" d="M436,189.4c0,3.1,0,6.1,0,9.4C434.2,198,434.4,190.2,436,189.4z" />
	<path fill="#EDCABA" d="M454.2,69.7c0.2-0.2,0.3-0.4,0.2-0.6c1-0.1,2.2,0.4,2.9-0.8c0.8-0.2,0.8-0.8,0.8-1.4   c0.2-0.3,0.5-0.6,0.7-0.9l0,0c0.2-0.3,0.5-0.6,0.7-0.8c0,0,0,0,0,0c0.3-0.3,0.5-0.5,0.8-0.8l0,0c0.3,0,0.6,0.1,0.9,0.1   c-1.5,6-5.1,11.4-6.6,17.2c-0.2-0.1-0.3-0.3-0.5-0.4c-0.2,0.6-0.3,0.9,0.4,1.2c-1.2,1.7-2.4,3.4-3.7,5.3c0.6,1.4,0.2,3.4,2.2,4.4   c-0.2,0.9-1.3,1.6-0.4,2.6c1.4-1.2,1.4-1.2,0.4-2.6c1.2-2.4,2.2-4.6,3.9-6.7c2.9,1.8,1.1,4.6,2.7,6.6c-1.7,2.3,2.5,4.7,0.2,6.7   c0-0.7-0.1-1.4-0.2-2.8c-1,1.5-1.6,2.5-2.4,3.7c0.4,0.3,0.7,0.4,1,0.6c-1.6,1.8,0.3,4.4-1.4,5.9c-0.7-1.1-2.1-0.7-1.3,0.6   c0.4-0.2,0.8-0.3,1.2-0.5c0,1,0,1.9,0,2.9c-2.1,1.5,0.9,3.6-0.4,5.9c-1.7-2.3-3.3-4.4-4.9-6.5c0-1.5,0-2.9,0-4.4   c-0.8-0.4-1.5-0.8-2.1-1.1c-2.7-9.8-4.6-19.9,1.4-29c0.4,0.1,0.9,0.2,1.5,0.4C452.9,72.9,453.1,71.2,454.2,69.7z M452.3,97.4   c0,1.3,0,2.1,0,3.4C453.5,99.5,453.3,98.7,452.3,97.4z M456.8,73c-1.6,1-1.6,1-1.1,2.2C456,74.4,456.3,73.9,456.8,73z" />
	<path fill="#EAC8B8" d="M456.6,66.1c11.5-29.1,8.7-27.4,33.5-46.5c2.8,0,5.5,0,8.2,0c-0.4,4.7-5,1.4-7.7,0.8   c-0.1,3.6-3.1,4.9-4.6,7.9c0.4,0.5,0.7,0.9,1.1,1.3c-8.7,1.5-16.5,12.1-17.8,20.8c-0.8-1.8-3.9,3.1-3.4,4.3   c0.4,0.1,0.7,0.1,1.1,0.1c-0.4,0.7-1.4,1.3-0.7,2.2c-0.3,0.5-0.5,1-0.8,1.5C461.5,59.5,460.3,64.4,456.6,66.1z" />
	<path fill="#EDC9B9" d="M491.7,78c-0.3,0.2-0.7,0.3-1,0.5c-3-2.4-4-12.3-3.4-16.3c3.5-1.8,6.9-3.5,10.3-5.2   c1.7,2.3-0.2,4.9,0.1,7.4c0.8,4-2.4,7.2-1.9,11c-0.2,2.1-2.9,3.3-4.2,4.8C491.6,79.4,491.6,78.7,491.7,78c0.3-0.1,0.7,0.1,0.4-0.5   C491.9,77.6,491.8,77.8,491.7,78z" />
	<path fill="#E9C7B8" d="M476.1,106.3c1.1,2.7,2.9,4.7,5.3,6.3c-0.1,0.6-0.2,1-0.4,1.7c-7.6-0.4-7.8-7.1-11.7-11.9   c0,1.3,0,1.9,0,2.5c-0.5,0.5-0.9,1-1.4,1.5c-0.1-0.7,0.3-1.6-0.9-1.6c0.5-0.7,1-1.4,1.5-2.1c-0.1-1.6-1.4-3.2-0.3-5.1   C472.1,97.7,470.6,107.1,476.1,106.3z" />
	<path fill="#0C0A09" d="M507.5,108.5c1.6,0.8,3.3,1.7,5,2.6c1.8-1.3,2.4-4.4,3.8-6.2c1.2,0.4,0.4,1.5,0.7,2.2   c-1.8,4.5-4,8.8-6.6,12.9c0.7-4.2-1.5-6.9-3.9-9.9C506.6,109.4,506.7,108.7,507.5,108.5z" />
	<path fill="#332927" d="M449.2,103.2c0.7,0.3,1.3,0.7,2.1,1.1c0,1.5,0,2.9,0,4.4c1.6,2.1,3.1,4.2,4.9,6.5c1.3-2.3-1.7-4.4,0.4-5.9   c1,1,1.9,2.1,1.5,3.7c-1.4,0.8-0.2,2.3-1.2,3.6c-1.4,0.4-2.8,0.1-4.1-1.2c0.3-0.2,0.5-0.4,1-0.7c-1.3-1-2.4-1.8-3.8-2.9   c-0.3-2.1,0.4-5-0.8-6.9C449.2,104.3,449.2,103.8,449.2,103.2z" />
	<path fill="#453D3A" d="M466.2,131c-1.9,1.3,0.8,4.4-1.6,5.1c1.8-7-3-14.3-0.5-20.8c1,0.5,0.5,1.6,0.7,2.4   C464.5,122.1,466,126.5,466.2,131z" />
	<path fill="#3E2D2A" d="M507.5,108.5c-0.8,0.2-0.9,0.9-0.9,1.6c-2.7-3-7.2-3.7-10.3-6.5C498,101,504.9,107.6,507.5,108.5z" />
	<path fill="#272321" d="M456.6,66.1c3.7-1.7,4.9-6.6,9-7.5l0-0.1c0,0.2-0.1,0.5,0,0.7c0,0,0,0,0,0c-1.4,1.6-2.8,3.2-4.5,4.5l0,0   c-0.3,0.2-0.5,0.4-0.8,0.7l0,0c-0.3,0.3-0.5,0.5-0.8,0.8c0,0,0,0,0,0c-0.2,0.3-0.5,0.6-0.7,0.8l0,0c-0.2,0.3-0.5,0.6-0.7,0.9   c-0.5,0.1-1-0.1-1.5,0C456.6,66.5,456.6,66.3,456.6,66.1L456.6,66.1z" />
	<path fill="#2A1D1B" d="M500.7,54.2c-0.3-0.3-0.6-0.6-0.9-0.9c2.5-2.3,5.1-4.5,7.6-6.8c0,0.3,0.1,0.7,0.1,1   C505.6,50.1,503.4,52.3,500.7,54.2z" />
	<path fill="#2E2120" d="M507.3,22.2c-1.3,1.3-1.3,1.3-9,1.7C501.9,22,504.1,21.6,507.3,22.2z" />
	<path fill="#E3C7B8" d="M503,107.6c2.5,0.4,3.8,2.7,5.1,4.7C504.9,112.2,503,110.6,503,107.6z" />
	<path fill="#292220" d="M467,104.7c3,1.5-2.2,4.7-2.3,6.8c-0.5-0.5-1-1-1.5-1.5C464.5,108.3,465.8,106.5,467,104.7z" />
	<path fill="#5D514D" d="M509,43.2c0.8-2.6,1.7-4.3,3-6C512.6,40,511.7,42,509,43.2z" />
	<path fill="#3F3835" d="M521.5,89.2c0.9,1.4,3.1,5.4,0.4,5.9c-0.4-1.6-0.8-3.3-1.3-5C520.9,89.8,521.2,89.5,521.5,89.2z" />
	<path fill="#4A433F" d="M458.1,100.4c-0.3-0.2-0.6-0.4-1-0.6c0.8-1.2,1.4-2.2,2.4-3.7c0.1,1.4,0.1,2.1,0.2,2.8   C459.1,99.4,458.6,99.9,458.1,100.4z" />
	<path fill="#4D3A37" d="M495.3,25c-1.9,1.6-3.1,2.4-5.2,2.1C491.5,25.7,492.6,24.8,495.3,25z" />
	<path fill="#6D5D57" d="M467,54.9c-0.3,0-0.7-0.1-1.1-0.1c0-1.6,0.4-2.8,1.8-3.7c0.3,0,0.5,0,0.8,0.1   C468.3,52.4,467.4,53.6,467,54.9z" />
	<path fill="#625652" d="M459.5,95c-0.7-0.9-0.4-1.8,0-2.8c0.3-0.3,0.7-0.5,1.2-0.9C461.6,93.1,460.3,93.9,459.5,95z" />
	<path fill="#65514D" d="M465.6,58.6c0.3-0.5,0.5-1,0.8-1.5c1.1-0.1,2.5-1,3.5-0.5c-0.6,1.6-2.6,1.1-3.5,2.1   C466,58.7,465.8,58.6,465.6,58.6C465.5,58.6,465.6,58.6,465.6,58.6z" />
	<path fill="#7B6863" d="M517.1,107.1c-0.3-0.7,0.5-1.8-0.7-2.2c-0.2-1,0.3-1.5,1.2-2.4C518,104.4,518.2,105.8,517.1,107.1z" />
	<path fill="#E9C7B8" d="M476.1,100.1c1.7,1.7-0.5,3.6-0.2,5.5C474.2,104.3,476,101.9,476.1,100.1z" />
	<path fill="#5C4B48" d="M516.5,83.6c1.2,0.4,1.5,1.3,1.7,2.4C516.5,85.7,516.5,85.7,516.5,83.6z" />
	<path fill="#A5948D" d="M507.5,47.5c-0.4-1.5,0.6-2.3,2.1-2.8C509.3,46.1,508.4,46.8,507.5,47.5z" />
	<path fill="#836D68" d="M521.5,89.2c-0.3,0.3-0.6,0.6-0.9,0.9c-0.4-0.7-0.7-1.4-1.1-2.1C520.9,87.6,521.2,88.4,521.5,89.2z" />
	<path fill="#A08A83" d="M473.6,45.6c-0.5,0.6-1,1.1-1.7,1.9C471.4,46,472.2,45.5,473.6,45.6z" />
	<path fill="#776F6A" d="M485,30.2c0.7-0.3,1.3-1.1,2.2-0.6c-0.5,0.6-1.1,1.3-1.9,2.2C485.1,31,485,30.6,485,30.2z" />
	<path fill="#AF9D95" d="M483.3,33.5c-0.4,0.8-0.8,1.3-1.7,1.1C481.7,33.4,482.3,33.2,483.3,33.5z" />
	<path fill="#756E68" d="M509.6,98.1c-1.2-0.4-0.7-1.4-0.7-2.2C510.1,96.3,509.6,97.3,509.6,98.1z" />
	<path fill="#9D857C" d="M468.5,51.1c-0.3,0-0.5,0-0.8-0.1c0.3-0.6,1.2-1.9,1.6-0.7C469.1,50.6,468.8,50.9,468.5,51.1z" />
	<path fill="#6A605C" d="M461.2,89.1c0-0.5,0-1,0-1.5c0.1,0,0.3,0,0.4,0c0,0.5,0,1,0.1,1.5C461.5,89,461.4,89.1,461.2,89.1z" />
	<path fill="#AA8E87" d="M510.1,77.4c0.3,0.4,0.5,0.8,0.7,1.1C509.9,79,509.3,78.2,510.1,77.4z" />
	<path fill="#EDC9B9" d="M509.7,98.8c0.3,0.5,0.5,1,0.8,1.5l-0.2,0.2c-0.2-0.5-0.5-1-0.7-1.4L509.7,98.8z" />
	<path fill="#AF9389" d="M454.3,82.5c-0.7-0.2-0.6-0.6-0.4-1.2c0.2,0.1,0.3,0.3,0.5,0.4C454.4,82,454.4,82.2,454.3,82.5z" />
	<path fill="#92726C" d="M514.5,80.5c-0.3,0.5-0.5,0.4-0.9,0.2C513.8,80.2,514,80.3,514.5,80.5z" />
	<path fill="#9D857C" d="M467.9,52.7c0.2-0.3,0.3-0.6,0.5-0.9C468.2,52.1,468,52.4,467.9,52.7z" />
	<path fill="#EAC8B8" d="M461,63.8c0.3-0.2,0.5-0.4,0.8-0.6C461.6,63.3,461.3,63.5,461,63.8z" />
	<path fill="#EAC8B8" d="M461.9,63.1c0.2-0.2,0.4-0.3,0.7-0.5C462.3,62.7,462.1,62.9,461.9,63.1z" />
	<path fill="#EAC8B8" d="M464.8,60.1c0.2-0.3,0.4-0.5,0.7-0.8C465.3,59.5,465,59.8,464.8,60.1z" />
	<path fill="#EAC8B8" d="M460.2,64.4c0.3-0.2,0.5-0.4,0.8-0.7c0,0.3,0,0.5,0.1,0.8C460.8,64.5,460.5,64.5,460.2,64.4z" />
	<path fill="#EAC8B8" d="M465.5,58.6c0.3,0.1,0.5,0.1,0.8,0.2c-0.3,0.2-0.5,0.3-0.8,0.5C465.5,59,465.5,58.8,465.5,58.6z" />
	<path fill="#F9DDD1" d="M481.2,80.2c1.9,5.4-2.9,12.3,2.9,16.1c-0.9,3.8-2.4,7.1-5,10.4c-1.5-7.3-4.7-13.4-5.5-20.8   c-1.5-1.3-2.8-2.3-4.4-3.6c0.7-0.4,1.3-0.6,2-1c0.2-0.7,0.4-1.5,0.6-2.3c1.6-0.1,0.8,1.6,1.9,2.1c1.1-0.2,0.5-1.4,1-2.1   c0.6-0.4,1.3-0.9,2.2-1.4c0.5,1.1,1.6,1.3,2.7,1.2C480.2,79.2,480.7,79.7,481.2,80.2z" />
	<path fill="#F2F3F3" d="M486.5,84.2c-0.3,1.1-1.1,1.9-2.2,2.9c-0.6-5.1-1.1-9.8-1.7-14.8c0.6-1.2,1.2-2.8,2.1-4.7   c2.1,4.2,0.6,9.2,3.9,12.8c0.2,0.3,0,0.9,0,1.3c-0.2,0.3-0.4,0.5-0.6,0.8l0,0c-0.2,0.3-0.5,0.5-0.7,0.8l0,0   C487,83.6,486.8,83.9,486.5,84.2z" />
	<path fill="#F5D9CE" d="M464.8,111.6c0.1-0.5,0.1-1.2,0.4-1.3c2-1.4,2.3-3.9,4.2-5.4c1.4,2.9,2.7,5.7,4.1,8.6   C470,116,467,115.3,464.8,111.6z" />
	<path fill="#EDD1C6" d="M466.2,131c-0.3-4.5-1.7-8.9-1.3-13.4c0.2-0.1,0.5-0.1,0.7-0.1c1.3,2.4,1.2,5.3,2.9,7.6   c0.1,2,2,3.5,1.5,5.6c0.9,1.4,0.4,2.8-0.2,4.3C468.2,133.9,467.2,132.5,466.2,131z" />
	<path fill="#483D39" d="M473,112.3c-1.7-2.3-2.3-5.1-3.7-7.4c0-0.6,0-1.2,0-2.5c2.5,2.7,2.9,5.3,4.5,8.5   C473,111,473.1,111.7,473,112.3z" />
	<path fill="#C0B1A8" d="M481.2,80.2c-0.5-0.5-1-1-1.6-1.6c0.6-0.8,1.3-1.7,1.9-2.4C482,78.1,482,78.1,481.2,80.2z" />
	<path fill="#76706A" d="M465.5,117.5c-0.2,0-0.5,0-0.7,0.1c-0.3-0.8,0.3-1.8-0.7-2.4c0-0.3,0.1-0.7,0.1-1   C465.5,115.1,465.5,115.1,465.5,117.5z" />
	<path fill="#FBDFD3" d="M486.5,84.2c0.2-0.3,0.5-0.6,0.7-1C487,83.6,486.8,83.9,486.5,84.2z" />
	<path fill="#FBDFD3" d="M487.2,83.3c0.2-0.3,0.5-0.5,0.7-0.8C487.7,82.7,487.5,83,487.2,83.3z" />
	<path fill="#FBDFD3" d="M488,82.5c0.2-0.3,0.4-0.5,0.6-0.8C488.4,82,488.2,82.2,488,82.5z" />
	<path fill="#574742" d="M509.5,99c0.2,0.5,0.5,1,0.7,1.4c-0.1,0.7,0,1.5-1.1,1.3C508.8,100.8,508.3,99.8,509.5,99z" />
	<path fill="#64413C" d="M494.6,101c0.4,0.4,0.9,0.6,0.3,1.1c-0.3-0.2-0.5-0.4-0.8-0.6C494.2,101.4,494.4,101.3,494.6,101z" />
	<path fill="#121B34" d="M484.2,249c-1.6-0.6-1.4,1-1.6,2.1c-1-0.7-0.7-1.7-0.4-2.6C483.1,248,483.8,247.8,484.2,249z" />
	<path fill="#151D3A" d="M495.3,249.7c-0.1,1.7,0.8,3.7-0.6,5.1c-0.4-1.7-1.1-3.3-0.7-5.1C494.4,249.6,494.8,249.7,495.3,249.7z" />
	<path fill="#1B2446" d="M499.3,253.2c0-1.2,0-2.3,0-3.5C500.1,250.9,500.2,252.1,499.3,253.2z" />
	<path fill="#EECABA" d="M488.7,15.3c0.9,0.6,1.6,1.5,2.2,2.4c-12.9,2.2-14.6,10.4-29.3,5.8c-20.6,0.6-40.7,8.7-57.2,20.9   c-9.2-14.5,43.4-26,53.2-24.5c-0.8,0.6-1.6,1.2-2.9,2.1c2.4,0.1,4-0.4,5.5-1c0-0.5,0.1-0.8,0.1-1.2c0.8,0,1.6,0,2.4,0   c-0.1,2.6,1.9,1.2,2.2-0.4c-0.4-0.3-0.7-0.4-0.9-0.5c0.3-0.2,0.5-0.4,1.1-0.8c0.2,0.7,0.4,1.3,0.7,2c1.7,0.6,3.5,1.2,5.4,1.9   c1.3-0.6,2.8-0.9,3.4-2.5c0.4,0.3,0.7,0.5,1.2,0.9c0.1-0.5,0.2-1,0.3-1.4C480.3,17.5,483.9,14.7,488.7,15.3z M450.9,22.2   c0,0.1,0,0.2,0,0.3c0.4,0,0.8,0,1.1,0c0-0.1,0-0.2,0-0.3C451.7,22.2,451.3,22.2,450.9,22.2z" />
	<path fill="#070606" d="M404.4,44.4c5.2-3.5,17.4-13.3,23.2-11.2c-1.7,1-3,2.9-5.4,2.7c-4.9,2.5-9.5,5.7-14.5,8.5   c0.3,1,0.5,1.9,0.8,2.8c10,4.7,15.9,15.7,12.4,26.4c-1-1.3-1-2.8-0.7-4.3C422,57.6,407.5,53.8,404.4,44.4z" />
	<path fill="#EDC9B9" d="M432.7,122.8c-0.7,4.4-1.7,8.7-3.7,12.7c-1.6-0.4,0.1-4.2-2.4-3c-3.5-2.6-6.9-6.8-4.9-11.5   c2.6-0.6,2.6-0.6,9.6,2.4C431.8,123.2,432.2,123,432.7,122.8z M425.6,130.2c0.3-1.7,0.3-1.7-1.2-1.9   C424.8,129,425.2,129.5,425.6,130.2z" />
	<path fill="#0E0C0B" d="M420.8,73.5c1.5-3.2,0.4-7,0.7-10.5c1.8,3.4,0.3,8.1,0.8,12c4.7,4.8,10.7,8.8,12.8,15.5   c-0.3,0.5-0.5,1.1-0.8,1.6C430.3,85.4,422.4,81.4,420.8,73.5z" />
	<path fill="#201716" d="M435,96c0,0.5,0,1,0,1.4c-5.3,0.3-9.3,3.7-12.7,7.4c-0.3-0.3-0.6-0.6-0.8-0.9C424.6,99,428.9,95.9,435,96z" />
	<path fill="#29211F" d="M393,24.6c-2.3,1.9-2.3,1.9-4.8,2.3c-0.7,1.1-1.5,2.3-2.3,3.6c0.4,1.2,0.8,2.3,1.3,3.6   c-7.1-1.7-1.9-7.5,1.9-9.8C390.1,24.4,391.5,24.5,393,24.6z" />
	<path fill="#36312E" d="M404.5,64c1.6,1.4,2.3,6.4-0.6,5.3C404.2,67.6,404.4,66,404.5,64z" />
	<path fill="#412A27" d="M460.2,19.9c0,0.4-0.1,0.7-0.1,1.2c-1.5,0.7-3.1,1.1-5.5,1c1.3-1,2.1-1.6,2.9-2.1   C458.4,19.9,459.3,19.9,460.2,19.9z" />
	<path fill="#4F3C39" d="M479.8,11.7c0.3,0.3,0.5,0.5,0.8,0.8c-1.8,1-3.7,0.7-6.1,0.7C476.3,11.4,478,11.6,479.8,11.7z" />
	<path fill="#463532" d="M427.5,104.1c1-1.1,2.1-4.6,3.9-2.8c-1,1.2-2.1,2.3-3.1,3.5C428,104.6,427.7,104.3,427.5,104.1z" />
	<path fill="#4D4947" d="M434.4,92.1c0.3-0.5,0.5-1.1,0.8-1.6c0.7,1.5,1.4,3.1,2.1,4.6c-0.5,0-1,0-1.6,0   C435.2,94.1,434.8,93.1,434.4,92.1z" />
	<path fill="#EECABA" d="M379.6,33.4c-1.1-1.9-0.5-4-0.8-6C380.6,28.8,379.3,31.4,379.6,33.4z" />
	<path fill="#302B29" d="M414.2,101c0.8,0.8,2.2,1.2,2.3,3c-1.9,0-2.4-1.6-3.6-2.8C413.4,101.1,413.8,101,414.2,101z" />
	<path fill="#847872" d="M421.4,106.3c-0.6,1-0.4,2.4-1.8,3.2c-0.5-1.7,0.4-2.8,0.9-4.1C420.8,105.7,421.1,106,421.4,106.3z" />
	<path fill="#44413E" d="M378.5,40.1c-0.5-1.8,0.1-2.8,0.7-4.3C380.1,37.6,380,38.7,378.5,40.1z" />
	<path fill="#513F3B" d="M464,19c0.2,0.1,0.4,0.2,0.9,0.5c-0.4,1.6-2.4,3-2.2,0.4C463.1,19.5,463.6,19.2,464,19z" />
	<path fill="#8F8680" d="M402.7,54.8c0.3,0.8,0.5,1.6,0.8,2.5c-0.3,0.2-0.6,0.4-1,0.6c-0.4-1.1-0.7-2.1-1-3.1   C401.9,54.8,402.3,54.8,402.7,54.8z" />
	<path fill="#615752" d="M476.1,19c-0.1,0.4-0.2,0.9-0.3,1.4c-0.5-0.3-0.8-0.6-1.2-0.9c0-0.7,0-1.3,0-2.8   C475.4,18,475.8,18.5,476.1,19z" />
	<path fill="#6D5551" d="M403.6,18c-0.1,1.3-1.2,1.2-2,1.7C401.1,18.3,402.3,17.7,403.6,18z" />
	<path fill="#583F3C" d="M396.2,22.3c0.7-0.3,1.4-0.7,2.2-1c0.6,1.3-1.1,1.9-2,1.8C396.3,22.8,396.3,22.5,396.2,22.3z" />
	<path fill="#5C4B48" d="M402.7,54.8c-0.4,0-0.8,0-1.2,0c0-0.6,0-1.3,0-2C402.6,53.2,402.9,53.9,402.7,54.8z" />
	<path fill="#AD9B93" d="M403.9,63c-0.1-1.4-0.1-2-0.1-3.2C405.2,61.6,405.4,61,403.9,63z" />
	<path fill="#A3897F" d="M426.7,132.5c1.2-0.8,1.8,0.6,1.6,1.6C427.2,134,426.7,133.5,426.7,132.5z" />
	<path fill="#927670" d="M414.2,101c-0.4,0.1-0.8,0.1-1.2,0.2c-0.4-0.5-0.9-1.1-1.5-1.8C412.9,99.6,413,99.6,414.2,101z" />
	<path fill="#72645F" d="M427.5,104.1c0.2,0.2,0.5,0.5,0.7,0.7c-0.3,0.8-0.7,1.6-1.7,1.6C426.5,105.2,426.5,105.2,427.5,104.1z" />
	<path fill="#3F3C39" d="M421.4,106.3c-0.3-0.3-0.6-0.6-0.9-0.8c0.3-0.5,0.6-1,0.8-1.5c0.3,0.3,0.6,0.6,0.8,0.9   C422,105.3,421.7,105.8,421.4,106.3z" />
	<path fill="#7A6762" d="M408.5,17.4c-0.6,0-1.2,0-1.8,0c0-0.1,0-0.3,0-0.4c0.6,0,1.2,0,1.8,0C408.5,17.1,408.5,17.3,408.5,17.4z" />
	<path fill="#917C75" d="M466.8,17.1c-0.2,0.5-0.5,0.4-0.9,0.2C466.1,16.8,466.4,16.9,466.8,17.1z" />
	<path fill="#161413" d="M442.4,94.4c0.5-0.4,0.9-0.8,1.4-1.1c-1.6-6.9,0.8-14.3-1.5-20.7c-3.1-2.2-4.5-5.4-5.9-8.7   c0.3-0.5,1-0.9,1.4-1c-0.2-2.6,1.3-4.8,1.5-7.2l0.3-0.1c0.9,0.9,0.4,2,0.5,3.1c-1,0.1-0.6,0.9-0.7,1.5c-1,0.5-0.8,1,0,1.5   c-0.7,1-0.2,2,0.1,3c-1.4,0.2,0.2,3.7,1.4,2.9c-0.1,0.7-0.1,1.3,0.6,1.6c0.9,1.6,1.3-2,0.2-2.3c-0.2-0.5-0.3-1,0-1.5   c1,0,1.8,0.4,2.2,1.4c-0.1,12.3,3.7,25.5,5.2,38.2l0,0c-0.2-0.1-0.4-0.1-0.7,0c-1.1-3.6-2.3-7.2-3.5-11.1c-0.7,0.5-1.3,1-1.8,1.4   C442.9,94.9,442.6,94.6,442.4,94.4z" />
	<path fill="#212222" d="M458.2,31c-0.7,0.4-1.3,0.8-2.6,1.5c0.8-1.6,1.2-2.5,1.7-3.5c1.7,0,3.1-1.5,5-0.6c0.3,0.1,1-0.5,1.7-0.9   c0.5,2.8-1.5,1-1.8,3c-1.6,1.3-4.1,5.4-6.4,4.4c1.1-1.3,2-2.4,2.9-3.5C458.4,31.3,458.3,31.1,458.2,31z" />
	<path fill="#212222" d="M465.8,25.9c1.4,0.6,2.7,1.2,4.4,1.9c0.3-0.1,1-0.2,1.8-0.5c-0.1,1.5,0.9,3.3-0.6,4.1   c-1.3-0.3-1.7-1.5-2.5-2.5c-0.6,0-1.3,0-2.3,0c-0.1,1.4,0.4,2,0.1,3.3c-0.6-0.5-1.2-1.1-1.8-1.7C465,29.1,464.3,27.6,465.8,25.9z" />
	<path fill="#282726" d="M437.2,63.1c-0.3,0.3-0.5,0.5-0.8,0.8c-3.5-3.5-0.1-7.4,0-11.2c1.3,0.7,3,1,3.2,2.9   c-0.6,0.3-1.4,0.1-2.1,0.1C436.8,58.2,436.8,60.6,437.2,63.1z" />
	<path fill="#C0ACA2" d="M445.3,82.7c-1.5-4.4,0.2-9.8-1.7-14.4c-0.2-0.6-0.4-1.2,0.4-1.6c0.1,0.2,0.3,0.3,0.5,0.2   c0.3,0.3,0.6,0.5,0.9,0.8c0.3,2.7,0.6,5.3,0.9,8C444.5,77.2,445.7,80.5,445.3,82.7z" />
	<path fill="#302524" d="M437.1,30.2c-2.2-2.2-6.9,2.3-9.6,3c-0.3-0.8-0.9-0.7-1.5-0.8c3.3-1.4,6.2-3.9,9.8-4.4   C436.6,28.5,439,29.3,437.1,30.2z" />
	<path fill="#2B2D2D" d="M441.4,39.3c1.3-2.7,2.6-4.5,4.4-5.9c1.3,0,2.5,0,3.7,0C446,33.8,444.7,37.3,441.4,39.3z" />
	<path fill="#DDC0B2" d="M445.3,82.7c0.5-2.2-0.8-5.4,1-6.9c1.5,0.3,1.5,0.3,1.3,2.2c-0.9,1.7-0.4,3.9-2,5.2   C445.4,83,445.3,82.8,445.3,82.7z" />
	<path fill="#212323" d="M444.8,30.5c-0.7,2.9-3,4.3-5.5,6.6C440.3,33.6,442.9,32.3,444.8,30.5z" />
	<path fill="#272828" d="M445.7,49.3c-0.6,1.6-1,2.8-1.5,4.3c-1.4-1.2-0.9-2.5-0.9-4C444.1,48.7,444.3,49.1,445.7,49.3z" />
	<path fill="#1C1C1C" d="M464.1,39.9c0.3-1.7,0.6-3.3,1-5.3c0.8,0.5,1.3,0.8,2.2,1.3C466,37.3,465.8,39.2,464.1,39.9   C464.1,39.9,464.1,39.9,464.1,39.9z" />
	<path fill="#191919" d="M444.8,62.3c-0.2-2.6,0.4-4.5,1.6-6.8C447.5,58.4,446.3,60.1,444.8,62.3z" />
	<path fill="#61544D" d="M445.5,83.1c1.6-1.3,1.1-3.5,2-5.2c0.3,0.5,0.6,1,0.8,1.5c-0.7,2-1.4,4-2.2,6   C445.9,84.7,445.7,83.9,445.5,83.1z" />
	<path fill="#45433E" d="M453.6,70.5c-0.5,1.3-1,2.7-1.5,4.1c-0.6-0.2-1.1-0.3-1.5-0.4c0.5-1.4,1-2.8,1.5-4.3   C452.8,70.2,453.2,70.4,453.6,70.5z" />
	<path fill="#242525" d="M451.5,50.9c-0.2-1.9-0.5-3.7,1.1-5.4C453,47.5,453.2,49.3,451.5,50.9z" />
	<path fill="#140F0D" d="M456.6,66.8c0.3,0,0.6,0,0.9,0c0.2,2-1.4,2.5-3.1,2.2c0.1-1.2,0.3-2.4,1.6-3   C456.2,66.3,456.4,66.6,456.6,66.8z" />
	<path fill="#CCBAB1" d="M441.7,65.3c-0.1,0.2-0.2,0.5-0.2,0.7c-1.3,0.4-1.2-1.1-2-1.4c-0.3-1-0.8-2-0.1-3c0.8,1.2,1.7,2.3,2.1,3.8   L441.7,65.3z" />
	<path fill="#222525" d="M451.3,28.1c-0.8,0.6-1.6,1.3-2.5,1.9C448.7,28.5,448.7,28.5,451.3,28.1z" />
	<path fill="#B5B9B9" d="M483,22.9c-0.3-0.2-0.5-0.3-1.1-0.7c0.9-0.6,1.6-1.1,2.3-1.6C484.8,21.1,484.8,21.1,483,22.9z" />
	<path fill="#212222" d="M458.8,45.4c0.1-0.7,0.2-1.5,0.3-2.2c1.9-0.3,0.7,1.5,0.2,2.2C459.2,45.4,459,45.4,458.8,45.4z" />
	<path fill="#1C1C1C" d="M462.6,43.7c-0.3,1.1-0.7,2.3-1.1,3.9C460.9,45.6,461,44.4,462.6,43.7L462.6,43.7z" />
	<path fill="#8B817A" d="M439.4,60.1c0.1-0.6-0.2-1.3,0.7-1.5C440.1,59.3,440.5,60.3,439.4,60.1z" />
	<path fill="#1C1C1C" d="M464.1,39.9c-0.1,0.4-0.1,0.7-0.3,1.8C463.5,40.4,463.2,40.4,464.1,39.9C464.1,39.9,464.1,39.9,464.1,39.9z   " />
	<path fill="#1C1C1C" d="M462.6,43.7c0-0.4,0.1-0.7,0.2-1.8C463.1,43.2,463.4,43.2,462.6,43.7L462.6,43.7z" />
	<path fill="#96827C" d="M441.6,65.4c-0.2-0.5-0.4-1.1-0.6-1.6C441.7,64.1,441.7,64.7,441.6,65.4z" />
	<path fill="#45433E" d="M454.2,69.7c-0.2,0.3-0.4,0.5-0.5,0.8C453.8,70.3,454,70,454.2,69.7z" />
	<path fill="#161413" d="M445.3,67.7c-0.3-0.3-0.6-0.5-0.9-0.8C445,66.9,445.3,67.2,445.3,67.7z" />
	<path fill="#EAC8B8" d="M456.6,66.8c-0.2-0.2-0.4-0.4-0.6-0.7c0.2,0,0.4-0.1,0.6-0.1C456.6,66.3,456.6,66.5,456.6,66.8z" />
	<path fill="#45433E" d="M450.6,74.3c-0.2,0.3-0.4,0.6-0.6,0.9C450.2,74.9,450.4,74.6,450.6,74.3z" />
	<path fill="#4D4D4F" d="M445.4,581.6c0.3,0,0.5,0,0.8,0c-0.2,0.2-0.5,0.5-0.7,0.7C445.4,582.1,445.4,581.8,445.4,581.6z" />
	<path fill="#484A53" d="M465.1,160.9c-0.5,5.3-0.4,10.2,0.2,15.7C463.1,174.5,461.6,161.6,465.1,160.9z" />
	<path fill="#1F2125" d="M465.7,188.4c0.1-4-1-7.2-0.7-11.4c3.4,2.6,2.3,7.8,1.3,11.4C466.1,188.4,465.9,188.4,465.7,188.4z" />
	<path fill="#52545E" d="M467.3,221.1c0.1-3.7-2-6.7,0.3-9.8C468,214.9,469.7,217.9,467.3,221.1z" />
	<path fill="#676976" d="M469.3,231.7c-0.3,0-0.5,0-0.8,0c0-2.3,0-4.6,0.1-7.1C470.7,226,468.7,229.4,469.3,231.7z" />
	<path fill="#303239" d="M465.7,188.4c0.2,0,0.4,0,0.6,0c0.1,1.4,0.4,2.9-0.3,4.6C465.3,191.3,465.5,189.8,465.7,188.4z" />
	<path fill="#8E92A4" d="M470.2,205.6c0.5,0.5,0.9,0.8,1.4,1.2c-0.4,0.5-0.7,1-1.4,2C470.2,207.4,470.2,206.7,470.2,205.6z" />
	<path fill="#080708" d="M466.2,201c-1.2-0.7-0.3-1.9-0.6-2.8C467.2,198,466.2,200.1,466.2,201z" />
	<path fill="#F6DACF" d="M443.2,95.2c0.6-0.4,1.1-0.9,1.8-1.4c1.5,4,2.1,8.1,3.9,11.6c0.1-0.2,0.1-0.3,0.2-0.5l0,0   c1.2,2,0.5,4.8,0.8,6.9c1.4,1.1,2.6,1.9,3.8,2.9c-0.5,0.3-0.7,0.5-1,0.7c-5.8-3.4-11.1-10.3-12.1-17   C441.6,97.3,442.4,96.2,443.2,95.2z" />
	<path fill="#A58E84" d="M452.9,92.2c0.9,1.4,0.9,1.4-0.4,2.6C451.5,93.7,452.6,93,452.9,92.2z" />
	<path fill="#281F1D" d="M452.3,97.4c1,1.3,1.2,2.1,0,3.4C452.3,99.5,452.3,98.7,452.3,97.4z" />
	<path fill="#8D7067" d="M456.8,73c-0.5,0.9-0.8,1.5-1.1,2.2C455.2,73.9,455.2,73.9,456.8,73z" />
	<path fill="#53403C" d="M456.6,106.4c-0.4,0.2-0.8,0.3-1.2,0.5C454.5,105.7,456,105.3,456.6,106.4L456.6,106.4z" />
	<path fill="#EAC8B8" d="M457.3,68.3c0.1-0.5,0.1-1,0.2-1.4c0.2,0.1,0.4,0.1,0.7,0C458.1,67.5,458.1,68.1,457.3,68.3z" />
	<path fill="#EAC8B8" d="M458.1,66.8c0.2-0.3,0.5-0.6,0.7-0.8C458.6,66.3,458.3,66.5,458.1,66.8z" />
	<path fill="#EAC8B8" d="M458.8,66c0.2-0.3,0.5-0.6,0.7-0.8C459.2,65.4,459,65.7,458.8,66z" />
	<path fill="#EAC8B8" d="M459.4,65.2c0.3-0.3,0.5-0.5,0.8-0.8C460,64.7,459.7,64.9,459.4,65.2z" />
	<path fill="#050404" d="M491.7,78c0.1-0.2,0.3-0.4,0.4-0.5C492.4,78.1,491.9,77.9,491.7,78C491.6,77.9,491.7,78,491.7,78z" />
	<path fill="#735952" d="M450.9,22.2c0.4,0,0.8,0,1.1,0c0,0.1,0,0.2,0,0.3c-0.4,0-0.8,0-1.1,0C450.9,22.5,450.9,22.3,450.9,22.2z" />
	<path fill="#9C847A" d="M425.6,130.2c-0.4-0.7-0.7-1.2-1.2-1.9C425.9,128.5,425.9,128.5,425.6,130.2z" />
	<path fill="#DCC4BA" d="M437.2,63.1c-0.4-2.4-0.4-4.9,0.3-7.4c0.6,0,1.2,0,1.8,0c-0.2,2.4-1.7,4.6-1.5,7.2   C437.8,62.9,437.4,63,437.2,63.1z" />
	<path fill="#96827C" d="M439.6,64.6c0.8,0.3,0.7,1.8,2,1.4c0.1,0.3,0.2,0.5,0.2,0.8c-0.3,0.2-0.5,0.5-0.8,0.7   c-0.5-0.3-1-0.5-1.5-0.8C439.3,66,438.4,64.8,439.6,64.6z" />
	<path fill="#423835" d="M441,67.4c0.3-0.2,0.5-0.4,0.8-0.7c0.7,0.4,0.7,1,0.6,1.6c-0.3,0.2-0.5,0.5-0.8,0.7   C440.9,68.7,440.9,68.1,441,67.4z" />
	<path fill="#423835" d="M439.5,66.7c0.5,0.3,1,0.5,1.5,0.8C440.3,67.5,439.6,67.7,439.5,66.7z" />
	<path fill="#9D8D85" d="M441.6,69.1c0.3-0.2,0.5-0.5,0.8-0.7C442.6,69.1,442.1,70.2,441.6,69.1z" />
	<path fill="#332927" d="M449.2,104.9c-0.1,0.2-0.1,0.3-0.2,0.5c-0.1-0.2-0.3-0.4-0.4-0.6C448.7,104.8,449,104.8,449.2,104.9z" />
</g>
</svg>