<?xml version='1.0' encoding='utf-8'?>
<svg xmlns="http://www.w3.org/2000/svg" version="1.2" baseProfile="tiny" id="Layer_2_00000010269349821512806940000013573150215476719803_" x="0px" y="0px" viewBox="0 0 900 600" overflow="visible" xml:space="preserve">
<g>
	<path fill="#010000" d="M642.5,318.7c-1.8,3.3-5.1,5.1-7.7,8c2.9,4.2,5.8,8.2,8.7,12.3c19.8-2.8,32.3,14.5,48.4,21.6   c24.2,6.8,48.9,9.3,73.4,14.2c14.3,3.2,27.9,9.2,42.6,10c7.7,1.8,16-1.7,23.4,1.9c-0.5,1-1.6,0.5-2.3,0.8   c-32.6,2-62.4-14.2-94.6-14.5c-0.3-0.5-0.6-1-1-1.7c-15.8-3.3-31.8-6.6-47.4-10.4c-11.4-11.3-26.3-20.7-42.9-19.8   c-6.1-7.7-10.9-15.8-15.8-24c0.5-0.7,1.1-1.4,1.7-2.1c0.3,0.8,0.2,1.6,1.1,2.1c0.4-0.4,0.8-0.8,1.2-1.3c-5.3-23.4-22.9-19.7-41-23   c4.6-6.2,15.4-5.4,22.4-8c-27.5-6.5-50.6,14.4-73.6,25.9c-0.6-0.2-1-0.3-1.5-0.5c-2.3,1.2-4.7,2.6-7,3.8   c-4.1,18.9,0.3,37.4,5.6,55.5c-0.2,0.5-0.4,0.9-0.7,1.4c-7.6-17.5-9.5-36.6-7.2-55.3c-23.1,9.9-49,22.3-74.5,13.7   c-5.7,19.2-11.2,38.5-21.6,55.7c-1.8,4.6-6,9-5.9,14.1c-0.4,1.2-1.4,0.9-2.2,1c-8.6-1.2-17.2-3.1-25.9-4.1   c-36.6,2.3-72.5-6.2-108.5-12.2c-10.9-1.7-20.7-9.3-31.8-9c-2.6,0.3-4.9-0.1-7.3-1.1c-6.7-2.9-13.5-6.2-21-5.7   c-26.7,4-52.9-3.9-79.5-2.4c-15.7,0.6-30.6,7.3-46.4,7c-0.1,0.3-0.3,0.7-0.5,1.1c1.1,0.2,2,0.4,2.7,0.5c0.6,2.5-2,1.9-3.5,1.7   c-1.2-1.2-3.2-2.9-1.7-4.5c-3.9-10,3.7-19.1,13.3-21.8c4.1-1.4,6.1-6,8-9.4c-0.4-1.6-1.6-2.8-0.9-4.4c-5-5-12.4-5.7-16-12.4   c-3.6-3.8-1.5-6.3-8.2-7.1c-14.1,5.3-20.1,20.5-30.9,29.2c-19.9,5.6-30.8,21.1-37.8,39.6c2.9,2.3,6,3.6,9.4,4   c6.6-6.8,15.3-8.7,24.1-11c1.2-0.3,0.2-1.8,1.3-2.1c1.6-0.3,1.4,2.8,3.5,1.7c0-0.7,0-1.4,0-2.4c2.3,0.6,1.7,2.6,1.7,4.2   c-10.5,2.2-21.8,4-29.6,11.9c-19.4,0.2-9.4-14.1-4.4-24.4c6.2-15.1,22.6-18.3,34.3-26.7c9.4-9.8,19.7-31.4,35.8-23.9   c2.5,11.3,17.4,12.3,20,23.3c34.3,3.7,65.7-23.6,99.5-11.7c-1.5-3.1-5.4-4.4-8.6-5.3c-9.3-3.2-18.6-6.8-27.8-10.5   c-31.2-14.7-61.9-29.5-96.2-35.6c-0.7,1.5-1.3,2.9-1.9,4.4c-3.3-0.3-6.7,0.6-9.7-0.7c2.2-2.4,8.8,1.1,9.1-4.2   c-14.7-10.7-9.6-19,4.9-25.9c1.6,0.5,3.3,1,5.1,1.6c-13,2.5-23.6,10.4-10.7,22.2c47.4,5,87.3,32.5,131.3,48   c0.2,0.7,0.8,0.8,1.4,0.7c9.1,7.6,17,16.8,28.4,21.3c-6.3,1.7-13.3-6-18.4-9.7c-15.6-12.1-37.1-5.9-54.4-1.3   c-0.1,0.3-0.9,1.4-0.9,1.2c-17.4,4.2-34.2,8.2-51.5,8.5c-2.3,2.6-4.1,4.9-6,7.7c-8.2,2.4-21,10.6-14.6,20.3   c14.1-0.3,27.2-5.8,41.2-6.9c18.9-2,37.7,0.1,56.4,2.9c11.9,1.3,23.8-2.1,35.7,0c9.7,1.2,17.5,7.7,27.4,6.7   c14,3.8,28.5,9.1,43.3,11.2c0.8,0.8,1.9,0.6,2.9,0.7c1.4,0.6,1.4,0.6,2.7,0c-22-8.3-43.1-20.7-59.4-37.8c0.3-0.3,0.6-0.6,0.9-0.8   c60.1,50.6,98,42.5,168.9,51.6c11.3-22.6,22.2-46.1,28-70.5c-22.7-18.8-60.3-26.8-83.7-5.2c-0.5,0-1,0.1-1.5,0.1l0.1,0   c-8.2-3-18.3-2-27-4c-14.4-5.1-29-9.3-44-11.9c-12.9-2.1-26.3-0.4-36.9-9.5c-4-2.5-7.8-4.9-12.5-5.2c-31.5-23.8-68.8-27.9-107-32.2   c-8.4,0.1-23.6-11.1-28.6-5.2c-1-0.1-1.8,0.3-2.6,1.2c2.5,0.3,4.6-0.9,6.1,1.6c-3.4-0.2-6.3,0.6-9.3-0.7c0.2-1.6-1.1-2.1-2.1-2.9   c4.8-2,5.2,1.4,11.4-3.5c1.2,0.2,2,0.3,2.9,0.5c0.2-1.4,0.4-2.5,0.7-3.8c-8.1-6.2-11.3-19-13.5-29c-24.7-6-30.6,8.3-51.3,15.5   c-21.1,0.9-29.4-0.2-42.2,19.6c-0.7,6.8-8.4,16.6,0.8,20c9.8-2.8,19.9-10.5,30.4-6.5c-8.8,1.7-17.9,3.4-26,7.9   c-4.4,2.2-8.1-0.5-11.4-3.1c-1.4-16.2,10.2-31.7,24.6-38.3c8.3-2.9,17.7,0.1,25.8-2.4c15.8-8,32.1-21.9,50.7-13.9   c4,10.2,5.7,21.7,13.8,29.3c-0.2,1.6-0.4,3.3-0.6,5.2c35.5,13.8,77.6,6.9,110.7,27.6c12.7,9.7,27.5,15.2,41.8,21.9   c8.4,2.9,18.7,2.3,27.6,4.7c23.1,1.8,43.2,13.3,66.5,14.8c87-49.7,61.3,63.2,200.4-28.5c11.3-2.3,20-12.3,31.4-13.8   c7.3,0.5,11.9-5.7,18.6-7c0.7,0.3,1.6-0.3,2.1,0.6c-6.6,1.8-11.3,8.4-18.3,8.4c-3.2,0.5-8.3,0.3-10.1,3c-0.6,0.1-1.1,0.2-2.5,0.4   c10.4-0.9,21.8-4.3,31.3,2.2c6.5-2.2,6.2-10.3,5.9-16.1l0,0c1.2,0.2,0.6-1.3,0.8-2c1.6,3.6,0.2,7.4,0.9,11.5c1.5-3.6,8-7.5,4-10.8   c1.5-5.5,0.1-13.3,4.1-18.2c0.7-2.1,2.8-4.3,4.4-5.9c-0.1-1.2,1-1.3,1.6-2c2-1.2,4.9-7.3,7.2-5c-0.6,4.2-5.3,6.7-7.2,10.5   c-4,3.5-5.7,10.8-7.7,15.4c4.3,13.1-2.7,19.3-13.8,24.2c-5.4-1.6-16.8,0.9-22.3,4.8c17.7,0.4,28.8,2.3,37.2,19.3   c0.1-0.2,0.3-0.3,0.4-0.5l0,0c0.3,0.3,0.7,0.5,1,0.8c-0.4,0.7-0.7,1.2-0.9,1.6c1.1,3.3,1.2,6.6,0.8,9.9c2.8-1.4,4.5-4.3,7.6-5.4   C642,318.1,642.3,318.4,642.5,318.7z M630.5,318.9c0.8,0.7,1,1.5,1.8,1.4c0.3-0.8-0.3-1.4-0.6-2.2   C631.3,318.3,631,318.5,630.5,318.9z" />
	<path fill="#020201" d="M424,400.2c0.9-0.1,1.9,0.2,2.2-1c40.1,0.6,81.8,1.4,121.7-6.3c-3.1-4.4-6.7-8.1-8.4-13.1   c0.3-0.3,0.6-0.6,0.9-0.9c3.3,4.8,6.6,9.1,10.4,13.6c24.3-9.3,59,9.6,72.4-20.8c-6.1,0-11.8,0-17.6,0c0.1-0.5,0.2-1.1,0.4-1.8   c-2.4-0.2-4.3-1.4-4.5-2.8c8.3,3.1,17.2,1.1,25.3,4.1c16.4,8.8,34.8,13.1,52.1,19.7c17.8,5.2,38,0.5,55.1,5.9   c-19.6-0.7-41.1,1.7-60.3-5c-16.3-6.7-33.1-8.6-47.9-19.2c-11.7,25.8-40.5,18.5-62.7,18.7C518.3,404.1,469.5,402.2,424,400.2z" />
	<path fill="#050404" d="M756.7,243.4c-14.9,9.7-25.7,25.2-42.5,31.8c-10.2,27.6-17.2,14-24.1,38.4c-2.9-4.9,3.4-18.4,9.9-19   c3.5-6.6,8.5-11.6,11.1-18.6c-0.8-1.6-0.8-1.6-0.8-3.9c-0.5-0.1-1.1-0.2-1.7-0.3c2.6-5.9-3.4-13.5-0.8-17.2c1.9,2.3,1,4.8,3.4,7.1   c-0.2-2.4-0.4-4.4-0.7-6.3c2.2,3.9,1.5,7.6,2.4,12.3c1.7-4.1-0.8-7.8,1.1-10.8c2.3,4.6,1.2,9.8,1.7,14.9   c15.5-6.4,25.5-21.2,40-29.2C756.1,242.8,756.4,243.1,756.7,243.4z" />
	<path fill="#040403" d="M38.4,267.6c1.1,0,2.3,0.1,3.1-0.8c1,0,2,0,3,0c0.8-2.6,0.8-2.6,2.1-3.5c1.1,1.3-0.5,2.7,0.2,4.2   c0.5,0.1,0.9,0.9,1.9,0.2c0.6-1.7,0.2-7.6,3.3-6.3c1,2.1-0.7,4.2-0.4,6.6c0.8,0,1.4-0.1,1.9-0.1c0.4-2.6,0.2-5.2,1.8-7.4   c0.6,0,1.2,0,1.7,0l0,0c1,3.1-1.4,5.9,0.3,8.9c1.1,0.5,2.5,1,3.8,1.6c-0.2-3.5-1-6.9,0.2-10.5c0.6-0.4,1.2-0.8,2-1.3   c1.2,1.3,0.8,2.5,0.8,4c-1.6,3,0.6,6.2-0.4,9.3c0.7,0.3,1.3,0.6,2.3,1c-0.4-4-0.9-7.7,1-10.9c0.4,0,0.9,0.1,1.5,0.1   c-0.2,8.5,0.1,19.6,11.3,17.7c2.2,1.1,4.8,0.5,7.2,0.7C70.8,286.2,61.6,268.5,38.4,267.6z" />
	<path fill="#060505" d="M662.9,226.2c17.8-3.8,36.1,7.9,47,21.2c7.7-4.3,16.2-6.8,23.9-11.2c0.3,0.3,0.6,0.5,0.9,0.8   c-7.3,4.9-15.4,8.6-23.5,12.1c-0.4,0.7-0.9,1.4-1.3,2.1c-0.2-0.1-0.4-0.1-0.7-0.1c-10.2-13.6-29.1-24.3-46.2-24   C663,226.8,663,226.5,662.9,226.2z" />
	<path fill="#070606" d="M103.8,372.6c2.7,0,5.4-0.1,8.1-0.1c1.7,8.8-8.6,7.5-14.1,10.5c-1.9,0.7-3.6,0.8-5.4-0.1   c-7.5-3.6-16-4.4-23.9-3.5c0-0.5,0.1-1,0.1-1.6c0.3,0,0.9-0.1,0.9-0.1c0-0.9,1.1-1.6,0.4-2.7c-0.3-0.5,0-1.3,0-1.9   c0.5,0,0.9,0,1.4,0c0.6,1,1.1,2,1.7,3c1.4,0.3,2.6,0.7,3.9,0.1c-0.9-4.2-0.9-4.2-0.1-6.2c0.5,0.1,1.1,0.3,1.6,0.4   c1,2.2,0.6,4.3,2,6.4c1.3,0.3,2.7,0.9,4.2,0.4c-0.4-1.7-0.8-3.3-1.1-4.9c0.3-0.5,0.5-1,0.9-1.5c0.5,0.3,0.9,0.6,1.2,0.8   c3.6,15.2,13.5,8.2,23.8,5.3c0.3-1.3,0.6-2.5,0.9-3.9C107.8,373.2,106,373.4,103.8,372.6z" />
	<path fill="#110E0E" d="M689.2,312.1c0.1,0.7,0.1,1.4,0.9,1.6c-0.1,0.8-0.2,1.6-0.3,2.3c-2.3,2.9-5.2-0.5-7.8-1.3   c-3.6,1.1-2.1,5.3-7.3,4.1c-0.5,3-2.8,4.4-5.8,4.3c-5.4,10.8-14.1,1.8-19-4.4c-2.5-0.4-5-1.6-7.4,0.1c-0.3-0.3-0.6-0.6-0.8-0.9   c10.3-8.3,12.3,5.7,20.1,8.7c3.3-1,3.7-4.7,6.9-5.4c5.7-0.8,6.4-4,0.8-5.5l0,0c-0.1-0.7-0.1-1.4-0.2-2c0.7,0,1.4,0,2.1,0   c3.7,4.3,5.5,4.8,8.5-0.3c-0.2-1.3-1.9-2.4-0.1-4c0.4,2.2,2.4,2.4,3.7,3.4c1.4,1.1,2.8,2.6,4.9,2.3C688.7,314,689,313,689.2,312.1z   " />
	<path fill="#0A0808" d="M820.5,400.8c-24,2-49.6,5.8-73,0.7c8.2-1.8,17.3,1.6,25.9,0.7C789,402,805.2,398.4,820.5,400.8z" />
	<path fill="#181111" d="M894.3,402.1c-0.4,0.6-0.9,1.1-1.3,1.6c-2.8,0-5.4,0-7.9,0c-8.2,5.4-18.5-4.6-27-1.4   c-1.4,0-3.1,0.7-4.3-0.6c1.1-0.6,2.6,0.7,3.5-0.7c8.2-3.7,19.8,6,26.1,1.3c-6.5-4.1-13.5-4-20.5-6.9c10.8-1.9,20.3,8.5,30.5,6.2   C893.8,401.7,894,401.9,894.3,402.1z" />
	<path fill="#251816" d="M828.9,387.5c0.7-0.4,1.8,0.2,2.3-0.8c15,1.6,30.2,1.1,44.7,5.7C861.1,391.5,844.1,389.3,828.9,387.5z" />
	<path fill="#181818" d="M625.5,276.1c0-14.8-3.7-29.8-1.4-44.8c1.2-0.7,0.2-1.9,0.6-2.8C624.7,243.4,627.7,260.4,625.5,276.1z" />
	<path fill="#12100E" d="M663,227.1c0.5,0,1,0,1.5,0c0.3,0.4,0.7,0.8,1,1.3c-1.2,0.1-2.1,0.2-3.2,0.1c-0.5-0.8-0.9-0.8-1.4,0   c-3.1,0.5-7.4,0.8-8.5,4.4l0,0c-0.4-0.1-0.8-0.2-1.1-0.3c0.1-1.5,0.7-2.3,1.8-3.1c1.3-3.2,1.6-8.6-1.4-11c0.1-0.7-0.3-1.7,0.8-2.1   c3.9,2.4,4.8,7.3,8.5,9.9C661.3,227.5,662.3,227,663,227.1z M655.9,223.1c-0.1,1.6-0.3,2.7,0.3,3.9c0.7-0.4,1.2-0.7,1.8-1.1   C657.4,225.1,656.8,224.3,655.9,223.1z" />
	<path fill="#1E1414" d="M797.7,225.6c-2.1,0.3-4.6-0.4-5.7,2.1c1.7,0.1,2.5-0.1,3.7,0.7c-1.7,0.2-3.4,0.4-5.2-0.2   c0.1-0.7,0.1-1.3,0.2-1.8c5.8-5.1,16.9-0.8,20.5-7.8c-2.9-0.3-5.6,0.5-8.4,0.8c-0.9-0.4-2.1,0.4-2.8-0.7c3.9-0.3,15.2-5.2,11.9,2.1   C808.7,224.8,802.4,224.2,797.7,225.6z" />
	<path fill="#251816" d="M894.3,402.1c-0.3-0.2-0.5-0.4-0.8-0.6c0-0.3,0-0.7,0-1c-4.9-1.8-9.7-3.7-14.8-4.7c0-0.3,0.1-0.6,0.1-0.8   c5.3-0.2,9.6,3.1,14.6,3.5c-1.1-3.1-5.9-1.3-8.4-3.1c-2.2-2.1-5.3-1.4-8-1.7c0-0.1,0-0.3,0-0.4c3.2-0.6,6.5-0.9,9.4,0.9   c3.1,1.4,6.6,0.7,9.4,3.2c-0.2,0.5-0.4,1-0.6,1.7c0.2,0.4,0.4,1,0.8,1.8C895.4,401.3,894.8,401.7,894.3,402.1z" />
	<path fill="#291E1D" d="M797.8,209.3c-1.7,1-3.3,2.1-5.1,3.2c3.9,1.7,22-10.1,21.3-2.5c-6.3-3.1-16.5,5.6-23.3,4   c0-0.6-0.1-1.2-0.1-1.8c2.2-1.7,4.6-2.9,7.1-3.8C797.8,208.7,797.8,209,797.8,209.3z" />
	<path fill="#231C19" d="M652.5,216.4c-1.1,0.4-0.7,1.3-0.8,2.1c-1.4,0.1-1.1-0.8-1-1.6c-5.4-4-12.6-1.6-18,1.1   c-0.3-0.3-0.6-0.6-0.9-0.8C637.3,212.5,647.1,210.7,652.5,216.4z" />
	<path fill="#1E1817" d="M785.7,199.3c1.2-1.5,2.4-3,4-4.6c0.9,1,1.5,1.8,2.1,2.4c-0.8,3.5-2.5,6.4-4.4,9.1c0.4,0.5,0.8,1,1.3,1.5   c-1.4,0.7-2.8,1.5-4.4,0.5c-0.5,0-1.5,0.6-2.2,0.3c0-2.5,3.4-2.3,4.6-3.8c0.7-1.8,4.8-5.7,2.7-7.2c-0.9,0.9-1.8,1.7-2.8,2.6   C786.3,199.9,786,199.6,785.7,199.3z" />
	<path fill="#292120" d="M786.5,234.3c-3.7,3.5-8.5,3.5-13.2,4.1c-3.2,0.2-6.3,2.7-9.5,1.4c0-0.3-0.1-0.6-0.1-0.9   c7.4-2,15.7-1.8,22.8-5.5C786.5,233.7,786.5,234,786.5,234.3z" />
	<path fill="#201514" d="M806.5,225.8c0.5,0.2,1,0.5,1.5,0.7c-2.5,6.6-11.1,6.6-16.7,5.4c4.5-2.3,11,0.3,14-4.1   c-2.5,0-4.5-1.1-7-0.9c0.1-0.1,0.2-0.3,0.3-0.5C801.3,226.3,803.9,226.3,806.5,225.8z" />
	<path fill="#271D1C" d="M811.3,212.8c-6.3,2.5-12.7,4.4-19.1,6.5c-0.7,0.2-0.7,0.7-0.7,1.3c-1.6-0.6-0.9-1.5-0.4-2.6   c6.4-2.2,12.8-4.6,19.4-6C810.7,212.3,811,212.5,811.3,212.8z" />
	<path fill="#282120" d="M758.8,221.4c5.1-3.8,7.9-9.5,12.7-13.6c0.3,0.3,0.5,0.5,0.8,0.8c-4.1,4.6-7.4,11.7-13.4,13.7   C758.8,221.9,758.8,221.7,758.8,221.4z" />
	<path fill="#161313" d="M820.5,400.8c-2.2-1.2-4.9-0.5-7.3-0.8c7.9-2.2,15.5,1,22.9,3.6c0,0.3,0,0.5,0,0.8c-4.2,0.2-8-1.1-11.7-3.6   C823.3,400.8,821.9,400.8,820.5,400.8z" />
	<path fill="#1A1414" d="M836.2,404.4c0-0.3,0-0.5,0-0.8c5.9-0.5,11.8-1.7,17.7-2c0.8,1.2,2.1,0.4,3.1,0.7   C850.1,403.7,843.1,405.1,836.2,404.4z" />
	<path fill="#3F312E" d="M788.6,207.8c-0.4-0.5-0.8-1-1.3-1.5c0.8,0.2,1.5,0.4,2.1-0.4c5.6-2,11.2-4.1,17-5.7   c0.3,0.2,0.6,0.5,0.9,0.7C801.1,203.2,794.8,205.5,788.6,207.8z" />
	<path fill="#352927" d="M734.7,237c-0.3-0.3-0.6-0.5-0.9-0.8c5.5-3,10.7-6.1,15.7-9.9c0.2,0.2,0.5,0.5,0.7,0.7   C745.7,231.3,740.3,234.3,734.7,237z" />
	<path fill="#2D2220" d="M749,400.8c-0.5,0.2-1,0.5-1.5,0.7c-5.3-2.1-11-2.7-16.4-4.1c1,0,2-0.1,2.9-0.7   C739.3,396.9,744.2,398.8,749,400.8z" />
	<path fill="#2F2B27" d="M631.8,217.1c0.3,0.3,0.6,0.6,0.9,0.8c-1.2,0.7-2.4,1.4-3.7,2.2c-1.2,3.1-2.5,6.2-2.9,9.7   c-0.2,0.1-0.4,0.1-0.5,0.3c-0.1-0.6,0-1.3-0.8-1.6c0.4-3.6,2.1-6.7,3.8-10C629.7,218.5,630.7,217.7,631.8,217.1z" />
	<path fill="#3C2E2C" d="M809.2,200.2c0.3,0,0.7-0.1,1.2-0.1c0.3,0.6,0.6,1.2,0.9,1.7c-1.3,3.7-5.9,4-9,5.5   c-0.3-0.2-0.6-0.4-0.9-0.6c2.7-1.7,5.8-2.4,8.4-4.3c-0.2-0.3-0.4-0.6-0.6-0.9C809.2,201.1,809.2,200.6,809.2,200.2z" />
	<path fill="#412723" d="M878.8,395c0,0.3-0.1,0.6-0.1,0.8c-0.3-0.1-0.5-0.3-0.8-0.4c-0.4-1-0.4-1-1.3-0.4c-0.3-0.1-0.5-0.2-0.8-0.4   c-0.5-1-0.6-1.1-1.4-0.2c-3-0.2-6-0.5-9.1-0.7c2.1-1.7,5.3,0.4,7.4-1.2c1,0.2,2.4,1.2,3-0.1c0.9-0.2,1.7-0.1,2.4,0.5   c-0.4,0.1-0.8,0.2-1.3,0.2c0,0.1,0,0.3,0,0.4c1.8,0.1,3.6,0.2,5.4,0.3C881.2,394.2,880,394.5,878.8,395z" />
	<path fill="#513E3C" d="M791.5,220.6c0-0.6,0-1.1,0.7-1.3c1.7,1.7,5.5-0.8,7.9-0.6c0.8,1.1,1.9,0.3,2.8,0.7   C799.3,219.5,794.6,222.6,791.5,220.6z" />
	<path fill="#584946" d="M750.3,227c-0.2-0.2-0.5-0.5-0.7-0.7c2.9-2.1,5.9-3.8,9.3-4.9c0,0.3,0,0.5,0,0.8   C756,223.8,753.1,225.4,750.3,227z" />
	<path fill="#302625" d="M763.7,238.9c0,0.3,0.1,0.6,0.1,0.9c-2.5,0.8-4.7,2.5-7,3.7c-0.3-0.3-0.6-0.6-1-0.9   C758.1,240.7,760.6,239.2,763.7,238.9z" />
	<path fill="#857874" d="M772.2,208.6c-0.3-0.3-0.5-0.5-0.8-0.8c2.6-1.4,5.3-2.8,8-4.1c0.3,0.3,0.5,0.6,0.8,0.8   C778,206.4,774.8,207,772.2,208.6z" />
	<path fill="#453B39" d="M780.2,204.6c-0.3-0.3-0.5-0.6-0.8-0.8c2.1-1.5,4.2-2.9,6.3-4.4c0.3,0.3,0.5,0.5,0.8,0.8   C785,202.4,782.5,203.3,780.2,204.6z" />
	<path fill="#362927" d="M617.6,271.6c-0.5-0.9-1.4-0.3-2.1-0.6c2.7-1.3,5.5-1.8,8.4-1.5c0,0.3,0.1,0.6,0.1,0.8   C621.9,270.8,619.7,271.2,617.6,271.6z" />
	<path fill="#1E1515" d="M791.2,231.9c0.5,0.2,1.1,0.5,1.6,0.7c-2.1,0.6-4.2,1.1-6.3,1.7c0-0.3,0-0.6,0-0.9   C787.7,231.7,789.5,232,791.2,231.9z" />
	<path fill="#D1D9D9" d="M798.6,226.4c-0.1,0.2-0.2,0.3-0.3,0.5c-1.6-0.1-4.6,1.1-5.5-0.6c1.2-0.4,2.3-1.1,3.6-0.6   C797,226.7,798,226.1,798.6,226.4z" />
	<path fill="#423F3E" d="M811.3,212.8c-0.3-0.2-0.5-0.5-0.8-0.7c1-0.7,2-1.4,2.3-2.7c0.4,0.2,0.8,0.4,1.2,0.7   C813.5,211.3,812.9,212.5,811.3,212.8z" />
	<path fill="#463C3B" d="M801.4,206.7c0.3,0.2,0.6,0.4,0.9,0.6c-1.5,0.7-2.9,1.4-4.4,2c0-0.3,0-0.6-0.1-1   C799,207.8,800.2,207.3,801.4,206.7z" />
	<path fill="#B9BCBC" d="M789.4,205.9c-0.6,0.8-1.3,0.6-2.1,0.4c0.4-0.5,0.8-0.9,1.1-1.4C788.8,205.3,789.1,205.6,789.4,205.9z" />
	<path fill="#1A1414" d="M858.2,402.2c0.9-1.2,2-0.5,3.1-0.5C860.2,401.8,859.2,402,858.2,402.2z" />
	<path fill="#D1D9D9" d="M797.7,225.6c1-0.2,2-0.4,3-0.5C799.9,226.1,798.8,225.7,797.7,225.6z" />
	<path fill="#3F312E" d="M809.2,200.2c0,0.4,0,0.8,0,1.3c-0.5-0.1-1-0.3-1.5-0.4c0-0.3,0-0.5,0.1-0.8   C808.2,200.3,808.7,200.2,809.2,200.2z" />
	<path fill="#D1D9D9" d="M806.5,225.8c-1,0.2-2,0.3-3,0.5C804.4,225.2,805.4,225.6,806.5,225.8z" />
	<path fill="#2F2621" d="M663,227.1c-0.7-0.1-1.7,0.4-2.1-0.7c0.7,0,1.3-0.1,2-0.1C663,226.5,663,226.8,663,227.1z" />
	<path fill="#2F2B27" d="M624.7,229.1c0,0.8,0.4,1.7-0.5,2.3C624.3,230.6,624.5,229.8,624.7,229.1z" />
	<path fill="#3C2E2C" d="M807.8,200.3c0,0.3,0,0.5-0.1,0.8c-0.5,0-0.9-0.5-1.3-0.8C806.8,200.3,807.3,200.3,807.8,200.3z" />
	<path fill="#E0C6B5" d="M762.2,240.3c0.3-0.1,0.5-0.3,0.8-0.4C762.8,240.1,762.5,240.2,762.2,240.3z" />
	<path fill="#423F3E" d="M814,208.6c-0.2-0.3-0.3-0.6-0.5-0.9C813.7,208,813.9,208.3,814,208.6z" />
	<path fill="#362927" d="M624.7,268.8c0.1,0.5-0.1,0.8-0.7,0.8C624.2,269.3,624.4,269,624.7,268.8z" />
	<path fill="#F6D9C7" d="M112.4,253.8c3-3.8,20.3,6.8,26.7,6.3c27.5,4.8,57.6,4.4,82.9,17.6c8.1,4.8,15.7,10.8,24.1,14.6   c4.8,0.3,8.6,2.7,12.5,5.2c10.6,9.1,24,7.5,36.9,9.5c23.2,4,44.6,13.6,68.1,15.1c-2.1,11.2-2.4,23.5-2.2,35.3   c-0.9,8,3.2,17.9-1.2,24.9c-40.1-9.1-81.5-22.5-110.3-53.2c-0.7,0.8-1.3,1.4-1.9,2.2c1.8,2,1.7,4.6,3.7,6.3l0,0   c-4.3,3-16.4-9.3-18.3-13.1c0.9-0.2,1.6-0.5,2.5-0.9c-1.5-1.7-3.1-0.6-4.8-0.9c-0.3-0.2-0.5-0.5-0.8-0.7c3.8-2.6,9.5-0.1,13.4-2.4   c-5.6-5.7-14.4-4.2-21.6-6.2c-9.2-1.4-17.4-6-25.8-9.6c-33.5-16.6-69.3-30.3-106.4-34.9c-1.5-0.5-3.2,0.8-4.6,1.4   c-1.4-1.7-2.1-3.8-3.3-5.7c0-5.9,7.5-10.5,12.7-12.2c1.9,3.3,6.8,2.8,9.9,4.3c6.7,3.3,13.8,4,21.2,4.8c-1.3-1.8,1.7-0.9,0.5-3.1   c-1.5,0.2-2.7,0.4-3.9,0.5c-0.3-0.2-0.6-0.5-0.9-0.7c0,0,0,0,0,0c-0.2-0.2-0.5-0.5-0.7-0.7C117.9,257.5,114.2,256.5,112.4,253.8z    M207.6,298c0.5,1,1.3,0.8,2.1,0.7c2.6,0.6,17.5,7.8,17.5,4.5c-2-0.8-4.1-1.5-6.1-2.3c-1-6.7-18.4-8.3-24.2-11.5   c-8.5-1.6-16.7-7.1-25-7.3C184.3,286.6,195.1,293.7,207.6,298z M248.5,325c4.3,0.1,1.6-5.5-1.7-3.9   C244.9,322.2,245.8,325.3,248.5,325z M272.6,310.5c-1.6-1.7-3.9-4.4-6.3-3.5C267.4,309,270.3,311.4,272.6,310.5z M130.3,259.9   c1.1,1.6,1.6,1.6,2.9,0C132.1,259.9,131.3,259.9,130.3,259.9z M282.2,315c-0.9-0.5-1.2-1-1.9-0.2   C281.1,315.5,281.2,315.9,282.2,315z M277.2,313.6c1.1-0.4,0.4-1.5-0.4-1.1C276.9,312.8,277,313.2,277.2,313.6z M286.2,317.8   c0-0.2,0-0.3,0-0.5c-0.6,0-1.1,0-1.7,0c0,0.1,0,0.2,0,0.4C285.1,317.7,285.6,317.8,286.2,317.8z" />
	<path fill="#F6D9C7" d="M875.8,394.6c5.8,2.1,11.9,3.4,17.7,5.9c0,0.3,0,0.7,0,1c-10.2,2.3-19.7-8.1-30.5-6.2   c7,2.8,14,2.8,20.5,6.9c-6.6,4.8-15.9-4.8-23.6-4.1c-11.6-1.7-24.9,5.6-35.2-1.9c-0.7-0.4-2.2-0.7-2.7,0.4l0,0   c-30.1-2.7-62.3,5.3-91.6-6.8c-20-5.2-41.9-2.6-60.7-11.7c2.3-1.3,4.1-3.3,6-5.4c-9.1-3.8-20.1,0.1-29.7-2.7   c-8-1.1-14.1-8.2-22.5-8.1c-12.4,2-25.8,2.4-37.7-2c-2-1-4.3,2.1-2.2,3.4c2.9,4,7.6,4.9,12.2,6c0,0.2,0,0.3-0.1,0.5   c-4.6,0.4-9.3-0.7-13.7-0.2c-0.1-1.8-2-0.7-2.5-2.1c0.7-1.4,3,0.3,3.3-1.9c-2.8-0.6-5.6-0.2-8.5,0.1c-13.1-8-25.2-45.6-5-51.9   c17.5-3.9,47.1-16.9,58.8,2.2c-0.4,0.5-0.7,0.9-1,1.3c4.9,8.2,9.7,16.3,15.8,24c16.6-1,31.5,8.5,42.9,19.8   c15.7,3.9,31.6,7.1,47.4,10.4c0.4,0.6,0.7,1.1,1,1.7c24.5-0.8,47.1,10.7,71.1,13.4c20.5,0.9,40.7,2.6,61.2,5.3   C860.5,394.7,873.9,393.8,875.8,394.6z M587.1,315.7c0.5-0.4,0.9-0.7,1.5-1.2c-2.8-0.6-5,2.3-7.6,3.2c-0.4,0.2-1,0.7-0.3,1.6   C582.8,318.1,585.1,317.2,587.1,315.7z M729.4,382.6c1.7,2.2,8.5,1.9,9.8-0.8C735.8,382.4,731.6,380.7,729.4,382.6z M616.8,310.8   c2.2,2.2,4.2,3.3,6.1,3.5C621.2,312.4,619.5,311.2,616.8,310.8z M648.2,342.3c-1.8-0.3-3.5-0.8-5.1,0.9   C646.9,343.5,646.9,343.5,648.2,342.3z M749.2,388.1c-2,0.1-3.6-0.6-5.3,1.1C746.1,389.7,747.7,389.4,749.2,388.1z M739.8,381.8   c1.2,0.6,2.3,0.9,3.1-0.6C741.7,380.6,740.7,380.8,739.8,381.8z M578.6,320.9c-2.1-0.5-4.9,0.5-3.5,2   C576,322.4,577,321.9,578.6,320.9z M593.6,311.5c-0.4,1.1-0.5,1.3-0.6,1.6C594.2,313.8,594.1,312.8,593.6,311.5z M638.9,344.3   c0.1,0.2,0.1,0.3,0.2,0.5c0.4-0.1,0.9-0.3,1.3-0.4c-0.1-0.3-0.3-0.6-0.4-0.8C639.6,343.8,639.2,344,638.9,344.3z M744.9,380.2   c0.5,1.3,1.1,1.3,1.7,0.1C745.9,380.3,745.4,380.3,744.9,380.2z M748.1,379.4c-0.7,1,0.2,1.6,0.8,0.6   C748.7,379.8,748.5,379.7,748.1,379.4z M753,388.6c0-0.2-0.1-0.4-0.1-0.5c-0.6,0.1-1.1,0.2-2.2,0.4   C751.9,388.9,752,389.1,753,388.6z" />
	<path fill="#FF9A77" d="M367.9,322.8c23.4-21.6,60.9-13.6,83.7,5.2c-5.7,20.7-13,42.7-24.1,61.5c-7.8-0.5-14-6.6-21.9-7.1   c-0.1-0.3-0.3-0.6-0.4-1.1c2.1-2.6,2.4-5.9,2.7-9c1.6-1.3,1.6-3,3.4-4.2c8.1,0.2,15.9-0.7,24.1-0.9c-7.7-2.5-16,0.7-24-0.6   c0-0.4-0.1-0.8-0.2-1.9c-0.9,1.5-1.5,2.4-2,3.4c-0.4-0.4-0.8-0.8-1.2-1.1c-2.1,4.3-4.4,9.9-3.7,14.6c-1.3-0.2-2.8,0.6-3.9-0.8   c0.7-6.2-0.4-12.4,1.6-18.4c0.1-0.9,0.7-2.1-0.6-2.8c-1.3,0.7-0.6,1.9-0.7,2.9l0,0c-2.3-3.9,0.6-7.7,0.4-12.1   c-2.6,4.9-2.9,9.1-4.4,14.1c-0.6,0-1.2,0-1.7,0c-0.5-0.5-1-0.9-1.4-1.3c-0.2-3.5,0.4-7-1.1-10.3c-1.7,3.6-1.9,7.3-1.8,11   c-0.2,0.1-0.3,0.1-0.5,0.1c-1.1,0.4-1.1,0.6-0.2,1.4c0.3,5.2-0.5,10.2-0.8,15.3c-8.6,1.1-16.5,3.2-25.2,2.3   c-0.8-19.7-2-40.5,1.4-60.1c0.5,0,0.9,0,1.2,0l-0.1,0c1.5,5.6,2.3,10.9,2.5,16.9C370.7,334.4,368.7,328.4,367.9,322.8z    M418.6,346.2c1-1.2,2.7-1.8,2.5-3.7c-6.2-8.7-18.3-14.3-26.6-4.9C381.3,347,413.7,346.1,418.6,346.2z M371.6,329.6   c0.2,2.4,0.5,4.8,2.5,6.5C373.8,333.7,373,331.6,371.6,329.6z M385.5,360.9c1-2.5,2.5-3.6,2.2-6.6   C386.3,356.8,385.2,358.5,385.5,360.9z M377.2,363.3c-0.1-1.5-1.2-2.1-3.3-1.8C374.5,362.5,376.1,362.6,377.2,363.3z M366.4,330.5   c0-0.9,0-1.6,0-2.4C364.9,329.2,364.9,329.2,366.4,330.5z" />
	<path fill="#F6D9C7" d="M539.5,379.7c0.6,1.3,1.1,2.6,1.7,3.9c-6.9,4.1-12.1-4.5-19.1-5.4c0,1.3,0,2.4,0,3.3   c-2.4-0.3-4.6-0.5-6.9-0.8c-1-0.8-2.2-1.8-3.4-2.8c-0.8,0.6-1.4,1.1-2,1.6c-12.3-0.7-24.2-0.7-36.7-0.6c2.5-2.4,5.1-4.5,7-7.3   c-15.8,0-33.8,24.1-50.3,19.6c-0.1-0.3-0.1-0.7-0.2-1c11-19,18.3-39.5,24.1-60.7c25.4,8.6,51.4-3.7,74.5-13.7   C525.5,337.5,528.9,360.2,539.5,379.7z M463.8,333.9c2,3,8,2.8,10.2,1.9C470.7,334.7,467,333.1,463.8,333.9z M484.1,337   c-1.9-1.3-1.9-1.3-3.1,0C482.1,337,483.1,337,484.1,337z M490.8,335.7c-1.7,0-2.5,0-3.9,0C488.3,336.8,489.2,336.9,490.8,335.7z    M496.9,334.8c0-0.1,0-0.2,0-0.4c-0.6,0-1.2,0-1.8,0c0,0.2,0,0.3,0,0.5C495.7,334.9,496.3,334.8,496.9,334.8z" />
	<path fill="#F6D9C7" d="M102.4,367.6c-2.7-5.9,3.8-10.5,7.9-13.6c8.5,2.9,18,0.6,24.9-4c-2.1-0.3-3.8-0.5-5,1.2   c-4.1-0.6-8.6,2.4-12.1-0.7c1.9-2.8,3.7-5.1,6-7.7c17.3-0.2,34.1-4.3,51.5-8.5c0,0.1,0.8-0.9,0.9-1.2c17.3-4.6,38.8-10.8,54.4,1.3   c6.4,6.4,14.6,9.5,22.7,13.2c7.6,8.8,17.6,15.2,27,22c-6.9-0.1-13.8-6.2-21-7.8c-0.7,0.8-1.2,1.5-1.9,2.4c1.8,1.6,3.2,2.9,5.1,4.2   c0.3,0.8,1.9,0.5,1.7,1.8c-8.2-0.4-16.5-0.8-22.9-6.9c0.5-0.2,1-0.6,1.7-0.3c0.8,0.4,1.8,0.5,2.5-0.4c0.9-0.4,2-0.4,2.8-1.7   c-1.4,0.1-2.5,0.2-3.5,0.2c0.6-0.9,1.2-1.7,1.8-2.6c-0.3-0.5-0.6-1-0.8-1.3c0.8-0.7,1.5-1.4,2.4-2.3c-23,4.9-47.9,9.9-70.4-1.5   c-6-1.9-12.7-6.7-19-4.6c3.1,4.3,7.8,5.2,12.2,8.5C148.1,357.1,124.9,362.3,102.4,367.6z M141.7,348.9c-1.5-0.6-1.5-0.6-2.2,0.7   C140.4,349.9,141.3,350.1,141.7,348.9z" />
	<path fill="#F7EFD0" d="M64.2,263.1c0-1.5,0.4-2.7-0.8-4c-1.2,0.7-2.2,1.4-3.1,2.3c-1.1-0.3-2.2-0.6-3.2-1l0,0   c-16.4-4.9-34.4,3.8-50.4,8.5c0.3-15,10.2-26.6,22.8-34c7.4-1.4,15.6,0.2,23.2-1.3c20.9-7.3,26.4-21.4,51.3-15.5   c2.3,10,5.4,22.8,13.5,29c-0.2,1.3-0.4,2.4-0.7,3.8c-1-0.2-1.7-0.3-2.9-0.5c-5.6,4.4-13.9,1.6-20.1-0.2   c-9.1,4.2-19.9,12.1-9.8,21.5c-6.7,2.5-15.4-3.1-15.2-9.8c-1.5-0.9-2,0.8-2.6,1.9c-0.4,0.2-0.8,0.3-1.3,0.5   C64.7,264,64.5,263.6,64.2,263.1z" />
	<path fill="#FFF0A7" d="M543.9,383.8c-13.1-20-17.4-46.2-13.4-69.7c2.2-1.2,4.7-2.6,7-3.8c0.5,0.2,1,0.3,1.5,0.5   c22.9-11.5,46.1-32.4,73.6-25.9c-7.1,2.5-17.8,1.8-22.4,8c18.2,3.3,35.7-0.4,41,23c-0.5,0.5-0.9,0.9-1.2,1.3   c-4.1-9.5-13.8-14.9-24.2-12.7c-14.1,1.9-28.7,2.9-41.3,9.9c-17.7,11.7-4.7,45,10.7,53.6c-2.9,1.1-5.6,1.3-7.2-1   c-1.8-0.6-2.9-0.1-3.5,1c-0.5,1.5-2.9,2.2-2.7,3.7c-6.9,11.7-2.3,5.3-14.6,9.7C546.4,382.3,545.2,383.7,543.9,383.8z M577.5,297.4   c3.2-0.5,6.4-0.8,9.6-0.9c-1.8-3.2-11-0.2-13.8,1.1C575.4,298.1,575.4,298.1,577.5,297.4z M535.9,359.1c3.7-0.4,8.1,0.1,10.7-2.1   C542.9,357.2,538.5,356.5,535.9,359.1z M559.3,353.6c-1.5-0.8-2.6,0.1-3.7,0.3c-2.5,0.7-4.2,0.4-6.5,2.3   C552.9,356.1,556,355.1,559.3,353.6z M555.6,372.5c-1.6-1.7-5.3-2.4-6,0C551.8,372.5,553.7,372.5,555.6,372.5z M570.3,298.9   c-1.6,0.2-5.5,1.3-4.1,3.4C567.7,301.4,569.4,300.7,570.3,298.9z M545.7,372.4c-1-1.4-2.2-1.7-3.6-1.9c-0.2,0.3-0.4,0.6-0.7,1   C542.7,372.5,544,372.9,545.7,372.4z M557.1,307.3c2.2-0.4,2.9-1.2,2.7-2.9C558.6,305.1,557.9,306.1,557.1,307.3z M553.3,307.9   c-2.8,0.7-2.8,0.7-3.6,2.3C551.1,309.8,552.2,309.3,553.3,307.9z" />
	<path fill="#F7EFD0" d="M79.1,372.5c-0.5-1.8-1.2-3.9-3.4-2.5c-0.1,1-0.3,2-0.4,3.2c-1.4,0-2.7,0-3.9,0l0,0   c-2.6-1.7-9.6,1.7-13.4,1.4c-9.9,0.1-17.3,15.6-27.1,6.3c0.2-0.5,0.4-0.9,0.6-1.4c10.9-3.9,30.3-20.3,35.1-31   c14.9-5.8,25-17,34.5-29.4c-0.2-0.1-0.5-0.3-0.7-0.4l0,0c0-0.5,0.1-1,0.1-1.5c1.5,0.1,2.3,1.1,2.6,2.4c0.4,2.3,2.3,3.5,3.6,5.1   c2.9,6.3,10.6,6.1,14.8,11.1c-0.7,1.6,0.4,2.8,0.9,4.4c-1.9,3.4-3.9,8.1-8,9.4c-9.6,2.7-17.3,11.9-13.3,21.8   c-1.5,1.6,0.5,3.4,1.7,4.5c-1,2.1-16.7-3.1-18.3-5c-0.3,0.6-0.6,1.1-0.9,1.5C82,372.5,80.5,372.5,79.1,372.5z" />
	<path fill="#E1C7B6" d="M429.6,390.1c0.1,0.3,0.1,0.7,0.2,1c16.5,4.5,34.5-19.5,50.3-19.6c-2,2.8-4.5,4.8-7,7.3   c12.5-0.1,24.3-0.1,36.7,0.6c0.6-0.5,1.2-0.9,2-1.6c1.2,1,2.4,2,3.4,2.8c2.4,0.3,4.6,0.5,6.9,0.8c0-1,0-2,0-3.3   c6.9,0.9,12.2,9.5,19.1,5.4c2.2,3,4.4,6,6.8,9.2c-39.9,7.7-81.6,6.9-121.7,6.3C425.6,395.8,428.4,393.1,429.6,390.1z M461.6,389.6   c1.6-0.3,5.6,0.8,4.6-2.2c-0.5,0.5-0.9,0.9-1.3,1.3c-1.8-0.2-3,0.7-4.7,1.1C461,390.4,461.3,390.1,461.6,389.6z M452.2,393   c-3.9,1.9-9.6,1.8-12,4.7C444.1,398.3,448.9,396.5,452.2,393z M523.9,386.8c3.5,2.1,8.5,2.6,12.1,1.5   C532.4,386.7,527.8,387,523.9,386.8z M519.6,384.7c-0.6,0-1.1,0-1.8,0C518.3,385.9,518.9,386.1,519.6,384.7z M513.1,383.5   c0.7,0.1,1.1,0.6,1.4,0.1C514.3,382.8,513.9,383.3,513.1,383.5z M470.7,387.9c0-0.1,0-0.3,0-0.4c-0.4,0-0.7,0-1.1,0   c0,0.1,0,0.2,0,0.4C469.9,387.9,470.3,387.9,470.7,387.9z" />
	<path fill="#E1C7B6" d="M251.6,337.7c-1.3-1.1-1.9-2.5-2.3-4.1c0.4,0.2,0.8,0.4,1.3,0.6c0.6-1.1-0.1-1.5-1-2   c-0.1,0.5-0.2,0.9-0.3,1.3c-0.4-0.7-0.9-1.3-1.4-2.2c0.7-0.7,1.3-1.4,1.9-2.2c28.9,30.7,70.2,44.1,110.3,53.2   c0.5-0.5,0.9-0.9,1.2-1.4c-0.7,3.8-0.3,7.7-1.1,11.4c-36.6-2.4-70.9-17.2-98.7-40.9c-7.3-6.8-17.7-8.5-25.1-15.1   c-5.6-4.2-9.9-9.4-15.4-13.6c0-0.3,0-0.5,0.1-0.8l-0.1,0.1c3,0.3,7.7,3,10,0.7c0.5,0,1,0,1.4,0c0.6,0.6,1.3,1,2.1,1.3   c-0.4,0.1-0.9,0.3-1.3,0.4C235.2,328.3,247.3,340.6,251.6,337.7c0.8,0.7,1.4,3,2.8,1.8c-0.2-1.2-0.9-2.1-2.1-2.8   C252,337.1,251.8,337.4,251.6,337.7z M255.8,342.2c1.7,2.4,3.9,6.8,7.2,6.1C260.7,345.8,259.1,343,255.8,342.2z" />
	<path fill="#E1C7B6" d="M260.8,366.8c-0.9-0.8-1.9-1.7-3-2.6c0.7-0.9,1.3-1.5,1.9-2.4c17.3,6.2,32.2,14.3,48.6,22   c-0.3,0.3-0.5,0.6-0.8,0.8c-12.6-1.5-24.5-6.1-36.7-9.4c-0.1-0.2-0.2-0.4-0.1-0.7c0.8-0.2,2,0.4,2.1-1.4c-2.1-0.2-3.8-1.8-6.9-2   c2.1,1.7,2.9,2.3,4.8,3.4c-3.3,0.6-5.6-1.2-8.6-1.4c-9.3,1.4-16.3-5.9-25.4-6.4c-11.9-2.1-23.8,1.2-35.7,0   c-18.7-2.8-37.5-5-56.4-2.9c-14,1.1-27.1,6.6-41.2,6.9c-1-0.8-1.1-2-1.1-3.2c22.5-5.3,45.7-10.5,69.1-10.1   c-4.5-3.2-9.1-4.2-12.2-8.5c6.3-2.1,13,2.7,19,4.6c22.5,11.4,47.4,6.4,70.4,1.5c-0.9,0.8-1.6,1.5-2.4,2.3c0.2,0.4,0.5,0.9,0.8,1.3   c-0.6,0.9-1.2,1.7-1.8,2.6c0,0.2-0.1,0.4-0.1,0.5c-0.4,0.1-0.8,0.2-1.2,0.3c0,0.1,0.1,0.3,0.1,0.4c0.6,0,1.3-0.1,1.9-0.1l0,0.3   c-1.2,1.6-2.9-0.4-4.2,0.6c-0.1-0.4-0.2-0.8-0.4-1.2c-2.2-0.2-4.1-0.1-6.1,1.5c2.5,0.6,4.4-0.4,6.5-0.3c6.4,6.1,14.7,6.5,22.9,6.9   c0.2-1.4-1.4-1-1.7-1.8c0.4-0.1,0.8-0.2,1.4-0.4C263.5,366.8,261.7,365.4,260.8,366.8z M140.3,362.4c0.8-0.3,1.4-0.6,2.4-1   C141.2,361.1,140.6,360.5,140.3,362.4z" />
	<path fill="#E1C7B6" d="M98.1,270.5c41.3,5.3,78.2,25,115.8,41.1c9.4,4.4,21.8,1,29.7,8.3c-3.9,2.3-9.7-0.2-13.4,2.4   c-3.1-0.2-6-1.4-9.2-1.2c0,0.5,0,0.9,0,1.2l0.1-0.1c-44.7-13.9-84.7-43.3-132.7-47.9c-1-1.1-2-2.4-3.1-3.7c1.4-0.7,3-1.9,4.6-1.4   c2.5,1.5,5.7-0.5,7.8,1.2c-1.7,0.2-2.8-0.4-4,1.4c1.8,0.1,3.2,0.3,4.6-0.1C98.2,271.1,98.1,270.8,98.1,270.5z M103.4,273.3   c2.4,1.4,2.4,1.4,3.5,0C105.8,273.3,105,273.3,103.4,273.3z" />
	<path fill="#EF8A6A" d="M405.5,382.4c7.9,0.5,14.1,6.6,21.9,7.1c-1.3,2.9-2.5,5.8-3.9,9c-20-6.3-41.1-2.3-61.3-5.4   c-0.2-4.6-0.2-9.2,1.3-13.7c0.1,1.1,0.2,2.3,0.3,3.6c8.7,0.9,16.6-1.2,25.2-2.3c0.4-5.1,1.2-10.1,0.8-15.3c2,0.1,4.6-0.6,6.2,0.7   c-0.8,0.1-1.6,0.1-2.5,0.2c-0.5,4.1,0.5,8-0.7,11.9c-0.3,0.8-0.4,1.9,0.5,2.6c1.3,0.1,2.7,0.3,3.9-0.1c-0.5-2.6,0.5-5.5-0.9-7.6   c0.9-5.3,1.3-10.8,3.4-15.7c0.1,1.7-0.4,3.6,0.8,5c0,4.4-3.4,8.7-1.7,12.9c0.9-1.9,0.6-4.1,1.6-6c0,3.8,0.3,7.6-0.2,11.4   c1,1.3,2.6,0.6,3.9,0.8C404.3,382.4,404.9,382.4,405.5,382.4z M393,386.9c-1.3-1.7-4.6-0.9-4.2,1   C390.2,388.3,391.3,387.3,393,386.9z M381.6,390.1c-3.3-0.7-4-0.5-5.1,1.4C378.3,391,380,390.5,381.6,390.1z" />
	<path fill="#F6D9C7" d="M632.4,310.8c-8.1-17.2-19.4-18-36.6-18.7c5.5-4,16.8-6.4,22.3-4.8c3.9-0.5,6-4.3,9.4-5.9   c2-0.8,3-2.5,4.2-4.1c3.1,0.5,5.8,1.8,7.9-2.1c1.7,3.2,1.5,7.3,5.7,9c0.4,0.2,0.4,1,0.7,1.5c-0.4,0.5-0.9,1-1.3,1.6   c-3.4,0.3-6.1,7.7-5.7,10.8c-1.4,1.7-3.1,3.1-2.8,5.5c-0.8,2.8-3,3.8-2.7,7.2l0,0C633.1,310.9,632.8,310.9,632.4,310.8z    M626.3,286.6c-2.3-0.4-3.3,0.1-4.9,2C623.3,288.9,623.3,288.9,626.3,286.6z M616,292.3c1.5-0.4,2.7-0.4,3.1-1.8   C616.8,290.1,616.7,290.2,616,292.3z" />
	<path fill="#EADDB8" d="M32.4,379.6c-0.3,0-0.6-0.1-0.9-0.1c5.1-16.8,18.4-28.8,34.9-34c0.3,0.2,0.5,0.5,0.8,0.7   C58.8,360.5,44.1,368.6,32.4,379.6z" />
	<path fill="#E0C6B5" d="M636.1,303.8c-0.3-2.4,1.3-3.8,2.8-5.5c-0.3-3.2,2.3-10.5,5.7-10.8c-2.9,5.7-2.4,13.8,2.6,17.8   c1-1.3-0.6-2.4-0.5-3.6c3.5,4.3,3.7,11.2,6.3,16.3c-5.8-6.5-13.4,1.5-18.4,5.1c-0.2-0.2-0.4-0.2-0.6-0.2c1.1-2.7,0-6.3-0.7-9.4   c0.3-0.4,0.5-0.9,0.9-1.6c-0.3-0.2-0.6-0.5-1-0.8c-0.1-2.1,0.3-3.3,1.5-4.4c-0.1,0.8-0.1,1.6-0.2,3.1c2.8-2.3,4.4-4.5,4.9-7.3   C638.2,300.2,637,302.7,636.1,303.8z" />
	<path fill="#EADCB7" d="M6.7,268.9c16-4.6,33.9-13.4,50.4-8.5c-0.6,0-1.1,0-1.7,0c-1.5,2.2-1.3,4.8-1.8,7.4c-0.6,0-1.2,0.1-1.9,0.1   c-0.3-2.4,1.4-4.5,0.4-6.6c-3.1-1.3-2.7,4.5-3.3,6.3c-1.1,0.7-1.5-0.1-1.9-0.2c-0.6-1.5,1-2.9-0.2-4.2c-1.4,0.9-1.4,0.9-2.1,3.5   c-11.8-3.3-22.4,2.3-33.4,6.5C9.8,271.9,6.2,271.3,6.7,268.9z" />
	<path fill="#F4D8C6" d="M617.6,271.6c2.1-0.4,4.3-0.8,6.4-1.3c0.1,5.6,0.2,13.3-6,15.3c-7.4-5.2-16.7-3.9-25.1-3.2   c-0.5-0.3-1-0.5-1.5-0.8c4.9-2.5,10.6-0.6,15.1-4C610,275.4,613.6,273,617.6,271.6z" />
	<path fill="#EADCB7" d="M100.4,317.2c0,0.5-0.1,1-0.1,1.5c-4.3,2-6.1,7-9.1,10.4c-5.9,2.2-10.8,8.1-16,11.8   c0.3,0.2,0.5,0.3,0.7,0.4c-1.7,0.9-3.4,1.9-5.1,2.8c-0.3-0.3-0.5-0.6-0.8-0.9c7.2-10.5,15.5-21.6,27.4-27   C98.2,316.6,99.3,316.9,100.4,317.2z" />
	<path fill="#EADBB7" d="M30.8,380.8c9.9,9.3,17.3-6.1,27.1-6.3c4-0.5,8.1-1,12-2.1c0.1,0.8-0.3,2,0,2.7c0.6,1.1-0.5,1.8-0.4,2.7   c0,0-0.6,0.1-0.9,0.1c-0.2-1.1-0.1-2.3-1.8-2.6c0,1,0,1.7,0,2.4c-2.1,1.1-1.9-1.9-3.5-1.7c-1.1,0.3-0.2,1.8-1.3,2.1   c-8.8,2.2-17.6,4.2-24.1,11c-3.4-0.4-6.5-1.7-9.4-4C29.2,383.6,29.8,382.1,30.8,380.8z" />
	<path fill="#D6BFA0" d="M631.8,254c-0.9,2.7-1.4,5.5-1.5,8.4c-2.8-9.4-2.3-21.5,1.5-30.8c0.4-3.3,0.9-6.8,2.8-9.7   c0.7,1.6,3.2,0.2,3.7,2.3c-0.6,0.1-1.2,0.1-1.8,0.2c0,0.1,0,0.3,0,0.4c1.5,0.4,2.9,1,3.9,2.3c0.1,0.2,0,0.8,0.5,0.3   c-1.2-0.7-2.1-1.9-2.7-3.1c3,1.1,4.9,3.5,5.6,7.3c-1.8-0.5-3.6-0.5-4.9,1.2c-0.2,0-0.5,0-0.7,0c0,0,0.1,0,0.1,0   C632.6,230.8,631.4,249.9,631.8,254z" />
	<path fill="#EADBB7" d="M67.1,262.5c0.4-0.9,1-0.8,1.8-0.4c-0.2,6.7,8.5,12.2,15.2,9.8c1.7,1.5,2.8,3.4,4.9,4.4   c-0.2,5.3-6.9,1.8-9.1,4.2c-11.2,1.8-11.5-9.3-11.3-17.7C68,262.6,67.5,262.6,67.1,262.5z" />
	<path fill="#E9DBB7" d="M85.5,371.8c1.7,1.6,16.1,6.2,17.1,4.2c1.5,0.1,4.1,0.8,3.5-1.7c-0.8-0.2-1.6-0.3-2.7-0.5   c0.2-0.4,0.3-0.7,0.5-1.1c2.2,0.7,4,0.6,6.4,0.5c-0.3,1.3-0.6,2.5-0.9,3.9C99,380,89.1,387,85.5,371.8z" />
	<path fill="#D1BC9D" d="M639.6,275.3c-2.1,3.9-4.9,2.5-7.9,2.1c3.8-7.2-2.2-14.1,3-21.2c0.7-0.3,0.8-0.8,0.7-1.4l0,0   c0.7-0.2,0.8-0.8,0.7-1.4l0,0c0.3,0.3,0.5,0.5,0.8,0.8c-0.6,3.8-3.2,9.6,0.6,12.8c0,0.2-0.1,0.3-0.1,0.5c-1.7,2.8-0.9,6.5-2.5,9.3   c0,0.1,0.2,0.3,0.4,0.6c3.3-1.1,1.5-5.8,2.8-8.4c0,0,0.2,0.1,0.2,0.1c0.4,0.8,0.9,1.4,1.5,2c3.8,2.2,3.4-3.9,7-3.8   c-0.2,1.6,0.3,3.2-0.7,4.7c-0.1-0.4-0.2-0.8-0.4-1.6C643.9,272.8,641.2,273.2,639.6,275.3z" />
	<path fill="#0C0908" d="M363.5,379.4c-0.5,1.9-0.9,3.9-1.4,5.8c-0.7-20.2-2-42.5,1.5-63.1c1.1,0,2.1-0.2,2.8,0.8   c-0.4,0-0.7,0-1.2,0C361.8,341.3,363.3,360.9,363.5,379.4z" />
	<path fill="#CCB798" d="M639.8,271c-1.3-1.1-1.7-2.5-1.5-4.1c0.9-0.7,0.6-1.6,0.5-2.5c-0.3,0.2-0.7,0.4-1,0.6   c-0.3-0.4-0.6-0.8-0.8-1.2c0.3-5.5,2-10.7,2.7-16.1c0.4-0.7,0.9-1.4,1.4-2c0,0.5,0,1.1,0.7,1.3c-0.9,4.1-0.7,8.3-0.9,12.6   c-1.2,1.4-0.2,3.3-0.7,4.9C638.9,266.4,640,268.8,639.8,271z" />
	<path fill="#EFDABB" d="M641.8,247c-0.7-0.2-0.7-0.8-0.7-1.3c1.8-2.8,5.4-5,5.8-8.4c1.9-1.5,3.7-2.9,5.6-4.4   c0.2,0.2,0.4,0.4,0.7,0.7c-1.4,3.4-3.9,6.3-4.9,9.9c-1.4,0.7-0.1,3-1.9,3.4C644,247.9,643.5,243.7,641.8,247z" />
	<path fill="#393129" d="M652.4,232.8c-1.9,1.5-3.7,2.9-5.6,4.4c-0.8-1-0.8-1-2.2-0.2c-2.8-10.1-8.3,0.7-5,5.2   c-0.5,0.6-1.7,0.8-1.6,2c0,0.2-0.5,0.4-0.7,0.6c0.1-3.3,1.4-6,0.2-9.1c1.2-3,2.3-5.2,6.2-4.1c0.6,1.2,1.3,2.4,1.9,3.6   c0.5-1.9,1.3-3.5,1.1-5.5c1.1,1.2,0,2.9,1.1,3.9c0.7-0.3,1.4-0.6,2.2-1c0.2-3.3-0.6-6.5-1.1-9.6c0.5-0.1,0.9-0.1,1.2-0.1   c1.8,2.6-0.3,5.9,1.4,8.2c-0.1,0.4-0.1,0.8-0.2,1.4C651.6,232.6,652,232.7,652.4,232.8z" />
	<path fill="#D6C1B1" d="M121.6,258.4c1.3,1.4,3.2,1.5,5.1,1.3c0.1,0.9-2,0.5-0.8,2c-6.4-1.1-13.3-0.9-19.1-4.1c2.3,0,4.6,0,7.1,0   c-0.7-1.5-1.8-1.4-2.8-1.6c-0.3-0.4-0.5-0.8-0.8-1.2c0.7-0.3,1.3-0.7,2-1c1.1,2.5,3.9,2.3,5.8,3.7c-0.5,0.3-1.6-0.1-1.3,1.5   C118.4,258.7,120.1,259.8,121.6,258.4z" />
	<path fill="#DCC3B2" d="M117,355.3c-2.2-0.4-4.5-0.9-6.7-1.3c2.2-2.1,5.3-2.2,7.8-3.5c3.5,3.2,8,0.1,12.1,0.7   c0.2,0.2,0.5,0.4,0.7,0.7c-1.7,0.7-3.1,2-5.1,2.2c0-0.3-0.1-0.7-0.1-1c-2.2-0.3-5.5,0.2-8.8,1.3C117,354.6,117,355,117,355.3z" />
	<path fill="#D0BB9C" d="M637.6,235.6c0,3,0.1,6.1-0.2,9.1c-1.1,1.5-2.3,2.9-3.4,4.4c-2.1-4.1,0.7-13.2,4.3-16.3c0,0-0.1,0-0.1,0   c0.1,0.3,0.1,0.5,0.2,0.8C638,234.1,637.9,234.9,637.6,235.6z" />
	<path fill="#C0AC90" d="M639.7,242.2c-3.3-4.5,2.2-15.3,5-5.2C643,238.8,641.3,240.5,639.7,242.2z" />
	<path fill="#453F35" d="M628.9,254c0.7,4.6-0.7,9.9,0.8,14.2c1.7,1.3,1.8,1.7,0.8,3.6c-0.7-0.5-1.4-1-2.1-1.5   c-0.2-8.3-0.7-16.4-0.7-24.8c0.2-0.2,0.4-0.5,0.6-0.7c0-1.2-0.1-2.4,0.1-3.5c0.2,0,0.4,0,0.6,0C629.4,245.3,627.3,250.1,628.9,254z   " />
	<path fill="#302A23" d="M636.1,234.9c-1.3,4.2-4.4,10.3-2.2,14.2c-0.1,0.3,0,0.9-0.2,1c-1.7,0.8-0.8,2.7-1.9,4   c0.1-6.7-0.3-14,3.6-19.8C635.6,234.4,635.9,234.7,636.1,234.9z" />
	<path fill="#E8D1B3" d="M628.2,269.6c0.4,1.4,0.6,2.9,0.9,4.3c-1,1.5-2.1,3.1-3.4,5c-0.4-4.9,1.3-9,1.3-13.9   C627.7,266.6,627.3,268.2,628.2,269.6z" />
	<path fill="#352C25" d="M617.6,305.2c5.1,1.8,8.6,5.4,11.2,9.9c-0.2,0.3-0.4,0.5-0.7,0.8c-3.2-4.3-7-8-12-10   C616.6,305.6,617.1,305.4,617.6,305.2z" />
	<path fill="#D4C2B2" d="M104.7,256.9c-3.2-1.5-8-1-9.9-4.3C98,253,104.2,252.8,104.7,256.9z" />
	<path fill="#3B251D" d="M367.9,322.8c0.9,5.6,2.8,11.6,1,17c-0.2-6-0.9-11.2-2.5-16.9C366.9,322.9,367.4,322.9,367.9,322.8z" />
	<path fill="#231A16" d="M361.4,383c0.3,0.7-0.3,1.8,0.7,2.3c0,2.6,0.1,5.2,0.1,7.8c-1.7-0.1-3.6,0.5-5-0.6c1,0,2.1,0,3.1,0   C361.6,389.4,359.8,386,361.4,383z" />
	<path fill="#362F27" d="M536.1,369.6c1.4,3.1,2.9,6.2,4.3,9.2c-0.3,0.3-0.6,0.6-0.9,0.9c-1.9-2.6-2.8-5.7-4.1-8.7   C535.6,370.6,535.8,370.1,536.1,369.6z" />
	<path fill="#2E2723" d="M102.6,254c-1.7-0.4-3.4-0.9-5.1-1.3c0.5-0.3,1-0.5,1.5-0.8c3.8,0.5,7.5,1.2,11.4,0.7   C108.5,254.7,104.5,252.1,102.6,254z" />
	<path fill="#6F6957" d="M639.6,247.7c0.1,2-0.5,3.9-1.3,5.7c-0.3-0.2-0.5-0.5-0.8-0.7c-0.1-0.5,0-1.2-0.7-1.4   C637.4,249.8,638.1,248.4,639.6,247.7z" />
	<path fill="#2B1F1C" d="M249.4,344.1c1.9,0.5,3.6,1.5,5.2,2.7c-0.3,0.3-0.6,0.6-0.9,0.8c-1.9-0.9-3.8-1.9-5.6-2.8   C248.6,344.7,249.2,344.8,249.4,344.1z" />
	<path fill="#857764" d="M629.1,274c-0.2-1.2-0.5-2.4-0.7-3.7c0.7,0.5,1.4,1,2.1,1.5C630.3,272.7,630,273.5,629.1,274z" />
	<path fill="#A4AA93" d="M69.9,343.3c0.3,0.3,0.5,0.6,0.8,0.9c-1.2,0.7-2.4,1.4-3.6,2c-0.3-0.2-0.5-0.5-0.8-0.7   C67.5,344.8,68.7,344.1,69.9,343.3z" />
	<path fill="#494136" d="M629.1,263.5c0-1.1,0-2.2,0-3.4c1.4,1.8,1.3,3.8,1.3,6c-0.2,0-0.4,0-0.5,0   C629.8,265.1,629.9,264.2,629.1,263.5z" />
	<path fill="#A09C95" d="M307.5,384.7c0.3-0.3,0.5-0.6,0.8-0.8c0.9,0.3,1.8,0.5,2.8,0.8c-0.2,0.2-0.5,0.5-0.7,0.7   C309.4,385.2,308.3,385.5,307.5,384.7z" />
	<path fill="#C5BAAB" d="M591.4,281.7c0.5,0.3,1,0.5,1.5,0.8c-1.2,0.2-2.4,1-3.6,0.6C589.4,281.8,590.3,281.6,591.4,281.7z" />
	<path fill="#A6937B" d="M629.1,263.5c1.2,1.2,0.6,3.1,0.6,4.7C628.5,266.9,629.2,265.1,629.1,263.5z" />
	<path fill="#84645C" d="M110.4,254.8c0.3,0.4,0.5,0.8,0.8,1.2c-1,0-2,0-3.3,0C108.6,255.1,109.4,254.7,110.4,254.8z" />
	<path fill="#909A9A" d="M630.5,318.9c0.6-0.4,0.8-0.6,1.2-0.8c0.3,0.8,1,1.4,0.6,2.2C631.4,320.5,631.2,319.6,630.5,318.9z" />
	<path fill="#9B8E76" d="M636.9,251.2c1.1,0.5,0.5,1.8,0.5,2.8c-0.2,0-0.4,0-0.6,0.1c-0.3-0.3-0.5-0.5-0.8-0.8   C636.4,252.6,636.6,251.9,636.9,251.2z" />
	<path fill="#5A6363" d="M310.3,385.4c0.2-0.2,0.5-0.5,0.7-0.7c0.6,0.3,1.3,0.5,2,0.8C311.7,386,311.7,386,310.3,385.4z" />
	<path fill="#4B4443" d="M589.2,283.1c0.3,0,0.5,0.1,0.8,0.1c-1.1,0.5-1.1,0.5-3.3,0.2C588.1,283.3,588.7,283.2,589.2,283.1z" />
	<path fill="#3F3632" d="M270.7,374.6c-0.1,0.2,0,0.5,0.1,0.7c-0.8,0.1-1.6,0.3-2.2-0.6C269.3,374.7,270,374.7,270.7,374.6   L270.7,374.6z" />
	<path fill="#453F35" d="M629.7,267.5c0-0.5,0-1,0-1.4c0.2,0,0.4,0,0.5,0C630.4,266.7,630.4,267.2,629.7,267.5z" />
	<path fill="#9B8E76" d="M635.4,254.7c0.1,0.6,0,1.2-0.7,1.4C634.9,255.7,635.1,255.2,635.4,254.7z" />
	<path fill="#7E6661" d="M634.6,320.6c0.2,0.6,0.2,1.2-0.5,1.5C634.3,321.7,634.4,321.2,634.6,320.6z" />
	<path fill="#9B8E76" d="M636.1,253.3c0.1,0.6,0,1.2-0.7,1.4C635.6,254.3,635.8,253.8,636.1,253.3z" />
	<path fill="#312724" d="M219.6,322.1c0.5,0,1,0,1.4,0c0,0.3,0,0.5-0.1,0.8C220.4,322.9,219.9,322.8,219.6,322.1z" />
	<path fill="#7E6661" d="M635.3,322.7c0.2-0.2,0.5-0.4,0.7-0.6C635.8,322.3,635.5,322.5,635.3,322.7z" />
	<path fill="#312724" d="M221,322.9c0.3,0.2,0.5,0.4,0.8,0.6C221.6,323.3,221.3,323.1,221,322.9z" />
	<path fill="#7E6661" d="M634.1,322.7c0.2,0,0.4,0,0.6,0.2c-0.2,0.1-0.4,0.2-0.6,0.3C634.1,323.1,634.1,322.9,634.1,322.7z" />
	<path fill="#6F6957" d="M640.2,246.8c-0.2,0.3-0.3,0.6-0.5,0.9C639.8,247.4,640,247.1,640.2,246.8z" />
	<path fill="#A4AA93" d="M65.7,345.7c-0.3,0.2-0.6,0.3-0.9,0.5C65.1,346,65.4,345.8,65.7,345.7z" />
	<path fill="#E0C6B5" d="M632.4,310.8c0.3,0,0.6,0.1,1,0.1c-0.1,0.2-0.3,0.3-0.4,0.5C632.8,311.2,632.6,311,632.4,310.8z" />
	<path fill="#E1C7B6" d="M588.4,369.7c2.4,0,4.9,0,7.3,0c0-0.2,0-0.3,0.1-0.5c-4-1.2-9-1.6-11.5-5.4c0.8,0,1.6,0,3.2,0   c-2-0.8-2.5-2-3.9-0.6c-2.1-1.3,0.2-4.4,2.2-3.4c4.9,2.3,10.4,2.4,15.7,3.2c17.1,1.2,24.8-4.6,40.8,6.2c10.7,4,23.1-0.4,33.4,3.6   c-1.8,2.1-3.6,4.1-6,5.4c18.8,9.2,40.7,6.5,60.7,11.7c27.8,12,57.8,3.9,86.7,6.8c-0.1,1.4,2.1,1.4,1.9,0c1,0.6,2,0.6,2.9,0   c0.6,1,1.2,0.9,2.5-0.1c-1.3,0.1-1.9,0.1-2.6,0.1c0.5-1,2-0.8,2.7-0.4c14.7,9.1,34.1-4.3,49.1,6c-6.6-1.3-13.2-3.1-19.6-0.7   c-25.2,5.5-22.8-4.3-40.9-1.5c-26.7,1.1-53.4,4.9-79.3-3.3c-17.1-5.3-37.3-0.7-55.1-5.9c-17.3-6.6-35.7-10.9-52.1-19.7   c-8-3-17-1-25.3-4.1c0.6,1.5,0.6,1.5,3.3,2.6C600,371.2,593.6,370.2,588.4,369.7z M594.6,365.8c-1.8-0.8-2.8-1.8-4.5-0.8   C591.5,365.5,592.4,366.4,594.6,365.8z" />
	<path fill="#EBDA8F" d="M543.9,383.8c1.4-0.1,2.6-1.6,3.2-2.4c12.3-4.3,7.6,2,14.6-9.7c2.9,0.4,5.7-0.2,8.5-0.6   c0.1,1.9-0.3,3.8,0.4,5.6c14.5,8.5,36.6,9.1,48.3-4.3c-8.1-0.5-16.9,1-24.5-0.6c9.7-0.3,19-0.2,28.9-0.2   c-13.4,30.4-48.1,11.5-72.4,20.8C548.2,389.5,546.1,386.8,543.9,383.8z M571.4,388.2c-1.8-1.2-3-4.9-4.9-3.2   C567.3,387.1,568.8,388,571.4,388.2z M565.9,380.6c0.4,0.4,0.7,0.6,1.1,1C567,380.5,567,380.5,565.9,380.6z" />
	<path fill="#281A14" d="M605.6,371.6c-7.5-0.1-15.6,1.4-22.7-2c7.3-0.5,15.9,1.9,23.1,0.2C605.8,370.6,605.7,371.1,605.6,371.6z" />
	<path fill="#F6D9C7" d="M653.1,317.8c-2.3-11.1-14.1-23.2-4.3-33.3c-2.8-2.3-1-4.9,1.1-7.1c-1.1-0.1-1.7-0.2-2.3-0.2   c-0.7,0-1.3,0.9-2.1,0.2c2.7-3.7,2.7-3.7,3.4-7.8c0.2,0,0.4,0,0.6,0c0.3,1.7,0.2,3.4-0.2,5.1c1.5,0.1,2.7,0.3,4.1,0.4   c0.3-1,0.6-1.9,0.9-2.7c1.3-0.1,2.6,0.2,3.6-1.1c0.1-0.5,0.1-1.1,0.2-1.6c0.4,0,0.9-0.1,1.3-0.1c0.4,1.2,0.8,2.3,1.1,3.3   c1.2,0.7,2.2,0.4,3.2,0.2c0.6-0.5,1-1,1.5-1.6c4.6,2.8,7.1-2.7,10.6-4.1c8.5,1.8,17-1.3,25.4,0.7c1.8,0.6,2.1-2.1,2.8-3.3   c0.1,2.6,0.8,4.9,3.7,6c-0.4-2.9,1-4.8,0.7-7.7c1.2,2.8,0.8,5.7,0.2,8.8c0.6,0.1,1.2,0.2,1.7,0.3c0,2.3,0,2.3,0.8,3.9   c-2.6,7-7.7,12-11.1,18.6c-9.2,2.1-9.7,12.7-11.6,20.3c-2.1,0.2-3.5-1.2-4.9-2.3c-1.3-1-3.4-1.2-3.7-3.4c-1.8,1.6-0.1,2.7,0.1,4   c-0.6,0.8-1.2,1.6-1.9,2.4c-2.9-0.8-5.7-2.4-8.7-2.2c-1,0.9-0.9,1.4,0.2,2l0,0c-0.5,1.8,1,3.3,1.2,5c-4.4,0.1-5.2,4.3-8.9,5.9   C658.2,325.1,655,321.4,653.1,317.8z M688,290.8c-2-0.9-4.1-0.9-6.8-1.6c4,2.9,1,6.5,4.6,9.1c0.2-0.5,0.3-1.1,0.4-1.3   c1.8-0.8,3.4-1.5,5.2-2.3c1.2,0.5,2.7,1.2,4.3,0.2C693.9,293.3,690.6,291.7,688,290.8z M699.6,292.5c0.2-0.2,0.5-0.3,1-0.6   c-1.7-4.2-6.1-8-10.5-8.5C692.9,287.1,696.5,289,699.6,292.5z" />
	<path fill="#F6D9C7" d="M807.3,201c0.6,0.2,1.3,0.3,1.9,0.5c0.2,0.3,0.4,0.6,0.6,0.9c-6,4-13.2,5.5-19.1,9.8c0,0.6,0.1,1.2,0.1,1.8   c7,1.2,15.1-5.4,22-4.6c-3.5,5.2-15.7,5.4-21.7,8.7c-3.1,7.6,16.4-1.2,20.3,0.5c-0.6,7-25.1,2.6-20.4,11.2   c-10.9,7.2-25.9-0.3-35.6,7.6c0.3,1.5-4.6,1.5-2.8,2.5l0,0c0.1,2.2-3-0.8-4.2,2.7c-8.5,8.9-20.7,16.4-32.7,20   c-0.2-4.8-3.4-8.8-4.4-13.5c17.2-6.8,32.1-17.4,47.6-26.8c6-2,9.3-9.1,13.4-13.6c6.3-2.9,12.4-5.7,17-11c2.1,1.5-2,5.4-2.7,7.2   c-1.1,1.5-4.6,1.3-4.6,3.8c-1.9,1.4-3.6,2.9-3.2,6c1.6-2.2,2.9-4.1,4.2-5.9C791.2,208.2,799.2,203.4,807.3,201z M775,220.7   c-4.3,0.2-11,4.6-10.5,9.3c0.1,1.3,0.1,1.3,1.4,0.7c6.8-2.6,11.5-8.5,13.1-15.6C777.1,216.5,776.2,218.7,775,220.7z M786.8,226.7   c0.3-1.9,0.9-3.9-0.2-6.4C786.1,222.9,786.6,224.8,786.8,226.7z M785.2,218.5c1.1-1,1.1-1-0.1-1.9   C785.1,217.3,785.2,217.8,785.2,218.5z M785,215.2c-0.1-0.2-0.1-0.4-0.2-0.5c-0.4,0.1-0.2,0.4-0.2,0.7   C784.7,215.2,784.8,215.2,785,215.2z M775.2,228.2c0.4,0.5,1,0.6,1.3,0C776,227.7,775.7,227.9,775.2,228.2z M780.6,229.7   c0-0.1,0-0.2,0-0.3c-0.4,0-0.8,0-1.1-0.1c0,0.1,0,0.3,0,0.4C779.8,229.7,780.2,229.7,780.6,229.7z" />
	<path fill="#E0C6B5" d="M715.6,262.5c11.9-3.6,24.2-11,32.7-20c2-0.2,2.4-0.4,2.8-2c1.3,0.5,1.3,0.5,1.4-0.7   c1.3-0.1,1.3-0.1,1.4-1.4c1.4,0.2,1.3-1.4,2.2-2.1c0,0.4-0.3,0.9,0.5,1.3c1.5-0.6,4.2-1.2,3.8-3.5c10.3-1.4,21,0.8,30.6-4.4   c-0.5-1.1-1.9-2.2-0.1-3.4c-0.1,0.6-0.1,1.1-0.2,1.8c1.8,0.6,3.5,0.4,5.2,0.2c0,0.4-0.3,0.9-0.4,1.2c0.7,0.4,1.3,0.7,1.8,1   c-3.4,1.5-7.8,0.4-10.7,2.9c-7.1,3.7-15.3,3.5-22.8,5.5c-18.8,5.8-29.8,25.5-47.9,32.8C715.7,268.5,715.6,265.5,715.6,262.5z" />
	<path fill="#F9E2C2" d="M708.5,263.1c0,1.5,0.3,3.1-0.7,4.4c-4.4-4.9-4.1-12.2-10-15.7c-0.4,0.6-0.6,0.9-0.9,1.3   c-0.8-0.8-0.9-2.1-2.3-1.6c0,0.6-0.1,1.2-0.1,1.8c-0.7,0-1.1,0-1.6,0c-1.7-2.1-2.4-5.9-4.9-6.6c0.2,0.8,0.5,1.6,0.7,2.3   c-0.5,0.2-1,0.5-1.4,0.7c-1.2-3-4.9-6.4-4.9-9.3c3.8,1.1,5.2,5.5,9.2,5.9c-3.9-5-9-6.9-13.6-10.8c0.2-0.8,0.9-0.6,1.5-0.8   c0.2,0.9,0.9,0.8,1.5,0.7C693.4,240.7,707.1,248.2,708.5,263.1z" />
	<path fill="#F1DCBC" d="M673.8,228.4c13.1,2.8,27.6,11.7,35.5,22.6c0,1.3-0.4,2.7,0.7,3.7c0.1,0.7,0,1.8-0.8,2.1   c-6.2-15.9-24.3-20.3-38.2-27.8C671.8,228.5,672.8,228.4,673.8,228.4z" />
	<path fill="#B7A893" d="M709.9,254.7c-1.1-1-0.7-2.4-0.7-3.7c0.2,0,0.5,0,0.7,0.1c2.5,5.5,5,10.1,3.1,16.5c-1-4.6-0.3-8.4-2.4-12.3   l0.1,0.1C710.4,255.2,710.2,255,709.9,254.7z" />
	<path fill="#3C342C" d="M702.7,247c2.3,2.2,4.3,4.5,5.2,7.6c-1.2,0.4-0.6,1.4-0.8,2.2c-1.5-3.2-3.2-6.2-5.1-9.1   C702.2,247.5,702.4,247.3,702.7,247z" />
	<path fill="#302A26" d="M713.4,259.1c-1.1-2.6-2.3-5.3-3.4-7.9c0.4-0.7,0.8-1.4,1.3-2.1c0.6,2.7,1.9,5.2,2.9,7.8   C713,257.3,713.6,258.3,713.4,259.1z" />
	<path fill="#BAA890" d="M709.1,256.9c0.8-0.2,0.6-1,0.9-1.6c0.2,0,0.4,0.1,0.6,0.2l-0.1-0.1c0.2,2,0.4,3.9,0.7,6.3   C709.5,260.2,709.4,258.5,709.1,256.9z" />
	<path fill="#E3D4B1" d="M57.1,260.5c1.1,0.3,2.1,0.6,3.2,1c0.3-0.3,0.7-0.6,1.1-1c-1.2,3.6-0.4,7-0.2,10.5   c-1.4-0.6-2.7-1.1-3.8-1.6C55.6,266.3,58.1,263.6,57.1,260.5z" />
	<path fill="#D8CAA9" d="M64.2,263.1c0.3,0.4,0.6,0.9,0.9,1.3c0.5-0.2,0.9-0.4,1.3-0.5c-0.7,3-0.7,6-0.2,9.5c-1-0.4-1.6-0.7-2.3-1   C64.7,269.3,62.5,266.1,64.2,263.1z" />
	<path fill="#2F2621" d="M670.9,229.1c5,2.4,9.9,4.8,14.9,7.2c-0.3,0.3-0.6,0.6-0.8,0.9c-1.9-0.8-3.7-1.5-5.5-2.3l0,0   c-4.8-3.2-10.4-4.3-15.7-6.3c0.6-0.1,1.2-0.1,1.9-0.2c-0.4-0.5-0.7-0.9-1-1.3c2.6,0.2,5.5-0.6,7.8,0.6c-1.5,0.3-3.1-0.4-5,0.3   C668.8,228.6,669.5,228.9,670.9,229.1z" />
	<path fill="#BEB99F" d="M670.9,229.1c-1.4-0.2-2.1-0.5-3.6-1.1c1.9-0.7,3.5,0,5-0.3c0.5,0.2,1,0.5,1.5,0.7   C672.8,228.4,671.8,228.5,670.9,229.1z" />
	<path fill="#E4D4B1" d="M79.1,372.5c1.4,0,2.9,0,4.3,0c0.4,1.6,0.7,3.2,1.1,4.9c-1.5,0.5-2.9-0.1-4.2-0.4   C79.6,375.4,78.9,374.1,79.1,372.5z" />
	<path fill="#DECAA9" d="M71.4,373.2c1.3,0,2.5,0,3.9,0c0.2-1.2,0.3-2.2,0.4-3.2c1.1-0.4,2.1-1,2.6,0.6c-0.5-0.1-1.1-0.3-1.6-0.4   c-0.8,2.1-0.8,2.1,0.1,6.2c-1.3,0.6-2.5,0.1-3.9-0.1C72.5,375.2,71.9,374.2,71.4,373.2z" />
	<path fill="#DECAA9" d="M69.9,373.2c0-0.2,0-0.5,0-0.7c0.6,0,1.2,0,1.4,0.7C70.9,373.2,70.4,373.2,69.9,373.2z" />
	<path fill="#CCAB9C" d="M670.8,320.6c-0.3-1.7-1.7-3.2-1.2-5c1.1,0.9,3,0.5,4,2.2C673.2,319.2,672.8,320.6,670.8,320.6z" />
	<path fill="#CCA092" d="M671.5,313.6c2.2,0.7,4.4,1.4,6.6,2.2C676.7,319,672.7,315.4,671.5,313.6z" />
	<path fill="#CCAB9C" d="M669.6,315.6c-1.1-0.6-1.2-1.1-0.2-2C669.4,314.3,669.5,315,669.6,315.6z" />
	<path fill="#1A1414" d="M854.5,401.5c0.9-0.8,1.9-0.6,2.9-0.5C856.6,402.1,855.5,401.4,854.5,401.5z" />
	<path fill="#C3AC9E" d="M865.4,393.7c-1.7-0.7,0.4-1.6,1.2-1.9c2,0.8,4.2,0.3,6.3,0.7C870.7,394.1,867.5,392,865.4,393.7z" />
	<path fill="#C5B093" d="M628.2,269.6c-0.9-1.4-0.5-3-1.2-4.6c-0.1,1.8,0.2,3.6-0.7,5.3c0.8-13.7-2.2-26.8-0.7-40.3   c0.2-0.1,0.3-0.2,0.5-0.3c0.1,0.4,0.2,0.8,0.4,1.6c1.4-3,2.6-5.7,5.3-7.1c-0.7,6.3-3.5,12-3.6,18.3   C626.6,251.2,628.5,260.7,628.2,269.6z" />
	<path fill="#2F2B27" d="M625.3,232c0,1.7,0.3,3.5-0.5,5.1C624.9,235.5,624.2,233.5,625.3,232z" />
	<path fill="#F9E3C2" d="M663.7,228.6c2.1,0.7,4.3,1.4,6.4,2.1c-0.6,1.3-2.6-0.1-2.7,1.5c1.5,1.1,3.2,1.9,4.9,2.7   c3.1,5.6,7.9,9.6,11.2,15.2c-1.7,3,2.3,5.3,3.1,8.2c-1,2-3.1,0.1-4.3-0.7c-2.8-6.3-6.3-12.4-10.7-17.8c0.2-2-9.1-9.5-10.7-8.5   c0.7,1.4,2,1.9,2.9,2.8c-0.5,1.3-1.4,0-2.3,0.5c-0.2,0.4-0.4,1-0.7,1.7c2.9,3.1,6,6,7.9,9.8c-1-0.3-1.2,0.9-2,1   c-2.5-3.2-8.1-5.4-8.1-9.7c-1.7-1.4-1.8,0.9-2.8,0.7c-0.6-1-1.3-1.9-1.8-2.9c0.1-1.6,0.4-2.8-0.7-4.2   C655.8,228.7,660.2,228.3,663.7,228.6z" />
	<path fill="#F9E2C2" d="M631.9,224.3c-2.8,1.4-4,4.1-5.3,7.1c-1.1-3.9,1.4-7.7,2.5-11.2c6.2-3.9,14.8-8.1,21.6-3.3   c-0.1,0.8-0.3,1.7,1,1.6c2.9,2,2.1,5.6,2.1,8.6c-1.4-1.6-2-4.8-4.8-4.1c0.6,3.2,1.3,6.3,1.1,9.6c-0.8,0.3-1.5,0.7-2.2,1   c-1.1-1.1,0.1-2.7-1.1-3.9C645.9,221.8,635.3,213.4,631.9,224.3z" />
	<path fill="#DFC7A9" d="M650.2,222.9c3.7,2.5,4.9,5.1,1.4,8.2C649.8,228.8,652,225.4,650.2,222.9z" />
	<path fill="#BEB399" d="M655.9,223.1c0.9,1.2,1.5,2,2.1,2.9c-0.7,0.4-1.1,0.7-1.8,1.1C655.6,225.8,655.8,224.7,655.9,223.1z" />
	<path fill="#393129" d="M653.2,231.2c0.6,1,1.3,1.9,0.7,3.1c-0.5-0.5-1-1-1.5-1.5C652.7,232.3,653,231.7,653.2,231.2z" />
	<path fill="#2F2621" d="M662.3,228.4c-0.5,0-0.9,0-1.4,0C661.4,227.6,661.9,227.6,662.3,228.4z" />
	<path fill="#393129" d="M652.5,229.9c0.2-0.2,0.4-0.4,0.6-0.5C652.9,229.6,652.7,229.8,652.5,229.9z" />
	<path fill="#393129" d="M654.6,230c-0.3,0.2-0.5,0.3-0.8,0.5C654.1,230.3,654.3,230.1,654.6,230z" />
	<path fill="#393129" d="M651.8,230.6c0.2-0.2,0.4-0.4,0.6-0.6C652.2,230.2,652,230.4,651.8,230.6z" />
	<path fill="#201514" d="M792.8,226.4c0.4,1.4,2.5,0.5,3.6,0.8c0.5,1,1.5,0.5,2.2,0.7c-1,0.3-2,0.5-3,0.8c0,0,0-0.2,0-0.2   c-1.2-0.8-2-0.6-3.7-0.7C792.4,227,792.6,226.7,792.8,226.4z" />
	<path fill="#C9B9AA" d="M888.7,396.5c1.7,0.3,4.4-0.4,4.8,2c-1.8,0.4-3.3-0.6-4.8-1.3C888.7,396.9,888.7,396.7,888.7,396.5z" />
	<path fill="#C5B7A8" d="M878.8,395c2.2-0.9,4.4-1.5,6.2,0.4c0,0.2,0,0.3,0,0.5C883,395.5,880.9,395.2,878.8,395z" />
	<path fill="#BAAD9F" d="M885.1,395.8c0-0.2,0-0.3,0-0.5c1.2,0.4,2.4,0.8,3.6,1.1c0,0.2,0,0.5,0,0.7   C887.5,396.7,886.3,396.3,885.1,395.8z" />
	<path fill="#412723" d="M883.7,394.3c-0.3-0.1-0.6-0.3-0.9-0.4C883,394.1,883.4,394.2,883.7,394.3z" />
	<path fill="#3C3430" d="M783,208.7c-1.3,1.9-2.6,3.7-4.2,5.9c-0.4-3.2,1.3-4.6,3.2-6C782.3,208.6,782.7,208.6,783,208.7z" />
	<path fill="#E2CBBA" d="M795.7,228.6c3.2-1,6.3-1.1,9.6-0.8c-1.6,3.2-5.3,2.3-8.2,2.7c-0.5-0.3-1.1-0.6-1.8-1   C795.4,229.3,795.5,229,795.7,228.6z" />
	<path fill="#1E1414" d="M802.8,227.6c-2-0.2-4.7,1-6.3-0.5C798.5,226.9,800.8,226.7,802.8,227.6z" />
	<path fill="#251816" d="M875.8,394.6c-0.5-0.1-0.9-0.2-1.4-0.2C875.3,393.6,875.4,393.6,875.8,394.6z" />
	<path fill="#251816" d="M877.9,395.4c-0.4-0.1-0.9-0.3-1.3-0.4C877.5,394.4,877.5,394.4,877.9,395.4z" />
	<path fill="#E1C7B6" d="M200.5,295.1c-1.8-1.3-4.3-1-5.8-2.1c0.5-0.1,0.9-0.1,1.9-0.3c-1.6-0.8-2.1-1.8-3.2-0.5   c-6.7-4.6-14.4-6.8-21.7-10.2c8.3,0.3,16.5,5.7,25,7.3c5.8,3.2,23.2,4.7,24.2,11.5c-1.5,0-3.7-1.5-4.8-0.1   c-2.4,0.1-4.4-1.3-6.6-2.1c-0.8-1.5-1-1.6-2.1-0.7c-1.4-0.5-2.9-1-4.3-1.5C202.9,294.5,202.1,294,200.5,295.1z" />
	<path fill="#382926" d="M216.2,300.8c3.2-1.8,7.6,1.6,10.9,2.4C226.7,306.1,218.2,301.6,216.2,300.8z" />
	<path fill="#E2C8B7" d="M248.5,325c-2.7,0.4-3.5-2.8-1.7-3.9C250.1,319.5,252.8,325.1,248.5,325z" />
	<path fill="#312724" d="M221,322.1c0-0.3,0-0.7,0-1.2c3.2-0.2,6.2,1,9.2,1.2c0.3,0.2,0.5,0.5,0.8,0.7   C228.7,325.2,224,322.5,221,322.1z" />
	<path fill="#2D2320" d="M272.6,310.5c-2.3,0.9-5.2-1.5-6.3-3.5C268.7,306.1,271,308.8,272.6,310.5z" />
	<path fill="#09110F" d="M121.6,258.4c-1.5,1.4-3.2,0.3-4.8,0.7c-0.2-1.6,0.8-1.2,1.3-1.5c0.9,0,1.8,0.1,2.7,0.1   C121.1,257.9,121.4,258.1,121.6,258.4C121.6,258.4,121.6,258.4,121.6,258.4z" />
	<path fill="#321E1B" d="M98.1,270.5c0,0.3,0,0.7,0.1,1.1c-1.4,0.4-2.7,0.2-4.6,0.1c1.2-1.9,2.3-1.2,4-1.4   C97.7,270.4,97.9,270.5,98.1,270.5z" />
	<path fill="#854440" d="M130.3,259.9c1,0,1.9,0,2.9,0C131.9,261.4,131.4,261.4,130.3,259.9z" />
	<path fill="#462E2B" d="M126.7,259.7c-1.5,0.2-2.9,0.1-4.2-0.6c1.2-0.2,2.4-0.3,3.9-0.5C126.5,258.9,126.6,259.3,126.7,259.7z" />
	<path fill="#9F887D" d="M200.5,295.1c1.5-1.1,2.3-0.7,2.7,1.4C202.3,296.1,201.4,295.6,200.5,295.1z" />
	<path fill="#3F1715" d="M234.6,324.2c-0.8-0.3-1.5-0.7-2.1-1.3c1.1-0.1,2.2-0.4,3.3,0.8C235.3,323.9,234.9,324,234.6,324.2z" />
	<path fill="#928075" d="M207.6,298c1-0.9,1.2-0.9,2.1,0.7C208.8,298.8,208,299,207.6,298z" />
	<path fill="#AB9387" d="M282.2,315c-1.1,0.9-1.2,0.6-1.9-0.2C281,314,281.3,314.5,282.2,315z" />
	<path fill="#493632" d="M193.5,292.2c1.2-1.3,1.6-0.2,3.2,0.5c-1,0.2-1.5,0.2-1.9,0.3C194.4,292.8,194,292.5,193.5,292.2z" />
	<path fill="#7C5F58" d="M277.2,313.6c-0.2-0.4-0.3-0.8-0.4-1.1C277.5,312,278.3,313.2,277.2,313.6z" />
	<path fill="#5E3A37" d="M286.2,317.8c-0.6,0-1.1-0.1-1.7-0.1c0-0.1,0-0.2,0-0.4c0.6,0,1.1,0,1.7,0   C286.2,317.5,286.2,317.6,286.2,317.8z" />
	<path fill="#FF9A77" d="M363.6,323.6c-0.2,0.5-0.3,0.9-0.5,1.4C362.9,324.4,362.9,323.9,363.6,323.6z" />
	<path fill="#D6C1B1" d="M121.6,258.4c-0.2-0.2-0.5-0.5-0.7-0.7C121.1,257.9,121.4,258.1,121.6,258.4z" />
	<path fill="#FFF0A7" d="M582.9,369.6c11.3,4.5,23.7,2.4,35.9,2.9c-11.7,13.4-33.8,12.8-48.3,4.3c-0.7-1.9-0.2-3.8-0.4-5.6   C574.4,369.3,578.4,368.7,582.9,369.6z" />
	<path fill="#070504" d="M582,369.5c-6.9-1.8-13.2,3.5-20.4,2.2c-0.1-0.2-0.1-0.5,0-0.7c4.8-0.5,8.7-1.8,13.5-3   c-14.6-9-22.6-30.2-17.2-46.5c6.6-14.2,45.7-18.8,59.7-16.4c-21.4,3.7-68.6,0.1-57.7,34.7c3.5,9.2,4.9,20.7,14.5,25.7   c2.8-0.2,5.6-0.7,8.5-0.1c-0.3,2.2-2.6,0.6-3.3,1.9C580,368.8,581.9,367.7,582,369.5z" />
	<path fill="#2F2321" d="M729.4,382.6c2.2-1.9,6.5-0.3,9.8-0.8C737.9,384.5,731,384.8,729.4,382.6z" />
	<path fill="#3F322E" d="M587.1,315.7c-2,1.5-4.3,2.3-6.4,3.6c-1-2.6,4-2.9,5.5-4.4C586.6,315.2,586.9,315.5,587.1,315.7z" />
	<path fill="#46322F" d="M616.8,310.8c2.7,0.4,4.4,1.5,6.1,3.5C621,314.2,619,313,616.8,310.8z" />
	<path fill="#010000" d="M648.2,342.3c-1.3,1.2-1.3,1.2-5.1,0.9C644.7,341.5,646.4,342.1,648.2,342.3z" />
	<path fill="#471413" d="M749.2,388.1c-1.5,1.3-3.1,1.6-5.3,1.1C745.5,387.5,747.2,388.3,749.2,388.1z" />
	<path fill="#2F1311" d="M739.8,381.8c0.9-1,1.9-1.2,3.1-0.6C742.2,382.7,741,382.3,739.8,381.8z" />
	<path fill="#4B3733" d="M578.6,320.9c-1.6,1-2.6,1.5-3.5,2C573.8,321.4,576.5,320.4,578.6,320.9z" />
	<path fill="#493632" d="M583.6,363.2c1.4-1.4,1.9-0.1,3.9,0.6c-1.6,0-2.4,0-3.2,0C584.1,363.7,583.9,363.5,583.6,363.2z" />
	<path fill="#CBB3A5" d="M593.6,311.5c0.6,1.2,0.7,2.2-0.6,1.6C593,312.9,593.2,312.6,593.6,311.5z" />
	<path fill="#624A45" d="M587.1,315.7c-0.3-0.3-0.6-0.5-0.8-0.8c0.6-0.6,1.2-1,2.3-0.4C588,315,587.6,315.4,587.1,315.7z" />
	<path fill="#5B4743" d="M638.9,344.3c0.4-0.3,0.8-0.5,1.2-0.8c0.1,0.3,0.3,0.6,0.4,0.8c-0.4,0.1-0.9,0.3-1.3,0.4   C639,344.6,638.9,344.4,638.9,344.3z" />
	<path fill="#5A2623" d="M819.1,396.6c0.1,1.4-2,1.5-1.9,0C817.8,396.7,818.4,396.6,819.1,396.6z" />
	<path fill="#4E2A27" d="M744.9,380.2c0.5,0,1,0.1,1.7,0.1C746,381.5,745.4,381.5,744.9,380.2z" />
	<path fill="#562724" d="M748.1,379.4c0.4,0.3,0.6,0.4,0.8,0.6C748.3,381,747.4,380.4,748.1,379.4z" />
	<path fill="#532522" d="M753,388.6c-1,0.5-1,0.3-2.4-0.2c1.1-0.2,1.7-0.3,2.2-0.4C752.9,388.2,752.9,388.4,753,388.6z" />
	<path fill="#EF8A6A" d="M418.6,346.2c-5-0.2-36.9,1-24.1-8.6c8.4-9.4,20.4-3.9,26.6,4.9C421.2,344.4,419.6,345,418.6,346.2z" />
	<path fill="#F08B6B" d="M405.5,382.4c-4.4-0.1,1.1-13,2.3-15.3c0.4,0.4,0.8,0.8,1.2,1.1c-0.1,0.9-1.4,2.4,0,2.8   c-0.4,0.4-0.7,0.8-1.2,1.4c-0.3,3.1-0.6,6.3-2.7,9C405.2,381.8,405.4,382.1,405.5,382.4z" />
	<path fill="#ED8969" d="M390.6,364c-0.2-3.7,0.1-7.4,1.8-11c1.5,3.3,0.9,6.8,1.1,10.3c0.4,0.4,0.9,0.8,1.4,1.3   C393.4,365,392,364.2,390.6,364z" />
	<path fill="#635645" d="M409,371c-1.7-1.6,1.1-3.9,2-6.1c-0.7,5,9.7,1.8,13,2.8C419.4,369.9,411.3,365.2,409,371z" />
	<path fill="#5E3B30" d="M400.5,369.5c-1,1.9-0.8,4.1-1.6,6c-1.6-4.2,1.8-8.6,1.7-12.9l0,0c1.1-0.7,0.5-1.9,0.7-2.9   C403.4,362.4,400.2,366.3,400.5,369.5z" />
	<path fill="#684338" d="M390.6,364c2,0.7,3.9,0.8,6,0.6c0.4-1.7,0.8-3.3,1.3-4.8c0.2,0.3,0.4,0.5,0.6,0.8c0,3.1-1.3,5.9-1.6,9   c-0.7-1-0.8-2.2-0.8-3.4c-1.4-1.3-3.6-0.5-5.4-0.8c-0.2-0.4-0.4-0.9-0.7-1.3C390.3,364.1,390.4,364.1,390.6,364z" />
	<path fill="#6A4438" d="M398.5,360.6c-0.2-0.3-0.4-0.5-0.6-0.8c0.8-3,1.3-6.1,3.1-9.3C400.9,354.4,399.9,357.3,398.5,360.6z" />
	<path fill="#5E5644" d="M426.7,366.7c3-0.8,5.6-0.7,8.5,0.6c-2.6,0.2-4.1,0.3-6.4,0.2C428.4,366.5,427.4,367,426.7,366.7z" />
	<path fill="#714435" d="M371.6,329.6c1.3,2,2.2,4.1,2.5,6.5C372.1,334.4,371.8,332,371.6,329.6z" />
	<path fill="#32120F" d="M426.7,366.7c0.7,0.4,1.7-0.2,2.1,0.8c-3.8,0.2-7.5,0.1-11.3,0c0-0.2,0-0.4,0.1-0.6   C420.6,366.8,423.7,366.8,426.7,366.7z" />
	<path fill="#6E493C" d="M385.5,360.9c-0.3-2.3,0.8-4,2.2-6.6C388,357.3,386.5,358.4,385.5,360.9z" />
	<path fill="#852F27" d="M417.6,366.9c0,0.2-0.1,0.4-0.1,0.6c-2-0.4-5.1,1-6.4-0.8C413.3,366.8,415.5,366.9,417.6,366.9z" />
	<path fill="#D18267" d="M377.2,363.3c-1-0.7-2.6-0.8-3.3-1.8C376,361.2,377,361.8,377.2,363.3z" />
	<path fill="#B46A52" d="M366.4,330.5c-1.5-1.3-1.5-1.3,0-2.4C366.4,328.9,366.4,329.6,366.4,330.5z" />
	<path fill="#EF8A6A" d="M401.3,359.7c-0.2,1,0.4,2.1-0.7,2.9C400.7,361.6,400,360.4,401.3,359.7z" />
	<path fill="#ED8969" d="M390.1,364c0.2,0.4,0.4,0.9,0.7,1.3c-0.3,0-0.6,0-0.9,0.1C389,364.6,389,364.5,390.1,364z" />
	<path fill="#231917" d="M463.8,333.9c3.2-0.8,6.9,0.8,10.2,1.9C471.8,336.8,465.7,336.9,463.8,333.9z" />
	<path fill="#20201E" d="M484.1,337c-1,0-2,0-3.1,0C482.2,335.7,482.2,335.7,484.1,337z" />
	<path fill="#5B2D2A" d="M490.8,335.7c-1.6,1.2-2.5,1.2-3.9,0C488.3,335.7,489.1,335.7,490.8,335.7z" />
	<path fill="#431D1B" d="M496.9,334.8c-0.6,0-1.2,0.1-1.8,0.1c0-0.2,0-0.3,0-0.5c0.6,0,1.2,0,1.8,0   C496.9,334.5,496.9,334.6,496.9,334.8z" />
	<path fill="#1F1817" d="M117,355.3c0-0.3,0.1-0.7,0.1-1c3.2-1.1,6.5-1.6,8.8-1.3c0,0.3,0.1,0.7,0.1,1   C123.1,355.1,120.1,356,117,355.3z" />
	<path fill="#695C55" d="M131,351.8c-0.2-0.2-0.5-0.4-0.7-0.7c1.2-1.7,2.9-1.5,5-1.2C134.4,351.9,132.7,351.3,131,351.8z" />
	<path fill="#3E2D2A" d="M260.8,366.8c0.9-1.4,2.7-0.1,3.5,1.2c-0.6,0.2-1,0.3-1.4,0.4C262.2,367.9,261.5,367.3,260.8,366.8z" />
	<path fill="#534742" d="M245.1,361.8c0.1-0.2,0.1-0.3,0.1-0.5c1-0.1,2.1-0.1,3.5-0.2c-0.8,1.3-2,1.3-2.8,1.7l0-0.3   C245.6,362.2,245.3,362,245.1,361.8z" />
	<path fill="#45332F" d="M141.7,348.9c-0.5,1.2-1.3,1.1-2.2,0.7C140.2,348.3,140.2,348.3,141.7,348.9z" />
	<path fill="#E7D38B" d="M571.6,369c-3.3,1.1-6.6,1.7-10,2.1c2.4-1.4,2.6-5.3,6.2-4C568.7,367.6,569.6,369.3,571.6,369z" />
	<path fill="#4E3627" d="M575.8,296.7c3.3-0.5,9.1-3.2,11.3-0.1c-3.3,0-6.4,0.3-9.6,0.9C576.9,297.2,576.4,296.9,575.8,296.7z" />
	<path fill="#444130" d="M535.9,359.1c2.6-2.6,7-1.9,10.7-2.1C544,359.2,539.6,358.7,535.9,359.1z" />
	<path fill="#76634A" d="M559.3,353.6c-3.3,1.5-6.5,2.5-10.1,2.6c2.3-1.9,3.9-1.6,6.5-2.3C556.8,353.7,557.8,352.9,559.3,353.6z" />
	<path fill="#37271D" d="M555.6,372.5c-1.9,0-3.9,0-6,0C550.4,370,554,370.7,555.6,372.5z" />
	<path fill="#49402F" d="M570.3,298.9c-0.9,1.8-2.6,2.5-4.1,3.4C564.8,300.2,568.7,299.2,570.3,298.9z" />
	<path fill="#433325" d="M545.7,372.4c-1.7,0.5-3,0.1-4.2-0.9c0.2-0.4,0.4-0.6,0.7-1C543.5,370.7,544.8,371,545.7,372.4z" />
	<path fill="#3F3628" d="M557.1,307.3c0.7-1.2,1.5-2.2,2.7-2.9C560,306.1,559.3,306.9,557.1,307.3z" />
	<path fill="#72654B" d="M553.3,307.9c-1.2,1.4-2.2,1.9-3.6,2.3C550.6,308.6,550.6,308.6,553.3,307.9z" />
	<path fill="#625D44" d="M575.8,296.7c0.6,0.3,1.1,0.5,1.7,0.8c-2.1,0.7-2.1,0.7-4.2,0.3C574.1,297.1,574.9,296.9,575.8,296.7z" />
	<path fill="#181311" d="M33.6,378.2c10.5-8.9,22.5-16.3,30.7-27.7c0.3,0.3,0.5,0.5,0.8,0.8c-7.1,11.6-19,19-29.8,27   C34.7,378.2,34.1,378.2,33.6,378.2z" />
	<path fill="#1A1512" d="M67.1,346.2c6.8-3.8,13.7-7.2,19.9-12.1c0.3,0,0.6,0,0.9,0c-5,7.3-14.1,9.9-21.3,14.3   c-0.3,0-0.6-0.1-0.8-0.1C66.1,347.6,66.5,346.9,67.1,346.2z" />
	<path fill="#312B25" d="M91.2,329.1c3-3.4,4.8-8.4,9.1-10.4l0,0c0,0.4,0,0.8,0.1,1.3c-2.9,3.3-5.7,6.6-8.4,10   C91.7,329.7,91.4,329.4,91.2,329.1z" />
	<path fill="#574D43" d="M91.2,329.1c0.3,0.3,0.5,0.5,0.8,0.8c-1.1,1.7-2.3,3.2-4.1,4.3c-0.3,0-0.6,0-0.9,0c1.2-1.7,2.6-3.2,3.6-4.9   C90.8,329.2,91,329.2,91.2,329.1z" />
	<path fill="#6C6656" d="M65.7,348.4c0.3,0,0.6,0.1,0.8,0.1c0,1.2-0.4,2.2-1.5,2.8c-0.3-0.3-0.5-0.5-0.8-0.8   C64.7,349.8,65.2,349.1,65.7,348.4z" />
	<path fill="#657465" d="M33.6,378.2c0.6,0,1.1,0.1,1.7,0.1c-0.8,0.7-1.7,1.3-2.9,1.3C32.8,379.1,33.2,378.6,33.6,378.2z" />
	<path fill="#EADCB7" d="M100.3,319.9c0-0.4,0-0.8-0.1-1.3c0.2,0.1,0.5,0.3,0.7,0.4C100.8,319.4,100.6,319.7,100.3,319.9z" />
	<path fill="#1A1614" d="M452.2,393c-3.3,3.4-8.1,5.2-12,4.7C442.6,394.8,448.3,394.9,452.2,393z" />
	<path fill="#291D1A" d="M523.9,386.8c4,0.2,8.5,0,12.1,1.5C532.4,389.4,527.4,388.8,523.9,386.8z" />
	<path fill="#A3897E" d="M465.2,389.4c-1.2,0-2.4,0.1-3.6,0.1l-0.1-0.1c1-0.7,2.2-0.8,3.4-0.8C465,388.9,465.1,389.2,465.2,389.4z" />
	<path fill="#685750" d="M519.6,384.7c-0.7,1.4-1.3,1.1-1.8,0C518.5,384.7,519,384.7,519.6,384.7z" />
	<path fill="#62544D" d="M465.2,389.4c-0.1-0.2-0.2-0.5-0.2-0.7c0.4-0.4,0.7-0.8,1.3-1.3C466.8,388.8,466,389.1,465.2,389.4z" />
	<path fill="#4A2C28" d="M513.1,383.5c0.8-0.1,1.2-0.7,1.4,0.1C514.2,384.1,513.8,383.6,513.1,383.5z" />
	<path fill="#614742" d="M470.7,387.9c-0.4,0-0.7,0-1.1,0c0-0.1,0-0.2,0-0.4c0.4,0,0.7,0,1.1,0C470.7,387.6,470.7,387.8,470.7,387.9   z" />
	<path fill="#A3897E" d="M461.6,389.6c-0.3,0.5-0.6,0.8-1.3,0.2C460.8,389.6,461.1,389.5,461.6,389.6L461.6,389.6z" />
	<path fill="#1D1816" d="M255.8,342.2c3.3,0.9,4.9,3.6,7.2,6.1C259.8,349,257.6,344.6,255.8,342.2z" />
	<path fill="#342D2A" d="M251.6,337.7c0.2-0.3,0.4-0.5,0.6-0.9c1.2,0.7,1.9,1.5,2.1,2.8C253.1,340.6,252.4,338.4,251.6,337.7   L251.6,337.7z" />
	<path fill="#685750" d="M249.3,333.5c0.1-0.4,0.2-0.8,0.3-1.3c0.9,0.5,1.6,0.9,1,2C250.2,334,249.8,333.8,249.3,333.5L249.3,333.5z   " />
	<path fill="#3F3632" d="M270.8,374.7c-1.9-1.2-2.6-1.8-4.8-3.4c3,0.2,4.7,1.8,6.9,2C272.7,375,271.5,374.4,270.8,374.7L270.8,374.7   z" />
	<path fill="#4D3632" d="M241.6,363.3c-2-0.2-4,0.9-6.5,0.3c2-1.6,3.9-1.7,6.1-1.5C241.5,362.5,241.6,362.9,241.6,363.3L241.6,363.3   z" />
	<path fill="#583934" d="M140.3,362.4c0.4-1.9,1-1.3,2.4-1C141.7,361.8,141.1,362.1,140.3,362.4z" />
	<path fill="#32201E" d="M245.1,361.8c0.3,0.2,0.5,0.4,0.8,0.6c-0.6,0-1.3,0.1-1.9,0.1c0-0.1-0.1-0.3-0.1-0.4   C244.3,362,244.7,361.9,245.1,361.8z" />
	<path fill="#4C1917" d="M103.4,273.3c1.6,0,2.5,0,3.5,0C105.7,274.7,105.7,274.7,103.4,273.3z" />
	<path fill="#FD9876" d="M396.1,366.1c0.2,4.2-2.4,9.3-0.8,13.6c1.3-2,0.8-4.3,1.1-6.5c1.4,2.1,0.4,5,0.9,7.6   c-1.2,0.4-2.6,0.2-3.9,0.1c-0.9-0.8-0.8-1.9-0.5-2.6c1.3-4,0.2-7.8,0.7-11.9C394.5,366.2,395.3,366.2,396.1,366.1z" />
	<path fill="#A66C57" d="M396.4,373.2c-0.3,2.2,0.2,4.5-1.1,6.5c-1-3.4-0.3-8.3,0.9-11.5c0.2,0.5,0.5,0.9,0.7,1.4   C396.7,370.8,396.6,372,396.4,373.2z" />
	<path fill="#542F25" d="M393,386.9c-1.7,0.4-2.8,1.3-4.2,1C388.4,386,391.7,385.2,393,386.9z" />
	<path fill="#5F362B" d="M381.6,390.1c-1.6,0.4-3.2,0.9-5.1,1.4C377.6,389.6,378.2,389.4,381.6,390.1z" />
	<path fill="#DFC6B4" d="M648.1,279.6c-1.1,1.6-1,3.7,0.7,5c-1-0.2-1.8,0.1-2.2,1.1c-0.2,0.1-0.4,0.1-0.7,0.1   c-0.2-0.5-0.3-1.3-0.7-1.5c-4.2-1.8-4-5.8-5.7-9c1.6-2.1,4.3-2.5,6.1-5c1.3,3.3-2.2,4.9-2.6,8.2   C644.6,280.1,646.3,280.1,648.1,279.6z" />
	<path fill="#181614" d="M646,285.8c0.2,0,0.5-0.1,0.7-0.1c-0.9,5.3-3.7,10.6,0.1,15.9c-0.2,1.2,1.5,2.3,0.5,3.6   C641.9,300.9,641.3,291,646,285.8z" />
	<path fill="#221C1A" d="M636.1,303.8c0.9-1.1,2.1-3.5,3.4-1.3c-0.5,2.8-2.1,5-4.9,7.3C634.7,306.9,635.1,305.9,636.1,303.8z" />
	<path fill="#483632" d="M626.3,286.6c-3,2.3-3,2.3-4.9,2C623,286.7,624,286.2,626.3,286.6z" />
	<path fill="#271413" d="M616,292.3c0.7-2.1,0.8-2.2,3.1-1.8C618.7,291.9,617.5,292,616,292.3z" />
	<path fill="#A4AA93" d="M67.1,346.3c-0.2,0.2-0.4,0.5-0.6,0.7C66.7,346.8,66.9,346.5,67.1,346.3z" />
	<path fill="#F0E5C7" d="M89.1,331.4c-3.2,4-9.2,9.2-13.9,9.6c5-3.7,9.9-9.1,15.4-11.7C90.2,330,89.6,330.7,89.1,331.4z" />
	<path fill="#E4D1B2" d="M646.1,233.4c-0.1,0.6,0,1.2-0.4,1.7c-2.5-3.9-2.8-9.6-7.5-10.9c-0.5-2.1-3-0.7-3.7-2.3   c1.9-2.6,2.8-2.7,6.1-0.5C642,225.7,645.2,228.8,646.1,233.4z" />
	<path fill="#54483D" d="M643.9,227.1c-1.3-1.9-2.9-3.3-3.2-5.7c-6.5-5.2-7.9,4.9-8.8,9.2c-0.5,0.5-1,0.9-1.5,1.4   c0.8-11,7.7-19.9,15-6.4C644.8,226.1,644.3,226.6,643.9,227.1z" />
	<path fill="#5E5345" d="M630.3,232c0.5-0.5,1-0.9,1.5-1.4c-1.2,3.2-1.8,6.8-2.7,10c-0.2,0-0.4,0-0.7,0   C628.7,237.7,629,234.7,630.3,232z" />
	<path fill="#494136" d="M628.9,254c-0.8-1.8-0.8-6,0-7.8C628.9,248.8,628.9,251.4,628.9,254z" />
	<path fill="#5C4C3F" d="M636.1,234.9c-0.2-0.2-0.5-0.5-0.7-0.7c0.7-0.8,2-3.3,2.8-1.4C637.5,233.5,636.8,234.2,636.1,234.9z" />
	<path fill="#93826D" d="M638.2,224.2c0.2,0.5,0.5,0.9,0.7,1.4l-0.1,0.1c-0.8-0.3-1.6-0.6-2.5-0.9c0-0.1,0-0.3,0-0.4   C637,224.3,637.6,224.3,638.2,224.2L638.2,224.2z" />
	<path fill="#494136" d="M628.4,240.6c0.2,0,0.4,0,0.7,0c0,0.2,0,0.5-0.1,0.7c-0.2,0-0.4,0-0.6,0C628.3,241,628.3,240.8,628.4,240.6   z" />
	<path fill="#887763" d="M640.3,227.1c0.2,0.1,0.4,0.2,0.5,0.3C640.4,227.9,640.4,227.3,640.3,227.1L640.3,227.1z" />
	<path fill="#877864" d="M640.3,227.1c-0.2-0.2-0.5-0.5-0.7-0.7c0,0,0,0,0,0C639.9,226.6,640.1,226.8,640.3,227.1   C640.3,227.1,640.3,227.1,640.3,227.1z" />
	<path fill="#5C4C3F" d="M638.3,233.5c-0.1-0.3-0.1-0.5-0.2-0.8c0.2,0,0.5,0,0.7,0C638.7,233,638.5,233.2,638.3,233.5z" />
	<path fill="#877965" d="M638.9,225.6c0.2,0.2,0.5,0.5,0.7,0.7c0,0,0,0,0,0C639.4,226.1,639.1,225.9,638.9,225.6   C638.9,225.7,638.9,225.6,638.9,225.6z" />
	<path fill="#171210" d="M648.1,279.6c-1.9,0.5-3.6,0.5-5-1c1.3-4.1,4.3-6.8,3.6-11.3c-1.5-0.1-2.1,0.9-2.9,1.7   c-1.6-0.9,0.8-2.7,1.6-3.5c0.4,0,0.9,0,1.3-0.1l0,0c0.6,1.6,2.1-2.1,2.5-2.6c3.7-1.3,7.3-1.1,11-0.8c0.2,0.9,0.5,1.9,0.7,2.8   c-2,3.7,1.9,5.6,2.9,8.5c-1,0.1-2,0.4-3.2-0.2c-1.6-2.9-0.4-6.5-1.7-9.5c-14.3-1.4-6.9,6.5-13.4,13.9c0.8,0.7,1.4-0.2,2.1-0.2   c0.6,0,1.2,0.1,2.3,0.2C649.1,278.4,648.6,279,648.1,279.6z" />
	<path fill="#CFB99A" d="M644.6,266.1c-0.5,0.8-2.2,2-0.7,2.8c-0.4,0.8-0.5,1.8-1.5,2.1c-0.1-0.4-0.2-0.8-0.3-1.1   c-1.2,0.6-0.8-0.5-1.1-1c0.1-0.9,0.2-1.8,0.2-2.6c0.9-0.9,0.6-2,0.5-3c0-3.3,2.2-6.6,1.9-9.6c-0.3,0.3-0.5,0.6-0.8,0.9   c-1.3-2.5,1.9-6.6-0.3-8.4c0.4-0.6,1-0.7,1.4-0.1c1,1.9,3.9,0.8,3.6-1.2c0-0.6,0.1-1.2,0.7-1.5c-1.1,4.4,1,9-0.5,13.2   c0,0.1,0,0.3-0.1,0.4c-0.5-0.7-0.9-1.4-1.5-2.2c-2.9,2.9-0.4,6.6-0.8,9.9C644.6,264.9,644.6,265.5,644.6,266.1z" />
	<path fill="#4C4439" d="M636.9,254.1c0.4-0.1,0.9-0.1,1.3-0.1c-1,3.6,0,8.5-2.1,11.4c-1.3-2.5-0.1-5.2,0.1-7.8   C637.2,256.7,636.4,255.3,636.9,254.1z" />
	<path fill="#423C32" d="M638.3,266.9c0,0.7,0,1.4,0,2.1l-0.2-0.1c-1.7,2.2,0.8,7.4-2.8,8.4c-0.2-0.3-0.4-0.5-0.4-0.6   c1.6-2.8,0.7-6.5,2.5-9.3C637.3,266.6,638,265.9,638.3,266.9z" />
	<path fill="#6C5F4F" d="M638.3,266.9c-0.3-0.6-0.6-0.7-0.9,0c-0.5-0.5-0.9-1-1.4-1.5c0.9-0.2,0.7-1,0.9-1.6   c0.3,0.4,0.5,0.8,0.8,1.2c0.3-0.2,0.7-0.4,1-0.6C638.9,265.2,639.2,266.2,638.3,266.9z" />
	<path fill="#524A3D" d="M640.9,268.9c0.3,0.4-0.1,1.6,1.1,1c0.1,0.4,0.2,0.8,0.3,1.1c-0.9,1.1-1.7-0.1-2.6,0c0-0.5,0-0.9,0-1.4   C640.1,269.3,640.5,269.1,640.9,268.9z" />
	<path fill="#9B8E76" d="M636.7,255.4c0.1,0.8,0.3,1.6-0.5,2.2C636.1,256.8,635.8,256,636.7,255.4z" />
	<path fill="#6C5F4F" d="M637.6,270.5c-0.1-0.6-0.2-1.2,0.4-1.6C637.9,269.4,637.8,270,637.6,270.5z" />
	<path fill="#6C5F4F" d="M637.4,267.3c-0.2,0.3-0.3,0.6-0.5,0.9C637.1,267.9,637.2,267.6,637.4,267.3z" />
	<path fill="#251F1A" d="M640.9,268.9c-0.4,0.2-0.8,0.5-1.2,0.7c0-0.7,0-1.4,0-2.1c1.3-1.4,0.1-3.3,0.7-5c1.5-2.8,0.1-6.7,0.7-9.9   c1.6-1.9-0.5-4.7,1.3-6.5c1.9,1.4-0.2,5,0,7.2c-1.9,1.7,0.9,4.3-0.1,6.4c-1.1,0.8-0.2,2.4-0.7,3.6   C640.3,264.8,641.6,267,640.9,268.9z" />
	<path fill="#524A3D" d="M641.7,248.9c0,1.2,0.5,2.6-0.5,3.7C641,251.4,640.8,250.1,641.7,248.9z" />
	<path fill="#524A3D" d="M640.2,264.5c0.1,1,0.6,2.2-0.5,3C639.6,266.5,639.4,265.4,640.2,264.5z" />
	<path fill="#524A3D" d="M640.9,259.6c0,1,0.6,2.2-0.5,3C640.4,261.5,640,260.4,640.9,259.6z" />
	<path fill="#312C25" d="M638.2,254c-0.2,0-0.5,0-0.7,0c0-0.4,0.1-0.9,0.1-1.3c0.3,0.2,0.5,0.5,0.8,0.7   C638.3,253.6,638.3,253.8,638.2,254z" />
	<path fill="#181512" d="M648.3,254.5c-1.6-7.8,0.6-14.6,4.8-21.1c0.3,0.3,0.6,0.6,0.8,0.9c0,1.5-0.1,2.7-0.2,4.3   c-2.5,2-0.7,7-1.2,10c0,0.5,0.9,1,0.7,1.6c-0.3,0.8,0.3,1.9-0.9,2.3c0.1-0.6,0.1-1.2-0.7-1.5c-0.3-0.9-0.5-1.8-0.8-2.6   c0-0.8,0.5-1.8-0.7-2.2c-1.7,2.7,0.6,6.8-1.3,9.8C648.7,255.6,648.5,255.1,648.3,254.5z" />
	<path fill="#312C25" d="M643.9,227.1c0.5-0.5,1-1,1.4-1.5c1.6,2.1,2.3,5.5,0.8,7.8C645.3,231.3,644.6,229.2,643.9,227.1z" />
	<path fill="#1E1B16" d="M637.6,241.2c0-1.6,0-3.3,0-4.9C638.4,238,638.4,239.4,637.6,241.2z" />
	<path fill="#5C4C3F" d="M637.6,235.6c0.2-0.5,0.4-1,0.6-1.5C638.2,234.7,638.2,235.2,637.6,235.6z" />
	<path fill="#494136" d="M628.2,262.1c-0.8-1.7-0.5-3.5-0.5-5.2C628.8,258.4,628.1,260.4,628.2,262.1z" />
	<path fill="#5E5345" d="M627.7,244.8c-0.1-0.8-0.2-1.6,0.5-2.3c0,0.7,0,1.5,0.1,2.2C628.1,244.8,627.9,244.8,627.7,244.8z" />
	<path fill="#494136" d="M627.7,244.8c0.2,0,0.4,0,0.5,0c-0.2,0.2-0.4,0.5-0.6,0.7C627.6,245.3,627.6,245,627.7,244.8z" />
	<path fill="#4A3632" d="M594.6,365.8c-2.2,0.5-3.1-0.4-4.5-0.8C591.8,364.1,592.8,365,594.6,365.8z" />
	<path fill="#47433E" d="M822,396.6c0.6,0,1.3-0.1,2.6-0.1C823.2,397.5,822.6,397.6,822,396.6L822,396.6z" />
	<path fill="#4F432C" d="M571.4,388.2c-2.6-0.2-4.1-1.1-4.9-3.2C568.4,383.3,569.7,386.9,571.4,388.2z" />
	<path fill="#887D52" d="M565.9,380.6c1.1-0.1,1.1-0.1,1.1,1C566.6,381.2,566.3,380.9,565.9,380.6z" />
	<path fill="#D6BFA0" d="M692.8,253.3c0.5,0,0.9,0,1.6,0c0-0.6,0.1-1.2,0.1-1.8c1.4-0.5,1.5,0.8,2.3,1.6c0.2-0.3,0.5-0.7,0.9-1.3   c3,2.2,5.5,4.6,5.7,8.6c-0.2-0.1-0.4-0.2-0.6-0.3c-0.3-1.5-1.1-2.8-2.4-3.7c-0.4,0.4-0.8,0.8-1.2,1.1c-0.4-0.4-0.8-0.7-1.5-1.3   c0.6,3.4,2,5.8,2.5,8.9c0.1-0.2,0.2-0.3,0.4-0.5l0,0c1.4,0.4,0,3.6,2.1,2.6c0,0.1,0,0.3,0,0.4c-0.4,0.6-1,0.6-1.5,0.4   c-2.9-1.1-5.9-0.7-8.9-0.3c-2.3,0.2-4.5-1.1-6.7,0.4c0.1-1.6-1.9-1.8-2.8-2.9c1.5-0.1,2.8-1.1,4.4-0.3c0.2,0.1,0.7-0.4,1.1-0.6   c-1-0.7-1.8-1.3-2.6-1.9c7.9-2.6,5.7-0.2,2.8-6.9c-0.1-0.8,0.5-1.8-0.7-2.3l0,0c0.1-0.6,0.1-1.2-0.7-1.5c0,0,0,0,0,0   c0-0.7,0-1.4,0-2.1c0.5-0.3,1-0.5,1.5-0.7c4,4.4,4.4,12.2,8.5,16c-0.2-4.3-2.5-7.5-4.3-11C692.8,253.8,692.8,253.6,692.8,253.3z" />
	<path fill="#28201D" d="M658.2,269.7c-0.1,0.6-0.1,1.2-0.2,1.6c-1,1.3-2.4,1-3.6,1.1c-0.3,0.9-0.6,1.7-0.9,2.7   c-1.4-0.1-2.6-0.3-4.1-0.4c0.3-6.9,0.4-10.8,8.7-10.4C658.1,266.2,658.1,268,658.2,269.7z M652.8,266c-2.1,1.7-2.5,4.7-0.8,6   c0.2-0.5,0.4-1,0.8-1.8c1.2,0.2,2.4,0.3,3.8,0.5c0.6-3.3-1.3-1.7-2-3.6c0.8-0.1,1.4-0.1,2.4-0.2C655.5,265.5,654.1,266.4,652.8,266   z" />
	<path fill="#1F1B19" d="M688,290.8c2.6,0.9,5.9,2.5,7.6,4.1c-1.5,0.9-3,0.3-4.3-0.2c-1.8,0.8-3.4,1.5-5.2,2.3   c-0.1,0.3-0.3,0.8-0.4,1.3c-2.2-1.3-2-3.6-2.2-6c0.1,0.1,0.4,0.1,0.6,0.1c0.3,0.3,0.6,0.7,1.1,1.1c0.6-0.4,1.2-0.8,2-1.4   c-0.7-0.3-1.1-0.5-1.5-0.7C686.5,291.2,687.3,291,688,290.8z" />
	<path fill="#C8B598" d="M660.9,264.7c-0.2-0.9-0.5-1.9-0.7-2.8c0,0,0.1-0.1,0.1-0.1c1.2,0.7,2.3,1.4,3.5,2.2   c-0.4,0.1-0.8,0.1-1.7,0.3c3.3,2.7,6.3,4.8,10.8,3.7c-0.3-1.7-2.2-1.3-3.4-1.8c0.6-0.1,1.3,0,1.5-0.8c0.9,0.3,1.9,0.5,2.8,0.8   c0.3,0.6,0.8,0.7,1.4,0.6c0.2,0.1,0.4,0.1,0.6,0.2c0,0.2,0.1,0.4,0.1,0.6c-1.6,0-1.8,1.8-3.1,2.3c-1,0.3-1.7,1.3-2.6,2   c-0.1-0.8-0.7-1.2-1.4-1.3c-2.7-0.4-4.7-1.8-6.4-3.8C662.3,265.7,661.9,265,660.9,264.7z" />
	<path fill="#241D1B" d="M699.6,292.5c-3.1-3.4-6.7-5.3-9.5-9.1c4.4,0.5,8.8,4.3,10.5,8.5C700.1,292.1,699.9,292.3,699.6,292.5z" />
	<path fill="#B1A489" d="M682.9,265.3c0.9,1,2.9,1.3,2.8,2.9c-2.1-0.2-4.5,0.5-6.4-0.5c1.4-0.1,2-0.2,2.9-1.6c-2.2,0-3.9,0-5.7,0   l0,0c0-0.2,0-0.4,0-0.6c2.1-1.9-1.9-0.8-1.3-2.5c2.5,0.5,5,1.2,7.5,1.8C682.9,264.9,682.9,265.1,682.9,265.3z" />
	<path fill="#9C8E82" d="M658.2,269.7c-0.1-1.7-0.1-3.5-0.2-5.3c-4.1,0-7.9,0.7-8.6,5.3c-0.2,0-0.4,0-0.6,0c-1.2-5.8,5.8-6.8,10-6.2   c1.1,1.9,0.4,4.1,0.6,6.1C659.1,269.7,658.6,269.7,658.2,269.7z" />
	<path fill="#312A25" d="M662.4,266.7c1.7,2,3.7,3.4,6.4,3.8c0.7,0.1,1.3,0.5,1.4,1.3c-3.4,2-7.3-1.3-8.5-4.7   C661.8,267,662.1,266.8,662.4,266.7z" />
	<path fill="#2E2A24" d="M704.9,263.2c0.9,1.4,1.9,2.9,2.8,4.3c0,1,0,2,0,3.3c-3.4-1.2-3.9-4.5-3.6-7.6   C704.4,263.2,704.7,263.2,704.9,263.2z" />
	<path fill="#9F937C" d="M662.4,266.7c-0.3,0.2-0.6,0.3-0.7,0.4c0.6,2.3,2.3,3.2,3.6,4.5c-0.5,0.6-0.9,1.1-1.5,1.6   c-1-2.9-5-4.8-2.9-8.5C661.9,265,662.3,265.7,662.4,266.7z" />
	<path fill="#554D41" d="M676.6,266.1c1.7,0,3.5,0,5.7,0c-1.5,2.4-4,1.3-6.4,1.4c0-0.2-0.1-0.4-0.1-0.6   C676,266.6,676.3,266.3,676.6,266.1z" />
	<path fill="#573632" d="M684.2,292.4c-0.1,0-0.4,0-0.6-0.1c-0.2-1.6-1.3-1.3-2.4-3.1c2.7,0.6,4.9,0.6,6.8,1.6   C686.8,291.6,684.1,290.7,684.2,292.4z" />
	<path fill="#776B5B" d="M704.2,263.2c0.1,1.6-0.7,3-1.4,4.4c0.1-1.6-0.2-3.3,0.2-4.8C703.5,263.1,703.9,263.2,704.2,263.2   C704.2,263.3,704.2,263.2,704.2,263.2z" />
	<path fill="#312826" d="M646.8,286.9c-0.1-0.4-0.1-0.8-0.2-1.2c0.4-1,1.1-1.3,2.2-1.1C648.2,285.3,647.5,286.1,646.8,286.9z" />
	<path fill="#312826" d="M646.1,288.3c0.2-0.3,0.3-0.6,0.5-0.9C646.4,287.7,646.3,288,646.1,288.3z" />
	<path fill="#DFC5B4" d="M775.1,224.2c-0.7,0.7-1.4,1.5-2.1,2.2c-0.1-0.3-0.1-0.6-0.3-1.2c-1.6,1.3-3.7,2-4.8,3.6   c0.2,0.2,0.5,0.4,0.8,0.6c-0.9,0.4-1.9,0.9-2.8,1.3c-0.2-0.8-0.8-0.7-1.4-0.7c-0.5-4.7,6.2-9.1,10.5-9.3c-0.3,1.1-0.7,2.2-1,3.3   C774.5,224.1,774.8,224.1,775.1,224.2z" />
	<path fill="#38312D" d="M775.1,224.2c-0.3,0-0.6-0.1-1.1-0.2c0.9-3.4,2.3-6.6,5.1-8.9C778.6,218.5,776.2,221.1,775.1,224.2z" />
	<path fill="#322724" d="M760.3,234.2c0.4,2.3-2.3,2.9-3.8,3.5c-0.8-0.5-0.4-0.9-0.5-1.3C757.4,235.6,758.8,234.9,760.3,234.2z" />
	<path fill="#483A35" d="M768.8,229.3c-0.3-0.2-0.5-0.4-0.8-0.6c1.1-1.5,3.2-2.3,4.8-3.6c0.1,0.5,0.2,0.8,0.3,1.2   C771.6,227.3,770.2,228.3,768.8,229.3z" />
	<path fill="#3D3733" d="M786.8,226.7c-0.3-2-0.7-3.9-0.2-6.4C787.8,222.9,787.1,224.8,786.8,226.7z" />
	<path fill="#58443F" d="M751,240.6c-0.4,1.6-0.7,1.8-2.8,2C748.7,241.3,749.6,240.6,751,240.6z" />
	<path fill="#B2A296" d="M785.2,218.5c0-0.7-0.1-1.2-0.1-1.9C786.3,217.5,786.3,217.5,785.2,218.5z" />
	<path fill="#624E48" d="M753.8,238.4c0,1.3,0,1.3-1.4,1.4l0,0c0-0.2,0-0.5,0-0.7C752.9,238.9,753.4,238.7,753.8,238.4z" />
	<path fill="#B19F93" d="M764.5,229.9c0.6,0,1.2-0.1,1.4,0.7C764.6,231.2,764.6,231.2,764.5,229.9z" />
	<path fill="#BCA699" d="M785,215.2c-0.1,0-0.3,0.1-0.4,0.1c0-0.3-0.1-0.6,0.2-0.7C784.8,214.8,784.9,215,785,215.2z" />
	<path fill="#531F1E" d="M775.2,228.2c0.5-0.3,0.8-0.5,1.3,0C776.2,228.8,775.6,228.6,775.2,228.2z" />
	<path fill="#774A45" d="M780.6,229.7c-0.4,0-0.8,0-1.1,0c0-0.1,0-0.3,0-0.4c0.4,0,0.8,0,1.1,0.1   C780.6,229.5,780.6,229.6,780.6,229.7z" />
	<path fill="#E0C6B5" d="M752.4,239.1c0,0.2,0,0.5,0,0.7C751.8,239.6,751.8,239.4,752.4,239.1z" />
	<path fill="#D1BC9D" d="M684.3,254c-1.1-1.1-1.9-2.4-0.8-4c-3.3-5.5-8.1-9.6-11.2-15.2c3.6,1.3,7.1,3.1,10,5.6   c-0.6,3,4.7,5.9,4.1,9.4c-1.5,1.2,0,3.3,0,4.9l0-0.1c-0.6-0.7-1.1-1.4-1.9-2.3C684.4,253.1,684.4,253.6,684.3,254z" />
	<path fill="#3D3129" d="M679.9,238.6c-4-2.5-8.7-3.7-12.6-6.4c4.7-0.6,9.6,2.9,13.4,5.5C680.5,238,680.2,238.3,679.9,238.6z" />
	<path fill="#D2C6A9" d="M677.9,235.6c-3.4-1.1-6.8-4.3-10.6-3.4c0.1-1.6,2.2-0.2,2.7-1.5c3.3,0.9,6.4,2.2,9.3,4.1   C678.8,234.9,678.2,234.8,677.9,235.6z" />
	<path fill="#B5A38C" d="M691.4,239.2c3.2,0.8,4.9,4.1,7.9,5c0,0.5,0,0.9-0.1,1.4c-3.1-1.9-6.1-3.8-9.2-5.7   C690.5,239.8,691.1,239.9,691.4,239.2z" />
	<path fill="#B9A78F" d="M685,240.6c2.2,1.5,4.6,3,6.5,5.7c-3.3-0.3-4.7-3.2-7.2-5C684.5,241.1,684.7,240.9,685,240.6z" />
	<path fill="#7D6F5F" d="M691.4,239.2c-0.2,0.7-0.8,0.6-1.4,0.7c-1.7-0.9-3.4-1.8-5-2.7c0.3-0.3,0.6-0.6,0.8-0.9   C688,236.6,689.5,238.3,691.4,239.2z" />
	<path fill="#6B5D4F" d="M685,240.6c-0.2,0.3-0.5,0.5-0.7,0.8c-1.7-0.6-3-1.6-4.3-2.8c0.3-0.3,0.6-0.6,0.9-0.9   C682.2,238.7,683.6,239.6,685,240.6z" />
	<path fill="#5B5043" d="M692.8,253.3c0,0.2,0,0.5,0,0.7c-0.7,0.2-0.6,0.9-0.7,1.4c-0.7-1.7-1.5-3.3-2.2-5c0.3-0.3,0.6-0.5,0.8-0.8   C691.4,251,692.1,252.1,692.8,253.3z" />
	<path fill="#8E7C6A" d="M699.2,245.5c0-0.5,0-0.9,0.1-1.4c1.5,0.6,2.8,1.3,3.4,2.9c-0.3,0.2-0.5,0.5-0.8,0.7   C701,247,700.1,246.3,699.2,245.5z" />
	<path fill="#9A8874" d="M690.7,249.8c-0.3,0.3-0.6,0.5-0.8,0.8c-1.1-1.1-1.6-2.3-1.9-3.8C689.7,247.4,689.7,247.4,690.7,249.8z" />
	<path fill="#776B5B" d="M702.8,260.2c0.2,0.1,0.4,0.2,0.6,0.3c0.3,0.4,0.5,0.9,0.8,1.3c-0.1,0.1-0.2,0.2-0.3,0.3   C703.1,261.8,702.5,261.1,702.8,260.2z" />
	<path fill="#776B5B" d="M704.9,263.2c-0.3,0-0.5,0-0.8,0l0,0c-0.1-0.4-0.2-0.8-0.2-1.2c0.1-0.1,0.2-0.2,0.3-0.3   C704.5,262.3,704.7,262.7,704.9,263.2z" />
	<path fill="#D2C6A9" d="M679.4,234.8c0.5,0.2,1,0.4,1.5,0.7C680.3,235.6,679.6,235.7,679.4,234.8z" />
	<path fill="#D2C6A9" d="M678.7,236.1c-0.2-0.2-0.5-0.3-0.7-0.5C678.2,235.8,678.4,235.9,678.7,236.1z" />
	<path fill="#D6BFA0" d="M686.4,249.9c0-0.3,0.1-0.6,0.1-0.9c0.2,0.3,0.4,0.5,0.7,0.8l0,0C686.9,249.8,686.6,249.8,686.4,249.9   C686.4,249.8,686.4,249.9,686.4,249.9z" />
	<path fill="#050404" d="M710.6,255.5c-0.2-0.1-0.4-0.2-0.6-0.2c0.1-0.2,0-0.4-0.1-0.5C710.2,255,710.4,255.2,710.6,255.5z" />
	<path fill="#D9C2A2" d="M668.7,246.2c-2-3.8-5-6.7-7.9-9.8c0.3-0.7,0.5-1.3,0.7-1.7c0.9-0.5,1.8,0.8,2.3-0.5c3,0.9,4.6,5.1,7.8,5.6   c4.3,5.4,7.9,11.4,10.7,17.8c-6.3,1.4-6.4-10.6-10.5-10.1c0.2,0.7,0.4,1.5,0.7,2.2C671.1,248.6,669.9,247.4,668.7,246.2   L668.7,246.2z" />
	<path fill="#D7C0A0" d="M658.8,239.8c2.6,2.5,5.3,5,7.9,7.4c0.8-0.2,1-1.3,2-1l0,0c0.1,2,1.8,3.1,2.1,5c-1.4,2.3,2.1,5.4,2.8,7.8   c-0.5,0.2-1,0.5-1.5,0.7c-2.4-1.4-2.8-4.7-5.9-4.8c-0.2,0.4-0.4,0.6-0.5,0.7C662.2,250.9,659.8,245.6,658.8,239.8z" />
	<path fill="#D9C4A6" d="M654.5,236.3c0.4,0.6,0.8,1.3,1.3,1.9c1.1,0.2,1.2-2.1,2.8-0.7c0,0.4,0.1,1,0.1,1.7c-0.3-0.4-0.6-0.9-1-1.3   c-0.6,3,0.7,5.5,1.1,8.3c-1.4,0.4-1.8-1.1-2.9-1.4C654.9,242.1,654.5,239.2,654.5,236.3z" />
	<path fill="#343028" d="M654.5,236.3c-0.1,5.1,2.1,9.9,2.9,14.9c-0.3,0.7,0.4,1.6-0.7,2c-1.5-4-2.8-8.1-3.2-12.4   c-0.5,0-0.7,0-0.9-0.1c-0.4-1.1,0.4-1.7,1.2-2.1c0.1-1.2,0.2-2.3,0.2-3.3C654.1,235.7,654.3,236,654.5,236.3z" />
	<path fill="#3E362E" d="M686.4,254.8c0-1.6-1.6-3.7,0-4.9l0,0c0,0.8-0.1,1.6,0.8,2.1l0,0c0.2,0.5,0.4,1,0.7,1.5l0,0   c0,0.8-0.1,1.7,0.7,2.3c0.2,1.6,1.9,2.7,1.5,4.3c-0.2-0.1-0.4-0.2-0.7-0.3c-0.4-0.7-1-0.6-1.6-0.4c-1.9-1.1-2.4-3.4-3.5-5.1   c0.1-0.4,0.1-0.9,0.3-1.6c0.9,1,1.4,1.8,2.1,2.5C686.7,254.9,686.5,254.8,686.4,254.8z" />
	<path fill="#C3AD91" d="M678.5,256.9c2.1,0.3,4.2,0.6,5.8,2c-0.4,0.1-0.7,0.2-1.3,0.4c1.6,0.9,2.9,1.7,4.2,2.4   c-0.5,0.3-1,0.5-1.5,0.8C682.5,261.3,679.5,261.3,678.5,256.9z" />
	<path fill="#9F8F7A" d="M671.5,239.8c-2.9-0.6-4.7-3.8-7.1-5.5c0.3-0.3,0.6-0.6,0.9-0.9C667.2,235.5,671,236.8,671.5,239.8z" />
	<path fill="#897A66" d="M658.9,246.2c-0.4-2.9-1.7-5.3-1.1-8.3c1.7,2.1,1.6,5.1,2.4,7.6c-0.3,0.3-0.5,0.5-0.8,0.8   C659.2,246.3,659,246.2,658.9,246.2z" />
	<path fill="#615447" d="M687.3,261.7c-1.3-0.7-2.6-1.5-4.2-2.4c0.6-0.2,0.9-0.3,1.3-0.4c1.6,0.5,3.1,1.2,4.7,1.8   c0,0.3,0.1,0.7,0.1,1C688.6,261.8,687.9,261.8,687.3,261.7z" />
	<path fill="#847261" d="M665.2,233.4c-0.3,0.3-0.6,0.6-0.9,0.9c-0.2-0.1-0.4-0.1-0.6-0.1c-1-1-2.3-1.5-2.9-2.8   C662.8,231.2,662.8,231.2,665.2,233.4z" />
	<path fill="#B5A48B" d="M689.2,261.8c0-0.3-0.1-0.7-0.1-1c-1.4-0.6-2.8-1.1-4.1-1.7c0.6-0.2,1.3-0.1,1.6-0.9   c0.9,0.6,1.6,1.8,2.8,1.4c0.2,0.1,0.4,0.2,0.7,0.3c0.3,0.4,0.5,0.8,0.8,1.2C690.2,261.3,689.7,261.5,689.2,261.8z" />
	<path fill="#D9C2A2" d="M663,233.5c0.2,0.2,0.5,0.4,0.7,0.6C663.5,234,663.3,233.8,663,233.5z" />
	<path fill="#EADCB7" d="M76.3,341.2c0.3-0.2,0.6-0.4,0.9-0.5C76.9,340.8,76.6,341,76.3,341.2z" />
	<path fill="#EADCB7" d="M89.7,330.5c0.2-0.2,0.3-0.4,0.5-0.6C90.1,330.1,89.9,330.3,89.7,330.5z" />
	<path fill="#EADCB7" d="M89.1,331.4c0.2-0.3,0.4-0.5,0.6-0.8C89.5,330.9,89.3,331.1,89.1,331.4z" />
	<path fill="#C4B093" d="M660.2,261.9c-3.6-0.2-7.2-0.5-11,0.8c-0.5,0.8-0.9,2.1-1.8,2.7c-0.2-0.1-0.5-0.1-0.7-0.1l0,0   c0.3-1.7,0.6-3.3,0.9-5c0.9-0.7,0.3-1.9,0.5-2.8c0.2,0,0.5,0,0.7,0c0.5,1.7,0.7,2.3,2,3.9c0.1-1.2,0.1-1.8,0.2-2.5   c1.2,0.6,2.4,1.2,4.2,2.1c1.1,0.1,3.7-0.4,5.1,0.7C660.3,261.8,660.2,261.9,660.2,261.9z" />
	<path fill="#42362D" d="M647.6,260.4c-0.3,1.7-0.6,3.3-0.9,5c-0.4,0-0.9,0-1.3,0.1c-0.7-3.1,1.5-6,2.2-8.9   C648.5,257.7,648,259.1,647.6,260.4z" />
	<path fill="#B9A489" d="M645.2,264.7c0.1,0.2,0.1,0.5,0.2,0.7c-0.3,0.2-0.5,0.5-0.8,0.7C644.6,265.5,644.6,264.9,645.2,264.7z" />
	<path fill="#42362D" d="M646.7,265.3c0.2,0,0.5,0,0.7,0.1C647.1,266.1,646.9,266,646.7,265.3z" />
	<path fill="#42362D" d="M647.5,265.4c0.2-0.2,0.4-0.5,0.7-0.7C647.9,264.9,647.7,265.2,647.5,265.4z" />
	<path fill="#B9A489" d="M647.5,256.9c-0.7,1.9-1.4,3.8-2.1,5.8c-0.3-0.8-0.5-1.5-0.8-2.3c1.4-1.1,2.2-3.7,0.8-4.9   c0.2-0.2,0.4-0.5,0.7-0.8C646.6,255.5,647,256.2,647.5,256.9z" />
	<path fill="#524A3D" d="M642.6,258.4c-0.1-1.6-1.8-3.8-0.2-5.1c0.1,0.4,0.2,0.8,0.3,1.2c0.3-0.4,0.5-0.6,0.8-0.9   C644.2,255.1,642.8,256.8,642.6,258.4z" />
	<path fill="#8C7C67" d="M645.3,255.5c1.4,1.2,0.6,3.8-0.8,4.9C644.4,258.7,644.7,257.1,645.3,255.5z" />
	<path fill="#B9A489" d="M648.1,257.6c-0.2-0.3-0.4-0.7-0.5-1c0.2-0.7,0.4-1.3,0.7-2c0.5,1,0.8,1.9,0.6,3   C648.6,257.6,648.4,257.6,648.1,257.6z" />
	<path fill="#524A3D" d="M641.2,266.3c0-1-0.6-2.2,0.5-3C641.8,264.3,642.1,265.4,641.2,266.3z" />
	<path fill="#524A3D" d="M641.9,261.3c-0.2-0.6-0.2-1.2,0.4-1.6C642.2,260.2,642,260.7,641.9,261.3z" />
	<path fill="#D4BE9E" d="M660.3,261.8c-1.3-1-4-0.6-5.1-0.7c-1.8-0.9-3-1.5-4.2-2.1c-1.1-3.3-1.1-7-1.3-10.5c0.4,0,0.8,0,1.2,0   c0.4,1.4,0.8,2.8,1.5,4.1l0,0c1.4,2.1,1.3,4.5,3.4,6.3c0.3-0.3,0.5-0.6,0.8-0.9c-3.6-5.1-3.9-11.2-4-17.3c0.2,0,0.5,0,0.9,0.1   c1.1,5.7,2.8,14.3,6.2,18.6c-0.2-4.8-3-9.8-3.7-14.7c1.1,0.6,1.9,1.7,3.4,1.5c0.5,1.6,1,3.3,1.4,4.9c-0.6-0.1-1.2-0.2-2-0.3   c0.4,1.2,0.7,2.1,1,2.9c1.4,0.5,1.8-0.2,1.9-1.3c3.1,4.2,5.2,9.4,9.2,12.8C667.7,267.9,663.2,263.3,660.3,261.8z" />
	<path fill="#4A4338" d="M649.7,251c0.4,3.7,1.3,6.7,1.1,10.4C647.6,258.2,649.8,254.9,649.7,251z" />
	<path fill="#3F382F" d="M653.2,250.3c0.5,1.5,0.9,2.9,1.4,4.4c-0.3,0.3-0.6,0.5-0.8,0.8c-0.5-0.9-0.9-1.9-1.4-2.8   C653.5,252.2,652.9,251.1,653.2,250.3z" />
	<path fill="#3F382F" d="M652.5,244.6c0.8,1.6,0.5,3.4,0.6,5.1C651.8,248.4,652.6,246.4,652.5,244.6z" />
	<path fill="#35352C" d="M650.9,248.5c-0.4,0-0.8,0-1.2,0c-0.1-0.7-0.4-1.5,0.5-2.2C651.3,246.8,650.9,247.7,650.9,248.5z" />
	<path fill="#3F382F" d="M652.3,252.7c-0.2-0.5-0.4-1-0.7-1.5C652.4,251.4,652.4,252,652.3,252.7z" />
	<path fill="#AC9A81" d="M699.2,257.6c0.4-0.4,0.8-0.8,1.2-1.1c1.3,1,2.4,2.5,2.3,4.2c-1.5,1.6-0.2,4.7-0.6,6.8   c-1.5-0.3-0.1-2.3-1.5-2.8C700.8,262.2,700.2,259.9,699.2,257.6z" />
	<path fill="#362F27" d="M692.1,255.5c0.1-0.6,0-1.2,0.7-1.4c1.8,3.5,4.2,6.7,4.3,11C694.4,263.2,693.9,258.4,692.1,255.5z" />
	<path fill="#756C5A" d="M684.9,261.9c1.2,0.9,2.1,1.5,3.4,2.5c-0.4,0.2-0.9,0.7-1.1,0.6c-1.6-0.9-2.9,0.1-4.4,0.3   c0-0.2,0-0.4-0.1-0.6c1.5-0.9-0.6-1.2-0.3-1.9C683.2,262.1,684.5,263.1,684.9,261.9z" />
	<path fill="#605447" d="M699.2,257.6c0.4,1.2,0.9,2.4,1.3,3.7c-0.2,0.5-0.5,1-0.7,1.5c-0.9-2-1.7-4-2.1-6.4   C698.4,256.9,698.8,257.2,699.2,257.6z" />
	<path fill="#302B24" d="M702.1,267.4c0.3-2.1-1-5.3,0.6-6.8c0,0.8,0.5,1.2,1.2,1.4c0.1,0.4,0.2,0.8,0.2,1.2   c-0.3-0.1-0.7-0.2-1.2-0.4c-0.5,1.4-0.1,2.9-0.3,4.4C702.6,267.4,702.4,267.5,702.1,267.4z" />
	<path fill="#2B2821" d="M699.8,262.7c0.2-0.5,0.5-1,0.7-1.5c0,1.1,0.1,2.3,0.1,3.4l0,0c-0.2,0-0.4,0-0.7,0   C699.9,264,699.9,263.3,699.8,262.7z" />
	<path fill="#6E6656" d="M690.7,261.1c-0.3-0.4-0.5-0.8-0.8-1.2c0-0.3,0.1-0.7,0.1-1C690.8,259.4,692.2,260.5,690.7,261.1z" />
	<path fill="#D1BC9D" d="M687.2,251.9c-0.9-0.5-0.8-1.3-0.8-2.1c0.3,0,0.5,0,0.8,0C687.2,250.5,687.2,251.2,687.2,251.9z" />
	<path fill="#D1BC9D" d="M688.5,255.6c-0.8-0.6-0.7-1.4-0.7-2.3C689,253.8,688.5,254.8,688.5,255.6z" />
	<path fill="#D1BC9D" d="M687.8,253.4c-0.2-0.5-0.4-1-0.7-1.5C687.9,252.2,687.9,252.8,687.8,253.4z" />
	<path fill="#AC9A81" d="M700,264.6c0.2,0,0.4,0,0.7,0c-0.1,0.2-0.2,0.3-0.4,0.5C700.2,265,700.1,264.8,700,264.6z" />
	<path fill="#6E6656" d="M689.8,258.3c-0.2-0.2-0.4-0.5-0.6-0.7C689.5,257.9,689.6,258.1,689.8,258.3z" />
	<path fill="#D6BFAF" d="M652.8,266c1.3,0.3,2.7-0.6,4.2,0.9c-1.1,0.1-1.7,0.2-2.4,0.2c0.7,2,2.5,0.4,2,3.6   c-1.4-0.2-2.6-0.3-3.8-0.5c-0.3,0.8-0.5,1.3-0.8,1.8C650.3,270.7,650.7,267.7,652.8,266z" />
	<path fill="#DCE2E2" d="M684.2,292.4c0-1.8,1.8-0.9,3.1-0.2c-0.8,0.5-1.4,0.9-2,1.4C684.8,293,684.5,292.7,684.2,292.4z" />
	<path fill="#2C241E" d="M665.3,265.2c2.3,1,6.4,0.3,7.5,2.8c-3.2,0.8-5.9-0.1-8.4-1.8C664.7,265.8,665,265.5,665.3,265.2z" />
	<path fill="#26211B" d="M670.9,265.3c-0.2-0.2-0.5-0.5-0.7-0.7c0.2-0.2,0.5-0.4,0.7-0.6c2,0.2,3.8,1.6,5.7,0.1   c1.2,0.6,0.2,1.4-0.6,1.7c0.2,0.1,0.4,0.2,0.5,0.3c0,0,0,0,0,0c-0.3,0.3-0.5,0.5-0.8,0.8C674.1,266.4,672.5,265.7,670.9,265.3z" />
	<path fill="#695346" d="M665.3,265.2c-0.3,0.3-0.6,0.6-0.9,0.9c-0.7-0.5-1.3-1.1-2.4-1.9c0.9-0.2,1.3-0.2,1.7-0.3   C664.3,264.4,664.8,264.8,665.3,265.2z" />
	<path fill="#554D41" d="M673.7,266.1c0.5,0.2,1,0.4,1.4,0.6C674.5,266.8,674,266.7,673.7,266.1z" />
	<path fill="#2B231E" d="M684.9,261.9c-0.5,1.1-1.8,0.2-2.3,0.9c-0.3,0.7,1.8,1,0.3,1.9c-2.1-0.5-4.2-1-6.2-1.6   c0.9-1.1,1.9-0.5,3.4-0.6c-0.4-0.8-0.7-1.3-1.3-1.4c-0.9-1.6-1.7-3.2-2.3-4.9c0.3-0.3,0.6-0.6,0.9-0.8   C679.3,258.2,680.5,262.4,684.9,261.9z" />
	<path fill="#806958" d="M678.7,261.1c0.6,0.2,0.9,0.6,1.3,1.4c-1.5,0.1-2.5-0.5-3.4,0.6c-0.4-0.1-0.9-0.2-1.3-0.2   c-0.3,1.3,0.8,0.9,1.3,1.1c-1.5,1-3,0.9-4.5,0c0.3-0.3,0.5-0.5,0.8-0.8c0.4-0.1,0.8-0.2,1.1-0.2c-0.4-0.5-0.8-0.8-1.1-1.2   C674.9,261.6,677.2,262.5,678.7,261.1z" />
	<path fill="#554D41" d="M676.6,266.1c-0.2-0.1-0.4-0.2-0.5-0.3c0.2-0.1,0.4-0.2,0.6-0.3C676.5,265.6,676.5,265.8,676.6,266.1z" />
	<path fill="#F0DABA" d="M676.4,256.2c0.3,0.7,0.5,1.4,0.8,2.1c-0.2,0.7-0.8,0.7-1.4,0.7c-2.8-3.9-5.6-8.2-7.1-12.8   c1.2,1.2,2.3,2.4,3.6,3.5l0,0C673.9,251.7,675,254.1,676.4,256.2z" />
	<path fill="#877764" d="M676.4,256.2c-1.4-2.1-2.5-4.5-4.1-6.5l0,0c-0.2-0.8-0.4-1.5-0.7-2.2c2.2-1.4,4.5,6.3,5.6,7.9   C677,255.7,676.7,255.9,676.4,256.2z" />
	<path fill="#302923" d="M673,261.8c0.3,0.4,0.7,0.8,1.1,1.2c-0.4,0.1-0.7,0.2-1.1,0.2c-0.9-0.3-1.6-1.2-2.9-1   c0.4,0.6,0.6,1.1,0.9,1.6c-0.2,0.2-0.5,0.4-0.7,0.6c-1.7-1.6-10.5-12.7-7.8-14.1C665.4,254.8,667.8,259.8,673,261.8z" />
	<path fill="#DBC4A7" d="M673,261.8c-2.9-1.4-5.5-3.3-7.1-6.3c0.1-0.2,0.2-0.4,0.5-0.7c3.1,0.2,3.5,3.5,5.9,4.8   c0.5-0.2,1-0.4,1.5-0.7c0.7,0.9,1.4,1,2.6,1.5c-0.2-0.7-0.3-1.1-0.5-1.4c0.6,0,1.2,0,1.4-0.7c0.5,0.9,1,1.9,1.5,2.8   C677.2,262.5,674.9,261.6,673,261.8z" />
	<path fill="#52473C" d="M662.3,250.5c-0.8,0.2-0.7,0.9-0.7,1.4c-0.3-0.2-0.5-0.5-0.8-0.7c-0.5-1.6-1-3.3-1.4-4.9   c0.3-0.3,0.5-0.5,0.8-0.8C660.9,247.2,661.6,248.8,662.3,250.5z" />
	<path fill="#695D4F" d="M675.8,259c0.1,0.4,0.2,0.7,0.5,1.4c-2.5-0.5-3.1-2.3-4-4.3c0.1-0.6-0.1-1.2,0.7-1.4   C673.9,256.2,674.7,257.7,675.8,259z" />
	<path fill="#9E8B75" d="M673,254.7c-0.8,0.2-0.7,0.8-0.7,1.4c-0.8-1.3-2.6-3.7-1.4-5C671.6,252.4,672.3,253.6,673,254.7z" />
	<path fill="#998972" d="M657.4,251.2c1.2,2.2,2.2,5.9,2.2,8.3c-1.3-1.3-2.2-3.1-2.9-6.3C657.8,252.8,657.2,251.8,657.4,251.2z" />
	<path fill="#6E6656" d="M689.3,259.6c-0.6,0.1-1.2,0.2-1.6-0.4C688.4,259,689,258.9,689.3,259.6z" />
	<path fill="#D1BC9D" d="M686.4,254.8c0.1,0.1,0.2,0.2,0.2,0.2C686.7,254.9,686.6,254.8,686.4,254.8L686.4,254.8z" />
	<path fill="#B9A489" d="M647.6,260.4c0.2-0.5,0.3-1,0.5-1.5C648.1,259.4,648.2,260,647.6,260.4z" />
	<path fill="#EFD9B9" d="M660.8,251.2c0.3,0.2,0.5,0.5,0.8,0.7c0.2,1.2-0.1,2.5-1.8,1.9c-0.3-0.8-0.6-1.8-1-2.9   C659.6,251,660.2,251.1,660.8,251.2z" />
	<path fill="#786B5A" d="M653.7,255.5c0.3-0.3,0.6-0.5,0.8-0.8c0.6,1.1,1.3,2.1,2,3.3c-0.3,0.4-0.5,0.6-0.8,0.9   C654.5,257.9,654,256.8,653.7,255.5z" />
	<path fill="#9C957C" d="M670.9,263.9c-0.3-0.5-0.5-0.9-0.9-1.6c1.3-0.2,2,0.7,2.9,1c-0.3,0.3-0.5,0.5-0.8,0.8   C671.7,264,671.3,264,670.9,263.9z" />
	<path fill="#DBC4A7" d="M675.8,259c-0.2-0.2-0.4-0.5-0.6-0.7C675.4,258.5,675.6,258.7,675.8,259z" />
	<path fill="#D9C2A2" d="M672.3,249.7c0.2,0.3,0.4,0.5,0.6,0.8C672.7,250.2,672.5,250,672.3,249.7z" />
	<path fill="#D7C0A0" d="M673.7,259c0.2,0.2,0.5,0.5,0.7,0.7C674.1,259.5,673.9,259.2,673.7,259z" />
</g>
</svg>