<?xml version="1.0" encoding="utf-8"?>
<!-- Generator: Adobe Illustrator 26.0.3, SVG Export Plug-In . SVG Version: 6.00 Build 0)  -->
<svg version="1.2" baseProfile="tiny" id="Layer_2_1_"
	 xmlns="http://www.w3.org/2000/svg" xmlns:xlink="http://www.w3.org/1999/xlink" x="0px" y="0px" viewBox="0 0 900 600"
	 overflow="visible" xml:space="preserve">
<g id="b_00000129913622761303839280000005500412473910385314_" display="none">
	<path display="inline" d="M740.5,257.5c-0.7-1.2-0.2-2.4,0-3.7c1-0.6,1.9-1.2,3.1-2c-2.4-2.2-4.3,2.3-7.5,2c0.1-0.7,0-1.6,0.2-1.7
		c2.5-1.1,2.9-3.6,3.6-5.9c0.9-1,2.8-0.8,3.2-2.4c1.2-0.8,2.4-1.6,3.2-3.2c-3.4,2-5.7,1.4-9.7,1.4c3.6-1.7,4.4-2.5,5.6-5.8
		c0.9-0.2,2-0.4,3.1-0.6c-1.2-6.7-0.7-15.2,8.6-11.4c0.2,0.4,0.3,1.1,1,0.4c-0.3-0.2-0.5-0.4-0.8-0.7c-0.5-3-5.1-0.3-5.9-3.5
		c1.5-1.8,4.2-1.7,6-2.5c1.1-1.5,2.1-2.9,3.3-4.6c0-0.7,0-2,0-3.4c1.6-0.6,3.2-1.1,4.9-1.7c4.6-8.9,7.8-1.8,13.6-3.5
		c0.1-3.2-4.9-4.6-2.8-6.9c5.5,0,11-2.8,15.5,1.7c0.5-0.3,1.1-0.6,1.8-0.9c-1.1-3.1-4.9-3.6-5.1-6.6c3.7-3,7.4-3,13,0.1
		c7.6-3.2,4.2,5.5,8.2,4c-1.3-2.3-2.7-4.1-3.4-6.8c1.8-0.5,2.7,0.3,3.9,1.4c6-0.6,10.8,1.5,14.9,6.1c2.6-0.2,5.3,0.5,7.9,1.7
		c0.5-0.5,0.9-0.8,1.3-1.2c-1.7-1-3.4-2-5.6-3.3c-1,0-3.1,0.7-3.6-2.1c5.1-1.7,13.4-2.9,13.9,4.5c3.3,1.9,7.1,0.9,10.6,2.3
		c1,0.9,2,1.8,3.9,1.3c-1.2-1-2-1.7-2.8-2.5c0.3-0.7,0.6-1.5,0.9-2.2c2.3-0.3,4.2-0.3,5.4,1.9c2.1,0.4,2.7,3,5.1,3.3
		c2.6,0.9,2.4,4.4,3.6,7c0.2-1.4,0.4-2.2,0.6-3.4c2.1,2.3,5.8,2,7,5.2c1.9,0.4,3.9-0.1,5,1.8c0.6-0.5,1-0.8,1.6-1.3
		c0.9,0.3,2,0.7,3,1.1c1.3,5,4.8,8.6,5.5,13.8c0.4,4.7,6.2,6.5,5,11.5c1,0.6,1.7,1.2,2.5,1.7c-0.4,1.9-0.7,3.7-1,5.4
		c5.1,3,1.4,5.3-2.8,4.9c0,0.2,0,0.4,0,0.6c0.7,0.1,1.3,0.1,2,0.2c1.7,4.2,5.7,6.9,3.2,11.8c2,3.6,2.3,8,1,12
		c0.9,3.2,1.7,6.6-0.7,9.9c2.1,3.3,0.1,9.7-4.6,7.8c-1,1.6-1.9,3.1-2.9,4.9c0.4,0.7,0.9,1.5,1.5,2.4c-1.2,2.6-2.6,5.1-5.5,6.5
		c-2.5-2.9-3.2-2.1-6.7,2.5c-1,0-2.1,0-3.5,0c0.4-1.2,0.8-2.2,1.2-3.5c-0.4-0.6-1-1.3-1.5-2c-3.8,0.1-1.9,5.9-6.3,5.8
		c-0.7-1.1-1.4-2.2-2.2-3.3c-4.8-0.7-6.4,5.8-11.5,2.7c0.7-0.9,1.1-1.6,1.6-2.3c-0.6-1.2-2.1-1.5-3.3-2.4c-1.4,1-2.3,1.8-3.5,3.2
		c-0.7-0.4-1.2-0.8-1.7-1.1c0.3-0.9,0.6-1.9,0.9-2.8c-0.1-0.2-0.1-0.4-0.2-0.6c-4.6,10.1-7,23.1-17.5,29.9c-0.3-0.3-0.7-0.6-1-0.9
		c1.6-1.8,3.2-3.6,4.8-5.5c-0.1-8.5-2.8-18.2-11.6-21c-1.5,1-2.3-0.4-3.4-0.8c-1.9-0.8-3.8-1.6-5.6-2.4c-0.3,0.5-0.6,0.9-0.8,1.2
		c-1.1-1-2.2-1.9-3.2-2.8c-3.7,0.9-5.1-2.8-7.5-4.4c-2-2.3-5.3-0.5-6.8-3.7l0.1,0.1c-0.8-2.8-0.1-5.1,0.9-7.7c2.6-2.5-2-2.8,1.3-6
		c-0.8,0-1.5,0-2.2,0c-0.3-0.3-0.6-0.6-0.9-0.9c0.5-0.6,1.1-1.1,1.7-1.8c-9.3-6.1-19.3,3.6-24.1,11.1l0,0c-1.8,0.5-1.5,2.5-2.3,3.8
		c1,1.3,3,0.9,3.3,2.6c-2.4,2-6.3,1.9-9.3,3.1c-0.6-0.3-1.2-0.6-1.8-0.9c1.9-0.8,3.9-1.6,5.9-2.4c-1.9-6.9,5.6-10.2,8.5-15.4
		c-1.2-1-2.3-1.9-3.6-3c-3.6,2.7-9.6,3.2-13.5,1.1c-0.5-4.8,4.4-4.4,8.1-5.6c-0.8-0.7-1.2-1.1-1.4-1.2c-5.9-0.4-9.5,8.4-14.3,3.3
		l0,0c0.1-1.5,0.2-3,0.4-5c-11.1-6.8-25.4-4.8-37.2-10.9c-0.3,16.1-3.5,32-9.4,46.9c4.4,0.1,8.2-0.5,12.4,1c2,0.3,4.6,1.4,6.3-0.2
		c6.1,1,12.3,2.6,17.1,6.7c-0.2,0.9-1,0.9-1.7,0.9c-11-4.1-23.4-6-35.2-5.7c-9,13.2-7.1,28.3-8.2,43.5c27.2,2.2,57.2,21.4,81.9,3
		c4.7,0.4,12.6-4.2,14.9,1.8c1.9,0.4,3.5,0.8,5.2,1c1.2,0.1,0.6,1.9,2,1.7c3.7,0.2,6.6,3.6,2.8,6.5c1.7,0.9,2.9,2.2,3.1,4
		c1.3,0.8,2.3,1.4,3.3,2c1.2,2.7-1.2,4-1.9,6.2c3.9,5.5,1.7,7.1-2.9,10.7c-1.3,16.7-17.1,12.2-29.2,14.4
		c-20.4,3.5-40.8,7.7-61.4,10.2c-72.6,3.1-61.3,10.7-66.7-60.4c-12.4,0.6-26.9-0.1-36.2-9.6c-36.1,3.3-72,0-108-3.3
		c-15.9,4.2-32.1,3.1-48.4,3.3c-59.2,14.1-121.6,10.9-179.3-8.1c-18.4,0.7-36.3-2.7-53.5-10.1c-21.7,2.6-44.9,0.2-66.6-3
		c-23.5-5.2-45.7-15-70.1-14.1c1.4,7-2.9,15.5-8.9,19.3c-0.1,9.2,0.2,17.6,3.6,26.5c9.9,6,13.1,25.2-1.5,26.7
		C62,400.8,32.9,368.8,22,354.7c-6-10.4-2.4-23-3.8-34.4C6.8,309,1.9,291.7,4.9,276c0.2-6.3-1.7-18.2,8.1-16.6
		c2.2-7.4,7.7-5.2,13.8-5c7.8,1.8,44.1-1.2,41.1,9.9c44.1,2.5,87.5-12.8,131.6-12.1c19-0.9,36.2,8,54.2,12
		c36,0.8,71.4-6.8,107.1-10.2c13.3-2.1,31.8,5.4,41-7.1c14.9-21.4,46.3-18.9,68.4-12.1c14.5,4.1,25.7,16.7,41.3,17.6
		c36.9,3.1,74.1-9.8,108.4-19.2c12.5-10.4,30.2-12.8,45.9-10.4c16-1.3,36.7-0.7,43.4,16.9c0.3,15.3,18.8,18.9,31.2,18.6
		c1.3,1.4,2.8,2.3,4.9,1.5c-0.2-0.5-0.4-1-0.6-1.5c1.8-0.8,2.8-0.8,4.8-0.2c-0.6-2.5-3.4-2-4.8-0.5c-0.3,0-0.5,0-0.8,0
		C742.7,258.6,741.6,258.1,740.5,257.5z M610.4,241.3c0.3-0.4,0.5-0.9,0.8-1.4c-1.1-0.4-1.9-0.3-2.6,0.4c-14,1-26.7,6.2-39.9,10.3
		c-17.4,5-35.9,3.8-53.8,5.1c-18.4,0.6-31-14.5-48.2-18.1c-13.6,29.7-16.1,65.4-7.2,96.8c16.5,2.2,32.6,0.1,49-1.4
		c32.9,3.6,66.2,6.6,99.1,2.5c11,5.8,24.6,12.2,37.2,8.9c0-4.6,0-8.9,0-13.3c0.5-0.4,0.9-0.8,1.4-1.2c0.5,10.2,2.1,20.2,3.6,30.4
		c1.4,16.3-1.2,33.5,8.6,47.6c46.6,1.4,91.8-8.3,137.7-14.7c1.1-1.9,2-3.3,2.8-4.7c1-0.1,1.6-0.7,1.6-1.6c-0.2-3.8,3.1-5.8,5.4-8.4
		c-2.4-2.8-3.1-6.4-0.1-9.2c-2.4-1.4-3.2-2.5-4.6-4.9c-3.3-0.7-12,2.1-11.7-3.2c0.8,0.1,1.4,0.1,2,0.2c0.2-0.4,0.5-0.7,0.7-1.1
		c1.2-0.2,1.7,1.3,2.6,1.6c2.6,0.1,6,0.5,6.3-2.7c-0.8-1.4-1.8-1.9-3.5-1.9c0.5,1.6,1.9,2.5,0.9,3.9c-0.8-0.3-1.6-0.7-2.5-1
		c-0.5-1.2-1-2.3-1.5-3.4c-2.8-1.1-2.8-1.2-4.9-0.5c-4.3,2.3-10.3,0.2-13.2,4.7c-20.1,28.4-57.6,16.5-86.7,14.3
		c-0.3,0.5-0.5,0.9-0.8,1.2c-0.9-21.4,3.5-44.9,3.4-66.8c0.8-3.7,0-8.1,3.7-10.8c2.9-6,4.5-12.5,7.6-18.5
		c9.6-16.9,8.5-43.7-13.8-48.7c0.3-0.2,0.6-0.5,1-0.7c2.7,0.8,4,1.3,7.2,1.9c-10.7-7.3-23.9-5.9-36.1-7.7
		c-18.9-2.3-35.3,7.1-50.6,17C611,241.9,610.7,241.6,610.4,241.3z M77.2,367.8L77.2,367.8c-1.1,0.8-0.8,2.2-1.2,3.3
		c1.4,0.4,2.4,0.3,3.3-0.6c11.4-17.6-4.7-11.2-5.3-22.1c-0.5-3.9-0.1-7.8-2.3-11.2C63.8,355.2,81.9,360.4,77.2,367.8z M702.8,295.2
		c-2.1,3.5-5.3,6.8-5.1,11.1c-1.3,1.6-2,3.4-1.3,6.3c1.5-2.4,1.6-3.8,2-6.4C699.4,302.3,702.7,299.3,702.8,295.2
		c0.2-0.1,0.8-0.1,0.3-0.6C703,294.8,702.9,295,702.8,295.2z M691.7,227.5c2.1,0.5,4.7,2.8,6.7,2.2c-5.4-3.5-12.2-5.1-18.9-5.3
		c4,2.1,7.6,2.5,11.3,2.3C691.1,227,691.4,227.3,691.7,227.5z M32.7,257.7c-4.3,1.2-14.5-3.1-16.1,1.5c10.3-1.8,21.1,1.5,30.8-0.6
		C42.5,257.5,37.8,257.6,32.7,257.7z M96,267.7c2.2-0.3,4.3-0.7,6.5-1c-4.7-0.5-9.6-1.4-13.7,1C91.3,267.7,93.7,267.7,96,267.7z
		 M424.6,236.9c2-0.7,4.3-0.3,6.1-1.5c10.5-0.1,21.1-0.8,31.3,2.6c0.9,0.2,1.6-0.3,1.5-1.6c-16.3-4.4-41.1-6.5-52.6,7.6
		C415.3,241.2,420,239.3,424.6,236.9z M310.1,265.3c16.8-0.5,33.3-4.6,50.1-5c9.8-1.5,21.5,0.9,30.2-3.9
		c-41.4-1.1-81.7,9.5-122.5,11.3c-19.6,1.1-36.8-8.6-56-10.8c-18.7-3.2-38.6-1.2-57,2.2C207.4,261.2,257.8,278.1,310.1,265.3z
		 M51.5,291c4.1,2.6,8.7,5.6,13.5,5.7c-4-9.4-2.1-18.5,2.2-27.2c-4.2-3.3-8.2-1.5-12.2-0.2C50.7,274.9,43,286,51.5,291z M825.4,284
		c-0.7-1.6-2.5,0-3.3-1.2c0.1-0.6,0.2-1.1,0.3-1.8c-6.4-1.2-12.7,1.5-18.8-0.6c0-0.9,0-1.9,0-2.9c-1.9-0.3-3.7-0.6-5.5-0.8
		c-0.9,2.8-1.7,5.5-2.6,8.3c14.7,9.8,30.9,16,43.2,29c2.2-8.5,8.6-16.8,6.1-25.3c-0.8,0.4-1.5,0.8-2.5,1.2c-1.2-1.6-2.4-3.1-3.7-4.8
		c-2.7,0.4-5.6,0.7-7.5-1.6C829,283.6,827.2,283.8,825.4,284z M701.9,372.9c24.8,4.5,57.5,9.8,72.8-14.8c2.6-4.3,7.7-2.4,11.8-3.5
		c-0.1-0.7-0.2-1.4-0.3-2c-8.9-0.3-15.1,2.7-21.5,7.6c-22.9,7.1-47.2-7.6-70.2-10C693.8,362.2,682.4,375.7,701.9,372.9z M67,290.9
		L67,290.9c0,2.5,1.2,4.6,2.3,6.8c32.3-3.2,61.8,11.3,93,16.3c17.6,3.1,35.3,3,53.1,3.2c8-1.1,14.1,4.4,21.6,5.5
		c11.3,1.2,22.4,3.1,33.7,5c0.6-0.7,1.1-1.3,1.7-2c59.4,19.4,123,24.7,183.6,8.4c-7.6-30.3-5.9-63.6,6-92.7
		c-38.1-14.5-50.2,14.4-81.3,20.2c-38,2.3-75.8,8.9-113.8,11.4c-35.4,3.7-69.3-10.7-104.8-10.4c-31.1-1.7-61.1,12.4-92.3,7.7
		C67.7,276.9,64.1,284.2,67,290.9z M14.8,262.6c-1.8-0.1-3.6-0.3-5.6,0.3c-0.5,1.8-1,3.6-1.5,5.1c0.5,0.8,0.9,1.4,1.3,1.9
		c-2.9,12.6-1.2,25.1,5.1,36.3c0.6,5.9,8.8,7.8,8.1,13.7c-1.8,12.2-3.1,27.7,7,36.6c9.1,10.1,28.5,31.1,42.6,19.4
		c-1.2-4.1,2.9-8.2,3.4-12.5c-6.9-6.9-10.7-14.5-6.9-24.3c-7.8-0.4-5-6.1,1.2-4.1c0.8-2,1.9-3.7,1.5-5.9c-2.9,1.4-10.4,0.7-7.1-3.7
		c2.3,0,4.6,0,7.2,0c-0.1-1.6-0.2-3.1-0.3-4.6c-3.4,0.8-10.1,3.1-10.7-2c3.5-2.3,7.9-2.6,11.6-0.9c5.2-2.3,7-8.3,9.6-12.9
		c-8.9-5.6-20.7-4.6-29.8-10.7c-17.2-9.7-1.2-27.6,10.9-33.1C46.8,261.6,30.5,259.4,14.8,262.6z M772.8,216.2c-2-2.3-4.2-1.3-6.6-1
		C767.8,216.8,767.8,216.8,772.8,216.2z M767.5,240.6c-1.1-0.1-1.9-0.3-2.9,0.3C765.7,242.6,766,242.5,767.5,240.6z M873.1,266.4
		c1.6,0.2,1.6,0.2,3.1-2.1C874.8,264.9,873.6,264.9,873.1,266.4z M873.6,254.8c0-0.7,0-1.4,0-2.2
		C872.1,253.3,872.1,253.3,873.6,254.8z M864.2,267.5c0-0.7,0-1.4,0-2.9C862.9,266,861.9,267.4,864.2,267.5z M80.8,372
		c-1.8,0.7-2.9,1-4.6,1.6C78.2,373.9,79.5,374.2,80.8,372z M875.5,213.2c-0.4,1.2-1.1,2.1,0.5,2.6
		C876.8,214.9,876.7,214.1,875.5,213.2z M771.5,269.9c1.4,1.4,1.4,1.4,2.7,0.7C773.5,269.5,772.7,269.1,771.5,269.9z M854.5,297.1
		c0.3,1.1,2,1.9,2.1,0.5C856.1,296.8,855.5,296.9,854.5,297.1z M754.6,231.5c-0.6-1-2.5-0.2-1.8,0.9
		C753.5,232.3,754.4,232.4,754.6,231.5z M881.7,300.2c0.2,0.1,0.4,0.2,0.5,0.3c0.9-0.9,1.8-2.8-0.4-2.6
		C881.8,298.6,881.8,299.4,881.7,300.2z M847.5,278c-0.7-0.4-1.2-0.9-1.6-0.2C846.3,278.9,846.6,278.7,847.5,278z M884.8,237.4
		c2.2,0,2.3-0.6,1.6-2.6C885.7,235.9,885.4,236.4,884.8,237.4z M804.8,246.7c0.9,1,1.7,0.1,1.2-0.7
		C805.7,246.2,805.3,246.4,804.8,246.7z M63.9,266.8c1-1,0.3-1.9-0.7-1.3C63.4,265.9,63.6,266.3,63.9,266.8z M833.9,200.6
		c0.6,0.7,1.2,1,1.8,0C835.1,199.9,834.5,200.2,833.9,200.6z M748.8,230.6c-0.1-0.1-0.2-0.2-0.2-0.3c-0.1,0.1-0.2,0.2-0.3,0.2
		c0.1,0.1,0.2,0.2,0.3,0.3C748.7,230.8,748.8,230.7,748.8,230.6z"/>
	<path display="inline" fill="#191110" d="M827.7,329.4c0.3,0.3,0.7,0.6,1,0.9c-8.4,7.2-21.2,11.2-32.2,8.6
		c-0.3,0.4-0.6,0.9-0.9,1.5c-7.6-9.9-17,18.5-24.4,2.6c-1.4-0.3-2.4,0.2-3.2,1.1c-3.3,3.9-8-0.1-12,1.5c-4.6-1.5-3.4-8-8.8-8.3
		c2-0.6,3.9-0.4,5.4,1c1.1-1,2.1-2,3.2-2.9c0.8,1.7-1.8,3.1-2.4,4.4c0.4,1.3,0.7,2.2,1,2.9c1.8,1.5,3.3,1.3,4.8-0.4
		c-0.9-2.6-1.3-10.3,2-11.2c1.3,1.3,0.2,2.4-0.2,3.5c-2,2.2,0.3,6.4,0.2,9.1c1.7,1.2,3.2,1.7,4.7,0c-0.8-1.7-1.6-3.2-2.4-4.9
		c1.3,1.3,2.6,2.6,3.8,3.9c1.7-1.4,3.8-1.9,5.6-0.4c2.1,7.7,9.7,1.1,12.5-2.6c4-5,9.6-3,14.9-2.4l-0.1-0.1
		C806.8,339.9,822.2,334,827.7,329.4z"/>
	<path display="inline" fill="#181515" d="M747.3,337.3c1.1,0.7,2.8,0.2,3.4,1.4c-23.6,4.3-6.9-18.9-12.7-29.1
		c0.7-0.1,1.4,0,1.7-0.9C746.3,316.3,730.8,337.6,747.3,337.3z"/>
	<path display="inline" fill="#869393" d="M740.5,257.5c1.1,0.6,2.3,1.1,3.5,0.2c0.3,0.1,0.5,0.2,0.8,0.2c0.1,0.1,0.1,0.3,0,0.5
		c0.2,0.5,0.4,1,0.6,1.5c-2.1,0.7-3.6-0.1-4.9-1.5C740.5,258.1,740.5,257.8,740.5,257.5z"/>
	<path display="inline" fill="#4B4A4A" d="M739.5,242.2c2.3-0.1,4.6,0,6.7-1.5c-0.7,1.6-2,2.3-3.2,3.2
		C742.6,242.5,740.6,243,739.5,242.2z"/>
	<path display="inline" fill="#9DA2A2" d="M803.9,191.7c0.9,1.5,1.8,3,2.6,4.5c-2,1.7-2.6-3.3-3.7-4.4
		C803.2,191.7,803.6,191.7,803.9,191.7z"/>
	<path display="inline" fill="#646B6B" d="M844.1,306.4c-0.4-1.9,0-4.9,2.3-5.3C846,303,845,304.7,844.1,306.4z"/>
	<path display="inline" fill="#9CABAB" d="M750,222.4c1.4,0.3,4.1-0.4,4.2,1.7l-0.2,0.2c-1.4-0.4-2.8-0.7-4.2-1.1
		C749.9,222.9,749.9,222.6,750,222.4z"/>
	<path display="inline" fill="#AEB3B3" d="M847.5,197.5c0.8,0.7,1.6,1.4,2.8,2.5c-2,0.5-2.9-0.4-3.9-1.3
		C846.8,198.3,847.2,197.9,847.5,197.5z"/>
	<path display="inline" fill="#727F7F" d="M890.9,249.1c-0.7-0.1-1.3-0.1-2-0.2c0-0.2,0-0.4,0-0.6c0.7,0,1.4-0.1,2.1-0.1
		C891.1,248.5,891,248.8,890.9,249.1z"/>
	<path display="inline" fill="#9CABAB" d="M749,221.7c0.3,0.2,0.7,0.5,1,0.7C749.6,222.1,749.3,221.9,749,221.7z"/>
	<path display="inline" fill="#EAA388" d="M265.3,326.9c-0.8-0.1-1.6-0.1-2.3-0.2c0.1-0.8,0.3-1.6,0.5-2.7
		c-8.7-4.5-18.7-3.3-27.7-7.1c5.7-1.3,16.3-4.4,18.4-8.5c-9.9-3.6-20.2,2-29.9,0.7c-15.1-3.3-30.7,4.3-46.2,0.6
		c-36.9-6-73.7-18.8-111-18.8l0,0c0-3,0-5.9,0-9c9.6,0.1,18.7-2.7,28.5-3.4c-8.9-3.1-17.4-2.2-26.4-3.4c-0.7-1.9,0.2-3,0.7-4.9
		c31.3,4.7,61.3-9.4,92.3-7.7c41.3,0.9,81.1,16.6,122.6,9.1c31.9-4.1,63.9-7.5,96-10.1c31-5.8,43.3-34.7,81.3-20.2
		c-11.5,24.4-10,51.4-10.4,77.2c-1-0.4-2.1-0.8-3.1-1.3c-45.8,18-95.5,4.6-142.6,1.6c-13.8-1.9-28.8,0-42.1-5.3
		c-1.8-1.3-4.7-2.6-5.9,0.3c1.3,2.6,1.5,2.5,0,4.5c0.8,1.8,2.6,1.8,4.2,2.4l-0.1-0.1c1.5,3.9,6,3.2,8.6,5.8
		C268.5,326.8,266.9,326.8,265.3,326.9z M200.4,286.8c-0.3-1.7-2.2-0.8-3.3-1.1c-3.3-9.1-24.9,1.9-32.3-0.8c-1,0.4-3.6,0.2-2.8,1.8
		C173.9,292.3,188.4,290.1,200.4,286.8z M450.2,269.1c-9.3-10-26.3-10.5-35.7-0.8c-1.9,12.5,22.5,4.8,30.8,8.9
		c1.8-1.7,3.5-3.2,5-4.7C450.4,271,450.4,270.5,450.2,269.1z M154.9,285.8c0,0.3-0.1,0.6-0.1,0.9c0.6,0,1.2-0.1,1.7-0.1
		c0-0.2,0-0.4,0-0.5C156,285.9,155.4,285.8,154.9,285.8z"/>
	<path display="inline" fill="#F5DDCE" d="M611.4,242.3c23.2-18.2,52.3-20.7,80.1-12.8c-0.3,0.3-0.5,0.5-0.8,0.8
		c-11.4,1-23.2-4.3-34,0.1c-32.6,8-37.9,52.3-17.1,74.9c-3.1,8.6-15.5,12.2-24,10.9c1.4-5.3,2.7-10.4,4.1-16.1
		c-10.3,9.3-21.4,14.8-35.6,11.6c-7-1-14.4,3.1-21.3,2.2c-6.7-0.7-13.1-1.6-19.8-1.2c-3.1,0.8-6.1-0.2-9.1-0.6
		c-7.3-1.9-14.3,1.7-21.5-0.9c1.1-2.1,3.6-3,3.4-5.7c-6.8-0.8-12.8,3-18.4,6.5c-13.3,5.1-27.8,2.8-41.7,2.1
		c-3-25.8-0.2-52.8,11-76.4c17.3,3.5,29.9,18.7,48.2,18.1c17.9-1.3,36.4-0.1,53.8-5.1c13.2-4.1,25.9-9.3,39.9-10.3
		c0.4,0.3,0.7,0.7,1.1,1c-0.2,0.5-0.5,0.9-0.7,1.4C610,243.5,610.8,243.2,611.4,242.3z M508.6,259.2c-2.5-0.3-6.6-4.5-8.3-1.7
		c0.6,1.2,1.7,1.7,2.9,1.8c1.6,1.4,4.1,0.6,6,0.5C509,259.6,508.8,259.4,508.6,259.2z M597.6,253.3c1.4-1.2-0.2-2.2-0.8-3.6
		c-4.3,1.4-7.7,4.1-12,5.2c-1.1,0.3-2.2,0.5-2.5,2.1c0.3,0.4,0.8,0.9,1.1,1.2c1.9-0.3,3.5-0.6,5.2-0.8
		C591.3,254.1,594.7,255.7,597.6,253.3z M600.5,251c0.2,0.2,0.4,0.4,0.6,0.6c1.1-0.9,2.9-0.8,2.2-2.7
		C602.2,249.7,601.3,250.3,600.5,251z M536,259c-1.2-0.7-2.1-0.9-2.7,0.7C534.4,260.4,535.2,260.4,536,259z M516,260.3
		c-1-0.6-1.7-0.4-2.8-0.1C514.3,261.7,514.3,261.7,516,260.3z M527.5,260.8c0.2,0,0.3,0,0.5,0c0-0.4,0-0.8,0-1.3c-0.1,0-0.3,0-0.4,0
		C527.5,260,527.5,260.4,527.5,260.8z M521.5,260.5c0.5,0.4,0.9,0.5,1.4,0.2C522.4,260.2,522.1,260,521.5,260.5z M543.4,259.6
		c-0.1-0.1-0.2-0.2-0.3-0.3c-0.2,0.3-0.4,0.5,0,0.8C543.2,259.9,543.3,259.8,543.4,259.6z"/>
	<path display="inline" fill="#B28C7D" d="M793.7,361c-0.4-0.5-0.8-0.7-1.5-0.7c-0.2,0.3-0.4,0.7-0.7,1.1c-0.6,0-1.3-0.1-2-0.2
		c-0.3,5.3,8.4,2.5,11.7,3.2c1.4,2.4,2.2,3.5,4.6,4.9c-2.6,2.4-2.4,5.1-1,7.8c-3.9,2.8-11.5-1.8-12.6,5.2c2.1-0.3,4.9,0.9,6.4-0.9
		c0,0,0,0,0,0c1.1,0.4,2.6-0.6,3.4,0.8c-2.3,1.6-0.4,5.6-3.2,6.2c-12-1.7-23,3.4-34.7,4.1c-18.3,1.2-35.5,10.3-54.1,9.6
		c-5.6,1.2-14.7,2.1-20.2,1.8c1.2-1.5,2.3-2.7,3.6-4.3c-7.6,1.1-15.1,4.7-22.8,4.9c-3.2-3.6-6.3-7.1-9.6-10.8
		c-1.8-16.7-6-33.4-5-50.3c5.5,3,8.2,0.3,5.9-5.3c-3.3-7.9-1.8-17.3-4.2-25.7c2.5-8,3.5-16.1,5.2-24.6c1.5,1.1,1.4,3.3,3.2,4
		c0.6,3.8,5.6,4.8,8.5,6.4c1-1.9-0.6-4,0.7-6.2c1.3-3.7-1.8-7.4-2.9-10.8c-4.6-8.2-6.4-17.5-6.4-26.8c-2-1.6-3.5-3.8-6.1-4.5
		c-1.4,1.5-2.8,2.3-4.7,3.1c2.5,5.2-4.2,7.1-5.2,11.5c-1.8,8-10.1,11.7-15.6,16.8c-0.7-0.3-1.1-0.5-1.5-0.7
		c-4.7-23.2,11.8-51.5,37.7-48.5c0,0.2-0.1,0.5-0.1,0.7c-3.7-0.7-6,1.1-8.5,3.8c3.2-0.4,5.5-0.8,7-2.8c1,0.1,1.7,0.6,2.4-0.2
		c21.3-6.9,40.9,4,38.2,28.5c-1.9,17-14.2,31.2-17,47.4c-0.3,23.5-3.8,47.5-4.3,70.6c1.8-1.6,0.2-3.5,1.7-5.1
		c99.9,16.3,66-19.2,104.9-18.5c0.5,1.1,1,2.2,1.5,3.4C795.7,361.4,794.6,361,793.7,361z M647.1,261c0,0.9,0,1.8,1.4,1.3
		c0-0.8-0.6-1.1-1.2-1.5c0.3-1.7-0.7-3.3-2.6-3.2C644.8,259.7,645.9,260.4,647.1,261z M658.3,240.4c0.5-0.4,1-0.8,1.6-1.4
		c-2.7-0.5-2.7-0.5-3.4,1.3c-2.5,0.8-2.9,1.3-2.9,4.5C655,242.8,656.5,241.4,658.3,240.4z M771.2,370.4c-1.8,1.1-4.1,1.5-4.7,4.4
		c3.7-0.8,6.8-3.2,7.3-6.8C771.9,367.9,771.8,369.5,771.2,370.4z M794.7,371.4c2.6,2.3,7.1,2.4,6.1-0.8
		C798.8,371.1,796.9,371.3,794.7,371.4z M786.1,373.5c1.1-0.5,3.1-0.5,2.7-2.2C787.6,371.5,786.5,371.8,786.1,373.5z M789,381.5
		c-0.2,0.5-0.4,0.9-0.5,1.2C789.8,383.4,790.4,382.3,789,381.5z M688.4,383.2c-0.7-0.4-1.2-0.9-1.6-0.2
		C687.2,384.1,687.5,383.9,688.4,383.2z M775.2,366.7c1-1,0.9-1.6-0.4-0.7C774.9,366.2,775.1,366.4,775.2,366.7z M793.1,372
		c0-0.2,0-0.4,0-0.6c-0.6,0-1.1,0.1-1.7,0.1c0,0.2,0,0.4,0,0.6C792,372.1,792.6,372,793.1,372z M784.4,381.8c0,0.1,0,0.2,0,0.3
		c0.4-0.1,1.1,0.2,1-0.3C785.1,381.8,784.8,381.8,784.4,381.8z"/>
	<path display="inline" fill="#E6CCBB" d="M455.6,314c13.9,0.7,28.4,3,41.7-2.1c5.6-3.5,11.6-7.2,18.4-6.4c0.2,2.7-2.3,3.6-3.4,5.7
		c7.2,2.6,14.2-0.9,21.5,0.9c11.5,0.9,23.2,1.6,34.8,1.6c12.3-3.4,25.1-0.1,37.5-3c4.8-2.9,8.2-7.5,13.6-10.5
		c-1.5,5.7-2.8,10.8-4.1,16.1c8.5,1.3,21-2.3,24-10.9c2,2.1,3.9,4.1,5.9,6.2c-0.3,11.1-1.1,21.8-0.7,33c-12.6,3.3-26.2-3.1-37.2-8.9
		c-32.9,4.2-66.2,1.2-99.1-2.5c-16.4,1.4-32.5,3.6-49,1.4C456.9,327.7,455.3,321,455.6,314z M555.2,334.2c-3.3-0.8-7.5-3.9-10.2-2.7
		C548,334,552,337.4,555.2,334.2z M536.6,324.6c1.7,3,2,3.2,4.2,2.5C540,325.6,538.8,324.9,536.6,324.6z M609.8,331.1
		c-0.2,2,0,2.2,2.3,2.2C611.4,331.7,611.4,331.7,609.8,331.1z M613.5,329.2c-0.1-2.2-0.2-2.2-1.8-2
		C611.9,328.3,612.4,328.6,613.5,329.2z M535.4,323.5c-0.2,0.2-0.4,0.3-0.6,0.5c0.3,0.5,0.6,0.2,1,0
		C535.6,323.8,535.5,323.7,535.4,323.5z M525.1,318.5c-0.2,0.2-0.1,0.4,0.1,0.5c0.1-0.2,0.1-0.4,0.2-0.5
		C525.3,318.5,525.2,318.5,525.1,318.5z"/>
	<path display="inline" fill="#F7EFD0" d="M14.8,262.6c15.7-3.3,32.1-1.1,47.8-1.2c-12.1,5.5-28,23.4-10.9,33.1
		c9.2,6.1,21,5.1,29.8,10.7c-2.6,4.6-4.4,10.6-9.6,12.9c-3.8-1.6-8.1-1.4-11.6,0.9c0.6,5.1,7.3,2.8,10.7,2c0.1,1.5,0.2,3,0.3,4.6
		c-2.6,0-4.9,0-7.2,0c-3.3,4.4,4.2,5,7.1,3.7c0.4,2.1-0.7,3.8-1.5,5.9c-6.2-2.1-9,3.7-1.2,4.1c-3.8,9.8,0,17.4,6.9,24.3
		c-0.5,4.3-4.6,8.4-3.4,12.5c-0.7,0.4-1.4,0.9-2.1,1.3c-30.3-13-48.2-26.6-39.8-61.9c-2.1-7.6-9.2-11-13.3-17.2
		C10.3,287.1,16.1,274.7,14.8,262.6z M65.4,347c0-1.9-2.7-3.3-3.4-1.2C61.7,347.6,64.4,349.2,65.4,347z"/>
	<path display="inline" fill="#B28C7D" d="M747.3,337.3c-2.1-0.3-4.9,0.5-6.1-1.8c1.3-14.5,10.4-25.9,17.1-37.9l0,0
		c1-0.2,1.6-0.8,1.7-1.8c3-3,8.3-2.1,11.2-4.6c-0.3-1.8-2.3-1.3-3.3-2.6c0.1-0.3,0.3-0.8,0.5-1.2c1.4-0.3,2-1.2,1.7-2.6l0,0
		c0.5-0.1,1.1-0.2,1.7-0.4c0.4,1.8,1.8,2.3,3.5,2.2c0.4,6,4.7,2.3,7.3,0.1c5.2,2.7,8.5-1.3,10.8-5.3c0.3,0.3,0.6,0.6,0.9,0.9
		c-1,2.6-1.6,5-0.9,7.7c-0.4-0.3-0.9-0.5-1.3-0.8c-1.2,1.4,0.5,2.1,1.3,0.7c1.5,3.2,4.8,1.3,6.8,3.7c2.5,1.6,3.9,5.3,7.5,4.4
		c1.1,0.9,2.1,1.8,3.2,2.8c0.2-0.3,0.4-0.7,0.8-1.2c1.8,0.8,3.7,1.6,5.6,2.4c1.1,0.4,2,1.9,3.4,0.8c8.8,2.9,11.5,12.6,11.6,21
		c-6.4,9.2-21.7,15.7-32.2,13.2c0.2-0.3,0.4-0.6,0.6-0.9c-1-1.5-3.3-2-3-4.5c5.9-1.3,1.9-7.6-1.8-9.5c1.1,2.2,2.7,4.1,4,6.2l0,0
		c-0.3,0.3-0.6,0.6-0.9,0.8c-0.7,0.1-1.4,0.1-1.9,0.1c-2.7-3.5-2-7.6-4-11.4c-1.2,3.3-3.4,5.5-3.4,8.9c-1.2,0.3-1.8,1.2-1.7,2.4
		c-1.6-0.5-1.3-2.3-2.1-3.3c-3.2,1.4,0.7,4.9,3,4.2c1.7,1.5,3.8,1.4,5.9,1.3c0.9,2.8,3.7,3.6,5.3,5.5c-17.1-5.7-16.5,12.2-25.8,7.7
		c1.7-2.1,0.7-4.1-0.8-6.2c-0.5-0.9-2.2-1-1.8-2.5c1.1-2.7,3.2-0.9,5.4-0.9c-4.6-4.6-9.6,0.9-5.1,5.2c-2-0.5-3.3,1.2-4.9,2.1
		c-1.3-1.3-2.6-2.6-3.8-3.9l0.1,0.1c-0.3-0.3-0.6-0.6-0.9-0.9l0.1,0.1c-0.1-1.4,0.5-3.6-1.8-3.5l0,0c0.4-1.1,1.5-2.1,0.2-3.5
		c-2.1,0.3-1.7,2.1-2.1,3.4c-2.9-0.6-4.3,2.1-6.4,3.8C751.2,336.9,749.3,336.7,747.3,337.3z M806.2,324.5c-0.4,4.2-3.7,7.3-0.6,10.9
		c6.2-7,2.5-17.2-4-18.6C803.2,319.4,804.7,321.9,806.2,324.5z"/>
	<path display="inline" fill="#D69479" d="M257.9,318.5c1.7-2.1,1.1-2,0-4.5c1.2-2.9,4.2-1.6,5.9-0.3c13.3,5.4,28.2,3.4,42.1,5.3
		c47,3.1,96.7,16.4,142.6-1.6c1.1,0.4,2.1,0.9,3.1,1.3c0.8-0.9,0.4-2.1,0.6-3.2c1.2,6.2,1.7,12.6,3.8,18.7
		c-60.6,16.4-124.2,11-183.6-8.4c-0.6,0.7-1.1,1.3-1.7,2c-1.8-0.3-3.6-0.6-5.4-0.9c1.6-0.1,3.2-0.2,5.4-0.3
		c-1.4-2.1-2.9-0.9-4.3-2.3c0.8,0,1.6-0.1,2.8-0.2c-2-2.6-4.3-3.6-7.1-3.4l0.1,0.1C262.7,318.6,259.6,317.8,257.9,318.5z"/>
	<path display="inline" fill="#977264" d="M666,291.8c-1.8-0.6-1.7-2.9-3.2-4c-1.6,8.5-2.6,16.6-5.2,24.6c2.4,8.4,0.9,17.7,4.2,25.7
		c2.3,5.6-0.4,8.3-5.9,5.3c-1,17,3.2,33.6,5,50.3c3.3,3.7,6.4,7.2,9.6,10.8c7.7-0.2,15.2-3.8,22.8-4.9c-1.3,1.6-2.4,2.8-3.6,4.3
		c36.6,0.5,72.3-15.4,109-15.5c-0.9,1.4-1.7,2.9-2.8,4.7c-45.8,6.4-91.1,16.1-137.7,14.7c-12.9-22.6-6.7-51.7-11.9-76.7
		c1.2,1.2,2.4,2.6,5,2.4c-3.3-2.4-0.7-8.2-5.2-8.1c0.6-22.3,16.5-44.8,9.6-67.4c-0.2,3.7,0.6,7.1-0.5,10.5c-1.5-0.9-2.5-2.3-4.3-2.3
		c0.3,2.8,2.8,3.9,4.1,6.2c-1.5,11.1-4.8,21.9-8.3,33c-7.3-6.6-12.7-15-14.1-24.7c0.4,0.2,0.8,0.3,1.5,0.7
		c5.5-5.1,13.8-8.8,15.6-16.8c1-4.3,7.7-6.3,5.2-11.5c1.9-0.8,3.3-1.6,4.7-3.1c2.6,0.7,4.1,2.9,6.1,4.5c-0.4,11.8,4,22.6,9.1,33
		c1.8,3.4-1.4,6.5,0,9.9c0.1,0.2-0.3,0.5-0.5,0.9C671.6,296.6,666.5,295.6,666,291.8c1.5,0,2.1-0.6,1.5-2.1
		C666.1,289.8,666,290.8,666,291.8z M662.6,282.3c-0.2,1.1-0.5,2.2,0.4,3.2c1.2-0.8,1.7-1.8,0.7-3.1
		C663.4,282.4,663,282.4,662.6,282.3c0.2-2.1,1.8-4.3,0-6.9C660.5,276.6,660.2,281.3,662.6,282.3z M661.3,401.5
		c2.5,2.5,3.5,2.9,5.5,2.5C665.4,402,663.3,402,661.3,401.5z M653.5,336.9c0.4-1.6,0.4-1.6-0.8-2.2
		C652.3,336.3,652.3,336.3,653.5,336.9z M655.1,337.6c-0.5,0.5,0.2,1.2,0.3,1.8c0.3-0.1,0.7-0.3,1-0.4
		C656,338.4,656.1,337.4,655.1,337.6z"/>
	<path display="inline" fill="#B28C7D" d="M706.1,295.8c4.1-13.5,6.9-27.4,7.1-41.5c9.8,5.2,20.9,4.1,30.7,8.3
		c1.6,2.7,3.4,6,6.1,7.5c0,0,0,0,0,0c1.7,6.8,11.5,7.6,16.9,11c-1,2.4-2,4.7-2.8,6.6C745.7,294.6,725.1,296.9,706.1,295.8z
		 M722.1,289.5c1.4-3.6,4-6.3,2-9.6c-1,3-2.9,5-3.2,7.8C721.2,288,721.5,288.5,722.1,289.5z M725.9,275.9c0-1.2,0-2.2,0-3.3
		c-0.1,0-0.3-0.1-0.4-0.1c-0.4,0.9-0.7,1.9-1.1,2.9C725,275.6,725.3,275.7,725.9,275.9z"/>
	<path display="inline" fill="#D69479" d="M66.9,290.9c37.3-0.1,74.1,12.8,111,18.8c15.6,3.6,31.1-3.9,46.2-0.6
		c9.8,1.3,20-4.3,29.9-0.7c-2.1,4.1-12.7,7.2-18.4,8.5c9,3.8,19,2.6,27.7,7.1c-0.2,1.1-0.3,1.9-0.5,2.7c-8.6-2.2-17.3-2.7-26-3.9
		c-7.5-1.2-13.6-6.6-21.6-5.5c-17.8-0.2-35.5,0-53.1-3.2c-31.2-5.1-60.7-19.6-93-16.3C68.1,295.5,67,293.4,66.9,290.9z M227.9,316.3
		c-1.9-2.6-3.8-1.2-6,0C224.1,318.2,225.8,317.1,227.9,316.3z M231.4,314.4c0,0.3,0.1,0.6,0.1,1c0.7,0,1.5,0,2.9,0
		C233,314,232.9,313.8,231.4,314.4z M240.4,314.8c0-0.3-0.1-0.6-0.1-0.8c-0.7,0.1-1.3,0.2-2,0.3c0,0.2,0,0.4,0,0.6
		C239.1,314.8,239.8,314.8,240.4,314.8z"/>
	<path display="inline" fill="#B28C7D" d="M691.5,372.2c-2.3-6.9,2.4-14.6,3.1-22.1c23,2.5,47.2,17.2,70.2,10
		c6.4-4.9,12.7-7.9,21.5-7.6c0.1,0.6,0.2,1.3,0.3,2c-4.1,1.1-9.2-0.7-11.8,3.5c-3.9,5.1-8.7,9.3-13.1,14c-1.8,0-3.5-1.2-3.7-3
		c-7,1-13.8-0.2-20.4,1.5c-1.4,0.9-3.1-1.3-4,0.6C719.2,370.6,705.4,372.4,691.5,372.2z M761.2,364.4c-0.9,1.4-1,2.2,0.2,3.5
		C762.6,366.6,762.8,365.5,761.2,364.4z"/>
	<path display="inline" fill="#EBDDB8" d="M14.8,262.6c1.3,12.1-4.5,24.5,1.9,35.6c4.1,6.2,11.2,9.5,13.3,17.2
		c-8.5,35.3,9.5,49,39.8,61.9c-12.9,9-32.5-11.6-40.5-20.7c-10.1-8.9-8.8-24.4-7-36.6c0.8-5.9-7.4-7.8-8.1-13.7
		c-6.3-11.2-8-23.7-5.1-36.3c-0.4-0.5-0.8-1.1-1.3-1.9c0.5-1.6,1-3.3,1.5-5.1C11.1,262.3,13,262.5,14.8,262.6z"/>
	<path display="inline" fill="#977264" d="M706.1,295.8c19,1.1,39.6-1.2,58.1-8c0.8-1.9,1.7-4.2,2.8-6.6c-5.5-3.4-15.3-4.2-16.9-11
		c1.7,1.7,3.5,2.6,5.7,0.8c2.3,5.8,11,4.6,15.3,1.6c1.3,1.1,2.4,2,3.6,3c-2.9,5.3-10.4,8.5-8.5,15.4c-7.1,1.7-13.1,7.1-14.2,14.1
		c3-1.7,3.1-5.9,6.3-7.6c-6.7,12-15.8,23.4-17.1,37.9c-6.6-14.7,11.2-26.8-13.7-32.6c2.7,0.2,5.2-0.4,7.4-2.4
		c-4.5,1-10-0.7-13.8,2.3c-6-0.6-11.2-2.4-17.4-1.7C704.2,299,704.9,297.4,706.1,295.8z M728,297.3c2.2,2.1,4.5,0.6,7,0.3
		C732.6,295.1,730.3,297.1,728,297.3z M742.1,297.7c0.9-0.4,1.1-0.5,1.5-1.2c-1.8-1.6-1.8-1.6-3.9,0.1
		C740.5,297,741.2,297.3,742.1,297.7z M750.4,295.8c0-0.2,0-0.3,0-0.5c-0.7,0-1.3,0-2,0c0,0.2,0,0.3,0,0.5
		C749,295.8,749.7,295.8,750.4,295.8z"/>
	<path display="inline" fill="#E9A287" d="M280.9,267c2.3-0.2,4.8-0.6,6.8,0.7c-2,0.7-4.3-0.9-6,0.8c-40.6,8.1-79.8-9-120.6-9.4
		c0.6-0.5,1.1-1,1.7-1.4C210.9,247,239.4,271.5,280.9,267z"/>
	<path display="inline" fill="#9592A1" d="M825.4,284c1.8-0.2,3.6-0.3,5.7-0.5c1.9,2.3,4.8,2,7.5,1.6c1.3,1.7,2.5,3.2,3.7,4.8
		c1-0.5,1.7-0.8,2.5-1.2c2.5,8.6-3.9,16.8-6.1,25.3c-6.9-6.4-14-12.2-22.1-17.1c1.6-4.1,3.3-8.2,5-12.5
		C822.9,284.2,824.1,284.1,825.4,284z"/>
	<path display="inline" fill="#908993" d="M825.4,284c-1.2,0.1-2.4,0.2-3.7,0.4c-1.7,4.3-3.4,8.4-5,12.5c-7.3-3.4-14.5-7-21.2-11.9
		c0.9-2.8,1.7-5.5,2.6-8.3c1.8,0.3,3.6,0.5,5.5,0.8c0,1.1,0,2,0,2.9c6.1,2,12.4-0.7,18.8,0.6c-0.1,0.7-0.2,1.3-0.3,1.8
		C822.9,284,824.7,282.4,825.4,284z"/>
	<path display="inline" fill="#977164" d="M701.9,372.9c10.2-3,22.5-1.9,32.9-1c0.2-0.5,0.3-1,0.5-1.5c1.4,0.9,2.7-0.2,4.3,0
		c-0.2,0.5-0.3,1-0.5,1.5c1.3,0.2,2.4,0.7,3-1.1c-0.6-0.2-1.2-0.4-1.7-0.5c1.3-1.2,2.9-0.5,4.4-0.7c-0.2,0.5-0.4,0.9-0.7,1.5
		c2,0.1,2,0.1,2.3-1.4c1.8,0,3.5,0,5.3-0.1c-0.9,1.6-4.1-0.2-4,1.8c3.6-0.1,7.3,0.5,10.7-1.1c0.7,1.3,2,1.6,3.3,1.8
		C742.8,378.5,721.3,377,701.9,372.9z"/>
	<path display="inline" fill="#B18B7C" d="M51.5,291c-8.5-5-0.8-16,3.5-21.7c4-1.3,8-3.1,12.2,0.2c-2,4.5-3.6,9-4.5,13.7
		c-1.9-0.3-4.8,0.9-6-0.9c0.1-0.8,0.2-1.6,0.3-2.5c1.3-0.5,2.5-0.9,3.9-1.4c-2.1-1.5-2.1-1.5-5.8-0.7c-0.3,0.9-0.7,2-1.1,3
		c-1.6,1.1-0.2,2.8-0.9,4.2c-1.9,1.5,0.2,3.2-0.1,5C52.5,290.2,52,290.6,51.5,291z"/>
	<path display="inline" fill="#E39F85" d="M306.6,264.5c27.9-4.4,55.3-8.9,83.8-8c-15.9,6.4-35.3,1.8-52.2,6
		C327.9,263.1,316.6,266.8,306.6,264.5z"/>
	<path display="inline" fill="#F1EACB" d="M79.8,370.2c-0.4,0.8-1.7-0.2-2.3-0.2c-0.1-0.9-0.2-1.5-0.3-2.2l0,0
		c1.4-0.5,0.9-1.6,0.9-2.6c1-4.4-4.6-5.3-5.7-9.3c-2.7-6.3-3.7-11.9-0.8-18.6c2.2,3.4,1.8,7.4,2.3,11.2c0.5,10.5,14.7,4.4,7,19.5
		C79.5,368.2,79.8,369.3,79.8,370.2z"/>
	<path display="inline" fill="#D69479" d="M68.7,273.7c0.1,0.4,0.2,0.8,0.3,1.5c9,1.1,17.6,0.3,26.4,3.4c-9.8,0.7-18.9,3.5-28.5,3.4
		c0,3.1,0,6,0,9C64.6,285.5,66.6,279,68.7,273.7z"/>
	<path display="inline" fill="#967163" d="M56.7,282.3c1.2,1.8,4.1,0.6,6,0.9c-0.2,4.6,0.7,8.9,2.3,13.5c-4.9-0.1-9.5-3.1-13.5-5.7
		c0.5-0.4,1.1-0.8,1.6-1.1c0.2-1.7-1.8-3.4,0.1-5c0.2,0.9,0.2,2,1.4,2.1c0.7-0.9,0.2-2.6,0.4-3.8C55.6,282.9,56.1,282.6,56.7,282.3z
		"/>
	<path display="inline" fill="#16100E" d="M793.5,281.5c-2.3,4-5.6,7.9-10.8,5.3c-5,4.4-6.5,4.5-8.2-2.3c0.3-3.2,4.4-3.2,4.5-6.4
		l0,0c1.1-2.2,3.6-2.6,5.7-1.7c0.3,1.5,2.6,4.2-0.2,4.7c-1-7.2-5.7,1.1-8,2.9c0.3,1.3,0.7,2.5,1.1,4.1c0.8-1,1.4-1.7,2.1-2.4
		c0.4-0.1,0.8-0.2,1.2-0.3c-0.1-0.2-0.2-0.3-0.3-0.5c-0.3,0.3-0.6,0.5-0.9,0.8c-0.5-0.1-0.9-0.2-1.6-0.4c0.8-1,1.5-1.8,2.5-2.1
		c2.2,1.2,4.2,2.3,6,3.3c3.5-2.6,7-5.9,6.9-10.3c0.7,0,1.4,0,2.2,0c-0.5,1.1-1.6,1.6-1.3,2.7C794.1,279.9,793.8,280.7,793.5,281.5z"
		/>
	<path display="inline" fill="#C08972" d="M429.9,234.6c10.8-0.4,22.7-1.7,33.6,1.8c0.1,1.3-0.5,1.8-1.5,1.6
		c-10.2-3.4-20.7-2.8-31.3-2.6C430.5,235.1,430.2,234.8,429.9,234.6z"/>
	<path display="inline" fill="#A38375" d="M784.7,276.5c-2.1-1-4.6-0.6-5.7,1.7l0,0c-1,0.3-2.2,1.3-2.7-0.1c0,0,0,0,0,0
		c1.5-2.3,3.8-3.6,6-5.1c3.7,0.6,8.2,1.2,11.2,3.4c0,0.8,0,1.7-0.1,2.5c-3,0.4-4.7-1.7-6.7-3.5c-0.3,0.4-0.6,0.7-0.8,1
		C785.5,276.4,785.1,276.4,784.7,276.5z"/>
	<path display="inline" fill="#967062" d="M798.6,381.5c-1.5,1.8-4.3,0.5-6.4,0.9c1.1-7,8.7-2.4,12.6-5.2c0.3,0.4,0.6,0.8,1.1,1.4
		c-1.3,1.4-2.6,2.6-3.8,3.8C801.1,380.9,799.7,381.9,798.6,381.5c-1.9-1.2-1.9-1.2-5,0C795.6,381.5,797.1,381.5,798.6,381.5z"/>
	<path display="inline" fill="#2B211D" d="M646.2,320c0,1.8,0,3.7,0,5.5c4.5-0.1,1.8,5.7,5.2,8.1c-2.6,0.3-3.7-1.1-5-2.4
		c-0.1-0.5-0.2-1-0.3-1.3c-0.5,0.4-0.9,0.8-1.4,1.2c0-3.7-0.4-7.5,0.7-11.2C645.6,319.9,646,320,646.2,320z"/>
	<path display="inline" fill="#BE8A73" d="M306.6,264.5c1,0.8,2.2,0.9,3.5,0.9c-8.8,1.2-18.2,3-26.9,1.5
		C290.7,264.9,298.9,265.4,306.6,264.5z"/>
	<path display="inline" fill="#907062" d="M776.3,278c0.5,1.4,1.7,0.4,2.7,0.1c-0.2,3.6-6.7,4.2-3.6,8.5c-1.7,0.1-3.1-0.4-3.5-2.2
		c-0.6,0.1-1.2,0.2-1.7,0.4C771.5,281.9,774,280,776.3,278z"/>
	<path display="inline" fill="#231916" d="M758.3,297.6c-3.3,1.6-3.3,5.8-6.3,7.6c0.9-3.7,3.7-10.3,8.2-11.6
		c0.6,0.3,1.2,0.6,1.8,0.9C760.9,295.7,758.5,295.7,758.3,297.6L758.3,297.6z"/>
	<path display="inline" fill="#8E7063" d="M750,270.3c-2.8-1.5-4.5-4.8-6.1-7.5c2.3,0.5,5,0.7,6.5,2.6
		C750.2,267.2,750.1,268.7,750,270.3z"/>
	<path display="inline" fill="#101414" d="M792.7,275.5c-3.4-1-6.7-2.3-10.3-2.6c3.2-1.5,8.9-1.7,12,0.8
		C793.7,274.4,793.2,274.9,792.7,275.5z"/>
	<path display="inline" fill="#E9A489" d="M448.6,233.7c-4.2,1.3-10.3,1.4-14.5-0.1C438.7,232.3,443.9,232.8,448.6,233.7z"/>
	<path display="inline" fill="#B07F6A" d="M412.7,241.3c3.1-2.9,6.9-4.4,11-5.3c0.3,0.3,0.6,0.6,0.9,0.8c-3.7,1.8-7.3,3.6-11,5.4
		C413.3,242,413,241.7,412.7,241.3z"/>
	<path display="inline" fill="#AA8778" d="M722.5,302.1c1.5-1.7,3.9-0.7,5.9-0.9c2.3,0.5,4.3-0.9,6.6-0.6
		C731.4,303.9,726.8,302.9,722.5,302.1z"/>
	<path display="inline" fill="#615147" d="M757.5,273.8c-0.7-0.9-1.2-1.8-1.8-2.7c2.1-2.6,5-3.4,8.5-4.1c0.2,0.2,0.6,0.5,1.4,1.2
		C761.9,269.4,757,269,757.5,273.8z"/>
	<path display="inline" fill="#957163" d="M44.8,258.3c0.8,0.1,1.7,0.1,2.6,0.2c-0.4,1-1.1,0.6-1.6,0.6c-4.9-0.4-10.4,0.9-15-0.7
		C35.5,258.1,40.2,258.4,44.8,258.3z"/>
	<path display="inline" fill="#380303" d="M689.9,231.7c-2.5,0-5.1,0-7.6,0c0-0.5-0.1-1-0.1-1.5c2.8,0,5.7,0,8.5,0
		c0,0.2,0.1,0.5,0.2,0.7C690.6,231.2,690.3,231.5,689.9,231.7z"/>
	<path display="inline" fill="#B9B29B" d="M25.1,258.4c-2.8,0.2-5.5,1.1-8.5,0.8c0.8-3.7,5.8-1.5,8.4-1.5
		C25,257.9,25.1,258.1,25.1,258.4z"/>
	<path display="inline" fill="#493F38" d="M690.8,226.7c-3.7,0.2-7.3-0.1-11.3-2.3C683.5,224.2,687.6,225,690.8,226.7L690.8,226.7z"
		/>
	<path display="inline" fill="#493F35" d="M91.7,266.8c3.1-1.6,7.3-0.3,10.8-0.1c-2.2,0.3-4.3,0.7-6.5,1
		C94.8,266.6,93.2,266.9,91.7,266.8z"/>
	<path display="inline" fill="#313636" d="M772.8,216.2c-5,0.6-5,0.6-6.6-1C768.5,214.9,770.7,213.9,772.8,216.2z"/>
	<path display="inline" fill="#BE8A73" d="M280.9,267c-3.8,1.8-8.8,0.3-13,0.7C272,266.4,276.6,267.4,280.9,267z"/>
	<path display="inline" fill="#538675" d="M44.8,258.3c-4.1,0-8.1,0-12.2,0c0.1-0.2,0.1-0.4,0.1-0.6C36.7,258,41.2,256.8,44.8,258.3
		z"/>
	<path display="inline" fill="#9C7461" d="M162.9,257.7c-0.6,0.5-1.1,1-1.7,1.4c-2.1,0-4.2,0-6.3,0
		C157.5,258.4,160,257.2,162.9,257.7z"/>
	<path display="inline" fill="#6E5950" d="M798.6,361.1c1-1.3-0.4-2.3-0.9-3.9c1.7,0,2.7,0.5,3.5,1.9c-0.6,1.2-0.6,2.8-2.6,2.7
		C798.6,361.6,798.6,361.3,798.6,361.1z"/>
	<path display="inline" fill="#8B5F4F" d="M424.6,236.9c-0.3-0.3-0.6-0.6-0.9-0.8c1.9-1.2,4.1-1,6.1-1.5c0.3,0.3,0.6,0.5,0.9,0.8
		C428.9,236.6,426.6,236.2,424.6,236.9z"/>
	<path display="inline" fill="#281D1A" d="M689,376.4c-0.1,1.3,0.3,2.7-0.9,3.8c-1.1-3-1.1-4.2,0.2-6.2
		C688.4,374.8,687.8,375.9,689,376.4z"/>
	<path display="inline" fill="#82776F" d="M690.9,231c-0.1-0.2-0.1-0.5-0.2-0.7c0.3-0.3,0.5-0.5,0.8-0.8c2.2,0.5,4.2,1.4,6.6,3.4
		C694.9,232.3,693.7,231.8,690.9,231z"/>
	<path display="inline" fill="#5F544E" d="M698.3,306.2c-0.4,2.5-0.5,3.9-2,6.4c-0.7-2.8,0-4.6,1.3-6.3
		C697.9,306.2,698.1,306.2,698.3,306.2z"/>
	<path display="inline" fill="#67594F" d="M691.7,226.8c2.4,0.5,4.9,0.9,6.7,2.9c-2,0.6-4.5-1.7-6.7-2.2
		C691.7,227.3,691.7,227,691.7,226.8z"/>
	<path display="inline" fill="#5E5650" d="M699.4,300.3c1.1-1.7,2.3-3.4,3.4-5.2c0,0,0-0.1,0-0.1c0.2,2.4-1.2,4.3-2.3,6.2
		C700.1,301,699.8,300.7,699.4,300.3z"/>
	<path display="inline" fill="#977164" d="M691.5,372.2c2.9,0.2,6.1-0.8,8.7,0.7C697.3,372.7,694.2,373.6,691.5,372.2z"/>
	<path display="inline" fill="#988B81" d="M699.4,300.3c0.3,0.3,0.7,0.6,1,1c-0.7,1.6-1.4,3.3-2.1,4.9c-0.2,0-0.4,0-0.7,0.1
		C697.6,304.1,698.4,302.2,699.4,300.3z"/>
	<path display="inline" fill="#7EAB95" d="M32.7,257.7c0,0.2,0,0.4-0.1,0.6c-2.5,0.3-5,0.1-7.6,0.1c0-0.3,0-0.5-0.1-0.7
		C27.6,257.6,30.1,257.7,32.7,257.7z"/>
	<path display="inline" fill="#8A5043" d="M91.7,266.8c1.5,0.1,3.1-0.2,4.3,0.9c-2.4,0-4.7,0-7.2,0
		C89.7,266.6,90.8,267.1,91.7,266.8z"/>
	<path display="inline" fill="#2B211D" d="M646.4,333.5c1.3,2.1,0.5,4.6,0.7,7C645.6,338.6,646.6,335.9,646.4,333.5z"/>
	<path display="inline" fill="#C8DADA" d="M744.8,257.7c1.4-1.5,4.2-2,4.8,0.5c-2-0.6-3.1-0.6-4.8,0.2c0.1-0.2,0.1-0.3,0-0.5
		L744.8,257.7z"/>
	<path display="inline" fill="#D5C5A4" d="M77.2,367.8c0.1,0.7,0.2,1.3,0.3,2.2c0.5,0.2,1.2,0.4,1.8,0.6c-0.9,0.9-1.9,1-3.3,0.6
		C76.4,370,76,368.7,77.2,367.8z"/>
	<path display="inline" fill="#1C1E1E" d="M767.5,240.6c-1.5,1.9-1.7,2-2.9,0.3C765.5,240.3,766.3,240.4,767.5,240.6z"/>
	<path display="inline" fill="#2E3131" d="M873.1,266.4c0.4-1.5,1.7-1.5,3.1-2.1C874.8,266.5,874.8,266.5,873.1,266.4z"/>
	<path display="inline" fill="#876C60" d="M798.6,361.1c0,0.2,0,0.4,0,0.7c-1.7-0.1-3.7,0.8-4.9-0.8c0.9,0,2,0.4,2.4-0.9
		C797,360.4,797.8,360.8,798.6,361.1z"/>
	<path display="inline" fill="#56392F" d="M412.7,241.3c0.3,0.3,0.6,0.7,0.9,1c-0.9,0.5-1.8,1.1-2.7,1.6
		C410.5,242.1,411.8,241.9,412.7,241.3z"/>
	<path display="inline" fill="#272727" d="M873.6,254.8c-1.6-1.4-1.5-1.4,0-2.2C873.6,253.3,873.6,254,873.6,254.8z"/>
	<path display="inline" fill="#222121" d="M864.2,267.5c-2.3-0.1-1.4-1.5,0-2.9C864.2,266.2,864.2,266.8,864.2,267.5z"/>
	<path display="inline" fill="#1E2727" d="M80.8,372c-1.3,2.2-2.6,2-4.6,1.6C77.9,373,78.9,372.6,80.8,372z"/>
	<path display="inline" fill="#CBCFCF" d="M875.5,213.2c1.2,0.9,1.3,1.7,0.5,2.6C874.4,215.3,875.1,214.4,875.5,213.2z"/>
	<path display="inline" fill="#3E4343" d="M771.5,269.9c1.2-0.7,2-0.4,2.7,0.7C772.9,271.3,772.9,271.3,771.5,269.9z"/>
	<path display="inline" fill="#323737" d="M854.5,297.1c0.9-0.5,2.7,0.1,1.8,1.2C855.3,298.5,854.9,298.1,854.5,297.1z"/>
	<path display="inline" fill="#242B2B" d="M754.6,231.5c-0.2,0.9-1.1,0.8-1.8,0.9C752.1,231.3,754,230.5,754.6,231.5z"/>
	<path display="inline" fill="#5A544F" d="M793.5,281.5c0.3-0.8,0.6-1.6,0.9-2.5c1,0.9,1.3,2.5,0,3.3
		C794.1,282.1,793.8,281.8,793.5,281.5z"/>
	<path display="inline" fill="#929A9A" d="M881.7,300.2c0-0.8,0.1-1.6,0.1-2.3c2.2-0.1,1.3,1.7,0.4,2.6
		C882.1,300.4,881.9,300.3,881.7,300.2z"/>
	<path display="inline" fill="#BE8A73" d="M281.8,268.5c1-1.3,2.3-0.7,3.6-0.6C284.3,268.8,283,268.6,281.8,268.5z"/>
	<path display="inline" fill="#232525" d="M847.5,278c-0.9,0.7-1.2,0.9-1.6-0.2C846.3,277.1,846.8,277.6,847.5,278z"/>
	<path display="inline" fill="#413834" d="M611.4,242.3c-0.6,1-1.4,1.2-2.5,0.5c0.2-0.5,0.5-0.9,0.7-1.4c0.3,0,0.5,0,0.8,0
		C610.7,241.6,611,241.9,611.4,242.3z"/>
	<path display="inline" fill="#909B91" d="M610.4,241.3c-0.3,0-0.5,0-0.8,0c-0.4-0.3-0.7-0.7-1.1-1c0.7-0.8,1.6-0.8,2.6-0.4
		C610.9,240.4,610.6,240.8,610.4,241.3z"/>
	<path display="inline" fill="#8B8D8D" d="M884.8,237.4c0.6-1,0.9-1.5,1.6-2.6C887,236.8,886.9,237.4,884.8,237.4z"/>
	<path display="inline" fill="#907062" d="M770.3,284.8c0.3,1.5-0.4,2.3-1.7,2.6C768.6,286.2,769.1,285.3,770.3,284.8z"/>
	<path display="inline" fill="#2F3232" d="M804.8,246.7c0.4-0.3,0.8-0.5,1.2-0.7C806.5,246.8,805.7,247.6,804.8,246.7z"/>
	<path display="inline" fill="#5B8170" d="M63.9,266.8c-0.3-0.5-0.5-0.9-0.7-1.3C64.1,264.9,64.9,265.8,63.9,266.8z"/>
	<path display="inline" fill="#A2C6C6" d="M833.9,200.6c0.6-0.5,1.2-0.7,1.8,0C835.1,201.6,834.5,201.3,833.9,200.6z"/>
	<path display="inline" fill="#D5C5A4" d="M79.8,370.2c0.1-0.9-0.3-2,1.1-2.3C80.7,368.8,80.9,369.8,79.8,370.2z"/>
	<path display="inline" fill="#D5C5A4" d="M78,365.2c0.1,1,0.6,2.1-0.9,2.6C77.5,366.9,77.7,366.1,78,365.2z"/>
	<path display="inline" fill="#5E5650" d="M702.8,295.2c0.1-0.2,0.2-0.4,0.3-0.6C703.6,295.1,703,295,702.8,295.2L702.8,295.2z"/>
	<path display="inline" fill="#C3EAEA" d="M744.8,257.7l0,0.3c-0.3-0.1-0.5-0.2-0.8-0.2C744.2,257.7,744.5,257.7,744.8,257.7z"/>
	<path display="inline" fill="#907062" d="M777.2,277.1c-0.3,0.3-0.5,0.6-0.8,1C776.6,277.7,776.9,277.4,777.2,277.1z"/>
	<path display="inline" fill="#B0C8C8" d="M754.2,224c0.3,0.2,0.5,0.4,0.8,0.7c-0.7,0.6-0.8,0-1-0.4L754.2,224z"/>
	<path display="inline" fill="#99A1A1" d="M846.4,301.1c-0.2,0-0.4,0-0.7,0.1c0.2-0.2,0.3-0.5,0.5-0.7
		C846.3,300.7,846.4,300.9,846.4,301.1z"/>
	<path display="inline" fill="#493F38" d="M691.7,226.8c0,0.2,0,0.5,0,0.7c-0.3-0.3-0.6-0.5-0.9-0.8l0,0
		C691.1,226.8,691.4,226.8,691.7,226.8z"/>
	<path display="inline" fill="#6A8E8E" d="M748.8,230.6c0,0.1-0.1,0.2-0.1,0.2c-0.1-0.1-0.2-0.2-0.3-0.3c0.1-0.1,0.2-0.2,0.3-0.2
		C748.6,230.4,748.7,230.5,748.8,230.6z"/>
	<path display="inline" fill="#8E6B5E" d="M755.8,335.4c0.8-1.5,2.2-0.6,3.3-0.9c-0.6,2.6-0.9,5.3,0.1,7.8c-1.5,1.7-3,1.9-4.8,0.4
		c-0.2-0.7-0.5-1.6-1-2.9C754.1,338.5,756.7,337,755.8,335.4z"/>
	<path display="inline" fill="#916E60" d="M761.7,334.6c1.4,0.4,0.9,1.6,1,2.5c-0.8,0.3-0.5,0.6,0,0.9l-0.1-0.1
		c0.3,0.3,0.6,0.6,0.9,0.9c0,0-0.1-0.1-0.1-0.1c0.8,1.6,1.5,3.2,2.4,4.9c-1.6,1.7-3,1.2-4.7,0c0.2-2.7-2.1-6.9-0.2-9.1l0,0
		c0,0.5,0,1,0.5,1.3C761.8,335.4,761.7,335,761.7,334.6z"/>
	<path display="inline" fill="#7F6258" d="M774.8,340.4c1.6,1.6,0.4,3-0.2,4.4c-1-0.6-1.7-1.4-1.6-2.6l0,0c0.5,0.2,1,0.4,1.6,0.6
		C774.6,342,774.7,341.2,774.8,340.4z"/>
	<path display="inline" fill="#7F6258" d="M769.5,341.3c1-1.5,4.1-1.1,3.4,1l0,0C771.9,341.5,770.8,341.1,769.5,341.3z"/>
	<path display="inline" fill="#D69479" d="M450.2,269.1c0.2,1.4,0.1,1.9,0.1,3.4c-1.5,1.4-3.2,3-5,4.7c-8.3-4.1-32.6,3.6-30.8-8.9
		C423.9,258.6,440.9,259.1,450.2,269.1z"/>
	<path display="inline" fill="#D59378" d="M173.1,284.9c5.2-0.7,22.4-6.3,24,0.9c-1.9,0.4-3.8,0.8-5.7,1.2c0,0.1,0,0.3,0,0.4
		c2.2,0.1,4.4,0.2,6.6,0.3c-11.4,2.2-24.9,4.6-36-0.9c1-0.2,2.1,0.1,3.2-0.4c-0.4-0.6-0.6-0.9-0.8-1.3c2.9,0.3,3.2,0.8,6.2-0.1
		c-0.6,1.8,2.5,2.5,3.2,0.9C173.6,285.5,173.3,285.2,173.1,284.9z M187.2,286c-2.7-0.1-6.9-1.2-7.9,1.1
		C181.7,287.4,185.7,288.6,187.2,286z"/>
	<path display="inline" fill="#271612" d="M262,320.8c2.8-0.2,5.1,0.8,7.1,3.4c-1.2,0.1-2,0.1-2.8,0.2
		C264.7,323.4,262.6,322.9,262,320.8z"/>
	<path display="inline" fill="#28231D" d="M197.9,287.6c-2.2-0.1-4.4-0.2-6.6-0.3c0-0.1,0-0.3,0-0.4c3-0.4,6.4-2.3,9.1-0.1
		C199.6,287.1,198.8,287.4,197.9,287.6z"/>
	<path display="inline" fill="#341915" d="M257.9,318.5c1.7-0.7,4.8,0.2,4.2,2.4C260.6,320.3,258.7,320.3,257.9,318.5z"/>
	<path display="inline" fill="#383A30" d="M164.4,285c0.2,0.3,0.4,0.7,0.8,1.3c-1.1,0.5-2.2,0.3-3.2,0.4
		C161.2,285.2,163.5,285.6,164.4,285z"/>
	<path display="inline" fill="#AF6C58" d="M173.1,284.9c0.3,0.3,0.5,0.7,0.8,1c-0.9-0.1-1.9-0.6-2.4,0.7c-1-0.2-0.9-0.9-0.8-1.6
		C171.4,284.9,172.3,284.9,173.1,284.9z"/>
	<path display="inline" fill="#743C33" d="M154.9,285.8c0.6,0.1,1.1,0.2,1.7,0.2c0,0.2,0,0.4,0,0.5c-0.6,0-1.2,0.1-1.7,0.1
		C154.8,286.4,154.8,286.1,154.9,285.8z"/>
	<path display="inline" fill="#D59378" d="M200.4,286.8c-0.6-0.3-1.1-0.7-1.7-1C199.5,285.7,200.3,285.7,200.4,286.8z"/>
	<path display="inline" fill="#010101" d="M682.2,230.2c0,0.5,0.1,1,0.1,1.5c-2.3,0.9-5,0.2-7.2,0.9c-1.1,1.1-2.5,1-3.9,1
		c-0.3-0.3-0.6-0.5-0.9-0.8c0-0.2,0.1-0.5,0.1-0.7c-38-3.6-51.2,51.8-23.7,73.2c3.5-11.1,6.8-21.9,8.3-33c-1.3-2.3-3.8-3.4-4.1-6.2
		c1.8,0.1,2.8,1.4,4.3,2.3c0.2-0.5,0.3-1,0.5-1.4c0.5,0.3,1,0.6,1.5,0.8c-0.1,16.4-5.3,31.5-10.2,46.9
		C610.7,280,626.2,218.8,682.2,230.2z"/>
	<path display="inline" fill="#E5CCBB" d="M595.8,254.2c-1.2,1.5-2.9,0.4-4.8,1.1c-0.6,0.5-1.6,1.3-2.5,2c-1.7,0.3-3.4,0.5-5.2,0.8
		c-0.3-0.3-0.7-0.8-1.1-1.2c0.3-1.7,1.4-1.9,2.5-2.1c4.3-1.1,7.7-3.8,12-5.2c0.5,1.4,2.2,2.4,0.8,3.6
		C597.5,251.4,594.2,253.1,595.8,254.2z"/>
	<path display="inline" fill="#352825" d="M503.2,259.3c-1.3-0.1-2.4-0.6-2.9-1.8c1.3-2.7,4.6,0.7,6.6,1c0.3,0.8,1,0.7,1.7,0.7
		c0,0,0,0,0,0c0,0.3-0.1,0.5-0.1,0.8c-0.8,0-1.7,0-2.5,0.1C505.3,258.9,504.2,259.3,503.2,259.3z"/>
	<path display="inline" fill="#65524C" d="M600.5,251c0.8-0.6,1.7-1.3,2.7-2c0.7,1.9-1.1,1.8-2.2,2.7
		C600.9,251.4,600.7,251.2,600.5,251z"/>
	<path display="inline" fill="#6D5852" d="M536,259c-0.7,1.4-1.6,1.4-2.7,0.7C533.9,258.1,534.7,258.3,536,259z"/>
	<path display="inline" fill="#67615B" d="M516,260.3c-1.7,1.4-1.7,1.4-2.8-0.1C514.2,259.9,515,259.7,516,260.3z"/>
	<path display="inline" fill="#846F66" d="M595.8,254.2c-1.6-1.1,1.6-2.8,1.8-0.9C597,253.6,596.4,253.9,595.8,254.2z"/>
	<path display="inline" fill="#373B37" d="M503.2,259.3c1,0,2.1-0.5,2.8,0.7C504.9,260.2,504,260.1,503.2,259.3z"/>
	<path display="inline" fill="#373B37" d="M508.6,259.2c-0.7,0.1-1.4,0.1-1.7-0.7C507.4,258.7,508,259,508.6,259.2z"/>
	<path display="inline" fill="#7A625C" d="M527.5,260.8c0-0.4,0.1-0.8,0.1-1.3c0.1,0,0.3,0,0.4,0c0,0.4,0,0.8,0,1.3
		C527.8,260.8,527.6,260.8,527.5,260.8z"/>
	<path display="inline" fill="#472421" d="M521.5,260.5c0.6-0.6,0.9-0.4,1.4,0.2C522.4,261,521.9,260.9,521.5,260.5z"/>
	<path display="inline" fill="#373B37" d="M508.5,260c0-0.3,0-0.5,0.1-0.8c0.2,0.2,0.4,0.4,0.6,0.6C509,259.9,508.8,259.9,508.5,260
		z"/>
	<path display="inline" fill="#512523" d="M543.4,259.6c-0.1,0.2-0.2,0.3-0.3,0.5c-0.4-0.2-0.1-0.5,0-0.8
		C543.3,259.4,543.3,259.5,543.4,259.6z"/>
	<path display="inline" fill="#180F0D" d="M670.3,232.9c0.3,0.3,0.6,0.5,0.9,0.8c-0.7,0.8-1.4,0.3-2.4,0.2c-1.5,2-3.8,2.4-7,2.8
		C664.3,234,666.7,232.2,670.3,232.9z"/>
	<path display="inline" fill="#191210" d="M772.2,371.3c-1.4,1.7-3,3.1-5.7,3.4c0.6-2.9,3-3.3,4.7-4.4
		C771.5,370.7,771.8,371,772.2,371.3z"/>
	<path display="inline" fill="#251815" d="M794.7,371.4c2.2-0.1,4.1-0.3,6.1-0.8C801.8,373.8,797.3,373.8,794.7,371.4z"/>
	<path display="inline" fill="#6F5C52" d="M658.3,240.4c-1.8,1-3.3,2.4-4.7,4.5C653.3,241.2,655.2,240.3,658.3,240.4z"/>
	<path display="inline" fill="#32211D" d="M647.1,261c-1.2-0.6-2.3-1.4-2.5-3.3c1.9-0.1,2.9,1.4,2.6,3.2L647.1,261z"/>
	<path display="inline" fill="#42312C" d="M772.2,371.3c-0.3-0.3-0.6-0.6-0.9-0.9c0.6-0.9,0.7-2.5,2.5-2.5
		C773.7,369.5,773.1,370.5,772.2,371.3z"/>
	<path display="inline" fill="#281D1A" d="M658.3,240.4c-0.6,0-1.2,0-1.7,0c0.7-1.9,0.7-1.9,3.4-1.3
		C659.3,239.6,658.8,240,658.3,240.4z"/>
	<path display="inline" fill="#271613" d="M786.1,373.5c0.4-1.7,1.4-2.1,2.7-2.2C789.2,373,787.2,373,786.1,373.5z"/>
	<path display="inline" fill="#58453D" d="M789,381.5c1.4,0.8,0.9,1.9-0.5,1.2C788.6,382.3,788.8,382,789,381.5z"/>
	<path display="inline" fill="#84675D" d="M688.4,383.2c-0.9,0.7-1.2,0.9-1.6-0.2C687.2,382.3,687.7,382.8,688.4,383.2z"/>
	<path display="inline" fill="#765A51" d="M775.2,366.7c-0.2-0.3-0.3-0.5-0.4-0.7C776.1,365.1,776.2,365.8,775.2,366.7z"/>
	<path display="inline" fill="#5D433C" d="M793.1,372c-0.6,0-1.1,0.1-1.7,0.1c0-0.2,0-0.4,0-0.6c0.6,0,1.1-0.1,1.7-0.1
		C793.1,371.6,793.1,371.8,793.1,372z"/>
	<path display="inline" fill="#46352F" d="M647.3,260.9c0.6,0.4,1.2,0.6,1.2,1.5c-1.4,0.5-1.3-0.5-1.4-1.3L647.3,260.9z"/>
	<path display="inline" fill="#633F38" d="M784.4,381.8c0.3,0,0.7,0,1,0.1c0.1,0.5-0.6,0.2-1,0.3C784.4,382,784.4,381.9,784.4,381.8
		z"/>
	<path display="inline" fill="#241D1A" d="M555.2,334.2c-3.2,3.3-7.2-0.1-10.2-2.7C547.7,330.2,551.9,333.3,555.2,334.2z"/>
	<path display="inline" fill="#191614" d="M645.4,311.4c1.7,0.5,0.1,2.8,1.7,3.4c-0.3,1.7-0.6,3.4-1,5.1c-0.2,0-0.6,0-0.8,0
		C645.4,317.1,645.4,314.3,645.4,311.4z"/>
	<path display="inline" fill="#271E1B" d="M536.6,324.6c2.2,0.2,3.4,1,4.2,2.5C538.5,327.8,538.2,327.6,536.6,324.6z"/>
	<path display="inline" fill="#2C2421" d="M609.8,331.1c1.6,0.7,1.6,0.7,2.3,2.2C609.7,333.3,609.6,333.1,609.8,331.1z"/>
	<path display="inline" fill="#301E1B" d="M613.5,329.2c-1-0.5-1.6-0.9-1.8-2C613.3,327,613.3,326.9,613.5,329.2z"/>
	<path display="inline" fill="#48201D" d="M535.4,323.5c0.1,0.2,0.3,0.3,0.4,0.5c-0.4,0.1-0.7,0.4-1,0
		C535,323.8,535.2,323.6,535.4,323.5z"/>
	<path display="inline" fill="#492D2A" d="M525.1,318.5c0.1,0,0.2,0,0.3,0c-0.1,0.2-0.1,0.4-0.2,0.5
		C525.1,318.9,524.9,318.7,525.1,318.5z"/>
	<path display="inline" fill="#38352E" d="M65.4,347c-1,2.3-3.7,0.6-3.4-1.2C62.7,343.7,65.4,345.1,65.4,347z"/>
	<path display="inline" fill="#0D0A09" d="M788.3,329.4c0-1.2,0.5-2.1,1.7-2.4c1.3,0.4,2.3-0.1,3.3-0.8c-0.3-2.4-0.3-2.4-2.3-3
		c0.8-1.6,1.5-3.2,2.4-5.1c2,3.8,1.3,7.9,4,11.4c0.5,0,1.2-0.1,1.9-0.1c0.3-0.3,0.6-0.6,0.9-0.8l0,0c0.3,0,0.6,0.1,0.9,0.1
		c0.6,2-1.9,2.4-3.1,3.1c-0.4,2.5,1.9,2.9,3,4.5c-0.2,0.3-0.4,0.6-0.6,0.9c0,0,0.1,0.1,0.1,0.1c-1.7-1.9-4.4-2.7-5.3-5.5
		C792.6,331.8,789.9,331.7,788.3,329.4z"/>
	<path display="inline" fill="#0E0B09" d="M806.2,324.5c-1.6-2.6-3.1-5.1-4.6-7.6c6.4,1.4,10.2,11.5,4,18.6
		C802.5,331.8,805.8,328.7,806.2,324.5z"/>
	<path display="inline" fill="#CFCECD" d="M791,323.2c2,0.6,2,0.6,2.3,3c-1,0.6-2,1.2-3.3,0.8C789.8,325.5,790.5,324.4,791,323.2z"
		/>
	<path display="inline" fill="#3C2B26" d="M801.1,328.5c-0.3,0-0.6-0.1-0.9-0.1c-1.3-2.1-2.8-4-4-6.2
		C798.9,323.6,800.4,325.8,801.1,328.5z"/>
	<path display="inline" fill="#3D2421" d="M770.4,337.9c-1-3.9,4.4-5.9,7-2.6C773.4,334.2,773,334.7,770.4,337.9z"/>
	<path display="inline" fill="#3A2A25" d="M788.3,329.4c0.3,0.3,0.6,0.6,0.8,1c-2.2,0.7-6.2-2.8-3-4.2
		C787,327.1,786.7,328.9,788.3,329.4z"/>
	<path display="inline" fill="#19110F" d="M772.9,342.2c0-0.7,0.2-1.4-0.7-1.7c-0.1-0.3-0.2-0.6-0.2-0.8c0.3-0.8,1.1-0.9,1.8-1
		c0.3,0.6,0.7,1.2,1,1.8c-0.1,0.8-0.2,1.5-0.3,2.4C773.9,342.6,773.4,342.4,772.9,342.2z"/>
	<path display="inline" fill="#7F6258" d="M773.8,338.7c-0.7,0.1-1.5,0.1-1.8,1c-0.5-0.6-1.1-1.2-1.6-1.8c0.5-0.6,1.1-1.1,1.6-1.7
		C771.7,337.7,773.4,337.8,773.8,338.7z"/>
	<path display="inline" fill="#2E1B18" d="M793.5,290c-0.8,1.4-2.4,0.7-1.3-0.7C792.6,289.6,793.1,289.8,793.5,290L793.5,290z"/>
	<path display="inline" fill="#977264" d="M758.3,297.7c0.1-1.1,0.7-1.6,1.7-1.8C759.9,296.9,759.3,297.5,758.3,297.7z"/>
	<path display="inline" fill="#191110" d="M761.7,334.6c0,0.4,0.1,0.9-0.3,1.2c-0.5-0.3-0.5-0.7-0.5-1.3
		C761.2,334.4,761.5,334.5,761.7,334.6z"/>
	<path display="inline" fill="#191110" d="M763.6,338.8c-0.3-0.3-0.6-0.6-0.9-0.9C763,338.2,763.3,338.5,763.6,338.8z"/>
	<path display="inline" fill="#191110" d="M762.7,338c-0.5-0.3-0.8-0.6,0-0.9C762.7,337.4,762.7,337.7,762.7,338z"/>
	<path display="inline" fill="#3C2B26" d="M800.3,328.4c-0.3,0.3-0.6,0.6-0.9,0.8C799.6,329,799.9,328.7,800.3,328.4z"/>
	<path display="inline" fill="#1F1613" d="M662.6,282.3c-2.4-1-2.1-5.7,0-6.9C664.4,278,662.8,280.2,662.6,282.3L662.6,282.3z"/>
	<path display="inline" fill="#61483F" d="M657.3,267.9c-0.5-0.3-1-0.6-1.5-0.8c0-2.9,0-5.9,0-9
		C657.2,261.3,657.5,263.5,657.3,267.9z"/>
	<path display="inline" fill="#33221E" d="M661.3,401.5c2,0.6,4.1,0.6,5.5,2.5C664.8,404.4,663.8,404,661.3,401.5z"/>
	<path display="inline" fill="#191210" d="M662.5,282.4c0.4,0,0.8,0,1.2,0.1c0.9,1.4,0.5,2.3-0.7,3.1
		C662.1,284.5,662.4,283.4,662.5,282.4L662.5,282.4z"/>
	<path display="inline" fill="#251715" d="M653.5,336.9c-1.2-0.6-1.2-0.6-0.8-2.2C653.9,335.3,653.9,335.3,653.5,336.9z"/>
	<path display="inline" fill="#43312B" d="M655.1,337.6c0.9-0.3,0.9,0.8,1.3,1.4c-0.3,0.1-0.7,0.3-1,0.4
		C655.3,338.8,654.6,338.2,655.1,337.6z"/>
	<path display="inline" fill="#60453D" d="M666,291.8c0.1-1,0.1-2,1.5-2.1C668.1,291.1,667.4,291.7,666,291.8L666,291.8z"/>
	<path display="inline" fill="#211916" d="M722.1,289.5c-0.7-1-1-1.4-1.2-1.8c0.3-2.8,2.2-4.8,3.2-7.8
		C726.1,283.1,723.6,285.9,722.1,289.5z"/>
	<path display="inline" fill="#19100E" d="M725.9,275.9c-0.6-0.2-0.9-0.3-1.5-0.5c0.4-1,0.7-1.9,1.1-2.9c0.1,0,0.3,0.1,0.4,0.1
		C725.9,273.7,725.9,274.7,725.9,275.9z"/>
	<path display="inline" d="M227.9,316.3c-2,0.8-3.7,2-6,0C224.1,315.1,225.9,313.7,227.9,316.3z"/>
	<path display="inline" fill="#6E4C3E" d="M231.4,314.4c1.5-0.7,1.6-0.4,3,1c-1.5,0-2.2,0-2.9,0
		C231.5,315.1,231.4,314.8,231.4,314.4z"/>
	<path display="inline" fill="#240E0B" d="M240.4,314.8c-0.7,0-1.4,0-2,0c0-0.2,0-0.4,0-0.6c0.7-0.1,1.3-0.2,2-0.3
		C240.4,314.2,240.4,314.5,240.4,314.8z"/>
	<path display="inline" fill="#251411" d="M758.3,370.3c-3.4,1.6-7.1,1-10.7,1.1c-0.1-2,3.1-0.3,4-1.8c2-0.2,4-0.3,6.3-0.5
		C758.1,369.4,758.2,369.9,758.3,370.3z"/>
	<path display="inline" fill="#0E0807" d="M761.2,364.4c1.6,1.1,1.4,2.2,0.2,3.5C760.2,366.6,760.3,365.8,761.2,364.4z"/>
	<path display="inline" fill="#5F473F" d="M740.4,370.3c0.5,0.2,1,0.3,1.7,0.5c-0.5,1.8-1.7,1.3-3,1.1c0.2-0.5,0.3-1,0.5-1.5
		C739.8,370.4,740.1,370.4,740.4,370.3z"/>
	<path display="inline" fill="#563831" d="M746.3,369.7c-0.3,1.5-0.3,1.5-2.3,1.4c0.3-0.6,0.5-1,0.7-1.5
		C745.3,369.6,745.8,369.6,746.3,369.7z"/>
	<path display="inline" fill="#624941" d="M735.3,370.4c-0.2,0.5-0.3,1-0.5,1.5c-0.4-0.2-0.9-0.5-1.3-0.7
		C733.9,370.4,734.6,370.4,735.3,370.4z"/>
	<path display="inline" fill="#0F0504" d="M728,297.3c2.3-0.2,4.6-2.1,7,0.3C732.5,297.9,730.2,299.3,728,297.3z"/>
	<path display="inline" fill="#131411" d="M742.1,297.7c-0.9-0.4-1.6-0.8-2.4-1.1c2.1-1.7,2.1-1.7,3.9-0.1
		C743.2,297.2,743,297.3,742.1,297.7z"/>
	<path display="inline" fill="#171210" d="M750.4,295.8c-0.7,0-1.3,0-2,0c0-0.2,0-0.3,0-0.5c0.7,0,1.3,0,2,0
		C750.4,295.5,750.4,295.7,750.4,295.8z"/>
	<path display="inline" fill="#110B0A" d="M56.7,282.3c-0.5,0.3-1.1,0.6-1.6,0.9c-0.2,0-0.5,0-0.7,0c-0.5-1.9,0-3.8,0.8-5.6
		c3.7-0.8,3.7-0.8,5.8,0.7c-1.4,0.5-2.6,0.9-3.9,1.4C56.9,280.6,56.8,281.4,56.7,282.3z"/>
	<path display="inline" fill="#1F1916" d="M54.3,283.2c0.2,0,0.5,0,0.7,0c-0.2,1.2,0.3,2.9-0.4,3.8c-1.3-0.2-1.2-1.2-1.4-2.1
		c0.1-0.2,0.2-0.5,0.2-0.7C53.7,283.8,54,283.5,54.3,283.2z"/>
	<path display="inline" fill="#967163" d="M54.3,283.2c-0.3,0.3-0.7,0.6-1,1c0.2-1.2-0.7-2.6,0.7-3.5
		C54.2,281.5,54.3,282.3,54.3,283.2z"/>
	<path display="inline" fill="#906E61" d="M784.7,276.5c0.4,0,0.8-0.1,1.2-0.1c1.4,2.4,4.2,3.4,6,5.2c-1.5,1.8-2.9,3.8-5.2,5.1
		c-1.9-1-3.8-2.1-6-3.3c-1,0.3-1.7,1-2.5,2.1c0.7,0.2,1.2,0.3,1.6,0.4l0-0.1c-0.6,0.7-1.2,1.5-2.1,2.4c-0.4-1.6-0.8-2.9-1.1-4.1
		c2.3-1.8,6.9-10.1,8-2.9C787.3,280.7,785,278,784.7,276.5z M789,281.8c-2.3,0.5-2.3,0.5-2.8,2C787.2,283.2,788.5,283.2,789,281.8z"
		/>
	<path display="inline" fill="#3F2E29" d="M791.9,281.5c-1.8-1.8-4.5-2.7-6-5.2c0.2-0.3,0.5-0.6,0.8-1c2,1.8,3.7,3.9,6.7,3.5
		C792.9,279.7,792.4,280.6,791.9,281.5z"/>
	<path display="inline" fill="#906E61" d="M779.8,285.8c0.3-0.3,0.6-0.5,0.9-0.8c0.1,0.2,0.2,0.3,0.3,0.5
		C780.6,285.6,780.2,285.6,779.8,285.8C779.8,285.7,779.8,285.8,779.8,285.8z"/>
	<path display="inline" fill="#907062" d="M779,278.1c0.2-0.3,0.4-0.6,0.6-0.9C779.4,277.5,779.2,277.8,779,278.1z"/>
	<path display="inline" fill="#280D0B" d="M798.6,381.5c-1.5,0-3,0-5,0C796.7,380.3,796.7,380.3,798.6,381.5L798.6,381.5z"/>
	<path display="inline" fill="#442F27" d="M187.2,286c-1.5,2.6-5.4,1.4-7.9,1.1C180.3,284.8,184.5,285.9,187.2,286z"/>
	<path display="inline" fill="#463028" d="M171.4,286.6c0.5-1.3,1.5-0.8,2.4-0.7C173.3,287.1,172.3,286.6,171.4,286.6z"/>
	<path display="inline" fill="#351F1C" d="M789,281.8c-0.5,1.5-1.8,1.4-2.8,2C786.7,282.3,786.7,282.3,789,281.8z"/>
</g>
<g id="a_00000136378985537978491030000000259226307169664161_">
	<path d="M744.1,265.8c-7.3-3.3-15.5-4.6-23.4-4.2c-5.1,7-1.9,16.5-7.1,23.9c-3.3,8-8.6,15-10.2,23.7c2.2,12.4,1.1,24.5,0.4,37.2
		c22.5,2.2,43.9,13.5,66.8,10.5c7.3-1.3,11.3-8.5,19.2-7.6c4.8-0.4,5.6-2.1,8.8,2.6c3.7-0.7,6.8,1.6,10.4,2.4
		c1.6,0.3,1.6,0.5,3.1,2.9c-0.6,1.1-1.2,2.3-2,3.7c2.3,0,2.4,2,3.1,3.4c1.2,0.8,2.3,1.4,3.2,2c1.3,2.7-1.3,4-1.9,6.3
		c3.8,5,1.8,6.9-2.7,10.2c-2.4,15.5-11.1,12.4-23.3,14.1c-12.7,0.9-25,4.4-37.7,6c-27.1,5.6-54.6,5.9-82.2,6
		c-12.9-4-11.3-26.2-12.4-37.6c-9.8-18.6-5.4-41.8-1.8-61.7c-18.4,5.2-42.9,1.3-51.6-18.4c-42,7.6-85.9-2.2-127.4,8.9
		c-23.3-0.2-44.6,9.8-67,14.4c-43.9,8.9-89.6,4-132.7-4c-17.4,1.7-36.5,1.4-52.9-5.5c-27.3,5.6-56.3,5.5-83.8,0.7
		c-18.5-3.8-36.7-7.5-55.7-4.9c5.4,4.3-0.7,16.8-5.6,19.8c0.2,4.9,2.5,9.6,0.2,14.4c4,4,4.7,9.3,6.1,14.3c3.6,1.2,5.7,4.5,8.6,6.5
		c2.2,7,0.7,16.9-8,17.4c-11,26.9-46.5-4.7-57.1-18c-4.1-9.5-4.2-20.8-4.5-31C6.4,311.5,0,286,6.5,266.8c1.6-0.2,3.2-0.5,4.8-0.7
		c1.8-10.4,15.7-4.8,23.3-6.7c7.4,1.5,32.7-4.5,31.4,6.2c50.7-1.1,99.1-29,150.4-24.2c49.2,14.9,96.8-8.2,145.5-14.9
		c49.4-1.1,22.2-17.7,59.1-28.6c43.2-13.2,64.8,21.7,103.7,12c52.6-9.6,106.3-23.2,160-16.7c21.2,2.1,39.5,21.5,60.3,21.6
		c-0.3-0.2-0.7-0.4-1-0.5c0.2-0.4,0.3-0.8,0.5-1.2c1.3-0.1,2.7-0.2,3.9-0.3c-0.1-3.9-5.1,0.4-7,1.1c-0.7-0.3-1.4-0.7-2.1-1.1
		c0-1.1,0-2.2,0-3.3c0.9-0.7,1.9-1.4,3.2-2.4c-3.2-2-4.3,3.5-7.7,2.7c0-0.4-0.2-1-0.1-1.1c2.1-1.7,3.1-3.9,2.9-6.4
		c1.3-1.2,3.2-1.5,3-3.8c-1.8,0-3.6,0-6.1,0c1.8-2.5,4.5-2.5,3.9-6c1.1-0.5,2.1-0.9,3.1-1.3c0.1-4.9-3.3-10.7,3.6-13.2
		c1.4,0.3,2.8,0.6,4.2,0.9c0.2,0.2,0.4,0.5,0.6,0.7c0.1-0.1,0.2-0.2,0.3-0.3c-0.3-0.2-0.5-0.3-0.8-0.5c-0.6-3.3-5.4,0.1-6.2-3.1
		c1.4-2.1,4.2-1.7,5.3-2.8c1.2-2,2.1-3.4,3.1-5.1c-0.1-0.6-0.4-1.7-0.6-2.7c1.6-2.6,5.1-1.8,5.9-5.1c2.6-5.7,7.6-1.4,12-2.6
		c-0.6-3.3-3.3-3.6-4.3-6.3c5.5-1.8,10.9-4.3,16-0.6c0.5-0.2,1.1-0.6,1.7-0.9c-0.5-3.2-6.2-3.2-5.5-6.6c4.5-3.2,6.7-3.4,13-0.9
		c1.8-1.7,3.8-0.5,5.7,0.1c0.6,2.8,0.6,2.8,2.4,3.3c-0.7-1.4-1.2-2.6-2.5-3.3c0.1-1.3-0.5-2.1-1.6-2.7c0.2-0.5,0.4-0.9,0.6-1.6
		c1.4,0.7,2.5,1.2,3.4,1.7c6-1.4,10.9,0.6,15.5,4.4c3.1-0.9,6.1,1.4,9.3-0.3c-2.2-1.1-4-2-6.3-3.1c-1.4,1-2.9,0.3-4.1-1.5
		c5.3-2.1,12.9-4.5,14.6,2.8c3.5,1.7,7.3-0.1,11,1.2c1.5,0.8,1.5,0.8,3.4,0.9c-0.1-1.5-1.5-1.4-2.4-1.9c-0.1-0.7-0.2-1.4-0.2-2.1
		c4.4-3.2,7.2,2.7,11.5,3.4c2.5,0.6,3.1,4.8,4.3,6.6c3.7,2.8,8.6,3.4,11.4,6.4c2.2,0.6,3.9,1.1,5.8,1.6c0.2-0.3,0.6-0.7,0.9-1.1
		c4.7,0.7,2.4,2.4,4.9,4.5c2.1,2.1,1.9,5.1,4.1,7.9c-0.2,1.8-0.3,4.2-0.5,6.7c4.4-1,6.9,1.5,6.8,6.2c1.1,0.7,2,1.3,2.7,1.8
		c-0.1,3.2-2.8,2.3-5.1,3.2c1.2,0.8,2,1.3,2.8,1.8c-1.6,6.3,9.8,12.7,3.8,17.2c-1.1,0.1-2.2,0.2-3.4,0.2c0.8,1.6,2.1,1.4,3.3,1.2
		c2.5,2.1,5.3,7.5,2.3,10.3c-2.9,0.2-2.9,0.2-6.5-1.6c2.1,2.7,2.8,5.1,6.6,4.4c3.6,2.9,0.9,10.3-3.7,7.9c-1.5,1.6-2.3,3.2-2.5,5.3
		c4.2,2.1,0.7,7.5-2.4,9.3c-0.7-0.5-1.3-1-2.1-1.5c-2.3,0.5-3,2.7-4,4.9c-1.2,0.1-2.4,0.2-3.9,0.4c0.4-1.4,0.7-2.4,1.1-3.7
		c-0.6-0.6-1.4-1.2-2.1-1.8c-3,1.3-1.2,6.8-5.6,6.3c-0.6-0.8-1.3-1.8-2.1-2.7c-4.9-0.3-5.7,6-11.2,4.2c0.6-1.3,1-2.1,1.4-2.9
		c-1.1-0.6-2.2-1.2-3.2-1.8c-2.4,0.5-2.3,4.2-5,3.3c-0.4-0.8-0.7-1.2-1.6-0.9c0.1,0.3,0.3,0.6,0.4,0.9c-2,12.7-8.1,27.3-20.1,33.3
		c-0.3-0.2-0.6-0.5-0.8-0.7c4.3-3.3,8.4-6.7,11-11.8c-0.7-1.6,0.9-3.7-0.8-5.3c-2-12.6-11.7-13.7-21.8-16.3c-0.4,0.6-0.6,1-0.9,1.5
		c-3.4-3.3-0.4-4.9-5.6-2.4c-0.5-0.4-0.9-0.7-1.2-1c-0.3,0.2-0.6,0.3-0.9,0.5c-2.7-5-7.5-3-10.6-6.1c-1.5-2.1-2.2-4.7,1-5.3
		c15.4,7.8,32.2,12.3,45.7,23.6c2.2-7.5,6.6-17.7,3.3-25.2c-0.9,0.3-1.6,0.6-2.6,1c-1.2-1.4-2.4-2.8-3.5-4.1
		c-3.1,0.9-5.6,0.4-8.5-0.9c-2.8,1.5-4.9-0.1-7.9,1.3c-0.3-0.8-0.6-1.7-1-2.5c-6.2-0.5-12.3,2.8-18.5,1.1c0.1-0.8,0.1-1.6,0.2-2.6
		c-3.2-0.5-5.7,0.3-8.8-0.6c-0.3,0.3-0.7,0.8-1.1,1.3c-9.5-7-18.4,1.2-22.3,10.1l0,0c-1.9,0.7-1.4,2.9-1.6,4.4
		c1,1.2,3.3,0.3,3.3,2.7c-3.7,2-9.8,2.8-11.8,6.6l0,0c-0.3,0-0.5,0-0.7,0.1c-0.9-0.3-0.9-1-0.9-1.8c2.7-1.7,5.4-3.5,8.2-5.3
		c-2.9-6.7,5.5-10.6,6.5-16.3c-1.1-0.7-2.4-1.4-3.6-2.2c-3.8,2.8-9.4,4.7-13.5,2.5c-1.1-5.6,6.6-3.9,6.6-6.9
		c-5.6,0.1-6.8,3.8-11.1,6.1c-1.2-0.7-2.1-1.2-3.1-1.8c0,0,0,0,0,0c-0.5-1.9,0.5-3.9-0.8-5.7c-16.7-2-31.3-9.7-46.7-16.2
		c-1.3,0.3-2.8,0.6-4.3,1c-6.1,16.1,21.7,20,24.6,41.4c1.4-2.5,1.5-5.3,3.4-7.2c-0.1,4.1-0.3,8.1-3.4,11.1c-0.3,3.6-0.1,6.7-1.7,10
		c8,1.7,17-0.1,23.7,5.8C744.8,265.1,744.5,265.4,744.1,265.8z M713.6,252.1c0-0.3,0-0.6-0.1-1c6.4-12.5-22.3-16.6-30.5-16.7
		c-28.6-0.1-54.8,37.8-22.6,54.1c1.6-3.9,2.7-9.1,3.4-16.3c-4.3-3.4-4.7-3.9-5.4-7.3c1.9,1.4,3.6,2.6,5.8,4.2
		c-0.3-5.1-1.8-8.6-0.7-13.5c11,21.9-8.2,46.4-7.8,68.4c0.9,0.5,1.6,1,2.3,1.4c0.2,1.8,0.4,3.5,0.5,5c0.2,0.9,1.9,0.8,0.9,2.2
		c-1.2-0.8-2.4-1.7-3.8-2.6c1.6,16.7,4.1,33.1,4.3,49.9c-0.5,9.7,2.6,18.3,7.9,26.3c46.6,1.6,91.9-8,137.6-14.7
		c0.3-2,1.2-3.7,2.9-4.8c0.3-0.6,0.8-1.2,0.8-1.8c-1.1-4.1,7.4-6.1,4.2-9.3c-0.4-1.5-0.8-2.9-1.1-4.1c0.8-1.5,1.4-2.6,1.9-3.4
		c-1.6-1.7-3-3.2-4.8-5.2c-2.9-0.7-12,2-11-3.2c0.7,0.1,1.4,0.1,1.9,0.2c0.4-0.5,0.8-0.8,1.1-1.1c2.4,3.2,9,3.5,8.5-1.6
		c-0.8-0.4-1.7-0.8-3.2-1.6c0.6,1.6,1,2.5,1.5,3.8c-1,0-1.7,0-2.4,0c-1.7-1.9-1.9-4.7-4.9-5.1c-4.7,2.6-11.5,1-15.1,5
		c-20,29.2-57.8,15.9-87,14.8c-0.7,1.4-0.3,3.3-1.8,4.5c1.8-24.1,4.5-48.8,4.4-73.2c4.5-19.1,18.2-33.1,11.5-53.5l0,0
		C713,252.1,713.3,252.1,713.6,252.1c0.1,0.8,0.1,1.7,0.1,2.5c1,1.4,1.3,1.8,2.7,3.8C715.7,255.4,717.1,251.9,713.6,252.1z
		 M742.7,196.8c0.2-0.2,0.3-0.5,0.5-0.7c-0.3,0.5-1.8,0.5-1,1.3C742.2,197.4,742.5,197,742.7,196.8z M88,369.7
		c8.7-17.6-5.1-10.6-7.6-20.2c-0.8-4.1-0.9-7.7-3.3-11.5c-7.1,17.1,11.4,20.7,8.3,29.2c-0.2,0.2-0.3,0.3-0.1,0.6
		c-0.9,0.9-0.7,2-0.7,3.1c0.6-0.1,1.3,0.2,1.7-0.3C87.1,370.6,87.8,370.6,88,369.7z M826.1,145.6c-0.8-0.1-1.4,0-1.7,0.8
		c-0.5,0.1-1,0.1-1.7,0.2c0.9,0.9,1.3,0.4,1.6-0.2c1.3,0.5,2.4,1.5,3.3-0.1c-0.3-0.2-0.5-0.5-0.8-0.7
		C826.6,145.6,826.4,145.6,826.1,145.6z M44.6,262.3c0.5-0.1,1.1,0.1,1.1-0.9c-9.5,0.1-18.8,2.1-28.4,1.7c-1.7-0.2-1.8,1.1-2.8,2.5
		C24.6,262.9,35,264.6,44.6,262.3z M653.8,353.6c1,4.5-0.5,9.7,2.7,13.4c0.3-5.9-1.3-10.4-1.7-16.1c-0.9-4.3,0.5-8.7-2.3-12.4
		C653.1,344,652.4,348.7,653.8,353.6z M424.7,200.3c-6,2.4-16.2,3.6-18.6,10c14-10,32.1-12.2,49-8.6c0.3-0.5,0.5-0.9,0.9-1.4
		C446.1,197.6,434.5,197,424.7,200.3z M302.8,242.8c-41.5,11.6-62.1,5.1-101.4,1.4c-16.7-0.5-33.4,4.5-49.8,7.3
		c31.4-2.1,62,3.7,93.4,2.3c22.2,1,43.6-8.3,65.4-11.1c24.4-7.1,51.2-7.6,74.7-15.9C357.1,228.1,330,236.1,302.8,242.8z M53.1,294
		c3.3,2,9.9,4.2,13.4,4.4c-4.9-8.8-3.3-18.3-0.7-27.5c-4-3.2-7.9-0.7-11.9,1.1C49.9,277.9,43.5,290.1,53.1,294z M707.5,371.5
		c20.5,3.7,43.7,6.7,63.7-1.1c7.8-6.6,12.5-18.5,24.2-17c-0.2-1-0.3-1.6-0.4-2c-8-0.1-14.4,1.7-20.4,7c-22.9,8.6-47.7-7.4-71-9.5
		c-0.8,7.4-4.2,14.8-3.4,22.3C702.7,371.7,705.1,371.5,707.5,371.5z M273.6,308.3c0.6-0.5,1.2-1.1,1.8-1.6
		c60.5,14.5,124.1,12.4,182.4-9.2c-11.4-29.2-11.6-62.5-3.4-92.6c-35.9-9.3-46.6,14.9-74.2,26.8c-31.3,6.4-62.7,12.7-94,19.5
		c-38.1,11.6-76.8,3.1-115.6,3.3c-35.3-1-67.1,18-102.3,17.4c-2.4,9.3-3.8,19.1,2.5,27.2c31-6.7,60.8,4.7,91.4,7
		c20.5,1.7,40.8-0.7,61.1-2c9.3,1.8,18.1,4.7,27.9,3.5C258.8,307.1,266.6,310.8,273.6,308.3z M13.9,269.1c-2,0-3.9,0-5.9,0.9
		c-0.4,1.8-0.7,3.6-1,5.2c0.7,0.9,1.2,1.5,1.7,2.1c-3.2,18,5.4,34.7,18.1,46.5c-2,13-0.4,29.5,10.6,37.9
		c9.3,8.6,32.3,27.6,43.4,14.2c-0.8-4,2-8.1,2.4-12.4c-7.3-6.1-12.1-13.2-9.1-23.4c-7.4,0.2-5.5-5.6,0.9-4.4
		c0.4-2.1,1.4-3.8,0.8-5.8c-3,1.3-9.4,2.6-7.6-3c2.2-0.2,4.6-0.4,7.2-0.7c-0.2-1.5-0.4-2.8-0.6-4.3c-3.1,1.1-12.2,4-10.2-2.1
		c3.5-0.8,7-2.7,10.8-1c5.5-3.9,6.5-8.5,8.1-14.2c-11-3.5-21.9-3-32.4-8.1c-15.4-9.6-0.8-26.8,9.9-33.4
		C45.3,265.7,29.3,264.2,13.9,269.1z M717.9,248.7c0,1.8-0.2,3.6,0.7,5.3c-0.1,0.2-0.1,0.5,0,0.7c-0.9,0.8-0.2,1.1,0.6,1.5
		c0.1-0.6,0.1-1.1,0.2-1.5c10.6-22.4-38.4-35.4-21.7-55c-55.1-14.2-111.4,4.9-166.2,11.3c-36.6,9.3-40.8-2.1-72.6-10.2
		c-11.3,30.3-9.5,66.3,1.8,96.3c16.6,2.4,32.6-3.9,49-5.1c31.7-0.2,63.6,0.4,95-2.9c9.2,17.3,32.2,24.5,50.4,17
		c1.2-4.4,3.1-8.5,3.9-12.8c-33.4-17.9-14.5-58.2,17.7-61.8C691.2,231,714,231.9,717.9,248.7z M88.8,266.5c3.7,0.7,6.6-0.6,9.6-1.3
		C95.4,264.9,92.3,264.5,88.8,266.5z M759.5,169.4c2.9,0,5.1,0.2,8-0.3C764.7,167.4,762.4,166.6,759.5,169.4z M871.5,159.9
		c-0.2,1.5-0.8,2.8,1,3.3C873.3,161.9,873.3,160.9,871.5,159.9z M871.2,192.7c-0.9,0.3-1.5,0.6-2.6,1c1.1,0.6,0.6,2.1,2.4,1.8
		C871.1,194.7,871.1,193.8,871.2,192.7z M761.6,193.6c0.5,1.8,0.9,1.8,2.9,0C763.4,193.6,762.5,193.6,761.6,193.6z M871.6,206.6
		c2,0.2,2,0.2,3-2.1C873.3,205.2,872,205.2,871.6,206.6z M773.6,223.1c-0.2-2.2-1.3-1.8-3.1-1.3C772,222.4,772.8,222.8,773.6,223.1z
		 M717.8,259.3c-2,1.2-2,1.3,0,2.6C717.8,261,717.8,260.2,717.8,259.3z M859.2,239.4c-0.8,0-1.4,0.1-2.3,0.1
		C858.5,241.1,858.5,241.1,859.2,239.4z M884.2,239.3c1.9-1.5,1.8-1.5,0-2.6C884.2,237.6,884.2,238.4,884.2,239.3z M798.9,223.6
		c2,0.3,2,0.3,2.9-1.4C800.7,222.7,799.9,223.1,798.9,223.6z M748.6,186c0.2,0.6,0.3,0.9,0.6,1.6c0.6-0.6,1.1-1,2.3-2.1
		C749.9,185.7,749.3,185.8,748.6,186z M802.4,193.2c-0.1,1.5-0.6,2.1,0.8,2.5C804.2,194.5,803.4,194.4,802.4,193.2z M847.5,221.4
		c-0.7-0.4-1.2-0.9-1.6-0.2C846.3,222.3,846.6,222.1,847.5,221.4z M848.5,245c0.8,0,1.5-1.4,0.6-1.4
		C848.2,243.7,848.2,244.3,848.5,245z M61.7,267.8c0.4,0.4,0.8,0.5,1.3,0.2C62.6,267.5,62.2,267.3,61.7,267.8z M862.6,207.8
		c-0.1-0.2-0.3-0.4-0.4-0.5c-0.5,0.2-0.1,0.6,0,0.9C862.4,208.1,862.5,208,862.6,207.8z M744.2,186.4c0.2-0.1,0.5-0.2,0.7-0.3
		c-0.2-0.5-0.6-0.2-1-0.2C744,186.1,744.1,186.2,744.2,186.4z"/>
	<path fill="#141010" d="M744.1,265.8c0.4-0.4,0.7-0.7,1.1-1.1c5.8,7-5,28.2,9.5,26.9c2.6-1.2,4.8-0.4,7.4,0.5
		c-0.6,3.4,2.8,6.1,5.6,3.2c-0.9-3.8-1.2-7.9-0.3-11.8c2.8-0.4,1.7,3.4,0.9,4.7c0.1,2.6,0.7,5.1,1.5,7.8c1.2,0.4,2.4,0.8,3.5,1.1
		c0,0.2,0,0.5,0,0.7c-2.8,0.5-5.5-0.7-8.1,0.7c-3.3-1.4-3.3-1.4-5.2-5.3c-0.6-0.3-1.4-0.7-2.2-1.1
		C739.6,300.4,747.1,274.9,744.1,265.8z"/>
	<path fill="#1E1716" d="M827,280.4c0.3,0.2,0.6,0.5,0.8,0.7c-7.2,4.4-14.7,7.6-23.4,6.4c-0.2,0.4-0.5,0.7-0.9,1.3
		c-2.7-3.9-6.5-0.6-8.9,1.8c-0.2-0.1-0.5,0-0.7,0.1c-0.1-0.4-0.2-0.8-0.2-1.3C797.6,281.4,813.4,289,827,280.4z"/>
	<path fill="#201B19" d="M793.7,289.5c0.2,0.6,0.1,1.2,0.3,1.8c-3.3,5.4-10.1,11.1-14.1,3.1c-3.3-0.3-3.7,3.6-6.7,3.5
		c0-0.2,0-0.5,0-0.7c0.9-1.1,1.3-2.3,0.3-3.6c-0.1-0.1,0.4-0.5,0.6-0.8c1,0.5,1.5,2.7,2.4,0.9c1.1-1.5,4.2-1.7,4.3-0.8
		c-0.2-0.9-0.4-1.8-0.6-2.7c2.9-2.6,3.6,3.5,2.8,5.3C787.7,298.9,790.7,292.1,793.7,289.5z"/>
	<path fill="#959E9E" d="M744.3,213.2c-0.1,0.4-0.3,0.7-0.5,1.2c0.3,0.2,0.7,0.4,1,0.5c-1.8,1.7-5.4-0.3-7.5-0.9
		c0.6-0.4,1.2-0.7,1.8-1.1c0.7,0.4,1.5,0.7,2.1,1.1c1.1-0.6,2-1.2,3-1.7C744.3,212.5,744.3,212.9,744.3,213.2z"/>
	<path fill="#A4B3B3" d="M889.7,218.9c-0.5-0.7-1.1-1.4-2-2.6c3.6,1.9,3.6,1.9,6.5,1.6C893,219.2,891.4,219,889.7,218.9z"/>
	<path fill="#ADC1C1" d="M738.3,208.6c1.5-1.2,1.9-3,4.2-1.5c-1.3,1-2.3,1.7-3.2,2.4C738.9,209.2,738.6,208.9,738.3,208.6z"/>
	<path fill="#B0C0C0" d="M795.5,142.1c-1.4-0.3-2.7-1.4-4.3-1c1-0.5,1.9-1,2.7-1.7C794.9,140.1,795.5,140.9,795.5,142.1L795.5,142.1
		z"/>
	<path fill="#90B8B8" d="M749.3,178.8c-1.4-0.3-2.8-0.6-4.2-0.9c-0.1-0.2-0.1-0.5-0.1-0.7C746.6,177.3,749.1,176.6,749.3,178.8
		C749.4,178.8,749.3,178.8,749.3,178.8z"/>
	<path fill="#999797" d="M838.9,142.1c0.9,0.5,2.2,0.5,2.4,1.9c-1.9-0.1-1.9-0.1-3.4-0.9C838.3,142.8,838.6,142.4,838.9,142.1z"/>
	<path fill="#282A2A" d="M891.9,207.7c-1.2,0.1-2.5,0.4-3.3-1.2c1.2-0.1,2.3-0.2,3.4-0.2C891.9,206.7,891.9,207.2,891.9,207.7z"/>
	<path fill="#A0BABA" d="M847.9,247.8c-0.1-0.3-0.3-0.6-0.4-0.9c0.9-0.3,1.3,0.1,1.6,0.9C848.8,247.8,848.3,247.8,847.9,247.8z"/>
	<path fill="#8B6A5E" d="M774.1,297.8c0.3-0.1,0.5-0.3,0.8-0.4C774.7,297.5,774.4,297.7,774.1,297.8z"/>
	<path fill="#B28C7D" d="M794,291.3c-0.1-0.2-0.1-0.3-0.1-0.5c0.2-0.1,0.4-0.2,0.7-0.1C794.4,290.9,794.2,291.1,794,291.3z"/>
	<path fill="#EAA388" d="M67.5,276.8c0.3-1.6,0.6-3.3,0.9-5.1c35.2,0.7,67-18.4,102.3-17.4c38.8-0.1,77.5,8.3,115.6-3.3
		c31.3-6.8,62.6-13,94-19.5c27.4-11.9,38.3-36.1,74.2-26.8c-8.4,25.4-5,51.7-2.8,77.7c-2.4-1-4.3-0.4-6.3,0.6
		c-38.3,18.4-82.5,13.4-123.9,14c-20.3-3.1-41.4,4.7-61-2.5c-2-0.7-3.8-3.3-5.2,0.4c0.8,1.7,2.1,1.7,3.6,0.9
		c0.6,1.2,1.2,2.4,1.9,3.6c-0.2,0.4-0.3,0.8-0.5,1.2c0.6,2.7,3.3,2.8,5.1,4.2c-0.2,0.4-0.4,0.7-0.5,0.8c-8.9-3.6-18.1-1.2-27.4-3.8
		c5.4-2.7,15.8-5.7,17.3-10.6c-9.7-1-18.8,1.8-28.1,4.1c-6.2-3.7-14.1-0.1-20.4,1.8c-45.6,9.6-92.1-11.4-138.5-5.1
		c-1.6-2.6-1-5.4-0.7-8.3c8.9-2.2,17.7-4.3,26.7-6.5C84.9,274.2,76.3,276.7,67.5,276.8z M196.1,276.7c1,0.1,2,0.5,2.7-0.6
		c2-1.1-4.2-2.9-4.9-4.3c-7.9,0-17.2,1.5-24,5.1l0,0c-0.7,0-1.6-0.3-2,0.1c-2.5,1.2-5.2-1-7.4,1.4
		C171.2,284.3,185.1,279.1,196.1,276.7z M442,241.9c12.8-10.3-10.3-17-18.5-13.9c-6.5,1.7-21.2,10-8.7,14.6
		C424.2,242.8,432.5,240.5,442,241.9z M155.2,279.4c0.2-0.1,0.5-0.2,0.7-0.3c-0.3-0.6-0.6-0.5-1.1-0.2
		C154.9,279,155,279.2,155.2,279.4z"/>
	<path fill="#F5DDCE" d="M455.3,277.7c-5.4-25.2-5.9-52.8,3.7-77c31.8,8.2,36.2,19.6,72.6,10.2c54.8-6.4,111.1-25.5,166.2-11.3
		c-7.7,4.9-1.3,14.8,2.2,20.5c8.6,9.4,23.1,16.8,20.3,32c-1.4,0.5-0.3,1.7-0.8,2.5c-0.3,0-0.6,0-0.8,0c-0.5-37-81.3-30.2-77.5,17
		c-6.8,7-21,7.4-27.1-1c2.1-7.5-3.4-6.6-7-2.2c-12-0.1-15.2,5.9-29.3,3.4c0,0.9-0.1,1.5-0.1,2.4c-17.7-0.8-37.3,4.8-54-3.1
		c3-2.5,8.7-3.6,8.6-8.1c-1-0.5-2.1-1.1-3.5-1.7C505.1,269.7,480.8,277.9,455.3,277.7z M503.5,218.3c-2.9,0.4-8-4-9.4-0.7
		C496.4,219.6,501.1,221,503.5,218.3z M529.5,215.7c-1-0.2-1.6-0.3-2.2,0.5C527.5,217.6,529.2,216.7,529.5,215.7z M509.7,219.3
		c-0.8-1-1.5-0.7-2.3,0C508.4,220.2,509.1,219.9,509.7,219.3z M517.3,218.8c0-0.2,0-0.4,0-0.6c-0.7,0-1.3,0-2,0c0,0.2,0,0.4,0,0.6
		C516,218.8,516.6,218.8,517.3,218.8z M521.2,217.7c0.1,0.1,0.2,0.2,0.3,0.3c0.1-0.1,0.2-0.2,0.3-0.3c-0.1-0.1-0.3-0.2-0.4-0.3
		C521.3,217.5,521.2,217.6,521.2,217.7z M537.2,215.9c-0.2-0.4-0.5-0.2-0.8,0C536.6,216.3,536.8,216,537.2,215.9z"/>
	<path fill="#B28C7D" d="M647.9,257c13.4-35,77.1-21.9,64.8-5c0,0,0,0,0,0c-0.9-0.1-0.9-1.9-2.4-1.2c12.6,18.8-5.7,36.3-9,54.8
		c0.1,24.3-2.5,49-4.4,73.2c1.5-1.2,1.1-3.1,1.8-4.5c29.2,1.1,67,14.3,87-14.8c3.6-4,10.4-2.4,15.1-5c2.9,0.4,3.2,3.2,4.9,5.1
		c-0.5,1.2-1.7,0.6-2.6,0.9c-0.5-0.4-1.1-0.9-1.8-1.5c-0.3,0.3-0.6,0.7-1.1,1.1c-0.5,0-1.1-0.1-1.9-0.2c-1,5.2,8.1,2.5,11,3.2
		c1.8,1.9,3.2,3.4,4.8,5.2c-0.5,0.8-1.1,1.9-1.9,3.4c0.3,1.1,0.7,2.6,1.1,4.1c-0.1,0.5-0.3,1-0.5,1.7c-3.7,0.7-10.1-1.9-11.4,2.6
		c2.6,2.8,7.3-1.6,9.4,0.9c-1.8,1.6-1.3,3.9-2.5,5.9c-36.9,0.5-71.9,16.6-108.8,15.5c1.5-1.7,3-3.3,5-5.5c-9,3.2-15.6,6.4-25,5.9
		c-15.1-12.5-13.3-41.7-14.1-60.1c1.9,0.5,3.6,1,5.3,1.5c3.4-4.1-0.9-9-1.7-13.1c1.1-4.4-0.4-8.7-0.8-13c-0.8-4.2-2-8.2,0.4-12.2
		c3-5.8,0.6-12.9,3.8-18.6c1.1,1.5,2,2.8,3,4.1l0,0c1.7,3.3,4.8,4.6,8.3,5.9c-0.4-4.4,2.3-8,0.2-11.9c-5.7-9.7-9-20.6-8.7-31.9
		c-1.8-1.4-3.3-2.6-5-3.8c-6.1,1.9-12.9,5.3-18.7,7.8c0,0,0,0,0,0c-1.1,0.4-2.2,0.8-3.3,1.3C648,257.8,647.9,257.4,647.9,257z
		 M782.4,366.7c-0.9,2.4-9.4,4.8-6,7C779.3,372.2,781.7,370.3,782.4,366.7z M803.5,371.2c3.4,0.7,5,1.7,6.6-1.6
		C807.8,369.7,806,369.7,803.5,371.2z M798.2,370.1c-1.6,0-2.7,0.3-3.8,1.4C796.3,372.4,796.3,372.4,798.2,370.1z M799.9,370
		c0.1,2.3,1.5,1.4,2.8,0C801.3,370,800.6,370,799.9,370z M784.1,365.6c0.6-0.6,1.1-1,0.5-1.5C783.5,364.2,783.5,364.5,784.1,365.6z
		 M795.5,380.8c-1.4-0.5-1.7-0.6-2-0.8C792.7,381.7,793.9,381.5,795.5,380.8z M798.6,381.4c0-0.1,0-0.2,0-0.4c-0.5,0-0.9,0-1.4,0
		c0,0.1,0,0.2,0,0.4C797.7,381.4,798.2,381.4,798.6,381.4z"/>
	<path fill="#E6CCBB" d="M455.3,277.7c25.5,0.2,49.7-8,73.5-16.4c1.4,0.7,2.5,1.2,3.5,1.7c0.1,4.5-5.6,5.6-8.6,8.1
		c16.7,7.9,36.3,2.3,54,3.1c0-0.8,0.1-1.5,0.1-2.4c14.2,2.5,17.3-3.5,29.3-3.4c3.6-4.4,9.1-5.2,7,2.2c6,8.5,20.2,8.1,27.1,1
		c2.6,10,10.5,15.5,18.1,21.5c-0.8,4.3-2.8,8.4-3.9,12.8c-18.2,7.6-41.2,0.3-50.4-17c-31.4,3.4-63.3,2.7-95,2.9
		c-16.4,1.3-32.4,7.5-49,5.1C458,290.9,455.7,284.6,455.3,277.7z M555.7,289c-3.6-1.7-7-2.6-11-2.6
		C547.6,289.2,552.6,291.6,555.7,289z M536.5,281.3c1.7,2.4,1.9,2.5,4,1.7C538.8,281,538.8,281,536.5,281.3z M605.7,285.7
		c-2.5,0.4-0.4,3.4,1.3,2.1C607.5,286.5,606.7,286,605.7,285.7z M607.8,283.9c-0.9-1.3-0.9-1.3-2.1-0.6
		C606.2,284.3,606.7,284.8,607.8,283.9z M525.5,276.1c-0.6-0.6-1-1.2-1.6-0.5C524.1,276.7,524.4,276.8,525.5,276.1z M535.4,280.1
		c-0.2-0.1-0.4-0.3-0.5-0.4c-0.3,0.5-0.4,0.8,0.2,1.1C535.2,280.6,535.3,280.4,535.4,280.1z"/>
	<path fill="#F7EFD0" d="M13.9,269.1c15.4-4.9,31.5-3.4,47.2-6.1c-10.8,6.6-25.4,23.8-9.9,33.4c10.5,5.2,21.4,4.6,32.4,8.1
		c-1.6,5.7-2.7,10.3-8.1,14.2c-3.8-1.7-7.3,0.2-10.8,1c-2,6.1,7,3.2,10.2,2.1c0.2,1.5,0.4,2.8,0.6,4.3c-2.6,0.2-4.9,0.5-7.2,0.7
		c-1.8,5.6,4.6,4.3,7.6,3c0.5,2-0.5,3.8-0.8,5.8c-6.5-1.1-8.4,4.6-0.9,4.4c-3,10.2,1.8,17.3,9.1,23.4c-0.4,4.3-3.2,8.3-2.4,12.4
		c0.1,0.1-0.8,0.9-1.3,1.4c-19.7-5.3-44.1-15.8-46.7-39c-1.1-6.6,3.3-13.9,0.3-19.8C10.6,295.7,15.5,301,13.9,269.1z M71.7,347.9
		c-0.4-1.3-1.1-2.2-2.7-1.9C67.2,348.8,70.7,350.3,71.7,347.9z"/>
	<path fill="#B28C7D" d="M793.7,289.5c-2.9,2.6-6,9.4-10.6,6.2c0.8-1.8,0-7.9-2.8-5.3c0.2,0.8,0.4,1.8,0.6,2.7l0.1-0.1
		c-1.7-1.2-3.1-0.3-4.4,0.8c-0.5,0-1,0-1.4,0c-2.3-2.1-4-4.7-6.2-6.8l0,0c0.6-1.9-0.5-4.9-2.5-2.6c0.2,3.9-4.9,4-5.4,7.6
		c-4-3-9.8,2.8-12.6-2.5c2.9-8.4,1.8-18.4,7.1-26.1c2.4-4.2,5.3-8.6,6.4-13.2l0,0c1-0.2,1.6-0.8,1.7-1.8c3.1-2.1,6.7-3.3,10.2-4.7
		c0-2.4-2.3-1.4-3.3-2.7c0-0.4,0.1-1.1,0.2-1.8c1.1-0.5,1.8-1.3,1.5-2.7c0,0,0,0,0,0c0.5-0.1,1.1-0.2,1.7-0.4
		c0.5,1.9,1.9,2.3,3.6,2.2c0.4,0.9,0.7,1.7,1,2.4c5.4,0.9,2.9-4.7,11.9-3.2c2.4-2.3,2.8-4.8,5.1-6.9c-0.1,1.8-0.2,3.1-0.2,4.3
		c-1.3,0.9,0.2,2.3,0.2,3.5c-0.5-0.1-1-0.3-1.6-0.4c-0.7,1.2-0.2,2,0.9,2.8c0.4-0.5,0.9-0.9,1.3-1.4c3.1,3.1,7.9,1.2,10.6,6.1
		c0.3-0.2,0.6-0.3,0.9-0.5c0.3,0.3,0.7,0.6,1.2,1c0.6-0.2,1.2-0.4,1.8-0.6c0.4,1.2,1.4,1.6,2.5,1.6c0.4,0.4,0.7,0.8,1.2,1.4
		c0.3-0.5,0.6-0.9,0.9-1.5c10.1,2.6,19.7,3.7,21.8,16.3c1.7,1.6,0.1,3.7,0.8,5.3C823.8,293.7,800,279.3,793.7,289.5z M803.1,270.7
		c-0.9-1.4-1.7,0-2.5,0.1c-0.6-0.8,0.4-2-0.8-2.5c-0.2-0.4-0.4-0.8-0.8-1.6c-0.9,2.1-1.9,4.3-1.1,5.9c-0.5,0.9-1.1,1.7-1.8,2.9
		c0.9,0.2,1.5,0.4,2.1,0.6c-0.8,0.4-1.7,0.8-2.8,1.3c0.1,0.8,0.2,1.7,0.4,2.6c2.2,0.6,3.9,0.8,6,0.5c2.1,1.6,3.5,3.9,6.4,4.1
		c-0.3-1.4-1.2-1.7-2.1-1.9c-0.4-0.8-0.7-1.7-1.1-2.5C811.5,277.3,805.6,274.2,803.1,270.7z M815.1,271.3c-5.2-5.8-5.8-6.2-8.2-6.2
		c10.1,9.3,1.1,14,6.1,17.3C815.2,279.1,815.5,275.2,815.1,271.3z M780.5,286.3c1.6,0,3,0,5.1,0c-2.5-3.7-9.7-0.6-6.6,2.9
		C779.4,288.4,779.9,287.5,780.5,286.3z M792.5,275.9c-0.7,2.4-0.8,2.6,0,3.1c0.5,0.4,1.1,1.4,2.2,0.4
		C794,278.3,793.3,277.2,792.5,275.9z"/>
	<path fill="#D69479" d="M260.2,300.7c0.2-0.4,0.3-0.8,0.5-1.2c-0.6-1.2-1.2-2.4-1.9-3.6c-1.5,0.7-2.7,0.7-3.6-0.9
		c1.5-3.6,3-1.1,5.2-0.4c19.6,7.2,40.7-0.6,61,2.5c41.4-0.6,85.6,4.3,123.9-14c2-1,3.9-1.6,6.3-0.6c0.1-1.2,0.2-2.2,0.4-3.3
		c1.9,5.9,2.6,12.4,5.8,18.3c-58.3,21.7-122,23.7-182.4,9.2c-0.6,0.5-1.2,1.1-1.8,1.6c-0.2,0-0.5,0-0.7-0.1c-0.1-0.5-0.2-1-0.3-1.6
		c-1.8-0.1-3.3,0.5-4.7-0.8c1.1,0,2.1,0,3.6-0.1c-2-2.2-5.6-4.1-7.2-1.6c-1.1-0.5-2.4-0.8-3.2-1.7c1.1,0,2.1,0,3.4,0
		C263.2,300.7,261.8,300.6,260.2,300.7z"/>
	<path fill="#977264" d="M647.9,257c0.1,0.4,0.2,0.8,0.3,1.5c1.2-0.4,2.2-0.9,3.3-1.3c0.9,1.8,2.4,3.2,4,5.2c-0.7-3-0.7-3-2.5-5.3
		c-0.5,0.1-1,0.1-1.6,0.2c5.8-2.4,12.6-5.9,18.7-7.8c1.6,1.2,3.2,2.4,5,3.8c-0.3,11.3,2.9,22.2,8.7,31.9c2.1,3.9-0.5,7.5-0.2,11.9
		c-3.5-1.3-6.6-2.6-8.3-5.9c0.9-0.4,1.8-0.8,1.4-2.2c-1.3,0.3-1.4,1.2-1.4,2.2c-1-1.3-1.9-2.6-3-4.1c-3.2,5.6-0.8,12.8-3.8,18.6
		c-2.5,3.9-1.2,8-0.4,12.2c0.5,4.3,1.9,8.6,0.8,13c0.9,4.2,5.1,9,1.7,13.1c-1.7-0.5-3.4-0.9-5.3-1.5c0.9,18.7-1.1,47.3,14.1,60.1
		c9.4,0.5,16-2.6,25-5.9c-2,2.2-3.5,3.8-5,5.5c36.9,1.1,72-15,108.8-15.5c-1.7,1.1-2.6,2.9-2.9,4.8c-45.7,6.7-91.1,16.3-137.6,14.7
		c-5.3-8-8.3-16.6-7.9-26.3c-0.2-16.8-2.7-33.2-4.3-49.9c1.4,1,2.6,1.8,3.8,2.6c1-1.4-0.7-1.4-0.9-2.2c-0.2-1.5-0.3-3.2-0.5-5
		c-0.7-0.5-1.4-0.9-2.3-1.4c-0.4-22,18.9-46.6,7.8-68.4c-1.1,4.8,0.4,8.4,0.7,13.5c-2.2-1.6-3.9-2.8-5.8-4.2
		c0.7,3.4,1.1,3.9,5.4,7.3c-0.7,7.1-1.8,12.3-3.4,16.3C648.6,284.4,642,268.2,647.9,257z M671.9,281c-0.2,1.3-0.5,2.6,0.4,4
		C674,282.6,674,282.6,671.9,281c0.2-2.1,1.7-4.3-0.2-6.2c-1.9,2.4-1.9,2.4-1.1,6C671,280.9,671.4,281,671.9,281z M669.5,399.7
		c3.6,3,4,3.1,6.4,2.8C674.5,400.8,672.5,400.4,669.5,399.7z M661.8,333.4c-0.4,1.2-0.8,2.4,1,3C663.5,335,663.6,334,661.8,333.4z
		 M666,337.3c-0.5-0.3-0.8-0.5-1.1-0.7C663.8,337.8,664.9,338.4,666,337.3z"/>
	<path fill="#B28C7D" d="M722.8,255.5c0.2-2.1,0.3-4.2,0.5-6.5c3.1-3,3.3-7,3.4-11.1c-2,1.9-2,4.7-3.4,7.2
		c-2.9-21.5-30.6-25.2-24.6-41.4c1.4-0.3,2.9-0.7,4.3-1c13.5,5.7,26.2,12.1,40.5,15.2c2,2.5,4.1,5,7,6.7l0,0
		c2.4,6.3,12.4,6.8,18.1,9c-0.6,2.3-1.1,4.7-1.7,7C753,248.2,737.3,250,722.8,255.5z M727.1,233.7c0-1.8,0-2.9,0-4.3
		C725.5,231,724.8,232.4,727.1,233.7z"/>
	<path fill="#D69479" d="M272.9,308.2c0.2,0.1,0.5,0.1,0.7,0.1c-7,2.5-14.8-1.2-22.1-0.9c-9.8,1.2-18.6-1.7-27.9-3.5
		c-20.4,1.2-40.7,3.6-61.1,2c-30.6-2.3-60.5-13.7-91.4-7c-1.6-2.1-2.8-4.2-3.2-6.8c46.4-6.3,92.9,14.7,138.5,5.1
		c6.3-1.9,14.2-5.5,20.4-1.8c9.3-2.3,18.4-5.2,28.1-4.1c-1,3-7.3,7.1-12.6,8.4c0-0.4,0-0.8,0.1-1.5c-0.8,0-1.5,0-2.2,0
		c-0.3,1.5,0.7,1.5,1.4,1.7c-1.3,0.7-2.6,1.3-4,2c9.3,2.6,18.5,0.2,27.4,3.8c0.1-0.1,0.3-0.5,0.5-0.8c0.6,0.2,1.3,0.5,1.9,0.7
		c-0.6,0.7-1.1,1.5-2,2.6C268.2,308.2,270.5,308.2,272.9,308.2z M229.6,301.1c-2.1-1.1-4.6-0.8-5.4,1.7
		C227.4,303.4,227.4,303.4,229.6,301.1z M236.2,300.4c-1.4-1.4-2.8-2.3-3,0C233.9,300.4,234.6,300.4,236.2,300.4z"/>
	<path fill="#B28C7D" d="M707.5,371.5c-2.4,0-4.8,0.2-7.2-0.3c-0.9-7.4,2.5-14.8,3.4-22.3c23.3,2,48.1,18.1,71,9.5
		c6-5.3,12.4-7.1,20.4-7c0.1,0.4,0.2,1.1,0.4,2c-13-2.1-16.8,13.4-26.4,17.9c-3.1-7.4-19.6-1.4-26.3-1.6
		C731.2,370.9,719.2,368.9,707.5,371.5z M770.3,362.3c-1.6,2.7-1.4,2.6,0,5.2C771.6,364.9,771.8,365.1,770.3,362.3z"/>
	<path fill="#EBDDB8" d="M13.9,269.1c1.6,31.7-3.1,26.7,19.1,49.4c3.1,5.9-1.4,13.2-0.3,19.8c2.6,23.2,27,33.7,46.7,39
		c-10.8,9.5-23.3-2.7-33.1-7.9c-16-9.3-23.3-27.7-19.6-45.6C14,312.1,5.4,295.3,8.6,277.4c-0.5-0.6-1-1.3-1.7-2.1
		c0.3-1.6,0.7-3.4,1-5.2C9.9,269.1,11.9,269.1,13.9,269.1z"/>
	<path fill="#E9A288" d="M157.1,250.5c24.4-6.3,49.4-8.3,74.3-3.6c19.5,6.9,39.7,1.5,59.3-1.8c0.6,0.3,1.2,0.6,1.8,0.9
		c-44.6,14.9-89.7,3.5-135.3,5.4C157.2,251.2,157.2,250.8,157.1,250.5z"/>
	<path fill="#977264" d="M722.8,255.5c14.6-5.5,30.3-7.3,44-14.7c0.6-2.4,1.1-4.7,1.7-7c-5.7-2.2-15.8-2.7-18.1-9
		c1,0.6,1.9,1.1,3.1,1.8c0.9-0.5,1.8-1.1,2.8-1.7c2.8,6,11,3.2,15.3,0c1.3,0.8,2.5,1.5,3.6,2.2c-1,5.7-9.5,9.6-6.5,16.3
		c-6.6,3.6-12.7,8.5-12.2,16.7c1.9-3.7,3.4-6.6,4.9-9.6c0.2-0.1,0.5-0.1,0.7-0.1c-1.1,4.6-4.1,9-6.4,13.2
		c-5.3,7.7-4.2,17.6-7.1,26.1c-6.1-13.2,6.8-27.1-15.6-29.6c2.8,0.1,4.4-2.1,6.6-3.3c-6,0-11.5,2.8-17.4,0.6
		C722.4,256.6,722.6,256.1,722.8,255.5z M730.9,254.4c3.3,0.4,6,1.1,8.2-1.4C735.9,252.8,733.3,252.3,730.9,254.4z M743,251.7
		c2,1.7,2.1,1.7,4.4,0.1C745.8,250.1,745.8,250.1,743,251.7z M753.9,250.3c-1.3-0.9-1.9-1.1-2.5,0
		C752.2,250.3,752.7,250.3,753.9,250.3z"/>
	<path fill="#9592A1" d="M823.7,229.8c3-1.4,5.1,0.2,7.9-1.3c2.9,1.4,5.4,1.8,8.5,0.9c1.1,1.3,2.3,2.7,3.5,4.1c1-0.4,1.8-0.7,2.6-1
		c3.3,7.5-1.1,17.7-3.3,25.2c-7.5-5.3-15.2-10.4-23.6-14.3C820.9,239.1,821,233.5,823.7,229.8z"/>
	<path fill="#908993" d="M823.7,229.8c-2.7,3.7-2.7,9.3-4.4,13.6c-7.6-2.5-15.1-5.3-22.1-9.3c0-0.6-0.1-1.1-0.1-1.7
		c0.2-0.2,0.2-0.4,0.1-0.7c0.7-2,1.7-4,0.8-6.1c2.1-0.2,4.2-0.1,6.5,0.1c-0.1,1-0.2,1.8-0.2,2.6c6.1,1.6,12.3-1.6,18.5-1.1
		C823.1,228.2,823.4,229,823.7,229.8z M820.7,228.8c-0.3-0.6-0.6-0.5-1.1-0.2C819.9,229.1,820.2,229,820.7,228.8z"/>
	<path fill="#977164" d="M744.3,369.7c6.3-0.9,12.5-2.3,18.8-1.6c-2.2,0.9-4.6,1.2-6.9,1.7c-1.3-0.3-2.6-1.7-3.4,0.2
		c4.5,0.9,10.3,1.5,14.4-1.1c0.6,0.8,1.1,1.7,1.7,2.5c-20.1,6.3-41.5,3.9-61.5,0.1c11.7-2.5,23.7-0.5,35.2-1.7
		C743.5,370.7,743.5,370.7,744.3,369.7z M750.6,370.4c0-0.1,0-0.3,0-0.4c-0.6,0-1.2,0-1.7,0c0,0.1,0,0.3,0,0.4
		C749.4,370.4,750,370.4,750.6,370.4z"/>
	<path fill="#B08B7C" d="M53.1,294c-9.5-3.9-3.2-16,0.8-22c4-1.8,7.9-4.3,11.9-1.1c-1.3,5-1.7,9.8-4,14.5c-1.4-0.1-2.7-0.2-4.2-0.2
		c-1.1-6.1,1.8-2.1,2.4-5.3c-2.1-0.7-6.2-0.7-5.9,2.3c0.4,3.3-2.1,6.7,0,9.7C53.6,292.7,53.4,293.3,53.1,294z"/>
	<path fill="#E39F85" d="M302.8,242.8c27.1-6.7,54.3-14.7,82.3-15.9c-13,6.4-29.3,5.6-43.6,9c-12.2,2.9-24.5,5.9-36.9,7.8
		C304,243.4,303.4,243.1,302.8,242.8z"/>
	<path fill="#F0E9CB" d="M85.3,367.7c5.2-7.4-15.7-12.7-8.2-29.8c2.3,3.8,2.5,7.5,3.3,11.5c2.1,9.7,15.2,2.1,8.4,18.5
		c-0.8,0.3-0.8,1-0.8,1.7l0,0c-1.3-0.5-1.4,1.1-2.5,1.1C85.5,369.8,85.4,368.7,85.3,367.7z"/>
	<path fill="#926F61" d="M57.4,281.9c0.1,1,0.1,1.9,0.2,3.2c1.5,0.1,2.8,0.2,4.2,0.2c0.5-1.3,1-2.4,1.5-3.4
		c-0.3,5.8,0.6,11.3,3.2,16.5c-3.5-0.3-10.1-2.5-13.4-4.4c0.3-0.6,0.6-1.3,1-2.1c-1.3-2.1-0.9-4.3,0-6.6c0.5,0.2,1,0.4,1.3,0.6
		C57.2,284.8,55.9,282.9,57.4,281.9z"/>
	<path fill="#D69479" d="M67.5,276.8c8.8-0.1,17.4-2.6,26.2,0.5c-9.1,2.2-17.8,4.3-26.7,6.5c-0.1,1.2-0.2,2.3-0.4,3.4
		C65.4,284.1,66.6,280,67.5,276.8z"/>
	<path fill="#130D0C" d="M798,225.7c0.9,2.1-0.1,4.1-0.8,6.1c-0.1-0.8-0.2-1.5-0.3-2.3c-0.3,1-1.2,2.1,0.2,2.9
		c0,0.6,0.1,1.1,0.1,1.7c-0.6,0.3-1.3,0.6-1.9,0.9c0.1-1.2,0.1-2.5,0.2-4.3c-2.4,2.1-2.7,4.7-5.1,6.9c-8.8-1.5-6.5,4.1-11.9,3.2
		c-1.3-3.5-3.6-5.7,0.1-8.5c1.7-2.5,2.1-6.6,6.3-5.7c1,1.1,3.5,3.8,1,4.8c-1.2-0.6-0.6-3.3-3.2-2.9c-1,2.4-2.7,4.6-4.6,6.5
		c0.6,1.5,0.6,3,1.7,4.1c0.4-0.5,0.9-0.9,0.8-1.6c0.7-0.7,1.3-1,2.4-1.1c-0.5-0.8-0.9-1.4-1.4-2.1c0.5,0,1,0,1.6,0
		c1.5,1.4,3.4,2,5.4,2.3c2.9-2,3.7-5.2,5.6-7.8c-0.1-1.3,0.3-2.8,1.3-3.6C796.7,225.4,797.4,225.6,798,225.7z"/>
	<path fill="#C38F77" d="M424.7,200.3c9.8-3.3,21.4-2.7,31.3,0c-0.3,0.6-0.6,0.9-0.9,1.4C445.2,198.5,434.3,202,424.7,200.3z"/>
	<path fill="#A08274" d="M785,226.7c-2.1-0.2-3.8,0.3-4.8,2.4c-0.9,0.4-2.4,2.2-2.8,0.6c2.6-7.2,12-6.8,17.3-3.1
		c-0.1,0.3-0.1,0.6-0.2,0.9c-2.2,2-4.6,0.2-6.7-0.9c0,0,0,0,0,0c-0.3-0.3-0.5-0.5-0.8-0.8C786.3,226,785.6,226.4,785,226.7z"/>
	<path fill="#9C7467" d="M722.2,257.2c5.8,2.3,11.4-0.6,17.4-0.6c-5,4.5-11.8,3.5-18.1,2.3C721.8,258.2,722,257.7,722.2,257.2z"/>
	<path fill="#AA7A66" d="M424.7,200.3c0.7,1.1,1.8,0.5,2.7,0.8c-8.1,0.9-14.6,5.5-21.3,9.2C408.5,203.9,418.8,202.7,424.7,200.3z"/>
	<path fill="#906F61" d="M777.3,229.7c0.5,1.6,2-0.1,2.8-0.6c-0.6,4.2-5.7,4.9-2.6,9.4c-1.7,0.2-3.1-0.3-3.6-2.2
		c-0.6,0.1-1.1,0.3-1.7,0.4C773.3,233.9,775.2,231.7,777.3,229.7z"/>
	<path fill="#956F61" d="M801.4,380c1.3-4.5,7.8-1.9,11.4-2.6c0.2-0.7,0.3-1.2,0.5-1.7c2.6,1.9-1.3,3.8-2.5,5.2
		c-0.7-1.7-2.5-0.7-3.7-0.3c0-0.4-0.1-0.8-0.1-1.2C805,378.4,803.3,379.6,801.4,380z"/>
	<path fill="#907062" d="M750.4,224.7c-2.9-1.7-4.9-4.1-7-6.7c2.1,0.3,4.1,0.6,6.2,1C750.9,220.8,749.9,222.9,750.4,224.7z"/>
	<path fill="#644E45" d="M654.7,351c0.5,5.7,2,10.1,1.7,16.1C654.3,365.5,652.8,352.6,654.7,351z"/>
	<path fill="#AD7E69" d="M302.8,242.8c0.6,0.3,1.2,0.6,1.8,0.9c-3.7,1.6-8,1.6-12.1,2.4c-0.6-0.3-1.2-0.6-1.8-0.9
		C294.5,243.5,298.8,243.7,302.8,242.8z"/>
	<path fill="#44352F" d="M654.7,351c-1.2,0.5-0.6,1.7-0.9,2.6c-1.4-4.9-0.7-9.6-1.4-15C655.2,342.3,653.8,346.7,654.7,351z"/>
	<path fill="#685147" d="M758,227.3c-0.7-0.8-1.3-1.6-1.8-2.5c2.5-3,4.1-3.9,8.3-4.4C764.6,223.5,756.9,221.7,758,227.3z"/>
	<path fill="#271D1A" d="M761.4,250.4c-1.5,3-3,5.9-4.9,9.6c-0.4-4.4,1.9-7.7,4-11.4C760.5,249.4,760.4,250.2,761.4,250.4z"/>
	<path fill="#6A5047" d="M803,360.4c0.9-0.3,2.1,0.4,2.6-0.9c0.7,0,1.3,0,2.4,0c-0.5-1.3-0.9-2.2-1.5-3.8c1.5,0.8,2.5,1.2,3.2,1.6
		C810.4,361.1,805.4,362.3,803,360.4z"/>
	<path fill="#705C4C" d="M88.8,266.5c3.5-2,6.5-1.5,9.6-1.3C95.5,265.9,92.6,267.1,88.8,266.5z"/>
	<path fill="#2F3333" d="M759.5,169.4c2.9-2.8,5.1-2,8-0.3C764.7,169.7,762.5,169.4,759.5,169.4z"/>
	<path fill="#9BB69E" d="M15.5,264c2.5-2.1,7-0.3,10.3-0.8c0,0.2,0,0.4-0.1,0.6c-2.2,0.3-4.5,0.6-6.7,0.9
		C18.1,263.4,16.7,264.3,15.5,264z"/>
	<path fill="#936A5C" d="M25.8,263.9c0-0.2,0-0.4,0.1-0.6c2.2-0.6,5-1.8,6.9,0C30.8,264.7,28.1,263.7,25.8,263.9z"/>
	<path fill="#82675C" d="M714.4,252.1c2.6,0.8,1.2,3.4,1.9,6.3c-1.4-2-1.7-2.4-2.7-3.8c0-0.5,0-1,0-1.6
		C713.9,252.7,714.2,252.4,714.4,252.1z"/>
	<path fill="#9D9F8A" d="M32.7,263.3c-0.3-0.2-0.6-0.5-0.9-0.7c3.1-0.1,6.2-0.5,9.4-0.2c0,0.3,0,0.5-0.1,0.7
		C38.3,263.1,35.5,263.2,32.7,263.3z"/>
	<path fill="#93705E" d="M157.1,250.5c0,0.3,0.1,0.6,0.1,1c-1.8,1-3.7,0.7-5.6,0C153.5,251.2,155.3,250.8,157.1,250.5z"/>
	<path fill="#396457" d="M41.2,262.3c-0.9,0-1.7-0.1-2.6-0.1c2.2-1.2,4.7-0.6,7.1-0.7C45.3,263.2,42.5,262,41.2,262.3z"/>
	<path fill="#A09B9B" d="M871.5,159.9c1.8,1,1.9,2,1,3.3C870.6,162.7,871.3,161.4,871.5,159.9z"/>
	<path fill="#1E1F1F" d="M871.2,192.7c-0.1,1.1-0.1,2-0.2,2.8c-1.8,0.2-1.3-1.2-2.4-1.8C869.7,193.3,870.3,193,871.2,192.7z"/>
	<path fill="#ABBBBB" d="M744.3,213.2c0-0.3,0-0.6-0.1-0.9c1.3-0.5,4.4-2.2,4,0.6C747,212.9,745.7,213.1,744.3,213.2z"/>
	<path fill="#F1E5C8" d="M15.5,264c1.2,0.2,2.5-0.6,3.5,0.7c-1.3,0.3-2.7,0.5-4.5,0.9C15,264.9,15.3,264.4,15.5,264z"/>
	<path fill="#40352F" d="M796.2,239.4c-0.4,0.5-0.9,0.9-1.3,1.4c-1.1-0.7-1.6-1.6-0.9-2.8c0.5,0.2,1.1,0.3,1.6,0.4
		C795.7,238.8,796,239.1,796.2,239.4z"/>
	<path fill="#2E2420" d="M712.6,254.8c-0.8-1.3-1.5-2.6-2.4-4.1c1.6-0.6,1.6,1.1,2.4,1.2C712.6,253,712.6,253.9,712.6,254.8z"/>
	<path fill="#1A1B1B" d="M761.6,193.6c0.9,0,1.8,0,2.9,0C762.6,195.4,762.1,195.4,761.6,193.6z"/>
	<path fill="#292D2D" d="M871.6,206.6c0.4-1.5,1.7-1.4,3-2.1C873.6,206.8,873.6,206.8,871.6,206.6z"/>
	<path fill="#3D4343" d="M773.6,223.1c-0.8-0.3-1.6-0.7-3.1-1.3C772.3,221.3,773.4,221,773.6,223.1z"/>
	<path fill="#483F3F" d="M824.4,146.5c0.3-0.8,1-0.9,1.7-0.8c0.1,0.2,0.2,0.4,0.3,0.6c0.2-0.2,0.4-0.4,0.6-0.7
		c0.3,0.2,0.5,0.5,0.8,0.7C826.7,147.9,825.6,146.9,824.4,146.5L824.4,146.5z"/>
	<path fill="#53413A" d="M717.8,259.3c0,0.9,0,1.7,0,2.6C715.7,260.6,715.7,260.6,717.8,259.3z"/>
	<path fill="#C1A99B" d="M717.9,248.7c1.4,1.4,0.6,3.5,0.7,5.3C717.7,252.3,717.9,250.5,717.9,248.7z"/>
	<path fill="#A4ADAD" d="M795.4,142.2c1.3,0.7,1.8,1.9,2.5,3.3C796,144.9,796,144.9,795.4,142.2L795.4,142.2z"/>
	<path fill="#393630" d="M813.2,247.1c-1.1-0.1-2.1-0.4-2.5-1.6C812.2,243.2,812.6,246,813.2,247.1z"/>
	<path fill="#333232" d="M859.2,239.4c-0.6,1.6-0.6,1.6-2.3,0.1C857.8,239.5,858.4,239.5,859.2,239.4z"/>
	<path fill="#929C9C" d="M884.2,239.3c0-0.9,0-1.7,0-2.6C886,237.8,886,237.8,884.2,239.3z"/>
	<path fill="#262929" d="M798.9,223.6c1-0.5,1.8-0.9,2.9-1.4C800.9,223.9,800.9,223.9,798.9,223.6z"/>
	<path fill="#262C2C" d="M748.6,186c0.7-0.1,1.3-0.2,2.9-0.5c-1.2,1.1-1.7,1.5-2.3,2.1C748.9,186.9,748.8,186.5,748.6,186z"/>
	<path fill="#262828" d="M802.4,193.2c1,1.1,1.7,1.3,0.8,2.5C801.9,195.3,802.4,194.7,802.4,193.2z"/>
	<path fill="#906F61" d="M772.3,236.7c0.3,1.3-0.4,2.1-1.5,2.7C770.6,238,771.2,237.2,772.3,236.7z"/>
	<path fill="#67302A" d="M41.2,262.3c1.1,0,2.3,0,3.4,0c-1,1.3-2.3,0.8-3.6,0.7C41.1,262.8,41.2,262.6,41.2,262.3z"/>
	<path fill="#DBCBA9" d="M86.2,363.5c0,1.3,0.8,2.7-0.7,3.6C85.7,365.9,86,364.7,86.2,363.5z"/>
	<path fill="#DBCBA9" d="M85.3,367.7c0.1,1,0.1,2,0.2,3.1c-0.3,0-0.6,0-0.9,0.1C84.6,369.7,84.5,368.6,85.3,367.7z"/>
	<path fill="#242828" d="M847.5,221.4c-0.9,0.7-1.2,0.9-1.6-0.2C846.3,220.5,846.8,221,847.5,221.4z"/>
	<path fill="#977264" d="M763.8,248.5c-0.1,1.1-0.7,1.6-1.7,1.8C762.1,249.3,762.7,248.7,763.8,248.5z"/>
	<path fill="#6F6969" d="M848.5,245c-0.3-0.7-0.3-1.3,0.6-1.4C850,243.7,849.3,245,848.5,245z"/>
	<path fill="#C1A99B" d="M718.6,254.6c0.3,0,0.6-0.1,0.8,0c-0.1,0.5-0.1,0.9-0.2,1.5C718.5,255.7,717.8,255.4,718.6,254.6z"/>
	<path fill="#483F3F" d="M824.4,146.4c-0.3,0.6-0.7,1.1-1.6,0.2C823.4,146.6,823.9,146.5,824.4,146.4L824.4,146.4z"/>
	<path fill="#C1A99B" d="M719.7,254c-0.2-0.8-0.3-1.5,0.6-1.9C720.6,252.9,720.5,253.6,719.7,254z"/>
	<path fill="#DBCBA9" d="M88.1,369.7c-0.1-0.7-0.1-1.4,0.8-1.7C88.9,368.7,89,369.4,88.1,369.7z"/>
	<path fill="#99AF9D" d="M61.7,267.8c0.5-0.6,0.9-0.3,1.3,0.2C62.5,268.3,62.1,268.3,61.7,267.8z"/>
	<path fill="#DBCBA9" d="M86.3,370.5c0.3-0.8,1-0.9,1.7-0.8C87.8,370.6,87.1,370.6,86.3,370.5z"/>
	<path fill="#2E2420" d="M713.5,258.1c-0.2-0.6-0.4-1.2-0.6-1.8C713.7,256.7,713.7,257.4,713.5,258.1z"/>
	<path fill="#373838" d="M862.6,207.8c-0.1,0.1-0.3,0.3-0.4,0.4c-0.1-0.4-0.4-0.7,0-0.9C862.4,207.5,862.5,207.6,862.6,207.8z"/>
	<path fill="#576060" d="M744.2,186.4c-0.1-0.2-0.2-0.3-0.3-0.5c0.4-0.1,0.8-0.3,1,0.2C744.7,186.2,744.5,186.3,744.2,186.4z"/>
	<path fill="#535555" d="M742.5,196.6c0.2-0.2,0.5-0.3,0.7-0.5c-0.2,0.2-0.3,0.5-0.5,0.7C742.7,196.8,742.5,196.6,742.5,196.6z"/>
	<path fill="#2E2420" d="M714.4,252.1c-0.3,0.3-0.5,0.6-0.8,0.9c0-0.3,0-0.6-0.1-0.9c0,0,0,0,0,0
		C713.9,252.1,714.2,252.1,714.4,252.1z"/>
	<path fill="#2E2420" d="M713.6,254.6c0.2,0.3,0.5,0.6,0.7,1C714.1,255.2,713.9,254.9,713.6,254.6z"/>
	<path fill="#98D4D4" d="M826.9,145.6c-0.2,0.2-0.4,0.4-0.6,0.7c-0.1-0.2-0.2-0.4-0.3-0.6C826.4,145.6,826.6,145.6,826.9,145.6z"/>
	<path fill="#B3CACA" d="M749.4,178.8c0.3,0.2,0.5,0.3,0.8,0.5c-0.1,0.1-0.2,0.2-0.3,0.3C749.7,179.3,749.5,179.1,749.4,178.8
		C749.3,178.8,749.4,178.8,749.4,178.8z"/>
	<path fill="#535555" d="M742.7,196.8c-0.7,1.1-1.2,0-0.2-0.2C742.5,196.6,742.7,196.8,742.7,196.8z"/>
	<path fill="#2E2420" d="M712.7,252c0.3-0.3,0.6-0.6,0.8-0.9c0,0.3,0,0.6,0.1,1c0,0,0,0,0,0C713.3,252.1,713,252.1,712.7,252z"/>
	<path fill="#8F6C5F" d="M764.7,288c0.9-1.1,2.1-2,1.9-3.6c0-0.2,0.5-0.5,0.8-0.7c-0.9,3.9-0.6,8,0.3,11.8c-2.8,2.8-6.2,0.2-5.6-3.2
		C762.8,290.7,764.7,290,764.7,288z"/>
	<path fill="#8B6A5E" d="M769.9,287.9c1.4,1.7,2.8,3.3,4.3,5c-0.2,0.3-0.6,0.7-0.6,0.8c1,1.3,0.6,2.5-0.3,3.6
		c-1.2-0.4-2.3-0.8-3.5-1.1c-0.5-3-2.5-6.5-0.7-9.1c0,0,0,0,0,0C768.9,287.6,769.2,289.1,769.9,287.9z"/>
	<path fill="#442D28" d="M764.7,288c0.1,2-1.9,2.7-2.6,4.1c-0.3-0.1-0.6-0.1-0.9-0.2C761.7,290.1,762.8,288.8,764.7,288z"/>
	<path fill="#977264" d="M748.6,289.6c0.2,0.3,0.5,0.7,0.7,1C749.1,290.3,748.8,289.9,748.6,289.6z"/>
	<path fill="#8B6A5E" d="M775.1,293.8c0.5,0,1,0,1.4,0C775.8,294.7,775.8,294.7,775.1,293.8z"/>
	<path fill="#B28C7D" d="M780.9,293c0.2,0.1,0.3,0.2,0.2,0.1C781.2,293.3,781,293.1,780.9,293C780.9,293,780.9,293,780.9,293z"/>
	<path fill="#D69479" d="M442,241.9c-4.2,0.4-7.5-0.6-11.3-0.8c-6.4,0.6-15.8,4.9-20.4-1.6c-1.5-7.5,8.2-8.7,13.2-11.5
		C431.6,224.9,454.8,231.6,442,241.9z"/>
	<path fill="#D49378" d="M170,276.9c6.8-3.6,16-5.1,24-5.1c1.1,0.8,2.2,1.7,3.3,2.5c-2.7,1.5-4.9-0.2-7.3,2.5c2.1,0,3.4,0,4.6,0
		c-10.3,3-24.1,7-34,1.5c1.3,0.2,2.6,0.6,3.9-0.2c0-0.4,0-0.8,0-1.2c1.2,0.1,2.2,1,3.5,0C168.4,276.6,169.3,276.9,170,276.9
		c1.7,0.8,1.7,0.8,3.2-0.1C171.9,276.8,170.9,276.9,170,276.9z M182.7,276c-1.5-0.2-2.8,0.3-4.5,1.8c3.5,0,5.2-0.1,8-1.3
		c-0.3-0.5-0.4-0.8-0.6-1.2C184.5,275.6,183.6,275.8,182.7,276z"/>
	<path fill="#4B251F" d="M194.6,276.8c-1.3,0-2.5,0-4.6,0c2.4-2.7,4.6-1,7.3-2.5c0.8,0.2,3.2,0.8,1.6,1.8c-1,0-1.9-0.2-2.7,0.6
		C195.6,276.7,195.1,276.8,194.6,276.8z"/>
	<path fill="#1F100D" d="M267.2,305.6c-1.1-0.4-2.1-0.7-3-1.5c1.7-2.4,5.3-0.5,7.2,1.6c-1.5,0-2.6,0.1-3.6,0.1
		C267.7,305.7,267.5,305.6,267.2,305.6z"/>
	<path fill="#2A1512" d="M260.2,300.7c1.5-0.1,3,0,4.3,1.8c-1.3,0-2.4,0-3.4,0C260.8,301.8,260.5,301.3,260.2,300.7z"/>
	<path fill="#43342B" d="M164.5,277c0,0.4,0,0.8,0,1.2c-1.3,0.8-2.6,0.4-3.9,0.2C161.6,277.2,163.2,277.3,164.5,277z"/>
	<path fill="#453028" d="M241.5,299.9c-0.8-0.2-1.8-0.2-1.4-1.7c0.7,0,1.4,0,2.2,0c0,0.7-0.1,1.1-0.1,1.5
		C241.9,299.7,241.7,299.8,241.5,299.9z"/>
	<path fill="#D49378" d="M196.1,276.7c0.8-0.8,1.8-0.7,2.7-0.6C198.1,277.2,197.1,276.7,196.1,276.7z"/>
	<path fill="#5C2823" d="M155.2,279.4c-0.1-0.2-0.3-0.3-0.4-0.5c0.5-0.3,0.9-0.4,1.1,0.2C155.7,279.2,155.4,279.3,155.2,279.4z"/>
	<path fill="#2A2422" d="M503.5,218.3c-2.4,2.6-7.1,1.3-9.4-0.7C495.5,214.3,500.6,218.7,503.5,218.3z"/>
	<path fill="#501A18" d="M529.5,215.7c-0.4,1-2.1,1.9-2.2,0.5C527.9,215.4,528.5,215.4,529.5,215.7z"/>
	<path fill="#2D2320" d="M509.7,219.3c-0.7,0.7-1.4,1-2.3,0C508.2,218.6,508.9,218.3,509.7,219.3z"/>
	<path fill="#6B3D39" d="M517.3,218.8c-0.7,0-1.3,0-2,0c0-0.2,0-0.4,0-0.6c0.7,0,1.3,0,2,0C517.3,218.4,517.3,218.6,517.3,218.8z"/>
	<path fill="#582C29" d="M521.2,217.7c0-0.1,0.1-0.2,0.1-0.3c0.1,0.1,0.3,0.2,0.4,0.3c-0.1,0.1-0.2,0.2-0.3,0.3
		C521.4,217.9,521.3,217.8,521.2,217.7z"/>
	<path fill="#32100F" d="M537.2,215.9c-0.3,0.2-0.6,0.4-0.8,0C536.7,215.7,536.9,215.5,537.2,215.9z"/>
	<path fill="#291E1B" d="M782.4,366.7c-0.6,3.7-3.1,5.6-6,7C773,371.5,781.5,369,782.4,366.7z"/>
	<path fill="#110D0C" d="M803.5,371.2c2.4-1.5,4.2-1.5,6.6-1.6C808.5,372.9,806.9,371.9,803.5,371.2z"/>
	<path fill="#422C27" d="M801.4,380c1.9-0.3,3.6-1.6,5.7-0.5c0,0.4,0.1,0.8,0.1,1.2C805.2,380.5,802.9,381.5,801.4,380z"/>
	<path fill="#3D2E29" d="M798.2,370.1c-1.8,2.3-1.8,2.3-3.8,1.4C795.4,370.4,796.6,370.1,798.2,370.1z"/>
	<path fill="#765C53" d="M799.9,370c0.7,0,1.4,0,2.8,0C801.4,371.4,800,372.3,799.9,370z"/>
	<path fill="#826358" d="M784.1,365.6c-0.6-1.1-0.6-1.4,0.5-1.5C785.2,364.6,784.7,365,784.1,365.6z"/>
	<path fill="#7A5F55" d="M795.5,380.8c-1.6,0.7-2.8,0.8-2-0.8C793.8,380.2,794.1,380.3,795.5,380.8z"/>
	<path fill="#321916" d="M798.6,381.4c-0.5,0-0.9,0-1.4,0c0-0.1,0-0.2,0-0.4c0.5,0,0.9,0,1.4,0C798.6,381.1,798.6,381.2,798.6,381.4
		z"/>
	<path fill="#261D1B" d="M555.7,289c-3.1,2.7-8.1,0.3-11-2.6C548.7,286.4,552.2,287.3,555.7,289z"/>
	<path fill="#342925" d="M536.5,281.3c2.3-0.3,2.3-0.3,4,1.7C538.5,283.8,538.2,283.7,536.5,281.3z"/>
	<path fill="#41302C" d="M605.7,285.7c0.9,0.4,1.7,0.8,1.3,2.1C605.3,289.1,603.2,286.1,605.7,285.7z"/>
	<path fill="#615851" d="M607.8,283.9c-1,0.9-1.6,0.4-2.1-0.6C606.9,282.6,606.9,282.6,607.8,283.9z"/>
	<path fill="#948277" d="M525.5,276.1c-1.1,0.6-1.4,0.6-1.6-0.5C524.4,275,524.9,275.5,525.5,276.1z"/>
	<path fill="#5E4B45" d="M535.4,280.1c-0.1,0.2-0.2,0.5-0.3,0.7c-0.7-0.3-0.6-0.6-0.2-1.1C535.1,279.9,535.3,280,535.4,280.1z"/>
	<path fill="#2C1A17" d="M71.7,347.9c-1,2.4-4.4,0.9-2.7-1.9C70.6,345.7,71.3,346.6,71.7,347.9z"/>
	<path fill="#0B0807" d="M800.4,270.2c1,2.7,1.7,5.6,3.7,8.1c0.9-0.5,1.7-1,2.4-1.5c0.8,0.3,0.7,1,0.7,1.6c-0.8,0.5-1.5,1-2.4,1.7
		c0.4,0.8,0.7,1.6,1.1,2.5c-0.5,0.1-1,0.2-1.4,0.3c-0.9-0.8-1.9-1.6-2.9-2.5c-2.1,0.4-3.8,0.2-6-0.5c-0.1-0.9-0.2-1.8-0.4-2.6
		c1.5-1.2,4.3-0.8,4.4-2.9c-0.2-1-0.4-2-1.8-1.9c-0.8-1.6,0.3-3.8,1.1-5.9c0.4,0.8,0.6,1.2,0.8,1.6
		C799.7,269,799.7,269.7,800.4,270.2z"/>
	<path fill="#0D0B0A" d="M815.1,271.3c0.4,3.9,0.1,7.7-2.1,11.2c-5-3.3,4-8.1-6.1-17.3C809.3,265.1,809.8,265.5,815.1,271.3z"/>
	<path fill="#9E7C6E" d="M806.6,276.9c-0.8,0.5-1.6,0.9-2.4,1.5c-2-2.3-2.6-5-3.5-7.5c0.8-0.2,1.6-1.5,2.5-0.1
		c-0.2,0.2-0.4,0.3-0.6,0.6C803.8,273.1,805.2,275,806.6,276.9z"/>
	<path fill="#44312C" d="M780.5,286.3c-0.6,1.2-1.1,2-1.5,2.9c-3.1-3.5,4.1-6.6,6.6-2.9C783.5,286.3,782.1,286.3,780.5,286.3z"/>
	<path fill="#3F2D28" d="M806.6,276.9c-1.4-1.9-2.8-3.8-4.1-5.6c0.3-0.2,0.4-0.4,0.6-0.6c1.1,2.3,6.9,5.5,4.2,7.8
		C807.3,277.8,807.4,277.2,806.6,276.9z"/>
	<path fill="#DADBDA" d="M797.8,272.6c3.4,0.5,1.9,4.9-1.8,2.9C796.8,274.3,797.3,273.4,797.8,272.6z"/>
	<path fill="#2C221F" d="M792.5,275.9c0.8,1.3,1.5,2.4,2.1,3.5c-1.1,1.1-1.7,0.1-2.2-0.4C791.8,278.5,791.9,278.3,792.5,275.9z"/>
	<path fill="#1E1716" d="M804.5,282.9c1.4-0.4,3.1-0.4,3.5,1.6C806.6,284.4,805.5,283.8,804.5,282.9z"/>
	<path fill="#9E7C6E" d="M800.4,270.2c-0.7-0.5-0.7-1.2-0.6-1.9C800.7,268.7,800.5,269.5,800.4,270.2z"/>
	<path fill="#141010" d="M769.9,287.9c-0.7,1.2-0.9-0.2-0.9-0.9C769.3,287.3,769.6,287.6,769.9,287.9z"/>
	<path fill="#EAA388" d="M267.2,305.6c1.7,1,3.1,1.2,5.3,1c0.1,0.6,0.2,1.1,0.3,1.6c-2.4,0-4.7,0-7.6,0
		C266.1,307.1,266.7,306.4,267.2,305.6z"/>
	<path fill="#211916" d="M671.9,281c-0.4-0.1-0.8-0.1-1.2-0.2c-0.8-3.6-0.8-3.6,1.1-6C673.5,276.7,672,278.9,671.9,281L671.9,281z"
		/>
	<path fill="#301F1B" d="M669.5,399.7c3,0.7,5,1.1,6.4,2.8C673.5,402.8,673.1,402.7,669.5,399.7z"/>
	<path fill="#332521" d="M651.5,257.3c0.5-0.1,1.1-0.1,1.6-0.2c1.7,2.3,1.7,2.3,2.5,5.3C653.9,260.5,652.4,259.1,651.5,257.3
		L651.5,257.3z"/>
	<path fill="#100C0B" d="M671.8,281.1c2.2,1.6,2.2,1.6,0.4,3.9C671.4,283.6,671.7,282.3,671.8,281.1L671.8,281.1z"/>
	<path fill="#362722" d="M661.8,333.4c1.8,0.6,1.7,1.7,1,3C661,335.7,661.4,334.6,661.8,333.4z"/>
	<path fill="#3E2824" d="M666,337.3c-1.1,1.1-2.2,0.4-1.1-0.7C665.1,336.8,665.4,337,666,337.3z"/>
	<path fill="#57423A" d="M675.3,291.3c0-1,0.1-1.9,1.4-2.2C677,290.4,676.2,290.9,675.3,291.3L675.3,291.3z"/>
	<path fill="#3A2B27" d="M727.1,233.7c-2.3-1.3-1.6-2.7,0-4.3C727.1,230.8,727.1,231.9,727.1,233.7z"/>
	<path fill="#221310" d="M229.6,301.1c-2.2,2.3-2.2,2.3-5.4,1.7C225,300.4,227.5,300.1,229.6,301.1z"/>
	<path fill="#704C3E" d="M236.2,300.4c-1.6,0-2.3,0-3,0C233.4,298.1,234.8,299,236.2,300.4z"/>
	<path fill="#221815" d="M767.3,368.8c-3.2,2.4-7.3,1.6-11,1.6c0-0.2,0-0.4,0-0.6C759.7,369.8,764.5,366.3,767.3,368.8z"/>
	<path fill="#3E302B" d="M770.3,362.3c1.5,2.8,1.3,2.6,0,5.2C768.9,364.9,768.7,365,770.3,362.3z"/>
	<path fill="#412E29" d="M744.3,369.7c-0.8,1-0.8,1.1-1.7,0.1C743.2,369.7,743.8,369.7,744.3,369.7z"/>
	<path fill="#1F1411" d="M730.9,254.4c2.5-2.1,5.1-1.6,8.2-1.4C736.8,255.5,734.1,254.9,730.9,254.4z"/>
	<path fill="#30241F" d="M743,251.7c2.8-1.5,2.8-1.5,4.4,0.1C745.1,253.4,745,253.3,743,251.7z"/>
	<path fill="#1D1411" d="M753.9,250.3c-1.2,0-1.8,0-2.5,0C752,249.2,752.6,249.3,753.9,250.3z"/>
	<path d="M797.1,232.5c-1.4-0.8-0.5-1.9-0.2-2.9C796.9,230.5,797.5,231.6,797.1,232.5z"/>
	<path fill="#401E20" d="M820.7,228.8c-0.5,0.2-0.8,0.4-1.1-0.2C820.1,228.3,820.4,228.2,820.7,228.8z"/>
	<path fill="#513E37" d="M756.3,369.8c0,0.2,0,0.4,0,0.6c-1.3-0.1-2.2,0.4-3.4-0.5C753.6,368.1,754.9,369.5,756.3,369.8z"/>
	<ellipse fill="#382621" cx="749.7" cy="370.1" rx="1.2" ry="0.3"/>
	<path fill="#090303" d="M57.4,281.9c-1.4,1-0.2,2.8-2,3.9c-0.4-0.2-0.9-0.4-1.3-0.6c0-1.7-0.1-3.5,0.8-5c2.5-1,2.5-1,5.1-0.4
		C60.2,281.8,57.8,280.7,57.4,281.9z"/>
	<path fill="#926F61" d="M54.8,280.2c-0.2,0.6-0.5,1.3-0.7,1.9C53.9,281.3,53.8,280.6,54.8,280.2z"/>
	<path fill="#906F61" d="M785,226.7c0.7-0.3,1.3-0.6,2-0.9c0.3,0.3,0.5,0.5,0.8,0.8c0,0,0,0,0,0c-0.1,2.9,3.6,3.7,5.9,3.5
		c-1.2,2.5-2.4,5-4.8,6.7c-1.9-0.3-3.9-0.9-5.4-2.3c-1.8-0.4-2.9,0.7-3.3,2.3c0.3,0.3,0.5,0.6,0.8,0.9c0,0.3,0,0.5-0.2,0.8
		c-0.4,0-0.9,0-1.3,0c-0.3-1.1-0.7-2.1-1.1-3.3c1.9-1.9,3.6-4.1,4.6-6.5c2.5-0.4,1.9,2.3,3.2,2.9C788.4,230.4,786,227.8,785,226.7z
		 M787.8,234.2c1-0.7,1.9-1.4,3.2-2.3C788.8,231.4,788,232.5,787.8,234.2z"/>
	<path fill="#32221E" d="M793.6,230c-2.3,0.2-5.9-0.6-5.9-3.5c1.6,0.7,3,2,5,1.8c0.4,0.7,1,0.8,1.6,0.5
		C794.1,229.2,793.8,229.6,793.6,230z"/>
	<path fill="#392520" d="M780.1,236.7c0.5-0.9,0.6-2.1,1.8-2.3c0.4,0.7,0.9,1.3,1.4,2.1C782.1,236.8,781.2,236.8,780.1,236.7z"/>
	<path fill="#906F61" d="M794.4,228.9c-0.7,0.2-1.3,0.2-1.6-0.5c0.6-0.3,1.1-0.6,1.7-0.9C794.4,227.9,794.4,228.4,794.4,228.9z"/>
	<path fill="#6E5147" d="M780.1,236.7c0.6,0,1.2,0,1.8,0c-0.4,0.3-0.7,0.6-1.1,0.8C780.6,237.3,780.3,237,780.1,236.7z"/>
	<path fill="#6E5147" d="M779.3,238.4c0.4,0,0.9,0,1.3,0c-0.2,0.3-0.5,0.5-0.7,0.8C779.8,238.9,779.6,238.7,779.3,238.4z"/>
	<path fill="#392520" d="M783.4,234.4c0.3,0.2,0.5,0.5,0.8,0.7C784,234.9,783.7,234.6,783.4,234.4z"/>
	<path fill="#32221E" d="M787.8,226.5c-0.3-0.3-0.5-0.5-0.8-0.8C787.2,226,787.5,226.3,787.8,226.5z"/>
	<path fill="#3F342B" d="M184.5,277c-1.8,1.3-3.7,0.5-6.4,0.8C180.6,275.6,182.3,275.5,184.5,277z"/>
	<path fill="#0E0504" d="M184.5,277c-0.6-0.3-1.3-0.6-1.9-0.9c0.9-0.2,1.9-0.5,2.9-0.7c0.2,0.4,0.4,0.7,0.6,1.2
		C185.6,276.7,185.1,276.8,184.5,277z"/>
	<path fill="#472A22" d="M170,276.9c0.9,0,1.9-0.1,3.2-0.1C171.7,277.7,171.7,277.7,170,276.9L170,276.9z"/>
	<path fill="#39221E" d="M787.8,234.2c0.2-1.8,1-2.8,3.2-2.3C789.7,232.8,788.7,233.5,787.8,234.2z"/>
</g>
</svg>
