<?xml version='1.0' encoding='utf-8'?>
<svg xmlns="http://www.w3.org/2000/svg" version="1.2" baseProfile="tiny" id="Layer_2_00000162318621836049535260000005959442706675469748_" x="0px" y="0px" viewBox="0 0 900 600" overflow="visible" xml:space="preserve">
<g>
	<path d="M136.2,481.4c-3.3-2.3,1.1-6.8-2.9-9.4c-2.9-2.7,0.9-5.8,3.1-7.6c-1.4-5.5,2.6-8.5,5.1-12.1c1.2-3.1,0.7-7.4,3.1-9.7   c0.7,0.1,1.4,0.1,2.3,0.2c-2.3-12.2,6.9-15,5.7-23.1c-5-14.6-4.8-29.7-4.8-44.9c-4.3-9.3-4.8-19.9-8.2-29.6   c-13.6-30.5,10.9-47.5,6.9-72.5c-18-15.1-41.4-12.7-62.8-11c-0.6,0.8-1.1,1.5-1.6,2.2c-0.5,0.2-1,0.4-1.6,0.7   c-1.9-0.7-3.5,0.5-5.3,0.8c-0.3-0.2-0.5-0.5-0.8-0.7c-0.2-1-0.3-2-1.8-2.4c-1.6,0.7-3.5,1.1-5,2.8c5.4,3.9,11.4,0.2,17.4,0.3   c0.7,0.1,1.3,0.1,1.6-0.7c0.7-0.4,1.2,0.5,1.7,0.9l0,0c-0.6,0-0.8,0.3-0.8,0.8c-2.5,2.5-6.8,0.2-9.5,2.8   c-5.7,2.2-13.8-0.6-16.2-6.4c1.2-0.9,2.3-1.7,3.6-2.7c-8.2-3.7-17.8-3.5-26.4-6.8c-1.5,6.9-3.3,21.8-2.1,33.4   c-0.2,0.3-0.3,0.7-0.6,1c-0.4-0.2-0.9-0.3-1.5-0.5c-0.6-5.8,0.5-12-0.5-17.5c-1.5,6.4-1.1,12.9-1.2,19.4c-0.8-0.3-1.5-0.5-2.3-0.8   c-2.8-13.1-6.3-27.5-2.3-40.6c-1.1-1.5-1.4-3.8-3.7-3.7c-0.2-0.3-0.5-0.6-0.7-0.8l0,0c-0.2-0.4-0.5-0.7-0.7-1.1   c0.1-0.2,0-0.3-0.2-0.4c-2.3-3.7-4.3-7.5-3.6-12c1.1,1.8,1.8,2.8,2.9,4.4c-0.6,3.4,3.2,6,4.6,9c0.3,1.5,1.6,0.7,2.4,1.1   c0.3,1.3,0.3,1.3,1.3,2.1c0.2,0.8,0.8,0.9,1.5,0.8c1.9,1.3,3.7,1.9,6.1,1.5c0,1,0.5,1.6,1.5,1.6c0.6,0.9,1.5,0.6,2.3,0.7   c1.3,0.5,2.6,1.4,4,0.3c0.8,0.1,1.1,1.2,1.6,1.7c1.5-0.5,2.7-1,3.7-2.3c-1.6,0.1-2.8,0.1-4,0.2c1.2-1.6,3.6-1.4,5.4-2.2   c1.1,0.4,1.8,1.2,2.3,2.2c-0.1,0.4-0.2,0.7-0.3,1.1c-1.3,0.8-3.4-0.3-4.3,1.9c3.5,0.9,8.1-2.4,11.2,1.2c6-1,11.7,6.3,18.6,4.4   c15.6-3,34.9,3.2,47.1-9.8c14.1-13.5,7.2-35.9-8.2-45.1c-0.1-0.5-0.2-0.9-0.4-1.5c0.5-0.1,0.9-0.2,1.4-0.3c4,2,8.8,5.7,11.5,8.9   c8.8,3,18.7,6.1,27.9,5.1c15.9-13.9,29.7-32.4,38.9-51.5c8.5-5,15.7-12.9,25-16.5c11-5.1,22.6-6.8,32.6-14   c19.6-13,42.1-15.7,64.3-21.1c8.8-3,20.9-6.6,29.4-1.9c9.2,7.5,17.7,15.3,26,23.9c10.8,12.5,16.4,28.6,26.9,41.5   c6,10,12.1,20,18,30.1c3.9,9.5,14.1,17,12,28.4c41,7.3,83,14.6,121,32.8c23.4,9.5,45.4,22.4,68.5,32.4c12.2,2.4,24.4,5.1,35.9,10   c14.1,4.1,28.9,0.4,43.4,4c14.9,7.8,32.9,10.9,47.2,20.6c21.5,14.5,46.2,23,69,35.1c12.9-4.8,9.2-7.1,25-3.8   c12.9-6,22.9,6.7,38.6,4.1c8.9,2.1,11.2,12.8,14.3,20.1c4.7,8.8-0.6,19.5-3.3,28.2c-0.3,0-0.6,0-0.9-0.1c0.6-6.3,0.9-12.8,1.6-19.1   c1.3-1.3,0.5-2.7,0.6-4.3c-0.8,0-1.4,0-2.2,0c-0.4-2,0.9-4.9-0.7-6.4c-0.7-5.8-4-11.3-8.3-15c-10.1,0.1-20.9-1-30.4-3.5   c0.1-0.5,0.2-1.1,0.4-1.9c-2.1-0.3-4.1-1-6.1,0.6c-4.5,1.8-9.2-1.5-14.2-0.6c2,3.3,5.5,1.2,8.3,2.8c-3,7.8-12.7,3.8-19.1,4.6   c-1,4.3-6.7,14.8-4.1,17.7c0.7-0.3,1.4-0.7,2-1c3.9,5.6,0.1,6.8,8.2,10c0.4,1.3,1.4,0.8,2.3,0.9c0.3,1.1,1.5,0.8,2.3,0.6   c0.2,0.2,0.4,0.2,0.6,0.2c0.5,0.2,1.1,0.5,1.6,0.7c0.3,0.4,0.5,0.7,0.7-0.1c1.7-6.4,3.3-13.2,5.4-19.8l0,0c1.1-3.7,4.3-10.5,6.1-3   c-0.1,8.4-4.1,16.3-6.6,24.1c14.6,7.3,35,35.7,48.5,13.1l0,0c0.2-0.3,0.5-0.6,0.7-0.8c0.4,0.2,0.8,0.4,1.2,0.6   c0.4-0.2,0.8-0.4,1.2-0.6c0,0.5,0,1,0,1.5c-0.3,0.3-0.7,0.6-1,0.9c-0.7-0.1-1.3,0-1.2,0.9c-1.6,4.4-5,7.2-9.3,9.2   c10,15.9-1.5,36.6-15.4,45.4c-10.3,8.3-23.1-7.7-32.5-12.1c-11.2-4.8-21.1-11-32-16.3c-0.2,0.3-0.5,0.9-1,1.7   c-1.4-0.6-1.7-2.3-2.2-3.4c-51.7-6.9-107,5.2-157.1-13.9c-20.9-9.5-43.7-7.2-66-6.2c-68.9-3.8-140.8-3-202.7-39.2   c-31.1-9.2-60.4-27.8-92.7-31.2c-31.8-11.3-60.7,11.3-87.5-20.3c-8.1,3-3.5,11.5-3.8,17.5c1.7,20.5,3.6,41.2-0.3,61.6   c4.3,29,11.1,43.6-19.9,58.7c5.5,8.8,2.2,10.3-5,14.9c-5.5,2.1-10.9,2.5-16.4,1.8c0-0.6,0.1-1.2,0.1-1.8c5-0.6,9.7-0.6,14.4-2.3   c0.8-1.3,1.5-2.3,2.2-3.4c0.8-0.2,1.6-0.4,2.6-0.7c0.6-1.2,2-2.2,0.8-4.3c-2.1,3.4-4.7,5-8.3,6.5c-3.4-1.8-7.4-0.4-11.1-0.8   c0.5-0.5,1-1,1.5-1.5c1.7-0.4,3.4-0.7,5.1-1.1c-0.2-1.4-0.4-2.7-0.7-4.3c-4.2-0.9-8.7,0.7-12.6-1.5c0.2-0.5,0.4-1,0.5-1.4   c6.6-0.2,13.1,0.4,19.7-0.3c1.6-2.4-0.8-3.4-1.5-5.6c0.9,0,1.6,0,2.3,0c0.5,0.7,1.1,1.4,1.6,2.1c-0.1,1.5-0.1,2.9-0.2,4.5   c0.4,0,0.9,0,1.5,0c-0.3-1.6-0.4-2.9-0.4-4.5c2.5-2.8,4.7-6.5,4.5-10.3c-3.5-4.8-10.5-4.5-12.9-10.2c-3.5-0.1-6.6-1-8.7-3.9   c-4.3,3.6,3.7,11.4-0.4,11.3c-0.9-0.7-1.9-1.5-2.8-2.2c-5.1,3.8-3,10.6-7,14.9c2.3,4.1,0.2,8,2.4,11.7   C137.5,481.4,136.8,481.4,136.2,481.4z M148.3,221.9L148.3,221.9c-2.2-2.9-7.2-1.7-10.5-3.2c-1.1-0.5-1.8-2.1-3.1-1.5   c6.1,21.1,5.5,25-11.4,39.5c10.5,4.5,21.4,8.5,28.5,18.2c3.8,0.8,7.9,2.5,12,2.7l-0.1,0c3.6,3.1,9,3.6,12.4,7.4c0,0.8,0.5,1,1.2,1   l0.1,0.1c-0.5,0.2-1,0.5-1.5,0.7c-8.6-2.7-16.5-6.6-24.8-10c0,2.9,0,5.5,0,8.4c6.4,7.2,15,12.2,21,19.9   c7.3,11.4,13.2,24.1,24.3,32.3c35.8,29.5,81.5,6.9,70.2-40.6c0.3-0.3,0.7-0.7,1-1c9.7,16.8,3.5,39.5-10.8,52   c9.2,0.7,17.3,5,26.2,2.8c8-9.2,13.6-20.5,19.5-31.2c0.1-0.7,0.7-1.4,0.9-2.1c1.6,2.1-0.2,2,0,3.8l0,0c-0.9,0.3-0.8,1-0.7,1.7   c-3.8,10.4-8.4,20.7-14.4,29.9c30.9,9,61.5,18,89.9,33.3c7.1-9.9,16.5-31.4,17.5-40.3c-1.7,0.8-4-0.2-5.3,1.3   c-0.8,0.4-1.5-0.4-2.2-0.6c3.4-1.9,7.1-3.1,10.8-3.8c4.9-17.6,12.5-35.2,13.3-53.4c-0.8,0.2-1.5,0.5-2.2,0.7   c-5.7-12-6.4-25.9-6.9-39.1c-4.7,8.2-0.7,16.2,0.2,24.6c0.5,5.3-5.4,4.4-8.1,1.7c-5.9-9.6-7.6-20.9-5-32.1   c-22.3,7.2-44.4-2.8-64-12.6c0.9,27.6-8.5,54.5-19.2,79.6c-2.5-7.9,5.5-19.8,7.8-27.9c3.3-17,6.6-34.4,7.5-51.8   c-0.2-3.1-3.8-4.3-6.2-5.6c-16-8.3-31.9-16.5-47.3-26c-29-3.8-60.9,11.2-90.4,0.7c-3.2,3.6-6.4,7.2-9.9,11.2   c17.8,3.1,38.1,5.2,50.6,19.7c7.8,16.1,5.5,40.2-8.4,52.4c-7.8,7.5-19.2,13.3-29,5.2c0.5-1.2,1.6-0.5,2.4-0.8   c15.5,5.4,28.1-9.5,33.8-22.5c-3.5-1.3-6.6-3.3-10.3-2c-1.1-0.5-2.1-1-3.3-1.5c-1.5,0.8-3.1,1.5-4.8,0.6c0.1-1.6,1.8-1.4,2.7-2.2   c-1.4-2.1-3.6-3.4-3.6-6.4c6.6,5.3,11.6,6.9,19.8,7.6c9.2-39.1-24.7-40.7-53.3-46.6c-4.5,5.1-10.7,2.6-16.5,4.4   c0.6,0.4,0.8,0.6,1.1,0.8l-0.1,0c0,1,1,0.4,1.5,0.9c0.3,0.2,0.6,0.4,0.9,0.6c-0.3,0.8-1,0.8-1.6,0.9c-0.4-0.2-0.7-0.4-1.1-0.6   c-0.2,0-0.4,0-0.5-0.2C148.9,222.3,148.6,222.1,148.3,221.9z M820.3,445.4c-1.1,2.6-2.5,5-2.8,7.8c2,1.7,3,3.4,5.8,3.3   c12.6,0.1,29.1,24,39.5,17.1c13.1-9,20.3-26.8,14.3-41.8c-10.6-1-18.3-9.7-27.5-13.3c-5.5,1.1-12.2-0.5-17.1,2.4   c-1.3,0-2.7,0-4.2,0c1.2,2.5,5.5,1.1,3.4,5.2c-8.2,2-17.9-3.1-25.5,0.5c-2.2,5.8-4.1,10.3-5.1,16.4c4.5,2.2,7.6,6.1,12.4,7.4   c3.3-7.5,2.9-17.9,9.3-23.4c2,2.1,1.1,5.2,0.5,7.7c-0.2,0.1-0.2,0.3-0.1,0.5c-0.2,0.6-0.5,1.2-0.7,1.7l0,0   c-0.8,0.6-0.9,1.4-0.7,2.3c-0.2,0.1-0.2,0.3-0.1,0.5c-0.7,0.7-0.8,1.6-0.6,2.5c-0.2,0.1-0.2,0.3-0.1,0.5   C820.8,443.8,820.6,444.6,820.3,445.4L820.3,445.4z M429.5,262.4c1.1-1.6,1.1-4.2,0.2-6c-1.7-3-0.9-6.8-0.8-10.1   c2.5-12.9-0.8-19.3-6.6-30.3c-16.9-20.5-61.6-118.3-92-100.8c-16.2,5.8-33.9,6.5-50.2,12c-13.5,5.4-25,14.2-38.8,18.9   c-17.7,5.6-39.7,13.9-45.8,33.2c-2.9,7.3-11.9,11.6-13.6,19.8c26.1,2.6,52-0.7,77.6-4.2c-2.6-2.2-4.6-4-6.8-6.3   c-2.1,1.8-0.3,3.9-0.4,5.9c-0.5,0.2-0.9,0.4-1.4,0.5c-2.6-4.1-4.3-11.7,1.4-14c0.9,0.3,1.6,0.5,1.9,0.7   c17.3-6.8,33.8-12.9,49.5-22.6c14.8-5.4,22.1-20.5,37.1-6.5c23.9,12.3,46.8,48.3,60.9,71.2c-2.6,13.1-13.9,26.3-8.1,40.1   c2.3,3.8,1.8,13.2,7.5,12.7c-1.7-4.7-5.1-34.1,4.8-29c-0.1,12.8,2.5,25,4.9,37.5c1.1,0.3,2,0.6,2.9,0.9c2.7-12.6-4.9-26.2,0.9-38.1   c3.1,10.7-1.7,22.7,2.9,33.7c1.4-1.1,2.4-1.9,3.6-2.8c1.2-3.6-1.9-31.9,4.5-28.4c-0.2,1.7-0.4,3.4-0.5,4.7   c3.9,6.5,1.3,9.3,0.6,15.5c1.5-1.6,2.2-2.9,3-4.3l0,0C429.6,265,429.6,263.7,429.5,262.4L429.5,262.4z M167.6,469.4   c14.7-7.5,24.6-21.4,19.6-38.3c-1.3-1-1.9-3-3.8-3.2c-4.3-20.6,3.7-41.2,0.5-61.9c0.4-0.5,0.8-1,1.1-1.4   c-0.8-8.6-1.7-17.2-2.5-25.8c-1.4-0.2-2.6,0.6-3.9,1.2c-0.5-1.7,0.9-2.9,1.7-4.2c1.2,0.6,6.9-2.2,6.9-3.7   c-14.1-12.5-22.8-30.6-37.1-42.8c-0.5,3.4-0.4,6.6-1.6,9.7c0,0,0,0,0,0c-17.1,24.9-4.7,48,1.5,74.3c1.4,14.2,1.4,28.5,5.1,42.6   c2.6,7-1.7,13.2-2.8,19.9c-0.6,3.3-0.3,6.8-2.3,10.2c2,0.5,3.7,0.8,5.4,1.2c9.5,7.2,22,9.9,10,23.7c0.4,0.2,0.7,0.3,1.1,0.6   C166.8,470.7,167.2,470.1,167.6,469.4z M817.2,422c1.2,1.1,2.6,0.5,4,0.6c1.2-0.3,2.2,1.5,3.6,0.3c-1.9-1.8-4.3-1.6-6.6-1.9   c-1.5-1.1-2.9-0.8-4.6-0.3C814.4,422.6,815.8,421.5,817.2,422z M503.7,321.9c8.4-10.6,9.9-24.5,13.5-37.2c3.2-8,5.9-16.7,2.1-25   c-27.5-10.3-57.6-13.4-85.9-19.1c-0.6,11.8,4.5,29.8-9.7,35.1c-0.6,3.7-0.5,7.5-4.8,8.7c-1.3,25-13,47-20.8,70.2   c-5.9,10.4-8,23.4-16.2,33c14,8.6,30.8,9.4,44.8,17.3c10,6.3,22.6,5.5,33.6,8.2c17.5-21.4,29.3-50.1,29.2-77.8   c-1.9-1.5-3.8-2.9-5.6-4.4c-0.6-1.7-2.5-2.8-2-5.3c3.8,2.6,8.2,6.3,12.7,6.5C498.5,329,501.7,326.3,503.7,321.9z M505,328.6   c-1.8,1.8-4.8,3.5-4.5,6.5c26.5,12.6,58.7,6.6,87.4,11.1c15.9,0.9,30.4,7.9,46.1,9.8c23.9,3.4,48.2,3.9,70.9,13.1   c13.5,5.4,27.9,2.6,41.8,5.3c22.1,5.1,43.7,11.7,65.8,16.6c0.5-6.1,2.8-10.9,4.1-16.7c-45.2-19.1-86.5-50.9-135.9-57.8   c-7.1-0.3-15.8,1.1-21.8-3.4c-48-6.3-88.1-38.5-134.1-51.1c4,13.3-4.3,25.7-6.5,38.6C517.3,310.9,510.9,320,505,328.6z    M476.7,398.1c-2.4,6.1-6.6,10.2-10.9,15.4c22.7,4.3,45.8,6.5,68.9,6.6c14.8-0.7,32.5-4.8,45.8,2.5c14.4-0.2,28.6-1.9,42.8,0.2   c54.6,24.6,115.8,13.8,173.7,19.9c-0.8-13.8,8-14.4,5.6-17c-1.6-0.4-3.2-0.7-4.9-1.1c0.9-0.9,2.2-0.2,3.2-1.1   c-18.5-6.1-40.9-10.4-58.7-13.4c-21.8-9.4-43.3-16.9-66.8-19.5c-10.7-3.1-33.6,3.9-38.3-8.6c-0.8-0.4-1.8-0.8-2.6-1.2   c-5.7,1.3-10.3-3.7-15.4-5.6c-10.4-6.3-22.6-5.8-34.2-8.1c-32.1-4.4-59.2-25.6-91.1-28.1C494,360.1,486.8,379.9,476.7,398.1z    M256.3,186.2c32.5,21.4,98.8,69.6,137.1,51.7c3.1-4.8,4.2-10,5.2-15.8c-11.4-13.6-19.8-28.9-31.7-42.3   c-9.9-11.4-24.1-19-34.2-30.7c-1.7,0-3.3,0-5.1,0C305.8,164.6,282.3,179.1,256.3,186.2z M648.5,385.7c53.9-4,103.1,26.4,155.5,34.5   c-0.1-0.8-0.2-1.5-0.4-2.2c5.9-1.8,12.9,0.1,19.1-0.9c0.9-1.1,1.5-1.8,1.7-2c5.4-1.2,17,2.8,19.5-0.7c-0.7-0.2-1.4-0.5-2.2-0.8   c-4.7-6.8-21.5-3.9-24.5-17.7c-24.5-6-49.1-13.2-73.9-17.9c-13.3-0.8-26.7,1.6-39.6-3.5c-20.4-7.8-40.7-12.5-62.3-13.9   c-16.7,0.6-31.4-7.9-47.6-9.6c-14.7-1.8-32.2-3.7-45.9-1.5C578.7,366.1,620.8,362,648.5,385.7z M162.6,478.9   c-0.6-1.5-1-2.5-1.4-3.6c-2.3,1.2-4.8,0.6-7,2c0.6,1.4,1.1,2.8,1.6,4.1C158.5,481.7,159.8,479.3,162.6,478.9z M69.8,261.1   c-2.8-0.8-3.9,0.7-5.5,1.6c0.3,0.5,0.6,0.8,0.9,1.3C66.6,263.1,67.8,262.4,69.8,261.1z M34.3,258c0.1-2.3,1.3-4.4,0.9-7.3   C33,253.3,34.2,255.7,34.3,258z M423.4,268.5c1.9-3.3,2-4.4,0.9-7.4C424,263.5,423.7,265.7,423.4,268.5z M825,372.1   c3.7,0.4,3.7,0.4,6.1-0.6C828.6,371.7,826.3,369.4,825,372.1z M81.6,262.1c-3.1-0.7-3.1-0.7-4,0.6C78.9,263.2,80,263.4,81.6,262.1z   " />
	<path fill="#010101" d="M39.4,286.6c0.3-9.4-1.2-20.1,2.2-28.9c1.3,0.3,1.3,1.3,1.3,2.1c-1.6,14.6-1.5,29.2-0.1,43.8   c1.2,9.4,4.7,18.4,4.2,28.1c0.5,23.5-8.2,47.5-26.4,62.9c-4.4,3.1-5.1,12.1-11.2,11.8c5.7-12,12.2-23.7,14.7-37   c-0.8-0.3-1.5-0.6-2.1-0.8c-0.4,1.1-0.7,2.1-1,3c0.3-2.2-0.8-3.8-1.1-6c-0.5,0.8-0.9,1.4-1.3,2c0-0.6,0-1.2,0-2.1   c-0.7,0.9-1.2,1.5-1.6,2.1c0.5-2.1,1.1-4.1,1.6-6.2c0.1,0.9,0.2,1.8,0.3,2.9c0.9-0.9,0.4-2.4,2-2.3c0.1,1.2,0.1,2.4,0.2,3.7   c3-1.7,0.7-6.7,1.4-9.6c0.5-3.9,1-7.6,0.8-11.6c1.1-1,1.8-2.2,1.6-3.7c1.5,2.2,1.2,10.7,3.1,10.8c1.5-10.9,3.3-22,0.9-33.8   c6.6,5.2,2.3,16.8,4.1,24c5.3-11.5-2-23.4,0.3-34.4c0.4,1-0.6,2.3,0.7,3c0.8,4.8,2.2,9.5,2.6,14.3c0.1,0,0.3,0,0.4,0   c1.8-11.6,3.3-23.8-2.3-34.7c0.1-0.4,0.1-0.7,0.2-1.1c0.3,0,0.5,0,0.8,0c2.5,3.7,4,7.8,4.6,12.2c0,1.3-0.4,2.7,1.2,3.6   C41.1,298.8,40.1,292.7,39.4,286.6z M22.4,387.5c-1,1-1.1,2.2-0.8,3.6c15.6-22.9,28.7-53.2,19.4-80.5c-0.2,12.8-3.9,24.4-4,37.2   C35.8,362.3,25.8,373.5,22.4,387.5z M34,353.2c1.1-1.8,0.7-3.8,0.5-6.3c-1.6,6-4.5,10.6-4.2,17C32.4,360.2,33.4,356.8,34,353.2z    M24.4,368.6c2.6-7.9,3.4-15.3-0.1-23C23.8,353.9,21.9,360.2,24.4,368.6z" />
	<path fill="#010101" d="M24.8,340.8c0.2,1.5-0.5,2.7-1.6,3.7c0.3,4-0.3,7.7-0.8,11.6c-0.7,3,1.6,8-1.4,9.6   c-0.1-1.3-0.1-2.5-0.2-3.7c-1.7-0.1-1.2,1.4-2,2.3c11-41.1-42.4-139.3,0.7-162.1c0.8-0.9,1.3-2.1,0.5-3.6   c4.2-7.7,10.9-18.5,21.1-17c1.8,2.7,3.9,4.9,5.7,7.6c-0.3,0.4-0.6,0.7-1,1.2c-2.4-2.4-5.2-6.6-8.2-6.3c1.1,2.6,4.2,2.7,4.8,5.6   c-2.6,0.9-3.8-3.7-6.7-3.8c-2.9-0.6-3.9,3.3-6.4,4c-1.9,0.8,0.5,2,1.4,2.5c-0.5,0.2-1,0.5-1.5,0.7c-0.4-0.1-0.9-0.2-1.3-0.3   c-1.2-1.1-1.8,1-2.3,1.7c-0.2,0.3-0.7,0.6-0.6,0.7c0.7,1.7,0.2,3.2-0.8,4.7l0,0c-1,0.3-0.8,1-0.7,1.7c0.7,0.4,1.4,0.9,2.2,1.3   c-0.6,1.1-2.2,0.6-3.2,1.4c-3.4,4.1,2.6,4.1,5.4,5.6c0.1,0.2,0.2,0.4,0.1,0.6l0,0c-1,0-2,0-3.1,0c-3.1-3.7-4.2,0.2-3.9,3.2   c-0.1,1.8,2.2,2.4,3.2,3.6l0,0c-4.7-0.3-5.2,0.7-4.2,5.2c5.7,0.8,8.4-0.1,13.3-1.4c0.8,0.3,2-0.3,2.4,0.9   c-4.6,1.1-9.1,3.5-13.9,2.5c-1.7-0.2-2.4,1.1-2,2.7c1.6,0.1,3-0.2,4.3,0.7c-1.8-0.1-3.5,0.5-5.2,0.8c-0.8-1-0.9-1.2-1.7-2.6   c-4.2,8.7-2.8,16.8-4.4,25.5c0-10-1.4-20.7,3.5-29.6c0.8-1.4,1.3-2.7,0.7-4.3c-0.6,0-1.2,0-2.2,0c1.1-1,1.9-1.8,2.6-2.5   c-0.4-0.7-0.7-1.2-1-1.7c1.9-2.6,1.9-2.7,1.3-6C6.7,217.8,5.2,234.1,9.2,248c-1.8,0.3-1.9-1.2-2.7-2.4c1.5,18.6,5.1,36.4,10.4,53.6   c0.4-1.3,0.1-2.5,1.1-3.4c1.7,10.3,3.9,20.6,4.7,31c0.2,0,0.4,0,0.6,0c0.1-7-0.4-13.8,0.3-20.8C26.4,317.2,24.1,329.2,24.8,340.8z" />
	<path fill="#0A0807" d="M120.4,202.7c-0.5,0.1-0.9,0.2-1.4,0.3c0.1,0.6,0.3,1.1,0.4,1.5c-13-5.6-23.9-16.3-38.9-16.2   c-1.1-0.9-2.3-1.1-3.7-1.2c-0.4,0.3-0.8,0.6-1.3,1c-0.8-0.6-1.6-1.1-2.4-1.7c0.2-0.8,0.3-1.3,0.4-1.9c-1.3-0.7-2.4-1.2-4-0.6   c1.2,2.2,2.5,3.9,4.8,4.9c0,0.4,0,0.6,0,0.9c-0.8,0.3-1.7,0.5-2.3,0.7c-2-0.8-3.8-1.6-6.5-2.7c1.7-0.3,2.6-0.4,4-0.6   c-0.9-0.6-1.4-1.4-1.9-1.4c-3.7,0.1-5.5-4.3-9.2-4.4c7.5-2.7,17.5,0.7,24.8,3c6.1-2.3,12.3-3.2,17,2c4.1,4.5,13.3,5.6,14.3,12.3   C116.6,200.1,118.5,201.4,120.4,202.7z M107.3,194.2c-1-0.9-2.1-1.6-3.6-2.2c1.4,3.7,4.6,4.8,8.4,5.9   C111.6,195.3,109.2,195.5,107.3,194.2z M98.9,188.1c-2.8-2.4-4.9-3.1-7.8-2.4c0.8,1,1.6,2,2.2,2.8c1.4,0.2,2.7,0.3,3.9,0.5   c0.9,0.8,1.8,1.1,2.9,0.4C100.3,188.5,99.7,188.3,98.9,188.1z M87.8,185.3c-1.3,1.1,0.5,3.6,1.8,2.3   C89.4,186.6,89.1,185.6,87.8,185.3z" />
	<path fill="#DDC4B4" d="M162.2,482.9c-0.7,1.1-1.3,2.1-2.2,3.4c-4.7,1.7-9.4,1.7-14.4,2.3c0,0.6-0.1,1.2-0.1,1.8   c-0.5-0.2-1-0.4-1.5-0.7c-0.7-1.6-2.1-2.9-2.2-4.9c-0.8-1.8-3.2-2.5-4-4.3c0.8-4.2-0.8-6.9-2-11c0.6-0.9,1.3-2.1,2.1-3.4   c1.1-0.1,1.6,0.7,2.3,1.3c1.7,2.4,3.5-0.9,3.1,4.6c-1.1,1.9-3.2-0.1-3.7,3.1c3.9,2.2,8.4,0.6,12.6,1.5c0.3,1.6,0.5,2.9,0.7,4.3   c-1.7,0.4-3.4,0.7-5.1,1.1c-0.5-0.3-1.4,0.2-1.5-0.7c-0.1-1.3-2.4-2.9-2.8-0.9c1.1,0.8,2.1,1.9,2.8,3.2c3.7,0.4,7.7-1,11.1,0.8   c1.7-0.9,3.3-1.6,4.9-2.4C162.2,482.3,162.2,482.6,162.2,482.9z" />
	<path fill="#010101" d="M17,367.6c0.5-0.6,0.9-1.2,1.6-2.1c0.2,9.4-4.8,17.8-7.7,26.5c-1.6,1,0.3,2.7-0.6,4   C3.9,399.5,16.5,370.8,17,367.6z" />
	<path fill="#221D1A" d="M42.5,183.6c-0.4-0.3-1.1-1.3-1.3-2c-0.6-0.1-1.3-0.2-2-0.3c4.1-4.2,25-1.1,14.5,1c0.7,1.7,0.7,1.7,0.2,2.8   c-2.7-2.7-4.1-5.9-7.3-2c-1.6-0.3-2.7-1.9-4.3-0.8C42.4,182.8,42.4,183.2,42.5,183.6z" />
	<path fill="#DCDDDD" d="M21,371.6c0.3-0.9,0.6-1.9,1-3c0.6,0.2,1.2,0.5,2.1,0.8c-1.6,7-3.5,14.1-6.9,20.4c-0.2-0.5-0.5-1-0.7-1.5   c1.2-3.2,2.1-6.6,3-9.9c0,0,0,0,0,0c0.2-0.8,0.4-1.6,0.6-2.3c0.2-0.2,0.2-0.4,0.1-0.6c0.8-0.9,0.8-2.1,0.7-3.2   C21.1,372,21.2,371.8,21,371.6z" />
	<path fill="#191817" d="M19.5,378.4c-1.7,6.4-3.7,13.5-9.1,17.7c0.8-1.4-1-3.1,0.6-4c3,1.2,6.6-12.1,7.1-15.1   c0.2-0.1,0.4-0.2,0.6-0.3C18.7,377.4,18.6,378.1,19.5,378.4z" />
	<path fill="#221E1D" d="M138.1,481.3c3.3,2,4.1,5.4,5.9,8.4c-3,0.8-4.6-1.5-4-4.3c-1.3-1.4-2.5-2.7-3.8-4.1   C136.8,481.4,137.5,481.4,138.1,481.3z" />
	<path fill="#5A4F46" d="M55.4,182.1c2.5-0.4,0.8-1.3-0.1-2.2c2.6-0.1,5.2-0.6,7.7,0.6c-1.5,0.3-3.8-0.7-4.7,0.9   c1.1,1.3,1.8,2.1,2.5,3.8c-0.8,0-1.3,0-1.7,0l0.1,0.1C57.9,184.1,56.7,183.1,55.4,182.1z" />
	<path fill="#BDB8B8" d="M39.4,298c-0.3-1.2-0.6-2.4-0.9-3.7c1.7-1.9,0.4-5.3,0.8-7.7c0.9,2.8,0.4,5.6,0.8,8.4   C39.7,296,40.6,297.2,39.4,298z" />
	<path fill="#24201F" d="M88,261.6c0.6,0,1.2,0,1.8,0c0.5,0.8,1,1.7,1.4,2.4c-0.8,1.4-1.9,1.4-3,1.5c-0.3-0.3-0.7-0.7-1-1   c0.4-0.4,0.9-0.8,1.2-1.1C88.3,262.7,88.2,262.1,88,261.6z" />
	<path fill="#9D9C90" d="M35.5,289c-0.3,0-0.5,0-0.8,0c-1-2-1.5-4.7-0.1-6.7c0.1,1.6,0.1,3.2,0.2,4.8c0.6,0.2,1,0.4,1.5,0.5   C36,288.1,35.7,288.5,35.5,289z" />
	<path fill="#2B2622" d="M891.4,420.3c0-0.5,0-1,0-1.5l0,0c0.3,0,0.6,0,0.9,0.1C892,419.3,891.7,419.8,891.4,420.3z" />
	<path fill="#24201F" d="M87.5,266.3c0-0.6,0.2-0.9,0.8-0.8C88,265.7,87.7,266,87.5,266.3z" />
	<path fill="#9D9C90" d="M36.4,287.5c0.2-0.3,0.3-0.6,0.5-0.9C37.1,287.1,36.9,287.4,36.4,287.5z" />
	<path fill="#2B2622" d="M890.6,421c0.3-0.2,0.5-0.5,0.8-0.7C891.4,420.8,891.2,421.1,890.6,421z" />
	<path fill="#2B2622" d="M889.3,422.1c-0.1-0.7,0.2-1,0.9-0.9C889.8,421.5,889.6,421.8,889.3,422.1z" />
	<path fill="#FFF0A7" d="M302.8,318.8c-0.2,0.1-0.3,0.3-0.2,0.6c-2.9,5.2-5.5,10.6-9,15.5c-6.6-4.2-21.6-7.3-17.6-17.6   c-1.1-1.6-2.1-3.1-3-4.6c0-2.8,0-5.6,0-8.5c-2.8-2.9-3.8-6.9-6.5-9.8c-0.6,1.1-0.5,1.9,0.3,2.5c6.8,32.4-23.6,44.8-50.9,41   c-16.3-6.4-28.5-20.5-40.5-32.7c-1.2,0-2.2,0-3.2,0c-6-7.6-14.6-12.7-21-19.9c0-2.9,0-5.5,0-8.4c10.1,4.8,20.8,8.2,30.9,13.1   c7.2,5.8,16,4.7,23.3-0.2c16.5-11.2,20.6-30.8,17.3-49.7c-6.3-21.8-34.9-23.6-53.8-27.4c3.5-4,6.7-7.5,9.9-11.2   c29.5,10.6,61.4-4.5,90.4-0.7c15.4,9.5,31.3,17.7,47.3,26c2.4,1.3,5.9,2.5,6.2,5.6C321.3,262.2,313.6,291.1,302.8,318.8z    M258.4,280.5c20.4,5.5,32.3-9.5,36.7-27.6c2.1-4.1-1.5-29.3-7.9-27.2c-1.3-1.2-2.5-2.6-3.7-3.9c-3.2-1.1-0.7,6.9,0,8.8   c6.8,22.9-2.1,23.6-20.1,32.9c-4.4,2.5-9.7,1.2-14.4,2.4c-4-1.3-11.7-2.3-14.3,1.8C240.8,274.3,249.3,279.9,258.4,280.5z    M277.4,216.1c0.4,1.7,1,2.8,2.8,3.1C280.5,217.4,280.5,217.4,277.4,216.1z" />
	<path fill="#F6D9C7" d="M476.7,398.1c10.1-18.1,17.3-37.9,17.1-59.3c32,2.6,59.1,23.7,91.1,28.1c11.6,2.3,23.8,1.8,34.2,8.1   c5.1,2,9.6,6.9,15.4,5.6c0.9,0.4,1.8,0.8,2.6,1.2c5.1,12.7,27.4,5.4,38.3,8.6c23.6,2.6,45,10.1,66.8,19.5   c17.8,3,40.2,7.4,58.7,13.4c-1,0.9-2.3,0.3-3.2,1.1c1.7,0.4,3.3,0.8,4.9,1.1c0.8,0.8,0.8,1.8-0.1,2.2c-3.3,1.4-3.7,4.9-5,7.7   c-48.2-5.5-97.2-6.2-145.2-11.8c6.2-3.2,14.1-5.6,16-13.2c-7,0.5-14.7-9.1-18.1-7.3c1,3.4,6,4.2,8.9,5.7c0,0.2,0.1,0.4,0.1,0.6   c-12.7,3.5-28.5,9.4-40.7,1c0.9-1.8,1.7-3.4,2.5-4.9C575.3,410.9,523.1,409.5,476.7,398.1z M631.3,396.5c7.2-3.1,9.2,5.3,15,6.3   c-4.1-8.7-5.6-10.2-15-8.6c-5.2-5.3-7.1-6.6-11.9-8.1c-0.9,0.6-1.2,0.6-1.4,2.1C622.1,391,627,393.1,631.3,396.5z M674.4,413.5   c-1.1,3.7,4.1,3.1,6.4,3.7C679,415.7,677.1,414.6,674.4,413.5z M782.6,423c2,0.6,6.1,2,7.1-0.1C787.4,421.9,785.1,421.8,782.6,423z    M779.8,423.2c-2.9-1.5-2.9-1.5-5-0.5C776.6,423.6,776.6,423.6,779.8,423.2z M695.5,419.3c-1.2-2.1-4-1.8-4.6,0.2   C692.4,419.9,693.7,419.6,695.5,419.3z M767.9,420.5c-0.8-1-2.3-1.6-2.3,0.2C766.5,421.2,766.8,421.1,767.9,420.5z M686.6,418.3   c0.1-1-1.1-1.5-1.7-0.8C684,418.7,686,419.1,686.6,418.3z" />
	<path fill="#F6D9C7" d="M505,328.6c5.9-8.6,12.3-17.7,13.3-28c2.2-12.9,10.5-25.2,6.5-38.6c45.9,12.5,86,44.7,134.1,51.1   c6,4.5,14.6,3.1,21.8,3.4c49.4,6.9,90.7,38.6,135.9,57.8c-1.2,3.6-1.2,8.2-4.4,10.7c-22.1-8.7-45.1-20.8-69.6-20.6   c1,0.8,1.9,1.4,3,2.2c-22.4,1.2-47.4-2.1-67.8-11.5c5.2-5.9,13.1-7.9,18.1-14.2c-7.6-8.7-18.5,3.1-27.4,3.2   c-6.8-4.1-12.5,1.8-23.2-4c-4.5,5.8,10,6.4,13.3,4.6c1.7-1,3.5-0.1,5.4,0c0.7,1.4,3.3,0.7,3.3,3c-10.4,3.2-22.3,7.1-32.9,2.8   c0.3-4.3,6.4-5.4,5.7-9.9c-8.8-2.4-17.6,3.8-26.2,4c-32.9-0.6-61.3-17.7-91.6-27.2c-2.2,3.3,13.4,11.8,14,15.5   c-6.2-0.4-12.5-0.8-18.7-1.7C513.6,330.2,508.1,331.5,505,328.6z M649.3,321.9c-3.7-4.2-11.1-9.7-15.8-6.3c0.4,1.8,1.9,1.9,3,2.1   c3.8,0.9,7.2,2.4,10.4,4.5c8.1,3.2,15,1.7,21.8,7c0.2-0.3,0.4-0.6,0.6-1C665.9,321.1,656.3,318.3,649.3,321.9z M693.3,345.5   c2.5,0.2,4.4,0.2,6.4-0.3C697.9,343.3,695.3,343.3,693.3,345.5z M711.7,347.4c-1.1-1.6-1.8-1.6-3.2,0.1   C709.6,348.2,710.7,348,711.7,347.4z M715.2,349.8c0.6,0,1.2,0,2.6,0C716.6,348.6,715.3,347.7,715.2,349.8z" />
	<path fill="#FF9A77" d="M483.9,330.9c1.9,1.5,3.8,2.9,5.6,4.4c0.5,18.3-5.3,37.6-14.3,53.8c-2.9,1-5.8-2.2-8.7-2.8   c-9.2-4.1-19.6-6.4-28.1-11.6c2.4-4.6,5.2-8.7,7.2-14.1c-4.8,3.8-7.8,8.3-11.3,12.3c-4.3,0.1-8.4-2.9-12.5-4.2   c-0.6-3.8,2.2-6.9,1.2-10.7c-3.4,2-4,5.7-5.7,8.9c-6.7-2.8-14-5.8-19.7-10.1c7-24.2,20.1-46.5,21.2-72.3c4.3-1.3,4.3-5,4.8-8.7   c14.2-5.3,9-23.3,9.7-35.1c28.2,5.6,58.4,8.8,85.9,19.1c3.8,8.4,1.1,17-2.1,25c-4.2,12.9-4.4,29.9-15.8,38.6   c-6.5-1.7-33.9-6.9-38.1-3C468.5,325.5,477.6,326.7,483.9,330.9z M459.9,363c-0.9,0.7-1.4,1.6-1.4,3.1c5.8-7.2,12.2-15.2,15.2-24   C468.1,347.5,464.8,356.4,459.9,363z M458.3,350.7c-1,2.3-4.6,4.3-2.6,6.9c-1.4,2.4-12.9,15.8-9.2,16.7c7.3-9.5,16-18.4,21.8-28.9   c-1.6-2.1-2.7,0.9-4.3,1.2c-0.1-0.5-0.1-0.7-0.2-1c2.4-5.1,9.7-7.7,10.5-13.1C469.3,335.3,461.9,343.8,458.3,350.7z M443.1,291.3   c0.6,3.3-1.3,9.6,2.1,11.1c-0.4-10.8-1.9-22.1,1-32.6c0.3-1.3,0-2.7-1.7-2.9c-5.4,8.6-4.2,19.6-4.3,29.9   C442.4,295,441.1,293.1,443.1,291.3z M455.4,289.8c0.9-10.2,0.1-20.5,1.4-30.6c0.3-1.5,0.6-4.3-1.8-4.4c-3.3,4.7,0,11.8-3.9,16.1   c0.3,0.4,0.6,0.8,0.7,0.8c0.4,10.4,0.8,20.4,1.6,30.7c1.6,0.7,2.3,0,2.9-1.2c10.5,18.1,2.3-33.7,1.9-37.7   c-1.7,9.1,0.3,19.2-2.7,27.8C455.4,290.8,455.4,290.3,455.4,289.8z M434.5,364.4c7-7.3,12.5-14.8,19.9-21.5   C451.2,337.8,432.2,360.2,434.5,364.4z" />
	<path fill="#F6D9C7" d="M304.1,319.5c0.2-0.2,0.2-0.4,0.2-0.6c12-27.3,23.1-56.3,22.2-86.6c19.7,9.8,41.7,19.8,64,12.6   c-2.6,11.2-0.9,22.5,5,32.1c2.7,2.6,8.6,3.6,8.1-1.7c-1-8.3-4.9-16.4-0.2-24.6c0.5,13.2,1.2,27.1,6.9,39.1c0.8-0.2,1.5-0.5,2.2-0.7   c-0.8,18.2-8.5,35.8-13.3,53.4c-12.5,1.5-25.8,1.7-38,5.3c2.8,1.8,5.2,3.4,7.7,5.1c-24.3,10-51.3-1.4-70.6-17   c-0.1-0.5-0.2-0.9-0.2-1.3c1.7-3.9,3.5-7.8,4.8-11.9C303.9,322,303.4,320.5,304.1,319.5z M353.9,299.6c-8.1-3.2-18.4-7.6-27.3-4.2   c2.4,4.4,8.7,3.1,12.4,5.5c8.4,2.7,27.3,13.8,33.9,5.5c-0.4-1.9-0.3-3.4-1.9-4.8c-1.8,1.5-2.3,3.5-4.3,4.2   C362.5,303.9,357.7,302.3,353.9,299.6z M383.6,253.9c-1.8-0.5-4.7-4.3-5.4-0.6c2.7,1.1,6,2.7,8.6,3   C386.3,254.6,384.9,254.4,383.6,253.9z" />
	<path fill="#F6D9C7" d="M248.5,189.8c0.8,1.7,1.6,3.4,2.4,5.1c0,0.3-0.1,0.7-0.1,1c-22.6,2.7-45.7,5.6-68.8,3   c1.7-8.1,10.7-12.5,13.6-19.8c6.1-19.3,28.1-27.6,45.8-33.2c13.8-4.6,25.3-13.5,38.8-18.9c16.3-5.5,34-6.2,50.2-12   c17-6,23.8,2.1,33.1,14.7c24.4,27,42,59.9,61,90.5c0.9,4.4,5.3,7.5,5.1,12.3c1.3,7.9-2.7,16.2,0.2,23.7c0.7,1.2,0.7,2.4,0.3,3.7   c-1,0.6-0.8,1.5-0.6,2.4l0,0c-1.3,0.9-0.8,2.4-0.9,3.8c-1.3-1.5-0.5-3.5-0.8-5.3c-1.7-3.4-3.4-6.4-2.3-10.6   c-4.9-2.6-3.1,10.7-4.6,13.6c-1.7,0.9-3.3-0.5-5-0.1c-1.8-5.3,1.4-11.2-1.4-16c-3.1,5.4-2.7,11-2.8,17.4c-1.6-0.7-2.9-1-4.4-1.1   c-0.5-1.1,0.4-2.5-0.9-3.2c-0.1-4.4-0.3-9-0.6-13.3c-5.4-3.5-5.6,5.5-7.1,8.7c-1.7,2.4-0.4,7.3,0.2,9.7c-0.2,0.2-0.3,0.3-0.5,0.5   c-0.8-0.9-1.5-1.7-2.3-2.6c-1,0-1.8,0-2.6,0c-6.8-16.2,9.6-31.8,9.9-46.6c0.9,0.1,1.7,0.1,2.1-1.3c-0.6-2.3-2.2-4.3-4-6.6   c-0.4,1.7-0.5,2.2-0.6,3.8c-17.7-27.6-37.8-54.7-66.8-71c8.5-20.7-34.1,12.8-39.5,14.5c-13.1,5.9-27.8,8.1-39.4,17.5   c-4.4,3.7-13.8,1.6-12.1,10.1c1.3,1.1,2.7,2.2,4.5,3.7C247.9,188.2,247.4,189.4,248.5,189.8z M407.8,234.1c0.2-0.1,0.5-0.1,0.7-0.2   c-1.4-3,1.1-5.7,0-9.2C407.2,227.1,405,232.5,407.8,234.1z M397.5,201.9c0.2,2,0.2,3.5,2.1,4.5   C401.4,204.5,399.9,202.7,397.5,201.9z M397.2,200.2c-0.1-1.6-1.2-3.1-2.9-2.8C395.1,200.4,395.2,200.5,397.2,200.2z M407,242.2   c0.3-1.4,0.3-1.4-0.3-3.2C405.3,241.2,405.3,241.4,407,242.2z" />
	<path fill="#F6D9C7" d="M55.4,182.1c1.3,1,2.6,2,3.8,3.1c-1-0.1-2-0.7-2.9,0.3c0.7,1.2,1.6,1.4,2.8,0.8c0-0.4,0-0.8,0-1.2   c0.5,0,0.9,0,1.7,0c-0.7-1.7-1.4-2.5-2.5-3.8c3.6,0,5.5,4.4,9.2,4.4c0.5-0.1,1.1,0.7,1.9,1.4c-1.4,0.2-2.2,0.3-4,0.6   c2.6,1.1,4.5,1.9,6.5,2.7c17.2-7.9,32.5,7.7,47.4,14c10.2,6.1,14.5,15.4,15.3,27c0.6,9.2-9.4,14.3-15.3,19.8   c-4.7,3.4-11.2,1.4-16.7,1.9c-5.7,1.2-11.2,0-16.8,0.2c-18.7,3.1-43.7-3.4-51.9-22.3c1-0.8,1-1-0.2-1.4l-0.1,0   c-0.2-0.6-0.4-1.1-0.5-1.7c1.4-0.8,3-1.3,1.5-3.1c1-0.7,1-0.9,0-1.5l0,0c0.3-0.5,0.6-1,0.8-1.5l-0.1-0.2c2.4-0.2,3.5-2.4,5.3-3.7   c0.6-0.1,1-0.6,0.7-1c-1.1-1.4,0.2-2.7,1-3.7c-0.4-1-2-1.5-0.8-2.8c0.9-1.3,2.3-4.3,0.7-5.3l0,0c-1-1-2-2.1-3.1-3   c0-0.6-0.3-0.8-0.9-0.7c-0.8-0.4-1.4-1.1-2.1-1.7c0-0.3,0.1-0.5,0.1-0.8l0,0c1,0,2,0,3,0c0.8,0.9,1.9,1.8,2.5,2.9   c-0.1,1.5,3.5,0.8,1.6-0.6c-2.7-2.3-3.2-5.9-6.3-7.5c-0.2-0.8-0.8-0.9-1.5-0.8l0,0c-0.3-0.8-0.9-0.8-1.6-0.7   c-1.1-1.8-4.2,0.3-4.5-2.4c5.7-4.1,11.3,7.3,16.1,1.7c-1.1-0.7-2-1.3-3-1.8c-0.3-0.7-0.7-1.4-1-2.1c0.3-0.3,0.6-0.6,0.9-0.9   c1.1,1.2,2.2,2.4,3.5,3.7c1.3-0.9,0.6-2.3,1.9-3c1.8,1,1.8-0.5,2.9-1.5c0.8,0.1,1.6,1.5,2.3,0c1.3-1.1,1.6-1.6,0.7-3.7   C54.3,182.2,54.8,182.2,55.4,182.1z M118,241.1c5.8-0.9,8.3-20.6,2-19.7c-0.5-0.8-1.3-2.4-2.2-3.2l0,0c-0.2-1.8-2.7-0.7-2.1,0.8   c0.2,2.1-1,3.6-2.1,5.1c-4.8,6.1-1.1,14-4.1,20.6c2.7,0.6,2.8-2,5-3.1c0.7,0.6,1.3,1.1,2.2,1.9C117,242.6,117.5,241.8,118,241.1   L118,241.1z M56.9,245.4c-1.4-0.9-2.8-0.8-4.3-0.5c0.2,1.4,1,1.5,2,1.3c1.4,0.6,2.7,1.7,4.5,1.3C59.1,245.8,58.1,245.5,56.9,245.4z    M102.7,219.5c-1.7-1.6-4-1-5.5,0.4c1.7,1.2,3.1,0,4.5,0c1.3,0.5,1.2,2.4,3,1.6C104.4,220.4,104,219.5,102.7,219.5z M78.9,199.6   c-2.3,4.5-1,10.8,3,13.6c0.5-0.3,1-0.6,1.6-1c-0.4-0.9-0.8-1.7-1.1-2.5c1.1-0.8,2-1.6,3-2.3c-0.1-1.4-0.1-2.7-0.2-3.9   c-0.8-0.6-1.4-1.2-2.1-1.7c0.9-2.6,5.5-3.2,2.2-6.2c-1.7,1.2-2.9,2.7-3.9,4.3c-0.3-0.2-0.5-0.4-0.9-0.7c1.1-1.5,2-2.9,3-4.3   C81.3,192.8,79.3,197.9,78.9,199.6z M76.7,237.8c1-1.9-0.3-3.3-1.1-4.8c1.2-0.9,2.2-1.6,3.3-2.5c-0.4-0.7-0.7-1.3-1.2-2.1   c-2.5,3.1-7.3,2.5-8.4,6.3c-0.6,2.7-2.5,11.3,0.8,11.8c-0.1-2.4-0.7-5-0.2-7.6c2.7,1.9,0.6,6.2,3.1,8.5c1.4-2.4,0.1-4.5,0.2-6.5   c0.9-0.5,1.8-1,2.7-1.5c0.7,0.4,1.4,0.9,2.2,1.4c0.8-1.2,1.3-2.3,1-4.1C78,237.5,77.8,238.6,76.7,237.8z M61.9,247.4   c-1.3-7,9.2-24.1,6.2-24.6C63.1,227.3,59,241.2,61.9,247.4z M72.8,213.1c-0.4-6.5-1.8-13.2,1.5-19c0.5-0.7,1.2-1.4,0.5-2.5   C69.4,194.6,67.3,209.3,72.8,213.1z M100.7,229.4c-1.6,0.3-2.1,1.5-2.6,2.9c0.4,0.8,0.9,1.7,1.3,2.5c-1.9,1.7-3-0.8-4.6-0.6   c-0.2,0.3-0.3,0.6-0.5,0.8C98,240.7,103.7,234.1,100.7,229.4z M102.7,226.6c1.3-2.4,0.8-5.7-2.2-2.9   C100.9,225,100.8,226.4,102.7,226.6z M76.8,225.5c-1.4-2.1-6.2-1.2-6.2,1.6C72.8,226.5,74.7,226.1,76.8,225.5z M86.1,209.6   c1.6-1.4,2.5-3.2,1.3-5.4C86,205.8,85.1,207.3,86.1,209.6z M82.3,216.4c-1.4-2.6-1.4-2.6-3.2-2.4C79.5,215.4,80.5,215.9,82.3,216.4   z M78.9,224.5c0.9,1.7,2.2,1.2,3.7,1C81.6,223.9,80.4,223.9,78.9,224.5z M99,227.4c-1.7,0.1-2.7,0.3-3.1,1.6   C97.6,229.8,97.6,229.8,99,227.4z M90,227.7c-0.7-0.9-1.1-1.4-1.7-2.1c-0.4,0.8-0.7,1.3-1.1,2.1C88.2,227.7,88.8,227.7,90,227.7z    M62.7,185.8c-0.2,0.5-0.3,0.8-0.4,1.1C63.5,187.6,63.9,186.5,62.7,185.8z" />
	<path fill="#F6D9C7" d="M149.2,222.5c0.1,0.2,0.3,0.3,0.5,0.2c4,1.6,6,5.2,10.5,5.7c-3.1-2.8-5-5-8.7-6.5c-0.1-0.2-0.3-0.3-0.5-0.2   c-0.3-0.2-0.7-0.5-1-0.7l0.1,0c4.6-1.9,11.4-0.5,15.4-5.1c28.7,5.9,62.5,7.5,53.3,46.6c-8.3-0.7-13.3-2.4-19.8-7.6   c-0.1,3,2.2,4.3,3.6,6.4c-0.9,0.8-2.7,0.7-2.7,2.2c1.7,0.9,3.3,0.2,4.8-0.6c1.1,0.5,2.2,1,3.3,1.5c3.7-1.3,6.8,0.8,10.3,2   c-14.6,29.9-29.7,28-54.4,11.2c4-6,7.6-15.5,9.7-22.1c-5.2,5.6-7.9,14.7-9.6,22.1c-4.1-0.2-8.2-1.8-12-2.7   c-2.7-3.5-6.7-5.6-7.2-10.2c8.2,0.7,15.3-3,22.9-4.2c-0.1-0.8-0.2-1.4-0.4-2c-7-0.1-13.8,0.3-20.8-0.3c3.6-13.9-0.2-29.2-9.9-39.2   c0.4-0.1,0.9-0.2,1.4-0.4c2.9,1.4,6.6,0.5,9.2,2.3c0.2,0.7,0.7,0.9,1.3,0.9l0,0C148.6,222.1,148.9,222.3,149.2,222.5z M166.8,234.1   c-1.6-2.9-2.6-3.7-4.6-3.5C163.2,232.5,164.7,233.6,166.8,234.1c1.1,1.9,3.2,4.5,5.6,3.5C170.8,235.6,169.2,234.2,166.8,234.1z    M178.2,226.7c-0.3,0.1-0.5,0.1-0.8,0.2c0,5-2.6,10.4-0.7,15C178.9,237.4,179.3,231.3,178.2,226.7z M177.9,248.8   c-4.4-0.5-7.6,0-9.4,1.7C171.7,250.9,176.1,252.2,177.9,248.8z M197.7,264.7c-1.4,0.4-2.5,1.2-3,2.8   C197.4,267.2,198.1,266.6,197.7,264.7z M196.6,252.7c-0.2-2.3-0.2-2.3-1.4-3.9C194.3,250.2,194.5,250.9,196.6,252.7z M163.9,249.4   c-1.9-0.2-3.1-0.4-4,0.9C161.3,251.1,162.3,250.6,163.9,249.4z" />
	<path fill="#F6D9C7" d="M169,466.1c5.3-13.1-9.9-12.7-14.3-20.4c0.1-16.6,9.7-8,8-19.9c5-1,10,2.3,14.6,1c0.8-3.8-5.1-1.7-7.1-2.9   c-1.7-8.5-7.1-15.7-10.2-23.6c-1.7-10.5-1.5-22.2-6.4-31.8c-1.4-2.3-2.2-5.4-1.8-8c2-0.9,4,0.2,5.7-0.9   c-3.8-17.4-17-25.6-10.9-46.8c2.2-4.4,2.7-9.2,1.9-13.8l0,0c1.8-2.5,0.7-6.4,1.6-9.7c11.7,10.7,20.9,24.3,30.6,36.9   c-0.4,2.3-2.8,2.9-4.5,4c-4.9,2.9-6.2,8.6-10.8,12c0,1.5-0.4,3,1.7,3.3c0.8-0.7,1.5-1.4,2.3-2.1c1.3,0,2.4-0.1,2.8-1.6   c0.6,0.1,1.2,0.1,1.6-0.6c1.5-0.9,3.2-1.5,4.9-1c1.2-0.6,2.4-1.4,3.9-1.2c0.8,8.6,1.7,17.2,2.5,25.8c-0.3,0.4-0.7,0.9-1.1,1.4   c3.2,20.7-4.7,41.4-0.5,61.9c1.9,0.2,2.5,2.2,3.8,3.2c4.4,15.5-3.3,29.6-17.2,36.7C169,467.6,169.2,466.8,169,466.1z M179,452.1   c-2.5,1.2-2.5,1.2-2.7,3C178.6,454.2,178.6,454.2,179,452.1z M163.5,346c-0.2-0.6-0.5-0.5-1-0.2C162.8,346.3,163.1,346.2,163.5,346   z" />
	<path fill="#E1C7B6" d="M663.8,409.7c1.5,0.3,2.9,0.6,4.6,0.9c-1.9,7.6-9.7,10-16,13.2c48,5.5,96.9,6.3,145.2,11.8   c-0.2,2.3-0.3,4.5-0.5,7.1c-57.8-6.1-119.1,4.8-173.7-19.9c-14.2-2.2-28.4-0.5-42.8-0.2c-13.3-7.4-31.1-3.2-45.8-2.5   c-23.1,0-46.2-2.3-68.9-6.6c4.3-5.1,8.5-9.3,10.9-15.4c46.4,11.4,98.6,12.9,144.3,7.6c-0.7,1.5-1.6,3.1-2.5,4.9   c12.2,8.4,28,2.5,40.7-1c2,0.6,3.9,1.2,6.7,2.1C664.8,410.6,664.3,410.1,663.8,409.7z M615.8,415c-1.4-1.6-12.3-1.1-14.3-0.2   c1.5,1,1.5,1,4.5,0.8c3.2,0.3,6.5,1.4,9.8,0.6C615.8,415.7,615.8,415.3,615.8,415z M644,420.3c1.3-0.1,2.7,0.5,3.7-1.3   c-4.6-0.4-10.1-0.3-12.6,1.3C637,422.5,641.3,420.1,644,420.3z M628,418.9c-2.9-1.2-5.8-2.1-9.3-2.5c0.4,2.5,2.4,3.1,4.5,3.3   c1.6,1.3,3.6,0.3,5.5,0.6c1.2,0.1,2.4,0.5,4-0.4C630.9,419.5,629.4,419.2,628,418.9z M593.8,414c0.6,1.3,1.2,1.7,1.8,0.2   C594.9,414.1,594.4,414.1,593.8,414z M588.2,415.5c1,0.5,1.6,0.6,1.9-0.5C589.1,414.1,588.7,414.8,588.2,415.5z" />
	<path fill="#E1C7B6" d="M505,328.6c3.2,2.9,8.6,1.6,12.6,2.6c6.2,0.9,12.5,1.3,18.7,1.7c-0.6-3.7-16.3-12.2-14-15.5   c30.3,9.6,58.7,26.6,91.6,27.2c8.6-0.3,17.4-6.4,26.1-4c0.6,4.4-5.4,5.6-5.7,9.9c10.6,4.3,22.5,0.4,32.9-2.8c0-2.3-2.6-1.6-3.3-3   c1.8-0.4,3.1,0.8,4.5,1.7c4.8-0.8,9.7-1.7,14.5-2.5c2,0,4.1,0.8,6.4-1.5c-5.9-0.1-10.1,0.6-15.5,0.8c6.4-3,16.4-9.3,22-2.3   c-5,6.3-12.8,8.3-18.1,14.2c20.4,9.4,45.4,12.7,67.8,11.5c-1-0.8-1.9-1.4-3-2.2c22.3,0.8,45.4,8.6,64.8,19.5   c-0.9,0-1.9-0.8-2.9,0.3c1.5,1.8,3.4,2.6,6.3,2.5c-0.9-1-1.4-1.6-1.9-2.2c1.1,0.1,2.1,0.3,3.3,0.5c0.4-0.3,0.9-0.8,1.4-1.3   c-0.4,2.4-0.7,4.7-1.1,7.3c-22.1-4.9-43.7-11.6-65.8-16.6c-13.9-2.8-28.3,0.1-41.8-5.3c-22.7-9.2-47-9.7-70.9-13.1   c-15.7-1.9-30.3-8.8-46.1-9.8c-28.7-4.4-60.8,1.5-87.4-11.1C500.2,332.1,503.1,330.4,505,328.6z M555.4,340.8   c2.7,0.6,6.2,3.1,8.6,0.6c-1.9-1-3.6-1.2-5.4-1.4c-1.1-1.1-2.6-0.4-3.9-0.6c-0.5-0.1-1-0.8-1.6,0.2   C553.7,340.3,554.3,341,555.4,340.8z M537.9,332.8c-0.1,1.7,3.9,3.1,3.6,0.8C540.4,333.1,539.5,331.9,537.9,332.8z M802.1,382.8   c-1.8-1.6-1.8-1.6-3.9-1.5C799,382.8,800.1,383.2,802.1,382.8z M789.8,376.7c-0.7,1.8-0.3,2.2,1.8,1.8   C790.9,377.8,790.4,377.3,789.8,376.7z M547.2,336.8c-1.8,1.2,0.3,2.7,1.2,1.2C548.1,337.6,547.7,337.2,547.2,336.8z" />
	<path fill="#EF8A6A" d="M398.1,354.6c-0.1,0.6-0.2,1.2-0.4,2.1c5.7,4.3,13,7.3,19.7,10.1c1.7-3.2,2.3-6.9,5.7-8.9   c1,3.8-1.8,7-1.2,10.7c4.1,1.2,8.1,4.3,12.5,4.2c3.6-4.1,6.5-8.5,11.3-12.3c-2,5.4-4.8,9.6-7.2,14.1c8.5,5.2,18.9,7.5,28.1,11.6   c2.9,0.6,5.8,3.7,8.7,2.8c-3.2,9.2-8.5,16.8-15,24c-11-2.7-23.6-1.9-33.6-8.2c-14-7.9-30.7-8.7-44.8-17.3   C390.1,378.1,392.2,365,398.1,354.6z" />
	<path fill="#E1C7B6" d="M298,334.6c0.1,0.4,0.1,0.7,0.2,1.3c19.3,15.6,46.3,27,70.6,17c-2.5-1.7-4.9-3.2-7.7-5.1   c10.9-2.7,22.7-4.5,34-4.6c-3.3,1.9-7.5,2.1-9.8,5.3c1.9,0,3.2-0.6,4.5-1.5c0.2,0,0.5,0,0.7-0.1c0.9,0.1,1.7,0.1,2.3-0.7   c1-0.2,2-0.4,3-0.6c-1,9-10.4,30.3-17.5,40.3c-28.4-15.3-59.1-24.3-89.9-33.3C292.3,347,295.1,340.8,298,334.6z M381.6,351.3   c-2.5-0.8-4.3-0.4-6.6,1C377.5,352.5,379.5,353.2,381.6,351.3z" />
	<path fill="#F7EFD0" d="M843.3,397.3c1-5,3.4-9.9,3.1-15.1c-0.8-5.9-4.9-2.8-5.4,1.4c-0.8,0.3-0.8,0.9-0.7,1.6l0,0   c-1.2-0.5-0.5-1.7-0.9-2.5c0.3-1.2,1.3-2.2,1.1-3.6c1.5-1.5,0-3.3-0.9-4.6c2.1-5.1,8-7,12.8-6c-0.1,0.8-0.3,1.4-0.4,1.9   c9.5,2.5,20.3,3.6,30.4,3.5c6.4,5.3,9.2,13.4,8.3,21.7c-6.8,2.2-8.5,17.8-13,23.4c-7.9,0.4-14.6-8-19.9-13.1   c-0.9-5.9,4.3-13.5,0.3-18.3c-4.2,3.3-4.2,9.4-5.7,14.2c-0.4,0.2-0.9,0.3-1.3,0.5c-1-6.2,4.1-13.2,0.9-19.1   c-3.8,4.2-5.7,11.1-6.3,16.5l0,0C844.1,399.7,843.3,398.9,843.3,397.3z M864.7,393.3c-3.5,2.4-3.3,7.7-4.4,11.5   C863.2,415.5,868.4,397.6,864.7,393.3z" />
	<path fill="#E1C7B6" d="M403.5,217.2c-0.7,0.3-1.1,1-0.7,1.5c1.8,3.5-1.1,7.1-2.4,10c0-1.8,0-3.5,1.3-5   c-14.1-22.9-37.1-58.9-60.9-71.2c-15-14-22.2,1-37.1,6.5c-15.6,9.6-32.1,15.7-49.5,22.6c-0.3-0.1-1-0.4-1.9-0.7   c-3.8,1.1-3.9,5.7-3.8,8.9c-1.1-0.3-0.6-1.6-0.7-1.7c-1.8-1.5-3.2-2.6-4.5-3.7c-1.7-8.5,7.7-6.4,12.1-10.1   c11.6-9.4,26.3-11.6,39.4-17.5c5.4-1.8,48.1-35.3,39.5-14.5c29,16.2,49.1,43.4,66.8,71c0.1-0.8,0.1-1.4,0.1-2   C402.1,213.2,401.9,215.5,403.5,217.2z" />
	<path fill="#F7EFD0" d="M831.8,426.2c0.7-1.4,0.9-2.7-0.7-3.6c4.3-5.3,12.6-2.7,18.6-4c9.2,3.6,16.8,12.3,27.5,13.3   c1,3.6,1.7,6.2,1,9.8c-12.4-2.9-13.5,10.8-12.7,19.8c0.3,3.5,0.1,9.7-4.6,5.6c-6.2-5-14.4-6.8-20.8-11.2   c3.6-4.7,10.6-16.9,5.3-21.7c-3.4,1.5-3.8,6.1-5.7,9c-2.9-3.5,1.3-9.3-2.1-12.5c-3.3,2.1-4.1,6.7-5.6,10.2c-2.3-3,0.7-8-1.6-11.3   C830.8,428.5,831.3,427.3,831.8,426.2z M852.8,437.9c-4.1,2.2-7.9,21.7,0.3,13.3C854.4,447.4,857,440.5,852.8,437.9z" />
	<path fill="#E1C7B6" d="M148.4,298.9c0.8,4.6,0.3,9.4-1.9,13.8c-6.1,21.1,7.1,29.4,10.9,46.8c-1.7,1.1-3.7-0.1-5.7,0.9   c-0.4,2.6,0.4,5.7,1.8,8c4.9,9.6,4.7,21.3,6.4,31.8c3.1,7.9,8.5,15.2,10.2,23.6c0.4,0.1,0.9,0.3,1.3,0.4c-1,0.3-2.1,0.6-3.1,0.9   c0,0.5,0,0.8,0.1,1.2c-1.8-0.8-3.6-0.8-5.7-0.5c2.2,11.8-9.8,3.9-7.4,21.3c-1.7-0.4-3.4-0.8-5.4-1.2c2-3.3,1.8-6.8,2.3-10.2   c1.1-6.7,5.4-12.9,2.8-19.9c-3.7-14-3.7-28.4-5.1-42.6C143.8,346.9,131.4,323.8,148.4,298.9z" />
	<path fill="#EBDA8F" d="M172.1,305c1,0,2,0,3.2,0c11.9,12.3,24.1,26.3,40.5,32.7c25.1,3.3,53.7-5.9,51.9-35.9   C272.1,374.5,193,357.5,172.1,305z" />
	<path fill="#EBDA8F" d="M270.6,301.2c0.8,1,1.5,2,2.3,2.9c0,2.9,0,5.7,0,8.5c1,1.5,2,3,3,4.6c-4,10.3,11,13.4,17.6,17.6   c-1.8,6-7,10.8-10.5,15.7c-8.9,2.3-17-2-26.2-2.8C270.2,336.2,275,318,270.6,301.2z" />
	<path fill="#EBDDB8" d="M850.8,401c0.1,0.5,0.2,0.9,0.3,1.5c0.5-0.2,0.9-0.3,1.3-0.5c-0.9,7.8,3.4,7.7,5.4,0.8c0,1,0,2,0,3.3   c5.3,5.1,11.9,13.4,19.9,13.1c2.9-3.8,3.4-9.3,6.2-13.3c-0.2,4.2-1.4,8.8-0.6,12.9c4.2-3.7-0.1-17.6,9.4-22   c0.2,6.5-0.2,13.2-1.3,19.7c-1,1-2.1,1.9-3.1,3.1l0,0c-13.5,22.6-33.9-5.8-48.5-13.1c0.7-3.1,2.4-6,3.5-9c0.1,1.5,0.9,2.4,2.4,2.4   C845.7,403.9,848.8,404.5,850.8,401z" />
	<path fill="#E1C7B6" d="M164.4,260.7c-6,3-13,4-19.8,4c0.3,1.2,0.5,2.1,0.7,3.1c-6.9-4.7-14.4-7.8-22-11.1   c17-14.5,17.5-18.5,11.4-39.5c1.3-0.6,2.1,1,3.1,1.5c-0.5,0.1-0.9,0.3-1.4,0.4c9.7,10,13.5,25.3,9.9,39.2c1.2,0.1,2.5,0.2,3.7,0.3   c0,0.5,0,0.9-0.1,1.4c1.5,0.4,2.7,0.2,4.3-0.2c-1-0.5-1.6-0.9-2.2-1.2c3.7,0,7.3,0,11,0c-0.6,0.5-1.2,0.9-1.7,1.4   c0.1,0.4,0.2,0.5,0.3,0.8C162.5,260.7,163.5,260.7,164.4,260.7z M143.7,258.8c-2.3-0.6-4.2-1.9-6.9-0.8   C138.5,260.1,141.2,260.4,143.7,258.8z" />
	<path fill="#EADDB8" d="M841,454.7c-0.3,0.4-0.6,0.7-1,1.2c6.5,4.4,14.7,6.1,20.8,11.2c4.7,4.1,4.9-2.2,4.6-5.6   c1,0.8,0.9,2.7,3,2.6c-1.2-7.4-0.1-15.2,5.4-20.5c-0.2-0.5-0.5-1.2-0.8-1.9c1.6,0,3.2,0,5,0c0.2-1.5,0.3-2.8,0.4-4.1   c3.5,13.1-4.9,28.5-15.8,36.1c-10.3,7-26.9-17-39.5-17.1c-0.1-0.2-0.2-0.5-0.2-0.6c4.4-5,6.1-11.2,7.9-17.5   c0.3,0.8-0.3,1.9,0.8,2.4c0.5,4.2-4,9.9-0.9,13.3c2.9,1.5,4.5-2.9,5.4-4.9C838.6,451.7,836.4,455.2,841,454.7z" />
	<path fill="#E0C6B5" d="M54.4,249.4c14.6,7,30.2,4.1,45.7,4c9.1-0.5,18.5,1.4,24.8-6.7c9.8-6.6,10.9-13.2,8.4-24   c9.3,18.8-11.1,37.3-29.6,35.7c-13.7-0.4-27.8,3.8-39.9-3.7C61,252,56,253.6,54.4,249.4z" />
	<path fill="#F6EECF" d="M831.8,426.2c-0.5,1.1-1,2.3-1.5,3.4c-1.7-0.4-2.6,1.3-3.6,2.3c-0.7-1.3,0.9-1.9,1-3.2   c-0.5-0.2-1-0.5-1.4-0.8c-1.2,1.5-1.2,1.5-1,3.5c0.4,0.1,0.9,0.3,1.4,0.4c-0.5,1.2-1.1,2.4-1.6,3.7c-1.2,0.5-0.8,1.5-0.7,2.4l0,0   c-1.3,0.9-0.8,2.4-0.9,3.8l0,0c-1.2,0.5-0.8,1.5-0.7,2.4l0,0c-1.2,0.7-0.9,1.8-0.9,3l0,0c-0.4,0.4-0.8,0.8-1.3,1.3   c-0.3-0.4-0.6-0.9-1-1.3l0,0c0.8-0.3,0.8-0.9,0.7-1.6l0,0c1.7-0.6,0.3-2.1,0.8-3c1.2-0.6,0.7-1.6,0.6-2.5c-0.1-0.2-0.1-0.4,0.1-0.5   c1.1-0.5,0.8-1.5,0.7-2.3l0,0c1.4-0.3,0.3-1.5,0.8-2.3c1.6-1.2,0.7-6.4-0.5-7.7c-5.8,3.4-3.8,12.7-8.6,16.7c-4-1-8.1-1.6-11.4-4.2   c-1.3-5.1,2.2-8.1,3.3-12.9C813.8,423.1,823.5,428.2,831.8,426.2z" />
	<path fill="#EF8A6A" d="M483.9,330.9c-6.4-4.2-15.4-5.3-20.7-10.6c4.2-3.9,31.5,1.3,38.1,3c0.8-0.5,1.6-0.9,2.3-1.4   c-2,4.4-5.2,7.1-9,10.2c-4.5-0.2-8.9-3.9-12.7-6.5C481.4,328,483.3,329.2,483.9,330.9z" />
	<path fill="#F6EECF" d="M839.5,374.5c1,1.3,2.5,3.1,0.9,4.6c-0.5-1.2,0.1-2.9-1.7-3.2c-5.5,3.5-5.1,10.8-7.6,16.2   c-0.6,0.2-1.2,0.4-1.8,0.6c-3.9-2.4-8.5-2.8-12.9-1.5c0-0.3,0.1-0.5,0.1-0.8c0.9-0.4,0.8-1.1,0.6-1.8c0.2-4.5,2.7-8.3,4-12.8   c5.7-0.5,12.2,1.7,17.3-1.5C838.9,374.5,839.2,374.5,839.5,374.5z" />
	<path fill="#F4D7C6" d="M146.9,455.5c-2-2.8-3.4-7.1-1-9.9c2.1,2.8,5.2,3.7,8.7,3.9c2.4,5.7,9.4,5.4,12.9,10.2c0.1,2-0.2,4-1.5,5.7   c-6-6.4-7.8,0.7-12.8-3.9c-0.1-0.2-0.1-0.5-0.2-0.7c0.4-0.1,1-0.1,1-0.3c0.2-1.7,1.4-2.8,2.7-3.8c-2.8-0.9-5.6-0.5-8.3,0.4   C147.9,456.5,147.4,456,146.9,455.5z" />
	<path fill="#040403" d="M826.7,431.9c1-1,1.9-2.8,3.6-2.3c2.9,8.9-1.8,19.2-7.2,26.4c0,0.1,0.1,0.3,0.2,0.6   c-2.2-0.1-2.9-0.5-4.4-2.1c0.4-0.1,0.7-0.2,0.9-0.2c0.8-2.5,1.6-4.7,2.1-7.3l0,0c0.8-0.8,0.9-1.9,0.9-3l0,0   c0.8-0.6,0.8-1.5,0.7-2.4l0,0c0.9-1.1,0.9-2.5,0.9-3.8l0,0C824.8,435.9,825.8,433.9,826.7,431.9l-0.2-0.2L826.7,431.9z" />
	<path fill="#DFC5B4" d="M178.6,340c-1.1-0.4-2.2,0-3.3,0.2c0.2-0.5,0.3-1.1,0.6-1.9c-2.9,0-4.5,1-5.2,3.4c-0.7-0.1-1.4-0.2-2.1-0.4   c-1.6,0.9-2.1,2.3-1.5,4c-2-0.3-1.7-1.8-1.7-3.3c4.6-3.3,5.9-9,10.8-12c1.7-1.1,4.1-1.7,4.5-4c2.2,2,4.4,4,6.5,5.9   c0,1.5-5.7,4.3-6.9,3.7C179.5,337.1,178,338.3,178.6,340z" />
	<path fill="#DEC4B3" d="M406.6,260.8c1.3,0.7,0.4,2.1,0.9,3.2c1.6,0.1,2.8,0.4,4.4,1.1c0.5-3.5-1.1-7.7,0.8-10.4   c-0.9,10.6,3,20.6,1.1,31.2c-1-0.3-1.9-0.5-2.9-0.9C410.2,276.7,406.7,269,406.6,260.8z" />
	<path fill="#E8DAB6" d="M816.5,391.3c4.4-1.3,9-1,12.9,1.5c0.6-0.2,1.2-0.4,1.8-0.6c-0.2,3.5-2.3,7.4-0.1,10.6c0,0.3-0.1,0.7-0.1,1   c-0.5-0.1-1-0.1-1.5-0.2c-10.4-4.3-5.8-2.3-10.5-10.8c-0.6,0.3-1.3,0.6-2,1C816,393.1,815.8,392.3,816.5,391.3z" />
	<path fill="#0E0D0B" d="M25.4,244c1.3,0.4,2.1,1.1,2.3,2.5c-0.4,0-0.7-0.1-1.2-0.2c-2.1,10.3-3.8,22-0.9,31.9l0,0   c-0.3,0.8,0.3,1.8-0.8,2.3c-0.2-0.1-0.2-0.3-0.2-0.5c-3.8-9.7-4.9-21.2-2.8-31.5l0,0c0.4-1.1,1-2.1,1.6-3l-0.1,0.1   c0.5-0.3,1-0.6,1.5-0.9l0,0C25,244.5,25.2,244.3,25.4,244z" />
	<path fill="#DAC1B1" d="M143.1,469.2c-0.5-1.6-2.7,0-3-1.7c5.9-0.7,13.6,3.7,18.2-1.5c0.5,1.1,1.8,0.8,2.3,1.9c-0.7,0-1.4,0-2.3,0   c0.7,2.3,3.1,3.2,1.5,5.6c-6.6,0.7-13.1,0.1-19.7,0.3c0.5-1.5,2.7-0.1,3.1-1.7c0.6,0.3,1.2,0.5,1.9,0.8   C145,470.1,144.8,469,143.1,469.2z M153.3,472.2c0.2,0.1,0.5,0.3,0.7,0.4C155,471,152.2,469.8,153.3,472.2z" />
	<path fill="#DBC3B2" d="M138.6,464.5c-0.1-3.8,1-7.1,4.1-9.7c1.7,1.5,3.6,2.8,5.7,3.9c-5.1,4.5,5.1,3.1,5.5,6.7   c-0.3,0.3-0.6,0.6-0.9,1C148.1,466.4,143.1,466.6,138.6,464.5z M145.8,462c-0.3,1.7-0.9,2.4,0.5,3.2   C147.3,464.1,147.2,463.3,145.8,462z" />
	<path fill="#DDC3B2" d="M415.6,262.1c0.1,0.5,0.3,0.9,0.5,1.7c1.7-0.4,3.3,1,5,0.1c-0.2,5,1.1,9.8,0,14.8c-1.2,0.9-2.2,1.7-3.6,2.8   C416.2,275,414,268.4,415.6,262.1z" />
	<path fill="#CBB698" d="M24.8,274.4c-1-5.8-0.9-11.7,0-17.5c1.9,1.3-0.4,3.9,1.4,5.3c0.6,10.6,5.6,21.6,4.1,32   c-1.5-5.4-2.9-10.7-4.7-16l0,0C25.6,276.9,25.7,275.6,24.8,274.4z" />
	<path fill="#D5BD9E" d="M33.9,231c3.1,8.8,10.9,14.7,19.1,17.7c-1.8,0.7-4.2,0.5-5.4,2.2l0.1,0c-0.7-0.2-1,0.1-0.8,0.8l0-0.1   c-0.7-0.6-1.8-0.5-2.8-0.9c0.5-0.4,1-0.8,1.4-1.1c1-0.1,2.1-0.2,2.5-1.3c-3.9-1.6-4.9-4.2-9.7-3.3c-0.7-1.2-1.3-2.1-1.9-3   c-1.7-0.3-3.4-0.7-5.3-1.1c1.4-1.2,3.4-1.1,4.3-2.5c0-1.2-0.9-1.1-1.6-1.3c0.1-1.3-0.5-2.4-0.7-3.7c-1.2-0.2-3,0.6-3.8-0.7   C31,232.2,32.4,231.5,33.9,231z" />
	<path fill="#E7D8B4" d="M802.7,437.7c0.1,0.6,0.1,1.2,0.2,1.9c3.3,2.6,7.4,3.2,11.4,4.2c0.5-0.4,1-0.9,1.6-1.3   c-0.4,2.8-1.4,5.3-2.3,8c-4.8-1.3-7.9-5.1-12.4-7.4C801.6,441.2,801.9,439.4,802.7,437.7z" />
	<path fill="#171110" d="M138.6,464.5c1,1.7,21.7,3.1,15.2,0.8c-0.5-3.6-7.1-1.6-6.9-5.2c3.8-1.1,6.5,2.8,9.8,3.1   c0.5,0.9,1,1.9,1.5,2.8c-4.5,5.3-12.2,0.8-18.2,1.5c-0.7-0.6-1.2-1.4-2.3-1.3C138.1,465.6,138.3,465.1,138.6,464.5z" />
	<path fill="#22201A" d="M893,399.7c-0.1-1-0.2-1.9-0.3-2.9c-9.6,4.5-5.2,18.3-9.4,22c-0.3-7.3-0.5-19.6,7.4-23.1c0-2.4,0-4.6,0-6.7   c1.6,1.5,0.4,4.4,0.7,6.4c0.8,0,1.4,0,2.2,0C893.5,397,894.3,398.4,893,399.7z" />
	<path fill="#3A3129" d="M33.9,237c0.7,0.2,1.6,0.1,1.6,1.3c-1,1.4-2.9,1.3-4.3,2.5c1.9,0.4,3.6,0.7,5.3,1.1c0.6,0.9,1.2,1.8,1.9,3   c1.2,0,2.5,0,3.7,0c0,0.4-0.1,0.7-0.1,1.2c-3.7,0.6-7.3-0.6-11-0.9c-0.1,0.4-0.1,0.8-0.2,1.1c-1.1-0.8-1.1-0.8-1.3-2.1   c-0.8-0.4-2.1,0.4-2.4-1.1c1.4,0,2.7,0,4.5,0c-1.3-0.8-2.2-1.4-3-1.9C27.4,237.2,32.6,239.5,33.9,237z" />
	<path fill="#D9C0AF" d="M393.6,263.8c0.8,0,1.7,0,2.6,0c0.8,0.9,1.6,1.8,2.3,2.6c0.2-0.2,0.3-0.3,0.5-0.5c1.4,3.2,1.2,6.9,2.1,10.6   C395.4,277,395.9,267.6,393.6,263.8z" />
	<path fill="#D6C1A2" d="M23.1,241.7c0.2,0.1,0.3,0.2,0.2,0.4c0.2,0.4,0.5,0.7,0.7,1.1l0,0c0.2,0.3,0.5,0.6,0.7,0.8   c0,0.3,0,0.5,0,0.8l0,0c-0.7,0-1.4-0.1-1.5,0.9l0.1-0.1c-1,0.1-0.9,0.8-0.9,1.4c-0.8,0.3-0.8,0.9-0.7,1.6l0,0c-0.3,0-0.5,0-0.8,0   c-0.5-1.4-0.9-2.8-1.4-4.1c-0.8,0-1.5,0-2.5,0c0.3-3.8-1.1-8.1,1.6-11.2c0.2,0,0.4,0,0.6,0.1c0.8,2,1.6,4,2.3,6   c-1.9,0.8-2.1,1.2-1.9,3.4C20.9,242.4,21.9,241.6,23.1,241.7z" />
	<path fill="#D4CCB0" d="M839.4,382.7c0.4,0.8-0.3,2,0.9,2.5c-1.5,6.7-4.6,13.2-5.4,19.8l0,0c-0.2,0-0.5,0-0.7,0.1l0,0   c-0.3-1.3-1.5-0.4-2.2-0.9C836.8,398.5,835.5,389.3,839.4,382.7z" />
	<path fill="#DDC2B2" d="M158.3,465.9c-0.5-0.9-1-1.9-1.5-2.8c4.5-1.1,5.8-1,9.3,2.2c-0.6,1.8-1.6,3.3-2.9,4.6c-0.3,0-0.6,0-0.9-0.1   C160.9,467.8,159.8,467.3,158.3,465.9z" />
	<path fill="#C3AE91" d="M30,238.5c-1.4,0.3-1.9,1.1-1.4,2.7c0.8,0.5,1.7,1.1,3,1.9c-1.8,0-3.2,0-4.5,0c-1.3-2.4-7.3-8.4-1.6-9   c0.6,0.8-1.3,1.1-0.8,1.7C27.5,237.2,28.4,234.5,30,238.5z" />
	<path fill="#DBC4B4" d="M250.8,195.9c0-0.3,0.1-0.7,0.1-1c0.5-0.2,0.9-0.4,1.4-0.5c0.2-2-1.6-4,0.4-5.9c2.2,2.3,4.2,4.1,6.8,6.3   C256.4,195.9,253.9,195.5,250.8,195.9z" />
	<path fill="#D3BCAC" d="M162.6,478.9c-2.8,0.4-4.1,2.8-6.8,2.5c-0.5-1.3-1.1-2.7-1.6-4.1c2.2-1.4,4.7-0.7,7-2   C161.6,476.4,162,477.4,162.6,478.9z" />
	<path fill="#25231E" d="M34.6,282.3c-1.5,2-1,4.7,0.1,6.7c-1.1,3-0.9,6-0.8,9.2c-1.7-9.1-1-19.3,0.4-28.6   C35.3,273.5,34.3,278.1,34.6,282.3z" />
	<path fill="#40372E" d="M19.4,233.3c-0.2-0.1-0.4-0.1-0.6-0.1c-0.3-1.5-0.1-3.1,0-4.6c2-0.3,3.9-1.5,5.7,0c3.6,1.1,7.1-3,10.1-1.6   c-3.9,3.2-9.9,2.1-13.6,4.7c-0.4-0.6-0.7-1.2-1.3-2.1C19.5,231.1,19.4,232.2,19.4,233.3z" />
	<path fill="#BFAB8F" d="M30.9,246.2c0.1-0.4,0.1-0.7,0.2-1.1c3.7,0.3,7.2,1.5,11,0.9c0-0.4,0.1-0.8,0.1-1.2   c1.5-0.1,2.2,1.2,3.2,2.2C40.5,247,35.2,249.5,30.9,246.2z" />
	<path fill="#010101" d="M33.1,289c-1.3,5.3,3.2,13.8,0.7,16.9c-0.6-6-2.6-11.7-3-17.7C31.6,288.5,32.4,288.7,33.1,289z" />
	<path fill="#EBEBCC" d="M839.5,374.5c-0.3,0-0.6,0-0.9-0.1c0.5-1,1.1-1.9,1.7-3.1c-2.7-1.6-6.3,0.4-8.3-2.8c4-0.3,7.7,0.7,11.3,1.3   C841.6,370.7,840.6,372.5,839.5,374.5z" />
	<path fill="#B9AA8F" d="M20.9,231.8c3.1-2.4,8.6-1.5,12.3-3.8c0.2,0.6,0.4,1.1,0.5,1.7c-4.3,0.1-7.8,3.6-11.9,3.5   C21.5,232.6,21.2,232.2,20.9,231.8z" />
	<path fill="#C6B59B" d="M26.2,262.3c-1.8-1.4,0.5-4-1.4-5.3c-0.2-3.6,1.1-7.1,1.7-10.6c0.5,0.1,0.9,0.1,1.2,0.2   c0.3,0.4,0.6,0.8,0.8,1.1C26.4,252.4,26,257.2,26.2,262.3z" />
	<path fill="#31231D" d="M33.9,247.8c4.8,0.8,9.7-2.3,14.2,0.3c-1.5,2.7-4.2,0.3-6.5,0.9c0.3,0.7,0.5,1.3,0.8,1.8   c-0.8-0.1-1.8,0.2-2.3-0.7C42.3,247,34.9,249.7,33.9,247.8z" />
	<path fill="#BFAD9E" d="M75.9,266.7c-0.5,0-1,0.1-1.5,0.1c-1.9-1.9-4.7,0.3-6.8-1.9c1.5-1.7,3.4-2,5-2.8c1.5,0.4,1.6,1.4,1.8,2.4   C75.1,265.1,75.5,265.9,75.9,266.7z" />
	<path fill="#D9D1B4" d="M821.9,447c-0.5,2.5-1.3,4.7-2.1,7.3c-0.2,0-0.5,0.1-0.9,0.2c-0.4-0.4-0.9-0.8-1.4-1.3   c0.3-2.2,1-4.3,2.1-6.2c0.3,0.4,0.7,0.9,1,1.3C821.2,447.8,821.6,447.4,821.9,447z" />
	<path fill="#C4B0A1" d="M88,261.6c0.1,0.6,0.3,1.2,0.5,1.8c-1.1,2-3.8,0.4-5,1.9c-0.7,0-1.4,0.1-2.2,0.1c-0.3-0.3-0.6-0.6-0.9-0.9   c1.7,0.3,2-1.7,3.2-2.8C85,261.5,86.5,260.7,88,261.6z" />
	<path fill="#312520" d="M21.8,233.1c4.1,0.2,7.6-3.4,11.9-3.5c0,0,0.1,0,0.1,0c0.1,0.5,0.1,0.9,0.2,1.4c0,0,0,0,0,0   c-0.7,0.3-1.4,0.6-2.2,0.8c-0.7-0.1-1.3-0.2-1.7,0.6c-1.6,0.4-3.3,0.3-4.6,1.7c-1,0.1-2,0.1-3,0C22.3,233.7,22,233.4,21.8,233.1z" />
	<path fill="#8C7E69" d="M55.3,250.8c2.2,2.7,6.1,1.4,8.4,3.8c-0.6,0.1-1.2,0.3-1.8,0.4c-3.1-3.6-7.7-0.3-11.2-1.2   c1-2.2,3-1.1,4.3-1.9C55.1,251.6,55.2,251.2,55.3,250.8z" />
	<path fill="#2C2821" d="M307.3,311.9c-1,2.3-2,4.6-3,7c-0.3-0.5-0.5-1.1-0.8-1.6c1-2.6,2-5.1,3-7.7   C306.8,310.4,306.1,311.5,307.3,311.9z" />
	<path fill="#413B2F" d="M177.4,286.1c2.3,1,4.7,1.9,7,2.9c-0.8,0.3-1.9-0.4-2.4,0.8c-2.1-1-4.1-2-6.2-3   C176.4,286.6,176.9,286.3,177.4,286.1z" />
	<path fill="#C0A89A" d="M427.2,259.2c1.7,2-0.1,4.9,1.5,6.9c-0.7,1.4-1.5,2.7-3,4.3c0-1.2-0.3-2.1,0-2.5   C427.9,265.3,426.9,262.2,427.2,259.2z" />
	<path fill="#251F1E" d="M156,226.6c-1.7-1.1-3.4-2.2-5.2-3.2c0.7-0.1,1.4-0.1,1.6-0.9c1.9,0.5,3.2,1.8,4.5,3.1   C156.6,225.9,156.3,226.2,156,226.6z" />
	<path fill="#0E0D0B" d="M26.2,262.3c0.1-3.4-0.3-6.8,0.8-10.1c0,4.4,0,8.9,0,13.3C26.7,264.4,26.5,263.4,26.2,262.3z" />
	<path fill="#A69286" d="M162.2,482.9c0-0.3,0-0.6,0-0.8c1.3-1.4,2.2-2.4,3.4-4.1c1.1,2-0.2,3.1-0.8,4.3   C163.8,482.5,163,482.7,162.2,482.9z" />
	<path fill="#84766C" d="M69.8,261.1c-1.9,1.2-3.2,2-4.6,2.9c-0.3-0.5-0.6-0.8-0.9-1.3C65.9,261.8,67,260.3,69.8,261.1z" />
	<path fill="#A29084" d="M80.5,264.6c0.3,0.3,0.6,0.6,0.9,0.9c-1.8,0.5-3.7,0.9-5.5,1.3c-0.2-0.5-0.5-0.9-0.7-1.4   C76.9,265.1,78.6,263.8,80.5,264.6z" />
	<path fill="#534E42" d="M34.3,258c-0.1-2.3-1.3-4.8,0.9-7.3C35.6,253.6,34.4,255.7,34.3,258z" />
	<path fill="#F8E1C1" d="M22.4,241.7c-0.9,0.4-1.8,0.7-2.7,1.1c-0.2-2.2,0-2.6,1.9-3.4c0.3,0.5,0.6,0.9,0.9,1.4   C22.5,241.1,22.5,241.4,22.4,241.7z" />
	<path fill="#1C1110" d="M146.2,483.6c-0.7-1.2-1.7-2.3-2.8-3.2c0.4-2,2.7-0.4,2.8,0.9c0.1,0.9,1,0.5,1.5,0.7   C147.2,482.6,146.7,483.1,146.2,483.6z" />
	<path fill="#5E5346" d="M42.3,250.8c-0.2-0.5-0.5-1.1-0.8-1.8c1.5-0.6,2.7,0.6,4,0.4c-0.4,0.4-0.9,0.7-1.4,1.1   c0.8,0.2,1.5,0.4,2.2,0.6C44.9,252.3,43.6,251.3,42.3,250.8z" />
	<path fill="#73675E" d="M423.4,268.5c0.4-2.8,0.6-5,0.9-7.4C425.3,264.1,425.2,265.2,423.4,268.5z" />
	<path fill="#251F1E" d="M157,219.6c-2.1,1.7-5.2-0.6-6.9,1.4c-0.3-0.2-0.5-0.4-1.1-0.8C151.8,219,154.4,219.7,157,219.6z" />
	<path fill="#8D9A87" d="M825,372.1c1.3-2.7,3.5-0.4,6.1-0.6C828.8,372.5,828.8,372.5,825,372.1z" />
	<path fill="#837D68" d="M47.6,250.8c1.2-0.1,2.4-0.1,4-0.2c-1.1,1.3-2.2,1.8-3.7,2.3c-0.3-0.4-0.7-0.9-1-1.4l0,0.1   C47.1,251.3,47.4,251,47.6,250.8C47.6,250.8,47.6,250.8,47.6,250.8z" />
	<path fill="#D9C0AF" d="M398.9,264.6c-1.1-1.7-1.2-6.8,0-8.4C398.9,259,398.9,261.8,398.9,264.6z" />
	<path fill="#2C2A26" d="M81.6,262.1c-1.6,1.3-2.8,1.1-4,0.6C78.5,261.4,78.5,261.4,81.6,262.1z" />
	<path fill="#899481" d="M832.6,421c-0.5,0.5-1,1.1-1.5,1.6c-1.7-0.2-1.7-0.2-2.7-1.6C829.9,421,831.2,421,832.6,421z" />
	<path fill="#576155" d="M815.9,421.8c-0.9,0.1-1.8,0.3-2.3-1.1c1.7-0.6,3.2-0.8,4.6,0.3C817.4,421.3,816.3,420.6,815.9,421.8z" />
	<path fill="#4B403A" d="M389.8,347.1c-1.2,0.9-2.6,1.4-4.5,1.5c0.7-1.5,1.8-1.9,2.9-2.2C388.8,346.6,389.3,346.9,389.8,347.1z" />
	<path fill="#2D302A" d="M820.3,421.1c1.6,0.2,3.1,0.6,4.5,1.7c-1.4,1.2-2.4-0.6-3.6-0.3C820.9,422.1,820.6,421.6,820.3,421.1z" />
	<path fill="#463E39" d="M148.3,458.6c-1-0.6-1.9-1.1-2.9-1.7c1,0,1.5-0.3,1.4-1.4c0.5,0.5,1,1,1.5,1.5   C148.3,457.6,149.7,458.1,148.3,458.6z" />
	<path fill="#B6A193" d="M162.2,469.9c0.3,0,0.6,0,0.9,0.1c-0.1,1.6,0,2.9,0.4,4.5c-0.6,0-1,0-1.5,0   C162,472.9,162.1,471.4,162.2,469.9z" />
	<path fill="#221E1D" d="M137.1,474.3c1.6,1.7,0.4,4.3,0.6,6.3C136.3,478.9,137.3,476.4,137.1,474.3z" />
	<path fill="#2B2622" d="M889,418.7c0.8-0.7,1.6-1.5,2.3-2.2c0,0.8,0,1.6,0,2.3l0,0c-0.4,0.2-0.8,0.4-1.2,0.6   C889.8,419.1,889.4,418.9,889,418.7z" />
	<path fill="#7C6E60" d="M820.3,421.1c0.3,0.5,0.5,1,0.8,1.4c-1.3-0.1-2.8,0.5-4-0.6c0.6-0.3,1.4,0,1.7-0.9   C819.3,421.1,819.8,421.1,820.3,421.1z" />
	<path fill="#9C877C" d="M169,466.1c0.1,0.7,0,1.5,0.9,1.7c-0.8,0.5-1.6,1.1-2.4,1.6c0-0.4-0.1-0.7-0.1-1.1   C168,467.6,168.5,466.8,169,466.1z" />
	<path fill="#675F57" d="M167.5,468.3c0,0.4,0.1,0.7,0.1,1.1c-0.4,0.6-0.8,1.2-1.2,1.9c-0.4-0.2-0.7-0.4-1.1-0.6   C165.7,469.6,166.6,469,167.5,468.3z" />
	<path fill="#5E5346" d="M38.4,248.5c1.2-0.2,3.1,0.5,1.5,1.6C38.9,250.2,38.4,249.6,38.4,248.5z" />
	<path fill="#B2A48A" d="M834.9,405c0-1.3-0.3-2.7,0.8-3.8C835.5,402.5,835.9,403.9,834.9,405z" />
	<path fill="#C0A89A" d="M428.7,266.1c0.1-1.4-0.5-2.9,0.9-3.8C429.6,263.7,429.6,265,428.7,266.1z" />
	<path fill="#514A3E" d="M22.5,234c0.6,0.1,1.1,0.1,1.7,0.2c-1.3,0.7-1,1.9-1,2.9C21.9,236.3,22.5,235.1,22.5,234z" />
	<path fill="#D9D1B4" d="M824.2,431.6c0,1.1,0.6,2.4-0.7,3.2C823.7,433.8,823.9,432.7,824.2,431.6z" />
	<path fill="#554836" d="M266.7,296.8c-0.7-0.6-0.8-1.4-0.3-2.5c0.5,0.6,0.9,1,1.3,1.5C267.3,296.1,267,296.4,266.7,296.8z" />
	<path fill="#B2BBA3" d="M818.9,421.1c-0.3,0.9-1.1,0.6-1.7,0.9c-0.4-0.1-0.9-0.2-1.3-0.2c0.5-1.2,1.6-0.4,2.3-0.8   C818.4,421,818.6,421,818.9,421.1z" />
	<path fill="#A29084" d="M71.1,266.2c1.1,0,2.4-0.7,3.3,0.6C73.2,267,72.1,267.1,71.1,266.2z" />
	<path fill="#B2A48A" d="M833.4,402.7c-0.5,0.5-1,0.9-1.4,1.4c-0.3,0-0.6,0.1-0.8,0.1c-0.2-0.5,0.1-1.1,0.1-1.6   C831.9,402.7,832.6,402.7,833.4,402.7z" />
	<path fill="#D9D1B4" d="M822.6,437.1c0,0.9,0.4,1.8-0.7,2.3C821.8,438.5,821.8,437.7,822.6,437.1z" />
	<path fill="#D9D1B4" d="M821.8,439.9c0.1,0.9,0.6,1.9-0.6,2.5C821,441.5,821.1,440.6,821.8,439.9z" />
	<path fill="#C0A89A" d="M429.5,262.4c-0.2-0.9-0.4-1.8,0.6-2.4C430.3,260.9,430.3,261.7,429.5,262.4z" />
	<path fill="#4B403A" d="M392.8,346.3c-0.6,0.8-1.5,0.8-2.3,0.7C391.1,346,392,346.2,392.8,346.3z" />
	<path fill="#D9D1B4" d="M821,443c0.1,0.9,0.6,2-0.7,2.5C820.6,444.6,820.8,443.8,821,443z" />
	<path fill="#070606" d="M827.3,402.6c0.8,0,1.7,0,2.3,0.8C828.7,403.4,827.7,403.9,827.3,402.6z" />
	<path fill="#E1C7B6" d="M149.2,296.6c0,0.9,0.4,1.8-0.8,2.3C148.7,298.1,148.9,297.4,149.2,296.6z" />
	<path fill="#D9D1B4" d="M823.3,435.3c0.2,0.7,0.3,1.5-0.7,1.7C822.9,436.5,823.1,435.9,823.3,435.3z" />
	<path fill="#2C2821" d="M304.1,319.5c-0.2,0.5-0.4,1-0.6,1.5C303.4,320.4,303.4,319.8,304.1,319.5z" />
	<path fill="#070606" d="M831,403.7c0,0.2,0,0.4,0,0.6c-0.6,0-1.3,0-1.5-0.8C830.1,403.6,830.6,403.6,831,403.7z" />
	<path fill="#B2A48A" d="M832.5,404.3c0.7-0.1,1.3-0.1,1.6,0.7C833.6,404.8,833,404.6,832.5,404.3z" />
	<path fill="#413B2F" d="M176.1,285c0.4,0.3,0.8,0.7,1.2,1C176.6,286,176.1,285.8,176.1,285z" />
	<path fill="#D9D1B4" d="M820.3,445.4c0.1,0.7,0.1,1.3-0.7,1.6C819.9,446.5,820.1,446,820.3,445.4z" />
	<path fill="#251F1E" d="M148.3,221.9c-0.7,0-1.2-0.2-1.3-0.9C147.7,221,148.3,221.1,148.3,221.9z" />
	<path fill="#D4CCB0" d="M840.3,385.2c-0.1-0.7-0.1-1.3,0.7-1.6C840.7,384.2,840.5,384.7,840.3,385.2z" />
	<path fill="#2C2821" d="M303.5,321.1c0.1,0.7,0,1.3-0.7,1.7C302.6,322,302.6,321.4,303.5,321.1z" />
	<path fill="#E8DAB6" d="M817.2,388.7c0.2,0.7,0.3,1.4-0.6,1.8C816.8,389.9,817,389.3,817.2,388.7z" />
	<path fill="#24201F" d="M85.2,264.6c0.5,0,1,0,1.4-0.1c-0.3,0.8-0.9,0.8-1.6,0.7C85,265,85.1,264.8,85.2,264.6z" />
	<path fill="#3A3129" d="M30.9,246.2c0.5,0.3,1,0.5,1.5,0.8C31.7,247.1,31.1,247,30.9,246.2z" />
	<path fill="#A29084" d="M82,263.9c-0.3,0.7-0.9,0.8-1.5,0.7C81,264.3,81.5,264.1,82,263.9z" />
	<path fill="#A29084" d="M85.2,264.6c-0.1,0.2-0.1,0.4-0.2,0.6c-0.5,0-1,0-1.4,0C83.9,264.5,84.5,264.6,85.2,264.6z" />
	<path fill="#CEB89A" d="M24.7,243.9c-0.2-0.3-0.5-0.5-0.7-0.8C24.3,243.4,24.5,243.7,24.7,243.9z" />
	<path fill="#4B403A" d="M388.8,346.1c0.3-0.2,0.6-0.3,1-0.5C389.5,345.8,389.1,346,388.8,346.1z" />
	<path fill="#CEB89A" d="M24.1,243.2c-0.2-0.4-0.5-0.7-0.7-1.1C23.6,242.5,23.8,242.8,24.1,243.2z" />
	<path fill="#CEB89A" d="M22.4,241.7c0-0.3,0.1-0.6,0.1-0.9c0.2,0.3,0.4,0.6,0.6,0.9C22.9,241.7,22.7,241.7,22.4,241.7z" />
	<path fill="#251F1E" d="M150.7,223.3c-0.3-0.2-0.7-0.4-1-0.6C150.1,222.9,150.4,223.1,150.7,223.3z" />
	<path fill="#251F1E" d="M151.5,221.9c0.3,0.2,0.6,0.4,0.9,0.5C152.1,222.3,151.8,222.1,151.5,221.9z" />
	<path fill="#251F1E" d="M149.2,222.5c-0.3-0.2-0.6-0.4-0.9-0.5C148.6,222.1,148.9,222.3,149.2,222.5z" />
	<path fill="#251F1E" d="M150,221c0.3,0.2,0.7,0.5,1,0.7C150.4,221.8,150.1,221.5,150,221z" />
	<path fill="#2C2821" d="M302.8,318.8c0.2-0.3,0.4-0.7,0.5-1C303.2,318.1,303,318.5,302.8,318.8z" />
	<path fill="#B2A48A" d="M834.1,405.1c0.2-0.1,0.5-0.1,0.7-0.1C834.7,405.8,834.4,405.5,834.1,405.1z" />
	<path fill="#2C2821" d="M302.1,320.3c0.2-0.3,0.3-0.6,0.5-1C302.4,319.7,302.3,320,302.1,320.3z" />
	<path fill="#CEB89A" d="M24.8,244.8c0-0.3,0-0.5,0-0.8c0.2,0,0.4,0,0.6,0.1C25.2,244.3,25,244.5,24.8,244.8z" />
	<path fill="#A29084" d="M75.1,265.3c-0.3-0.2-0.5-0.5-0.8-0.7C74.6,264.8,74.9,265.1,75.1,265.3z" />
	<path fill="#2B2622" d="M888.3,419.5c0.2-0.3,0.5-0.6,0.7-0.8C888.8,419,888.5,419.2,888.3,419.5z" />
	<path fill="#2B2622" d="M887.7,420.3c0.2-0.3,0.4-0.5,0.6-0.8C888.1,419.8,887.9,420,887.7,420.3z" />
	<path fill="#D7C0A0" d="M23.1,309.8c0,4.8,0,9.5,0,14.3c-0.2,0-0.4,0-0.6,0c-4.4-20.3-4.5-42.4-9.9-62c-1.5,8.1,2.9,15.8,0.8,23   c-4.2-13-5.7-25.7-6.9-39.5c0.9,1.2,0.9,2.7,2.7,2.4c-4-13.9-2.5-30.2,8.3-40.6c0.6,3.3,0.6,3.4-1.3,6c0.3,0.5,0.6,1,1,1.7   c-0.7,0.7-1.5,1.4-2.6,2.5c1,0,1.6,0,2.2,0c1,4.5-3.9,7.8-3.6,12.5c-1.5,3.6-0.2,7.8-1.4,11.6c0,1.6-0.2,12.6,2.3,11.1   c0.1-6.2-1.4-12.3,0.6-18.2c-0.4,12.5,4.7,49.2,13.7,56.8c1.8,16.8,9.7,33.5,4.4,50.3c-1.8-7.2,2.5-18.8-4.1-24   c2.4,11.7,0.6,22.8-0.9,33.8c-7.5-17.6,1.2-41.4-3.8-59.9c0,3.3,0,6.6,0,10c-1.7-2-0.8-5.9-4.1-5.7   C22.5,300.5,21.9,305.3,23.1,309.8z" />
	<path fill="#D6BF9F" d="M39.2,329.4c0-1.3-0.1-2.7,0.7-3.8c1,0.9,2,1.7,3.1,2.7c0.1-3,0.2-6,0.2-9c2.9,23.2-4.2,46.1-17.7,65.1   c-1.2-0.5-0.5-1.6-0.8-2.4c3.1-14,13.8-24.7,12.9-39.9c0.1,2.5,0.2,4.9,0.3,7.4C39,345.1,41.6,332.9,39.2,329.4z" />
	<path fill="#D0BA9C" d="M34.7,303.4c-0.5-4.3-1.9-9.3-0.2-13.4c5.1,10.2,4.5,21.7,2.5,32.6c-0.3,0-0.5,0-0.8,0   c-1.2-4.8-1.5-10.1-3-14.6c0-0.2,0-0.4-0.1-0.6c0.2-0.5,0.5-1,0.7-1.4l0,0C35.3,307.8,36,304.2,34.7,303.4z" />
	<path fill="#C6B194" d="M24.4,368.6c-2.4-8.3-0.5-14.6-0.1-23C27.8,353.3,26.9,360.7,24.4,368.6z" />
	<path fill="#ECD7B8" d="M43.2,319.3c-0.1,3-0.2,5.9-0.2,9c-1.1-0.9-2.1-1.8-3.1-2.7c1.4-4.8,0.7-9.7,1.1-15   C42.5,312.6,42.9,314.4,43.2,319.3z" />
	<path fill="#E9D3B4" d="M39.2,329.4c2.4,3.5-0.1,15.7-1.3,20.2C37.7,342.8,36.7,335.9,39.2,329.4z" />
	<path fill="#2F2B24" d="M33.8,305.9c-0.8,1.5-1.8,2.8-1.6,4.7c-0.8-4.3-3.3-9.8-1.6-13.9c0.4,1.6,0.8,3.2,1.4,5.4   c0.2-1.3,0.3-1.9,0.5-2.5C33.3,301.7,33.8,303.7,33.8,305.9z" />
	<path fill="#AB9A80" d="M34,353.2c-0.6,3.6-1.6,7-3.7,10.7c-0.8-5,2.1-8.4,2.9-13C34.3,351.4,33.7,352.5,34,353.2z" />
	<path fill="#010101" d="M19.5,378.4c-1.3-0.5-0.8-2.1-0.7-3.1c1.2-1,0.3-2.5,0.7-3.8c1.1-0.9,0.4-2.6,0.7-3.8   c0.8,1.2,0.7,2.6,0.7,4c0.2,0.2,0.1,0.4-0.1,0.6c-1.4,0.8-0.7,2.1-0.7,3.2c0.1,0.2,0.1,0.5-0.1,0.6   C19.1,376.6,19.4,377.5,19.5,378.4L19.5,378.4z" />
	<path fill="#A3927A" d="M24.7,382.1c0.3,0.8-0.4,1.9,0.8,2.4c-0.8,1.3-1.5,2.6-2.3,3.8c-0.3-0.3-0.5-0.5-0.8-0.8   C23.2,385.7,23.9,383.9,24.7,382.1z" />
	<path fill="#655C4D" d="M34,353.2c-0.3-0.7,0.3-1.8-0.8-2.3c-0.1-1.6,0.6-2.1,1.3-4.1C34.7,349.5,35.2,351.4,34,353.2z" />
	<path fill="#6D665C" d="M39.4,298c1.2-0.8,0.3-2,0.7-3c1.1,2,0.5,4.1,0.6,6.2c-0.2,0-0.5,0-0.7,0C39.9,300.1,39.6,299.1,39.4,298z" />
	<path fill="#4B453A" d="M20.3,367.6c-0.1,0.7-0.1,1.5-0.2,2.2c-0.2,0-0.4,0.1-0.6,0.1c-0.3-0.3-0.5-0.5-0.8-0.8c0-0.5,0-1,0-1.5   c0.4-0.6,0.8-1.2,1.3-2C20.1,366.4,20.2,367,20.3,367.6z" />
	<path fill="#423B32" d="M40.1,301.2c0.2,0,0.5,0,0.7,0c0.7,1.1,1,2.2,0.5,3.6C39.6,303.9,40.1,302.5,40.1,301.2z" />
	<path fill="#514539" d="M22.4,387.5c0.3,0.3,0.5,0.5,0.8,0.8c-0.5,0.9-1.1,1.9-1.6,2.8C21.4,389.7,21.4,388.4,22.4,387.5z" />
	<path fill="#D6BF9F" d="M40.7,319.3c-0.1,1.7,0.6,3.5-0.6,4.8C39.9,322.5,39.9,320.8,40.7,319.3z" />
	<path fill="#2F2B24" d="M33.1,315.9c-0.8-1.2-0.7-2.6-0.6-4C33.7,313.1,33.1,314.5,33.1,315.9z" />
	<path fill="#AB947B" d="M36.2,322.6c0.3,0,0.5,0,0.8,0c-0.1,0.7-0.1,1.4-0.2,2.1c-0.1,0-0.3,0-0.4,0   C36.3,324,36.3,323.3,36.2,322.6z" />
	<path fill="#2F2B24" d="M33.2,308c0.7,0.7,0.7,1.5,0.6,2.4C32.8,309.8,33.1,308.9,33.2,308z" />
	<path fill="#F8E1C1" d="M27.8,291.3c-8.7-11.1-17-51.8-10.8-65.3c2,2.1-0.1,3.7,1.5,5.7c0.1,0.5,0.1,1,0.2,1.5   c-2.8,3-1.3,7.4-1.6,11.2c0.9,0,1.6,0,2.5,0c3.3,11.4-0.7,24.5,5,35.7c0,0.2,0,0.4,0.2,0.5c0.3,1.7,0.9,3.4,2.1,4.7   C27.2,287.3,27.5,289.3,27.8,291.3z" />
	<path fill="#100D0B" d="M37.8,201c1.6,1.2,3.1,2.6,4.5,4.1l0,0c-0.2,1.8-0.5,3.5-0.7,5.3c-1.2,1.3,0.4,1.8,0.8,2.8   c-0.2,0.3-0.5,0.6-0.8,1c-4.3-2.2-9-3-13.7-3.1c0-0.2,0-0.5,0-0.7l0,0c1.9-0.1,3.9,0.3,6.3-0.4c-1-1.5-2.2-1.2-3.3-1.1l0,0   c-0.3-1.3-1.4-0.5-2.2-0.9c1.7-3.8,8.1-0.2,11.6,0.2c-3.2-6.2-9.4-9.4-16.1-8.5c1-1.4,1.5-2.9,0.8-4.7c-0.1-0.1,0.4-0.5,0.6-0.7   c0.4,1.7,2.3,1.8,3.6,2.4c0.6,0.6,1.1,1.3,2.1,1c-0.1-0.6-0.2-1.2-0.2-1.8l0.2,0.1l0.2-0.1c0.3,0.2,0.7,0.5,1,0.7l0,0   C34,198.3,36,199.5,37.8,201z" />
	<path fill="#1E1B16" d="M14.2,282.7c-0.6-7.1-2.2-13.1-1.5-20.6c4.1,10.1,3.2,22.7,5.3,33.7c-1,1-0.7,2.2-1.1,3.4   C13.7,294,16.5,288.4,14.2,282.7z" />
	<path fill="#DFCBAE" d="M24.1,199.7c6.7-0.9,13,2.3,16.1,8.5c-3.1-0.9-5.9-1.1-8.6-2.4c-0.8-2.8-6.1-2-8.3-4.3   C23.6,200.9,23.8,200.3,24.1,199.7L24.1,199.7z" />
	<path fill="#2C2620" d="M23.1,309.8c-1.3-4.4-0.6-9.2-3.2-13.9c3.3-0.2,2.5,3.7,4.1,5.7c0-3.3,0-6.6,0-10   c2.8,12.4,1.1,26.7,0.8,39.5c-0.7-8.4,1.4-17-1.4-25.1C23.3,307.5,23.2,308.6,23.1,309.8z" />
	<path fill="#BFB092" d="M33,221c-4.8,1.3-7.6,2.2-13.3,1.4c-0.1-0.6-0.2-1.3-0.3-2c0.5-1,1-2,1.6-3.1c0.5,0,0.9,0,1.4,0   c1.6,1.7,3.6-2.4,0.1-1.5c-0.3-0.3-0.6-0.5-1-0.8c1.4,0,2.8,0,4.2,0c0,0.4,0,0.7,0,1.1c3.4,1.3,6.9,1,10.4,1.2   c-3.8,2.5-11.2,0-14.1,3C25.8,220.4,29.5,219.7,33,221z" />
	<path fill="#D5C6A9" d="M25.7,215c-4.5,0.4-5.4,0-4.7-4.7c0.9-0.9,1.9-0.8,3-0.7c4.8,3.7,12.3,0.8,17.6,4.5c-0.4,0.9-1,1.7-0.2,2.8   c0.3,0.4-0.1,0.9-0.7,1c-0.5-0.5-1-1-1.5-1.5c0.3-0.3,0.5-0.7,1-1.3c-2.9-1.2-5.7-1.6-8.5-1.9c-1.3-1.2-3-0.2-4.6-0.5   c-0.9,0-1.9-0.5-2.4,1.1c1.8,0.1,3.2,0.1,4.8,0.5c0,0.2,0,0.3,0,0.5C28.3,215,27,215,25.7,215z" />
	<path fill="#DCCCAE" d="M50.7,186c-0.3,0.3-0.5,0.6-0.8,0.9c-1.2-1-1.9-1.6-3.7-1.6c0.8,1,1,1.3,1.5,2.2c-0.9,0.3-0.7,1.1-0.9,1.7   c-1.6-1.7-2.3-4.2-4.4-5.6c0-0.4-0.1-0.7-0.1-1.2c1.6-1.1,2.8,0.5,4.3,0.8c3.1-4,4.6-0.7,7.3,2c-0.3,0.3-0.6,0.6-0.9,0.9   c-1.3-0.7-2-2.3-4.1-2.9C49.7,184.4,50.2,185.2,50.7,186z" />
	<path fill="#39312A" d="M39.2,216.5c0.5,0.5,1,1,1.5,1.5c-1.8,1.3-2.9,3.5-5.3,3.7c-3-1.8-7-1.3-10.6-1.5   C29.3,217.7,34.8,218.8,39.2,216.5z" />
	<path fill="#38322B" d="M25.5,202.8c2.2,0.8,4.6,1.1,6.1,3.1c0,0.2,0,0.5,0.1,0.7c-1.2,0.1-3.3-0.3-3.1,1.5   c-0.4,0.1-0.8,0.3-1.2,0.4c0.2,0.4,0.4,0.7,0.6,1c-0.1,0.1-0.2,0.2-0.3,0.3c-2-0.8-4.1-1.5-6.1-2.3c2.2-1.4,5.5,0,7.4-2   c-2-1.3-3.6-1-6.4-1c0,0-0.3-0.2-0.3-0.2C23.3,203.4,24.9,203.9,25.5,202.8z" />
	<path fill="#3E3028" d="M24,227.8c-1.3-0.9-2.7-0.6-4.3-0.7c-0.1-0.6-0.1-1.1-0.1-1.5c4.7,2.9,10.2-1.6,15.1-2.2c0,0.5,0,1,0,1.5   C31.1,225.9,27.7,227.6,24,227.8z" />
	<path fill="#2C2722" d="M29.2,192.9c0.5-0.3,1.3-0.4,1.7-0.9c1.6,0.1,3.2,0,4.5,0.8c0,0.2,0.1,0.4,0.2,0.6   c-0.2,0.2-0.5,0.4-0.9,0.8c1.3,1.1,2.7,1.5,2.9,3.2c-1.6,2.6-3.4-2.2-5.2-2.4c-1-0.5-2-1.3-3.1-1.5   C29.3,193.3,29.3,193.1,29.2,192.9z" />
	<path fill="#C2B197" d="M32.6,195c1.5,0.6,2.5,2.1,3.7,3.1c0,0.3,0,0.5,0,0.8c0,0,0,0,0,0c-0.4,0-0.7,0.1-1.1,0.1   c-1-0.8-2-1.5-2.9-2.3l0,0c-0.3-0.2-0.7-0.5-1-0.7l-0.2,0.1l-0.2-0.1c-0.2-0.8-0.9-0.9-1.6-0.9c-0.5-0.9-0.4-0.6-1.8-0.3   c1.1,0.2,1.4,0.2,1.8,0.3c1.9,3.1-3.7,0.8-3.8-0.8c0.5-0.7,1.2-2.7,2.3-1.7c0.4,1.5,2.3,0.5,3.2,1.6C31.6,194.3,32,194.8,32.6,195z   " />
	<path fill="#2E2822" d="M41.5,192.9c-2.7-1.3-5.4-2.7-8.2-4c-0.2-1-1-0.7-1.7-0.8c0.5-0.5,1-0.9,1.5-1.4c2.4,2.8,6.6,2.8,9.4,5.5   C42,192.5,41.7,192.7,41.5,192.9z" />
	<path fill="#B1A48C" d="M24,227.8c3.7-0.3,7.1-2,10.7-3c0.4,0.8,1.3,2-0.1,2.2c-3.2-1.6-7.7,3.8-11.2,0.9   C23.5,228,23.7,227.9,24,227.8z" />
	<path fill="#BFB49A" d="M39.2,190c-2.1-1.1-4.8-1.3-6.1-3.3c2.3-2.2,5.6,0.2,7,2.3C39.7,189.3,39.5,189.7,39.2,190z" />
	<path fill="#C7B698" d="M27,225.5c-2.4,1.1-5.3,1.7-7.5,0C20.9,223.1,24.9,224.8,27,225.5z" />
	<path fill="#AFA88D" d="M27,225.5c-0.6-0.2-1.1-0.5-1.7-0.7c3.4-1,6.8-1.9,10.1-2.9c-0.3,0.5-0.6,1-0.8,1.5   C32.1,224.1,29.5,224.8,27,225.5z" />
	<path fill="#716556" d="M39.2,190c0.3-0.3,0.6-0.7,0.9-1c0.8,0.5,1.5,1.4,2.4,0.7c0.9,0.6,1.8,1.1,3,1.8c-1.1,1.1-2.8,2.6-4,1.5   c0.3-0.2,0.5-0.4,1-0.8C41.3,191.4,40.2,190.7,39.2,190z" />
	<path fill="#AD9A80" d="M14.2,282.7c0.6,3,2.2,7.1,0.8,9.8c0-0.2,0-0.4-0.1-0.5c0.1-0.9,0.1-1.8-0.7-2.4c-0.3-1.5-0.5-3-0.8-4.5   C14.5,284.6,13.8,283.5,14.2,282.7z" />
	<path fill="#9B957F" d="M42.4,186.6c-0.3,0.3-0.6,0.6-0.9,0.9c-1.3-1-3.1-1.6-3.8-3.5C39.8,184.2,39.9,184.3,42.4,186.6z" />
	<path fill="#2E2A23" d="M12.5,248.6c-1.3-3.3-0.7-6.9,0-10.1C12.5,241.9,12.5,245.3,12.5,248.6z" />
	<path fill="#2E2A23" d="M13.4,244.6c1.1,2.7,0.6,5.4,0.7,8.2c-1.3,0.3-1.7-0.1-1.5-1.3C13.9,249.5,13.2,246.9,13.4,244.6z" />
	<path fill="#38322B" d="M30.8,208.9c1.1-0.1,2.3-0.4,3.3,1.1c-2.4,0.7-4.4,0.3-6.3,0.4c0-0.2,0-0.4-0.1-0.6   c0.1-0.1,0.2-0.2,0.3-0.3C29,209.6,30.1,210.3,30.8,208.9z" />
	<path fill="#2E2A23" d="M14,236.3c0,2.1,0.3,4.2-0.6,6.3C13.6,240.5,12.6,238,14,236.3z" />
	<path fill="#2E2A23" d="M12.6,234.8c-0.1-1.6-0.4-3.2,0.6-4.7C13.1,231.7,13.8,233.5,12.6,234.8z" />
	<path fill="#2C2722" d="M29.3,189.8c0.1,0.8,0.6,1.3,1.4,1.6c0,0.2,0.1,0.4,0.2,0.6c0,0-0.2,0.2-0.2,0.2   C29.8,191.8,27.5,190.6,29.3,189.8z" />
	<path fill="#D6C1A2" d="M18.5,231.7c-1.2-1.2-0.5-2.7-0.5-4c0.2,0.3,0.5,0.6,0.7,1C18.7,229.7,18.6,230.7,18.5,231.7z" />
	<path fill="#322D26" d="M21,217.3c-0.5,1-1,2-1.6,3.1C19.3,219.1,19,216.9,21,217.3z" />
	<path fill="#38322B" d="M24,209.6c-1.1-0.1-2.2-0.2-3,0.7C21.5,208.5,22.4,208.3,24,209.6z" />
	<path fill="#7A6756" d="M22.5,324.1c0.2,0,0.4,0,0.6,0c0,0.9,0,1.8,0,2.8c-0.2,0-0.4,0-0.6,0C22.6,325.9,22.5,325,22.5,324.1z" />
	<path fill="#38322B" d="M27.8,211.1c-1.1,0-2.2,0.4-3.1-0.7c1,0,2,0,3.1,0C27.8,210.6,27.8,210.8,27.8,211.1z" />
	<path fill="#322D26" d="M22.4,215.8c1.1-0.4,3,0.2,1.5,1.4C23.5,216.7,23,216.3,22.4,215.8z" />
	<path fill="#1E1B16" d="M14.1,289.6c0.8,0.6,0.8,1.5,0.7,2.4C13.7,291.5,14.1,290.5,14.1,289.6z" />
	<path fill="#BFB49A" d="M31.6,188.1c0.7,0.1,1.5-0.1,1.7,0.8c-0.8,0-1.6,0.1-2.4,0.1C31.2,188.7,31.4,188.4,31.6,188.1z" />
	<path fill="#BBAC93" d="M29.5,193.5c-0.7,0.1-1.4,0.1-1.6-0.9c0.4,0.1,0.9,0.2,1.3,0.3C29.3,193.1,29.3,193.3,29.5,193.5z" />
	<path fill="#100D0B" d="M24.1,199.7c-0.2,0.6-0.5,1.2-0.7,1.7C23.2,200.7,23.1,200,24.1,199.7z" />
	<path fill="#38322B" d="M21.6,205.7c0.2-0.5,0.5-1,0.7-1.6l0.3,0.2c-0.2,0.5-0.5,1-0.7,1.6C21.8,205.8,21.7,205.8,21.6,205.7z" />
	<path fill="#38322B" d="M21.6,207.4c-0.8-0.6-0.7-1.1,0-1.7c0.1,0.1,0.2,0.2,0.3,0.2c0,0.4,0,0.8,0.1,1.2   C21.8,207.2,21.7,207.3,21.6,207.4z" />
	<path fill="#322D26" d="M23.9,217.2c-0.5,1-1,0.6-1.6,0.1C22.9,217.3,23.4,217.2,23.9,217.2z" />
	<path fill="#38322B" d="M24.7,210.4c-0.3-0.2-0.5-0.5-0.8-0.7C24.2,209.9,24.5,210.1,24.7,210.4z" />
	<path fill="#BEB298" d="M80.5,188.2c-2.3-0.3-4.2,0.5-6.2,1.5c0-0.3,0-0.5,0-0.9c-2.2-1-3.6-2.7-4.8-4.9c1.6-0.6,2.8-0.1,4,0.6   c-0.1,0.6-0.2,1.1-0.4,1.9c0.7,0.5,1.6,1.1,2.4,1.7c0.5-0.4,0.9-0.7,1.3-1C78.2,187.1,79.4,187.3,80.5,188.2z" />
	<path fill="#C2AD9F" d="M97.2,189.1c-1.2-0.2-2.4-0.3-3.9-0.5c-0.6-0.8-1.4-1.8-2.2-2.8c2.9-0.7,4.9-0.1,7.8,2.4   C98.7,189.1,97.9,188.9,97.2,189.1z" />
	<path fill="#AEA093" d="M107.3,194.2c1.9,1.2,4.2,1,4.7,3.7c-2.4-0.6-4.3-1.1-5.7-2.7C106.7,194.9,107,194.6,107.3,194.2z" />
	<path fill="#8A7B71" d="M87.8,185.3c1.3,0.3,1.6,1.3,1.8,2.3C88.3,189,86.5,186.5,87.8,185.3z" />
	<path fill="#877D73" d="M107.3,194.2c-0.3,0.3-0.6,0.6-1,1c-1.2-0.6-2.4-1.2-2.7-3.1C105.2,192.7,106.3,193.3,107.3,194.2z" />
	<path fill="#88796F" d="M97.2,189.1c0.7-0.2,1.5,0,1.7-1c0.8,0.1,1.4,0.4,1.2,1.4C99,190.1,98.1,189.9,97.2,189.1z" />
	<path fill="#5A4F46" d="M60.7,182c-0.3-0.2-0.6-0.3-1-0.5C60,181.7,60.4,181.8,60.7,182z" />
	<path fill="#3C3631" d="M143.1,469.2c1.6-0.3,1.9,0.9,2,3.7c-0.7-0.3-1.3-0.6-1.9-0.8C143.2,471.1,143.2,470.2,143.1,469.2z" />
	<path fill="#B8A58A" d="M18,377c-0.5,2.9-4.1,16.3-7.1,15.1c2.1-5.6,4.4-11.1,6.2-16.8C18,375.6,17.8,376.4,18,377z" />
	<path fill="#8D7F6A" d="M18,377c-0.2-0.6,0-1.4-0.9-1.7c0.5-2,1-4.1,1.5-6.1c0.3,0.3,0.5,0.5,0.8,0.8c0.1,1,0,2-0.1,2.9   c-1.1,1-0.3,2.5-0.8,3.8C18.4,376.8,18.2,376.9,18,377z" />
	<path fill="#191817" d="M20.2,375.4c0-1.1-0.6-2.4,0.7-3.2C21,373.3,21,374.5,20.2,375.4z" />
	<path fill="#191817" d="M19.5,378.4c0-0.9-0.4-1.8,0.6-2.3C19.9,376.8,19.7,377.6,19.5,378.4z" />
	<path fill="#EBDA8F" d="M287.3,225.7c7.9,0.5,5.2,12.5,8.5,17.5c1,6.9-1.8,12.5-3.8,19c1-9.7,4.4-24.2-3.1-31.7   c3,9.8,2.2,19.2-0.7,29.2c-3.5,14.9-19.9,17.1-32.5,19.5c1.2,0.5,2,0.9,2.8,1.2c-9.1-0.6-17.7-6.2-23.8-12.8   c2.5-4.1,10.4-3.1,14.3-1.8c4.7-1.1,9.9,0.1,14.4-2.4c18-9.3,26.9-10,20.1-32.9c-0.7-1.7-2.7-9-0.6-8.9c0.1,0.5,0.1,0.9,0.2,1.4   c0.1,0,0.3,0,0.4,0c0-0.4,0.1-0.9,0.1-1.3c1,1.1,2,2.1,3,3.2c-0.4,0-1-0.3-1.3,0.3c0.2,1.1,0.7,2,2.2,2.4   C287.4,227,287.3,226.4,287.3,225.7z" />
	<path fill="#030202" d="M292,236.3c7.8,23.8-8.8,54.2-36.4,43C288.1,274.6,288.4,265.3,292,236.3z" />
	<path fill="#4B4B37" d="M277.4,216.1c3.1,1.2,3.1,1.2,2.8,3.1C278.5,219,277.8,217.8,277.4,216.1z" />
	<path fill="#655B3F" d="M287.3,225.7c0.1,0.6,0.1,1.3,0.2,2.1c-1.5-0.5-2-1.3-2.2-2.4c0.3-0.6,0.9-0.3,1.3-0.3   C286.8,225.3,287,225.5,287.3,225.7z" />
	<path fill="#837357" d="M283.5,221.9c0,0.4-0.1,0.9-0.1,1.3c-0.1,0-0.3,0-0.4,0c-0.1-0.5-0.1-0.9-0.2-1.4   C283.1,221.8,283.3,221.8,283.5,221.9z" />
	<path fill="#100D0C" d="M631.3,396.5c-4.2-3.4-9.2-5.4-13.3-8.3c0.2-1.5,0.5-1.5,1.4-2.1c4.8,1.5,6.7,2.8,11.9,8.1   c9.4-1.6,11-0.2,15,8.6C640.5,401.8,638.5,393.3,631.3,396.5z" />
	<path fill="#302926" d="M659.2,409c-13.4-5-10-10,0.9-0.9C659.7,408.4,659.5,408.7,659.2,409z" />
	<path fill="#403431" d="M674.4,413.5c2.7,1,4.6,2.2,6.4,3.7C678.5,416.7,673.4,417.2,674.4,413.5z" />
	<path fill="#2A1715" d="M782.6,423c2.4-1.2,4.8-1.1,7.1-0.1C788.7,425,784.6,423.6,782.6,423z" />
	<path fill="#91837A" d="M659.2,409c0.3-0.3,0.6-0.6,0.9-0.9c2.6,1.1,3.8,1.3,6,3.6c-2.8-0.9-4.8-1.5-6.7-2.1   C659.2,409.4,659.2,409.2,659.2,409z" />
	<path fill="#3A322D" d="M779.8,423.2c-3.2,0.4-3.2,0.4-5-0.5C776.9,421.7,776.9,421.7,779.8,423.2z" />
	<path fill="#50433F" d="M695.5,419.3c-1.8,0.3-3.1,0.6-4.6,0.2C691.5,417.5,694.3,417.2,695.5,419.3z" />
	<path fill="#B9A294" d="M767.9,420.5c-1.1,0.5-1.4,0.7-2.3,0.2C765.6,418.9,767.1,419.5,767.9,420.5z" />
	<path fill="#776661" d="M686.6,418.3c-0.6,0.7-2.6,0.4-1.7-0.8C685.5,416.9,686.7,417.3,686.6,418.3z" />
	<path fill="#91837A" d="M657,408.1c0.5,0.2,1,0.5,1.6,0.7C658,408.6,657.5,408.4,657,408.1z" />
	<path fill="#91837A" d="M660,408.1c-0.3-0.2-0.5-0.4-0.8-0.6C659.5,407.7,659.7,407.9,660,408.1z" />
	<path fill="#0D0A09" d="M649.3,321.9c7-3.6,16.5-0.8,20.1,6.3c-0.2,0.4-0.4,0.7-0.6,1c-6.7-5.3-13.7-3.8-21.8-7   c-3.2-2.1-6.7-3.6-10.4-4.5c-1.1-0.3-2.6-0.3-3-2.1C638.2,312.2,645.6,317.7,649.3,321.9z" />
	<path fill="#201615" d="M682.9,343.9c-4.8,0.8-9.7,1.7-14.5,2.5c-2.7-2.1-6.8-2.7-9.9-1.7c-0.5-0.5-1-0.9-1.5-1.4   c4.3,0.4,7.2-2.5,11.4,0.9C672.9,343.4,678.4,342.1,682.9,343.9z" />
	<path fill="#120F0E" d="M657,343.2c0.5,0.5,1,0.9,1.5,1.4c-3.3,1.9-17.8,1.2-13.3-4.6C648.9,342.3,653,342.1,657,343.2z" />
	<path fill="#403531" d="M808.9,384.5c0.5,0.6,1,1.2,1.9,2.2c-2.9,0.1-4.8-0.7-6.3-2.5C805.9,382.9,807.4,384.1,808.9,384.5z" />
	<path fill="#2D2220" d="M693.3,345.5c2-2.2,4.6-2.2,6.4-0.3C697.7,345.8,695.8,345.7,693.3,345.5z" />
	<path fill="#53423F" d="M711.7,347.4c-1.1,0.6-2.1,0.8-3.2,0.1C709.9,345.8,710.6,345.8,711.7,347.4z" />
	<path fill="#CFBBAF" d="M715.2,349.8c0.1-2.1,1.4-1.2,2.6,0C716.5,349.8,715.9,349.8,715.2,349.8z" />
	<path fill="#EF8A6A" d="M455.4,291.3c3-8.6,0.9-18.7,2.7-27.8c0.4,3.8,8.6,56-1.9,37.7C456.6,297.7,455.2,294.7,455.4,291.3z" />
	<path fill="#EE8A6A" d="M455.5,295.1c1.1,2,1.9,8.8-2.2,7.3c-0.7-10.3-1.1-20.3-1.6-30.7c0,0-0.3-0.4-0.7-0.8   c4-4.3,0.6-11.4,3.9-16.1c2.4,0.1,2.1,2.9,1.8,4.4c-1.3,10.1-0.6,20.4-1.4,30.6c-0.9-0.4-0.8-1.2-0.7-2c0.2-2.3-0.8-4.4-1.3-6.6   c0,6.3,0.9,12.5,1.5,18.8c0.1,0,0.3,0,0.4,0C455.4,298.3,455.4,296.7,455.5,295.1z" />
	<path fill="#EF8B6B" d="M463.8,345.7c0,0.2,0.1,0.5,0.2,1c1.6-0.3,2.7-3.3,4.3-1.2c-5.8,10.5-14.5,19.4-21.8,28.9   c-3.7-0.9,7.9-14.3,9.2-16.7c-1-1.4-0.9-2.6,0.4-3.7c0.1,0.4,0.2,0.9,0.4,1.9C459,351.8,461.1,349.2,463.8,345.7z" />
	<path fill="#EC896A" d="M443.1,291.3c-2,1.8-0.6,3.7-2.9,5.5c0.2-10.3-1-21.2,4.3-29.9c1.6,0.2,1.9,1.6,1.7,2.9   c-2.5,6.4-1.1,13.2-1.5,19.9c-1.7-1.9,0.1-3.6-1.4-6.4C443.2,286.6,443.1,289,443.1,291.3z" />
	<path fill="#F08B6B" d="M434.5,364.4c-2.3-4.1,16.7-26.6,19.9-21.5C447,349.6,441.4,357,434.5,364.4z" />
	<path fill="#1E1411" d="M463.8,345.7c-1.5,2-3,4-4.6,5.9c-0.3-0.3-0.6-0.6-1-0.9c3.6-6.9,11-15.4,16-18.1   C473.5,338,466.2,340.6,463.8,345.7z" />
	<path fill="#251814" d="M459.9,363c4.8-6.6,8.2-15.5,13.8-20.9c-2.3,8.1-8.6,14.6-13.1,21.6C460.4,363.5,460.2,363.3,459.9,363z" />
	<path fill="#9D6D5C" d="M443.1,291.3c0.1-2.3,0.1-4.7,0.2-7.9c1.5,2.8-0.3,4.4,1.4,6.4c0.1,4.2-0.1,8.5,0.5,12.7   C441.8,300.9,443.7,294.6,443.1,291.3z" />
	<path fill="#AC6B56" d="M455.5,295.1c-0.1,1.6-0.1,3.2-0.2,4.8c-0.1,0-0.3,0-0.4,0c-0.6-6.3-1.5-12.5-1.5-18.8   c0.5,2.2,1.5,4.3,1.3,6.6c-0.1,0.7-0.1,1.5,0.7,2C455.4,291.6,455.4,293.3,455.5,295.1z" />
	<path fill="#5D4136" d="M458.3,350.7c0.3,0.3,0.6,0.6,1,0.9c-0.8,1.2-1.6,2.5-2.7,4.2c-0.2-1.1-0.3-1.5-0.4-1.9   C456.9,352.8,457.6,351.8,458.3,350.7z" />
	<path fill="#8E604F" d="M459.9,363c0.3,0.2,0.5,0.5,0.8,0.7c-0.5,1.2-0.9,1.5-2.1,2.4C458.6,364.6,459,363.7,459.9,363z" />
	<path fill="#DFC6B5" d="M354.7,300.4c4,1.8,7.9,3.9,12.1,5.4c-1.1,0.5-2.2,0.9-3.6,1.5c0.5,0.9,0.9,1.6,1.4,2.3   c-9.6-2.5-19.1-6-28.2-9.8c-3.4-0.8-7.9-1.1-9.7-4.4c8-3.2,17.3,0.4,25,3.4l-0.2,0.2c-1.1,0.2-2.3-0.7-3.7,0.4c2,1.3,3.8,2.1,6,2.2   C354.1,301.1,354.3,300.7,354.7,300.4z M342.4,297c-0.9-0.7-1.8-0.7-2.9-0.1C341.4,298.4,341.4,298.4,342.4,297z M360.3,305.5   c0.8,1.1,1.6,1.5,2.8,0.8C362.4,304.8,362.4,304.8,360.3,305.5z" />
	<path fill="#110E0D" d="M364.6,309.6c-0.4-0.7-0.9-1.4-1.4-2.3c3.7-1.2,5.6-2.8,7.9-5.8c1.7,1.4,1.6,2.9,1.9,4.8   C370.8,309.3,367.9,309.9,364.6,309.6z" />
	<path fill="#1E1615" d="M382.7,254.8c-1.6-0.3-3.2-0.6-4.5-1.5c0.7-3.6,3.6,0.1,5.4,0.6C383.3,254.2,383,254.5,382.7,254.8z" />
	<path fill="#5F544F" d="M382.7,254.8c0.3-0.3,0.6-0.6,0.9-0.9c1.2,0.5,2.7,0.7,3.2,2.3C384.9,256.2,384.9,256.2,382.7,254.8z" />
	<path fill="#DFC6B5" d="M351.7,298.8c0.8,0.2,1.7-0.1,2.3,0.8l-0.2,0.2c-0.7-0.3-1.5-0.6-2.2-0.8L351.7,298.8z" />
	<path fill="#DFC6B5" d="M353.9,299.6c0.2,0.3,0.5,0.5,0.7,0.8c-0.1,0.1-0.2,0.2-0.3,0.3c-0.2-0.3-0.4-0.5-0.7-0.8L353.9,299.6z" />
	<path fill="#2C2623" d="M403.5,217.2c-1.6-1.8-1.4-4.1-2.3-6.1c0.1-0.4,0.2-0.9,0.4-1.8c1.8,2.3,3.4,4.3,4,6.6   C405.3,217.3,404.4,217.3,403.5,217.2z" />
	<path fill="#3D332F" d="M407.8,234.1c-2.8-1.7-0.6-7,0.7-9.4c1.1,3.5-1.4,6.3,0,9.2C408.3,234,408,234.1,407.8,234.1z" />
	<path fill="#413430" d="M397.5,201.9c2.4,0.9,3.9,2.6,2.1,4.5C397.7,205.3,397.7,203.8,397.5,201.9z" />
	<path fill="#49423D" d="M397.2,200.2c-2,0.3-2.1,0.2-2.9-2.8C396,197.2,397.1,198.6,397.2,200.2z" />
	<path fill="#31312D" d="M407,242.2c-1.7-0.8-1.8-1.1-0.3-3.2C407.4,240.8,407.4,240.8,407,242.2z" />
	<path fill="#DAB4A4" d="M117.1,242.5c-0.2,0.3-0.3,0.6-0.4,0.9c-0.9-0.8-1.6-1.3-2.2-1.9c-0.8,0.6-1.4,1.1-2.1,1.6   c1.2-8.4,5-16.4,5.4-25c0.9,0.8,1.7,2.3,2.2,3.2c1.1,0.4,2.1-0.9,2.5,0.6c-0.4,0.2-0.9,0.4-1.5,0.7   C123.7,232,114.4,241.2,117.1,242.5z" />
	<path fill="#1A1715" d="M76,239.4c-0.9,0.5-1.7,1-2.7,1.5c0,2,1.2,4.1-0.2,6.5c-2.6-2.3-0.5-6.6-3.1-8.5c-0.5,2.6,0.1,5.2,0.2,7.6   c-3.4-0.5-1.4-9.1-0.8-11.8c1.1-3.9,5.9-3.3,8.4-6.3c0.4,0.8,0.8,1.4,1.2,2.1c-1.2,0.9-2.2,1.6-3.3,2.5c0.8,1.5,2,2.9,1.1,4.8   C76,238.2,75.9,238.8,76,239.4z M74.3,238c-0.2-0.3-0.3-0.5-0.4-0.7C72.6,237.8,73.2,238.8,74.3,238z" />
	<path fill="#0F0D0C" d="M81.3,199.9c1-1.6,2.2-3.1,3.9-4.3c3.3,3.1-1.3,3.6-2.2,6.2c0.6,0.5,1.3,1.1,2.1,1.7   c0.1,1.2,0.1,2.5,0.2,3.9c-1,0.8-1.9,1.5-3,2.3c0.4,0.8,0.7,1.5,1.1,2.5c-0.6,0.4-1.1,0.7-1.6,1c-3.6-2.8-4.9-7-3.6-11.9   c0.8-0.3,0.8-1,0.6-1.7C80,200.4,80.5,202.2,81.3,199.9z M82.1,205.9c0.6-0.9,0.8-1.2-0.2-1.4C81.2,204.8,81.7,205.2,82.1,205.9z" />
	<path fill="#110E0D" d="M117.8,218.1c-0.2,6.9-3.1,13.4-4.4,20.2c-0.8,2.3-0.2,7.1-3.9,6.3c3.1-6.6-0.7-14.5,4.1-20.6   c1.1-1.5,2.3-3,2.1-5.1C116.3,218.5,116.9,217.8,117.8,218.1L117.8,218.1z" />
	<path fill="#2B2522" d="M61.9,247.4c-2.9-6.2,1.1-20.1,6.2-24.6C71.2,223.2,60.6,240.6,61.9,247.4z" />
	<path fill="#2C2522" d="M117,239.9c3.4-4.9,4.9-11.3,3.9-17.2c0.6-0.3,1.1-0.5,1.5-0.7c1.9,6.1,1.8,13.3-2.7,18.3   c-0.7-0.1-1.5-0.3-1.7,0.8l0,0C117.7,240.7,117.4,240.3,117,239.9z" />
	<path fill="#292421" d="M72.8,213.1c-5.5-3.8-3.5-18.5,2-21.5c0.7,1.1,0,1.8-0.5,2.5C71.1,199.9,72.5,206.6,72.8,213.1z" />
	<path fill="#2F2725" d="M100.7,229.4c3.1,4.7-2.7,11.3-6.4,5.7c0.2-0.3,0.3-0.6,0.5-0.8c1.6-0.2,2.7,2.3,4.6,0.6   c-0.4-0.8-0.9-1.7-1.3-2.5C98.5,230.9,99,229.7,100.7,229.4z" />
	<path fill="#29211C" d="M37.7,197.4c-0.2-1.7-1.6-2.1-2.9-3.2c0.4-0.4,0.6-0.6,0.9-0.8c4.2,0.4,4.6,5.4,7.6,7.7   c-0.1,0.5-0.2,1-0.3,1.5c-0.2,0-0.3,0-0.5-0.1C40.9,200.9,39.4,199.1,37.7,197.4z" />
	<path fill="#4C3C37" d="M81.3,199.9c-0.8,2.4-1.3,0.5-2.5-0.3c0.5-1.7,2.5-6.8,4.6-4.7c-1,1.4-2,2.8-3,4.3   C80.8,199.4,81.1,199.6,81.3,199.9z" />
	<path fill="#342B28" d="M102.7,226.6c-2-0.2-1.8-1.6-2.2-2.9C103.6,220.9,104.1,224.2,102.7,226.6z" />
	<path fill="#675750" d="M76.8,225.5c-2.1,0.5-3.9,1-6.2,1.6C70.5,224.3,75.4,223.4,76.8,225.5z" />
	<path fill="#29221F" d="M86.1,209.6c-1-2.3-0.2-3.8,1.3-5.4C88.6,206.4,87.7,208.2,86.1,209.6z" />
	<path fill="#634E48" d="M102.5,220.5c-0.3-0.2-0.6-0.4-0.9-0.6c-1.4,0-2.8,1.1-4.5,0c1.5-1.4,3.9-2,5.5-0.4   C102.6,219.8,102.5,220.2,102.5,220.5z" />
	<path fill="#64554E" d="M76,239.4c0-0.6,0-1.3,0.7-1.6c1.2,0.7,1.3-0.3,2.4-1.2c0.3,1.8-0.2,2.9-1,4.1   C77.3,240.3,76.6,239.9,76,239.4z" />
	<path fill="#38302D" d="M56.9,245.4c1.2,0.2,2.2,0.5,2.1,2.2c-1.8,0.4-3-0.8-4.5-1.3C55.1,245.1,56.1,245.7,56.9,245.4z" />
	<path fill="#746456" d="M47.7,187.4c-0.6-0.9-0.8-1.1-1.5-2.2c1.8-0.1,2.5,0.5,3.7,1.6C49.1,188,49.1,188,47.7,187.4z" />
	<path fill="#3C332F" d="M82.3,216.4c-1.8-0.5-2.9-0.9-3.2-2.4C81,213.8,81,213.8,82.3,216.4z" />
	<path fill="#817161" d="M50.7,186c-0.5-0.8-1-1.6-1.8-2.9c2.1,0.6,2.8,2.1,4.1,2.9C52.2,187.5,51.4,186.1,50.7,186z" />
	<path fill="#7C6860" d="M78.9,224.5c1.5-0.6,2.7-0.6,3.7,1C81.1,225.7,79.8,226.2,78.9,224.5z" />
	<path fill="#463634" d="M99,227.4c-1.5,2.5-1.5,2.5-3.1,1.6C96.3,227.6,97.4,227.5,99,227.4z" />
	<path fill="#BBAC93" d="M41.5,210.4c0.2-1.8,0.5-3.5,0.7-5.3C43.9,206.1,42.5,209,41.5,210.4z" />
	<path fill="#7F726D" d="M56.9,245.4c-0.8,0.3-1.8-0.2-2.3,0.8c-1,0.1-1.8,0.1-2-1.3C54.1,244.6,55.5,244.5,56.9,245.4z" />
	<path fill="#686153" d="M59.1,185.1c0,0.4,0,0.7,0,1.2c-1.2,0.6-2.1,0.4-2.8-0.8C57.2,184.6,58.2,185.1,59.1,185.1L59.1,185.1z" />
	<path fill="#CDB5A5" d="M90,227.7c-1.2,0-1.8,0-2.8,0c0.4-0.8,0.7-1.3,1.1-2.1C88.9,226.3,89.3,226.8,90,227.7z" />
	<path fill="#4C3C37" d="M102.5,220.5c0.1-0.4,0.1-0.7,0.2-1.1c1.4,0,1.7,0.9,1.9,2C103.3,222.1,102.9,221.3,102.5,220.5z" />
	<path fill="#BBAC93" d="M37.7,197.4c0.5,0.5,1,1,1.5,1.5c-1,0-2,0-3,0c0-0.3,0-0.5,0-0.8C36.9,198.2,37.5,198.2,37.7,197.4z" />
	<path fill="#BBAC93" d="M30.9,192c-0.1-0.2-0.2-0.4-0.2-0.6c1.2-0.1,2.3-0.4,3.1,0.7C32.9,192.1,31.9,192,30.9,192z" />
	<path fill="#B4A38D" d="M62.7,185.8c1.2,0.7,0.8,1.8-0.4,1.1C62.4,186.6,62.5,186.3,62.7,185.8z" />
	<path fill="#31302C" d="M117,239.9c0.3,0.4,0.7,0.8,1,1.1c-0.3,0.5-0.6,0.9-0.9,1.4C115.9,241.6,115.9,241.2,117,239.9z" />
	<path fill="#DAB4A4" d="M117.8,218.1c-0.9-0.3-1.5,0.3-2.1,0.8C115.1,217.5,117.6,216.4,117.8,218.1z" />
	<path fill="#BBAC93" d="M35.4,192.8c-0.5-0.2-1-0.5-1.6-0.7C34.5,192,35.1,192,35.4,192.8z" />
	<path fill="#BBAC93" d="M36.9,193.6c-0.4-0.1-0.8-0.1-1.3-0.2c-0.1-0.2-0.2-0.4-0.2-0.6C36.1,192.7,36.7,192.8,36.9,193.6z" />
	<path fill="#4C3C37" d="M78.9,199.6c0.2,0.7,0.2,1.3-0.6,1.6C78.1,200.5,78.1,199.9,78.9,199.6z" />
	<path fill="#BBAC93" d="M43,202.7c0.1-0.5,0.2-1,0.3-1.5C44.1,202.1,44.1,202.3,43,202.7z" />
	<path fill="#AFA88D" d="M34.7,224.9c0-0.5,0-1,0-1.5C35.7,223.9,35.7,224.1,34.7,224.9z" />
	<path fill="#D5BD9E" d="M33.9,231c-0.1-0.5-0.1-0.9-0.2-1.4C34.9,230,34.9,230.2,33.9,231z" />
	<path fill="#31302C" d="M118,241.1c0.2-1.1,1-0.9,1.7-0.8C119.2,240.5,118.6,240.8,118,241.1z" />
	<path fill="#BBAC93" d="M42.2,205.1c-0.3-0.3-0.5-0.5-0.8-0.8C41.7,204.6,42,204.8,42.2,205.1z" />
	<path fill="#BBAC93" d="M41.5,204.3c-0.3-0.3-0.5-0.5-0.8-0.8C41,203.8,41.2,204.1,41.5,204.3z" />
	<path fill="#BBAC93" d="M40.7,203.6c-0.3-0.3-0.5-0.5-0.8-0.8C40.2,203.1,40.5,203.3,40.7,203.6z" />
	<path fill="#BBAC93" d="M41.7,201.8c0.3,0.3,0.5,0.5,0.8,0.8C41.9,202.6,41.7,202.4,41.7,201.8z" />
	<path fill="#BBAC93" d="M40,202.8c-0.3-0.2-0.5-0.5-0.8-0.7C39.4,202.3,39.7,202.6,40,202.8z" />
	<path fill="#BBAC93" d="M39.1,202.1c-0.3-0.2-0.6-0.5-0.9-0.7C38.8,201.3,39.1,201.5,39.1,202.1z" />
	<path fill="#BBAC93" d="M40.7,200.6c0.2,0.2,0.4,0.5,0.6,0.7C41.1,201,40.9,200.8,40.7,200.6z" />
	<path fill="#BBAC93" d="M37.8,201c-0.2-0.2-0.5-0.4-0.7-0.6C37.3,200.6,37.5,200.8,37.8,201z" />
	<path fill="#BBAC93" d="M40,199.8c0.2,0.2,0.4,0.5,0.7,0.7C40.4,200.2,40.2,200,40,199.8z" />
	<path fill="#BBAC93" d="M39.2,199c0.2,0.2,0.5,0.5,0.7,0.7C39.7,199.5,39.5,199.2,39.2,199z" />
	<path fill="#BBAC93" d="M35.2,199c0.4,0,0.7-0.1,1.1-0.1c0,0.3,0,0.5-0.1,0.8C35.8,199.5,35.5,199.3,35.2,199z" />
	<path fill="#BBAC93" d="M37,200.4c-0.3-0.2-0.5-0.4-0.8-0.7C36.5,199.9,36.7,200.2,37,200.4z" />
	<path fill="#352F2C" d="M163.8,277.6c1-6.9,4.5-13.7,7.6-19.9c0.3,0.3,0.6,0.6,0.9,1C169.3,264.9,167.9,272.1,163.8,277.6   L163.8,277.6z" />
	<path fill="#5A524C" d="M178.2,226.7c1.1,4.6,0.7,10.8-1.5,15.2c-1.9-4.7,0.7-10,0.7-15C177.7,226.8,177.9,226.7,178.2,226.7z" />
	<path fill="#322A28" d="M177.9,248.8c-1.8,3.4-6.2,2.1-9.4,1.7C170.3,248.9,173.5,248.3,177.9,248.8z" />
	<path fill="#615550" d="M166.8,234.1c2.4,0.1,4,1.6,5.6,3.5C170,238.5,167.9,235.9,166.8,234.1L166.8,234.1z" />
	<path fill="#302E2B" d="M164.4,260.7c-0.9,0-1.9,0-2.8,0c-0.1-0.3-0.1-0.4-0.3-0.8c0.5-0.4,1.1-0.9,1.7-1.4c0.4,0,0.8,0,1.3,0   c0.6,0.4,1.3,0.7,1.8,1C165.6,259.9,165,260.3,164.4,260.7z" />
	<path fill="#72655F" d="M166.8,234c-2.1-0.4-3.6-1.5-4.7-3.4C164.1,230.4,165.2,231.2,166.8,234L166.8,234z" />
	<path fill="#594A45" d="M197.7,264.7c0.4,1.9-0.2,2.5-3,2.8C195.1,265.9,196.2,265.1,197.7,264.7z" />
	<path fill="#332D2A" d="M196.6,252.7c-2.1-1.8-2.3-2.5-1.4-3.9C196.4,250.4,196.4,250.4,196.6,252.7z" />
	<path fill="#241E1D" d="M152.1,258.6c0.6,0.3,1.2,0.7,2.2,1.2c-1.6,0.4-2.8,0.6-4.3,0.2c0-0.5,0-1,0.1-1.4   C150.8,258.5,151.4,258.5,152.1,258.6z" />
	<path fill="#E1C7B6" d="M164.5,260.7c0.6-0.4,1.1-0.8,1.7-1.2c-0.5-0.3-1.2-0.7-1.8-1c0.9,0,1.7,0,2.8,0c0.1,0.6,0.2,1.2,0.4,2   C166.4,260.6,165.4,260.6,164.5,260.7z" />
	<path fill="#716761" d="M156,226.6c0.3-0.3,0.7-0.7,1-1c0.9,0.8,1.8,1.7,3.2,2.9C158,228.5,157,227.5,156,226.6z" />
	<path fill="#563735" d="M163.9,249.4c-1.6,1.2-2.6,1.7-4,0.9C160.8,249,162,249.1,163.9,249.4z" />
	<path fill="#6A5D57" d="M172.3,258.6c-0.3-0.3-0.6-0.6-0.9-1c0.6-1,0.9-1.7,2.1-2.2C174,257,173.1,257.8,172.3,258.6z" />
	<path fill="#352825" d="M168.4,426.3c0-0.4,0-0.7-0.1-1.2c2.3-0.7,9.5-2.4,8.9,1.7C174.6,428.2,171.5,425.7,168.4,426.3z" />
	<path fill="#3F332E" d="M170.6,341.7c0.8-2.4,2.4-3.5,5.2-3.4c-0.3,0.8-0.4,1.4-0.6,1.9C173.8,341,172.3,341.8,170.6,341.7   L170.6,341.7z" />
	<path fill="#403A36" d="M167,345.4c-0.6-1.8-0.1-3.1,1.5-4c0.7,0.1,1.4,0.2,2.1,0.4l0-0.1C169.6,343.1,168.3,344.2,167,345.4z" />
	<path fill="#342D2A" d="M179,452.1c-0.4,2.1-0.4,2.1-2.7,3C176.5,453.3,176.5,453.3,179,452.1z" />
	<path fill="#DFC5B4" d="M169.3,343.2c0.4-0.5,0.9-1.1,1.3-1.6c0.5,0,1,0,1.5,0C171.7,343.1,170.5,343.3,169.3,343.2z" />
	<path fill="#DFC5B4" d="M172.1,341.6c0.5-0.2,1-0.4,1.6-0.6C173.3,341.7,172.7,341.7,172.1,341.6z" />
	<path fill="#74625A" d="M163.5,346c-0.4,0.3-0.7,0.3-1-0.2C163,345.5,163.3,345.4,163.5,346z" />
	<path fill="#19100F" d="M628.7,420.2c-0.8,0-1.5,0-2.2,0c-2.5-1.8-7.2,0.8-7.8-3.8c3.5,0.4,6.5,1.3,9.3,2.5   C628.2,419.3,628.5,419.8,628.7,420.2z" />
	<path fill="#291F1D" d="M644,420.3c-2.7-0.2-6.9,2.3-8.9,0c2.3-1.3,5.7-1.8,10.4-1.5C645,419.3,644.5,419.8,644,420.3z" />
	<path fill="#7D6B64" d="M605.9,415.6c-3,0.1-3,0.1-4.5-0.8c1.9-0.9,13.1-1.4,14.3,0.2C612.5,415.2,608.9,414.1,605.9,415.6z" />
	<path fill="#090706" d="M605.9,415.6c2.9-1.5,6.6-0.4,9.8-0.7c0,0.4,0,0.7,0,1.2C612.4,417.1,609.2,416,605.9,415.6z" />
	<path fill="#77736B" d="M644,420.3c0.5-0.5,1-1,1.5-1.4c0.7,0,1.3,0.1,2.2,0.1C646.7,420.7,645.2,420.2,644,420.3z" />
	<path fill="#35302E" d="M628.7,420.2c-0.2-0.5-0.5-0.9-0.7-1.4c1.4,0.3,2.9,0.6,4.7,1C631.1,420.7,629.9,420.3,628.7,420.2z" />
	<path fill="#191210" d="M593.8,414c0.6,0.1,1.1,0.1,1.8,0.2C595,415.7,594.4,415.4,593.8,414z" />
	<path fill="#271917" d="M588.2,415.5c0.5-0.7,0.9-1.4,1.9-0.5C589.8,416.1,589.2,416,588.2,415.5z" />
	<path fill="#35302E" d="M623.2,419.7c1.1,0,2.3-0.6,3.3,0.6C625.3,420.4,624.2,420.5,623.2,419.7z" />
	<path fill="#473A35" d="M558.6,340c1.7,0.2,3.5,0.4,5.4,1.4c-2.3,2.5-5.9,0-8.6-0.6c-0.3-0.5-0.5-0.9-0.8-1.4c0.5,0,1,0.1,1.5,0.1   C556.8,340.4,557.8,340.1,558.6,340z" />
	<path fill="#705A55" d="M682.9,343.9c-1.4-0.8-3-0.8-4.6-0.8c3.3-1.2,6.9-0.3,11-0.7C687,344.7,684.9,343.9,682.9,343.9z" />
	<path fill="#685A54" d="M537.9,332.8c1.6-0.9,2.5,0.3,3.6,0.8C541.8,335.9,537.8,334.5,537.9,332.8z" />
	<path fill="#76665E" d="M802.1,382.8c-2,0.4-3.1,0-3.9-1.5C800.2,381.2,800.2,381.2,802.1,382.8z" />
	<path fill="#B09B8E" d="M789.8,376.7c0.6,0.6,1.1,1.2,1.8,1.8C789.5,378.8,789.1,378.5,789.8,376.7z" />
	<path fill="#72635B" d="M547.2,336.8c0.5,0.5,0.8,0.8,1.2,1.2C547.5,339.5,545.4,338,547.2,336.8z" />
	<path fill="#725E57" d="M554.7,339.4c0.3,0.5,0.5,0.9,0.8,1.4c-1.1,0.2-1.8-0.5-2.4-1.2C553.7,338.6,554.2,339.3,554.7,339.4z" />
	<path fill="#725E57" d="M558.6,340c-0.9,0.1-1.8,0.4-2.4-0.6C557.1,339.3,557.9,339.4,558.6,340z" />
	<path fill="#160F0E" d="M381.6,351.3c-2.1,1.9-4.1,1.2-6.6,1C377.3,350.9,379.1,350.5,381.6,351.3z" />
	<path fill="#070606" d="M833.4,402.7c-0.7,0-1.5,0-2.2-0.1c-2.8-4.8,2.7-24.1,7.6-26.8c1.4,0.2,1.2,1.4,1.4,2.3   c-0.9,1.2-0.8,2.6-0.7,3.9c-0.2,0.2-0.2,0.4-0.1,0.6C836.2,389,836,396.4,833.4,402.7z" />
	<path fill="#060605" d="M857.8,402.8c-7.9,17.1-5.9-12.1,0.3-14.9C861.5,391,858.2,398.5,857.8,402.8z" />
	<path fill="#090908" d="M850.8,401c-1.9,3.5-5.1,2.9-5.1-1.2l0,0c1.8-5.4,1.7-12.3,6.3-16.5C854.7,388.7,851.3,395.2,850.8,401z" />
	<path fill="#0D0C0B" d="M864.7,393.3c3.7,4.3-1.4,22.2-4.4,11.5C861.4,401,861.2,395.8,864.7,393.3z" />
	<path fill="#EBDDB8" d="M846.4,395.9c0,1.3,0.2,2.7-0.7,3.9C845.7,398.4,845.2,396.9,846.4,395.9z" />
	<path fill="#D4CCB0" d="M839.5,382.1c-0.1-1.4-0.2-2.8,0.7-3.9C840.6,379.5,840.5,381.1,839.5,382.1z" />
	<path fill="#050504" d="M836.4,449.3c-10.5,18.6-5.4-16.1,1-18.6C841,436,837.3,443.5,836.4,449.3z" />
	<path fill="#050404" d="M841,454.7c-8.3,1.2,0.6-19,4.2-20.5C850.4,439,844.1,449.8,841,454.7z" />
	<path fill="#0A0908" d="M873.1,441.7c0.3,0.7,0.6,1.3,0.8,1.9c-5.5,5.3-6.6,13.2-5.4,20.5c-2.1,0.1-2-1.8-3-2.6   C865.3,455.1,864.5,442.1,873.1,441.7z" />
	<path fill="#070706" d="M852.8,437.9c4.2,2.6,1.6,9.5,0.3,13.3C844.9,459.6,848.7,440.1,852.8,437.9z" />
	<path fill="#CFC8AE" d="M839.6,443.3c-0.8,2.6-1.5,5.2-2.3,7.8c-0.2-0.7,0-1.5-0.9-1.8c0.7-3.1,1.5-6.2,2.2-9.3   C838.7,441.2,838.6,442.4,839.6,443.3z" />
	<path fill="#271917" d="M143.7,258.8c-2.4,1.6-5.1,1.2-6.9-0.8C139.4,257,141.4,258.2,143.7,258.8z" />
	<path fill="#F7EFD0" d="M826.7,431.9c-0.5-0.1-0.9-0.3-1.4-0.4c-0.2-2-0.2-2,1-3.5c0.5,0.3,1,0.5,1.4,0.8   C827.6,430,826,430.6,826.7,431.9l-0.2-0.2L826.7,431.9z" />
	<path fill="#D9D1B4" d="M824.3,437.9c0,1.3,0,2.7-0.9,3.8C823.6,440.4,823,438.8,824.3,437.9z" />
	<path fill="#D9D1B4" d="M822.8,444.1c0,1.1-0.1,2.2-0.9,3C821.9,445.9,821.6,444.7,822.8,444.1z" />
	<path fill="#D9D1B4" d="M825,435.6c-0.2,0.8-0.5,1.6-0.7,2.4C824.2,437.1,823.8,436.1,825,435.6z" />
	<path fill="#D9D1B4" d="M823.5,441.7c0.1,0.9,0.1,1.8-0.7,2.4C822.7,443.2,822.3,442.2,823.5,441.7z" />
	<path fill="#3F3732" d="M153.1,456.4c1.1-0.4,2.2-0.4,3.6,0.3c-1.3,1-2.5,2.1-2.7,3.8c0,0.1-0.7,0.2-1,0.3l0.1,0.1   c-0.6-1.5-1.8-2.4-3.1-3.3c0-0.4,0.1-0.7,0.1-1.1c0.4,0,0.9,0,1.3,0C152,457,152.5,457.1,153.1,456.4z" />
	<path fill="#97786E" d="M150.1,456.4c-0.1,1.2-0.5,2.4-0.8,3.5c-0.8,0-1.6,0.1-2.3,0.1c1-1.5,2.7-1.3,1.5-3   C149,456.8,149.5,456.6,150.1,456.4z" />
	<path fill="#97786E" d="M153.1,456.4c-0.6,0.7-1.1,0.7-1.7,0C152,456.4,152.6,456.4,153.1,456.4z" />
	<path fill="#3F3732" d="M153.2,461.4c-0.3-0.1-0.6-0.3-1-0.4c0.3-0.1,0.6-0.1,0.8-0.2l-0.1-0.1C153.1,461,153.1,461.2,153.2,461.4z   " />
	<path fill="#3B352D" d="M26.9,285.3c-1.2-1.3-1.8-3-2.1-4.7c1.1-0.5,0.5-1.6,0.8-2.3c0.6,2.3,1.8,4.6,2.1,6.9   C27.4,285.2,27.2,285.2,26.9,285.3z" />
	<path fill="#3B352D" d="M24.8,274.4c0.9,1.2,0.8,2.5,0.8,3.9C24.4,277.3,24.9,275.8,24.8,274.4z" />
	<path fill="#CEB89A" d="M21,251.7c0-1.1,0-2.1-0.1-3.2c0.3,0,0.5,0,0.8,0C21.5,249.6,21.3,250.7,21,251.7z" />
	<path fill="#CEB89A" d="M23.3,245.6c0.1-1,0.8-0.9,1.5-0.9C24.3,245.1,23.8,245.4,23.3,245.6z" />
	<path fill="#CEB89A" d="M22.5,247c0-0.7,0-1.4,0.9-1.4C23.1,246.1,22.8,246.5,22.5,247z" />
	<path fill="#CEB89A" d="M21.8,248.6c-0.1-0.7-0.1-1.3,0.7-1.6C22.2,247.5,22,248.1,21.8,248.6z" />
	<path fill="#3B352D" d="M24.6,280.1c-0.2-0.3-0.3-0.7-0.5-1C24.3,279.4,24.4,279.7,24.6,280.1z" />
	<path fill="#181513" d="M153.3,472.2c-1.1-2.5,1.7-1.2,0.7,0.4C153.8,472.5,153.6,472.4,153.3,472.2z" />
	<path fill="#554B44" d="M145.8,462c1.4,1.3,1.5,2.2,0.5,3.2C144.8,464.4,145.5,463.7,145.8,462z" />
	<path fill="#9F8F83" d="M153.8,465.3c2.7,0.3,0.8,2.1-0.9,1C153.2,465.9,153.5,465.6,153.8,465.3z" />
	<path fill="#9C8B74" d="M32.5,299.6c-0.1,0.6-0.2,1.2-0.5,2.5c-0.8-3.2-1.4-5-1.8-7.9c0.6-1,0.7-2,0.7-3.1   C32.1,293.9,32.2,296.8,32.5,299.6z" />
	<path fill="#373129" d="M30.3,294.3c0.1,0.8,0.3,1.6,0.4,2.4c-1,0.6-0.4,1.7-0.7,2.5c-0.9-2.5-1.4-5.1-1.6-7.7   c0.3-0.3,0.6-0.6,0.8-0.9C29.6,291.8,30,293,30.3,294.3z" />
	<path fill="#605648" d="M29.3,290.6c-0.3,0.3-0.6,0.6-0.8,0.9c-0.2-0.1-0.4-0.2-0.6-0.2c-0.3-2-0.6-4-1-6c0.3,0,0.6-0.1,0.8-0.1   C28.2,287,28.8,288.8,29.3,290.6z" />
	<path fill="#605648" d="M27.7,284.4c-0.1-0.3-0.3-0.7-0.4-1C27.4,283.8,27.5,284.1,27.7,284.4z" />
	<path fill="#514A3E" d="M25.5,234.1c1.1-1.1,2.5-1.4,3.9-1.5c0.8,1.3,2.6,0.5,3.8,0.7c0.2,1.1,0.5,2.1,0.7,3.1   c-1.4,1-3,0.8-4.6,0.8c-1.1-2.2-2.7,0-4.6-1.4C24.2,235.2,26.2,234.9,25.5,234.1z" />
	<path fill="#A8987F" d="M29.3,237.2c1.6,0,3.2,0.2,4.6-0.8c0,1.7-2.4,2.3-3.9,2.1C29.8,238,29.6,237.6,29.3,237.2z" />
	<path fill="#514A3E" d="M30.1,232.4c0.4-0.7,1-0.7,1.7-0.6C31.2,232,30.6,232.2,30.1,232.4z" />
	<path d="M47.6,250.8c-0.3,0.3-0.5,0.6-0.8,0.8C46.6,250.9,46.9,250.6,47.6,250.8z" />
	<path fill="#D1BDAD" d="M153.1,460.8c-0.3,0.1-0.6,0.1-0.8,0.2c-1-0.4-2-0.7-2.9-1.1c0.2-0.8,0.5-1.6,0.7-2.4   C151.3,458.4,152.5,459.3,153.1,460.8z" />
	<path fill="#B2A48A" d="M833.4,402.7c0.2-0.3,0.4-0.6,0.7-0.9C833.8,402.1,833.6,402.4,833.4,402.7z" />
	<path fill="#A8987F" d="M28.6,236.3c0.2,0.3,0.4,0.6,0.7,0.8C29,236.8,28.8,236.6,28.6,236.3z" />
	<path fill="#2F2B24" d="M34.7,303.4c1.3,0.7,0.5,4.4-0.9,2.4C35,305.4,34.5,304.3,34.7,303.4z" />
	<path fill="#191817" d="M18.8,375.3c-0.1-0.8-0.2-1.7,0.6-2.4C19.4,373.7,19.7,374.7,18.8,375.3z" />
	<path fill="#191817" d="M19.5,371.5c0-0.5,0-1-0.1-1.5c0.2,0,0.4-0.1,0.6-0.1C20.2,370.5,20.2,371.1,19.5,371.5z" />
	<path fill="#BBAC93" d="M29.1,196.7c1.3-0.4,0.3-1.1,0.3-1.6l0,0c1.7-0.3,1.7,1.4,1.8,2.7C30.2,198.1,29.7,197.3,29.1,196.7z" />
	<path fill="#E1D1B3" d="M30.8,208.9c-0.7,1.4-1.8,0.7-2.8,0.5c-0.2-0.3-0.4-0.6-0.6-1c0.4-0.1,0.8-0.3,1.2-0.4   c0.2,0.1,0.4,0.2,0.7,0.1C29.8,208.4,30.3,208.7,30.8,208.9L30.8,208.9z" />
	<path fill="#38322B" d="M33.9,211.8c-1.6,0.2-3.2,0.3-4.7-0.6C30.9,211.3,32.6,210.7,33.9,211.8z" />
	<path fill="#898572" d="M31.7,206.5c-0.1-0.2-0.1-0.5-0.1-0.7c0.5,0.2,1,0.4,1.5,0.7C32.7,206.5,32.2,206.5,31.7,206.5z" />
	<path fill="#38322B" d="M30.8,208.9c-0.5-0.3-1.1-0.5-1.6-0.8C29.9,208,30.6,208,30.8,208.9z" />
	<path fill="#BBAC93" d="M32.3,196.7c0.3,0.2,0.5,0.5,0.8,0.7C32.9,197.2,32.6,196.9,32.3,196.7z" />
	<path fill="#BBAC93" d="M31.3,196c0.3,0.2,0.7,0.5,1,0.7C32,196.5,31.6,196.2,31.3,196z" />
	<path fill="#BBAC93" d="M27.5,196c0.3,0.2,0.7,0.4,1,0.6C28.2,196.4,27.9,196.2,27.5,196z" />
	<path fill="#898572" d="M31.6,205.8c-0.5-0.5-1-1-1.5-1.5C31.2,204.2,31.6,204.8,31.6,205.8z" />
	<path fill="#322D26" d="M39.2,216.5c-4.1,1.7-9.2,0.8-13.5-0.3c0-0.4,0-0.8,0-1.1c1.3,0,2.6-0.1,3.9-0.1c0-0.2,0-0.3,0-0.5   c-0.6-0.1-1.2-0.3-1.8-0.4c-0.2-0.4-0.4-0.8-0.7-1.3c4.3,0.6,8.6,0.5,13,2.4C39.7,215.8,39.5,216.1,39.2,216.5z" />
	<path fill="#765B4C" d="M27.9,218.9c-2,0.9-3.5,1.6-5.9,1.4C23.9,218.8,23.9,218.8,27.9,218.9z" />
	<path fill="#7B6153" d="M27.2,212.8c0.2,0.4,0.4,0.8,0.7,1.3c-0.9,0-1.9-0.1-3-0.1C25.3,212.3,26.3,212.8,27.2,212.8z" />
	<path fill="#7B6153" d="M31.7,213.3c-0.9,0.1-1.8,0.3-2.5-0.5C30.2,212.7,31,212.6,31.7,213.3z" />
	<path fill="#D3C3A7" d="M21.9,207.1c-0.2-1,0.2-1.8,0.6-2.7c0.5,0,0.9,0,1.4,0c0.4,0.8,1.9,0.9,1.6,2.2   C24.3,206.7,23.1,206.9,21.9,207.1z" />
	<path fill="#898572" d="M25.5,206.6c0.3-1.3-1.1-1.4-1.6-2.2c3-0.1,3-0.1,5.1,1C28,206.2,26.9,206.8,25.5,206.6z" />
	<path fill="#BBAC93" d="M36.2,198.1c-0.3-0.3-0.5-0.5-0.8-0.8C35.7,197.6,36,197.9,36.2,198.1z" />
	<path fill="#BBAC93" d="M35.4,197.4c-0.3-0.2-0.5-0.5-0.8-0.7C34.9,196.9,35.2,197.1,35.4,197.4z" />
	<path fill="#BBAC93" d="M34.7,196.6c-0.2-0.2-0.5-0.5-0.7-0.7C34.2,196.2,34.4,196.4,34.7,196.6z" />
	<path fill="#BBAC93" d="M33.9,195.9c-0.2-0.2-0.4-0.4-0.7-0.6C33.4,195.5,33.6,195.7,33.9,195.9z" />
	<path fill="#BBAC93" d="M32.6,195c-0.3-0.2-0.6-0.4-0.9-0.5C31.9,194.7,32.3,194.8,32.6,195z" />
	<path fill="#BBAC93" d="M31.1,194.2c-0.3-0.2-0.6-0.4-0.9-0.5C30.4,193.9,30.8,194.1,31.1,194.2z" />
	<path fill="#BBAC93" d="M29.3,195.1c-0.4-0.1-0.7-0.1-1.8-0.3C28.9,194.5,28.8,194.2,29.3,195.1L29.3,195.1z" />
	<path fill="#3A3323" d="M292,236.3c-1.2,0.5-0.5,1.7-0.9,2.5c-0.8-2.6-2.7-5-2.2-8.2C290.4,231.7,290.4,231.7,292,236.3z" />
	<path fill="#2F221F" d="M353.7,299.8c0.2,0.3,0.4,0.5,0.7,0.8c-0.2,0.3-0.4,0.6-0.7,1c-2.1-0.1-4-0.9-6-2.2   C350,298.1,351.8,299.2,353.7,299.8z" />
	<path fill="#675B54" d="M342.4,297c-1,1.3-1,1.3-2.9-0.1C340.6,296.3,341.5,296.3,342.4,297z" />
	<path fill="#2D2320" d="M360.3,305.5c2.1-0.7,2.1-0.7,2.8,0.8C361.9,307,361,306.6,360.3,305.5z" />
	<path fill="#2F3332" d="M74.3,238c-1.1,0.8-1.6-0.3-0.4-0.7C74,237.5,74.1,237.7,74.3,238z" />
	<path fill="#4E4442" d="M82.1,205.9c-0.4-0.6-0.9-1.1-0.2-1.4C82.8,204.7,82.7,205,82.1,205.9z" />
</g>
</svg>