<?xml version='1.0' encoding='utf-8'?>
<svg xmlns="http://www.w3.org/2000/svg" version="1.2" baseProfile="tiny" id="Layer_2_00000063611843364361346900000005014145245596004748_" x="0px" y="0px" viewBox="0 0 900 600" overflow="visible" xml:space="preserve">
<g>
	<path d="M592.8,83.3c-8.3,3.2-15.5-6.3-24.2-5.5c14,20.1,45,5,61.9,28.3c8.3,9.6,16.2,19.8,26.9,26.9c1.8,1.5,4.6,2.8,4.2,5.6   c42,28.7,14.8,52.1-14.3,75.7c31.1,41.9-14.1,120.8,27.7,153.5c12.9,9.6,20.3,25.1,24.2,40.4c8.9,2.8,17.1,7.3,26.4,8.4   c4.4-0.5,8.9,0.1,12.7,2.4c2.8,6.2-25.4,11.3-30.3,14.9c1.8,5.6,5.7,10.6,5.5,16.7c0,0.9-0.2,1.9,0.8,2.7c2.1,0,4.3,0,6.5,0   c7.6,8.4,6.8,20.6,11.8,30.3c1.4,2.3,2,5.3-0.8,6.7c-4.8,3.7-11.2,4.2-15.9,7.6c-5.3,4.7-9.3,11.7-15.9,14.3   c-11.7,2.9-27.1,3-36.8-4.9c-0.3-5.2-2.1-9.9,1.2-14.8c16.5-5.4,20.3-17.9,26.4-32.5c4.4-6.1-0.3-12.8-3.5-18.3   c-62.2,24.6-126.8,45.5-187.6,73.2c-0.5-0.5-0.8-0.9-1.3-1.4c-28.4,10.8-56.8,21.6-85.2,32.5c-0.4,0.7-0.9,1.3-1.3,2   c-39.2,12.2-77.4,28.4-116.3,42.9c-2.1,6.5-12,0.1-14.7,7.9c-3.7,1.1-7.8-1.1-9.1-4.7c-16.5-12.9-35.9-22.8-52.3-36.5   c-7.8-7.4-16.6-13.6-25.4-19.7c0.2-0.2,0.4-0.4,0.7-0.7c0.3,0,0.5,0,0.8,0l0,0c0.1,0.5,0.5,0.7,1,0.6c-0.2-0.5-0.2-1-0.2-1.6   c25.9,18.3,49.2,40.4,77.9,54.9c0.8-0.4,1.5-0.7,2.3-1c-0.1-1.3-0.2-3.1,1.5-3.2c0.7,0,1.4,0.1,1.6,1.1c-0.4,0.7-0.9,1.4-1.3,2.1   c1.2,1.4,1.9,2.5,2.4,4.2c3.2-2,4.3-2.3,8-2.6c1.1-0.1,2.4,0.2,3.2-0.9c-1.1-5-2.6-6.6-6.5-5.4c-24.6-8.8-45-27.4-66.1-43.2   c0.2-0.7,0.8-0.7,1.3-0.7c21.2,14.5,40.6,33,65,41.1c2.6-0.7,5-0.8,7.1,0.7c31.9-12.7,65-23.9,96.2-37.2   c-37.5-18.1-74.6-36.5-108.7-60.8c-32.1,9.5-64.6,19.2-96.6,29.1c0.3,0.8,0.5,1.3,0.7,1.9c-0.2,0.2-0.4,0.5-0.7,0.7   c-9-8.9-2.7-5-13.4-2.5c0,1.2,0,2.2,0,3.2c-0.4,0.7-0.9,1.4-1.3,2.1c-1.5,0.2-3,0.4-4.4-0.1c-0.9-1.4-0.5-2.8-0.4-4.1   c3.5-2.5,3.8-2.6,10-3.8c0.5-0.6,0.9-1.2,1.5-1.9c122.1-35.4,243.4-73.3,365.5-110.9c0.3-6.1-0.9-11.7-0.5-17.9   c0.9-0.1,1.8-0.1,2.6-0.2c-5.6-28.5-38.1-38.6-49.6-63.6c-21.1-24.1-13.5-25.5,2.6-48.4c14.6-22.7,43.5-28.6,63.9-44.4   c1.2-4.9,5.4-9.1,3.6-13.9c-2.2-3.7-3.5-8.1-6.6-11.1c-1.5-0.9-2.5-1.9-3.3-3.6c-2.2,1.4-2.7,3.8-3.9,5.7c-1-0.8-0.3-2-0.7-2.9   c1.4-1.8,2.8-3.5,4.2-5.3c-3.3-4-3.5-9.1-6.6-13.3c-1.3,4.4-2.5,8.4-4.4,12.5c-0.3-0.3-0.6-0.7-0.9-1c0.4-4.1,2-8,3.2-11.9   c-33.2-2.3-19.5-28.7-17.8-50.4c-7.7-5.1-13.3-17.4-5.8-25.1c2.5-0.2,0.9-2.9,2.2-4.1c1.3,0.6,0.4,2.6,1.8,3.2   c4.4,1.8,8.9,0,12.9-1.9c2,4.2-0.5,10.1-1.1,14.6c-0.1,13-2.6,32.3,12.1,38.1c0.5-1.5,0.9-2.8,1.3-3.9c-0.3-1.4-0.5-2.5-0.9-4.3   c1.1,0.9,1.6,1.3,2.1,1.8c0.9-0.7,1.6-1.3,3-2.4c-1.3,3.7-3.1,6.5-3.5,9.9c12.7,4.8,17.2-10.5,18.4-20.1   c3.4-15.3,10.5-29.6,16.6-43.7c-12-2.6-22.4-11.3-25.4-23.4c-0.2,0-0.5-0.1-0.7-0.1c-0.3-0.3-0.6-0.7-0.9-1   c0.9-1.3,1.9-2.6,2.8-3.9c-1.2-2.4-0.6-6.9-4.1-7c-0.4-0.4-0.8-0.9-1.3-1.4c-1.6,1.5-3,2.8-4.5,4.2c-0.2-0.3-0.4-0.5-0.6-0.8   c1.3-2,2.6-3.9,4.3-5.4c0.7,0,1.4,0,2.1-0.1c10.8,6,0.8,15,8,20.5c-0.1-0.7-0.2-1.1-0.3-1.5c0.3-0.3,0.5-0.5,0.8-0.8   c2.7,0.2,3.3,3.3,6.3,2.6c-0.4-1.8-2.2-2.9-2.1-4.8c3.2,2.6,5.4,9.4,10.2,7.4c-0.2-0.1-0.3-0.2-0.5-0.3l0,0   c1.3-2.2,5.3,4.3,12.5,1.5c-0.7,1.1-0.7,1.1-2,1.8c0.9,0.4,1.5,0.7,2.2,1c1,1.4,2.4,0,3.5,0.6c-0.5,0.4-0.9,0.9-1.4,1.3   c-3.4-0.8-7.5-3.5-10.7-1.1c2.6,1.3,5.2,1.7,7.8,1.6C592.3,82.7,592.5,83,592.8,83.3z M579.5,77.7c1.1,1.3,2.5,0.5,4.1,0.7   c-1.4-2-3.2-1.4-5.3-1.2c0,0.1,0,0.2,0,0.3C578.7,77.6,579.1,77.7,579.5,77.7z M687.4,480.4c-0.4-0.8-1.2-0.8-2-0.9   c1,2.8,10.2,3.3,6.6,7.2c-2.8-1.3-5.8-2.5-8.5-3.8c-4.9,6.2-10.3,8.4-17.1,11.6c-3.2,1.4-0.4,8.9-1,12.1   c10.1,4.7,22.4,5.8,33.2,2.8c6-2.2,9.9-8.5,14.5-12.8c4.2-5.8,12.9-4.3,17.9-9.7c-5.7-9.4-5.4-21.3-11.1-30.7   c-1.6-0.5-3-0.6-4.4-0.4c0.5,3.9,1.9,7.9-0.9,11.1c-12.6,2.4-7.1-3.5-12.4-10.9c-2.4-0.3-4.7-1.3-7.5-1.6c0.4,4.1-2.3,6.6-3.4,10.4   c2.1,2.1,16.1,7.2,13.3,9.9c-5.6-0.3-9.4-5.5-14.9-6.3c-0.2,0.6-0.4,1.2-0.6,1.7c4.7,1.1,8.4,2.9,12.4,5.3   c-0.7,4.6-10.6-1.6-13.6-2c-0.4,0.7-0.7,1.4-0.9,2.2c8.2,3.7,8.5,3.9,9.5,6.4C694,485.7,690.4,480.3,687.4,480.4z M308.3,501.6   c1.9,1.1,3.1,3.1,5.3,3.4c0-0.6-0.3-1.2,0.4-1.4c2.5,1.7,5.1,3.3,7.6,5c0.3,1.2,1.4,0.3,2,0.9c-0.3,0.4-0.7,0.7-1,1.1   c0.9,0.6,1.7,1.1,2.5,1.6c0.6-0.3,1.1-0.5,1.6-0.8c15,9.8,31.5,17,47.6,25c6.8,3.2,13.6,8.1,21.4,7.8c3.9-0.8,5.8,1.5,7.8,4.4   c2.3-1.3,5-2,6.3-4.9c-12.6-0.9-20.8-3.6-30.4-11.4c-22.1-10.3-41.5-24.8-63.3-35.6c0.3-0.8,1-0.6,1.6-0.7   c22.2,9.3,41,24.7,63,34.4c4.4,1.5,6.4,6.5,11.3,7.3c5.6,1.7,11.1,4.2,16.9,1.5c13.4-5.1,26.8-10.2,40.2-15.3   c13.2-5.2,26.5-9.8,39.6-15.3c-37.8-17.2-75.5-42.2-115.6-51.3c-26.4,8.7-54.6,15.3-80.2,24.7c-2.2-0.2-2.4-2.5-3.5-4.1   c-3.6-0.1-7,0.2-9.7,3C286.3,490.4,298.9,494.9,308.3,501.6z M522,106.4c-5.3,5.9-2,16.8,5.5,19.5c0.4-4.4,1.2-8.7,2-12.9   c-1.1-2.2,0.3-4.4-0.2-6.5c-1,0-2,0-2.8,0c-0.9-0.6-1.7-1.1-2.5-1.7C523.2,105.4,522.6,105.9,522,106.4z M709.1,418.9   c0.3-0.3,0.6-0.5,0.9-0.8c5,1.3,9.8,3.8,14.6,0.3c-8.5-1.7-16.1-5.6-24.4-8.3c-0.2,1.7,0.3,3,1.2,4.1c-0.3,0.9-1.3,1.8,0.1,2.6   c2.5,2.8,1.9,6.5,3.9,9.5c3.8-1.6,7.4-2.3,11.1-4.5C713.8,420.7,711.5,419.8,709.1,418.9z M622.4,250c-0.3-0.1-0.6-0.3-0.9-0.4   c3.1-5.1,7.4-9.6,7.6-15.9c-1.1-0.9-0.6-2.1-0.6-3.2c0.5-0.7,1-1.4,1.6-2c6.7-2.1,9-10.1,13.6-14.8c13.8-12,30.4-22.1,37.3-40   c-0.4-0.1-0.8-0.1-1.3-0.2c2.7-15-5.9-18.6-14.8-28.4c-7.5-9.6-18.3-15.4-25.6-25.2c-12.6-16.4-24.4-25.3-45.5-27.4   c-5.1,13.8-8.2,28.2-8,43.1c0.6,0.3,0.9,0.6,1.3,0.8c-2.2,18.4,19.9,29.1,33.8,19.7c-0.1-3.3,0.1-6.7,0.6-10   c-4.4-2-5.8-7.3-10.4-8.3c-4.6,3.2-3.2-1.1-0.6-3.1c0.8,0,1.6-0.1,2.4-0.1c0.3,0.7,0.5,1.2,0.7,1.6c10,7.2,19.7,14.7,29,22.7   c-0.3,0.3-0.6,0.6-0.8,0.8c-6.6-2.7-11.3-9.5-17.9-11.5c-0.7,16.5-6.8,39.4,10.5,50c-0.3-2.8,1.6-4.4,3.1-6.4   c4.6-7.9,9.7-15.6,13.6-23.9c-0.8-1.5-1.5-2.9-2.2-4.2c0.3-0.7,0.9-0.6,1.4-0.7c0.7,0.4,1.3,0.8,2,1.2c0.7-0.2,1.3-0.3,2-0.5   c0.1,0.9,0.2,1.5,0.2,2.2c-9.3,17.3-16.8,36.8-33.9,47.8c-0.5-0.1-1.2-0.3-1.9-0.5c-4.3,4.7-9.6,4.5-15.4,3.8   c-4.9,3.1-9.8,5.5-15.3,6.5c0-0.3-0.1-0.6-0.1-0.9c4.5-2.7,9.8-4.2,14.5-7c3.2,0.8,7.1-1.3,10.5-0.7c6.7-4.9,14.2-7.5,19.2-14.2   c-6.2-7.6-12-15.4-12-25.7c-0.5-0.5-0.9-1-1.4-1.5c1.6-4.5,1.9-9.9,1.7-14.7c-44.6,15.5-39.7-39.9-28.8-66.4   c-1.2-0.6-2.2-1-3.3-0.7c-6.7,11.6-10.1,24.7-15.1,37.1c-2.4,7.4-2.4,16-6.5,22.7c-8,12.4-27.6,4.1-30.1-8.5   c-3.6-12.9-2.5-26.4,0.7-39.3c-2,0.6-3.9,0.8-5.5,2.1c3.5,19.5-20.8,64.6,5.6,70.5c4.7,1,10.6-0.3,13.8,4.1c-0.3,2.8,1.2,5,2.3,7.3   c11.6,5.9,25.4,0.1,37.2,2.4c-11.6,3.4-23.9,3.8-35.7,1.1c-0.3,6.5,7.1,8.7,8.8,13.9c-0.4,1.9,1.6,3.2,2.3,4.7   c0.3,5.5,1.1,10.7,4.4,15.2c-0.3,0.3-0.6,0.6-1,0.9c-0.2-0.2-0.4-0.4-0.6-0.6c-0.1-0.7-0.2-1.3-1.1-1.2c-0.6,0.7,0.3,1.9-0.8,2.4   c-0.4-0.7,0.4-1.6-0.7-2.1c-0.4-2,0.1-4.2-1.3-6c-1.7,0.8-0.5,2.8-1.7,3.9c-1,1-1.6,2.6-2.3,3.9c-2.7,1.3-5.6,2.2-7.4,4.9   c-1.9,1.8-5.3,1.8-6.9,4.2c14.4,10.2,24.1,25.7,30.5,41.8c13.3-4.2,17-6.8,23.7,7.7c12.6-10.9,29.3-13.8,45.7-11.3   c3.6,0,5.6,3.4,9.1,3.9c0.9-19,0.8-43.7-10.7-59.7c-3,5.2-8.5,8.3-12.6,12.5c-2.1,7.5-5.6,14.1-8.8,20.9   C623.2,251,622.8,250.5,622.4,250z M652.3,400.8c0.7,0.7,1.5,1.1,3.2,1.3c-2.2-1.9-3-2.9-4.6-4.8c-8.9-2.7-17.3-6.7-26.5-8.6   c-4.8-2.1-11.3-3.1-14.3-7.6c-1.6-0.3-3-0.1-4.5,0.2c0.6,1.5,1.1,2.9,1.7,4.4C622.1,391.4,637.8,394.7,652.3,400.8z M660,442.8   c7.7-2.1,15.5-4.9,23.2-8.2c-18-33.9-45.5-35.2-77.4-48c-3.8,2.8-8.3,2.9-12.1,4.6c-3.3,7.9-7.4,16.1-17,17.3   c-5.4,0.1-4.4,4.3-6.3,8.1c30,7.8,57.9,25.7,89,27.7c2.2-0.7,3.6,1.3,4.3,3.3c2.1-1,4.7-1.1,6-3C667.8,440.5,662.9,444.9,660,442.8   z M399.4,458.9c0.2-0.8,1-0.6,1.6-0.8c34.1,11.9,64.8,31.5,97.9,45.2c6.2,1,11.9-3.7,17.8-5.2c18.7-7.6,38.3-13.7,56.6-22   c-36.4-14-71.1-31.4-107.8-44.7c-7.6-1.6-15.3,3.8-22.8,5.1c-18.6,5.5-37.8,11.5-56,16.9c-0.8-0.9-1.6-1.9-2.6-3.1   c-1.9,1.6-4.4,0.3-6.2,1.7c-0.1,1.9,2.2,2.2,2.4,4c25.3,10.2,50.6,20.7,75.2,32.6c12.3,5.4,23.2,14.4,35.8,18.7   c2.9,0.6,6,0.6,9.1,0.9c2.2,1.5,2.2,1.5,4.8,1.7c0.5-1.4,1.5-2.3,2.8-3.2c-18.5,0.1-34.5-13.6-51.1-21.3   C438,475.8,418.4,468,399.4,458.9z M588,397.9c2.6-4,4-8,4.1-11.8c-6.6-5.8-14.8-10.4-19.3-17.7c-5-2.1-6.2,3-4.6,6.6   c-2.3,1.9-3.6,4.3-4.4,7c-6.9,3.7-14.2,0.6-21.5,1.1c0.1,2.8-0.3,5.5,0.7,8.2c3.1,1.3,6.5,1.6,9.9,1.7c1.3,0.1,2.1,1,2,1.9   c-1.8,3.6-7.8,0.5-11-0.1c0,0.9,0,1.7,0,2.6c2.3,0.8,12.2-0.3,9.2,3.9c-3.1,1.6-6.3-0.8-9.6-0.6c-0.3,1-0.6,1.7-0.5,2.8   c1.8,0.7,4.2,0.8,5,2.8c-1.5,3.1-4.1-0.3-6.2,0.4c-0.2,0.8-0.5,1.7-0.7,2.7c1.2,0.6,2.3,1.2,3.6,1.9c-0.3,2.6-2.7,1.8-4.5,1.4   c-0.2,0.4-0.4,0.8-0.5,1.1c0.5,1.1,2.1,1.1,1.8,2.7c-0.8,0.8-2.1,0.9-3.2,0.7c-2.3,5.4-11.9,9.4-9.3,14.7c2,0.9,4,1.9,6.2,2.9   c19.2-5.3,26.2-2.4,34.5-23c-0.3-1-0.5-1.6-0.7-2.2C572.4,404.1,584.6,407.8,588,397.9z M518.7,303.9c-1.1-1.1-2.9,0.2-4-1.2   c21.1-6,41.4-14.3,60.6-24.7c-7.2-15.3-16.4-32.5-31.7-40.9c-15,9.2-32.1,16.5-43,30.7c-4.8,7.9-11.6,14.2-16.5,22   c-1.4,3.3,0.2,7.6-1,11.3c7.4,7.8,13.3,16.6,19.7,25.1c-0.2,0.7-0.3,1.3-0.4,1.7c15.4,16.5,40.8,28.2,43.8,53   c5,0.8,10.6,1.4,15.1-0.7c1.3-2.3,2.4-4.3,3.6-6.3C541.7,346.9,554.2,316.7,518.7,303.9z M610.3,282.3c-3.2,1.5-5.7,3.8-8.4,5.9   c9.5,24,12.6,50.1,29,70.6c-0.5,0.2-0.9,0.3-1.5,0.5c1.9,4.6,2.5,9.9,6.7,13c8,6.8,12.7,16.3,18.5,24.8c7.9,10.6,18.8,18.8,27,29.3   c4.6,8.3,10.2,16.1,13.7,25c3,0.6,6,1.2,9,1.8c2.2,3.1,1.9,7.6,4.2,10.8c1.5,0,2.7,0,3.9,0c1.2-18.7-11.2-36.3-15.7-54.4   c-5.2-27.4-22.1-36.8-38.1-56.3c-2.4-14.9-4.9-30.8-3.3-46.1c-0.4-0.1-0.8-0.2-1.3-0.4c-0.3-8.5,1.3-17,1.4-25.6   c-4.5-1.9-8-5.5-12.9-5.2C631.6,277,619.5,275.4,610.3,282.3z M615.6,383.6c10.4,4.3,22,6.6,32.5,9.9c-3.1-5.3-6.6-10.3-9.1-15.5   c-7.4-5.3-12.2-12.7-12.7-21.8c-17.7-19.1-19.3-46.7-27.6-69.6c-2.4-3.3-2.9-9.1-7.1-10.5c-23.5,7.2-43.6,22.3-68.1,26.8   c33.1,13.8,19.3,38.4,42,65.8c2.9-3,4.3-3.3,8.5-2c0.8,1.3,1.7,2.8,2.6,4.3c10.3,5.6,12.8,18,26.3,8.6c2.4-1.5,5.1-0.5,7.7-0.8   c0.6,0.8,1.3,1.7,2,2.6l-0.1,0.1l0.2,0c0.1,1.6,1.4,1.6,2.6,2l0,0.2L615.6,383.6z M474.3,427.1c0,0.2,0,0.4,0.1,0.7   c37.8,11.6,74.2,29.7,110.9,42.3c22.9-4,44.2-15.9,66.3-23.4c-28.7-6.5-54.3-20-82.5-28.3c-3.6,6.8-8.4,12.9-16.3,14.5   c-8.8,2.2-18,6-26.5,0.6c-1.4-2.9-0.8-5.4,0.1-7.6c5.7-4.6,10.4-9.4,11.6-16.6c-1.2-1-2.3-0.7-3.4-0.4   C514.7,415.1,494.3,420.6,474.3,427.1z M592.9,472.8c-4.8-3.1-10,1.5-14.6-1.9c-21.5-11.2-45.2-18-67.4-27.6   c-10-3.9-19.7-8.3-29.9-11.6c-4.7-2-10.7-2.3-13.4-7c-1.5,0.6-3.6,0.6-4.8,1.7c0.2,0.9,0.4,1.8,0.6,2.8   c38.2,13.2,74.9,30.2,111.9,45.9c2.7-1.4,5.4-1.9,8-0.6c0.7,1.1,1.3,2.1,1.9,3.1C588.1,476.4,591.6,476.5,592.9,472.8z    M294.6,588.5c35.3-13.6,70.1-26.7,105.3-40.2c-1.9-2.1-2.1-2.1-4.3-1.3c-34,13.3-68.6,25.5-102.3,39.3   C293.8,587.1,294.2,587.8,294.6,588.5z M499.6,510.2c-8.9-2.4-26.7,8.6-36.6,11.1c-16.9,6.9-34.9,12.6-51.3,20.1   c0.3,0.5,0.5,1,0.8,1.6C441.9,533.2,470.3,521.1,499.6,510.2z M580.9,476.6c-23.7,9.3-48.2,17.4-71.3,27.5c0.4,0.6,0.8,1.2,1.2,1.9   c23.2-8.9,46.3-17.6,69.1-26.4C580.3,478.6,580.5,477.8,580.9,476.6z M595.4,473.7c21.9-8.5,43.8-16.2,65.4-25   c-0.1-0.6-0.2-1.1-0.3-1.9c-21.1,6.7-41.5,15.6-62.2,23.2C596.5,470.7,594.1,471.1,595.4,473.7z M535.6,403.5   c-21.8,6.9-43.9,12.9-65.5,20.2c0.5,0.7,0.9,1.2,1.4,1.7c21.5-7.3,45-11.5,65.3-20.6C536.4,404.3,536.1,403.9,535.6,403.5z    M460.9,427.5c-17.5,2.1-34.1,10.2-51.3,14.4c-3.9,1.9-23.3,5.1-23.3,8.3c14.2-1.8,28.4-8.4,42.5-11.9c9.7-3,19.5-5.8,29.3-8.8   C459.1,429.1,460.2,428.9,460.9,427.5z M374.7,454.4c-4.5-3-20.6,5.2-26.9,6.1c-18.6,6.6-38.9,10.2-56.7,18.3   C319.2,472.5,346.8,462.3,374.7,454.4z M277.4,482.3c-31.9,9.9-65.2,18.2-96.3,30c32.3-8.6,64.1-19.1,96.1-28.5   C277.3,483.3,277.4,483,277.4,482.3z M727.2,420.5c-1.2-0.3-2.1-0.5-2.5,0.5c-4.8,4.6-13.5,4.3-18.4,8.6c0.1,0.3,0.3,0.7,0.5,1.3   C711.4,429.2,727.3,425.9,727.2,420.5z M685.8,438.9c-0.4-0.6-0.8-1.2-1.3-2c-4.2,2.1-9.1,2.9-12.6,5.6c0.1,0.4,0.2,0.9,0.3,1.5   C674.7,443.6,683.6,440.3,685.8,438.9z M594.2,388.1c3.9-0.5,7.9-0.8,10.4-4.2c-3.1-1-6.5,0.6-9.5,1.7   C594.8,386.3,594.5,387,594.2,388.1z M728.5,418.3c0.3,1.8,0.5,3.4,0.8,4.9c3-0.6,4.7-1.3,6.8-3.2   C733.5,419.1,731.3,418.1,728.5,418.3z M541,400.9c-1,0.8-1.8,1.5-2.6,2.1c0.3,0.8,0.6,1.5,0.9,2.3C540.1,404,541,402.8,541,400.9z    M569,76.3c-0.1-1.3-0.7-1.7-2-1.1C567.8,75.7,568.4,76,569,76.3z M278.2,593.6c-0.3-0.4-0.6-0.7-1.2-1.4   C276.9,593.7,277,594.2,278.2,593.6z" />
	<path fill="#070505" d="M502.4,63.7c-5.3-15.2-0.5-28.6,10.3-39.8c5.2-6.8,15.2-6.7,22.9-8.6c0.2-1.4,0.4-2.6,0.5-3.9   c4.9-4.8,11.2-8.4,18.2-5.2c0,0.2,0,0.4-0.1,0.6c-5.4-0.2-15.6-0.1-14.9,7.3c0.1,0.8,0.5,1.2,1.6,0.9c1-2.2,2.3-4.4,4.8-5.5   c0.3,0.2,0.5,0.5,0.8,0.7c-0.8,0.8-1.9,1.4-2.4,2.6c0.6,0.2,1,0.4,1.6,0.6c-0.8,1.5-1.9,2.8-1.3,4.6c-0.2,0.7-0.9,0.7-1.4,0.7   c-0.7-0.5-1.5-1.1-2.4-0.6c-3.4,3.8-9,5-13.7,6.9c-0.2-0.2-0.5-0.5-0.7-0.7c2.9-2.9,6.8-4.3,10.2-6.6c-3.5-0.4-6.3,1-8.8,3.1   c-5.2,0.5-8.4,5.3-12.1,8.3c-0.2-0.3-0.4-0.5-0.6-0.8c2.6-5.4,7.2-6.8,12.3-9.7c-10.2,1.1-17.3,9.3-20.7,18.2   c-1.4,1.6-0.3,3.7-0.7,5.6c-0.3-0.8-0.6-1.6-1.1-2.9C498.5,50.6,505.3,55.8,502.4,63.7z M538.1,11.9c-1.6,1.1-1.5,2.2-1,3.5   C538.6,14.6,538,13.4,538.1,11.9z" />
	<path fill="#0C0908" d="M541.5,191.6c0.3,0.3,0.6,0.7,0.9,1c-3.6,6.8-11.1,7.3-17.9,7.6c-1.8,2.4-4.3,3.7-4.7,6.9   c9.9-0.1,10.8-5.5,18-6.9c-4.5,5.3-10.7,7.3-17.2,8.8c3.5,5.8,8,1.9,12.7,0.9c2.8,0.5,5.5-0.8,8.2-0.6c-0.5,2.3-3.1,2.2-4.9,2.1   c-5.5,0-8.8,4-14.6,2c0,0,0.1,0.1,0.1,0.1c-1.2-1.1-2.3-2.2-3.5-3.3c-0.8,1.2-1.4,2.3-2,3.3c-6.5,0.1-2.6,18.5-7,23.1   c0.5-9-0.1-20,6.3-26.6c1.2-0.2,1.3-1.2,1.7-2c1-4,3.3-7,6.4-9.7C530.5,198.2,537.8,197.9,541.5,191.6z" />
	<path fill="#0D0A09" d="M584.4,46.9c0.3,1.5,0.5,3.1,0.8,4.8c1.8-1.2,2.3-3.2,3.5-4.7c0.2,0.5,0.5,1,0.7,1.6   c-0.4,3.9-2,7.1-6.1,9.1c3.5,1.3,6.4,1.4,9.6,0.3c0.2-0.5,0.5-1.2,0.8-1.8l0.2,0L594,56c0.1,0.5,0.1,1.2,0.9,1.3   c0.2,0.2,0.5,0.4,0.7,0.6c-8.6,5.6-20.7,0.1-23.7-9.7c0.4,0,0.9-0.1,1.3,0.1c0.6,3.1,4.2,4.8,6.9,3.2c1.8-5.4-1.5-11-2-16.5   c0.3-0.3,0.5-0.6,0.8-0.8c2.2,4.7,3.5,9.9,3.8,15.1c0.2,0,0.3,0,0.5,0.1C583.3,48.5,583.5,47.5,584.4,46.9z M579.5,54.5   c0.6-0.3,1.2-0.6,1.8-0.9c-0.8-0.3-1.5-0.5-1.8,0.4c-0.7-0.2-1.4-0.3-2.4,0.7C578.3,54.6,578.9,54.5,579.5,54.5z M586.2,52.7   c-0.8,1-2.2,1.2-1.4,2.6C585.5,54.4,586.5,54.1,586.2,52.7z M579.2,55.5c1.1,0.8,1.3,1.5,2.3,0.7C581.2,54.9,580.6,55.5,579.2,55.5   z M583.1,52.9c0.2,0,0.4,0,0.6-0.1c-0.1-0.5-0.2-0.9-0.3-1.4c-0.1,0-0.2,0-0.3,0C583.1,52,583.1,52.4,583.1,52.9z" />
	<path fill="#0B0909" d="M547.3,211.6c-5.8,15.9-30.4,0-24,25.6c-0.8,0.3-1.6,0.6-2.5,0.9c-0.7-0.4-1.5-0.9-2.3-1.4   c1-0.6,1.9-0.8,3-0.9c-1.4-4-2.2-7.7-0.1-11.4c0.8-1.2,1.7-2.4,2.4-3.5c8.5-3.1,20.8-2.6,22.7-13.5   C547.6,208.5,547.2,210.1,547.3,211.6z" />
	<path fill="#090908" d="M572.6,48.2c-0.3,0-0.5,0-0.8,0.1c-2.2-9.7-4.7-19.5-8.3-28.8c0.4-0.4,0.7-0.7,1.1-1.2   c-0.9-1.4-1.8-2.8-2.7-4.3c0.4-0.9,0.5-2,1.2-2.7C568.7,22.4,571.9,35.8,572.6,48.2z" />
	<path fill="#1F1A19" d="M502.4,63.7c1.4-0.9,0.5-3,0.8-4.3c1.1,2.5,0.3,5.2,0.8,7.8c8,2.4,9.9,12,7.6,19c-0.3,0-0.6,0-0.9,0   c0.4-4.5-2.5-7.6-2.9-12c-1-0.4-2.1-0.9-3.4-1.4c0.3-0.9,0.6-1.6,0.9-2.5c-1.1-0.8-2.1-1.7-3.3-2.6c0.3-0.3,0.4-0.5,0.7-0.8   C502.7,65.9,502.5,64.8,502.4,63.7z M510.5,78.2c0.3-1.6-0.3-2.5-0.8-4.1C509.2,75.9,509.2,77,510.5,78.2z M506.5,71.1   c0.5,0.6,0.6,1.1,1.4,0.7C507.7,70.9,507.5,70.8,506.5,71.1z" />
	<path fill="#171412" d="M514.4,214.5c0.3-1.3,1.3-0.7,2.1-0.8c0.1,4.7-0.4,9.1-1.4,13.8c6-2.3,3.1-10.1,7-13.8c0,0-0.1-0.1-0.1-0.1   c0.2,3.3-0.7,6.5-1.5,9.7l0,0c-1.7,2.7-2.9,5.6-4,8.5c-0.8-0.5-1.1,0.2-1.6,0.7c-0.8-0.9-1.2-2.4-1.7-3.4   C513.4,224.2,516.5,219,514.4,214.5z" />
	<path fill="#1E150E" d="M168.9,519.8c0.4-0.7,0.9-1.4,1.3-2.1c0.1,0.7-0.4,1.7,0.8,2.1c2.8,3.9,7.6,7.1,11.9,9.2l0,0   c0.4,1,1.1,1.5,2.1,1.4l0,0c0.3,0.9,0.9,1.3,2.3,1.2c-0.7-0.6-1.1-0.9-1.5-1.3c0.2-0.2,0.5-0.4,0.7-0.6c3.2,2.2,6.5,4.5,9.8,6.8   c0,0.3,0,0.6,0,0.8c-0.3,0-0.5,0.1-0.8,0.1l0,0c-1.1-1.5-2.3-2.7-4.2-2.9c-0.3-0.8-0.8-1.4-1.9-1.1c0.4,0.9,1,1.2,1.9,1.2   c0.8,1.4,2,1.9,3.5,2.1c0,0.2,0,0.4,0,0.7c-0.2,0.2-0.4,0.4-0.7,0.7C185.1,532.7,176.2,527.3,168.9,519.8z" />
	<path fill="#221613" d="M590,60.1c1-0.7,2.2-0.7,3.4-0.6c0,1-1.1,1.8-0.3,2.9c0.3-0.1,0.7-0.1,1-0.1c0.3,0.3,0.5,0.5,0.8,0.8   c-1.4,1.2-4.3,1.6-3.9,3.9c0.3,0.1,0.6,0.1,0.9,0.2c0.3,0.3,0.6,0.5,0.9,0.8c-6.7-0.1-3.6,5.8-14,4.2l0.1,0.1   c0.5-1.1,1.6-0.7,2.4-0.9c2.4-0.4,4.8-0.8,6.4-3.1c-0.6-0.2-1.2-0.3-1.7-0.5c0.2-0.2,0.4-0.4,0.7-0.6c1.3,0,2.8,0.3,3-1.7   c-1.9-0.2-3.9-0.3-5.8-0.5c3.4-1.7,7.1,1.7,7.9-4.7C591.1,60.2,590.6,60.2,590,60.1z" />
	<path fill="#332A28" d="M510.7,86.2c0.3,0,0.6,0,0.9,0c0,0.6,0,1.1,0,1.8c1.6,0.1,3.2,0.9,4.5,0.5c1.5-1.3,3.7-1.4,4.8-3.2   c0,0,0.2,0,0.5,0c0.2,0.2,0.4,0.6,0.6,0.9c-0.9,2.4-3.7,2-5.1,4c0.6,0.9,1.2,1.8,1.8,2.8c-0.3,0.3-0.6,0.6-0.9,0.8   c-2.9-2-1.5-4-6.4-4.2C510.2,88.6,509.9,87.5,510.7,86.2z" />
	<path fill="#211614" d="M517.8,93.8c0.3-0.3,0.6-0.6,0.9-0.8c3.7,0,7.3-0.9,10.9-1.3c1.1,3.3-6.7,2.3-8.9,3.6   C519.6,94.9,518.6,94.7,517.8,93.8z" />
	<path fill="#363231" d="M599.1,54.7c2.7-2.3,3.3-5.8,3.6-9.1c0.2,0,0.4,0,0.6-0.1c0,0,0,0,0,0c0.2,0.5,0.4,1,0.6,1.5   c-0.4,3.4-0.7,6.7-1.9,9.9c-1.4-2.8-1.6,0.2-2.9,1.2c0,0,0,0,0,0C599.1,57,599.1,55.8,599.1,54.7z" />
	<path fill="#302927" d="M519,94.6c0.6,0.2,1.1,0.4,1.7,0.6c-0.1,1.2,0.1,2.2,1.7,2.7c1.7-0.6,3.9-1.5,5.9-1.3   c-0.8,2.5-4.3,1.2-5,3.5c-1.3,1.2,0.3,3.8-2.2,4.1c0.9-1.3,1.2-2.7,1-4.5C520.4,98.6,518.5,97.3,519,94.6z" />
	<path fill="#322E2C" d="M601.4,56c0.2,0.3,0.4,0.6,0.6,0.9c-0.5,5-3.8,10.6-9.2,11c-0.3-0.3-0.6-0.5-0.9-0.8   C597.5,66.1,600.3,61.1,601.4,56z" />
	<path fill="#232120" d="M514.3,231.8c2.4,3.6-2,6.1-4.8,7.9c0-1.3,0-2.1,0-3c0.4-0.7,0.8-1.4,1.2-2.1c0.1,0.6,0.2,1.3,0.3,2.1   C512.9,235.4,513.3,233.7,514.3,231.8z" />
	<path fill="#332A26" d="M563.2,11.2c-0.2,0.2-0.3,0.4-0.5,0.6c-0.2,0-0.4,0-0.6,0c-1.5-2.3-4.4-4-7.1-4.3c-0.3-0.2-0.5-0.4-0.8-0.7   c0-0.2,0.1-0.4,0.1-0.6C558,6.8,561.4,7.5,563.2,11.2z" />
	<path fill="#393331" d="M547.3,211.6c-0.1-1.5,0.3-3.1-0.7-4.3c0.5-1.4,0.9-2.8,1.6-4.1c0.9-1.4,0-3.2,1.1-4.5   c0.4,0.9-0.3,2.1,0.7,2.9c-0.7,2.8-2.5,5.3-2,8.3C548,210.5,547.5,211.1,547.3,211.6z" />
	<path fill="#47443F" d="M588.6,69.4c0.4-1.2,1.2-1.6,2.3-1.3c-0.3,3.5-2.2,5.9-5.2,7.5c-0.2-0.2-0.5-0.5-0.7-0.7   C586.1,73.8,591,70.6,588.6,69.4z" />
	<path fill="#42403F" d="M516.5,231.8c0.3-0.5,0.5-1,0.8-1.5c0.9,1.9,0.7,4.6,2.7,5.7c-0.5,0.2-0.9,0.5-1.4,0.7   C516.8,235.6,516.9,233.6,516.5,231.8z" />
	<path fill="#262323" d="M589.4,48.5c-0.2-0.5-0.5-1-0.7-1.6c0.5-1.6,0.9-3.2,1.4-4.9c1,0.5,0.4,1.5,0.7,2.1   C590.3,45.6,589.9,47.1,589.4,48.5z" />
	<path fill="#767373" d="M594,56l-0.2,0.1l-0.2,0c0.4-1.4,0.8-2.9,1.2-4.3c0.3,0.3,0.6,0.5,0.9,0.8c-0.3,1.1-0.6,2.3-0.9,3.4   C594.6,56,594.3,56,594,56z" />
	<path fill="#504A4A" d="M578.7,34.3c-0.3,0.3-0.5,0.6-0.8,0.8c-0.8-1.2-1.5-2.5-2-4.1C577.8,32,577.8,32,578.7,34.3z" />
	<path fill="#6A6666" d="M590.8,44.2c-0.3-0.7,0.2-1.7-0.7-2.1c0-0.9-0.3-1.8,1.1-2.1C591.6,41.4,591.5,42.8,590.8,44.2z" />
	<path fill="#5F544B" d="M599.1,54.7c0,1.1,0,2.3,0,3.4c-0.2,0-0.4,0-0.7,0c0.2-1.1-0.8-1.4-1.5-2.1   C597.7,55.6,598.4,55.1,599.1,54.7z" />
	<path fill="#F6E0C0" d="M572.6,48.2c0-1.6,0-3.2,0-4.8c1.1,1.4,0.4,3.3,0.5,5C573,48.3,572.8,48.3,572.6,48.2z" />
	<path fill="#201613" d="M585.1,74.9c0.2,0.2,0.5,0.5,0.7,0.7c-0.4,0.5-0.8,0.9-1.2,1.4c-0.8-0.4-1.6-0.8-2.4-1.2   c0,0,0.2-0.2,0.2-0.2C583.3,75.3,584.2,75.1,585.1,74.9z" />
	<path fill="#463F3E" d="M594.9,81.9c0.5-0.4,0.9-0.9,1.4-1.3c0.5,0,1.1,0,1.8,0C597.3,82.4,595.8,81.4,594.9,81.9z" />
	<path fill="#4A3935" d="M597,56c0.2,0.2,0.5,0.5,0.7,0.7c-0.7,0.4-1.4,0.8-2.1,1.3c-0.2-0.2-0.5-0.4-0.7-0.6c0.1-0.2,0.1-0.4,0-0.6   C595.6,56.5,596.3,56.2,597,56z" />
	<path fill="#463F3E" d="M592.8,83.3c-0.3-0.3-0.5-0.6-0.8-0.9c0.5-0.4,0.9-0.8,1.4-1.1c0.5,0.2,1,0.4,1.5,0.6   C594.2,82.4,593.5,82.8,592.8,83.3z" />
	<path fill="#564341" d="M584.4,46.9c-0.2,0.2-0.5,0.5-0.7,0.7c-0.2,0-0.4-0.1-0.5-0.1c-0.1-0.7-0.1-1.4-0.2-2.1   C584,45.4,584.4,45.9,584.4,46.9z" />
	<path fill="#C7C0C0" d="M595.8,52.5c-0.3-0.3-0.6-0.5-0.9-0.8c0.3-0.4,0.6-0.8,0.9-1.3C596.6,51.4,596.4,52,595.8,52.5z" />
	<path fill="#CAB9A3" d="M583,45.5c0.1,0.7,0.1,1.4,0.2,2.1c-0.2,0.2-0.5,0.5-0.7,0.7c0-0.9-0.1-1.8-0.1-2.7   C582.5,45.4,582.7,45.4,583,45.5z" />
	<path fill="#463F3E" d="M595.8,80.4c-1,0-2.2,0.7-3-0.5C593.9,79.9,594.9,79.6,595.8,80.4z" />
	<path fill="#959595" d="M594.9,56.8c0.1,0.2,0,0.4,0,0.6c-0.8-0.1-0.7-0.8-0.9-1.3c0.3,0,0.6,0,0.9-0.1   C594.9,56.2,594.9,56.5,594.9,56.8z" />
	<path fill="#B6AFAF" d="M603.3,45.5c-0.2,0-0.4,0.1-0.6,0.1c-0.2-0.5,0-0.8,0.3-1.2C603.4,44.7,603.4,45.1,603.3,45.5z" />
	<path fill="#B6AFAF" d="M603.9,47c-0.2-0.5-0.4-1-0.6-1.5C604.1,45.8,604.1,46.3,603.9,47z" />
	<path fill="#332A28" d="M517.8,93.9c0.2,0.2,0.5,0.4,0.7,0.6C518.3,94.2,518.1,94,517.8,93.9z" />
	<path fill="#F6E0C0" d="M573.8,49.9c-0.2-0.3-0.4-0.6-0.5-0.9C573.4,49.3,573.6,49.6,573.8,49.9z" />
	<path fill="#F6D9C7" d="M610.5,134.7c-2.6,1.9-4,6.3,0.6,3.1c4.6,1,6,6.3,10.4,8.3c-0.5,3.3-0.7,6.7-0.6,10   c-13.9,9.4-35.9-1.3-33.8-19.7c-0.4-0.2-0.8-0.5-1.3-0.8c0-8.8,0.8-17.5,2.9-26.2c2.9,1.2,5.8,0.5,7.6-2c-2.3-0.6-4.5,0-6.9,0.6   c0.1-5.3,2.9-10.3,4.3-15.5c33.5,2.7,36.7,22.5,59,40.5c4.7,3.3,7.9,8.1,12.1,12.1c4.6,6.2,13.9,10.6,14.8,18.8   c0.1,15.2-13.3,25.8-24.3,34.4C649,204,641.7,209.5,637,217c-4.9,6.9-8.8,13.9-14.6,20.2c-3.3,3.4,0.1,9.1-3.4,12.5   c-0.8-0.8-1.3-1.2-2.1-2c-2.1,3.6-7.7,22.1-11.3,22.5c-0.6-9.5,5.7-17.7,6.9-26.9c-4,4-3.8,10.5-8.9,13.9c-2.5,1.6-3.6,8.4-6.1,8.5   c-2.7-4.6,2-9.2,3.1-13.5c1.4-6.1,4.5-11.3,5.7-17.3c-3.2,2.3-2.5,7-6,9.1c-4.1,3-4.7,9.9-10.2,11c-2.2-4.7,6.9-15.1,8.4-20.4   c1.7-3.2,2.8-6.8,5.4-9.4c0.7-0.7,2-0.6,2.4-2.2c-4.2,0.9-16.3,6.3-18.2,0.6c5.5-1,10.3-3.4,15.3-6.5c5.8,0.7,11.1,0.9,15.4-3.8   c0.8,0.2,1.4,0.4,1.9,0.5c17.1-11,24.5-30.6,33.9-47.8c2.7,0.2,5.1-0.3,6.3-2.9c-0.5-2.8-2.3-4.2-4.6-4.9   c-9.9-4.8-18.8-11.6-26.4-19.6c2-0.8,2.7-1.3,4.3-2.7c-11.3-2.5-23.5-6.2-31.3-15.1c-2.7,2.2,1.1,5,1.8,7.3   C605.7,131.2,608.7,132.3,610.5,134.7z M674.1,159c-0.6-0.3-1.2-0.5-1.8-0.8c-0.4,1.7-1.4,3.2-0.2,4.8c-2.1,3-0.9,2.9-0.8,5.8   c-0.9,0.7-0.9,0.8,0,1.5c0,1.2,0.2,2.2,1.2,3.2c3.4-2.9,3.4-7.4,2.8-11.4C674.4,161.2,675.4,159.7,674.1,159z M607.4,140.4   c-2.3-2.3-4.3,5-2.5,5.3C606.4,144.2,606.5,142.1,607.4,140.4z M612.8,234.5c1.8-0.9,2.2-1.7,1.4-3.3   C612.2,232.8,612.2,232.8,612.8,234.5z M619.2,235.1c-2.5,1-2.5,1-2.1,3C618.6,237.9,618.9,236.7,619.2,235.1z M599.6,105.4   c0.3-0.5,0.6-1,0.9-1.4C599.3,102.3,597.4,104.9,599.6,105.4z M617.8,225.4c-0.4,0.6-0.6,0.9-1.1,1.6c0.8-0.1,1.2-0.2,1.5-0.3   C618.1,226.4,618,226,617.8,225.4z M615.8,228.1c-0.9,1.4-0.3,2.1,0.8,0.8C616.4,228.8,616.2,228.6,615.8,228.1z M608.3,220.5   c-0.5,1.1-0.7,1.5-0.8,1.8c0.4,0.6,1.1,0,1.3-0.5C608.8,221.7,608.6,221.4,608.3,220.5z M602.4,103.5c0.1-0.1,0.2-0.2,0.2-0.2   c-0.3-0.1-0.5-0.4-0.7,0C602.1,103.4,602.2,103.5,602.4,103.5z" />
	<path fill="#F6D9C7" d="M610.3,282.3c9.2-6.8,21.3-5.2,32.1-6.2c4.9-0.2,8.5,3.4,12.9,5.2c-0.2,8.6-1.8,17.1-1.4,25.6   c0.5,0.1,0.8,0.2,1.3,0.4c-1.6,15.3,0.9,31.2,3.3,46.1c16,19.6,32.8,28.9,38.1,56.3c4.5,18.1,17,35.7,15.8,54.4c-1.2,0-2.4,0-3.9,0   c-2.8-6.5-4.3-13.6-9.2-19.1c-8-10.6-13.9-22.7-23-32.5c-5.9-10.6-20.6-15-24.8-26.3c1.8-0.1,3.2,1,4.6,1.8   c1.3-1.2,1.3-1.2,0.6-2.1l0,0c-4.1-4.1-8.2-9.2-13.3-11.7c-4.8-6.2-6.5-14.2-12.6-18.9c0.4-8.5-5.8-15.3-8.9-22.9   C616.5,316.2,615.4,298.7,610.3,282.3z M635.4,349.6c2.1,2.6,10.2,5.1,9-0.6c-4.1-2.6-9.6-14.3-14.5-7.9   C629.5,344.7,632.4,348,635.4,349.6z M647.8,366.1c1.3-3.7,2.5-7.2,0.7-10.2C646.9,357.3,646.4,363.4,647.8,366.1z M654.1,375.5   c1.2-2.2,2.9-8.4,0.6-9.9C654,368.9,653.1,371.7,654.1,375.5z M646.1,368.5c1.9-0.3,1.6-1.9,0-2.5   C646.1,367.1,646.1,367.8,646.1,368.5z M655.2,380.1c-0.9,1.1-0.9,1.6,0,2.2C655.2,381.5,655.2,381,655.2,380.1z" />
	<path fill="#F6D9C7" d="M484.1,289.8c18.3-27.3,30.6-37.5,59.6-52.7c13.2,6.7,21,20.9,28.1,33.3c-14.9,8.2-30.9,15-44.9,24.8   c-6.3,5.4-16.4,1.9-22.6,7.5c1.5,1.6,3.8,2.7,5.7,1.4c14.2-1.8,27.6,9.3,34.3,21.8c3.3,17.3,9.8,34.1,20.5,48.2   c-1.2,2.1-2.3,4-3.6,6.3c-2.8,1-6.7,2.5-9.6,0.3c-2.6-9.3-8.9-17.1-13.6-25.5c-4.2-8-12.4-12.4-18.2-18.9l0,0c1,0,1.9,0,2.9,0   c1.9,2.8,15.8,13,18.5,9.6c-0.7-3.2-4-4.4-6.3-6.2c-6.5-4.3-13.4-8.1-17.4-15c-3.1-3.9-2.1-9.7-6.4-12.7c-0.8,1-1.6,2-2.4,3   c0.2,6.9,4.4,11.2,6.9,17.1v0c-4.6-1.8-6.1-7.1-9.2-10.6c-6.6-9.7-15.8-16.1-22.5-26.1C484.1,293.7,484.1,291.8,484.1,289.8z    M490.6,296.3c-2.2-0.6-1.9-3.4-4-4.1c-0.1,2.6,0.4,3.4,2.6,4.2c0.8,1.5,0.8,1.5,2.6,1.1C491.3,297,490.9,296.6,490.6,296.3z    M561.2,375.2c0.4-2.1-0.6-3.8-2.8-4.7C558.2,372.6,559.3,374.1,561.2,375.2z M556.5,369.1c2.2-0.2,1.3-1.6-0.2-2.6   C556.4,367.8,556.4,368.5,556.5,369.1z M554,364.2c0.5-0.9,0.6-1.5-0.4-1.9C553,363,553.1,363.6,554,364.2z" />
	<path fill="#FFF0A7" d="M588.4,189.7c-2.9,0-5.8,0.5-8.6-0.1c-0.9-2.8-1.7-5.6-3.5-7.8c0.2-0.4,0.3-0.8,0.4-1.1   c5-2.9,11.9-5.2,12.7-11.9c-0.6,0.3-1,0.5-1.4,0.6c-2.8-0.5-5.2,0.7-7.6,2c-4.9,1.4-10,1.8-15.1,1.5c-6.7,0.7-8.3-6.3-14-7.7   c-0.8,0.8-1.7,1.6-2.7,2.6c0.3,1.4,0.5,2.7,0.8,4.2c-11.7-1.6-16.9-2.9-24.6-12.4c0.6-17.9,7.9-35.4,6.9-53.6   c1.6-1.3,3.5-1.6,5.5-2.1c-3.2,12.8-4.2,26.3-0.7,39.3c2.5,12.6,22.1,21,30.1,8.5c4.1-6.7,4-15.3,6.5-22.7   c5.1-12.4,8.4-25.5,15.1-37.1c1.1-0.2,2.2,0.1,3.3,0.7c-10.9,26.5-15.8,81.8,28.8,66.4c0.2,4.7-0.1,10.2-1.7,14.7   C608.9,179.4,599,185.5,588.4,189.7z M615,162.6c-1.4,1.1-1.4,1.4,0,3.8C615.3,165,615.5,163.8,615,162.6z M614.9,172.1   c0.9-0.6,0.5-1.1,0.1-1.8C614.2,171,614.3,171.5,614.9,172.1z M592.3,165.3c-0.9-0.4-1.1-0.3-1.2,0.5   C591.6,166.3,591.9,165.9,592.3,165.3z" />
	<path fill="#F6D9C7" d="M560,68c0.2,0,0.5,0.1,0.7,0.1c3,12.1,13.4,20.8,25.4,23.4c-6.1,14.1-13.3,28.4-16.6,43.7   c-1.3,9.6-5.7,24.9-18.4,20.1c0.4-3.4,2.2-6.1,3.5-9.9c-1.3,1-2.1,1.6-3,2.4c-0.5-0.4-1-0.9-2.1-1.8c0.4,1.8,0.6,2.9,0.9,4.3   c-0.4,1.2-0.8,2.5-1.3,3.9c-14-4.7-13.1-26.8-11.7-38.7c5.1-0.3,14.1,1.8,15.7-4.7c0.5-2.9,3-5.3,1.9-8.7l0,0   c3.2-7.9-0.1-18,0.7-26.7C555.5,72.6,559.4,71,560,68z M556.1,123c-1.2-0.5-3.6-3.3-4.5-1.1c1.3,2,1.3,2,3.9,3.2   c2.1-1.5,5-1.6,7-3.6C561,119.2,558.1,122.6,556.1,123z" />
	<path fill="#F6D9C7" d="M523.4,100.2c0.7-2.3,4.2-1,5-3.5c-0.9-0.9,0.1-1.8,0-2.8c0.9-0.4,1.7-0.8,1.2-2.2   c-3.6,0.4-7.2,1.3-10.9,1.3c-0.6-1-1.2-1.9-1.8-2.8c1.4-2,4.2-1.6,5.1-4c-0.2-0.3-0.4-0.6-0.6-0.9c-0.3,0-0.5-0.1-0.5,0   c-1.1,1.8-3.4,1.9-4.8,3.2c-1.3,0.3-2.9-0.4-4.5-0.5c1.5-7.7,1.6-18.1-7.6-20.9c0.6-6.5-3-13.2-1.6-19.6c1.5,0,3-0.1,4.5-0.1   c1.5,1,1.5,1,2.6,0.2c5.5-0.7,11.4-1.1,15.9-4.3c1.9,0.2,2,2,2.9,2.8c0.3,2-0.2,3.9,0.6,5.6c0.2,1.1-0.9,2.3-0.2,3.6   c1.8-0.3,3.3,0.3,4.5,1.4c1.5,0.8,3.1-1.5,4.3-0.1c0.3,1,1.6,1.3,1.6,2.5c0.5,0.3,1.3,0.7,1.9,1.1l0,0c0.5,1.2,1.3,2.1,2.8,2.2   c2,3.4,5.2,2.4,7.2-0.6c1.1,0.9,2.7,0.3,3.2,1.9c-0.7,1.4-2.2,2.9-1.1,4.7c0.9,0.3,1.9,0.7,2.7,1c0.6-0.3,1-0.5,1.4-0.7   c0,0-0.1,0-0.1,0c0.1,1.4-0.8,2-1.8,2.6c-0.9,0.3-2.1-1.1-2.8,0.6c4.7,12.4-7.5,27.2-18.8,31.5c-2.8,1-5.7,1.1-8.5,0   C523.7,102.7,524.7,100.8,523.4,100.2z M525.4,67.3c1.9,0.9,3.9,0.7,6,0.3c-5.1-3.5-13.8-3-16.4,3.1   C519.1,70.2,521.1,66.2,525.4,67.3z M527.7,71.6c-1.4-0.5-2.4,0-3.6,0.2c-2.1,0.6-4.4-0.2-6.4,0.6C520.1,77.4,524.9,74,527.7,71.6z   " />
	<path fill="#F7EFD0" d="M529,427.4c3.4-3.1,6.5-6.3,9.2-10.2c1.1,0.2,2.4,0.2,3.2-0.7c0.3-1.6-1.3-1.7-1.8-2.7   c0.1-0.3,0.3-0.7,0.5-1.1c1.9,0.4,4.3,1.2,4.5-1.4c-1.2-0.6-2.3-1.2-3.6-1.9c0.3-1,0.5-1.8,0.7-2.7c2.1-0.6,4.6,2.7,6.2-0.4   c-0.8-2-3.2-2.1-5-2.8c-0.1-1,0.2-1.8,0.5-2.8c3.2-0.2,6.5,2.2,9.6,0.6c3-4.3-6.9-3.1-9.2-3.9c0-0.9,0-1.7,0-2.6   c3.2,0.6,9.2,3.7,11,0.1c0.1-1-0.7-1.8-2-1.9c-3.4,0-6.8-0.3-9.9-1.7c-1-2.7-0.6-5.4-0.7-8.2c7.3-0.5,14.5,2.6,21.5-1.1   c0.8-2.7,2.1-5.1,4.4-7c-1.6-3.6-0.4-8.7,4.6-6.6c4.6,7.3,12.7,11.9,19.3,17.7c-0.1,3.7-1.5,7.7-4.1,11.8   c-6,3.5-20.1,5.8-22.9,11.1c-5.7,12.6-22.1,25.3-36,19.8C529.1,428.4,529.1,427.9,529,427.4z" />
	<path fill="#FF9A77" d="M610.3,278.6c-1.7,1.1-2.7-5.1-2.9-6.4c1.9-1.6,1.9-4,3.8-5.6c0.5,0.5,0.9,0.8,1.2,1.1   c0,0.5-0.3,1.1-0.3,1.6c2.9,4.3,7.7-7.8,9-9.7c3.3-3.8,1.5-9,4.8-12.7c3.3-5.1,4.4-10.7,6.6-16.3c4-4.1,9.6-7.3,12.6-12.5   c11.5,15.9,11.6,40.6,10.7,59.7C643.3,270.7,623,271.9,610.3,278.6z M644,238.2c-1.6,0.7-3.3,1.1-5.2,3c2.7-0.3,3.6-0.8,5.8-1.6   c0.9,1.4,0.3,3.5,2.1,4.8c0-2.2,0-4.2,0-6.1c0.4-0.5,0.8-1,1.4-1.7c-0.9,0-1.4,0-2.1,0c-0.8-1.3-4.1-11.1-5.6-8.2   C641.5,231.6,644.1,234.7,644,238.2z M647.9,268.3c0.2-4,0.9-11.7-0.9-14.9C646.3,257.6,646.7,264.1,647.9,268.3z" />
	<path fill="#F7EFD0" d="M693.8,483.3c1,0,2.2,0.3,2.6-1c-1.1-2.5-1.3-2.7-9.5-6.4c0.2-0.7,0.5-1.5,0.9-2.2c3,0.3,12.9,6.6,13.6,2   c0.5-1.2,2.2-0.7,3.1-0.7c2.8-2.7-11.2-7.9-13.3-9.9c1.1-3.7,3.8-6.3,3.4-10.4c2.8,0.3,5.1,1.3,7.5,1.6c5.3,7.4-0.2,13.3,12.4,10.9   c2.8-3.2,1.4-7.2,0.9-11.1c1.5-0.2,2.8-0.1,4.4,0.4c4.6,8.3,6,18.1,8.9,27.1c-8,4.7-16.7,5.6-22,14.5c-7.5,8.1-19.3,7.5-29.2,6.5   c-2.6-0.3-5.3,0.8-7.5-1.3c-0.4-3-1.4-6.3-3.6-8.6c6.8-3.2,12.2-5.5,17.1-11.6c2.8,1.2,5.7,2.5,8.5,3.8c1.1-1.2,1.1-1.2,0.4-2.7   C692.8,483.8,693.3,483.6,693.8,483.3z M686.2,490.4c0.4-0.5,0.7-0.9,1-1.2c-0.8-2.1-3.6-5.6-5.2-2.1   C682.8,488.9,684.3,489.8,686.2,490.4z" />
	<path fill="#F3BF10" d="M196.3,536.4c-6.9-4.4-13.2-10.1-20.4-13.8c0,0,0,0,0,0c-0.8-1.4-1.9-2.5-3.5-2.8l0,0c-0.6-1-0.8-1-1.5,0   l0,0c-1.6-0.9-0.4-3.5-0.8-5.3c12.3-3.3,4.1-6.2,14.6,3.7c14.3,11.3,30.1,20.5,44.5,31.6c17.3,14,35.5,28.1,56,35.6   c4-1.2,5.4,0.4,6.5,5.4c-0.8,1.1-2.1,0.8-3.2,0.9c-3.7,0.3-4.8,0.7-8,2.6c-0.6-1.7-1.3-2.8-2.4-4.2c0.4-0.7,0.9-1.4,1.3-2.1   c-0.1-1.1-0.8-1.2-1.6-1.1c-1.7,0.1-1.6,1.9-1.5,3.2c-0.8,0.3-1.5,0.6-2.3,1C245.5,576.8,222.2,554.6,196.3,536.4z M287.3,586.8   c-2.8-0.8-3.1-0.7-5.1,1.9C284.3,588.3,285.8,587.9,287.3,586.8z" />
	<path fill="#FF9A77" d="M573.9,269c-7.5-12.3-14.7-25.2-27.2-33.3c1.6-2.4,5-2.4,6.9-4.2c1.8-2.6,4.8-3.6,7.4-4.9   c0.8-1.3,1.3-2.8,2.3-3.9c1.1-1.1,0-3.2,1.7-3.9c1.7,2.3,0.6,5.1,1.8,7.5c0,0.2,0,0.4,0.1,0.6c-0.2,0.8,0.2,1.9-0.8,2.2   c-0.6-0.3-0.8-1.5-2.1-1.1c3.8,6.3,8.2,11.7,13.8,16.3c0.3-1.2-0.4-1.6-1.1-2c-2.9-5-8.3-10.4-7.9-16.5   c9.7,9.4,13.3,11.8,27.1,11.4c-3.9,5.5-6,10.9-8.9,16.7c0.5,0.9,1,1.7,1.5,2.5c0.8,0.2,1.6,0.4,2.3,0.6c4.3-1.6,6-5.6,8.5-9   c0.3-0.4,0.4-1,1.2-0.8c-0.8,6.8-6.9,11.8-5.5,19.1c0.1,1.5-0.4,2.6-1.9,3.4C587.6,259.3,582,266.9,573.9,269z M582.1,246.2   c-0.2,0.2-0.4,0.3-0.6,0.5c1.7,2.4,1.9,5,4.7,6.5C585,250.2,583.8,248,582.1,246.2z M558.9,228.5c1.8,1.8,4.5,3.3,6.2,3.7   C563.3,229.8,562.3,229.2,558.9,228.5z" />
	<path fill="#E1C7B6" d="M656.6,386c0.7,0.9,0.7,0.9-0.6,2.1c-1.4-0.8-2.8-1.9-4.6-1.8c3.5,9.7,15.2,14.1,21.7,22.2   c11.6,14,21.7,29.5,31.1,44.9c-3-0.6-5.9-1.2-9-1.8c-3.5-8.9-9.1-16.8-13.7-25c-8.2-10.5-19.1-18.6-27-29.3   c-5.8-8.5-10.6-18.1-18.5-24.8c-4.2-3.2-4.8-8.5-6.7-13c0.6-0.2,1-0.4,1.5-0.5c-16.4-20.5-19.5-46.6-29-70.6   c2.7-2.1,5.3-4.4,8.4-5.9c5.1,16.4,6.2,34,11.5,50.3c3.1,7.5,9.2,14.4,8.9,22.9c6.1,4.7,7.8,12.7,12.6,18.9   C648.3,376.8,652.5,381.9,656.6,386c-0.2,0.1-0.8,0-0.3,0.6C656.4,386.4,656.5,386.2,656.6,386z" />
	<path fill="#F6D9C7" d="M581.6,192.6c7.5-1.5,14.4-4.1,21.2-7.4c0.1,0.6,0.1,1.1,0.2,1.7c2-0.3,1.5-2.2,2.3-3.4   c4-3.4,9.5-4.8,13.5-8.3c0.3-0.2,0.9-0.1,1.3-0.1c0,10.3,5.8,18.1,12,25.7c-5,6.7-12.6,9.3-19.2,14.2c-3.4-0.6-7.2,1.5-10.5,0.7   c-1.6,0.8-3,1.5-4.5,2.2c-0.2-0.2-0.6-0.6-0.6-0.7c1-2-0.3-3.9,0.3-5.9c-1.1-2.2-2.3-4.5-4.2-6.1l0,0c-1.1-1.1-2.3-2.2-2.7-3.7   c-1.3-0.7-2.5-1.4-3.8-2.1c-1-2.5-4.2-3.6-6.1-5.5C581.1,193.6,581.4,193.1,581.6,192.6z M610.7,189.8c-1.4,1.2-1.6,2.6-1.6,4.8   C610.7,193,611.8,192,610.7,189.8z M601.5,191.3c0.6-0.6,1.3-1.1,0.7-2c-0.9-0.1-1.5,0.9-1.2,1.8   C601,191.1,601.1,191.1,601.5,191.3z M609.7,195.7c-1.2,0.1-2.1,0.5-1.2,1.6C609.2,197,609.5,196.4,609.7,195.7z" />
	<path fill="#E1C7B6" d="M597.6,211.4c-0.6,2,0.8,3.9-0.3,5.9c-0.1,0.1,0.4,0.5,0.6,0.7c-0.8,0.4-1.6,0.8-2.3,1.2   c-4.1-1.5-5.3-5.7-7.9-8.8c-0.1,0.1-0.3,0.1-0.4,0.2c1.1,3.3,2.1,6.6,3.2,9.9c0.7,0.1,1.2,0.2,1.8,0.2c-1.4,0.8-3.4,0.5-4.4,2   c-1.5,0.3-1.5,0.3-1.4,2.1c-0.6,0.3-0.7,0.8-0.4,1.4c1,1.8,0,3.5-0.5,5.2c-0.3,1.7-2.4,1.5-3.3,2.5c-9.5-4.5-16.8-12.8-16.2-23.8   c-0.7-1.5-2.7-2.9-2.3-4.7c-1.7-5.2-9.1-7.5-8.8-13.9c8.8,2.3,17.7,1.8,26.6,1.1c-0.2,0.5-0.5,0.9-0.7,1.4   c-0.4,0.1-0.8,0.2-1.5,0.3c2.6,4.5,7.4,4.7,11.3,7.2c-0.4,0.1-0.8,0.2-1.9,0.6c1.3,0.4,1.9,0.6,2.5,0.8c0.7,0.8,1.4,1.6,2.1,2.3   c-0.9,1.1,0.5,1.9,1.1,3.1c0.3-0.5,0.5-0.8,0.6-1.1c0.4,0.5,0.8,1,1.1,1.5c-1.3,0.9-0.2,1.8,0.2,2.9   C597,211.5,597.3,211.5,597.6,211.4z M569.8,205.5c-0.6-1.7-4.5-12.8-6.4-10.2C564.8,199.3,566.2,202.8,569.8,205.5z M574.2,218.8   c1.7,0.2,3.4,0.6,5.4,0.4c-0.9-2.4-3.1-4.3-5.4-3.2C574.2,216.8,574.2,217.7,574.2,218.8z" />
	<path fill="#F3BF10" d="M316,496.6c21.8,10.8,41.2,25.3,63.3,35.6c9.6,7.9,17.9,10.5,30.4,11.4c-1.3,2.8-4,3.6-6.3,4.9   c-3.6-7.1-8.8-2.9-14.6-5.5c-22.3-10.1-44.5-20.7-65.2-33.6c-0.1-0.2-0.3-0.2-0.5-0.2c-0.3-0.6-0.9-0.7-1.6-0.6   c-12.7-9-25.4-17.9-38.7-26c-0.8,0.4-1.4,0.6-2,0.9c-0.4-0.8-0.8-1.6-1.3-2.6c2.7-2.8,6.1-3.1,9.7-3c1.1,1.6,1.3,3.8,3.5,4.1   C299.6,488.3,307.6,492.9,316,496.6z" />
	<path fill="#E1C7B6" d="M515.7,332c-0.8-3.1-3.9-5.3-4.2-8.5c1,0.9,1.6,2.3,3.2,2.1c-0.6-3.3-2.5-6.5-4.6-7.6c0,1,0,1.9,0,2.8   c-0.9-1.3-1.4-3.5-1.3-5.8c0.8-0.9,1.5-1.9,2.4-3c4.3,3,3.3,8.8,6.4,12.7c4.1,6.9,10.9,10.7,17.4,15c2.3,1.8,5.6,3,6.3,6.2   c-2.2,3.3-16.3-6.3-17.9-9c0.4,0,0.8,0,1.2,0.1c0.9-1.8-1.8-2.4-1.8-0.7c-1,0-1.9,0-2.9,0c-0.2-0.1-0.3-0.2-0.5-0.3   c6.1,6.4,14.3,11.2,18.7,19.2c4.7,8.4,11,16.2,13.6,25.5c0.7,0.4,1.3,0.7,1.9,1c-2.4,0-4.9-0.2-7.4-0.7c-3-24.9-28.4-36.5-43.8-53   c0.1-0.5,0.2-1,0.4-1.7c-6.4-8.5-12.4-17.3-19.7-25.1c1.2-3.7-0.4-8,1-11.3c0,2,0,4,0,5.5c6.6,10,15.9,16.4,22.5,26.1   c3.1,3.7,4.8,9,9.6,10.9C516,332.2,515.9,332.1,515.7,332z M515.9,329c0.6,1.4,2.3,2.4,3.3,1c-0.5-1.3-1.1-2-2.5-2   C516.5,328.3,516.2,328.6,515.9,329z M520.5,332.1c-0.2,0.4-0.4,0.7-0.5,0.9c0.5,0.8,1.1,1.2,2,0.8   C522.4,332.8,521.7,332.4,520.5,332.1z" />
	<path fill="#EBDA8F" d="M576.7,180.7c-0.1,0.3-0.3,0.6-0.4,1.1c1.8,2.2,2.6,5,3.5,7.8c0.7,0.1,1.4,0.2,2,0.3   c-9.3,0.6-19.5,2.2-28.3-1.9c-1.1-2.3-2.6-4.5-2.3-7.3c-8.8-8.7-24.4,3.3-26.4-21c7.7,9.4,12.9,10.8,24.6,12.4   c-0.3-1.5-0.5-2.8-0.8-4.2c1-1,1.9-1.8,2.7-2.6c5.7,1.4,7.3,8.4,14,7.7c5.2,0.3,10.2-0.1,15.1-1.5c2.4-1.3,4.8-2.5,7.6-2   c-6.3,9.1-18.5,12.2-28.5,7.1c-1.1-0.3-2.9-1.7-3.7-0.4C559.9,182.5,570,182,576.7,180.7z M552.5,174.1c0.8,1.2,0.8,1.2,2.3,0.6   C554.1,173.6,554.1,173.6,552.5,174.1z M550.5,173.6c0.1-0.3,0.4-0.6,0-0.8C550.1,173,550.1,173.2,550.5,173.6z" />
	<path fill="#F2BF10" d="M592.9,472.8c-1.3,3.8-4.8,3.7-7.7,4.8c-0.6-1-1.2-2-1.9-3.1c-2.6-1.3-5.3-0.8-8,0.6   c-37.1-15.8-73.8-32.7-111.9-45.9c-0.2-1-0.4-1.9-0.6-2.8c1.2-1.1,3.2-1.1,4.8-1.7c2.7,4.7,8.7,5,13.4,7c10.2,3.3,20,7.7,29.9,11.6   c22.3,9.6,46,16.4,67.4,27.6C582.9,474.3,588.1,469.7,592.9,472.8z" />
	<path fill="#F2BE10" d="M399.4,458.9c19,9.1,38.6,16.9,57.3,26.5c16.6,7.6,32.7,21.3,51.1,21.3c-1.2,0.8-2.3,1.8-2.8,3.2   c-2.7-0.2-2.7-0.2-4.8-1.7c-3.1-0.3-6.1-0.4-9.1-0.9c-12.6-4.2-23.5-13.3-35.8-18.7c-24.6-11.9-49.9-22.4-75.2-32.6   c-0.2-1.8-2.5-2.1-2.4-4c1.8-1.4,4.3-0.1,6.2-1.7C387.6,455.4,394.1,456.1,399.4,458.9z" />
	<path fill="#E1C7B6" d="M610.5,134.7c-1.8-2.5-4.8-3.5-5.8-6.7c-0.7-2.3-4.5-5.1-1.8-7.3c7.8,8.9,20,12.7,31.3,15.1   c-1.6,1.5-2.3,1.9-4.3,2.7c7.6,8,16.5,14.8,26.4,19.6c2.3,0.7,4.1,2.1,4.6,4.9c-1.2,2.6-3.6,3.1-6.3,2.9c-0.1-0.7-0.1-1.3-0.2-2.2   c-0.7,0.2-1.3,0.4-2,0.5c-14.2-7.5-25.4-19.1-38.7-28.1c-0.2-0.5-0.4-1-0.7-1.6C612,134.6,611.2,134.7,610.5,134.7z M655.5,159.3   c-0.9-0.6-1.4,0.2-0.6,0.9C655,160.1,655.1,159.9,655.5,159.3z" />
	<path fill="#E1C7B6" d="M508,304.7c-1.5-0.5-2.6-0.7-3.7-2.1c6.2-5.5,16.3-2.1,22.6-7.5c14-9.8,29.9-16.6,44.9-24.8   c1.4,2.5,2.7,4.8,3.6,7.6c-19.2,10.5-39.5,18.7-60.6,24.7c1.1,1.4,2.9,0.1,4,1.2c-1.9,0-3.8,0.1-5.8,0.1c0.1-0.4,0.2-0.8,0.3-1.3   c-1.5-0.2-2.5,0-3.2,1.3c-0.5,0.2-0.9,0.4-1.4,0.7c-0.1-0.4-0.1-0.8-0.2-1.1c-0.1,0-0.2,0-0.3,0C508.1,303.9,508.1,304.3,508,304.7   z" />
	<path fill="#EBDCB8" d="M666.3,494.6c2.2,2.3,3.2,5.5,3.6,8.6c2.2,2.1,4.9,1,7.5,1.3c9.9,1,21.8,1.6,29.2-6.5   c5.4-8.9,14-9.8,22-14.5c0.7,1.2,1.4,2.3,2.2,3.6c-5,5.4-13.6,3.9-17.9,9.7c-4.5,4.3-8.5,10.5-14.5,12.8c-10.8,2.9-23,1.9-33.2-2.8   C666,503.5,663.1,495.9,666.3,494.6z" />
	<path fill="#EF8A6A" d="M573.9,269c5.2-0.9,12.6-8.2,16.8-2.8c-1.3,1.3-0.4,2.1,0.7,3.7c0-1.2,0-1.8,0-2.3c0.6,0.6,1.1,1.3,1.7,1.9   c1.5-0.8,2-1.9,1.9-3.4c5,6.4,7.2-6.2,11.2-8.3c-1.3,4.9-2.4,9.5-2.7,14.2c1.3,1.2,2.6,0.6,4,0.3c0.4,2.2,0.8,5.1,2.4,6.6   c-3,1.9-5.6,5.1-8.8,6.3c-6.7-14.5-10.4-11.8-23.7-7.7C576.1,274.6,575,271.8,573.9,269z" />
	<path fill="#F5D8C6" d="M541.5,209.5c-2.7-0.1-5.4,1.1-8.2,0.6c-4.7,0.9-9.2,4.9-12.7-0.9c6.5-1.5,12.7-3.6,17.2-8.8   c-7.1,1.3-8.2,6.7-18,6.9c0.4-3.2,2.9-4.5,4.7-6.9c14.5,0.7,19.4-7.1,22.3-20.1c2.4,3.2,3,6.9,4.6,10.4c-5.1,4.5-6.2,10.4-8.3,16.2   C541.6,207,543,209.1,541.5,209.5z" />
	<path fill="#EBDCB7" d="M529,427.4c0,0.5,0.1,0.9,0.1,1.3c14,5.5,30.3-7.2,36-19.8c1.9-4.8,17.7-7.9,22.9-11.1   c-3.5,9.9-15.5,6.1-19,11.7c0.2,0.6,0.4,1.3,0.7,2.2c-8.3,20.6-15.4,17.7-34.5,23c-2.2-1-4.2-1.9-6.2-2.9   C528.5,430.6,527.9,428.4,529,427.4z" />
	<path fill="#4B505D" d="M294.6,588.5c-0.4-0.7-0.8-1.3-1.2-2.2c33.7-13.9,68.3-26.1,102.3-39.4c2.2-0.9,2.3-0.8,4.3,1.3   C364.7,561.8,329.9,574.9,294.6,588.5z" />
	<path fill="#F0BD10" d="M660,442.8c2.9,2.1,7.7-2.4,9.7,1.7c-1.4,1.9-3.9,2-6,3c-0.8-2-2.1-4-4.3-3.3c-31.1-2-59-19.9-89-27.7   c0.5-1.4,1-2.6,1.5-3.9C600.2,424.9,629.9,435.8,660,442.8z" />
	<path fill="#E0C6B5" d="M555.6,75.4c-0.8,8.7,2.5,18.7-0.7,26.7c0.2-1,0.7-2-0.3-3.1c-0.8,2.4,0.8,4,0.6,6.1   c-0.8,2.1-1.9,3.8-2.2,5.7c-1.7,6.5-10.7,4.4-15.7,4.7c1-4.2,0.5-8.8,2.6-12.6c2.6,3.9,5.9,8.6,10.1,10c-1.6-5-6.9-6.7-9-11.6   c4.9-3.7,9.3-7.8,12.6-13c0.3,2.4-0.6,3.9,1.4,5.9c-0.2-2.6,0.4-4-0.3-5.8c-0.4,0-0.8-0.1-1.1-0.1   C555.7,84.2,554.2,79.7,555.6,75.4z M554.4,96.5c0.2,0,0.3,0,0.5,0C554.8,95.2,554.4,95.2,554.4,96.5z" />
	<path fill="#E0C6B5" d="M630,228.4c9.7-25.8,42.7-34.2,49.8-61.2c0.7,2.1-0.3,4-0.1,6.2c0.5,0.1,0.8,0.1,1.3,0.2   c-7,17.9-23.5,28-37.3,40C639,218.3,636.7,226.4,630,228.4z" />
	<path fill="#4B4F5D" d="M499.6,510.2c-29.2,10.8-57.7,23-87.1,32.7c-0.3-0.6-0.6-1.1-0.8-1.6c16.5-7.5,34.4-13.2,51.3-20.1   C472.8,518.8,490.7,507.9,499.6,510.2z" />
	<path fill="#E0C6B5" d="M541.5,209.5c1.5-0.4,0.1-2.5,1.6-2.8c-0.1,0.6-0.1,1.2-0.2,2.2c1.8-0.9,2.6-1.9,2-3.6   c-0.5,0.1-0.8,0.1-1.1,0.1c0.4-3.9,4.1-12.3,7.6-14.9c0.6,0.9,1.2,1.9,1.9,2.9c-1.4,1.8-2.8,3.6-4.2,5.3c-1,1.3-0.2,3.1-1.1,4.5   c-4,15.3-11.2,13.5-24.3,17.6c-0.7,1.1-1.6,2.3-2.4,3.5c-0.3-0.3-0.6-0.7-0.9-1c0.8-3.2,1.7-6.4,1.5-9.7c5.8,2,9.1-2,14.6-2   C538.5,211.7,541.1,211.8,541.5,209.5z" />
	<path fill="#060402" d="M660,442.8c-29.1-6.7-57.9-17.3-85.4-28.9c0.2-0.8,1-0.6,1.5-0.7c27.4,9.9,54.8,19.4,82.7,27.7l0,0.2   l0.2-0.1c2.1,0.9,4.3,0,6.6,0.2C664.2,443,661.6,441.1,660,442.8z" />
	<path fill="#4B4F5D" d="M580.9,476.6c-0.4,1.2-0.6,2-0.9,3c-22.9,8.7-45.9,17.5-69.1,26.4c-0.5-0.7-0.8-1.3-1.2-1.9   C532.7,494,557.2,485.9,580.9,476.6z" />
	<path fill="#4B4F5D" d="M595.4,473.7c-1.3-2.6,1.1-3,2.8-3.7c20.8-7.6,41.2-16.5,62.2-23.2c0.1,0.7,0.2,1.2,0.3,1.9   C639.2,457.5,617.3,465.2,595.4,473.7z" />
	<path fill="#4B4F5D" d="M535.6,403.5c0.4,0.5,0.7,0.8,1.2,1.3c-20.3,9.1-43.9,13.3-65.3,20.6c-0.5-0.6-0.9-1.1-1.4-1.7   C491.7,416.4,513.8,410.3,535.6,403.5z" />
	<path fill="#4A4F5C" d="M460.9,427.5c-0.7,1.4-1.8,1.6-2.7,1.9c-9.7,3-19.5,5.8-29.3,8.8c-14.1,3.5-28.4,10.2-42.5,11.9   c-0.1-3.2,19.5-6.4,23.3-8.3C426.8,437.7,443.3,429.6,460.9,427.5z" />
	<path fill="#4A4F5C" d="M374.7,454.4c-27.9,7.9-55.5,18.1-83.6,24.4c17.8-8.1,38.1-11.7,56.7-18.3   C354.3,459.6,370,451.4,374.7,454.4z" />
	<path fill="#EEBB11" d="M652.3,400.8c-14.5-6.1-30.3-9.4-45-15.2c-0.6-1.5-1.1-2.9-1.7-4.4c1.4-0.2,2.9-0.5,4.5-0.2   c3,4.6,9.5,5.5,14.3,7.6c9.2,1.9,17.6,5.9,26.5,8.6c0.7,0.9,1.5,1.8,2.2,2.6C652.9,400.2,652.6,400.5,652.3,400.8z" />
	<path fill="#474E5A" d="M277.4,482.3c-0.1,0.7-0.1,1-0.1,1.4c-32.1,9.5-63.8,20-96.1,28.5C212.3,500.5,245.6,492.2,277.4,482.3z" />
	<path fill="#E0C6B5" d="M618,248.7c0.3,0.3,0.6,0.6,1,1c4.6-7.5-2.3-9.5,9.4-19.2c0,1.1-0.5,2.3,0.6,3.2   c-0.2,6.3-4.5,10.8-7.6,15.9c0.3,0.2,0.6,0.3,0.9,0.4c0,1.1,0,2.1-0.7,3c-0.1-0.2-0.3-0.4-0.4-0.6c-0.7,0.3-1.5,0.5-2.2,0.8   c-0.6-0.7,0.2-2-0.9-2.5C618.1,250.1,618.1,249.4,618,248.7z" />
	<path fill="#0E0B0A" d="M553.6,88.2c-3.3,5.2-7.6,9.4-12.6,13c2.1,4.9,7.4,6.6,9,11.6c-4.3-1.4-7.5-6.1-10.1-10   c-0.4,0.7-0.7,1.2-1,1.6c0-1.1,0.1-2.2-0.8-3c7.6-5.6,13.5-13,15.5-22.4C555.7,82,554.8,85.2,553.6,88.2L553.6,88.2z" />
	<path fill="#EBBA11" d="M701.3,414.2c-0.9-1.1-1.4-2.3-1.2-4.1c8.3,2.7,15.9,6.6,24.4,8.3C717,423.1,708.6,416.9,701.3,414.2z" />
	<path fill="#19120A" d="M219.3,542.3c-12.1-8-24.6-15.9-35.6-25.3c0.2-0.2,0.4-0.5,0.7-0.7c11.8,8.9,24.5,16.5,36.3,25.3   C220,541.6,219.5,541.6,219.3,542.3z" />
	<path fill="#CEB99A" d="M565.4,71.5c0.1,0.4,0.2,0.8,0.3,1.5c-6-3.8,0-11.9-3.9-16.9c1-1.1,1-1.4,0.2-2.8c0-0.3,0-0.5,0-0.8   c1.9-0.1,4.1,5.4,4.8,7c-0.3,0.2-0.5,0.5-0.8,0.7c0.2,2.4,0.9,4.7,2.8,6.3c0,0-0.1-0.1-0.1-0.1c0.8,1.7,1,3.7-0.7,4.9   c-0.7-0.2-1.4-0.5-2.1-0.7c-0.3-0.7-0.7-1.4-1.3-2.6C564.6,69.8,564.4,70.7,565.4,71.5z" />
	<path fill="#F8F9F9" d="M709.1,418.9c2.3,0.9,4.7,1.9,7.3,2.9c-3.7,2.2-7.2,2.9-11.1,4.5c-2-3-1.4-6.7-3.9-9.5   c0.1-0.4,0.2-0.9,0.3-1.3C704.3,416.7,706.7,417.8,709.1,418.9z" />
	<path fill="#F4D7C5" d="M519.8,111.2c-0.1-1.9,1-3.4,2.2-4.8c0.2,0.2,0.7,0.5,0.6,0.7c0.6,6.1,10.9,4.9,4.6,13.8   C524.2,118.2,521.2,114.9,519.8,111.2z" />
	<path fill="#140E0C" d="M620.1,175.2c-0.4,0-1-0.1-1.3,0.1c-4,3.5-9.5,4.9-13.5,8.3c-0.8,1.2-0.3,3.1-2.3,3.4   c-0.1-0.6-0.1-1.1-0.2-1.7c-4.1,1.7-7.9,3.9-12.1,5.2c-0.6-0.9-1.6-0.4-2.3-0.7c10.7-4.2,20.5-10.3,30.4-16   C619.2,174.2,619.6,174.7,620.1,175.2z" />
	<path fill="#0F0908" d="M570.4,225.4c4.4,2.6,7.4,7.1,12.4,8.9c4.8,0.1,11.1,2.1,15.1-1c0.2,0.5,0.3,0.9,0.5,1.4l0,0   c-0.8,0.3-0.8,0.9-0.7,1.5c-0.2,0.4-0.5,0.9-0.7,1.3c-1.2-0.8-1.3-2.2-2.8-0.8c-10.5,2.3-17.8-3.6-24.7-10.4   C569.8,226,570.1,225.7,570.4,225.4z" />
	<path fill="#494E5A" d="M727.2,420.5c0.2,5.3-15.8,8.7-20.4,10.4c-0.2-0.6-0.4-1-0.5-1.3c5-4.3,13.6-4,18.4-8.6   C725.1,420.1,726,420.2,727.2,420.5z" />
	<path fill="#DCC1B1" d="M519.8,111.2c1.3,3.8,4.3,7,7.4,9.8c0.4-0.4,0.7-0.8,1.1-1.2c-0.3,2-0.5,4-0.8,6.1   C521.9,123.9,518,116.7,519.8,111.2z" />
	<path fill="#171009" d="M316,496.6c-8.4-3.7-16.4-8.4-23.2-14.6c0.8-0.5,1-1.7,2.2-1.4c-0.1,0.3-0.3,0.6-0.4,0.9   c7,6,15.1,10,23.1,14.4C317.1,496,316.3,495.9,316,496.6z" />
	<path fill="#1E1407" d="M288.1,486.1c9,5.2,18,10.8,25.9,17.5c-0.8,0.2-0.4,0.8-0.4,1.4c-1.1-0.1-1.9-0.5-2.5-1.3   c0.8-1-0.9-2.1-1.9-2.1c-6.9-5.4-14.5-9.9-21.9-14.8C287.6,486.6,287.8,486.3,288.1,486.1z" />
	<path fill="#1F1A16" d="M550.9,61.7c-5.9,7.1-5.9-0.7-9.9-1.5l0,0c-0.4-0.2-0.8-0.6-1.3-0.8c0-0.3,0-0.7,0.1-1   c3.8,0.1,7.9,1.3,11.6-0.4c0.2,0.3,0.4,0.5,0.6,0.8C551.6,59.7,551.3,60.7,550.9,61.7z M547.7,63c0-0.2,0-0.4,0.1-0.6   c-0.8,0.1-1.5,0.1-2.3,0.2c0,0.2,0,0.3,0,0.5C546.2,63,546.9,63,547.7,63z" />
	<path fill="#CFBB9C" d="M576.7,75.7c-2.1-2.4-4.2-4.8-6.3-7.1c0,0,0,0.1,0,0.1c-0.1-1-0.5-1.8-1.5-2.1l0.1,0.1   c-0.3-1.4-0.7-2.7,0.7-3.5c4.9,2.4,5.5,9.6,10.4,12.6l0,0c-0.1,0.2-0.1,0.4-0.2,0.6C578.8,76.3,577.7,76.2,576.7,75.7z" />
	<path fill="#150F0D" d="M621.7,253.1c0.8-0.9,0.7-2,0.7-3c4.7,2.1-7.7,24.6-10.3,19.3c0.1-0.4,0.2-0.8,0.3-1.2   c0.4,0.1,0.9,0.1,1.3,0.2C617.2,263.8,620.2,258.5,621.7,253.1z" />
	<path fill="#18100F" d="M586.5,224.8c-0.1-1.8-0.1-1.8,1.4-2.1c0.8,7.2,14,1.2,18.3,0.3c-0.4,1.5-1.7,1.5-2.4,2.2   c-0.7,0.7-1.3,1.6-1.9,2.4c-0.5-0.2-1-0.4-1.5-0.6C595.6,228.3,589.9,229.4,586.5,224.8z" />
	<path fill="#E8CDBC" d="M561.2,61c0.2,0.7,0.4,1.3,0.7,2.1c-1.5,2-2.7,4.1-4.8,5.5c0,0,0.1,0,0.1,0c-0.6-2-2.3-3.5-1.4-5.6   c-0.5-0.8-0.9-1.4-1.5-2.3c1.3-0.6,2.4-1.1,3.5-1.6c0.6,0.9,1.1,1.7,1.7,2.5c0.3-0.3,0.5-0.5,0.6-0.6C560.4,61,560.8,61,561.2,61z" />
	<path fill="#DCC5B4" d="M529.1,115c-0.5-3.6-6.9-3.5-6.4-7.8c0-0.2-0.4-0.5-0.6-0.7c0.6-0.5,1.2-1,1.9-1.6c0.9,0.6,1.6,1.1,2.5,1.7   c0.8,0,1.9,0,2.8,0c0.5,2.1-1,4.3,0.2,6.5C529.7,113.5,529.2,114.3,529.1,115z" />
	<path fill="#BE9C18" d="M287.3,486.8c7.3,4.9,14.9,9.4,21.9,14.8c-0.3,0-0.6,0-0.9,0.1c-8.8-5.4-17.6-10.6-25.8-16.9   C283.4,483.3,286,486.4,287.3,486.8z" />
	<path fill="#484C59" d="M685.8,438.9c-2.2,1.3-11.1,4.7-13.5,5.1c-0.1-0.5-0.2-1-0.3-1.5c3.4-2.7,8.4-3.5,12.6-5.6   C685,437.7,685.4,438.3,685.8,438.9z" />
	<path fill="#C6B597" d="M555.7,52.5c-0.7,0.7-1.4,1.4-2.1,2.1c-1,0.1-2.2-0.6-2.9,0.7c-1.2,0.2-2.5-0.3-3.6,0.5c-0.4,0-0.7,0-1.1,0   c-0.1-0.2-0.2-0.4-0.1-0.6c4.2-1,7.8-3.6,11.2-6.1c0,0,0-0.2,0-0.2c1.4-1.2,2.8-2.4,4.2-3.6c0,1.3,0.6,2.7-0.6,3.6c0,0,0,0,0,0   c-0.2,0.2-0.5,0.5-0.7,0.7c0,0,0,0,0,0c-0.2,0.2-0.5,0.5-0.7,0.7c0,0,0,0,0,0c-0.2,0.2-0.5,0.5-0.7,0.7c0,0,0,0,0,0   c-0.2,0.2-0.5,0.5-0.7,0.7c0,0,0,0,0,0C557.1,51.9,556.2,51.4,555.7,52.5z" />
	<path fill="#1D1917" d="M557,68.6c0.7-0.5,1.3-1.1,2-1.6c0.3,0.3,0.6,0.7,0.9,1c-3.3,6.3-5.5,5.5-5.1,13.9   c-1.6-2.6-1.3-5.1-1.3-8.2c-0.3-0.5-0.8-1.3-1.2-1.9c0.8-1.7,1.9-0.3,2.8-0.6C556.2,70.6,557.1,70,557,68.6z" />
	<path fill="#454A56" d="M594.2,388.1c0.4-1.1,0.6-1.8,0.9-2.6c3-1.1,6.4-2.6,9.5-1.7C602.1,387.2,598.1,387.5,594.2,388.1z" />
	<path fill="#F1D4C2" d="M592.3,220.7c-0.6-0.1-1.1-0.1-1.8-0.2c-1-3.3-2.1-6.6-3.2-9.9c0.1-0.1,0.3-0.1,0.4-0.2   c2.6,3.1,3.8,7.3,7.9,8.8C594.5,219.7,593.4,220.2,592.3,220.7z" />
	<path fill="#A9987F" d="M550.7,55.4c0.7-1.3,1.9-0.6,2.9-0.7c-0.8,1.1-1.5,2.2-2.3,3.3c-3.7,1.7-7.8,0.5-11.6,0.4   c0,0.3,0,0.7-0.1,1c-0.2-0.1-0.6-0.2-0.6-0.3c0-1.2-1.3-1.5-1.6-2.5C541.7,57.4,547.5,58.9,550.7,55.4z" />
	<path fill="#DFB211" d="M728.5,418.3c2.8-0.2,5.1,0.8,7.6,1.7c-2.2,1.9-3.8,2.6-6.8,3.2C729,421.7,728.7,420.1,728.5,418.3z" />
	<path fill="#201613" d="M580.1,75.7c-4.3-3.1-5.7-8.2-9-12c0.2-0.5,0.4-1,0.6-1.5c0-0.2-0.1-0.4,0-0.6c0.3,0,0.5,0,0.8,0   c1.8,3.7,3.2,7.6,6.4,10.5c0,0-0.1-0.1-0.1-0.1c0.9,0.9,1.9,1.9,2.8,2.8c0,0-0.1,0.1-0.1,0.1C580.9,74.9,580.4,75,580.1,75.7z" />
	<path fill="#2E2316" d="M399.4,458.9c-4.3-1.8-8.5-3.6-12.7-5.5c5-0.4,9.8,2.6,14.3,4.7C400.4,458.2,399.6,458.1,399.4,458.9z" />
	<path fill="#1D1412" d="M589.2,106.4c0.1,0.4,0.1,0.9,0.2,1.5c2.3-0.7,4.5-1.2,6.9-0.6c-1.9,2.5-4.7,3.2-7.6,2   C588.7,108.3,588.1,107.2,589.2,106.4z" />
	<path fill="#C4B397" d="M593.4,81.3c-0.5,0.4-0.9,0.8-1.4,1.1c-2.7,0-5.2-0.4-7.8-1.6C587,78.5,590.3,80.9,593.4,81.3z" />
	<path fill="#33271F" d="M709.1,418.9c-2.4-1.1-4.9-2.2-7.4-3.3c-0.1,0.4-0.2,0.8-0.3,1.3c-1.4-0.8-0.4-1.8-0.1-2.6   c2.9,1.3,5.8,2.6,8.6,3.9C709.7,418.3,709.4,418.6,709.1,418.9z" />
	<path fill="#C6CAB0" d="M695.1,472.2c-2-0.6-3.9-1.2-6.1-1.9c0.2-0.5,0.4-1,0.6-1.7c2.7-0.1,4.2,1.9,6.2,2.8   C695.5,471.8,695.3,472,695.1,472.2z" />
	<path fill="#C0AE9F" d="M550.9,61.7c0.7-3.3,3.1-4.8,5.5-7.1c0.5,0.5,0.9,1,1.3,1.4l0,0c-1.7,0.1-6.4,4.7-5.6,6.4   C551.7,62.1,551.3,61.9,550.9,61.7z" />
	<path fill="#2D2322" d="M642.6,158.9c2.8,1.1,5.3,2.5,7.7,4.2c-0.5,0.1-1.2,0-1.4,0.7c-2.4-1.4-4.7-2.7-7.1-4.1   C642,159.5,642.3,159.2,642.6,158.9z" />
	<path fill="#332018" d="M568.9,225.8c-0.8,1.7,0.6,3.5,0.9,5.2c-0.2,0.3-0.5,0.6-0.7,0.9c-0.7-1.4-1.4-2.8-2.2-4.2   c0-0.2,0-0.5,0.1-0.7c1.1-0.5,0.2-1.7,0.8-2.4C568.7,224.5,568.8,225.1,568.9,225.8z" />
	<path fill="#736756" d="M568.3,71.4c0.9-0.7,1.2-1.7,1.4-2.8c0.3,0,0.5,0,0.8,0l0-0.1c0,1.8,1.7,2.9,2.1,4.8   C570.4,73.8,569.4,72.5,568.3,71.4z" />
	<path fill="#48310D" d="M287.3,486.8c-1.3-0.4-3.9-3.5-4.8-2.1c-0.5-0.4-1-0.8-1.5-1.2c0.6-0.3,1.2-0.6,2-0.9   c1.7,1.2,3.5,2.4,5.2,3.5C287.8,486.3,287.6,486.6,287.3,486.8z" />
	<path fill="#878F7D" d="M695.1,472.2c0.2-0.2,0.5-0.5,0.7-0.7c2.4,1.1,4.7,2.2,7.1,3.4c-0.6,0.2-1.3,0-1.5,0.8   C699.3,474.5,697.2,473.4,695.1,472.2z" />
	<path fill="#3F444E" d="M541,400.9c0,1.9-0.9,3.1-1.8,4.4c-0.3-0.8-0.6-1.5-0.9-2.3C539.2,402.3,539.9,401.7,541,400.9z" />
	<path fill="#201108" d="M323.7,509.4c1.2,0.4,2.3,0.8,3.1,1.8c-0.5,0.2-1,0.5-1.6,0.8c-0.8-0.5-1.6-1-2.5-1.6   C323,510.1,323.3,509.8,323.7,509.4z" />
	<path fill="#7C776D" d="M561.2,61c-0.4,0-0.8,0-1.2,0c0.4-2.2-1.3-3.3-2.2-5l0,0C560.5,55.9,560.6,59,561.2,61z" />
	<path fill="#422E20" d="M576.1,413.2c-0.5,0.2-1.3-0.1-1.5,0.7c-0.9-0.4-1.8-0.8-2.8-1.2c0-0.3,0-0.7,0-1   C573.5,411.7,574.9,412.2,576.1,413.2z" />
	<path fill="#756859" d="M562.1,52.5c0,0.3,0,0.5,0,0.8c-0.4,0.7-1,1.2-0.9,2.1c-0.5-0.4-1-0.9-1.4-1.3c0.3-0.3,0.5-0.6,0.8-0.8   c0.1-0.3,0.1-0.5,0.2-0.8c0.4-0.3,0.8-0.6,1.3-0.9C562,51.8,562,52.2,562.1,52.5z" />
	<path fill="#D5C3A6" d="M561.2,55.3c-0.1-0.9,0.5-1.4,0.9-2.1c0.8,1.4,0.8,1.7-0.2,2.8C561.7,55.8,561.4,55.6,561.2,55.3z" />
	<path fill="#A5AE98" d="M693.8,483.3c-0.5,0.2-1,0.5-1.4,0.7c-0.7-0.5-1.4-0.9-2.1-1.4c0.2-0.2,0.5-0.5,0.7-0.7   C691.9,482.4,692.8,482.9,693.8,483.3z" />
	<path fill="#745E1A" d="M308.3,501.6c1.2-0.3,3.7,0.7,2.8,2.1C310.2,503,309.2,502.3,308.3,501.6z" />
	<path fill="#6E7061" d="M691,481.9c-0.2,0.2-0.5,0.5-0.7,0.7c-0.9-0.5-1.8-1-2.8-1.4c0-0.3-0.1-0.5-0.1-0.8   C688.7,480.7,689.9,481.1,691,481.9z" />
	<path fill="#826A1A" d="M652.3,400.8c0.3-0.3,0.6-0.6,0.8-0.9c0.6,0.6,1.2,1.1,2.4,2.2C653.8,402,653,401.6,652.3,400.8z" />
	<path fill="#201613" d="M582.8,77.7c0.1,0.1,0.3,0.3,0.8,0.7c-1.6-0.1-3,0.7-4.1-0.7C580.6,77.7,581.7,77.7,582.8,77.7z" />
	<path fill="#2C251F" d="M565.4,71.5c-1-0.8-0.8-1.7-0.5-3.3c0.6,1.2,0.9,1.9,1.3,2.6C565.9,71,565.7,71.2,565.4,71.5z" />
	<path fill="#363931" d="M687.4,480.4c0,0.3,0.1,0.5,0.1,0.8c-0.8-0.4-1.8-0.4-2.1-1.7C686.2,479.6,687,479.6,687.4,480.4z" />
	<path fill="#6A846E" d="M582.8,77.7c-1.1,0-2.2,0-3.4,0l0,0c-0.1-0.2-0.1-0.5,0-0.7C580.6,77.2,582.3,76.4,582.8,77.7z" />
	<path fill="#38392F" d="M569,76.3c-0.6-0.3-1.2-0.7-2-1.1C568.3,74.6,568.9,75.1,569,76.3z" />
	<path fill="#CDBBA0" d="M560.5,53.2c-0.3,0.3-0.5,0.6-0.8,0.8c-0.4-0.3-0.9-0.6-1.3-0.8c0-0.2,0-0.4,0-0.6   C559,52,559.9,53.1,560.5,53.2z" />
	<path fill="#392F10" d="M278.2,593.6c-1.2,0.5-1.3,0.1-1.2-1.4C277.6,593,277.9,593.2,278.2,593.6z" />
	<path fill="#C4B298" d="M555.7,52.5c0.5-1.1,1.4-0.6,2.2-0.6c0,0.2-0.1,0.4-0.1,0.6l0.1-0.1C557.1,52.5,556.4,52.5,555.7,52.5z" />
	<path fill="#201108" d="M321.6,508.6c0.6,0,1.2,0,1.6,0.6C322.5,509.3,321.9,509.4,321.6,508.6z" />
	<path fill="#201613" d="M576.7,75.7c0.5,0.2,1,0.4,1.5,0.6C577.6,76.4,577,76.4,576.7,75.7z" />
	<path fill="#201613" d="M579.5,77c-0.1,0.2-0.1,0.5,0,0.7c-0.4-0.1-0.8-0.1-1.1-0.2c0-0.1,0-0.2,0-0.3   C578.8,77.1,579.1,77.1,579.5,77z" />
	<path fill="#66550B" d="M195.5,537.3c0.3,0,0.5-0.1,0.8-0.1c0.1,0.2,0.1,0.5,0.2,0.7C195.9,538,195.6,537.8,195.5,537.3z" />
	<path fill="#332018" d="M566.8,226.3c-0.2-0.5-0.4-1-0.5-1.5C567,225.2,566.9,225.7,566.8,226.3z" />
	<path fill="#DCC5B4" d="M522,106.4c-0.2,0.2-0.4,0.5-0.6,0.7C521.6,106.9,521.8,106.7,522,106.4z" />
	<path fill="#C4B298" d="M558.5,52.5c0,0.2,0,0.4,0,0.6c-0.2-0.2-0.5-0.5-0.7-0.7c0,0-0.1,0.1-0.1,0.1   C558,52.5,558.2,52.5,558.5,52.5z" />
	<path fill="#EF8A6A" d="M610.3,278.6c0.3-0.2,0.5-0.3,0.8-0.5C610.8,278.3,610.6,278.5,610.3,278.6z" />
	<polygon fill="#EEBB11" points="615.4,383.5 615.6,383.4 615.6,383.6 615.4,383.7  " />
	<path fill="#201613" d="M582.2,75.7c-0.2-0.2-0.5-0.4-0.7-0.7l0.1-0.1c0.3,0.2,0.5,0.4,0.8,0.6C582.4,75.5,582.2,75.7,582.2,75.7z" />
	<path fill="#201613" d="M580,76.2c0-0.2,0.1-0.4,0.2-0.6c0.2,0.1,0.3,0.2,0.5,0.3C580.4,76,580.2,76.1,580,76.2z" />
	<polygon fill="#EEBB11" points="612.8,381.4 612.9,381.4 612.8,381.5 612.7,381.5  " />
	<path fill="#66550B" d="M194.8,536.6c0.2,0.3,0.4,0.5,0.7,0.8c-0.3,0-0.5,0-0.8,0c0-0.2,0-0.4,0-0.7L194.8,536.6z" />
	<path fill="#25201B" d="M509.4,47.6c-1.1,0.9-1.1,0.9-2.6-0.2c0-4.7,0.5-10.1,3.3-13.9c-0.2,1.3-0.4,2.6-0.6,3.9   c0.1,0,0.3,0.1,0.4,0.1c1.3-3.2,2.8-6.3,5-9c0.2,0.3,0.4,0.5,0.6,0.8c-0.7,1.6-2.5,2.6-2.5,5c0.9-1.1,1.5-1.8,2.2-2.6   c1.9,0.2,2.4-1.3,3-2.5c1-0.9,1.9-1.8,2.9-2.7c0.3,0.3,0.6,0.6,0.9,0.8c0,0.2,0,0.5,0,0.7c-0.1,0.1-0.2,0.3-0.2,0.4   C516.8,33.1,509.9,40.4,509.4,47.6z" />
	<path fill="#332923" d="M543,18.9c0.6,0,1.2,0,1.4-0.7c0.7,0.2,1.3,0.4,2,0.7c1.7-0.5,1.1-3.4,3.2-3.3c1.1,1.4,3.4-0.2,4.7,1.2   c-1.9,0.1-3.7,0.3-5.6,0.4c0,0,0,0,0,0c0.5,0.2,1,0.3,1.5,0.5c-0.7,0.3-1.4,0.5-2.3,0.9c0.1,0.8,0.2,1.6,0.3,2.4   c-0.3,0.1-0.6,0.2-1,0.3c-0.7-0.8-1.8-1.2-2.7-1.6c-6.9,3.1-13.3,6.6-19.1,11.2c-0.3,0-0.5,0-0.8,0C529.4,24.8,536.6,22.3,543,18.9   z" />
	<path fill="#B6A58A" d="M510.1,33.6c-2.8,3.8-3.4,9.2-3.3,13.9c-1.5,0-3,0.1-4.5,0.1c-0.3-2.2,1-4.1,1.6-6.1c1.3,1.5,0,3.4,0.8,5.3   c2-1.8,0.7-4,1.2-6.2c1.2-3,0.4-6.8,3.5-9.2C510.4,31.8,510.2,32.9,510.1,33.6L510.1,33.6z" />
	<path fill="#D0BB9C" d="M546.4,18.8c-0.7-0.2-1.3-0.4-2-0.7c-0.7-1.8,0.4-3.2,1.3-4.6c-0.6-0.2-1-0.4-1.6-0.6   c1-1.9,2.8-2.9,4.6-3.7c1.1,1.1,2.3,2.2,3.4,3.3C549.7,13.5,544.8,15.5,546.4,18.8z" />
	<path fill="#CBB89A" d="M514.9,28.5c-0.9,1.2-1.8,2.5-2.7,3.7c-0.9-0.6-0.5-1.9-1.6-2.2c2.6-3.6,6-10.1,11.2-8.6   C519.1,23.2,516.5,25.5,514.9,28.5z" />
	<path fill="#ECD7B8" d="M545.7,9.7c-2.5,1.1-3.8,3.3-4.8,5.5c-5,0.1,1.6-10.5,7-6.9C547.2,8.7,546.5,9.2,545.7,9.7z" />
	<path fill="#D9C9AC" d="M527.6,21c2.5-2.1,5.2-3.5,8.8-3.1c-2.9,1.9-5.9,3.2-8.7,5.2C526.5,22.8,527.3,21.8,527.6,21z" />
	<path fill="#CFC2A6" d="M521.2,26.5c-1,0.9-1.9,1.8-2.9,2.7c-0.7,0-1.4,0.4-1.8-0.5c2.2-2.6,4.3-5.2,7.6-6.4   c0.2,0.2,0.5,0.4,0.7,0.6C523.6,24.1,522.4,25.3,521.2,26.5z" />
	<path fill="#C9C1A5" d="M533.2,23.7c-1.5,1-3.1,2-4.6,3c-0.6-0.1-1.1-0.1-1.7-0.2c0-0.5-0.1-0.9,0-1.4c2.1-0.8,4.2-1.5,6.3-2.3   C533.2,23.2,533.2,23.4,533.2,23.7z" />
	<path fill="#988972" d="M510.7,30c1.1,0.3,0.7,1.6,1.6,2.2c-0.8,1.8-1.6,3.5-2.3,5.3c-0.1,0-0.3-0.1-0.4-0.1   c0.2-1.3,0.4-2.6,0.6-3.9c0,0-0.1,0-0.1,0c0.3-0.2,0.8-0.4,0.1-0.7c-0.1-0.6,0-1.3-0.7-1.5C509.8,31,510.3,30.5,510.7,30z" />
	<path fill="#847663" d="M516.5,28.8c0.4,0.9,1.2,0.5,1.8,0.5c-0.7,1.2-1.1,2.8-3,2.5c-0.6,0.8-1.3,1.5-2.2,2.6c0-2.4,1.8-3.4,2.5-5   C515.9,29.1,516.2,29,516.5,28.8z" />
	<path fill="#483830" d="M545.7,9.7c2.5-1.8,5.4-2.8,8.5-2.8c0.3,0.2,0.5,0.4,0.8,0.7c-0.8,0.1-1.5,0.3-2.2,0.8   c-2.3-0.2-4.3,1-6.3,2C546.3,10.1,546,9.9,545.7,9.7z" />
	<path fill="#B4A78E" d="M524.8,22.9c-0.2-0.2-0.5-0.4-0.7-0.6c1-0.8,2.1-1.5,3.5-1.3c-0.4,0.8-1.1,1.8,0.1,2.1   c-1.1,0.7-2.2,2.8-3.6,2c0.5-0.7,0.9-1.4,1.4-2.1c0.2-0.1,0.8,0,0.3-0.5c-0.1,0.2-0.2,0.4-0.2,0.6C525.3,23,525.1,23,524.8,22.9z" />
	<path fill="#3B382E" d="M505.8,42.6c0,1.4,0.5,3-1.1,4.2c-0.8-2,0.5-3.8-0.8-5.3c0.2-0.5,0.4-0.9,0.8-1.8   C505.2,41,505.5,41.8,505.8,42.6z" />
	<path fill="#94937E" d="M533.2,23.7c0-0.3,0-0.6,0-0.9c2.1-1.1,4.2-2.2,6.3-3.3c0.2,0.2,0.5,0.5,0.7,0.7   C537.9,21.5,535.6,22.6,533.2,23.7z" />
	<path fill="#8A8672" d="M521.9,21.5c-0.4-0.2-0.9-0.3-1.3-0.5c1.8-1.1,3.8-1.8,6.6-2.1C525.2,20.2,523.6,21,521.9,21.5z" />
	<path fill="#777563" d="M524.1,25.2c0.8,0.7,1.4-0.3,2.1-0.7c0.2,0.2,0.5,0.5,0.7,0.7c0,0.2,0,0.3-0.1,0.5   c-1.6,0.8-3.2,1.6-4.8,2.4c0-0.2,0-0.5,0-0.7C522.8,26.6,523.5,25.9,524.1,25.2z" />
	<path fill="#B6C2A6" d="M551.4,7c-1,0.9-2.3,0.7-3.5,1.2c-0.9-0.7-1.9-0.6-3-0.6C547,6.4,549.2,7,551.4,7z" />
	<path fill="#B7B096" d="M540.3,20.3c-0.2-0.2-0.5-0.5-0.7-0.7c0.7-1.5,2.2-2,3.5-0.7C542.1,19.4,541.2,19.8,540.3,20.3z" />
	<path fill="#474238" d="M538.1,11.9c-0.1,1.5,0.6,2.7-1,3.5C536.6,14.1,536.5,13,538.1,11.9z" />
	<path fill="#3B382E" d="M506.5,37.1c0,1.2,0.3,2.5-0.6,3.6C505.9,39.4,505.5,38.1,506.5,37.1z" />
	<path fill="#8A8672" d="M520.6,22.3c0.3-0.2,0.5-0.4,0.8-0.5C521.1,21.9,520.9,22.1,520.6,22.3z" />
	<path fill="#8A8672" d="M520,21.1c-0.3,0.1-0.6,0.3-0.9,0.4C519.4,21.4,519.7,21.3,520,21.1z" />
	<path fill="#847663" d="M517.2,28c-0.2,0.2-0.4,0.5-0.6,0.7C516.7,28.5,517,28.3,517.2,28z" />
	<path fill="#988972" d="M511.6,28.8c-0.2,0.2-0.3,0.4-0.5,0.6C511.2,29.2,511.4,29,511.6,28.8z" />
	<path fill="#ECD1BF" d="M522.1,213.7c-3.9,3.7-1,11.5-7,13.8c1-4.7,1.5-9.1,1.4-13.8c0.6-1,1.3-2.1,2-3.3   C519.8,211.5,520.9,212.5,522.1,213.7z" />
	<path fill="#DDC4B4" d="M514.3,231.8c-1,1.8-1.4,3.6-3.3,4.9c-0.5-6,1.9-11.8,1.8-17.8c0.1-1.7,0.5-3.1,1.6-4.4   C517.2,219.9,511.1,226.4,514.3,231.8z" />
	<path fill="#F6E0C0" d="M590,60.1c0.5,0,1.1,0.1,1.6,0.1c-0.3,2.1-0.3,2.1-1.6,3.6c-17.5,1.8-17.1-12.3-20.2-7.2   c-0.4-2-0.1-4.2-0.2-6.3c1.4-1.4,0-3.7,1.4-4.9C573,54.7,580.4,61,590,60.1z" />
	<path fill="#E1D0B2" d="M595.6,58c0.7-0.4,1.4-0.8,2.1-1.3c0.7,0.2,0.7,0.8,0.7,1.4c-1.5,1.4-2.9,2.7-4.4,4.1c-0.3,0-0.7,0.1-1,0.1   c-0.8-1.1,0.4-1.9,0.3-2.9C594.1,59,594.9,58.5,595.6,58z" />
	<path fill="#676254" d="M586.2,52.7c0.3,1.5-0.7,1.7-1.4,2.6C584,53.8,585.4,53.7,586.2,52.7z" />
	<path fill="#A4A78F" d="M579.2,55.5c1.4,0,2-0.6,2.3,0.7C580.5,57,580.4,56.3,579.2,55.5z" />
	<path fill="#8B7967" d="M582.4,48.2c0.2-0.2,0.5-0.5,0.7-0.7c0.2,0,0.4,0.1,0.5,0.1c-0.2,0.6-0.4,1.2-0.7,1.8c-0.2,0-0.3,0-0.5-0.1   C582.5,49,582.4,48.6,582.4,48.2z" />
	<path fill="#708572" d="M579.5,53.9c0.3-0.8,1-0.7,1.8-0.4c-0.6,0.3-1.2,0.6-1.8,0.9C579.4,54.3,579.5,54.1,579.5,53.9z" />
	<path fill="#857F6D" d="M583.1,52.9c0-0.5,0-1,0-1.4c0.1,0,0.2,0,0.3,0c0.1,0.5,0.2,0.9,0.3,1.4C583.5,52.9,583.3,52.9,583.1,52.9z   " />
	<path fill="#C5C0A4" d="M579.5,53.9c0,0.2-0.1,0.3,0,0.5c-0.6,0-1.2,0.1-2.4,0.2C578.1,53.7,578.8,53.8,579.5,53.9z" />
	<path fill="#E4CAB9" d="M520.5,223.3c1.9,1.6-0.2,1.3,0.1,3c-1.4,3.2,0.1,6.2,0.9,9.4c-0.6,0.1-1.1,0.2-1.6,0.2   c-1.9-1.2-1.8-3.8-2.7-5.7C517.6,227.8,519.4,225.6,520.5,223.3L520.5,223.3z" />
	<path fill="#E0C6B5" d="M520.7,226.4c0-0.6-0.1-1.2,0.6-1.5C521.1,225.4,520.9,225.9,520.7,226.4z" />
	<path fill="#F6E1C0" d="M548.7,9.3c1.3-0.7,2.6-1,4.1-0.9c1.9-1.5,4.6-0.6,6.3,0.9c-0.2,0.2-0.4,0.4-0.6,0.6   c-0.4,0.1-0.8,0.1-1.6,0.2c3.5,2.1,6,4.7,7.9,8.2c-0.5,0.5-0.8,0.8-1.1,1.2c1.9,5,3.8,10.1,4.8,15.4c-0.2,0.5-0.4,0.9-0.6,1.4   c-3.8-9.3-7-19.7-18.2-20.8c2.6-0.8,5.2-1.9,8-1.4c0.6,0.6,1.2,0.9,2,0.1c-2.1-2.1-4.9-1.6-7.5-1.7C551,11.5,549.9,10.4,548.7,9.3z   " />
	<path fill="#C2B198" d="M567.8,36.3c0.2-0.5,0.4-0.9,0.6-1.4c1.4,3.4,2.3,7,2.7,10.6c-1,0.5-0.4,1.5-0.8,2.2   C569.4,44.1,568.9,40,567.8,36.3z" />
	<path fill="#584A3F" d="M562,13.9c-1.2-0.9-2.3-1.9-3.5-2.8c0-0.2,0-0.5,0-0.7c1.3,0.6,2.7,1.5,4.2,1.5   C562.4,12.6,562.2,13.3,562,13.9z" />
	<path fill="#CFB9AA" d="M510.5,78.2c-1.3-1.2-1.4-2.3-0.8-4.1C510.2,75.7,510.8,76.6,510.5,78.2z" />
	<path fill="#796F65" d="M506.5,71.1c1-0.3,1.2-0.3,1.4,0.7C507.1,72.2,507,71.8,506.5,71.1z" />
	<path fill="#E0C6B5" d="M520.6,223.3c-0.2,0.3-0.3,0.5-0.5,0.8C520.2,223.9,520.4,223.6,520.6,223.3z" />
	<path fill="#AB8B0E" d="M182.9,529c-4.3-2.1-9.1-5.3-11.9-9.2c0.3,0.1,1,0,1.4,0l0,0c0.8,1.5,1.8,2.6,3.5,2.8l0,0   C177.3,525.7,181.3,526,182.9,529z" />
	<path fill="#553A0A" d="M182.9,529c-1.6-2.9-5.6-3.2-7-6.4c3.8,1.5,7,4.8,10.6,7c-0.2,0.2-0.5,0.4-0.7,0.6c-0.3,0-0.5,0.1-0.8,0.1   l0,0C184.6,529.4,183.9,528.8,182.9,529L182.9,529z" />
	<path fill="#66550B" d="M194.7,536.7c-1.4-0.3-2.7-0.8-3.5-2.1l0,0c1.5,0.2,2.7,0.8,3.5,2.1L194.7,536.7z" />
	<path fill="#AB8B0E" d="M184.9,530.3c0.3,0,0.5-0.1,0.8-0.1c0.4,0.3,0.8,0.7,1.5,1.3C185.9,531.7,185.3,531.2,184.9,530.3z" />
	<path fill="#AB8B0E" d="M182.8,528.9c1.1-0.1,1.8,0.4,2.1,1.4C183.9,530.4,183.2,529.9,182.8,528.9z" />
	<path fill="#594E0A" d="M191.3,534.5c-0.8,0-1.5-0.3-1.9-1.2C190.5,533.1,191,533.7,191.3,534.5L191.3,534.5z" />
	<path fill="#F4DDBD" d="M578.8,72.2c-3.3-3.8-6.5-8.2-6.4-13.5c2.8,3,5.8,4.6,9.1,5.9c-0.5,0.3-1.1,0.6-1.8,1   c2.6,1.4,5.1,1.9,7.9,2.7c-1.6,2.2-4,2.7-6.4,3.1C580.4,71.4,579.3,71,578.8,72.2z" />
	<path fill="#483A31" d="M581.5,64.6c-3.2-1.3-6.3-2.9-9.1-5.9c0,1.4,0,2.2,0,2.9c-0.3,0-0.5,0-0.8,0c-1-1.9-0.4-4.2-0.7-6.3   c5.5,6.3,9.4,9.3,19,8.5c-1.7,1.8-4.4-0.3-6.3,1.2C583,64.8,582.2,64.7,581.5,64.6z" />
	<path fill="#E3D1B3" d="M582.4,75.5c-1.4-1-2.4-2.3-3.6-3.4c3.6,0.3,7.5,0.5,9.9-2.7C591.2,70.8,584.3,75.8,582.4,75.5z" />
	<path fill="#ECD9B9" d="M599.8,60.2c-1.3,3.8-4.8,7-8.9,6.6c-0.1-3.1,6.6-4.3,8.2-8C599.9,59,599.7,59.7,599.8,60.2z" />
	<path fill="#BCB399" d="M581.5,64.6c2.6,0.5,5.3,0.6,8,0.9c-0.7,4.1-4.5-0.5-6.4,1.7c-1.1-0.5-2.2-1-3.4-1.6   C580.4,65.2,581,64.9,581.5,64.6z" />
	<path fill="#3E352D" d="M599.2,58.8c-1.3,1.5-2.4,3.2-4.3,4.1c-0.3-0.3-0.5-0.5-0.8-0.8c1.5-1.4,2.9-2.7,4.4-4.1c0.2,0,0.4,0,0.7,0   l0,0C599.1,58.3,599.1,58.6,599.2,58.8z" />
	<path fill="#665044" d="M583.1,67.2c1.2-1.2,2.3-0.6,3.4,0c-0.2,0.2-0.4,0.4-0.7,0.6C584.9,67.6,584,67.4,583.1,67.2z" />
	<path fill="#D0AFA0" d="M528.4,93.9c0.1,0.9-0.9,1.8,0,2.8c-2-0.1-4.2,0.7-5.9,1.3c-1.6-0.5-1.9-1.5-1.7-2.7   C523.2,94.7,525.7,93.8,528.4,93.9z" />
	<path fill="#AEA28A" d="M599.2,58.8c0-0.2,0-0.5-0.1-0.7c0.4-0.5,0.8-0.9,1.2-1.4c0.3-0.3,0-1.7,1.1-0.7c-0.4,1.4-0.6,3-1.6,4.2   C599.7,59.7,599.9,59,599.2,58.8z" />
	<path fill="#5F544B" d="M600.3,56.7c-0.2,0.2-0.4,0.4-0.5,0.7C600,57.1,600.1,56.9,600.3,56.7z" />
	<path fill="#C6BDA2" d="M562.1,11.9c-1.3-0.3-2.5-0.9-3.6-1.5c0-0.2,0-0.4,0-0.6c0.2-0.2,0.4-0.4,0.6-0.6   C560.4,9.8,561.5,10.6,562.1,11.9z" />
	<path fill="#070605" d="M618,248.7c0,6.8-3.4,12.9-5.6,19.1c-0.3-0.3-0.7-0.6-1.2-1.1c-2.3,2.4-3.4,8.3-7.8,5.3   c0.3-4.7,1.4-9.3,2.7-14.2c-4,3-4,7.8-8.2,10.2c-7.4-2.2-0.2-12.8,1.9-17.2c3.1,2.2-6,10.5-2.3,15c2.5-0.2,3.6-6.9,6.1-8.5   c5.1-3.5,4.9-9.9,8.9-13.9c-1.2,9.2-7.5,17.4-6.9,26.9c4.8-2.3,8.4-17.2,11.3-22.5C617.4,248.1,617.7,248.4,618,248.7z" />
	<path fill="#150F0E" d="M600.6,252.3c-0.1-0.6,0-1.3-0.8-1.5c0.2-1.2,0.5-2.4,0.7-3.7c-0.8-0.2-1,0.4-1.2,0.8   c-2.5,3.5-4.1,7.4-8.5,9c-0.7-0.2-1.4-0.4-2.3-0.6c-0.5-0.8-1-1.6-1.5-2.5c2.9-5.8,5.1-11.2,8.9-16.7c-0.8-0.2-1.3-0.3-1.8-0.4   c1.5-1.4,1.7-0.1,2.8,0.8c-1.5,4.8-9.1,13-7,17.6c5.5-1.1,6.2-8,10.2-11c3.5-2.2,2.7-6.8,6-9.1C605.1,241,601.9,246.2,600.6,252.3z   " />
	<path fill="#DEC5B4" d="M671.3,168.8c0-0.5,0-0.9,0-1.4c0.4,0,0.8,0,1.4,0.1c0.2-1.5,0.1-2.5-1.4-2.8c0.5-1.4,1.7-2.3,2.8-3.1   c0-0.9,0-1.7,0-2.5c1.3,0.7,0.3,2.2,1.2,3.1c0.6,4,0.6,8.5-2.8,11.4c-1-1-1.3-2-1.2-3.2C672,169.8,672.2,169.3,671.3,168.8z" />
	<path fill="#2A2321" d="M607.4,140.4c-0.8,1.7-1,3.8-2.5,5.3C603.1,145.4,605.1,138.1,607.4,140.4z" />
	<path fill="#362C29" d="M600.4,227c0.5,0.2,1,0.4,1.5,0.6c-1.1,2.3-2.3,4.7-3.4,7c-0.2-0.5-0.3-0.9-0.5-1.4   C598.7,231.2,599.6,229.1,600.4,227z" />
	<path fill="#292320" d="M674.1,159c0,0.8,0,1.5,0,2.5c-0.6,0.5-1.3,1-2,1.5c-1.2-1.6-0.2-3,0.2-4.8   C672.9,158.5,673.5,158.7,674.1,159z" />
	<path fill="#352E2B" d="M612.8,234.5c-0.6-1.7-0.6-1.7,1.4-3.3C615,232.8,614.7,233.6,612.8,234.5z" />
	<path fill="#1B1413" d="M619.2,235.1c-0.3,1.7-0.6,2.8-2.1,3C616.7,236.1,616.7,236,619.2,235.1z" />
	<path fill="#382D2A" d="M671.3,164.6c1.5,0.3,1.6,1.4,1.4,2.8c-0.5,0-1,0-1.4-0.1C670.8,166.4,670.3,165.5,671.3,164.6z" />
	<path fill="#0E0D0C" d="M599.6,105.4c-2.2-0.5-0.3-3.1,0.9-1.4C600.2,104.4,599.9,104.9,599.6,105.4z" />
	<path fill="#B19B8E" d="M671.3,168.8c0.9,0.5,0.8,1,0,1.5C670.4,169.6,670.4,169.5,671.3,168.8z" />
	<path fill="#060908" d="M617.8,225.4c0.2,0.6,0.3,1,0.4,1.3c-0.4,0.1-0.7,0.1-1.5,0.3C617.1,226.3,617.4,226,617.8,225.4z" />
	<path fill="#4F3936" d="M615.8,228.1c0.4,0.4,0.6,0.6,0.8,0.8C615.5,230.2,614.9,229.5,615.8,228.1z" />
	<path fill="#5C4944" d="M608.3,220.5c0.3,0.8,0.6,1.2,0.5,1.4c-0.2,0.4-0.9,1.1-1.3,0.5C607.6,222,607.8,221.7,608.3,220.5z" />
	<path fill="#362C29" d="M597.8,236.2c-0.1-0.6-0.1-1.2,0.7-1.5C598.2,235.2,598,235.7,597.8,236.2z" />
	<path fill="#280E0D" d="M602.4,103.5c-0.1-0.1-0.3-0.2-0.5-0.2c0.2-0.4,0.4-0.1,0.7,0C602.5,103.4,602.5,103.4,602.4,103.5z" />
	<path fill="#E0C6B5" d="M630.7,344.6c-1.2-0.8-0.5-2.3-0.7-3.5c4.9-6.4,10.4,5.3,14.5,7.9c1.2,5.2-5.9,3.5-8.2,1.4   c0.4-0.1,0.8-0.2,1.4-0.4c-2.2-2-3.4-4.4-5.9-6.3C631.3,344.1,631,344.4,630.7,344.6z M640.2,350.7c-0.2-0.8-0.5-1.2-1.4-0.9   C638.1,350.6,639.4,351.5,640.2,350.7z M643.1,351.4c0-0.1,0-0.2,0-0.3c-0.4,0-0.7,0-1.1-0.1c0,0.1,0,0.3,0,0.4   C642.4,351.4,642.7,351.4,643.1,351.4z" />
	<path fill="#231E1C" d="M647.8,366.1c-1.5-2.6-1-8.8,0.7-10.2C650.4,358.9,649.1,362.4,647.8,366.1z" />
	<path fill="#26201E" d="M654.1,375.5c-1-3.8-0.2-6.7,0.6-9.9C657.1,367.1,655.4,373.3,654.1,375.5z" />
	<path fill="#1B1513" d="M630.7,344.6c0.3-0.3,0.7-0.6,1.1-0.9c2,1.4,3.1,3.4,4.7,5c-0.3,0.3-0.6,0.6-1,0.9   C633.2,348.6,631.8,346.8,630.7,344.6z" />
	<path fill="#040303" d="M646.1,368.5c0-0.7,0-1.4,0-2.5C647.7,366.6,648,368.2,646.1,368.5z" />
	<path fill="#4D4A44" d="M635.4,349.6c0.3-0.3,0.6-0.6,1-0.9c0.4,0.4,0.7,0.7,1.3,1.3c-0.6,0.2-1,0.3-1.4,0.4   C636,350.2,635.7,349.9,635.4,349.6z" />
	<path fill="#301F1D" d="M655.2,380.1c0,1,0,1.4,0,2.2C654.3,381.6,654.3,381.2,655.2,380.1z" />
	<path fill="#1B1614" d="M510.2,320.8c0-0.9,0-1.8,0-2.8c2,1.1,4,4.3,4.6,7.6C512.2,325.6,511.2,322.7,510.2,320.8z" />
	<path fill="#352A27" d="M489.1,296.3c-2.2-0.8-2.7-1.5-2.6-4.2c2.1,0.7,1.8,3.5,4,4.1C490.1,296.3,489.6,296.3,489.1,296.3z" />
	<path fill="#272220" d="M561.2,375.2c-1.9-1.1-3-2.6-2.8-4.7C560.6,371.4,561.6,373.1,561.2,375.2z" />
	<path fill="#3F3A35" d="M510,304c0.7-1.3,1.7-1.6,3.2-1.3c-0.1,0.5-0.2,0.9-0.3,1.3C512,304.3,510.8,305.2,510,304z" />
	<path fill="#2D2D29" d="M522.8,336.2c0-1.7,2.7-1.1,1.8,0.7c-0.3,0-0.8,0-1.2-0.1C523.2,336.6,523,336.4,522.8,336.2z" />
	<path fill="#191210" d="M489.1,296.3c0.5,0,1,0,1.4,0c0.4,0.4,0.7,0.7,1.2,1.2C489.9,297.8,489.9,297.8,489.1,296.3z" />
	<path fill="#251E1D" d="M556.5,369.1c0-0.7-0.1-1.3-0.2-2.6C557.8,367.5,558.7,368.9,556.5,369.1z" />
	<path fill="#352724" d="M554,364.2c-0.9-0.7-1.1-1.2-0.4-1.9C554.6,362.8,554.6,363.3,554,364.2z" />
	<path fill="#87766D" d="M508,304.7c0-0.4,0.1-0.8,0.1-1.1c0.1,0,0.2,0,0.3,0c0.1,0.4,0.1,0.8,0.2,1.1   C508.5,304.7,508.2,304.7,508,304.7z" />
	<polygon fill="#F0BD10" points="659.1,441.1 658.9,441.2 658.8,441 659,440.9  " />
	<path fill="#080604" d="M576.7,180.7c-6.7,1.3-16.8,1.8-20.9-4.4c0.8-1.4,2.6,0,3.7,0.4c10,5.1,22.2,1.9,28.5-7.1   c0.4-0.2,0.8-0.4,1.4-0.6C588.6,175.5,581.7,177.9,576.7,180.7z" />
	<path fill="#2B261C" d="M615,162.6c0.5,1.3,0.3,2.4,0,3.8C613.6,163.9,613.6,163.7,615,162.6z" />
	<path fill="#382E23" d="M614.9,172.1c-0.6-0.5-0.7-1.1,0.1-1.8C615.4,170.9,615.8,171.5,614.9,172.1z" />
	<path fill="#12120E" d="M592.3,165.3c-0.4,0.6-0.7,1-1.2,0.5C591.2,165,591.4,164.9,592.3,165.3z" />
	<path fill="#211817" d="M556.1,123c2-0.5,4.9-3.9,6.5-1.5c-2,2-4.9,2-7,3.6c-2.6-1.1-2.6-1.1-3.9-3.2   C552.5,119.7,554.9,122.5,556.1,123z" />
	<path fill="#D3BE9F" d="M528.3,53.9c0.2-0.7,0.8-1.7,0.5-2.2c-0.8-1.8-0.3-3.6-0.6-5.6c-0.9-0.8-1-2.6-2.9-2.8   c3.2-2.7,7-4.6,10.3-7.1c-0.7-0.5-0.6-1.1,0-1.7c0.4,0,0.7-0.1,1.1-0.1c0.2-0.2,0.5-0.5,0.7-0.7c0,0,0,0,0,0c0.7-0.2,1.5-0.6,2.1,0   c0,0.2,0,0.4,0,0.7c-3.9,3.5-7.7,5.8-11.4,10c7.7-3.1,12.5-10.7,18.4-16.3c0.7,1.8-2.4,3.7-0.7,4.9c0,0.3,0,0.5,0.1,0.8l0,0   c-2.2,0.3-3.5,3.4-5.4,4.7c-3.4,3.5-8.3,5.2-10.9,9.3c2.5-0.1,14.9-10.2,14.1-12.7c0.2-0.2,0.5-0.5,0.7-0.7c0.5,0,0.9,0,1.4,0   c-1.7,7.9-9.3,11.7-14.7,16.9c-0.1,0.8-0.2,1.5-0.3,2.1C529.8,53.6,529.2,53.9,528.3,53.9z" />
	<path fill="#D0BC9D" d="M521.4,45.4c-3.3,1.2-6.7,1.2-10,2.1c0.3-0.6,0.6-1.3,0.9-1.9c0.4,0.1,0.9,0.2,1.4,0.3   c6.3-10.1,17.3-14.9,27.2-20.2c-0.8,1.3-1.5,2.7-2.3,4.1c0,0,0.2,0.2,0.4,0.3c-4.8,5.2-10.5,9.2-16.2,13.3   C521.8,43.7,521.3,44.3,521.4,45.4z M530.4,35.6c1.2-0.6,2.4-1.3,3.5-2.6c-6.1,2.4-14.5,6.6-17.7,12.3   C521.2,42.8,525.6,38.7,530.4,35.6z" />
	<path fill="#CFBB9C" d="M528.3,53.9c0.2,0,0.4,0,0.7,0c3.7,3.4,13.3-9.7,16.6-12.1c-0.4-0.4-0.6-0.7-1-1.2c0.5-0.3,0.9-0.5,1.3-0.7   c0.5,0.5,0.9,0.9,1.4,1.4c-0.3,0.4-0.5,0.9-0.8,1.3c-0.2,0.1-0.7,0-0.3,0.5c0.1-0.2,0.2-0.3,0.3-0.5c1.3-0.2,2.4,0.4,3.6,0.8   c-1.6,2.2-3.8,3.8-5.8,5.6c-0.8-0.6,0.1-1,0.1-1.5c0.9-0.6,1.8-1.2,1.8-2.5c-4.1,3.4-8.8,8.3-13.2,11.6c-1.3-1.1-2.7-1.6-4.5-1.4   C528.5,54.7,528.4,54.3,528.3,53.9z" />
	<path fill="#1B1614" d="M557.8,56c0.9,1.7,2.6,2.8,2.2,5c-0.2,0.2-0.3,0.3-0.6,0.6c-0.5-0.8-1.1-1.6-1.7-2.5   c-1.1,0.5-2.2,1-3.5,1.6c0.6,0.9,1,1.5,1.5,2.3c-0.9,2.1,0.9,3.6,1.4,5.6c-0.4,0.2-0.8,0.4-1.4,0.7c-0.8-0.3-1.8-0.7-2.7-1   c-1.1-1.8,0.4-3.3,1.1-4.7c-0.3-1.1-1.2-1.2-2-1.3C551.4,60.6,556,56,557.8,56z" />
	<path fill="#1C1513" d="M525.4,67.3c-4.3-1.1-6.3,2.9-10.5,3.4c0.6-2.9,4.1-3.6,6.3-5.2c2.5-1,5.3,0.5,7.8,1   C528.1,67.6,526.7,67.2,525.4,67.3z" />
	<path fill="#372C25" d="M533.2,56.7c3.3-3,7.3-5.8,10.5-9.2c0.3,0,0.6,0,0.8,0c0,0.5-1,0.9-0.1,1.5c0,0.5-1,1,0.1,1.4   c-0.5,0.5-1,0.9-1.5,1.4c-2.4,0.4-5.2,2.1-4.9,4.8c-0.2,0-0.4,0-0.7,0C536.4,55.2,534.7,57.5,533.2,56.7z" />
	<path fill="#221B17" d="M512.3,45.6c-0.3,0.6-0.6,1.3-0.9,1.9c-0.3,0-0.7,0-1,0c2.2-5.9,5.5-11.5,10.3-15.7c0,0.4,0.1,0.8,0.1,1.2   C517.7,37,514.4,40.9,512.3,45.6z" />
	<path fill="#140D0C" d="M527.7,71.6c-2.8,2.4-7.6,5.8-10,0.8c2.1-0.8,4.3,0,6.4-0.6C525.2,71.6,526.3,71.1,527.7,71.6z" />
	<path fill="#392F27" d="M522.7,43.4c3.2-2.4,6.5-4.8,9.7-7.1c0.8,0.3,0.8,0.9,0.8,1.5c-3.3,2-6.3,4.6-9.7,6.4   C523.3,43.9,523,43.7,522.7,43.4z" />
	<path fill="#C0AC8F" d="M512.9,41.3c-0.9,2.1-1.7,4.1-2.6,6.2c-0.3,0-0.6,0.1-0.9,0.1c0.2-2.7,1-5.2,2.2-7.7   C512.6,39.8,513,40.4,512.9,41.3z" />
	<path fill="#65615A" d="M525.4,67.3c1.3-0.1,2.6,0.3,3.6-0.7c1-0.1,1.6,0.6,2.4,1.1C529.3,68,527.4,68.2,525.4,67.3z" />
	<path fill="#AEAB90" d="M541,60.2c1.5-0.1,2,1.3,2.8,2.2C542.3,62.3,541.5,61.4,541,60.2z" />
	<path fill="#736E62" d="M522.7,43.4c0.3,0.3,0.5,0.5,0.8,0.8c-0.5,0.8-1.1,1.3-2.1,1.2C521.3,44.3,521.8,43.7,522.7,43.4z" />
	<path fill="#AEAB90" d="M540.2,59.7c0.3,0.2,0.5,0.3,0.8,0.5C540.7,60,540.5,59.8,540.2,59.7z" />
	<path fill="#ECD1BF" d="M612.4,267.8c2.2-5.5,4.5-11,5.7-17c1.1,0.5,0.3,1.8,0.9,2.5c0.8-0.3,1.5-0.5,2.2-0.8   c0.2,0.2,0.3,0.4,0.4,0.6c-1.5,5.4-4.5,10.7-8,15.2c-0.4-0.1-0.9-0.1-1.3-0.2L612.4,267.8z" />
	<path fill="#1D120F" d="M644,238.2c0.1-3.5-2.5-6.7-3.5-9.9c1.6-2.9,4.8,7,5.6,8.2c0.7,0,1.2,0,2.1,0c-0.6,0.7-1,1.2-1.4,1.7   c0,1.9,0,3.9,0,6.1C644.7,242.5,645.4,240.2,644,238.2z" />
	<path fill="#2E1E19" d="M647.9,268.3c-1.2-4.2-1.6-10.7-0.9-14.9C648.8,256.6,648.1,264.3,647.9,268.3z" />
	<path fill="#472C24" d="M644,238.2c0.2,0.4,0.4,0.9,0.6,1.3c-2.2,0.8-3.1,1.3-5.8,1.6C640.7,239.4,642.4,239,644,238.2z" />
	<path fill="#1F1B17" d="M686.2,490.4c-2-0.6-3.4-1.6-4.2-3.3c1.6-3.5,4.5,0,5.2,2.1C687,489.6,686.6,490,686.2,490.4z" />
	<path fill="#372B0A" d="M287.3,586.8c-1.5,1.1-3,1.5-5.1,1.9C284.2,586.1,284.5,586,287.3,586.8z" />
	<path fill="#553A0A" d="M175.9,522.6c-1.8-0.2-2.8-1.4-3.5-2.8C174,520.1,175.1,521.2,175.9,522.6z" />
	<path fill="#53400C" d="M172.4,519.8c-0.5,0-1,0-1.5,0C171.6,518.8,171.8,518.8,172.4,519.8z" />
	<path fill="#3C241B" d="M569.1,231.8c0.2-0.3,0.5-0.6,0.7-0.9c2.1,3.9,4.4,7.7,7,11.3c0,0.3-0.1,0.7-0.1,1   c-5-4.4-9.1-9.5-12.6-15.3c3.1-0.2,3,4.9,5.6,5.4C569.4,232.9,569.2,232.4,569.1,231.8z" />
	<path fill="#754839" d="M582.1,246.2c1.8,1.8,2.9,4,4.1,7c-2.8-1.5-3-4.2-4.7-6.5C581.7,246.5,581.9,246.3,582.1,246.2z" />
	<path fill="#6A3D2F" d="M558.9,228.5c3.4,0.7,4.3,1.3,6.2,3.7C563.4,231.8,560.7,230.3,558.9,228.5z" />
	<path fill="#B76E55" d="M569.1,231.8c0.2,0.5,0.4,1,0.6,1.6c-1.7-0.3-2.3-3.1-3.5-4.4c0.8-0.2,0.7-0.9,0.8-1.5   C567.6,229,568.3,230.4,569.1,231.8z" />
	<path fill="#995B48" d="M591.4,267.6c0,0.5,0,1.1,0,2.3c-1.1-1.6-2-2.5-0.7-3.7C590.9,266.6,591.2,267.1,591.4,267.6z" />
	<path fill="#8B5441" d="M576.7,243.3c0-0.3,0.1-0.7,0.1-1c0.7,0.4,1.3,0.8,1.1,2C577.4,243.9,577,243.6,576.7,243.3z" />
	<path fill="#90625B" d="M656.6,386c-0.1,0.2-0.2,0.4-0.3,0.6C655.8,386,656.4,386.1,656.6,386L656.6,386z" />
	<path fill="#362C28" d="M586.9,199.5c-3.1-0.4-5.6-2.4-7.5-5.2c0.6-0.1,1.1-0.2,1.5-0.3C582.8,195.9,585.9,197,586.9,199.5z" />
	<path fill="#2E2623" d="M610.7,189.8c1.1,2.2-0.1,3.2-1.6,4.8C609.1,192.4,609.3,191,610.7,189.8z" />
	<path fill="#3B2E2A" d="M597.6,211.4c-0.3,0.1-0.6,0.2-1.1,0.3c-0.4-1-1.5-2-0.2-2.9C596.7,209.7,597.2,210.5,597.6,211.4z" />
	<path fill="#473632" d="M595.1,207.3c-0.2,0.3-0.3,0.5-0.6,1.1c-0.5-1.2-2-2-1.1-3.1c0,0,0,0,0,0   C594.3,205.7,594.7,206.5,595.1,207.3z" />
	<path fill="#6E5C55" d="M601.5,191.3c-0.3-0.2-0.4-0.2-0.6-0.3c-0.3-0.8,0.3-1.9,1.2-1.8C602.8,190.2,602.1,190.7,601.5,191.3z" />
	<path fill="#513F3A" d="M609.7,195.7c-0.2,0.8-0.5,1.3-1.2,1.6C607.6,196.2,608.5,195.8,609.7,195.7z" />
	<path fill="#746D63" d="M591.3,203c-0.6-0.2-1.2-0.4-2.5-0.8c1.1-0.3,1.5-0.4,1.9-0.6C590.9,202.1,591.1,202.5,591.3,203z" />
	<path fill="#E1C7B6" d="M594.2,205.9c-0.3-0.2-0.5-0.4-0.8-0.6C593.7,205.5,594,205.7,594.2,205.9z" />
	<path fill="#F4D7C6" d="M600.4,227c-1.2,2.3-1.4,5.3-3.4,7c-0.8-0.2-1.6-0.1-2.2,0.6c-4.1,0.5-8.7,0.6-12.5-0.6   c0.9-1.1,3-0.8,3.3-2.5c0.5-1.7,1.6-3.3,0.5-5.2c-0.3-0.6-0.3-1.1,0.4-1.4C589.9,229.4,595.6,228.3,600.4,227z" />
	<path fill="#28211E" d="M569.8,205.5c-3.6-2.7-5-6.2-6.4-10.2C565.3,192.8,569.2,203.8,569.8,205.5z" />
	<path fill="#25211F" d="M574.2,218.8c0-1.1,0-1.9,0-2.7c2.3-1.1,4.5,0.8,5.4,3.2C577.6,219.4,576,219,574.2,218.8z" />
	<path fill="#3E3530" d="M515.9,329c0.3-0.3,0.6-0.7,0.8-1c1.4,0,2,0.7,2.5,2C518.2,331.4,516.5,330.4,515.9,329z" />
	<path fill="#222724" d="M520.5,332.1c1.1,0.3,1.8,0.6,1.5,1.8c-0.9,0.4-1.5,0-2-0.8C520.1,332.8,520.3,332.5,520.5,332.1z" />
	<path fill="#F6D9C7" d="M519.9,336.2c-0.2-0.1-0.3-0.2-0.5-0.3C519.6,336.1,519.8,336.2,519.9,336.2L519.9,336.2z" />
	<path fill="#F6D9C7" d="M515.7,332c0.2,0.1,0.3,0.2,0.5,0.3C516,332.2,515.9,332.1,515.7,332L515.7,332z" />
	<path fill="#58452E" d="M552.5,174.1c1.6-0.5,1.6-0.5,2.3,0.6C553.3,175.3,553.3,175.3,552.5,174.1z" />
	<path fill="#30402D" d="M550.5,173.6c-0.4-0.3-0.4-0.5,0-0.8C550.9,173,550.6,173.3,550.5,173.6z" />
	<path fill="#0F0C0B" d="M655.5,159.3c-0.4,0.6-0.5,0.7-0.6,0.9C654.1,159.5,654.6,158.7,655.5,159.3z" />
	<path fill="#342A26" d="M543.9,205.4c0.3,0,0.7-0.1,1.1-0.1c0.5,1.7-0.3,2.6-2,3.6C543.1,207.3,543.1,206.6,543.9,205.4z" />
	<path fill="#1B1513" d="M553.6,88.3c0.3,0,0.7,0.1,1.1,0.1c0.7,1.8,0.2,3.2,0.3,5.8C553.1,92.1,553.9,90.6,553.6,88.3L553.6,88.3z" />
	<path fill="#4A403B" d="M554.9,102.1c-0.7-1.3-0.7-1.3-0.3-3.1C555.6,100.1,555,101.1,554.9,102.1L554.9,102.1z" />
	<path fill="#3C2E2A" d="M554.4,96.5c0-1.3,0.4-1.3,0.5,0C554.8,96.5,554.6,96.5,554.4,96.5z" />
	<path fill="#373028" d="M569.6,55.3c0.9,2.1-1.3,6.8,2.1,6.9c-0.2,0.5-0.4,1-0.6,1.5c-2.1-0.8-4.4-3.3-4.2-5.7   c0.6,0.4,1.3,0.8,2.1,1.2c0-1.4,0-2.6,0-3.9C569.2,55.3,569.4,55.3,569.6,55.3z" />
	<path fill="#4A4136" d="M566.9,58c0,0.3,0,0.6-0.1,0.9c-1.5-2-2.2-4.7-4.1-6.4c0-0.5-0.2-0.7-0.7-0.6c0-0.1,0-0.2,0-0.4   c0.5-0.4,0.9-0.8,1.4-1.1C564.9,52.7,566.1,55.3,566.9,58z" />
	<path fill="#5F5547" d="M568.4,61.6c0.4,0.5,0.9,1,1.3,1.5c-0.6,0.6-1.4,1.1-0.9,2.1c-0.2,0.2-0.4,0.4-0.6,0.6   c-1.5-1.6-1.9-3.5-2.1-5.6c0.6,0.8,1.2,1.6,1.9,2.6C568.2,62.2,568.3,61.9,568.4,61.6z" />
	<path fill="#A39179" d="M568.4,61.6c-0.1,0.3-0.1,0.6-0.3,1.2c-0.7-1-1.3-1.8-1.9-2.6c0.3-0.2,0.5-0.5,0.8-0.7   C567.4,60.2,567.9,60.9,568.4,61.6z" />
	<path d="M570.4,68.6c-0.3,0-0.5,0-0.8,0c-0.2-0.7-0.5-1.4-0.7-2.2C570,66.8,570.3,67.6,570.4,68.6z" />
	<path d="M568.3,65.8c0.2-0.2,0.4-0.4,0.6-0.6c0.1,0.4,0.1,0.9,0.2,1.3C568.8,66.3,568.5,66.1,568.3,65.8z" />
	<path fill="#D5C3A6" d="M562,51.9c0.5-0.1,0.7,0.1,0.7,0.6c-0.2,0-0.5,0-0.6,0C562,52.3,562,52.1,562,51.9z" />
	<path fill="#362C29" d="M594.8,234.6c0.6-0.6,1.4-0.7,2.2-0.6C596.5,234.9,595.6,234.7,594.8,234.6z" />
	<path fill="#B6BDA2" d="M547.7,63c-0.7,0-1.5,0-2.2,0c0-0.2,0-0.3,0-0.5c0.8-0.1,1.5-0.1,2.3-0.2C547.7,62.5,547.7,62.7,547.7,63z" />
	<path fill="#E1C7B6" d="M587.7,226.3c-0.2-0.2-0.4-0.4-0.5-0.6C587.4,225.9,587.5,226.1,587.7,226.3z" />
	<path fill="#E1C7B6" d="M587.1,225.6c-0.2-0.2-0.4-0.5-0.6-0.7C586.7,225.1,586.9,225.3,587.1,225.6z" />
	<path fill="#1C1714" d="M563.4,50.4c-0.9,0.7-1.7,1.4-2.7,2c-0.1-0.3-0.2-0.6-0.4-1.1c-0.5,0.4-1,0.7-1.4,1c-0.2,0-0.3,0-0.4,0.2   c-0.2,0-0.5,0-0.7,0c0.1-0.2,0.1-0.4,0.1-0.6c0,0,0,0,0,0c0.2-0.2,0.5-0.5,0.7-0.7c0,0,0,0,0,0c0.2-0.2,0.5-0.5,0.7-0.7   c0,0,0,0,0,0c0.2-0.2,0.5-0.5,0.7-0.7c0,0,0,0,0,0c0.2-0.2,0.5-0.5,0.7-0.7c0,0,0,0,0,0c2.8-2.9,1.2-8.2-1.5-10.7   c1.2-2.1-0.9-4.8-2.2-6.3c0.2-0.9-0.8-1.6-1.5-2c-1.7,2.6-3.6,4.8-6,6.5c-0.3-0.3-0.5-0.6-0.8-0.9c2-2.5,4.2-4.9,5.7-7.8   c-1.1-1.8-2.5-3.1-3.7-4.8c0.3-0.2,0.5-0.5,0.8-0.7c2.2,1.8,4.1,3.8,6.2,5.7c0,0-0.1,0-0.1,0c0,0.3,0,0.4,0.3,0.6   c0.3,1,1,1.4,2,1.5l0,0c-1.1,2.1,0.3,3.6,1,5.3c0.4-0.1,0.7-0.2,1-0.3c0.7,3,2.2,5.9,2.2,9c-0.4-0.1-0.8-0.1-1.3-0.2   C562.9,46.3,562.3,48.4,563.4,50.4z" />
	<path fill="#1E1814" d="M538.2,56.6c0-0.4,0-0.9,0-1.3c0.7-0.2,1.4-0.4,2.1-0.6c0.9,0.3,1.8,1.4,2.8,0.1c0.6-0.1,1.3-0.2,1.9-0.3   c0.3,0.3,0.6,0.6,0.9,0.9c-0.4,0.1-0.8,0.1-1.2,0.2c0,0.1,0,0.3,0,0.4c1.5,0.2,3.3-0.4,4.5,0.6C545.6,58,541.9,58,538.2,56.6z" />
	<path fill="#403129" d="M545.9,55.3c-0.3-0.3-0.6-0.6-0.9-0.9c4.3-1.1,7.6-4,11.4-6.2c0.2,0.2,0.5,0.5,0.7,0.7c0,0,0,0.2,0,0.2   C553.7,51.7,550.1,54.3,545.9,55.3z" />
	<path fill="#645549" d="M557.1,49c-0.2-0.2-0.5-0.5-0.7-0.7c1.6-1.6,3.8-2.7,5-4.8c0.2,0,0.4-0.1,0.5-0.2c0,0.5,0,1.1,0,1.6   C560.2,46.2,558.7,47.6,557.1,49z" />
	<path fill="#403129" d="M549.3,56.5c-0.5-0.9-1.5-0.3-2.2-0.6c1.1-0.8,2.4-0.4,3.6-0.5C550.4,56,550.1,56.5,549.3,56.5z" />
	<path fill="#C4B298" d="M561.2,45.4c0.2-0.2,0.4-0.3,0.7-0.5c0.1,1.1,0.4,2.2-0.5,3.1C561.3,47.1,561.3,46.2,561.2,45.4z" />
	<path fill="#403129" d="M546,55.9c-0.4,0-0.8,0-1.3,0c0-0.1,0-0.3,0-0.4c0.4-0.1,0.8-0.1,1.2-0.2C545.9,55.5,545.9,55.7,546,55.9z" />
	<path fill="#C4B298" d="M556.5,49.7c0.2-0.2,0.4-0.3,0.6-0.5C556.9,49.4,556.7,49.5,556.5,49.7z" />
	<path fill="#C4B298" d="M560.6,49c-0.2,0.2-0.5,0.5-0.7,0.7C560.2,49.5,560.4,49.3,560.6,49z" />
	<path fill="#C4B298" d="M559.9,49.7c-0.2,0.2-0.5,0.5-0.7,0.7C559.5,50.2,559.7,50,559.9,49.7z" />
	<path fill="#C4B298" d="M559.3,50.5c-0.2,0.2-0.5,0.5-0.7,0.7C558.8,50.9,559,50.7,559.3,50.5z" />
	<path fill="#C4B298" d="M558.5,51.1c-0.2,0.2-0.5,0.5-0.7,0.7C558.1,51.6,558.3,51.4,558.5,51.1z" />
	<path fill="#C4B298" d="M561.2,48.3c-0.2,0.2-0.4,0.5-0.6,0.7C560.8,48.8,561,48.5,561.2,48.3z" />
	<path fill="#C0AC92" d="M571.7,62.2c-2.9,0.2-1.6-3.8-1.9-5.5c0.4-0.4,0.8-0.9,1.2-1.3C571.1,57.6,570.9,60,571.7,62.2z" />
	<path fill="#C4B298" d="M558.9,52.4c0.4-0.3,0.9-0.6,1.4-1c0.2,0.5,0.3,0.8,0.4,1.1c-0.1,0.3-0.1,0.5-0.2,0.8   C560,52.9,559.4,52.6,558.9,52.4z" />
	<path fill="#BBAB8F" d="M520.6,31.8c-0.9,0.8-1.8,1.7-2.8,2.5c-0.3-0.3-0.5-0.5-0.8-0.8c1.5-1.8,2.6-4.1,4.8-5c0.3,0.3,0.6,0.6,1,1   C522.1,30.2,521.4,31,520.6,31.8z" />
	<path fill="#A3957D" d="M517.1,33.5c0.3,0.3,0.5,0.5,0.8,0.8c-1.6,2.3-3.3,4.6-4.9,7c0-0.9-0.3-1.5-1.3-1.4   C514.1,38.3,515.1,35.6,517.1,33.5z" />
	<path fill="#E1D2B3" d="M522.8,29.5c-0.3-0.3-0.6-0.6-1-1c1.2-1.4,3.4-1.8,5-2.8c0,0.3,0,0.6,0,0.9c-1.1,1-2.7,1.4-3.5,2.7   C523.2,29.4,523.1,29.4,522.8,29.5z" />
	<path fill="#48382F" d="M524.1,25.2c-0.7,0.7-1.3,1.5-2,2.2c-0.3-0.3-0.6-0.6-0.9-0.8c1.2-1.2,2.4-2.4,3.6-3.6   c0.2,0,0.5,0.1,0.7,0.1c0,0,0,0,0,0C525.1,23.8,524.6,24.5,524.1,25.2z" />
	<path fill="#110E0C" d="M554.3,16.7c6.7,2.4,9.6,9.9,11.9,16.1c-0.5,1.3-0.9-0.7-1.5,0c0.8,5.4,3.8,11.1,3.3,16.7   c-3.1-5.3-2.3-11.9-5.3-17.4l0,0c0-0.8,0-1.6-0.8-2.1l0,0c-1.6-6.7-6.1-12.7-13.3-12.9c0,0,0.2,0.2,0.2,0.2s-0.2-0.2-0.2-0.2   C550.6,17,552.4,16.9,554.3,16.7z" />
	<path fill="#CAB698" d="M553.6,18c4.6,2.7,7.2,6.9,8.5,12c-0.6-0.3-1.2-0.7-2-1.1c-0.1,0.5-0.2,0.8-0.2,1.1c-1-0.1-1.7-0.5-2-1.5   c0.6-0.5,0.1-0.5-0.3-0.6l0.1,0c-0.6-1.8-1.2-3.6-1.7-5.2c-2.2-0.8-3.8-2-5.3,0.2c-0.2,0-0.4,0-0.6,0c-0.5-1.4-1.6-1.4-2.8-1.4   c0-0.2,0-0.3,0-0.5c0.3-0.1,0.6-0.2,1-0.3c-0.1-0.8-0.2-1.6-0.3-2.4C549.9,17.6,551.6,17.3,553.6,18z" />
	<path fill="#F2DEBE" d="M525.6,30.9c5.8-4.6,12.2-8.2,19.1-11.2c0.5,0.2,1.1,0.5,1.8,0.7c-2.8,2.3-19,12.9-21.4,11.3   C525.2,31.4,525.4,31.1,525.6,30.9z" />
	<path fill="#1C110E" d="M557.6,14.2c-3-0.2-7.9,0.3-9.7,2.7c-0.4,0.7-0.4,1.8-1.5,2c-1.6-5.5,8.1-7.7,12-5.5   C558.2,13.6,557.9,13.9,557.6,14.2z" />
	<path fill="#5D4E42" d="M536.8,26.7c3.2-2.1,6.9-3.6,9.7-6.3c0.3,0.3,0.6,0.6,0.9,0.8c0,0.2,0,0.3,0,0.5c-3.2,2-6.3,4.2-9.8,5.6   C537.3,27.1,537,26.9,536.8,26.7z" />
	<path fill="#C1A990" d="M523.4,29.3c0.8-1.4,2.4-1.8,3.5-2.7c0.6,0.1,1.1,0.1,1.7,0.2c-1.3,1.4-2.5,2.7-3.8,4.1c0,0,0,0,0,0   c-0.2,0.2-0.5,0.5-0.7,0.7c0,0,0,0,0,0c-0.5,0-1.1,0-1.6,0C522.9,30.7,523.1,30,523.4,29.3z" />
	<polygon fill="#F6E1C0" points="548.7,17.2 548.9,17.3 548.7,17.1  " />
	<path fill="#B0A086" d="M525.6,30.9c-0.2,0.3-0.4,0.5-0.5,0.8c0,0-0.2-0.2-0.2-0.2c0.1-0.2,0.1-0.5,0-0.7c0,0,0,0,0,0   C525.1,30.8,525.3,30.8,525.6,30.9z" />
	<path fill="#25201B" d="M510.2,32.9c0.7,0.3,0.3,0.5-0.1,0.7C510.1,33.4,510.2,33.2,510.2,32.9z" />
	<path fill="#B6C2A6" d="M553.6,7.8c-0.3,0.2-0.5,0.3-0.8,0.5C553.1,8.2,553.3,8,553.6,7.8z" />
	<path fill="#48382F" d="M525.6,23.1c0.1-0.2,0.2-0.4,0.2-0.6C526.4,23,525.7,22.9,525.6,23.1C525.5,23.1,525.6,23.1,525.6,23.1z" />
	<path fill="#3F3931" d="M566,37.1c-0.8-1.4-1.3-2.8-1.3-4.3c0.6-0.7,0.9,1.3,1.5,0c2.4,4.6,2.9,10,4.1,14.9c0.4,2.3-2.6,4-0.7,6.2   c0,0.5,0,0.9,0,1.4c-0.1,0-0.4,0-0.6,0c-0.4-1.3-0.7-2.5-1.1-3.9c-0.3,0.1-0.6,0.2-0.9,0.3c-0.3-1.4-0.1-2.8-0.1-4.1   c0.4,0.6,0.7,1.2,1.1,1.9c2.2-3.9-0.4-8.5-1.3-12.8C566.4,36.9,566.2,37,566,37.1z" />
	<path fill="#8C7E6A" d="M569.6,53.9c-0.8-1.2-1-2.4,0-3.6C569.6,51.6,569.6,52.7,569.6,53.9z" />
	<path fill="#695F51" d="M557.6,14.2c0.3-0.3,0.5-0.6,0.8-0.8c0.4,0.3,0.8,0.6,1.2,0.9C558.8,15.1,558.2,14.8,557.6,14.2z" />
	<path fill="#927F6D" d="M558.5,9.8c0.1,0.4,0,0.9,0,1.3c-0.4-0.3-0.9-0.6-1.7-1.1C557.7,9.9,558.1,9.8,558.5,9.8z" />
	<path fill="#6C5851" d="M640.2,350.7c-0.7,0.8-2.1-0.1-1.4-0.9C639.6,349.5,640,349.9,640.2,350.7z" />
	<path fill="#5A4943" d="M643.1,351.4c-0.4,0-0.7,0-1.1,0c0-0.1,0-0.3,0-0.4c0.4,0,0.7,0,1.1,0.1   C643.1,351.2,643.1,351.3,643.1,351.4z" />
	<path fill="#100E0B" d="M543.1,44.1c-2.1,2.5-11.3,13-14.1,9.8c0.5-0.2,1.1-0.3,1.8-0.6c0.1-0.6,0.2-1.3,0.3-2.1   c3.4-3.3,7.4-6.2,11.2-9.3c0.1,0.2,0.4,0.4,0.4,0.4C542.3,43.1,542.9,43.5,543.1,44.1z" />
	<path fill="#F4DEBE" d="M553.5,26.6c0.2,0.4,0.5,0.8,0.8,1.2c-2.7,5.2-7,9-11.2,12.8c0.1-2.7,3.1-4.2,2.8-7l0,0   C549,31.9,550.7,28.6,553.5,26.6z" />
	<path fill="#F3DEBE" d="M550.1,23.1c0.2,0,0.4,0,0.6,0c0.5,0.7,1,1.4,1.5,2.1c-1.6,3-4,5.3-6.4,7.7c-1.6-1.2,1.5-3.1,0.7-4.9   c0.2-0.3,0.4-0.5,0.6-0.8c0-0.2,0.1-0.4,0.1-0.6C548.8,25.9,549.4,24.5,550.1,23.1L550.1,23.1z" />
	<path fill="#463A30" d="M540.1,34.9c-4.2,3-6.8,7.8-12,9.3c3.7-4.2,7.5-6.5,11.4-10C539.7,34.5,539.9,34.7,540.1,34.9z" />
	<path fill="#857563" d="M543.1,40.6c1.9-1.6,3.6-3.5,5.6-5c0.3,0.3,0.5,0.6,0.8,0.9c-1.6,1.4-2.8,3.1-4.8,4.1   c0.4,0.4,0.7,0.7,1,1.2c-0.9,0.8-1.7,1.5-2.6,2.3c-0.2-0.6-0.8-1-0.4-1.8c0-0.1-0.3-0.3-0.4-0.4C542.6,41.5,542.8,41.1,543.1,40.6z   " />
	<path fill="#352922" d="M539.5,40.6c-3.4,2.3-5.7,6.2-9.9,7.1c2.2-3.6,6.1-5.1,9.2-7.8C539.1,40.1,539.3,40.3,539.5,40.6z" />
	<path fill="#AA947B" d="M540.1,34.9c-0.2-0.2-0.4-0.5-0.6-0.7c0-0.2,0-0.4,0-0.7c1-0.3,1.4-1,1.4-2c2.1-1.9,4.2-3.8,6.3-5.7   C546.5,29.3,542.4,32,540.1,34.9z" />
	<path fill="#665A4D" d="M534.7,34.3c1.8-1.7,3.4-3.7,5.5-5c0.3,0,0.6,0,1,0c-1,1.6-2.5,2.8-3.8,4.2c0,0,0,0,0,0   c-0.2,0.2-0.5,0.5-0.7,0.7C536,34.4,535.4,34.4,534.7,34.3z" />
	<path fill="#847360" d="M539.5,40.6c-0.2-0.3-0.5-0.5-0.7-0.8c1.5-1.2,2.9-2.7,4.3-4.1c0.2,0,0.5,0,0.6,0   C543.5,38,540.9,39,539.5,40.6z" />
	<path fill="#B49F86" d="M545.8,32.8c1.4-1.4,2.8-2.8,4.2-4.2c0.2,0.2,0.5,0.5,0.7,0.7c-1.3,1.8-3.2,2.9-4.8,4.3   C545.8,33.4,545.8,33.1,545.8,32.8z" />
	<path fill="#635144" d="M534.7,34.3c0.3,0,0.6,0.1,0.9,0.1c-0.6,0.6-0.6,1.2,0,1.7c-0.8,0.6-1.6,1.1-2.4,1.7c0-0.7-0.1-1.3-0.8-1.5   C533.2,35.6,533.9,35,534.7,34.3z" />
	<path fill="#D7C6A9" d="M537.4,33.5c0.9-0.9,1.9-1.9,2.8-2.8c0.3,0.3,0.5,0.5,0.8,0.8c0,1-0.5,1.7-1.4,2   C538.9,33,538.1,33.4,537.4,33.5z" />
	<path fill="#B49F86" d="M545.9,33.6c0,0.2,0,0.4-0.1,0.7c-0.5,0-0.9,0-1.4,0l0,0C544.7,33.5,545.3,33.6,545.9,33.6z" />
	<path fill="#B49F86" d="M543.7,35.7c-0.2,0-0.5,0-0.6,0c0.2-0.2,0.4-0.5,0.7-0.7c0,0,0,0,0,0C543.7,35.2,543.7,35.5,543.7,35.7z" />
	<path fill="#D7C6A9" d="M536.7,34.3c0.2-0.2,0.5-0.5,0.7-0.7C537.2,33.8,536.9,34,536.7,34.3z" />
	<path fill="#B49F86" d="M544.5,34.3c-0.2,0.2-0.5,0.5-0.7,0.7c0,0,0,0,0,0C544,34.8,544.2,34.5,544.5,34.3   C544.5,34.3,544.5,34.3,544.5,34.3z" />
	<path fill="#F3DEBE" d="M541,31.5c-0.3-0.3-0.5-0.5-0.8-0.8c0.3-0.5,0.6-0.9,0.9-1.4c0.8-0.4,1.3-1,1.8-2.1   c-2.3,0.4-2.4,2.1-4.1,2.9c-0.2-0.1-0.3-0.3-0.4-0.3c1.5-4.2,5.1-5.9,8.7-8.1c1.2,0,2.3,0,2.8,1.4l0,0c-0.8,0-1.5,0.3-1.9,1   C546.7,27.3,543.4,29,541,31.5z" />
	<path fill="#3D352C" d="M512.3,45.6c0.9-1.7,1.8-3.4,2.7-5c0.2,0.1,0.6,0.4,0.7,0.3c2.9-3.3,6.3-6.1,10.2-8.1   c0.2,0.4,0.3,0.6,0.4,0.7c-4.9,3.5-9.5,7.2-12.7,12.3C513.1,45.8,512.7,45.7,512.3,45.6z" />
	<path fill="#251D18" d="M530.4,35.6c-4.8,3.1-9.2,7.2-14.2,9.8c2.1-4.7,8.9-7.9,13.4-10.4C529.9,35.1,530.1,35.4,530.4,35.6z" />
	<path fill="#B0A086" d="M526.3,33.6c-0.1-0.2-0.2-0.4-0.4-0.7c-2.7,1.2-5,3.2-7.3,5c-0.3-0.3-0.5-0.6-0.8-0.8   c1.4-1.6,2.3-3.7,4.2-4.9l0.1,0.1c0,0.2,0,0.5,0.1,0.7c-0.1,0.2-0.2,0.4-0.1,0.7c-0.3,0.1-0.8,0-0.3,0.5c0.4-0.8,1.2-1.2,1.7-1.9   c0,0,0,0,0,0c0.2-0.2,0.5-0.5,0.7-0.7c0,0.1,0.5,0,0.7,0c1.5,1.8,3.9-0.9,5.6-1.4c0,0.4,0.1,0.9,0.1,1.3   C528.8,31.5,527.7,32.8,526.3,33.6z" />
	<path fill="#81705E" d="M530.5,31.4c0-0.4-0.1-0.9-0.1-1.3c2.1-1.1,4.2-2.3,6.4-3.4c0.2,0.2,0.5,0.4,0.7,0.7   C535.2,28.5,533,30.8,530.5,31.4z" />
	<path fill="#4E3C32" d="M530.4,35.6c-0.3-0.2-0.5-0.5-0.8-0.7c1.5-0.7,2.5-1.8,4.3-1.9C532.8,34.3,531.6,35,530.4,35.6z" />
	<path fill="#B0A086" d="M531.1,31.4c0.3-0.2,0.5-0.4,0.8-0.6C531.6,31.1,531.4,31.2,531.1,31.4z" />
	<path fill="#EEDCBC" d="M545.9,39.9c3.3-3.3,7-5.8,9.5-9.9c4.4,2.5-6.1,8.9-8.1,11.3C546.8,40.9,546.4,40.4,545.9,39.9z" />
	<path fill="#F3DEBE" d="M550.2,43.5c-0.8-0.3-1.6-0.6-2.4-0.8c2.2-1.5,8.1-9.4,10-8.6C555.9,37.7,553.1,40.6,550.2,43.5z" />
	<path fill="#4F453A" d="M550.2,43.5c1.6-1.7,3.2-3.3,4.8-5c0.2,0.2,0.4,0.4,0.7,0.7c-0.3,1.5-3.3,2.9-2.1,4.2   c-0.8,1.1-3.6,2.1-2.8,3.5c-0.5,0.4-1,0.9-1.5,1.3c-0.7,0-1.4,0.1-2.1,0.1c0.5-0.9,2.2-1.8,1.4-2.9   C549.2,44.8,549.7,44.2,550.2,43.5z" />
	<path fill="#31201B" d="M548.6,45.5c0.8,2.1-2.7,3.7-4.1,5c-1.1-0.4-0.1-0.9-0.1-1.4C545.8,47.9,547.2,46.7,548.6,45.5z" />
	<path fill="#948470" d="M551.5,39.2c-1.2,1.1-2.4,2.3-3.6,3.5c-0.4,0-0.9,0-1.3,0c0,0,0,0,0,0c0.8-1.9,2.7-2.9,4.2-4.2   C551,38.7,551.2,39,551.5,39.2z" />
	<path fill="#A8967D" d="M544.6,47.6c-0.3,0-0.6,0-0.8,0c0.9-0.7,1.4-2.6,2.6-2.4C546.4,46.4,545.5,47,544.6,47.6z" />
	<path fill="#948470" d="M546.6,42.7c-0.1,0.2-0.2,0.3-0.3,0.5C545.8,42.7,546.3,42.8,546.6,42.7C546.5,42.7,546.6,42.7,546.6,42.7z   " />
	<path fill="#B7AA8E" d="M544.6,50.4c0.9-0.7,1.8-1.4,2.7-2.1c0.7,0,1.4-0.1,2.1-0.1c-1.6,1.3-3.6,2.4-5.1,4.1   c-0.4-0.2-0.8-0.4-1.2-0.6c0,0,0,0,0,0C543.6,51.4,544.1,50.9,544.6,50.4z" />
	<path fill="#B7AA8E" d="M540.3,54.6c-0.7,0.2-1.4,0.4-2.1,0.6c1-2,2.7-3.1,4.9-3.5c0,0,0,0,0,0C542.2,52.8,541.4,53.9,540.3,54.6z" />
	<path fill="#998972" d="M517.7,37c0.3,0.3,0.5,0.6,0.8,0.8c-1.2,0.7-2.2,3.6-3.6,2.8C515.9,39.4,516.8,38.2,517.7,37z" />
	<path fill="#584C41" d="M522,32.1c-0.4,0.3-0.8,0.6-1.2,0.9c0-0.4-0.1-0.8-0.1-1.2c0.7-0.8,1.5-1.5,2.2-2.3c0.2,0,0.4-0.1,0.6-0.2   C523,30.2,522.8,31.4,522,32.1z" />
	<path fill="#8C7E6A" d="M567,51.7c0.3-0.1,0.6-0.2,0.9-0.3c0.9,2.6,1.3,5,1.1,7.8c-0.8-0.5-1.5-0.9-2.1-1.2c-0.2-0.7-0.5-1.4-0.7-2   C567.3,54.8,566.8,53.2,567,51.7z" />
	<path fill="#A9987F" d="M566.1,55.4c-0.6-1.2-1.3-2.5-1.9-3.7c1.1-0.7,0.3-1.7,0.5-2.6c-0.2-0.3-0.3-0.5-0.5-0.8c0-0.5,0-1,0-1.6   c0.2-0.2,0.4-0.3,0.5-0.5c1.5,1.3,0,3.5,1.4,4.9C566.2,52.5,566.1,54,566.1,55.4z" />
	<path fill="#E5D1B2" d="M564.7,49.1c-0.1,0.9,0.6,1.9-0.5,2.6c-1.7-2.2-1.4-5-1.4-7.8c0.5,0.1,0.9,0.2,1.3,0.2l-0.1,0   c0.1,1.4,0.2,2.8,0.1,4.2C564.4,48.5,564.5,48.8,564.7,49.1z" />
	<path fill="#D2BC9E" d="M566.1,55.4c0-1.4,0.1-2.9,0.1-4.3c0.2,0,0.4,0,0.7,0c0.2,1.6,0.5,3.6-0.6,4.8   C566.2,55.8,566.1,55.6,566.1,55.4z" />
	<path fill="#CBB79A" d="M544.3,52.3c4.8-4.8,11.3-7.6,15.6-13.1c0.9,0.7,1.1,1.7,1.5,2.7c-3.3,2.9-6,5.2-9.6,7.9   c0.6,0.3,0.9,0.5,1.2,0.6C551.6,52.4,538.3,57.6,544.3,52.3C544.4,52.4,544.3,52.3,544.3,52.3z" />
	<path fill="#E2CEB0" d="M559.9,30.1c0.1-0.3,0.1-0.6,0.2-1.1c0.7,0.4,1.3,0.7,2,1.1c0,0,0,0,0,0c0,0.8-0.4,1.7,0.8,2.1l0,0   c-0.1,0.6-0.2,1.2,0.6,1.5c1.2,3.4,3.5,7.9,1.4,11.2c-0.4-0.7,0.5-1.7-0.7-2.1C562.4,38.6,562.6,33.6,559.9,30.1   C559.9,30.1,559.9,30.1,559.9,30.1z" />
	<path fill="#241E1A" d="M559.9,39.2c-2.5,3.2-5.6,5.7-9.1,7.7c-0.4-2.2,6.6-6.4,8.3-8.6C559.4,38.6,559.6,38.9,559.9,39.2z" />
	<path fill="#D9C7AA" d="M559.1,38.4c-1.1,1-2.3,2-3.4,3c-0.3-0.3-0.5-0.5-0.8-0.8c0.4-1.4,2.8-2.7,1.5-4.1c0.5-0.8,1-1.6,1.5-2.4   c0.2,0.1,0.4,0.1,0.6,0.2C559.1,35.6,560.2,37,559.1,38.4z" />
	<path fill="#726959" d="M558.4,34.3c-2.1-1.6-5,3.7-7,4.9c-0.2-0.2-0.5-0.5-0.7-0.7c2-2.1,4.1-4.3,6.1-6.4   C557.7,32.6,558.1,33.4,558.4,34.3z" />
	<path fill="#F0DABA" d="M551.5,22.4c1-1.6,2.9,0.2,4.5,0.5c0.6,1.7,1.1,3.4,1.7,5.2C555.6,26.2,553.6,24.2,551.5,22.4z" />
	<path fill="#CAB698" d="M559.9,30.1c1.5,1.3,1.7,3.2,2,5.1c-0.3,0.1-0.6,0.2-1,0.3C560.2,33.7,558.8,32.1,559.9,30.1z" />
	<path fill="#7A7161" d="M550.7,29.3c-0.2-0.2-0.5-0.5-0.7-0.7c0.7-1.2,1.5-2.3,2.2-3.5c0.4,0.5,0.9,1,1.3,1.5   C552.2,27.1,551.6,28.4,550.7,29.3z" />
	<path fill="#4A4136" d="M562.8,48.1c0.1,0.5,0.3,1.1,0.4,1.6C562.6,49.3,562.6,48.7,562.8,48.1z" />
	<path fill="#CBB79A" d="M561.8,43.3c-0.2,0.1-0.4,0.1-0.5,0.2c-0.1-0.4-0.1-0.9-0.2-1.3l0.2-0.3C561.5,42.4,561.7,42.8,561.8,43.3z   " />
	<path fill="#C4AF92" d="M564.1,42.7c0.8,0.3,0.7,0.9,0.6,1.6c-0.2,0-0.4-0.1-0.6-0.2l0.1,0C564.1,43.6,564.1,43.2,564.1,42.7z" />
	<path fill="#726959" d="M556.9,31.6c-0.2-0.3-0.3-0.6-0.5-0.9C556.6,31,556.7,31.3,556.9,31.6z" />
	<path fill="#F0DABA" d="M557.6,28c0.4,0.1,0.9,0,0.3,0.6C557.7,28.5,557.6,28.3,557.6,28z" />
	<path fill="#CAB698" d="M551.5,22.4c0.2,0.2,0.5,0.4,0.7,0.6C551.9,22.7,551.7,22.6,551.5,22.4z" />
	<path fill="#403129" d="M543.6,53.1c-0.6,0.4-1.7,1.2-0.5,1.6c-1,1.3-1.8,0.2-2.8-0.1c1.1-0.8,1.9-1.8,2.7-2.9   c0.4,0.2,0.9,0.4,1.3,0.6C544.1,52.6,543.8,52.9,543.6,53.1z" />
	<path fill="#EFDABA" d="M561.1,42.2c0.1,0.4,0.1,0.9,0.2,1.3c-2.1,3-5.4,5-8.4,7c-0.3-0.2-0.6-0.3-1.2-0.6   C555.2,47.2,557.9,44.9,561.1,42.2z" />
	<path fill="#A1937E" d="M566,37.1c0.2-0.1,0.4-0.2,0.7-0.5c0.3,3.5,3.7,8.5,1.6,11.5C567.6,44.5,566.8,40.8,566,37.1z" />
	<path fill="#C4AF92" d="M564.8,44.8c0.8-0.8,0.8-1.9,0.8-3c1.3,3,0.3,6.3,1.3,9.3c-0.2,0-0.4,0-0.7,0c-1.5-1.4,0.1-3.6-1.4-4.9   C564.8,45.7,564.8,45.3,564.8,44.8z" />
	<path fill="#A9987F" d="M566.8,49.7c-1-1.1-0.5-2.4-0.5-3.7C566.9,47.2,567,48.4,566.8,49.7z" />
	<path fill="#CAB698" d="M562.8,32.1c-1.2-0.4-0.7-1.3-0.8-2.1C562.8,30.5,562.7,31.3,562.8,32.1z" />
	<path fill="#CAB698" d="M563.3,33.6c-0.7-0.3-0.7-0.9-0.6-1.5C562.9,32.6,563.1,33.1,563.3,33.6z" />
	<path fill="#332923" d="M553.6,18c-0.5-0.1-1.1-0.3-1.6-0.4C552.6,17.4,553.2,17.3,553.6,18z" />
	<path fill="#B0A086" d="M522,32.1c0.2-0.2,0.4-0.4,0.6-0.7c0.3,0,0.6,0,0.9,0c0,0.2,0,0.5,0,0.7l0,0c-0.5,0-0.9,0-1.4,0   C522.1,32.2,522,32.1,522,32.1z" />
	<path fill="#745D4F" d="M523.4,32.2c0-0.2,0-0.5,0-0.7c0.2,0,0.5,0,0.7,0C523.9,31.7,523.7,31.9,523.4,32.2z" />
	<path fill="#574E43" d="M524.8,31.4c-0.2,0-0.5,0.1-0.7,0.1c0.2-0.2,0.5-0.5,0.7-0.7C524.9,31,524.9,31.2,524.8,31.4z" />
	<path fill="#D3BE9F" d="M547.3,25.8c0.6-1.2,1.1-2.9,2.8-2.8c-0.7,1.4-1.3,2.8-2.8,3.5C547.3,26.3,547.3,26.1,547.3,25.8z" />
	<path fill="#D3BE9F" d="M546.6,28c0.2-0.3,0.4-0.5,0.6-0.8C547,27.5,546.8,27.7,546.6,28z" />
	<path fill="#A58975" d="M540.2,29.3c0.6-1,1.3-1.8,2.8-2.1C542.4,28.7,541.6,29.6,540.2,29.3z" />
	<path fill="#745D4F" d="M522.1,32.2c0.5,0,0.9,0,1.4,0c-0.2,0.2-0.4,0.5-0.7,0.7c-0.2,0-0.4,0-0.6,0   C522.1,32.7,522.1,32.5,522.1,32.2z" />
	<path fill="#584C40" d="M522,33.6c-0.1,0.2-0.2,0.4-0.3,0.5C521.3,33.6,521.8,33.7,522,33.6C522,33.6,522,33.6,522,33.6z" />
	<path fill="#584C40" d="M522.1,32.9c0.2,0,0.4,0,0.6,0c-0.3,0.2-0.5,0.5-0.8,0.7c0,0,0,0,0,0C522,33.4,522,33.1,522.1,32.9z" />
	<path fill="#988370" d="M556.4,36.5c1.1,1.1-0.2,1.8-0.7,2.7c-0.2-0.2-0.4-0.4-0.7-0.7C555.5,37.9,556,37.2,556.4,36.5z" />
	<path fill="#B19C86" d="M554.9,40.5c0.3,0.3,0.5,0.5,0.8,0.8c-0.7,0.7-1.4,1.4-2.2,2.1C552.4,42.5,554.5,41.5,554.9,40.5z" />
	<path fill="#1C1714" d="M564.8,44.8c0,0.5,0,0.9,0,1.4c-0.2,0.2-0.4,0.3-0.5,0.5c-0.1-0.9-0.1-1.8-0.2-2.6c0.2,0.1,0.4,0.2,0.6,0.2   C564.6,44.5,564.6,44.6,564.8,44.8z" />
	<path fill="#C4AF92" d="M564.7,49.1c-0.2-0.3-0.3-0.5-0.5-0.8C564.4,48.5,564.5,48.8,564.7,49.1z" />
	<path fill="#B7AA8E" d="M543.6,53.1c0.3-0.2,0.5-0.5,0.8-0.7C544.1,52.6,543.8,52.9,543.6,53.1z" />
</g>
</svg>