<?xml version='1.0' encoding='utf-8'?>
<svg xmlns="http://www.w3.org/2000/svg" version="1.2" baseProfile="tiny" id="Layer_2_00000065782098132636069360000006578518599634145196_" x="0px" y="0px" viewBox="0 0 900 600" overflow="visible" xml:space="preserve">
<g>
	<path d="M507.7,330.5c-7.3-6.2-9.6-15.9-17.3-21.6c-12.2-11.2-7.1-12.3-9.3-24.9c1-5.5,6.1-7.5,8.5-11.9c2.9-6.6,9.4-9.7,13.4-15.1   c3.4-7.1,25.2-25,32.8-25.5c3.6-6.7,9.3-13.4,18.2-12.4c0.3,0.3,0.7,0.6,1,1c-12.3,1.8-12.6,5.9-19.9,14.2c-0.6-0.2-1.3-0.4-2-0.6   c-9.4,7.1-20.1,13.1-27.4,22.6c-3.5,6.7-12,9.6-14.6,17.1c8.7,5.1,16.6,12,26.5,14.3c8.5,5,16.8,10.9,24.5,16.9   c8-6,16.3-11.4,25.9-14.6c5.5-3.2,11.5,3.7,14.2,8.2c6.9,12.1,18,20.6,27,30.7c3.4,4.7,5.8,10,10.2,13.9c12-1.6,24-0.7,35.9,0.6   c2-1.8-0.1-5,1.5-7.1c0.1,1.8,0.2,3.5,0.4,5.5c1.5-0.7,1.8-2,2.3-3c-3.3-10.9-1.5-22.6-2.5-33.9c-0.9-12.5,3.5-24.5,4-36.9   c0.9-15-4.8-31.1-0.1-45.6c-1.2-5.8-5.8-9.5-8.8-14.4c-4.8,4.1-5.4,10.9-13.2,11.7c-1.5,10.1-6.8,18.6-12.1,26.9   c-1.7,3.4-1.9,7.7-5,10.1c-2.7-1.4,8.3-20.4,10.3-23.2c3-5,2.9-11.3,6-16.3c2.2,0,9-3.6,7.9-5.9l0,0c11.4-13.2,25.3-24.5,34.4-39.5   c4.6-6.6,12.8-11.5,12.5-20.3c-5.2-3.2-4.2-11.4-9.4-15c-14.1-14.3-12.9-22.2-33.1-31.4c0.5-0.9,1.5-0.3,2.2-0.6   c16.7,4.8,17.6,13.5,27.2,24.7c10.3,7.4,8.3,13.4,15.6,21.5c0.7,10.2-9.2,17.7-15.2,25c-7.5,10.9-15.8,21.8-26.4,30   c1.4,5.7,6.8,8.7,8.8,14.1c0.7,1.6,0.8,3.3-0.1,4.8c-2,7.6-0.1,16-0.8,23.9c0.1,7,1.9,14,1.6,21c0.4,10.9-4,21.4-3.6,32.3   c1.3,14.3-0.7,29.1,3.5,43c0.2,1,0.5,2.6-0.7,3.1c-0.6-1.6-1.3-3.2-2-5.2c-0.7,1.2-1.2,2-1.7,2.7c-5.7,2.2-10.9-0.8-16.4-1   c-5.8,0.2-12.5-0.8-17.8,0.5c1.6,3.1,4.8,4.7,7,7.1c-0.6,10.9,10.4,15.5,17.1,21.9c-0.1,0.5-0.1,0.9-0.3,1.7   c5.2,8,9.5,17.4,15.6,25c10.1,10.9,21.5,20.9,29,33.9c1.1,1.8,2.2,3.7,1.7,6.1c0.6,3.4,2.7,6.6,3.8,10c2,3.8,7.6,1.5,11.1,1.5   c0.1,0.2,0.2,0.4,0.3,0.6c-0.1,0.4-0.2,0.9-0.4,1.4c-3.1,0.5-7.1-1.2-9.5,0.9c0.1,0.7,0.3,1.3,0.4,1.9c-1.5,1.4-2.1,3-4,3.4   c1.3-8-2.2-13.8-5.2-21.2c-63.4,25.3-128.8,46.9-190.9,74.4c-0.2-0.2-0.5-0.6-1.1-1.2c-29,11-58,22.1-87.3,33.3   c-2.3,3.8-7.6,3.7-11.2,5.8c-37.1,10.2-72.9,27.3-109.4,40.2c-0.9,4.2-6.1,2.9-9.3,3.6c-6.3,0.5-3.8,7.8-12.1,3.3   c-0.9-0.5-1.8-1.1-2.1-2.3c-2.6-5.5-8.9-7.2-13.6-10.2c-23.7-14.3-44.3-32.8-66.8-48.7c0-0.3,0-0.5,0-0.8c0.5,0,1,0.1,1.4,0.1l0,0   c0.4,0.4,0.6,0.9,1.2,0.4c-0.1-0.2-0.3-0.3-0.4-0.5c0-0.3,0-0.6,0-0.9c26.5,18.8,50.5,41.2,79.8,56.4c0.9-0.4,1.7-0.8,2.5-1.2   c-1-2,1.4-4.7,3-2.3c-0.5,0.8-1,1.6-1.5,2.4c1.3,1.6,2,2.5,2.6,4.4c2.7-2.2,5.7-2.7,8.9-2.9c0.9,0,2,0.2,2.6-0.8   c-0.8-4.1-0.8-4.1-3.7-6.2c-1,0.1-2,0.2-3.2,0.3c-22-7.9-40.9-23.5-59.5-38.3c0.2-0.8,0.8-0.8,1.4-0.8   c20.7,14.4,40.8,34.1,65.9,36.9c32.7-12.7,66.7-24.3,98.5-38c-38.1-18.7-76.7-37.1-111.1-62.4c-33.1,10-66.2,19.7-99.2,29.9   c0.3,0.8,0.5,1.4,0.7,1.9c-0.2,0.2-0.4,0.5-0.7,0.7c-5.7-3.6-1.9-6.9-9.3-4.2c-0.8-0.2-1.8,0.3-2.3-0.8   c125.2-40.1,252.2-75.9,378.2-116.1c2.3-6.5-1.4-12.8-1.5-19.3c1-0.2,1.8-0.4,2.7-0.7c-5.5-16.9-21.3-28.1-33.5-40.3   c0.3-0.3,0.6-0.6,1-0.9c8.5,6.3,16.1,13.4,24.2,20.3c2.6,8.9,8.8,6.8,11.4,21.5c2.5-0.6,4.6,1,7,2c5.6-2.9,12.1-5.4,13.1-12.8   c-8.6-14.2-19.9-27.8-21.2-45.1c-2.6-8.4-13.7-11.1-18.6-18c0.4-1,0.7-1.9,1-2.8c-9-10.3-23.4-10.6-33.4-19.4   c-0.4-0.3-0.8-0.8-1.2-0.8c-2.1,0-3.1-1.5-4.2-2.8c-8.6,5.9-6.4,12.3-6.5,20.9c2.7,7.6,10,12.2,16,16.8c-0.2,0.7-0.4,1.3-0.6,1.9   c1.8,5.7,6.8,8.8,9.4,13.9C508.2,329.5,507.9,330,507.7,330.5z M322.4,499.9c-0.3-0.2-0.6-0.4-0.9-0.6c-2.4-1.1-4.8-2.4-7.1-3.6   c-0.2,0.1-0.4,0-0.5-0.2c0.6-0.2,1.3-0.7,1.9-0.8c0.4,0.7,0.9,0.9,1.6,0.9c0.3,0.7,0.8,0.7,1.4,0.7c0.2,0.8,0.8,0.7,1.4,0.7   c0.2,0.8,0.8,0.8,1.4,0.7l0,0c0.2,0.8,0.8,0.8,1.4,0.7l0,0c0.4,1.1,1.7,0.5,2.4,1.3h0.3l0.2,0.2c17.5,8.5,33.1,20.6,51.1,28.6   c7,3.2,9.5,8.4,17.9,9.7c12.1,5,42.9-13.3,57.3-17c12.2-4.8,24.6-9.1,36.7-14.2c-36-19.2-73.3-36.4-111-52.4   c-29.2,2.4-58,17.4-87.1,23.6c-1.3-0.5-1.3,1.1-2.2,1.4c-2.1-0.1-2.4-2.5-3.3-3.9c-5-0.5-6.8-0.1-10.1,2.7c0.4,0.9,0.2,2,1.3,2.6   c0.2,0.6,0.7,0.9,1.4,0.8l0,0c9.4,8.6,21.5,14.6,31.9,21.5c0.2-0.6-0.3-1.2,0.5-1.4c2.6,1.7,5.2,3.4,7.8,5.1   c0.3,0.8,0.9,0.8,1.5,0.6c-0.2,0.4-0.3,0.8-0.5,1.2c0.9,0.6,1.7,1.1,2.5,1.7c0.6-0.3,1.2-0.5,1.7-0.8   c16.6,10.7,34.6,18.4,52.1,27.4c6,2.6,11.9,6.8,18.7,6.3c3.7-0.8,5.9,1.4,7.6,4.6c2.5-1.4,5.4-2,6.6-5.2   c-12.5-0.9-21.3-3.5-30.8-11.5c-18.4-8.5-35-19.8-52.3-30c-0.1-0.9-0.8-0.8-1.4-0.8l0,0C323.7,499.9,323,500,322.4,499.9z    M537.1,304.6c-0.2-0.6-0.6-0.8-1.2-0.2c1.4-0.1,4.2,4.5,4.6,1.9C539.1,306.1,538.6,304.6,537.1,304.6z M532.7,301.2   c-0.6-0.3-1.2-1.2-2.2-0.3c1.8,0.7,2.3,2.6,4.5,2.1C534.1,302.2,533.4,301.7,532.7,301.2z M560,377.4c-0.9-0.2-1.8-0.5-2.7,0.2   c3.8,1.2,7.9-1.6,11.2-3.2c0.3-3.5,0.3-3.5-0.4-5.4C566.5,372.9,563.7,375.7,560,377.4z M615.4,378.6c-0.8-0.9-1.5-1.8-2.3-2.6   c-1.6,0.2-3,0.4-4.4,0.6c0.7,1.6,1.4,3.1,2,4.7c15,6.1,31.1,9.1,45.9,15.4c0.5,0.2,1,0.8,1.5-0.1c-0.7-1.1-1.5-2.3-2-3.2   c-7.5-2.6-14.5-5.2-21.6-7.7c-0.6-1.2-1.9-0.3-2.9-0.8c-0.6-1.1-1.9-0.3-2.9-0.7c-0.9-1.1-2.6-0.1-3.7-1.2c-0.5,0-0.9-0.5-1.5-0.7   c-0.2,0-0.4,0-0.5-0.1c0.6-0.2,1.2-0.7,1.9-0.8c0.3,0.3,0.7,0.5,1.1,0.8h0.3c0.8,1.1,1.8,1,2.9,0.7c0.8,1.1,1.8,1,2.9,0.7   c0.7,1.1,1.7,1,2.8,0.8c1,1.4,2.2,0.6,3.6,0.8c4.3,1.1,8.5,2.4,12.5,4.1c0.8,0.3,1.6,1.1,2.6,0.5c-12.2-28.1-21.1-17.1-24.8-37   c-3.4-1.7-5.7-4.9-8.1-8.1c-1.2,0.1-2.4,0.3-3.7,0.4c-4.7-4.6-7.3-10.9-11.1-16.2c-10.8-10-20.8-21.2-28.3-34c-2-1-4-1.9-5.7-2.8   c-11.2,4.1-21.2,9-30.3,16.7c5,3.8,7.5,8.7,8.1,14.9c2.5,14.6,11.6,27.2,20.4,38.8c7.5-2.7,12.8,3.5,16.4,9.5   c2.1,0.6,3.7,2.3,4.7,4.6c2,0.8,3.8,1.5,5.5,2.2c4.3-0.8,8-2.4,11-4.5c2.4,0,4.3,0,6.5,0c0.5,0.7,1.1,1.5,1.7,2.4   C615.8,377.2,616.3,378.1,615.4,378.6z M384.8,450.5c-0.8-1-1.7-1.9-2.6-3c-2.2,1.2-4.8,0.3-6.7,1.6c0.4,1.7,2,2.4,2.8,4.4   c25.9,10,51.9,21.3,77,33.2c9.5,5.2,19.5,9.7,28.5,15.8c5.2,3.7,11.2,3.6,17.3,4.2c1.3,1,2.8,2.3,5,1.6c0.6-1.7,1.4-2.3,3.1-3.4   c-19.7,0.5-36.3-14.4-53.9-22.3c-18.8-9.6-38.6-17.2-57.5-26.5c0.2-0.8,1-0.6,1.6-0.8c34.9,12.2,66.3,32.3,100.3,46.3   c6.3,1,12.2-3.8,18.2-5.3c19.2-7.8,39.3-14,58-22.6c-37-14.3-72.4-31.9-109.7-45.6c-8-2.2-16.2,3.7-24.1,5   C423.1,438.8,403.4,445,384.8,450.5z M485.4,429.5c0.5-1,1.5-0.4,2.2-0.6c31.7,11.5,63.7,23.2,94.2,37.6   c11.4,6.2,58.4-18.1,74.3-22.8c-29.7-6.8-56.7-20.6-85.8-29.6c-4.2,9.8-8.5,7.6-15.9,13.6c-7.4,5.4-29.2,8.3-26.2-5.9   c6.3-2.9,9.2-10.6,11.4-16.8c-21.8,4.2-43.6,12.6-65.1,18.8c0,0.4,0,0.6,0,0.9c-0.3,0.3-0.6,0.6-0.9,0.9c-2.9-0.2-4.7-1.9-5.9-4.5   c-1.9,0.6-3.6,1.1-5.3,1.7c0.3,1.1,0.5,2.2,0.7,3.1c39.1,13.6,76.7,31,114.8,47.1c3.3-1.5,4.7-1.6,8.2-0.6c0.5,0.9,1.1,2,1.6,2.9   c6.2-1.3,7.3-2,8-5c-4.7-2.8-10.2,1.6-14.8-1.8C550.2,453.3,517,443.1,485.4,429.5z M542.1,413.1c-0.8,0-1.6,0-2.7,0   c-2.5,4.3-4.3,9.2-9.4,10.8c0.4,8.7,13.2,5.9,18.8,3.7c5.1-1.4,8.5-6.1,13.7-7.6c4.3-2.1,8.2-9.8,10.1-14.2   c6.1-2.6,12.5-4.8,17.7-8.3c2.4-5.5,5-10.2,6.9-15.5c-5.3-1.9-7.3-2.6-10.6-6.9c-4-1.4-3.7-6.4-7.1-8.6c-2-1.2-4.6-4.9-7.3-2.3   c-0.2,3.9-0.4,7.5-0.6,11.4c-4.6,2.9-8.9,3.6-14.2,5.1c-3.4-1.1-8-2.9-11.3-4.8c-0.4,0.5-0.7,0.8-1.1,1.2c1.2,2.9-0.8,6.1,1.1,9.1   c3.3,1.6,9.1,1,11,4.4c-3.1,2.7-7-1.3-10.4-1.4c0,1.1,0,2.1,0,3.3c2.2,0.5,10.2-0.3,7.1,3.6c-2.6,1.5-5.2-1.2-7.7-0.4   c-0.1,0.8-0.1,1.7-0.2,2.8c2.1,1.3,6.8,1,5.6,4.4c-2.4,1.3-4.6-0.5-7-1c-0.4,0.9-0.7,1.6-1.1,2.4c1.5,1.2,5.7,1,5,3.6   c-1.4,2.6-3.9-0.6-5.9-0.4c-0.3,0.7-0.6,1.4-0.9,2.1c0.6,0.6,1.1,1,1.7,1.6C542.7,411.9,542.4,412.5,542.1,413.1z M663.8,438   c8.5,1.5,16.3-3.9,24.3-6.4c-22.1-36-43.3-35.6-79-49.4c-3.5,2.9-8,2.7-11.9,4.7c-3.7,12-9.6,15.8-21,20.1c3.8,4.6,11,5.3,16.4,7.6   c23.7,7.7,46.9,16.3,70.9,23.3l0.1,0.2L663.8,438z M674.7,442c-1.1-4.9-7.7-0.3-10.9-2.4c-30.6-7.5-60.8-18.3-89.7-30.8   c-1.2,1.2-2.2,2.3-2.5,4c14.7,4.5,29,9,43.1,14.8c9.5,3.5,18.4,9,28.6,10c6.9,1,13.5,5.1,20.6,3.7c1.6-0.4,3.1,0.5,3.8,1.9   c0.3,0.5,0.1,1.2,1.1,1.4C670.7,443.7,672.9,443.3,674.7,442z M290.4,588.9c144.3-53.3,139.5-58.3-1.1-2.4   C289.6,587.4,290,588.1,290.4,588.9z M411.2,542.2c29.9-9.7,59.2-22.5,88.8-33.5c-8.9-1.3-16.8,4.4-25.1,6.9   c-21.3,8.6-43.9,15.7-64.6,25.1C410.6,541.2,410.9,541.7,411.2,542.2z M583.7,474.3c-24.8,9.1-48.6,18.3-73.2,27.8   c0.6,0.9,1,1.5,1.5,2.3c23.7-9.1,47.2-18,70.7-27C583,476.5,583.3,475.6,583.7,474.3z M598.4,471.5c22.5-8.7,44.8-17,66.9-25.6   c0.3-1.1,0.6-1.9-0.5-2.5c-22.1,8.4-44.3,16.8-66.5,25.3C598,469.9,598.1,469.9,598.4,471.5z M470.4,420c0.5,4.6,16.1-3.2,19.7-3.5   c14.7-4.7,29.5-9,44.3-13.4c1.6-0.5,3.3-0.6,4.1-2.3c-0.4-0.5-0.8-0.8-1.2-1.4C515,406.3,492.5,412.6,470.4,420z M460.6,424.1   c-17,1.7-33.2,9.7-49.8,13.8c-7.8,2.4-15.7,4.7-23.5,7.1c-1.3,0.4-2.7,0.6-3.1,2.2c17-2,34-10.2,51-14.3c7.8-2.2,15.5-4.5,23.2-7   C459.2,425.6,460.3,425.4,460.6,424.1z M372.9,451.5c-2.9-2.4-6.2,0.1-9.3,0.8c-11.1,3.3-22.3,6.6-33.4,10.1   c-14.1,5.2-30.3,7.1-43.3,14.2C315.8,469.9,344.2,459.5,372.9,451.5z M174.7,511c32.8-9.5,65.3-19.7,98-29.4c0-0.5,0-0.9,0-1.7   c-32.1,10-64.3,19.4-96.4,29.3C175.5,509.5,174.7,509.7,174.7,511z M677.3,440.9c3.1-0.4,11.1-3.6,13.1-5.2c-0.3-0.6-0.6-1.2-1-1.8   c-4.2,2.2-8.6,2.6-12.5,5.4C677.1,439.9,677.2,440.4,677.3,440.9z M599,383.7c2.9-0.8,5.4-1.6,7.7-2.3c0.5-0.9,0.9-1.6,1.4-2.5   c-0.7-0.1-1.2-0.4-1.6-0.2c-1.8,1-3.9,0.5-5.8,1.3C598.9,380.6,599,380.7,599,383.7z M541.2,401.2c1-1.3,1.4-2.4,1.6-4   c-1.1,0.7-2,1.3-2.9,1.8C540.4,399.8,540.7,400.4,541.2,401.2z M273.4,594.2c-0.3-0.3-0.6-0.5-0.8-0.7   C272,594,272.9,594.9,273.4,594.2z" />
	<path d="M545,9.6c2.5,0.5,4.9,0.8,7.2,2c-0.1,1.1-0.2,2-0.3,2.7c1.9,2.8,5.8,4.8,5.2,8.6c1,5.8,3.7,11.6,5.2,17.3   c0.8,7.5,3.6,14.3,4.6,21.8c0.5,2.2,2.7,4,4,5.8c-0.3,0.3-0.6,0.6-0.9,0.9c-3.6-2.3-6.2-5.3-7.5-9.5c-0.5,0.4-0.8,0.6-1,0.8   c-0.3,0-0.6,0-0.9,0c0.1-1.2,0.1-2.4,0.2-3.6c1.5-1.5,0.8-6.1,0-8c1.8-2.7-2.7-4.4-4.9-3.3c-0.5,1-1.1,2.2-1.7,3.3   c-0.5-0.2-1-0.4-1.6-0.6c-0.4,0.8-0.8,1.4-0.9,1.6c0.6,2.3-0.2,4.5,1.1,6.3c2.5,9.8-0.5,10.4-3.6,1c-1.5-4-11.5-1.9-18.3-8.6   c-1.9,0.2-3.5,0.4-5.3,0.6c-2.2,2-4.5,3.2-7.6,4.2c-1.7,2.2-3.6,4.7-5.8,6.9c-2.2-1.3,0.1-2.6-0.3-3.9c-0.2-0.2-0.4-0.4-0.7-0.6   c-1.9,1.3-3.8,2.5-5.7,3.8c0.1,3.4,1.7,6.7,1.1,10.1c2.3,1.1,4.6,2.2,6.8,3.2c-1.3,0.8-2.8,0.6-4.3,0.6c-0.8-1.1-2.4-1.3-3.6-1.8   c-1.4-3.7-1.2-7.6-2-11.2c-2-0.3-3.9,1.1-5.9-0.1c-0.2-2.7-1.9-4-4.8-4c-0.1-0.9-0.2-1.6-0.3-2.5c-0.7-0.2-1.4-0.4-2-0.6   c1.5-1.9,5.9,1.2,6.5-1.2c-1.7,0.2-2.9-0.9-4.5-0.7c-2-0.9-3.7-1.5-4.1-4.1c3.5-0.4,8.3,0.5,9.5-4.2c-1.3,1-2.3,1.7-3.3,2.4   c-2-0.6,0.7-3.8,0.7-5.3c-0.5-0.4-1.1-0.9-1.6-1.4c0.5-1.7,2.3-0.8,3.3-1.9c1.6-2.6,2-6.2,4.6-8.2c-0.5-0.6-0.8-1.1-1.2-1.5   c0.6-1.5,2.1-1.4,2.9-1.8c1.9-2.4,3.6-4.6,5.3-6.7c3.9-3.3,8.9-5.1,13.3-7.7c0-0.5-0.1-1-0.1-1.8c2-0.3,4.1,0,6.1-0.3   c0.1-0.5,0.7-1.1,1.2-1.4c2.4,0.5,2.8-2.1,4.6-3.2c1.6,1.2,3.3,2.4,5.1,3.7c0.8-0.9,1.5-2.4,3.3-2.6c0.4,0.5,0.9,1.1,1.4,1.8   c1.1,0.2,2.3,0.3,3.3,0.5c0.2,1.2-0.6,1.3-1.2,1.5c-0.9-0.2-1.5,0.2-2.1,1.1C544.2,9.6,544.6,9.6,545,9.6z M504.8,37.8   c-1.2-0.1-4,1.8-2.9,2.9c1.5-0.7,2.4-1.9,3.2-3.3C504.9,37.5,504.8,37.6,504.8,37.8z M505.7,34.3c2.2-0.1,3-1.4,3.9-2.6   C507,31.3,507,31.3,505.7,34.3z M525.8,43.5c0.7-1.7,1.2-2.4,1-4.2c-1.7,1-2.2,2.3-2.6,3.9C524.8,43.4,525.2,43.4,525.8,43.5z    M551,54.4c-0.9-2.1-1.9-3-3-3.7C545.7,52.1,549.5,53.1,551,54.4z M509.9,36.9c-1.2,0.8-2.1,1.5-2.8,2.8   C509.8,39,510.8,38.9,509.9,36.9z M510.9,28.5c-1.2,0.3-2.1,0.4-2.6,1.5C510.4,30.7,510.5,30.7,510.9,28.5z M506.2,47.3   c2.2,0.6,2.2,0.6,3.1-0.9C508.2,46.5,507,45.9,506.2,47.3z M541.1,18.9c0-0.8,0-1.6,0-2.6C539.7,17.3,539.7,17.3,541.1,18.9z    M524.1,28.6c0.5,0.5,0.8,0.8,1.1,1.1c0.8-0.5,1.3-1,1.7-2.2C525.7,27.9,525,28.2,524.1,28.6z M533.5,14.5   c-1.4-0.5-2.1-1.7-3.4-0.6C530.9,15,531.9,15,533.5,14.5z M544.4,16.5c0.8,0.6,1.5,0.6,2.5,0.1C545.2,15.2,545.1,15.2,544.4,16.5z    M549.6,16.2c-1.5,0.7-0.8,2.2,0.9,2C550.2,17.5,549.9,16.9,549.6,16.2z M510.5,36.3c1.6-0.1,2.1-0.9,2.9-2.1   C511.8,34.4,511.3,35.1,510.5,36.3z M517.2,44.5c0.2,0.1,0.4,0.2,0.6,0.3c0.6-0.7,1.3-1.3,0.9-3C518.1,43,517.6,43.8,517.2,44.5z    M541.8,24.3c-1.2,0.9-0.9,1.4,0.2,1.8C541.9,25.4,541.9,24.8,541.8,24.3z M511.2,43.4c-1.3,0.4-1.5,0.3-1.9,1.2   C510.3,45.2,510.9,45,511.2,43.4z M506.6,42c-0.1-0.2-0.1-0.4-0.2-0.7c-0.5,0.1-1,0.1-1.6,0.2c0.1,0.5,0.2,0.8,0.4,1.3   C505.8,42.5,506.2,42.3,506.6,42z M511.9,25.6c-1.1-0.4-1.3-0.5-1.6-0.6C509.6,26.3,510.6,26.2,511.9,25.6z" />
	<path fill="#020101" d="M555,220.2c-0.3-0.3-0.7-0.6-1-1c0.4-0.2,0.9-0.4,1.3-0.6c1.6-2.2,0.9-4.5,0.4-6.7c3-3.1,5.7-4.7,9.1-5.6   c-0.5-6.8-3.8-13-8.3-18.2c-2.6,1.8-2.6,5.5-5.3,7c-1,5.8-2.2,11.2-8.2,13.4c-0.2,0.7-0.4,1.2-0.5,1.9c-7.9,1.7-19,2.1-16.7,13.6   c-0.3,0.3-0.6,0.7-0.8,1c-1.1-1.8-1.3-4.4-3.5-5.1c0.2-1.3,1.4-0.3,2.1-1c0.4-1.5,0.9-3.1,1.4-4.7c0.7-0.2,1.3-0.7,1.4-1.5   c4.2-3.2,9.7-2.6,14.3-4.6c3.7-2.4,7.3-5.3,7.4-10.1c0.1-2.9,2.6-4.7,4-6.9c0.5-2,1.7-3.6,3.1-5.2c-3.3-5-5.2-10.3-8.6-15.2   c-1.9,6.1-1.6,12-4.8,17.5c-6.6,2.3-9.7,4.6-17.2,4.2c-1,2.1-2.1,3.7-2.4,5.9c0,0.1-0.4,0.1-0.6,0.2c-1.1,0.3-1.1,0.5-0.3,1.3   c0.7,1.4,1,2.8,0.8,4.4c-1.7,0.3-1.5-1.8-2.8-2.2c-2.7,2-3.9,4-5.1,7.1c-1.1-0.6-0.5-1.9-0.7-2.9c4.2-4.9,6.3-10.6,9.9-15.9   c6.6-0.1,11.3-1.2,17.4-4.1c2.2-6,2-13.4,4.1-19.8c-0.6-1.7-1.2-3.5-2-5.6c-17.9-10-19.6-22.1-18.6-40.9   c-10-5.7-13.4-21.5-5.9-30.6c1.4-0.5,2.5,0.8,3.6,1.4c0.3,1.4,0.7,2.8,1,4.2c-0.3,0-0.5,0-0.8,0.1c-1.4-0.9-1.5-2.8-1.8-4   c-0.7-0.3-1,0.3-1.1,0.9c-3.5,8.4-2.9,17.4,4.3,24.5c1.1,0.7,1.2,0.7,1.4-0.5c0.3-0.1,0.7-0.1,1.3-0.2c0.3-5.2-0.5-11.3,3.1-15.5   c0.1,0.8-0.5,1.8,0.7,2.1c0.4,1,0.8,1.9,1.2,2.9c14.3,5.2,17.7-15.1,25.9-22.4c0.3-3,0-5.9,1.5-8.9c0.4,0.6,0.6,0.9,0.8,1.2   c-0.2,2-0.3,4-0.5,6c0.4,0.3,0.8,0.5,1.4,1c0,1.9,0.2,2.8-0.4,5.1c-0.5-1.5-0.7-2.3-1-3.4c-4.1,5.2-8.4,10.4-10.4,16.8   c2.5,2.1,6.8,2.9,6.5,6.7l0.1-0.1c-2.4-2.4-5.9-2.9-8.8-4.6c-4.3,4.7-11.5,7.4-16.8,3.7c-2.2,17-6.1,39.7,10.9,50.4   c1.8,1.6,8.2,3,7.6,5.6c-0.6,0.2-1.2,0.4-1.9,0.7c2.2,6,6.2,11.2,8.5,17c1.7,7,9.6,11.8,11.1,18.8c-1.7,4.4,6.3,10.4,3.1,13.4   c-0.2-0.2-0.4-0.4-0.7-0.6c-0.4-2.2-3.4-3.1-5-1.6l0,0c-1.6,0.8-3.5,0.9-4.5,2.3c0.1,2.2,0.3,4.2,0.4,6.3   c6.4,6.1,12.8,13.2,21.7,15.4c2.8,0.2,1.6,4.1-0.9,3.2c-9.1-2.9-15.9-10.7-21.9-17.7C556.6,219.7,555.8,219.9,555,220.2z" />
	<path fill="#010101" d="M662.6,347.8c0.9-0.3,0.8-1,0.9-1.7c0.7,1.3,1.2,2.7,2,3.9l0,0c7,8.9,18.5,13,25.9,21.5   c8.5,8.5,12,21.3,13.9,33c9,2.5,17.4,7.1,26.5,8.2c4-0.3,9.5,0.2,13.3,2.7c2.8,8.3-33.7,9.9-28.7,17.8c2.4,6.5,3.6,13.4,5.3,20.1   c0.3,1.6,0.3,1.6,2.2,1.5c2.7,2.6,0.8,8.1-1.2,10.9c-3.1-0.6-6.2,0.3-9.1-0.6c-4-10.1-1.3-11.6-13.5-10c2.4-2.1,6.4-0.4,9.5-0.9   c0.2-0.6,0.3-1,0.4-1.4c0.2,0,0.5,0,0.7,0c-0.1,1.4,1.4,1.8,1.8,2.9c0.4,1.1,1,2.1,1.5,3.1c2.5-0.2,4.3-1.5,6.2-3   c-4.8-13.1-7.3-27.4-13.6-40.2c-6.8-12.5-5.6-30-15.8-40.4C682.9,364.4,667.8,360.5,662.6,347.8z M715,415.2   c0.3-0.3,0.6-0.5,0.9-0.8c5,1.1,10.2,4.2,14.8,0.3c-0.8-0.8-1.8-0.9-2.8-0.8c-2.4,0.4-4.2-1.3-6.4-1.9c-4.5-1.7-8.9-3.3-13.4-5   c-0.5-0.2-1-0.6-1.8,0.1c0.4,1,0.8,2,1.1,2.7c1.1,0.8,1.9,1.3,2.7,1.9c-2.7,2.7,1.1,7.4,2.2,10.7c3.7-1.6,6.8-2.1,10.4-4.2   C719.8,417.1,717.4,416.1,715,415.2z M714.2,427.3c5.2-3,19-4.2,19.2-10.5c-0.8,0-1.4,0-2.1,0c-4.2,4.9-12.2,5-17.9,8.2   C713.7,425.8,713.9,426.4,714.2,427.3z M743.2,416.4c-3.4-0.8-5.4-2.2-8.3-1.6c0.2,1.9,0.4,3.5,0.6,5.2   C737.9,419.2,740.4,418.5,743.2,416.4z M722.2,457.7c-2.7,2-4.2,2.7-7.2,3.6c0.2,0.6,0.3,1.2,0.5,1.8c2.1,0,4,0,5.7,0   C722.5,461.5,722.3,459.8,722.2,457.7z" />
	<path fill="#040303" d="M642.4,99.5c0.1,0.2,0.3,0.4,0.4,0.6c-4.8,0-7.1-6.8-10.6-9.6c-6.2-6.8-17.4-11.8-26.4-8.6   c-2.2-0.1-4-0.7-5.6-1.8c-0.5-0.3-1-0.7-1.6-0.1c-18.5-8.3-19,52.5-32.3,60.5c-14.6,9.3-35.1-10.6-30.8-26   c0.8,11,7.5,22.6,18.8,25.1c-0.1-4.6,0.6-8.8,2.2-12.8c1.9,4.1-0.9,9,0.2,13.4c17.2,1.9,16.9-22.4,21.1-34.1   c-0.2-0.5-0.4-1.1-0.5-1.6c5.8-8.6,6.5-21,15.6-27.5c-5.9-3.3-12-5.1-18.5-6.4c0.3-0.2,0.6-0.5,0.9-0.7c7,0.7,20.1,3,24.9,8.1   c0.9,1.5,2.7,1.3,4.1,1.8C619.8,74.8,636.6,85,642.4,99.5z" />
	<path fill="#030303" d="M722.3,451.1c2.1-2.2,8.7,2.2,10.6,4.3c1,2.7-1,6.2,0.9,8.8c2,3.9,1,8.8,4,12.4   c10.6,15.8-12.5,14.6-21.5,20.2c-10.1,17.3-33.3,15.2-49.4,8.2c-1-1.4-0.6-12.1,0.8-13c0,0.7,0.2,1.3,0.9,1.4   c-0.1,3.4-0.7,6.9,0,10.3c16,5.2,37.5,6.9,47-9.9c6.4-4.3,15.2-2.2,21.4-6.6c2.1-3.2-0.5-6.5-1.9-9.3c-3.1-3.9-2.3-8.8-4.2-13.1   c-1.4-2.5-0.2-5.4-0.1-8.1c-2.1-1.9-4.2-4-7.2-3.5c-0.4-0.2-0.9-0.5-1.3-0.7C722.3,452.1,722.3,451.6,722.3,451.1z" />
	<path fill="#030202" d="M668.6,493.6c-0.8-0.2-1-0.7-0.9-1.4c4.8-2,8.9-5.7,13.5-8.4c3-1.1,3.4-4.2,4.8-6.8   c3.4-6.1,7.3-12,10.3-18.3c0.1,0.5,0.1,0.9,0.2,1.5c0.5-0.2,0.9-0.3,1.3-0.4c-0.4,0.8-0.7,1.6-1.2,2.5c2.5,1,19,6.3,14.9,9.5   c-3.6-1.3-7.2-2.7-10.9-4.1c-0.5-0.7-1.3-0.9-2.1-0.8l0,0c-1-0.8-2.8-0.7-4.1-1.1c-0.1,0.5-0.2,0.8-0.3,1.2l0,0   c-3.9,2.4,11.8,3.1,14.5,8.8c-3.9,0.4-7.1-1.6-10.9-2.3c-0.6-0.7-1.4-0.8-2.2-0.6c-0.2-0.1-0.4-0.1-0.7-0.1c-1-0.9-2.3-0.8-3.9-1.2   c0.1,0.7,0,1.3,0.1,1.4c4.6,1,9.1,3.3,12.7,6.5c-2.4,3.3-11.1-3.6-15.4-3.1C686.2,484.3,676.3,491,668.6,493.6z" />
	<path fill="#141110" d="M524.9,225.1c0.3-0.3,0.6-0.7,0.8-1c0.5,0.9,1,1.9,1.4,2.7c-1.2,5.4-7.9,1.8-8.7-2.2   c-1.3,1.3-1.7,2.7-2.2,4.1c-1.5,0.3-2.8,1.4-4.6,0.8c-2.1-5.3,1.1-10.9,0.5-16.4c1.1-1.8,0.3-3.8,0.7-5.7c0.2,0,0.4-0.1,0.6-0.2   c0.2,0.7-0.3,1.7,0.7,2.2c0.3,6.7-2.5,12.6-1.8,19.2c0.9-0.3,1.7-0.6,2.5-0.9c0.5-1.5,1.6-2.7,1.7-4.1c-0.8-0.8-1.4-1.4-2.4-2.4   c2-0.5,3.3-0.2,4.6-1.8c0.3,0.2,0.7,0.5,1,0.7c-0.6,2.2,2.6,9.4,5.8,7.3C525.1,226.4,525,225.7,524.9,225.1z" />
	<path fill="#1E1610" d="M187.5,536.4c0,0.3,0,0.5,0,0.8c-8.9-5.4-18.2-10.6-25.2-18.5c0.1-0.4,0.1-0.7,0.2-1.1   c4,3.6,8.3,8.2,13.5,10.2l0,0c0.4,1,1.1,1.5,2.2,1.5l0,0c0.3,0.9,0.9,1.4,2.3,1.2c-0.7-0.6-1.1-1-1.5-1.3c0.2-0.2,0.5-0.4,0.7-0.7   c3.3,2.2,6.7,4.7,10,7c0,0.3,0,0.6,0,0.9c-0.3,0-0.5,0.1-0.8,0.1l0,0c-0.5-1.3-1.4-2.1-2.9-2.2c-0.2-0.7-0.8-0.7-1.4-0.7   c-0.3-0.8-0.7-1.4-1.9-1.2c0.4,1,1.1,1.2,1.9,1.2c0.2,0.7,0.8,0.7,1.4,0.7C186.5,535.1,187,535.8,187.5,536.4z" />
	<path fill="#222221" d="M519.2,89.4c-0.5,0-1,0.2-1.5,0.1c-0.5-0.9-0.7-2-1.4-2.8c0-0.7,0-1.4,0-2c-2.8-3.7-6.8-6.9-7.2-11.8   c1.5,0,3,0.2,4.3-0.6C518,73.8,516.9,85.9,519.2,89.4z M515.5,80c-0.4-1.5-0.8-2.7-1.1-3.8c-1-0.3-1.8-0.7-2.7,0.1   C512.7,77.6,513.7,78.9,515.5,80z M512.2,73.9c0.7,0.8,1.1,0.9,2.2,1.1C513.6,73.6,513.6,73.6,512.2,73.9z" />
	<path fill="#090604" d="M162.5,517.7c-0.1,0.4-0.1,0.7-0.2,1.1c-3.8,0.4-6.6,0.4-5.7-4.3c2.4-2.6,5.6-3,8.6-3.8   c0.5,1.1,1.5,0.6,2.3,0.8c-1.6,0.6-3.3,1.1-5.3,1.8C163.5,514.8,163.4,516.3,162.5,517.7z" />
	<path fill="#312725" d="M641.7,100.3c0.4-0.1,0.8-0.1,1.1-0.2c2.4,2.8,6.6,2.9,9.8,4.4c-0.7,0.3-1.7-0.3-2.2,0.6   c-1.2-0.4-2.4-0.8-3.6-1.1c-0.6,0.2-1.3,0.5-1.8,0.7C643.6,103.3,642.4,102,641.7,100.3z" />
	<path fill="#231B1A" d="M507.7,330.5c0.2-0.5,0.5-1,0.7-1.6c1.2,1.4,2.4,2.9,3.7,4.3c-0.3,0.3-0.6,0.6-1,0.9   C509.6,333.3,508.4,332.2,507.7,330.5z" />
	<path fill="#332D2A" d="M575.3,69.9c-0.3,0.2-0.6,0.5-0.9,0.7c-1.5-0.4-3.7-0.2-4.5-1.9c0.3-0.3,0.6-0.6,0.9-0.9   C572.3,68.5,573.8,69.2,575.3,69.9z" />
	<path fill="#574949" d="M492.6,52.1c-0.7,0.4-1.7-0.3-2.2,0.6c-1.1-0.1-1.9-0.4-2.3-1.7c1.7-0.8,2.9,0.8,4.4,0.5   C492.5,51.7,492.6,51.9,492.6,52.1z" />
	<path fill="#C2E1E0" d="M492.6,52.1c-0.2-0.4-0.1-0.9-0.1-1.4c1.6-0.2,2.8,1,4.5,0.7C496.3,53.5,494.2,51.8,492.6,52.1z" />
	<path fill="#2B3131" d="M494.7,44.9c1-0.7,1.9-1.4,3.3-2.4c-0.4,2-1.5,2.6-2.7,3.1C495.1,45.4,494.9,45.1,494.7,44.9z" />
	<path fill="#493434" d="M529.3,6.8c-0.3,0.3-0.6,0.6-0.9,0.9c-0.9-0.3-1.6-0.9-1.6-2C527.9,5.2,528.6,6.1,529.3,6.8z" />
	<path fill="#AEA3A2" d="M722.3,451.1c0,0.5,0,0.9,0.1,1.4c-0.2,0.2-0.5,0.4-0.7,0.6c-0.2-0.9-0.5-1.9-0.7-2.8   C721.3,450.6,721.8,450.9,722.3,451.1z" />
	<path fill="#D6B6A8" d="M512.6,209.3c0.1,1.3,0.2,2.5-0.5,3.7C511.9,211.7,511.5,210.4,512.6,209.3z" />
	<path fill="#919D9D" d="M545,9.6c-0.4,0-0.8,0-1.4,0c0.6-0.9,1.2-1.4,2.1-1.1C545.5,8.9,545.3,9.2,545,9.6z" />
	<path fill="#FBDFD3" d="M668.4,352.9c-0.4-0.3-0.9-0.6-1.3-0.9C667.7,352,668.2,352.1,668.4,352.9z" />
	<path fill="#D6B6A8" d="M513.3,207.1c-0.2,0.1-0.4,0.1-0.6,0.2c0.2-0.3,0.4-0.6,0.6-0.9C513.3,206.6,513.4,206.9,513.3,207.1z" />
	<path fill="#FBDFD3" d="M666.1,350.9c-0.2-0.3-0.5-0.6-0.7-0.9C666,350.1,666.2,350.4,666.1,350.9z" />
	<path fill="#FBDFD3" d="M667,352c-0.2-0.2-0.4-0.4-0.6-0.7C666.6,351.6,666.8,351.8,667,352z" />
	<path fill="#FBDFD3" d="M517.7,89.5c0.2,0,0.4,0,0.6,0c-0.2,0.2-0.4,0.4-0.6,0.6C517.6,89.9,517.6,89.7,517.7,89.5z" />
	<path fill="#FBDFD3" d="M516.2,86.7c0.1,0.2,0.3,0.3,0.4,0.5C516.5,87.1,516.4,86.9,516.2,86.7z" />
	<path fill="#222221" d="M508.4,72.2c0.2,0.2,0.5,0.5,0.7,0.7C508.8,72.7,508.6,72.5,508.4,72.2z" />
	<path fill="#312725" d="M642.4,99.5c-0.2-0.2-0.4-0.5-0.6-0.7C642,99,642.2,99.3,642.4,99.5z" />
	<path fill="#FBDFD3" d="M665.5,350c-0.2-0.3-0.3-0.5-0.5-0.8C665.1,349.5,665.3,349.8,665.5,350z" />
	<path fill="#5876E8" d="M570.2,232.2c3.1,1.5,9.6,7.9,12,3.3c-0.2-1.1-1-1.4-1.8-1.6c-7.2-1.9-13.3-7-18.4-12.3   c0.3-1.3-0.4-3.2,1-3.9c1.3,0.3,2.7,0.7,3.5,0.9c5.6,10.2,18.3,14.1,29.2,13.9c0,5-5.8,7.9-6.4,13c0.6,0.9,1.1,1.6,1.6,2.4   c-0.1,0.3-0.2,0.7-0.3,1.2c-1.4,0.2-2.8,0.3-4.2,0.5c-0.4,0.5-0.8,0.9-1.1,1.3c-3.6-0.4-4.1,0.3-4.4,3.9c0.4,0.6,0.8,1.4,1.2,2.1   c4,1.2,7.5,3.1,11.8,2c-0.1,0,0.1,0.1,0.2,0.1c-0.2-0.1-0.3-0.2-0.2-0.1c-0.6-3.5-3.6-4.5-6-6.5c3.5-0.8,6.7-4.6,9.9-2.2   c-5.7,7.7,2.1,16.4,6.6,6.4c1.7,5.5,0.4,12.6,9.1,7.6c0.5-1,0.9-1.8,1.3-2.6c1.8,0.5,3.3,1,4.9,0.3c0.7-1.9,1.4-3.6,2.1-5.3   c3.2-2.4,3.4-6.7,5-10.1c5.2-8.1,10.7-16.8,12.1-26.9c7.8-0.8,8.3-7.6,13.2-11.7c3,4.9,7.6,8.6,8.8,14.4c-4.8,14.5,1,30.7,0.1,45.6   c-0.5,12.4-5,24.4-4,36.9c1,11.3-0.8,23,2.5,33.9c-0.5,1-0.8,2.3-2.3,3c0.7-9.7-4.3-19.2-2.6-28.5c-0.1-0.7-0.7-0.8-1.2-0.9l0,0   c0-1.5,0-3-0.4-4.4c-0.1,0-0.3,0-0.4,0c0,1.5,0,3,0,4.5c-4.1,2.5-9.3,2.4-13,5.5c4.5,0.5,8.5-3.1,12.9-3.4l0,0   c0.9,9.6,3.6,19,2.8,28.6c-9-0.8-18-1.9-27.2-1.4c-2.4-11.3-12.3-17.7-18.7-26.6l0,0c5.1,1.5,9,7.7,14.8,6.2   c-5.1-16.7-39.1-28.6-50.4-41.1c0.5,2.3,2.8,3.6,4.1,5.5c-4.9,0.3-1.6,2.2-3.1,4.4c-8.1-4.6-25.6,9.3-32.9,14.1   c-7.8-6-16-11.8-24.5-16.9c-8.2-1.9-15.3-6.9-22.1-11.8c2.1-4.7,7.3-8,10.5-12.3c6.2-6.2,14.4-24.3,24.7-19.2l0,0   c0.3,0.2,0.5,0.5,0.8,0.7l0,0c0.3,0.2,0.5,0.5,0.8,0.7l0,0c8.5,4.3,16.9,10.3,25.1,15.8l0,0c0.5,1,1.4,1.1,2.3,1.4   c0.6-0.4,1.2-0.8,1.6-1c1.2,0.1,1.9,1.4,3.1,0.7c-6.6-8.3-19.4-15.5-29.4-18.9c-0.2,0-0.4-0.1-0.5-0.2c-0.3-0.7-0.9-0.7-1.5-0.6   l0,0c4-2.3,6.8-6.4,10.8-8.6c5.1,2.9,14.6,12.5,19.4,12.4c-0.3-0.8-1.1-2,0-2.4c3.8,2.6,7,5.9,10.1,9.3c-4.7,4.6-5.4,10.9-5.9,17.2   c-2.6,0.2-5.2,0-7.2-2c-5.2-0.4-9.5-3.6-14.2-5.1c-0.6-0.9-0.8-0.9-1.4,0c-8.6-1.7-16.5-6.9-25.3-6.9c12.4,3.6,23.4,7.6,35.3,12.1   c-0.6,0.3-1.2,0.6-1.8,1c4.4,4.1,10.3,3.4,15.1,6.2c2.4-7.4,0.2-15.6,6.2-21.7c0.6,0.4,1.2,0.9,2,1.4c-4.1-9.7-19.5-18.5-28.6-24.2   c-0.1-0.4-0.3-0.9-0.5-1.5c0.5-0.3,1-0.5,1.4-0.8c5.1,3.4,8.6,9,15,9.5c-1-2.8-2.8-4.7-5-6.7c-0.4-2.3-2.3-2.9-3.8-4.9   c1.1,0,1.7,0,2.3,0C559.3,231.5,565.2,235.8,570.2,232.2z M561.5,287.5c-0.4,0.3-0.9,0.5-1.4,0.9c1.9,1.3,1.8-0.3,3.9-0.9   C562.6,287.5,562,287.5,561.5,287.5z M516.9,279.2c-6.1-0.1-12.1-3-17.9-3.2c9.7,4.6,21,4.2,31.5,5.3c-7.5,1.7-16.2,0.4-23.9-0.6   c12.7,5.8,28.8,0.3,41.9,2.6c-0.2,0.4-0.4,0.8-0.7,1.2c3.3-1,6.5-4.6,9-7.2c-2.6,0.2-4,2.6-6.1,3.9   C539.6,280.2,528.2,280.4,516.9,279.2z M556.4,250.2c-2.5-1.5-7.7-8.7-9.8-8.2c0.8,2.7,2.7,2.8,9,8.9c2.5,2.6,3.7,3.4,6.6,4.5   C560.7,253,558.3,251.9,556.4,250.2z M578.7,267.4c0,1.3,0,2.5,0,3.9c12.4,7,26,12.5,40.1,13.7c-0.9-1.6-2.2-1-3.3-1.2   c-2.8-1.2-5.9-1.8-8.8-2.8c-6.7-7.2-16-12-24.9-15.9C580.6,265.9,579.2,266,578.7,267.4z M649.9,290.3c0.2-8.7,5.4-17,4.8-25.8   c0.4-4.7-0.4-9.5,0.7-14.1c-1.8-3.6,1.4-6.6-0.4-10.3c-1.4-6.2-4.1-13.4-7.7-18.4c-1.2,1.5,0.9,2.9,0.2,4.4   c-5.7,1.1-7.3,1.9-8.9,4.6c3.7-0.2,6.2-3.2,10-3.4c3.5,6.5,6.8,13,5.6,20.5c-0.5,0.1-0.9,0.1-1.4,0.2c-1.4-1.1-2.9-0.9-4.4-0.4   c-5.7,2.2-11.3,0.8-17.1,0.6c0.7,3.6,8.3,3,11.3,3c3.7,0,8-3.6,11.1-0.4c-0.1,8.7,0.6,17.4-2.1,25.8c-1.3,4.4-2.4,8.9-2.2,13.6   c-3.6,1.8-8.4,2-11.4,4.4c3.9,0.4,14-2.9,19.2-6.5C654.1,288.3,652.1,289.7,649.9,290.3z M651,240.8c-6.8-7-28,3.9-19,5.7   C638,242.5,643.5,241.2,651,240.8z M582.8,262.3c1.4,3.2,6.7,3.1,9.8,2.4C589.5,264,586.5,263.3,582.8,262.3z M577.1,239.5   c-1.5,2-1.5,4-1.7,6C576.4,243.8,577.5,242,577.1,239.5z M537.3,289.8c-1.1,0.4-2.2,0.9-2.4,2.6C536.3,291.8,537,291,537.3,289.8z    M585.9,236.7c1.1,1.5,1.8,0.9,3-0.3C587.6,236.6,586.7,236.6,585.9,236.7z M644.7,278.2c0.9,1.3,1.4,2.2,2.9,2   C647,279,646.3,278.5,644.7,278.2z M568.2,279.1c-0.6,1.2-0.3,2,0.8,2.6C569.6,280.5,569.4,279.7,568.2,279.1z M649.4,219.3   c-1,0.2-0.6,0.5-0.4,1.2C649.9,220.3,649.8,219.9,649.4,219.3z" />
	<path fill="#FBDFD3" d="M641.7,100.3c0.7,1.7,1.9,2.9,3.3,4.3c0.6-0.2,1.2-0.4,1.8-0.7c22.2,7.6,22.3,17.9,36.7,32.6   c5.1,3.6,4.2,11.8,9.4,15c0.3,8.8-7.9,13.8-12.5,20.3c-9.1,15-23,26.3-34.4,39.5l0,0c-0.2,0-0.5,0.1-0.7,0.1   c0.3-1.2,1.6-2.5-0.3-3.8c-1.8,1-3.3,2.4-4.9,3.8c0.8,2.6,3.7,0.8,5.3-0.1c0,0.7-0.1,1.4-0.1,2.1c-2.2,1.6-4.2,3.6-7.2,3.7   c-3.1,5-3.1,11.2-6,16.3c-5.8,8.2-8.9,17.8-13.5,26.7c-1.9,0.7-2.6-0.6-3.6-2c3.7-5.5,8.4-12.7,7.5-19.4c-2.3,2.3-2.5,6.3-3.8,9.3   c-2.3,5.1-6.1,8.9-6.4,14.9c-1,0.4-2,0.8-2.8,1.2c-7.1-2.5,5.4-23.6,7.2-28.6c-4.7-0.7-5.2,8.5-6.5,11.8c-7.7,3.7-6.6,11-10.3,12   c-7.9-6.5,8.1-14.2,6.2-21.9c1.5-3.5,4.9-7.1,3.5-10.4c-2.5,2.6-3.3,5.5-3.9,8.5c-7.3,4.3-6.8,10.6-11.2,12.6   c-6.4-3.9,3.1-11.5,4.5-16.4c5.1-5.3,4.7-14.2,13-15.8c-1.6-0.1-2.6-0.2-3.7-0.3c-0.7-0.8-1.2,0.4-1.8,0.2   c-6.4-2.7-5.1,5.3-12.8,2.7c-0.7-1-2.1-1.4-1.9-3.1c1.6-1,3.3-2,5-3h0.2l0.2-0.1c0.6,0.5,1.2,0.6,1.8,0c3.3-0.2,5-4.4,8.5-3.6   c19.8,7.3,27.7-9.3,39.1-21.6c4.2-4.3,4.3-10.9,8.1-15.6c2.5-4.1,6.1-7.6,7.4-12.4c2.8-5.3,8.9-9.8,0.7-13.4c0,0-0.5,0.4-0.7,0.5   c0.3,1.4-1.2,1.9-2.1,1c-10.8-4.7-25.9-5-32.2-16.7c6.5-0.6,11.9-2.4,16.5-7.2c-5.1-4-13.7-1.2-20-3c-7.7,0.2-18.1-8.4-23.9-1.2   c-1.1,5.6,11.1,10.9,15.7,11.6c-3.5,4.6-9.3,6.1-10.8,11.9c0.7,1.1,1.5,2.4,2.3,3.7c-14.1,0.5-17.9-35.9-15-46.6   c1.9-1,3.8-2.1,5.6-3.1c0.8,0,1.4-0.3,1.4-1.3c-2.3-0.6-4,1.3-6.3,1.9c0.6-6,3-11.7,5.5-17.1c0.6-0.5,1.1-0.2,1.6,0.1   c1.6,1.1,3.4,1.7,5.6,1.8c9-3.3,20.2,1.7,26.4,8.6C635.5,93.6,637.7,98.2,641.7,100.3z M618.9,220.8c-2.2-0.2-2.2-0.2-2.2,2   c-1.5,0.7-3.5,1.5-3.4,3.4C617.1,227,617.4,223.3,618.9,220.8c1-0.4,1.7-1,1.9-2.1C618.6,217.3,618.9,219.5,618.9,220.8z    M680.7,156.3c1.2-1.4,3.4-2.3,2.8-4.5c0.4,0,0.7,0,1.1,0c1.4-2.3,1.9-6.2-1-7.4c0,2.8-0.1,5.1-0.1,7.5c-0.3-0.1-0.7-0.1-1.1-0.2   c-0.1,1.8-1.9,2.2-2.5,3.7c-1.4,1-5.9,2.2-3.9,4.5C677.8,159.1,679.2,157.7,680.7,156.3z M682.5,164.6c2.8,2.7,7.1-8.5,3.6-8.5   C684.2,158.3,683.8,161.9,682.5,164.6z M650.7,126.5c-1-3.1-2.4-5.7-3.4-8.4c-0.6,0-1.1,0-1.6,0   C644.7,121.8,646.4,126.1,650.7,126.5z M613.3,84c-3-0.7-4.9,0.4-6.7,2.1C607.3,88.2,612.6,85.6,613.3,84z M682.4,164.2   c-2.9,0.6-4.9,3.4-2.8,4.7C681.1,167.9,681.5,166.3,682.4,164.2z M678,169.7c-2.9,0.8-3.3,1.5-2.7,4.3   C676.9,173.1,677.6,171.7,678,169.7z M658.1,132.5c-0.6-1.7-0.9-3.1-2.5-3.6C655.1,130.8,655.3,131.2,658.1,132.5z M603.8,90.9   c-1.6-0.9-1.7-0.9-2.8,1.1C602.4,92.8,603.1,91.9,603.8,90.9z M644.9,207.1c1.3-0.2,2.3-0.5,2.4-1.9c-1.3-0.6-2.3-0.6-3,0.8   C644.5,206.3,644.6,206.6,644.9,207.1z M649.7,201.5c1.6-0.4,2.6-0.6,3-2C650.7,199.2,650.7,199.2,649.7,201.5z M621.6,228.9   c-1.5-1.4-3,1.5-1.7,2.5C621.1,230.8,621.6,230,621.6,228.9z M647.9,202.1c-0.3,0.7-1,1.4,0.3,2.2c0.5-0.5,1-1,1.5-1.6   C649,202,648.8,202.1,647.9,202.1z M674.2,159.6c-1.9-2-3.6,1.4-1.1,1.6C673.4,160.7,673.8,160.2,674.2,159.6z M672.8,175.6   c-2.5,0.2-2.7,0.5-1.6,2.3C671.7,177.2,672.1,176.5,672.8,175.6z M651.9,126.6c-0.5,1.5,0.9,3.1,2.2,2.1   C654.1,127.6,653.4,126.9,651.9,126.6z M622.1,227.9c1.1-0.9,1.7-1.5,0.8-2.6C621.8,225.8,621.5,226.5,622.1,227.9z M625.4,223.7   c-0.7-1.2-1.9-0.3-0.9,0.6C624.7,224.1,624.9,223.9,625.4,223.7z M661.8,133.7c-1-0.4-1.2-0.6-1.9,0.1   C660.6,134.8,660.5,134.5,661.8,133.7z" />
	<path fill="#FBDFD3" d="M662.6,347.8c5.2,12.6,20.4,16.6,28.3,27.2c10.1,10.4,9,27.8,15.8,40.4c5,10.5,8.2,21.6,10.7,32.9   c-0.2,0.2-0.4,0.4-0.6,0.6c-0.7-0.7-1.1-1.7-2.5-1.2c0,2.7,1.5,4.6,3,6.3c1.2,0,1.3-0.7,1.4-1.4c0.2,0,0.5,0,0.7,0   c0.3,1,0.6,2,0.9,3.1c-1.9,1.5-3.7,2.7-6.2,3c-0.5-1.1-1.1-2.1-1.5-3.1c-0.4-1.1-1.9-1.5-1.8-2.9c-0.3-0.2-0.6-0.4-1-0.6   c-1.5,0-3-0.2-4.4-0.3c-6-11.1-9.5-23.5-18-33c-9.9-11.9-23.7-21.7-28.2-37.2c2.9,0.2,4.8,3.9,7,2.4c-0.6-3.8-3.5-6.5-5.7-9.5l0,0   c-0.1-0.4-0.2-0.8-0.3-1.1c2.6-1.5-0.1-6.7-1.1-2.5c0,0.6,0,1.2-1,1.3c-7.7-8.8-8.8-9-20-12.5c-1.6-3.1-2.3-6.4-3.5-9.7   c8.6-6.3,15.3-2.6,24.3-4.4c0.4-0.7,1-1.6,1.7-2.7C661.3,344.6,661.9,346.2,662.6,347.8z M684.3,387.2c0.2,0.3,0.4,0.5,0.5,0.8   c0.6,0.3,1,1.2,2.2,0.8c-3.3-6.8-6.8-13.8-12.7-18.8c-3.7-0.6-4.9,1-4.4,4.5C674.3,378.6,677.9,386.7,684.3,387.2L684.3,387.2z    M662.1,359.1c-0.9,2.6-2.1,5-1.4,8C663.1,366.4,664.6,360.3,662.1,359.1z M652.1,357.7c1.6-4.9,1.5-5.9-0.2-6.8   C651.1,353.2,652,355.5,652.1,357.7z M709.7,434.4c0.7-1.1,0.4-1.9-0.8-2.4C708.4,433.4,708.4,433.4,709.7,434.4z M692.1,398   c0.5,1,0.8,1.5,1.1,2.2C694.2,398.7,694.2,398.7,692.1,398z M688.6,391.6c-0.2,1.1-0.3,1.4,0.7,1.8   C689.9,393,689.4,392.1,688.6,391.6z M712.9,441.1c-0.3,0-0.5,0.1-0.8,0.1C711.6,444.2,714.6,443.7,712.9,441.1z M711.5,439.1   c0.6-0.8,0.6-1-0.2-1.4C710.7,438.3,710.8,438.4,711.5,439.1z M652.5,362.3c0-0.6,0-1,0-2.1C651.7,361.6,651,361.5,652.5,362.3z" />
	<path fill="#FBDFD3" d="M528.6,302.5c19.4,15.5,15.4,8.3,21.3,31.8c4.7,10.7,11.7,20.1,17.7,30.1c-1,4.9-4.6,9.9-9.8,10.7   c-4.7-5.8-7.4-13-11.4-18.9c-5.2-4.7-9.5-10.3-14.5-15.2c-0.5-0.3-0.5-0.7,0-1.1c1.4,0.2,2,1.6,2.8-0.1c0-0.2,0-0.4,0.1-0.6   c2.3-0.4,3.1,3.1,5.7,2.1c2.7-1.1,5.7,1,8.4-0.4c0-0.7,0-1.5,0-2.5c-11.3-10.8-32.5-9.7-39.2-26c4.4-2.6-3.1-2.2-5-3.1   c-0.8-2.7-0.3-6.2-2.7-8.1c-1,0-1.9,0-2.9,0c-0.9,1-1.7,1.9-2.6,2.8c-5.8-2.5-9.7-8.3-9.1-14.7c2.1,1.3,3.3,3.3,6,3   c-0.9-2.2-2.3-2.8-4-4.3c-0.5-1.3-2.1-0.2-3-1.6c0-2.3,0-5,0-7.7c1.1-1.1,2.2-2.1,3.3-3.2c1.1,1.2,2.2,2.8,4.2,2.8   c5.1,4.1,11,6.9,17,9.7c2.9,3.7,7.5,6.3,10.3,9.9c-1.2,1.9-6.1,1.2-4.5,4.4c2.8,0.6,5.6-0.7,8.4-1.2   C526.6,301.5,527.2,302.9,528.6,302.5z M559,362.4c0.9,2.6,2,6.3,4.8,5C562.4,365.6,562.1,363.3,559,362.4z M557.1,359.3   c0,1.6,0.4,2.5,1.9,2.6C559.4,359.7,559.2,359.4,557.1,359.3z M553.8,352.4c-2.1,1.2-0.9,3.8,1.3,2.9   C554.6,354.2,554.3,353.5,553.8,352.4z M512.6,302.3c-0.6-0.6-2.6-0.4-2,0.7C511.4,303,512.2,303.5,512.6,302.3z M502.7,291.5   c0.1,0.7,0.3,1.1,1,0.8C504.5,291.5,503.3,290.7,502.7,291.5z M494.7,291.5c0.3,0.4,0.7,0.5,1.1,0.2   C495.4,291.2,495.2,290.9,494.7,291.5z" />
	<path fill="#E4E4EB" d="M547.9,377.1c8.9,4.8,15.1,3.2,23.5-1.6c0.2-3.8,0.4-7.5,0.6-11.4c2.7-2.6,5.3,1.1,7.3,2.3   c3.5,2.1,3.2,7.1,7.1,8.6c3.3,4.3,5.4,5,10.6,6.9c-2,5.3-4.5,10-6.9,15.5c-5.2,3.5-11.6,5.6-17.7,8.3c-4.3,11.8-9.5,13.6-19.1,19.4   c-4.7,4.5-11.6,1.5-16.5-1.3c0-5.6,3.1-9,6.1-12.7c-0.6-0.6-1.1-1-1.7-1.6c0.3-0.7,0.6-1.5,0.9-2.1c1.9-0.2,4.5,2.9,5.9,0.4   c0.7-2.6-3.5-2.4-5-3.6c0.4-0.8,0.7-1.6,1.1-2.4c2.4,0.5,4.6,2.4,7,1c1.2-3.4-3.5-3.2-5.6-4.4c0.1-1,0.2-1.9,0.2-2.8   c2.5-0.8,5.1,1.9,7.7,0.4c3.2-3.9-4.8-3.1-7.1-3.6c0-1.2,0-2.2,0-3.3c3.4,0,7.4,4.1,10.4,1.4c-1.2-2.9-5.2-2.2-7.7-3.5   c0-2.8,0.2-5.6-1.5-8.1c-0.3-0.5-1.2-0.7-0.9-1.6C547.3,377.3,547.6,377.2,547.9,377.1z" />
	<path fill="#F3BF10" d="M162.5,517.7c1-1.4,1-2.9-0.2-4.4c14.8-5.2,6.3-3,19,6.4c17.7,12.7,36.1,24.4,53.1,38   c14.3,11.7,29.5,21.7,46.3,27.9c1.2-0.1,2.3-0.2,3.2-0.3c2.9,2.1,2.9,2.1,3.7,6.2c-0.6,1-1.7,0.8-2.6,0.8c-3.1,0.2-6.2,0.7-8.9,2.9   c-0.6-1.9-1.3-2.8-2.6-4.4c0.5-0.8,1-1.6,1.5-2.4c-1.6-2.5-4,0.3-3,2.3c-0.8,0.4-1.6,0.8-2.5,1.2c-36.6-19.1-65.7-49.2-100.7-70.5   l0,0c-0.9-1.4-1.9-2.6-3.6-2.9l0,0c-0.6-1-0.8-1-1.5,0l0,0C163.4,518.3,162.9,518,162.5,517.7z M283.3,586.9   c-2.5-0.4-4.2-0.3-5.2,1.7C279.8,588.8,279.9,588.8,283.3,586.9z" />
	<path fill="#EECABA" d="M537.7,340.6c-0.8-0.7-1.4-1.8-2.7-1.4c-1.6-1.7-1.6-1.7-3.7-0.8c0.2,0.5,0.5,1,0.7,1.5   c-0.4,0.4-0.4,0.7,0,1.1c5,4.9,9.3,10.5,14.5,15.2c4,5.9,6.7,13.1,11.4,18.9c-1.1,0.7-2.2,1.4-3.3,2.1c-2.4-1-4.5-2.6-7-2   c-2.6-14.8-8.8-12.5-11.4-21.5c-13.3-12.2-29.2-21.9-37.3-38.5c0.2-0.5,0.4-1.2,0.6-1.9c-6-4.5-13.3-9.1-16-16.8   c0.9-5.7-2.5-13.3,3.2-17.7c0,2.7,0,5.4,0,7.7c0.9,1.4,2.4,0.4,3,1.6c-4.4-0.8-1.1,7-0.7,9.2c1.7,2.8,4.8,5.4,7.7,6.7   c0.8-0.9,1.7-1.8,2.6-2.8c1,0,1.9,0,2.9,0c2.4,1.9,1.8,5.4,2.7,8.1c1.8,0.4,3.4,0.8,5,1.1c0.2,0.5,0.5,0.9,0.7,1.4   c-0.2,0.1-0.4,0.3-0.7,0.6c6.7,16.3,28,15.2,39.2,26c0,1,0,1.8,0,2.5c-2.8,1.4-5.8-0.7-8.4,0.4   C540.9,339.5,538.1,337.9,537.7,340.6z M520.6,333.4c-5.4-4.4-7.9-10.8-10.5-17c-1.2,0-1.2,0.8-1.2,1.5c0.7,7.8,6.1,16.8,14.4,17.7   C522.6,334.4,521.6,333.9,520.6,333.4z M499.7,308.9c-1.5-2-3.3-3.6-5.5-2.2C495.8,308.1,497,309.4,499.7,308.9z M524.8,337.5   c0.9,0.3,1.7,0.7,2.5,1C528.9,335.9,524.5,334,524.8,337.5z" />
	<path fill="#F3BF10" d="M325.3,501.5c17.4,10.1,34,21.4,52.3,30c9.5,8,18.3,10.7,30.8,11.5c-1.2,3.2-4.1,3.7-6.6,5.2   c-1.7-3.3-3.9-5.4-7.6-4.6c-6.8,0.6-12.7-3.6-18.7-6.3c-18.9-9.3-38-18.4-55.8-29.5l0,0c-0.3-0.7-0.9-0.7-1.5-0.6   c-12.2-8.3-23.9-17-36.6-24.6c-1.5-1.1-3.2-2.6-5-1.3c-1.1-0.6-0.8-1.8-1.3-2.6c3.3-2.8,5.1-3.2,10.1-2.7c0.9,1.4,1.2,3.8,3.3,3.9   c7.4,6.8,16,11.7,25.1,15.7c0.1,0.2,0.3,0.2,0.5,0.2c2.4,1.2,4.8,2.5,7.1,3.6C322.7,500.1,324,500.7,325.3,501.5z" />
	<path fill="#EECABA" d="M648.4,345.6c-4.9,0-9.5,1.6-13.8,4.2c1.1,3.3,1.9,6.6,3.5,9.7c11.2,3.5,12.3,3.8,20,12.5   c1.9-0.2,0.3-2.2,1.8-2.7c-0.1,1-0.4,2,0.3,2.9c0.3,0,0.7-0.1,1-0.1c-0.3,0.4-0.7,0.8-1,1.2c0.1,0.3,0.2,0.7,0.3,1.1   c-0.4,0-0.9,0-1.5,0c0.1,0.9,0.1,1.7,0.2,2.9c1-1.1,1-2.1,1.3-2.9c2.2,3,5.1,5.7,5.7,9.5c-2.2,1.5-4.1-2.2-7-2.4   c4.5,15.5,18.2,25.3,28.2,37.2c8.6,9.5,12,21.9,18,33c1.1,0.1,2.3,0.2,3.5,0.3c-3.1,0.6-8.4,1.9-10.1-1.5c-1.2-3.3-3.3-6.5-3.8-10   c0.4-2.3-0.6-4.2-1.7-6.1c-7.5-13-18.9-23-29-34c-6.1-7.6-10.3-16.9-15.6-25c0.1-0.7,0.2-1.2,0.3-1.7c-6.7-6.4-17.7-10.9-17.1-21.9   c-2.2-2.5-5.5-4-7-7.1C631.8,344,641,343.3,648.4,345.6z M659.3,380.7c0.8-0.7,0.8-0.7,0.1-2.8C658.4,379,658.4,379,659.3,380.7z    M633.3,349.1c-1,0.9-1,1.4,0,2.3C634.3,350.6,634.2,350,633.3,349.1z M654.9,382.8c0.1,0,0.2,0,0.3,0c0-0.4,0-0.7,0-1.1   c-0.1,0-0.2,0-0.3,0C654.9,382.1,654.9,382.4,654.9,382.8z M633.8,347.7c0.2-0.1,0.4-0.2,0.6-0.3c-0.2-0.4-0.5-0.2-0.8-0.2   C633.6,347.4,633.7,347.6,633.8,347.7z" />
	<path fill="#4B65C5" d="M575,290.5c1.5-2.2-1.8-4.1,3.1-4.4c6.8,4.4,12.8,10.2,19.3,15.1c-0.2,0.2-0.5,0.5-0.7,0.7   c-6.3-3.2-11.9-9.6-17.8-12.7c9.8,11.3,24.4,16.7,34.5,27.6l-0.2,0.2c-1.3-0.7-2.7-1.1-4-1.8c6.8,8.6,16.5,15.6,19.1,26.9   c-3,0.3-5.9,0.5-8.8,0.8c-4.4-3.9-6.8-9.2-10.2-13.9c-4.5-6.4-11.7-10.1-16.2-16.5C586.2,305.6,582.5,296.2,575,290.5z" />
	<path fill="#F2BE10" d="M485.4,429.5c31.6,13.6,64.8,23.9,95.6,38.9c4.6,3.4,10-1,14.8,1.8c-0.7,3-1.8,3.6-8,5   c-0.6-1-1.1-2-1.6-2.9c-3.4-1.1-4.9-1-8.2,0.6c-38.1-16.1-75.7-33.5-114.8-47.1c-0.2-0.9-0.4-1.9-0.7-3.1c1.7-0.5,3.4-1.1,5.3-1.7   C471,426.9,479.6,427.1,485.4,429.5z" />
	<path fill="#4B65C5" d="M562.9,244.4c-1.1,0.4-0.3,1.6,0,2.4c-4.7,0.1-14.3-9.5-19.4-12.4c-4,2.2-6.8,6.3-10.8,8.6   c-1,0.1-2.5-0.6-2.9,0.7c-11.1-2.1-17.1,13-23.9,19.8c-3.1,4.3-8.3,7.6-10.5,12.3c-1.4-0.9-3.2-0.9-4.4-2.5   c2.6-7.4,11.1-10.3,14.6-17.1c7.3-9.5,18-15.5,27.4-22.6c0.8,0.2,1.4,0.4,2,0.6c9.8-11.6,7-11.2,22.6-15c1.3,1.6,2.7,3.2,4,4.9   c-1.5,0.1-2.5,1-3.1,2.3c-0.6-0.6-1.2-1.2-2.2-2.2c0,1.3,0,2.1,0,2.9c-0.6,0-1.1,0-2.3,0c1.5,2,3.4,2.7,3.8,4.9   c-1.7-1-3.2-2.8-5.3-2.8c2,2,4.8,6,7.6,5c1.7,1,1.9,2.9,2.8,4.5c-6.4-0.5-9.9-6.1-15-9.5c-0.4,0.2-0.9,0.5-1.4,0.8   c0.2,0.6,0.3,1,0.5,1.5c-0.7,0.1-1.3,0.1-2.6,0.2C550.3,236.6,557.2,239.5,562.9,244.4z" />
	<path fill="#F2BE10" d="M397.8,456.2c19,9.3,38.7,17,57.5,26.5c17.6,7.8,34.2,22.8,53.9,22.3c-1.6,1-2.4,1.7-3.1,3.4   c-2.2,0.6-3.7-0.6-5-1.6c-6.2-0.6-12.2-0.5-17.3-4.2c-9-6.1-19-10.6-28.5-15.8c-25.1-11.9-51.1-23.2-77-33.2   c-0.8-2-2.5-2.7-2.8-4.4c1.9-1.3,4.5-0.4,6.7-1.6C385.9,452.6,392.5,453.4,397.8,456.2z" />
	<path fill="#F0BD10" d="M674.7,442c-1.8,1.3-4,1.7-5.8,2.6c-1-0.2-0.9-0.9-1.1-1.4c-0.8-1.4-2.3-2.4-3.8-1.9   c-7.1,1.3-13.7-2.7-20.6-3.7c-10.2-1-19.2-6.5-28.6-10c-14.1-5.8-28.4-10.4-43.1-14.8c0.3-1.7,1.3-2.8,2.5-4   c6.7,3.3,13.2,6.6,20.4,8.6c24.6,7.3,48.1,19.7,73.8,22.7C670.4,439.6,674.5,438.9,674.7,442z" />
	<path fill="#4B4F5D" d="M290.4,588.9c-0.4-0.8-0.7-1.5-1.1-2.4C430.8,530.3,433.8,536,290.4,588.9z" />
	<path fill="#4B4F5C" d="M411.2,542.2c-0.3-0.5-0.6-1-0.8-1.5c20.7-9.5,43.3-16.5,64.6-25.1c8.3-2.5,16.2-8.2,25.1-6.9   C470.4,519.8,441,532.6,411.2,542.2z" />
	<path fill="#4B4F5C" d="M583.7,474.3c-0.4,1.2-0.7,2.1-1,3.1c-23.5,9-47,18-70.7,27c-0.5-0.8-0.9-1.4-1.5-2.3   C535.1,492.6,558.9,483.5,583.7,474.3z" />
	<path fill="#080708" d="M611,248.2c-0.9,4.7-7.1,12.8-1.5,16c0.8-0.3,1.8-0.7,2.8-1.2c0.3-5.9,4.1-9.8,6.4-14.9   c1.4-3,1.6-7,3.8-9.3c0.8,6.7-3.8,13.9-7.5,19.4c0.9,1.4,1.7,2.7,3.6,2c0.8-1.6,1.6-3.3,2.4-4.9c0,0.6,0,1.3,0.8,1.5   c-0.7,1.7-1.3,3.4-2.1,5.3c-1.5,0.6-3.1,0.2-4.9-0.3c-0.4,0.8-0.8,1.6-1.3,2.6c-1.7,0.6-3.2,2.2-5.6,1.6c-4.7-3.6-1.6-7.7-1.3-12.9   c-2.5,1.5-1.9,3.9-3.4,5.9c-4.7,6.1-10.6-1.4-5.5-8.6c1.2-0.4,0.1-1,0.1-1.4c3.3-1.7,4.4-5.4,5.8-8.6c1.3-0.8-0.2-1.6-0.9-2.3   c0.7-1,1.8-1.6,2.6-2.4c0.7-3,1.5-5.9,3.9-8.5c1.3,3.4-2,6.9-3.5,10.4c1.9,7.7-14.1,15.4-6.2,21.9c3.6-1,2.7-8.4,10.3-12   C610.5,247.6,610.8,247.9,611,248.2z" />
	<path fill="#4B4F5C" d="M598.4,471.5c-0.3-1.6-0.4-1.6-0.1-2.8c22.2-8.4,44.3-16.9,66.5-25.3c1.1,0.6,0.7,1.4,0.5,2.5   C643.2,454.5,620.9,462.8,598.4,471.5z" />
	<path fill="#4B4F5C" d="M470.4,420c22.1-7.4,44.6-13.6,66.9-20.6c0.5,0.5,0.8,0.9,1.2,1.4c-0.8,1.7-2.5,1.8-4.1,2.3   c-14.8,4.3-29.6,8.7-44.3,13.4C486.4,416.8,470.9,424.5,470.4,420z" />
	<path fill="#4A4E5B" d="M460.6,424.1c-0.3,1.4-1.4,1.5-2.2,1.8c-7.7,2.5-15.4,4.8-23.2,7c-17,4.2-34,12.3-51,14.3   c0.4-1.6,1.7-1.8,3.1-2.2c7.8-2.4,15.7-4.7,23.5-7.1C427.5,433.7,443.6,425.7,460.6,424.1z" />
	<path fill="#494E5A" d="M372.9,451.5c-28.7,7.9-57.1,18.3-85.9,25.2c16.6-8.4,36.5-11,54.2-17.7C348,458.1,368.8,448.4,372.9,451.5   z" />
	<path fill="#EBB910" d="M623.2,382.2c0.1,0.1,0.3,0.2,0.5,0.1c10.8,3.8,21.4,6.8,32.5,11.1c0.5,0.8,1.3,2,2,3.2   c-0.5,0.9-1.1,0.3-1.5,0.1c-14.8-6.4-30.9-9.4-45.9-15.5c-0.7-1.6-1.3-3.1-2-4.7c1.3-0.2,2.7-0.4,4.4-0.6   C615.4,379.4,619.3,381,623.2,382.2z" />
	<path fill="#464C56" d="M174.7,511c0-1.4,0.8-1.5,1.6-1.8c32.1-9.9,64.3-19.3,96.4-29.3c0,0.8,0,1.2,0,1.7   C240,491.4,207.5,501.6,174.7,511z" />
	<path fill="#CDCCDA" d="M542.1,413.1c-3.5,1.8-4.6,6.7-5,10.8c3.6,2.3,7.6,3.4,11.8,3.7c-5.6,2.2-18.4,5-18.8-3.7   c5-1.6,6.8-6.5,9.4-10.8C540.4,413.1,541.2,413.1,542.1,413.1z" />
	<path fill="#181108" d="M221.2,547.4c-14.8-10.6-30.6-19.9-44.4-31.7c0.2-0.2,0.4-0.5,0.7-0.7c14.7,11,30.4,20.6,45.1,31.7   C222,546.6,221.3,546.6,221.2,547.4z" />
	<path fill="#E9C8B8" d="M520.5,298.9c0.3-0.3,0.7-0.6,1.1-1c-2.8-3.6-7.4-6.2-10.3-9.9c6.9,1.6,12.6,5.3,17.6,10.4   c-0.3,0.9-0.7,1.9-1,2.8c0.2,0.4,0.5,0.8,0.7,1.2c-1.4,0.4-2-1-3.1-1.4c0.2-0.4,0.3-0.8,0.5-1.2   C524.3,298.3,522.3,299.1,520.5,298.9z" />
	<path fill="#241805" d="M278,480.6c11.1,6.3,22.2,13.4,32.3,21.4c-0.8,0.2-0.4,0.9-0.5,1.4c-1-0.2-1.9-0.4-2.5-1.4   c1.2-0.8-3.7-3.2-4.4-4.1c-8.4-5.1-16.3-11.6-25.1-15.9l0,0C278,481.6,278,481.1,278,480.6z" />
	<path fill="#120C06" d="M313.8,495.5c-9.1-4-17.8-8.9-25.1-15.7c0.8-0.3,0.8-1.9,2.2-1.4c-0.2,0.3-0.3,0.6-0.5,0.9   c7.6,6.5,16.4,10.7,25.1,15.4C315,495,314.4,495.3,313.8,495.5z" />
	<path fill="#CBCFDC" d="M701.4,463.9c-1.6-0.5-3.2-1.1-4.8-1.7c0.9-2.4,2.1-3.6,3.9-5.5c-0.1-0.5-0.3-1.2-0.4-1.9   c2-0.3,9-1.2,10,0.5c-2.3,0.1-4.6-0.1-7.1,0.2C703.2,458.7,701.6,461.1,701.4,463.9z" />
	<path fill="#494C57" d="M677.3,440.9c-0.1-0.5-0.2-1.1-0.3-1.6c3.9-2.7,8.2-3.1,12.5-5.4c0.4,0.7,0.7,1.2,1,1.8   C688.3,437.4,680.3,440.5,677.3,440.9z" />
	<path fill="#BC970E" d="M277.9,482c8.8,4.4,16.6,10.8,25.1,15.9c-0.3,0.2-0.5,0.5-0.8,0.7C294,493.2,284.9,488.9,277.9,482z" />
	<path fill="#C4C3D0" d="M547.9,377.1c-0.3,0.1-0.7,0.1-1.1,0.2c-0.3,0.9,0.6,1.1,0.9,1.6c1.7,2.5,1.5,5.3,1.5,8.1   c-1.1-0.3-2.2-0.6-3.3-0.9c-1.9-3,0.1-6.2-1.1-9.1c0.4-0.4,0.7-0.7,1.1-1.2C546.6,376.3,547.3,376.7,547.9,377.1z" />
	<path fill="#484B4F" d="M599,383.7c0-3,0-3,1.7-3.6c1.9-0.9,4-0.4,5.8-1.3c0.3-0.2,0.9,0.1,1.6,0.2c-0.5,0.9-0.9,1.6-1.4,2.5   C604.4,382.1,601.8,382.9,599,383.7z" />
	<path fill="#20140A" d="M485.4,429.5c-4-1.1-8-2.2-11.7-4.1c0.3-0.3,0.6-0.6,0.9-0.9c4.3,1.4,8.7,2.9,13,4.3   C486.9,429.1,485.9,428.5,485.4,429.5z" />
	<path fill="#312614" d="M397.8,456.2c-4.3-1.9-8.7-3.7-13-5.7c5.1-0.3,10.1,2.7,14.6,4.9C398.8,455.5,398,455.3,397.8,456.2z" />
	<path fill="#101427" d="M655.4,343.4c1.3-5.9-2-12.4,0-17.8c0.5,4,2.5,8.4,0.9,12.2C655.9,339.7,657,342.1,655.4,343.4z" />
	<path fill="#EEF1F0" d="M562.9,375.8c2.3-1.8,4-4,5.2-6.8c0.8,1.9,0.8,1.9,0.4,5.4c-1.3,0.7-2.8,1.4-4.2,2.1   C563.8,376.4,563.1,376.6,562.9,375.8z" />
	<path fill="#21170D" d="M623.2,382.2c-2.7-0.8-5.7-2.1-7.8-3.6c0.9-0.5,0.4-1.4,0.6-2.1c0.4,0.6,0.7,1.2,1,1.6   c2.7,1.1,5.3,2.2,7.9,3.3C624.3,381.7,623.7,381.9,623.2,382.2z" />
	<path fill="#241308" d="M319.7,507.7c1.4,0.4,2.7,1,3.7,2.1c-0.5,0.2-1,0.5-1.7,0.8c-0.8-0.5-1.7-1.1-2.5-1.7   C319.3,508.6,319.5,508.1,319.7,507.7z" />
	<path fill="#907110" d="M302.2,498.6c0.3-0.2,0.5-0.5,0.8-0.7c0.7,1,5.5,3.3,4.4,4.1C305.7,500.9,303.9,499.7,302.2,498.6z" />
	<path fill="#C79D0F" d="M541.2,401.2c-0.5-0.8-0.8-1.4-1.3-2.2c0.9-0.6,1.7-1.1,2.9-1.8C542.6,398.8,542.2,399.9,541.2,401.2z" />
	<path fill="#B7BDBD" d="M562.9,375.8c0.2,0.8,0.9,0.6,1.4,0.8c-1.3,1.1-2.8,1-4.4,1.2v-0.3C561,376.9,561.9,376.3,562.9,375.8z" />
	<path fill="#554923" d="M187.5,536.4c-0.5-0.7-1-1.4-1.5-2.1l0,0c1.4,0.1,2.3,0.9,2.9,2.2C188.5,536.5,188,536.5,187.5,536.4z" />
	<path fill="#63655A" d="M532.7,301.2c0.7,0.5,1.4,1.1,2.3,1.8c-1.3,0.4-1.8-0.1-2.3-0.7C532.7,301.9,532.7,301.5,532.7,301.2z" />
	<path fill="#9AA2A2" d="M537.1,304.6c0.9,0,1.6,0.5,2.1,1.2c0,0.3,0,0.7,0,1c-0.8-0.7-1.5-1.3-2.3-2L537.1,304.6z" />
	<path fill="#A7B8B8" d="M532.7,301.2c0,0.4,0,0.7,0,1.1c-0.7-0.5-1.4-0.9-2.2-1.4C531.6,300,532.1,300.9,532.7,301.2z" />
	<path fill="#90C1C1" d="M560,377.4v0.3c-0.9,0-1.9,0.6-2.7-0.1C558.2,376.9,559.1,377.2,560,377.4z" />
	<path fill="#CBE5E4" d="M539.2,306.8c0-0.3,0-0.7,0-1c0.4,0.2,0.8,0.3,1.3,0.5C540.5,307.6,539.9,307.2,539.2,306.8z" />
	<path fill="#21170D" d="M632.5,383.7c0.9-0.1,1.7,0,2.3,0.7C633.9,384.4,633,384.7,632.5,383.7z" />
	<path fill="#261E1C" d="M645.3,211.5c0.2,0,0.5-0.1,0.7-0.1c0,0.8,0.5,1.8-0.8,2.2C645.3,212.8,645.4,212.1,645.3,211.5   L645.3,211.5z" />
	<path fill="#382F1B" d="M273.4,594.2c-0.5,0.7-1.5-0.2-0.8-0.7C272.9,593.7,273.1,593.9,273.4,594.2z" />
	<path fill="#21170D" d="M626.8,382.3c0.8,0.2,1.6,0.4,2.3,0.6C628.2,383,627.3,383.3,626.8,382.3z" />
	<path fill="#BC970E" d="M278,480.6c0,0.5-0.1,0.9-0.1,1.4c-0.6,0.1-1.1-0.1-1.4-0.8C277,481,277.5,480.8,278,480.6z" />
	<path fill="#21170D" d="M629.6,383c0.9-0.1,1.7-0.1,2.4,0.6C631.2,383.6,630.2,384,629.6,383z" />
	<path fill="#21170D" d="M635.4,384.4c0.7,0.2,1.5,0.4,2.2,0.6C636.8,385.1,635.9,385.4,635.4,384.4z" />
	<path fill="#7EADAC" d="M536.9,304.8c-0.3-0.1-0.6-0.2-1-0.4c0.6-0.6,0.9-0.5,1.2,0.2L536.9,304.8z" />
	<path fill="#21170D" d="M628.9,384.2c-0.5-0.2-1.1-0.3-1.6-0.5C627.9,383.7,628.5,383.5,628.9,384.2z" />
	<path fill="#21170D" d="M631.8,385c-0.5-0.2-1-0.3-1.6-0.5C630.8,384.4,631.4,384.3,631.8,385z" />
	<path fill="#21170D" d="M634.7,385.8c-0.5-0.2-1.1-0.4-1.6-0.5C633.7,385.1,634.3,385,634.7,385.8z" />
	<path fill="#120C06" d="M316,495c0.5,0.2,0.9,0.4,1.4,0.7C316.8,495.7,316.2,495.6,316,495z" />
	<path fill="#120C06" d="M317.4,495.7c0.5,0.2,0.9,0.4,1.4,0.7C318.2,496.4,317.7,496.4,317.4,495.7z" />
	<path fill="#120C06" d="M318.9,496.3c0.5,0.2,1,0.5,1.4,0.7C319.7,497.1,319.1,497.1,318.9,496.3z" />
	<path fill="#120C06" d="M320.3,497c0.5,0.2,1,0.5,1.4,0.7C321.1,497.8,320.5,497.8,320.3,497z" />
	<path fill="#120C06" d="M321.7,497.7c0.5,0.2,0.9,0.5,1.4,0.7C322.5,498.5,321.9,498.5,321.7,497.7z" />
	<path fill="#120C06" d="M323.2,498.5c0.5,0.2,0.9,0.5,1.4,0.7C323.9,499.2,323.4,499.2,323.2,498.5z" />
	<path fill="#120C06" d="M323.8,500.7c-0.4-0.3-0.9-0.5-1.3-0.8C323.1,499.9,323.7,499.9,323.8,500.7z" />
	<path fill="#120C06" d="M325.3,501.5c-0.5-0.3-0.9-0.5-1.4-0.8C324.5,500.6,325.1,500.6,325.3,501.5z" />
	<path fill="#241308" d="M318.1,507.1c0.6,0,1.2,0,1.5,0.6C319,507.9,318.4,507.9,318.1,507.1z" />
	<path fill="#554923" d="M188.9,536.5c0.3,0,0.5-0.1,0.8-0.1c0.1,0.2,0.3,0.3,0.4,0.5C189.5,537.4,189.3,536.9,188.9,536.5z" />
	<path fill="#261E1C" d="M646.1,211.4c0.2-0.3,0.5-0.5,0.7-0.8C646.6,210.9,646.3,211.1,646.1,211.4z" />
	<polygon fill="#F0BD10" points="663.5,437.8 663.7,437.7 663.8,438 663.6,438  " />
	<path fill="#120C06" d="M315.2,496.2c-0.3-0.2-0.6-0.3-0.9-0.5C314.6,495.9,314.9,496,315.2,496.2z" />
	<path fill="#120C06" d="M316.7,496.9c-0.3-0.2-0.6-0.3-0.9-0.5C316.1,496.6,316.4,496.8,316.7,496.9z" />
	<path fill="#120C06" d="M318.1,497.6c-0.3-0.2-0.6-0.3-0.8-0.5C317.5,497.3,317.8,497.5,318.1,497.6z" />
	<path fill="#EECABA" d="M709.8,451.9c0.3,0.2,0.6,0.4,1,0.6c-0.2-0.1-0.5-0.1-0.7,0C709.9,452.4,709.8,452.2,709.8,451.9z" />
	<path fill="#120C06" d="M319.6,498.4c-0.3-0.2-0.6-0.3-0.9-0.5C319,498,319.3,498.2,319.6,498.4z" />
	<path fill="#120C06" d="M321,499.1c-0.3-0.2-0.6-0.4-0.9-0.5C320.4,498.7,320.7,498.9,321,499.1z" />
	<path fill="#120C06" d="M322.4,499.9c-0.3-0.2-0.6-0.4-0.9-0.6C321.8,499.5,322.1,499.7,322.4,499.9z" />
	<path fill="#120C06" d="M324.6,499.2c0.3,0.2,0.7,0.4,1,0.6C325.3,499.6,324.9,499.4,324.6,499.2z" />
	<path fill="#120C06" d="M326,500c0.3,0.2,0.6,0.4,0.9,0.5C326.6,500.4,326.3,500.2,326,500z" />
	<path fill="#21170D" d="M625.3,381.6c0.3,0.2,0.6,0.4,0.9,0.5C625.9,382,625.6,381.8,625.3,381.6z" />
	<path fill="#21170D" d="M626,383.5c-0.3-0.2-0.6-0.3-0.9-0.5C625.5,383.2,625.8,383.4,626,383.5z" />
	<path fill="#21170D" d="M624.6,382.8c-0.3-0.2-0.6-0.3-0.9-0.5C624,382.5,624.3,382.7,624.6,382.8z" />
	<path fill="#FBDFD3" d="M569.9,68.7c2.2,2.6,6.9,2.1,10,3.2c4.7,0.7,8.6,3.1,12.9,5.1c-12.2,8.3-8.4,29.3-25.2,31   c3.1,2.2,6.8-2.1,10.1-1.9c-4.3,10.6-2.9,32.3-17.6,33.3c0.3-5-2.7-8.9-2.4-13.8c-3.4,2.5-3.2,9.6-3.5,14   c-13.6-3.1-20.2-18.5-18.6-31.5c4.1-1,5.8-2.8,9.2,0.6c3.1-1,8.7,2.9,9.9-1.6l-0.1,0.1c2.2-1.5,3.2-4.6,4.7-6.8   c1.3-1.9,4.2-3.5,2.1-6.1c2-6.8,2.7-15.5-3.1-20.5c-1.4,3-1.1,5.9-1.5,8.9c-5.3,5.4-8.4,12.9-12.9,18.8c-3.4,0.2-3.7,0.5-4.3,3.4   c-2.8,0.7-6.1,2.1-8.8,0.2c-0.6-1.5-1.2-3-1.9-4.5c0.1-0.2,0.1-0.4,0-0.6c9-3.2,3.4-1,5-5.7c1-0.3,2.4,0,2.6-1.8   c-0.8-1.3-1.9-1.4-3.3-1c-0.3,0.6-0.6,1.2-0.9,1.8c-3.3,0.4-6.4,1.9-9.7,1.4c-0.3-1.4-0.7-2.8-1-4.2c0.4-0.4,0.8-0.8,1.3-1.3   c0.2,1.2,0.3,2.1,0.4,3c0.1,0,0.2,0,0.3,0c0-1.1,0-2.2,0-3.5c7.8-2.8,3.1-7.5,1.2-4.6c0.5,0.4,1,0.7,1.8,1.3   c-3.2,0.3-4.4,3.2-7.2,3.8c-0.2-0.2-0.4-0.2-0.6-0.2c-3.6-10.2,0.3-16.3-12.7-20.3c0.6-3.4-1-6.7-1.1-10.1c1.9-1.3,3.8-2.5,5.7-3.8   c0.3,0.2,0.5,0.4,0.7,0.6c0.4,1.3-1.9,2.6,0.3,3.9c2.2-2.2,4.1-4.7,5.8-6.9c3.1-0.9,5.3-2.1,7.6-4.2c1.7-0.2,3.4-0.4,5.3-0.6   c6.9,6.7,16.7,4.5,18.3,8.6c6.7,16.3,3.4-0.5,3.6-6.3c0.8-0.6,1.7-0.9,1.4-1.9c0.6-1.1,1.2-2.3,1.7-3.3c1.7-0.6,3-0.5,4.2,0.5   c-0.6,1.3-2.2,0.5-3,1.5c-1.4,1.6-1.8,4.1-1.7,6.1c2,2.5,0.9,4.9,3,7.5c0.1-1.3,0.1-2,0.2-2.8c0.7-0.4,1.6-2,2.2-1.5   c0,2.7-0.3,5.7-2.3,7.7c-0.6-0.5-1.1-0.8-1.8-1.4c-0.1,0.9-0.2,1.4-0.3,1.8c4.3,3,4.7-1.7,5.1-4.6c0.3-0.2,0.5-0.4,1-0.8   C563.8,63.4,566.4,66.4,569.9,68.7z M525,71.6c2.6-0.5,4.3-2.4,6-4.1c2.3,0.6,5.6,0.7,6.6-1.5c-2.3-0.5-4.6,1.2-6.7-0.5   c-3,2.1-6.9,2.2-9.5,5c-1-0.1-2-0.3-3.6-0.4c2,2.3,3.8,2.5,6,1.6c2,4.5,9,3.6,10.3-1.1C530.6,70.2,529.7,75.7,525,71.6z    M559.7,111.4c2.4,0.6,4.2,0.9,5.8-1C561.6,110,561.6,110,559.7,111.4z M558.2,123.3c1.1-0.9,2.1-1.8,1.6-3.5   C557.6,121.2,557.6,121.2,558.2,123.3z M567.9,70.7c0,1,0,1.9,0,2.9C569.6,72.2,569.6,71.8,567.9,70.7z M556.5,112.8   c0.3-1.5,0.3-2.4-1-2.7C554.8,111.1,555.3,111.8,556.5,112.8z M570,75.7c-1.5,0.9-1.5,1,0,2.2C570,77.1,570,76.4,570,75.7z    M561.4,118.5c1.3,0.4,1.3,0.4,1.1-0.9C562.2,117.9,561.8,118.1,561.4,118.5z" />
	<path fill="#453D3A" d="M560.7,56.4c-0.6-0.5-1.5,1.2-2.2,1.5c-0.1,0.8-0.1,1.5-0.2,2.8c-0.6-1-1.3-1.7-1.3-2.2   c0.6-2.9-2.5-4.5-1.5-7.2c1.5,1.8,1.5,3.4,3.2,4.2c0.7-0.8,0.6-1.7,0.4-2.7c0.3,0,0.6,0,0.9,0c0.4,0.2,0.8,0.5,1.2,0.7   C561.4,54.5,561.9,55.7,560.7,56.4z" />
	<path fill="#211A18" d="M560.2,52.8c-0.3,0-0.6,0-0.9,0c-0.7-0.8-1.1-2.1-2.6-1.7c-0.1,0.3-0.2,0.6-0.4,0.9   c-0.2-0.3-0.5-0.5-0.7-0.8c-0.2-1.6,0.7-2.9,1.5-4.1c0.8-1,2.4-0.2,3-1.5c1.4,1.1,1.4,1.1,0.7,2.8c-0.5-0.5-0.9-0.9-1.4-1.4   c-1.3,1.2-1.3,1.2-1.2,2.8c0.6,0.3,1.2,0.6,1.9,0.9C560,51.4,560.1,52.1,560.2,52.8z" />
	<path fill="#252422" d="M561.5,60c-0.5,2.8-0.9,7.5-5.1,4.6c0.1-0.5,0.2-1,0.3-1.8c0.7,0.6,1.2,0.9,1.8,1.4   c1.2-1.1,1.6-2.7,2.2-4.1C560.9,60,561.2,60,561.5,60z" />
	<path fill="#454744" d="M554.2,48.5c0.3,1.1-0.7,1.3-1.4,1.9c0,1.7,0,3.5,0,5.3c-1.3-1.8-0.5-3.9-1.1-6.3c0.1-0.3,0.5-0.9,0.9-1.6   C553.1,48.1,553.6,48.3,554.2,48.5z" />
	<path fill="#DECABF" d="M560,50.7c-0.6-0.3-1.3-0.6-1.9-0.9c0-1.6,0-1.6,1.2-2.8c0.5,0.5,0.9,0.9,1.4,1.4c0,0.2,0.1,0.4,0.1,0.7   C560.7,49.7,560.9,50.5,560,50.7z" />
	<path fill="#363939" d="M505.7,34.3c1.3-3,1.3-3,3.9-2.6C508.6,32.9,507.9,34.2,505.7,34.3z" />
	<path fill="#363838" d="M525.8,43.5c-0.6-0.1-1-0.2-1.7-0.3c0.4-1.6,0.9-2.9,2.6-3.9C527.1,41.1,526.5,41.8,525.8,43.5z" />
	<path fill="#2C2D2C" d="M551,54.4c-1.5-1.3-5.2-2.3-3-3.7C549,51.5,550.1,52.3,551,54.4z" />
	<path fill="#242727" d="M509.9,36.9c0.9,2-0.1,2.1-2.8,2.8C507.8,38.4,508.7,37.7,509.9,36.9z" />
	<path fill="#2C2D2D" d="M510.9,28.5c-0.4,2.1-0.5,2.2-2.6,1.5C508.8,29,509.7,28.8,510.9,28.5z" />
	<path fill="#282828" d="M506.2,47.3c0.8-1.4,2-0.8,3.1-0.9C508.5,47.9,508.5,47.9,506.2,47.3z" />
	<path fill="#A08C84" d="M560,50.7c0.9-0.2,0.7-1,0.9-1.6c1,1.4,0.6,2.9,0.5,4.4c-0.4-0.2-0.8-0.5-1.2-0.7   C560.1,52.1,560,51.4,560,50.7z" />
	<path fill="#242727" d="M504.7,37.8c-0.7,1.2-1.6,2.3-2.9,2.9C500.7,39.6,503.5,37.7,504.7,37.8L504.7,37.8z" />
	<path fill="#313333" d="M541.1,18.9c-1.4-1.6-1.4-1.6,0-2.6C541.1,17.3,541.1,18.1,541.1,18.9z" />
	<path fill="#2B2D2D" d="M524.1,28.6c0.9-0.4,1.6-0.7,2.8-1.1c-0.4,1.3-0.9,1.8-1.7,2.2C524.9,29.4,524.6,29.1,524.1,28.6z" />
	<path fill="#292D2D" d="M533.5,14.5c-1.6,0.5-2.6,0.5-3.4-0.6C531.4,12.8,532.1,14,533.5,14.5z" />
	<path fill="#242727" d="M544.4,16.5c0.7-1.3,0.8-1.3,2.5,0.1C545.9,17.1,545.2,17.1,544.4,16.5z" />
	<path fill="#242828" d="M549.6,16.2c0.3,0.7,0.6,1.3,0.9,2C548.8,18.4,548,16.9,549.6,16.2z" />
	<path fill="#252B2B" d="M510.5,36.3c0.8-1.1,1.3-1.9,2.9-2.1C512.6,35.4,512.1,36.2,510.5,36.3z" />
	<path fill="#1E2020" d="M517.2,44.5c0.4-0.8,0.9-1.5,1.5-2.7c0.4,1.7-0.4,2.3-0.9,3C517.6,44.8,517.4,44.7,517.2,44.5z" />
	<path fill="#252626" d="M541.8,24.3c0.1,0.6,0.1,1.1,0.2,1.8C540.9,25.7,540.5,25.1,541.8,24.3z" />
	<path fill="#252A2A" d="M511.2,43.4c-0.4,1.5-0.9,1.7-1.9,1.2C509.8,43.7,510,43.8,511.2,43.4z" />
	<path fill="#292929" d="M506.6,42c-0.4,0.3-0.9,0.5-1.4,0.8c-0.1-0.5-0.2-0.8-0.4-1.3c0.6-0.1,1.1-0.1,1.6-0.2   C506.5,41.6,506.6,41.8,506.6,42z" />
	<path fill="#232626" d="M511.9,25.6c-1.2,0.6-2.3,0.7-1.6-0.6C510.5,25.1,510.8,25.2,511.9,25.6z" />
	<path fill="#242727" d="M504.8,37.8c0.1-0.2,0.2-0.3,0.3-0.5C504.9,37.4,504.8,37.6,504.8,37.8C504.7,37.8,504.8,37.8,504.8,37.8z" />
	<path fill="#CCD2E9" d="M534.8,119.1c1,14.2,17.8,29.9,31.6,21.5c15-10.8,11-62.3,31.6-61.3c-13.5,21.2-14.8,71.8,19.1,72   c0.4,2.6,0.7,4.6,2.5,6.5c1.4,2.1,1.5,4.7,4.3,5.9c0.6-0.7,0.8-1.4,1-2.2c1.6,0.7,3.1,1.4,4.7,2.1c0.6-0.7,1.1-1.3,1.5-1.7   c-0.8-5.3-4.9-8.3-6.5-12.9c0.6-0.7,0.6-1.8,1.9-2.2c3.1,2.7,6.8,4.5,10.7,6c0.6,9.7,1.4,19.3,5.2,28.2   c-6.3,8.9-19.9,32.4-32.9,25.5c0.6-1.1,1.2-2.2,1.9-3.7c-2.6-0.1-2.9,2-4.5,3.6c-5,1.5-9.8,4.9-14.6,6.5c-3.1-6.1-5.3-13-8-19.3   c0.6-0.9,1.1-1.6,1.5-2.2c-0.1-2.3,0.3-4.5-0.6-6.6c1-1.1,4.9-1.5,2.6-3.1c-6.5-5-15-7.2-21.2-12.5c-4.3-0.1-3,0.8-4.1,3.9   c-2.5-1.3-5-2.6-7.9-4c-0.4-1.9-4.2-5.1-2.6-7.1c1.1,0.8,2.3,0.9,3.6,0.7c0.4-0.4,0.8-0.7,1.2-1.1c0.2,0.4,0.7,0.8,1.1,1.1   c0.5-0.5,1.1-0.9,1.7-1.1c10.1,2.6,33.3,2.3,39.4-7.3c-1,0.1-1.7,0.1-2.3,0.1c-2-2.4-6.4-0.3-9,0.2c-7.6,1.8-15.9,1.3-23.9-0.1   c-2-2.1-4.7-3.9-6-7.1c-0.6-1.5-2.1-2.2-3.7-2.6c-3.6,1.9-0.5,5.6-1.2,8.9c-13.6-3-22-20.5-22.3-33.6c-0.1-2.7,0.7-5.7-1.5-7.7   c0.1-2.1-0.1-4.1,0.1-6.1c0.8-0.2,0.6,0.6,1.2,0.9c1.1,0.3,2.4,0.6,3.8,0.9C534.4,111.7,533.6,115.6,534.8,119.1z M615.9,179.8   c0.5,0.1,1.1,0.1,1.7,0.2c0.6-1.9,1.1-3.6,0.2-5.7C616,175.9,616.3,178,615.9,179.8c-2,0-3.4,3.4-1,4.3   C616.5,183,616.3,181.4,615.9,179.8z M606,176.3c1.6,1,1.9-1,2.1-2.1c-0.9-5.1-10.4-2.6-8.3,2C601.5,179.2,603.8,176.8,606,176.3z    M611.9,170.8c2.5-1.3,3.2-4.4,2.4-7.4C612.4,165.6,611.2,167.6,611.9,170.8z M611.6,182.5c-1.7-1.7-4.3-2-4.8,0.4   C607.6,184.7,611.1,184.8,611.6,182.5z M626.5,168.2c0.3-1.8-0.8-3.9-2.6-3.3C622,166.1,624.7,169.2,626.5,168.2z M601.1,154.4   c1.4-0.9,2.4-1.5,3.5-2.2C603.4,149.9,600.3,151.9,601.1,154.4z M610.6,174c0.6-1,0.9-2.1,0.1-3.3   C608.4,172.1,608.2,174.4,610.6,174z M592.3,183.1c-0.7-0.7-1.4-0.7-2.2,0C591.2,184.2,591.2,184.2,592.3,183.1z M611.3,200.1   c1.3-0.5,1.2-1.2,0.6-2.2C610.7,198.5,610.6,199.2,611.3,200.1z M609.2,193.8c-0.5,0.4-0.4,1.8,0.8,1.5   C609.8,194.7,610,194,609.2,193.8z" />
	<path fill="#B7BDD5" d="M587.3,183.4c-0.7,0.4-1.3,0.8-2,1.3c0.9,2.1,0.5,4.4,0.6,6.6c-0.4,0.7-0.9,1.3-1.5,2.2   c2.7,6.3,4.9,13,7.9,19.3c-0.7,0.4-1.4,0.8-2.2,1.2c-0.2,0.7-0.4,1.5-0.7,2.3c0.6,1.5,1.2,2.9,2.7,3.8c1.8-0.2,3.7-0.3,5.4,0.5   c-0.7,0.1-1.4,0.2-2,0.3c-0.8,1.3-1.5,2.6-2.3,4c2.3,0.1,4.4,0.2,6.4,0.3c-8.5,1.5-18,1.5-25.3-3.9c0-0.7,0-1.4,0-2.1   c-2.9-4-9.5-15.9-9.1-20.4c0.3-0.7-0.4-1.8-0.9-2.6c-7.6-10.5-13.4-21.4-18.7-33.2c0.7-0.3,1.4-0.5,1.9-0.7   c0.7-2.6-5.8-4.1-7.6-5.6c-16.8-10.4-13.2-32.7-11.1-49.4c0,1.7,0,3.3,0,5.1c2.2,2,1.4,5.1,1.5,7.7c0.3,13,8.7,30.5,22.3,33.6   c0.6-3.2-2.5-7,1.2-8.9c1.6,0.4,3.1,1.1,3.7,2.6c1.3,3.1,4,5,6,7.1c8,1.3,16.3,1.9,23.9,0.1c2.6-0.5,7-2.6,9-0.3   c-0.5,1.3-1.5,2.2,0.6,2.6c-10.7,6.1-25.9,7.6-37.7,4.6c-0.3,0.1-0.6,0.3-0.9,0.5c-0.2-0.2-0.3-0.3-0.5-0.5   c-0.1,0.4-0.2,0.7-0.3,1.1c-0.4-0.3-0.9-0.6-1.1-1.1c-0.4,0.4-0.8,0.7-1.2,1.1c0.3-2.1-3.7-3-3.6-0.7c-1.6,2,2.2,5.2,2.6,7.1   c2.8,1.5,5.3,2.7,7.9,4c1.1-3.1-0.1-4,4.1-3.9c6.1,5.1,14.3,7.3,20.7,12.1c-0.6,0.1-1.4,0-1.4,1.1   C586.3,182.7,586.8,183.1,587.3,183.4z M576.6,177.2c-4.4-1.6-7.3-5.6-11.3-6.8C565.5,172.8,574.1,180.4,576.6,177.2z M571.5,192.4   c-2.7-3.3-4.4-9.7-7.9-11.5C564.6,184.3,567.7,191.8,571.5,192.4z M573.5,196.8c-0.2,0-0.4,0-0.6,0.1c-0.2,2.5,0.9,5.4,3.5,6.1   C575.3,200.6,574.4,198.7,573.5,196.8z M578.5,208.6c-0.5-1.6-0.8-3.3-2.4-4.2C575.6,206.8,575.8,207.2,578.5,208.6z M583.9,181.6   c-1.4-2.4-3.1-2.3-5-0.4C580.9,181.4,582.2,181.6,583.9,181.6z M593.8,156.6c-1.6-0.7-1.6-0.7-2.5,0.7   C592.6,158.4,592.9,158.3,593.8,156.6z M580.3,213.7c1.2-1.2,0.2-2.7-1.1-2.2C578.4,212.6,579.3,213.1,580.3,213.7z M586.7,158.6   c0.8,1.1,2.5,0.5,1.7-0.7C587.7,157.3,587.1,157.4,586.7,158.6z" />
	<path fill="#FADED2" d="M522,202.1c-0.3-0.7-0.6-1.4-0.8-2.2c0.1-0.2,0.2-0.5,0.3-0.7c4.4,0.6,7.7-1.5,12-2.2c0.6-0.9,1.2-2,1.8-3   c2.3-1.1,4.6-1.3,6-3.4c8.3-0.2,5.5-9,8.6-13.7c1.7,3,3.4,6,5.2,9c-11.9,14.7-2.7,21.1-25.8,25.1c1.2-4.8,8.9-2,9.3-7.6   c2.6-1,6.7-1.2,6.6-4.9c-5.2,4.7-8.3,1.2-12.9,3.3c-2.6,2.3-5.6,3.2-9.1,2.3C522.7,203.5,522.3,202.8,522,202.1z M547.5,194.2   c-0.5,0.7-0.8,1.2-1.2,1.8C548.1,196.3,548.1,196.3,547.5,194.2z" />
	<path fill="#030304" d="M569.3,210c1,3.5,2.9,6.3,5.1,9.2c0,0.7,0,1.4,0,2.1c7.3,5.4,16.7,5.4,25.3,3.9c2.4-1.7,3.6-5.1,5.2-7.9   c-0.8-0.1-1.3-0.1-1.8-0.1c-2.5,2.1-4.6,4.6-7.9,2.7c1.1-1.5,3.8,0.6,4.2-1.6c1.7-2.4,4.1-4.2,7-2.6c0.6,0.2,1.1-1,1.8-0.2   c0,0.5,0,1.1-0.1,1.6c-4.8,4.1-5.8,11.4-10.1,16.1c-1.1,4.8-9.9,10.9-3.6,14.9c-2.2,2-4-0.8-5-2.5c0.6-5.1,6.4-8,6.4-13   c-9.1,0.5-18.8-3-25.8-8.9c0.4-0.2,0.9-0.7,1-0.7c0.8,0.6,1.4,0,2-0.2c0.7,2.2,1.1,2.5,3.4,2.4c-1.8-1.2-3-2.7-4.9-3.9   c0.5-3.4-2.1-6.1-3-9.3C569.6,211.8,569.3,210.8,569.3,210z M590.3,229.2c-0.5,3.6,9,0.9,4.6-1.1c-0.3,0.5-0.6,1.1-0.9,1.7   C593,228.6,591.7,228.3,590.3,229.2z M581.7,228.3c1.8,2.4,4.3,1.9,7.7,1.5C586.5,228.5,584.1,228.6,581.7,228.3z M598.1,229.8   c0.6-1.3,1-2,1.3-2.8c-1.1-0.6-1.9-0.5-2.6,0.5C597.1,228.1,597.5,228.7,598.1,229.8z" />
	<path fill="#EDC9B9" d="M561.6,98.1c-3.1,2.2-3.7,7-6.8,9.1c0.3-3.9-4-4.7-6.5-6.7c2.1-6.3,6.3-11.6,10.4-16.8   c0.3,1.1,0.6,1.9,1,3.4c0.6-2.3,0.4-3.2,0.4-5.1c-0.6-0.4-1-0.7-1.4-1c0.2-2,0.3-4,0.5-6c5.3,4.2,4,13.7,2.1,19.5   c-1.7,0.2-1.6,3.4,0.1,3.5L561.6,98.1z M560.7,89.8c-1.1,1.4-0.9,2.1,0,3.4C560.7,91.9,560.7,91.2,560.7,89.8z" />
	<path fill="#EAC8B8" d="M549.9,177c-3.1,4.6-0.3,13.5-8.6,13.7c-0.4,0.5-0.8,1-1.2,1.4c-1.4-2.4-6.5,1.4-7.3,3   c-3.7,1.6-6.5,2.5-10.4,3c0.2,0.4,0.3,0.7,0.4,1c-0.4,0-0.9,0-1.3,0.1c-0.1-0.2-0.1-0.4,0-0.6c0.2-0.1,0.6-0.1,0.6-0.2   c0.3-2.2,1.4-3.9,2.4-5.9c7.5,0.4,10.6-1.9,17.2-4.2c3.2-5.5,3-11.4,4.8-17.5C548.3,172.7,548.7,174.9,549.9,177z" />
	<path fill="#EBC7B8" d="M520.4,92.4c0.3,1.1,0.7,2.1,1.6,2.8c0,0.2,0,0.4,0,0.6c-2.4,3.3,1.4,10.6,4.1,13c0.3,2.3-0.2,4.6-0.1,6.9   c-0.6,0.1-1,0.2-1.3,0.2l0,0c0-0.9-0.1-1.8-0.1-2.5c-2.4-1.2-1.2,1.8-1.3,3c-6.4-6.6-8.6-15.7-4.3-23.5   C519.6,92.8,520,92.6,520.4,92.4z M523.1,110.9c0.7-1.8,0.2-3.3-1.1-2.1C521.9,109.7,521.7,110.7,523.1,110.9z" />
	<path fill="#181211" d="M522,202.1c0.4,0.7,0.8,1.4,1.2,2.1c3.4,0.9,6.5,0,9.1-2.3c4.6-2.1,7.7,1.4,12.9-3.3   c-0.3,5.4-7.5,4.6-11,4.3c-2,1.4-3.6,2.5-5.2,3.6c-1.7,0.1-3.1-0.3-4.7,0.3c-0.2,1.1-0.5,2.1-0.7,3.1c0.9,1.3,1.2,2.8,2.8,3   c-0.2,0.8-0.7,1.3-1.4,1.5c-0.6-0.6-1.2-1.2-1.8-1.9c-1.6,2.7-1.8,5.1-3.2,7.6h-0.3c-0.3-0.2-0.7-0.5-1-0.7   c1.1-3.1,5.3-12.5,3.5-15C522,203.6,522,202.9,522,202.1z" />
	<path fill="#EAC8B8" d="M526.2,212.8c-1.6-0.2-1.9-1.7-2.8-3c0.2-1,0.5-2,0.7-3.1c1.5-0.5,3-0.2,4.7-0.3c2.8-1.9,5.6-4.9,9.6-2.9   c-0.3,5.6-8.1,2.8-9.3,7.6C528.2,211.7,527.2,212.2,526.2,212.8z" />
	<path fill="#EDD2C7" d="M521.9,204.3c1.5,2.7-0.9,7.5-1.9,10.4c-0.9,2.1-0.9,5.5-3.8,5.9c-0.1-2-0.3-4.2,1.2-5.8   c0.6-3.6,0.1-7.6,0.4-11.3c0.5-0.5,0.9-1,1.4-1.5C520.4,202.5,520.2,204.6,521.9,204.3z" />
	<path fill="#D6B6A8" d="M516.1,219.9c0,0.3,0.1,0.5,0.1,0.8c-0.6,0.1-1.3,0.2-2.4,0.4c1,1,1.6,1.6,2.4,2.4   c-0.1,1.4-1.1,2.6-1.7,4.1c-0.8,0.3-1.5,0.5-2.5,0.9c-0.7-3.3,0-5.9,1.1-8.9c0.7-4.4-0.2-9.3,2.2-13.3c2.8,4.1-1.6,9.2-0.4,13.6   C515.4,219.9,515.8,219.9,516.1,219.9z" />
	<path fill="#F7DCD0" d="M526.3,108.8c-2.7-2.4-6.6-9.7-4.1-13C530.1,99.8,527.2,102.2,526.3,108.8z" />
	<path fill="#E6C6B7" d="M554.9,107.2c-0.2,1.3-1,1.9-2.2,2.3c-0.9-1.6-2.3-2-4.2-2.1c0.4,0.7,0.6,1,0.8,1.4c-5.8,0.6-4-0.8-7.9-2.1   c1.5-1.3,3.1-2.6,4.7-4C549,104.3,552.5,104.8,554.9,107.2z" />
	<path fill="#4964C2" d="M563.1,217.8c-1.5,0.7-0.7,2.6-1,3.9c-1.1-1.1-2.2-2.1-3.3-3.2c-0.1-2.1-0.3-4.1-0.4-6.3   c1.1-1.4,3-1.5,4.5-2.3c0.2,1.9-0.4,4,0.5,5.6c0.6,0,1.3,0,2.1,0c0.1-0.5,0.2-0.9,0.4-1.4c0.2,0.6,0.4,1.2,0.7,2   c-1.3,0.1-2.4,0.3-3.4,0.4C563.1,217.1,563.1,217.4,563.1,217.8z" />
	<path fill="#5572E0" d="M558.6,226.6c0.6-1.3,1.6-2.2,3.1-2.3c2.8,2.7,5.7,5.3,8.5,8c-0.5,0.3-1,0.5-1.6,0.8   c-0.3-0.3-0.6-0.8-0.9-0.8C563.6,231.9,560.7,229.9,558.6,226.6z" />
	<path fill="#0B0F1D" d="M563.1,217.8c0-0.3,0-0.7,0-1.2c1.1-0.1,2.1-0.2,3.4-0.4c-0.8-2.1-1.4-4.3,0.1-6.2c0.7,0.4,1.2,0.8,1.2,1.7   c-1.1,1.1-0.6,2.6-0.3,3.9c0.1-0.2,0.3-0.4,0.4-0.5c0.7,0.7,1.5,1.5,2.2,2.2c-0.3,1.6,0.4,3.1,0.9,4.6c0.2-0.1,0.4-0.2,0.5-0.3   c0.7,0.5,1.4,1,2.1,1.5c-1-0.3-1.6,0.8-2.6,0.1c-0.1-0.1-0.7,0.4-1,0.7c-1-1.5-2.1-3.1-3.4-5.1   C565.8,218.5,564.4,218.1,563.1,217.8z" />
	<path fill="#E5C7B9" d="M524.9,225.1c0.1,0.7,0.2,1.3,0.4,2.2c-3.1,2.2-6.3-5.1-5.8-7.3C522.8,219.2,523.7,222.7,524.9,225.1z" />
	<path fill="#261C19" d="M527.7,102.4c0.5-2.6-3-5.5-5.6-6.6c0-0.2,0-0.4,0-0.6c3.6,0.3,7-0.9,10.5-1.5c0.3,0.3,0.6,0.5,0.9,0.8   c-1.9,1.3-4.8,0.7-6.4,2.1c0.1,0.7,0.6,1.4,1.1,2c0.8,0,1.5,0,2.2,0c0.3,0.3,0.6,0.5,0.9,0.8C529.6,99.8,528.5,100.8,527.7,102.4z" />
	<path fill="#2F2926" d="M516.1,219.9c-0.3,0-0.7,0-1.1,0.1c-1.2-4.4,3.2-9.5,0.4-13.6c0.1-1.4,0.9-2.3,2.3-2.8   c-0.2,3.7,0.3,7.7-0.3,11.3C516,216.3,516.3,218.2,516.1,219.9z" />
	<path fill="#362825" d="M519.8,89.5c2.8-0.6,4-3.4,7.2-3.8c-0.8-0.6-1.3-0.9-1.8-1.3c1.9-2.9,6.6,1.8-1.2,4.6c0,1.3,0,2.4,0,3.5   c-0.1,0-0.2,0-0.3,0c-0.1-0.9-0.3-1.8-0.4-3c-0.6,0.6-0.9,0.9-1.3,1.3C521.2,90.4,520.5,90,519.8,89.5z" />
	<path fill="#526FDA" d="M566.6,210c-1.5,1.7-0.3,3.7-1.2,5.6c-0.8,0-1.5,0-2.1,0c-0.9-1.6-0.3-3.8-0.5-5.6l0,0   C564,209.2,565.6,208.8,566.6,210z" />
	<path fill="#D2B5A7" d="M521.3,220c-0.5,0-1,0-1.5,0c1.4-2.5,1.6-5,3.2-7.6c0.7,0.7,1.2,1.3,1.8,1.9c-0.5,1.6-1,3.3-1.4,4.7   C522.7,219.7,521.5,218.7,521.3,220z" />
	<path fill="#2C2A2B" d="M534.8,119.1c-1.2-3.5-0.4-7.3-0.5-11c0.5,0,1,0.1,1.6,0.1C536,112,534.9,115.4,534.8,119.1z" />
	<path fill="#E3BAAB" d="M539.9,105.1c0.6-3,0.9-3.2,4.3-3.4C543,103.1,541.6,104.3,539.9,105.1z" />
	<path fill="#4057AA" d="M567.3,214.9c-0.1-1.2-0.5-2.3,0.5-3.2c0.2,0.2,0.4,0.4,0.7,0.6c0.1,0.2,0.1,0.4,0.2,0.6   c-0.3,0.7-0.5,1.4-0.8,2.1C567.7,215,567.5,214.9,567.3,214.9z" />
	<path fill="#A49A8E" d="M520.4,92.4c-0.4,0.2-0.9,0.5-1.3,0.7C518.7,91.5,520.5,89.8,520.4,92.4z" />
	<path fill="#DDE4E3" d="M523.4,116.5c0-0.2,0-0.5,0-0.7c0.5,0.1,1,0.2,1.4,0.2l0,0C524.7,117.2,524.5,117.3,523.4,116.5z" />
	<path fill="#281E1C" d="M521.4,198.6c-0.1,0.2-0.1,0.4,0,0.6c-0.1,0.2-0.2,0.5-0.3,0.7C520.3,199.1,520.3,199,521.4,198.6z" />
	<path fill="#261C19" d="M529.2,100.8c0.2,0.5,0.5,1.1,0.7,1.6C529.1,102.1,529.1,101.5,529.2,100.8z" />
	<path fill="#4964C2" d="M563.6,209.5c-0.2,0.2-0.5,0.3-0.7,0.5C563.1,209.8,563.3,209.7,563.6,209.5z" />
	<path fill="#E4E4EB" d="M701.4,463.9c0.2-2.8,1.8-5.2,1.6-8.3c2.5-0.3,4.8-0.1,7.1-0.2c1.1,3.1,2.3,6.2,3.5,9.5   c2.9,0.8,6-0.1,9.1,0.6c2-2.7,3.9-8.3,1.2-10.9c-0.1-0.4-0.1-0.9-0.2-1.3c3-0.5,5.1,1.7,7.2,3.5c-0.1,2.7-1.2,5.6,0.1,8.1   c1.9,4.3,1.1,9.2,4.2,13.1c1.4,2.9,4,6.2,1.9,9.3c-6.7,5.2-18.4,1.3-23.5,9.1c-3.8,7.1-10.7,9-18.2,7.1c-5.9-1-17.6-0.7-21.9-4   c4.9-4.7,7.4-10.9,13-14.7c1.9,1.6,4.5,3.4,6.9,2.1c-1.1-2.3-3.2-3-4.9-4.3c0.5-0.5,1-1,1.5-1.5c3.2,0.6,6,3.1,9.2,2.7   c-0.6-2.8-3-3.5-5-4.9c2.9-2.1,7.4,3.7,9.7,0.4c-3.1-2.8-7.1-4.9-11.1-6.1c0.5-0.8,2-0.6,2.8-0.5c0.6,0.8,1.4,0.7,2.2,0.6   c3.7,0.7,7,2.7,10.9,2.3c-2.7-3.8-6.4-4.3-10.2-6c-0.4-1.1-1.4-0.3-2.2-0.7c-0.5-1-1.4-0.7-2.2-0.6c0-0.5,0-1,0-1.5l0,0   c1.5,0,2.9,0,4.4,0l0,0c0.4,1.1,1.3,0.8,2.1,0.8c3.7,1.4,7.3,2.8,10.9,4.1C715.2,468.9,703.4,465.3,701.4,463.9z" />
	<path fill="#EBB910" d="M710,411.7c-0.8-0.5-1.5-1.1-2.7-1.9c-0.3-0.7-0.7-1.7-1.1-2.7c0.8-0.7,1.3-0.3,1.8-0.1   c4.5,1.7,8.9,3.3,13.4,5c2.2,0.6,3.9,2.3,6.4,1.9c0.9,0,1.9,0,2.8,0.8C724.3,419.3,716.3,414.2,710,411.7z" />
	<path fill="#F6F7F7" d="M715,415.2c2.4,1,4.8,1.9,7.5,3c-3.6,2.1-6.7,2.7-10.4,4.2c-1.2-3.1-3.6-6.9-3-9.9   C711.2,413.4,713.1,414.3,715,415.2z" />
	<path fill="#484D58" d="M714.2,427.3c-0.3-0.9-0.5-1.5-0.8-2.3c5.7-3.3,13.6-3.3,17.9-8.2c0.7,0,1.3,0,2.1,0   C733.2,423,719.5,424.2,714.2,427.3z" />
	<path fill="#DFB00F" d="M743.2,416.4c-2.7,2.1-5.2,2.8-7.7,3.5c-0.2-1.7-0.4-3.3-0.6-5.2C737.8,414.2,739.7,415.6,743.2,416.4z" />
	<path fill="#E0E0DF" d="M722.2,457.7c0.1,2.1,0.3,3.7-1.1,5.3c-1.7,0-3.6,0-5.7,0c-0.1-0.5-0.3-1.2-0.5-1.8   C718,460.4,719.5,459.8,722.2,457.7z" />
	<path fill="#292522" d="M718.6,452.6c-0.1,0.7-0.3,1.4-1.4,1.4c-1.5-1.7-3-3.6-3-6.3c1.4-0.5,1.8,0.5,2.5,1.2   c0.2-0.2,0.4-0.4,0.6-0.6c0.5,0.7,0.9,1.3,1.4,2C717.1,450.3,718.2,451.8,718.6,452.6z" />
	<path fill="#37261A" d="M715,415.2c-1.9-0.9-3.9-1.8-5.8-2.7c0.3-0.3,0.5-0.5,0.8-0.8c2,0.9,3.9,1.8,5.9,2.7   C715.6,414.7,715.3,414.9,715,415.2z" />
	<path fill="#342D27" d="M723.7,453.3c0.1,0.4,0.1,0.9,0.2,1.3c-2,0.1-2,0.1-2.2-1.5c0.2-0.2,0.5-0.4,0.7-0.6   C722.8,452.8,723.2,453,723.7,453.3z" />
	<path fill="#B7ACA3" d="M718.6,452.6c-0.5-0.7-1.5-2.2,0-2.3c0.6,0.7,0.9,1.5,0.7,2.4C719.2,452.6,718.8,452.6,718.6,452.6z" />
	<path fill="#E7C5B5" d="M557.8,128.2c1,3.9,2.5,7.2,2.4,11.3c0.7,0.1,1.3,0.2,2,0.2c-1.6,1.4-3.4,1.3-5.5,0.5   c-0.6-4,0.5-7.9,0.6-11.9C557.5,128.3,557.7,128.2,557.8,128.2z" />
	<path fill="#392D2A" d="M577.8,106.2c-3.3-0.3-7,4-10.1,1.9c3.1-1.4,6.5-1.9,9.6-3.5C577.4,105.1,577.6,105.6,577.8,106.2z" />
	<path fill="#2E2A2A" d="M595.1,84.4c0.5-2,1.3-3.7,2.8-5.2c0.2,0.3,0.5,0.5,0.7,0.8c-0.9,2-1.8,3.9-2.7,5.9   C595.8,85.4,596,84.6,595.1,84.4z" />
	<path fill="#65504A" d="M557.8,128.2c-0.2,0.1-0.4,0.1-0.5,0.2c-0.6-1.1-1.4-2.4,0.5-2.7C557.8,126.6,557.8,127.4,557.8,128.2z" />
	<path fill="#312725" d="M641.1,100.1c-0.3-0.2-0.6-0.4-0.9-0.5C640.5,99.8,640.8,99.9,641.1,100.1z" />
	<path fill="#CECEDC" d="M686.5,484.8c-5.6,3.8-8,10-13,14.7c3.5,3.3,9.1,1.6,13.5,3.2c6.3,0.4,12.7,2.4,18.9,0.9   c-10.7,6.8-25.7,3.4-37.3,0.2c-0.7-3.4,0-6.9,0-10.3c7.1-2.3,14.3-7.5,18.5-13.7c0.4,0,0.9,0,1.3,0c0.5,0.5,1,0.9,1.6,1.4   c-0.5,0.5-1,1-1.5,1.5C686.7,483.1,686.7,483.1,686.5,484.8z" />
	<path fill="#99A8B2" d="M688.5,479.8c-0.4,0-0.9,0-1.3,0c0.5-1.2,0.9-2.3,1.5-3.6c2.6,0.4,5,0.7,7.1,2.2c-0.5,0.2-1,0.4-1.5,0.6   C692.1,478.3,689.4,476.2,688.5,479.8z" />
	<path fill="#9499A3" d="M695,472.6c-0.7,0.4-1.6-0.3-2.1,0.6c-1.3-0.2-1.9,0-1.8-1.8C692.6,471.9,693.9,471.7,695,472.6z" />
	<path fill="#B6BDCA" d="M698.6,466.8c-1.5,0-2.9,0-4.4,0c0.1-0.3,0.1-0.6,0.3-1.2C695.8,466.2,697.6,466,698.6,466.8z" />
	<path fill="#B6BDCA" d="M700.7,467.6c-0.8,0-1.7,0.3-2.1-0.8C699.4,466.8,700.1,466.9,700.7,467.6z" />
	<path fill="#B6BDCA" d="M694.2,468.4c0.8-0.1,1.7-0.4,2.2,0.6C695.6,469.1,694.8,469.2,694.2,468.4z" />
	<path fill="#9499A3" d="M697.9,473.3c-0.8,0.1-1.7,0.2-2.2-0.6C696.5,472.5,697.3,472.6,697.9,473.3z" />
	<path fill="#B6BDCA" d="M697,469.1c0.6-0.2,1.2-0.1,1.5,0.5C698,469.5,697.5,469.3,697,469.1z" />
	<path fill="#B6BDCA" d="M694.2,466.9c0,0.5,0,1,0,1.5C693.2,467.9,693.2,467.7,694.2,466.9z" />
	<path fill="#9499A3" d="M694.1,473.5c0.3,0.1,0.6,0.3,0.9,0.4C694.7,473.8,694.4,473.7,694.1,473.5z" />
	<path fill="#AE8D0F" d="M176,528c-4.4-2.1-9.3-5.4-12.2-9.4c0.3,0,1,0,1.5,0l0,0c0.8,1.5,1.8,2.7,3.6,2.9l0,0   C170.3,524.6,174.4,525,176,528z" />
	<path fill="#5B3F0C" d="M176,528c-1.6-3-5.7-3.3-7.2-6.5c3.9,1.5,7.2,4.9,10.8,7.2c-0.2,0.2-0.5,0.4-0.7,0.7   c-0.3,0-0.5,0.1-0.8,0.1l0,0C177.8,528.4,177.1,527.8,176,528L176,528z" />
	<path fill="#AE8D0F" d="M176,527.9c1.1-0.1,1.8,0.5,2.2,1.5C177.1,529.4,176.4,528.9,176,527.9z" />
	<path fill="#AE8D0F" d="M178.1,529.4c0.3,0,0.5-0.1,0.8-0.1c0.4,0.4,0.8,0.7,1.5,1.3C179.1,530.7,178.5,530.3,178.1,529.4z" />
	<path fill="#464025" d="M184.6,533.7c-0.8,0-1.5-0.2-1.9-1.2C183.9,532.2,184.3,532.9,184.6,533.7L184.6,533.7z" />
	<path fill="#554923" d="M184.6,533.6c0.6,0,1.2,0,1.4,0.7l0,0C185.4,534.4,184.9,534.4,184.6,533.6L184.6,533.6z" />
	<path fill="#D3C0B5" d="M515.5,80c-1.8-1.1-2.8-2.3-3.8-3.7c0.9-0.8,1.6-0.4,2.7-0.1C514.7,77.2,515,78.4,515.5,80z" />
	<path fill="#FBDFD3" d="M512.2,73.9c1.4-0.2,1.4-0.2,2.2,1.1C513.4,74.7,512.9,74.7,512.2,73.9z" />
	<path fill="#4B65C4" d="M588,291.8c9.1,4.6,35.4,19.8,36.4,29.9c-4.1,1-8.3-2-11.3-4.7l0.2-0.2c2.8-0.9,2.2,0.9,4.9,1.5   C610.1,307.5,598,300.8,588,291.8z" />
	<path fill="#4A64C3" d="M580.8,272.5c-0.7-0.4-1.4-0.7-2.1-1.2c0-1.1,0-2.1,0-3.1c2.9,0.7,7.4,2.8,9.9,0.7c0.3,0,0.6,0,0.9-0.1   c6,3.7,12.7,6.6,17.2,12.2c-8.9-1.8-17.1-6-25.5-9.4C581,272.1,580.9,272.3,580.8,272.5z" />
	<path fill="#4B64C3" d="M535.7,244.4c9.8,2.8,22.1,10.6,28.5,18.3c-1.2,0.7-1.9-0.6-3.1-0.7c-0.4,0.3-1,0.6-1.6,1   c-0.9-0.3-1.8-0.4-2.3-1.4c0.6,0,1.1,0,2.2,0c-6.1-4.4-11.7-8.9-18-12.9l0,0c-0.5-0.9-1.2-1.4-2.2-1.5l0,0   C538.1,246.3,536.9,245.3,535.7,244.4z" />
	<path fill="#0D0D1A" d="M588,291.8c8.5,7.3,18,13.6,25.8,21.5c-0.5,1.4-1.7,0-2.4-0.5c-0.4,0.2-0.8,0.4-1.2,0.6   c-7.4-5.3-14.9-10.4-22.1-15.9c0.2-0.2,0.5-0.5,0.7-0.7c5,2.7,9.3,7,14.3,9.4c0.3,0.8,0.8,1.4,1.9,1.2c-0.4-0.9-1.1-1.3-1.9-1.2   c-4.8-5.2-11.3-8.8-16.5-13.6c0.3-0.3,0.5-0.5,0.8-0.8C587.6,291.8,587.8,291.8,588,291.8z M606.4,308c0.6,1.9,1.2,2.9,2.2,2   C608,309.4,607.3,308.8,606.4,308z" />
	<path fill="#030304" d="M651,240.8c-7.5,0.3-12.9,1.7-19,5.7C622.9,244.7,644.2,233.8,651,240.8z" />
	<path fill="#08070D" d="M654,247.9c0.1-0.7,0.1-1.3,0.2-2c0.3,0,0.5,0,0.8,0c0.1,6.1,0,12.3-0.2,18.6c-2-3,0.8-10.7-1.2-13.6   c-3.1-3.2-7.4,0.3-11.1,0.4c-3,0-10.6,0.7-11.3-3c5.8,0.2,11.4,1.6,17.1-0.6c1.5-0.5,3-0.7,4.4,0.4C653.4,249,653.6,249,654,247.9z   " />
	<path fill="#090912" d="M562.9,244.4c-5.7-5-12.5-7.8-18.4-12.6c1.3-0.1,1.9-0.2,2.6-0.2c9,5.7,24.4,14.5,28.6,24.2   C570.9,252.5,567.9,247.5,562.9,244.4z" />
	<path fill="#4B65C6" d="M588,252.4c2.2,1.9,5.5,3,5.7,6.4c-4,1.4-7.7-0.7-11.5-1.8c-0.4-0.7-0.9-1.5-1.2-2.1c0.5-1.5,0-3.1,1.4-3.9   c0.1,0.3,0.1,0.7,0.2,1C584.3,252.7,586.2,252.2,588,252.4z" />
	<path fill="#17192F" d="M588,252.4c-1.8-0.2-3.7,0.3-5.5-0.4c-0.1-0.4-0.1-0.7-0.2-1c1,0,1.9,0,3,0c0.3-0.4,0.7-0.9,1.1-1.3   c1.4-0.2,2.8-0.3,4.2-0.5c0.1-0.5,0.2-0.8,0.3-1.2c6.6,3.4,7-8.2,12-10.1c0.6,0.6,2.2,1.5,0.9,2.3c-0.1-0.2-0.3-0.3-0.4-0.5   c-2.5,2-5,6.4-5.4,9.1c-0.1,0.5,1.1,1.1-0.1,1.4C594.7,247.8,591.6,251.6,588,252.4z" />
	<path fill="#101120" d="M580.8,272.5c0.1-0.2,0.2-0.4,0.4-0.8c11,5.2,22.6,8.7,34.3,12.1c-0.3,0.2-0.6,0.4-0.8,0.7   C602.6,282.6,591.4,278.4,580.8,272.5z" />
	<path fill="#4B65C6" d="M566.4,275.3c-4.9-1.4-9.8-1.9-14-5.3c2.5-2.3,4.6,0.4,7.4,0.2c0-0.5,0-0.9,0.1-1.2c2,2,4.5,2.3,7.2,2   C567.4,272.5,566.7,273.9,566.4,275.3z" />
	<path fill="#10111E" d="M654.1,240.1c-1.6-4.4-3.4-8.6-5.7-12.8c-3.8,0.2-6.3,3.2-10,3.4c1.6-2.7,3.2-3.6,8.9-4.6   c0.7-1.4-1.4-2.8-0.2-4.4c3.6,5,6.3,12.2,7.7,18.4C654.6,240.1,654.3,240.1,654.1,240.1z" />
	<path fill="#191E32" d="M653.4,250.9c2.1,2.9-0.8,10.6,1.2,13.6c0.6,8.8-4.5,17.1-4.8,25.8c-0.3,0-0.5,0.1-0.8,0.1   c-0.2-4.7,0.9-9.2,2.2-13.6C654,268.3,653.3,259.6,653.4,250.9z" />
	<path fill="#151830" d="M542.3,249.4c6,3.7,11.1,8.2,17,12.3c-1,0-1.6,0-2.2,0l0,0c-5.4-3.9-11.3-7.3-16.6-11.3   c-0.1-0.2-0.1-0.4-0.2-0.6c-0.2,0.1-0.3,0.2-0.5,0.4c-0.3-0.2-0.5-0.4-0.8-0.5c-0.1-0.4-0.2-0.9-0.7-0.2c-0.5-0.4-1-0.7-1.5-1.1   c0-0.5,0.1-1-0.1-1.5c0.8,0.2,1.6,0.4,2.4,0.5l0,0c0.3,1.1,1,1.6,2.2,1.5l0,0C541.7,248.9,542,249.2,542.3,249.4z" />
	<path fill="#1D2243" d="M555.6,269c-8.2-1.5-15.9-6.1-24.1-8.1c0.2-0.2,0.4-0.5,0.6-0.7c4.1,1.3,8.1,2.7,12.2,3.7l0,0   c0.5,0.8,1,0.8,1.5,0l0,0c3.8,0.8,6.8,3.7,10.7,4.4C556.1,268.5,555.8,268.7,555.6,269z" />
	<path fill="#455BB1" d="M548.5,283.2c-4.7-2.1-10.1,0.7-15.2-0.1c-4.7-2.2-11.5,0.9-16.5-1.3c4.4-0.5,9.6,0.9,13.6-0.6   c6.8-0.4,13.8,1.5,20.2-0.1C550,281.8,549.3,282.5,548.5,283.2z" />
	<path fill="#1B213B" d="M566.4,275.3c1.7-7.4,0.4-15.8,6.6-21.6c0.2,0.2,0.5,0.5,0.7,0.7c-6,6.1-3.8,14.3-6.2,21.7   C567,275.8,566.7,275.6,566.4,275.3z" />
	<path fill="#151424" d="M649.1,290.4c2.6-0.3,4.7-2.1,7.8-2.1c-5.2,3.5-15.3,6.9-19.2,6.5C640.7,292.3,645.5,292.2,649.1,290.4z" />
	<path fill="#0B0B14" d="M558.6,226.6c2.2,3.3,5.1,5.4,9.1,5.6c0.3,0,0.6,0.5,0.9,0.8c-4.7,2.3-9.6-2.2-12.3-5.7c0-0.8,0-1.6,0-2.9   C557.4,225.3,558,225.9,558.6,226.6z" />
	<path fill="#141423" d="M651.9,314.7c-4.1,1-8,3.7-12.2,3.4c4-3,9.3-3.5,13.8-5.7l0,0c0,0.8,0.6,0.8,1.2,0.9   c-0.2,0.2-0.3,0.5-0.5,0.7c-0.5,0.2-1,0.5-1.5,0.7l0,0C652.4,314.2,652.2,314.1,651.9,314.7z" />
	<path fill="#17172E" d="M539.3,247.3c-0.8-0.2-1.6-0.4-2.4-0.5c-0.1,0.1-0.1,0.1-0.2,0.2c0.1,0.1,0.2,0.2,0.4,0.3c0,0.3,0,0.7,0,1   c-1.6-0.8-3.4-1.3-4.9-2.4l0,0c-0.3-0.2-0.5-0.5-0.8-0.7l0,0c-0.3-0.2-0.5-0.5-0.8-0.7l0,0c-0.3-0.2-0.5-0.5-0.8-0.7   c0.3-1.3,1.9-0.6,2.9-0.7l0,0C535.2,243.9,537.3,245.5,539.3,247.3z" />
	<path fill="#4C65C5" d="M589.5,268.8c-3.7,0.3-7.1-1.7-10.8-1.4c0.5-1.4,1.9-1.5,3.1-2.2C584.3,266.5,587.3,266.8,589.5,268.8z" />
	<path fill="#2E3B72" d="M555.7,250.9c-6.4-6.1-8.2-6.2-9-8.9c2.2-0.5,7.3,6.7,9.8,8.2C556.2,250.4,555.9,250.7,555.7,250.9z" />
	<path fill="#1F2844" d="M652.6,314.8c0.5-0.2,1-0.5,1.5-0.7c-0.6,3.9,0.9,7.6,1.2,11.5c-1,0.5-0.4,1.5-0.7,2.3   C653.3,323.7,653.4,319.1,652.6,314.8z" />
	<path fill="#18111F" d="M535.6,281c-4.3,0.1-8.9,0.6-13.1-0.6c0.3-0.2,0.6-0.5,0.9-0.7c4.1,0.3,8.1,0.5,12.2,0.7   C535.6,280.6,535.6,280.8,535.6,281z" />
	<path fill="#1C2141" d="M548.5,283.2c2.7-2.1,4.9-5.3,8.3-6c-2.5,2.6-5.7,6.2-9,7.2C548.1,284,548.3,283.6,548.5,283.2z" />
	<path fill="#495BA8" d="M532,260.1c-0.2,0.2-0.4,0.5-0.6,0.7c-4-1.2-8-2.5-12.6-3.9C523.5,256.7,527.8,258.3,532,260.1z" />
	<path fill="#111222" d="M560.1,234.4c-2.8,1-5.6-3-7.6-5C555.6,229.7,558,232.4,560.1,234.4z" />
	<path fill="#1F2039" d="M582.8,262.3c3.7,0.9,6.8,1.7,9.8,2.4C589.4,265.4,584.2,265.5,582.8,262.3z" />
	<path fill="#303864" d="M579.4,286.8c-2.3-1.3-4.6-3.7-5.5-6.2c2.5,0.4,4.3,3.7,6.2,5.5C579.9,286.3,579.6,286.5,579.4,286.8z" />
	<path fill="#1E203D" d="M578.7,267.4c3.4-0.2,6.5,1.3,9.9,1.5c-2.5,2-7-0.1-9.9-0.7C578.7,267.9,578.7,267.6,578.7,267.4z" />
	<path fill="#191B33" d="M579.4,286.8c0.2-0.2,0.5-0.5,0.7-0.7c2.4,1.9,4.8,3.8,7.3,5.7c-0.3,0.3-0.5,0.5-0.8,0.8   C584.2,290.6,581.8,288.7,579.4,286.8z" />
	<path fill="#171427" d="M535.6,281c0-0.2,0-0.4,0-0.6c4.4-0.1,8.4,0.7,12.8,0.7C544.9,282.9,539.6,281.5,535.6,281z" />
	<path fill="#3E4373" d="M516.9,281.8c0.5,0.2,1,0.5,1.5,0.7c0,0.2,0,0.4,0,0.6c-0.7,0-1.4,0-2.1,0c-0.6-0.9-1.4-0.6-2.2-0.6   c-2.6-0.1-5.1-0.5-7.4-2C510.1,280.8,513.4,282,516.9,281.8z" />
	<path fill="#2E3B69" d="M518.4,283.1c0-0.2,0-0.4,0-0.6c4.8,0.5,10.7-1.1,15,0.6C528.4,283.1,523.4,283.1,518.4,283.1z" />
	<path fill="#374686" d="M555.7,250.9c0.2-0.2,0.5-0.5,0.7-0.7c1.8,1.7,4.3,2.8,5.8,5.2C559.4,254.4,558.2,253.5,555.7,250.9z" />
	<path fill="#180F17" d="M506.2,277.5c3.1,0.5,6.2,1,9.3,1.5c0,0.2,0,0.4,0,0.6l-0.1,0.1c-3.2,0.1-6.3-0.5-9.3-1.5   C506.2,278,506.2,277.7,506.2,277.5z" />
	<path fill="#171B2F" d="M654.1,240.1c0.3,0,0.5,0,0.8,0c0.9,2.4,0.9,3.5,0,5.8c-0.3,0-0.5,0-0.8,0   C654.1,244,654.1,242.1,654.1,240.1z" />
	<path fill="#445DB3" d="M604.6,256.7c0.2-1.4,0.6-2.6,2.2-3.7c-0.6,2.6-0.3,5.3-1.5,7.3C605.2,259,605.5,257.7,604.6,256.7z" />
	<path fill="#21223D" d="M504.8,278.1c-2-0.4-4-0.6-5.8-2.1c2.1-0.7,4.5,0.7,6.6,1.5C505.3,277.6,505,277.8,504.8,278.1z" />
	<path fill="#1A1018" d="M523.4,279.7c-0.3,0.2-0.6,0.5-0.9,0.7c-2.4-0.2-4.9,0.3-7.1-0.7l0.1-0.1   C518.1,278.7,520.8,279.7,523.4,279.7z" />
	<path fill="#4A5CA5" d="M577.1,239.5c0.4,2.5-0.6,4.3-1.7,6C575.6,243.5,575.5,241.5,577.1,239.5z" />
	<path fill="#232F5D" d="M555.6,269c0.3-0.3,0.6-0.5,0.8-0.8c1.2,0.2,2.3,0.5,3.5,0.7c0,0.3,0,0.7-0.1,1.2   C558.2,270.2,556.9,269.8,555.6,269z" />
	<path fill="#0F0810" d="M614.6,284.5c0.3-0.2,0.6-0.4,0.8-0.7c1.1,0.1,2.5-0.4,3.3,1.2C617.1,285.7,615.9,284.6,614.6,284.5z" />
	<path fill="#44508A" d="M537.3,289.8c-0.3,1.2-1.1,1.9-2.4,2.6C535.1,290.7,536.2,290.3,537.3,289.8z" />
	<path fill="#242744" d="M653.4,312.5c-0.3,0-0.5,0.1-0.8,0.1c0-1.5,0-3,0-4.5c0.1,0,0.3,0,0.4,0C653.4,309.5,653.5,311,653.4,312.5   z" />
	<path fill="#15090F" d="M585.9,236.7c0.8-0.1,1.7-0.1,3-0.3C587.7,237.6,587,238.2,585.9,236.7z" />
	<path fill="#2D3053" d="M644.7,278.2c1.6,0.3,2.3,0.9,2.9,2C646.1,280.4,645.6,279.5,644.7,278.2z" />
	<path fill="#262C4C" d="M568.2,279.1c1.2,0.6,1.4,1.4,0.8,2.6C567.9,281.1,567.6,280.3,568.2,279.1z" />
	<path fill="#455BB1" d="M545,280.9c-1.5,0-3.1,0.6-4.4-0.5C542,280.4,543.6,279.8,545,280.9z" />
	<path fill="#3A4E92" d="M562.3,288.4c-0.6,0.7-1.2,0.9-2.2,0.1c0.5-0.3,1-0.6,1.4-0.9C561.7,287.8,562,288.1,562.3,288.4z" />
	<path fill="#455BB1" d="M514,282.6c0.8-0.1,1.7-0.4,2.2,0.6C515.5,283.2,514.6,283.4,514,282.6z" />
	<path fill="#2F2940" d="M562.3,288.4c-0.3-0.3-0.5-0.5-0.8-0.8c0.6,0,1.1,0,2.5,0C562.9,288,562.6,288.2,562.3,288.4z" />
	<path fill="#0C0D14" d="M649.4,219.3c0.3,0.6,0.5,0.9-0.4,1.2C648.9,219.8,648.5,219.5,649.4,219.3z" />
	<path fill="#1C0F17" d="M516.9,279.2c-0.4,0.1-0.9,0.3-1.3,0.4c0-0.2,0-0.4,0-0.6C516,279,516.4,279.1,516.9,279.2z" />
	<path fill="#171B2F" d="M654,247.9c-0.4,1.1-0.6,1.1-1.4,0.2C653.1,248,653.5,248,654,247.9z" />
	<path fill="#242744" d="M654.6,313.4c-0.6-0.1-1.2-0.1-1.2-0.9C654,312.6,654.5,312.7,654.6,313.4z" />
	<path fill="#1D2243" d="M544.2,263.8c0.6-0.9,0.8-0.9,1.4,0l0,0C545.2,263.8,544.7,263.8,544.2,263.8L544.2,263.8z" />
	<path fill="#4B65C5" d="M534.2,243.7c-0.5-0.2-1-0.4-1.5-0.6C533.3,243,533.9,243,534.2,243.7z" />
	<path fill="#130A0F" d="M504.8,278.1c0.3-0.2,0.5-0.5,0.8-0.7c0.2,0,0.4,0,0.6,0.1c0,0.2,0,0.5,0,0.7   C505.7,278.2,505.3,278.1,504.8,278.1z" />
	<path fill="#17172E" d="M538.5,249.3c0.5-0.7,0.6-0.2,0.7,0.2C539,249.5,538.7,249.4,538.5,249.3z" />
	<path fill="#4B64C3" d="M556.4,261.1c0.3,0.2,0.5,0.4,0.8,0.6C556.9,261.5,556.7,261.3,556.4,261.1z" />
	<path fill="#1F2844" d="M651.9,314.7c0.3-0.6,0.5-0.6,0.7,0.1C652.4,314.8,652.1,314.7,651.9,314.7z" />
	<path fill="#4B65C5" d="M532.1,245.8c0.3,0.2,0.6,0.4,0.9,0.7C532.5,246.5,532.2,246.3,532.1,245.8z" />
	<path fill="#4B65C5" d="M531.3,245.1c0.3,0.2,0.5,0.5,0.8,0.7C531.8,245.6,531.6,245.3,531.3,245.1z" />
	<path fill="#4B65C5" d="M535.6,244.4c-0.3-0.2-0.6-0.4-0.9-0.5C535,244,535.3,244.2,535.6,244.4z" />
	<path fill="#4B65C5" d="M529.8,243.8c0.3,0.2,0.5,0.4,0.8,0.6C530.4,244.2,530.1,244,529.8,243.8z" />
	<path fill="#17172E" d="M539.9,250.1c0.2-0.1,0.3-0.2,0.5-0.4c0.1,0.2,0.1,0.4,0.2,0.6C540.3,250.4,540.1,250.3,539.9,250.1z" />
	<path fill="#4B65C5" d="M530.6,244.4c0.3,0.2,0.5,0.5,0.8,0.7C531.1,244.9,530.9,244.7,530.6,244.4z" />
	<path fill="#4B65C6" d="M594.2,259.1C593.9,258.9,594.1,259,594.2,259.1C594.1,259,593.9,259,594.2,259.1z" />
	<polygon fill="#F2BE10" points="388.8,450.9 388.7,450.8 388.8,450.7  " />
	<path fill="#EECABA" d="M661.9,146.1c0.3-0.2,0.7-0.6,0.7-0.5c1.8,1.5,5.7,2.3,3.9,5.5c-3.9,6.9-7.2,14.1-12,20.4   c-3.8,4.7-3.9,11.3-8.1,15.6c-8.4,7.5-14,21.7-26.4,22.9c15.9-13.3,26.9-30.6,35.3-49.5c0.9-2.6,8.1-9.2,4.7-11.2   c-2.2,1-2.4,3.7-4,5c-12.9-3.7-26.5-5.5-35.1-17.1c-5.8-0.9-9.2,6.2-13.5,9.1c-0.8-1.3-1.6-2.6-2.3-3.7c1.5-5.8,7.3-7.4,10.8-11.9   c-4.6-0.8-16.8-6-15.7-11.6c5.8-7.2,16.2,1.4,23.9,1.2c6.3,1.8,14.9-1,20,3c-4.6,4.8-10,6.6-16.5,7.2c6.3,11.7,21.4,12,32.2,16.7   c1,1,1.9,0.1,2.7-0.8C662.3,146.3,662.1,146.2,661.9,146.1z M605.6,123.4c3.9,4,7.1,6.3,11.4,3.5   C612.9,125.9,609.9,122.4,605.6,123.4z M617.2,127.8c1.9,1.9,2.4,1.4,4-0.2C619.4,126.7,618.7,126.6,617.2,127.8z M625,126.4   c-1.4-1.3-1.4-1.3-2.4,0.1C623.9,127.4,623.9,127.4,625,126.4z M631.3,125c0.3,1.9,3,0.5,1.6-0.7C632,123.7,631.6,124.4,631.3,125z    M627.8,126.6c0.7,0,1.3,0,2,0C628.7,125.4,628.7,125.4,627.8,126.6z" />
	<path fill="#020101" d="M607.5,146.3c4.3-2.9,7.8-10.1,13.5-9.1c8.6,11.6,22.2,13.4,35.1,17.1c1.7-1.3,1.9-4.1,4-5   c3.5,1.8-3.8,8.6-4.7,11.2c-8.5,18.9-19.5,36.1-35.3,49.5c-5.4,2-11.8-3.6-16.7-0.1c-1.9,1.8-4.2,2.7-6.8,2.6c0-0.3-0.1-0.7-0.1-1   c3.3-1.9,6.7-4.1,10.3-5c1.6-1.6,1.9-3.7,4.5-3.6c-0.8,1.5-1.4,2.6-1.9,3.7c13,6.9,26.5-16.6,32.9-25.5c-3.8-8.9-4.6-18.5-5.2-28.2   c-3.9-1.5-7.6-3.3-10.7-6c-6,6.9-18.3,4.5-25.1-0.4c-16.8-15-13.8-42.8-6.2-61.8c2.3,2.4-2.6,9.2-2.1,12.8c1.3-0.5,2.4-0.9,3.4-1.4   c0.5,0.2,1.3-0.1,1.6,0.8c-1.9,1-3.7,2-5.6,3.1C589.6,110.3,593.3,146.9,607.5,146.3z M612.4,146.9c-0.6,0.2-0.6,0.6-0.2,1.2   c4.2-0.2,9.7,1.3,11.9-3.5c-1.6-1.7-2.5-4.1-4.5-5.9C617.1,141.6,614.9,144.3,612.4,146.9z M644.5,178.2c3.6-8.3,6.6-14.3,11-22   c-5.1-0.9-10-1.7-15-2.6C640.6,162.5,640.5,169.9,644.5,178.2z" />
	<path fill="#171011" d="M596.6,211.4c0,0.3,0.1,0.7,0.1,1c-1.7,1-3.4,2-5,3c-0.2,1.7,1.2,2.1,1.9,3.1c1.9,0.1,3.8,1,5.8-0.1   c-0.4,2.1-3.1,0.1-4.2,1.6c-1,0.1-2.1,0.2-3.1,0.2c-1.5-0.9-2.1-2.3-2.7-3.8c0.2-0.8,0.5-1.6,0.7-2.3c0.8-0.4,1.5-0.8,2.2-1.2l0,0   C593.7,212.1,595.1,211.8,596.6,211.4z" />
	<path fill="#1E1816" d="M611,248.2c-0.3-0.3-0.5-0.6-0.8-0.9c1.3-3.3,1.9-12.4,6.5-11.8C614.4,239.5,613.3,244,611,248.2z" />
	<path fill="#141110" d="M682.5,164.6c1.3-2.7,1.7-6.3,3.6-8.5C689.6,156.1,685.3,167.3,682.5,164.6z" />
	<path fill="#110D0C" d="M650.7,126.5c-4.3-0.4-6-4.7-5-8.4c0.6,0,1,0,1.6,0C648.3,120.9,649.7,123.4,650.7,126.5z" />
	<path fill="#261E1C" d="M645.4,211.4c-1.5,0.9-4.5,2.7-5.3,0.1c1.6-1.4,3.1-2.7,4.9-3.8C646.9,209,645.6,210.3,645.4,211.4   C645.3,211.5,645.4,211.4,645.4,211.4z" />
	<path fill="#030101" d="M683.5,151.9c0-2.3,0.1-4.7,0.1-7.5c2.9,1.2,2.3,5.1,1,7.4C684.1,151.9,683.8,151.9,683.5,151.9   C683.4,151.9,683.5,151.9,683.5,151.9z" />
	<path fill="#2D2522" d="M613.3,84c-0.8,1.6-6.1,4.2-6.7,2.1C608.4,84.4,610.4,83.3,613.3,84z" />
	<path fill="#251A18" d="M680.7,156.3c-1.4,1.4-2.9,2.8-4.7,3.6c-2-2.3,2.5-3.5,3.9-4.5C680.1,155.7,680.4,156,680.7,156.3z" />
	<path fill="#282724" d="M682.4,164.2c-0.9,2.1-1.3,3.7-2.8,4.7C677.5,167.6,679.5,164.8,682.4,164.2z" />
	<path fill="#1A1615" d="M616,223.1c0.2-0.1,0.4-0.2,0.7-0.2c0.2,0.3,0.5,0.5,0.7,0.8c-0.7,2.2-1.7,2.9-4.1,2.6   C613.2,224.5,614.8,223.9,616,223.1z" />
	<path fill="#191513" d="M678,169.7c-0.4,2.1-1.1,3.4-2.7,4.3C674.7,171.2,675.1,170.5,678,169.7z" />
	<path fill="#3E322F" d="M680.7,156.3c-0.3-0.3-0.6-0.6-0.8-0.9c0.6-1.5,2.4-1.9,2.5-3.7c0.5,0.1,0.8,0.2,1.1,0.2l-0.1-0.1   C684.1,154,681.9,155,680.7,156.3z" />
	<path fill="#352926" d="M658.1,132.5c-2.8-1.3-3.1-1.7-2.5-3.6C657.2,129.4,657.5,130.8,658.1,132.5z" />
	<path fill="#302E2B" d="M603.8,90.9c-0.7,1-1.4,1.8-2.8,1.1C602.1,90.1,602.2,90,603.8,90.9z" />
	<path fill="#271C1A" d="M644.9,207.1c-0.3-0.5-0.5-0.8-0.6-1.1c0.7-1.4,1.8-1.4,3-0.8C647.3,206.6,646.3,206.8,644.9,207.1z" />
	<path fill="#422F2B" d="M649.7,201.5c1-2.3,1-2.3,3-2C652.4,201,651.3,201.1,649.7,201.5z" />
	<path fill="#342F2C" d="M621.6,228.9c0,1.1-0.4,1.9-1.7,2.5C618.6,230.4,620.1,227.5,621.6,228.9z" />
	<path fill="#4D3F3A" d="M647.9,202.1c0.9,0,1.1-0.2,1.8,0.6c-0.5,0.5-1,1.1-1.5,1.6C646.9,203.5,647.6,202.9,647.9,202.1z" />
	<path fill="#37312D" d="M674.2,159.6c-0.5,0.7-0.8,1.2-1.1,1.6C670.7,160.9,672.4,157.5,674.2,159.6z" />
	<path fill="#4F3430" d="M617.4,223.7c-0.2-0.3-0.5-0.5-0.7-0.8c0-2.2,0-2.2,2.2-2l-0.1-0.1C618.4,221.8,617.9,222.7,617.4,223.7z" />
	<path fill="#3B312D" d="M672.8,175.6c-0.7,1-1.1,1.6-1.6,2.3C670.1,176.1,670.3,175.8,672.8,175.6z" />
	<path fill="#4D2925" d="M608.2,217.1c0-0.5,0-1.1,0.1-1.6c1,0.1,2.1,0.2,3.7,0.3C610.4,216.7,609.4,217.1,608.2,217.1z" />
	<path fill="#201413" d="M651.9,126.6c1.5,0.3,2.1,1,2.2,2.1C652.8,129.7,651.5,128,651.9,126.6z" />
	<path fill="#3B312D" d="M618.9,220.8c0-1.4-0.3-3.5,1.9-2.1C620.6,219.9,619.9,220.5,618.9,220.8   C618.8,220.8,618.9,220.8,618.9,220.8z" />
	<path fill="#4C3430" d="M598.1,96.6c-0.2-0.8-1-0.6-1.6-0.8c0.9-0.9,1.9-0.7,2.9-0.6C599.4,96.3,598.9,96.6,598.1,96.6z" />
	<path fill="#504440" d="M622.1,227.9c-0.6-1.4-0.3-2.1,0.8-2.6C623.8,226.3,623.1,227,622.1,227.9z" />
	<path fill="#7F6D65" d="M625.4,223.7c-0.4,0.3-0.7,0.4-0.9,0.6C623.5,223.4,624.7,222.4,625.4,223.7z" />
	<path fill="#86766E" d="M661.8,133.7c-1.3,0.7-1.3,1.1-1.9,0.1C660.6,133.1,660.8,133.3,661.8,133.7z" />
	<path fill="#171011" d="M597.1,212.3c0.6,0,1.2,0,1.8,0C598.3,212.8,597.7,212.8,597.1,212.3z" />
	<path fill="#4F3430" d="M616,223.1c-0.3,0.2-0.6,0.3-0.8,0.5C615.5,223.4,615.8,223.3,616,223.1z" />
	<path fill="#4D3630" d="M661.9,146.1c0.2,0.1,0.4,0.2,0.6,0.2c-0.2,0.2-0.4,0.3-0.6,0.5C661.9,146.6,661.9,146.4,661.9,146.1z" />
	<path fill="#ECC8B9" d="M684.3,387.2c-6.4-0.5-10-8.6-14.4-12.6c-0.5-3.5,0.7-5.1,4.4-4.5c5,4.4,8.7,10.2,11.4,16.3   C685,386.3,684.5,386.5,684.3,387.2z M677.7,377.3c-1.6-1.1-3.8-6.4-5.8-4.7c1.1,2.7,2.9,4.9,5.8,6c1.1,2,1.7,4.3,4.6,5.7   C681.2,381.3,679.3,379.3,677.7,377.3z" />
	<path fill="#221F1B" d="M662.1,359.1c2.5,1.1,1,7.3-1.4,8C660,364.1,661.2,361.7,662.1,359.1z" />
	<path fill="#0D0806" d="M652.1,357.7c-0.2-2.2-1-4.5-0.2-6.8C653.7,351.8,653.7,352.8,652.1,357.7z" />
	<path fill="#31231F" d="M684.3,387.2c0.2-0.6,0.7-0.9,1.4-0.8c0.4,0.8,0.8,1.6,1.3,2.5c-1.2,0.4-1.5-0.5-2.2-0.8   C684.6,387.7,684.4,387.4,684.3,387.2L684.3,387.2z" />
	<path fill="#40342D" d="M661.2,372.1c-0.3,0-0.7,0.1-1,0.1c-0.8-0.9-0.4-1.9-0.3-2.9C661.6,368.9,661.2,371,661.2,372.1z" />
	<path fill="#645950" d="M709.7,434.4c-1.3-1-1.3-1-0.8-2.4C710.1,432.5,710.4,433.3,709.7,434.4z" />
	<path fill="#291F18" d="M692.1,398c2.1,0.6,2.1,0.7,1.1,2.2C692.8,399.6,692.6,399,692.1,398z" />
	<path fill="#502F25" d="M688.6,391.6c0.8,0.5,1.3,1.4,0.7,1.8C688.3,393,688.4,392.7,688.6,391.6z" />
	<path fill="#362820" d="M712.9,441.1c1.6,2.6-1.3,3-0.8,0.1C712.4,441.2,712.7,441.2,712.9,441.1z" />
	<path fill="#8C7563" d="M711.5,439.1c-0.7-0.6-0.8-0.8-0.2-1.4C712.1,438.1,712.1,438.3,711.5,439.1z" />
	<path fill="#1E120E" d="M652.5,362.3c-1.5-0.8-0.8-0.7,0-2.1C652.5,361.2,652.5,361.6,652.5,362.3z" />
	<path fill="#ECC8B9" d="M684.3,387.2c0.2,0.3,0.4,0.5,0.5,0.8C684.6,387.7,684.4,387.4,684.3,387.2z" />
	<path fill="#120D0C" d="M520.5,298.9c1.8,0.2,3.8-0.6,5.5,1c-0.2,0.4-0.3,0.8-0.5,1.2c-2.8,0.5-5.6,1.8-8.4,1.2   C515.7,299.8,519,299.6,520.5,298.9z" />
	<path fill="#211E1C" d="M487.6,289.4c0.3-1.4,0.3-1.5,2.1-1.2c1.6,1.4,3.1,2.1,4,4.3C490.9,292.6,489.7,290.6,487.6,289.4z" />
	<path fill="#26201A" d="M559,362.4c3,0.8,3.3,3.2,4.8,5C561.1,368.7,560,365.1,559,362.4z" />
	<path fill="#2C1D1B" d="M532,339.9c-0.2-0.5-0.5-1-0.7-1.5c2-0.9,2-0.9,3.7,0.8c-0.1,0.2-0.1,0.4-0.1,0.6   C533.9,339.9,532.9,340.2,532,339.9z" />
	<path fill="#2D1C1A" d="M537.7,340.6c0.5-2.7,3.2-1.1,2.9,0.7C539.5,341.7,538.6,341.2,537.7,340.6z" />
	<path fill="#403C33" d="M557.1,359.3c2.1,0,2.3,0.4,1.9,2.6C557.5,361.8,557,360.9,557.1,359.3z" />
	<path fill="#392E27" d="M553.8,352.4c0.5,1.1,0.8,1.8,1.3,2.9C552.8,356.2,551.7,353.6,553.8,352.4z" />
	<path fill="#473430" d="M512.6,302.3c-0.4,1.2-1.1,0.7-2,0.7C510,301.9,511.9,301.7,512.6,302.3z" />
	<path fill="#786A63" d="M502.7,291.5c0.6-0.8,1.7,0,1,0.8C503,292.6,502.8,292.1,502.7,291.5z" />
	<path fill="#55534E" d="M510.5,311.9c-0.2-0.5-0.5-0.9-0.7-1.4C511,310.2,511.8,311.3,510.5,311.9z" />
	<path fill="#EECABA" d="M532.8,340c0.7-0.1,1.4-0.2,2-0.3C534,340.9,534,340.9,532.8,340z" />
	<path fill="#542724" d="M494.7,291.5c0.5-0.6,0.7-0.2,1.1,0.2C495.3,291.9,495,291.9,494.7,291.5z" />
	<path fill="#3B2907" d="M283.3,586.9c-3.4,1.9-3.5,2-5.2,1.7C279.2,586.6,280.8,586.5,283.3,586.9z" />
	<path fill="#5B3F0C" d="M168.9,521.4c-1.8-0.2-2.8-1.4-3.6-2.9C167,518.9,168,520,168.9,521.4z" />
	<path fill="#5E470F" d="M165.3,518.6c-0.5,0-1,0-1.5,0C164.4,517.6,164.6,517.6,165.3,518.6z" />
	<path fill="#0D0A09" d="M519.1,334.2c-4.3-0.6-13.6-15.7-9-17.8c2.5,6.2,5.1,12.7,10.5,17C520.4,334.2,519.7,334.1,519.1,334.2z" />
	<path fill="#261B18" d="M499.7,308.9c-2.7,0.4-3.9-0.8-5.5-2.2C496.4,305.3,498.2,306.9,499.7,308.9z" />
	<path fill="#423732" d="M524.8,337.5c-0.2-3.5,4.1-1.5,2.5,1C526.5,338.1,525.6,337.8,524.8,337.5z" />
	<path fill="#433531" d="M519.1,334.2c0.6-0.1,1.3,0,1.5-0.8c1,0.5,2,1,2.8,2.2C521.5,335.8,520.3,335.1,519.1,334.2z" />
	<path fill="#BC970E" d="M279.4,481.1c-0.3-0.2-0.6-0.3-0.8-0.5C278.8,480.8,279.1,481,279.4,481.1z" />
	<path fill="#BC970E" d="M280.8,482c-0.3-0.2-0.6-0.4-0.9-0.6C280.2,481.6,280.5,481.8,280.8,482z" />
	<path fill="#BC970E" d="M281.6,482.5c-0.2-0.2-0.5-0.3-0.7-0.5C281.1,482.2,281.3,482.3,281.6,482.5z" />
	<path fill="#100D0B" d="M659.3,380.7c-1-1.7-1-1.7,0.1-2.8C660.1,380.1,660.1,380.1,659.3,380.7z" />
	<path fill="#3E2F2A" d="M633.3,349.1c0.8,0.9,1,1.5,0,2.3C632.4,350.5,632.3,350,633.3,349.1z" />
	<path fill="#241D19" d="M660.5,374.4c-0.3,0.8-0.3,1.8-1.3,2.9c-0.1-1.2-0.1-1.9-0.2-2.9C659.6,374.4,660,374.4,660.5,374.4   L660.5,374.4z" />
	<path fill="#7B6559" d="M654.9,382.8c0-0.4,0-0.7,0-1.1c0.1,0,0.2,0,0.3,0c0,0.4,0,0.7,0,1.1C655.1,382.8,655,382.8,654.9,382.8z" />
	<path fill="#B1897B" d="M633.8,347.7c-0.1-0.1-0.2-0.3-0.2-0.4c0.3,0,0.6-0.2,0.8,0.2C634.2,347.5,634,347.6,633.8,347.7z" />
	<path fill="#17203E" d="M610.2,313.4c0.4-0.2,0.8-0.4,1.2-0.6c0.7,0.5,1.9,1.9,2.4,0.5c1.9,1.1,3,2.9,4.3,5   c-2.7-0.6-2.1-2.4-4.9-1.5C612.2,315.7,611.2,314.5,610.2,313.4z" />
	<path fill="#1A1E3A" d="M588.8,296.8c-0.2,0.2-0.5,0.5-0.7,0.7c-3.4-2.3-6.6-4.9-9.3-8.2C582,290.3,585.7,294.6,588.8,296.8z" />
	<path fill="#31488C" d="M597.3,301.2c2,1.5,4.4,2.6,5.8,4.9l0,0c-2.5-0.6-4.3-2.9-6.5-4.3C596.8,301.7,597,301.4,597.3,301.2z" />
	<path fill="#5876E8" d="M609.5,315.5c-0.2-0.1-0.3-0.2-0.5-0.3C609.2,315.3,609.4,315.4,609.5,315.5L609.5,315.5z" />
	<path fill="#4C68CD" d="M598.1,248.8c0.4-2.7,2.8-7.1,5.4-9.1c0.1,0.2,0.3,0.3,0.4,0.5C602.5,243.4,601.4,247.1,598.1,248.8z" />
	<path fill="#15100F" d="M523.9,71.6c-2.2,0.9-4,0.7-6-1.6c1.5,0.2,2.5,0.3,3.6,0.4c2.5-2.8,6.5-2.9,9.5-5c2.1,1.7,4.4,0,6.7,0.5   c-1,2.2-4.3,2.1-6.6,1.5C529.1,69.4,526.9,71.8,523.9,71.6z" />
	<path fill="#DBBDAE" d="M530.4,98.6c-0.7,0-1.4,0-2.2,0c-0.5-0.5-1-1.2-1.1-2c1.9-1.2,4.9-1.5,7.1-2.1c0.1,0.9-1,1.8,0,2.7   C532.9,97.7,531.7,98.2,530.4,98.6z" />
	<path fill="#2A201D" d="M523.9,71.6c0.4,0,0.8,0,1.2,0c4.6,4.1,5.5-1.3,9.1-1.1C532.9,75.2,525.9,76.1,523.9,71.6z" />
	<path fill="#3C312D" d="M534.2,94.6c-0.2-0.1-0.5-0.1-0.7-0.1c-0.3-0.3-0.6-0.5-0.9-0.8c0.3-0.6,0.6-1.2,0.9-1.8   c1.4-0.4,2.5-0.3,3.3,1C536.6,94.6,535.2,94.2,534.2,94.6z" />
	<path fill="#241311" d="M559.7,111.4c1.9-1.3,1.9-1.3,5.8-1C563.9,112.3,562.1,112,559.7,111.4z" />
	<path fill="#624C46" d="M549.3,108.8c-0.2-0.4-0.4-0.8-0.8-1.4c1.9,0.1,3.4,0.5,4.2,2.1C551.4,110,550.4,108.8,549.3,108.8z" />
	<path fill="#2C2B28" d="M558.2,123.3c-0.5-2.1-0.5-2.1,1.6-3.5C560.3,121.5,559.3,122.4,558.2,123.3z" />
	<path fill="#463D39" d="M530.4,98.6c1.3-0.4,2.5-0.9,3.8-1.3l0,0c0,0.3,0.1,0.5,0.1,0.8c-0.9,0.8-1.9,1.3-3.1,1.3   C531,99.1,530.7,98.9,530.4,98.6z" />
	<path fill="#141210" d="M567.9,70.7c1.7,1.1,1.7,1.5,0,2.9C567.9,72.5,567.9,71.7,567.9,70.7z" />
	<path fill="#110B0A" d="M556.5,112.8c-1.2-1-1.7-1.6-1-2.7C556.9,110.4,556.8,111.3,556.5,112.8z" />
	<path fill="#EDC9B9" d="M561.6,94.4c1,1.3,1,2.5,0,3.8l-0.1-0.1c0-1.2-0.1-2.3-0.1-3.5L561.6,94.4z" />
	<path fill="#1B1C1A" d="M570,75.7c0,0.8,0,1.4,0,2.2C568.5,76.7,568.5,76.5,570,75.7z" />
	<path fill="#755F58" d="M561.4,118.5c0.4-0.3,0.7-0.6,1.1-0.9C562.7,118.9,562.7,118.9,561.4,118.5z" />
	<path fill="#DBBDAE" d="M534.3,98.1c0-0.3-0.1-0.5-0.1-0.8C534.8,97.5,535,97.7,534.3,98.1z" />
	<path fill="#DDC8BE" d="M556.3,52.1c0.1-0.3,0.2-0.6,0.4-0.9c2.3-0.4,3.5,2.8,2.2,4.3C557.3,54.4,557.3,54.4,556.3,52.1z" />
	<path fill="#B7BDD5" d="M610.3,150.5c4.8,0,10,1,14.3-1.6c1.7,4.6,5.7,7.7,6.5,12.9c-0.4,0.5-0.9,1-1.5,1.7   c-1.6-0.7-3.1-1.4-4.7-2.1c-0.1,0.5-0.3,0.9-0.4,1.4c-1.1-1.4-1.2-3.6-3.2-4.3c-0.4,0.2-0.7,0.4-0.9,0.6c-0.3-0.5-0.5-0.9-0.8-1.4   c0.4-0.1,0.8-0.2,1.4-0.4c-1.2-1.7-1.2-4.8-3.6-4.8c-0.1-0.3-0.2-0.7-0.3-1.3C615,150.8,611.9,152,610.3,150.5z" />
	<path fill="#B8BDD5" d="M606,176.3c-2.2,0.5-4.4,2.9-6.1-0.1c-2.1-4.6,7.4-7.1,8.3-2C606.3,174.4,606.2,174.4,606,176.3z" />
	<path fill="#131213" d="M611.9,170.8c-0.7-3.1,0.5-5.2,2.4-7.4C615.1,166.4,614.4,169.4,611.9,170.8z" />
	<path fill="#B9BED6" d="M611.6,182.5c-0.6,2.3-4,2.2-4.8,0.4C607.4,180.5,609.9,180.9,611.6,182.5z" />
	<path fill="#27262A" d="M617.4,152.5c2.4,0,2.4,3.1,3.6,4.8c-0.6,0.2-1,0.3-1.4,0.4C618.4,156.2,617.2,154.6,617.4,152.5z" />
	<path fill="#272528" d="M616,179.9c0.3-1.9,0-3.9,1.9-5.6c0.9,2.1,0.4,3.8-0.2,5.7C617,179.9,616.5,179.8,616,179.9L616,179.9z" />
	<path fill="#211F21" d="M626.5,168.2c-1.8,1-4.5-2.1-2.6-3.3C625.7,164.3,626.8,166.4,626.5,168.2z" />
	<path fill="#131112" d="M620.4,159.1c0.3-0.2,0.6-0.4,0.9-0.6c2,0.7,2.1,2.9,3.2,4.3c-0.2,0.3-0.4,0.6-0.6,0.9   C621.7,162.7,621,161,620.4,159.1z" />
	<path fill="#242224" d="M615.9,179.8c0.4,1.6,0.5,3.2-1,4.3C612.6,183.2,614,179.8,615.9,179.8L615.9,179.8z" />
	<path fill="#2B2123" d="M601.1,154.4c-0.8-2.5,2.3-4.5,3.5-2.2C603.5,152.8,602.5,153.5,601.1,154.4z" />
	<path fill="#2A2123" d="M552.1,161.9c-0.1-2.4,3.9-1.4,3.6,0.7C554.4,162.9,553.1,162.8,552.1,161.9z" />
	<path fill="#342F33" d="M610.6,174c-2.4,0.5-2.2-1.9,0.1-3.3C611.4,171.9,611.2,173,610.6,174z" />
	<path fill="#201214" d="M597.3,156.9c-2.1-0.5-1.1-1.4-0.6-2.6c0.7,0,1.3-0.1,2.3-0.1C598.4,155.4,598.4,156.3,597.3,156.9z" />
	<path fill="#301C1F" d="M587.3,183.4c-0.5-0.4-1-0.8-1.5-1.1c0-1.1,0.8-1,1.4-1.1C588.6,181.9,589.3,183.2,587.3,183.4z" />
	<path fill="#2C2326" d="M606,176.3c0.3-1.9,0.3-1.9,2.1-2.1C607.9,175.3,607.5,177.3,606,176.3z" />
	<path fill="#110202" d="M592.3,183.1c-1.1,1.2-1.1,1.2-2.2,0C590.9,182.3,591.6,182.3,592.3,183.1z" />
	<path fill="#52494F" d="M611.3,200.1c-0.7-1-0.6-1.6,0.6-2.2C612.6,198.9,612.7,199.6,611.3,200.1z" />
	<path fill="#6F6E76" d="M609.2,193.8c0.8,0.2,0.7,0.9,0.8,1.5C608.8,195.6,608.7,194.3,609.2,193.8z" />
	<path fill="#69676F" d="M557.9,162.6c0.1-0.4,0.2-0.7,0.3-1.1c0.2,0.2,0.3,0.3,0.5,0.5C558.4,162.2,558.2,162.4,557.9,162.6z" />
	<path fill="#B7BDD5" d="M593.8,212.2c-0.5,0.2-1,0.4-1.4,0.7C592.6,212.1,593.2,212.1,593.8,212.2z" />
	<path fill="#B7BDD5" d="M597.3,156.9c0.3-0.2,0.5-0.4,0.8-0.5C597.8,156.5,597.6,156.7,597.3,156.9z" />
	<path fill="#C3C8E0" d="M597.5,220.7c2.5,0.1,3.6-2.1,5.6-3.5c0.5,0,1,0.1,1.8,0.1c-3.8,6.9-3.2,8.7-11.7,7.6   c0.8-1.4,1.5-2.6,2.3-4C596.1,220.9,596.8,220.8,597.5,220.7z" />
	<path fill="#19171A" d="M576.6,177.2c-2.4,3.2-11.1-4.4-11.3-6.8C569.3,171.6,572.1,175.6,576.6,177.2z" />
	<path fill="#242327" d="M571.5,192.4c-3.7-0.6-6.9-8.1-7.9-11.5C567,182.7,568.7,189,571.5,192.4z" />
	<path fill="#3C3A41" d="M573.5,196.8c0.9,1.9,1.8,3.8,2.9,6.2c-2.7-0.8-3.7-3.6-3.5-6.1C573.2,196.9,573.3,196.9,573.5,196.8z" />
	<path fill="#262327" d="M578.5,208.6c-2.7-1.5-2.9-1.8-2.4-4.2C577.7,205.4,577.9,207.1,578.5,208.6z" />
	<path fill="#291719" d="M583.9,181.6c-1.7,0-3-0.2-5-0.4C580.8,179.3,582.5,179.2,583.9,181.6z" />
	<path fill="#1B2024" d="M593.8,156.6c-0.9,1.8-1.2,1.8-2.5,0.7C592.2,155.9,592.2,155.9,593.8,156.6z" />
	<path fill="#323036" d="M580.3,213.7c-0.9-0.6-1.8-1.1-1.1-2.2C580.5,211,581.4,212.6,580.3,213.7z" />
	<path fill="#3E3239" d="M586.7,158.6c0.5-1.2,1-1.3,1.7-0.7C589.1,159.1,587.4,159.7,586.7,158.6z" />
	<path fill="#281E1C" d="M522.7,199.2c-0.1-0.3-0.2-0.6-0.4-1c3.9-0.5,6.7-1.4,10.4-3c0.8-1.6,5.9-5.5,7.3-3c-1.5,0.6-3.1,1.3-4.8,2   c-0.6,1-1.3,2.1-1.8,3C529.5,197.4,526.7,199.9,522.7,199.2z" />
	<path fill="#5B4742" d="M547.5,194.2c0.6,2.1,0.6,2.1-1.2,1.8C546.7,195.4,547,194.9,547.5,194.2z" />
	<path fill="#4664C4" d="M590.3,229.2c1.4-0.9,2.6-0.6,3.7,0.6c0.4-0.7,0.7-1.2,0.9-1.7C599.4,230.1,589.9,232.8,590.3,229.2z" />
	<path fill="#3D58AE" d="M581.7,228.3c2.4,0.3,4.8,0.2,7.7,1.5C586,230.2,583.5,230.8,581.7,228.3z" />
	<path fill="#495CB6" d="M598.1,229.8c-0.6-1.1-1-1.7-1.3-2.2c0.7-1,1.5-1.1,2.6-0.5C599.1,227.8,598.7,228.5,598.1,229.8z" />
	<path fill="#314486" d="M571.5,221.5c-0.2,0.1-0.4,0.2-0.5,0.3c-0.6-1.5-1.2-2.9-0.9-4.6c0.2,0,0.4,0,0.6,0.1   C571.8,218.5,571.4,220,571.5,221.5z" />
	<path fill="#1C264A" d="M570.7,217.2c-0.2,0-0.4-0.1-0.6-0.1c-0.7-0.7-1.5-1.5-2.2-2.2c0.3-0.7,0.5-1.4,0.8-2.1   C569.4,214.3,570,215.8,570.7,217.2z" />
	<path fill="#2B3D78" d="M573,222.9c0.2,0,0.4,0,0.6,0c0.9,1,1.6,1.6,2.8,2.4C574.1,225.4,573.7,225.1,573,222.9z" />
	<path fill="#160D0C" d="M561.4,94.5c0,1.2,0.1,2.3,0.1,3.5C559.8,97.9,559.7,94.8,561.4,94.5z" />
	<path fill="#342926" d="M560.7,89.8c0,1.4,0,2.1,0,3.4C559.8,92,559.6,91.2,560.7,89.8z" />
	<path fill="#1E0F0E" d="M524.9,116c-0.5-0.1-1-0.2-1.4-0.2c-0.3-1.1-0.7-3.4,1.3-2.3C524.8,114.3,524.8,115.1,524.9,116z" />
	<path fill="#55423D" d="M523.1,110.9c-1.3-0.3-1.1-1.3-1.1-2.1C523.3,107.7,523.8,109.1,523.1,110.9z" />
	<path fill="#1C264A" d="M567.3,214.9c0.2,0.1,0.4,0.1,0.5,0.1c-0.1,0.2-0.2,0.4-0.4,0.5C567.4,215.3,567.4,215.1,567.3,214.9z" />
	<path fill="#0E0C0C" d="M688.5,479.8c1-5.1,10.3,0.9,10.8,4C695.6,483.8,691.4,482,688.5,479.8z" />
	<path fill="#191718" d="M686.5,484.8c0.2-1.7,0.2-1.7,2-2.1c1.7,1.2,3.8,1.9,4.9,4.3C691,488.2,688.3,486.4,686.5,484.8z" />
	<path fill="#17172E" d="M541.4,248.7c-1.1,0.1-1.9-0.3-2.2-1.5C540.2,247.3,541,247.8,541.4,248.7z" />
	<path fill="#17172E" d="M542.3,249.4c-0.3-0.2-0.6-0.5-1-0.7C541.7,248.9,542,249.2,542.3,249.4z" />
	<path fill="#1A284F" d="M606.4,308c0.9,0.8,1.5,1.4,2.2,2C607.6,310.9,607,309.9,606.4,308z" />
	<path fill="#31488C" d="M603.1,306.2c0.9,0,1.5,0.3,1.9,1.2C603.8,307.6,603.4,307,603.1,306.2L603.1,306.2z" />
	<path fill="#5876E8" d="M537,247.2c-0.1-0.1-0.2-0.2-0.4-0.3c0.1-0.1,0.1-0.1,0.2-0.2C536.9,246.9,537,247.1,537,247.2z" />
	<path fill="#5876E8" d="M544.2,263.8c0.5,0,1,0,1.5,0C545.2,264.6,544.7,264.6,544.2,263.8z" />
	<path fill="#171210" d="M605.6,123.4c4.3-1.1,7.3,2.5,11.4,3.5C612.7,129.7,609.5,127.5,605.6,123.4z" />
	<path fill="#30221F" d="M617.2,127.8c1.5-1.2,2.1-1.1,4-0.2C619.6,129.2,619.1,129.8,617.2,127.8z" />
	<path fill="#312523" d="M625,126.4c-1.1,1-1.1,1-2.4,0.1C623.5,125,623.5,125,625,126.4z" />
	<path fill="#6A5A53" d="M631.3,125c0.5-1.8,3-0.5,1.6,0.8C632,126.3,631.6,125.7,631.3,125z" />
	<path fill="#060505" d="M627.8,126.6c1-1.2,1-1.2,2,0C629,126.6,628.4,126.6,627.8,126.6z" />
	<path fill="#FDFDFD" d="M644.5,178.2c-4-8.3-4-15.7-4.1-24.6c5.1,0.9,9.9,1.7,15,2.6C651.1,163.9,648.1,169.9,644.5,178.2z" />
	<path fill="#E8C7B7" d="M613.2,146.1c2.1-2.4,4.2-4.8,6.4-7.5c2,1.8,2.9,4.2,4.5,5.9c-2.2,4.8-7.8,3.3-11.9,3.5   c-0.4-0.6-0.3-1,0.2-1.2c1.7,1.1,3.6,0.5,5.6,0.5c-0.1-0.7-0.1-1.3-0.1-1.9C616.1,145.5,614.9,145.7,613.2,146.1z" />
	<path fill="#F3DBCF" d="M613.2,146.1c1.6-0.4,2.9-0.6,4.7-0.7c0,0.7,0.1,1.2,0.1,1.9c-2,0-3.9,0.7-5.6-0.5   C612.7,146.7,613,146.4,613.2,146.1z" />
	<path fill="#1E1815" d="M677.7,378.6c-2.9-1.1-4.6-3.3-5.8-6c2-1.7,4.2,3.6,5.8,4.7C677.7,377.7,677.7,378.2,677.7,378.6z" />
	<path fill="#3F3731" d="M677.7,378.6c0-0.4,0-0.9,0-1.3c1.6,2.1,3.5,4,4.6,7.1C679.4,383,678.8,380.6,677.7,378.6z" />
</g>
</svg>