<?xml version='1.0' encoding='utf-8'?>
<svg xmlns="http://www.w3.org/2000/svg" version="1.2" baseProfile="tiny" id="Layer_2_00000075855774740874054500000003134470822631512984_" x="0px" y="0px" viewBox="0 0 900 600" overflow="visible" xml:space="preserve">
<g>
	<path fill="#010101" d="M483.6,20.3c3.1-9.7,11.4-17.9,21.8-13.5c3.9-5.9,20.6-8.2,26.9-6.1c-1.6,2.1-4.8-0.3-6.8,1.4   c-3.3,0.9-7.4,0-10.1,2.1c0.9,0.3,1.7,0.6,2.6,0.9c-4.4-0.4-8.3,0.6-10.6,4.6c-0.9,0.5-1.4,1.2-1.5,2.2c-0.4,0.5-0.7,0.9-1.1,1.4   c0.2,0,0.4,0.1,0.5,0.1c0,0,0,0,0,0c0,0.3-0.1,0.6-0.1,0.9c-1.5-0.3-2,1.4-2.9,2.2c-4.6,0.9-4.1,8.2-5.3,11.9   c-0.2,0.1-0.2,0.3-0.1,0.5c-2.1,8.6,0.2,18,7.2,23.6c0.6-1.9,0.5-2.9-1.1-4.1c0.3-0.4,0.7-0.8,1-1.2c1.9,1.1,2.9,2.6,4.2,4.3   c-0.5,1.1-1.3-0.4-2,0.4c-0.5,0.9-0.5,2,0.4,2.8c3.3,5.9,2.8,10.7-1.7,16.1c-2.8,6.9-10.9,5.4-16.1,8.2   c17.4,16.6,21.7,46.3,42.6,60.4c-0.3-1.4-0.6-2.7-0.8-4c0.3-0.5,0.5-1.1,0.8-1.6c2,2,1.1,4.6,3.1,6.9c3.7-12.2-7-25.6-5.2-36.9   c10.4,12.2,12.9,13.7,12.1,29.5c2.7,9.5,8,17.9,11.7,26.9c2.1,13.4-5.1,24.7-19.3,24.9c-0.4,14.2-6.1,27.3-14.7,38.7   c-11.3,19.6-10.4,41.5-12.5,63.3c-2.2-8.7,0.6-18.1-0.3-27.5c-1.5,2-2.8,3.6-4.1,5.2c0,3.4,0.3,6.8-1.8,9.7   c-0.4-0.2-0.7-0.3-1.2-0.6c-3.4,10.6-5.2,22-3.5,33.1c0.5,0.2,0.9,0.4,1.4,0.6c-0.1,2,1.8,5-0.1,6.4c-0.9-1.9-0.9-3.5-2.8-4.9   c-0.9,6.1-1.5,11.5-2.7,17.1c0.6,0.8,0.8,1.1,1.1,1.8c-0.2,2.5-2.1,4.3-2.2,6.6c2.6,0.6,2.5-3.7,4.4-4.1c0.4-1.5,0.7-2.6,0.9-3.8   c0.6,0,0.9,0.1,1.3,0.1L497,327c0.2,2.7-0.5,4.6-2.5,6.5c0.5,0.1,0.7,0.1,1,0.2c0.3,0.3,0.6,0.6,0.8,0.8c-0.7,0.9-2.4,1-2.1,2.7   c2,1.5,4.2,0.2,6.4,0.1c0.6,0.3,1.1,0.6,1.7,0.9c-4.1,1.1-8,2.3-12.3,3.1c-2.7,16.1-4.8,32.5-10.6,47.9c-1.8,6.4-6.7,11.5-8.2,17.8   c-0.2,5.3-0.4,8.8-2.5,12.8c-2.3-2.1-0.1-6.3-0.1-9c1.4-0.8-0.3-1.8-0.9-2.4c13.3-24.8,17.1-53.4,20.1-81c-9-2.4-18.4-5-27.6-5.8   c-4.3,18.8-9.1,37.6-14.8,55.9c-5.2,17-16.2,31.4-15.7,49.8c-2.2-2.9,0.3-7.5-1.5-10.9c-5.4,9.6-15.7,16.1-26.3,10.1   c33,8.8,48.8-79.1,55.4-103.5c-3.9-7.1-14.4-8.3-21.5-10.5c-10.8-2.6-21.2-8.9-31.7-10.6c-2.7,13.1-1.3,27.4-3,40.2   c-7.9-15.7-10.5-34.4-16.3-51.3c-2.6-1-5.1-1.9-7.1-3.6c-0.3-1.1-0.5-2.1-0.8-3.1c-0.5-0.1-0.8-0.1-1.3-0.2   c-0.3-3.4,0.8-6.9-0.5-10c-7.1,0.5-13.8-2.5-16.6,5.5c1.9,4.7,1,10,2.7,14.2c0.2,1.5,0.5,3.3-0.7,4.5c-0.5-1.2,0.8-2.7-0.7-3.7   c0.9-6.6-3.7-3.7-7.8-5.5c-1-4.1-0.7-8.6-2.9-12.2c-2.1-2.5-1.2-5.6-1.3-8.5c-7.4-3.4-7-10.4-6.6-17.4c-10.3-5-8.1-18.3,0.8-23.9   c22.7,6.3,17.9-26.2,22-40.1c3.7-10.8,3.6-22.8,7.3-33.8c2.7-5.7-0.1-13.9,5.7-17.8c11-5.2,20.5-12.4,31.1-18.2   c1.5-0.3,2.8-0.8,2.6-2.7c23.5-9.4,42.4-27.5,67.4-33.1c6.8-15.4,3.7-33.4,2.2-49.3c0.5,0.2,1,0.5,1.5,0.7   c4.1,13.3,4.4,25.9,1.3,39.3c2.3-5.9,3.4-12,4-18.3c0,0,0,0,0,0c4.1,6.2-1.8,16.4-3.8,23.2c-0.9,0.5-0.6,1.4-0.7,2.2   c-0.6,0.2-0.9,0.6-0.2,1.4c0.1-0.6,0.2-1,0.3-1.3c0.8-0.3,1.3-0.8,1.4-1.7c0.3-0.2,0.5-0.4,0.8-0.7c6.9,3,8.4-5.2,8.4-10.3   c0.5,0,0.9-0.1,1.4-0.1c0.5,3.5-0.8,6.1-0.6,9.6c1.1-0.3,2-0.6,2.9-0.9c3.1-7.3,4.1-16.6,1.7-24c-0.3,4.4-0.6,8-1.7,11.5   c-0.2,0-0.4,0-0.6,0c-0.6-5.8,2.4-11.9-1-17.3c-3.1-6.8-0.8-14.7,0.2-21.5c0.2-0.2,0.2-0.3,0.1-0.5c1.6-3.8,3.1-7.5,5.8-10.7l0,0   c0.8-0.2,0.8-0.9,0.8-1.5c0.7-0.2,1.4-0.4,1.3-1.4c-6.4-6.2-12.1,2-14.9,7.3c0,0,0,0,0,0c-0.6,0.7-1.1,1.5-1.5,2.3c0,0,0,0,0,0   c-0.5,0.8-1,1.5-1.4,2.3c0,0,0,0,0,0c-0.3,0.5-0.6,1-0.8,1.5c-0.2,0-0.3,0.1-0.5,0.1c-0.3-0.3-0.6-0.6-0.9-0.8   C483.6,21.3,483.6,20.8,483.6,20.3z M498,272.6c1.4-1.7,2.6-2.9,1.7-5.4c-24.2-9.4-46.7-23-69-36.3c-23.3,13.5-32.2,42.7-26.1,68.3   c11.7,3.1,22.8,7.7,34.3,11.3c6.8,1.2,15.3,2.7,18.9,9.3c1.2-5.8,5-10.8,4.4-16.5c-0.2-1,0.9-2.3,1.6-2.9c0.4,0.4,0.8,0.8,1.1,1.2   c-1.6,5.4-3.3,11.5-3.8,17.3c9,1.7,17.8,3.3,26.6,4.9c0.8-0.6,1.6-1.3,2.3-1.9c2.8-15.8,2.3-31.9,6.4-47.3   C497.3,274.2,497.8,273.5,498,272.6z M372.8,215.5c3.4-15.4,13.6-27.5,20-41.6c4.6-6.8,3.8-17.1,11.2-21.7   c24-13.6,50-24.9,75.7-35.3c0.1,0.6,0.1,0.9,0.1,1.3c-7.3,3.4-14,5.7-21.1,9.5c37.3,40.1,51.6-22.1,25.7-46.2   c-38.8,12.8-72.6,36.8-107.8,57.1c-3.7,18.4-7.8,36.9-11.3,55.4c-1.9,11.8-1.9,24.7-9.7,34.4c-1.3-0.1-2.2,0.3-2.3,1.7   c-5.9,2-8.9,8.5-14.9,10.3c-1.8,3.1,0.5,7.1,3.6,7.3c1.9,0.8-0.1,3.5,2,3.9c1,3.6,0.2,7.7,0.4,11.4c1,0.6,1.8,1.1,2.7,1.6   c1.9-2.4,2.5-5.1,3-8c0.4-0.2,0.8-0.4,1.2-0.6c0.4,0.5,0.7,0.9,1.1,1.4c1.3-2,3.7-2.7,4.8-4.9c0.5-1,1.8-1.9,3.5-2   c-1.2,4.1-0.8,8.3-3.7,11.5c-1.2,1.8-3.5,4.5-1.6,6.5c0.6,1.1,2.7,0.7,2.2,2.3c-0.3,0.2-0.6,0.4-0.9,0.6c-9.7-3.6,1.6-10.2,0.6-16   c-3.5,3.1-6.3,5.1-7.4,9.9c0.8,2,1.3,3.8,0.4,5.9c-0.6,1.4-0.1,2.7,0.6,3.9c2.2,3.6,2.1,8.1,3,12.1c2.4,0.7,2.4,0.7,4.3,0.2   c0.5-2.3-0.5-4.1-2.3-5.3c0.2-3.7,1.5-10.1,5.7-10.6c5.1-0.4,10.9-1.8,15.3,1.3c1.1,4.5,0.8,8.9,2.5,13.3c3.8,1.4,6.8,3.1,10.1,5.4   c1.2-2.4,3.9-3.9,3.4-7c3.7-8.1,8.8-15.1,9.5-24.5c-1-0.7-1.8-1.9-3.2-1.8c-3.3-0.3-4.8-3.1-7.6-5c-2.8,0-6.1,0-9.4,0   c-2.2-2.8-4.9-4.9-6.2-8.1c-0.4-1.1-1.2-1.9-2.6-1.9c-0.3,1-0.7,2.1-1,3.1c-2.5-5.2-0.9-12.3-2-18.1c-0.6-0.4-1.1-0.8-1.7-1.2   C370.4,223.2,371.5,219.3,372.8,215.5z M488,82.4c25.5,28.6,7.1,87.4-31.4,46.6c1.3,12.4,0.3,24.5,1.7,36.9   c26-0.7,48,14.6,71.8,22.7c0.5-1.9,0.9-3.6,1.3-5.2c35.4-5.5,13.2-34.4,4.7-54.5c-0.5,2,0.1,3.4,1.2,4.7c0,4.1,1.3,10.1-3.9,11.5   c-14.1-10.8-24.1-26.3-31.9-42.2c-2.2-5.9-9.4-21.3-15.5-22.6C487,81.3,487.5,81.8,488,82.4z M534.6,113.7c-0.6-0.9-1-2.1-2.2-2.8   c-0.4,1.4,0.3,2.2,1.1,2.9c1.8,5.8,3.7,10.2,5.4,12.4c0-2.5,0-4.9,0-7.5C537.5,117.1,536,115.4,534.6,113.7z M504.6,59.1   c0,1.6-1.3,3.4,0.9,5.2C505.2,62.3,506.1,60.6,504.6,59.1c0.5-1.7-1.7-4.8-3.8-4.6c0.2,5.1,0.4,10.1,0.6,15.2c-1,1.2-0.6,2.2-1,4.1   c1.3-1.1,1.9-2,1.8-3.3c0.8-1.4,1.6-2.8,2.4-4.1C503.7,64,501.5,60.7,504.6,59.1z M399.1,279.3c-1.2,1.4-2.3,2.9-3.5,4.3   c0.1,4-2.7,6.5-4.8,9.2c-1.2,0.2-2.1,0.4-3.2,0.6c4.3,13.3,7.5,27.5,13,40c0.2-18.9,1.2-37.7-0.3-56.5   C398.7,277.4,399.2,278.5,399.1,279.3z M469.4,249.2c10.7,5,20.5,11.6,32.1,14.6c6.3-12.3,8.6-26.1,15.2-38.4   c6.2-10.7,13.3-21,13.8-34c-23.2-7.9-46.3-23.1-71.8-22.1c0.5,35.1-1.1,36.9-26.6,60.2c9.3,5.5,19.2,10,28.8,14.9   c0.5-0.7,0.8-1.2,1.1-1.7c1.5,0.6,0,1.7,0.6,2.9C464.6,246.7,467,248,469.4,249.2z M454.6,130.1c-14.4,5.2-27.3,13.4-41.5,18.9   c-4.9,2-10.3,5.6-12.3,10.7c-6.5,28-35.3,50.1-26.8,81.2c4.6,1.2,5.6,7.3,9.4,9.5c4-0.4,7.5,0.7,10.9,1c0.9,1,1.7,2,2.7,3   c3-0.6,4.4,2.1,6.6,3.7c3.7-12.8,13.9-21.1,24.4-28.2c8.6-9.8,21.6-16.2,25.7-29.6C459.2,177.9,454,153.4,454.6,130.1z M337,239   c4.5-1.9,8.4-5.1,11.3-9c-2-0.4-3.6-0.7-5.1-1C338,232.8,336.4,235.4,337,239z M490.7,339.7c0.6-0.2,1.2-0.5,2-0.8   c-0.5-0.9-0.9-1.5-1.4-2.4C490.2,337.6,489.9,338.5,490.7,339.7z" />
	<path fill="#040303" d="M450.7,552.1c2.7-0.3,3.2-2.3,6.6-0.4c4.9,6.5,12.9,10,19,15.3c3.2,3.3,6.4,6.6,11.4,7   c4.7,0.6,9.1,3.1,13.9,3.6c5.2,0.8,4.3,3.9,5.8,8.1c-0.7,0-1.3,0.1-1.5,0.9c-2-11-17.6-7.7-25.5-13.2c-1.6,1.6-3.4,2.8-6.1,2.3   c0.5-2.7,2.5-2.6,3.2-5.2c-1.5,0.3-2.8,0.7-3.9,1.7c-1.4,0.1-2.9,0.4-4.3-0.1c-0.1-2.8,2.3-3.3,3.2-5.3c-0.8-0.6-1.6-1.2-2.4-1.8   c-3.5,4.3-6.3,5.6-9.7,4.8c0.5-3.7,4.3-4.4,6.6-6.9c-1.5-0.9-2.8-1.8-4.1-2.6c-3.7,4.1-6.4,6.2-9.1,7.1c-0.5-4.9,2.9-7,6.3-9   c-1.9-2.8-1.3-2.7-8.4-3.3c-7.6,8.7-18.2,22-27.4,6.8c0-2-0.8-3.9-1.6-5.7c1.8-2.3,1.1,1,2.6,1.2c1.8,4.1,4.6,7.8,9.2,9   c7.1-4.1,9-5.8,14.2-12.4c0.1-9.3,0.3-18.2,0.4-27.1C451.8,534.2,447.8,544.8,450.7,552.1z" />
	<path fill="#030202" d="M506,586.7c0.2-0.8,0.8-0.9,1.5-0.9c8.1,21.4-43.3,12.9-54,10.7c-9.9-1.1-19.8,4.5-29.9,1.1   c-2.5-0.5-5.2-1-7.6,0.4c-8.3-1.1-7.2-9.7-2.6-14.6c-1.3-7.9,5.6-15.2,2.8-23.2c1.5-1.8,2.9-3.5,4.3-5.2c0.4,0.3,0.7,0.6,1.1,0.9   c-1,1.7-2.1,3.4-3.2,5.1c2.7,6.9-3.5,13.6-3,20.5c0.8,4-3.5,6.6-3.5,10.8c0.5,0.6,1,1.1,1.3,1.5c10.5,1,20.5,4.2,30.8,0.9   c4.3-1.1,8.8-1.2,13.2,0c6.5,0.7,12.9,2.8,19.5,2c7.3,0.8,15.8-3.6,22.6-0.8c2.6-0.4,4.7-1.1,6.8-3   C506,591.1,506.1,588.8,506,586.7z" />
	<path fill="#040303" d="M421.5,555.9c-0.4-0.3-0.7-0.6-1.1-0.9c0.6-1.4,2.1-0.3,3.2-1.1c1.9-26.2,1-52.7-2-79   c0-19.4,7.4-37.6,7.3-56.9c0.5,2.9-1,7,0.9,9.3c1.1,20.8-12.1,44-3.2,63.9c1.5,22,0.4,44.3-1.2,66.2c-1.5-0.2-0.8-3.5-2.6-1.2   C422.4,556.1,422,556,421.5,555.9z" />
	<path fill="#050404" d="M387.9,414.5c-18.5-33.7-14-73.9-25.6-109.8c0.3-0.8-0.3-1.8,0.7-2.4c14.1,35.8,9.1,76.2,25.6,111.3   C388.4,414,388.1,414.2,387.9,414.5z" />
	<path fill="#050404" d="M467.8,416.6c0.2,1.1-0.3,2.7,1,3.3c-1.4,4.6-2.4,9.4-5.4,12.9c-0.6,23.9-4.2,46.9-9.8,70   c-1.9-14.1,4.2-28.9,5.2-43.1c1.7-12.4-1.2-26.7,7.7-36.7C467,420.4,467.4,418.5,467.8,416.6z" />
	<path fill="#080706" d="M529.3,104c-1.7,0.7-0.4,2.6-0.1,3.8c-0.4,0.1-0.9,0.2-1.5,0.3c-1.7-12.1,8.4-21,10.8-31.8   c-2.1-1.2-4.2-2.4-6.3-3.7c0.3-0.3,0.5-0.5,0.8-0.8c7,3.1,15,5.5,22.6,5c1.7-2.7,1.2-5.6,0.6-8.5c-1.2-0.7-3-0.2-3.9-1.7   c0.3-0.5,0.6-0.9,0.8-1.3c2.7-0.5,5.7,1.3,7.5-1.7c0.9,0.7,0.9,1.7,0.5,2.9c-0.8,0.5-1.7,1.1-2.6,1.8c3,14-7.3,11.9-16.7,9   C537.5,86.1,531.9,94.6,529.3,104z" />
	<path fill="#120D0C" d="M525.5,2.2c2-1.8,5.2,0.7,6.8-1.4c10,4.1,22.4,6.7,28.4,16.4c-0.2,0.3-0.4,0.6-0.7,0.9   c-3.1-2.5-4.9-5.9-8.5-6.6c1,1,1.6,1.7,2.2,2.3c-0.1,0.7-0.6,1.2-1.3,1.3c-1.2-0.8-2-2.3-3.8-2.2c-0.5-0.5-1-1.1-1.5-1.7   c0-0.2,0-0.5,0-0.7c0.3-0.1,0.7-0.1,1.6-0.3c-1-0.2-1.3-0.3-1.7-0.3c0,0,0,0,0,0c-5.8-4.3-14.1-8.5-21.7-7.3L525.5,2.2z" />
	<path fill="#232120" d="M452.8,498.9c0,1.4,0,2.7,0.8,3.9c-1.9,16.4-4.1,32.9-2.9,49.4c-2.8-7.3,1.1-18-1.4-25.4   C449.8,517.5,451.1,508.1,452.8,498.9z" />
	<path fill="#121010" d="M507.6,301.5c2.5,5.3,1,12,3.7,17.6c1.4,3.3-1.6,6.4-0.9,9.8c-0.3,2.3-2.1,4.2-2.9,6.3   c-0.3-0.3-0.6-0.7-0.8-1c5.5-10.6,0.1-20.8,0-31.7C507,302.2,507.3,301.8,507.6,301.5z" />
	<path fill="#1E1B1A" d="M560.1,18.1c0.2-0.3,0.4-0.6,0.7-0.9c3.2,4.1,2.2,9.7,2.9,14.3c-1,1.1-1,1.1,0,2.2   c-0.1,1.3,0.7,2.5,0.8,3.7c-0.5,0-0.9,0-1.4,0c-0.4-0.7,0.5-1.8-0.7-2.2C561.5,29.6,560.9,23.8,560.1,18.1z" />
	<path fill="#2B2928" d="M507.6,301.5c-0.3,0.3-0.6,0.7-1,1c-3-9.1-1.9-20.1-0.7-29.4C506,282.9,506.2,292,507.6,301.5z" />
	<path fill="#1B1715" d="M564.4,54c-0.8,0.5-1.6,0.9-2.6,1.5c-0.2,2.1,0.7,5.1-1.2,6.7l-0.2-0.1c0.2-0.6,0.1-1.2-0.6-1.4   c-0.3-2-0.6-4.1-0.9-6c-1.1-0.2-2-0.4-2.9-0.6c0-0.3,0-0.6,0-0.9l0,0c1-0.6,2.1-0.9,3.1-1.3c0.7,0.8,1.2,1.4,1.8,2   c0.9-0.2,1.7-0.5,2.5-0.7C563.8,53.4,564.1,53.7,564.4,54z" />
	<path fill="#211A19" d="M406.7,425.7c-1.6,0.1-3.3-0.2-4.6,0.8c-4.9-1.8-9.3-4.9-12.8-8.8c0.3-0.3,0.6-0.6,0.9-1   c3.9,2.8,7.8,5.6,11.7,8.4c0.1-0.1,0.1-0.3,0.2-0.4C403.6,425.1,405.1,425.4,406.7,425.7z" />
	<path fill="#201E1D" d="M561.6,41.9c0.6,0,1.2-0.1,1.7-0.1c0.7,1.1,0.5,2.1-0.1,2.9c-1.2,1.3,0.6,3.1-1,4c-0.9-2.2-2.4-4.3-2.3-6.7   C560.5,42,561,42,561.6,41.9z" />
	<path fill="#1A1816" d="M483.6,21.8c0.3,0.3,0.6,0.6,0.9,0.8c-0.8,3.2-1.6,6.4-2.4,9.7c-0.5-0.2-1-0.5-1.5-0.7   c-0.4-2.2,0.5-4.2,1.4-6.1c1.3-0.6,0.5-2.3,1-3.4C483.2,22,483.4,21.9,483.6,21.8z" />
	<path fill="#22201F" d="M561.6,41.9c-0.6,0-1.1,0.1-1.7,0.1c0-0.8,0-1.6,0-2.3c1.1-0.8,2-1.5,3-2.2c0.5,0,0.9,0,1.4,0   c0.2,0.7,0.3,1.4,0.4,1.8c-0.9,1.7-2.6,0.6-3.9,1.5C561.1,41.2,561.3,41.6,561.6,41.9z" />
	<path fill="#232120" d="M363,302.3c-1,0.6-0.4,1.6-0.7,2.4c-1-2.2-1.4-4.5-1.4-6.9c0.9-0.9,0.8-2,0.8-3.1   C362.6,297.2,362.8,299.8,363,302.3z" />
	<path fill="#2D2524" d="M506.6,334.2c0.3,0.3,0.6,0.7,0.8,1c-0.3,0.6-0.6,1.3-1,2c-1.4,0.3-2.8,0.7-4.2,1c-0.6-0.3-1.1-0.6-1.7-0.9   c1.5-0.4,3-0.8,4.7-1.2C505.7,335.6,506.1,334.9,506.6,334.2z" />
	<path fill="#44403E" d="M562.2,48.7c0.8-0.3,0.6-1,0.7-1.6c0.4,2.1,3.7,5.2,1.4,6.8c-0.3-0.3-0.6-0.5-0.9-0.8   C563.4,51.6,562.9,50.1,562.2,48.7z" />
	<path fill="#382727" d="M411.1,114c0.2,1.9-1.1,2.4-2.6,2.7C407.6,114.8,409.8,114.5,411.1,114z" />
	<path fill="#423F3E" d="M390.1,416.7c-0.3,0.3-0.6,0.6-0.9,1c-1.1-0.8-1.6-1.8-1.3-3.2c0.3-0.3,0.5-0.5,0.8-0.8   C389.1,414.7,389.6,415.7,390.1,416.7z" />
	<path fill="#1A1816" d="M480.6,33.8c1.5,1.6,0.5,4.1,0.7,6.1C480.3,38,480.4,35.9,480.6,33.8z" />
	<path fill="#1B1715" d="M560.7,63.7c-0.5,0.5-1,1-1.5,1.5c0-0.7-0.1-1.4-0.1-2.2c0.5-0.3,0.9-0.6,1.4-1c0,0,0.2,0.1,0.2,0.1   C560.7,62.7,560.7,63.2,560.7,63.7z" />
	<path fill="#22201F" d="M563.6,27.8c-1-1.1-0.6-2.6-0.6-3.9C563.7,25.1,563.7,26.4,563.6,27.8z" />
	<path fill="#232120" d="M359.3,289.7c1.3,0.9,0.7,2.4,0.8,3.8C359.8,292.2,359.6,290.9,359.3,289.7z" />
	<path fill="#232120" d="M360.2,294.1c1.2,0.9,0.7,2.1,0.6,3.2C360.1,296.3,360.1,295.2,360.2,294.1z" />
	<path fill="#22201F" d="M563.6,33.8c-0.9-1.1-0.9-1.1,0-2.2C563.6,32.3,563.6,33,563.6,33.8z" />
	<path fill="#E3CFB0" d="M482.7,24.1c0.2,0.7,0,1.1-0.7,1.4C482.3,25,482.5,24.5,482.7,24.1z" />
	<path fill="#E3CFB0" d="M483.6,21.8c-0.2,0.1-0.4,0.2-0.6,0.2c-0.2-0.7-0.2-1.3,0.6-1.7C483.6,20.8,483.6,21.3,483.6,21.8z" />
	<path fill="#22201F" d="M564.3,36.8c-0.2-0.4-0.3-0.8-0.5-1.1C563.9,36,564.1,36.4,564.3,36.8z" />
	<path fill="#F6D9C7" d="M360.8,276c1.5-4.4,10.4-1.4,14.6-2.3c1.3,3.1,0.1,6.6,0.5,10c0.4,0.1,0.8,0.1,1.3,0.2c0.2,1,0.5,2,0.8,3.1   c2,1.8,4.5,2.6,7.1,3.6c5.5,18.2,9.9,37.2,17,54.4c-0.1,0.2-0.1,0.4,0.1,0.6c2.2,19.5-5.4,38.2-4.7,57.4   c7.6-13.2,9.1-28.5,11.6-43.6c7.6-15.8,6.3-35,10.7-51.8c8.2,2,35,8,37.7,15.2c-7.9,29.1-17.1,84.2-41.9,102.1   c-3.4-0.5-6.6-2.1-9.6-3.6c-0.8-1.7,1-5.1-1.5-5.4c-1.7,0.6-0.5,2.3-0.8,3.5c-1.7,1.9-13.6-8.6-13.6-10.9c0.6-0.9,1.1-1.7,1.6-2.5   c-1-1.8-2-3.6-3-5.3c0.3-1,0.6-2,1-3.2c2.7,2.3,6.6,0.8,4.2-2.7c-0.1-0.8,0.4-1.8-0.8-2.1c-9.5-17.9-5.8-38.5-7.7-57.6   c-1,0.1-1.8,0.1-2.7,0.2c0.3-3.6-0.5-6.9,0.7-10.2c0.4-1,0.5-2.5-1.3-3.3c-2.6,6.5-3.4,12.3-4.8,19.4c-2.8-6.9,0-14.3-4.3-20.4   C371.6,305.4,368.7,289.7,360.8,276z M408,402.9c-1.9,1.5-3.9,2.7-5.7,4.5c1.8,0.6,2.1,0.6,2.6,0.2c1.7-2.3,4.7-3.6,5.4-6.5   C408.8,401.1,408.5,402.2,408,402.9z M411.5,395.2c-0.6,0.8-1.2,1.6-1.9,2.6C411.3,397.7,411.3,397.7,411.5,395.2z M415.7,386.5   c1.3-0.4,1.3-0.4,0.9-1.8C416.3,385.4,416,385.9,415.7,386.5z M418.6,381.2c-0.2-0.1-0.3-0.1-0.5-0.2c-0.2,0.4-0.4,0.7-0.5,1.1   C418.4,382.5,418.3,381.8,418.6,381.2z M414.4,389.8c-0.2,0.8-0.3,1-0.3,1.3c0.2,0,0.4,0,0.6,0   C414.6,390.8,414.5,390.6,414.4,389.8z" />
	<path fill="#F6D9C7" d="M452.8,498.9c-3.9,18.2-3.9,36.3-4,55c-5.1,6.7-7.1,8.4-14.2,12.4c-1.8-0.6-3.6-1.3-4.9-3   c0.3-1.6,0.7-3,2.3-3.7c1.5,1.1,2.9,2.2,4.6,3.3c3.1-3-2.6-4.4-4.5-5.8c-0.8-1.6,1.4-7.2-0.9-6.6c-3.7-9.4,0-20,0-29.7   c-0.3-23.4-5.1-46.4,1.7-69.5c0.6,0.2,0.9,0.3,1.3,0.5c3.1,1.4,4,17.6,5.5,12c2.5,0.9,3.6,3.8,5.8,5.9c0.3-12.1-6.8-23.4-9.5-34.9   c5.5-12.8,0.9-27,7-40c3.1,5,1.9,12.9,8.3,15.1c0.5-9.7-0.4-23.9-4.7-32.5c2.8-18.6,10.4-37.2,13.8-56c9.2,0.9,18.6,3.4,27.6,5.8   c-4.3,28.7-5.3,62.9-25,85.6c-0.2-0.5-0.3-1.1-0.5-1.7c-3,0.5-5.2,2.2-7.3,4c-0.9,1-1.9,0-2.8,0.1c-2.1,0-2.7,1.7-3.7,2.7   c-0.4,4.7,0.6,8.7,3.5,12.4c0.4-0.4,0.6-0.7,0.8-0.9c0.9,0,1.7,0,2.3,0c4.7-3.1,1.8-8.9,1.4-13.3c0.7-0.3,1.4-0.7,2.1-1   c1.9,1,1.9,1,3.1-0.6c2.7-0.5,4.4-2.5,6.1-4.3c0.3,0.2,0.4,0.4,0.6,0.5c-0.6,4.3-1.2,7.6-2.1,12.1c-6.7,7.5-6.7,17.8-7.1,27.4   C459,466.7,454.2,482.6,452.8,498.9z M440.3,475c0,0.7,0,1.4,0,2c0.1,0,0.3,0,0.4,0c0.1-3.1,2-5.5-1.3-8.1   C439.2,471.4,439.7,472.8,440.3,475z M455,437.6c0.3-1.4,0.8-3.8-1-4.3C453.2,434.8,453.1,437.4,455,437.6z M439.4,483.5   c-1.9,1.2-2.2,3.5-0.2,4.9C439.6,486.8,439.8,485.4,439.4,483.5z M436,492.8c1.5-0.2,2.1-1.7,1.1-2.9   C435.9,491.3,435.9,491.3,436,492.8z M462.3,421.1c-1.1-0.1-2,0.1-2.5,1.4C462.5,423,462.5,422.9,462.3,421.1z M432.3,546.8   c0.7-0.9,0.7-1.7,0-3.1c-0.5,1.2-0.8,2-1.1,2.8C431.7,546.7,432,546.7,432.3,546.8z M432.2,540.9c0.7-0.3,1.3-0.7,0.8-1.8   C432.1,539.5,431.6,539.9,432.2,540.9z M433.3,535c-0.2,0-0.3,0-0.5,0c0,0.5,0.1,1.1,0.1,1.6c0.2,0,0.4,0,0.5,0   C433.4,536.1,433.3,535.6,433.3,535z M435.5,495.4c-0.5,0.3-0.5,0.6-0.2,1C435.8,496.2,435.7,495.9,435.5,495.4z" />
	<path fill="#F6D9C7" d="M355.7,228.3c21.2-14.5,17.8-56.9,24.8-80.6c1.4,0.6,2.4,2,4.2,1.7c0.7-3-0.7-5.7-1.3-8.6   c10.9-5.8,20.1-15.2,32.5-18.6c0.2,2.1,2,3.1,3.4,4.4c1.4,0,1.2-2.3,1.6-3.4c1.1,0.2,1.9,0,2-1.2l0,0c1.9-0.5-0.1-3,1.7-3.7   c6.6-5.9,15.7-9.7,23.3-14.8c0.9,1.1,0,2.8,1.7,3.4c6.3-7.2,12.8-13.7,22.3-16.6c3.6-2.4,10-3.2,10.8-7.9c0.5-0.3,1-0.6,1.6-0.9   c12.7,13.2,19.9,40.6,6,54.9c-0.5-0.1-0.9-0.2-1.2-0.3c-1.4-7.5-7.2-12.5-9.6-19.2c-25.7,10.4-51.8,21.7-75.7,35.3   c-7.4,4.5-6.6,14.9-11.2,21.7c-5.5,12.6-14.3,23.1-18.5,36.4c-0.3-0.3-0.5-0.6-0.8-0.9c1.1-11-5,8.9-2.1,6.9   c0.3,0.3,0.5,0.5,0.8,0.8c-1,3.3-2,6.6-3,9.8c0.6,0.4,1.1,0.7,1.7,1.2c0.3,8.5,2.9,18.3-3.3,25.4c-4.7,3.7-5.9,14.3-11.9,15.1   c-1.9-2,0.4-4.7,1.6-6.5c2.8-3.2,2.5-7.4,3.7-11.5c-1.8,0-3,1-3.5,2c-1.2,2.2-3.6,2.8-4.8,4.9c-0.4-0.5-0.7-0.9-1.1-1.4   c-3.7,2.5-3.1-4.3-4.8-6.1c-2.1-1.6-2.6-11.5-5.2-8.9c0-0.7,0-1.4,0-2.1c1.4-1.1,2.9-2.2,4.3-3.2c1,0,1.9,0,2.6,0   C351,232.9,354.4,231.9,355.7,228.3z M486.6,105.6c-0.6,0.7-1.5,1.4-0.4,2.7c1.8-1.4,2.9-3.4,1.5-5.4   C487.2,104.1,486.9,104.9,486.6,105.6z M485.9,92c0,2.1,1.1,5.9,3.2,5.1C489.1,94.8,487.8,93.4,485.9,92z M345.1,239.6   c0.6,0.5,1,0.8,1.2,1c1.1-0.5,1.8-1,1.8-2.5C347,238.7,346.2,239.1,345.1,239.6z M349.9,236.7c1.4,0.6,1.4,0.6,2.7-0.9   C351.4,235.6,350.3,235.2,349.9,236.7z M355.4,234.9c-1.6-1.3-1.6-1.3-3.2,0C353.2,234.9,354,234.9,355.4,234.9z M358,231.6   c-2-0.5-2.1-0.5-1.9,1.3C356.7,232.4,357.3,232,358,231.6z M352.1,247.7c-0.9,0.1-1.5,0.1-2.3,0.2   C350.6,249.4,350.6,249.3,352.1,247.7z M355.3,245.1c-0.7-0.8-2.3-0.2-1.9,0.9C354.3,246.8,355.1,245.8,355.3,245.1z M374.1,201.3   c-0.9,0.4-1.4,0.8-0.8,1.8C374.2,202.8,374.8,202.3,374.1,201.3z M375.1,198.3c-0.1-0.1-0.3-0.2-0.4-0.3c-0.2,0.4-0.4,0.7,0.2,0.9   C374.9,198.7,375,198.5,375.1,198.3z" />
	<path fill="#FF9A77" d="M462.7,301.6c-0.4,6.4-2.9,11.9-4.9,18.3c-8.2-11.4-26.2-8.9-37.8-16c1.3-12.4,4.9-25.2,11.2-36.1   c17,4.5,22,6,33.7,18.9c-7.3-10.5-17.4-19.8-28.8-25.5c-0.4,0.3-0.9,0.7-1.3,1c0.6,1.2,0.9,1.8,1.3,2.5c-1.5,0.5-2.2-0.5-3.4-1   c4.4-8.1,11.1-14.5,14.3-22.8c17.5,8.8,34.1,19.8,52.7,26.3c0.4,1.9,0.5,3.4-1.1,4.5l0,0c-0.3-0.3-0.6-0.6-1-1   c-3.2,5.5-11.7,7.4-12.4,13.2c3.3-3.6,6.8-6,10.5-9.1c0.3,0,0.5-0.1,0.8-0.1c-4.1,15.4-3.6,31.5-6.4,47.3c-0.7,0.6-1.5,1.2-2.3,1.9   c-8.8-1.6-17.6-3.3-26.6-4.9c0.1-5.2,2.1-10,3-15c0.6-0.4,0.8-0.9,0.6-1.6c0.1-0.2,0.1-0.4,0.1-0.7c3.5-1.3,6.3-4.4,9.7-6.7   c-3.8,0.8-6.3,2.7-9.1,5.1c-0.3-0.7-0.7-1.3-1-2c-0.4,0.1-0.6,0.1-0.8,0.1c-0.7-2.5-1.4-5-2.1-7.4   C460.9,294.3,462.4,297.9,462.7,301.6z M458.8,274c0.4,0.9,1,1.5,2.9,1.1c-5.1-2.1-8.2-6.9-13.6-7.8c0,0.1-0.1,0.3-0.1,0.4   C451.7,269.6,454.9,272.8,458.8,274z M457.4,281.4c-0.4-0.8-0.9-1.6-2.1-1.3c0.1,2.1,2.5,2.6,3.5,4.3c1,1.1,0.9,3,2.9,3.8   C462.4,285.2,459,283.5,457.4,281.4z M467,303.7c-0.4,0.1-0.9,0.2-1.3,0.3c0.2,2.2,6.9-0.1,8.7-1.3   C471.3,303.3,469.6,302.4,467,303.7z M479.8,297.8c-4.1,0.3-5.8,0.9-6.7,2.6c3.9-0.5,7.2-1.8,10.8-3.1   C482.5,296.9,481.1,297,479.8,297.8z M441.3,254.7c-0.8,4.6,7.5,5.1,10.5,7.3c0.5,0.2,0.9,0.8,1.6,0.1   C450.2,259,445.9,254.7,441.3,254.7z M481,286.7c1.3-0.5,1.9-1,1.5-2.2C481.2,284.7,481,285.4,481,286.7z M476.9,290.4   c0.4-0.4,0.8-0.8,1.3-1.2C476.9,288.6,476.7,289.3,476.9,290.4z" />
	<path fill="#F6D9C7" d="M481.4,172.7c16.8,4.8,33,12.7,49,18.8c-0.5,12.9-7.6,23.2-13.8,34c-6.6,12.2-8.9,26-15.2,38.4   c-11.6-3-21.4-9.5-32.1-14.6c0-6.2,1.2-11.5,0.8-17.8c-1.4,1.5-2.4,2.7-3.6,4.1c-0.4-1.6,0.5-3.4-0.6-4.2c-0.9-0.2-0.9,0.8-0.9,1.4   c0.2,0.8-0.8,1.9-0.7,2.4c0.7,1.1,0.2,2-0.2,2.9c0.7,3.6-1.6,2.2-2.1,4.7c-0.3,0.5-0.7,1-1.1,1.7c-3.8-1.5-7.3-3.8-11-5.6   c-0.1-0.5-0.3-0.9-0.4-1.3c2-7.3,11.3-8.4,12.9-16.1c5-11,12.9-20.2,16.5-31.5c11.8,7.3,5.4-5.4,1.6-10.9   C480.7,177.3,481.1,175,481.4,172.7z M508.1,193.8c-7.2,5.8-16.6,4.1-24.4,8.3c-0.9,1.4-2.1,2.7-2.3,4.5c-1.6-0.2-2.4,0.7-2.8,2.3   c1.6-0.3,2.2-1.3,2.8-2.4c2-0.9,2.8-2.9,3.8-4.4c9.7-2.2,20.2-2.8,27-11.1C510,191,509.5,192.6,508.1,193.8z M495.2,245.7   c2.6,0.9,5.6,5.6,7.9,1.8c-0.8-0.9-1.5-1.8-2.5-2.8C498.8,244.9,496.8,244.4,495.2,245.7z" />
	<path fill="#FFF0A7" d="M531.5,183.3c-0.4,1.7-0.8,3.3-1.3,5.2c-15.3-4.7-28.9-13.5-44.3-18c-0.4-9.3,1.3-19.8,2.9-29.2   c15.3-11.6,13.2-36,4.5-51.3c0.3-0.3,0.6-0.6,0.8-0.9c11.6,19.4,20,42.1,39.3,55.8c5.2-1.4,3.9-7.4,3.9-11.5   c0.3-0.3,0.6-0.6,0.8-0.9c4.1,14.6,21.7,31.8,7.7,45.6c-4.4-1.5-7.5-4.8-12.7-3.7c-0.7,0.7-1.6,1.5-2.5,2.4   C530.9,179.3,531.1,181.2,531.5,183.3z M494.7,163.4c0,0.8,0,1.7,0,2.4c10,11.6,27.9,16.7,40.4,6.1c0-1.2,0-2.2,0-3.4   c-1.1-0.6-2.2-1.1-3-1.6c-3.7,1.3-7.1,0.8-10.6,0.6c-1.3-1-2.6-0.3-3.8,0.2c-11.2-1.9-15.7-12.5-22.5-19.7   C484.9,145.2,489.9,160.3,494.7,163.4z" />
	<path fill="#EF8A6A" d="M452.2,274.6c-7.1-2.1-13.9-5.1-21.1-6.7c-6.3,10.8-9.9,23.6-11.2,36.1c-5.1-1.6-10.2-3.2-15.4-4.7   c-6.1-25.7,2.9-54.9,26.1-68.3c5.4,3.3,10.9,6.7,16.3,10c-3.2,8.3-9.9,14.7-14.3,22.8c1.2,0.5,1.9,1.5,3.4,1   c-0.4-0.7-0.7-1.4-1.3-2.5c0.4-0.3,0.9-0.6,1.3-1c3.6,1.3,7.2,3.2,9.3,6c-0.9-0.2-1.7-0.4-2.6-0.6c-0.1,0.1-0.1,0.3-0.2,0.4   C445.8,269.6,449.7,271.4,452.2,274.6z M434.2,241.8c1.1-1.4,5.3-2.4,4.1-4.5c-3,0.7-7.5,6.6-7.1,8.3   C432.3,244.2,433.1,243.1,434.2,241.8z M418.4,285.1c0.3-4.4,2.1-8.1,2.2-12.7c-2.8,3.7-2.3,10.7-4.3,15.9   c-0.3,1.3-1.4,2.5-0.3,4.3C417.1,290,418,287.6,418.4,285.1z M423.4,256.4c-1.7,2.4-2.1,5.2-1.7,8.9   C423.2,262.1,423.7,259.4,423.4,256.4z" />
	<path fill="#E1C7B6" d="M481.4,172.7c-0.3,2.3-0.7,4.6-0.9,6.3c3.8,5.4,10.2,18.2-1.6,10.9c-3.6,11.3-11.5,20.5-16.5,31.5   c-1.6,7.7-10.9,8.8-12.9,16.1c0.1,0.4,0.3,0.9,0.4,1.3c-6.1-2.7-12.1-5.7-17.8-9.2c25.6-23.3,27.1-25.1,26.6-60.2   C466.4,168.9,474.4,169.4,481.4,172.7z M474,176.5c0.4,0.8,0.6,3.1,2,1.7c-1-1.4-0.7-4.4-2.7-5C472.5,174.6,473.7,175.5,474,176.5z    M469.2,187.7c0.1-1.9-0.5-3.4-0.9-5.4C467.2,184.6,468.1,186,469.2,187.7z M478.6,185.2c0.6,1.5,0.6,1.5,2,2.2   C480.5,186.1,479.7,185.5,478.6,185.2z M473.5,195.6c-0.7-1.2-1-1.7-1.3-2.4C471.3,194.4,471.5,195,473.5,195.6z M476.3,182.5   c0.5,0.5,1.1,1,2,1.8C478.1,182.8,477.8,182,476.3,182.5z M470.6,190.2c-0.4,1.6-0.4,1.6,1.2,1.6   C471.3,191.2,471,190.7,470.6,190.2z" />
	<path fill="#F6D9C7" d="M529.3,96.7c-1.1,3.7-2,7.5-1.5,11.4c0.6-0.1,1-0.2,1.5-0.3c1,11.1,8.2,21.9,5.3,33.1   c-2.5-4.9-3.6-9.8-7.1-14.1c0.3,4.1,3.9,8.3,4.1,12.9c-20.1-14.2-25.6-41.8-41.1-59.7c0.8-1,1.8-0.7,2.7-0.3   c10.2,2.8,16.5-7.2,20.3-15.2c2.8,8.8,8.5,16.3,10.4,25.3c0.5-0.7,0.8-1,1.1-1.4c1.4,1.9,2.9,3.9,4.4,5.8   C529.2,95,529.2,95.9,529.3,96.7z M507.5,95.9c6.6,4.4,12.6,10,17.2,16.5c0,0.9,0.2,1.7,1.5,1.8c-0.1-1,0.4-1.9-0.6-2.7   c0.4-4.4-20.2-19.8-24.2-20.3C503.4,93.2,505.4,94.6,507.5,95.9z M499.6,90.3c0.4,0.1,0.6,0.4,0.9,0   C500.1,90,499.9,89.9,499.6,90.3z" />
	<path fill="#E1C7B6" d="M432,559.6c-1.6,0.8-2,2.2-2.3,3.7c-7-4.2-2.4-12.9-3.5-19.6c0.7-17.6,1.9-35,0.4-52.5   c-6.3-13.9-1.5-32.3,1.8-47.1c3.1-10.8,0.4-22.7,3.3-33.7c4.7-11.5,10.6-22.4,14.4-34.2c4.5,10.5,5.7,22.4,5.1,33.9   c-1.5-0.5-2.5-1.3-3.5-2.1c0.4-0.1,0.9-0.3,1.5-0.4c-0.4-2.4-1.1-4.5-2.6-6.8c-0.2,1.2-0.3,1.9-0.4,2.7c-1.8-2.7-1.5-5.5-3.2-8.4   c-6.1,13.1-1.5,27.2-7,40c2.7,11.5,9.8,22.7,9.5,34.9c-2.2-2.1-3.2-5.1-5.8-5.9c-0.3-3.6-0.9-7.3-1.3-10.7   c-2.4-1.1-2.4-2.9-4.6-3.9c0.2,1,0.3,1.8,0.4,2.6c-0.3-0.1-0.7-0.2-1.3-0.5c-6.8,23.1-2,46-1.7,69.5c0,9.7-3.7,20.4,0,29.7   c0.1,1-0.9,3.2,0.7,2.9c0,0.5,0,1.1,0,1.6C429.5,556.7,430.6,558,432,559.6z M444.2,392.1c-0.4,1.7-0.5,2.9,1,3.6   C445.8,394.3,445.6,393.3,444.2,392.1z M430.8,447c0.3,0.7,0.5,1.4,0.9,2.5c0.3-1.3,0.6-2.1-0.3-2.7   C431.3,446.9,431.1,446.9,430.8,447z M444.5,388c-0.2,0-0.3,0-0.5,0c0,0.5,0.1,1,0.1,1.5c0.2,0,0.3,0,0.5,0   C444.5,389.1,444.5,388.5,444.5,388z" />
	<path fill="#E1C7B6" d="M385.6,358.4c0.3,1.6,0.5,3.1,0.7,4.7c-0.4,0-0.7,0.1-1.2,0.1c0,2-0.3,3.9,1.2,5.5   c-0.1,2.5,2.2,4.5,1.5,7.1c-0.4-0.4-0.8-0.7-1.4-1.2c0.2,2.4-0.8,5.1,1.4,6.5c0.5,5.1,1.3,10.3,4.8,14.3c0.4-0.1,0.8-0.2,1.1-0.3   c2.4,3.5-1.5,5-4.2,2.7c-0.4,1.1-0.7,2.2-1,3.2c1,1.8,2,3.5,3,5.3c-0.5,0.8-1,1.6-1.6,2.5c0,2.2,11.9,12.8,13.6,10.9   c0.3,1,0.5,2,0.9,3.4c0.5-1.5,0.8-2.5,1.1-3.5c0.1,0.6,0.2,1.2,0.3,1.9c1.8,1.1,4,1.5,5.8,2.8c-0.4,0.5-0.8,1-1.2,1.5   c-2.9,0.2-5.7-0.4-8.5-1c-0.1,0.1-0.1,0.3-0.2,0.4c-27.6-16.9-24.3-61.8-30-90.6c-3.8-18.7-10-36.4-13-55.4c0.6-0.9,1.3-2.1,2-3.2   c7.9,13.6,10.8,29.4,12,45c4.3,6,1.5,13.5,4.3,20.4c1.4-7.1,2.3-12.9,4.8-19.4c1.8,0.8,1.6,2.3,1.3,3.3c-1.2,3.3-0.4,6.6-0.7,10.2   c0.9-0.1,1.7-0.1,2.7-0.2c2.2,6.9-0.2,13.8,0.3,20.9C384.4,357.3,384.4,357.4,385.6,358.4z M383.9,340.9c-0.2,0-0.3,0-0.5,0   c0,0.5,0.1,1,0.1,1.5c0.2,0,0.3,0,0.5,0C383.9,342,383.9,341.4,383.9,340.9z" />
	<path fill="#E1C7B6" d="M419.3,126.5c-1.3-1.4-3.2-2.3-3.4-4.4c-11.9,2.7-19.9,12.3-30.4,17.1c0.6-2.1-1.8-1.6-2.1,0   c-3.1,1-4,4-2.4,7.1c1.7-1.4,0.1-4.6,2.5-5.5c0.7,2.9,2.1,5.6,1.3,8.6c-1.8,0.3-2.8-1.1-4.2-1.7c-6.6,21.2-4.2,66.8-23.4,79   c6.2-10,6.7-21.5,8.3-32.9c3.4-18.5,7.6-37,11.3-55.4c34.8-19.6,67.7-44.3,106.1-56.2c-0.8,4.8-7.3,5.5-10.8,7.9   c-9.5,2.9-16,9.4-22.3,16.6c-1.7-0.6-0.8-2.2-1.7-3.4c-6.7,3.4-12.5,8.7-19.6,11.1c-0.3-4.2-4,2.1-3.7,3.7   c-1.8,0.7,0.2,3.2-1.7,3.7c-0.1-0.7,0.8-1.6-0.7-2.1c-0.2,0.9-0.3,1.6,0.7,2.1c-0.1,1.3-0.9,1.5-2,1.2c-0.1,0.5-0.2,0.9-0.3,1.4   C419.1,123.7,419.2,125.5,419.3,126.5z" />
	<path fill="#F7EFD0" d="M372.9,246.2c0.3-1,0.7-2.1,1-3.1c1.4,0,2.2,0.8,2.6,1.9c1.3,3.2,3.9,5.4,6.2,8.1c3.3,0,6.6,0,9.4,0   c2.8,1.9,4.2,4.8,7.6,5c1.4-0.1,2.1,1.1,3.2,1.8c-1.5,11-7.4,20.1-11.8,29.7c-4.8-1-8.4-4.6-12.1-7.5c-1.6-2.8-0.1-6.4-1.5-9.3   c-5.2-3-13.6-2.8-18.6,0.4c-0.6-0.6-1.1-1.1-1.7-1.7l0,0c0.3-0.2,0.6-0.4,0.9-0.6c0.1-0.2,0.1-0.4,0.1-0.6   C364.5,263.7,369.4,254.8,372.9,246.2z" />
	<path fill="#E1C7B6" d="M421.5,307.6c-0.6,0.1-1.2,0.1-1.7,0.1c-4.4,16.8-3.1,36-10.7,51.8c-2.5,15.1-4,30.4-11.6,43.6   c-1.1-17.1,6-33.6,4.8-50.9c0.2,0.1,0.4,0.1,0.7,0.2c-0.2,7.7,0.4,15.5-0.2,23.1c-0.9,1.1-0.9,2.3-0.4,3.6c6.5-24-3.6-51.8,2-77.3   c2.6-0.7,7,1.5,9.2,3.2C416.3,305.3,419,306.1,421.5,307.6z M400.7,386.2c-0.5,2.3-1.1,4.6-1.8,7.7c3.4-4.3,3.2-6.5,3.1-11.8   C401.2,384.1,400.6,384.6,400.7,386.2z M398.8,396.9c-0.5,0.3-0.4,0.6-0.2,1C399.1,397.6,399,397.3,398.8,396.9z" />
	<path fill="#EBDA8F" d="M488.7,141.3c-1.6,9.5-3.3,20-2.9,29.2c-9-3.1-17.9-4.7-27.5-4.7c-1.4-12.4-0.4-24.5-1.7-36.9   C463.5,138.4,478.3,145.8,488.7,141.3z" />
	<path fill="#F5D8C6" d="M506.6,334.2c-0.5,0.7-1,1.3-1.4,1.9c-3.7,0.6-7.6,2.9-11.1,1.1c-0.2-1.7,1.4-1.8,2.1-2.7   c1.6,0,3.2,0,4.8,0c0.1-0.7,0.1-1.2,0.2-1.9c1.3-0.4,2.7-0.4,3.2-1.8c-0.6-0.7-1.4-1.2-2.2-1.6c0.2-0.3,0.4-0.6,0.6-0.9l0.1,0.2   l-0.2-0.2c1.1-0.1,0.9-0.8,0.8-1.5c2-1.6,0.4-4.9,0.8-7.2c-0.7-3.1,1.7-6.3,0.5-9c-0.7,1.7-1.3,3-1.8,4.4c0,0-0.2-0.1-0.2-0.1   c-1.2,1.6-0.5,3.5-0.6,5.3l0,0c-1.7,1.4-0.5,4-0.8,6l0,0c-0.3,0.2-0.5,0.5-0.8,0.7c-0.2,0-0.5-0.1-0.7-0.1   c-0.2-0.2-0.5-0.4-0.7-0.7c0.1-1-0.3-2,0-3c1-1.1,1-1.1,0.1-2.3c-0.7-4.4-1.3-8.7-2.3-13.1c-0.5-0.2-0.9-0.4-1.4-0.6   c-1.7-11.1,0.2-22.5,3.5-33.1c0.5,0.2,0.8,0.4,1.2,0.6c2.1-2.9,1.8-6.3,1.8-9.7c1.3-1.6,2.5-3.3,4.1-5.2   c0.9,13.6-3.7,26.9-0.5,40.3C507.2,311.6,511.9,323,506.6,334.2z" />
	<path fill="#E1C7B6" d="M523.3,87c-3.1-7.6-7.2-14.7-9.9-22.4c-3.8,8-10.1,18-20.3,15.2c-0.8-0.4-1.9-0.7-2.7,0.3   c-0.4-0.2-0.9-0.4-1.5-0.8c5.3-2.8,13.4-1.3,16.1-8.2c2.9-3.7,5.8-9.1,2.5-13.4c1.6-1.1,0.4-2.8,0.9-4.1c1.5,0.2,2.9,0.4,4.2,0.6   c0.7,0.8,1.3,1.5,2,2.2c0.9-0.1,1.8-0.1,2.6-0.2c0.2,2.5,1.8,3.9,3.3,5.3c0.5-0.1,0.8-0.1,1-0.2c2,8.3,10.3,10.9,16.9,15   c-1.2,7.4-6.8,13.3-9.2,20.4c0-0.8-0.1-1.7-0.1-2.5C527,92,525.8,88.4,523.3,87z M523.5,79.4c-0.2,3.1-0.2,3.1,1.1,4.1   C524.5,82.1,525.2,80.7,523.5,79.4z M524,73.2c0.7-2,0.6-3.1-0.4-4.3C523.3,70.7,523.3,70.7,524,73.2z" />
	<path fill="#E1C7B6" d="M479.8,118.2c3.7,5.8,7.8,11,9.5,17.9c0.3,0.1,0.8,0.2,1.2,0.3c-10.2,9.9-24.6,0.4-31.8-8.7   c3.5-1.9,6.9-3.6,10.6-4.6c0.3,3.1,4.4,2.5,6.8,4.5c-1.3-2.5-3.4-3.3-5.1-5.5C473.9,120.8,476.8,119.5,479.8,118.2z M475.9,129.8   c0.7,1.1,1,2.5,3,2.6C478.3,130.8,477.1,130.3,475.9,129.8z" />
	<path fill="#D7C0A1" d="M502.4,16.6c1.4-2.5,3.2-2.6,5.3-1c-0.7,0.9-1.5,1.8-2.2,2.7c3.2,3.5,9.5,3.9,13.7,3.7   c-2-1.7-4.9-0.6-6.6-2.2c0.1-0.9,0.2-1.8,0.3-2.6c2.6-0.1,4.9,1.2,7.4,1.5c0.3,0.3,0.5,0.5,0.8,0.8c3.3,0.1,6.4,1.7,9.7,1.6   c-0.2,1.8,1.2,0.6,2.2,0.7c1.3,1,3,0.8,4.6,0.8c-2.4,1.6-6.3-0.6-8.2,1.9c-4.4-1-8.5-0.1-12.8-0.6c-1.4-1.1-3.1-0.5-4.6-0.7   c-1.5-1-4.4-2.1-5.4-0.2c7.4,1.1,14.2,3,21.5,3.6c0.1,0.5,0.2,0.7,0.3,0.9c-5.1,0.5-9.6,0.3-14.7-0.5c4.4,2.8,9.2,1.9,14.1,2.2   c0,0,0,0,0,0c-5,2.4-11,1.4-16.5,1.5c-3.7-3.1-6.9-6.6-9.8-10.4c0,0,0,0,0,0C501.4,19.1,501.9,17.9,502.4,16.6z" />
	<path fill="#E6D9B5" d="M357,271.5c0.6,0.6,1.1,1.1,1.7,1.7c-0.6,3.2-2.9,5.5-2.4,9c1.7,1.3,2.8,3,2.3,5.3   c-1.9,0.5-1.9,0.5-4.3-0.2c-0.9-4-0.8-8.5-3-12.1c-0.8-1.2-1.2-2.6-0.6-3.9c0.9-2,0.4-3.9-0.4-5.9c1.1-4.8,3.9-6.8,7.4-9.9   C358.6,261.3,347.3,267.9,357,271.5z" />
	<path fill="#D7C1A1" d="M483.5,76.4c2-6.7,7.9-16.9,3.8-23.2c2.3-8.4-1.4-18.6,3.8-26.2c-0.7,6-1.3,12-0.1,18   c-1.8,2.6-0.2,6.3,0.1,8.9c-1.9,7.4-1.8,16.6-6.8,23.1C484,76.8,483.8,76.6,483.5,76.4z" />
	<path fill="#D1BB9C" d="M497,29.1c-0.1-0.2-0.1-0.4,0.1-0.5c1.7,2.3,4.1,8.4,7.3,7.7c-1.8-2-5.6-5.9-4.4-8.4   c2.4,2.9,4.9,6.2,8.7,7.5c-0.1,2.5-1.3,4.6-2.6,6.7c-0.5,0.3-1.1,0.5-1.6,0.8c-3.5-2.2-4.6-6.1-6.2-9.5c-0.1,0.2-0.2,0.4-0.4,0.5   c0,0,0,0,0,0c-0.6,0.1-0.8,0.3-0.1,0.7c0,1.7,1.1,2.9,1.6,4.5c-0.3,0.3-0.5,0.5-0.8,0.8c0,0,0,0,0,0c-0.6-0.9-1.5-1.5-2.2-2.3   c0-1.7,0-3.5,0-5.2C497.6,31.4,496.9,30.2,497,29.1z" />
	<path fill="#E0C6B5" d="M466.3,232.6c0.1,0.9,0.1,1.7,0.2,2.9c1.2-1.4,2.3-2.6,3.6-4.1c0.5,6.3-0.8,11.6-0.8,17.8   c-2.4-1.2-4.8-2.5-6.8-3.6c-0.6-1.2,0.9-2.3-0.6-2.9c-0.1-1.8,2.5-1.5,2.2-3.3c1.7-0.4,1.9-5.4,0.7-5.9c0-0.3,0-0.5,0-0.8   C465.4,232.7,465.9,232.7,466.3,232.6z" />
	<path fill="#EAD88E" d="M531.5,183.3c-0.3-2.2-0.6-4-0.9-6.3c0.9-0.9,1.8-1.8,2.5-2.4c5.2-1.1,8.3,2.2,12.7,3.7   C542.2,181.6,535.8,180.8,531.5,183.3z" />
	<path fill="#100C0B" d="M497.9,312.7c1.7,3.2,0.9,7.1,1.5,10.6c-0.1,0.2-0.2,0.4-0.1,0.7c-1.1,1.2-0.4,2.1,0.8,3   c0.6,0.1,1.5,0.3,1.5-0.6l0,0c1-1.8,0.5-4,0.8-6l0,0c1.5-1.2,0.3-3.7,0.6-5.3c0.2,0.2,0.7,0.1,0.9,0.1c-0.4,3,1,5.8,0.6,8.8   c-0.9,0.8-0.6,2-0.8,3c-0.7,0.2-0.8,0.8-0.8,1.5l0.2,0.2l-0.1-0.2c-0.5,0.7-0.8,1.3-1.2,2c1.1,0.2,2,0.3,2.8,0.5   c-0.5,1.4-1.9,1.4-3.2,1.8c-0.1,0.7-0.1,1.2-0.2,1.9c-1.6,0-3.2,0-4.8,0c-0.3-0.3-0.6-0.6-0.8-0.8c1.4-0.9,2.9-1.7,4.3-2.6   c0.1-0.7,0.1-1.3,0.2-2.1c-1-0.7-2-1.4-3-2.1c0,0,0.1,0.1,0.1,0.1c-0.8-0.5-2-0.5-2.1-1.7c0.6-0.2,1.3-0.4,1.9-0.6   c0.7-1.1,1-2.2-0.2-3.4c-0.9-0.1-1.8-0.2-2.8-0.3c0.4-1.5,2-0.3,2.7-1.4c1.1-2.7,1.1-2.7,0.4-5.4   C497.9,314,497.8,313.3,497.9,312.7z" />
	<path fill="#C1AD91" d="M491.1,53.3c-0.4-3.5,0.7-6.5,0.8-9.8c3.4-2.3-0.1-8,2.1-11.1c-0.1,3.8-0.3,7.6,0.7,11.3   c-2,2.1,0.8,4.5,0,6.9c-1.9,6.3-0.4,14.4-4.6,20.6c-0.2-0.3-0.5-0.5-0.7-0.8c0.6-2.4,1.9-4.6,1.7-7.2c0.8-1.2,0.6-2.6,0.5-3.9   c0.8-1.8,1.6-3.5,0.2-5.3c0,0-0.2,0.1-0.2,0.1C491.5,53.8,491.3,53.5,491.1,53.3z M492.4,48.6c-0.1,0-0.2,0-0.4,0   c0,1.2,0,2.3,0,3.5c0.1,0,0.2,0,0.4,0C492.4,50.9,492.4,49.7,492.4,48.6z" />
	<path fill="#CEB899" d="M497,62.2c1.1-3.5,1.4-7.2,1.7-11.5c2.5,7.4,1.5,16.7-1.7,24c-0.9,0.3-1.8,0.6-2.9,0.9   C493.8,70.7,496.9,67,497,62.2z" />
	<path fill="#221C19" d="M506,42c0.7-1.3,1.4-2.5,2.1-3.8c0.7-0.4,1.4-0.8,2.2-1.2c0.3,1.6-1.7,2-1.3,3.6c-0.4,0.4-0.9,0.8-1.3,1.2   c-0.4,1.3-0.3,2.6,0.6,3.8c-0.1,0.7-0.1,1.3,0.7,1.6c1.7,2.6,4.6,4.1,6.3,6.8c1,0,1.6-1.4,2.7-0.8c-0.3,1-0.5,2-0.8,3   c0,0,0.1,0,0.1,0c-0.8,0.1-1.7,0.1-2.6,0.2c-0.7-0.8-1.3-1.5-2-2.2c-1.4-0.2-2.8-0.4-4.2-0.6c-0.5,1.4,0.6,3.1-0.9,4.1   c0.5-2.1-2.6-3.6-1.3-5.6c0.7-0.8,1.5,0.7,2-0.4c1.1,0.5,1.9,2,3.7,1.2c-1.5-1.9-4.3-3.1-4.5-5.6c-0.2-0.3-0.5-0.5-0.7-0.8   c0,0,0,0,0,0C506,45.1,506.1,43.6,506,42z" />
	<path fill="#161311" d="M372.9,246.2c-3.5,8.6-8.4,17.5-14.9,24.1c-0.4-1-1.7-0.7-2.3-1.7c3.9,0.5,5.1-5.8,7.3-8.3   c3.1-5.5,7.6-10,9-16.4C372.3,244.6,371.7,245.8,372.9,246.2z" />
	<path fill="#EBE3C5" d="M337,239c-0.6-3.6,1.1-6.2,6.1-10.1c1.5,0.3,3.2,0.6,5.1,1C345.3,233.8,341.4,237,337,239z" />
	<path fill="#D8C6A8" d="M507.4,9.8c2.9-5.3,11.2-2.6,15.9-1.5c-1.6,0.8,0,1.4,0.7,2.2c0.7,2.2,3.7,1.6,4.5,3.8   c-3-0.1-5.7-1.9-8.7-1.2c0.2,0.6,0.3,0.9,0.5,1.2c-0.2,0.3-0.5,0.5-0.7,0.7c-0.6,0-1.3,0.1-1.6-0.7c1.1-1.1-1.4-2.4-2.5-2.3   c-0.7,0-1.5,0.2-1.9-0.7c2.6-0.1,5.4,0.4,7.8-1.1c-0.4-0.4-0.8-0.7-1.1-1c0.1-0.2,0.2-0.4,0.4-0.8c-3,0.3-6.1-0.7-8.7,0.6   C510.5,9.1,508.5,10.9,507.4,9.8z" />
	<path fill="#F7E0BF" d="M489.6,29.3c-2.3,7.9-0.5,16.2-2.2,23.9l0,0c-0.3,0-0.5-0.1-0.8-0.1c-0.1-0.8,0.3-1.7-0.7-2.2   c0.3-7.1-1.3-15.4,2.1-21.6c0.3,0.6,0.6,0.6,0.9,0C489.1,29.3,489.3,29.3,489.6,29.3L489.6,29.3z" />
	<path fill="#D0B9AA" d="M494,321c1,0.1,1.9,0.2,2.8,0.3c1.2,1.1,0.8,2.2,0.2,3.4c-0.6,0.2-1.3,0.4-1.9,0.6c0.1,1.2,1.3,1.2,2.1,1.7   c-0.4,0-0.7-0.1-1.3-0.1c-0.3,1.2-0.6,2.3-0.9,3.8c-2,0.4-1.8,4.7-4.4,4.1c0.2-2.3,2.1-4.1,2.2-6.6c-0.4-0.7-0.5-0.9-1.1-1.8   c0.3-1.7,0.7-3.6,1.1-5.5C493.1,321,493.5,321,494,321z" />
	<path fill="#E3CFB0" d="M482.1,32.3c0.8-3.2,1.6-6.4,2.4-9.7c1-0.1,1.5-0.6,1.3-1.6l0,0c0.8-0.2,0.9-0.8,0.8-1.4   c0.2-0.3,0.4-0.6,0.6-0.9c0,0,0,0,0,0c0.9-0.1,0.9-0.7,0.9-1.4c0,0,0,0,0,0c0.2-0.3,0.4-0.6,0.6-0.9c0,0,0,0,0,0   c0.3,0.3,0.6,0.6,0.9,0.9c-2.2,6.5-5.3,12.6-5.4,19.8c-0.5-0.4-0.9-0.8-1.4-1.1C482.6,34.8,482.3,33.5,482.1,32.3z" />
	<path fill="#D7C1A1" d="M482.9,36c0.4,0.4,0.9,0.7,1.4,1.1c0.1-5.2,1.5-10,3.6-14.6c0.1,2.2,0.2,4.5,0.3,6.7   c-3.7,5.7-1.8,13.8-2.4,20.4C484.7,45.1,483.8,40.6,482.9,36z" />
	<path fill="#CFB6A7" d="M348.3,254.4c0.8,0.8,0.5,2.4,2,2.2c-0.6,2.9-1.1,5.6-3,8c-0.9-0.5-1.7-1-2.7-1.6c0.2-3.2-0.6-6.4,1-9.4   c0.4,1,0.7,1.7,1,2.3C347.9,256.1,348.1,255.3,348.3,254.4z" />
	<path fill="#E2E3E3" d="M501.4,69.6c-0.3-5.1-0.4-10.1-0.6-15.2c2-0.2,4.3,2.9,3.7,4.7l0.1-0.1c-3.1,1.6-0.9,4.9,0.1,7.2   c-0.8,1.4-1.6,2.7-2.4,4.1C502,70.1,501.7,69.9,501.4,69.6z" />
	<path fill="#CDB5A6" d="M494,321c-0.4,0-0.9,0-1.3,0c0.5-3.7,1-7.4,1.6-11.6c2.7,2.8,4.2,6.5,2.4,10.3   C496,320.8,494.3,319.5,494,321z" />
	<path fill="#E5D0B1" d="M494,32.3c-2.2,3.2,1.3,8.8-2.1,11.1c-0.4-7.6-0.5-15.4,3-22.3c0.2,0.7,1.1,1.5,0.6,2.2   C494,25.8,495,29.4,494,32.3z" />
	<path fill="#161411" d="M491.2,63.1c-0.1,5-2.8,9.3-5.4,13.4c-0.3,0-0.5-0.1-0.8-0.1c3-6.1,4.8-12.6,5.4-19.4c1.2-0.8,0.5-2,0.6-3   c0.3,0,0.6,0.1,0.8,0C492.5,57.2,490.8,60,491.2,63.1z" />
	<path fill="#EBD8B9" d="M518,14.4c0.4,1,1.4,0.6,2.2,0.7c-0.9,1.1-2.4,0.4-3,1.6c-3.9-0.9-7.9-2.1-11.9-3.2c0,0,0,0,0,0   c0.1-0.2,0-0.5-0.1-0.7c0.2-0.3,0.4-0.6,0.7-0.9c2-0.4,4.1,0.2,6.1,0.2C513.8,13.5,516,13.7,518,14.4z" />
	<path fill="#44352C" d="M508.6,35.3c-5.4-1.7-7.8-7-10.7-11.1c0.4-2.6,1.3-7.5,4.4-7.6c-0.3,0.7-0.5,1.5-0.8,2.2   c-0.6,0.5-1.2,1-0.1,1.5l0,0c0.3,0.2,0.6,0.5,0.8,0.7c0,0.3,0,0.5,0,0.8c-0.8,0.1-1.5-0.5-2.2-0.8c-2.9,4.7,6.4,13.6,11.2,13.5   C510.6,35.7,509.5,35.2,508.6,35.3z" />
	<path fill="#DBC2B2" d="M534.6,113.7c1.4,1.7,2.9,3.4,4.3,5c0,2.6,0,5,0,7.5c-1.7-2.2-3.6-6.7-5.4-12.4   C533.8,113.8,534.2,113.8,534.6,113.7z" />
	<path fill="#302922" d="M506.2,45c0.2,0.5,0.4,1,0.6,1.5c-1.1,0.5-0.6,1.5-0.8,2.3c-0.6-0.4-1.1-0.8-1.9-1.3   c-0.3,0.4-0.7,0.8-1,1.2c-1-0.2-1.6-0.9-2-1.8c0.3-0.2,0.6-0.4,1-0.7c-1.7-1.3-2.5-2.5-4.1-4.4c-0.1,0.9-0.2,1.3-0.2,1.8   c-1.4-1.5-1.6-3.3-1.5-5.3c0.2,0,0.6,0,0.7,0c0.6,0.5,1.1,1,1.5,1.6l0,0c1.8,2.2,3.5,4.4,5.4,6.8C504.8,45.9,505.5,45.5,506.2,45z" />
	<path fill="#C8B496" d="M494.7,50.5c0.8-2.4-2-4.8,0-6.9c3.3,4.8,2.4,10.3,1.6,15.6c-1.7-1.3,0.3-3.8-1.3-5.2   C494.7,52.8,494.7,51.6,494.7,50.5z" />
	<path fill="#CFB9A9" d="M341.5,238.9c0.1,1.5,0,2.5-1,3.8c1.8,1.2,1.7,3,1.6,4.9c-3.1-0.2-5.4-4.2-3.6-7.3   C339.3,240,340.4,239.4,341.5,238.9z" />
	<path fill="#3D342C" d="M485.7,76.5c0.5-0.8,1-1.5,1.5-2.3c3.3-0.8,4.7-7.9,6-11.4c0,2.8,0.8,5.9-0.5,8.5c-0.1-0.6-0.2-1.3-0.4-2.3   c-0.9,3-2,4.6-3.6,7.1c0.4,0.2,0.7,0.4,0.9,0.6C489,77.6,486.9,76.8,485.7,76.5z" />
	<path fill="#292725" d="M402.8,315.8c-1.1,9.6,1.6,20.2-0.8,29.3c-0.2-1-0.5-2.1-0.7-3.1C404,334.2,400,323.8,402.8,315.8z" />
	<path fill="#E3D0AE" d="M378.8,282.1c3.7,3,7.3,6.5,12.1,7.5c-0.4,0.6-0.8,1.2-1.1,1.8c-3.3-2.3-6.3-3.9-10.1-5.4   C379.4,284.7,379.1,283.4,378.8,282.1z" />
	<path fill="#CDB899" d="M497.9,24.2c1.2,0.9,1.6,2.2,2,3.6c-1.2,2.5,2.5,6.4,4.4,8.4c-3.2,0.7-5.6-5.4-7.3-7.7   C497.3,27.1,497.6,25.7,497.9,24.2z" />
	<path fill="#D2C2B1" d="M355.7,228.3c-1.3,3.6-4.7,4.6-7.2,7.4c-0.7,0-1.7,0-2.6,0c2.1-2.5,4.3-4.7,7.5-5.7   C353.5,228.6,354.4,228.2,355.7,228.3z" />
	<path fill="#40342C" d="M502.3,10.6c0.3,2.1-1.8,1.2-3,0.8c-1.9,0.4-3.5,1.3-5.2,2.2c-0.3-0.2-0.5-0.5-0.8-0.7   c0.8-0.7,1.6-1.3,2.5-2c-0.2-0.2-0.4-0.5-0.7-0.7c0.2-0.3,0.3-0.6,0.5-1C497.9,9.2,500.6,8.8,502.3,10.6z" />
	<path fill="#D4BBAB" d="M343.1,241c1.2,2.8,1.7,6.2,3.6,9c-0.2,0-0.5,0-0.7,0.1c-0.6,0.5-1.2,1.1-1.8,1.6c-1.5-0.2-0.8-1.4-1.1-2.2   C343.9,246.5,342.7,243.8,343.1,241z" />
	<path fill="#65483E" d="M462.7,301.6c-0.3-3.6-1.8-7.3-1.1-10.9c0.7,2.5,1.4,5,2.1,7.4c0.2,0,0.4-0.1,0.8-0.1c0.5,1,1,2.2,2,2.9   c-0.3,0.6-0.9,0.8-1.6,0.7c-0.4-0.4-0.8-0.8-1.1-1.2C463.5,300.8,463.1,301.2,462.7,301.6z" />
	<path fill="#C6BCA0" d="M502.3,10.6c-1.8-1.8-4.4-1.4-6.7-1.3c0-0.4-0.1-0.7-0.1-1.1c2-2.7,6.1-0.9,8.2,1   C503.7,10.2,503,10.4,502.3,10.6z" />
	<path fill="#C0AE93" d="M499.3,11.4c0.7,0.2,1.5,0.4,2.2,0.6l0,0c-2.7,3.2-4.3,6.9-5.8,10.7c-0.2-0.5-0.5-1.1-0.7-1.6   c0.9-1.9,1.9-3.8,2.8-5.6c-0.3-0.1-0.4-0.3-0.6-0.4C498,14,498.7,12.8,499.3,11.4z" />
	<path fill="#28221D" d="M518,5.2c-0.9-0.3-1.7-0.6-2.6-0.9c1-1,2.4-1.5,3.6-0.5c2.9-0.2,5.8,0.1,8.6,0.9c-0.2,1.1-1.4,0.6-2.1,0.8   c-2.5-0.8-4.9-0.1-7.4,0C518,5.5,518,5.2,518,5.2z" />
	<path fill="#8F7F6A" d="M500.8,45c0.4,0.4,0.8,0.7,1.3,1.1c-0.4,0.3-0.7,0.5-1,0.7c1.3,2.1,4.5,2.7,3.1,5.9   c-2.9-2.1-4.9-4.9-5.7-8.4C499.2,44.5,500,44.8,500.8,45z" />
	<path fill="#BEAF93" d="M495.5,8.2c0,0.4,0.1,0.7,0.1,1.1c-0.2,0.3-0.3,0.6-0.5,1c0.2,0.2,0.5,0.5,0.7,0.7   c-2.6,1.7-4.5,3.9-6.2,6.5c-0.3-0.3-0.6-0.6-0.9-0.9c0.8-2.2,2.6-3.8,4-5.7c0.9-0.2,1.4-0.7,1.4-1.6C494.6,8.9,495,8.5,495.5,8.2z" />
	<path fill="#B8A597" d="M497,327c1,0.7,2,1.4,3,2.1c-0.1,0.8-0.1,1.4-0.2,2.1c-1.5,0.9-2.9,1.7-4.3,2.6c-0.2,0-0.5-0.1-1-0.2   C496.5,331.6,497.2,329.7,497,327z" />
	<path fill="#363028" d="M493.4,66.1c-0.4-4.5,0.4-9.1,0.7-13.6c0.2,0,0.4,0,0.6,0c0.6,4.4,0,9,0.1,13.5   C494.3,66,493.9,66,493.4,66.1z" />
	<path fill="#DAD091" d="M494.1,89.1c-0.3,0.3-0.6,0.6-0.8,0.9c-1.7-2.5-3.5-5.1-5.2-7.6c0.3-0.3,0.6-0.6,0.9-0.9   C491.6,83.4,492.6,86.4,494.1,89.1z" />
	<path fill="#3D3431" d="M468.7,410.8c-0.2-0.2-0.3-0.3-0.6-0.5c-1.7,1.8-3.4,3.8-6.1,4.3c-0.3-0.3-0.5-0.6-0.8-0.9   c0.4-0.8,1.1-0.7,1.7-0.7c1.6-1.5,3.2-3.1,4.8-4.6C468.3,409,470.1,410,468.7,410.8z" />
	<path fill="#2D2926" d="M345.9,250c0.2,0,0.5,0,0.7-0.1c1.2,1.3,0.9,3.1,1.6,4.5c-0.2,0.9-0.4,1.7-1.8,1.5c-0.3-0.6-0.6-1.3-1-2.3   c-0.4,1-0.7,1.7-1,2.5c0-1.1,0-2.2,0-3.3c0.3,0,0.7,0,1,0C345.7,251.8,345.8,250.9,345.9,250z" />
	<path fill="#6F6051" d="M512,12.2c-2,0-4-0.6-6.1-0.2c0.1-1,0.6-1.7,1.5-2.2c1.6,1.3,4.2-2,6-0.1c-0.9,0.4-2.1,0.1-2.6,1.4   c0.6,0.1,0.9,0.2,1.2,0.3C512,11.6,512,11.9,512,12.2z" />
	<path fill="#B2A38D" d="M505.9,48.8c0.3-0.8-0.3-1.8,0.8-2.3l0,0c0.2,0.3,0.5,0.5,0.7,0.8c0.2,2.5,3,3.7,4.5,5.6   C508.9,53.8,507.7,50.5,505.9,48.8z" />
	<path fill="#382E2A" d="M343.1,241c-0.4,2.9,0.9,5.6,0,8.4c-0.3-0.6-0.1-1.5-1-1.7c0.1-1.9,0.1-3.7-1.6-4.9c0.4-0.7,0.7-1.2,1-1.7   C342,240.8,342.5,240,343.1,241z" />
	<path fill="#8C7C67" d="M494.8,66c0-4,0.1-8,0.1-12c1.6,1.5-0.4,3.9,1.3,5.2C496.4,61.5,496.4,64.1,494.8,66   C494.8,66,494.8,66,494.8,66z" />
	<path fill="#735B4E" d="M520.3,7.5c-3.2-0.7-6.5-0.7-9.8-0.7c0.2-0.2,0.4-0.5,0.6-0.7c3.5,0.3,7.5-1,10.7,0.7   C521.3,7,520.8,7.3,520.3,7.5z" />
	<path fill="#423C33" d="M485.8,64.4c-0.8,2.4-1.6,4.8-2.4,7.2c-0.4-3.1,0.6-5.9,1.6-8.8C485.1,63.4,484.9,64.2,485.8,64.4z" />
	<path fill="#24201D" d="M470.9,122.1c1,1,2,2,3,3c-0.3,0.3-0.5,0.6-0.8,0.9C471,125.8,466.8,122.6,470.9,122.1z" />
	<path fill="#363028" d="M494.8,66c1-1,1.1-2.5,1.6-3.8c0.2,0,0.4,0,0.6,0c-0.4,2.9-0.9,5.7-2.1,8.4C494.9,69,494.8,67.5,494.8,66z" />
	<path fill="#4A3A31" d="M505.4,13.5c1.9,0.5,3.9,1.1,5.8,1.6c-1.3,2-4.3,0.1-5.9-0.7C505.3,14.1,505.3,13.8,505.4,13.5z" />
	<path fill="#D0BFA3" d="M489.6,76.6c-0.3-0.2-0.6-0.4-0.9-0.6c0.8-1.4,1.6-2.7,2.5-4c0.3,0.3,0.6,0.6,0.8,0.9   C492,74.6,491.2,75.8,489.6,76.6z" />
	<path fill="#212323" d="M400.4,283.8c-0.5-1.4,0.1-3.7-1.3-4.5c0-0.8-0.4-1.9,1.1-2.4C400.7,279.4,400.7,281.6,400.4,283.8z" />
	<path fill="#CDB3A4" d="M373.5,209.4c0.3,0.3,0.5,0.6,0.8,0.9c-0.5,1.7-1,3.5-1.5,5.2c-0.2-0.3-0.5-0.5-0.7-0.8   C372,212.8,372.4,211,373.5,209.4z" />
	<path fill="#B4A18A" d="M486.6,53.2c0.3,0,0.5,0.1,0.8,0.1c-0.3,2.4-0.6,4.9-0.9,7.3c-0.2-0.5-0.5-1-0.7-1.5c0.1-1,0.1-2,0.2-3   C487.1,55.4,486.3,54.2,486.6,53.2z" />
	<path fill="#828874" d="M523.3,3.7c-1.7-0.2-3.8,0.7-5.2-0.5c2.4-0.3,4.9-0.7,7.3-1l0,0.3C524.7,2.9,524,3.3,523.3,3.7z" />
	<path fill="#C1BC84" d="M538.1,132.6c-0.3,0.3-0.6,0.6-0.8,0.9c-1.1-1.3-1.7-2.7-1.2-4.7C537.5,129.8,537.8,131.2,538.1,132.6z" />
	<path fill="#180E0D" d="M407.3,425.8c1.1,0,2.2,0,3.3,0c0.4-0.5,0.8-1,1.2-1.5c0.6,0.6,0.9,1.4,0.8,2.2   C410.8,426.3,408.7,427.1,407.3,425.8z" />
	<path fill="#708572" d="M518.2,6c-2.3,0-4.7,0.1-7,0.1c1.6-1.7,4.7-0.5,6.9-0.9C518.1,5.4,518,5.8,518.2,6z" />
	<path fill="#463C38" d="M530,131c0.5,1,1,2,1.4,3c-0.3,0.5-0.5,1.1-0.8,1.6c-0.5-1.3-1-2.5-1.6-3.8   C529.4,131.6,529.7,131.3,530,131z" />
	<path fill="#E1C7B6" d="M412.6,426.5c0.1-0.9-0.2-1.6-0.8-2.2c1.2,0.3,2.5,0.5,3.7,0.8C414.8,426,413.9,426.6,412.6,426.5z" />
	<path fill="#6B5F51" d="M485.7,59.1c0.2,0.5,0.5,1,0.7,1.5c-0.2,1.3-0.5,2.5-0.7,3.8C484.4,63.5,484.9,60.4,485.7,59.1z" />
	<path fill="#F2F3F3" d="M504.5,59.2c1.6,1.4,0.6,3.1,0.9,5.1C503.3,62.5,504.6,60.7,504.5,59.2L504.5,59.2z" />
	<path fill="#B8ADA4" d="M490.7,339.7c-0.8-1.2-0.5-2.1,0.5-3.2c0.5,0.9,0.9,1.5,1.4,2.4C491.9,339.2,491.3,339.5,490.7,339.7z" />
	<path fill="#A39B81" d="M500.8,45c-0.8-0.2-1.6-0.5-2.3-0.7c-0.2-0.3-0.4-0.5-0.7-0.8c0.1-0.4,0.1-0.9,0.2-1.8   C499.1,43,500,44,500.8,45z" />
	<path fill="#7B7777" d="M501.4,69.6c0.3,0.3,0.5,0.5,0.8,0.8c0.1,1.3-0.5,2.2-1.8,3.3C500.8,71.9,500.5,70.8,501.4,69.6z" />
	<path fill="#857F74" d="M534.6,113.7c-0.4,0-0.7,0.1-1.1,0.1c-0.8-0.7-1.5-1.4-1.1-2.9C533.6,111.7,534,112.8,534.6,113.7z" />
	<path fill="#D7C1A1" d="M486.6,53.2c-0.3,1,0.5,2.2-0.7,3c0-1.7,0-3.5-0.1-5.2C486.9,51.5,486.5,52.4,486.6,53.2z" />
	<path fill="#9A8C74" d="M492,72.8c-0.3-0.3-0.6-0.6-0.8-0.9c0.3-0.9,0.7-1.8,1.1-3.1c0.2,1.1,0.3,1.7,0.4,2.3   C492.5,71.8,492.2,72.3,492,72.8z" />
	<path fill="#232120" d="M360.2,284.3c1,1.4,0.5,3,0.6,4.6C359.7,287.6,360.3,285.9,360.2,284.3z" />
	<path fill="#CFB6A7" d="M345.9,250c-0.1,0.9-0.3,1.8-0.4,2.8c-0.3,0-0.7,0-1,0c-0.1-0.4-0.3-0.8-0.4-1.2   C344.7,251.1,345.3,250.5,345.9,250z" />
	<path fill="#969675" d="M488.9,81.6c-0.3,0.3-0.6,0.6-0.9,0.9c-0.5-0.6-1.1-1.2-2.1-2.3C487.6,80.4,488.3,80.8,488.9,81.6z" />
	<path fill="#95857D" d="M496.5,274.6c-0.3,0-0.5,0.1-0.8,0.1c0.4-1.1,1.1-2,2.2-2.4C498.1,273.3,497.3,274.2,496.5,274.6z" />
	<path fill="#C6B194" d="M497,29.1c0,1.1,0.7,2.3-0.6,3.2C496.6,31.2,496.8,30.1,497,29.1z" />
	<path fill="#232120" d="M361,290.2c0.7,0.9,0.7,2,0.6,3.1C360.4,292.5,360.9,291.3,361,290.2z" />
	<path fill="#5C5146" d="M483.5,76.4c0.2,0.2,0.5,0.4,0.7,0.6c-0.1,0.9-0.6,1.4-1.4,1.7l-0.1-0.1C482.9,77.8,482.7,76.9,483.5,76.4z   " />
	<path fill="#978B7F" d="M372.1,214.8c0.2,0.3,0.5,0.5,0.7,0.8c-0.2,0.5-0.4,1.1-0.6,1.6c-0.3-0.3-0.5-0.5-0.8-0.8   c0-0.5,0.1-1,0.1-1.5C371.7,214.8,371.9,214.8,372.1,214.8z" />
	<path fill="#C0AE93" d="M494.9,26.5c0-1.1-0.6-2.3,0.7-3.1C495.6,24.4,495.6,25.5,494.9,26.5z" />
	<path fill="#40342C" d="M494.2,9.2c0,1-0.6,1.4-1.4,1.6C492.7,9.8,493.3,9.3,494.2,9.2z" />
	<path fill="#302922" d="M504.5,51c-0.2-0.5-0.4-1-0.6-1.5C504.5,49.8,504.6,50.4,504.5,51z" />
	<path fill="#BEAF93" d="M485.8,21c0.1,0.7,0.1,1.3-0.8,1.5C485.2,22,485.5,21.5,485.8,21z" />
	<path fill="#BEAF93" d="M486.6,19.6c0,0.7,0,1.3-0.8,1.4C486.1,20.6,486.3,20.1,486.6,19.6z" />
	<path fill="#5C5146" d="M482.9,78.7c-0.1,0.4-0.2,0.8-0.3,1.3C481.9,79.2,482.2,78.9,482.9,78.7L482.9,78.7z" />
	<path fill="#BEAF93" d="M488.1,17.3c0,0.7,0,1.3-0.9,1.4C487.5,18.3,487.8,17.8,488.1,17.3z" />
	<path fill="#65483E" d="M464.8,302.3c0.2,0.7,0.1,1.2-0.6,1.6C464,303.2,464.1,302.6,464.8,302.3z" />
	<path fill="#716454" d="M498.7,15.9c0.2-0.3,0.4-0.6,0.6-0.9C499.1,15.4,498.9,15.6,498.7,15.9z" />
	<path fill="#FF9A77" d="M498.5,271.6c-0.2,0.3-0.4,0.6-0.6,0.9l-0.1-0.3C498.1,272.1,498.3,271.9,498.5,271.6   C498.6,271.7,498.5,271.6,498.5,271.6z" />
	<path fill="#C6B194" d="M497.1,38.2c-0.2,0-0.5,0.1-0.7,0c-0.1-0.2-0.1-0.5,0-0.7C496.6,37.8,496.8,38,497.1,38.2z" />
	<path fill="#363028" d="M494.7,71.2c-0.2,0.3-0.3,0.6-0.5,0.9C494.3,71.8,494.5,71.5,494.7,71.2z" />
	<path fill="#4A3A31" d="M505.3,12.8c0.1,0.2,0.2,0.4,0.1,0.7c-0.2,0-0.4-0.1-0.5-0.1C505,13.2,505.1,13,505.3,12.8z" />
	<path fill="#40342C" d="M501,12.9c0.2-0.3,0.4-0.6,0.5-0.8C501.3,12.3,501.2,12.6,501,12.9z" />
	<path fill="#BEAF93" d="M487.2,18.7c-0.2,0.3-0.4,0.6-0.6,0.9C486.8,19.3,487,19,487.2,18.7z" />
	<path fill="#302922" d="M503.8,49.4c-0.2-0.2-0.4-0.5-0.7-0.7C503.4,48.9,503.6,49.2,503.8,49.4z" />
	<path fill="#BEAF93" d="M488.7,16.5c-0.2,0.3-0.4,0.6-0.6,0.9C488.3,17,488.5,16.8,488.7,16.5z" />
	<path fill="#E6D9B5" d="M357.9,270.9c-0.3,0.2-0.6,0.4-0.9,0.6C357.3,271.3,357.6,271.1,357.9,270.9z" />
	<path fill="#5C5146" d="M484.2,74.8c-0.2,0.3-0.3,0.6-0.5,0.9C483.8,75.4,484,75.1,484.2,74.8z" />
	<path fill="#F7EFD0" d="M506,586.7c0,1,0,1.9,0.1,2.9c-0.4,0.7-0.9,1.4-1.5,2.3c-14.5-1.9-29.1,1.2-43.4-1.2   c-4.2-1.3-7.7-4.7-12.3-3.9c-1.9,2.3-4.9,3-7.7,3.5c-8.1-1.2-15.7-1.2-24-1.4c3.6-9,5.1-18.1,6.1-27.3c0.6,0.2,0.9,0.3,1.2,0.4   c8.5,14.9,20.4,2,27.4-6.8c7.1,0.6,6.5,0.5,8.4,3.3c-3.4,2.1-6.8,4.2-6.3,9c2.7-0.9,5.4-3,9.1-7.1c1.3,0.8,2.6,1.6,4.1,2.6   c-2.3,2.4-6.1,3.1-6.6,6.9c3.4,0.8,6.2-0.5,9.7-4.8c0.8,0.6,1.5,1.1,2.4,1.8c-0.9,2-3.4,2.6-3.2,5.3c1.9,1.1,4.9-1,6.1,1.2   c-0.3,0.8-0.7,1.5-1.1,2.5c2.7,0.6,4.5-0.6,6.1-2.3C488.3,579,503.9,575.7,506,586.7z" />
	<path fill="#EBDDB8" d="M424.5,561.9c-0.3-0.1-0.7-0.2-1.2-0.4c-1,9.2-2.5,18.4-6.1,27.3c8.3,0.2,15.9,0.2,24,1.4   c2.8-0.5,5.8-1.2,7.7-3.5c4.7-0.8,8.1,2.6,12.3,3.9c14.4,2.4,28.9-0.6,43.4,1.2c0.6-0.9,1-1.6,1.5-2.3c-0.1,1.2-0.1,2.4-0.2,3.5   c-2.1,1.8-4.3,2.6-6.8,3c-6.8-2.8-15.2,1.5-22.6,0.8c-6.5,0.8-12.9-1.4-19.5-2c-4.4-1.2-8.9-1.1-13.2,0   c-10.3,3.3-20.3,0.1-30.8-0.9c-0.3-0.4-0.8-0.9-1.3-1.5c0-4.2,4.4-6.8,3.5-10.8c-0.5-6.9,5.7-13.6,3-20.5c1.1-1.8,2.1-3.5,3.2-5.1   c0.5,0.1,0.9,0.1,1.4,0.2C423.6,558,424.4,559.8,424.5,561.9z" />
	<path fill="#B9BDA4" d="M475.5,573.3c-0.3-0.9-1.1-0.9-1.8-1c1.1-0.9,2.4-1.4,3.9-1.7C477.5,572.3,476.2,572.6,475.5,573.3z" />
	<path fill="#F6D9C7" d="M518,53.3c-1.1-0.6-1.7,0.7-2.7,0.8c-1-1.2-2.1-2.5-3.2-3.8c0,0-0.1,0-0.1,0c3.7,1.6,5.5,0.4,5.6-3.7   c-0.6-0.3-1.4-0.7-2.1-1.1c0.9-1.5,1.2-2.1,1.8-3.5c1.2,0.3,2,1.6,3,0.1c1.5-0.6,2.6-1.3,2.7-3.1c0.6-1.6,3-2.4,2.4-4.6   c-0.7-3,2.9-2.6,3.7-4.9c-0.5-0.1-0.9-0.2-1.3-0.2l0,0c0-0.2,0.1-0.4,0.2-0.6c0.2,0,0.4,0,0.5-0.2c2.4-0.5,5-1.4,7.4-1.6   c1.2-1.5,2.3-2.8,3.4-4.2c-2.1-0.1-4.5,0.5-6.3-0.8c1.6,0,3.2-0.4,4.5-1.5c1.1,0,2.4,0.1,2.5-1.4c-2.2-0.3-3.7-2-5.5-3.1   c0-0.2,0-0.5,0-0.7c2.8-0.3,5.3,0.9,8,0.9c1.2,0.8,2.4,0.7,3.5,0.6c0.5-0.6,0.9-1.1,1.2-1.5l0,0c0.5,1,0.8,2.2,2.4,2.8   c-0.3-2-0.6-3.6-0.9-5.2c0,0-0.1,0.1-0.1,0.1c1.8-0.1,2.6,1.4,3.8,2.2c0.5,1.3,1.3,0.5,2,0.4c0.7,0.6,1.4,1.2,2.5,2.2   c-0.1-0.9-0.1-1.3-0.1-1.8c0.3,0,0.5,0,0.8,0.1c0.8,0.7,1.6,1.5,2.4,2.2c1.3,6.2,1,13.2,2.7,19.1c0,0.2,0,0.3,0.1,0.4   c-0.9,0.7-1.9,1.4-3,2.2c-0.8,4.9,3.1,8.8,3.6,13.5c-0.8,0.2-1.6,0.4-2.5,0.7c-0.6-0.7-1.1-1.3-1.8-2c-1,0.4-2.1,0.8-3.1,1.3l0,0   c-0.7-0.4-0.8-1.6-2-1.2c-1.1,2.9,2.9,1.9,4.9,2.8c0.3,1.9,0.6,3.9,0.9,6c-0.2-0.1-0.5-0.1-0.7,0c-2.2-1.6-4.9-0.4-7.4-0.8   c-6-2.1,4.1,4.8,0.6,6.8c0.9,1.6,2.7,1,3.9,1.7c0.6,2.9,1.1,5.8-0.6,8.5c-7.6,0.5-15.6-1.9-22.6-5c-2.2-0.7-4.5-4.3-6.7-3   C520.5,65.8,523,56.7,518,53.3z M544.2,38.4c1.8-0.5,4.2,0.2,1.7,1.9c1.6,0.6,3.2,1.2,4.6,1.7c1.3-0.6,2.2-1.1,2.1-2.3   c-0.6-5.7-6.9-2.3-10.5-2C542.8,39.1,542.8,39.1,544.2,38.4z M556.1,36.2c-1.4-5.6-8.4-7-13.4-5C548.5,31.7,551.5,33.4,556.1,36.2z   " />
	<path fill="#D0AD9E" d="M553.2,65.3c0.1-1.6-1.5-2.5-2.3-3.8c2.3-0.2,4.5-0.2,6.7,0.6c0.1,0.2,0.3,0.2,0.5,0.2   c0.3,0.2,0.6,0.5,1,0.7l0,0c0,0.7,0.1,1.4,0.1,2.2C557.2,66,555.3,64.8,553.2,65.3z" />
	<path fill="#5E4742" d="M531.6,71c0.5,0.3,1,0.6,1.5,0.9c-0.3,0.3-0.5,0.5-0.8,0.8c-0.5-0.2-1-0.5-1.5-0.7   C531,71.6,531.3,71.3,531.6,71z" />
	<path fill="#DBD0B2" d="M523.3,3.7c6.8-4.2,14.4,1.3,20.7,4c-0.2,0.8-0.9,0.5-1.4,0.7c-3.7-1.3-7.4-2.9-10.9-4.7   c-1.2,0.6-2.1,1.1-2.8,1.4C527,4.5,525.3,4.2,523.3,3.7z" />
	<path fill="#17100E" d="M538.2,6.8c3.2,0.7,5.7,3.2,9,3.1l0,0c0.1,0.5,0,0.9,0,1.4c-0.3,0.1-0.5,0.1-0.8,0.2   c-0.1-0.2-0.1-0.4-0.4-0.4c0.7,0.6,0.8,1.8,1.9,1.8l0,0c-0.2,0.8,0.3,1.9-0.8,2.3c0,0,0,0,0,0c-0.7-0.8-1.5-1.5-2.2-2.3   c-0.2,0-0.5,0-0.7,0c0,0,0.1,0,0.1,0c-0.3-0.3-0.5-0.5-0.8-0.8c0,0,0,0,0,0c-0.4-1.1-1.2-1.5-2.3-1.5l0,0c-0.5-1.6-2.5-1.5-3.4-2.7   C538,7.4,538.1,7.1,538.2,6.8z" />
	<path fill="#959A84" d="M557.6,15.9c-0.3,0-0.5,0-0.8-0.1c-2.1-1.4-3.5-2.2-5.3-4.4C554.5,12.4,555.2,13,557.6,15.9z" />
	<path fill="#5F5449" d="M553.7,13.8c1.1,0.7,2.1,1.3,3.1,2.1c0,0.4,0,0.9,0.1,1.8c-1.1-1-1.8-1.6-2.5-2.2c-0.7,0.1-1.6,0.9-2-0.4   C553.1,14.9,553.6,14.5,553.7,13.8z" />
	<path fill="#71695A" d="M547.2,9.9c-1.7,0.1-3.2-0.4-4.5-1.5c0.5-0.2,1.2,0.2,1.4-0.7C545.3,8.2,546.7,8.4,547.2,9.9z" />
	<path fill="#4A483E" d="M546.4,11.4c0.3-0.1,0.5-0.1,0.8-0.2c0.3,0.5,1,0.9,0.8,1.6C547.1,12.7,546.7,12.1,546.4,11.4   C546.4,11.3,546.4,11.4,546.4,11.4z" />
	<path fill="#71695A" d="M547.2,10.5c0-0.2,0-0.5-0.1-0.7c0.3,0.1,0.7,0.1,1.7,0.3C547.9,10.4,547.6,10.4,547.2,10.5z" />
	<path fill="#F6D9C7" d="M548,12.8c0.1-0.2,0.1-0.4,0-0.6c0.2,0.2,0.5,0.5,0.7,0.7c0,0,0.1-0.1,0.1-0.1   C548.5,12.8,548.2,12.8,548,12.8L548,12.8z" />
	<path fill="#22201F" d="M562.8,37.2c-0.6-0.5-0.7-1.1-0.6-1.9C563.1,35.7,562.8,36.5,562.8,37.2z" />
	<path fill="#080706" d="M555.3,61.5c-1.8-0.2-3.1-1.2-5.1-0.8l0,0c0.9-1.5,3.1-0.6,4.5-0.7c1.2,1.2,3,0.6,4.5,0.7   c0.1,0.2,0.2,0.3,0.4,0.5c0.1-0.2,0.2-0.4,0.3-0.6c0.7,0.3,0.8,0.8,0.6,1.4c-0.5,0.3-0.9,0.6-1.4,1c0,0,0,0,0,0   c-0.1-1-1-0.5-1.5-0.9C557.1,61.1,556.1,61.5,555.3,61.5z" />
	<path fill="#5C4944" d="M556.1,54c-2.3-0.2-2.3-0.2-2-2.1c1.1-0.4,1.3,0.8,2,1.2C556.1,53.4,556.1,53.7,556.1,54z" />
	<path fill="#5C4944" d="M556.1,53.1c0.3-0.2,0.6-0.3,0.9-0.5C556.7,52.8,556.4,53,556.1,53.1z" />
	<path fill="#322C28" d="M393.8,395c-0.4,0.1-0.7,0.2-1.1,0.3c-1.9-1.9-2.7-4.4-3.4-6.8c0.2-0.6-0.1-1.5,0.9-1.6   c1.2,2.6,2.4,5.1,3.6,7.7C393.7,394.6,393.7,394.8,393.8,395z" />
	<path fill="#221614" d="M408.1,404.2c-2.2,1.6-2.4,4.7-5.9,3.2c1.8-1.8,3.9-3,5.7-4.5C408,403.3,408.1,403.8,408.1,404.2z" />
	<path fill="#928076" d="M390.1,386.8c-1,0.1-0.7,1-0.9,1.6c-1.3-3.1-1.3-7.2-1.2-10.7C389,380.6,389,383.9,390.1,386.8z" />
	<path fill="#040404" d="M405.7,419.5c-0.3,1-0.6,2-1.1,3.5c-0.9-2.7-1.3-4.5-0.1-6.9C406.3,416.1,405.6,418.3,405.7,419.5z" />
	<path fill="#473E39" d="M388,377.8c0,1.1-0.1,2.1-0.1,3.2c-2.3-1.4-1.2-4-1.4-6.5c0.6,0.5,1,0.9,1.4,1.2   C387.8,376.4,387.9,377.1,388,377.8z" />
	<path fill="#010101" d="M401.9,345.1c0.3-0.6,0.7-1.3,1-1.9c1,2.1,1.2,7.3-0.1,9.2C402.8,349.9,403.2,347.1,401.9,345.1z" />
	<path fill="#433E39" d="M386.2,368.7c-1.5-1.6-1.3-3.5-1.2-5.5c0.5,0,0.9-0.1,1.2-0.1C386.2,365,386.2,366.8,386.2,368.7z" />
	<path fill="#292725" d="M402,345.7c1.7,1.5,0.4,4.6,0.8,6.7c-0.2,0-0.4-0.1-0.7-0.2C402.1,350,402.1,347.9,402,345.7z" />
	<path fill="#5A524B" d="M408.1,404.2c0-0.4-0.1-0.9-0.1-1.3c0.5-0.7,0.8-1.7,2.3-1.8C410.1,402.6,409.2,403.4,408.1,404.2z" />
	<path fill="#504641" d="M411.5,395.2c-0.2,2.5-0.2,2.5-1.9,2.6C410.3,396.9,410.9,396.1,411.5,395.2z" />
	<path fill="#2F1F1D" d="M415.7,386.5c0.3-0.6,0.6-1.1,0.9-1.8C417,386.2,417,386.2,415.7,386.5z" />
	<path fill="#826E66" d="M418.6,381.2c-0.3,0.6-0.2,1.3-1,0.9c0.2-0.4,0.4-0.7,0.5-1.1C418.2,381.1,418.4,381.1,418.6,381.2z" />
	<path fill="#8E7B72" d="M385.6,358.4c-1.1-1-1.1-1,0-2.2C385.6,357,385.6,357.7,385.6,358.4z" />
	<path fill="#E1C7B6" d="M404.4,416.1c-0.3,0.8-0.5,1.6-0.8,2.4C403.6,417.6,403,416.5,404.4,416.1z" />
	<path fill="#E1C7B6" d="M393.7,394.5c-0.3-0.5-0.5-1.1-0.8-1.6C393.9,393.1,393.8,393.8,393.7,394.5z" />
	<path fill="#2A2321" d="M414.4,389.8c0.1,0.8,0.2,1,0.2,1.3c-0.2,0-0.4,0-0.6,0C414.1,390.8,414.2,390.6,414.4,389.8z" />
	<path fill="#E0C6B5" d="M450.4,428c-0.4-1-0.8-2-1.3-3c1.2-0.4,0.9-1.2,0.4-2.1c-0.3,0-0.7,0-1,0.1c0-1.6,0-3.1,0-5   c0.9-1,1.6-2.7,3.7-2.7c0,0.6-0.1,1.1-0.2,1.9c1.8-0.3,2.9-1.1,4.6-1.1c0.4,4.4,3.3,10.2-1.4,13.3c-0.6,0-1.5,0-2.3,0   c-0.5-0.7-1.1-1.5-1.7-2.3C450.9,427.5,450.7,427.8,450.4,428z M452,417.8c-2.2,1.1-2.2,1.1-1.4,2.6   C451,419.7,451.3,419.1,452,417.8z" />
	<path fill="#1C1816" d="M434.1,451.9c-0.1-0.8-0.3-1.6-0.4-2.6c2.2,1,2.2,2.8,4.6,3.9c0.3,3.2,1.2,6.5,1.1,9.9   c-0.4,0-0.9,0-1.3-0.1C437.9,459,436.5,455.3,434.1,451.9z" />
	<path fill="#161110" d="M432,559.6c-0.2-0.3-0.4-0.6-0.7-0.8c-0.1-0.7-0.2-1.4,0.8-1.6c1.9,1.4,7.6,2.8,4.5,5.8   C434.9,561.8,433.5,560.7,432,559.6z" />
	<path fill="#1C1817" d="M456.7,416.2c-0.2-0.1-0.5-0.1-0.7,0c-0.3-0.3-0.6-0.6-0.9-0.9c2.1-1.8,4.3-3.4,7.3-4   c0.2,0.6,0.3,1.2,0.5,1.7c-0.7,0-1.4,0-1.7,0.7C459.7,414.7,458.3,415.5,456.7,416.2z" />
	<path fill="#3A312D" d="M446.1,403.3c0.1-0.7,0.2-1.4,0.4-2.7c1.5,2.3,2.2,4.4,2.6,6.8c-0.6,0.2-1,0.3-1.5,0.4   C446.5,406.6,446.8,404.8,446.1,403.3z" />
	<path fill="#1C1715" d="M440.3,475c-0.6-2.2-1.1-3.6-0.9-6.1c2.4,2,2.4,4,1.5,6.1C440.7,475,440.5,475,440.3,475z" />
	<path fill="#322927" d="M455,437.6c-1.9-0.2-1.8-2.8-1-4.3C455.8,433.8,455.3,436.2,455,437.6z" />
	<path fill="#392F2B" d="M439.4,483.5c0.4,1.9,0.2,3.3-0.2,4.9C437.2,487,437.5,484.7,439.4,483.5z" />
	<path fill="#746C63" d="M455.1,415.2c0.3,0.3,0.6,0.6,0.9,0.9c-1.4,0.4-2.4,0.7-3.9,1.1c0.1-0.8,0.1-1.3,0.2-1.9   C453.2,415.2,454.1,416.2,455.1,415.2z" />
	<path fill="#91978F" d="M458.8,415.2c0.8-0.5,1.6-1,2.3-1.5c0.3,0.3,0.5,0.6,0.8,0.9C460.7,416.2,460.7,416.2,458.8,415.2z" />
	<path fill="#62524C" d="M436,492.8c-0.2-1.4-0.2-1.4,1.1-2.9C438.1,491.1,437.5,492.6,436,492.8z" />
	<path fill="#8A766D" d="M432.1,557.2c-1,0.2-0.9,0.9-0.8,1.6c-1.3-1.4-1.1-2.3,0.6-3.6C432,555.8,432.1,556.5,432.1,557.2z" />
	<path fill="#261E1C" d="M462.3,421.1c0.2,1.8,0.1,1.8-2.5,1.4C460.3,421.3,461.2,421,462.3,421.1z" />
	<path fill="#322D2A" d="M431.9,553.6c-1.7,0.2-0.6-1.9-0.7-2.9C433,550.1,432.1,552.7,431.9,553.6z" />
	<path fill="#6B5E57" d="M450.4,428c0.2-0.2,0.4-0.5,0.8-0.9c0.6,0.9,1.2,1.6,1.7,2.3c-0.2,0.2-0.4,0.5-0.8,0.9   C451.5,429.5,451,428.8,450.4,428z" />
	<path fill="#69665E" d="M438.1,463.1c0.4,0,0.9,0,1.3,0.1C440.2,465.8,437.5,465.8,438.1,463.1z" />
	<path fill="#76665F" d="M432.3,546.8c-0.3-0.1-0.6-0.2-1.1-0.3c0.3-0.8,0.6-1.6,1.1-2.8C433,545.1,433,545.9,432.3,546.8z" />
	<path fill="#4D3E3A" d="M448.6,423c0.4,0,0.7,0,1-0.1c0.5,0.9,0.8,1.6-0.4,2.1C449,424.3,448.8,423.7,448.6,423z" />
	<path fill="#463430" d="M432.2,540.9c-0.7-1-0.1-1.4,0.8-1.8C433.5,540.2,432.9,540.6,432.2,540.9z" />
	<path fill="#493935" d="M433.3,535c0.1,0.5,0.1,1.1,0.2,1.6c-0.2,0-0.4,0-0.5,0c0-0.5-0.1-1.1-0.1-1.6   C432.9,535.1,433.1,535.1,433.3,535z" />
	<path fill="#8C857B" d="M440.3,475c0.2,0,0.4,0,0.6,0c-0.1,0.7-0.1,1.3-0.2,2c-0.1,0-0.3,0-0.4,0   C440.3,476.4,440.3,475.7,440.3,475z" />
	<path fill="#706760" d="M435.5,495.4c0.2,0.5,0.3,0.8-0.2,1C435,496,434.9,495.7,435.5,495.4z" />
	<path fill="#4E4640" d="M383.3,140.8c-2.4,0.9-0.8,4.1-2.5,5.5c-1.5-3.1-0.7-6.1,2.4-7.1c0.3,0.3,0.5,0.5,0.8,0.8   C383.8,140.3,383.6,140.5,383.3,140.8z" />
	<path fill="#4F443F" d="M372.1,214.8c-0.5,0.1-0.9,0-1.4,0.1c0.8-2.7,0.8-5.9,2.2-8.3C374.7,209.4,371.5,211.8,372.1,214.8z" />
	<path fill="#28201E" d="M485.9,92c1.9,1.4,3.2,2.7,3.2,5.1C486.9,97.9,485.9,94.1,485.9,92z" />
	<path fill="#2A1E1B" d="M425.8,115.2c0.1-1.7,2.6-3.2,2.4-0.7c-0.5,0.5-1.1,1-1.6,1.4C426.4,115.8,426.1,115.5,425.8,115.2z" />
	<path fill="#251514" d="M345.1,239.6c1.1-0.5,1.9-0.9,3-1.5c0.1,1.5-0.7,2-1.8,2.5C346.1,240.4,345.7,240.1,345.1,239.6z" />
	<path fill="#463D38" d="M486.6,105.6c0.3-0.8,0.6-1.5,1.1-2.8c0.9,1.5,0.8,3-0.3,4.3C487.2,106.6,487.4,105.9,486.6,105.6z" />
	<path fill="#322D29" d="M384.1,140c-0.3-0.3-0.5-0.5-0.8-0.8c0.3-1.6,2.8-2.1,2.1,0C385,139.5,384.5,139.7,384.1,140z" />
	<path fill="#50433E" d="M349.9,236.7c0.5-1.5,1.5-1.2,2.7-0.9C351.2,237.3,351.2,237.3,349.9,236.7z" />
	<path fill="#776E65" d="M425.8,115.2c0.3,0.3,0.6,0.5,0.8,0.8c-0.4,1-0.9,1.9-2.1,2.2C424.4,117,425,116.1,425.8,115.2z" />
	<path fill="#171C1A" d="M355.4,234.9c-1.5,0-2.2,0-3.2,0C353.8,233.6,353.8,233.6,355.4,234.9z" />
	<path fill="#120B0B" d="M486.6,105.6c0.8,0.3,0.6,1,0.8,1.6c-0.4,0.4-0.8,0.7-1.2,1.1C485.2,107,486,106.4,486.6,105.6z" />
	<path fill="#262523" d="M419.3,126.5c-0.1-1-0.1-2.8,1.4-2C420.2,125.3,420.4,126.7,419.3,126.5z" />
	<path fill="#695D56" d="M358,231.6c-0.7,0.5-1.2,0.8-1.9,1.3C355.9,231.1,356,231,358,231.6z" />
	<path fill="#1D0D0C" d="M352.1,247.7c-1.5,1.7-1.5,1.7-2.3,0.2C350.5,247.8,351.2,247.7,352.1,247.7z" />
	<path fill="#765750" d="M355.3,245.1c-0.3,0.7-1.1,1.6-1.9,0.9C353.1,245,354.7,244.4,355.3,245.1z" />
	<path fill="#493C38" d="M374.1,201.3c0.7,1,0.1,1.5-0.8,1.8C372.6,202.2,373.2,201.7,374.1,201.3z" />
	<path fill="#403430" d="M373.5,208c-0.2-0.5-0.4-1-0.6-1.5C373.8,205.2,373.8,207.4,373.5,208z" />
	<path fill="#110C0C" d="M370.7,214.8c0.3,0,0.6,0,0.8,0c0,0.5-0.1,1-0.1,1.5C370.3,217.4,370.4,215.5,370.7,214.8z" />
	<path fill="#8C736A" d="M375.1,198.3c-0.1,0.2-0.2,0.4-0.2,0.6c-0.5-0.2-0.4-0.5-0.2-0.9C374.8,198.1,374.9,198.2,375.1,198.3z" />
	<path fill="#F08B6B" d="M441.3,254.7c4.6,0,8.9,4.3,12.1,7.4c-0.7,0.8-1.1,0.2-1.6-0.1C448.8,259.9,440.5,259.4,441.3,254.7z" />
	<path fill="#865444" d="M452.2,274.6c-1.3-2-3.4-3.1-5.3-4.5c0.3-0.3,0.5-0.5,0.8-0.8c4.2,3.2,8.6,6.4,11.9,10.6   c-0.2,0.2-0.5,0.5-0.7,0.7C456.7,278.6,454.5,276.5,452.2,274.6z" />
	<path fill="#3B221C" d="M494,276.1c-2.2,1.8-4.4,3.6-6.6,5.4c-0.3-0.3-0.6-0.5-0.9-0.8c1.6-2.5,4.6-3.3,6.7-5.3   C493.5,275.6,493.8,275.8,494,276.1z" />
	<path fill="#492B23" d="M455.8,272.5c-2.6-1.6-5.3-3.2-7.9-4.8c0-0.1,0.1-0.3,0.1-0.4c3.2,0.2,5.7,3,8.6,4.4   C456.4,271.9,456.1,272.2,455.8,272.5z" />
	<path fill="#644135" d="M458.9,280.6c0.2-0.2,0.5-0.5,0.7-0.7c1.9,2.3,3.9,4.2,5.3,6.9C462.9,286.2,460.6,282.4,458.9,280.6z" />
	<path fill="#472821" d="M479.8,298.5c-2.1,1-4.2,1.6-6.6,1.9c0.9-1.7,2.5-2.3,6.7-2.6C479.9,298.1,479.8,298.3,479.8,298.5z" />
	<path fill="#2F1A16" d="M466.5,300.9c-0.3-0.3-0.7-0.6-1-1c1.2-1.5,2.9-2.2,4.5-3.1c0.3,0.3,0.5,0.6,0.8,0.9   C469.4,298.8,467.9,299.9,466.5,300.9z" />
	<path fill="#6D443A" d="M494,276.1c-0.2-0.2-0.5-0.5-0.7-0.7c1.4-1.5,2.8-3,4.3-4.7c0.4,0.4,0.7,0.7,1,1c-1.1,1-2.5,1.5-2.9,3.1   C495.1,275.2,494.6,275.6,494,276.1z" />
	<path fill="#372722" d="M459.6,283.7c1.1,1.5,2.8,2.4,2.1,4.6c-2-0.8-1.9-2.7-2.9-3.8C459.1,284.2,459.4,283.9,459.6,283.7z" />
	<path fill="#76473B" d="M467,303.7c2.6-1.3,4.3-0.4,7.4-1c-2,1.4-3.6,1.5-5.2,1.8C468.8,303.4,467.8,304,467,303.7z" />
	<path fill="#B96C54" d="M447.8,269.3c-0.3,0.3-0.5,0.5-0.8,0.8c-1.4-1.1-2.9-2.1-4.3-3.2c0.1-0.1,0.1-0.3,0.2-0.4   C444.9,266.8,446.4,267.8,447.8,269.3z" />
	<path fill="#905A48" d="M459.6,283.7c-0.2,0.2-0.5,0.5-0.7,0.7c-0.7-0.8-1.5-1.5-2.2-2.3c0.2-0.2,0.5-0.5,0.7-0.7   C458.1,282.1,458.9,282.9,459.6,283.7z" />
	<path fill="#995F4D" d="M470.8,297.8c-0.3-0.3-0.5-0.6-0.8-0.9c1.3-0.6,2.3-2.1,4.5-2C473.1,296.2,472.3,296.8,470.8,297.8z" />
	<path fill="#512E28" d="M479.8,298.5c0-0.2,0-0.5,0-0.7c1.3-0.8,2.6-0.9,4.1-0.5C482.6,297.9,481.3,298.5,479.8,298.5z" />
	<path fill="#1E0C0A" d="M467,303.7c0.7,0.3,1.8-0.3,2.3,0.8c-1.1,0-3.5,1.5-3.6-0.4C466.2,303.9,466.6,303.8,467,303.7z" />
	<path fill="#8B5545" d="M481,286.7c0.1-1.3,0.3-2,1.5-2.2C482.8,285.7,482.2,286.2,481,286.7z" />
	<path fill="#B16D58" d="M457.4,281.4c-0.2,0.2-0.5,0.5-0.7,0.7c-0.8-0.4-1.4-0.8-1.3-2C456.5,279.8,457,280.5,457.4,281.4z" />
	<path fill="#684739" d="M486.6,280.7c0.3,0.3,0.6,0.5,0.9,0.8c-0.7,0.7-1.3,1.3-2.3,2.4C485.1,282.1,485.7,281.3,486.6,280.7z" />
	<path fill="#895748" d="M455.8,272.5c0.3-0.3,0.6-0.6,0.8-0.8c0.8,0.7,1.5,1.4,2.3,2.2l-0.1,0.2   C457.6,273.9,456.6,273.4,455.8,272.5z" />
	<path fill="#895748" d="M459,273.8c0.7,0.3,1.4,0.6,2.7,1.2c-1.9,0.4-2.4-0.2-2.9-1.1L459,273.8z" />
	<path fill="#9B614F" d="M476.9,290.4c-0.2-1.1,0-1.8,1.3-1.2C477.7,289.7,477.3,290.1,476.9,290.4z" />
	<path fill="#372522" d="M486.6,200.8c4.7-2.2,10.1-1.4,14.9-3.3c0,0.3,0.1,0.6,0.1,1c-4.4,2.2-9.4,2.1-14.2,3   C487.2,201.2,486.9,201,486.6,200.8z" />
	<path fill="#201917" d="M495.2,245.7c1.6-1.3,3.6-0.8,5.4-1c0.9,1.1,1.7,2,2.5,2.8C500.8,251.3,497.8,246.6,495.2,245.7z" />
	<path fill="#4C443F" d="M486.6,200.8c0.3,0.2,0.6,0.4,0.9,0.7c-0.7,0.2-1.4,0.4-2.3,0.8c-1,1.4-1.8,3.4-3.8,4.4l0.1,0.1   c0.1-1.8,1.4-3,2.3-4.5C484.7,201.7,485.7,201.2,486.6,200.8z" />
	<path fill="#A79186" d="M501.7,198.4c0-0.3-0.1-0.6-0.1-1c2.2-1.2,4.3-2.4,6.5-3.6c0.3,0,0.7,0,1,0   C506.9,196,504.1,196.9,501.7,198.4z" />
	<path fill="#514843" d="M464.9,233.5c1.2,0.5,1,5.5-0.7,5.9c-0.6-1.6,1.2-2.7,0.1-4.3C464.1,234.8,464.7,234,464.9,233.5z" />
	<path fill="#6C5851" d="M509.1,193.9c-0.3,0-0.7,0-1,0c1.4-1.2,1.9-2.9,4.1-2.8C511.3,192.7,510.1,193.1,509.1,193.9z" />
	<path fill="#62504A" d="M481.3,206.6c-0.5,1.1-1.2,2.1-2.8,2.4C479,207.3,479.8,206.4,481.3,206.6L481.3,206.6z" />
	<path fill="#6F6861" d="M466.3,232.6c-0.5,0-0.9,0-1.4,0C464.6,230.8,466.9,230.7,466.3,232.6z" />
	<path fill="#EBDA8F" d="M494.1,163.2c-4.1-3.9-9.1-17.7,1.1-15.1c6.8,7.2,11.4,17.8,22.5,19.7c1.2-0.5,2.5-1.2,3.8-0.2   c3.4,0.1,6.9,0.7,10.6-0.6c0.9,0.5,1.9,1,3,1.6c0,1.2,0,2.2,0,3.4c-2,2.1-4.5,3.4-7.5,3.9c0.1-0.7,0.5-1.5-0.6-2.1   c-10.2,2.3-19.7,0.1-28.2-6.1c-1-3.6-3.5-4.8-4.7-8.5C494.1,161,494.1,162.1,494.1,163.2z" />
	<path fill="#0B0906" d="M495.4,161.8c1.1,1.9,3,3.4,3.4,5.8c8.5,6.2,17.9,8.5,28.2,6.1c1.1,0.6,0.8,1.4,0.6,2.1   c-12.3,5.3-24.4-1.1-32.9-10.1C494.6,164.5,494.6,163,495.4,161.8z" />
	<path fill="#5E5137" d="M495.4,161.8c-0.2,0.5-0.5,1-0.7,1.5c-0.2,0-0.4-0.1-0.6-0.2c0-1.1,0-2.2,0-4.1   C494.7,160.5,495,161.2,495.4,161.8z" />
	<path fill="#663D30" d="M417.7,284.2c0.2-5.2,1-8.7,2.9-11.8c-0.1,4.5-1.9,8.2-2.2,12.7C418.2,284.8,417.9,284.5,417.7,284.2z" />
	<path fill="#915D4C" d="M423.4,256.4c0.3,2.9-0.2,5.6-1.7,8.9C421.3,261.6,421.7,258.9,423.4,256.4z" />
	<path fill="#714536" d="M417.7,284.2c0.3,0.3,0.5,0.6,0.8,0.9c-0.4,2.5-1.3,4.9-2.4,7.5C414.8,289.4,417.1,287.2,417.7,284.2z" />
	<path fill="#331E17" d="M434.3,240.3c1.3-1,2.1-2.8,4-3c1.3,2.1-3,3.1-4.1,4.5C434.2,241.3,434.3,240.8,434.3,240.3z" />
	<path fill="#A5624D" d="M434.3,240.3c0,0.5,0,1-0.1,1.5c-1.1,1.3-1.9,2.4-3,3.8C431.3,243.7,431.3,243.7,434.3,240.3z" />
	<path fill="#332926" d="M469.2,187.7c-1.2-1.7-2-3.1-0.9-5.4C468.7,184.4,469.3,185.8,469.2,187.7z" />
	<path fill="#84776D" d="M474.7,175.1c0.4,1.1,0.9,2.2,1.3,3.2c-1.4,1.3-1.6-0.9-2-1.7C474.3,176,474.5,175.5,474.7,175.1z" />
	<path fill="#463531" d="M474.7,175.1c-0.2,0.5-0.5,1-0.7,1.4c-0.3-1.1-1.6-1.9-0.7-3.2C474.4,173.4,474.6,174.2,474.7,175.1z" />
	<path fill="#5D524B" d="M478.6,185.2c1.1,0.3,1.9,0.9,2,2.2C479.2,186.7,479.2,186.7,478.6,185.2z" />
	<path fill="#847066" d="M473.5,195.6c-2-0.6-2.2-1.2-1.3-2.4C472.5,193.9,472.8,194.4,473.5,195.6z" />
	<path fill="#736058" d="M476.3,182.5c1.5-0.5,1.7,0.3,2,1.8C477.4,183.4,476.9,183,476.3,182.5z" />
	<path fill="#7E6961" d="M470.6,190.2c0.4,0.6,0.8,1,1.2,1.6C470.2,191.8,470.2,191.8,470.6,190.2z" />
	<path fill="#241C1A" d="M524.7,112.4c-2.6-4.1-6.1-7.4-9.6-10.6c0.2-0.2,0.5-0.5,0.7-0.7c3.4,3.3,9.2,5.2,9.8,10.5   C525.3,111.8,525,112.1,524.7,112.4z" />
	<path fill="#4F413D" d="M515.8,101.1c-0.2,0.2-0.5,0.5-0.7,0.7c-2.6-1.9-4.7-4.5-7.5-5.9c0.3-0.3,0.5-0.5,0.8-0.8   C511.2,96.6,513.5,98.8,515.8,101.1z" />
	<path fill="#42312D" d="M508.3,95.1c-0.3,0.3-0.5,0.5-0.8,0.8c-2.1-1.3-4.1-2.7-6.1-4.7C504.5,91.9,504.5,91.9,508.3,95.1z" />
	<path fill="#A08A7F" d="M530,131c-0.3,0.3-0.6,0.6-0.9,0.8c-0.4-1.6-2.2-3.6-1.7-5.1C528.7,128,529.2,129.6,530,131z" />
	<path fill="#AA9E91" d="M524.7,112.4c0.3-0.3,0.6-0.6,0.9-0.8c1.1,0.7,0.6,1.7,0.6,2.7C524.8,114.1,524.7,113.3,524.7,112.4z" />
	<path fill="#624F49" d="M523.3,87c0.9,0,1.3,0.7,1.5,1.4c-0.3,0.4-0.6,0.7-1.1,1.4C523.2,88.7,523.2,87.9,523.3,87z" />
	<path fill="#A78B81" d="M499.6,90.3c0.3-0.4,0.5-0.4,0.9,0C500.2,90.7,499.9,90.4,499.6,90.3z" />
	<path fill="#46403B" d="M444.2,392.1c1.4,1.3,1.6,2.3,1,3.6C443.7,394.9,443.8,393.8,444.2,392.1z" />
	<path fill="#A39185" d="M430.8,447c0.4-0.1,0.5-0.1,0.7-0.2c0.9,0.6,0.5,1.4,0.3,2.7C431.3,448.4,431,447.7,430.8,447z" />
	<path fill="#806C63" d="M444.5,388c0,0.5,0.1,1,0.1,1.5c-0.2,0-0.3,0-0.5,0c0-0.5-0.1-1-0.1-1.5C444.1,388.1,444.3,388.1,444.5,388   z" />
	<path fill="#837067" d="M383.9,340.9c0,0.5,0.1,1,0.1,1.5c-0.2,0-0.3,0-0.5,0c0-0.5-0.1-1-0.1-1.5C383.5,341,383.7,341,383.9,340.9   z" />
	<path fill="#1F0D0C" d="M422.9,121.9c-1-0.4-0.9-1.1-0.7-2.1C423.7,120.4,422.8,121.3,422.9,121.9L422.9,121.9z" />
	<path fill="#3C3632" d="M402.8,352.4c1.6-1.9,0.4-5.2,0.8-7.6c1.3,5.4,0.4,11.1,0.6,16.6c-1.5,2.6-0.3,6.5-0.6,9.6   c0.8,1.1,1,2.8,0.1,4.1C401.7,368,403.4,359.9,402.8,352.4z" />
	<path fill="#1D1A18" d="M404.2,371.8c-1-2.7-1.1-7.8,0-10.4C404.2,364.9,404.2,368.4,404.2,371.8z" />
	<path fill="#6C6159" d="M401.3,389.1c-0.3,1.5-0.9,2.9-2.5,4.7c0.7-3.1,1.3-5.4,1.8-7.7C401.8,387,401.1,388.2,401.3,389.1z" />
	<path fill="#918176" d="M401.3,389.1c-0.2-1,0.5-2.2-0.7-3c-0.1-1.6,0.5-2.1,1.3-4.1C401.7,385.1,402.7,387.2,401.3,389.1z" />
	<path fill="#645D55" d="M403.4,377c0.1,0.9-0.1,1.6-1.2,2.1c-0.5-1.3-0.5-2.5,0.4-3.6C402.9,376,403.2,376.5,403.4,377z" />
	<path fill="#1D1A18" d="M403.4,377c-0.3-0.5-0.5-1-0.8-1.5c0.1-0.7,0.2-1.4,0.3-2.1c0.3,0.6,0.5,1.1,0.8,1.7   C403.6,375.7,403.5,376.4,403.4,377z" />
	<path fill="#6A544D" d="M398.8,396.9c0.2,0.5,0.4,0.7-0.2,1C398.4,397.4,398.3,397.2,398.8,396.9z" />
	<path fill="#292725" d="M403.5,344.2c-0.2-0.3-0.4-0.6-0.5-0.9C403.2,343.6,403.3,343.9,403.5,344.2z" />
	<path fill="#3B312D" d="M503.9,315.1c-0.2,0-0.6,0-0.7,0c0.6-1.4,1.1-2.7,1.8-4.4c1.3,1.5-0.1,2.8-0.4,4.4   C504.3,315.1,504.1,315.1,503.9,315.1z" />
	<path fill="#C6AD9F" d="M502.4,320.3c-0.3,2,0.2,4.2-0.8,6C501.8,324.3,500.7,321.7,502.4,320.3z" />
	<path fill="#C6AD9F" d="M502.9,315c-0.3,1.7,0.9,4.2-0.6,5.3C502.4,318.5,501.8,316.6,502.9,315z" />
	<path fill="#CBB3A4" d="M503.9,315.1c0.2,0,0.4,0.1,0.7,0c0,1.5-0.1,3.1-0.1,4.6C503.7,318.2,503.7,316.6,503.9,315.1z" />
	<path fill="#CBB3A4" d="M504.5,330.8c-0.8-0.1-1.7-0.3-2.8-0.5c0.2-0.4,0.4-0.8,0.6-1.1C503.1,329.7,503.8,330.2,504.5,330.8z" />
	<path fill="#CBB3A4" d="M503.6,326.9c0.3-1-0.1-2.2,0.8-3C504.5,325.1,504.9,326.2,503.6,326.9z" />
	<path fill="#C6AD9F" d="M499.3,323.3c0-0.8,0-1.5,0.1-2.3C500.3,322.2,500.3,322.2,499.3,323.3z" />
	<path fill="#C6AD9F" d="M499.3,326.2c-1.1-0.7-0.6-1.5-0.1-2.3C499.3,324.7,499.3,325.5,499.3,326.2z" />
	<path fill="#CBB3A4" d="M502.8,328.4c0-0.6,0-1.2,0.8-1.5C503.8,327.6,503.9,328.3,502.8,328.4z" />
	<path fill="#C6AD9F" d="M501.6,326.3c0,0.5-0.3,0.8-0.8,0.7C501.1,326.7,501.3,326.5,501.6,326.3z" />
	<path fill="#CBB3A4" d="M502.3,329.2c0.2-0.3,0.4-0.6,0.6-0.9C502.7,328.6,502.5,328.9,502.3,329.2z" />
	<path fill="#C6AD9F" d="M500.1,326.9c-0.2-0.2-0.5-0.4-0.7-0.6C499.6,326.5,499.8,326.7,500.1,326.9z" />
	<path fill="#352C29" d="M520.9,59.4c0.3,0.6,0.5,1.3,0.8,1.9c-0.2,0-0.5,0.1-1,0.2c-1.5-1.4-3.2-2.8-3.3-5.3l-0.1,0   C519.3,55.6,519.9,58.1,520.9,59.4z" />
	<path fill="#A78D82" d="M531.6,71c-0.3,0.3-0.6,0.6-0.8,0.9c-1.5-1-2.9-2-4.4-3C528.1,67.5,529.9,70.4,531.6,71z" />
	<path fill="#5A4943" d="M523.5,79.4c1.7,1.3,1,2.7,1.1,4.1C523.3,82.4,523.3,82.4,523.5,79.4z" />
	<path fill="#2A2623" d="M524,73.2c-0.7-2.5-0.7-2.5-0.4-4.3C524.7,70,524.7,71.2,524,73.2z" />
	<path fill="#786059" d="M475.9,129.8c1.2,0.5,2.5,0.9,3,2.6C476.9,132.4,476.5,130.9,475.9,129.8z" />
	<path fill="#998B80" d="M473.1,126c0.3-0.3,0.5-0.6,0.8-0.9c1.1,0.9,1.5,0.9,2.2,2.5C474.7,126.8,473.9,126.4,473.1,126z" />
	<path fill="#F9E2C1" d="M520.3,14.3c-0.1-0.3-0.3-0.7-0.5-1.2c3-0.7,5.7,1.1,8.7,1.2c0.2,0.8,0.9,0.8,1.5,0.7l0,0   c0.1,0.9,0.8,0.8,1.4,0.8l0,0c-0.2,2.8,3.7,2.1,4.4,4.4c-5.1,1.7-9.8,0.1-14.9-0.7c1.1-1.7,3.1,0.3,4.4-1.5   C524.1,16.3,522.1,15.3,520.3,14.3z" />
	<path fill="#F4DFBE" d="M507.7,15.7c0.7,0.1,1.3,0.2,2,0.3c0.2,1.9,2,1.2,3.1,1.3c-0.1,0.8-0.2,1.7-0.3,2.6   c1.8,1.6,4.7,0.5,6.6,2.2c-4.1,0.2-10.4-0.2-13.7-3.7C506.2,17.5,506.9,16.6,507.7,15.7z" />
	<path fill="#30241F" d="M535.2,26.9c-2.2,0.5-4.5,1.1-6.7,1.6c0-0.7,0-1-0.3-1.8c-4.1-0.4-8.3-1.1-12.4-2c0.3-0.3,0.6-0.5,0.8-0.8   c6.4,0.6,12.6,1.5,19,1.8C535.5,26.3,535.3,26.6,535.2,26.9z" />
	<path fill="#DCC3A4" d="M520.3,14.3c1.9,1,3.8,1.9,5.2,3.7c-1.3,1.8-3.4-0.2-4.4,1.5c-1.1-1.2-2.5-2-3.8-2.9c0.6-1.2,2.1-0.6,3-1.6   C520.2,14.8,520.2,14.6,520.3,14.3L520.3,14.3z" />
	<path fill="#564B3F" d="M527.7,29.3c0.4,0.1,0.9,0.2,1.3,0.2c-0.8,2.3-4.4,1.8-3.7,4.9c-0.2,0.1-0.4,0.1-0.6,0.2   c0.4-4.2-5.6-1.8-8.3-2.5c0.3-0.4,0.5-0.8,0.8-1.3C520.8,30.5,524.6,31.1,527.7,29.3z" />
	<path fill="#3E342B" d="M501.5,21.8c0.5,0,1,0,1.4,0.3c2.2,4.1,6.9,6.2,9.1,10.2C507.5,30.6,503.3,26.3,501.5,21.8z" />
	<path fill="#B59E85" d="M533.6,25.4c-4.3,0.2-8.6-0.1-12.8-1.2c2.8-0.2,5.6-0.3,8.6,0.4c0.7-0.6,1.5-1.6,2.9-1.2   C532.4,24.2,534.1,24.1,533.6,25.4z" />
	<path fill="#7C6758" d="M533.6,25.4c0.5-1.3-1.2-1.2-1.3-2c2.4,0.3,4.6-0.7,7-0.7c-1.1,1.4-2.2,2.7-3.4,4.2c0,0-0.3,0-0.7,0   c0.1-0.3,0.3-0.6,0.5-1.1C534.9,25.6,534.3,25.5,533.6,25.4z" />
	<path fill="#9E8B74" d="M517.2,16.7c1,0.7,2,1.4,3,2.1c-2.6-0.2-4.9-1.6-7.5-1.5c-0.8-1.2-2-0.5-3-0.8c0-0.2-0.1-0.4-0.1-0.5   c0.5-0.2,1.4,0,1.6-0.9C513.4,15.4,515.2,16.4,517.2,16.7z" />
	<path fill="#63463A" d="M518.5,28.6c-1.6,0.1-3.2,0-4.8-1.5c3.8,0.5,6.7,0.8,10.4,0.8c0,0.2-0.1,0.4-0.1,0.7   C522.1,28.6,520.3,28.6,518.5,28.6z" />
	<path fill="#8A6050" d="M512,32.3c-0.3-0.5-0.5-1-0.8-1.5c2,0,4,0.1,6,0.1c-0.3,0.4-0.5,0.8-0.8,1.3c-1.1-0.1-2.3-0.2-3.4-0.3   C512.7,32.3,512.7,32.3,512,32.3z" />
	<path fill="#BDAE94" d="M530.8,21.1c2.2-0.5,4.6-0.5,6.6-1.6c0,0.3,0,0.5,0.1,0.8C536.7,21.4,530.1,23.2,530.8,21.1z" />
	<path fill="#97856F" d="M512.1,24c-1.7-0.3-3.3-0.6-5.4-0.9c1-1.9,3.9-0.8,5.4,0.2C512,23.5,512,23.7,512.1,24z" />
	<path fill="#405D4E" d="M518.5,28.6c3.1,0,6.3-0.1,9.4,0c-0.1,0.2-0.1,0.4-0.2,0.6C524.7,29.2,521.5,29.7,518.5,28.6z" />
	<path fill="#725649" d="M512.1,24c0-0.2,0-0.5,0-0.7c1.5,0.2,3.2-0.4,4.6,0.7c-0.3,0.3-0.6,0.5-0.8,0.8   C514.5,24.5,513.3,24.2,512.1,24z" />
	<path fill="#2F1613" d="M527.9,28.7c-1.3,0-2.6-0.1-4-0.1c0-0.2,0.1-0.4,0.1-0.7c1.5-0.1,2.9-0.2,4.4-0.3c0,0.3,0,0.6,0,0.9   C528.3,28.6,528.1,28.7,527.9,28.7z" />
	<path fill="#CDB899" d="M501.5,20.4c-1.1-0.5-0.5-1,0.1-1.5C501.5,19.4,501.5,19.9,501.5,20.4z" />
	<path fill="#CDB899" d="M502.9,22.1c-0.2-0.1-0.4-0.2-0.7-0.3c0-0.3,0-0.5,0-0.8C502.5,21.4,502.7,21.7,502.9,22.1z" />
	<path fill="#CDB899" d="M502.3,21c-0.3-0.2-0.5-0.5-0.8-0.7C501.8,20.6,502,20.8,502.3,21z" />
	<path fill="#E4CEB0" d="M499.3,11.4c-4,5.7-6.5,11.9-9.7,17.9c0,0,0,0,0,0c-0.2-0.3-0.5-0.5-0.7-0.8   C489.1,22.5,493.3,14,499.3,11.4z" />
	<path fill="#716454" d="M491.1,27.1c1.4-4.2,3.1-8.4,6-12c0.2,0.1,0.4,0.2,0.6,0.4c-3.1,6-6.1,12-6,19c-1.7,1.7,0.5,4.5-1.3,6   C489.9,35.9,490.8,31.5,491.1,27.1z" />
	<path fill="#AC9B83" d="M490.4,40.4c1.8-1.5-0.4-4.2,1.3-6c-0.3,4.2,1.2,9-0.6,12.8C491,44.9,490.7,42.7,490.4,40.4z" />
	<path fill="#F3DCBB" d="M491,45.1c0.2,2.5,0.1,4.9,0,7.4C489.9,50.6,489.9,46.9,491,45.1z" />
	<path fill="#3A3229" d="M491.1,54c-0.1,1,0.5,2.2-0.6,3C490.3,55.9,490,54.8,491.1,54z" />
	<path fill="#3A3229" d="M491.7,54c-0.2,0-0.4,0-0.6-0.1c-0.1-0.2-0.1-0.5,0-0.7C491.3,53.5,491.5,53.8,491.7,54z" />
	<path fill="#211B18" d="M508.6,35.3c2.1,0.5,4-2.6,5.6-0.1c-0.3,0.3-0.6,0.6-0.9,0.9c-0.4,0-0.9,0.1-1.5,0.1c1.4,1.8,2.5,3.4,3.7,5   c-0.2,0.3-0.5,0.7-0.7,1c-1.8-0.4-3.2,1-4.9,0.4c0.2-1.7,1.6-1.9,3-2.9c-0.5-0.6-0.9-1-1.3-1.4c-1,0.8-1.8,1.5-2.6,2.2   c-0.4-1.6,1.6-2,1.3-3.6c-0.8,0.5-1.5,0.8-2.2,1.2C508.3,37.3,508.5,36.3,508.6,35.3z" />
	<path fill="#C6B194" d="M506.2,45c-0.7,0.5-1.3,0.9-2.2,1.5c-1.9-2.3-3.7-4.5-5.4-6.8c0.3-0.3,0.5-0.5,0.8-0.8   c2.5,2.3,3.5,5.8,6.7,3C506.1,43,506.1,44,506.2,45z" />
	<path fill="#6C5D4E" d="M504.4,42.8c-2.1,1.8-7.4-6.5-6.6-9l0,0c0.2,0,0.5,0,0.7,0C499.9,37.2,501.2,40.7,504.4,42.8z" />
	<path fill="#C6B194" d="M498.6,37.5c0.2,0.3,0.4,0.5,0.5,0.8C498.9,38,498.7,37.8,498.6,37.5z" />
	<path fill="#C6B194" d="M497.9,35.9c0.2,0.3,0.3,0.6,0.5,0.9C498.2,36.5,498,36.2,497.9,35.9z" />
	<path fill="#C6B194" d="M497.8,33.8c0,0.2-0.1,0.5-0.1,0.7C497,34.1,497.3,33.9,497.8,33.8z" />
	<path fill="#C6B194" d="M498.5,33.9c-0.2,0-0.5,0-0.7,0c0.1-0.2,0.2-0.4,0.4-0.5C498.3,33.5,498.4,33.7,498.5,33.9z" />
	<path fill="#C6B194" d="M498.5,39.8c-0.2-0.3-0.4-0.5-0.6-0.8C498.2,39.3,498.3,39.5,498.5,39.8z" />
	<path fill="#8F8370" d="M490.2,71.1c-0.9,0.9-1.4,3.9-2.9,3.1c0.7-1.3,1.5-2.6,2.2-3.9C489.7,70.6,489.9,70.8,490.2,71.1z" />
	<path fill="#AC9B83" d="M491.9,58.5c0-1.5,0-3,0-4.5C492.9,55.5,492.9,57,491.9,58.5z" />
	<path fill="#AC9B83" d="M492.4,48.6c0,1.2,0,2.3,0,3.5c-0.1,0-0.2,0-0.4,0c0-1.2,0-2.3,0-3.5C492.1,48.6,492.3,48.6,492.4,48.6z" />
	<path fill="#3A3229" d="M491.2,63.1c0-1.3-0.5-2.7,0.5-3.9C491.8,60.6,492,61.9,491.2,63.1z" />
	<path fill="#4C4035" d="M494.7,52.5c-0.2,0-0.4,0-0.6,0c0-0.7-0.4-1.6,0.6-2C494.7,51.2,494.7,51.8,494.7,52.5z" />
	<path fill="#B3A395" d="M509.1,40.6c0.8-0.7,1.7-1.4,2.6-2.2c0.4,0.4,0.7,0.8,1.3,1.4c-1.4,0.9-2.9,1.1-3,2.9   c-0.4-0.1-0.9-0.2-1.3-0.4c-0.5,0.8-0.5,1.4,0.4,1.9c-0.2,0.5-0.5,0.9-0.7,1.4c-0.9-1.2-1-2.5-0.6-3.8   C508.2,41.4,508.6,41,509.1,40.6z" />
	<path fill="#352825" d="M508.3,45.6c0.2-0.5,0.5-0.9,0.7-1.4c1.5,0.4,2,2.1,3.5,2.8c0.1,0.5,0.2,1.1,0.2,1.7c-0.3,0-0.5,0-0.8,0   c-0.6-1.1-1.7-2.1-3-1.5C508.2,47,508.3,46.3,508.3,45.6z" />
	<path fill="#E1C7B6" d="M520.9,59.4c-1-1.3-1.6-3.8-3.7-3.1c0.3-1,0.5-2,0.8-3C520.6,54.5,520.8,56.9,520.9,59.4z" />
	<path fill="#BEAC9E" d="M509,47.3c1.8-0.8,3.3,1.4,3,3l0.1,0C510.8,49.5,509.7,48.6,509,47.3z" />
	<path fill="#302922" d="M507.5,47.3c-0.2-0.3-0.5-0.5-0.7-0.8C507,46.8,507.3,47,507.5,47.3z" />
	<path fill="#EFDEBE" d="M512,11.4c-0.3-0.1-0.7-0.2-1.2-0.3c2.3-2.2,6.4-1.9,9.4-1.8c0.3,0.3,0.7,0.6,1.1,1   C518.4,11.9,515.2,11.2,512,11.4z" />
	<path fill="#EBD9B9" d="M524,10.6c-0.7-0.8-2.3-1.4-0.7-2.2c0.6,0.1,1.2-0.1,1.7,0.2c0,0,0.3,0,0.3,0c1.9,1.4,3.9,2.4,5.9,3.7   c-0.2,0.5-0.3,0.9-0.5,1.4c-0.2,0-0.5,0-0.7,0C528.2,12.1,526.2,11.2,524,10.6z" />
	<path fill="#B2A188" d="M512,11.4c0.5,0,1,0,1.5,0c0.4,0.9,1.2,0.7,1.9,0.7c1.2-0.1,3.7,1.2,2.5,2.3c-2-0.7-4.2-0.9-6-2.2   C512,11.9,512,11.6,512,11.4z" />
	<path fill="#8F7B69" d="M520.2,9.2c-2.3-0.5-4.5,0.2-6.8,0.5c-0.5-0.2-1-0.5-1.5-0.7c2.6-1.3,5.7-0.3,8.7-0.6   C520.4,8.8,520.3,9,520.2,9.2z" />
	<path fill="#B89F85" d="M524,10.6c2.2,0.6,4.3,1.5,6,3c-0.2,0.2-0.4,0.4-0.7,0.6c-0.3,0-0.5,0.1-0.8,0.1   C527.7,12.2,524.7,12.7,524,10.6z" />
	<path fill="#45342C" d="M524.8,8.3c-0.5,0-1,0-1.5,0c-0.8-0.9-2-0.4-3-0.8c0.5-0.2,1-0.5,1.5-0.7c1,0.3,1.9,0.5,2.9,0.8   C524.7,7.8,524.7,8.1,524.8,8.3z" />
	<path fill="#B2A188" d="M520.2,14.4c0,0.2,0.1,0.4,0.1,0.6c-0.2,0-0.5,0-0.7,0C519.8,14.8,520,14.6,520.2,14.4z" />
	<path fill="#D7C1A1" d="M488.9,29.4c-0.3,0.6-0.6,0.6-0.9,0l0.2-0.2c0.1,0,0.4,0,0.6,0L488.9,29.4z" />
	<path fill="#D7C1A1" d="M488.9,28.5c0.2,0.3,0.5,0.5,0.7,0.8c-0.2,0-0.4,0-0.7,0.1l-0.2-0.2C488.8,29,488.8,28.8,488.9,28.5z" />
	<path fill="#443B31" d="M489.6,17.4c1.4-1.4,1.9-3.5,3.7-4.5c0.3,0.2,0.5,0.5,0.8,0.7c-2.2,2.4-3.9,5-4.6,8.2   c-0.3-0.3-0.5-0.5-0.8-0.8c0.1-0.2,0-0.5-0.1-0.7C488.7,19.2,489.4,18.4,489.6,17.4z" />
	<path fill="#837764" d="M488.7,21c1.1,0.7,1.1,1.8,0.8,2.9c-1.4,1.3-0.2,3.6-0.7,5.3c-0.1,0-0.4,0-0.6,0c0-2.7-0.6-5.4,0-8.1   C488.3,21.1,488.5,21,488.7,21z" />
	<path fill="#BEAF93" d="M488.7,21c-0.2,0-0.4,0.1-0.5,0.2c0.2-0.3,0.3-0.6,0.5-0.8C488.7,20.5,488.7,20.7,488.7,21z" />
	<path fill="#BEAF93" d="M489.4,18.1c-0.2,0.3-0.3,0.6-0.5,0.9C489.1,18.7,489.2,18.4,489.4,18.1z" />
	<path fill="#C0AE93" d="M493.5,24.8c-0.1-0.6-0.1-1.2,0.6-1.5C493.9,23.8,493.7,24.3,493.5,24.8z" />
	<path fill="#C0AE93" d="M494.2,22.6c0.2-0.3,0.4-0.6,0.5-0.9C494.6,22,494.4,22.3,494.2,22.6z" />
	<path fill="#DCC3A4" d="M515.8,16.5c-0.3-0.2-0.6-0.4-0.9-0.6C515.2,16.1,515.5,16.3,515.8,16.5z" />
	<path fill="#CDB899" d="M514.3,35.3c-0.8-1.1-1.8-1.4-3-0.7c-4.8,0-14.1-8.8-11.2-13.5c0.4,0.2,0.9,0.5,1.4,0.8   c4.4,11,12.7,10.7,22.5,10.5c-2.4,1.1-4.7,2.2-7.1,3.4c1.7,0.8,2.9-0.8,4.5,0C519,37.3,516.4,37.1,514.3,35.3z" />
	<path fill="#CCBC9D" d="M489.7,22.6c-0.1-4.4,3.4-8.9,7.4-10.5C494,15.2,492.3,19.2,489.7,22.6z" />
	<path fill="#E4D4B5" d="M524.7,7.6c-2.3-0.5-4.2-1.8-6.6-1.6c-0.1-0.2-0.1-0.3-0.1-0.5c8.9-1.2,19.1,3,25.3,9.3   c-1.9-0.1-3.7-1-5.6-0.4c0.2,0.4,0.3,0.6,0.3,0.8c-2.7,0-5.2,0-7.4-1.7c0.2-0.4,0.3-0.9,0.5-1.4c-1.7-1-3.3-2-5-3   c2.2,0.5,4.4,1,6.7,1.5c0.1,0.9,0.6,2,1.5,0.9c0.3,0.2,0.6,0.3,0.8,0.5c0.1,0.5,0.3,0.8,0.7,0.1c0.6,0.2,1.3,0.3,1.9,0.5   C534.6,9.2,529.2,8.7,524.7,7.6z" />
	<path fill="#A89A84" d="M531.6,7.5c-2.1-0.6-4.1-1.3-6.2-1.9c0.8-0.2,2,0.2,2.1-0.8c0.3,0.1,0.7,0.2,1.4,0.4   c0.7-0.4,1.7-0.8,2.8-1.4c1.1,0.5,2.2,1.1,3.4,1.7c-1.4,0.8,0,1.5,0,2.2C534.1,7.5,532.4,6.1,531.6,7.5z" />
	<path fill="#3E322B" d="M514.3,35.3c2.1,1.8,4.8,2,7.2,0.3c-1.6-0.7-2.8,0.8-4.5,0c2.4-1.1,4.7-2.2,7.1-3.4c1,0.5,0.5,1.5,0.7,2.3   c-0.3,1-1.2,1.7-0.9,2.9c-1.8,3.3-2.1,5.5-6.6,4.5c0.6-0.3,1.2-0.7,2.1-1.2c-3-0.4-4.1-2.8-6-4.6C513.7,35.9,514,35.6,514.3,35.3z    M522,37.4c-1.9,0.5-3,0.8-4.9,1.3C519.2,39.3,520.5,39.2,522,37.4z" />
	<path fill="#231D1B" d="M543.5,37.6c3.3-0.7,8.7-2.9,9.1,2.2c0.1,1.2-0.8,1.7-2.1,2.3c-1.4-0.5-3-1.1-4.6-1.7   c2.5-1.7,0.1-2.3-1.7-1.9C544,38.1,543.7,37.9,543.5,37.6z M549,38.6c-0.1,0.3-0.4,0.6,0,0.9C549.3,39.1,549.4,38.9,549,38.6z" />
	<path fill="#231D1B" d="M556.1,36.2c-4.6-2.8-7.6-4.6-13.4-5C547.7,29.2,554.7,30.7,556.1,36.2z" />
	<path fill="#1B1816" d="M514.9,42.3c0.2-0.3,0.5-0.7,0.7-1c0.3,0.8,0.7,1.5,1,2.3c-0.3,0.5-0.6,1-1.1,1.9c0.7,0.4,1.5,0.8,2.1,1.1   c-0.4,1.6,0.2,2.9-1.1,3.7c-1.7-1.9-2.6-4.1-4-6.3C513.3,43.4,514.1,42.8,514.9,42.3z" />
	<path fill="#3F3B33" d="M543.4,14.8c-1.4-2.4-4.4-3.4-6.6-5.1c1.1-1.7,2.9,1.2,4.5,0.8l0,0c0.4,1.1,1.2,1.6,2.3,1.5c0,0,0,0,0,0   c0.3,0.3,0.5,0.5,0.8,0.8c0,0-0.1,0-0.1,0c0.1,0.2,0.2,0.4,0.4,0.6c0.1-0.2,0.3-0.4,0.4-0.5c0.7,0.8,1.5,1.5,2.2,2.3   c-0.3,0.4-0.7,0.8-1.2,1.5c-1,0.1-2.3,0.2-3.5-0.6C542.8,15.6,543.1,15.2,543.4,14.8z" />
	<path fill="#ADA193" d="M516.6,43.5c-1.1-2.8-2.9-4.6-4.7-7.3c0.6-0.1,1.1-0.1,1.5-0.1c1.9,1.8,3,4.2,6,4.6   c-0.9,0.5-1.5,0.9-2.1,1.2C517,42.5,516.8,43,516.6,43.5z" />
	<path fill="#8A7664" d="M530.7,13.6c2.7,1.3,5.1,3.2,7.6,4.9c0,0.6-0.1,1.2-0.1,1.8c-0.2,0-0.5,0.1-0.7,0.1c0-0.3,0-0.5-0.1-0.8   c-1.8-1.5-3.7-3-5.9-3.7c-0.2-0.7-0.8-0.8-1.4-0.8c0,0,0,0,0,0c-0.2-0.3-0.5-0.5-0.7-0.8c0.2-0.2,0.4-0.4,0.7-0.6   C530.2,13.6,530.5,13.6,530.7,13.6z" />
	<path fill="#402822" d="M543.4,14.8c-0.3,0.4-0.6,0.8-1,1.2c-1.6,0.4-2.8-0.7-4.4-0.7c-0.1-0.2-0.2-0.4-0.3-0.8   C539.7,13.9,541.5,14.7,543.4,14.8z" />
	<path fill="#3E3E38" d="M548,12.8c0.2,0,0.5,0,0.7,0c0.3,1.6,0.5,3.2,0.9,5.2c-1.6-0.7-1.9-1.8-2.4-2.8   C548.3,14.7,547.8,13.6,548,12.8z" />
	<path fill="#221C19" d="M515.7,49.4c0.3,0.3,0.5,0.6,0.8,0.9c-1,1.7-3.1,0.3-4.5,0.1c0-0.5,0-1,0-1.5c0.3,0,0.5,0,0.8,0   C513.6,49.3,514.6,49.9,515.7,49.4z" />
	<path fill="#1B1715" d="M559.1,60.7c-1.5-0.1-3.3,0.5-4.5-0.7C556.2,59.9,557.8,59.6,559.1,60.7z" />
	<path fill="#C7BAA0" d="M523.9,37.5c-0.4-1.2,0.6-1.9,0.9-2.9c0.2-0.1,0.4-0.2,0.6-0.2C525.5,35.7,525.1,36.8,523.9,37.5z" />
	<path fill="#1B1715" d="M550.2,60.7c1.3,0,2.7-0.3,3.7,0.7c-1,0-2,0.1-3,0.1C550.7,61.3,550.4,61,550.2,60.7z" />
	<path fill="#9E8B80" d="M543.5,37.6c0.3,0.3,0.5,0.6,0.8,0.9c-1.4,0.6-1.4,0.6-2.2-0.6C542.6,37.7,543,37.6,543.5,37.6z" />
	<path fill="#1B1715" d="M551.8,59.9c-0.6,0.1-1.4,0-1.6,0.8C549,59.3,551,59,551.8,59.9z" />
	<path fill="#ADA193" d="M518,42.1c0.8,0,1.6,0,2.3,0C519.5,43,518.7,43,518,42.1z" />
	<path fill="#7E6354" d="M538.2,19.6c0-0.4,0-0.7,0.1-1.1c0.6,0.1,1.1,0.3,1.7,0.4c-0.1,0.2-0.1,0.5-0.2,0.7   C539.2,19.6,538.7,19.6,538.2,19.6z" />
	<path fill="#BDAE94" d="M538.2,19.6c0.5,0,1,0.1,1.5,0.1c-0.4,0.7-1,0.7-1.6,0.6C538.2,20,538.2,19.8,538.2,19.6z" />
	<path fill="#1B1715" d="M559.9,60.7c-0.1,0.2-0.2,0.4-0.3,0.6c-0.1-0.2-0.2-0.3-0.4-0.5C559.4,60.6,559.6,60.6,559.9,60.7z" />
	<path fill="#EBD9B9" d="M534.5,15.8c-0.3-0.2-0.6-0.5-0.9-0.7c0.3,0,0.6,0,0.9,0C534.5,15.4,534.5,15.6,534.5,15.8z" />
	<path fill="#1B1715" d="M555.3,61.5c0.9,0,1.8-0.5,2.4,0.6C556.8,62,556.1,61.8,555.3,61.5z" />
	<path fill="#1B1715" d="M558.1,62.3c0.5-0.1,0.9,0.1,1,0.7C558.8,62.8,558.5,62.6,558.1,62.3z" />
	<path fill="#5C5347" d="M541.2,10.6c-1.6,0.4-3.4-2.5-4.5-0.8c-1.7-0.8-3.4-1.5-5.1-2.3c1-1.4,3.3,0.1,4.4,0.7   c0.1-0.1,0.3-0.2,0.4-0.3c-0.2-0.1-0.4-0.2-0.5-0.3c0-0.7,0-1.3,0.8-1.6c0.5,0.2,0.9,0.5,1.4,0.7c-0.1,0.3-0.3,0.7-0.4,1.1   C538.7,9.1,540.7,8.9,541.2,10.6z" />
	<path fill="#877060" d="M536.1,8.2c-0.3-0.2-0.6-0.4-0.9-0.6c0-0.7-1.5-1.5,0-2.2c0.5,0.2,1.1,0.4,1.6,0.7   C535.8,6.3,535.8,7.4,536.1,8.2z" />
	<path fill="#727362" d="M543.5,12.1c-1.1,0-1.9-0.5-2.3-1.5C542.3,10.6,543.1,11,543.5,12.1z" />
	<path fill="#A79C86" d="M544.9,12.9c-0.1,0.2-0.3,0.4-0.4,0.5c-0.1-0.2-0.2-0.4-0.4-0.6C544.4,12.8,544.7,12.8,544.9,12.9z" />
	<path fill="#909680" d="M544.2,12.9c-0.3-0.3-0.5-0.5-0.8-0.8C543.7,12.3,544,12.6,544.2,12.9z" />
	<path fill="#4A483E" d="M546.4,11.3c-0.1-0.1-0.3-0.3-0.4-0.4C546.3,10.9,546.4,11.1,546.4,11.3C546.4,11.4,546.4,11.3,546.4,11.3z   " />
	<path fill="#463F39" d="M452,417.8c-0.7,1.3-1,1.9-1.4,2.6C449.8,418.9,449.8,418.9,452,417.8z" />
	<path fill="#D8C6A8" d="M531.5,15.8c2.3,0.7,4.1,2.2,5.9,3.7c-0.5,0.2-1,0.5-1.5,0.7C535.2,17.9,531.3,18.7,531.5,15.8z" />
	<path fill="#D8C6A8" d="M530,15c0.6,0,1.2,0.1,1.4,0.8C530.8,15.8,530.2,15.9,530,15z" />
	<path fill="#D8C6A8" d="M529.3,14.2c0.2,0.3,0.5,0.5,0.7,0.8c-0.7,0.1-1.3,0.1-1.5-0.7C528.8,14.3,529,14.3,529.3,14.2z" />
	<path fill="#D7C0A1" d="M509.8,16.6c1,0.2,2.2-0.4,3,0.8C511.8,17.1,510.5,18,509.8,16.6z" />
	<path fill="#D7C1A1" d="M488.9,25.6c-0.1-0.7,0-1.2,0.6-1.6C489.6,24.6,489.7,25.2,488.9,25.6z" />
	<path fill="#D6BFAF" d="M515.7,49.4c-1.1,0.5-2,0-2.9-0.6c-0.1-0.6-0.2-1.2-0.2-1.7c-1.5-0.7-2-2.4-3.5-2.8c-0.9-0.5-1-1.1-0.4-1.9   c2.2,1.1,4-0.3,6.3-0.1c-0.8,0.6-1.6,1.1-2.4,1.7C513.6,45.8,514.6,47.6,515.7,49.4z" />
	<path fill="#59443A" d="M526.2,7.7c2.5,0.8,4.9,1.5,7.4,2.3c-0.2,0.2-0.5,0.5-0.7,0.7c-2.5-0.8-5.4-0.7-7.6-2.2   C525.6,8.2,525.9,8,526.2,7.7z" />
	<path fill="#4F2E27" d="M526.2,7.7c-0.3,0.2-0.6,0.5-0.9,0.7c0,0-0.3,0-0.3,0l-0.3-0.1c0-0.2,0-0.5,0-0.7   C525.2,7.6,525.7,7.7,526.2,7.7z" />
	<path fill="#8F7C6A" d="M532.9,10.7c0.2-0.2,0.5-0.5,0.7-0.7c1.7,0.4,3.1,1.3,4.2,2.8c-0.9-0.2-1.7-0.6-2.6-0.6   c-0.7-0.5-1.4-0.7-2.2-0.8C533,11.1,533,10.9,532.9,10.7z" />
	<path fill="#EBD9B9" d="M533,11.3c0.5,0.1,0.9,0.2,1.4,0.3C533.7,12.3,533.3,12.1,533,11.3z" />
	<path fill="#EBD9B9" d="M535.2,12.1c0.2,0,0.5,0,0.7,0.1C535.5,12.9,535.4,12.6,535.2,12.1z" />
	<path fill="#B0A388" d="M522,37.4c-1.5,1.8-2.7,1.8-4.9,1.3C518.9,38.2,520.1,37.9,522,37.4z" />
	<path fill="#6C6059" d="M549,38.6c0.4,0.3,0.3,0.5,0,0.9C548.7,39.2,548.9,38.9,549,38.6z" />
	<path fill="#A89A84" d="M536.1,8.2C536,8,536,7.8,536,7.6c0.2,0.1,0.4,0.2,0.5,0.3C536.4,8,536.2,8.1,536.1,8.2z" />
</g>
</svg>