<?xml version='1.0' encoding='utf-8'?>
<svg xmlns="http://www.w3.org/2000/svg" version="1.2" baseProfile="tiny" id="Layer_1" x="0px" y="0px" viewBox="0 0 900 600" overflow="visible" xml:space="preserve">
<g>
	<path fill="#5970B3" d="M419.2,128.3c0.2,0,0.4,0.1,0.6,0.2c-0.3,1.5,0.8,2.5,1.2,3.8c0.7,2.5,0.8,5.1,1.2,8.1   c-2.3-0.7-4.4-0.6-6.5-1c-2-0.4-4.2,0.2-5.3,1.2c4,0.3,7.9,0.6,11.8,0.9c0.7,3,1.4,5.9,2.2,8.9c0.4,1.6,1.3,3.1,1.4,4.8   c-0.1,0.2-0.3,0.5-0.6,0.5c-0.3-0.9-1.5-0.1-1.8-0.8c-0.8-1.7-2.5-1.2-3.9-1.6c-0.7-0.2-1.4,0-2.1-0.2c-2.4-0.4-2.4-0.4-4.2,1   c0.7,0.1,1.4,0.2,2.1,0.3c3.3,0.5,6.6,1.3,9.9,1.2c0.2,0.3,0.4,0.6,0.5,1c-0.5,1.8-0.7,3.7-0.2,5.5c0.1,0.5,0,1.1,0,1.6   c-0.5,5.9-0.7,11.9-0.7,17.8c0,7.9-0.5,15.8,0.4,23.7c0.3,2.8-0.2,5.6,0.4,8.4c0.2,0.7,0.1,1.4,0,2.1c-0.9,4.6-0.9,9.3-0.8,14   c0,1.4,0.4,2.7,1.1,3.9c2.5,0.7,11.9,0.9,17.8,0.4c0.6,0.7,0.4,1.5,0.2,2.2c-0.7,3.5-0.1,7-0.7,10.5c-0.3,1.9-0.4,3.9-0.7,5.8   c-0.4,3.1-0.9,6.1-0.8,9.3c0,2.4,0,4.9,0,7.3c0,1.6,0,3.1-0.7,4.6c-0.4,0.9-0.3,1.9-0.2,2.8c0.2,1.2,0,2.3-0.2,3.4   c-0.5,0-1.1,0.1-1.5-0.1c-2.6-1.4-5.6-1.4-8.4-2.2c-2-0.6-4.1-0.2-6-0.6c-3-0.6-6.1-0.5-9.1-0.7c-5.5-0.5-11-0.1-16.4-0.5   c-4.8-0.4-9.7-0.5-14.5-1.1c0.3-0.4,0.6-0.7,0.9-1.1c0.8-1.2,1.5-2.5,0.8-3.8c-1-2-1.6-4.1-2.9-6c-1.1-1.7-1.9-3.8-0.8-6   c2.9,3.5,11.3,9.7,15,10.8c-1.8-1.3-3.2-2.3-4.6-3.4c-0.2-0.9,0.7-1,1.1-1.2c2.5-1.5,3.1-3,2.1-5.7c-0.7-1.7-1.6-3.3-2.9-4.6   c-0.3-0.4-0.6-0.7,0-1.1c0.5,0.3,1,0.7,1.5,1c1,0.6,1.8,1.5,3.2,1.3c-0.5-1.1-1.4-1.4-2.3-1.8c-0.8-0.7-1.7-1.3-2.5-2   c-2.4-2.1-4.9-3.9-6.9-6.5c-0.1-1.4-1.3-2.2-2.3-2.7c-0.6-0.3-0.9-0.7-1.3-1.1c-1.7-1.8-2.9-4-4.5-5.8c-1.5-1.9-2.5-3.8-2.6-6.4   c2,1.9,4.5,3,6,5.2c0.1,1.4-0.1,2.8,0.2,4.1c0.5,0.1,0.9,0.2,1.2-0.2c0-0.9,0.1-1.8,0.2-3c1.6,1.4,2.8,2.7,4.3,3.6   c1.5,1,2.6,2.7,4.7,2.9c0.8-0.4,1.7-0.7,2.2-1.8c0-1,0.2-2.1-0.5-2.9c-1.4-1.7-2.7-3.4-4.3-4.8c-0.9-0.8-1.8-1.6-2.8-2.5   c-0.9-0.8-1.6-1.7-2.6-2.3c-0.6-0.3-1.1-0.8-1.3-1.5c0.2-0.3,0.4-0.1,0.7-0.1c3.9,1.2,7.6,3.1,11.6,4.2c1.4,0.4,2.7,1,3.9,0.8   c1.1-0.4,1.3-1.4,2-1.9c0.6-0.1,1.1,0.3,1.5,0.6c2.5,1.6,5.2,2.7,7.8,4.1c0.4,0.2,0.8,0.8,1.5,0.2c-3.1-2-6.3-3.7-9.5-5.4   c-1.9-1-3.7-2.1-5.6-3.2c-0.5-1.1-1.4-1.3-2.5-1.4c-0.3,0-0.7,0-0.9-0.4c0.1-0.3-0.4-0.6-0.1-1.1c1.2-0.1,2.3,0.5,3.5,0.7   c1,0.2,1.9,0.4,2.7-0.5c0.4-0.5,1-0.2,1.5-0.3c0.3,0.1,0.6,0.1,0.9,0.2c2.5,1,5,2.1,7.5,3.1c1.5,1,3.2,1.5,4.8,2.1   c1.7,0.6,3.1,1.7,4.9,1.9c-2.8-1.9-5.8-3.1-8.9-4.4c-0.4,0-0.7-0.2-1.1-0.4c-4.1-1.9-8-4-12.4-5.3c-0.8-0.2-1.6,0.1-2.2-0.2   c-0.5-0.5,0.4-0.9-0.2-1.5c-2.5-0.8-5.2-1.6-8-1.6c-2.1,0.1-4-1.1-6.2-1.2c0.5,1.4,1.6,1.3,2.5,1.7c0.3,0.7,0.9,0.3,1.4,0.4l0,0   c-0.5,0.9,0.9,1.2,0.7,1.8c-0.4,0.4-0.6,0.4-0.9,0.3c-2.6-0.7-5.2-1.8-7.9-2.1c-0.3,0-0.4-0.2-0.5-0.5c0.2-0.6,0.7-0.5,1.1-0.5   c0.6-0.1,1.2,0.3,1.6-0.3c0.1-0.5-0.2-0.6-0.5-0.6c-2.2-0.4-4.3-1.2-6.5-1.6c-3.2-0.5-6.4-1.1-9.4-2.2c-0.1-0.4-0.5-0.5-0.9-0.5   c-0.8,0-1.6,0-2.5,0c-0.4,0-0.8,0.1-1.1-0.4c0.9,0,1.7,0,2.5,0c1.7-1.2,1.7-1.2,3.7-0.6c0.2,0,0.3,0,0.5,0.1c2.5,0.6,5,1.9,7.7,1   c0.4-0.1,0.9-0.1,1.3,0.2c1.6,1.2,3.2,0.7,4.8,0.2c0.4,0,0.7,0.1,0.9,0.5c1.2,1.1,2.6,1,3.9,0.9c1-0.6,1.4-1.4,1.7-2.3   c-0.5-1.5-1.6-2.4-2.8-3.3c-2.1-1.5-4.6-2.5-6.9-3.7c-1.7-0.9-3.6-1.5-5.6-2c-1.1-0.2-2.1-0.7-3-1.5c-1.1-1-2.2-2-3.3-2.9   c-3.6-2.8-7.1-5.7-10.3-9c-0.6-0.6-1.2-1.1-1.8-1.7c-1.2,0.5-1.1,1.3-1,1.7c2.5,4.5,6.9,6.7,9.8,10.3c-0.3,0.1-0.4,0.2-0.5,0.3   c-0.3,0-0.7,0-0.8-0.4c-0.6-0.5-0.6-0.5-1.4,0.5c0.3,0.3,0.5,0.8,1,0.7l0,0c-0.3,0.7-0.9,0.7-1.4,0.5c-0.8-0.3-1.6-0.4-2.3-0.9   c-2.7-1.8-5.4-3.6-7.6-5.6c-1.6,0.1-1.8,1.4-2.3,2.4c-1.1-0.6-2.2-0.7-3.3-0.3c-0.3,0.1-0.6,0.5-0.6,0.8c0.5,1.3,2.2,1.3,2.7,2.8   c-2.8-0.5-5.4,0.5-8.1,0.4c-0.6,0-1.2,0.2-1.8,0.3c-1.9,0.3-3.9,0.7-5.7-0.3c-3.7-2.2-7.6-4.1-11.4-6.1c-1.5-0.8-3.2-1.2-4.5-2.3   c-2.1-2.6-2.3-6.1-4.1-9.1c-0.5,1.7-0.2,3,0.4,4.3c1,2.1,2.1,4.1,3.2,6.2c0.2,1.7,1.5,2.6,2.7,3.3c2.4,1.4,4.6,3.1,7,4.5   c0.4,0.2,0.8,0.5,0.5,1.1c-6.8,0.9-13.5,0.9-20.2,0c-1.1-1.7-1.6-3.5-2.3-5.3c0-0.1-0.2-0.2-0.4-0.3c-1.1-3.1-2.3-6.2-3.6-9.6   c-0.3,0.9-0.2,1.5-0.1,2c0.7,3.1,2.2,5.9,3.2,8.9c-0.2,1.4,1.4,2.3,1.2,3.7c-0.7,0.3-1-0.2-1.4-0.3c-1.6-0.8-3-0.4-4.2,0.8   c-0.1,0.1-0.3,0.1-0.4,0.2c-0.3-0.2-0.4-0.5-0.4-0.8c-0.5-2.7-1.1-5.5-1.6-8.2c-0.6-3.1-1-6.3-1.1-9.5c-0.3-8.7-0.3-17.4,0.2-26.1   c0.3-4.8,0.8-9.5,1.1-14.2c0-0.4,0-0.8,0.5-1c1,0.5,2,1.1,3.1,1.7c0.2-0.6,0.6-0.8,1.2-0.8c0.9,0,1.9,0.1,2.8-0.1   c2.9-0.5,5.7-0.6,8.6,0c0.9,0.2,1.9,0.2,2.8,0c2.9-0.7,5.9-0.4,8.9-0.7c4-0.4,8-1,11.9-1.9c0.5-0.1,1-0.3,1.6,0.2   c-0.7,1.2-1.4,2.5-2.2,3.9c1.6-0.5,1.9-2.1,3.2-2.9c0,1.5-0.6,2.6-0.8,3.8c-0.6,3.8-1.6,7.6-0.7,11.6c0.1,0.5,0.2,0.9,0.9,0.9   c-0.2-4.8,0.5-9.5,1.5-14.1c0.5-2.1,1.6-3.4,3.6-4.1c1-0.3,2-0.8,2.5-2c0.4-0.9,1.2-1.2,2.1-1.3c1.6-0.1,3.2-0.1,4.3-0.2   c6.8-5.7,13.5-11.1,21.2-15.4c3.7-0.3,7.8-0.5,11.8-1.1c1.7-0.2,3.4-0.2,5.1-0.5c3.7-0.7,7.3-0.6,10.8,0.6   c7.2,2.6,14.6,4.8,21.2,8.8C418.1,128.5,418.6,128.6,419.2,128.3z M353.3,163.2c0.6,0,1.3-0.3,1.9,0.4c-0.1,1.5,0.2,3,1,4.4   c0-1.6,0-3.3,0-4.9c1.7-0.8,3.6-0.2,5-1.3c-0.8-0.2-1.6-0.2-2.3,0.1c-0.8,0.3-1.6,0.3-2.5,0c-0.7-1.8,0.3-3.7-0.8-5.4   c-0.8,1.8-0.2,3.8-0.6,5.4c-1.3,1-2.7,0.5-4,0.7c-2.4,0-4.7,0.3-6.9,1.2c3,0,6-0.2,9-0.4C353.2,163.5,353.2,163.3,353.3,163.2z    M304.2,164.1c-2.9,0-5.8,0-8.7,0c-1.2-2.4-0.3-5-0.8-7.5c-1.1,2.4-0.9,4.7-0.5,6.6c-0.2,1-1.3,0.8-1.2,1.7   c1.4,0.2,1.7,1.3,2.1,2.9c0.2-1,0.2-1.5,0.3-2.1c3.3-0.7,6.7-0.7,10-1c1.9-0.2,3.9-0.1,5.9-0.1c2.5,0.3,5-0.4,7.4,0.4   c0.8,5.3,1.1,10.5,3.3,15.4c-0.2-2.5-1.2-4.9-1.5-7.4c-0.3-2.6-1-5.1-0.6-7.7c1.1-0.3,2,0.1,3.1-0.3c-1.1-0.5-2.5,0.3-3.1-1   c-0.3-1.5,0.2-3.1-0.3-4.9c-1.5,1.7-0.3,3.6-1.1,5.2c-0.8,0-1.5,0-2.3,0c-3.4-0.1-6.8-0.6-10.3-0.4   C305.4,163.7,304.7,163.5,304.2,164.1z M394.3,145.5c0-1.1,0-2.2,0-3.2c-1.3-1.8-3.4-2.6-5.2-3.8c-2.6-1.7-5.4-2.5-8.6-2.2   c-1.3,0.1-2.5,0.1-3.8,0.8c-2.5,1.3-4.3,3.2-5.9,5.5c-1.9,2.8-1.4,5.8,1.3,7.8c6.9,0.5,13.5-1.2,20.5-3.2   C392.9,146.9,393.5,146.3,394.3,145.5z M341.9,140.7c-1.2,1.2-2.1,5.4-2.2,9.1c-0.1,12.6-0.3,17.2,1.3,19c0.9-4.7,0.5-9.4,0.5-14.1   C341.4,150.1,342.1,145.4,341.9,140.7z M403.3,152.1c-0.6-0.3-1-0.6-1.3-0.5c-4.1,0.9-8.2,1.3-12.3,2.6c-3.9,1.2-7.5,3-11.2,4.5   c-3.2,1.2-6.4,2.5-9.8,2.7c-0.5,0-0.9,0.2-1.2,1c2.6-0.4,5.1-0.8,7.6-1.3c3.8-0.7,7.2-2.4,10.6-4.1c3.8-1.8,7.8-3,11.9-3.7   C399.4,152.9,401.4,153.2,403.3,152.1z M360.8,157c-2.1-6.3-8.3-20-9.2-20.6c-0.1,0-0.2,0-0.2,0c-0.4,0-0.6,0.3-0.7,0.6   c0.9,2.4,2.2,4.6,3.2,6.9c1.5,3.8,3.1,7.6,5.1,11.2C359.3,155.8,359.4,156.8,360.8,157z M397.3,123.9c2.5,0.4,4.8,1.1,7,2   c1.3,0.5,2.3,1.4,3,2.5c1,1.7,2.5,2.7,4.2,3.6c1.7,0.8,3.5,1.3,5.3,1.7c0.5,0.1,0.7,0,1-0.5c-0.7-0.4-1.4-0.5-2.1-0.7   c-3.2-0.9-6.2-2-8-5.2c-0.5-1-1.5-1.7-2.4-2.1c-1.7-0.9-3.6-1.5-5.5-1.9C399,123.1,398,122.8,397.3,123.9z M346.3,136.4   c-0.5,0.1-0.8,0.3-0.7,1c0.7,3.6,1.4,7.1,2.1,10.7c0.1,0.4,0.3,0.7,0.9,0.9c0-3.9-0.8-7.6-1.4-11.2   C347.1,137.2,346.8,136.6,346.3,136.4z M412.9,213.8c3.6,0.9,7.2,2,11.2,1.6C421.5,214.4,415,213.5,412.9,213.8z M360.9,138.6   c-1.2-3.9-1.7-4.5-3.3-4.4c0,0.2-0.1,0.6,0,0.6C359,135.9,359.7,137.4,360.9,138.6z M323.3,146.5c1.2-1,2.4-2.2,2.8-4.4   C324,143.2,323.6,144.8,323.3,146.5z M390.3,243.2c-0.8-1.3-2-2.1-3.8-3C387.5,242.1,388.9,242.6,390.3,243.2z M355.9,135.5   c0,1.8,0.4,2.3,2.1,2.5C357.7,136.8,356.6,136.3,355.9,135.5z" />
	<path fill="#040405" d="M425.9,155.2c-0.2-1.7-1-3.2-1.4-4.8c-0.8-3-1.5-5.9-2.2-8.9c-3.9-0.3-7.9-0.6-11.8-0.9   c1.1-1.1,3.4-1.6,5.3-1.2c2,0.4,4.1,0.2,6.5,1c-0.4-2.9-0.5-5.6-1.2-8.1c-0.4-1.2-1.5-2.3-1.2-3.8c0.2-0.1,0.5-0.4,0.6-0.3   c1.4,0.7,3-0.2,4.4,0.4c2,0.8,4,0.6,6,0.9c2.6,0.3,5.2,0.8,7.8,1.5c3.7,0.9,7.4,2,11,3c3.1,0.9,6.5,1.8,9.9,0.9   c1.5-0.4,3.1-0.1,4.7-0.2c0.8-0.1,1.3,0.5,1.9,0.8c1.4-0.2,2.6-0.6,3.8-1.3c0.8-0.5,1.8-0.6,2.7-0.3c1.4,0.4,2.9,0.8,4.3,1.3   s2.7,0.5,4.1,0.2c4.7-1,9.5-2,14.3-2.5c0.7-0.1,1.4,0,2.1-0.1c4.2-0.1,8.5,0.2,12.6-0.5c4.7-0.8,9.5-0.7,14.2-1.3   c0.2,0,0.5,0,0.7,0c5.8,0.1,11.6-0.8,17.4-0.5c1.1,0.1,2.2-0.1,3.2-0.6c3.3-1.7,7-2,10.6-2.7c2.4-0.5,4.8-0.7,7.1-1.4   c2.7-0.8,5.5-0.6,8.2-0.3c1.5,0.1,3,0.3,4.4,0.3c3.1,0,6.1,0,9.2,0c3.4-0.1,6.7,0.5,10,1.2c0.5,0.1,1.1,0.3,1.6,0.3   c3.4,0,6.7,0,10.1,0.2c0.5,0,1.1,0,1.6-0.2c2.2-0.9,4.3-0.5,6.2,0.7c1.2-0.3,2.3-0.7,3.5-0.9c3.4-0.5,4.3,0.1,4.6,3.4   c2.3-0.1,4.6-1,6.8-0.1c0.6-0.4,0.5-0.9,0.6-1.4c0.8-3.4,2.4-6.2,5.2-8.3c0.6-0.5,0.9-1,1.2-1.6c1.8-3.9,4.3-7.4,6.7-11   c1.4-2,2.7-4,4.8-5.4c0.6-0.4,1.1-1,1.3-1.6c0.6-1.8,2-2.6,3.8-3.1c1.5-0.4,2.2-1.4,2.1-3.2c1.3-0.2,2.5-0.6,3.5-1.5   c1-0.8,2.6-0.1,3.5-1.4c-0.3-1.1-1.1-2.2-0.4-3.5c1.7-0.9,2-0.9,3,0.5c0.6,0.8,1.1,1.8,2.7,2.6c-1.4-2.5-2.5-4.6-2.2-7.2   c1.5-1.4,2.5-1.4,3.7,0.2c0.8,1.1,1.3,2.3,1.9,3.7c1-0.8,1.6-2,2.8-2.1c0.9,0,1,0.8,1.3,1.1c0.8-0.3,1.6-0.7,2.5-0.9   c0.7-0.2,1.5,0,1.8,0.7c0.4,0.8,0.3,1.5-0.3,2.1c-0.6,0.5-1.2,1-1.9,1.6c1,0.9,2.3,0.6,3.2,1.3c0.8-0.3,1-1.3,2.1-1.4   c0.7,0.1,1.3,0.8,1.9,1.4c2.9,3.2,6.1,6,9.8,8.4c2.2,1.5,4.2,3.3,6.4,5c3-0.2,5.1,1.8,7.4,3.4c0.6,0.4,0.6,0.7,0.6,2.4   c2.3-0.4,4.6,0.8,6.8,0.3c0.8,0.3,0.7,1,1.1,1.5c2,0.6,4,1,4.9,3.1c-0.2,1.2-1,1.4-2,1.4c0.3,0.7,0.2,1.4,1,1.8   c1.9-0.4,3.9-0.5,5.9-0.4c1.3,0,2.2,0.6,2.6,1.7c-0.2,1.5-1.3,1-2.1,1.3c0.9,1.1,0.2,2.2,0,3.2c0.7,0.8,1.5,0.1,2,0.4   c0.5,0.6,0.4,1,0,1.3c-0.9,0.6-1.2,1.5-1.1,2.4c0,1.1-0.4,1.9-1.6,2.8c2-0.5,3.7-0.5,5.4-0.6c1.1-0.1,1.8,0.2,1.9,1.6   c-1.7,1.6-4,2-6.2,2.8c0.9,0.3,1.9-0.2,2.6,0.7c0.3,0.3,0.4,0.7,0.2,1c-0.3,0.6-3.2,2.7-3.9,2.7c-2.4-0.1-4.8-0.2-7.1-1.3   c-2.3,0.6-4.7,0.4-7.1-0.3c-0.6,1.8-1.1,3.5-1.6,5.2c-0.6,1.9-1.2,3.7-2.4,5.3c-0.5,0.7-0.7,1.6-0.9,2.4c-0.3,1.8-1.2,3.7-1.3,5.4   c-0.1,3-1.5,4.1-4.2,4.4c-0.2,0-0.3,0.2-0.4,0.2c-0.5,0.4-0.2,1-0.3,1.5s-0.5,1-0.3,1.6c5.9,2.3,12.1,3.9,18.6,4.9   c2.5-1.5,5.4-1.9,8.5-2.3c2.4-0.3,4.8-0.5,7.2-0.5c5.3,0,10.6,0.8,15.7,2c2.8,0.7,5.5,1.6,8.2,2.7c1.6,0.7,3.4,1,5.2,1.5   c5.1,1.6,10.2,3.4,15.4,4.8c4.1,1.1,8.2,2.1,12.3,2.5c3.1,0.3,6.3,0.1,9.3,0.1c2.2-1.8,3.8-3.9,5.1-6.3c1.4-2.7,3.8-3.6,6.2-4.6   c0.4-0.2,0.9-0.3,1.3-0.4c2.2-0.6,4.3-1.6,5.4-3.8c0.2-0.5,0.6-0.9,1-1.3c1.2-1,2.1-2.3,2.6-3.8c0.1-0.3,0.3-0.5,0.5-0.7   c2.1,0.3,3.1,1.5,3.4,3.3c0.5,2.8,0.3,5.2-2,7.3c-1.5,1.4-2.8,3-4.7,3.8c-0.1,0.1-0.2,0.4-0.3,0.7c3.5,1.1,7,0.6,10.5,0.7   c2-1.4,3.6-3.2,5.2-5.1c0.8-1,1.7-1.9,2.5-2.8c0.3-0.4,0.7-0.6,1.2-0.7c2.9-0.7,5.4-2.6,8.4-2.8c2-1.5,4.5-1.7,6.6-3   c0.9-0.5,1.8-0.8,2.7-1c0.6,0.3,0.7,0.7,0.7,1.2c0,3.6-1.7,6.1-4.9,7.6c-0.6,0.3-1.1,0.5-1.7,0.8c-0.8,0.3-0.8,0.3-1.6,1.5   c3.9,0.3,7.7,0.1,11.4-0.9c3.6-0.9,7.1-1.6,10.8-1.9c1-0.1,2-0.4,3-0.4c2.4-0.1,4.8,0.4,7-0.1c3.2,2.8,3.4,3.3,2.1,6.5   c5.6-0.7,7.7,0.2,8.3,3.7c-1,1.5-3.2,1.2-4.2,2.8c0,0.8,0.7,1,1.3,1.4c1.6,1.1,1.7,2.3,0.3,3.6c-0.9,0.8-1.8,1.5-3,1.8   c-0.4,0-0.8,0-1.3,0c0.2-0.4,0.3-0.6,0.4-0.9c1-0.6,2.1-1.2,2.8-2.2c0.2-1-0.1-1.6-0.9-2.2c-1.6,0-3.2,0-4.8,0   c-1.1-0.6-1.7-0.6-2.8,0c-0.1,0.1-0.3,0.1-0.4,0c-0.3-0.1-0.5-0.3-0.2-0.6c0.3-0.4,0.9-0.2,1.1-0.8c3.2-1.4,6.7-1.7,9.9-3.2   c-0.3-1.2-1-2-1.9-2.5c-2.3-0.1-4.5,0.6-6.6,0.8c-1.2-0.1-2.1-0.8-3.3-0.5c-5.2,1.4-10.7,1.4-16,2.5c-0.5,0.1-1.1,0.2-1.6,0.1   c-0.5,0-1,0-1.1-0.6c0-0.5,0.3-0.8,0.7-0.8c3.1-0.2,6-1.4,9-1.3c2.7,0.1,5.3-0.5,7.9-1c1.3-0.2,2.6-0.7,3.7-1.4   c0.5-0.3,1.1-0.6,1.6-0.9c1-2.5-1.6-2.1-2.2-3c-1.5-0.3-2.6,0.6-3.7,0.2c-1.1-0.4-2-0.2-3,0c-1.4,0.3-2.9,0.4-4.4,0.6   c-2.5,0.5-5.1,0.6-7.5,1.6c-3.7,1.6-7.7,1.3-11.6,1c-2.6-0.2-5.1-0.7-7.7,0c-0.6,0.2-1.3,0.3-1.7-0.5c1.5-2,3.8-1.7,6.1-1.9   c0.1-1.3,1-1.8,2-2.3c0.9-0.6,1.9-1,2.9-1.5s1.9-1.1,2.6-2c0.4-0.5,0.6-0.9,0.2-1.6c-1.4,0.6-3,0.7-4.3,1.6   c-1.2,0.9-2.6,1.3-4.1,1.6c-3.5,0.8-6.7,2-8.8,5.2c-0.1,0.2-0.3,0.3-0.5,0.5c-2.6,3-5.7,5.3-8.8,7.7c-2.8,2.2-5.9,3.4-9.4,3.6   c-1.6,0.1-3.3,0.1-4.9-0.1c-4.5-0.7-9.1-0.5-13.6-0.5c-5.4,0-10.7,0.3-16-1.4c-4.1-1.4-8.4-2.1-12.5-3.7c-5-2-10.2-3.1-15.3-4.8   c-2.9-1-5.8-1.8-8.8-2.2c-5.9-0.8-11.9-0.5-17.8-1.5c-0.7-0.1-1.4,0-2.1,0.2c-1.9,0.5-3.7,1.1-5.5,1.8c-1.1,0.5-2.2,1.1-3.4,0.7   c-2.2-0.9-4.6-0.8-6.9-1.3c-6-1.2-11.9-2.5-17.6-4.7c-2.6-1-5.1-2.2-8-2.6c-3.6-0.5-7.3-1.2-10.9-1.6c-4.7-0.5-9.4-1.1-14-2.5   c-0.2-0.7-0.6-1.1-1.3-1.4c-1.8-0.8-3.5-2-5.2-3.1c-1.3-0.9-2.3-2.1-3.6-3c-4.2-2.7-8.6-5-13-7.4c-0.6-0.3-1.3-0.5-2-0.7   c-2.1-0.6-4.3-0.7-6.4-1c-2.3-0.3-4.6-0.5-7-0.5c-3.6,0.1-7.2,0.3-10.7,1c-0.7,0.1-1.4,0.1-2.1,0c-0.6-0.1-1.3,0.5-1.9-0.2   c1.4-1.1,3.4-0.6,4.8-1.8c-3.4-1.6-7.2-2.5-10.5-4.3c-1-0.5-2.4-0.8-3.4-0.6c-3.4,0.8-6.9,1.6-10.1,3.3   c-5.7,3.1-10.5,7.4-14.8,12.1c-1.5,1.6-2.9,3.4-3.8,5.4c-2.8,6.4-3.8,13.2-2.4,20.2c0.8,4.1,2,8,4.7,11.3c0.1,0.5,0.4,0.7,0.7,1   c0.5,1,1.3,1.7,2.3,2.1c0.5-0.5,1.2-0.4,1.9-0.4c0.6,0,1.2,0.2,1.7-0.3h0.2l0.2-0.1c0.7,0,1.4,0.1,1.9-0.5c1.7-0.4,3.5-0.9,5.2-1.2   c4-0.8,7.7-2.5,11.6-3.5c3-0.8,5.9-2.1,9.1-1.8c1,0.1,1.6-0.5,2.2-1.2c3.4,1.1,6.7,2.4,9.9,3.9c0.8,0.4,1.6,0.6,2.4,0.7   c3.1,0.4,6.2,0.5,9.3,1.3c0.5,0.1,0.9,0.2,0.9,0.9c-1.5,1.4-3.3-0.6-5.2,0.3c1.2,0.6,2.1,1.3,3.3,1.7c4.9,1.3,9.6,2.9,14.3,4.9   c2,0.8,4,1.6,6.1,2.2c5.5,1.5,11.2,2,16.9,2.3c0.7,0,1.4,0,2.1-0.1c6.1-0.8,12.2-0.5,18.4-0.1c1.1-0.9,1.4-1,2.9-0.7   c2.1,0.5,4.3,0.8,6.4,1.4c2.5,0.7,5.1,0.8,7.4,2.2c1-0.3,2-0.2,3-0.2c2.6,0.1,5.1,0.9,7.7,0.5c1.1-0.2,2.3,0,3.4,0.7   c0.5,0.3,1,0.4,1.6,0.5c4.5,0.3,8.8,1.4,13.2,2.1c3.6,0.6,7.2,1.6,10.9,1.7c4.5,0.2,8.9,0.3,13.4,0c2.5-0.1,5,0.3,7.4-0.9   c0.4-0.2,0.9,0,1.4-0.1c0.7,0,1.4,0,2.1-0.1c2.4-0.5,4.8-0.7,7.2-0.9c3.9-0.3,7.8-0.7,11.7-1.1c7.4-0.7,14.7-0.6,22,0.3   c3.6,0.5,7.2,0.7,10.6-0.6c1.4,0,2.8-0.2,4.2-0.6c1-0.2,1.8-0.3,2.7,0c2.4,0.7,4.8,1.2,7.2,1.8c1.2,0.3,2.5,0.5,3.7,0.2   c3.6-0.9,7.3-0.9,10.9-1.4c2.9-0.4,6-0.3,8.4-2.3c0.3,0,0.6-0.1,0.8,0.2c-0.1,0.3-0.2,0.6-0.2,0.9c-1.7,1.9-4.2,1.9-6.4,2.5   c-2.3,0.7-4.6,0.9-7,1.2c-1.5,0.2-3.1,0.2-4.6,0.8c-1.4,0.5-3,0.2-4.4-0.2c-2.9-0.7-5.9-0.8-8.7-2c-0.2-0.1-0.5-0.2-0.7-0.1   c-2.2,0.8-4.7,0.5-6.9,1.3s-4.5,0.7-6.7,0.6c-2.1-0.1-4.2-0.2-6.3-0.9c-0.8-0.3-1.7-0.2-2.6-0.2c-6.4,0-12.7,0.5-19,1.2   c-1.2,0.1-2.3,0.3-3.5,0.3c-4.5,0.1-8.8,1.3-13.2,2c-8.7,1.4-17.5,1.7-26.2-0.1c-6.1-1.2-12.2-2.2-18.2-3.4c-2-0.4-4-0.7-5.9-1.6   c-0.6-0.3-1.2-0.4-1.8-0.2c-2.9,0.9-5.9,0.3-8.9,0.3c-0.6,0-1.3-0.2-1.8-0.5c-3.4-1.8-7.4-1.9-11-2.9c-0.3-0.1-0.6-0.2-0.9,0   c-1,0.5-2.2,0.2-3.3,0.3c-3,0.2-5.9-0.1-8.9,0.3c-3,0.4-6.1,0.1-9.2,0.2c-2.3,0-4.7,0.2-7,0.3c-5,0.3-9.8-0.6-14.5-2.3   c-2.7-1-5.4-1.9-8.2-2.8c-3.8-1.1-7.5-2.8-11-4.6c-0.8-0.4-1.4-1-2.2-1.3c-1.4-0.5-2.9-0.8-4.1-1.1c-3.7,2.8-7.4,5.4-11.3,7.7   c-1.3,0.8-2.6,1.8-4.1,2.3c-5.5,2.1-9.4,6.3-13.7,10.1c-0.7,0.6-1.4,1.2-1.8,2.1c-0.5,1-1.4,1.7-2.3,2.3c-4,2.6-8.2,4.9-12.5,7   c-2.6,1.3-5.1,2.7-7.9,3.4c-1,0.3-1.8,1.2-2.8,1.6c-6.6,2.6-13.2,5.3-20.1,6.9c-3.6,0.8-7.1,0.9-10.7,0.5c-0.8-0.1-1.6-0.2-2.3-0.2   c-4.9,0-9.9,0-14.8,0c-3.8,0-7.5-0.4-11.2-0.9c-3.2-0.4-6.4-0.3-9.6,0.2c-6.5,1-13.1,1.5-19.7,1c-2.9-0.2-5.8-1.1-8.7-1.9   c-0.5-0.1-0.9-0.3-1.3-0.3c-3.8,0.1-7.5-0.8-11.2-0.5c-1.7,0.1-3.4,0.3-5,1c-1.3,0.6-2.6,0.6-3.9,0.1c-1-0.4-1.9-0.4-2.8,0.1   c-0.4,0.5-0.4,1-0.3,1.6c0.8,4.4,0.3,8.7-0.3,13.1c-0.4,3.2-0.9,6.4-1.2,9.6c-0.1,1.4-0.3,2.8,0.3,4.2c0.4,0.9-0.3,1.7-0.2,2.5   c0.1,4.9-0.8,9.9-0.5,14.8c0,0.4,0,0.8,0,1.2c0,1.6-0.7,2.7-2.4,3.1c-1.1-0.2-2.2-0.5-3.6-0.7c-1.1,5-2.5,10-4.4,14.9   c0.6,1.2,0.3,2.5-0.3,3.8c-1.3,2.6-1.4,5.4-1.7,8.2c-0.3,3.4,0,6.6,1.7,9.7c0.2,0.4,0.4,0.9,0.6,1.4c-1.3,1.5-0.9,3.5-1.2,5.3   c-0.6,4.2-1.5,8.3-3.1,12.3c-0.5,1.1-0.3,2.2-0.2,3.4c0.4,3.5,1.4,7.1,0,10.6c-0.3,0.8-0.2,1.7-0.2,2.6c0,6.7,0.1,13.3-0.1,20   c-0.2,7.4-0.2,14.8-0.5,22.1c-0.2,4.1-0.1,8.3-0.7,12.4c0.2,0.8,1.1,0.8,1.3,1.8c0.1,0.8-0.5,1.9-0.6,3.1   c-0.9,11-1.2,22.1-0.6,33.1c0.2,3.8,0.4,7.7,0.8,11.5c0.4,4.1,1.8,7.9,3.3,11.7c1,2.6,1.8,5.1,3.1,7.6c0.4,0.7,0.8,1.3,1.4,1.7   c1.5,1,3.1,1.8,4.7,2.6c4.1,2.2,8.1,4.4,11.8,7.3c2.9,2.3,6.1,4.1,9.1,6.2c0.5,0.3,1.1,0.6,1.6,1c1,0.6,1.7,1.4,1.2,2.7   c2.6,1,4.8,2.7,7.6,2.6c1.8,1.2,4.1,0.9,5.9,2.2c0.7,0.5,1.4,0.5,2.3,0.3c1.5-0.3,3-0.3,4.5-0.2c2.2,0.2,3.5,1.8,3.4,4   c-0.2,3-1.4,4.9-4.3,6c-2.1,0.8-4.3,1.3-6.5,2.1c-0.4,0.1-0.8,0.2-1.2,0.1c-2.9-0.8-6-0.9-8.8-2.4c-2.6,1.7-5.5,2.3-8.8,2.1   c-3.7-0.2-7.3-0.8-11-1.2c-0.2,0-0.5,0-0.7-0.1c-2.4-1.5-5.4-1.7-7.7-3.2c0.7-0.9,1.5-0.6,2.3-0.3c0.5,0.2,1,0.3,1.6,0.3   c0.7,0.3,1.5,0.5,2.1,0.9c3,1.6,6.3,1.9,9.6,1.9c2.8,0.6,5.6,0.3,8.3-0.5c1.8-0.5,3.3-1.5,5.4-1.8c2.5,1.2,5.6,1.1,8.4,2.4   c2.8-1.5,5.9-2.1,8.6-4c-0.5-1.4,1-2.8-0.3-3.9c-2.5-0.6-4.7,0.4-7,0.3c-0.9-0.6-1.8-1.2-2.8-1.9c-1.2,0.1-2.4-0.1-3.5-0.8   c-0.4-0.2-0.9-0.3-1.3-0.4c-4.7-0.8-8.5-3.2-11.7-6.7c-0.3-0.3-0.6-0.6-0.9-0.8c-3-1.6-5.4-4-8-6.1c-2.1-1.7-4.4-3.2-7-4.2   c-2.7-1.1-5.1-2.6-7.3-4.5c-3.2-2.7-5.2-6.2-7.1-9.8c-0.1-0.2-0.2-0.4-0.2-0.7c0.3-0.2,0.5-0.4,0.7-0.7c-0.3-0.9-0.6-1.9-0.9-2.8   c-0.4,0-0.8,0.1-1.1,0.1c-0.5-0.4-0.6-0.9-0.6-1.5c0-0.7,0-1.4-0.2-2.1c-1.6-5.2-1.8-10.6-2.1-16c-0.2-3.1-0.2-6.3-0.1-9.4   c0-3.4,0.1-6.9,0.2-10.3c0.1-2.9,0.5-5.7,0.7-8.6c0.2-4.1-0.5-8.1-0.4-12.2c0.1-4,0.5-7.9,0.4-11.9c-0.1-5.4,0.7-10.8,0.6-16.2   c0-0.3,0-0.6,0.1-0.9c0.5-3.2,0.6-6.4,0.2-9.6c-0.5-3.8-0.1-7.6,0-11.4c0.1-3,0.8-5.9,1.1-8.8c0.6-1.7,0.6-2.5-0.1-3.8l0,0   c0.5-1.8,0.8-3.5,0.1-5.3c-0.2-0.4-0.1-0.9-0.1-1.4c1-4.9,2.1-9.8,3.1-14.6c0.5-2.3,0.5-4.5-0.1-6.7s-1.6-4.3-0.9-7.1   c-2.2,2.4-2.2,2.4-2.3,4.5c-2.3,2.7-5.7,4.2-8.4,6.6h-0.2c-0.1,0-0.1-0.1-0.3-0.3c1.6-2,3.3-3.9,5.4-5.4c1.1-0.8,2.1-1.6,2.6-3   c1.4-4.1,3.5-8,4.4-12.3c0.1-0.4,0.3-0.7,0.6-1c0.8-0.9,1.1-2,1.2-3.3c0.2-3.4,0.6-6.8,1.4-10.2c0.3-1.4,0.4-2.9,0.6-4.4   c-3.1-0.7-6.2-1.3-9.3-1.2c-2-0.7-4.1-0.7-6.2-0.8c-8.6-0.5-17.2-0.5-25.8-1c-4.6-0.3-9.2-0.9-13.7-1.7c-1.1-0.2-2.2-0.9-3.6-0.4   c0.8,2,1.4,3.9,2.2,5.8c1.5,3.8,2.9,7.6,4.7,11.2c1.8,3.7,2.1,7.8,3.5,11.6c2.2,5.7,2.1,11.8,3.3,17.6c0,0.2,0,0.5,0,0.7   c0.1,3.1-0.2,6.3,0.6,9.4c0.7,3-0.1,6.1,0.9,9c0.1,0.3,0,0.8-0.1,1.1c-1.6,5.9-2.8,12-4.1,18c-0.7,3.3-1.1,6.7-2.2,10   c-0.8-0.2-1.1-0.8-1.1-1.6c0-0.8,0-1.6,0-2.3c0.3-3.3,1.3-6.4,1.8-9.7c0.7-4.5,2.2-8.8,3.2-13.2c0.3-1.3,0.4-2.6-0.3-3.9   c-0.5-0.9-0.4-2-0.5-3c-0.2-3.3,0.4-6.6,0.4-9.9c0-2.7-0.3-5.3-0.9-7.9c-0.9-4.1-1.6-8.1-2.5-12.2c-0.7-3.5-1.9-6.9-3.4-10.2   c-3-6.2-5.3-12.7-7.2-19.3c-0.2-0.7-0.5-1.5-0.7-2.1c-0.7-0.8-1.7-0.3-2.2-0.9c-0.7,0.3-0.7,1.3-1.6,1.4c-0.6,0-1.2-0.3-1.2-0.9   c-0.1-1.2-1-2.4-0.5-3.3c-1.1-4.9-1.8-9.4-2-14.3c-1.6-7.1-3.3-14.4-4.8-21.8c-1.5-7.4-2.6-15-3.5-22.6c-1.1-0.7-2.6-1.3-3.7-0.8   c-2.7,1.3-5.5,0.9-8.2,1.2c-2.7,0.2-5.5,0.4-8.2,0.7c-6.4,0.7-12.8,1.3-19,2.6c-1.5,0.3-3.1,0.4-4.6,0.5c-2.5,0.2-5,0.6-7.5,0.6   c-3.2,0.1-6.4,0.6-9.6,0.5c-0.6,0-1.3,0-1.8,0c-1.8-1.6-1.8-1.6-4-9.1c-1.6-1-3.5-1-5.2-1.1c-5.2-0.4-10.1-1.8-15.1-3.4   c-3.9-1.2-7.7-2.7-11.3-4.6c-0.4-0.2-0.8-0.5-1.3-0.6c-4.8-1-8.7-3.9-12.7-6.4c-0.8-0.5-1.6-1-2.4-1.5c-0.7,0.4-1.2,1.1-2.1,0.6   c-0.4-0.2-0.8-0.3-1.1,0c-0.7,0.7-1.4,0.4-2.2,0.2c-4.4-0.9-9-1.5-13.5-1.9c-2.7-0.2-5-1.3-7.2-2.6c-3-1.7-5.9-3.5-8.9-5.3   c-0.5-0.3-0.9-0.6-1.5-0.6c-5.1,0.2-9.9-1.5-14.8-2.5c-0.7-0.2-1.4-0.2-2.1-0.2c-7.3-0.4-14.6,0-21.9,0.3c-3.1,0.1-6.3,0.2-9.4,0   c-3-0.2-5.9-0.8-8.8-1.4c-6.1-1.3-12.3-2.2-18.5-3.2c-4-0.7-7.9-2-11.8-3c-5.4-1.3-11-1.9-16.5-1.9c-8.2-0.1-16.3,1-24.2,2.9   c-2.3,0.6-4.4,1.7-6.4,2.9c-0.8,0.5-1.6,1.3-2.8,0.7c-0.5-0.2-1,0.2-1.5,0.4c-2.6,1-5.3,2-8,2.8c-1.4,0.4-2.8,1.1-4.3,0.5   c-0.4-0.2-1,0.2-1.5,0.4c-3.4,1.5-6.5,3.4-9.2,5.9c-0.6,0.6-1.3,1-2.2,1.2c-1.4,0.2-2.6,1.1-3.8,1.8c-1.1,0.7-2.3,1.4-3.4,2   c-0.8,0.5-1.7,0.6-2.6,0.2c-1.3,0.5-2.3,1.5-3.3,2.3c-1.5,1.1-2.6,2.6-4.5,3.3c-0.8,0.3-1.3,1.3-2,2s-1.3,1.5-2.3,1.1   c-0.9,2.6-2.6,4.5-3.3,6.9c-0.1,0.2-0.3,0.4-0.3,0.6c-0.2,2-1.4,3.5-2.7,4.9c-3.1-0.2-5.5-3.5-5.6-7.7c0.4-0.3,0.7-0.8,1.3-0.5l0,0   c0.5,1.8,1.1,3.5,2.3,5.1c0.8,0,1.5,0.5,2.4-0.2c0.3-2.5,1.4-4.9,2.5-7.3c-0.2-0.4-0.7-0.7-0.5-1.2c0.4-1.1,1.9-0.9,2.4-2l0,0   c1.1-0.3,2.2-0.8,3.1-1.6c5-4.5,10.8-7.6,17-10.2c2.5-1.1,4.8-2.2,6.9-3.9c2.4-2.1,5.1-3.2,8.1-4c5.5-1.3,10.8-3,16.1-4.8   c1.2-0.4,2.8-0.8,3.5-1.7c1.4-1.7,3.2-2.1,5.1-2.5c2.2-0.5,4.5-0.8,6.7-1.2c5.1-1,10.2-0.7,15.2-0.5c3.4,0.1,6.9,0.8,10.3,0.8   c3.7,0,7.3,0.7,10.9,1.2c5.7,0.8,11.3,1.7,16.9,2.6c4.9,0.8,9.9,1.2,14.8,2.2c4.8,1,9.5,1.8,14.4,1.6c2.2-0.1,4.4-0.1,6.6-0.1   c4.7-0.1,9.4,0,14.1,0.7c5.8,0.8,11.6,1.6,17.4,2.1c0.7,0.1,1.3,0.3,2,0.7c3.8,2.4,7.6,4.7,11.3,7.1c1.6,1,3.3,1.7,5.3,1.5   c1.6-0.2,3.1,0.2,4.7,0.4c0.5,0.8,1.3,0.3,2,0.4c3.8-0.2,7.4,0.7,11.1,1.3c0.1-0.5,0.4-0.8,0.8-1c0.8,0.2,1.4,0.6,2.1,1   c2.3,1.4,4.5,2.8,6.7,4.3c2,1.4,4.3,2.1,6.4,3.3c1.1,0.6,2.6,0.5,3.8,0.9c7.9,2.2,15.9,4,23.9,5.7c1.3,0.3,2.7,0.5,4.3,0.1   c-0.1-1.8-0.3-3.5-0.6-5.2c-0.7-3.8-1.3-7.7-1.7-11.6c-0.4-4.1-0.3-8.3-0.8-12.4c-0.1-5.3,0.1-10.5,0.5-15.8   c0.4-5.2,0.9-10.4,1.5-15.8c-1.1,0.5-1.8,0.4-2.6,0.4c-6.8,0-13.6,0.1-20.4,0.9c-5.3,0.6-10.4,1.9-15.7,2.3   c-1.8,0.1-3.6,0.9-5.2,0.6c-0.8-0.6,0-1.3-0.9-1.8c-3.7,0.2-7.6-0.4-11.5-0.4c-1.3,0-2.6,0-3.7-0.6c-2.1-1.2-4.2-0.8-6.4-0.8   c-1.9,0-3.8,0.1-5.6,0.4c-1.4,0.2-2.7,0.2-3.7-0.9c-0.2-0.2-0.5-0.3-0.8-0.4c-3-1.1-6-2.2-8.9-3.4c-6.2-2.5-12.8-4-18.9-6.8   c-0.3-0.2-0.8-0.2-1.1-0.3c-3.4-0.6-6.8-0.3-10.3-0.1c-5.2,0.3-10.4,1.4-15.6,1.6c-0.5,0-1,0.1-1.3,0.5c-0.9,0.9-2.1,1-3.3,0.9   c-2.3-0.1-4.6,0.2-6.8,0.6c-7.8,1.5-15.5,3.3-23.2,5.4c-7.6,2.1-15.2,3.7-23.1,3.5c-0.8,0-1.6,0.2-2.3,0.2c-3,0.2-5.8,0.9-8.8,0.7   c-2-0.1-3.9-0.2-5.9-0.5c-5-0.6-9.8-1.5-14.4-3.6c-0.6-0.3-1,0-1.6,0.1c0.3-1.2-1.2-1.2-1.4-2.7c0,0.2,0.5-0.1,0.2-0.4   c-1.5-0.3-2.8-1.1-3.9-2.1c-2.7-2.3-6.1-2.5-9.3-3.6c-0.3-0.1-0.8-0.1-1.2,0c-2.9,0.6-5.5,1.5-6.7,4.7c-0.7,1.9-1.8,3.7-3,5.2   c-0.9,1.1-1.6,2.3-2.1,3.6c-0.6,1.6-1.3,3.2-1.9,4.8c-0.8,2-2,3.7-3.8,5c-1.5,1.1-2.9,2.4-4.1,3.8c-0.7,0.8-1.3,1.6-2.3,2   c-1.3,0.5-2.1,1.5-2.9,2.6c-1.3,1.8-2.6,3.5-3.9,5.3c-1.7,2.3-3.5,4.7-3.3,7.9c0,0.2-0.3,0.5-0.5,0.7c-1-0.2-1.2-1.5-2.6-1.8   c-1.4,0.7-2.6,1.6-2.6,3.6c0.3,0.6,0.7,0.9,0.9,1c2.3,0.3,3.9-0.3,5.3-1.7c0.3-0.3,0.9-1,1.7-0.2c-1.1,1.2-2.2,2.4-3.7,3   c-1.1,0.4-1.9,1.1-2.4,2.1c-0.7,1.2-1.3,2.4-2.7,3.1c1,0.9,2.1,0.6,3,1.1c1.5-0.7,2.5-2,3.6-3.3c0.5-0.7,1-1.4,1.8-1.8   c0.6-0.4,0.8-0.1,1,0.4c-0.7,1-1.6,2-2.2,3.1c-0.5,0.8-1.3,1.3-1.9,2c-1.2,1.3-2.8,1.2-4.2,1.8c-0.3-0.2-0.7,0.8-1-0.1   c0-0.3,0-0.6,0.1-1c-0.9-0.2-2.1,0.6-2.7-0.6c0.3-1.7,0.3-1.7,3.6-5.3c-0.3-0.6-0.6-1.3-1-2c-1-1.9-0.8-3.5,0.5-4.9   c0.8-0.8,1.6-1.6,2.6-1.9c1.3-0.4,1.9-1.3,2.5-2.3c3.7-6.5,8-12.6,14.2-17c2.5-1.8,4.3-4,5.3-6.9c1.9-5.1,4.7-9.7,8-14   c2.4-3.1,5.4-4.1,9.2-3.8c3.5,0.3,6.5,1.6,9.3,3.5c2.4,1.5,4.8,3,7.4,3.9c1.3,0.5,2.4,1.1,2.8,2.4c3.7,0.6,7.2,1.1,10.8,1.7   c2.5,0.4,5.1,0.8,7.7,0.9c1.6,0.1,3.3,0.7,4.9,0c1.5-0.7,3.1-0.5,4.6-0.6c2.6-0.2,5-1,7.5-1.6c8.2-2,16.4-4.1,24.6-6   c4.5-1,9-1.8,13.7-1.9c4.1-0.1,8.1-0.9,12-1.9c2.9-0.8,5.8-1,8.8-1.4c4.2-0.6,8.4-0.2,12.7-0.4c2.2-0.1,4.2,0.6,6,1.6   c0.8,0.4,1.5,0.8,2.3,1c7.5,1.8,14.6,4.4,21.7,7.4c2.5,1,5,1.7,7.6,2.2c0.2,0,0.5,0.1,0.7,0c4.4-0.6,8.7,0.4,13,1   c3.6,0.5,7.3,0.4,11,0.5c2.7,0.1,5.3,0.4,7.9,0.8c0.9,0.1,1.7,0.1,2.5-0.2c5-1.3,10-2.1,15.2-2.7c3.8-0.4,7.5-0.5,11.3-0.2   c3.2,0.3,6.4,0.1,9.6,0.8c0.4-1.3,0.8-2.5,1.1-3.5c0.8-0.8,1.6-0.8,2.5-0.4c2,1,4.1,1.1,6.4,0.8c2.4-0.3,4.8-0.4,7.3-0.2   c2.3,0.2,4.7,0.1,7-0.2c2.7-0.4,5.5-0.3,8.2-0.6c4-0.4,8-1,12-1.8c0.5-0.1,1.1-0.1,1.4-0.2c0.8,0.2,0.6,0.9,0.9,1.2   c1.2,0,2-0.7,2.4-1.6c1.1-2.5,3.1-3.1,5.6-2.9c0.5,0,1.1,0,1.6,0c1-0.6,1.9-1.2,2.4-2.2c1.1-1.8,2.6-3.1,4.2-4.4   c3.3-2.7,6.9-4.8,10.5-7c2.3-1.4,5-1.8,7.6-2.3c3.3-0.8,6.7-1.1,10.2-1.5c2.3-0.3,4.7-0.4,7-0.4c3.9-0.1,7.6,0.6,11.2,2.1   c4.2,1.8,8.4,3.3,12.7,4.9c2,0.8,3.8,1.8,5.6,2.9c0.8,0.5,1.9,0.9,1.8,2.2c-0.6,0.3-1.1,0.2-1.7-0.1c-6.6-3.9-14-6.2-21.2-8.8   c-3.5-1.2-7.2-1.4-10.8-0.6c-1.7,0.3-3.4,0.2-5.1,0.5c-4,0.6-8.1,0.8-11.8,1.1c-7.7,4.3-14.3,9.7-21.2,15.4c-1.1,0-2.7,0.1-4.3,0.2   c-0.9,0.1-1.7,0.4-2.1,1.3c-0.5,1.1-1.4,1.6-2.5,2c-2,0.7-3.2,1.9-3.6,4.1c-1,4.7-1.7,9.4-1.5,14.1c-0.7,0-0.8-0.4-0.9-0.9   c-1-3.9,0-7.7,0.7-11.6c0.2-1.2,0.8-2.3,0.8-3.8c-1.3,0.8-1.6,2.4-3.2,2.9c0.8-1.4,1.5-2.7,2.2-3.9c-0.5-0.6-1.1-0.3-1.6-0.2   c-3.9,0.9-7.9,1.4-11.9,1.9c-3,0.3-5.9,0-8.9,0.7c-0.9,0.2-1.9,0.2-2.8,0c-2.9-0.6-5.7-0.5-8.6,0c-0.9,0.2-1.9,0.1-2.8,0.1   c-0.6,0-1.1,0.2-1.2,0.8c-1-0.6-2.1-1.1-3.1-1.7c-0.5,0.2-0.5,0.7-0.5,1c-0.3,4.8-0.8,9.5-1.1,14.2c-0.5,8.7-0.4,17.4-0.2,26.1   c0.1,3.1,0.5,6.3,1.1,9.5c0.5,2.7,1.1,5.5,1.6,8.2c0.1,0.3,0.1,0.6,0.4,0.8c-0.2,1.3,0.8,2.3,0.9,3.4c-0.4,0.6-1-0.3-1.4,0.4   c0.3,3.8,1.4,7.6,3.1,11.1c2.3,0,4.5,0.2,6.6,0c3.6-0.3,7.1-0.8,10.7-0.9c1.2,0,2.3-0.2,3.5-0.3c1.9-0.2,3.8-0.8,5.7-1   c3.4-0.5,6.8-0.7,10.2-1c3.6-0.3,7.3-0.8,10.9-1.2c1.8-0.2,3.6,0.1,5.3-0.7c1.1-0.5,2.3-0.6,3.4-0.5c1.3,0.1,2.5-0.2,3.5-0.8   c0.6,0.1,1.2,0.5,1.8,0.5c0.2,0.5,0.7,0.4,1.1,0.4c1,0.9,2.2,0.3,3.3,0.5c3.1,1.1,6.2,1.7,9.4,2.2c2.2,0.4,4.3,1.2,6.5,1.6   c-0.1,0.6-0.5,0.4-0.9,0.4c-4.2,0.2-8.2-0.7-12.3-1.6c-1.8-0.4-3.6-1.1-5.5-0.6c-0.2,0.8-0.1,1.5,0,2.1c0.4,2,0.8,4,1.2,5.9   c1.7,7.6,3.4,15.1,5.1,22.7c0.4,2,1.4,3.8,1.6,5.8c0.3,3,1,6.1,1.2,9.1c0.2,2.6,0.7,5.3,1.1,7.8c0.3,1.8,0,3.6,0.7,5.3   c0.4,0.2,0.8,0.6,1.3,0.6c2.5,0.2,4.8,1.3,7.2,1.5c1.9,0.2,3.8,0.8,5.8,0.5c4.8,0.7,9.7,0.7,14.5,1.1c5.5,0.4,11,0,16.4,0.5   c3,0.3,6.1,0.1,9.1,0.7c2,0.4,4.1,0,6,0.6c2.8,0.8,5.8,0.8,8.4,2.2c0.4,0.2,0.9,0.1,1.5,0.1c0.2-1.2,0.4-2.3,0.2-3.4   c-0.1-0.9-0.2-1.9,0.2-2.8c0.7-1.5,0.7-3,0.7-4.6c0-2.4,0-4.9,0-7.3c-0.1-3.1,0.5-6.2,0.8-9.3c0.2-1.9,0.3-3.9,0.7-5.8   c0.6-3.5,0-7,0.7-10.5c0.2-0.7,0.4-1.6-0.2-2.2c-6,0.5-15.3,0.3-17.8-0.4c-0.7-1.1-1.1-2.5-1.1-3.9c-0.1-4.7-0.1-9.4,0.8-14   c0.1-0.7,0.2-1.4,0-2.1c-0.7-2.8-0.1-5.6-0.4-8.4c-0.9-7.9-0.4-15.8-0.4-23.7c0-5.9,0.3-11.9,0.7-17.8c0-0.5,0.1-1.1,0-1.6   c-0.5-1.9-0.3-3.7,0.2-5.5C426.5,156.1,426.5,155.7,425.9,155.2z M577.5,196.6c0.3,0.7,0.8,0.5,1.3,0.2   C578.4,196.6,578,196.6,577.5,196.6c-0.7-0.8-1.5-1.1-2.5-1.3c-4.6-2.5-7.7-6.3-9.5-11.2c-1.8-4.7-2.1-9.6-1.6-14.6   c0.7-5.7,2.6-11.1,6-15.8c1.6-2.2,3.1-4.5,4.8-6.7c4.9-6.3,10.8-11,18.9-12.4c1.6-0.3,3.1-1.2,4.8-0.6c1.3,0.5,2.7,0.6,4.1,0.9   c2.6,0.6,5.4,0.9,7.4,2c0.8,0.6,0.3,1.2,0.7,1.6c0.9,0.4,1.8,0.8,2.7,1.3c0.7,0.4,1.5,0.5,2.3,0.3c2.6-0.8,5.4-0.9,8.1-1.1   c1.2,0.3,2.3,1,3.6,0.3c-0.1-1.2-0.4-2.3-1.3-3.1c0.3-0.5,0.6-0.8,0.9-1.2c-0.2-0.4-0.5-0.7-0.3-1.1c0.1-0.5,0.8-0.7,0.8-1.3   c-1.1-0.6-2.3-0.6-3.5-0.4c0.3,1.5,0.5,3,0.4,4.5c0,0.6,0.3,1.4-0.5,1.9c-0.3-2.1-1.3-4.2-0.9-6.3c-0.7-0.4-1.5,0-1.9-0.4   c-1-0.9-0.8-2-0.6-3c-1.4-1-2.7-0.1-3.9,0.1c-1.3,0.2-2.4,0.4-3.6,0c-0.8-0.3-1.8-0.7-2.7-0.3c-3,1.1-6,0.6-9.2,0.4   c-0.3,0.2-0.5,1-1.5,1.1c-5.2-1.9-10.8-2-16.6-1.8c-1,0-2,0.1-3.1,0.1c-1.5,0-3.1,0.2-4.4-0.3c-3.4-1.1-6.7-0.3-10-0.1   c-1.5,0.1-3,0.3-4.3,0.9c-3.4,1.4-6.9,2.3-10.3,3.5c-4.3,1.5-8.7,1.8-13.2,1.5c-0.2-0.2-0.4-0.5-0.8-1c-2.9,0.4-6,0.4-9,0.7   c-4.6,0.3-9.2,0.9-13.8,0.8c-3.4,0-6.9,0-10.3-0.1c-6-0.2-11.8,0.8-17.6,2.1c-3.7,0.8-7.3,0.8-10.9-0.3c-1.2-0.4-2.4-0.8-3.6-0.9   c-0.7,0.4-1.2,0.8-1.8,1.1c-1.2,0.5-2.5,1.2-3.8,0.5c-1.5-0.8-3-0.6-4.6-0.4c-2.7,0.4-5.4,0.7-8.1-0.3c-1.1-0.4-2.3-0.5-3.5-0.5   c-0.5,0-1.1,0.1-1.6-0.4c-0.8-0.9-1.9-1-3-1.1c-2.3-0.3-4.6-1-6.9-1.2c-2.8-0.3-5.4-1.4-8.3-1c-0.5,0.1-1.1-0.2-1.6-0.3   c-1.8-0.4-3.6-0.9-5.7-1.4c0.2,1.4,0.3,2.5,0.5,3.7c1.1,6.2,2.6,12.3,4.8,18.3c0.7,1.9,0.8,3.8,0.3,5.8c-0.1,0.5-0.3,1.1-0.2,1.6   c0.4,2.3,0.2,4.5,0.2,6.8c0,5.5,0,11,0,16.5c0,7.2,0.3,14.4-0.9,21.6c-0.2,1.1-0.2,2.3,0,3.5c0.7,3.3,0.3,6.7,0.1,10.1   c-0.2,4.7-0.3,9.4,0.5,14.2c5.3-0.6,10.6,0,15.8-1.5c2.1,0.3,3.8-1.1,6.1-0.8c0.8-3.7,2.1-7.2,2.5-10.9c1.5-5.6,2.3-11.3,3.1-17   c0.5-3.5,0.8-7.1,1.3-10.6c0.2,0.8,0.3,1.5,0.2,2.3c-0.1,4.3-0.6,8.6-1.2,12.9c-0.5,3.6-1.1,7.3-1.7,10.9c-0.6,0.6-0.4,1.3-0.4,2   c-0.1,0.1-0.1,0.2-0.1,0.3c-1.1,3.2-1.5,6.6-2.9,10c2.6,0,5,0.3,7.3-0.2c2.3-0.4,4.5-0.4,6.8-0.1c0.8,0.1,1.6,0.2,2.3,0.2   c1.9-0.1,3.7,0.1,5.5,0.8c2.5,0.9,5.1,1.4,7.8,1.6c6.3,0.4,12.5,0.1,18.8-0.7c3-0.4,6.1-0.8,9.1-0.6c4.9,0.4,9.9,0.7,14.8,0.8   c1.5,0,3,0,4.5,0.1c4.5,0.3,9.1,0.6,13.6,0.8c1.5,0.1,2.9,0,4.4-0.3c5-0.9,9.7-2.8,14.6-4.1c0.4-0.1,1.1-0.3,1.2-0.6   c0.4-1.4,1.7-1.2,2.6-1.6c1-0.4,2-0.8,2.9-1.4c2.5-1.5,5.1-3,7.7-4.4c4.7-2.6,9.6-4.5,14.4-6.8c0.8-0.4,1.5-0.8,2.1-1.4   c2.4-2.6,5.1-4.9,7.8-7.2c3.1-2.5,6.3-4.9,9.9-6.6c0.7-0.3,1.5-0.7,2-1.2c2.7-2.7,5.7-4.9,9-6.7c0.6-0.3,0.1-0.8,0.4-1.1   c1.8-0.2,3.7-0.4,5.5-0.6c-3.5-0.8-7.1-1.3-10.5-2.4c-4,4.7-8.7,8.2-13.9,11.3c-3.2,2-6.7,3.2-10.3,4.3c-1.2,0-2.3,0-3.5,0.1   c-2.4,0.3-3.9-1.5-5.9-2.3c-0.5-1.3-1.9-1.5-3-1.9c-0.8-0.3-1.5-0.7-2.3-1C576.6,196.6,577.1,196.7,577.5,196.6z M629.4,137.7   c0.1-0.3,0.2-0.5,0.3-0.8c-0.3-0.1-0.5-0.1-0.6,0.1C628.9,137.4,629,137.7,629.4,137.7c0.2,2.3,0.6,2.6,3.1,2.1   c-0.5-0.3-1.2-0.4-1.6-0.9C630.4,138.5,630.2,137.8,629.4,137.7z M656.7,140.1c0-0.4-0.2-0.9,0.2-1.3c1.7,0.2,3.4,0.4,4.8-0.7   c0.1-1,0.2-1.8-0.5-2.5c-1.7-0.5-2.8,0.6-3.7,1.8c-0.3,0.5-0.6,0.9-1.3,0.8c0,0.9-0.7,1.6-0.6,2.5c-0.5,0.3-0.5,0.8-0.3,1.3   c0.2,0.6,0.3,1.2,0.2,1.8c0,0.8-0.4,1.3-1,1.8c-0.4,0.3-0.8,0.5-1.5-0.2c0.6-1.3,1.8-2.8,0.9-4.5c-1.1,0.3-1.5,1-1.5,2.1   c-0.1,2.2,0.5,4.3,1.2,6.4c0.1,0.4,0.3,0.7,0.6,1c2.9,2.3,5,5.6,8.5,7.1c0.3,0.1,0.5,0.4,0.7,0.6c6.3-0.2,12.3,1.4,18.3,2.5   c0.5,0.1,1.1,0.4,1.6,0.3c1.6-0.5,2.8,0.3,4.2,0.7c1.1,0.3,2.1,1,3.3,0.6c0.2-1.1-1.1-1.6-0.9-2.8c0.4-0.5,1.6,0,1.7-1.1   c-1-0.9-2.9-0.1-3.8-2.1c2.3-0.3,4.1,0.6,5.9,1.3c0.7-0.3,0.8-1.2,1.6-0.9c0.5,0.3,0.1,0.9,0.5,1.4c0.5,0.6,2-0.2,2,1.3   c-0.5,0.4-1.1,0.3-1.6,0.3c-0.6,0-1.1-0.7-2-0.3c-0.5,1.1-2.5,1.5-1.9,3.5c1.9,0.6,3.7,1.1,5.7,1.4c0.5-1.5,1-2.9,1.5-4.3   c0.6-0.3,1.2-0.5,1.8-0.7c0.8-0.3,1.4-0.9,1.6-1.7c0.3-1.9,1.5-3.4,1.7-5.3c0.3-2.3,1.1-4.3,2.2-6.3c1.4-2.5,2.3-5.4,2.8-8.3   c-1.2-1-3.4-1.1-2.8-3.4c-2.8-0.9-5-2.7-7.3-4.8c-1.3,0-2.9,0.2-4.3,0c-2.4-0.5-4.6-0.2-6.7,1.2c-0.1,0.1-0.2,0.2-0.4,0.4   c0.3,1.1-0.4,1.8-1.3,2.4c-2,1.3-3.9,2.6-5.9,3.8c-2.2,1.4-4.7,2.5-7.1,3.6c-0.9,0.4-1.9,0.7-3,0.3c-0.7,1.6-1.3,3.2-3.3,3.5   c-1.7-1.5-3-3.1-2.8-5.6c0.1-1.6-0.6-3.1-1.3-4.4c-0.2-0.4-0.6-0.7-1.1-0.3c1.3,3.4,0.9,8.9-0.8,9.8c-0.3-0.1-0.8-0.2-1.1-0.3   c-0.3,0.3-0.5,0.5-0.4,1c0.4,0.8,1.6,1.2,1.6,2.5c-0.1,1.9-2.4,2.6-2.5,4.7c-0.6-1.6-1.8-2.4-3.2-3c-0.6-0.2-1.4-0.5-1.3-1.5   c1.1-0.7,1.6,0.7,2.5,0.7c1.2-0.7,1.4-2,1.8-3.2c0-0.6-0.8-1.1-0.4-2.2c0.4-1,1.7-0.3,2.6-0.9c0.1-0.6,0.8-1.2,0.3-2   C660,140.7,658.4,141,656.7,140.1z M575.5,191.6c0.1,0.8,0.2,1,0.5,1.2c2,1.6,4.1,2.9,6.4,3.9c1.3,0.5,2.6,1.1,3.8,1.8   c2.4,1.5,4.9,1.6,7.4,0.6c7.6-2.9,14.2-7.4,20.2-13.1c-1.4-0.7-2.7-1.5-3.9-2.1c-1.8,0.9-3.6,1.6-5.4,1.3c-1.1-0.2-2,0-3,0.2   c-1.1,0.3-2.3,0.6-3.5,1c-0.2,1-1,1.4-1.9,1.7c-2.3,0.8-4.6,1.6-6.9,2.3c-2.8,0.8-5.6,1.3-8.6,1.1   C578.9,191.4,577.2,191.5,575.5,191.6z M816.9,175.1c-0.2-1.1,0.5-1.6,1.1-2.2c1.5-1.3,2.9-2.6,4.4-3.8c1.6-1.3,1.9-3.2,2.3-5   c0.2-0.9-0.1-2.1-1.3-3c-0.5,2.1-2.4,3-3.3,4.6c-1.7,2.9-4.3,4.1-7.3,4.9c-2.5,0.7-4.7,2-6,4.5c-0.6,1.2-1.5,2.2-2.3,3.3   c-0.3,0.4-0.7,0.7-0.4,1.4c5.6,0.3,11.2,0.3,17,1.1c2.4-1,4.5-2.7,7-4.7C824.1,176.7,820.6,176.2,816.9,175.1z M651.3,142.6   c-1,0.3-1.9,0.5-2.9,0.8c-0.3,0.6-0.9,1.1-0.7,2c1.5,0.8,2.8,2,4.8,2.9C651.7,146.2,651.7,144.4,651.3,142.6z M683.8,112.8   c-1.4,0-2.8,0-4.4,0c-0.9,1.1-1.8,2.3-2.8,3.5C679.1,115.2,681.4,114,683.8,112.8z M656.4,135.8c1.5-0.7,3.3-1,4.6-2.1   c-0.2-0.7-0.7-0.8-1-0.6C658.6,133.7,657.1,134.3,656.4,135.8z M718.6,116.8c-2.2-0.6-3.9-1.5-5.8-0.9   C714.5,116.6,716.1,117.4,718.6,116.8z M655.8,136.2c-1,0.3-1.5,0.6-1.4,1.6C655.3,137.7,655.5,137.2,655.8,136.2z" />
	<path fill="#EFCBBB" d="M385,371c1.1-3.3,1.5-6.7,2.2-10c1.3-6,2.5-12.1,4.1-18c0.1-0.4,0.2-0.8,0.1-1.1c-1-3-0.2-6.1-0.9-9   c-0.7-3.1-0.5-6.2-0.6-9.4c0-0.2,0-0.5,0-0.7c-1.3-5.9-1.2-12-3.3-17.6c-1.5-3.8-1.7-7.9-3.5-11.6c-1.8-3.6-3.2-7.5-4.7-11.2   c-0.8-1.9-1.4-3.8-2.2-5.8c1.4-0.4,2.5,0.3,3.6,0.4c4.5,0.8,9.1,1.4,13.7,1.7c8.6,0.6,17.2,0.5,25.8,1c2.1,0.1,4.2,0,6.2,0.8   c-1.7,0.2-3.4-0.2-5.1,0.5c-5.6-0.3-11.2,0.7-16.8,0.5c-2.1-0.1-4.1,0.4-6.2,0.6c-2.6,0.3-5.3,1-7.9,1.2c-0.5,0-0.9,0.2-1.1,0.6   c3.3,7.1,3.4,14.8,4.8,22.3c0.3-0.1,0.3-0.7,0.8-0.7c-0.5,2.6-1.4,5.2-1.5,7.9c-1.8,3.8-2.1,5.8-1.3,7.7c1.4-1.9,1.1-4.2,1.6-6.1   c0.4-0.2,0.6-0.4,0.9-0.6c0.3-0.1,0.5-0.2,0.8-0.2c0.1,0.9,0.5,1.7,0.6,2.7c0.2,2.4,0.7,4.7,1,7.1c0.3,2.5,1,4.9,1.3,7.4   c0.2,1,0.3,2.1,0.8,3.1c2.1,4,3.4,8.4,5.7,12.3c0.5,0.8,0.5,1.6,0.5,2.5c-0.5-0.1-0.3-1.3-1.4-0.8c-0.3,1.1,1,2,0.8,3.1   c-1.1-0.9-1.7,0.7-2.8,0.4c-1-0.6-2.4-0.8-3-1.9c-1-1.9-1.9-3.8-3.5-5.2c0.2,0,0.5,0,0.7,0c0.9-2.2-0.9-3.6-1.6-4.8   c-0.5-2.2,0.2-4.2-1.2-6.1c-1.1,2.4,0.9,4.7-0.4,6.6c0.5,1.8,1.9,2.8,2.4,4.4c-0.3,0.1-0.5,0.3-0.6,0.7c-0.4,2.1-0.9,4.2-1.3,6.3   c-0.4,2.3-0.9,4.5-1,6.8c-0.1,1.9-0.3,3.7-0.7,5.5c-0.5,2.8-0.5,5.5-0.7,8.3c-0.4,4.6-0.1,9.2-0.1,13.9c0,0.9,0.1,1.6,0.4,2.5   c2,5.1,3.8,10.2,5.8,15.2c1.1,2.8,2.8,5.6,3,8.6s1.1,5.7,1.6,8.6c0.2,1.3,0.8,2.7,0.4,3.9c-0.6,1.8-0.1,3.6,0.2,5.2   c0.4,2.3,0.6,4.6,0.7,6.9c0.3,6.3,0.2,12.5,0.1,18.8s0.5,12.6-0.4,19c-0.3,2.1,0,4.2,0,6.4c2.1,1.8,3.8,4.1,6.1,5.7   c0.8,0.5,1.7,1.3,1.4,2.5c-0.3-0.1-0.6-0.2-0.8-0.3c-0.8,0.6-1.3,1.2-1.6,2.1c0.3,0.2,0.4,0.4,0.6,0.5c-0.1,0.2-0.2,0.4-0.5,0.4   c-0.7-0.2-0.2-1-0.6-1.2c-0.6-0.3-1.1-0.5-1.5-0.8s-0.8-0.7-1.2-1.1c-0.4-0.4-0.8-0.7-1.4-0.7c-0.5-1.9-1.1-3.7-0.8-5.7   c0.2-1.1-0.1-2.2-1.6-2.8c0,1.6-0.1,3,0.5,4.3c0.6,1.5,0.6,3,0.2,4.6c-0.4,1.8-0.5,3.7-0.8,5.5c-0.2,0.9,0,1.5,1.1,1.6   c-1.1,3.9-2,7.8,0,11.9c2.1-0.2,4.3-1,6.4-1.8c3.9-1.5,7.5-3.8,11.7-4.8c-0.1,0.5-0.6,1,0.2,1.4c1.2-0.1,1.3-1.4,2-2   c0.2,0.7,0.9,0.8,1.5,1c4.1,1.2,7.8,3.4,11.8,4.7l-0.1,0.1c-0.5-0.1-1.1-0.5-1.7,0.3c0.7,0.5,1.4,1,2,1.5c1.4,1,2.9,1.7,4.4,2.5   c-0.1,0.3-0.5,0.3-0.6,0.5c-0.8,0.8-2,0-2.7,0.8c-2.6,0-5.3,0-7.9,0.1c-0.6,0-1.2,0.1-1.8,0.2c-0.3,0.1-0.7,0.4-0.3,0.8   c-1.4,0.5-2.7,1-4.2,0.7c0.1-0.3,0.5-0.4,0.3-0.8c-0.8-0.3-1.6-0.4-2.5-0.4c-1.6,0-3.3-0.1-4.9-0.2c-1.5-0.1-3.1-0.9-4.4,0.5   c-0.1,0.1-0.5,0.1-0.7,0c-4.6-0.2-9.2,0.6-13.9-0.6c-1.2-0.9-1.3-2.5-2-3.8c0.4-1.2,0.6-2.5,1.5-3.4c0.5-0.5,0.5-1.2,0.6-1.9   c0.8-5.2,1-10.4,1.6-15.6c0.4-3.3,0.7-6.5,1-9.8c0.1-0.5,0.3-0.9,0.5-1.3c0.3,0.3,0.5,0.4,0.7,0.6c0.4-1.3,0.3-2.3-0.7-3.1   c0.5-5.4,1-10.8,0.7-16.1c-0.3-4.7-0.5-9.4-0.7-14.1c-0.4-6.5-0.4-13-1-19.3c0.1-0.6,0.7-0.6,0.9-1.1c-0.2-1.6-0.3-3.3-0.6-5   c-0.3-1.6-0.8-3.2-1.5-4.7c-3.2-7.4-6.2-14.8-9.9-22c-0.7-1.2-1.3-2.5-1.8-3.8c-0.9-2.4-1.5-4.9-0.9-7.6   C384.3,377.5,384.6,374.2,385,371z M415.5,505.6c1-0.2,2.4,0.5,2.9-1.1C416.1,504.1,416.1,504.1,415.5,505.6c-1,0-1.1,0.5-0.9,1.3   c0.6,0.3,1,0.3,1.3-0.3C415.8,506.3,415.6,505.9,415.5,505.6z M419.2,508.8c-2.2-0.6-4.1-0.2-6.5,1.2   C415.4,510.5,417.3,509.6,419.2,508.8z M422.7,504.5c0.7,0.8,0.7,0.8,1.8,0.1C423.9,504,423.3,504,422.7,504.5z M428.9,505.6   c-0.9-0.6-1.5-0.7-2.2-0.1C427.4,506.2,427.9,506.3,428.9,505.6z" />
	<path fill="#070606" d="M385,371c-0.4,3.3-0.7,6.5-1.3,9.7c-0.5,2.7,0,5.1,0.9,7.6c0.5,1.3,1.2,2.6,1.8,3.8   c3.8,7.1,6.7,14.6,9.9,22c0.7,1.5,1.2,3.1,1.5,4.7c0.3,1.7,0.4,3.4,0.6,5c-0.2,0.5-0.8,0.4-0.9,1.1c0.6,6.3,0.7,12.8,1,19.3   c0.3,4.7,0.4,9.4,0.7,14.1c0.3,5.3-0.2,10.6-0.7,16.1c0.9,0.7,1.1,1.8,0.7,3.1c-0.2-0.2-0.4-0.3-0.7-0.6c-0.3,0.4-0.5,0.8-0.5,1.3   c-0.3,3.3-0.7,6.5-1,9.8c-0.6,5.2-0.8,10.4-1.6,15.6c-0.1,0.7-0.1,1.4-0.6,1.9c-1,1-1.1,2.2-1.5,3.4c0.7,1.3,0.8,2.9,2,3.8   c4.7,1.2,9.3,0.5,13.9,0.6c0.2,0,0.6,0.1,0.7,0c1.4-1.4,2.9-0.6,4.4-0.5c1.6,0.1,3.3,0.2,4.9,0.2c0.9,0,1.7,0.2,2.5,0.4   c0.2,0.4-0.2,0.5-0.3,0.8c-1.4-0.6-2.8,0.1-4.2,0c-1.2-0.1-2.3,0.1-3.5,0.1c-2.3,0-4.6,0-6.9,0.7c-2.5,0.8-5.3,0.5-7.7,0.3   c-1,0-1.1,1-1.9,1c-2-0.3-3.3-1.5-4.2-3.3c-0.2-0.5-0.2-1.2-0.6-1.5c-1.9-1.5-1.3-3.4-0.8-5.1c1-3.9,1.7-7.8,1.6-11.8   c0-1.7,0.3-3.4,0.5-5.1c0.6-4.6,0.7-9.2,1.3-13.8c0.9-7.3,1.5-14.6,1-22c-0.6-9.2-0.7-18.5-0.9-27.7c0-2.4-0.5-4.7-0.7-7   c-0.2-3.3-1.7-6.1-3-9c-1.7-3.9-3.2-8-4.8-12c-1.2-3-2.9-5.7-3.9-8.8c0.1-0.5,0.1-1.1-0.3-1.5c0-0.1,0-0.2,0-0.3   c0.4-0.9,0.6-1.7,0-2.6c-0.7-2.6-0.6-5.2-0.2-7.8c0.5-2.9,0.8-5.8,1.2-8.7c0-0.3,0.2-0.6,0.3-0.8c0,0.8,0,1.6,0,2.3   C383.9,370.2,384.2,370.7,385,371z M383.7,373.2c0.7-0.7,0.7-0.7,0.1-1.8C383.3,372,383.4,372.6,383.7,373.2z" />
	<path fill="#131111" d="M857.4,203.8c0.1-0.3,0.2-0.6,0.2-0.9c-0.2-0.2-0.5-0.2-0.8-0.2c2.5-1.2,4.6-3.1,7.2-4.2   c2.1-0.5,4.4-0.7,6.4-1.4c2.5-1,5-1.6,7.7-2c0.3-1,1.1-1.9,0.5-3.5c-3,2.1-6.3,1.8-9.6,1.9c-0.2,0-0.4,0.2-0.7,0.2   c-2.6,0.3-5.1,1.1-7.7,0.6c-0.1-0.9,0.4-1.6,0.8-2.4c0.3,0.7,0.8,0.6,1.4,0.3c-0.5-0.4-1-0.2-1.4-0.3c1.5-0.7,3.3-0.6,4.9-1.3   c3.6-1.5,7.4-2.1,11.3-2.6c2.1-0.3,4.3-0.3,6.2-1.6c0.3,0,0.5,0,0.8,0c-0.1,0.3-0.2,0.5-0.4,0.9c0.5,0,0.9,0,1.3,0   c-1,0.7-2.1,0.8-3.3,1.1c-2,0.5-4.1,0.9-6.2,1.3c0-0.5,0.6-0.4,0.8-0.8c-0.8-0.3-1.3-0.2-1.3,0.9c-0.3,0.3-0.7,0.3-1.1,0.3   c-2.4-0.1-4.6,0.5-6.8,1.8c3.4-0.2,6.8-0.1,10.1-1c1.8-0.5,2.7,0.3,2.6,2.2c0,0.6-0.1,1.3-0.2,1.9c-0.2,1.2-0.9,1.9-2.2,2.4   c-3.5,1.4-7.2,1.9-10.9,2.5c-3.2,0.5-5.9,1.8-8.6,3.4C858.2,203.4,857.8,203.6,857.4,203.8z M873.8,189.2c-0.6-0.2-1.1-0.3-1.6,0.2   C872.7,189.4,873.2,189.8,873.8,189.2z" />
	<path fill="#181513" d="M11.8,192.3c0.3,0.9,0.7-0.1,1,0.1c-0.1,0.9-1,1.4-1.3,2.3c1.4-0.1,2.5,0.7,3.9,0.8   c1.6-1.7,2.3-4.1,4.5-5.2c0.7,1,0.8,1,0.4,1.5c-2,2.7-3.7,5.9-7.7,6.2c-0.1,0-0.3,0.2-0.5,0.3c-0.6,1-1.7,1.9-1.9,3.2   c1.1,1.7,2.4,0.6,3.5,0.5c1.5-1.6,2.5-3.4,3.6-5.1c0.6-0.9,1.2-1.6,2-2.3c0.4-0.3,0.9-0.3,1.3,0.2c-0.6,0.9-1.2,1.9-1.8,2.9   c-1.4,2-3,3.9-4.9,5.6c-0.9,0.3-2,0.6-3.1,0.6c-1.4-0.8-1.4-0.8-2.1-2.6c0.1-1.4,1.2-2.4,1.8-3.7c-0.6-1.1-0.9-2.3-0.6-3.9   C11.1,194.1,11.1,192.9,11.8,192.3z" />
	<path fill="#ECCABB" d="M10.9,204.2c1.1,0,2.1-0.3,3.1-0.6c1.9-1.7,3.5-3.6,4.9-5.6c0.2,0.5-0.5,0.9-0.2,1.4c0.3,0,0.5,0.1,0.7,0.1   c-0.5,1.1-2,0.8-2.4,2c-0.2,0.6,0.3,0.8,0.5,1.2c-1.1,2.4-2.3,4.8-2.5,7.3c-0.8,0.7-1.6,0.2-2.4,0.2c-1.2-1.5-1.8-3.3-2.3-5.1   C10.9,205,10.9,204.6,10.9,204.2z" />
	<path fill="#413834" d="M425.7,513.3c-0.5-0.5,0-0.8,0.3-0.8c0.6-0.2,1.2-0.2,1.8-0.2c2.6,0,5.3-0.1,7.9-0.1c0.5,0,1.1,0.1,1.6,0.1   c0.4,0,0.8,0.1,0.9,0.5c-2.2,0.7-4.4,0.9-6.7,0.7C429.6,513.2,427.6,513.1,425.7,513.3z" />
	<path fill="#7D6D66" d="M438.1,512.8c-0.1-0.5-0.5-0.5-0.9-0.5c-0.5,0-1.1,0-1.6-0.1c0.7-0.8,1.9,0,2.7-0.8   c0.2-0.2,0.6-0.2,0.6-0.5c0.5-0.1,0.9,0.3,1.3,0.3c0.7,0.1,1.5,0.6,2-0.3c0.8,0.2,1.1,0.8,1.5,1.4c-0.5,0.1-1,0-1.6-0.3   c-0.8-0.3-1.6-0.5-2.3,0.3C439.2,512.1,438.7,512.4,438.1,512.8z" />
	<path fill="#EFCBBB" d="M382.6,384.4c0.6,0.9,0.4,1.7,0,2.6C382.4,386.2,382.4,385.3,382.6,384.4z" />
	<path fill="#ECCABB" d="M10.3,205.2c-0.6-0.3-0.9,0.2-1.3,0.5c-0.1-0.5-0.2-1,0.5-1C10,204.6,10.3,204.6,10.3,205.2z" />
	<path fill="#040405" d="M875.7,189.6c-0.1-1,0.4-1.1,1.3-0.9c-0.2,0.4-0.8,0.3-0.8,0.8l-0.2,0.1L875.7,189.6z" />
	<path fill="#EFCBBB" d="M382.6,387.3c0.4,0.4,0.4,1,0.3,1.5C382.2,388.4,382.6,387.8,382.6,387.3z" />
	<path fill="#4C63A9" d="M384.9,274.8c-2,0.4-3.9-0.3-5.8-0.5c-2.5-0.2-4.8-1.3-7.2-1.5c-0.4,0-0.8-0.4-1.3-0.6   c-0.7-1.8-0.4-3.6-0.7-5.3c-0.5-2.6-0.9-5.2-1.1-7.8c-0.2-3-0.9-6.1-1.2-9.1c-0.2-2-1.2-3.9-1.6-5.8c-1.6-7.6-3.4-15.2-5.1-22.7   c-0.4-2-0.8-4-1.2-5.9c-0.2-0.7-0.3-1.4,0-2.1c1.9-0.5,3.7,0.2,5.5,0.6c4,0.9,8.1,1.8,12.3,1.6c0.4,0,0.8,0.2,0.9-0.4   c0.3,0.1,0.6,0.1,0.5,0.6c-0.4,0.6-1.1,0.2-1.6,0.3c-0.4,0-0.9-0.1-1.1,0.5c-0.2,0-0.5,0-0.7,0.1c0,0.6,0.3,1,0.6,1.4   c1.3,1.8,2.5,3.7,3.7,5.6c0.4,0.6,0.9,1.1,1.1,1.8c0.6,2.8,1.3,5.7,1.5,8.5l0,0c-1.5-2.3-4-3.3-6-5.2c0.2,2.6,1.1,4.6,2.6,6.4   c1.6,1.9,2.7,4.1,4.5,5.8c0.4,0.4,0.7,0.8,1.3,1.1c1,0.5,2.2,1.3,2.3,2.7c-0.9-0.3-1.2-1.5-2.7-1.9c1.8,2.5,3.4,4.4,5.4,6.1   c1.5,1.2,2.8,2.5,4.3,3.8c-0.7,0.3-0.4,0.7,0,1.1c1.3,1.3,2.2,2.9,2.9,4.6c1,2.7,0.4,4.2-2.1,5.7c-0.5,0.3-1.3,0.3-1.1,1.2   c-3.6-2.1-6.7-4.7-9.5-7.8c-0.3-0.3-0.6-0.7-1-1c-0.3-0.3-0.6-0.8-1.1-0.3c0.2,0.7,1.1,0.9,1.2,1.7c-1.1,2.2-0.4,4.3,0.8,6   c1.2,1.9,1.9,4,2.9,6c0.7,1.3-0.1,2.7-0.8,3.8C385.5,274.1,385.2,274.4,384.9,274.8z M382.5,253.4c0.2-3.5,0.2-6.9-0.1-10.3   c-1,3.4-0.6,7-1.1,10.4C381.7,253.7,382,253.6,382.5,253.4z M381.8,264.1c-1.4,0.6-1.3,1.7-1.2,2.8c0.3,1.7,0.1,3.7,1.8,5.1   C382.4,269.2,380.9,266.8,381.8,264.1z M374.9,228.9c-0.4-1-0.7-2.1-1.5-3c-0.7-0.8-1-2.2-2.7-2.4C372,225.6,373,227.6,374.9,228.9   z" />
	<path fill="#4C63AA" d="M357.9,210.4c-0.7,0.1-1.2-0.3-1.8-0.5c-1.1,0.7-2.3,0.9-3.5,0.8c-1.2-0.1-2.4,0-3.4,0.5   c-1.7,0.8-3.5,0.5-5.3,0.7c-3.6,0.4-7.3,0.9-10.9,1.2c-3.4,0.3-6.8,0.5-10.2,1c-1.9,0.3-3.8,0.8-5.7,1c-1.2,0.2-2.3,0.3-3.5,0.3   c-3.6,0.1-7.1,0.6-10.7,0.9c-2.2,0.2-4.4,0-6.6,0c-1.7-3.6-2.8-7.3-3.1-11.1c0.4-0.7,0.9,0.1,1.4-0.4c-0.1-1.1-1-2.2-0.9-3.4   c0.1-0.1,0.3-0.1,0.4-0.2c1.2-1.3,2.6-1.6,4.2-0.8c0.4,0.2,0.7,0.6,1.4,0.3c0.2-1.4-1.5-2.3-1.2-3.7c0.8-0.2,0.3-0.9,0.5-1.3   c0.1,0.1,0.3,0.2,0.4,0.3c0.7,1.8,1.2,3.6,2.3,5.3c6.6,0.9,13.4,0.9,20.2,0c0.4-0.6-0.1-0.9-0.5-1.1c-2.4-1.3-4.6-3.1-7-4.5   c-1.2-0.7-2.5-1.6-2.7-3.3c0.3,0.1,0.5,0.2,0.8,0.4c0.3-0.7-0.5-1.1-0.3-1.7c1.3,1.1,3,1.4,4.5,2.3c3.8,2.1,7.6,4,11.4,6.1   c1.8,1,3.8,0.7,5.7,0.3c0.6-0.1,1.2-0.3,1.8-0.3c2.7,0.1,5.3-0.9,8.1-0.4c-0.5-1.5-2.2-1.5-2.7-2.8c0-0.4,0.2-0.7,0.6-0.8   c1.1-0.3,2.1-0.3,3.3,0.3c0.5-0.9,0.6-2.3,2.3-2.4c2.3,2.1,5,3.8,7.6,5.6c0.7,0.5,1.6,0.6,2.3,0.9c0.5,0.2,1.1,0.2,1.4-0.5   c0.3,0.1,0.6,0.2,0.8,0.3c3.9,3.3,8.3,5.8,12.7,8.2c2.2,1.2,4.7,1.7,6.7,3.2c-1.6,0.5-3.3,0.9-4.8-0.2c-0.4-0.3-0.9-0.3-1.3-0.2   c-2.7,0.9-5.2-0.4-7.7-1c-0.2,0-0.3,0-0.5-0.1c-2-0.6-2-0.6-3.7,0.6C359.6,210.4,358.7,210.4,357.9,210.4z" />
	<path fill="#4C63AA" d="M401.4,228.6c-0.7,0.5-0.9,1.5-2,1.9c-1.2,0.2-2.5-0.5-3.9-0.8c-4-1.1-7.7-3-11.6-4.2   c-0.2-0.1-0.4-0.2-0.7,0.1c0.2,0.6,0.8,1.2,1.3,1.5c1.1,0.5,1.8,1.5,2.6,2.3c0.9,0.8,1.8,1.6,2.8,2.5c1.6,1.4,3,3.2,4.3,4.8   c0.7,0.8,0.5,1.9,0.5,2.9c-0.4,1-1.4,1.4-2.2,1.8c-2.1-0.2-3.2-1.8-4.7-2.9c-1.5-1-2.7-2.3-4.3-3.6c-0.1,1.1-0.1,2.1-0.2,3   c-0.3,0.4-0.7,0.3-1.2,0.2c-0.3-1.3-0.1-2.7-0.2-4.1l0,0c0.6,0.2,0.4,0.7,0.5,1.2c0.1,0.8-0.2,1.7,0.3,2.7c0.4-2.1,0.1-3.8-0.3-5.5   s-0.6-3.5-1-5.4c1,0.4,1.3,1.4,2.5,1.7c-1.1-1.8-2-3.5-3.1-5c-1.7-2.1-3.1-4.4-4.6-6.7c2.7,0.3,5.3,1.4,7.9,2.1   c0.3,0.1,0.5,0.1,0.9-0.3c0.2-0.7-1.2-1-0.7-1.8c1.3,0,2.7,0.3,4.1-0.1c-0.5-0.7-1.5,0-1.8-0.8c2.9,0,5.6,0.9,8,1.6   c0.6,0.6-0.3,1,0.2,1.5c0.7,0.3,1.5,0,2.2,0.2c-0.1,0.4-0.3,0.7,0,1.1c1.3,0.7,2.9,0.7,4.2,1.6c-0.5,0.1-1.1-0.1-1.5,0.3   c-0.8,0.9-1.7,0.7-2.7,0.5c-1.2-0.3-2.3-0.9-3.5-0.7c-0.3,0.4,0.2,0.7,0.1,1.1c-0.6-0.2-1.2-0.4-1.8-0.7c-2.6-1.6-4.6-2.6-5.6-2.6   c1.7,1.1,3.2,2.4,5.1,3.1C394.8,224.9,398.1,226.8,401.4,228.6z" />
	<path fill="#4C63AA" d="M394.3,145.5c-0.7,0.8-1.4,1.4-1.7,1.7c-7,2-13.5,3.6-20.5,3.2c-2.6-2-3.2-5.1-1.3-7.8   c1.5-2.3,3.4-4.2,5.9-5.5c1.3-0.6,2.5-0.7,3.8-0.8c3.1-0.3,6,0.5,8.6,2.2c1.8,1.2,3.8,2,5.2,3.8   C394.3,143.3,394.3,144.4,394.3,145.5z" />
	<path fill="#4C63AA" d="M359.3,198.6c0.1-0.1,0.3-0.1,0.5-0.3c-2.9-3.6-7.3-5.8-9.8-10.3c-0.1-0.4-0.2-1.2,1-1.7   c0.6,0.5,1.2,1.1,1.8,1.7c3.2,3.2,6.7,6.2,10.3,9c1.1,0.9,2.2,1.9,3.3,2.9c0.9,0.8,1.9,1.3,3,1.5c2,0.4,3.9,1,5.6,2   c2.3,1.2,4.8,2.2,6.9,3.7c1.2,0.9,2.3,1.8,2.8,3.3c-0.3,0.9-0.7,1.7-1.7,2.3c-1.3,0.1-2.7,0.2-3.9-0.9c0.2,0,0.4-0.2,0.5-0.5   c-0.2-0.6-0.7-0.7-1.2-1c-3.4-1.9-6.8-3.7-10.2-5.6C365.2,202.8,362,201.1,359.3,198.6z" />
	<path fill="#0A0714" d="M341.9,140.7c0.2,4.7-0.4,9.4-0.4,14c0,4.7,0.4,9.4-0.5,14.1c-1.6-1.9-1.4-6.5-1.3-19   C339.7,146.1,340.6,141.9,341.9,140.7z" />
	<path fill="#0F101E" d="M403.3,152.1c-1.9,1.1-3.8,0.8-5.6,1.1c-4.2,0.7-8.1,1.9-11.9,3.7c-3.4,1.6-6.8,3.3-10.6,4.1   c-2.5,0.5-5,0.9-7.6,1.3c0.2-0.8,0.7-1,1.2-1c3.4-0.3,6.6-1.5,9.8-2.7c3.8-1.4,7.3-3.3,11.2-4.5c4-1.2,8.2-1.7,12.3-2.6   C402.3,151.5,402.7,151.8,403.3,152.1z" />
	<path fill="#10111F" d="M359.3,198.6c2.7,2.5,5.9,4.2,9.1,6c3.4,1.9,6.8,3.8,10.2,5.6c0.5,0.3,1,0.4,1.2,1c0,0.3-0.2,0.4-0.5,0.5   c-0.2-0.4-0.5-0.5-0.9-0.5c-2-1.5-4.5-2.1-6.7-3.2c-4.5-2.4-8.8-4.9-12.7-8.2c-0.2-0.2-0.6-0.2-0.8-0.3l0,0   c0.1-0.4-0.5-1.1,0.4-1.3C358.6,198.5,358.9,198.5,359.3,198.6z" />
	<path fill="#0E0E1B" d="M360.8,157c-1.3-0.2-1.5-1.2-1.8-1.8c-2-3.6-3.6-7.4-5.1-11.2c-1-2.4-2.3-4.6-3.2-6.9   c0.2-0.3,0.3-0.5,0.7-0.6c0.1,0,0.1,0,0.2,0C352.5,137,358.7,150.7,360.8,157z" />
	<path fill="#1F294E" d="M304.2,164.1c0.5-0.6,1.2-0.3,1.8-0.4c3.4-0.2,6.9,0.3,10.3,0.4c0.8,0,1.5,0,2.3,0c0.8-1.6-0.4-3.5,1.1-5.2   c0.5,1.8,0,3.4,0.3,4.9c0.7,1.3,2,0.5,3.1,1c-1,0.4-2,0-3.1,0.3c-0.4,2.6,0.4,5.1,0.6,7.7c0.3,2.5,1.3,4.9,1.5,7.4   c-2.2-4.8-2.5-10.1-3.3-15.4c-2.5-0.7-5,0-7.4-0.4c-0.2-0.6-0.7-0.4-1.2-0.4C308.2,164.1,306.2,164.1,304.2,164.1z" />
	<path fill="#121426" d="M397.3,123.9c0.8-1.1,1.7-0.8,2.5-0.7c1.9,0.4,3.8,1,5.5,1.9c1,0.5,1.9,1.2,2.4,2.1c1.7,3.2,4.8,4.3,8,5.2   c0.7,0.2,1.5,0.4,2.1,0.7c-0.2,0.5-0.5,0.6-1,0.5c-1.8-0.4-3.6-0.9-5.3-1.7c-1.7-0.8-3.2-1.9-4.2-3.6c-0.7-1.1-1.7-2-3-2.5   C402,125,399.7,124.3,397.3,123.9z" />
	<path fill="#14172A" d="M304.2,164.1c2,0,4,0,6,0.1c0.4,0,0.9-0.2,1.2,0.4c-2,0-3.9,0-5.9,0.1c-3.3,0.3-6.7,0.2-10,1   c-0.1,0.6-0.2,1.1-0.3,2.1c-0.3-1.6-0.7-2.7-2.1-2.9c-0.1-0.9,1-0.7,1.2-1.7c-0.4-2-0.6-4.2,0.5-6.6c0.5,2.6-0.4,5.1,0.8,7.5   C298.5,164.1,301.3,164.1,304.2,164.1z" />
	<path fill="#161C32" d="M392,222.5c0.6,0.2,1.2,0.4,1.8,0.7c0.2,0.4,0.5,0.4,0.9,0.4c0.7,0.8,1.5,1.2,2.5,1.4   c1.9,1.1,3.7,2.2,5.6,3.2c3.2,1.7,6.4,3.4,9.5,5.4c-0.7,0.7-1.1,0-1.5-0.2c-2.6-1.4-5.3-2.5-7.8-4.1c-0.4-0.3-0.9-0.6-1.5-0.6   c-3.3-1.9-6.6-3.8-9.9-5.7C391.5,222.7,391.7,222.5,392,222.5z" />
	<path fill="#2A376B" d="M376.4,216.9c1.4,2.3,2.8,4.6,4.6,6.7c1.2,1.4,2,3.2,3.1,5c-1.2-0.3-1.5-1.3-2.5-1.7c0.3,1.9,0.6,3.6,1,5.4   c0.4,1.7,0.7,3.5,0.3,5.5c-0.5-1.1-0.3-1.9-0.3-2.7c0-0.4,0.2-1-0.5-1.2c-0.3-2.9-0.9-5.7-1.5-8.5c-0.1-0.6-0.7-1.2-1.1-1.8   c-1.2-1.9-2.5-3.7-3.7-5.6c-0.3-0.4-0.6-0.8-0.6-1.4c0.3,0,0.5,0,0.7-0.1C375.9,216.7,376.1,216.9,376.4,216.9z" />
	<path fill="#1C223F" d="M425.4,155.6c-3.4,0.1-6.6-0.7-9.9-1.2c-0.7-0.1-1.4-0.2-2.1-0.3c1.8-1.5,1.8-1.4,4.2-1   c0.7,0.1,1.4,0,2.1,0.2c1.3,0.4,3-0.1,3.9,1.6C423.9,155.5,425,154.8,425.4,155.6L425.4,155.6z" />
	<path fill="#212C54" d="M382.9,257.9c-0.1-0.8-1-1-1.2-1.7c0.5-0.5,0.8,0.1,1.1,0.3c0.4,0.3,0.7,0.7,1,1c2.8,3.1,5.9,5.7,9.5,7.8   c1.4,1,2.8,2,4.6,3.4C394.3,267.6,385.9,261.4,382.9,257.9z" />
	<path fill="#111224" d="M346.3,136.4c0.6,0.2,0.8,0.8,0.9,1.3c0.7,3.7,1.4,7.4,1.4,11.2c-0.6-0.2-0.8-0.5-0.9-0.9   c-0.7-3.6-1.4-7.1-2.1-10.7C345.5,136.8,345.7,136.6,346.3,136.4z" />
	<path fill="#131526" d="M351,162.7c1.3-0.2,2.7,0.2,4-0.7c0.4-1.7-0.3-3.7,0.6-5.4c1.1,1.7,0.2,3.6,0.8,5.4c0.8,0.3,1.7,0.3,2.5,0   s1.5-0.3,2.3-0.1c-1.5,1.1-3.3,0.5-5,1.3c0,1.6,0,3.3,0,4.9c-0.8-1.5-1.1-3-1-4.4c-0.6-0.7-1.3-0.4-1.9-0.4   C352.6,162.9,351.7,163.6,351,162.7z" />
	<path fill="#161A2F" d="M401.4,222c-1.3-0.9-2.9-0.9-4.2-1.6c-0.3-0.4-0.1-0.7,0-1.1c4.4,1.2,8.3,3.4,12.4,5.3   c0.3,0.2,0.7,0.4,1.1,0.4c-0.1,0.6-0.6,0.3-0.9,0.4c-2.5-1-5-2.1-7.5-3.1C402,222.1,401.7,222.1,401.4,222z" />
	<path fill="#161B32" d="M393.8,252.7c-1.4-1.3-2.8-2.6-4.3-3.8c-2-1.7-3.6-3.7-5.4-6.1c1.5,0.3,1.8,1.6,2.7,1.9   c1.9,2.6,4.5,4.4,6.9,6.5c0.8,0.7,1.7,1.3,2.5,2c0,0.6-0.6,0.4-0.9,0.5C394.7,253.3,394.3,253,393.8,252.7z" />
	<path fill="#171B32" d="M311.8,191c-0.2,0.6,0.7,1,0.3,1.7c-0.3-0.1-0.5-0.2-0.8-0.4c-1.1-2.1-2.1-4.1-3.2-6.2   c-0.6-1.3-1-2.6-0.4-4.3C309.6,184.9,309.7,188.4,311.8,191z" />
	<path fill="#191F39" d="M412.9,213.8c2.1-0.3,8.6,0.6,11.2,1.6C420,215.8,416.5,214.8,412.9,213.8z" />
	<path fill="#1A213E" d="M298.7,195.7c-0.2,0.4,0.4,1.1-0.5,1.3c-1-3-2.5-5.8-3.2-8.9c-0.1-0.5-0.3-1,0.1-2   C296.4,189.5,297.5,192.6,298.7,195.7z" />
	<path fill="#2B386E" d="M409.8,225.4c0.3-0.1,0.8,0.1,0.9-0.4c3.1,1.3,6.1,2.5,8.9,4.4c-1.8-0.2-3.3-1.3-4.9-1.9   C413,226.9,411.3,226.4,409.8,225.4z" />
	<path fill="#181D36" d="M386.7,215.9c0.3,0.8,1.3,0.2,1.8,0.8c-1.4,0.3-2.7,0-4.1,0.1l0,0c-0.3-0.7-0.9-0.4-1.4-0.4   c-0.8-0.4-2-0.3-2.5-1.7C382.8,214.9,384.6,216,386.7,215.9z" />
	<path fill="#324280" d="M351,162.7c0.6,0.8,1.6,0.2,2.3,0.5c-0.1,0.1-0.2,0.3-0.3,0.3c-3,0.2-5.9,0.4-9,0.4   C346.3,163,348.7,162.8,351,162.7z" />
	<path fill="#131628" d="M360.9,138.6c-1.2-1.2-2-2.8-3.4-3.8c-0.1-0.1,0-0.4,0-0.6C359.2,134.1,359.7,134.7,360.9,138.6z" />
	<path fill="#1D2544" d="M323.3,146.5c0.3-1.7,0.7-3.3,2.8-4.4C325.7,144.3,324.5,145.4,323.3,146.5z" />
	<path fill="#191F39" d="M390.3,243.2c-1.4-0.5-2.8-1-3.8-3C388.4,241,389.5,241.8,390.3,243.2z" />
	<path fill="#151A2F" d="M355.9,135.5c0.7,0.8,1.8,1.3,2.1,2.5C356.3,137.8,355.9,137.3,355.9,135.5z" />
	<path fill="#4C63A9" d="M395.2,253.7c0.3-0.1,0.8,0.1,0.9-0.5c0.9,0.4,1.8,0.7,2.3,1.8C397.1,255.2,396.2,254.3,395.2,253.7z" />
	<path fill="#4C63AA" d="M362.3,211.2c-1.1-0.2-2.3,0.4-3.3-0.5c0.8,0,1.6,0,2.5,0C361.8,210.7,362.1,210.8,362.3,211.2z" />
	<path fill="#4C63AA" d="M397.1,224.9c-1-0.2-1.8-0.6-2.5-1.4C395.7,223.6,396.6,223.8,397.1,224.9z" />
	<path fill="#4C63AA" d="M358.5,198.1c-0.9,0.2-0.3,0.8-0.4,1.3c-0.6,0-0.7-0.5-1-0.7C357.8,197.6,357.8,197.6,358.5,198.1z" />
	<path fill="#1C223F" d="M425.9,155.2c0.6,0.5,0.6,0.9,0,1.4c-0.2-0.3-0.4-0.6-0.5-1l0,0C425.7,155.6,425.8,155.4,425.9,155.2z" />
	<path fill="#4C63AA" d="M383,216.5c0.5,0,1.1-0.3,1.4,0.4C383.9,216.8,383.3,217.2,383,216.5z" />
	<path fill="#CDD3EA" d="M453.6,220c0-0.1,0-0.2,0.1-0.3c0.9-0.5,0.3-1.3,0.4-2c0.6-3.6,1.2-7.3,1.7-10.9c0.6-4.3,1-8.5,1.2-12.9   c0-0.8,0-1.5-0.2-2.3c-0.4,3.5-0.8,7.1-1.3,10.6c-0.8,5.7-1.7,11.4-3.1,17c-1.1,0.2-0.1,1.5-1.1,1.9c-1.6,0-3.3-0.1-5,0   c-1.8,0.1-3.6-0.4-5.3,0.4c-0.2,0.1-0.5,0-0.7-0.1c-2-0.6-4.1-0.3-6.1-1.3c-0.5-0.2-1.2-0.1-1.9,0c-2.2,0.3-4,2.6-3.5,4.9   c0.3,1.5,0.9,2.9,1.4,4.3c0.5,1.3,1.4,1.9,2.8,2c1.8,0.2,3.4-0.3,4.4-1.3c2.3,0,4.2,0,6.1,0c0,0.3,0.1,0.6,0.1,0.8   c-5.2,1.6-10.5,0.9-15.8,1.5c-0.8-4.9-0.7-9.6-0.5-14.2c0.2-3.4,0.5-6.7-0.1-10.1c-0.2-1.2-0.2-2.4,0-3.5   c1.2-7.2,0.9-14.4,0.9-21.6c0-5.5,0-11,0-16.5c0-2.3,0.2-4.6-0.2-6.8c-0.1-0.5,0-1.1,0.2-1.6c0.5-2,0.3-3.9-0.3-5.8   c-2.2-5.9-3.7-12-4.8-18.3c-0.2-1.1-0.3-2.3-0.5-3.7c2,0.5,3.9,1,5.7,1.4c0.5,0.1,1.1,0.4,1.6,0.3c2.9-0.4,5.6,0.7,8.3,1   c2.3,0.3,4.6,0.9,6.9,1.2c1.1,0.2,2.2,0.3,3,1.1c0.4,0.4,1,0.4,1.6,0.4c1.2-0.1,2.4,0,3.5,0.5c2.6,1,5.4,0.7,8.1,0.3   c1.6-0.2,3-0.4,4.6,0.4c1.3,0.7,2.6,0,3.8-0.5c0.6-0.3,1.2-0.7,1.8-1.1c1.2,0.1,2.4,0.5,3.6,0.9c3.6,1.1,7.2,1.1,10.9,0.3   c5.8-1.3,11.7-2.3,17.6-2.1c3.4,0.1,6.9,0,10.3,0.1c4.6,0,9.2-0.5,13.8-0.8c3-0.2,6.1-0.3,9-0.7c0.3,0.4,0.6,0.7,0.8,1   c4.6,0.3,9-0.1,13.2-1.5c3.4-1.2,7-2.1,10.3-3.5c1.3-0.6,2.9-0.8,4.3-0.9c3.3-0.2,6.7-1,10,0.1c1.4,0.5,3,0.2,4.4,0.3   c1,0,2,0,3.1-0.1c5.7-0.2,11.4,0,16.6,1.8c1-0.2,1.1-0.9,1.5-1.1c3.2,0.2,6.2,0.8,9.2-0.4c0.9-0.4,1.9,0,2.7,0.3   c1.3,0.4,2.4,0.2,3.6,0c1.2-0.2,2.5-1,3.9-0.1c-0.2,1-0.4,2.1,0.6,3c0.4,0.5,1.1,0,1.9,0.4c-0.4,2.1,0.6,4.2,0.9,6.3   c-0.1,0.1-0.1,0.3,0,0.4c-2.7,0.2-5.4,0.3-8.1,1.1c-0.8,0.2-1.5,0.1-2.3-0.3c-0.9-0.5-1.8-0.9-2.7-1.3c-0.4-0.4,0-1-0.7-1.6   c-2.1-1.1-4.8-1.4-7.4-2c-1.4-0.3-2.8-0.4-4.1-0.9c-1.7-0.6-3.2,0.3-4.8,0.6c-8,1.5-14,6.1-18.9,12.4c-1.7,2.2-3.2,4.4-4.8,6.7   c-3.4,4.7-5.3,10-6,15.8c-0.6,4.9-0.2,9.9,1.6,14.6c1.8,4.9,4.9,8.7,9.5,11.2c-0.3,1.1-0.1,1.3,1.4,1.9c0.8,0.3,1.5,0.7,2.3,1   c1.1,0.5,2.4,0.6,3,1.9c2,0.7,3.5,2.5,5.9,2.3c1.1-0.1,2.3-0.1,3.5-0.1c0.4,0.1,1-0.1,1.4,0.3c-1.9,1.3-4.3,1.6-6.1,3.1   c-0.8-0.6,0-1.7-0.9-2.1c-0.7-0.3-1.5-0.3-2.2-0.1c-1.3,1.6-3.1,2.5-4.8,3.6s-3.6,1.9-5.5,2.3c-1.7,0.3-3.3,0.8-4.8,1.5   c-3,1.3-6.1,2.4-9.2,3.4c-5.9,1.9-11.9,3.7-18,5.2c-4.4,1.1-8.8,2-13.4,2.2c-0.3,0-0.7-0.1-0.9,0c-2.1,0.9-4.5,0-6.6,0.9   c-4.5,0-8.9-0.2-13.4,0s-8.9-0.7-13.4-1.1c-1.7-0.1-3.4,0-5.1-0.5c-1.6-0.5-3.3-0.4-4.8-0.3c-1.7,0.1-3.3-0.6-5.1-0.5   c-5.4,0.1-10.9-0.2-16.4,0.5c-2.1,0.3-4.2-0.3-6.2,0.5c-0.5,0.2-1.2,0.2-1.9-0.2C453.7,220.6,453.6,220.3,453.6,220z M502.1,210.8   c-0.2-2.5-0.7-4.9-1.8-7.1c-1.5-6.4-2.7-12.9-2.1-19.7c-0.2,0.4-0.5,0.7-0.5,1.1c-0.1,0.8-0.2,1.7-0.2,2.6   c-0.4,9.2,1.3,18,4.3,26.7c0.4,1.2,0.3,2.6,1.4,3.6c0.6,1.5,1.1,3.1,2.5,4.2c0.9-1.5,1-2.8,0.4-4.3c-0.9-2-1.6-4-2.5-5.9   C503.2,211.4,502.8,210.9,502.1,210.8L502.1,210.8z M531.4,177.5c-0.5-0.3-0.7-0.6-0.8-0.6c-18.4,0.2-36.7-0.7-55.1,0.2   c1.2,0.1,2.5-0.1,3.7,0.2c3.9,0.7,7.8,0.8,11.7,0.9c8.1,0.1,16.3,0.1,24.4,0.1c3.5,0,7.1,0.1,10.6,0   C527.7,178.3,529.5,178.4,531.4,177.5z M487.7,193.8c-0.8-0.1-1.1,0.1-1.4,0.6s-0.3,1.1-0.1,1.6c0.5,1.9,0.6,3.9,1,5.9   c0.3,1.5,0.4,3,0.7,4.5c0.4,2,0.9,4,1.1,6.1c0.2,1.9,0.6,3.8,1.8,5.4c0.5-0.1,1,0.1,1.4-0.3c0.2-1.6,0-3.3-0.4-4.9   c-0.5-2.2-0.7-4.5-1.1-6.8c-0.5-2.6-1-5.3-1.3-7.9C489.2,196.4,489.3,194.6,487.7,193.8z M429.2,172.3c3.5,1.5,33.3,4.3,38.9,2.9   c-0.4-1-1.3-0.7-2-0.7c-5.9-0.2-11.9-0.3-17.8-0.8c-5.4-0.5-10.7-1.1-16.1-1.9C431.2,171.6,430.1,171.3,429.2,172.3z M475.8,210.9   c0.5,0.5,0.8,1.2,1.7,1.2c0.8-1,1.1-2.1,1.1-3.4c0-0.9-0.1-1.9,0.1-2.8c0.5-2.3,1-4.6,0.8-7.1c-0.4-0.5-0.7-1.2-1.5-1.3   c-0.5,0.4-1,0.8-1.3,1.4c0,0.9,0.2,1.9,0,2.8C475.8,204.7,475.7,207.7,475.8,210.9z M468.3,177.6c-0.8-0.4-1.1,0.1-1.3,0.5   c-0.3,0.5-0.5,1.1-0.6,1.8c-0.8,3-1.2,6.1-1.6,9.2c-0.4,3.1-0.1,6,0.2,9c0,0.4,0.3,0.7,0.8,0.8C466,191.6,465.1,184.4,468.3,177.6z    M562.2,175.8c-1.8-0.4-13.4,1-16.9,1.9C547.9,178.4,559.7,177.2,562.2,175.8z M568.1,131.2c0.2,3.1,0.6,6,1.8,9   c0.8-2.9,0.1-5.4-0.3-7.9C569.4,131.8,569.2,131.3,568.1,131.2z M572.1,128.5c-0.3,1.2,0.3,2,1,2.7c2,2,4.7,3,7.1,4.6   C577.8,132.9,574.2,131.6,572.1,128.5z M618.9,130.9c-0.3-0.3-0.3-0.4-0.5-0.5c-0.2-0.2-0.5-0.1-0.6,0.1c-1.4,1.2-2.1,2.8-2.7,4.5   c-0.2,0.5,0.1,1,0.8,1.3C617.1,134.7,617.6,132.6,618.9,130.9z M605.6,134c1.5-0.1,1.6-1,1.6-2s-0.3-1.6-1.5-1.7   C604.9,131.5,605,132.7,605.6,134z" />
	<path fill="#FCE0D4" d="M860.7,194.2c2.6,0.5,5.1-0.3,7.7-0.6c0.2,0,0.5-0.2,0.7-0.2c3.3-0.1,6.6,0.2,9.6-1.9   c0.5,1.6-0.2,2.5-0.5,3.5c-2.6,0.5-5.2,1.1-7.7,2c-2,0.8-4.2,1-6.4,1.4c-2.6-0.4-5.1,0.5-7.6,0.4c-0.9,0-1.8,0.2-2.7,0.3   c-2.1,0.2-4.2,1-6.3,1c-2.3,0.1-4.2,0.7-6.1,1.8c-2,1.1-4.4,1.7-6.5,1.9c-2,0.2-4.2-0.7-6.2-1.7c0.1-0.6,1.2-0.8,0.7-1.9   c-1.3,0.3-2.1,1.3-3.1,1.9c-0.4,0-0.7-0.2-1.1-0.3c-0.9-0.1-1.9-0.7-2.6,0.4c-1.3,0.1-2.4,1-3.7,0.9c-2.3-0.3-4.6,1.1-6.8,0   c-3.6,0-7.2-0.2-10.7-0.4c-4.9-0.2-9.8-0.2-14.7,0.3s-9.8,0.1-14.7,0.5c-2.5,0.2-5,0-7.5,0c-0.5,0-1.2-0.2-1.6,0   c-1.7,0.7-3.5,0.6-5.3,0.5c-5-0.1-10-0.9-14.9-0.6c-0.9,0.1-1.7,0.1-2.6,0c-2.3-0.3-4.6-0.3-6.8-1.2c-2.9-1.2-5.8-2.4-8.9-2.8   c-1.4-0.2-2.7-0.5-4.1-0.8c0.3-0.5,0.6-0.7,1-0.8c0.7-0.1,1.3-0.4,1.9-0.9c1.1-0.9,1.1-2.1,0-3c-0.5-0.4-1.1-0.7-1.6-0.8   c-1.9-0.6-3.8-1.5-6-0.5c0-0.7,0-1.1,0-1.4c0-0.5,0.3-1.1-0.6-1.5c-0.5,0-1,0.4-1.3,0.9c-0.5,0.8-0.9,1.6-1.4,2.4   c-0.8,0.3-0.1,1.4-1,1.8c-1.5-0.2-2.9,0.4-4.3,0.5c-3.3,0.3-6.6-0.1-9.7-1.5c-2.3-1.1-4.9-2-7.6-0.8c-0.5,0.2-1.1,0.1-1.6,0   c-3.7-0.8-7.4-0.4-11.1-0.9c-1.8-0.2-3.8,0-5.6,0c-0.5,0-1.1,0-1.6-0.1c-2.4-0.4-4.8-0.9-7.2-1.3c-1-0.1-2-0.3-2.7-1.1   c-0.6-0.6-1.3-0.9-1.9-1.3c-2.5-1.3-5.2-1.8-7.9-2.4c-1.2-0.3-2.4-0.4-3.3-1.4c-0.3-0.3-0.6-0.4-1-0.5c-2.4-0.8-4.9-1.1-7.4-1.4   c-1.6-0.2-3.3-0.4-4.9-0.7c0-0.7,0.5-0.8,0.8-0.9c2.7-1,5.2-2.2,7.8-3.4c1-0.5,1.9-1,2.5-1.9c0.1-1.9,0.1-1.9-1.5-3.1   c-1.5,0.3-3.1,0-4.8,0.3c-2.9,0.6-5.7,1.3-8.4,2.1c-3.3,0.9-6.7,1.6-10,2.2c-2.3,0.5-4.7,0.7-7,0c-1.8-0.6-3.6-0.4-5.5-0.1   c-1.7,0.3-3.4,1-5.1,0.2c-0.2-0.1-0.4,0.1-0.7,0.2c-0.1,0.5-0.2,1.1-0.2,1.5c-4,2.3-8.3,3.4-12.5,5c-3.8,1.4-7.6,2.1-11.6,1.8   c-1.6-0.1-3.1,0-3.9,1.8c-0.1,0.1-0.4,0.1-0.7,0.1c-2.7-3.3-3.9-7.2-4.7-11.3c-1.4-7-0.4-13.7,2.4-20.2c0.9-2,2.3-3.8,3.8-5.4   c4.3-4.8,9.1-9,14.8-12.1c3.2-1.7,6.7-2.5,10.1-3.3c1-0.3,2.4,0,3.4,0.6c3.3,1.8,7.1,2.7,10.5,4.3c-1.4,1.1-3.3,0.7-4.8,1.8   c0.6,0.7,1.3,0.1,1.9,0.2c0.7,0.1,1.4,0.1,2.1,0c3.6-0.6,7.1-0.9,10.7-1c2.3,0,4.6,0.1,7,0.5c2.1,0.3,4.3,0.4,6.4,1   c0.7,0.2,1.4,0.4,2,0.7c4.4,2.4,8.8,4.6,13,7.4c1.3,0.9,2.3,2.1,3.6,3c1.7,1.1,3.3,2.3,5.2,3.1c0.7,0.3,1.1,0.7,1.3,1.4   c4.6,1.4,9.3,2,14,2.5c3.6,0.4,7.3,1,10.9,1.6c2.9,0.4,5.4,1.6,8,2.6c5.7,2.2,11.6,3.5,17.6,4.7c2.3,0.5,4.6,0.4,6.9,1.3   c1.1,0.5,2.3-0.2,3.4-0.7c1.8-0.8,3.6-1.3,5.5-1.8c0.7-0.2,1.4-0.3,2.1-0.2c5.9,0.9,11.9,0.7,17.8,1.5c3,0.4,5.9,1.3,8.8,2.2   c5.1,1.7,10.3,2.9,15.3,4.8c4.1,1.6,8.4,2.4,12.5,3.7c5.3,1.7,10.6,1.4,16,1.4c4.5,0,9.1-0.2,13.6,0.5c1.6,0.3,3.3,0.2,4.9,0.1   c3.5-0.2,6.6-1.4,9.4-3.6c3.1-2.4,6.3-4.7,8.8-7.7c0.2-0.2,0.4-0.3,0.5-0.5c2-3.2,5.3-4.4,8.8-5.2c1.5-0.3,2.8-0.7,4.1-1.6   c1.3-1,2.9-1,4.3-1.6c0.4,0.6,0.2,1.1-0.2,1.6c-0.7,0.8-1.6,1.5-2.6,2s-2,0.9-2.9,1.5s-1.9,1-2,2.3c-2.2,0.2-4.5-0.1-6.1,1.9   c0.4,0.7,1.1,0.6,1.7,0.5c2.6-0.7,5.1-0.2,7.7,0c3.9,0.2,7.8,0.6,11.6-1c2.4-1,5-1.2,7.5-1.6c1.5-0.3,3-0.3,4.4-0.6   c1-0.2,1.9-0.4,3,0s2.3-0.5,3.7-0.2c0.6,0.9,3.2,0.5,2.2,3c-0.5,0.3-1.1,0.5-1.6,0.9c-1.1,0.7-2.3,1.1-3.7,1.4   c-2.6,0.5-5.2,1.1-7.9,1c-3.1-0.1-6,1.1-9,1.3c-0.4,0-0.7,0.3-0.7,0.8c0.2,0.6,0.7,0.6,1.1,0.6c0.5,0,1.1,0,1.6-0.1   c5.3-1.1,10.7-1.2,16-2.5c1.2-0.3,2.1,0.4,3.3,0.5c2.1-0.2,4.3-0.9,6.6-0.8c0.9,0.6,1.5,1.3,1.9,2.5c-3.2,1.5-6.7,1.8-9.9,3.2   c-2.7-0.2-5.3,0.4-7.9,0.8c-3.4,0.4-6.7,1.2-10.1,2c-0.5,0.1-1.1,0.2-1.1,0.9c0.8,0.4,1.7,0.1,2.5,0c2.8-0.5,5.7-0.8,8.6-1   c2.4-0.2,4.8-0.5,7.1-1.2c0.2,0.1,0.3,0,0.4,0c0.9,0,1.9,0,2.8,0c1.6,0,3.2,0,4.8,0c0.7,0.5,1,1.2,0.9,2.2c-0.7,1-1.8,1.6-2.8,2.2   c-0.3,0-0.5,0-0.8,0c-2-1.1-4.1-1.7-6.4-1.5c-1.5,0.2-3,0.6-4.4,1.1c-1,0.3-2,0.9-3,1.2c-4.1,1-8.1,2.3-12.3,2.4   c-1,0-1.7,0.6-2.4,1.3c-0.5,0.6-0.4,1.3-0.1,1.9c0.9,0.9,1.9,1.1,3,1C859.1,193.7,859.9,193.8,860.7,194.2z M663.2,178.6   c1-0.3,1.5,1,2.5,0.6c0.9-0.3,1.9-0.3,2.7-0.6c1.7-0.7,3.7-1,5.4-2.9c-3.9,0.7-7.4,0.7-10.6,2.2c-1.7-1-3.3-0.5-5.2,0.1   C659.9,178.2,661.5,179.3,663.2,178.6z M731.6,176.4c1.6,0.3,2.9-1.1,4.8-1.1c-1.3-1.1-2.5-0.9-3.7-0.7c-0.5,0.1-0.9,0.6-1.3,0.3   c-1.4-0.7-2.8-0.2-4.2-0.3c-1.5-0.2-2.6,0.3-3.5,1.5c-1.1,1.3-2.6,2-4.3,1.9c-0.7,0-1.4,0.1-1.8,0.9c0.3,1,1.1,1.4,2.1,1.5   c1.4,0.1,2.8-0.1,3.8-1c1.9-1.7,4.4-2.4,6.5-3.7c0.2-0.1,0.4-0.2,0.6-0.2C731,175.5,731,176.2,731.6,176.4z M624.1,164   c-0.4-0.6-0.8-0.7-1.2-0.7c-1.7,0-3.4-0.2-5.1-0.4c-2-0.3-4-0.5-6-0.7c-0.5-0.1-1.1-0.1-1.3,0.6c0.3,1,1.2,1,1.9,1.1   C616.3,164.4,620.2,165,624.1,164z M733.4,189.3c-0.8-0.4-1.5-0.2-2.2-0.4c-1.8-0.4-3.6-0.2-5.4-1.3c-1.3-0.8-3.1-0.6-5,0.3   c1.7,0.3,3,0.5,4,1.5c0.3,0.3,0.8,0.4,1.3,0.5C728.6,190.3,731,190.2,733.4,189.3z M822.5,192.1c-2.5-0.4-6.7,0.2-7.8,1.1   C818.9,193.8,821.4,193.4,822.5,192.1z M824.8,185.2c2-0.1,4.1-2.2,4.4-4.4C827.6,181.6,825.3,183.7,824.8,185.2z M850.7,180.1   c2.5,0.5,4.4-0.8,6.5-0.9c0.3,0,0.5-0.4,0.5-0.7c-0.2-0.4-0.5-0.8-0.9-0.6C855,178.9,852.4,178,850.7,180.1z M630.5,163.2   c-2-0.8-3.7,0-5.6,0.4C626.6,165,627.9,164.9,630.5,163.2z M770.9,189.5c-3-2-4.6-2.3-6.1-1.1C766.9,189.1,768.9,189.4,770.9,189.5   z M675.7,174.5c1.8,1.3,2.6,0.9,3.4-1.2C677.5,173.3,677.3,173.3,675.7,174.5z M598.9,177.4c0.3-1.7-0.3-2.2-3-2.5   C597,175.6,597.4,176.9,598.9,177.4z M759.8,188.7c-2.7-1.4-2.9-1.4-3.8,0.2C757.2,189.3,758.2,189.1,759.8,188.7z M854.3,187   c1.2-0.1,2.5,1.5,3.7-0.4C856.5,186.1,855.3,186,854.3,187z M602.7,143.7c1.1,0,2.4,0.8,3.2-0.8C604.4,141.9,603.6,143,602.7,143.7   z M846.9,180.6c2.2,0.6,2.2,0.6,3.2-0.8C848.8,179.2,847.9,179.8,846.9,180.6z M605,163.2c0.1-1.4,0.1-1.4-3.1-1.5   C602.8,162.8,604,162.6,605,163.2z M747.3,176.7c-1.2-1.6-1.4-1.6-2.6-0.3C745.4,177,746.2,176.8,747.3,176.7z M802,192.7   c1,0,2.2,0.7,3.4-0.7C803.9,191.8,802.8,191.6,802,192.7z M633.6,162.9c0.9,0.4,1.6,0.4,2.2-0.4   C634.5,161.5,634.5,161.5,633.6,162.9z M846.3,181.4c-1.5-0.8-2.4-0.2-3.6,0.6C844,182.2,845,182.4,846.3,181.4z M598.6,142.9   c-1.1-0.5-1.1-0.5-2.2,0.2C597.4,143.9,597.4,143.9,598.6,142.9z M750,188.7c-1.2-0.2-2.1-0.5-3.4,0.7   C748.1,189.7,749,189.9,750,188.7z M592.3,173c0.5,1.5,0.5,1.5,1.7,1.9C594.3,173.5,593.3,173.5,592.3,173z M739,175.7   c0.9,0.4,1.6-0.2,2.3-0.5C739.8,174.6,739.8,174.6,739,175.7z M642.7,161.1c-1.2-0.5-1.8-0.2-2,0.9   C641.8,162.1,641.8,162.1,642.7,161.1z M837.6,173.6c0.7,0.1,1.6,0.5,1.9-0.8C838.6,172.4,838.1,172.8,837.6,173.6z M807.4,193.1   c2,0.3,2,0.3,2.2-0.8C808.8,192.2,808.1,192.3,807.4,193.1z M688,173.2c-1.2-1.7-1.2-1.7-2.1-1C686.4,172.8,687.1,172.6,688,173.2z    M741.5,189c-0.7-0.4-1.5-1-2,0.3C740.2,189.9,740.9,189.6,741.5,189z M680.3,172.9c0.8,0.3,1.3,0.4,1.8-0.4   C681.4,172,680.8,171.9,680.3,172.9z" />
	<path fill="#FCE0D4" d="M19.4,199.5c-0.2,0-0.4-0.1-0.7-0.1c-0.3-0.5,0.4-0.9,0.2-1.4c0.6-1,1.2-2,1.8-2.9   c-0.4-0.6-0.8-0.6-1.3-0.2c-0.8,0.7-1.4,1.4-2,2.3c-1.1,1.7-2.1,3.5-3.6,5.1c-1.1,0.2-2.4,1.2-3.5-0.5c0.2-1.4,1.3-2.2,1.9-3.2   c0.2-0.2,0.4-0.3,0.5-0.3c4-0.3,5.6-3.5,7.7-6.2c0.4-0.5,0.3-0.6-0.4-1.5c-2.2,1.1-3,3.5-4.5,5.2c-1.4-0.2-2.6-0.9-3.9-0.8   c0.2-1,1.2-1.4,1.3-2.3c1.4-0.5,3-0.5,4.2-1.8c0.6-0.7,1.4-1.2,1.9-2c0.6-1.1,1.5-2,2.2-3.1c-0.2-0.5-0.4-0.8-1-0.4   c-0.8,0.5-1.3,1.2-1.8,1.8c-1,1.3-2,2.6-3.6,3.3c-0.9-0.5-2.1-0.3-3-1.1c1.3-0.7,2-1.8,2.7-3.1c0.5-1,1.3-1.6,2.4-2.1   c1.5-0.6,2.6-1.8,3.7-3c-0.8-0.8-1.3-0.1-1.7,0.2c-1.4,1.3-3,2-5.3,1.7c-0.2-0.1-0.5-0.4-0.9-1c-0.1-2,1.2-3,2.6-3.6   c1.3,0.3,1.5,1.5,2.6,1.8c0.2-0.2,0.5-0.5,0.5-0.7c-0.3-3.2,1.6-5.6,3.3-7.9c1.3-1.8,2.6-3.5,3.9-5.3c0.8-1.1,1.6-2.1,2.9-2.6   c1-0.4,1.6-1.2,2.3-2c1.3-1.4,2.6-2.7,4.1-3.8c1.8-1.3,3-3,3.8-5c0.6-1.6,1.3-3.2,1.9-4.8c0.5-1.3,1.2-2.4,2.1-3.6   c1.3-1.6,2.3-3.4,3-5.2c1.2-3.2,3.8-4.1,6.7-4.7c0.4-0.1,0.8-0.1,1.2,0c3.1,1.1,6.6,1.4,9.3,3.6c1.1,0.9,2.4,1.7,3.9,2.1   c0.3,0.3-0.2,0.5-0.2,0.4c0.2,1.4,1.7,1.5,1.4,2.7c0.6-0.1,1-0.4,1.6-0.1c4.6,2.1,9.4,3,14.4,3.6c2,0.2,3.9,0.3,5.9,0.5   c3,0.2,5.9-0.5,8.8-0.7c0.8,0,1.6-0.2,2.3-0.2c7.9,0.2,15.5-1.4,23.1-3.5c7.6-2.1,15.4-3.9,23.2-5.4c2.2-0.4,4.5-0.7,6.8-0.6   c1.2,0.1,2.3,0,3.3-0.9c0.3-0.3,0.8-0.4,1.3-0.5c5.2-0.1,10.4-1.2,15.6-1.6c3.4-0.2,6.9-0.5,10.3,0.1c0.4,0.1,0.8,0.1,1.1,0.3   c6.1,2.9,12.6,4.4,18.9,6.8c3,1.2,5.9,2.3,8.9,3.4c0.3,0.1,0.6,0.2,0.8,0.4c1,1.1,2.3,1.1,3.7,0.9c1.9-0.3,3.7-0.4,5.6-0.4   c2.1,0,4.3-0.4,6.4,0.8c1,0.6,2.4,0.6,3.7,0.6c3.9,0,7.8,0.6,11.5,0.4c0.8,0.5,0.1,1.2,0.9,1.8c1.6,0.3,3.4-0.5,5.2-0.6   c5.3-0.3,10.5-1.6,15.7-2.3c6.8-0.8,13.6-0.9,20.4-0.9c0.8,0,1.6,0.1,2.6-0.4c-0.5,5.4-1.1,10.6-1.5,15.8s-0.6,10.5-0.5,15.8   c-0.2,0.2-0.5,0.3-0.5,0.4c0,1.5-0.5,2.9-0.4,4.3c0.1,3.4-0.5,6.7-0.5,10c0,2.4,0,4.8,0,7.2c-0.4,0.1-0.7,0.2-0.9,0.1   c-3.6-1.4-7.4-2.2-11.2-3.4c-1.6-0.5-3.2-1.3-4.8-1.2c-3,0.1-5.7-1-8.5-1.9c-1.3-0.5-2.8-0.6-3.7-1.9c-0.1-0.1-0.5,0-0.7,0   c-1.3-0.4-2.3-1.2-3-2.4c-0.9-1.6-1.9-3.2-2.9-4.8c-0.7-1.1-1.4-2.2-2.8-2.5c0,1.8,0.7,3.3,1.2,4.9c0,0.2-0.1,0.5-0.1,0.9   c-0.8-0.6-1.5-1-2.2-1.6c-1.9-1.4-3.8-2.8-6.1-3.7c-1.3-0.5-2.7-0.8-3.8,0.4c0,0.9,0,1.7,0,2.3c0.5,0.9,1.4,1.2,1.7,2.2   c-0.4,0-0.8,0-1.2,0c-2.2,0-4.5,0-6.7-0.5c-0.9-1-0.7-2.6-1.7-3.6c-0.9,0.5,0.1,1.1-0.2,1.6c-0.1,0.6,0.2,1.2-0.2,1.8   c-2.9,0.6-5.5-0.1-7.6-1.8c-0.5-1.8,0.3-3.3,0.8-4.8c-1.7-0.2-1.8-0.1-2.3,2.2c-0.2,0.4-0.4,0.9-0.5,1.3c-0.8,0.5-1.7,0.6-2.7,0.3   c-1-1.2-2.4-2.1-3.8-3c0.6-0.8,1.6-1,2.4-1.5c2.3-1.3,2.4-2.2,0.2-4c-2.2,0.9-4.6,1.1-7,1c-0.5,0-1-0.2-1.4,0   c-1.9,0.9-3.9,0.3-5.9,0.8c-2.2,0.5-4.6,0.1-6.9,0.5c-3.5,0.6-7-0.3-10.5-0.4c-0.4,0-0.7-0.3-1.1-0.4c-6.6-2.4-13.5-3.5-20.4-4.2   c-3.4-0.3-6.8-0.8-10.2-0.6c-3,0.2-6-0.8-9.1-0.5c-0.2,0-0.3,0-0.5,0c-2.1-0.8-4.3-0.5-6.4-0.9c-1.8-0.4-3.6-0.5-5.5-0.8   c-2.1-0.3-4.2-1-6.3-1c-2.6,0-5.1-0.8-7.7-0.5c-0.2,0-0.3,0-0.5,0c-2.8-0.8-5.7-0.8-8.5-0.8c-5.3-0.1-10.6-0.5-15.9,0.3   c-1.7,0.2-3.5,0.4-5.3,0.7c-2.5,0.4-5,0.7-7.4,1.3c-4.6,1-9.2,1.8-13.1,4.6c-0.4,0.3-1,0.5-1.5,0.6c-4.6,1.2-9.1,2.4-13.7,3.7   c-3.2,0.9-6.6,1.9-9.2,3.9c-2.3,1.8-4.8,3.4-7.2,5.1c-1.9,1.4-3.9,2.7-6,4c-0.4,0.2-1,1.3-1.7,0.2c0.1-0.7,0.9-1,0.7-2   c-1.6,0.7-1.8,2.8-3.4,3.2c0,0.5,0,0.8,0,1.1c-0.1,0.3,0,0.7-0.2,0.9C21.7,195.4,20.8,197.7,19.4,199.5L19.4,199.5z M244.1,176.7   c-1.1-0.5-2.3-0.8-3.3-1.5c-0.7-0.5-1.5-0.5-2.5-0.1c1.4,1.4,3.3,1.4,4.7,2.1c0.8,0.7,1.6,1.4,2.6,1.9c0.4,0.2,0.9,0.3,1.2-0.4   C246.4,177.6,245.2,177.2,244.1,176.7z M188.5,145.2c-0.2-0.4-0.6-0.4-1-0.4c-2.1,0-4.1-0.1-6-1.3c-1.3-0.9-3-0.7-5-0.2   c0.1,0.3,0.4,0.6,0.7,0.5c1.2-0.1,2.3,0.4,3.4,0.8c1.8,0.7,3.8,0.7,5.7,1.1c2.3,0.5,4.6,1.1,6.9,1.5c2.2,0.4,4.3,1.5,6.9,1.3   c-0.5-1.3-1.6-1.4-2.4-1.5C194.5,146.3,191.5,145.8,188.5,145.2z M84,150.4c-0.4-0.5-1-0.5-1.5-0.3c-2.7,0.8-5.4,0.7-8-0.3   c-0.3-0.1-0.6-0.1-0.8,0.2c-0.1,0.5,0.3,0.7,0.6,0.9c1,0.7,2.2,0.8,3.4,0.7c1.6-0.1,3.2-0.3,4.9-0.5c0.8,0.8,1.8,1,3,0.9   c0.9-0.1,1.9-0.2,2.8,0c1.4,0.2,2.8,0,4.1-0.3c1.6-0.4,3.2-0.6,4.9-0.4c1.3,0.2,2.8,0.1,4.3-1.1c-3.2-0.5-6,0.2-8.8,0.6   C89.8,151,86.9,150.3,84,150.4z M247.4,160.4c2.7-0.7,5.4-1.4,8.2-3.2c-0.7-0.1-1-0.1-1.2-0.1c-3.6,0.7-6.9,2.7-10.8,2.5   c0,0-0.1,0.1-0.2,0.2c-2.3,0.4-4.7,0.4-6.8,1.6c-0.9,0.5-1.8,0.8-2.9,0.8c-2.7,0-5.5,0.1-8.2,0.2c-0.7,0-1.4-0.2-1.8,0.6   c0.5,0.7,1.2,0.7,1.9,0.7c3.1,0.2,6.1,0.1,9.1-0.7c0.9-0.2,1.8-0.2,2.8-0.2C241,162.8,244.4,162.5,247.4,160.4z M58.4,152.4   c0.4-0.8,0.8-1.5,1.1-2.1c1.3-0.9,2.4-0.8,3.7-0.4c1.4,0.4,2.9,0.7,4.3,1c1.2,0.2,2.3,0.3,3.5,0c0-0.5-0.2-0.6-0.4-0.7   c-1.9-0.8-4-1.2-6-1.9c-2.4-0.9-4.4-0.2-6.3,1.1c-0.6,0.4,0.3,0.9-0.2,1.4c-0.5,0.9-1.8,1.1-2,2.3c-0.9,0.6-1.8,1-3,1   c-1.3,0-1.7,0.9-0.9,2c0.2,0.3,0.6,0.5,0.9,0.8c4.6-0.5,9.3-1,14-1.5c0.3-0.5,1-0.7,1.1-1.4c-0.1-0.4-0.4-0.7-0.7-0.8   c-1.6-0.8-3.3-0.7-4.9-0.3C61.2,152.9,59.8,153.2,58.4,152.4z M185.4,172.2c1.2,0.8,1.2,0.7,2,0.7c4.6-0.2,8.2-2.7,11.5-5.6   c0.2-0.2,0.2-0.4,0-0.8c-1.3,0.5-2.8,0.9-3.7,2c-0.7,0.9-1.6,1.2-2.5,1.5c-1.5,0.5-3.1,0.9-4.7,1.2   C187.2,171.4,186.3,171.4,185.4,172.2z M208.9,170.4c-1.4-0.8-2.2,0.1-3,0.4c-0.8,0.4-1.6,0.9-2.4,1.4c-0.7,0.5-2,0.3-2.5,1.9   C203.9,173.3,206.6,172.6,208.9,170.4z M38,174.3c-1.5,2.5-3.6,4.2-4.6,6.7c-0.1,0.3-0.1,0.8,0.3,1C35.6,180.1,38,176,38,174.3z    M21.3,188.3c2.3-2.2,2.8-2.9,3.1-4.6C22.3,185.1,21.5,186.3,21.3,188.3z M41.8,158.6c-1.6,0.6-3.5,0.3-5,1.1   c-0.1,0.6,0.2,0.9,0.4,0.8C39,160.4,40.5,159.8,41.8,158.6z M264.8,154c1.6,0.8,3.3,0.5,4.4-0.8C267.8,153.4,266.3,152.9,264.8,154   z M203.9,162.2c1.7-0.7,2.7-1.6,3.3-3.6C205.7,159.7,204.1,160.1,203.9,162.2z M256.6,157.6c1.8-0.4,3.1-1,4-2.3   C259.4,156,257.4,155.3,256.6,157.6z M44.9,157.3c1.7,1.1,2.2,1,3.5-0.5C46.3,156.3,46.3,156.3,44.9,157.3z M214.1,164.9   c1.4-0.2,3,0.8,4.5-0.6C216.9,162.9,215.6,164.7,214.1,164.9z M39.7,170.5c1.4,1,2,0.7,3-1.5C41.6,169.3,40.6,169.4,39.7,170.5z    M212.1,154.6c-1.7,0.6-2.9,1.2-3.6,3.1C210.2,157,211.2,156.1,212.1,154.6z M273.3,153.1c0.9,0.9,1.7,0.7,2.6,0.4   c0.1-0.7-0.3-1-0.7-1.1C274.6,152.2,273.9,152.2,273.3,153.1z M228.6,172.2c1.5,2,1.5,2,2.6,1C230.6,172.5,230,171.6,228.6,172.2z    M44.3,167.8c1.3,0.3,2-0.1,2.4-1.1C45.4,166,45.3,166,44.3,167.8z M200.4,165.4c1.1-0.2,1.8-0.8,2.2-2   C201.3,163.6,200.6,164.2,200.4,165.4z M235.6,173.5c-0.8-1.1-1.5-1.8-3.1-1.1C233.6,173,234.1,173.7,235.6,173.5z M169.6,142.2   c-1-0.4-1.7-0.4-2.2,0.5c0.6,0.2,0.9,0.7,1.6,0.6c0.2-0.1,0.3-0.3,0.5-0.5C169.5,142.7,169.5,142.5,169.6,142.2z M48,140.7   c-1.2-0.9-1.2-0.9-2.1,0C46.9,141.1,46.9,141.1,48,140.7z M201.7,147.9c0.9,0.9,0.9,0.9,2.5,0.1   C203.2,147.6,202.5,147.5,201.7,147.9z M162.2,142c-0.7-0.7-1.2-0.7-1.9-0.4C160.8,142.4,161.3,142.7,162.2,142z M156.6,141.9   c-0.8-0.6-1.3-0.6-2-0.2C155.1,142.4,155.6,142.7,156.6,141.9z" />
	<path fill="#FBE0D4" d="M393.9,305.4c-0.5,0-0.4,0.6-0.8,0.7c-1.3-7.5-1.4-15.2-4.8-22.3c0.3-0.4,0.6-0.6,1.1-0.6   c2.7-0.2,5.3-1,7.9-1.2c2.1-0.2,4.1-0.7,6.2-0.6c5.6,0.2,11.2-0.8,16.8-0.5c1.6-0.7,3.4-0.3,5.1-0.5c3.1-0.1,6.2,0.5,9.3,1.2   c-0.2,1.5-0.3,3-0.6,4.4c-0.8,3.4-1.1,6.8-1.4,10.2c-0.1,1.2-0.3,2.3-1.2,3.3c-0.3,0.3-0.5,0.6-0.6,1c-0.9,4.3-3,8.2-4.4,12.3   c-0.5,1.3-1.5,2.2-2.6,3c-2.1,1.5-3.8,3.4-5.4,5.4c0.2,0.2,0.2,0.2,0.3,0.3c0.1,0,0.2,0.1,0.2,0c2.7-2.4,6-3.9,8.4-6.6   c0.1-2.1,0.1-2.1,2.3-4.5c-0.7,2.8,0.3,4.9,0.9,7.1s0.6,4.4,0.1,6.7c-1.1,4.9-2.1,9.8-3.1,14.6c-0.6,0.8-0.5,1.6-0.2,2.4   c0.2,0.6,0.3,1.1,0,1.7c-1.8-3-2.1-6.6-3.2-9.8c-0.8,0.2-0.9,0.5-0.8,0.9c0.8,4,1.3,8.1,4.2,11.4l0,0c0,1.3,0.1,2.5,0.1,3.8   c-0.2,3-1,5.8-1.1,8.8c-0.1,3.8-0.5,7.6,0,11.4c0.4,3.2,0.3,6.4-0.2,9.6c0,0.3-0.1,0.6-0.1,0.9c0.1,5.4-0.7,10.8-0.6,16.2   c0.1,4-0.3,7.9-0.4,11.9c-0.1,4.1,0.6,8.1,0.4,12.2c-0.2,2.9-0.5,5.7-0.7,8.6c-0.2,3.4-0.2,6.9-0.2,10.3c0,3.1-0.1,6.3,0.1,9.4   c0.3,5.4,0.5,10.8,2.1,16c0.2,0.7,0.2,1.4,0.2,2.1c0,0.6,0.1,1.1,0.6,1.5c0.3,0,0.7-0.1,1.1-0.1c0.3,0.9,0.6,1.9,0.9,2.8   c-0.3,0.2-0.5,0.4-0.7,0.7c0.1,0.2,0.2,0.5,0.2,0.7c1.8,3.6,3.9,7.1,7.1,9.8c2.2,1.9,4.6,3.4,7.3,4.5c2.5,1,4.9,2.5,7,4.2   c2.6,2.1,5,4.5,8,6.1c0.3,0.2,0.6,0.5,0.9,0.8c3.2,3.5,7,5.9,11.7,6.7c0.5,0.1,1,0.1,1.3,0.4c1.1,0.7,2.3,0.9,3.5,0.8   c1,0.7,1.9,1.3,2.8,1.9c2.3,0.1,4.5-0.8,7-0.3c1.3,1.1-0.2,2.5,0.3,3.9c-2.7,1.9-5.9,2.5-8.6,4c-2.8-1.3-5.9-1.2-8.4-2.4   c-2,0.3-3.6,1.3-5.4,1.8c-2.7,0.7-5.5,1.1-8.3,0.5c-0.3-0.8-1.1-0.3-1.6-0.8c-2.7-2.4-6-3.5-9.4-4.4c-2.2-0.6-4.5-0.9-6.5-1.9   c-1.2-0.6-2.4-1-3.6-1.4c-4-1.3-7.7-3.5-11.8-4.7c-0.5-0.2-1.3-0.3-1.5-1c0-0.1,0-0.2,0-0.3c-0.4-0.8-0.7-0.8-1.4-0.1   c-0.5,0.1-0.3,0.9-0.8,1c-4.1,1-7.7,3.3-11.7,4.8c-2.1,0.8-4.3,1.6-6.4,1.8c-2-4.1-1.2-8,0-11.9c0.6-0.7,0.7-1.5,1-2.3   c0.5-1.7,0.4-3.4,0.5-5.1c0.6-0.1,1,0.3,1.4,0.7c0.4,0.4,0.7,0.8,1.2,1.1c0.4,0.3,0.9,0.5,1.5,0.8c0.4,0.2-0.1,1.1,0.6,1.2   c0.3,0,0.4-0.2,0.5-0.4c0.9-0.6,2.2-0.9,1.9-2.4c0.3-1.2-0.6-2-1.4-2.5c-2.4-1.6-4.1-3.9-6.1-5.7c0-2.2-0.2-4.3,0-6.4   c0.9-6.3,0.3-12.6,0.4-19c0.1-6.3,0.2-12.6-0.1-18.8c-0.1-2.3-0.3-4.6-0.7-6.9c-0.3-1.6-0.8-3.4-0.2-5.2c0.4-1.2-0.2-2.6-0.4-3.9   c-0.5-2.9-1.4-5.6-1.6-8.6s-1.9-5.7-3-8.6c-2-5.1-3.8-10.2-5.8-15.2c-0.3-0.8-0.4-1.6-0.4-2.5c0-4.6-0.3-9.3,0.1-13.9   c0.2-2.7,0.2-5.5,0.7-8.3c0.3-1.8,0.5-3.7,0.7-5.5c0.1-2.3,0.6-4.6,1-6.8c0.4-2.1,0.9-4.2,1.3-6.3c0.1-0.4,0.3-0.5,0.6-0.7l0,0   c1.6,1.5,2.5,3.3,3.5,5.2c0.6,1.1,2,1.3,3,1.9c1.1,0.3,1.7-1.3,2.8-0.4c0.4,0.5,0.6,1.2,1.4,1.3c0.5-1.5-0.9-2.4-0.9-3.6   c0.1-0.9,0-1.7-0.5-2.5c-2.3-3.9-3.6-8.3-5.7-12.3c-0.5-1-0.7-2-0.8-3.1c-0.4-2.5-1-4.9-1.3-7.4c-0.3-2.4-0.8-4.7-1-7.1   c-0.1-1-0.5-1.8-0.6-2.7c0.3-3.5,0.6-7,1-10.5C394.1,304,394.5,305.1,393.9,305.4z M410.2,378.4c1.2,0,1.3-0.5,1.5-1   c0.3-1,0.7-2.1,1-3.1c1.1-4.2,0.6-8.2-1.4-12c-0.8-1.5-1.5-3.1-2.1-4.7c-0.3-0.9-0.7-1.7-1.1-2.6c-0.2-0.4-0.5-0.6-1.2-0.3   c0.5,1.9,1.4,3.7,1.9,5.6c0.6,1.9,1,3.9,1.5,5.9c0.5,2.1,0.3,4.2,0.4,6.3C410.8,374.4,410.3,376.3,410.2,378.4z M414.1,487.5   c3.3,0,5.1-1.9,5.3-5.5c0.3-0.3,0.7-0.6,1.1-0.9c1-0.8,2.4-0.7,3.4-1.2c0.3-1-0.2-1.2-1-1.2c-2.5,0-4.4,1.5-5.3,4.2   C415.9,483.9,413.9,484.8,414.1,487.5z M408.5,391.8c2-2.5,2.6-5.6,3.2-8.6c0.2-0.7-0.2-1.2-1.3-1.5   C409.3,385,408.5,388.3,408.5,391.8z M418.9,456.3c-0.2,3.3,1,6.2,2.3,9c0.3,0.6,0.7,1.2,1.6,1.2c0.1-0.2,0.3-0.5,0.3-0.6   C421.6,462.7,420.8,459.3,418.9,456.3z M415.1,327.1c0.8-1.8,0.6-4.3-0.4-6.5c-1,1.7-0.5,3.5-0.6,5.3   C414.1,326.3,414.3,326.8,415.1,327.1z M416,317.1c0.8,0.2,1.1-0.2,1.2-0.7c0.2-1.8,0.5-3.6-0.2-5.7   C415.7,313.1,415.8,315.1,416,317.1z M405.5,402.2c1.8-1.4,2.3-3,2.7-4.7c0.1-0.5,0-0.9-0.6-1.1C406.4,398,406.1,399.8,405.5,402.2   z M419.7,308.7c1.4-1.7,1.1-3.5,0.6-5.4C419.5,305,419,306.7,419.7,308.7z M434.5,505c1.5-1.2,1.6-2.2,0.7-4   C433.9,503.1,433.8,503.7,434.5,505z M437,495c-1.2,2.8-1.2,3.3-0.5,4.3C437.9,497.9,438,496.8,437,495z M417.1,447.5   c-0.4,3.5-0.4,3.5,1.1,4.6C418.5,450.5,418.2,449.2,417.1,447.5z M396.5,299.8c0.3-1.4,0.5-2.6-0.5-3.8   C394.9,297.9,394.9,298.4,396.5,299.8z M396.7,288.7c0.1,1.5-0.9,3,0.7,4.4C397.8,290.3,397.7,289.9,396.7,288.7z M415.6,442.2   c-0.1,2.9,0,3.2,1.3,4.3C417.2,445,416.4,443.8,415.6,442.2z M405.4,404.1c-1.6,0.6-2,1.6-2.3,3.2   C404.4,406.4,405.2,405.7,405.4,404.1z M414.7,438.4c0.6-0.8,0.5-1.3,0.1-1.9c-0.7,0.1-0.6,0.4-0.7,0.7   C414,437.6,414,438,414.7,438.4z" />
	<path fill="#B7BDD5" d="M453.6,220c0.1,0.3,0.1,0.6,0.2,0.9c0.6,0.4,1.3,0.3,1.9,0.2c2.1-0.7,4.2-0.2,6.2-0.5   c5.4-0.7,10.9-0.3,16.4-0.5c1.7,0,3.3,0.7,5.1,0.5c1.6-0.1,3.2-0.1,4.8,0.3c1.6,0.4,3.4,0.3,5.1,0.5c4.5,0.3,8.9,1.3,13.4,1.1   s8.9,0,13.4,0c2.1-0.9,4.5,0,6.6-0.9c0.3-0.1,0.6,0,0.9,0c4.5-0.2,9-1.1,13.4-2.2c6.1-1.5,12.1-3.3,18-5.2c3.1-1,6.2-2.1,9.2-3.4   c1.5-0.7,3.1-1.2,4.8-1.5c1.9-0.3,3.8-1.2,5.5-2.3s3.5-2,4.8-3.6c0.8-0.2,1.5-0.3,2.2,0.1c0.9,0.4,0.2,1.5,0.9,2.1   c1.8-1.4,4.2-1.7,6.1-3.1c-0.4-0.4-1-0.1-1.4-0.3c3.6-1.1,7.1-2.3,10.3-4.3c5.1-3.1,9.9-6.6,13.9-11.3c3.4,1.1,6.9,1.5,10.5,2.4   c-1.8,0.2-3.7,0.4-5.5,0.6c-0.3,0.3,0.3,0.8-0.4,1.1c-3.3,1.8-6.3,4-9,6.7c-0.5,0.5-1.3,0.9-2,1.2c-3.6,1.7-6.9,4.1-9.9,6.6   c-2.7,2.2-5.4,4.6-7.8,7.2c-0.6,0.7-1.3,1-2.1,1.4c-4.8,2.3-9.7,4.2-14.4,6.8c-2.6,1.4-5.2,2.9-7.7,4.4c-1,0.6-1.9,1-2.9,1.4   c-0.9,0.4-2.2,0.2-2.6,1.6c-0.1,0.3-0.8,0.5-1.2,0.6c-4.9,1.2-9.6,3.2-14.6,4.1c-1.5,0.3-3,0.3-4.4,0.3c-4.5-0.2-9.1-0.5-13.6-0.8   c-1.5-0.1-3-0.1-4.5-0.1c-4.9-0.1-9.9-0.4-14.8-0.8c-3.1-0.3-6.1,0.2-9.1,0.6c-6.2,0.7-12.5,1.1-18.8,0.7c-2.6-0.2-5.3-0.7-7.8-1.6   c-1.8-0.7-3.6-0.9-5.5-0.8c-0.8,0-1.5-0.1-2.3-0.2c-2.3-0.3-4.5-0.4-6.8,0.1c-2.3,0.4-4.7,0.2-7.3,0.2   C452.1,226.7,452.5,223.3,453.6,220z" />
	<path fill="#EFCBBB" d="M571.9,188.2c0.2,0,0.6,0,0.7-0.1c0.8-1.7,2.3-1.9,3.9-1.8c4,0.3,7.8-0.4,11.6-1.8c4.1-1.6,8.5-2.7,12.5-5   c0.1-0.5,0.1-1,0.2-1.5c0.3-0.1,0.5-0.2,0.7-0.2c1.8,0.8,3.5,0.1,5.1-0.2c1.9-0.4,3.7-0.5,5.5,0.1c2.3,0.7,4.7,0.5,7,0   c3.4-0.7,6.7-1.3,10-2.2c2.8-0.8,5.6-1.5,8.4-2.1c1.7-0.3,3.3,0,4.8-0.3c1.5,1.2,1.5,1.2,1.5,3.1c-0.7,0.9-1.5,1.4-2.5,1.9   c-2.6,1.2-5.1,2.4-7.8,3.4c-0.3,0.1-0.8,0.2-0.8,0.9c1.7,0.2,3.3,0.5,4.9,0.7c2.5,0.3,5,0.6,7.4,1.4c0.4,0.1,0.7,0.2,1,0.5   c0.9,1,2.1,1.2,3.3,1.4c2.7,0.6,5.4,1.1,7.9,2.4c0.7,0.4,1.4,0.7,1.9,1.3c0.7,0.8,1.7,1,2.7,1.1c2.4,0.3,4.8,0.8,7.2,1.3   c0.5,0.1,1.1,0.1,1.6,0.1c1.9,0,3.8-0.2,5.6,0c3.7,0.5,7.4,0.1,11.1,0.9c0.5,0.1,1.2,0.2,1.6,0c2.7-1.1,5.3-0.2,7.6,0.8   c3.2,1.5,6.4,1.8,9.7,1.5c1.4-0.1,2.8-0.7,4.3-0.5c0.9-0.4,0.2-1.5,1-1.8c-0.1,1-0.1,2-0.4,3c-0.1,0.4,0.1,0.7,0.7,0.7   c0.5-0.9,1-1.8,1.5-2.8s0.8-2,1.5-2.8c0,0.4,0,0.8,0,1.4c2.2-1.1,4.1-0.2,6,0.5c0.6,0.2,1.1,0.5,1.6,0.8c1.1,0.9,1.1,2,0,3   c-0.5,0.5-1.2,0.8-1.9,0.9c-0.4,0.1-0.7,0.2-1,0.8c1.4,0.3,2.8,0.7,4.1,0.8c3.1,0.4,6,1.7,8.9,2.8c2.2,0.9,4.5,0.9,6.8,1.2   c0.8,0.1,1.7,0.1,2.6,0c5-0.3,10,0.5,14.9,0.6c1.9,0,3.6,0.2,5.3-0.5c0.5-0.2,1.1,0,1.6,0c2.5,0,5,0.2,7.5,0   c4.9-0.5,9.9,0,14.7-0.5c4.9-0.5,9.8-0.4,14.7-0.3c3.6,0.1,7.1,0.3,10.7,0.4c2.3,1.2,4.6-0.2,6.8,0c-0.5,0.9-1.6,0.2-2.3,0.8   c1.1,0.2,2.1,0.4,3.2,0.6c0,0.2,0,0.3,0,0.5c-3.5,1.3-7.1,1.1-10.6,0.6c-7.3-0.9-14.7-1-22-0.3c-3.9,0.3-7.8,0.8-11.7,1.1   c-2.4,0.2-4.8,0.4-7.2,0.9c-0.7,0.1-1.4,0.1-2.1,0.1c-0.5,0-1-0.1-1.4,0.1c-2.4,1.2-4.9,0.7-7.4,0.9c-4.5,0.3-8.9,0.2-13.4,0   c-3.7-0.2-7.2-1.1-10.9-1.7c-4.4-0.7-8.7-1.8-13.2-2.1c-0.6,0-1.1-0.2-1.6-0.5c-1.1-0.6-2.3-0.8-3.4-0.7c-2.6,0.4-5.1-0.3-7.7-0.5   c-1-0.1-2-0.2-3,0.2c-2.3-1.4-5-1.5-7.4-2.2c-2.1-0.6-4.3-1-6.4-1.4c-1.5-0.3-1.7-0.2-2.9,0.7c-6.2-0.4-12.3-0.6-18.4,0.1   c-0.7,0.1-1.4,0.1-2.1,0.1c-5.7-0.4-11.3-0.9-16.9-2.3c-2.1-0.5-4.1-1.3-6.1-2.2c-4.6-2-9.4-3.6-14.3-4.9c-1.1-0.3-2-1-3.3-1.7   c1.8-0.9,3.6,1.1,5.2-0.3c0-0.7-0.4-0.8-0.9-0.9c-3.1-0.7-6.2-0.9-9.3-1.3c-0.9-0.1-1.6-0.3-2.4-0.7c-3.1-1.6-6.4-2.9-9.9-3.9   c-0.6,0.7-1.2,1.3-2.2,1.2c-3.2-0.3-6.1,1-9.1,1.8c-3.9,1-7.7,2.7-11.6,3.5c-1.8,0.4-3.5,0.8-5.2,1.2c-0.7,0.2-1.5-0.5-1.9,0.5   l-0.2,0.1h-0.2c-1.4,0-2.8,0-4,0c-0.4-0.4-0.7-0.7-1-0.9c-0.3-0.3-0.5-0.6-1-0.5C572.3,188.9,571.9,188.6,571.9,188.2z    M601.3,178.3c2.1,3.1,2.7,3.5,4.6,3C604.7,179.6,603,179,601.3,178.3z" />
	<path fill="#FBE0D4" d="M656.7,140.1c1.7,0.9,3.3,0.6,4.8-0.4c0.5,0.9-0.2,1.4-0.3,2c-0.9,0.5-2.2-0.1-2.6,0.9   c-0.4,1.1,0.4,1.6,0.4,2.2c-0.4,1.3-0.6,2.6-1.8,3.2c-0.9-0.1-1.4-1.4-2.5-0.7c-0.1,1,0.7,1.2,1.3,1.5c1.4,0.6,2.6,1.4,3.2,3   c0.1-2.1,2.5-2.8,2.5-4.7c0-1.3-1.2-1.6-1.6-2.5c-0.1-0.5,0.1-0.7,0.4-1c0.4,0.1,0.8,0.2,1.1,0.3c1.7-0.9,2.1-6.4,0.8-9.8   c0.5-0.4,0.9-0.1,1.1,0.3c0.8,1.4,1.5,2.9,1.3,4.4c-0.2,2.5,1.1,4.1,2.8,5.6c2-0.3,2.6-1.9,3.3-3.5c1.1,0.4,2,0.1,3-0.3   c2.4-1,4.8-2.2,7.1-3.6c2-1.3,3.9-2.6,5.9-3.8c0.9-0.6,1.6-1.3,1.3-2.4c0.2-0.2,0.3-0.3,0.4-0.4c2-1.5,4.2-1.7,6.7-1.2   c1.4,0.3,3,0,4.3,0c2.3,2.1,4.4,3.9,7.3,4.8c-0.6,2.4,1.6,2.4,2.8,3.4c-0.5,2.9-1.3,5.8-2.8,8.3c-1.1,2-2,4-2.2,6.3   c-0.2,1.9-1.4,3.4-1.7,5.3c-0.1,0.7-0.8,1.3-1.6,1.7c-0.6,0.2-1.1,0.5-1.8,0.7c-0.5,1.4-1,2.8-1.5,4.3c-2-0.3-3.8-0.8-5.7-1.4   c-0.6-2,1.4-2.4,1.9-3.5c0.9-0.4,1.3,0.3,2,0.3c0.5,0,1.1,0.2,1.6-0.3c0-1.5-1.5-0.7-2-1.3c-0.4-0.4,0-1-0.5-1.4   c-0.8-0.2-1,0.7-1.6,0.9c-1.7-0.7-3.6-1.6-5.9-1.3c0.9,2,2.8,1.1,3.8,2.1c0,1.1-1.3,0.6-1.7,1.1c-0.2,1.2,1.1,1.7,0.9,2.8   c-1.2,0.4-2.2-0.3-3.3-0.6c-1.4-0.4-2.7-1.2-4.2-0.7c-0.5,0.2-1.1-0.2-1.6-0.3c-6.1-1.2-12.1-2.7-18.3-2.5   c-0.2-0.2-0.4-0.5-0.7-0.6c-3.5-1.6-5.6-4.9-8.5-7.1c-0.3-0.2-0.5-0.6-0.6-1c-0.7-2.1-1.3-4.2-1.2-6.4c0.1-1.1,0.4-1.8,1.5-2.1   c0.9,1.7-0.3,3.2-0.9,4.5c0.7,0.7,1.1,0.5,1.5,0.2c0.6-0.5,1-1,1-1.8c0-0.6,0-1.2-0.2-1.8c-0.2-0.5-0.2-0.9,0.3-1.3   C656.1,140.4,656.4,140.2,656.7,140.1z M688.6,150.6c1.7,2.2,4.4,2,6.2,3.5c1.9,1.5,3.9,2.8,6,4c0.6,0,1.1-0.1,1.5-0.9   c-0.5-0.6,0-1.6-0.7-2.4c-0.5-0.5-1.2-0.2-1.9-0.7c-0.8-1.5-2.2-2.6-4-3c-1.1-0.2-2.1-0.6-3.1-0.9   C691.3,149.8,690,149.4,688.6,150.6z" />
	<path fill="#EFCBBB" d="M26.4,190.5c0.7,1.1,1.3,0.1,1.7-0.2c2-1.2,4-2.6,6-4c2.4-1.7,4.9-3.3,7.2-5.1c2.7-2.1,6-3,9.2-3.9   c4.5-1.3,9.1-2.5,13.7-3.7c0.5-0.1,1.1-0.3,1.5-0.6c3.9-2.8,8.6-3.6,13.1-4.6c2.5-0.5,5-0.9,7.4-1.3c1.7-0.3,3.5-0.4,5.3-0.7   c5.3-0.8,10.6-0.4,15.9-0.3c2.8,0.1,5.7,0,8.5,0.8c0.2,0,0.3,0,0.5,0c2.6-0.3,5.1,0.5,7.7,0.5c2.1,0,4.2,0.7,6.3,1   c1.8,0.3,3.7,0.4,5.5,0.8c2.1,0.4,4.3,0.1,6.4,0.9c0.1,0,0.3,0,0.5,0c3.1-0.3,6.1,0.6,9.1,0.5c3.4-0.2,6.9,0.2,10.2,0.6   c6.9,0.7,13.8,1.8,20.4,4.2c0.4,0.1,0.7,0.4,1.1,0.4c3.5,0.1,7,1,10.5,0.4c2.3-0.4,4.7,0,6.9-0.5c2-0.5,4.1,0.2,5.9-0.8   c0.4-0.2,0.9-0.1,1.4,0c2.4,0.1,4.8-0.1,7-1c2.1,1.7,2,2.7-0.2,4c-0.8,0.5-1.8,0.6-2.4,1.5c1.4,0.9,2.7,1.8,3.8,3   c1,0.3,1.9,0.2,2.7-0.3c0.1,1-0.5,2.3,1.1,2.9c0.5-1.6,0.4-3.1,0.3-4.7c-0.4,0.2-0.6,0.4-0.9,0.5c0.5-2.3,0.6-2.4,2.3-2.2   c-0.5,1.5-1.3,3-0.8,4.8c2.2,1.8,4.7,2.4,7.6,1.8c0.4-0.5,0.1-1.2,0.2-1.8c0.7,2,0.5,4.2,1.9,6.1c-0.5,0.1-0.7,0.1-1,0.1   c-1.6-0.2-3.1-0.6-4.7-0.4c-2,0.2-3.7-0.4-5.3-1.5c-3.8-2.4-7.6-4.7-11.3-7.1c-0.6-0.4-1.3-0.6-2-0.7c-5.8-0.5-11.6-1.3-17.4-2.1   c-4.6-0.6-9.4-0.8-14.1-0.7c-2.2,0.1-4.4,0-6.6,0.1c-4.9,0.2-9.7-0.7-14.4-1.6c-4.9-1-9.9-1.5-14.8-2.2c-5.6-0.9-11.3-1.8-16.9-2.6   c-3.6-0.5-7.2-1.2-10.9-1.2c-3.4,0-6.9-0.7-10.3-0.8c-5.1-0.2-10.2-0.4-15.2,0.5c-2.2,0.4-4.5,0.8-6.7,1.2   c-1.9,0.4-3.7,0.8-5.1,2.5c-0.8,0.9-2.3,1.3-3.5,1.7c-5.3,1.8-10.7,3.5-16.1,4.8c-3,0.7-5.7,1.9-8.1,4c-2,1.7-4.4,2.9-6.9,3.9   c-6.1,2.6-12,5.7-17,10.2c-0.9,0.8-1.9,1.3-3.1,1.6c1.5-1.9,2.3-4.1,4-5.9c0.2-0.2,0.2-0.6,0.2-0.9c0.5,0.2,0.9-0.1,1.2-0.4   C25.3,191.7,25.9,191.1,26.4,190.5z" />
	<path fill="#EFCBBB" d="M256.7,190.1c0.2,0,0.6-0.1,0.7,0c0.9,1.3,2.3,1.4,3.7,1.9c2.8,0.9,5.4,2,8.5,1.9c1.6,0,3.2,0.7,4.8,1.2   c3.7,1.1,7.5,2,11.2,3.4c0.2,0.1,0.4,0,0.9-0.1c0-2.4,0-4.8,0-7.2c0-3.3,0.6-6.6,0.5-10c0-1.4,0.5-2.9,0.4-4.3   c0-0.1,0.3-0.3,0.5-0.4c0.5,4.1,0.3,8.3,0.8,12.4c0.4,3.9,1,7.7,1.7,11.6c0.3,1.7,0.6,3.3,0.6,5.2c-1.5,0.4-2.9,0.2-4.3-0.1   c-8-1.7-16-3.5-23.9-5.7c-1.3-0.4-2.8-0.3-3.8-0.9c-2.1-1.1-4.4-1.9-6.4-3.3c-2.2-1.5-4.5-2.9-6.7-4.3c-0.7-0.4-1.3-0.8-2.1-1   c-0.5,0.2-0.7,0.5-0.8,1c-3.7-0.6-7.3-1.5-11.1-1.3c-0.8-0.6,0.1-1.5-0.4-2.3c-0.4-0.6-0.7-1.5-0.7-2.4c2.2,0.5,4.4,0.5,6.7,0.5   c0.4,0,0.8,0,1.2,0c-0.3-1-1.2-1.3-1.7-2.2c0-0.6,0-1.4,0-2.3c1.1-1.1,2.5-0.9,3.8-0.4c2.2,0.9,4.2,2.3,6.1,3.7   c0.7,0.5,1.4,1,2.2,1.6c0-0.4,0.1-0.6,0.1-0.9c1.4,2.8,3.9,4.5,6.4,6.1c0.7,0.5,1.5,0.9,2,0.1C257.7,190.6,256.9,190.6,256.7,190.1   z" />
	<path fill="#EECABA" d="M575.5,191.6c1.7,0,3.3-0.2,4.9-0.1c2.9,0.2,5.8-0.3,8.6-1.1c2.3-0.7,4.6-1.5,6.9-2.3   c0.9-0.3,1.7-0.7,1.9-1.7c1.3-0.4,2.4-0.7,3.5-1c1-0.2,1.9-0.4,3-0.2c1.9,0.3,3.7-0.4,5.4-1.3c1.3,0.7,2.6,1.4,3.9,2.1   c-6,5.7-12.6,10.2-20.2,13.1c-2.5,1-5,0.8-7.4-0.6c-1.2-0.7-2.5-1.3-3.8-1.8c-2.3-1-4.4-2.3-6.4-3.9   C575.8,192.6,575.6,192.3,575.5,191.6z" />
	<path fill="#B7BDD5" d="M443.7,230.9c0-0.2-0.1-0.5-0.1-0.8c-1.9,0-3.9,0-6.1,0c-1.1,1.1-2.6,1.5-4.4,1.3c-1.4-0.1-2.3-0.7-2.8-2   c-0.5-1.4-1.1-2.9-1.4-4.3c-0.5-2.3,1.3-4.6,3.5-4.9c0.6-0.1,1.3-0.2,1.9,0c1.9,0.9,4.1,0.6,6.1,1.3c0.2,0.1,0.5,0.2,0.7,0.1   c1.7-0.8,3.5-0.3,5.3-0.4c1.7-0.1,3.4,0,5,0c1-0.3,0-1.7,1.1-1.9c-0.4,3.7-1.6,7.2-2.5,10.9C447.6,229.9,445.8,231.2,443.7,230.9z" />
	<path fill="#FBDFD3" d="M816.9,175.1c3.6,1.1,7.2,1.6,11.3,1.2c-2.5,2-4.7,3.7-7,4.7c-5.8-0.8-11.5-0.8-17-1.1   c-0.3-0.8,0.1-1,0.4-1.4c0.8-1.1,1.7-2.1,2.3-3.3c1.3-2.5,3.5-3.7,6-4.5c3-0.9,5.6-2.1,7.3-4.9c0.9-1.6,2.7-2.6,3.3-4.6   c1.2,0.9,1.5,2.1,1.3,3c-0.4,1.8-0.7,3.7-2.3,5c-1.5,1.2-3,2.5-4.4,3.8C817.4,173.5,816.7,174.1,816.9,175.1z" />
	<path fill="#EECABA" d="M819.6,205.1c0-0.2,0-0.3,0-0.5c1.1-0.5,2.6-0.1,3.4-1.5c-0.2-0.3-0.4-0.5-0.6-0.8c0.7-1.1,1.8-0.5,2.6-0.4   c0.3,0,0.7,0.3,1.1,0.3c-0.2,0.6-0.4,1.2,0.6,1.3c0.8-0.2,1.1-1,1.8-1.3c2,1,4.1,1.9,6.2,1.7c2.2-0.2,4.5-0.7,6.5-1.9   c1.9-1.1,3.9-1.7,6.1-1.8c2.1-0.1,4.2-0.8,6.3-1c0.9-0.1,1.8-0.3,2.7-0.3c2.5,0,5-0.9,7.6-0.4c-2.6,1.1-4.7,3-7.2,4.2   c-2.5,2-5.5,1.9-8.4,2.3c-3.6,0.5-7.3,0.6-10.9,1.4c-1.2,0.3-2.5,0.2-3.7-0.2c-2.4-0.6-4.9-1.1-7.2-1.8c-1-0.3-1.8-0.2-2.7,0   C822.5,204.9,821.1,205.1,819.6,205.1z" />
	<path fill="#ECC9B9" d="M434.4,506.5c1.2,0.4,2.4,0.8,3.6,1.4c2.1,1,4.3,1.3,6.5,1.9c3.4,0.9,6.7,2,9.4,4.4c0.5,0.4,1.3,0,1.6,0.8   c-3.3,0-6.6-0.3-9.6-1.9c-0.7-0.3-1.4-0.6-2.1-0.9c-0.3-0.6-0.7-1.2-1.5-1.4c-0.7-0.4-1.5-0.8-2.3-1.1c-2.1-0.7-4.1-1.5-5.8-3.1   L434.4,506.5z" />
	<path fill="#403834" d="M878.6,182.1c-2.3,0.8-4.7,1.1-7.1,1.2c-2.9,0.2-5.7,0.4-8.6,1c-0.8,0.2-1.7,0.4-2.5,0   c0-0.8,0.6-0.8,1.1-0.9c3.4-0.7,6.7-1.5,10.1-2c2.6-0.3,5.2-1,7.9-0.8c-0.1,0.6-0.8,0.4-1.1,0.8   C878.1,181.8,878.2,181.9,878.6,182.1z" />
	<path fill="#AEB2C4" d="M623.7,139.1c0-0.2,0-0.3,0-0.4c0.8-0.5,0.5-1.3,0.5-1.9c0-1.5-0.1-2.9-0.4-4.5c1.3-0.2,2.4-0.2,3.5,0.4   c0.1,0.6-0.7,0.8-0.8,1.3c-0.2,0.5,0.2,0.8,0.3,1.1c-0.3,0.3-0.5,0.7-0.9,1.2c0.9,0.8,1.2,1.9,1.3,3.1   C626,140,624.8,139.3,623.7,139.1z" />
	<path fill="#37312F" d="M427.7,345.5c-2.9-3.3-3.4-7.4-4.2-11.4c-0.1-0.4,0.1-0.8,0.8-0.9c1.1,3.2,1.4,6.7,3.2,9.8   c0.3-0.6,0.3-1.1,0-1.7c-0.3-0.8-0.4-1.6,0.2-2.4c0,0.5-0.1,1,0.1,1.4C428.6,342,428.2,343.7,427.7,345.5z" />
	<path fill="#E7CEC2" d="M651.3,142.6c0.4,1.8,0.4,3.6,1.2,5.7c-2-0.9-3.3-2.1-4.8-2.9c-0.1-0.9,0.4-1.4,0.7-2   C649.4,143.1,650.4,142.9,651.3,142.6z" />
	<path fill="#E7CDC2" d="M656.7,140.1c-0.3,0.2-0.7,0.3-1,0.5c-0.1-0.9,0.5-1.6,0.6-2.5c0.6,0.1,0.9-0.3,1.3-0.8   c0.9-1.2,1.9-2.3,3.7-1.8c0.7,0.7,0.6,1.6,0.5,2.5c-1.4,1.2-3.1,1-4.8,0.7C656.5,139.1,656.8,139.6,656.7,140.1z" />
	<path fill="#3D3D3D" d="M683.8,112.8c-2.4,1.1-4.8,2.4-7.2,3.5c1-1.2,2-2.4,2.8-3.5C681,112.8,682.4,112.8,683.8,112.8z" />
	<path fill="#3E3633" d="M230.8,185.3c-0.1,0.9,0.3,1.8,0.7,2.4c0.5,0.8-0.4,1.6,0.4,2.3c-0.7,0-1.5,0.4-2-0.4c0.2,0,0.5-0.1,1-0.1   c-1.4-1.8-1.2-4.1-1.9-6.1c0.2-0.5-0.8-1.1,0.2-1.6C230.1,182.8,229.9,184.3,230.8,185.3z" />
	<path fill="#988780" d="M656.4,135.8c0.8-1.5,2.2-2.1,3.6-2.7c0.3-0.2,0.8-0.1,1,0.6C659.6,134.8,657.9,135.1,656.4,135.8z" />
	<path fill="#B0ADAE" d="M718.6,116.8c-2.5,0.6-4.2-0.3-5.8-0.9C714.7,115.3,716.4,116.2,718.6,116.8z" />
	<path fill="#EECABA" d="M572.6,189.2c0.4-0.1,0.7,0.2,1,0.5s0.6,0.5,1,0.9c1.3,0,2.7,0,4,0c-0.5,0.5-1.1,0.3-1.7,0.3   c-0.7,0-1.3-0.1-1.9,0.4C573.9,190.9,573.1,190.2,572.6,189.2z" />
	<path fill="#9E9B9B" d="M629.4,137.7c0.8,0.1,1.1,0.8,1.5,1.3s1.1,0.5,1.6,0.9C630,140.3,629.6,140,629.4,137.7L629.4,137.7z" />
	<path fill="#565963" d="M576.5,197.2c-1.5-0.6-1.7-0.8-1.4-1.9c0.9,0.2,1.8,0.6,2.5,1.3l0,0C577.1,196.7,576.6,196.6,576.5,197.2z" />
	<path fill="#37312F" d="M427.8,349.2c0-1.3-0.1-2.5-0.1-3.8C428.4,346.8,428.4,347.6,427.8,349.2z" />
	<path fill="#988780" d="M655.8,136.2c-0.2,1-0.4,1.5-1.4,1.6C654.3,136.8,654.7,136.5,655.8,136.2z" />
	<path fill="#403834" d="M881.8,182c-0.9,0-1.9,0-2.8,0C880.1,181.4,880.7,181.3,881.8,182z" />
	<path fill="#EECABA" d="M578.9,190.5c0.5-1,1.3-0.3,1.9-0.5C580.3,190.6,579.6,190.6,578.9,190.5z" />
	<path fill="#B7BDD5" d="M454.1,217.7c-0.1,0.7,0.5,1.5-0.4,2C453.7,219,453.5,218.3,454.1,217.7z" />
	<path fill="#9E9B9B" d="M629.3,137.8c-0.4-0.1-0.5-0.4-0.3-0.7c0.1-0.2,0.3-0.2,0.6-0.1C629.5,137.2,629.4,137.5,629.3,137.8   L629.3,137.8z" />
	<path fill="#565963" d="M577.5,196.6c0.4,0,0.9-0.1,1.3,0.2C578.3,197.2,577.8,197.3,577.5,196.6L577.5,196.6z" />
	<path fill="#352E2B" d="M402.3,488.7c-0.1,1.7,0.1,3.4-0.5,5.1c-0.3,0.8-0.4,1.7-1,2.3c-1.1,0-1.2-0.7-1.1-1.6   c0.3-1.8,0.4-3.7,0.8-5.5c0.3-1.6,0.4-3.1-0.2-4.6c-0.5-1.3-0.5-2.7-0.5-4.3c1.5,0.6,1.7,1.7,1.6,2.8   C401.2,485,401.8,486.8,402.3,488.7z" />
	<path fill="#3B3431" d="M393.9,305.4c0.6-0.4,0.3-1.4,1.3-1.7c-0.3,3.6-0.6,7-1,10.5c-0.3,0.1-0.5,0.2-0.8,0.2   c-0.7,0-1.1-0.3-1.1-1.1C392.5,310.7,393.4,308.1,393.9,305.4z" />
	<path fill="#463B37" d="M394.4,344.9c-0.6-1.5-2-2.6-2.4-4.4c1.3-1.9-0.7-4.2,0.4-6.6c1.4,1.9,0.7,3.9,1.2,6.1   c0.7,1.3,2.5,2.6,1.6,4.8C394.8,344.9,394.6,344.9,394.4,344.9L394.4,344.9z" />
	<path fill="#302825" d="M434.3,506.7c1.6,1.6,3.7,2.4,5.8,3.1c0.8,0.3,1.5,0.7,2.3,1.1c-0.5,1-1.3,0.4-2,0.3   c-0.4-0.1-0.8-0.5-1.3-0.3c-1.5-0.7-3-1.5-4.4-2.5c-0.7-0.5-1.3-1-2-1.5C433.1,506.1,433.7,506.6,434.3,506.7z" />
	<path fill="#695953" d="M392.4,313.4c0,0.8,0.4,1.1,1.1,1.1c-0.3,0.2-0.5,0.3-0.9,0.6c-0.5,1.9-0.1,4.1-1.6,6.1   C390.2,319.2,390.6,317.1,392.4,313.4z" />
	<path fill="#60514B" d="M419.2,508.8c-1.9,0.7-3.8,1.7-6.5,1.2C415.1,508.6,417,508.2,419.2,508.8z" />
	<path fill="#685B55" d="M404.2,349.3c0,1.2,1.4,2.1,0.9,3.6c-0.8,0-1-0.8-1.4-1.3c0.1-1.1-1.1-2-0.8-3.1   C403.8,348,403.6,349.2,404.2,349.3z" />
	<path fill="#463D39" d="M409.4,489.6c0.3,1.5-1,1.8-1.9,2.4c-0.2-0.2-0.3-0.3-0.6-0.5c0.3-0.9,0.9-1.6,1.6-2.1   C408.8,489.4,409.1,489.5,409.4,489.6z" />
	<path fill="#79675F" d="M415.5,505.6c0.6-1.6,0.6-1.6,2.9-1.2C417.8,506.1,416.5,505.4,415.5,505.6L415.5,505.6z" />
	<path fill="#362F2C" d="M421.1,500.6c0,0.1,0,0.2,0,0.3c-0.7,0.6-0.8,1.9-2,2c-0.8-0.4-0.3-0.9-0.2-1.4c0.6-0.1,0.3-0.9,0.8-1   C420.2,500.5,420.6,500.5,421.1,500.6z" />
	<path fill="#564944" d="M422.7,504.5c0.7-0.5,1.2-0.5,1.8,0.1C423.4,505.3,423.4,505.3,422.7,504.5z" />
	<path fill="#78665F" d="M415.5,505.6c0.2,0.3,0.3,0.7,0.4,1c-0.3,0.6-0.7,0.6-1.3,0.3C414.4,506.2,414.5,505.6,415.5,505.6   L415.5,505.6z" />
	<path fill="#7D6A62" d="M428.9,505.6c-0.9,0.7-1.5,0.6-2.2-0.1C427.4,504.9,428,505,428.9,505.6z" />
	<path fill="#040405" d="M383.7,373.2c-0.3-0.6-0.4-1.2,0.1-1.8C384.4,372.5,384.4,372.5,383.7,373.2z" />
	<path fill="#EECABA" d="M860.7,194.2c-0.8-0.4-1.6-0.5-2.5-0.4c-1.1,0.1-2.2-0.1-3-1c-0.3-0.6-0.4-1.3,0.1-1.9   c0.6-0.7,1.4-1.3,2.4-1.3c4.3-0.1,8.3-1.4,12.3-2.4c1-0.3,2-0.9,3-1.2c1.5-0.4,2.9-0.9,4.4-1.1c2.3-0.3,4.4,0.3,6.4,1.5   c-1.9,1.3-4.1,1.3-6.2,1.6c-3.9,0.5-7.7,1.1-11.3,2.6c-1.6,0.7-3.3,0.6-4.9,1.3l0,0C861.1,192.6,860.6,193.3,860.7,194.2z" />
	<path fill="#040405" d="M873.8,189.2c-0.6,0.5-1.1,0.2-1.6,0.2C872.6,189,873.2,189.1,873.8,189.2z" />
	<path fill="#040405" d="M861.5,191.9c0.4,0.1,0.9-0.1,1.4,0.3C862.3,192.4,861.8,192.6,861.5,191.9L861.5,191.9z" />
	<path fill="#10101E" d="M382.5,253.4c-0.5,0.3-0.8,0.3-1.3,0.1c0.5-3.4,0.1-7,1.1-10.4C382.7,246.5,382.6,249.9,382.5,253.4z" />
	<path fill="#2D3C73" d="M381.8,264.1c-1,2.7,0.6,5.1,0.6,7.9c-1.7-1.5-1.5-3.4-1.8-5.1C380.5,265.8,380.5,264.7,381.8,264.1z" />
	<path fill="#19203B" d="M374.9,228.9c-2-1.3-2.9-3.3-4.2-5.4c1.7,0.2,2,1.6,2.7,2.4C374.2,226.8,374.5,227.9,374.9,228.9z" />
	<path fill="#263362" d="M392,222.5c-0.3,0.1-0.5,0.2-0.5,0.5c-1.9-0.7-3.4-2-5.1-3.1C387.4,219.9,389.4,220.8,392,222.5z" />
	<path fill="#191A1D" d="M531.4,177.5c-1.9,0.9-3.7,0.8-5.5,0.8c-3.5,0.1-7.1,0-10.6,0c-8.1,0-16.3-0.1-24.4-0.1   c-3.9,0-7.8-0.2-11.7-0.9c-1.2-0.2-2.5,0-3.7-0.2c18.4-0.9,36.7,0,55.1-0.2C530.7,176.9,530.9,177.2,531.4,177.5z" />
	<path fill="#B7BDD5" d="M487.7,193.8c1.6,0.8,1.5,2.5,1.7,4c0.3,2.6,0.8,5.3,1.3,7.9c0.4,2.2,0.6,4.5,1.1,6.8   c0.4,1.7,0.5,3.3,0.4,4.9c-0.5,0.5-1,0.2-1.4,0.3c-1.2-1.6-1.6-3.4-1.8-5.4c-0.2-2.1-0.7-4.1-1.1-6.1c-0.3-1.5-0.3-3-0.7-4.5   c-0.5-1.9-0.5-3.9-1-5.9c-0.1-0.5-0.2-1.1,0.1-1.6C486.6,194,486.9,193.7,487.7,193.8z" />
	<path fill="#1E1F22" d="M429.2,172.3c0.9-1,2.1-0.7,3.1-0.5c5.3,0.8,10.7,1.4,16.1,1.9c5.9,0.5,11.9,0.7,17.8,0.8   c0.7,0,1.6-0.3,2,0.7C462.5,176.6,432.7,173.9,429.2,172.3z" />
	<path fill="#B7BDD5" d="M475.8,210.9c-0.2-3.2,0-6.2,0.8-9.1c0.2-0.9,0-1.9,0-2.8c0.3-0.6,0.8-1,1.3-1.4c0.8,0.1,1.1,0.7,1.5,1.3   c0.1,2.4-0.3,4.7-0.8,7.1c-0.2,0.9-0.1,1.9-0.1,2.8c0,1.3-0.3,2.4-1.1,3.4C476.6,212.1,476.3,211.4,475.8,210.9z" />
	<path fill="#222226" d="M503.1,217.9c-1.1-1-1-2.4-1.4-3.6c-3-8.6-4.7-17.5-4.3-26.7c0-0.9,0.1-1.7,0.2-2.6   c0.1-0.3,0.3-0.7,0.5-1.1c-0.6,6.8,0.6,13.3,2.1,19.7c0.3,2.5,0.7,4.9,1.8,7.1l0,0c0,0.7,0.1,1.3,0.3,2c0.4,1.1,0.7,2.3,1,3.5   C503.6,216.9,503.9,217.5,503.1,217.9z" />
	<path fill="#6A6D79" d="M468.3,177.6c-3.1,6.8-2.3,14.1-2.5,21.3c-0.5-0.1-0.8-0.4-0.8-0.8c-0.3-3-0.6-6-0.2-9   c0.4-3.1,0.8-6.1,1.6-9.2c0.2-0.6,0.3-1.2,0.6-1.8C467.2,177.7,467.4,177.2,468.3,177.6z" />
	<path fill="#A7ACC0" d="M503.1,217.9c0.8-0.4,0.5-1,0.4-1.6c-0.3-1.2-0.6-2.4-1-3.5c-0.2-0.7-0.4-1.3-0.3-2   c0.7,0.1,1.1,0.7,1.3,1.2c0.9,2,1.6,4,2.5,5.9c0.6,1.5,0.5,2.8-0.4,4.3C504.1,221,503.6,219.4,503.1,217.9z" />
	<path fill="#2B2D31" d="M562.2,175.8c-2.5,1.4-14.3,2.6-16.9,1.9C548.8,176.7,560.3,175.3,562.2,175.8z" />
	<path fill="#2A2A2F" d="M568.1,131.2c1.2,0.1,1.4,0.6,1.5,1.2c0.4,2.5,1.2,5,0.3,7.9C568.6,137.1,568.3,134.2,568.1,131.2z" />
	<path fill="#7B7E8B" d="M572.1,128.5c2.1,3.1,5.7,4.4,8.1,7.2c-2.4-1.5-5.1-2.5-7.1-4.6C572.4,130.4,571.8,129.7,572.1,128.5z" />
	<path fill="#26272B" d="M618.9,130.9c-1.2,1.7-1.8,3.8-3.1,5.4c-0.7-0.3-0.9-0.8-0.8-1.3c0.6-1.7,1.4-3.3,2.7-4.5   c0.2-0.2,0.4-0.2,0.6-0.1C618.5,130.4,618.6,130.6,618.9,130.9z" />
	<path fill="#212226" d="M605.6,134c-0.7-1.4-0.7-2.5,0.2-3.7c1.1,0,1.5,0.7,1.5,1.7S607.1,133.9,605.6,134z" />
	<path fill="#A7ACC0" d="M502.1,210.8c-1.1-2.2-1.5-4.7-1.8-7.1C501.4,205.9,501.9,208.3,502.1,210.8z" />
	<path fill="#1C1917" d="M731.6,176.4c-0.5-0.2-0.5-0.9-1.1-1c-0.2,0.1-0.4,0.1-0.6,0.2c-2.1,1.3-4.6,2-6.5,3.7   c-1,0.9-2.4,1.1-3.8,1c-1-0.1-1.8-0.5-2.1-1.5c0.4-0.8,1.1-1,1.8-0.9c1.8,0.1,3.2-0.6,4.3-1.9c0.9-1.1,2-1.6,3.5-1.5   c1.4,0.1,2.8-0.3,4.2,0.3c0.5,0.2,0.9-0.3,1.3-0.3c1.2-0.2,2.5-0.4,3.7,0.7C734.5,175.2,733.2,176.7,731.6,176.4z" />
	<path fill="#292523" d="M624.1,164c-4,1-7.9,0.3-11.7-0.1c-0.7-0.1-1.6-0.1-1.9-1.1c0.2-0.8,0.8-0.7,1.3-0.6c2,0.2,4,0.4,6,0.7   c1.7,0.3,3.4,0.5,5.1,0.4C623.4,163.3,623.7,163.4,624.1,164z" />
	<path fill="#342E2C" d="M663.2,177.9c3.2-1.5,6.7-1.5,10.6-2.2c-1.7,1.9-3.7,2.2-5.4,2.9c-0.8,0.4-1.8,0.3-2.7,0.6   c-1,0.3-1.5-0.9-2.5-0.6C663.2,178.3,663.2,178.1,663.2,177.9z" />
	<path fill="#302B28" d="M733.4,189.3c-2.4,0.9-4.8,1-7.2,0.7c-0.5,0-1-0.2-1.3-0.5c-1-1-2.3-1.3-4-1.5c1.9-0.9,3.7-1.1,5-0.3   c1.7,1.1,3.6,0.9,5.4,1.3C731.9,189.1,732.6,188.9,733.4,189.3z" />
	<path fill="#2C2725" d="M715.1,191.4c-0.7,0.8-1,1.9-1.5,2.8c-0.5,1-1,1.9-1.5,2.8c-0.6,0-0.9-0.3-0.7-0.7c0.3-1,0.3-2,0.4-3   c0.5-0.8,0.9-1.6,1.4-2.4c0.3-0.6,0.8-1,1.3-0.9C715.4,190.3,715.1,190.9,715.1,191.4z" />
	<path fill="#37312E" d="M822.5,192.1c-1.1,1.3-3.5,1.6-7.8,1.1C815.8,192.3,819.9,191.7,822.5,192.1z" />
	<path fill="#332D2B" d="M824.8,185.2c0.5-1.5,2.8-3.6,4.4-4.4C828.9,183,826.8,185.1,824.8,185.2z" />
	<path fill="#2F2A27" d="M822.5,202.4c0.2,0.2,0.4,0.5,0.6,0.8c-0.8,1.4-2.3,1-3.4,1.5c-1-0.2-2.1-0.4-3.2-0.6   c0.7-0.6,1.8,0.2,2.3-0.8C820.1,203.3,821.2,202.5,822.5,202.4z" />
	<path fill="#433C39" d="M850.7,180.1c1.8-2.1,4.3-1.2,6.1-2.2c0.3-0.2,0.7,0.2,0.9,0.6c0,0.3-0.2,0.7-0.5,0.7   C855.1,179.2,853.1,180.6,850.7,180.1z" />
	<path fill="#352F2D" d="M630.5,163.2c-2.6,1.7-3.9,1.8-5.6,0.4C626.9,163.3,628.5,162.5,630.5,163.2z" />
	<path fill="#3E3734" d="M770.9,189.5c-2.1,0-4.1-0.4-6.1-1.1C766.3,187.2,767.9,187.5,770.9,189.5z" />
	<path fill="#302B29" d="M663.2,177.9c0,0.2,0,0.5,0,0.7c-1.8,0.7-3.3-0.4-5.2-0.6C659.9,177.4,661.6,176.8,663.2,177.9z" />
	<path fill="#403936" d="M675.7,174.5c1.5-1.2,1.7-1.2,3.4-1.2C678.4,175.4,677.5,175.8,675.7,174.5z" />
	<path fill="#292626" d="M828.6,202.2c-0.7,0.3-1,1.1-1.8,1.3c-0.9-0.1-0.8-0.7-0.6-1.3c1-0.6,1.9-1.6,3.1-1.9   C829.8,201.4,828.7,201.6,828.6,202.2z" />
	<path fill="#665B57" d="M598.9,177.4c-1.5-0.5-2-1.8-3-2.5C598.6,175.2,599.2,175.7,598.9,177.4z" />
	<path fill="#665B57" d="M759.8,188.7c-1.6,0.4-2.6,0.6-3.8,0.2C756.9,187.3,757.2,187.3,759.8,188.7z" />
	<path fill="#7A6C67" d="M854.3,187c1.1-1,2.2-0.9,3.7-0.4C856.8,188.5,855.4,186.9,854.3,187z" />
	<path fill="#635853" d="M602.7,143.7c0.9-0.7,1.7-1.7,3.2-0.8C605,144.5,603.8,143.6,602.7,143.7z" />
	<path fill="#5B514D" d="M846.9,180.6c1-0.9,1.9-1.4,3.2-0.8C849,181.2,849,181.2,846.9,180.6z" />
	<path fill="#91827B" d="M605,163.2c-1-0.6-2.2-0.4-3.1-1.5C605.1,161.8,605.1,161.8,605,163.2z" />
	<path fill="#5D534F" d="M747.3,176.7c-1.1,0.1-1.9,0.3-2.6-0.3C745.9,175.1,746.1,175.1,747.3,176.7z" />
	<path fill="#6C5F5A" d="M802,192.7c0.9-1.1,2-0.9,3.4-0.7C804.1,193.4,803,192.7,802,192.7z" />
	<path fill="#A8958D" d="M633.6,162.9c0.9-1.5,0.9-1.5,2.2-0.4C635.2,163.4,634.5,163.4,633.6,162.9z" />
	<path fill="#49413D" d="M846.3,181.4c-1.3,1-2.3,0.7-3.6,0.6C843.9,181.2,844.7,180.6,846.3,181.4z" />
	<path fill="#393534" d="M598.6,142.9c-1.2,1-1.2,1-2.2,0.2C597.5,142.4,597.5,142.4,598.6,142.9z" />
	<path fill="#3E3734" d="M750,188.7c-1,1.2-2,1-3.4,0.7C747.9,188.2,748.8,188.5,750,188.7z" />
	<path fill="#584E4B" d="M592.3,173c0.9,0.4,2,0.5,1.7,1.9C592.8,174.6,592.8,174.6,592.3,173z" />
	<path fill="#403935" d="M739,175.7c0.8-1.2,0.8-1.2,2.3-0.5C740.6,175.6,739.9,176.1,739,175.7z" />
	<path fill="#8F7E78" d="M642.7,161.1c-0.9,1-0.9,1-2,0.9C640.9,161,641.5,160.6,642.7,161.1z" />
	<path fill="#373434" d="M837.6,173.6c0.5-0.7,1-1.2,1.9-0.8C839.2,174,838.4,173.7,837.6,173.6z" />
	<path fill="#584E4A" d="M807.4,193.1c0.7-0.9,1.4-1,2.2-0.8C809.4,193.5,809.4,193.5,807.4,193.1z" />
	<path fill="#867771" d="M688,173.2c-0.9-0.6-1.6-0.4-2.1-1C686.9,171.5,686.9,171.5,688,173.2z" />
	<path fill="#3F3835" d="M741.5,189c-0.6,0.6-1.2,0.8-2,0.3C739.9,188,740.7,188.6,741.5,189z" />
	<path fill="#7E706B" d="M680.3,172.9c0.5-1,1.1-0.9,1.8-0.4C681.7,173.3,681.1,173.2,680.3,172.9z" />
	<path fill="#EECBBB" d="M58.4,152.4c1.3,0.8,2.8,0.5,4.2,0.2c1.7-0.4,3.3-0.5,4.9,0.3c0.3,0.2,0.7,0.4,0.7,0.8   c-0.1,0.7-0.8,0.9-1.1,1.4c-4.7,0.5-9.4,1-14,1.5c-0.3-0.3-0.7-0.5-0.9-0.8c-0.8-1.1-0.4-2.1,0.9-2c1.2,0,2.1-0.4,3-1   c0.1,0.6,0,1.3,0.8,1.3C57.8,153.8,57.7,152.7,58.4,152.4z" />
	<path fill="#24201E" d="M247.4,160.4c-3,2.1-6.4,2.4-9.8,2.4c-0.9,0-1.8,0-2.8,0.2c-3,0.8-6,0.8-9.1,0.7c-0.7,0-1.4,0-1.9-0.7   c0.4-0.8,1.2-0.6,1.8-0.6c2.7-0.1,5.5-0.1,8.2-0.2c1,0,2-0.3,2.9-0.8c2.1-1.2,4.5-1.2,6.8-1.6c1,0,2,0.1,3,0.1   C246.9,159.9,247.3,160,247.4,160.4z" />
	<path fill="#151210" d="M256.7,190.1c0.2,0.5,1,0.6,0.9,1.5c-0.5,0.9-1.3,0.4-2-0.1c-2.5-1.6-5-3.4-6.4-6.1   c-0.5-1.6-1.2-3.1-1.2-4.9c1.4,0.3,2.1,1.4,2.8,2.5c1,1.6,2,3.2,2.9,4.8C254.4,188.8,255.3,189.7,256.7,190.1z" />
	<path fill="#241F1D" d="M58.4,152.4c-0.7,0.4-0.6,1.4-1.5,1.8c-0.8-0.1-0.7-0.8-0.8-1.3c0.2-1.2,1.5-1.4,2-2.3   c0.5-0.5-0.5-0.9,0.2-1.4c1.9-1.2,3.9-2,6.3-1.1c2,0.7,4.1,1.1,6,1.9c0.2,0.1,0.4,0.2,0.4,0.7c-1.1,0.3-2.3,0.3-3.5,0   c-1.5-0.3-2.9-0.6-4.3-1c-1.3-0.4-2.4-0.4-3.7,0.4C59.2,150.9,58.8,151.6,58.4,152.4z" />
	<path fill="#322D2B" d="M185.4,172.2c0.8-0.8,1.7-0.8,2.5-1c1.6-0.3,3.2-0.7,4.7-1.2c0.9-0.3,1.8-0.6,2.5-1.5c0.9-1,2.4-1.5,3.7-2   c0.3,0.4,0.2,0.6,0,0.8c-3.4,2.8-6.9,5.3-11.5,5.6C186.7,172.9,186.7,173,185.4,172.2z" />
	<path fill="#4F4743" d="M84,150.4c2.9-0.2,5.8,0.6,8.8,0.2c2.8-0.4,5.6-1.1,8.8-0.6c-1.5,1.2-3.1,1.2-4.3,1.1   c-1.7-0.2-3.3,0-4.9,0.4c-1.4,0.3-2.7,0.6-4.1,0.3c-0.9-0.2-1.9-0.1-2.8,0c-1.1,0.1-2.2-0.1-3-0.9C82.7,150.1,83.4,150.6,84,150.4z   " />
	<path fill="#4C4340" d="M188.5,145.2c3,0.6,6,1.1,8.9,1.7c0.8,0.2,1.9,0.2,2.4,1.5c-2.5,0.2-4.6-1-6.9-1.3c-2.3-0.4-4.6-1-6.9-1.5   C186.8,144.8,187.7,145.5,188.5,145.2z" />
	<path fill="#97867F" d="M188.5,145.2c-0.7,0.3-1.7-0.4-2.3,0.5c-1.9-0.3-3.8-0.3-5.7-1.1c-1.1-0.4-2.1-0.9-3.4-0.8   c-0.3,0-0.6-0.2-0.7-0.5c2-0.5,3.7-0.6,5,0.2c1.9,1.2,3.9,1.3,6,1.3C187.9,144.8,188.3,144.8,188.5,145.2z" />
	<path fill="#7B6E68" d="M247.4,160.4c-0.1-0.5-0.5-0.5-0.9-0.5c-1,0-2,0-3-0.1c0.1-0.1,0.1-0.2,0.2-0.2c3.8,0.2,7.2-1.8,10.8-2.5   c0.2,0,0.5,0,1.2,0.1C252.8,159,250.1,159.7,247.4,160.4z" />
	<path fill="#4B4340" d="M208.9,170.4c-2.3,2.2-5,2.8-7.9,3.8c0.5-1.6,1.7-1.4,2.5-1.9s1.6-1.1,2.4-1.4   C206.7,170.5,207.5,169.6,208.9,170.4z" />
	<path fill="#574D49" d="M84,150.4c-0.5,0.2-1.3-0.3-1.5,0.6c-1.6,0.2-3.2,0.3-4.9,0.5c-1.2,0.1-2.3,0-3.4-0.7   c-0.3-0.2-0.7-0.4-0.6-0.9c0.2-0.3,0.5-0.3,0.8-0.2c2.6,1,5.3,1.1,8,0.3C83,149.9,83.6,149.9,84,150.4z" />
	<path fill="#544B47" d="M38,174.3c0,1.7-2.4,5.9-4.2,7.7c-0.5-0.2-0.5-0.6-0.3-1C34.4,178.5,36.5,176.7,38,174.3z" />
	<path fill="#887873" d="M21.3,188.3c0.1-2,1-3.2,3.1-4.6C24.1,185.4,23.6,186.1,21.3,188.3z" />
	<path fill="#322C29" d="M219.6,180.7c0.3-0.2,0.5-0.3,0.9-0.5c0.1,1.6,0.2,3.1-0.3,4.7c-1.7-0.6-1-1.9-1.1-2.9   C219.2,181.6,219.4,181.1,219.6,180.7z" />
	<path fill="#8E7E78" d="M26.4,190.5c-0.5,0.6-1.1,1.2-1.6,1.9c-0.3,0.4-0.7,0.6-1.2,0.4c0-0.3,0-0.6,0-1.1c1.6-0.4,1.8-2.5,3.4-3.2   C27.3,189.5,26.5,189.8,26.4,190.5z" />
	<path fill="#877872" d="M243.1,177.3c-1.5-0.8-3.3-0.7-4.7-2.1c1-0.3,1.8-0.4,2.5,0.1c1,0.7,2.2,1,3.3,1.5   C243.8,176.9,243.2,176.7,243.1,177.3z" />
	<path fill="#3D3735" d="M41.8,158.6c-1.3,1.1-2.8,1.8-4.5,2c-0.3,0-0.6-0.3-0.4-0.8C38.3,158.9,40.2,159.2,41.8,158.6z" />
	<path fill="#322C2A" d="M243.1,177.3c0.1-0.6,0.6-0.4,1-0.5c1.1,0.4,2.3,0.9,2.8,2c-0.3,0.7-0.8,0.6-1.2,0.4   C244.7,178.7,243.9,178,243.1,177.3z" />
	<path fill="#91817A" d="M264.8,154c1.4-1.1,2.9-0.7,4.4-0.8C268.2,154.5,266.4,154.9,264.8,154z" />
	<path fill="#887973" d="M203.9,162.2c0.2-2.1,1.8-2.5,3.3-3.6C206.6,160.6,205.6,161.5,203.9,162.2z" />
	<path fill="#998881" d="M256.6,157.6c0.8-2.3,2.8-1.6,4-2.3C259.8,156.6,258.4,157.2,256.6,157.6z" />
	<path fill="#3F3835" d="M44.9,157.3c1.4-1,1.4-1,3.5-0.5C47.1,158.3,46.6,158.4,44.9,157.3z" />
	<path fill="#9A8881" d="M214.1,164.9c1.5-0.2,2.7-2,4.5-0.6C217.2,165.7,215.6,164.7,214.1,164.9z" />
	<path fill="#4B433F" d="M39.7,170.5c0.8-1.1,1.9-1.2,3-1.5C41.7,171.2,41.1,171.5,39.7,170.5z" />
	<path fill="#685D58" d="M212.1,154.6c-1,1.5-1.9,2.4-3.6,3.1C209.2,155.8,210.4,155.2,212.1,154.6z" />
	<path fill="#A08E87" d="M273.3,153.1c0.6-0.9,1.3-0.9,1.9-0.7c0.4,0.1,0.8,0.4,0.7,1.1C275,153.8,274.2,154,273.3,153.1z" />
	<path fill="#403936" d="M228.6,172.2c1.4-0.6,2,0.2,2.6,1C230,174.2,230,174.2,228.6,172.2z" />
	<path fill="#554B48" d="M44.3,167.8c1-1.8,1.1-1.8,2.4-1.1C46.3,167.8,45.6,168.1,44.3,167.8z" />
	<path fill="#94837D" d="M200.4,165.4c0.2-1.2,0.9-1.8,2.2-2C202.2,164.6,201.5,165.2,200.4,165.4z" />
	<path fill="#635853" d="M235.6,173.5c-1.4,0.2-2-0.5-3.1-1.1C234.1,171.8,234.8,172.4,235.6,173.5z" />
	<path fill="#AD9991" d="M169.6,142.2c-0.1,0.4-0.1,0.5-0.2,0.6c-0.1,0.2-0.3,0.3-0.5,0.5c-0.6,0.1-1-0.3-1.6-0.6   C167.9,141.8,168.6,141.8,169.6,142.2z" />
	<path fill="#373637" d="M48,140.7c-1,0.4-1,0.4-2.1,0C46.8,139.8,46.8,139.8,48,140.7z" />
	<path fill="#A39189" d="M201.7,147.9c0.8-0.4,1.5-0.3,2.5,0.1C202.5,148.8,202.5,148.8,201.7,147.9z" />
	<path fill="#91817A" d="M162.2,142c-0.9,0.7-1.4,0.4-1.9-0.4C160.9,141.4,161.5,141.3,162.2,142z" />
	<path fill="#9D8B84" d="M156.6,141.9c-1,0.8-1.5,0.5-2-0.2C155.3,141.4,155.8,141.4,156.6,141.9z" />
	<path fill="#171412" d="M410.2,378.4c0-2.1,0.6-4,0.5-6.1s0.1-4.2-0.4-6.3c-0.5-2-0.9-3.9-1.5-5.9c-0.6-1.9-1.4-3.7-1.9-5.6   c0.7-0.3,1.1-0.1,1.2,0.3c0.4,0.8,0.8,1.7,1.1,2.6c0.6,1.6,1.3,3.1,2.1,4.7c1.9,3.8,2.5,7.9,1.4,12c-0.3,1.1-0.7,2.1-1,3.1   C411.6,377.9,411.4,378.5,410.2,378.4z" />
	<path fill="#1F1B19" d="M414.1,487.5c-0.3-2.7,1.8-3.5,3.5-4.5c0.9-2.7,2.8-4.2,5.3-4.2c0.7,0,1.2,0.2,1,1.2   c-1.1,0.5-2.4,0.4-3.4,1.2c-0.4,0.3-0.7,0.6-1.1,0.9C419.2,485.6,417.4,487.4,414.1,487.5z" />
	<path fill="#312C2A" d="M408.5,391.8c0-3.5,0.8-6.8,1.9-10.1c1.2,0.2,1.5,0.8,1.3,1.5C411.1,386.2,410.5,389.2,408.5,391.8z" />
	<path fill="#2B2624" d="M418.9,456.3c1.8,3,2.7,6.4,4.1,9.6c0.1,0.1-0.2,0.4-0.3,0.6c-0.9,0.1-1.3-0.6-1.6-1.2   C419.9,462.5,418.8,459.6,418.9,456.3z" />
	<path fill="#3E3734" d="M415.1,327.1c-0.8-0.2-1.1-0.7-1-1.3c0.1-1.7-0.4-3.5,0.6-5.3C415.7,322.7,415.9,325.2,415.1,327.1z" />
	<path fill="#4E4542" d="M416,317.1c-0.2-2-0.3-4,0.9-6.4c0.7,2.1,0.4,3.9,0.2,5.7C417.2,316.9,416.8,317.3,416,317.1z" />
	<path fill="#463E3B" d="M405.5,402.2c0.6-2.3,1-4.2,2-5.8c0.7,0.2,0.8,0.6,0.6,1.1C407.8,399.1,407.3,400.7,405.5,402.2z" />
	<path fill="#8E7E78" d="M419.7,308.7c-0.7-1.9-0.2-3.7,0.6-5.4C420.8,305.1,421.1,307,419.7,308.7z" />
	<path fill="#38322F" d="M434.5,505c-0.8-1.3-0.7-1.9,0.7-4C436.2,502.8,436,503.7,434.5,505z" />
	<path fill="#524946" d="M437,495c1.1,1.8,0.9,2.9-0.5,4.3C435.7,498.3,435.8,497.9,437,495z" />
	<path fill="#645954" d="M417.1,447.5c1.1,1.6,1.4,3,1.1,4.6C416.7,451,416.7,451,417.1,447.5z" />
	<path fill="#91807A" d="M396.5,299.8c-1.6-1.4-1.6-1.8-0.5-3.8C397,297.2,396.7,298.4,396.5,299.8z" />
	<path fill="#81736D" d="M396.7,288.7c1,1.2,1,1.6,0.7,4.4C395.8,291.7,396.8,290.2,396.7,288.7z" />
	<path fill="#5C524D" d="M415.6,442.2c0.9,1.6,1.7,2.7,1.3,4.3C415.5,445.4,415.4,445.2,415.6,442.2z" />
	<path fill="#897973" d="M405.4,404.1c-0.2,1.6-1.1,2.3-2.3,3.2C403.4,405.8,403.8,404.7,405.4,404.1z" />
	<path fill="#A39088" d="M414.7,438.4c-0.7-0.4-0.6-0.8-0.6-1.2c0-0.3,0-0.6,0.7-0.7C415.1,437,415.3,437.6,414.7,438.4z" />
	<path fill="#EFCBBB" d="M421.1,500.6c-0.5,0-0.9-0.1-1.4-0.1C420.4,499.8,420.7,499.8,421.1,500.6z" />
	<path fill="#352D2A" d="M601.3,178.3c1.7,0.8,3.4,1.3,4.6,3C604,181.8,603.4,181.3,601.3,178.3z" />
	<path fill="#13100E" d="M688.6,150.6c1.4-1.1,2.7-0.7,3.9-0.4c1,0.3,2,0.7,3.1,0.9c1.9,0.3,3.2,1.5,4,3c0.7,0.5,1.4,0.2,1.9,0.7   c0.7,0.8,0.2,1.8,0.7,2.4c-0.5,0.8-1,0.9-1.5,0.9c-2.1-1.2-4.1-2.5-6-4C693,152.6,690.3,152.7,688.6,150.6z" />
</g>
</svg>