<?xml version='1.0' encoding='utf-8'?>
<svg xmlns="http://www.w3.org/2000/svg" version="1.2" baseProfile="tiny" id="Layer_2_00000115502273283660841470000000385254715667069625_" x="0px" y="0px" viewBox="0 0 900 600" overflow="visible" xml:space="preserve">
<g id="b_00000160896807506254325580000007136181676403485575_">
	<g><path fill="#010100" d="M505.6,312.5c-1.5-22.4-6.7-44.7-8.8-67.1c4.9-23.1,6.1-46.5,10.1-69.9c1.2-15.9-3-39.1,17.5-44.1   c9.2-0.1,19.1-14.2,26.3-11.7c-0.4,0.4-0.8,0.8-1.3,1.3c4.3,18.9,18.2,37.6,39.6,36.3c-0.4-1.2-0.7-2.1-1-3.1   c0.1-0.5-0.1-1.2,0.7-1.4c0.8,1.9,1.7,3.4,1.7,5.6c3.2,0.5,7.1-1.1,9.7,0.7c-26,6.1-47.4-12.3-52.4-37.4c-2.2,0.7-3.8,1.8-4.9,3.6   c7.4,15.1,2.9,34.6-9.3,45.9c-2,63.5,26.4,39.8-8.6,118.6c31.8-1.3,65.6,10.9,96.2-1.2c-17.4-54.5-14.2-35.6-4.8-88.7   c3.6-4,8.9-5.8,12.4-10.2c0.6,5.2-6.1,7.7-9.5,10.5c-2.1,6.5-1.8,13.2-3.8,19.6c-1.1,8-6.2,15.1-4.3,23.5   c6.1,27.2,16.7,53.3,19.4,81.4c5.8,28.9,0,58.4,0.6,87.2c0.5,14.4-0.3,28.6,2.6,42.9c2.8,25.2-1.3,50.2-1,75.3   c1,0.3,1.9,0.5,3.1,0.8c2.3,2.7,2.2,6.1,2.6,9.9c6,6.8,10.8,16.8,19.3,20.9c3.2,1.3,7,2.3,7.4,6.4c9.7,18.6-33.4,16.3-41.4,8.7   c-3.8,2.5-23.4,1.4-19.5-5.9c3.9-5.6,2-12.2,2.2-18.4c0.2-4.4,2.9-8.5,2.2-13c1.9-1.8,1.9-1.8,5.4-1.4c-1.8-10.2-2.4-20.7-3.6-31   c-3.7-17.2-13.9-33.3-12.5-51.6c6-36.9-13.7-70.6-20.7-106.2c-0.1,0-0.3,0-0.4,0c0,0.4-0.1,0.8-0.1,1.2l0,0   c-9.4,65.4-42.1,124.7-43.6,191.1c1.5,1.1,3.1,0.4,3.5,2.8c1.9,8.9,7.7,16.1,11.4,24.4c5.7,8,10.4,9.5,6.3,20.6   c-12.8,3.7-26.4,4.4-39.4,1c-0.5-1.4-0.9-2.6-1.4-4.1c-13-1.8-6.4-6.2-5.3-15.4c1.6-6.1-3.9-15.4,3.4-18.6   c4.4-30.2-4.6-61.3-0.7-91.6c20.4-62.1,15.1-46.2,9.5-109.9c-0.9-1-1.6-1.9-2.3-2.7c0-0.3,0.1-0.6,0.1-0.9c1.3,0.4,1.3-1.1,2-1.4   c1.2,1.3,2,2.8,3.7,3.7c0.7-1.2,0.1-2-0.6-2.9c-4.2-5.3-2.2-12.3-6-18c0.9,0,1.5-0.1,1.9-0.1c4.2,5.3,0.9,15,7.2,18.6   c0-9.3-5.1-18.1-3.8-27.7c3.3,3.7,1.3,8.9,4.8,12.3c-0.5,0.5-0.9,1-1.4,1.5c0.3,6.7,5.3,15.3-2.4,19.6c1.3,37.7,12,58.9-6.8,95   c-9.7,32.1,0,65.3-1.5,97.9c1.4-2.9,1.5-5.7,2.5-8.1c0.8-0.5,1.7-1.1,2.5-1.7c2.4-0.1,4.5-1.9,7-1.5c0.4,0.6,0.8,1.1,1.4,1.9   c1.9-19.8,6.2-38.6,12.8-57.4c4.1-10,1.5-21.1,4.3-31.2c5.2-10.1,9.4-20.6,12.9-31.4c12.2-32.3,11.8-68.7,23.7-100.6   c0.3,0,0.7,0,1.3-0.1c-14.7,40.1,14.7,80,18.2,120c-7.4,26.1,5.9,50,10.7,75c1.1,8.4,2.3,16.9,3.7,25.3c2.2-0.1,4.2,0.6,6.3,0   c0.9-3.6,3.9-4.8,7.1-6c2.6-39.5,0.5-79-1.7-118.4c1.7-39.8,4.2-80.6-6.9-119.7c-31.5,12.3-65.6-1.9-97.9,0.8   c-0.9,3.9-1.6,7.6-1.6,11.3c2,2.6,3.7,4.9,5.7,7.4c-0.3,0.3-0.6,0.6-0.9,0.9c-3-3.2-11.9-11.3-9.9-15.6c-0.5-0.5-0.9-0.9-1.3-1.3   c0.6-0.6,1-0.9,1.5-1.3c0.7-14.9,2.2-29.5,5.5-44.1c2.7-13.1,0-26.8,3.7-39.8c3.7-10.6,4.2-21.9,5.1-33c0.5-4-1-9.3,3-11.8   c0.4,0.6,0.4,1.5,1,1.4c8.2-11.5,11.5-27,5.5-40.3c-6.6,5.1-14.8,5.7-21.5,9.9c-17,12.1-5.7,36.2-12.1,53.7   c-2.7,16.7-2.1,33.1-7.5,49.4c-2.6,24.7,10.9,48.9,6.8,73.3C506.1,312.4,505.9,312.5,505.6,312.5z M634.3,545.9   c-1.4,0.1-2.8-0.1-4.1,0.8c-2.5-0.3-4.2,1.8-6.2,2.8c-2.8-6.1,8.8-5.4,12.6-6.3c-0.6-3.2-1.2-6.3-1.7-9.2   c-13.3-7.6-7.9,15.6-19.4,11.9c-1.7-1.9-1.9-5.6-4-6.3c-4.1,11-0.8,22.6-5.5,33.3c4.6,1,9.7,3.1,14.2,1.9c2.4-0.9,4.5-0.5,6.7,0.7   c11.2,5.7,26.5,5.6,37.2-0.7c0-2,0.5-3.5-1.3-5c0.5-6.6-10-4.5-18.5-17.8c-0.2-2-2.4-2.1-3.4-3.8c-4.3,1.3-8.8,1.6-12,4.9   c-4.4-5.5,8-5.4,10.5-7.3c-0.2-0.3-0.4-0.6-0.7-0.9C637.3,545.2,635.7,545.6,634.3,545.9z M538.1,587.4c-0.1-1.9,2.1-1.9,2.6-3.3   c4-0.4,7.8,0,11.8,0.7c0.8-3.2,1.7-6.2-1.3-8.5c-7.8-9-13.6-20.8-17.1-32.1c-3.5-1.7-5.2-5.3-8-7.7c-2.2,0.5-4.4,1.1-6.3,2.2   c-0.5,5.6-2.2,12.9-5.8,17.2c-1.5,0.1-2.2-0.4-3.5-1.5c-1,9,1.2,18.3-2.7,27.2c1.9,0.1,3.7,1.3,5.3,0.5c0-1.2,0.2-1.8,0.6-3.2   c2.6,2.8,1.1,6.5,3.2,9.2c11.3,1.6,24.7,2.7,35-1.9c-3.3-0.2-6.4-0.3-9.6-0.5C541.3,587.2,539.9,588.1,538.1,587.4z M531.7,200.6   c-7.4,17.9-4.1,37.4-8.1,56.1c-1.7,12.5-5.5,27.3-3.7,39.1c13.9-36.2,29.3-56.7,12.3-96.4c-0.1,0-0.3,0-0.4,0.1   C531.7,199.7,531.7,200.1,531.7,200.6z M616.1,538.1c-1.2,8.4,4.6,6.4,5.7,0.3C619.7,538.3,618.3,538.2,616.1,538.1z M515.5,546.8   c-2.5,2.6-2.6,3.4-1.2,5.4C515.7,550.7,515.6,549,515.5,546.8z" />
	<path d="M543.8,97.9c-2.5,1.4-3.5-2.2-5.1-3.9c-0.6,0.7-0.9,1.1-1.4,1.7c-2.5-0.4-3.2-3.2-5.5-4c-1-1.9-1.9-3.9-2.9-5.9   c-4.6-1-5.5-5.8-4.9-9.8c0.7-1.1,0.7-1.1,0.1-3.4c-0.4,1.3-0.4,2.2-1.7,2.7c-0.6-4.1-1.9-7.9-0.1-12.6c-0.7,0.6-1.1,0.9-1.6,1.3   c-3.5-2-0.9-6.1-1.2-9.8c-3.2-5.7,2.8-11.5,4.1-16.9c-0.5-0.8-0.9-1.5-1.3-2.2c0.8-1.5,1.6-2.8,2.3-4.5c0.9-0.4,1.9-0.9,3-1.4   c-0.8-1.7-0.8-1.7,0.3-2.4c1.1,0,2,0,3.3,0c0.5-0.5,1.1-1.1,1.6-1.6c-0.3-0.9-0.4-1.6-0.6-2c0.8-1.3,1.3-3.7,3-2.4   c0.4-0.6-0.2-0.7-0.4-1.1c-0.8-1.3-0.8-1.3,0.4-3.2c2.9,0,5.8-0.7,8.7-1.9c0.2-0.8,0.3-1.5,0.5-2.3c0.4-0.2,0.9-0.5,1.5-0.8   c0.7,0.4,1.4,0.7,2.1,1.2c3.3-1.3,6.2-4.6,10.2-2.7c0.2-0.4,0.5-0.9,0.6-1.1c2.6-0.9,4.5,0.1,5.8,1.8c3.7-1.2,6.4-2.6,10.5-3.1   c0.5,0.5,1,1.1,1.5,1.7c0.2,1.8-2.4,1.3-1.5,2.9c1-0.6,2.3-0.7,2.9-2c2.8-1.3,4.8-1.7,8-1.3c0.2,0.5,0.4,1.2,0.6,1.9   c-1,0.3-1.7,0.6-2.5,0.8c0.2,0.4,0.4,0.9,0.5,0.9c3.5-0.4,7,1.2,10.5,1.1c1,0.9,1.8,1.6,2.6,2.2c-0.1,0.8-0.1,1.6-0.2,2.4   c1.8,1.7,4.5,3.3,6.6,4.1c1.9,3,3.4,5.7,5.1,8.5c-0.6,0.7-1,1.2-1.4,1.7c1,4,2.2,7.5,1.9,11.6c-0.5,0.5-0.9,0.9-1.4,1.5   c0.1,2.3,1.1,5-2,5.9c0.1,2.3-0.5,4.6-1.4,6.6c-0.6,0-1.4-0.3-1.5,0.7l0,0c-0.5,0.2-1,0.5-1.5,0.7c-2.9-6.5-5.7-10.8-12.4-7.9   c-6.5-2.8-14,1.6-19.3,5.3c-4.3,5.2-2.7,11.5-6.3,17c0.2,0.5,0.4,1.1,0.6,1.5c-0.8,1.6-2.2,1.1-3.5,1.3c-0.5-0.9-1.1-1.9-1.6-2.7   c1.5-16.4,15.7-28.4,32.4-26.4c-16.3-10.8-35.4,7.7-34.9,24.8c0.6,0.4,1,0.7,1.4,0.9c0,0.2,0,0.4,0,0.5c-0.6,0.1-1.3,0-1.4,0.8   c-1.7-0.2-2,1.6-2.1,2.8c-2.6,4.2,3,10.8,6.9,11.9c1.1,0.5,0,0.9-0.7,0.9c-1.4,5.3-0.4,11.3-1.4,16.9c-1.3,0.7-0.3,1.9-0.7,2.8   c-1.2,0.6-0.2,2.1-1.3,3c0,0.2,0,0.4-0.2,0.5c-1-0.5-0.5-1.5-0.7-2.1l0,0c1.1-0.4,0.8-1.4,0.8-2.1l0,0c1.4-2,1.9-6.4,1.1-9.1   c-1.7,0-2.5,0-4.1,0c-0.2,0.6-0.5,1.3-0.7,1.9c-2.3-0.1-2.4-2.9-5.2-2.5c-0.5,0.4-1,0.9-1.4,1.2c-2.1-0.4-1.8-3.1-3.8-3.4   c0-0.4-0.1-0.8-0.1-1.2c-0.5,0.5-0.5,1,0.2,1.2C543.7,97,543.7,97.5,543.8,97.9z M595.6,17.4c-0.1-0.2-0.1-0.3-0.2-0.5   c-0.3,0.1-0.7,0.2-1,0.3c0.1,0.2,0.1,0.4,0.2,0.6C594.9,17.7,595.3,17.6,595.6,17.4z" />
	<path fill="#020101" d="M628.9,190.8c-0.1-0.4-0.2-0.8-0.3-1.1c-0.6,0.4-1,0.7-1.4,1c0.6-1.4,1.1-2.8,1.7-4.2   c0.1,0.4,0.2,0.8,0.3,1.3c0.7-0.8,0.2-1.1-0.3-1.3c0.4-14.1-8.6-26.7-15.8-38.2c-2.8-3-11.3-18.5-14.9-16.7   c3.3,6.9,10.8,15.3,7.6,23.3c-1.8-1,0.3-3.2-1.4-4.3c-1.4-6.6-5.2-12.7-7.9-18.8c-3.9-1-7-2.9-10.2-5c-0.2,0.6-0.5,1.1-0.8,1.8   c-2-3.8-2.9-16.4,1.2-18.1c0,4.5-1.2,8.9-0.7,13.4c12.8,11.2,32.4-2.4,44.6,11.3c13.3-1.9,26.6-1.2,39.8-2.3   c17.7-6.8,37.2-2.3,55.8-4.6c6.2,0.4,10.5-5.2,16.6-5c5.4,1.2,11.7-0.8,16.5,2.1c0.7,0.8,1.7,1.1,2.8,0.8c1.5,0.2,3.3,1.9,4.8,1.8   c4.7,0.1,8.2,3.7,13,3.9c1.4,0.3,1.4,0.3,2.6,1.9c-1.3,3.1-2.3,3.6-7.5,3c-4.9,2.5-10.7,1.3-15.8,0.7c-4.7,3.3-4.7,3.3-13,2.3   c-2.4,3.1-8.9,4.7-11.7,1c-21.5,3.7-40,20-62.8,16.1c-13.6,5.9-28.5,12.6-43.7,11.3C629.4,175.6,632.1,183.5,628.9,190.8z    M773.3,132.2c-1.2-1.2-2.9-0.2-4.3-1.1c-0.4-0.3-1.1,0-1.7,0.1c0,0.1,0,0.2,0,0.3c2.7,1.5,7.5,0.7,8.3,4.3c0.9-0.5,1.7-1,2.8-1.7   C776.6,132.9,775,132.4,773.3,132.2z M749.4,137.1c0-0.4,0-0.8,0.1-1.2c6.5-1.3,19,3.3,23.4-0.9c-6.4-2.5-12.4-5.5-19-7.9   c-2.4,0.7-5,1.9-7.5-0.2c0.4-0.6,0.7-1.1,1.1-1.6c-5.1-0.9-9.1,0.5-13.5,2.9c-21,6.4-44.1-1.7-64.6,6.9c-4.9,1.2-10,0.3-15,0.5   c-37.3,5.7-25.2-9.3-52.2-4.9c6,6.2,10.8,13.1,15.4,20.2c1.2-1.4,1.6-3.3,3.5-3.8c0.3,2.4-1.3,4.7-1.9,6.9   c2.4,4.1,4.4,8.2,7.3,11.9c15.8,1.5,29.9-7.5,44.8-10.8c21.9,1.2,40.8-10.8,61.3-16.1c0-1.1,0-1.9,0-2.6c0.4,0,0.9,0,1.3,0   c1.2,1.5,1.9,3.2,3.6,4.2c1.8,0,3.4,0,5.2,0c1.2-0.9,2.2-1.8,3.3-2.6c-0.1-0.9-0.1-1.7-0.2-2.4c-0.2,0-0.4,0.1-0.6,0.1   c-0.5-0.2-1.3,0.1-1.3-0.9c2.3-1.9,2.7-4.7-0.9-5.3c-1,2.1-1.5,4.4-3.5,5.6c-1.1-0.1-2.1,0.1-3.1-0.4c0.2-0.4,0.3-0.7,0.5-1   c0.1,0,0.4,0,0.5,0c1.1,0.7,1.1,0.7,1.5-0.8c1.2-1.6,2.2-3.2,3.4-4.8c8.4-1.4,3.7,6.1,5.7,10.4c2.2-0.6,6.7,1.6,7.5-1.6   C753.2,138,751.3,137.2,749.4,137.1z M780.7,134.3c-0.4-0.9-1.4,0.1-0.8,0.6C780.2,134.6,780.4,134.5,780.7,134.3z" />
	<path fill="#100E0D" d="M518.3,346.9c0,0.3-0.1,0.6-0.1,0.9c-10.6-6-13.3-19.7-13.5-31.1c1.1-0.9,1.1-1.3,0-2.2   c0.2-0.7,0.5-1.4,0.7-2c0.3,0,0.5,0,0.8,0c0,2.1,0,4.2,0,6.3c-1.7,1.9,0.7,6.7,2,8.5c0.1,1.1,0,2.3,1.4,2.1   c3.5,5.8,1.8,13.2,8.5,16.9C518.3,346.5,518.3,346.7,518.3,346.9z M510.4,335.9c0.4-2.5-0.5-4-1.9-5.3   C509.2,332.1,508.7,334,510.4,335.9z" />
	<path fill="#0E0D0C" d="M605.6,66.8c0.5,2,0.6,4.6,0.9,6.4c1.9,2.2-0.5,4.2-1.5,6.1c0,1.1,0,2-0.7,2.8c-0.2-1.4-0.2-2.7-1.1-3.9   c-0.9-0.3-1.7-0.6-2.5-1c0.3-1.7-1.1-2.4-1.4-4.1c0.7-0.6,1.5,0.5,2,0.4c1.9-0.3,4-0.6,3.2-3c-2-1.2-3.8,1-5.8,0.2   c0.7-1.4,0.7-1.4,2.3-2c0.6,0.1,1.2,0.2,1.5-0.5c0.5,0,0.9-0.1,1.4-0.1C604.6,67.8,605.1,67.3,605.6,66.8z" />
	<path fill="#1F1A19" d="M586.7,112c0-0.5-0.1-1-0.1-1.5c12.7,1.8,14.9-12.6,17-21.8C605,98.2,598.8,114.3,586.7,112z" />
	<path fill="#181311" d="M557,110.4c0.2,0.7-0.3,1.7,0.7,2.1c-1.5,3.2-3,6.6-7,7.1c-0.2-0.8-1-0.7-1.5-0.8   C553.6,117.7,555.3,114.1,557,110.4z" />
	<path fill="#0A0606" d="M533.7,20.8c-0.4,0.7-0.7,1.4-1.2,2.2c0.1,0.5,0.3,1.1,0.6,2c-0.5,0.5-1.1,1.1-1.6,1.6c-1.3,0-2.3,0-3.3,0   c1.1-0.6,0.4-1.8,0.8-2.7C530.9,23.4,532.4,21.9,533.7,20.8z" />
	<path fill="#2B2523" d="M605.6,66.8c-0.5,0.5-1,0.9-1.4,1.4c-0.1-3.1-1.3-6-2-9.1c0.5-0.2,1-0.5,1.5-0.7   C604.2,61.3,604.9,64.1,605.6,66.8z" />
	<path fill="#302C2A" d="M604.3,90.2c-1.7-3.4,0.6-7.3,0.7-10.8C606.7,82.9,605.5,86.8,604.3,90.2z" />
	<path fill="#181311" d="M556.2,99.3c0.8,0,1.7,0,2.6,0c0.5,2.1,0.9,4.2-0.3,6.2c0-1.8,0-3.6,0-5.4C557.6,99.9,557,99.6,556.2,99.3z   " />
	<path fill="#A2A4A4" d="M522.5,75.3c1.3-0.4,1.3-1.4,1.7-2.7c0.6,2.3,0.6,2.3-0.1,3.4C523.4,76,522.7,76.3,522.5,75.3z" />
	<path fill="#373535" d="M578.2,10c-0.6,1.3-1.9,1.4-2.9,2c-0.9-1.6,1.8-1.2,1.5-2.9C577.2,9.4,577.7,9.7,578.2,10z" />
	<path fill="#010100" d="M504.9,314.6c1.1,0.9,1.1,1.3,0,2.2C504.4,316,504.2,315.2,504.9,314.6z" />
	<path fill="#BECACA" d="M576.1,353.3c-0.1-1.1-0.2-2,0.7-2.8C576.7,351.4,577.2,352.6,576.1,353.3z" />
	<path fill="#181311" d="M557.7,108.4c0,0.8,0.4,1.7-0.8,2.1C557.2,109.7,557.5,109.1,557.7,108.4z" />
	<path fill="#485353" d="M543.7,96.5c0.8,0.1,1.3,0.5,1.5,1.3c-0.5,0.1-0.9,0.1-1.4,0.2C543.7,97.5,543.7,97,543.7,96.5L543.7,96.5z   " />
	<path fill="#181311" d="M558.3,106.7c0.1,0.7,0.2,1.4-0.6,1.7C557.9,107.8,558.1,107.3,558.3,106.7z" />
	<path fill="#2B2523" d="M603.6,58.6c0.1-1,0.9-0.8,1.5-0.7C604.9,58.7,604.1,58.4,603.6,58.6z" />
	<path fill="#BECACA" d="M576.7,350.4c0-0.4,0.1-0.8,0.1-1.2c0.1,0,0.3,0,0.4,0c0.1,0.4,0.1,0.8,0.2,1.3   C577.2,350.5,576.9,350.4,576.7,350.4z" />
	<path fill="#EAA388" d="M582.5,315.5c-11.9,31.9-11.5,68.4-23.7,100.6c-3.5,10.8-7.7,21.3-12.9,31.4c-2.8,10.1-0.2,21.2-4.3,31.2   c-6.4,18.8-10.7,37.5-12.8,57.4c-0.6-0.9-1-1.4-1.4-1.9c-3-0.7-5.5,2.3-8.5,1.1c0.8-12.5,4.4-24.8,3.7-37.2   c-1.6,0.6-1.7,2.4-3.2,3.9c0.9-25.9-1.7-46,10.6-70.6c3,3.6,0.9,8.4,4.8,11.2c4.8-11.2-2-23.6,1-35.2c4.7-37.9,0-76.8,7.2-114.4   c25.8,0.4,53.3,8.6,78.2-1.5c11.1,39.1,8.5,79.9,6.9,119.7c2.1,39.5,4.3,79,1.7,118.4c-3.1,1.3-6.1,2.4-7.1,6c-1.6,0.4-3,0.4-4.5,0   c0.3-12.7,2.6-42.7-4-52.2c-0.7,5.1,0.3,8.4-0.5,13.6c-3.4-10-5.4-20.2-8.2-30.3c-0.5-5.1-1.6-22.7,2.2-25.5   c2.4,1.8,3.3,4.4,4.8,6.3c-0.3,0.7-0.4,1.1-0.6,1.6c1.5,3,0.6,9.2,4,3.5c1,1.4,1.9,2.5,3.1,4.4c0.3-15.8-14.8-26.1-16.3-41.2   c-1.8-17.5-4.7-34.7-4.2-52.3c1.4-6.3,1.4-12.9,1.4-19.4c0-2.3,1.6-4.7-0.3-6.6c-3.1,1.4-3,5-5.1,7.4c-3-10.7-0.8-23.5-7.3-32.3   c0.1-0.8,1.3-1.5,0.5-2.4c-1.5,0.2-1.8,1.7-2.6,2.3C584.2,313.4,582.9,314.1,582.5,315.5z M567,313.8c-0.7-0.8-1.7-0.8-2.7-1   c1.5,2.3,4.4,3.1,7.1,3.8C569.9,315,568.3,314.6,567,313.8z M548.6,409c0.1-1.3,0.3-3.3-1.2-3.9c-0.1,0.9-0.2,1.8-0.4,2.6   c-1.1-19.3-13-4-2.4,0.4c2,1.4,2.1,4.2,4.3,5.1C549.8,411.7,548.9,410.3,548.6,409z M616.2,413.8c-0.6-0.3-0.8-0.8-0.8-1.5   c0.2-2.8-2-4.6-3.9-6.2c-1,0-1.9,0-2.8,0c-0.6,0.6-1.2,1.3-1.8,1.9c0.4,4.3,3.8,8.6,8.4,7.9C616.5,417.7,618,415.2,616.2,413.8z    M539.3,460.9c1.8-0.4,5.9-9.1,3.3-9.8C540.8,453.9,539,457.4,539.3,460.9z M623,401.7c-1.7,2.7-3,5.5-3.1,9.1   C622.3,408.4,624.2,405.2,623,401.7z M559.4,304.4c3,2.3,6.1,5.1,10,5.8C566,307.4,563.1,305.5,559.4,304.4z M538.5,463.2   c-2.1,0.4-1.6,3.2-0.7,4.8C539.3,466.4,539,464.9,538.5,463.2z M614.2,458.5c1.3,3.6,1.3,3.6,2.7,4.4   C617.2,460.9,616.5,459.6,614.2,458.5z M534.6,477.4c1.7-1.2,1.8-1.8,0.4-3.9C534.2,474.8,534.2,476,534.6,477.4z M617.6,468.6   c-0.8-2-0.8-2-1.9-2.4C616.2,467.6,616,467.9,617.6,468.6z M617.4,472.6c-0.2-0.6-0.5-0.5-0.9-0.2C616.7,473,617,472.9,617.4,472.6   z" />
	<path fill="#F5DDCE" d="M605.7,154.9c3.3-8-4.3-16.5-7.6-23.3c6.9-0.4,32.8,42.8,30.1,51c-8,11.8-21,2.2-31.5,2.8   c-0.6,2.4,0.7,3.8,2.3,5.3c-1.1,0.1-1.9,0.2-2.9,0.2c0.8,3,4.1-0.6,6.7,3.4c0.4,1.2,1.4,0.4,2.1,0.7c1.6,3.8,8.4,1.9,11.3,4.9   c-9.5,53.1-12.5,34.3,4.8,88.7c-24,9.4-51.9,4.3-76.7,1.5c2.9-6.9,1.8-16.3,7.6-21.8c4,6,5.4,13.2,11,18.2   c-1.6-17-12.8-32.1-11.5-49.6c-0.3-11.6,0-24,6.2-34.1c2.4-5,8.8-4.5,11.7-8.3c1.2-0.5,2.3,0.3,3.1-0.9c3.9-0.9,8.3-1.4,11.5-3.8   c3.7,0.3,6.1-3.4,6.4-6.8c-11.6,2.1-30.5,2.5-39.3-6.4c-1.9-3.8-4.4-5.5-8.3-5c-4.5-5-5.5-0.5-6.1-3.4c8.9-12.6,13.2-28.7,5.9-43   c1.2-1.9,2.7-2.9,4.9-3.6c4.1,19,17.5,36.5,38,38C592.1,160.1,602,161.9,605.7,154.9z M587.7,230.4c-2.4,1.9-2.3,27.8,0.4,29.2   C587.4,249.6,590.8,239.8,587.7,230.4z M607.4,280.4c2.3-3.1,5.5-7.6,2.4-11.1C609.3,273.7,607.6,276.8,607.4,280.4z M603.9,249.5   c0.8-2.6,0.2-5-1.7-7.6C602.3,245,603.5,247.2,603.9,249.5z M602,240.2c1.3-2.4,1.3-2.4,0-4.1C600.4,237.6,600.4,237.7,602,240.2z    M601.3,290.6c1.8-0.6,1.8-0.6,1.3-1.9C602.2,289.4,601.7,290,601.3,290.6z M602.3,223c-1.3,1-0.8,1.3,0,2.4   C603,224.1,603,224.2,602.3,223z M605.4,284c-1.2,0.6-1.7,1.3-1,2.5C605.6,285.9,606,285.1,605.4,284z M602.2,229.7   c0.2,0,0.3,0,0.5,0c0-0.6,0-1.1,0-1.7c-0.2,0-0.3,0-0.5,0C602.2,228.7,602.2,229.3,602.2,229.7z M602.1,233.7   c-0.2,0.1-0.3,0.3-0.5,0.4c0.2,0.4,0.5,0.1,0.8,0C602.4,233.9,602.3,233.8,602.1,233.7z" />
	<path fill="#B28C7D" d="M508.6,328.5c-0.5-17.1,1.4-33.8-1.4-50.7c-1.9-17.6-8.3-38.6,1.9-54.6c1.8,2.2,2.5,5,5.2,6.1   c0.7,1.2,1,1.9,2.4,2.3c0.9-4-2.1-5.6-2.6-8.7c0.2-1.4-0.2-2.4-1.3-3.4c-7.1-13.6-2.6-31,1.4-45c1.1,0.7,2.1,2.1,3.4,0.8   c-2.7-16.1-7.6-23.5,1.5-39.4c6.7-4.3,15-4.9,21.5-9.9c6,13.3,2.7,28.8-5.5,40.3c-0.7,0.1-0.6-0.8-1-1.4c-4,2.5-2.5,7.8-3,11.8   c-0.9,11-1.4,22.4-5.1,33c-3.6,13-0.9,26.6-3.7,39.8c-3.1,14.5-4.8,29.2-5.5,44.1c-0.4,0.4-0.9,0.8-1.5,1.3   c0.4,0.4,0.8,0.8,1.3,1.3c-2,4.4,6.8,12.4,9.9,15.6c2,6.3,0.7,13.3,2.8,19.5c-0.7,0-1.4,0.1-2,0.1c-2.1-1.9-2.4-4.3-2.2-6.9   c0.2-0.7,0.2-1.3-0.6-1.6c0-2.3,0.4-5.8-2.9-5.9c-1.8,2.4,1.2,4,1.2,6.1c-0.9,4.7,1.3,9.2,1.8,13.8c0,0.8-0.3,1.7,0.6,2.1   c0,0.2,0.1,0.5,0.1,0.7c-1-0.2-1.9-0.5-2.8-0.7c-1.1-4.2-0.9-7.5-3.2-11c-0.4,0-1,0-1.9,0.1c1.3,3,5.8,11.9,0.8,12.4l0,0   c-2.4-4.2-0.7-12.3-7-13.2c2.5,4.2,5.8,8.8,4.7,13.8C513.2,337.1,512.2,331.3,508.6,328.5z M514.6,323.3c0.5,0.9,0.9,1.6,1.3,2.2   C516.7,324.3,516.4,322.9,514.6,323.3z M515.1,292.6c0.3,0,0.6,0,0.8,0c0-0.6,0-1.2,0-1.9C514.5,291.1,514.9,291.6,515.1,292.6z" />
	<path fill="#D69479" d="M546.5,292.7c-1.1,0-2,0.1-3.3,0.2c-7.2,37.5-2.5,76.4-7.2,114.4c-3,11.6,3.8,24-1,35.2   c-3.9-2.8-1.8-7.6-4.8-11.2c-12.3,24.7-9.7,44.7-10.6,70.6c1.6-1.5,1.7-3.3,3.2-3.9c0.6,12.5-2.9,24.8-3.7,37.2   c0.6,0.2,1,0.3,1.5,0.4c-0.9,0.6-1.8,1.1-2.5,1.7c-1,2.4-1.1,5.2-2.5,8.1c1.4-32.5-8.4-65.7,1.5-97.9c18.7-36,8-57.3,6.8-95   c7.6-4.4,2.6-12.9,2.4-19.6c1.6-0.7,3.5,0.6,5-1.3c-0.8-9.8-1-20.7-9.1-28.2c0-3.7,0.7-7.5,1.6-11.3   C531.2,292.6,539,290.2,546.5,292.7z" />
	<path fill="#E6CCBB" d="M572.6,193.7c-0.8,1.2-1.9,0.3-3.1,0.9c-2.9,3.8-9.3,3.3-11.7,8.3c-6.3,10.1-6.5,22.5-6.2,34.1   c-1.3,17.5,9.9,32.7,11.5,49.6c-1.1-0.9-1.9-1.8-2.3-2.9c1.2-0.9-0.2-2.7-1.2-3.4c-0.7,0.4-0.4,0.8-0.4,1.5c-2-1.9-3.6-5.2-4-8   c0.3,0,0.7,0.1,1,0.1c0.2-1.9-0.2-2.9-1.3-2.9c-0.2,0.3-0.4,0.7-0.6,1c-0.8-1.1-1.5-2.2-2.2-3.4c-5.8,5.6-4.7,14.8-7.6,21.8   c-6.6-0.1-12.9-0.3-19.6-0.3c35-79.1,6.4-55.1,8.6-118.6c1.1-0.9,2.1-1.9,3.3-2.8c0.4,1.5,0.4,1.5,2.1,0.6c0.1,0.2,0.2,0.4,0.3,0.6   c0.1-0.2,0.2-0.4,0.3-0.6c1.1,0.9,2.1,1.8,3.4,2.7c4-0.5,6.3,1.2,8.3,5c8.8,9,27.7,8.6,39.3,6.4c-0.3,3.3-2.6,6.9-6.1,6.8   c0.3-0.5,0.6-0.9,0.9-1.6c-1.4-0.2-2,0.2-2.7,1.3c0.6,0.2,1,0.3,1.4,0.4c-0.6,1.1-1.9,0.6-2.7,1.4c-18.8-2.3-25.9,5-38.5-15.6   C546.1,190.4,558.8,194.6,572.6,193.7z M541.1,173.9c0.6-2.1,0.5-2.2-1-1.7C540.4,172.8,540.7,173.3,541.1,173.9z M553,267.3   c0.2,0,0.3,0,0.5,0c0-0.6,0-1.1,0-1.7c-0.2,0-0.3,0-0.5,0C553,266.2,553,266.8,553,267.3z M587.3,186.9c-0.2,0-0.4,0-0.5,0   c0.1,0.1,0.2,0.2,0.2,0.3C587.1,187,587.2,187,587.3,186.9z" />
	<path fill="#D69479" d="M612,449.1c0.2-0.4,0.3-0.9,0.6-1.6c-1.6-1.9-2.3-4.6-4.8-6.3c-3.8,2.8-2.6,20.5-2.2,25.5   c2.8,10.1,4.8,20.2,8.2,30.3c0.8-5.2-0.2-8.6,0.5-13.6c6.6,9.3,4.3,39.6,4,52.2c-0.6,0-1.2,0-1.9,0c-1.4-8.4-2.6-16.9-3.7-25.3   c-4.9-25-18.1-48.7-10.7-75c-3.5-40-33-79.9-18.2-120c-0.7,0-1,0.1-1.3,0.1c0.4-1.5,1.8-2,2.7-3c0,0.4,0,0.9-0.1,1.8   c1-0.8,1.7-1.3,2.2-1.7c6.4,8.8,4.3,21.5,7.3,32.3c1.9-2.4,1.9-6,5.1-7.4c1.9,1.9,0.3,4.3,0.3,6.6c-0.1,6.5-0.1,13.1-1.4,19.4   c-0.5,17.5,2.4,34.8,4.2,52.3c1.5,15.1,16.6,25.4,16.3,41.2c-1.3-1.8-2.1-3-3.1-4.4c-0.4,0.5-0.8,0.9-1.1,1.4   C614.8,452.1,614.5,448.9,612,449.1z" />
	<path fill="#B28C7D" d="M584.4,126.7c0.3,0.6,0.6,1.2,1,1.9c0.3-0.8,0.5-1.3,0.8-1.8c3.2,2,6.3,4,10.2,5c3.1,7.3,8.5,14.4,7.9,22.6   c-0.2-0.1-0.3-0.3-0.5-0.4c-1,1.2-1.9,2.3-2.8,3.6c-3.2,0-6.5,0-9.7,0c-1.9-2-3-7.4-5.5-8c1.4,2.7,2.4,4.7,3.2,7.6   c-17.5,1-33-12.5-36.9-29.1c7.1-4.1,13.2-13.6,12.9-21.7C570.4,114.1,577.3,120.5,584.4,126.7z M563.6,131.5   c-1.7-1.7-5.8-3.1-7-1.2C558.6,131.8,558.6,131.8,563.6,131.5z M569.6,132.6c-1.4-1.2-1.9-1.2-3.4,0   C567.5,133.3,568.5,133.4,569.6,132.6z M574.7,132.8c-1.1-0.9-1.9-0.9-2.6-0.2C572.8,134,572.8,134,574.7,132.8z" />
	<path fill="#F7EFD0" d="M514.1,556c3.5-4.3,5.4-11.5,5.8-17.2c2-1.1,4.1-1.8,6.3-2.2c2.8,2.4,4.4,6,8,7.7   c3.5,11.3,9.3,23.1,17.1,32.1c2.1,1.9,2.7,4.3,1.5,6.9c-4.4,1.6-9.4-2.3-13.9,0c-6.5,3.5-12.6,0.4-19.7,0.7   c-0.5-0.5-1.2-1.1-1.7-1.5c0-1.9,0-3.1,0-4.5c-1.1-1-2.2-2-3.4-3.1C513.4,568.7,514.3,562.4,514.1,556z M523.9,556.6   c-0.3,1.3-1,3.4,1.2,3.3c1.9-5.8,10.7-3,9.7-6.4c-2.2-1.3-5.2,0.5-7.3-0.9c2.1-1.7,5.3-1.1,7-3.1c-1.8-3.5-16.2,2.5-12.2,6.5   c0.5-0.1,1.1-0.2,1.6-0.2C523.9,556.1,523.9,556.3,523.9,556.6z M525.4,563.8c4.1-1.7,7.6-3.1,11.2-4.6   C537.4,554.5,523.5,560,525.4,563.8z M528.5,568.2c3.3-1.5,7.5-1.9,9.6-5.1c-3-1.8-6.2,1.9-9.3,2.6   C528,566.2,527.7,567.1,528.5,568.2z M530.3,570.7c-0.5,3,9.5-0.7,9.7-2.2C536.9,566.7,532.7,568.5,530.3,570.7z" />
	<path fill="#F7EFD0" d="M633.1,547.5c-2.1,1.4-7.7,2.1-4.3,5.6c3.2-3.3,7.7-3.6,12-4.9c0.4,0.5,0.9,1,1.3,1.5   c-2.5,1.4-13,3.6-8.6,7.7c2.6-3.1,6.6-3.8,10-5.6c11.9,15.4,19.3,11,19.2,18.1c-0.4,0.2-0.9,0.8-1.1,0.7c-5.8-2-11.7,2.3-17.5,3   c-3.6,0.4-6.8-0.4-10.2-1.4c-3.6-0.3-7.2,0.9-10-2.3c-2.7,0.1-5.2,2.5-7.9,1c-1.3-0.7-3-0.5-4.1-1.9c1-8.2-1.7-18.1,1.4-26.2   c0.6,1.1,1.3,2.2,1.9,3.3c11.6,3.7,6.2-19.5,19.4-11.9c0.5,2.8,1.1,5.9,1.7,9.2c-3.7,1-15.4,0.3-12.6,6.3   C626.6,547.8,630,545.3,633.1,547.5z M646.4,556.3c-0.6-0.7-1-1.2-1.3-1.6c-5.1,2-6.3,2.8-7.7,4.9c0.3,0.4,0.6,0.8,1,1.3   C641.2,560,643.6,558.5,646.4,556.3z M642.8,561.3c1.9,1.7,3.4,0.3,5.3-0.3C650.6,557.9,643.8,558.4,642.8,561.3z" />
	<path fill="#977264" d="M514.1,223c-0.3,1.4,0.7,2.1,1.5,2.9c-1.9-0.2-1.3,2.2-1.3,3.4c-2.6-1.3-3.4-3.9-5.2-6.1   c-10.1,16-3.7,36.9-1.9,54.6c2.6,16.5,1.2,32.8,1.3,49.4c-4.5-7.2-1.3-17.1-0.9-25.2c-2-14.2-4.5-28.8-7.4-43   c-4.3-19.7,6.1-37.5,4.8-57.3c1.9-9.8,3.3-20.1,4.9-29.9c-0.5-12.5-3.2-28,9.2-35.9c-9.2,15.9-4.2,23.3-1.5,39.4   c-1.3,1.4-2.3-0.1-3.4-0.8c0.2-2.6-0.8-4.3-2.2-6.9c-2.4,0.6-0.7,3.6,0.5,4.7c0.4,0.8-0.2,1.9,0.6,2.7c0.5-0.2,0.8-0.3,1.1-0.4   c-4,13.7-7.8,30-2.2,43.7c-0.4-0.2-0.8-0.4-1.4-0.7c0.1,2.3,1.9,3.6,2.3,5.4C513.4,223,513.7,223,514.1,223z" />
	<path fill="#977264" d="M584.4,126.7c-7.1-6.2-14-12.6-19.6-20.3c0.3,8.2-5.8,17.6-12.9,21.7c-1.4-2.2-1.8-4.8-2.6-7.1   c0.5-0.5,0.9-0.9,1.3-1.3c11.9-4.2,8.4-20.5,10.4-30.2c1.4,3.8,2.6,8.5,7.1,9.8l0,0c0.3,0.3,0.5,0.5,0.8,0.8l0,0   c0.6,1.5,0.7,1.5,1.6,0.7c5.1,2.5,10.4,5.4,14.7,9.2c-3.5-1-6.2-3.7-9.5-5.3c2.2,3.3,5.8,4.7,8.7,6.8   C584.2,116.6,583.3,121.4,584.4,126.7z" />
	<path fill="#EBDDB8" d="M613.4,542.6c-3,8.2-0.4,18-1.4,26.2c1.1,1.5,2.7,1.3,4.1,1.9c2.7,1.6,5.2-0.8,7.9-1c2.8,3.2,6.4,2,10,2.3   c3.4,1,6.6,1.8,10.2,1.4c5.8-0.7,11.6-5.1,17.5-3c0.2,0.1,0.7-0.4,1.1-0.7c0.2,0.3,0.4,0.6,0.6,0.9c-0.1,0.8,0,1.6,0.7,2.2   c0,0.6,0,1.2,0,1.9c-10.8,6.3-26,6.3-37.2,0.7c-2.2-1.2-4.3-1.6-6.7-0.7c-4.6,1.2-9.7-1-14.2-1.9c4.7-10.7,1.3-22.3,5.5-33.3   C612.7,540.4,612.7,540.4,613.4,542.6z M662.5,573.4c-0.4-3.9-14.3-1.8-12.4,2.9c1.9,0.5,2.4-1.4,4-1.9   C656.7,574,659.6,573.7,662.5,573.4z" />
	<path fill="#E5CBBA" d="M602.8,194.3c-1-0.7-1.6-2.1-2.8-2.1c-0.9-1.2-1.4-1.2-2,0c-0.9,0-1.7-0.1-1.8-1.3c0.9-0.1,1.9-0.2,2.9-0.2   c-1.7-1.4-2.9-2.8-2.3-5.3c10.4-0.6,23.5,8.9,31.5-2.8c0-1.3,0-2.5,0-3.8c0.8,2.5,0.5,5.2,0.6,7.8l0,0c-1.1,7.3-8.5,8.8-12.6,13.5   c-2.9-3-9.7-1.1-11.3-4.9C606.2,194,602.9,192.5,602.8,194.3z M617.7,195c-3.6-0.1-7.1-1.5-10.3-0.1   C610.8,195.5,614.9,196.8,617.7,195z" />
	<path fill="#EADCB8" d="M514.1,556c0.3,6.3-0.8,12.7,0.1,18.9c1.2,1.1,2.3,2,3.4,3.1c0,1.4,0,2.7,0,4.5c0.5,0.4,1.1,1,1.7,1.5   c7.1-0.2,13.2,2.9,19.7-0.7c4.6-2.3,9.5,1.5,13.9,0c-0.1,0.4-0.1,0.9-0.3,1.5c-4-0.7-7.8-1.1-11.8-0.7c-1.1,1.5-3.8,2.3-2,4.8   c-7,1.9-14.6,0.1-21.7-0.7c-2.1-2.6-0.6-6.4-3.2-9.2c-0.4,1.4-0.6,1.9-0.6,3.2c-1.6,0.8-3.4-0.4-5.3-0.5c3.9-8.9,1.8-18.2,2.7-27.2   C511.8,555.6,512.6,556.1,514.1,556z" />
	<path fill="#1E1612" d="M527.5,311c3.4,6.5,2.2,14.1,3.5,20.8c-1.4,1.8-3.4,0.6-5,1.3c0.5-0.5,0.9-1,1.4-1.5c0.7,0,1.3-0.1,2-0.1   c-2.1-6.2-0.7-13.2-2.8-19.5C526.9,311.5,527.2,311.3,527.5,311z" />
	<path fill="#141210" d="M644.2,552.1c-0.2-0.1-0.4-0.2-0.7-0.2c-3.4,1.8-7.4,2.4-10,5.6c-4.4-4.1,6-6.3,8.6-7.7   C643.2,550.1,644.1,550.7,644.2,552.1z" />
	<path fill="#271D1A" d="M516.3,339.8c-0.6-4.7-2.4-8.5-5.1-12.3c6.3,0.9,4.7,9,7,13.2l0,0c0.7,1.7,1.4,3.3,2,4.9   c-0.8,0.4-0.8,1.8-2,1.4c0-0.2,0-0.5,0-0.7C519.9,344.8,516.7,341.8,516.3,339.8z" />
	<path fill="#9A7668" d="M616.1,538.1c2.1,0.1,3.6,0.2,5.7,0.3C620.8,544.5,615,546.4,616.1,538.1z" />
	<path fill="#D7D0AD" d="M538.7,589c-0.2-0.5-0.4-1-0.6-1.6c1.9,0.7,3.1-0.3,4.3-1.5c3.1,0.2,6.2,0.3,9.6,0.5   C548.6,589.3,543,588.3,538.7,589z" />
	<path fill="#1B1B19" d="M590.2,156.1c0.4,0.5,0.7,0.9,1.1,1.5c3.2,0,6.4,0,9.7,0c1-1.3,1.9-2.4,2.8-3.6c0.2,0.1,0.3,0.3,0.5,0.4   c0-1.3,0-2.5,0-3.8c1.7,1-0.3,3.3,1.4,4.3c-0.9,2.7-3.2,3.6-5.7,4.2c-2.5-1.8-6.4-0.2-9.7-0.7C590.3,157.5,590.2,156.8,590.2,156.1   z" />
	<path fill="#8E6C5F" d="M522.5,339.2c1,0.2,1.9,0.5,2.8,0.7c1.1,2.1,1.9,4.4,1.2,6.9C523.9,345.9,522.5,342.1,522.5,339.2z" />
	<path fill="#88675A" d="M520.4,345.6c-0.7-1.7-1.4-3.3-2-4.9c1.8-0.1,1.8-0.1,2.2-1.6c1.2,2.4,0.9,5.3,3,7.2   c0.7,0.9,1.3,1.8,0.6,2.9C522.3,348.4,521.5,346.8,520.4,345.6z" />
	<path fill="#8B675B" d="M522.5,321.6c-0.9-1.4-1.9-2.7-0.7-4.6c3.3,0.1,2.9,3.6,2.9,5.9c-0.9-1.2-1-2.5-1.9-3.8   C522.6,320,522.5,320.8,522.5,321.6z" />
	<path fill="#74574D" d="M515.5,546.8c0,2.2,0.2,3.9-1.2,5.4C513,550.1,513.1,549.4,515.5,546.8z" />
	<path fill="#C6C3A9" d="M633.1,547.5c-0.8-0.8-1.9-0.7-2.9-0.8c1.3-0.9,2.7-0.7,4.1-0.8c0.8,0.4,1.8-0.2,2.3,0.8   C635.4,547,634.3,547.2,633.1,547.5z" />
	<path fill="#94A28D" d="M636.6,546.7c-0.6-1-1.6-0.4-2.3-0.8c1.5-0.4,3-0.7,4.5-1.1c0.2,0.3,0.4,0.6,0.7,0.9   C638.6,546.4,637.7,546.8,636.6,546.7z" />
	<path fill="#6F534A" d="M588.1,154.1c-0.7-1.5-1.4-2.8-2.2-4.4c1.3,0.6,1.3,0.6,2.9,3C588,152.9,588.1,153.6,588.1,154.1z" />
	<path fill="#8E6C5F" d="M525.3,339.2c-1-0.5-0.6-1.4-0.6-2.1C525.5,337.6,525.4,338.5,525.3,339.2z" />
	<path fill="#241E19" d="M664,572.9c-0.7-0.6-0.8-1.4-0.7-2.2C664.4,571.3,664.1,572.1,664,572.9z" />
	<path fill="#B7C5C5" d="M532.5,200.5c-0.3,0-0.6,0-0.8,0c0-0.4,0.1-0.8,0.1-1.3c0.1,0,0.3,0,0.4-0.1   C532.3,199.7,532.4,200.1,532.5,200.5z" />
	<path fill="#8B675B" d="M524.7,323c0.8,0.3,0.7,0.9,0.6,1.6C525.1,324,524.9,323.5,524.7,323z" />
	<path fill="#B28C7D" d="M585.2,109.7c-4.7-4.2-10.5-7.2-16.2-9.8l0,0c-0.3-0.3-0.5-0.5-0.8-0.8l0,0c-2.6-3.3-5-6.5-5-10.9   c-1-1.5-2.3-3.8-0.7-5.4c-0.9-1.2-1.9-2.3-1.5-4c0.1-0.6,0.1-1.2-0.6-1.5c-0.6-1.3-0.6-1.3,0.6-1.3c0.5,0.8,1,0.7,1.4-0.1   c0.8,0,1.7-0.1,2.1-1.2c-0.2-0.4-0.4-0.9-0.6-1.5c3.5-5.5,2-11.8,6.3-17c5.3-3.7,12.8-8.1,19.3-5.3c9.4-4.6,13.6,9.5,14.4,17.1   c-1.9,0.2-4.5,0.8-5.2,2.7c1.9,0.8,3.7-1.5,5.8-0.2c0,0.5,0.1,1,0.1,1.6c-1.6,0.4-3.7-0.5-4.9,0.8c-0.2,0-0.4,0.1-0.6,0.2   c-1.1,0.1-0.5,1.3-1.3,1.5c-0.2-0.5-0.3-1-0.6-1.7c-1.9,2.1-2.9,5.5-0.6,6.9c0.2-0.9,0.4-1.7,0.5-2.3c0.7-0.1,1.3-0.2,1.9-0.3l0,0   c0.1,0.2,0.2,0.4,0.3,0.6c0.1-0.2,0.3-0.3,0.4-0.5c1.2-0.1,2.1,0.6,3.2,1c2,5.4,0.6,13.5-2.5,18c0.4-1.5-1.8-1.9-2.5-2.7   c-4.2,0.4-7,0.3-10.3,3.2c-1.9-0.4-1.9-0.4-2.5,1.3c0.7,0.1,1.4,0.2,2,0.3c-0.3,3.4,9.2,6.2,11.7,3.7c0.1,0.6,0.2,0.9,0.2,1.2   c-2.4,5.6-7.4,8-13.3,6.9C585.7,110.2,585.5,109.9,585.2,109.7z M598.5,86c1.3,1.9,1.3,1.9,1,2.9c-0.2-0.2-0.5-0.4-0.8-0.6   c-1,0.7-1.9,1.4-3.4,2.5c2.2-0.3,2.7-0.3,4.6-0.1c0.5-0.8,0.9-1.5,1.4-2.2c-1.5-1.8-2.2-4.6-4.1-5.6   C597.2,84.1,597.6,85.1,598.5,86z M581,69.6c2.6-0.8,9.5,3.5,9.7,1.3c-2.2-3.5-16-3.9-16.3,0.2C576.5,70.5,578.7,69.4,581,69.6z    M588.5,78.1c-0.3-7.5-8.3-5-13.4-3.7c1.4,1.3,1.6,1.9,2.1,3.6C581,78.9,584.7,78.5,588.5,78.1z M589.9,86   c-3.4,1.3-1.9,5.3,1.1,5.3c1.2-0.7,2.2-1.3,3.4-1.9c-1.8-1.8-3.1-0.3-4.4,0.5C588.6,88.6,590.1,87.4,589.9,86z" />
	<path fill="#92909F" d="M563.4,53.5c5.9-8.4,19.9-13.3,28.6-6.5C572.6,44.6,565.4,61.7,563.4,53.5z" />
	<path fill="#8D8790" d="M563.4,53.5c-0.1,1.8,2.1,2.8,3.6,2.1c-2.4,5.4-6.7,9.9-7.2,16.1c-0.5,0.3-1,0.6-1.4,0.9   c-0.4-0.3-0.8-0.5-1.4-0.9C557.5,65.5,559.4,58.5,563.4,53.5z" />
	<path fill="#382B26" d="M561.2,78.9c-0.4,1.7,0.6,2.8,1.5,4c-0.3,0.4-0.5,0.6-0.7,0.9c-0.9-0.2-1.7-0.4-2.8-0.8   c0.4,1.6,1.2,2.9,0.1,4.2c-0.8-0.2-1.3-0.6-1.5-1.5c1.2-1-0.4-2.8-1.6-3.5c-0.3,0.3-0.5,0.5-0.7,0.8c-1.8-2.6-1.9-3.9-0.7-6.3   c0.1,0.4,0.2,0.7,0.3,1.2c0.4-0.4,0.6-0.6,1-1.1c0.1,1.7,0.2,3,0.3,4.4c0.9-1.6,0.2-3.9,2.6-3.8l0,0c-1,1.3-2.5,4.2,0.5,3.9   c0.2-0.7,0.3-1.5,0.5-2.2C560.6,78.9,560.9,78.9,561.2,78.9z" />
	<path fill="#291F1B" d="M562.7,87.2c1.5,4.3,2.1,8.6,5.7,12c-4.5-1.4-5.8-6-7.1-9.8c0.7,0,1.8-0.4,0.7-0.9   C562.1,88.2,562.4,87.7,562.7,87.2z" />
	<path fill="#8E6B5E" d="M562.7,87.2c-0.3,0.5-0.6,0.9-0.8,1.4c-1.3,0.2-1.8-0.9-2.6-1.4c1.1-1.3,0.3-2.5-0.1-4.2   c1.2,0.3,2,0.5,2.8,0.8C561.9,85,561.9,86.2,562.7,87.2z" />
	<path fill="#816256" d="M559.2,77.4c-2.4-0.2-1.9,2.2-2.6,3.8c-0.1-1.4-0.2-2.7-0.3-4.4c-0.4,0.5-0.6,0.7-1,1.1   c-0.5-1.4-0.4-3.1,1.1-3.9C557.2,75.1,558.2,76.3,559.2,77.4z" />
	<path fill="#382B26" d="M559.2,77.4c-1-1.2-1.9-2.3-2.8-3.5c0.8-0.1,1.3,0.1,2,0.4c0.1-0.7,0.1-1.2,0.1-1.8c0.5-0.3,1-0.6,1.4-0.9   c0,0.6-0.1,1.1-0.1,1.7c0.5,0.9,1.1,1.8,1.6,2.7c-1.2,0.1-1.2,0.1-0.6,1.4C560.2,78.4,559.7,77.4,559.2,77.4L559.2,77.4z" />
	<path fill="#6F554A" d="M555.6,83.1c0.2-0.2,0.4-0.5,0.7-0.8c1.2,0.6,2.7,2.5,1.6,3.5C557,84.9,556.4,84,555.6,83.1z" />
	<path fill="#95C6C6" d="M595.6,17.4c-0.3,0.2-0.6,0.3-1,0.5c-0.1-0.2-0.1-0.4-0.2-0.6c0.3-0.1,0.7-0.2,1-0.3   C595.5,17.1,595.5,17.3,595.6,17.4z" />
	<path fill="#6A574E" d="M558.4,73.1c0,0.4-0.1,0.8-0.1,1.3c-0.5-0.2-0.9-0.3-1.3-0.5C557.2,73.1,557.9,73.2,558.4,73.1z" />
	<path fill="#181311" d="M559.8,106.2c0.1,0.8,0.2,1.7-0.6,2.2C559.2,107.7,558.8,106.8,559.8,106.2z" />
	<path fill="#382B26" d="M562.6,76c-0.4,0.8-0.9,0.9-1.4,0.1C561.7,76,562.1,76,562.6,76z" />
	<path fill="#181311" d="M559.1,109.1c-0.2,0.5-0.4,1-0.6,1.5C558.4,109.9,558.4,109.3,559.1,109.1z" />
	<path fill="#485353" d="M543.7,96.4c-0.7-0.2-0.7-0.7-0.2-1.2C543.6,95.6,543.6,96.1,543.7,96.4L543.7,96.4z" />
	<path fill="#181311" d="M558.4,111.2c-0.2,0.3-0.4,0.6-0.5,0.9C558,111.8,558.2,111.5,558.4,111.2z" />
	<path fill="#B28C7D" d="M737.3,133.8c-0.1,0-0.4,0-0.5,0c-0.3-0.3-0.7-0.7-1-1c-0.1-0.4-0.1-0.8-0.2-1.4c-5.1,8.2-13.5,7-21.8,10.1   c-14.8,5-30.2,9.1-45.8,10.3c-6.6,1.8-13.1,4.8-19.7,2c3.7-1.8,4.7-3.5,7.8-6.2c-12-0.7-23.5,5.8-35.1,1.2c-0.3-3.3,2-5.5,4.4-7.6   c-6.7-0.9-6.5,1.9-11.3,4.2c-3.4-5.5-7.7-9.8-11.9-14.7c26.9-4.5,14.7,10.4,52.2,4.9c5-0.1,10.1,0.7,15-0.5   c20.7-8.6,43.7-0.4,64.6-6.9c4.3-2.4,8.4-3.9,13.5-2.9c-0.3,0.5-0.6,1-1.1,1.6c2.5,2.1,5.1,0.9,7.5,0.2c6.5,2.4,12.5,5.4,19,7.9   c-0.1,0.2-0.2,0.5-0.4,0.7c-1,0.2-2-0.5-2.8,0.6c-0.2,0-0.5,0-0.7,0c-4.5-3.3-10.4-2.5-15.7-2.8c0.2-1.1,2.1-4-0.1-3.9   c-1.1,1.1-1.3,2.3-1,3.8c-1,1.3-2.7,0.9-3.6,2.2c-0.2,0-0.5,0-0.7,0c-0.2-0.2-0.5-0.5-0.7-0.7c1.3-4-0.5-8.2-5.1-6.9   c-1.2,1.7-2.3,3.2-3.4,4.8C738.1,133,737.4,133,737.3,133.8z M652.4,153.8c0.6,0.8,2.1,0.2,1.5-0.8   C653,152.5,652.7,153.1,652.4,153.8z M668.1,140.4c1.1-1.1,1.5-1.7,0.9-2.6C668.1,138.4,668,139.1,668.1,140.4z" />
	<path fill="#977264" d="M621,149.1c11.6,4.7,23.1-1.9,35.1-1.2c-3.1,2.7-4.2,4.5-7.8,6.2c6.6,2.7,13-0.3,19.7-2   c21.9-2.1,43.9-9.1,64.3-16.2c0.2,1.2,0.1,2,0.1,3.4c-20.6,5.3-39.4,17.2-61.3,16.1c-14.9,3.2-29.1,12.3-44.8,10.8   c-2.8-3.7-4.9-7.8-7.3-11.9C619.6,152.5,620.3,150.8,621,149.1z M636.5,155.9c-1.1-0.3-1.9-1.7-3.2-1   C634.9,156.7,635.1,156.8,636.5,155.9z M640.5,155.9c-0.8-0.5-1.6-1.5-2.8-0.8C638.4,156.3,639.3,156.4,640.5,155.9z M646.4,154.8   c0.2-0.1,0.4-0.2,0.6-0.3c-0.2-0.4-0.5-0.2-0.8-0.1C646.3,154.5,646.4,154.6,646.4,154.8z" />
	<path fill="#957062" d="M614.1,145.7c4.8-2.4,4.6-5.1,11.3-4.2c-1.7,1.4-2.2,2.7-4.2,3.2c0.2,0.4,0.4,0.7,0.6,1.1   c-0.3,0.5-0.6,1-0.9,1.6c-1.9,0.5-2.2,2.4-3.5,3.8C615.8,149.6,615.3,147.5,614.1,145.7z" />
	<path fill="#977062" d="M748.6,135.9c0.9-1.5,2.6-1,3.6-2.2c5.7,0.5,12-0.7,16.8,2.8C762.3,137.3,755.4,135.4,748.6,135.9z" />
	<path fill="#AC887A" d="M739.4,135.2c2-1.2,2.5-3.4,3.5-5.6c3.6,0.6,3.2,3.4,0.9,5.3c0.1,1,0.8,0.7,1.3,0.9   c-0.1,0.7-0.2,1.3-0.2,1.9c-3.8,1.1-6.8-1.4-10.1-1.5c-0.1-0.8-0.5-1.2-0.1-1.8c0.4,0.5,0.8,1,1.2,1.5   C737.1,135.6,738.5,136.4,739.4,135.2z" />
	<path fill="#926E61" d="M734.4,135.1c0.1,0.3,0.1,0.7,0.3,1.3c3.3,0,6.3,2.4,10.1,1.5c0.1-0.6,0.1-1.3,0.2-1.9   c0.2,0,0.4-0.1,0.6-0.1c0.1,0.8,0.1,1.6,0.2,2.4c-1.1,0.9-2.1,1.8-3.3,2.6c-1.7,0-3.4,0-5.2,0c-1.8-1-2.4-2.8-3.6-4.2   C734,136.1,734.2,135.6,734.4,135.1z" />
	<path fill="#342520" d="M585.2,109.7c0.3,0.2,0.5,0.5,0.8,0.7c-1.1,0.6-0.7,2-1.5,2.9c0-0.6-0.1-1.2-0.1-2   c-2.8-2.1-6.4-3.6-8.7-6.8C579,106,581.7,108.8,585.2,109.7z" />
	<path fill="#685349" d="M747.2,135.1c0.2,0.2,0.5,0.5,0.7,0.7c-0.1,1.2,0.4,2.9,1.5,1.4c1.9,0.1,3.8,0.9,5.9,0   c-0.8,3-5.3,1-7.5,1.6C746.9,137.4,747.3,136.3,747.2,135.1z" />
	<path fill="#8A7165" d="M773.3,132.2c1.8,0.2,3.3,0.8,5.2,1.9c-1.2,0.7-1.9,1.2-2.8,1.7c-0.3-2-1.9-2.5-3.7-2.8   C772.4,132.6,772.8,132.4,773.3,132.2z" />
	<path fill="#2E1F1C" d="M734.4,135.1c-0.2,0.5-0.5,1-0.7,1.5c-0.4,0-0.9,0-1.3,0c0-0.3-0.1-0.5-0.1-0.8c0.9-1.5,1.2-3.3,3.2-4.3   c0.1,0.6,0.1,1,0.2,1.4C735.4,133.6,734.6,134.2,734.4,135.1z" />
	<path fill="#443933" d="M773.3,132.2c-0.5,0.2-0.9,0.5-1.4,0.7c-1.6-0.5-3-1-4.6-1.5c0-0.1,0-0.2,0-0.3c0.6,0,1.3-0.3,1.7-0.1   C770.4,132,772.1,131,773.3,132.2z" />
	<path fill="#926E61" d="M734.6,134.5c0.4-0.6,0.8-1.1,1.2-1.7c0.3,0.3,0.7,0.7,1,1c-0.1,0.3-0.3,0.6-0.5,1c1,0.6,2,0.3,3.1,0.4   c-1,1.2-2.2,0.4-3.6,0.7C735.5,135.5,735.1,135,734.6,134.5z" />
	<path fill="#977062" d="M769.7,136.5c0.8-1.1,1.9-0.5,2.8-0.6C771.7,136.8,770.7,136.5,769.7,136.5z" />
	<path fill="#926E61" d="M737.3,133.8c0.2-0.8,0.8-0.8,1.5-0.8C738.4,134.5,738.3,134.5,737.3,133.8z" />
	<path fill="#38312C" d="M780.7,134.3c-0.3,0.2-0.5,0.4-0.8,0.6C779.3,134.3,780.3,133.4,780.7,134.3z" />
	<path fill="#685349" d="M748.6,135.9c0.3,0,0.6,0.1,0.9,0.1c0,0.4,0,0.8-0.1,1.2l-0.2,0.1C748.9,136.8,748.8,136.4,748.6,135.9   L748.6,135.9z" />
	<path fill="#010100" d="M628.8,186.5c0.5,0.3,1,0.5,0.3,1.3C629,187.2,628.9,186.9,628.8,186.5L628.8,186.5z" />
	<path fill="#8F6B5E" d="M516.3,339.8c0.4,1.9,3.6,5,2,6.4c-4.5-3-6.3-7.4-6.3-12.7c1.3,2.5,2.4,5,3.9,7.8   C516.1,340.6,516.2,340.2,516.3,339.8z" />
	<path fill="#4E3932" d="M510.4,335.9c-1.7-1.9-1.2-3.8-1.9-5.3C510,331.9,510.8,333.4,510.4,335.9z" />
	<path fill="#010100" d="M506.4,318.8c0,1.2,0,2.3,0,3.5C505.4,320.9,505.4,320.1,506.4,318.8z" />
	<path fill="#4E3932" d="M508.6,328.5c0.6,0.1,1.2,0.2,1.3,0.9C509.3,329.4,508.6,329.4,508.6,328.5z" />
	<path fill="#453531" d="M599.4,77.5c-0.6,0.1-1.2,0.2-1.9,0.3c-0.2,0.8-0.3,1.5-0.5,2.3c-2.4-1.6-1.3-4.9,0.6-6.9   c0.2,0.8,0.4,1.2,0.6,1.7c0.9-0.2,0.2-1.5,1.3-1.5c0.2,0.7,0.4,1.4,0.6,1.9c-0.4,0.3-0.9,0.6-1.3,0.9   C599,76.7,599.2,77.1,599.4,77.5z" />
	<path fill="#453531" d="M599.9,73.2c1.2-1.3,3.3-0.5,4.9-0.8C604.1,73.7,601.3,74.1,599.9,73.2z" />
	<path fill="#BFCBCB" d="M599.4,77.5c-0.2-0.4-0.4-0.8-0.7-1.3c0.4-0.3,0.9-0.6,1.3-0.9c0.3,0.7,0.8,1.4,0.7,2.1   C600.2,77.5,599.7,77.5,599.4,77.5L599.4,77.5z" />
	<path fill="#2B2523" d="M601.3,68.9c0.5-0.2,1-0.4,1.5-0.5C602.5,69.1,601.9,69,601.3,68.9z" />
	<path fill="#453531" d="M600.6,76.8c-0.2-0.5-0.4-1-0.7-1.5C600.8,75.5,600.6,76.2,600.6,76.8z" />
	<path fill="#332521" d="M599.3,103.5c-0.1-0.3-0.1-0.6-0.2-1.2c-3.9,2.7-7.4,0-11-1.7c2.8-1.5,11.1,5.2,11.2-2.1   c0.5,0.7,1,1.4,1.4,2C600,101.5,600.3,102.8,599.3,103.5z" />
	<path fill="#775C52" d="M600.6,100.6c-0.4-0.7-0.9-1.4-1.4-2l0,0c0.3-0.8,1.8-0.8,1.4-2c0.5-0.5,0.9-1,1.4-1.5   C602.2,97,600.9,98.6,600.6,100.6z" />
	<path fill="#D69479" d="M615.3,416c-4.6,0.7-8.1-3.6-8.4-7.9c0.7-0.7,1.2-1.3,1.8-1.9c1,0,1.9,0,2.8,0c1.9,1.8,4.1,3.4,3.9,6.2   c0,0.6,0.2,1.2,0.8,1.5C615.9,414.6,615.6,415.3,615.3,416z" />
	<path fill="#D69479" d="M544.5,408.2c-3.7,0-5.5-7.1-3-9.6c1.6-0.4,2.9-0.6,3.5,1.2C542.2,401.4,544.7,405.5,544.5,408.2z" />
	<path fill="#211713" d="M539.3,460.9c-0.4-3.5,1.5-7,3.3-9.8C545.3,451.8,541.2,460.5,539.3,460.9z" />
	<path fill="#271B16" d="M544.5,408.2c0.2-2.6-2.2-6.7,0.6-8.3c0.3,0.5,0.6,0.9,0.8,1.4c-0.4,2.3,1.2,5.8-0.8,7.6   C545,408.5,544.8,408.4,544.5,408.2z" />
	<path fill="#30211C" d="M623,401.7c1.4,3.5-0.6,6.5-3.1,9.1C619.9,407.3,621.2,404.6,623,401.7z" />
	<path fill="#C58870" d="M545.2,408.7c1.9-1.8,0.3-5.3,0.8-7.6c1.2,2,0.3,4.4,1.1,6.6c0.1-0.9,0.2-1.8,0.4-2.6   c1.5,0.5,1.3,2.5,1.2,3.9c-1.4-0.3-1.5,1-1.5,2C546.4,410.3,545.7,409.5,545.2,408.7z" />
	<path fill="#A77260" d="M559.4,304.4c3.7,1.1,6.6,3.1,10,5.8C565.5,309.5,562.4,306.8,559.4,304.4z" />
	<path fill="#33211C" d="M612,449.1c2.4-0.2,2.7,3,2.8,4.9c-0.1,0.2-0.2,0.4-0.1,0.6c-0.5-0.2-0.9-0.4-1.4-0.6   C612.9,452.3,612.5,450.7,612,449.1z" />
	<path fill="#2C1C18" d="M547,411c0-1.1,0.1-2.3,1.5-2c0.3,1.4,1.4,2.6,0.2,4.2C547.5,413,547.3,412,547,411z" />
	<path fill="#291D18" d="M538.5,463.2c0.4,1.7,0.7,3.1-0.7,4.8C537,466.5,536.4,463.6,538.5,463.2z" />
	<path fill="#281A16" d="M614.2,458.5c2.3,1.2,3,2.4,2.7,4.4C615.4,462.1,615.4,462.1,614.2,458.5z" />
	<path fill="#33211B" d="M587.4,312.6c-0.6,0.5-1.2,0.9-2.2,1.7c0.1-1,0.1-1.4,0.1-1.8c1-0.7,1.2-2.2,2.6-2.3   C588.6,311.2,587.5,311.7,587.4,312.6z" />
	<path fill="#32221D" d="M534.6,477.4c-0.5-1.4-0.4-2.5,0.4-3.9C536.5,475.7,536.4,476.2,534.6,477.4z" />
	<path fill="#55382F" d="M567,313.8c1.4,0.8,2.9,1.2,4.3,2.8c-2.1-0.1-3.3-1.2-5.1-2C566.4,314.3,566.7,314.1,567,313.8z" />
	<path fill="#4E332B" d="M615.3,416c0.3-0.7,0.6-1.4,0.9-2C618,415.2,616.5,417.7,615.3,416z" />
	<path fill="#A6705E" d="M567,313.8c-0.3,0.3-0.5,0.5-0.8,0.8c-0.8-0.4-1.8-0.5-1.9-1.8C565.2,313,566.2,312.9,567,313.8z" />
	<path fill="#1F1814" d="M617.6,468.6c-1.6-0.7-1.4-1-1.9-2.4C616.9,466.7,616.9,466.7,617.6,468.6z" />
	<path fill="#D69479" d="M613.4,453.9c0.5,0.2,0.9,0.4,1.4,0.6C614.2,455.7,613.2,455,613.4,453.9z" />
	<path fill="#553B33" d="M617.4,472.6c-0.4,0.3-0.7,0.3-0.9-0.2C617,472.2,617.2,472.1,617.4,472.6z" />
	<path fill="#0D0908" d="M572.6,193.7c-9.1-0.2-20,0.1-25.3-8.5c0.1-0.6,0-1.3,0.8-1.5c7.8,11.1,22.8,5.5,33,7.8   C578.4,192.8,575.4,193,572.6,193.7z" />
	<path fill="#E7CDBC" d="M587.7,230.4c3.2,9.4-0.3,19.3,0.4,29.2C585.3,258.1,585.1,232.5,587.7,230.4z" />
	<path fill="#3B3632" d="M607.4,280.4c0.3-3.6,1.9-6.7,2.4-11.1C612.8,272.9,609.6,277.3,607.4,280.4z" />
	<path fill="#3B3531" d="M603.9,249.5c-0.5-2.3-1.7-4.6-1.7-7.6C604.1,244.7,604.7,247,603.9,249.5z" />
	<path fill="#483D39" d="M602,240.2c-1.6-2.3-1.6-2.5,0-4.1C603.2,237.7,603.2,237.7,602,240.2z" />
	<path fill="#3D3934" d="M554.2,271.7c0.2-0.4,0.4-0.7,0.6-1c1.1,0,1.5,1.1,1.3,2.9c-0.3,0-0.7-0.1-1-0.1   C554.8,272.9,554.5,272.3,554.2,271.7z" />
	<path fill="#1B0908" d="M583.8,190.1c-0.4-0.1-0.8-0.3-1.4-0.4c0.7-1.1,1.5-1.6,2.7-1.3c-0.4,0.7-0.7,1.1-0.9,1.6H584L583.8,190.1z   " />
	<path fill="#50453F" d="M559.1,281.5c0.1-0.6-0.2-1,0.4-1.5c1,0.7,2.3,2.5,1.2,3.4C560.1,282.9,559.6,282.2,559.1,281.5z" />
	<path fill="#2D2321" d="M601.3,290.6c0.4-0.6,0.8-1.2,1.3-1.9C603.1,290,603.1,290,601.3,290.6z" />
	<path fill="#98867D" d="M602.3,223c0.7,1.2,0.6,1.2,0,2.4C601.5,224.2,601.1,224,602.3,223z" />
	<path fill="#4D3D39" d="M605.4,284c0.7,1.2,0.3,1.9-1,2.5C603.7,285.2,604.2,284.4,605.4,284z" />
	<path fill="#412825" d="M602.8,194.3c0.1-1.7,3.3-0.2,2.1,0.7C604.2,194.8,603.5,194.6,602.8,194.3z" />
	<path fill="#4E4743" d="M602.2,229.7c0-0.6,0-1.1,0-1.7c0.2,0,0.3,0,0.5,0c0,0.6,0,1.1,0,1.7C602.5,229.7,602.4,229.7,602.2,229.7z   " />
	<path fill="#40423D" d="M597.9,192.1c0.7-1.2,1.3-1.2,2,0C599.3,192.1,598.6,192.1,597.9,192.1z" />
	<path fill="#A58077" d="M602.1,233.7c0.1,0.1,0.2,0.3,0.4,0.4c-0.3,0.1-0.6,0.4-0.8,0C601.8,233.9,602,233.8,602.1,233.7z" />
	<path fill="#E5CBBA" d="M602.9,194.3c0.5,0.2,1,0.4,1.5,0.6C603.6,194.9,603.1,195,602.9,194.3z" />
	<path fill="#93746C" d="M539.4,168.9c-0.1,0.2-0.2,0.4-0.3,0.6c-0.1-0.2-0.2-0.4-0.3-0.6C539,168.9,539.2,168.9,539.4,168.9z" />
	<path fill="#362A25" d="M514.2,229.4c0.1-1.3-0.7-3.6,1.3-3.4c0.9,1.8,1.4,3.5,1.2,5.8C515.1,231.3,514.8,230.5,514.2,229.4z" />
	<path fill="#3D2D28" d="M514.1,223c-0.3,0-0.7,0-1.2-0.1c-0.5-1.8-2.2-3-2.3-5.4c0.6,0.3,1,0.5,1.4,0.7   C512.7,219.9,514.5,221,514.1,223z" />
	<path fill="#503C35" d="M514.6,323.3c1.9-0.5,2,0.9,1.3,2.2C515.5,324.9,515.1,324.3,514.6,323.3z" />
	<path fill="#634E45" d="M515.1,292.6c-0.2-1.1-0.6-1.6,0.8-1.9c0,0.8,0,1.4,0,1.9C515.7,292.5,515.4,292.6,515.1,292.6z" />
	<path fill="#88675A" d="M518.2,340.7c-0.2-0.3-0.3-0.5-0.5-0.8C518,340.1,518.2,340.4,518.2,340.7z" />
	<path fill="#2B2421" d="M548,183.6c-0.8,0.2-0.8,0.9-0.8,1.5c-1.2-2-2.4-4.2-3.6-6.2c0.3-0.3,0.7-0.7,1-1   C545.6,179.8,546.8,181.8,548,183.6z" />
	<path fill="#342A27" d="M541.1,173.9c-0.3-0.6-0.7-1.1-1-1.7C541.5,171.6,541.6,171.7,541.1,173.9z" />
	<path fill="#533F3A" d="M544.5,178c-0.3,0.3-0.7,0.7-1,1c-0.9-1.4-0.9-1.4-1.1-3.1C543.3,176.7,543.9,177.3,544.5,178z" />
	<ellipse fill="#53413C" cx="553.2" cy="266.5" rx="0.3" ry="1.2" />
	<path fill="#7B544E" d="M587.3,186.9c-0.1,0.1-0.2,0.2-0.3,0.3c-0.1-0.1-0.2-0.2-0.2-0.3C586.9,186.9,587.1,186.9,587.3,186.9z" />
	<path fill="#2E201D" d="M563.6,131.5c-4.9,0.3-4.9,0.3-7-1.2C557.7,128.5,561.8,129.8,563.6,131.5z" />
	<path fill="#3D2723" d="M569.6,132.6c-1.2,0.8-2.1,0.7-3.4,0C567.7,131.4,568.3,131.5,569.6,132.6z" />
	<path fill="#3E322C" d="M574.7,132.8c-1.9,1.2-1.9,1.2-2.6-0.2C572.8,132.1,573.6,132.1,574.7,132.8z" />
	<path fill="#12100E" d="M523.9,555.8c-0.6,0.1-1.2,0.2-1.6,0.2c-4-4,10.4-10,12.2-6.5C531.9,552.3,524.7,551.2,523.9,555.8z" />
	<path fill="#141210" d="M529,553.2c1.9-0.2,4.1-0.6,5.9,0.3c1.1,3.4-8,0.6-9.7,6.4c-2.1,0.1-1.4-2-1.2-3.3   C525.4,555.1,527.1,554.1,529,553.2z" />
	<path fill="#120E0C" d="M525.4,563.8c-1.9-3.7,11.9-9.3,11.2-4.6C533,560.6,529.5,562.1,525.4,563.8z" />
	<path fill="#1D1916" d="M528.5,568.2c-0.8-1.3-0.5-2,0.3-2.4c3-0.9,6.2-4.4,9.3-2.6C536,566.3,531.8,566.9,528.5,568.2z" />
	<path fill="#191714" d="M530.3,570.7c2.3-2.1,6.5-4,9.7-2.2C539.8,570,529.8,573.7,530.3,570.7z" />
	<path fill="#D0CBB2" d="M529,553.2c-1.9,1-3.6,1.9-5,3.4c-0.6-2.5,1.7-3.4,3.6-4.1C528,552.7,528.5,552.9,529,553.2z" />
	<path fill="#15120F" d="M646.4,556.3c-2.7,2-5.2,3.5-8,4.6c-0.4-0.5-0.7-0.9-1-1.3c1.4-2,2.6-2.8,7.7-4.9   C645.4,555.3,645.8,555.8,646.4,556.3z" />
	<path fill="#2A2722" d="M642.8,561.3c1-2.9,7.8-3.4,5.3-0.3C646.2,561.6,644.6,563,642.8,561.3z" />
	<path fill="#332822" d="M514.2,174.6c-0.3,0.1-0.7,0.2-1.1,0.4c-0.8-1.5-0.1-3-1.8-4c1-1,0.7-2.1,0.7-3.4   C513.4,170.3,514.3,171.8,514.2,174.6L514.2,174.6z" />
	<path fill="#070404" d="M511.9,167.6c0,1.2,0.3,2.4-0.7,3.4C510.7,169.9,510.1,167.8,511.9,167.6z" />
	<path fill="#492E29" d="M569,99.9c0.5,0.2,1,0.5,1.6,0.7C569.7,101.4,569.6,101.4,569,99.9z" />
	<path fill="#2F1C19" d="M568.3,99.2c0.3,0.3,0.5,0.5,0.8,0.8C568.8,99.7,568.6,99.4,568.3,99.2z" />
	<path fill="#241E19" d="M662.5,573.4c-2.9,0.3-5.8,0.7-8.4,0.9c-1.6,0.6-2.1,2.4-4,1.9C648.2,571.6,662.1,569.5,662.5,573.4z" />
	<path fill="#171412" d="M617.7,195c-2.9,1.8-7,0.5-10.3-0.1C610.6,193.6,614.2,194.9,617.7,195z" />
	<path fill="#14100F" d="M588.5,78.1c-3.8,0.5-7.5,0.9-11.2-0.2c-0.5-1.7-0.8-2.3-2.1-3.6C580.3,73.1,588.2,70.5,588.5,78.1z    M578.7,75.8c1.1,1.2,1.9,1.9,3.2,1.5c-0.1-0.8-0.2-1.4-0.3-2.1C580.6,75.3,579.9,75.5,578.7,75.8z M585.8,75.6c-0.2,0-0.3,0-0.5,0   C585.5,75.9,585.6,75.9,585.8,75.6z" />
	<path fill="#8E6D60" d="M599.3,98.5c-0.1,7.2-8.4,0.7-11.2,2.1c-1.1-0.4-0.7-1.3-0.8-2C591.3,98.6,595.3,98.5,599.3,98.5   L599.3,98.5z" />
	<path fill="#332521" d="M599.3,98.5c-4.7-0.2-9.4,0.4-14-0.3c0.7-1.7,0.7-1.7,2.5-1.3c3.3-2.9,6.1-2.8,10.3-3.2   c0.5,0.4,1.2,0.9,1.9,1.4c-0.1,0.2-0.4,0.5-0.4,0.5c-3.7-0.9-7.5-0.7-10.6,2.1c4.2,0.4,8-0.1,11.7-1.3l0,0   C601.1,97.7,599.6,97.7,599.3,98.5z" />
	<path fill="#8B695C" d="M600.7,96.5c-3.7,1.2-7.5,1.7-11.7,1.3c3.1-2.8,6.9-3,10.6-2.1c0,0,0.2-0.3,0.4-0.5   C600.7,95.2,600.7,95.8,600.7,96.5z" />
	<path fill="#1B110F" d="M578.3,68.4c4.1-0.5,9.5-1,12.5,2.4c-0.2,1.2-1.3,1-1.9,0.6C585.4,69.5,581.5,70.3,578.3,68.4z" />
	<path fill="#3B2A26" d="M589.9,86c0.2,1.4-1.3,2.5,0.1,3.9c1.3-0.8,2.6-2.3,4.4-0.5c-1.2,0.7-2.2,1.3-3.4,1.9   C588.1,91.3,586.5,87.3,589.9,86z" />
	<path fill="#392D28" d="M599.3,85.2c0.7,1.1,1.4,2,2,3.1c-0.5,0.9-1,1.6-1.4,2.2c-1.9-0.2-2.3-0.1-4.6,0.1c1.6-1.2,2.4-1.8,3.4-2.5   c0.3,0.2,0.5,0.4,0.8,0.6c0.3-1.1,0.3-1.1-1-2.9C598.8,85.7,599,85.5,599.3,85.2z" />
	<path fill="#846458" d="M559.2,77.5c0.5,0,1,1.1,1.5,0c0.7,0.3,0.7,0.9,0.6,1.5c-0.3,0-0.7,0.1-1.2,0.1c-0.2,0.8-0.3,1.6-0.5,2.2   C556.7,81.7,558.1,78.7,559.2,77.5z" />
	<path fill="#382F2A" d="M578.3,68.4c1,0.4,1.9,0.8,2.7,1.2c-2.3-0.2-4.4,1-6.5,1.5C573.4,69.1,577.1,69.3,578.3,68.4z" />
	<path fill="#70564C" d="M599.3,85.2c-0.3,0.2-0.5,0.5-0.8,0.7c-0.9-0.8-1.4-1.9-1.3-3.1C598.4,83.5,598.4,83.5,599.3,85.2z" />
	<path fill="#453531" d="M599.3,77.4c0.2,0,0.5,0,0.7,0.1c-0.1,0.2-0.3,0.3-0.4,0.5C599.5,77.8,599.4,77.6,599.3,77.4z" />
	<path fill="#3B2D28" d="M753.3,133.6c-0.4,0-0.8-0.1-1.1-0.1c-0.3-1.5,0-2.7,1-3.8C755.4,129.7,753.5,132.6,753.3,133.6z" />
	<path fill="#654B43" d="M652.4,153.8c0.1-1,1.7-1.4,1.7-0.2C653.7,154.4,653,154.3,652.4,153.8z" />
	<path fill="#140F0E" d="M668.1,140.4c-0.2-1.4,0-2,0.9-2.6C669.6,138.8,669.2,139.5,668.1,140.4z" />
	<path fill="#56423A" d="M621.9,145.7c-0.2-0.4-0.4-0.7-0.6-1.1c0.4-0.1,0.9-0.3,1.3-0.4C622.3,144.7,622.1,145.2,621.9,145.7z" />
	<path fill="#977062" d="M748.6,135.9c0.2,0.5,0.4,1,0.6,1.5c-0.9,1.6-1.5-0.7-1.3-1.5C748.1,135.9,748.3,135.9,748.6,135.9z" />
	<path fill="#261613" d="M636.5,155.9c-1.4,0.8-1.7,0.7-3.2-1C634.7,154.3,635.4,155.7,636.5,155.9z" />
	<path fill="#220F0D" d="M640.5,155.9c-1.2,0.5-2,0.5-2.8-0.8C638.8,154.4,639.6,155.4,640.5,155.9z" />
	<path fill="#4A2E28" d="M646.4,154.8c-0.1-0.1-0.2-0.3-0.3-0.4c0.3-0.1,0.7-0.2,0.8,0.1C646.8,154.6,646.6,154.7,646.4,154.8z" />
	<path fill="#CDD7D7" d="M578.7,75.8c1.3-0.3,1.9-0.5,2.9-0.7c0.1,0.8,0.2,1.4,0.3,2.1C580.5,77.6,579.8,77,578.7,75.8z" />
	<path fill="#7D9292" d="M585.8,75.6c-0.2,0.3-0.3,0.3-0.5,0C585.4,75.6,585.6,75.6,585.8,75.6z" />
</g>
<g id="a_00000131325775741266442000000000582260791769448353_">
	<path d="M178.1,99.4c-1.4-0.2-2.7-0.3-4-0.5c-0.3,0.7-0.5,1.3-0.7,1.8c-2.4-0.1-2.3-2.8-5.3-2.4c-0.5,0.4-1,0.8-1.7,1.4   c-1.8-1.6-2-4.1-4-5.1c-0.9,1,0.4,1.8,0.8,2.7c-2.5,2.3-3.6-2.9-5.9-3.8c-0.2,0.7-0.4,1.1-0.6,1.6c-2.5,0.6-2.7-2.8-4.9-3.2   c-1.7-1.8-2.4-4.5-3.2-6.9c-5,0.5-5-5.1-5.1-8.7c1-1.6,1-2.6,0.1-4.7c-0.3,0.6-0.7,1.1-1,1.7c-0.2,0-0.5,0-0.7,0   c-1.6-3.9-0.7-6.6-0.2-11.2c-0.9,0.6-1.4,0.9-1.8,1.2c-3.3-1.8,0.6-7.8-1-10.5c-2.5-5.3,2.9-8.5,3.3-13.3c0.1-1.8,3.3-3.4,2.7-5   c-0.8,0.5-1.5,1-2.2,1.5c-1.5-1.8,1.2-3.5,1.8-5.5c1.4-0.8,4.1-0.3,4.8-2.2c-0.9,0-1.7,0-2.4,0c0-0.4,0-0.9,0.1-1.3   c2.2-0.2,4.2-0.4,5.7-2.3c-0.7-0.5-1.3-0.9-1.8-1.3c0.2-1.5,1.6-1.8,2.3-2.7c2,1.3,4.1-1,1.3-1.4c-1.1-1.1-0.4-1.8,0.6-2.7   c2.9,0.4,5.5-1.1,8.4-1.5c0.2-1.1,0.4-1.8,0.6-2.7c0.5-0.2,1-0.5,1.6-0.8c0.6,0.4,1.2,0.7,1.9,1.2c3-1.3,6.4-4.3,9.9-2.9   c2.2-2,4.8-1.4,6.7,0.8c3.9-0.4,8.1-4.5,11.9-1.9c0,0.4,0,0.7,0,1.2c-1,0.4-1.8,0.8-3,1.3c2.4,0.7,2.4,0.7,4.5-1   c2.5,0,6.7-3.1,8.4-0.4c-1.1,0.5-2.1,1-3.2,1.5c0.1,1.3,1.2,1.4,1.6,1.3c3.4-0.3,7,1.2,10.4,1c1,0.9,1.8,1.6,2.5,2.3   c-0.3,0.5-0.5,0.9-0.7,1.3c-0.9-0.1-1.8-0.3-2.6-0.4c-0.3,0.5-0.6,1-0.2,1.6c0.9-0.1,1.8-0.2,2.7-0.3c2.5,1.7,4.9,3.6,7.9,4.6   c-0.1,0.7-0.2,1.2-0.3,1.8c2.1,1.4,3,3.7,4.5,6c-0.8,0.3-1.4,0.5-1.8,0.6c0.3,2.3,2.3,2.2,0.3,5.3c0.5,0.4,1.2,0.9,1.9,1.5   c0,1.8,0,3.7,0,5.8c-0.4,0.3-0.9,0.6-1.3,0.9c0,2.9,1.6,5.2-2.5,6c1.4,2.4-0.4,4.5-0.8,6.8c-0.7,0-1.4,0-1.8,0.1   c-0.5,0.8-0.4,1.7-1.1,1.9c-3.8-6.4-3.9-10.7-12.6-8.1c-10.3-3.2-18.7,4.5-24,12.4c0.5,0.7,0.9,1.4,1.4,1.9   c-2.9,0.6,0.9,2.8-0.5,4.6c-0.7,1.2-1.8,2.1-2.1,3.5c0.2,0.5,0.5,1,0.6,1.4c-0.8,1.6-2.2,1.1-3.6,1.3l0,0c-0.3-0.6-0.5-1.5-1-1.8   c-1.3-16.4,15.9-29.5,31.8-27.3c-16.7-10.7-34.7,7.3-35.2,24.4c0.6,0.4,1.1,0.8,1.6,1.1c-3.2,1.5-3.8,4.4-4.1,7.8   c1.4,3.2,4.3,7.1,7.6,8.3c1.4,0.7-0.6,1-1.2,1.2c-0.2,5.7-0.2,11.5-1,17.2C177.5,105.3,180.3,101,178.1,99.4z M174.8,12.2   c0-0.2,0.1-0.5,0.1-0.7c-0.5,0-1,0.1-1.5,0.1c0,0.1,0,0.3,0,0.4C173.9,12.1,174.4,12.1,174.8,12.2z M145.8,39.3   c-1.1-0.3-1.5,0-1.2,1.1C145,39.9,145.4,39.6,145.8,39.3z M140.4,51.5c0.3-0.4,0.6-0.7,1.1-1.2C140.3,50.1,139.9,50.4,140.4,51.5z" />
	<path fill="#010101" d="M125.3,303.4c-4.3-17.8-5.3-36.3-8.3-54.4c-1.2-8.8,1.8-17.1,4.2-25.4c1.6-14.9,1.7-29.8,5.2-44.5   c2.5-16.4-4.2-41.1,16.8-47.3c9.4,0.1,20.8-14.7,27.3-11.9c-0.4,0.4-0.8,0.8-1.3,1.3c4.4,19,18.4,37.6,39.7,36.3   c-0.5-1.5-0.9-2.7-1.3-3.9c0.3-0.3,0.6-0.5,0.8-0.8c0.8,1.7,1.7,3.3,2.4,5c3.5,0,6.9,0,10.2,0c0,0.3,0,0.5,0.1,0.8   c-25.2,8.5-49.5-12.1-53.7-36.6c-2.3,0.3-3.6,1.7-5.1,3.4c7.4,15.1,2.9,34.5-9.1,45.8c-3,62.2,26.6,39.2-8.9,118.7   c31.8-1.3,65.5,10.8,96.3-1.2c-18.1-59.1-14.4-34.2-4.6-89.9c16.8-6.3,12.7-22.2,6.5-35.1c0.3-0.3,0.5-0.6,0.8-0.9   c1.6,2.4,3.1,4.9,4.9,7.5c0.6-14.1-5.1-30.3-20.2-33.6c-0.7-0.8-1.6-1.1-2.7-0.9c4.6,3.2,7.3,7.9,9.8,12.7   c-0.3,0.3-0.6,0.6-0.9,0.9c-5-5.7-8.9-12.7-15.4-17c1.8,7.7,13,19.1,3.4,25.6c-0.5,0-1,0-1.5-0.1c0.8-1.5,1.6-2.8,3.2-3.4   c-0.3-7.9-4.1-14.5-7.5-21.4c-2.6-3.1-7.7-3.3-11-5.9c-0.2,0.6-0.4,1-0.6,1.7c-2.3-5.5-1.9-11.7-0.4-17.3c0.3-0.3,0.6-0.6,0.9-0.9   c0.4,0.1,0.9,0.1,1.3,0.2c0,0.3,0,0.5,0,0.8c-0.1,0-0.4,0-0.5,0c-2.1,3.2-0.4,8.6-1.2,12.7c40.3,17.6,47,15.4,44.9,63.4   c-1.8,17.9,5.7,34.7,7.7,52.2c1.9,17.4,1.2,36.1-0.3,53.1c-2.6-16.3,0.2-32.9-1.6-49.2c-2-16.8-7.9-32.7-8.4-49.8   c-3.5,5.8-10.8,3.4-9.7,11.2c-0.1,0.2-0.2,0.4-0.1,0.6c-12.7,42.2,2.7,50.2,10.9,88.5c0.7,0.1,1.3,0.2,1.8,0.3   c1,10.8-5.4,16.6,0.1,27.3c-0.6,1.3-0.9-0.6-1.4-0.1c-0.1,0.9-0.5,1.8,0.5,2.3c3.3,25.8,3.3,51.9,0.3,77.9   c1.5,42.4,5.3,85.4,2,128.2c1.1,0.3,2.2,0.5,3.4,0.8c2.5,5.5,2,11.5,7,16c4.8,5.1,8.4,12.3,15,14.8c2.8,1.2,6.4,2,6.9,5.6   c10,18.8-32.9,17-41,9.1c-5.5,2-17,1.9-20.3-3.7c3.9-5.9,3.6-12.6,2.9-19.4c-0.2-4.8,3.1-9.1,2.3-14c2-1.7,2-1.7,5.3-0.9   c-2.3-14.4-1.8-29.7-7-43.4c-3.3-8.3-5.9-16.7-8-25.4c-2.9-12.4,0.7-24.9,0.4-37.4c-0.3-9.6-7.2-20-5-29.3   c3.3,8.2,3.5,17.3,6.7,25.6c2.6,11.1-2.8,22.6-0.7,34.1c1.1,16.6,10.3,30.9,12.3,47.3c1.1,8.7,2.4,17.2,3.7,26   c2.3-0.1,4.4,0.8,6.7-0.2c0.6-3.9,3.8-4.6,6.7-5.7c2.9-39.5,0.5-79.1-1.6-118.6c1.6-39.6,4.4-80.7-7-119.4   c-31.4,12.4-65.6-2.2-97.7,1c-2.2,8.3-1.8,12.2,4.1,18.5c-0.3,0.3-0.6,0.6-0.9,0.9c-4-4.2-8.7-8.6-10.5-14.1   c1.3-1.2-0.5-1.8-0.5-2.7c1.5-1.6,1.6-1.8,1.7-3.5c0.3-25.3,7.8-49.6,7.3-75.1c3.2-10.8,4.9-21.7,6.1-32.8   c1.2-5.7-1.8-14.4,3.3-18.3c0.2,0.6,0.4,1,0.6,1.6c8.9-11.3,12-27.3,5.8-40.6c-6.4,5-14.3,5.7-21,9.6c-17.3,10.8-6.2,33-11.8,49.1   c-2.9,12.7-2.1,26.5-4.6,39.1c-1.3,7.1-4.4,14-4,21.6c-0.2,19.9,8.8,39.8,7.8,59.3C126.2,304.2,125.7,303.8,125.3,303.4z    M230.8,243.6c3.4,22.2,14.4,42.4,16.4,65.1c0.1,0,0.3,0,0.4,0c2.9-24.7-15.7-47.2-16.9-71.8C230.2,239.2,229.7,241.5,230.8,243.6z    M255.5,546.6c1.3,0.2,2.3-0.3,3.6-1c-0.5-0.4-0.8-0.8-1-0.7c-4.8,1.7-10.3,0.6-14.2,4.4c-4.5-5.4,9.1-5.5,12.2-6.2   c-0.6-3.3-1.2-6.3-1.7-9.1c-13.2-7.9-7.7,15.1-19.3,12c-1.8-2-1.5-5.5-4.1-6.7c-4.2,11.2-0.9,22.7-5.5,33.5c4.6,1,9.7,3.2,14.3,1.9   c2.4-0.9,4.5-0.4,6.7,0.7c11.4,5.7,26,5.4,37.2-0.6c-1.4-15.2-7.4-5.8-20.6-23.6c-3.3,2.4-6.9,3.1-10.1,5.7   c-3.6-3.8,6.3-6.2,8.7-7.4c-0.4-0.7-0.3-1.3-1.2-1.7c-3.9,1.3-8.5,1.5-12,5c-0.5-0.7-0.9-1.2-1.2-1.7   C248.3,547.7,252.6,547.9,255.5,546.6z M151.6,198.1c-5.7,14.8-5.8,29.9-6.7,45.5c-1.9,17.8-7.1,35.5-6,53.5   C153.9,258.3,169,240.9,151.6,198.1z M241.9,538.1c-2.4,0-3.9,0-6.1,0C234.7,546.2,240,544.3,241.9,538.1z" />
	<path fill="#020101" d="M179.6,418.1c-3.1,9.5-4.6,20.6-10.9,28.5c-3.3,9.1-0.9,19.1-4,28.3c-7.2,21.6-13.1,43.8-12.1,66.8   c5.1-0.4,3.9,6.6,5.9,9.7c2.9,5.3,5.8,10.6,8.6,16.1c5.1,8.3,11.3,9.9,6.6,21.1c-12.5,3.8-26.7,4.6-39.2,0.9   c-0.4-1.4-0.8-2.7-1.2-4.1c-2.5-0.6-5-1.1-7.2-1.7c-2-5.5,3.2-11.4,2-17.3c-0.4-3.4,0.3-6.8-0.5-10.1c-0.4-2.3,2.4-3.2,4-4.4   c4.1-28.8-4.2-58.7-1.2-88c1.5-16.3,9.9-30.6,14-46c3.4-15.1-1.6-30.2-2.3-45.4c-1.5-7.6,0.1-16.4-2.9-23.5c0.5-1,1-1.9,1.4-2.9   c1,1.1,1.6,2.4,3,2.8c0.7-1.3,1-2.4,2.7-2.8c1.4,0.9,0.1,2.4,0,3.8c-0.9,0.7-1.8,1.5-2.9,2.3c4.1,59.5,9.9,49-9.5,107.1   c-5.4,28.1,2.9,57.6,1.4,85.4c1.3-2.6,1.4-5.3,2.3-7.8c2.5-2,6.1-2.4,9.1-3.3c0.8,0.8,1.3,1.4,1.9,2c1.8-19.8,6-38.7,12.7-57.5   c4-10,1.5-21,4.3-31c5.2-10.1,9.2-20.6,13-31.3c0.2,0,0.5,0,0.7,0l0,0C179.6,416.6,179.6,417.3,179.6,418.1z M134.4,555.5   c-0.7,0.1-1.4,0.2-2,0.3c-0.9-0.1-1-1.5-2.1-1.1c-0.3,9,0.8,17.9-2.5,26.9c1.7,0.3,3.3,0.6,5.2,0.9c0.2-1.6,0-2.2,1-3.5   c2,2.8,1,6.2,2.7,8.9c11.4,2.2,24.5,2.5,35.2-1.7c-3.4-0.2-6.5-0.3-9.6-0.4c-1.2,1.1-2.4,2.3-4.4,1.3c0.5-1.8,2.1-2.1,2.9-3.1   c3.1-0.8,9.7,1.8,11.7,0c1.4-2.8,1.1-5.6-1.3-7.7c-7.8-8.8-13.5-20.8-17-31.9c-3.4-2-5.4-5.2-7.9-7.9c-2.1,0.7-4.5,1.1-6.5,2.4   C139.4,544.6,137.2,550.6,134.4,555.5z M134,552c1.5-1.6,1.2-3.2,1.6-4.9c-1.5,0.2-1.5,0.2-2.4,3.3   C133.4,550.9,133.7,551.4,134,552z" />
	<path fill="#030202" d="M214,402.4c-1,0.8-0.8,1.8-0.8,3c-5.9-18.7-12-37.6-16.5-56.8c-5.1,20.6-7.6,42.6-14.5,63   c-0.7,0.3-0.7,0.9-0.6,1.5l0,0c-0.8,0.2-0.8,0.8-0.7,1.5l0,0c-0.8,0.2-0.9,0.8-0.8,1.4l0,0c-0.3,0-0.5,0-0.8,0l0,0   c0.1-0.7-0.3-1.6,0-2.1c1-0.5,0.7-1.4,0.6-2.1l0,0c5.9-19.7,9.9-42.4,13.8-63.5c3.4-10.6,1-25.1,9.5-33   C191.1,344.3,207.9,373.6,214,402.4z" />
	<path fill="#0F0C0B" d="M257.6,292.8c1.8-5,0-11.6,0.8-17c0.5,14.9,1.1,28.9,9,42.2c-2.3,4.4-1.7,9.1-2.1,13.7   c-2.4,4.3-9.5,18.5-12.8,7.9c-0.7,3.2,0.2,6.4-0.3,9.5c-1.8-3.3-0.1-8.3-0.7-12.2c1.7-2.6,3.2-5.8,5.5-8c-0.3-2.3,1.1-5.9-2-5.9   c-1.2-1.7-0.9-3.5-0.5-5.5c0.7-0.5,1.4-1,1.9-1.4c6.2,5.4,5.7,15.3,1.5,21.7c-0.2,0.5,0,1.1,0.1,2.2   C272.1,320.6,258.4,311.5,257.6,292.8z M258.4,322.3c-0.1-0.8-0.1-1.6-0.2-2.6c-1.2,0.3-1.3-1.5-2.8-0.9c4.6,6,3.5,13.1-1.5,18.4   c1.5,1.8-0.6,3.3,1.5,5c0.1-4.7,2.2-8,4.3-11.2C258.2,328,259.9,325,258.4,322.3z" />
	<path fill="#0F0D0C" d="M125.3,303.4c0.5,0.5,1,0.9,1.6,1.4c0.7,7.1-2.8,15.9,1.3,21.9c0.4,2.2-0.5,8,2,8.6   c1.4-2.3-2.7-4.3-0.6-5.8c0.8,1.4,1.5,2.8,2.2,4.2c-0.4,5.3,2,9.6,6.2,12.7c-0.3,0.3-0.6,0.5-0.9,0.8   C122.8,337.7,124.6,318.3,125.3,303.4z" />
	<path fill="#131110" d="M225.2,67.1c0.8,2.1,0.7,4.3,0.4,6.5c0.9,0.6,1.4,1.3,0.7,2.3c-0.3,0.1-0.8,0.3-1.3,0.5   c0.2,0.3,0.4,0.5,0.7,1c-0.4,0.3-0.8,0.7-1.2,1c-1.5,0.3-2.8-0.3-4.2-0.7c-0.2-1.1,0.4-2.2-0.9-2.9c-0.3-0.1-0.3-0.7-0.5-1.1   c0.7-0.6,1.5,0.5,2,0.4c2-0.2,4.1-0.7,3.2-3.1c-2.1-0.8-3.8,1.2-5.6,0.3c1.2-1.9,1.6-2.1,5.2-2.7C224.2,67.9,224.7,67.5,225.2,67.1   z M223,75.6c-0.1-0.2-0.2-0.4-0.3-0.6c-0.4,0.2-0.1,0.5,0,0.8C222.9,75.7,223,75.7,223,75.6z" />
	<path fill="#241C19" d="M137.1,347.1c0.3-0.3,0.6-0.5,0.9-0.8c0.2,0,0.5,0,0.7-0.1c0.2,0.1,0.3,0.2,0.5,0.3   c-0.2-0.1-0.3-0.2-0.5-0.2c0.1-1.4-0.7-2.4-1.4-3.4c-0.9-1.2-0.2-2.7-1.4-3.7c-0.2-4.5-3.2-7.8-4.5-11.8c7.2,2.9,4.4,13.4,9.3,18.9   c-0.5,1-1,1.9-1.4,2.9C138.2,348.9,137.8,347.8,137.1,347.1z" />
	<path fill="#181312" d="M170.4,119.8c-0.2-0.8-0.9-0.7-1.5-0.8c7.6-2.4,9.8-12.4,9.1-19.7c2.2,1.7-0.6,5.8,1.4,7.7   C178.3,112,176.1,118.8,170.4,119.8z" />
	<path fill="#35312F" d="M225.2,67.1c-0.5,0.5-1,0.9-1.5,1.4c0-3.1-1.3-6-2-9.1c0.7-0.3,0.6-1.2,1.1-1.9c0.5,0,1.2,0,1.8-0.1   c-0.4,0.3-0.8,0.6-1.4,1.1C223.8,61,224.9,64.1,225.2,67.1z" />
	<path fill="#3E3B38" d="M223,78.4c0.5,0,1.1-0.1,1.6-0.1c1,3.9,1.2,7.6-0.7,11.3c-0.2-0.3-0.4-0.5-0.6-0.8   C223.9,85.4,224,81.9,223,78.4z" />
	<path fill="#504D4A" d="M220.8,101.4c-1.2,3.2-2.6,6.3-5.5,8.5c-0.3-0.3-0.5-0.5-0.8-0.8c1.8-1.7,3.1-3.7,4.2-5.8   c-0.3-0.3-0.5-0.4-0.7-0.5c0.5-0.7,1-1.4,1.5-2c0.2,0,0.5,0,0.6,0C220.4,100.9,220.6,101.2,220.8,101.4z" />
	<path fill="#444241" d="M214.6,109.2c0.3,0.3,0.5,0.5,0.8,0.8c-1.7,1.6-6.5,2.7-8.5,1.6c0-0.3,0-0.5,0-0.8   C209.5,110.6,212.3,110.7,214.6,109.2z" />
	<path fill="#302D2B" d="M223.3,88.9c0.2,0.3,0.4,0.5,0.6,0.8c-0.2,3-0.8,5.8-2,8.6C221.2,95,222.7,92,223.3,88.9z" />
	<path fill="#A9A7A7" d="M151.1,23.4c0.6,0.4,1.1,0.8,1.8,1.3c-1.6,1.9-3.5,2.1-5.7,2.3c0.5-0.5,0.9-1.1,1.4-1.6   c1.1,0.1,1.8-0.4,2.5-1.2c-0.2-0.4-0.3-0.7-0.4-1C150.8,23.3,151,23.3,151.1,23.4z" />
	<path fill="#C6CCCC" d="M143,73.3c0.3-0.6,0.7-1.1,1-1.7c0.9,2,0.8,3.1-0.1,4.7c-0.3-0.3-0.6-0.6-0.9-1   C142.9,74.8,142.9,74,143,73.3z" />
	<path fill="#C3C5C5" d="M197.8,10c-2,1.8-2,1.8-4.5,1c1.2-0.5,2-0.9,3-1.3c0-0.5,0-0.8,0-1.2C196.8,9.2,197.3,9.6,197.8,10z" />
	<path fill="#2B1D1D" d="M150.7,23.4c0.1,0.3,0.3,0.6,0.4,1c-0.7,0.8-1.5,1.2-2.5,1.2C148.6,24,148.8,23.8,150.7,23.4z" />
	<path fill="#545959" d="M163.4,97.3c-0.4-0.9-1.8-1.8-0.8-2.7c1.3,0.3,1.4,1.8,2.1,2.8C164.2,97.3,163.8,97.3,163.4,97.3z" />
	<path fill="#7C8A8A" d="M143,36c0.7-0.5,1.5-1,2.2-1.5c0,1.3,0,1.3-1.6,2.8C143.5,37,143.2,36.5,143,36z" />
	<path fill="#CBE8E8" d="M216.7,17.9c-0.9,0.1-1.8,0.2-2.7,0.3c-0.5-0.6-0.1-1.1,0.2-1.6c0.9,0.1,1.8,0.3,2.6,0.4   C216.7,17.3,216.7,17.6,216.7,17.9z" />
	<path fill="#B0AFAF" d="M154.8,19.3c2.7,0.4,0.8,2.6-1.3,1.4C154,20.3,154.4,19.8,154.8,19.3z" />
	<path fill="#94A8A8" d="M147.1,28.3c0.8,0,1.6,0,2.4,0c-0.4,1-1,1.4-1.8,1.4C147.6,29.2,147.4,28.7,147.1,28.3z" />
	<path fill="#302B2A" d="M220.8,101.4c-0.2-0.2-0.4-0.5-0.6-0.7c0.3-0.7,0.5-1.4,0.8-2c0.2,0,0.5,0,0.7,0   C221.4,99.6,221.1,100.5,220.8,101.4z" />
	<path fill="#444241" d="M205.6,115c0.1-1.3-0.6-2.7,0.9-3.4C206.1,112.6,205.8,113.8,205.6,115z" />
	<path fill="#221E1D" d="M179.5,415.8c0.3,0,0.5,0,0.8,0c-0.2,0.8-0.4,1.5-0.7,2.2C179.6,417.3,179.6,416.6,179.5,415.8z" />
	<path fill="#4A5555" d="M143,73.3c0,0.7,0,1.4-0.1,2c-1.5-0.3-0.7-1.3-0.7-2C142.5,73.4,142.7,73.4,143,73.3z" />
	<path fill="#221E1D" d="M181.7,413.1c-0.1-0.6-0.1-1.2,0.6-1.5C182,412.1,181.8,412.6,181.7,413.1z" />
	<path fill="#221E1D" d="M181,414.5c-0.1-0.7-0.1-1.3,0.7-1.5C181.4,413.5,181.2,414,181,414.5z" />
	<path fill="#221E1D" d="M180.2,415.9c-0.1-0.7-0.1-1.3,0.8-1.4C180.7,414.9,180.5,415.4,180.2,415.9z" />
	<path fill="#2B2625" d="M221.7,98.7c-0.2,0-0.5,0-0.7,0c0-0.5-0.2-1.2,0.7-1.2C221.7,97.8,222.1,98.4,221.7,98.7z" />
	<path fill="#B28C7D" d="M223.3,88.9c-0.6,2.3-1.1,4.7-1.7,6.9c-0.4,0.2-0.8,0.5-1.3,0.7c-0.3-0.4-0.5-0.9-0.8-1.3   c-0.2,0-0.5,0-0.7,0l0,0c-0.3-0.5-0.6-0.9-0.9-1.3c-4,0.4-7.4,0.3-10.4,3.3c-2-0.5-2-0.5-2.6,1.3c0.7,0.1,1.4,0.2,1.9,0.3   c-0.3,3.4,8.6,5.9,11.2,4.1c0.2,0.1,0.3,0.3,0.7,0.5c-1.9,5.6-7.5,8.2-13.2,7.2c-0.5-0.5-1-0.9-1.6-1.3l0,0   c-4.5-4.7-11.5-7-16.7-10.7l0,0c-2.2-3-4.3-6.6-4.3-10.5c-1.3-1.2-2.1-3.6-0.7-5.1c-0.9-1.2-1.8-2.4-1.5-4c0.1-0.6,0.1-1.2-0.5-1.6   c-0.6-1.2-0.6-1.2,0.5-1.3c0.5,0.9,1,0.8,1.5-0.1c0.8-0.1,1.7-0.1,2.1-1.2c-0.2-0.4-0.4-0.9-0.6-1.4c0.4-2,3.5-3.5,2-5.7   c0.8-0.6,0.7-1.4,0.6-2.2c1-1.2,1-2.1,0.2-3.6c7.2-11.6,13.7-11.4,25.6-11.3c7.8-1.9,10.7,12,11.5,17.7c-3.6,0.6-4,0.8-5.2,2.7   c1.8,1,3.5-1.1,5.6-0.3c0.1,0.5,0.1,1.1,0.2,1.8c-1.6,0.3-3.7-0.5-4.9,0.8c-0.2,0-0.4,0.1-0.6,0.2c-1.1,0.1-0.5,1.3-1.3,1.5   c-0.2-0.5-0.3-1-0.5-1.7c-2.3,3.2-2.5,4.9-0.6,6.9c0.2-0.9,0.3-1.7,0.4-2c1.2-0.7,1.6-1.4,2.7-1.5l0,0c0.8,1.1,2.2,1.1,3.4,1.6   C224,81.9,223.9,85.4,223.3,88.9z M218.1,86c0.3,1.1,1.9,1.6,1.3,3c-0.4-0.2-0.7-0.5-1-0.7c-1.3,0.9-1.8,1.3-3.1,2.3   c1.7,0,2.9,0,4.2,0c0.5-0.6,1-1.2,1.5-1.7c-0.6-2.9-2.5-4-3.6-6.7C217,84.2,217,84.2,218.1,86z M198.5,68.5   c-1.8,0.4-3.5,0.8-5.2,2.8c9.4-4.3,15.4,2.1,17-0.3C207.6,67.8,202.4,68.1,198.5,68.5z M208.4,78.3c-0.7-7.6-8-5.2-13.1-3.9   C197.1,80.7,203.2,78.5,208.4,78.3z M209.5,86.1c-2.9,2.8-2.6,4,1.1,5.4c1.1-0.6,2.1-1.2,3.3-1.7c-1.3-1.4-1.3-1.4-4.3,0.2   C208.3,88.9,209.6,87.6,209.5,86.1z" />
	<path fill="#977264" d="M190.7,100.8c4.4,2.7,10,4.5,13.3,8.5c-3.2-0.5-5.4-3.6-8.4-4.3c-0.1-0.2-0.1-0.4-0.4-0.4   c2,3.4,6.1,4.7,9.4,6.8c-1.6,4.9-1.4,9.7-0.7,14.7c-7.4-5.3-13.5-11.3-18.6-19c-0.7,2.9-0.2,5.7-2.8,7.9c-1.9,3.2-2.9,7.1-6.1,9.6   c-1.6,1.8-4.4,3.2-4.1,5.7c-1.7-2.9-2.2-6.2-3.4-9.2c12.1-5.1,11-20,11.3-31.1c0.4-0.1,0.8-0.2,1.1-0.3c0.4,3.4,2.1,8.2,5.8,9.1   l0,0C188.1,99.4,189.6,102.7,190.7,100.8z" />
	<path fill="#92909F" d="M183.1,53.7c5.9-8.6,19.9-13.1,28.7-6.6c-9.4-0.3-19.5,1.6-25.3,9.3C185.1,55.9,182.9,55.7,183.1,53.7z" />
	<path fill="#8E8790" d="M183.1,53.7c-0.2,1.9,2,2.1,3.4,2.7c-2.9,5.2-6.5,10-7.1,16.1c-0.5,0-0.9,0.1-1.4,0.1   c-0.5-0.3-0.9-0.7-1.6-1.1C177.6,65.3,179,58.8,183.1,53.7z" />
	<path fill="#251A17" d="M184.4,96.7c-1.9-1.9-2.6-4.4-2.9-7c0.5-0.2,1-0.5,0.1-0.9c0.3-0.5,0.5-0.9,0.8-1.4   c0.2,0.2,0.7,0.5,0.7,0.7c-0.3,2.8,1.4,5.1,2.2,7.7C184.9,96.1,184.6,96.4,184.4,96.7z" />
	<path fill="#433832" d="M178.1,72.7c0.5,0,0.9-0.1,1.4-0.1c-0.6,1.5,1.2,2.1,1.5,3.7c-1.1,0.1-1.1,0.1-0.5,1.3   c-0.5,1.1-1.1,0.1-1.6,0c-0.9-1.4-1.7-2.7-3.5-2.8C176.2,74,177.1,73.3,178.1,72.7z" />
	<path fill="#8C6A5D" d="M182.4,87.4c-0.3,0.5-0.5,0.9-0.8,1.4c-1.4-0.1-2.2-0.8-2.7-2l0,0c1.6-0.6,0.1-2.4,0-3.6l0,0   c1,0.2,1.8,0.5,2.8,0.7C181.5,85.2,181.6,86.3,182.4,87.4z" />
	<path fill="#654C42" d="M178.1,86c-2.3-1.3-3.2-3.5-4.2-5.5c0.5-1.8,0.1-3.7,1.3-5.1c0.3,0.5,0.6,1,0.8,1.5   c-1.3,0.7-0.6,1.8-0.7,2.8c-0.1,0.8-0.4,1.7,0.7,2.1C176.9,83.1,178.5,84.2,178.1,86L178.1,86z" />
	<path fill="#947163" d="M176.1,76.8c-0.3-0.5-0.6-1-0.8-1.5c0-0.2,0.1-0.4,0.1-0.6c1.8,0.1,2.6,1.5,3.5,2.8l0,0   c-0.7,0.3-1.4,0.6-2.1,0.9C176.6,77.8,176.8,77.1,176.1,76.8L176.1,76.8z" />
	<path fill="#1E1815" d="M186.7,62c0.8,1.5,0.8,2.4-0.1,3.6c-0.4-0.6-0.9-1.3-1.4-1.9C185.7,63.1,186.2,62.5,186.7,62z" />
	<path fill="#1E1815" d="M186.5,65.6c0.1,0.8,0.3,1.7-0.6,2.2C185.4,66.6,184.7,66,186.5,65.6z" />
	<path fill="#405656" d="M174.8,12.2c-0.5-0.1-0.9-0.1-1.4-0.2c0-0.1,0-0.3,0-0.4c0.5,0,1-0.1,1.5-0.1   C174.9,11.7,174.8,12,174.8,12.2z" />
	<path fill="#7D8686" d="M145.8,39.3c-0.4,0.3-0.7,0.6-1.2,1.1C144.2,39.3,144.7,39,145.8,39.3z" />
	<path fill="#515B5B" d="M140.4,51.5c-0.5-1.1-0.1-1.3,1.1-1.2C141,50.8,140.8,51.1,140.4,51.5z" />
	<path fill="#433832" d="M182.3,76.2c-0.5,0.8-1,0.9-1.5,0.1C181.4,76.2,181.8,76.2,182.3,76.2z" />
	<path fill="#654C42" d="M178.9,86.7c-0.3-0.2-0.5-0.5-0.8-0.7l0,0C178.3,86.2,178.6,86.5,178.9,86.7L178.9,86.7z" />
	<path fill="#EAA388" d="M201.4,316.7c-9.9,30.6-11.1,64.1-21.1,94.9l0,0c-0.7,0.6-0.7,1.4-0.6,2.1c-0.2,0.2-0.2,0.3-0.1,0.6   c-4.1,11.2-8.2,22.3-13.6,32.9c-2.9,10.1-0.3,21.1-4.3,31C155,497,150.8,516,149,535.8c-0.6-0.7-1.2-1.3-1.9-2   c-2.5,0.4-5.4,2.1-8,1.4c0.3-12.3,4.5-24.3,3.5-36.8c-1,1.1-1.8,2-2.9,3.4c0.2-26.4-1.5-45.3,10.2-70.3c3.2,3.3,1.6,7.9,5,11.1   c4-8,0.7-18.1-0.3-26.6c7.3-40.4,0.4-82.6,8.6-123c25.8,0.4,53.2,8.7,78.1-1.5c11.4,38.7,8.6,79.8,7,119.4   c2,39.5,4.5,79.1,1.6,118.6c-2.8,1.1-6.1,1.8-6.7,5.7c-1.7,0.6-3.3,0.5-4.9,0.2c1.2-12.5,2.4-41.1-3.5-51.5c-1.7,4.6,0,8.1-1,12.9   c-4.9-17.6-12.6-37.7-6.2-55.8c2.7,1.4,3.3,4.3,5,6.2c-0.2,0.6-0.4,1.2-0.6,1.7c0.8,1.8,0.8,4.3,2.6,5.5c1.4-0.3,0.4-1.7,1.1-2.3   c1.3,0.9,1.2,3.1,3.1,3.4c0.4-15.3-15.1-25.8-16-40.8c-1.4-14.1-3.7-27.8-4.2-42.1c-0.9-9,1.8-17.8,1.3-26.8   c-0.6-2.9,2.2-6.1-0.5-8.6c-2.9,1.1-2.8,6.3-5,6.4c-1.4-9.3-3.1-19-4.6-28.2c-1.2-1-1.7-1.9-2.9-2.3c0.2-1.1,1.5-1.8,1.2-3.3   c-1.9,0.5-2.4,2.1-3.4,3.3C203.2,314,201.2,314.8,201.4,316.7z M236.3,413.8c-0.1,0.1-0.3,0.1-0.4,0.2c0.5-6-9.7-12.7-8.6-3.1   c1.7,3.3,4,5.6,7.8,5c0.1,0.3,0.2,0.6,0.3,0.9c0.3-0.1,0.7-0.2,1-0.2C237.6,415.4,237.5,414.6,236.3,413.8z M186.6,313.8   c-0.8-0.7-1.6-1.3-2.8-1c0.4,1.2,1.3,1.5,2.1,1.8c1.6,0.7,2.8,1.9,5,1.9C189.6,315,187.9,314.6,186.6,313.8z M164.2,408   c0.4,0.2,0.8,0.4,1.1,0.7c3.1-4.1-2.2-16.4-5.5-6.9C161.1,403.5,161.2,408.3,164.2,408z M159.3,460.6c1.6-1.6,4.7-6.2,3.7-9.5   C161.2,451,158.1,459.3,159.3,460.6z M239.4,411c2.1-2.6,5-6.2,3.1-9.1C241.2,403.9,239.8,407.5,239.4,411z M179.1,304.2   c2.7,2.5,6.1,4.8,9.6,5.9C185.8,307.3,181.9,304.9,179.1,304.2z M168.4,413.3c1-2.2,0.5-3.5-1.4-4.7   C166.9,410.5,166.7,411.9,168.4,413.3z M158,462.9c-1.4,2.1-1.4,2.5-0.3,4.7C158.9,465.9,159,465.4,158,462.9z M236.3,462.9   c1-1.4-0.5-4.9-2.2-3.9C234.5,460.5,234.8,461.9,236.3,462.9z M155.3,473.5c-1.7,1-1.3,2.2-0.8,3.7   C156.3,476.2,155.8,475,155.3,473.5z M236.6,468.7c0.6-1.8,0.6-1.8-1-2.9C234.8,467,235.8,467.7,236.6,468.7z M236.6,472.7   c0.2-0.1,0.4-0.2,0.5-0.3c-0.2-0.4-0.5-0.2-0.8-0.1C236.4,472.4,236.5,472.6,236.6,472.7z" />
	<path fill="#F5DDCE" d="M156.3,168.4c8.9-12.7,13.1-28.7,6-43.2c1.5-1.7,2.8-3.1,5.1-3.4c3.7,10.5,6.6,23,16.5,29.3   c10.7,7,25,12.3,37.2,7.3c0.6,0.1,1.1,0,1.3-0.6c9.6-6.5-1.7-17.8-3.4-25.6c13.4,12.2,27.7,31.4,28.6,49.9   c-7.9,11.1-20.6,1.2-31.2,3.3c-0.8,2.4,0.9,3.7,2.1,5.1c-0.8,0.2-1.6,0.4-2.1,0.6c0.3,2.9,5.4-0.8,5.1,1.8c0,0.9,0.5,1.2,1.1,1.4   c0.3,0.9,1.1,0.8,1.8,0.6c4.7,0.8,9.4,2.4,14.2,1.1c0.2-0.1,0.7,0.4,1,0.7c-1.1,0.7-2.1,1.4-3.2,2.1c-9.9,55.8-13.4,31,4.6,89.9   c-24.1,9.3-51.7,4.2-76.7,1.5c2.9-6.9,1.8-16.6,7.9-21.8c3.4,6.1,5,13.2,10.6,17.6c-0.1,0,0.1,0.1,0.2,0.1   c-0.2-0.1-0.3-0.2-0.2-0.1c-1.5-17.1-12.8-32.2-11.5-49.8c-0.2-17.2,0.4-34,17.9-41.4c1.3-0.8,2.5,0.1,3.2-1.1   c4-0.7,8-1.5,11.5-3.7c3.6,0.3,6.1-3.5,6.4-6.7c-12.6,1.7-28.7,2.9-38.7-6c-2-3.4-4.4-6.4-8.8-5.5   C157.8,166.5,157,171.4,156.3,168.4z M228,279.4c1-2.1,4.5-7.8,1.6-9.1c-0.4,3.4-3.4,7.4-2.4,10.5   C227.4,280.3,227.7,279.8,228,279.4z M207.2,230.5c-2.6,9.2-2,20.1,0.3,29.5C207.2,250.4,210.4,239.5,207.2,230.5z M223.5,249.7   c2,0.4-0.2-7.9-1.7-7C222.5,245.1,222.6,247.7,223.5,249.7z M221.9,235.6c-1.8,2.5-1.8,2.5-0.1,4.5   C222.9,238.7,222.7,237.5,221.9,235.6z M224.1,286.5c1.4-0.6,1.5-1.4,0.9-2.5C223.9,284.6,223.4,285.3,224.1,286.5z M222.9,288.5   c-1.2,0.9-1.8,1.3-1.7,2.4C222.5,290.8,222.8,290,222.9,288.5z M221,223.4c0.4,1.6,0.1,1.2,1.9,2C222.2,224.3,223,223.3,221,223.4z    M222.1,229.7c0.4-0.2,0.3-1.5-0.1-1.4C222,228.8,221.6,229.4,222.1,229.7z M221.6,234.4c0.2-0.1,0.4-0.2,0.6-0.3   c-0.2-0.4-0.5-0.2-0.8-0.2C221.4,234.1,221.5,234.2,221.6,234.4z" />
	<path fill="#B28C7D" d="M138,340.6c-1.8-4.6-1.1-11.5-6.6-13.1c1.3,4.4,5.5,8.3,4.1,13.3c-2.9-4.2-3.8-9.2-7.3-12.8   c0.5-8.5-1.6-18.5,1.2-26.4c0.4-21.6-13.8-61.1-0.2-78.3c1.7,3.3,3.7,7.1,7,8.4c0.5-2.1,0.5-2.3-1-5.5c-0.3-1.1-1.7-1.6-1.5-2.8   c0.2-1.6,0-2.9-1.6-3.7c-6.2-14-2.1-30.6,1.7-44.8c6.9,4.8,1.3-5.7,1.4-8.5c0.2-2.3-0.4-4.6-1-6.8c-3-8.9,0.9-16,5.1-23.6   c6.7-3.9,14.6-4.7,21-9.6c6.1,13.2,3,29.3-5.8,40.6c-0.2-0.6-0.4-1-0.6-1.6c-5.2,3.8-2.2,12.6-3.3,18.3c-5.6,30.9-7.9,62-12.7,92.9   c-1.8,6.1,1.4,13.4-2.4,18.6c0.1,1,1.8,1.6,0.5,2.7c12.6,22.7,9.7,3.1,13.2,33.9c-0.8-0.1-1.4-0.1-1.9-0.1   c-3.7-3.8-1.2-10.4-5.5-13.8c0.5,7.2,2.3,14.3,2.4,21.5c-0.8,0-1.3,0.1-1.8,0.1c-1.1-4.1-1-7.6-3-10.9c-0.6,0-1.3,0-2.1,0   C138.4,331.2,143.1,340.3,138,340.6z M134.2,322.8c0.7,1.4,1,2,1.3,2.8C136.5,324.3,136.4,324.1,134.2,322.8z M134.7,290.8   c0,0.6,0,1.2,0,1.8C136.1,292,136.1,292,134.7,290.8z" />
	<path fill="#D69479" d="M166.1,292.8c-1.1,0-2,0.1-3.3,0.2c-8.1,40.4-1.2,82.6-8.6,123c1,8.5,4.3,18.7,0.3,26.6   c-3.3-3.2-1.8-7.8-5-11.1c-11.7,25.1-10,43.9-10.2,70.3c1.2-1.3,1.9-2.3,2.9-3.4c1,12.5-3.1,24.5-3.5,36.8c0.5,0.1,0.9,0.2,1.3,0.4   c-0.9,0.6-1.8,1.1-2.5,1.6c-1,2.5-1.1,5.2-2.3,7.8c1.6-27.7-6.7-57.3-1.4-85.4c19.6-58.2,13.6-47.6,9.5-107.1   c1.1-0.9,2-1.7,2.9-2.3c3.1-5.7-0.4-11-0.7-17c1.7-0.4,4.1,0.2,5-1.5c-0.5-30.9-12.7-19.3-7.7-39.2   C150.7,292.3,159,290.6,166.1,292.8z" />
	<path fill="#E6CCBB" d="M182.3,285.8c-1-0.5-1.8-1.1-2-2.2c1.2-1-0.2-2.6-1.5-3.6c0,0.8,0,1.3,0,1.7c-2-2.4-3.7-5.2-4.3-8.4   l0.1-0.1c0.4,0.2,0.8,0.4,1.3,0.6c0-1.7,0-1.7-1.1-3.1c-0.4,0.5-0.5,0.9-1,1.3c-0.6-1.1-1.2-2.2-1.8-3.5c-6.1,5.2-5.1,15-7.9,21.8   c-6.6-0.1-12.8-0.3-19.6-0.3c35.4-79.4,5.8-56.4,8.9-118.7c0.8-0.7,1.8-1.7,3-2.6c0.3,1.8,1,1,2.1,0.6c0.1,0.2,0.2,0.4,0.3,0.5   c0.1-0.2,0.2-0.4,0.3-0.6c1.1,0.9,2.1,1.8,3.4,2.8c4.4-0.9,6.7,2,8.8,5.5c10,9,26.2,7.6,38.7,6c-0.2,3.1-2.6,6.8-6.1,6.7   c0.1-0.6,1.2-0.9,0.3-1.8c-0.7,0.4-1.4,0.8-2.4,1.5c0.8,0.3,1.2,0.5,1.6,0.6c-0.9,0.5-1.8,1-2.7,1.4c-10.6-2.2-26.7,3.4-33.9-9.1   c-2.2-4.6-2.4-4.8-4.9-5.9c4.9,13.9,16.4,18.2,30.3,17.2c-0.8,1.2-2,0.2-3.2,1.1c-18.3,6.9-19.4,30.3-17.2,47.5   C170.7,257.5,182.4,270.7,182.3,285.8z M161.4,173.8c0.3-1.5,0.3-1.5-1.2-2C160,173.3,160,173.3,161.4,173.8z M172.7,265.6   c-0.5,0.6-0.6,1.5,0.2,1.8C174.1,267.4,173.7,265.7,172.7,265.6z M207.4,187.1c-0.1-0.1-0.1-0.3-0.2-0.4c-0.5,0.2-1.2,0.2-0.8,1   C206.8,187.4,207.1,187.3,207.4,187.1z" />
	<path fill="#D69479" d="M201.4,316.7c-0.1-1.9,1.9-2.7,3.3-3.6c0.3,1.4,1.5,0.5,2.1,0c1.2,0.4,1.8,1.5,2.9,2.3   c1.5,9.3,3.2,19,4.6,28.2c2,0,2-5.3,5-6.4c2.7,2.4-0.1,5.6,0.5,8.6c0.6,9-2.1,17.8-1.3,26.8c0.4,14.2,2.8,27.9,4.2,42.1   c0.9,15,16.4,25.5,16,40.8c-1.9-0.4-1.8-2.5-3.1-3.4c-0.6,0.7,0.3,2-1.1,2.3c0.3-1.8,0-5.7-2.6-5.5c0.2-0.6,0.4-1.1,0.6-1.7   c-1.7-2-2.2-4.9-5-6.2c-6.3,18.1,1.4,38.2,6.2,55.8c0.9-4.9-0.7-8.4,1-12.9c5.9,10.2,4.7,39,3.5,51.5c-0.6,0-1.2,0-1.8,0   c-1.3-8.7-2.6-17.2-3.7-26c-4.7-24-17.7-47.1-10.9-72.4c-1.8-40.8-33.2-81.2-17.9-121.9C202.5,315.8,201.9,316.2,201.4,316.7z" />
	<path fill="#B28C7D" d="M257.6,292.8c-0.1,9.1,3.1,15.8,7.2,24.1c-0.9,5.8-0.3,13.6-4.5,18.7c-0.2-0.5-0.5-1-0.7-1.4   c2.3-4.7,1-9.8-0.2-14.8c-1-1.1-2-2.1-3.2-3.4c-0.6,0.5-1.4,1-1.9,1.4c-0.5,2-0.7,3.8,0.5,5.5c0,0.5,0,1,0,1.4   c-0.4,0.1-0.8,0.3-1.3,0.5c-0.2-5.5-3.8-9.6-5.1-14.5c1.8-9.5,4.9-23.6-0.2-32.1c-0.4,0.4-0.7,0.6-1.1,0.9   c-3.3-18.3-15.8-36.3-9.1-55.1c1.5,1.5,2.9,1.7,4.6,0.6c0.4,0.2,0.7,0.4,1.1,0.6c0.1-0.4,0.2-0.9,0.4-1.3c2,0.1,2.6-3.1,1.8-4.7   c-0.4-0.1-0.7-0.1-1-0.2c-1.3,1-0.8,2.5-1.1,4.1c-0.7,0-1.2-0.1-1.4-0.1c-2.6-5-4.1-10-3.3-15.2c-0.6-1.2-1.8-1.8-1.5-2.9   c1.1-1.4,0.7-3.1,0.7-4.7c3.1-2.2,6.7-2.8,9.1-6.4c0.5,17.1,6.3,33,8.4,49.8C257.8,259.9,254.9,276.5,257.6,292.8z M247.4,211.6   c-0.5,2.6-1.7,4.6-0.3,6.7C248.8,216.1,249.2,213.6,247.4,211.6z" />
	<path fill="#B28C7D" d="M172.5,130.3c-0.3-2.6,2.5-4,4.1-5.7c3.2-2.4,4.1-6.4,6.1-9.6c2.6-2.1,2.1-4.9,2.8-7.9   c5.1,7.7,11.2,13.7,18.6,19c0.4,0.9,0.7,1.7,1.1,2.7c0.2-0.7,0.4-1.2,0.6-1.7c3.3,2.5,8.4,2.8,11,5.9c3.4,6.8,7.2,13.5,7.5,21.4   c-1.7,0.5-2.4,1.9-3.2,3.4l0.1-0.1c-3.4,0-6.7,0-10.2,0c-1.2-1.6-3.2-8.7-5.3-7.7c1.6,2.3,2.5,4.6,3.2,7.4   C192.1,158.2,176.8,146.2,172.5,130.3z M183.1,131.7c-1.4-1.8-5.7-3.2-6.8-0.9C178.3,132.1,180.5,131.8,183.1,131.7z M194.2,132.9   c-1.2-0.5-1.2-0.5-2.3-0.1C192.5,134.2,193.1,134.2,194.2,132.9z M186.3,132.8c1.6,0.4,1.6,0.4,2.7,0   C187.8,131.5,187.8,131.5,186.3,132.8z" />
	<path fill="#F7EFD0" d="M233.1,542.4c0.7,1.2,1.4,2.3,2,3.5c11.6,3.2,6.1-19.9,19.3-12c0.5,2.8,1.1,5.8,1.7,9.1   c-3.1,0.7-16.6,0.9-12.2,6.2c3-2.8,6.7-3.3,10.7-3.4c0.3,0.2,0.6,0.5,0.9,0.7c-2.8,1.5-7.3,1.2-8.3,4.9c0.3,0.4,0.7,1,1.2,1.7   c3.5-3.6,8.1-3.7,12-5c0.9,0.4,0.8,0.9,1.2,1.7c-2.3,1.2-12.3,3.5-8.7,7.4c3.1-2.7,6.8-3.3,10.1-5.7c2.6,2.4,4.8,5.2,7.1,7.8   c2.6,5.4,14.4,4,11.8,11.5c-9.3-2.6-18,6.5-27.3,1.4c-3.1-0.3-7.3,1-9.9-1.4c-1.3-1.1-2.5-0.9-3.9-0.3c-2.6,1.9-5.7,0.1-8.3-0.9   C232.1,560.4,230,550.8,233.1,542.4z M265.9,556.2c-0.2-3.7-8.3,1.8-8.9,3.3c0.3,0.4,0.7,0.8,1.2,1.4   C260.8,559.4,263.6,558.4,265.9,556.2z M262.8,561.1c0.9,1.7,4.6,0.4,5.4-0.7C269.1,557.4,262.7,558.8,262.8,561.1z" />
	<path fill="#977264" d="M133.8,223.1c-0.3,1.4,1.2,1.8,1.5,2.8c-2.1,0.6-1.1,2.7-0.8,4.2c-2.5-1.7-3.8-4.3-5.3-7.1   c-13.6,17.5,0.6,56.5,0.2,78.3c-2.7,7.5-0.5,17.1-1.3,25.2c-4.2-6-0.6-14.9-1.3-21.9c1-19.5-7.9-39.3-7.8-59.3   c-0.5-9,3.7-17.1,5-25.5c0.6-14.9,1.8-30.3,5.6-44.7c1.6-1.2-0.3-3.2,2.2-4.1c1.1,1.1,0,2.7,1,3.9c0.3,0,0.6,0,1,0.1   c-3.6,13.7-7.5,29.4-2,43c-0.4-0.2-0.8-0.3-1.4-0.6c0.1,2.3,1.8,3.5,2.3,5.4C133.1,223.1,133.4,223.1,133.8,223.1z" />
	<path fill="#EBDDB8" d="M233.1,542.4c-3,8.5-1,18.1-0.7,27.1c2.6,1,5.6,2.8,8.3,0.9c1.4-0.5,2.7-0.8,3.9,0.3   c2.6,2.3,6.8,1.1,9.9,1.4c9.3,5.2,18-4,27.3-1.4c0.2-0.6,0.3-1.1,0.4-1.5c0.8,1.8,1.5,3.6,1.5,5.6c-11.2,5.9-25.8,6.3-37.2,0.6   c-2.2-1.2-4.3-1.7-6.7-0.7c-4.6,1.2-9.7-1-14.3-1.9c4.7-10.8,1.4-22.3,5.5-33.5C232.5,539.8,233,540.9,233.1,542.4z M273.6,574.1   c2.8-0.3,5.7-0.7,8.5-1c0.5-3.9-14.5-1.5-12.3,2.9C271.6,576.5,272.1,575,273.6,574.1z" />
	<path fill="#977264" d="M242.7,224.5c-1.6,1.1-3,0.9-4.6-0.6c-6.7,18.8,5.6,36.8,9.1,55.1c0.4-0.3,0.6-0.5,1.1-0.9   c3.9,4.4,1.8,10.7,2.2,16.1c-0.6-0.1-1.2-0.2-1.8-0.3c-8.3-38.2-23.6-46.2-10.9-88.5c0.5,0.7,0.9,1.4,1.6,2.3   c-0.8,5.2,0.7,10.2,3.3,15.2c0.2,0,0.7,0,1.4,0.1c0.2-1.6-0.2-3.1,1.1-4.1c0.1,1.3-0.9,3.3,0.6,4.1   C245.3,224.5,243.3,223.2,242.7,224.5z M249.7,290.3c-0.1,0-0.3,0-0.4,0c0,0.7,0,1.4,0,2c0.1,0,0.3,0,0.4,0   C249.7,291.7,249.7,291,249.7,290.3z" />
	<path fill="#E5CBBA" d="M239.3,196.5c-1.9-1.4-5.5,1.2-7.8-0.7c1.8,0,3.7-0.1,5.7-0.2c-1.8-2.2-7.7-1.1-10.4-0.9   c0.2,0.3,0.4,0.6,0.5,0.9c-1-0.3-2-0.5-3-0.8c0.1-0.3,0.1-0.7,0.2-1c-0.8-0.3-1.7-1-2.1,0.4c-1.9-0.3-0.1-3.4-2.8-2   c-0.8-1.2-1.4-1.2-2,0c-0.6,0-1.2,0.1-1.3-1.1c0.7-0.2,1.4-0.4,2.1-0.6c-1.3-1.4-2.9-2.6-2.1-5.1c10.6-2.1,23.4,7.8,31.2-3.3   c0.1-1.3,0.2-2.4,0.3-3.6C249.8,185.8,246.8,194.1,239.3,196.5z" />
	<path fill="#B18B7C" d="M235.2,148.4c-2.2-4-4.1-8.2-7.9-11.1c0.3-0.3,0.5-0.5,0.8-0.8c15.2,3.3,20.8,19.5,20.2,33.6   C243.4,163,239.9,155.6,235.2,148.4z" />
	<path fill="#967264" d="M131,171.8c-1.7,0.7,0.1,2.8-1.5,3.5c0.4-13.6-4.6-31.1,9.7-39.5c-4.2,7.6-8.1,14.7-5.1,23.6   c0.6,2.2,1.2,4.5,1,6.8c-0.1,2.7,5.5,13.2-1.4,8.5c-0.2-1.6,0.4-3.2-1.2-4.4c-0.4-0.7-0.2-1.9-1.1-2.5   C130.3,168.8,131.2,170.3,131,171.8z" />
	<path fill="#ECECEC" d="M247.9,306.3c-0.1,0.4-0.2,0.8-0.2,1.3c-0.2,0-0.4,0-0.6,0c-1.5-8.7-3.7-17.1-5.1-25.9   c0.3-0.8-0.3-1.8,0.8-2.2C244.7,288.1,250,297.4,247.9,306.3z" />
	<path fill="#D6D8D8" d="M242.8,279.4c-1.1,0.5-0.5,1.6-0.8,2.2c-3.2-9.3-7.9-18.4-9.2-28.2c0.3,0,0.6,0,0.9,0   C236.9,262,239.6,270.8,242.8,279.4z" />
	<path fill="#1A1310" d="M147.2,310.9c3.4,6.6,2.3,14,3.6,20.7c-1,1.7-3.4,1.1-5,1.5c0.4-0.6,0.9-1.2,1.4-1.7c0.6,0,1.2,0.1,1.9,0.1   c-1.8-6.4-0.8-13.3-2.7-19.8C146.7,311.5,147,311.2,147.2,310.9z" />
	<path fill="#936E61" d="M248.5,310.3c1.4,4.9,4.9,9,5.1,14.5c0.4-0.2,0.9-0.3,1.3-0.5c0.2,1.7,0.1,3.2-1.6,3.9   C251.9,322.4,246.8,316.1,248.5,310.3z" />
	<path fill="#997568" d="M241.9,538.1c-1.9,6.3-7.2,8.2-6.1,0C238,538.1,239.4,538.1,241.9,538.1z" />
	<path fill="#1F1917" d="M250.6,321.5c0.9,2.2,1.7,4.4,2.5,6.7c2.2-0.9,1.5-3.3,1.6-5.3c1.1,0,1.8,0.4,2,1.6c-1,1.8-1.5,7-4.8,6.1   c0-1.7-0.3-3.2-0.9-4.8c0.3-1-0.5-1.8-0.9-2.5c-0.2,0.1-0.4,0.2-0.6,0.3c-1-0.7-0.6-1.6-0.5-2.3C249.8,320.9,250,322.8,250.6,321.5   z" />
	<path fill="#241E1C" d="M235.2,148.4c3,4.6,5.6,9.4,8.3,14.2c-0.3,0.3-0.5,0.6-0.8,0.9c-2.8-4.8-6.1-9.1-8.4-14.2   C234.6,149,234.9,148.7,235.2,148.4z" />
	<path fill="#E3E5E5" d="M252.1,330.6c0.9,0.4,1.6,0.1,2-0.6c0.3,0.3,0.6,0.5,0.9,0.8c-1.3,2-2.4,4-3.7,6   C251.6,334.9,250.4,332.1,252.1,330.6z" />
	<path fill="#352420" d="M204.7,111.4c-2.9-2.1-7.3-3.1-9.1-6.4l0,0c3,0.7,5.2,3.8,8.4,4.3l0,0c0.6,0.4,1.1,0.8,1.6,1.3   C205.3,110.9,205.1,111.2,204.7,111.4z" />
	<path fill="#A4A6A6" d="M252.1,330.6c-1.2,0.4-0.5,1.6-0.9,2.2c-1-1.8-0.4-3.7-0.8-5.5c0.3-0.5,0.5-1,0.8-1.5   C251.8,327.4,252.1,329,252.1,330.6z" />
	<path fill="#ACB0B0" d="M232.1,250.6c-0.8-1.6-1.2-3.2-1.1-5c0.2-0.3,0.5-0.6,0.7-0.9c1,1.8,0.8,3.9,1.3,5.8   C232.6,250.6,232.4,250.6,232.1,250.6z" />
	<path fill="#7C8080" d="M230.8,243.6c-1.1-2.1-0.6-4.4-0.1-6.7c0.3,1.9,0.6,4,0.9,5.9C231.2,243.1,230.9,243.4,230.8,243.6z" />
	<path fill="#BBCDB3" d="M255.5,546.6c-0.3-0.2-0.6-0.5-0.9-0.7c1.6-0.2,3.1-1.8,4.5-0.3C257.8,546.3,256.7,546.7,255.5,546.6z" />
	<path fill="#755A50" d="M207.6,153.6c-0.7-1.2-1.4-2.3-2-3.5c1.5-1.1,1.9,1.9,2.8,2.7C208.1,153,207.8,153.3,207.6,153.6z" />
	<path fill="#5F6565" d="M251.2,326c-0.3,0.5-0.5,1-0.8,1.5c-0.9-1.1-0.4-2.4-0.6-3.6c0.2-0.1,0.4-0.2,0.6-0.3   C250.7,324.2,251.4,324.9,251.2,326z" />
	<path fill="#977264" d="M238.6,200.1c-0.1,1.7,0.3,3.3-0.7,4.7C238.1,203.3,237.6,201.5,238.6,200.1z" />
	<path fill="#494541" d="M228.1,136.6c-0.3,0.3-0.5,0.5-0.8,0.8c-0.7-0.6-1.3-1.1-1.9-1.7C226.6,135.5,227.4,135.8,228.1,136.6z" />
	<path fill="#C6CACA" d="M232.1,250.6c0.3,0,0.6,0,0.9,0c0.2,1,0.5,1.8,0.7,2.8c-0.3,0-0.6,0-0.9,0   C232.6,252.5,232.3,251.6,232.1,250.6z" />
	<path fill="#C0C1C1" d="M230.8,243.6c0.3-0.3,0.5-0.5,0.8-0.8c0.1,0.6,0.1,1.3,0.2,1.8c-0.2,0.3-0.5,0.6-0.7,0.9   C230.9,245,230.8,244.3,230.8,243.6z" />
	<path fill="#B28C7D" d="M221,158.5c-0.3,0.7-0.8,0.8-1.4,0.6C220,158.9,220.5,158.7,221,158.5z" />
	<path fill="#B28C7D" d="M247.1,307.6c0.2,0,0.4-0.1,0.6,0c0,0.4-0.1,0.9-0.1,1.3c-0.1,0-0.3,0-0.4,0   C247.1,308.3,247.1,307.9,247.1,307.6z" />
	<path fill="#B28C7D" d="M222.4,157.9c-0.2,0.6-0.7,0.7-1.3,0.6c0-0.3,0-0.5-0.1-0.8l-0.1,0.1C221.4,157.8,221.9,157.8,222.4,157.9z   " />
	<path fill="#B28C7D" d="M223.6,157c-0.2,0.2-0.5,0.4-0.7,0.6C223.3,157.4,223.5,157.2,223.6,157z" />
	<path fill="#B28C7D" d="M224.4,156.3c-0.2,0.2-0.4,0.4-0.7,0.6C223.9,156.7,224.1,156.5,224.4,156.3z" />
	<path fill="#B28C7D" d="M225,155.5c-0.2,0.2-0.4,0.5-0.6,0.7C224.6,155.9,224.8,155.7,225,155.5z" />
	<path fill="#B28C7D" d="M247.9,306.3c0.2-0.3,0.3-0.6,0.5-0.9C248.3,305.7,248.1,306,247.9,306.3z" />
	<path fill="#F7EFD0" d="M134.4,555.5c2.9-5,5-10.9,5.3-16.7c2-1.4,4.3-1.8,6.5-2.4c2.5,2.7,4.5,5.9,7.9,7.9   c3.6,11.1,9.2,23.2,17,31.9c2.4,2,2.6,4.8,1.3,7.7c-11.3-3.3-12.4,0.4-22,1.3c-3.9-1-7.6-1.2-11.6-1.5c-0.4-0.4-1.1-1-1.4-1.3   c-0.1-1.8-0.2-3.2-0.2-4.7c-1.2-1.1-2.2-2-3.4-3.1C134,568.4,133.1,561.8,134.4,555.5z M148.6,553c-0.5-0.2-1-0.4-1.5-0.7   c2.1-1.6,5.3-1.1,7-3c-2.7-3.2-8,0.6-11,2c-3.6,2-0.5,4.8-0.2,7.5c0.3,0.5,1.1,0.7,1.8,1.1c1.9-4.4,5.8-4.6,9.7-5   c0.1-0.6,0.2-1,0.2-1.7C152.7,552.4,150.7,552.8,148.6,553z M145.5,563.6c3.9-2,7-3.3,11.3-4.7   C156.1,554.5,142.7,560.2,145.5,563.6z M148.1,568c3.5-1.3,7.3-2,9.7-5c-3.2-1.8-6.2,1.7-9.3,2.5C147.8,566,147.4,566.7,148.1,568z    M149.9,570.6c1,1.7,1.9,1.1,2.9,0.8c5.5-1.4,5.7-1.5,6.8-3.3C156.6,566.4,152.4,568.5,149.9,570.6z" />
	<path fill="#EADCB7" d="M134.4,555.5c-1.2,6.2-0.3,12.8-0.6,19.2c1.2,1.1,2.2,2,3.4,3.1c0.1,1.5,0.1,2.8,0.2,4.7   c0.4,0.3,1,0.9,1.4,1.3c4,0.3,7.7,0.5,11.6,1.5c9.5-0.9,10.8-4.6,22-1.3c-1.9,1.9-8.5-0.8-11.7,0c-0.8,1-2.4,1.4-2.9,3.1   c1.9,1.1,3.1-0.2,4.4-1.3c3.1,0.1,6.1,0.3,9.6,0.4c-10.7,4.2-23.8,3.8-35.2,1.7c-1.8-2.6-0.6-6-2.7-8.9c-1,1.3-0.9,1.9-1,3.5   c-1.8-0.3-3.5-0.6-5.2-0.9c3.3-9,2.2-17.9,2.5-26.9c1.2-0.4,1.3,1,2.1,1.1C133,555.7,133.7,555.6,134.4,555.5z" />
	<path fill="#16100E" d="M140.2,339.1c0-3.8-1.3-7.3-3-10.9c1,0,1.6,0,2.1,0c3.2,5.5,1.8,13.1,5.8,18.6c-0.3,0.3-0.6,0.6-0.9,0.9   C141.6,345.4,141.4,342.1,140.2,339.1z" />
	<path fill="#926F61" d="M145.2,346.9c-1.2-2.4-3.1-4.9-2.8-7.7c0.6,0,1.1-0.1,1.8-0.1c0.1-0.8,0.2-1.4,0.2-2c1.3,2.8,2,6.1,2.1,9.2   C146.1,346.5,145.6,346.7,145.2,346.9z" />
	<path fill="#8D6B5E" d="M140.2,339.1c1.2,3,1.5,6.3,4.1,8.7c-0.1,0.6,0.1,1-0.5,1.4c-2.9-1.7-4.8-5.4-5.7-8.6   C139.8,340.6,139.8,340.6,140.2,339.1z" />
	<path fill="#291D18" d="M146.6,346.3c0.2-2.7-1-5.2-1.4-7.8c0.9-1,0.6-2.3,0.7-3.6c0.5,4.1,3.8,9,1.3,12.7   C147.1,347.1,147.1,346.5,146.6,346.3z" />
	<path fill="#73574C" d="M134,552c-0.4-0.7-0.6-1.2-0.9-1.7c0.9-3.1,0.9-3.1,2.4-3.3C135.3,548.8,135.5,550.5,134,552z" />
	<path fill="#221E1D" d="M178.9,415.8c0.2-0.5,0.4-1.1,0.6-1.6c0,0.5,0.1,1.1,0.1,1.6C179.4,415.9,179,415.8,178.9,415.8z" />
	<path fill="#221E1D" d="M180.1,411.6c0.5-1.2,1-2.3,1.5-3.5C181.6,409.5,182,410.9,180.1,411.6z" />
	<path fill="#221E1D" d="M179.6,413.7c-0.1-0.8-0.1-1.6,0.6-2.1C180.2,412.4,180.5,413.3,179.6,413.7z" />
	<path fill="#765A4F" d="M259,328.7c0.2,0.7,0.4,1.3,0.7,2.2c-2,3.2-4.2,6.6-4.3,11.2c-2-1.6,0-3-1.5-5c1.9-3.3,4.3-4.5,4.4-8.6   C258.5,328.6,258.7,328.7,259,328.7z" />
	<path fill="#715B51" d="M257.7,323.6c-0.5-1.8-1.3-3.3-2.3-4.9c1.5-0.6,1.7,1.2,2.8,0.9c0.1,1.1,0.1,1.8,0.2,2.6   C258.1,322.7,257.9,323.1,257.7,323.6z" />
	<path fill="#816357" d="M259.7,334.1c0.2,0.5,0.5,1,0.7,1.4c-0.7,1.3-1.5,2.5-2.5,4.4C257.2,337.3,258.6,336.3,259.7,334.1z" />
	<path fill="#776156" d="M255,330.8c-0.3-0.3-0.6-0.5-0.9-0.8c2-1.5,1.7-3.7,2.7-5.5c0,1.4,0,2.7,0,4.4   C256.3,329.5,255.7,330.1,255,330.8z" />
	<path fill="#4D3A33" d="M257.7,323.6c0.2-0.5,0.5-0.9,0.7-1.4c1.2,1.9,0.5,4.3,0.6,6.4c-0.2,0-0.5,0-0.7,0   C258.2,326.9,258.5,325.2,257.7,323.6z" />
	<path fill="#816357" d="M260.3,332.8c-0.2,0.3-0.3,0.6-0.5,0.9C259.9,333.3,260.1,333.1,260.3,332.8z" />
	<path fill="#816357" d="M260.5,335.1c0.2-0.3,0.4-0.6,0.6-0.9C260.9,334.5,260.7,334.8,260.5,335.1z" />
	<path fill="#8F6B5E" d="M131.8,333.5c1.3,2.5,2.1,4.8,3.7,7.2c0.2-0.8,0.3-1.2,0.4-1.6c1.2,1,0.6,2.5,1.4,3.7c0.7,1,1.5,2,1.4,3.4   l0,0c-0.2,0-0.5,0-0.7,0.1C133.8,343.2,131.4,338.8,131.8,333.5z" />
	<path fill="#4B3831" d="M128.2,327.9c0.5,0.5,1,1,1.4,1.5c-2.2,1.6,1.9,3.6,0.6,5.8C128.1,335,128.2,329.7,128.2,327.9z" />
	<path fill="#45332F" d="M218.8,77c-0.5,0.4-1.1,0.7-1.8,1.3c-0.1,0.4-0.2,1.2-0.4,2c-1.9-2-1.8-3.7,0.6-6.9   c0.2,0.7,0.4,1.1,0.5,1.7c0.8-0.2,0.2-1.5,1.3-1.5c0.3,1.4,1.8,1.8,1.3,3.3c-0.2-0.1-0.4-0.1-0.7-0.1l0,0c0-0.4-0.1-0.8-0.1-1.3   C218.9,75.9,217.9,76.1,218.8,77z" />
	<path fill="#45332F" d="M219.6,73.3c1.2-1.3,3.3-0.5,4.9-0.8C223.6,73.9,220.9,74.3,219.6,73.3z" />
	<path fill="#3E3F3F" d="M223,75.6c-0.1,0.1-0.2,0.2-0.3,0.2c-0.1-0.3-0.4-0.6,0-0.8C222.9,75.2,223,75.4,223,75.6z" />
	<path fill="#BEC9C9" d="M219.7,76.8c0.2,0,0.5,0,0.7,0.1c0,0.2,0.1,0.5,0.1,0.7C220.1,77.3,219.9,77.1,219.7,76.8z" />
	<path fill="#8F6B5E" d="M138.7,346.2c0.2,0.1,0.3,0.2,0.5,0.2C139.1,346.4,138.9,346.3,138.7,346.2   C138.8,346.2,138.7,346.2,138.7,346.2z" />
	<path fill="#2D221E" d="M218.2,102.8c-2,1.1-4.2,0.9-6.2-0.1c2.4-1.4,7.5,0.5,6.9-4.1c1.1,0.4,0.7,1.4,0.8,2.1   C219.2,101.4,218.7,102.1,218.2,102.8z" />
	<path fill="#795E55" d="M219.7,100.7c-0.1-0.8,0.3-1.7-0.8-2.1l0,0c0.2-0.8,1.8-0.8,1.4-2c0.3-0.5,0.9-0.6,1.4-0.9   c0,0.6,0.1,1.1,0.1,1.7c-0.9,0-0.7,0.7-0.7,1.2c-0.3,0.7-0.5,1.4-0.8,2C220.1,100.7,219.8,100.7,219.7,100.7z" />
	<path fill="#16110F" d="M208.4,78.3c-5.3,0.2-11.3,2.4-13.1-3.9C200.4,73.1,207.7,70.7,208.4,78.3z M201.4,75.4   c-1.3,0-2.1-0.1-2.6,1.2c0.9,0.5,1.7,1.6,2.9,0.9C201.6,76.7,201.5,76.1,201.4,75.4z M205.2,76c0.1-0.1,0.2-0.1,0.3-0.2   c-0.2-0.3-0.3-0.3-0.5,0C205.1,75.9,205.1,75.9,205.2,76z" />
	<path fill="#8F6E61" d="M218.9,98.7c-0.1,6.2-7.8,2.6-11.1,1.1c-0.1,0.4-0.1,0.7-0.1,1.1c-1.1-0.4-0.7-1.3-0.8-2   C210.9,98.7,214.9,98.7,218.9,98.7L218.9,98.7z" />
	<path fill="#886559" d="M219.7,95.2c0.3,0.4,0.5,0.9,0.8,1.3l-0.1,0.2c-3.8,0.4-8.4,2.5-11.9,0.6c1.9,0,3.7-2.1,5.6-2   c1.8,0.6,3.3-0.1,5-0.1l0,0c0.1,0.2,0.1,0.3,0.2,0.5C219.3,95.5,219.5,95.3,219.7,95.2z" />
	<path fill="#2B1F1B" d="M178.9,86.7c-0.3-0.2-0.5-0.5-0.8-0.7c0.4-1.8-1.2-2.9-2.1-4.2c0.8-0.8,0.8-1.8,0.8-2.7   c0.2,0.2,0.4,0.5,0.7,0.7c-0.2,1.4,1,2.3,2.2,1.8c0-0.9,0-1.6,0-2.3c0.5-0.1,0.9-0.1,1.2-0.2c-0.4,1.7,0.6,2.8,1.5,4   c-0.3,0.4-0.5,0.6-0.7,0.9c-1-0.2-1.8-0.5-2.8-0.7c0-0.2-0.1-0.4-0.3-0.4c0.1,0.1,0.3,0.2,0.4,0.3C179,84.3,180.3,86.1,178.9,86.7z   " />
	<path fill="#1A110F" d="M198.5,68.5c3.9-0.3,9.1-0.8,11.9,2.5c-0.4,1.1-1.2,1-1.8,0.6C205.4,69.8,201.7,70.4,198.5,68.5z" />
	<path fill="#2D221E" d="M208.4,97.2c3.5,1.9,8.1-0.2,11.9-0.6c0.5,1.3-1.1,1.2-1.4,2c-4.7-0.1-9.3,0.4-13.9-0.3   C205.4,96.3,206.4,96.9,208.4,97.2L208.4,97.2z" />
	<path fill="#3F312C" d="M209.5,86.1c0.2,1.6-1.3,2.7,0.1,3.9c3-1.6,3-1.6,4.3-0.2c-1.1,0.6-2.1,1.2-3.3,1.7   C206.9,90,206.5,88.9,209.5,86.1z" />
	<path fill="#342621" d="M219,95.1c-1.7,0.1-3.2,0.7-5,0.1c-1.9-0.1-3.7,2-5.6,2l0,0c0-0.3,0-0.5,0-0.8c3-2.5,6-2.2,9.7-2.7   C218.3,94.2,218.7,94.7,219,95.1z" />
	<path fill="#41322D" d="M218.9,85.4c0.8,1.2,1.8,2.1,1.9,3.8c-0.5,0.5-1,1.1-1.5,1.7c-1.4,0-2.5,0-4.2,0c1.4-1.1,1.8-1.5,3.1-2.3   c0.3,0.2,0.7,0.4,1,0.7c0.7-1.5-0.9-1.9-1.3-3C218.4,85.9,218.7,85.6,218.9,85.4z" />
	<path fill="#7F6155" d="M180.8,79c-0.3,0-0.7,0.1-1.2,0.2c0,0.8,0,1.5,0,2.3c-3,0.7-2.3-2.6-0.9-4l0,0c0.5,0,1.1,1.1,1.6,0   C180.9,77.9,180.9,78.5,180.8,79z" />
	<path fill="#3A302B" d="M198.5,68.5c1,0.5,1.8,0.9,2.8,1.3c-2.5-0.3-5,0.9-8,1.6C195,69.3,196.8,68.9,198.5,68.5z" />
	<path fill="#48322D" d="M207.7,100.7c0-0.3,0.1-0.7,0.1-1.1c1.9,0.8,3.7,1.6,5.5,2.3c-0.5,0.2-1,0.5-1.5,0.7   C210.5,102.1,209.1,101.4,207.7,100.7z" />
	<path fill="#71574E" d="M218.9,85.4c-0.3,0.3-0.5,0.5-0.8,0.8c-1.2-1.8-1.2-1.8-0.9-3.7C217.9,83.5,218.4,84.5,218.9,85.4z" />
	<path fill="#533C35" d="M190.7,100.8c-1.1,1.8-2.5-1.5-3.4-2.2C188.6,99,189.7,99.9,190.7,100.8z" />
	<path fill="#533C35" d="M184.4,96.7c0.3-0.3,0.6-0.6,0.8-0.9c0.7,1,1.4,1.9,2,2.8C185.8,98.7,185.1,97.6,184.4,96.7z" />
	<path fill="#BEC9C9" d="M218.8,77c-0.9-0.9,0.1-1,0.7-1.5c0.1,0.5,0.1,0.9,0.1,1.3C219.4,76.9,219.1,76.9,218.8,77z" />
	<path fill="#886559" d="M208.4,96.6c0,0.3,0,0.5,0,0.8c-0.3,0-0.5-0.1-0.8-0.1C207.9,96.9,208.1,96.8,208.4,96.6z" />
	<path fill="#342621" d="M219.7,95.2c-0.2,0.2-0.3,0.3-0.5,0.5c-0.1-0.2-0.1-0.3-0.2-0.5C219.2,95.1,219.4,95.1,219.7,95.2z" />
	<path fill="#977264" d="M204.9,109.9c-0.3-0.2-0.5-0.4-0.8-0.6C204.4,109.5,204.6,109.7,204.9,109.9z" />
	<path fill="#352420" d="M195.7,105c-0.1-0.1-0.3-0.2-0.4-0.3C195.6,104.6,195.6,104.8,195.7,105L195.7,105z" />
	<path fill="#2D201D" d="M176,81.8c-1.1-0.5-0.8-1.4-0.7-2.1c0.1-1-0.6-2.1,0.7-2.8C176.1,78.5,176,80.1,176,81.8L176,81.8z" />
	<path fill="#654C42" d="M176,81.8c0-1.7,0-3.3,0-5C177.3,77.9,177,80.6,176,81.8z" />
	<path fill="#433832" d="M176.8,79c0-0.2-0.1-0.4-0.1-0.7c0.7-0.3,1.4-0.6,2.1-0.9c-0.5,0.7-0.9,1.5-1.4,2.1   C177.2,79.5,177,79.2,176.8,79z" />
	<path fill="#D69479" d="M235.1,415.8c-3.8,0.6-6.1-1.7-7.8-5C226,400,238.9,409.8,235.1,415.8z" />
	<path fill="#D19176" d="M164.2,408c-3,0.3-3.2-4.6-4.4-6.3c0.2-2.6,3.8-5,5-2C162.1,401.6,164.3,405.4,164.2,408z" />
	<path fill="#1F1512" d="M159.3,460.6c-1.2-1.4,1.8-9.6,3.7-9.5C164,454.4,160.9,459.1,159.3,460.6z" />
	<path fill="#37251F" d="M164.2,408c0.1-2.6-2-6.4,0.5-8.3c1.4,2.6,2.2,6.2,0.6,9C165,408.5,164.6,408.2,164.2,408z" />
	<path fill="#2F201B" d="M239.4,411c0.4-3.4,1.8-7.1,3.1-9.1C244.4,404.8,241.6,408.3,239.4,411z" />
	<path fill="#AB7966" d="M179.1,304.2c2.9,0.7,6.7,3,9.6,5.9C185.2,309.1,181.8,306.8,179.1,304.2z" />
	<path fill="#33241F" d="M231.6,449.1c2.6-0.4,2.9,3.5,2.6,5.5C232.4,453.3,232.4,450.9,231.6,449.1z" />
	<path fill="#030101" d="M168.4,413.3c-1.7-1.4-1.6-2.7-1.4-4.7C168.9,409.7,169.3,411,168.4,413.3z" />
	<path fill="#4A3029" d="M206.8,313.1c-0.7,0.6-1.8,1.4-2.1,0c1-1.2,1.5-2.9,3.4-3.3C208.3,311.4,207,312,206.8,313.1z" />
	<path fill="#2C1F1A" d="M158,462.9c1.1,2.5,1,3.1-0.3,4.7C156.6,465.3,156.6,465,158,462.9z" />
	<path fill="#332620" d="M236.3,462.9c-1.5-1-1.8-2.5-2.2-3.9C235.8,458,237.3,461.6,236.3,462.9z" />
	<path fill="#594138" d="M186.6,313.8c1.4,0.9,3,1.2,4.2,2.7c-2.1,0-3.4-1.3-5-1.9C186.1,314.3,186.4,314,186.6,313.8z" />
	<path fill="#32211C" d="M155.3,473.5c0.5,1.5,1,2.7-0.8,3.7C154.1,475.7,153.7,474.5,155.3,473.5z" />
	<path fill="#6B4C40" d="M236.6,468.7c-0.9-1.1-1.8-1.8-1-2.9C237.2,467,237.2,467,236.6,468.7z" />
	<path fill="#1F1A16" d="M235.1,415.8c0.3-0.6,0.5-1.3,0.8-1.8c0.2,0,0.3-0.1,0.4-0.2c0,0.9,0.1,1.8,0.1,2.7c-0.3,0.1-0.6,0.2-1,0.2   C235.3,416.5,235.2,416.2,235.1,415.8z" />
	<path fill="#AB7563" d="M186.6,313.8c-0.2,0.3-0.5,0.5-0.7,0.8c-0.9-0.3-1.8-0.6-2.1-1.8C185,312.5,185.9,313.1,186.6,313.8z" />
	<path fill="#D69479" d="M236.4,416.5c0-0.9-0.1-1.8-0.1-2.7C237.5,414.6,237.6,415.4,236.4,416.5z" />
	<path fill="#372924" d="M236.6,472.7c-0.1-0.1-0.2-0.3-0.3-0.4c0.3-0.1,0.7-0.3,0.8,0.1C236.9,472.5,236.7,472.6,236.6,472.7z" />
	<path fill="#0D0908" d="M192.2,193.7c-8.9-0.3-20.1,0-25.3-8.6c0.1-0.6,0-1.2-0.7-1.4l0,0c0.1-0.6,0-1.2,0.7-1.4   c7.3,12.6,23.3,6.9,33.9,9.1C198,192.8,195,193,192.2,193.7z" />
	<path fill="#E7CDBC" d="M207.2,230.5c3.2,9.1,0,19.9,0.3,29.5C205.2,250.6,204.6,239.8,207.2,230.5z" />
	<path fill="#332D2A" d="M227.1,278.6c0.8-2.7,1.7-5.5,2.4-8.3c3,1.3-0.5,7-1.6,9.1C227.7,279.1,227.4,278.8,227.1,278.6z" />
	<path fill="#1D2724" d="M227.4,195.6c-0.2-0.3-0.4-0.6-0.5-0.9c2.8-0.2,8.7-1.4,10.4,0.9C233.8,195.8,230.8,195.9,227.4,195.6z" />
	<path fill="#544D48" d="M223.5,249.7c-1-2-1.1-4.7-1.7-7C223.3,241.9,225.5,250.1,223.5,249.7z" />
	<path fill="#524843" d="M221.9,235.6c0.9,1.8,1,3.1-0.1,4.5C220.1,238.2,220.1,238.2,221.9,235.6z" />
	<path fill="#210B0B" d="M203.4,190.1c-0.4-0.1-0.8-0.3-1.6-0.6c1.1-0.6,1.8-1.1,2.4-1.5c0.9,1-0.2,1.3-0.3,1.8h-0.3L203.4,190.1z" />
	<path fill="#40342F" d="M178.8,281.5c0-0.4,0-0.9,0-1.7c1.3,1,2.6,2.6,1.5,3.6C179.8,282.8,179.3,282.2,178.8,281.5z" />
	<path fill="#4C4440" d="M224.1,286.5c-0.8-1.3-0.2-1.9,0.9-2.5C225.6,285.1,225.5,286,224.1,286.5z" />
	<path fill="#372A28" d="M222.9,288.5c-0.2,1.6-0.4,2.3-1.7,2.4C221,289.8,221.7,289.4,222.9,288.5z" />
	<path fill="#9F8E85" d="M221,223.4c1.9-0.1,1.1,1,1.9,2C221.2,224.5,221.4,224.9,221,223.4z" />
	<path fill="#5A5752" d="M227.1,278.6c0.3,0.3,0.6,0.6,0.9,0.9c-0.3,0.5-0.6,0.9-1,1.4C226.3,279.8,226.7,279.1,227.1,278.6z" />
	<path fill="#4F2F2C" d="M222.5,194.3c0.5-1.3,1.3-0.7,2.1-0.4c-0.1,0.3-0.1,0.7-0.2,1l-0.2-0.1l-0.2,0.1   C223.5,194.7,223,194.5,222.5,194.3z" />
	<path fill="#454944" d="M217.5,192.1c0.8-1.2,1.3-1.2,2,0C219,192.2,218.2,192.2,217.5,192.1z" />
	<path fill="#422B29" d="M222.1,229.7c-0.4-0.2-0.3-1.5,0.1-1.4C222.2,228.8,222.6,229.5,222.1,229.7z" />
	<path fill="#E6CCBB" d="M174.5,273.2c-0.2-0.5-0.5-1-0.7-1.4l0.2-0.2C174.2,272.1,174.4,272.6,174.5,273.2L174.5,273.2z" />
	<path fill="#E5CBBA" d="M222.5,194.3c0.5,0.2,1.1,0.4,1.6,0.6C223.4,195.1,222.8,195.1,222.5,194.3z" />
	<path fill="#A7847C" d="M221.6,234.4c-0.1-0.1-0.2-0.3-0.3-0.4c0.3-0.1,0.7-0.2,0.8,0.2C222,234.2,221.8,234.3,221.6,234.4z" />
	<path fill="#E6CCBB" d="M182.8,286C182.5,285.9,182.7,286,182.8,286C182.7,286,182.5,286,182.8,286z" />
	<path fill="#967972" d="M159.1,169c-0.1,0.2-0.2,0.4-0.3,0.6c-0.1-0.2-0.2-0.4-0.3-0.5C158.6,169,158.9,169,159.1,169z" />
	<path fill="#140F0D" d="M145.9,334.8c-0.1,1.3,0.2,2.6-0.7,3.6c-2.7-6.6-2.2-14-3.4-20.8c4.4,3.4,1.8,10,5.5,13.8   c-0.5,0.6-0.9,1.1-1.4,1.7C145.9,333.6,145.9,334.2,145.9,334.8z" />
	<path fill="#2B221F" d="M134.4,230.2c-0.3-1.5-1.3-3.7,0.8-4.2c1.4,3.2,1.5,3.3,1,5.5C135.1,231.7,134.8,230.9,134.4,230.2z" />
	<path fill="#332823" d="M131.7,167.7c0.9,0.6,0.7,1.8,1.1,2.5c1.5,1.3,1,2.9,1.2,4.4c-0.1,0.2-0.1,0.4-0.2,0.6   c-0.3,0-0.7-0.1-1-0.1c-1-1.3,0.3-3-1.2-4.1C131.6,169.9,131.6,168.8,131.7,167.7z" />
	<path fill="#42302A" d="M133.8,223.1c-0.3,0-0.7-0.1-1.2-0.1c-0.5-1.8-2.2-3-2.3-5.4c0.6,0.2,1,0.4,1.4,0.6   C132.4,220.2,134.5,220.7,133.8,223.1z" />
	<path fill="#49342F" d="M134.2,322.8c2.2,1.3,2.3,1.5,1.3,2.8C135.2,324.9,134.9,324.2,134.2,322.8z" />
	<path fill="#634D45" d="M134.7,290.8c1.3,1.2,1.3,1.2,0,1.8C134.7,292,134.7,291.4,134.7,290.8z" />
	<path fill="#352C28" d="M166.8,182.4c-0.7,0.2-0.6,0.9-0.7,1.4c-1.7-2.2-2.9-4.7-4.2-7.3C164.4,177.6,164.6,177.8,166.8,182.4z" />
	<path fill="#2D2926" d="M174.6,273.1c-0.2-0.5-0.4-1-0.6-1.5c0.2-0.3,0.5-0.7,0.8-1.1c1.2,1.5,1.2,1.5,1.1,3.1   C175.4,273.5,175,273.3,174.6,273.1z" />
	<path fill="#4E423D" d="M161.4,173.8c-1.4-0.6-1.4-0.6-1.2-2C161.7,172.4,161.7,172.4,161.4,173.8z" />
	<path fill="#736158" d="M172.7,265.6c1,0.1,1.4,1.8,0.2,1.8C172.2,267.1,172.3,266.2,172.7,265.6z" />
	<path fill="#9F7D73" d="M207.4,187.1c-0.3,0.2-0.6,0.3-0.9,0.5c-0.4-0.8,0.2-0.7,0.8-1C207.3,186.8,207.4,186.9,207.4,187.1z" />
	<path fill="#352C28" d="M166.1,183.8c0.7,0.2,0.8,0.8,0.7,1.4C166.6,184.7,166.3,184.2,166.1,183.8z" />
	<path fill="#352C28" d="M167.3,183.1c-0.2-0.2-0.3-0.5-0.5-0.7C167,182.6,167.2,182.9,167.3,183.1z" />
	<path fill="#1C1715" d="M247.4,211.6c1.8,1.9,1.4,4.5-0.3,6.7C245.6,216.2,246.9,214.2,247.4,211.6z" />
	<path fill="#231A17" d="M245.6,223.1c-1.5-0.8-0.5-2.8-0.6-4.1c0.3,0.1,0.7,0.1,1,0.2C246.7,220.6,246.4,221.8,245.6,223.1z" />
	<path fill="#543F39" d="M242.7,224.5c0.3-0.7,0.8-0.8,1.5-0.7c-0.1,0.4-0.2,0.9-0.4,1.3C243.5,224.9,243.1,224.7,242.7,224.5z" />
	<path fill="#2F221F" d="M183.1,131.7c-2.5,0.2-4.8,0.4-6.8-0.9C177.2,128.5,181.7,129.8,183.1,131.7z" />
	<path fill="#3F342E" d="M194.2,132.9c-1.1,1.4-1.7,1.4-2.3-0.1C193,132.5,193,132.5,194.2,132.9z" />
	<path fill="#39221E" d="M186.3,132.8c1.6-1.3,1.6-1.3,2.7,0C187.8,133.2,187.8,133.2,186.3,132.8z" />
	<path fill="#161210" d="M265.9,556.2c-2.2,2.1-5.1,3.2-7.8,4.7c-0.5-0.6-0.8-1-1.2-1.4C257.5,558.1,265.7,552.5,265.9,556.2z" />
	<path fill="#292520" d="M262.8,561.1c-0.1-2.2,6.3-3.7,5.4-0.7C267.3,561.5,263.6,562.7,262.8,561.1z" />
	<path fill="#332823" d="M131,171.8c0-0.2,0-0.5,0-0.7c0.2,0,0.4,0,0.6-0.1l0.2,0.2C131.6,171.4,131.3,171.6,131,171.8z" />
	<path fill="#1B1310" d="M273.6,574.1c-1.4,0.9-1.9,2.3-3.7,1.9c-2.3-4.4,12.8-6.8,12.3-2.9C279.2,573.4,276.4,573.8,273.6,574.1z" />
	<path fill="#0E0A09" d="M249.7,290.3c0,0.7,0,1.4,0,2c-0.1,0-0.3,0-0.4,0c0-0.7,0-1.4,0-2C249.4,290.3,249.6,290.3,249.7,290.3z" />
	<path fill="#010101" d="M131.6,171c-0.2,0.1-0.4,0.1-0.6,0.1c0-1.3-0.6-2.5,0.6-3.4C131.6,168.8,131.6,169.9,131.6,171z" />
	<path fill="#120F0E" d="M141.6,555.5c-2-4.6,10.4-9.6,12.7-6.2c-3.3,2.7-9.2,2-11.4,6.4C142.3,555.7,142,555.6,141.6,555.5z" />
	<path fill="#100E0D" d="M148.6,553c2.1-0.2,4.1-0.6,6.2,0.2c-0.1,0.6-0.2,1.1-0.2,1.7c-3.9,0.4-7.9,0.6-9.7,5   c-0.5-0.2-0.9-0.4-1.3-0.6C142.8,555.8,146.2,554.4,148.6,553z" />
	<path fill="#130F0D" d="M145.5,563.6c-2.8-3.4,10.6-9.1,11.3-4.7C152.6,560.3,149.4,561.6,145.5,563.6z" />
	<path fill="#191412" d="M148.1,568c-0.7-1.3-0.4-2,0.4-2.4c3.1-1,6-4.4,9.3-2.5C155.5,566,151.7,566.7,148.1,568z" />
	<path fill="#1C1916" d="M149.9,570.6c2.5-2.1,6.7-4.2,9.7-2.4c-1,1.8-1.3,1.8-6.8,3.3C151.8,571.7,150.8,572.3,149.9,570.6z" />
	<path fill="#CDCEB4" d="M148.6,553c-2.4,1.4-5.8,2.8-5.1,6.2c-0.9-1.1-0.7-2.7-1.9-3.7c0.4,0.1,0.7,0.1,1.3,0.2   C144,554.1,146.2,551.3,148.6,553z" />
	<path fill="#C9D2D2" d="M201.4,75.4c0.1,0.8,0.2,1.3,0.4,1.9c-1.4,0.7-2-0.4-2.9-0.9C199.1,75.2,200.1,75.4,201.4,75.4z" />
	<path fill="#829797" d="M205.2,76c-0.1-0.1-0.1-0.2-0.2-0.3c0.2-0.3,0.3-0.2,0.5,0C205.3,75.9,205.3,75.9,205.2,76z" />
	<path fill="#8C6A5D" d="M178.9,83.2c-0.1-0.1-0.3-0.2-0.4-0.3C178.7,82.8,178.8,83,178.9,83.2L178.9,83.2z" />
</g>
</g></svg>