<?xml version='1.0' encoding='utf-8'?>
<svg xmlns="http://www.w3.org/2000/svg" version="1.2" baseProfile="tiny" id="Layer_2_00000167386404138662224580000016280290476579221940_" x="0px" y="0px" viewBox="0 0 900 600" overflow="visible" xml:space="preserve">
<g>
	<path d="M186.3,272.1c-3.9-20.4-3.7-41.5,4.5-60.4c-0.6-14.6,0.4-29.2,1.9-43.7c-0.7-0.1-1.2-0.2-1.8-0.4   c-1.5-54.3,2.9-108.8,0.6-163.2c0.2-0.3,0.5-0.7,0.6-0.8c4.7-0.4,9-3.4,13.4-2.1c2.2,8.9,0.3,19,0.9,28.3c0.4,0,0.8,0,1.2,0   c-2.9,15.6-0.3,32.5-1.8,48.6c-7.7,40.1-5.9,82.1-6,123.2c7.8-6.2,16.3-10.1,25.5-13.9c9.3-7.8,17.4-17.3,29.3-21.9   c22.4-13.4,39.2-9.6,30.6-43.3c-4.6-7,0.4-15.9-2.7-23.4c-5.1-9.4-2.1-19.2,1.5-28.3c0.6-4.1,0.7-7.7,4.6-10.2   c-1.4-2-3.8-2.1-5.3-3.8l0,0c0.2-0.2,0.2-0.4,0.1-0.6l0,0c1.9-1.1,4.2-0.6,5.1-2.9c2.3-0.4,2.2-2.7,3.5-3.8   c-0.5-1.2-2.3-1.1-2.2-2.9c0.9,0,1.6,0,2.2,0c0.7-0.8,1.4-1.4,2-2.1c0.9,0,1.8-0.1,2.4-0.1c0.6-0.9,0.9-1.5,1.3-2c0,0,0,0,0,0   c1.8,0.8,3.6,3.5,5.7,2.5c-0.4-1.3-1.1-2-2.1-2.5c-0.5-0.8-1-0.9-1.5,0l0,0c-0.5-0.2-1-0.5-1.4-0.7c0-0.2,0-0.5,0-0.7   c-1-1.1-2.3-1.9-2.6-3.5c0.7-0.1,1.4-0.2,2-0.3l-0.2,0.1l0.1-0.1c-0.1,0.5,0.2,0.8,0.7,0.8l0,0c0.2,1.8,0.4,2,2.2,2.2l0,0   c0.3,1.1,1.3,1,1.9,1.3c1.3-1,0.9-2.2,0.9-3.3c0.5-0.5,1-1,1.7-1.7c-0.9-6.6,4.3-5.9,7-1.1c1.3-1.5,2.5-2.9,3.8-4.3   c4.2,3.1,5.4-0.6,4.8,6.1c1.3,0.6,2.3-0.5,3.3-0.5c2.1-3.2,1.9-4.9,6.1-4.2c6.4-0.4,12-0.2,18.8-0.2c0.3,0.3,1.1,1,1.9,1.8   c1.5-1.1,3.3-2.4,5.1-2.1c4.2-0.2,7.7-3,12.2-1.7c0.4,0.8,0.8,1.5,1.2,2.2c2.8-0.4,4.6-3.3,6-5.5c2.8,1.2,2.9,1.5,1.8,5.3   c0.3,0.6,0.6,1.2,0.9,1.8c-0.4,1.7-1.1,2.9-0.4,4.7c3.1-1.5,7.8-5.7,10.1-0.8c-1.3,3-5,2.9-7,5c2.4,2.6,7.6-2.2,9.7,1.7   c-0.4,0.8-1,1.7-1.5,2.7c0.3,0.7,0.7,1.4,1,2.1c-2.7,5.5-10.6,6.2-14,11.4c1.4,8.2,0,17.1,4.5,24.3c-1.6,5.1-2.3,10.8-4.4,15.7   c-2.2-0.7-3.9,1.2-6,0.7c-2.3,0.7-3.7-1.3-5.8-1.2c-0.7,0.9-0.6,1.9-0.4,2.8l0,0c-0.4,0.5-0.8,1-1.7,2.1   c-0.9-10.4,6.5-12.7,14.6-16.1c0.3-1.5,0.6-3.1,0.9-4.6c-5.1-6.2-3.7-14.5-4.8-21.9c-6.3,2.8-11.6,2.3-18.1,0.5   c-3.2,1.7-6.3-0.1-9.4-0.8c-1.7,1-4.6,1-5.1,3c0.2,1.7-4.7,3.4-2.2,4.4l0,0c-0.3,0.3-0.6,0.6-1,0.9c-0.2,0-0.4,0-0.6-0.1   c-0.4-1.1-1.9-0.5-2.6-0.4c-1.5,1.9-4.2,1.3-5.6,2.6c0.5,0.4,1,0.8,1.5,1.3c-3.5,2.1-5.1-3-8.1,4.7c-1.4,6.2-6.9,10-9,15.7   c-2.6,6-3.1,13.9-7.8,18.6c-2.3-2.1,2.6-5.9,1-8.3c-0.5,0.2-1,0.5-1.6,0.7c-0.1,0.8-0.2,1.5-0.3,2.2c-3.8-2.1-2-16.7-9-11.2   c1.8,7.4,8.3,4.2,4.1,13.7c0.2,1.1,0.4,2,0.6,2.7c-1.6,2.4-3.6,1.5-5.6,1c-0.1,1.4,0.3,2.9-1.4,2.6c-0.8-0.9-1.5-2-2.9-2.4   c0.1,1.8,0,2.9-0.3,4.6c1-0.2,1.7-0.4,2.5-0.6c0.6,0.4,1.2,0.8,1.8,1.3c-5.6,21.4,3.5,31.4-20.6,42.5c8.9,20.1,41.5,99.3,67,92.3   c-0.7-5.5-2.6-9.9-2.7-15.4c5.6,2.4,5.3,10,5.5,15.2c27.4-3,28.6-17.5,26.6-39.3c-6.9-0.3-13.8,2-20.7,2.8   c-0.1-4.1,16.8-5.2,20.7-5.5c-0.9-10.6-3.9-20.7-7-31c-2.7-1.6-5.6-3.3-8.8-5.2c-0.3,10.1-1,19.2-5.7,28.1   c-0.5-0.3-0.9-0.5-1.4-0.8l0,0c1.2-9.5,5.7-18.2,3.3-27.8c-0.8,0.4-1,0.9-2,0.6c0.3-0.8,0.6-1.5,0.9-2c0.8,0.1,1.3,0.2,2.1,0.3   c0-1.6,0-2.1-0.3-3.5c-6.6,0.4-13,0.2-17.8-4.9c0.3-0.3,0.6-0.6,0.9-0.9c7.9,3.6,17.8,1.3,26.4,2.8c5.8-4.9,4.9-12.3,8.3-18.5   c5.1-10.6,1.1-23,7-33.3c-1.1-4.6-0.2-9-0.2-13.6c0.7,0.2,1.1,0.3,1.5,0.4c0.9,7,4.2,14.4,0.1,21c-2.8,6-1.8,13-2.9,19.4   c-1.8,6.6-5.6,12.5-7.3,19.3c-2.3,8.1-7.2,6.2-12.7,8.5c2,3.1,6.4,3.8,9.4,6c6.4,2.8,8.9,10.7,15.6,12.8   c40.9,8.3,60,31.8,52.4,73.9c2.2,13.8,7.5,27.1,8.2,41.1c2.4,11.6-1.9,23.2,0.4,34.7c3.8,14.3,16.8,25.1,18.2,40.2   c2.4,15.5,0.7,31.4,5.3,46.7c2-139.2-17.2-281-17.1-420.3c5.1-1.9,9.6-3.9,15.2-2.2c6,139.8-0.9,279.5,14.8,418.7   c36.8,11.2,75.4,11.7,113.6,7.4c2.5-2.8,6-3,9.5-2.7c4.3-8,11.7-16.8,19.9-7.4c1.3-0.5,3-0.7,4.6-0.9c10.3-14.6,22.8-16.7,38.5-9.3   c22-7.4,16.7-36.5,49-35.9c4.2,8.4,4.4-0.8,9.6-3.1c6.8-10.4,21.4-4.7,25.4,5.6c3.4,21.6,10.7,46.8-1.7,67.2   c-7.7,13.8-21.7,22-27.6,36.7c-5.6,15.2-7,34.5-22.6,43.3c-9.6,6.4-23.4,11.7-33.1,2.9c-12.4,7-32.2,15.1-40.3-1.1   c-3.3-4.9-7.3-9.1-11.7-13.1c-5-9-11.2-18.3-21.8-21.3c-0.4-0.9-0.9-2-1.3-3c-27.3,9-53,22.7-79.7,33.5c6.8,14.6,3.9,19.5-3.6,33.1   c-2.2,2.6-7.1,0.7-10,1.3c-6.8,7.3-13.3-0.6-19.9-3.9c-0.1-1.8-1.4-2.9-3.1-4.3c-5.1,15.8-14.4,28.8-27.8,38.4   c-10.1,7.6-33.4-9.7-43.6-14.7c-3.7-1.8-8.1-0.9-11.5-3.9c-9,9.9-17.4,20.1-29,27c-0.2,0.7-0.5,1.5-0.8,2.5   c-0.9,0.7-1.9,1.5-2.9,2.2c-13.3-4.4-23.6-15.1-35.3-22.5c-13.3-9.4-27.4-17.6-41.2-26.3c-19.6-12.4-43.9-20.2-56.2-41.2   c-3.1,14.2-5,29.3-13.3,41.8c1.6,5.7-0.5,11.4-1.1,17c-4,3.3-8.4,6-11.3,10.5c-0.8,1.2-1.8,1.7-3.3,1.6c-2.7-0.7-7.3,1.3-8.3-2.1   c-1.2-0.4-2.3-0.7-3.5-1c-0.3-0.9-0.5-1.6-0.7-2.4c-2.2-0.2-4.3-0.3-6-2.2c-0.6,0.6-1.1,1.1-1.8,1.8c-26-15.1-29.6-11.5-18.2-40.5   c-2.3-3,0.9-5.4,2.4-7.9c-5.1-30.2-5.1-65.9,14.8-90.9c2.9-3,3.8-6.5,3.8-10.5c0.4-45.4,3.2-90.9,9.3-136c1.8,19.7-4,41.7-3.9,62.2   c3-1.8,5.9-3.6,8.9-5.3c0.4,0.3,0.8,0.7,1.3,1c-2.7,3.5-7.1,5-10.7,7.7c-1.3,15.8-2.3,33-0.5,48.1c3.3-1.4,6.6-3.2,9.9-5.4   c3.9-28.8,3.2-57.4,4.2-86.3c-0.5-11.1,6.3-31.3,1.5-40.1c2.1-32.8,0.5-67.6,2.2-100.9C190.7,202,201.2,241,186.3,272.1z    M389.4,318.2c6.4-7.1,14.7-13.7,17.7-23c1.8-5,6.1-9.9,4-15.3c-0.6-0.5-1.2-0.9-1.8-1.4c3.1-33.5-24.4-60.5-37.3-89.6   c-2-1.2-3.5-4.7-6-4.8c4.7,12.8,14,49.7,3,59.5c0,8.2-14,10.3-20.3,13.2c-40.4,16.1-62.8-68.2-78.7-93.8c-2,0.9-4.3,1.2-6.2,2.3   c12.2,40.3,40.8,98.9,0.7,132c2.1,3,5.5,4.9,7.1,8.5c-4.6,0.8-8-3.6-11-6.5c-1.7,0.5-3.2,0.9-4.6,1.4c0.3,23.6,0.6,49-10.7,70.3   c2.1,10.7-0.7,21.2-4.6,31.3c18.2-5.2,37-4.1,55.4,0.4c6.6,0.1,14.4-0.7,20.5,2.7c5.3,0.8,11.9,4.6,16.9,1.4c7.9-3,16.9,0.1,24.6-5   c0.6-1.6,2-2.7,3.7-3.8c1.9-7.3,6.4-14.5,6.5-22.2c-0.3-2.1,0.3-3.7,1.6-5.3c10.5-13,10.4-31.1,17.9-45.7   C386.4,322,387.2,320.2,389.4,318.2z M437.5,585.8c-0.9-0.5-1.8-0.9-2.7-1.4c-14.2-22.2-15.3-50.7-9.5-75.9   c-6.6-3.6-13.7-5.1-20.1-0.7c-1.2,20-5.9,38.7-15.4,56c3,3.4,8.1,1.4,11.4,4.1c11.1,7.2,23.6,11.9,35.3,18   C436.9,586.7,438.6,586.8,437.5,585.8z M364.7,59.1C364.7,59.1,364.7,59.1,364.7,59.1c-0.4,0.1-0.8,0.2-1.3,0.3   c0.1,3,3.4,1.6,5.4,1.7C367.8,59.3,366.7,57.2,364.7,59.1z M356.1,60.5L356.1,60.5c2.1,1.2,3.9,1.5,6.3,1c-1-1.1-2.1-1.6-3.4-1.7   c0,0,0,0,0,0c0.7-0.5,1.4-0.9,2.5-1.6c-0.5-0.2-0.8-0.4-1-0.6c-0.6-2.5-2.6-2.2-4.8-2.1c0,0.8,0,1.3,0,1.9c-0.3,0.1-0.7,0.1-1,0.2   c-1.6-0.7-3.2-1.4-4.7-2.1c-0.9,0.2-1.8,0.5-2.5,0.7c-1.6-0.8-2.2-2.5-3.8-2.8c-1,0.6-1.6,1.3-1.1,2.4c1.8,0.8,3.9,1.8,6,1.4   c1.5,1.4,3.7,1.6,5.3,2.7C354.4,60.8,355.3,60.4,356.1,60.5z M308.6,78.5L308.6,78.5c-0.7,0.5-1.4,0.9-1.9,1.2c-1.6,0-3,0-4.4,0   c-0.4-1,0.1-2.9-0.9-3c-1.9,1.5-3.3,4.2-2.7,6.7c0.7-0.1,1.1-0.2,1.6-0.2c0.2,0.5,0.4,1.1,0.7,1.6c2.5,0.7,1.9-3.4,5.4-1.6   c-0.2,1.6-0.3,3-0.5,4.8c2.8-0.6,3.9-2.7,5.6-4.4c-0.1-1-0.2-1.9-0.3-2.7c-0.9-0.2-1.6-0.4-2.3-0.5c0.5-0.5,0.8-0.9,1.1-1.2l0,0   c1.4-1.2,1.8-3,1.2-4.9C309.4,75.4,309.9,77.3,308.6,78.5z M297.8,423.9c-2.8,0.6-6.2,0.2-8.7,1.5l0,0   c-10.8,1.3-25.1,2.8-33.1,10.3c8.9-4.7,18.2-6.8,28-8.8c0,0.7,0,1,0,1.3c-12.6,2.5-24.5,6.9-34.7,14.5c-1.7-3,3.4-4.8,5.4-6.2   c-1.7-7,13.1-8.6,17.8-11.3c24.4-7.1,48.7-1.9,73.7-2.3c6.7-4.3,19.6-12.8,26.4-5.5c-0.3,0.8-0.7,1-1.3,1.3   c-2.9-2.3-17.9,1.8-17.8,5.6c11.1,1.6,22.9,4.5,33.6,6.8c20-8.5,39.1,5.3,56.5,13.9c5.9-5.9,12.1-10.4,18.1-16   c-6.7,0.2-13.2,0.3-19.6,0.5c-7.5-9.1-20.3-5.4-30.5-7.3c-7.2-5.8-20.4-1-27.8,3.1c-5.7-6,16.3-5.5,16.4-8.7   c-7.7-0.8-15.1,0.1-22.5,2c5.2-7.7,17.1-4.5,24.9-4.5c0.2-1,0.4-2,0.6-3.1c-3-3.8-6.8-6.7-10.6-9.2c-8.6,2.3-17.3,7.2-26.1,7.4   c-5.1-2,1.3-3.8,4.3-4c-10.2-3.9-16.1,2.5-25.2,3.5c-4,0-6.5-0.3-9.7,1.7c-0.5,0.9-0.9,1.6-1.3,2.3c-27.1-10.9-38.3,0.4-62.9,6.8   c1.6-3,5.9-2.7,8.6-5.2c-3.4,0.1-6.3-0.1-9.1,0.3c-0.1,0.9-0.2,1.6-0.3,2.7c-9.3-6-21.5,2.4-27.2,10.1c-2.5,2.7-3.3,7.3-6.6,9   c-4.8-6,9-17,13.8-20.8c-4.7-0.4-7.5,2.1-12.1,1.5c-3,16.8-13.9,30.2-20.3,45.5c2.9,13.4,4.2,27,3.2,40.7   c16.6,25.3,45.9,37,71.2,51.6c21.6,11.1,39.9,29.4,60.8,40.4c-3.9-8.4-5-17.5-7.8-26.3c-6.2-8.1-4.2-18.4-3.6-28   c3.7-38.1,18-76.6,39.3-108.1c-28.9-8.7-59.8-5-88.9-7c3.7-1.7,7.9-1.7,11.9-2.5C302.4,423.3,299.5,422.6,297.8,423.9z M316.5,82.1   c-2.8,2.2-3.4,3.3-4,7.1c1.5-0.1,2.1-1.4,3-2.2C315.9,85.3,316.2,83.7,316.5,82.1c1.9-1.5,2.8-3.4,2.9-5.8c0.9-1.2,1.9-2.3,3-3.7   c-0.9-1.1-1.5-2.4-3.4-1.9C317.9,74.6,316.8,78,316.5,82.1z M197,514.6c2-5.1-0.5-11.8,1.4-17.3c2.4-4.5,4-9.7,1.7-14.7   c-0.9-1.3,0.5-3.1-1-4c-3.2-9.6-2.7-22.1-11.4-28.7c-12,10.5-13.5,35.1-17.4,50c-5.3,9.5-5.6,21.4-12.8,30.3   c-2.9,8.8-5.4,18.6-5.9,27.5c6.6,3.9,12,9.8,19.7,11.3c-4.8-3.5-9.5-6.2-13.8-10.1c0.3-2.5,0.5-4.7,0.8-6.9c0.4,0,0.8,0,1.2,0   c0.1,1.8,0.3,3.5,0.4,5.1c5.8,5.1,12.5,8.7,18.2,13.5c-1.1-3.6-5.3-5.5-4.9-9.8c-2.3-1.1-4.1-2.7-5.7-4.6c0-0.6,0-1.2,0-1.8   c8,0.8,11.8,14.6,16.1,21c9.5,3.7,14.1-6.5,21.5-10.7c0.3-3.2,1.5-6.5,1.2-9.7c-3.6,1.9-9.4,10.4-14.4,9.1c-3.3-4.6-5.5-8.1-6.3-13   c1.6-4-0.5-11.4,3-13.8c2.7,0.5,1.4,3.1,2.5,4.8c5-4.4,6.1-10.9,7.7-16.9c1.4-3.8-3.2-6.5-2.5-10.4   C196.7,514.8,196.8,514.8,197,514.6z M464,321.8c0,6.3-0.1,12.6,0.5,19c0.1-12.2,1.3-25.1-1.7-36.9   C462.9,310,462.8,315.9,464,321.8z M261,402.4c-6.8-0.3-13.8,2-20.1,3.5c0,0,0,0,0,0c-0.9,2.1-1.5,5.6-0.9,7.8c3,0.3,5.3-1.6,8-2.5   c0.3-2.3-0.7-4.8,0.9-6.6l0.2,0.1c0,0,0.2-0.1,0.2-0.1c0.2,2.3,0.4,4.7,0.6,7.1c1.4-0.1,2.5-0.1,3.7-0.2c0.1-2.5,0.3-4.7,0.4-7   c0.3,0.1,0.7,0.1,1.3,0.2c0.1,2,0.2,4.1-0.1,6.2c2.5,1.8,9.7,0.6,13.9,0.3C269.1,402.5,270.4,401.9,261,402.4z M293.5,102.9   c-0.4-0.9-0.9-1.8-1.4-2.8c0.4-0.7,0.9-1.5,1.4-2.4c-0.7-0.2-1.1-0.3-1.5-0.5c-1.5,1.7-3,3.3-4.4,4.9c0.3,1.4-0.6,2.8,0.7,3.8   c1.6,1.9,2,4.2,4.4,5.3c-0.3-1.6-0.4-2.7-0.6-3.7c0.9-0.9,1.7-1.8,2.5-2.6C294.2,104.1,293.9,103.5,293.5,102.9z M394.9,347   L394.9,347c1.4,7.2,9,13.9,7.4,21.1c1,16.9-2.7,40.9,13.2,51.4c10-0.7,20.6-0.3,28.8,6.3c5-0.2,10.2,0.6,15.2,0   c-9.2-43,3.1-40.4-21.9-83.7c-0.7,1.6-1.1,3-2,4.1c-0.9,1.2-0.1,3.4-2.3,3.7c-2.3-1.6-2.3-2.1-0.4-4.5c0.5-3.8-1.8-9.3,1.5-11.8   c1-11.8,1.5-23.3,0.7-35.1c-2.5-11.7-6.5-23.2-6.6-35.2c1.9-42.9-8.2-61.8-52-71.4c4.1,6.6,8.1,12.4,12.3,18.6   c1.7,0.3,2.9-1.4,4.4-0.3c-0.3,1.9-2.5,1.2-3.3,2.5c12,19.7,21,41.1,24.2,63.9c4-12.2-0.8-25.3,1.9-36.9   C434,310.4,374.5,308.6,394.9,347z M189,246.2c1.5-7.8,2.8-15.2,2.1-23.3c-4.4,11.5-2.1,23.9-4,35.9   C188.5,254.6,188.7,250.4,189,246.2z M193.5,414c1.1-8.9,0.8-18.5,0.1-27.5c-1.2,13.5-2.7,27.1-2.9,40.3c1.3,0.2,2.1-0.4,3.1-0.9   C194,421.8,193.7,418,193.5,414z M491.4,523.2c-1.3,0.1-2.6-0.1-3.7,0.5c-0.9,3.3,0.9,7.1,1,10.7c1.1,1.3,2.3,2.6,3.4,4   c0.2,0.7-0.3,1.7,1.2,2.2c3.5-5.4,5.2-11.2,3.6-17.7C493.7,522.4,493.7,522.4,491.4,523.2z M459,38.7c1.4-10.5,0.8-22.6,0.5-33.5   c-3.9,0.7-8.2-0.2-11.2,2.5c0.6,11.9,1.2,23.5,1.8,35.2C452.6,43.5,455.6,41.2,459,38.7z M281.2,403.2c-3.4-0.4-6.8-1.2-10.5-0.4   c-0.1,3-0.2,5.7-0.1,8.6c4.2,0.5,7.4,0.4,9.6-0.3c0.3-2.1,0.7-4.2,1.1-6.3c0.5-0.1,0.9-0.8,1.8-0.1c0,2.2-0.7,4.4-0.9,6.8   c2.5,1.3,4.9,1.8,7.4-0.5c0.2-1.9,1.5-3.8,0.9-6.1C287.3,404,284.3,403.2,281.2,403.2z M195.5,142.5c1.1-13.9,3.2-27.6,3.8-41.5   c-9,11.5-2.6,28-4.4,41.6c-1,5.5-1.8,11.3-1.1,16.8C194.3,153.7,195.5,148.1,195.5,142.5z M599.4,476.5c10.2-3.4,7.1-25.2,2.1-32.4   C603,455.3,602.1,465.7,599.4,476.5c-0.1,0.1-0.3,0.2-0.5,0.2c0.1,0.1,0.1,0.2,0.2,0.3C599.2,476.8,599.3,476.6,599.4,476.5z    M462,293.6c-0.2,1.6-0.2,3.1,0.4,5.2c0.4-13.6,3.3-27.8,0.8-41.2c-1.2,1.6-2.2,2.9-3.2,4.1C460.2,272.5,460.3,283,462,293.6z    M467,365.7c0.2,19.8-0.2,40.4,1.2,59.8c1.3-1.1,2.9-1.7,4.5-2.5c-1.4-4.6,0.6-10.8-1.2-14.5c-0.5,0.5-1.1,1-1.7,1.6   c-0.3,0-0.7,0-1.2-0.1c0.7-2,2.5-3,3.6-4.5c-1.5-20-3.6-40-4.9-60.1C466.5,352.1,467,358.9,467,365.7z M488.5,549.9   c7.7-7-4.7-8.8-3.8-25.8c-3.5-0.1-6.7-0.1-10.2,0.2c-0.9,5.6-1,11-2.3,16.6c2,2.5,3.9,5.6,7.6,4.8c1.4,1,2.7,1.9,4.1,2.9   c0.8,2.6,3.2,3.6,5.1,5.4c1.4-0.6,4.3-1.7,2.8-3.8c-0.9,0.4-1.8,0.7-2.8,1.1C488.9,550.7,488.7,550.3,488.5,549.9z M199.8,272.8   c-1.6,52-3.4,103.5-1.8,155.2c1,0.4,2,0.7,2.9,1c0.6,1.7,0.6,1.8,1.6,2.8c8,6.7,10.4,16.8,14.9,25.6c12.3-28.2,26-57.8,25.5-88.9   c1.1-11.8,7.9-22.6,7.5-34.9c1.6-17,0.4-33.9,0.5-51.1c-3.2-2.8-0.1-7.6,0-11.2c1-1,0.7-3.1,2.8-3.3c4.2,4.3-2.3,10.9,0.7,16   c3.7,1.4,3.7,6.4,7,8.9c29.4-16.8,17.2-57.6,12.2-84.6c-2.7-1.7-5.6-2-7-4.5c2-1.1,3.9,0,5.7-0.2c-3.3-12.7-5.9-25.3-12.4-36.7   c-11.3,5.8-21.2,13.1-30.8,21.3c-10.3,6.1-21.6,11.1-29.2,20.6C200,230.3,199.8,251.5,199.8,272.8z M203.4,37.7   c-0.2-0.6-0.5-1.2-0.7-1.8c2-6.2,0.5-13.2,0.8-19.8c-2,1.4-6.7,7.3-8.3,3.9c3.5-1.4,6-4,8.5-6.7c-0.3-3.3,0.3-6.4-0.3-9.6   c-3.1,0.1-7.5,1.4-9.8,2.7c1.2,17.3,0.6,34.5,1.4,51.9c3.1-2.6,5.3-5.4,7.6-7.6C202.9,46.1,203.1,41.9,203.4,37.7z M179.1,408.8   c-4.1,5.4,2.3,14.9-1.9,19.9c-1.8,6.6,0.1,22.2,9.5,18.9c-4.1-6.2-4.2-11.1-0.4-17.4c1.2-10.7,2.6-20.8,3.2-31.7   c-3.6,1.8-6.9,3.5-10.3,5.3C179.1,405.5,179.1,407.1,179.1,408.8z M179.6,452c2.2-1.9-7.6-6.3-5.1-15.9   c-17.7,22.5-20,54.7-15.3,82.1c3.3-9,8.8-17.7,9.6-26.9C168.4,477.5,174,464.6,179.6,452z M458.9,246.4c0.3,3.9,0.6,7.8,0.9,12.1   c1.4-1.3,2.1-1.9,3.6-2.7c-3.8-29.7-3.2-59.5-2.4-89.3c-0.3-0.2-0.7-0.4-1.3-0.7c3.3-5.7,1.5-12.3,2-18.8c-1.9,1.7-2.2,4.4-5,5.8   c1.8-3.9,2.5-6.6,5.4-9.4c-0.5-34.4-2.8-68.6-2.5-103c-3,2-5.8,3.4-9.2,4c-0.8,15,3.6,29,3.6,43.8   C450,141.1,459.7,193.4,458.9,246.4z M186.9,436.2c-2.6,2.9,2.7,5.9,2.2,8.9c15.2,16.3,18.3,40.4,14.4,61.8   c-1.3,13-0.3,32.2-13.1,39.4c-2.4,4.8-0.6,10.6,3.3,13.7c33.3-15.9,35-120.5-3-130.1c-1.5,1.7-0.6,4.4-2.6,6   C188,436.4,187.2,435.1,186.9,436.2z M706.6,459.9c-24.8,14.1-23.5,21.4-25.3,47.2c-6.8,6.2-6,11.9-15.7,16.5   c16.8,11,42.8-13.6,42.1-30.8c4.4-15.9,13.8-29.4,24.7-41.9c2.9-2.7,4.9-8.4,9.5-7.8c7.5-14.4,7.7-51.5-2.2-64.5c0-1.2,0-2.2,0-3.4   c-7.4-5.1-16.9-4.2-21,4.7c1,1,2,2.1,3.3,3.5c0.2-2.1,2.8-12.2,5.5-8.8c-2.2,3.5-3.1,7.7-3.8,12.1c16.8,22.8,1.4,55.1-17.7,72.1   C706.2,459.1,706.4,459.5,706.6,459.9z M592.1,488.8c9.7,4.3,15.7,12,20.5,21c6.7,5.9,12.5,13,17.3,20.4   c16.7,3.8,29.7-8.5,42.2-18.1c7.4-8.7,6.2-21.1,6.9-31.7c0.7-0.2,1.5-0.5,2.1-0.7c3.5-9.3,11.7-15.6,19.6-20.9   c8.7-9.9,19.3-20.3,23.4-32.9c0.7-0.6,1.3-1,1.9-1.4c2.1-16.2,0.6-47.4-21.5-46.4c0.4,0.6,0.7,1.1,1.1,1.6c-0.8,0.7-1.6,1.3-2.4,2   c-10.7-8.8-16.9,8.2-21.1,15.7c-0.7,0.2-1.4,0.4-2.2,0.7c-6.2,15.1-26.4,15.1-31.3,30.9c-2.2-2.2,0.4-4.7-0.5-7.2   c-1,0.3-1.9,0.6-2.8,0.9c-5.4,18-13.1,22-6-0.1c-0.8,0-1.7,0-2.6,0c-3.9,5.4-1.2,12.9-4.5,18.7c-6.9,7.8-1.5-15.8-1.9-18.8   c-3.6,0.3-7.3-0.8-10.6,0.8c-2.7,1.8-4.2,0-5.9-2.3c-1.4-0.3-2.6-0.5-4-0.8c-3.3,3.3-5.3,7.4-7.9,11.1c1.7,2.7-2.1,2-1.8,3.8   c13.4,9,14.2,42.3-3.6,48.3c0,0.7,0,1.4,0,2.1c-0.9,0.4-1.8,0.7-2.8,1.1c-0.2-0.3-0.4-0.6-0.7-1.1c-0.6,0.9-1.9,0.4-2.2,1.7   C591.1,487.9,591.4,488.6,592.1,488.8z M512.3,513.8c24.9-10.6,49.2-22.6,74.9-31.1c14.2-6.7,11.2-26.4,11.8-39.9   c0.6-0.2,1-0.3,1.5-0.4c-0.9-2.9-4.9-3.7-5.6-6.7c-14.8,4.1-28.8,10-43.6,13.5c-20.2,0.1-40.5-0.5-60.7-0.1   c-11.9-0.7-33.2,7.5-43,0.5c-1.4-2-4.5-0.9-6.3-2c-2.8-1.8-6.1-2.8-8.6-5.1c-14.7-7.5-32.1-12.2-48.4-7   c-3.4,3.8-8.8,13.2-10.8,18.5c2.4,0.7,4.7-1.4,7.2,0c-0.8,3.7-5.7,2.2-8.6,2.5c-11.3,20.9-19.6,43.6-23,67.3   c9,0.3,17.7-3.7,25.4-8.1C444.4,478,436.4,540.8,512.3,513.8z M356.3,590.3c27.9-17.2,45.6-48.4,45.1-81.2   c-17.9,6.2-33.9,17.1-53.2,18.4c-0.9,11.9-5.3,26.1,0,37.1C352.9,572.5,352.2,582.1,356.3,590.3z M426.9,513.8   c-3.4,9.4,1,74.6,16.4,67c15.4-14.5,28-34.9,26.8-56.6c-15.3,0.5-27.2-9.9-40.9-14.5C428.3,511.3,427.6,512.6,426.9,513.8z    M447.6,445.9c7.6,4.8,15.6,1,23.7,1c13.1-1,26.3-1.4,39.5-2c21.1,0.4,42.8,2.8,62.4-6.6c7.5-3.1,18.4-2.3,23.7-8.4   c-22.7,5-45.9,7.2-69.1,5c-7.1-1.5-21.5,2.7-26.1-2.6C464.1,424,477.7,421,447.6,445.9z M399.7,403.2c-1.4-12.7-0.6-24.8-0.8-36.3   c-5.9-9.1-8.8-18.3-11.6-28.2c-2.6,11.5-7.5,20.4-12.1,30.9c-4.3,10-4.9,21.2-8.3,31.5c2.2,1.6,5.6,0.2,7.3,3.1   c4.7-2.2,10.4-2.6,14.9-4.9C392.7,396.5,396.6,401.2,399.7,403.2z M499.3,522.3c1,7.5,1.5,16.4-5.3,21c5.9,5.6,1.2,3.9,1.4,8.7   c7,0.6,9-11.3,13.2-15.5c-1.7-4.8-2.2-10-4.8-14.7C502.4,521.9,501,522.1,499.3,522.3z M196.3,87.2c6.7-1.7,1.7-10.1,6.4-12.9   c-0.3-6.8,1.2-15.3-0.5-21.3c-2.4,2.5-4.8,5.2-7.2,7.8C195.8,69.8,196.2,78.2,196.3,87.2z M629.9,418.3c9.2-0.2,18.2,1.9,25.6-5.4   c-3.7-1.3-7.2-4.4-11.2-4.1C639.2,410.7,631.7,412.4,629.9,418.3z M199.7,97.2c-0.1-3.8,1.2-7.4,0-10.9c-1.3,1.2-2.5,2.2-3.6,3.3   c-0.5,4.4-0.7,8.7-0.6,13.8C197.3,100.7,198,99.7,199.7,97.2z M292.8,405.1c-0.1,1.9-1.2,3.2-0.6,5c4.2-2,7.5-2.2,11.6-5.1   C299.3,405.7,297.2,405.8,292.8,405.1z M311.5,61.4c3.3,1.6,5.7-4.5,8.4-6.1c-0.4-0.7-0.7-1.3-1.2-2.1   C316.5,56.3,312.8,57.5,311.5,61.4z M379.6,47c0.5,2.2-0.6,4.9,2.7,4.6c1.1-1.7,2.1-3.3,3.4-5.2C383.4,46,381.5,45.8,379.6,47z    M347.3,40.5c-2.4-0.3-4.4-0.3-6.1,1.5c0.2,1.5-1.5,3-0.1,4.1C343.1,44.3,345.7,43.2,347.3,40.5z M297.6,77.9   c-4.5-0.4-2.6,7.2-2.4,10.2C296.7,84.2,297.4,81.5,297.6,77.9z M309.8,46.6c2.4-0.3,4.1-0.5,5.9-0.8c0.8-1.1,3.5-2.6,1.7-4   c-2.3,0.7-4.1,2.7-6.5,3.2C310.4,45.2,310.3,45.8,309.8,46.6z M200.9,502.5c-1.6,1.7-1.7,11.4-0.1,12.9   C201.4,512.4,201.5,505.7,200.9,502.5z M336.2,42.3c-3.6,2.1-1.9,5.5-3.1,8.5c-0.1,0.2,0.4,0.6,0.7,1.1   C336.2,46.6,336.6,45,336.2,42.3z M323.5,56.7c-2.7-0.6-4.8,3.9-6.2,5.9C318.8,64.6,322.7,58,323.5,56.7z M300.7,57.3   c0.4,1.3,1.1,1.8,2.2,1.7c2.7-2.2,2.8-2.7,1-4.9C302.7,55.2,301.7,56.3,300.7,57.3z M306,58.1c2.6,0.5,8.5-3.4,6.4-6.3   c-2,0.6-1.9,2.7-2.5,3.3C308.5,56.3,307.6,57,306,58.1z M373.2,38c0.2-1.6,0.3-2.9-1.8-3.4c-1.2,1.2-0.3,3-1.6,4.2   c-0.3,0.4-0.2,1.2,0.9,1.5C371.5,39.5,372.5,38.7,373.2,38z M309.2,96.8c-2,1.5-2,1.5-4,5.7C307.9,104.2,309.6,99,309.2,96.8z    M375.4,95.3c-0.2-0.2-0.4-0.5-0.7-0.7c-1.9,1.5-4.5,0.3-6.7,2.5c2.3,0.2,4.3,0.4,6.5,0.7C374.9,97,375.2,96.2,375.4,95.3z    M285.2,77c-2.1,0.6-3.6,5.4-1.5,6.2C285.6,80,285.6,80,285.2,77z M287,77.4c0.5,0.4,1,0.7,1.5,1.1c1.2-1.7,1.8-3.1,1-5   C288.1,74.3,288.1,74.3,287,77.4z M330.1,38.5c0.9,0.4,1.7,0.8,2.5,1.2c0.4-0.7,0.8-1.2,1.1-1.7c-1.7-1.3-2.6-1.5-3.4-0.8   C330.3,37.4,330.3,37.8,330.1,38.5z M255.4,290.8c0.1,2.1-0.2,3.7,0.6,5.3c0.7-0.4,1.3-0.7,2-1.1   C257.2,293.6,256.5,292.4,255.4,290.8z M339.1,58.2c-1.2,2.4,2.1,4.3,3.2,2.1C341.7,59,340.5,58.9,339.1,58.2z M338,54.8   c0.4,0.4,0.7,0.8,1.1,1.2c1.9-1.7,1.9-1.7,2.2-3.8C339.9,52.5,338.8,53.4,338,54.8z M289.8,59.9c1.9,0.6,1.9,0.6,4.2-1.6   C292.7,57.5,292.7,57.5,289.8,59.9z M355.9,41.7c-1.8-0.9-2-0.9-3.2,1.8C354.5,43.9,354.5,43.9,355.9,41.7z M355.2,47.4   c-1.7-0.9-2.1-0.6-3.2,1.8C353.8,49.7,353.8,49.7,355.2,47.4z M347.4,54.2c1.3-1.1,2.1-2.1,1.8-3.9c-1.5,0.6-2.2,1.6-3.1,2.6   C346.5,53.4,346.9,53.7,347.4,54.2z M484.2,554.1c-1.8-1.1-2.6-5.4-4.7-4.6C481.7,553.4,481.7,553.4,484.2,554.1z M360.8,54.7   c1.6-0.3,2.1-1.7,0.7-2.7c-0.7,0.4-1.3,0.7-2.1,1.2C360,53.8,360.4,54.3,360.8,54.7z M286.5,98.1c0.7-1.8,0.2-2.2-1.2-3.1   C284.5,96.4,284.9,97.2,286.5,98.1z M295.5,111.7c2.2-0.6,2.3-0.7,1.6-3C295.8,109.7,295.2,109.8,295.5,111.7z M376.8,91.9   c-1.6-0.4-1.6-0.4-2.5,1.1C375.9,93.8,375.9,93.8,376.8,91.9z M324.5,61.4c-1.5,1-1.5,1-1.1,2.5C325.4,63.1,325.4,63,324.5,61.4z    M192.4,134c-0.6,3.2-0.6,3.2,0.3,5.8C192.7,137.5,192.9,135.9,192.4,134z M332.3,54.1c0.6,1.5,0.6,1.5,1.8,1.7   C333.9,54.6,333.9,54.6,332.3,54.1z M303.3,95.5c0.3-1,0.8-2-0.7-2.5C301.8,94.1,302,94.9,303.3,95.5z M297.5,104.3   c-1,1.6-1,1.6-0.5,2.8c0.5-0.6,1-1.1,1.6-1.8C298.2,105,297.9,104.7,297.5,104.3z M475.3,547.7c0,1.2,0,1.2,1.5,1.9   C477,548.4,476.3,548,475.3,547.7z M472.4,545.5c0.4-1.2,0-1.4-0.8-2.3C471.1,544.5,471.5,544.6,472.4,545.5z M361.2,402.1   c1.4,0.2,1.4,0.2,0.9-1C361.8,401.5,361.6,401.8,361.2,402.1z" />
	<path fill="#FBDFD3" d="M337.5,69c0.7-1.7,2.6-1.8,2.9-3.7c0.5-2.1,3.4-2,5.1-3c3.1,0.7,6.2,2.5,9.4,0.8c6.5,1.8,11.8,2.4,18.1-0.5   c1.1,7.5-0.3,15.8,4.8,21.9c-0.3,1.4-0.6,3.1-0.9,4.6c-9.3,3.8-17.9,7.1-14.7,18.9c0.1,0.7,0.7,0.8,2,0.2c-0.1-1.7-0.1-3.4-0.2-5.2   c0,0,0,0,0,0c0.3-0.6,0.7-1.1,1.1-1.8c3.7,3,7.1-1.2,11-0.5c0.2,0.6,0.5,1.2,0.7,1.8c-0.4-0.1-0.9-0.2-1.5-0.4   c-0.1,4.7-1,9,0.2,13.6c-5.9,10.3-1.8,22.7-7,33.3c-3.4,6.2-2.5,13.6-8.3,18.5c-7.6-1.5-16,0.9-23.5-2c-0.6-0.8-1.4-0.7-2.3-0.6   c-0.2-0.1-0.4-0.2-0.6-0.2c0.1-0.6-0.8-1.2-1.2-1.3c-2.5,0.2-3.8-1.8-6.1-2.7c0-1.8,0.5-4.8-2.2-4.6c-5.7-4-11.1-8.9-17.5-11.7   c-1.2-6.9-4.9-13.5-2.8-20.9c-3.5-1.9-2.3,13.8-1.9,15.8c-0.5,0.5-1,1-1.6,1.7c5.7,19.4,22.2,40.5,38.3,52.5c3.5,2.7,2,9.1,7.9,9.3   l0,0c1.1,5,3.6-6.6,4.9-7.4c2-6.5,1.7-12.9,2.2-19.9c3.2,1.9,6.1,3.6,8.8,5.2c3.1,10.3,6.1,20.4,7,31c-3.8,0.3-20.8,1.4-20.7,5.5   c6.9-0.8,13.7-3.1,20.7-2.8c2,21.9,0.7,36.3-26.6,39.3c-0.3-5.2,0.1-12.8-5.5-15.2c0.1,5.6,2,10,2.7,15.4   c-25,6.3-54-64.5-63.5-83.9c0.1-0.4,0.2-0.9,0.3-1.3c5-1.7,8.7-5.2,13.5-6.9c1.1,0.7,3.2,0.1,2.9-1.5c7.6-15,5.7-22.4,5.7-38.8   c0.5-0.4,1.1-0.9,1.8-1.4c-0.5-0.7-0.9-1.3-1.2-1.9c-1,0.4-1.7,0.6-2.5,0.9c-1.1-1.5-2-2.8-3-4.1c0-0.4,0-0.7,0-1.3   c1.9,0.6,3.9,1.5,5.6-1c-0.1-0.7-0.3-1.6-0.6-2.7c1.2-1.2,0.4-3.1,1.3-4.4c1.6,0.4,1.2,2.1,2.4,2.9c1.5,0.9-0.9,6.3,2,4.4   c4.7-4.7,5.2-12.6,7.8-18.6c2.1-5.8,7.6-9.5,9-15.7c3-7.7,4.7-2.6,8.1-4.7c-0.5-0.4-1-0.9-1.5-1.3c0.2-0.3,0.3-0.6,0.4-0.6   c2.5,0.3,4.1-1.8,6.3-2.1c0.4,0.6,0.9,0.7,1.6,0.5c0.2,0.1,0.4,0.2,0.6,0.1c1,0.9,2.1,1,3.3,0.4c-0.5-1.2-1.4-1.3-2.3-1.3   C338,69.5,337.8,69.2,337.5,69z M330.9,93.6c0.3-0.2,0.6-0.4,0.8-0.6c0,0,0,0,0,0c1.7-1.4,3.8-0.8,5.6,0c0.6,2.4,4,0.9,5.9,1.2   c-5.4,5.2-12,1-13.5,6c4.9,0.8,10.4,1.1,15.6,0.6c0.6,0.9,1.4,0.7,2.3,0.2c1.3-6.1,3.1-2.1,6.2-4.6c0.5-1.6-1-2.7-0.9-4.2   c-3.9-2.2-9.1-4-12.9-1.6c-0.7-0.6-1.3-1.1-2-1.6c-1.9,0.9-4.1,0.4-5.7,1.6l0,0c-1.1-0.3-1.4,0.9-2.1,1.5l0,0   c-1.6,1.3-4.5,0.4-3.2,2.9c1,0.4,1.8,0.1,2.6-0.7C330.1,94.4,330.6,94.2,330.9,93.6C330.9,93.6,330.9,93.6,330.9,93.6z    M366.7,138.4L366.7,138.4c-6.4-5.3-15,0.3-22.2,0.7c-3.2,3.9,2.9,6.6,5.5,8.5c-1.8,6.9,10.2,4.5,14,2.8c2-1.1,0.1-3.1-0.7-4.4   C364.4,143.7,370,140.7,366.7,138.4z M336.3,223.6c-3.8-0.9-7.1-4.6-10.2-2.9c1.4,3.3,3.7,4.5,7.6,4.4c3.9,4.1,8.2-0.1,10.4-4   C341.6,219.4,338.6,223.1,336.3,223.6z M359.5,127.4c1.7,0.7,3.5,0.7,5.2,0.4c2.5-0.7,1.8-4.1-0.7-4c-2.8,0.5-6.6-0.1-8.7,2.1   c-0.9,0-1.4-1-2.2,0c0,0.5,0.1,1.2,0.1,1.9c1.3,0.6,2.4,1.2,3.5,1.8C357.8,128.7,358.6,128.1,359.5,127.4z M321.8,216.8   c0.2-0.1,0.4-0.3,0.5-0.4c-0.7-3.3-18.4-6.4-21.8-6C303.7,216.1,316.1,212.3,321.8,216.8z M328.8,230.2c1.3,2,3.4,3.7,5.8,2.9   C334.6,230.5,330.4,227.6,328.8,230.2z M294.3,168.6c2-1.5,1.3-6.1-1.5-5.8C292.9,165,292,167.2,294.3,168.6z M333.5,198.9   c1.6-2.7,1.3-5.4-1-6.9C332.1,194.5,332,196.5,333.5,198.9z M322.7,226.8c0.8,1.3,1.7,1.8,2.9,2c0.3-0.4,0.4-0.7,0.6-1   C324.5,225.9,324.5,225.9,322.7,226.8z M344.5,210.2c1.5-0.9,3.6-4,1.2-4.1C344.8,207,344.2,208.2,344.5,210.2z M316.8,222.6   c-0.2,0.6-0.4,1.1-0.5,1.6c0.9,0.6,1.4,0.6,2.4,0.4C318.9,223.2,318.3,222.8,316.8,222.6z" />
	<path fill="#1F1C13" d="M186.3,272.1c0.5-0.5,1-0.9,1.4-1.4c-0.4,7.3-0.5,14.7-2.1,21.7C184.5,285.7,185.6,278.9,186.3,272.1z" />
	<path fill="#151111" d="M297.9,37.3c-0.6,0.1-1.3,0.2-2,0.3c0.2,0.5,0.3,0.9,0.4,1.3c-0.4,0.1-0.8,0.2-1.3,0.3   c1,1.2,1.9,2.3,2.7,3.3c-0.4,0.6-0.7,1.1-1.3,2c-0.6,0-1.5,0-2.4,0.1c0.7-0.4,1.4-0.7,2.2-1.2c-0.7-2.4-6.3-4.7-3.4-7.2   C294.4,36.7,297,35.9,297.9,37.3z" />
	<path fill="#151111" d="M303.5,38.2c0,1.1,0.4,2.3-0.9,3.3c-0.6-0.3-1.6-0.1-1.9-1.3C302.8,40.8,302.4,39.2,303.5,38.2z" />
	<path fill="#151111" d="M300.8,40.2c-1.8-0.1-2-0.4-2.2-2.2C299.3,38.8,300,39.5,300.8,40.2z" />
	<path fill="#AAA2A2" d="M284.9,55.5c-0.5,0.2-1,0.5-1.4,0.7C283.6,55.3,284.2,55.4,284.9,55.5z" />
	<path fill="#151111" d="M298.6,38.1c-0.5,0-0.8-0.3-0.7-0.8C298.1,37.6,298.4,37.8,298.6,38.1z" />
	<path fill="#AAA2A2" d="M283.5,56.3c0.1,0.2,0.1,0.4-0.1,0.6c-0.2-0.1-0.3-0.2-0.5-0.3C283.1,56.4,283.3,56.3,283.5,56.3z" />
	<path fill="#AAA2A2" d="M283.4,56.9c0.2,0.2,0.5,0.5,0.7,0.7C283.6,57.6,283.3,57.4,283.4,56.9z" />
	<path fill="#CCD2E9" d="M387.9,319.8c-1.1,2.5-1.1,2.5-0.1,5.1c-7.5,14.6-7.5,32.7-17.9,45.7c-1.3,1.6-1.9,3.2-1.6,5.3   c-0.1,7.6-4.6,14.9-6.5,22.2c-1.7,1-3.1,2.1-3.7,3.8c-6.4,3.1-12.8,4.3-19.9,3.7c-4-0.4-6.6,4-10.8,2.4c-13.2-4.4-26.3-4.6-39.7-7   c0-1.4,0-2.9-0.1-4.3c0,0,0,0,0,0c21.2-0.6,44.2,4.5,64.6,1.7c-21.3-2.6-43.1-1.7-64.5-3.8c-0.6-2.6-1.2-5.2-1.8-7.8   c-0.8,0-1.5,0-2.2,0c-1.1,2.7-2.2,5.3-3.3,7.8c-4.1,1.2-8.6-0.2-12.5,1.3c2.5,0,5,0,7.4,0l-0.1,0.2c1.3,1.5,3.5-0.1,4.9,1.1   c0.2,1,0.4,1.9-0.7,2.5c-6.4-0.3-12.9-0.6-19.3-0.9c8-16.7,3.1-37.3,9-55.1c1.3-0.4,2.4-0.2,3.6-0.6c1.9,1,3.1,3.2,5.4,3.3   c0.8,0,0.6-1.6,2-0.9c5.8-2.7-2.5-14.6-5.6-17.7c1.8-5,6.1-9.2,5.7-14.6c0.9-0.7,0.9-1.7,0.6-2.7c2.6,0.2,5.1,1.3,7.5,2   c0.8,0.6,1.4,1.6,2.6,0.8c4.4,0.6,8.2-1.1,12.3-2.9c-3.5-3.8-8.1-5.8-12.2-8.4c-2.6-7.1-11.6-9.6-15.4-16.4   c21.4-37.7-0.8-82.7-12.2-120.1c1.9-1.1,4.2-1.5,6.2-2.3c15.8,25.5,38.3,109.8,78.7,93.8c6.3-2.9,20.2-5.1,20.3-13.2   c11-10.1,1.6-44.6-2.3-57.8c0.3-0.3,0.6-0.6,0.9-0.9c13.8,19.7,47,70.3,41.6,93.6c0.6,0.5,1.2,0.9,1.8,1.4   c1.6,12.4-10.4,27.1-19,35.5c-0.2,0-0.5,0-0.7-0.1c-0.3-0.5-0.5-0.9-0.9-1.5c-3.2,2.3-6.2,4.2-10.1,4.4c-1.6,0-2.3-0.1-3.6,1.3   c4,0.4,7.6,0.7,10.9-0.8C387.8,319,387.8,319.4,387.9,319.8z M334.3,390.3c3,1,6,0.6,9.1,0.2c-10.9-2.5-24.5-3-35.3-1.8   C315.9,390.4,325.8,389,334.3,390.3z M368.2,318.4c1.1-1.9,3.6-1.7,5.3-2.5c4.1-2.8-6.1-10.1-9.1-10.8c-4.7-1.2-5.5-7-10.5-8   c-3.4,0.2-5.3-4.5-8.4-3.1c-1.4,4.9-5.4,10.6-1.5,15.3c2.3,4.8,7.4,9.6,13.3,7.5c2.1-0.2,5,0,6.7,1.3c0.1,0.3,0.1,0.7,0.2,1.2   C365.7,319.2,367.4,320,368.2,318.4z M318.8,337.6c-4.1,2.3-13.1,10.9-13.5,17.2C307.9,354.1,323.7,339.3,318.8,337.6z    M323.7,336.6c1.1,1.9,17.3,3.5,18.9,1.5C336.7,335.3,328.3,334.7,323.7,336.6z M330.8,314.1c2.2,4.5,13.8-6.3,8.5-8   C336.7,308.5,332.8,310.8,330.8,314.1z M343.3,336.2c-0.3,1.5-0.1,1.7,0.9,2.5c4.3,2.5,7.3,6.8,11.1,9.6   C355.1,341.8,348.7,338.6,343.3,336.2z M335.5,359.7c2.3-1.5,5.5-15.6,1.4-15.2C336.5,349.5,334.6,354.6,335.5,359.7z M303.6,358.2   c-1.5-3.3-5.8,2.9-6.5,4.6C300.6,362.7,302,360.5,303.6,358.2z M359.2,359.9c1.6-1.2,2-4.2-0.4-4.4   C356.9,356.3,357,358.8,359.2,359.9z M329.7,376.5c2,0.3,4.1-2.6,2.8-4.3C330.6,371.3,329.2,374.4,329.7,376.5z M294.5,362.1   c-1.8-0.3-5.3,3.5-4.3,4.8C292.5,365.9,292.8,365.5,294.5,362.1z M373.9,317.2c-1.5,1-2.8,0.7-2.7,2.3c1.2,0.2,1.8,0.2,2.9-0.1   C374.1,318.8,374.1,318.3,373.9,317.2z M356.4,354.2c0.8-0.9,0.5-2-0.6-1.4C356,353.2,356.2,353.6,356.4,354.2z" />
	<path fill="#FBDFD3" d="M198.4,310c0-4.8,0.1-9.5,0.8-14.2c2.2-3-0.7-8.3,1.3-11.3c5.5,1.1,4.8,2.5,8.7,4.1   c0.4-0.5,1.1-1.1,1.7-1.8c-0.8-16.2-6.7-31-10.2-46.5c-2.4-27.9,17.7-32.7,14.3-43.7c16.4-8.1,28.6-21.5,45.1-29.5   c6.4,11.4,9.1,24,12.4,36.7c-1.9,0.2-3.8-0.8-5.7,0.2c1.4,2.5,4.3,2.8,7,4.5c4.4,23.3,12.9,52.8-0.5,74.3   c-8.8-7.1-10-21.5-20.3-26.5c-3.5,4.2-2.6,10.1-1.8,15.1c-0.1,3.6-3.2,8.4,0,11.2c-0.1,17.2,1.1,34.1-0.5,51.1   c0.3,12.3-6.5,23.1-7.5,34.9c0.6,31.1-13.2,60.7-25.5,88.9c-4.6-8.9-7-18.9-14.9-25.6c-1.1-1-1-1-1.6-2.8c-0.9-0.3-1.9-0.7-2.9-1   c-2-22.9-1.2-46.3,1.3-69.1c2.7,2.4,5.4,3.9,8.9,2.9c0.4-0.5,1-1.1,1.5-1.6c0.2-4.4,0.2-4.4-0.6-6.1   C198.4,337.1,197.6,330,198.4,310z M227.2,407.4c3.9-0.8,3.3-4.3,5.1-6.6c2.7-3,3.7-6.7,3.8-10.5c-0.1-2.4,1.3-18.8-3.5-13.3   c-0.8,6.2,0.6,12.8-1.3,18.8C230,399.8,227.5,403.1,227.2,407.4z M251.4,239.8c-4.3,3.5-3.1,11.7-1.5,16.5c0.5,0,0.9,0,1.5,0   c0.9-4.7-0.3-9.5,0.9-14.3C252.5,241.1,252.3,240.3,251.4,239.8z M232.3,365.7c-2.1,1.3-1.3,5.4,0.9,5.7   C235.2,370,234.3,366.4,232.3,365.7z M225,196c2.5-1.5,5.2-0.3,7.5-2.1C230.7,192.5,225.6,192.5,225,196z M230.6,361.5   c2.7-1.1,0.6-5.1-1.9-4.5C228.4,358.9,229,360.3,230.6,361.5z M251.8,235.5c2.3-0.3,3-4.4,0.1-4.3   C251.1,232.5,251.4,233.8,251.8,235.5z M256.1,199.6c0.4,2.1,1.8,2.1,2.6,0.7C258.2,199.2,257.4,199,256.1,199.6z M237.1,194.9   c0.5,0.3,0.9,0.6,1.3,0.8C239.1,194.7,238.1,193.8,237.1,194.9z M263.3,203.3c0-1.6-0.7-2.7-1.3-1.4   C262,202.1,262.5,202.4,263.3,203.3z M241.9,194.8c-0.2,0.3-0.4,0.6-0.5,0.8c0.7,0.4,1.1,0.6,1.5-0.3   C242.6,195.2,242.3,195,241.9,194.8z M254.1,226.1c0.2-0.7,0.3-0.9,0.3-1.2c-0.2,0-0.4,0-0.5,0C254,225.1,254,225.4,254.1,226.1z" />
	<path fill="#FBDFD3" d="M360.4,483.6c0.5-2.1,1.1-4.1,1.6-6.2c2.3-0.2,5.5,0.3,6.5-2.3c-2-0.9-3.5,1.2-5.3,0.3   c1.5-6.6,5.8-12.8,8.8-19c2.9-0.3,7.9,1.2,8.6-2.5c-2.5-1.4-4.9,0.7-7.2,0c2-5.4,7.5-14.7,10.8-18.5c16.3-5.2,33.7-0.6,48.4,7   c2.5,2.3,5.8,3.3,8.6,5.1c1.8,1.1,4.9,0,6.3,2c2.3,3.2,6.3,2.4,9.6,2.6c-2,1.5-4.6,2-6.2,4c-1.4,0.2-4-0.3-3.4,2   c4.1,0.1,14.5-1.4,16.2-4c-0.5-0.7-1.1-1.4-1.6-2.1c29.4-4.8,59.4-2.8,89.2-3c14.8-3.5,28.8-9.5,43.6-13.5c0.7,3.1,4.7,3.8,5.6,6.7   c-0.5,0.1-0.9,0.3-1.5,0.4c-0.1,4.8,0.3,9.5-0.3,14.3c-1.7,1.6,0.1,4.3-1,6.3c-14.5,0.2-28.7,8.6-43,12.2   c-9.8,4-22.2,5.8-29.8,13.2c9.4,0.5,18.1-0.7,27.3-2c-13.9,8.4-28.9,10.1-44.3,13.4c-28.4,9.3-56.7,4.6-84.2-5.3   c5.9-3.3,13.6-1.8,18.4-6.8c4.7-0.9,9.9,1.1,14.1-1.2c-0.7-1.5-2.4-1.3-3.6-1.9c-0.7-1-2-0.3-2.8-1.2c0-0.7,0-1.2,0-2   c1.7-1,3.4-2,5.1-2.9c-8.3-2.1-21.4-5.9-27.5,2.1c-21.9,7.6-44.6,14.2-67.6,14.5C359.3,491.3,360.8,487.7,360.4,483.6z M407.7,455   c-6.2,0.3-1.8,3.8,2.2,2.7c1.3,0,0.5-1.8,1.7-2c5.4,0.6,12.2,4.5,16.3-0.8c0-2.6,0-2.6-1.5-4.9c-8.2-0.7-14.3-8.3-22.8-8   c-4.4,3.8-11.7,6-5,12.2c3.6,0,6.1,0,9.6,0.1C408,454.7,407.9,454.8,407.7,455z M432.4,444.8c-1.8-3.2-6.5-2.3-7.3,0.9   C427.8,446.7,429.9,445.8,432.4,444.8z M462.9,487.1c-1.7-1.2-5.9-2.2-6,0.5C458.5,488.9,461.6,489.5,462.9,487.1z M432.7,462.8   c1.6,0.8,5.5-0.5,3.4-2.6C434.5,459,431.5,460.6,432.7,462.8z M389.8,455.3c1.6,1.4,3.2,1.5,5.1,0.7   C394.1,453.3,391.1,453.6,389.8,455.3z M473.7,487.9c1.8-2.8-3.5-2.6-4.6-0.9C470.9,487.4,472.3,487.7,473.7,487.9z M387.7,455.3   c-0.9-1.3-2.2-1.2-3.5-1c-0.2,0.3-0.4,0.6-0.5,0.9C385.5,456.8,385.9,456.8,387.7,455.3z M486.4,486.2c-1.5-1.3-2.8-1.2-4.3,0   C483.6,487.2,484.9,487.6,486.4,486.2z M442.3,459.3c-0.9-1.2-3-1-2.7,0.7C439.9,461,441.8,460.7,442.3,459.3z M492.2,486.1   c0.8,1.2,0.8,1.2,2.2,0.1C493.7,485,493,485.5,492.2,486.1z M373.1,474.8c0.3,0.1,0.7,0.4,0.9,0   C373.7,474.4,373.4,474.4,373.1,474.8z" />
	<path fill="#4B65C5" d="M352.3,493c-6.3,20.9-11.1,42.4-10.6,64.4c-0.3,4.7,2.1,8,4.2,11.9c2.7,8.8,3.9,17.9,7.8,26.3   c-21-10.9-39.2-29.3-60.8-40.4c-25.3-14.7-54.6-26.4-71.2-51.6c1-13.7-0.3-27.3-3.2-40.7c0.8-1.3,1.5-2.6,2.2-3.8   c0.1,0.6,0.1,1.2,0.2,1.7c2.7,1.6,4.6,3.2,6.8,5.5c0.1-0.7,0.2-1,0.2-1.3c0.3,0,0.5,0,0.8-0.1l0,0c-0.1,2.2,1.3,3.9,2.1,5.8   c1.1,3.5,0.1,7.5,1.5,10.9c2.9,4.7,7,11.2,13.1,11.3c-13.7-11.8-9.9-13.3-16-27.9c4.5-1.4,27.4-12,28.8-6.6   c-6.8,5.6-13.8,9.7-21.6,13.8c20.7,9,40.8,4,61.6-2.1c-7,6.3-17.4,7.7-24.9,13.5c4.3,1,8.4,2,12.6,3c17.9-9.4,34.8-24.4,54.2-29   c-6,5.9-12.8,10.6-19.3,15.8c-0.4,0.3-0.7,0.7,0,1.1c-15.3,7.2-34.8,8.8-46.6,21.7c11.9-6.8,24.5-13.3,38-16.7   c-2.6,4.1-9,5.1-11.1,9.2c7.1,0.8,13.9,2.5,21.1,2.3c-11.9,10.8-25.3,19.5-38.1,28.9c16.2-7.1,29.9-20.8,43.9-31.9   c3.8,2.5,10.8-4.2,15.5-2.3c-2.4,2.5-5.7,3.8-8.1,6.3C337.1,493.2,337.1,493.2,352.3,493z M330.1,515.3   c-12.5,9.7-28.1,14.2-41.6,21.1c18.3-3.2,35.6-14.1,49.7-26.2C335.2,509.6,332.8,513.9,330.1,515.3z M240.1,509.8   c-1.7-6-6.7-10.4-10.2-15.4c-0.5,0.2-0.8,0.4-1.4,0.6C232.1,500.4,235.5,505.3,240.1,509.8z M324.1,540.5   c2.9,0.5,11.9-6.1,10.5-9.1C331.6,535,327.6,536.8,324.1,540.5z" />
	<path fill="#5876E8" d="M320.8,474.3c-0.7-0.3-0.4-0.7,0-1.1c6.5-5.2,13.4-9.9,19.3-15.8c-19.4,4.6-36.3,19.7-54.2,29   c-4.2-1-8.3-2-12.6-3c7.4-5.8,17.8-7.2,24.9-13.5c-20.8,6.1-40.9,11.1-61.6,2.1c7.8-4.1,14.8-8.2,21.6-13.8c-2-5.7-24.5,6-29.6,6.6   l0,0c0.1-1-0.3-1.5-1.7-2.2c0.4,1.1,0.7,1.7,0.9,2.3c-0.1,0.3-0.1,0.7-0.2,1.3c-2.2-2.3-4.1-3.9-6.8-5.5   c-1.5-2.2,11.9-28,14.3-26.1c-1.7,3.2-3.8,6.5-3.5,10.1c0.9,1.2,1.7,2.1,2.1,2.7c5.4,1.2,5.7-3.3,9.1-5.3c0.9,1.6-0.7,5.5,2,5.2   c0.8-3.1,1.1-6.4,3.2-9.1c1.6-0.3,3.3-1.7,4.9-0.9c-1.3,1.6-5.5,2.7-3.7,5.3c10.3-7.6,22.2-12,34.7-14.5c1.2-2,3.9-1.3,5.1-2.9l0,0   c1.1,0,2.1,0,2.9,0.7c-0.8,0.2-1.2,0.8-1.4,1.6c-6.4,3.1-15.1,4.7-19.9,9.7c3.6-0.5,18.8-5.6,23.2-7.8c-0.1-1,0.5-1.9,1-2.7   c29-0.2,58.3-1.5,86.6,6.3c-13.7,17.3-20.2,39.7-29.3,59.9c-15.3,0.2-15.3,0.2-17-1.1c2.4-2.5,5.7-3.8,8.1-6.3   c-4.7-1.9-11.7,4.8-15.5,2.3c4.7-4.8,9.6-9.3,14.6-13.9c0.4-0.4,1.2-0.8,0.6-1.8c-7.2,5.9-13.9,12.5-21,18.7   c-7.1,0.2-14-1.4-21.1-2.3c2.1-4.2,8.5-5.1,11-9.2c9.1-4.6,22-7,28.3-14.4C333.7,467.9,327.9,472.3,320.8,474.3z M308.6,436.2   c-1,0.3-1.6,0.8-2.1,2.3c7.9-4.4,16-6.3,23.8-10.8C322.5,429.3,315.6,432.4,308.6,436.2z M277.5,452.7c4.5-1.9,9.4-4.3,12.8-7.6   C286.2,445,280.6,449.4,277.5,452.7z" />
	<path fill="#FBDFD3" d="M399.8,312.9c18-19.6,23.9-47.6,16.3-73c-2.6,11.6,2.1,24.6-1.9,36.9c-3.2-22.8-12.1-44.2-24.2-63.9   c0.8-1.3,2.9-0.6,3.3-2.5c-1.5-1.1-2.7,0.6-4.4,0.3c-4.2-6.1-8.2-11.9-12.3-18.6c43.9,9.7,53.9,28.5,52,71.4   c0.1,12,4.1,23.5,6.6,35.2c0.8,11.8,0.3,23.3-0.7,35.1c-3.3,2.4-1,7.9-1.5,11.8c-1.9,2.3-1.9,2.8,0.4,4.5c2.2-0.3,1.4-2.5,2.3-3.7   c0.8-1.1,1.2-2.5,2-4.1c24.9,43.1,12.7,40.9,21.9,83.7c-5,0.5-10.1-0.3-15.2,0c-7.3-5.6-16.7-7.3-25.7-6.3   c-4.1-17.5-6.9-35.7-5.5-53.8c3.1,0.7,5.7,2.1,8.8,0.7c0.8-0.3,1.5,1,2.4-0.1c-3.2-11.1-10.5-20.8-15.7-31.4   C406,327,404,320.5,399.8,312.9z M406,226.7c-1.3,1.3,2.5,6.6,3.9,7C412.1,230.8,409.2,227.2,406,226.7z M429.9,361.5   c2.5-0.5,3.4-2.9,1.7-4.3C429.2,356.3,428.3,360,429.9,361.5z M433.2,352.8c-0.7-1.5-2.7-1.2-2.9,0.6   C430.5,355.7,433.2,355.2,433.2,352.8z M400,220.7c0.4,1.4,1.1,2.4,2.7,2.8C404,221.8,401.6,219.2,400,220.7z" />
	<path fill="#E4E4EB" d="M596.4,485.6c0-0.7,0-1.4,0-2.1c17.9-6.7,17.2-38.3,3.6-48.3c-0.3-1.8,3.6-1.2,1.8-3.8   c2.6-3.7,4.6-7.9,7.9-11.1c1.4,0.3,2.6,0.5,4,0.8c1.7,2.3,3.2,4.1,5.9,2.3c3.3-1.6,7-0.5,10.6-0.8c0.4,3-5,26.6,1.9,18.8   c3.3-5.8,0.6-13.3,4.5-18.7c0.9,0,1.8,0,2.6,0c-7.2,22.2,0.6,18,6,0.1c1-0.3,1.9-0.6,2.8-0.9c0.9,2.5-1.7,5.1,0.5,7.2   c5-15.9,25.2-15.8,31.3-30.9c0.8-0.2,1.4-0.4,2.2-0.7c4.2-7.5,10.5-24.5,21.1-15.7c0.8-0.7,1.6-1.4,2.4-2c-0.4-0.6-0.7-1-1.1-1.6   c3.4-0.7,6.1,0.3,8.8,1.7c-0.1,1-0.3,2-1.4,2.2c-4.3,1.7-5.7,6-9.7,8.6c-7.1,3.9-9.6,13.1-10.8,20.8c-6.6,4.5-8.3,12.4-12.1,19   c-12.2,11.3-12.5,30.5-14.4,46c-1.5,2.1-4.3,3.7-4.3,6.5c-11.4,11.4-24.7,21.8-28.8,38.2c-0.5,0.4-1,0.9-1.6,1.3   c-8.3-8.1-13.1-19-22.1-26.4C604.8,492.2,598.1,490.5,596.4,485.6z" />
	<path fill="#EECABA" d="M445.4,487.9c-1.1,0.1-2.1,0.1-3.3,0.2c-4.9,4.9-12.6,3.5-18.4,6.8c27.6,10,55.9,14.6,84.2,5.3   c15.5-3.3,30.4-5.1,44.3-13.4c-9.2,1.3-17.9,2.5-27.3,2c7.5-7.5,20-9.2,29.8-13.2c13.1-3.6,25.6-9.8,39-12   c-2.3,2.3-5.4,3.9-6.8,7.4c3.9,2.5,15.4-7,6.8-7.4c1.2-1.2,2.4-0.4,3.9-0.2c1.1-2-0.6-4.7,1-6.3c0.4,5.6-1.2,13.6-3.4,18.2   c-0.2-0.5-0.3-1-0.5-1.6c-2.3,0.9-4.3,1.7-7.1,2.7c2.8,0.1,4.9,0.1,7,0.2c-6.8,8.6-20.4,9.6-30.1,14.8   c-17.8,6.2-34.6,15.5-52.2,22.5c-0.7-1-1.7-0.6-2.6-0.4c-10.3,2.9-20.9,5-31.5,5.8c0,0.1,0,0.2,0,0.3c2.6,0.1,5.2,0.2,7.8,0.3   c-27.5,6.3-49.5-16.5-75.7-17.9c-21.3,4.7-39.6,20.1-61.2,21.8c2.3-13.4,4.6-28.2,11.3-40.1c0.4,4.1-1,7.7-0.6,11.9   c23.1-0.3,45.8-6.9,67.6-14.5c6-8,19.1-4.2,27.5-2.1c-1.6,0.9-3.4,1.9-5.1,2.9c0,0.8,0,1.4,0,2c0.8,0.8,2.1,0.1,2.8,1.2   c-5.7,0.6-11.1-2.1-16.8-1C437.8,487,442.2,486.9,445.4,487.9z M418.8,491.7c0.8,0.1,1.6,0.3,2.4,0.4c1.2-0.5,2.7-0.8,3.3-2.1   c-0.7-2.9-4,0.3-5.7,0.6c-0.9-2.6-4-0.5-5.5,0.4c-4.7,4.9-12.6,1-16.7,6C403.7,501.7,413.9,497.9,418.8,491.7z M567,482.9   c-0.1-3.6-5.5-3.4-5.2,0.2C562.1,486.6,567.1,486.3,567,482.9z M381.5,499.8c3.4,0.8,6.3-1.7,9.8-0.9c0.9,0.1,1.9-0.1,2.3-1.3   c-0.2-0.3-0.4-0.5-0.6-1C389.3,499.1,383.3,494.8,381.5,499.8z M380.1,500c-2.4-2.4-2.8-2.4-4.3-0.2   C377.5,501.3,377.8,501.3,380.1,500z M580.7,472.6c-1.6-1.7-3.7,0-4.3,1.8C578.3,475.3,578.7,475.1,580.7,472.6z M571.9,476.5   c-2.1-1-3.4-1.2-4.6,0.3C569.2,478.6,570.3,478.4,571.9,476.5z M556.2,480.2c2.1,1.4,2.1,1.4,3.6-0.2   C558.1,478.3,558,478.3,556.2,480.2z M428.6,488.9c1.2,0.9,2,1,2.9,0.3C430.8,487.3,430.5,487.3,428.6,488.9z M373.3,501.2   c-1.4-2.1-2.9-0.1-1.8,1C372.5,502.6,373,502.1,373.3,501.2z" />
	<path fill="#CFCFDD" d="M658.5,485.3c0.6-0.9,1.3-1.6,2.1-2.4c3.4,0.1,5.4-3.8,8.1-5.5c-0.1-4.9,3.9-11.2,0.1-15.1   c-2.7,4.4-1.2,10-4,14.2c1.9-15.5,2.2-34.7,14.4-46c-3.7,10-8.1,20.7-6.9,31.4c6.8-16,8.2-36.3,21.4-49.3   c-1.4-8.5,6.7-14.1,8.5-21.2c-0.8,0.1-1.4,0.2-2,0.3c5-2.2,6.8-7.5,11.5-9.6c1.1-0.2,1.4-1.2,1.4-2.2c14.2,7.8,14.3,30.2,12.8,44.7   c-0.6,0.4-1.1,0.8-1.9,1.4c-4.1,12.7-14.7,23-23.4,32.9c-7.9,5.2-16.1,11.5-19.6,20.9c-0.6,0.2-1.4,0.4-2.1,0.7   c-0.7,10.6,0.5,23-6.9,31.7c-12.4,9.6-25.4,21.9-42.2,18.1c-4.9-7.3-10.7-14.5-17.3-20.4c-4.8-9-10.8-16.7-20.5-21   c0.1-2,2.8-2.4,4.3-3.1c1.7,4.8,8.3,6.6,11.7,10.4c9,7.4,13.8,18.3,22.1,26.4c0.6-0.5,1.1-0.9,1.6-1.3c0.1,2.5-0.6,4.5,1.1,6.7   c2-18.8,18.2-28.9,27.6-42.9C659.7,485.1,659.1,485.2,658.5,485.3z M715.3,421.1c-5.7,10.2-10.3,21.1-16.4,31   c9.4-6.9,19.7-19.7,18.4-32.8C716.1,420,716.1,420,715.3,421.1z M651.4,520.4c6.3-3.3,17.2-22.1,17.5-28.5   c-7.1,3-19.2,22.1-20.8,31.2c0.8-1,1.5-1.9,2.3-2.8C650.7,520.3,651,520.3,651.4,520.4z M697.5,433.6c3.9-6,7.8-13.6,7.2-20.8   c0.7-1.1,1.2-2,1.7-2.9c-5-2.7-19.2,39.6-15,42.2C691.7,445.1,695.1,439.9,697.5,433.6z" />
	<path fill="#CFCFDD" d="M708,457c17.7-17.5,32.1-48.2,15.7-70.4c0.7-4.4,1.7-8.6,3.8-12.1c-2.7-3.4-5.3,6.7-5.5,8.8   c-1.4-1.5-2.4-2.5-3.3-3.5c4-8.9,13.6-9.8,21-4.7c0,1.2,0,2.2,0,3.4c9.9,13,9.6,50.1,2.2,64.5c-4.6-0.5-6.5,5.2-9.5,7.8   c-10.9,12.4-20.4,26-24.7,41.9c0.7,17.3-25.2,41.9-42.1,30.8c9.7-4.6,8.9-10.2,15.7-16.5c1.1-8.1,1.9-15.1,1.3-23.4   C690.7,464.2,708.5,462.7,708,457z M683.6,498c0.2-0.3,0.4-0.6,0.1-0.2C683.7,497.4,683.7,497.8,683.6,498   c-0.2,0.2-0.6,0.1-0.2,0.6C683.5,498.4,683.5,498.2,683.6,498z M729.6,442.5c-0.8,0.8-1.5,1.5-1.2,2.8c11.9-13.1,11-33.6,10.5-50.3   c-0.6,0.2-0.9,0.3-1.4,0.5c-0.9-2-0.6-3.6-2.6-4.9c2.7,16.2,0.6,32.3-6.6,46.9c1.9-0.3,2.4-1.9,3.4-2.8c0.3,0.3,0.6,0.5,0.8,0.8   C731.6,437.9,730.6,440.2,729.6,442.5z M698.4,486.4c-6.1,4-5.2,17.3-14.8,23.2c-1.2,0.8-1.7,2.5-0.4,3.4   C692.1,508,700.4,497.2,698.4,486.4z" />
	<path fill="#4B65C5" d="M356.3,590.3c-3.2-7.3-3.9-14.7-6.3-22.2c-0.9-3.5-4.5-5.8-4-9.8c-0.2-10.3,0.4-20.6,2.2-30.8   c19.3-1.3,35.2-12.2,53.2-18.4C401.9,541.9,384.2,573.1,356.3,590.3z M350.5,558.1c0.2,0.1,0.4,0.2,0.5,0.3c5-8,9.6-18.7,8.1-28.3   C357.4,539.4,354.8,549.2,350.5,558.1z M372.2,544c4.1-4.9,6.8-15.8,3.4-21.3c-0.9,1.8-0.8,3.2-0.7,5.1   C375.7,533.4,372.6,538.7,372.2,544z" />
	<path fill="#B7BDD5" d="M274.7,344.1c-0.6-0.4-1.1-0.8-1.7-1.2c-0.4,0.1-0.9,0.2-1.3,0.3c0.1-0.3,0.1-0.7,0.2-1   c-0.7-0.9-1.5-1.7-2.8-1.5c-0.5,1.6,1.1,1.7,1.5,2.5c-0.3,0.1-0.7,0.2-1.2,0.3c-5.9,17.8-1,38.5-9,55.1c-7-0.5-12.5,3.1-19.6,3.7   c3.9-10.1,6.7-20.6,4.6-31.3c11.3-21.3,10.9-46.8,10.7-70.3c1.5-0.4,2.9-0.9,4.6-1.4c2.9,2.9,6.3,7.3,11,6.5   c-1.6-3.5-5-5.4-7.1-8.5c4.3-3.5,8.3-7.1,11.5-11.8c3.8,6.8,12.8,9.3,15.4,16.4c4,2.6,8.6,4.5,12.2,8.4c-4.1,1.7-8,3.5-12.3,2.9   c-0.9-1.8-1.4-2-2.6-0.8c-2.5-0.8-4.9-1.8-7.5-2c-1.9-1.2-3.7-4-5.5-0.7c1.1,1.8,2.6,3.2,4.9,3.4c0.3,5.4-3.9,9.6-5.7,14.6   c3.1,3.2,11.4,14.9,5.6,17.7c-1.3-0.6-1.2,0.9-2,0.9c0.1-2.5,0.1-2.5-2.5-3.6C275.5,343,275.1,343.6,274.7,344.1z M267.8,341   c-2.8-4.9-5.5-7.3-7.9-12C256.4,332.5,263.5,340.6,267.8,341z M260.2,357.6c1.3,1.9,2.5,3.3,4.6,3.5   C266.1,358.9,262.2,355.8,260.2,357.6z M254.4,348.5c-0.7,2.7,0.1,4.2,2.6,5.2C257,351.7,256,350.2,254.4,348.5z" />
	<path fill="#FBDFD3" d="M196.4,514.9c-0.7,3.9,3.9,6.6,2.5,10.4c-1.6,5.9-2.7,12.5-7.7,16.9c-1.1-1.7,0.2-4.3-2.5-4.8   c-3.6,2.6-1.4,9.6-3,13.8c0.7,5,3,8.4,6.3,13c5,1.3,10.8-7.2,14.4-9.1c0.3,3.2-0.9,6.5-1.2,9.7c-4.8,3.3-9,7.1-13.1,11.1   c-2.2-5.9-7.1-10.1-11-15c-2.5-3.9-4.5-10.4-10.3-9.4c-1.3,1.4-3.7,2.4-3.2,4.8c-1.6,1.8-5.3,0.2-7.1-0.8c-0.3-1.2,0.3-2.8-1-3.4   c-3.3-1.1-1,4.4-4.1,3c-0.1-4.1,1.5-8.2,3.1-12.1c0.8,0.4,1.5,0.4,2.4,0.4c0.8-1.6,1.6-3,1.4-4.7c-0.5-0.1-0.8-0.2-1.1-0.3   c3.5-13.8,14.3-26.2,16.9-41.1c10-6.4,7.1-21,10-31.1c5,3.4,11.9,6.5,10.8,13.3c-0.7,0-1.3-0.1-1.9-0.1c-0.6,1.6-0.6,1.6,0.4,2.8   c1,0,1.3-1.3,2.5-1.3c2.2,5.6,1.7,11.2-1.4,16.4c-0.2-0.3-0.5-0.5-0.7-0.8c-0.1-1.1,0.3-2.5-1.4-2.8c-2.3,2.3-3.4,7.3-1.9,10.6   C198.3,505.1,195.6,511.8,196.4,514.9z M176.2,519c-0.2,1.3-0.3,3.8,1.8,2.6c-0.6-1.8-0.1-3.3-1.8-4.8   C176.2,517.8,176.2,518.4,176.2,519z M172.4,538.6c-4.1-1.1-5.1,7.9-2,9.3C172.4,545.4,172.4,541.8,172.4,538.6z M173.2,530.4   c-1.8,1.9-1.9,3.8-1.4,5.9C174,536,175,532,173.2,530.4z M196.5,491.4c1.9-1,1.6-5.1-0.6-4.6C194.9,488.2,195,490.4,196.5,491.4z    M174.9,524.4c-0.5,1.6-1.3,2.7-0.4,4.4c1.5-0.9,2.3-1.9,2.2-3.8C176.2,524.8,175.7,524.7,174.9,524.4z M165.1,533.2   c1.7-1.2,1.7-1.2,1.5-3.3C165.3,529.4,164,532.5,165.1,533.2z" />
	<path fill="#4B65C5" d="M426.9,513.8c0.7-1.2,1.4-2.6,2.3-4.1c13.7,4.6,25.7,15,40.9,14.5c1.2,21.8-11.5,42.1-26.8,56.6   C427.9,588.4,423.5,523.4,426.9,513.8z M451.1,549.9c1.8-4.2,8.6-17.4,5.6-20.7c-3.2,9.5-5.5,18.2-9.9,27.5   C449.7,555.3,449.6,552.4,451.1,549.9z M440,550.5c4.9-3,6.7-9.4,8.2-14.8C443.8,539.2,444.1,545.6,440,550.5z" />
	<path fill="#4B65C5" d="M433.8,584.5c-14.9-6.6-29.1-15.2-44-20.7c9.5-17.3,14.2-36,15.4-56c6.4-4.5,13.5-2.9,20.1,0.7   c-5.8,25.1-4.7,53.6,9.5,75.9C434.5,584.4,434.1,584.5,433.8,584.5z M409.3,537.4c-0.2,0.1-0.5,0.1-0.7,0.2c0.9,4.8,2.7,9.7,5,14.1   C413,546.6,411.3,541.9,409.3,537.4z" />
	<path fill="#5876E8" d="M368.3,418.3c0.5,0,1,0,1.4,0c0.7,1.3,2.5,0.4,2.9-0.7c-6.8-7.3-19.6,1.2-26.4,5.5   c-10.3,0-20.2-0.6-30.5-0.5c-7-4.2-33.5-12-34.5,0.8c-2.8,1-5.7,1.5-8.7,2c-5.6-5.6-15.5-1.6-22.3-4.2c5.6-4.2,14.4-8.2,20.7-3.5   c0.1-1.1,0.2-1.8,0.3-2.7c2.8-0.4,5.7-0.2,9.1-0.3c-2.6,2.5-7,2.1-8.6,5.2c24.6-6.4,35.8-17.7,62.9-6.8c0.4-0.7,0.8-1.4,1.3-2.3   c3.2-2,5.7-1.7,9.7-1.7c9-1.1,15-7.4,25.2-3.5c-3,0.2-9.4,2-4.3,4c8.7-0.1,17.5-5.1,26.1-7.3c3.8,2.5,7.6,5.3,10.6,9.2   c-0.2,1.1-0.4,2.1-0.6,3.1c-7.8,0-19.7-3.2-24.9,4.5c7.4-1.9,14.8-2.8,22.5-2c0,3.2-22.1,2.7-16.4,8.7c6.9-3.9,17.1-7.3,24.7-5   c-0.1,0.3-0.2,0.7-0.3,1.1c-7.3,0.6-18.2,2-21.2,9.6c-8.3-2.3-18.1-3.5-26.7-5.9C362.6,422.6,365.8,420.8,368.3,418.3z    M348.2,419.1c-0.6-3-2.9-4.5-5.2-6C340.8,415.2,346.1,418.3,348.2,419.1z" />
	<path fill="#FBDFD3" d="M447.6,445.9c30-24.9,16.5-22,54.2-13.7c4.4,5.4,19.1,1.2,26.1,2.6c23.2,2.2,46.3,0,69.1-5   c-5.4,6.2-16.3,5.3-23.7,8.4c-19.6,9.5-41.3,7-62.4,6.6c-13.2,0.6-26.3,1-39.5,2C463.3,446.9,455.3,450.7,447.6,445.9z M483.5,434   c-3.4-6.5-19.1-4.4-16.8,3.8C468.6,444,485.2,441.3,483.5,434z M495.5,436.2c2.2,1.2,3.7,0.2,5.3-0.3   C500.5,432.4,496.9,434.3,495.5,436.2z M488.7,436.1c1.2,0.3,2.4,0.5,3.5-0.9C490.7,434.4,488.8,433.9,488.7,436.1z" />
	<path fill="#EECABA" d="M399.8,312.9c4.1,7.6,6.2,14.2,8.9,22.2c5.2,10.6,12.5,20.3,15.7,31.4c-0.9,1.1-1.6-0.2-2.4,0.1   c-3.1,1.4-5.7,0-8.8-0.7c-1.4,18.1,1.4,36.3,5.5,53.8c-1.1,0-2.1,0-3.1,0c-15.9-10.5-12.2-34.5-13.2-51.4c1.5-7.3-6.1-14-7.4-21.2   c0.6-0.3,0.8-0.8,0.7-1.4C392.7,331.4,385.9,323,399.8,312.9z M400,331.1c1.4-4.2,0.6-10.9-2.4-14C393,317.9,396.1,330.6,400,331.1   z M408.3,369.5c0.9-3.1-0.4-5.3-1.4-7.4C402.8,361.8,405.1,367.8,408.3,369.5z M403.7,342.2c0.1-2-2.2-3.5-3.1-1.1   C399.7,344.1,403.2,345.7,403.7,342.2z M400.2,336.1c1.4-2.4,1.2-3.1-0.6-3.5C398.9,334.9,398.9,334.9,400.2,336.1z" />
	<path fill="#B38A56" d="M186.9,436.2c0.2-1.1,1.1,0.2,1.3-0.2c2-1.6,1.1-4.3,2.6-6c37.9,9.6,36.4,114.1,3,130.1   c-3.9-1.5-0.3-5,1.5-6.6c5.6-5.5,5.8-13.7,9-20.5c7.7-9.6,6.3-22,8.6-33.3c-0.2-0.3-0.5-0.6-0.7-0.8l0,0c-0.8-2.1,3.3-7,0.1-7.2   c0-1.5,0-2.9,0-4.4c2.4-1.8,0.9-4.3-0.8-5.9c3.9-13.4-1.2-11.2-1-18.6c2-4-4.7-5.4-5.3-8.8c0.3-0.2,0.4-0.4,0.6-0.5   c2.4,2.6,2.2-6.2-2.2-2.9c-5.1-4.6-9.1-12-16.5-12.8C186.9,437.1,186.9,436.7,186.9,436.2z" />
	<path fill="#EECABA" d="M324.4,156.2c2.7-0.2,2.2,2.8,2.2,4.6c2.3,0.8,3.6,2.9,6.1,2.7c0.3,0,0.7,0.4,1.1,0.7   c-1.5-0.4-2.9,1.4-0.7,1.5c4.8,5.1,11.1,5.3,17.8,4.9c0.1,0.6,0.2,1.1,0.3,1.5c-0.9,0.3-1.8,0.5-2.8,0.8c-0.7,1.8-1.3,3.6-2,5.5   c1.2,0.1,1.6,0,3.4-1c0.6,8.8-1.1,17.1-2.9,25.6c-6.8-0.6-2.1-7.5-16.5-15.9c0.4,0,0.7-0.1,1.2-0.1c0.5-3-0.6-8-2.9-9.8   c-2.4,2.6,0.6,5.6,0.8,8.6c-11.9-12.6-24.1-27.8-28.8-44.6c0.7-0.7,1.1-1.2,1.6-1.7c0.2,0,0.4,0.1,0.6,0.2c0.2,0.3,0.4,0.6,0.5,0.9   c-0.2,0.4-0.3,0.8-0.5,1.2l0,0c-5.8-0.4,13.3,11.1,14,13.1c1.9,4.6,5.4,8.7,6,13.6c-1.3,1.1,1.2,2.3,2.3,2c0-1.3,0.1-2.5-0.8-3.5   c-0.1-3.4-2.7-6-3.2-9.1c1.8-0.9,2.7,1.5,4.3,1.1C326.1,157.6,324.6,157.2,324.4,156.2z" />
	<path fill="#E3A70F" d="M459.7,146.1c-0.9,2-1.8,4.1-3,6.7c2.8-1.4,3.1-4.1,5-5.8c-0.5,6.5,1.3,13.2-2,18.8c0.6,0.3,1,0.5,1.3,0.7   c-0.6,22-1,44,0.2,65.9c-0.9-1.1-0.7-2.5-0.8-3.9c-0.8,6-1.1,11.8-1.4,17.8c0.8-53-8.9-105.3-5-158.3c0-14.8-4.4-28.8-3.6-43.8   c2.5-0.4,4.9-1.5,7.2-2.6c-1.3,14.5,1.1,29.5,0.8,44.2c0.6,14.1-3.1,29.3,0.6,43c-0.9,2.3-2.5,4.4-2.5,7.6c0.8-0.6,1.3-0.9,1.8-1.2   C458.7,138.7,458.6,142.9,459.7,146.1z" />
	<path fill="#EECABA" d="M159.5,543.4c-0.3-0.1-0.6-0.2-1-0.4c-1.7,3.1-2,6.5-3.2,9.7c-0.6-0.8-1.4-1.5-2.1-2.1   c-0.5-14.4,8.8-25.7,12.8-38.9c2-3.9,1.1-8.5,4.4-11.8c4-15,5.4-39.4,17.4-50c7.1,5.3,8.4,15.4,9.9,23.7c-2.5-3.5-6.2-4.7-9.7-7.4   c-3,10.1,0,24.8-10,31.1C174.8,514,162.4,527.6,159.5,543.4z M175.7,489.6c-1.1,2.1-1.6,3.7-0.7,5.6   C176.6,493.8,177,491.8,175.7,489.6z M165.9,515c1.2,0.5,2,0.8,2.8,1.1c0.8-1.8,0.3-3.3-1.5-3.8C166.8,513.2,166.5,513.9,165.9,515   z" />
	<path fill="#9D7747" d="M186.9,436.2c0,0.5,0,1,0,1.6c8.3,1.4,13.4,9.8,18.7,15.7c-0.2,0.1-0.4,0.3-0.6,0.5c0.3,2,2.1,2.7,3.5,3.9   c-0.7,0.1-1.3,0.1-2,0.2c-0.5,2.3,0.4,3.6,1.8,4.7c1.9-0.3,1.6-1.6,1.8-2.8c1.9,1.9-1.4,4.4,0.6,6.5c-2.3,0.3-3,0.8-2.8,2.3   c0.9,3.3,0.6,7.3,2.8,10c0.6-0.4,1-0.7,1.4-0.9c-0.3,1.2-0.5,2.4-0.7,3.5c0.6,0.7,1,1.2,1.4,1.7c-1.1-0.2-2.1-0.1-2.7,1.3   c0.3,1.1,0.6,2.4,2,2.9c0,1.5,0,2.9,0,4.4c-0.7,1.1-1.3,2.1-0.4,3.4c0.4,0.1,0.7,0,1,0c-0.6,1.2-0.7,2.5-0.7,3.8   c-2.1,1.9-2.3,2.7-1.2,4.7c0.4-0.2,0.8-0.4,1.2-0.6c-0.9,10.3-1.2,21.4-7.8,30c-3.2,6.9-3.4,15.1-9,20.5c-1.3,1.4-2.9,2.5-3.3,4.5   c-2.7-3.6-3.5-7.4-1.5-11.6c12.8-7.2,11.8-26.4,13.1-39.4c3.9-21.4,0.8-45.5-14.4-61.8C189.6,442.1,184.4,439.1,186.9,436.2z" />
	<path fill="#5876E8" d="M414.3,431.2c-3.5-1.3-7.4-1.6-10.7-3c1.3-2.9,5.4-4.1,8.1-5.8c10.2,2,23.1-1.8,30.5,7.3   c6.4-0.2,12.9-0.3,19.6-0.5c-6,5.6-12.3,10.1-18.1,16c-7.2-3.8-14.7-7.5-22-11.3c1.8-1.1,3.5-2.1,5.9-3.5   C422.4,430.2,419,430.5,414.3,431.2z" />
	<path fill="#E3A60F" d="M190.5,385.8c-0.2,3.4-0.5,6.9-0.7,10.4c-3.2,2.1-6.6,3.9-9.9,5.4c-1.8-15.1-0.8-32.3,0.5-48.1   c3.1-2,6.2-4,9.3-5.9c-0.1,2,0.1,3.9,0.8,5.8c-3,1.5-7.7,2.9-9,5.8c2.9,0.5,5.5-2,8.2-2.9C190.5,365.9,188.6,376.6,190.5,385.8z" />
	<path fill="#EDCABA" d="M299.2,121.6c0.1,17.2,1.8,24.7-6.4,40.3c0.3-3.2-0.2-7.2-2.8-9.3c-3.6,1.5-0.6,6.8,0.6,9.3   c-4.8,1.8-8.5,5.2-13.5,6.9c-0.1,0.4-0.2,0.8-0.3,1.3c-2-2.4-2.1-5.5-3.5-8.4c23.7-10.6,15.2-21.6,20.6-42.5   c-0.6-0.5-1.2-0.9-1.8-1.3c0.1-0.2,0.1-0.4,0-0.7c3.2-0.5,2.5,3.7,4.8,4.8C297.6,122,298.4,121.8,299.2,121.6z" />
	<path fill="#F1BD10" d="M190.5,353.3c-0.7-1.9-0.9-3.8-0.8-5.8c0.4-0.5,0.8-1.1,1.4-1.7c-0.5-0.4-0.9-0.7-1.3-1   c-0.4-13.3,0.3-28-0.1-41.9c1-2.3,4.2-4.4,3.5-7c-1.6-0.3-1.7,1.6-2.7,2.2c-1.7-4.6-0.2-10.8-0.7-15.9c2.2-3.8,4.5-7.5,6.7-11.3   c2.2,12.6-2.4,26.2-2.5,39.1c-1.7,25.4,0.9,50.8-3.5,75.9c-1.9-9.2,0-19.9-0.7-29.6C190.4,355.3,191.9,354.3,190.5,353.3z" />
	<path fill="#B38A56" d="M175.3,444.8c1.2,1.7,2.4,3.4,3.6,5.1c-0.8,1.7-0.8,1.7,0.6,2.1c-4.1,10.4-10.2,21.5-10.5,32.7   c1,10-3.9,18.4-7.5,27.7C158.7,489.6,164.1,465.2,175.3,444.8z M174.1,458.5c0.8-1.1,0.3-1.5-0.6-2c-0.2,0.3-0.5,0.6-0.8,1.1   C173.2,458,173.7,458.3,174.1,458.5z M176.5,453.1c-0.3-0.5-1-0.2-1.4-0.1C174.5,454.3,176.3,454.4,176.5,453.1z" />
	<path fill="#4B65C5" d="M250.3,421.2c6.8,2.6,16.6-1.5,22.3,4.2c-4.7,2.7-19.5,4.2-17.8,11.3c-0.7,0.3-1.2,0.6-1.7,0.8   c-1.6-0.8-3.3,0.6-4.9,0.9c0.7-2.7,2.5-4.1,3.8-6.8c-5.7-0.8-7,7.8-8.8,11.9c-0.1-0.3-0.1-0.7-0.3-1.2c-3.5,2-3.7,6.5-9.1,5.3   c-0.5-0.6-1.2-1.5-2.1-2.7c-0.3-3.7,1.8-6.9,3.5-10.1c-1-0.8-1.3,0.5-2.1,0.7c1.4-3.6,2.8-7.3,4.2-10.9c0.7,1.6,2.5,0.3,3.7,0.1   c-1.3,3.4-7.9,8.8-3.8,12C242.3,432.6,243.9,424.5,250.3,421.2z" />
	<path fill="#EECABA" d="M251,271.4c-0.8-5-1.6-10.9,1.8-15.1c10.3,4.9,11.5,19.3,20.3,26.5c-3,4.4-7,7.7-11.7,10.3   c-3.2-2.5-3.3-7.5-7-8.9c-3-5.2,3.5-11.8-0.7-16C251.8,268.3,252,270.4,251,271.4z" />
	<path fill="#E3A70F" d="M179.1,408.8c0-1.7,0-3.3,0-5c3.5-1.8,6.7-3.4,10.3-5.3c-0.6,10.8-2,21-3.2,31.7   c-3.8,6.3-3.7,11.2,0.4,17.4c-9.4,3.4-11.3-12.2-9.5-18.9c3.8-4.9-1.2-13.4,1.2-19.1c2.9,0,7.6-1.1,8.1-4.2   C183.4,405.9,181.4,407.8,179.1,408.8z" />
	<path fill="#9D7747" d="M175.3,444.8c-11.3,20.3-16.6,44.8-13.7,67.6c-0.4,2-1.4,3.7-2.5,5.8c-4.7-27.4-2.3-59.6,15.3-82.1   C174,439.6,174.2,441.8,175.3,444.8z" />
	<path fill="#F2BE10" d="M197.2,18.8c-0.7,0.4-1.4,0.8-2.1,1.1c1.6,3.4,6.3-2.5,8.3-3.9c-0.4,7.4,2.1,16-2.4,22.1   c0.8-0.2,1.5-0.3,2.3-0.5c-0.2,4.2-0.5,8.4-0.7,13c-2.3,2.2-4.5,5-7.6,7.6c-0.4-15.7-0.8-31.1-0.9-46.7c1.8,1.7,0.1,4.7,1,7   C195.9,18.7,196.5,18.7,197.2,18.8z" />
	<path fill="#E3A60F" d="M189.7,302.9c0.4,13.9-0.3,28.6,0.1,41.9c-3,1.8-5.9,3.6-8.9,5.3c0.5-14.9,2.4-30.5,3.9-45.5   c0.9,0.1,1.7,0.2,2.6,0.3C188.2,304.2,188.9,303.5,189.7,302.9z" />
	<path fill="#EECABA" d="M200.7,240.3c3.5,15.5,9.4,30.3,10.2,46.5c-0.7,0.7-1.3,1.4-1.7,1.8c-3.9-1.6-3.2-3-8.7-4.1   c-2,3,0.8,8.3-1.3,11.3C199.5,277.3,201.1,259.2,200.7,240.3z" />
	<path fill="#F0BD10" d="M458.9,128.8c-3.7-13.7,0-28.9-0.6-43c0.3-14.6-2-29.7-0.8-44.2c0.6-0.4,1.1-0.7,2.1-1.3   c-0.3,34.4,2,68.6,2.5,103c-0.8,1-1.6,1.9-2.4,2.7c-1.5-5.6-2.1-11.6,0.9-17.2C459.8,128.9,459.3,128.9,458.9,128.8z" />
	<path fill="#E3A60F" d="M457.7,39.7c-3.8,2.9-5,3.4-7.6,3.2c-0.6-11.6-1.2-23.3-1.8-35.2c1.8-1.4,3.8-2.4,6.4-2   c0.5,0.5,1,0.9,1.5,1.4c-3.3,1.2-3.4,1.2-4.1,3c1.3-0.5,2.3-0.9,3.4-1.2c0.6,5.4,0.9,10.5,0.7,15.9c0.6,0.2,1.1,0.3,1.5,0.4   c-2.2,1.5-5.1,1.4-7.7,3.6c2.9,0,4.4-0.6,6.9-1.4C457.4,31.3,455.7,36.4,457.7,39.7z" />
	<path fill="#EECABA" d="M200.7,240.3c-0.9,10.6,1.2,22.5-0.9,32.5c0-21.3,0.2-42.5,0.2-63.8c4.2-4.8,9.3-9.4,14.9-12.4   C218.6,207.2,198.3,212.6,200.7,240.3z" />
	<path fill="#EDC9B9" d="M198.4,310c-0.8,20,0.1,27,10.9,44.1c0.8,1.7,0.8,1.7,0.6,6.1c-0.5,0.5-1,1.1-1.5,1.6   c-3.5,1-6.2-0.4-8.9-2.9c-0.1,1.3-0.2,1.9-0.3,2.6C197.3,345,197.9,326.9,198.4,310z" />
	<path fill="#F9DED2" d="M499.3,522.3c1.7-0.2,3.1-0.4,4.5-0.6c2.6,4.8,3.2,9.9,4.8,14.7c-4.2,4.2-6.2,16.1-13.2,15.5   c-0.3-4.8,4.6-2.9-1.4-8.7C500.9,538.6,500.3,529.8,499.3,522.3z" />
	<path fill="#FADED2" d="M483.5,524.1c0.3,0,0.7,0,1.3,0c-0.9,17,11.5,18.8,3.8,25.8c-4.8,0.4-14.9-8.3-12.7-14.1   c4.4-1.6,7.6-6.2,5.2-10.7C482,524.7,482.7,524.4,483.5,524.1z" />
	<path fill="#F1BD10" d="M196.3,87.2c-0.1-9-0.5-17.4-1.3-26.4c2.4-2.7,4.9-5.3,7.2-7.8c1.7,6.1,0.1,14.5,0.5,21.3   C197.9,77.1,202.9,85.5,196.3,87.2z" />
	<path fill="#EDC9B9" d="M167.6,554.5c0.7-1.4,2.3-1.9,3.1-3c5.8-1,7.7,5.5,10.3,9.4c3.9,4.9,8.8,9.1,11,15   c-2.7,0.9-5.9-0.2-8.4-0.4C179.4,569.1,175.6,555.3,167.6,554.5z" />
	<path fill="#ECBA11" d="M189,269c3.2-13.3,4.6-27.2,5.9-40.8c2.3,9.6-1.1,21.4,1.3,30.9c1.9,8.1-1.5,11.6-5.6,18   c-0.4,0.1-0.9,0.2-1.6,0.4C189,274.6,189,271.8,189,269z" />
	<path fill="#EDBB11" d="M469.1,424.7c-0.3,0.3-0.7,0.5-1,0.7c-1.3-18.2-0.9-37.6-1.2-56.2c1-1.2,1-2.4,0-3.6c0-1.7,0-3.4,0-5   c0.4-0.2,0.9-0.5,1.3-0.7c0.2,15.3,3.3,30.3,3.8,45.5c-1.1,1.6-2.8,2.6-3.6,4.5c0.5,0,0.9,0.1,1.2,0.1c-0.4,0.5-0.8,1.1-1.4,1.9   C468.9,415.7,467.2,421.2,469.1,424.7z M470.2,396.2c-0.9,0.4-1,0.9-1.1,1.9C470.6,397.4,470.6,397.4,470.2,396.2z" />
	<path fill="#E2E2E9" d="M629.9,418.3c1.8-5.8,9.3-7.5,14.5-9.4c4-0.3,7.4,2.8,11.2,4.1C648.1,420.1,639.1,418,629.9,418.3z" />
	<path fill="#4B64C4" d="M281.3,423.3c1-12.8,27.5-5,34.5-0.8C304.4,419.3,292.9,422,281.3,423.3z" />
	<path fill="#F2BE10" d="M197.2,18.8c-0.7-0.1-1.3-0.2-2.1-0.3c-0.9-2.3,0.8-5.3-1-7c-0.2-1.8-0.3-3.5-0.5-5.2   c2.2-1.3,6.7-2.6,9.8-2.7c0.6,3.2,0,6.4,0.3,9.6C201.5,15.2,199.9,17.6,197.2,18.8z" />
	<path fill="#ECC9B9" d="M483.5,524.1c-0.7,0.3-1.5,0.6-2.5,1c2.4,4.6-0.8,9.1-5.2,10.7c-1.3,4.5,1.6,6.8,4.1,9.8   c-3.7,0.8-5.6-2.2-7.6-4.8c1.2-5.6,1.3-11,2.3-16.6C477.6,524,480.5,524,483.5,524.1z" />
	<path fill="#E9B712" d="M462,293.6c-1.6-10.7-1.8-21.1-2-32c0.9-1.2,2-2.5,3.2-4.1c2.4,11.7-0.1,24.2-0.5,36.1   C462.4,293.7,462.2,293.7,462,293.6z" />
	<path fill="#F9F9F9" d="M599.4,476.5c2.7-10.9,3.6-21.2,2-32.5C606.4,451.2,609.6,473.1,599.4,476.5L599.4,476.5z" />
	<path fill="#4B65C4" d="M411.7,422.4c-2.6,1.7-6.8,2.9-8.1,5.8c-5.7-0.1-11.1,1.8-16.5,3.1c2.9-7.7,13.9-9.1,21.2-9.6   c0.1-0.5,0.2-0.8,0.3-1.1C409.6,421.1,410.7,421.8,411.7,422.4z" />
	<path fill="#EAB912" d="M194.8,142.5c1.8-13.6-4.5-30.1,4.4-41.6c-0.6,14-2.7,27.6-3.8,41.5C195.3,142.5,195.1,142.6,194.8,142.5z" />
	<path fill="#C59D18" d="M196.2,259.1c-1.4-26.6-2.2-53.9,0.1-80.6C198.4,205,195.2,232.4,196.2,259.1z" />
	<path fill="#5573E1" d="M281.3,404.7c-0.4,2.1-0.7,4.2-1.1,6.3c-2.2,0.7-5.4,0.8-9.6,0.3c0-2.9,0-5.6,0.1-8.6   c3.7-0.8,7.1,0.1,10.5,0.4C281.2,403.7,281.3,404.2,281.3,404.7z" />
	<path fill="#F1BD11" d="M457.6,25.2c-0.4-0.1-0.9-0.2-1.5-0.4c0.2-5.5-0.1-10.6-0.7-15.9c2-1.1,0.4-2.1-0.8-3.2   c1.5-0.2,3.1-0.3,4.8-0.5c0.3,10.9,1,23-0.5,33.5c-0.1-3.7,0.2-7.3-0.1-11c-0.6-0.2-1.1-0.3-1.5-0.4c0.5-0.5,1.1-1,1.8-1.7   C458.5,25.4,458.1,25.3,457.6,25.2z" />
	<path fill="#B18955" d="M491.4,523.2c2.3-0.8,2.3-0.8,5.6-0.4c1.6,6.5-0.2,12.3-3.6,17.7C490.2,537.4,493.5,528.1,491.4,523.2z" />
	<path fill="#EAB812" d="M458.9,246.4c0.2-5.9,0.5-11.8,1.4-17.8c1.5,8.9,1.8,18,3.1,27.2c-1.4,0.8-2.2,1.4-3.6,2.7   C459.5,254.2,459.2,250.3,458.9,246.4z" />
	<path fill="#EAC6B6" d="M159.4,552.1c1.3,0.6,0.8,2.2,1,3.4c1.8,1,5.5,2.6,7.1,0.8c1.6,1.9,3.4,3.6,5.7,4.6   c-0.3,2.9,1.8,4.7,3.1,6.8c-0.3,0.3-0.6,0.5-0.8,0.8c-4.9-4.5-10.9-6.7-15.6-11.4C159.7,555.6,159.6,553.9,159.4,552.1z" />
	<path fill="#DFA40F" d="M189.7,282.1c0.6,5.1-1,11.3,0.7,15.9c-1.1,2-2.3,3.9-4.1,5.6c-0.9-6.7-1.2-12.9,0.6-19.2   C188.2,284,189,283.1,189.7,282.1z" />
	<path fill="#040408" d="M295.1,426.9c-0.6,0.8-1.1,1.7-1,2.7c-4.4,2.2-19.6,7.3-23.2,7.8c1.6-4.4,20.1-7.8,21.2-11.3l0,0   c0.2,0,0.5,0.1,0.7,0.1C293.3,427.2,294.3,426.7,295.1,426.9z" />
	<path fill="#5673E3" d="M255.1,411c0.3-2.1,0.2-4.1,0.1-6.2c-3.8-1.1-1.1,4.1-2.5,6.2c-0.8-0.1-1.6-0.2-2.4-0.4c-0.4-2,1.1-5.2-1-6   l-0.2,0.1l-0.2-0.1c0-0.2,0-0.5,0-0.7c3.9-0.9,7.4-0.9,11.4-0.7c0.1,2.7,0.2,5.1-0.1,7.7C258.3,411,256.7,411,255.1,411z" />
	<path fill="#5573E2" d="M241,424.7c-1.2,0.2-3,1.5-3.7-0.1c0.5-2.3,1-4.6,1.6-7.1c4.6,0.6,7.4-2,12.1-1.5   C246.9,418.7,244.4,421.5,241,424.7z" />
	<path fill="#DFB113" d="M193.5,414c0.2,4.1,0.4,7.8,0.3,12c-1.1,0.5-1.8,1.1-3.1,0.9c-0.3-9.9,1.4-19.9,2-30.1   C194.3,402.1,193.1,408.3,193.5,414z" />
	<path fill="#EEBB11" d="M469.1,424.7c-1.9-3.5-0.2-9-0.8-12.7c1-1.5,1.8-2.4,3-3.5c1.9,3.7-0.1,9.9,1.2,14.5   C471.4,423.5,470.3,424.1,469.1,424.7z" />
	<path fill="#9A7546" d="M491.4,523.2c1.3,5,0.6,10.1,0.8,15.1c-1.2-1.3-2.3-2.7-3.4-4c-0.1-3.6-1.9-7.4-1-10.7   C488.8,523.1,490.1,523.3,491.4,523.2z" />
	<path fill="#E9B812" d="M199.7,97.2c-1.7,2.5-2.4,3.6-4.2,6.2c-0.1-5.1,0.1-9.4,0.6-13.8c1.2-1.1,2.3-2.1,3.6-3.3   C201,89.8,199.6,93.4,199.7,97.2z" />
	<path fill="#4F6BD3" d="M281.3,404.7c0-0.5-0.1-1-0.1-1.5c3.1,0,6.1,0.8,9.3,1.5c0.6,2.3-0.7,4.2-0.9,6.1c-2.4,2.3-4.9,1.9-7.4,0.5   c0.2-2.3,0.9-4.6,0.9-6.8C282.2,403.9,281.8,404.5,281.3,404.7z M286,411.7c1.1-2.1,1.8-4.1,1.5-6.3   C285.2,404.6,284.2,410.5,286,411.7z" />
	<path fill="#4863C2" d="M368.3,418.3c-2.5,2.5-5.7,4.3-7.9,7.1c-2.3-0.3-4.7-0.6-6.9-0.9C353.8,420.7,364.7,418.1,368.3,418.3z" />
	<path fill="#5675E6" d="M262.6,402.4c1.9,0,3.7,0,5.6,0.1c-0.1,2.8,0.4,5.6-0.3,8.5c-1.9-0.3-4.1,0.7-5.4-0.7   C262.5,407.7,262.6,405,262.6,402.4z" />
	<path fill="#F1D2C6" d="M485.9,519.8c-2.6-0.1-5.2-0.2-7.8-0.3c0-0.1,0-0.2,0-0.3c10.7-0.8,21.2-3,31.5-5.8   c0.9-0.2,1.9-0.6,2.6,0.4C504.1,517.6,494.8,518.9,485.9,519.8z" />
	<path fill="#D6B7A9" d="M154.6,552c0.2,0.3,0.5,0.5,0.7,0.8c0,0.8,0.1,1.6,0.1,2.3c2.7,1.3,1.1-2.5,2.8-3c-0.2,2.2-0.5,4.4-0.8,6.9   c2.8,2,5.6,4.9,8.6,6.7c-0.3,0.3-0.6,0.5-0.8,0.8c-5-2.2-9-5.8-13.6-8.7c-0.2-2-0.4-4,0.8-5.8c0,0-0.1-0.1-0.1-0.1   c0.5,1.8-0.8,5.4,2,5.5c0.4-1.7,0.2-3.6,0.1-5.4C154.4,552.2,154.6,552,154.6,552z" />
	<path fill="#111212" d="M302.8,84.2c-0.4,0.9-1,0.8-1.8,0.6c-0.2-0.6-0.4-1.1-0.7-1.6c-0.5,0.1-0.9,0.1-1.6,0.2   c-0.6-2.5,0.8-5.1,2.7-6.7c1,0.1,0.5,1.9,0.9,3c1.4,0,2.8,0,4.4,0c0.5-0.3,1.2-0.8,1.9-1.2c0.2,0.7,0.8,0.7,1.4,0.7   c-0.3,0.3-0.6,0.7-1.1,1.2c0.7,0.2,1.4,0.3,2.3,0.5c0.1,0.8,0.2,1.8,0.3,2.7c-1.6,1.6-2.8,3.8-5.6,4.4c0.2-1.8,0.4-3.3,0.5-4.8   c-0.7-0.2-1.1-0.3-1.5-0.4c0.6-0.7,0.9-1.2,1.1-2.2c-1.2,0.1-2.2,0.1-3.3,0.2c-0.5,1.1-0.9,2-1.5,3.1C302,84,302.4,84.1,302.8,84.2   z M307.1,83.4c0.1,0.9,0.1,1.8,0.3,3.1c1.7-1.9,3.6-2.5,3.1-5C308.7,81.1,308.1,82.3,307.1,83.4z" />
	<path fill="#4F6CD4" d="M248.8,403.9c0,0.2,0,0.5,0,0.7c-1.6,1.8-0.6,4.3-0.9,6.6c-2.7,0.9-5,2.7-8,2.5c-0.6-2.2,0-5.7,0.9-7.8   c0,0.6,0.1,1.2,0.1,2c0.5-0.2,0.9-0.3,1.3-0.5c0,0.6,0,1.2,0,1.7c-0.6,0.1-1,0.2-1.6,0.3c0.1,1,0.3,1.9,0.4,3   c1.1-0.4,2-0.7,2.8-0.9c0.7-2.6,0.7-2.6,0.3-5.3c-0.9-0.6-1.2,0.3-1.8,0.7c-0.2-0.8-0.9-0.8-1.6-0.9   C243.2,405.1,246.3,404.7,248.8,403.9z" />
	<path fill="#0A0908" d="M462.1,452.1c0.5,0.7,1.1,1.4,1.6,2.1c-0.5,1.6-9.6,4.6-12.7,1.9c1.6-2,4.3-2.5,6.2-4   C458.9,452.1,460.5,452.1,462.1,452.1z" />
	<path fill="#D0B1A3" d="M188.3,246.2c0-8-0.6-15.9,2.7-23.3c0.8,8.1-0.6,15.5-2.1,23.3C188.8,246.2,188.6,246.2,188.3,246.2z" />
	<path fill="#E5CDC2" d="M303,108.7c-1.3-0.8-0.8-2.5-2.4-2.9c0.6-4.1-5.1-4.9-5.5-9.3C301,91,302.2,105.1,303,108.7z" />
	<path fill="#ACB4CB" d="M287.6,396.5c0,1.4,0,2.9,0.1,4.3c-2.7-0.4-5.4-0.8-8-1.3c1.1-0.6,0.9-1.5,0.7-2.5   c-1.4-1.2-3.6,0.4-4.9-1.1C279.5,396.1,283.6,395.7,287.6,396.5z" />
	<path fill="#F2D6CA" d="M390.7,326.8c3,5.7,2.5,12.7,4.9,18.7c0.2,0.6,0,1.2-0.7,1.4l0,0c0-0.6,0.1-1.2-0.6-1.5   C392.7,339.6,388.5,332.9,390.7,326.8z" />
	<path fill="#EAD1C5" d="M293.5,102.9c0.4,0.6,0.7,1.2,1.2,2c-0.8,0.8-1.6,1.6-2.5,2.6c0.2,1,0.3,2.1,0.6,3.7   c-2.4-1.1-2.9-3.3-4.4-5.3c-0.1-2.2,0.1-4.5,2.8-4.8C291.9,101.6,292.7,102.2,293.5,102.9z" />
	<path fill="#282929" d="M353.9,59.8c-1.7-1.1-3.8-1.3-5.3-2.7c-2.1,0.4-4.1-0.5-6-1.4c-0.5-1.1,0-1.8,1.1-2.4   c1.6,0.3,2.1,2,3.8,2.8c0.7-0.2,1.6-0.4,2.5-0.7c3.2,1,5.8,3.5,9,4.3l0,0c-0.7,1.3-1.9,0.5-2.9,0.7l0,0   C355.6,59.5,354.7,59.9,353.9,59.8z" />
	<path fill="#1A1405" d="M185.4,294.4c0.3,3,0.6,5.9,0.9,9.1c1.8-1.7,2.9-3.6,4.1-5.6c1-0.5,1.1-2.4,2.7-2.2   c0.3,3.4-3.4,6.7-5.7,9.1c-0.9-0.1-1.8-0.2-2.6-0.3C186.8,301.5,183.1,297.3,185.4,294.4z" />
	<path fill="#4E6ED8" d="M292.8,405.1c4.4,0.7,6.4,0.7,11-0.1c-4.1,2.8-7.4,3.1-11.6,5.1C291.6,408.3,292.8,407,292.8,405.1z" />
	<path fill="#4963C4" d="M262.5,410.3c1.3,1.4,3.5,0.4,5.4,0.7c0.7-2.9,0.2-5.7,0.3-8.5c1.6,2,0.5,6.1,0.8,8.8   c-4.2,0.3-11.4,1.4-13.9-0.3c1.6,0,3.2,0,5.1,0c0.3-2.7,0.2-5.1,0.1-7.7c-2.3-0.1-4.4-0.1-6.5-0.2c2.3-1.1,4.8-0.5,7.2-0.6   c0.4,2.8-0.2,5.6,0.4,8.4C261.9,410.6,262.2,410.4,262.5,410.3z" />
	<path fill="#F2BE10" d="M457.4,27.3c0.4,0.1,0.9,0.2,1.5,0.4c0.3,3.7,0.1,7.3,0.1,11c-0.4,0.3-0.9,0.6-1.3,0.9   c-2-3.2-0.2-8.4-0.8-12.2C457,27.3,457.2,27.2,457.4,27.3z" />
	<path fill="#1B1513" d="M349.5,189.3c0.2-4,0.4-7.8,0.2-11.9c-1.8,1-2.2,1.1-3.4,1c0.7-1.9,1.4-3.7,2-5.5c1-0.3,1.9-0.5,2.8-0.8   c0,0.6,0,1.2,0,2c-0.8-0.1-1.3-0.2-2.1-0.3c-0.3,0.6-0.6,1.3-0.9,2c1,0.3,1.2-0.2,2-0.6c0.3,2.2,1.1,4.3,1,6.4   C349.6,184,351.4,187.3,349.5,189.3z" />
	<path fill="#D69D0F" d="M188.4,283.7c-0.5,0.2-0.9,0.4-1.4,0.6c0.2-4.6,0.5-9.1,0.7-13.7c0.4-0.5,0.9-1.1,1.3-1.6   c0,2.8,0,5.6,0,8.5c0.7-0.2,1.1-0.3,1.6-0.4c-0.6,2.2-2.6,3.8-2.9,6.1C188,283.5,188.2,283.6,188.4,283.7z" />
	<path fill="#4261BD" d="M289.1,425.3c-1.2,1.6-3.9,1-5.1,2.9c0-0.3,0-0.7,0-1.3c-4.6,1-9,2-13.5,2.9c-0.3-0.2-0.5-0.5-0.8-0.7   C276,427,282.5,425.5,289.1,425.3z" />
	<path fill="#4C66C7" d="M414.3,431.2c4.7-0.7,8.1-1,13.2-0.8c-2.3,1.4-4.1,2.4-5.9,3.5C419.2,433,416.8,432.1,414.3,431.2z" />
	<path fill="#1B1606" d="M188.4,283.7c-0.2-0.1-0.4-0.2-0.8-0.4c1.9-4.8,4.7-9.4,7.8-13.6c0.3,0.3,0.7,0.7,1,1   C193.7,275,191.6,279.7,188.4,283.7z" />
	<path fill="#393A3A" d="M311.5,61.4c1.3-3.8,5-5.1,7.2-8.2c0.5,0.8,0.8,1.4,1.2,2.1C317.2,56.9,314.9,63,311.5,61.4z" />
	<path fill="#303131" d="M379.6,47c1.9-1.2,3.8-1,6.1-0.6c-1.2,1.9-2.3,3.5-3.4,5.2C379,51.9,380,49.2,379.6,47z" />
	<path fill="#7A651B" d="M193.5,414c0.5-9.5-1.6-18.2,0.1-27.5C194.3,395.5,194.6,405.1,193.5,414z" />
	<path fill="#463D39" d="M299.2,121.6c-0.8,0.2-1.6,0.4-2.3,0.5c-2.2-1.1-1.6-5.3-4.8-4.8c-0.1-0.2-0.2-0.4-0.3-0.6   c1.2-0.5,2.3,0.3,2.4-1.6c1,1.3,1.9,2.6,3,4.1c0.7-0.3,1.5-0.5,2.5-0.9c0.4,0.6,0.8,1.2,1.2,1.9   C300.2,120.8,299.7,121.2,299.2,121.6z" />
	<path fill="#3B3B3B" d="M347.3,40.5c-1.6,2.7-4.2,3.8-6.2,5.6c-1.3-1.1,0.4-2.6,0.1-4.1C342.8,40.2,344.9,40.2,347.3,40.5z" />
	<path fill="#353434" d="M297.6,77.9c-0.2,3.7-0.9,6.3-2.4,10.2C295.1,85.1,293.1,77.5,297.6,77.9z" />
	<path fill="#32488E" d="M269.7,429.1c0.3,0.2,0.5,0.5,0.8,0.7c-5.1,1.8-9.7,3.4-14.5,5.9C258.9,431.3,265,430.7,269.7,429.1z" />
	<path fill="#2A2B2B" d="M309.8,46.6c0.5-0.8,0.7-1.4,1-1.5c2.5-0.5,4.2-2.6,6.5-3.2c1.9,1.4-0.8,2.8-1.7,4   C313.9,46.1,312.2,46.3,309.8,46.6z" />
	<path fill="#19150F" d="M200.9,502.5c0.6,3.2,0.5,9.9-0.1,12.9C199.2,513.9,199.4,504.2,200.9,502.5z" />
	<path fill="#E6C7BA" d="M484,548.5c1.6,0.4,3,2.4,4.5,1.4c0.2,0.4,0.4,0.8,0.7,1.4c1-0.4,1.8-0.7,2.8-1.1c1.5,2.1-1.4,3.2-2.8,3.8   C487.3,552.1,484.8,551.2,484,548.5z" />
	<path fill="#66561D" d="M464,321.8c-1.2-5.9-1-11.7-1.3-18c2.9,5.7,0.3,11.9,2,18C464.5,321.8,464.2,321.8,464,321.8z" />
	<path fill="#161717" d="M336.2,42.3c0.4,2.7,0,4.3-2.4,9.7c-0.3-0.5-0.8-0.9-0.7-1.1C334.3,47.7,332.6,44.3,336.2,42.3z" />
	<path fill="#D5AA19" d="M468.3,359.9c-0.4,0.2-0.9,0.5-1.3,0.7c-0.4-5.1-0.2-10.2,0.2-15.3C467.6,350.2,468.7,355,468.3,359.9z" />
	<path fill="#333230" d="M293.5,102.9c-0.8-0.6-1.6-1.2-2.4-1.8c-2.7,0.2-2.9,2.6-2.8,4.8c-1.3-1-0.4-2.4-0.7-3.8   c1.4-1.6,2.9-3.2,4.4-4.9c0.4,0.1,0.9,0.3,1.5,0.5c-0.6,0.9-1,1.7-1.4,2.4C292.6,101,293.1,101.9,293.5,102.9z" />
	<path fill="#313232" d="M317.9,74.9c0.3-1.3,0.7-2.7,1-4.1c1.9-0.6,2.5,0.8,3.4,1.9c-1.1,1.3-2,2.5-3,3.7c-0.4,0.1-0.8,0.3-1.4,0.5   C317.9,76,317.9,75.5,317.9,74.9z" />
	<path fill="#C1ACA3" d="M196.4,514.9c-0.6-3.3,1-7.7-0.9-10.3c1-2.6,1.5-5.3,2.2-7.9c0.2,0.3,0.5,0.5,0.7,0.8   c-1.3,5.7-1.6,11.4-1.4,17.3C196.8,514.8,196.7,514.8,196.4,514.9z" />
	<path fill="#725E1E" d="M194.8,142.5c0.2,0,0.5,0,0.7,0c0,5.6-1.2,11.3-1.8,16.9C193,153.8,193.9,148,194.8,142.5z" />
	<path fill="#48423E" d="M364.1,103c0.1,1.7,0.1,3.5,0.2,5.2c-3.5,2.6-3-10.1-1-11c-0.3,2.4-0.6,4.8-0.9,7.9   C363.2,104,363.6,103.5,364.1,103z" />
	<path fill="#302F2E" d="M303,108.7c-0.1-0.7-0.2-1.4-0.2-2.1c0.4,0.3,0.9,0.7,1.3,1.1c0.1-0.7,0.2-1.4,0.3-2.2   c0.5-0.2,1-0.5,1.6-0.7c1.6,2.5-3.3,6.2-1,8.3C302.1,115,304.5,109.5,303,108.7z" />
	<path fill="#131313" d="M323.5,56.7c-0.8,1.2-4.7,7.8-6.2,5.9C318.7,60.7,320.9,56.1,323.5,56.7z" />
	<path fill="#746120" d="M464,321.8c0.2,0,0.5,0,0.7,0c0.2,6.3,0,12.6-0.3,19C463.9,334.4,464,328.1,464,321.8z" />
	<path fill="#343535" d="M300.7,57.3c1-1,2.1-2.1,3.1-3.2c1.8,2.2,1.7,2.7-1,4.9C301.7,59.1,301,58.6,300.7,57.3z" />
	<path fill="#141414" d="M316.5,82.1c-0.3,1.6-0.6,3.2-0.9,4.9c-0.9,0.8-1.5,2.1-3,2.2C313.1,85.4,313.7,84.3,316.5,82.1L316.5,82.1   z" />
	<path fill="#1C1C1C" d="M306,58.1c1.5-1.2,2.5-1.9,3.9-3c0.6-0.6,0.5-2.7,2.5-3.3C314.5,54.8,308.7,58.6,306,58.1z" />
	<path fill="#333434" d="M373.2,38c-0.8,0.7-1.7,1.6-2.5,2.3c-1.1-0.3-1.2-1-0.9-1.5c1.2-1.3,0.4-3.1,1.6-4.2   C373.5,35.1,373.5,36.3,373.2,38z" />
	<path fill="#291C05" d="M179.1,408.8c2.3-1.1,4.3-2.9,7.4-3.3c-0.5,3.1-5.2,4.2-8.1,4.2C178.6,409.4,178.8,409.1,179.1,408.8z" />
	<path fill="#202121" d="M309.2,96.8c0.5,2.2-1.3,7.5-4,5.7C307.2,98.2,307.2,98.2,309.2,96.8z" />
	<path fill="#0A0A0A" d="M359,59.8c-1.7-0.2-3.1-1.1-4.3-2.2c0.3-0.1,0.7-0.1,1-0.2c0-0.6,0-1.2,0-1.9c1.5,0.2,3.1-0.6,4,0.7   c-0.8,0.1-1.8-0.2-2.8,0.5c1.2,0.8,2.5,2.7,3.6,1c0.3,0.2,0.6,0.3,1,0.6C360.4,58.9,359.7,59.3,359,59.8z" />
	<path fill="#BBAEA4" d="M375.4,95.3c-0.3,0.8-0.6,1.6-0.8,2.5c-2.2-0.2-4.1-0.4-6.5-0.7c2.1-2.2,4.8-1.1,6.7-2.5   C375,94.9,375.2,95.1,375.4,95.3z" />
	<path fill="#4F6CD4" d="M249.2,404.6c2.1,0.8,0.6,4,1,6c0.9,0.1,1.6,0.2,2.4,0.4c1.3-2.1-0.7-5,1.3-6.4c-0.1,2.2-0.3,4.5-0.4,7   c-1.2,0.1-2.3,0.1-3.7,0.2C249.6,409.3,249.4,406.9,249.2,404.6z" />
	<path fill="#161616" d="M285.2,77c0.4,3,0.4,3-1.5,6.2C281.5,82.4,283,77.6,285.2,77z" />
	<path fill="#0B101F" d="M262.5,410.3c-0.3,0.2-0.6,0.3-1.2,0.6c-0.6-2.9,0-5.7-0.4-8.4c0.6,0,1.1,0,1.7,0   C262.6,405,262.5,407.7,262.5,410.3z" />
	<path fill="#F8DDD0" d="M594.6,476.6c-2.1-0.1-4.2-0.1-7-0.2c2.8-1.1,4.8-1.8,7.1-2.7c0.2,0.6,0.4,1.1,0.5,1.6   C595,475.7,594.8,476.2,594.6,476.6z" />
	<path fill="#1D1715" d="M363.3,473.6c0,0.6-0.1,1.2-0.1,1.8c1.7,0.9,3.3-1.2,5.3-0.3c-1,2.6-4.2,2.1-6.5,2.3   C361.9,476,362.3,474.7,363.3,473.6z" />
	<path fill="#A1897E" d="M188.3,246.2c0.2,0,0.4,0,0.7,0c-0.3,4.2-0.5,8.5-2,12.6C187.6,254.5,187.2,250.2,188.3,246.2z" />
	<path fill="#89721D" d="M197.1,180.1c-0.8-1.2-1.1-2.7-0.8-4c1-2.4-0.1-5.1,1.3-7.2C197.8,172.5,198.2,176.6,197.1,180.1z" />
	<path fill="#161717" d="M287,77.4c1.1-3.2,1.1-3.2,2.5-3.8c0.8,1.8,0.3,3.3-1,5C288,78.2,287.5,77.8,287,77.4z" />
	<path fill="#141414" d="M317.9,74.9c0,0.6,0,1.2,0,1.9c0.6-0.2,1-0.3,1.4-0.5c-0.1,2.4-1,4.3-2.9,5.8l0,0   C317.1,79.8,316.6,76.7,317.9,74.9z" />
	<path fill="#323232" d="M302.8,84.2c-0.4-0.1-0.9-0.2-1.5-0.3c0.5-1.1,1-2,1.5-3.1c1.1-0.1,2.1-0.1,3.3-0.2c-0.2,1-0.5,1.5-1.1,2.2   C303.9,82.8,303.2,83.3,302.8,84.2z" />
	<path fill="#4261BD" d="M292.7,426.2c-1.3-0.2-2.2-1.1-3.6-0.8c2.4-1.3,5.9-0.8,8.7-1.5c0.2,0.2,0.5,0.5,0.7,0.7   C296.5,424.9,294.5,425.3,292.7,426.2z" />
	<path fill="#161616" d="M292.8,116.5c-0.3,0.1-0.6,0.2-1,0.3c0.2,0.4,0.5,0.8,0.3,1.3c-0.8,0.2-1.5,0.4-2.5,0.6   c0.3-1.7,0.3-2.8,0.3-4.6C291.3,114.5,292,115.5,292.8,116.5z" />
	<path fill="#161211" d="M197,514.6c0.2-4.2-0.5-8.4,0.6-12.5C197.1,506.1,198.8,511.2,197,514.6z" />
	<path fill="#212323" d="M330.1,38.5c0.2-0.7,0.2-1.1,0.3-1.3c0.8-0.7,1.6-0.5,3.4,0.8c-0.3,0.5-0.7,1.1-1.1,1.7   C331.8,39.3,331,38.9,330.1,38.5z" />
	<path fill="#D1BAB0" d="M255.4,290.8c1.1,1.7,1.8,2.8,2.6,4.2c-0.7,0.4-1.3,0.7-2,1.1C255.2,294.4,255.5,292.9,255.4,290.8z" />
	<path fill="#141414" d="M339.1,58.2c1.3,0.7,2.6,0.8,3.2,2.1C341.2,62.5,337.9,60.6,339.1,58.2z" />
	<path fill="#B09B8F" d="M165.2,566.6c0.3-0.3,0.6-0.5,0.8-0.8c1.9,0.7,3.4,1.9,5.2,3.4C168.4,569.5,167,567.6,165.2,566.6z" />
	<path fill="#48423E" d="M371.2,101.5c-2.1,1.5-4.1,0.8-6.1-0.3c-0.4,0.6-0.7,1.2-1.1,1.8c-0.2-0.9-0.3-1.8,0.4-2.8   c0.4,0,1-0.2,1.2,0C367.2,101.9,369.2,101.3,371.2,101.5z" />
	<path fill="#282929" d="M310,79.2c-0.6,0-1.2,0-1.4-0.7c0,0,0,0,0,0c1.3-1.2,0.8-3.1,2.6-4.2C311.8,76.2,311.4,78,310,79.2   L310,79.2z" />
	<path fill="#0A0A0A" d="M356.1,60.5c1-0.2,2.2,0.6,2.9-0.7c1.3,0.1,2.4,0.6,3.4,1.7C360,62,358.2,61.6,356.1,60.5z" />
	<path fill="#222222" d="M301.4,42.5c0.9,0.5,1.7,1.2,2.1,2.5c-1.4,0.9-2.4-0.4-3.6-1c0-0.5,0-1,0-1.5   C300.4,42.5,300.9,42.5,301.4,42.5z" />
	<path fill="#151515" d="M338,54.8c0.8-1.4,1.8-2.3,3.3-2.6c-0.3,2.1-0.3,2.1-2.2,3.8C338.8,55.6,338.4,55.2,338,54.8z" />
	<path fill="#282A2A" d="M289.8,59.9c2.9-2.4,2.9-2.4,4.2-1.6C291.6,60.5,291.6,60.5,289.8,59.9z" />
	<path fill="#212222" d="M355.9,41.7c-1.4,2.2-1.4,2.2-3.2,1.8C353.9,40.8,354.1,40.7,355.9,41.7z" />
	<path fill="#261C17" d="M199.8,481c-1.2,0-1.4,1.2-2.5,1.3c-1-1.2-1-1.2-0.4-2.8c0.6,0,1.2,0.1,1.9,0.1c0.1-0.3,0.2-0.6,0.3-0.9   C200.2,479.2,199.8,480.1,199.8,481z" />
	<path fill="#2C2E2E" d="M355.2,47.4c-1.4,2.3-1.4,2.3-3.2,1.8C353.1,46.8,353.4,46.6,355.2,47.4z" />
	<path fill="#303131" d="M347.4,54.2c-0.5-0.5-0.9-0.8-1.3-1.2c0.8-1,1.6-2.1,3.1-2.6C349.5,52.1,348.8,53.1,347.4,54.2z" />
	<path fill="#9B8D81" d="M484.2,554.1c-2.5-0.7-2.5-0.7-4.7-4.6C481.6,548.7,482.4,553,484.2,554.1z" />
	<path fill="#1A284E" d="M298.4,424.6c-0.2-0.2-0.5-0.5-0.7-0.7c1.8-1.3,4.7-0.6,6.8-0.2C302.5,424,300.5,424.3,298.4,424.6z" />
	<path fill="#2B2D2D" d="M367.6,59.1c0.4,0.6,0.7,1.1,1.3,2c-1,0.1-1.8,0.1-2.7,0.1c-0.3-0.8-1.8-0.9-1.4-2.1l0,0   C365.7,59.1,366.6,59.1,367.6,59.1z" />
	<path fill="#1A1A1A" d="M360.8,54.7c-0.4-0.5-0.8-0.9-1.3-1.5c0.8-0.5,1.4-0.8,2.1-1.2C363,53,362.4,54.4,360.8,54.7z" />
	<path fill="#232424" d="M360.4,57.6c-1,1.8-2.3-0.1-3.6-1c1.1-0.7,2-0.4,2.8-0.5C359.9,56.7,360.2,57.1,360.4,57.6z" />
	<path fill="#242525" d="M286.5,98.1c-1.6-0.9-2.1-1.7-1.2-3.1C286.7,95.9,287.2,96.3,286.5,98.1z" />
	<path fill="#C5B1A8" d="M295.5,111.7c-0.3-1.9,0.3-2.1,1.6-3C297.8,111,297.7,111.1,295.5,111.7z" />
	<path fill="#332D2B" d="M376.8,91.9c-0.9,1.9-0.9,1.9-2.5,1.1C375.2,91.5,375.2,91.5,376.8,91.9z" />
	<path fill="#2C2D2D" d="M324.5,61.4c0.9,1.6,0.9,1.7-1.1,2.5C323,62.4,323,62.4,324.5,61.4z" />
	<path fill="#4B5052" d="M593.7,486.7c-0.6,0.8-1.7,0.9-1.6,2.1c-0.7-0.2-1-0.9-1.4-1.4c0.3-1.3,1.7-0.8,2.2-1.7   C593.3,486.1,593.5,486.4,593.7,486.7z" />
	<path fill="#876F67" d="M175.4,568.6c0.3-0.3,0.6-0.5,0.8-0.8c1.3,1.3,1.3,1.3,1.8,2.9C176.7,570.5,176,569.6,175.4,568.6z" />
	<path fill="#222222" d="M297.8,42.5c-0.9-1-1.7-2.1-2.7-3.3c1.7-0.8,2.3,1,3.4,1.9c0,0.2,0,0.5,0,0.7C298.3,42,298,42.2,297.8,42.5   C297.8,42.5,297.8,42.5,297.8,42.5z" />
	<path fill="#332E15" d="M192.4,134c0.5,1.9,0.3,3.5,0.3,5.8C191.8,137.2,191.8,137.2,192.4,134z" />
	<path fill="#514E4A" d="M338.2,69.7c0.9,0.1,1.8,0.1,2.3,1.3c-1.2,0.6-2.3,0.5-3.3-0.4C337.6,70.3,337.9,70,338.2,69.7z" />
	<path fill="#323333" d="M332.3,54.1c1.6,0.5,1.6,0.5,1.8,1.7C332.9,55.6,332.9,55.6,332.3,54.1z" />
	<path fill="#70767E" d="M708,457c0.2,2,0.2,2-1.4,2.9c-0.2-0.4-0.4-0.8-0.6-1.3C706.6,458,707.3,457.5,708,457z" />
	<path fill="#846A20" d="M462,293.6c0.2,0,0.4,0.1,0.7,0.1c0,1.9,0.3,3.1-0.3,5.1C461.8,296.7,461.8,295.2,462,293.6z" />
	<path fill="#0A0A0A" d="M364.7,59.1c-0.4,1.3,1.1,1.3,1.4,2.1c-1.3,0.1-2.8-0.1-2.7-1.9C363.9,59.2,364.3,59.1,364.7,59.1z" />
	<path fill="#242424" d="M303.3,95.5c-1.2-0.6-1.5-1.3-0.7-2.5C304.1,93.5,303.5,94.5,303.3,95.5z" />
	<path fill="#D6B7A9" d="M153,548.3c0,0.8,0.1,1.6,0.1,2.4c0.5,0.4,1,0.9,1.4,1.3l-0.2,0.2c-0.7,0-1.4-0.1-2.1-0.1l0.1,0.1   C152.2,550.8,152,549.4,153,548.3z" />
	<path fill="#756660" d="M297.5,104.3c0.5,0.4,0.7,0.7,1.1,1c-0.6,0.7-1.1,1.2-1.6,1.8C296.5,105.9,296.5,105.9,297.5,104.3z" />
	<path fill="#2C1F0C" d="M203.4,37.7c-0.8,0.2-1.5,0.3-2.3,0.5c0.4-1.2,0.4-1.2,1.6-2.3C202.9,36.5,203.1,37.1,203.4,37.7z" />
	<path fill="#A79E92" d="M475.3,547.7c1,0.3,1.7,0.7,1.5,1.9C475.3,549,475.3,549,475.3,547.7z" />
	<path fill="#E2B52A" d="M179.6,452c-1.4-0.4-1.4-0.4-0.6-2.1C180.5,450.5,180.5,450.6,179.6,452z" />
	<path fill="#4F626A" d="M433.8,584.5c0.3,0,0.7-0.1,1-0.1c0.9,0.5,1.8,0.9,2.7,1.4c-0.3,0-0.7,0.1-1,0.1   C435.6,585.4,434.7,585,433.8,584.5z" />
	<path fill="#D5AA19" d="M467,365.7c1,1.2,1,2.4,0,3.6C467,368,467,366.8,467,365.7z" />
	<path fill="#65544E" d="M333,165.6c-2.1,0-0.7-1.9,0.8-1.5c0.1,0.2,0.1,0.4,0.1,0.6C333.6,165,333.3,165.3,333,165.6z" />
	<path fill="#151111" d="M297.8,42.5c0.2-0.2,0.5-0.5,0.7-0.7c0.5,0.2,1,0.5,1.4,0.7c0,0.5,0,1,0,1.5   C299.2,43.5,298.5,43,297.8,42.5z" />
	<path fill="#525B66" d="M390.7,316.7c-0.4,0.5-0.9,1-1.3,1.4c-0.3,0-0.6-0.1-0.9-0.1C388.9,317.2,389.6,316.6,390.7,316.7z" />
	<path fill="#0A0A0A" d="M367.6,59.1c-1,0-1.9,0-2.9,0C366,58,366.4,58.1,367.6,59.1z" />
	<path fill="#77645D" d="M472.4,545.5c-0.9-0.9-1.3-1-0.8-2.3C472.3,544.2,472.8,544.3,472.4,545.5z" />
	<path fill="#72828E" d="M367.7,184.9c-0.3,0.3-0.6,0.6-0.9,0.9c-0.3-0.5-0.5-1.1-0.8-1.7C367.1,183.7,367.4,184.3,367.7,184.9z" />
	<path fill="#728282" d="M361.2,402.1c0.3-0.4,0.6-0.6,0.9-1C362.6,402.3,362.6,402.3,361.2,402.1z" />
	<path fill="#98A1B3" d="M388.4,318.1c0.3,0,0.6,0.1,0.9,0.1c-0.5,0.5-1,1.1-1.5,1.6c-0.1-0.4-0.1-0.7-0.2-1.1   C387.9,318.5,388.2,318.3,388.4,318.1z" />
	<path fill="#EECABA" d="M348.1,203.7c-0.8,1.1-1.6,0.2-1.4-0.8C347.2,203.2,347.7,203.5,348.1,203.7z" />
	<path fill="#65544E" d="M334.5,164.9c0.8-0.2,1.7-0.3,2.3,0.6C335.9,165.7,335,165.9,334.5,164.9z" />
	<path fill="#525B66" d="M391.4,315.3c0.2,0,0.5,0,0.7,0.1c-0.5,0.5-1,0.9-1.4,1.4c0,0,0,0,0,0C390.6,316.1,390.6,315.5,391.4,315.3   z" />
	<path fill="#0A0A0A" d="M353.9,59.8c0.8,0.1,1.7-0.3,2.2,0.7C355.3,60.4,354.4,60.8,353.9,59.8z" />
	<path fill="#4863C2" d="M371.3,418.8c-0.6,0.1-1.2,0.1-1.6-0.6C370.4,418.1,370.9,418.2,371.3,418.8z" />
	<path fill="#EECABA" d="M394.3,345.5c0.7,0.3,0.6,0.9,0.6,1.5C394.7,346.5,394.5,346,394.3,345.5z" />
	<path fill="#9F9B9B" d="M436.5,585.9c0.3,0,0.7-0.1,1-0.1C438.5,586.8,436.9,586.8,436.5,585.9z" />
	<path fill="#514E4A" d="M336.7,70.5c-0.7,0.2-1.2,0.1-1.6-0.5C335.7,69.8,336.3,69.8,336.7,70.5z" />
	<path fill="#151111" d="M301.4,42.5c-0.5,0-1,0-1.5,0C300.4,41.6,300.9,41.6,301.4,42.5z" />
	<path fill="#F9F9F9" d="M599.4,476.5c-0.1,0.2-0.2,0.4-0.3,0.5c-0.1-0.1-0.1-0.2-0.2-0.3C599.1,476.6,599.3,476.6,599.4,476.5   L599.4,476.5z" />
	<path fill="#65544E" d="M333.8,166.2c-0.3-0.2-0.5-0.4-0.8-0.6C333.3,165.8,333.6,166,333.8,166.2z" />
	<path fill="#514E4A" d="M337.5,69c0.2,0.2,0.5,0.5,0.7,0.7C337.7,69.8,337.5,69.5,337.5,69z" />
	<path fill="#151111" d="M297.1,39.6c-0.2-0.2-0.5-0.5-0.7-0.7C296.6,39.1,296.8,39.4,297.1,39.6z" />
	<path fill="#151111" d="M297.8,40.3c-0.2-0.2-0.5-0.5-0.7-0.7C297.3,39.9,297.5,40.1,297.8,40.3z" />
	<path fill="#151111" d="M298.5,41.1c-0.2-0.2-0.5-0.5-0.7-0.7C298,40.6,298.2,40.8,298.5,41.1z" />
	<path fill="#111212" d="M309.3,77.7c-0.2,0.2-0.5,0.5-0.7,0.7C308.8,78.2,309,78,309.3,77.7z" />
	<path fill="#111212" d="M310,79.2c0.2-0.2,0.5-0.5,0.7-0.7C310.5,78.7,310.3,79,310,79.2z" />
	<path fill="#120F0E" d="M322.9,168.4c-3-14.7-11.3-16.9-20.9-25.7c0.3-0.3,0.6-0.6,0.9-1l0,0c6.8,4.9,15,8.8,21.5,14.5   c0.2,1,1.8,1.4,1.2,2.8c-1.6,0.4-2.5-2-4.3-1.1c0.6,3.1,3.1,5.7,3.2,9.1C323.9,167.5,323.4,167.9,322.9,168.4z" />
	<path fill="#110D0D" d="M334.5,89.9c1.1-0.3,2.3-0.6,3.5-1c0.7,0.6,1.3,1.1,2,1.6c3.8-2.4,9-0.6,12.9,1.6c0,1.5,1.4,2.6,0.9,4.2   c-1.9,0-3.8,0-5.7,0l0,0c-0.4-1-1.1-1.6-2.2-1.4c-2.5-1.4-5.6-1.5-8.5-1.6c0.1-2.1-3.2-3.1-4.3-1.3c-0.7-0.1-1.3-0.1-1.4,0.8l0,0   c-0.3,0.2-0.6,0.4-0.9,0.6c-0.6,0-1.2,0-1.4,0.7c-0.6,0-1.2-0.1-1.9-0.1c0.4-0.5,0.8-0.9,1.1-1.3c0.7,0.1,1.3,0.1,1.4-0.8l0,0   c0.2-0.2,0.5-0.5,0.7-0.7c0.6,0.1,1.3,0.1,1.4-0.8l0,0C333.1,90.7,334,91.1,334.5,89.9z" />
	<path fill="#E5C4B5" d="M350.4,151.1c-1.4-0.9-0.6-2.1-0.5-3.5c-2-1.6-4.9-2.6-6.1-5.1c7.6,1.3,15.3-1.7,22.9-0.7   c-1.2,1.4-2.3,2.8-3.6,4.3c0.8,1.2,2.7,3.3,0.7,4.4C364.4,143.6,349,143.7,350.4,151.1z" />
	<path fill="#080606" d="M350.4,151.1c-1.5-7.4,14-7.5,13.5-0.7C359.6,152.3,354.8,152.8,350.4,151.1z" />
	<path fill="#110E0D" d="M345.3,100.8c-5.1,0.5-10.7,0.3-15.6-0.6c1.6-4.9,7.9-1.5,11.3-4.5c2-0.2,4.4,2.3,5.7,0.7l0,0   c0.5,0,1,0,1.5,0.1l0,0c0,1.4-1.3,2.5-1.4,4C346.2,100.6,345.7,100.7,345.3,100.8z" />
	<path fill="#151211" d="M366.8,141.8c-7.7-1-15.4,2.1-22.9,0.7c-0.4-0.9-0.4-1.8,0-2.6c7.6-0.3,15.2-0.4,22.8-1.5l0,0   C368.3,139.1,368,140.8,366.8,141.8z" />
	<path fill="#0B0808" d="M336.3,223.6c2.3-0.5,5.3-4.2,7.8-2.5c-2.1,3.9-6.5,8.1-10.4,4c-3.9,0.1-6.2-1.1-7.6-4.4   C329.2,219.1,332.5,222.7,336.3,223.6z" />
	<path fill="#100E0D" d="M359.5,127.4c-0.9,0.7-1.7,1.3-2.7,2.1c-1.2-0.6-2.3-1.1-3.5-1.8c-0.1-0.7-0.1-1.4-0.1-1.9   c0.9-1,1.4,0,2.2,0c2.1-2.2,5.8-1.6,8.7-2.1c2.5-0.1,3.2,3.4,0.7,4C363,128.1,361.2,128.1,359.5,127.4z" />
	<path fill="#E3BDAE" d="M366.8,138.4c-7.7,1.1-15.2,1.2-22.8,1.5C350.3,137.8,360.6,133.5,366.8,138.4z" />
	<path fill="#150D0D" d="M321.8,216.8c-5.7-4.6-18.1-0.7-21.2-6.4c3.4-0.4,20.9,2.6,21.8,6C322.2,216.6,322,216.7,321.8,216.8z" />
	<path fill="#0A0707" d="M290.6,161.9c-1.2-2.4-4.2-7.8-0.6-9.3c2.5,2.1,3.1,6.1,2.8,9.3C292,162.5,291.3,162.2,290.6,161.9z" />
	<path fill="#161211" d="M329.3,185.7c-0.2-3-3.2-6-0.8-8.6c2.2,1.7,3.4,7,2.9,9.8c-0.4,0-0.8,0.1-1.2,0.1   C329.9,186.6,329.6,186.2,329.3,185.7z" />
	<path fill="#1F1716" d="M328.8,230.2c1.6-2.5,5.8,0.3,5.8,2.9C332.1,233.8,330.1,232.2,328.8,230.2z" />
	<path fill="#2F2726" d="M294.3,168.6c-2.3-1.4-1.4-3.6-1.5-5.8C295.6,162.5,296.3,167.1,294.3,168.6z" />
	<path fill="#3A3331" d="M333.5,198.9c-1.5-2.4-1.5-4.4-1-6.9C334.8,193.5,335.2,196.2,333.5,198.9z" />
	<path fill="#221D1C" d="M302,137.6c-0.9-3.1,0.1-6.3,0.2-9.4c0.5,0.5,0.9,1,1.4,1.4c0.1,1.1,0.1,2.3,0.2,3.4   c-1.4,1.2-1.7,2.7-1.5,4.4L302,137.6z" />
	<path fill="#645550" d="M345.3,100.8c0.5-0.1,0.9-0.2,1.5-0.4c0-1.5,1.3-2.5,1.4-4c1.9,0,3.8,0,5.7,0c-3.1,2.5-4.9-1.5-6.2,4.6   C346.7,101.5,345.9,101.7,345.3,100.8z" />
	<path fill="#595251" d="M303.5,129.6c-0.5-0.5-0.9-1-1.4-1.4c0.4-1.7-1.1-5.4,2-4.5C303.9,125.6,303.7,127.6,303.5,129.6z" />
	<path fill="#BFB7AD" d="M344.5,96.5c-1.2-0.3-2.4-0.5-3.5-0.8c1.8-2,4.7-2,5.7,0.7c0,0,0,0,0,0C346,96.5,345.3,96.5,344.5,96.5z" />
	<path fill="#221D1C" d="M306.9,144.5c-1.7-0.5-3.2-1.5-4-2.8c0.2-0.5,0.3-1,0.7-1.4c0.7,0.5,1.9,3.2,2.7,1.6   c0.1-0.1,0.2-0.1,0.3-0.2C307,142.6,307,143.5,306.9,144.5z" />
	<path fill="#504441" d="M322.7,226.8c1.8-0.9,1.8-0.9,3.6,1c-0.2,0.3-0.4,0.6-0.6,1C324.5,228.7,323.5,228.1,322.7,226.8z" />
	<path fill="#332926" d="M344.5,210.2c-0.3-2,0.3-3.1,1.2-4.1C348.1,206.2,346,209.3,344.5,210.2z" />
	<path fill="#412C29" d="M316.8,222.6c1.5,0.2,2.2,0.6,1.8,2c-0.9,0.2-1.5,0.3-2.4-0.4C316.4,223.7,316.6,223.2,316.8,222.6z" />
	<path fill="#BFB7AD" d="M337.4,93.5c1.9,0.1,3.9,0,5.8,0.8C341.3,94,338.8,95.1,337.4,93.5z" />
	<path fill="#2E2A28" d="M328.7,92.9c-0.4,0.4-0.7,0.8-1.1,1.3c0.7,0,1.3,0.1,1.8,0.1c-0.7,0.8-1.5,1.1-2.5,0.7   C326.4,93.2,326.4,93.2,328.7,92.9z" />
	<path fill="#2E2A28" d="M333.1,92.2c0.9-1.6,4-0.9,4.2,0.8C336,92.4,334.6,92,333.1,92.2z" />
	<path fill="#221D1C" d="M303.7,133c0.2,1,0.5,1.9,0.7,2.9l-0.3,0.2c-1-0.7-0.5-1.9-0.7-2.8C303.5,133.2,303.6,133.1,303.7,133z" />
	<path fill="#2E2A28" d="M334.5,89.9c-0.5,1.1-1.4,0.7-2.2,0.7C332.8,89.9,333.6,89.8,334.5,89.9z" />
	<path fill="#221D1C" d="M305.1,138.1c0.3,0.7,0.5,1.4,0.8,2.1l-0.3,0.2c-0.9-0.5-0.6-1.4-0.7-2.1L305.1,138.1z" />
	<path fill="#221D1C" d="M302.8,139.6c-0.2-0.1-0.4-0.1-0.6-0.2c-0.1-0.6-0.2-1.2-0.3-1.9l0.2-0.2c0.8,0.5,0.5,1.4,0.8,2.1   L302.8,139.6z" />
	<path fill="#221D1C" d="M304.4,135.9c0.2,0.7,0.5,1.5,0.7,2.2l-0.2,0.2c-0.9-0.5-0.6-1.4-0.7-2.2L304.4,135.9z" />
	<path fill="#2E2A28" d="M332.3,90.6c-0.1,0.9-0.8,0.8-1.4,0.8C331.1,90.7,331.6,90.5,332.3,90.6z" />
	<path fill="#2E2A28" d="M330.1,92.1c-0.2,0.8-0.8,0.8-1.4,0.7C329.2,92.6,329.7,92.4,330.1,92.1z" />
	<path fill="#2E2A28" d="M331.7,93c0.1-0.9,0.7-0.9,1.4-0.8C332.6,92.5,332.2,92.7,331.7,93z" />
	<path fill="#2E2A28" d="M329.5,94.3c0.2-0.7,0.8-0.7,1.4-0.7C330.6,94.2,330.1,94.4,329.5,94.3z" />
	<path fill="#221D1C" d="M305.9,140.2c0.2,0.5,0.5,1,0.7,1.5c-0.1,0.1-0.2,0.1-0.3,0.2c-0.2-0.5-0.5-1-0.7-1.4L305.9,140.2z" />
	<path fill="#2E2A28" d="M330.8,91.4c-0.2,0.2-0.5,0.5-0.7,0.7C330.4,91.9,330.6,91.6,330.8,91.4z" />
	<path fill="#E3BDAE" d="M367.6,139c-0.3-0.2-0.6-0.4-0.8-0.6C367,138.6,367.3,138.8,367.6,139z" />
	<path fill="#2E2A28" d="M330.9,93.6c0.3-0.2,0.6-0.4,0.8-0.6C331.4,93.2,331.2,93.4,330.9,93.6z" />
	<path fill="#B7BDD5" d="M364,318.2c-1.7-1.3-4.6-1.6-6.7-1.3c-5.9,2.1-11-2.7-13.3-7.5c-4-4.7,0.1-10.5,1.5-15.3   c3.1-1.4,5,3.3,8.4,3.1c5,0.9,5.8,6.8,10.5,8c3,0.7,13.2,8,9.1,10.8c-1.8,0.8-4.3,0.6-5.3,2.5C366.8,317.8,365.5,317.3,364,318.2z" />
	<path fill="#0C0809" d="M287.6,396.5c-4-0.8-8.1-0.4-12.2-0.5c0.1-0.3,0-0.6,0-0.8c25.4-1.1,51.4,1.3,76.7,3.1   c-19.6,2.8-41.8-2.1-62.2-1.7C289.2,396,288.4,395.9,287.6,396.5L287.6,396.5z" />
	<path fill="#060506" d="M318.8,337.6c4.9,1.7-10.9,16.5-13.5,17.2C305.8,348.5,314.7,340,318.8,337.6z" />
	<path fill="#0D0A0B" d="M323.7,336.6c4.6-1.9,13-1.3,18.9,1.5C341.1,340.1,324.8,338.4,323.7,336.6z" />
	<path fill="#0B0B0C" d="M330.8,314.1c2-3.3,5.8-5.5,8.5-8C344.7,307.7,333,318.5,330.8,314.1z" />
	<path fill="#B8BDD5" d="M287.7,394.5c-2.4,0-4.8,0-7.2,0.1c1.1-2.6,2.1-5.1,3.3-7.8c0.7,0,1.4,0,2.2,0   C286.5,389.3,287.1,391.9,287.7,394.5z" />
	<path fill="#0F0D0F" d="M343.3,336.2c5.4,2.4,11.8,5.6,12,12c-3.8-2.8-6.8-7-11.1-9.6C343.1,337.9,343,337.7,343.3,336.2z" />
	<path fill="#111113" d="M335.5,359.7c-0.9-5,1-10.2,1.4-15.2C341,344.1,337.9,358.1,335.5,359.7z" />
	<path fill="#150D0F" d="M391.4,315.3c-0.8,0.2-0.8,0.8-0.7,1.4c-4.2,2.7-8.2,3.9-13.9,2.8c1.3-1.4,2-1.3,3.6-1.3   c3.9-0.3,7-2.1,10.1-4.4C390.8,314.4,391.1,314.8,391.4,315.3z" />
	<path fill="#121113" d="M280.5,313c-2.3-0.2-3.8-1.6-4.9-3.4c1.8-3.3,3.7-0.6,5.5,0.7C281.3,311.3,281.4,312.3,280.5,313z" />
	<path fill="#1B181A" d="M303.6,358.2c-1.5,2.3-3,4.5-6.5,4.6C297.7,361.1,302.1,354.9,303.6,358.2z" />
	<path fill="#2D292D" d="M326.8,388.6c2.9,0.1,5.8-0.2,8.6,0.7c-5.6,0.9-11.1,0.5-16.8,0.1c0-0.2,0-0.4-0.1-0.6   C321.4,388.6,324.1,388.6,326.8,388.6z" />
	<path fill="#5F3135" d="M326.8,388.6c-6.2,0.1-12.5,0.1-18.7,0.1C313.4,387.4,321.1,388.2,326.8,388.6z" />
	<path fill="#1C1C1F" d="M359.2,359.9c-2.2-1.1-2.3-3.7-0.4-4.4C361.2,355.7,360.8,358.7,359.2,359.9z" />
	<path fill="#1E1D1F" d="M329.7,376.5c-0.4-2,0.9-5.2,2.8-4.3C333.8,373.8,331.6,376.7,329.7,376.5z" />
	<path fill="#29272B" d="M294.5,362.1c-1.7,3.4-2,3.8-4.3,4.8C289.2,365.6,292.6,361.7,294.5,362.1z" />
	<path fill="#151214" d="M274.7,344.1c0.4-0.5,0.8-1,1.2-1.5c2.6,1.2,2.6,1.2,2.5,3.6C276.8,346.2,275.8,345.1,274.7,344.1z" />
	<path fill="#3C484F" d="M340.2,389.6c1.2-0.3,2.2,0.3,3.2,0.9c-3.1,0.4-6.1,0.7-9.1-0.2C336.3,390.1,338.4,390.5,340.2,389.6z" />
	<path fill="#204147" d="M308.1,388.7c3.5,0,7,0,10.5,0c0,0.2,0,0.4,0.1,0.6C315.4,388.8,310.6,390.5,308.1,388.7z" />
	<path fill="#0F0607" d="M364,318.2c1.4-0.9,2.8-0.4,4.2,0.2c-0.8,1.6-2.5,0.9-3.9,1C364.2,318.9,364.1,318.5,364,318.2z" />
	<path fill="#2A1719" d="M340.2,389.6c-2.9,1.2-6.2,0.5-9.3,0.5C333.7,388.6,337.1,389.5,340.2,389.6z" />
	<path fill="#494850" d="M270.6,343.2c-0.5-0.8-2-0.9-1.5-2.5c1.3-0.2,2,0.7,2.8,1.5c-0.1,0.4-0.1,0.7-0.2,1   C271.3,343.2,271,343.2,270.6,343.2z" />
	<path fill="#322528" d="M373.9,317.2c0.1,1.1,0.2,1.6,0.3,2.2c-1.2,0.3-1.8,0.4-2.9,0.1C371.1,317.9,372.5,318.2,373.9,317.2z" />
	<path fill="#2A2529" d="M288.6,312.3c1.3-1.2,1.7-1,2.6,0.8C290.1,313.9,289.4,313,288.6,312.3z" />
	<path fill="#676C76" d="M271.9,395.8c-1.3,0-2.6,0-3.9,0c1.2-0.9,2.5-0.7,3.8-0.6C271.9,395.4,271.9,395.6,271.9,395.8z" />
	<path fill="#2A2528" d="M271.9,395.8c0-0.2,0-0.4,0-0.6c1.2,0,2.4,0,3.6,0c0,0.2,0,0.4,0,0.6C274.3,395.8,273.1,395.8,271.9,395.8z   " />
	<path fill="#181F21" d="M356.4,354.2c-0.2-0.6-0.4-1-0.6-1.4C356.9,352.3,357.2,353.3,356.4,354.2z" />
	<path fill="#ACB4CB" d="M287.7,396.5c0.8-0.6,1.5-0.5,2.3,0C289.2,396.5,288.4,396.5,287.7,396.5z" />
	<path fill="#050504" d="M227.2,407.4c0.3-4.3,2.7-7.6,4-11.6c1.9-6,0.5-12.6,1.3-18.8c4.8-5.5,3.4,10.9,3.5,13.3   c-0.1,3.9-1,7.5-3.8,10.5C230.5,403.1,231.1,406.6,227.2,407.4z" />
	<path fill="#0E0C0C" d="M251.4,239.8c1,0.5,1.1,1.3,0.9,2.2c-1.2,4.7,0,9.6-0.9,14.3c-0.6,0-1,0-1.5,0   C248.3,251.5,247.1,243.3,251.4,239.8z" />
	<path fill="#25201E" d="M232.3,365.7c2,0.7,3,4.4,0.9,5.7C231,371,230.1,366.9,232.3,365.7z" />
	<path fill="#3A2F2D" d="M225,196c0.6-3.6,5.7-3.5,7.5-2.1C230.2,195.7,227.5,194.6,225,196z" />
	<path fill="#181615" d="M230.6,361.5c-1.6-1.2-2.3-2.6-1.9-4.5C231.2,356.3,233.3,360.3,230.6,361.5z" />
	<path fill="#2E2725" d="M251.8,235.5c-0.4-1.6-0.7-3,0.1-4.3C254.9,231.1,254.2,235.2,251.8,235.5z" />
	<path fill="#4B433F" d="M256.1,199.6c1.3-0.7,2.1-0.4,2.6,0.7C257.9,201.7,256.5,201.7,256.1,199.6z" />
	<path fill="#4F423F" d="M237.1,194.9c1-1.1,2.1-0.2,1.3,0.8C238,195.4,237.5,195.2,237.1,194.9z" />
	<path fill="#130A0A" d="M263.3,203.3c-0.8-0.8-1.3-1.1-1.3-1.4C262.6,200.5,263.3,201.7,263.3,203.3z" />
	<path fill="#553C39" d="M241.9,194.8c0.4,0.2,0.7,0.4,0.9,0.5c-0.4,0.8-0.8,0.7-1.5,0.3C241.6,195.4,241.7,195.1,241.9,194.8z" />
	<path fill="#562523" d="M254.1,226.1c-0.1-0.7-0.2-1-0.2-1.2c0.2,0,0.4,0,0.5,0C254.4,225.1,254.3,225.4,254.1,226.1z" />
	<path fill="#EECABA" d="M407.7,455c0.1-0.2,0.3-0.3,0.6-0.8c-3.5-0.1-6-0.1-9.6-0.1c-6.7-5.9,0.6-8.6,5-12.2   c8.5-0.3,14.6,7.3,22.8,8c1.5,2.3,1.5,2.3,1.5,4.9c-4.1,5.2-10.9,1.4-16.3,0.8c-1.2,0.1-0.4,2-1.7,2   C410.6,455.3,409.1,455.8,407.7,455z" />
	<path fill="#0D0A09" d="M445.4,487.9c-3.2-1-7.6-0.9-9.6-3.9c1.7-0.8,3.2-0.3,4.7-0.1c5,1.7,11.7-0.7,15.6,3   C453.1,489,448.9,487.5,445.4,487.9z" />
	<path fill="#1E1817" d="M432.4,444.8c-2.5,1.1-4.7,1.9-7.3,0.9C425.9,442.4,430.6,441.5,432.4,444.8z" />
	<path fill="#322B27" d="M462.9,487.1c-1.3,2.4-4.4,1.8-6,0.5C457,484.9,461.2,485.9,462.9,487.1z" />
	<path fill="#261B1A" d="M407.7,455c1.4,0.8,2.9,0.3,2.2,2.7C405.9,458.8,401.5,455.3,407.7,455z" />
	<path fill="#160E0E" d="M432.7,462.8c-1.1-2.2,1.9-3.8,3.4-2.6C438.1,462.3,434.3,463.5,432.7,462.8z" />
	<path fill="#30241E" d="M451,456.1c1.4,1.4,3.4,0.8,5.2,1c-2.3,1.2-4.9,0-7.2,1.3c-0.3,0.2-1-0.2-1.5-0.3   C446.9,455.8,449.6,456.4,451,456.1z" />
	<path fill="#231918" d="M389.8,455.3c1.3-1.7,4.3-2,5.1,0.7C393.1,456.9,391.4,456.7,389.8,455.3z" />
	<path fill="#2B1E1B" d="M473.7,487.9c-1.4-0.3-2.8-0.5-4.6-0.9C470.1,485.3,475.5,485.1,473.7,487.9z" />
	<path fill="#392B28" d="M387.7,455.3c-1.8,1.6-2.2,1.5-4-0.1c0.2-0.3,0.3-0.6,0.5-0.9C385.5,454.1,386.8,454,387.7,455.3z" />
	<path fill="#181210" d="M486.4,486.2c-1.5,1.4-2.8,1-4.3,0C483.6,485,484.9,484.9,486.4,486.2z" />
	<path fill="#483B36" d="M442.3,459.3c-0.5,1.4-2.4,1.7-2.7,0.7C439.3,458.3,441.5,458.1,442.3,459.3z" />
	<path fill="#190E0C" d="M492.2,486.1c0.8-0.6,1.5-1.1,2.2,0.1C493.1,487.3,493.1,487.3,492.2,486.1z" />
	<path fill="#5C2C2B" d="M373.1,474.8c0.3-0.4,0.5-0.4,0.9,0C373.8,475.2,373.4,474.9,373.1,474.8z" />
	<path fill="#0F0F1B" d="M322.2,490.9c7.1-6.1,13.7-12.7,21-18.7c0.5,1-0.2,1.4-0.6,1.8c-8.1,7.5-15.8,15.3-24.4,22.2   c-10.8,8.3-21.6,18.6-34,23.6C296.9,510.3,310.3,501.7,322.2,490.9z" />
	<path fill="#0B0A12" d="M320.8,474.3c2.1-0.8,4.2-1.5,6.3-2.3c0.3,0.2,0.6,0.5,0.9,0.7c-18,7.7-37.2,12.6-53.8,23.2   C286,483.1,305.6,481.5,320.8,474.3z" />
	<path fill="#07060C" d="M330.9,516c-12.2,9.4-27.3,17.8-42.4,20.4c13.5-6.9,29.1-11.5,41.6-21.1C330.3,515.5,330.6,515.8,330.9,516   z" />
	<path fill="#05060B" d="M231.5,470c2,10.9,5.6,15.5,13.9,22.8c-10.4-1.2-14.4-13.1-14.6-22.1C231,470.5,231.3,470.3,231.5,470z" />
	<path fill="#090A14" d="M240.1,509.8c-4.6-4.5-8-9.4-11.5-14.8c0.5-0.2,0.8-0.4,1.4-0.6C233.4,499.4,238.4,503.8,240.1,509.8z" />
	<path fill="#0D0F1D" d="M324.1,540.5c3.5-3.7,7.5-5.5,10.5-9.1C336,534.4,327.1,541,324.1,540.5z" />
	<path fill="#14162A" d="M330.9,516c-0.3-0.3-0.5-0.5-0.8-0.8c2.7-1.4,5.1-5.7,8.1-5.1C335.7,512.5,333.5,514.4,330.9,516z" />
	<path fill="#27315D" d="M231.5,470c-0.2,0.2-0.5,0.5-0.7,0.7c-0.8-1.9-2.2-3.6-2.1-5.8c0.3,0,0.5,0,0.8,0   C230,466.7,231.4,468.1,231.5,470z" />
	<path fill="#27315D" d="M227.9,465c-0.2-0.6-0.5-1.2-0.9-2.3c1.3,0.7,1.8,1.2,1.7,2.2C228.4,465,228.2,465,227.9,465z" />
	<path fill="#05060C" d="M243.1,443.5c1.7-4.1,3.1-12.7,8.8-11.9c-3.2,5.1-6.2,10-7,15.9C242.6,447.9,243.5,444.8,243.1,443.5z" />
	<path fill="#131220" d="M325.1,430.3c-5.2,2.3-10.4,4.5-15.7,6.8c-0.3-0.3-0.5-0.6-0.8-0.8c4.9-2.9,10.1-5.2,15.6-6.7   C324.5,429.8,324.8,430.1,325.1,430.3z" />
	<path fill="#0F101E" d="M277.5,452.7c3.1-3.3,8.7-7.7,12.8-7.6C286.8,448.4,282,450.9,277.5,452.7z" />
	<path fill="#151425" d="M328,472.8c-0.3-0.2-0.6-0.5-0.9-0.7c4.4-2.5,8.7-5,13.4-7.1C338.6,468.8,331.9,470.5,328,472.8z" />
	<path fill="#272A51" d="M325.1,430.3c-0.3-0.3-0.6-0.5-0.8-0.8c1.8-0.8,3.6-1.9,6.1-1.8C328.6,429.3,326.7,429.6,325.1,430.3z" />
	<path fill="#2E3C71" d="M308.6,436.2c0.3,0.3,0.5,0.6,0.8,0.8c-0.8,0.4-1.6,0.8-2.8,1.5C307.1,437.1,307.7,436.5,308.6,436.2z" />
	<path fill="#4261BD" d="M292,426.1c0,0.9-0.3,1.6-1.3,1.6C290.8,426.9,291.2,426.3,292,426.1z" />
	<path fill="#161110" d="M406,226.7c3.2,0.5,6.1,4.1,3.9,7C408.5,233.3,404.7,228,406,226.7z" />
	<path fill="#211B1A" d="M429.9,361.5c-1.6-1.6-0.7-5.3,1.7-4.3C433.3,358.7,432.4,361,429.9,361.5z" />
	<path fill="#2A2322" d="M433.2,352.8c0,2.5-2.7,3-2.9,0.6C430.5,351.6,432.5,351.3,433.2,352.8z" />
	<path fill="#231716" d="M400,220.7c1.6-1.4,4,1.1,2.7,2.8C401.1,223.1,400.4,222,400,220.7z" />
	<path fill="#040304" d="M700.3,391.7c0.6-0.1,1.2-0.2,2-0.3c-1.8,7-9.9,12.7-8.5,21.2c-13.1,13-14.5,33.3-21.4,49.3   c-0.4-16.9,7-38.3,19-50.4C692.3,404,694.8,397.1,700.3,391.7z" />
	<path fill="#050505" d="M658.5,485.3c0.6-0.1,1.1-0.2,2-0.4c-9.4,14-25.6,24.1-27.6,42.9C628.7,510.6,647.3,496.1,658.5,485.3z" />
	<path fill="#090909" d="M664.9,476.4c2.8-4.1,1.3-9.8,4-14.2c3.8,3.9-0.2,10.3-0.1,15.1c-2.7,1.7-4.7,5.6-8.1,5.5   C660.6,480.1,663.4,478.5,664.9,476.4z" />
	<path fill="#040303" d="M418.8,491.7c-4.9,6.1-15.1,10-22.1,5.4c4-5,12-1.1,16.7-6C415,489.8,419.3,488,418.8,491.7z" />
	<path fill="#080706" d="M593.6,463.5c8.6,0.4-2.9,9.9-6.8,7.4C588.2,467.4,591.3,465.8,593.6,463.5z" />
	<path fill="#120F0E" d="M567,482.9c0,3.4-4.9,3.6-5.2,0.2C561.6,479.6,566.9,479.3,567,482.9z" />
	<path fill="#271A18" d="M381.5,499.8c1.8-5,7.8-0.8,11.5-3.1c0.3,0.4,0.5,0.7,0.6,1c-0.4,1.2-1.5,1.4-2.3,1.3   C387.8,498.1,384.9,500.6,381.5,499.8z" />
	<path fill="#352A27" d="M418.8,491.7c0-0.4,0-0.7,0-1.1c1.7-0.3,5-3.5,5.7-0.6c-0.7,1.3-2.1,1.6-3.3,2.1   C420.4,492,419.6,491.9,418.8,491.7z" />
	<path fill="#3C312D" d="M380.1,500c-2.3,1.4-2.6,1.4-4.3-0.2C377.2,497.6,377.7,497.6,380.1,500z" />
	<path fill="#302623" d="M580.7,472.6c-2,2.5-2.4,2.7-4.3,1.8C577,472.6,579,470.9,580.7,472.6z" />
	<path fill="#291B19" d="M571.9,476.5c-1.6,1.9-2.7,2-4.6,0.3C568.4,475.3,569.8,475.6,571.9,476.5z" />
	<path fill="#463935" d="M556.2,480.2c1.8-1.9,1.9-1.9,3.6-0.2C558.3,481.6,558.3,481.6,556.2,480.2z" />
	<path fill="#1D1513" d="M428.6,488.9c1.9-1.6,2.2-1.6,2.9,0.3C430.7,489.8,429.8,489.8,428.6,488.9z" />
	<path fill="#362724" d="M373.3,501.2c-0.3,0.9-0.8,1.5-1.8,1C370.4,501.1,371.9,499.1,373.3,501.2z" />
	<path fill="#0D0B0C" d="M651.2,515.2c3.3-8.8,12.1-20.9,17.7-23.4c-1.3,9.1-8.5,18.8-14.7,26.4c-0.3-0.3-0.6-0.6-0.8-0.8   c4.5-6.9,8.8-13.6,12.3-21c-6.2,5.5-9.5,12.8-13.7,19.6l0,0C651.7,515.8,651.4,515.5,651.2,515.2z" />
	<path fill="#141213" d="M716,429.7c-2.9,8.9-10.1,17.5-17.1,22.4c6.2-10,10.7-20.9,16.4-31.1c0.9,0.2,0.6,0.9,0.8,1.5l0,0   c-3.6,6.8-6.9,13.9-10,20.7c4.6-4,7.2-10,9.4-15.7C716.5,428.1,715.8,429.1,716,429.7z" />
	<path fill="#0D0C0D" d="M691.5,444c3-8.7,6.4-31.1,14.9-34.1c-0.5,0.9-1.1,1.8-1.7,2.9c0.4,1.5,0.4,3.1-0.2,4.7   c-0.4-0.8-0.7-1.7-1.2-2.8c-2.2,5-4.5,9.9-6,15.1c-1.5,1-0.4,2.7,0.2,3.9c-2,3.9-2.7,8.3-5.3,11.9C692,445,691.7,444.5,691.5,444z" />
	<path fill="#C1C2CF" d="M663.6,500.4c-3.6,7-8.1,13.6-12.2,20c-0.4,0-0.7,0-1.1-0.1c0.6-1.4,1.1-2.8,1.7-4.2l0,0   c3.4-5.7,6.4-11.6,10.8-16.6C663,499.8,663.3,500.1,663.6,500.4z" />
	<path fill="#242426" d="M697.5,433.6c-0.6-1.1-1.7-2.9-0.2-3.9c1.9,0.2,6.5-11.4,5.2-13.4c0.2-0.5,0.4-0.9,0.8-1.7   c0.5,1.2,0.8,2,1.2,2.8C703.1,423.2,701,428.8,697.5,433.6z" />
	<path fill="#5E5C62" d="M716.1,422.6c-0.1-0.6,0.1-1.3-0.8-1.5c0.8-1.1,0.8-1.1,2-1.7c0.1,3.4,0.3,7.4-1.3,10.4   c-0.3-0.7,0.4-1.7-0.6-2.1C715.7,425.9,717,424.2,716.1,422.6z" />
	<path fill="#303034" d="M652,516.1c-0.9,2.6-1.9,4.9-3.9,7c-0.3-1.6,0.6-3.8,3.1-7.8C651.4,515.5,651.7,515.8,652,516.1z" />
	<path fill="#212123" d="M691.5,444c0.2,0.5,0.5,1,0.7,1.6c-0.3,2-0.5,4.1-0.8,6.6C689.1,449.6,690.2,446.6,691.5,444z" />
	<path fill="#342F33" d="M651.4,520.4c0.2-1.3,0.9-2.2,2-2.9c0.3,0.3,0.6,0.6,0.8,0.8C653.5,519.4,652.9,520.4,651.4,520.4z" />
	<path fill="#5E5C62" d="M715.3,421.1c-0.2,0.3-0.4,0.5-0.6,0.8C714.9,421.6,715.1,421.4,715.3,421.1z" />
	<path fill="#303034" d="M651.8,513.8c-0.2,0.3-0.3,0.6-0.5,0.9C651.5,514.3,651.7,514.1,651.8,513.8z" />
	<path fill="#050505" d="M731.8,434.7c-1,1-1.5,2.5-3.4,2.8c7.2-14.7,9.3-30.7,6.6-46.9c2,1.3,1.7,2.9,2.6,4.9   c0.5-0.2,0.8-0.3,1.4-0.5c0.3,8.6,0.8,17.5-0.6,26c-1.4-0.7-0.2-2.3-1.2-3.4C735.5,423.6,734.6,429.3,731.8,434.7z" />
	<path fill="#050405" d="M698.4,486.4c2.1,10.8-6.3,21.6-15.2,26.6c-1.3-0.9-0.8-2.6,0.4-3.4C693.2,503.7,692.2,490.5,698.4,486.4z" />
	<path fill="#171718" d="M734.8,426.9c0.8-3,1.6-6,2.4-9.2c1,1.1-0.2,2.7,1.2,3.4c-1.4,7.8-3.3,15.7-7.9,22.3   c-0.3-0.3-0.6-0.6-0.9-0.9C730.7,438.1,736.5,430.7,734.8,426.9z" />
	<path fill="#969AA5" d="M734.1,431.9c-0.5,1.2-1,2.4-1.5,3.6c-0.3-0.3-0.6-0.5-0.8-0.8c0.5-1.2,1.1-2.3,1.6-3.5   C733.6,431.5,733.9,431.7,734.1,431.9z" />
	<path fill="#333538" d="M729.6,442.5c0.3,0.3,0.6,0.6,0.9,0.9c-0.3,0.9-1,1.5-2,1.9C728.1,444.1,728.9,443.3,729.6,442.5z" />
	<path d="M683.7,498.1c0-0.4,0.1-0.7,0-0.2C684,497.5,683.8,497.8,683.7,498.1L683.7,498.1z" />
	<path d="M683.6,498c-0.1,0.2-0.2,0.4-0.2,0.6C683,498.1,683.5,498.2,683.6,498L683.6,498z" />
	<path fill="#0C0F1D" d="M350.5,558.1c4.2-8.9,6.9-18.7,8.6-28c1.5,9.6-3.1,20.3-8.1,28.3C350.9,558.3,350.7,558.2,350.5,558.1z" />
	<path fill="#0A0D19" d="M372.2,544c0.4-5.3,3.5-10.5,2.7-16.2c0-1.9-0.2-3.3,0.7-5.1C379,528.2,376.3,539,372.2,544z" />
	<path fill="#0D0C0E" d="M267.8,341c-4.3-0.4-11.4-8.5-7.9-12C262.3,333.7,265,336.1,267.8,341z" />
	<path fill="#1D1C20" d="M260.2,357.6c1.9-1.9,5.9,1.3,4.6,3.5C262.7,360.9,261.5,359.5,260.2,357.6z" />
	<path fill="#201F23" d="M254.4,348.5c1.6,1.8,2.6,3.2,2.6,5.2C254.5,352.7,253.7,351.2,254.4,348.5z" />
	<path fill="#161211" d="M197.7,496.6c-0.7,2.7-1.2,5.4-2.2,7.9c-0.4,0-0.7-0.1-1.1-0.1c-1.5-3.3-0.5-8.3,1.9-10.6   C198,494.1,197.6,495.5,197.7,496.6z" />
	<path fill="#0E0B0A" d="M172.4,538.6c-0.1,3.2-0.1,6.8-2,9.3C167.3,546.5,168.3,537.5,172.4,538.6z" />
	<path fill="#1F1917" d="M173.2,530.4c1.7,1.6,0.8,5.5-1.4,5.9C171.4,534.2,171.4,532.3,173.2,530.4z" />
	<path fill="#251D1B" d="M159.5,543.4c-0.3-2,0.6-3.5,1.6-5c0.3,0.1,0.7,0.2,1.1,0.3c0.2,1.7-0.6,3.1-1.4,4.7   C160.4,543.4,159.9,543.4,159.5,543.4z" />
	<path fill="#221916" d="M196.5,491.4c-1.5-1-1.6-3.2-0.6-4.6C198.1,486.3,198.5,490.4,196.5,491.4z" />
	<path fill="#413935" d="M174.9,524.4c0.8,0.3,1.3,0.4,1.9,0.6c0,1.8-0.8,2.9-2.2,3.8C173.6,527.1,174.4,526,174.9,524.4z" />
	<path fill="#4A403D" d="M165.1,533.2c-1.1-0.7,0.3-3.7,1.5-3.3C166.8,531.9,166.7,531.9,165.1,533.2z" />
	<path fill="#1A1A17" d="M177.5,519.7c0.2,0.6,0.3,1.3,0.4,1.9c-2.1,1.3-2-1.3-1.8-2.6C176.6,519.2,177.1,519.4,177.5,519.7z" />
	<path fill="#68514B" d="M177.5,519.7c-0.5-0.2-0.9-0.5-1.4-0.7c0-0.6,0-1.2,0-2.3C177.2,517.8,177.7,518.6,177.5,519.7z" />
	<path fill="#090B15" d="M450.3,549c2.6-6.4,3.8-13.4,6.4-19.8c3,3.3-3.7,16.4-5.6,20.7C450.8,549.6,450.5,549.3,450.3,549z" />
	<path fill="#171E38" d="M440,550.5c4.1-5,3.8-11.3,8.2-14.8C446.6,541.1,444.8,547.5,440,550.5z" />
	<path fill="#141B34" d="M450.3,549c0.3,0.3,0.6,0.6,0.8,0.9c-1.5,2.5-1.4,5.4-4.3,6.8C448,553.7,448.7,551.2,450.3,549z" />
	<path fill="#141A31" d="M409.3,537.4c2.1,4.6,3.8,9.2,4.3,14.3c-2.3-4.4-4.1-9.3-5-14.1C408.8,537.5,409,537.4,409.3,537.4z" />
	<path fill="#0B0C18" d="M348.2,419.1c-2-0.7-7.4-3.8-5.2-6C345.3,414.6,347.6,416.1,348.2,419.1z" />
	<path fill="#EECABA" d="M483.5,434c1.6,7.2-14.9,10-16.8,3.8C464.4,429.6,480.2,427.5,483.5,434z" />
	<path fill="#2D221F" d="M495.5,436.2c1.4-1.9,5-3.8,5.3-0.3C499.2,436.4,497.7,437.4,495.5,436.2z" />
	<path fill="#241C19" d="M488.7,436.1c0.2-2.3,2.1-1.8,3.5-0.9C491,436.7,489.9,436.4,488.7,436.1z" />
	<path fill="#060505" d="M400,331.1c-3.9-0.5-7-13.2-2.4-14C400.6,320.2,401.4,326.9,400,331.1z" />
	<path fill="#12100E" d="M408.3,369.5c-3.2-1.7-5.5-7.7-1.4-7.4C407.9,364.2,409.2,366.3,408.3,369.5z" />
	<path fill="#1B1312" d="M403.7,342.2c-0.5,3.5-4,1.9-3-1.1C401.4,338.7,403.8,340.1,403.7,342.2z" />
	<path fill="#0E0B0A" d="M400.2,336.1c-1.3-1.2-1.3-1.2-0.6-3.5C401.5,333,401.6,333.7,400.2,336.1z" />
	<path fill="#0C0905" d="M212.1,477.9c-0.4,0.3-0.8,0.5-1.4,0.9c-2.2-2.8-1.9-6.7-2.8-10c-0.3-1.5,0.4-2,2.8-2.3   C213.3,469.8,213,473.9,212.1,477.9z" />
	<path fill="#130F09" d="M210.1,459.9c-0.1,1.1,0.2,2.5-1.8,2.8c-1.4-1.1-2.3-2.5-1.8-4.7c0.7-0.1,1.4-0.1,2-0.2   C209,458.5,209.5,459.2,210.1,459.9z" />
	<path fill="#211A10" d="M212.1,487.3c-1.5-0.5-1.7-1.8-2-2.9c0.5-1.5,1.5-1.6,2.7-1.3C213.5,484.6,213.8,486.1,212.1,487.3z" />
	<path fill="#1C160E" d="M205.6,453.4c-0.7-1-1.4-1.9-2.2-2.9c2.7-1.9,4.2,0.3,3.6,2.7C206.6,453.4,206.1,453.4,205.6,453.4   L205.6,453.4z" />
	<path fill="#0F0C07" d="M212,503c-0.4,0.2-0.8,0.4-1.2,0.6c-1.1-2-0.9-2.8,1.2-4.7l0,0c0.2,0.3,0.5,0.6,0.7,0.8   C212.5,500.8,212.3,501.9,212,503z" />
	<path fill="#2A2217" d="M212.8,495.1c-0.4,0-0.7,0.1-1,0c-0.9-1.2-0.3-2.3,0.4-3.4c0.2,0,0.4,0,0.5,0c0.3,0.3,0.5,0.5,0.8,0.8   C213.2,493.4,213,494.2,212.8,495.1z" />
	<path fill="#9D7747" d="M205.6,453.5c0.5,0,0.9-0.1,1.4-0.1C206.5,454.4,206.4,454.4,205.6,453.5z" />
	<path fill="#9D7747" d="M212.8,499.7c-0.2-0.3-0.5-0.6-0.7-0.8C212.3,499.1,212.5,499.4,212.8,499.7z" />
	<path fill="#9D7747" d="M213.5,492.5c-0.3-0.3-0.5-0.5-0.8-0.8C213.2,491.7,213.5,492,213.5,492.5z" />
	<path fill="#070605" d="M322.9,168.4c0.5-0.5,1.1-1,1.6-1.4c0.8,1,0.8,2.1,0.8,3.5C324.1,170.8,321.6,169.5,322.9,168.4z" />
	<path fill="#221D1C" d="M302.9,141.7c-0.3,0.3-0.6,0.6-0.9,1C300.9,141.9,301.8,140.9,302.9,141.7z" />
	<path fill="#221D1C" d="M303.4,140.5c-0.2-0.3-0.4-0.6-0.5-0.9c0,0,0.1-0.1,0.1-0.1c0.2,0.3,0.4,0.5,0.6,0.8   C303.6,140.3,303.4,140.5,303.4,140.5z" />
	<path fill="#322609" d="M458.9,128.8c0.4,0,0.9,0.1,1.6,0.1c-0.8,2.3-1.6,4.3-2.3,6.2c-0.5,0.3-0.9,0.6-1.8,1.2   C456.4,133.2,458,131.1,458.9,128.8z" />
	<path fill="#2C2622" d="M175.7,489.6c1.3,2.2,0.9,4.2-0.7,5.6C174.1,493.3,174.6,491.7,175.7,489.6z" />
	<path fill="#2C2421" d="M165.9,515c0.5-1.1,0.9-1.8,1.3-2.7c1.8,0.6,2.2,2.1,1.5,3.8C167.9,515.8,167.1,515.5,165.9,515z" />
	<path fill="#150E03" d="M190.5,353.3c2,2.9-6.7,6-9,5.8C182.9,356.2,187.6,354.8,190.5,353.3z" />
	<path fill="#745937" d="M174.1,458.5c-0.4-0.3-0.9-0.5-1.5-0.9c0.4-0.5,0.6-0.8,0.8-1.1C174.4,457,174.9,457.4,174.1,458.5z" />
	<path fill="#5A4B2D" d="M176.5,453.1c-0.2,1.3-2.1,1.2-1.4-0.1C175.5,452.9,176.3,452.6,176.5,453.1z" />
	<path fill="#3B270A" d="M457.4,27.3c-2.7,0.7-4.4,1.6-7.5,1.5c2.6-2.2,5.5-2,7.7-3.6c0.4,0.1,0.8,0.2,1.6,0.3   C458.5,26.3,457.9,26.8,457.4,27.3z" />
	<path fill="#4F3B0B" d="M456.2,7.1c0.8,1-0.3,1.2-0.7,1.8c-1.1,0.4-2.1,0.8-3.4,1.2C452.7,8.3,452.8,8.3,456.2,7.1z" />
	<path fill="#523F13" d="M470.2,396.2c0.4,1.2,0.4,1.2-1.1,1.9C469.2,397,469.3,396.5,470.2,396.2z" />
	<path fill="#080912" d="M286,411.7c-1.8-1.1-0.8-7.1,1.5-6.3C287.8,407.6,287.1,409.6,286,411.7z" />
	<path fill="#171412" d="M152.3,552c0.7,0,1.4,0.1,2.1,0.1c0.1,1.8,0.3,3.7-0.1,5.4C151.5,557.4,152.9,553.9,152.3,552z" />
	<path fill="#353636" d="M307.1,83.4c1-1.1,1.6-2.3,3.3-1.8c0.6,2.4-1.4,3.1-3.1,5C307.2,85.2,307.2,84.3,307.1,83.4z" />
	<path fill="#070911" d="M242.4,406.8c0.5-0.4,0.9-1.2,1.8-0.7c0.4,2.7,0.4,2.7-0.3,5.3c-0.8,0.3-1.7,0.5-2.8,0.9   c-0.2-1.1-0.3-2-0.4-3c0.6-0.1,1-0.2,1.6-0.3c0-0.5,0-1.1,0-1.7C242.4,407.2,242.5,407,242.4,406.8z" />
	<path fill="#5572E0" d="M242.4,406.8c0.1,0.2,0,0.4-0.1,0.6c-0.4,0.1-0.8,0.3-1.3,0.5c-0.1-0.8-0.1-1.4-0.1-2l0,0   C241.5,406,242.2,406,242.4,406.8z" />
	<path fill="#645550" d="M346.7,96.4c-0.2-0.4-0.5-0.9-0.7-1.3c1.2-0.2,1.8,0.4,2.2,1.4C347.7,96.5,347.2,96.4,346.7,96.4z" />
	<path fill="#645550" d="M344.5,96.5c0.7,0,1.4-0.1,2.1-0.1C345.8,97.4,345.8,97.4,344.5,96.5z" />
	<path fill="#120F0E" d="M303.6,140.3c-1.1-0.7-0.3-2.1-1.4-2.9c-0.2-1.5-0.2-3,1.2-4.1c0.3,0.9-0.3,2.1,0.7,2.8   c0.2,0.8-0.1,1.6,0.7,2.2c0.2,0.7-0.1,1.6,0.7,2.1c0.2,0.5,0.5,1,0.7,1.4C305.5,143.5,304.3,140.9,303.6,140.3z" />
	<path fill="#838993" d="M663.6,500.4c-0.3-0.3-0.6-0.6-0.8-0.8c0.5-1.2,1.5-2,2.9-3.1C665.3,498.3,664.6,499.4,663.6,500.4z" />
	<path fill="#303034" d="M652.4,515.3c-0.2,0.3-0.3,0.5-0.5,0.8C652.1,515.8,652.3,515.6,652.4,515.3z" />
	<path fill="#B4B6C2" d="M716.1,422.6c0.4,6.6-4.2,13.3-8,18.6c-0.2-0.2-0.4-0.5-0.7-0.7C710.4,434.6,712.8,428.3,716.1,422.6   C716.1,422.6,716.1,422.6,716.1,422.6z" />
	<path fill="#6C6E75" d="M707.4,440.5c0.2,0.2,0.4,0.5,0.7,0.7c-0.3,0.9-0.9,1.6-2,2.1C706.1,442.1,706.5,441.2,707.4,440.5z" />
	<path fill="#5E5C62" d="M716.1,422.6c-0.2,0.3-0.4,0.5-0.6,0.8C715.7,423.1,715.9,422.8,716.1,422.6z" />
	<path fill="#AEAFBB" d="M702.5,416.3c1.3,2-3.4,13.6-5.2,13.4C698.5,425.1,700.6,420.6,702.5,416.3z" />
	<path fill="#242426" d="M697.9,427.5c-0.1,0.3-0.3,0.7-0.4,1C697.6,428.2,697.7,427.9,697.9,427.5z" />
	<path fill="#242426" d="M702.3,416.7c-0.2,0.3-0.4,0.6-0.6,0.9C701.9,417.4,702.1,417.1,702.3,416.7z" />
	<path fill="#595B62" d="M734.1,431.9c-0.2-0.2-0.5-0.5-0.7-0.7c0.2-1.5,1.6-2.7,1.4-4.3C736.6,428,734.3,430.4,734.1,431.9z" />
</g>
</svg>