<?xml version='1.0' encoding='utf-8'?>
<svg xmlns="http://www.w3.org/2000/svg" version="1.2" baseProfile="tiny" id="Layer_2_00000029020580686418470320000010834236991409290418_" x="0px" y="0px" viewBox="0 0 900 600" overflow="visible" xml:space="preserve">
<g>
	<path fill="#F6D9C7" d="M588.5,135.8c0-0.3,0-0.6,0-0.8c0.4,0,0.7-0.1,1.1-0.1c0.5-4-1.1-7.6,1.6-11.5c1.2,3.2-0.2,5.7,0.6,8.6   c1.8-0.4,1.8-0.4,1.3-3.8c2-0.8,1.2-3.6,3.5-4.8c1,0.3,2.1,0.6,3.2,0.8c0.7,4.3,3.1,1.4,6.1,2.1c1.6,2.1,4.1,3.8,4.4,6.8   c-0.2,1.2,0.4,1.7,1.5,1.9c3.4,0.3,2.1,4.5,2.3,6.7c-3.4,4-5.9,8.3-9.8,11.3c-0.6-0.4-1-0.7-1.5-1c-0.1,0-0.3,0-0.5,0   c0-2-0.1-3.7-0.2-5.8c-4.3,2.9-5.4,8.2-7,12.7c-8.2,12.3-17.7,25.8-31.5,32.5c-3.6-3.9-5.2-9.3-10.6-11.4c0.2,1.8,0.3,3.5,0.5,5.9   c-11-15.9-16.4-33.2-23.5-50.8c3.1,0,6.9,1.8,9.7-0.4c-3.8-4.9-25-21.6-25.4-8.5c0,0,0,0,0,0c-1.4,0.6-0.6,2.6-0.8,3.6   c-4.8,4.9-8.2,10.5-11.9,16.2c-13.9-2.6-14-18.2-11.5-29.4c1.1,0.5,2.2,1,3.1,1.5c3.2-1.4,3.2-1.4,4.7-3.9l0,0   c2.4-0.8-0.3-2.8-1.2-3.7c-1.8-0.1-4,1.1-5.3,0c2.9-22.9,27.6-21.1,43.6-13.3c9.8,10.3,9.2,25.9,14,38.1   c7.2,11.4,11.6,25.5,17.2,36.7c-0.2-1.9-0.4-3.8-0.6-5.6l0,0c12-3.5,22.5-10.2,27.9-22.1c-0.3-0.3-0.6-0.6-0.9-0.9   c-1,0.8-1.8,1.5-2.6,2.2c-2.8-3.3,0.8-6.5-0.6-9.9C589.3,135.8,588.9,135.8,588.5,135.8z M502.4,110c2.8-1.3,4.9-2.2,7.1-3.2   C507.3,104.5,503.5,107.3,502.4,110z M598.7,126.1c-0.8,2.3-0.8,2.3,0,4.9C600.8,128.8,600.9,127.8,598.7,126.1z M519.5,109.6   c-0.1,1.6,0.7,2.7,2,4C521.4,111.7,522.4,108.1,519.5,109.6z M524.1,96.8c-2.3-0.2-3.7,0-4.4,1.8c0.3,0.2,0.6,0.4,1,0.6   C521.7,98.6,522.7,97.9,524.1,96.8z M518.6,107.9c0-1.6,0-2.9-1.8-3.6C515.9,106.2,517.3,106.9,518.6,107.9z M604.2,129.1   c-0.7,0.9-0.5,1.7,0.1,3.1c0.5-1.3,0.8-2,1.1-2.8C604.9,129.2,604.5,129.1,604.2,129.1z M599.1,136.1c0.2-1.1,0.2-1.1-0.6-1.7   C598.2,135.3,598.2,135.3,599.1,136.1z M521.4,115.6c-0.7,1.2-0.2,1.9,0.8,2.3C522.8,117.1,522.7,116.4,521.4,115.6z M603.8,136.2   c-0.1-0.1-0.2-0.1-0.4-0.2c-0.2,0.3-0.4,0.5-0.6,0.8c0.2,0.1,0.4,0.2,0.5,0.3C603.5,136.8,603.7,136.5,603.8,136.2z M564.8,173.8   c0.6,0.7,0.6,1.5,1.4,1.2C566.7,174,566,173.9,564.8,173.8z M501.1,111c0.5,0.7,0.9,0.4,1.5,0.1C502.2,110.4,501.8,110.7,501.1,111   z M604.2,132.8c-0.4,0.4-0.5,0.7-0.1,1.2C604.5,133.5,604.8,133.3,604.2,132.8z M592.1,134.2c-0.1-0.2-0.2-0.4-0.3-0.6   c-0.4,0.2-0.2,0.5-0.1,0.9C591.8,134.4,591.9,134.3,592.1,134.2z M598.4,132.1c0,0.2,0,0.3,0,0.4c0.1-0.1,0.2-0.1,0.2-0.2   C598.6,132.3,598.5,132.2,598.4,132.1z" />
	<path fill="#010101" d="M546.7,125.4c-3.5-10.1-4.1-24.4-14.6-29.9c-10.5-2.7-23.1-5.7-33,0c-0.7-0.7-1.4-2-2.5-1.3   c-4.4,4-9.8,6.3-15.2,8.6c-0.7-0.2-1.3-1.1-2.2-0.7c-2.2-1.1-2.7-3.1-4.5-4.5c-10.7,13.4-10.7,32.7-10.5,49.3   c-0.2,0.3-0.6,0.7-1,1.2c2.2,9.9,5.8,19.4,5.9,29.5c19.7,5.1,40.1,6.3,59.5,12.7c1.8-1.7,1.8-3.9,2.1-5.9c2.2-1.8,5-2.5,6.6-5   c-4.8-10.4-8.7-21-12.3-32c-6.4,1.4-12.9,4-19.4,1.7c0.9-1.6,3.1-0.6,4.5-0.8c2.9,0.4,4.2-2,6.6-2.9c0,0-0.1,0-0.1,0   c-0.1,0.4-0.3,0.9-0.5,1.7c2.9-0.4,5.5-0.7,7.9-1.8c0-0.5-0.1-0.8-0.1-1.2c0.3-0.3,0.6-0.7,1-1c7.4,16.9,12.5,36.3,24.9,50.6   c-0.3,0-0.7,0.1-1,0.1c-3.8-3.5-6.7-7.1-10.1-11.2c-1.9,1-3.9,2.2-5.7,3.1c-5,9.3-2.6,20.3-10.9,27.6c-9.4,15.9-10.3,36-16.7,53.3   c0,1.9-1.5,3.3-1.4,5.2c-0.2,2.2,1.3,5.3-0.5,6.9c-0.2-0.5-0.5-1-0.7-1.5c0.3-1.1-0.2-2-0.7-3c0.4-5.6,3.1-11.1,3.8-16.8   c-7-9.7-18.2-14.7-28.7-19.8c0-0.3,0-0.6,0.1-0.9c11.7,2.3,21.5,9.5,29.7,18c3.8-14.2,5.5-29.5,13.4-42c5.4-5.7,6.9-13.4,7.8-21   c-5.7-1.1-11-2.9-16.7-3.6c-0.2,0.7-0.4,1.3-0.6,1.8c-0.6-0.7-1.1-1.5-1.8-2.3c-13.3-2.2-26.8-4-40-8c-0.2,9.3,0.9,18.2-2.3,27.1   c-0.3-0.3-0.5-0.6-0.8-0.9c3.7-22.4-2.2-45.1-6.2-67c-13.3,5.1-25.5,11.8-38.4,17.7c11.6,16.2,19,36.4,33,50.3   c-0.5,0.5-0.9,1-1.4,1.5l0,0c-4.2,0.2-4.2-5.8-7-8c-11.3-12.9-16.3-29.1-26.8-42.8c-1.3-0.2-2.7-0.5-4.7-0.8c1.3-0.7,1.9-1,2.5-1.3   c3.9,0.4,8-2.3,10.8-5c10.1-4.3,19.8-10.1,30.3-13.6c-2.5-8.3-3-16.8-4.4-25.3c0.4-0.3,0.8-0.5,1.2-0.8c4.7,7.5,0.6,19,6.7,26.6   c2.4-11.4,2-23.5,6.8-34.5c-1.4,0.2-2.4,0.5-3,1.4c-8.2,0.6-16.7,3.7-21.9,10.3c-21.2,6.6-38.8,21-53.7,37.3   c-5.2,1.1,3.6-7.8,4.7-9c13.9-13.1,29.4-24.3,47.4-30.6c19.4-15.3,46.2-11.4,46.5-44.7c-0.4-0.4-0.9-0.8-1.7-1.7   c1.7,18.3-14.1,31.9-31.6,32.4c-2.3-1.4-5.5-0.5-8.1-1.4c0-0.5-1-1.1,0.1-1.5c7.8,2.7,15,0.5,22-3.6c0.4,0.2,0.9,0.5,1.4,0.8   c7.9-4.5,18.3-16.5,12.9-25.8c0.2,3-0.2,6-1.2,8.9c-1-0.5-0.4-1.5-0.7-2.2c0.6-6.4-0.2-12.7-4-18.1c-0.7,1,0.1,2.2-1,2.7   c-0.5-1,0.6-2.2-0.7-2.9c-0.8-2.7-1.6-5.3-2.3-8c0.4-0.2,0.9-0.4,1.5-0.7c0.3-2.7-1.1-7.1,1-9.1c1.7,8.1,2.6,16.5,7.4,23.6   c3.9,1.3,6.6,3.9,8.5,7.4c0,0.4-0.1,0.7-0.1,1.1c-0.4,0.2-0.8,0.4-1.1,0.6c-1.4,9.7-2.4,21.8-12.7,26.1c0.8,3.5,1.1,3.8,4.2,3.6   c0.6-0.7,1.2-1.4,2-2.3c0.2,0.8,0.2,1.2,0.4,1.8c14.4-8.5,19.6-8.8,35.3-8.1c5.4-14.8,4.8-12,19.7-12.5c0.3,0.2,0.5,0.5,0.8,0.7   c-4.2,2.7-9.2,1.1-14.1,1.5c-2.5,3-2.5,7.1-4,10.7C539.6,89.6,548.4,111.3,546.7,125.4z M483.2,63.6c0.1-0.1,0.2-0.1,0.2-0.2   c-0.1-0.1-0.2-0.2-0.2-0.2c-0.1,0.1-0.2,0.2-0.3,0.3C483.1,63.6,483.2,63.6,483.2,63.6z" />
	<path fill="#010101" d="M738.1,594.6c1.5,0.9,2.3,1.7,3.2,2.9c-194.2-2.7-388.4-7.3-582.6-10.3c0.3-1,0.5-1.8,0.7-2.6   C352.3,587.1,545.2,592,738.1,594.6z" />
	<path fill="#010101" d="M312.5,539.8c-5.1-5.1-9.6-10.9-11-18.1c0.3-1.2,1.2,0,1.7,0.4c4.9,8.9,12,15,18.4,22.9   c3.3,1.2,6.1,4,9.3,6c5.7,15.2,22.5,27.1,38.9,24.8c-0.4-3.2,0.7-5.7,0.7-8.8c-6.5-2.4-9.5-7.3-11.2-13.8c-0.9-0.5-2.6,0.1-2.4-2.1   c1-0.5,2-0.9,3.1-1.4c0-0.8,0.1-1.5,0.1-2.2c-1.5-0.5-2.7-0.9-4.1-1.4c0.3-0.7,0.5-1.2,0.8-1.7c1.4-0.2,2.8-0.4,4.1-0.6   c0.5-1.3,1.2-2.4,0.5-4c-1.7,0.9-3.7,2.3-5.5,1.1c0-0.7,0-1.4,0-1.9c1.3-1.9,3.5-1.3,5.2-2.3c-0.2-0.8-0.3-1.6-0.4-2.3   c-2.3,0.1-4.5,0.6-6.4-1.3c1.2-2.6,4.3-0.7,6.3-1.6c0.5-3.6,2.1-7.1,1.7-10.7c0.3-0.3,0.7-0.6,1-0.9c0.3,0.1,0.7,0.2,1.1,0.4   c0.1,4.8-1.7,9.7-1.2,14.5c2.4,8.6-4.4,18.2,1.6,26.1c106.8,4.7,217-2.8,322.3,6.6c-105.7-1.2-211.2-2.3-316.8-3.5   c4.2,3.7,1.7,8.9,0.9,13.8c-13,1.8-27.1-3.6-35.2-14.2c-39-0.4-77.9-0.9-117-1.3c-0.3-0.5-0.5-1-0.8-1.5   c37.1-3.4,76.5,0.9,114.3-0.1c-2.9-15.6-14.8-11.1-18.4-19.5c1.9-0.1,2.3,2.5,4.4,1.8c-1.1-1-2-1.7-2.9-2.7   c-0.4-0.5-0.6-1.3-1.6-0.8c0,0.5,0,1.1,0,1.7c-0.2,0-0.4-0.1-0.6,0l0,0C313.5,540.4,313.4,539.9,312.5,539.8z" />
	<path fill="#020201" d="M407.2,377.5c8.8-24.7,12.5-51.1,23.8-75.1c-1.2-10.8-10.4-20.2-6.1-31.9c1-0.5,0.7-1.4,0.6-2.3l0,0   c1.2,0.5,0.8,2,0.7,3c-4.5,11.7,9,21.5,6.2,32.9c18.4,3.2,37.3,5.8,54.6,12.7c2.4-6.3,4-12.6,6.7-18.5c0.3,0,0.5,0,0.8,0   c-2.5,12.4-6,26.1-11.9,37.7c9.2,10.7,19.8,19.6,30.2,29c-0.3,0.3-0.5,0.6-0.8,0.8c-11.6-7.5-22.8-16.1-30.4-27.9   c-9.5,17.8-18,36.3-32.7,50.6c-0.3-0.3-0.6-0.6-0.9-0.9c14-22,30.4-43.8,38.3-68.8c-17.4-8.3-36.4-8.3-54.7-13.3   c-9.7,23.9-13,50-23.8,73.5C407.2,378.9,407.4,378.1,407.2,377.5z" />
	<path fill="#040303" d="M303.3,522.1c-0.6-0.4-1.5-1.7-1.7-0.4c-0.2-0.5-0.4-1-0.8-1.8c12.1-2.9,18.6-15.6,29.6-21.1   c1.2,1.3,2.2,2.4,3.4,3.7c12-15.7,17.5-34.9,25.1-52.9c0.3,0.5,0.5,1,0.8,1.6c-5.5,18.8-12.4,37.8-25,53.2   c2.9,4.5-0.9,11.1,3.6,14.3c4.1,4.1,11.6,2.6,17.1,2.6c5.9-20.1,18.9-37.7,31.1-54.5c12.1-13.4,18.2-30.9,30-44.4   c1.3,0.3,0.2,1.2,0.4,1.8c-12.3,17.4-20.9,37.2-34.8,53.6c-10.8,12.3-18.3,26.7-23.7,42.1c0.7,0.2,1,0.1,1.4,0.4   c0.1,0.7,0.7,0.6,1.2,0.5l0.2,0.2c-7.8,5-20.8,4-27-3.4c-1.2-7.2,0.8-9.3-5.1-15.2c-9.5,5.2-15.1,15.6-25.8,18.8   C303.3,521.4,303.3,521.7,303.3,522.1z" />
	<path fill="#060404" d="M563.7,401.3c-30.4,27.4-67.5,47.3-94.1,78.7c10.7-0.5,1.3,11.3,0.9,17.4c-5.6,5.1-4.7,16.2-6.6,23.8   c-0.1,4.5,2.5,8.6,3.1,13.1c0.2,4.2-3.5,11.2-8.3,10.5c1.8-4.4,8.6-7.3,5.7-13.1c-1.6-3.9-2.6-8.1-2.9-12.4c-0.5-0.8-2-1.2-1.3-2.8   c0.6-0.1,1.3-0.3,2-0.5c0.6-1.3,1-2.6,0.9-4c-2.3-2.1-2.3-2.1-1.3-4c0.8,0,1.7,0,2.6,0c0.1-0.9,0.2-1.6,0.3-2.3   c-5.1-1.3-5.1-6.2,0.6-4.2c0.6-1.4,1.1-2.3,1.9-3.4c-1.5-1.1-3.7-1.1-4-3.4c1.7-2.7,3.9-0.1,5.9-0.4c1.1-2,1.2-4,1.7-6.1   c0.6-2,2.1-3.9,1.5-6c-8.4,2.6-16.3-2-21.1-8.9c0.2-0.3,0.5-0.6,0.7-0.9c4.6,3.4,8.7,8.7,15,8.2c10.7-14.9,25.5-26.8,40.7-36.7   c17.9-15.1,36.3-29.5,55.1-43.4C563,400.6,563.3,401,563.7,401.3z" />
	<path fill="#030202" d="M490.9,313.8c0-1.3-0.3-2.6,0.7-3.7c0.1,0.6,0.1,1.2,0.2,2.1c7.4-5.2,15-11.6,19.8-19.1   c-3.4-4.5-7.2-8.6-8.2-14.4c0.9-0.3,0.7-1.1,0.8-1.8c2,9.2,10.4,14.7,16.8,20.9c8,6.5,14.3,14.6,20.5,22.8   c12.3,21.4,23.6,44.7,29.4,68.9c-1.6,2.8-1.7,6.4-4.4,8.7c-0.3-0.3-0.6-0.6-0.8-0.9c8.6-18.9-12.3-45.2-20.1-62.8   c-7-15.8-18.8-28.8-32.1-39.6C506.7,301.8,499.9,310.4,490.9,313.8z" />
	<path fill="#050504" d="M464.4,66.6c3.8-16.5-11.8-37.8,0.8-50.5c0.9,0.3,0.8,1.3,0.4,2c0.1-0.2,0.2-0.3,0.3-0.5   c0.5,0.2,0.9,0.4,1.4,0.5c-4,3-6,6.6-4.7,11.7c1.5-1.3,1.5-3.1,3.2-4.2c0.3,0.3,0.5,0.5,0.8,0.8c-3.6,5-3,14.2,1.3,18.4l0.1-0.1   c0.2,2.9,2.3,5.8,3,8.8c-1.4,6.2,3,13.5-0.8,19.8c-2.1-6.1-0.4-13.1-3.6-20c0,5.8,0.4,10.3-1.6,15.6   C464.2,68.4,464.8,67.3,464.4,66.6z" />
	<path fill="#070606" d="M459.3,543.2c-0.2,0.5-0.4,1.1-0.6,1.6c-1.4,0.3-0.8-2.1-2.2-1.7c-12.5-12.1-24.3-25.2-25.8-43.1   c-7.1-10.2-20.1-23.3-13.7-36.5c0.2,0,0.5,0.1,0.7,0.1c-2.4,14,6.6,24.9,15,35c1.4,1.6,1.9,3.6,1.7,5.8c-1,12.9,9.8,22.1,17.9,30.4   l0,0c-0.3,1.2,0,1.9,1.5,1.8c-0.1-0.7-0.3-1.3-0.7-1.9c0.2-0.2,0.4-0.4,0.5-0.6C455.3,537.1,457.3,540.1,459.3,543.2z" />
	<path fill="#060504" d="M388.1,151.5c0.3,1.3,1,0.4,1.5,0.3c-0.2,0.8-0.3,1.7-0.4,2.3c5.8,12.2,13.1,23.9,22.4,33.6   c10.7,12.2,28.4,18.4,32.6,35.1c-0.4,0.1-0.8,0.1-1.2,0.2c-5.3-14.4-20.1-20-30.3-30.6C402.5,181.1,389.6,166.9,388.1,151.5z" />
	<path fill="#050403" d="M363.3,439.2c3.9-15.4,17.8-23.7,27.6-35.1c6.5-6.7,9.9-15.1,14.9-22.9c0,0,0,0,0,0c0.3,0.3,0.6,0.7,0.9,1   c-6.3,25.2-32.8,35.5-42.7,58.5C363.2,440.5,363.4,439.8,363.3,439.2z" />
	<path fill="#080505" d="M443,223c0.4-0.1,0.8-0.1,1.2-0.2c8.6,10.2,22.6,7,32.8,13.9c0,0.3,0,0.6-0.1,0.9c-6.6-2-12.8-4.7-19.7-4.7   c-7,10.5-17.8,17-25.7,26.7c-0.3-0.3-0.5-0.6-0.8-0.9c4.9-11.7,17.7-16.8,24.3-26.6C449.5,231.4,446.2,226.9,443,223z" />
	<path fill="#0F0C0B" d="M529.2,7.2c9.7,5.7,14.7,19.5,13.6,30.3c-2.3,6,4.5,10.5,5.4,16l0,0c-4.4-2.1-9.9-13-6.7-17.8   c-2-5.9-2.5-12-5.3-17.5c-1.2-0.6-2.2-1.2-3-1.6c-0.6,0.2-1,0.3-1.3,0.3c-4.6-5.3-10.7-7.9-17.4-9c3.4-2.4,7.7,1,11.4,1.6   c-0.3-0.6-0.4-1.1-0.6-1.5c3.6,0.8,5.1,4,8.1,5.7c-0.8-2.8-3.6-3.4-5.1-5.7C528.6,7.7,528.9,7.5,529.2,7.2z" />
	<path fill="#090707" d="M451.9,472.3c-0.2,0.3-0.5,0.6-0.7,0.9c-4.9-4.2,1.6-10.7-1.4-15.7c-13.7-2.7-12,8.6-31.8,5.9   c0.1-0.2,0.1-0.5,0.1-0.7c4.9-1.7,10.5,0.2,15.3-2.4c5.8-3.9,13.8-9.3,19.6-2.5c5.8-3.4,10.3-8.8,15.7-12.8c0.3,0.3,0.7,0.7,1,1   C464.3,455.2,447.6,460,451.9,472.3z" />
	<path fill="#080605" d="M480.2,11.6c1,0.4,2,0.7,3.1,1.1c8-7.5,26.5-12.8,36.9-9.1c-12.7,2.4-34.3,3.5-40.5,16.6   c-0.5,0.3-0.9,0.6-1.4,0.8c-2.9-4.4-3.4,0.3-4.4,3c-0.2,0-0.4,0-0.6,0c0-0.6,0-1.2-0.7-1.5l0,0c0-0.2,0.1-0.4,0-0.7   c0.8-0.8,1.1-2,1.6-3c3.2-0.4,5-2.5,7.2-4.7c-1.1-0.7-2.1-1.3-3-1.9C479,12.2,479.6,11.9,480.2,11.6z" />
	<path fill="#090706" d="M498.9,400.9c6-10.3,19.5-16.9,30-17.5c1.3-0.6,0.9-1.7,0.9-2.9c1.9,1.3,3,3.5,5.2,4.4   c-0.3,0.3-0.6,0.6-0.9,0.9c-13.3-1.3-25.2,7.4-34.3,16.1C499.5,401.6,499.2,401.2,498.9,400.9z" />
	<path fill="#151211" d="M498.9,400.9c0.3,0.3,0.6,0.6,0.9,1c-10.7,14.2-18.3,30.8-30,44.2c-0.3-0.3-0.7-0.7-1-1   C480.3,431.4,487.2,414.5,498.9,400.9z" />
	<path fill="#1A1210" d="M440.4,86.5c-2.8-2.4-7.4-3.3-8.6-7.1c7,3.7,19,8.9,26,4.3c1,0.1,0.9,0.8,0.9,1.5c-3.9,2-8.3,1.1-12.5,1.4   c-0.5-0.9-1.1-1-1.9-0.2c6.6,3.5,14,1,20.2-2.3c-0.6-0.5-0.9-0.8-1.4-1.2c0.5-0.2,1-0.4,1.5-0.6c0.4,0.4,0.7,0.8,0.9,1   c1.1-0.5,1.9-0.8,2.7-1.2c-5.4,6.7-14.4,6.6-21.9,8.1c0.1-0.6,0.1-1.3,0.2-2.1C444.4,88.2,442.4,87,440.4,86.5z" />
	<path fill="#100C0C" d="M548.7,193.7c0.3,0,0.7-0.1,1-0.1c4.1,3,10.1,8.2,15.1,4.5c7.1-5.7,14-11.6,20.1-18.4   c0.6,0,1.2,0.1,1.4,0.8c-5.3,7.8-13.6,13.1-20.7,19.1C559.8,204.9,552.5,198.3,548.7,193.7z" />
	<path fill="#0F0B0A" d="M463,82.8c0.3,0.2,0.5,0.4,0.8,0.6c-1.7,0.6-3.4,1.1-5.1,1.7c-0.1-0.7,0-1.4-0.9-1.5   c-6.7,0.3-12.3-4.3-16.8-8.8c0.1-0.6,0.1-1.3,0.8-1.6c0,0,0,0,0,0c4.3,5.2,13.7,11.4,18.9,4.2c0-0.2,0-0.4,0.2-0.5   c0.3,0.5,0.5,1.1,0.8,1.6c-0.4,0.6-0.9,1.3-1.4,2c3.1,0.1,6.8-1.2,7.9-4.4c0.5,0.7,1,1.4,1.4,2.1c-0.5,0.5-1.7,0.7-1.1,2.1   c0.7-0.5,1.3-0.8,1.9-1.2c0.2,0.2,0.4,0.4,0.7,0.6c-1.8,1.5-3.3,2.6-5.6,3.4c-0.2-0.2-0.6-0.6-0.9-1c0.4-0.4,0.9-0.7,1.3-1.1   c-0.1-0.1-0.2-0.3-0.2-0.4c-1.7,0.6-3.4,1.1-5.1,1.7c0,0.1,0,0.3,0,0.4C461.4,82.8,462.2,82.8,463,82.8z" />
	<path fill="#201A19" d="M610.3,133c-4.2-12.4-9.2-2.5-10.5-8.9c-1.1-0.3-2.2-0.6-3.2-0.8c-2.3,1.2-1.6,4-3.5,4.8   c0.6,3.4,0.6,3.4-1.3,3.8c-0.9-2.9,0.6-5.4-0.6-8.6c-2.6,3.8-1.1,7.5-1.6,11.5c-0.4,0-0.7,0.1-1.1,0.1c-1.3-5-1-10.8,2.6-14.7   c1.9,0.8,1.9,0.8,2.9,3c2.4-2.5,4.9-0.8,7.4-0.5c0.3,0.9,0.5,1.6,0.7,2.3c4.5-2.6,6.2,2.5,9,4.8c0.1,0.2,0.1,0.4,0,0.6   C610.1,131.1,610.7,132.2,610.3,133z" />
	<path fill="#11100F" d="M546.7,125.4c1.1-0.5,0.5-1.6,0.8-2.4c0.8,13.9,13.2,23.3,14.7,36.9c-0.3,0-0.6,0-0.9,0.1   C557,148.1,548,137.9,546.7,125.4z" />
	<path fill="#0A0808" d="M416.9,424.1c-0.2-0.6,1-1.5-0.4-1.8c7.7-3.4,13.6-11.7,20.1-17.5C439.3,411.4,422.2,421.2,416.9,424.1z" />
	<path fill="#161313" d="M610.3,133c0.3-0.8-0.2-1.9,0.8-2.5c0.3,0.7,0.5,1.4,0.9,2.2c0.9,0.5,2,1.1,3.2,1.8c0.5,0.8,1,1.7,1.7,2.8   c0.1,9.4-6.8,17.5-14.3,22.7c-0.3-0.3-0.6-0.6-0.9-0.9c4-4.7,16.5-14.2,12.6-21.2C614.9,134.3,610,135.8,610.3,133z" />
	<path fill="#12100F" d="M586.3,180.5c-0.2-0.7-0.8-0.8-1.4-0.8c5.3-5,9.1-11.4,13.8-16.9c0.5,0,1,0,1.5,0   C597.8,169.6,590.6,174.5,586.3,180.5z" />
	<path fill="#291F1A" d="M446.3,90.2c1.4-1,2.9-0.8,4.4-0.6c-0.4,0.3-0.7,0.6-1.1,0.9c4.6,1.3,10.5-0.1,15.5-0.3   c0.3,0.2,0.5,0.5,0.8,0.7c-7.3,2.3-15.3,2.2-22.7,0.1c-0.3-1.1-1,0.2-1.3,0.7c-0.2-0.1-0.3-0.3-0.3-0.5c-0.4-0.6-0.9-1.1-1.6-1.5   c-0.2,0-0.4,0-0.5-0.2c0.3-0.3,0.6-0.5,1-0.8C442.5,89.2,444.3,89.8,446.3,90.2z" />
	<path fill="#151211" d="M588.5,135.8c0.4,0,0.7,0,1.1,0c1.4,3.4-2.2,6.7,0.6,9.9c0.8-0.7,1.6-1.3,2.6-2.2c0.4,0.3,0.6,0.6,0.9,0.9   c-1.8,2.9-3.1,5.8-5.2,8.1c-0.3-0.3-0.5-0.6-0.8-0.9c0.4-1,0.8-2,1.3-3C586.2,144.7,587.7,140,588.5,135.8z" />
	<path fill="#22201F" d="M540,79.1c-0.3-0.2-0.5-0.5-0.8-0.7c2.3-2.7-0.5-6.1,1.5-8.8c1.2-1.2,1.1-2.5,0.6-4   c-0.6-0.1-1.2-0.1-1.7-0.2c-0.3,0.2-0.6,0.4-0.9,0.6c0,0,0,0,0,0c-0.7,0-1.4,0-2.2,0l0,0c0-0.2,0-0.5-0.1-0.7l0,0   c1.3-1.7,3.9,0.2,5.1-1.5c0,0,0,0,0,0c1.1-0.7,1.6-1.8,2.2-2.9c0.4,0.6,0,1.7,0.2,2.5c-0.4,0.5-0.8,0.9-1.2,1.4   c1.2,2.7,0.7,4.2-0.9,7.1c0.1-0.5,0-0.4,0.1-0.3c0.8,2,0.5,4,0.5,6.2C541.5,78.3,540.7,78.7,540,79.1z" />
	<path fill="#191413" d="M561.3,159.9c0.5,0,1-0.1,1.4,0.1c0.7,1.4,1.3,2.8,2.1,4.4c3.7-1.4,7.2-3,11.2-3c0,0.3,0,0.5,0,0.8   c-2.9,2.7-7.4,2.6-10.3,4.4l0,0c-0.5,0.2-1,0.4-1.5,0.7C563,164.9,561.6,162.6,561.3,159.9z" />
	<path fill="#2C221E" d="M480.2,11.6c-1.2,0.8-2.5,1-3.9,0.9c-2.9,1.9-5.7,4-8.8,5.7c-0.5-0.2-1.1-0.3-1.5-0.6c0-0.6,0-1.2-0.7-1.4   C468.7,11.6,474.8,9.8,480.2,11.6z M467.4,16.1c2.2-0.5,3.9-2,5.7-3.3C471.3,12.4,468.5,14.3,467.4,16.1c-0.1,0.2-0.8,0-0.3,0.6   C467.3,16.5,467.3,16.3,467.4,16.1z" />
	<path fill="#D0D1D0" d="M484.4,79.9c1.3-4.8,2.8-9,2.2-14.1c0.8,0.8,1.3,1.3,1.7,1.7c0.3,5.3-1.2,10.1-3.1,14.8   C484.8,81.5,485.4,80.5,484.4,79.9z" />
	<path fill="#261E1D" d="M576,162.1c0-0.3,0-0.5,0-0.8c4.2-2.8,8-6.1,11.7-9.7c0.3,0.3,0.5,0.6,0.8,0.9   C585.4,156.7,581,160.7,576,162.1z" />
	<path fill="#242221" d="M437.4,406.3c-0.1-0.6,0-1.2-0.7-1.5c1.5-2.9,3.2-5.7,4.4-8.8c0,0-0.1,0.1-0.1,0.1c0.6-0.7,1.1-1.5,1.7-2.2   c0.9-0.1,1.4,0.5,1.5,1.4C441.9,398.9,439.7,402.6,437.4,406.3z" />
	<path fill="#262221" d="M548.1,53.5c4.5,2.6-5,4.2-5.8,6.6c-0.2-2.1-3.1-1-2.9-3.3C542.2,56.4,547.1,56.6,548.1,53.5L548.1,53.5z" />
	<path fill="#433330" d="M517.2,4.5c1.1-0.1,2.2-0.1,3.1-0.9c3.1,1,6.6,1,8.9,3.6c-0.3,0.2-0.6,0.5-0.8,0.7c-0.7-0.2-1.3-0.5-2-0.7   c-0.4-0.7-1-0.7-1.7-0.7c-0.3-0.8-0.7-0.8-1.5-0.2c0.6,0.1,1.1,0.1,1.5,0.2c0,0.5,0,0.9,0,1.4c-1-0.5-2-0.9-2.9-1.4   c-0.2-0.4-0.4-0.8-0.6-1.1C519.8,5.2,518.5,4.8,517.2,4.5z" />
	<path fill="#504846" d="M529.8,380.5c0,1.1,0.4,2.3-0.9,2.9c0.1-0.8,0.2-1.6,0.4-2.5c-3.6-3.3-7.1-6.5-10.7-9.7   c0.4-0.1,0.8-0.1,1.2-0.2C522.8,374.3,528.2,376.4,529.8,380.5z" />
	<path fill="#242220" d="M363.3,439.2c0.1,0.6,0,1.3,0.8,1.5c-1.4,3.5-2.9,6.9-4.3,10.4c-0.3-0.5-0.5-1-0.8-1.6   C359.8,445.9,361.5,442.5,363.3,439.2z" />
	<path fill="#1F1614" d="M430.7,258.7c0.3,0.3,0.5,0.6,0.8,0.9c-1.9,3.4-4,6.7-5,10.4c-0.2-0.6,0-1.4-0.9-1.7   C425.9,264.5,428.4,261.6,430.7,258.7z" />
	<path fill="#3E3834" d="M461.7,78.6c-0.3-0.5-0.5-1.1-0.8-1.6c1.5-3.4,2.6-6.9,3.5-10.4c0.4,0.7-0.3,1.8,0.7,2.3   C464.7,72.4,463,75.4,461.7,78.6z" />
	<path fill="#362F2D" d="M519.8,371c-0.4,0.1-0.8,0.1-1.2,0.2c-2.1-1.7-4.3-3.5-6.4-5.2c0.3-0.3,0.5-0.6,0.8-0.8   C515.3,367.1,518.3,368.3,519.8,371z" />
	<path fill="#3D332F" d="M441.9,91.6c0.3-0.4,1-1.7,1.3-0.7c0.2,2,2.5,2.9,3.7,4.3c-1.1,0.4-0.1,1-0.1,1.5c-0.9,0.2-1.8,0.4-2.6-0.3   c0.1-0.2,0.3-0.4,0.4-0.6c0.2-0.1,0.4-0.1,0.6-0.2C443.9,94.7,443.1,92.9,441.9,91.6z" />
	<path fill="#818481" d="M451.9,97.6c1.1-0.2,2.2-0.4,3,0.6c-2.1,1-4.8,1.5-7.4,1.1C449.1,97.9,450.5,98.7,451.9,97.6z" />
	<path fill="#302A29" d="M444.1,394.8c-0.2-0.7-0.7-0.9-1.4-0.9c2.6-1.3,3.6-4,5.5-6.1c0.3,0.3,0.6,0.6,0.9,0.9c-1.5,2-3,4-4.4,5.9   C444.5,394.6,444.3,394.7,444.1,394.8z" />
	<path fill="#D5CDB1" d="M441.8,88.9c-0.4-0.1-0.8-0.2-1.2-0.3c-0.5-0.6-0.2-1.4-0.2-2.1c1.6,0.5,3.3,1.1,4.9,1.6   C444.3,88.9,443,88.8,441.8,88.9z" />
	<path fill="#685E5E" d="M435.2,87.2c-1.5-1-3.1-1.8-4.6-3.5c2.4-0.3,3.5,1.7,5.4,2.7C435.7,86.7,435.4,87,435.2,87.2z" />
	<path fill="#3D332F" d="M435.2,87.2c0.3-0.3,0.5-0.5,0.8-0.8c1.4,0.5,2.6,1.8,4.3,1.5c0.1,0.2,0.1,0.4,0.3,0.6   c-0.3,0.3-0.6,0.5-1,0.8C438.1,88.7,436.6,88,435.2,87.2z" />
	<path fill="#2B2727" d="M565.7,397.4c0.3,0.3,0.6,0.6,0.8,0.9c-0.3,1.6-1.9,2-2.9,3.1c-0.3-0.3-0.7-0.7-1-1   C563.7,399.3,564.7,398.3,565.7,397.4z" />
	<path fill="#2B2625" d="M406.7,382.2c-0.3-0.3-0.6-0.7-0.9-1c0.5-1.2,1-2.5,1.5-3.7c0.2,0.6,0,1.4,0.8,1.6   C408,380.3,407.5,381.4,406.7,382.2z" />
	<path fill="#2E2B2A" d="M600.2,162.8c-0.5,0-1,0-1.5,0c0.8-1.4,1.7-2.7,2.9-3.8c0.3,0.3,0.6,0.6,0.9,0.9   C601.7,160.9,601,161.8,600.2,162.8z" />
	<path fill="#332B28" d="M542.3,60.1c0.4-0.5,0.9-1,1.3-1.4c0,0.7,0,1.5,0.1,2.2c-0.4,0.7-0.9,1.5-1.4,2.2   C542.3,62.1,542.3,61.1,542.3,60.1z" />
	<path fill="#040303" d="M363.5,519.8c-0.3,0.3-0.7,0.6-1,0.9c-0.5,0-0.9,0-1.4,0l-0.2-0.2c-0.2-0.7-0.7-0.6-1.2-0.5l-0.2-0.1   C360.9,518.6,362.2,519,363.5,519.8z" />
	<path fill="#372F2F" d="M441.8,73.3c-0.8,0.3-0.7,1-0.8,1.6c-0.4-0.3-0.8-0.6-1.2-1c0.2-0.5,0.3-1,0.5-1.4   C441,71.9,441.2,72.1,441.8,73.3z" />
	<path fill="#8B8786" d="M440.2,72.5c-0.2,0.5-0.3,1-0.5,1.4c-0.9-0.1-1.4-0.7-1.6-1.7C438.9,72.3,439.5,72.4,440.2,72.5z" />
	<path fill="#66645E" d="M455.6,83.7c0.7,0,1.4,0,2.2-0.1c-0.3,1.2-1,1.5-2.1,1.2C455.6,84.5,455.6,84.1,455.6,83.7z" />
	<path fill="#F6D9C7" d="M588.4,136.4c-0.2,0.8-0.3,1.6-0.5,2.4C587.7,137.9,587.4,137,588.4,136.4z" />
	<path fill="#1F1614" d="M425.6,268.3c0.1,0.8,0.4,1.7-0.6,2.3C424.8,269.7,425,269,425.6,268.3z" />
	<path fill="#F6D9C7" d="M562,157.1c-0.2-0.6-0.3-1.1-0.5-1.7C562.2,155.8,562.1,156.4,562,157.1z" />
	<path fill="#F6D9C7" d="M562.8,159.9c-0.2-0.1-0.3-0.1-0.5-0.1c0-0.5,0-0.9,0-1.4C562.9,158.7,562.9,159.3,562.8,159.9z" />
	<path fill="#F7EFD0" d="M418.1,462.7c0,0.2,0,0.5-0.1,0.7c-0.2-0.1-0.4-0.1-0.5,0.1c-0.2,0-0.5-0.1-0.7-0.1   C417,462.8,417.6,462.7,418.1,462.7z" />
	<path fill="#332B28" d="M543.9,63.4c0-0.7,0-1.4,0-2.1C544.6,62,544.6,62.7,543.9,63.4z" />
	<path fill="#353E39" d="M312.5,539.8c0.9,0.1,1,0.6,0.9,1.3C313.1,540.7,312.8,540.3,312.5,539.8z" />
	<path fill="#372F2F" d="M441.7,75.6c0.2,0.2,0.5,0.5,0.7,0.7C442.2,76.1,441.9,75.9,441.7,75.6z" />
	<path fill="#372F2F" d="M443.9,75.6c-0.2-0.2-0.4-0.4-0.7-0.6C443.4,75.1,443.6,75.3,443.9,75.6z" />
	<path fill="#2C221E" d="M464.5,16.9c-0.2,0.2-0.4,0.5-0.7,0.7C464.1,17.3,464.3,17.1,464.5,16.9z" />
	<path fill="#372F2F" d="M441,74.9c0.2,0.2,0.5,0.5,0.7,0.7C441.4,75.4,441.2,75.1,441,74.9z" />
	<path fill="#2C221E" d="M465.2,16.1c-0.2,0.2-0.5,0.5-0.7,0.7C464.8,16.6,465,16.4,465.2,16.1z" />
	<path fill="#372F2F" d="M444.7,76.2c-0.3-0.2-0.5-0.4-0.8-0.6C444.2,75.8,444.5,76,444.7,76.2z" />
	<path fill="#372F2F" d="M443.1,74.8c-0.2-0.2-0.4-0.5-0.6-0.7C442.7,74.4,442.9,74.6,443.1,74.8z" />
	<path fill="#372F2F" d="M442.4,74.1c-0.2-0.3-0.4-0.5-0.7-0.8C442,73.6,442.2,73.8,442.4,74.1z" />
	<path fill="#2E2B2A" d="M599.5,165c0.2-0.3,0.3-0.5,0.5-0.8C599.9,164.5,599.7,164.8,599.5,165z" />
	<path fill="#372F2F" d="M442.4,76.3c0.3,0.2,0.5,0.5,0.8,0.7C442.9,76.8,442.7,76.6,442.4,76.3z" />
	<path fill="#2B2625" d="M405.8,381.2c-0.2,0.3-0.3,0.6-0.5,0.8C405.4,381.8,405.6,381.5,405.8,381.2z" />
	<path fill="#3E3834" d="M460.7,77.5c-0.2,0.3-0.4,0.6-0.6,0.9C460.3,78.1,460.5,77.8,460.7,77.5z" />
	<path fill="#3E3834" d="M460.1,78.4c-0.2,0.2-0.5,0.5-0.7,0.7C459.6,78.9,459.9,78.7,460.1,78.4z" />
	<path fill="#3E3834" d="M459.4,79.2c-0.3,0.2-0.6,0.4-1,0.6C458.7,79.6,459,79.4,459.4,79.2z" />
	<path fill="#F6D9C7" d="M611.2,129.9c-0.3-0.3-0.6-0.5-0.9-0.8C610.6,129.4,610.9,129.6,611.2,129.9z" />
	<path fill="#F6D9C7" d="M609.6,128.6c-0.2-0.3-0.3-0.7-0.5-1C609.3,127.9,609.4,128.2,609.6,128.6z" />
	<path fill="#E1C7B6" d="M444,224.6c0.2,0.2,0.4,0.3,0.6,0.5C444.5,224.9,444.2,224.7,444,224.6z" />
	<path fill="#3D332F" d="M441,90.2c0.2,0.3,0.4,0.6,0.7,0.9C441.5,90.8,441.2,90.5,441,90.2z" />
	<path fill="#E9D6B7" d="M444.8,95.4c0.2,0.1,0.4,0.2,0.6,0.4c-0.2,0.1-0.4,0.1-0.6,0.2C444.7,95.7,444.7,95.5,444.8,95.4z" />
	<path fill="#E1C7B6" d="M445.5,225.9c0.2,0.2,0.3,0.4,0.5,0.7C445.8,226.3,445.7,226.1,445.5,225.9z" />
	<path fill="#F6D9C7" d="M444.1,394.8c0.2-0.1,0.4-0.1,0.6-0.1c-0.2,0.2-0.3,0.4-0.5,0.6C444.1,395.1,444.1,394.9,444.1,394.8z" />
	<path fill="#3D332F" d="M440.1,89.6c0.3,0.2,0.6,0.4,0.9,0.6C440.7,90,440.4,89.8,440.1,89.6z" />
	<path fill="#353E39" d="M314.2,541.2c0,0.3-0.1,0.5-0.1,0.8c-0.2-0.3-0.4-0.6-0.6-0.9C313.7,541.1,313.9,541.1,314.2,541.2   L314.2,541.2z" />
	<path fill="#F6D9C7" d="M444.8,394.5c0.2-0.3,0.4-0.5,0.6-0.8C445.1,394,444.9,394.2,444.8,394.5z" />
	<path fill="#E1C7B6" d="M600.2,160.5c-9.7,14.4-21.7,26.9-35.4,37.5c-5.1,3.8-11-1.4-15.1-4.5c-15.3-17.8-18.8-42.2-31.1-61.7   c-0.5,0.2-0.8,0.4-1.3,0.7c0.9,2,1.9,3.9,2.8,5.8c-1.4,2.3-2.5,4.4-3.4,6.8c-4.8,3.8-9.1,3.3-14.6,1.3c-0.1-0.2-0.2-0.3-0.2-0.5   c3.7-5.7,7.1-11.3,11.9-16.2c0.2-1-0.6-3,0.8-3.6c0,0.6,0.1,1.1,0.1,2c1-1.1,0.5-1.5-0.1-2c0.4-13.1,21.6,3.5,25.4,8.5   c-2.8,2.1-6.6,0.4-9.7,0.4c7.1,17.7,12.5,35,23.5,50.8c-0.2-2.5-0.4-4.2-0.5-5.9c5.4,2.1,7,7.5,10.6,11.4   c13.8-6.7,23.3-20.2,31.5-32.5c1.7-4.5,2.7-9.8,7-12.7c0.1,2.1,0.2,3.8,0.2,5.8c-0.9,0.6-1.8,1.1-1.4,2.3c-0.3,1.1-1.7,1.9-1.6,3.4   c-0.8,0.4-1.1,1.1-1,2.1c0.3,0,0.7,0.1,1,0.1C599.7,160.1,599.9,160.3,600.2,160.5z M559.9,191.5c-0.7-1.6-0.8-3.1-2.6-3.3   C556.7,190.4,556.9,190.7,559.9,191.5z M516.7,131.4c0.2-0.2,0.4-0.3,0.7-0.5c-0.4-0.5-0.7-1-1.3-1.9   C515.8,130.4,515.8,130.5,516.7,131.4z M596.4,163.2c0-0.6,0-1.1,0-1.8C595.3,162.5,595.3,162.5,596.4,163.2z" />
	<path fill="#0E0C0A" d="M490.3,116.6c-1.4,6.8-1.7,13.6,0,20.4c-0.1,0.6,0,1.3-0.8,1.6c-5.2-12.2-1.9-28.5,5.1-39.6   c0.3,0.3,0.6,0.7,0.9,1C493.3,105.4,490.6,110.7,490.3,116.6z" />
	<path fill="#DBC0AF" d="M600.2,160.5c-0.2-0.2-0.5-0.4-0.7-0.6c0.2-0.7,1.4-1.5,0-2.2c0.1-1.2,0.4-2.2,1.5-2.9   c0.1,0.4,0.2,0.8,0.4,1.4c1.1-1.4,2.2-2.4,1.6-4.1c0.5,0.3,0.9,0.6,1.5,1c3.9-3.1,6.4-7.4,9.8-11.3c0-1.2,0-2.5,0-3.9   C618.1,145.6,604.6,155.1,600.2,160.5z" />
	<path fill="#DDC4B4" d="M490.3,116.6c0-2.1,0.4-4.1,1.3-6c1.3,1.1,3.5-0.1,5.3,0c0.9,0.9,3.6,2.9,1.2,3.7c-0.5-1-1.2-1-2.2,0   c0.9,0,1.5,0,2.2,0c-1.5,2.4-1.5,2.4-4.7,3.9C492.4,117.6,491.4,117.1,490.3,116.6z" />
	<path fill="#3D302D" d="M502.4,110c1.1-2.6,5-5.5,7.1-3.2C507.3,107.8,505.2,108.7,502.4,110z" />
	<path fill="#3B332F" d="M598.7,126.1c2.2,1.8,2.1,2.7,0,4.9C597.9,128.4,597.9,128.4,598.7,126.1z" />
	<path fill="#2A231D" d="M495.5,100c-0.3-0.3-0.6-0.7-0.9-1c0.8-1.8,2-3.3,3.6-4.5c0.3,0.3,0.6,0.6,0.9,1   C497.9,96.9,496.7,98.5,495.5,100z" />
	<path fill="#312A23" d="M489.4,138.6c0.8-0.2,0.7-1,0.8-1.6c1,1.5,1.9,3,2.9,4.5c-0.3,0.3-0.6,0.5-0.9,0.8   C490.9,141.4,489.9,140.2,489.4,138.6z" />
	<path fill="#403A36" d="M519.5,109.6c2.9-1.5,1.9,2.1,2,4C520.2,112.3,519.4,111.2,519.5,109.6z" />
	<path fill="#493B30" d="M492.3,142.3c0.3-0.3,0.6-0.5,0.9-0.8c1.5,1,2.9,2,4.4,3c-0.3,0.2-0.5,0.5-0.8,0.7   C495.1,144.5,493.4,143.9,492.3,142.3z" />
	<path fill="#434741" d="M564.3,167.2c0.5-0.2,1-0.4,1.5-0.7c0.2,1.8,0.4,3.7,0.6,5.6C563.9,171.4,565.6,168.8,564.3,167.2z" />
	<path fill="#8A7860" d="M496.7,145.3c0.3-0.2,0.5-0.5,0.8-0.7c1.4,0.5,2.9,1,4.3,1.5c0.1,0.2,0.1,0.4,0.2,0.5   c-0.3,0.3-0.6,0.6-0.9,0.9C499.7,146.7,498.2,146,496.7,145.3z" />
	<path fill="#41322E" d="M602.9,151.9c0.7,1.7-0.5,2.7-1.6,4.1c-0.2-0.6-0.3-1-0.4-1.4c0.1-0.1,0.2-0.3,0.1-0.5   c0.4-0.8,0.6-1.8,1.4-2.3C602.6,152,602.8,152,602.9,151.9z" />
	<path fill="#291F1D" d="M524.1,96.8c-1.5,1.1-2.4,1.8-3.4,2.5c-0.4-0.2-0.7-0.4-1-0.6C520.5,96.8,521.9,96.6,524.1,96.8z" />
	<path fill="#3F2D2A" d="M518.6,107.9c-1.3-1-2.7-1.7-1.8-3.6C518.6,105,518.6,106.3,518.6,107.9z" />
	<path fill="#4F4641" d="M604.2,129.1c0.3,0.1,0.6,0.1,1.1,0.2c-0.3,0.8-0.6,1.6-1.1,2.8C603.7,130.8,603.5,130,604.2,129.1z" />
	<path fill="#B8A194" d="M599.1,136.1c-0.9-0.7-0.9-0.7-0.6-1.7C599.3,134.9,599.3,134.9,599.1,136.1z" />
	<path fill="#403733" d="M521.4,115.6c1.3,0.8,1.3,1.5,0.8,2.3C521.2,117.5,520.7,116.9,521.4,115.6z" />
	<path fill="#404540" d="M603.8,136.2c-0.1,0.3-0.3,0.6-0.4,0.9c-0.2-0.1-0.4-0.2-0.5-0.3c0.2-0.3,0.4-0.5,0.6-0.8   C603.6,136,603.7,136.1,603.8,136.2z" />
	<path fill="#594843" d="M564.8,173.8c1.1,0.2,1.9,0.2,1.4,1.2C565.4,175.3,565.5,174.5,564.8,173.8z" />
	<path fill="#434741" d="M565.8,166.5c0.2-0.9,0.9-0.8,1.6-0.7C566.8,166,566.3,166.3,565.8,166.5z" />
	<path fill="#281311" d="M501.1,111c0.7-0.3,1-0.6,1.5,0.1C502,111.4,501.7,111.7,501.1,111z" />
	<path fill="#4D3B38" d="M604.2,132.8c0.6,0.5,0.3,0.7-0.1,1.2C603.7,133.5,603.8,133.2,604.2,132.8z" />
	<path fill="#8F8177" d="M592.1,134.2c-0.1,0.1-0.3,0.2-0.4,0.3c-0.1-0.3-0.3-0.7,0.1-0.9C591.9,133.8,592,134,592.1,134.2z" />
	<path fill="#9B7D74" d="M598.4,132.1c0.1,0.1,0.2,0.2,0.2,0.3c-0.1,0.1-0.2,0.1-0.2,0.2C598.4,132.4,598.4,132.3,598.4,132.1z" />
	<path fill="#FF9A77" d="M467.4,234.6c14.2,4.3,28.9,10.8,38.2,22.8c-1.2,9.2-5.4,17.9-6.8,26.4c1.1-2.1,1.6-3.8,2.3-5.9   c0.5-0.2,1-0.5,1.4-0.7c1.8,6.1,4.7,11.1,8.9,15.9c-4.7,7.6-12.4,14-19.8,19.1c-0.9-4.8,3.8-9.4,2.8-13.8c0.9-3,2.8-5.2,2.7-8.5   c-5,8.7-6.4,17.6-10.2,27c-12.5-4.9-26.1-7.8-39.5-10.3c0.2-1.9-0.2-3.8,0.3-5.7c3-0.6,5.3,0.6,7.9,1.6c0.2,1.7-0.7,3.6,0.9,4.6   c2.1-1.9,1.2-5.1,2-8c-0.6,0.4-1,0.6-1.4,0.9c-2.5-0.1-4.8-0.6-7.5-2.2c4.6-0.2,8.7,0.1,13-0.2c-2.4-2-5.2-0.7-7.5-1.6   c-2.4-1-5.1,0.3-7.6-1c0.1-1.2,0.1-2.4,0.2-3.7c2.6-0.4,5-0.8,7.8-1.3c-2.7-0.5-4.9-1-7.3-1.5C446.4,268.1,461.6,252.6,467.4,234.6   z M466,274.3c1.3,0.4,2.3,1.8,3.6,0.9c-1.6-2.2-4.4-1.8-6.3-3.5c-0.9,0.7-1.2,1.4-0.6,2.4C463.9,273.2,464.9,273.7,466,274.3z    M468.1,254.4c-1.3,1.6-1.4,3.6-1.7,5.6c1.2-3.6,10.2-17.1,7.8-18.6C471.8,245.6,469.9,250,468.1,254.4z M456.1,287.1   c3.6,0.6,6.4,2.1,9.5,2.6C464.8,287.2,459,286.5,456.1,287.1z M467,270.3c0.1-0.2,0.2-0.4,0.3-0.7c-1.5-1.4-3.3-1.7-5.8-1   C463.7,269.3,465.4,269.8,467,270.3z" />
	<path fill="#F6D9C7" d="M392.5,148.7c14.2-14.9,30.9-28,50.8-34.2c2.1-3.8,6.4-4.9,9.6-7.4c0.6,0,1.1,0,2,0.1   c-0.9,1.3-1.7,2.2-1.5,3.5c-4.4,5.7-0.9,13,0,19.4c-1.9,2-3.4,4.4-6.6,4.9c-10.8-6.8-24.2,8-35.8,10.6c-1.1,0.5-2.5,0.9-2.7,2.7   c5,1.9,9.8,0.1,14.9-0.6c-5.1,4.6-5.1,4.6-6.4,7.8c-0.6,0.3-1.2,0.7-2.5,1.3c2.1,0.3,3.4,0.6,4.7,0.8c7.7,9.3,12,21.1,18,30.8   c5.4,6.3,9.3,14.4,14.7,20.1c0.4,0.5,0.8,0.7,1.1,0l0,0c3.7,1.4,8.3,0.4,11.2,3.6c-0.8,2.7-1.4,5.5-3.1,8.1   c-1.8-0.5-3.5-1.1-5.3-1.6c-1.6-1.9-3.4,0-4.5,1.4c0.2,1.2,0.4,2.3,0.6,3.9c-6.5-4.9-10.6-11.8-13.6-19.3   c-3.9-5.4-9.5-9.5-13.3-14.9C412.5,176,399,166.8,392.5,148.7z M398.9,154.7c-0.4-1.7-0.1-3.4-1.9-4.7   C395.8,151.8,396.8,153.8,398.9,154.7z M412,156.2c1-0.1,1.3-0.2,1.7-0.3C413.9,155.2,413,155.1,412,156.2z" />
	<path fill="#F6D9C7" d="M477,236.7c-2.8-1.7-5.7-3.2-8.9-4.3c11.3-13.5,19.3-29.8,21.3-47.6c1.7,0.3,3.4,0.5,5.1,0.8   c0.1,0.3,0.3,0.7,0.4,1c-5.1,4.1,8.1,19.7,5.6,9.2c-0.2-0.8-0.4-1.7,0.6-2.2c0.4,0.2,0.8,0.3,1.8,0.7c-1.5-1.4-0.5-3.2-2.5-2.9   c-1.8-1.1-1.6-3.4-3.6-4.8c2.2-0.6,4.4-0.6,6.6,0.3c0.1,2.9,2.3,4.3,4.1,5.9c1,0,1.8,0,2.6,0c-0.3-0.3-0.5-0.6-0.8-0.9   c1-0.3,1.9-0.7,3-1.1c-0.5-0.5-0.8-0.7-1-0.9c-0.2,0-0.5,0-0.7-0.1l0.1,0.1c0.2-0.6,0.4-1.1,0.6-1.8c5.6,0.7,10.9,2.4,16.7,3.6   c-0.9,7.6-2.4,15.3-7.8,21c-7.9,12.4-9.6,27.8-13.4,42C498.6,246.2,488.8,239,477,236.7z M505.6,244.5c3-1.8,3-8.8,1.7-11.5   C506.7,236.9,506.1,240.7,505.6,244.5z M505.7,227.2c0.1,1.1,0.1,1.9,0.2,3C506.9,228.8,506.9,228.8,505.7,227.2z M503.9,218.6   c-1.4,0.9-1.1,1.4,0.1,1.9C504,219.8,503.9,219.2,503.9,218.6z M513.3,193.5c0.7-0.7,0-1.8-0.9-1.1   C512.1,193.2,512.7,193.4,513.3,193.5z M503.2,215.2c-0.2,0-0.3,0-0.5,0c0,0.6,0,1.1,0,1.7c0.2,0,0.3,0,0.5,0   C503.2,216.4,503.2,215.8,503.2,215.2z M505,225.1c1-0.8,0.7-1.4-0.2-1.9C504.9,223.9,504.9,224.4,505,225.1z" />
	<path fill="#F6D9C7" d="M542.3,60.1c0,1,0,2,0,2.9c-0.3,0.2-0.6,0.4-0.8,0.7c0,0,0,0,0,0c-1.1,0-2.2-0.1-3.1,0.7   c-0.4,0-0.8,0.1-1.3,0.1c-0.3,0.2-0.5,0.5-0.8,0.7l0,0c-0.5,0.3-0.5,0.5,0.1,0.8c0.5,0.9,1.4,0.5,2.1,0.6c0.8,1,2.4,1.5,2.2,3   c-2,2.7,0.8,6.2-1.5,8.8c-10,1.5-19.1-3-27.8-7.3c-1.6-3.6-3.4-7.3-5.3-10.9c-1.3-0.1-2.5-0.1-3.7-0.2c0-1.1,1.7-1.4,0.1-2.1   c-1.4-0.5-1.7,0.5-2.2,1.4c-0.4-1-1.3-1.8-1.5-2.8c0.2-0.3,0.5-0.5,0.7-0.8c1.4,2,1.9-1.6,3.2-2.4c-0.5-0.7-0.9-1.1-1.2-1.5   c0.5-0.9,1-1.8,1.5-2.6c-0.5-0.7-0.8-1.1-1.2-1.6c0.2-0.2,0.5-0.5,0.7-0.7c0.2,0.1,0.5,0.1,0.7,0c0.9,0.6,2.4,1.7,3.1,0.2   c1-0.3,1.8-1,0.6-1.6c0.7-1.7,2.2-2.8,3.4-4.1c-3.2-0.4-3.1-1.5-1.3-3.9c0-0.5,0-1.1,0.1-1.6c0.3-0.2,0.5-0.5,0.8-0.7   c1.6-0.1,1.8-2.1,3-2.9c0.7-0.4,1-0.8,0.1-1.6c-0.4,2.3-2.9,4.5-3.6,1.1c1.4-0.2,7.8-6.7,5.6-5.4c-0.7,0.2-1.4,0.6-2,0   c0-0.4,0-0.8,0-1.2c1.1-1.1,3.4-1.7,3.9-3c-0.5-0.5-1-1.1-1.5-1.7c0.2-0.2,0.3-0.4,0.5-0.6c0.2,0,0.5,0.1,0.7,0.1   c1,1.1,2.8,0.5,4.3,1.1c0-0.5,0-0.8,0-1.2c1.3-0.2,3.8,0.6,3.8-1.3c2,0.4,1.2-0.6,0.7-1.7c1.7,0.2,3.3,1.6,5.3,0.2   c-0.3-0.5-0.6-1-0.9-1.4c0-0.3,0-0.6,0.1-0.9c0.7,0.7,1.3,1.3,2.1,2.2c0.3-0.1,0.7-0.2,1.3-0.3c0.8,0.4,1.8,1,3,1.6   c2.8,5.5,3.3,11.5,5.3,17.5c-3.2,4.8,2.2,15.8,6.7,17.8c-1.1,3.1-6,2.9-8.8,3.4C539.2,59.2,542.1,58.1,542.3,60.1z M537.8,40.2   c1-1,1-1,1-2.2c-3.4,2-8.3,2.5-10.5,6c0.6,0.8,1.4,0,2.2-0.1c1,1.6,3.3,3.5,5.3,2.6c-0.4-0.5-0.6-0.8-0.9-1.1   C535.9,43.7,535.9,41.1,537.8,40.2z M528.9,35.1c4.1,0.8,7.5-0.9,11.3-0.6C537.5,32.3,534.9,32.4,528.9,35.1z" />
	<path fill="#FFF0A7" d="M496.7,145.3c8.7,5.8,18.7,5,28.2,2c2.2,7.6,5.5,14.6,7.8,22.1c-1.1,1.5-2.1-2-3.7,0c0,1.2,0,2.5,0,3.8l0,0   c-2.2,2.8,0.1,8,1.5,11.1c-0.3,2-0.2,4.2-2.1,5.9c-12.9-4.4-26.4-6.3-39.8-8.4c-0.4-0.4-0.9-0.8-1.5-1.3c-0.7-15.3-0.3-30.6-1.3-46   c0.5-4-4.1-10.2,0.6-12.4C485.9,130.7,487.5,141.7,496.7,145.3z M511.5,152.1c-1.4-0.1-1.4-0.1-1,1.1   C510.8,152.8,511.1,152.5,511.5,152.1z M505.8,156.4c-0.2,0.2-0.1,0.3,0.1,0.5c0-0.2,0.1-0.3,0.1-0.5   C506,156.4,505.9,156.4,505.8,156.4z" />
	<path fill="#EBDA8F" d="M487.2,132.7c-1.5-3.3-0.4-7.1-0.7-10.7c-4.7,2.1-0.1,8.4-0.6,12.4c1.1,15.3,0.7,30.7,1.3,46   c0.6,0.5,1,0.9,1.5,1.3c-6.6-1.4-13-2.8-19.7-4.3c-0.1-10.1-3.8-19.6-5.9-29.5c0.4-0.5,0.8-0.9,1-1.2c-0.2-16.6-0.2-35.9,10.5-49.3   c1.8,1.4,2.4,3.4,4.5,4.5c1.1,1.3,0,2.8,0,4.4c-0.8,0.2-0.7,0.9-0.7,1.5c-0.5,0.2-1,0.5-0.2,1.1c0.1-0.4,0.1-0.8,0.2-1.1   c0.8-0.2,0.7-0.9,0.7-1.5c0.8-1.1,2.1-2,2.2-3.6l0,0c0.2,0,0.5,0,0.7,0c0.4,3.6-1.4,7-1.4,10.7c3.2,0,4.9-3,7.9-1.3   C487.3,119,486.9,125.8,487.2,132.7z M474.4,121.5c-2.1,1.2-0.7,2.9-0.9,4.3C474.4,124.6,475.2,123.3,474.4,121.5z M475.8,115.2   c-0.6,0.7-1.3,2.5,0.3,2.4c0.2-0.6,0.5-1.2,0.8-1.9C476.5,115.5,476.2,115.3,475.8,115.2z" />
	<path fill="#E1C7B6" d="M489.5,184.8c-2,17.7-10,34-21.3,47.6c-3.2-0.1-6.4-0.5-9.5-1.4c0-0.5,0-1-0.1-1.6   c9-14.6,10.8-32.7,10.4-49.7C475.9,181.5,482.6,183.3,489.5,184.8z" />
	<path fill="#E1C7B6" d="M392.5,148.7c6.5,18.2,19.9,27.3,32.4,40.9c3.8,5.5,9.4,9.5,13.3,14.9c3,7.5,7.1,14.3,13.6,19.3   c-0.2-1.6-0.4-2.7-0.6-3.9c1.1-1.4,2.9-3.3,4.5-1.4c-0.7,0.1-1.4,0.1-2.5,0.3c1.8,2.9,5,2.2,7.2,3.8c-0.9,2.8-3.2,4.8-3.2,7.7   c-4.2,0.2-7.5-3.9-11.2-5.6c-3-2.6-3.5-7.1-5.3-10.6c-7.5-10.4-20.3-16.5-29-26.3c-9.3-9.7-16.6-21.5-22.4-33.6   c0.1-0.7,0.3-1.5,0.4-2.3C390.6,150.7,391.6,149.7,392.5,148.7z M455.7,225.1c-1.7,1.3-1.7,1.4-1.8,2.8c1.3-1.3,5.9-2.9,4-5   C457.1,223.6,456.4,224.3,455.7,225.1z" />
	<path fill="#E1C7B6" d="M502.5,60.1c1.2,0.1,2.4,0.1,3.7,0.2c1.8,3.6,3.7,7.3,5.3,10.9c-3.7-1.9-4.4-5.3-5.7-9   c-2.2,6.7,7.1,14.9,12.4,11.9c3.3,2.5,8,2.8,11.6,4.3c-7.8-0.7-7.2,7.7-10.3,12.5c0.2-1.4-4.4-4.5-5.2-3.6c-0.6-0.9-1.1-1.8-1.9-3   c-0.2,0.8-0.2,1.1-0.3,1.4c-0.8-1.9-2.5-3.2-2.8-5.2c0.4,0.3,0.7,0.6,1.1,1c0.3-0.2,0.6-0.4,0.9-0.6c-0.6-0.9-1.2-1.4-2-0.4   c-4-3.4-5.4-9.3-8.1-13.9c-0.5,0.1-0.9,0.3-1.3,0.4c-0.6,7.2-4.9,12.7-8.3,18.7c0-0.9,0.6-1.9-0.3-2.7c-1,0.8-1.7,2.4-0.5,3.4   c0,0.8,0.4,1.7-0.5,2.3c-0.2-0.2-0.5-0.3-0.6-0.5c-1.1,1.7-2.9,2.8-3.4,4.6c0.4,0.1,0.7,0.2,1,0.3c-1.1,1.1-2.1,2.3-3.1,3.4   c0.6,0.6,1.1,1.2,1.7,1.7c-0.5,0.2-1,0.5-1.5,0.8c-0.1-0.7-0.2-1-0.4-1.8c-0.8,0.9-1.4,1.6-2,2.3c-3.1,0.2-3.4,0-4.2-3.6   c10.3-4.2,11.3-16.3,12.7-26.1c0.2-0.1,0.6-0.3,1.1-0.6c0-0.4,0.1-0.7,0.1-1.1c1.9-1.2,3.6-2.5,5.2-4.1c0-1.7,0-3.2,0-4.7   c0.2,0,0.5,0,0.7,0c0.6,0.7-0.5,1.9,0.9,2.2C499.9,63.2,501.4,61.3,502.5,60.1z M492.5,79.7c-0.5-0.2-0.8-0.3-1-0.4   C490.8,80.5,491.8,80.9,492.5,79.7z M491.5,77.1c0.5-0.6,1.1-0.9,0.5-1.4C490.9,75.8,490.9,76.1,491.5,77.1z" />
	<path fill="#E1C7B6" d="M416.8,155.4c1.4-3.2,1.4-3.2,6.4-7.8c-5.1,0.7-9.9,2.5-14.9,0.6c0.2-1.8,1.6-2.2,2.7-2.7   c9.5-3.4,18.1-9.5,27.9-12c0,0.2-0.1,0.4-0.2,0.6c-0.8,0.5-1.6,1-1.3,2.4c1.8-1.5,4.1-1.6,5-3.8c1.8,0,3,1.4,4.4,2.2   c3.1-0.5,4.7-2.9,6.6-4.9c-1-6.4-4.4-13.7,0-19.4c1.4,8.8,2,17.5,4.5,26.1c-10.5,3.5-20.2,9.3-30.3,13.6   C424.8,153,420.7,155.7,416.8,155.4z M430,140.6c0-0.1,0-0.2,0-0.3c-0.4,0-0.7,0-1.1,0c0,0.1,0,0.2,0,0.3   C429.2,140.6,429.6,140.6,430,140.6z M433.3,138c0,0.2,0,0.3,0,0.5C434.5,138.5,434.6,138,433.3,138z" />
	<path fill="#F6D9C7" d="M490.3,88.7c0.9-0.6,0.6-1.5,0.5-2.3c0,0,0,0,0,0c4.2-5.7,8.2-12.1,9.1-19.4c0.4-0.1,0.8-0.2,1.3-0.4   c2.7,4.6,4.1,10.5,8.1,13.9l0,0c0.3,2,2.1,3.3,2.8,5.2c0.9,1,0.1,2.9,2.1,3.7c0.1-0.8,0.1-1.5,0.2-2.1c1-1.4,8.2,4.4,3.6,4.1   c-11.6-2.9-22.3,1-32.2,6.8c-0.6-0.6-1.1-1.1-1.7-1.7C486.1,93.9,489.5,92.1,490.3,88.7z" />
	<path fill="#D6BFA0" d="M465.1,90.1c-5,0.3-10.9,1.7-15.5,0.3c0.3-0.3,0.7-0.6,1.1-0.9c9.5-0.7,22.5-7.1,24.5-16.8   c-1.7,1.2-3.3,3.3-5.6,4.1c2.3-6,2-11.4,2.6-17.7c2.4,6.3,5.3,11.1,6.5,17.5c1.9-6.5-1.7-13.7-0.3-19.4   c7.8,12.5-0.2,30.6-13.1,36.1c0-2,5.2-3.7,2.8-4.8c0.6-1.8,1.9-3.4,2-5.3c-1.8,2.3-3.9,4.1-6,6c0.6,0.1,0.9,0.2,1.2,0.3   C465.3,89.7,465.2,89.9,465.1,90.1z" />
	<path fill="#DFC5B5" d="M453.5,111.5c-0.4-1.7,0.2-2.8,1.4-4.3c-0.9,0-1.4,0-2-0.1c3.6-1.9,8.3-2.4,12.3-2.9   c-0.7,0.4-1.4,0.8-2,1.2c-2,5.2-1.9,9.8-0.7,15.4c0.5-0.9,0.9-1.4,1.3-2c-1.1,6.1-0.1,12.7-2.3,18.5c-6.1-7.6-2-19.1-6.7-26.6   C454.3,111,453.9,111.2,453.5,111.5z" />
	<path fill="#FDEFA6" d="M488.7,112.2c-3-1.7-4.7,1.3-7.9,1.3c0-3.9,1.7-7.5,1.4-11.4c5.2-0.1,14.4-9.6,16-7.6   C493,99,490.7,105.8,488.7,112.2z" />
	<path fill="#D1BB9C" d="M477,43.2c-0.7-4.7-2.4-8.3-1.3-13.4c2.8,6.5,5.1,12.2,11.5,15.8c0,0.6-0.1,1.1-0.7,1.3   c-2,4.5,9,5.2,5.4,10.9C488.4,54.5,481.1,43.7,477,43.2z" />
	<path fill="#E7D68D" d="M529.1,173.1c0-1.3,0-2.6,0-3.8c1.6-2,2.6,1.4,3.7,0c1.5,3.3,3,6.6,4.5,9.9c-1.6,2.5-4.4,3.2-6.6,5   C529.2,181.1,526.9,175.9,529.1,173.1c0,0.6-0.6,1.4,0.5,1.9c0.2-0.2,0.5-0.4,1-0.8C530,173.8,529.6,173.4,529.1,173.1z    M531.1,180.2c0.3-1.5,0.3-1.5-0.7-2.4C530.1,179.4,530.1,179.4,531.1,180.2z" />
	<path fill="#C5B194" d="M477.7,71.9c-2.2-4.3-3.4-8-5.5-12.7c-0.3,1-0.4,1.5-0.5,1.9c-0.4-2.5-2-5.1-0.6-7.5   c0.4,0.3,0.8,0.7,1.3,1.1c-0.6-4.4-1.7-8.6-1.3-12.9C474.9,51.4,478.1,61.4,477.7,71.9z" />
	<path fill="#130F0E" d="M457.2,230.2c0-2.9,2.3-5,3.2-7.7c-2.2-1.6-5.4-0.9-7.2-3.8c3.1-0.6,4.9,0.6,7.8,1.3   c1.6-2.7,2.2-5.4,3.1-8.1c-2.9-3.2-7.4-2.2-11.2-3.6c0.5-0.5,0.9-1,1.4-1.5c3.4,0.9,6.9,0.8,10.4,2.3c0.7-0.8,0.6-1.9,0.7-3   c0.2-0.1,0.4-0.2,0.6-0.3c0.3,0.3,0.5,0.6,0.8,0.9C464.5,214.8,463.9,224.7,457.2,230.2C457.2,230.3,457.2,230.2,457.2,230.2z" />
	<path fill="#E9D6B7" d="M466.7,91c-4.1,7.4-19.9,7.8-23.4-0.1c7.3,2,15.7,2.3,22.7-0.1C466.2,90.9,466.4,90.9,466.7,91z" />
	<path fill="#0E0A09" d="M486.5,44.8c-6.6-2.8-7.8-9.2-10.8-14.9c-0.4,2.9-0.6,5.1,0,7.4c-1.5,0.6-0.8,2.7-1,3.9   c-1.9-3.8,0.8-5.7-0.3-9.9c-0.2,0.1-0.3,0.3-0.5,0.4c-0.8-2.5-0.7-5-0.6-7.5c0.2,0,0.4,0,0.6,0c0.3,1.6,0.2,3.2,0.4,4.8   c2.9,0.4,4.6,2.7,7,4.1c-2.8,2.2,6.1,6.8,8.1,8c-0.3,0.3-0.5,0.6-0.8,0.9c-0.4-0.1-0.9-0.1-1.3-0.2c-1-0.8-2.2-1.2-4.4-1.5   c2.1,1.8,2.8,2.2,4.3,3.8C487,44.3,486.7,44.5,486.5,44.8z" />
	<path fill="#E1C8B7" d="M498.4,186.2c-0.4,0.1-0.9,0.2-1.6,0.4c1.2,1.2,2.2,2.4,2.5,4c0.8,0.7,2,1.7,1.8,3c-1,0.5-0.8,1.4-0.6,2.2   c2.5,10.5-10.7-5.2-5.6-9.2c-0.1-0.3-0.3-0.7-0.4-1C495.9,185.5,497.2,185.4,498.4,186.2z" />
	<path fill="#EED3C1" d="M463.7,118.8c-0.4,0.6-0.7,1.1-1.3,2c-1.1-5.5-1.3-10.2,0.7-15.4c1.9-0.9,2.7-2.5,5.1-2.6   C466.7,108.2,464.7,113.2,463.7,118.8z" />
	<path fill="#C8B496" d="M477,43.2c0.8,0.1,1.7-0.3,2.2,0.6c-0.3,0.2-0.6,0.4-0.9,0.6c3.4,5.6,8.6,9.8,12.8,14.8   c-0.3,0-0.7,0.1-1,0.1c-1.6-1.7-4.1-1.3-5.3-3.2c-1.8-1.4-3.4-6.2-5.7-5.8c0.5,0.8,0.9,1.6,1.4,2.4c-0.2,0.3-0.4,0.6-0.7,0.9   C478,50.6,477.3,46.8,477,43.2z" />
	<path fill="#CFB99B" d="M479.8,53.7c0.2-0.3,0.4-0.6,0.7-0.9c2.3,2.5,4.2,6.7,7.8,6.8c2.1,2.6,3.8,4.9,5.6,7.2   c-0.8,0.4-1.6,0.9-2.3,1.5c-1.9-3.5-4.6-6.1-8.5-7.4C481.8,58.6,480.5,56.3,479.8,53.7z" />
	<path fill="#C7B395" d="M474.1,35.9c-0.4,3.2,1,6.1,0.5,9.3c-4.4-6.1-3.6-15.1-2.8-22.4c0.2,0,0.5-0.1,0.7-0.1l0,0   C472.1,27.2,474.5,31.3,474.1,35.9z" />
	<path fill="#B9A78B" d="M482,75.5c1-2.9,1.4-5.8,1.2-8.9c4.9,7.6-2.4,16.8-7.7,22.1c-0.2-0.2-0.5-0.4-0.7-0.6   C477.5,84,481,80.4,482,75.5z" />
	<path fill="#DAC4B3" d="M511.4,189.9c0.2,0.2,0.5,0.4,1,0.9c-1.1,0.4-2.1,0.7-3,1.1c0.3,0.3,0.5,0.6,0.8,0.9c-0.8,0-1.7,0-2.6,0   c-1.7-1.6-3.9-3-4.1-5.9c1.9-0.1,3.8,0.1,5.5,0.8c0.6,0.8,1.2,1.6,1.8,2.3l-0.1-0.1c0.1,0.2,0.2,0.4,0.3,0.5   C511.1,190.3,511.3,190.1,511.4,189.9z" />
	<path fill="#362E26" d="M482,75.5c-1,4.9-4.6,8.5-7.3,12.7c0.3,0.2,0.5,0.4,0.7,0.6c-1.2,1.9-3.3,2.7-5.1,3.7   c-0.5-0.3-1-0.5-1.4-0.8c6.1-4.5,10.2-11.3,12.4-18.4C481.7,74,481,75,482,75.5z" />
	<path fill="#1B1614" d="M516.6,145.2c1-2.4,2-4.6,3.4-6.8c-0.9-1.9-1.8-3.9-2.8-5.8c0.5-0.3,0.8-0.4,1.3-0.7   c2.1,3.7,4.1,7.4,6.1,11c-0.3,0.3-0.6,0.7-1,1c-0.8-1-1.6-2-2.3-2.9C519.8,142.4,518.2,143.8,516.6,145.2   C516.5,145.2,516.6,145.2,516.6,145.2z" />
	<path fill="#D5C0AF" d="M516.5,145.2c1.6-1.4,3.3-2.8,5-4.2c0.7,0.9,1.5,1.9,2.3,2.9c0,0.4,0.1,0.7,0.1,1.2c-2.4,1-5,1.4-7.9,1.8   C516.3,146,516.4,145.6,516.5,145.2z" />
	<path fill="#2F2922" d="M471,33.8c1.4,3.6,0.9,8.8,3.7,11.5c0,0.4,0,0.9,0.1,1.1c-0.6,0.3-1,0.5-1.5,0.7   C472,42.8,468.8,38,471,33.8z" />
	<path fill="#23211C" d="M477.8,66.6c-0.5-2.9-1-5.8-1.5-8.8c1.1-0.5,0.3-1.7,1-2.7c0.4,0.8,0.8,1.4,1.1,2   C476.4,59.5,480.1,64.2,477.8,66.6z" />
	<path fill="#3E362A" d="M505.5,148.9c-1.6,0-3-0.7-4.4-1.5c0.3-0.3,0.6-0.6,0.9-0.9c1.7,0.5,3.5,1,5.2,1.5   C506.6,148.2,505.8,148,505.5,148.9z" />
	<path fill="#B3AD73" d="M479.2,106.3c0-1.6,1.1-3,0-4.4c0.9-0.3,1.5,0.5,2.2,0.7C481.3,104.3,480,105.2,479.2,106.3L479.2,106.3z" />
	<path fill="#AB7967" d="M500.5,277.9c0.4-1.3,0.5-2.6,1.4-3.7c0.5,0.9,1,1.8,0.7,3C501.9,277.5,501.3,278,500.5,277.9z" />
	<path fill="#E1C7B6" d="M465.9,205.8c-0.2,0.1-0.4,0.2-0.6,0.3c0-1-0.6-2.2,0.6-3C465.9,204,465.9,204.9,465.9,205.8z" />
	<path fill="#23211C" d="M476.2,57.3c-0.7-0.6-0.7-1.4-0.6-2.3C476.6,55.5,476.2,56.4,476.2,57.3z" />
	<path fill="#8D8D76" d="M483.2,63.6c-0.1,0-0.2-0.1-0.2-0.1c0.1-0.1,0.2-0.2,0.3-0.3c0.1,0.1,0.2,0.2,0.2,0.2   C483.4,63.5,483.3,63.6,483.2,63.6z" />
	<path fill="#130F0E" d="M452.9,208.4c-0.4,0.7-0.7,0.5-1.1,0C452.1,208.4,452.5,208.4,452.9,208.4z" />
	<path fill="#B3AD73" d="M482.2,102.1c0,0.2,0,0.4-0.1,0.6c-0.2,0-0.5,0-0.7,0C481.7,102.5,481.9,102.3,482.2,102.1z" />
	<path fill="#F7EFD0" d="M361.1,520.7c0.5,0,0.9,0,1.4,0c0.4,3.5-1.3,7.1-1.7,10.7c-2,1-5.1-1-6.3,1.6c1.8,1.9,4,1.4,6.4,1.3   c0.1,0.8,0.3,1.5,0.4,2.3c-1.7,1-3.9,0.4-5.2,2.3c0,0.5,0,1.2,0,1.9c1.8,1.2,3.8-0.2,5.5-1.1c0.6,1.5-0.1,2.7-0.5,4   c-1.4,0.2-2.7,0.4-4.1,0.6c-0.2,0.5-0.5,1-0.8,1.7c1.4,0.5,2.7,0.9,4.1,1.4c0,0.7-0.1,1.4-0.1,2.2c-1.1,0.5-2.1,1-3.1,1.4   c-0.2,2.2,1.5,1.6,2.4,2.1c1.7,6.5,4.7,11.4,11.2,13.8c0.5,3.3-1.9,5.3-1.5,8.6c-11.8,0.6-21.2-8.3-28.9-16.1c-3.6-3-2-7-1.9-11.1   c-1.3-2.2-3.5-2.6-5.5-2.9c-8.9-7.4-17.6-15.5-24.3-24.9c0.2-0.4,0.4-0.9,0.7-1.3c8-3.9,15.6-8.8,20.5-16.2c0,0.7,0,1.4,0.9,1.4   c5,2.9,2,8.6,3.6,13C340.3,524.7,353.4,525.7,361.1,520.7z" />
	<path fill="#EBDDB8" d="M309,519.2c-0.2,0.4-0.4,0.9-0.7,1.3c6.8,9.4,15.4,17.5,24.3,24.9c2,0.3,4.2,0.6,5.5,2.9   c-0.1,4.1-1.7,8.1,1.9,11.1c7.7,7.9,17.1,16.8,28.9,16.1c0.1-1.7-0.2-3,0.8-4.2c0,1.4,0,2.9,0,4.5c-16.4,2.3-33.1-9.6-38.9-24.8   c-3.2-2-6-4.8-9.3-6c-6.1-8.2-15.1-14.4-18.4-24C305.2,520.4,307.1,519,309,519.2z" />
	<path fill="#595B4F" d="M316.4,541.1c0.7,0.6,1.3,1.2,2.1,1.9c-1.2,0.5-1.7-0.2-2.2-0.7C316.3,541.9,316.4,541.5,316.4,541.1z" />
	<path fill="#353E39" d="M314.1,541.2c0-0.6,0-1.1,0-1.7c1-0.5,1.2,0.3,1.6,0.8c-0.3,0.3-0.6,0.6-0.9,0.9   C314.6,541.2,314.4,541.2,314.1,541.2L314.1,541.2z" />
	<path fill="#93927F" d="M314.8,541.2c0.3-0.3,0.6-0.6,0.9-0.9c0.2,0.3,0.5,0.5,0.7,0.8c0,0.4-0.1,0.8-0.1,1.2   C315.8,541.9,315.3,541.6,314.8,541.2z" />
	<path fill="#F6D9C7" d="M448.2,387.7c-2,3.2-4.8,5.4-7.2,8.3c0-0.7-0.1-1.3-0.1-2.2c-2.7,1.2-3.8,3.5-6,5.1   c-0.9-0.1-1.4,0.4-1.8,1.5c3.1-0.7,5.1-3.1,8-4.4c-4.4,10.8-14.8,20.7-24.5,26.3c-7.7,8.4-12.4,18.9-18.5,28.4   c-15.2,22.7-34.9,43.8-42.7,70.5c-5.5-0.1-13,1.5-17.1-2.6c0.8-1,1.5-2,2.2-3.1l0,0c9.2-13.8,16.6-29.3,24.1-44.2   c0.3-0.7,0.4-1.4-0.8-1.8c-2.9,2.3-4.5,5.2-8,7.1c6.1-12.8,11-25.3,17-38c6.9-15.2,24.7-23.4,29.6-39.4c7.7-6.5,7.8-17.3,14.5-24.5   c0.5,9.6-4.3,17.8-3.5,27.1c6.9-7.6,7.1-17.7,11.7-26.2c2.3-3.7,1.4-8.8,2.7-12.9c3.5-18.4,9.6-36.1,17.3-53   c14.2-0.2,28.2,4.1,41.4,9.4C478.6,343.9,462.2,365.7,448.2,387.7z M393.2,436.3c-1.4,2.1-1.4,2.1-1.3,3.8c2.7-4.5,7-8.6,8.2-13.4   C396.7,428.7,395.8,433.3,393.2,436.3z M388.3,444.5c0.7-0.6,1.6-1.1,1.7-2.4c-2.6,0-2.3,2.3-4,3.7   C387.4,445.8,387.9,445.2,388.3,444.5z M419.6,396.6c-1.2,2.3-2.8,4-2.7,6.7C419.4,401.9,420.3,399.4,419.6,396.6z M400.1,422.6   c1.9-1.2,2.5-3.8,1.7-6.1C400.3,419.5,400,420.2,400.1,422.6z M377.8,457.1c1.2-0.9,2.3-1.5,2.8-2.9   C378.2,454.2,378.2,454.3,377.8,457.1z M426,405.2c1.6-0.3,1.6-0.3,2.4-1.3C427.2,403.4,427.2,403.4,426,405.2z M425.3,384.4   c2.2-0.4,2.9-1.9,1.9-3C426.7,382.3,426.2,383,425.3,384.4z M422.2,393.5c1.2-0.6,1.6-1.3,0.9-2.4   C422,391.6,421.7,392.3,422.2,393.5z M429.6,402.4c0.4,0.4,1.1,0,1.6-0.1C431.5,401.1,429.7,401.3,429.6,402.4z M423.7,388.2   c1.2,0.2,1.2,0.2,0.8-1.2C424.2,387.5,424,387.9,423.7,388.2z" />
	<path fill="#F6D9C7" d="M565.7,397.4c-32.1,28.5-71.5,49.6-98.7,83.1c-6.3,0.5-10.4-4.8-15-8.2c0-0.9,0.1-1.8,1.1-2.3   c11.3-8.4,19.1-21,28.5-31.4c9.5-11,14-25.1,26.1-33.9c5.6-9.4,31.4-12.2,29-19.1c1.1-0.9,1.1-0.9,2.1,0.1l0,0   c-1.1,0.6-1,0.8,0,1.5c1,1.5,3.3,0.1,4.8,0.1c1.6,1.2,2.7,3.2,5,3.3c4.7-8.1-11.1-8.8-13.9-14.7c-12.2-14.4-25.2-28.4-34.7-45   c-2.8-5-5.3-10.1-9.8-13.6c0.1-0.2,0.1-0.5,0.2-0.7c1.3-0.7,0.4-1.9,0.7-2.9c9-3.4,15.8-12,22.5-18.9   c13.3,10.7,25.1,23.8,32.1,39.6C553.3,352.2,574.3,378.4,565.7,397.4z M516.5,428.2c-0.7,1-0.7,1-1,2.5c1.3-1.1,2.1-1.7,3.2-2.8   C517.7,426.7,517.1,427.3,516.5,428.2z M554.9,399.7c-0.8,1.3-2,2-1.5,3.7c2.1-1.4,3.6-3.5,2.6-6.1   C555.5,398.3,555.2,399,554.9,399.7z M521.5,424.6c-0.8,0.3-1.5,0.7-1,2.1c1.9-2.4,4.9-2.7,6.3-5.5c-0.4-0.4-0.7-0.6-1.1-0.9   C524,421.3,522.7,422.9,521.5,424.6z M462.3,465.7c-2.8,0.4-4.3,4-5.9,6.3c0.5,0.2,0.8,0.4,1.1,0.6   C460.2,470.6,461.5,468.6,462.3,465.7c2.3,0.1,3.7-2.2,3.5-4.3C463.9,462.5,463.2,464.1,462.3,465.7z M538.7,408.6   c0.7-0.6,1.1-1.3,0.2-2.3c-2.8,4.4-6.9,8-9.1,12.4C533.9,417.1,536.8,412.7,538.7,408.6z M558.8,392.6c-1.7,0.8-2.4,2.1-2.3,4.2   C558.5,395.9,558.7,394.3,558.8,392.6z M470.4,455c1.7,0.3,1.9,0.1,1.6-2C471.4,453.8,471,454.3,470.4,455z M467.5,458.9   c1.6,0.1,2.1-0.6,2.1-2.6C468.6,457.6,468.1,458.3,467.5,458.9z M474.7,452.2c0.3-0.5,0.6-1,1.1-2   C474.2,450.4,473.8,450.9,474.7,452.2z M561.4,391.7c-0.9-1-1.8-0.6-1,0.5C560.7,392,560.9,391.9,561.4,391.7z M510.1,432.9   c0,0.2,0.1,0.3,0.1,0.5c0.4-0.1,0.8-0.1,1.2-0.2c0-0.2-0.1-0.3-0.1-0.5C510.9,432.8,510.5,432.8,510.1,432.9z" />
	<path fill="#E1C7B6" d="M340.5,515.4c-0.6,1.1-1.4,2.1-2.2,3.1c-4.5-3.2-0.8-9.8-3.6-14.3c17.4-19.7,20.6-46.7,32.5-69.3   c11-19.4,34.1-29.6,39.6-52.7c11.7-24.2,15-51.7,25.1-76.6c5.8,2.3,11.9,2.1,17.5,3.7c-1.3,0.1-2.7,0.1-4.2,0.2   c-7.7,16.9-13.9,34.7-17.3,53c-1.3,4.2-0.4,9.2-2.7,12.9c-1.4,1.5-2,3.3-2.4,5.2c-1.7,7.7-4.4,14.6-9.3,21   c-0.8-9.2,4-17.5,3.5-27.1c-6.6,7.2-6.8,18-14.5,24.5c-4.8,16-22.7,24.2-29.5,39.4c-6.1,12.7-10.9,25.2-17,38   c3.5-1.9,5.1-4.8,8-7.1c1.2,0.4,1.1,1.1,0.8,1.8C357.1,486.1,349.6,501.7,340.5,515.4c0.8-2.1,0.7-4.3,0.9-6.5   c3-2.4,3.7-6.1,4.6-9.8c-2,0.9-1.8,2.7-2.4,4c-1.2,1.9-2.8,3.5-3,5.8c-0.9,2.1-2.8,3.9-1.9,6.6   C339.3,515.5,339.9,515.5,340.5,515.4z M351.8,486.1c0.9-0.3,1.3-0.9,1-2C351.5,484.4,351.2,485,351.8,486.1z M349.7,491.1   c1-0.5,1.6-1,0.8-2C349.5,489.4,349.1,489.9,349.7,491.1z M346.8,496c0.2,0.1,0.4,0.2,0.5,0.2c0.4-0.5,1.5-1.4,0.4-1.9   C347,494.6,347,495.4,346.8,496z" />
	<path fill="#EF8A6A" d="M456.7,307.1c-1.7-1-0.7-2.9-0.9-4.6c-2.6-1-4.9-2.2-7.9-1.6c-0.4,1.9-0.1,3.9-0.3,5.7   c-5.1-0.1-10-1.6-15.1-2.4c2.7-10.5-8.3-18.3-6.8-29.1c1.4-19.3,21.8-27.3,31.5-42.2c3.3,0.5,7.3,0,10.2,1.7   c-5.8,18-21,33.5-19.1,53.9c2.4,0.5,4.6,0.9,7.3,1.5c-2.8,0.5-5.2,0.9-7.8,1.3c-0.1,1.3-0.1,2.4-0.2,3.7c2.5,1.3,5.2,0,7.6,1   c2.3,0.9,5.1-0.4,7.5,1.6c-4.3,0.3-8.3,0-13,0.2c2.6,1.6,5,2.1,7.5,2.2C456.7,302.3,455.7,304.6,456.7,307.1z M440.9,298.9   c-0.9-1.3-2.2-1.5-6.4-0.8C436.6,299.4,438.7,299.6,440.9,298.9z" />
	<path fill="#E1C7B6" d="M538.6,385.8c-1.1-1.2-1.2-1-2.2,0c-17.6-16-37.2-31.3-53.6-49.5c3.5-5.7,4.8-12.4,7.3-18.7   c4.5,3.5,7,8.6,9.8,13.6c9.4,16.5,22.5,30.5,34.7,45c2.9,5.9,18.6,6.6,13.9,14.7c-2.4-0.1-3.4-2.1-5-3.3c-1,0.2-1.9,0.3-2.8,0.4   c0.1-0.3,0.2-0.7,0.3-1.2C540.1,386.4,539.4,386.1,538.6,385.8z" />
	<path fill="#7C4E40" d="M493.8,298.4c0.3-2.9,1.5-5.5,3.5-8.4c0.1,3.3-1.8,5.5-2.7,8.5C494.3,298.4,494.1,298.4,493.8,298.4z" />
	<path fill="#1F1614" d="M426.3,271.3c0,1.3,0.3,2.6-0.6,3.8C425.7,273.8,425.3,272.4,426.3,271.3z" />
	<path fill="#E1C7B6" d="M490.9,314.5c0,0.8,0.4,1.8-0.7,2.3C490.1,315.9,490.1,315.1,490.9,314.5z" />
	<path fill="#7C4E40" d="M493.3,299.3c0.2-0.3,0.4-0.6,0.5-0.9C493.6,298.7,493.4,299,493.3,299.3z" />
	<path fill="#E5DBB7" d="M309,519.2c-0.3,0-0.6-0.1-0.9-0.1c7.7-5,13-12.3,21-17c0.2,0.3,0.3,0.6,0.5,0.9   C324.6,510.4,317,515.3,309,519.2z" />
	<path fill="#E5DBB7" d="M330.5,504.4c-1,0-1-0.7-0.9-1.4C329.9,503.5,330.2,504,330.5,504.4z" />
	<path fill="#010101" d="M359.8,520c0.5-0.1,1-0.2,1.2,0.5C360.5,520.6,359.9,520.8,359.8,520z" />
	<path fill="#F7EFD0" d="M428.6,463.5c8.7-1.2,11.8-8.8,21.2-6c1.3,2.6,0.7,6-0.1,8.7c-2.7,9.6,14,19.3,22.5,15.8   c0.6,2.1-0.9,4-1.5,6c-0.5,2.1-0.6,4.1-1.7,6.1c-2,0.3-4.2-2.3-5.9,0.4c0.3,2.3,2.5,2.2,4,3.4c-0.8,1.1-1.3,2.1-1.9,3.4   c-5.7-2-5.6,3-0.6,4.2c-0.1,0.7-0.2,1.4-0.3,2.3c-0.9,0-1.8,0-2.6,0c-1,1.9-1,1.9,1.3,4c0.2,1.4-0.3,2.7-0.9,4   c-0.8,0.2-1.4,0.3-2,0.5c-0.7,1.6,0.8,2,1.3,2.8c-0.9,6.7,6.8,14.2,1.5,19.6c-0.3-0.1-0.7-0.2-0.9-0.2   c-6.5-12.7-16.3-23.4-21.9-36.7c-2.1-5.5-1.5-9.3-8.2-11.3c-4.3-9.3-9.6-17.5-13.4-26.5C422,464.1,425.4,464.5,428.6,463.5z" />
	<path fill="#EBDDB8" d="M420.5,469.3c4.7,6.2,7.4,14.3,11.5,21.4c6.8,2.1,6.1,5.8,8.2,11.3c5.5,13.4,15.4,24,21.9,36.7   c0.2,0,0.5,0.1,0.9,0.2c-0.6,1.9-2.5,2.8-3.6,4.2c-4.5-5.4-6.3-11.9-10-17.7c-3.5-2.8-11.5-19.6-13.8-18.5   c4.3,8.2,9.9,15.6,15.2,23.1c0,0.5,0,1,0,1.4c-0.3,0.3-0.5,0.5-0.8,0.8c-26-24.5-7.2-23.2-22.4-40.2c0.7,0.2,1.3,0.4,2,0.6   c0.7-0.8,0.8-1.5-0.2-2.1C425.3,484,422.1,476.9,420.5,469.3z" />
	<path fill="#F1DBBB" d="M461.7,78.6c3.9-8.1,5.6-16.1,5.1-25.3c2.8,8.9,6.7,26.9-6.4,27.3C460.8,79.9,461.3,79.3,461.7,78.6z" />
	<path fill="#F0DABA" d="M470.3,37.4c1.3,5.7,0.9,11.4,2.3,17.1c-3.1-2.2-2.5-7.1-4.3-9.9l-0.1,0.1c0-0.7,0-1.5,0-2.2   C469.6,41.5,468.8,38.8,470.3,37.4z" />
	<path fill="#CCB99B" d="M474.2,19c-0.5,1-0.8,2.2-1.6,3c-3.8-0.2-5.7,2.9-8.2,5.1c-0.3,0-0.5,0-0.8,0C465,22.6,469.3,17.8,474.2,19   z" />
	<path fill="#E0CFB0" d="M471.8,22.8c0,0.4,0,0.9,0,1.3c-0.2,0.3-0.5,0.5-0.7,0.8c0,0,0,0,0,0c-4.6,2.3-4.5,7-6.6,10.9   C463.4,30.5,466.7,24.7,471.8,22.8z" />
	<path fill="#A09780" d="M463.7,27.1c0.3,0,0.5,0,0.8,0c-0.4,1-0.7,2-1.7,2.7c-1.7-5.9,1.9-10.4,6.9-13c0.3,0.3,0.5,0.6,0.8,0.8   C467.4,19.4,462,23.4,463.7,27.1z" />
	<path fill="#716354" d="M465.9,33.7c0.1-0.7,0.1-1.3,0.2-2c1.1,0.4,0.6,1.4,0.6,2.2c-0.5,3.8,1.3,7.2,1.4,10.9   c-2-0.6-1.8-3-2.7-4.6C466.5,38.3,465.7,35.8,465.9,33.7z" />
	<path fill="#2C241E" d="M468.2,76.3c0.5-2.5,0.9-5,1.4-7.5c0.3,1.5-0.5,3.7,0.8,4.6c-0.2,1.1-0.5,2.2-0.8,3.5   c0.7-0.3,1.1-0.4,1.5-0.6c0.2,0.2,0.5,0.5,0.7,0.7c-0.5,0.5-1,1-1.5,1.4l0,0c-0.2,0-0.5,0-0.7,0C469.1,77.7,468.7,77,468.2,76.3z" />
	<path fill="#433930" d="M471.8,22.8c-2.2,0.5-3.4,2.4-5.1,3.6c-0.3-0.3-0.5-0.5-0.8-0.8c1.8-2,3.7-3.8,6.6-3.6c0,0.2,0,0.5,0,0.7   C472.3,22.8,472.1,22.8,471.8,22.8z" />
	<path fill="#C1AC93" d="M465.9,33.7c-0.2,2.1,0.6,4.6-0.5,6.5c-0.3-1.4-0.5-2.9-0.8-4.3C465,35.2,465.5,34.4,465.9,33.7z" />
	<path fill="#CCB799" d="M468.2,44.7c1,0.5,0.7,1.4,0.7,2.3C468.2,46.4,468,45.6,468.2,44.7z" />
	<path fill="#2C221E" d="M466,17.6c-0.1,0.2-0.2,0.3-0.3,0.5C465.8,17.9,465.8,17.7,466,17.6C465.9,17.5,466,17.6,466,17.6z" />
	<path fill="#E1D4B1" d="M429.3,490.6c1,0.6,0.9,1.2,0.2,2.1c-0.7-0.2-1.3-0.4-2-0.6c-5.6-7.9-12-15.3-9.9-25.6   C420.9,471.6,423.2,489.4,429.3,490.6z" />
	<path fill="#494439" d="M429.3,490.6c-5.2-0.7-10.8-21.7-11.7-27.1c0.1-0.2,0.3-0.3,0.5-0.1c3.5,0,7.1,0.1,10.6,0.1   c-3.3,1-6.6,0.5-10.1,0.7C421.7,473.3,423.9,482.5,429.3,490.6z" />
	<path fill="#6A6554" d="M450.7,531.6c0-0.5,0-1,0-1.4c0.5,0,0.9,0,1.4,0c-0.3,1.5,0.9,2.4,1.3,3.8c-0.2,0.2-0.4,0.4-0.5,0.6   c-0.3,0-0.5,0-0.8,0.1l0,0C452,533.4,451.6,532.4,450.7,531.6z" />
	<path fill="#BAA98D" d="M450.7,531.6c0.9,0.8,1.3,1.8,1.4,3c-1.1-0.4-1.6-1.3-2.1-2.3C450.2,532.1,450.4,531.9,450.7,531.6z" />
	<path fill="#A6A489" d="M452,534.6c0.3,0,0.5,0,0.8-0.1c0.3,0.6,0.5,1.2,0.7,1.9C452,536.6,451.7,535.8,452,534.6z" />
	<path fill="#494439" d="M426.4,490.6c0.2,0.3,0.3,0.5,0.5,0.8C426.7,491.1,426.5,490.9,426.4,490.6z" />
	<path fill="#2B2625" d="M406.5,382.8c-0.2,0.3-0.3,0.6-0.5,1C406.1,383.4,406.3,383.1,406.5,382.8z" />
	<path fill="#E1C7B6" d="M457.2,230.3c0.5-0.3,0.9-0.6,1.4-0.9c0,0.5,0,1,0.1,1.6C458.2,230.7,457.7,230.5,457.2,230.3z" />
	<path fill="#F8E2C1" d="M529.8,14.7c0,0.3,0,0.6-0.1,0.9c-6.1-1.3-11.7-4-18.3-1.4c3.4,2.5,7.5,0.9,10.3,4.1   c0.8,0.8,0.8,0.8,1.4-0.2c0-0.2-0.1-0.4-0.2-0.6c0.3,0,0.6,0,0.9,0c0,0,0,0.2,0,0.2c0.2,0.2,0.5,0.5,0.7,0.7   c-1.8,3.9-12.2-2.3-16.1-2.5c-0.5-0.8-5.4-1-5.8,0.1c0.2,0.5,0.4,1,0.6,1.5c-2.1,1.7,3.1,2.2,4,3.4c-0.6,0.2-1.1,0.4-2,0.7   c1.3,0.6,2.2,0.9,3.1,1.3c-6.9,0.8-15-1-21.9-2.9c3.8-0.4,7.6,0.4,11.2-1.4c-1.4-0.3-2.3-1-3.3-1.9c0.1-0.2,0.2-0.3,0.3-0.5   c2.2-1.1,11.1-0.9,11.1-2.8c-3.5,0-7.5,0.6-10.6,1.9c-1.2,0.6-2.8-0.5-3.6,0.7c-0.7,0.4-1.4-0.2-2.1-0.5   C502.3,9.5,518.1,3.3,529.8,14.7z" />
	<path fill="#F8E2C1" d="M517.2,4.5c1.3,0.3,2.6,0.6,4,1c0.2,0.3,0.4,0.7,0.6,1.1c-2.2,2.3-8.2-1.9-12.5,0.8c-3.9,0.2-13.4,6-15.5,2   C501.5,7.6,509.1,3.8,517.2,4.5z" />
	<path fill="#988975" d="M509.3,7.4c3.2-1.1,6.3-1.4,9.5-0.1c-1.4,0.3-3.4-0.7-4.3,0.7C512.8,8,511,8,509.3,8.1   C509.3,7.8,509.3,7.6,509.3,7.4z" />
	<path fill="#C2AE95" d="M520.1,7.4c0.6-0.2,1.4,0,1.6-0.9c1.2,0.5,2.4,1.3,3.7,1.5c0,0,0-0.1,0-0.1c0.2,0.4,0.3,0.8,0.6,1.5   C523.8,9.1,521.9,8.4,520.1,7.4z" />
	<path fill="#B0A68D" d="M526.3,7.3c1,0.4,2.1,0.5,2.7,1.5c0,0.4,0,0.8,0,1.2c-1.3-0.6-2.1-1.8-3.7-1.9c0,0,0,0.1,0,0.1   c0-0.2-0.1-0.5-0.1-0.7C525.7,7.3,526,7.3,526.3,7.3z" />
	<path fill="#3B3C34" d="M531.3,11c1,0.6,1.9,1.2,2.2,2.7C532,13.1,531.1,12.3,531.3,11z" />
	<path fill="#7C7C6A" d="M531.3,11c0,0.3,0,0.5,0,0.8c-0.7-0.6-1.5-1.2-2.2-1.8c0-0.4,0-0.8,0-1.2C529.8,9.5,530.5,10.2,531.3,11z" />
	<path fill="#E1C7B6" d="M536.5,385.6c2.6,6.6-23.7,9.9-29,19.1c-12.1,8.8-16.5,22.9-26.1,33.9c-9.3,11.4-19.1,23.2-29.5,33.1   c-5.2-11.4,19.2-21.7,24.5-34.2c14.6-21,27.5-53,57.7-51.7C535.5,386.8,535.5,386.6,536.5,385.6z" />
	<path fill="#E3D3B4" d="M493.8,9.4c0.4,1.1,1.2,1.6,2.3,1.6c-0.1,0.2-0.1,0.4-0.2,0.6c-3.8,1.5-7.7,3.1-11.5,4.6   c-0.3-0.3-0.6-0.6-0.9-0.9C486.6,12.8,489.9,10.3,493.8,9.4z" />
	<path fill="#342B24" d="M484.4,16.2c3.8-1.5,7.7-3.1,11.5-4.6c0.3,0.3,0.5,0.5,0.8,0.8c-5.8,2.4-11.4,5.1-16.8,8.1   c-0.8-1.1-0.4-2.3,0.8-2.9C481.9,18.7,483.2,16.7,484.4,16.2z" />
	<path fill="#32231E" d="M463.7,27.1c-1.6-6,7.3-10.6,12.6-9.6c0.3,0.2,0.6,0.4,0.9,0.6c-1,0.3-2,0.6-3,0.9   C469.3,17.9,465.1,22.6,463.7,27.1z" />
	<path fill="#D9C8AB" d="M477.2,18.1c-0.3-0.2-0.6-0.4-0.9-0.6c0.7-0.8,1.4-1.6,2-2.3c-0.8-1-1.4-1.9-2.1-2.7c0.7,0,1.5,0,2.2,0   c1,0.6,1.9,1.2,3,1.9C479.8,15.5,479,17.4,477.2,18.1z" />
	<path fill="#342B24" d="M474.1,27.2c0-0.6,0-1.1,0-1.7c1.2-1.8,2.1-3.8,3-5.8c0.5,0.5,1,1.1,1.5,1.6   C476.7,23.1,476.4,26.2,474.1,27.2z" />
	<path fill="#D6C5A8" d="M477.1,19.8c-0.6,1.2-1.1,2.4-1.7,3.6c-0.2-0.5-0.5-1-0.7-1.5c0.3-0.7,0.6-1.4,0.9-2   C476,19.8,476.5,19.7,477.1,19.8L477.1,19.8z" />
	<path fill="#B0A48C" d="M484.4,16.2c-1.2,0.4-2.5,2.5-3.7,1.4c0.9-0.8,1.9-1.5,2.8-2.3C483.9,15.7,484.1,15.9,484.4,16.2z" />
	<path fill="#433930" d="M473.3,28.7c-1-1.9-0.7-3.9-0.7-5.9C474.2,24,472.9,26.8,473.3,28.7z" />
	<path fill="#9F8C77" d="M474.7,21.8c0.2,0.5,0.5,1,0.7,1.5c-0.4,0.7-0.9,1.5-1.3,2.2C473.7,24.3,474.3,23.1,474.7,21.8z" />
	<path fill="#342B24" d="M477,19.7c-0.5,0-1,0.1-1.5,0.1C476,18.9,476.4,18.8,477,19.7z" />
	<path fill="#342B24" d="M478.4,21.1c0.5-0.3,0.9-0.6,1.4-0.8c0,0,0.2,0.2,0.2,0.2c-0.4,0.3-0.9,0.6-1.3,0.9   C478.6,21.4,478.4,21.1,478.4,21.1z" />
	<path fill="#433930" d="M472.7,22c0.2-0.3,0.4-0.6,0.6-0.8C473.1,21.5,472.9,21.7,472.7,22z" />
	<path fill="#5C5F57" d="M536.4,385.7c-1,1-1,1-2.3,0.1c0.3-0.3,0.6-0.6,0.9-0.9C535.5,385.2,535.9,385.5,536.4,385.7z" />
	<path fill="#BCBB9F" d="M446.2,86.6c3.1-0.1,6.3-0.2,9.4-0.2c0.3,0.3,0.5,0.5,0.8,0.8c-3.4,1-6.8,1.7-10.1,0   C446.2,86.9,446.2,86.8,446.2,86.6z" />
	<path fill="#7E7F6A" d="M456.4,87.1c-0.3-0.3-0.5-0.5-0.8-0.8c2.7-1.1,5.4-2,8.2-2.9c0.2,0.1,0.3,0.3,0.6,0.6   C461.8,85.5,459.3,86.8,456.4,87.1z" />
	<path fill="#5E5C4D" d="M463,82.8c-0.8,0-1.6,0-2.4,0c0-0.1,0-0.3,0-0.4c1.7-0.6,3.4-1.1,5.1-1.7c0.1,0.1,0.2,0.3,0.2,0.4   C465,81.9,464.1,82.5,463,82.8z" />
	<path fill="#3D332F" d="M441.8,88.9c1.8,0.2,3.1-0.8,4.7-0.8c-0.1,0.8-0.2,1.4-0.2,2.1C444.8,89.7,443.2,89.7,441.8,88.9z" />
	<path fill="#555D50" d="M446.2,86.6c0,0.2,0.1,0.4,0.1,0.5c-0.7-0.2-1.3-0.5-2-0.8C445.1,85.6,445.7,85.7,446.2,86.6z" />
	<path fill="#5B5245" d="M471.9,77c-0.2-0.2-0.5-0.5-0.7-0.7c1.5-1.2,2.9-2.5,4.1-3.5c-0.2,2.6-1.1,5.5-4.1,7.1   c-0.2-0.2-0.4-0.4-0.7-0.6c0-0.3,0-0.5,0-0.8c0,0,0,0,0,0C471,78,472.6,78.1,471.9,77z" />
	<path fill="#7D7964" d="M470.4,78.4c0,0.3,0,0.5,0,0.8c-0.6,0.4-1.2,0.7-1.9,1.2c-0.6-1.3,0.6-1.5,1.1-2.1   C469.9,78.4,470.1,78.4,470.4,78.4z" />
	<path fill="#655346" d="M466.7,91c-0.7,0-1.1-0.5-1.6-0.9c0.1-0.2,0.2-0.4,0.2-0.5c0.9-0.3,1.9-0.7,2.8-1   C470.1,89.3,467.6,90.5,466.7,91z" />
	<path fill="#D6BFA0" d="M465.2,91.1c-0.4,0.6-0.9,0.6-1.5,0.5C464.2,91.4,464.7,91.3,465.2,91.1z" />
	<path fill="#C6AB9D" d="M540.8,69.6c0.5-2-4.1-2.8-1.2-4.2c0.6,0.1,1.1,0.1,1.7,0.2C541.9,67.1,541.9,68.4,540.8,69.6z" />
	<path fill="#332B28" d="M538.4,64.4c0.9-0.8,2-0.7,3.1-0.7C540.7,64.8,539.6,64.5,538.4,64.4z" />
	<path fill="#332B28" d="M538.6,66c-0.1,0.2-0.1,0.3-0.1,0.5c-0.7,0-1.6,0.4-2.1-0.6C537.2,66,537.9,66,538.6,66z" />
	<path fill="#332B28" d="M541.5,63.7c0.3-0.2,0.5-0.4,0.8-0.6C542,63.3,541.7,63.5,541.5,63.7z" />
	<path fill="#332B28" d="M539.6,65.4c-0.3,0.2-0.6,0.4-0.9,0.6C538.9,65.8,539.3,65.6,539.6,65.4z" />
	<path fill="#332B28" d="M536.4,65.9c-0.6-0.2-0.5-0.4-0.1-0.7C536.4,65.4,536.4,65.7,536.4,65.9z" />
	<path fill="#332B28" d="M536.4,65.2c0.3-0.2,0.5-0.5,0.8-0.7C536.9,64.8,536.6,65,536.4,65.2z" />
	<path fill="#D2BD9E" d="M476.2,12.5c0.6,0.9,1.3,1.7,2.1,2.7c-0.7,0.8-1.4,1.5-2,2.3c-1.9,0.1-3.9,0.1-5.8,0.2   c-0.3-0.3-0.5-0.6-0.8-0.8C471.9,15.4,474,13.9,476.2,12.5z" />
	<path fill="#A5A089" d="M472.6,13.2c-1.6,1.2-3.2,2.4-5.2,2.9l0,0C468.6,14.3,470.4,12.9,472.6,13.2z" />
	<path fill="#AFB89D" d="M472.6,13.2c-0.4,0-0.7,0-1.1-0.1c0.6-0.2,1.1-1,1.6-0.3C472.9,12.9,472.8,13.1,472.6,13.2z" />
	<path fill="#82826F" d="M467.4,16.1c-0.1,0.2-0.2,0.4-0.3,0.6C466.6,16.1,467.3,16.3,467.4,16.1C467.5,16.1,467.4,16.1,467.4,16.1z   " />
	<path fill="#A1B096" d="M524.7,6.6c-0.4,0-0.9-0.1-1.5-0.2C524,5.8,524.4,5.8,524.7,6.6C524.6,6.6,524.7,6.6,524.7,6.6z" />
	<path fill="#BDBCA1" d="M526.3,7.3c-0.6,0.1-1.1,0.1-1.7,0.1c0-0.3,0-0.5,0-0.8l0,0C525.3,6.5,525.9,6.6,526.3,7.3z" />
	<path fill="#0F0C0B" d="M524.7,7.4c0.2,0,0.5,0,0.7,0c0,0.2,0.1,0.5,0.1,0.7c-0.2,0-0.5-0.1-0.7-0.1C524.7,7.8,524.7,7.6,524.7,7.4   z" />
	<path fill="#1D1B19" d="M559.9,191.5c-2.9-0.7-3.1-1-2.6-3.3C559,188.3,559.2,189.9,559.9,191.5z" />
	<path fill="#5D4A43" d="M599.5,157.6c1.4,0.7,0.2,1.5,0,2.2c-0.3,0-0.7-0.1-1-0.1C598.4,158.7,598.6,158,599.5,157.6z" />
	<path fill="#74625A" d="M516.7,131.4c-0.9-0.8-0.9-0.9-0.7-2.4c0.6,0.9,1,1.4,1.3,1.9C517.1,131,516.9,131.2,516.7,131.4z" />
	<path fill="#482F2B" d="M596.4,163.2c-1.1-0.8-1.1-0.8,0-1.8C596.4,162.1,596.4,162.6,596.4,163.2z" />
	<path fill="#54574F" d="M514.5,126.2c0.6,0.4,1.1,0.9,0.1,2C514.5,127.3,514.5,126.8,514.5,126.2L514.5,126.2z" />
	<path fill="#DBC0AF" d="M601.7,152.5c-0.2,0.6-0.5,1.1-0.7,1.7C601,153.5,600.8,152.8,601.7,152.5z" />
	<path fill="#271816" d="M498.1,114.2c-0.7,0-1.3,0-2.2,0C496.9,113.2,497.5,113.3,498.1,114.2L498.1,114.2z" />
	<path fill="#4C3129" d="M468.1,254.4c1.8-4.4,3.6-8.9,6-13c1.9,4.2-4.4,9.2-5.4,13.7C468.6,254.9,468.3,254.6,468.1,254.4z" />
	<path fill="#2C1C17" d="M456.7,307.1c-1-2.5,0-4.8,0.6-7.1c0.4-0.2,0.8-0.5,1.4-0.9C457.9,301.9,458.8,305.2,456.7,307.1z" />
	<path fill="#73473A" d="M456.1,287.1c2.8-0.6,8.7,0.1,9.5,2.6C462.5,289.2,459.8,287.7,456.1,287.1z" />
	<path fill="#9C6351" d="M466,274.3c-1-0.6-2.1-1.1-3.2-0.3c-0.6-0.9-0.3-1.6,0.6-2.4c1,0.8,2.3,1.4,3.5,1.7   C466.5,273.7,466.3,274,466,274.3z" />
	<path fill="#7E5342" d="M467,270.3c-1.7-0.5-3.4-1-5.4-1.6c2.4-0.7,4.2-0.4,5.8,1C467.3,269.9,467.2,270.1,467,270.3z" />
	<path fill="#8E5C4A" d="M468.1,254.4c0.2,0.2,0.4,0.4,0.7,0.7c-0.6,1.7-1.3,3.4-2.4,4.9C466.7,258,466.8,256,468.1,254.4z" />
	<path fill="#613D31" d="M466,274.3c0.3-0.3,0.6-0.6,0.9-0.9c1,0.3,2,0.6,2.8,1.8C468.2,276.1,467.2,274.7,466,274.3z" />
	<path fill="#895444" d="M500.5,277.9c0.2,0,0.5,0,0.7,0c-0.4,1.3-0.9,2.5-1.3,3.8c-0.3-0.3-0.5-0.5-0.8-0.8   C499.6,279.9,500,278.9,500.5,277.9z" />
	<path fill="#2F1F19" d="M499.1,280.9c0.3,0.3,0.5,0.5,0.8,0.8c-0.3,0.6-0.6,1.2-1,2.1C498,282.5,499,281.8,499.1,280.9z" />
	<path fill="#403733" d="M398.9,154.7c-2.1-0.9-3.1-2.9-1.9-4.7C398.8,151.3,398.5,153,398.9,154.7z" />
	<path fill="#42322D" d="M438.8,134.2c0.1-0.2,0.2-0.4,0.2-0.6c1.1-0.4,2.6-2.3,3.5-0.8c-0.5,1.2-1.5,2-2.8,2.3   C439.4,134.8,439.1,134.5,438.8,134.2z" />
	<path fill="#180E0D" d="M412,156.2c1-1.1,1.9-1,1.7-0.3C413.4,156,413,156.1,412,156.2z" />
	<path fill="#292522" d="M505.6,244.5c0.6-3.8,1.1-7.6,1.7-11.5C508.6,235.6,508.6,242.6,505.6,244.5z" />
	<path fill="#635852" d="M505.7,227.2c1.3,1.6,1.3,1.6,0.2,3C505.8,229.1,505.7,228.3,505.7,227.2z" />
	<path fill="#81726A" d="M503.9,218.6c0,0.6,0.1,1.2,0.1,1.9C502.8,220,502.5,219.5,503.9,218.6z" />
	<path fill="#6C5B54" d="M513.3,193.5c-0.7-0.1-1.2-0.3-0.9-1.1C513.3,191.7,514.1,192.8,513.3,193.5z" />
	<path fill="#40332F" d="M501.2,192.9c-0.2-0.5-0.5-1-0.7-1.5c1.3,0,1.3,0,1.6,1.5C501.7,192.9,501.4,192.9,501.2,192.9z" />
	<path fill="#968C81" d="M501.2,192.9c0.3,0,0.6,0,0.8,0c0.2,0.3,0.4,0.7,1,1.5c-1-0.4-1.4-0.6-1.8-0.7   C501.2,193.4,501.2,193.1,501.2,192.9z" />
	<path fill="#353330" d="M503.2,215.2c0,0.6,0,1.1,0,1.7c-0.2,0-0.3,0-0.5,0c0-0.6,0-1.1,0-1.7C502.9,215.2,503,215.2,503.2,215.2z" />
	<path fill="#483935" d="M505,225.1c-0.1-0.7-0.1-1.3-0.2-1.9C505.7,223.8,506,224.4,505,225.1z" />
	<path fill="#010101" d="M511.4,189.9c-0.1,0.2-0.3,0.3-0.4,0.5c-0.1-0.2-0.2-0.4-0.3-0.5C510.9,189.9,511.2,189.9,511.4,189.9z" />
	<path fill="#D7C0A0" d="M478.6,21.4c1.3-0.9,2.7-1.7,4.1-2.5c1.1,1.6,2.1,1.8,3.8,0.8c5.4,2.8,12,2,17.9,3.4   c1.4,0.2,2.8,0.7,4.1-0.3l0-0.3c0.4,0.1,0.9,0.2,1.3,0.3c0.9,0.8,2,0.5,3.1,0.6c0,0,0,0,0,0c-5.3,4.3-11.1,3.8-17.4,2.2   c0.2,0.6,0.4,1,0.6,1.4c-3.1-0.5-6.9-1.1-8.8-3.6c1.1-0.4,2.2-0.8,3.3-1.2c-2.1-0.2-4.6-0.9-6.3,0.3c-2.9,0.1-2.9,0.1-4.7,1.5   c0.7,0.1,1.3,0.1,1.8,0.1c0.6,1.6,0.8,3.3,0.7,5c-0.4,0.1-0.8,0.2-1.7,0.5c6.8,4.7,21.6,9.8,28.8,6.1c0,0.5,0,1.1-0.1,1.6   c-2.7-0.4-4.4,3.4-7.3,3.6c-4,0-5.9,2.9-8.1,5.8c-3.1-0.4-5.9-2.2-8.1-4.4c1.9-2.2,5.9,1.3,8,0.3c-3.8-2.1-7.9-2.8-10.9-6.2   c0.2-0.2,0.5-0.5,0.7-0.7c4.3,1.5,8.1,4.8,12.9,4.6c-8-2.7-14.7-8.1-22.2-11.5c-0.1-0.6-0.1-1.2-0.2-1.8   C476.4,26.2,476.7,23.1,478.6,21.4z" />
	<path fill="#191412" d="M493.8,46.9c1.2-1.5,2.4-3,3.7-4.5c0.5,0.1,1,0.1,1.4,0.2c-4.7,6-5.9,8.1,0,13.9c0,0.2,0.1,0.4,0.2,0.6   c-0.2,0.9,0.3,4.3,1.3,2.2c0.5-0.8,0.8-1.9,2.2-1.4c0,0.5,0.1,0.9,0.1,1.4c-0.2,0.2-0.2,0.4-0.2,0.7c-1.8,2.8-4.4,2.7-5-0.7   c0.9-1.1-3.6-7.2-4.2-5.1c-0.2,0.7,0.3,1.7-0.8,2C492.3,53.2,493.3,50.1,493.8,46.9z" />
	<path fill="#D3BE9F" d="M503.4,17.6c-0.2-0.5-0.4-1-0.6-1.5c0.6-1,1.4-0.7,2.2-0.6c3.1,2.5,7.4,2.5,10.9,4.3   c-0.1,0.2-0.3,0.3-0.5,0.6c0.5,0.6,1.1,1.2,1.5,1.7c-0.1,1-1.8,1.4-2.6,2.1c-0.1-0.9-0.8-0.7-1.4-0.7c0,0,0,0,0,0   c0.6-1,2.2-0.5,1.9-2.1C510.8,21.4,506.8,19.6,503.4,17.6z" />
	<path fill="#261C1A" d="M518.2,74c-5.3,3-14.6-5.1-12.4-11.9C507,68.8,511.9,72.4,518.2,74z" />
	<path fill="#1A1513" d="M533.4,46.2c-1.2-0.5-2.3-1-2.8-2.3l0,0.1c0.6,0.1,1.3,0.2,2,0.3c0-1.4,1-2.5-0.5-3.2   c1.7-1.3,3.9-2.2,5.8-0.8C535.2,41.1,536.4,46.1,533.4,46.2z" />
	<path fill="#29211E" d="M502,47.6c0.3,0.5,0.7,1,1.2,1.6c-0.5,0.9-1,1.7-1.5,2.6c0.3,0.4,0.7,0.9,1.2,1.5c-0.9,1.2-1.7,2.2-3.1,2.5   c-0.2-2.3-5.3-3.4-3.1-5.9c0.4,1.7,1.3,2.8,3.2,2.8c0.1,0.1,0.1,0.3,0.1,0.3c-1.3-1.8,0.8-2.7,1.9-3.5c-0.4-1.1-1.3-1-2.4-1.2   c0.1-0.2,0.2-0.4,0.3-0.7C500.4,47.6,501.2,47.6,502,47.6z" />
	<path fill="#352E27" d="M513,29.4c-1.2,0.8-2.4,1.6-3.5,2.3c-0.3-0.1-0.6-0.1-1-0.2c0.2-0.4,0.4-0.8,0.7-1.4c-2-0.5-3.8-1-5.7-1.6   c0.2-0.3,0.5-0.5,0.7-0.8c2.2,0.4,4.4,0.7,6.6,0.2C511.5,28.4,512.6,28.3,513,29.4z" />
	<path fill="#331E1B" d="M528.9,35.1c6-2.7,8.5-2.8,11.3-0.6C536.4,34.2,533.1,35.9,528.9,35.1z" />
	<path fill="#4A3B32" d="M515.9,19.8c-1.9-0.7-3.9-1.5-5.8-2.2c0.3-0.3,0.5-0.5,0.8-0.8c3.5,0.4,6.8,1.8,10.1,3.1c0,0.3,0,0.7,0,1.2   C519.1,20.7,517.6,20.2,515.9,19.8z" />
	<path fill="#BCA48A" d="M510.8,27.9c-2.2,0.6-4.4,0.2-6.6-0.2c0-0.2,0-0.4-0.1-0.6c1.8-0.4,3.5-0.9,5.2-1.5   c0.7,1.5,2.6-0.4,3.8-0.6c0,0.4,0,0.8,0,1.2C512.3,26.8,511.5,27.4,510.8,27.9z" />
	<path fill="#C6B294" d="M507.8,39.7c-0.1,1,0.5,1.4,1.4,1.4c-2.4,2.2-5.6,2.6-8.7,2.2C502.8,41.6,505.6,41.4,507.8,39.7z" />
	<path fill="#322721" d="M527.8,15.3c0.6,0.1,1.3,0.2,1.9,0.3c0.3,0.5,0.6,1,0.9,1.4c-2,1.4-3.6-0.1-5.3-0.2l0.1,0   c-0.7-0.7-1.5-1.4-2.2-2.1C525,14,526.1,15.9,527.8,15.3z" />
	<path fill="#30251F" d="M502.1,43.3c2.7,0.1,5.1-0.4,7.1-2.3c0.2,0,0.4,0,0.6,0.1c0,0.2,0,0.5,0.1,0.7c-0.7,0.8-1.5,1.5-2.2,2.3   C505.9,44.6,503.5,45.4,502.1,43.3z" />
	<path fill="#332922" d="M507.8,39.7c-1.6,0.9-3.2,2.1-5.2,2.3c-0.2-0.3-0.5-0.6-0.7-0.9c2.9-0.2,4.5-3.9,7.3-3.6   C508.7,38.2,508.3,38.9,507.8,39.7z" />
	<path fill="#3B2723" d="M498.2,43.8c0.2-0.4,0.5-0.8,0.7-1.1c1.6,0.3,2.4,1.6,3.4,2.8c1.6,0,3.2,0,4.7,0l0,0c0,0.5,0,0.9,0,1.4   c-0.2,0.1-0.3,0.2-0.5,0.2c-1.2-1.2-1.8-1.2-3.1-0.2C501.3,46.8,500.4,44,498.2,43.8z" />
	<path fill="#86725F" d="M508.5,31.5c0.3,0.1,0.6,0.1,1,0.2c0.2,0.4,0.3,0.9,0.5,1.3c-0.5,0.1-2-0.4-1.6,0.6c0.1,0,0.3,0.1,0.4,0.2   c-0.6,0.7-1.2,1.4-1.8,2.1c-0.2,0-0.4-0.1-0.7-0.1c0.1-0.7,0.4-1.1,0.7-1.9c-0.4-0.1-0.9-0.1-1.3-0.2c0.3-0.5,0.5-1,0.8-1.5   c0.5-0.2,1-0.5,1.4-0.7c0.1,0.2,0.2,0.3,0.4,0.5C508.3,31.8,508.4,31.7,508.5,31.5C508.5,31.5,508.5,31.5,508.5,31.5z" />
	<path fill="#A4967F" d="M507,45.5c-1.5,0-3.1,0-4.7,0c-0.6-0.8-1.2-1.5-1.8-2.2c0.5,0,1.1,0.1,1.6,0.1c1.4,2,3.8,1.3,5.7,0.7   C507.6,44.5,507.3,45,507,45.5z" />
	<path fill="#4A3B32" d="M523.2,14.8c0.7,0.7,1.5,1.4,2.2,2.1c0,0-0.1,0-0.1,0c0.5,1.1,1.3,2.1-0.7,1.7c-0.2-0.3-0.5-0.5-0.7-0.7   c0,0,0-0.2,0-0.2c-0.9-0.9-1.8-1.8-2.8-2.8C521.9,14.8,522.5,14.8,523.2,14.8z" />
	<path fill="#847363" d="M510.8,27.9c0.7-0.5,1.5-1.1,2.2-1.6c0.6,0.6,1.3,0.2,2,0c0,0,0.2,0.2,0.2,0.2c-0.7,1-1.5,1.9-2.2,2.9   C512.6,28.3,511.5,28.4,510.8,27.9z" />
	<path fill="#524744" d="M532,41.1c0.5,0.5,1.3,0.7,0.7,1.4c-1,0.1-1.9,0.3-2.2,1.5c0,0,0-0.1,0-0.1c-0.8,0.1-1.6,0.9-2.2,0.1   C528.8,42.6,530.9,42.1,532,41.1z" />
	<path fill="#96867B" d="M498.2,43.8c1.9,0.4,2.9,2.2,4.5,3.1c-0.2,0.2-0.5,0.5-0.7,0.7c-0.2,0-0.5,0-0.7,0c-0.8-1.4-2-2.9-3.7-2.9   C497.8,44.4,498,44.1,498.2,43.8z" />
	<path fill="#685749" d="M513,25.1c-1.1,0.2-3,2-3.8,0.6c1.2-0.7,2.5-1.5,3.7-2.2c0.6,0,1.3-0.2,1.4,0.7   C513.9,24.5,513.5,24.8,513,25.1z" />
	<path fill="#0A0E0D" d="M503.4,46.9c1.3-1,1.9-1,3.1,0.2C505.8,48.6,504.3,47.5,503.4,46.9z" />
	<path fill="#BBA799" d="M497.6,53.4c0.9,0.6,1.9,1,2.1,2.3c-0.2,0.3-0.5,0.5-0.7,0.8c-0.8-1-1.5-2-2.3-3   C496.9,53.5,497.3,53.5,497.6,53.4z" />
	<path fill="#1E1814" d="M506.9,35.9c0.6-0.7,1.2-1.4,1.8-2.1c0.5,0.5,0.9,1,1.4,1.4c-0.3,0.2-0.5,0.5-0.8,0.7   C508.4,36,507.7,36.1,506.9,35.9z" />
	<path fill="#55483E" d="M510,35.2c-0.6-0.5-1-1.3-1.7-1.6c0.1-0.2,0.1-0.4,0.1-0.6c0.5,0,1,0,1.5,0c0.3,0.6,0.8,0.6,1.3,0.5   c0.1,0.1,0.3,0.3,0.4,0.4C511.3,34.6,510.9,35.2,510,35.2z" />
	<path fill="#6D524B" d="M537.8,40.2c-0.5-0.3-1-0.5-1.6-0.8c0.8-0.5,1.7-0.9,2.5-1.4C538.8,39.3,538.8,39.3,537.8,40.2z" />
	<path fill="#BBA799" d="M500.4,59.3c-1,2.2-1.4-1.3-1.3-2.2C499.5,57.9,500,58.6,500.4,59.3z" />
	<path fill="#44514A" d="M533.4,46.2c0.6-0.1,1.3-0.1,1.6-0.8c0.3,0.3,0.5,0.7,0.9,1.1C534.8,47.1,534,47,533.4,46.2z" />
	<path fill="#BBA799" d="M499.7,55.8c0.5-0.2,1.1-0.4,1.6-0.6C500.7,56.7,500.7,56.7,499.7,55.8z" />
	<path fill="#595246" d="M512.4,32.3c0.2-0.5,0.4-1,0.7-1.6c0.9,0.8,0.6,1.3-0.1,1.6C512.8,32.3,512.6,32.3,512.4,32.3z" />
	<path fill="#E1C7B6" d="M502.7,59.4c0-0.5-0.1-0.9-0.1-1.4C503.5,58.6,503.5,58.6,502.7,59.4z" />
	<path fill="#D3BE9F" d="M516.6,19.9c0.5,0.2,1,0.4,1.5,0.5C517.5,20.6,516.9,20.5,516.6,19.9z" />
	<path fill="#A4967F" d="M507,46.9c0-0.5,0-0.9,0-1.4C507.9,46.1,507.9,46.1,507,46.9z" />
	<path fill="#C6B294" d="M510,41.8c-0.1-0.2-0.2-0.4-0.1-0.7c0.2,0.1,0.4,0.2,0.6,0.2C510.3,41.5,510.2,41.6,510,41.8z" />
	<path fill="#55483E" d="M511.3,33.5c0.3-0.2,0.6-0.4,0.9-0.6c0,0,0.1,0.1,0.1,0.1c-0.2,0.3-0.4,0.6-0.6,0.9   C511.5,33.8,511.4,33.7,511.3,33.5z" />
	<path fill="#5B4F44" d="M512.4,32.3c0.2,0,0.4,0,0.6,0c-0.3,0.3-0.5,0.5-0.8,0.8c0,0-0.1-0.1-0.1-0.1   C512.2,32.7,512.3,32.5,512.4,32.3z" />
	<path fill="#847363" d="M515,26.3c0.5-0.8,0.9,0,0.2,0.2C515.2,26.5,515,26.3,515,26.3z" />
	<path fill="#7F684B" d="M511.5,152.1c-0.4,0.4-0.7,0.7-1,1.1C510.1,152,510.1,152,511.5,152.1z" />
	<path fill="#624131" d="M505.8,156.4c0.1,0,0.2,0,0.2,0c0,0.2-0.1,0.3-0.1,0.5C505.7,156.7,505.6,156.6,505.8,156.4z" />
	<path fill="#4B4730" d="M474.4,121.5c0.8,1.8,0,3.1-0.9,4.3C473.7,124.4,472.4,122.7,474.4,121.5z" />
	<path fill="#1D110B" d="M475.8,115.2c0.3,0.1,0.6,0.3,1.1,0.5c-0.3,0.7-0.6,1.4-0.8,1.9C474.6,117.7,475.2,115.9,475.8,115.2z" />
	<path fill="#B3AD73" d="M478.5,107.8c0-0.6,0-1.2,0.7-1.5l0,0C479.2,106.9,479.2,107.5,478.5,107.8L478.5,107.8z" />
	<path fill="#B3AD73" d="M478.4,107.8c0,0.3-0.1,0.7-0.2,1.1C477.5,108.3,478,108,478.4,107.8L478.4,107.8z" />
	<path fill="#594842" d="M455.7,225.1c0.7-0.7,1.4-1.5,2.2-2.2c1.5,1.1-0.4,2.4-1.3,3.1C456.3,225.7,456,225.4,455.7,225.1z" />
	<path fill="#85766C" d="M455.7,225.1c0.3,0.3,0.6,0.6,0.9,0.9c-0.9,0.6-1.7,1.2-2.7,1.9C454,226.4,454,226.4,455.7,225.1z" />
	<path fill="#CEB89B" d="M492.4,56.3c1.6-0.3-0.1-3.7,2.1-2.1c-2.3,2,0.8,3.9,2.2,5.1c0,1.5,0,3.1,0,4.7c-1,0.9-1.9,1.8-2.9,2.6   l-0.1-0.2c1.2-3.2-3.1-4.4-3.7-7.2c0.8-0.1,1.5-0.1,2.4-0.1c-0.3-0.6-0.4-1-0.6-1.4C492,57.4,492.2,56.8,492.4,56.3z" />
	<path fill="#5F5049" d="M490.3,88.7c-0.3,2-1.8,3.1-3,4.4c-0.3-0.1-0.7-0.2-1-0.3c0.5-1.8,2.3-3,3.4-4.6   C489.8,88.4,490,88.6,490.3,88.7z" />
	<path fill="#443F3A" d="M514.4,87.3c0,0.7-0.1,1.3-0.2,2.1c-2-0.7-1.1-2.7-2.1-3.7c0.1-0.3,0.1-0.7,0.3-1.4   C513.2,85.5,513.8,86.4,514.4,87.3z" />
	<path fill="#41342F" d="M490.8,86.4c-1.1-0.9-0.5-2.5,0.5-3.4c0.9,0.8,0.3,1.8,0.3,2.7C491.4,86,491.1,86.2,490.8,86.4   C490.8,86.4,490.8,86.4,490.8,86.4z" />
	<path fill="#8A776E" d="M492.5,79.7c-0.7,1.2-1.7,0.8-1-0.4C491.7,79.4,492,79.5,492.5,79.7z" />
	<path fill="#422825" d="M509.3,80.6c0.8-1,1.4-0.5,2,0.4c-0.4,0.2-0.6,0.4-0.9,0.6C510,81.2,509.7,80.9,509.3,80.6L509.3,80.6z" />
	<path fill="#74685F" d="M491.5,77.1c-0.5-1-0.5-1.3,0.5-1.4C492.5,76.1,492,76.5,491.5,77.1z" />
	<path fill="#CEB89B" d="M496.9,57c1,0.6,0.5,1.6,0.6,2.4c-0.2,0-0.5,0-0.7,0C496.8,58.6,496.9,57.8,496.9,57z" />
	<path fill="#CEB89B" d="M497.6,59.9c0.2,0.5,0.5,1.1,0.7,1.6C497.4,61.3,497.5,60.6,497.6,59.9z" />
	<path fill="#64564E" d="M438.8,134.2c0.3,0.3,0.6,0.6,0.9,0.9c-0.7,0.4-1.3,0.9-2.2,1.5C437.3,135.1,438,134.6,438.8,134.2z" />
	<ellipse fill="#795C55" cx="429.4" cy="140.4" rx="0.8" ry="0.2" />
	<path fill="#603531" d="M433.3,138c1.3,0,1.3,0.5,0,0.5C433.2,138.3,433.3,138.2,433.3,138z" />
	<path fill="#E1C7B6" d="M490.8,86.4c0.3-0.2,0.5-0.4,0.8-0.7C491.4,86,491.1,86.2,490.8,86.4z" />
	<path fill="#534B3F" d="M477.8,66.6c1-0.5,0.4-1.6,0.8-2.3c1.3,3.8,0.5,8.2,0.2,12.3C477.8,73.3,477.6,70,477.8,66.6z" />
	<path fill="#F1DABA" d="M468.1,88.6c-0.9,0.3-1.9,0.7-2.8,1c-0.3-0.1-0.7-0.1-1.2-0.3c2.2-1.9,4.3-3.7,6-6   C470,85.1,468.8,86.8,468.1,88.6z" />
	<path fill="#3B342B" d="M491.8,57.9c0.2,0.4,0.4,0.8,0.6,1.4c-0.5,0-0.9,0-1.3,0c-4.2-5-9.4-9.2-12.8-14.8c0.3-0.2,0.6-0.4,0.9-0.6   C483.3,48.7,488,52.8,491.8,57.9z" />
	<path fill="#B9AA8E" d="M493,50.7c0,0.5,0.1,0.9,0.1,1.4c-2.2-0.1-3-4.6-4.9-4.7c0.2,0.1,0.3,0.2,0.5,0.3c0.4,1.5,0.9,2.9,1.6,4.3   c-0.8-0.5-1.6-0.9-2.4-1.4c0.9-1.3-1-2.5-1.5-3.7c0.7-0.2,0.7-0.7,0.7-1.3c1.7,0.8,3.4,1.5,4.8,2.2C492.4,49,492.7,49.8,493,50.7z" />
	<path fill="#5C4C41" d="M493,50.7c-0.3-0.8-0.6-1.7-1-2.8c-1.6-0.9-4.2-1.4-5.6-3c0.3-0.3,0.5-0.5,0.8-0.8c2.1,1.2,4.1,2.8,6.6,2.9   C493.6,48.2,493.3,49.4,493,50.7z" />
	<path fill="#615245" d="M488.7,47.7c2.1,0.8,2.1,4.1,4.4,4.4c-0.3,0.8-0.5,1.5-0.8,2.3C490.5,52.5,489.3,50.2,488.7,47.7   L488.7,47.7z" />
	<path fill="#988871" d="M486.5,47c0.5,1.2,2.3,2.4,1.5,3.7C486.8,50,485.3,48.1,486.5,47z" />
	<path fill="#0F0F0B" d="M531.1,180.2c-1-0.8-1-0.8-0.7-2.4C531.4,178.7,531.4,178.7,531.1,180.2z" />
	<path fill="#3D2319" d="M529.1,173.1c0.4,0.3,0.9,0.6,1.4,1c-0.5,0.4-0.7,0.6-1,0.8C528.6,174.5,529.1,173.7,529.1,173.1   L529.1,173.1z" />
	<path fill="#43342B" d="M481.3,33.1c3.2,1.7,6.4,3.4,9.6,5.1c-0.2,0.3-0.5,0.5-0.7,0.8c-3.4-1.1-6.3-3.5-9.6-4.5   C480.1,33.7,480.8,33.5,481.3,33.1z" />
	<path fill="#746453" d="M489.5,41c1.4,0.4,3,0.6,4.3,1.8c-1.7,0.2-2.8,0-5.1-0.9C488.9,41.6,489.2,41.3,489.5,41z" />
	<path fill="#080605" d="M474.1,35.9c-0.1-1.4-0.1-2.8-0.2-4.2c0.2-0.1,0.3-0.3,0.5-0.4C475,33.9,475,34.3,474.1,35.9z" />
	<path fill="#949078" d="M487.3,41.7c-0.6,0.1-1.3,0-1.6,0.8c-0.7-0.6-1.4-1.2-2.8-2.3C485.1,40.5,486.3,40.9,487.3,41.7z" />
	<path fill="#8D8670" d="M480.6,34.4c1.2,0.1,2.2,0.5,3,1.5c-0.2,0.2-0.5,0.5-0.7,0.7C482.1,35.9,481.3,35.2,480.6,34.4z" />
	<path fill="#574C3F" d="M490.1,59.4c0.6,2.8,4.9,4,3.7,7.2c-1.7-2.2-3.5-4.5-5.5-7.1c-4.3-0.5-7-5.8-9.2-9.2   c2.3-0.3,3.9,4.4,5.7,5.8C486,58.2,488.5,57.7,490.1,59.4z" />
	<path fill="#453E34" d="M469.6,26.4c0.5-0.5,1-1,1.6-1.4c0,0,0,0,0,0c0.2,0.1,0.4,0.1,0.6,0.1c-1.1,3.4,0,7.2-1.6,10.3   C468.3,32.7,471.3,27.6,469.6,26.4z" />
	<path fill="#CCB799" d="M471.8,25.1c-0.2,0-0.4,0-0.6-0.1c0.2-0.3,0.5-0.5,0.7-0.8C471.8,24.5,471.8,24.8,471.8,25.1z" />
	<path fill="#CCB799" d="M469.6,26.4c0.8,0.2,0.8,0.8,0.6,1.4c-1.4,3.2,0,6.4,0.1,9.7c-1.5,1.4-0.6,4-2.2,5.1   c-1.5-2.7-1.3-5.7-1.4-8.7c0-0.7,0.5-1.7-0.6-2.2C466.8,29.7,467.4,27.5,469.6,26.4z" />
	<path fill="#302825" d="M394.8,434c1.8-2.4,2.6-5.9,5.4-7.4c-0.1,2.9-3.3,5.4-4.6,8.2C395.3,434.6,395,434.3,394.8,434z" />
	<path fill="#282220" d="M419.6,396.6c0.7,2.8-0.2,5.3-2.7,6.7C416.8,400.6,418.3,398.9,419.6,396.6z" />
	<path fill="#443733" d="M441.1,395.9c-0.9,0.5-1.8,1.1-2.7,1.6c-0.3-0.3-0.7-0.6-1-0.9c1-1,1.8-2.3,3.5-2.9   C440.9,394.7,441,395.3,441.1,395.9L441.1,395.9z" />
	<path fill="#473B37" d="M400.1,422.6c-0.1-2.4,0.1-3.1,1.7-6.1C402.6,418.8,402,421.4,400.1,422.6z" />
	<path fill="#806D65" d="M377.8,457.1c0.3-2.8,0.4-2.8,2.8-2.9C380.1,455.5,379,456.1,377.8,457.1z" />
	<path fill="#63544E" d="M387.3,444.4c0.5-1.2,1.1-2.4,2.8-2.3c-0.1,1.3-1,1.8-1.7,2.4C388,444.5,387.6,444.4,387.3,444.4z" />
	<path fill="#B8A79B" d="M394.1,437.1c-0.7,1-1.4,1.9-2.2,3c-0.1-1.7-0.1-1.7,1.3-3.8C393.5,436.5,393.8,436.8,394.1,437.1z" />
	<path fill="#816D65" d="M426,405.2c1.1-1.8,1.1-1.7,2.4-1.3C427.6,404.9,427.6,404.9,426,405.2z" />
	<path fill="#64524C" d="M425.3,384.4c0.9-1.4,1.4-2.1,1.9-3C428.2,382.5,427.5,384,425.3,384.4z" />
	<path fill="#4D443E" d="M394.1,437.1c-0.3-0.3-0.6-0.5-0.9-0.8c0.5-0.7,1-1.5,1.5-2.2c0.3,0.3,0.5,0.6,0.8,0.8   C395.1,435.6,394.6,436.3,394.1,437.1z" />
	<path fill="#4B3C37" d="M437.3,396.7c0.3,0.3,0.7,0.6,1,0.9c-0.8,0.5-1.6,0.9-2.4,1.4c-0.4,0-0.7,0-1.1-0.1   C435.7,398.1,436.5,397.4,437.3,396.7z" />
	<path fill="#71655D" d="M422.2,393.5c-0.5-1.2-0.2-1.9,0.9-2.4C423.8,392.2,423.4,393,422.2,393.5z" />
	<path fill="#583F3C" d="M429.6,402.4c0.2-1.1,2-1.3,1.6-0.1C430.6,402.3,430,402.8,429.6,402.4z" />
	<path fill="#7D756C" d="M434.9,398.9c0.4,0,0.7,0,1.1,0.1c-0.7,0.8-1.5,1.3-2.8,1.4C433.4,399.2,434,398.8,434.9,398.9z" />
	<path fill="#A0968A" d="M387.3,444.4c0.4,0,0.7,0.1,1.1,0.1c-0.4,0.7-0.9,1.3-2.3,1.3C386.6,445.1,386.9,444.8,387.3,444.4z" />
	<path fill="#453D38" d="M423.7,388.2c0.3-0.4,0.5-0.7,0.8-1.2C424.9,388.5,424.9,388.5,423.7,388.2z" />
	<path fill="#26201E" d="M531.2,416.5c2.2-2.9,4.4-5.9,6.6-8.8c0.3,0.3,0.6,0.6,0.9,0.9c-1.5,3.5-3.6,6.4-6.7,8.7   C531.8,417,531.5,416.8,531.2,416.5z" />
	<path fill="#241D1B" d="M462.3,465.6c-0.8,3-2.1,4.9-4.7,6.9c-0.3-0.2-0.6-0.3-1.1-0.6C458,469.7,459.5,466,462.3,465.6   L462.3,465.6z" />
	<path fill="#332623" d="M521.5,424.6c1.2-1.7,2.5-3.2,4.3-4.3c0.4,0.3,0.6,0.5,1.1,0.9C525.8,423,523.8,424.9,521.5,424.6z" />
	<path fill="#1F1C1A" d="M558.8,392.6c0,1.7-0.3,3.2-2.3,4.2C556.4,394.8,557.1,393.4,558.8,392.6z" />
	<path fill="#3D3430" d="M462.3,465.7c0.9-1.5,1.5-3.2,3.5-4.3C466,463.5,464.6,465.8,462.3,465.7L462.3,465.7z" />
	<path fill="#3E332F" d="M555.6,400.6c-0.3,1.2-0.9,2.1-2.3,2.8c-0.5-1.7,0.8-2.4,1.5-3.7C555.1,400,555.4,400.3,555.6,400.6z" />
	<path fill="#7A655D" d="M470.4,455c0.5-0.6,1-1.2,1.6-2C472.3,455,472.1,455.3,470.4,455z" />
	<path fill="#5E544D" d="M531.2,416.5c0.3,0.3,0.5,0.5,0.8,0.8c-0.4,0.9-1.1,1.4-2.3,1.4C529.7,417.5,530.4,416.9,531.2,416.5z" />
	<path fill="#362A27" d="M516.5,428.2c0.6-0.9,1.2-1.5,2.2-0.2c-0.5,0.4-0.9,0.8-1.3,1.2C517.1,428.8,516.8,428.5,516.5,428.2z" />
	<path fill="#4A3935" d="M467.5,458.9c0.5-0.7,1.1-1.3,2.1-2.6C469.6,458.3,469.1,459.1,467.5,458.9z" />
	<path fill="#170E0D" d="M538.6,385.8c0.7,0.3,1.5,0.6,2.3,0.9c-0.1,0.5-0.2,0.8-0.3,1.2c-0.7,0-1.4-0.4-2.1-0.6   C538.6,386.7,538.6,386.2,538.6,385.8L538.6,385.8z" />
	<path fill="#6A554F" d="M474.7,452.2c-0.8-1.3-0.4-1.8,1.1-2C475.3,451.1,475,451.6,474.7,452.2z" />
	<path fill="#6C5953" d="M555.6,400.6c-0.3-0.3-0.5-0.6-0.8-0.9c0.3-0.7,0.6-1.4,1-2.4C556.6,398.8,556.4,399.7,555.6,400.6z" />
	<path fill="#68655D" d="M521.5,424.6c0.3,0,0.7,0.1,1,0.1c-0.6,0.6-1.3,1.2-2,2C520.1,425.3,520.8,424.9,521.5,424.6z" />
	<path fill="#7E766E" d="M516.5,428.2c0.3,0.3,0.6,0.6,0.9,0.9c-0.6,0.5-1.2,1-2,1.6C515.8,429.2,515.8,429.2,516.5,428.2z" />
	<path fill="#58423E" d="M538.7,408.6c-0.3-0.3-0.6-0.6-0.9-0.9c0.3-0.4,0.7-0.9,1-1.4C539.8,407.4,539.4,408,538.7,408.6z" />
	<path fill="#B89E91" d="M561.4,391.7c-0.5,0.2-0.7,0.4-1,0.5C559.6,391.1,560.6,390.6,561.4,391.7z" />
	<path fill="#E1C7B6" d="M538.6,385.8c0,0.5-0.1,1-0.1,1.4C537.6,386.5,537.6,386.3,538.6,385.8z" />
	<path fill="#462825" d="M510.1,432.9c0.4-0.1,0.8-0.2,1.2-0.2c0,0.2,0.1,0.3,0.1,0.5c-0.4,0.1-0.8,0.1-1.2,0.2   C510.1,433.2,510.1,433.1,510.1,432.9z" />
	<path fill="#E1C7B6" d="M538.6,387.2c0.6,0.2,1.1,0.4,1.7,0.6C539.6,388,538.9,388.1,538.6,387.2z" />
	<path fill="#282320" d="M341.4,509c-0.2,2.2-0.2,4.4-0.9,6.5c0,0,0,0,0,0c-0.6,0-1.1,0.1-1.8,0.1c-0.9-2.8,1-4.5,1.9-6.6   C340.9,508.9,341.1,509,341.4,509z" />
	<path fill="#251F1D" d="M341.4,509c-0.3,0-0.5,0-0.8,0c0.2-2.3,1.8-3.9,3-5.8c0.2,0.5,0.5,1,0.7,1.5C343.8,506.3,343,508,341.4,509   z" />
	<path fill="#6A5C54" d="M344.3,504.6c-0.2-0.5-0.5-1-0.7-1.5c0.6-1.3,0.4-3,2.4-4C345.8,501.3,344.9,502.9,344.3,504.6z" />
	<path fill="#64554E" d="M351.8,486.1c-0.6-1-0.3-1.6,1-2C353,485.1,352.7,485.7,351.8,486.1z" />
	<path fill="#594C46" d="M349.7,491.1c-0.6-1.2-0.2-1.7,0.8-2C351.2,490.1,350.7,490.6,349.7,491.1z" />
	<path fill="#56403A" d="M346.8,496c0.2-0.6,0.2-1.4,1-1.6c1.1,0.4-0.1,1.4-0.4,1.9C347.2,496.2,347,496.1,346.8,496z" />
	<path fill="#653328" d="M440.9,298.9c-2.2,0.7-4.2,0.5-6.4-0.8C438.7,297.4,439.9,297.6,440.9,298.9z" />
	<path fill="#362F27" d="M452,530.2c-0.5,0-0.9,0-1.4,0c-5.3-7.6-10.9-15-15.2-23.1c1.2-1.2,1.9,1.1,2.5,1.8   C441.8,516.6,448.4,522.6,452,530.2z" />
	<path fill="#CCB799" d="M471.2,25c-0.3,0.2-0.5,0.4-0.8,0.6C470.6,25.4,470.9,25.2,471.2,25z" />
	<path fill="#7D7964" d="M471.9,77c0.7,1.1-0.8,1-1.5,1.4C470.8,77.9,471.4,77.5,471.9,77z" />
	<path fill="#C2AB90" d="M523.2,14.8c-0.7,0-1.3,0-2.2,0c1,1,1.9,1.9,2.8,2.8c-2.2,0.5-4.9-3.8-6.5-1.5c-2-0.2-4-0.4-5.9-1.8   c4.7-1.6,9-1.6,13.3,0.3C524.2,14.6,523.7,14.7,523.2,14.8z" />
	<path fill="#D1C0A0" d="M494.5,16.7c1,0.9,2,1.6,3.3,1.9c-3.6,1.8-7.4,0.9-11.2,1.4l-0.2-0.2C489,18.3,491.7,17.3,494.5,16.7z" />
	<path fill="#41332B" d="M494.5,16.7c-3.6-0.1-8.1,4.7-10.8,3.2c3.1-1.7,7.7-5.4,11.1-3.7C494.7,16.4,494.6,16.5,494.5,16.7z" />
	<path fill="#6B5C4E" d="M505.6,19c2,0.7,4.1,1,5.9,2.2c-1,0.5-1.9,0.9-2.9,1.4c0,0,0,0.3,0,0.3c-0.9-0.4-1.8-0.7-3.1-1.3   c0.9-0.3,1.5-0.5,2-0.7c-0.6-0.4-1.3-0.7-1.9-1.1C505.6,19.6,505.6,19.3,505.6,19z" />
	<path fill="#BEAF94" d="M490.9,16.2c-2.4,1.3-5.1,1.9-7.3,3.8c-0.3-0.3-0.6-0.6-1-1c2.3-1.1,4.6-2.3,6.8-3.4   C490,15.7,490.5,15.9,490.9,16.2z" />
	<path fill="#B79E87" d="M509.3,7.4c0,0.2,0,0.5,0,0.7c-2.2,1.6-5.6,1.7-8.2,2.8c-0.5-0.2-1-0.5-1.4-0.7   C502.7,8.6,506.2,8.6,509.3,7.4z" />
	<path fill="#C7AF95" d="M498.2,14.5c2.3-0.7,5.2-1.3,7.6-1.1c-0.7,2.4-4.9,0.7-6.9,1.9C498.7,15.1,498.4,14.8,498.2,14.5z" />
	<path fill="#6F6252" d="M510.8,16.8c-0.3,0.3-0.5,0.5-0.8,0.8c-1.8-0.4-3.7-0.6-5.1-2.1c0.7,0,1.3,0,2,0c0.4,0.6,1,0.6,1.6,0.5   C509.3,16.2,510.1,16.5,510.8,16.8z" />
	<path fill="#64574A" d="M517.4,16.1c1.3-2,4,1.1,5.6,1.5c0.1,0.2,0.1,0.4,0.2,0.6c-0.5,0.1-1,0.1-1.4,0.2   C520.6,17.1,519,16.5,517.4,16.1z" />
	<path fill="#866D5D" d="M499.6,10.2c0.5,0.2,1,0.5,1.4,0.7c-1.4,0.5-2.9,1-4.3,1.5c-0.3-0.3-0.5-0.5-0.8-0.8   c0.1-0.2,0.1-0.4,0.2-0.6C497.3,10.7,498.5,10.4,499.6,10.2z" />
	<path fill="#A78F77" d="M505.6,19c0,0.3,0,0.6,0,0.8c-0.9-0.4-4.1-1.1-2.2-2.3C504.1,18,504.8,18.5,505.6,19z" />
	<path fill="#826254" d="M498.2,14.5c0.2,0.3,0.5,0.5,0.7,0.8c-1,0.2-1.9,0.5-2.9,0.7c-0.3-0.2-0.5-0.5-0.8-0.7   C496,14.4,497.2,14.7,498.2,14.5z" />
	<path fill="#452A24" d="M495.2,15.3c0.3,0.2,0.5,0.5,0.8,0.7c-0.4,0.1-0.8,0.1-1.3,0.2c-0.3-0.2-0.6-0.4-0.9-0.6   C494.3,15.5,494.8,15.4,495.2,15.3z" />
	<path fill="#4A3B32" d="M527.8,15.3c-0.8,0-1.8,0.4-2.4-0.5C526.3,14.6,527.1,14.7,527.8,15.3z" />
	<path fill="#BEAF94" d="M493.2,15.5c-0.5,0.2-1.1,0.3-1.6,0.5C492,15.3,492.6,15.3,493.2,15.5z" />
	<path fill="#D3BE9F" d="M508.5,16c-0.6,0.1-1.2,0.1-1.6-0.5C507.6,15.3,508.1,15.3,508.5,16z" />
	<path fill="#F6D9C7" d="M521.7,18.4c0.5-0.1,1-0.1,1.4-0.2C522.5,19.2,522.5,19.2,521.7,18.4z" />
	<path fill="#F6D9C7" d="M523.9,17.8c0.2,0.2,0.4,0.4,0.6,0.6C524.3,18.1,524.1,17.9,523.9,17.8z" />
	<path fill="#BEAF94" d="M490.1,15.3c0.3-0.2,0.6-0.3,0.8-0.5C490.7,15,490.4,15.2,490.1,15.3z" />
	<path fill="#F5E0BF" d="M503.4,28.5c0.9,0.3,1.9,0.6,2.8,0.9c-3.8,2.1-8.2-1.4-12.4-0.9c-2.7-1.5-6.1-0.2-9.9-0.6   c5.4,3.2,11,3.9,16,6.2c-2,0.4-1.9,0.2-3.7-0.2c-4.8-2-10.2-0.8-14.2-4.6c0.1-1.7-0.2-3.4-0.7-5c1.9-0.3,3.8-1.2,5.8-0.8   C491.2,27.6,498.1,27,503.4,28.5z" />
	<path fill="#56473C" d="M506.9,35.9c0.3,0,0.7,0.1,1,0.1c-2.1,2-4.4,1.7-6.9,0.8c1.1-0.2,3.2-0.1,1.5-1.7c1-0.4,2-0.9,3.1-1.3   c0.4,0.1,0.8,0.1,1.3,0.2c-0.2,0.5-0.4,0.9-0.6,1.3c-0.4,0.1-0.9,0.1-1.3,0.2c0,0.1,0,0.2,0,0.4C505.7,35.8,506.3,35.7,506.9,35.9z   " />
	<path fill="#624F42" d="M486.5,32.2c3.2,0.7,6.4,2.1,9.7,2.9c-3.1,2.1-6.8-0.7-9.7-2C486.5,32.7,486.5,32.4,486.5,32.2z" />
	<path fill="#271B16" d="M494.6,35.9c2.3-1.6,5.3-0.6,7.9-0.8C504.9,38.4,496.2,35.8,494.6,35.9z" />
	<path fill="#96846F" d="M503.4,28.5c-2.5-0.5-4.9-1-7.4-1.4c-0.2-0.4-0.3-0.8-0.6-1.4c3,0.5,5.8,1,8.6,1.5c0,0.2,0,0.4,0.1,0.6   C503.9,28,503.7,28.3,503.4,28.5z" />
	<path fill="#AC937C" d="M486.5,32.2c0,0.3,0,0.5,0,0.8c-2.1-0.5-3.7-2-6.1-3.2c0.9-0.3,1.3-0.4,1.7-0.5   C483.6,30.2,485.1,31.2,486.5,32.2z" />
	<path fill="#7E6F5D" d="M485.7,23.3c-2.1,0.4-4,1.2-6.1,0.8C481.1,22.7,483.4,22,485.7,23.3z" />
	<path fill="#A09079" d="M490.2,38.9c0.2-0.3,0.5-0.5,0.7-0.8c1.9,0.8,3.7,1.6,5.6,2.4C494.1,40.8,492.1,40,490.2,38.9z" />
	<path fill="#A18872" d="M485.7,23.3c-0.5-0.2-1-0.5-1.5-0.7c1.7-1.2,4.2-0.5,6.3-0.3C488.9,22.8,487.4,23.8,485.7,23.3z" />
	<path fill="#6B5C4E" d="M512.8,21.4c0.7,0,1.3,0,2,0c0.3,1.5-1.3,1.1-1.9,2.1c-1-0.1-2.2,0.2-3.1-0.6   C511,22.6,512.4,22.9,512.8,21.4z" />
	<path fill="#A4967F" d="M500.5,43.2c-1-0.4-1.9-0.7-3-0.8c1-1.1,3-0.8,4.4-1.3c0.2,0.3,0.5,0.6,0.7,0.9   C501.9,42.3,501.2,42.7,500.5,43.2z" />
	<path fill="#2C1A17" d="M512.8,21.4c-0.7,1.8-2.8,1.5-4.3,1.2c1-0.5,1.9-0.9,2.9-1.4C511.9,21.3,512.4,21.3,512.8,21.4z" />
	<path fill="#766C63" d="M497.6,53.4c-0.3,0-0.6,0-0.9,0.1c-0.9-0.5-1.7-1.2-1.8-2.4c0.8-0.9,0.8-1.7,0-2.6c0.9-1.3,1.8-2.5,2.8-3.8   c0.3,0,0.5,0,0.8,0.1c-0.4,1.2-3.2,3.3-1.6,4.3c0,0.3-0.1,0.6-0.1,0.9C495.1,51.1,496.9,52.5,497.6,53.4z" />
	<path fill="#E0CCB9" d="M496.9,57c0,0.8-0.1,1.6-0.1,2.4c-1.5-1.2-4.5-3.2-2.2-5.1C495.3,55.2,496.1,56.1,496.9,57z" />
	<path fill="#B7A699" d="M494.8,48.5c0.8,0.9,0.8,1.7,0,2.6C494.8,50.3,494.8,49.4,494.8,48.5z" />
	<path fill="#F6D9C7" d="M530.5,44c0.3-1.1,1.2-1.4,2.2-1.5c-0.1,0.6-0.1,1.1-0.2,1.8C531.8,44.2,531.1,44.1,530.5,44z" />
	<path fill="#C8B3A4" d="M496.6,50c0.1-1.4,1.2-2.5,2.4-3.2c0.3,0.4,0.5,0.6,0.7,0.9c-0.1,0.2-0.2,0.4-0.3,0.7c1,0.1,1.9,0,2.4,1.2   c-1,0.9-2.8,1.4-2.1,3.3l0.1-0.1C497.9,52.8,497,51.6,496.6,50z" />
	<path fill="#23201D" d="M499.7,47.6c-0.2-0.3-0.4-0.5-0.7-0.9c-1.1,0.5-1.7,1.5-2.3,2.3c-1.6-1,1.2-3,1.6-4.3   c1.4,0.5,2.2,1.6,3,2.8C500.8,47.6,500.2,47.6,499.7,47.6z" />
	<path fill="#C8B3A4" d="M499.7,52.8c0.1,0.1,0.2,0.2,0.2,0.2C499.9,53,499.8,52.9,499.7,52.8L499.7,52.8z" />
	<path fill="#B9A78C" d="M503.3,30.1c1.1,0,2.1,0,2.9-0.7c1,0.2,1.9,0.5,2.9,0.7c-0.3,0.6-0.5,1-0.7,1.4l0,0   c-1.7,0.3-3.6,1.7-5.2,0.2c0.8-0.1,1.7-0.2,2.9-0.4C505,30.8,504.2,30.5,503.3,30.1z" />
	<path fill="#F6D9C7" d="M525.4,16.9c-0.2-0.2-0.5-0.5-0.7-0.7C524.9,16.4,525.2,16.6,525.4,16.9z" />
	<path fill="#D7BFA0" d="M503.3,31.7c0.9,1,2.1,0.4,3.1,0.6c-0.3,0.5-0.5,1-0.8,1.5c-5.5,2.9-12.4,1-17.7-1.4   c4.4-0.8,7.8,2.6,12.2,1.8c-5-2.3-10.6-3-16-6.2c3.8,0.4,7.2-0.9,9.9,0.6c-0.1,0.2-0.2,0.3-0.3,0.6   C496.8,29.9,500.1,30.8,503.3,31.7z" />
	<path fill="#A9B89B" d="M506.2,35.8c-0.4,0-0.8,0-1.2,0c0-0.1,0-0.2,0-0.4c0.4-0.1,0.9-0.1,1.3-0.2   C506.3,35.4,506.3,35.6,506.2,35.8z" />
	<path fill="#F6D9C7" d="M508.4,33c0,0.2-0.1,0.4-0.1,0.6C508.2,33.3,508.1,33.1,508.4,33z" />
	<path fill="#352E27" d="M507.9,31.6c0.2-0.1,0.4-0.1,0.7-0.1c-0.1,0.2-0.2,0.4-0.3,0.6C508.1,31.9,508,31.7,507.9,31.6z" />
	<path fill="#615245" d="M488.7,47.6c-0.2-0.1-0.3-0.2-0.5-0.3C488.8,46.9,488.6,47.5,488.7,47.6L488.7,47.6z" />
	<path fill="#B79F85" d="M499.8,30.7c-2.1-0.5-4.2-1.1-6.3-1.6c0.1-0.2,0.2-0.4,0.3-0.6c2.8,0.1,5.5,0.5,8.1,1.4   C501.3,30.3,500.2,29.6,499.8,30.7z" />
	<path fill="#6C584A" d="M499.8,30.7c1.8-1.8,4.2-0.2,6.5,0.5C503.7,31.9,502.1,31.4,499.8,30.7z" />
</g>
</svg>