<?xml version='1.0' encoding='utf-8'?>
<svg xmlns="http://www.w3.org/2000/svg" version="1.2" baseProfile="tiny" id="Layer_2_00000075876004765709671360000006402141900365091001_" x="0px" y="0px" viewBox="0 0 900 600" overflow="visible" xml:space="preserve">
<g>
	<path d="M460.3,45.8c6.1,7.3,10.1,16.2,13.2,25.4c10.2,2,20.1,4.7,29,9.9c23.7-1.9,36,24.1,34.3,44.7c0,2,0.8,3.6,2.2,4.9   c9.3,7.5,6.8,18.8,8,29.2c-0.7,7.3,4.5,13.6,3.6,20.8c-3.1,14.7-4.7,30.1-13,43c-3,8.3-10.4,14.8-12.3,23.3   c-0.9,7.4-6.4,12.4-9.6,18.9c2.3,4.3,4.4,8.6,5.9,13.3c-1.3,2-0.8,4.2-0.2,6.3c3.2,10.3,6.1,20.7,8.6,31.2   c4.1,21.4,11.5,41,18.9,61.4c-3.2,4-7.8,5.3-12.1,6.9c-1,3.3-1,3.6,0.4,6.4c-3.3,6.6,2,11.4,3.4,17.6c2.6,6.5,2.5,13.8,5.2,20.2   c4.4,6.2,6.2,13.3,7.2,20.7c2.7,26.9,5.7,53.9,7.6,80.8c0.9,1,1.9,1,2.9,0.7c10.7-2.3,11.7,11.5,11.9,19   c1.4,11.8,28.2,29.5,18.3,41.9c-0.6-0.4-1.2-0.9-2-1.4c-5.2,2.5-11.5-0.3-16.8,2.9c-5.9,2.1-12.1-1.5-18-2.4   c-3.4-0.6-4.2-3.1-4.4-6.3c-3.7-2.8-7.7,0.7-11.4-1c-2.2-1.3-6.2-2.1-5.5-5.5c2.3-7.2,1.3-15.3,3.1-22.5c2.7-2.7-1.3-6.6,1.9-9.2   c-3.9-19.7-9.7-38.4-18.5-56.5c-5.6-9-12.6-17-14-28c-1.9-10.4,2.1-22.3-3.3-31.7c-0.5,0.2-0.8,0.3-1.1,0.4   c-3.3-9.2-12.9-18.5-9.8-28.5c-0.5-1.5-1.1-3.1-1.8-4.8c-3.9,1.1-7.9,0.9-11.2,3.4c-1.5-1-3-1.7-2.6-3.7c-5.3-20-14.3-38.5-22-57.7   c-3.5,6.3-5.1,12.2-5.8,19.1c-2.3,13.1-7.8,25.3-7.9,38.8c0.3,4.2-16.7,4.3-20.5,4.9c-0.8,2.1-1.6,4.1-2.3,6   c2.9,10.6-6.4,19.2-9.8,28.6c-8,2.5-1.2,30.8-6.9,39.8c-1.9,7.5-7.9,12.6-11.5,19.1c-1.7,5.2-4,10-6.4,14.9   c-7.1,13-8.1,28.1-12.1,41.9c2.7,3-0.8,6.8,1.9,9.6c1.1,3.4,0.6,7.4,1.3,10.9c-0.7,4.7,4.6,12.8-0.7,15.2c-4.7,4-8.7,0.5-14,1.7   c-2.8,16-30.4,7.3-42,8c-8.3-14.2,16.5-28.6,18.6-41.7c0.5-10.4,1.1-21,14.5-19.4c4.2-31.6,3.2-64.5,11.4-95.5   c5.7-8.2,6.1-18,9-27.3c2.3-7,6-10.5,3.1-18.3c-1.8-0.5-3.8-1.1-5.9-1.7c-6-16.9,8.3-22.5,7.8-42c0.8-15.1,4.3-29.6,8.2-44   c2-10.4,8.8-20.8,4.2-31.2c0.6,0.4,1.1,0.9,1.9,1.5c1.5-8.7-4.9-13.7,5-19.8c-0.3-4,2.3-5.8,5.2-8.1c0.3-2.9-1.1-7.5,2.2-9.2   c-1.4-26.3-12-52.1-8.8-78.8c-9.1-13.8-13.5-29.8-17.3-45.6c-16.4-9.3-36.8-11.6-50.5-25.3c-8.9-10.9-21.1-21.8-24-36   C331.2,25.2,369,9.2,409,3c0.8,0.4,1.8-0.2,2.4,0.8c-38.4,8.2-76,24.4-103.9,52.9c0.6,11.5,12.6,19,18.1,28.7   c12.8,15.8,34.9,18.9,52.1,28.1c1.1-0.2,1.9-0.3,2.9-0.4c3.4,7.9,5.9,16,8.9,24.1c0.5-0.2,0.9-0.3,1.2-0.3c1,2.4,2.1,4.9,3.2,7.5   c5.4-2.8,9.3-6.6,13.4-10.9c-3.7-8.2-9.7-14.1-12.3-22.8c-4.9-2.2-9.8-5.2-14.7-7.4c5.3-1.1,9.6,2.6,14.3,4.8   c-0.5-6.2-1-12.9-3.6-18.6c0.3-0.2,0.5-0.5,0.8-0.7c0.4,0,0.7,0.1,1.3,0.1c4.3,13.6,6.2,29.6,18.3,38.9c9.2-12,20.5-29.3,13.3-44.7   c-11.6-1-20.3-14.9-32.7-11.7c-17.1,5-12.6-4.7-29.8-10.6c6.7-2.6,14.1,3.9,18.2,9.2c14.1-5.1,23.3-1.6,35.9,5.3   c-0.3-2.2-0.4-2.6-2.4-2.7c-0.3-0.6-0.9-0.7-1.5-0.6c0,0,0,0,0,0c3-2.6,5.5,3.5,8.4,0.6c6.8,0.2,11.8,5.1,17.4,8.3   c-1.7,1.3-1.9,2.3-0.1,3.8c0.1,0.6,0,1.1-0.6,1.4c-1-1.1-2.3-1.7-3.5-2.4c-0.3-0.6-0.6-1-1.8-0.9c8.5,20.8,12.9,51.2,43.5,38.6   c0.3,0.3,0.6,0.5,0.9,0.8c-5.9,6.2-16.6,5.6-24,2.8c-0.9,3.3-1.2,6.7-3.9,9.1c-2.2-2.6,2.1-7.3,1.3-10.6   c-14.4-7.2-12.9-22.8-18.3-35.6c-2.3,23.9-15.4,48.5-36.2,60.8c5.3,16,2.5,32.5,5.9,49c1,15.3,9.7,31.4,5.5,46.3   c4.1,1,8.1,2,12.3,2.3c1.7,1.5,3.6,0.7,5.7,0.6c-1.3-2.1-2.4-3.9-3.6-5.7c0.3-0.3,0.7-0.7,1-1c2.3,1.9,4.4,4,5.4,6.9   c18.4,1.8,37.7,0.7,56-2.3c1-1.9,1.8-3.6,2.7-5.2c0.3,0.3,0.6,0.5,0.9,0.8c-0.3,1.1-0.6,2.3-1,3.8c3.4-0.5,6.6-0.7,8.3-4.2   c-2.8-7.2,6.5-16.2,1.4-23.5c-2.8-8.3-0.6-17-0.8-25.6c-0.4-13.5-2.6-27.1,3-40c-11.6-6.3-10.1-21.4-10-33.1   c-1.1-12.7-1.2-25.5,2.5-37.7c-1.6-1-3.4-1.4-5.4-1.9c0.8,11.7-0.6,24-4.1,35.2c-1.9-4.5-0.3-10.6-0.8-15.7c0.4-0.3,0.8-0.5,1.4-1   c0.3-6.5-0.8-13.1,0.1-19.7c-2.1-0.9-4.3-1.9-6.5-1.9c-8.2-7.2-10-19.1-16.3-28C458.8,46,459.6,46,460.3,45.8z M407,249.5   c-0.1-0.8-0.2-1.7-1.4-1.9c-0.1,1.3-0.3,2.5-0.4,4c1.4,0.1,2.4,0.4,3.7,0.9c0.8-2-0.3-3.3-0.6-5.1C407.6,248.4,407.3,249,407,249.5   z M545,544.1c1-0.1,2.2,0.3,3-0.7c1.5-0.2,3.1,0.1,4.3-0.9c0.4-8.7-5.4-9.7,5.4-11.6c-6.3-33.3-0.6-70.4-14.5-101.5   c-2.9-2-1.1-5.9-2.3-8.5c-0.6-0.1-1.1-0.2-1.4-0.3c-0.6-5.7-1.4-10.4-4.1-15.3c0-1.1,0.7-2.3-0.6-3.1c-2.6-4.8-0.9-10.6-2.6-15.6   c-11.9,4.3-24.2,6.8-36.5,10c1.6,11.1,2.8,22.2,11,30.7c0.9,0.2,1.6,0.4,2.4,0.5c4.8,22.6-2.1,39,15.2,58.6c6.5,13,12,26.7,15.4,41   C541.9,531.1,540.3,546.8,545,544.1z M373.7,379.5c-2.8,3.7-3.2,7.7-2.9,12.2c22.3,7.4,46.3,8.5,69.5,5.3   c2.4-17.6,6.1-50.9,17-64.1c7.4,21.7,19.3,41.8,25.2,64.2c21-7.1,44.1-9.4,63.2-20.9c-18.8-32.2-16.8-73.7-33-106.6   c-1.8,1-3.6,2-5.4,3c0-0.4-0.1-0.7-0.1-1.1c7.5-6.5,13.3-15.8,16.2-25.3c-2-4.7,3-9.4,5.5-13c11.2-15.9,13.3-35.8,18.9-53.7   c-1.7-9.8-3.8-19.4-4.6-29.4c0.5-12.2-8.2-15.6-8.7-26.3c-1.1-17.1-9.1-34.3-26.8-39.6c-2.7-0.6-6,0.6-8.4-1.2   c-1.8-1.2-3.7-1.8-5.7-1.9c-5,18.8-7.2,52,5.3,67.7c3.9-5.9,6.9-11.3,9-17.9c0.5-0.1,0.8-0.9,1.7-0.3c1.4,2.7-1.9,6.5,1.1,8.7   c-2,13.7,9.2,24.2,14.3,35.9c-0.5,1-1.5,0.6-2.2,0.7c-9.3-6.2-10.7-19.4-14.9-29c-12.9,9.4-8.2,24.5-10,38.1   c-4,16.2,4.6,32.2,0,47.9c0.2,0.4,0.4,0.8,0.6,1.2c-0.2,1,0.8,1.3,1.1,2c-1.7,0.6-0.3,2.7-2,3.4c-4.1,2.4-5,8.3-9.9,9.1   c-0.1-0.4-0.2-0.8-0.3-1.2c-1.9-1.7-4.5,1-6.9,0.9c0,0.9,0,1.6,0,2.6c-0.6-1-1-1.7-1.4-2.4c-7,0.7-13.4,2-20.3,1.8   c-1.8-1.8-3.5,0.6-5.4,0.3c-0.8,1.3-1.4,2.3-2.1,3.4c-0.1-0.9-0.2-1.9-0.3-2.9c-8.2,0.5-16.5,0-24.8,0.1c-1.2-1.1-2.4-0.3-3.3,0.4   c-2.1-1.4-2.1-1.4-4,0.1c-0.2-2.6-3.9-1.8-5.7-2.4c-0.2,0.6-0.4,1.1-0.6,1.5c-0.6-1-0.7-2.5-2.6-2.2c-0.1,1.6,0.1,2.6,0.4,4.1   c4.2,0.4,8.1,0.4,12.1,1.5c-4.2,1.8-9.9-0.1-14.6,0.9c-1.1-1.7-3.6-0.8-5.5-1.5c-3,2.6-1.5,7.6-5,10.1c-5.8-3.3-0.9,14.5-2.2,17.8   c9.8,3.9,20.5,5.5,30.9,6.7c0.6,0.8,1.4,0.7,2.3,0.7l0,0c7.5,5.6,20.1,6.4,24.1,15.6c-0.3,0.4-0.7,0.8-1.1,1.3   c-17.1-14.4-36-16.1-56.5-21.1c-5.2,24.1-13.2,48.6-13.7,74.2C379.2,365.7,378.2,373.2,373.7,379.5L373.7,379.5z M353.1,560.9   c-4.2,0.6-9.1-0.8-13,1.2c0,0.1,0.1,0.3,0.1,0.4c3.5,0,7.1,0,10.6,0c0.2,0.5,0.5,1,0.7,1.4c-1.6,3.4-5.8,2.1-8.8,2.9   c-1.9-1-5.4-1.4-6.4,0.7c12.5-1.3,14.5,7.3-2.2,3c-4.7,3.2-18.5,20-11.9,24.3c4,0.6,9-1.1,12.3,1.9c7.3,1.6,15.7-1.5,23-3   c0.5-2.8,1.7-10.9,5.7-8.5c-0.2,0.7-0.4,1.4-0.6,2.4c4.2-1.2,9.2,0.5,12.5-2.1c-0.5-9.9-4.5-18.8-3.6-28.5   c-1.9,1.2-2.1,4.3-4.9,4.1c-2.3-3.9-5.8-5.9-8.5-9.2c-0.1-3.6,1.1-7,0.7-10.6c-17.7-3.9-16.1,1.6-18.2,16.5   c4.6,0.1,8.9,0.2,13.2,0.4c0.5,0.5,1.1,1,1.6,1.5l0,0C354.6,560,353.9,560.5,353.1,560.9z M578.3,590c3.3-2.2,13.2,0.8,13.9-3.2   c3.9-4.9-8.5-19.7-13-22.7c-3.6,0.7-9,3.1-12,0c0.6-0.9,1.1-1.6,1.5-2.2c2.9-0.8,5.3-0.1,8.3-1.4c-4.6-1.8-13.5,2.7-14.8-3.7   c3.4-1.8,7.4,0.6,10.8-1.4c-4.4-0.4-8.8-0.5-13.2-0.3c-0.5-0.5-1-0.9-1.5-1.4c3.3-3.6,10.1-0.4,14.7-1.8c-0.3-2.2,0.8-4.8-0.7-6.4   c-0.9-13-6.8-12.8-17.7-10.3c0.4,3.6,0.7,7,1.1,10.5c-3.1,2.9-6.5,5.5-8.6,9c-3.4,0.4-2.9-3.5-5-4.6c0.5,9.9-2.9,19.2-3.5,29.1   c3.8,3,8.6,1.4,12.9,2.3c-0.4-1.1-0.8-2-1.2-2.9c0.2-0.2,0.5-0.5,0.7-0.7c3.8,0.7,4.2,6.1,5,9.3C562.3,588.8,572,592.6,578.3,590z    M379.7,406.8c-1.6,1.2-1.7,2.8-1.4,4.6c-2.6,5-3.7,10.1-4.1,15.8c-0.5,0-1.1,0.1-1.9,0.2c-0.1,2.4,0.3,5.8-1.3,7.7   c-6.3,8.1-7.3,19.5-8.5,29.6c-0.8,24.5-5.2,48.9-6.2,73.4c1.8,0,3.4,0.1,5,0.1c0.5,0.5,0.9,1.1,1.3,1.6c-0.4,3.2-1.5,6.1-1.4,9.2   c1.9,0.4,3.6,0.7,5.3,1c0.9,1.4,2.7,0.4,4,0.8c3.1-17.8,8.4-35.7,15.8-52.4c3.9-8.9,11.9-15.3,14-25.1c4.1-12.7-0.2-26.9,4.6-39.2   c0.6-0.1,1.3-0.3,2-0.4c8.4-8.9,9.5-20,11.1-31.4c-8.2,0.1-15.8-0.8-23.9-2c-2.1,8.1,8.3,9.1,10.6,15c-4.9,0.4-7.7-4.2-11.8-5.5   c-2.9-3.4,1.2-10.6-4.3-10.5c-0.5-1.1-1.4-0.9-2.3-0.7c-2.1,0.1-4.1-1.4-6.5-0.7C380.9,401.1,380.3,404,379.7,406.8z M416.6,75.7   c1.8,1.1,3.1,1.9,4.6,2.8c0.8-0.7,2-0.6,2.8-1.4C422.5,73.2,419.7,75.5,416.6,75.7z M363.9,553.3c1,1.8,1.9,2.8,3.5,3.3   c0.5-0.8,0.8-1.5,1.4-2.5C367,553.8,365.7,553.6,363.9,553.3z M546.2,550.3c2.4-1.6,2.4-1.6,2.9-3.3c-1.4,0.4-2.8,0.7-4.4,1.1   C545.3,548.9,545.7,549.5,546.2,550.3z M409.5,129.9c0.1-0.1,0.2-0.1,0.2-0.2c-0.1-0.1-0.1-0.2-0.2-0.2c-0.1,0.1-0.2,0.2-0.2,0.3   C409.4,129.9,409.5,129.9,409.5,129.9z" />
	<path fill="#010000" d="M439.4,17.2c3,3.7,5.5,9.9,10.4,11.7c-0.5,0.5-1,1.1-1.5,1.6c0,0.7,0,1.4,0.1,2c0.9,1,1.1,1,2.6-0.1   c0.2,1,0.4,2,0.6,3c0.6,0,0.9,0,1.3,0c0.2,1.6,1.9,0.6,2.7,0.2l0,0c-0.1,1.6-1.8,2.1-2.6,3.4c0.4,0.7,1.1,1.4,1.3,2.2   c-0.3,0.3-0.6,0.6-0.8,0.9c-7.1-8-15.2-15.6-26-18.2c-0.1-1.2-1.3-1.1-2.2-1.7c-3.3,2.5-8.5,4.4-8.8,9.5c-2.2,1.7-2.2,1.7-4.6,1.7   c-1.9,1.6-4.4,2.1-5.7,4.3c-0.7-0.9-1.8-2.3-2.8-0.8c0.8,0.9,1.6,1.9,2.1,3c-2.1,1.9-5.4-0.5-7.4,2.2c0,0.4,0.1,0.7,0.2,1.3   c1.9-1.1,7-2.8,6.6,0.9c-0.5,1.3,0.2,2.4,0.6,3.4c4,7,6.7,14.3,11.8,20.9c-0.1,0.6,0,1.3-0.8,1.6c-0.2-0.1-0.5-0.1-0.7,0   c-1.5-0.9-1.6-2.8-3.2-3.6c-0.4,0.4-0.8,0.8-1.1,1.3c-0.2-0.1-0.2-0.3-0.2-0.5c0.3-2.6-2.3-1.3-1.3,0.7c-0.3-0.2-0.5-0.5-0.8-0.8   c0-1-0.2-1.9-1.4-2.2c-0.5,0.2-1.1,0.5-1.6,0.7c-1.4-1.9-0.6-4-0.5-6.1c-3.9-2.8-17.4-22.1-11.4-25.9c-0.2-1.4-0.4-2.6-0.5-3.7   c-1.2-0.5-2.3-1-3.5-1.6c0.4-0.8,0.7-1.4,1-2c-0.3-1.2-0.5-2.3-0.7-3.5c0.4-0.4,0.8-0.8,1.3-1.3c-1.2-0.4-2.2-0.7-3.2-1   c-15.8,10.1-29.3,23.3-39.1,39.1c-8.4,5.8,3.4-9.5,4.8-11.9c5.9-11.3,19.8-16.8,26.7-26.5c0.8,0.2,1.4,0.1,1.4-0.9   c0.8-0.9,1.6-1.8,2.4-2.6c0.6,0,1.1-0.1,1.7-0.2c-0.1,0.6-0.1,1-0.1,1.5c3-0.6,6.4-0.3,9.2,0.7c7.3,3.3,12.4-7.1,19.4-7.9l0.3,0.1   c5.3,0.5,10.6,1.2,13.9,6.4c1.9-0.1,4.4,0,6.4,0.7c0.5-0.2,1-0.4,1.5-0.7c1.1,1.2,1.6-0.6,1.5-1.5   C438.9,17.2,439.1,17.2,439.4,17.2z M419.5,20.8c-1.5,0.4-4.1-0.3-5,0.7c0.3,1.4,1.7,0.9,2.5,1.4c0,1-1.7,1.1-1.3,2.3   c-1,1.1-2.4-0.1-3.6,0.4c1,1.7,1,1.7,2.4,2.4c1.2-0.6,1.2-1.7,1.2-2.8C418.4,24.9,419,22.9,419.5,20.8c0.6-0.1,1.3,0,1.3-0.9   c-0.5-0.7-1-0.9-1.7-0.2C419.2,20.2,419.4,20.5,419.5,20.8z M405.4,33.9c-0.4-0.4-0.6-0.7-0.8-0.9c-0.6,0.3-1.3,0.9-1.8,0.8   c-1.7-0.3-2.1,1.9-0.5,2.3C403.2,35.4,404.3,34.6,405.4,33.9z M409.2,17.1c1.8-0.2,3.6,0.8,5-1.5C412.4,15.9,410.6,14.8,409.2,17.1   z M406.9,61.4c0.5,2.1,2.3,2.8,3,1.1C409,62.2,408.2,61.9,406.9,61.4z M444.7,29.5c-1.1-1.1-1.8-1.8-3-2.9   C442.4,29,442.5,29,444.7,29.5z M433.4,19.8c0.5,2,1.2,2,2.2,1.4C435,20.8,434.5,20.5,433.4,19.8z M409.3,60   c-0.6-0.8-0.8-0.8-1.5-0.2C408.3,60.6,408.5,60.6,409.3,60z M401.2,37.7c0-0.2,0-0.4,0-0.6c-0.7,0.1-1.3,0.1-2,0.2   c0,0.1,0,0.2,0,0.4C399.9,37.7,400.6,37.7,401.2,37.7z M415.6,15.7c-0.7,0.9-0.3,1.5,0.5,1.3C415.9,16.6,415.8,16.2,415.6,15.7z" />
	<path fill="#27201F" d="M437.1,18.6c-0.5,0.2-1,0.4-1.5,0.7c-1.4-4.4-4.6-7.8-8.8-9.7c0.5-0.2,1-0.4,1.5-0.7c4,1.5,10.1,3.4,11,8.2   c-0.3,0-0.5,0-0.8,0c-0.8-0.9-1.2-2.2-2.8-2.7C436.3,16,436.7,17.3,437.1,18.6z" />
	<path fill="#1F1A1A" d="M454,40.8c-0.4-0.6-0.7-1.2-1.1-1.7c0.9-1.3,2.5-1.8,2.6-3.4c2.7,2.3,4.3,6.5,4.7,10.1   c-0.7,0.2-1.5,0.1-1.8,1c-1.7-1.5-3.4-3.1-5-4.6c0.3-0.3,0.6-0.6,0.8-0.9c0.9,0.4,1.6,1.5,3,1c-0.8-1.5-0.7-3.2-2.1-4.6   C454.8,38.8,454.4,39.8,454,40.8z" />
	<path fill="#332625" d="M428.4,9c-0.5,0.2-1,0.4-1.5,0.7c-5.1-1.6-10.1-6.6-15.5-5.9c-0.6-1-1.6-0.4-2.4-0.8   C416,0.3,422.1,6.6,428.4,9z" />
	<path fill="#1F1A1A" d="M452.8,35.4c-0.4,0-0.7,0-1.3,0c-0.2-1-0.4-2-0.6-3c-1.5,1.1-1.7,1.1-2.6,0.1c0.4,0,0.7,0,1.2,0.1   c0-0.7,0-1.4,0-2.1c-0.6,0-0.9,0-1.3,0c0.5-0.5,1-1.1,1.5-1.6c0.6-0.1,1.2,0,1.5,0.7c0,0.2-0.8,0.1-0.3,0.6   c0.1-0.2,0.2-0.4,0.4-0.6c2.5,0.9,3,4,4.2,6.1C454.7,36.1,453,37.1,452.8,35.4c0.4-0.1,0.7-0.2,1.1-0.3c-0.5-1.2-0.9-1.9-1.8-2.9   C451.7,33.7,452.2,34.6,452.8,35.4z" />
	<path fill="#516363" d="M407.8,438.7c0.2-1.3,1.1-1.6,2.2-1.6C409.6,438.5,409.6,438.5,407.8,438.7z" />
	<path fill="#485B5B" d="M503.7,431.1c0.3-0.1,0.6-0.2,1.1-0.4c0.3,0.6,0.7,1.3,1,1.9C505,432.3,503.8,432.4,503.7,431.1z" />
	<path fill="#5876E8" d="M426.1,288c-2.2,0-4.4-0.1-6.5-0.9c0.2-2.6-1-5.9,0.1-8.1c7,1.2,13.8,4.6,20.4,6.6c0.2-0.3,0.3-0.6,0.6-1   c-3.7-3.9-10.3-3.5-14.3-6.7c-0.3-4.5-0.4-9.3,1.3-12.8c0.9,2.6,0.9,9.6,4.5,9.4c1-2.8,1.2-19.4-4.3-15.1l0,0.1   c-1.7-1.2-0.8-2.5-0.1-3.8c1.8-0.2,3.7,0.3,6-0.5c-2.6-0.4-4.7-0.8-6.8-1.1c0-1,0.1-1.9,0.1-2.9c3.1,0,6.3,0,9.4,0   c2.4,1.5,5.4-0.2,8,0.9c-0.6,9.4,13.5,4.8,19.7,4.6c-1.4-0.4-2.2-0.5-2.9-0.7c-0.8-1.4,0.2-3.1-1-4.2c0-0.4,0.1-0.8,0.1-1.3   c0.4,0,0.8-0.1,1.2-0.1c0,1.4,0.2,2.8,1.5,4c0-1.5,0-2.8,0-4.1c5.3-1.1,10.5-0.9,16-1.9c0.4,0.7,0.8,1.4,1.4,2.4c0-1,0-1.7,0-2.6   c1.4-0.3,2.7-0.6,4-0.9c0.5,0.5,1,1,1.5,1.5c-2.1,4.3-18.4,11.6-10.4,14.8c-1.8,1.8-1.5,4.2-2.1,6.3c2.3,2.3,5.5,1.5,8.7,0.4   c-4.9,3.7-9.4,4.5-1.6,8.8c1.9-0.7,3.6-1.3,5.4-1.9c5.6,7.7,19.2-4.4,26.7-7.5c16.2,32.9,14.2,74.4,33,106.6   c-14.8,9.1-32.7,12.4-49.5,16.7c-2.1-5-3.8-10.1-5.9-15.9c3.3,2.1,6.1,3.8,8.9,5.5c0.4-0.3,0.8-0.6,1.2-0.9   c-4.3-6.3-8.9-13-15-17.6c-1.3-4.2-3.1-7-4.5-11.1c2.7,1.5,5.1,2.7,7.8,4.2c-5.6-12.8-17.2-26.8-32.3-26.8   c-10.3,6.9-21.5,13.5-28.3,24.9c-1.3,2.6-9.2,13.2-6.4,14.6c10.4-9.4,19.1-20.8,29.8-29.9c0.3,3.6-1.7,7.3-2.8,10.8   c-11.3,3-10,18.6-16.2,26.5c-1.4,2.6-4.4,4-3.3,7.5c1.1-2.2,1.7-3.7,3.4-5.2l0,0c1.8,1.9,0.5,5.5,0.2,7.9   c4.4,3.7,9.9-19.4,11.7-22.6c1,0.5,0.5,1.5,0.7,2.3c-2.5,9.9-4.3,19.7-5,30c-16.3,2-32.7,2.9-48.9-0.6c-0.4-0.4-0.8-0.8-1.1-1.2   c5.2-22.3,11.1-44.5,15.5-66.9c0.9,2.8-0.9,23.7,3.3,21c0.6-7.4,2.5-15.1,3.2-22.7c2.5-1,5.9,0.9,7.9-1c8.9-0.6,19.1,0.6,27.3-2.4   c-11.2-0.4-23,2.3-33.9,2.5c-2.1-11.4,3.2-24.6,6.7-35.6c11.3,2.2,21.4,9.2,30.9,15.6c0.5-0.5,0.8-1,1.1-1.3   c-3.8-9.1-14.2-15.4-24.1-15.6l0,0C427.9,287.6,426.9,288,426.1,288z M454.1,263.6c0-2,1.2-3.5-0.5-5.3c-1.4,7.3-1.4,15.1,0.9,22.2   C455.1,274.7,453.6,269.4,454.1,263.6z M509.4,290.9c2.4-1,4.8-2,7.4-3.1c-10.8,1.6-21.8,9-33.1,11.3c-4.6,0.2-28.9,3.8-18.9,10.8   c4.8,1,8.9-1,12.9-2c0.5,0.6,0.9,1.1,1.3,1.6c10.9-4,24.1-1.8,35.2-5.6c-9.1-0.2-17.9,1-26.8,1.9c7.3-4.1,16.5-4.7,23.7-8.5   c-5.2,0.1-10.6,0-15.9,0.9c-0.8,0.3-2,0.6-2.6-0.6C498,295.1,503.8,293,509.4,290.9z M515.4,352.9c-3.7,5.5-4.6,7.2-4.7,9.7   c2.8-5.1,7.4-9.5,7.3-15.8C517.1,349.2,516.2,351,515.4,352.9z M445.4,268c-1.5-2.4-1.1-5.3-1.9-7.8c-3.8,1.7,0.8,11.6,4.9,10.1   C447.3,269.4,446.3,268.7,445.4,268z M433.6,312.2c-4.3-0.8-9-1.6-13.5-1.8c7.3,3.2,15.1,3,23.4,4   C440.5,311.8,437.1,312.9,433.6,312.2z M487.3,321.1c3.1,0.2,6.2-0.8,8.9-2.4c-10.9-1.7-22.2-4.5-32.9-1.9c-5,2.7,2.3,5.2,4.9,5.8   c-0.5,0.4-1.5,0.5-1,1.6C473.9,323.4,480.6,322.2,487.3,321.1z M522,380.1c1.2-10.8,6.7-20.9,6.4-31.8c-3.2,10.1-5.4,20-7.1,30.4   c-0.6,1.6-2.1,5-0.3,5.8C521.4,383.1,521.9,381.7,522,380.1z M472,267.2c0.7-4.3-7.9-13.5-9-5.8c0.5,5,1.1,10.2,4.1,14.5   c1.5-2.3,0.5-5,1.3-7.4c0.5,0.2,0.9,0.3,1.2,0.4c1.1,1.3,0.8,5.3,2.8,4.9C472.6,271.5,473,269.3,472,267.2z M445.3,309.3   c-2.2-2.8-5.9-2.5-9-3.6c-1.6-0.4-2.9-1.5-5.2-1.2C434.5,307.5,441.9,313.8,445.3,309.3z M454.8,298.6c-0.1,0-0.3,0-0.4,0   c-0.5,9.6,0.9,19.5,1.6,29C458.3,317.9,454.5,308.4,454.8,298.6z M507.3,276.6c-1.3,1.8-7.8,4.1-6.1,6.2c2-1.9,5.2-2.4,7-5.1   C507.8,277.2,507.5,276.9,507.3,276.6z" />
	<path fill="#CCD2E9" d="M417.9,125.4c6.9-11.8,12.9-23.9,13.4-37.8c5.4,12.8,3.9,28.4,18.3,35.6c-0.2,4.9-1.9,9.4-4.9,13.4   c4.7-0.9,6.5-7.5,7.6-11.9c0.7,0.3,1.3,0.6,2,0.9c0,0.6,0.1,1.1,0.1,1.7l0,0c-3.2,6.1,3.3,21.3,11.5,22c2.8-0.3,5,2.8,7.5,0.7l0,0   c0.3,0.9,1,0.8,1.6,0.7c1.6-0.1,2.9,0.8,3.8-1.1c-1.3-0.2-2.2-0.3-3.2-0.4c0.2-0.5,0.5-1.1,0.7-1.5c-9.2-4.9-15.7-11.4-20.6-20.5   c0.3-0.3,0.6-0.5,0.8-0.8c8.5,0.7,18.8,0.3,23.2-8.3c3.2-13,6.3-26.5,5-40.1c2,0.5,3.9,0.9,5.4,1.9c-3.7,12.2-3.5,25-2.5,37.7   c-0.1,11.7-1.6,26.8,10,33.1c-5.6,13-3.4,26.5-3,40c0.2,8.5-2,17.3,0.8,25.6c5.1,7.3-4.2,16.3-1.4,23.5c-1.7,3.5-4.9,3.7-8.3,4.2   c0.6-2.3,1-3.9,1.7-6c0.7-0.6,0.9-1.2,0.1-2.2c-1.8,2.9-2.5,5.6-4.3,8.8c-14.5,2.4-29.9,3.7-44.6,3c-25.2-40.4-17.4-26.2-25-72.7   c1.3,0.2,2.1,1.9,3.6,0.4c-0.8-4-2.9-7.6-5.1-11c0-1.8,0-3.7,0-5.7c2.1,1,4,1.8,5.9,2.7c0.8-0.5,1.5-0.8,2-1.1   c0.2-3.7-0.1-4.3-2.9-6.2l0,0c-2.6-3.9-5.8-6.8-11-6.9c-0.8-1.5-1.5-2.9-2.2-4.3c2.2-2,4.4-3.9,6.6-5.9c7.7,4,15.7,6.5,24.5,7.3   c0.9-0.6,2.4-0.5,2.6-2.3c-3.9,1.6-4.5-3-7.4-4.4C425.2,134.4,421.5,130,417.9,125.4z M490.4,178.2c1.4-0.7,4.7-4.9,1.6-5.2   c-0.6,2.4-2.7,4.3-3.5,6.4C489.6,179.7,490,178.9,490.4,178.2z M426,177.2c-0.7,0.6-1.3,1.3-2.4,2.3c3.7-0.7,7.9-4.2,7.5-8   C429.3,173.4,427.6,175.2,426,177.2z M452,200.9c-0.1,1.1,0,2.1,1.5,3.1c0-4.9,0-8,0-12.8C451,193.9,451.7,197.6,452,200.9z    M436.5,164.8c-1.1,2.2-4.4,3.5-4.7,6c7.1-5.2,12.4-13.4,21.7-14.5C450.9,152.2,438.7,161.8,436.5,164.8z M453.3,223.6   c0.1-5.5,2.9-12.2-1.1-16.9c-0.9,5.4,0.8,11.3-0.2,16.9c-0.1,2.9-0.1,2.9,0.9,4.5C453.8,226.6,453.4,225.1,453.3,223.6z M483,178   c-4.9-9.3-15.5-13.7-22.4-21.5c4.4,11.2,17.3,12.5,23.1,25C483.8,180.1,484,178.9,483,178z M483.8,151.8c2.5,2.1,8.6,3.8,9.5,0   C491,149.2,487,151.9,483.8,151.8z M453.4,186.4c-0.1-4.6,1-10.7-0.6-14.8C451.6,176.7,452.2,181.5,453.4,186.4z M423,180.2   c-3.5,5.3-4,6.4-3.9,8.8C421.4,187.1,423,183.7,423,180.2z M453.5,229.4c-1.6,2.5-1.6,2.9,0,4.4   C453.5,232.5,453.5,231.4,453.5,229.4z M443.5,139c-1.2,0.1-2,0.7-2.7,1.9C442.3,141.1,444.4,140.6,443.5,139z M489.4,231.2   c-1.1,0.7-1.5,1.5-0.8,2.8C489.9,233.3,489.8,232.4,489.4,231.2z M484.8,184.8c-0.9,1.1-0.2,2.1,0.1,3   C485.1,186.8,485.9,185.8,484.8,184.8z M490.5,186.4c1.2,0.5,1.2,0.5,1.1-1C491.1,185.8,490.8,186.1,490.5,186.4z" />
	<path fill="#FBDFD3" d="M490.4,114.5c-1.6-11.3,0.3-22.6,3.3-33.5c2.1,0.1,3.9,0.7,5.7,1.9c2.4,1.8,5.7,0.6,8.4,1.2   c17.7,5.3,25.7,22.5,26.8,39.6c0.5,10.7,9.2,14.2,8.7,26.3c0.8,10,2.9,19.6,4.6,29.4c-5.7,17.9-7.8,37.8-18.9,53.7   c-2.6,3.8-7.5,8.1-5.5,13c-3.6,9.7-9.3,22.8-19.7,26.4c-1-1-2-2-3-3c0.6,0,1.2,0.1,1.5-0.7c1.1-1.1,5.2-1.9,3.1-3.8   c-4.3,2.3-8.7,4.8-13.2,6.8c-0.2-0.1-0.4-0.3-0.6-0.4c0.7-1.2,1.3-2.4,1.9-3.6c-0.3-0.8-0.5-1.5-0.7-2.1c0.6-3.4,9.6-3,8.3-6.6   c-4.8,0.9-8.6,4.3-13.2,5.6c-1.7-2.2-1.7-2.2-1.9-3.9c1.8-2.1,11.6-4.9,9.7-7.6c-1.6,0.4-3.6,2-5.2,1.4c-1.4-1.6-3.8-1-5.2-2   c5-5.1,9.7-10.4,14.3-15.6c4.6-0.1,8.1,4.8,13,2.2c8-1.7,9.9-25.9,14.6-33c1-6.5,1.5-13,1.7-19.6c5.6-2.2-1.8-2.4,1.8-7.6   c0.8,0.5,2.9,0,2.7,1.6c0.1,0.3,0.3,0.5,0.4,0.8c0.3-0.2,0.6-0.4,1-0.6c0.2-0.4,0.5-0.9,0.7-1.3c-0.6-1.2,0.2-2.3,0.1-3.6   c0.8-0.9,2.4-0.8,3.1-2.5c-1.5,0.4-2.6,0.7-3.7,0.9c-1.3-4.3-6.1-5.4-8.1-9.1c-4.6-11.4-11.5-23.3-11.5-35.7   c0.8-0.2,1.6-0.4,2.6-0.6c-0.4-1.1-0.8-2-1.2-3c0.7-0.2,1.2-0.4,2-0.7c-2.4-2.1-5.3-2.8-8.2-4.1c-1.2-1.1-2.6-2.3-3.8-1   c-3.3,4.2-2.1,1.6-5.5,1.1c10.4,7.8,3.9,18.8-2.1,27.3c-8-9.6-8.6-20.9-8.5-33.3c0.8-0.4,1.8,0.5,2.8-0.8   C492,114.6,491.2,114.5,490.4,114.5z M496.9,86.4c-1.6,0.2-3.9,0-4.4,1.9c0.4,0.3,0.8,0.6,1.3,1c1.4-0.7,2.6-1.4,3.9-2.1   c0.7,0.1,1.4,0.1,1.3-1C498.3,85.6,497.6,85.8,496.9,86.4z M497.9,118.9c-0.7-1.5-1.5-2-3-2C495.5,118.1,496.1,119,497.9,118.9z    M500.1,251.8c1.4,0,1.9-0.8,2.8-2.4C501.4,250.3,499.2,250.2,500.1,251.8z M507.9,256.4c-2.7,0.1-2.7,0.1-2.4,1.6   C506.1,257.6,506.6,257.2,507.9,256.4z M502.2,238.9c-1.1-0.8-1.9-0.9-2.8,0C500.2,239.7,501,239.6,502.2,238.9z M504.3,248.6   c0.3-0.3,0.6-0.6,0.9-1c-0.2-0.2-0.6-0.5-0.7-0.5C504.1,247.7,503.3,248,504.3,248.6z M520.9,125.3c0.4,0.8,0.8,1.5,1.9,0.8   C522.4,125.3,522,124.5,520.9,125.3z M527.6,231.5c1.3,0.2,1.3,0.2,1.4-1.8C528.4,230.5,528,231,527.6,231.5z M508.1,254.3   c0.1,0.2,0.1,0.3,0.2,0.5c0.4-0.1,0.7-0.3,1.1-0.4c-0.1-0.2-0.2-0.4-0.2-0.7C508.8,253.9,508.4,254.1,508.1,254.3z M530.7,224.7   c-0.1,0-0.2,0-0.3,0c0,0.4,0,0.8-0.1,1.2c0.1,0,0.3,0,0.4,0C530.7,225.5,530.7,225.1,530.7,224.7z M507.2,245.7   c-0.1-0.2-0.2-0.3-0.3-0.5c-0.4,0.2-0.1,0.4,0,0.7C507,245.8,507.1,245.8,507.2,245.7z" />
	<path fill="#FBDFD3" d="M415.6,12.1l-0.3,0.1c-4.1-2.7-10,1.3-14,3.3c-4.5,3.2-8-2.9-13.6,1c0,0,0,0,0,0c-3.1,0.4-4.1,3.8-6.8,5   c-1.8,0.4-3.6,1.1-5,2.4l0,0c-1.1,0.6-2.1,1.3-3,2.1c-0.5,0-1,0-1.4,0c-7.7,6.6-18.2,11.6-23,21.3c-2.6,1.4-3.4,4.6-5.2,6.9   c-2.8,3.4-10.3,3.4-9,9.6c2.6,0.3,5.6-1,7.5,0.6c-0.4,0.7-0.9,1.3-1.5,2.3c2.1-0.3,2.8-2.1,4.7-3c3.4,1,4.4-3.7,7.5-2.1l0.4,0   c15.4-4.4,21.6,10.9,30.8,11.3c24.5-7.1,15.2,7.4,43,18.9c-0.6,10.2-4.4,20.1-10.4,28.8c-7.6-4.8-11.3-14.2-16.8-21.2   c-4.2-7.5-5.5-17.6-13.6-22.2c-0.4,0.1-0.8,0.1-1.2,0.2c1.3,9.1,8,18.8,4.4,27.7c-3.1-0.6-6-2.9-9.1-1.7c3.6,1.7,7.1,3.5,10.6,5.5   c1.2,10.2,7.5,19.3,14.7,26.4c-1,1-1.9,2-2.9,3.1c-0.7-0.1-1.4-0.1-1.9-0.2c-8.7-8.3-8.7-22.3-18.9-29.3l0,0   c-4.2-2.6-10.2-4.7-14.8-6.7c-0.6-1-0.9-1.6-1.2-2.2l-0.1,0c2.1-1.7,4.8,0.7,7.3-1.5c-12.8-14.9-32-1.4-46.1-20.8   c4.2,1.2,7.7,1.2,11.2,0.8c0.1-0.5,0.1-0.9,0.2-1.4c-8.8-8.4-24.3-9.4-30.3-20.6c27.4-27.6,64-44.6,101.9-51.7   c2.5,5,11.4,3.4,14.9,8.1c-0.3,0.3-0.6,0.7-1,1C421,12.5,418.6,11.6,415.6,12.1z M372.9,101.5c1.9,1.4,3.4,1.7,5.3,1.1   C376.9,100.9,375.3,101.1,372.9,101.5z M328,65.8c1.9-0.1,3.1,0.5,4.3-1.2C329.7,64.2,329.7,64.2,328,65.8z M343.6,67.5   c2.4-0.5,2.8-1,2-1.7C345,66.3,344.3,66.9,343.6,67.5z M324.9,65.2c-0.8-0.5-1.5-0.4-2.2,0.5C323.7,66.3,324.7,66.6,324.9,65.2z    M384.6,73.9c-0.2,0.5-0.3,0.8-0.4,1.1C385.4,75.7,385.8,74.7,384.6,73.9z M342.4,50c1,0.7,1.9,0.3,1.5-0.6   C343.5,49.6,343.1,49.8,342.4,50z" />
	<path fill="#FBDFD3" d="M453.5,42.2c11.1,8,11.4,24,21.4,32.6c2.3,0,4.4,0.9,6.5,1.9c-0.9,6.6,0.3,13.1-0.1,19.7   c-0.7,0.4-1,0.7-1.4,1c6.3,41.1-42.6,30.2-41.5-2.1c3,1,5.8,0.9,8.6,0.7c1.5,1,1.3,3.4,3.6,3.2c-0.7-1.3-1.4-2.3-1.7-3.6   c3.8-4.3,8.8-7.3,11.3-12.7c0.9-0.2,2.2,0.2,2.5-1.3c-0.6-0.2-1.2-0.4-1.6-0.6c0.8-4.9,2.1-18-1.7-21.3c-0.1,5.2,0.7,10.7-3,14.9   c-4.4-0.4-7,5.4-11.3,4.4c-10.6-0.3-10-4.1-18.9-6.5c-6.4-2.4-8-12-14.9-13.2c-2.3-3.3-2.6-7.8-5.7-11.5c-1.5-1.7,0.4-4.3-1.6-5.6   c1.2-2.1,3.4,0.7,1-3.4c2.1-2.2,4.4-3.6,7-5.3c2.4,0,2.4,0,4.6-1.7c0.1-4,4-6.3,6.7-8c0.6,0.5,1.3,1,1.8,1.4   c1.1-0.1,1.3-1.6,2.5-1.2C438.3,26.7,446.3,34.2,453.5,42.2z M473.4,94c2.3-1.6,5.9-1,7.1-3.8c-4.3,0.4-7.2,2.7-10.8,4.4   c-0.8,0.1-1.8-0.3-2.2,1.6C469.5,93.9,471.2,95.5,473.4,94z M460.1,99.1c0.7-0.4,1.7-0.4,1.8-1.5c-1.3-0.9-1.8,0.3-2.5,0.7   c-0.7,0.7-3.1,1.4-1.8,2.6C458.5,100.4,459.3,99.8,460.1,99.1z M417.3,54.1c-0.7,0.1-0.8,0.6-0.8,1.2c-0.9,0.9-2.2,1.6-1.7,3.2   c3.4-1.4,6.3-3.4,8.7-7.4c-0.2-0.4-0.4-0.8-0.6-1.1c0.4-0.6,1-0.9,0.9-1.6c-2.3-1.4-2.3-1.5-4.2-0.5c-0.9,0.8-3,1.2-3.2,2.4   c-0.1,0.1-0.2,0.3-0.1,0.4c-3.3,0.4-4.8,3.8-5.1,7.1c2.6-1.2,1.9-4.7,5-4.8C416.7,53.5,417,53.8,417.3,54.1L417.3,54.1z    M447.4,64.5L447.4,64.5c0-0.8,0-1.6,0.1-2.4c0.9-0.8,2.5-1.8,1.1-3.1c-5.3,2.4-9.3,7.4-13.7,11.1c0,2.4,3.6,1.7,4.6,0.2   c0.6,2.9,1.7,3.3,4,1.6C444.9,70.5,452.7,65.1,447.4,64.5z M435.8,38.6c-0.3-0.3-0.5-0.5-0.8-0.8c0.2-0.7,0.7-1.3,0.9-2.1   c2.1-0.7,3.8-0.4,5.3-2.4c-5.8-0.5-10.2,3.6-12.8,8.2c0.3,0.8,0.6,1.6,1,2.5c1-0.6,1.8-1.1,2.5-1.5c0.9,0.3,1.5,0.5,2,0.7   c2.9-1.7,5-4,7.4-5.9C439.3,34.8,438,38.9,435.8,38.6z M435.8,62.2c1.2-1.7,2.2-3.2,4.3-4C437.9,54.8,432.9,59.4,435.8,62.2z    M451.6,118c0.6-2.1,0.6-2.1-0.1-4.3C451.1,115.1,450.9,116.1,451.6,118z" />
	<path fill="#FBDFD3" d="M366.3,550c-1.7-0.3-3.3-0.6-5.3-1c-0.1-3.1,1-6,1.4-9.2c-2-3.4-2.7-1.5-5-3c9.4-33.9,4.2-69.6,17.4-102.5   c0.7,0.6,1.4,1.1,1.7,1.4c0.2,4.3,0.6,8.8,4,11.1c0.8-0.8,1.4-1.5,2-2.1c-0.1-3.7,0.4-7.2-0.7-10.5c0.7-1.3,2.5,0,2.7-1.9   c-0.7-0.1-1.4-0.2-2-0.3c-0.3-0.2-0.5-0.4-0.8-0.6c1-3.7-0.5-10.1,5.3-9.2c-0.1-1.7-1.5-1.9-2.3-2.7c-0.9-2.6-1.5-7.3,0.4-9.5   c1.5,0,2.8,0,4.3,0c1.4,3,3.5,5.5,5.5,8c-5.8,8.4,2.6,12.1,3.1,1.8c2.7,0.7,5.1,1.9,7.9,0.8c-1-4.2-1.9-7.6-5.9-9.7   c-0.1-0.5-0.2-0.9-0.3-1.5c5.4-0.9,10.9-1.4,16.4-3.1c1.6,10.3-2.9,19.9-9.4,27.7c-0.7,0.1-1.4,0.3-2,0.4   c-4.8,12.2-0.5,26.4-4.6,39.2c-2.1,9.8-10.2,16.2-14,25.1c-7.4,16.6-12.8,34.5-15.8,52.4c-0.5-0.1-1.1-0.1-1.7-0.2   c0.4-2.3,1.5-2.9-0.1-5.5C368.1,547,367.8,548.7,366.3,550z M384.7,459.9c1.3-4.8,4.7-9,6.6-13.4c-4.7-2.4-8.2,13.2-7.7,16.4   C384.9,462.1,384.6,461,384.7,459.9z M411.3,415c-1.5-0.1-3.8-2.1-4.9-0.5c1.9,2.3,2.3,2.4,5,1.2C413,415.8,412.9,414.5,411.3,415z    M382.2,465.9c-2,2.1-3.1,5.5-1.4,8.1C381,471.4,384.9,467.2,382.2,465.9z M378.7,488.1c-0.2,0-0.5,0.1-0.7,0.1c0,2.1,0,4.1,0,6.2   C379.1,492.4,379.1,490.3,378.7,488.1z M370.2,531.1c1.3-1.1,1.3-1.1,1.7-4.3C370.7,528.4,369.8,529.4,370.2,531.1z M370,538.3   c1-2,1-2-0.3-3C369.1,536.2,369,537.1,370,538.3z M379.1,481.9c-0.3,1.2,0.1,1.8,1,2.2C380.6,483.2,380.5,482.5,379.1,481.9z" />
	<path fill="#FBDFD3" d="M533.3,399.3c0.4,1,0.9,2,1.3,3c-1.1,0.5-2-1-2.7,0.6c0.8,1.6,0.6,4.1,2,5.3c0.9-0.7,0-2.2,1.3-2.7   c2.8,4.9,3.6,9.6,4.1,15.3c0.3,0.1,0.9,0.2,1.4,0.3c1.3,2.6-0.6,6.5,2.3,8.5c14,31.1,8.2,68.2,14.5,101.5c-10.8,1.9-5,2.9-5.4,11.6   c-1.6-0.3-3.4,0.4-4.8-0.3c-1.2-4.4-1.8-9-3.3-12.9c0,0,0,0,0,0c-0.3-1.6-1.6-3-0.9-4.7c-0.1-1,0.6-2.3-0.6-2.7   c-5.6-9.9-8.6-21.7-12.9-32.3c-8.1-17-19.1-34.9-14.6-54.5c7.6,6.3,12.1,12.1,14.4,21.8c1.1-4.7-2-10.8-4-15.5   c-0.3-13.2-16.2-18.3-20.6-29.5c0.9-1.4,1.6-2.6,2-4.2c-1.2-2.1-2.3-4.2-3.5-6.2c3.8-2.3,9.3-1.7,13.6-2c0.1,0.5,0.2,0.8,0.3,1.2   c-2.1,3.6-7.4,4.1-8.8,8c1.9,0.9,3.4-0.4,5-0.6c0.7,7,1.8,9.8,7.4,15.1c0.9-0.5,1.6-0.9,2.3-1.3c-0.9-6.5,0.9-12.4-6.6-15.8   c0.9-1.5,2.2-2.3,4.1-2.6c0.4-1.5,0.7-2.8,1.1-4.2C525.7,398.2,529.7,398.4,533.3,399.3z M533.8,412.9c-1.5-2-9,1.1-6.9,3.2   C531.5,415.2,531.7,415.1,533.8,412.9z M532.9,468.2c0.9-3.5,0.4-6.1-1.6-8.4c-0.4,0.2-0.7,0.3-1.2,0.5   C531.1,462.8,531.9,465.2,532.9,468.2z M529.5,426.5c3,1.2,7.8-3.4,4.6-4.5C532.9,423.6,532,425.5,529.5,426.5z M535.8,488.2   c-1-2.2,0.4-4.5-0.8-6.8C534.2,485,534.4,486.6,535.8,488.2z M534.4,475.4c-1.4,1.7-1.5,2.5-0.7,2.7   C534.5,477.5,534.9,476.8,534.4,475.4z" />
	<path fill="#4B65C5" d="M420.3,290.1c-3.5,10.9-8.9,24.1-6.7,35.6c0,0.2,0,0.5,0,0.7c-0.4,0.1-0.7,0.2-1.2,0.3   c-0.7,7.6-2.6,15.3-3.2,22.7c-4.2,2.8-2.4-18.1-3.3-21c-4.5,22.4-10.3,44.5-15.5,66.9c0.3,0.3,0.7,0.8,1.1,1.2   c-7-0.9-14-2-20.6-4.7c0.3-2.7-0.7-5.6,0.6-8c0.2,2.3-0.1,4.7,0.4,7c0.5-3.6,3.4-8,1.9-11.3c1.2-2.2,2.5-4.4,3.7-6.7   c2.2,2.7,0.1,6.9,2.6,9.7c1-6.3-2.6-13.1,1.8-18.6c3.9-8.9,3.4-19.2,5.2-28.8c0.7-1.2,0.7-1.2,0-3c-2.4,9.1-2.4,19-5.7,28.3   c-0.2-14.7,2.5-29.4,5.8-43.7c6.1-4.1,6.3-24.4,7.7-32.2C403,287.9,411.9,287.6,420.3,290.1z" />
	<path fill="#B7BDD5" d="M417.1,153.8c2.8,1.9,3.1,2.5,2.9,6.2c-0.5,0.3-1.2,0.7-2,1.1c-1.8-0.8-3.8-1.7-5.9-2.7c0,2,0,3.9,0,5.7   c2.2,3.5,4.2,7.1,5.1,11c-1.5,1.5-2.3-0.2-3.6-0.4c7.6,46.6-0.3,32.4,25,72.7c-3.8-0.3-7.6,0.2-11.4-0.6c-1.2-3.8-4.8-5.9-7.1-9   c-0.3-1.1-1-1.6-2.1-1.5c0.8-1.8,0.8-1.8-0.7-2.2c0.6-2-0.9-3-2-4.5c-0.6,2,0.6,3.1,1.3,4.4c-1.2,3.6,1.7,8,2.1,11.9   c-4.2-0.3-8.2-1.2-12.3-2.3c4.2-15-4.5-31-5.5-46.3c-3.3-16.5-0.5-33-5.9-49c3-2,6-3.9,8.9-5.8c0.7,1.4,1.5,2.8,2.2,4.3   C411.3,146.9,414.6,149.8,417.1,153.8c-1.2-0.1-4.7-2.1-3.8,0.6C414.5,154.3,416.4,155.1,417.1,153.8z M407,153.9   c2.3,1.6,2.4,1.6,4.2-0.1C409.8,153.9,408.7,152.8,407,153.9z" />
	<path fill="#4B65C5" d="M452,341.1c-0.1-0.3-0.1-0.7-0.2-1.2c-10.7,9-19.4,20.5-29.8,29.9c-2.9-1.2,5.2-12.2,6.4-14.6   c6.8-11.4,17.9-18,28.3-24.9c15.1-0.1,26.7,14,32.3,26.8c-2.7-1.4-5.1-2.7-7.8-4.2c1.4,4.1,3.2,6.9,4.5,11.1   c6,4.6,10.6,11.3,15,17.6c-0.4,0.3-0.8,0.6-1.2,0.9c-2.8-1.7-5.6-3.4-8.9-5.5c2.1,5.7,3.8,10.9,5.9,15.9c-4.6,1.7-9,3-13.7,4.2   c-5.9-22.4-17.8-42.5-25.2-64.2C454.4,334.7,453.7,338.3,452,341.1z M440.1,346.9c-5.5,4.9-7.4,7-7.7,8.9   c6.8-5.1,11.4-11.4,17.3-17.7C445.5,339.1,442.6,343.5,440.1,346.9z" />
	<path fill="#E4E4EB" d="M337.8,571.3c2.6-0.1,7.1,2.4,8.4-1c-0.3-2-1.9-2.3-3.5-2.7c0.1-0.2,0.1-0.5,0.1-0.7c3-0.8,7.1,0.5,8.8-2.9   c-0.2-0.4-0.4-0.9-0.7-1.4c1.4-1.8,3.4,0.5,4.6-2.9l0,0c0.7-1.8,3.3-1.1,3.5-3.4c-2.6-3.9-8.8-3.3-13.1-3.2   c-2.4-2.3,0.9-9.8,2-12.8c3.7-0.1,7.2,0.6,10.9,1.1c0.4,3.6-0.9,7-0.7,10.6c2.7,3.3,6.2,5.3,8.5,9.2c2.8,0.2,3-2.9,4.9-4.1   c-0.9,9.7,3.2,18.6,3.6,28.5c-3.4,2.6-8.3,0.9-12.5,2.1c0.3-1,0.5-1.7,0.6-2.4c-4-2.4-5.2,5.7-5.7,8.5c-4.5,1.3-9.1,2.3-13.9,2.8   c-5.7-4.9-9.4-8.1-17.5-7.7c0-2.4,4-13.3,7-13c2.1,0.7,4,2.2,6.3,1.4c1.9-2.6-1.6-3.1-3.3-3.7c-0.5-0.8-1-0.8-1.5,0   c-0.5,0-1,0.1-1.5,0.1C333,570.9,335.9,571.4,337.8,571.3z" />
	<path fill="#E4E4EB" d="M558.2,553.7c1,1.4,2.8,1.9,3.8,3.1c-0.2,3.6,4.7,2.9,6.6,5.1c-0.5,0.7-0.9,1.4-1.5,2.2c3,3.1,8.3,0.7,12,0   c4.5,3,16.9,17.7,13,22.7c-14.6-12-18.4,10.6-33-5.5c-1.2-4.1-6.5-7.1-9-2.5c-2.4-0.6-4.9-1.2-7.5-1.9c2.2-6.2,1.9-12.5,0.9-18.8   c-0.4-1.3-0.9-3.1,0.5-4.4c0.8,0.5,1.4,1.4,2.8,1.2c2.1-3.5,5.5-6.1,8.6-9c-0.4-3.5-0.7-6.9-1.1-10.5c11.7-3.1,19.7-1.4,16.2,12.5   c-2.5-1.3-17.7-1.4-15.9,3.3C556.1,552,557.6,552.2,558.2,553.7z M581.2,567.9c-2.8-1.8-11.5,1.1-5.7,3.2   C577.6,570.7,580.3,570.4,581.2,567.9z" />
	<path fill="#EECABA" d="M365.7,99.8c0.3,0.6,0.7,1.2,1.2,2.2c4.6,2,10.6,4.1,14.8,6.7c-1.6,0.2-3.4,0.2-4.4,1.9   c1.8,2,3.6-0.4,4.3-1.9c10.2,7,10.2,21,18.9,29.3c0.4,0,1.1,0.1,1.9,0.2c-2.5,2.5-5.5,4.2-8.7,6.2c-1.8-2.7-2.4-9.7-5.2-9.9   c-3.1-7-4.8-14.4-8.1-21.4c-1,0.1-1.8,0.3-2.9,0.4c-17.1-9.3-39.3-12.4-52.1-28.1c-4.5-8.6-19.9-19.5-17.5-29.1   c6,11.1,21.4,12.2,30.3,20.6c-0.1,0.5-0.1,0.8-0.2,1.4c-3.5,0.4-7,0.5-11.2-0.8c14,19.4,33.3,5.9,46.1,20.8   C370.5,100.5,367.7,98,365.7,99.8c-0.6,0-1.1,0-1.6,0c-0.1-0.4-0.1-0.7-0.2-1.1c-2.7-0.6-5.9-3.2-8.3-0.6c2.4,0.9,4.8,1.7,7.1,2.6   C363.5,102.2,366.4,101.5,365.7,99.8z M339.8,89.5c-2.8-1.9-5.9-3.3-8.9-4.6c0,0.3,0,0.6,0,0.9c2.5,2.1,6,2.8,8.9,4.3   c0.9,0.5,1.7,1.4,2.9,0.6C342,89.4,340.9,89.3,339.8,89.5z M349.3,93.3c2.1,1.6,10.5,3.6,10.5-0.1C356.3,93.4,353,92.6,349.3,93.3z   " />
	<path fill="#EECABA" d="M506.5,409.6c-0.4,0.7-0.9,1.4-1.3,2.2c4.4,11.3,20.3,16.4,20.6,29.5c-1-0.4-1.4-1.9-3.1-1.7   c-0.1,0.5-0.3,1.1-0.5,1.7c-2.7-1.7-4.7-4.1-6.9-6.3c-4.5,19.6,6.4,37.4,14.6,54.5c4.3,10.6,7.3,22.4,12.9,32.3   c-1.5,0.5-0.8,2.6,0.6,2.8c-0.7,1.6,0.5,3.1,0.9,4.7c-0.4,0-0.9,0-1.2,0.1c-0.4,1-0.5,1.8,0.4,2.2c1.2-0.6,0.6-1.5,0.8-2.3   c1.5,3.9,2,8.6,3.3,12.9c1.4,0.8,3.2,0.1,4.8,0.3c-4.3,2.1-6.9,0.6-7-4.3c-2,1.7-1.4,3.9-0.2,5.8c-4.7,2.9-3.1-13.2-5.3-16.4   c-3.4-14.3-8.9-28-15.4-41c-17.4-19.6-10.4-36.1-15.2-58.6c-0.8-0.2-1.5-0.3-2.4-0.5c-8.2-8.5-9.4-19.6-11-30.7   c12.3-3.2,24.6-5.6,36.5-10c0.8,1.2,0.5,2.4,0.4,3.6c-2.1,2.2-6.2,0.3-8.2,2.4c-1,0.3-2.2-0.6-3,0.6c-0.5,0.3-1,0.5-1.7,0.9   c-0.1,2.4,0.6,5.2-2,6.4c-0.1-0.4-0.2-0.7-0.3-1.2c-4.3,0.2-9.8-0.3-13.6,2c1.2,2.1,2.3,4.1,3.5,6.2c-2.3,0-4.1,0.5-5.4,1.7   C503.3,410.8,504.9,410.2,506.5,409.6z" />
	<path fill="#EECABA" d="M384.9,422.2c-3.7,0.9-1.9,6.2-3.1,9c-0.9-1-1.7-2-2.6-3c-0.3,0.2-0.6,0.4-0.9,0.6c0.1,1.7,2.9,5.7,4.3,3.1   c0.7,0.1,1.4,0.2,2,0.3c-0.2,1.9-2.1,0.7-2.7,1.9c1.1,3.2,0.6,6.8,0.7,10.5c-0.6,0.6-1.2,1.3-2,2.1c-3.4-2.3-3.7-6.8-4-11.1   c-0.4-0.3-1-0.8-1.7-1.4c-13.2,32.9-8,68.7-17.4,102.5c1,1.4,2.9-0.1,3.6,1.4c-1.6,0-3.2-0.1-5-0.1c1-24.5,5.4-48.8,6.2-73.4   c1.2-10.1,2.2-21.4,8.5-29.6c1.6-1.9,1.2-5.3,1.3-7.7c0.8-0.1,1.3-0.1,1.9-0.2c0.3-5.7,1.4-10.8,4.1-15.8c1.2,1.2,0.2,2.8,1.6,3.9   c0.4-2.4,1.8-4.4,1.5-6.6c-0.5-0.2-1.2-0.5-1.7-0.8c0.1-3.3,1.5-6.4,0-9.8c2.3-0.7,4.3,0.8,6.5,0.7c0.5,0.3,1,0.7,1.4,1   c-1.2,1.4-2.2,2.4-3.5,3.8c2.1-0.3,3.2-1.1,5-3.2c-0.2-0.3-0.4-0.6-0.6-0.9c5.5-0.2,1.5,7.1,4.3,10.5c4,1.3,6.9,5.9,11.8,5.5   c0.5,1.6,1,3.2,1.5,5c-2.8,1.1-5.2-0.1-7.9-0.8c-0.1,1.6,0.3,3-0.9,4.1c0.1-2.2,1-5.8-2.2-5.9c-2.1-2.5-4.2-5-5.5-8   c-1.5,0-2.8,0-4.3,0c-1.9,2.2-1.4,6.9-0.4,9.5c-1.6-0.2-4.2-2.2-4.8,0.4C381.1,421.2,383.2,421.5,384.9,422.2z" />
	<path fill="#4B65C5" d="M419.6,279c-1.1,2.2,0.1,5.5-0.1,8.1c-8.3-1.4-16.6-2.4-24.4-5.8c0.5-5.8-0.6-11.2-0.7-16.9   c5.1,2.1,5.1-9,7.9-11c1.3,0.2,2.5,0.5,3.7,0.7c0,0.7,0.1,1.5,0.1,2.2c4.3,5.6,8.6,11.1,12.7,16.8c-0.9,1-0.1,2.5-0.1,3.8   c-3.4,0-6.1-2.4-9.3-2.6c-0.1,0.2-0.1,0.5-0.2,0.7C412.5,276.8,416.1,277.8,419.6,279z" />
	<path fill="#EECABA" d="M517.1,124.1c0.4,0.3,0.7,0.6,1.4,1.2c-0.8,0.3-1.3,0.4-2,0.7c0.4,1,0.7,1.9,1.2,3c-1,0.2-1.8,0.4-2.6,0.6   c0,12.4,6.9,24.3,11.5,35.7c1.8,3.8,7.9,5,8,9.7c-1.4,0-2.9,0-4.3,0.1c-1-1.7-2.6,0.1-3.7,0.8c-0.5-0.2-1-0.5-1.5-0.7   c-5.1-11.7-16.3-22.2-14.3-35.9c-3-2.2,0.3-6-1.1-8.7c-0.9-0.5-1.3,0.2-1.7,0.3c-0.5,1.3-0.9,2.5-1.4,3.7c0-2,0-4,0-6   c0.4-0.1,0.9-0.2,1.4-0.3c-0.7-2.6-2.8-3.7-4.4-5.6c2.4-0.4,2.9-4.9,5.8-2.1c-0.6-0.1-1.3,0-1.9,0c0.6,1.3,1.7,2,3.2,2   c-0.2-0.5-0.4-1-0.5-1.4c1.8,0.7,3.5,1.5,5.3,2.3C515,124.7,516.9,125.6,517.1,124.1z" />
	<path fill="#EDC9B9" d="M386,77.1c8.1,4.6,9.4,14.7,13.6,22.2c5.5,7,9.2,16.4,16.8,21.2c-1.9,2.3-2.9,5.5-5.3,7.2   c-12.1-9.3-14-25.3-18.3-38.9c-0.6-0.1-1-0.1-1.3-0.1C389.4,84.9,387.8,80.9,386,77.1z M409.1,123.4c-0.3-1.2-0.2-1.5-1.2-1.9   C407.8,122.9,407.8,122.9,409.1,123.4z" />
	<path fill="#0C0809" d="M489.6,264.3c3.6-2.2,7.4-4.1,11.4-5.2c1.2,2.8-5.9,3.6-7.7,5.2c-3.8,0.6-4.8,5.3-8.5,6.4   c-2.2,1.2-4,2.8-6.2,4c0.3,1.5,1.2,2,2.5,2.3c8.2-3.2,16.3-8,24.2-12c3.7,2-14.4,9.2-16.4,10.7c-0.1,1.1,0.3,1.6,0.9,2.3   c4.8-0.1,11-4.7,17.4-6.5c0,0.4,0.1,0.7,0.1,1.1c-6.7,3-17.2,11.3-21.3,4.5c-1.8,0.6-3.5,1.3-5.4,1.9c-7.8-4.2-3.3-5,1.6-8.8   c-3.2,1.1-6.4,2-8.7-0.4c0.6-2.1,0.3-4.5,2.1-6.3c0-0.3,0-0.5,0-0.8c1.1,0.1,2.2,0.2,3.4,0.4c5.4-3.3,10.6-7.8,16.7-10   c3.4,1-16.8,12.4-18.5,12c-0.6,1.1-1.2,2-1.8,3.1c0.6,0.6,1.2,1.1,1.9,1.7C481.2,268,486.9,268.2,489.6,264.3z" />
	<path fill="#070706" d="M525,175.1c0.5,0.2,1,0.5,1.5,0.7c-3.1,5.6-1.9,12.3-3.7,18.5c1.2-1.5,2.1-2.6,2.9-3.7   c0.2,0.2,0.5,0.5,0.7,0.7c-0.7,1.4-1.5,2.7-2.1,4c-0.7,0-1.2,0-1.8,0c-4.6,14.4,0.1,30.7-9.4,44c-5.2,2.5-8.8-2-13.7-2.2   c-0.3,0.3-0.6,0.7-0.9,1c-0.2-0.9,0.2-1.6,1-2c-0.3-0.7-1.3-1-1.1-2c3.9,1.7,9,4.1,13.3,2.7c6.7-11.8,4-26.2,7.9-38.8   c2.8-6.9,1.1-14.4,4.1-21.2c-0.3-0.3-0.7-0.6-1-0.9C523.6,175.7,524.5,176.2,525,175.1z" />
	<path fill="#B7BDD5" d="M417.9,125.4c3.6,4.6,7.3,9,12.4,11.9c2.5,1,2.9,4.5,5.6,4.7c-0.4,0.6-1.3,1-0.8,2   c-8.8-0.8-16.9-3.3-24.5-7.3C412.1,132.3,415.3,129,417.9,125.4z M426.8,141c0.5-0.1,0.8-0.4,0.5-1c-2.9-0.5-2.9-0.5-5.7,0.2   C423.7,140.8,424.9,141.1,426.8,141z" />
	<path fill="#4B65C5" d="M427.6,265.1c-1.6,3.5-1.6,8.4-1.3,12.8c0.2,0.2,0.8,0.6,1.3,1.1c-2.2-0.3-4.4-0.6-6.6-0.8   c0-0.2,0-0.4-0.1-0.6c0.7-0.1,1.4-0.2,2-0.3c0.3-7.2-2.1-13.9-2.4-21c-1.1-0.2-2.2-0.5-3.1,0.4c-0.3,4.4,0.2,8.5,0.6,12.8   c-4.1-4.3-6.6-9.8-10.1-14.6c6.2,1,13.2,0.1,19.8,0.6c-0.7,1.3-1.5,2.6,0.1,3.8C427.7,261.3,427.6,263.2,427.6,265.1z" />
	<path fill="#ECC9B9" d="M416.6,408.4c-0.1-0.7-0.2-1.4-0.3-2.3c-5.5,1.7-11,2.2-16.4,3.1c0.1,0.6,0.2,1.1,0.3,1.5   c-2.6-1.3-4.4-3.5-6.2-5.5c0-1.6,0-3,0-4.7c8.1,1.2,15.7,2,23.9,2C417.6,404.6,417.5,406.6,416.6,408.4z" />
	<path fill="#EBC9B9" d="M426.8,91.7c-10.2-4.8-19.3-10.9-26.5-19.9c8.5,1.9,15.2,10.6,24.1,11.1C425.4,85.9,427.1,88.5,426.8,91.7z   " />
	<path fill="#CDCDDA" d="M544.2,553.6c-1.4,1.3-0.9,3.1-0.5,4.4c0.9,6.3,1.2,12.6-0.9,18.8c2.6,0.7,5,1.3,7.5,1.9   c0.4,0.9,0.7,1.8,1.2,2.9c-4.4-1-9.1,0.6-12.9-2.3c1-9.2,2.6-18.6,5-27.1C543.7,552.7,544,553.2,544.2,553.6z" />
	<path fill="#EBC9B9" d="M405.4,135.1c-7.2-7.1-13.5-16.2-14.7-26.4c1.4,0.7,2.8,1.3,4.1,1.9c2.7,8.7,8.7,14.6,12.3,22.8   C406.6,134,406,134.5,405.4,135.1z" />
	<path fill="#CECDDB" d="M550.9,578.1c2.2-4.1,7.4-0.1,8.3,3.2c5.7,4.3,8.9,9.3,16.8,4.1c-0.1,2.1-0.9,2.9-2.8,3.9   c0.6,0.3,0.9,0.4,1.3,0.6c-0.8,1.1-2,0.3-2.9,0.7c-3.6-0.3-12.2-2.1-15.6-3.3C555.1,584.2,554.7,578.8,550.9,578.1z" />
	<path fill="#4B64C4" d="M435.1,373.7c3-7.9,4.5-20.5,13.8-23c-2,5.3-1.4,11.1-3.5,16.3c-0.2-0.8,0.3-1.8-0.7-2.3   c0-0.2-0.1-0.5,0-0.7c1.4-1.5,1-3.4-0.7-4.4C444.4,365.7,438.7,369.5,435.1,373.7z" />
	<path fill="#CBCDDA" d="M333.1,575.8c-3-0.1-6.9,10.5-7,13c0.6,0.1,1.3,0.2,2,0.3c-1.5,0.7-3.2,1.1-4.5,2.2l0,0   c-0.3,0.2-0.5,0.5-0.8,0.7c0,0,0,0,0,0c-0.8,0-1.5,0.1-2.3-0.1c-1.2-5.5,8.7-18,13.5-21.4c0.9,0.1,2.4-0.3,3.6,0.7   c-1.9,0.1-4.8-0.3-4.6,2.4C332.3,574.3,332.6,575.1,333.1,575.8z" />
	<path fill="#E7C6B6" d="M447,96c-2.8,0.2-5.7,0.3-8.6-0.7c-0.2,1-0.4,1.8-0.5,2.5c-1.6-4.8-3.5-9.5-5-14.2c0.3,0,0.5-0.1,0.8-0.1   C438.8,86.6,442.8,91.6,447,96z" />
	<path fill="#0E0B0B" d="M558.2,553.7c-0.7-1.5-2.1-1.7-3.4-2.7c-1.7-4.7,13.4-4.6,15.9-3.3c0.1,0.4,0.2,0.8,0.2,1   c-4.1,1.6-8,1.7-12.3,2.2c4.4,0.3,9.3,0.9,13.5,0.1c0-2,0-3.8,0-5.6c1.5,1.6,0.4,4.2,0.7,6.4C568.4,553.4,561.5,550.1,558.2,553.7z   " />
	<path fill="#E7C5B6" d="M521.3,393.4c0.6-1,1.5-0.6,2.3-0.6c1,2.7,3,4.2,6,4.4c-2.2-1.8-3.8-3.1-5.4-4.4c2-2.1,6.1-0.2,8.2-2.4   c0.8,2.9,0.7,5.9,0.8,8.9c-3.7-0.9-7.7-1.1-11.2,0.1C521.8,397.4,522.8,395,521.3,393.4z" />
	<path fill="#E8C5B6" d="M389.2,105c3.6-8-2.4-16.9-3.7-25.1c5,8.8,8.9,17.6,8.8,28.1C392.4,107.1,390.8,106.1,389.2,105z" />
	<path fill="#E3CEC3" d="M410.7,6c-0.9-0.1-0.8-0.9-0.9-1.5c4.7-3.5,25.5,8.3,25.8,14.8c-1.7-0.4-3.3-0.9-4.8-1.9   c0.3-0.5,0.7-0.9,0.9-1.2c-5.8-5.9-12.4-9.4-20.5-10.9C411.1,5.5,410.9,5.8,410.7,6z" />
	<path fill="#EBC5B6" d="M426.1,72.5c5.5,0.4,8.8,6,14.2,5.9c6.7,0.3,6.4,1.8,12.4-3c0,0.3,0,0.5,0,0.8c-7,10.7-18.7,2.5-26.6-3   C426.1,73,426.1,72.8,426.1,72.5z" />
	<path fill="#0E0C0C" d="M324.5,590.6c4.1-2.3,9.8-2.2,13.2,1.4c0.1,0.7,0.2,1.4,0.2,2c0.8,0.5,1.5,1,2.2,1.4   c-2.9,2.4-4.9-0.8-6.9-2.6c-3.4-1.1-9.4-2-11.1,2.1c-1.3-0.5-1.5-1.7-1.6-2.9c0.2,0,0.4,0.1,0.6,0.1c0.7,1.1,0.8,1,1.7,0l0,0   c0.3-0.2,0.5-0.5,0.8-0.7l0,0C323.9,591.1,324.2,590.9,324.5,590.6z" />
	<path fill="#C3C5D2" d="M347.8,540.2c-1,3-4.4,10.5-2,12.8c-1.1,0.7-2.8,0.3-3.4,1.9c0.7,0.3,1.3,0.5,2,0.8c-1.1,0.2-2.5,0-2.4,1.5   c-0.3-0.3-0.6-0.5-0.9-0.8C341.7,551.2,340.7,540.8,347.8,540.2z" />
	<path fill="#BCBFCC" d="M322.2,594.9c1.7-4.1,7.7-3.2,11.1-2.1c2,1.8,3.9,5,6.9,2.6c-0.7-0.5-1.4-0.9-2.2-1.4   c-0.1-0.6-0.1-1.3-0.2-2c2.6,0.9,3.5,3.6,5.9,4.6c-2.8,0.5-6.5,1.4-9.2,0.2C331.2,593.8,326.2,595.5,322.2,594.9z" />
	<path fill="#EAC4B5" d="M426.1,72.5c0,0.3,0,0.5,0,0.8c-1.9-0.3-3.8-0.6-5.6-0.9c-3.7-3.9-6.3-8.6-9.3-13.1   C418.1,60.5,419.7,70.1,426.1,72.5z" />
	<path fill="#070505" d="M344.4,555.7c-0.6-0.2-1.2-0.5-2-0.8c0.6-1.6,2.3-1.2,3.4-1.9c4.5,0.9,19.6-0.1,9.5,6.6   c-0.5-0.5-1.1-1-1.6-1.5c0.4-0.1,0.9-0.1,1.9-0.3C351.5,555.6,348.3,557.3,344.4,555.7z" />
	<path fill="#394D97" d="M393.6,294.6c-0.4,4.3-2.5,21.4-6.6,22.2C388.5,309.5,389.2,300.6,393.6,294.6z" />
	<path fill="#4B62C0" d="M428.3,288.8c8,0.2,17,4.4,21.3,11.3C443.1,295.1,435.1,293,428.3,288.8z" />
	<path fill="#C8CFE6" d="M418.7,246c-0.4-3.9-3.3-8.3-2.1-11.9c1.6,0.1,2.6,0.2,1.5,2.3c1.6,3.6,4.4,6.5,6.4,10.3   C422.3,246.7,420.4,247.5,418.7,246z" />
	<path fill="#0E0F12" d="M475.6,262.9c0,0.3,0,0.5,0,0.8c-3.2-1.1-2.3-3.7-0.7-5.6c5.3-2.1,8.6-6.8,12.5-10.7   c0.1,0.4,0.2,0.8,0.3,1.2c0.7-0.2,1.3-0.3,1.8-0.5c-4.2,4.8-9.3,8.9-14,13.1C475.5,261.9,475.5,262.4,475.6,262.9z" />
	<path fill="#281E1B" d="M437.9,80.7c8.5,3.7,12-3.2,18.4-6.1c0.3,0.3,0.7,0.7,1,1c-9.2,4.3-4.8,10.9-20.2,6.4   c0,0.7,0.1,1.1,0.1,1.5l-0.2,0.2C435.8,82,436.9,81.9,437.9,80.7z" />
	<path fill="#3A4D94" d="M381,358.7c0.1,0.6,0.2,1.2,0.2,1.8c3.9-8,1.6-17.8,5.7-25.3l0,0c-2,9.3-0.9,19.6-5.1,28.1   c0.1-0.9-0.4-1.7-1.5-1.5C380.4,360.7,380.1,359.6,381,358.7z" />
	<path fill="#C3C3D0" d="M591.4,588.3c-4.4,1.1-8.9,0.1-13.1,1.7c-0.3-0.2-0.5-0.5-0.8-0.7c2.5-4,7.5-3.5,11.7-3.1   C589.9,586.9,590.7,587.6,591.4,588.3z" />
	<path fill="#465FBB" d="M418.7,253.3c-2.8-0.2-5.5-0.5-8.4-0.7c-0.3-1.6-0.5-2.6-0.4-4.1c1.9-0.4,2,1.2,2.6,2.2   c0.2-0.5,0.4-0.9,0.6-1.5C415.8,249.5,419.9,249.3,418.7,253.3z" />
	<path fill="#30407B" d="M381.1,361.8c1,0.3,0.8,1.4,0.7,2.2c-4.4,5.5-0.8,12.3-1.8,18.6c-2.5-2.8-0.5-7-2.6-9.7   c1.5-3.3,1.5-7,2.9-10.3l0.2-0.1c0.1,0.2,0.2,0.4,0.3,0.6C381,362.6,381.1,362.2,381.1,361.8z" />
	<path fill="#0D111D" d="M407.8,255c2.7,4.1,5.5,8.1,8,12.3c-0.2,0.2-0.5,0.5-0.7,0.7c-3-3.9-6-7.8-9-11.7c0-0.8-0.1-1.5-0.1-2.2   C406.8,254,407.5,254.1,407.8,255z" />
	<path fill="#171E3B" d="M457,257.6c-3.4,0.3-6.8,0.4-10.2-0.7c-0.3-0.4-0.5-0.8-0.8-1.3c2.9-1,6.3,2.1,9.2,1   c-0.2-2.1-0.3-4.2-0.4-6.2c1.3-0.6,2.5-1.5,3.9-0.2l-0.2,0.2c-0.7,0-1.3,0-2,0.3c0.2,0.2,0.3,0.3,0.5,0.5   C456.1,253.2,456.1,255.7,457,257.6z" />
	<path fill="#465FB8" d="M418.7,253.3c0-0.6,0.1-1.2,0.1-1.8c1.8-1.5,1.9-1.5,4-0.1c0.9-0.7,2-1.5,3.3-0.4c0,0.9-0.1,1.8-0.1,2.9   C423.3,254.3,421.2,254,418.7,253.3z" />
	<path fill="#2B292A" d="M475.4,121c5.4-4.6,3-11.8,4.5-17.7c0.5,3.1-0.9,7.2,0.8,9.8c-0.4,3.4-1,7.1-4.4,8.8   C476,121.6,475.7,121.3,475.4,121z" />
	<path fill="#4661BF" d="M451.2,256.2c-1.5-0.3-3-0.6-4.5-0.9c0.1-1.4-0.2-2.8,0.1-4.2c1.3,0.5,2.6,0.1,4.1-0.1   C451.2,252.9,451.3,254.4,451.2,256.2z" />
	<path fill="#465FBC" d="M451.2,256.2c0-0.8,0-1.5,0-2.3c0.7-1.1,1.3-2.1,2.1-3.4c0.3,0,0.9-0.1,1.5-0.1c0.1,2,0.3,4.1,0.4,6.2   C453.9,257.6,452.6,256.2,451.2,256.2z" />
	<path fill="#0D111D" d="M422.4,254.1c1.1-0.1,2.3-0.1,3.6-0.2c0.1-1.1,0.1-2,0.1-2.9c0.3,0,0.6,0,0.9,0c-0.1,1.4-0.1,2.9-0.2,4.3   c-5.8-0.5-12.3,1.2-17.7-0.6C413.4,254.3,418.6,255.8,422.4,254.1z" />
	<path fill="#B0A7AC" d="M354.5,561c-0.8,1.6-3-0.2-3.7,1.5c-3.5,0-7.1,0-10.6,0c0-0.1-0.1-0.3-0.1-0.4   C344.4,560.2,349.8,561.2,354.5,561z" />
	<path fill="#453A36" d="M390.8,89.3c-3-3.3-4.5-7.8-5.9-12.1c0.4-0.1,0.8-0.2,1.2-0.2c1.8,3.9,3.4,7.8,5.5,11.6   C391.3,88.9,391,89.1,390.8,89.3z" />
	<path fill="#506BCF" d="M373.7,379.5c1.5,3.3-1.4,7.7-1.9,11.3c-0.5-2.3-0.2-4.7-0.4-7C372.2,382.3,372.8,380.8,373.7,379.5   L373.7,379.5z" />
	<path fill="#3B312D" d="M379.7,406.8c0,0.4,0,0.7,0,1.1c0.5,0.2,1.2,0.5,1.7,0.8c0.4,2.2-1,4.2-1.5,6.6c-1.5-1.1-0.5-2.7-1.6-3.9   C377.9,409.6,378.1,408,379.7,406.8z" />
	<path fill="#D4DADA" d="M416.6,75.7c3.1-0.2,5.9-2.5,7.3,1.4c-0.8,0.8-1.9,0.7-2.8,1.4C419.7,77.6,418.4,76.8,416.6,75.7z" />
	<path fill="#5E9195" d="M348.5,556.7c2.3-0.2,4.5-0.4,7.2,1.1c-5.2,0.7-9.7-0.1-15.1,0c0.2-0.5,0.3-0.9,0.5-1.3   c0.3,0.3,0.6,0.5,0.9,0.8C344.2,557.1,346.5,557.7,348.5,556.7z" />
	<path fill="#CBD4DB" d="M572.3,545.5c0,1.8,0,3.6,0,5.6c-1.4,1-3.7-0.5-5.1-1.1c1.2-0.4,2.4-0.8,3.9-1.2c-0.1-0.2-0.1-0.6-0.2-1   c1.1-1.6,0.7-3.6,0.8-5.4C571.8,543.4,572,544.5,572.3,545.5z" />
	<path fill="#292221" d="M535.3,405.5c-1.2,0.5-0.3,2.1-1.3,2.7c-1.4-1.1-1.3-3.6-2-5.3c0.7-1.5,1.6-0.1,2.7-0.6   C535.9,403.2,535.3,404.4,535.3,405.5z" />
	<path fill="#302825" d="M445.3,94c-2.7-2.7-5.4-5.4-8.2-8.1c0.6-0.3,0.8-0.8,0.6-1.4l0.2-0.2c1.7,3.5,5,5.7,7.5,8.7   C445.4,93.3,445.3,93.6,445.3,94z" />
	<path fill="#BFDBE2" d="M562.1,556.8c-0.4-1.1-1.7-0.8-2.4-1.7c4.4-0.2,8.8-0.1,13.2,0.3C569.5,557.4,565.5,555,562.1,556.8z" />
	<path fill="#182447" d="M446.9,251.1c-0.1,0.2-0.1,0.4-0.1,0.6c-2.5,0-0.5,2.9-2.1,3.7c-0.1-1.1-0.2-2.1-0.3-3.3   c-2.6-1.1-5.6,0.6-8-0.9C439.9,251.2,443.4,251.2,446.9,251.1z" />
	<path fill="#624943" d="M545,544.1c-1.1-1.9-1.7-4.2,0.2-5.8c0.5,2.1,0.1,4.9,2.7,5.2C547.2,544.4,546,544,545,544.1z" />
	<path fill="#C8AC9E" d="M411.3,67.5c0.4,1.7,1.9,1.5,3.1,1.3c0.5,0.5,1,1,1.5,1.5c-0.3,0.3-0.5,0.5-0.8,0.8c-0.2-0.1-0.5-0.1-0.7,0   c-1.5-0.3-2.9-1.1-4.3-1.7c0-0.4,0-0.9,0-1.3l0.1,0C410.4,67.9,410.8,67.7,411.3,67.5z" />
	<path fill="#C4C9C9" d="M363.9,553.3c1.8,0.3,3.2,0.5,4.9,0.8c-0.5,1-0.9,1.6-1.4,2.5C365.8,556.1,364.8,555,363.9,553.3z" />
	<path fill="#85B9BF" d="M342.7,566.8c0,0.2,0,0.5-0.1,0.7c-2.1,0-4.1,0-6.3,0C337.4,565.4,340.8,565.8,342.7,566.8z" />
	<path fill="#C4D5DB" d="M568.7,561.8c-0.8-0.5-1.6-1-2.3-1.5c3.7,0,6.8-0.7,10.6,0.2C574,561.7,571.5,561,568.7,561.8z" />
	<path fill="#4B3B37" d="M388.5,399.5c0.2,0.3,0.4,0.6,0.6,0.9c-1.7,2.1-2.9,2.9-5,3.2c1.4-1.4,2.3-2.4,3.5-3.8   c-0.5-0.3-1-0.7-1.4-1C387.1,398.6,388,398.4,388.5,399.5z" />
	<path fill="#C7D2D2" d="M546.2,550.3c-0.5-0.8-0.9-1.4-1.5-2.2c1.6-0.4,2.9-0.7,4.4-1.1C548.7,548.7,548.7,548.7,546.2,550.3z" />
	<path fill="#2C3B74" d="M407,249.5c0.3-0.6,0.7-1.1,1.2-2.1c0.3,1.8,1.4,3.1,0.6,5.1c-0.7-0.2-1.3-0.5-1.9-0.7   C406.9,251.1,407,250.3,407,249.5z" />
	<path fill="#302927" d="M366.3,550c1.4-1.2,1.8-3,2.2-4.8c1.6,2.6,0.4,3.1,0.1,5.5C367.8,550.7,366.9,551,366.3,550z" />
	<path fill="#CDD4D4" d="M409.9,71.6c-0.1-0.1-0.1-0.3-0.1-0.5c2,0.5,4.1,1.1,5.9,2.2c0.1,0.4,0.2,0.8,0.3,1.7c-2.4-1-3.9-1.9-6-2.7   C410,72.1,409.9,71.9,409.9,71.6z" />
	<path fill="#858B91" d="M543.4,552.2c-1.7,1.5,0.5,4.2-1.4,5.9c0-2.6-0.1-5.2-0.1-7.9C542.9,550.4,543.1,551.4,543.4,552.2z" />
	<path fill="#3F57A9" d="M407,249.5c0,0.8,0,1.6-0.1,2.4c-0.6-0.1-1.2-0.2-1.8-0.2c0.2-1.4,0.3-2.7,0.4-4   C406.8,247.8,406.9,248.7,407,249.5z" />
	<path fill="#1F1715" d="M417.3,68.7c1.1,1.2,2.1,2.4,3.2,3.6c-0.5,0.3-1.1,0.6-1.6,0.9c0-1-0.5-1.5-1.5-1.6   c-0.3-0.5-0.5-0.9-0.8-1.4C417.3,70,417.2,69.3,417.3,68.7z" />
	<path fill="#323136" d="M448.3,133.8c-1.2,1.2-1.5,3.3-3.6,2.8c1.1-1.6,2-3,2.8-4.4C447.7,132.8,447.5,133.6,448.3,133.8z" />
	<path fill="#84A0AB" d="M577.5,589.3c0.3,0.2,0.5,0.5,0.8,0.7c-2.2,0.8-4.4,1.8-6.8,0.7c0.9-0.5,2.1,0.3,2.9-0.7   C575.5,589.7,576.5,589.5,577.5,589.3z" />
	<path fill="#27366A" d="M463,250.3c0,1.3,0,2.6,0,4.1c-1.3-1.2-1.4-2.6-1.5-4C462,250.4,462.5,250.3,463,250.3z" />
	<path fill="#141C38" d="M460.3,250.5c-0.3,1.4,0.2,3-0.9,4.2c-0.3-1.4-0.6-2.8-0.9-4.3c0,0,0.2-0.2,0.2-0.2   C459.2,250.3,459.8,250.4,460.3,250.5z" />
	<path fill="#464240" d="M412.1,71.8c-0.7-0.2-1.5-0.4-2.2-0.6c-0.2-0.3-0.4-0.6-0.6-0.9c0.3-0.3,0.5-0.5,0.8-0.8   c1.2,0.5,2.4,1,3.6,1.5C413.1,71.2,412.6,71.5,412.1,71.8z" />
	<path fill="#715750" d="M388.5,134.4c1.8,0.4,1.9,0.5,2,2.4c-0.3,0.1-0.7,0.2-1.2,0.3C389.1,136.2,388.8,135.3,388.5,134.4z" />
	<path fill="#201717" d="M360.5,59.2c1.6,0,3.2-0.3,4.6,0.7c-1.1,0-2.3-0.1-3.1,0.8c-0.5,0-1-0.1-1.5-0.1   C360.4,60.1,360.5,59.6,360.5,59.2z" />
	<path fill="#403E42" d="M591.4,588.3c-0.7-0.7-1.5-1.4-2.2-2.1c0.2-0.2,0.5-0.5,0.7-0.7c0.7,0.4,1.5,0.8,2.2,1.2   C592.2,587.4,592.3,588.1,591.4,588.3z" />
	<path fill="#24396F" d="M397.3,263.6c-1,1.6-1,1.6-2.8,0.9C395.4,262.8,395.4,262.8,397.3,263.6z" />
	<path fill="#2A3D78" d="M487.4,247.4c-0.5,0.5-0.9,1-1.4,1.5c-0.5-0.5-1-1-1.5-1.5C485.9,246.4,486.2,246.4,487.4,247.4z" />
	<path fill="#696770" d="M487.5,237.9c-0.3,0.7-0.5,1.5-0.8,2.2c-0.3-0.3-0.6-0.5-0.9-0.8c0.2-0.7,0.5-1.5,0.7-2.2   C487,237.3,487.2,237.6,487.5,237.9z" />
	<path fill="#2D292D" d="M420.8,240.9c-0.5-0.8-0.9-1.5-1.4-2.3c0.2-0.2,0.5-0.5,0.7-0.7c0.6,0.7,1.1,1.4,1.7,2   C421.5,240.2,421.2,240.6,420.8,240.9z" />
	<path fill="#EBC9B9" d="M426.2,97c0.1-1.5-0.5-3.3,0.6-4.5C426.9,94,426.9,95.5,426.2,97z" />
	<path fill="#B6BCD4" d="M454.3,127.2c0-0.6-0.1-1.1-0.1-1.7c0.8,0.2,1.6,0.5,2.3,0.7c-0.4,0.4-0.8,0.7-1.1,1.1   C455.1,127.3,454.7,127.3,454.3,127.2z" />
	<path fill="#3B3533" d="M490.4,114.5c0.8,0,1.6,0.1,2.8,0.1c-1,1.2-2,0.4-2.8,0.8C490.4,115.1,490.4,114.8,490.4,114.5z" />
	<path fill="#7D6A61" d="M417.3,71.7c1,0,1.5,0.5,1.5,1.6c-0.7,0.1-1.3-0.1-1.6-0.7C417.2,72.3,417.3,72,417.3,71.7L417.3,71.7z" />
	<path fill="#7D6A61" d="M416.5,70.3c0.3,0.5,0.5,0.9,0.8,1.4c0,0,0,0,0,0c-0.3,0.1-0.6,0.2-0.9,0.2c-0.4-0.1-0.9-0.2-1.3-0.4   c0-0.2-0.1-0.4-0.1-0.5c0.3-0.3,0.5-0.5,0.8-0.8C416.1,70.2,416.3,70.2,416.5,70.3z" />
	<path fill="#070505" d="M354.5,561c-0.5-0.1-1-0.1-1.4-0.2c0.8-0.4,1.5-0.9,2.3-1.3C355.1,560.1,354.8,560.6,354.5,561z" />
	<path fill="#756963" d="M433.6,83.4c-0.3,0-0.5,0.1-0.8,0.1c-0.3-0.3-0.5-0.6-1-1.1C433,82.4,433.4,82.8,433.6,83.4z" />
	<path fill="#4B62C0" d="M426.1,288c0.8,0,1.8-0.4,2.3,0.7C427.5,288.7,426.6,288.8,426.1,288z" />
	<path fill="#464240" d="M413.6,72.4c-0.5-0.2-1-0.4-1.5-0.6C412.7,71.6,413.3,71.8,413.6,72.4z" />
	<path fill="#464240" d="M409.9,71.6c0,0.3,0.1,0.5,0.1,0.8c-0.7,0.2-1.3,0.1-1.6-0.6C408.9,71.8,409.4,71.7,409.9,71.6z" />
	<path fill="#464240" d="M415.7,73.4c-0.5-0.3-0.9-0.5-1.4-0.8C415,72.4,415.5,72.5,415.7,73.4z" />
	<path fill="#464240" d="M415,71.1c0,0.2,0.1,0.4,0.1,0.5c-0.3-0.2-0.5-0.3-0.8-0.5C414.5,71,414.8,71,415,71.1z" />
	<path fill="#7D8A7E" d="M409.5,129.9c-0.1,0-0.1-0.1-0.2-0.1c0.1-0.1,0.2-0.2,0.2-0.3c0.1,0.1,0.1,0.2,0.2,0.2   C409.7,129.8,409.6,129.9,409.5,129.9z" />
	<path fill="#4B65C5" d="M381.1,361.8c0,0.2,0,0.5,0,0.7c-0.3,0.1-0.5,0-0.8,0.1c0-0.2,0.1-0.5,0.1-0.7   C380.6,361.8,380.9,361.8,381.1,361.8z" />
	<path fill="#302825" d="M437.1,85.9c-0.3-0.2-0.5-0.5-0.8-0.7C436.6,85.4,436.9,85.6,437.1,85.9z" />
	<path fill="#464240" d="M416.4,72c0.3-0.1,0.6-0.2,0.9-0.2c0,0.3-0.1,0.5-0.1,0.8C416.9,72.4,416.7,72.2,416.4,72z" />
	<path fill="#624943" d="M544.1,544.6c0.3-0.2,0.6-0.3,0.9-0.5C544.7,544.3,544.4,544.4,544.1,544.6z" />
	<path fill="#464240" d="M410.6,72.6c0.3,0.2,0.6,0.3,0.9,0.5C411.2,72.9,410.9,72.7,410.6,72.6z" />
	<path fill="#756963" d="M432.9,84.2c0.1,0.3,0.3,0.6,0.4,0.9C433.2,84.8,433.1,84.5,432.9,84.2z" />
	<path fill="#4B65C5" d="M373.7,379.5c-0.2,0.2-0.3,0.5-0.5,0.7C373.4,380,373.5,379.7,373.7,379.5z" />
	<path fill="#302825" d="M437.8,84.5c-0.2-0.3-0.5-0.5-0.7-0.8l0.2-0.2c0.2,0.2,0.5,0.5,0.7,0.7C438,84.2,437.8,84.5,437.8,84.5z" />
	<path fill="#EDC9B9" d="M348.6,47.3c4.8-9.6,15.3-14.6,23-21.3c0.1,0.4,0.1,0.8,0.2,1.7c1.2-2,2.4-2.8,4.2-3.9   c0.5,0.4,1,0.9,1.5,1.4c-11.9,10.4-26.7,21.6-31.1,36.8c-0.2,0.1-0.4,0.2-0.4,0.4c0.1-0.1,0.3-0.3,0.4-0.4c1,0,1.9,0,2.9-0.1   c-1,1.6-2.6,1.6-4.2,1.6c-0.2-0.3-0.3-0.6-0.6-1.1c-0.7,0.6-1.3,1.2-1.9,1.7c-0.2,0-0.4,0.1-0.7,0.1c-1.9-1.5-4.9-0.2-7.5-0.6   c-0.5-8.6,8.2-4.4,12.8-15.6c0,0.3,0.1,0.7,0.2,1.3c1.4-1.4,6.8-2,5.1-4.2C351.3,46,350,46.8,348.6,47.3z M336.7,62.2   c3.6-0.6,6.8-0.7,6.8-4.3C341.1,59.5,338.9,60.2,336.7,62.2z" />
	<path fill="#ECC7B7" d="M387.8,16.5c5.6-3.9,9.1,2.2,13.6-1c3.9-2,9.7-5.9,13.7-3.4c-7,0.8-12.1,11.3-19.4,7.9   c-2.8-1-6.2-1.3-9.2-0.7c0-0.5,0.1-0.8,0.1-1.5c-0.6,0.1-1.2,0.1-1.7,0.2C385.6,17,386.7,16.8,387.8,16.5c0.4,0.3,0.7,0.7,1.2,1.1   C389.3,15.9,388.4,16.4,387.8,16.5z" />
	<path fill="#2C201E" d="M410.7,6c0.2-0.3,0.4-0.5,0.5-0.7c8.1,1.5,14.7,5,20.5,10.9c-0.2,0.3-0.6,0.8-0.9,1.2   c0.7,0.4,1.3,0.8,2,1.1c-1.3,0-2.6,0-3.6,0C424.4,9.7,419.7,10.1,410.7,6z" />
	<path fill="#1A1B1B" d="M419.5,20.8c-0.5,2.1-1.1,4.1-3.7,4.4c-0.4-1.2,1.3-1.3,1.3-2.3c-0.9-0.5-2.2,0-2.5-1.4   C415.4,20.6,418,21.2,419.5,20.8L419.5,20.8z" />
	<path fill="#282B2B" d="M405.5,40c1.8,2.1-1.4,0.7-1.6,2.2c-2-0.3-3.8,0.3-5.6,1.3c-0.1-0.6-0.1-1-0.2-1.3   C400,39.5,403.4,42,405.5,40z" />
	<path fill="#5B413C" d="M377.5,25.3c-0.4-0.5-0.9-1-1.5-1.4c0,0,0,0,0,0c1.4-1.3,3.2-2,5-2.4C381.4,23.6,378.8,24.2,377.5,25.3z" />
	<path fill="#BBA89F" d="M454,40.8c0.4-1,0.7-2,1.2-3.1c1.4,1.3,1.3,3.1,2.1,4.6c-1.5,0.5-2.1-0.6-3-1   C454.3,41.1,454.2,40.9,454,40.8z" />
	<path fill="#202322" d="M410,69.4c-0.3,0.3-0.5,0.5-0.8,0.8c-1.6-1.1-2.6-2.5-3.1-4.4c0.5-0.2,1.1-0.5,1.6-0.7   c-0.1,1.9-0.1,1.9,1.4,2.2c0.3,0.3,0.5,0.5,0.8,0.8C409.9,68.6,410,69,410,69.4z" />
	<path fill="#0F1010" d="M405.4,33.9c-1.1,0.8-2.1,1.5-3.2,2.2c-1.5-0.5-1.2-2.6,0.5-2.3c0.6,0.1,1.2-0.5,1.8-0.8   C404.8,33.2,405,33.5,405.4,33.9z" />
	<path fill="#1F2121" d="M415.8,25.3c0,1.1,0,2.2-1.2,2.8c-1.5-0.7-1.5-0.7-2.4-2.4C413.4,25.2,414.8,26.4,415.8,25.3L415.8,25.3z" />
	<path fill="#201717" d="M349.3,62.1c-1,0-1.9,0-2.9,0.1l0,0c-0.1-0.2-0.1-0.5,0-0.7c1.4,0.3,1.9-1.3,3.1-1.5   c0.9,0.1,1.6,1.4,2.7,0.7c0,0.2,0.1,0.5,0.1,0.7C351.2,61.2,350.1,61,349.3,62.1z" />
	<path fill="#333C3B" d="M427.5,24c-1.2-0.4-1.4,1.1-2.5,1.2c-0.6-0.4-1.2-0.9-1.8-1.4c0.7-0.5,1.5-1,2.1-1.5   C426.2,22.9,427.4,22.8,427.5,24z" />
	<path fill="#1F2121" d="M409.2,17.1c1.4-2.3,3.1-1.2,5-1.5C412.8,18,411.1,16.9,409.2,17.1z" />
	<path fill="#DAC6BB" d="M437.1,18.6c-0.4-1.3-0.8-2.7-1.3-4.2c1.6,0.5,2,1.8,2.8,2.7C438.7,18,438.2,19.8,437.1,18.6z" />
	<path fill="#D9C5B5" d="M406.9,61.4c1.3,0.5,2.1,0.8,3,1.1C409.2,64.2,407.4,63.5,406.9,61.4z" />
	<path fill="#423F3A" d="M414.3,68.8c-1,0-2.2,0.6-2.8-0.8c0.4-0.4,0.7-0.8,1.1-1.3C413.7,67,413.9,68,414.3,68.8z" />
	<path fill="#BBABA1" d="M424.7,12.6c0.7,1,3.2,1.9,2.1,3.1c-1-0.7-2.1-1.4-3.1-2.2C424.1,13.3,424.4,13,424.7,12.6z" />
	<path fill="#0F1010" d="M406.1,37.8c-0.4,0.3-0.9,0.7-1.3,1c-0.5-0.6-1-1.2-1.5-1.8C404.4,35.5,405.5,36.9,406.1,37.8z" />
	<path fill="#202222" d="M444.7,29.5c-2.3-0.6-2.3-0.6-3-2.9C442.9,27.7,443.6,28.5,444.7,29.5z" />
	<path fill="#ECC7B7" d="M415.6,12.1c1.8,0.1,3.9-0.7,5.3,0.6C419.2,12.6,417.3,13.1,415.6,12.1z" />
	<path fill="#AE9D95" d="M448.3,30.5c0.4,0,0.7,0,1.3,0c0,0.7,0,1.4,0,2.1c-0.5,0-0.9,0-1.2-0.1C448.3,31.8,448.3,31.2,448.3,30.5z" />
	<path fill="#423F3A" d="M411.3,67.5c-0.4,0.2-0.9,0.5-1.3,0.7C409,66.2,411.6,64.9,411.3,67.5z" />
	<path fill="#76655D" d="M409.2,67.3c-1.5-0.3-1.6-0.3-1.4-2.2C408.9,65.4,409.2,66.3,409.2,67.3z" />
	<path fill="#1E2222" d="M433.4,19.8c1.1,0.7,1.6,1,2.2,1.4C434.6,21.8,433.9,21.8,433.4,19.8z" />
	<path fill="#1A1B1B" d="M419.5,20.8c-0.1-0.3-0.2-0.7-0.4-1.1c0.6-0.7,1.2-0.5,1.7,0.2C420.8,20.9,420,20.7,419.5,20.8L419.5,20.8z   " />
	<path fill="#6E5E57" d="M409.3,60c-0.8,0.6-1,0.7-1.5-0.2C408.5,59.2,408.7,59.2,409.3,60z" />
	<path fill="#0F1010" d="M401.2,37.7c-0.6,0-1.3,0-1.9,0c0-0.1,0-0.2,0-0.4c0.7-0.1,1.3-0.1,2-0.2C401.2,37.3,401.2,37.5,401.2,37.7   z" />
	<path fill="#1F2121" d="M415.6,15.7c0.2,0.6,0.4,0.9,0.5,1.3C415.3,17.2,414.9,16.5,415.6,15.7z" />
	<path fill="#5B413C" d="M381,21.5c0.5-0.3,0.9-0.6,1.4-0.9C382.4,21.6,381.8,21.7,381,21.5z" />
	<path fill="#010000" d="M451.4,29.6c-0.1,0.2-0.2,0.4-0.4,0.6C450.5,29.6,451.3,29.8,451.4,29.6C451.3,29.5,451.4,29.6,451.4,29.6z   " />
	<path fill="#4B65C5" d="M492.6,297.7c0.7,1.1,1.9,0.9,2.6,0.6c5.3-1,10.7-0.8,15.9-0.9c-7.2,3.8-16.4,4.4-23.7,8.5   c-1.8,1.5-7.6,0.4-7.4,2.9c-0.3,0.2-0.5,0.4-1,0.8c-0.4-0.5-0.8-1-1.3-1.6c-23.4,7.4-18.8-8,6-8.8c-6,3.4-14,3.5-19.1,8   C474.2,306,483,299.8,492.6,297.7z" />
	<path fill="#4B65C5" d="M468.2,322.5c-2.6-0.6-9.9-3.1-4.9-5.8c10.7-2.5,22.1,0.3,32.9,1.9c-1.5,1.2-2.7,1.4-4.4,1.8   C484.6,318.4,475.9,322.3,468.2,322.5z" />
	<path fill="#4B65C5" d="M443.8,366.2c-0.7,2.9-7.3,25.1-10.9,21.1c0.3-2.3,1.6-6-0.2-7.9C435.7,374.6,440.2,370.6,443.8,366.2z" />
	<path fill="#030407" d="M427.6,265.1c0.1-1.9,0.1-3.8,0.2-5.7l0-0.1c0.9-0.1,1.9-0.2,2.8-0.2c2.4,4.4,2.4,10.5,1.5,15.4   C428.4,274.8,428.5,267.8,427.6,265.1z" />
	<path fill="#4B65C5" d="M469.7,268.8c-0.3-0.1-0.7-0.2-1.2-0.4c-0.8,2.4,0.1,5.1-1.3,7.4c-2.2-2.8-7.7-18.1-1.1-17.3   c-0.6,0.5-1.1,1.1-1.8,1.7C466.2,263.2,468.3,265.6,469.7,268.8z" />
	<path fill="#14121E" d="M480,308.7c3.7-4.5,26.9-4.3,34.2-4.8C503.3,307,491.3,306.5,480,308.7z" />
	<path fill="#040509" d="M469.7,268.8c-1.5-3.1-3.6-5.6-5.4-8.5c0.6-0.6,1.2-1.1,1.8-1.7c5.2,1.6,7.4,9.6,5.1,13.9   C470.7,271.2,470.2,270,469.7,268.8z" />
	<path fill="#222946" d="M521.2,378.7c1.7-10.4,3.9-20.3,7.1-30.4c0.3,10.9-5.2,21-6.4,31.8C521.7,379.6,521.5,379.2,521.2,378.7z" />
	<path fill="#4C66C7" d="M445.3,309.3c-3.4,4.5-10.8-1.8-14.1-4.8c2.2-0.4,3.6,0.7,5.2,1.2C439.4,306.7,443.1,306.5,445.3,309.3z" />
	<path fill="#0A0911" d="M421,278.2c6.8,0.8,14.2,2.1,19.6,6.4c-0.2,0.4-0.4,0.7-0.6,1c-6.2-2.2-12.7-4.5-19.1-6.5   C421,278.8,421,278.5,421,278.2z" />
	<path fill="#121322" d="M490.3,298.2c-8.6,2.6-16.9,7.8-25.7,8.9c7-4.9,16.7-6.6,24.9-9.6C489.7,297.7,490,298,490.3,298.2z" />
	<path fill="#3A4469" d="M454.8,298.6c-0.3,9.8,3.5,19.3,1.2,29c-0.7-9.5-2.1-19.4-1.6-29C454.5,298.6,454.6,298.6,454.8,298.6z" />
	<path fill="#141524" d="M468.2,322.5c6.2-0.2,13.4-3.3,19.1-1.4c-6.7,1.1-13.4,2.3-20.1,3.1C466.7,323,467.7,322.9,468.2,322.5z" />
	<path fill="#121526" d="M443.8,366.2c-3.5,3.9-6.9,7.9-10.4,11.8c-0.3-0.3-0.5-0.6-0.8-0.8c3.1-5.3,8.8-8.9,11.2-14.6   c1,0.4,0.6,1.4,0.7,2.2C444.4,365.2,444.1,365.7,443.8,366.2z" />
	<path fill="#171522" d="M430.6,324.2c5.6-0.1,11.6-1.7,17-1.1c-4.6,2.5-11,1.3-16.3,2.1C431.1,324.9,430.8,324.6,430.6,324.2z" />
	<path fill="#5064AD" d="M454.1,266.5c-0.5,4.9,1.1,9.1,0.4,13.9c-1.8-3.9-1.4-8.3-1.8-12.5C453.2,267.5,453.7,267,454.1,266.5z" />
	<path fill="#292D4F" d="M433.6,312.2c3.5,0.7,6.9-0.3,9.9,2.2c-4.6,0.3-8.3-1.2-12.1-1.4C431.9,311.9,432.9,312.5,433.6,312.2z" />
	<path fill="#111320" d="M444.6,268.8c-1.8-1.5-3.9-7.9-1.1-8.7c0.8,2.5,0.4,5.4,1.9,7.8C445.1,268.3,444.8,268.6,444.6,268.8z" />
	<path fill="#49579A" d="M433.6,312.2c-0.7,0.4-1.7-0.2-2.2,0.8c-3.9-1-8.1-0.1-11.4-2.6C424.6,310.5,429.2,311.4,433.6,312.2z" />
	<path fill="#141525" d="M507.3,276.6c0.3,0.3,0.5,0.7,0.9,1.1c-1.8,2.7-4.9,3.1-7,5.1C499.5,280.7,506,278.4,507.3,276.6z" />
	<path fill="#4C61B3" d="M516.2,353.6c-1.8,3-3.3,6.2-5.4,9c0-2.5,0.9-4.3,4.7-9.7C515.7,353.1,515.9,353.4,516.2,353.6z" />
	<path fill="#21243E" d="M490.3,298.2c-0.3-0.2-0.5-0.5-0.8-0.7c3.2-1.2,6.4-2.5,9.6-3.7c0.3,0.3,0.5,0.5,0.8,0.8   C496.6,295.7,493.7,297.5,490.3,298.2z" />
	<path fill="#394272" d="M499.9,294.5c-0.3-0.3-0.5-0.5-0.8-0.8c3.2-1.2,6.5-2.4,9.7-3.6c0.2,0.2,0.4,0.5,0.7,0.7   C506.2,292.1,503.1,293.3,499.9,294.5z" />
	<path fill="#323E7B" d="M459.4,254.7c0.8-0.9,0.8-1.9,0.7-3c1.3,1.1,0.2,2.8,1,4.2c0.7,0.2,1.4,0.3,2.9,0.7c-2.8,0.4-4.9,0.6-7,0.9   c-0.2-0.5-0.4-0.9-0.6-1.4c1.1,0,2.1,0,3.3,0C459.6,255.6,459.5,255.2,459.4,254.7z" />
	<path fill="#4F63B3" d="M509.4,290.9c-0.2-0.2-0.4-0.5-0.7-0.7c2.5-1,5.6-3.3,8.1-2.4C514.2,288.8,511.8,289.9,509.4,290.9z" />
	<path fill="#2D3964" d="M454.1,266.5c-0.5,0.5-0.9,1-1.4,1.5c0.2-2.5-0.6-5.2,0.6-7.4C453.3,262.7,454.5,264.4,454.1,266.5z" />
	<path fill="#42518B" d="M516.2,353.6c-0.2-0.2-0.5-0.5-0.7-0.7c0.8-1.9,1.6-3.7,2.7-6.1C518.9,349.9,516.9,351.6,516.2,353.6z" />
	<path fill="#42528D" d="M521.2,378.7c1.4,1.8,0.2,3.9-0.3,5.8C519.1,383.7,520.6,380.3,521.2,378.7z" />
	<path fill="#323F72" d="M487.3,321.1c-0.5-1-1.5-0.4-2.2-0.7c2-0.8,4.9-1.3,6.7,0.1C490.3,320.7,488.9,321.5,487.3,321.1z" />
	<path fill="#495592" d="M420.2,325.6c2-1.5,5.6-0.8,8.1-1.4c-0.5,0.4-1,0.9-1.4,1.3C424.7,325.6,422.5,325.6,420.2,325.6   L420.2,325.6z" />
	<path fill="#1B2540" d="M471.2,272.5c1.4-1.2,0.4-3.6,0.8-5.3c1,2.1,0.6,4.3,0.5,6.5C471.2,273.9,471.1,273.2,471.2,272.5z" />
	<path fill="#303A72" d="M426.8,255.5c0-0.5,0-0.9,0-1.4c2.1,0.3,4.2,0.7,6.8,1.1C431,255.8,429,255.5,426.8,255.5z" />
	<path fill="#485997" d="M431.3,381c-0.6,1.1-1.2,2.3-1.9,3.7c-0.6-2.1,0-3.4,1.2-4.5C430.8,380.4,431,380.7,431.3,381z" />
	<path fill="#495896" d="M413.6,326.3c0-0.2,0-0.5,0-0.7c2.2,0,4.4,0,6.6,0l0,0C418.7,327.3,415.7,326,413.6,326.3z" />
	<path fill="#2A304F" d="M426.9,325.5c0.5-0.4,1-0.9,1.4-1.3c0.7,0,1.5,0,2.2,0c0.2,0.3,0.5,0.7,0.7,1   C429.8,325.4,428.4,325.5,426.9,325.5z" />
	<path fill="#3A509E" d="M444.6,255.4c1.6-0.7-0.2-2.9,1.5-3.5c0,1.3,0,2.5,0,3.8c0.3,0.4,0.5,0.8,0.8,1.3   C445.7,257.1,444.9,256.7,444.6,255.4z" />
	<path fill="#262D4F" d="M431.3,381c-0.3-0.3-0.5-0.5-0.8-0.8c0.7-1,1.5-2,2.2-3c0.3,0.3,0.5,0.6,0.8,0.8c-0.2,0.5-0.5,1-0.7,1.5   l0,0C432.3,380,431.8,380.5,431.3,381z" />
	<path fill="#39477F" d="M444.6,268.8c0.3-0.3,0.5-0.5,0.8-0.8c0.9,0.7,1.9,1.4,3,2.2C446.4,270.5,446.7,270.5,444.6,268.8z" />
	<path fill="#111521" d="M454.1,263.6c-1.2-1.7-0.7-3-0.5-5.3C455.3,260.1,454.1,261.5,454.1,263.6z" />
	<path fill="#222640" d="M421,278.2c0,0.3,0,0.6,0,0.8c-1.1,0.1-2-0.3-2.9-0.7c0.3-0.3,0.6-0.6,0.9-0.9c0.7,0.1,1.4,0.1,2,0.2   C421,277.9,421,278,421,278.2z" />
	<path fill="#4B65C5" d="M430.6,259.1c-0.9,0.1-1.9,0.2-2.8,0.2C428.7,258.2,429.1,258.1,430.6,259.1z" />
	<path fill="#4B65C5" d="M493.2,297.5c0.3-0.2,0.6-0.4,0.9-0.5C493.7,297.1,493.4,297.3,493.2,297.5z" />
	<path fill="#4B65C5" d="M432,380.2c0.2-0.3,0.5-0.5,0.7-0.8C432.5,379.7,432.3,380,432,380.2z" />
	<path fill="#B6BCD4" d="M455.7,127.1c4.9,9.2,11.4,15.7,20.6,20.5c-0.2,0.4-0.4,1-0.7,1.5c-0.7,0.3-1.9-0.3-2.2,0.9   c-2.6,2-4.8-1-7.5-0.7c-6-0.9-11.2-8.3-11.6-14.1c2.4-1.1,0.6-5.5,1.2-7.8C455.5,127.2,455.6,127.1,455.7,127.1z M471.5,148.3   c0-0.2,0-0.3,0-0.5c-0.7,0-1.4,0.1-2.1,0.1c0,0.1,0,0.3,0,0.4C470.1,148.3,470.8,148.3,471.5,148.3z" />
	<path fill="#272427" d="M482.3,179.5c-4.2-10.5-18.5-12.7-21.6-23c6.8,7.8,17.5,12.2,22.4,21.5   C482.8,178.5,483.1,179.2,482.3,179.5z" />
	<path fill="#2A2B2E" d="M452,223.7c1-5.7-0.8-11.5,0.2-16.9c4.1,4.6,1.2,11.4,1.1,16.9C452.9,223.7,452.5,223.7,452,223.7z" />
	<path fill="#1A1618" d="M446.8,158c-3.7,3.1-7.4,6.2-11,9.2c0.6-4.4,6.3-7.8,10.1-10C446.1,157.5,446.5,157.8,446.8,158z" />
	<path fill="#120C0D" d="M483.8,151.8c3.2,0.1,7.2-2.6,9.5,0C492.4,155.6,486.3,153.9,483.8,151.8z" />
	<path fill="#1D1E20" d="M453.4,186.4c-1.1-4.9-1.7-9.7-0.6-14.8C454.4,175.7,453.3,181.8,453.4,186.4z" />
	<path fill="#3E3F45" d="M423,180.2c0,3.5-1.6,6.9-3.9,8.8C419,186.6,419.5,185.5,423,180.2z" />
	<path fill="#060607" d="M455.4,127.3c-0.6,2.3,1.2,6.7-1.2,7.8c-0.2-2.7-1.2-5.4,0.1-7.9c0,0,0,0,0,0   C454.7,127.3,455.1,127.3,455.4,127.3z" />
	<path fill="#38393E" d="M452,195c-0.2-1.3-0.1-2.6,1.4-3.9c0,4.8,0,7.9,0,12.8C449.9,201.4,454.3,198.3,452,195z" />
	<path fill="#282327" d="M426,177.2c1.6-1.9,3.3-3.8,5.1-5.7c0.7,2.8-2.3,5-4.2,6.6C426.6,177.8,426.3,177.5,426,177.2z" />
	<path fill="#382225" d="M446.8,158c-0.3-0.3-0.7-0.5-1-0.8c2.3-0.1,6.5-3.9,7.7-0.9C451.4,157.3,449,157.2,446.8,158z" />
	<path fill="#423E43" d="M491,175.5c0.4-0.9,0.7-1.7,1.1-2.5c3,0.3-0.2,4.5-1.6,5.2C490.1,177.2,490.3,176.4,491,175.5z" />
	<path fill="#372A2D" d="M473.4,150c1.2-1.8,3.3-0.5,5.4-0.5C477.7,151.7,475.1,150.6,473.4,150L473.4,150z" />
	<path fill="#949BAB" d="M452,223.7c0.4,0,0.9,0,1.3-0.1c0.1,1.5,0.4,3-0.4,4.5C452,226.6,452,226.6,452,223.7z" />
	<path fill="#554A51" d="M435.6,166.1c0,0.4,0.1,0.8,0.1,1.2c-1.1,1.4-2.1,2.8-3.9,3.6C431.9,168.8,434.5,167.7,435.6,166.1z" />
	<path fill="#2A272B" d="M453.5,229.4c0,2,0,3.1,0,4.4C451.9,232.3,451.8,231.9,453.5,229.4z" />
	<path fill="#0F0F10" d="M452,195c0.9,2.1,0.9,4,0,5.8C451.4,198.9,451.8,197,452,195z" />
	<path fill="#6B717D" d="M482.3,179.5c0.8-0.2,0.6-1,0.8-1.5c1,0.9,0.8,2.1,0.7,3.5C482.5,181.1,482.2,180.5,482.3,179.5z" />
	<path fill="#3C282B" d="M443.5,139c0.9,1.5-1.2,2.1-2.7,1.9C441.6,139.7,442.3,139.1,443.5,139z" />
	<path fill="#4C444B" d="M435.1,144c-0.5-1,0.4-1.4,0.8-2c0.5-0.1,1.1-0.2,1.8-0.3C437.5,143.5,436,143.3,435.1,144z" />
	<path fill="#312D31" d="M489.4,231.2c0.5,1.2,0.6,2.1-0.8,2.8C487.9,232.8,488.3,231.9,489.4,231.2z" />
	<path fill="#666A74" d="M426,177.2c0.3,0.3,0.6,0.6,0.9,0.9c-0.7,0.9-1.6,1.2-3.3,1.4C424.7,178.5,425.3,177.8,426,177.2z" />
	<path fill="#4A454C" d="M490.2,177c0.1,0.4,0.1,0.8,0.2,1.2c-0.4,0.7-0.8,1.5-1.9,1.2C488.4,178.3,489.7,177.9,490.2,177z" />
	<path fill="#444247" d="M484.8,184.8c1,1,0.3,2,0.1,3C484.6,186.8,484,185.8,484.8,184.8z" />
	<path fill="#9693A3" d="M487.5,237.9c-0.3-0.3-0.6-0.5-0.9-0.8c0.3-0.4,0.6-0.9,0.9-1.4C488.5,236.7,488.2,237.3,487.5,237.9z" />
	<path fill="#60555D" d="M490.5,186.4c0.4-0.3,0.7-0.6,1.1-1C491.7,186.9,491.7,186.9,490.5,186.4z" />
	<path fill="#B6BCD4" d="M454.3,127.2c-0.3,0.8-0.5,1.6-0.8,2.4C453.5,128.7,452.9,127.6,454.3,127.2z" />
	<path fill="#B6BCD4" d="M473.4,150c0.5,0.2,1.1,0.4,1.6,0.7C474.3,150.7,473.7,150.8,473.4,150z" />
	<path fill="#554A51" d="M436.5,164.8c-0.2,0.2-0.4,0.5-0.6,0.7C436.1,165.3,436.3,165.1,436.5,164.8z" />
	<path fill="#4A454C" d="M491,175.5c-0.2,0.3-0.4,0.7-0.6,1C490.6,176.2,490.8,175.9,491,175.5z" />
	<path fill="#EDC9B9" d="M513.2,239.2c9.5-13.2,4.8-29.6,9.4-44c0.6,0,1,0,1.8,0c0.8-2.5,3.3-4.1,3.5-6.9c-2.4,1.7-2.9,3.6-5,5.9   c1.9-4.5,0.1-22.2,7.4-19.3c-0.5,0.3-1.6-0.2-1.3,1.3c2.2,1,4.4,0.3,6.5-0.7c0.2,1.4-0.6,2.7,0,4c-0.9-0.4-1.4,0.3-2,0.8   c-0.5-1.3-1.9-0.8-2.8-1.3c-3.2,5,2.4,5-0.3,7c0-0.4,0-0.8,0-1.3c-3.2,1-1.1,17.6-3.4,22.2C523.1,212.8,519.2,238.3,513.2,239.2z" />
	<path fill="#E8C6B6" d="M492,271.9c-3.6,2-7.2,4-11,5.2c-1.3-0.3-2.2-0.8-2.5-2.3c2.2-1.2,4-2.8,6.2-4c3.8-1.1,4.7-5.9,8.5-6.4   c-0.2,0.4-0.4,0.9-0.6,1.3c0.2,0.6,0.4,1.3,0.7,2.1c-0.6,1.1-1.3,2.4-1.9,3.6C491.7,271.6,491.9,271.7,492,271.9z" />
	<path fill="#EAC7B7" d="M475.6,262.9c0-0.5-0.1-1-0.2-1.7c3.2-2.8,6.5-5.7,9.8-8.6c1.4,1.1,3.8,0.5,5.2,2c0.3,0.3,0.9,0.1,1.4,0.1   c-4.3,2.8-8.7,5.7-12.9,8.5C477.7,263.1,476.7,263,475.6,262.9z" />
	<path fill="#E8C6B6" d="M489.6,264.3c-2.7,3.8-8.4,3.7-12.4,5.7c-0.7-0.6-1.3-1.2-1.9-1.7c0.6-1.1,1.2-2,1.8-3.1   c3.3-0.5,6.3-2,8.8-4.4c0.2,1.7,0.2,1.7,1.9,3.9C488.4,264.6,489,264.5,489.6,264.3z" />
	<path fill="#E6C5B5" d="M503.7,272.5c-6,3.4-9.6,4.9-13.9,5.5c-0.7-0.6-1-1.2-0.9-2.3c4.1-1.7,7.9-4.3,11.8-6.2   C501.7,270.6,502.7,271.5,503.7,272.5z" />
	<path fill="#3B2927" d="M497.7,87.2c-1.3,0.7-2.5,1.4-3.9,2.1c-0.5-0.4-0.9-0.7-1.3-1c0.6-1.8,2.9-1.7,4.4-1.9   C497.2,86.7,497.4,86.9,497.7,87.2z" />
	<path fill="#867671" d="M503.7,122.6c0.7,0.7,1.4,1.5,2.1,2.2c-0.3,0.3-0.6,0.6-0.9,0.8c-1.3-1.4-2.6-2.9-3.9-4.4   C502.2,120.9,502.7,122.4,503.7,122.6z" />
	<path fill="#35312E" d="M505,125.7c0.3-0.3,0.6-0.6,0.9-0.8c0.8,1,1.9,1.8,2.2,3.4c-0.6,0.1-1,0.2-1.4,0.3   C506.1,127.6,505.5,126.7,505,125.7z" />
	<path fill="#796560" d="M497.9,118.9c-1.8,0.1-2.4-0.8-3-2C496.3,116.9,497.2,117.4,497.9,118.9z" />
	<path fill="#352A28" d="M500.1,251.8c-0.9-1.7,1.3-1.5,2.8-2.4C502.1,251,501.6,251.8,500.1,251.8z" />
	<path fill="#5C4C49" d="M534.5,175c0.1-0.2,0.1-0.4,0.1-0.6c1.1-0.3,2.3-0.6,3.7-0.9c-0.6,1.7-2.3,1.6-3.1,2.5   c-0.1-0.1-0.1-0.2,0-0.4C535.1,175.4,534.8,175.2,534.5,175z" />
	<path fill="#7A6A62" d="M508.8,120.5c1.3-0.2,1.7,1,2.1,2c-1.2,0-2.1-0.4-2.8-1.3C508.2,121,508.5,120.8,508.8,120.5z" />
	<path fill="#93827B" d="M497.7,87.2c-0.3-0.3-0.5-0.5-0.8-0.8c0.6-0.7,1.3-0.9,2.1-0.2C499.1,87.3,498.4,87.3,497.7,87.2z" />
	<path fill="#564340" d="M507.9,256.4c-1.2,0.8-1.8,1.2-2.4,1.6C505.2,256.5,505.2,256.5,507.9,256.4z" />
	<path fill="#352220" d="M502.2,238.9c-1.1,0.7-2,0.8-2.8,0C500.2,238,501.1,238.1,502.2,238.9z" />
	<path fill="#2B1B19" d="M504.3,248.6c-1-0.6-0.3-0.9,0.2-1.5c0,0,0.4,0.3,0.7,0.5C504.9,248,504.6,248.3,504.3,248.6z" />
	<path fill="#755B57" d="M520.9,125.3c1.1-0.7,1.5,0,1.9,0.8C521.7,126.8,521.3,126.1,520.9,125.3z" />
	<path fill="#1A100F" d="M527.6,231.5c0.4-0.6,0.8-1,1.4-1.8C528.9,231.8,528.9,231.8,527.6,231.5z" />
	<path fill="#4A4440" d="M528.8,186.8c-0.2-1,0-1.8,1.4-2c0,0.5,0,0.9,0,1.3C529.7,186.3,529.2,186.6,528.8,186.8z" />
	<path fill="#665955" d="M533.3,180.4c0.6-0.5,1.1-1.2,2-0.8c-0.2,0.4-0.5,0.9-0.7,1.3c-0.5-0.1-0.9-0.1-1.4-0.2L533.3,180.4z" />
	<path fill="#4F4340" d="M508.1,254.3c0.4-0.2,0.7-0.4,1.1-0.5c0.1,0.2,0.2,0.4,0.2,0.7c-0.4,0.1-0.7,0.3-1.1,0.4   C508.2,254.6,508.1,254.5,508.1,254.3z" />
	<path fill="#5B4542" d="M517.1,124.1c-0.1,1.5-2,0.5-1.5-0.6C516.1,123.7,516.6,123.9,517.1,124.1z" />
	<path fill="#E6C5B5" d="M500.7,269.5c0.5-0.2,0.9-0.4,1.4-0.6C501.9,269.6,501.3,269.6,500.7,269.5z" />
	<path fill="#EDC9B9" d="M533.2,180.8c0.5,0.1,0.9,0.1,1.4,0.2c-0.3,0.2-0.6,0.4-1,0.6C533.5,181.3,533.4,181.1,533.2,180.8z" />
	<path fill="#80706B" d="M530.7,224.7c0,0.4,0,0.8,0,1.2c-0.1,0-0.3,0-0.4,0c0-0.4,0-0.8,0.1-1.2   C530.5,224.7,530.6,224.7,530.7,224.7z" />
	<path fill="#341B1A" d="M507.2,245.7c-0.1,0.1-0.2,0.2-0.3,0.3c-0.1-0.3-0.4-0.5,0-0.7C507,245.3,507.1,245.5,507.2,245.7z" />
	<path d="M352.3,61.3c0-0.2-0.1-0.5-0.1-0.7c0.7,0.1,1.3,0.2,1.5-0.7c2.7,0.4,4.1-1.3,6.7-0.7c0,0.5,0,0.9,0,1.4   c-1.3,0.6-2.7-0.6-3.7,0.8c-1.4,0.2-2.7,0.1-4.1,0.2L352.3,61.3z" />
	<path fill="#4B3835" d="M372.9,101.5c2.3-0.4,3.9-0.6,5.3,1.1C376.4,103.1,374.9,102.8,372.9,101.5z" />
	<path fill="#564D4A" d="M328,65.8c1.7-1.5,1.7-1.6,4.3-1.2C331.1,66.3,329.9,65.7,328,65.8z" />
	<path fill="#8F7C74" d="M348.6,47.3c0.5-0.2,1-0.4,1.5-0.6c0.3,0.3,0.6,0.6,0.9,0.9c-1.1,0.6-2.3,1.2-3.6,1.9   c-0.1-0.6-0.1-1-0.2-1.3C347.7,47.9,348.1,47.6,348.6,47.3z" />
	<path fill="#584945" d="M342.6,64.3c0.6-0.5,1.2-1.1,1.9-1.7c0.3,0.5,0.4,0.8,0.6,1.1c-0.8,0.5-1.6,1.1-2.4,1.6   C342.7,64.9,342.7,64.6,342.6,64.3z" />
	<path fill="#A48F87" d="M343.6,67.5c0.7-0.6,1.4-1.2,2-1.7C346.4,66.5,346,67,343.6,67.5z" />
	<path fill="#8A7973" d="M342.6,64.3c0,0.3,0.1,0.7,0.1,1c-0.7,0.9-1,1.2-2.3,1.4c0.7-1,1.1-1.6,1.5-2.3   C342.2,64.4,342.4,64.3,342.6,64.3z" />
	<path fill="#250F0E" d="M324.9,65.2c-0.3,1.4-1.2,1-2.2,0.5C323.5,64.8,324.1,64.7,324.9,65.2z" />
	<path fill="#9E847E" d="M384.6,73.9c1.2,0.8,0.8,1.8-0.4,1.1C384.3,74.7,384.5,74.4,384.6,73.9z" />
	<path fill="#4A403D" d="M342.4,50c0.7-0.3,1.1-0.4,1.5-0.6C344.3,50.4,343.4,50.7,342.4,50z" />
	<path fill="#201717" d="M356.8,61.4c0.6-1,1.6-0.7,2.4-0.5C358.4,61,357.6,61.2,356.8,61.4z" />
	<path fill="#B49B91" d="M373,26c-0.3,0.4-0.6,0.9-1.2,1.7c-0.1-0.9-0.2-1.3-0.2-1.7C372,26,372.5,26,373,26z" />
	<path fill="#201717" d="M353,61.5c0.6,0,1.1,0,1.7,0.1C354.1,62.1,353.5,62,353,61.5z" />
	<path fill="#EDC9B9" d="M376.9,23.2c-0.3,0.2-0.6,0.5-0.9,0.7C376.3,23.6,376.6,23.4,376.9,23.2z" />
	<path fill="#ECC9B9" d="M438,84.2c-0.2-0.2-0.5-0.5-0.7-0.7c0-0.4,0-0.9-0.1-1.5c2,0.1,3.6,0.7,5.1,1.6c-0.2,0.4-0.3,0.9-0.6,1.5   c1.9,0.8,3.7,1.6,5.8,1.3c0.2,0.5,0.5,1,1.1,0.2c-1.7,0-2.8-1.4-4.3-2.2c5.2-0.8,10.6,0.3,15.7-1.7l0.1,0.1   c-2.5,5.4-7.5,8.4-11.3,12.7C445,92.2,440.7,88.8,438,84.2z M445.3,87.9c0.2-0.1,0.4-0.2,0.6-0.3c-0.2-0.4-0.5-0.2-0.8-0.1   C445.1,87.6,445.2,87.8,445.3,87.9z" />
	<path fill="#E7C5B6" d="M447,82.9c5.2-0.2,5.5-6.5,10.4-7.3c5-2.9,3.2-8.7,3.6-13.4c1.4,6.1,1.2,12.6,0.1,18.9   c0.4,0.2,1,0.4,1.6,0.6c-0.3,1.5-1.5,1.1-2.5,1.3C456.4,80.4,450.5,84.8,447,82.9z" />
	<path fill="#1E1918" d="M435.8,35.7c-0.5,2.6-3.2,2.8-3.1,5.3c1.1-0.9,2.1-1.7,3.1-2.5c2.2,0.3,3.5-3.8,5.5-1.2   c-2.4,2-4.5,4.2-7.4,5.9c-0.5-0.2-1.2-0.4-2-0.7c-0.7,0.4-1.5,0.9-2.5,1.5c-0.4-0.9-0.7-1.7-1-2.5c0.7-1.9,2-3.3,3.6-4.5   c3.2,0.4,1.2-1.4,2.9-2.3C435.2,35.1,435.5,35.4,435.8,35.7z" />
	<path fill="#1C1716" d="M417.2,49.5c2.4-1.4,3.7-3.3,6.6-1c0.1,0.6-0.6,1-0.9,1.6c0.1,0.3,0.4,0.7,0.6,1.1c-2.5,4-5.3,5.9-8.7,7.4   c-0.5-1.6,0.8-2.3,1.7-3.2c0.7-0.1,0.8-0.6,0.8-1.2c0.9-0.9,1.9-1.8,3-2.8c-1.2-0.6-1.8,0.2-2.9,0.6   C416.4,51.1,416.1,50.4,417.2,49.5z" />
	<path fill="#2C221F" d="M436.3,71.6c-0.8,0-1.5-0.1-1.4-1.4c4.4-3.7,8.4-8.7,13.7-11.1c1.4,1.3-0.2,2.3-1.1,3.1   C442.9,64.3,439.8,68.1,436.3,71.6z" />
	<path fill="#080606" d="M449,65.1c0.4,3.2-5.2,6.6-7.9,8c-2-3.5,3.4-7.4,6.3-8.5C448,64.7,448.5,64.9,449,65.1z" />
	<path fill="#D4B7A9" d="M447.4,64.5c-2.8,1.2-8.2,5-6.3,8.5c-1.4,0-1-1.5-1.7-2.7c-1,1.3-1.7,1.5-3.2,1.3c3.5-3.5,6.7-7.3,11.2-9.5   C447.5,62.9,447.4,63.7,447.4,64.5z" />
	<path fill="#231E1D" d="M460.9,62.2c-0.4,4.8,1.4,10.6-3.6,13.4c-0.3-0.3-0.7-0.7-1-1c3.7-4.2,3-9.6,3-14.9   C460.6,60.3,460.5,61.4,460.9,62.2z" />
	<path fill="#24201E" d="M435.8,62.2c-2.9-2.9,2.1-7.4,4.3-4C438,59.1,437,60.6,435.8,62.2z" />
	<path fill="#322220" d="M474.1,92.5c1.9-0.9,3.7-2.3,6.4-2.2c-0.9,2.4-3.6,2-5.6,3C474.7,93,474.4,92.7,474.1,92.5z" />
	<path fill="#4A3B38" d="M435.8,35.7c-0.3-0.3-0.6-0.6-0.9-1c1.6-1.6,3.6-1.5,6.3-1.5C439.6,35.3,438,35.1,435.8,35.7z" />
	<path fill="#49413D" d="M445.5,92.9c1.3,0.5,2.2,1.9,3.4,2.7c0.1,0.4,0.2,0.7,0.4,1.1c-0.3,0.3-0.6,0.5-0.9,0.8c-1-1.2-2-2.3-3-3.5   C445.3,93.6,445.4,93.3,445.5,92.9z" />
	<path fill="#4D4642" d="M414.2,54c-0.9,1.6-1.1,2.9-2.9,3.9c0.1-2.4,0.8-4.1,2.2-5.4c0.3,0.3,0.6,0.6,0.8,0.8   C414.3,53.6,414.2,53.8,414.2,54z" />
	<path fill="#2C2523" d="M414.4,53.3c-0.3-0.3-0.6-0.6-0.8-0.8c0.5-1.3,1.7-1.5,2.9-1.7c0.3,0.4,0.7,0.7,1,1.1   c-0.4,0.4-0.7,0.8-1.1,1.3c-0.4,0.1-0.8,0.2-1.3,0.2C414.9,53.3,414.6,53.3,414.4,53.3z" />
	<path fill="#C5B8AE" d="M416.3,53.2c0.9-1.2,2.3-2.5,4-1.8c-1.1,1-2,1.9-3,2.8C417,53.8,416.7,53.5,416.3,53.2z" />
	<path fill="#C0ACA3" d="M435.8,38.6c-1,0.8-1.9,1.6-3.1,2.5c0.3-2,0.3-2,2.3-3.3C435.2,38.1,435.5,38.3,435.8,38.6z" />
	<path fill="#AD9C94" d="M460.1,99.1c-0.8,0.6-1.6,1.3-2.5,1.9c-1.3-1.2,1.1-1.9,1.8-2.6C459.7,98.6,459.9,98.9,460.1,99.1z" />
	<path fill="#C0B1A8" d="M469.7,94.6c0.8-0.5,1.6-0.9,2.3-1.4c0.5,0.2,0.9,0.5,1.4,0.7C472.3,95.2,470.9,94.5,469.7,94.6L469.7,94.6   z" />
	<path fill="#8D847E" d="M448.3,97.5c0.3-0.3,0.6-0.5,0.9-0.8c0.4,0.8,0.9,1.6,1.4,2.5C449,99.5,448.8,98.3,448.3,97.5z" />
	<path fill="#3E302E" d="M460.1,99.1c-0.2-0.2-0.5-0.5-0.7-0.7c0.8-0.4,1.3-1.7,2.5-0.7C461.8,98.7,460.8,98.7,460.1,99.1z" />
	<path fill="#454140" d="M451.6,118c-0.7-1.9-0.5-3-0.1-4.3C452.2,116,452.2,116,451.6,118z" />
	<path fill="#5C4340" d="M473.4,94c-0.5-0.2-0.9-0.5-1.4-0.7c0.7-0.3,1.4-0.5,2.1-0.8c0.3,0.3,0.5,0.5,0.8,0.8   C474.4,93.5,473.9,93.8,473.4,94z" />
	<path fill="#4A3B38" d="M434.3,35.1c-0.3,2-0.3,2-2.3,2C432.8,36.4,433.5,35.7,434.3,35.1z" />
	<path fill="#C0B1A8" d="M469.7,94.6c-0.6,0.4-1.2,0.8-2.2,1.6C467.8,94.4,468.9,94.7,469.7,94.6L469.7,94.6z" />
	<path fill="#E7C5B6" d="M455.2,74.8c-0.8,0.5-1.6,0.9-2.4,1.4c0-0.3,0-0.5,0-0.8C453.5,75.1,454.2,74.5,455.2,74.8z" />
	<path fill="#C5B8AE" d="M417.3,54.1c0,0.6-0.1,1.1-0.8,1.2C416.5,54.7,416.6,54.2,417.3,54.1z" />
	<path fill="#D4B7A9" d="M449,65.1c-0.5-0.2-1.1-0.4-1.6-0.6C448.1,64.3,448.7,64.3,449,65.1z" />
	<path fill="#2C2523" d="M417.2,49.5c-0.2,0.3-0.5,0.6-0.7,0.9C416.4,49.8,416.7,49.6,417.2,49.5z" />
	<path fill="#4A3B38" d="M435.1,37.3c0.2-0.3,0.3-0.6,0.5-1C435.4,36.6,435.3,37,435.1,37.3z" />
	<path fill="#C5B8AE" d="M414.4,53.3c0.2-0.1,0.5-0.1,0.7,0c-0.3,0.2-0.6,0.4-0.8,0.6C414.2,53.8,414.3,53.6,414.4,53.3z" />
	<path fill="#D4B7A9" d="M447.5,62.1c0.3-0.2,0.5-0.4,0.8-0.6C448,61.7,447.8,61.9,447.5,62.1z" />
	<path fill="#141110" d="M395.1,417.8c3.2,0.1,2.3,3.7,2.2,5.9C392.8,430.2,392.1,420.5,395.1,417.8z" />
	<path fill="#1B1716" d="M384.7,456.1c1.1-2.9,2.4-11.6,6.6-9.6c-1.6,3.4-3.7,7.1-5.6,10.5C385.3,456.7,385,456.4,384.7,456.1z" />
	<path fill="#151111" d="M384.9,422.2c-1.7-0.7-3.8-1-4.9-2.5c0.6-2.6,3.2-0.6,4.8-0.4c0.8,0.8,2.2,1,2.3,2.7   C386.3,422.1,385.6,422.2,384.9,422.2z" />
	<path fill="#332C2A" d="M382.2,465.9c2.6,1.3-1.2,5.5-1.4,8.1C379.2,471.4,380.2,468,382.2,465.9z" />
	<path fill="#201C1A" d="M411.4,415.7c-2.7,1.2-3.1,1.1-5-1.2c1.1-1.6,3.4,0.4,4.9,0.5C411.3,415.2,411.4,415.5,411.4,415.7z" />
	<path fill="#4B3D39" d="M382.6,431.9c-1.4,2.6-4.2-1.4-4.3-3.1c0.4-0.2,0.6-0.4,0.9-0.6C380.4,429.5,381.3,430.8,382.6,431.9z" />
	<path fill="#5E5755" d="M378.7,488.1c0.4,2.2,0.4,4.3-0.7,6.3c0-2.1,0-4.1,0-6.2C378.3,488.2,378.5,488.2,378.7,488.1z" />
	<path fill="#6F645F" d="M370.2,531.1c-0.4-1.7,0.5-2.7,1.7-4.3C371.6,530,371.6,530,370.2,531.1z" />
	<path fill="#45403D" d="M384.7,459.9c0,1.1,0.3,2.2-1.1,3c-0.4-1.5-0.4-2.7,0.4-3.9C384.2,459.3,384.4,459.6,384.7,459.9z" />
	<path fill="#59514E" d="M370,538.3c-1.1-1.2-0.9-2.1-0.3-3C371.1,536.3,371.1,536.3,370,538.3z" />
	<path fill="#3D3D3A" d="M384.7,459.9c-0.2-0.3-0.5-0.6-0.7-0.9c0-1-0.2-2.1,0.7-3c0.3,0.3,0.6,0.6,0.9,0.9   C385.3,458,385,458.9,384.7,459.9z" />
	<path fill="#695C57" d="M379.1,481.9c1.5,0.5,1.5,1.3,1,2.2C379.1,483.8,378.7,483.2,379.1,481.9z" />
	<path fill="#645351" d="M411.4,415.7c-0.1-0.2-0.1-0.5-0.1-0.7C412.9,414.5,413,415.8,411.4,415.7z" />
	<path fill="#EBC8B8" d="M516.9,406.2c7.5,3.4,5.7,9.3,6.6,15.8c-0.8,0.4-1.5,0.8-2.3,1.3c-1.3-1.3-2.4-2.6-3.6-3.8   c0.7,0,1.4-0.1,2.1-0.1c1.2-2.8-0.1-5-0.8-7.3c-4-0.5-2.7,2.7-2.9,5c-1.3-1.6-1.4-3.7-2-5.5c-0.2-1.1,1.1-2.4-0.2-3.4   C514.9,407.5,515.9,406.9,516.9,406.2z" />
	<path fill="#0A0807" d="M516.9,406.2c-2.4,1.5-5,3.6-8.1,2.6c2.7-5.5,12.6-6.6,10.8-14.5c0.7-0.3,1.2-0.6,1.7-0.9   c1.9,3,0.4,6.9-0.3,10.2C519.2,403.9,517.8,404.7,516.9,406.2z" />
	<path fill="#0B0908" d="M516.1,417.1c0.2-2.4-1.2-5.6,2.9-5c0.7,2.3,2,4.5,0.8,7.3c-0.7,0-1.4,0.1-2.1,0.1   C517.1,418.7,516.6,417.9,516.1,417.1z" />
	<path fill="#1E1917" d="M522.3,441.4c0.2-0.6,0.3-1.2,0.5-1.7c1.7-0.2,2,1.3,3.1,1.7c1.4,2.5,2.2,5.3,3,8.1   c-0.2,0.6,0.1,1.3-0.8,1.6C526.1,447.8,525.1,443.9,522.3,441.4z" />
	<path fill="#1F1615" d="M533.8,412.9c-2.1,2.2-2.4,2.4-6.9,3.2C524.8,414,532.3,410.9,533.8,412.9z" />
	<path fill="#221E1D" d="M532.9,468.2c-1-3-1.9-5.4-2.7-8c0.5-0.2,0.8-0.3,1.2-0.5C533.4,462.1,533.9,464.7,532.9,468.2z" />
	<path fill="#3A322E" d="M506.5,409.6c-1.6,0.6-3.2,1.2-4.7-0.3c1.3-1.1,3.1-1.7,5.4-1.7C507,408.3,506.7,409,506.5,409.6z" />
	<path fill="#4C3E3A" d="M529.5,426.5c2.6-0.9,3.4-2.9,4.6-4.5C537.3,423,532.5,427.7,529.5,426.5z" />
	<path fill="#57524F" d="M528,451c0.9-0.2,0.6-1,0.8-1.6c1.4,3.4,1.6,4.7,1,7.4C528.3,455.1,528.9,452.8,528,451z" />
	<path fill="#564F4D" d="M535.8,488.2c-1.4-1.7-1.6-3.3-0.8-6.8C536.2,483.7,534.8,486.1,535.8,488.2z" />
	<path fill="#70635F" d="M534.4,475.4c0.5,1.4,0.2,2.1-0.7,2.7C532.8,477.9,533,477.1,534.4,475.4z" />
	<path fill="#473D3B" d="M543.4,524.6c-1.4-0.2-2.1-2.3-0.6-2.8C543.2,522.8,543.6,523.6,543.4,524.6z" />
	<path fill="#EECABA" d="M543.4,523.5c-0.2-0.5-0.4-1-0.7-1.6C543.5,522.2,543.5,522.8,543.4,523.5z" />
	<path fill="#3A4D94" d="M387,335.2c0-0.8,0-1.6,0-3C387.7,334,387.7,334,387,335.2L387,335.2z" />
	<path fill="#3A4D94" d="M381.1,364.7c0.2-0.3,0.5-0.5,0.7-0.8C381.6,364.2,381.3,364.5,381.1,364.7z" />
	<path fill="#160506" d="M407,153.9c1.7-1.1,2.8,0,4.2-0.1C409.4,155.5,409.3,155.5,407,153.9z" />
	<path fill="#392B30" d="M417.1,153.8c-0.8,1.4-2.6,0.5-3.8,0.6C412.5,151.6,416,153.6,417.1,153.8L417.1,153.8z" />
	<path fill="#1C1D20" d="M417.3,234.1c-0.2,0-0.5,0-0.7,0c-0.7-1.3-1.9-2.4-1.3-4.4C416.4,231.1,417.9,232.1,417.3,234.1z" />
	<path fill="#63606A" d="M420.2,237.8c-0.2,0.2-0.5,0.5-0.7,0.7c-0.9-0.5-1.5-1.2-1.4-2.2C419.2,236.2,419.8,236.8,420.2,237.8z" />
	<path fill="#201717" d="M357.5,59.2c-1,1.1-2.4,0.7-3.7,0.7C354.9,59,356.2,59.2,357.5,59.2z" />
	<path fill="#201717" d="M360.5,59.2c-0.8,0-1.6,0-2.4-0.1C358.8,58.5,359.7,58.5,360.5,59.2z" />
	<path fill="#201717" d="M353.8,59.9c-0.2,0.8-0.9,0.8-1.5,0.7C352.5,59.9,353.1,59.9,353.8,59.9z" />
	<path fill="#101221" d="M440.9,347.7c-0.2,0.1-0.4,0.2-0.7,0.4c0-0.4-0.1-0.7-0.1-1.1c2.5-3.5,5.4-7.8,9.6-8.8   C446.9,341.9,443.7,344.5,440.9,347.7z" />
	<path fill="#262F58" d="M440.1,346.9c0,0.4,0.1,0.7,0.1,1.1c-1.8,3-4.8,6-7.8,7.8C432.7,353.9,434.5,351.9,440.1,346.9z" />
	<path fill="#262F58" d="M440.9,347.7c0.2-0.2,0.5-0.4,0.7-0.7C441.3,347.2,441.1,347.4,440.9,347.7z" />
	<path fill="#1D1819" d="M333.1,575.8c-0.5-0.7-0.7-1.5,0.1-2.2c2.2-0.3,8.5,0,6.3,3.5C337.1,578,335.2,576.5,333.1,575.8z" />
	<path fill="#C3C5D2" d="M353.8,553.6c-2.3,0-4.6,0.3-6.8-0.6C349.2,553.2,351.9,552.2,353.8,553.6z" />
	<path fill="#CBCDDA" d="M336.1,573.5c-0.5,0-1,0-1.5,0C335.1,572.7,335.6,572.7,336.1,573.5z" />
	<path fill="#0F0D0E" d="M589.9,585.5c-0.2,0.2-0.5,0.5-0.7,0.7c-4-2.2-9-0.5-11.7,3.1c-1,0.2-2.1,0.4-3.1,0.6   c-0.3-0.1-0.6-0.3-1.3-0.6c1.9-1,2.7-1.9,2.8-3.9C580.2,582.3,586,581.8,589.9,585.5z" />
	<path fill="#191819" d="M581.2,567.9c-0.8,2.4-3.6,2.7-5.7,3.2C569.6,569.1,578.4,566.1,581.2,567.9z" />
	<path fill="#403E42" d="M589.9,585.4c-0.2-0.2-0.4-0.4-0.7-0.6C589.4,585,589.6,585.2,589.9,585.4z" />
	<path fill="#332A26" d="M349.3,93.3c3.7-0.6,7,0.2,10.5-0.1C359.8,96.9,351.4,94.9,349.3,93.3z" />
	<path fill="#F8DBCF" d="M362.8,100.6c-2.4-0.9-4.7-1.7-7.1-2.6c2.4-2.5,5.6,0,8.3,0.6c0.1,0.4,0.1,0.8,0.2,1.1   C363.7,100.1,363.3,100.3,362.8,100.6z" />
	<path fill="#947C73" d="M339.8,90.1c-2.9-1.5-6.4-2.2-8.9-4.3c0.3-0.2,0.5-0.5,0.8-0.7c2.5,1.9,5.6,2.5,8.1,4.5   C339.8,89.7,339.8,89.9,339.8,90.1z" />
	<path fill="#403732" d="M381.8,108.7c-0.7,1.5-2.6,3.9-4.3,1.9C378.4,108.9,380.1,108.9,381.8,108.7L381.8,108.7z" />
	<path fill="#6F5953" d="M339.8,90.1c0-0.2,0-0.4-0.1-0.5c1.1-0.2,2.2-0.1,2.9,1.1C341.5,91.5,340.7,90.5,339.8,90.1z" />
	<path fill="#53413E" d="M362.8,100.6c0.9-0.7,1.8-1,2.9-0.9C366.4,101.5,363.5,102.2,362.8,100.6z" />
	<path fill="#262220" d="M331.7,85c-0.3,0.2-0.5,0.5-0.8,0.7c0-0.3,0-0.6,0-0.9C331.2,84.9,331.4,85,331.7,85z" />
	<path fill="#3C3431" d="M524.3,392.8c1.6,1.3,3.2,2.6,5.4,4.4c-3-0.2-5-1.7-6-4.4C523.9,392.9,524.1,392.9,524.3,392.8z" />
	<path fill="#4B403C" d="M544.2,529.3c-0.2,0.7,0.4,1.7-0.8,2.3c-0.9-0.4-0.8-1.2-0.4-2.2C543.4,529.3,543.8,529.3,544.2,529.3   L544.2,529.3z" />
	<path fill="#5875E7" d="M420.9,277.7c-0.7-0.1-1.4-0.1-2-0.2c-0.2-1.4-1-3.1-0.1-4.3c0.7-0.3,0.7-0.8,0.3-1.4   c-2.4-4.5-1.6-9.9-1.7-14.9c0.9-0.9,2-0.6,3.1-0.4c0.3,7.1,2.7,13.7,2.4,21C422.3,277.5,421.6,277.6,420.9,277.7z" />
	<path fill="#374683" d="M418.7,276.9c0,0.2,0.1,0.4,0.1,0.6c-0.3,0.3-0.6,0.6-0.9,0.9c-3.1-0.7-6-2.1-8.8-3.3   c0.1-0.2,0.1-0.5,0.2-0.7C412.6,274.5,415.4,276.9,418.7,276.9z" />
	<path fill="#323F72" d="M418,269.6c0.3,1.1,2.3,2.8,0.9,3.6c-1.2-1.7-2.5-3.4-3.7-5.2c0.2-0.2,0.5-0.5,0.7-0.7   C416.5,268.1,417.2,268.8,418,269.6z" />
	<path fill="#191715" d="M534.5,175c0.3,0.2,0.5,0.4,0.8,0.6c-2.1,1-4.2,1.7-6.5,0.7C528.8,174,532.9,175.4,534.5,175z" />
	<path fill="#352926" d="M508.8,120.5c-0.3,0.3-0.5,0.5-0.8,0.8c-0.1-0.2-0.3-0.5-0.4-0.7C508,120.6,508.4,120.5,508.8,120.5z" />
	<path fill="#AF9287" d="M409.1,123.4c-1.4-0.5-1.4-0.5-1.2-1.9C408.9,121.9,408.8,122.1,409.1,123.4z" />
	<path fill="#80655E" d="M525.8,190.6c0.5-1.1,0.9-1.4,2.1-2.2c0,1.4-0.4,2.3-1.4,2.9C526.3,191.1,526,190.8,525.8,190.6z" />
	<path fill="#735E69" d="M424.7,141c-0.9-0.2-1.8-0.4-3.1-0.8c2.8-0.7,2.8-0.7,5.7-0.2c0.3,0.6,0,0.9-0.5,1   C425.8,140.1,425.8,140.1,424.7,141z" />
	<path fill="#213339" d="M424.7,141c1.1-0.9,1.1-0.9,2.1,0C426.1,141,425.4,141,424.7,141z" />
	<path fill="#252F58" d="M444.6,364c-0.1-0.6,0-1.2-0.7-1.5c0-0.8,0-1.7,0-3C445.6,360.7,446,362.6,444.6,364z" />
	<path fill="#BCBFCC" d="M322.9,592.1c-0.9,1.1-1,1.1-1.7,0C321.7,592.1,322.3,592.1,322.9,592.1z" />
	<path fill="#BCBFCC" d="M324.5,590.6c-0.3,0.2-0.6,0.5-0.9,0.7C323.9,591.1,324.2,590.9,324.5,590.6z" />
	<path fill="#BCBFCC" d="M323.6,591.4c-0.3,0.2-0.5,0.5-0.8,0.7C323.1,591.8,323.4,591.6,323.6,591.4z" />
	<path fill="#A2A9AE" d="M567.1,550c0.9,0.5,1.9,0.9,2.9,1.3c-3.8,0.3-7.5,0-11.3-0.3C561.6,550.7,564.3,550.4,567.1,550z" />
	<path fill="#CBD5DE" d="M348.5,556.7c-2,1-4.3,0.4-6.5,0.5C342.3,554.3,346.6,556.5,348.5,556.7z" />
	<path fill="#AA8E83" d="M445.4,84.2c-0.3,0.1-0.7,0.2-1,0.3c1.1,0.7,2.1,1.4,3.2,2c0,0,0,0,0,0c-2.1,0.3-3.9-0.6-5.8-1.3   c0.3-0.7,0.4-1.1,0.6-1.5c1,0,1.9,0,2.9,0C445.3,83.8,445.4,84,445.4,84.2z" />
	<path fill="#4D423D" d="M445.4,84.2c0-0.2-0.1-0.3-0.2-0.5c0.6-0.3,1.2-0.5,1.8-0.8c1.6,1.4,4-0.2,5.6,1.3   C450.2,84.2,447.8,84.2,445.4,84.2z" />
	<path fill="#403E42" d="M581.9,586c0.8-1.1,5.8-1,6.7,0C586.3,586,584.1,586,581.9,586z" />
	<path fill="#3A4D94" d="M380.5,362.5c0.2,0,0.4,0,0.6,0c-0.1,0.2-0.2,0.4-0.3,0.6C380.7,362.8,380.6,362.7,380.5,362.5z" />
	<path fill="#4F6DD7" d="M459.4,254.7c0.1,0.5,0.2,0.9,0.3,1.5c-1.1,0-2.2,0-3.3,0c-0.2-2,0.1-3.8,0.7-5.7c0.4,0,0.9,0,1.3-0.1   C458.8,251.9,459.1,253.3,459.4,254.7z" />
	<path fill="#516CD5" d="M446.1,255.6c0-1.3,0-2.5,0-3.8c0.2-0.1,0.4-0.2,0.7-0.2c0,1.2,0,2.4,0,3.7   C446.5,255.4,446.3,255.5,446.1,255.6z" />
	<path fill="#465FBC" d="M457.2,250.5c0,0.2-0.1,0.5-0.1,0.7c-0.2-0.2-0.3-0.3-0.5-0.5C456.7,250.7,456.9,250.6,457.2,250.5z" />
	<path fill="#332523" d="M336.7,62.2c2.2-2,4.4-2.7,6.8-4.3C343.5,61.4,340.3,61.6,336.7,62.2z" />
	<path fill="#503C38" d="M351,47.6c-0.3-0.3-0.6-0.6-0.9-0.9c0.8-0.5,1.6-1,2.4-1.4C354,46.5,351.9,47.1,351,47.6z" />
	<path fill="#FBDFD3" d="M346.4,62.2c-0.1,0.1-0.3,0.3-0.4,0.4C346,62.3,346.2,62.2,346.4,62.2L346.4,62.2z" />
	<path fill="#342421" d="M387.8,16.5c0.6,0,1.6-0.6,1.2,1.1C388.5,17.1,388.2,16.8,387.8,16.5C387.8,16.4,387.8,16.5,387.8,16.5z" />
	<path fill="#4B4850" d="M471.5,148.3c-0.7,0-1.4,0-2.1,0c0-0.1,0-0.3,0-0.4c0.7,0,1.4-0.1,2.1-0.1   C471.5,148,471.5,148.1,471.5,148.3z" />
	<path fill="#826961" d="M452.6,84.2c-0.9-0.6-1.9-0.7-3-0.7c2.9-0.9,7.5-1.9,10.4-0.7C457.6,83.4,455.2,84.2,452.6,84.2z" />
	<path fill="#B49589" d="M445.3,87.9c-0.1-0.1-0.2-0.3-0.2-0.4c0.3,0,0.6-0.2,0.8,0.1C445.6,87.7,445.4,87.8,445.3,87.9z" />
	<path fill="#AA8E83" d="M447.5,86.5c0.3,0,0.7,0.1,1.1,0.1C448,87.5,447.8,87,447.5,86.5L447.5,86.5z" />
	<path fill="#E7C6B6" d="M446.8,93.8c-0.2-0.2-0.4-0.4-0.7-0.7C446.3,93.4,446.6,93.6,446.8,93.8z" />
</g>
</svg>