<?xml version='1.0' encoding='utf-8'?>
<svg xmlns="http://www.w3.org/2000/svg" version="1.2" baseProfile="tiny" id="Layer_1" x="0px" y="0px" viewBox="0 0 900 600" overflow="visible" xml:space="preserve">
<g>
	<path fill="#040505" d="M410.4,189c-0.3,0.1-0.3,0.4-0.3,0.7c-0.2,0.1-0.3,0.1-0.5,0.2c0-0.2-0.1-0.4-0.1-0.6l0,0   c0.5-0.1,0.4-0.5,0.6-0.8c-0.5-0.1-0.8-0.2-0.9,0.2c-1.2,0.6-2.5,0.5-3.8,0.3c-0.3,0-0.6-0.2-0.9-0.2c-1.8-0.4-2.3-1-2.6-2.9   c-1.3,0.2-2.6,0.5-3.9,0s-2.5-1.1-3.4-1.9c-0.6-0.2-1.1,0.6-1.6-0.1c-0.3-0.6,0.5-0.7,0.5-1.2c-1.5-1.9-2.5-4-2.2-6.4   c-0.3-0.5-0.6-0.4-0.9-0.6c-1-0.6-1.8-1.4-1.7-2.7c0.1-0.8,0-1.5-0.2-2.3c-0.3-0.9,0.2-1.8,0.4-2.7c-0.1-0.4-0.5-0.4-0.8-0.5   c-0.6-0.3-1-0.8-1.1-1.4c-0.2-1.1-0.1-2.2,0.7-3.1c1.9-2,3.8-3.7,6.8-4c0.9-0.1,1.8,0.2,2.9,0c-2-1.4-4.3-1.7-6.3-2.8   c0.2-0.7,0.5-0.6,0.9-0.5c2.2,0.6,4.5,1.2,6.6,2.4c0.3-0.8,0.6-1.4,0.6-2.2c0-0.4,0.1-0.9,0.3-1.2c0.9-1.2,1-2.6,1.3-3.9   c0.8-2.8,1.9-5.3,3.3-7.8c1.8-3.2,4.2-5.8,6.8-8.3c3.1-3,6.6-5.6,10.4-7.8c2.1-1.3,4.2-2.1,6.5-2.2c2.5-0.1,5-0.6,7.5,0.4   c0.7,0.3,1.4,0.6,2.2,1.1c-0.1-1.8-0.2-3.3-0.3-4.8c-0.4-5.6-0.5-11.2,0.7-16.7c0.1-0.4,0.2-0.8,0.2-1.2c0.4-4.8,0.7-9.6,1.1-14.4   c0.1-0.9,0-1.9,0-2.8c-0.2-5-0.1-10,0-14.9c0-1.6-0.1-3.2-0.3-4.8c-0.3-2.1-0.5-4.2-0.6-6.3c-0.1-1-0.5-1.8-0.8-2.8   c-1.9-1.1-3.3-2.7-4.4-4.7c-1.3-2.2-2.8-4.2-4.6-6c-1.7-1.7-3.2-3.7-4.1-5.9c-0.4-0.9-1-1.6-1.8-2.1c-0.8-0.4-1.2-1.2-2.1-1.5   c-0.4-0.2-0.5-0.7-0.6-1.1c0.3-0.6,0.6-1.2,0.9-1.7c-0.6-1.2-0.5-1.4,0.4-2.4c0.1,0,0.3-0.1,0.4-0.1c1.9,0.3,3.9,0.5,5.7,1.3   c0.3,0.1,0.6,0.3,0.7,0.6c0.8,1.2,1.9,2,3.4,2.5c0-1.7,1-3.1,0.9-4.8c0-1.4-0.3-3,0.1-4.3c0.7-2.5,0.3-4.9,0.6-7.4   c0-0.4-0.1-0.8-0.2-1.2c-0.7-2.6-1.1-5.3-0.7-8c0.1-0.6,0-1.1,0-1.7c0-1.1,0.3-1.9,1.3-2.5c0.7-0.5,1.1-1.4,2.3-1.2   c-0.3-1.3,0.3-2.1,1.1-2.8c0.6-0.5,1.2-1,2.3-0.5c0.5,0.3,0.6,1.2,1,1.9c0.6,0,1.1,0.4,1.5,0.8c2.6-0.4,3.1-0.1,4.7,3.2   c0.7-0.5,1.6-0.7,2.5-0.6c1.3,0.8,1.1,2.5,1.9,3.6c0.3-0.4,0.6-0.9,0.9-1.4c0.7-1.1,1.5-1.1,2.5-0.4c1,0.8,1.5,1.9,1.3,3.2   c-0.4,2.2,0.3,4.3,0.5,6.5c0.1,0.8,0.1,1.5,0.2,2.3c0,1.8,0.1,3.5,0.4,5.3c0.4,2.6,0.9,5.1,1.4,7.6c0.1,0.8,0.1,1.7,0,2.5   c-0.2,1.3-0.3,2.7,0.6,3.8c0.2,0.2,0.1,0.6,0.1,0.9c0.3,4.1,0.1,8.2-1.1,12.2c-0.3,1-0.1,2.1-0.1,3.1c-0.1,1,0.2,2-0.2,2.9   c-0.1,0.3,0,0.6,0,0.9c0.6,3.4,1.1,6.8,1.5,10.3c0.4,4.5,1.5,8.9,2.6,13.2c0.8,2.8,1.5,5.7,1.9,8.7c0.1,0.7,0.1,1.4,0.1,2.2   c-0.1,1.2,0.1,2.3,0.4,3.4c0.4,1.6,0.7,3.2,1,4.9c0.2,1.1,0.4,2.2,0.9,3.3c0.6,1.2,0.8,2.6,0.8,3.9c0.2,3.6,0.6,7.1,0,10.7   c-0.2,1,0,2.1,0.1,3.1c0,0.4,0.2,0.8,0.1,1.2c-0.2,2.6-0.1,5.3-0.7,7.9c-0.3,1.1-0.1,2.3,0,3.4c0.1,1.6,0.1,3.1,0,4.7   c2.2,1.7,1,3.7,0.4,5.6c1.2,1.5,3,2.1,4.4,3.2c0.2,0.8,0.1,1.5-0.1,2.2c0.6,0.2,1.1,0.4,1.6,0.6c1.1,0.3,1.8,1.1,1.7,2.2   c0,0.9,0.4,1.5,1.3,1.7c1.2,0.3,2.1,0.9,2.6,2c0.2,0.4,0.5,0.6,0.8,0.9c0.1,1.4,0.2,2.8-0.6,4.1c-0.2,0.3-0.3,0.6-0.5,0.8   c-1.3,1.1-2,2.6-3.4,3.6c-0.4,0.3-0.8,0.7-0.7,1.4c0.1,0.6-0.4,1-0.9,1.4c-1.3,1.1-2.5,2.3-3.9,3.4c-1.1,0.9-1.5,1.9-1.1,3.3   c0.4,1.3,0,2.6-0.3,3.9c-0.5,3.1-0.7,6.2-0.8,9.3c-0.1,1.6,0,3.1-0.4,4.8c1.7,2.3,3.2,4.8,5.6,6.7c2.2,1.8,4.2,3.7,6.4,5.4   c4.1,3.3,8.4,6.4,12.4,9.9c1.7,1.5,3.4,2.9,4.9,4.5c1,1.1,2.3,1.7,3.5,2.5c4.9,3.2,7.5,7.8,8.5,13.5c0.3,1.4,0.2,2.9-0.1,4.3   c-0.1,0.7-0.2,1.4-0.1,2c0.4,1.8,0.1,3.6-0.4,5.4c-0.7,2.2-1.6,4.4-2.9,6.3c-0.4,0.6-0.8,1.1-1.3,1.3c-0.4,0.6-0.3,1.2-0.3,1.8   c0.1,2.9,0.5,5.8,0.9,8.6c0.2,1.6,0.7,3.3,0.5,4.9c-0.4,2.9,0.1,5.7,0,8.5c-0.1,2.2-0.3,4.4-0.8,6.5c-0.7,3.4-1,6.7-1.7,10.1   c-0.6,3.1-1.2,6.2-1.7,9.3c-0.5,3-1.1,5.9-0.8,8.9c0.9,7.6,1.1,15.2,1.2,22.8c0,3-0.4,6-0.7,9c-0.3,2.1-0.4,4.3-1.1,6.3   c-1,2.9-0.6,5.8-0.5,8.8c0.1,1.4,0.1,2.7,0.1,4c-0.1,4.3,0.5,8.6,0.4,12.9c-0.1,5.4-0.6,10.8-1.9,16c-0.9,3.8-1.5,7.6-2.2,11.4   c-0.6,3.6-1.5,7.1-2.8,10.5c-2.2,6-4.1,12.1-6.3,18c-1.1,3-2.4,6-3.7,8.9c-1.1,2.2-1.4,4.5-1.6,6.9c-0.1,2.4-0.3,4.8-0.9,7.1   c-0.2,0.8-0.3,1.6-1,2.2c-0.2,0.1-0.3,0.4-0.3,0.7c-0.5,2-1.4,3.8-2.1,5.7c-0.2,0.5-0.3,1-0.3,1.5c0,1-0.1,2-0.5,3s-0.2,2.1,0,3.2   c0.3,1.4,0.7,2.7,0.4,4.1c-0.1,0.7-0.3,1.3-0.1,1.8c-0.7,1.1-1.6,0.7-2.5,0.5c0.1,3.7-0.9,7.2-0.7,10.7c0.1,1.7,0.1,3.4,0.7,5   c0.1,0.4,0.1,0.8,0.1,1.2c0.1,2.1,0,4.1-0.1,6.2c-0.1,1.7,0,3.4,0.1,5.1c0.3,5.6-0.2,11.1-1.3,16.5c-0.1,0.5-0.2,0.9,0,1.3   c0.2,0.4,0.2,0.9,0.1,1.4c-0.8,6.8-0.4,13.6-0.1,20.4c0.1,2.3,0.4,4.6,0.7,7c0.3,2.5,0.4,5.1,0.2,7.6c-0.1,0.7,0,1.3,0.5,1.9   c0.5,0.6,0.9,1.3,1.5,1.8c3.3,3,6.8,5.8,10.9,7.6c2.6,1.2,5.4,2,8.3,2.5c1.7,0.3,3.3,0.7,4.9,1.5c1.7,1,3.7,1.2,5.6,1.6   c0.8,0.2,1.7,0.3,2.4,0.9c0.7,0.5,1.5,0.4,2.2,0.2c0.9-0.3,1.8-0.1,2.8-0.2c0.5,0,1,0.2,1.1,0.7c0.1,0.9,0.7,1.8,0.7,2.7   c0,1.4-0.1,2.8-0.1,4.1c0,0.2-0.1,0.3-0.1,0.5c-0.2,0.4-0.3,0.8-0.6,1.1c-1.2,0.8-1.4,2.4-2.6,3.2c-0.5,0.3-1.1,0.5-1.3,1.2   c-0.1,0.4-0.6,0.6-1,0.6c-0.5,0-0.9,0-1.4-0.1c-0.1-0.2-0.2-0.3-0.3-0.5c0.4-0.6,1.2-0.3,1.6-0.9c-0.5-1.7-2.7-3.9-4.6-4.5   c-0.4,0-0.9-0.2-1.4,0.1c0.7,0.8,1.7,1.3,2.5,1.9c0.4,0.3,1,0.8,0.8,1.2c-0.5,1,0.2,1.6,0.4,2.3c-0.1,0.4-0.2,0.8-0.3,1.2   c-0.7,0.8-1.6,0.9-2.5,0.7c-0.3,0.3-0.4,0.6-0.8,0.7c-0.2-0.1-0.5-0.2-0.8-0.3c-0.9,0.8-2.1,0.4-3,0.8c-0.8-0.1-1.1-0.6-1.7-0.9   c-0.5,0-1.2,0-1.8,0c-0.6,0-1.3-0.1-1.8,0.2c-2.2,1-4.6,0.8-6.9,0.6c-2.7-0.2-5.4-0.2-8-0.8c-2.7-0.5-5.4-0.7-8.1-1.5   c-1.5-0.4-3.3-0.6-4.8,0.4c-0.3,0.2-0.8,0.3-1.2,0.3c-4.9,0.8-9.8,1-14.7-0.1c-1.1-0.3-2.2-0.4-3.3-0.9c-1.4-0.7-1.6-1.1-1.3-2.7   c0.2-0.8,0.3-1.7,0.2-2.5c-0.4-3.5,0-7,0.5-10.5c0.8-5.1,1.5-10.3,2-15.4c0.3-3.3-0.3-6.6-0.6-9.9c-0.3-2.7-1.1-5.2-2-7.8   c-1.8-5.5-3-11.1-4.4-16.7c-0.5-2-1.1-4-1.6-6c-0.1-0.3-0.1-0.8-0.4-1c-1.5-2-1.9-4.4-2.1-6.7c-0.8-8.2-0.4-16.3,1.7-24.2   c0.7-2.7,1.1-5.5,1.8-8.2c0.4-1.5,0.8-2.9,1.1-4.4c0.1-0.5,0.3-1.1,0.1-1.8c-0.8,0.2-1.7,0.5-2.2-0.7c0.2-1.1,0.7-2.1,1.3-3.1   c0.3-0.4,0.5-0.8,0.8-1.2c1.3-1.9,1.4-3.9,0.5-6c-0.7-1.6-0.6-1.7,0.8-2.9c0.1-0.7-0.1-1.4-0.3-2.1c-0.2-0.7-0.1-1.3,0.3-1.9   c1-1.4,1-2.9,0.9-4.5c-0.1-1.4-0.2-2.7,0.4-4c0.4-0.8,0.3-1.6,0.4-2.4c0.4-3.4-0.5-6.6-1.1-9.8c-0.9-5-1.6-10-1.6-15.1   c0-4.8,0.3-9.6,0.7-14.4c0.3-3.5,0.8-7,1.2-10.5c0.1-1.2,0.1-2.4,0.1-3.6c0-1.5-0.1-2.9-0.1-4.4c0-1.7-0.1-3.3-1.8-4.5   c-0.9,0.2-1.6-0.3-2.2-1c-2-2.1-3.8-4.4-5.5-6.7c-2.8-3.8-4.6-8.1-5.4-12.7c-0.4-2.4-0.5-4.8-0.3-7.3c0.2-2.2,0.4-4.4,0.8-6.6   c0.3-1.8,1-3.6,1.5-5.4c1.8-2.3,2.2-5.1,3.5-7.6s2.6-5.1,4-7.5c0.5-0.9,1-1.7,1.5-2.5c0.8-1.2,1.8-2.3,3.3-2.7c1-1.9,1.9-3.7,3-5.5   c1.3-1.9,2-4,3-6.1c0.4-0.8,0.6-1.6,0.6-2.4c0.1-0.8,0.4-1.6,0.8-2.3c0.6-1.1,0.9-2.6,0.6-4.1c-0.3,1.2-0.6,2.3-1,3.6   c-0.3-1,0.1-1.9,0.3-2.6c0.4-1.8,0.5-3.7,0.8-5.5c0.1-0.8,0.1-1.6,0-2.3c-0.4-3.6-0.2-7.3,0-10.9c0.2-3.1-0.2-6.1-1.4-8.9   c-1-2.3-1.8-4.6-2.9-6.9c-1.8-3.7-3.6-7.3-5.8-10.8c-2.3-3.7-4.4-7.5-5.7-11.7c-1.6-4.9-3-9.8-4.4-14.7c-0.6-2-0.3-4-0.2-6   c0.1-1.2,0-2.4-0.3-3.5c-0.5-1.9-1.1-3.7-1.5-5.5c-1.5-6.6-1.1-13,2.3-18.9c1.1-1.9,1.2-3.9,1.1-6c0-0.7-0.3-1.3,0.2-2.1   c0.3-0.4,0-1.2,0-1.8c0-0.9,0-1.9,0-2.8c-0.6-0.3-1.2-0.1-1.8-0.1c-4.1,0.5-7.9-0.1-11.6-2c-0.3-0.2-0.6-0.3-1-0.5   c-0.3-0.1-0.7-0.2-1.1-0.3c-0.7-1.3-2.1-1.9-3.1-3.1c-0.3,0.6-0.1,1-0.2,1.5c-0.3,1.2-0.5,2.4-1.7,3.2c-0.1,0.1-0.1,0.3-0.1,0.4   C410.2,188.3,410.4,188.7,410.4,189z M432.8,129.3c-0.4,0.1-1-0.3-1.3,0.3c-0.1,0.1-0.2,0.1-0.3,0c-0.4,0.1-0.8-0.3-1,0.3   c-2.1,0.9-4.1,1.9-6.2,2.8c-0.4-0.1-0.3-0.4-0.3-0.6c0.3-0.3,0.7-0.6,1-0.8c1-0.5,1.9-1,2.9-1.5s2.1-0.9,3.1-1.3   c0.9-0.4,2-0.5,2.8-1.1c-3.5,0.5-6.7,1.9-9.8,3.5c-0.8,0.2-1.5,0.6-2.2,0.9c-0.3,0-0.7-0.1-0.9,0.4l0,0c-0.3-0.1-0.6,0.1-0.9-0.1   c0.1-0.2,0.1-0.4,0.2-0.6c1-0.6,1.9-1.2,2.9-1.8c2.6-1.1,5.4-1.9,8-3c-3,0.3-5.8,1.2-8.4,2.6c-1.6,0.1-2.7,1.4-4.3,1.7   c-2.3,1.9-5,3.3-7,5.6c-0.8,0.9-1.5,1.9-2.3,2.8c-2.7,3.1-4.5,6.7-5.7,10.5c-0.8,1.5-1.5,2.9-1.9,4.6c0.1,0.1,0.2,0.1,0.3,0.1   c0.6-1.4,1.3-2.7,2-4.1c0.5-0.8,0.8-1.8,1.5-2.5c0.2,0.1,0.5-0.1,0.6,0.3c-0.4,1-0.9,2-1.3,2.9c-0.2,0.4-0.6,0.8-0.6,1.4   c-1.1,1.7-1.7,3.7-2.9,5.4c-0.3,0.4-0.2,0.9,0,1.6c0.5-0.7,0.8-1.3,1.1-1.9c0.8-1.5,1.5-3.1,2.1-4.8c0.3-0.5,0.6-0.9,1-1.4   c1-1.4,1.8-3,3-4.3c0.4,0.1,0.4,0.3,0.4,0.6c-0.8,0.6-0.8,1.6-1.5,2.3c-0.8,0.9-1.5,1.8-1.9,3.2c0.6-0.5,1-0.9,1.4-1.2   c0.1-0.1,0.3,0.1,0.3,0.2c-0.8,1.9-2.2,3.3-3.3,5.1c-0.2,0.3-0.5,0.6-0.5,0.9c0.1,0.9-0.5,1.4-0.7,2.1c-0.3,0.6-0.8,1.2-0.5,2.1   c0.6-0.4,0.9-1.1,1.2-1.6c1.9-3.2,3.6-6.6,5.6-9.8c0.2-0.3,0.4-0.6,0.3-1l0,0c0.2-0.1,0.4-0.3,0.6-0.4c0.4,0.1,0.3,0.4,0.4,0.7   c-0.9,1.5-1.5,3.2-2.5,4.6c-0.1,0.1,0,0.4-0.1,0.6c-1.6,2.6-3.2,5.3-4.7,7.9c0.4,0.7,0.7,1.3,1.1,2.2c1.2-3.5,2.6-6.7,4.3-9.6   c0.4-0.2,0.8-1.1,1.4-0.2c-0.2,0.3-0.4,0.5-0.6,0.7c-1,1.1-1.3,2.5-1.8,3.8c-0.5,0.8-0.8,1.6-1,2.5c-0.9,2-1.9,3.9-1.7,6.2   c0.8-1.8,1.5-3.5,2.3-5.3c0.4-0.9,1.3-1.5,1.6-2.5c0.3,0,0.6-0.2,1,0.3c-2.3,3-3.4,6.6-5,10.1c0.2,0.5,0.2,1.1,0.8,1.4   c0.4-3.5,1.9-6.7,4.2-9.3c0.4,0.1,0.3,0.4,0.4,0.7c-0.4,0.7-0.8,1.3-1.2,2c-1.4,2.2-2.4,4.6-2.3,7.1c-0.2,0.4-0.7,0.5-0.6,1.1   c0,0.1,0.2,0.2,0.3,0.4c0.1,0.4-0.4,0.7-0.3,1.2c0.1,0.4,0.4,0.7,0.8,0.9c0.4-0.4-0.2-0.9,0.4-1.1c1.1,0.6,1.6,1.9,2.8,2.4   c0.2-1.3,0.7-2.3,1.3-3.3c1-1.9,2-3.7,3.1-5.5c1.7-2.8,3.5-5.6,6.2-7.6c0.3,0.1,0.7-0.2,0.9,0.3c-0.2,0.6-1,0.4-1.2,1   c-0.2,0.3-0.5,0.5-0.8,0.8c-2.5,3.2-4.4,6.7-6.4,10.3c-0.9,1.6-1.8,3.1-2.4,4.8c0.5,0.3,1,0.6,1.5,0.8c0.9,0.3,1.5,0.9,2,1.6   c0.4,0.7,1.1,1.1,1.8,1.4c0.4-0.3,0.8-0.7,1.1-1c0.2-0.5,0.1-1,0.4-1.4c1.2-1.3,2.3-2.7,3.4-4c0.4,0.1,0.3,0.4,0.3,0.6   c-0.6,1.3-1.8,2.3-2.5,3.4c0,0.3,0.3,0.4,0.1,0.8c-0.1,0.3-0.8,0.3-1,0.8c-0.3,0.3-0.7,0.7-0.7,1.2c0.4-0.3,1-0.4,1.2-0.9   c0.7-0.4,1.4-0.8,2.1-1.3c0.6,0,1.1,0.1,1.6,0.1c-0.5,1.6-2.5,1.8-3,3.4c1,0.3,1.8,0.8,2.8,0.9c0.4-0.3,0.7-0.6,1-1   c0.8-0.1,0.6,0.4,0.5,0.9c-0.2,0.1-0.4,0.3-0.4,0.6c0.1,0.1,0.2,0.2,0.4,0.3c1.9,0.3,3.8,0.3,5.3-1.2c0.6-0.6,1.3-1,1.9-1.6   c0.4,0,0.3,0.7,0.8,0.6c0.8-0.8,0.9-1.7,0.5-2.8c0.1-0.6,0.6-1.1,0.1-1.8c-2.3,0.2-3.8-1.8-5.9-2c-0.4-0.6-0.6-1.1-0.9-1.6   c-1-1.8-0.9-3.5,0-5.3c0.2-0.3,0.3-0.6,0.4-1c0.2-0.7,0.6-1.1,1.2-1.3c0.8-0.4,1.7-0.5,2.5-0.6c0.3,0.3,0.2,0.6,0.1,0.8   c-0.9,0.4-1.9,0.3-2.6,1.1c-0.6,1.4-0.4,3.1-0.4,4.6c0,0.4,0.3,0.7,0.5,1c0.7,1.2,1.9,1.9,3,2.6c0.9,0.5,1.7,0.6,2.6,0.3   c0.1-0.3,0.2-0.6-0.1-0.8c-0.2,0-0.4,0-0.7,0c-1.4,0.2-2.5-0.4-3.2-1.5c-0.8-1.3-1.3-2.8-1.4-4.4c-0.1-0.9,0.2-1.3,1.1-1.6   c1.3-0.5,2.5-0.4,3.8,0c0.6,0.6,0.6,0.1,0.6-0.3c0.6,0,1-0.4,1.5-0.7c1.2-1,1.9-2.2,2.6-3.6c0.2-0.1,0.3-0.3,0.4-0.5   c0.9-2.8,1.9-5.5,2.7-8.4c1.4-5.1,2.7-10.4,4.1-15.5c0.3-0.1,0.3-0.4,0.3-0.6c0-0.9,0-1.7,0-2.6c-0.1-2.4-0.6-4.8-0.9-7.1   c-1.2-0.4-2.1-1.1-3-1.6c-1.4-0.8-2.8-1.9-4.4-1.9c-0.5,0.3,0.3,0.6-0.2,0.8c-0.4,0-0.8-0.1-1.2,0.1   C433.5,128.6,433.2,128.9,432.8,129.3L432.8,129.3z M442.5,13.5c0,0.3-0.1,0.6,0.3,1.1C442.6,14.1,443,13.7,442.5,13.5   c0.1-1.5-0.4-3-0.4-4.5c0-0.1-0.1-0.1-0.2-0.2c-0.1-0.4-0.3-0.8-0.2-1.2c0.3-1.3-0.5-1.8-1.4-2.5c-0.2,0.7-0.1,1.3,0.1,1.9   c0.5,1.2,0.8,2.4,1.1,3.7C441.8,11.6,441.6,12.7,442.5,13.5z M403.2,182.6c0.5-0.4,0.9-0.8,1.2-1.3c0.2-0.2,0.4-0.4,0.6-0.6   c0.3,0.1,0.5-0.5,0.9-0.1c-0.9,0.8-1.4,1.8-2,2.8c-0.5,0.9-1,2-0.7,3.1c1,1,1,1,2.1,1.1c1.1,0.3,2.1,0.1,3.1-0.2   c0.9-0.3,1.9-0.7,2-1.9c0-0.9-0.1-1.8-0.2-2.9c-0.7,0.6-1,1.2-1.2,1.7c0,0.4,0.4,0.6,0.2,1c-0.6,1-1.6,1.3-2.3,2.1   c-0.3-0.2-0.3-0.4-0.3-0.6c0.5-0.3,0.3-0.8,0.6-1.2c1-1.4,1.6-2.9,1.8-4.7c-0.3-0.4-0.7-0.7-1-1.1c-0.3-0.4-0.4-0.8-1-0.9   c0,0.6,0.7,1.1,0.1,1.7c-0.8-0.1-0.5-1.1-1.2-1.2c-0.6,0.3-1.1,0.8-1.5,1.2c0,0-0.1,0-0.2,0c-0.1-0.3-0.1-0.6-0.1-0.9   c0.5-0.5,1.2-0.8,1.2-1.8c-0.5,0.3-0.9,0.6-1.3,0.8c-0.3-0.1-0.2-0.4-0.3-0.6c-0.1-0.6,0.7-0.6,0.7-1.2c-0.5-1.2-1.6-2.1-2.2-3.3   c0.2-1,0.8-1.8,0.8-2.7c-0.6-0.4-1.3-0.2-2-0.3c-0.6-0.1-1.3,0.8-2,0c1.2-0.9,2.6-0.7,3.9-1c-1.4-0.9-4.1-0.6-6.2,0.5   c-0.3-0.1-0.6,0-0.7-0.4c0.2-0.2,0.3-0.4,0.5-0.6c1-0.9,2.1-1.6,3.6-1c0.6,0.2,1.4,0,2.1,0c-0.5-1.9-1.4-3.4-2.5-4.9   c-0.5-0.8-1.2-0.2-1.8-0.4c-0.2-0.1-0.4,0-0.6-0.1c0.2-0.4,0.9-0.3,0.7-1.1c-0.9-0.2-1.6,0.6-2.4,0.6c-1.2,0.2-2.4,0.9-4,1   c1.9-1.3,3.7-1.9,5.8-2.4c-1.3-0.5-2.1,0-3,0.1c-1.7,0.2-3,1.1-4,2.4c-0.5,0.6-0.9,1.2-1.6,1.6c0,0.3,0,0.5,0.1,0.6   c0,0.1,0.2,0.2,0.3,0.3c0.2,0.4,0.6,0.3,0.9,0.3c0.5,0,1,0,1.4,0.4c0.1,0.2,0.1,0.5,0.2,0.7c2.2-2,6.6-2.8,8.3-1.7   c-0.5,0.4-1.1,0.3-1.6,0.3c-1.8,0-3.4,0.6-4.9,1.5c-0.6,0.1-1,0.8-1.7,0.9c-0.1-0.2-0.3-0.4-0.4-0.5c-1.3,1.1-1.4,1.6-0.9,3.4   c0.5-0.3,0.9-1.2,1.8-0.5c-0.3,1.2-1.7,1.8-2,3.1c0.2,0.4,0.1,1,0.7,1.4c0.5-0.3,0.5-0.9,0.8-1.3c0.3-0.4,0.4-0.8,0.7-1.2   c0.5-0.5,0.9-0.4,1.2,0.3c-0.4,0.8-0.9,1.6-0.8,2.7c1-0.8,1.8-1.4,2.6-2c0.6-0.1,1-0.6,1.4-0.9c0.4-0.2,0.7-0.5,1-0.7   s0.7-0.2,0.8,0.4c-0.8,0.9-2,1.3-2.8,2.3c-1,1.1-2.6,1.6-3.2,3c0.3,0.8,0.8,0.8,1.3,1c0.9-0.7,2-1.2,2.9-2c0.1,0,0.1,0,0.2-0.1   c0.3,0,0.6-0.1,0.7,0.4c-0.2,0.3-0.6,0.5-0.7,0.9c-1.1,0.8-2.2,1.6-3.3,2.4c0.5,0.8,0.5,0.8,1.3,1.2c0.9-0.9,1.8-1.9,2.7-2.9   c0.9-0.3,1.2-1.3,2.1-1.6c0.3,0.1,0.6-0.1,1,0.2c-1,0.9-2.2,1.5-3,3.1c0.6-0.4,1-0.6,1.2-0.1c-0.6,0.9-1.2,1.9-2.1,2.4   c-0.5,0-0.6-0.6-1-0.4c-0.2,0.4,0,0.7,0.3,0.8c0.7,0.4,1.5,0.7,2.2,1c1.7,0.6,3.2,0.5,4.3-1.1C403.2,182.7,403.2,182.6,403.2,182.6   z M491.4,578.8c-0.4-0.4-0.8-0.3-1.2-0.2c0,0.3,0.2,0.3,0.4,0.3c2.5,1.6,5.2,2.6,8,3.3c0.7,0.2,1.4,0.3,1.7,1   c2.2,0.5,4.4,0.6,6.1,2.3c1.8-0.4,3.6,0.3,5.4,0.5c0-1.1,0-2-0.8-2.7c-1-0.1-1.9,0-2.8,0.2s-1.8,0.3-2.6-0.3c-1-0.7-2-1-3.1-1.3   C498.9,580.6,495.2,579.5,491.4,578.8z M462.3,184.7c-0.4,0.4-0.2,0.8-0.3,1.3c-0.2,0.3-0.2,0.7-0.3,1c-0.5,2.5-0.6,5-1.3,7.5   c-0.1,0.4-0.2,0.7-0.6,1.1c-0.1-1.8-0.1-3.5,0.1-5.1c0.2-1.3,0.4-2.6,0.4-3.9c0.1-2.8,0-5.5,0-8.2c0-3.4,0.3-6.7,0.5-10.1   c0.1-3,0.5-6.1,0.9-9.1c0.2-1.4,0.2-2.8,0.3-4.2c0.4-3.4,0.8-6.8,1.1-10.2c0.3-3.5,0.6-7,0.7-10.5c0.1-2.7,0.2-5.5,0.8-8.2   c0.2-1,0.3-2.1,0.2-3.2c-0.2-2.5-0.5-4.9-0.4-7.4c0.1-2-0.2-4-0.9-5.9c-0.2-0.5-0.3-1.1-0.4-1.7c-0.6-3.3-1.3-6.5-1.8-9.7   c-0.3-1.7-0.8-3.3-0.7-5.1c0-1.1-0.1-2.2-0.5-3.2c-1.3-4.1-2.1-8.2-2.9-12.4c-0.2-1.1-0.7-2.2-0.3-3.2c0.3-1,0.1-1.9,0-2.9   c-0.2-2.9-0.8-5.8-1.1-8.8c-0.1-1.7-0.8-3.3-0.2-5c0.1-0.3,0-0.6-0.1-0.9c-0.3-0.7-0.3-1.4-0.2-2.1c0.4-3.1,1-6.1,1.4-9.2   c0.1-1,0.4-2,0.1-3s-0.4-2.1-0.3-3.2c0.2-2.6-0.6-5.1-0.9-7.6c-0.1-0.7-0.5-1.3-0.5-2.1c0-2.3-0.5-4.6-0.4-7c0-0.8-0.1-1.6-0.1-2.5   c-0.1-2.6-0.8-5.1-0.8-7.7c0-0.7-0.2-1.4-0.9-2c-0.4,0.3-0.7,0.6-1,1.1c0,1.5,0,3.1,0.1,4.6c0.1,1.6,0.1,3.2,0,4.8   c-0.1,1.5-0.5,3-0.6,4.5c0,0.5-0.1,0.9-0.6,1.1c-0.3,0-0.6-0.1-0.7-0.3c-0.6-1-1.2-2.1-1.5-3.2c-0.8-3.4-1.7-6.7-3-9.9   c-0.3-0.6-0.4-1.3-0.5-1.9c-0.1-1.5-0.7-2.9-1.2-4.3c-0.4-1-0.9-1.1-2.1-0.7c-0.2,0.9,0.5,1.7,0.5,2.5c0.2,2.2,0.6,4.3,1,6.4   c0.8,3.7,1,7.6,2.6,11.1c0.2,0.3,0.1,0.6-0.3,0.8c-0.3-0.1-0.4-0.4-0.6-0.7c-1.3-2.6-2.4-5.3-3-8.1c-0.2-1-1-1.8-1.2-2.8   c-0.5-2.7-1.2-5.3-1.8-8c-0.3-1.2-0.3-2.6-0.9-3.7c-0.9-0.2-1.4,0.3-1.9,1c0.4,1-0.2,2,0,3c0.3,1.7,0.6,3.5,1.1,5.1   c0.4,1.3,0.7,2.7,0.7,4.1c0,1.5,0.4,3,1,4.4c0.8,1.8,1.4,3.7,1.8,5.6c0,0.1,0,0.2,0,0.3c-0.3,0.3-0.4,0.7-0.9,0.8   c-0.6-0.4-0.5-1-0.5-1.5c0-0.6-0.2-1.2-0.4-1.8c-0.4-1.3-0.9-2.5-1.1-3.9c-0.2-0.9-0.9-1.6-1-2.6c-0.1-1.8-0.5-3.5-0.9-5.2   c-0.4-1.8-0.6-3.7-0.7-5.5c-1.8-0.1-2.2,0.2-2.1,1.8c0.1,2.7,0.1,5.5,0.6,8.2c0.5,2.2,0.7,4.5,0.6,6.8c0,0.7,0.1,1.5,0.2,2.2   c0.2,1.8,0.7,3.5,0.4,5.4c0,0.2,0,0.4,0,0.6c0.2,2.1,0.1,4.3,0.1,6.4c0,1.2-0.2,2.3-1.1,3.2c-0.5,0-1.1,0.4-1.7,0.2   c-0.4-0.3-0.9-0.5-1.3-0.8c-0.3,0-0.4,0.3-0.9,0.1c-0.8-0.9-1.6-2-2.3-3.2c-0.3-0.6-0.8-1.1-1.5-1.3c-1.1-0.4-2.2-0.8-3.4-1.2   c-0.5-0.2-1.1-0.3-1.7,0c0.5,0.8,0.8,1.8,1.9,2.1c1.2,1.1,2,2.5,2.5,4c0.4,1.2,1.2,2.2,2.1,3c2.8,2.8,5.6,5.6,7.3,9.3   c2,1,3.9,2,5.1,3.8c0.4,0.5,0.6,1.2,1,1.7c1,1.1,1.4,2.5,1.7,3.9c0.7,3.7,1,7.5,1.3,11.2c0.1,1.7,0.2,3.4,0.3,5.1   c0.4,4.4,0.7,8.8,0.4,13.2c-0.1,1.2,0.1,2.5-0.4,3.5c-0.5,1.3-0.4,2.5-0.6,3.8c-0.1,1.5-0.3,3-0.5,4.5c-0.3,2.6-0.9,5.1-0.8,7.7   c0,1,0,2,0,3c-0.2,2.7,0.2,5.3,0.2,7.9c0,0.3,0.1,0.6,0.2,0.9c0.5,0.9,0.5,2,0.6,3c0.2,2.2,0.3,4.5,0.7,6.6c0.5,2.7,0.2,5.4-0.2,8   c-0.5,3.2-1.5,6.3-2,9.5c-0.4,2.3-1,4.6-1.6,6.8c-1.5,4.8-2.6,9.8-5.1,14.2c-0.4,0.7-0.6,1.4-0.8,2.2c-0.7,4.7-1.3,9.4-1.2,14.2   c0,2.5-0.1,5.1-0.4,7.6c-0.1,1.1,0,2.2-0.8,3.1c-0.4,0.4-0.5,0.9-0.7,1.3c-0.5,1.4-0.9,2.8-1.3,4.1c-0.1,0.3-0.2,0.8-0.5,0.9   c-0.9,0.4-0.9,1.3-1.1,2.1c-0.3,1.4-0.5,2.8-0.5,4.3c0,2.3-0.3,4.6,0.3,6.8c0.5,1.9,1,3.8,1.9,5.6c0.2,0.5,0.6,1,0.5,1.4   c-0.4,1.7,0.1,3.4-0.1,5.1c-0.1,1.4,0.2,2.7,0.7,3.9c0.7,1.6,1.4,3.1,2.1,4.7c0.1,0.3,0.3,0.7,0.5,0.8c1.2,0.5,1.9,1.7,3.2,2.1   c0.2,0.1,0.4,0.3,0.6,0.4c3.9,1.8,7.9,2.8,12.2,2.9c3.3,0.1,6.1-0.8,8.7-2.6c2.7-1.9,5.2-4.1,6.4-7.4c0.8-2.1,1.4-4.2,1.9-6.3   c0.7-2.7,1.1-5.5,1.4-8.2c0.2-1.5,0.4-3-0.3-4.6c0.6,0,0.7-0.5,0.7-1c0-2.9,0-5.7,0-8.6c0-1-0.4-1.9-1.2-2.6   c-0.8-0.7-1.6-1.5-2.4-2.2s-1.6-1.2-2.7-1.5l0,0c0.1-0.5-0.1-0.9-0.5-1.2c-0.5-0.4-1-0.8-1.5-1.2c-0.6,0.5-0.1,1.4-0.9,1.7   c-0.7-1.2,0-2.3,0.3-3.3c1.2-0.2,1.2-0.2,2.1,0.3c1.2,0.5,2.4,1.2,3.8,1.4c-0.5-0.9-0.8-1.7-1.2-2.5c-0.5-1-0.7-2.1-0.5-3.1   c0.1-0.8,0.1-1.5,0-2.3c0.2-0.1,0.2-0.3,0.2-0.6c-0.1-2.8,0.4-5.6,0.4-8.4c0-2.3,0.3-4.5,0.9-6.7c0.4-1.4,1-2.7,2.1-3.7   c0.7-0.6,1.3-1.3,1.7-2.1c0.4-0.7,1-1.3,1.6-1.8c0.7-0.6,1.5-1,2.1-1.7c1-1,1.9-2,2.9-3c0.4-0.4,0.7-0.8,0.6-1.3   c0.2-0.6,0.1-1.1,0-1.7c-0.8-1.2-2-1.7-3.2-2.4c-1.1-0.7-2-1.5-2.1-2.9c0-0.5-0.4-0.9-0.8-1.1c-0.6,0-1.1-0.5-1.8-0.3   c-0.6,1.3-1.8,2.2-2.2,3.7c-0.3,0.9-1,0.9-2,0.3c-0.1-0.4,0.1-0.7,0.4-0.9c1.1-0.9,1.8-2.1,2.7-3.2c0.7-0.9,0.9-1.8,0.9-2.9   c-1.5-0.4-2.5-1.5-3.9-2c-0.1,0.7-0.3,1.3-0.4,1.9c-0.3,3.4-0.9,6.9-1.5,10.3c-0.2,1-0.3,2.1-0.1,3.1c0.2,1.2,0.2,2.4,0.2,3.6   c0,1.7,0,3.4,0,5.1c-0.1,0.2-0.2,0.4-0.2,0.6c-0.1,2.7-0.3,5.4-0.6,8.1C462.6,182.1,462.5,183.4,462.3,184.7L462.3,184.7z    M470.5,516.3c0.1-0.1,0.2-0.1,0.2-0.2c0-1.4,0-2.9,0-4.3c0.1,1.2-0.8,2.2-0.5,3.3c0,0.2,0,0.4-0.1,0.6c-0.5,0.3-0.3,0.8-0.3,1.3   c-0.2,0.9-0.4,1.8-0.6,2.7c-0.9,3.4-1.3,6.8-1.5,10.3c-0.2,3.6-0.4,7.1-0.3,10.7c0,1.6-0.1,3.2-0.3,4.8c-0.2,1.3-0.5,2.5-0.3,3.8   c0.5,2.8,0.9,5.5,1.3,8.3c0.3,2.3,0.9,4.7,0.7,7.1c0,0.4,0,0.8,0.2,1.2c1.7,3.2,3.9,6,7.5,7.2c1,0.3,1.9,0.7,2.8,1.3   c0.6,0.4,1.4,0.9,2.4,0.8c-2.1-1.5-3.7-3.4-5.9-4.5c-2.1-1.1-3-3.5-5-4.7c-0.1-0.1-0.2-0.3-0.2-0.4c-0.3-1.3-0.7-2.5-0.6-3.8   c0.2-2.1-0.2-4.1-0.3-6.2c-0.1-2.3-0.5-4.5-0.5-6.8c0-2.2,0-4.5,0-6.7c0-1.8,0-3.5,0.3-5.3c0.1-1.1,0.2-2.3,0-3.4   c-0.4-2.7-0.4-5.3,0-8c0.3-1.9,0.5-3.9,0.8-5.8c0.5-0.7,0.3-1.5,0.2-2.2C470.4,516.9,470.5,516.6,470.5,516.3z M462.8,480.8   c-1.6-0.6-3.3-1.1-5.1-1.1c-4.5,0.1-9-0.9-13.4-1.4c-0.5-0.1-1-0.3-1.5-0.1c-0.2,0.2-0.2,0.5-0.3,0.7c-0.8,3.5-1.5,7-2.7,10.3   c-1.4,3.9-2,8-2.2,12.1s-0.2,8.3-0.1,12.4c0.1,2.4,0.5,4.7,1.1,7c1.4,5.1,3.3,10.1,4.7,15.2c1.6,6.2,3.6,12.4,4.6,18.8   c0.4,2.7,0.7,5.5,0.6,8.2c0,2.6-0.1,5.2-0.5,7.7c-0.3,1.7-0.4,3.4-0.6,5.1c-0.4,2.5-0.6,5.1-1.5,7.6c-0.8,2.2-0.9,4.3-0.3,6.5   c0.1,0.2,0.1,0.6,0,0.8c-0.7,1.1-0.2,2.2-0.3,3.3c2.6,0.9,5.2,1.3,7.8,1.7c1.6,0.3,3.3,0,5,0c0.2,0,0.5-0.1,0.7-0.3   c3.4-1.7,6.9-1.3,10.5-1.1c0.1,0,0.2,0.1,0.3,0.1c2.1,0.5,4.1,1,6.3,1c1.2,0,2.4,0.1,3.5,0.4c2.2,0.5,4.4,0.5,6.6,0.5   c3.2,0,6.3-0.6,9.5-0.3c0.3,0,0.6-0.2,0.8-0.2c1.1,1.2,2.4,1.2,4,0.2c-0.2-0.3-0.1-0.7-0.5-0.9c-0.6-1.7-1.8-2.6-3.7-2.4   c-0.6,0.1-1.2,0-1.9,0c-0.3,0-0.6,0-0.7-0.4c0.1-0.3,0.3-0.4,0.6-0.5c1.2-0.1,2.5-0.1,3.7-0.1c0.6,0,1,0.3,1.4,0.8   c0.9,1.1,1.9,2.2,2.8,3.3c0.7,0.1,1.4,0.2,1.8-0.7c-0.8-0.8-1.2-1.8-1.7-2.8c-0.6-1.1-1.4-1.8-2.7-1.8c-0.6,0-1.2,0-1.9,0   c-0.3,0-0.6,0-0.7-0.5c0.9-1,2.2-0.3,3.2-0.6c-0.1-0.5-1.1-0.5-0.7-1.3c1.3,0.1,2.7,0.2,4.1,0.3c0.4,1,1.4,1.3,2.3,1.8   c1.1,0.6,2.1,1.3,2.4,2.7c0,0,0.2,0.1,0.3,0.1c0.3-0.2,0.7-0.5,0.9-0.8c-0.1-1.3-0.4-1.7-1.4-2.4c-0.3-0.2-0.8-0.3-1-0.7   c-0.3-0.7-0.9-0.8-1.5-1c-0.9-0.3-1.8-0.4-2.7-0.6c-0.4-0.1-1,0-0.9-0.8c0.9-0.4,1.8,0.2,2.8-0.1c-0.4-0.5-1-0.7-1.5-0.9   c-0.8-0.3-1.5-0.6-2.3-0.8c-1.2-0.3-2.3-0.7-3.3-1.2c-0.7-0.3-1.4-0.9-2.1-0.8c-0.6,0.1-1-0.1-1.4-0.3s-0.8-0.5-1.2-0.6   c-2.8-1-5.4-2.3-8.1-3.4c-4.5-1.9-8.8-4.1-12.9-6.7c-0.7-0.4-1.4-0.8-1.8-1.5c-1.8-3-3.4-6-3.2-9.7c0-0.3,0-0.5,0-0.8   c-0.5-1.9-0.7-3.8-1-5.8c-0.5-3.9-0.6-7.8-0.3-11.8c0.2-3.1,0.8-6.2,0.8-9.3c0-4.3,0.8-8.5,1.4-12.8c0.5-3.6,1.2-7.3,1.3-10.9   c0.1-5.6,0.6-11.3,0.2-16.9c-0.2-3.5-0.3-7,0.2-10.5c0-0.2,0-0.4-0.2-0.7C467,480.9,464.9,480.8,462.8,480.8z M467.9,202.5   c0.4,0.6,1,1.1,1.6,1.5c0.8,1.6,1.2,3.3,1.2,5.1c0,1.7,0,3.4,0.1,5.1c0.1,4.7-0.4,9.3-1.3,13.9c-0.5,2.5-1.4,4.8-2.1,7.2   c-1.1,3.4-2.9,6.4-5.6,8.8c-4.3,4-9.4,5.3-15.1,4c-1.6-0.4-3.2-0.9-4.9-1.4c-2.1-1.1-4.4-2-6.4-3.4c-0.1,0.4,0,0.6,0,0.9   c0.5,1.8,1,3.7,0.6,5.6c-0.1,0.5,0.1,0.8,0.2,1.2c0.8,2.1,1.7,4.2,2.8,6.2c2.2,3.7,4.6,7.4,6.6,11.2c2.5,4.8,4.7,9.7,6,15   c0.3,1.4,0.7,2.8,0.4,4.1c-0.2,0.9-0.3,1.7-0.3,2.6c0.2,5.8-0.2,11.5-0.3,17.2c0,0.4,0,0.7-0.1,1.1c-1.2,5.8-3.3,11.3-7.2,15.9   c-0.2,0.2-0.3,0.5-0.5,0.8c-0.9,1.8-2,3.5-3.4,5c-0.1,0.1-0.1,0.1-0.2,0.1c-0.1-0.1,0-0.4-0.4-0.4c-0.7,1.3-1.4,2.7-2.1,4.1   c-0.2,0.4-0.4,0.7-0.4,1.1c-0.3,0.6-0.6,1.3-0.8,1.9c2,1.5,3.8,1.9,5.5,2.2c2.9,0.5,5.9,0.3,8.8,0.6c2,0.3,4.1,0.5,6.1,0.7   c3.2,0.5,6.4,1.1,9.7,1.1c3.6,0,7.1,0.4,10.7,0.4c0.2,0,0.4,0,0.6,0c2.8,0.4,5.6,0.6,8.4,1.2c2.1,0.4,4.3,0.4,6.4,0.9   c1.5,0.4,3.1,0.3,4.5,1.4c0.1-0.4,0.3-0.7,0.3-1c0.1-3,0.2-6,0.3-9c0-0.6,0-1.2,0-1.9c0-2.2,0.5-4.4-0.4-6.6   c-0.1-0.4-0.1-0.8-0.1-1.2c0-0.9,0-1.9,0-2.8c0.1-4.5-0.2-8.9,0.3-13.4c0.4-3.4,1-6.8,1.7-10.2c0.7-3,1.3-6.1,1.6-9.1   c0.3-2.6,0.4-5.3,0.8-7.9c0.2-1.7,0.2-3.4,0.4-5.1c0.3-3,0.3-6-0.2-9c-0.6-3.6-1.5-7.2-1.6-10.9c-0.4-0.7-0.3-1.4,0.2-1.9   c0.5-0.6,1.1-1.2,1.6-1.9c1.5-1.8,2.5-3.9,2.8-6.2c0.2-0.6,0.3-1.2,0.3-1.8c0.2-3.2-0.2-6.4-1-9.5c-0.8-3.3-2.4-6.2-5.1-8.4   c-1.6-1.3-3.1-2.8-4.7-4.3c-2.2-2-4.3-4-6.6-5.9c-1-0.9-1.9-1.9-3.1-2.6c-0.5,0.1-0.9,0.4-1.5-0.1c-0.1-0.6-0.5-1.2-1-1.7   c-1.3-1.3-2.5-2.6-3.9-3.8c-2.1-1.7-4.3-3.4-6.2-5.4c-0.5-0.6-1.1-1.1-1.8-1.4c-0.5-0.4-1-0.6-1.6-0.5c-0.4-0.3-0.8-0.7-1.2-1   c-0.5-0.4-1.1-0.7-1.9-0.9c0.5,0.6,1,0.9,1.5,1.3C467.5,201.9,467.7,202.2,467.9,202.5z M438.4,339.4c-0.9-0.5-1.6-1.1-2.7-1.6   c-0.9,2-1.8,3.9-2.6,5.9c-1.1,2.5-2,5.1-2.8,7.7c-0.1,0.4-0.3,1-0.6,0.9c-0.6-0.1-0.6,0.3-0.7,0.6c-0.1,1.9-0.5,3.7-0.3,5.6   c0.2,1.3,0.1,2.7,0.2,4c0.1,2.6,0.6,5.2,1.4,7.7c0.9,2.8,2.2,5.3,3.6,7.8c0.7,1.3,1.6,2.4,3.1,3.1s2.6,1.8,3.8,3   c0.2,0.2,0.5,0.5,0.5,0.8c0.1,0.7,0.6,1.1,1.1,1.6c0.8,0.8,1.4,1.6,1.2,2.9c0,0.2,0,0.4,0,0.6c0.2,0,0.4,0,0.7-0.1   c0.7,0.9,0.5,1.9,0.4,2.8c-0.3,3.5-0.5,7.1-0.9,10.6c-0.2,1.6-0.2,3.3-0.4,5c-0.4,3.6-0.6,7.3-0.8,11c-0.2,3-0.1,5.9-0.1,8.9   c0,0.7,0,1.5,0.1,2.2c0.3,3,0.6,6,0.9,8.9c0.3,2.4,0.6,4.7,0.8,7.1c0.1,1.1,0.6,2.2,0.4,3.4c-0.3,2.1-0.4,4.2,0,6.3   c0,0.3,0.1,0.5,0,0.8c-0.4,1.4-0.8,2.9-1.3,4.3c-0.6-0.5-0.9-0.2-1.1,0.3c0.5,1.5,0.5,3-0.7,4.3c0.2,0.5,0.3,0.9,0.5,1.3   c0.5,1,0.5,1.9,0.2,3c-0.5,1.4-1,2.8-1.7,4.1c-0.3,0.7-0.7,1.4-0.4,2.2c2,0.4,4.1,0.7,6.1,0.6c0.5,0,0.9,0.3,1.3,0.4   c2,0.1,3.9,0.5,5.8,0.7c3,0.4,6.1,0.5,9.1,0.6c3.6,0,7.2-0.4,10.8,0.9c0.2-1.7-0.2-3.2-0.4-4.7c-0.3-1.7-0.5-3.4,0.4-5   c-0.3-0.8-0.6-1.6-0.9-2.3c1.4-3.7,2.8-7.2,4.2-10.8c0.5-1.3,0.6-2.6,0.8-3.9c-0.8-0.4-0.7-0.9-0.5-1.5c0.7-1.5,1.1-3,1.1-4.6   c0-0.9,0.6-1.2,1.4-1.4c0.8-2.2,1.6-4.3,2.3-6.5c2.2-6.6,4.1-13.4,6.6-19.9c3.1-8,4.9-16.3,5.8-24.8c0.4-3.5,0.9-7.1,1.1-10.6   c0.3-3.9,0.2-7.9,0.1-11.8c-0.1-2.7-0.4-5.4-0.5-8c-0.1-4.5-0.1-8.9,0.6-13.3c0-0.3,0-0.6,0.3-0.9s0.6,0.2,1-0.1   c-0.2-0.7,0.4-1.3,0.1-2c-2.5-1.3-5.1-2.2-8-2.5c-3.9-0.5-7.8-1.1-11.6-1.4c-2.3-0.2-4.5-0.3-6.8-0.3c-2.9-0.1-5.8-0.3-8.6-0.7   c-2-0.3-4-0.4-6-0.7c-2.5-0.4-5-0.7-7.5-0.8C445.1,340.8,441.7,340.5,438.4,339.4z M442.3,129.1c0.3-0.4,0.1-0.7,0-1   c-1.5-4.7-1.7-9.5-1.2-14.4c0.1-1.3,0.5-2.5,0.5-3.8c-0.3-5.9,0.3-11.7,1.4-17.4c0.3-1.7,0.5-3.4,0.3-5.2c-0.4-4-0.8-8-0.9-12.1   c0-0.5-0.1-1-0.1-1.5c-0.4-3.6-0.8-7.2-1.1-10.8c-0.1-1.6-0.7-2.8-2.1-3.8c-0.1,0.5,0,0.8,0.1,1.2c0.4,2,1,3.9,1.2,5.9   c0.2,1.7,0.1,3.3,0.3,5c0.4,4.3,0.3,8.7-0.2,13c-0.1,1.1,0.1,2.1,0,3.1c-0.3,2.3-0.5,4.5-0.5,6.8c-0.1,2.2-0.1,4.4-0.3,6.7   c-0.2,2.4-0.3,4.8-0.8,7.2c-0.8,4.1-0.7,8.1-0.1,12.2c0.3,2.4,0.6,4.8,0.5,7.2C440.2,127.9,441.1,128.6,442.3,129.1z M422.4,34.2   c2.6,0.7,5.1,1.4,6.6,3.9c0.8,1.3,2.3,1.9,3.6,2.5c0.4,0.2,0.9,0.2,1.2,0.1c0.7-1.5,0.5-2.9,0.5-4.2c0-1.2-0.1-2.4,0.1-3.5   c0.4-2-0.1-4-0.2-6c0-0.3-0.2-0.6-0.5-1c0,1,0,1.7,0.1,2.5c0.2,1.3,0.1,2.5,0,3.7c-0.2,1.8-1,3.5-0.8,5.3c0,0.5-0.3,0.9-0.7,1.1   c-0.2-0.1-0.4-0.1-0.5-0.3c-1.3-1.5-3.3-2.1-4.5-3.7c-0.1-0.2-0.4-0.4-0.6-0.4c-1.6-0.5-3.1-1-4.8-1.1c-0.1,0-0.1,0.1-0.2,0.1   C422,33.5,422.3,33.7,422.4,34.2z M450.7,23.3c0.4-1.6,0.3-3.1,0-4.7c-0.2-0.9-0.3-1.8-0.5-2.7c-0.2-1,0-2-0.4-2.9   c-0.5-1.2-0.7-2.3-0.8-3.6c0-0.4-0.1-0.8-0.5-1c-0.3,0.1-0.4,0.3-0.4,0.5c0,1.9-0.3,3.8,0.2,5.7c0.7,2.7,1.6,5.4,2.1,8.2   C450.3,23.1,450.5,23.3,450.7,23.3z M428.7,174.8c1,1.5,2.2,2.1,3.8,1.3c0.3-0.5,0.4-1.1,0.4-1.8c-0.8-0.8-1.1-1.9-1.3-3   c-0.6-0.3-1.1-0.4-1.8-0.3C430,172.5,429.7,173.7,428.7,174.8z M511.6,587.4c-1.6-0.7-3.3-0.4-4.9-0.7c0.8,0.4,1.5,0.8,1.6,1.8   c0.9,0.5,1.6,1,2,1.9C511.7,589.3,511.8,589,511.6,587.4z M431.4,185.3c-0.7,0.2-1.4,0.3-2.1,1.1c0.8-0.1,1.5,0.1,2-0.1   C431.6,186,431.6,185.7,431.4,185.3z M428.1,171c-0.3,1-0.3,1,0.4,2C428.3,172.4,429,171.7,428.1,171z M433.4,173.2   c0.1-0.7,0.3-1.4-0.5-1.9C432.6,172.1,432.9,172.6,433.4,173.2z M433.7,170.3c0,0.3,0,0.7,0.5,0.7c0.3-0.2,0.5-0.4,0.4-0.9   C434.3,170.1,434,170,433.7,170.3z M465.7,143.2c-0.3,0.5-0.3,1,0,1.6C465.7,144.2,465.7,143.7,465.7,143.2z" />
	<path fill="#DFC6B5" d="M504.6,596.2c0.1-0.4,0.2-0.8,0.3-1.2c-0.2-0.7-0.9-1.3-0.4-2.3c0.2-0.4-0.4-0.9-0.8-1.2   c-0.8-0.7-1.8-1.1-2.5-1.9c0.5-0.3,1-0.1,1.4-0.1c1.9,0.6,4.2,2.8,4.6,4.5c-0.3,0.6-1.2,0.3-1.6,0.9c0.1,0.2,0.2,0.3,0.3,0.5   c-0.4,0-0.8,0.2-0.9,0.6C505,596.2,504.9,596.3,504.6,596.2z" />
	<path fill="#444141" d="M409.4,189.4c0,0.2,0.1,0.4,0.1,0.6c0.2-0.1,0.4-0.2,0.5-0.2c0.1,0.6-0.3,0.7-0.7,0.7   C409,190,409,189.6,409.4,189.4z" />
	<path fill="#444141" d="M409.1,188.7c0.1-0.4,0.4-0.3,0.9-0.2c-0.3,0.3-0.1,0.7-0.6,0.8C409.4,189.1,409.6,188.8,409.1,188.7z" />
	<path fill="#444141" d="M410.4,189c0-0.3-0.1-0.7,0.3-0.9C410.7,188.5,410.8,188.9,410.4,189z" />
	<path fill="#F69878" d="M438.4,339.4c3.3,1.1,6.6,1.4,10,1.6c2.5,0.1,5,0.4,7.5,0.8c2,0.3,4,0.4,6,0.7c2.9,0.4,5.8,0.6,8.6,0.7   c2.3,0,4.6,0.1,6.8,0.3c3.9,0.3,7.8,0.9,11.6,1.4c2.9,0.4,5.5,1.2,8,2.5c0.3,0.7-0.3,1.4-0.1,2c-0.4,0.2-0.7-0.3-1,0.1   c-0.3,0.3-0.2,0.5-0.3,0.9c-0.7,4.4-0.7,8.9-0.6,13.3c0.1,2.7,0.5,5.4,0.5,8c0.1,3.9,0.2,7.9-0.1,11.8c-0.3,3.6-0.7,7.1-1.1,10.6   c-0.9,8.5-2.7,16.8-5.8,24.8c-2.5,6.5-4.4,13.3-6.6,19.9c-0.7,2.2-1.6,4.4-2.3,6.5c-0.8,0.2-1.4,0.5-1.4,1.4c0,1.6-0.4,3.1-1.1,4.6   c-0.3,0.6-0.4,1.2,0.5,1.5c-0.2,1.3-0.3,2.6-0.8,3.9c-1.4,3.5-2.8,7.1-4.2,10.8c0.3,0.7,0.6,1.5,0.9,2.3c-0.9,1.6-0.7,3.3-0.4,5   c0.2,1.5,0.6,3,0.4,4.7c-3.5-1.3-7.2-0.9-10.8-0.9c-3.1,0-6.1-0.2-9.1-0.6c-1.9-0.2-3.9-0.6-5.8-0.7c-0.5,0-0.9-0.3-1.3-0.4   c1.1-1.3,0.9-3.2,1.7-4.6c1.1-0.3,2.1,0.6,3.2,0.1c0.2-0.2,0.6-0.4,0.7-0.9c-0.8-1.2-2.4-0.5-3.4-1.4c0-1.1,0-1.1,0.7-1.7   c2,0.7,4.1,1.6,6.4,1.2c0.3-0.4,0.8-0.7,1-1.1c0-0.5,0-1,0-1.3c-0.6-1.5-2-1.6-3.1-2.1c0.4-3.2-0.5-5.8-3.2-7.3   c-0.4-1,0.2-1.7,0.2-2.5c0-2,0-3.9,0-5.9c0-0.8-0.2-1.6-0.7-2.1c-0.7-0.7-0.9-1.5-1.1-2.3c-0.3-1.2-0.6-2.4-0.9-3.5   c-0.5-1.8-0.7-3.7-0.3-5.5c0.3-1.5,0.3-3,0.5-4.5s0.1-3,0.3-4.4c0.2-2.5,0.4-5.1,0.7-7.6c0.2-1.8,0.2-3.6,0.3-5.4   c0.2-4,0-7.9,0.4-11.9c0.2-2.1,0-4.2,0-6.3c0.3-0.6,0.9-0.8,1-1.7c0-0.2-0.6-0.4-0.7-1c0.1-1-0.1-2.1,0.2-3.4   c1.6,0.8,3.3,0.8,5,0.8c0.7,0,1.1-0.3,1-1c-0.4-0.9-1.3-1-2.1-1.2c-1.4-0.4-2.9-0.5-4.1-1.2c0.8-0.1,1.6-0.5,2.5-0.4   c1.2,0,2.4,0,3.6,0c1.7-0.1,2.6-0.9,2.6-2.4c-0.6-0.6-1.1-1.4-2.1-1.4c-1.3,0-2.7-0.3-4,0.2c-0.8,0.3-1.7-0.2-1.9-1   c-0.1-0.4-0.3-0.6-0.6-0.9c-1.1-1.1-2.3-1.8-3.8-2.1c-1.3-0.2-2.4-0.9-3.2-1.9c-0.7-0.8-1.3-1.7-2-2.5c-1.7-2.1-2.9-4.5-3.9-7   c-1.5-3.6-1.4-7.4-1.8-11.1c-0.1-1,0.2-2,0.3-3c0.1-2.2,0.5-4.3,1-6.5c0.5-2,0.8-4.1,1.7-6c0.3-0.5,0.2-1.1,0-1.6   C438,339.7,438.1,339.5,438.4,339.4z M468,404.4c0.6-0.2,0.6-0.6,0.6-0.9c0.1-2,0.3-4,0.3-6c0-8.2,0-16.5,0-24.7   c0-0.6-0.1-1.1-0.1-1.7c-0.1-2.5,0-5.1,0-7.6c0.7-0.7,2,0.2,2.6-0.8c-0.9-0.3-1.7,0.2-2.1,0.1c-1.1-0.4-0.7-1.2-1.1-1.7   c-0.4,0.5,0.1,1.2-0.5,1.7c-1.1,0.3-2.5,0-3.9,1.1c1.6-0.1,2.9-0.5,4.2-0.2C468,377.2,468,390.8,468,404.4z M465,442.3   c0.6-1.3,0.6-2.6,0.8-3.9c0.4-4.1,0.7-8.2,0.9-12.3c0.2-3.2,0.4-6.5,0.9-9.7c0.1-0.5,0.2-1.1-0.4-1.6c-0.2,1.5-0.5,3-0.7,4.4   c-0.4,3.7-0.7,7.4-0.9,11.1c-0.2,2.6-0.3,5.3-0.4,7.9c0,0.3,0,0.5-0.1,0.8C464.8,440.1,464.9,441.2,465,442.3z M461.3,478   c0.9-2.7,0.1-5.5,0.7-8.2c0.2-0.8,0.2-1.7,0.1-2.7C461,469.1,460.4,476.3,461.3,478z M462.4,356.9c0.9,0.3,1.9,0.4,2.8,0.2   c0.9-0.2,1.9,0,2.7-0.4s2,0.3,2.7-0.6c-0.2-0.3-0.4-0.5-0.7-0.5C467.5,355.9,465,356.3,462.4,356.9z M492.7,349.7   c-0.1,1.2,0.5,4.2,1.2,5.3c0.6-0.2,0.6-0.6,0.5-1.1c-0.3-1.1-0.5-2.2-0.9-3.3C493.4,350.3,493.3,349.9,492.7,349.7z M467.1,352.9   c0.8-1.2,0.5-2.4,0.5-3.6c0-2-0.2-2.7-0.8-3.2c0,1.1,0,2.2,0,3.3C466.9,350.5,467,351.6,467.1,352.9z M469.6,467.5   c1.5-0.8,2.6-1.9,3.6-3.3c0.1-0.2,0-0.4-0.3-0.6C471.7,464.8,470.4,465.9,469.6,467.5z M472.5,390.6c-1.1-0.2-1.9-0.3-2.6,0.4   C470.8,391.2,471.7,392,472.5,390.6z M491.4,347.1c-0.3-0.5-0.4-0.9-0.9-0.7c-0.1,0.8,0,0.9,0.5,1.1   C491.1,347.4,491.2,347.2,491.4,347.1z" />
	<path fill="#FFF1A8" d="M441.8,246.7c1.6,0.5,3.2,1,4.9,1.4c5.8,1.3,10.8-0.1,15.1-4c2.6-2.4,4.4-5.4,5.6-8.8   c0.8-2.4,1.7-4.7,2.1-7.2c0.9-4.6,1.4-9.2,1.3-13.9c0-1.7-0.1-3.4-0.1-5.1c0-1.8-0.4-3.5-1.2-5.1c-0.2-0.8-0.6-1.5-1.6-1.5   c-0.2-0.3-0.4-0.6-0.6-0.9c0.1-0.2,0.2-0.4,0.4-0.4c0.4,0.3,0.8,0.7,1.2,1c0.2,0.5,0.8,0.6,1.2,0.8c0.2,0.1,0.3-0.1,0.4-0.3   c0.7,0.4,1.3,0.8,1.8,1.4c1.9,2,4.1,3.7,6.2,5.4c1.4,1.1,2.7,2.4,3.9,3.8c0.5,0.5,0.8,1.2,1,1.7c0.5,0.6,1,0.2,1.5,0.1   c1.2,0.7,2.1,1.7,3.1,2.6c2.3,1.9,4.4,3.9,6.6,5.9c1.6,1.4,3.1,2.9,4.7,4.3c2.7,2.2,4.3,5.1,5.1,8.4c0.8,3.1,1.1,6.3,1,9.5   c0,0.6-0.2,1.2-0.3,1.8c-2.3,1.4-5,1.6-7.6,1.8c-1.5,0.1-2.6,0.6-3.4,1.9c-1.3-0.4-1.3-0.4-1.8,0.7c0.3,0.3,0.6,0.7,0.9,1   c-0.1,0.4-0.6,0.8,0.1,1.1c0.6,0.5,1.1,1,1.8,1.3c0.4,0.6,1,0.3,1.5,0.3c1.1,0.1,2.2,0.2,3.1,0.8c0.1,0.5-0.2,1.1,0.6,1.1   c0.1,3.7,1,7.2,1.6,10.9c0.5,3,0.5,6,0.2,9c-0.2,1.7-0.2,3.4-0.4,5.1c-0.3,2.6-0.5,5.3-0.8,7.9c-0.3,3-1,6.1-1.6,9.1   c-0.7,3.4-1.3,6.8-1.7,10.2c-0.5,4.5-0.2,8.9-0.3,13.4c0,0.9,0,1.9,0,2.8c0,0.4,0,0.9,0.1,1.2c0.9,2.2,0.4,4.4,0.4,6.6   c0,0.6,0,1.2,0,1.9c0,3-0.2,6-0.3,9c0,0.3-0.1,0.6-0.3,1c-1.3-1.1-3-1.1-4.5-1.4c-2.1-0.5-4.3-0.5-6.4-0.9   c-2.8-0.6-5.6-0.8-8.4-1.2c-0.2,0-0.4,0-0.6,0c-3.6,0.1-7.1-0.3-10.7-0.4c-3.3,0-6.5-0.6-9.7-1.1c-2-0.3-4.1-0.5-6.1-0.7   c-2.9-0.4-5.9-0.1-8.8-0.6c-1.8-0.3-3.5-0.7-5.5-2.2c0.3-0.6,0.6-1.3,0.8-1.9c0.2,0.1,0.4,0.2,0.5,0.3c1.3,1.9,3.8,1.5,5.4-0.1   c1-1,1.9-2,2.6-3.2c2.2-3.4,4.4-6.8,6.5-10.3c1-1.7,2.1-3.4,2.9-5.2c0.8-1.9,1.5-3.8,3.3-5c-0.2-0.8,0.3-1.4,0.3-2.1   c-0.1-2.2,0.5-4.3,0.4-6.5c0-0.5-0.1-1,0.1-1.5c1.2,0.5,2.5,0.9,3.8,1c1.3,0.2,2.6,0.6,4,0.3c0.2-0.2,0.6-0.4,0.8-0.9   c-0.1-0.2-0.2-0.4-0.3-0.7l0,0c2.7,0,5.3,0,7.9,0c0.3-0.3,0.3-0.6,0-0.9c-0.5,0-1.1,0-1.8,0c-3.6,0-7.2,0-10.8,0   c-1.1-0.7-2.6-0.7-3.8-1.5c0.4-3.1-0.3-6.2-0.2-9.3c0-0.2,0-0.3,0-0.5c-0.5-2.2-0.5-4.5-0.9-6.8c-0.3-1.8-0.6-3.6-0.7-5.4   c-0.1-0.8-0.3-1.7-0.8-2.4c-1.3-1.9-2.6-3.9-4.2-5.6c-1-1.1-1.8-2.2-2.4-3.5c-0.8-1.8-1.7-3.6-2.4-5.4c-1.7-4.3-3.3-8.7-5.5-12.8   C441.7,246.9,441.5,246.8,441.8,246.7z M462.4,259.4c-0.4-1.3-0.7-2.7-1.1-4c-0.4-1.3-0.8-2.6-1.1-3.9c-0.4-1.3-0.6-2.6-1-4.1   c-0.5,0.4-0.6,0.8-0.5,1.1c0.1,0.6,0.2,1.2,0.4,1.8c1,3.3,2,6.6,3,9.9c0.2,1.4,0.7,2.7,1.5,4C463.3,262.6,463.1,261,462.4,259.4z    M465.3,272c-0.4,0.2-0.4,0.5-0.4,0.9c-0.1,1.1,0.2,2.1,0.3,3.2c0.2,2,0.5,4,0.7,6c0.3,2.3,0.5,4.6,0.8,6.9c0.4,3,0.3,6.1,0.4,9.1   c0,0.1,0.1,0.2,0.3,0.1c0.5-0.3,0.3-0.9,0.3-1.4c0-3.1,0.1-6.3-0.3-9.4c-0.1-1.2-0.3-2.5-0.4-3.7c-0.5-3.6-1.3-7.1-1.2-10.7   C465.8,272.6,465.8,272.2,465.3,272z M466,312.7c-0.8,1.6-2.8,24-2.5,25.7c0.6-0.8,0.5-1.7,0.6-2.5   C464.9,328.2,465.6,320.5,466,312.7z M479.7,336.8c1.6,0.7,3.4,0.9,5.1,1.1s3.5,0.5,5.2,0.6s3.3,0.8,5,0.9   c-1.2-0.9-2.7-1.2-4.1-1.4c-2.2-0.4-4.5-0.7-6.7-0.9C482.6,337,481.2,336.5,479.7,336.8z M462,304.2c3,0.2,5.8,0.1,8.6,0.2   c0.1,0,0.3-0.1,0.4-0.1c-0.8-0.5-0.8-0.5-1.4-0.5C466.7,303.4,463.3,303.6,462,304.2z M481.6,334c2.6,0.8,5,0.8,7.5,0.8   c-0.1-0.5-0.5-0.5-0.8-0.6c-2-0.2-4.1-0.4-6.1-0.6C482.1,333.6,482,333.8,481.6,334z M471.8,309.2c-1.3-0.8-2.3-0.5-3.3-0.5   s-2.1,0-3.1,0c0,0.1,0,0.2,0,0.3C467.3,309.3,469.3,309.9,471.8,309.2z M462.4,270.4c1.5,0.1,2.7-0.7,3.9-1.5   C464.7,268.7,463.7,269.8,462.4,270.4z M489.7,252.6c-0.3,0.1-0.5,0.2-0.5,0.5c0.2,0.3,0.4,0.5,0.7,0.3c0-0.1,0.2-0.2,0.2-0.4   C490.1,252.9,490,252.7,489.7,252.6z" />
	<path fill="#F6DAC8" d="M464.6,191c0.1,0.8,0.1,1.5,0,2.3c-0.2,1.1,0,2.1,0.5,3.1c0.4,0.8,0.8,1.6,1.2,2.5   c-1.4-0.2-2.6-0.9-3.8-1.4c-1-0.4-0.9-0.4-2.1-0.3c-0.4,1.1-1,2.1-0.3,3.3c0.9-0.3,0.3-1.3,0.9-1.7c0.5,0.4,1,0.8,1.5,1.2   c0.4,0.3,0.6,0.7,0.5,1.2c-0.9,0.5-1,0.6-0.5,1.5c1.3,2.5,2.7,4.9,4.1,7.3c0.1,0.2,0.2,0.4,0.5,0.3c0.2-1.6-1.9-6.2-4.1-9   c1,0.2,1.9,0.7,2.7,1.5c0.8,0.7,1.6,1.5,2.4,2.2s1.2,1.6,1.2,2.6c0,2.9,0,5.7,0,8.6c0,0.5-0.1,0.9-0.7,1c0.6,1.6,0.4,3.1,0.3,4.6   c-0.3,2.8-0.7,5.5-1.4,8.2c-0.5,2.1-1.2,4.3-1.9,6.3c-1.2,3.3-3.6,5.5-6.4,7.4c-2.6,1.8-5.5,2.7-8.7,2.6c-4.3-0.1-8.3-1-12.2-2.9   c-0.2-0.1-0.4-0.3-0.6-0.4c0-0.2,0.1-0.4,0.2-0.6c0.7-1.3,0.7-2.6,0-3.8c-0.3-0.5-0.2-1-0.2-1.5c0-0.7-0.1-1.3-0.3-1.9   c-0.5-1.2-0.5-2.5-0.1-3.8c0.7-2,0.4-4-0.6-5.9c-0.6-1.2-1.3-2.3-2.1-3.4c-1.2-1.6-1.8-3.5-1.9-5.5c0-2.1-0.1-4.1,0.2-6.2   c0.3-2,0.5-4,1-6c0.2-0.7,0.1-1.5,0.7-2.1c0.3,0.2,0.5,0.4,0.8,0.6c1.3,0.8,2.6-0.1,2.8-1.3c0.1-1.2,0.3-2.4-0.1-3.6   c-0.4-1.5-0.4-3-0.8-4.5c-0.5-1.9-0.3-3.9-0.6-5.9c-0.3-2,0-4,0.3-6c0.6-2.9,1.3-5.8,2.4-8.6c0.1-0.4,0.2-0.8,0.6-1.1   c0.9-0.8,1.4-1.8,1.8-3s0.7-2.3,1-3.5c0.4-2,1.2-3.9,1.5-5.9c0.3-1.8,0.6-3.6,1-5.4c0.5-2.8,1.2-5.5,1.8-8.3   c0.3-1.2,0.6-2.4,0.6-3.6c0.1-1.3,0.7-2.6,0.6-3.8c1.3-1.4,1.4-2.9,1.1-4.5c-0.2-1-0.4-2-0.5-2.9c0.4-0.4,0.7-0.8,0.9-1.1   c0.1-2.1-0.3-4-0.6-6c-0.3-2.6-1.1-5.1-1.4-7.6c-0.2-1.5-0.6-2.9-0.5-4.4c0-1.9,0-3.7,0-5.6s-0.2-3.9,0.4-5.8   c0.3-0.9,0.2-1.8,0.5-2.7c0.5-1.4,0.7-2.9,1.1-4.4c0.2-0.7,0.3-1.4,0.1-2c-0.3-0.7-0.2-1.3-0.2-2c-0.1-2.9,0.1-5.8-0.3-8.7   c-0.2-1.7-0.4-3.4-0.6-5.1c-0.4-2.4-1-4.8-1.5-7.3c-0.3-1.6-0.8-3.2-1.1-4.9c-0.2-0.8,0.1-1.7-0.5-2.4c0.8-1.1,0.6-2.1-0.5-2.8   c-0.7-0.4-1.2-1-1.8-1.5c0-0.5,0-1,0-1.4c-1.3-1.9-3.3-2.6-5.2-3.4c-1.3-0.5-2.5-1.4-3.2-2.5c-2.2-3.7-4.8-7-8-9.9   c-0.9-0.8-1.8-1.6-3-1.9c-1.1-0.3-1.4-1.2-1.9-2.1c0.6-0.3,1.2-0.2,1.7,0c1.1,0.4,2.2,0.8,3.4,1.2c0.7,0.2,1.1,0.7,1.5,1.3   c0.6,1.2,1.4,2.3,2.3,3.2c0.4,0.2,0.6-0.1,0.9-0.1c0.4,0.3,0.9,0.5,1.3,0.8c0.6,0.2,1.2-0.2,1.7-0.2c0.9-0.9,1.1-2,1.1-3.2   c0-2.1,0.1-4.3-0.1-6.4c0-0.2,0-0.4,0-0.6c0.3-1.8-0.1-3.6-0.4-5.4c-0.1-0.7-0.2-1.5-0.2-2.2c0.1-2.3-0.2-4.5-0.6-6.8   c-0.5-2.7-0.6-5.5-0.6-8.2c0-1.6,0.3-1.9,2.1-1.8c0.1,1.8,0.3,3.7,0.7,5.5c0.4,1.7,0.7,3.4,0.9,5.2c0.1,1,0.8,1.7,1,2.6   c0.3,1.3,0.7,2.6,1.1,3.9c0.2,0.6,0.3,1.2,0.4,1.8c0,0.5,0,1.2,0.5,1.5c0.5,0,0.6-0.5,0.9-0.8c0-0.1,0-0.2,0-0.3   c-0.4-1.9-1-3.8-1.8-5.6c-0.6-1.4-1-2.8-1-4.4c0-1.4-0.3-2.8-0.7-4.1c-0.5-1.7-0.8-3.4-1.1-5.1c-0.2-1,0.5-2,0-3   c0.5-0.7,1-1.2,1.9-1c0.6,1.2,0.6,2.5,0.9,3.7c0.7,2.6,1.3,5.3,1.8,8c0.2,0.9,1,1.8,1.2,2.8c0.7,2.8,1.8,5.5,3,8.1   c0.1,0.3,0.2,0.6,0.6,0.7c0.3-0.2,0.4-0.4,0.3-0.8c-1.6-3.5-1.9-7.4-2.6-11.1c-0.4-2.1-0.8-4.3-1-6.4c-0.1-0.9-0.8-1.6-0.5-2.5   c1.2-0.4,1.7-0.3,2.1,0.7c0.6,1.4,1.1,2.8,1.2,4.3c0,0.7,0.2,1.3,0.5,1.9c1.3,3.2,2.3,6.5,3,9.9c0.3,1.2,0.9,2.2,1.5,3.2   c0.1,0.2,0.4,0.4,0.7,0.3c0.5-0.2,0.6-0.6,0.6-1.1c0-1.5,0.4-3,0.6-4.5c0.1-1.6,0.1-3.2,0-4.8s-0.1-3.1-0.1-4.6   c0.3-0.5,0.6-0.8,1-1.1c0.7,0.5,0.9,1.2,0.9,2c0,2.6,0.7,5.1,0.8,7.7c0,0.8,0.2,1.6,0.1,2.5c-0.1,2.3,0.4,4.6,0.4,7   c0,0.7,0.5,1.4,0.5,2.1c0.4,2.5,1.2,5,0.9,7.6c-0.1,1.1,0.1,2.2,0.3,3.2c0.3,1.1,0,2-0.1,3c-0.5,3.1-1,6.1-1.4,9.2   c-0.1,0.7-0.2,1.4,0.2,2.1c0.1,0.3,0.2,0.6,0.1,0.9c-0.7,1.7,0,3.4,0.2,5c0.3,2.9,0.9,5.8,1.1,8.8c0.1,1,0.3,1.9,0,2.9   s0.1,2.2,0.3,3.2c0.7,4.2,1.6,8.3,2.9,12.4c0.3,1,0.5,2.1,0.5,3.2c-0.1,1.7,0.4,3.4,0.7,5.1c0.5,3.3,1.2,6.5,1.8,9.7   c0.1,0.6,0.2,1.1,0.4,1.7c0.7,1.9,1,3.9,0.9,5.9c-0.1,2.5,0.1,5,0.4,7.4c0.1,1.1,0.1,2.2-0.2,3.2c-0.6,2.7-0.7,5.4-0.8,8.2   c-0.1,3.5-0.5,7-0.7,10.5c-0.3,3.4-0.7,6.8-1.1,10.2c-0.1,1.4-0.2,2.8-0.3,4.2c-0.4,3-0.8,6.1-0.9,9.1c-0.2,3.4-0.5,6.7-0.5,10.1   c0,2.8,0.1,5.5,0,8.2c0,1.3-0.3,2.6-0.4,3.9c-0.2,1.6-0.3,3.3-0.1,5.1c0.4-0.4,0.5-0.7,0.6-1.1c0.6-2.5,0.8-5,1.3-7.5   c0.1-0.4,0.1-0.7,0.3-1c0.6-0.3,0.2-0.8,0.3-1.3l0,0c0.2,0,0.4,0.1,0.5,0.1c0.1,0.3,0.2,0.6,0.3,0.9   C463.6,187.5,464.6,189.1,464.6,191z M447.7,184.6c-0.1-2.3-0.8-4.5-1.1-6.7c-0.1-0.5-0.4-0.7-0.9-0.6c-0.4,0-0.6,0.4-0.7,0.7   c0,0.3,0,0.6,0.1,0.9C445.7,180.9,446.5,182.8,447.7,184.6z M452.1,122.8c1-0.6,1-1.5,1-2.3c0-1,0.4-2.2-0.6-3.1   C451.7,118.5,451.5,121.2,452.1,122.8z M441.7,30c-0.6,0.1-0.9,0.4-0.8,0.7c0.1,1,0.2,2,0.7,3c0.1,0.3,0.3,0.5,0.9,0.3   C442.5,32.6,442.7,31.2,441.7,30z M462.2,123.8c-0.7,0.1-1,0.6-1.1,1.2c-0.2,0.8-0.8,1.6-0.1,2.5c0.9-0.8,1-1.9,1.4-2.9   C462.5,124.3,462.4,124,462.2,123.8z M447.3,33.5c0.8-1.5,0.6-2.6-0.7-3.1C446.7,31.4,446.7,32.4,447.3,33.5z M447.8,186.1   c-0.4,1.3-0.2,2,0.8,2.8C448.9,187.8,448.6,187,447.8,186.1z M451.3,109.2c-1,1-1,1.4,0,2.2C452.1,110.4,452.1,110.2,451.3,109.2z    M459.7,130.5c0.6-0.5,0.7-1.1,0.7-1.7c0-0.2-0.2-0.5-0.5-0.5C459.1,129.2,459.1,129.2,459.7,130.5z M467.3,213.8   c0-1.7-0.3-2-1.5-1.8C466,212.8,466.6,213.2,467.3,213.8z M443.3,39.7c-0.7,1-0.5,1.6,0.8,2.2C443.5,41.1,444,40.2,443.3,39.7z    M459.7,208.8c0.3-0.8,1-1.3,0.1-1.9C458.9,207.8,458.9,207.9,459.7,208.8z M451,27.6c-0.4,0.8,0,1.3,0.5,1.9   C451.9,28.2,451.9,28.2,451,27.6z M447.6,37.2c-0.1,0.5-0.3,1-0.4,1.6c-0.1,0.3,0,0.5,0.4,0.5C448.1,38.7,448.3,38,447.6,37.2z    M448.5,197.4c0.6-0.9,0.6-0.9-0.1-1.7C447.9,196.3,447.9,196.9,448.5,197.4z M443.5,173.3c0.4,1.8,0.4,1.8,1.5,1.6   C444.8,174.2,444.3,173.8,443.5,173.3z M447.3,34.2c-0.7,0.8-0.7,0.8,0.3,1.4C447.8,35,447.9,34.5,447.3,34.2z M452,116.2   c0.1-0.6,0.4-1.2-0.1-1.9C451.3,115.2,451.3,115.4,452,116.2z M459.9,203.5c0.5-0.6,0.4-1-0.2-1.3   C459.2,202.8,459,203.2,459.9,203.5z M451.6,106c0.4-0.5,0.4-0.9,0-1.3C450.8,105.3,450.8,105.3,451.6,106z M448.3,190.8   c-0.2,0.8-0.2,0.8,0.1,1.4C448.8,191.8,449.1,191.3,448.3,190.8z M442.9,37.5c-0.6,0.4-0.6,0.8,0,1.2   C443.5,38.3,443.5,37.9,442.9,37.5z M442.7,36.8c0.3-0.7,0.3-0.7-0.2-0.8C442.3,36.3,442.4,36.6,442.7,36.8z" />
	<path fill="#F6DAC8" d="M462.8,480.8c2.1,0,4.2,0.1,6.2,0.1c0.3,0.3,0.3,0.5,0.2,0.7c-0.6,3.5-0.5,7-0.2,10.5   c0.4,5.6-0.1,11.3-0.2,16.9c-0.1,3.7-0.8,7.3-1.3,10.9c-0.6,4.3-1.4,8.5-1.4,12.8c0,3.1-0.5,6.2-0.8,9.3c-0.3,3.9-0.2,7.9,0.3,11.8   c0.3,2,0.5,3.9,1,5.8c0.1,0.3,0.1,0.5,0,0.8c-0.2,3.7,1.4,6.7,3.2,9.7c0.4,0.7,1.1,1.1,1.8,1.5c4.1,2.6,8.5,4.8,12.9,6.7   c2.7,1.2,5.4,2.4,8.1,3.4c0.4,0.2,0.8,0.4,1.2,0.6c0.4,0.2,0.8,0.4,1.4,0.3c0.7-0.1,1.5,0.4,2.1,0.8c1.1,0.5,2.2,1,3.3,1.2   c0.8,0.2,1.6,0.5,2.3,0.8c0.5,0.2,1.1,0.4,1.5,0.9c-0.9,0.3-1.9-0.3-2.8,0.1c-0.1,0.8,0.5,0.7,0.9,0.8c0.9,0.2,1.8,0.3,2.7,0.6   c0.6,0.2,1.2,0.3,1.5,1c0.2,0.4,0.6,0.5,1,0.7c1,0.7,1.3,1.1,1.4,2.4c-0.2,0.4-0.5,0.6-0.9,0.8c-0.1,0-0.2-0.1-0.3-0.1   c-0.3-1.4-1.3-2-2.4-2.7c-0.8-0.5-1.8-0.8-2.3-1.8c-1.4-0.1-2.8-0.2-4.1-0.3c-0.4,0.9,0.6,0.8,0.7,1.3c-1,0.4-2.3-0.3-3.2,0.6   c0.1,0.5,0.4,0.5,0.7,0.5c0.6,0,1.2,0,1.9,0c1.3,0,2.1,0.8,2.7,1.8c0.5,1,0.9,2,1.7,2.8c-0.4,0.9-1.1,0.8-1.8,0.7   c-0.9-1.1-1.9-2.2-2.8-3.3c-0.4-0.5-0.8-0.8-1.4-0.8c-1.2,0-2.5,0-3.7,0.1c-0.3,0-0.5,0.2-0.6,0.5c0,0.4,0.4,0.4,0.7,0.4   c0.6,0,1.3,0.1,1.9,0c1.9-0.2,3,0.7,3.7,2.4c0,0.4-0.1,0.7-0.5,0.9c-0.9-2.2-2.3-2.2-3.8-2c-1.1,0.1-2.2,0.4-3.3,0.7   c-2.1,0.5-4.1,0.1-6.1-0.2c-2.1-0.3-4.2-0.8-6.3-0.8c-1.5,0-3-0.1-4.5,0c-2.1,0.1-4-0.3-5.7-1.4c-0.6-0.4-1.3-0.5-2-0.5   c-1.8,0-3.5,0.3-5,1.5c-0.2,0.2-0.5,0.3-0.8,0.4c-2.1,0.6-4.3,0.9-6.4,1.3c-0.3,0-0.7,0.1-0.9-0.1c-0.5-0.3-1-0.2-1.5-0.2   c-2.6-0.2-4.2-1-4.8-3.6c0.1-0.2,0.5-0.2,0.5-0.5c0.5-0.6-0.1-0.9-0.3-1.3c0-0.4,0.7-0.5,0.6-1c-0.1-0.2-0.3-0.2-0.5-0.2   s-0.4,0-0.6,0.2c-0.3,0.2,0.5,0.5-0.3,0.8c-0.4-4.4,0.3-8.7,0.9-13c0.9-0.2,1.1,0.4,1.5,0.9c0.5,0.9,1,1.8,1.6,2.6   c0.7,1,1.6,1.7,2.9,1.4c0.7-0.5,1.2-1.1,1.4-1.9c-0.2-0.9-0.5-1.7-1.1-2.3c-0.7-0.8-1.3-1.6-1.8-2.5c-0.7-1.3-1.7-2.5-1.5-4.1   c0-0.1-0.2-0.2-0.3-0.3c-0.1-0.3-0.3-0.5-0.6-0.6c-0.1-0.4-0.5-0.7-0.1-1.2c0.1-0.1,0.5,0.1,0.7-0.3c0-0.2,0-0.5,0-0.7   c0-0.5,0-1,0-1.5c0.3-0.8-0.7-0.5-0.9-0.9c0-0.3,0-0.5,0-0.6c0.2-0.6,0.6-0.3,0.9-0.7c-0.2-0.4,0.5-0.8,0.3-1.3   c-0.1-0.3-0.3-0.5-0.6-0.6l0,0c0-0.4-0.5-0.3-0.6-0.7c0-0.6,0-1.2,0-1.8c0.1-0.7,0.1-1.4,0-2.1c0.2-3.2-0.2-6.4-0.5-9.7   c-0.3-3.2-1.1-6.3-2.1-9.3c-0.6-1.6-1.2-3.2-1.6-4.9c-1.2-5.4-2.9-10.6-3.5-16.1c-0.2-1.8-0.4-3.6-0.5-5.5c-0.1-1.7,0-3.5,0.2-5.2   c0.3-2,0.1-4.1,0.3-6.1c0.2-2,0.5-4,0.8-5.9c0.5-2.7,0.9-5.5,1.5-8.2c0.3-1.1,0.4-2.4,1.1-3.3c2.1-0.2,4.1,0,6.1-0.3   c1.3-0.2,2.7-0.2,3.9-0.5C458.1,481.2,460.4,480.7,462.8,480.8z M450.3,493.8c-0.3,0.1-0.4,0.3-0.3,0.4c0.5,2.3,0.8,4.7,1,7   c0,0.2,0.2,0.4,0.4,0.3C451.8,499.2,451.2,495.1,450.3,493.8z M450.9,513.2c0.8-0.9,0.6-2,0.9-3c0.1-0.3-0.1-0.5-0.4-0.5   C450.1,510.9,449.9,512,450.9,513.2z M451,506.4c0.8-1.8,0.7-2.9-0.4-3.7C449.9,503.9,450.3,505.1,451,506.4z M463,568.3   c1,1.9,2.4,2.7,3.6,2.1c-1-0.7-2-1.5-3-2.1C463.5,568.2,463.3,568.3,463,568.3z M461.8,565.4c0.2,0.6,0.2,1,0.8,1.2   C463.1,565.8,463.1,565.8,461.8,565.4z M450.9,517.1c0.9-0.1,0.9-0.1,0.7-0.8C451.1,516.2,451,516.5,450.9,517.1z" />
	<path fill="#EF8A6A" d="M438.4,339.4c-0.3,0.1-0.4,0.3-0.2,0.6c0.3,0.5,0.3,1.1,0,1.6c-0.9,1.9-1.2,4-1.7,6c-0.5,2.1-0.9,4.3-1,6.5   c0,1-0.4,2-0.3,3c0.4,3.7,0.3,7.5,1.8,11.1c1,2.5,2.2,4.9,3.9,7c0.7,0.8,1.3,1.7,2,2.5c0.9,1,1.9,1.6,3.2,1.9   c1.5,0.3,2.8,1,3.8,2.1c0.3,0.3,0.5,0.5,0.6,0.9c0.3,0.8,1.2,1.3,1.9,1c1.3-0.5,2.7-0.2,4-0.2c1,0,1.5,0.7,2.1,1.4   c0,1.5-0.9,2.3-2.6,2.4c-1.2,0-2.4,0-3.6,0c0.8-0.5,1.6-0.4,2.5-0.6c0.3-0.1,0.6-0.2,0.5-0.7c-3.2,0.2-6.3,1.3-9.6,1.4   c-0.3,0-0.6,0.1-0.9,0.6c1.7-0.2,3.4,0.1,5-0.3c1.3,0.7,2.8,0.8,4.1,1.2c0.8,0.2,1.6,0.3,2.1,1.2c0,0.7-0.3,1-1,1   c-1.7,0-3.4,0-5-0.8c-0.3,1.3-0.1,2.4-0.2,3.4c0.1,0.6,0.7,0.7,0.7,1c-0.1,0.9-0.7,1.1-1,1.7c0,2,0.1,4.1,0,6.3   c-0.3,4-0.1,7.9-0.4,11.9c-0.1,1.8-0.1,3.6-0.3,5.4c-0.3,2.5-0.4,5.1-0.7,7.6c-0.1,1.5,0,3-0.3,4.4c-0.3,1.5-0.3,3-0.5,4.5   c-0.3,1.8-0.1,3.7,0.3,5.5c0.3,1.2,0.6,2.4,0.9,3.5c0.2,0.8,0.5,1.6,1.1,2.3c0.5,0.5,0.7,1.3,0.7,2.1c0,2,0,3.9,0,5.9   c0,0.8-0.6,1.5-0.2,2.5c2.7,1.5,3.7,4.1,3.2,7.3c1.2,0.5,2.5,0.6,3.1,2.1c0,0.3,0,0.7,0,1.3c-0.2,0.4-0.7,0.7-1,1.1   c-2.3,0.4-4.3-0.5-6.4-1.2c-0.7,0.6-0.7,0.6-0.7,1.7c1,0.8,2.6,0.1,3.4,1.4c-0.1,0.6-0.5,0.7-0.7,0.9c-1.1,0.4-2.1-0.4-3.2-0.1   c-0.7,1.4-0.5,3.3-1.7,4.6c-2.1,0.1-4.1-0.2-6.1-0.6c-0.3-0.9,0.1-1.5,0.4-2.2c0.7-1.3,1.2-2.7,1.7-4.1c0.4-1,0.4-2-0.2-3   c-0.2-0.4-0.4-0.9-0.5-1.3c1.2-1.3,1.2-2.8,0.7-4.3c0.3-0.5,0.6-0.8,1.1-0.3c0.4-1.5,0.9-2.9,1.3-4.3c0.1-0.2,0.1-0.5,0-0.8   c-0.4-2.1-0.3-4.2,0-6.3c0.2-1.1-0.3-2.2-0.4-3.4c-0.2-2.4-0.5-4.7-0.8-7.1c-0.3-3-0.6-6-0.9-8.9c-0.1-0.7-0.1-1.5-0.1-2.2   c0-3-0.1-5.9,0.1-8.9c0.2-3.7,0.4-7.3,0.8-11c0.2-1.6,0.2-3.3,0.4-5c0.3-3.5,0.6-7.1,0.9-10.6c0.1-1,0.3-2-0.4-2.8   c-0.2,0-0.4,0-0.7,0.1c0-0.2-0.1-0.4,0-0.6c0.3-1.2-0.4-2.1-1.2-2.9c-0.5-0.5-1-0.9-1.1-1.6c0-0.3-0.3-0.5-0.5-0.8   c-1.1-1.1-2.3-2.3-3.8-3s-2.4-1.9-3.1-3.1c-1.4-2.5-2.8-5.1-3.6-7.8c-0.8-2.5-1.3-5.1-1.4-7.7c-0.1-1.3,0-2.7-0.2-4   c-0.2-1.9,0.2-3.7,0.3-5.6c0-0.3,0-0.7,0.7-0.6c0.3,0,0.4-0.6,0.6-0.9c0.8-2.6,1.7-5.2,2.8-7.7c0.8-1.9,1.7-3.8,2.6-5.9   C436.8,338.3,437.6,338.9,438.4,339.4z M448.9,467.8c-1.3-1.1-3.8-1.8-5-1.6c-0.5,0.1-0.9,0.3-0.8,1   C444.8,468.3,446.7,468.6,448.9,467.8z M448.6,463.7c-1.4-1.2-2.9-1.3-4.3-1.3c-0.5,0-0.8,0.3-0.8,0.8   C444.4,464,446.1,464.2,448.6,463.7z M443.5,385c-0.1,0.5-0.1,0.8,0.4,0.8c0.7-0.4,1.8-0.3,2.6-1.1   C445.3,384.4,444.4,384.9,443.5,385z" />
	<path fill="#E2C8B7" d="M423.4,37.8c1.2,0.3,2.2,1.1,3,1.9c3.1,2.9,5.7,6.2,8,9.9c0.7,1.1,1.8,2,3.2,2.5c1.9,0.7,3.8,1.5,5.2,3.4   c0,0.4,0,0.9,0,1.4c0.6,0.5,1.1,1.1,1.8,1.5c1.1,0.7,1.3,1.7,0.5,2.8c0.5,0.7,0.3,1.6,0.5,2.4c0.4,1.6,0.8,3.2,1.1,4.9   c0.5,2.4,1.1,4.8,1.5,7.3c0.3,1.7,0.4,3.4,0.6,5.1c0.4,2.9,0.1,5.8,0.3,8.7c0,0.7,0,1.3,0.2,2c0.2,0.6,0.1,1.3-0.1,2   c-0.4,1.4-0.6,3-1.1,4.4c-0.3,0.9-0.3,1.8-0.5,2.7c-0.5,1.9-0.4,3.9-0.4,5.8s0,3.7,0,5.6c0,1.5,0.4,2.9,0.5,4.4   c0.3,2.6,1,5.1,1.4,7.6c0.2,2,0.7,3.9,0.6,6c-0.3,0.3-0.6,0.7-0.9,1.1c0.2,0.9,0.4,1.9,0.5,2.9c0.3,1.6,0.2,3.1-1.1,4.5   c0.1,1.2-0.5,2.5-0.6,3.8c-0.1,1.2-0.4,2.4-0.6,3.6c-0.7,2.7-1.4,5.5-1.8,8.3c-0.3,1.8-0.7,3.6-1,5.4c-0.3,2-1.1,3.9-1.5,5.9   c-0.2,1.2-0.6,2.4-1,3.5s-0.9,2.2-1.8,3c-0.3,0.3-0.4,0.6-0.6,1.1c-1.1,2.8-1.8,5.7-2.4,8.6c-0.4,1.9-0.7,4-0.3,6   c0.3,2,0.1,4,0.6,5.9c0.4,1.5,0.4,3,0.8,4.5c0.3,1.1,0.2,2.4,0.1,3.6c-0.2,1.2-1.5,2.1-2.8,1.3c-0.3-0.2-0.5-0.4-0.8-0.6   c-0.6,0.6-0.5,1.4-0.7,2.1c-0.5,2-0.8,4-1,6c-0.3,2.1-0.2,4.1-0.2,6.2c0,2,0.6,3.9,1.9,5.5c0.8,1.1,1.5,2.2,2.1,3.4   c1,1.9,1.3,3.9,0.6,5.9c-0.4,1.3-0.4,2.5,0.1,3.8c0.2,0.6,0.3,1.3,0.3,1.9c0,0.5,0,1,0.2,1.5c0.6,1.3,0.6,2.6,0,3.8   c-0.1,0.2-0.2,0.4-0.2,0.6c-1.3-0.4-2-1.6-3.2-2.1c-0.2-0.1-0.4-0.5-0.5-0.8c-0.7-1.6-1.4-3.1-2.1-4.7c-0.5-1.2-0.9-2.5-0.7-3.9   c0.2-1.7-0.4-3.4,0.1-5.1c0.1-0.4-0.3-1-0.5-1.4c-0.9-1.8-1.4-3.7-1.9-5.6c-0.6-2.3-0.3-4.5-0.3-6.8c0-1.4,0.2-2.9,0.5-4.3   c0.2-0.8,0.2-1.6,1.1-2.1c0.3-0.1,0.4-0.6,0.5-0.9c0.5-1.4,0.9-2.8,1.3-4.1c0.2-0.5,0.3-0.9,0.7-1.3c0.7-0.9,0.6-2,0.8-3.1   c0.3-2.5,0.4-5.1,0.4-7.6c0-4.8,0.5-9.5,1.2-14.2c0.1-0.8,0.4-1.5,0.8-2.2c2.5-4.5,3.7-9.4,5.1-14.2c0.7-2.2,1.3-4.5,1.6-6.8   c0.5-3.2,1.5-6.3,2-9.5c0.4-2.6,0.7-5.3,0.2-8c-0.4-2.2-0.5-4.4-0.7-6.6c-0.1-1-0.1-2.1-0.6-3c-0.1-0.3-0.2-0.6-0.2-0.9   c0-2.6-0.4-5.3-0.2-7.9c0.1-1,0-2,0-3c-0.1-2.6,0.5-5.1,0.8-7.7c0.2-1.5,0.3-3,0.5-4.5c0.1-1.3,0.1-2.5,0.6-3.8   c0.4-1.1,0.3-2.3,0.4-3.5c0.3-4.4,0-8.8-0.4-13.2c-0.2-1.7-0.2-3.4-0.3-5.1c-0.3-3.8-0.6-7.5-1.3-11.2c-0.3-1.4-0.7-2.7-1.7-3.9   c-0.4-0.5-0.7-1.2-1-1.7c-1.3-1.8-3.1-2.8-5.1-3.8c-1.6-3.6-4.5-6.4-7.3-9.3c-0.9-0.9-1.6-1.9-2.1-3   C425.4,40.3,424.6,38.9,423.4,37.8z M439.8,55.8c-0.1-1.3-0.5-1.7-1.7-1.6C438.1,55.3,439.2,55.3,439.8,55.8z" />
	<path fill="#EBDA8F" d="M441.8,246.7c-0.3,0.1-0.2,0.3-0.1,0.4c2.2,4.1,3.8,8.5,5.5,12.8c0.7,1.8,1.6,3.6,2.4,5.4   c0.6,1.3,1.4,2.5,2.4,3.5c1.6,1.7,2.8,3.7,4.2,5.6c0.5,0.8,0.7,1.6,0.8,2.4c0.2,1.8,0.5,3.6,0.7,5.4c0.3,2.3,0.3,4.5,0.9,6.8   c0,0.1,0,0.3,0,0.5c-0.1,3.1,0.6,6.3,0.2,9.3c1.2,0.8,2.7,0.8,3.8,1.5c-1.6,0.2-3.3-0.2-5.1,0.1c1.1,0.3,1.9,0.6,2.7,0.6   c1.9,0,3.7,0,5.5,0c0.5,0,1-0.1,1.5,0.2c0.1,0.2,0.2,0.5,0.3,0.7c-0.2,0.5-0.5,0.6-0.8,0.9c-1.5,0.3-2.7-0.2-4-0.3   c-1.3-0.1-2.5-0.6-3.8-1c-0.2,0.5-0.1,1-0.1,1.5c0.2,2.2-0.4,4.3-0.4,6.5c0,0.7-0.5,1.4-0.3,2.1c-1.8,1.3-2.5,3.2-3.3,5   s-1.9,3.5-2.9,5.2c-2.1,3.5-4.4,6.9-6.5,10.3c-0.8,1.2-1.7,2.2-2.6,3.2c-1.6,1.6-4.1,1.9-5.4,0.1c-0.1-0.1-0.3-0.2-0.5-0.3   c0-0.4,0.2-0.8,0.4-1.1c0.7-1.4,1.4-2.7,2.1-4.1c0.4,0,0.3,0.3,0.4,0.4c0.1,0,0.1-0.1,0.2-0.1c1.4-1.5,2.5-3.2,3.4-5   c0.1-0.3,0.3-0.6,0.5-0.8c3.9-4.6,6-10,7.2-15.9c0.1-0.4,0.1-0.7,0.1-1.1c0.1-5.8,0.5-11.5,0.3-17.2c0-0.9,0.1-1.7,0.3-2.6   c0.3-1.4,0-2.8-0.4-4.1c-1.3-5.3-3.5-10.2-6-15c-2-3.9-4.4-7.5-6.6-11.2c-1.1-2-2-4.1-2.8-6.2c-0.1-0.4-0.3-0.7-0.2-1.2   c0.4-1.9-0.1-3.8-0.6-5.6c-0.1-0.3-0.2-0.5,0-0.9C437.4,244.7,439.7,245.5,441.8,246.7z" />
	<path fill="#E2C8B7" d="M451.2,569.5c0.1,0.1,0.3,0.2,0.3,0.3c-0.2,1.6,0.8,2.8,1.5,4.1c0.5,0.9,1.1,1.7,1.8,2.5   c0.6,0.6,0.9,1.4,1.1,2.3c-0.2,0.8-0.7,1.4-1.4,1.9c-1.3,0.3-2.2-0.4-2.9-1.4c-0.6-0.8-1.1-1.7-1.6-2.6c-0.3-0.5-0.6-1.1-1.5-0.9   c-0.6,4.3-1.4,8.6-0.9,13c0.7-0.2-0.1-0.6,0.3-0.8c0.1-0.2,0.4-0.2,0.6-0.2s0.4,0,0.5,0.2c0.1,0.5-0.5,0.6-0.6,1   c-0.5,0-0.9-0.1-1.1,0.5c0.3,0.6,0.8,0.8,1.5,0.8c0,0.3-0.4,0.3-0.5,0.5c0.7,2.5,2.2,3.4,4.8,3.6c0.5,0,1-0.1,1.5,0.2   c0.2,0.1,0.6,0.1,0.9,0.1c2.1-0.4,4.3-0.7,6.4-1.3c0.3-0.1,0.6-0.2,0.8-0.4c1.5-1.1,3.2-1.5,5-1.5c0.8,0,1.4,0.2,2,0.5   c1.8,1,3.6,1.5,5.7,1.4c1.5-0.1,3,0,4.5,0c2.1,0,4.2,0.5,6.3,0.8c2,0.3,4,0.7,6.1,0.2c1-0.3,2.2-0.5,3.3-0.7c1.5-0.2,2.8-0.2,3.8,2   c0.4-0.2,0.5-0.5,0.5-0.9c0.4,0.2,0.3,0.6,0.5,0.9c-1.6,1-2.9,1-4-0.2c-0.3,0.1-0.6,0.3-0.8,0.2c-3.2-0.3-6.3,0.3-9.5,0.3   c-2.2,0-4.4,0-6.6-0.5c-1.1-0.3-2.4-0.3-3.5-0.4c-2.1-0.1-4.2-0.5-6.3-1c-0.1,0-0.2-0.1-0.3-0.1c-3.5-0.2-7.1-0.7-10.5,1.1   c-0.2,0.1-0.5,0.3-0.7,0.3c-1.7,0-3.4,0.2-5,0c-2.6-0.4-5.2-0.8-7.8-1.7c0-1-0.4-2.2,0.3-3.3c0.1-0.2,0-0.5,0-0.8   c-0.6-2.2-0.4-4.4,0.3-6.5c0.9-2.5,1.1-5,1.5-7.6c0.2-1.7,0.4-3.4,0.6-5.1c0.4-2.6,0.5-5.2,0.5-7.7c0-2.7-0.2-5.5-0.6-8.2   c-1-6.4-3-12.5-4.6-18.8c-1.4-5.1-3.3-10.1-4.7-15.2c-0.6-2.3-1.1-4.6-1.1-7c-0.1-4.1-0.1-8.3,0.1-12.4s0.8-8.2,2.2-12.1   c1.2-3.4,1.9-6.9,2.7-10.3c0.1-0.3,0.1-0.5,0.3-0.7c0.5-0.2,1,0.1,1.5,0.1c4.5,0.5,8.9,1.5,13.4,1.4c1.8,0,3.4,0.5,5.1,1.1   c-2.4-0.1-4.6,0.4-6.9,0.9c-1.3,0.3-2.7,0.3-3.9,0.5c-2,0.3-4,0.1-6.1,0.3c-0.7,1-0.8,2.2-1.1,3.3c-0.6,2.7-1.1,5.5-1.5,8.2   c-0.3,1.9-0.5,3.9-0.8,5.9c-0.2,2.1,0,4.1-0.3,6.1c-0.3,1.8-0.3,3.5-0.2,5.2c0.1,1.8,0.3,3.6,0.5,5.5c0.6,5.5,2.3,10.7,3.5,16.1   c0.4,1.7,1,3.3,1.6,4.9c1.1,3,1.8,6.1,2.1,9.3c0.3,3.2,0.7,6.4,0.5,9.7c-0.3-0.1-0.7-0.3-1,0c-0.5,1.4-0.5,1.4,0.3,2.5   c0.4,0.1,0.5-0.2,0.8-0.4c0,0.6,0,1.3,0,1.8c0.1,0.4,0.6,0.3,0.6,0.7c-0.1,0-0.3,0-0.5,0c-0.3,0.7-0.5,1.3,0.3,1.9   c0.5-0.7,0.3-1.3,0.2-2c0.4,0.1,0.5,0.3,0.6,0.6c0.1,0.6-0.5,0.9-0.3,1.3c-0.3,0.4-0.7,0.1-0.9,0.7c0,0.1,0,0.3,0,0.6   c0.2,0.4,1.1,0.1,0.9,0.9c-0.2-0.1-0.3-0.4-0.6-0.3c-0.6,1.1-0.6,1.2,0.2,2.4c0.2-0.2,0.3-0.4,0.5-0.6c0,0.3,0,0.5,0,0.7   c-0.2,0.3-0.6,0.2-0.7,0.3c-0.4,0.5,0,0.9,0.1,1.2c-0.6,1,0,1.6,0.5,2.6C451.3,570.7,451.1,570.1,451.2,569.5z M454.2,577.7   c-1.1-0.6-2-1.8-3.1-2.7c-0.2,1-0.2,1.1,0,1.4c0.7,0.9,1.4,1.8,2.6,2C454,578.4,454.2,578.3,454.2,577.7z M451.3,574.4   c0.7-0.6,0.7-1.1,0-1.8C451,573.5,451,573.5,451.3,574.4z" />
	<path fill="#FBE4C4" d="M403.8,152.6c-0.1-0.6,0.4-0.9,0.6-1.4c0.5-1,0.9-2,1.3-2.9c0.9-1.4,1.9-2.7,3.1-3.8   c-0.2-0.4-0.4-0.6-0.8-0.5c-0.9,0.8-1.9,1.7-2.3,3.1c-0.1,0.3-0.4,0.6-0.6,0.9c-0.7,0.7-1,1.7-1.5,2.5c-0.4-0.1-0.3-0.4-0.4-0.7   c1.3-3.9,3.1-7.4,5.7-10.5c0.8-0.9,1.5-1.9,2.3-2.8c2-2.3,4.7-3.7,7-5.6c1.5-0.3,2.6-1.6,4.3-1.7c0.2,0.1,0.3,0.1,0.4,0.3   c-1,0.6-1.9,1.2-2.9,1.8c-1.5,0.8-1.9,1.1-2,2c0.8-0.7,1.9-0.7,2.7-1.3l0,0c0.3,0,0.7,0.1,0.9-0.4c0.7-0.3,1.4-0.8,2.2-0.9   c0.3,0.1,0.8-0.2,1,0.4c-0.3,0.3-0.7,0.6-1,0.8c-0.5,0.4-1.2,0.6-1.5,1.1c0,0.4,0.2,0.6,0.5,0.7c0.4-0.4,1.1-0.6,1.4-1.2   c2.1-0.9,4.1-1.9,6.2-2.8c0.3,0,0.6,0,0.9-0.1c0.2,0,0.3,0.1,0.4,0.3c-0.5,0.3-1.1,0.5-1.6,0.8c-1.1,0.6-2.4,0.9-3,2.1   c-0.4,0.1-0.8,0-0.8,0.6c0.4-0.1,0.7-0.2,0.8-0.6c0.4,0.1,0.9-0.2,1.4,0.3c-1.3,0.8-2.5,1.5-3.7,2.3c-1.9,1.2-3.8,2.5-5.4,4.1   c-0.4,0.4-0.9,0.7-0.5,1.5c1.6-0.9,2.8-2.3,4.5-2.9c0.3,0.1,0.8-0.1,1,0.4c0,0.1,0,0.2,0,0.3c-0.1,0.4-0.5,0.5-0.8,0.7   c-0.6,0.4-1.3,0.8-1.8,1.4c-0.3,0.3-0.4,0.6,0,1c0.7-0.6,1.5-1.1,2.2-1.7c0.5-0.4,1.3-0.4,1.6-1.1c1.5-1,3-2.1,4.6-3.1   c0.3-0.2,0.6-0.4,1-0.4c0.2,0.8-0.6,0.8-0.9,1.2c-1.8,1.4-3.6,2.8-5.5,4c-1.6,1.1-3.3,2.1-4.8,3.2c-0.3-0.1-0.5,0-0.7,0.3   c-0.7,0.4-2.5,1.9-3.1,2.6c0.1,0.1,0.3,0.3,0.5,0.5c0.5-0.9,1.4-1.2,2-1.9c0.9-0.1,1.5-0.7,2.2-1.3c0.9-0.6,1.8-1.1,2.8-1.7   c2-1.2,3.8-2.6,5.7-3.9c0.2,0.1,0.4,0.3,0.3,0.4c-0.5,1-0.2,2.1-0.4,3.1c-0.1,0-0.2-0.1-0.3-0.1c-0.3-0.4-0.8-0.6-0.8-1.3   c-1,0.5-1.9,0.9-2.7,1.6c-0.3,0.2-0.7,0.3-0.9,0.5c-1.8,1.8-4,3.1-5.9,4.8c-0.4,0.2-0.5,0.5-0.2,0.8c0.2,0.2,0.6,0.3,0.7-0.2   c2.4-1.8,4.8-3.4,6.9-5.6c0.4,0.1,0.5-0.3,0.7-0.4c0.2-0.1,0.4-0.2,0.5,0.1c-0.8,1.2-1.9,2.1-2.9,3.2c-0.5,0.5-1.3,0.6-1.7,1.3   c-0.6,1.1-1.6,2-2.5,2.9c0,0.4,0.1,0.7-0.1,0.9c-1.3,1.7-2.3,3.7-3.9,5.2c-1-0.1-2,0.3-2.9,0.6c-1.4,0.4-2.8,0-4.2,0.6   c0-0.3-0.1-0.5-0.1-0.7c0.2-0.2,0.4-0.4,0.6-0.7c-0.6-1-1,0-1.4,0.2c-0.2,0.1-0.4,0.1-0.6,0.1c0-0.2-0.1-0.4-0.1-0.6   c0-0.2,0-0.5,0.1-0.6c1-1.4,1.6-3.1,2.5-4.6c0.8-0.4,0.8-1.3,1.3-1.9c0.7-0.8,1.4-1.7,2.1-2.4c0.3-0.3,0.5-0.6,0.1-1   c-0.5,0-0.6,0.4-0.9,0.6c-1.2,1.1-1.9,2.5-2.9,3.7c-0.2-0.1-0.4-0.2-0.7-0.3c-0.4-0.1-0.5,0.1-0.7,0.4c-0.3,0.4-0.6,0.8-1.1,1.1   c0-0.3,0-0.5,0-0.6c0.7-0.6,0.7-1.7,1.5-2.3c1.2-1.3,2.3-2.5,3.5-3.8c0.2-0.2,0.4-0.5-0.1-0.9c-1.4,1.2-2.7,2.5-3.8,4.1   c-1.2,1.3-2,2.8-3,4.3c-0.3,0.5-0.6,0.9-1,1.4C403.9,152.9,403.9,152.8,403.8,152.6z M407.5,143c0.5,0.1,0.7-0.2,0.9-0.5   c0.6-1,1.5-1.7,2.4-2.4c1.3-1.1,2.6-2.2,3.9-3.4c0.4-0.4,0.8-0.8,1.2-1.2c0.4-0.4,0.7-0.8,0.7-1.4c-0.6-0.1-1,0.2-1.4,0.6   c-1.2,1-2.4,2-3.5,3c-1.4,1.3-2.7,2.7-3.8,4.3C407.4,142.2,407.1,142.5,407.5,143z" />
	<path fill="#F6DAC8" d="M430,137c0.4-0.4,1.1-0.4,0.9-1.2c0.3-0.5,1.2-0.2,1.2-1c-0.1-0.1-0.2-0.2-0.3-0.3   c-0.2-0.1-0.4-0.1-0.5-0.2c-0.2-0.1-0.6,0.1-0.7-0.3c0.4-0.3,0.8-0.6,1.3-0.9c0.8-0.4,1.6-0.8,2.1-1.6c0-0.2,0-0.4,0-0.7   s0.2-0.6-0.2-0.9c-0.8-0.1-1.5-0.1-2.2,0.2c-0.1-0.2-0.2-0.3-0.4-0.3c0-0.1,0.1-0.2,0.1-0.3c0.1,0.1,0.2,0,0.3,0   c0.5,0,0.9,0.1,1.3-0.3l0,0c0.4,0,0.8,0.1,1.2-0.1c0-0.2,0-0.5,0.1-0.7c0.3-0.3,0.8,0,0.9-0.4c0.5-0.2-0.3-0.5,0.2-0.8   c1.6,0,3,1,4.4,1.9c1,0.6,1.9,1.3,3,1.6c0.3,2.4,0.8,4.7,0.9,7.1c-2.6,1.7-3.9,4.9-2.7,6.7c0.6-0.7,0.5-1.5,0.8-2.3   c0.3-0.9,0.9-1.4,1.6-2c0,0.3,0.1,0.6,0.1,0.8c-1.4,5.2-2.7,10.4-4.1,15.5c-0.8,2.8-1.8,5.6-2.7,8.4c-0.1,0.2-0.2,0.4-0.4,0.5   c-0.2,0-0.3-0.2-0.4-0.4c0.3-0.8,0.6-1.5,1-2.3c0.2-0.4,0.5-0.9,0.2-1.2c-0.6-0.8-0.2-1.7-0.5-2.5c-0.2-0.6-0.1-1.2,0.2-1.8   c0.5-0.9,0.6-1.9,0.7-3c0-0.7-0.1-1.3-0.6-1.8c-0.5,0.1-0.6,0.3-0.5,0.7c0.3,0.9,0,1.7-0.2,2.6c-0.2,0.9-0.9,1.6-1,2.6   c-0.2,0.1-0.3,0.2-0.5,0.3c-0.1-0.5-0.3-0.9-0.4-1.3c0.5-1.3,0.9-2.6,1.3-3.8s0.6-2.4,0.5-3.6c-0.1-1-0.5-1.2-1.5-0.9   c0.1,0.8,0.4,1.6,0.4,2.4c-0.1,2-1,3.7-1.9,5.5c-1-0.1-1.6,0.5-2.2,1.1c-0.3,0.4-0.7,0.8-1.2,0.2c0.1-0.1,0.2-0.2,0.3-0.3   c1.6-1.4,3-3,4.2-4.7c0.3-0.5,0.8-1,0.4-1.7c-1,0.4-1.1,1.6-2,2.1c-0.6-0.1-1.3-0.1-1.3-1c1-1.7,2-3.4,2.1-5.3   c-0.4-0.4-0.6-0.3-0.9-0.3c-0.2-0.1-0.3-0.2-0.5-0.3c-0.3-0.1-0.4,0-0.4,0.3l0,0c-0.5,0.2-1,0.5-1.3,0.9c-0.6,0.7-1.1,1.6-1.9,2.1   c-0.3,0-0.5,0.1-0.7,0.3c-0.7,0.6-1.5,1.1-2.3,1.4c-0.3,0.1-0.3-0.1-0.4-0.2c1.3-1.4,2.7-2.9,4-4.3c0.5-0.6,1.2-1.2,1.1-2.1   c-0.1-0.5-0.6-0.2-0.8-0.4c0.1-0.4,0.5-0.5,0.5-0.9c0-0.3,0-0.5-0.3-0.6c-0.4-0.2-0.3-0.5-0.3-0.8c0.2-1-0.1-2.1,0.4-3.1   c0.1-0.2,0-0.4-0.3-0.4c0.4-0.6,1.3-0.7,1.5-1.4C430.5,137.1,430.2,137.1,430,137z" />
	<path fill="#D8C0A0" d="M429.7,158.3c0.5,0.6,0.9,0.2,1.2-0.2c0.6-0.6,1.3-1.2,2.2-1.1c-0.7,1.6-1.7,3.1-2.5,4.7   c-0.3,0.9-1.4,1.4-1.1,2.5c1.1-0.1,1.1-1,1.4-1.6c1.2-1.1,1.8-2.6,2.8-3.9c0.3,0.4,0.1,0.8,0.1,1.1c-0.4,1.5-1,2.8-2.1,3.9   c-0.2,0.2-0.3,0.5-0.4,0.8c-0.4,0.4-0.7,0.9-1,1.3c-0.3,0.3-0.3,0.7,0,1.2c0.7-0.5,1-1.2,1.3-1.9c0.3-0.3,0.5-0.7,0.8-0.8   c1.1-0.3,1.4-1.2,1.9-2.1c0.4-0.8,0.8-1.5,1.5-2.3c0.2,0.7,0,1.3-0.1,1.8c-0.3,1.2-1,2.2-1.4,3.3c-0.5,1.3-1.3,2.4-2.5,3.3   c0-0.2,0-0.4-0.2-0.6c-1,0-1.6,0.8-2.4,1.1c0.1-0.2,0.2-0.5-0.1-0.8c-0.8,0.1-1.7,0.2-2.5,0.6c-0.6,0.3-1,0.7-1.2,1.3   c-0.1,0.3-0.2,0.7-0.4,1c-0.9,1.8-1,3.6,0,5.3c0.3,0.5,0.6,1,0.9,1.6c2.1,0.2,3.7,2.1,5.9,2c0.5,0.7,0,1.3-0.1,1.8   c-0.8,0.5-1,1.3-1.3,2.1c-0.6,0.5-1.3,1-1.9,1.6c-1.5,1.5-3.4,1.6-5.3,1.2c-0.1,0-0.2-0.2-0.4-0.3c0-0.3,0.2-0.5,0.4-0.6   c0.7-0.4,0.6-1.2,1.6-1.7c-1.2-0.3-1.6,0.4-2.1,0.9c-0.3,0.3-0.7,0.6-1,1c-1-0.1-1.8-0.6-2.8-0.9c0.5-1.7,2.5-1.8,3-3.4   c-0.5,0-1.1-0.1-1.6-0.1c-0.7,0.4-1.4,0.8-2.1,1.3c-0.3,0-0.5,0-0.5-0.3c0.2-0.5,0.9-0.4,1-0.8c0.2-0.4-0.1-0.5-0.1-0.8   c0.7-1.2,1.8-2.1,2.5-3.4c0.7-1,1.9-1.6,2.2-3c-1.1,0.4-1.9,1.2-2.5,2.4c-1.1,1.3-2.3,2.7-3.4,4c-0.4,0.4-0.2,0.9-0.4,1.4   c-0.4,0.3-0.7,0.6-1.1,1c-0.8-0.3-1.4-0.6-1.8-1.4c-0.5-0.8-1.1-1.3-2-1.6c-0.5-0.2-1-0.5-1.5-0.8c0.6-1.7,1.6-3.3,2.4-4.8   c2-3.5,3.8-7.1,6.4-10.3c0.2-0.3,0.5-0.5,0.8-0.8c0.4,0.3,0.6,0.8,1.2,0.6l0,0c-0.3,0.8-1.4,1-1.5,2c0.2,0.2,0.5,0.3,0.6,0.2   c0.8-0.8,1.9-1.2,2.5-2.2c1-0.7,2-1.3,2.9-2.1C426.8,160.6,428.3,159.5,429.7,158.3z M426.9,183.2c1.1-0.8,2.3-1.5,2.8-2.9   c-0.2-0.3-0.3-0.5-0.7-0.5c-0.8,0.9-1.6,1.8-2.5,2.7c-0.7,0.5-1.3,1.1-1.8,1.7c0.2,0.3,0.4,0.5,0.7,0.4   C425.9,184.2,426.5,183.8,426.9,183.2z M417.8,169.2c-1.7,3.3-3.5,6.4-5,9.5c0.3,0.6,0.6,0.9,1.1,0.7c2.3-2.9,3.9-6.2,5.4-9.8   C418.7,170,418.4,169.5,417.8,169.2z M421.7,183.9c0.2,0.3,0.6,0.3,0.8,0.1c0.6-0.6,1.5-0.9,2.2-1.4c1-0.6,1.6-1.4,2.4-2.2   c0.3-0.4,0.3-0.8-0.2-1.4c-1.5,1.7-3.3,3-5,4.4C421.7,183.5,421.6,183.7,421.7,183.9z" />
	<path fill="#F6D9C8" d="M463.6,172.2c0-1.7,0-3.4,0-5.1c0-1.2,0-2.4-0.2-3.6c-0.2-1-0.1-2.1,0.1-3.1c0.6-3.4,1.2-6.8,1.5-10.3   c0.1-0.6,0.2-1.2,0.4-1.9c1.4,0.6,2.4,1.6,3.9,2c0,1-0.2,2-0.9,2.9c-0.9,1.1-1.6,2.3-2.7,3.2c-0.3,0.2-0.5,0.5-0.4,0.9   c1,0.6,1.8,0.6,2-0.3c0.4-1.5,1.6-2.4,2.2-3.7c0.7-0.2,1.2,0.3,1.8,0.3c0.4,0.3,0.7,0.6,0.8,1.1c0.1,1.4,1,2.2,2.1,2.9   s2.4,1.2,3.2,2.4c0.1,0.5,0.2,1.1,0,1.7c-2.9,2.4-5.7,4.9-8.3,7.6c-1.6,1.7-3.5,3.1-5.3,4.9C463.6,173.4,463.6,172.8,463.6,172.2z" />
	<path fill="#D7C0A0" d="M429.3,143.3c0.3,0,0.4,0.3,0.3,0.6c0,0.4-0.5,0.5-0.5,0.9c0.2,0.3,0.8-0.1,0.8,0.4c-0.5-0.1-0.8,0-1,0.4   c-0.9,1.4-2.1,2.5-3.2,3.7c-1.6,1.7-3.2,3.4-4.8,5.2c-0.5,0.5-1.1,1.1-1.6,1.6c-0.3,0.3-0.3,0.6,0.2,1c0.7-0.7,1.4-1.5,2.1-2.3   c0.6-0.6,1.3-1.2,1.9-1.7c0.5-0.5,0.8-1.2,1.5-1.5c0.1,0.2,0.1,0.4,0.4,0.2c0.8-0.4,1.6-0.9,2.3-1.4c0.2-0.2,0.4-0.3,0.7-0.3   c-1.8,2.2-3.8,4.1-5.9,5.8c-1.9,1.6-3.6,3.6-5.9,4.7c-0.2,0.1-0.3,0.3-0.2,0.6c0.6,0.6,1.1,0.1,1.6-0.1c2-1.1,3.9-2.2,5.6-3.8   c3-2.8,5.9-5.8,8.1-9.3c0.2-0.3,0.5-0.6,0-0.9c0-0.3,0.2-0.4,0.4-0.3c0.2,0.1,0.3,0.2,0.5,0.3c-0.1,0.1-0.2,0.3-0.2,0.4   c-0.2,2-1.3,3.5-2.4,5.1c-1.8,2.5-4,4.7-6.2,6.9c-0.7,0.7-1.4,1.4-1.9,2.3c-0.3,0.1-0.5,0.3-0.8,0.1s-0.8-0.3-1,0.2   c-2.7,2-4.5,4.8-6.2,7.6c-1.1,1.8-2.1,3.7-3.1,5.5c-0.6,1-1.1,2.1-1.3,3.3c-1.2-0.5-1.7-1.8-2.8-2.4c-0.1-0.5-0.5-0.8-0.9-0.9   c-0.1-0.2-0.2-0.3-0.3-0.4c-0.1-0.6,0.4-0.7,0.6-1.1c-0.1-2.6,1-4.9,2.3-7.1c0.4-0.7,0.8-1.3,1.2-2c0.8-1.1,1.7-2.2,2.6-3.2   c0.3-0.3,0.7-0.6,0.3-1.2c-1.1,0.5-2.2,1.7-3.3,3.7c-2.3,2.6-3.8,5.8-4.2,9.3c-0.6-0.3-0.6-0.9-0.8-1.4c1.6-3.5,2.7-7.1,5-10.1   c-0.4-0.5-0.7-0.3-1-0.3c0-0.9,0.7-0.9,1.3-0.9s1.2,0,1.6-0.4c1-0.8,2.2-1,3.3-1.6l0.1,0.1c-0.1,0.8-1,1.1-1,1.8   c-0.6,0.8-1,1.8-1.4,2.6c0,0.4,0.5,0.5,0.5,0.7c-0.8,1.4-1.5,2.6-2.1,3.8c-1.5,2.1-2.9,4.4-4,6.7c0,0.1,0.1,0.3,0.1,0.4   c0.1,0,0.3,0,0.3,0c1.5-2,2.7-4.2,3.9-6.4c0.8-1.1,1.3-2.3,2.1-3.3c0.5-0.6,0.6-1.3,0.2-1.9c0-0.9,1-1.2,0.8-2   c1-1.1,1.9-2.3,2.8-3.5c0.4-0.5,0.7-1,1.2-1.4c4.6-3.4,8.2-7.8,11.5-12.3C429.4,143.7,429.3,143.5,429.3,143.3z" />
	<path fill="#E1C7B6" d="M442.3,129.1c-1.2-0.5-2.1-1.2-3.1-1.8c0.1-2.4-0.2-4.8-0.5-7.2c-0.6-4.1-0.7-8.1,0.1-12.2   c0.5-2.4,0.6-4.8,0.8-7.2c0.2-2.2,0.3-4.4,0.3-6.7c0.1-2.3,0.3-4.5,0.5-6.8c0.1-1-0.1-2,0-3.1c0.5-4.3,0.6-8.7,0.2-13   c-0.1-1.7-0.1-3.3-0.3-5c-0.2-2-0.8-3.9-1.2-5.9c-0.1-0.4-0.2-0.8-0.1-1.2c1.4,0.9,2,2.1,2.1,3.8c0.3,3.6,0.7,7.2,1.1,10.8   c0,0.5,0.1,1,0.1,1.5c0,4,0.4,8.1,0.9,12.1c0.2,1.8,0,3.5-0.3,5.2c-1.1,5.8-1.7,11.6-1.4,17.4c0.1,1.3-0.3,2.6-0.5,3.8   c-0.5,4.9-0.3,9.7,1.2,14.4C442.4,128.4,442.6,128.7,442.3,129.1z" />
	<path fill="#F4D7C6" d="M470.2,515.6c0-0.2,0-0.4,0.1-0.6c0.5,0.3,0.1,0.8,0.3,1.2c0,0.3,0,0.6,0,0.9c-0.5,0.7-0.2,1.5-0.2,2.2   c-0.3,2-0.5,3.9-0.8,5.8c-0.4,2.7-0.4,5.3,0,8c0.2,1.1,0.1,2.3,0,3.4c-0.2,1.8-0.2,3.5-0.3,5.3c0,2.2,0,4.5,0,6.7   c0,2.3,0.4,4.5,0.5,6.8c0.1,2.1,0.5,4.1,0.3,6.2c-0.1,1.3,0.3,2.5,0.6,3.8c0,0.2,0.1,0.3,0.2,0.4c2,1.2,3,3.5,5,4.7   c2.1,1.2,3.8,3,5.9,4.5c-1,0.1-1.7-0.4-2.4-0.8c-0.9-0.5-1.8-0.9-2.8-1.3c-3.6-1.3-5.8-4-7.5-7.2c-0.2-0.4-0.2-0.8-0.2-1.2   c0.3-2.4-0.3-4.7-0.7-7.1c-0.4-2.8-0.9-5.5-1.3-8.3c-0.2-1.3,0.2-2.6,0.3-3.8c0.2-1.6,0.3-3.2,0.3-4.8c-0.1-3.6,0.1-7.2,0.3-10.7   c0.2-3.5,0.6-6.9,1.5-10.3c0.3-0.9,0.4-1.8,0.6-2.7C470.4,516.6,470.2,516.1,470.2,515.6z" />
	<path fill="#F9E2C3" d="M404.3,180.3c0,0,0.1,0,0.2,0c0.2,0.1,0.6-0.1,0.7,0.3c-0.2,0.2-0.4,0.4-0.6,0.6c-0.4-0.1-0.6,0.3-0.9,0.3   c-1.5,0.1-2.7-0.5-3.7-1.5c0.5-1.1,1.2-2.1,2.2-2.8c-0.5-0.8-1-1-1.6-0.4c-0.9,0.3-1.2,1.3-2.1,1.6c-0.4,0-0.8-0.1-0.7-0.7   c0.1-0.4,0.5-0.6,0.7-0.9c1-0.5,1.8-1.4,2.1-2.3c-1.4,0.2-1.9,1.4-2.8,1.9c-0.1,0-0.1,0.1-0.2,0.1c-0.8,0-1.1-0.4-1-1.2   c0-0.3,0-0.5,0-0.8c0.7-1,2-1.4,2.8-2.3c-0.1-0.6-0.5-0.6-0.8-0.4c-0.4,0.2-0.7,0.5-1,0.7c-0.5,0.3-0.9,0.8-1.4,0.9   c-0.9-0.4-0.9-1.1-0.7-2c0.3-0.8,1.2-1.1,1.6-1.8c2.1-1.1,4.9-1.4,6.2-0.5c-1.4,0.3-2.7,0.1-3.9,1c0.7,0.8,1.4,0,2,0   c0.6,0.1,1.3-0.1,2,0.3c0,1-0.6,1.8-0.8,2.7c0.6,1.1,1.8,2,2.2,3.3c0,0.6-0.9,0.6-0.7,1.2c-0.5,0.3-0.8,0.6-0.5,1.2   c0.5,0,0.7-0.2,0.7-0.6c0.4-0.3,0.8-0.5,1.3-0.8c0,1-0.7,1.3-1.2,1.8C403.7,179.8,403.7,180.1,404.3,180.3z" />
	<path fill="#EBD98F" d="M500.3,257.6c-0.8,0-0.5-0.6-0.6-1.1c-0.9-0.5-2-0.7-3.1-0.8c-0.5,0-1.1,0.3-1.5-0.3c1-0.1,2.1,0.4,2.7-0.8   c-0.1-0.3-0.2-0.5-0.6-0.6c-1.3,0.7-2.5-0.7-4-0.4c0,0.3,0,0.5,0,0.6c-0.7-0.3-0.2-0.7-0.1-1.1c-0.3-0.4-0.6-0.7-0.9-1   c0.5-1.1,0.5-1.1,1.8-0.7c0.7-1.3,1.9-1.7,3.4-1.9c2.6-0.3,5.3-0.4,7.6-1.8c-0.4,2.3-1.3,4.4-2.8,6.2c-0.5,0.6-1.1,1.3-1.6,1.9   C500,256.2,499.9,256.9,500.3,257.6z" />
	<path fill="#E0C7B6" d="M463.6,172.2c0,0.6,0.1,1.2,0.1,2c1.8-1.8,3.7-3.2,5.3-4.9c2.6-2.7,5.5-5.1,8.3-7.6c0.1,0.6-0.2,1-0.6,1.3   c-1,1-2,2-2.9,3c-0.6,0.7-1.5,1.1-2.1,1.7c-0.6,0.6-1.2,1.1-1.6,1.8c-0.5,0.8-1,1.5-1.7,2.1c-1.1,1-1.7,2.3-2.1,3.7   c-0.7,2.2-0.9,4.5-0.9,6.7c0,2.8-0.5,5.6-0.4,8.4c0,0.2,0,0.4-0.2,0.6c0-1.9-1-3.6-1.4-5.3c-0.1-0.3-0.2-0.6-0.3-0.9   c-0.2,0-0.4-0.1-0.5-0.1c0.1-1.3,0.3-2.6,0.4-3.8c0.3-2.7,0.5-5.4,0.6-8.1C463.4,172.6,463.5,172.4,463.6,172.2z" />
	<path fill="#F2D6C5" d="M491.4,578.8c3.8,0.7,7.5,1.8,11.2,3c1.1,0.3,2.2,0.6,3.1,1.3c0.7,0.5,1.7,0.4,2.6,0.3   c0.9-0.2,1.8-0.3,2.8-0.2c0.8,0.7,0.8,1.6,0.8,2.7c-1.8-0.2-3.6-1-5.4-0.5c-1.7-1.7-3.9-1.8-6.1-2.3c-0.3-0.7-1-0.8-1.7-1   c-2.8-0.7-5.5-1.7-8-3.3C490.9,578.8,491.1,578.8,491.4,578.8z" />
	<path fill="#EFD9BA" d="M393.6,167.3c1.5-0.8,3.1-1.5,4.9-1.5c0.5,0,1.1,0.1,1.6-0.3c-1.7-1.1-6.1-0.3-8.3,1.7   c-0.1-0.3-0.1-0.5-0.2-0.7c-0.4-0.4-0.9-0.4-1.4-0.4c-0.3,0-0.8,0.1-0.9-0.3c1.6,0.1,3-0.2,4.2-1.3c0.3-0.2,0.5-0.3,0.8-0.2   c-0.1,0.3-0.6,0.4-0.5,0.8c0.9,0.2,1.6-0.4,2.4-0.5s1.6-0.3,2.4-0.5c0.2-0.6-0.3-0.7-0.4-1c0.6-0.3,1.1-0.1,1.7,0   c1,1.4,2,3,2.5,4.9c-0.7,0-1.5,0.2-2.1,0c-1.5-0.6-2.6,0.1-3.6,1c-0.2,0.2-0.3,0.4-0.5,0.6c-0.4,0.3-0.8,0.6-1.2,1   c-0.1,0-0.3,0-0.5-0.1C394.1,169.3,393.6,168.4,393.6,167.3z" />
	<path fill="#D4BE9E" d="M405.1,180.7c-0.1-0.4-0.4-0.3-0.7-0.3c0.5-0.5,0.9-0.9,1.5-1.2c0.7,0.2,0.4,1.1,1.2,1.2   c0.6-0.6-0.1-1.1-0.1-1.7c0.6,0.1,0.7,0.6,1,0.9c0.3,0.4,0.7,0.8,1,1.1c-0.2,1.8-0.7,3.3-1.8,4.7c-0.3,0.4-0.1,0.9-0.6,1.2   c-0.5,0.1-0.2,0.6-0.5,0.9c-0.3-0.1-0.6-0.5-0.8,0.2c-1.1-0.1-1.1-0.1-2.1-1.1c-0.3-1.1,0.2-2.2,0.7-3.1c0.5-1,1.1-2.1,2-2.8   C405.6,180.2,405.4,180.8,405.1,180.7z" />
	<path fill="#F0D4C3" d="M422.4,34.2c0-0.4-0.3-0.7-0.7-0.9c0.1,0,0.1-0.1,0.2-0.1c1.7,0.1,3.2,0.6,4.8,1.1c0.2,0.1,0.5,0.2,0.6,0.4   c1.2,1.6,3.2,2.3,4.5,3.7c0.1,0.1,0.4,0.2,0.5,0.3c0.4-0.3,0.8-0.7,0.7-1.1c-0.2-1.9,0.6-3.5,0.8-5.3c0.1-1.2,0.2-2.5,0-3.7   c-0.1-0.8-0.1-1.5-0.1-2.5c0.3,0.4,0.5,0.6,0.5,1c0,2,0.5,3.9,0.2,6c-0.2,1.1-0.1,2.3-0.1,3.5c0,1.4,0.1,2.8-0.5,4.2   c-0.3,0.1-0.8,0.1-1.2-0.1c-1.4-0.6-2.9-1.3-3.6-2.5C427.4,35.6,425,34.9,422.4,34.2z" />
	<path fill="#D4BD9E" d="M393.6,167.3c0.1,1.1,0.5,2,0.7,3.1c0.2,0,0.4,0,0.5,0.1c0,0.4-0.7,0.6-0.5,1.1c0.2,0.3,0.5,0.1,0.8,0.1   c-0.2,0.8-0.2,1.5,0.7,2c-0.8,0.6-1.7,1.3-2.6,2c-0.1-1.1,0.4-1.9,0.8-2.7c-0.3-0.6-0.7-0.8-1.2-0.3c-0.3,0.3-0.5,0.8-0.7,1.2   c-0.3,0.4-0.3,1-0.8,1.3c-0.5-0.4-0.5-1-0.7-1.4c0.3-1.3,1.6-1.9,2-3.1c-1-0.7-1.3,0.2-1.8,0.5c-0.5-1.8-0.4-2.3,0.9-3.4   c0.1,0.1,0.2,0.3,0.4,0.5C392.6,168.1,392.9,167.4,393.6,167.3z" />
	<path fill="#EDD2C1" d="M450.7,23.3c-0.2,0-0.4-0.2-0.4-0.4c-0.4-2.8-1.4-5.5-2.1-8.2c-0.5-1.9-0.2-3.8-0.2-5.7   c0-0.2,0.1-0.4,0.4-0.5c0.3,0.2,0.4,0.6,0.5,1c0.1,1.2,0.3,2.4,0.8,3.6c0.4,0.9,0.2,1.9,0.4,2.9c0.2,0.9,0.3,1.8,0.5,2.7   C451,20.2,451.1,21.8,450.7,23.3z" />
	<path fill="#F6E0C2" d="M394.3,164.2c-0.3-0.1-0.6,0-0.8,0.2c-1.2,1.1-2.7,1.4-4.2,1.3c-0.1-0.1-0.3-0.2-0.3-0.3   c-0.1-0.2,0-0.4-0.1-0.6c0.7-0.4,1.2-1,1.6-1.6c1-1.3,2.3-2.2,4-2.4c0.9-0.1,1.8-0.6,3-0.1c-2.1,0.5-4,1.1-5.8,2.4   c1.6-0.1,2.8-0.8,4-1c0.5,1,0.4,1.3-0.3,1.7C395,163.9,394.7,164.1,394.3,164.2z" />
	<path fill="#EAD0BD" d="M429,168.8c0.8-0.4,1.4-1.1,2.4-1.1c0.2,0.1,0.1,0.4,0.2,0.6c-0.6,0.6-0.2,1.1,0.3,1.6   c0,0.2-0.2,0.2-0.3,0.3c-1.3-0.4-2.5-0.5-3.8,0c-0.9,0.3-1.2,0.7-1.1,1.6c0.1,1.6,0.6,3.1,1.4,4.4c0.7,1.1,1.8,1.7,3.2,1.5   c0.3,0,0.5,0,0.7,0c0.3,0.3,0.2,0.5,0.1,0.8c-0.9,0.3-1.7,0.2-2.6-0.3c-1.2-0.7-2.3-1.4-3-2.6c-0.2-0.3-0.5-0.6-0.5-1   c0-1.6-0.2-3.2,0.4-4.6C427.1,169.1,428.1,169.2,429,168.8z" />
	<path fill="#D7C0A0" d="M408.8,156.6c0,0.2,0.1,0.4,0.1,0.7c1.4-0.6,2.8-0.2,4.2-0.6c0.9-0.3,1.9-0.8,2.9-0.6   c-0.8,0.7-0.8,1.9-1.6,2.5l-0.1-0.1c0-0.3-0.3-0.3-0.5-0.3c-1.3,0.5-2.6,0.7-4,0.6c-0.4,0.9-1,1.2-1.8,1.2c-0.4,0-0.8,0.1-1.1,0.3   C407.5,159.1,407.8,157.7,408.8,156.6z" />
	<path fill="#D6BF9F" d="M399.8,180.1c1,1,2.2,1.6,3.7,1.5c-0.1,0.3-0.4,0.6-0.3,1c0,0.1,0,0.1,0,0.1c-1.1,1.6-2.5,1.8-4.3,1.1   c-0.8-0.3-1.5-0.6-2.2-1c-0.3-0.2-0.4-0.4-0.3-0.8c0.4-0.1,0.5,0.4,1,0.4c0.9-0.5,1.5-1.4,2.1-2.4   C399.6,180.1,399.7,180.1,399.8,180.1z" />
	<path fill="#F2D5C4" d="M428.7,174.8c1-1.1,1.4-2.3,1.1-3.8c0.7-0.1,1.2,0,1.8,0.3c0.1,1.1,0.5,2.2,1.3,3c0.1,0.7-0.1,1.3-0.4,1.8   C430.8,176.9,429.7,176.4,428.7,174.8z" />
	<path fill="#CEB99B" d="M408.9,150.2c0.1,0.4,0,0.7-0.3,1c-2.1,3.1-3.7,6.5-5.6,9.8c-0.3,0.6-0.6,1.2-1.2,1.6   c-0.3-0.9,0.2-1.4,0.5-2.1c0.3-0.7,0.8-1.3,0.7-2.1c0-0.4,0.3-0.6,0.5-0.9c1-1.7,2.4-3.2,3.3-5.1c0.4-0.3,0.6-0.6,0.9-1   C408,150.9,408.2,150.4,408.9,150.2z" />
	<path fill="#CEB89A" d="M407.2,155.7c0,0.2,0.1,0.4,0.1,0.6c0.2-0.1,0.4-0.1,0.6-0.1c-1.8,2.9-3.1,6.1-4.3,9.6   c-0.5-0.9-0.8-1.4-1.1-2.2C404.1,161,405.7,158.4,407.2,155.7z" />
	<path fill="#F6DFC0" d="M407,160.5c0.4-0.2,0.7-0.3,1.1-0.3c0.8,0,1.5-0.4,1.8-1.2c1.4,0.1,2.7-0.1,4-0.6c0.2-0.1,0.4,0,0.5,0.3   c-1.1,0.5-2.3,0.8-3.3,1.6c-0.4,0.4-1,0.4-1.6,0.4s-1.3,0-1.3,0.9c-0.3,0.9-1.2,1.6-1.6,2.5c-0.4-0.1-0.5-0.5-0.6-0.9   C406.2,162.1,406.5,161.2,407,160.5z" />
	<path fill="#DFC5B4" d="M511.6,587.4c0.2,1.6,0,1.9-1.4,3c-0.3-0.9-1.1-1.5-2-1.9c-0.1-1-0.8-1.4-1.6-1.8   C508.3,587,510,586.7,511.6,587.4z" />
	<path fill="#2D2923" d="M394.3,164.2c0.4-0.2,0.8-0.3,1.1-0.5c0.7-0.4,0.8-0.7,0.3-1.7c0.8-0.1,1.5-0.8,2.4-0.6   c0.3,0.8-0.5,0.7-0.7,1.1c0.2,0.2,0.4,0.1,0.6,0.1c0.6,0.2,1.3-0.4,1.8,0.4c-0.6-0.1-1.1-0.2-1.7,0c0.1,0.3,0.6,0.4,0.4,1   c-0.7,0.2-1.5,0.4-2.4,0.5c-0.8,0.1-1.5,0.7-2.4,0.5C393.7,164.6,394.2,164.5,394.3,164.2z" />
	<path fill="#211D1A" d="M443.4,141.1c0-0.3,0-0.5-0.1-0.8c-0.7,0.6-1.3,1.1-1.6,2c-0.3,0.7-0.2,1.6-0.8,2.3   c-1.2-1.8,0.2-4.9,2.7-6.7c0,0.9,0,1.7,0,2.6C443.7,140.8,443.7,141,443.4,141.1z" />
	<path fill="#D2BB9C" d="M396.4,174.7c0,0.3,0,0.5,0,0.8c-0.1,0.8,0.3,1.2,1,1.2c-0.8,0.8-2,1.3-2.9,2c-0.5-0.1-1-0.2-1.3-1   C393.7,176.3,395.4,175.9,396.4,174.7z" />
	<path fill="#CEBCA2" d="M405.4,187.6c0.1-0.6,0.5-0.3,0.8-0.2c0.3-0.2,0-0.8,0.5-0.9c0,0.2,0,0.4,0.3,0.6c0.7-0.8,1.8-1.1,2.3-2.1   c0.2-0.3-0.2-0.6-0.2-1c0.2-0.5,0.5-1.1,1.2-1.7c0.1,1.1,0.2,2,0.2,2.9c0,1.2-1.1,1.6-2,1.9C407.5,187.7,406.5,187.9,405.4,187.6z" />
	<path fill="#C8B59B" d="M424.8,131.3c-0.1-0.6-0.6-0.3-1-0.4c3.1-1.7,6.3-3,9.8-3.5c-0.8,0.6-1.9,0.7-2.8,1.1   c-1,0.4-2.1,0.8-3.1,1.3C426.7,130.2,425.7,130.8,424.8,131.3z" />
	<path fill="#CCB597" d="M397.6,177.9c-0.1,0.5,0.3,0.7,0.7,0.7c-0.9,1-1.8,1.9-2.7,2.9c-0.8-0.4-0.8-0.4-1.3-1.2   C395.4,179.5,396.5,178.7,397.6,177.9z" />
	<path fill="#C1AC91" d="M403.8,152.6c0.1,0.2,0.1,0.3,0.3,0.4c-0.5,1.7-1.2,3.2-2.1,4.8c-0.3,0.6-0.7,1.1-1.1,1.9   c-0.2-0.7-0.3-1.1,0-1.6C402.1,156.3,402.6,154.3,403.8,152.6z" />
	<path fill="#C2B29C" d="M422.8,129.6c0-0.2-0.2-0.3-0.4-0.3c2.6-1.5,5.4-2.4,8.4-2.6C428.2,127.7,425.5,128.5,422.8,129.6z" />
	<path fill="#958874" d="M409.4,149.5c1-1.2,1.7-2.6,2.9-3.7c0.3-0.2,0.4-0.6,0.9-0.6c0.4,0.4,0.3,0.7-0.1,1   c-0.8,0.8-1.4,1.6-2.1,2.4c-0.5,0.6-0.5,1.5-1.3,1.9c-0.1-0.3,0-0.6-0.4-0.7C409.4,149.7,409.4,149.6,409.4,149.5z" />
	<path fill="#D4BBAB" d="M441.6,10.7c-0.4-1.2-0.6-2.5-1.1-3.7c-0.2-0.6-0.3-1.2-0.1-1.9c0.8,0.7,1.6,1.3,1.4,2.5   c-0.1,0.4,0.1,0.8,0.2,1.2c0,0.4,0,0.9,0,1.3C441.8,10.4,441.9,10.6,441.6,10.7z" />
	<path fill="#60574B" d="M408.1,147.3c1.1-1.5,2.3-2.9,3.8-4.1c0.5,0.4,0.3,0.7,0.1,0.9c-1.1,1.3-2.3,2.5-3.5,3.8   C408.5,147.7,408.5,147.4,408.1,147.3z" />
	<path fill="#C1AC90" d="M406,162.9c0,0.4,0.1,0.8,0.6,0.9c-0.8,1.8-1.5,3.5-2.3,5.3C404.1,166.8,405.2,164.9,406,162.9z" />
	<path fill="#766B5C" d="M408.9,150.2c-0.6,0.2-0.9,0.8-1.3,1.2c-0.3,0.4-0.5,0.7-0.9,1c-0.1-0.1-0.2-0.3-0.3-0.2   c-0.4,0.3-0.8,0.7-1.4,1.2c0.4-1.4,1.1-2.3,1.9-3.2c0,0.1,0,0.3,0,0.6c0.5-0.3,0.8-0.7,1.1-1.1c0.2-0.3,0.3-0.5,0.7-0.4   C408.8,149.6,408.8,149.9,408.9,150.2L408.9,150.2z" />
	<path fill="#595246" d="M405.1,148c0.2-0.3,0.5-0.6,0.6-0.9c0.4-1.3,1.4-2.3,2.3-3.1c0.4-0.1,0.6,0.1,0.8,0.5   c-1.2,1.1-2.2,2.4-3.1,3.8C405.6,147.9,405.3,148,405.1,148z" />
	<path fill="#746858" d="M409.1,163.9c1.1-1.9,2.2-3.2,3.3-3.7c0.4,0.5,0,0.8-0.3,1.2c-0.9,1-1.9,2-2.6,3.2   C409.4,164.3,409.5,163.9,409.1,163.9z" />
	<path fill="#574F44" d="M399.8,180.1c-0.1,0-0.2,0-0.3,0c-0.2-0.6-0.6-0.3-1.2,0.1c0.8-1.6,2-2.2,3-3.1c-0.3-0.3-0.7-0.1-1-0.2   c0.7-0.6,1.1-0.4,1.6,0.4C401,178,400.3,179,399.8,180.1z" />
	<path fill="#71675A" d="M435.9,165.1c0.1,0.2,0.1,0.4,0.4,0.4c-0.7,1.3-1.4,2.6-2.6,3.6c-0.5,0.4-0.9,0.7-1.5,0.7l0,0   c0-0.4,0.1-0.5,0.4-0.7c0.4-0.2,0.8-0.5,1.2-0.9C434.7,167.2,435.4,166.3,435.9,165.1z" />
	<path fill="#665B4C" d="M420.6,176.6c0.6-1.2,1.4-1.9,2.5-2.4c-0.2,1.4-1.5,2.1-2.2,3C420.9,177,421,176.7,420.6,176.6z" />
	<path fill="#5E5447" d="M430.3,183.7c0.3-0.8,0.5-1.6,1.3-2.1c0.4,1,0.4,2-0.5,2.8C430.5,184.4,430.7,183.8,430.3,183.7z" />
	<path fill="#807260" d="M420,162c0.3-0.5,0.7-0.4,1-0.2c0.4,0.2,0.5,0,0.8-0.1c0.1,0.2,0.2,0.3,0.4,0.4c-0.3,0.7-1.3,0.9-1.3,1.8   c-0.6,0.2-0.9-0.4-1.2-0.6c0.2-0.6,1-0.4,1.2-1C420.8,161.8,420.3,162.1,420,162z" />
	<path fill="#C4B298" d="M403.2,149.8c0.1,0.3-0.1,0.6,0.4,0.7c-0.6,1.4-1.3,2.7-2,4.1c-0.1-0.1-0.2-0.1-0.3-0.1   C401.7,152.8,402.5,151.3,403.2,149.8z" />
	<path fill="#6A6153" d="M397.6,176.6c0.9-0.6,1.4-1.8,2.8-1.9c-0.3,0.9-1.1,1.8-2.1,2.3C398.2,176.6,397.9,176.7,397.6,176.6z" />
	<path fill="#675E50" d="M395.1,171.6c-0.3,0-0.6,0.2-0.8-0.1c-0.2-0.6,0.5-0.7,0.5-1.1c0.4-0.3,0.8-0.6,1.2-1   c0.1,0.4,0.4,0.3,0.7,0.4C396.3,170.5,395.4,170.8,395.1,171.6z" />
	<path fill="#88786E" d="M441.6,10.7c0.3-0.1,0.3-0.3,0.3-0.6c0-0.4,0-0.9,0-1.3c0.1,0.1,0.2,0.1,0.2,0.2c0,1.5,0.5,3,0.4,4.5l0,0   C441.6,12.7,441.8,11.6,441.6,10.7z" />
	<path fill="#847867" d="M420.7,132.1c-0.8,0.6-1.8,0.6-2.7,1.3c0.1-0.9,0.5-1.3,2-2c-0.1,0.2-0.1,0.4-0.2,0.6   C420.1,132.2,420.4,132,420.7,132.1z" />
	<path fill="#8F7E74" d="M470.5,516.3c-0.2-0.4,0.2-0.9-0.3-1.2c-0.3-1.2,0.6-2.2,0.5-3.3c0,1.4,0,2.9,0,4.3   C470.7,516.2,470.6,516.2,470.5,516.3z" />
	<path fill="#746A5B" d="M424.1,132.8c-0.3,0.6-1,0.7-1.4,1.2c-0.3-0.1-0.5-0.3-0.5-0.7c0.3-0.5,1-0.8,1.5-1.1   C423.8,132.3,423.7,132.7,424.1,132.8z" />
	<path fill="#BAA78D" d="M431.4,185.3c0.2,0.4,0.2,0.7,0,1c-0.6,0.2-1.2-0.1-2,0.1C429.9,185.5,430.7,185.5,431.4,185.3z" />
	<path fill="#796E5E" d="M405.7,175.1c0.5,0.2,0.8,0.4,0.9,0.9c-0.6,0.2,0,0.8-0.4,1.1c-0.4-0.1-0.6-0.5-0.8-0.9   C405.3,175.8,405.8,175.6,405.7,175.1z" />
	<path fill="#8D7E69" d="M422.6,184.8c0.5-0.5,0.9-1.1,2.1-0.9c-1,0.4-1,1.3-1.6,1.7C423.1,185.2,423.4,184.7,422.6,184.8z" />
	<path fill="#13110D" d="M435,128.1c-0.1,0.5-0.7,0.1-0.9,0.4c0,0.2,0,0.4-0.1,0.7c-0.4,0.3-0.8,0.1-1.2,0.1c0.3-0.4,0.7-0.8,1-1.2   C434.2,128,434.6,128.1,435,128.1z" />
	<path fill="#C2AA9C" d="M428.1,171c1,0.7,0.3,1.4,0.4,2C427.8,172,427.8,172,428.1,171z" />
	<path fill="#D2C58A" d="M467.7,201.2c-0.2,0.1-0.4,0.2-0.4,0.4c-0.5-0.4-1-0.7-1.5-1.3C466.6,200.5,467.2,200.8,467.7,201.2z" />
	<path fill="#D2C58A" d="M467.9,202.5c1,0,1.4,0.7,1.6,1.5C468.9,203.6,468.4,203.1,467.9,202.5z" />
	<path fill="#8B7A71" d="M433.4,173.2c-0.5-0.6-0.8-1.1-0.5-1.9C433.6,171.9,433.4,172.5,433.4,173.2z" />
	<path fill="#6D6355" d="M404.1,178.5c0,0.5-0.3,0.6-0.7,0.6c-0.3-0.6,0-0.9,0.5-1.2C403.9,178.1,403.8,178.4,404.1,178.5z" />
	<path fill="#D2C58A" d="M470.5,202.8c-0.1,0.2-0.2,0.4-0.4,0.3c-0.4-0.2-1-0.3-1.2-0.8C469.5,202.2,470,202.4,470.5,202.8z" />
	<path fill="#9D8C75" d="M417.5,182.2c0.1,0.3,0.3,0.3,0.5,0.3c-0.2,0.5-0.8,0.6-1.2,0.9C416.9,182.9,417.2,182.6,417.5,182.2z" />
	<path fill="#CDB7AA" d="M433.7,170.3c0.3-0.3,0.6-0.2,0.9-0.2c0.1,0.5-0.2,0.7-0.4,0.9C433.7,171,433.7,170.6,433.7,170.3z" />
	<path fill="#8F7E74" d="M470.2,519.4c0-0.8-0.2-1.5,0.2-2.2C470.5,517.9,470.7,518.7,470.2,519.4z" />
	<path fill="#D4BE9E" d="M403.2,182.6c-0.1-0.4,0.2-0.6,0.3-1c0.3-0.1,0.5-0.4,0.9-0.3C404.2,181.8,403.7,182.2,403.2,182.6z" />
	<path fill="#7B6D63" d="M465.7,143.2c0,0.5,0,1.1,0,1.6C465.4,144.2,465.5,143.7,465.7,143.2z" />
	<path fill="#8F7E74" d="M470.2,515.6c0,0.5,0.2,0.9-0.3,1.3C469.9,516.5,469.6,516,470.2,515.6z" />
	<path fill="#CEB99B" d="M408.8,150.2c0-0.3,0-0.6-0.1-0.9c0.2,0.1,0.4,0.2,0.7,0.3c0,0.1,0,0.2,0,0.3   C409.2,150,409,150.1,408.8,150.2z" />
	<path fill="#E0C7B6" d="M462.3,184.7c0,0.4,0.3,1-0.3,1.3C462.1,185.5,462,185.1,462.3,184.7z" />
	<path fill="#8B7A71" d="M491.4,578.8c-0.3,0-0.5,0-0.8,0.1c-0.2,0-0.4,0-0.4-0.3C490.6,578.5,491,578.4,491.4,578.8z" />
	<path fill="#13110D" d="M432.8,129.3c-0.3,0.4-0.8,0.3-1.3,0.3C431.9,129,432.4,129.4,432.8,129.3z" />
	<path fill="#71675A" d="M431.6,170.1c0.1-0.1,0.3-0.1,0.3-0.3c0.1,0,0.2,0,0.3,0l0,0C432.1,170.2,432.1,170.7,431.6,170.1z" />
	<path fill="#847867" d="M421.6,131.8c-0.2,0.5-0.6,0.3-0.9,0.4C420.8,131.7,421.2,131.8,421.6,131.8z" />
	<path fill="#D4BE9E" d="M404.3,180.3c-0.5-0.2-0.6-0.5-0.1-0.9C404.1,179.7,404.1,180,404.3,180.3z" />
	<path fill="#13110D" d="M431.3,129.7c0,0.1-0.1,0.2-0.1,0.3c-0.3,0-0.6,0-0.9,0.1C430.5,129.4,431,129.7,431.3,129.7z" />
	<path fill="#88786E" d="M442.4,13.5c0.5,0.2,0.2,0.6,0.3,1C442.4,14.1,442.5,13.8,442.4,13.5L442.4,13.5z" />
	<path fill="#0A0706" d="M468,404.4c0-13.6,0-27.3,0-40.9c-1.4-0.3-2.6,0.1-4.2,0.2c1.4-1.1,2.8-0.8,3.9-1.1   c0.6-0.5,0.1-1.2,0.5-1.7c0.4,0.5,0,1.3,1.1,1.7c0.5,0.1,1.3-0.4,2.1-0.1c-0.7,1-1.9,0.1-2.6,0.8c0,2.5,0,5.1,0,7.6   c0,0.6,0.1,1.1,0.1,1.7c0,8.2,0,16.5,0,24.7c0,2-0.2,4-0.3,6C468.5,403.9,468.5,404.3,468,404.4z" />
	<path fill="#503127" d="M465,442.3c0-1.1-0.2-2.2,0.1-3.4c0.1-0.3,0.1-0.5,0.1-0.8c0.1-2.6,0.2-5.3,0.4-7.9   c0.3-3.7,0.6-7.4,0.9-11.1c0.1-1.5,0.4-2.9,0.7-4.4c0.7,0.4,0.5,1,0.4,1.6c-0.5,3.2-0.8,6.4-0.9,9.7c-0.2,4.1-0.5,8.2-0.9,12.3   C465.6,439.7,465.5,441,465,442.3z" />
	<path fill="#4E3026" d="M461.3,478c-0.9-1.7-0.3-8.9,0.7-10.9c0.1,1,0.1,1.8-0.1,2.7C461.4,472.5,462.2,475.3,461.3,478z" />
	<path fill="#854D3C" d="M449.9,387.4c-1.6,0.5-3.3,0.2-5,0.3c0.3-0.5,0.6-0.6,0.9-0.6c3.2,0,6.3-1.1,9.6-1.4   c0.1,0.5-0.2,0.6-0.5,0.7c-0.8,0.2-1.7,0.1-2.5,0.6C451.5,387,450.8,387.3,449.9,387.4z" />
	<path fill="#5D3A2D" d="M462.4,356.9c2.5-0.6,5-1,7.6-1.2c0.3,0,0.5,0.2,0.7,0.5c-0.8,0.9-1.9,0.2-2.7,0.6s-1.8,0.2-2.7,0.4   C464.4,357.3,463.4,357.2,462.4,356.9z" />
	<path fill="#462B22" d="M492.7,349.7c0.6,0.2,0.7,0.6,0.9,1c0.3,1.1,0.6,2.2,0.9,3.3c0.1,0.5,0,0.9-0.5,1.1   C493.2,354,492.5,350.9,492.7,349.7z" />
	<path fill="#543428" d="M467.1,352.9c-0.1-1.3-0.3-2.4-0.3-3.5s0-2.1,0-3.3c0.6,0.5,0.8,1.2,0.8,3.2   C467.6,350.5,467.9,351.7,467.1,352.9z" />
	<path fill="#6D4334" d="M469.6,467.5c0.8-1.6,2.1-2.7,3.3-3.9c0.3,0.3,0.4,0.5,0.3,0.6C472.3,465.6,471.1,466.7,469.6,467.5z" />
	<path fill="#9F614B" d="M472.5,390.6c-0.9,1.3-1.7,0.5-2.6,0.4C470.7,390.3,471.5,390.5,472.5,390.6z" />
	<path fill="#7C4C3B" d="M491.4,347.1c-0.2,0.2-0.3,0.3-0.4,0.4c-0.5-0.1-0.5-0.3-0.5-1.1C491,346.2,491.1,346.6,491.4,347.1z" />
	<path fill="#89815A" d="M465.3,272c0.5,0.2,0.5,0.6,0.5,1c-0.1,3.6,0.7,7.1,1.2,10.7c0.2,1.2,0.3,2.5,0.4,3.7   c0.4,3.1,0.3,6.3,0.3,9.4c0,0.5,0.2,1.1-0.3,1.4c-0.2,0.1-0.3,0-0.3-0.1c0-3,0-6.1-0.4-9.1c-0.3-2.3-0.5-4.6-0.8-6.9   c-0.2-2-0.5-4-0.7-6c-0.1-1.1-0.4-2.1-0.3-3.2C464.9,272.5,464.9,272.2,465.3,272z" />
	<path fill="#383627" d="M466,312.7c-0.4,7.7-1.1,15.4-1.9,23.1c-0.1,0.8,0.1,1.8-0.6,2.5C463.2,336.7,465.2,314.3,466,312.7z" />
	<path fill="#847C57" d="M479.7,336.8c1.5-0.3,3,0.1,4.4,0.2c2.3,0.1,4.5,0.5,6.7,0.9c1.5,0.2,2.9,0.5,4.1,1.4c-1.7,0-3.3-0.7-5-0.9   c-1.7-0.2-3.5-0.4-5.2-0.6C483,337.7,481.3,337.5,479.7,336.8z" />
	<path fill="#1F1E14" d="M467.3,301.5c-0.5-0.3-1-0.2-1.5-0.2c-1.9,0-3.7,0-5.5,0c-0.9,0-1.7-0.3-2.7-0.6c1.9-0.3,3.5,0,5.1-0.1   c3.6,0,7.2,0,10.8,0c0.4,0.5,1,0,1.6,0.6c-2.4,0-4.5,0-6.7,0C468.1,301.2,467.6,301,467.3,301.5L467.3,301.5z" />
	<path fill="#4F4B35" d="M462.1,260.4c-1-3.3-2-6.6-3-9.9c-0.2-0.6-0.3-1.2-0.4-1.8c-0.1-0.4,0-0.7,0.5-1.1c0.3,1.4,0.6,2.8,1,4.1   c0.3,1.3,0.8,2.6,1.1,3.9c0.4,1.3,0.7,2.7,1.1,4C462.3,259.7,462.6,260.2,462.1,260.4z" />
	<path fill="#1D1C12" d="M493.2,254.1c0-0.1,0-0.3,0-0.6c1.4-0.2,2.6,1.2,4,0.4c0.4,0.2,0.5,0.4,0.6,0.6c-0.6,1.2-1.7,0.7-2.7,0.8   C494.4,255.1,493.8,254.6,493.2,254.1z" />
	<path fill="#433F2C" d="M462,304.2c1.3-0.6,4.7-0.8,7.7-0.5c0.6,0,0.6,0,1.4,0.5c-0.2,0.1-0.3,0.1-0.4,0.1   C467.8,304.3,465,304.4,462,304.2z" />
	<path fill="#625C41" d="M481.6,334c0.4-0.2,0.5-0.4,0.6-0.4c2,0.2,4.1,0.4,6.1,0.6c0.3,0,0.6,0.1,0.8,0.6   C486.6,334.9,484.2,334.8,481.6,334z" />
	<path fill="#827A57" d="M471.8,309.2c-2.4,0.7-4.4,0.1-6.4-0.2c0-0.1,0-0.2,0-0.3c1,0,2.1,0,3.1,0   C469.4,308.7,470.5,308.4,471.8,309.2z" />
	<path fill="#EBDA8F" d="M467.3,301.5c0.3-0.4,0.8-0.2,1.1-0.2c2.1,0,4.3,0,6.7,0c-0.6-0.6-1.3-0.1-1.6-0.6c0.6,0,1.2,0,1.8,0   c0.2,0.3,0.2,0.6,0,0.9C472.7,301.5,470,301.5,467.3,301.5z" />
	<path fill="#B2A774" d="M462.1,260.4c0.5-0.2,0.2-0.6,0.3-0.9c0.7,1.5,0.9,3.2,1.1,4.9C462.7,263.1,462.3,261.8,462.1,260.4z" />
	<path fill="#7C7452" d="M462.4,270.4c1.2-0.7,2.3-1.7,3.9-1.5C465.1,269.7,464,270.6,462.4,270.4z" />
	<path fill="#635E43" d="M489.7,252.6c0.4,0.1,0.5,0.3,0.5,0.5c0,0.1-0.1,0.3-0.2,0.4c-0.4,0.2-0.6,0-0.7-0.3   C489.2,252.8,489.4,252.7,489.7,252.6z" />
	<path fill="#161311" d="M463,201.2c2.2,2.8,4.3,7.5,4.1,9c-0.3,0.1-0.4-0.1-0.5-0.3c-1.4-2.4-2.9-4.8-4.1-7.3   C462,201.9,462.1,201.8,463,201.2L463,201.2z" />
	<path fill="#292421" d="M447.7,184.6c-1.2-1.8-2-3.7-2.6-5.7c-0.1-0.3-0.1-0.6-0.1-0.9c0-0.4,0.3-0.7,0.7-0.7   c0.5-0.1,0.8,0.2,0.9,0.6C446.9,180.1,447.6,182.3,447.7,184.6z" />
	<path fill="#201C19" d="M452.1,122.8c-0.5-1.6-0.3-4.3,0.4-5.5c1,0.9,0.6,2.1,0.6,3.1C453.1,121.3,453.1,122.2,452.1,122.8z" />
	<path fill="#211D1A" d="M441.7,30c1,1.2,0.8,2.6,0.8,4c-0.5,0.2-0.7-0.1-0.9-0.3c-0.5-0.9-0.6-2-0.7-3   C440.9,30.3,441.1,30.1,441.7,30z" />
	<path fill="#201C1A" d="M462.2,123.8c0.3,0.2,0.3,0.5,0.2,0.7c-0.4,1-0.6,2.1-1.4,2.9c-0.7-0.9-0.1-1.7,0.1-2.5   C461.2,124.4,461.5,123.8,462.2,123.8z" />
	<path fill="#4F4640" d="M447.3,33.5c-0.5-1.1-0.5-2.1-0.7-3.1C447.8,30.9,448.1,32,447.3,33.5z" />
	<path fill="#38322E" d="M447.8,186.1c0.8,0.9,1.2,1.7,0.8,2.8C447.6,188.1,447.3,187.4,447.8,186.1z" />
	<path fill="#322C29" d="M451.3,109.2c0.7,1,0.7,1.2,0,2.2C450.4,110.6,450.3,110.2,451.3,109.2z" />
	<path fill="#312B28" d="M459.7,130.5c-0.6-1.3-0.6-1.4,0.2-2.2c0.3,0,0.5,0.3,0.5,0.5C460.4,129.4,460.3,130.1,459.7,130.5z" />
	<path fill="#3B3430" d="M467.3,213.8c-0.7-0.6-1.3-1-1.5-1.8C467,211.8,467.3,212.1,467.3,213.8z" />
	<path fill="#74665E" d="M443.3,39.7c0.7,0.5,0.3,1.4,0.8,2.2C442.7,41.3,442.6,40.7,443.3,39.7z" />
	<path fill="#4E4640" d="M459.7,208.8c-0.8-0.9-0.8-1,0.1-1.9C460.7,207.5,460,208.1,459.7,208.8z" />
	<path fill="#786A61" d="M451,27.6c0.9,0.6,0.9,0.6,0.5,1.9C451,28.8,450.6,28.4,451,27.6z" />
	<path fill="#9F8C80" d="M447.6,37.2c0.7,0.8,0.5,1.5,0,2.1c-0.4,0-0.5-0.2-0.4-0.5C447.3,38.3,447.4,37.7,447.6,37.2z" />
	<path fill="#A18E82" d="M448.5,197.4c-0.6-0.6-0.6-1.1-0.1-1.7C449.2,196.5,449.2,196.5,448.5,197.4z" />
	<path fill="#4A423C" d="M443.5,173.3c0.8,0.6,1.3,0.9,1.5,1.6C443.9,175.1,443.9,175.1,443.5,173.3z" />
	<path fill="#A49085" d="M447.3,34.2c0.6,0.4,0.4,0.9,0.3,1.4C446.6,35,446.6,35,447.3,34.2z" />
	<path fill="#3C3530" d="M452,116.2c-0.7-0.8-0.7-1-0.1-1.9C452.4,115,452.1,115.6,452,116.2z" />
	<path fill="#594F48" d="M459.9,203.5c-0.9-0.4-0.7-0.8-0.2-1.3C460.3,202.5,460.4,202.9,459.9,203.5z" />
	<path fill="#695D56" d="M451.6,106c-0.7-0.6-0.7-0.6,0-1.3C452,105.1,451.9,105.5,451.6,106z" />
	<path fill="#534943" d="M448.3,190.8c0.8,0.5,0.5,0.9,0.1,1.4C448.1,191.7,448.1,191.7,448.3,190.8z" />
	<path fill="#85756C" d="M442.9,37.5c0.6,0.4,0.6,0.8,0,1.2C442.4,38.3,442.3,37.9,442.9,37.5z" />
	<path fill="#807168" d="M442.7,36.8c-0.4-0.2-0.4-0.5-0.2-0.8C443.1,36.2,443.1,36.2,442.7,36.8z" />
	<path fill="#403934" d="M450.3,493.8c1,1.3,1.5,5.3,1,7.8c-0.3,0.1-0.4,0-0.4-0.3c-0.1-2.4-0.4-4.7-1-7   C449.9,494.1,450,494,450.3,493.8z" />
	<path fill="#413A36" d="M450.9,513.2c-1-1.2-0.8-2.4,0.4-3.5c0.3,0.1,0.5,0.3,0.4,0.5C451.5,511.2,451.7,512.4,450.9,513.2z" />
	<path fill="#4F4641" d="M451,506.4c-0.7-1.3-1.1-2.4-0.4-3.7C451.7,503.5,451.8,504.5,451,506.4z" />
	<path fill="#342E2B" d="M463,568.3c0.3,0,0.5-0.1,0.6,0c1,0.7,2,1.4,3,2.1C465.3,571,464,570.2,463,568.3z" />
	<path fill="#1A1714" d="M450.2,558.6c-0.3,0.1-0.4,0.5-0.8,0.4c-0.8-1-0.8-1-0.3-2.5c0.3-0.3,0.7-0.1,1,0   C450.4,557.2,450.3,557.9,450.2,558.6z" />
	<path fill="#4F4641" d="M451.2,566.7c-0.2,0.2-0.3,0.4-0.5,0.6c-0.8-1.1-0.8-1.3-0.2-2.4c0.3-0.1,0.4,0.3,0.6,0.3   C451.1,565.7,451.1,566.2,451.2,566.7z" />
	<path fill="#938177" d="M451.2,569.5c0,0.6,0.1,1.2-0.1,1.9c-0.5-0.9-1.1-1.6-0.5-2.6C450.9,569,451.1,569.2,451.2,569.5z" />
	<path fill="#4D453F" d="M448.7,590.4c-0.7,0-1.2-0.2-1.5-0.8c0.2-0.6,0.7-0.5,1.1-0.5C448.6,589.5,449.2,589.8,448.7,590.4z" />
	<path fill="#71645C" d="M461.8,565.4c1.2,0.3,1.3,0.3,0.8,1.2C462.1,566.5,462,566,461.8,565.4z" />
	<path fill="#776961" d="M450.9,517.1c0-0.6,0.2-0.9,0.7-0.8C451.8,517,451.8,517,450.9,517.1z" />
	<path fill="#25140D" d="M448.9,467.8c-2.3,0.9-4.1,0.5-5.8-0.6c0-0.7,0.3-1,0.8-1C445.1,466,447.6,466.7,448.9,467.8z" />
	<path fill="#3B2219" d="M448.6,463.7c-2.4,0.5-4.2,0.3-5.1-0.5c0-0.5,0.3-0.7,0.8-0.8C445.7,462.4,447.2,462.5,448.6,463.7z" />
	<path fill="#884F3D" d="M443.5,385c1-0.1,1.9-0.6,3-0.3c-0.8,0.8-1.8,0.7-2.6,1.1C443.4,385.8,443.3,385.5,443.5,385z" />
	<path fill="#413B37" d="M439.8,55.8c-0.6-0.5-1.7-0.5-1.7-1.6C439.3,54.1,439.6,54.4,439.8,55.8z" />
	<path fill="#2D2824" d="M454.2,577.7c0,0.5-0.3,0.6-0.5,0.8c-1.1-0.3-1.9-1.2-2.6-2c-0.3-0.3-0.3-0.4,0-1.4   C452.3,575.9,453.1,577.1,454.2,577.7z" />
	<path fill="#231F1C" d="M450.9,561.1c0.1,0.6,0.3,1.3-0.2,2c-0.9-0.6-0.6-1.3-0.3-1.9C450.6,561.1,450.7,561.1,450.9,561.1   L450.9,561.1z" />
	<path fill="#3A3430" d="M451.3,574.4c-0.3-0.9-0.3-0.9,0-1.8C452.1,573.4,452.1,573.8,451.3,574.4z" />
	<path fill="#110F0D" d="M414.5,158.6c0.8-0.6,0.8-1.8,1.6-2.5c1.6-1.5,2.6-3.5,3.9-5.2c0.2-0.3,0-0.6,0.1-0.9   c1-0.9,1.9-1.8,2.5-2.9c0.4-0.7,1.2-0.8,1.7-1.3c1-1,2.1-2,2.9-3.2c0.5-0.2,1-0.4,1.6-0.3c0.1,0.1,0.2,0.1,0.3,0.1   c0,0.3,0,0.7,0.3,0.8c0,0.1,0,0.4,0,0.4c-3.3,4.6-6.9,8.9-11.5,12.3c-0.5,0.4-0.9,0.9-1.2,1.4c-0.9,1.2-1.7,2.4-2.8,3.5   c-0.4-0.1-0.2-0.4-0.3-0.6C413.5,159.7,414.4,159.4,414.5,158.6z M425.4,146.4c-1,0.6-2,1-2.7,2c-1,1.5-2,3.1-2.9,4.6   c0,0,0,0.1,0.1,0.2c1-0.4,1.6-1.3,2-2.1c0.3-0.8,0.8-1.4,1.3-2C423.9,148.2,424.6,147.3,425.4,146.4z" />
	<path fill="#13110D" d="M431.6,130.2c0.7-0.3,1.5-0.3,2.2-0.2c0.3,0.3,0.2,0.6,0.2,0.9c0,0.3,0,0.5,0,0.7c-0.5,0.9-1.3,1.3-2.1,1.6   c-0.5,0.2-0.8,0.6-1.3,0.9c-1.9,0.9-3.7,2-5.4,3.3c-0.7,0.5-1.5,0.6-2.2,0.9c-1.7,0.6-2.9,2-4.5,2.9c-0.3-0.8,0.1-1.1,0.5-1.5   c1.7-1.5,3.5-2.9,5.4-4.1c1.2-0.8,2.4-1.5,3.7-2.3c-0.5-0.5-1-0.1-1.4-0.3l0,0c0.6-1.2,1.9-1.5,3-2.1   C430.5,130.7,431,130.5,431.6,130.2z" />
	<path fill="#1C1915" d="M407.5,143c-0.4-0.4,0-0.8,0.2-1.1c1.1-1.6,2.4-3,3.8-4.3c1.2-1,2.4-2,3.5-3c0.4-0.3,0.8-0.7,1.4-0.6   c0.1,0.6-0.3,1-0.7,1.4c-0.4,0.4-0.8,0.9-1.2,1.2c-1.3,1.1-2.6,2.3-3.9,3.4c-0.9,0.7-1.8,1.4-2.4,2.4   C408.2,142.7,407.9,143,407.5,143z" />
	<path fill="#27241F" d="M430,137c0.2,0.1,0.5,0.1,0.6,0.5c-0.2,0.7-1.1,0.9-1.5,1.4c-1.9,1.3-3.7,2.8-5.7,3.9   c-0.9,0.6-1.8,1.1-2.8,1.7c-0.3-0.1-0.8,0.2-0.9-0.3c1.5-1.2,3.2-2.1,4.8-3.2C426.4,139.8,428.2,138.4,430,137z" />
	<path fill="#474138" d="M418.5,148c1.9-1.8,4.1-3.1,5.9-4.8c0.2-0.2,0.6-0.3,0.9-0.5c0.2,0.1,0.5-0.1,0.6,0.3   c-2,2.2-4.5,3.9-6.9,5.6C418.6,148.7,418.5,148.3,418.5,148z" />
	<path fill="#343029" d="M431.3,134.4c0.2,0.1,0.4,0.1,0.5,0.2c0.1,0.1,0.2,0.2,0.3,0.3c-0.1,0.8-1,0.5-1.2,1   c-0.4-0.1-0.7,0.2-1,0.4c-1.5,1-3.1,2.1-4.6,3.1c-0.3,0-0.6,0.1-0.7-0.4C426.7,137.2,428.9,135.6,431.3,134.4z" />
	<path fill="#DEC9AD" d="M431.3,134.4c-2.4,1.3-4.6,2.9-6.7,4.6c-0.2,0-0.4,0-0.5,0c0-0.1,0-0.2,0-0.3c0.5-0.3,1-0.7,1.2-1.3   c1.7-1.3,3.4-2.4,5.4-3.3C430.8,134.4,431.1,134.3,431.3,134.4z" />
	<path fill="#A69781" d="M424.1,139c0.2,0,0.4,0,0.5,0c0.1,0.4,0.4,0.3,0.7,0.4c-0.3,0.7-1.1,0.7-1.6,1.1c-0.7,0.6-1.5,1.1-2.2,1.7   c-0.4-0.4-0.3-0.7,0-1c0.5-0.6,1.2-0.9,1.8-1.4C423.6,139.5,424,139.3,424.1,139z" />
	<path fill="#B1A18A" d="M418.5,145.8c-0.6,0.7-1.5,1.1-2,1.9c-0.2-0.3-0.4-0.4-0.5-0.5c0.5-0.7,2.4-2.3,3.1-2.6   c-0.1,0.4-0.5,0.6-0.7,0.9C418.2,145.7,418.3,145.8,418.5,145.8z" />
	<path fill="#9D8E7A" d="M425.9,143c-0.1-0.4-0.4-0.2-0.6-0.3c0.7-0.7,1.6-1.1,2.7-1.6c0,0.7,0.5,0.9,0.8,1.3   c-0.6-0.1-1.1,0.1-1.6,0.3c-0.1-0.3-0.3-0.3-0.5-0.1C426.4,142.7,426.3,143,425.9,143z" />
	<path fill="#746A5B" d="M418.5,145.8c-0.2-0.1-0.3-0.2-0.1-0.4c0.2-0.3,0.6-0.5,0.7-0.9c0.2-0.2,0.4-0.4,0.7-0.3   c0.2,0.5,0.6,0.2,0.9,0.3C420,145.1,419.4,145.7,418.5,145.8z" />
	<path fill="#A69781" d="M425.3,137.3c-0.2,0.6-0.7,1-1.2,1.3c-0.2-0.5-0.7-0.2-1-0.4C423.8,138,424.6,137.8,425.3,137.3z" />
	<path fill="#9E907B" d="M418.5,148c0,0.3,0.1,0.6,0.5,0.6c-0.1,0.6-0.5,0.5-0.7,0.2C418,148.5,418.1,148.2,418.5,148z" />
	<path fill="#13110D" d="M426.9,133c-0.1,0.4-0.4,0.6-0.8,0.6C426.1,133.1,426.5,133.1,426.9,133L426.9,133z" />
	<path fill="#0E0C0A" d="M432.2,169.8c-0.1,0-0.2,0-0.3,0c-0.5-0.4-0.8-0.9-0.3-1.6c1.2-0.8,2-1.9,2.5-3.3c0.4-1.1,1.1-2.1,1.4-3.3   c0.1-0.6,0.3-1.1,0.1-1.8c-0.6,0.8-1.1,1.5-1.5,2.3c-0.4,0.9-0.8,1.8-1.9,2.1c-0.3,0.1-0.5,0.5-0.8,0.8c-0.3-0.1-0.2-0.4-0.3-0.6   c0.1-0.3,0.2-0.6,0.4-0.8c1.2-1,1.7-2.4,2.1-3.9c0.4,0.1,0.1-0.6,0.6-0.5c0.8,0.3,0.9-0.2,0.9-0.8c0.1-1,0.8-1.7,1-2.6   c0.2-0.9,0.5-1.7,0.2-2.6c-0.1-0.4,0-0.6,0.5-0.7c0.5,0.5,0.6,1.1,0.6,1.8c0,1-0.2,2.1-0.7,3c-0.3,0.6-0.4,1.2-0.2,1.8   c0.3,0.8-0.1,1.7,0.5,2.5c0.2,0.3-0.1,0.8-0.2,1.2c-0.3,0.8-0.7,1.5-1,2.3c-0.5,1.2-1.2,2.1-2.1,3.1c-0.4,0.4-0.8,0.7-1.2,0.9   C432.3,169.3,432.2,169.4,432.2,169.8z" />
	<path fill="#100E0B" d="M431.6,147.1c0.5,0.3,0.2,0.6,0,0.9c-2.2,3.5-5.1,6.5-8.1,9.3c-1.7,1.6-3.6,2.7-5.6,3.8   c-0.5,0.3-1,0.8-1.6,0.1c0-0.3,0-0.5,0.2-0.6c2.3-1.1,4-3.1,5.9-4.7c2.1-1.8,4.2-3.7,5.9-5.8c0.8-0.6,1.3-1.4,1.9-2.1   C431,148,431.5,147.9,431.6,147.1L431.6,147.1z" />
	<path fill="#181612" d="M422.3,162.1c-0.2-0.1-0.3-0.2-0.4-0.4c0.4-0.9,1.1-1.6,1.9-2.3c2.2-2.1,4.4-4.4,6.2-6.9   c1.1-1.5,2.2-3.1,2.4-5.1c0-0.1,0.1-0.3,0.2-0.4c0.3,0,0.5-0.1,0.9,0.3c-0.1,1.9-1.2,3.6-2.1,5.3c-1.4,1.9-2.9,3.7-4.6,5.3   C425.3,159.4,423.8,160.8,422.3,162.1z" />
	<path fill="#1B1814" d="M435.3,158.5c0,0.6-0.1,1.1-0.9,0.8c-0.5-0.1-0.2,0.5-0.6,0.5c-0.1-0.4,0.1-0.7-0.1-1.1   c-1,1.3-1.6,2.8-2.8,3.9c-0.5-0.2-0.1-0.6-0.3-0.9c0.8-1.6,1.8-3,2.5-4.7c0.9-1.7,1.8-3.5,1.9-5.5c0.1-0.8-0.3-1.6-0.4-2.4   c1.1-0.3,1.5-0.1,1.5,0.9c0.1,1.2-0.1,2.5-0.5,3.6c-0.4,1.3-0.9,2.5-1.3,3.8c0.1,0.4,0.2,0.8,0.4,1.3   C434.9,158.7,435.1,158.6,435.3,158.5z" />
	<path fill="#1A1713" d="M429.7,158.3c-1.4,1.2-2.9,2.3-4.3,3.5c-0.9,0.8-1.9,1.4-2.9,2.1c-0.3-0.1-0.6,0-0.7-0.3   c2.1-2,4.4-3.6,6.6-5.6c1.5-1.3,3-2.6,4.1-4.3c0.8-0.5,1-1.7,2-2.1c0.5,0.7,0,1.2-0.4,1.7c-1.2,1.8-2.6,3.3-4.2,4.7   C429.9,158.1,429.8,158.2,429.7,158.3z" />
	<path fill="#D1BB9C" d="M432.6,153.7c-1.1,1.7-2.7,3-4.1,4.3c-2.1,1.9-4.5,3.6-6.6,5.6c-0.3,0.1-0.5,0.4-0.9,0.3l0,0   c-0.1-0.9,1-1.1,1.3-1.8c1.5-1.3,3-2.6,4.4-4c1.7-1.6,3.1-3.5,4.6-5.3C431.3,153.5,432,153.5,432.6,153.7z" />
	<path fill="#201D18" d="M420.9,154.5c1.6-1.7,3.2-3.4,4.8-5.2c1.1-1.2,2.3-2.4,3.2-3.7c0.3-0.4,0.6-0.6,1-0.4   c0.1,0.9-0.5,1.5-1.1,2.1c-1.3,1.5-2.6,2.9-4,4.3c-0.7,0.3-1,1-1.5,1.5c-0.6,0.6-1.3,1.1-1.9,1.7   C421.3,154.8,421,154.9,420.9,154.5z" />
	<path fill="#D7C0A0" d="M431.6,147.1c-0.1,0.8-0.6,0.9-1.3,0.9C430.7,147.6,431.1,147.3,431.6,147.1z" />
	<path fill="#211E19" d="M417.8,169.2c0.6,0.3,0.9,0.8,1.6,0.5c-1.6,3.5-3.1,6.8-5.4,9.8c-0.5,0.2-0.9-0.1-1.1-0.7   C414.3,175.6,416.1,172.5,417.8,169.2z" />
	<path fill="#302B24" d="M421.7,183.9c-0.1-0.2,0-0.4,0.2-0.6c1.7-1.4,3.5-2.7,5-4.4c0.5,0.6,0.5,1,0.2,1.4   c-0.7,0.8-1.4,1.7-2.4,2.2c-0.8,0.4-1.6,0.8-2.2,1.4C422.2,184.2,421.9,184.2,421.7,183.9z" />
	<path fill="#3B352D" d="M426.6,182.5c0.8-0.9,1.6-1.8,2.5-2.7c0.4-0.1,0.5,0.2,0.7,0.5c-0.5,1.4-1.7,2.1-2.8,2.9   C426.5,183.1,426.6,182.8,426.6,182.5z" />
	<path fill="#807260" d="M421,163.9c0.4,0.1,0.6-0.2,0.9-0.3c0.1,0.4,0.4,0.3,0.7,0.3c-0.6,1-1.7,1.4-2.5,2.2   c-0.1,0.1-0.4,0-0.6-0.2C419.6,164.9,420.7,164.7,421,163.9z" />
	<path fill="#8D7E69" d="M426.6,182.5c0,0.3,0,0.6,0.3,0.6c-0.4,0.6-1,1-1.4,1.5c-0.4,0.1-0.5-0.1-0.7-0.4   C425.3,183.6,425.8,183,426.6,182.5z" />
	<path fill="#574F43" d="M430.6,161.7c0.1,0.3-0.2,0.7,0.3,0.9c-0.3,0.6-0.3,1.5-1.4,1.6C429.3,163.1,430.4,162.6,430.6,161.7z" />
	<path fill="#595043" d="M431.2,164.5c0.1,0.2-0.1,0.5,0.3,0.6c-0.3,0.7-0.6,1.4-1.3,1.9c-0.3-0.4-0.2-0.8,0-1.2   C430.5,165.3,430.9,164.9,431.2,164.5z" />
	<path fill="#403A30" d="M410.7,168.2c-1.2,2.2-2.4,4.4-3.9,6.4c0,0.1-0.2,0-0.3,0c0-0.1-0.2-0.3-0.1-0.4c1.2-2.3,2.5-4.6,4-6.7   C410.8,167.7,410.7,168,410.7,168.2z" />
	<path fill="#807361" d="M410.7,168.2c-0.1-0.2,0-0.5-0.3-0.6c0.7-1.2,1.4-2.4,2.1-3.8c0-0.3-0.5-0.4-0.5-0.7   c0.5-0.9,0.8-1.9,1.4-2.6c0.1,0.2-0.1,0.5,0.3,0.6c0.1,0.8-0.8,1.1-0.8,2c0.5,0.6,0.3,1.3-0.2,1.9C412,166,411.5,167.2,410.7,168.2   z" />
	<path fill="#746857" d="M420.9,154.5c0.1,0.4,0.4,0.4,0.6,0.3c-0.7,0.8-1.4,1.5-2.1,2.3c-0.5-0.3-0.5-0.7-0.2-1   C419.8,155.6,420.4,155,420.9,154.5z" />
	<path fill="#847867" d="M425.4,146.4c-0.7,0.9-1.5,1.8-2.2,2.7c-0.5,0.6-1,1.2-1.3,2c-0.4,0.9-1,1.7-2,2.1c0-0.1-0.1-0.2-0.1-0.2   c1-1.6,1.9-3.1,2.9-4.6C423.3,147.4,424.4,147,425.4,146.4z" />
</g>
</svg>