<?xml version='1.0' encoding='utf-8'?>
<svg xmlns="http://www.w3.org/2000/svg" version="1.2" baseProfile="tiny" id="Layer_1" x="0px" y="0px" viewBox="0 0 900 600" overflow="visible" xml:space="preserve">
<g>
	<path fill="#030404" d="M693.3,382.6c-1.1,1.9-3,2.1-4.8,2.3c-2.6,0.2-5.2,0.3-7.7,0s-5-0.1-7.4-0.4c-3.6-0.5-7.1-0.6-10.7-0.2   c-0.2,0-0.3,0-0.5,0c-1.8-1-3.8-0.3-5.7-0.3c-5.7,0.1-11.4,0.3-17.1,0.2c-4.9-0.1-9.8-0.4-14.6-1.5c-0.9-0.2-1.8-0.5-2.7-0.8   c-1.8-0.5-3.5-1.1-5.4-1.2c-5.4-0.5-10.4-5-11.9-10.2c-0.3-1.1-0.1-2.2-0.2-3.3c-2.1-1.7-2.7-4.2-3.7-6.5c-0.8-1.7-0.5-3.7-0.9-5.5   c-0.2-1-0.8-1.8-0.5-3.4c-1.5,1.2-2.7,1.3-4,1.2c-1.7-0.1-3.2,0.4-4.5,1.5c-1.1,1.1-2.5,1.4-4,1.4c-6-0.1-12-0.1-18,0   c-6.1,0.2-12.1-0.7-18-2c-2.4-0.6-4.9-0.8-7.4-0.8c-4.1,0.1-8.3-0.1-12.4,0c-3.8,0.1-7.6,0.3-11.3,0.8c-1.7,0.2-3.4-0.1-5.1,0.6   c-0.8,0.4-1.8,0.4-2.5,1.1c-0.4,0.3-0.9,0.3-1.4,0.1c-0.9-1.6,0.2-3.1,0.5-4.8c-0.1-0.5-1-0.2-1.2-0.7c-0.5-0.7,0.3-1.4,0.3-2.4   c-3.4,2.1-6.5,4-9.7,5.9c-1.3,0.8-2.6,1.4-4,1.9c-1.6,0.5-3.3,1-4.6,2.1c-0.7,0.6-1.6,0.7-2.4,0.8c-5.3,0.3-10.4,1.8-15.7,2.2   c-2.8,0.2-5.6,0.3-8.4,0.2c-3.4,0-6.7,0.3-10-0.5c-6-1.4-12.1-1-18.1-0.8c-3.2,0.1-6.4,0.5-9.5,0.9c-2.1,0.3-4.2,0.2-6.3,0.3   c-3.9,0-7.8-0.3-11.7-0.6c-1.9-0.2-3.9-0.2-5.8,0.1c-2.3,0.4-4.5,0.2-6.7-0.3c-1.4-0.3-2.6-1.2-3.5-2.2c-1.8-1.9-4.1-3.4-6.2-4.9   c-1.5-1.1-3.2-1.5-5-1.6c-3.8-0.1-7.6,0.1-11.4,0.7c-2.1,0.4-4.3,0.8-6.5,0.6c-1.5-0.1-2.9,0.6-4.5,0.3c0-1.4-0.1-2.6-0.8-3.8   c-0.4-0.7-0.3-1.5,0-2.3c0.3-1.1,0.2-2.3,0.3-3.5c-6.8-0.5-13.1-2.6-19.5-4c-6.1-1.3-12.1-3-18.2-4.2c-5.3-1-10.7-1.8-16-3.1   c-1.8-0.4-3.7-0.6-5.1-2.1c-0.1-0.1-0.3-0.2-0.4-0.2c-3.4-0.4-6.4-2.3-10-1.8c-3.3,0.5-6.7,0.8-10,1.3c-2.2,0.3-4.3,0-6.4-0.6   c-7-2-13.9-4-20.8-6c-1-0.3-2-0.7-3.1-1.1c-0.7,0.1-1.4,0.3-2,0.3c-4.3,0-8.6,0.1-12.8,0.6c-6.3,0.7-12.5,1.2-18.8,2.1   c-7.7,1.1-15.4,2.1-23.2,1.8c-5.6-0.2-11.2-0.6-16.8-0.9c-4.8-0.3-9.7-0.6-14.5-0.1c-6.3,0.7-12.6,0.5-18.9,0.7   c-6.4,0.3-12.7,0.8-19.1,1.4c-1.1,0.1-2.3,0.3-3.4,0.6c-2.6,0.8-5.2,0.9-7.8,0.8c-4.4-0.1-8.7,1-13,1.5c-0.9,0.1-1.8,0.5-2.6,0.9   c-1,0.4-1.9,0.8-2.7-0.2c-2.5,1.3-4.4,3-6.3,4.7c-0.6,0.5-1.2,1.2-2.2,1.2c-0.6,0-1,0.4-1.4,0.8c-4.4,3.9-8.6,7.9-11.4,13.1   c-0.2,0.3-0.3,0.6-0.5,0.7c-1.6,0.9-2.1,2.6-3,4.2c0.3,0.5,0.5,1.2,0.2,1.8c-0.6,1.2-0.7,2.5-0.9,3.8c-0.1,0.8-0.3,1.5,0.2,2.2   c0.4,0.7,0.3,1.4,0.2,2.1c1.2,1.3,3.6,1.4,3.6,3.8c2.2-0.1,4.1,0,6,0.9c1.4,0.8,2.7,1.8,4,2.8c0.8,0.6,1,1.6,0.8,2.6   c-0.7,3.1-4.4,5-7.5,4c-0.1-0.4,0.1-0.7,0.4-1c0.5-0.4,1-0.8,1.4-1.2c1-1.2,0.9-2.1-0.4-3.1c-0.9-0.7-2-0.7-3-1.1   c-0.5-0.2-0.9,0-1.1,0.7c0.4,0.8,0.9,1.8,1.4,2.7c0.7-0.1,1-0.9,1.8-0.7c0.9,0.7,0.4,1.3-0.2,2c-0.5,0.6-1.7,0.6-1.6,1.7   c-0.5,0.6-0.9,1.3-1.6,1.7c-2.2,1.5-4.2,2.5-7.2,0.4c-5.5,1.3-10.7,2.8-16.1,0.3c-1.1,1.6-2.5,2.6-4.7,2.2   c-1.5,2.1-3.6,1.5-5.5,1.1c-1.5-0.3-3.1,0.1-4.6-0.3c-0.5-0.1-1.3,0.3-1.9,0.7c-2.3,1.5-5.5,0.9-7.4-1.2c-1-1.2-1.8-2.5-2.7-3.8   c-0.7,0.8-0.7,1.8-1.1,2.7c-0.4,0.9-0.6,1.9-1.7,2.6c-0.9,0.1-1.9-0.1-3,0c-3.1,0.3-5.1-2-4.5-5.1c0.1-0.4,0.1-0.8-0.1-1.1   c-0.9,0.3-1.7,0.8-2.1,1.9c-0.2,0.7-0.9,1-1.7,1.1c-2.1-0.6-3.3-2.2-4.2-4c-1.1-2.2-0.6-3.6,1.5-5.2c-2.2-2.5-2.7-5.5-2.7-8.7   c0-3,0.6-5.8,1.2-8.7c1.8-8.6,5.9-16.1,10.5-23.4c0.8-1.3,2-2.4,2.9-3.6c1.9-2.7,4.1-5.2,4.7-8.7c0.3-2,1-4,1.4-6.1   c0.2-1,0.3-2,0.3-3c0-3.2,0-6.4,0.4-9.6c0.1-0.6,0.1-1.2,0-1.9c-0.8-6.1,1.5-10.9,5.9-14.9c0.6-0.6,1.3-1.1,1.9-1.7   c1.4-1.3,3.1-2.1,5-2.1c3.7-6,9.1-8.3,15.8-7.6c3.6,0.3,7.3,0.8,10.7,2c2.8,1,5.4,2.4,8,3.8c4,2.2,8.3,3.3,12.9,3.4   c0.2,0,0.5-0.1,0.7,0c3.8,1.4,7.8,1.2,11.7,1.2c5.6,0,11.2,0.6,16.8,0.5c5-0.1,9.9-0.8,14.8-2c1.1-0.3,2.2-0.8,3.5-1.3   c0.5-0.1,0.5,0.8,1.1,0.9c7.4-2,14.6-4.7,21.9-7.1c1.9-0.6,3.8-1.3,5.5-2.3c4.3-2.5,9.1-3.8,13.9-5.1c5.2-1.4,10.6-2.3,15.9-3.4   c3.2-0.6,6.4-1.9,9.6-2.9c9.7-3.1,19.6-4.1,29.7-3.5c6.9,0.5,13.6,1.9,20.1,4.4c4.7,1.8,9.7,2.6,14.6,3.9c0.4,0.1,0.8,0.1,1.2,0.1   c0.8,0,1.6,0,2.3,0.1c6.7,0.5,13.3-0.3,19.8-2.1c4.1-1.1,8.4-1.6,12.6-2.2c1.8-0.3,3.7-0.7,5.6-1.1c0.3-1.8,1.4-2.3,3.2-2.2   c4.4,0.3,8.6-1.1,12.8-2.1c8.3-2.1,16.7-4.1,25.3-5.2c4-0.5,8.1-1,12.1-0.2c1.4-2,0.8-4.8,2.7-6.4c1-0.2,1.2,0.6,1.4,0.6   c2,0,3.7,0,5.3,0c0.8,0,1.6-0.1,2.3,0.4c1.3,0.9,2.6,0.8,4,0.8c1.1,0,2.2,0.1,3.2,0.3c4.7,0.8,9.5,0.6,14.2,0.1   c1.5-0.2,3-0.8,4.3-1.6c3.1-1.9,6.2-2.1,9.5-0.4c2.8,1.4,5.7,1.9,8.8,1.3c1.2-0.2,2.4-0.6,3.3-1.6c0.8-0.8,1.6-1.5,2.7-1.8   c1.1-0.4,1.9-1.1,2.7-1.8c1-1,1.9-2,3.2-2.7c0.4-0.2,0.5-0.5,0.7-0.9c0.9-1.7,1.5-1.9,3.4-1.2c2,0.7,3.8,1.7,5.9,2.1   c0.1,0,0.1,0.1,0.2,0.1c2.9,1.1,5.6,1.1,8.4-0.4c5.9-3.1,12.4-4.3,18.7-6.3c0.2-0.1,0.5-0.1,0.7-0.1c2.2,0.1,4.3-0.5,6.4-0.9   c6.1-1.2,12.4-1.3,18.6-0.8c2.3,0.2,4.6,0.2,7,0.5c3.4,0.5,6.7,1.4,10,2.2c0.6,0.2,1.2,0.4,1.8,0.3c3.1-0.9,6,0.4,8.9,1   s5.6,1.9,8,3.7c0.9,0.7,1.8,1.1,2.9,0.9c2,1.7,2.7,4,3.9,6.1c1,0,2,0.1,3,0c1.7-0.2,2.8,0.8,3.5,2.2c0.3,0.6,0.5,1.3,0.8,2.1   c1.6-0.9,3.2-1.1,5-1c1.2,0.1,2.3,0.1,3.1-1.1c2,1.3,4.1,1.6,6.3,1.5c1.5-0.1,3,0,4.4,0c2.1-0.1,4.2,0.1,6.1,1.1   c0.6,0.3,1.2,0.3,1.8,0.3c1.9,0,3.7,0,5.6,0c0.9,0,1.7-0.2,2.4-0.7c-0.3-1.4-0.6-2.8-1-4.1c-0.9-2.9-1.1-5.9-1.3-9   c0-0.6-0.2-1.1-0.6-1.7c-0.9-1.6-0.7-2.9,0.6-4.2c1.7-1.7,3.8-2.9,5.7-4.1c0.4-0.6,0.4-1.1,0.2-1.5c-0.5-1.5,0-2.8,0.6-4   c1-2.1,2.6-3.7,5.1-4c2.6-0.2,5.1-1.3,7.6-1.9c5.4-1.2,10.8-2.4,16.3-1.8c2.2,0.2,4.3,0.6,6.5,0.4c7.9-0.9,15.9-0.2,23.8-0.4   c3-0.1,6,0.6,9,0.8c2.7,0.2,5.4,0.7,8.1,1c4.3,0.5,8.5,1.3,12.8,2.1c4.1,0.8,8.1,1.8,12.3,2.2c3,0.3,6,0.9,8.9,1.3   c0.2,0,0.3,0,0.5,0c4.2-0.1,8.4,0.7,12.5,1.3c0.3,0,0.7,0.1,0.9,0c2.9-1.2,5.8-0.8,8.8-0.6c4,0.2,7.9,0.5,11.9,0.9   c4.4,0.5,8.7,1.2,13,2.5c2,0.6,4,1,6.1,1.3c4.5,0.7,8.6,2.5,12.5,4.9c0.8,0.5,1.6,0.9,2.7,0.9c2.1,0,4.1,0.8,6.1,1.5   s4.1,1.3,6.2,2.1c2.2,0.8,2.5,1.4,1.7,3.6c-0.1,0.4-0.3,0.7-0.4,1.1c1.3,1.1,3,1.2,4.5,1.5c3.9,0.8,7.8,1.6,11.7,1.9   c2.9,0.3,5.8,0.7,8.7,1.1c0.7,0.1,1.4,0.2,2.1-0.2c0.2-0.1,0.5-0.2,0.7-0.2c1.8,0.6,3.7-0.3,5.5,0c0.7-0.4-0.6-0.8-0.2-1   c0.8-1,1.4-0.2,2-0.2c0.1-0.1,0.3-0.1,0.4-0.2c0.9-1.5,2.5-1.7,4-1.8c4.7-0.6,9.3-1.6,13.9-2.7c4-0.9,7.9-2,11.8-3.4   c2.4-0.8,4.8-1.2,7.3-1.1c0.9,0,1.8-0.3,2.8-0.3c3.7,0.1,7.4,0.1,11,1.4c1.2,0.4,2.4,0.5,3.7,0.5c2-0.1,3.8,0.3,5.2,2   c0.8,0.9,2,0.8,2.6,0.9c1.1-0.1,1-0.9,1.7-1c1,0.1,1,1.3,1.7,1.7c1,0.5,2.2,0.7,3.1,1.5c0.8,0.7,1.1,2,2.7,1.9   c1-0.9,1.5-2.6,3.5-2.6c2,1.1,2.2,1.6,1.4,3.6c-0.4,0.9-0.7,1.9-1.1,2.8c-0.1,0.2-0.1,0.3,0.3,0.5c1.5-1.8,2.4-4.1,4.2-5.7   l-0.1,0.1c2.2-0.6,2.9-0.3,4.1,2.1c-0.1,1.1-0.7,2-1.2,2.9s-1,1.7-1.9,2.7c1.9,0.4,3.9,0.4,4.5,2.5c-0.3,0.4-0.5,0.8-0.8,1.2   c0.5,0.4,1.1,0.8,1.6,1.2c1.5,1.1,1.9,2.1,1.4,3.1c-0.6,1-1.8,1.3-3.3,0.8c-0.6-0.2-1.2-0.3-1.9-0.6c-0.2,1.5,0.9,2.6,0.8,3.9   c0.7,0.5,1.6,0,2.2,0.6c0.8,0.8,0.8,1.7,0.5,2.8c-1.5,5.6-2.6,11.2-2.5,17c0,2.7-0.8,5.4-0.8,8.3c1.2,1.3,1.3,3.2,1.5,4.9   c0.1,1.2,0.1,2.5,0,3.7c-0.1,1.7-0.2,1.9-2,2.8c0.2,0.9,0.8,1.7,1.3,2.4c0.2,0.3,0.6,0.7,0.6,0.9c-0.2,1.8,1.3,2.7,2.1,4   c0.2,0.9-0.7,1.1-1,1.7c1.4,3.9,1.1,5.8-0.9,7.3c-0.8,0.1-1.1-0.7-1.8-1.1c-0.4,0.4-0.8,0.9-1.2,1.4c1.6,2.1,3.3,4.1,4.6,6.4   c0.9,1.7,0.6,2.6-1.3,3.6c-0.9,0-0.9-1-1.6-1.4c-0.6,1.3-2.1,1.6-3,2.5c-0.1,0.8,1,0.9,0.8,1.6c0,0.1,0,0.2,0,0.2   c-0.9,1.2-2-0.3-3,0.2s-2,0.9-2.9,1.4c-0.6,0.2-1.2-0.6-1.8-0.2c0,0.1,0,0.3,0.1,0.4c1.5,1.2,2.4,2.8,3.4,4.4   c0.5,0.8,0.9,1.6,0.1,2.3c-0.7,0.7-1.6,0.5-2.4,0c-1.6-1.1-3.1-2.3-4.4-3.8c-0.3-0.3-0.6-0.5-1.1-1c0.4,1.7,2.3,2.6,1.6,4.4   c-0.9,0.3-1.8,0.5-2.5-0.4c-0.4-0.4-0.8-0.4-1.3-0.4c-1.1,0.2-1.9-0.4-2.3-1.2c-1-1.9-2-3.9-2.9-5.8c-0.3-0.6-0.1-1.4-0.2-2.2   c-2.3-1.7-3.4-4.4-4.3-7.4c-2.8,1.4-5.7,1.7-8.5,2.6c-1.1,0.3-2.1,0.5-3.2,0.3c-1.2-0.3-2.3,0.1-3.4,0.4c-2.5,0.8-4.8,2.1-7.5,2.3   c-0.6,0-1.2,0.4-1.6,0.8c-0.5,0.4-0.9,0.8-1.8,0.8c-1.5-0.6-2.1-2.6-3.9-3.2c-4.4,1.4-8.5,3.8-12.4,6.4c-1.4,1-3.1,1.5-4.6,2.3   s-3,0.1-4.5-0.4c-1.6-1.7-1.3-4.3-2.8-6c-2.4,0.3-4.6,1.4-7.1,0.6c-0.9-0.5-1.1-1.7-2-2.3c-2.7,2.1-3,2.7-7,0.2   c-0.9-0.5-1.7-1-3-1.1c-1.7,1.5-3.8,2.7-6.2,3.5c-0.9-0.4-1.7-1-2.9-1.1c-1.6,0-3.8-2.8-4-4.4c-0.3-4.2-0.6-8.4-0.9-12.6   c-0.2-2.1-0.4-4.1,0-6.3c0.2-1.1,0.1-2.2-0.1-3.2c-0.9-1.1-2-1.5-3.3-1.8c-4.1-1-8.1-2.1-12.3-2.7c-0.1,0-0.3,0.1-0.3,0.2   c-4.1,4.9-9.8,7.2-15.6,9.3c-3.7,1.4-7.5,2.5-11.4,3.2c-1,0.2-1.8,0.6-2.5,1.2c-2.1,2-4,4.1-5.7,6.5c-4.3,6.2-8.7,12.3-14.8,17.1   c-2.8,2.2-5.5,4.4-8.8,5.7c-8,3.1-15.8,6.4-24.2,8.3c-5.6,1.2-11.1,1.3-16.7,0.6c-0.7-0.1-1.4-0.3-2-0.6c-3.1-1.8-6.6-1.9-10-1.5   c-4,0.5-7.9,1.5-11.7,2.8c-0.1,0.2-0.2,0.3-0.2,0.5c0.5,6.5,0.3,5.1,5.2,6.6c1.6,0.5,3.2,1.4,4.9,0.2c3.9,2,8.1,2.2,12.3,1.9   c4.1-0.3,7.8,0.6,11.3,2.8c2.1,1.4,4.6,1.8,7.1,1.9c2.6,0.1,5.2,0.6,7.9,0.5c0.4,0,0.8,0.1,1.1,0.3c3,1.7,6.3,1.8,9.6,2.5   c2,0.5,4.1,0.6,6.1,1.4c0.5,1.2-0.2,2-0.8,3.1c1.7,0.4,1.8,2.2,3.1,3.1c0.9-1,2-1.7,1.6-3.3c-0.4-0.2-0.8-0.4-1.2-0.6   c-0.5-0.2-1-0.4-1.1-1.1c0.2-0.3,0.3-0.5,0.5-0.8c0.7,0,1.4-0.2,2.1,0c2.7,0.4,3.7,3.1,1.9,5.2c-0.9,1.1-2.1,1.8-3.5,2   c-0.6,1.3-0.8,3.1-2.9,2.6c-0.3-1.6-0.1-3.3-1.3-4.6c-3.9-0.2-7.6-1.1-11-2.9c-0.9-0.5-1.9-0.7-2.8-1c-2-0.6-4.2-0.2-6.2-0.8   c-1.3-0.4-2.7-0.7-4-1c-3.6-0.9-7.4-0.2-10.9-0.7c-0.1,1.2,0.8,1.4,1.5,1.6c1.1,0.3,2.3,0.4,3.4,0.6c3.2,0.5,6.5,0.4,9.7,1.4   c1,0.3,2.1,0.4,3.2,0.6c2.7,0.4,5.4,0.5,7.7,2.3c0.4,0.3,0.9,0.3,1.3,0.4c1.9,0.3,3.8,0.6,5.7,0.9c1.1,0.2,1.5,0.8,1.9,1.7   c0.5,1.3,0.2,2.6-0.1,3.9c-1.3,2.8-3.5,3.9-6.6,3.3c-0.2-0.3-0.6-0.5-0.4-1.2c2.3-0.9,4.6-2,5-5.4c-1.4,0-2.7,0-3.9,0   c-1.6,0-3.2-0.2-4.5-1c-1.9-1.2-3.9-1.9-6.1-2.1c-3-0.3-5.9-1.3-8.9-1.8c-3.3-0.5-6.6-1.1-9.7-2.2c-0.8-0.3-1.8-0.4-2.2-0.9   c-0.4-0.8,0.3-1,0-1.4c-1.7-1.1-3.5-2.2-5.3-3.2c-1.3-0.8-2.7-1.3-4.2-1.3c-5.3-0.1-10.5-0.7-15.7-1.9c-0.4-0.1-0.8-0.2-1.1,0   c-1.8,1-3.4,0.2-5.1-0.5c-1.5-0.6-2.6-2-4.1-2.3c-0.7-1-0.7-2-0.6-3.1c0-2.3,0.4-4.5,0.3-6.7c-0.1-3.7-0.9-7.4-1.6-11   c-0.8-4.6-1.7-9.1-1.6-13.8c0.1-6.4,0.3-12.7,0.8-19.1c0.4-4.6,1.3-9,2.6-13.3c1.2-3.9,2.2-7.9,3.5-11.7c0.8-2.4,1.3-4.9,1.1-7.5   c-0.1-1.9-0.3-3.7-0.5-5.6c-0.3-5-1.2-9.8-3.2-14.5c-0.5-1.1-1-2.1-1.4-3.2c-0.3-0.9-0.4-1.7,0.8-2c0.9,0.4,1.3,1.2,1.9,1.9   c1.6,2.2,2.2,4.9,3.3,7.4c1,4.4,1.7,8.8,1.4,13.4c0,0.3,0,0.8,0.2,0.9c1,0.5,0.7,1.4,0.9,2.2c2.6,1.2,5.4,2,8.1,2.7   c2.4,0.6,4.8,1.1,6.8,2.8c0.4,0.3,0.9,0.6,1.4,0.8c4.9,1.9,10,3.3,15.2,3.8c3.5,0.3,7,0.8,10.5,1.3c3.7,0.6,7.3,1.4,11.2,1.5   c0.5,0.5,1,1.1,1.8,1.5c4.4,2.5,8.8,5,12.6,8.3c0,1,1.2,1.4,1.4,2.3c0,0.5-0.4,0.7-0.8,0.9c-1.1-0.3-2.2-0.5-3.2-1   c-1.1-0.5-2-1.2-3-1.8c-1.8-1.1-3.5-2.4-5.5-3.3c-0.4-0.7-1.1-1.1-1.7-1.5c-1.2-0.9-2.3-1.8-2.3-3.5c-2.5-0.1-5-0.5-7.4,0.3   c-0.5,0-0.9-0.2-1.3,0.2c2.8,4.6,6.9,7.7,11.5,10.1c5.8,3,12.1,4.8,18.3,6.6c3.7,1,7.4,1.4,11.2,1.5c2,0.1,4-0.6,6-0.4   c0.7,0.7,1.6,0.3,2.4,0.3c0.9,0,1.8-0.1,2.5,0.7c4.6-2,9.3-3.7,13.9-5.4c5.1-1.8,9.7-4.5,13.9-7.8c0.5-0.4,1.1-0.7,1.4-1.2   c1-2.4,2.4-4.7,2.9-7.3c0.6,0,0.7-0.6,0.9-0.9c0.9-1.4,1.6-2.8,2.6-4.1c2.1-2.8,2.9-6.1,3-9.5c0.1-0.8,0.5-1.5,0.5-2.3   c0-3.4,0.5-6.7,0.5-10c-0.1-2.6-0.4-5.1-1.4-7.5c-0.4-1.1-0.8-2.2-1-3.3c-0.3-2-0.6-4-1.5-5.9c1-1.1,1.8-2.2,1.7-3.8   c-1.5-0.6-2.9-1.3-4.4-1.3c-1.6-0.1-3-0.6-4.4-1.3c-0.9-0.4-1.9-0.7-2.8-1.2c-0.8-0.5-1.6-0.4-2.3-0.1c-2.2-1.5-4.5-3-7.1-3.5   c-1-0.2-2-0.4-2.9-0.8c-4.6-1.8-9.3-3.2-14.2-4.3c-1.4-0.3-2.8-0.9-4.4-0.5c2.9,1,5.7,2,8.4,3c3.2,1.2,6.5,2.5,9.7,3.7   c0.5,0.2,1.1,0.5,1.7,0.3c1.5-0.5,2.5,0.2,3.5,1.2c0.8,0.8,1.5,1.8,2,2.8c1.2,2.3,2.3,4.7,3.4,7.1c1.7,3.7,3.5,7.4,6.3,10.5   c0.7,0.8,1.5,1.4,2.6,1.3c0.1,0,0.2,0.2,0.3,0.3c0.3,0.8-0.6,1-0.6,1.7c0.3,1,0.9,1.9,1.2,3c0.9,4.3,1.1,8.7,1.2,13.1   c-0.4,0.3-0.4,0.6-0.4,1c0.1,3.9-0.8,7.6-2.3,11.2c-0.4,0-0.5,0.3-0.7,0.6c-2,2.8-4.4,5.3-6.9,7.6c-1.4,1.3-2.9,2.5-4.8,3   c-0.3-0.7,0.9-0.9,0.5-1.7c-0.4,0.2-0.8,0.4-1.2,0.6c-4.4,2.2-8.4,5-12.6,7.5c-1.1,0.7-2.3,1.2-3.6,1.6c-0.9,0.3-1.7,0.2-2.5-0.2   c0-0.2,0-0.5,0-0.7c2.6-3,6-4.9,9.4-6.7c3.9-2.1,7.9-4,11.9-5.8c1-0.5,2-0.8,2.7-0.8c1-1,2-1.6,2.6-2.5c1.2-1.6,3-2.9,3.8-4.9   c1.2-2.3,1.3-4.8,1.4-7.2c0.1-4.1,0.3-8.2-0.3-12.3c-0.4-3.1-1.3-5.8-3.5-7.8c-1.6-1.5-2.5-3.3-3.2-5.3c-0.2-0.4-0.3-0.9-0.5-1.3   c-2.1-3.3-3.4-6.9-5.1-10.4c-0.8-1.6-1.5-3.2-3.3-4.5c-1,1.2-2.2,0.4-3.3,0.1c-1.5-0.4-3.1-0.9-4.6-1.5c-7.9-3.1-16.1-5.3-24.5-6.7   c-5.1-0.9-10.2-1.4-15.3-1c-2,0.1-4.1,0.2-6.1-0.1c-4.6-0.7-9.2-1.5-13.8-1.9c-3.6-0.3-7.3-0.7-10.9-0.9c-3.7-0.2-7.5-0.2-11.2,0   c-4.1,0.2-8.1,0.8-12.1,0.9c-4.8,0.3-9.7-0.1-14.4,0.6c-1.5,0.2-2.7-0.7-4.1-0.6c-2.5,0.2-5-0.1-7.5,0.4c-1,0.2-2.2,0.3-3.2,0   c-2.8-0.6-5.6-0.4-8.3-0.1c-4.3,0.4-8.5,0.8-12.8,1.1c-1.8,0.1-3.5,0.5-5.1,1.4c-2.6,1.4-5.2,2.7-7.8,4s-5.6,2-6.4,5.4   c-0.1,0.3-0.6,0.5-0.6,1.1c0.7,1.6,0.3,3.6,0.7,5.5c0.8,3.7,2.1,7.3,3,10.9c0.9,3.6,1.4,7.4,2.8,10.8c1.7,4.2,2.1,8.6,2.4,13   c0.1,1.5,0.2,3.1,0.3,4.7c0.3,4,0.9,8,1.6,12c0.5,3.1,0.9,6.3,1.5,9.3c1.4,6.6,3.2,13.2,5,19.7c1.2,4.3,2.6,8.6,3.8,12.9   c1.7,5.9,3,12,5.2,17.8c0.5,1.2,0.6,2.6,0.8,3.9c0.2,1.8,0.6,3.5,1.5,5.1c1.1,2.1,2.3,4.2,2.2,6.7c0,0.5,0.2,0.9,0.4,1.3   c1.3,2.9,3.3,5.1,6.1,6.5c1.8,0.9,3.7,1.6,5.6,2.2c4,1.2,8.1,1.9,12.3,2.4c1.2,0.1,2.4,0.2,3.4,0.7s1.9,0.6,2.9,0.6   c4.8,0.1,9.6-0.6,14.5-0.5c2.1,0,4.2-0.3,6.3-0.4c1.1,0.1,2.2,0.1,3.2-0.2c1.5-0.4,2.7-0.2,3.5,1c3.5-0.5,6.9-0.6,10.2-0.2   c3.4,0.5,6.7,0.3,10,0.2c1.4,0,2.8-0.5,4.2,0.1c1.1-0.7,0.9-1.5,0.5-2.3c-1.6,0-3.2,0-4.7,0c-1.6,0-3.2,0-4.8-0.4   c-1.7-0.4-3.4-1.2-5.1-1.4c-2.5-0.3-4.8-1-7.1-1.9c-0.5-0.2-1-0.4-1.5-0.5c-2.1-0.3-4.2-0.9-6.4-0.9c-0.6,0-1.1-0.2-1.3-0.8   c0.1-0.1,0.2-0.3,0.3-0.4c0.2-0.1,0.4-0.2,0.6-0.3c2.2-0.4,3.7-0.3,6.1,0.2c2.7,0.5,5.1,1.6,7.8,2c1.3,0.2,2.7-0.1,3.9,0.3   c3.5,1.1,7.2,1.4,10.8,1.4c3,0,3.5,1.2,4.3,3.7C693.4,381.3,693.3,381.9,693.3,382.6z M684.9,366.6c0.8,0,1.6,0,2.3,0.1   c0.2,0.2,0.3,0.4,0.5,0.4c1.5,0,2.8,0.5,4.2,1c2.5,1.1,5,2,7.7,2.1c0.5,0,0.9,0.1,1-0.6c-2.8-1.1-5.8-1.5-8.7-2   c-1.5-0.8-3.1-1.2-4.7-1.2c-0.8,0-1.5,0-2.3-0.1c-1-0.6-2.1-0.6-3.6-0.2C682.8,366.2,683.8,366.4,684.9,366.6z M40.5,376   c-0.7-0.9-1.4-1.8-1.8-2.9c-0.1-1.2-0.1-2.3-0.2-3.4c-1.2-1.1-2.4-2.2-3.6-3.4c-0.4,0-1.1-0.2-1.7,0.4c-0.3,0.9-0.2,1.8,0,2.9   c0.7,0.7,1.6,1.2,2.1,2.1c0.8,1.2,1.7,1.9,2.9,2.5C38.8,374.9,39.4,375.8,40.5,376c0.6,1.4,2,2.1,3.3,2.6c1.3,0.6,2,1.5,1.7,2.9   c1.6-0.2,2-1.1,2-2.4c-0.3-0.4-0.6-0.9-1.1-0.8c-1.5,0.1-2.6-0.8-3.9-1.3C41.8,376.7,41.4,375.9,40.5,376z M837.9,324.5   c0.3,0.9,1,0.4,1.5,0.5c0,0.2,0.1,0.4,0.3,0.3c1.4-0.8,2.8-1.2,4.4-1.3c1.2-0.1,2.6-0.3,3.5-1c1.9-1.4,4.1-1.2,6.2-1.4   c0.9-0.1,1.8-0.3,2.8-0.4c2.5-0.3,4.8-1.3,7.2-1.8c0.4-0.1,0.7-0.4,0.9-1c-0.3-0.7-0.6-1.7-0.6-2.7c0.4-0.9,1.2-1.4,1.8-1.8   c-0.6-2.8-0.6-5.4-0.1-8c0.2-0.9,0.3-1.7-0.2-2.7c-1.3-2.6-2.8-5-4.2-7.5c-0.9-1.5-2.6-1.2-3.6-2.2c-0.8,0.3-1.3,0.9-1.9,0.9   c-0.5-0.2-1-0.2-1.4-0.5c-2.6-1.4-5.3-2.5-7.9-3.9c-3.8-2-7.8-3.8-10.4-7.2c-1.2,0-2.3,0.1-3.4,0c-1.6-0.1-2.4-1.3-1.9-2.8   c0.3-0.7,0.5-1.5,0.8-2.2c0.5-1,1-1.8,2.1-2.3c1.9-0.9,3.1-2.6,4.2-4.3c0.4-0.5,0.5-1.1-0.1-1.7c-2.5,3.7-6.1,5.4-9.9,6   c-1.4-0.2-0.6-1.7-1.6-1.7c-0.7,0.2-0.8,0.6-0.8,1.2c-0.1,1.4-1.1,2.2-2.4,2.5c-0.7,0.2-1.4,0.2-2.1,0.1c-1.1-0.3-2-0.3-2.8,0.3   c-0.5-0.4-0.8-0.8-0.4-1.1c1.2-1.1,1.1-2.5,0.8-3.9c-0.1-0.6,0-1.2,0-1.9c0.1-0.6,0.3-1,1.1-1c1.2,0.8,0.3,2.2,0.9,3.2   c0.7,0.2,1.4,0.3,2,0.5c2,0.1,2.3-2.8,4.3-2.5c1.2,0.4,1.4,1.6,2.3,2.1c0.6-0.3,1.4-0.2,1.9-0.8c-2.6-1.6-3.9-3.5-2.7-5.7   c-0.9,0.3-1.7,0.5-2.6,0.5c-0.9,1-1.7,1.9-3,2.3c-1.3-0.2-2.6-0.3-3.2-1.9c-0.5,0.6-0.9,1.1-1.4,1.5c-1.8,1.8-3.1,4.1-5.6,5.1   c-0.6,0.2-0.9,0.8-0.9,1.6c1,0.9,2.6,1.4,2.9,3c-0.2,0.5-0.5,0.6-0.9,0.7c-1.9,0.6-3.7,1.1-5.7,0.9c-0.9-0.1-2-0.3-2.7,0.2   c-1.3,0.9-2.7,1-4.2,0.8c-1.6,2.4-3.4,4.5-5.7,6.1c-0.4,0.3-0.6,0.9-0.9,1.4c-0.4,0.7-0.8,1.4-1.1,2c-1.6,3.2-3.9,6-4.7,9.5   c-0.7,0.8-1.2,1.7-1.5,2.8c-0.1,0.6-0.5,1.6-1.5,1.3c-0.5-0.7-0.4-1.4-0.1-2c1.5-3.6,2.5-7.4,4.4-10.9c1.5-2.7,3.2-5.3,5.3-7.5   c0.9-0.6,2-1.1,2.6-1.9c1.9-2.4,4.7-3.2,7.5-4c1.7-0.5,3.5-0.6,5.3-0.8c-0.7-2-0.7-2,0.6-3.7c1.6-2.1,3.6-3.8,5.6-5.5   c1.5-1.3,3.2-2.4,4.4-4c-0.8-1-1.7-1.9-2.4-2.9c-0.5-0.7-1.1-1.4-2-1.4c-1.1,0-1.7-0.7-2.3-1.5c-1.1,0.5-2.1,0.5-3-0.3   c-0.5-1.5,1-1.6,1.7-2.3c-0.5-0.4-1.2-0.7-1.2-0.9c0.1-1.3-1.1-1.7-1.6-2.6c-0.5-1.1,1.3-1.2,0.9-2c-13-2.6-26.2-3.7-39.1-6.4   c-0.4,2.3-0.2,4.3,0.4,6.2c0.9,2.8,1.3,5.6,1.2,8.4c-0.1,3.6-0.4,7.1-0.8,10.7c-0.5,4.1-1.4,8-3.6,11.6c-0.3,0.5-0.8,1.2-0.6,1.8   c0.5,0.5,1.4-0.2,1.6,0.7c-0.5,1.2-1.7,0.9-2.7,1.1c-0.3,1.1-1.3,1.9-1.4,3.1c-1.1,1.9-2,4.1-2.2,5.5c3.4,0.5,6.8,1.4,10.1,2.4   c2.3,0.7,4,2,5.4,3.8c0.5,0.6,1,1.3,0.7,2.1c-0.5,1.6-0.2,3.2-0.3,4.7c-0.1,2.9-0.3,5.9-0.3,8.8c0,2.5-0.1,5.1,0.5,7.6   c0.3,1.1,0.8,1.8,2,1.9c1.3,0.3,2.5,0.6,3.8,0.9c0.8-0.5,1.5-1.1,2.3-1.5c2-1,4.1-1.4,6-0.1c1.4,0.9,2.8,1.2,4.3,1.6   c0.7-0.8,1.3-1.5,1.9-2.2c-0.1-1.4-0.2-2.6-0.3-3.8c-0.1-0.7-0.7-1.2-1-1.8c-0.5-1-0.3-1.4,0.9-2.4c0.7,0,1.1,0.6,1.6,0.9   c0.2,0.8,0.2,1.5,0.2,2.3c0,2.6,0.1,5.2,1.8,7.5c0,0.3,0.2,0.4,0.4,0.3c2.3-0.4,4.5-1.4,7.1-0.9c-1.2-1,0.2-1.5,0.2-2.2   c-0.4-0.4-0.9-0.7-0.8-1.4c0.5-1.4,2.1-2,3.2-2.9c0.6-0.5,1.4-0.3,2,0c1.1,0.5,1.9,1.3,2.5,2.4c0.2,0.4,0,0.8-0.5,0.9   c-0.9,0-1-1.2-1.8-1.3c-1.9-0.2-3.1,0.6-3.7,2.6c2.3,1.3,2.3,3.8,3.2,5.8c-0.5,0.8-1.4,0-1.9,0.7c1.7,2.5,1.9,2.6,4.2,1.3   c0.5-0.3,1-0.2,1.5-0.6c2.9-2.2,6-4.1,9.3-5.7c2.2-1,4.6-1.2,6.7-2.3C836.5,323.3,837.4,323.6,837.9,324.5z M10.5,372.2   c-0.5,0.4-0.3,0.9-0.3,1.5c-0.3,1.4-1.8,1.8-2.6,2.9c0.9,0.7,1.1,1.8,2.2,2.2c1.3-0.7,2.6-1.4,4-2.1c1.7-2.7,1.4-6,2.1-9   c1.3,0.3,1.3,1.1,1.4,1.8c0.2,2.4-0.1,4.7-0.7,6.9c-0.3,1.2-0.6,2.4-0.7,3.6c-0.2,2.3,0.2,2.8,2.5,3.4c0.5,0.1,0.9,0.8,1.6,0.3   c0.4-1.1,0.6-2.5,1.3-3.6c0.7-1.2,0.8-2.5,0.8-3.8c0.1-2.3-0.1-4.7,0.2-7c0.1-0.5,0.2-0.9,0.8-1c0.8,0.9,0.8,0.9,0.8,1.9   c0.3,3.7,0,7.5,2.6,10.7c0.1,0.2,0.1,0.5,0.2,0.7c0.3,0.9,0.8,1.7,1.8,2.3c1.5-0.3,3.2,0.6,4.7-0.9c0-2.3-2.4-3.7-2-5.9   c-0.7-0.7-1.3-1.4-1.9-2c-0.8-0.8-1.5-1.8-2-2.9c-0.3-0.9-0.1-1.5,0.7-2c1.1,0.6,1.2,2.1,2.4,2.7c0.2,0.6,0.8,0.9,1.3,1.3   c1.3,1,2.1,2.2,1.8,4.1c2,0.9,1.4,3.7,3.5,4.5c2.2-1,4.1,0.3,6.3,0.4c-0.9-1.2,0.9-1.6,0.4-2.9c-2.6-1.2-4.6-3.3-6.9-5.1   c-1.5-1.2-3.1-2.3-4.6-3.5c-0.1-0.1-0.3-0.1-0.5-0.1c-1.5-2.1-1.4-3.6,0.3-5.5c0.2-0.2,0.5-0.5,0.5-0.8c0-1.8,1.2-2.6,2.4-3.5   c2.5-1.9,5.1-3.7,8-5.2c2.4-1.2,4.9-2.4,7.3-3.7c3.6-2,7.1-4.1,10.8-6c9.4-4.7,18.5-9.9,27.5-15.2c4-2.4,8.3-3.7,12.9-4.5   s9.2-1.1,13.8-2.2c1.6-0.4,3.1-1.2,4.9-1.1c3.1,0.1,6.2-0.1,9.3-0.5s6.2-0.6,9.3-0.7c7.3-0.2,14.6-0.6,21.9-0.2c0.8,0,1.7,0,2.6,0   c-0.2-0.5-0.5-0.5-0.8-0.5c-0.1,0-0.1-0.1-0.2-0.1v-0.1c1.8,0.1,3.6,0.2,5.4,0.3c5.8,0,11.7,0,17.5,0.1c0.8,0,1.6,0,2.3,0.2   c3,0.5,6.1,0.4,9.1,0.2c3.2-0.2,6.3-0.8,9.5-0.8c0.5,0,0.9,0,1.4-0.1c3.9-1,8-1.3,12-1.6c5.7-0.5,11.3-1,17-1c2.2,0,4.4,0,6.5-0.4   c0.5-0.1,1-0.1,1.4,0.1c1.5,1,3.1,0.7,4.9,0.8c0.5-1.1,1.5-1.2,2.5-1.1c0.8,0.2,1.7,0.3,2.5,0.5c7.1,2.2,14.3,4.1,21.2,6.9   c0.9,0.4,1.8,0.6,2.7,0.5c2.2-0.4,4.5-0.4,6.7-0.6c4.7-0.4,9.5-0.7,14.2,0.1c0.5,0.1,1.1,0,2.2,0c-2.7-1.1-5-1.7-6.7-4.2   c2.5,0.2,4.2,1.1,6.1,1.7c2,0.6,4,1.2,6,1.9c1.8,0.7,3.9,0.7,5.5,1.8c0.3,0.8-0.4,1-0.3,1.5c1.8,0.5,3.6,0.9,5.4,1.4   c3.1,0.8,6.1,1.8,9.2,2.4c7.5,1.5,15.1,2.8,22.5,4.6c3.6,0.8,7.2,1.1,10.9,1.3c0.5,0,1.1-0.1,1.5-0.6c0.1-1.4,0.2-2.9-0.1-4.4   c0-0.3,0-0.6,0.1-0.9c0.9-4.4,0.9-8.8,0.6-13.2c-0.3-4.7-0.5-9.5-1.1-14.2c-0.4-3.1-0.6-6.2-1.1-9.2c-0.6-3.4-1-6.8-1.2-10.2   c-0.5-7.3-0.1-14.6,0.4-21.9c0-0.2,0-0.3,0-0.5c0.5-3.1,1.1-6.3,1.6-9.7c-3.4,0.2-6.5,0.1-9.7,0.5c-4.4,0.6-8.7,1.5-13,2.3   c-4.8,0.9-9.4,2.6-14,4c-3.3,1-6.7,2-10.2,2.1c-1.6,0.1-3.2,0.4-4.8,0.7c-7.3,1.7-14.7,3.1-22.2,4.1c-1.1,1-2.5,1.6-4,1.9   c-3.6,0.8-7.2,1.7-10.9,2.1c-1.8,0.2-3.6,0.3-5.2,0.9c-2.1,0.7-4.2,0.9-6.4,0.9c-3.8,0-7.6,0-11.3-1.3c-0.3-0.1-0.6-0.1-0.9-0.1   c-3-0.2-6-0.8-9-1.2c-3.2-0.4-6.4-1.1-9.7-1.2c-2-0.1-4-0.5-6-0.7c-3.9-0.5-7.9-1-11.8-1.1c-7.5-0.2-14.9,0.1-22.3,1.5   c-2,0.3-3.9,0.1-5.9,0.6c-8.5,2.1-16.9,4.9-25.1,8c-14.9,5.6-29.9,10.8-45.6,13.6c-4.2,0.8-8.4,1.7-12.6,2   c-3.7,0.3-7.5,0.3-11.2,0.7c-3.7,0.4-7.4,0-11.1,0.7c-2.1,0.4-4.5-0.2-6.7-0.6c-3.9-0.7-7.5-2.5-11.4-3.6c-0.7-0.2-1.1-0.8-1.5-1.4   c-0.8-1.4-2-2.3-3.2-3.4c-0.5-0.5-1.1-0.9-1.9-0.8c-2.7,0.2-5.3-0.3-7.9-0.6c-2.8-0.4-5.6,0.1-8.2-0.9c-1,0.7-1.7,1.6-2.2,2.6   c-1.2,2.1-2.4,4.1-3.6,6.2c-0.4,0.7-0.8,1.4-1,2.1c-0.4,2.3-0.9,4.7-1.1,7.1c-0.3,4.1-0.4,8.3-0.4,12.4c0,3.1-1.2,5.9-2,8.8   c-0.3,1.2-1.2,2.2-1.8,3.2c-2.7,4.5-5.5,9-9,12.9c-1.2,1.4-2,2.9-2.8,4.5c-1.1,2.5-1.9,5.1-2.7,7.6c-0.5,1.7-1.3,3.3-1.4,5.1   c-2.1,3.4-1.5,7.2-1.1,10.9c0.1,0.9,0.1,1.9,0.9,2.5c0.4-0.8-0.3-1.9,0.8-2.4c0.6,0.2,0.8,0.7,0.9,1.2   C10.6,369.7,10.4,371,10.5,372.2L10.5,372.2z M67.7,357.7c-0.2-0.9-0.3-1.8,0.2-2.7c1.6-3,2.9-6.2,5-8.9c1.1-1.4,2.4-2.8,3.6-4.1   c-5.9,2.8-11.1,6.6-16.8,9.6c-0.2,1.3,0.6,2.9-1.1,3.6c-1.4-0.5-0.6-1.8-1.2-2.7c-4.9,2.2-9.6,4.5-14.1,7.4c1,1.3,1.1,3,2.3,4.1   c0.6,2,0.9,3.9,0.2,5.9c-0.5,1.5-0.1,2.9,0.9,4.1c0.6,0.7,1.2,1.5,2,2c1,0.7,1.7,1.6,2.3,2.6c0.7,1.2,1.8,1.7,3.3,1.7   c3.4,0.2,6.5-1.3,9.7-1.8c0.3,0,0.8-0.3,0.9-1.1c0.1-0.6,0.2-1.5-0.4-2.4c-1.4-0.2-2.8-0.3-4.1-0.4c-1.4-0.2-2.9,0.6-4.1-0.8   c0.6-1.5,2-1.5,3.3-1.7c-1-1.4-3.2-1.4-3.2-3.6c1-0.4,2-0.9,2.5-1.8c1.4,0.7,0.2,1.7,0.3,2.5c1.4,0.9,2.7,1.8,4.1,2.8   c1.6-2.2,3.9-1.6,6.2-2.1c-1.1-1.8-2.5-3.4-1.9-5.7c-0.9-1.4-0.4-2.8-0.1-4.3C67.6,359.2,68.1,358.5,67.7,357.7z M520.2,329.7   c-1.3,0.6-0.2,1.3,0,1.9c-0.3,6-2.7,11.1-6.2,16c0.5,1.6-0.4,3.2-0.3,4.9c5-1.4,10.1-1.7,15-2.1c3.7-0.3,7.5,0.1,11.2-0.4   c3.9-0.5,7.5,1,11.2,1.6c2.8,0.4,5.5,1.3,8.2,1.5c4.6,0.3,9.2,0.3,13.8-0.2c2.9-0.3,5.8-0.3,8.6,0c1.9,0.2,3.7,0.1,5.6,0.2   c0.8,0,1.5-0.3,2.1-0.8c1-0.9,2.1-1.1,3.4-1.1c1.2,0,2.3,0,3.5-0.4c1.8-0.6,2.7-2.2,1.8-3.8c-1.3-2.3-1.7-4.8-2.3-7.3   c-0.8-2.9-1.2-6-2.7-8.7c-0.1-0.5-0.1-0.9-0.2-1.4c-1.8-5.3-3.3-10.7-4.7-16.1c-2.1-8-3.6-16.1-4.8-24.3c-0.8-5.3-1.1-10.7-1.5-16   c-0.2-2.6-0.8-5-1.5-7.5c-1.1-3.3-2.7-6.4-2.7-9.9c0-0.1-0.1-0.3-0.2-0.4c-0.3-0.1-0.7-0.2-1.2-0.3c-0.1-0.7,0-1.6-0.9-2.2   c-1.6,0-3.4,0-5.2,0c-1.9,0.1-3.7-0.2-5.4-1c-1.1-0.5-2.2-0.9-3.3-0.9c-3.4,0-6.8,0-10.2,0c0,1.4,0,2.6,0,3.9c0,3,0.1,6.1,0.1,9.1   c0,0.9,0.1,1.9-0.9,2.4c-0.2-0.3-0.4-0.4-0.4-0.6c-0.9-5-0.4-10.1-0.9-15.2c-1.4-0.1-2.6-0.2-4.1,0.1c0,4.5,0.1,8.8,0,13.2   c-0.2,4.3-0.1,8.6-1.3,13.1c-0.9-1.1-0.8-2-0.9-2.9c-0.3-6.1,0.1-12.3,0-18.5c0-1.5,0-2.9,0-4.3c-1.6-1.3-3.5-1-4.9-2   c-0.4-0.5-0.3-1.4-1.1-1.9c-0.3,0-0.8-0.2-1.5,0.1c0,1.8-0.7,3.6-1.4,5.4c-0.9,2.6-1.3,5.3-0.8,8c0.1,0.7,0.4,1.5,0.2,2.1   c-0.9,2.4-0.7,5.1-1.4,7.5c-0.3,0.8-0.4,1.7-0.3,2.5c0,3.3-0.5,6.5-0.6,9.8c0,2-0.2,4-0.4,6c-0.4,3.2-0.8,6.3-0.9,9.5   c-0.4,0.3-0.7,0.6-1.2,0.6c-0.1,0.6-0.3,1.2-0.4,1.8c-1.2,4.8-2.4,9.7-3.9,14.4c-0.3,0.9-0.7,1.9,0.3,2.8c0.5-1.2,1.1-2.4,1.6-3.6   c0.3,0.1,0.6-0.7,1,0c-0.5,1.1-1,2.1-1.5,3.2s-0.9,2.2-1.5,3.1c-0.5,0.8-0.4,2.1-1.7,2.5c0.1,1.1-0.2,2-0.9,3   C520.5,327,520.1,328.3,520.2,329.7z M628.7,330.1c0,1.2,0,2.3,0.3,3.5c0.6,3,1,6.1,1.7,9.1c0.3,1.4,0.2,2.9,0.6,4.3   c4-1,7.9-2,11.9-2.6c2.1-0.3,4.3-0.3,6.3-1.5c0.5-0.3,1.4-0.2,2.1-0.1c2,0.3,4,0.8,5.9,1.1c5,0.8,9.8,2.1,15,1.2   c3.7-0.6,7.4-1.2,10.9-2.2c6.8-2,13.5-4.6,20.2-6.9c0.9-0.3,1.7-0.7,2.4-1.4c2.3-2.7,4.9-5,7.4-7.5c5.4-5.4,9.8-11.8,15.4-17   c-0.6-0.5-1.7,0.2-2-0.8c0.3-0.7,1.2-0.5,1.6-1c-0.9-0.2-1.9-0.3-2.7,0.3c-6-0.1-12,0.4-17.9-0.8c-6.7-1.4-13.2-3.4-19.2-6.7   c-2.6-1.5-5-3.3-7-5.7c-2-2.5-3.9-5-5.4-7.9c-14.4-1-27.9-4.8-40.2-12.5c-0.2,0.4-0.5,0.6-0.5,0.9c-0.6,3.3-1.5,6.6-2,10   c-0.3,2.1-0.6,4.3-2,6.1c-0.3,0.4-0.3,0.9-0.4,1.3c-1.8,6.1-2.5,12.4-2.6,18.8c-0.2,5.5-0.1,10.9-0.1,16.4   C628.3,329,628.1,329.7,628.7,330.1z M506.6,326.8c1.7,0.2,3.4-0.4,5.1,0.3c-0.1,0.3-0.1,0.4-0.1,0.4c-0.3,0.3-0.7,0.2-1.1,0.2   c-2.8-0.1-5.3,0.8-7.7,2.1c-2.7,1.5-5.1,3.5-7.5,5.4c-4.5,3.7-8.2,8.1-10,13.7c-0.2,0.5-0.6,1.1-0.1,1.9   c10.1-6.2,19.9-13,31.1-16.8c0.6-2.9,1.9-5.3,2.1-8.1c-1.1-0.1-1.9-0.2-2.8-0.3c0.9-1.5,2.9-1.1,3.5-1.7c2.1-3.1,2.6-6.1,3.4-9.1   c1.4-5.2,2.5-10.4,3.8-15.6c0.5-2,1-4,1.4-6.1c-1.6-0.7-3.3-0.6-4.8-1c-3.4-0.8-6.8-0.2-10.2-0.8c-1.1-0.2-2.3,0-3.5,0.1   c-2.3,0.2-4.5,1.2-6.8,1.2l0,0c0.3-0.8,1.6-0.3,1.7-1.3c-2-0.2-4-0.3-6,0.1c-1.7,0.3-3.4,0.2-5.1,0.3c-0.4,0-0.8-0.1-0.7-0.8   c1.5-0.2,3.2-0.5,4.8-0.6c4.1-0.1,8.2-0.6,12.4-0.5c0.9,0,1.8-0.2,2.8-0.3c1.9-0.3,3.8-0.7,5.8-0.6c3,0.2,6.1-0.2,9.1,0.4   c0.4,0.1,0.8,0.1,1.3-0.3c0.8-4.3,0.9-8.7,0.6-13.4c-3.4-1-6.7-2.3-10.3-2.3c-1.3,0-2.5-0.4-2.7-1.9c0.9-1.8,2.5-1.4,3.9-1.1   c3.2,0.6,6.3,1.5,9.3,2.6c0.7-1.8,0.5-3.7,0.9-5.5c0.8-4.2,1.2-8.5,2.6-12.6c0.2-0.5,0-1.2,0-1.8c-0.8-0.3-1.3-0.7-1.6-1.4   c0.3-1.1,0.7-2.2,1-3.3c-1.2-2.3-2.3-4.7-3.5-7.1c-1.2-0.2-2.1-0.9-3.1-1.5c-3.4-2.3-7.2-3.6-11.2-3.7c-3.1-0.1-6.1-0.5-9.1-1.4   c-3.5-1-7.2-1.9-10.8-1.9c-6.5-0.1-13.1-0.6-19.6,0.5c-2.8,0.5-5.6,1.1-8.5,1c-0.3,0-0.6,0.3-0.9,0.3c-3.2,0.9-6.5,1.8-9.7,2.8   c-3.6,1.1-7.2,2.4-10.9,3.7c0,1.4-1,1.7-2.2,1.6c-1.3,0-2.6,0-3.9,0c-1.7-1.3-3.6-1.7-5.6-2c-0.4,0.3-0.8,0.8-1.2,0.8   c-2.4,0.3-3.7,2.1-5.3,3.6c-1.6,1.5-3.4,2.6-5.7,2.7c-0.7,0-1.2,0.4-1.7,0.7c-1,0.6-2,1.1-3.2,1.2c-1,0.1-1.6,0.6-2.1,1.5   c-2,3.2-4.1,6.4-6.2,9.6c-0.9,1.4-1.7,2.8-3.2,3.7c2.1-5,5-9.5,8.1-14.3c-2.9-0.3-5.2-1.5-7.7-2.4c-1.8-0.7-3.6-0.7-5.3,0.3   c-5,3.1-10.5,2.7-16,2.2c-2.1-0.2-4.1-1-6.1-1.1c-2.8-0.1-5.7-0.5-8.5,0c-1.5,0.3-2.9,0.1-4.3,0c-0.1,0-0.3,0.1-0.4,0.1   c-0.7,0.5-0.5,1.3-0.7,2c-1.7,6-2.7,12.2-2.6,18.4c0,5-0.2,9.9,0.4,14.9c0.4,3.1,0.8,6.3,1.2,9.4c0.4,3,0.9,5.9,1.2,8.9   c0.5,4.6,1.2,9.2,1.1,13.9c0,0.5,0.1,0.9,0.1,1.4c0.6,3.2,0.5,6.6,0.2,9.8c-0.3,2.9-0.8,5.8-0.8,8.8c0,0.7,0.2,1.5-0.1,2.1   c-0.8,2.1-0.4,4.1-0.4,6.2c-0.3,1.7-0.6,3.3-0.9,5.1c3,0.4,6-0.3,9-0.6c2.3-0.2,4.6-0.4,6.9-0.7c1.7-0.2,3.4,0.4,5.1,0.4   c1.5,0,2.9,0.5,4.2,1.3c2.5,1.5,5,3.1,7.4,4.8c1.3,1,2.7,1.3,4.3,1.4c1.9,0.1,3.7-0.5,5.5-0.5c3.3,0,6.5,0,9.8,0.3   c3.9,0.4,7.8,0.2,11.7,0.2c2.2,0,4.3-0.1,6.5-0.3c2.9-0.3,5.9-0.2,8.9,0c3.1,0.3,6.2,0.8,9.2,0.7c2.1,0,4.3,0.1,6.4,0   c8.2-0.1,16.5,0.5,24.7-0.4c2.7-0.3,5.4-0.7,8-0.9c0.4,0,0.7-0.2,1.1-0.4c2.1-1.2,4.2-2.3,6.3-3.5c4.8-2.8,9.6-5.7,14.9-7.7   c-0.2-1.2-0.2-1.8,0.3-2.3c1.4-1.7,1.6-3.7,2.2-5.8c-1,0.4-1.8,0.6-2.6,1c-6.6,2.8-12.8,6.3-18.7,10.3c-2.8,1.9-5.4,3.9-8.3,5.5   c-0.9,0.5-1.7,0.7-2.6,0.3c-0.8-0.9-0.6-1.9-0.3-2.9c0.4-1.2,0.9-2.3,1.4-3.4c1.3-2.7,3-5,4.6-7.5c0.7-0.7,1.4-1.4,2.2-2.1   C495.7,333.1,500.4,328.9,506.6,326.8z M111.9,287.8c-1.2,0.1-2.3,0.2-3.5,0.2c-6,0-12,0-18,0c-0.8,0-1.5-0.1-2.3-0.2   c-2.3-0.3-4.5-1.2-6.7-1.5c-6.6-1-12.1-4.5-17.9-7.4c-4.9-2.5-9.7-3.7-15-2.5c-3.1,0.7-5.8,2.2-7.9,5.1c3.3-0.1,6.4,0.3,9.1,0.8   c0.8-0.1,0.5-0.6,1-0.8c1.8,0.2,3.7,0.5,5.5,1.5c1.4,0.8,2.7,1.8,4.2,2.5c1.1,0.6,1.7,1.2,1.7,2.4c1.7,1.2,3.4,2.1,5.2,3   c1.2-1,2.5,0.2,3.8-0.1c2.4-0.6,4.8-0.4,7.2-0.4c8.8-0.1,17.6,0.1,26.4-0.5C107.2,289.8,109.6,288.9,111.9,287.8z M583,224.2   c5.4-2.1,10.8-3.6,16.6-3.7c6.7-0.1,13.3,0.4,20-0.2c4.6-0.4,9.2-0.2,13.8,0c4.2,0.2,8.4,0.5,12.6,0.2c6.2-0.4,12.4-1.2,18.6-1   c0.1,0,0.2-0.1,0.4-0.2c-4.1-0.7-8.2-1.2-12.2-1.7c-1.6-0.2-3.2-0.2-4.8-0.5c-2.8-0.5-5.7-0.8-8.5-0.8c-7.7,0-15.4-0.5-23.1,0.4   c-2.8,0.3-5.6,0-8.3-0.4c-3.3-0.5-6.5,0.3-9.7,0.9c-3.8,0.8-7.6,0.9-11.3,1.8C583.9,220,582.8,221.2,583,224.2z M261.6,268.6   c-2.7-0.7-5.3-1.7-7.9-2.7c-1-0.4-2-0.6-3.1-0.9c-3-0.9-6.1-1-9.1-1.8c-1.1-0.3-2.1-0.9-3.3-0.9c-2.9-0.1-5.7-0.3-8.6-0.4   c-3.4-0.1-6.8,0.1-10.3,0.3c-4.2,0.3-8.3,1.3-12.8,1.6c0.8,0.4,1.4,0.3,2.1,0.3c2.6,0.2,5.1,0.3,7.7,0.6c3.7,0.4,7.2,1.2,11,1   c6.5-0.3,12.9,1.2,19.3,2.4c3.2,0.6,6.3,1.5,9.6,1.2C258,269.1,259.8,268.7,261.6,268.6z M651.5,359.9c-2.7-0.2-5.2-0.9-7.8-1.4   c-2.3-0.5-4.4-1.8-6.9-1.8c-0.5,0-0.9-0.5-1.2-1c-0.4-0.8-0.7-1.7-0.8-2.6c-0.1-1.1-0.3-2.1-0.5-3.2c-1.2,0.4-2.3,0.4-3.3,1   c-0.3,1.6-0.2,3.3-0.2,5c1,0.6,2.1,0.5,2.9,1c2.4,1.4,5.1,2.1,7.9,2.6C644.9,360,648.2,360.4,651.5,359.9z M673.7,364.6   c-1.7-0.6-3.1-1.6-4.6-2.4c-1.4-0.7-2.7-1.5-4.3-1.6c-2.3-0.1-4.6,0-7.2,0C662.3,364.9,667.6,366,673.7,364.6z M41.8,361   c-1.8,1.4-3.6,2.3-5,3.9c0.4,0.8,1.1,0.9,1.6,1.4c1.2,1.2,2.5,2.1,2.7,4.1c0.1,1.2,0.7,2.7,2.5,3.3c-0.6-2.4-0.3-4.6,0.6-6.6   C43.2,365.2,42.2,363.3,41.8,361z M66.7,375.2c0.9,1.2,1.1,2.5,0.9,4.1c1.7-0.2,3.3-0.1,4.1-1.8c-0.4-1.2-0.9-2.4-1.3-3.6   c-0.9-0.3-1.7-0.8-2.6-0.5C67.8,374.1,67.2,374.5,66.7,375.2z M829.9,267.6c1.2,2.6,2,3.3,3.9,3.5c0.6-0.5,1.2-0.9,1.6-1.6   C834.2,267.2,832.7,266.6,829.9,267.6z M872,277c-0.7-1.7-1.7-3-3.1-4c-1.5-0.1-2.8,0.2-4.2-0.3C867.1,274.3,869.5,275.7,872,277z    M528,291.3c-2.9-1.3-6-1.1-9-0.7C522,290.5,524.9,291.9,528,291.3z M820.7,267.4c0.9,0,1.8,0,2.7,0c0.8-0.6,1.5-1.1,2.3-1.7   C823.4,264.1,822.1,266.1,820.7,267.4z M837.4,267.9c-0.9-1.6-2.2-2.4-4-2.5C834.9,266.8,835.9,267.5,837.4,267.9z M838.1,275.8   c0.8-0.7,1.3-1.3,0.9-2.5C838.1,274,837.5,274.5,838.1,275.8z" />
	<path fill="#FCE0D4" d="M692.9,292.7c2,0.9,3.7,2.2,5.5,3.3c1,0.6,1.9,1.3,3,1.8c1,0.5,2.2,0.7,3.2,1c0.4-0.2,0.8-0.4,0.8-0.9   c-0.2-0.9-1.3-1.2-1.4-2.3c0-0.7-0.1-1.4,0-2.1c0.2-2-0.5-3.5-2-4.9c-1.8-1.6-3.6-3.2-5.5-4.5c-2.8-1.9-5.4-4.3-8.5-5.9   c-0.8-0.4-1.5-1.1-2.2-1.6c-2.4-1.8-4.8-3.5-7.2-5.4c-0.7-0.6-1.3-0.5-2.1-0.1c-0.8-0.8-1.5-1.8-3.2-0.9c1.1,1.8,1.2,3.9,1.6,6   c-1.1,0.2-2.1,0.3-3.2-0.1c-1.1-0.3-2.2-0.6-3.3-0.7c-3.9-0.6-7.7-1.8-11.4-3c-2.9-0.9-5.8-2-8.5-3.1c-3.1-1.3-6.1-2.8-8.6-5.3   c-2.3-2.4-3.8-5.3-6-7.8c-1-2.5-1.6-5.2-3.3-7.4c-0.6-0.8-1-1.5-1.9-1.9c-1.3,0.3-1.2,1.2-0.8,2c0.4,1.1,0.9,2.1,1.4,3.2   c2,4.6,2.9,9.5,3.2,14.5c0.1,1.8,0.3,3.7,0.5,5.6c0.2,2.6-0.3,5.1-1.1,7.5c-1.3,3.9-2.3,7.8-3.5,11.7c-1.3,4.3-2.2,8.8-2.6,13.3   c-0.6,6.4-0.8,12.7-0.8,19.1c-0.1,4.7,0.8,9.2,1.6,13.8c0.7,3.7,1.4,7.3,1.6,11c0.1,2.2-0.3,4.5-0.3,6.7c0,1,0,2,0.6,3.1   c1.5,0.3,2.6,1.6,4.1,2.3c1.7,0.7,3.3,1.5,5.1,0.5c0.3-0.2,0.8-0.1,1.1,0c5.2,1.2,10.4,1.8,15.7,1.9c1.5,0,2.9,0.6,4.2,1.3   c1.8,1.1,3.6,2.2,5.3,3.2c0.3,0.5-0.4,0.7,0,1.4c0.3,0.6,1.3,0.6,2.2,0.9c3.2,1.1,6.4,1.7,9.7,2.2c3,0.4,5.9,1.5,8.9,1.8   c2.2,0.2,4.2,0.9,6.1,2.1c1.3,0.8,2.9,1,4.5,1c1.2,0,2.5,0,3.9,0c-0.4,3.3-2.7,4.4-5,5.4c-0.2,0.6,0.2,0.9,0.4,1.2   c-0.9,0.4-0.8-0.8-1.4-0.9c0-0.6,0.1-1.3-0.1-1.9c-0.9-2.5-1.3-3.7-4.3-3.7c-3.7,0-7.3-0.2-10.8-1.4c-1.3-0.4-2.6-0.1-3.9-0.3   c-2.7-0.3-5.2-1.5-7.8-2c-2.5-0.5-3.9-0.6-6.1-0.2c-0.2,0-0.4,0.1-0.6,0.3c-0.1,0.1-0.2,0.2-0.3,0.4c0.2,0.6,0.7,0.8,1.3,0.8   c2.2,0,4.3,0.6,6.4,0.9c0.6,0.1,1,0.3,1.5,0.5c2.3,0.9,4.6,1.6,7.1,1.9c1.7,0.2,3.3,1.1,5.1,1.4c1.6,0.3,3.2,0.4,4.8,0.4   c1.5,0,3.1,0,4.7,0c0.4,0.8,0.6,1.6-0.5,2.3c-1.3-0.6-2.8-0.1-4.2-0.1c-3.3,0.1-6.6,0.2-10-0.2c-3.3-0.5-6.7-0.3-10.2,0.2   c-0.8-1.2-2-1.4-3.5-1c-1.1,0.3-2.1,0.3-3.2,0.2c-2.1-1.1-4.5-0.9-6.8-1.3s-4.6,0-6.9-0.5c-2-0.4-4.1-0.2-6.2-0.5   c-2-0.3-3.9-0.6-5.8-1c-4.9-0.9-9.4-3-13.8-5.2c-1.2-0.6-2.5-1.4-3.2-2.8c-2.2-4.3-3.9-8.9-5.8-13.4c-1.3-3.1-2.6-6.3-4-9.5   c-2-4.5-4-9-5.2-13.9c-1.5-6-2.4-12.1-3.1-18.2c-0.2-1.6-0.3-3.2-0.6-4.8c-0.2-1.6-0.7-3.1-0.8-4.7c-0.2-2.5-0.9-4.8-1.2-7.2   c-0.4-2.8-1.1-5.7-1.6-8.5c-0.6-3.1-1.1-6.3-1.7-9.4c-0.7-3.5-1.4-7-2-10.5c-0.4-2.1-0.9-4.3-1.3-6.5c-0.5-2.8-1.2-5.5-1.4-8.3   c-0.2-2.5-0.7-5-1.1-7.5c-0.6-3.4-1.2-6.7-1.7-10.1c-0.3-2.6-0.6-5.3-1-8c2.6-1.3,5.2-2.6,7.8-4c1.6-0.8,3.3-1.3,5.1-1.4   c4.3-0.2,8.5-0.6,12.8-1.1c2.8-0.3,5.5-0.5,8.3,0.1c1,0.2,2.2,0.2,3.2,0c2.5-0.5,5-0.2,7.5-0.4c1.4-0.1,2.6,0.8,4.1,0.6   c4.8-0.7,9.6-0.4,14.4-0.6c4-0.2,8.1-0.8,12.1-0.9c3.7-0.2,7.5-0.2,11.2,0s7.3,0.6,10.9,0.9c4.6,0.4,9.2,1.3,13.8,1.9   c2,0.3,4,0.2,6.1,0.1c5.2-0.3,10.3,0.2,15.3,1c8.4,1.4,16.6,3.7,24.5,6.7c1.5,0.6,3,1.1,4.6,1.5c1.2,0.3,2.3,1.1,3.3-0.1   c1.8,1.3,2.5,2.9,3.3,4.5c1.7,3.5,3,7.2,5.1,10.4c0.3,0.4,0.4,0.8,0.5,1.3c0.7,2,1.5,3.8,3.2,5.3c2.2,2.1,3.1,4.8,3.5,7.8   c0.6,4.1,0.4,8.2,0.3,12.3c0,2.4-0.2,4.9-1.4,7.2c-0.5-0.2-0.5-0.6-0.4-0.9c0.2-1.1-0.4-1.8-1.4-2.4c-0.8,0.2-1.8-0.2-2.8,0.3   c-2.3,1.1-4.9,1.3-7.4,1.2c-1.9-0.1-3.7-0.1-5.6,0c-6,0.2-10.6,2.3-12.9,8.3c-1.2,3.2-1.5,6.2,0,9c-0.1,1.6-1,2.8-1.2,4.2   c0.4,0.7,1.4,0.2,1.5,1c0,0.2,0,0.5,0,0.7c0,0.7-0.3,1.2-1.2,1.6c-1.2,0-2.6,0-4.1,0c-2-0.2-4,0.5-6,0.4c-3.8-0.1-7.5-0.5-11.2-1.5   c-6.3-1.7-12.6-3.5-18.3-6.6c-4.6-2.4-8.7-5.5-11.5-10.1c0.4-0.5,0.9-0.2,1.3-0.2c0.3,0.8,0.9,1.2,1.6,1.5c2,1.2,4,2.4,5.9,3.6   C690.4,293.4,691.7,293.1,692.9,292.7z M594.9,262.3c0.3,0.7,0.3,1.7,1.3,1.9c0.8-1.2,0-2.1-0.3-3.1c-0.2-1-0.7-0.6-1.4-0.4   C594.7,261.2,594.2,261.8,594.9,262.3z M595.4,231.3c-0.1-0.3-0.3-0.5-0.4-0.8c-0.2-1-0.8-0.9-1.4-0.5c-1.6-0.1-2.3,0.9-2.9,2.2   c-0.5,1.1-0.2,2.1-0.5,3.2c-1.3,3.9-1.3,8-1.7,12c-0.3,3.2-0.1,6.5-0.1,9.8c0,1.3,0.3,2.6,0.6,3.8c0.4,1.8,1.9,2.9,3.9,3.1   c0.7-0.7,1.2-1.5,1.1-2.6c0-1.5,0.6-3,0.9-4.5c1.2-1.4,0.2-2.5-0.4-3.6c0-3.3,0-6.6,0.4-9.9c0.2-1.7,0.4-3.5,0.7-5.2   C596.1,235.9,596.1,233.6,595.4,231.3z M736.4,235c-1.1-1.1-2.6-1.4-3.8-2c-4.4-2.3-9.1-3-14-2.6c-1.2,0.1-2.3,0.4-3.3,1.1   c-0.5,0.3-1.1,0.7-0.8,1.5c0.7,0.6,1.5,0.3,2.2,0.3c4,0,8,0,11.8,0.9c1.9,0.5,3.8,1,5.6,1.6C735,236,735.7,236,736.4,235z    M662.7,226.9c0.8,0.5,1.4,0.3,1.9,0.2c2.7-0.6,5.4-0.5,8.1-0.5c1.2,0,2.5,0,3.7,0c0.9,0,1.7-0.1,2-1.1c-1.5-1.2-5.2-1.7-9.9-1.1   C666.4,224.7,664.2,224.9,662.7,226.9z M616.5,359.7c1-0.3,1.1-1,0.8-1.8c-0.4-1.3-0.8-2.7-1.4-3.9c-0.3-0.6-0.5-1.5-1.6-1.4   C613.9,355,614.8,358,616.5,359.7z M627.1,364.7c2.1-1.5,2.8-2.9,2.1-4.6c-1.5,0.7-2.2,2.1-2.7,3.5   C626.3,364.1,626.6,364.5,627.1,364.7z M613.5,345.1c-0.6,1,0.1,1.8,0.3,2.7c0.2,0.9,0,2,1,2.7c1-0.7,1-1.7,0.8-2.5   C615.1,346.8,614.9,345.5,613.5,345.1z M612.6,344.1c0.2-2.1-0.2-3.6-0.8-5.1c-0.3-0.6-0.8-0.6-1.3,0   C611.1,340.5,610.8,342.4,612.6,344.1z M651.3,235.4c1.8-0.5,2.8-1.2,2.7-2.3c-0.2-0.4-0.5-0.8-1.1-0.8   C650.5,233.7,650.4,234,651.3,235.4z M708.3,235.4c1.4,1.5,2.1,1.5,3.6,0C710.6,233.9,710,233.9,708.3,235.4z M608.8,333.8   c-0.5,0.1-0.8,0.5-0.7,1c0.3,1,0.5,2.2,1.7,2.8c0.2-0.3,0.4-0.5,0.5-0.6c0.1-0.8-0.3-1.5-0.5-2.2   C609.6,334.3,609.4,333.9,608.8,333.8z M700.3,240.8c0.2,0.2,0.2,0.4,0.3,0.5c0.2,0.2,0.4,0.2,0.5,0.3c2.2-1,2.3-1.2,1.4-2.7   C701.6,239.3,700.7,239.7,700.3,240.8z M597,269.3c-0.9,1.3-0.9,1.7,0.3,2.9C598.4,271,598.4,270.9,597,269.3z M626.2,244.8   c0.5-1.2,0.2-2-0.8-2.6C624.4,243.3,624.5,243.6,626.2,244.8z M660.7,229.2c-0.8,0.9-1.8,1.1-2,2.1   C660.8,231.4,660.9,231.3,660.7,229.2z M621.6,238c-0.3,1.5-0.2,1.6,1.4,2.2C623,238.9,623,238.9,621.6,238z M655,232.3   c1.5,0.3,2.3-0.2,2.3-1.1c-0.1-0.3-0.4-0.4-0.7-0.5C655.9,230.9,655.4,231.5,655,232.3z M705.4,237.7c-0.1,0.3,0,0.5,0.2,0.6   c0.3,0.2,0.7,0.2,1-0.1c0.1-0.1,0.1-0.3,0.2-0.4C706.3,237.3,705.9,237.2,705.4,237.7z" />
	<path fill="#FADED2" d="M701.3,380.2c0.3-1.3,0.6-2.5,0.1-3.9c-0.4-1-0.9-1.6-1.9-1.7c-1.9-0.3-3.8-0.6-5.7-0.9   c-0.5-0.1-0.9-0.1-1.3-0.4c-2.3-1.8-5-2-7.7-2.3c-1.1-0.2-2.2-0.3-3.2-0.6c-3.1-1-6.4-0.8-9.7-1.4c-1.1-0.2-2.3-0.4-3.4-0.6   c-0.8-0.2-1.6-0.4-1.5-1.6c3.6,0.5,7.3-0.2,10.9,0.7c1.4,0.3,2.7,0.6,4,1c2,0.7,4.2,0.2,6.2,0.8c1,0.3,1.9,0.5,2.8,1   c3.4,1.8,7.1,2.7,11,2.9c1.1,1.3,1,3,1.3,4.6C702.7,378.7,702.3,379.7,701.3,380.2z" />
	<path fill="#E4CBC0" d="M75.1,379.7c-0.1-1.2,1.1-1.1,1.6-1.7c0.6-0.7,1.1-1.3,0.2-2c-0.9-0.2-1.1,0.6-1.8,0.7   c-0.5-0.9-1-1.8-1.4-2.7c0.2-0.7,0.6-0.9,1.1-0.7c1,0.3,2.1,0.4,3,1.1c1.2,1,1.4,1.9,0.4,3.1c-0.4,0.5-0.9,0.8-1.4,1.2   c-0.3,0.3-0.5,0.6-0.4,1C76.1,379.5,75.6,379.4,75.1,379.7z" />
	<path fill="#F1D7CB" d="M705.6,368.1c-0.2,0.3-0.3,0.5-0.5,0.8c0.1,0.7,0.6,0.8,1.1,1.1c0.4,0.2,0.8,0.4,1.2,0.6   c0.4,1.6-0.6,2.3-1.6,3.3c-1.3-0.9-1.4-2.7-3.1-3.1c0.6-1,1.3-1.9,0.8-3.1C704.2,367.8,704.8,368.2,705.6,368.1z" />
	<path fill="#030404" d="M888,240.7c-0.5,0-0.9,0-1.5,0c-0.5-1.6-2.4-2.4-2.5-4.3c2.5-0.8,4.4,0.6,4.2,3   C888.2,239.9,888.1,240.3,888,240.7C888,240.8,888,240.7,888,240.7z" />
	<path fill="#454346" d="M895.8,270.9c0.2,0.9,0.2,1.6-0.6,2.2c-0.9-0.2-0.9-0.9-0.8-1.6C894.5,270.9,894.9,270.5,895.8,270.9z" />
	<path fill="#FCE0D4" d="M27.8,370.4c-0.8,0.4-1,1.1-0.7,2c0.5,1.1,1.1,2,2,2.9c0.6,0.6,1.2,1.2,1.9,2c-0.4,2.2,2,3.6,2,5.9   c-1.5,1.5-3.2,0.6-4.7,0.9c-1-0.7-1.5-1.4-1.8-2.3c-0.1-0.2,0-0.5-0.2-0.7c-2.6-3.1-2.3-7-2.6-10.7c-0.1-1.1-0.1-1.1-0.8-1.9   c-0.6,0.1-0.7,0.5-0.8,1c-0.4,2.3-0.2,4.7-0.2,7c0,1.3-0.1,2.6-0.8,3.8c-0.6,1.1-0.9,2.5-1.3,3.6c-0.7,0.5-1.1-0.2-1.6-0.3   c-2.3-0.6-2.7-1.1-2.5-3.4c0.1-1.2,0.4-2.4,0.7-3.6c0.6-2.3,0.9-4.6,0.7-6.9c-0.1-0.8-0.1-1.6-1.4-1.8c-0.7,3.1-0.4,6.4-2.1,9   c-1.4,0.7-2.7,1.4-4,2.1c-1-0.5-1.3-1.5-2.2-2.2c0.9-1.1,2.3-1.5,2.6-2.9c0.7-0.4,0.3-0.9,0.3-1.5l0,0c1-0.3,1.8-0.8,2.3-1.7   c0.3-1.8-0.3-3.2-1.3-4.5c-1-1.4-1.5-3-2-4.6c-0.5-1.7-0.2-3.5-0.9-5.2c0.1-1.8,0.9-3.4,1.4-5.1c0.8-2.6,1.6-5.1,2.7-7.6   c0.7-1.6,1.5-3.1,2.8-4.5c3.5-4,6.3-8.4,9-12.9c0.6-1.1,1.5-2.1,1.8-3.2c0.8-2.9,2-5.7,2-8.8c0-4.1,0.2-8.3,0.4-12.4   c0.2-2.4,0.6-4.7,1.1-7.1c0.1-0.7,0.6-1.4,1-2.1c1.2-2.1,2.4-4.1,3.6-6.2c0.5-1,1.2-1.8,2.2-2.6c2.6,1,5.4,0.5,8.2,0.9   c2.6,0.3,5.2,0.9,7.9,0.6c0.8-0.1,1.4,0.3,1.9,0.8c1.2,1,2.4,2,3.2,3.4c0.4,0.6,0.8,1.2,1.5,1.4c3.8,1,7.4,2.9,11.4,3.6   c2.2,0.4,4.6,1,6.7,0.6c3.7-0.7,7.4-0.3,11.1-0.7c3.7-0.4,7.5-0.4,11.2-0.7c4.3-0.3,8.4-1.3,12.6-2c15.7-2.8,30.7-8,45.6-13.6   c8.2-3.1,16.6-5.9,25.1-8c2-0.5,4-0.2,5.9-0.6c7.4-1.3,14.8-1.6,22.3-1.5c4,0.1,7.9,0.6,11.8,1.1c2,0.3,4,0.6,6,0.7   c3.3,0.2,6.4,0.8,9.7,1.2c3,0.4,6,1,9,1.2c0.3,0,0.6,0,0.9,0.1c3.7,1.2,7.5,1.2,11.3,1.3c2.2,0,4.3-0.2,6.4-0.9   c1.7-0.6,3.5-0.6,5.2-0.9c3.7-0.4,7.3-1.3,10.9-2.1c1.5-0.3,3-0.9,4-1.9c7.6-1,15-2.4,22.2-4.1c1.6-0.4,3.2-0.7,4.8-0.7   c3.5-0.2,6.8-1.1,10.2-2.1c4.6-1.4,9.2-3.1,14-4c4.3-0.8,8.6-1.7,13-2.3c3.2-0.5,6.3-0.3,9.7-0.5c-0.6,3.4-1.1,6.5-1.6,9.7   c0,0.2,0,0.3,0,0.5c-0.5,7.3-0.9,14.6-0.4,21.9c0.2,3.4,0.7,6.8,1.2,10.2c0.5,3.1,0.7,6.1,1.1,9.2c0.6,4.7,0.8,9.5,1.1,14.2   c0.3,4.4,0.3,8.8-0.6,13.2c-0.1,0.3-0.1,0.6-0.1,0.9c-0.8,0.2-1.1-0.7-1.8-0.9c-2.1-0.1-4.1,0.1-6.2-0.4c-1.7-0.5-3.4-0.8-5.1-0.9   c-1.6-0.1-3.1-0.6-4.7-0.8c-2-0.2-4-0.9-6-1.1c-2.9-0.3-5.7-1.1-8.3-2.4c-3.6-1.7-7.2-3.4-10.7-5.1c-5.1-2.5-10.4-4.3-15.7-6.1   c-4.2-1.5-8.3-2.9-12.1-5.4c-3.8-2.5-7.6-4.7-12.2-5.6c-1.4-0.3-2.4-0.2-3.2,1.1c0,0.7,0,1.5,0,2.5c1.2,1.2,2.5,2.4,3.8,3.6   c0.5,0.4,0.9,0.8,0.8,1.6c-0.3,1.2,0.5,1.7,1.3,2.1c0.6,0.3,1.3,0.5,1.9,0.7c0.2,0.6,0.7,0.5,1.2,0.5c1.6,0,2.5,1,3.4,2.2   c-1.4-0.5-2.9-0.2-4.3-0.3c-1.7-0.2-3.2,0.6-4.8,0.5c-1.7-0.1-3.4-0.2-5.1,0c-2.5,0.2-4.7-0.3-6.6-2c-0.3-0.3-0.8-0.5-1.2-0.7   c-2.4-1.4-5.2-1.8-7.8-2.5l0,0c0-0.6-0.9-0.4-0.9-0.9c1.1-2.5-1.1-3.4-2.1-4.6c-2.6-0.6-5-0.1-7.3,0.4c-4.1,0.8-8.3,1.8-12.4,2.9   c-3.8,1-7.7,1.7-11.4,3c-0.9,0.3-1.9,0.6-2.9,0.6c-4.9-0.1-9.8,0.1-14.7-0.1c-4.9-0.1-9.7,0.8-14.6,0.5c-0.6,0-1.3-0.1-1.9,0   c-2.7,0.7-5.5,0.5-8.2,0.9c-0.8,0.1-1.6,0.1-2.5,0.4s-2,0.3-2.9-0.1c-3-1.3-6.3-1.2-9.4-1.6c-4.3-0.5-8.7,0.3-13,0.4   c-0.2,0-0.5,0-0.7,0.1c-1.7,0.7-3.6,0.5-5.4,0.8c-1.7,0.2-3.4,0.5-5,0.7c-3,0.3-6,0.9-9,1.4c-1.5,0.3-3,0.4-4.5,0.7   c-2,0.4-4,0.8-6.1,1.1c-2.4,0.3-4.9,0.4-7.2,1c-3.1,0.8-6.3,1-9.4,1.8c-3.3,0.8-6.8,0.8-10.1,1.9c-2.5,0.8-5.1,1.5-7.1,3.1   c-1.5,1.2-3.2,1.8-4.9,2.5c-7.2,2.7-14.5,5.1-21.5,8.3c-6.3,2.8-12.4,6-18.2,9.8c-3.4,2.2-6.6,4.7-10.3,6.3c0-0.1,0-0.2,0-0.3   c-0.3-0.8-0.6-0.8-1.3-0.2c-0.3,0.3-0.7,0.7-1,1c-0.6,0.4-0.6,1.2-1.4,1.4c-1.1,0.4-2,1.1-3.1,1.4c-1,0.3-2,0.7-2.5,1.8   c0.2,0.6,0.5,0.9,1.2,0.9s1.4,0,2.1,0c0,0.3,0,0.6,0.1,0.9c-1.8,1.4-2.1,2.5-1.5,4.7c0.2,0.8,0.5,1.4,1.5,1.4   c0.7,0.3,0.6,0.8,0.3,1.3C27.9,369.7,27.8,370,27.8,370.4z M22.7,350.7c-0.7,0.4-1,1.1-1.3,1.7S21,353.7,22,354   c1.1-0.7,1-2,1.6-2.9c0.2,0,0.4-0.1,0.5-0.3c0-0.3-0.2-0.4-0.4-0.5C23.2,350.2,22.9,350.3,22.7,350.7z M166.8,302.1   c-1.2-0.4-2.5-0.8-3.6,0.3c-0.4,1.3,0.6,1.6,1.4,1.9c0.7,0.3,1.5,0.2,2.3,0.1c0.6-0.1,1.1,0.2,1.3,0.7c0.6,1.4,1.7,1.6,3,1.6   c0.4,0,0.8-0.1,1.2,0c2.7,1,5.5-0.1,8.2,0.9c9.5,0,19.1,0.2,28.7-0.5c0.2,0,0.3,0,0.5,0c3.2-0.6,6.5-0.9,9.8-0.9   c0.4,0,1,0.2,1.1-0.5c2.5-0.5,5.1-0.3,7.7-0.4c1.1,0,2.2,0,2.6-1.4c0.8-0.2,1-1.1,1.9-1.1c-0.9-1.3-2.2-1.7-3.4-2.2   c-2.8-1.1-5.7-1.1-8.5-1.4c-0.7-0.1-1.4,0.1-2.1-0.1c-2.6-0.6-5.2-0.6-7.7-0.9c-3.1-0.3-6.1,0.8-9.2,0.5c-1.9-0.2-3.8,0.1-5.5,0.6   c-2.8,0.8-5.7,0.8-8.6,1.2c-3.5,0.4-7.1,0.1-10.6,0.5c-3,0.3-6,0.9-9,0.5C167.5,301.5,167.2,302,166.8,302.1z M49.8,293.7   c-2-0.7-4-0.4-6-0.6c-2.8-0.2-4.4,1.4-5.7,3.5c-1.1,1.8-1.3,3.7-1.3,5.7c0,2.3-0.5,4.5-1.3,6.9c2.5,0.7,4.6,2,6.2,4.1   c2.1-2.9,3.9-5.6,6.4-7.9c1.2-1.1,2.6-2.1,3.9-3.3c1.6-1.5,1.6-4.9,0-6.3C51.2,295.3,50.5,294.5,49.8,293.7z M74,302.3   c-2.9-2-5.9-2.7-9.1-1.6c-1.6,0.5-3.2,1.2-4.2,2.8c-0.6,0.9-0.6,1.9,0.1,2.8c0.6,0.8,1.5,1.1,2.5,0.9c0.6-0.1,1.1-0.5,1.7-0.7   c1.9-0.8,3.4-2.5,5.2-3.4C72,304.3,72.3,304.2,74,302.3z M326.5,271.9c-0.2-0.7-0.7-0.8-1.2-0.8c-4,0.2-7.7,1-11.5,2.5   c0.3,0.4,0.5,0.7,0.6,0.7c3.7,0,7.2-1,10.8-1.4C325.7,272.8,326.3,272.8,326.5,271.9z M298.3,276.9c1.5,0.8,1.5,0.8,5.5,0   c0.7-0.1,1.6,0,1.8-1.1c-1.5-1.1-3.1-1-4.7-0.7C299.9,275.4,298.7,275.5,298.3,276.9z M69.7,328c-2.6,0.6-4.4,2.4-6.2,4.2   c1,1.1,1.8,0.8,2.7,0.2C67.8,331.4,69.1,330,69.7,328z M272.5,295.7c-2.5-1.2-5.1-0.7-7.6-0.9c-0.3,0-0.7,0.3-0.7,0.9   c0.4,1,1.3,0.9,2.1,0.9C268.4,296.6,270.6,296.9,272.5,295.7z M276.4,295.5c1.6,1.4,3.6,1.4,4.7-0.1   C279.5,294.2,277.9,294.2,276.4,295.5z M268.5,308.6c1.3,1.1,3.1,0.6,4.4-1.2c-0.3-0.4-0.6-0.7-1.1-0.6   C270.5,307.1,269.2,307.4,268.5,308.6z M84.1,300.9c1.6,1.1,2.7,1,4-0.4C86.4,299.3,85.5,299.4,84.1,300.9z M79.4,322.8   c-1.2-0.4-2.4-0.3-3.5,0.2c-0.5,0.2-0.9,0.5-0.7,1.2C77.2,324.7,78.4,324.3,79.4,322.8z M81.4,301.4c-1.9-1.3-2.5-1.2-3.8,0.5   C79.2,302.9,79.9,302.8,81.4,301.4z M35.4,350.4c1.8-0.2,2.5-1.4,3.2-2.6C36.6,347.4,36.1,347.7,35.4,350.4z M100.6,300   c-1.1-1.6-2.2-1.5-3.5,0.3C98.6,300.9,99.1,300.9,100.6,300z M26.4,348.6c1.9-1.5,2.4-2.2,2.8-4c-0.4-0.1-0.8-0.1-1,0.2   C27.4,345.9,26.5,346.8,26.4,348.6z M311.6,274.4c-2.3-0.7-2.8-0.6-3.4,1.1C309.4,275.4,310.6,275.8,311.6,274.4z M262.5,310.6   c1.4,1.2,1.6,1.2,3-0.3C264.5,309.5,263.6,309.7,262.5,310.6z M91.4,300.4c1.1,0.9,1.3,0.9,2.9-0.4   C93.1,299.1,92.9,299.1,91.4,300.4z M73.6,325.4c-2.1-0.5-2.1-0.5-2.6,1.2C72.2,327.2,72.7,326.4,73.6,325.4z M286.1,296.1   c-0.7-0.9-1.2-0.9-1.7,0.1c0.2,0.4,0.5,0.7,0.9,0.7C285.7,296.8,285.9,296.6,286.1,296.1z" />
	<path fill="#5970B3" d="M502.4,292.7c2.4,0.1,4.5-0.9,6.8-1.2c1.2-0.1,2.3-0.3,3.5-0.1c3.4,0.6,6.8,0,10.2,0.8   c1.5,0.4,3.2,0.3,4.8,1c-0.4,2.1-0.9,4.1-1.4,6.1c-1.3,5.2-2.5,10.4-3.8,15.6c-0.8,2.9-1.3,6-3.4,9.1c-0.7,0.7-2.6,0.3-3.5,1.7   c-0.8,1.1-1.7,0.7-2.5,0.2c-0.4-0.2-0.7-0.6-1.2-0.6c-1.9-0.1-3.8-0.1-5.2,1.4c-6.2,2.1-10.9,6.3-15.5,10.6   c-0.7,0.7-1.4,1.4-2.2,2.1c-1.3,0.8-2.6,1.5-4,2.3c-1.5,0-3.2,0.3-4.7,0.4c-2.6,0.1-5,0.6-7.5,1.2c-6.5,1.5-12.9,3.4-19.4,4.9   c-3.8,0.9-7.7,1.5-11.7,1.8c0-0.5,0.3-0.7,0.6-0.9c1.9-1.3,3.9-2.4,6.1-3.2c5.7-2.2,11.7-3.2,17.7-4.1c3.8-0.6,7.4-1.5,10.7-3.7   c2.2-1.4,3.8-3.3,5.5-5.3c0.3-0.4,0.7-0.9,0.4-1.6c-0.5-0.5-1-1.1-1.5-1.6c-2.5,0-4.8,0.6-7,1.1c-4.2,1-8.4,1.9-12.7,2.6   c-4.3,0.6-8.5,1.5-12.6,2.8c-4.5,1.4-8.6,3.5-12.4,6.1c-0.8,0.6-1.7,1.2-2.1,2.1c-0.6,1.1-1.5,1.7-2.3,2.6c-0.8-0.3-1.4-0.6-2-1.2   c-1.1-1-2.3-1.8-3.7-2.3c-3-1.2-5.6-0.1-6.4,2.9c-0.7,0.3-1.2-0.2-1.6-0.6c-2.5-2.4-4.9-5-7.6-7.2c-2.1-1.8-4.3-3.5-6.6-5   c-1.7-1.1-3.5-2.1-5.9-1.4c-0.2,0.2-0.6,0.5-1.1,1.1c0.7,0.8-0.4,1.8,0.7,2.4l0,0c0.9,1.6,2.4,2.6,3.6,3.9c1.1,1.3,2.2,2.6,3.5,4.2   c-2.8-0.2-5.1,0.1-7.5,0.4c-1.3,0.1-2.6,0-3.8,0.5c-0.9-1-1.5-2.3-2.3-3.5c-3.3-5.1-6.4-10.4-11.3-14.2c-1.5-2.6-3.6-4.7-5.4-7.1   c-1-1.4-2.4-2.1-4.2-1.9c-0.6,0.1-1.2,0-1.7,0c-2.6,2.4-2.7,3.4-1.4,6.3c0.8,1.7,1.9,3.1,3,4.6c2.3,3.2,4.3,6.7,6.7,9.8   c0.6,0.7,1.4,1.4,1.4,2.5c-4.9,0.3-10.3,1.5-14.2,3.8c-0.1-2.1-0.4-4.2,0.4-6.2c0.2-0.6,0.1-1.4,0.1-2.1c0-2.9,0.5-5.8,0.8-8.8   c0.3-3.2,0.4-6.5-0.2-9.8c-0.1-0.5-0.2-0.9-0.1-1.4c0.1-4.7-0.6-9.3-1.1-13.9c-0.3-3-0.8-5.9-1.2-8.9c-0.4-3.1-0.8-6.3-1.2-9.4   c-0.6-5-0.3-10-0.4-14.9c-0.1-6.3,0.9-12.4,2.6-18.4c0.2-0.6,0-1.4,0.7-2c0.1,0,0.2-0.2,0.4-0.1c1.4,0.1,2.8,0.3,4.3,0   c2.8-0.6,5.7-0.1,8.5,0c2.1,0.1,4,0.8,6.1,1.1c5.5,0.6,11,0.9,16-2.2c1.7-1.1,3.5-1.1,5.3-0.3c2.4,1,4.8,2.1,7.7,2.4   c-3.1,4.7-5.9,9.3-8.1,14.3c1.5-0.9,2.3-2.3,3.2-3.7c2.1-3.2,4.2-6.4,6.2-9.6c0.5-0.9,1.1-1.4,2.1-1.5c1.2-0.1,2.2-0.6,3.2-1.2   c0.5-0.3,1-0.6,1.7-0.7c2.3-0.1,4.1-1.3,5.7-2.7c1.6-1.5,2.9-3.3,5.3-3.6c0.4,0,0.8-0.5,1.2-0.8c2,0.3,3.9,0.7,5.6,2   c1.3,0,2.6,0,3.9,0c1.2,0,2.2-0.2,2.2-1.6c3.7-1.2,7.3-2.5,10.9-3.7c3.2-1,6.5-1.8,9.7-2.8c0.3-0.1,0.6-0.3,0.9-0.3   c2.9,0.2,5.7-0.5,8.5-1c6.5-1,13-0.5,19.6-0.5c3.7,0,7.3,0.9,10.8,1.9c3,0.9,6,1.3,9.1,1.4c4,0.1,7.8,1.4,11.2,3.7   c1,0.6,1.9,1.3,3.1,1.5c1.2,2.4,2.3,4.7,3.5,7.1c-0.3,1.1-0.7,2.2-1,3.3c0.3,0.7,0.9,1,1.6,1.4c0,0.6,0.2,1.2,0,1.8   c-1.5,4.1-1.8,8.4-2.6,12.6c-0.3,1.8-0.2,3.7-0.9,5.5c-3.1-1.1-6.1-2-9.3-2.6c-1.4-0.3-3-0.7-3.9,1.1c0.2,1.5,1.4,1.9,2.7,1.9   c3.6,0,6.9,1.3,10.3,2.3c0.2,4.6,0.1,9.1-0.6,13.4c-0.5,0.3-0.9,0.3-1.3,0.3c-3-0.7-6-0.3-9.1-0.4c-2-0.1-3.9,0.4-5.8,0.6   c-0.9,0.1-1.8,0.4-2.8,0.3c-4.1-0.1-8.2,0.3-12.4,0.5c-1.6,0-3.2,0.4-4.8,0.6c-0.1,0.7,0.3,0.8,0.7,0.8c1.7-0.1,3.4,0,5.1-0.3   c2-0.3,4-0.2,6-0.1C504,292.5,502.7,291.9,502.4,292.7c-0.4,0-0.8-0.1-1.2,0.2C501.6,293.2,502.1,293.4,502.4,292.7z M504.2,269.3   c1.8,0.7,3.6,0.5,5.6,0.5c0.5-0.6,1-1.1,1.5-1.7c0.9-1,1.1-2.3,0.8-3.5c-0.5-1.4-1.2-2.8-2.6-3.7c-0.8-0.5-1.6-1.1-2.5-1.6   c-3.9-2.4-7.6-5.4-12.4-5.5c-0.5-0.6,0.2-1.4-0.7-1.8c-0.3-0.5-0.4-1-0.5-1.5c-0.2-1.2-0.7-2.3-1.8-3c-0.1,2.5,0.1,4.9,1,7.3   c-0.3,0.8-0.8,1.3-1.5,1.5c-1.2-0.2-2-0.9-2.8-1.7c-1.7-1.7-3.6-2.9-6.1-2.5c-1.1,0.1-2.2,0-3.3,0c-3.1,0-4.8,1.4-5.5,4.4   c-0.2,0.7-0.3,1.5-1,1.7c-1.6,0.3-2.5,1.6-3.7,2.4c-0.5-0.3-0.8-0.7-0.9-1.2c-0.4-1.4-0.9-2.9-1.5-4.3c-0.2-0.5-0.3-1.3-1.2-1.2   c-1-3.3-2.9-5.7-6.1-7c-0.5-0.2-1.1-0.9-2,0c1.5,0.5,2.7,1.2,3.8,2.2c1.2,1,2,2.4,3,3.5c0.4,0.5,0.5,1.1,1.2,1.4c0,0.5,0,1,0.4,1.5   c0.8,1,1.1,2.2,1.5,3.5c-1.2,0-1.5-1.1-2.5-1.4c-3.3,1.4-7.1,0.8-10.7,1.9c1.8,2.2,3.6,4.1,5.1,6.3c1.3,1.8,2.8,3.2,4.9,4.1   c0.5,0.2,0.9,0.6,1.2,0.9c1.1,0,2.1,0,2.7,0c2.5-0.8,2.3-3.2,3.2-4.5c0.9-0.3,1.2,0.3,1.8,0.3c1.6,0.2,2.9,0.8,4,2.3   c1.7,2.4,4.8,2.8,7.3,1.4c0.5-0.3,0.7-0.8,1.3-0.9c1.6,0,3.1,0,4.7,0c3.5,0,4.5-0.8,5.7-4.1c0-0.1,0.2-0.2,0.6-0.6   c2.7,0,4.6,2.1,6.7,3.8c-0.8,2.6-2.5,4.7-4,6.9c-0.4,0.6-1,1.1-1,2.1c1.8-0.7,2.6-2.1,3.5-3.4C502.4,272.5,503.3,270.9,504.2,269.3   z M457,291.1c-1.4-0.4-2.6-0.2-3.7-0.3c-2.5-0.3-5-0.1-7.3-0.9s-4.5-1-6.9-0.9c-0.2,0-0.5,0-0.7,0c-3.6-0.6-7.3-0.6-10.9-0.8   c-6.2-0.2-12.4-0.2-18.7,0.3c-2.9,0.2-5.7,0.5-8.6,0.7c-1.8,0.1-3.7,0-5.5,0.5c-2.3,0.5-4.6,0.4-6.9,0.7c-2.1,0.3-4.3,0.5-6.4,0.7   c-3.5,0.4-7.1,0.9-10.6,0.8c-1.9,0-3.7,0.4-5.4,0.6c-0.3,0.5-0.2,0.8,0.2,1.2c0.8,0.2,1.6,0.3,2.4,0.4c1.6,0.2,3.3,0.3,4.9,0   c2.4-0.5,4.8-0.4,7.1-0.7c2.3-0.3,4.6-0.5,6.9-0.7c3.4-0.3,6.8-0.8,10.2-0.9c0.4,0,0.8,0,1.2-0.1c2.8-0.5,5.6-0.8,8.5-0.9   c0.5,0,1.1,0,1.6-0.1c2.7-0.8,5.6-0.5,8.3-0.6c3.4-0.1,6.8,0.2,10.3,0.2c3.8,0,7.6,0.3,11.4-0.3c1.5-0.2,3.1-0.1,4.6,0.4   c2.9,0.9,5.9,1.1,9,1C453.6,291.3,455.2,291.5,457,291.1z M434.7,271.6c0.9-0.3,1.3-0.6,1.5-1.1c2.4-4.2,4-8.7,4.4-13.5   c0.2-2.4,0-4.8,0-7.2c0-1.4-0.4-2.7-1-4c-0.3-0.6-0.8-1.2-1.8-0.6C437.9,254,437.7,262.8,434.7,271.6z M384.5,261.2   c1.4,0.6,1.4,0.6,2.2,0.3c4.7-1.8,8.4-4.9,11.4-8.9c0.6-0.8,1.5-1.4,1.6-2.5c-1.3-1.2-2.4-0.3-3.3,0.5   C392.4,253.9,388.3,257.3,384.5,261.2z M479.4,307.1c0.4-0.2,0.5-0.3,0.5-0.6c0.5-3.3,1.1-6.5,1.5-9.8c0.5-4,0.2-7.9,0.3-11.8   c0-0.6,0-1.2-0.9-1.4c-0.2,1.1-0.4,2-0.4,3c-0.2,2.8-0.2,5.6-0.5,8.4c-0.4,3.5-0.6,7.1-1.4,10.5   C478.4,306.2,478.5,306.9,479.4,307.1z M465.3,284.9c-1.1,0.2-1.1,1.2-1.2,1.8c-0.9,4.1-1.6,8.1-2.3,12.2c-0.2,1-0.4,2.1,0.2,3   c0.7,0,0.9-0.3,1-0.7C464.1,295.9,466.1,290.6,465.3,284.9z M443.6,262.7c0.8-1.1,1.4-2.5,1.7-3.9c0.8-3,0.9-6.1,1.1-9.2   c0.1-1,0-2-0.3-2.9c-0.3-1.1-0.8-2.4-2.2-2.5c-0.6,0.5-0.6,0.9-0.2,1.4c0.6,0.6,1,1.4,1.1,2.3c0.2,4.4,0.4,8.8-1.2,13.1   C443.4,261.5,443.3,262.1,443.6,262.7z" />
	<path fill="#CDD3EA" d="M529.5,298.3c0-3.2,0.5-6.3,0.9-9.5c0.2-2,0.4-4,0.4-6c0.1-3.3,0.6-6.5,0.6-9.8c0-0.9,0.1-1.7,0.3-2.5   c0.8-2.4,0.5-5.1,1.4-7.5c0.2-0.6-0.1-1.4-0.2-2.1c-0.5-2.8-0.1-5.4,0.8-8c0.7-1.8,1.3-3.6,1.4-5.4c0.7-0.3,1.2-0.2,1.5-0.1   c0.8,0.6,0.6,1.4,1.1,1.9c1.4,1,3.3,0.8,4.9,2c0,1.4,0,2.8,0,4.3c0.1,6.1-0.3,12.3,0,18.5c0,0.9,0,1.9,0.9,2.9   c1.1-4.4,1.1-8.8,1.3-13.1c0.2-4.3,0-8.7,0-13.2c1.5-0.3,2.8-0.2,4.1-0.1c0.5,5.1,0,10.2,0.9,15.2c0,0.2,0.3,0.4,0.4,0.6   c1.1-0.6,0.9-1.6,0.9-2.4c0-3,0-6.1-0.1-9.1c0-1.2,0-2.4,0-3.9c3.4,0,6.8,0,10.2,0c1.2,0,2.3,0.4,3.3,0.9c1.7,0.8,3.5,1,5.4,1   c1.8-0.1,3.6,0,5.2,0c0.9,0.6,0.8,1.5,0.9,2.2c0.5,0.1,0.8,0.2,1.2,0.3c0.1,0.2,0.2,0.3,0.2,0.4c0,3.5,1.7,6.7,2.7,9.9   c0.8,2.4,1.4,4.9,1.5,7.5c0.4,5.3,0.7,10.7,1.5,16c1.2,8.2,2.7,16.3,4.8,24.3c1.4,5.4,2.9,10.8,4.7,16.1c0.2,0.4,0.2,0.9,0.2,1.4   c-0.1,0.3-0.3,0.7-0.6,0.5c-1.5-0.6-3-0.1-4.4-0.1c-4.5,0-9.1,0.9-13.6-0.8c-0.2-0.1-0.5,0-0.7,0c-4.2-0.1-8.3-0.6-12.5-0.5   c-5.9,0.1-11.8,0-17.8,0c-0.6,0-1.2,0.2-1.8-0.3c0-0.7,0.5-1.2,0.4-2c0-2.1,0.6-4.1,0.8-6.1c0.2-1.7,0.8-3.5,0.6-5.3   c-0.1-0.7-0.3-1.2-1-1.3c-0.9,0.4-1.5,1.3-1.7,2.1c-0.5,1.9-0.9,3.9-1,5.8c-0.2,2.3-0.8,4.5-0.5,6.9c-1.1,0.2-2,0.2-2.9,0.5   c-0.5,0.2-1.4,0.5-1.8-0.4c-0.3-1.3,0.6-2.4,0.5-3.7c0.1-0.2,0.2-0.4,0.3-0.6c1.6-6.9,3.2-13.7,4.8-20.6c0.6-2.9,1.2-5.8,1.1-8.8   c0-0.6,0.3-1.4-0.7-1.9c-1.1,0.7-0.5,2-0.8,2.9c-0.9,0.3,0,1.5-0.7,1.8c-1.3,0.5-1.2,1.7-1.5,2.6c-0.7,1.9-1,4-1.7,5.9   c-1.7,4.9-2.5,10-4,14.9c-0.6,1.9-0.7,3.9-1.6,5.6c-1.6,0.1-3,0.8-4.6,1.4c0.4-2.4,0.7-4.7,1.2-6.9c0.6-2.7,1.4-5.4,2.1-8.1   c1.6-5.8,2.7-11.6,4.5-17.3c0.6-1.9,1-3.8,0.5-5.8c-1.3-0.4-1.4,0.6-1.7,1.2c-0.7,1.9-1.4,3.8-2.4,5.7   C529.7,298.8,529.6,298.6,529.5,298.3z M549.9,275c-1.2,0.5-0.6,1.6-0.8,2.5c-0.9,2.6-1,5.4-1.2,8.1s-0.8,5.3-0.6,8.1   c0,0.2,0,0.3,0,0.5c-0.9,2.5-0.4,5.2-0.8,7.7c-0.4,2,0,4.2-0.1,6.3c0,0.9,0.2,1.6,0.9,2.3c0.7-1.1,1.1-2.2,1-3.5   c-0.1-3.9,0.6-7.8,0.8-11.7c0.2-3.1,0.8-6.1,0.6-9.2c-0.2-2.4,0.8-4.7,0.5-7.1c0-0.3,0.3-0.6,0.3-0.9   C550.6,277,551,275.9,549.9,275z M562.9,258.7c0.7,3.8-0.3,7.8,1.3,11.5c1.1-3.9,1.1-7.7,0.4-11.4   C563.9,258.4,563.6,258.4,562.9,258.7z M573.8,284.4c-0.4,0.1-0.6,0.3-0.6,0.6c-0.1,4.1-0.3,8.1-0.4,12.2c1.9-3.1,0.9-6.6,1.6-9.8   C574.5,286.5,574.8,285.2,573.8,284.4z M559.5,254.8c-0.1,2.1-0.2,4,0.1,6.1c1.2-1.4,1.5-3,1.2-5.1   C560.7,255.3,560.6,254.7,559.5,254.8z" />
	<path fill="#CDD3EA" d="M628.7,330.1c-0.6-0.5-0.4-1.1-0.4-1.7c0-5.5-0.1-10.9,0.1-16.4c0.2-6.3,0.8-12.6,2.6-18.8   c0.1-0.4,0.1-0.9,0.4-1.3c1.3-1.8,1.6-4,2-6.1c0.6-3.4,1.4-6.6,2-10c0-0.3,0.3-0.5,0.5-0.9c12.3,7.7,25.8,11.5,40.2,12.5   c1.5,2.9,3.4,5.4,5.4,7.9c1.9,2.4,4.3,4.2,7,5.7c6,3.3,12.5,5.3,19.2,6.7c6,1.3,11.9,0.7,17.9,0.8c0.9,0.5,0,0.8-0.2,0.9   c-1.8,1.1-3.1,2.8-4.6,4.2c-0.5,0.5-1,1-1.5,1.4c-2.7,1.8-5.1,3.9-7,6.6c-0.6,0.9-1.5,1.5-2.4,2.1c-1.9,1.1-3.9,2.1-5.9,3   c-4.8,2.1-9.8,3.2-14.8,4.2c-2.2,0.5-4.5,0.7-6.8,1.1c-2.5,0.4-4.9,0.7-7.4,1.2c-1.3,0.3-2.7,0.6-4.1,0.6c-3.8,0-7.3-1.4-11.1-1.7   c-2-0.1-3.9-0.6-5.9-0.7c-2.6-0.1-5.3,0-7.9,0c-2.1,0-4.1,0.3-6.2-0.4c-1-0.3-2.1-0.2-3.2-0.4c-1.3-0.2-2.8-0.4-4.1,0.4   C631.4,329.8,630,330.2,628.7,330.1z" />
	<path fill="#FCE0D4" d="M802.2,316.1c-0.5-0.3-0.9-0.9-1.6-0.9c-1.2,1-1.4,1.4-0.9,2.4c0.3,0.6,0.9,1.1,1,1.8   c0.2,1.2,0.2,2.5,0.3,3.8c-0.6,0.7-1.3,1.4-1.9,2.2c-1.5-0.4-3-0.7-4.3-1.6c-1.9-1.3-4-0.9-6,0.1c-0.8,0.4-1.6,1-2.3,1.5   c-1.3-0.3-2.5-0.6-3.8-0.9c0.6-2.3,1.4-4.5,1.8-6.8c0.8-4.5,1.8-8.9,3.2-13.2c0.4-1.3,1.2-2.5,1-3.9c0.8-3.5,3.2-6.4,4.7-9.5   c0.3-0.7,0.7-1.4,1.1-2c0.3-0.5,0.5-1.1,0.9-1.4c2.3-1.7,4.1-3.8,5.7-6.1c1.5,0.2,2.9,0.1,4.2-0.8c0.8-0.5,1.8-0.3,2.7-0.2   c2,0.2,3.9-0.3,5.7-0.9c0.4-0.1,0.7-0.3,0.9-0.7c-0.3-1.6-1.8-2.1-2.9-3c0-0.8,0.3-1.3,0.9-1.6c2.6-0.9,3.9-3.3,5.6-5.1   c0.4-0.4,0.8-0.9,1.4-1.5c0.6,1.6,1.9,1.7,3.2,1.9c1.3-0.3,2.1-1.2,3-2.3c0.8,0,1.6-0.2,2.6-0.5c-1.1,2.2,0.1,4.1,2.7,5.7   c-0.5,0.6-1.3,0.5-1.9,0.8c-1-0.5-1.1-1.7-2.3-2.1c-2-0.3-2.3,2.6-4.3,2.5c-0.7-0.2-1.3-0.3-2-0.5c-0.6-1,0.3-2.4-0.9-3.2   c-0.7,0-1,0.5-1.1,1c-0.1,0.6-0.1,1.3,0,1.9c0.3,1.4,0.3,2.8-0.8,3.9c-0.3,0.3-0.1,0.7,0.4,1.1c0.8-0.6,1.8-0.6,2.8-0.3   c0.6,0.2,1.4,0.1,2.1-0.1c1.3-0.3,2.3-1.1,2.4-2.5c0-0.6,0.1-1.1,0.8-1.2c1,0.1,0.3,1.5,1.6,1.7c3.8-0.6,7.3-2.3,9.9-6   c0.6,0.6,0.5,1.2,0.1,1.7c-1.1,1.7-2.3,3.4-4.2,4.3c-1.1,0.5-1.7,1.3-2.1,2.3c-0.3,0.7-0.5,1.4-0.8,2.2c-0.6,1.4,0.3,2.6,1.9,2.8   c1.1,0.1,2.2,0,3.4,0c2.6,3.4,6.6,5.2,10.4,7.2c2.6,1.3,5.3,2.5,7.9,3.9c0.4,0.2,0.9,0.3,1.4,0.5c0.7,0,1.2-0.6,1.9-0.9   c0.9,1,2.7,0.7,3.6,2.2c1.5,2.5,2.9,4.9,4.2,7.5c0.5,0.9,0.4,1.7,0.2,2.7c-0.5,2.6-0.5,5.2,0.1,8c-0.7,0.4-1.5,0.9-1.8,1.8   c-0.7,0.2-0.2,1.1-0.8,1.4c-0.9,0-2,0.3-3,0.4c-4.8,0.7-9.5,1.9-14.2,3.2c-1.2,0.3-2.6,1.2-3.9,0.1c-0.9-0.7-0.4-1.5,0-2.3   c0.7-1.5,0.7-3,0.1-4.5c-0.6-1.7-1.1-3.4-1.6-5.1c-0.3-0.9-0.9-1.6-1.5-2.3c-0.4-0.5-0.9-0.6-1.6,0c-0.2,0.8-0.6,1.8-0.2,2.8   c0.7,1.7,0.5,3.5,0.9,5.2c0.2,0.7,0.1,1.4-0.3,2c-0.6,0.2-1-0.5-1.5-0.4c-0.6-0.2-1.2,0.1-1.9-0.4c-0.4-2.1-0.6-4.4-2.1-6.2   c-0.8-0.2-1.2,0-1.4,0.8c0.2,1.3,0.7,2.5,1.3,3.6c-1.4,0.9-1.7-1.5-3.1-0.5c-0.6,1-0.8,2.5-1.9,3.3c0.6,0.8,1.2,0.9,1.8,0.5   c0.7-0.5,1.3-0.3,1.9,0.1c0.3,0.9,1.3,0.1,1.7,0.8c-0.6,1-1.4,1.9-1.7,2.9c-0.4,1.4-1.2,2.6-2,3.8c-3.3,1.6-6.3,3.5-9.3,5.7   c-0.5,0.3-1,0.3-1.5,0.6c-2.3,1.2-2.5,1.2-4.2-1.3c0.4-0.7,1.4,0.1,1.9-0.7c-0.8-2-0.9-4.5-3.2-5.8c0.5-1.9,1.8-2.7,3.7-2.6   c0.8,0.1,0.9,1.3,1.8,1.3c0.5-0.1,0.7-0.5,0.5-0.9c-0.6-1.1-1.4-1.9-2.5-2.4c-0.6-0.3-1.4-0.5-2,0c-1.1,1-2.6,1.5-3.2,2.9   c-0.1,0.7,0.4,1,0.8,1.4c0,0.7-1.4,1.2-0.2,2.2c-2.6-0.6-4.8,0.4-7.1,0.9c-0.3,0-0.4-0.1-0.4-0.3c1.4-2.1,1.1-3.6-1.4-6   c0-1,0-2,0-3C802.8,316.5,802.7,316.2,802.2,316.1z" />
	<path fill="#EFCBBB" d="M33.9,354.9c3.7-1.6,7-4.1,10.3-6.3c5.8-3.8,11.9-7,18.2-9.8c7-3.1,14.3-5.6,21.5-8.3   c1.7-0.6,3.4-1.3,4.9-2.5c2-1.6,4.6-2.3,7.1-3.1c3.3-1.1,6.7-1.1,10.1-1.9c3.1-0.8,6.3-1,9.4-1.8c2.3-0.6,4.8-0.7,7.2-1   c2-0.3,4.1-0.7,6.1-1.1c1.5-0.3,3-0.4,4.5-0.7c3-0.5,6-1.1,9-1.4c1.7-0.2,3.4-0.5,5-0.7c1.8-0.2,3.7-0.1,5.4-0.8   c0.2-0.1,0.5-0.1,0.7-0.1c4.3-0.1,8.7-0.9,13-0.4c3.2,0.4,6.4,0.3,9.4,1.6c1,0.4,2.1,0.4,2.9,0.1c0.9-0.3,1.7-0.2,2.5-0.4   c2.7-0.4,5.5-0.2,8.2-0.9c0.6-0.2,1.2-0.1,1.9,0c4.9,0.3,9.7-0.6,14.6-0.5c4.9,0.1,9.8,0,14.7,0.1c1,0,2-0.3,2.9-0.6   c3.7-1.3,7.6-2,11.4-3c4.1-1,8.2-2.1,12.4-2.9c2.3-0.5,4.7-1,7.3-0.4c1,1.2,3.2,2.1,2.1,4.6c0,0.5,0.9,0.3,0.9,0.9   c-2.2-0.3-4.3,0.4-6.4,1c-2,0.6-4.3,0.4-5.8,2.2c0.4,1,1.1,1.1,1.8,0.9c3.2-0.6,6.4-1.2,9.4-2.3c0.5-0.2,1.2-0.4,1.3-1.1   c-0.1-0.3-0.2-0.5-0.3-0.7c2.6,0.7,5.4,1.1,7.8,2.5c0.4,0.2,0.9,0.4,1.2,0.7c1.9,1.8,4.1,2.3,6.6,2c1.7-0.2,3.4-0.1,5.1,0   c1.6,0.1,3.1-0.7,4.8-0.5c1.4,0.2,2.9-0.1,4.3,0.3c-0.9-1.2-1.8-2.1-3.4-2.2c-0.4,0-1,0.2-1.2-0.5c0.7-0.2,1.5,0.4,2.2-0.2   c0.3-0.6,0.1-1-0.3-1.5c-1.3-1.6-2.8-1.9-5.2-1.1c0.1-0.7-0.4-1.1-0.8-1.6c-1.3-1.2-2.6-2.5-3.8-3.6c0-1,0-1.7,0-2.5   c0.8-1.3,1.8-1.4,3.2-1.1c4.5,0.9,8.4,3.1,12.2,5.6c3.7,2.5,7.9,3.9,12.1,5.4c5.3,1.8,10.7,3.6,15.7,6.1c3.5,1.8,7.1,3.4,10.7,5.1   c2.6,1.3,5.3,2.1,8.3,2.4c2,0.2,4,0.8,6,1.1c1.6,0.2,3.1,0.7,4.7,0.8c1.7,0.2,3.5,0.5,5.1,0.9c2.1,0.6,4.1,0.4,6.2,0.4   c0.6,0.2,0.9,1.1,1.8,0.9c0.2,1.5,0.1,2.9,0.1,4.4c-0.4,0.5-1,0.6-1.5,0.6c-3.7-0.2-7.3-0.5-10.9-1.3c-7.5-1.7-15-3.1-22.5-4.6   c-3.1-0.6-6.1-1.6-9.2-2.4c-1.8-0.5-3.6-0.9-5.4-1.4c-0.1-0.5,0.6-0.7,0.3-1.5c-1.5-1.1-3.6-1.1-5.5-1.8c-2-0.7-4-1.2-6-1.9   c-1.9-0.6-3.7-1.5-6.1-1.7c1.7,2.5,4,3.1,6.7,4.2c-1.1,0-1.7,0.1-2.2,0c-4.7-0.8-9.4-0.5-14.2-0.1c-2.2,0.2-4.5,0.2-6.7,0.6   c-1,0.2-1.8-0.1-2.7-0.5c-6.9-2.8-14.1-4.8-21.2-6.9c-0.8-0.2-1.7-0.4-2.5-0.5c-1.1-0.2-2,0-2.5,1.1c-1.7-0.1-3.4,0.2-4.9-0.8   c-0.3-0.2-0.9-0.2-1.4-0.1c-2.2,0.4-4.4,0.3-6.5,0.4c-5.7,0-11.4,0.6-17,1c-4,0.3-8,0.6-12,1.6c-0.5,0.1-0.9,0.1-1.4,0.1   c-3.2,0-6.3,0.6-9.5,0.8c-3,0.2-6.1,0.3-9.1-0.2c-0.8-0.1-1.5-0.2-2.3-0.2c-5.8,0-11.7,0-17.5-0.1c-1.8,0-3.6-0.2-5.4-0.3   c0,0.1,0,0.1,0,0.1c0.1,0,0.1,0.1,0.2,0.1c0.3,0,0.6,0,0.8,0.5c-0.9,0-1.7,0-2.6,0c-7.3-0.4-14.6,0-21.9,0.2   c-3.1,0.1-6.2,0.2-9.3,0.7c-3.1,0.4-6.2,0.6-9.3,0.5c-1.8,0-3.3,0.7-4.9,1.1c-4.5,1.2-9.2,1.5-13.8,2.2c-4.5,0.8-8.8,2.1-12.9,4.5   c-9,5.4-18.1,10.5-27.5,15.2c-3.7,1.8-7.2,4-10.8,6c-2.4,1.3-4.8,2.5-7.3,3.7c-2.8,1.4-5.5,3.2-8,5.2c-1.1,0.9-2.4,1.8-2.4,3.5   c0,0.3-0.3,0.5-0.5,0.8c-1.7,2-1.8,3.4-0.3,5.5c-0.4,0.1-0.9-0.1-1.4,0.3c0,0.3,0,0.6,0,1c-1.2-0.6-1.2-2.1-2.4-2.7   c0-0.4,0.1-0.7,0.3-1.1c0.3-0.5,0.4-1-0.3-1.3c1.6-1.5,0.1-3.2,0.5-4.9c0.3-0.2,0.7-0.6,1-0.9c0-0.8,0.2-1.6-0.2-2.3   c-0.8,0-1,0.6-1.3,1.2c-0.7,0-1.4,0-2.1,0c-0.6,0-1-0.3-1.2-0.9c0.5-1.1,1.4-1.5,2.5-1.8s2-1,3.1-1.4c0.8-0.3,0.8-1.1,1.4-1.4   c0.2,0.5-0.3,1.1,0.5,1.4C32.6,356.2,33.3,355.6,33.9,354.9z M288.1,317.8c-0.3,1.5,0.9,1.6,1.8,1.7c1.2,0.1,2.6,1.5,3.6-0.4   C291.9,317.3,290.7,317,288.1,317.8z" />
	<path fill="#4C63AA" d="M397.6,335.7c-1.2-0.6-0.1-1.7-0.7-2.4c0.5-0.5,0.9-0.9,1.1-1.1c2.5-0.7,4.3,0.3,5.9,1.4   c2.3,1.5,4.5,3.2,6.6,5c2.7,2.2,5.1,4.8,7.6,7.2c0.5,0.4,0.9,0.9,1.6,0.6c0.8-3,3.4-4.2,6.4-2.9c1.4,0.6,2.6,1.3,3.7,2.3   c0.6,0.5,1.3,0.8,2,1.2c0.8-0.8,1.7-1.5,2.3-2.6c0.5-0.9,1.3-1.5,2.1-2.1c3.9-2.6,7.9-4.8,12.4-6.1c4.2-1.3,8.4-2.2,12.6-2.8   c4.3-0.6,8.5-1.5,12.7-2.6c2.2-0.5,4.6-1.2,7-1.1c0.5,0.6,1.1,1.1,1.5,1.6c0.3,0.7-0.1,1.2-0.4,1.6c-1.6,2-3.3,3.9-5.5,5.3   c-3.3,2.1-6.9,3.1-10.7,3.7c-6,0.9-12,1.9-17.7,4.1c-2.1,0.8-4.1,1.9-6.1,3.2c-0.3,0.2-0.6,0.5-0.6,0.9c3.9-0.4,7.8-0.9,11.7-1.8   c6.5-1.6,12.9-3.5,19.4-4.9c2.4-0.6,4.9-1.1,7.5-1.2c1.6-0.1,3.2-0.3,4.7-0.4c1.4-0.8,2.7-1.5,4-2.3c-1.6,2.5-3.3,4.9-4.6,7.5   c-0.5,1.1-1,2.2-1.4,3.4c-0.3,0.9-0.5,2,0.3,2.9c0.9,0.4,1.8,0.2,2.6-0.3c2.9-1.7,5.5-3.7,8.3-5.5c5.9-4,12.1-7.5,18.7-10.3   c0.8-0.3,1.6-0.6,2.6-1c-0.6,2.1-0.8,4.1-2.2,5.8c-0.5,0.6-0.5,1.2-0.3,2.3c-5.3,1.9-10.1,4.8-14.9,7.7c-2.1,1.2-4.2,2.3-6.3,3.5   c-0.3,0.2-0.7,0.3-1.1,0.4c-2.7,0.3-5.4,0.7-8,0.9c-8.2,0.9-16.5,0.3-24.7,0.4c-2.1,0-4.3-0.1-6.4,0c-3.1,0.1-6.2-0.5-9.2-0.7   c-3-0.3-5.9-0.3-8.9,0c-2.2,0.2-4.3,0.3-6.5,0.3c-3.9,0-7.8,0.3-11.7-0.2c-3.3-0.3-6.5-0.3-9.8-0.3c-1.8,0-3.7,0.6-5.5,0.5   c-1.6-0.1-3.1-0.5-4.3-1.4c-2.3-1.8-4.8-3.4-7.4-4.8c-1.3-0.8-2.6-1.3-4.2-1.3c-1.7,0-3.4-0.6-5.1-0.4c-2.3,0.3-4.6,0.4-6.9,0.7   c-3,0.3-6,1-9,0.6c0.3-1.8,0.6-3.4,0.9-5.1c3.9-2.3,9.3-3.5,14.2-3.8c0.1-1.1-0.8-1.8-1.4-2.5c-2.5-3.1-4.4-6.6-6.7-9.8   c-1.1-1.5-2.2-2.9-3-4.6c-1.3-2.9-1.2-4,1.4-6.3c0.5,0,1.1,0.1,1.7,0c1.8-0.2,3.2,0.5,4.2,1.9c1.7,2.4,3.8,4.6,5.4,7.1   c-2.1-1.3-3.7,0.2-5.5,0.9c0.5,0.9,1.4,1.3,2,0.6c1-1.1,1.8-0.6,2.7-0.2c0.9,0.4,1.7,1.1,2.4,1.8c3.1,3.1,5.4,6.7,7.7,10.4   c2.5,3.9,4.8,7.9,7.2,11.9c0.2,0.3,0.5,0.6,0.9,0.6c0.3-0.1,0.5-0.3,0.7-0.6c-1.5-2.6-3-5.1-4.6-7.7c1.2-0.5,2.6-0.4,3.8-0.5   c2.4-0.3,4.7-0.6,7.5-0.4c-1.3-1.6-2.4-2.9-3.5-4.2C400,338.3,398.5,337.3,397.6,335.7c0.6,0,1,0.4,1.4,0.8   c2.9,2.8,5.8,5.7,8.5,8.7c3.3,3.7,6.9,7.2,11,10.1c0.4,0.3,0.9,1,1.6,0.3c0-0.9-0.8-1.3-1.4-1.7c-2.8-2-5.3-4.3-7.7-6.8   c-3.3-3.5-6.7-7-10-10.5c-0.9-0.9-1.9-1.8-3.2-2.1C397.4,334.9,397.6,335.3,397.6,335.7z" />
	<path fill="#B7BDD5" d="M529.5,298.3c0.1,0.3,0.3,0.6,0.5,0.1c0.9-1.8,1.7-3.7,2.4-5.7c0.2-0.6,0.4-1.7,1.7-1.2   c0.5,1.9,0.1,3.9-0.5,5.8c-1.8,5.7-2.9,11.6-4.5,17.3c-0.8,2.7-1.5,5.4-2.1,8.1c-0.5,2.2-0.8,4.4-1.2,6.9c1.6-0.6,2.9-1.3,4.6-1.4   c0.9-1.7,1-3.7,1.6-5.6c1.4-4.9,2.3-10,4-14.9c0.6-1.9,1-4,1.7-5.9c0.3-0.9,0.2-2.2,1.5-2.6c0.7-0.3-0.2-1.4,0.7-1.8   c0.1,0.9,0,1.7-0.1,2.6c-0.7,4-1.7,7.9-2.5,11.8c-0.9,4.1-1.9,8.1-2.5,12.3c-0.8,2.1-0.8,4.3-1.2,6.5c0,0.2,0.3,0.4,0.4,0.6   c0.3-0.4,0.6-0.7,0.8-0.9c0.4,0.9,1.3,0.6,1.8,0.4c0.9-0.3,1.8-0.3,2.9-0.5c-0.3-2.4,0.3-4.6,0.5-6.9c0.2-2,0.6-3.9,1-5.8   c0.2-0.9,0.7-1.7,1.7-2.1c0.7,0.2,0.9,0.6,1,1.3c0.3,1.8-0.4,3.5-0.6,5.3c-0.2,2-0.9,4-0.8,6.1c0,0.7-0.4,1.3-0.4,2   c0.6,0.5,1.2,0.3,1.8,0.3c5.9,0,11.8,0.1,17.8,0c4.2-0.1,8.3,0.4,12.5,0.5c0.2,0,0.5,0,0.7,0c4.4,1.7,9,0.8,13.6,0.8   c1.5,0,3-0.5,4.4,0.1c0.3,0.1,0.5-0.2,0.6-0.5c1.4,2.8,1.9,5.8,2.7,8.7c0.6,2.5,1.1,5,2.3,7.3c0.9,1.6,0,3.2-1.8,3.8   c-1.1,0.3-2.3,0.4-3.5,0.4c-1.3,0-2.5,0.2-3.4,1.1c-0.6,0.5-1.3,0.8-2.1,0.8c-1.9-0.1-3.7,0-5.6-0.2c-2.9-0.3-5.8-0.3-8.6,0   c-4.6,0.5-9.2,0.4-13.8,0.2c-2.8-0.2-5.5-1.1-8.2-1.5c-3.7-0.5-7.4-2.1-11.2-1.6c-3.7,0.5-7.5,0.1-11.2,0.4c-5,0.4-10,0.7-15,2.1   c-0.1-1.7,0.8-3.3,0.3-4.9c3.5-4.8,5.9-10,6.2-16c0.6-0.6,0.8-1.2,0-1.9c-0.1-1.4,0.2-2.7,0.9-3.7s1-1.9,0.9-3   c1.4-0.3,1.2-1.6,1.7-2.5c0.6-1,1-2.1,1.5-3.1c0.5-1.1,1-2.1,1.5-3.2c1-0.7,0.9-1.8,0.9-2.8c0.9-0.5,0.4-1.1,0.3-1.8   c-0.5,0.6-0.2,1.2-0.3,1.8c-0.6-0.1-1.2,0.2-1.2,0.7c-0.1,0.7-0.8,1.3-0.6,2.1c-0.5,1.2-1,2.4-1.6,3.6c-1-0.8-0.6-1.9-0.3-2.8   c1.6-4.7,2.7-9.6,3.9-14.4c0.2-0.6,0.3-1.2,0.4-1.8C528.7,298.8,529.1,298.5,529.5,298.3z M527.3,348.8c0.3,0,0.8,0.4,1.1-0.2   C528,348.3,527.6,348.3,527.3,348.8z" />
	<path fill="#FCE0D4" d="M766.8,287.6c0.1-1.2,1-2,1.4-3.1c1-0.3,2.1,0,2.7-1.1c-0.3-0.9-1.1-0.2-1.6-0.7c-0.2-0.7,0.3-1.4,0.6-1.8   c2.2-3.6,3.1-7.5,3.6-11.6c0.5-3.5,0.7-7.1,0.8-10.7c0.1-2.9-0.3-5.7-1.2-8.4c-0.6-1.9-0.8-3.9-0.4-6.2c12.9,2.8,26.1,3.8,39.1,6.4   c0.3,0.9-1.5,0.9-0.9,2c0.5,0.8,1.7,1.2,1.6,2.6c0,0.2,0.7,0.5,1.2,0.9c-0.7,0.7-2.2,0.8-1.7,2.3c0.9,0.9,1.9,0.8,3,0.3   c0.6,0.8,1.2,1.5,2.3,1.5c1,0,1.6,0.8,2,1.4c0.7,1,1.6,1.9,2.4,2.9c-1.2,1.6-2.9,2.8-4.4,4c-2,1.7-4,3.4-5.6,5.5   c-1.3,1.7-1.4,1.7-0.6,3.7c-1.8,0.3-3.6,0.3-5.3,0.8c-2.7,0.8-5.5,1.6-7.5,4c-0.6,0.8-1.7,1.3-2.6,1.9c-0.6-0.2-1-0.8-1.4-1.2   c-1.8-1.6-4.3-1.8-5.7,0.2c-1.2,1.8-3.2,2.1-4.5,3.3c-3.1-0.8-6-0.6-8.8-0.3c-2.7,0.2-5.6,0.5-8,2.2   C766.8,288,766.8,287.8,766.8,287.6z M778.9,281L778.9,281c-0.5-0.1-1,0-0.8,0.7c0.7,0.4,1.5,0.3,2.2,0.2c1.3,0,2.7,0.6,3.6-0.8   c-0.2-0.9-0.7-1.1-1.4-1c-0.6,0.1-1.2,0.3-1.8,0.4C780.2,280.6,779.4,280.2,778.9,281z M799.9,278c-1-0.7-1-0.7-1.4-0.7   c-3.1,0.2-6,1.1-9,1.7c-0.4,0.1-0.7,0.2-0.7,0.9c3.3,0.5,6.6,0.1,9.9-0.7C799.3,279.1,799.8,278.9,799.9,278z M790.3,257.2   c0.3,0.5,0.6,0.9,1.4,0.9c1.7,0.1,3.1-0.7,4.7-0.9c0.3-0.1,0.6-0.5,0.5-1.1c-1.8,0.5-3.6-0.1-5.4,0.1   C791,256.3,790.5,256.5,790.3,257.2z M802.5,256.6c0.5-0.3,0.4-0.6,0.2-1.1c-0.7-0.4-1.4-0.6-2.1,0c0,0.6,0.3,0.7,0.6,0.8   C801.6,256.6,802,256.7,802.5,256.6z" />
	<path fill="#EFCBBB" d="M583.3,229.6c0.4,2.6,0.7,5.3,1,8c0.4,3.4,1.1,6.7,1.7,10.1c0.5,2.5,0.9,4.9,1.1,7.5   c0.3,2.8,0.9,5.5,1.4,8.3c0.4,2.2,0.9,4.3,1.3,6.5c0.7,3.5,1.4,7,2,10.5c0.6,3.1,1.1,6.3,1.7,9.4c0.5,2.8,1.2,5.7,1.6,8.5   c0.4,2.4,1.1,4.8,1.2,7.2c0.1,1.6,0.6,3.1,0.8,4.7s0.4,3.2,0.6,4.8c0.6,6.1,1.6,12.2,3.1,18.2c1.2,4.9,3.2,9.3,5.2,13.9   c1.4,3.1,2.6,6.3,4,9.5c1.9,4.5,3.6,9.1,5.8,13.4c0.7,1.4,2,2.1,3.2,2.8c4.4,2.3,8.9,4.3,13.8,5.2c2,0.4,3.9,0.7,5.8,1   c2.1,0.3,4.2,0.1,6.2,0.5c2.3,0.4,4.6,0.1,6.9,0.5c2.3,0.4,4.7,0.2,6.8,1.3c-2.1,0.1-4.2,0.4-6.3,0.4c-4.8-0.1-9.6,0.6-14.5,0.5   c-1,0-1.9-0.1-2.9-0.6s-2.2-0.6-3.4-0.7c-4.2-0.4-8.3-1.1-12.3-2.4c-1.9-0.6-3.8-1.3-5.6-2.2c-2.8-1.4-4.8-3.6-6.1-6.5   c-0.2-0.4-0.4-0.8-0.4-1.3c0-2.5-1.1-4.6-2.2-6.7c-0.8-1.6-1.3-3.3-1.5-5.1c-0.1-1.3-0.3-2.6-0.8-3.9c-2.2-5.8-3.5-11.9-5.2-17.8   c-1.3-4.3-2.6-8.6-3.8-12.9c-1.8-6.5-3.6-13-5-19.7c-0.7-3.1-1-6.2-1.5-9.3c-0.7-4-1.3-8-1.6-12c-0.1-1.5-0.2-3.1-0.3-4.7   c-0.3-4.4-0.7-8.8-2.4-13c-1.4-3.5-1.9-7.2-2.8-10.8c-0.9-3.7-2.2-7.2-3-10.9c-0.4-1.9,0-3.9-0.7-5.5c0-0.7,0.5-0.9,0.6-1.1   C577.7,231.7,580.7,230.9,583.3,229.6z M584.5,244.6c-1.4,1-1.7,2-1.7,3c0,0.9-0.2,2,1,2.7C585.1,248.6,585,246.9,584.5,244.6z    M586.4,260.6c1.1-2.4,0.9-3.7-0.8-4.7C585.5,257.5,585.4,259,586.4,260.6z" />
	<path fill="#B7BDD5" d="M628.7,330.1c1.3,0,2.7-0.4,3.6,1c1.4-0.8,2.8-0.7,4.1-0.4c1.1,0.2,2.2,0.1,3.2,0.4   c2.1,0.6,4.1,0.3,6.2,0.4c2.6,0.1,5.3-0.1,7.9,0c2,0.1,3.9,0.6,5.9,0.7c3.7,0.2,7.3,1.7,11.1,1.7c1.4,0,2.8-0.4,4.1-0.6   c2.5-0.5,4.9-0.8,7.4-1.2c2.2-0.4,4.5-0.6,6.8-1.1c5.1-1,10.1-2.1,14.8-4.2c2-0.9,4-1.9,5.9-3c1-0.6,1.8-1.2,2.4-2.1   c1.9-2.7,4.3-4.8,7-6.6c0.6-0.4,1-0.9,1.5-1.4c1.5-1.4,2.8-3.1,4.6-4.2c0.2-0.1,1-0.4,0.2-0.9c0.8-0.6,1.7-0.5,2.7-0.3   c-0.4,0.6-1.3,0.3-1.6,1c0.3,1,1.4,0.4,2,0.8c-5.6,5.2-10,11.5-15.4,17c-2.5,2.5-5.1,4.9-7.4,7.5c-0.6,0.7-1.5,1.1-2.4,1.4   c-6.7,2.3-13.3,4.9-20.2,6.9c-3.6,1-7.2,1.6-10.9,2.2c-5.2,0.9-10-0.4-15-1.2c-2-0.3-4-0.8-5.9-1.1c-0.7-0.1-1.5-0.2-2.1,0.1   c-2,1.2-4.2,1.2-6.3,1.5c-4,0.6-7.8,1.6-11.9,2.6c-0.4-1.4-0.3-2.9-0.6-4.3c-0.6-3-1-6.1-1.7-9.1   C628.8,332.4,628.7,331.3,628.7,330.1z" />
	<path fill="#EFCBBB" d="M633.9,256.2c2.2,2.5,3.7,5.4,6,7.8c2.4,2.5,5.5,4,8.6,5.3c2.8,1.2,5.7,2.2,8.5,3.1c3.7,1.2,7.5,2.4,11.4,3   c1.1,0.2,2.2,0.4,3.3,0.7c1.1,0.3,2.1,0.2,3.2,0.1c-0.4-2.1-0.5-4.2-1.6-6c1.7-0.9,2.4,0.1,3.2,0.9c0.7-0.4,1.3-0.5,2.1,0.1   c2.3,1.8,4.8,3.6,7.2,5.4c0.7,0.5,1.4,1.2,2.2,1.6c3.1,1.5,5.6,3.9,8.5,5.9c2,1.3,3.8,2.9,5.5,4.5c1.5,1.4,2.3,2.9,2,4.9   c-0.1,0.7,0,1.4,0,2.1c-3.8-3.3-8.2-5.8-12.6-8.3c-0.8-0.4-1.3-1-1.8-1.5c-3.9-0.1-7.5-0.9-11.2-1.5c-3.5-0.5-7-1-10.5-1.3   c-5.2-0.5-10.3-1.9-15.2-3.8c-0.5-0.2-1-0.5-1.4-0.8c-2-1.7-4.4-2.2-6.8-2.8c-2.8-0.7-5.5-1.5-8.1-2.7c-0.2-0.8,0-1.8-0.9-2.2   c-0.2-0.1-0.2-0.6-0.2-0.9C635.6,265,634.9,260.6,633.9,256.2z" />
	<path fill="#EFCBBB" d="M766.8,287.6c0,0.2,0.1,0.5,0.1,0.9c2.5-1.7,5.3-2,8-2.2c2.8-0.2,5.7-0.4,8.8,0.3c1.3-1.1,3.3-1.4,4.5-3.3   c1.3-2,3.9-1.8,5.7-0.2c0.5,0.4,0.8,1,1.4,1.2c-2.2,2.2-3.8,4.8-5.3,7.5c-2,3.5-3,7.3-4.4,10.9c-0.3,0.6-0.4,1.4,0.1,2   c1.1,0.2,1.4-0.7,1.5-1.3c0.2-1.1,0.8-2,1.5-2.8c0.2,1.4-0.6,2.7-1,3.9c-1.4,4.3-2.4,8.7-3.2,13.2c-0.4,2.3-1.2,4.5-1.8,6.8   c-1.1-0.2-1.7-0.8-2-1.9c-0.6-2.5-0.4-5.1-0.5-7.6c-0.1-2.9,0.2-5.9,0.3-8.8c0-1.6-0.2-3.2,0.3-4.7c0.3-0.8-0.2-1.5-0.7-2.1   c-1.4-1.8-3.1-3.1-5.4-3.8c-3.3-1-6.7-1.9-10.1-2.4C764.7,291.6,765.6,289.5,766.8,287.6z" />
	<path fill="#EFCBBB" d="M732.7,303.6c-0.1-0.9-1.1-0.4-1.5-1c0.2-1.3,1.1-2.6,1.2-4.2c-1.5-2.9-1.2-5.9,0-9c2.3-6,7-8.1,12.9-8.3   c1.9-0.1,3.7-0.1,5.6,0c2.6,0.1,5.1-0.1,7.4-1.2c1-0.5,2,0,2.8-0.3c1,0.6,1.6,1.3,1.4,2.4c-0.1,0.4-0.1,0.8,0.4,0.9   c-0.7,2-2.5,3.3-3.8,4.9c-0.6,0.9-1.6,1.5-2.6,2.5c-0.7,0-1.7,0.4-2.7,0.8c-4,1.8-8,3.7-11.9,5.8   C738.7,298.7,735.3,300.6,732.7,303.6z" />
	<path fill="#CDD3EA" d="M767.2,273c-0.2-4.4-0.4-8.8-1.2-13.1c-0.2-1.1-0.8-2-1.2-3c-0.1-0.7,0.9-0.9,0.6-1.7   c-0.1-0.1-0.2-0.3-0.3-0.3c-1.1,0-1.9-0.5-2.6-1.3c-2.8-3.1-4.6-6.7-6.3-10.5c-1.1-2.4-2.1-4.8-3.4-7.1c-0.5-1-1.2-2-2-2.8   c-1-1-2-1.7-3.5-1.2c-0.6,0.2-1.2-0.1-1.7-0.3c-3.2-1.2-6.5-2.5-9.7-3.7c-2.7-1-5.5-2-8.4-3c1.7-0.4,3.1,0.2,4.4,0.5   c4.8,1.1,9.6,2.4,14.2,4.3c0.9,0.4,1.9,0.6,2.9,0.8c2.6,0.5,4.9,1.9,7.1,3.5c0.7-0.4,1.5-0.4,2.3,0.1c0.9,0.5,1.8,0.8,2.8,1.2   c1.4,0.6,2.8,1.2,4.4,1.3c1.5,0.1,3,0.8,4.4,1.3c0.1,1.5-0.8,2.7-1.7,3.8c0.9,1.9,1.2,3.9,1.5,5.9c0.2,1.1,0.5,2.3,1,3.3   c1,2.4,1.3,4.9,1.4,7.5c0.1,3.4-0.4,6.7-0.5,10c0,0.8-0.4,1.5-0.5,2.3c-0.7,0.1-1.5-0.2-2.2,0.2C767.9,271.4,768.1,272.7,767.2,273   z" />
	<path fill="#FBE0D4" d="M67.7,357.7c0.4,0.8-0.1,1.5-0.2,2.1c-0.3,1.5-0.8,2.9,0.1,4.3c-0.6,2.3,0.8,3.9,1.9,5.7   c-2.2,0.5-4.6-0.1-6.2,2.1c-1.4-0.9-2.7-1.8-4.1-2.8c-0.1-0.8,1.1-1.7-0.3-2.5c-0.6,0.9-1.5,1.4-2.5,1.8c-0.1,2.2,2.2,2.2,3.2,3.6   c-1.3,0.2-2.6,0.2-3.3,1.7c1.2,1.4,2.7,0.6,4.1,0.8c1.4,0.2,2.8,0.3,4.1,0.4c0.5,0.9,0.4,1.8,0.4,2.4c-0.2,0.8-0.6,1-0.9,1.1   c-3.3,0.5-6.3,2-9.7,1.8c-1.5-0.1-2.6-0.5-3.3-1.7c-0.6-1-1.3-1.9-2.3-2.6c-0.7-0.5-1.4-1.3-2-2c-1-1.2-1.5-2.6-0.9-4.1   c0.7-2,0.4-4-0.2-5.9c0.1-0.3,0.3-0.6,0.6-0.6c2.9,0.5,5.2-0.6,7.4-2.3c0.5-0.4,1.2-0.6,1.8-0.9c0.4,0.7,0.5,1.7,1.6,1.8   c1.8-0.6,1.5-2.2,1.7-3.6c1.2-0.6,2.3-1.1,3.3-2c1.7,0.5,3.3-0.4,4.8-0.3C67.5,356.5,66.6,357.5,67.7,357.7z" />
	<path fill="#FBE0D4" d="M111.9,287.8c-2.3,1-4.7,1.9-7.3,2.1c-8.8,0.5-17.6,0.4-26.4,0.5c-2.4,0-4.8-0.2-7.2,0.4   c-1.3,0.3-2.6-0.8-3.8,0.1c-1.8-0.9-3.6-1.8-5.2-3c0-1.1-0.6-1.8-1.7-2.4c-1.4-0.7-2.8-1.7-4.2-2.5c-1.8-1-3.7-1.3-5.5-1.5   c-0.5,0.3-0.3,0.8-1,0.8c-2.7-0.5-5.8-0.9-9.1-0.8c2.1-2.8,4.8-4.4,7.9-5.1c5.3-1.2,10.1,0,15,2.5c5.7,2.9,11.3,6.4,17.9,7.4   c2.3,0.3,4.4,1.2,6.7,1.5c0.8,0.1,1.5,0.2,2.3,0.2c6,0,12,0,18,0C109.5,288,110.7,287.9,111.9,287.8z" />
	<path fill="#4C63A9" d="M506.6,326.8c1.5-1.5,3.4-1.4,5.2-1.4c0.5,0,0.8,0.3,1.2,0.6c0.9,0.5,1.8,0.9,2.5-0.2   c0.8,0.1,1.7,0.2,2.8,0.3c-0.3,2.8-1.5,5.3-2.1,8.1c-11.3,3.8-21,10.6-31.1,16.8c-0.5-0.9,0-1.4,0.1-1.9c1.8-5.7,5.5-10,10-13.7   c2.4-2,4.8-3.9,7.5-5.4c2.4-1.3,4.9-2.3,7.7-2.1c0.4,0,0.8,0.1,1.1-0.2c0,0,0-0.1,0.1-0.4C510,326.5,508.3,327,506.6,326.8z" />
	<path fill="#FBE0D3" d="M583,224.2c-0.2-3,1-4.2,4-5c3.7-0.9,7.6-1.1,11.3-1.8c3.2-0.6,6.4-1.4,9.7-0.9c2.8,0.4,5.6,0.7,8.3,0.4   c7.7-0.9,15.4-0.3,23.1-0.4c2.8,0,5.7,0.3,8.5,0.8c1.6,0.3,3.2,0.3,4.8,0.5c4.1,0.5,8.1,1,12.2,1.7c-0.2,0.1-0.3,0.2-0.4,0.2   c-6.2-0.2-12.4,0.6-18.6,1c-4.2,0.2-8.4-0.1-12.6-0.2c-4.6-0.2-9.2-0.5-13.8,0c-6.7,0.6-13.3,0.1-20,0.2   C593.8,220.6,588.4,222.1,583,224.2z" />
	<path fill="#EECABA" d="M55.4,360.1c-0.6,0.3-1.3,0.5-1.8,0.9c-2.2,1.8-4.5,2.8-7.4,2.3c-0.3-0.1-0.5,0.2-0.6,0.6   c-1.2-1.1-1.2-2.8-2.3-4.1c4.4-3,9.2-5.2,14.1-7.4c0.7,0.9-0.2,2.3,1.2,2.7c1.6-0.7,0.8-2.3,1.1-3.6c5.7-3,10.9-6.8,16.8-9.6   c-1.2,1.4-2.5,2.7-3.6,4.1c-2.1,2.7-3.4,5.9-5,8.9c-0.5,0.9-0.4,1.8-0.2,2.7c-1.1-0.2-0.2-1.2-0.9-1.8c-1.5,0-3.1,0.8-4.8,0.3   c-1,0.9-2.2,1.4-3.3,2c-0.5-0.4-0.5-1.4-1.5-1.3C55.8,357.4,55.6,358.8,55.4,360.1z" />
	<path fill="#FADFD3" d="M261.6,268.6c-1.8,0-3.6,0.5-5.4,0.6c-3.3,0.3-6.4-0.6-9.6-1.2c-6.4-1.2-12.8-2.7-19.3-2.4   c-3.8,0.2-7.4-0.5-11-1c-2.5-0.3-5.1-0.4-7.7-0.6c-0.6,0-1.2,0.1-2.1-0.3c4.4-0.3,8.5-1.4,12.8-1.6c3.4-0.2,6.8-0.3,10.3-0.3   c2.9,0.1,5.7,0.2,8.6,0.4c1.2,0,2.2,0.6,3.3,0.9c3,0.8,6.1,0.9,9.1,1.8c1,0.3,2.1,0.6,3.1,0.9C256.3,266.9,258.9,267.9,261.6,268.6   z" />
	<path fill="#B5BBD2" d="M727.3,305.9c1.5,0,2.9,0,4.1,0c1-0.4,1.2-0.9,1.2-1.6c0.8,0.4,1.6,0.5,2.5,0.2c1.2-0.5,2.5-0.9,3.6-1.6   c4.2-2.5,8.2-5.4,12.6-7.5c0.4-0.2,0.8-0.4,1.2-0.6c0.4,0.7-0.7,0.9-0.5,1.7c1.9-0.5,3.4-1.7,4.8-3c2.5-2.3,4.9-4.8,6.9-7.6   c0.2-0.2,0.3-0.6,0.7-0.6l0,0c-0.5,2.6-1.9,4.8-2.9,7.3c-0.2,0.5-0.9,0.9-1.4,1.2c-4.2,3.3-8.9,6-13.9,7.8   c-4.7,1.7-9.3,3.4-13.9,5.4c-0.7-0.8-1.6-0.7-2.5-0.7C729,306.2,728.1,306.6,727.3,305.9z" />
	<path fill="#EDC9BA" d="M842.1,320.8c1.3,1,2.7,0.2,3.9-0.1c4.7-1.3,9.3-2.6,14.2-3.2c1-0.1,2.1-0.4,3-0.4c0.7-0.3,0.1-1.2,0.8-1.4   c0,1,0.3,2,0.6,2.7c-0.2,0.6-0.5,0.9-0.9,1c-2.4,0.5-4.7,1.5-7.2,1.8c-0.9,0.1-1.8,0.3-2.8,0.4c-2.1,0.2-4.3,0-6.2,1.4   c-0.9,0.7-2.3,0.9-3.5,1c-1.6,0.1-3,0.6-4.4,1.3c-0.1,0.1-0.3-0.1-0.3-0.3c0-0.2-0.1-0.3-0.1-0.5v0.1c1,0.1,1.3-0.9,2-1.3   C842.2,322.6,842.3,321.8,842.1,320.8z" />
	<path fill="#FADFD2" d="M30.2,373.1c0-0.4,0-0.7,0-1c0.5-0.5,1-0.2,1.4-0.3c0.2,0,0.3,0,0.5,0.1c1.5,1.2,3.1,2.3,4.6,3.5   c2.3,1.8,4.4,4,6.9,5.1c0.5,1.3-1.4,1.7-0.4,2.9c-2.2-0.1-4.2-1.4-6.3-0.4c-2.1-0.8-1.5-3.6-3.5-4.5c0.3-1.9-0.5-3.1-1.8-4.1   C31,374,30.4,373.7,30.2,373.1z" />
	<path fill="#F5DACE" d="M651.5,359.9c-3.3,0.5-6.6,0.2-9.9-0.4c-2.8-0.5-5.5-1.2-7.9-2.6c-0.9-0.5-2-0.5-2.9-1c0-1.7-0.2-3.3,0.2-5   c1-0.7,2.1-0.6,3.3-1c0.2,1.1,0.3,2.1,0.5,3.2c0.1,0.9,0.4,1.8,0.8,2.6c0.3,0.5,0.7,1,1.2,1c2.5,0,4.6,1.3,6.9,1.8   C646.3,359,648.8,359.7,651.5,359.9z" />
	<path fill="#F5D9CD" d="M673.7,364.6c-6.1,1.4-11.3,0.3-16.1-4c2.6,0,4.9-0.1,7.2,0c1.5,0.1,2.9,0.9,4.3,1.6   C670.5,363,671.9,364,673.7,364.6z" />
	<path fill="#EBC8B8" d="M8.6,356.3c0.7,1.6,0.4,3.5,0.9,5.2c0.5,1.6,1,3.2,2,4.6c1,1.3,1.6,2.8,1.3,4.5c-0.5,0.9-1.4,1.4-2.3,1.7   c-0.1-1.2,0.1-2.5-0.3-3.7c-0.2-0.6-0.3-1.1-0.9-1.2c-1.1,0.5-0.4,1.6-0.8,2.4c-0.8-0.6-0.9-1.7-0.9-2.5   C7.2,363.4,6.5,359.7,8.6,356.3z" />
	<path fill="#E9C6B7" d="M829,325c0.7-1.2,1.5-2.4,2-3.8c0.3-1.1,1.1-2,1.7-2.9c-0.5-0.6-1.5,0.2-1.7-0.8c0.8,0,1.5-0.1,2.4,0.2   c0.6,1.3,0.3,3.3,2.4,3.6c0.3-1.4,0.3-1.4-0.5-3.1c0.4-0.3,0.9-0.6,1.2-0.8c0.3-0.5,0-0.9-0.1-1.3c0.6,0,0.9,0.6,1.5,0.4   c-0.2,2.1,0.2,4.3,0,6.3c0.3,0.9,1.1,1.1,1.4,1.7v-0.1c-0.5,0-0.9,0-1.4,0c-0.5-0.8-1.4-1.2-2.2-1.8C833.6,323.8,831.2,324,829,325   z" />
	<path fill="#B6BBD3" d="M767.2,273c1-0.4,0.7-1.6,1.5-2.1c0.7-0.4,1.5-0.1,2.2-0.2c-0.2,3.4-0.9,6.6-3,9.5c-1,1.3-1.7,2.7-2.6,4.1   c-0.2,0.4-0.3,0.9-0.9,0.9l0,0c1.5-3.6,2.4-7.3,2.3-11.2C766.8,273.7,766.8,273.3,767.2,273z" />
	<path fill="#ECC9B9" d="M692.9,292.7c-1.2,0.4-2.5,0.7-3.8,0.4c-1.9-1.2-3.9-2.5-5.9-3.6c-0.7-0.4-1.3-0.8-1.6-1.5   c2.4-0.8,4.8-0.4,7.4-0.3c0,1.7,1.1,2.7,2.3,3.5C691.8,291.6,692.5,292,692.9,292.7z" />
	<path fill="#F7DCD0" d="M38.1,374.1c-1.2-0.6-2.2-1.4-2.9-2.5c-0.5-0.8-1.4-1.4-2.1-2.1c-0.2-1.1-0.3-2.1,0-2.9   c0.7-0.5,1.3-0.3,1.7-0.4c1.3,1.2,2.4,2.3,3.6,3.4c0.1,1.1,0.1,2.3,0.2,3.4C38.5,373.5,38.7,374,38.1,374.1z" />
	<path fill="#F3D8CC" d="M66.7,375.2c0.5-0.6,1.1-1.1,1.2-1.9c1-0.3,1.7,0.2,2.6,0.5c0.4,1.2,0.8,2.4,1.3,3.6   c-0.9,1.7-2.4,1.6-4.1,1.8C67.8,377.7,67.6,376.4,66.7,375.2z" />
	<path fill="#F5DACE" d="M829.9,267.6c2.8-1,4.3-0.4,5.5,1.9c-0.3,0.7-0.9,1.2-1.6,1.6C831.9,270.9,831.1,270.2,829.9,267.6z" />
	<path fill="#DFBFB1" d="M802.2,316.1c0.5,0,0.6,0.4,0.6,0.8c0,1,0,2,0,3c2.5,2.5,2.8,4,1.4,6c-1.7-2.2-1.8-4.8-1.8-7.5   C802.4,317.7,802.4,316.9,802.2,316.1z" />
	<path fill="#3C3C3C" d="M872,277c-2.4-1.4-4.9-2.8-7.3-4.3c1.4,0.5,2.7,0.2,4.2,0.3C870.2,274,871.3,275.4,872,277z" />
	<path fill="#C9B2A8" d="M40.5,376c0.9-0.1,1.3,0.7,2,1c1.3,0.5,2.4,1.4,3.9,1.3c0.5,0,0.8,0.4,1.1,0.8c0,1.3-0.4,2.2-2,2.4   c0.3-1.5-0.3-2.4-1.7-2.9C42.4,378.1,41.1,377.5,40.5,376L40.5,376z" />
	<path fill="#E8CEC2" d="M691.9,367.5c2.9,0.5,5.9,0.9,8.7,2c-0.1,0.7-0.5,0.6-1,0.6c-2.8-0.1-5.3-1.1-7.7-2.1   C691.9,367.8,691.9,367.6,691.9,367.5z" />
	<path fill="#425596" d="M528,291.3c-3.1,0.6-6-0.8-9-0.7C522,290.3,525.1,290,528,291.3z" />
	<path fill="#D9C1B6" d="M820.7,267.4c1.5-1.3,2.7-3.3,5-1.7c-0.8,0.6-1.5,1.1-2.3,1.7C822.5,267.4,821.6,267.4,820.7,267.4z" />
	<path fill="#B7A299" d="M837.4,267.9c-1.5-0.5-2.5-1.1-4-2.5C835.2,265.5,836.5,266.3,837.4,267.9z" />
	<path fill="#7F8393" d="M527.6,311.4c0.1,1.1,0.1,2.1-0.9,2.8c-0.3-0.7-0.6,0.1-1,0c-0.1-0.8,0.5-1.4,0.6-2.1   C526.5,311.6,527,311.3,527.6,311.4L527.6,311.4z" />
	<path fill="#8A7A74" d="M691.9,367.5c0,0.2,0,0.4,0,0.6c-1.4-0.4-2.7-1-4.2-1c-0.2,0-0.3-0.3-0.5-0.4c0-0.1,0-0.3,0-0.4   C688.8,366.3,690.4,366.6,691.9,367.5z" />
	<path fill="#BDA79E" d="M838.1,275.8c-0.7-1.4,0-1.9,0.9-2.5C839.4,274.5,838.9,275.1,838.1,275.8z" />
	<path fill="#C9B2A8" d="M38.1,374.1c0.6-0.1,0.4-0.7,0.6-1.1c0.4,1.1,1.1,2,1.8,2.9l0,0C39.3,375.8,38.8,374.9,38.1,374.1z" />
	<path fill="#EDD3C7" d="M684.9,366.6c-1.1-0.2-2.1-0.3-3.6-0.6c1.5-0.4,2.6-0.4,3.6,0.2C684.9,366.3,684.9,366.4,684.9,366.6z" />
	<path fill="#706E72" d="M520.2,329.7c0.8,0.6,0.6,1.3,0,1.9C520,330.9,518.9,330.3,520.2,329.7z" />
	<path fill="#F2D7CC" d="M684.9,366.6c0-0.1,0-0.3,0-0.4c0.8,0,1.5,0,2.3,0.1c0,0.1,0,0.3,0,0.4   C686.4,366.6,685.6,366.6,684.9,366.6z" />
	<path fill="#0B0908" d="M837.9,324.5c0.5,0,0.9,0,1.4,0c0,0.2,0.1,0.3,0.1,0.5C838.9,324.9,838.2,325.4,837.9,324.5z" />
	<path fill="#EBC8B8" d="M10.5,372.2c0,0.5,0.4,1.1-0.3,1.5C10.2,373.2,10,372.6,10.5,372.2z" />
	<path fill="#EFCABA" d="M595,257c-0.3,1.5-0.9,2.9-0.9,4.5c0,1.1-0.4,1.9-1.1,2.6c-2-0.2-3.5-1.3-3.9-3.1c-0.3-1.2-0.6-2.5-0.6-3.8   c0-3.3-0.3-6.6,0.1-9.8c0.4-4,0.5-8.1,1.7-12c0.3-1,0-2.1,0.5-3.2c0.6-1.3,1.3-2.3,2.9-2.2c-0.5,1.2-1.1,2.4-1.5,3.6   c-0.9,2.6-1.2,5.3-0.3,8c0.2,0.6,0.4,1.2,1.3,1.1c0.3-0.9,0.5-1.9,0.5-2.9c-0.1-3,0.7-5.8,1.9-8.5c0.7,2.3,0.7,4.6,0.2,7   c-0.3,1.7-0.5,3.5-0.7,5.2c-0.4,3.3-0.4,6.6-0.4,9.9c-0.3,0-0.6-0.1-1,0.2C593.5,254.9,593.5,256.2,595,257z M593.2,243.5   c-1.5,1.9-1.4,3.6,0.1,5.1C594.6,246.9,594.6,245.3,593.2,243.5z" />
	<path fill="#0D0B09" d="M736.4,235c-0.7,1-1.4,1-2.2,0.8c-1.8-0.6-3.7-1.1-5.6-1.6c-3.9-0.9-7.9-1-11.8-0.9c-0.8,0-1.5,0.3-2.2-0.3   c-0.2-0.8,0.3-1.2,0.8-1.5c1-0.7,2.1-1,3.3-1.1c4.9-0.3,9.6,0.3,14,2.6C733.8,233.7,735.2,234,736.4,235z" />
	<path fill="#1C1816" d="M662.7,226.9c1.6-2,3.8-2.2,5.8-2.5c4.6-0.6,8.4-0.1,9.9,1.1c-0.3,1-1.2,1.1-2,1.1c-1.2,0-2.5,0-3.7,0   c-2.7,0-5.4-0.1-8.1,0.5C664,227.3,663.5,227.5,662.7,226.9z" />
	<path fill="#1C1714" d="M595.4,231.3c-1.2,2.7-2,5.5-1.9,8.5c0,1-0.1,2-0.5,2.9c-0.9,0.1-1.1-0.5-1.3-1.1c-0.8-2.7-0.6-5.4,0.3-8   c0.4-1.2,1-2.4,1.5-3.6c0.7-0.3,1.2-0.5,1.4,0.5C595.1,230.8,595.3,231,595.4,231.3z" />
	<path fill="#25201F" d="M616.5,359.7c-1.8-1.7-2.7-4.7-2.1-7.1c1.1-0.2,1.3,0.8,1.6,1.4c0.6,1.3,0.9,2.6,1.4,3.9   C617.6,358.7,617.5,359.4,616.5,359.7z" />
	<path fill="#2E2927" d="M627.1,364.7c-0.5-0.2-0.8-0.6-0.6-1.1c0.5-1.4,1.2-2.8,2.7-3.5C629.8,361.8,629.2,363.2,627.1,364.7z" />
	<path fill="#3F3835" d="M613.5,345.1c1.4,0.4,1.7,1.7,2,2.8c0.2,0.9,0.2,1.8-0.8,2.5c-1-0.7-0.8-1.8-1-2.7   C613.6,346.9,612.8,346.2,613.5,345.1z" />
	<path fill="#504744" d="M612.6,344.1c-1.7-1.7-1.5-3.5-2.1-5.1c0.5-0.7,1.1-0.7,1.3,0C612.4,340.4,612.8,342,612.6,344.1z" />
	<path fill="#2A2523" d="M651.3,235.4c-0.9-1.4-0.7-1.7,1.6-3c0.5,0,0.8,0.3,1.1,0.8C654,234.1,653.1,234.9,651.3,235.4z" />
	<path fill="#4E4643" d="M708.3,235.4c1.6-1.6,2.2-1.6,3.6,0C710.5,236.9,709.7,236.9,708.3,235.4z" />
	<path fill="#463E3B" d="M608.8,333.8c0.6,0,0.8,0.5,0.9,0.9c0.3,0.7,0.6,1.4,0.5,2.2c0,0.2-0.3,0.4-0.5,0.6   c-1.2-0.6-1.4-1.8-1.7-2.8C608,334.3,608.3,333.9,608.8,333.8z" />
	<path fill="#262220" d="M700.3,240.8c0.5-1.2,1.3-1.5,2.3-1.8c0.9,1.5,0.8,1.6-1.4,2.7c-0.2-0.1-0.4-0.2-0.5-0.3   C700.5,241.2,700.4,241.1,700.3,240.8z" />
	<path fill="#2A2522" d="M595,257c-1.5-0.8-1.4-2.1-1.4-3.4c0.4-0.3,0.7-0.2,1-0.2C595.1,254.5,596.1,255.6,595,257z" />
	<path fill="#231F1D" d="M597,269.3c1.4,1.6,1.4,1.7,0.3,2.9C596.1,271,596.1,270.6,597,269.3z" />
	<path fill="#3A3331" d="M595.9,261.1c0.3,1,1.1,1.9,0.3,3.1c-1.1-0.2-1-1.2-1.3-1.9C595,261.7,594.5,260.6,595.9,261.1z" />
	<path fill="#4D4542" d="M626.2,244.8c-1.7-1.1-1.8-1.5-0.8-2.6C626.5,242.8,626.8,243.6,626.2,244.8z" />
	<path fill="#463E3B" d="M660.7,229.2c0.2,2.1,0,2.2-2,2.1C658.9,230.2,659.9,230,660.7,229.2z" />
	<path fill="#3B3432" d="M621.6,238c1.4,0.9,1.4,0.9,1.4,2.2C621.3,239.6,621.3,239.5,621.6,238z" />
	<path fill="#433C39" d="M655,232.3c0.4-0.8,0.9-1.3,1.5-1.6c0.3,0.1,0.6,0.2,0.7,0.5C657.4,232,656.5,232.5,655,232.3z" />
	<path fill="#3E3734" d="M705.4,237.7c0.5-0.5,0.9-0.5,1.4,0.1c-0.1,0.2-0.1,0.3-0.2,0.4c-0.3,0.3-0.7,0.3-1,0.1   C705.4,238.3,705.4,238,705.4,237.7z" />
	<path fill="#EFCABA" d="M595.9,261.1c-1.4-0.4-0.9,0.7-1,1.2c-0.7-0.5-0.2-1.1-0.3-1.6C595.2,260.4,595.7,260.1,595.9,261.1z" />
	<path fill="#EFCBBB" d="M220.6,305.8c-0.2,0.6-0.7,0.5-1.1,0.5c-3.3,0-6.6,0.3-9.8,0.9c-0.2,0-0.3,0-0.5,0   c-9.5,0.6-19.1,0.5-28.7,0.5c-2.7-1-5.5,0.1-8.2-0.9c-0.3-0.1-0.8,0-1.2,0c-1.3,0-2.4-0.2-3-1.6c-0.2-0.5-0.7-0.8-1.3-0.7   c0.7-0.8,0.7-1.6,0-2.3c0.5-0.1,0.8-0.6,1.3-0.5c3,0.3,6-0.2,9-0.5c3.6-0.4,7.1-0.1,10.6-0.5c2.9-0.3,5.7-0.4,8.6-1.2   c1.7-0.5,3.6-0.8,5.5-0.6c3.1,0.3,6.1-0.8,9.2-0.5c2.6,0.3,5.2,0.3,7.7,0.9c0.7,0.2,1.4,0,2.1,0.1c2.9,0.3,5.8,0.4,8.5,1.4   c1.2,0.5,2.5,0.9,3.4,2.2c-0.9,0-1.1,0.9-1.9,1.1c-0.4-0.1-0.7-0.4-1.1-0.4c-5.4-0.3-10.7-0.1-16,0.5c-2,0.2-4,0.8-6.2,0.4   c-1.6-0.3-3.3-0.1-5.3,0.7c1.3,0.6,2.4,0.9,3.5,1c1.5,0.1,3.1-0.3,4.6-0.4C213.8,305.7,217.2,305.8,220.6,305.8z M199.1,305.6   c-1.6-2.5-4.4-2.9-6.4-1.2C194.8,305,197,305,199.1,305.6z M176.5,304.7c0.6-0.8,0.1-1.3-0.4-1.7c-0.7-0.6-1.4-0.9-2.2-0.2   C174.6,304.1,174.6,304.1,176.5,304.7z M185,305.1c-0.7-1.4-1-1.6-2.7-1.3C182.7,305,183.2,305.2,185,305.1z" />
	<path fill="#EFCBBB" d="M49.8,293.7c0.7,0.7,1.3,1.5,2.1,2.2c1.6,1.4,1.6,4.7,0,6.3c-1.2,1.2-2.6,2.2-3.9,3.3   c-2.5,2.3-4.3,5-6.4,7.9c-1.6-2.1-3.7-3.4-6.2-4.1c0.8-2.4,1.2-4.6,1.3-6.9c0-2,0.2-4,1.3-5.7c1.3-2.1,2.9-3.7,5.7-3.5   C45.8,293.3,47.8,293,49.8,293.7z" />
	<path fill="#0A0808" d="M74,302.3c-1.7,1.9-2,1.9-3.8,0.8c-1.8,1-3.2,2.6-5.2,3.4c-0.6,0.2-1.1,0.6-1.7,0.7c-1,0.1-1.9-0.1-2.5-0.9   c-0.6-0.9-0.7-1.9-0.1-2.8c0.9-1.6,2.6-2.2,4.2-2.8C68.1,299.7,71.1,300.4,74,302.3z" />
	<path fill="#1A1614" d="M220.6,305.8c-3.4,0-6.8-0.1-10.3,0.1c-1.5,0.1-3,0.4-4.6,0.4c-1.2,0-2.2-0.4-3.5-1c2-0.8,3.6-1.1,5.3-0.7   c2.1,0.4,4.1-0.2,6.2-0.4c5.3-0.6,10.7-0.8,16-0.5c0.4,0,0.7,0.2,1.1,0.4c-0.3,1.4-1.5,1.4-2.6,1.4   C225.7,305.5,223.2,305.3,220.6,305.8z" />
	<path fill="#221E1C" d="M326.5,271.9c-0.2,0.9-0.9,0.9-1.4,1c-3.6,0.4-7.1,1.4-10.8,1.4c-0.2,0-0.3-0.3-0.6-0.7   c3.8-1.5,7.6-2.4,11.5-2.5C325.9,271,326.4,271.2,326.5,271.9z" />
	<path fill="#272321" d="M27.9,361c0.3-0.5,0.5-1.2,1.3-1.2c0.4,0.7,0.2,1.5,0.2,2.3c-0.4,0.3-0.7,0.7-1,0.9   c-0.4,1.7,1.1,3.5-0.5,4.9c-1,0-1.3-0.6-1.5-1.4c-0.6-2.3-0.2-3.4,1.5-4.7C27.9,361.6,27.9,361.3,27.9,361z" />
	<path fill="#2B2624" d="M298.3,276.9c0.4-1.4,1.6-1.5,2.7-1.8c1.6-0.3,3.2-0.4,4.7,0.7c-0.3,1.1-1.1,0.9-1.8,1.1   C299.9,277.7,299.9,277.7,298.3,276.9z" />
	<path fill="#211C1B" d="M69.7,328c-0.6,2-1.9,3.4-3.5,4.5c-0.8,0.6-1.7,0.9-2.7-0.2C65.3,330.4,67.1,328.7,69.7,328z" />
	<path fill="#120F0D" d="M279.6,313.3c2.5-0.8,4-0.5,5.2,1.1c0.4,0.5,0.6,0.9,0.3,1.5c-0.7,0.6-1.5,0.1-2.2,0.2   c-0.6-0.2-1.3-0.4-1.9-0.7C280.1,315,279.3,314.5,279.6,313.3z" />
	<path fill="#201C1A" d="M272.5,295.7c-2,1.2-4.1,0.8-6.2,0.8c-0.8,0-1.7,0.1-2.1-0.9c0-0.5,0.3-0.9,0.7-0.9   C267.4,295.1,270.1,294.6,272.5,295.7z" />
	<path fill="#25201E" d="M166.8,302.1c0.7,0.8,0.8,1.5,0,2.3c-0.8,0.1-1.5,0.2-2.3-0.1c-0.8-0.3-1.8-0.6-1.4-1.9   C164.3,301.3,165.5,301.7,166.8,302.1z" />
	<path fill="#272220" d="M276.4,295.5c1.6-1.4,3.1-1.4,4.7-0.1C280,296.9,278,297,276.4,295.5z" />
	<path fill="#2E2927" d="M268.5,308.6c0.7-1.2,2-1.5,3.3-1.8c0.5-0.1,0.9,0.2,1.1,0.6C271.6,309.2,269.8,309.7,268.5,308.6z" />
	<path fill="#38322F" d="M84.1,300.9c1.4-1.5,2.3-1.6,4-0.4C86.8,301.9,85.6,302,84.1,300.9z" />
	<path fill="#302A28" d="M79.4,322.8c-1,1.5-2.2,1.9-4.3,1.4c-0.2-0.7,0.2-0.9,0.7-1.2C77,322.5,78.1,322.4,79.4,322.8z" />
	<path fill="#24201E" d="M81.4,301.4c-1.5,1.4-2.1,1.4-3.8,0.5C78.9,300.2,79.5,300.2,81.4,301.4z" />
	<path fill="#2B2624" d="M35.4,350.4c0.7-2.6,1.2-3,3.2-2.6C37.9,348.9,37.2,350.2,35.4,350.4z" />
	<path fill="#312C29" d="M100.6,300c-1.5,0.9-2,0.9-3.5,0.3C98.4,298.5,99.5,298.4,100.6,300z" />
	<path fill="#453D3A" d="M26.4,348.6c0.1-1.8,1-2.8,1.7-3.8c0.2-0.4,0.6-0.3,1-0.2C28.7,346.4,28.3,347.1,26.4,348.6z" />
	<path fill="#25201E" d="M23.5,351.1c-0.6,0.9-0.5,2.2-1.6,2.9c-1-0.3-0.9-1-0.6-1.6s0.6-1.4,1.3-1.7   C22.9,350.9,23.4,350.6,23.5,351.1z" />
	<path fill="#322D2A" d="M311.6,274.4c-1,1.5-2.2,1.1-3.4,1.1C308.8,273.8,309.3,273.6,311.6,274.4z" />
	<path fill="#3D3634" d="M262.5,310.6c1.1-1,2-1.2,3-0.3C264.1,311.8,263.9,311.8,262.5,310.6z" />
	<path fill="#4B4340" d="M91.4,300.4c1.5-1.3,1.7-1.3,2.9-0.4C92.7,301.3,92.5,301.3,91.4,300.4z" />
	<path fill="#3B3432" d="M73.6,325.4c-0.8,1-1.4,1.8-2.6,1.2C71.4,324.9,71.4,324.9,73.6,325.4z" />
	<path fill="#322C29" d="M33.9,354.9c-0.6,0.6-1.2,1.3-1.8,1.9c-0.8-0.3-0.4-1-0.5-1.4c0.3-0.3,0.7-0.7,1-1c0.5,0,0.9,0,1.3,0.2   C33.8,354.7,33.8,354.8,33.9,354.9z" />
	<path fill="#70635F" d="M286.1,296.1c-0.2,0.5-0.4,0.7-0.8,0.8c-0.5,0-0.7-0.3-0.9-0.7C284.9,295.2,285.4,295.3,286.1,296.1z" />
	<path fill="#94837D" d="M23.5,351.1c-0.1-0.5-0.6-0.2-0.9-0.4c0.2-0.4,0.5-0.5,0.9-0.4c0.2,0.1,0.4,0.2,0.4,0.5   C24,351,23.8,351.1,23.5,351.1z" />
	<path fill="#EFCBBB" d="M33.9,354.6c-0.4-0.3-0.9-0.2-1.3-0.2C33.3,353.8,33.5,353.8,33.9,354.6z" />
	<path fill="#4C63AA" d="M502.8,268.4c-2.1-1.7-3.9-3.7-6.7-3.8c-0.4,0.4-0.6,0.4-0.6,0.6c-1.2,3.4-2.2,4.1-5.7,4.1   c-1.6,0-3.1,0-4.7,0c-0.6,0.1-0.9,0.6-1.3,0.9c-2.6,1.5-5.7,1.1-7.3-1.4c-1-1.5-2.3-2.1-4-2.3c-0.5-0.1-0.9-0.7-1.8-0.3   c-0.9,1.3-0.8,3.7-3.2,4.5c-0.6,0-1.6,0-2.7,0c-0.4-0.3-0.8-0.7-1.2-0.9c-2.1-0.8-3.6-2.2-4.9-4.1c-1.5-2.1-3.3-4.1-5.1-6.3   c3.6-1.1,7.4-0.5,10.7-1.9c1,0.3,1.2,1.4,2.5,1.4c-0.4-1.3-0.7-2.5-1.5-3.5c-0.4-0.5-0.4-1-0.4-1.5l0.1-0.1c0.9-0.1,1,0.7,1.2,1.2   c0.6,1.4,1.1,2.8,1.5,4.3c0.2,0.5,0.4,0.8,0.9,1.2c1.2-0.8,2.1-2,3.7-2.4c0.7-0.2,0.8-1,1-1.7c0.8-3.1,2.4-4.4,5.5-4.4   c1.1,0,2.2,0.1,3.3,0c2.6-0.3,4.5,0.8,6.1,2.5c0.8,0.8,1.5,1.5,2.8,1.7c0.7-0.2,1.2-0.8,1.5-1.5c0.3,0.1,0.5,0.3,0.8,0.4   c1.1-0.9,0.3-2.1,0.6-3.1c0.8,0.3,0.2,1.1,0.7,1.8c4.8,0.1,8.4,3.1,12.4,5.5c0.8,0.5,1.6,1.1,2.5,1.6c1.4,0.8,2.2,2.2,2.6,3.7   c0.4,1.2,0.2,2.5-0.8,3.5c-0.5,0.6-1,1.2-1.5,1.7c-2,0-3.8,0.2-5.6-0.5c-0.1-0.7,0.4-1.2,0.6-1.7c0.5-1.1,0.8-2.2,0.9-3.3   c0.1-0.7,0.1-1.4-1-1.5C504.6,264.8,503.9,266.7,502.8,268.4z M469,266.9c0.6-1.4,0.3-2.9-0.8-4.4C468,264.1,468.6,265.5,469,266.9   z" />
	<path fill="#060509" d="M457,291.1c-1.8,0.5-3.4,0.2-5,0.3c-3,0.1-6,0-9-1c-1.5-0.5-3.1-0.6-4.6-0.4c-3.8,0.6-7.6,0.3-11.4,0.3   c-3.4,0-6.9-0.2-10.3-0.2c-2.8,0-5.6-0.2-8.3,0.6c-0.5,0.2-1.1,0.1-1.6,0.1c-2.9,0-5.7,0.4-8.5,0.9c-0.4,0.1-0.8,0.1-1.2,0.1   c-3.4,0.1-6.8,0.6-10.2,0.9c-2.3,0.2-4.6,0.4-6.9,0.7c-2.4,0.3-4.8,0.3-7.1,0.7c-1.6,0.3-3.3,0.2-4.9,0c-0.8-0.1-1.7-0.2-2.4-0.4   c-0.4-0.3-0.5-0.6-0.2-1.2c1.7-0.2,3.5-0.6,5.4-0.6c3.6,0.1,7.1-0.5,10.6-0.8c2.1-0.2,4.3-0.3,6.4-0.7c2.3-0.3,4.6-0.2,6.9-0.7   c1.8-0.4,3.7-0.3,5.5-0.5c2.9-0.2,5.7-0.5,8.6-0.7c6.2-0.4,12.4-0.5,18.7-0.3c3.6,0.1,7.3,0.1,10.9,0.8c0.2,0,0.5,0,0.7,0   c2.3-0.1,4.6,0.2,6.9,0.9c2.3,0.8,4.9,0.7,7.3,0.9C454.4,290.9,455.6,290.7,457,291.1z" />
	<path fill="#050408" d="M434.7,271.6c3.1-8.8,3.3-17.6,3.1-26.4c1-0.6,1.5,0,1.8,0.6c0.6,1.3,1,2.6,1,4c0,2.4,0.1,4.8,0,7.2   c-0.3,4.8-2,9.3-4.4,13.5C436,271,435.6,271.3,434.7,271.6z" />
	<path fill="#050407" d="M384.5,261.2c3.8-3.9,7.8-7.3,11.9-10.6c0.9-0.8,2-1.7,3.3-0.5c-0.1,1.1-1,1.7-1.6,2.5   c-3,4-6.7,7.1-11.4,8.9C385.9,261.9,385.9,261.9,384.5,261.2z" />
	<path fill="#0A0712" d="M393.3,344.6c1.5,2.6,3.1,5.2,4.6,7.7c-0.2,0.3-0.4,0.6-0.7,0.6c-0.5,0-0.7-0.3-0.9-0.6   c-2.4-4-4.8-8-7.2-11.9c-2.3-3.7-4.6-7.3-7.7-10.4c-0.7-0.7-1.5-1.4-2.4-1.8s-1.7-0.9-2.7,0.2c-0.7,0.8-1.6,0.4-2-0.6   c1.8-0.6,3.4-2.2,5.5-0.9c5,3.8,8,9.1,11.3,14.2C391.8,342.3,392.4,343.6,393.3,344.6z" />
	<path fill="#0C0915" d="M479.4,307.1c-0.9-0.2-1-0.9-0.8-1.7c0.9-3.5,1.1-7,1.4-10.5c0.3-2.8,0.3-5.6,0.5-8.4c0.1-1,0.3-2,0.4-3   c0.8,0.2,0.9,0.8,0.9,1.4c-0.1,3.9,0.2,7.9-0.3,11.8c-0.4,3.3-1,6.5-1.5,9.8C479.8,306.8,479.8,307,479.4,307.1z" />
	<path fill="#07050D" d="M465.3,284.9c0.8,5.7-1.2,11-2.4,16.4c-0.1,0.3-0.3,0.7-1,0.7c-0.6-0.9-0.4-2-0.2-3   c0.7-4.1,1.5-8.2,2.3-12.2C464.2,286.1,464.3,285.2,465.3,284.9z" />
	<path fill="#0F0D19" d="M443.6,262.7c-0.3-0.6-0.2-1.2,0.1-1.7c1.5-4.3,1.3-8.7,1.2-13.1c0-0.9-0.5-1.6-1.1-2.3   c-0.5-0.5-0.5-0.9,0.2-1.4c1.5,0.1,1.9,1.4,2.2,2.5c0.2,0.9,0.3,1.9,0.3,2.9c-0.2,3.1-0.3,6.1-1.1,9.2   C445,260.2,444.4,261.6,443.6,262.7z" />
	<path fill="#0A0712" d="M502.8,268.4c1.1-1.7,1.7-3.5,2-5.6c1.1,0.1,1.1,0.8,1,1.5c-0.2,1.1-0.5,2.2-0.9,3.3   c-0.2,0.6-0.7,1-0.6,1.7c-0.9,1.6-1.8,3.2-2.8,4.7c-0.9,1.3-1.7,2.7-3.5,3.4c0-1,0.6-1.5,1-2.1C500.4,273.1,502,271,502.8,268.4z" />
	<path fill="#0B0916" d="M494,252c-0.3,1,0.5,2.2-0.6,3.1c-0.3-0.1-0.5-0.3-0.8-0.4c-0.9-2.3-1.1-4.8-1-7.3c1.2,0.7,1.6,1.8,1.8,3   C493.6,251,493.7,251.5,494,252z" />
	<path fill="#1C2341" d="M464.9,253.9c-0.6-0.3-0.8-0.9-1.2-1.4c-1-1.1-1.8-2.5-3-3.5c-1.1-0.9-2.3-1.7-3.8-2.2c0.9-0.9,1.5-0.2,2,0   C462.1,248.2,464,250.6,464.9,253.9L464.9,253.9z" />
	<path fill="#030404" d="M502.4,292.7c-0.3,0.7-0.8,0.5-1.2,0.2C501.5,292.6,501.9,292.7,502.4,292.7L502.4,292.7z" />
	<path fill="#B8BDD5" d="M549.9,275c1.1,0.9,0.6,2,0.5,3c0,0.3-0.3,0.6-0.3,0.9c0.3,2.4-0.7,4.7-0.5,7.1c0.3,3.1-0.4,6.1-0.6,9.2   c-0.3,3.9-0.9,7.8-0.8,11.7c0,1.3-0.3,2.4-1,3.5c-0.7-0.7-0.9-1.4-0.9-2.3c0-2.1-0.3-4.3,0.1-6.3c0.5-2.6-0.1-5.2,0.8-7.7   c0-0.1,0-0.3,0-0.5c-0.2-2.7,0.4-5.4,0.6-8.1c0.2-2.7,0.3-5.5,1.2-8.1C549.4,276.7,548.7,275.5,549.9,275z" />
	<path fill="#1A1A1E" d="M534.6,324c0.6-4.1,1.6-8.2,2.5-12.3c0.9-3.9,1.8-7.8,2.5-11.8c0.2-0.8,0.2-1.7,0.1-2.6   c0.3-0.9-0.3-2.2,0.8-2.9c1,0.5,0.6,1.3,0.7,1.9c0.1,3-0.5,5.9-1.1,8.8c-1.5,6.9-3.2,13.8-4.8,20.6c0,0.2-0.2,0.4-0.3,0.6   c-0.5-0.1-0.5-0.5-0.5-0.8C534.6,325,534.6,324.5,534.6,324z" />
	<path fill="#27292D" d="M562.9,258.7c0.6-0.3,1-0.3,1.7,0.1c0.7,3.7,0.7,7.5-0.4,11.4C562.6,266.5,563.6,262.5,562.9,258.7z" />
	<path fill="#747784" d="M573.8,284.4c1,0.8,0.7,2.1,0.5,3c-0.7,3.2,0.3,6.7-1.6,9.8c0.1-4.1,0.3-8.1,0.4-12.2   C573.2,284.7,573.4,284.5,573.8,284.4z" />
	<path fill="#383A40" d="M559.5,254.8c1.1,0,1.2,0.5,1.3,1c0.3,2.1-0.1,3.7-1.2,5.1C559.3,258.8,559.4,256.8,559.5,254.8z" />
	<path fill="#5A5D68" d="M534.6,324c0,0.5,0,1,0,1.5c0,0.4,0,0.7,0.5,0.8c0.1,1.3-0.8,2.4-0.5,3.7c-0.2,0.3-0.5,0.6-0.8,0.9   c-0.2-0.2-0.4-0.4-0.4-0.6C533.8,328.3,533.8,326.1,534.6,324z" />
	<path fill="#0B0908" d="M839.3,324.6c-0.3-0.7-1.1-0.8-1.4-1.7c0.3-2-0.1-4.1,0-6.3c0.4-0.6,0.5-1.3,0.3-2   c-0.5-1.7-0.2-3.5-0.9-5.2c-0.4-0.9,0-1.9,0.2-2.8c0.7-0.5,1.2-0.4,1.6,0c0.6,0.7,1.2,1.4,1.5,2.3c0.5,1.7,1,3.4,1.6,5.1   c0.5,1.5,0.5,3-0.1,4.5c-0.3,0.7-0.9,1.5,0,2.3c0.2,1,0.2,1.8-0.8,2.4C840.6,323.6,840.3,324.6,839.3,324.6z" />
	<path fill="#100E0D" d="M836.4,316.2c0.1,0.4,0.3,0.7,0.1,1.3c-0.3,0.2-0.8,0.5-1.2,0.8c0.8,1.8,0.8,1.8,0.5,3.1   c-2.1-0.3-1.9-2.3-2.4-3.6c-0.8-0.4-1.6-0.2-2.4-0.2c-0.6-0.4-1.2-0.6-1.9-0.1c-0.6,0.4-1.2,0.3-1.8-0.5c1.2-0.9,1.3-2.4,1.9-3.3   c1.4-1,1.7,1.5,3.1,0.5c-0.6-1.1-1-2.3-1.3-3.6c0.2-0.8,0.7-1,1.4-0.8c1.5,1.8,1.7,4.1,2.1,6.2   C835.1,316.2,835.8,315.9,836.4,316.2z" />
	<path fill="#181311" d="M257.6,313.8c0.1,0.2,0.2,0.4,0.3,0.7c-0.1,0.7-0.7,0.9-1.3,1.1c-3.1,1.1-6.2,1.8-9.4,2.3   c-0.7,0.1-1.4,0.1-1.8-0.9c1.5-1.8,3.8-1.6,5.8-2.2C253.3,314.1,255.4,313.5,257.6,313.8L257.6,313.8z" />
	<path fill="#1C1714" d="M288.1,317.8c2.7-0.9,3.8-0.6,5.4,1.3c-1,1.9-2.4,0.5-3.6,0.4C289,319.5,287.7,319.4,288.1,317.8z" />
	<path fill="#0C0A15" d="M397.6,335.7c0-0.4-0.2-0.8,0.2-1.1c1.3,0.3,2.3,1.1,3.2,2.1c3.3,3.5,6.7,7,10,10.5   c2.4,2.5,4.9,4.8,7.7,6.8c0.6,0.4,1.4,0.8,1.4,1.7c-0.7,0.6-1.2-0.1-1.6-0.3c-4.1-2.9-7.7-6.3-11-10.1c-2.7-3-5.6-5.9-8.5-8.7   C398.6,336.1,398.2,335.7,397.6,335.7L397.6,335.7z" />
	<path fill="#7F8393" d="M527.6,311.4c0.1-0.6-0.2-1.2,0.3-1.8C528,310.3,528.5,311,527.6,311.4L527.6,311.4z" />
	<path fill="#4E4D55" d="M527.3,348.8c0.3-0.5,0.7-0.4,1.1-0.2C528.1,349.1,527.7,348.8,527.3,348.8z" />
	<path fill="#1C1917" d="M799.9,278c-0.2,0.8-0.6,1.1-1.2,1.2c-3.3,0.8-6.6,1.2-9.9,0.7c-0.1-0.7,0.2-0.8,0.7-0.9c3-0.5,6-1.5,9-1.7   C798.9,277.4,798.9,277.3,799.9,278z" />
	<path fill="#3F3835" d="M790.3,257.2c0.2-0.8,0.7-0.9,1.3-1c1.8-0.2,3.6,0.5,5.4-0.1c0.1,0.6-0.2,1-0.5,1.1c-1.6,0.2-3.1,1-4.7,0.9   C790.9,258.1,790.5,257.7,790.3,257.2z" />
	<path fill="#332D2B" d="M780.8,280.6c0.6-0.2,1.2-0.3,1.8-0.4c0.7-0.2,1.2,0.1,1.4,1c-0.9,1.4-2.4,0.8-3.6,0.8   c-0.2-0.8-1.3-0.1-1.4-0.9l0,0C779.6,281,780.3,281.3,780.8,280.6z" />
	<path fill="#554B48" d="M802.5,256.6c-0.4,0.1-0.9,0-1.3-0.3c-0.3-0.2-0.6-0.2-0.6-0.8c0.7-0.6,1.4-0.4,2.1,0   C802.9,256,802.9,256.3,802.5,256.6z" />
	<path fill="#82736E" d="M778.9,281c0.2,0.8,1.2,0.1,1.4,0.9c-0.8,0.1-1.5,0.2-2.2-0.2C778,281,778.4,280.9,778.9,281z" />
	<path fill="#82736E" d="M780.8,280.6c-0.5,0.7-1.2,0.4-1.9,0.4C779.4,280.2,780.2,280.6,780.8,280.6z" />
	<path fill="#28221F" d="M584.5,244.6c0.5,2.3,0.5,4-0.7,5.7c-1.2-0.7-1.1-1.7-1-2.7C582.9,246.6,583.1,245.6,584.5,244.6z" />
	<path fill="#292320" d="M586.4,260.6c-1.1-1.6-0.9-3.1-0.8-4.7C587.3,256.9,587.6,258.2,586.4,260.6z" />
	<path fill="#282321" d="M55.4,360.1c0.2-1.3,0.4-2.6,1.8-3.2c1,0,1,0.9,1.5,1.3c-0.1,1.4,0.2,3-1.7,3.6   C55.9,361.8,55.8,360.8,55.4,360.1z" />
	<path fill="#2F2824" d="M593.2,243.5c1.3,1.7,1.3,3.4,0.1,5.1C591.9,247.1,591.8,245.5,593.2,243.5z" />
	<path fill="#302825" d="M199.1,305.6c-2.1-0.6-4.2-0.6-6.4-1.2C194.6,302.6,197.4,303.1,199.1,305.6z" />
	<path fill="#211C1A" d="M176.5,304.7c-1.8-0.6-1.8-0.6-2.7-2c0.8-0.7,1.5-0.4,2.2,0.2C176.6,303.4,177.1,304,176.5,304.7z" />
	<path fill="#665751" d="M185,305.1c-1.8,0.1-2.3-0.1-2.7-1.3C184.1,303.5,184.4,303.7,185,305.1z" />
	<path fill="#263363" d="M469,266.9c-0.5-1.4-1.1-2.8-0.8-4.4C469.3,264,469.6,265.5,469,266.9z" />
</g>
</svg>