<?xml version="1.0" encoding="utf-8"?>
<!-- Generator: Adobe Illustrator 26.0.3, SVG Export Plug-In . SVG Version: 6.00 Build 0)  -->
<svg version="1.2" baseProfile="tiny" id="Layer_2_1_"
	 xmlns="http://www.w3.org/2000/svg" xmlns:xlink="http://www.w3.org/1999/xlink" x="0px" y="0px" viewBox="0 0 900 600"
	 overflow="visible" xml:space="preserve">
<g id="b_00000077300568626346493620000017616064267150875274_">
	<path d="M314.2,119.5c15.6,4.9,31.8,2.7,47.8,3.2c11-5.8,22.4-7.5,34.5-5.6c5.9,0,12.5,3.6,18.1,1.1c12.5-6.2,19.9-7.6,19.3-24.1
		c-1.2-0.8-2.6-0.5-4-0.9c-0.4,0.7-0.7,1.3-1,1.8c-2.9,0.1-2.8-4.6-6.6-1.3c-2.3-0.7-2.9-3.3-3.8-5.2c-2.3,0,0.3,2.2-0.3,3.4
		c-3,0.9-2.9-3.4-5.4-4c-0.2,0.4-0.4,0.8-0.7,1.5c-2.7,0.3-3.2-3.7-5.7-3.6c-1.1-2.5-2-4.6-2.9-6.7c-0.9-0.2-1.8-0.4-2.7-0.6
		c-4.2-3.9-1.1-8.6-1.8-13.4c-0.6,0.9-1,1.4-1.3,2c-0.2,0-0.5,0-0.7,0.1c-1.5-3.3-1.3-7-0.1-10.9c-1.1-1.2-1.3,0.7-2.5,0.4
		c-1.9-1.5-0.7-5.5-0.4-7.8c0.4-3.4-2.3-6.6,0.3-9.8c2.3-3,2.6-6.3,4.3-9.4c-0.5-0.6-1-1.2-1.6-1.8c1.3-3.2,2.8-5.7,6.4-6.1
		c-0.7-0.5-1.2-0.9-1.9-1.5c0.5-0.5,1-0.8,1.4-1.2c2,0.4,3.4-0.4,4.8-1.8c-0.3-0.7-0.7-1.3-1.2-1.8c0-1.7,1.8-1.7,2.5-2.7
		c0.7,0.2,1.2,0.3,1.7,0.5c0.9-2-2.5-1.4-0.7-4c3-0.6,5.9-1.2,8.9-1.9c0.5-1.6,1.1-4.5,3.1-3.2c4.1,1.7,6.8-4.3,11.8-2.2
		c1.3-2.5,5.2-1,6.5,0.8c4-0.8,8.3-4.1,12.3-1.9c0.2,2.2-2.3,0.8-2.9,2.4c1.8,2.3,10.1-5.8,12.8-1.4c-1.1,0.5-2.3,1-3.7,1.6
		c4.1,3.2,14.1-1.1,14.8,5.5c-1,0-2.1,0-3.2,0c-0.1,0.3-0.2,0.7-0.4,1.3c4.8-0.7,7.6,3.1,11.6,4.8c-0.1,0.5-0.2,1-0.4,1.5
		c2.1,1.6,3.1,4,4.4,6.3c-0.7,0.5-1.2,0.8-1.8,1.2c0.5,1,0.9,1.9,1.4,2.9c-0.3,0.7-0.6,1.4-0.9,2c0.5,0.4,0.9,0.8,1.5,1.3
		c0.5,2.6,1,5.3-1,7.7c0.1,1.3,0.1,2.6,0.2,3.9c-1.2,1.3-1.2,1.3-2.7,1.8c1.1,2.6-0.9,4.8-1,7.2c-0.6,0.3-1,0.5-1.5,0.7
		c0,1.3,0.6,3.1-0.6,4.1c-2.1-4.1-4.1-13.3-10-12.1c-11.1,0.4-20.3,0-26.7,11.4c0.4,3-1.3,5.2-0.8,8.2c-0.9,1.4-1.8,2.8-2.7,4.2
		c0.4,0.4,0.7,0.8,1,1.2c-0.4,1.2-1.5,1.5-2.5,1.7c-0.5-0.2-1-0.4-1.5-0.6c-0.5-1-0.9-2-1.4-3.1l0,0c4.1-18.1,14-27,33-26.6
		c-16.4-10.7-37.2,8.8-35.2,26c-0.8,1.5-2.6,2.5-2.2,4.3c-3,4.7,2,9.5,5.2,12.3c0.2,13.1,1.4,26.6-11.1,33.9
		c4.9,19,18.4,37.5,40.1,36.7c-0.1-1.4,0-2.3,0.7-3.4c0.6,1.4,1.2,2.7,1.7,3.8c3.6,0,6.8-0.1,10-0.1c0,0.2,0,0.5,0.1,0.7
		c-11.7,5.1-24.8,0.2-35.1-5.9c-12.3-6-15.4-20-19.8-31.6c-2.2,0.6-3.6,1.9-4.9,3.5c8,16.9,2.7,44.3-16.9,50.2
		c20,59.6,24,59.2-1.3,118.4c32.6-1,66.9,11.2,98.3-1c-16.7-55.1-15.1-37.3-4.4-92.3c20.5-7.8,10.9-28.8,3-42.9
		c0.3-0.2,0.5-0.5,0.8-0.7c0.8,0.9,1.7,1.9,2.6,2.8c1.2-1,2.2-1.9,3.2-2.8c0.5,0.6,1,1.1,1.2,1.4c27-1.3,51.8-12.8,78.8-12.7
		c18.5-4.5,36.5-13.2,55.8-13.3c7.4,2.3,14.5-4.7,21.7-1.1c-0.2,0.1-0.5,0.3-0.7,0.4c-0.2-0.2-0.4-0.2-0.6-0.1
		c-0.6-0.1-1.2-0.3-1.6,0.3c-6.3-0.3-12,3.4-18.3,2.2c-3-0.7-5.9,0.9-8.9,0.8c-14,1-26.6,7.8-40.2,11c-13.1,3.4-26.7,2.3-39.8,6
		c-16.4,3-32.4,9.4-49.2,9.4c8.8,12.4,11.8,34.4-5.2,40.6c-1.9,7-2.2,13.8-4,20.8c-1.6,8.8-6.5,16.7-4,25.8
		c6.1,25,15.5,49,18.5,74.7c7.5,31.5,1.4,64.2,1.6,95.7c-0.2,20.6,2.7,40.9,3.5,61.6c1.1,20.3-2.7,40.5-1.5,60.6
		c1.2,0.3,2.2,0.5,3.2,0.7c2.9,5.9,1.9,11.4,7.4,16.6c4.7,5.2,8.5,12.6,15.2,15.1c3.7,1.4,7.2,2.9,7.5,7.3c8.7,18-35,15.7-42.9,8
		c-3.9,2.4-22.9,1.5-20-5.7c3.5-4.5,2.7-10.1,2.5-15.4c-1-5.9,3.2-11.4,2.3-17.2c1.4-2,3.3-1.5,5.2-1.1c-2.1-15.6-1.8-31.9-7.9-46.5
		c-7.5-17.5-10.5-36.4-7-55.1c-0.8-31.7-16.8-61.3-22.6-92.5c-7.9,33.3-12.3,70-28.7,100.4c-3.7,9.9-0.9,21.1-4.8,31.1
		c-5.4,17.2-11.2,34.5-11.5,52.8c0.8,4-3.4,14.7,2.5,14.3c4.1,11.4,9,23.5,17.1,32.7c5.2,3.9,3.3,9.9,1.9,15.3
		c-13,3.9-27.2,4.4-40.4,1c-0.5-1.5-0.9-2.9-1.3-4.3c-2.4-1.2-5.4-0.6-7.8-2.2c-1-5.9,3.5-11.4,2.6-17.5c0.6-5.4-3.1-12.4,3.4-15
		c5.2-61.7-14-74,13.5-138.1c2.4-41.5-10.4-83.6-4.5-125.5c26.6-65.9,25.3-66.8-0.5-133.9c-10.6-9.4-30-4.3-43.4-8.1
		c-12.7-1.2-23.9-7.5-36.2-10.3c8.7-3.3,16.9,4.6,25.4,5.9c12.2,2.8,25,2.8,37.2,5.7c4.3,0.6,15.4-0.6,17.5,2.5
		c1.3,3.7,4.2,6.5,5,10.5c17.3-0.9,22.8-33.3,15.9-46.3c-17.3,0.5-37.3-7.7-53.2,4.1c-12.2-1.6-24.8,2.1-36.7,0
		c0.3-0.3,0.6-0.6,0.9-0.9c-4.7-1.8-9.5-3-14.3-4C313.1,120,313.7,119.8,314.2,119.5z M524,560.9L524,560.9c-1-1.1-1.9-1.7-3.1-2.7
		c-2.9,2.7-7,3.2-10.2,5.9c-3.6-4.1,6.2-5.9,8.9-7.6c-0.3-0.5-0.7-1-1-1.6c-4.4,1.3-9,1.7-12.6,5.1c-3.2-5.8,7.6-5.8,11-7.4
		c-0.2-0.4-0.4-0.8-0.5-1c-5.5,1.1-10.7,1-15.2,4.5c-0.4-0.4-0.8-0.8-1.2-1.1c2.3-5.5,9.2-3.7,14-5.4c-0.6-3.3-1.2-6.3-1.7-9.1
		c-11.2-6.9-9,8.1-15.9,12.5c-1.3-0.1-2.6-0.2-4-0.3c-1.8-2.3-1.9-5.4-4.3-6.9c-4.3,11.5-0.6,23.4-5.6,34.5
		c5.1,0.5,10.2,3.3,15.2,1.7c2.1-0.8,4-0.3,5.9,0.7c11.8,6.1,27.1,5.9,38.6-0.4C540.9,566.6,533.7,575.7,524,560.9z M388.3,562.9
		c-1.6,0-2.3-0.4-3.8-1.5c-0.2,9.7,0.8,18.8-2.5,28.1c1.9,0,3.6,0.9,5.2,0.2c0.2-0.9,0.4-1.8,0.7-3c2.6,2.2,1.7,5.9,2.8,9
		c12,2.4,24.5,2.3,36.3-1.2c-7.6-3.2-14.7,3.2-13.8-0.6c0.9-0.8,2-1.6,3-2.4c3.9-0.2,7.5,0.4,11.4,0.9c4.2-7.6-5.8-11-7.7-17.5
		c-3.3-8.1-9.4-15.2-10.8-24c-3.6-1.9-5.4-5.3-8.1-8c-2.4,0.4-4.7,0.9-6.4,2.1C393.3,551.5,392.3,558.1,388.3,562.9z M459.2,317.4
		c-13.5,40.7,15.7,80.9,19.4,121.4c-3.6,18.2-2.2,37.4,5.1,54.5c6,15.5,7.4,32.1,9.3,48.4c2.5,0.2,4.5,0.1,7.1,0.1
		c0.6-3.9,3.9-5,7.2-6.3c2.5-41.2,0.9-82.5-2.1-123.7c3.5-40.8,3.5-81.7-6.8-121.7c-32.1,12.1-67.1-1.1-99.8,1.3
		c-7.4,40.4,3.5,82.2,4.5,122.8c-1.4,16.9-11.7,31.2-14.2,47.8c-6.8,29.6,3.5,59.1,0.6,89c5-6.2-1.9-8.8,12.5-10.8
		c0.6,0.7,1,1.2,1.6,1.9c2.1-20,6.1-39.2,12.9-58.2c4.4-10.6,1.7-22.2,4.7-32.9c4.7-9.6,8.9-19.3,12.1-29.5
		c13.5-33.5,12.7-71.9,25.1-105.2C458.6,316.8,458.9,317.1,459.2,317.4z M493,544.2c-0.5,5-0.5,5,2.2,6.2c2-1.3,3.6-3.2,4-5.6
		C497,544.6,495.1,544.4,493,544.2z M389.6,553.8c-1.7,0.6-3,4.2-1,4.7C389.8,556.3,389.8,556.3,389.6,553.8z M396.1,43.6
		c-0.6-0.6-0.7-0.1-1.1,0.3C395.4,44.5,395.7,43.9,396.1,43.6z M399.6,32.8c0.7-0.3,0.7-0.5,1.1-1.4
		C399.7,31.7,399.1,31.8,399.6,32.8z M400.5,27.5c-1.2-0.1-1.2-0.1-0.9,1.1C400,28.2,400.3,27.8,400.5,27.5z M430.3,4
		c-0.3-0.1-0.6-0.4-0.9,0C429.8,4.4,430,4.4,430.3,4z"/>
	<path fill="#040303" d="M497.1,151.7c-0.3,0.2-0.5,0.5-0.8,0.7c-6.3-8.4-11.4-19.1-20.5-24.7c0-0.4,0.1-0.7-0.4-0.3
		c0.2,0.1,0.3,0.2,0.5,0.2c1.9,7.2,9,13.9,6.5,21.9c-0.5-0.2-0.9-0.5-1.4-0.7c-2.6-13.9-5.4-21.7-18.9-27c-0.2,0.6-0.4,1.2-0.6,2.1
		c-2.1-5.8-3-13.6,0.5-18.8c0.5,0,0.9,0.1,1.4,0.1c-3.2,3.2-0.7,9.2-1.7,13.6c3.3,1.7,6.4,3.4,9.6,5.1c23.3-13.7,36.2,3.5,55.8,1.6
		c17.6-0.7,33.7-7.1,50.9-8.8c16.7-1.7,33.5,0.9,50.3,0.1c5.5,0.7,10.6-3.5,16-1.5c0,0.2,0,0.5,0,0.7c-1.6,0.3-4-0.7-5.1,0.8
		c-1.2,0.4,0.1,1.6-0.9,2.2c-0.8-0.2-2.1-0.9-2.7-1.5c-25.5,5.1-53.3-5-78.3,5.6c0.4,0.4,0.7,0.7,1.1,1c-0.6,0.1-1.4,0-1.6,0.8
		c-1.1,0.2-1-0.7-1.1-1.3c-3.3,0.9-34.2,5-37.8,5c-0.3-0.4-0.7-0.9-1.1-1.4c-2.4-0.5-4.9-1.1-7.2-1.6c-0.7-0.8-1.2-1.5-1.3-1.7
		c-10.9-1.8-22.8-6.4-32.3,0.7c7.3,6.1,12.8,13.7,18.2,21.1c1.8-1.1,3.5-5.4,5.6-4.2c-0.6,3-2.8,5.1-4.5,7.6
		c0.6,0.8,1.1,1.4,1.7,2.1C497.1,151.2,497.1,151.5,497.1,151.7z"/>
	<path fill="#130C0C" d="M317.7,142.2c-1,0.3-2.2-0.5-3,0.7c-13-3.1-25.2-9.3-37.6-14.2c-16.2-3.4-34.2-2.8-50.6-3.1
		c14.8-5.5,30.6,3.5,45.3-1.2C286.4,131.5,301.9,137.8,317.7,142.2z"/>
	<path fill="#251A18" d="M226.5,125.6c0.6,0.2,1.1,0.5,1.7,0.7c-3.3,1.8-6.2,1.1-10,1.6c-0.4-0.4-1.1-1.1-1.7-1.7
		c0.2-1.1,0.3-1.8,0.5-2.5c6.5-4.1,14.2-3.8,21.4-4.9c-0.4-0.8-0.7-1.5-1.1-2.3c2.4-2.1,6-1.9,9-1.6c5.7,1.2,10.3-4.5,16.1-1.9
		c-5.9,1.3-11.7,3.1-17.2,5.6c0.7,0.2,1.5,0.4,3,0.8c-3.5,1.9-5.9,0-9.3,1c-3.1-0.7-14.4,2.2-14.7,5.5
		C225.1,125.8,225.8,125.7,226.5,125.6z M224,122.7c-2.7-0.5-4.5,1-4.8,3.5c1.3-0.1,2.2-0.1,3-0.2
		C222.9,124.9,223.4,123.9,224,122.7z M239.7,116.2c0,3.9,4.5,1,6.5,0C244.2,116.2,242,116.2,239.7,116.2z"/>
	<path fill="#1B100F" d="M260.7,113.7c0.5-0.2,1.1-0.5,1.6-0.7c16.7,5.7,34.7,3.7,51.8,6.6c-14.2,1.5-29.7-1.3-43.8-1.7
		c-0.6-0.5-1.4-1.1-1.8-1.4c-1.6,0.1-2.9,0.1-4.2,0.2c0-0.2,0-0.4,0-0.6c0.6-0.1,1.2-0.2,2.2-0.3
		C264.5,114.4,262.8,114.6,260.7,113.7z"/>
	<path fill="#281817" d="M660.4,126.1c-0.9-0.6-1.9-0.8-2.9-1c7.5-2.2,15.1-3,23-2.6c-2.5-2.4-6.1-1.4-9.1-2.7c0-0.3,0-0.5,0-0.8
		c0.6,0,1.1-0.1,1.7-0.1c-0.2-0.4-0.2-0.9-0.2-1.3c2.1-0.3,4.1-0.4,6,0.6c-0.4,0.1-0.9,0.2-1.5,0.4c1.1,0.4,2,0.7,2.8-0.2
		c1,0.4,1.9,0.9,2.8,1.3c0.2,1,0.4,1.8,0.7,2.7c-0.2,0.4-0.5,1-0.8,1.6C675.2,124.2,667.6,123.6,660.4,126.1z"/>
	<path fill="#120C0C" d="M671.3,119c0,0.3,0,0.5,0,0.8c-6.6-0.2-13.4,0.5-19.7-1.7c-1.1-1.2-2.5-0.5-3.8-0.5c-0.7,0-1.9,0.1-1.7-1.3
		c1.5-0.1,3.2-0.5,4.8-0.1c1.5,1.5,4.2,0,6,1.3c2.2,0.8,4,1.3,6.4,0.2c0.6-0.3,1.7,0.3,2-0.8c0.4-0.1,0.7-0.2,1.1-0.3l-0.2,0.2
		l0.1-0.2c0.8,2,4.5,0.5,6.4,1c0,0.2,0,0.4,0,0.6c-2.5,0.1-5-0.1-7.5,0.3c0,0.2,0,0.3,0,0.5C667.3,118.9,669.3,118.9,671.3,119z"/>
	<path fill="#1E1514" d="M479.6,55.5c1-0.6,0.4-1.6,0.7-2.4c1.4,4.4,2.8,8.8,2.2,13.5c0.7,0.9,1.9,1.5,0.6,2.6
		c-0.7-3.4-4.9-1.5-7.2-1.4c0-0.3,0-0.5-0.1-0.8c1.4-1.5,3.5-0.1,5.2-1.2c-0.1-0.6-0.2-1.1-0.2-1.3c-2-1.2-3.7,0.8-5.7,0
		c1-2.7,3.6-2.4,5.8-3.2C480.5,59.4,480.1,57.4,479.6,55.5z"/>
	<path fill="#0D0D0C" d="M475.9,67.9c2.4-0.1,6.6-2,7.2,1.4c-0.5,1.1-1,2.1-1.6,3.3c0.5,3.2,0.9,6.8-0.4,9.9c-0.3-0.1-0.5,0-0.8-0.1
		c0.4-3.6,1-6.9-0.5-10.4c-0.9-0.2-1.7-0.4-2.5-0.5l0,0c-0.3-0.3-0.5-0.5-0.8-0.8c0,0,0,0.1,0,0.1C476.7,69.7,476.4,68.8,475.9,67.9
		z M479.9,69c-0.2-0.4-0.5-0.1-0.9,0C479.3,69.4,479.6,69.1,479.9,69z"/>
	<path fill="#362725" d="M462.1,108.8c-1.3-7.2,11,0.1,13.8-12.5c0.2,0,0.5,0,0.7-0.1c0.1,7.1-7.3,10.5-13.6,10.4
		C462.7,107.3,462.4,108.1,462.1,108.8z"/>
	<path fill="#2E2A28" d="M476.7,97.4c0.5-5,2-10.2,3.6-15c0.2,0,0.4,0,0.7,0C480.4,87.4,479.4,92.8,476.7,97.4z"/>
	<path fill="#281817" d="M656.9,117.4c-1.8-1.3-4.5,0.2-6-1.3c5.1,1.1,11.3-3.7,15.5,0.4c-0.4,0.1-0.7,0.2-1.1,0.3
		C662.4,115.8,659.6,115.5,656.9,117.4z"/>
	<path fill="#271E1B" d="M649.7,115.9c-1.2,0.1-2.4,0.2-3.5,0.3c-0.2,1.4,0.8,1.1,1.3,1.4c-2,0.7-4,1.4-6,2.1
		c-0.2-0.2-0.5-0.5-0.7-0.7c1.1-0.7,2.2-1.4,3.4-2.2c-1.7,0-3.3,0-4.9,0c1.3-1.9,4.4,0.2,5.8-1.4
		C646.6,115.3,648.2,115.1,649.7,115.9z"/>
	<path fill="#949292" d="M407.2,16.3c0.2,0.3,0.3,0.6,0.5,0.9c-1.4,1.3-2.9,2.2-4.8,1.8c0.4-0.7-0.4-1.7,0.6-2.2
		c0.2,0.4,0.3,0.8,0.5,1.3C405.2,17.4,406.2,16.8,407.2,16.3z"/>
	<path fill="#A6A2A2" d="M454.8,1.6c-1.5,0.9-3.2,3.3-5,1.6c0.6-1.6,3-0.2,2.9-2.4C453.3,1,454.1,1.3,454.8,1.6z"/>
	<path fill="#150F0F" d="M407.2,16.3c-1,0.6-2.1,1.1-3.2,1.8c-0.2-0.5-0.4-0.9-0.5-1.3c0.7-1.1,2-1,3-1.4
		C406.8,15.7,407,16,407.2,16.3z"/>
	<path fill="#ACBABA" d="M473.7,10.2c-1.1,0-2.3,0-3.6,0c0.2-0.6,0.3-1,0.4-1.3c1.2,0,2.2,0,3.2,0C473.7,9.3,473.7,9.8,473.7,10.2z"
		/>
	<path fill="#A2ABAB" d="M397.8,67.1c0.4-0.6,0.8-1.1,1.3-2c0.5,1.4,0.3,2.5,0.1,3.5c-0.4,0-0.9,0-1.3,0
		C397.9,68.1,397.8,67.6,397.8,67.1z"/>
	<path fill="#444D4D" d="M418.3,91.9c0.7-1.2-2-3.4,0.3-3.4c0.4,0.9,0.7,1.8,1.1,2.8C419.2,91.5,418.7,91.7,418.3,91.9z"/>
	<path fill="#3F3636" d="M397.8,67.1c0.1,0.5,0.1,1,0.2,1.6C396.5,69.9,396.3,66.7,397.8,67.1z"/>
	<path fill="#160B0A" d="M680.1,118.3c-0.8,0.9-1.6,0.6-2.8,0.2C678.4,118.1,679,118,680.1,118.3z"/>
	<path fill="#B28C7D" d="M480.4,86.1c-0.2-0.6-0.2-1.1,0.4-1.5C480.7,85.1,480.6,85.6,480.4,86.1z"/>
	<path fill="#281817" d="M657.5,126.7c0.4-0.7,1-0.5,1.6-0.3c-0.1,0.2-0.1,0.3-0.1,0.5C658.5,126.8,658,126.8,657.5,126.7z"/>
	<path fill="#281817" d="M667.8,117.4c-0.7,0-1.4,0.1-1.4-0.9C666.9,116.8,667.3,117.1,667.8,117.4z"/>
	<path fill="#B28C7D" d="M481.1,82.5c0.1-0.3,0.2-0.6,0.4-0.8C481.4,81.9,481.3,82.2,481.1,82.5z"/>
	<path fill="#120C0C" d="M645.1,115.3c-0.2,0.2-0.5,0.4-0.7,0.6c0-0.2,0-0.5,0-0.7C644.6,115.3,644.8,115.3,645.1,115.3z"/>
	<path fill="#977264" d="M659,126.9c0-0.2,0-0.3,0.1-0.5c0.2-0.1,0.4,0,0.6,0.1C659.5,126.6,659.2,126.7,659,126.9z"/>
	<path fill="#EAA388" d="M422.8,292.4c24.9,1.6,51.6,6.7,75.5-2.2c10.3,40,10.4,80.9,6.8,121.7c3,41.2,4.5,82.5,2.1,123.7
		c-3.2,1.3-6.6,2.5-7.2,6.3c-1.6,0-3.1,0-4.5,0c-1.4-16.9,3.8-38.7-4.2-53.6c0.1,4.3-1.1,8.1-0.9,12.4c-5-16.9-13.3-39-6-56.3
		c2.1,2.2,3.6,4.8,5.1,7.3c-1.3,1.4-1.3,1.4-0.6,2.7c1,1.2,0.7,3.2,2.3,4.2c1-0.9,0.5-1.8,0.6-2.7c2,1.2,2.8,3.6,4.1,5.4
		c0.8-16.8-15.8-27.6-16.5-43.9c-5.1-26.4-3.8-53-3.1-79.4c-3.1,1.9-2.6,4.4-5.2,7.5c-1.6-10.1-3.2-19.8-4.7-29.1
		c-1.2-1.5-2-2.5-2.9-3.5c0.2-0.9,1.4-1.6,0.8-2.9c-12.4,8.9-10.7,25.9-14.2,39.3c-2.7,18.6-7.5,36.8-11.4,55.2
		c-3.4,20.4-18,38.2-19.1,58.6c-1.8,27.1-15.2,51.7-16.1,79.2c-0.6-0.7-1.1-1.3-1.6-1.9c-2.9-0.3-5.5,2.3-8.4,1.2
		c0.5-12.6,4.6-26.4,3.5-38.2c-0.9,1-1.7,2.1-2.9,3.5c0.2-2.9-0.4-5.4,0.6-8c0.7-2.9-1.6-6,0-8.9c-3.8-18.3,3-37.9,9.9-55.1
		c3,3.3,1.3,8.8,5.1,11c3.3-7.4,1-16.4-0.1-24.4c0.6-10.6,2.9-21.5,2.2-32.1c4.5-32-1.6-65.4,6.7-96.8
		C420.2,292.5,421.5,292.4,422.8,292.4z M421.2,403.3c-2-2.5-3.4-3.3-5.8-0.1c-0.8,3.2,3.4,10.1,6.5,8.1c0.4,1.9,0,4,2,5.1
		c0.5-2.1,0.7-5.8-2.1-5C422.1,408.6,421.9,406,421.2,403.3z M445.3,310.7c0.1,0.2,0,0.7,0.5,0.3c-2.8-2.8-6.9-5.4-10.7-6.9
		c-0.5-0.8-0.4-0.5-1.7-0.2c1,0.2,1.4,0.2,1.7,0.3c1.5,1.9,3.4,3,5.7,3.7c0.5,0.9,1.2,1.4,2.3,1.5
		C443.5,310.3,444.2,310.8,445.3,310.7z M492.8,420c1.4-0.5,1.4-1.7,1.3-2.9c-0.3-0.8-1.5-0.7-1.5-1.9c0-3.6-2.5-5.5-5.5-7
		c-1,0.6-2.1,1.1-2.9,1.6C482.7,415.8,488.4,418.6,492.8,420z M418,455.1c-2.3,1.1-4.2,7.5-3.9,10.3
		C416.7,463.4,419.3,458,418,455.1z M499.9,404.4c-1.5,3.2-3.3,5.9-2.7,9.2C499.3,410.6,501.8,407.8,499.9,404.4z M447,316.9
		c-1.6-1.6-3.3-3.1-6.4-3.3C442.7,315.5,444.7,316.4,447,316.9z M412.9,467.3c-1.4,3-1.4,3,0.1,4.7
		C414.1,469.6,414.1,469.6,412.9,467.3z M493.7,467.4c1.1-2-0.1-3.8-2.7-4.6C492,464.5,491.8,466.5,493.7,467.4z M409.8,481.9
		c1.6-0.8,1.3-2.5,0.2-3.7C409.1,480.5,409.1,480.5,409.8,481.9z M494.7,472.6c-0.5-1-0.9-3-1.9-1.7
		C492.9,471.7,493,472.6,494.7,472.6z M494.9,477.1c-0.9-1.1-1.9-0.6-1,0.5C494.2,477.4,494.4,477.3,494.9,477.1z"/>
	<path fill="#F5DDCE" d="M475.9,127.7c13.1,10.1,35.3,41.3,28.4,58.3c-15.8,2.2-17.3-1.8-28.5-11c-15.3,11.5,5.1,17.8,15.5,17.6
		c0.8,1.6,2.9-0.2,3.7,1.4c-0.5,0.4-0.9,0.8-1.5,1.3c-10.7,55.3-12.2,37,4.4,92.3c-25,9.7-53.5,4.1-79.5,1.4
		c2.4-22.9,8.8-45.9,13.4-68.3c1.7,0.6,3.3,1.1,5,1.7c1.9-4.7-6.7-10.4-5.4-14.3c1.6,0.4,3.4,1.1,5,0.2c1-3.6-3.7-5.8-4.7-9
		c-1.5-4.2-5.7-9.1-5.3-13.3c9.4,4.8,23.3,6.7,32.4,0.6c6.3-1.4,8-6.1-0.3-4.8c-10.8,0.9-23.8,0.3-31.8-7.7
		c-2.1-3.2-5.1-5.9-6.2-9.6c-0.3-1.1-0.9-2.2-2.2-2.7c-1.3-0.5-2.4-1.6-2.8-3c6.5-12.1,8.5-26.1,2.4-38.7c1.3-1.6,2.7-2.9,4.9-3.5
		c5.4,20.5,17.1,36.8,39.7,38.9C488.2,158.1,485.3,145.9,475.9,127.7C475.9,127.6,475.9,127.7,475.9,127.7z M428.5,266.2
		L428.5,266.2c0.4,4.7,4.4,7.5,5.1,12.2c1,4.2,5.5,5.9,7.6,9.5c0.8,1.3,1.9,2.5,3.3,3c0.9-0.7,0.6-1.4,0.3-2.1
		c-4.2-10-6.5-21.5-15.7-28.5c-3.6,0.8-1.4,2.3-1.5,5C428,265.7,428.3,265.9,428.5,266.2z M487.3,268.6c-2.1,2.3-3.2,7.3-3.3,10.5
		C486.6,276.1,487.8,272.4,487.3,268.6z M480.6,247.7c0.8-2.8,0.3-4.9-1.7-7.1C479.1,243.1,479.7,245.7,480.6,247.7z M478.4,237.7
		c0.9-1.4,1.2-2.7,0-4.1C477.1,235.6,477.1,235.7,478.4,237.7z M482.1,282.5c-1.2,0.4-1.7,1.1-1.7,2.2c0.3,0.1,0.6,0.3,0.8,0.4
		C482.1,284.5,482.7,283.9,482.1,282.5z M477.7,289.6c1.9,0,2-0.2,1.4-2.2C478.6,288.2,478.2,288.8,477.7,289.6z M478.3,219.8
		c-0.2,2.4-0.2,2.4,1.2,2.1C479.2,221.4,479,221,478.3,219.8z M479.4,225.3c-1.6,0.8-1.5,1,0,2C479.4,226.6,479.4,226,479.4,225.3z
		 M478.5,231.8c0.1-0.1,0.2-0.1,0.3-0.2c-0.2-0.3-0.3-0.3-0.5,0C478.3,231.7,478.4,231.7,478.5,231.8z"/>
	<path fill="#B28C7D" d="M264.4,116.7c1.3-0.1,2.5-0.1,4.2-0.2c0.4,0.3,1.2,0.9,1.8,1.4c18.4,2.3,38.4-0.4,56.4,6.4
		c-0.4,0.4-0.6,0.6-0.9,0.9c11.9,2.1,24.6-1.6,36.7,0c15.8-11.9,35.8-3.6,53.2-4.1c5.3,11.8,3.5,24.7-2.5,35.8
		c-12.3-4.6-14.7-25.3-28.5-27.7c-2.9-1.6-6-5.2-9.5-2.9c-2-1.6-2-1.6-3.6-0.8c1,1.4,2.4,0.9,3.6,0.7c3.1,2.3,7.1,3.3,10.2,5.8
		c0,0,0,0,0,0c5.1,7.7,12.2,14.3,15.9,22.8c-0.4,0.7-0.7,1.2-0.9,1.5c-21.3-12.4-46.6-6.5-68.8-14.5c1.3-1,2.9-1.2,3.3-2.8
		c-0.7-0.7-1.4-1.3-1.9-1.8c-20.4,4.2-36.1-3.6-54.1-12.2c1.3-0.8,3.2,0.4,3.9-1.8c-6.9-2.5-14.1-0.4-21.2,0
		c-12.9,0.1-25.6-1.3-37.7,2.6c3.8-7.2,17.6-4.4,24-6.5c-1.5-0.4-2.3-0.6-3-0.8c5.9-1.8,12.2-6.7,18.4-4c0.1,0.2,0.1,0.3,0.1,0.5
		c-4.3,0.3-9.2,1.4-12.8,3.7C256,118.4,259.4,116.5,264.4,116.7z M375.1,135.4c-0.7-1.1-0.9-1.3-1.5-1.1c-3.4,1.3-7.3-0.1-10.5,1.5
		C367.2,136.3,371.2,137.2,375.1,135.4z M322.7,126.5c-0.2-1.3-1.9-1.1-1.7,0.2C321.6,127.1,322,126.8,322.7,126.5z M357.5,135.2
		c-1.1-0.5-2-0.5-3.3,0.3C355.5,135.6,356.4,136.2,357.5,135.2z M318.2,127.1c-0.8-0.3-2.2-0.2-1.5,0.7
		C317.4,128.3,317.8,127.9,318.2,127.1z M249.4,119.3c-0.3,0-0.6,0-0.9,0C248.8,119.7,249.1,119.4,249.4,119.3z"/>
	<path fill="#D69479" d="M422.8,292.4c-1.3,0.1-2.7,0.1-4.2,0.2c-8.3,31.4-2.3,64.8-6.7,96.8c0.7,10.6-1.7,21.5-2.2,32.1
		c1.1,8.1,3.4,17,0.1,24.4c-3.8-2.3-2.1-7.8-5.1-11c-6.9,17.2-13.7,36.8-9.9,55.1c-1.6,3,0.7,6,0,8.9c-1,2.5-0.4,5-0.6,8
		c1.1-1.4,2-2.4,2.9-3.5c1.1,11.8-3,25.6-3.5,38.2c0.5,0.1,0.9,0.3,1.4,0.4c-0.9,0.5-1.8,1.1-2.7,1.6c-0.6,2.2-1.2,4.3-1.8,6.3
		c0.2-29-7.8-58.8-1.7-87.7c2.5-16.6,12.8-30.9,14.2-47.8c-1-40.7-11.9-82.5-4.5-122.8C406.4,290.3,415.1,290.6,422.8,292.4z"/>
	<path fill="#B28C7D" d="M639.3,116.8c1.6,0,3.1,0,4.9,0c-2.1,1.4-3.8,2.5-6.1,3.2c-0.2,0.6-1.1,1.1-0.1,1.9c2.6-2.3,6.3-3,9.5-4.2
		c0.1,0.1,0.3,0.1,0.4,0c10.4,3.7,22.7-0.1,32.6,4.9c-10.1-1.1-19.5,2.6-29.5,3c-3.4,0.2-7-1.9-9.8,0.4
		c-23.8-3.2-44.8,12.1-68.4,11.2c1.3-2.1,5.2-3.6,3-5.8c-24,14.8-53.4,10.5-78.7,19.7c-0.5-0.6-1-1.3-1.7-2.1
		c3.6-5.5,8.6-9.6,13.6-13.9c-1.4-7.9-13.8,6.3-17.2,7.3c-4-7-10.1-12.2-15.8-17.9c9.5-7.1,21.4-2.5,32.3-0.7
		c0.2,0.2,0.7,0.9,1.3,1.7c2.3,0.5,4.8,1.1,7.2,1.6c0.4,0.5,0.7,1,1.1,1.4c3.5,0,34.5-4.1,37.8-5c0.2,0.6,0.1,1.5,1.1,1.3
		c0.7,0.8,1.4,0.4,2-0.2c-0.2-0.6-1-1.2-1.5-1.7c25-10.6,52.7-0.4,78.3-5.6c0.6,0.6,1.9,1.3,2.7,1.5
		C639.4,118.3,638.1,117.1,639.3,116.8z M565.7,124.9c-1.1-0.5-2.1-1-3.3-1.6c-0.5,0.3-1.1,0.6-2,1.2c2.5,1.5,5.5,1.3,8.1,0.7
		C567.5,123.7,566.6,124.3,565.7,124.9z M630.9,122c1.2-0.1,2.5-0.1,4-0.2C633.4,120.2,633.4,120.2,630.9,122z M624.9,122.2
		c0.6,1.4,1,1.4,2.6-0.2C626.6,121.6,625.7,121.5,624.9,122.2z"/>
	<path fill="#E6CCBB" d="M426.2,186c-0.4,4.2,3.8,9.1,5.3,13.3c1.1,3.2,5.7,5.4,4.7,9c-1.7,0.9-3.4,0.1-5-0.2
		c-1.3,3.8,7.4,9.5,5.4,14.3c-1.7-0.6-3.3-1.1-5-1.7c-4.6,22.5-11,45.4-13.4,68.3c-6.2-0.1-12.4-0.2-18.8-0.3
		c25.3-59.3,21.2-59,1.3-118.4c6.5-1.7,11.3-5.6,14.5-11.5c0.4,3,4.6,2.9,5,5.7c4.2,11.5,15,16.8,26.6,17.3
		c2.6,2.1,19.7-2.6,16.7,2.1c-0.1-0.2-0.2-0.4-0.2-0.5c-0.1,0.1-0.2,0.2-0.3,0.3c0.2,0.1,0.4,0.2,0.5,0.3c-0.3,1-1,1.5-2.1,1.5
		c-0.6-1.8-3.7-0.3-2.9,1.3c-0.6,0.5-1.2,1-1.8,1.5c-0.1-0.3-0.1-0.7-0.2-1c-17.3,1.4-29.8,2.1-38.7-15
		C416.5,174.3,424.2,184.1,426.2,186z M416.6,170.1c0.5-1.3,0.4-2.1-0.9-2.4C415,168.7,415.2,169.4,416.6,170.1z M414.3,165.2
		c-0.3-0.1-0.5-0.4-0.8,0C413.8,165.6,414,165.5,414.3,165.2z"/>
	<path fill="#D69479" d="M488.9,454.4c-0.7-1.3-0.7-1.3,0.6-2.7c-1.5-2.5-3-5.1-5.1-7.3c-7.2,17.2,1.1,39.8,6,56.3
		c-0.3-4.3,0.9-8.1,0.9-12.4c8,14.9,2.8,36.7,4.2,53.6c-0.8,0-1.6-0.1-2.6-0.1c-0.5-25.6-11-48.6-15.8-73.3
		c-1.3-10-0.2-19.8,1.4-29.6c-0.5-9.5-4.7-18.5-6.1-27.9c-7.4-31.6-24.1-64.5-13.4-95.8c0.7-0.7,1.4-1.5,2.1-2.2
		c0.1,0.4,0.1,0.9,0.2,1.5c0.8-0.6,1.4-1.1,2.1-1.5c0.8,1,1.7,2,2.9,3.5c1.5,9.3,3.1,19.1,4.7,29.1c2.6-3.2,2.1-5.7,5.2-7.5
		c-0.6,26.3-2,53,3.1,79.4c0.7,16.3,17.3,27.1,16.5,43.9c-1.3-1.9-2.1-4.3-4.1-5.4c-0.9-0.9-0.5-2.9-2.7-2.7
		C489.1,453.5,489,453.9,488.9,454.4z"/>
	<path fill="#B28C7D" d="M480.3,82.4c-1.3,2.7-1.5,5.8-2.3,8.7c-0.2,0.1-0.4,0.1-0.6,0.1c-0.3-0.2-0.5-0.5-0.8-0.7
		c-1.3-4.8-9.8-1.9-12.4,0.7c-1.2,0-2.6-0.6-2.9,1.3c0.8,0.1,1.5,0.2,2.1,0.3c-0.1,1,0,2.3,1.5,2.1l0,0c2.6,2.4,6.8,3.8,10.2,2.1
		c0.2,0,0.4,0.1,0.7,0.2c-3.4,10.3-16.2,9.8-22.1,2.2c-6.6-4.2-15.1-8.8-15-17.7c-0.6-1.5-1.1,1.4-2.2,0.7c0.3-2,1.9-4.4,1-6.3
		c-1.4-1.5-0.9-3.4-1.2-5.2c0.6,0,1.3,0.1,1.6-0.7c1.1-0.2,2.1-0.5,2.5-1.7c-0.3-0.4-0.6-0.7-1-1.2c0.9-1.4,1.8-2.8,2.7-4.2
		c-0.5-3,1.2-5.1,0.8-8.2c6.5-11.4,15.6-11,26.7-11.4c7.7-0.5,9.6,12.1,11.3,18c-2.2,0.8-4.8,0.5-5.8,3.2c2,0.8,3.6-1.2,5.7,0
		c0,0.2,0.1,0.8,0.2,1.3c-4,0.9-4.4-0.2-7.5,3.4c0-0.7,0.8-1.3,0.3-2.3c-1.9,1.5-2.8,6.2-0.4,6.9c0.1-0.8,0.3-1.6,0.4-2.5
		c1.4,0.3,2.3,0.8,3.4,0.1c0.8,0.2,1.6,0.3,2.5,0.5C481.3,75.6,480.7,78.9,480.3,82.4z M465.7,83.9c-0.1-0.6-0.2-1.1-0.3-1.7
		c-0.1-0.6,1-1.1,0.1-1.9c-1.8,1-2.1,3.9,0.1,4.3c1.5,1.8,3.3-0.5,4.9-1.2c-0.7-0.3-1.4-0.7-1.9-0.9
		C467.4,82.8,466.9,84.2,465.7,83.9z M475.1,80.3c0.5,0.8,1,1.5,1.4,2.2c-0.8,0.9-1.3,0.1-1.8,0.1c-0.7,0.6-1.4,1.1-2.5,1.9
		c1.6,0,2.9,0,3.9,0c3.4-2.7-1-5.2-2-8.1C473.4,78.4,474.1,79.4,475.1,80.3z M451.9,62.8c-0.8,0.4-2.9,0.7-1.6,2
		c0.9-0.5,2.2-0.2,3.1-1.2c3.7-1,7.7-0.2,11.2,1.3c0.7,0.4,1.6,0.6,2.4-0.2C463.4,60.4,456.5,60.8,451.9,62.8z M451.3,67.9
		c1.6,5.8,8.7,4.9,13.3,3.6C464.4,64,456.1,66.8,451.3,67.9z"/>
	<path fill="#B28C7D" d="M459.8,113.8c0.1,3.5,0.3,6.6,1.8,10c0.3-0.9,0.4-1.4,0.6-2.1c3.6,3.3,9.6,2.8,11.9,7.3
		c2.9,6.5,7.4,13.4,6.7,20.7c-1.7,0.7-2.3,2.3-3.4,3.5c-3.2,0-6.4,0.1-10,0.1c-1.2-1.8-1.3-5-3.8-6c0.3,1.4,0.5,2.7,1.3,3.7
		c0,0.6,0,1.2,0,1.9c-19.6,0.7-34.9-15.5-38.6-33.4c6.6-1.5,11.2-5.4,14.1-11.5C444.7,114.3,452.6,116,459.8,113.8z M438.9,126.7
		c-2.3-2.2-3.2-2.4-6.8-1.6C433.2,127,436.4,126.7,438.9,126.7z M442.4,127.4c1,1.3,1,1.3,2.6,0.3
		C443.9,126.8,443.9,126.8,442.4,127.4z M448.8,129.2c0.5-0.4,1-0.7,1.6-1.2c-1.6-1-1.6-1-2.8,0.1
		C447.9,128.4,448.3,128.7,448.8,129.2z"/>
	<path fill="#F7EFD0" d="M490.4,549.2c0.6,1.1,1.3,2.3,2,3.5c1.4,0.1,2.7,0.2,4,0.3c6.9-4.4,4.7-19.4,15.9-12.5
		c0.5,2.8,1.1,5.9,1.7,9.1c-4.7,1.6-11.6-0.2-14,5.4c0.4,0.4,0.8,0.7,1.2,1.1c1.9-0.7,3.1-2.7,5.2-2.6c1.1,0.1,2.2,0.4,3-0.6
		c1.2-0.3,2.4,0.2,3.6,0.5c-0.4,0.1-0.9,0.2-1.3,0.3c-0.7-0.3-1.2-0.2-1.5,0.5c-2.2,1.2-7,2.4-4.3,5.7c3.7-3.4,8.2-3.8,12.6-5.1
		c0.4,0.6,0.7,1.2,1,1.6c-2.7,1.7-12.4,3.4-8.9,7.6c3.1-2.7,7.2-3.2,10.2-5.9c1.2,1.1,2.2,1.7,3.1,2.7l0,0
		c6.5,11.1,17.4,9.7,16.9,15.8c-0.5,1.2-1.6,0.9-2.5,0.9c-5.1-0.4-10,1.5-14.7,3.1c-6.7,1.6-13.3-2.8-20.2-1.7c-1-0.8-1.9-1.5-3-2.4
		c-1.7,0.7-3.3,1.4-5.1,2.2c-1.9-1-4.5-0.9-6.4-2.7C489.6,567.1,487,558,490.4,549.2z M515.8,568.2c3.1-1.7,6.1-2.7,8.3-5.3
		c-0.5-0.5-0.9-0.9-1.4-1.4C520.4,563.4,513.2,564.1,515.8,568.2z M526.4,566.1c-2.5-0.7-5.3-0.1-5.5,2.7
		C523.3,569.3,526.7,568.9,526.4,566.1z"/>
	<path fill="#F7EFD0" d="M388.3,562.9c4.1-4.8,5-11.4,6.4-17.7c1.6-1.1,3.9-1.7,6.4-2.1c2.7,2.6,4.5,6.1,8.1,8
		c1.4,8.7,7.5,15.8,10.8,24c1.7,6.3,11.4,9.4,8,16.5c-15.4-3.7-17.1,4.2-34.7-0.2c-2.9-2.3,0.5-7.5-4.8-8.3
		C387.4,576.2,388.6,569.7,388.3,562.9z M405.9,559.4c-0.7-0.3-1.8,0.3-2.3-0.8c1.8-0.8,4.4-0.7,5.5-2.5c-1.9-4.4-18.7,4.5-11.4,6.8
		c0.3,1.4-0.6,3.8,1.6,3.9c3.2-5.5,6.2-3.1,10.5-5.6C409.1,559.4,407.6,559.6,405.9,559.4z M400.1,570.7c3.9-1.6,7.6-3.1,11.5-4.7
		C411.8,561.4,397.1,567.6,400.1,570.7z M403,575.7c2.9-2.2,9.5-2.3,9.3-6C409.8,569.4,400.9,572.2,403,575.7z M405,578.6
		c1.4,1.4,10.2-1,9.7-3.2C411.9,574.3,406.4,575.9,405,578.6z"/>
	<path fill="#977264" d="M393.5,142.2c-0.7-0.7-1.4-1.5-2.2-2.2c0.4-0.1,0.9-0.1,1.5-0.2c-1-2.2-2.1-6.3-5.2-4.8c-0.7-1-1.4-2-2.1-3
		c0.4-0.1,0.8-0.2,1.3-0.3c-0.8-1-1.5-1.8-2.1-2.5c13.8,2.4,16.2,23.1,28.5,27.7c-2.1,5.3-7.1,11.4-13.4,10.6
		c-0.6-2-5.2-12.9-7.1-11.9c-11.3-0.9-22.4-2.4-33.7-3.8c-30.1-4.5-59.8-14.3-87.4-27.3c-12.8,4-26.2-2-39.4-0.4
		c9.2-1.9,19.9-0.1,29.6-0.6c7.1-0.4,14.3-2.5,21.2,0c-0.7,2.2-2.6,0.9-3.9,1.8c17.3,8.5,34.5,16.4,54.1,12.2
		c0.5,0.4,1.2,1.1,1.9,1.8c-0.4,1.6-2,1.9-3.3,2.8c22.2,8,47.5,2.1,68.8,14.5c0.2-0.3,0.5-0.9,0.9-1.5c-0.4-1-0.9-2.1-1.4-3.2
		c2-1-0.3-4.7-2.2-3.9c0,0.4-0.1,0.8-0.1,1.1c-0.7-1.2-1.4-2.5-2.1-3.7C398.1,144.1,394.5,140.5,393.5,142.2z M402.6,154.4
		c0.3,0.1,0.6,0.4,0.8,0C403.1,154,402.9,153.9,402.6,154.4z"/>
	<path fill="#977264" d="M497.1,151c25.3-9.2,54.7-4.9,78.7-19.7c2.2,2.2-1.7,3.7-3,5.8c23.6,0.9,44.6-14.4,68.4-11.2
		c2.8-2.3,6.4-0.3,9.8-0.5c-9.7,4.1-20.8,0.2-30.9,4c-13.5,3.7-26.7,8.8-40.4,11.3c-26-0.2-49.5,11.5-75.6,12.4
		c-0.2-0.3-0.7-0.8-1.2-1.4c-1,0.9-2,1.7-3.2,2.8c-0.9-1-1.7-1.9-2.6-2.8C497.1,151.5,497.1,151.2,497.1,151z M505.3,150
		c1.2,0.7,1.8,0.2,2.5-0.9C506.6,148.6,505.8,148.8,505.3,150z"/>
	<path fill="#977264" d="M459.8,113.8c-7.2,2.1-15,0.5-19.4-5.6c-2.9,6-7.5,10-14.1,11.5c-0.5-1.2-1.1-2.4-1.5-3.4
		c10.3-6.7,11.5-15.3,11.1-27.2c1.2-1.8,0.4-3.1,0.9-5.6c2.1,5.4,4.2,9.8,9.4,12.1c0.3-0.4,0.4-0.5,0.5-0.7c2.3,1.8,5.6,2.9,7.3,5.1
		c-0.4,0-0.9,0.1-1.7,0.2c2.7,2.7,5.7,3.8,8.8,5.8C460.3,108.5,460,111.2,459.8,113.8z"/>
	<path fill="#EADCB7" d="M490.4,549.2c-3.3,8.8-0.8,17.9-1.4,27c1.9,1.7,4.5,1.7,6.4,2.7c1.8-0.8,3.4-1.5,5.1-2.2
		c1.1,0.8,2,1.6,3,2.4c6.9-1.1,13.5,3.3,20.2,1.7c4.7-1.6,9.6-3.5,14.7-3.1c0.9,0.1,2,0.3,2.5-0.9c0.5,1.9,1.6,3.6,1.3,5.6
		c-11.6,6.3-26.8,6.4-38.6,0.4c-1.9-1-3.8-1.4-5.9-0.7c-5,1.6-10.2-1.1-15.2-1.7c5-11.1,1.3-23.1,5.6-34.5
		C489.7,547,489.7,547,490.4,549.2z M528.5,584c2.5-1.4,4.4-3,7.4-2.8c2-0.1,3.6,0.4,5.3-1.2c-3.8-1.7-11.8-1.7-13.7,2.9
		C527.9,583.2,528.1,583.5,528.5,584z"/>
	<path fill="#EADCB7" d="M388.3,562.9c0.4,6.9-0.9,13.4,0.2,20.2c5.4,0.8,1.9,6,4.8,8.3c17.6,4.4,19.2-3.5,34.7,0.2
		c-0.1,0.3-0.2,0.6-0.3,0.9c-3.9-0.5-7.4-1.1-11.4-0.9c-1,0.8-2,1.6-3,2.4c-0.9,3.8,6.3-2.6,13.8,0.6c-11.8,3.5-24.3,3.6-36.3,1.2
		c-1.1-3.1-0.3-6.8-2.8-9c-0.3,1.2-0.5,2.1-0.7,3c-1.5,0.7-3.3-0.2-5.2-0.2c3.4-9.4,2.3-18.5,2.5-28.1
		C385.9,562.4,386.7,562.9,388.3,562.9z"/>
	<path fill="#E6CCBB" d="M479.5,191.1c-1.6,0-2.5-1.4-3.6-2.2c0.2-0.3,0.4-0.7,0.6-1c-1.3-0.7-2.4-0.4-3.4-0.3
		c-5.7-4.3-2.1-8.6,2.7-12.6c11.2,9.2,12.8,13.2,28.5,11c-1.2,4.1-5.6,6.5-9.4,8c-0.7-1.6-2.9,0.1-3.7-1.4c1.5-0.2,2.2,0.1,3.3-1.3
		c-4.1,0.1-8-1.3-11.2,0.5C482,191.7,480.6,192.2,479.5,191.1c0.7,0,1.4,0,2.1,0c0-0.2,0.1-0.3,0.1-0.5c-0.8-0.3-1.7-0.7-2.9-1.2
		C479.2,190.3,479.4,190.7,479.5,191.1z"/>
	<path fill="#92909E" d="M441.6,43.8c6-6.7,19-9.7,26.4-4c-7.6,0.3-16.2,1.1-22.6,6.3C444.2,45.4,442.9,44.6,441.6,43.8z"/>
	<path fill="#8E8791" d="M441.6,43.8c1.3,0.8,2.6,1.5,3.8,2.3c-4.6,5.1-8.5,11.2-9.8,18c-0.8,0.6-0.7,1.5-0.7,2.3l0,0
		c-0.7-0.2-1.5-0.4-2.2-0.6C432.2,58.4,435.9,49,441.6,43.8z"/>
	<path fill="#8A6C60" d="M493,544.2c2.1,0.2,4,0.4,6.1,0.6c-0.4,2.4-2,4.3-4,5.6C492.5,549.3,492.5,549.3,493,544.2z"/>
	<path fill="#28201D" d="M432.8,65.7c0.7,0.2,1.5,0.4,2.2,0.6c0.5,1,0.9,2,1.4,3.1c-0.3,0-0.6,0-1.3,0.1c0.5,0.5,0.9,0.9,1.2,1.2
		c0.1,0.2,0.1,0.4,0.1,0.6c-3.3-0.3-4.2,3.6-1.4,5.2c-0.7,0-1.5,0-2.2,0.1l0,0c0-0.3,0-0.6-0.1-0.9c-0.2-0.2-0.4-0.4-0.7-0.6
		c-0.2-1.9,0.8-3.4,2.3-4.8c-1.1-0.9-2-1.7-3-2.5C431.9,67.1,432.3,66.4,432.8,65.7z M433.8,68.6c0.6-0.8,0.3-1.4-0.5-1.2
		C433.5,67.7,433.6,68,433.8,68.6z"/>
	<path fill="#1B1311" d="M440.1,90.5c-1.9-1.7-1.9-4.3-3.4-7c-0.5,2.5,0.4,3.8-0.9,5.6c0-2.3,0-4.5,0-6.8c0.2,0,0.5,0,0.7-0.1
		c0.6,0.4,1-0.3,1.4-0.7c0.3,0,0.5,0,0.8,0c-0.1,2.9,1.2,5.4,2.3,8C440.7,90,440.4,90.2,440.1,90.5z"/>
	<path fill="#6F5349" d="M433.7,80.2c-2.6-2.6-5.6-6.4-3-10.1c1.7,0.4,1.9,0.8,0.7,2.2c-0.9-1.2-1.1,2.6,0,2.9l-0.1-0.1
		c0.3,0.3,0.5,0.5,0.8,0.8c0,0,0,0,0,0c0.2,0.3,0.5,0.5,0.7,0.8l0,0C433.1,77.7,435,79.4,433.7,80.2z"/>
	<path fill="#8B6B5E" d="M436.6,82.3c-0.2,0-0.5,0-0.7,0.1c-0.2-0.2-0.5-0.5-0.7-0.7c0.5-1.8,0-3.5-0.8-5.1c0.2,0,0.5,0,0.7,0
		c0.9,0.5,1.8,1.1,2.9,0.7C437.5,79,437,80.6,436.6,82.3z"/>
	<path fill="#24211F" d="M477.3,153.3c1.1-1.2,1.8-2.8,3.4-3.5c0.2-0.1,0.2-0.6,0.3-1c0.5,0.2,0.9,0.5,1.4,0.7
		c-0.7,2.6-2.5,3.9-5,4.5C477.4,153.8,477.4,153.5,477.3,153.3z"/>
	<path fill="#816458" d="M431.4,72.3c1.1-1.4,1-1.8-0.7-2.2c0-0.8-0.2-1.7,0.7-2.2c1,0.8,1.9,1.6,3,2.5c-1.4,1.5-2.5,2.9-2.3,4.8
		l0,0c-0.3,0-0.5,0-0.8,0l0.1,0.1C431.4,74.2,431.4,73.2,431.4,72.3z"/>
	<path fill="#73564B" d="M389.6,553.8c0.2,2.6,0.2,2.6-1,4.7C386.6,557.9,387.9,554.4,389.6,553.8z"/>
	<path fill="#B07560" d="M389.7,541.7c0.3,2.7-0.5,5.6,0.7,8.1c0,0.8,0,1.5-1.1,1.3C389,548,389.1,544,389.7,541.7z"/>
	<path fill="#A5B19A" d="M513,553.4c-0.7-0.2-1.5-0.5-2.2-0.7c1.8-0.7,3.6-0.9,5.6-1.2c0.1,0.2,0.2,0.5,0.5,1
		C515.6,553,514.4,553.6,513,553.4z"/>
	<path fill="#2A1C19" d="M434.3,76.6c0.8,1.6,1.4,3.2,0.8,5.1c-0.8-0.2-1.3-0.7-1.5-1.5c1.4-0.8-0.6-2.5-0.8-3.5
		C433.3,76.6,433.8,76.6,434.3,76.6z"/>
	<path fill="#322521" d="M464.8,151.1c-0.8-1.1-1-2.3-1.3-3.7c1.2,0.5,1.9,1.2,2.1,2.2C465.3,150.1,465.1,150.6,464.8,151.1z"/>
	<path fill="#816458" d="M436.3,70.8c-0.4-0.4-0.7-0.7-1.2-1.2c1.3-0.2,1.8,0.1,2.9,0.5C437.7,70.9,437,70.8,436.3,70.8z"/>
	<path fill="#A5B19A" d="M509.5,552.9c-0.9,1-2,0.7-3,0.6C507.3,552.7,508.4,552.7,509.5,552.9z"/>
	<path fill="#4C2E25" d="M459.1,315.1c1,0.8,1,1.1,0.1,2.3c-0.3-0.3-0.6-0.6-0.9-0.9C458.6,316,458.8,315.5,459.1,315.1z"/>
	<path fill="#393E3E" d="M396.1,43.6c-0.4,0.3-0.8,0.9-1.1,0.3C395.4,43.4,395.5,42.9,396.1,43.6z"/>
	<path fill="#28201D" d="M435,66.4c0-0.8-0.2-1.7,0.7-2.3C435.7,64.9,436.1,65.9,435,66.4z"/>
	<path fill="#627272" d="M399.6,32.8c-0.6-0.9,0.1-1.1,1.1-1.4C400.3,32.3,400.4,32.4,399.6,32.8z"/>
	<path fill="#606E6E" d="M400.5,27.5c-0.3,0.4-0.5,0.7-0.9,1.1C399.4,27.3,399.4,27.3,400.5,27.5z"/>
	<path fill="#494949" d="M430.3,4c-0.3,0.4-0.5,0.3-0.9,0C429.7,3.6,430,3.9,430.3,4z"/>
	<path fill="#977264" d="M426.3,120.4c0.8,0.3,0.7,1,0.6,1.6C426.3,121.6,426.2,121,426.3,120.4z"/>
	<path fill="#A5B19A" d="M510.2,554.2c0.3-0.7,0.9-0.8,1.5-0.5C511.2,553.9,510.7,554,510.2,554.2z"/>
	<path fill="#1B1815" d="M524,560.9c-0.2-0.3-0.5-0.5-0.7-0.8C523.5,560.4,523.7,560.6,524,560.9z"/>
	<path fill="#1B1815" d="M524.7,561.6c-0.2-0.3-0.5-0.5-0.7-0.8C524.2,561.1,524.5,561.4,524.7,561.6z"/>
	<path fill="#957063" d="M508,135.8c-0.8,0.7-1.5,1.3-2.3,2c0.2-3.1-4.6-0.2-3.5,1.9c0.5,0.1,0.9,0.1,1.2,0.1
		c-1.4,1.3-2.6,2.8-4.3,3.8c0.2-0.8,0.5-1.6,0.7-2.4c-2.1-1.2-3.8,3.1-5.6,4.2c-1.3-0.6-2-1.8-2.5-3.2c4.6-1.4,11.4-12.2,16.9-8.8
		C507.7,134,506.4,135.2,508,135.8z"/>
	<path fill="#32221E" d="M461.2,105.9c-3.1-2-6.1-3.1-8.8-5.8c0.8-0.1,1.2-0.1,1.7-0.2c2.3,2.3,5.3,3.5,8.1,5
		C461.8,105.3,461.5,105.6,461.2,105.9z"/>
	<path fill="#040202" d="M558.4,124c1.1,1-0.9,1.8-1.6,0.8C557.1,124,557.8,124,558.4,124z"/>
	<path fill="#F5DDCE" d="M475.9,127.6c-0.2-0.1-0.3-0.2-0.5-0.2C475.9,127,475.9,127.4,475.9,127.6L475.9,127.6z"/>
	<path fill="#98796C" d="M224,122.7c-0.6,1.1-1.2,2.2-1.8,3.4c-0.8,0-1.7,0.1-3,0.2C219.5,123.8,221.3,122.3,224,122.7z"/>
	<path fill="#997E70" d="M239.7,116.2c2.3,0,4.4,0,6.5,0C244.2,117.2,239.8,120,239.7,116.2z"/>
	<path fill="#3D2C28" d="M264.4,116.7c-5-0.2-8.4,1.8-13.6,2.2c3.6-2.3,8.5-3.4,12.8-3.7c0.3,0.3,0.5,0.6,0.8,0.9
		C264.4,116.2,264.4,116.4,264.4,116.7z"/>
	<path fill="#5F4E45" d="M264.4,116c-0.3-0.3-0.5-0.6-0.8-0.9c0-0.2,0-0.3-0.1-0.5c1.3,0.1,1.7,0.3,3.1,1.1
		C265.6,115.9,265,115.9,264.4,116z"/>
	<path fill="#2D342E" d="M671.3,119c-1.4,0-2.9-0.1-4.3-0.1c0-0.2,0-0.4,0-0.6c1.9,0,3.9-0.1,5.8-0.1c0.1,0.2,0.1,0.5,0.2,0.7
		C672.4,118.9,671.9,118.9,671.3,119z"/>
	<path fill="#8E7B6D" d="M656.9,117.4c2.7-1.9,5.5-1.6,8.4-0.6C663.3,118.4,659.5,117.3,656.9,117.4z"/>
	<path fill="#281817" d="M657.5,117.5c1.9,0,3.9,0,5.8,0C661.2,118.5,659.5,118.4,657.5,117.5z"/>
	<path fill="#271E1B" d="M651.7,118.1c-1.3,0-2.6,0.3-3.8-0.5C649.1,117.6,650.5,116.9,651.7,118.1z"/>
	<path fill="#281817" d="M667,118.2c0,0.2,0,0.4,0,0.6c-0.6,0-1.2,0-1.7,0c0-0.2,0-0.3,0-0.5C665.8,118.4,666.4,118.3,667,118.2z"/>
	<path fill="#342C28" d="M477.4,71.5c-1.2,0.8-2,0.3-3.4-0.1c-0.2,0.9-0.3,1.7-0.4,2.5c-0.7,0.1-1.1-0.3-1.2-1
		c1-0.6,0.5-1.6,0.8-2.4c0.1,0,0.2,0,0.2,0c-0.1-0.1-0.2-0.2-0.3-0.2c0.6-1.3,2-2,2.8-3.2c0,0.8,0.4,1.5,0.7,2.2
		c-1.7-0.4-1.6,2.1,0.1,1.5l0-0.1C476.9,71,477.1,71.3,477.4,71.5L477.4,71.5z"/>
	<path fill="#BCC4C2" d="M476.7,70.8c-1.7,0.6-1.8-1.9-0.1-1.5C476.6,69.8,476.6,70.3,476.7,70.8z"/>
	<path fill="#353D3C" d="M479.9,69c-0.3,0.1-0.6,0.4-0.9,0C479.4,68.9,479.7,68.5,479.9,69z"/>
	<path fill="#B28C7D" d="M477.4,71.5c-0.3-0.3-0.5-0.5-0.8-0.8C476.9,71,477.1,71.3,477.4,71.5z"/>
	<path fill="#59473F" d="M477.4,91.2c0.2,0,0.4,0,0.6-0.1c-0.5,1.7-0.9,3.5-1.4,5.2c-0.2,0-0.5,0.1-0.7,0.1l-0.1-0.1
		c0-0.6,0.1-1.2-0.6-1.4C475.5,93.4,476.1,92.2,477.4,91.2z"/>
	<path fill="#59473F" d="M475.8,97.2c-0.2-0.1-0.4-0.1-0.7-0.2c0.2-0.2,0.5-0.5,0.7-0.7c0,0,0.1,0.1,0.1,0.1
		C475.9,96.6,475.8,96.9,475.8,97.2z"/>
	<path fill="#56433B" d="M641.5,119.7c-1.3,0.5-2.5,1.2-3.5,2.1c-1-0.8-0.1-1.3,0.1-1.9c0.9-0.3,1.8-0.7,2.6-1
		C641,119.2,641.2,119.4,641.5,119.7z"/>
	<path fill="#D69479" d="M492.8,420c-4.4-1.4-10.1-4.1-8.6-10.1c0.8-0.5,1.9-1,2.9-1.6c3.1,1.4,5.5,3.4,5.5,7c0,1.1,1.2,1.1,1.5,1.8
		C492.5,417.6,492.5,417.7,492.8,420z"/>
	<path fill="#C68970" d="M419.6,411.4c-2.8-2-4.7-4.5-4.2-8.2c2.3-2.7,2.8-2.8,5.1-0.7l-0.2,0.2c-0.3,0.1-0.7,0.2-1.1,0.2
		c-0.5,2.8-0.1,5.5,0.7,8.2C419.8,411.2,419.7,411.3,419.6,411.4z"/>
	<path fill="#261A16" d="M418,455.1c1.3,2.9-1.3,8.3-3.9,10.3C413.9,462.6,415.8,456.2,418,455.1z"/>
	<path fill="#251B16" d="M499.9,404.4c1.9,3.5-0.7,6.2-2.7,9.2C496.6,410.3,498.4,407.6,499.9,404.4z"/>
	<path fill="#3F2C24" d="M488.9,454.4c0.1-0.4,0.1-0.9,0.2-1.3c2.2-0.2,1.8,1.9,2.7,2.7c-0.1,0.9,0.4,1.9-0.6,2.7
		C489.6,457.6,490,455.6,488.9,454.4z"/>
	<path fill="#66473B" d="M447,316.9c-2.3-0.6-4.3-1.4-6.4-3.3C443.6,313.8,445.4,315.3,447,316.9z"/>
	<path fill="#14100D" d="M412.9,467.3c1.2,2.3,1.2,2.3,0.1,4.7C411.6,470.3,411.6,470.3,412.9,467.3z"/>
	<path fill="#34231D" d="M424,412.3c0.2,1.3,0.5,2.5,0,4.1c-1.8-0.9-1.6-2.5-2-4.2C422.7,412.2,423.3,412.2,424,412.3z"/>
	<path fill="#32241E" d="M493.7,467.4c-1.8-0.9-1.6-2.9-2.7-4.6C493.6,463.6,494.7,465.4,493.7,467.4z"/>
	<path fill="#34211B" d="M463.5,312.9c-0.6,0.5-1.2,0.9-2.1,1.5c-0.1-0.7-0.1-1.1-0.2-1.5c0.9-1,1.5-2.4,3-2.9
		C464.9,311.3,463.7,311.9,463.5,312.9z"/>
	<path fill="#A97562" d="M435,304.1c2.5,0.5,4.4,2.4,6.6,3.6C439,307.8,436.7,306.1,435,304.1L435,304.1z"/>
	<path fill="#0E0908" d="M409.8,481.9c-0.7-1.4-0.7-1.4,0.2-3.7C411.1,479.4,411.4,481.1,409.8,481.9z"/>
	<path fill="#B37C66" d="M421.3,404.6c1,2.1,0.4,4.5,0.6,6.7l0,0c-0.2,0-0.4,0-0.6,0.1c-0.1-0.1-0.2-0.2-0.3-0.3c0-2.1,0-4.2,0-6.3
		C421.2,404.8,421.3,404.7,421.3,404.6z"/>
	<path fill="#422F28" d="M492.8,420c-0.4-2.3-0.3-2.4,1.3-2.9C494.3,418.3,494.2,419.5,492.8,420z"/>
	<path fill="#482D26" d="M494.7,472.6c-1.7,0-1.8-0.9-1.9-1.7C493.8,469.6,494.2,471.6,494.7,472.6z"/>
	<path fill="#B27E69" d="M443,308.6c1,0.4,1.8,1.1,2.2,2.1l0,0C444,310.9,442.9,309.9,443,308.6z"/>
	<path fill="#794F43" d="M494.9,477.1c-0.5,0.2-0.8,0.4-1,0.5C493.1,476.5,494,476,494.9,477.1z"/>
	<path fill="#A16F5D" d="M443,308.6c0,0.3,0,0.5,0,0.8c-1.1-0.1-1.8-0.6-2.3-1.5c0.3,0,0.6,0,0.8,0C442.1,308,442.6,308.3,443,308.6
		z"/>
	<path fill="#B37C66" d="M424,412.3c-0.7,0-1.3,0-2-0.1c0-0.3-0.1-0.6-0.1-0.9l0,0C422.7,411.4,423.8,410.9,424,412.3z"/>
	<path fill="#B37C66" d="M421.2,403.3c0.1,0.4,0.1,0.9,0.2,1.3c-0.1,0.1-0.2,0.2-0.3,0.2c-0.2-0.5-0.3-1-0.5-1.6
		C420.8,403.3,421,403.3,421.2,403.3z"/>
	<path fill="#B37C66" d="M421.3,411.4c-0.6,0.8-1.1,0.7-1.6-0.1c0.1-0.1,0.2-0.2,0.3-0.2c0.4,0,0.7,0,1.1,0
		C421.1,411.3,421.2,411.4,421.3,411.4z"/>
	<path fill="#A97562" d="M435,304.1c-0.3-0.1-0.7-0.1-1.7-0.3C434.6,303.6,434.6,303.3,435,304.1L435,304.1z"/>
	<path fill="#B27E69" d="M445.3,310.7c0.2,0.1,0.3,0.2,0.5,0.3C445.3,311.4,445.4,310.9,445.3,310.7L445.3,310.7z"/>
	<path fill="#C68970" d="M421.2,403.3c-0.2,0-0.4,0-0.6,0c-0.2-0.2-0.2-0.4-0.3-0.6l0.2-0.2C420.8,402.8,421,403,421.2,403.3z"/>
	<path fill="#E5CCBB" d="M427.8,264.1c-1.1-2.6-1-2.8,1.5-3.7c9.1,7,11.5,18.5,15.7,28.5c0.3,0.7,0.6,1.3-0.3,2.1
		c-3.7-1.9-5.2-6.5-8.9-8.6c0.9-1.4,0.9-1.8-0.9-3c0.1,0.7,0.1,1.1,0.2,1.5l-0.1,0.1c-2-2.8-1.5-6.7-4.2-8.8c1.6-0.2,1.1-3-0.7-2.9
		c-0.1,0.5-0.1,1-0.2,1.4c-1-1.4-0.4-3.1-1.2-4.5C429.8,265.3,429.2,263.9,427.8,264.1z"/>
	<path fill="#0E0A0A" d="M421.9,178c7.4,12.2,22.6,9.6,34.8,9.1c0.1,0.3,0.1,0.7,0.2,1C447.2,192,421.4,191.4,421.9,178z"/>
	<path fill="#39302D" d="M487.3,268.6c0.5,3.8-0.7,7.5-3.3,10.5C484.1,275.9,485.2,270.9,487.3,268.6z"/>
	<path fill="#330E0C" d="M483.3,191.8c3.2-1.8,7.1-0.4,11.2-0.5C491.5,194.1,487,191.6,483.3,191.8z"/>
	<path fill="#433A36" d="M480.6,247.7c-1-2-1.5-4.5-1.7-7.1C480.9,242.8,481.4,244.8,480.6,247.7z"/>
	<path fill="#1D1615" d="M478.4,237.7c-1.4-2-1.4-2.1,0-4.1C479.6,235,479.4,236.3,478.4,237.7z"/>
	<path fill="#59534D" d="M458.6,186.6c-0.8-1.6,2.3-3.2,2.9-1.3C460.7,186.2,459.7,186.6,458.6,186.6z"/>
	<path fill="#655651" d="M482.1,282.5c0.5,1.3-0.1,2-0.8,2.7c-0.3-0.1-0.6-0.3-0.8-0.4C480.5,283.7,481,283,482.1,282.5z"/>
	<path fill="#81514C" d="M473.1,187.6c1.1-0.1,2.1-0.5,3.4,0.3c-0.2,0.4-0.4,0.7-0.6,1C474.9,188.5,474,188.1,473.1,187.6z"/>
	<path fill="#332B27" d="M429.8,270.6c0.1-0.4,0.1-0.9,0.2-1.4c1.8-0.1,2.3,2.7,0.7,2.9C430.4,271.6,430.1,271.1,429.8,270.6z"/>
	<path fill="#55413D" d="M477.7,289.6c0.5-0.8,0.9-1.4,1.4-2.2C479.7,289.4,479.6,289.6,477.7,289.6z"/>
	<path fill="#97867D" d="M478.3,219.8c0.6,1.2,0.9,1.6,1.2,2.1C478.1,222.2,478.1,222.2,478.3,219.8z"/>
	<path fill="#82746D" d="M479.4,225.3c0,0.7,0,1.3,0,2C477.8,226.3,477.8,226.1,479.4,225.3z"/>
	<path fill="#705D56" d="M427.8,264.1c1.4-0.2,2.1,1.3,0.8,2l0,0c-0.2-0.3-0.5-0.5-0.7-0.8C427.8,265,427.8,264.5,427.8,264.1z"/>
	<path fill="#E5CCBB" d="M435.7,282.3c-0.3-0.5-0.5-0.9-0.8-1.4l0.1-0.1c0.3,0.4,0.6,0.8,0.9,1.2
		C435.9,282.1,435.8,282.2,435.7,282.3z"/>
	<path fill="#E5CCBB" d="M427.8,265.4c0.2,0.3,0.5,0.5,0.7,0.8C428.3,265.9,428,265.7,427.8,265.4z"/>
	<path fill="#7D5550" d="M478.5,231.8c-0.1-0.1-0.2-0.2-0.3-0.2c0.2-0.3,0.3-0.3,0.5,0C478.6,231.7,478.5,231.8,478.5,231.8z"/>
	<path fill="#140D0B" d="M384.7,129.1c0.6,0.8,1.3,1.5,2.1,2.5c-0.6,0.1-0.9,0.2-1.3,0.3c-3.1-2.5-7.1-3.6-10.2-5.8l0,0.1
		C378.7,123.9,381.8,127.5,384.7,129.1z"/>
	<path fill="#1D1311" d="M375.1,135.4c-3.9,1.8-7.9,0.9-12,0.4c3.2-1.6,7.1-0.2,10.5-1.5C374.3,134,374.5,134.3,375.1,135.4z"/>
	<path fill="#201613" d="M387.6,135c3.1-1.5,4.2,2.6,5.2,4.8c-0.7,0.1-1.1,0.2-1.5,0.2C390.1,138.3,388.9,136.6,387.6,135z"/>
	<path fill="#231916" d="M397.8,148.8c0-0.4,0-0.7,0.1-1.1c1.9-0.8,4.3,2.9,2.2,3.9C399.3,150.7,398.6,149.8,397.8,148.8z"/>
	<path fill="#1F1715" d="M393.5,142.2c1-1.8,4.6,1.9,2.2,2.9C395,144.1,394.2,143.2,393.5,142.2z"/>
	<path fill="#241613" d="M375.3,126.2c-1.3,0.1-2.6,0.6-3.6-0.7C373.2,124.6,373.2,124.6,375.3,126.2L375.3,126.2z"/>
	<path fill="#665048" d="M322.7,126.5c-0.7,0.3-1,0.6-1.7,0.2C320.8,125.4,322.5,125.1,322.7,126.5z"/>
	<path fill="#4E3631" d="M357.5,135.2c-1.1,1-2,0.4-3.3,0.3C355.5,134.7,356.4,134.7,357.5,135.2z"/>
	<path fill="#3F1A18" d="M318.2,127.1c-0.4,0.8-0.8,1.2-1.5,0.7C316,127,317.5,126.8,318.2,127.1z"/>
	<path fill="#251A18" d="M249.4,119.3c-0.3,0.1-0.7,0.4-0.9,0C248.8,119.3,249.1,119.3,249.4,119.3z"/>
	<path fill="#977264" d="M384.7,131.5c0.3,0.2,0.5,0.3,0.8,0.5C385.2,131.8,385,131.7,384.7,131.5z"/>
	<path fill="#201715" d="M503.5,139.9c-0.4,0-0.7-0.1-1.2-0.1c-1.1-2.2,3.6-5,3.5-1.9C505,138.5,504.2,139.2,503.5,139.9z"/>
	<path fill="#402F2A" d="M565.7,125.3c-2.1,0.2-3.5,0.5-5.4-0.9c0.9-0.5,1.5-0.9,2-1.2c1.2,0.6,2.3,1.1,3.3,1.6
		C565.7,125.1,565.7,125.2,565.7,125.3z"/>
	<path fill="#0F0907" d="M630.9,122c2.5-1.8,2.5-1.8,4-0.2C633.4,121.9,632.1,121.9,630.9,122z"/>
	<path fill="#382622" d="M508,135.8c-1.6-0.6-0.3-1.9,0.7-2.3C510.3,134.2,508.9,135.3,508,135.8z"/>
	<path fill="#322924" d="M624.9,122.2c0.8-0.7,1.7-0.7,2.6-0.2C625.9,123.6,625.5,123.6,624.9,122.2z"/>
	<path fill="#0E0A09" d="M565.7,125.3c0-0.1,0-0.3,0-0.4c0.9-0.7,1.8-1.2,2.7,0.2C567.4,125.8,566.6,125.7,565.7,125.3z"/>
	<path fill="#302825" d="M421.9,178c-0.7,0.2-0.6,0.9-0.7,1.4c-1-1.7-2-3.3-3-5c0.3-0.3,0.6-0.6,0.9-0.9
		C420.6,174.7,421.2,176.4,421.9,178z"/>
	<path fill="#3E3632" d="M416.6,170.1c-1.3-0.8-1.6-1.5-0.9-2.4C416.9,168.1,417.1,168.8,416.6,170.1z"/>
	<path fill="#655049" d="M419,173.6c-0.3,0.3-0.6,0.6-0.9,0.9c-0.7-0.6-1.1-1.2-0.2-2.3C418.4,172.7,418.7,173.1,419,173.6z"/>
	<path fill="#B5978B" d="M414.3,165.2c-0.3,0.3-0.5,0.4-0.8,0C413.8,164.8,414,165.1,414.3,165.2z"/>
	<path fill="#6B5B54" d="M463.5,183.8c-0.2-0.1-0.4-0.2-0.5-0.3c0.1-0.1,0.2-0.2,0.3-0.3C463.3,183.5,463.4,183.6,463.5,183.8
		L463.5,183.8z"/>
	<path fill="#140E0D" d="M451.3,67.9c4.8-1.2,13-4,13.3,3.6C460,72.9,452.9,73.7,451.3,67.9z M454.9,69.6c1.1,1.1,1.1,1.1,2.9,1.4
		c-0.1-0.7-0.2-1.4-0.2-2.2C456.5,69.1,455.7,69.3,454.9,69.6z M461.6,69c-0.1,0.3-0.3,0.6,0.1,0.8C461.9,69.5,462,69.3,461.6,69z"
		/>
	<path fill="#8C6D5F" d="M475.9,92.7c-0.7,6.1-7.2,2.9-11,2.1c0,0,0,0,0,0c-0.1-0.2-0.1-0.3-0.2-0.5c-0.2,0.2-0.3,0.3-0.5,0.5
		c-1.1-0.4-0.7-1.3-0.8-2.1C467.6,92.8,471.7,92.7,475.9,92.7z"/>
	<path fill="#20110F" d="M451.9,62.8c4.7-2,11.5-2.4,15.1,1.7c-0.8,0.9-1.7,0.6-2.4,0.2c-2.6-1.5-5.6-1.2-8.5-1.8
		C454.9,62.7,452.7,64.5,451.9,62.8z"/>
	<path fill="#2E1B18" d="M475.9,92.7c-4.9-0.1-9.7,0.4-14.5-0.2c0.2-1.6,1.3-1.4,2.2-1.3c0.1,0.2,0.2,0.3,0.3,0.5
		c0.1-0.2,0.2-0.3,0.3-0.5c0.3,0,0.5,0,0.8,0.1l-0.1,0c3.2,1.7,8.5,0.6,11.7-0.7c0,0-0.1,0-0.1,0c0.3,0.2,0.5,0.5,0.8,0.7
		C476.9,91.7,476.4,92.2,475.9,92.7z"/>
	<path fill="#2E1B18" d="M464.9,90.5c2.9-1.8,10.6-4.6,11.7,0c0,0,0.1,0,0.1,0c-0.7-0.5-1.4-0.9-2.2-1.5c-1.3,1.3-2.8,0.3-4,0.1
		c-2.2,0.4-3.5,2.1-5.5,2.1l0.1,0C465,91,464.9,90.7,464.9,90.5z"/>
	<path fill="#2F201C" d="M464.9,94.9c3.2,0.4,7.9,3.4,10.3,0c0.7,0.2,0.6,0.8,0.6,1.4C472.8,99.2,467.6,97.3,464.9,94.9z"/>
	<path fill="#553F37" d="M440.1,90.5c0.3-0.3,0.6-0.6,0.9-0.9c1.9,1.7,3.8,3.5,5.7,5.2c-0.1,0.2-0.3,0.4-0.5,0.7
		C443.5,94.7,441.8,92.6,440.1,90.5z"/>
	<path fill="#2A1C19" d="M437.9,77.3c-1.8,0.5-3.2-1-4.3-2.1c0.4,0,0.7-0.1,1.3-0.1c0.4-1,0.3-2.4,1.7-2.8
		C436.2,74.2,437.6,75.5,437.9,77.3z"/>
	<path fill="#362924" d="M475.9,79.5c1.3,1.5,2.5,3.5,0.2,5c-1,0-2.2,0-3.9,0c1-0.8,1.8-1.4,2.5-1.9c0.6,0,1.1,0.8,1.8-0.1
		c-0.4-0.7-0.9-1.4-1.4-2.2C475.4,80,475.6,79.8,475.9,79.5z"/>
	<path fill="#362521" d="M465.7,83.9c1.2,0.2,1.7-1.1,3-1.4c0.5,0.2,1.2,0.6,1.9,0.9c-1.6,0.7-3.4,3-4.9,1.2
		C465.7,84.4,465.7,84.2,465.7,83.9z"/>
	<path fill="#816458" d="M436.5,72.3c-1.4,0.4-1.3,1.8-1.7,2.8c-0.5,0.1-0.9,0.1-1.3,0.1c-1.2-1.9,0.9-4.1,2.8-3.8
		C436.4,71.7,436.5,72,436.5,72.3z"/>
	<path fill="#140F0E" d="M465.7,83.9c0,0.2,0,0.5,0,0.7c-2.2-0.5-2-3.3-0.1-4.3c0.9,0.8-0.2,1.3-0.1,1.9
		C465.5,82.8,465.6,83.3,465.7,83.9z"/>
	<path fill="#2B1E1A" d="M473.6,69.4c-1,1,0,2.7-1.3,3.6c-0.3-2.1-0.5-4.2,1.5-5.9C474.4,68,473.6,68.7,473.6,69.4z"/>
	<path fill="#52463E" d="M451.9,62.8c0.2,0.8,0.9,0.6,1.5,0.7c-0.8,1.1-2.1,0.7-3.1,1.2C449,63.5,451.1,63.2,451.9,62.8z"/>
	<path fill="#7D6156" d="M475.9,79.5c-0.3,0.3-0.5,0.5-0.8,0.8c-1-0.9-1.7-1.9-1-3.9C474.8,77.7,475.4,78.6,475.9,79.5z"/>
	<path fill="#8C6B5E" d="M464.2,91.2c-0.1,0.2-0.2,0.3-0.3,0.5c-0.1-0.2-0.2-0.3-0.3-0.5C463.8,91.2,464,91.2,464.2,91.2z"/>
	<path fill="#8C6B5E" d="M464.9,90.5c0,0.3,0,0.5,0.1,0.8c-0.3,0-0.5,0-0.8-0.1C464.4,90.9,464.7,90.7,464.9,90.5z"/>
	<path fill="#8B6B5E" d="M438.7,81.6c-0.3,0-0.5,0-0.8,0C438.2,81,438.5,81,438.7,81.6z"/>
	<path fill="#2F201C" d="M464.2,94.9c0.2-0.2,0.3-0.3,0.5-0.5c0.1,0.2,0.1,0.3,0.2,0.5C464.7,94.9,464.5,94.9,464.2,94.9z"/>
	<path fill="#8B6B5E" d="M437.9,81.7c-0.2,0.2-0.5,0.4-0.7,0.6C437.4,82.1,437.7,81.9,437.9,81.7z"/>
	<path fill="#271715" d="M438.9,126.7c-2.5,0-5.7,0.2-6.8-1.6C435.7,124.4,436.6,124.6,438.9,126.7z"/>
	<path fill="#2C2521" d="M442.4,127.4c1.5-0.5,1.5-0.5,2.6,0.3C443.4,128.7,443.4,128.7,442.4,127.4z"/>
	<path fill="#4C3731" d="M448.8,129.2c-0.5-0.4-0.8-0.8-1.2-1.1c1.3-1.1,1.3-1.1,2.8-0.1C449.8,128.4,449.3,128.8,448.8,129.2z"/>
	<path fill="#1B1815" d="M515.8,568.2c-2.6-4.1,4.5-4.8,6.9-6.8c0.5,0.5,0.9,0.9,1.4,1.4C521.9,565.6,518.9,566.5,515.8,568.2z"/>
	<path fill="#15110E" d="M526.4,566.1c0.3,2.8-3.1,3.2-5.5,2.7C521.1,566.1,523.9,565.5,526.4,566.1z"/>
	<path fill="#0D0A09" d="M397.8,562.9c-7.4-2.3,9.5-11.2,11.4-6.8C406.2,559.6,399.4,557.7,397.8,562.9z"/>
	<path fill="#14100E" d="M405.9,559.4c1.7,0.2,3.1-0.1,4.1,1.7c-4.4,2.5-7.3,0.2-10.5,5.6c-1.6,0-1.5-1.2-1.6-2.2
		C399.6,561.3,402.8,560.5,405.9,559.4z"/>
	<path fill="#13100E" d="M400.1,570.7c-3-3.1,11.6-9.4,11.5-4.7C407.7,567.6,404.1,569.1,400.1,570.7z"/>
	<path fill="#1B1714" d="M403,575.7c-2.1-3.5,6.8-6.3,9.3-6C412.6,573.5,406,573.6,403,575.7z"/>
	<path fill="#1B1512" d="M405,578.6c1.4-2.7,6.9-4.4,9.7-3.2C415.1,577.6,406.4,580.1,405,578.6z"/>
	<path fill="#CACAB0" d="M405.9,559.4c-3.2,1.1-6.4,1.9-8,5.1c-0.7-3.6,2.9-5.3,5.8-5.9C404.1,559.8,405.2,559.1,405.9,559.4z"/>
	<path fill="#553A33" d="M402.6,154.4c0.3-0.4,0.5-0.4,0.8,0C403.2,154.7,402.9,154.5,402.6,154.4z"/>
	<path fill="#4F3932" d="M505.3,150c0.5-1.2,1.3-1.3,2.5-0.9C507.1,150.1,506.5,150.6,505.3,150z"/>
	<path fill="#181310" d="M528.5,584c-0.4-0.5-0.6-0.7-0.9-1.1c1.8-4.6,9.8-4.6,13.7-2.9c-1.7,1.5-3.3,1-5.3,1.2
		C532.9,580.9,531,582.6,528.5,584z"/>
	<path fill="#745851" d="M479.5,191.1c-0.2-0.4-0.3-0.8-0.7-1.7c1.3,0.5,2.1,0.9,2.9,1.2c0,0.2-0.1,0.3-0.1,0.5
		C480.9,191.1,480.3,191.1,479.5,191.1L479.5,191.1z"/>
	<path fill="#654D44" d="M433.8,68.6c-0.2-0.5-0.4-0.9-0.5-1.2C434.1,67.1,434.5,67.8,433.8,68.6z"/>
	<path fill="#2A1C19" d="M432.8,76.7c-0.2-0.3-0.5-0.5-0.7-0.8c0.2-0.1,0.4-0.1,0.6-0.1C432.8,76.1,432.8,76.4,432.8,76.7z"/>
	<path fill="#816458" d="M432.8,75.8c-0.2,0-0.4,0.1-0.6,0.1l0,0c0-0.3,0-0.5,0-0.8l0,0C432.3,75.4,432.6,75.6,432.8,75.8z"/>
	<path d="M431.4,72.3c0,1,0,2,0,2.9C430.3,74.9,430.5,71.1,431.4,72.3z"/>
	<path d="M432.2,75.1c0,0.3,0,0.5,0,0.8c-0.3-0.3-0.5-0.5-0.8-0.8C431.6,75.1,431.9,75.1,432.2,75.1z"/>
	<path fill="#B28C7D" d="M473.1,70.5l0-0.3c0.1,0.1,0.2,0.2,0.3,0.2C473.3,70.5,473.2,70.5,473.1,70.5z"/>
	<path fill="#020101" d="M420.3,402.7c1.2,2.6,0.5,5.6,0.7,8.5c-0.4,0-0.7,0-1.1,0c-0.9-2.7-1.2-5.4-0.7-8.2
		C419.6,402.9,420,402.8,420.3,402.7z"/>
	<path fill="#312B27" d="M436,282c-0.3-0.4-0.6-0.8-0.9-1.2c-0.1-0.4-0.1-0.9-0.2-1.5C436.6,280.5,436.6,280.5,436,282z"/>
	<path fill="#E2EAEA" d="M454.9,69.6c0.9-0.3,1.7-0.5,2.6-0.8c0.1,0.8,0.2,1.4,0.2,2.2C456,70.7,456,70.7,454.9,69.6z"/>
	<path fill="#545858" d="M461.6,69c0.5,0.3,0.3,0.5,0.1,0.8C461.3,69.6,461.5,69.3,461.6,69z"/>
	<path fill="#8C6B5E" d="M464.9,91.2c2,0,3.4-1.7,5.5-2.1c1.2,0.2,2.7,1.2,4-0.1c0.8,0.6,1.5,1,2.2,1.5
		C473.4,91.8,468.1,92.9,464.9,91.2z"/>
</g>
<g id="a_00000181052745416867331660000016116958318869506729_">
	<path d="M393.1,332.9c-3.5-87.6,46.7-69.2,0.2-171.2c-6.7-7.3-18.9-4.3-27.9-6.2c-13.7-0.8-27.2-3.2-40-8.4c3-2,7.6,1.1,11,1.5
		c13.7,3.3,27.9,3.9,41.7,6.4c4.7-0.5,9,0.9,13.6,1c2.5-0.4,2.2,3.4,3.6,4.7c1.9,2.1,2.5,4.8,3.5,7.2c17.2-1,23-33.3,15.7-46.3
		c-5.6,2.1-11.1-1.5-16.8-1.7c-8.3-1-16.6-0.8-24.9,0.3c-0.7-0.1-1.5-0.1-1.7-1c12.5-4.6,26.6-1.2,39.4,0.9
		c13.1-6.1,23.4-8.6,22.4-25.9c-1.7-0.3-3.1-0.5-4.5-0.7c-0.2,0.7-0.3,1.2-0.5,1.8c-2.7,0.4-3.1-4.9-7.1-1c-2.2-2-2.2-3.6-4.2-5.8
		c-0.6,1.7,0.8,2.2,0.4,3.8c-3.1,0.7-2.8-3.5-5.5-4.1c-0.2,0.4-0.3,0.7-0.6,1.3c-2.6,0.8-2.7-2.8-4.9-3.2c-2.1-1.5-2.4-4.9-3.6-7.2
		c0.6-0.1,0.6-0.1,0.2-0.7c0,0,0.1,0,0.1-0.1c-0.1,0.3-0.1,0.6-0.2,0.9c-0.9-0.1-1.9-0.2-2.6-0.4c-4.5-4.2-1-8.6-1.9-13.3
		c-0.8,0.8-1.4,1.5-2.1,2.1c-0.7-1.9-0.3-3.8-1.4-5.6c0.4-1.7,0.9-3.6,1.4-5.3c-0.3-0.2-0.4-0.4-0.8-0.6c-0.4,0.3-0.8,0.6-1.3,1
		c-2.6-0.9-1.2-5.1-1-7.3c-0.7-8.4-1.8-7.4,3.2-15.6c-0.7-1.5,0.7-2.5,1.3-3.8c1-0.6,1.7-1.4,2-3c-1.1,0.7-1.9,1.1-2.7,1.6
		c-1.5-1.7,1.3-3.6,1.9-5.5c1.2-0.4,2.5-0.9,4-1.4c-0.7-0.5-1.2-0.9-2-1.4c0.5-0.5,0.9-0.9,1.3-1.3c2,0.4,3.5-0.5,5-2.1
		c-0.6-0.4-1-0.6-1.4-0.8c-0.1-1.8,1.4-2.5,2.6-3.4c0.7,0.1,1.2,0.3,1.7,0.4c1.2-2-2.5-1.6-0.7-4c3-0.6,5.9-1.3,8.7-1.9
		c1.1-2.7,1.1-2.7,2.3-3.5c4.7,2.5,7.1-4,12.6-1.8c0.4-0.1,0.5-0.7,0.8-1c2.4-0.8,4.3-0.2,5.8,1.9c3.9-1,8.3-4.4,12.2-2
		c0.1,2.2-2.2,0.7-3,2.6c3.8,1.4,7.8-5.2,13.1-2c-0.9,1.2-2.2,1.3-3.6,1.8c3,3.8,14.2-0.9,14.6,5.7c-1.1,0-2.1-0.1-3.3-0.2
		c-0.1,0.6-0.1,1.1-0.2,1.8c1.3-0.1,2.4-0.2,3.5-0.2c2.4,2.3,5.4,2.9,7.9,5.1c-0.1,0.4-0.3,0.8-0.5,1.2c2.3,1.4,3.1,4,4.6,6.2
		c-0.8,0.5-1.3,0.7-1.9,1.1c0.5,0.9,1,1.9,1.5,3c-0.3,0.6-0.7,1.2-1.1,1.9c0.6,0.5,1.2,1,1.9,1.6c0,1.8,0,3.8,0,5.8
		c-0.4,0.5-0.9,1-1.3,1.6c0.1,1.3,0.3,2.7,0.4,3.8c-0.6,1.3-1.4,1.9-2.6,1.9c0,2.6-0.3,4.8-1.2,7.3c-0.4,0.2-1,0.4-1.5,0.7
		c0.1,0.8,0.3,1.6,0.4,2.5c-0.3,0.3-0.6,0.7-0.9,1c-2.6-5.7-5.5-14.7-13.4-10.4c-11.4-4-25.3,6.7-23.8,18.7c-1,1.5-1.8,2.8-2.6,4.1
		c0.4,0.5,0.7,0.8,1,1.2c-0.4,1.2-1.5,1.5-2.5,1.7c-0.5-0.2-1-0.4-1.5-0.6c-0.5-1-0.9-2-1.4-3.1l0,0c4-18.1,14-26.9,33-26.6
		c-16.4-10.7-37.2,8.8-35.2,25.9c-0.8,1.5-2.6,2.5-2.2,4.3c-3,4.7,2,9.5,5.2,12.3c0.1,13.3,1.6,26.3-11.1,33.9
		c4.7,19.3,18.5,37.3,40.1,36.8c0.5-0.5,1-1,1.5-1.4c0.4,0.7,0.8,1.3,1,1.7c3.6,0,6.7-0.1,9.9-0.1c0,0.2,0,0.5,0.1,0.7
		c-11.4,4.9-24.7,0.5-34.7-5.7c-12.4-6.1-15.6-20-20-31.8c-2.2,0.6-3.6,1.9-4.9,3.5c7.9,16.9,2.7,44.2-16.9,50.1
		c20.1,59.2,23.8,59.4-1.3,118.3c32.5-0.9,66.8,11.2,98.1-1c-16.6-55.5-15.1-36.8-4.4-92.1c20.4-7.9,10.9-28.8,3-42.8
		c0.3-0.2,0.5-0.5,0.8-0.7c0.8,0.9,1.7,1.9,2.6,2.8c1.2-1,2.2-1.9,3.3-2.9c0.5,0.6,0.8,1,1.3,1.6c19.2-0.1,37.1-9.7,56.5-8.1
		c10.9-0.4,22.1-1.8,32.5-5.9c3.7-0.6,9-5.4,12.2-3.6c-18.4,11.7-40.1,10.1-60.8,12.4c-14.6,3-28.7,8.4-43.8,7.9
		c9.1,12.2,12,34.5-4.9,40.6c-18,62.5,1.9,58.7,9.6,118.1c9.3,39.2,1.5,80,2.2,119.4c6.4,33.6,2.5,67.5,2,101.3
		c1.1,0.3,2.2,0.6,3.4,0.9c2.7,5.6,2.2,11.8,7.3,16.5c4.9,5.1,8.5,12.4,15.2,15.1c7,1.1,8.9,8.8,8.7,15c-12.7,8.4-30.9,8-43.9,0.2
		c-4,2.3-22.1,1.6-20.1-5.2c4-5.2,2.7-11.5,2.6-17.6c-0.5-5.2,3.3-9.9,2.3-15.1c1.4-2.3,3.3-1.7,5.5-0.9
		c-2.5-14.5-1.6-29.6-6.8-43.5c-5-13.3-10.6-27.3-9.7-41.8c6-38-13.9-72.8-21.5-109.4c-5,21.1-7.7,43.6-14.8,64.3
		c-1.1-0.5-0.6-1.5-0.8-2.3c2.6-13.4,5.9-26.7,8.7-40c5.2-18.3,4-39,12.5-56l0,0c0.3-0.2,0.5-0.5,0.8-0.7l0,0.1
		c-12.8,41.2,14.6,81.5,19.4,123.3c-3.6,18.2-2.3,37.4,5.1,54.5c6,15.5,7.4,32.1,9.3,48.4c2.4,0.2,4.5,0.2,6.8,0.2
		c1.2-3.6,3.8-5.2,7.3-6.1c2.8-41.2,0.7-82.6-2-123.8c3.3-40.7,3.6-81.5-6.9-121.5c-32.1,11.7-66.7-0.6-99.6,1
		c-3.3,13.7-3.8,28.3-2.1,42.1C394.6,333.4,393.8,333.1,393.1,332.9z M522.7,560.9L522.7,560.9c-0.9-1-1.9-1.7-2.9-2.6
		c-3.3,2.3-7.1,3.2-10.3,5.7c-3.6-3.8,6.5-6.4,8.8-7.4c-0.1-0.7-0.5-1.3-1.1-1.7c-4.3,1.2-8.8,1.7-12.5,5c-3.1-5.8,7.6-5.8,11-7.3
		c-0.2-0.4-0.4-0.8-0.5-1c-5.5,1.1-10.7,1.1-15.2,4.5c-0.4-0.4-0.8-0.8-1.2-1.1c2.4-5.5,9.3-3.6,13.9-5.4c-0.6-3.3-1.2-6.3-1.7-9
		c-2.8-2.4-6.5-2-9.1,0.1c-1.5,4.3-2.4,9.2-6.7,12.4c-1.3-0.1-2.6-0.2-4-0.3c-1.8-2.3-1.9-5.5-4.3-6.9c-4.3,11.5-0.6,23.4-5.6,34.5
		c5.1,0.6,10.2,3.3,15.2,1.7c2.1-0.8,4-0.4,5.9,0.6c11.8,6.1,27,6,38.6-0.4C539.6,566.6,532.4,575.6,522.7,560.9z M498,544.9
		c-2.2-0.2-4.1-0.4-6.3-0.7c-0.1,2.5-1.1,4.9,2,6.4C495.8,549.2,497.3,547.5,498,544.9z M398.1,33.2c0.9,0.1,1.7-0.1,1-1.1
		C398.7,32.5,398.4,32.8,398.1,33.2z M395.1,44.2c-1.1-0.5-1.3-0.1-1.1,1C394.5,44.8,394.8,44.5,395.1,44.2z M429.5,5.1
		c-0.7-0.6-0.7-0.6-1.1-0.1C428.6,5,428.9,5,429.5,5.1z"/>
	<path fill="#010101" d="M436,412.2c0.2,0.8-0.3,1.8,0.8,2.3c-0.3,1-0.6,2-0.9,3.1c0,0-0.3,0.1-0.3,0.1l0.1,0.3
		c-3.7,9.7-6,20.1-10.3,29.6c-3.8,4.4-4.6,9.4-4.4,15.1c0.2,14.9-6.4,28.5-9.9,42.6c-3.9,14-4.6,28.5-4.8,42.9
		c1,0.1,1.8,0.2,2.9,0.4c4.3,11.3,9.1,23.5,17.1,32.7c5.2,3.8,3.4,9.9,2,15.2c-7.9,2.4-40.3,7.8-41.5-3.3c-2.5-1-5.3-0.7-7.7-2
		c-1.4-5.8,3.6-11.4,2.4-17.4c-0.5-3.5,0.3-7-0.5-10.5c-0.4-2.4,2.5-3.4,4.1-4.5c5.4-33.6-7.6-68.6,1.1-102.1
		c23.1-53.5,7.3-70.2,7-123.9c0.8,0.2,1.5,0.5,2.3,0.7c2.6,18.8,2.3,37.9,4.5,56.8c4.8,20.3,0.3,40.2-9,58.6
		c-11.6,33.2-0.4,68.4-2.4,102.1c2-1.5,1.5-5.3,2.7-7.6c2.8-1.8,6.3-3,9.6-3.2c0.6,0.7,1,1.2,1.6,2c1.1-27,13.6-51.3,16.1-77.7
		c-1-8.8,2.6-16.2,6.5-23.7C429.6,431.7,431.3,421.2,436,412.2z M426.8,591.5c3.3-7.2-6.4-10.3-8-16.5c-3.3-8.1-9.4-15.2-10.8-23.9
		c-3.5-1.9-5.4-5.3-8.2-8.1c-2.3,0.7-4.6,1-6.3,2.3c-1.2,6.3-2.3,12.9-6.3,17.6c-1.6,0-2.3-0.4-3.7-1.4c-0.3,9.6,0.9,18.7-2.5,28
		c1.9,0.2,3.5,0.8,5.1,0.5c0.3-1.1,0.5-2,0.8-3.2c2.6,2.2,1.7,5.9,2.8,9c12,2.3,24.5,2.3,36.3-1.2c-7.5-3.2-14.7,3.2-13.8-0.6
		c0.9-0.8,2-1.6,2.9-2.3c4-0.4,7.7,0.4,11.5,0.8C426.6,592.1,426.7,591.8,426.8,591.5z M387.5,558.5c1.5-2.5,1.5-2.5,0.8-4.6
		C386.2,556.3,386.1,556.9,387.5,558.5z"/>
	<path fill="#050303" d="M495.9,152.3c-0.3,0.2-0.5,0.5-0.8,0.7c-6.3-8.3-11.4-19.1-20.4-24.7c0-0.4,0.1-0.8-0.4-0.3
		c0.2,0.1,0.3,0.2,0.5,0.2c1.7,7.1,9.1,14,6.5,21.9c-0.5-0.2-0.9-0.5-1.4-0.7c-2.6-13.9-5.4-21.6-18.8-27c-0.2,0.6-0.4,1.2-0.6,2.1
		c-2.1-5.8-3-13.6,0.5-18.8c0.2,0,0.4,0,0.7,0.1c-0.7,4.5-1.1,9.1-1,13.7c3.4,1.8,6.6,3.5,9.7,5.1c16.6-11.3,34.1-1.1,51,2.1
		c23-1.1,44.9-10.6,67.9-8.7c-23.6,3.6-48.1,8.6-72.2,11.2c-0.5-0.6-0.8-1.1-1.2-1.6c-2.3-0.5-5-1.1-7.2-1.6
		c-0.7-0.8-1.2-1.5-1.4-1.7c-10.8-1.6-22.8-6.4-32.2,0.8c7.3,6.1,12.8,13.7,18.2,21c1.8-1.1,3.5-5.4,5.6-4.2c-0.6,3-2.8,5.1-4.5,7.6
		c0.6,0.8,1.1,1.4,1.7,2.1C495.8,151.8,495.8,152,495.9,152.3z"/>
	<path fill="#070404" d="M371.2,119.3c0.2,0.9,1,0.9,1.7,1c-4.2,1.1-7.9,3.5-11.2,5.5c-12.5-1.3-24.6,1.5-37.1,0.2
		c0.5-0.6,0.8-0.9,1.1-1.3c-18.9-9.1-40.5-5.9-60.8-9c6.4-2.8,14-0.2,20.7,0.1c9.6,1.6,19.6-0.9,28.8,2.7
		C330.8,125.2,355,126.1,371.2,119.3z"/>
	<path fill="#0E0A0A" d="M327,146.4c-0.6,0.1-1.3,0-1.6,0.7c-18.8-2.3-35.8-9-52.3-18.2c-5.9-2.3-12,3.2-17.7-1.1
		c-1.2,0.4-2.2,0.5-3.4,0.3c0-0.2-0.1-0.4-0.1-0.6c0.5-0.3,1-0.6,1.4-0.9c1.4,0.2,2.8-0.1,4.2,0.6c6.3,3.8,12.7-3.7,16.1-1.3
		c-0.7,0.1-1.3,0.1-1.9,0.4c9.7,4.1,18.8,9.5,28.5,13.6C308.6,144.4,318.6,142,327,146.4z"/>
	<path fill="#1C1211" d="M586.1,119.5c0.9-0.8,2.3-0.3,2.9-1.4c15.6,1,31.3-4.5,46.6,0.1C619.5,118.2,602.6,119.4,586.1,119.5z"/>
	<path fill="#2B201D" d="M235,126.8l-0.3,0.1c-1.1,0-2.5-0.7-3.4,0.6c-4,0.4-14.2,2.7-13.8-3.8c4.9-1.5,9.4-4.4,14.5-4.7
		c0.3,0.2,0.6,0.5,0.8,0.7c-0.1,0.2-0.1,0.4-0.1,0.6c-4.7,0.4-8.8,2.9-13.2,4.3c-0.5,0.8-0.4,1,0.8,1.5c0.7,1,0.7-0.9,1-1.6
		c5.1-0.8,10.7-2.8,14.9-5.5c1,0.1-0.2,1.1,0.8,1.4c-4.5,2.2-9.6,3.4-14.1,5.6c7.4,3.3,14.5-3.2,22.1-2.6c0,0.2,0,0.4,0,0.6
		c-1.4,0.2-2.9-0.3-4.4,0.5c0.5,0.9,0.7,1.5,1,2.4c-0.4,0.1-0.7,0.2-1.1,0.2c0,0,0,0,0,0c-0.2-0.3-0.4-0.6-0.7-0.8c0,0,0,0,0,0
		c-1-1.3-1.2-0.9-2.3,0.1C236.8,126.2,235.7,125.7,235,126.8z"/>
	<path fill="#241A18" d="M671.1,130.6c-1.7-0.1-3.4-0.2-5-0.4c-5.3,7-12.5-0.6-19.2,2.4c-3.9,0.8-8.2-0.2-10.7-3.5
		c0.4-0.1,0.7-0.1,1.1-0.2c4.9,3.5,10.5,2.3,15.9,0.8l0,0c2.8,2,8.6,3.5,10.6,0c-3-1.1-6.8-0.6-9.1-3c0.2-0.2,0.4-0.4,0.6-0.7
		c5.4,2.4,11.3,2.1,16.8,3.7C671.7,130.1,671.4,130.3,671.1,130.6z"/>
	<path fill="#0F0A0A" d="M637.2,129c-9.1,1.5-18.1,2.4-27,5.2c-0.7-0.3-1.8,0.3-2.2-0.7c8.1-3.4,16.9-4.3,25.3-6.4
		c-1.3-1.3-2.3-1.4-3.5-0.2c-0.9,0-1.6-0.3-1.4-1.5C632.2,124.4,634.8,126,637.2,129z"/>
	<path fill="#32221F" d="M461.6,106.6c0-0.3-0.1-0.5-0.1-0.8c6,0.7,11.4-2.2,13.1-8.3c-4.6,2-7.4,0.3-11.6-2c0.8-1.2,2.1,0.1,3,0.4
		c2.8,1.4,8.7,2.4,8.3-2.5c-4.7-0.3-9.4,0.8-14.1-0.3c0.3-1.6,0.9-1.5,2.1-1.3c0.1,0.2,0.2,0.3,0.3,0.5c0.1-0.2,0.2-0.3,0.3-0.5
		c3.6,1.3,8.8,1,12.4-0.7c0.3,0.2,0.5,0.5,0.8,0.7c0,0.3-0.1,0.5-0.1,0.8l0,0c-1.3,0.7-0.8,1.6-0.1,2.5c0.1-0.6,0.1-1.1,0.2-1.7
		c0.2,0.3,0.5,0.6,0.7,0.9C475.6,101.4,469.7,108.8,461.6,106.6z"/>
	<path fill="#261C1A" d="M656.7,118.9c5.6,3.3,13.3,3.6,18.9,7.4c-4,1.8-7.9-2.8-12.3-1.8c-4.2-0.1-4.6-2.9-7.5-4.8
		C656.1,119.4,656.4,119.1,656.7,118.9z"/>
	<path fill="#251716" d="M656.7,118.9c-7.4,3.3-17.1,0.9-25,0.1C639.8,117.9,648.8,117.4,656.7,118.9z"/>
	<path fill="#221615" d="M233,119.6c-0.3-0.2-0.6-0.5-0.8-0.7c1-0.4,2.2,0.3,2.9-0.7c2.7-1.7,6.4-0.8,8.8-2.3
		c0.7-0.5,1.8,0.5,2.2-0.7c0.1-0.2,0.3-0.2,0.5-0.2c1-0.7,1.6-1,2.4,0.1c-0.2,0.3-0.5,0.5-0.7,0.8c0,0,0,0,0,0
		c-0.3,0.2-0.5,0.5-0.8,0.7c-0.6,0-1.2,0-1.4,0.6c-0.2,0.1-0.4,0.2-0.6,0.2c-2.4,1.6-5.4,1.9-8.1,2.9c-1-0.3,0.1-1.2-0.8-1.4
		c-0.2,0-0.5,0.4-0.7,0.6C234.8,119.6,233.9,119.6,233,119.6z"/>
	<path fill="#2C201F" d="M674.1,126.9c0.5-0.2,1.1-0.5,1.6-0.7c2.9,1.1,5.9,1,8.7,2.3c-0.9,5.9-9.5,3.9-13.3,2.1
		c0.3-0.3,0.7-0.5,1-0.8c3.1,0.7,7.7,2.8,10.1-0.3C679.3,128.6,676.7,127.8,674.1,126.9z"/>
	<path fill="#120908" d="M481.9,68.6c1.3,2.8-3.7,0.3-1.4,3.6c-1.2,0.1-2.4,0.2-3.6,0c-0.2-0.2-0.5-0.5-0.7-0.7
		c0.2-1.3-0.4-2.1-1.5-2.9c1.2,0.1,2.3,0,2.8-1.3C481,66.5,479.8,68.5,481.9,68.6z M478.7,69.7c-0.2-0.5-0.5-0.1-0.8,0
		C478.1,70.1,478.4,69.8,478.7,69.7z"/>
	<path fill="#0F0F0E" d="M481.9,68.6c-1.3,0.3-1.2-1.1-2-1.4c-0.1-0.8-0.2-1.5-0.3-2.2c-1.1,0-1.9,0-2.7,0c0.8-1.6,3.2,0.3,3.5-1.7
		c-0.2-0.2-0.5-0.4-0.8-0.6c-0.1-2.4-0.7-4.8-1.3-7.1c0.3-0.3,0.6-0.7,0.9-1C481.1,59,480.9,63.9,481.9,68.6z"/>
	<path fill="#413C39" d="M476.9,94.2c-0.2-0.3-0.5-0.6-0.7-0.9c0-0.3-0.1-0.5-0.1-0.8l0,0c2.1-3.9,1.8-9.1,3.6-13.2
		c0.2,0.5,0.5,1,0.7,1.5C479.4,85.4,479.1,90.2,476.9,94.2z"/>
	<path fill="#332422" d="M266.6,115.1c-3.9,2-8.5-0.5-12.6-0.7C257.6,112.5,262.7,114,266.6,115.1z"/>
	<path fill="#382825" d="M256.5,113.6c-0.8,0.2-1.9-0.3-2.5,0.7c-1.8-0.4-3.5-0.2-5.1,0.8c-0.3-0.3-0.6-0.6-1-0.8
		C250.3,111.8,253.6,113.2,256.5,113.6z"/>
	<path fill="#252525" d="M240.7,127c0.4-0.1,0.7-0.2,1.1-0.2c3.1,1.4,6.7,0.7,10,0.9c0,0.2,0,0.4,0.1,0.6
		C248.5,127.6,242.8,130.1,240.7,127z"/>
	<path fill="#0F0F0E" d="M480.4,80.9c-1.5-2.6,0-6.2-2.3-8.6c0.8,0,1.6-0.1,2.3-0.1C480.1,75.1,481.3,78,480.4,80.9z"/>
	<path fill="#292726" d="M608,133.4c0.5,1.1,1.5,0.4,2.2,0.7c-2,0.7-3.9,1.4-5.9,2.1c-0.2-0.7-0.9-0.6-1.4-0.7
		C604.5,134.7,606.1,133.8,608,133.4z"/>
	<path fill="#161413" d="M393,319.6c0,4,0,8.1,0,12.1C392.3,327.8,392.2,323.4,393,319.6z"/>
	<path fill="#162C2C" d="M242.7,128.4c3.6,0,7.1-0.3,10.7,0C250.7,129.6,245.7,129.2,242.7,128.4z"/>
	<path fill="#9DA6A6" d="M396,67.9c0.6-0.7,1.3-1.3,2.1-2.1c0.5,1.2,0.3,2.4,0.2,3.5c-1.2-0.1-1.7,0.6-2.9-0.2
		C395.5,68.7,395.7,68.3,396,67.9z"/>
	<path fill="#A9AAAA" d="M405.4,16.9c0.4,0.2,0.8,0.5,1.4,0.8c-1.5,1.6-2.9,2.5-5,2.1C402.9,18.5,404.9,18.5,405.4,16.9
		C405.5,16.8,405.4,16.9,405.4,16.9z"/>
	<path fill="#BABABA" d="M452.1,3.3c-1,1.4-2.2,1.5-3.7,0.9c0.8-1.8,3.1-0.4,3-2.6C452.3,1.9,452.1,2.6,452.1,3.3z"/>
	<path fill="#BAC9C9" d="M472.5,11c-1.1,0.1-2.1,0.1-3.5,0.2c0.1-0.7,0.1-1.2,0.2-1.8c1.2,0.1,2.3,0.1,3.3,0.2
		C472.5,10.1,472.5,10.6,472.5,11z"/>
	<path fill="#211717" d="M405.5,16.8c-0.4,1.4-1.8,1.4-2.7,2.2c-0.1-0.2-0.2-0.4-0.4-0.6c0-0.3,0-0.6,0-0.9
		C403.2,16.5,404.3,16.3,405.5,16.8z"/>
	<path fill="#566262" d="M417.1,92.6c0.4-1.6-1-2-0.4-3.8c1.4,0.9,1.2,2.3,1.9,3.1C418.1,92.1,417.6,92.3,417.1,92.6z"/>
	<path fill="#727C7C" d="M396.7,29.3c0.8-0.5,1.6-0.9,2.7-1.6c-0.3,1.6-1,2.4-2,3C397.2,30.2,397,29.8,396.7,29.3z"/>
	<path fill="#252525" d="M231.4,127.5c0.8-1.2,2-0.5,3.1-0.6C233.5,127.1,232.4,127.3,231.4,127.5z"/>
	<path fill="#0F0F0E" d="M480.5,72.2c-0.5-0.8-1.2-2.1,0.3-2.1C480.9,70.8,481.7,72.1,480.5,72.2z"/>
	<path fill="#252525" d="M235,126.8c0.6-1.1,1.6-0.6,2.5-0.6C236.7,126.4,235.9,126.6,235,126.8z"/>
	<path fill="#252525" d="M238,126.1c1.2-1,1.2-1,2.2,0.1C239.4,126.1,238.7,126.1,238,126.1z"/>
	<path fill="#2B201D" d="M235,118.2c-0.4,0.7-1,0.6-1.6,0.5C234,118.6,234.5,118.4,235,118.2z"/>
	<path fill="#382825" d="M243.8,116c-0.3,0.8-1,0.7-1.7,0.6C242.7,116.3,243.2,116.1,243.8,116z"/>
	<path fill="#382825" d="M246,115.2c-0.3,0.8-1,0.7-1.6,0.6C244.9,115.6,245.4,115.4,246,115.2z"/>
	<polygon fill="#EAA388" points="435.7,418 435.7,417.7 436,417.5 436,417.9 	"/>
	<path fill="#EAA388" d="M434.9,419.4c0.1-0.2,0.2-0.3,0.3-0.5C435.1,419.1,435,419.3,434.9,419.4z"/>
	<path fill="#A9AAAA" d="M402.4,17.5c0,0.3,0,0.6,0,0.9C401.7,18.1,401.8,17.8,402.4,17.5z"/>
	<path fill="#BABABA" d="M453.6,2.4c-0.3,0.2-0.6,0.3-0.8,0.5C453.1,2.7,453.3,2.5,453.6,2.4z"/>
	<path fill="#252525" d="M240.1,126.1c0.2,0.3,0.4,0.6,0.7,0.8C240.5,126.7,240.3,126.4,240.1,126.1z"/>
	<path fill="#382825" d="M247.4,114.5c-0.3,0.2-0.7,0.4-1,0.6C246.8,114.9,247.1,114.7,247.4,114.5z"/>
	<path fill="#EAA388" d="M436,412.2c-4.7,9.1-6.4,19.5-11,28.7c-3.9,7.6-7.5,15-6.5,23.7c-2.5,26.4-15.1,50.7-16.1,77.7
		c-0.6-0.7-1-1.3-1.6-2c-2.9-0.4-5.5,2.3-8.4,1.2c1.4-12.3,2.6-24.7,4.2-36.8c0.2-0.5,0-1.2-0.9-1.1c-0.8,1-1.6,2-2.7,3.4
		c0.3-3-0.4-5.5,0.6-8c0.7-2.9-1.6-6,0-8.9c-3.8-18.3,3-37.9,9.8-55c3.1,3.4,1.2,8.8,5.3,11.1c2.8-7.8,1-16.3-0.3-24.5
		c1.7-15.4,2.4-31,3.5-46.4c2.1-27.4-1.8-55.6,5.5-82.3c26.3,0.1,54.2,7.2,79.6-2.4c10.4,39.9,10.2,80.8,6.8,121.5
		c2.7,41.2,4.8,82.5,2,123.8c-3.5,0.9-6.1,2.5-7.3,6.1c-1.4,0-2.8,0-4.3,0c-1.4-17.6,3.7-37.4-4.1-53.6c-0.4,4.2-0.7,8.2-1.1,12.3
		c-4.7-17.8-13.1-38-5.9-56.2c2.1,2.2,3.6,4.8,5.1,7.3c-1.3,1.3-1.3,1.3-0.6,2.7c1,1.2,0.7,3.2,2.3,4.1c1-0.8,0.5-1.8,0.6-2.7
		c2.1,1.2,2.8,3.6,4.1,5.4c0.8-16.8-15.8-27.6-16.5-43.8c-5.1-26.3-3.7-53-3.2-79.4c-3.2,1.8-3,5.3-5.2,7.6
		c-1.6-10-3.2-19.8-4.7-29.1c-1.2-1.5-2-2.5-2.9-3.5c0.2-0.9,1.4-1.6,0.7-2.9c-2,1.5-3.8,3.2-5,5.3l0-0.1c-0.3,0.2-0.5,0.5-0.8,0.7
		l0,0c-6.3,9.8-5.4,22.4-8.4,33.5C445.8,370.7,440,391.3,436,412.2z M444.1,311c0.2,0.1,0.3,0.2,0.5,0.3
		C444.4,311.2,444.2,311.2,444.1,311c-0.4-1-1.1-1.5-2.2-1.5c-2.2-2.5-4.9-4.1-8-5.1c-0.3-0.5-0.5-1-1.1-0.2
		c0.4,0.1,0.8,0.1,1.1,0.2c0.3,1.4,1.7,1.6,2.7,2.2c1.7,1.1,3.1,2.7,5.3,2.9C442.3,310.6,443,311.1,444.1,311z M442,314.6
		c-1-0.9-2-1.6-3.4-1.1c1.8,2.1,5.4,3.5,7.4,3.3C444.3,315.9,443.1,315.2,442,314.6z M421.6,415.9c0.4,0.2,0.8,0.4,1.2,0.5
		c0.8-4.1-0.3-9-2.8-12.1c-4.8-9.2-10.1,5.5,0.9,8.7C421.1,414,420.1,415.3,421.6,415.9z M492.9,417.3c-3.2-3.5-0.6-6.2-7-8.8
		c-1,0.6-2.1,1.1-2.9,1.6c-1.1,6.3,4.1,8.6,8.6,10.1C493,419.6,493,418.5,492.9,417.3z M416.9,455.2c-2.5,1.4-3.9,7.2-3.9,10.4
		C415.7,463,417.9,458.7,416.9,455.2z M499.2,405.1c-0.3,0-0.5-0.1-0.8-0.1c-1.3,2.8-3.1,5.6-2.5,8.7
		C498.2,411,499.7,408.3,499.2,405.1z M411.6,472.1c1.6-1.4,1.6-3.4,0-4.7C410.8,469.2,410.4,470.6,411.6,472.1z M492.3,467.6
		c0.7-2.5-0.1-3.9-2.4-4.4C490.7,464.7,490.7,466.5,492.3,467.6z M408.8,478.6c-0.8,2.1-0.8,2.1-0.1,3.4
		C410.1,480,410.1,480,408.8,478.6z M491.3,470.5c0.4,1.2,0.2,2.1,1.4,2.2C493,471.3,493,471.3,491.3,470.5z M492.9,476.3
		c-0.5,0.6-0.9,1-0.3,1.4C493.5,477.4,493.5,477.2,492.9,476.3z"/>
	<path fill="#F5DDCE" d="M474.6,128.3c13,9.9,35.3,41.3,28.4,58.2c-15.9,2.1-16.9-1.3-28.3-11c-3.4,2.7-6.4,5.6-5.7,10
		c0.9,0.6,1.7,1.3,2.6,1.9c-0.9,2,2.1,1.3,3.1,2c3.8,4.2,10,2.7,15.3,3.7c0.8,1.5,2.9-0.2,3.7,1.4c-0.5,0.4-0.9,0.8-1.5,1.3
		c-10.7,55.4-12.2,36.8,4.4,92.1c-24.9,9.6-53.6,4.2-79.4,1.3c2.4-22.9,8.8-45.8,13.4-68.2c1.7,0.6,3.3,1.1,5,1.7
		c2-4.6-7-10.7-5.3-14.3c1.6,0.7,3.3,1,5,0.3c1-3.6-3.6-5.8-4.7-9c-1.5-4.2-5.7-9.1-5.3-13.2c17,11.8,51.3-5.1,32-4.3
		c-14.4,1.7-30.7-1.5-37.4-15.6c-0.5-3.3-3.1-4.6-5.4-6.3c4.9-12.8,9.1-26.5,2.2-39.8c1.3-1.6,2.7-2.9,4.9-3.5
		c5.2,21.6,19.7,38.8,43.2,39.3C489.3,157,481.7,143.4,474.6,128.3L474.6,128.3z M427.4,266.6L427.4,266.6c0.4,4.6,4.3,7.5,5.1,12
		c1.7,4.1,5.4,6.4,8,10.1c0.7,1.1,1.6,2.4,3.5,2.6c-2.8-10.8-6.5-23.1-15.8-30.5c-3.5,0.8-1.4,2.3-1.4,5
		C426.9,266.1,427.1,266.3,427.4,266.6z M478.1,243.5c0.3,1.6,0.4,3.2,1.3,4.9c0.8-2.7,0.2-6-1.7-7.6
		C477.3,241.8,477.4,242.7,478.1,243.5z M483,279.5c2-2.9,4.3-7,3-10.5C484.2,271.4,482.7,276.6,483,279.5z M477.2,234
		c-1.4,2.2-1.4,2.5,0.2,4.1C478,236.7,478.3,235.5,477.2,234z M480.9,283.1c-1.1,0.2-1.6,0.9-1.7,2c0.2,0.2,0.5,0.3,0.8,0.5
		C480.9,284.9,481.5,284.2,480.9,283.1z M477.1,290.4c1.1-0.6,1.6-1.2,1-2.5C477.3,288.5,476.3,288.9,477.1,290.4z M478,227.7
		c0.8-0.7,0.2-2.3-0.8-1.5C476.6,227.1,477.2,227.5,478,227.7z M478.6,222.8c-0.7-0.9-1-1.3-1.4-1.7
		C477,221.8,476.4,222.8,478.6,222.8z M477.2,232.3c0.1-0.1,0.2-0.1,0.3-0.2c-0.2-0.3-0.3-0.3-0.5,0
		C477.1,232.1,477.1,232.2,477.2,232.3z"/>
	<path fill="#B28C7D" d="M251.8,127.6c-3.3-0.2-6.9,0.5-10-0.9c-0.1-0.5-0.3-1-0.4-1.4c1.2-1.6,3.4,0.2,4.7-1.3
		c2.8-1.2,6.1,0.3,8.6-1.6c2.5-1.3,4.8-3,7.8-3.1c-3-1.5-6.2,0.8-8.7,2.3c-10.4,0.1-20.6,7-30.7,4.3c7.4-3.3,15.4-5.7,22.8-8.7
		c1.1,0.3,1.5-0.8,2.2-1.3c0,0,0,0,0,0c2.7-3.9,25.5,1.5,31.9,1.3c15.5,2.3,31.4-0.4,45.7,7.6c-0.3,0.4-0.6,0.7-1.1,1.3
		c12.5,1.3,24.6-1.6,37.1-0.2c15.4-12.1,35.8-3.5,52.8-4.1c5.4,11.5,3.7,24.9-2.4,35.7c-12.3-4.6-14.7-25.3-28.5-27.7
		c-2.9-1.6-6-5.2-9.5-2.9c-2.1-1.6-2.1-1.6-3.6-0.8c1,1.4,2.4,0.8,3.6,0.7c3.1,2.2,7.1,3.3,10.2,5.8l0,0
		c5.1,7.7,12.2,14.3,15.9,22.8c-0.4,0.6-0.7,1.2-1,1.7c-14.3-8.3-31.6-6.2-47.2-9.2c-6.6-0.3-12.7-3.7-19.5-2.9
		c-3-0.1-7.4,0-9.2-2.6c0.4-0.6,0.7-1.2,1.2-1.9c-6-5-15.4,0.4-22.3-4c-6.9-1.8-14.1-4-20.6-7.1c-0.2-0.7-0.2-1.2-0.1-1.8
		c1.3,0,2.6,0,4.4,0c-4.9-4.3-14.8-6.4-20.2-2.4C260.8,126,255.8,124.8,251.8,127.6z M374.1,136c-0.3-1.4-1.2-1.3-1.8-1.1
		c-3.7,1.5-7.5-0.5-10.7,2C366.2,137,370.1,137.7,374.1,136z M353.6,135.6c0.9,0.7,1.8,1.1,3,0C355.4,135.6,354.5,135.6,353.6,135.6
		z M321.8,127.2c-0.3-1.5-1.9-1.4-1.8,0.3C320.6,127.5,321.1,127.4,321.8,127.2z"/>
	<path fill="#D69479" d="M421.7,292.8c-1.3,0.1-2.7,0.1-4.2,0.2c-7.3,26.7-3.3,54.9-5.5,82.3c-1,15.4-1.8,31-3.5,46.4
		c1.2,8.2,3.1,16.7,0.3,24.5c-4.1-2.3-2.2-7.7-5.3-11.1c-6.9,17.2-13.6,36.7-9.8,55c-1.6,3,0.7,6,0,8.9c-1,2.5-0.4,5-0.6,8
		c1.1-1.4,1.9-2.4,2.7-3.4c0.9-0.1,1.1,0.6,0.9,1.1c-1.6,12.1-2.9,24.5-4.2,36.8c0.5,0.1,0.9,0.3,1.4,0.4c-0.9,0.5-1.8,1.1-2.6,1.6
		c-1.2,2.4-0.8,6.2-2.7,7.6c1.3-45.1-11.7-77,9.8-120.6c7.8-19.7,0.4-40.4-0.1-60.7c-0.6-26.2-6.8-52.5-0.7-78.2
		C405.5,291.1,413.8,290.8,421.7,292.8z"/>
	<path fill="#E6CCBB" d="M462.3,184.3c-0.3,1-1,1.5-2.1,1.5c-1.3-1.1-1.3-1.1-2.8,0.6c0.2,0.3,0.4,0.5,0.7,0.8
		c-1.2,0-1.4,1.1-2.4,1.5c-0.1-0.3-0.1-0.7-0.2-1c-17.6,1.3-29.4,2.3-38.6-15c-1.5,2.2,6.2,11.9,8.2,13.9c-0.4,4.2,3.8,9,5.3,13.2
		c1.1,3.2,5.7,5.4,4.7,9c-1.7,0.6-3.4,0.4-5-0.3c-1.7,3.6,7.4,9.7,5.3,14.3c-1.7-0.6-3.3-1.1-5-1.7c-4.6,22.4-11,45.3-13.4,68.2
		c-6.2-0.1-12.3-0.2-18.7-0.3c25.1-58.9,21.4-59.1,1.3-118.3c6.6-1.8,11.4-5.8,14.6-11.8c0,0.5,0,1,0,1.5c2.4,1.7,4.9,3,5.4,6.3
		c5.1,10.5,14.8,15,26,15.5C448.3,184.3,465.3,179.7,462.3,184.3c-0.1-0.2-0.2-0.4-0.2-0.5c-0.1,0.1-0.2,0.2-0.3,0.3
		C461.9,184.2,462.1,184.3,462.3,184.3z M415,170.6c0.5-2.1,0.5-2.1-1.1-2C414.3,169.4,414.7,170,415,170.6z"/>
	<path fill="#D69479" d="M487.7,454.5c-0.7-1.3-0.7-1.3,0.6-2.7c-1.5-2.5-2.9-5.1-5.1-7.3c-7.3,18.1,1.2,38.3,5.9,56.2
		c0.4-4.1,0.7-8.1,1.1-12.3c7.8,16.2,2.7,35.9,4.1,53.6c-0.8,0-1.6-0.1-2.6-0.2c-1.9-16.3-3.3-33-9.3-48.4
		c-7.3-17.1-8.7-36.3-5.1-54.5c-4.9-41.8-32.2-82.1-19.4-123.3c0.2-1.2,1.1-1.7,2-2.3c0.1,0.4,0.1,0.9,0.2,1.5
		c0.8-0.6,1.4-1.1,2.1-1.5c0.8,1,1.7,2,2.9,3.5c1.5,9.3,3.1,19,4.7,29.1c2.2-2.3,2-5.7,5.2-7.6c-0.5,26.3-2,53,3.2,79.4
		c0.7,16.3,17.2,27.1,16.5,43.8c-1.3-1.9-2.1-4.3-4.1-5.4c-0.9-0.9-0.5-2.9-2.7-2.7C487.8,453.7,487.8,454.1,487.7,454.5z"/>
	<path fill="#B28C7D" d="M478.1,72.3c3.8,6-0.7,13-1.4,19.4c-0.2,0.1-0.3,0.1-0.5,0.1c-0.3-0.2-0.5-0.5-0.8-0.7l0,0
		c-1.5-4.9-9.9-1.8-12.5,0.7c-1.3,0-2.5-0.6-2.7,1.3c0.7,0.1,1.3,0.2,2,0.3c-0.5,2.2,2.1,2.6,3.7,3.5c3.9,1.8,4.7,1.8,8.7,0.5
		c-3.5,12.5-18.4,8.7-24.5,0.9c-6.1-3.5-12.7-8.3-12.5-16c-0.6-1.5-1.1,1.4-2.2,0.7c0.3-2,1.9-4.4,1-6.3c-1.4-1.5-0.9-3.4-1.2-5.2
		c0.6,0,1.3,0.1,1.6-0.7c1.1-0.2,2.1-0.5,2.5-1.7c-0.3-0.4-0.6-0.7-1-1.2c0.8-1.3,1.7-2.6,2.6-4.1c-1.5-12,12.5-22.7,23.8-18.7
		c10.1-4.9,13.8,10.2,14.7,17.5c-2.2-0.2-5.6,0.5-5.3,3.2c2.2-0.9,3.1-1.1,5.4-0.9c0.1,0.7,0.2,1.5,0.3,2.2c-3.6-0.2-5.1,0-7.5,2.9
		c0-0.7,0.8-1.3,0.3-2.3c-1.9,1.5-2.8,6.2-0.3,6.8c0-0.9,0.2-1.5,0.5-2.5c1.3,0.2,2.4,1.1,3.3,0C476.8,72.1,477.4,72.2,478.1,72.3z
		 M474.7,80.2c-0.5-0.9-1.1-1.8-1.8-3.1c-1,3,1.5,3.9,2.5,6.1c-0.8,0.9-1.3,0.1-1.8,0.1c-0.7,0.6-1.4,1.1-2.5,1.9c1.6,0,2.9,0,3.9,0
		C477.2,83.7,476,81.7,474.7,80.2z M452.2,64.3c3.6-1,7.7-0.2,11.2,1.3c0.7,0.4,1.6,0.6,2.3-0.1c-1.7-4.5-17.6-4-16.6,0.1
		C450,65,451.3,65.3,452.2,64.3z M452,72.1c3.4,1.1,8.2,1.2,11.4,0c-0.3-7.5-8.6-4.7-13.3-3.5C450.8,69.9,451.4,71,452,72.1z
		 M465.7,86.1c1.4-0.7,2.6-1.3,3.9-2c-0.6-0.4-1.2-0.7-1.8-1.1c-1,0.5-1.9,1-3.1,1.7c0-1.5,0-2.6,0-3.7c-2.4,1.2-1.6,2.1-1.5,4
		C464.1,85.4,464.8,85.8,465.7,86.1z"/>
	<path fill="#B28C7D" d="M458.6,114.5c0.1,3.5,0.3,6.6,1.8,10c0.3-0.9,0.4-1.4,0.6-2.1c3.6,3.3,9.6,2.8,11.8,7.3
		c2.9,6.5,7.3,13.4,6.7,20.7c-1.7,0.7-2.3,2.3-3.4,3.5c-3.2,0-6.3,0.1-9.9,0.1c-1.4-1.9-1.2-4.7-3.8-6.1c0.5,2.2,0.9,4,1.3,5.8
		c-19.5,0.3-35.2-15.4-38.6-33.5c6.7-1.5,11.2-5.5,14.2-11.6C443.3,115.3,451.5,116.4,458.6,114.5z M431.1,126c2,0.8,4,1.9,6.9,1.1
		C435.6,125.2,433.5,125.1,431.1,126z M441.2,127.9c1,1.5,1.7,1.5,2.6,0.1C443,127.2,442.1,127.2,441.2,127.9z M449.1,128.6
		c-1.5-1.1-1.5-1.1-2.5,0.3C447.9,129.6,447.9,129.6,449.1,128.6z"/>
	<path fill="#F7EFD0" d="M489.2,549.2c0.6,1.1,1.3,2.3,2,3.5c1.4,0.1,2.7,0.2,4,0.3c4.3-3.2,5.2-8,6.7-12.4c2.6-2.1,6.3-2.4,9.1-0.1
		c0.5,2.7,1.1,5.8,1.7,9c-4.7,1.7-11.5-0.1-13.9,5.4c0.4,0.4,0.8,0.7,1.2,1.1c2-0.6,3.1-2.7,5.2-2.6c1.1,0.1,2.2,0.4,3-0.6
		c1.2-0.3,2.4,0.2,3.6,0.5c-0.4,0.1-0.9,0.2-1.3,0.3c-0.7-0.3-1.2-0.2-1.5,0.5c-2.2,1.2-7,2.4-4.3,5.7c3.7-3.3,8.2-3.8,12.5-5
		c0.6,0.4,1,1,1.1,1.7c-2.3,1-12.4,3.7-8.8,7.4c3.2-2.6,7-3.4,10.3-5.7c1,0.9,2.1,1.6,2.9,2.6c0,0,0,0,0,0
		c6.5,11.1,17.4,9.7,16.9,15.8c-0.5,1.2-1.6,0.9-2.5,0.9c-5.1-0.4-9.9,1.5-14.7,3.1c-6.7,1.7-13.3-2.8-20.2-1.7
		c-1-0.8-1.9-1.5-3-2.4c-1.7,0.7-3.3,1.4-5.2,2.3c-1.8-1.1-4.4-0.9-6.3-2.7C488.3,567,485.8,557.9,489.2,549.2z M521.6,561.6
		c-2.5,1.4-9.6,2.7-7,6.4c3-1.5,6.6-2.4,8.2-5.3C522.4,562.3,522,561.9,521.6,561.6z M525.5,567.1c-1.4-2.5-6.3-1.1-5.7,1.6
		C522,569.3,523.7,568.8,525.5,567.1z"/>
	<path fill="#977264" d="M386.6,135.6c-0.7-1-1.4-2-2.1-3c0.4-0.1,0.7-0.2,1.3-0.3c-0.8-1-1.5-1.8-2.1-2.5
		c13.8,2.4,16.2,23.1,28.5,27.7c-2,5.3-7.2,11.3-13.3,10.6c-1.1-2.4-1.6-5.2-3.5-7.2c-1.4-1.2-1.1-5.1-3.6-4.7
		c-5.1-0.3-10.2-1.3-15.4-1.1c-35.9-5.4-72.1-10.2-104.1-28.2c0-0.2,0-0.4,0-0.6c3.9,0.2,0.8-3-0.9-0.8c-6,4-11.7,2.7-18.2,1.4
		c3.6-1.7,8.2-0.8,12.6-1.6c5.4-4,15.3-1.9,20.2,2.4c-2.9-0.1-4,0.3-6.6-0.8c0.7,1.4,0.9,1.4,2.2,1.5c0.1,0.4,0.1,0.7,0.2,1.2
		c10.8,4.3,22.2,9.5,34,9.1c3.1,0.1,6.7-0.9,8.8,2c-0.4,0.7-0.8,1.3-1.2,1.9c1.8,2.6,6.2,2.6,9.2,2.6c6.7-0.7,12.9,2.6,19.5,2.9
		c15.5,3,32.8,0.8,47.2,9.2c0.3-0.6,0.6-1.1,1-1.7c-0.4-1-0.9-2.1-1.3-3.2c2.1-1.2-0.3-4.4-2.2-4c0,0.5-0.1,0.9-0.1,1.2
		c-0.7-1.2-1.4-2.5-2.1-3.7c2.4-1-1.2-4.6-2.2-2.8c-0.7-0.7-1.4-1.5-2.2-2.2c0.4-0.1,0.9-0.1,1.4-0.2
		C391.1,138,389.4,134.1,386.6,135.6z M278,127.2c-0.6-1.8-0.6-1.8-2.2-1.9C276.3,126.5,276.6,126.4,278,127.2z M401.9,154.6
		c-0.1,0.1-0.3,0.2-0.4,0.3c0.2,0.4,0.5,0.1,0.8,0C402.1,154.8,402,154.7,401.9,154.6z"/>
	<path fill="#977264" d="M608,133.4c-17.5,8-36,13.3-55.3,12.3c-17,0.1-32.7,8.3-49.6,8.1c-0.5-0.6-0.9-1.1-1.3-1.6
		c-1.1,1-2.1,1.8-3.3,2.9c-0.9-1-1.7-1.9-2.6-2.8c0-0.2,0-0.5,0-0.7c4.5-2.1,8.6-4.7,14-3.5c0.1,0.4,0.3,0.8,0.3,1
		c17.4-2.5,36.2-5.2,51.2-15.2c0,2.7,0.6,5-1.3,6.9c-0.1-0.4-0.3-0.8-0.4-1.3c-1.9,1.1-3.8,1.3-4.8,3.1c1.7,0.9,3,0,4.4-0.9
		c24.2,2.8,45.5-15.2,69.2-16.2c-0.2,1.2,0.5,1.4,1.4,1.5c-0.3,0.5-0.5,0.9-0.8,1.4C621.8,128.8,614.8,131,608,133.4z M506.6,149.7
		c-1.4-0.5-2.1-0.3-2.5,0.8C505.3,150.7,505.3,150.7,506.6,149.7z"/>
	<path fill="#977264" d="M458.6,114.5c-7,2-15.3,0.8-19.3-5.8c-3,6.2-7.5,10.1-14.2,11.6c-0.5-1.2-1-2.3-1.5-3.3
		c10.6-7.1,11.3-14.8,11.1-27.1c1.2-1.8,0.4-3.1,0.9-5.6c2.1,5.4,4.1,9.8,9.4,12c0.3-0.4,0.4-0.5,0.5-0.7c1.6,1.3,4.2,1.8,5.1,3.7
		c-0.2,0.2-0.4,0.5-0.6,0.7c2.9,2.9,6.5,4.7,9.9,6.6C459.1,109.1,458.8,111.8,458.6,114.5z"/>
	<path fill="#EADCB7" d="M489.2,549.2c-3.3,8.7-0.8,17.9-1.4,27c1.9,1.8,4.5,1.6,6.3,2.7c1.9-0.8,3.5-1.5,5.2-2.3
		c1.1,0.8,2,1.6,3,2.4c6.9-1.2,13.5,3.4,20.2,1.7c4.7-1.6,9.6-3.5,14.7-3.1c0.9,0.1,2,0.3,2.5-0.9c0.5,1.9,1.6,3.6,1.3,5.6
		c-11.6,6.3-26.8,6.4-38.6,0.4c-1.9-1-3.8-1.4-5.9-0.6c-5,1.6-10.1-1.1-15.2-1.7c5-11.1,1.3-23.1,5.6-34.5
		C488.5,547,488.5,547,489.2,549.2z M539.9,580c-3.9-1.7-11.8-1.7-13.7,2.9c0.4,0.4,0.7,0.7,1,0.9c2.4-1.4,4.3-3,7.3-2.7
		C536.7,581,538.2,581.5,539.9,580z"/>
	<path fill="#E6CCBB" d="M478.3,191.6c-1.6,0-2.5-1.3-3.6-2.2c0.2-0.3,0.4-0.6,0.6-1c-1.2-0.4-2.2-0.9-2.9,0.3
		c-1,0.1-1.4-0.3-0.9-1.3c-0.8-0.6-1.7-1.2-2.6-1.9c-0.7-4.4,2.4-7.3,5.7-10c11.4,9.8,12.5,13.1,28.3,11c-1.7,4-5.3,6.6-9.4,8
		c-0.7-1.6-2.8,0.1-3.7-1.4c1.7-0.2,2.1,0.1,3.5-1.5c-4.2,0.3-8.4-1.3-11.4,0.6C480.8,192.3,479.3,192.7,478.3,191.6
		c0.7,0,1.4,0,2.1,0c0-0.2,0.1-0.3,0.1-0.5c-0.8-0.3-1.7-0.7-2.9-1.2C478,190.8,478.1,191.2,478.3,191.6z"/>
	<path fill="#928F9E" d="M440.4,44.6c6-6.7,19-9.7,26.4-4c-7.6,0.3-16.2,1.1-22.5,6.3C443,46.1,441.7,45.3,440.4,44.6z"/>
	<path fill="#8E8791" d="M440.4,44.6c1.3,0.8,2.6,1.5,3.8,2.3c-4.6,5.1-8.5,11.1-9.8,18c-0.8,0.6-0.7,1.5-0.7,2.3l0,0
		c-0.7-0.2-1.5-0.4-2.2-0.6C431,59.1,434.7,49.7,440.4,44.6z"/>
	<path fill="#8A6D60" d="M498,544.9c-0.7,2.6-2.2,4.3-4.3,5.7c-3.1-1.4-2.1-3.9-2-6.4C493.9,544.5,495.9,544.7,498,544.9z"/>
	<path fill="#28201D" d="M431.7,66.4c0.7,0.2,1.5,0.4,2.2,0.6c0.5,1,0.9,2,1.4,3.1c-0.3,0-0.6,0-1.3,0.1c0.6,0.6,0.9,0.9,1.2,1.2
		c0.1,0.2,0.1,0.4,0.1,0.6c-3.3-0.3-4.2,3.6-1.4,5.2c-0.7,0-1.5,0-2.2,0.1l0,0c0-0.3,0-0.6-0.1-0.9c-0.2-0.2-0.4-0.4-0.7-0.6
		c-0.2-1.9,0.8-3.4,2.3-4.8c-1.1-0.9-2-1.7-3-2.5C430.7,67.8,431.2,67.1,431.7,66.4z M432.6,67.9c-0.3,0.2-0.5,0.3-0.6,0.3
		c0.2,0.4,0.4,0.7,1,0.5C432.9,68.5,432.8,68.2,432.6,67.9z"/>
	<path fill="#1B1311" d="M438.9,91.2c-1.9-1.7-1.9-4.2-3.4-7c-0.5,2.5,0.4,3.8-0.9,5.6c0-2.3,0-4.5,0-6.8c0.2,0,0.5,0,0.7-0.1
		c0.6,0.4,1-0.3,1.4-0.7c0.3,0,0.5,0,0.8,0c-0.1,2.9,1.2,5.4,2.3,8C439.5,90.6,439.2,90.9,438.9,91.2z"/>
	<path fill="#6F5349" d="M432.5,80.8c-2.6-2.6-5.5-6.4-3-10.1c1.7,0.4,1.8,0.8,0.7,2.2c-0.9-1.2-1.1,2.6,0,2.9l-0.1-0.1
		c0.3,0.3,0.5,0.5,0.8,0.8l0,0c0.2,0.3,0.5,0.5,0.7,0.8l0,0C431.9,78.4,433.9,80.1,432.5,80.8z"/>
	<path fill="#8B6B5E" d="M435.4,83c-0.2,0-0.5,0-0.7,0.1c-0.2-0.2-0.5-0.4-0.7-0.7c0.5-1.8,0-3.5-0.8-5.1c0.2,0,0.5,0,0.7,0
		c0.9,0.5,1.8,1.1,2.9,0.7C436.3,79.7,435.9,81.3,435.4,83z"/>
	<path fill="#816458" d="M430.2,72.9c1.1-1.4,1-1.8-0.7-2.2c0-0.8-0.2-1.7,0.7-2.2c1,0.8,1.9,1.6,3,2.5c-1.4,1.5-2.4,2.9-2.3,4.8
		l0,0c-0.3,0-0.5,0-0.8,0l0.1,0.1C430.3,74.9,430.3,73.9,430.2,72.9z"/>
	<path fill="#252320" d="M476.1,153.9c1.1-1.2,1.8-2.8,3.4-3.5c0.2-0.1,0.2-0.6,0.3-1c0.5,0.2,0.9,0.5,1.4,0.7
		c-0.7,2.6-2.5,3.9-5,4.5C476.1,154.3,476.1,154.1,476.1,153.9z"/>
	<path fill="#161413" d="M394.6,317.5c1.6,4.4,0.3,9.4,0.6,14C393.6,327.2,395,322.1,394.6,317.5z"/>
	<path fill="#271D1A" d="M463.7,153.7c-0.4-1.8-0.8-3.6-1.3-5.8c1.8,1.2,2.6,2.6,2.8,4.4C464.7,152.8,464.2,153.3,463.7,153.7z"/>
	<path fill="#A5B19A" d="M511.8,553.4c-0.7-0.2-1.5-0.4-2.2-0.7c1.8-0.7,3.6-0.9,5.6-1.2c0.1,0.2,0.2,0.5,0.5,1
		C514.3,553,513.2,553.6,511.8,553.4z"/>
	<path fill="#2A1C19" d="M433.1,77.3c0.8,1.6,1.4,3.2,0.8,5.1c-0.8-0.2-1.3-0.7-1.5-1.5c1.4-0.7-0.6-2.5-0.8-3.5
		C432.2,77.3,432.7,77.3,433.1,77.3z"/>
	<path fill="#816458" d="M435.2,71.5c-0.3-0.3-0.7-0.7-1.2-1.2c1.3-0.2,1.8,0.1,2.9,0.5C436.5,71.6,435.8,71.5,435.2,71.5z"/>
	<path fill="#A5B19A" d="M508.2,552.9c-0.8,1-2,0.7-3,0.6C506.1,552.7,507.1,552.7,508.2,552.9z"/>
	<path fill="#7A8A8A" d="M398.1,33.2c0.3-0.4,0.6-0.7,1-1.1C399.8,33.1,399,33.3,398.1,33.2z"/>
	<path fill="#4C5555" d="M395.1,44.2c-0.4,0.3-0.6,0.6-1.1,1C393.8,44.1,394,43.7,395.1,44.2z"/>
	<path fill="#28201D" d="M433.9,67.1c0-0.8-0.2-1.7,0.7-2.3C434.5,65.6,435,66.6,433.9,67.1z"/>
	<path fill="#676464" d="M429.5,5.1c-0.6,0-0.9-0.1-1.1-0.1C428.8,4.5,428.8,4.4,429.5,5.1z"/>
	<path fill="#977264" d="M425.2,121c0.8,0.3,0.7,1,0.6,1.6C425.2,122.2,425.1,121.7,425.2,121z"/>
	<path fill="#A5B19A" d="M508.9,554.2c0.3-0.7,0.9-0.8,1.5-0.5C510,553.9,509.4,554,508.9,554.2z"/>
	<path fill="#D69479" d="M456.6,317.1c0.2-0.3,0.5-0.6,0.7-0.9C457,316.5,456.8,316.8,456.6,317.1z"/>
	<path fill="#D69479" d="M457.2,316.2c0.3-0.2,0.5-0.5,0.8-0.7C457.8,315.7,457.5,316,457.2,316.2z"/>
	<path fill="#1B1815" d="M522.7,560.9c-0.2-0.3-0.5-0.5-0.7-0.8C522.2,560.4,522.5,560.6,522.7,560.9z"/>
	<path fill="#1B1815" d="M523.4,561.6c-0.2-0.3-0.5-0.5-0.7-0.8C522.9,561.1,523.2,561.4,523.4,561.6z"/>
	<path fill="#F7EFD0" d="M387.2,562.8c4-4.8,5.1-11.4,6.3-17.6c1.7-1.3,4-1.6,6.3-2.3c2.8,2.8,4.7,6.2,8.2,8.1
		c1.4,8.7,7.5,15.8,10.8,23.9c1.7,6.3,11.4,9.4,8,16.5c-15.5-3.7-16.9,4.2-34.7-0.2c-2.5-2.9,0.3-7.4-4.7-8.3
		C386.3,576.2,387.6,569.7,387.2,562.8z M404.8,559.4c-0.7-0.3-1.8,0.3-2.2-0.8c1.7-0.6,3.4-1.2,5.1-1.7c1.1-6-18.8,3.6-10.9,6
		c0.3,1.5-0.6,3.9,1.9,3.8c1.9-4.2,5.9-4.3,9.5-4.7C409.8,559.5,406.3,559.6,404.8,559.4z M410.7,565.9c-0.8-4.4-15.1,2-11.4,4.7
		C402.9,569.1,406.5,567.6,410.7,565.9z M411.6,569.9c-1.7-1-13.2,3.1-9.2,5.5C405.4,573.6,410.3,573.5,411.6,569.9z M403.8,578.8
		c3,0.7,8.3-0.5,9.9-3.2C410.7,574,405.1,575.5,403.8,578.8z"/>
	<path fill="#EADCB7" d="M387.2,562.8c0.4,6.9-0.9,13.4,0.2,20.1c5,0.8,2.2,5.4,4.7,8.3c17.7,4.4,19.2-3.5,34.7,0.2
		c-0.1,0.3-0.2,0.6-0.3,0.9c-3.8-0.4-7.5-1.2-11.5-0.8c-0.9,0.7-1.9,1.5-2.9,2.3c-0.9,3.8,6.3-2.6,13.8,0.6
		c-11.8,3.5-24.2,3.5-36.3,1.2c-1.1-3.1-0.2-6.8-2.8-9c-0.3,1.2-0.5,2.1-0.8,3.2c-1.7,0.3-3.3-0.3-5.1-0.5c3.4-9.3,2.3-18.4,2.5-28
		C384.9,562.4,385.6,562.9,387.2,562.8z"/>
	<path fill="#73564B" d="M387.5,558.5c-1.4-1.5-1.3-2.2,0.8-4.6C389,556,389,556,387.5,558.5z"/>
	<path fill="#B28C7D" d="M560,140.7c1.9-1.9,1.2-4.1,1.3-6.9c-15,10.1-33.8,12.7-51.2,15.2c-0.1-0.2-0.2-0.6-0.3-1
		c-5.3-1.2-9.5,1.4-14,3.5c-0.5-0.6-1-1.3-1.7-2.1c3.6-5.5,8.6-9.6,13.6-13.9c-1.4-7.9-13.8,6.3-17.2,7.3c-4-7-10-12.2-15.7-17.8
		c9.5-7.2,21.4-2.4,32.2-0.8c0.2,0.2,0.7,0.9,1.4,1.7c2.2,0.5,4.9,1.1,7.2,1.6c0.4,0.5,0.7,1,1.2,1.6c23.5-1.4,45.8-9.2,69.3-9.7
		c13.4,0.7,26.6-1.8,40-1.4c9.8,1.3,19.8,3.5,29.7,1.6c2.3,0.9,2.7,4.1,5.4,4.3c7.4,0.6,13.7,3.3,20.9,5.6c-2.3,4-22.1-2.3-26.9-3.4
		c-1.2-1.4-5.3-2.9-6.4-1.3c5.2,1.7,9.3,4.2,14.8,5c-2,3.6-7.4-0.3-10.6,0l0,0c-5.2-4.3-12.8,3.1-17.2-4.4
		c-26.7-2.6-49.9,19-76.7,16.2C559.5,141.3,559.8,141,560,140.7z M566.6,133.7c-1.8,0.6-3.2,1.8-4.1,3.7
		C565.6,137.8,565.6,135.1,566.6,133.7z M647.9,123.5c-0.8-0.5-1.6-0.5-2.5,0C647.1,124.9,647.1,124.9,647.9,123.5z"/>
	<path fill="#957063" d="M490.6,142.9c4.6-1.4,11.4-12.2,16.9-8.8c-1,0.4-2.3,1.7-0.7,2.3c-0.8,0.7-1.5,1.3-2.3,2
		c0-0.4,0.2-1-0.4-1.3c-2.4,0.4-3.5,1.1-3.1,3.2c0.5,0.1,0.9,0.1,1.2,0.1c-1.4,1.3-2.6,2.8-4.3,3.8c0.2-0.8,0.5-1.6,0.7-2.4
		c-2.1-1.2-3.8,3.1-5.6,4.2C491.8,145.5,491,144.3,490.6,142.9z"/>
	<path fill="#3B2824" d="M459.9,106.6c-3.4-1.9-7-3.7-9.9-6.6c0.2-0.2,0.4-0.5,0.6-0.7c3.3,2.4,6.7,4.6,10.3,6.4
		C460.6,106,460.2,106.3,459.9,106.6z"/>
	<path fill="#F5DDCE" d="M474.7,128.2c-0.2-0.1-0.3-0.2-0.5-0.2C474.7,127.6,474.7,127.9,474.7,128.2L474.7,128.2z"/>
	<path fill="#3A231F" d="M271.4,125.3c0.6-1.6,4.3-0.2,2.2,0.7C273.1,125,272.2,125.5,271.4,125.3z"/>
	<path fill="#3A231F" d="M272.3,126.2c-0.1,0.2-0.1,0.4,0,0.6c-0.2-0.1-0.4-0.2-0.6-0.3C271.9,126.4,272.1,126.3,272.3,126.2z"/>
	<path fill="#3A231F" d="M270,126.1c0.3-0.2,0.5-0.4,0.8-0.5C270.5,125.7,270.2,125.9,270,126.1z"/>
	<path fill="#8E7669" d="M219.7,124.6c4.4-1.5,8.5-4,13.2-4.3c0,0.2,0,0.4,0,0.6c-3.8,1.1-7.3,3.4-11.3,3.6c-0.3,0.8-0.3,2.6-1,1.6
		C220.5,125.5,220.5,124.8,219.7,124.6z"/>
	<path fill="#1A0F0E" d="M245.3,123.3c2.8-1.1,5.7-1.2,8.6-1.7c0.3,0.3,0.6,0.5,0.8,0.8c-2.7,1.7-6.3,0.8-9.4,1.5
		C245.3,123.7,245.3,123.5,245.3,123.3z"/>
	<path fill="#252525" d="M245.3,123.9c0.3,0,0.5,0.1,0.8,0.1c-1.3,1.5-3.5-0.3-4.7,1.3c-0.1-0.3-0.3-0.5-0.5-1
		C242.4,123.6,243.9,124.1,245.3,123.9z"/>
	<path fill="#6D6458" d="M232.8,120.9c0-0.4,0-0.9,0.2-1.3c0.9,0,1.8,0,2.8,0C235.1,120.6,233.8,120.3,232.8,120.9z"/>
	<path fill="#A27D6F" d="M219.7,124.6c0.8,0.2,0.8,0.9,0.8,1.5C219.3,125.6,219.2,125.4,219.7,124.6z"/>
	<path fill="#966E61" d="M633.4,125.4c0.8,0,1.7,0,2.4,0c4.4,7.5,12,0.1,17.2,4.4C645.9,132.4,638.3,131.8,633.4,125.4z"/>
	<path fill="#45302B" d="M654.6,126.8c-1.9-0.6-3.7-1.3-5.7-2c1.2-1.6,5.1-0.1,6.4,1.3C655,126.4,654.8,126.6,654.6,126.8z"/>
	<path fill="#966E61" d="M653.1,129.8c3,0.2,5.8,1.5,8.9,1.5C659.1,132.7,655.6,131.5,653.1,129.8z"/>
	<path fill="#553C34" d="M629,128.2c0.8-1.9,2.5-3.1,4.2-1.1C631.8,127.9,630.5,127.5,629,128.2z"/>
	<path fill="#8C6C5F" d="M463,95.5c-1.1-0.4-0.7-1.3-0.8-2.1c4.1,0.6,8.1-0.4,12.1,0c0.4,4.9-5.5,3.9-8.3,2.5
		C465.1,95.6,463.9,94.3,463,95.5z"/>
	<path fill="#8C6B5E" d="M475.4,91.1c-3.2,1.4-8.5,2.4-11.7,0.7l0,0c1.7-0.7,3.5-1.4,5.5-2.2c1.2,0.2,2.7,1.2,4,0
		C474.1,90.2,474.8,90.7,475.4,91.1C475.4,91.2,475.4,91.1,475.4,91.1z"/>
	<path fill="#775D53" d="M476.1,92.6c0.2,0.8,0,1.6-0.1,2.5C475.4,94.1,474.9,93.2,476.1,92.6z"/>
	<path fill="#775D53" d="M476.2,91.8c0.2,0,0.3,0,0.5-0.1c-0.2,0.3-0.4,0.6-0.6,0.9C476.1,92.3,476.2,92.1,476.2,91.8z"/>
	<path fill="#8C6B5E" d="M462.4,91.8c0.2,0,0.4,0,0.6,0c-0.1,0.2-0.2,0.3-0.3,0.5C462.6,92.2,462.5,92,462.4,91.8z"/>
	<path fill="#8C6B5E" d="M463,91.8c0.2-0.2,0.5-0.5,0.7-0.7c0,0.3,0,0.5,0,0.8c0,0,0,0,0,0C463.5,91.8,463.3,91.8,463,91.8z"/>
	<path fill="#382825" d="M247.4,116.6c-0.3,0.6-0.8,0.7-1.4,0.6C246.3,116.6,246.9,116.6,247.4,116.6z"/>
	<path fill="#382825" d="M245.4,117.4c-0.3,0.2-0.6,0.4-0.8,0.6C244.8,117.8,245.1,117.6,245.4,117.4z"/>
	<path fill="#382825" d="M248.2,115.9c-0.2,0.2-0.5,0.5-0.7,0.7C247.7,116.4,247.9,116.2,248.2,115.9z"/>
	<path fill="#382825" d="M248.9,115.2c-0.2,0.3-0.5,0.5-0.7,0.8C248.4,115.7,248.7,115.4,248.9,115.2z"/>
	<path fill="#342C28" d="M472.4,70.1c0.8-0.7,1.6-1.4,2.3-2.2c0,0.3,0,0.5,0.1,0.8c0.2,0.2,0.5,0.5,0.7,0.7c0,0.2,0,0.5-0.1,0.7
		c-1.7-0.4-1.6,2.1,0.1,1.4l0-0.1c0.3,0.3,0.5,0.5,0.8,0.8l0,0c-1,1-2,0.1-3.3,0c-0.3,1-0.4,1.6-0.5,2.5c-0.8,0.1-1.1-0.3-1.2-1
		c1-0.6,0.5-1.6,0.8-2.4c0.1,0,0.2,0,0.2,0c-0.1-0.1-0.2-0.2-0.3-0.2C472.1,70.7,472.2,70.4,472.4,70.1z"/>
	<path fill="#0F0F0E" d="M474.7,68.6c0-0.3,0-0.5-0.1-0.8c0.8-1,1.9-0.6,2.9-0.6C477,68.5,475.9,68.6,474.7,68.6z"/>
	<path fill="#0F0F0E" d="M475.4,70c0-0.2,0-0.5,0.1-0.7c1,0.5,0.6,1.4,0.7,2.1l-0.1,0.1c-0.2-0.1-0.4-0.1-0.7-0.1l0,0.1
		C475.4,71,475.4,70.5,475.4,70z"/>
	<path fill="#0F0F0E" d="M478.7,69.7c-0.3,0.1-0.6,0.4-0.8,0C478.2,69.5,478.5,69.2,478.7,69.7z"/>
	<path fill="#0F0F0E" d="M476.9,72.2c-0.2,0-0.5,0-0.7,0l0,0c0-0.2-0.1-0.5-0.1-0.7l0.1-0.1C476.4,71.7,476.6,71.9,476.9,72.2z"/>
	<path fill="#120908" d="M476.9,64.9c-0.8,0.3-1.5,0.5-2.6,0.9c-0.3-2.8,4.3-4.3,6.1-2.6C480.1,65.2,477.6,63.2,476.9,64.9z"/>
	<path fill="#D69479" d="M491.6,420.1c-4.6-1.5-9.8-3.8-8.6-10.1c0.9-0.5,1.9-1,2.9-1.6c6.4,2.6,3.8,5.3,7,8.8
		C491.3,417.8,491.2,417.9,491.6,420.1z"/>
	<path fill="#D29177" d="M418.5,411.6c-5.9-0.7-5.2-14.7,0.8-8.8c-0.4,0.1-0.9,0.2-1.4,0.3c-0.3,2.9-0.1,5.6,0.8,8.3L418.5,411.6z"
		/>
	<path fill="#241A16" d="M416.9,455.2c1,3.5-1.3,7.7-3.9,10.4C413,462.5,414.4,456.6,416.9,455.2z"/>
	<path fill="#CB8C73" d="M420.8,413c-0.8-0.5-1.5-0.9-2.3-1.4l0.2-0.2c0.3,0,0.7-0.1,1.2-0.1c0-2.3,0-4.7,0-7c1.9,2,2.7,5.3,2.9,8.2
		C422,412,421.3,412.1,420.8,413z"/>
	<path fill="#201511" d="M420,404.3c0,2.3,0,4.6,0,7c-0.6,0.1-0.9,0.1-1.2,0.1c-0.9-2.6-1.1-5.3-0.8-8.3c0.5-0.1,1-0.2,1.4-0.3
		C419.5,403.3,419.7,403.8,420,404.3z"/>
	<path fill="#271C18" d="M499.2,405.1c0.4,3.2-1,5.9-3.3,8.6c-0.6-3.1,1.2-6,2.5-8.7C498.7,405,499,405.1,499.2,405.1z"/>
	<path fill="#402E27" d="M487.7,454.5c0.1-0.4,0.1-0.9,0.2-1.3c2.2-0.1,1.8,1.9,2.7,2.7c-0.1,0.9,0.4,1.9-0.6,2.7
		C488.4,457.7,488.7,455.7,487.7,454.5z"/>
	<path fill="#B17C69" d="M433.9,304.5c3.1,1,5.9,2.5,8,5.1l-0.1,0.1c-2.2-0.2-3.6-1.8-5.3-2.9C435.6,306.1,434.2,305.9,433.9,304.5
		L433.9,304.5z"/>
	<path fill="#090403" d="M411.6,472.1c-1.2-1.6-0.8-2.9,0-4.7C413.2,468.7,413.2,470.7,411.6,472.1z"/>
	<path fill="#342621" d="M492.3,467.6c-1.6-1.1-1.7-2.8-2.4-4.4C492.3,463.7,493,465.1,492.3,467.6z"/>
	<path fill="#160F0C" d="M420.8,413c0.5-0.9,1.2-1,2-0.5c0.1,1.2,0.6,2.5-0.1,3.9c-0.4-0.2-0.8-0.4-1.2-0.5
		c-0.2-0.8-0.5-1.5-0.7-2.3C420.9,413.4,420.9,413.2,420.8,413z"/>
	<path fill="#36231E" d="M462.3,313.2c-0.6,0.5-1.2,0.9-2.1,1.5c-0.1-0.7-0.1-1.1-0.2-1.5c0.9-1,1.6-2.3,3-2.9
		C463.7,311.6,462.5,312.3,462.3,313.2z"/>
	<path fill="#0F0B09" d="M408.8,478.6c1.3,1.4,1.3,1.4-0.1,3.4C408,480.6,408,480.6,408.8,478.6z"/>
	<path fill="#5A3E35" d="M442,314.6c1.2,0.7,2.4,1.3,3.9,2.2c-2,0.1-2,0.1-4.7-1.4C441.4,315.1,441.7,314.9,442,314.6z"/>
	<path fill="#9B6B5B" d="M442,314.6c-0.3,0.3-0.5,0.5-0.8,0.8c-0.9-0.5-2.1-0.7-2.7-1.9C440,313,441,313.7,442,314.6z"/>
	<path fill="#45322A" d="M491.6,420.1c-0.4-2.2-0.3-2.3,1.3-2.9C493,418.5,493,419.6,491.6,420.1z"/>
	<path fill="#4B3028" d="M491.3,470.5c1.7,0.8,1.7,0.8,1.4,2.2C491.6,472.6,491.8,471.7,491.3,470.5z"/>
	<path fill="#B17C69" d="M441.9,309.6c1.1,0,1.8,0.5,2.1,1.5l0,0C443,311.1,442.3,310.6,441.9,309.6L441.9,309.6z"/>
	<path fill="#80574B" d="M492.9,476.3c0.6,1,0.6,1.2-0.3,1.4C492,477.2,492.4,476.8,492.9,476.3z"/>
	<path fill="#CB8C73" d="M420.9,413.6c0.2,0.8,0.5,1.5,0.7,2.3C420.4,415.4,420.8,414.4,420.9,413.6z"/>
	<path fill="#B17C69" d="M433.9,304.5c-0.3-0.1-0.7-0.1-1.1-0.2C433.4,303.5,433.6,304,433.9,304.5L433.9,304.5z"/>
	<path fill="#B17C69" d="M444.1,311.1c0.2,0.1,0.3,0.2,0.5,0.3C444.4,311.2,444.3,311.1,444.1,311.1L444.1,311.1z"/>
	<path fill="#E6CCBB" d="M428.7,271c-1-1.4-0.4-3-1.2-4.5c1.3-0.8,0.6-2.2-0.8-2c-1.1-2.6-1-2.7,1.4-3.7c9.3,7.3,13,19.7,15.8,30.5
		c-4.1-1.6-5.9-6.3-9.2-8.9c1.3-1.2-0.1-2.8-1.2-3.8c-0.2,0.5-0.3,0.8-0.4,1.2c-1.5-2.3-1.2-5.4-3.6-7.3c1.6-0.2,1.1-3-0.7-2.9
		C428.8,270.1,428.7,270.6,428.7,271z"/>
	<path fill="#0E0A09" d="M420.7,178.5c7.3,12.2,22.6,9.6,34.7,9.1c0.1,0.3,0.1,0.7,0.2,1C446.1,192.5,420.3,191.9,420.7,178.5z"/>
	<path fill="#352E2B" d="M483,279.5c-0.3-2.8,1.2-8.2,3-10.5C487.2,272.5,485,276.6,483,279.5z"/>
	<path fill="#352522" d="M482.1,192.3c3.1-1.9,7.2-0.3,11.4-0.6C490.4,194.8,485.9,192.2,482.1,192.3z"/>
	<path fill="#1F1917" d="M477.2,234c1.1,1.6,0.8,2.8,0.2,4.1C475.8,236.4,475.8,236.2,477.2,234z"/>
	<path fill="#38312E" d="M479,242.6c0.4,1.8,1.4,3.5,0.4,5.8c-0.9-1.7-1-3.3-1.3-4.9C478.4,243.2,478.7,242.9,479,242.6z"/>
	<path fill="#4A3C37" d="M433.1,279.7c0.1-0.3,0.2-0.7,0.4-1.2c1.1,1,2.6,2.7,1.2,3.8C434.2,281.5,433.7,280.6,433.1,279.7z"/>
	<path fill="#5E544E" d="M480.9,283.1c0.5,1.2-0.1,1.9-0.9,2.5c-0.3-0.2-0.5-0.4-0.8-0.5C479.4,284,479.8,283.2,480.9,283.1z"/>
	<path fill="#4B3430" d="M458,187.1c-0.2-0.3-0.4-0.5-0.7-0.8c1.5-1.7,1.5-1.7,2.8-0.6C459.5,186.3,458.8,186.7,458,187.1z"/>
	<path fill="#352C29" d="M428.7,271c0.1-0.4,0.1-0.9,0.2-1.4c1.8-0.1,2.3,2.6,0.7,2.9C429.2,272,428.9,271.5,428.7,271z"/>
	<path fill="#584440" d="M477.1,290.4c-0.7-1.5,0.2-1.8,1-2.5C478.7,289.1,478.2,289.8,477.1,290.4z"/>
	<path fill="#7D4641" d="M472.5,188.7c0.7-1.2,1.7-0.8,2.9-0.3c-0.2,0.4-0.4,0.7-0.6,1C473.9,189.2,473.2,189,472.5,188.7z"/>
	<path fill="#867970" d="M478,227.7c-1.1-0.1-1.4-1.7-0.2-1.8C478.7,226.4,478.4,227.1,478,227.7z"/>
	<path fill="#9C8C83" d="M478.6,222.8c-2.2,0.1-1.6-0.9-1.4-1.7C477.6,221.5,478,221.9,478.6,222.8z"/>
	<path fill="#7F7069" d="M479,242.6c-0.3,0.3-0.6,0.6-0.9,0.8c-0.7-0.8-0.8-1.7-0.4-2.7C478.6,241.1,478.9,241.8,479,242.6z"/>
	<path fill="#715E56" d="M426.6,264.5c1.4-0.1,2.1,1.3,0.8,2l0,0c-0.2-0.3-0.5-0.5-0.7-0.8C426.6,265.4,426.6,264.9,426.6,264.5z"/>
	<path fill="#89645E" d="M477.2,232.3c-0.1-0.1-0.2-0.2-0.2-0.2c0.2-0.3,0.3-0.2,0.5,0C477.4,232.1,477.3,232.2,477.2,232.3z"/>
	<path fill="#E6CCBB" d="M426.6,265.8c0.2,0.3,0.5,0.5,0.7,0.8C427.1,266.3,426.9,266.1,426.6,265.8z"/>
	<path fill="#130C0B" d="M383.6,129.7c0.6,0.8,1.3,1.5,2.1,2.5c-0.6,0.1-0.9,0.2-1.3,0.3c-3.1-2.5-7.1-3.6-10.2-5.8l0,0.1
		C377.6,124.5,380.7,128.1,383.6,129.7z"/>
	<path fill="#1E1513" d="M374.1,136c-4,1.7-7.9,1-12.5,0.9c3.2-2.5,7.1-0.5,10.7-2C372.9,134.7,373.8,134.6,374.1,136z"/>
	<path fill="#201614" d="M386.6,135.6c2.9-1.5,4.5,2.4,5,4.8c-0.5,0.1-0.9,0.1-1.4,0.2C389,138.9,387.8,137.2,386.6,135.6z"/>
	<path fill="#4B2F2A" d="M254.7,122.4c-0.3-0.3-0.6-0.5-0.8-0.8c2.5-1.6,5.6-3.8,8.7-2.3C259.5,119.4,257.2,121.1,254.7,122.4z"/>
	<path fill="#201513" d="M396.7,149.4c0-0.3,0-0.7,0.1-1.2c1.9-0.4,4.3,2.8,2.2,4C398.2,151.3,397.5,150.3,396.7,149.4z"/>
	<path fill="#1F1715" d="M392.4,142.8c1-1.8,4.6,1.9,2.2,2.8C393.9,144.7,393.1,143.8,392.4,142.8z"/>
	<path fill="#241714" d="M374.2,126.8c-1.2,0.1-2.6,0.6-3.6-0.7C372.1,125.2,372.1,125.2,374.2,126.8L374.2,126.8z"/>
	<path fill="#4F3732" d="M353.6,135.6c0.9,0,1.7,0,3,0C355.4,136.7,354.5,136.3,353.6,135.6z"/>
	<path fill="#665048" d="M321.8,127.2c-0.7,0.1-1.2,0.2-1.8,0.3C319.9,125.9,321.4,125.7,321.8,127.2z"/>
	<path fill="#442B26" d="M281.6,128.2c-1.3-0.1-1.4-0.1-2.2-1.5c1.1,0.4,1.7,0.6,2.3,0.8C281.7,127.8,281.7,128,281.6,128.2z"/>
	<path fill="#977264" d="M383.6,132.1c0.3,0.2,0.5,0.3,0.8,0.5C384.1,132.4,383.9,132.3,383.6,132.1z"/>
	<path fill="#302925" d="M420.7,178.5c-0.7,0.2-0.6,0.9-0.7,1.4c-1-1.7-2-3.3-3-5c0.3-0.3,0.6-0.6,0.9-0.9
		C419.5,175.2,420,176.9,420.7,178.5z"/>
	<path fill="#3E3632" d="M415,170.6c-0.3-0.6-0.7-1.2-1.1-2C415.5,168.5,415.5,168.5,415,170.6z"/>
	<path fill="#65504A" d="M417.9,174.1c-0.3,0.3-0.6,0.6-0.9,0.9c-0.7-0.6-1.1-1.2-0.2-2.3C417.2,173.2,417.6,173.7,417.9,174.1z"/>
	<path fill="#6E5D55" d="M462.3,184.3c-0.2-0.1-0.3-0.2-0.5-0.3c0.1-0.1,0.2-0.2,0.3-0.3C462.1,184,462.2,184.2,462.3,184.3
		L462.3,184.3z"/>
	<path fill="#140E0D" d="M452,72.1c-0.6-1.2-1.2-2.2-1.8-3.5c4.7-1.2,12.9-4,13.3,3.5C460.2,73.3,455.4,73.3,452,72.1z M456.3,72.2
		c0-1.1,0-1.8,0-2.7c-1,0.3-1.8,0.5-3,0.9C454.5,71.1,455.3,71.6,456.3,72.2z M460.7,70.2c-0.1-0.2-0.1-0.4-0.2-0.6
		c-0.4,0.1-0.2,0.4-0.2,0.7C460.4,70.3,460.6,70.3,460.7,70.2z"/>
	<path fill="#20110F" d="M450.7,63.6c4.8-2,11.3-2.5,15,1.8c-0.7,0.8-1.6,0.5-2.3,0.1c-2.6-1.5-5.6-1.2-8.4-1.8
		C453.7,63.4,451.6,65.2,450.7,63.6z"/>
	<path fill="#46342F" d="M465.7,86.1c-0.8-0.4-1.6-0.7-2.5-1.1c-0.2-1.9-1-2.8,1.5-4c0,1.1,0,2.2,0,3.7c1.2-0.7,2.1-1.2,3.1-1.7
		c0.6,0.4,1.2,0.7,1.8,1.1C468.2,84.8,467.1,85.4,465.7,86.1z"/>
	<path fill="#32221F" d="M463.7,91.9c0-0.3,0-0.5,0-0.8c2.8-1.7,10.4-4.7,11.7,0c-0.7-0.5-1.4-0.9-2.2-1.5c-1.3,1.2-2.8,0.3-4,0
		C467.2,90.5,465.5,91.2,463.7,91.9z"/>
	<path fill="#553F37" d="M438.9,91.2c0.3-0.3,0.6-0.6,0.9-0.9c1.9,1.7,3.8,3.5,5.7,5.2c-0.1,0.2-0.3,0.4-0.5,0.7
		C442.3,95.4,440.7,93.2,438.9,91.2z"/>
	<path fill="#2A1C19" d="M436.8,78c-1.8,0.5-3.2-1-4.3-2.1c0.4,0,0.7-0.1,1.1-0.1c0.6-0.9,0.3-2.4,1.8-2.8
		C435,74.9,436.4,76.2,436.8,78z"/>
	<path fill="#362924" d="M474.7,80.2c1.3,1.5,2.5,3.5,0.2,5c-1,0-2.2,0-3.9,0c1-0.8,1.8-1.4,2.5-1.9c0.6,0,1.1,0.8,1.8-0.1
		c-0.4-0.7-0.9-1.4-1.4-2.2C474.2,80.7,474.4,80.5,474.7,80.2z"/>
	<path fill="#816458" d="M435.3,72.9c-1.5,0.4-1.2,1.9-1.8,2.8c-0.4,0-0.8,0.1-1.1,0.1c-1.2-1.9,0.9-4,2.8-3.8
		C435.3,72.4,435.3,72.7,435.3,72.9z"/>
	<path fill="#2B1E1A" d="M472.4,70.1c-1,1,0,2.7-1.3,3.6c-0.3-2.1-0.4-4.1,1.5-5.9C473.2,68.7,472.4,69.4,472.4,70.1z"/>
	<path fill="#7D6156" d="M474.7,80.2c-0.3,0.3-0.5,0.5-0.8,0.8c-1-0.9-1.7-1.9-1-3.9C473.6,78.4,474.2,79.3,474.7,80.2z"/>
	<path fill="#52463E" d="M450.7,63.6c0.2,0.8,0.9,0.6,1.5,0.7c-0.8,1.1-2.1,0.7-3.1,1.2C447.8,64.2,449.9,63.9,450.7,63.6z"/>
	<path fill="#8B6B5E" d="M436.7,82.4c-0.2,0.2-0.4,0.4-0.7,0.6C436.3,82.8,436.5,82.6,436.7,82.4z"/>
	<path fill="#8B6B5E" d="M437.6,82.3c-0.3,0-0.5,0-0.8,0C437,81.7,437.3,81.7,437.6,82.3z"/>
	<path fill="#271815" d="M431.1,126c2.4-0.8,4.5-0.8,6.9,1.1C435.1,127.9,433.1,126.8,431.1,126z"/>
	<path fill="#2C2622" d="M441.2,127.9c0.9-0.7,1.8-0.6,2.6,0.1C443,129.4,442.2,129.4,441.2,127.9z"/>
	<path fill="#4D3833" d="M449.1,128.6c-1.2,1.1-1.2,1.1-2.5,0.3C447.6,127.4,447.6,127.4,449.1,128.6z"/>
	<path fill="#1B1815" d="M521.6,561.6c0.4,0.4,0.7,0.7,1.1,1.1c-1.6,2.9-5.1,3.8-8.2,5.3C512,564.3,519.2,563,521.6,561.6z"/>
	<path fill="#15110F" d="M525.5,567.1c-1.8,1.7-3.6,2.2-5.7,1.6C519.2,566,524.2,564.6,525.5,567.1z"/>
	<path fill="#362420" d="M278,127.2c-1.4-0.8-1.7-0.7-2.2-1.9C277.4,125.4,277.4,125.4,278,127.2z"/>
	<path fill="#553A33" d="M401.9,154.6c0.1,0.1,0.2,0.2,0.4,0.3c-0.3,0.1-0.6,0.3-0.8,0C401.6,154.8,401.8,154.7,401.9,154.6z"/>
	<path fill="#160F0D" d="M560,140.7c-1.4,1.4-3.3,2.8-5.3,1.8c1-1.8,3-2,4.8-3.1C559.8,139.9,559.9,140.3,560,140.7z"/>
	<path fill="#4F3932" d="M506.6,149.7c-1.2,1-1.2,1-2.5,0.8C504.5,149.4,505.2,149.2,506.6,149.7z"/>
	<path fill="#181310" d="M539.9,580c-1.7,1.5-3.3,1-5.3,1.2c-3-0.3-4.9,1.3-7.3,2.7c-0.3-0.3-0.6-0.6-1-0.9
		C528.1,578.3,536.1,578.3,539.9,580z"/>
	<path fill="#765A53" d="M478.3,191.6c-0.2-0.4-0.3-0.8-0.7-1.7c1.2,0.5,2.1,0.9,2.9,1.2c0,0.2-0.1,0.3-0.1,0.5
		C479.7,191.6,479,191.6,478.3,191.6L478.3,191.6z"/>
	<path fill="#654D44" d="M432.6,67.9c0.1,0.3,0.2,0.6,0.3,0.8c-0.5,0.2-0.7-0.1-1-0.5C432.2,68.2,432.4,68.1,432.6,67.9z"/>
	<path fill="#2A1C19" d="M431.7,77.3c-0.2-0.3-0.5-0.5-0.7-0.8c0.2-0.1,0.4-0.1,0.6-0.1C431.6,76.7,431.7,77,431.7,77.3z"/>
	<path fill="#816458" d="M431.6,76.4c-0.2,0-0.4,0.1-0.6,0.1l0,0c0-0.3,0-0.5,0-0.8l0,0C431.2,76.1,431.4,76.2,431.6,76.4z"/>
	<path d="M430.2,72.9c0,1,0,2,0,2.9C429.1,75.6,429.4,71.8,430.2,72.9z"/>
	<path d="M431,75.8c0,0.3,0,0.5,0,0.8c-0.3-0.3-0.5-0.5-0.8-0.8C430.5,75.8,430.7,75.8,431,75.8z"/>
	<path fill="#0D0A08" d="M396.7,562.9c-7.9-2.4,12-12,10.9-6C403.9,558.7,398.4,558.3,396.7,562.9z"/>
	<path fill="#13100E" d="M410.7,565.9c-4.2,1.7-7.8,3.2-11.4,4.7C395.6,567.9,409.9,561.5,410.7,565.9z"/>
	<path fill="#16120F" d="M404.8,559.4c1.5,0.2,5,0,3.3,2.6c-3.6,0.4-7.7,0.5-9.5,4.7c-1.8,0.1-1.7-1.1-1.8-2.1
		C398.5,561.3,401.6,560.5,404.8,559.4z"/>
	<path fill="#1B1714" d="M411.6,569.9c-1.3,3.6-6.2,3.8-9.2,5.5C398.5,573,409.8,568.9,411.6,569.9z"/>
	<path fill="#1B1512" d="M403.8,578.8c1.3-3.2,6.8-4.7,9.9-3.2C412.1,578.3,406.9,579.4,403.8,578.8z"/>
	<path fill="#CCCEB4" d="M404.8,559.4c-3.2,1.1-6.4,1.8-8,5.1c-0.7-3.6,2.9-5.4,5.8-5.9C403,559.7,404.1,559.1,404.8,559.4z"/>
	<path fill="#201815" d="M502.2,140.5c-0.4,0-0.7-0.1-1.2-0.1c-0.4-2.1,0.7-2.8,3.1-3.2c0.6,0.3,0.3,0.8,0.4,1.3
		C503.7,139.1,503,139.8,502.2,140.5z"/>
	<path fill="#322925" d="M566.6,133.7c-1.1,1.4-1,4.2-4.1,3.7C563.5,135.5,564.8,134.3,566.6,133.7z"/>
	<path fill="#634B43" d="M647.9,123.5c-0.8,1.4-0.8,1.4-2.5,0C646.3,123,647.1,123,647.9,123.5z"/>
	<path fill="#392722" d="M506.7,136.4c-1.6-0.6-0.3-1.9,0.7-2.3C509,134.8,507.6,135.9,506.7,136.4z"/>
	<path fill="#BCC4C2" d="M475.4,70c0,0.5,0,1,0.1,1.4C473.8,72.1,473.7,69.6,475.4,70z"/>
	<path fill="#B28C7D" d="M476.1,71.5c0,0.2,0,0.5,0.1,0.7c-0.3-0.3-0.5-0.5-0.8-0.8C475.6,71.4,475.9,71.5,476.1,71.5z"/>
	<path fill="#B28C7D" d="M471.9,71.2l0-0.3c0.1,0.1,0.2,0.2,0.3,0.2C472.1,71.2,472,71.2,471.9,71.2z"/>
	<path fill="#E2EAEA" d="M456.3,72.2c-1.1-0.6-1.8-1.1-3-1.8c1.2-0.4,2-0.6,3-0.9C456.3,70.4,456.3,71.1,456.3,72.2z"/>
	<path fill="#545858" d="M460.7,70.2c-0.1,0-0.3,0.1-0.4,0.1c0-0.3-0.1-0.6,0.2-0.7C460.6,69.8,460.7,70,460.7,70.2z"/>
</g>
</svg>
