<?xml version='1.0' encoding='utf-8'?>
<svg xmlns="http://www.w3.org/2000/svg" version="1.2" baseProfile="tiny" id="Layer_1" x="0px" y="0px" viewBox="0 0 900 600" overflow="visible" xml:space="preserve">
<g>
	<path fill="#040405" d="M524.6,340.8c0.2,1.4,1,1.6,1.9,1.8c2,0.5,3.9,1.3,5.7,2.3c2,1.1,3.5,2.5,4.2,4.9c0.6,2.2,1.5,4.4,2.3,6.6   c-1.3,3.1-2.7,4.1-6.8,5.3c-1-0.9-2.3-0.9-3.6-1.3c-0.8,1.8-2.7,2-4.2,2.7c-0.1,0.1-0.4,0.1-0.5,0c-2.2-1.3-4.7-0.7-7.1-1   c-0.3,0-0.6-0.2-0.8-0.3c-2.2,1.8-4.7,1.8-7,0c-2.7,0.5-5.1,0.1-7-2.3c-1,1.1-2.2,0.9-3.4,0.8c-4.5-0.6-9-0.8-13.4-1   c-0.9,0-1.7-0.2-2.4-0.7c-2.8-1.9-5.8-3.5-9.1-4.2c-2.7-0.6-5.2-1.8-7.7-3c-0.6-0.3-1.1-0.7-1.8-0.6c-1.6,0.2-2.7-0.7-3.8-1.5   c-3.2-2.5-5.6-5.8-8.2-8.8c-0.7-0.8-0.8-1.9-0.7-2.9c0.2-1.6,0.5-3.1,1.2-4.5c0.2-0.4,0.4-0.9,0.1-1.3c-5.9,1.8-11.8,3.9-17.8,5.1   c-0.7,0.1-1.3,0.2-1.7,1.1c-0.3,0.7-1.1,0.9-1.8,1.1c-6.9,2.9-13.8,5.6-20.8,8.2c-2.2,0.8-4.4,1.7-6.6,2.5   c-0.4,0.2-0.9,0.3-1.3,0.6c-4.1,3.6-9.3,4.8-14.3,6.3c-4.8,1.4-9.7,1.8-14.7,2.5c-5.6,0.7-11.2,1.6-16.9,2.2   c-8.7,1-17.4,1.9-26.2,1.7c-4.1-0.1-8.2,0-12.3-0.1c-1.3,0-2.7,0.1-3.9-0.8c-0.3-0.2-0.8-0.2-1.1-0.2c-5-0.3-9.9-0.5-14.9-0.3   c-5.5,0.1-10.9-0.3-16.2-1.4c-2.5-0.5-5-0.2-7.5,0.4c-3,0.7-6.1,1.1-9.2,0.7c-2.6-0.3-5.2-1-7.9-1.5c-1.9-0.4-3.9-0.6-5.8-0.8   c-4.4-0.4-8.5,0.6-12.7,1.7c-1.8,0.5-3.8,1.3-5.7-0.2c-0.4-0.7,0-1.5-0.4-2.5c-0.9,0.5-1.8,0.5-2.8,0.5c-2.7,0-5.3,0.2-7.8,1.2   c-1.5,0.6-3.3,0.6-4.9,0.6c-8.5,0.1-16.9,0.3-25.3,0c-6.2-0.2-12.3-0.7-18.4-1.2c-3.2-0.2-6.5-0.1-9.7-0.1   c-5.6,0-11.2-0.1-16.8,0.6c-1.1,0.1-2.4,0-2.9,1.4c-8.4-0.6-16.5,0.6-24.6,2.1c-4.1,0.8-8.2,1.6-12.4,2c-2.4,0.2-4.9,0.2-7.3,0.4   c-3.8,0.4-7.5,1.2-11.2,1.8c-7.8,1.3-15.7,2-23.6,1.7c-2-0.1-4-0.6-6.1-0.2c-1.2,0.3-2.5-0.3-3.7-0.7c-6.9-1.8-14-2.5-21.1-2.1   c-1.2,0.1-2.3,0.2-3.3-0.9c-0.5-0.5-1.4-0.5-2.2-0.7c-1,0.6-2.1,1.2-3,1.9c-1.6,1.3-3.6,1.9-5.5,2.5c-2.3,0.7-4.5,0.4-6.8,0.1   c-1.7-0.2-3.4-0.9-5-0.6c-3.1-3-3.1-4.6-0.4-7.7c-0.8-1.6,0.2-2.5,1.6-3.3c2.1-1.2,4.3-1.4,6.6-0.9c3.1-4.8,7.6-8.2,12-11.6   c0.5-0.4,1-0.7,1.7-0.7c3.6-0.3,6.9-2,10.4-3.1c1.2-0.4,1.9-1.5,3.2-1.9c2.8-0.9,5.6-1.5,8.5-2.1c1.3-0.3,2.6-0.4,3.9-0.6   c0.7-0.1,1.2-0.5,1.6-0.9c1.4-1.2,3-2.3,4.3-3.7c2-2,4.5-3.2,7-4.3c1.3-0.6,2.6-0.9,3.6-2.1c0.6-0.7,1.7-0.7,2.7-0.7   c1.8,0,3.6,0.7,5.3,0.5c2.6,1.8,5.1,3.6,6.4,6.2c3.9,1.7,7.8,2.2,11.6,2.6c2.8,0.3,5.6,0.5,8.5,0.3c3.4-0.3,6.8-0.3,10.2-0.6   c4.4-0.5,8.8-0.9,13.2-1.3c3.7-0.3,7.3-0.8,11-1.6c2-0.4,4-1,5.8-1.8c8.9-3.8,18-6.8,27.5-9c4.9-1.1,9.7-2.6,14.6-3.7   c7-1.6,14.1-2.6,21.3-2.8c7.1-0.2,14,0.8,20.8,2.5c0.1,0,0.3,0,0.6,0c0.2-1.4,0.6-2.8,0.5-4.2c0.6-1,1.4-1.3,2.3-1.3   c2.5-0.2,5.1-0.2,7.6,0c1.3,0.1,2.5,0.5,3.6,1.1c1.8,0.8,1.8,0.8,3.9,0.7c0.8-0.4,1.2-1.2,1.9-1.7c1.2-0.9,2.2-1,3.1,0   c1.2,1.4,2.6,1.6,4.2,1.7c1.3,0,2.5,0,3.7,0c0.7,0.2,1.1,0.6,1.4,1.1c1.3,1.6,3.1,1.8,4.7,1.1c1.6-0.7,3.2-0.7,5-0.7   c1-1.2,2.5-1.2,4-1.1c2.4,0.3,4.6,0.1,6.9-0.9c6.2-2.9,13-4.3,19.6-5.9c3.3-0.8,6.7-0.9,10-1.6c7.2-1.4,14.4-3.1,21.7-4.5   c3.4-0.7,6.8-1.3,10.2-1.7c3.2-0.4,6.4-1,9.6-1.2c3.4-0.3,6.7-0.7,10.1-1.1c0.9-0.1,1.7-0.2,2.5-0.6c-0.2-0.6-0.5-1.2-0.2-2   c0.7-0.7,1.3-1.9,2.5-2c1.6-0.2,2.5-1.2,3-2.6s1-2.7,1.1-4.3c0.1-1.8,1-3.6,1.9-5.3c2.2-4,5.2-7.3,8.9-10   c5.7-4.2,11.7-7.6,18.4-9.8c2.6-0.9,4.8-2.5,7.5-2.9c2-0.3,4-0.5,6-0.9c3.1-0.6,6.3-0.1,9.4-0.8c1.4-0.3,2.9-0.2,4.2,0   c2.5,0.4,5,0.6,7.5,0c0.5-0.1,1.1-0.1,1.6-0.1c3.1,0.1,6.1-0.4,9.2-0.8c0.7-0.1,1.4-0.1,2.1-0.1c4,0,8-0.5,12-1.1   c3.3-0.4,6.5-0.8,9.8-1.3c3-0.4,6-0.9,8.9-1.8c5.5-1.9,11.2-3.5,16.8-5c3.3-0.9,6.6-2.1,9.8-3.2c8.4-2.8,16.9-5.3,25.6-7.1   c4.9-1,9.9-2.1,14.8-2.7c5.2-0.6,10.4-0.9,15.6-0.3c3.8,0.4,7.7,0.4,11.6,0.6c9.4,0.6,18.6,2,27.4,5.6c4.7,2,9.3,4.3,13.1,7.9   c1,0.9,2.1,1.7,3.3,2.3c5.4,3,10.3,6.7,15.5,9.9c5.9,3.7,12.1,6.9,18.7,9.3c2.9,1.1,5.8,1.8,8.7,2.8c3.9,1.5,7.5,0.8,11.1-0.8   c2.7-1.2,5.6-2.1,8.4-3c1.2-0.4,2.3-0.9,3.5-1.3c4.1-1.5,8.3-2.7,12.8-2.5c1.1,0,2.2,0,3.5,0c1.3,1.4,3.5,1.1,5.4,2.6   c-1.9-4,0.1-7.5,0.1-11c1.7-0.4,1.3,0.9,1.6,1.6c1.9-0.5,3.5-1.6,5.4-2c3.2-0.6,4-0.3,5.6,2.3c3.3-2,6.6-1.9,10.2-0.7   c0.7,0.1,1-0.9,1.9-0.9c0.1,0.1,0.4,0.2,0.5,0.4c0.5,0.6-0.2,1.2,0.1,1.8c4.5,3.6,3.3,2.6,5.8,7.2c1,0.1,2.1,0.1,2.9,0.9   c0.2,0.2,0.5,0.3,0.7,0.6c0.9,1.2,1.1,2.7,2,4c0.8,1.1,1.2,2.5,0.9,4.1c2,0.1,3.3,0.9,4,2.8c0.7,2.1,0,3.9-1.1,5.5   c-0.3,0.4-0.8,0.7-1.1,1.2c-1.3,3-3.8,4.4-6.7,5.5c-0.4,0.1-0.8,0-1.1,0.5c2.5,0.5,4.9,0.3,7.4,0.1c0.7,0,1.4-0.1,1.6,1.1   c-3.5,1.4-7.1,0.6-10.7,0.5c0,0.7-0.2,1.4,0.1,2.2c0.4,1,0.5,2,0,3c-0.3,0.7-0.3,1.4-0.1,2.1c0.8,4.6,0.6,9.1-0.1,13.6   c-0.1,0.5-0.1,1.1-0.1,1.8c1.7,1.3,3.8,1.6,5.8,2.1c5.8,1.4,11.6,2.6,17.4,3.9c2.5,0.5,5,1.1,7.6,1.7c0.3,0.1,0.6,0.2,0.9,0.2   c3.3-0.3,6.6,0.5,9.8,1c3.4,0.5,6.9,0.5,10.2,1.3c0.2,0,0.5,0,0.7,0c4-0.1,7.8,0.7,11.6,1.8c0.4,0.1,0.9,0.2,1.4,0.1   c5.6,0,11,1.1,16.3,2.9c2.4,0.8,4.7,1.8,7,2.6c2.1,0.7,4.2,1.3,6.3,1.9c1.8,0.5,3.9,0.4,5.7,1c1.5,0.5,3,0.7,4.6,0.6   c1.9-0.1,3.7,0.3,5.5,1.1c1.3,0.6,2.6,0.4,3.9,0.2c3-0.4,5.9-0.5,8.9,0.2c0.7,0.2,1.2,0.4,1.5,1c-0.6,3.8-2.8,5.8-6.6,6.1   c-0.4,0-0.8,0-1.2,0.2c-2.2,1.1-4.6,1.1-6.9,0.7c-2.6-0.4-5.2-0.2-7.9-0.2c1,1.2,2.5,1,3.6,1.2c2.9,0.5,5.9,0.7,8.9,1   c0.9,0.1,1.7,0.1,2.4,0.7c0.8,0.7,1.9,0.8,2.8,1c2.7,0.6,5.1,2,7.7,2.7c0.9,0.2,1.8,0.4,2.8,0.4c3.4,0,6.7,0.6,9.9,1.8   c3.4,1.3,6.9,1.9,10.5,2.5c1.6,0.3,3.3,0.5,4.9,0.5c1.2,1.4,1.2,2.3-0.1,3.1c-1,0.7-1.8,1.4-2.6,2.3c-0.9,1.1-2.3,1.4-3.6,1.6   s-2.8,0.3-4,0c-2.4-0.7-4.7-0.2-7-0.5c-0.7,0.9-1.3,1.7-2.1,2.4c-1.5,1.4-3.1,2.3-5.3,1.6c-1.8-0.6-3.7-0.5-5.6-0.8   c-3.1-0.4-5.9-1.6-8.8-2.5c-2.5,1.4-5.1,0.9-7.7,0.6c-1.7-0.2-3.4-0.2-5.2-0.2c-2.5,0-5,0.1-7.5-0.4c-2.1-0.4-4.2-0.2-6.4-0.1   c-1.7,0-3.3-0.4-4.9-0.6c-0.9-0.1-2-0.3-2.8-1.2c-1.7-1.8-4-1.9-6.2-1.5c-2.8,0.6-5.7,0.4-8.5,0.4c-6.4,0-12.8,0.5-19.1,1.2   c-2.3,0.3-4.7,0.3-7.1,0.6c-7.4,1-15,0.5-22.4,1c-6.3,0.4-12.6,0.5-18.9,0.2c-4.3-0.2-8.7-0.4-12.9-1.3c-1.4-0.3-3,0-4.5,0.2   c-2.9,0.4-5.7,0.3-8.4-0.7c-3-1-6.1-2-9.2-3c-1.3-0.4-2.5-0.9-3.5-1.8c-0.4-0.4-0.9-0.5-1.5-0.7c-6.4-1.6-12.5-4.2-18.5-6.9   c-3.9-1.8-7.8-3.6-11.7-5.5c-1.2-0.6-2.3-0.5-3.4-0.3c-1.2,0.3-2.4,0.6-3.7,0.9c-2.5,0.6-3.6-0.1-4.5-2.5c-0.4-1.2-0.1-2.3-0.3-3.7   c-1.4-0.9-2.8-1.9-4.6-2c-2.1-0.1-3.2-1.1-3.4-3.2c-0.9-0.5-1.9-0.2-2.8-0.2c-1.2,0-2-0.5-2.3-1.6c-0.5-1.8-1.7-2.3-3.4-2.2   c-1.1,0.1-2.2-0.4-3.1-1c-0.7-0.4-1.4-0.8-2.1-1.2c-0.5-0.4-0.5-1.2-0.8-1.9c-0.3-0.7-0.7-1.4-1.3-1.9c-3.7-3-7.4-6.1-11.2-9   c-2.2-1.7-4.4-3.5-6.6-5.7c-0.7,1.5-2,1.7-3.1,2.2c-2.2,0.8-4.2,2.1-6.3,3.2c-0.6,0.3-1.2,0.7-1.6,1.3c-2.3,3.1-5.1,5.6-7.9,8.1   c-0.4,0.3-0.8,0.5-1.1,0.7c0.4,2.6,0.6,4.7,0.2,7c-0.9,4.8-3.5,7.5-8.1,8.7c-2.1,0.5-4.2,0.3-6.3,0.3c-2.4,0-4.9-0.2-7.2,0.7   c-2.5,1-5.1,1.5-7.7,2.1c-0.6,0.1-1.3,0.2-1.9,0.1c-8.6-1.4-17.3-0.8-26-0.9c-1.6,0-3.3,0-4.9-0.3   C529.4,340,527.1,340.8,524.6,340.8z M732.7,317.6c-0.8,0.3-0.5,0.9-0.5,1.4c-2.1,3.3-3.9,6.7-5.7,10.2c0.8,0.3,1.2,0.1,1.6-0.4   c2.1-3,3.5-6.2,4-9.8C733,318.7,732.7,318.1,732.7,317.6c0.7-0.4,0.6-0.8,0.2-1.4C732.5,316.7,732.7,317.1,732.7,317.6z    M720.9,265.5c0.3,0.1,0.6,0.3,0.9,0.4l0,0c-0.3,1-0.6,2.1-0.9,3.2c0.6,0.5,1.1,1.2,1.8,1.5c2.5,0.8,3.1,2.6,2.9,4.9   c0,0.1,0.2,0.3,0.2,0.4c1.3,0.1,2.5-0.2,3.5-1.1c0.4-0.4,0.9-0.5,1.5-0.4c0.1,1.2-0.9,1.5-1.6,2c-0.8,0.6-2,0.6-2.5,1.7   c1.9-0.5,3.9-0.8,5.4-2.4c1.4-1,2.5-2.3,3.1-4c0.2-0.5,0.6-1,1.3-0.4c-0.4,1.8-1.3,3.5-2,5.2c-1.5,2-4.1,2-6.2,3.1   c1.8,2.2,3.2,4.7,6.5,4.6c0.3-0.9-0.8-0.9-0.5-1.9c1.9-0.7,3.5-2.3,5.4-3.5c0.5,0.2,0.5,0.6,0.2,0.9c-0.4,0.6-0.9,1.3-1.3,1.9   c-0.4,0.5-0.4,1,0,1.6c1.9-0.3,2.8-2.5,4.9-2.9c0,1.2-0.9,1.8-1.5,2.4c-0.9,1-1.9,1.8-2.9,2.8c-0.6,0.2-1.4-0.1-1.5,0.9   c0.7-0.1,1.2-0.2,1.6-0.8c3.1-1.1,5.2-3.1,5.8-6.5c0.2-0.9,0.5-1.8,1.2-2.3c-0.3-0.6-0.7-0.9-1.1-1c-0.7,0.2-1.5,0.4-2.1,0.6   c-0.9,0-1.1-1-1.8-1.2c-0.4,1.1-0.9,1.9-1.6,2.7c-0.4,0.2-0.9,0.4-1.2,0.7c-1.6,1.9-3.9,2.2-6,3c-0.6,0.2-1.1,0.1-1.1-0.6   c0.3-0.7,0.9-0.6,1.4-0.8c1.1-0.5,2.5-0.5,3.2-1.7c2.2-1.1,3.6-3,4.9-5c0.2,0.3,0.3,0.5,0.5,0.6c1.4-1.5,0.5-2.8,0.1-4.2   c-0.9,0.6-1,1.7-2.1,1.7c-0.9-0.5-0.9-1.4-0.4-2c0.7-1,0.8-2.1,1-3.3c-0.4-0.5-0.6-1.2-1.4-1c-0.5,1.4,0.2,3.1-1.2,4.1   c-1.1,0.1-1.5-0.4-1.3-1.2c0.2-0.9,0.1-1.7-0.4-2.6c-0.6,1.5-1.8,2.5-2.6,3.8s-1.4,2.8-3,3.4c-0.5-0.6-0.6-1.1-0.2-1.6   c1.6-2,2.4-4.4,3.9-6.4c0.6-0.8,1.1-1.7,0.6-2.7c-1-0.4-1.6-0.1-2.1,0.6c-1.5,2.1-3.3,4-4.4,6.4c-0.3,0-0.6,0-0.9,0   c1-3.5,3-6.4,5.1-9.2c-0.5-0.3-1-0.8-1.7-0.7c-0.2,0.4-0.6,0.7-0.7,1.2c-0.8,2.3-2.4,4.2-3.3,6.5c-0.3,0.7-1,0.9-1.6,1.3   c-0.2-0.4-0.8-0.4-0.9-1c0-0.8,1-1.3,0.8-2.2c0.5-1.4,1-2.8,1.3-4.2c0.4-1.3,0.7-2.5,2.5-2.6c-3.4-0.9-3.4-0.9-7.3,0.1   c-0.9,1.7-1.8,3.5-2.8,5.3c-0.3-0.1-0.4-0.3-0.5-0.6c0-1.2,0.2-2.3,0.7-3.5c-1.7-0.8,0.8-2.5-0.7-3.1c-1.7-1.2-3.3-0.7-5-0.2   c0.7,1.1,0.7,2.2,0.3,3.5c-0.7,2.1-0.8,4.3,0.3,6.7c0.9-0.4,1.4,0.8,2.4,1c-0.2-0.7-0.8-1.2-0.2-1.7c1-0.4,1.2,1,2.2,0.7   c0.6-0.4,0.6-1.2,1-1.8c0.3,0,0.6-0.2,0.9,0.2c0.4,1.1-0.8,2-0.9,3.3C720.1,267.3,720.6,266.5,720.9,265.5L720.9,265.5z M710,305.3   c0,1.6-1.6,2.8-1.3,4.9c0.7-1.8,1.8-3,2.2-4.5c1.6-2.7,3.2-5.3,4-8.3c0.3-1.3,0.5-2.8,1.3-3.9c1.1-0.9,0-2.2,0.7-3.2   c0.4,0.9,0,1.9,0.2,2.8c0,0.5,0,0.9-0.1,1.4c-0.7,0.4-0.4,1-0.4,1.5c-0.6,4.8-2.8,9.1-3.6,14c0.1,0.2,0.7,0.3,0.6,1   c-1.4,1.6-1.9,3.6-2.3,5.7c-2,2.4-3.2,5.2-2.9,6.6c1.2-2.1,2.3-4.1,3.4-6c1.3-1.9,2.1-4.2,4.4-5.4c-0.6,2.5-2.2,4.6-3.4,6.9   c-1.5,1.4-2.1,3.4-3.4,4.9c0.3,0.2,0.5,0.4,0.7,0.6c1.2-1.8,2.7-3.2,3.6-5.1c1.3-0.6,1.5-2.2,2.7-2.9c0.6,0.1,0.6,0.5,0.6,1   c-0.5,0.7-0.9,1.3-1.4,2c-1,2.2-3,3.9-4.2,5.9c0.3,0.4,0.5,0.6,0.8,0.7c0.6,0.1,0.4,0.9,0.9,1c0.3,0.5,0.6,0.9,1.2,0.9   c1.9-1.8,3.3-3.9,4.4-6.2c0.4,0,0.7,0,1,0.1l0,0c0.1,1.2-0.3,2.2-1,3.3c-0.8,1.2-1.9,2.4-2.4,4.3c3-0.3,5.6,0.8,8.4,0.3   c0.3-1.9,1.3-3.4,1.9-5.1c1.6-3.2,3.9-6.1,4.8-9.7c0.1-0.5,0.5-0.8,1.1-0.6c0.7,0.4,0.3,1.1,0.6,1.6c0.8-2.4,1.5-4.9,1.5-7.4   c0-3.1,0-6.2,0.4-9.4c0-0.4-0.1-0.8-0.6-1c0.1,2.7-0.3,5.3-1,7.9c-0.7,2.5-0.5,5.5-2.6,7.5c-1-0.5-0.8-1-0.5-1.6   c1.7-3.3,2-6.9,2.1-10.5c0.1-0.2,0.3-0.4,0.3-0.6c0.1-2.9,0.2-5.8,1-8.6c0.2-0.6,0-1.3-0.8-1.6c-1.1,3.1-0.4,6.3-1,9.4   c-0.5,2.4-0.9,4.8-1.6,7.1c-0.9,2.8-2,5.4-3,8.1c-0.2,0.5-0.5,1-1.2,0.7c-0.7-0.7-0.1-1.3,0.2-1.9c1.2-2.6,2.3-5.3,3-8.2   c0.2-0.7,0.6-1.3,0.1-2c-0.7,0.7-0.6,1.8-0.9,2.5c-0.6,0.6-1.2-0.8-1.7,0.3c-0.5,0.1-0.4,0.6-0.8,0.8c-0.1-0.3-0.2-0.6-0.3-0.9   c0.5-7.1,2-14,3.4-20.8c-0.8-0.7-1.2-1.6-2.3-1.8c-0.1,3.7,0.1,7.2-0.5,10.7c-0.3,1.3-0.4,2.6-0.9,3.9c-0.3,0.7-0.9,0.8-1.5,0.1   c1.6-2.9,1.1-6.3,1.1-9.4s0.5-6.3-0.4-9.4c-0.2,4.1-0.1,8.3-2.1,12.1c-1.5-0.5-1.1-1.4-0.8-2.2c0.9-2.9,1.3-5.8,1.3-8.8   c0-1.4-0.2-2.8,0.2-4.2c0.2-0.8-0.2-1.4-1.2-1.7c0.2,1.5,0.5,2.8,0.5,4.2c-0.1,3.3-0.6,6.5-1.9,9.6c-0.9-0.5-0.2-1.4-0.5-2   c0.3-2.2,0.6-4.5,0.8-6.7c0.1-1.1,0.4-2.2-0.3-3.2c0-0.6,0.1-1.1-0.4-1.6c0-0.1,0-0.2-0.1-0.3c-0.4-0.7,0.6-1.3,0.3-1.9   c-1.6-1.2-5.3-2.9-6.7-3c0.3,0.7,0.3,1.5,0.2,2.3c-0.3,2.1-0.6,4.2-0.9,6.3c-0.7,5.2-1.9,10.2-3.9,15c-0.6,1.5-1.5,3.2-3.5,3.4   c-0.4,1-0.6,1.9-1.1,2.9c-0.7,1.5-1.5,2.9-2,4.5c-0.8,1.8-1.6,3.7-2.3,5.5c-0.8,2-1.4,4.1-1.8,6.3c-0.1,0.7-0.5,1.6,0.5,2   c0.5-0.4,0.7-0.9,0.7-1.4c0.1-1.6,0.6-3,1.3-4.5c0.9-1.8,1.6-3.7,2.5-5.5c1.2-2.5,2.4-5.1,4.1-7.3c1-1.4,2.4-2.4,3.4-3.9   c0.4-0.6,1.2-1,2.2-0.2c-0.5,0.8-1,1.6-1.6,2.3c-0.6,0.8-1.3,1.5-1.8,2.5c-0.8,1.8-1.5,3.6-2.9,5.1c-0.4,0.4-0.5,1-0.5,1.5   c-1,0.9-1.2,2.2-1.7,3.3c-1.3,3-3.2,5.9-3.9,9.2c0.3,0.4,0.8,0.7,1.6,0.7c1.7-4,3.4-8.1,5.2-12.2c0.8-0.7,1-1.8,1.7-2.5   C709.7,304.8,709.9,305,710,305.3z M517.4,352.7c1,0.5,1.4,1.5,1.9,2.4c-1.6,1-2.3-0.6-3.1-1.4c-0.8,0.5-1.4,0.9-2.1,1.4   c-1.3,0.5-2.6-1.4-4.1,0c0.2,1,0.7,2.1,0.1,3.1c-0.7,1.2-0.3,1.9,0.7,2.7c0.9-0.2,1.8,0.2,2.6-0.2c0.7-1.3-0.5-3,1.5-3.9   c0.3,2.3,1.4,3.7,3.8,3.7c0.5-1.8,0.8-3.6,0.6-5.5c1.6,0.5,2,1,1.8,2.4c-0.1,0.9-0.6,1.8-0.2,2.7c2,0.8,2.9,0.7,4.6-0.2   c0.2-0.7-0.4-1.6,0.2-2.3c0.6-0.5,1.2-0.3,1.7,0.1c0.7,0.6,1.4,1,2.2,1.3c1.1,0.5,2,0.4,2.6-0.6c1.3-0.5,2.6-0.9,3.5-1.9   c-0.4-2.4-1.4-4.6-2.1-6.8c-0.5-1.6-1.5-2.5-2.8-2.9c-1.9-0.6-3.6-1.6-5.5-1.9c-1.6-0.3-2.7-1.2-2.8-2.8c-2.3-1.5-4.1-3.2-6.1-4.8   c-0.5-0.5-1.1-0.9-1.8-1.1c-5.4-1.2-10.8-2.8-16.5-2c-0.8,0.1-1.6,0-2.4,0c-0.5,0-0.9-0.2-1-1c0.1-0.1,0.3-0.3,0.5-0.3   c2.3,0,4.5-0.3,6.7-1.1c0.1,0,0.3,0,0.5,0c3,0.2,6,0.3,8.8,1.3c0.2,0.1,0.4,0.1,0.7,0.1c0.2-0.3,0.4-0.5,0.5-0.8   c1,0,1.9,0.4,2.6,0.9c1.1,0.7,2.2,1.5,3.3,2.3c1.4,1.4,2.8,2.7,4.3,3.8c1-0.2,1.8-0.4,2.7-0.4c4.2-0.1,8.3-0.2,12.5-0.4   c6.7-0.3,13.4-0.1,20.1-0.2c0.6,0,1.3,0.1,2.1-0.2c-0.9-0.3-1.6-0.5-2.4-0.8c-4.4-1.8-8.6-3.7-12.6-6.3c-1.8-1.1-3.5-2.5-4.9-4   c-1-1-1.8-2.2-1.6-3.7c0.1-0.6,0-1-0.2-1.5c-0.4-0.8-0.8-1.7-1.3-2.6c-5,1.8-10.2,2.3-15.5,2.3c-1.5,0-2.9-0.4-4.5-0.4   c-3.5,0.1-6.9,0-10.4,0c-1.4,0-2.8,0.2-4,0.9c-1.9,0.3-3.9,0.2-5.5,1.5c-0.7,0.6-1.8,0.8-2.7,0.8c-2.3,0-4.4,0.8-6.5,1.8   c-3.1,1.4-6.3,2.2-9.8,2.1c-0.8,0-1.6,0-2.4,0c2.1,1.3,4.2,2.4,6.6,2.4c0.7,0,1.2,0.3,1.2,1.1c-0.4,1.1-1.3,1.2-2.3,1.2   c-1.7,0-3.3-0.5-4.8-1.2c-2.9-1.4-5.9-2.5-9-3.6c-2.6-1-5.2-0.9-7.9-0.8c-1,0.1-2,0.5-2.8,1.1c-0.9,0.6-1.6,1.2-1.7,2.4   c-0.1,0.8-0.5,1.5-0.7,2.2c-0.5,1.5-0.9,3-0.6,4.7c0.6,0.7,1.2,1.5,1.9,2.3c1.2,2.2,3.3,3.5,5.2,5.1c1.8,1.5,3.8,2.6,6.1,3.3   c5.8,1.8,11.6,3.8,16.8,7.1c0.8,0.5,1.6,0.6,2.5,0.7c2.8,0.2,5.6,0.5,8.4,0.8c2.1,0.2,4.2,0.4,6.5,0.6c-1-1.6-0.2-2.6,0.6-3.7   c2.2-1.4,4.3-0.8,6.3,0.3c0.6-0.8,1.1-1.6,2-1.8c1.2-0.2,2.3,0.1,3.4,0.7c0.7-1.1,2-0.4,2.8-1.3   C516.7,352.3,517.1,352.5,517.4,352.7z M707.4,293.3c1.5-3.4,2.2-7,2.9-10.6c0.7-3.7,1-7.4,1.6-11.2c0.1-0.9,0.4-1.8,0.2-3   c-3.1,0.6-5.3-1.7-8-2.3c-0.7,0.8-1.3,1.6-1.2,2.2c0.3,1.4-0.5,2.4-0.8,3.6c-0.6,2.3-1.7,4.5-2.6,6.6c-0.6-0.1-0.4-0.7-0.5-1   c0-0.1,0-0.3,0.1-0.4c0.7-0.4,0.4-1,0.4-1.5c0.2-1.7,0.7-3.3,1.4-4.8c-0.1-0.4-0.6-0.6-0.5-1.2c0.1-0.8,1.2-1.2,0.9-2.2   c-1.3,0.7-1.7,2.2-2.5,3.3c-0.5,0.1-1.1,0.2-1.6,0.3c-0.6-0.1-0.4-0.7-0.6-1c0.3-1.6,2-2.6,1.9-4.5c-1.2,0-2.4,0-3.5,0   c-0.7,1.4-1.5,2.7-2.8,3.5c0.3-1.2,0.5-2.3,0.7-3.6c-2.1,0.3-3.9,0.3-5.2,2.1c-1.4,1.8-2.7,3.5-3,6c-0.1,1.1-0.7,2.2-1,3.2   c-0.6,0.2-0.9,0.1-1.1-0.2c-0.4-1.3,1.3-2.3,0.5-3.5c-0.5-0.1-0.7,0.1-0.8,0.2c-1.1,2.2-3,3.5-4.6,5.2v0.2   c-0.5,0.1-0.4,1.1-1.3,0.9c-0.1-1.1-0.5-2.2,0.5-3.1c0.4,0.2,0.8,0.5,1.2,0.7c1.7-3.1,3.5-5.9,6.4-8.4c-2,0.3-3.3,1.2-4.2,2.5   c-1,1.3-1.9,2.6-3.4,3.8c-0.2-1.9,1.1-2.9,1.8-4.6c-1.2,0.7-2.3,0.5-3,1.2c0,2.4,0,4.7,0,6.8c-0.5,0.4-0.8,0.2-1.2,0.1   c0-1.7,0-3.4-0.6-5c-0.8,0.3-1.5,0.5-2.1,0.7c-0.6,0.8,0.3,1.8-0.6,2.6c-0.7-0.5-0.5-1.5-1.2-1.9c0.1-0.9-0.9-0.3-1.1-0.8   c0.2-0.3,0.4-0.7,0.6-1.1c-2.5,0-4.8,0-7.2,0c-0.9,0-1.8-0.1-2.5-0.6c-1.2-1.1-2.6-1.3-4-1.7c-5.3-1.5-10.6-3.4-15.4-6.2   c-1.6-1-3.2-2-4.6-3.3c-0.7-0.6-1.2,0.3-1.6-0.2c-2.6-2.9-2.6-2.9-3.9-3.3c0.7,2.6,2.2,4.8,3.4,7.2c0.5,1,1.3,1.7,2.3,2.3   c3,1.7,6.1,3.2,8.8,5.5c6.3,5.5,12.2,11.1,16.5,18.3c2.2,0.3,2.2-1.8,3.2-2.6c4.3-1,4.8-0.9,8.7,1c0.3-0.6-0.3-1-0.5-1.5   c-0.6-1.4-0.3-2.5,0.7-3.4c0.6-0.5,1.2-1,2-1.2c0.7-0.2,1.3-0.5,1.7-1.2c1.9-1.1,3.7-2.3,5.6-3.4c1.2-0.8,2.5-1.1,4-1.3   c2-0.2,3.9,0.9,5.8,0.2c0.1,0,0.3,0.1,0.4,0.1c2.1,1.1,3.8,2.7,4.5,4.9c0.6,1.8,0.5,4,0.1,6c-0.1,0.7-0.4,1.6-1.1,1.8   c-1.3,0.4-2.1,1.7-3.5,1.7c-0.4-1.2,0.2-1.8,1.2-2.2c1-0.4,1.6-1.1,1.5-2.1c-0.1-2.1-0.5-4.4-1.9-5.9c-1.9-2.1-4.8-3.2-7.6-2.3   c-1.9,0.6-4.1,1.3-5.7,2.7c-1.8,1.6-3.6,3.3-6,3.7c-1,2.5,1.6,3.6,1.7,5.6c-1.5,0.9-2.9,0.9-4.4,0.1c-3.5-1.8-6.6-0.6-9.8,1.2   c7.6,7.9,16.1,14.1,26,18.9c0-1.5,0-2.7,0-4.1c-0.2-0.5-1.1-0.9-1-1.8c0.1-1-1-1.1-1.4-1.8c0-0.8,0-1.7,0-2.6s0.2-1.7-0.2-2.5   c-0.5-0.2-1.2,0.1-1.6-0.6c0.2-1.3-0.6-2.4-1-3.7c0.3-0.7,0.7-1.4,1.1-2.1c0.5-0.7,1.6-0.7,2-1.5c-0.5-0.4-1-0.8-1.5-1.2   c-0.2,0.3-0.4,0.5-0.6,0.8c-0.2,0.4-0.4,0.7-0.8,0.9c-2.5,0.5-1.8,0.5-4.6-1c-0.1-1,0.5-1.8,1-2.3c1.2-0.5,2,0.2,2.9,0.4   c0.7-0.3,1.4-0.6,2.1-0.9c-0.9-0.8-2.4,0.7-2.9-0.9c2.3-2.4,4.2-1.9,7.1,2c0.6,0.1,1.2,0.2,1.9-0.4c-0.7-1.6-1-3.4-0.2-5   c-0.4-0.6-0.9-0.8-1.5-1s-1.2-0.3-1.7-0.5c-2.8,1.9-5.3,4-8.5,4.8c-0.2,1.9-0.2,1.9-1.3,2.2c-0.9-2.8-0.8-2.7,1.6-3.8   c1.6-0.7,3.5-0.9,4.3-3c0.2-0.6,1.1-0.9,1.8-1.1c0.8-0.3,1.6-0.6,2.3-0.8c2.2,0.1,3.7,0.8,5,2.5c1.1,1.5,2.5,2.8,2.6,4.8   c-0.9,3-3.8,2.6-6,3.6c0.8,0.5,1.7,0.7,1.5,1.7c-1.2,1.6-1.9,3.3-1.9,5.4c0,1.2-0.1,2.3-0.3,3.5s-0.5,2.6,0.6,3.7   c0.5-2,0.7-3.9,0.7-5.9c1.2-0.5,1.2-1.7,1.8-2.6s0-2.3,1.1-3c1.3,0.6,0.2,1.5,0.3,2.3c-0.7,0.4-0.5,0.9-0.4,1.5   c0,0.3-0.1,0.6-0.1,0.9c-1.4,2.4-1.7,4.9-0.6,7.7c0.2-0.9,0.5-1.6,0.6-2.4c0.2-1.9,1.1-3.8,1.1-5.8c0.3-0.6,0.5-1.1,1.3-0.9   c0.3,0.9,0.2,1.8,0,2.6c-1.1,3.7-1.2,7.6-1.7,11.4c-0.1,1.1-0.2,2.3,0.1,4c1.5-6.6,4.8-11.8,7.8-17.1c0.6-0.9,1.3-1.8,2-2.6   c0.7-0.8,1-1.8,1.6-2.6c0.6-0.8,0.4-2.2,1.8-2.4c0.7,0.9-0.3,1.5-0.2,2.3c-1.1,0.9-1.4,2.3-2.1,3.4c-3,4.7-5.6,9.6-7.9,14.7   c-0.7,1.5-1.3,3-1.3,4.8c0.8,0.4,1.2,1.3,2.3,0.8c0.1-0.9,0.1-1.9,0.3-2.8c0.9-3.8,2.4-7.5,4.1-11c1.2-2.5,2.4-5.1,4.3-7.3   c0.5-0.6-0.2-1,0.1-1.4C706.5,293.1,707.1,294.5,707.4,293.3z M821.8,336.2c0.1-0.6,0.7-0.5,1.1-0.6h0.2l0.2,0.1   c0.2,0.4,0.5,0.5,0.9,0.5c1.1,0,2.3,0,3.4,0c2.4,0.5,4.8,1,7.1,1.5c1.3,0.3,1.9,1.2,1.8,2.4c0,0.4-0.6,0.7-0.1,1.3   c0.4,0,0.9,0,1.4,0c3.7,0.1,7.4-0.2,11.1,0.4c1.3,0.2,2.7,0.4,3.9-0.2c1.1-0.5,2.1-1.3,3.3-2c-1.5-0.4-2.8-1-4.2-1   c-2.9,0-5.6-0.8-8.3-1.3c-1-0.2-2-0.2-3-0.4c-2.8-0.4-5.5-2.1-8.5-1.7c-0.2,0-0.5-0.1-0.7-0.2c-3.2-1-6.4-2.1-9.6-3.1   c-1.4-0.5-2.7-1.1-4.2-1.5c-4.1-0.9-8.2-1.9-12.3-2.8c-1.9-0.4-3.8-0.9-5.8-1c-3.8-0.2-7.5,0-11.3-0.4c-2.2-0.3-4.4-0.4-6.5-0.7   c-4.3-0.5-8.6-1.4-12.9-2.2c-8.4-1.6-16.6-3.9-24.8-5.9c-2.5-0.6-5-1.6-7.5-2.6c-1.4,5-3.5,9.5-5.9,14.3c1.8,0,3.4-0.1,4.9,0   c4.8,0.4,9.6,0.5,14.4,1.2c2.7,0.4,5.4,0.7,8.1,1.3c3.7,0.8,7.5,1.6,11.3,2.1c3.3,0.5,6.6,1.2,9.9,1.8c2.8,0.4,5.6,0.7,8.4,1.1   c1.4,0.6,2.9,0.5,4.3,0.8c-0.1-0.5-0.5-0.8-0.2-1.2c1.4-0.4,2.6,0.8,4,0.8c0.8,0.2,1.7,0.4,2.5,0.6c2.8,0.6,5.7,0.5,8.5,0.7   c5.2,0.3,10.4,0.9,15.6,0.7c0.4,0,0.8,0,1.2,0.1c2.5,0.7,4.9,1.4,7.4,2.2c0.9-0.4,1.7-0.7,3-1.3c-3.5-1-6.4-2.3-9.6-2.9   C823.4,336.9,822.6,336.6,821.8,336.2z M230.7,350.3c0.9,0,1.4-0.6,1.9-1.4c0.1-4.4-0.1-8.8,0.4-13.2c0.4-3.1,0.2-6.3,0.7-9.4   c0.4-2.4-0.8-4.2-1.1-6.3c-2.5-0.5-4.9-0.9-7.3-1.3c-3.9-0.7-7.7-1.4-11.6-1.6c-5.6-0.3-11.2,0.2-16.7,1c-1.6,0.3-3.4,0.2-4.7,1.2   c-0.9,0.7-1.9,0.9-3,1.1c-1.3,0.2-2.7,0.3-4,0.6c-7.8,1.5-15.5,3.5-23.1,6c-5.2,1.7-10.5,3.2-15.6,5.1c-3.8,1.4-7.9,1.8-11.9,2.6   c-4.4,0.9-8.8,1.1-13.1,2.3c-4.4,1.2-9,1.2-13.6,0.8c-1.6-0.1-3.3-0.2-4.9-0.3c-3.3-0.1-6.6-0.5-9.9-1.1c-0.3-0.1-0.7-0.3-0.9-0.2   c-2.5,1.1-4.1-0.5-5.7-1.9c-1.4-1.2-2.7-2.5-3.9-3.8c-1.6-1.8-3.4-3-5.8-3.2c-0.5,0.4-1.1,0.8-1.9,0.7c-2.1-0.1-4,0.7-5.8,1.7   c-2.9,1.6-5.7,3.5-7.9,5.9c-1.4,1.5-3.2,2.4-4.9,3c-1.8,0.7-3.9,1.2-5.8,1.6c-3.7,0.9-7.4,1.6-11,3.2c-2.9,1.2-5.9,2.6-9,3.2   c-1.2,0.2-2,0.8-2.7,1.7c-2.3,3.1-4.6,6.2-6.9,9.2c-0.1,0.6,0.6,1,0,1.8c-1.3,0.8-3.2,0-4.7,1.2c-0.4,0.8-0.9,1.6-0.5,2.8   c1.1,0.1,2.1,0.1,3.1,0.2c0.2,0.3,0.5,0.4,0.8,0.3c1.8-0.6,3.7-0.8,5.2-2.1c0.6-0.5,1.2-1.1,2.4-0.2c-2.8,2.6-5.8,4.2-9.5,4.5   c0.7,0,1.4,0,2.1,0c1.6,0.2,3.1-0.2,4.5-1.1c1.9-1.3,3.9-2.4,6.5-2.2c1,0.8,2.5,0.8,4,0.7c4.8-0.2,9.6,0.1,14.4,0.8   c3,0.4,6,1.4,9.1,1.2c5.7-0.4,11.5,0,17.3-0.4c4.7-0.3,9.5-0.5,14.2-0.7c1.7,0,3.5-0.2,5.1-0.6c3.8-0.9,7.6-1.1,11.4-1.7   c4.5-0.7,9-1.3,13.5-2.1c4.2-0.7,8.4-1.5,12.6-1.6c4.8-0.1,9.4-0.8,14.1-1.2c6.6-0.5,13.2-1.2,19.8-1.4c1.5,0,3-0.6,4.5-0.3   c2.3,0.5,4.6,0.4,6.8,0.3c6.3-0.1,12.6,0.3,18.9,0.6c5.3,0.3,10.5,1.2,15.8,0.4c3.5-0.5,7-0.9,10.5-1.2c2.7-0.2,5.4-0.9,8.2-0.2   c0.6,0.1,1.2,0.8,2.1,0.3c-0.2-1.6-0.3-3.2-0.5-4.9c-1.6,0.8-2.8,2.2-4.7,1.7c-0.1-0.6,0-1.1,0.6-1.2   C229.1,351.1,230,350.9,230.7,350.3z M808.6,353.7c2.5-0.8,5-0.5,7.4-0.3c1,0.1,2.1,0,2.9,0.7c0.5,1.2-1,1.3-1.3,2.2   c1.6,0.4,2.7,1.4,3.9,2.3c1.9,1.3,3.8,1.7,6,1.4c1.9-0.2,4-0.4,5.9-0.1c2.1,0.4,4.2,0.4,6.3,0.5c2.3,0,4.7-0.2,7.1,0.3   c1.3,0.3,2.8,0.4,4.2-0.1c1.2-0.4,2.3-0.3,3.5-0.1c2.7,0.6,5.3,1.2,8,1.8c2,0.8,4.2,0.2,6.2,0.9c1.4,0.5,2.4,0,3.2-1.3   c-0.9-0.5-1.8-0.9-2.8-1.2c-3.2-1-6.4-2.1-9.5-3.3c-1.6-0.6-3.2-1.3-4.8-2c-0.4-0.2-0.9-0.4-0.9-1c0.6-1.2,1.5-0.5,2.2-0.2   c3.5,1.7,7.3,2.4,10.9,3.7c3.2,1.2,6.8,1.1,10.2,1.3c1.9,0.1,3.9,0,5.8,0.4c1.6,0.4,3.4,0.6,5.2-0.8c-4-0.7-7.4-2.2-11-2.8   c-5.9-1-11.5-3.1-17.4-4.1c-2.5-0.4-4.9-1.3-7.2-2.3c-0.5-0.6,0.5-0.9-0.1-1.5c-0.3-0.4-1-0.2-1.6-0.2c-0.8,0-1.6,0.1-2.4-0.1   c-2.1-0.5-4.1-1-6.2-0.8c-0.9,0.1-1.8-0.1-2.8-0.3c-4.2-1-8.2-2.5-12.2-3.8c-1.5-0.5-2.9-1.2-4.5-1.2c-4.5,0.1-8.9-0.3-13.4-0.9   c-2.6-0.4-5.3-0.7-8-0.9c-2.6-0.2-5.2-0.6-7.8-0.4c-4.3,0.4-8.5,0.2-12.8,0.3c-2.6,0.1-5.2-0.1-7.6-1.1c-0.7-0.3-1.4-0.3-2.1-0.4   c-4-0.7-8.1-1.3-12-2.4c-4.7-1.3-9.4-2.4-14.2-2.9c-3-0.3-6-0.2-9-0.5c-6.3-0.5-12.7-0.9-19-1.3c-1.3-0.1-2.7-0.3-4-0.4   c-0.7-0.1-1.3-0.4-1.7-1.1c-0.3-0.4,0.2-0.7,0-1.2c-2.2-1.2-4.5-2.4-6.8-3.6c-3.4-1.8-6.9-3.5-10-5.7c-6.9-4.7-14-9.1-21.1-13.5   c-4.4-2.8-8.4-5.9-12-9.5c-1.4-1.4-2.5-2.9-3.1-4.7c-0.4-1-0.9-1.8-1.6-2.5c-5.6-6-11.5-11.7-17.8-17c-0.4-0.3-0.7-0.7-1.1-0.9   c-2.4-1.2-4.9-2.2-7.1-4c-0.7-0.6-1.4-0.9-2.2-1.3c-1.4-0.6-2.6-1.4-3.6-2.4c-0.4-0.5,0.6-0.8,0.1-1.3c-5.7-3.9-12.9-6.9-20-7.5   c-5.5-0.4-11.1-0.6-16.4,0.9c-5.1,1.4-9.6,3.9-12.7,8.4c-2.3,3.5-3.9,7.3-5.3,11.2c-1.1,2.8-0.7,5.7,0.5,8.5c1.2,3,3,5.5,5.2,7.8   c3,3.1,6.5,5.2,10.4,6.7c2.6,1.1,4.8,2.8,7.4,3.7c4.9,1.7,9.7,3.5,14.8,4.5c0.7-0.3,1.5-0.6,2.5-1c-2.2-1.5-4.1-3.2-6.2-4.5   c-2.1-1.2-4.1-2.6-6.1-4c-0.7-0.5-1.5-1-1.1-2.1c1.4-0.1,2.4,0.7,3.5,1.2c1.3,0.7,2.3,1.9,3.9,2.1c4.3,2.3,8.5,4.8,12.3,7.8   c3.3,2.6,6.2,5.6,9.2,8.6c1.8,1.8,3.6,3.7,6.2,4.5c0.4,0.1,0.8,0.6,1,1c0.4,0.8,1.2,1.2,1.9,1.7c3.1,1.9,6.3,3.6,9.3,5.6   c3.4,2.3,7,4.2,10.8,5.8c1.6,0.7,3.2,1.4,4.7,2.1c6.8,3.2,13.6,6.6,20.5,9.7c4.3,1.9,8.7,3.6,12.9,5.7c4.3,2.1,8.9,3.3,13,5.7   c2,1.2,4.5,1.7,6.8,2.5c0.3,0.1,0.6,0.2,0.9,0.2c5.2-0.3,10.4,0,15.6-0.6c0.6-0.1,1.2,0,1.6,0.3c1,0.7,2.2,0.5,3.2,0.3   c3.4-0.6,6.9-0.5,10.4-0.6c7.3-0.4,14.7,0.1,22,0.3c1.7,0,3.5,0.3,5.2,0.4c2.2,0.2,4.4-0.1,6.6-0.4c3.7-0.4,7.3-0.9,11-1.2   c4.2-0.3,8.4-1,12.5-0.5s7.9-0.1,12-1c-0.8-0.3-1.5-0.3-2.2-0.2c-1.3,0-2.5-0.5-3.6-1C808.7,354.7,808.4,354.3,808.6,353.7z    M599,306.3c-4.2-1.8-8.3-3.6-12.3-5.9c-0.7-0.4-1.4-0.6-2.2-0.9c-2.3-0.8-4.5-1.8-6.5-3.1c-3.5-2.3-6-5.5-7.9-9.2   c-2.7-5.4-2.7-10.7,0.3-16c0.9-1.5,1.7-3,2.3-4.6c0.5-1.3,1-2.6,1.7-3.9c2-3.6,4.2-7.1,8-9.1c5.1-2.6,10.5-3.8,16.1-3.2   c5.2,0.6,10.4,1.5,15.3,3.3c5.9,2.1,11.5,4.6,15.5,9.8c0.4,0.5,0.9,0.9,1.6,0.9c-1.1-2.3-2.2-4.3-3-6.5c-0.4-1.1-0.9-1.9-1.9-2.5   c-3.4-1.9-6.9-3.8-10.1-6c-3.7-2.5-7.6-4.8-11.3-7.2c-1.3-0.8-2.6-1.7-4.1-2.2c-7.3-2.6-14.8-3.9-22.6-4.4c-2.5-0.2-5-0.3-7.6-0.5   c-5.3-0.5-10.7-0.8-16-0.4c-5.7,0.5-11.3,1.6-17,2.7c-4.1,0.8-8.1,1.7-12.2,2.6c-2.7,0.6-5.4,1.1-8,1.9c-2.7,0.9-5.4,2.1-8,3.2   c-4.6,2-9.4,3.7-14.3,5.1c-5.9,1.8-11.8,3.4-17.9,4.4c-3.6,0.6-7.1,1-10.8,1.3c-1.5,0.1-3,0.3-4.4,0.5c-3.5,0.6-7,1.1-10.5,1.2   c-3.7,0.2-7.4,0.1-11.1,0.1c-0.8,0-1.6-0.2-2.4,0.2c-0.1,1.7,0.2,3.4,0.4,5.1c0.5,4.1,1.3,8,2.3,12c0.8,3.4,2.4,6.5,3.3,9.8   c0.6,2.3,1.4,4.5,2.3,6.6c3.1,6.9,7.2,13.3,11,19.9c1.8,4.2,2.9,8.7,4,13.1c1.7,0.3,3.2,0.2,4.7-0.6c0.7-0.4,1.5-0.5,2.2-0.7   c5.9-1.5,12-2.2,18.1-2.7c4.2-0.4,8.5-0.8,12.8-0.5c0.7,0,1.5,0.2,2.1-0.2c1.4-0.8,2.8-0.8,4.4-0.8c0.8,0,1.5-0.1,2.3-0.2   c1.7-0.3,3.4-1,5.1-0.6c2,0.4,4.1,0.2,6.1,0.5c4.5,0.7,8.9,0,13.3-0.5c2-0.2,4-1,6-0.7c0.5,0.2,0.9,0.7,1.1,1.2   c0.9,2.5,2.6,4.7,3.6,7.1c0.7,1.5,1.8,2.5,3.1,3.4c2.6,1.8,5.5,2.8,8.4,3.9c5.1,2,10.4,2,15.7,0.6c2.2-0.6,4.3-1.5,6.4-2.4   c4.7-2.1,9.2-4.4,12.8-8.2c1.6-1.7,3.3-3.2,4.9-4.7c1-0.9,2.1-1.7,2.9-2.8c-0.1-0.3-0.3-0.7-0.2-0.8c1.8-3.2,5.3-4.2,8.2-6.3   C603,307.6,601,306.9,599,306.3z M372.9,292.9c-0.6,0.4-1.1,0.9-1.5,1.6c0.4,0.8,0.4,1.9-0.6,2.1c-1.3,0.2-2.5,0.9-3.8,1.2   c-5.4,0.9-10.8,1.6-16.2,2.4c-5.7,0.8-11.3,1.9-16.9,2.8c-0.2,0-0.6,0.1-0.7,0.2c-0.8,1.7-2.5,1.3-3.9,1.7   c-4.4,1.1-8.9,1.4-13.4,2.3c-7.4,1.5-14.8,3.2-22.1,5.3c-3.2,0.9-6.6,1.5-9.7,2.5c-2.7,0.9-5.3,1.2-8.1,1.2c-0.2,0-0.3-0.1-0.2-0.3   c0.4-0.3,0.9-0.6,1.4-1c-1-0.1-1.8-0.3-2.4,0.4c-1.1,1-2.3,1.2-3.6,0.6c-4.6,3.1-6.1,2.8-10.1-0.2c-1.4,0.2-2.9-0.4-4.4-0.3   c-1.6,0-2.8-0.8-4-1.5c-0.2,0.2-0.4,0.3-0.5,0.4c-1.1,1.2-2.5,2.1-4.1,1.9c-1.7-0.2-3.5-0.1-4.5-2c-0.2-0.3-0.8-0.5-1.2-0.6   c-1.9-0.2-3.8-0.8-5.8-0.7c-0.8,0-1.6,0.2-2.2,0.8c0,0.3-0.1,0.6,0,0.9c0.8,2.8,0.7,5.8,1.2,8.7c0.5,3,0.3,6.2,0,9.2   c-0.4,3.8-0.5,7.7-0.8,11.5c-0.2,2.8-0.1,5.5,0,8.3c0,1.8,0.4,3.7,0.1,5.6c1.6-0.2,2.9-0.4,4.2-0.6c1.1,0.3,2.1-0.3,3.2-0.4   c2.3-0.1,4.5-0.6,6.8-0.8c1.8-0.2,3.6-1.3,5.5-0.4c1.2,0.5,2.4,0.7,3.7,0.9c1.9,0.3,3.9,0.7,5.8,1.1c3.6,0.7,7.1,1.1,10.8,0.4   c1.8-0.3,3.8-0.2,5.7-0.1c1.1,0.1,2.1,0.5,3.2,0.5c11.3,0.1,22.6-0.5,33.9,0.4c2.7,0.2,5.5,0.6,8.2,0.9c2.9,0.3,5.8,0.3,8.8,0   c2.4-0.2,4.8-0.6,7.2-0.9c2.9-0.4,5.8-0.7,8.7-1.1c4.2-0.6,8.4-1.2,12.6-1.7c3.1-0.4,6.2-0.7,9.4-1.1c3.7-0.4,7.3-0.9,11-1.3   c2.6-0.3,5.1-0.7,7.5-1.7c4.3-1.8,8.6-3.8,13-5.5c7.4-2.8,14.6-6,22.1-8.6c0.3-0.1,0.7-0.3,0.7-0.7c-0.2-0.3-0.7-0.1-0.6-0.9   c8.7-3.3,18.1-4.5,27-7.2c1.5-3,1.6-3,6.1-4.9c-0.8-1.2-0.6-2.7-1.5-3.8c-0.3-1.7-1.1-3.3-1-5c0-0.4-0.3-0.7-0.5-1.1   c-0.9-1.5-1.7-3-2.7-4.4c-5.2-7.1-9.2-14.9-11.8-23.3c-1.6-5.3-3.5-10.5-4.7-15.9c-0.9-4.2-1.6-8.4-1.7-12.8   c-1.7-0.2-3.2-0.9-4.9-0.5c-2.2,0.5-4.5,0.8-6.7,0.7c-6.3-0.1-12.4,0.7-18.2,3.2c-9.2,4-17.2,9.7-24,17.1c-1.9,2-3.7,4.1-4.5,6.8   C376.2,288.2,375.1,290.9,372.9,292.9L372.9,292.9z M590.5,325.4c0.1,0.4,0.2,0.6,0.3,0.8c0.2,1.7,0,3.5-1.5,4.4   c-2.3,1.4-3.9,3.6-6.4,4.6c0.7,1.1,1.6,1,2.4,0.8c2.6-0.6,4.7-1.9,5.6-4.6c0.7-2,1.1-4.1,0.9-6.2c0-0.1-0.1-0.2-0.2-0.3   C591.3,325,591,325.2,590.5,325.4z M509.3,356.9c-1.9-2-3.8-1.4-5.5-1.3c-0.8,0.6-1.2,1.4-1.4,2.2c1.6,1.1,3,2.4,5.2,1.8   C508,358.7,508,357.6,509.3,356.9z M730.9,286.4c-1.2,6.3-2.3,12.5-3.4,18.8c0.3-0.2,0.5-0.3,0.5-0.5c1.5-3.8,1.9-7.9,3.2-11.8   c0.1-0.2,0.1-0.5,0-0.7c-0.7-1.1-0.2-2.1,0-3.2C731.4,288.2,731.5,287.3,730.9,286.4z M8.9,366.1c1.1-0.4,2.2-0.1,3.4-0.3   c-0.3-0.6-0.9-0.9-0.7-1.9c0.6-0.6,1.9-1.2,1.1-2.7c-1.4-0.4-2.4,0.5-3.4,1.2C8,363.5,7.9,364,8.9,366.1z M589,326.3   c-0.8,1.2-1.6,1.9-2.5,2.5c-2.5,1.6-5.4,2.9-6.9,6c3.6-1.2,6-3.5,8.5-6C588.6,328.2,588.9,327.6,589,326.3z M659.5,341.6   c1-0.6,2.3-0.3,4-0.7c-2.2-1.2-4-2.2-6.1-2.9C657.1,339.8,657.7,341,659.5,341.6z M483.7,324.6c-4.5,0.6-9,1.2-13.5,1.8   C474.8,326.8,479.3,326.4,483.7,324.6z M710.8,263.9c-0.1-0.9,0.8-1.6,0.3-2.5c-0.6-1-0.1-1.8,0.3-2.6c0.3-0.6,1.1-1,0.8-1.8   C709,258.2,708.7,259.5,710.8,263.9z M691.3,313.4c-0.3-1.4-0.2-2.5,0.1-3.6c0.3-1.3-0.1-2.5-1.3-3.6c-0.2,1.5-0.2,2.7-0.3,4   C689.6,311.3,689.6,312.7,691.3,313.4z M707.2,313.7c-0.1-0.1-0.3-0.2-0.4-0.3c-1,2.1-2.1,4.1-2.7,6.4c-0.2,0.6,0,0.9,0.7,1.1   C705.6,318.5,706.4,316.1,707.2,313.7z M14.3,358.6c-1.6-0.4-3-0.2-4.4,1.2C11.7,359.6,13.2,359.8,14.3,358.6z M709.6,315   c1-0.7,1.6-1.7,1.2-3C709.9,312.8,709.9,314,709.6,315z M692,285.2c0.4,1.6,0.4,1.6,1.3,1.8C693.3,286.1,692.6,285.8,692,285.2z    M711.6,308.5c0.2-0.6,1-0.9,0.5-1.8C711.4,307.2,711.1,307.7,711.6,308.5z" />
	<path fill="#B1AEAE" d="M616.2,318c1.1,0.1,1.9,0.9,2.7,1.5c-1.5,0.3-2.3-0.8-3.3-1.5C615.8,318.1,616,318,616.2,318z" />
	<path fill="#949192" d="M616.2,318c-0.2,0-0.4,0-0.6,0c-0.5-0.2-1.1-0.4-1.7-1.3C615,317,615.7,317.3,616.2,318z" />
	<path fill="#F69878" d="M239.2,357.3c-1.3,0.2-2.6,0.4-4.2,0.6c0.3-2,0-3.8-0.1-5.6c-0.1-2.8-0.2-5.5,0-8.3   c0.3-3.8,0.4-7.7,0.8-11.5c0.3-3,0.5-6.2,0-9.2c-0.5-2.9-0.4-5.9-1.2-8.7c-0.1-0.3,0-0.6,0-0.9c0.6-0.6,1.4-0.7,2.2-0.8   c2-0.1,3.9,0.5,5.8,0.7c0.4,0,1.1,0.2,1.2,0.6c1,1.9,2.8,1.8,4.5,2s3-0.7,4.1-1.9c0.1-0.1,0.2-0.2,0.5-0.4c1.2,0.7,2.5,1.5,4,1.5   c1.5,0,2.9,0.6,4.4,0.3c4,3,5.5,3.3,10.1,0.2c1.3,0.6,2.6,0.4,3.6-0.6c0.7-0.6,1.4-0.5,2.4-0.4c-0.6,0.4-1,0.7-1.4,1   c-0.1,0.2,0,0.3,0.2,0.3c2.8,0,5.3-0.2,8.1-1.2c3.1-1.1,6.5-1.6,9.7-2.5c7.3-2,14.6-3.8,22.1-5.3c4.4-0.9,9-1.2,13.4-2.3   c1.4-0.4,3.1,0,3.9-1.7c0.1-0.1,0.4-0.2,0.7-0.2c5.6-1,11.2-2,16.9-2.8c5.4-0.8,10.8-1.5,16.2-2.4c1.3-0.2,2.5-0.9,3.8-1.2   c1-0.2,1-1.2,0.6-2.1c0.4-0.7,0.9-1.2,1.5-1.6c-0.1,0.6,0.3,1,0.7,1.3c0.3,0.3,0.8,0.5,0.7,1.1c-1,0.8-0.6,1.7-0.2,2.5   c1.4,2.6,3.2,4.8,5.5,6.7c0.3,0.2,0.6,0.5,1.2,0c-2.2-3.1-4.4-6.2-6.6-9.3c0.7,0,1.1,0.5,1.7,0.8c3.7,2.5,7,5.6,10.2,8.8   c0.6,0.7,1.1,1.6,2.3,1.9c-0.2-1.2-0.9-1.9-1.7-2.5c-3.2-4.2-6.9-7.9-11.5-10.6c-0.7-0.4-1.4-1.1-2.4-0.7c2.3-2.1,3.4-4.8,4.2-7.7   c0.8-2.7,2.7-4.8,4.5-6.8c6.8-7.4,14.8-13.1,24-17.1c5.7-2.5,11.9-3.2,18.2-3.2c2.2,0,4.5-0.2,6.7-0.7c1.7-0.4,3.2,0.3,4.9,0.5   c0.1,4.4,0.8,8.6,1.7,12.8c1.2,5.4,3.1,10.6,4.7,15.9c2.6,8.4,6.6,16.2,11.8,23.3c1,1.4,1.8,2.9,2.7,4.4c0.2,0.3,0.5,0.7,0.5,1.1   c-0.1,1.8,0.7,3.3,1,5c-1.4-0.9-2.4-2.2-3.8-3.1c-1.6-1.1-3.3-1.5-5.1-1c-2,0.6-4,1.1-6,1.8c-3.1,1.2-6.4,1.7-9.6,2.3   c-1.9,0.4-3.6,1-4.4,3c-0.3,0.7-0.5,1.5-1.1,1.9c-5.2,1.8-10.3,3.4-15.4,5.3c-3.7,1.4-7.4,2.8-10.9,4.5c-4.2,2-8.3,4.2-12.5,6.3   c-0.5,0.2-0.9,0.6-1.5,0.7c-3.4,0.7-6.7,1.6-10.1,2.4c-4.6,1.1-9.2,2.3-13.8,3.6c-3,0.8-5.9,1.6-8.8,2.6c-3.4,1.2-7.1,1-10.6,1.3   c-4,0.3-8,0.7-12,0.6c-9.6-0.2-19.2,0.6-28.8-0.4c-2-0.2-4.1-0.3-6-0.4c-3.3-0.1-6.5-0.7-9.8-0.6c-3.9,0.1-7.9,0.5-11.7-0.5   c-1.7-0.4-3.5-0.1-5.1-0.5c-3.2-0.8-6.2-0.5-9,1.1c-0.9,0.5-2.1,0.7-2.8,1.6c-0.4,0.5-1,0.3-1.2,0.3c-2.9-1.2-4-4-5.9-5.4   c-4.3-1.2-7.4,1.1-10.8,2.3c-1.2,0.4-2,1.5-2.8,2.3c-0.5,1.7,0.4,2.9,1.3,4C239.5,356.7,239.3,357,239.2,357.3z M411.8,298.6   c0.3,0.1,0.5,0.2,0.9,0.3c0-0.3,0-0.5,0.1-0.7c0-0.2,0.2-0.4,0.3-0.6c2.1-0.7,4-1.7,6.2-2.2c1.1,0.9,0.9,2.6,2.4,3.2   c0.4-1.4-0.8-2.5-0.7-3.9c1.6-0.5,3.2-1,4.9-1.6c1.6-0.5,3.1-1,4.7-1.5s3.3-0.9,4.9-1.5s3.4,0.1,4.9-1c-0.3-0.4-0.4-0.8-0.8-0.8   c-1.6,0-3.1-0.2-4.6,0.3c-2.9,1-5.8,1.7-8.7,2.6c0-0.4,0-0.8,0.2-1.1c0.9-1.3,0.8-2.5-0.1-3.9c-0.4-0.6-0.8-1.2-1.3-1.7   c-1.8-1.7-3.8-3-5.3-4.9c-5.2-0.2-9.2,1.6-11.7,6.2c-0.3,0.5-0.7,0.9-1.1,1.2c-0.7,0.7-1.5,1.4-2.2,2.2c-1.5,1.7-2.7,3.5-1.6,5.9   c0.2,0.4-0.2,0.5-0.5,0.6c-0.3,0-0.6,0-0.9,0.5c0.5,2.2,2.3,3.8,3.2,6c-0.5,0.6-1.3,0.8-2,1.1c-3.2,1.3-6.2,3.1-8.9,5.2   c-2.3,1.8-4.8,3.2-7.6,4.2c-1.3,0.5-2.6,1.1-4.3,1.7c1.4,0.2,2.2,0.1,3.2-0.1c3.6-1,6.9-2.7,9.8-5.1c3.2-2.6,6.9-4.2,10.5-6.2   c1.7,1.9,2.5,4.3,4.8,5.8c-0.2-1.4-0.8-2.2-1.3-3.1c-1.3-2.3-2.6-4.6-3.9-6.9c0-0.3-0.1-0.6,0.3-0.8c0.9,0.4,1.8,0.9,2.7,1.3   C409.3,299.3,410.4,298.5,411.8,298.6z M265.8,330c0.4-0.8,1-1.3,0.7-2.1c-0.5-1.8-0.3-3.7-0.4-5.6c0-0.9-0.3-1.7-0.5-2.5   c-0.2-0.6-0.7-1.1-1.7-0.8c-1.2,2.6-0.6,5.4-0.1,8.1C264.1,328.2,264.2,329.5,265.8,330z M257.3,323.3c-0.4,0-0.7,0.2-0.7,0.5   c0,3.8,1,7.5,1.6,11.2c1,0,1.3-0.6,1.2-1.1c-0.5-2.9-0.4-5.9-1.2-8.8C258,324.4,257.8,323.8,257.3,323.3z M377.7,291.2   c1.7,2,7.3,5.8,9.5,6.3c-2.3-3-5-5.2-8.2-6.7C378.5,290.6,378.1,290.5,377.7,291.2z M271.8,318.9c-1.3,1.9-1.2,3.7,0.3,4.9   C273.2,322.2,273.1,320.7,271.8,318.9z M261.3,321.5c1.2-1,1.3-2.1,1-3.1c-0.2-0.7-0.4-1.7-1.7-1.6   C260.3,318.4,260,320,261.3,321.5z M251.9,316.5c0,1.3-0.3,2.4,1,3C253.6,317.8,253.6,317.8,251.9,316.5z M281.8,320.1   c0.6-0.4,1-0.8,0.9-1.4s-0.5-1-1.1-1C280.6,318.7,280.6,318.7,281.8,320.1z" />
	<path fill="#FFF1A8" d="M457.2,311.4c-3.8-6.5-7.9-12.9-11-19.9c-1-2.1-1.7-4.4-2.3-6.6c-0.9-3.3-2.5-6.4-3.3-9.8   c-0.9-4-1.8-7.9-2.3-12c-0.2-1.7-0.5-3.4-0.4-5.1c0.8-0.4,1.6-0.2,2.4-0.2c3.7,0,7.4,0,11.1-0.1c3.5-0.2,7-0.6,10.5-1.2   c1.5-0.3,3-0.4,4.4-0.5c3.6-0.3,7.2-0.7,10.8-1.3c6.1-1.1,12-2.6,17.9-4.4c4.8-1.5,9.6-3.1,14.3-5.1c2.6-1.2,5.3-2.3,8-3.2   c2.6-0.8,5.3-1.4,8-1.9c4.1-0.9,8.1-1.8,12.2-2.6c5.6-1.1,11.2-2.2,17-2.7c5.3-0.4,10.7-0.1,16,0.4c2.5,0.2,5,0.4,7.6,0.5   c7.7,0.5,15.3,1.8,22.6,4.4c1.5,0.5,2.8,1.4,4.1,2.2c3.8,2.4,7.6,4.7,11.3,7.2c3.3,2.2,6.7,4,10.1,6c1,0.6,1.5,1.3,1.9,2.5   c0.8,2.2,1.9,4.3,3,6.5c-0.7,0.1-1.2-0.3-1.6-0.9c-3.9-5.2-9.6-7.6-15.5-9.8c-4.9-1.8-10.1-2.7-15.3-3.3   c-5.6-0.6-11.1,0.6-16.1,3.2c-3.8,2-6,5.5-8,9.1c-0.7,1.2-1.2,2.5-1.7,3.9c-0.6,1.6-1.5,3.1-2.3,4.6c-3,5.3-3.1,10.6-0.3,16   c1.9,3.7,4.4,6.9,7.9,9.2c2,1.3,4.2,2.3,6.5,3.1c0.7,0.3,1.5,0.5,2.2,0.9c3.9,2.3,8.1,4.1,12.3,5.9c-1.1,1.3-2.9,1.7-4,3.1   c-0.1,0.1-0.3,0.1-0.4,0.1c-2.3,0.1-4.2,1.4-5.8,2.7c-3.4,2.6-7.1,4.8-10.1,8c-0.2,0.2-0.4,0.5-0.7,0.6c-2,0.9-3.5,2.6-5.2,3.9   c-1.1,0.8-2.1,1.9-3.6,1.9c-3,0.1-5.9-0.2-8.8-0.9c-2.2-0.5-4.4-0.9-6.5-1.5c-2.4-0.6-4.8-1.4-6.7-3c-1.4-1.1-2.8-2.4-2.6-4.5   c0-0.1-0.1-0.3-0.1-0.4c-0.4-0.5-0.8-0.9-1.3-1.5c0-0.7,0-1.5,0-2.2c-1.7-1.8-3.1-3.7-5.7-4.1c-0.5-2.3-0.9-4.6-1-7   c0-1.5,0-3,0-4.6c-0.9-0.7-1-2.1-2.2-3.1c-0.1,1.2-0.5,2-1.1,2.8c-1.3,1.6-1.9,3.7-2.3,5.8c-0.5,2.6-0.7,5.3-1.1,7.9   c-0.8-1.4-2.1-2.1-3.3-3c1.8-3.1,2.6-6.2,1.5-9.6c-0.8-2.4-1.4-4.2-5-3.7c-1.2,0.9-1.7,2.3-2.2,3.7c-0.7,2-1.5,4-3,5.7   c-1,1.2-1.9,2.5-2.2,4.1c-0.1,0.4,0.2,1-0.6,1.1c-1.5-2.3-3.6-3.5-6.5-3.3c-1.6,0.1-3.2,0.1-4.7,0c-2.5-0.2-5,0.2-7.5,0.6   c-3.6,0.6-7.1,1.1-10.7,1.8c-2,0.4-4.2,0.7-6,1.5c-1.6,0.7-3.1,0.9-4.8,0.9c-0.2-1.7-0.7-3.2-1.4-4.8c-2.7-10.6-6.9-20.7-10.5-31.1   c-0.2-0.6-0.5-1.3-1.2-1.6c-0.8,0.9-0.1,1.7,0.1,2.5c1.2,3.4,2.3,6.9,3.5,10.3c2.5,7.1,5.1,14.2,7.6,21.4c-0.2,1,0.6,1.9,0.5,2.9   c-1-0.8-2.3-0.2-3.2-0.6c-0.3-0.3-0.4-0.4-0.5-0.5c-2.1-3.3-5.6-3.7-8.4-0.9C460,308.9,458.3,309.8,457.2,311.4z M454.1,262.2   c-0.5,0.9-0.2,1.9,0,2.9c2.2,9.3,4.6,15.9,6.7,18.2c-1.6-7.1-3.9-13.4-5.7-19.9C455,262.9,455,262.2,454.1,262.2z M466.6,271.1   c-0.4,0.1-0.7,0.4-0.6,0.6c0.7,2.5,0.9,5.1,2.3,7.7C469,276.5,468.2,272.9,466.6,271.1z M542.6,308.9c1.2-1.1,1.2-1.1,0.3-2.2   c-0.6,0.4-1.2,0.7-1.1,1.6C541.9,308.6,542.1,308.9,542.6,308.9z" />
	<path fill="#F6DAC8" d="M605.5,298.2c-1.6-0.1-2.6-1.4-3.9-2.1c-1.1-0.6-2.1-1.4-3.5-1.2c-0.4,1.2,0.4,1.7,1.1,2.1   c2,1.4,4,2.8,6.1,4c2.2,1.3,4,3,6.2,4.5c-1,0.4-1.8,0.7-2.5,1c-5.1-1.1-9.9-2.9-14.8-4.5c-2.7-0.9-4.8-2.7-7.4-3.7   c-3.9-1.6-7.4-3.7-10.4-6.7c-2.2-2.3-4-4.8-5.2-7.8c-1.1-2.8-1.5-5.7-0.5-8.5c1.4-3.9,3-7.7,5.3-11.2c3.1-4.6,7.6-7,12.7-8.4   c5.4-1.5,11-1.4,16.4-0.9c7.1,0.6,14.3,3.6,20,7.5c0.5,0.5-0.5,0.8-0.1,1.3c1,1,2.3,1.8,3.6,2.4c0.8,0.4,1.6,0.7,2.2,1.3   c2.1,1.8,4.6,2.8,7.1,4c0.4,0.2,0.8,0.5,1.1,0.9c6.3,5.3,12.2,11,17.8,17c0.7,0.7,1.3,1.5,1.6,2.5c0.6,1.8,1.8,3.3,3.1,4.7   c3.6,3.6,7.7,6.8,12,9.5c7.1,4.4,14.2,8.8,21.1,13.5c3.2,2.2,6.6,3.9,10,5.7c2.3,1.2,4.6,2.4,6.8,3.6c0.2,0.5-0.3,0.8,0,1.2   c0.4,0.7,1,1,1.7,1.1c1.3,0.2,2.7,0.3,4,0.4c6.3,0.5,12.7,0.8,19,1.3c3,0.2,6,0.2,9,0.5c4.9,0.5,9.5,1.6,14.2,2.9   c3.9,1.1,8,1.7,12,2.4c0.7,0.1,1.4,0.2,2.1,0.4c2.5,0.9,5,1.1,7.6,1.1c4.2-0.1,8.5,0,12.8-0.3c2.6-0.2,5.2,0.2,7.8,0.4   c2.7,0.2,5.3,0.5,8,0.9c4.4,0.6,8.9,1,13.4,0.9c1.6,0,3,0.7,4.5,1.2c4.1,1.4,8.1,2.8,12.2,3.8c0.9,0.2,1.9,0.4,2.8,0.3   c2.2-0.2,4.2,0.3,6.2,0.8c0.8,0.2,1.6,0,2.4,0.1c0.6,0,1.3-0.2,1.6,0.2c0.5,0.7-0.4,0.9,0.1,1.5c2.2,1,4.7,1.9,7.2,2.3   c5.9,1,11.5,3.1,17.4,4.1c3.6,0.6,7.1,2.1,11,2.8c-1.8,1.3-3.7,1.1-5.2,0.8c-2-0.4-3.9-0.3-5.8-0.4c-3.4-0.2-7-0.1-10.2-1.3   c-3.6-1.3-7.4-2-10.9-3.7c-0.7-0.4-1.6-1-2.2,0.2c0,0.6,0.4,0.8,0.9,1c1.6,0.7,3.2,1.4,4.8,2c3.2,1.1,6.3,2.2,9.5,3.3   c1,0.3,1.9,0.7,2.8,1.2c-0.8,1.2-1.8,1.8-3.2,1.3c-2-0.7-4.2-0.1-6.2-0.9c0-0.4-0.3-0.5-0.6-0.6c-2.1-1.1-4.5-1.6-6.7-2.4   c-1.6-0.6-3.2-0.2-4.8-0.8c-0.5-0.2-0.8,0.4-1.3,0.5c-0.3,0-0.6-0.1-0.9-0.1c-0.9-0.9-1.8-0.2-2.7-0.2c-0.3-0.3,0-0.8-0.5-1.1   c-0.6-0.1-1.3-0.3-1.9,0.2c-0.3,0.5,0.1,1.2-0.6,1.7c-0.4,0-0.8,0-1.3,0c-5.2,0.4-10.4-0.5-15.7-1.2c-0.4-0.4,0.2-1.2-0.5-1.6   c-0.2,0-0.4,0-0.7,0c-0.5,0.1-0.9-0.4-1.3-0.5c-1.6-0.2-3.1-0.7-4.3-1.9c-0.9-0.7-1.9-0.6-2.9-0.7c-2.5-0.2-5-0.5-7.4,0.3   c-0.4,0-0.7,0-1,0c-1.1,0.2-2.2-0.5-3.3,0c-0.4,0-0.7,0-1.1,0c-0.5-0.4-1.1-0.5-1.8-0.6c-0.8-0.1-1,0.4-0.9,1c-1.1,0-2.1,0-3,0   c-0.6-0.7,0.2-2.1-1.3-1.9c-1,0.3-1.4,0.9-0.7,1.8c0.2,0,0.5,0,0.7,0c-0.1,0.5-0.4,0.5-0.8,0.6c-2.8,0.3-5.5-0.1-8.2-0.6   c-3.3-0.7-6.6-0.8-9.9-1.2c-4.4-0.5-8.9,0.2-13.4,0.5c-1.2,0.1-2.5,0.2-3.7,0.5c-2.4,0.7-4.9,0.7-7.4,0.8   c-6.9,0.3-13.9,0.1-20.8,0.1c-0.6,0-1.3,0.1-1.9-0.1c-2.8-0.8-5.6-1.7-8.4-2.5c-1.1-0.3-1.9-0.9-2.8-1.5c-0.9-0.6-1.7-1.4-2.6-2   c-2-1.3-3.8-2.8-6.2-3.5c-1.7-0.5-2.8-0.2-3.9,0.9c0,0.9,0,1.7,0,2.2c0.6,1.4,2.2,1.4,2.6,2.9c-1.7-0.2-3.1-0.5-4.3-1.5   c-3.4-2.7-7.1-4.7-10.9-6.7c-2.9-1.6-5.8-3-8.8-4.3c-3.1-1.4-6.1-3.1-9.1-4.7c-5.5-2.8-11-5.8-16.7-8.2c-1.9-0.8-3.6-2.2-5.4-3.2   c-2.8-1.6-5.6-3.4-8.1-5.4c-3.7-2.9-7.5-5.8-11.3-8.6c-4.6-3.4-9.2-6.9-13.8-10.4c-4.1-3.1-8.1-6.3-12.4-9c-2.4-1.5-5-2.5-7.9-2.3   c-2,0.2-2.9,1.1-3,3.2c3,2.6,6.7,4.6,9.3,8C606.1,298.1,605.8,298.1,605.5,298.2z M594.8,292.3c-0.1-1.2-1.3-1.4-2.1-2   c-0.4-0.3-0.8-0.4-1.2,0C592,292.7,593.1,293.4,594.8,292.3z M621.8,262.3c-0.7-2-2.1-2.6-3.9-2   C618.9,261.5,620.2,261.8,621.8,262.3z M585.5,285.1c0.2,1.4,0.8,2.1,1.9,2c0.5-0.3,0.9-0.6,0.7-1.3   C586.8,284.8,586.8,284.8,585.5,285.1z M581.6,279.2c-0.8,1.7-0.4,2.3,1.6,2.7C583.3,280.5,583.3,280.5,581.6,279.2z M617.5,260   c-1.8-1.4-1.8-1.4-3.4-0.8c0.7,0.9,0.9,1,1.9,1.3C616.6,260.7,617,260.7,617.5,260z M610.9,257.8c-0.8-0.7-1.4-1.3-2.5-1.1   c-0.2,1-0.2,1.2,0.2,1.4C609.3,258.5,610.1,259.2,610.9,257.8z" />
	<path fill="#F6DAC8" d="M18.6,363.6c-1-0.1-2-0.1-3.1-0.2c-0.4-1.2,0.2-2.1,0.5-2.8c1.5-1.2,3.4-0.4,4.7-1.2c0.6-0.7,0-1.2,0-1.8   c2.3-3.1,4.6-6.1,6.9-9.2c0.7-0.9,1.5-1.5,2.7-1.7c3.2-0.6,6.1-2,9-3.2c3.6-1.5,7.3-2.3,11-3.2c2-0.5,4-1,5.8-1.6   c1.7-0.6,3.6-1.5,4.9-3c2.2-2.5,5-4.4,7.9-5.9c1.8-1,3.7-1.8,5.8-1.7c0.8,0,1.3-0.3,1.9-0.7c2.4,0.2,4.3,1.4,5.8,3.2   c1.2,1.4,2.5,2.7,3.9,3.8c1.6,1.4,3.2,3,5.7,1.9c0.2-0.1,0.6,0.1,0.9,0.2c3.3,0.7,6.5,1,9.9,1.1c1.7,0.1,3.3,0.2,4.9,0.3   c4.6,0.4,9.2,0.4,13.6-0.8c4.3-1.2,8.8-1.4,13.1-2.3c4-0.8,8.1-1.2,11.9-2.6c5.1-1.9,10.4-3.3,15.6-5.1c7.6-2.5,15.3-4.5,23.1-6   c1.3-0.2,2.6-0.4,4-0.6c1.1-0.2,2.1-0.4,3-1.1c1.4-1,3.2-0.9,4.7-1.2c5.5-0.9,11.1-1.3,16.7-1c3.9,0.2,7.8,0.9,11.6,1.6   c2.4,0.4,4.8,0.9,7.3,1.3c0.3,2.1,1.5,3.9,1.1,6.3c-0.5,3.1-0.3,6.3-0.7,9.4c-0.5,4.4-0.3,8.8-0.4,13.2c-0.5,0.8-0.9,1.4-1.9,1.4   c-0.5-0.1-0.9,0.1-1.4-0.2c-1.9-1.3-4.2-1-6.2-0.7c-3,0.5-6.1,0.1-9,0.8c-11.3-0.3-22.5,0.3-33.8-0.4c-8.9-0.5-17.8-0.1-26.8-0.1   c-5.5,0-11-0.4-16.3,1c-1.5,0.4-3,0.3-4.6,0.7c-1.3,0.4-2.7,0.6-4.1,0.7c-1.4,0.1-2.8,0.2-4.1,0.5c-1.9,0.4-3.8,0.6-5.7,0.9   c-1.7,0.3-3.5,0.2-5.1,0.6c-2.2,0.5-4.5,0.4-6.7,0.7c-2.6,0.4-5.3,0.5-7.8,1.2c-4.2,1.3-8.6,1.9-12.9,2.6   c-3.9,0.6-7.7,1.5-11.6,2.1c-3.3,0.5-6.6,1-9.9,1.2c-5.1,0.4-10.2,0.1-15.3,0.1c-1.3-1.1-2.7-1.9-3.7-1.9c-1.9,0.2-3.6-0.7-5.5-0.5   c0.2-0.7,0.6-0.8,1.1-1c2.4-1.3,4.6-2.8,6.8-4.4c0.8-0.6,1.4-1.5,1.5-2.6c0.1-1-0.6-1.4-1.2-1.8c-1.8-0.5-3.2,0.3-4.7,1.2   c-3,1.8-6,3.6-9,5.4c-0.7-0.5-1.3-1.1-2-1.5c-0.6-0.4-1-0.2-1.2,0.6c0.3,0.5,0.7,1.1,1,1.7c-0.8,1.4-2,2.5-3.8,2.5   c-0.4,0-0.5,0.3-0.5,0.6c0,0.1,0,0.2,0,0.3c-0.2-0.1-0.4-0.3-0.6-0.3C24.4,361.1,21.2,361.4,18.6,363.6z M187.5,339.8   c-0.3,0.1-0.6,0-0.8,0.4c1,1.3,2.1,0.3,3.2,0.2c1.1-0.6,2.2-0.7,3.4-0.2c0.5,0.2,0.9,0.2,1.4,0.2c4.2,0.4,8.3-0.7,12.4-0.5   c0.1,0,0.2,0,0.2,0c3.1-0.7,6.3-1,9.5-0.9c1.4,0,2.7-0.4,3.9-0.9c0.9-0.2,1.9-0.4,2.8-0.5c2.5-0.4,4.9-1.2,7-2.4   c0.2-0.6,0.3-1.1-0.1-1.3c-0.9-0.6-1.8-1.2-2.9-0.8c-0.7,0.3-1.3,0.4-2,0.1c-2.8-1.3-5.8-1.6-8.8-1.6c-4.1-0.1-8.1,0.6-12.1,0.8   c-4.3,0.3-8.6,0.2-12.9,0.5c-1.8,0.2-3.5,0.6-5.3,0.8c-1.4,0.2-2.5,0.8-3.2,2.1c0.1,0.6-0.2,1.2,0.3,1.9c0.9,0.7,1.4,2.2,3.1,1.9   C186.9,339.6,187.2,339.6,187.5,339.8C187.5,339.6,187.5,339.7,187.5,339.8z M76.9,345.1c0.9,0,1.7,0.1,2.5,0   c1.9-0.2,3.3-2,2.8-3.8c-0.3-1.2-0.8-2.4-1.4-3.4c-2.1-3.4-7.6-3.9-10-0.3c-1.2,1.7-1.5,3.4-1.2,5.3c0.4,0.6,1,1.2,1.7,1.7   c0.7,0,1.6,0.2,2.2-0.2C74.8,343.8,75.9,344.2,76.9,345.1z M95.7,349.4c-0.4,0.7-0.3,1.1,0,1.4c0.5,0.6,1.2,0.8,1.9,0.8   c2.6,0.1,4.9-0.5,7-2c0.1-0.1,0-0.3,0-0.4c-0.3-0.7-0.9-0.8-1.6-0.8C100.5,348.6,97.9,348.8,95.7,349.4z M58.2,351.8   c-0.9,1.7-0.9,2.6,0.1,3.5c0.5,0.5,1,0.4,1.5-0.4C59.1,354.1,59.9,352.5,58.2,351.8z M128.8,348c-1.5-1.5-1.9-1.4-3.1,0.1   C127,349.2,127.3,349.2,128.8,348z M107.3,350.3c1.2,0.1,2.3,0.6,3.3-0.5C109.1,348.4,108.3,348.5,107.3,350.3z M113.5,349.6   c1.2,0.5,2,0.5,2.7-0.5C114.9,347.8,114.9,347.8,113.5,349.6z M38.8,352.5c0.7-0.5,1-1,0.6-1.7c-0.3-0.5-0.7-0.8-1.4-0.5   C37.8,351.5,37.8,351.5,38.8,352.5z M121.1,348.1c-0.9-0.4-1.7-0.6-2.4,0.4C120.2,349.6,120.2,349.6,121.1,348.1z M65.9,348.9   c-1,0.7-1.1,1.5-0.4,2.3C66.8,350.4,66.8,350.4,65.9,348.9z M61.9,350.6c-0.2,1.1-0.1,1.8,1.2,2.1   C63.3,351.7,63.6,350.9,61.9,350.6z M36.4,352.5c-1.4,0.7-1.4,0.7,0,2C36.9,353.9,37,353.3,36.4,352.5z" />
	<path fill="#EF8A6A" d="M239.2,357.3c0.2-0.3,0.3-0.5,0.5-0.9c-1-1.1-1.9-2.3-1.3-4c0.8-0.9,1.6-1.9,2.8-2.3   c3.4-1.2,6.5-3.5,10.8-2.3c1.9,1.4,3,4.1,5.9,5.4c0.2,0,0.8,0.2,1.2-0.3c0.7-0.9,1.8-1.1,2.8-1.6c2.9-1.6,5.8-1.8,9-1.1   c1.6,0.4,3.4,0.1,5.1,0.5c3.9,1,7.8,0.5,11.7,0.5c3.3-0.1,6.5,0.5,9.8,0.6c2,0.1,4,0.2,6,0.4c9.6,1,19.2,0.2,28.8,0.4   c4,0.1,8-0.4,12-0.6c3.5-0.2,7.1-0.1,10.6-1.3c2.9-1,5.9-1.8,8.8-2.6c4.6-1.3,9.2-2.5,13.8-3.6c3.4-0.8,6.7-1.7,10.1-2.4   c0.5-0.1,1-0.5,1.5-0.7c4.2-2.1,8.3-4.2,12.5-6.3c3.5-1.7,7.2-3.2,10.9-4.5c5.1-1.9,10.2-3.5,15.4-5.3c0.5-0.5,0.8-1.2,1.1-1.9   c0.8-2,2.5-2.6,4.4-3c3.2-0.6,6.5-1.1,9.6-2.3c1.9-0.7,4-1.2,6-1.8c1.8-0.5,3.5-0.1,5.1,1c1.4,0.9,2.4,2.3,3.8,3.1   c0.8,1.2,0.7,2.7,1.5,3.8c-4.5,1.8-4.6,1.9-6.1,4.9c-8.9,2.7-18.3,4-27,7.2c-0.1,0.7,0.4,0.6,0.6,0.9c0,0.4-0.4,0.6-0.7,0.7   c-7.5,2.6-14.7,5.8-22.1,8.6c-4.4,1.7-8.7,3.7-13,5.5c-2.4,1-5,1.4-7.5,1.7c-3.7,0.4-7.3,0.9-11,1.3c-3.1,0.4-6.2,0.7-9.4,1.1   c-4.2,0.5-8.4,1.2-12.6,1.7c-2.9,0.4-5.8,0.7-8.7,1.1c-2.4,0.3-4.8,0.7-7.2,0.9c-2.9,0.3-5.8,0.2-8.8,0c-2.7-0.3-5.5-0.6-8.2-0.9   c-11.3-0.9-22.6-0.3-33.9-0.4c-1.1,0-2.1-0.4-3.2-0.5c-1.9-0.1-3.8-0.2-5.7,0.1c-3.7,0.7-7.2,0.3-10.8-0.4   c-1.9-0.4-3.8-0.8-5.8-1.1c-1.2-0.2-2.5-0.3-3.7-0.9c-1.9-0.9-3.6,0.2-5.5,0.4c-2.3,0.3-4.5,0.7-6.8,0.8   C241.3,357,240.3,357.6,239.2,357.3z" />
	<path fill="#EBDA90" d="M457.2,311.4c1.1-1.6,2.8-2.6,4.2-3.9c2.8-2.8,6.3-2.4,8.4,0.9c0.1,0.1,0.2,0.2,0.5,0.5   c0.9,0.4,2.2-0.2,3.2,0.6c0.4,0.1,0.3,0.6,0.6,0.8c0.2-0.1,0.5-0.2,0.7-0.4c1.6,0,3.2-0.2,4.8-0.9c1.9-0.8,4-1.1,6-1.5   c3.5-0.7,7.1-1.2,10.7-1.8c2.4-0.4,4.9-0.8,7.5-0.6c1.6,0.1,3.2,0.1,4.7,0c2.9-0.2,5,0.9,6.5,3.3c0.8-0.1,0.5-0.7,0.6-1.1   c0.4-1.6,1.2-2.9,2.2-4.1c1.5-1.7,2.2-3.7,3-5.7c0.5-1.4,0.9-2.8,2.2-3.7c3.5-0.5,4.2,1.2,5,3.7c1.1,3.4,0.3,6.6-1.5,9.6   c1.2,0.9,2.5,1.7,3.3,3c0.3-2.6,0.6-5.3,1.1-7.9c0.4-2,1-4.1,2.3-5.8c0.6-0.8,1-1.6,1.1-2.8c1.1,1,1.2,2.5,2.2,3.1   c0,1.6,0,3.1,0,4.6c-0.5-0.5-0.3-1.2-0.4-1.8c-0.3-1.3-0.2-2.8-1.2-4c-0.3,2.8,0.6,14.3,1.2,16.2c0.1,0.4,0.4,0.7,0.8,0.7   c0.7-1.1,0.7-1.1,0.7-4.2c2.5,0.4,4,2.2,5.7,4.1c0,0.7,0,1.4,0,2.2c0.5,0.5,0.9,1,1.3,1.5c0,0.2,0.2,0.3,0.1,0.4   c-0.2,2.1,1.1,3.4,2.6,4.5c2,1.6,4.3,2.3,6.7,3c2.1,0.6,4.4,1,6.5,1.5c2.9,0.7,5.8,1,8.8,0.9c1.5,0,2.5-1.1,3.6-1.9   c1.8-1.3,3.2-3,5.2-3.9c0.3-0.1,0.5-0.4,0.7-0.6c2.9-3.2,6.6-5.4,10.1-8c1.6-1.2,3.5-2.5,5.8-2.7c0.2,0,0.4,0,0.4-0.1   c1.1-1.4,2.9-1.8,4-3.1c2,0.7,4.1,1.4,6.3,2.1c-2.9,2.1-6.4,3.2-8.2,6.3c-0.1,0.2,0.1,0.5,0.2,0.8c-0.8,1.1-1.9,1.9-2.9,2.8   c-1.7,1.6-3.4,3.1-4.9,4.7c-3.6,3.8-8.1,6.1-12.8,8.2c-2.1,0.9-4.2,1.8-6.4,2.4c-5.3,1.4-10.5,1.4-15.7-0.6   c-2.9-1.1-5.8-2.1-8.4-3.9c-1.3-0.9-2.4-1.9-3.1-3.4c-1.1-2.4-2.7-4.6-3.6-7.1c-0.2-0.5-0.5-1-1.1-1.2c-2.1-0.2-4,0.5-6,0.7   c-4.4,0.5-8.8,1.3-13.3,0.5c-2-0.3-4.1-0.1-6.1-0.5c-1.7-0.4-3.4,0.3-5.1,0.6c-0.8,0.2-1.6,0.2-2.3,0.2c-1.5,0-3-0.1-4.4,0.8   c-0.6,0.4-1.4,0.3-2.1,0.2c-4.3-0.3-8.5,0.2-12.8,0.5c-6.1,0.5-12.2,1.2-18.1,2.7c-0.8,0.2-1.6,0.3-2.2,0.7c-1.4,0.9-3,0.9-4.7,0.6   C460.1,320.1,459,315.7,457.2,311.4z M540.5,311.1c-1.7,1.6-1.7,1.9-0.5,3.5C541.9,313.5,542.1,312.7,540.5,311.1z" />
	<path fill="#E2C8B7" d="M796.2,352.2c1.5-0.2,0.7,1.2,1.3,1.9c0.9,0,2,0,3,0c1.6,0.9,1.9,0.9,2.7-0.4c0.4,0,0.7,0,1.1,0   c0.7,1.7,2,1.9,3.6,0.6c-0.1-0.2-0.2-0.4-0.3-0.6c0.4,0,0.7,0,1,0c-0.2,0.7,0.1,1.1,0.7,1.3c1.2,0.5,2.3,1,3.6,1   c0.7,0,1.4-0.1,2.2,0.2c-4.1,0.9-7.9,1.5-12,1s-8.3,0.2-12.5,0.5c-3.7,0.3-7.4,0.8-11,1.2c-2.2,0.3-4.4,0.6-6.6,0.4   c-1.7-0.2-3.4-0.4-5.2-0.4c-7.3-0.1-14.7-0.6-22-0.3c-3.5,0.2-6.9,0.1-10.4,0.6c-1.1,0.2-2.2,0.3-3.2-0.3c-0.4-0.3-1-0.4-1.6-0.3   c-5.2,0.6-10.4,0.2-15.6,0.6c-0.3,0-0.6-0.1-0.9-0.2c-2.3-0.8-4.8-1.3-6.8-2.5c-4.1-2.5-8.7-3.7-13-5.7c-4.2-2.1-8.7-3.7-12.9-5.7   c-6.9-3.1-13.6-6.4-20.5-9.7c-1.6-0.7-3.2-1.4-4.7-2.1c-3.7-1.7-7.4-3.5-10.8-5.8c-3-2-6.2-3.7-9.3-5.6c-0.7-0.4-1.5-0.8-1.9-1.7   c-0.2-0.4-0.6-0.8-1-1c-2.6-0.8-4.4-2.7-6.2-4.5c-3-3-5.9-5.9-9.2-8.6c-3.8-3.1-8-5.6-12.3-7.8c0.3,0,0.6-0.1,1-0.2   c-2.6-3.4-6.4-5.4-9.3-8c0.1-2.1,1-3.1,3-3.2c2.9-0.2,5.5,0.8,7.9,2.3c4.3,2.7,8.3,5.9,12.4,9c4.6,3.5,9.1,7,13.8,10.4   c3.8,2.8,7.6,5.6,11.3,8.6c2.6,2,5.3,3.8,8.1,5.4c1.8,1,3.5,2.4,5.4,3.2c5.7,2.4,11.2,5.4,16.7,8.2c3,1.5,6,3.3,9.1,4.7   c3,1.3,5.9,2.7,8.8,4.3c3.7,2,7.5,4,10.9,6.7c1.2,0.9,2.6,1.3,4.3,1.5c-0.4-1.6-2.1-1.5-2.6-2.9c0-0.5,0-1.3,0-2.2   c1.1-1.1,2.3-1.4,3.9-0.9c2.4,0.7,4.2,2.2,6.2,3.5c0.9,0.6,1.6,1.4,2.6,2c0.9,0.6,1.8,1.2,2.8,1.5c2.8,0.8,5.6,1.7,8.4,2.5   c0.6,0.2,1.2,0.1,1.9,0.1c6.9,0,13.9,0.2,20.8-0.1c2.4-0.1,4.9-0.1,7.4-0.8c1.2-0.3,2.5-0.4,3.7-0.5c4.4-0.3,8.9-1,13.4-0.5   c3.3,0.4,6.6,0.6,9.9,1.2c2.6,0.5,5.4,0.9,8.2,0.6c0.4,0,0.8-0.1,0.8-0.6C796.9,353.4,796.9,352.8,796.2,352.2z M722.2,354.8   c-3.4-1.4-7-1.5-9.7-3.4c-0.6,0.2-0.8,0.6-0.9,1.1c1.3,2,2.2,2.4,7.4,3.2C720,355.9,721.1,356.3,722.2,354.8z M730.7,355.3   c-0.8-0.4-1.5-0.5-2.1,0.4c0.3,0.8,0.8,1.2,1.6,1C730.7,356.5,731,356,730.7,355.3z M725.3,355.4c-0.8-1.2-1.4-1-2.1-0.1   C723.8,356.2,724.4,356.3,725.3,355.4z" />
	<path fill="#E2C8B7" d="M18.6,363.6c2.6-2.3,5.9-2.5,9-3.2c0.2,0,0.4,0.2,0.6,0.3c1.5,1.1,3.1,0.3,4.5,0.3c0.3-0.6,0.2-0.9-0.3-1.4   c-1.3,0.2-2.7,0.5-4.1,0.7c0-0.4,0.1-0.6,0.5-0.6c1.8,0,2.9-1,3.8-2.5c0.9,0.4,1.5,1.9,2.7,0.7c0.3-0.7-0.3-1.1-0.5-1.5   c3-1.8,6-3.5,9-5.4c1.4-0.9,2.8-1.7,4.7-1.2c0.5,0.5,1.2,0.9,1.2,1.8c-0.1,1.1-0.6,1.9-1.5,2.6c-2.2,1.6-4.5,3.1-6.8,4.4   c-0.4,0.2-0.9,0.3-1.1,1c1.9-0.2,3.6,0.7,5.5,0.5c1.1-0.1,2.5,0.8,3.7,1.9c5,0,10.2,0.3,15.3-0.1c3.3-0.2,6.6-0.7,9.9-1.2   c3.9-0.6,7.7-1.5,11.6-2.1c4.3-0.6,8.7-1.3,12.9-2.6c2.5-0.7,5.2-0.8,7.8-1.2c2.2-0.4,4.5-0.2,6.7-0.7c1.6-0.4,3.4-0.3,5.1-0.6   c1.9-0.3,3.8-0.5,5.7-0.9c1.4-0.2,2.8-0.4,4.1-0.5c1.4-0.1,2.8-0.3,4.1-0.7c1.5-0.4,3-0.4,4.6-0.7c5.4-1.4,10.9-1,16.3-1   c8.9,0,17.9-0.4,26.8,0.1c11.3,0.6,22.5,0.1,33.8,0.4c3-0.7,6-0.3,9-0.8c2-0.4,4.2-0.7,6.2,0.7c0.4,0.3,0.9,0.1,1.4,0.2   c-0.7,0.6-1.5,0.8-2.3,1c-0.6,0.2-0.7,0.6-0.6,1.2c1.9,0.6,3.2-0.9,4.7-1.7c0.2,1.7,0.4,3.3,0.5,4.9c-0.9,0.5-1.5-0.2-2.1-0.3   c-2.8-0.7-5.5,0-8.2,0.2c-3.5,0.3-7.1,0.7-10.5,1.2c-5.3,0.8-10.5-0.1-15.8-0.4c-6.3-0.3-12.6-0.8-18.9-0.6c-2.3,0-4.6,0.2-6.8-0.3   c-1.5-0.3-3,0.2-4.5,0.3c-6.6,0.2-13.2,0.8-19.8,1.4c-4.7,0.4-9.4,1.1-14.1,1.2c-4.2,0.1-8.4,0.9-12.6,1.6c-4.5,0.8-9,1.4-13.5,2.1   c-3.8,0.6-7.6,0.8-11.4,1.7c-1.7,0.4-3.4,0.5-5.1,0.6c-4.7,0.1-9.5,0.3-14.2,0.7c-5.8,0.4-11.5,0.1-17.3,0.4   c-3.1,0.2-6.1-0.7-9.1-1.2c-4.8-0.7-9.6-1.1-14.4-0.8c-1.5,0.1-3,0.1-4-0.7c-2.7-0.1-4.7,0.9-6.5,2.2c-1.4,1-2.8,1.3-4.5,1.1   c-0.7-0.1-1.4,0-2.1,0c3.7-0.3,6.8-1.9,9.5-4.5c-1.2-0.9-1.9-0.3-2.4,0.2c-1.5,1.3-3.4,1.5-5.2,2.1   C19.1,364.1,18.8,363.9,18.6,363.6z" />
	<path fill="#F6DAC8" d="M455.9,340.3c-0.6-0.8-1.3-1.6-1.9-2.3c-0.3-1.7,0.1-3.2,0.6-4.7c0.2-0.7,0.7-1.5,0.7-2.2   c0.1-1.2,0.8-1.8,1.7-2.4c0.9-0.6,1.8-1,2.8-1.1c2.7-0.2,5.3-0.2,7.9,0.8c3,1.1,6,2.2,9,3.6c1.5,0.7,3.1,1.2,4.8,1.2   c1,0,1.9-0.2,2.3-1.2c0-0.8-0.5-1.1-1.2-1.1c-2.4,0-4.5-1.1-6.6-2.4c0.8,0,1.6,0,2.4,0c3.4,0.1,6.7-0.7,9.8-2.1   c2.1-0.9,4.1-1.8,6.5-1.8c0.9,0,1.9-0.2,2.7-0.8c1.6-1.3,3.6-1.3,5.5-1.5c0.6,0.2,1.1,0.6,1,1.4c-0.1,0.6,0.4,1,0.5,1.5   c-0.2,0-0.4,0.1-0.6,0.1c-0.8,0-1.8-0.3-1.8,1c0.6,0.6,1.2,0.3,1.8,0.3c1-0.1,0.5-0.9,0.6-1.4c0.6,0.5,1.2,1.1,1.9,1.4   c3.7,1.7,7.2,3.9,11.1,5.3c0.9,0.3,1.9,0.8,2.2,2c-0.1,0.7-0.3,1.3-0.9,1.7c-1.1-0.8-2.1-1.6-3.3-2.3c-0.8-0.5-1.7-0.9-2.6-0.9   c-0.2,0.3-0.4,0.5-0.5,0.8c-0.2,0-0.4,0-0.7-0.1c-2.9-1-5.9-1.1-8.8-1.3c-0.2,0-0.3,0-0.5,0c-2.2,0.7-4.4,1.1-6.7,1.1   c-0.2,0-0.4,0.2-0.5,0.3c0.1,0.8,0.5,1,1,1c0.8,0,1.6,0.1,2.4,0c5.7-0.8,11,0.8,16.5,2c0.7,0.2,1.2,0.6,1.8,1.1   c1.9,1.6,3.8,3.3,6.1,4.8c0.1,1.6,1.1,2.5,2.8,2.8c1.9,0.4,3.7,1.3,5.5,1.9c1.3,0.4,2.3,1.4,2.8,2.9c0.7,2.2,1.6,4.4,2.1,6.8   c-0.9,1-2.2,1.4-3.5,1.9c-1.1-0.5-1.8-1.5-2.6-2.3c-1.3-1.3-2.8-2.3-4.2-3.6c-1.5-1.4-3.5-1.4-5.5-1.2c-0.7-2.3-1.8-2.8-4-1.7   c0.5,0.8,0.5,1.7,0.4,2.6c-0.7,0.8-2.1,0.1-2.8,1.3c-1.1-0.7-2.2-1-3.4-0.7c-0.9,0.2-1.4,0.9-2,1.8c-2-1-4.1-1.7-6.3-0.3   c-0.4,0-0.9,0.1-1.2-0.1c-1.5-0.8-3.2-1.1-4.8-1.5c-1.7-0.5-3.5-0.6-5-1.6c-2.2-1.3-4.2-2.9-6.3-4.3c-1.6-1-2.7-2.2-3.2-4   c-0.5-2-2.2-2.7-4.1-2.7c-2.1,0-4.2,0-6.4,0c-0.5,0-0.9,0-1.4,0.3c-2.9,1.6-5.9,1.5-9,0.5C459,340.1,457.5,339.2,455.9,340.3z    M496.6,327.1c-2-0.3-4,0.5-6,0.5c-0.3,0-0.5,0.3-0.6,0.6c0.2,0.3,0.4,0.5,0.7,0.6c1.8,0.2,3.5-0.2,5.2-0.7   C496.4,327.9,496.7,327.6,496.6,327.1c1.6,0.8,1.6,0.8,2.3-0.7C497.9,326,497,325.8,496.6,327.1z M509.9,342.7   c-1.7-1.6-4.1-1.7-6-2.8c-0.3-0.2-1-0.2-1.1,0.5c-0.2,0.2-0.4,0.3-0.5,0.5c-2.3,0.1-4.7,1.9-4.6,3.6c0.7,0.3,0.1,1.3,1.1,2   c0.7,0.4,1.8,0.9,3.1,1c1.6,0.1,3.2,0.5,4.7,1.2c1.2,0.5,2.5,0.4,3.7,0.1c1.8-0.5,2.4-2.1,1.7-3.9c-0.3-0.7-0.6-1.4-0.8-2.1   c-0.3,0-0.5,0-0.8,0C510.1,342.8,510,342.8,509.9,342.7z M520.7,348.8c1.2-1.9,1.2-2.6,0.4-3.8   C519.7,346.5,519.6,347.4,520.7,348.8z M490.2,332.6c-0.4,0.8-0.4,1.3,0,1.3c1.2,0,2.5,0.9,3.7-0.2   C492.9,332.1,491.3,333.6,490.2,332.6z M488,334.1c0.4,0,0.6-0.3,0.9-0.7c-0.5-0.8-1.1-1-1.6-0.1   C487.3,333.8,487.5,334.1,488,334.1z M501.6,337.7c0.7,1,1.1,1,1.6,0.4c0-0.6-0.3-0.9-0.9-0.9C502.1,337.2,501.9,337.4,501.6,337.7   z" />
	<path fill="#F6DAC8" d="M823.2,335.6l-0.2-0.1h-0.2c-0.2-0.3-0.5-0.4-0.8-0.4c-2.1,0.3-3.8-0.8-5.5-1.8c-0.7-0.4-1.4-1-2.3-1.1   c0-0.6-0.1-1.2-0.7-1.3c-0.9-0.2-1.9-0.4-2.5,0.6c0.9,1.3,2.1,1.1,3.4,0.7c-0.2,0.7-0.1,1.1,0.6,1.6c2.1,1.4,4.3,2.5,6.9,2.4   c0.8,0.4,1.7,0.7,2.6,0.9c3.2,0.6,6.1,1.9,9.6,2.9c-1.3,0.5-2.2,0.9-3,1.3c-2.5-0.7-5-1.5-7.4-2.2c-0.4-0.1-0.8-0.1-1.2-0.1   c-5.2,0.3-10.4-0.4-15.6-0.7c-2.8-0.1-5.7-0.1-8.5-0.7c-0.8-0.2-1.7-0.4-2.5-0.6c0.1-0.3,0.1-0.6,0.2-0.9c0.4-1.4,0.3-2.1-1-2.7   c-0.5-0.2-0.9-0.5-1.5-0.6c-1.6-0.3-3.1-1-4.6-1.2c-2.4-0.3-4.6-1.5-7.1-1.1c-0.5,0.4-1.3,0.8-1.2,1.8c1.3,1.7,4.1,3.2,8.1,4.2   c-0.5,0.1-0.8,0.2-1.1,0.2c-2.8-0.4-5.6-0.7-8.4-1.1c-3.3-0.5-6.6-1.3-9.9-1.8c-3.8-0.6-7.5-1.4-11.3-2.1c-2.7-0.6-5.4-0.9-8.1-1.3   c-4.8-0.6-9.6-0.8-14.4-1.2c-1.5-0.1-3.1,0-4.9,0c2.4-4.8,4.5-9.3,5.9-14.3c2.6,1,5,1.9,7.5,2.6c8.3,2,16.4,4.4,24.8,5.9   c4.3,0.8,8.6,1.7,12.9,2.2c2.2,0.3,4.4,0.4,6.5,0.7c3.8,0.5,7.6,0.2,11.3,0.4c1.9,0.1,3.9,0.6,5.8,1c4.1,0.9,8.2,1.9,12.3,2.8   c1.5,0.3,2.8,1,4.2,1.5c3.2,1,6.4,2.1,9.6,3.1c0.2,0.1,0.5,0.2,0.7,0.2c3-0.4,5.6,1.2,8.5,1.7c1,0.2,2,0.2,3,0.4   c2.8,0.5,5.5,1.3,8.3,1.3c1.4,0,2.7,0.6,4.2,1c-1.2,0.7-2.2,1.4-3.3,2c-1.2,0.6-2.7,0.4-3.9,0.2c-3.7-0.6-7.4-0.3-11.1-0.4   c-0.5,0-0.9,0-1.4,0c-0.5-0.6,0.1-0.9,0.1-1.3c0.1-1.2-0.5-2.1-1.8-2.4c-2.4-0.6-4.8-1-7.1-1.5   C826.2,335.2,824.7,335.7,823.2,335.6z" />
	<path fill="#E2C8B7" d="M504.2,325.2c-0.2-0.5-0.6-0.9-0.5-1.5c0.1-0.7-0.3-1.1-1-1.4c1.2-0.7,2.6-0.9,4-0.9c3.5,0,6.9,0.1,10.4,0   c1.5,0,3,0.4,4.5,0.4c5.3,0,10.4-0.5,15.5-2.3c0.5,0.9,0.9,1.8,1.3,2.6c0.3,0.5,0.3,0.9,0.2,1.5c-0.2,1.4,0.7,2.6,1.6,3.7   c1.5,1.6,3.1,2.9,4.9,4c4,2.5,8.3,4.5,12.6,6.3c0.7,0.3,1.5,0.5,2.4,0.8c-0.7,0.4-1.4,0.2-2.1,0.2c-6.7,0-13.4-0.1-20.1,0.2   c-4.2,0.2-8.3,0.3-12.5,0.4c-0.9,0-1.7,0.2-2.7,0.4c-1.5-1.1-2.9-2.4-4.3-3.8c0.6-0.4,0.8-1.1,0.9-1.7c-0.3-1.2-1.3-1.6-2.2-2   c-3.9-1.4-7.4-3.6-11.1-5.3C505.3,326.2,504.8,325.6,504.2,325.2L504.2,325.2z M508.5,324.2c-1.5-1.2-1.5-1.2-2.1,0.4   C507.4,325.1,507.4,325.1,508.5,324.2z" />
	<path fill="#FAE3C4" d="M692.3,298.1c0-0.3,0.1-0.6,0.1-0.9c0.7-0.3,0.4-0.9,0.4-1.5c-0.1-0.7,1-1.6-0.3-2.3c-1.1,0.7-0.5,2-1.1,3   c-0.6,0.9-0.6,2.1-1.8,2.6c-0.1,2-0.2,4-0.7,5.9c-1.1-1.1-0.9-2.5-0.6-3.7c0.2-1.2,0.3-2.3,0.3-3.5c-0.1-2,0.7-3.8,1.9-5.4   c0.9,0.2,1.7-0.5,2.6-0.5c1.4,0,2.3-1.3,3.5-1.7c0.6-0.2,0.9-1,1.1-1.8c0.4-2,0.5-4.1-0.1-6c-0.7-2.2-2.5-3.8-4.5-4.9   c-0.1-0.1-0.3-0.2-0.4-0.1c-1.9,0.8-3.9-0.4-5.8-0.2c-1.5,0.2-2.7,0.5-4,1.3c-1.9,1.2-3.7,2.3-5.6,3.4c-0.7,0.3-1.1-0.4-1.9-0.2   c-2.8,0.5-6.1-2.6-6-5.5c0-0.6,0.3-1,0.8-1.3c0.7,0.4,0.6,1.4,1.2,1.9c0.8-0.8,0-1.8,0.6-2.6c0.6-0.2,1.3-0.5,2.1-0.7   c0.7,1.6,0.6,3.4,0.6,5c0.9,0.7,1.6,2.1,3.3,1.4c0-0.4,0-0.8,0-1.2c0-0.1,0-0.2,0-0.2c1.6-1.7,3.5-3,4.6-5.2   c0.1-0.2,0.3-0.4,0.8-0.2c0.8,1.2-0.9,2.2-0.5,3.5c0.1,0.3,0.5,0.4,1.1,0.2c0.3-1,0.9-2.1,1-3.2c0.2-2.4,1.6-4.1,3-6   c1.3-1.8,3.2-1.8,5.2-2.1c-0.2,1.3-0.4,2.4-0.7,3.6c1.4-0.9,2.1-2.2,2.8-3.5c1.1,0,2.3,0,3.5,0c0.1,1.9-1.6,3-1.9,4.5   c-0.9,1.4-2,2.6-2.6,4.1c0.3,0.4,0.5,0.6,1,0.5c0.9-1,1.5-2.3,2.1-3.6c0.5-0.1,1.1-0.2,1.6-0.3c0.9-1.1,1.2-2.5,2.5-3.3   c0.4,1-0.8,1.4-0.9,2.2c-0.1,0.5,0.4,0.7,0.5,1.2c-0.7,1.5-1.2,3.1-1.4,4.8c-0.5,0.4-0.4,1-0.4,1.5c-0.1,0.1-0.1,0.2-0.1,0.4   c-1.1,2-1.1,2-0.5,3.3c0.8-1,0.8-1,1-2.3c1-2.2,2-4.3,2.6-6.6c0.3-1.2,1.1-2.2,0.8-3.6c-0.1-0.7,0.5-1.4,1.2-2.2   c2.6,0.6,4.9,3,8,2.3c0.2,1.2-0.1,2.1-0.2,3c-0.5,3.7-0.9,7.5-1.6,11.2c-0.7,3.6-1.4,7.2-2.9,10.6c-0.4-0.4-1.2-0.3-1.4-1   c-0.1-0.7,0.9-1.4,0.2-2.3c-1.4,0.2-1.2,1.7-1.8,2.4c-0.7,0.8-1,1.8-1.6,2.6c-0.7,0.8-1.4,1.7-2,2.6c-0.2,0-0.5-0.1-0.8-0.1   c0-0.8-0.1-1.7-0.1-2.4c-0.6-0.9-1.4-1-2.1-0.7c-0.7,0.3-0.7,0.9-0.7,1.6c0,1.6,0,3.3,0,4.9c0,0.6-0.2,1.1-0.8,1.2   c-0.1-1.3-0.7-2.5-0.7-3.9c0-0.6-0.1-1.4-1-1.6c-0.8-0.2-1.1,0.4-1.3,0.9C693,297.8,692.7,298,692.3,298.1z M707.5,284.8   c0-5,1.8-9.7,1.8-14.7c-0.8-0.5-1.4-0.6-2.1,0c-1.2,3.8-1.6,7.6-2.1,11.5c-0.1,1.2-0.6,2.4-0.3,3.7   C705.7,285.2,706.4,285,707.5,284.8z M695,267c-1.3,2.5-3.4,4.1-4.4,6.5c-0.2,0.6-0.4,1.2-0.6,1.8c-0.1,0.6,0.1,1.1,0.7,1.2   c0.6-0.2,1-0.5,1.1-1.1c0.7-2.3,1.9-4.3,3.4-6.1C695.8,268.8,696,268.1,695,267z M687.8,276.9c1-2.2,2.1-4.5,3.1-6.7   c0.2-0.5,0.3-1-0.5-1.6c-0.7,2.3-2.5,3.6-3.3,5.6c-0.2,0.5-0.5,1-0.5,1.6C686.6,276.5,686.9,276.9,687.8,276.9z" />
	<path fill="#FAE4C4" d="M720.8,288.2c1.3-3.1,1.8-6.3,1.9-9.6c0-1.3-0.3-2.6-0.5-4.2c1,0.3,1.4,0.9,1.2,1.7   c-0.4,1.4-0.2,2.8-0.2,4.2c0,3-0.3,5.9-1.3,8.8c-0.3,0.8-0.6,1.7,0.8,2.2c1.9-3.8,1.9-8,2.1-12.1c0.9,3.1,0.4,6.3,0.4,9.4   s0.5,6.5-1.1,9.4c0.7,0.8,1.2,0.7,1.5-0.1c0.5-1.2,0.7-2.6,0.9-3.9c0.7-3.5,0.5-7,0.5-10.7c1.1,0.2,1.5,1.1,2.3,1.8   c-1.4,6.9-2.9,13.8-3.4,20.8c-0.7,1.2-0.9,2.5-1.1,3.8c-0.2,1.3-1.7,2.3-1,3.8c0.6,0.1,0.9-0.2,1.1-0.6c0.9-2.2,1.7-4.5,2.1-6.9   c0.4-1.1,1.1,0.3,1.7-0.3c0.4-0.7,0.2-1.7,0.9-2.5c0.5,0.7,0.1,1.4-0.1,2c-0.7,2.8-1.8,5.5-3,8.2c-0.3,0.6-0.8,1.2-0.2,1.9   c0.7,0.3,1-0.2,1.2-0.7c1-2.7,2.2-5.4,3-8.1c0.7-2.3,1.1-4.7,1.6-7.1c0.7,0.3,0.2,1,0.4,1.5c-0.2,3.6-0.5,7.2-2.1,10.5   c-0.3,0.6-0.5,1.2,0.5,1.6c2.1-2,1.9-4.9,2.6-7.5c0.7-2.6,1-5.2,1-7.9c0.5,0.2,0.7,0.6,0.6,1c-0.4,3.1-0.4,6.2-0.4,9.4   c0,2.5-0.7,4.9-1.5,7.4c-0.3-0.5,0.1-1.3-0.6-1.6c-0.5-0.1-1,0.2-1.1,0.6c-0.9,3.6-3.2,6.5-4.8,9.7c-2.1-0.6-4.1-1.8-6.3-2   c-0.2-0.3-0.2-0.7-0.7-0.8l0,0c-0.4-0.7-0.9-1.2-1.7-1.4c-1.2-0.3-1.6,1-2.6,1.3c0-0.9,0-1.5,0-2.2c0.5-0.7,0.9-1.3,1.4-2   c0.6,0,0.7-0.5,1-0.9c0.8-0.9,0.9-2.2,1.8-3.1c0.3-0.3,0.2-0.9-0.4-1.1c-0.2,0.1-0.4,0.1-0.4,0.2c-0.6,1-1.3,2.1-1.9,3.1   c-0.2,0.3-0.4,0.5-0.7,0.8c-1.2,0.7-1.4,2.3-2.7,2.9c-0.4,0-0.8,0.1-0.9-0.4c1.2-2.3,2.8-4.3,3.4-6.9c-2.3,1.2-3.1,3.5-4.4,5.4   c-0.3,0-0.4-0.3-0.5-0.5c0.4-2.1,0.9-4.1,2.3-5.7c0.2-0.7-0.5-0.9-0.6-1c0.8-4.9,3-9.3,3.6-14c0.5-0.4,0.5-0.9,0.4-1.5   c0-0.5,0-0.9,0.1-1.4c0.8-1.4,0.8-2.7-0.4-3.7c0.3-1.7,0.5-3.3,0.8-4.8c0.3-0.6,0.4-1.1,0.6-1.8c0.5-1.9,0.5-4,1.2-5.9   c0.5,0,0.9-0.6,1.5-0.4c0.7,1,0.4,2.1,0.3,3.2c-0.3,2.2-0.5,4.5-0.8,6.7c-0.6,2.1-1.3,4.1-1.9,6.2c-0.2,0.5-0.7,0.9-0.2,1.5   c0.2,0.1,0.5,0.2,0.6-0.1C719.7,292,720.5,290.2,720.8,288.2z" />
	<path fill="#F6DAC8" d="M670,274.9c-0.5,0.3-0.8,0.7-0.8,1.3c0,2.9,3.2,6,6,5.5c0.8-0.1,1.3,0.5,1.9,0.2c-0.3,0.7-1,1-1.7,1.2   c-0.8,0.2-1.4,0.7-2,1.2c-1,1-1.3,2.1-0.7,3.4c0.2,0.5,0.8,0.8,0.5,1.5c-4-2-4.5-2-8.7-1c-1.1,0.8-1.1,3-3.2,2.6   c-4.3-7.2-10.3-12.9-16.5-18.3c-2.6-2.3-5.8-3.8-8.8-5.5c-1-0.6-1.8-1.2-2.3-2.3c-1.2-2.4-2.6-4.6-3.4-7.2c1.3,0.5,1.3,0.5,3.9,3.3   c0.4,0.4,1-0.4,1.6,0.2c1.4,1.2,3,2.3,4.6,3.3c4.8,2.9,10,4.7,15.4,6.2c1.4,0.4,2.9,0.7,4,1.7c0.6,0.6,1.6,0.7,2.5,0.6   c2.4,0,4.7,0,7.2,0c-0.3,0.5-0.4,0.8-0.6,1.1C669.1,274.6,670.1,274.1,670,274.9z M665.4,278c0.5,0.7,1,0.9,1.5,0.3   s0.2-1.1-0.4-1.5C666,277,665.7,277.4,665.4,278z" />
	<path fill="#F6D9C8" d="M693.1,291.9c-0.9,0-1.7,0.7-2.6,0.5c0.2-1.1-0.7-1.2-1.5-1.7c2.2-1,5.1-0.6,6-3.6c0-2-1.4-3.2-2.6-4.8   c-1.2-1.7-2.8-2.4-5-2.5c-0.6,0.2-1.4,0.5-2.3,0.8c-0.7,0.2-1.5,0.5-1.8,1.1c-0.8,2-2.7,2.2-4.3,3c-2.5,1.1-2.5,1-1.6,3.8   c1.1-0.2,1.1-0.2,1.3-2.2c3.2-0.8,5.7-2.9,8.5-4.8c0.5,0.1,1.1,0.3,1.7,0.5c0.5,0.2,1,0.4,1.5,1c-0.8,1.6-0.5,3.4,0.2,5   c-0.7,0.7-1.3,0.5-1.9,0.4c-2.8-3.9-4.7-4.4-7.1-2c0.5,1.6,2,0.1,2.9,0.9c-0.7,0.3-1.4,0.6-2.1,0.9c-0.9-0.2-1.7-0.9-2.9-0.4   c-0.5,0.6-1.1,1.3-1,2.3c2.8,1.6,2,1.5,4.6,1c0.4-0.2,0.6-0.5,0.8-0.9c0.2-0.3,0.4-0.5,0.6-0.8c0.5,0.4,1,0.8,1.5,1.2   c-0.4,0.8-1.5,0.8-2,1.5s-0.9,1.3-1.1,2.1c0.3,1.3,1.2,2.4,1,3.7c0.5,0.7,1.1,0.4,1.6,0.6c0.4,0.8,0.2,1.7,0.2,2.5   c0,0.9,0,1.7,0,2.6c0.4,0.7,1.5,0.7,1.4,1.8c-0.1,0.9,0.8,1.3,1,1.8c0,1.4,0,2.6,0,4.1c-9.9-4.8-18.4-11-26-18.9   c3.2-1.8,6.3-3,9.8-1.2c1.5,0.7,2.9,0.8,4.4-0.1c-0.1-2-2.7-3.1-1.7-5.6c2.4-0.4,4.2-2.1,6-3.7c1.6-1.4,3.7-2.1,5.7-2.7   c2.8-0.8,5.6,0.2,7.6,2.3c1.4,1.5,1.8,3.8,1.9,5.9c0.1,1-0.6,1.7-1.5,2.1C693.3,290.1,692.6,290.7,693.1,291.9z" />
	<path fill="#E2C8B7" d="M455.9,340.3c1.6-1.1,3.2-0.2,4.7,0.3c3.1,1,6.1,1.1,9-0.5c0.5-0.2,0.9-0.3,1.4-0.3c2.1,0,4.2,0,6.4,0   c1.9,0,3.6,0.7,4.1,2.7c0.5,1.9,1.7,3,3.2,4c2.1,1.4,4.1,3,6.3,4.3c1.5,0.9,3.4,1.1,5,1.6s3.3,0.7,4.8,1.5c0.3,0.2,0.8,0.1,1.2,0.1   c-0.8,1.1-1.6,2.2-0.6,3.7c-2.3-0.2-4.4-0.4-6.5-0.6c-2.8-0.3-5.6-0.6-8.4-0.8c-0.9-0.1-1.7-0.2-2.5-0.7c-5.2-3.2-11-5.3-16.8-7.1   c-2.3-0.7-4.3-1.8-6.1-3.3C459.2,343.8,457.1,342.5,455.9,340.3z M467.4,346.4c3.4,0.9,5.5,0.6,6.9-0.9c-0.3-0.6-0.9-0.4-1.4-0.4   c-1.8,0-3.6,0.1-5.3,0.2c-0.1,0-0.1,0.1-0.1,0.1C467.1,345.7,467.1,345.9,467.4,346.4z M480.8,351.9c2.9,0.6,3.6,0.2,3.1-1.5   C482.9,350.7,481.7,350.5,480.8,351.9z M478.7,349.1c-1.2-0.5-2.3-0.6-3.3,0.5C477.1,350.6,477.5,350.6,478.7,349.1z" />
	<path fill="#FAE3C3" d="M720.8,276.3c-0.6-0.2-1,0.4-1.5,0.4c0.2-1,0.1-2,0.5-3c0.3-0.6-0.2-0.9-0.9-1.3c-1,2.7-1.3,5.4-1.9,8   c-0.5,0.7-0.4,1.6-0.4,2.5c0,0.5,0,0.9-0.1,1.4c-0.5,1.7-1.3,3.5-0.9,5.2c0.4,1.3,0.3,2.6,0.4,3.8c-0.8,1.2-0.9,2.6-1.3,3.9   c-0.8,3.1-2.4,5.7-4,8.3c-0.3,0-0.4-0.2-0.5-0.5c1.2-2.8,1.2-2.8,0.4-3.8c-1,0.9-0.6,2.4-1.4,3.3c-0.7,0.7-0.9,1.9-1.7,2.5   c-0.6-0.2-0.9-0.5-1.1-1.1c0-0.6,0.1-1.1,0.5-1.5c1.4-1.4,2.1-3.3,2.9-5.1c0.4-1,1.1-1.7,1.8-2.5c0.5-0.7,1-1.5,1.6-2.3   c-0.9-0.7-1.8-0.4-2.2,0.2c-0.9,1.5-2.3,2.5-3.4,3.9c-1.7,2.3-2.8,4.8-4.1,7.3c-0.5,0-0.9-0.1-0.9-0.8c0-0.5,0-1.1,0-1.6   c0.5-1.6,1.3-3,2-4.5c0.4-0.9,0.7-1.9,1.1-2.9c2-0.2,2.9-1.8,3.5-3.4c1.9-4.8,3.2-9.8,3.9-15c0.3-2.1,0.6-4.2,0.9-6.3   c0.1-0.8,0.1-1.5-0.2-2.3c1.4,0.2,5.2,1.9,6.7,3c0.3,0.7-0.7,1.2-0.3,1.9c-0.4,0.6-0.4,0.6-0.1,1.2c0.1-0.4,0.1-0.6,0.1-0.9   C720.9,275.2,720.9,275.8,720.8,276.3z" />
	<path fill="#F9E2C3" d="M724.8,268.2c0.6-0.4,1.2-0.6,1.6-1.3c0.9-2.2,2.5-4.1,3.3-6.5c0.1-0.4,0.5-0.8,0.7-1.2   c0.8-0.1,1.2,0.5,1.7,0.7c-2.1,2.9-4.1,5.8-5.1,9.2c-0.3,0.1-0.3,0.3,0,0.4c0.4,0.2,0.9,0.2,1-0.4c1.1-2.4,2.9-4.3,4.4-6.4   c0.5-0.7,1.2-1,2.1-0.6c0.5,1,0.1,1.9-0.6,2.7c-1.5,2-2.3,4.5-3.9,6.4c-0.4,0.5-0.4,1,0.2,1.6c1.6-0.6,2.2-2.1,3-3.4s2-2.2,2.6-3.8   c0.5,0.9,0.6,1.7,0.4,2.6c-0.2,0.8,0.2,1.4,1.3,1.2c1.3-1.1,0.7-2.7,1.2-4.1c0.8-0.2,1,0.5,1.4,1c-0.1,1.1-0.3,2.3-1,3.3   c-0.4,0.7-0.5,1.5,0.4,2c1-0.1,1.2-1.2,2.1-1.7c0.4,1.4,1.3,2.7-0.1,4.2c-0.1-0.2-0.3-0.4-0.5-0.6c-1.3,2-2.7,3.9-4.9,5   c-0.9-0.4-1.5-1-1.6-2.1c0.7-1.7,1.6-3.4,2-5.2c-0.7-0.6-1.1-0.1-1.3,0.4c-0.7,1.6-1.7,2.9-3.1,4c-1.2,0.1-0.6-0.9-0.8-1.4   c-0.5-1.1-1.6-0.1-2.1-0.8c-1.6-1.7-3.3-3.4-4.9-5.1C724.5,268.3,724.6,268.3,724.8,268.2z" />
	<path fill="#F7E0C1" d="M718.4,263.5c0.9-1.8,1.9-3.6,2.8-5.3c3.9-1,3.9-1,7.3-0.1c-1.7,0-2.1,1.2-2.5,2.6s-0.9,2.8-1.3,4.2   c-1.2,0.3-1.3,1.5-1.8,2.3c-1-0.1-0.3-1.3-1.2-1.3l0,0c0-0.4,0.1-0.8-0.3-0.9c-0.4-0.1-0.5,0.2-0.5,0.5l0,0   c-0.8-0.2-0.3-1.2-0.9-1.5c-0.5-0.1-1-0.2-1.1,0.5c-0.4,0.6-0.4,1.4-1,1.8c-1,0.3-1.2-1.1-2.2-0.7c-0.7,0.5,0,1,0.2,1.7   c-1-0.2-1.5-1.4-2.4-1c-1-2.3-0.9-4.5-0.3-6.7c0.4-1.3,0.4-2.4-0.3-3.5c1.7-0.5,3.2-1,5,0.2c1.6,0.6-0.9,2.3,0.7,3.1   c-0.6,1.1-0.8,2.3-0.7,3.5c-0.8,0.7-1.2,1.5-0.5,2.7C718.2,264.9,718.5,264.3,718.4,263.5z" />
	<path fill="#E0C7B6" d="M819,354.1c1.2,1.2,2.6,1.7,4.3,1.9c-0.3,0.4-0.7,0.7-0.5,1.2c0.6,0.9,1.5,0.8,2.3,0.5   c0.3-0.7-0.3-0.9-0.5-1.3c0.2,0,0.5,0,0.7,0c0.7,0.4,0.1,1.3,0.5,1.6c5.3,0.7,10.4,1.6,15.7,1.2c0.5,0,0.9,0,1.3,0   c0.6-0.5,0.3-1.1,0.6-1.7c0.6-0.4,1.3-0.2,1.9-0.2c0.5,0.3,0.2,0.8,0.5,1.1c0.9,0,1.9-0.7,2.7,0.2c-0.6,0.2-1.4-0.4-1.9,0.4   c1.3,1.4,1.8,1.5,3.7,0.7c0.1-0.6-0.7-0.5-0.9-1c0.5-0.1,0.8-0.7,1.3-0.5c1.5,0.7,3.2,0.3,4.8,0.8c2.2,0.8,4.6,1.3,6.7,2.4   c0.3,0.2,0.5,0.3,0.6,0.6c-2.7-0.6-5.3-1.2-8-1.8c-1.2-0.3-2.3-0.4-3.5,0.1c-1.4,0.5-2.8,0.4-4.2,0.1c-2.4-0.5-4.7-0.2-7.1-0.3   c-2.1,0-4.2-0.1-6.3-0.5c-1.9-0.4-3.9-0.1-5.9,0.1c-2.2,0.2-4.1-0.2-6-1.4c-1.2-0.8-2.4-1.8-3.9-2.3   C818,355.4,819.5,355.3,819,354.1z M843.4,358.2c0.7,0.8,1.1,0.8,1.6,0.1C844.6,357.6,844.1,357.6,843.4,358.2z" />
	<path fill="#E6CCBB" d="M520,351.2c1.9-0.1,4-0.2,5.5,1.2c1.4,1.3,2.9,2.3,4.2,3.6c0.8,0.8,1.5,1.8,2.6,2.3   c-0.7,1.1-1.6,1.1-2.6,0.6c-0.8-0.4-1.5-0.8-2.2-1.3c-0.5-0.4-1.1-0.6-1.7-0.1c-0.6,0.7,0,1.5-0.2,2.3c-1.7,1-2.5,1-4.6,0.2   c-0.4-0.9,0.1-1.8,0.2-2.7c0.2-1.4-0.2-1.9-1.8-2.4l0,0c-0.5-0.9-1-1.9-1.9-2.4c0-0.5-0.3-1,0.2-1.4c0.8,0.2,0.6,1.2,1.3,1.4   c1.5,0.5,2.3,1.8,3.4,2.8c0.5,0.5,1,0.9,1.7,1.2c0.4,0.2,0.7,0.3,1.1-0.4C523.4,354.6,521.7,352.9,520,351.2z" />
	<path fill="#E0C7B6" d="M787.6,336.6c0.3,0,0.6-0.1,1.1-0.2c-4-1-6.8-2.5-8.1-4.2c0-0.9,0.7-1.3,1.2-1.8c2.5-0.5,4.7,0.8,7.1,1.1   c1.6,0.2,3.1,0.9,4.6,1.2c0.6,0.1,1,0.4,1.5,0.6c1.2,0.7,1.4,1.3,1,2.7c-0.1,0.3-0.2,0.6-0.2,0.9c-1.4,0-2.6-1.1-4-0.8   c-0.4,0.5,0.1,0.7,0.2,1.2C790.4,337.1,788.9,337.2,787.6,336.6z M786.4,333.8c0.5,1.1,1.5,0.8,2.2,1.1c0.8,0.3,1.3,1.2,2.4,0.5   C789.1,333.9,787.5,333.4,786.4,333.8z" />
	<path fill="#D6BF9F" d="M694.7,296.7c0.9,0.2,1,1.1,1,1.6c-0.1,1.4,0.6,2.5,0.7,3.9c0.7-0.2,0.8-0.6,0.8-1.2c0-1.6,0-3.3,0-4.9   c0-0.7,0-1.3,0.7-1.6c0.8-0.3,1.5-0.3,2.1,0.7c0,0.7,0.1,1.6,0.1,2.4c0.3,0,0.6,0.1,0.8,0.1c-3,5.3-6.2,10.5-7.8,17.1   c-0.4-1.7-0.2-2.9-0.1-4c0.5-3.8,0.6-7.7,1.7-11.4C694.9,298.5,695,297.6,694.7,296.7z" />
	<path fill="#D8C1A1" d="M719.9,321.4c0.5,0.1,0.4,0.6,0.7,0.8c2.3,0.2,4.2,1.4,6.3,2c-0.6,1.7-1.7,3.2-1.9,5.1   c-2.8,0.5-5.4-0.7-8.4-0.3c0.4-1.9,1.6-3.1,2.4-4.3C719.6,323.6,720,322.6,719.9,321.4z" />
	<path fill="#E6CCBB" d="M519.3,355c0.2,1.9-0.2,3.7-0.6,5.5c-2.4,0-3.4-1.4-3.8-3.7c-2,0.8-0.8,2.6-1.5,3.9c-0.8,0.3-1.7,0-2.6,0.2   c-1-0.8-1.4-1.5-0.7-2.7c0.6-1,0-2.1-0.1-3.1c1.5-1.5,2.8,0.5,4.1,0c0.7-0.4,1.3-0.9,2.1-1.4C517.1,354.4,517.7,356,519.3,355   L519.3,355z" />
	<path fill="#D2BC9D" d="M706.1,292.3c0.2,0.7,0.9,0.6,1.4,1c-0.4,1.2-1-0.3-1.5,0.2c-0.4,0.3,0.4,0.8-0.1,1.4   c-1.9,2.2-3,4.8-4.3,7.3c-1.7,3.5-3.2,7.1-4.1,11c-0.2,0.9-0.2,1.9-0.3,2.8c-1.1,0.4-1.6-0.5-2.3-0.8c0-1.8,0.6-3.3,1.3-4.8   c2.3-5.1,5-10,7.9-14.7C704.7,294.6,705,293.2,706.1,292.3z" />
	<path fill="#CBB598" d="M739.8,278.2c0.7-0.8,1.2-1.6,1.6-2.7c0.7,0.2,0.9,1.1,1.8,1.2c0.6-0.2,1.4-0.4,2.1-0.6   c0.5,0.2,0.8,0.4,1.1,1c-0.7,0.6-1,1.4-1.2,2.3c-0.6,3.4-2.6,5.4-5.8,6.5c-0.1-0.1-0.1-0.1-0.2-0.2c1-0.9,1.9-1.8,2.9-2.8   c0.6-0.6,1.5-1.1,1.5-2.4c-2.1,0.4-3,2.6-4.9,2.9c-0.4-0.6-0.4-1.1,0-1.6c0.5-0.6,0.9-1.3,1.3-1.9c0.3-0.4,0.3-0.7-0.2-0.9   C739.8,278.8,740.6,278.4,739.8,278.2z" />
	<path fill="#D3BC9D" d="M721.7,265.9c0.9,0,0.2,1.2,1.2,1.3c0.4-0.8,0.5-2,1.8-2.3c0.2,0.9-0.8,1.4-0.8,2.2c0.1,0.6,0.7,0.5,0.9,1   c-0.1,0.1-0.3,0.2-0.5,0.3c1.7,1.7,3.3,3.4,4.9,5.1c0.5,0.8,1.6-0.2,2.1,0.8c-0.2,0-0.3,0-0.5,0c-0.6-0.1-1.1,0-1.5,0.4   c-1,0.9-2.2,1.2-3.5,1.1c-0.1-0.2-0.3-0.3-0.2-0.4c0.2-2.3-0.4-4.1-2.9-4.9c-0.7-0.2-1.2-0.9-1.8-1.5   C721.2,268,721.5,267,721.7,265.9z" />
	<path fill="#D0B99B" d="M739.8,278.2c0.8,0.2,0,0.6,0.1,0.8c-1.9,1.1-3.5,2.8-5.4,3.5c-0.3,0.9,0.8,1,0.5,1.9   c-3.3,0.1-4.7-2.4-6.5-4.6c2.1-1.1,4.6-1.1,6.2-3.1c0.1,1,0.7,1.7,1.6,2.1c-0.7,1.2-2.1,1.2-3.2,1.7c-0.5,0.2-1.1,0.1-1.4,0.8   c0.1,0.7,0.5,0.9,1.1,0.6c2.1-0.8,4.4-1.1,6-3C738.8,278.6,739.4,278.4,739.8,278.2z" />
	<path fill="#ED9374" d="M590.5,325.4c0.5-0.2,0.8-0.4,1.1-0.5c0.1,0.1,0.2,0.2,0.2,0.3c0.2,2.1-0.2,4.2-0.9,6.2   c-0.9,2.7-3,3.9-5.6,4.6c-0.8,0.2-1.8,0.3-2.4-0.8c2.4-1.1,4-3.3,6.4-4.6c1.5-0.9,1.7-2.7,1.5-4.4   C590.8,326,590.6,325.8,590.5,325.4z" />
	<path fill="#D1BB9C" d="M715.6,319c0,0.7,0,1.4,0,2.2c1-0.3,1.4-1.6,2.6-1.3c0.8,0.2,1.3,0.7,1.7,1.4c-0.3,0-0.6,0-1-0.1   c-1.1,2.3-2.6,4.4-4.4,6.2c-0.6,0-0.9-0.4-1.2-0.9c0-0.9,0.8-1.3,1.2-1.9c0.6-0.8,1.5-1.6,1.1-2.8c-1.1-0.1-1.2,0.7-1.5,1.3   c-0.4,0.9-0.9,1.8-1.7,2.4c-0.4,0-0.5-0.3-0.8-0.7C712.6,322.9,714.6,321.2,715.6,319z" />
	<path fill="#D2BB9C" d="M706.6,306.1c0.2,0.5,0.5,0.9,1.1,1.1c-1.7,4.1-3.5,8.1-5.2,12.2c-0.8-0.1-1.2-0.3-1.6-0.7   c0.7-3.3,2.6-6.2,3.9-9.2C705.3,308.3,705.6,307,706.6,306.1z" />
	<path fill="#E7D2B4" d="M677.7,278.7c0,0.4,0,0.8,0,1.2c-1.7,0.8-2.3-0.6-3.3-1.4c0.4,0.1,0.7,0.3,1.2-0.1c0-2.1,0-4.4,0-6.8   c0.6-0.7,1.8-0.5,3-1.2c-0.7,1.7-2,2.7-1.8,4.6c1.5-1.1,2.4-2.5,3.4-3.8c0.9-1.3,2.2-2.2,4.2-2.5c-2.8,2.5-4.7,5.3-6.4,8.4   c-0.4-0.2-0.7-0.5-1.2-0.7c-1.1,0.9-0.6,2.1-0.5,3.1C677.3,279.9,677.2,278.8,677.7,278.7z" />
	<path fill="#ECD1C0" d="M509.3,356.9c-1.3,0.7-1.3,1.8-1.6,2.7c-2.2,0.6-3.6-0.7-5.2-1.8c0.2-0.8,0.6-1.6,1.4-2.2   C505.5,355.5,507.4,354.9,509.3,356.9z" />
	<path fill="#E2CDB0" d="M730.9,286.4c0.6,0.9,0.5,1.8,0.3,2.6c-0.2,1.1-0.6,2.1,0,3.2c0.1,0.2,0.1,0.5,0,0.7   c-1.2,3.9-1.7,8-3.2,11.8c-0.1,0.2-0.2,0.4-0.5,0.5C728.6,298.9,729.7,292.7,730.9,286.4z" />
	<path fill="#2D2825" d="M520,351.2c1.7,1.7,3.5,3.4,5.1,5c-0.4,0.7-0.7,0.6-1.1,0.4c-0.7-0.3-1.2-0.7-1.7-1.2   c-1.1-1-1.9-2.3-3.4-2.8c-0.6-0.2-0.5-1.2-1.3-1.4c-0.5,0.4-0.2,0.9-0.2,1.4c-0.4-0.2-0.7-0.4-1-0.5c0.2-0.9,0.1-1.8-0.4-2.6   C518.2,348.4,519.2,348.9,520,351.2z" />
	<path fill="#CAB496" d="M702.8,303.7c0,0.5,0.1,1.1,0,1.6c0,0.6,0.3,0.8,0.9,0.8c-0.8,1.9-1.6,3.7-2.5,5.5   c-0.7,1.4-1.2,2.9-1.3,4.5c0,0.6-0.2,1.1-0.7,1.4c-1-0.5-0.6-1.4-0.5-2c0.4-2.1,1-4.2,1.8-6.3C701.2,307.4,702,305.6,702.8,303.7z" />
	<path fill="#EBCFBE" d="M8.9,366.1c-1.1-2.2-1-2.6,0.5-3.7c1-0.7,2-1.6,3.4-1.2c0.8,1.5-0.6,2.1-1.1,2.7c-0.3,0.9,0.4,1.3,0.7,1.9   C11.2,366.1,10.1,365.8,8.9,366.1z" />
	<path fill="#E1C7B6" d="M589,326.3c-0.1,1.3-0.4,1.9-1,2.6c-2.4,2.4-4.9,4.8-8.5,6c1.5-3.2,4.4-4.4,6.9-6   C587.4,328.2,588.1,327.5,589,326.3z" />
	<path fill="#E1CCAF" d="M732.2,319c-0.5,3.6-1.9,6.9-4,9.8c-0.4,0.5-0.8,0.7-1.6,0.4C728.3,325.8,730.1,322.3,732.2,319L732.2,319z   " />
	<path fill="#CFB7A7" d="M659.5,341.6c-1.8-0.6-2.4-1.8-2.1-3.6c2.1,0.6,3.9,1.6,6.1,2.9C661.8,341.3,660.5,341,659.5,341.6z" />
	<path fill="#49413C" d="M814.2,332.3c0.9,0.1,1.6,0.6,2.3,1.1c1.7,1,3.4,2.1,5.5,1.8c0.3,0,0.6,0.1,0.8,0.4c-0.4,0.1-1,0-1.1,0.6   c-2.6,0.1-4.8-1-6.9-2.4C814.2,333.4,814.1,332.9,814.2,332.3L814.2,332.3z" />
	<path fill="#DFDDDE" d="M483.7,324.6c-4.4,1.8-8.9,2.2-13.5,1.8C474.7,325.7,479.2,325.1,483.7,324.6z" />
	<path fill="#574F44" d="M716.1,293.4c-0.1-1.3-0.1-2.5-0.4-3.8c-0.4-1.7,0.3-3.5,0.9-5.2c0.3,0,0.6,0,0.9,0   c-0.2,1.6-0.5,3.2-0.8,4.8c1.1,1.1,1.2,2.3,0.4,3.7c-0.2-0.9,0.2-1.8-0.2-2.8C716.2,291.2,717.2,292.5,716.1,293.4z" />
	<path fill="#BBA78C" d="M692.3,298.1c0.3-0.2,0.7-0.3,1-0.5c0.1,2-0.8,3.8-1.1,5.8c-0.1,0.8-0.4,1.5-0.6,2.4   C690.6,303,690.9,300.5,692.3,298.1z" />
	<path fill="#74695A" d="M727,306.2c-0.4,2.4-1.1,4.7-2.1,6.9c-0.2,0.4-0.5,0.6-1.1,0.6c-0.7-1.5,0.8-2.5,1-3.8s0.4-2.6,1.1-3.8   c0.1,0.3,0.2,0.6,0.3,0.9C726.6,306.8,726.5,306.3,727,306.2z" />
	<path fill="#F7E0C1" d="M710.8,263.9c-2.1-4.4-1.8-5.7,1.4-6.9c0.3,0.9-0.5,1.2-0.8,1.8c-0.4,0.9-0.9,1.7-0.3,2.6   C711.6,262.3,710.7,263,710.8,263.9z" />
	<path fill="#C1AE94" d="M691.3,313.4c-1.7-0.7-1.7-2.1-1.5-3.2c0.2-1.2,0.2-2.5,0.3-4c1.1,1.1,1.6,2.3,1.3,3.6   C691.1,310.9,691,312,691.3,313.4z" />
	<path fill="#CFBBA1" d="M732.8,301.1c-0.2-0.5,0.2-1.1-0.4-1.5c0.6-3.1-0.1-6.3,1-9.4c0.8,0.3,1,1,0.8,1.6c-0.8,2.8-0.9,5.7-1,8.6   C733.1,300.7,732.9,300.9,732.8,301.1z" />
	<path fill="#595146" d="M720.8,288.2c-0.3,2-1.1,3.8-2,5.6c-0.1,0.2-0.4,0.1-0.6,0.1c-0.5-0.6,0.1-1,0.2-1.5   c0.6-2.1,1.3-4.1,1.9-6.2C720.6,286.8,719.9,287.7,720.8,288.2z" />
	<path fill="#BCA88C" d="M712.8,318.6c0.1,0.5,0.6,0.4,0.9,0.4c-0.9,1.9-2.4,3.4-3.6,5.1c-0.2-0.2-0.4-0.4-0.7-0.6   C710.8,322,711.3,320,712.8,318.6z" />
	<path fill="#A9967E" d="M707.2,313.7c-0.8,2.4-1.6,4.8-2.4,7.2c-0.7-0.3-0.9-0.5-0.7-1.1c0.7-2.3,1.7-4.3,2.7-6.4   C706.9,313.5,707,313.6,707.2,313.7z" />
	<path fill="#AF9C82" d="M711.3,316.6c0.1,0.3,0.2,0.5,0.5,0.5c-1.1,2-2.2,4-3.4,6C708.1,321.8,709.3,319,711.3,316.6z" />
	<path fill="#74695B" d="M697.1,271.1c-0.6,1.3-1.2,2.6-2.1,3.6c-0.5,0.1-0.7-0.2-1-0.5c0.6-1.5,1.8-2.7,2.6-4.1   C696.7,270.5,696.6,271,697.1,271.1z" />
	<path fill="#BEA98E" d="M730.8,274.4c0.2,0,0.3,0,0.5,0c0.2,0.5-0.4,1.4,0.8,1.4c-1.5,1.6-3.5,1.8-5.4,2.4c0.5-1.1,1.7-1.1,2.5-1.7   C729.9,275.9,730.9,275.7,730.8,274.4z" />
	<path fill="#5E5447" d="M712.3,325.6c0.8-0.6,1.3-1.5,1.7-2.4c0.3-0.6,0.5-1.4,1.5-1.3c0.4,1.2-0.4,2-1.1,2.8   c-0.5,0.6-1.2,1-1.2,1.9C712.7,326.5,712.9,325.7,712.3,325.6z" />
	<path fill="#CBB3A4" d="M14.3,358.6c-1.1,1.2-2.6,1-4.4,1.2C11.4,358.3,12.8,358.2,14.3,358.6z" />
	<path fill="#60574B" d="M709.4,304.7c0.8-0.9,0.4-2.4,1.4-3.3c0.9,1.1,0.9,1.1-0.4,3.8c-0.1,0-0.3,0-0.4,0.1   C709.9,305,709.7,304.8,709.4,304.7z" />
	<path fill="#49433A" d="M699.5,278.7c-0.2,1.3-0.2,1.3-1,2.3c-0.6-1.3-0.6-1.3,0.5-3.3C699.1,278.1,698.9,278.6,699.5,278.7z" />
	<path fill="#AB9B84" d="M710,305.3c0.1,0,0.3,0,0.4-0.1c0.1,0.3,0.2,0.5,0.5,0.5c-0.4,1.5-1.5,2.7-2.2,4.5   C708.4,308.1,710,306.9,710,305.3z" />
	<path fill="#D3BC9D" d="M719,264.5c0.1-0.7,0.6-0.6,1.1-0.5c0.6,0.3,0.1,1.3,0.9,1.5c-0.3,0.9-0.8,1.8-1.9,2.5   c0.1-1.4,1.2-2.2,0.9-3.3C719.6,264.4,719.3,264.5,719,264.5z" />
	<path fill="#4C453C" d="M718.4,263.5c0.1,0.8-0.2,1.4-1,2.1c-0.7-1.2-0.3-2,0.5-2.7C718,263.2,718.1,263.4,718.4,263.5z" />
	<path fill="#988974" d="M709.6,315c0.4-1,0.3-2.2,1.2-3C711.1,313.4,710.6,314.3,709.6,315z" />
	<path fill="#49413C" d="M823.2,335.6c1.4,0.1,2.9-0.4,4.3,0.4c-1.1,0-2.3,0-3.4,0C823.8,336.1,823.4,336.1,823.2,335.6z" />
	<path fill="#433E35" d="M716.4,316.1c0.2-0.3,0.4-0.5,0.7-0.8c0.7-0.1,0.9,0.3,0.9,0.9c-0.2,0.4-0.3,0.9-1,0.9   C717.1,316.6,717,316.2,716.4,316.1z" />
	<path fill="#A39084" d="M692,285.2c0.7,0.6,1.3,0.9,1.3,1.8C692.4,286.8,692.4,286.8,692,285.2z" />
	<path fill="#6C6254" d="M711.6,308.5c-0.5-0.8-0.2-1.3,0.5-1.8C712.6,307.6,711.8,307.9,711.6,308.5z" />
	<path fill="#CBB598" d="M739.4,285.9c-0.4,0.5-1,0.7-1.6,0.8c0.1-1,0.9-0.8,1.5-0.9C739.3,285.8,739.4,285.8,739.4,285.9z" />
	<path fill="#49433A" d="M699.1,277.3c0-0.5-0.1-1.1,0.4-1.5C699.5,276.3,699.8,276.9,699.1,277.3z" />
	<path fill="#BDAC93" d="M732.3,319c0-0.5-0.4-1.2,0.5-1.4l0,0C732.7,318.1,733,318.7,732.3,319L732.3,319z" />
	<path fill="#D3BC9D" d="M720.9,265.5c0-0.3,0.1-0.6,0.5-0.5c0.5,0.1,0.4,0.5,0.3,0.9C721.5,265.8,721.2,265.7,720.9,265.5z" />
	<path fill="#4D473D" d="M727.9,269.2c-0.1,0.7-0.6,0.6-1,0.4c-0.3-0.1-0.3-0.3,0-0.4C727.3,269.2,727.6,269.2,727.9,269.2z" />
	<path fill="#574F44" d="M717,294.3c0.1,0.6,0.1,1.1-0.4,1.5C716.6,295.3,716.3,294.7,717,294.3z" />
	<path fill="#BAA990" d="M732.7,317.6c0-0.4-0.2-0.9,0.3-1.4C733.3,316.8,733.4,317.3,732.7,317.6L732.7,317.6z" />
	<path fill="#BBA78C" d="M692.9,295.8c0,0.5,0.3,1.1-0.4,1.5C692.4,296.7,692.2,296.1,692.9,295.8z" />
	<path fill="#FAE4C4" d="M720.4,274.8c0,0.3-0.1,0.6-0.1,0.9c-0.4-0.6-0.4-0.6,0.1-1.2C720.4,274.5,720.5,274.6,720.4,274.8z" />
	<path fill="#EF896A" d="M402.6,295.8c0.3-0.1,0.7-0.3,0.5-0.6c-1.1-2.4,0.1-4.2,1.6-5.9c0.7-0.8,1.4-1.4,2.2-2.2   c0.4-0.4,0.8-0.8,1.1-1.2c2.5-4.6,6.4-6.5,11.7-6.2c1.5,1.9,3.5,3.2,5.3,4.9c0.5,0.5,0.9,1.1,1.3,1.7c0.8,1.3,1,2.6,0.1,3.9   c-0.3,0.4-0.3,0.7-0.2,1.1c-4.6,1.8-9.1,3.5-13,5.5c-1.1,0.2-1.4-0.7-2.1-0.2c0,0.5,0.3,1.2-0.5,1.5c0.6,0.2,1.1,0,1.3,0.6   c-1.3-0.1-2.4,0.7-3.7,1c-0.9-0.4-1.8-0.9-2.7-1.3c-0.3,0.2-0.2,0.5-0.3,0.8C404.1,298.1,403.7,296.7,402.6,295.8z" />
	<path fill="#301D16" d="M402.6,295.8c1.1,0.9,1.5,2.3,2.5,3.2c1.3,2.3,2.6,4.6,3.9,6.9c0.5,0.9,1.1,1.7,1.3,3.1   c-2.3-1.6-3.1-3.9-4.8-5.8c-3.6,1.9-7.3,3.6-10.5,6.2c-2.9,2.3-6.1,4.1-9.8,5.1c-0.9,0.2-1.8,0.4-3.2,0.1c1.7-0.7,3-1.2,4.3-1.7   c2.7-1,5.2-2.4,7.6-4.2c2.8-2.1,5.7-3.9,8.9-5.2c0.7-0.3,1.5-0.5,2-1.1c-0.9-2.2-2.7-3.8-3.2-6C402,295.8,402.3,295.8,402.6,295.8z   " />
	<path fill="#24140E" d="M411.8,298.6c-0.2-0.6-0.7-0.4-1.3-0.6c0.9-0.3,0.5-1,0.5-1.5c0.6-0.5,1,0.3,2.1,0.2c3.9-2,8.4-3.8,13-5.5   c2.9-0.9,5.9-1.6,8.7-2.6c1.6-0.5,3.1-0.3,4.6-0.3c0.4,0,0.5,0.4,0.8,0.8c-1.5,1.1-3.3,0.4-4.9,1c-1.6,0.7-3.3,1-4.9,1.5   s-3.1,1-4.7,1.5s-3.2,1-4.9,1.6c-0.1,1.4,1.1,2.5,0.7,3.9c-1.5-0.6-1.3-2.3-2.4-3.2c-2.1,0.5-4.1,1.5-6.2,2.2   c-0.1,0.2-0.2,0.4-0.3,0.6c0,0.2,0,0.5-0.1,0.7C412.3,298.8,412,298.7,411.8,298.6z" />
	<path fill="#1A0E08" d="M265.8,330c-1.6-0.5-1.8-1.9-1.9-2.9c-0.5-2.7-1.1-5.5,0.1-8.1c1-0.3,1.5,0.2,1.7,0.8   c0.2,0.8,0.5,1.6,0.5,2.5c0.1,1.9-0.2,3.8,0.4,5.6C266.8,328.7,266.2,329.3,265.8,330z" />
	<path fill="#040405" d="M372.8,292.9c1-0.4,1.6,0.3,2.4,0.7c4.6,2.6,8.3,6.4,11.5,10.6c-0.1,0.3-0.3,0.5-0.6,0.6   c-3.2-3.2-6.4-6.3-10.2-8.8c-0.5-0.4-1-0.9-1.7-0.8h0.1c0-0.5-0.4-0.7-0.7-1.1C373.2,293.9,372.8,293.5,372.8,292.9L372.8,292.9z" />
	<path fill="#291811" d="M257.3,323.3c0.5,0.5,0.7,1.2,0.9,1.8c0.8,2.9,0.8,5.9,1.2,8.8c0.1,0.5-0.2,1.1-1.2,1.1   c-0.6-3.7-1.5-7.4-1.6-11.2C256.7,323.5,256.9,323.3,257.3,323.3z" />
	<path fill="#2E1C14" d="M377.7,291.2c0.4-0.7,0.8-0.7,1.3-0.4c3.2,1.5,5.9,3.7,8.2,6.7C385.1,297,379.4,293.2,377.7,291.2z" />
	<path fill="#261610" d="M374.2,295.3c2.2,3.1,4.4,6.2,6.6,9.3c-0.6,0.4-0.9,0.2-1.2,0c-2.2-1.9-4.1-4.1-5.5-6.7   C373.7,297,373.3,296.1,374.2,295.3L374.2,295.3z" />
	<path fill="#2F1C14" d="M271.8,318.9c1.4,1.8,1.4,3.3,0.3,4.9C270.6,322.6,270.5,320.8,271.8,318.9z" />
	<path fill="#291811" d="M261.3,321.5c-1.2-1.6-0.9-3.1-0.7-4.7c1.3-0.1,1.5,0.9,1.7,1.6C262.6,319.4,262.5,320.5,261.3,321.5z" />
	<path fill="#40271E" d="M251.9,316.5c1.7,1.3,1.7,1.3,1,3C251.6,318.9,252,317.9,251.9,316.5z" />
	<path fill="#4C2F25" d="M281.8,320.1c-1.2-1.4-1.2-1.4-0.2-2.4c0.6,0,1,0.4,1.1,1C282.8,319.3,282.4,319.6,281.8,320.1z" />
	<path fill="#8A5441" d="M386.1,304.9c0.3-0.1,0.5-0.3,0.6-0.6c0.8,0.6,1.4,1.3,1.7,2.5C387.2,306.5,386.7,305.6,386.1,304.9z" />
	<path fill="#1F1E15" d="M472.9,306.6c-2.5-7.1-5.1-14.2-7.6-21.4c-1.2-3.4-2.4-6.8-3.5-10.3c-0.2-0.7-0.9-1.5-0.1-2.5   c0.8,0.3,1,0.9,1.2,1.6c3.6,10.3,7.8,20.5,10.5,31.1C473.2,305.7,473.7,306.4,472.9,306.6z" />
	<path fill="#232218" d="M454.1,262.2c0.9,0,0.9,0.8,1.1,1.2c1.8,6.5,4,12.8,5.7,19.9c-2.2-2.3-4.5-8.9-6.7-18.2   C453.9,264.1,453.6,263.1,454.1,262.2z" />
	<path fill="#302E1F" d="M537.4,308.6c0.1,3.1,0.1,3.1-0.7,4.2c-0.4,0-0.7-0.3-0.8-0.7c-0.6-1.9-1.5-13.4-1.2-16.2   c1,1.2,0.9,2.7,1.2,4c0.1,0.6-0.1,1.3,0.4,1.8C536.5,303.9,536.9,306.3,537.4,308.6z" />
	<path fill="#383626" d="M466.6,271.1c1.6,1.7,2.4,5.4,1.7,8.3c-1.4-2.6-1.6-5.2-2.3-7.7C466,271.5,466.2,271.2,466.6,271.1z" />
	<path fill="#847C56" d="M472.9,306.6c0.8-0.3,0.2-1,0.5-1.4c0.7,1.5,1.2,3.1,1.4,4.8c-0.3,0.1-0.5,0.2-0.7,0.4   c-0.3-0.2-0.2-0.7-0.6-0.8C473.5,308.5,472.7,307.7,472.9,306.6z" />
	<path fill="#484531" d="M542.6,308.9c-0.5,0-0.6-0.4-0.9-0.7c0-0.9,0.5-1.2,1.1-1.6C543.7,307.8,543.7,307.8,542.6,308.9z" />
	<path fill="#2D2824" d="M594.8,292.3c-1.6,1.1-2.7,0.4-3.3-1.9c0.4-0.4,0.9-0.4,1.2,0C593.4,290.9,594.6,291,594.8,292.3z" />
	<path fill="#3F3833" d="M621.8,262.3c-1.6-0.5-3-0.8-3.9-2C619.8,259.7,621.1,260.3,621.8,262.3z" />
	<path fill="#453E39" d="M585.5,285.1c1.3-0.2,1.3-0.2,2.6,0.7c0.2,0.7-0.2,1-0.7,1.3C586.3,287.2,585.6,286.5,585.5,285.1z" />
	<path fill="#322D29" d="M807.6,353.6c0.1,0.2,0.2,0.4,0.3,0.6c-1.6,1.3-2.9,1.1-3.6-0.6C805.4,353.1,806.5,353.8,807.6,353.6z" />
	<path fill="#2C2623" d="M581.6,279.2c1.8,1.3,1.8,1.3,1.6,2.7C581.2,281.6,580.8,281,581.6,279.2z" />
	<path fill="#322C29" d="M849.3,358.8c0.2,0.4,0.9,0.3,0.9,1c-1.8,0.8-2.4,0.7-3.7-0.7c0.5-0.8,1.3-0.2,1.9-0.4   C848.7,358.8,849,358.8,849.3,358.8z" />
	<path fill="#26211E" d="M617.5,260c-0.5,0.7-0.9,0.7-1.5,0.5c-0.9-0.3-1.2-0.5-1.9-1.3C615.7,258.6,615.7,258.6,617.5,260z" />
	<path fill="#413A36" d="M610.9,257.8c-0.8,1.4-1.6,0.7-2.3,0.3c-0.4-0.2-0.4-0.4-0.2-1.4C609.5,256.5,610.1,257.2,610.9,257.8z" />
	<path fill="#3D3632" d="M803.2,353.7c-0.8,1.3-1.1,1.3-2.7,0.4c0-0.7,0.2-1.1,0.9-1C802.1,353.1,802.7,353.2,803.2,353.7z" />
	<path fill="#2F2A26" d="M824.6,356.5c0.2,0.4,0.8,0.6,0.5,1.3c-0.8,0.2-1.7,0.3-2.3-0.5c-0.2-0.6,0.2-0.9,0.5-1.2   C823.7,356.1,824.1,356.5,824.6,356.5z" />
	<path fill="#312B28" d="M796.2,352.2c0.7,0.6,0.7,1.2,0,1.8c-0.2,0-0.5,0-0.7,0C794.8,353.1,795.2,352.5,796.2,352.2z" />
	<path fill="#E2C8B7" d="M186.6,339.4c-1.7,0.4-2.2-1.2-3.1-1.9c-0.4-0.7-0.1-1.3-0.3-1.9c0.8-1.3,1.8-1.9,3.2-2.1   c1.8-0.2,3.5-0.6,5.3-0.8c4.3-0.4,8.6-0.3,12.9-0.5c4-0.2,8-1,12.1-0.8c3,0.1,6,0.3,8.8,1.6c0.7,0.3,1.3,0.2,2-0.1   c1.1-0.4,2.1,0.3,2.9,0.8c0.4,0.2,0.2,0.7,0.1,1.3c-2.1,1.2-4.5,1.9-7,2.4c0.6-0.6,1.4-1,1.3-2.1c-0.7-1.4-1.8-1.9-3.3-1.7   c-1.9,0.3-3.8,0.3-5.5,1c-0.8,0.3-1.9,0.2-2.5,1.2c0.5,1,1.4,1.2,2.3,1.5c1.6,0.6,3.2,0.4,4.9,0.5c-1.3,0.5-2.6,0.9-3.9,0.9   c-3.2,0-6.4,0.3-9.5,0.9c-0.1,0-0.2,0-0.2,0c-4.2-0.2-8.3,0.8-12.4,0.5c-0.5,0-0.9,0-1.4-0.2c-1.1-0.5-2.3-0.4-3.4,0.2   c-0.6-1-1.6-0.2-2.3-0.5c0-0.1,0-0.3,0-0.4c1.2-0.2,2.7,0.3,3.4-1.4c-0.4-1.2-1.3-1.5-2.4-1.4c-1.4,0-2.5,0.5-3.2,1.6   C185.5,339,186.3,338.9,186.6,339.4z M208.8,337.7c-0.3-1-0.9-1.2-1.7-1.2c-1.6,0-3.3-0.3-4.6,1   C205.1,339.8,207.3,339.9,208.8,337.7z M198.4,337.3c-1.8-1.6-3.2-1.6-4.6,0.1C195.6,338.9,197.4,338.9,198.4,337.3z" />
	<path fill="#E2C8B7" d="M76.9,345.1c-1-0.9-2.1-1.3-3.5-0.6c-0.6,0.3-1.5,0.1-2.2,0.2c-0.7-0.6-1.3-1.1-1.7-1.7   c-0.2-1.9,0.1-3.6,1.2-5.3c2.5-3.6,7.9-3.1,10,0.3c0.6,1,1.1,2.2,1.4,3.4c0.5,1.8-0.9,3.6-2.8,3.8   C78.6,345.1,77.8,345.1,76.9,345.1z" />
	<path fill="#13100E" d="M220.7,338c-1.6-0.1-3.3,0.1-4.9-0.5c-0.9-0.3-1.8-0.6-2.3-1.5c0.6-1,1.7-0.9,2.5-1.2   c1.8-0.7,3.7-0.7,5.5-1c1.5-0.2,2.6,0.3,3.3,1.7c0.1,1-0.7,1.4-1.3,2.1C222.6,337.7,221.6,337.8,220.7,338z" />
	<path fill="#1E1A17" d="M95.7,349.4c2.3-0.5,4.8-0.7,7.3-1c0.6-0.1,1.2,0.1,1.6,0.8c0,0.2,0,0.4,0,0.4c-2.1,1.6-4.5,2.1-7,2   c-0.7,0-1.4-0.2-1.9-0.8C95.4,350.5,95.3,350.1,95.7,349.4z" />
	<path fill="#221E1B" d="M186.6,339.4c-0.3-0.5-1.1-0.4-1.3-1.2c0.6-1.1,1.8-1.6,3.2-1.6c1.1,0,2,0.3,2.4,1.4   c-0.6,1.7-2.1,1.3-3.4,1.4C187.2,339.4,186.9,339.4,186.6,339.4z" />
	<path fill="#292421" d="M34.7,356.5c0.2,0.5,0.8,0.8,0.5,1.5c-1.2,1.2-1.8-0.3-2.7-0.7c-0.4-0.6-0.7-1.2-1-1.7   c0.2-0.8,0.6-1,1.2-0.6C33.4,355.4,34,356,34.7,356.5z" />
	<path fill="#2E2825" d="M58.2,351.8c1.7,0.7,0.9,2.3,1.6,3.1c-0.5,0.8-1,0.8-1.5,0.4C57.3,354.4,57.3,353.5,58.2,351.8z" />
	<path fill="#4C433E" d="M28.3,360.4c1.4-0.2,2.9-0.5,4.1-0.7c0.5,0.4,0.6,0.8,0.3,1.4c-1.4-0.1-3,0.7-4.5-0.3   C28.3,360.6,28.3,360.5,28.3,360.4z" />
	<path fill="#231E1B" d="M128.8,348c-1.5,1.3-1.8,1.3-3.1,0.1C126.9,346.5,127.3,346.5,128.8,348z" />
	<path fill="#342E2A" d="M107.3,350.3c1.1-1.8,1.9-1.9,3.3-0.5C109.6,350.9,108.5,350.3,107.3,350.3z" />
	<path fill="#39332F" d="M113.5,349.6c1.4-1.8,1.4-1.8,2.7-0.5C115.6,350,114.7,350.1,113.5,349.6z" />
	<path fill="#3E3733" d="M38.8,352.5c-1-1.1-1-1.1-0.7-2.2c0.6-0.3,1.1,0,1.4,0.5C39.8,351.6,39.5,352.1,38.8,352.5z" />
	<path fill="#6E625A" d="M121.1,348.1c-0.9,1.5-0.9,1.5-2.4,0.4C119.4,347.5,120.2,347.7,121.1,348.1z" />
	<path fill="#282421" d="M65.9,348.9c0.9,1.5,0.9,1.5-0.4,2.3C64.8,350.3,64.9,349.6,65.9,348.9z" />
	<path fill="#37302C" d="M61.9,350.6c1.7,0.3,1.4,1.1,1.2,2.1C61.8,352.4,61.7,351.7,61.9,350.6z" />
	<path fill="#504742" d="M36.4,352.5c0.6,0.8,0.5,1.4,0,2C35,353.3,35,353.3,36.4,352.5z" />
	<path fill="#8C7B72" d="M187.5,339.8c0.8,0.3,1.7-0.5,2.3,0.5c-1.1,0.2-2.2,1.2-3.2-0.2C186.8,339.8,187.2,339.9,187.5,339.8z" />
	<path fill="#2A281A" d="M540.5,311.1c1.6,1.6,1.4,2.5-0.5,3.5C538.8,313,538.8,312.7,540.5,311.1z" />
	<path fill="#211D1A" d="M722.2,354.8c-1.2,1.5-2.2,1.1-3.3,1c-5.2-0.9-6.1-1.2-7.4-3.2c0.1-0.5,0.3-0.9,0.9-1.1   C715.3,353.3,718.8,353.3,722.2,354.8z" />
	<path fill="#2B2623" d="M730.7,355.3c0.3,0.7,0.1,1.2-0.5,1.4c-0.8,0.2-1.3-0.2-1.6-1C729.2,354.8,729.9,354.9,730.7,355.3z" />
	<path fill="#443D37" d="M725.3,355.4c-0.9,0.9-1.5,0.8-2.1-0.1C723.9,354.4,724.5,354.2,725.3,355.4z" />
	<path fill="#E1C7B6" d="M502.8,340.3c0.2-0.7,0.8-0.6,1.1-0.5c1.9,1.1,4.3,1.2,6,2.8c-2.5,0.2-5.1-0.5-7.8,0.6   c0.5,0.4,0.7,0.7,1,0.7c2.3,0.1,4.7,0.2,7,0.2c0.3,0,0.6-0.1,0.7-0.6c0.1-0.3-0.4-0.4-0.6-0.8c0.2,0,0.5,0,0.8,0   c0.3,0.7,0.5,1.4,0.8,2.1c0.7,1.8,0.1,3.3-1.7,3.9c-1.2,0.3-2.5,0.4-3.7-0.1c-1.5-0.7-3-1.1-4.7-1.2c-1.2-0.1-2.4-0.6-3.1-1   c-1-0.7-0.4-1.7-1.1-2c-0.1-1.7,2.3-3.5,4.6-3.6c0.7,1.5,1,1.5,2.3,0.2C504.2,340.1,503.4,340.3,502.8,340.3z" />
	<path fill="#37302D" d="M510.2,342.7c0.2,0.3,0.7,0.5,0.6,0.8c-0.1,0.6-0.5,0.6-0.7,0.6c-2.3,0-4.7-0.1-7-0.2c-0.2,0-0.5-0.3-1-0.7   c2.7-1.1,5.3-0.4,7.8-0.6C510,342.8,510.1,342.8,510.2,342.7z" />
	<path fill="#38322E" d="M496.6,327c0.1,0.5-0.1,0.9-0.7,1.1c-1.7,0.5-3.4,1-5.2,0.7c-0.3,0-0.5-0.3-0.7-0.6   c0.1-0.3,0.3-0.6,0.6-0.6C492.6,327.6,494.6,326.8,496.6,327L496.6,327z" />
	<path fill="#312B28" d="M520.7,348.8c-1.1-1.4-1.1-2.3,0.4-3.8C522,346.2,521.9,346.9,520.7,348.8z" />
	<path fill="#534943" d="M490.2,332.6c1.1,0.9,2.7-0.5,3.7,1.1c-1.2,1.2-2.5,0.3-3.7,0.2C489.9,334,489.8,333.4,490.2,332.6z" />
	<path fill="#3E3733" d="M502.8,340.3c0.7,0,1.4-0.2,1.8,0.7c-1.3,1.3-1.6,1.2-2.3-0.2C502.4,340.6,502.6,340.5,502.8,340.3z" />
	<path fill="#4D443F" d="M503.6,326.5c-0.6,0-1.2,0.2-1.8-0.3c0-1.3,1-1,1.8-1C503.8,325.7,503.8,326.1,503.6,326.5z" />
	<path fill="#3A332F" d="M496.6,327.1c0.4-1.2,1.3-1.1,2.2-0.7C498.2,327.8,498.2,327.8,496.6,327.1L496.6,327.1z" />
	<path fill="#675B54" d="M488,334.1c-0.4-0.1-0.6-0.4-0.8-0.7c0.6-1,1.1-0.7,1.6,0.1C488.6,333.8,488.4,334.1,488,334.1z" />
	<path fill="#554B45" d="M501.6,337.7c0.3-0.3,0.5-0.4,0.7-0.6c0.7,0.1,1,0.3,0.9,0.9C502.7,338.6,502.3,338.6,501.6,337.7z" />
	<path fill="#E2C8B7" d="M503.6,326.5c0.2-0.4,0.2-0.9,0-1.3c0.2,0,0.4-0.1,0.6-0.1l0,0C504.1,325.6,504.6,326.4,503.6,326.5z" />
	<path fill="#352F2B" d="M814.3,332.2c-1.2,0.4-2.4,0.6-3.4-0.7c0.7-1,1.6-0.7,2.5-0.6C814.1,331.1,814.2,331.7,814.3,332.2   L814.3,332.2z" />
	<path fill="#524943" d="M508.5,324.2c-1.1,0.9-1.1,0.9-2.1,0.4C507,323,507,323,508.5,324.2z" />
	<path fill="#171511" d="M707.5,284.8c-1.1,0.2-1.9,0.4-2.7,0.5c-0.3-1.3,0.2-2.5,0.3-3.7c0.4-3.9,0.9-7.8,2.1-11.5   c0.6-0.6,1.2-0.5,2.1,0C709.3,275,707.5,279.7,707.5,284.8z" />
	<path fill="#1F1C17" d="M695,267c1,1.1,0.7,1.8,0.3,2.3c-1.5,1.8-2.6,3.9-3.4,6.1c-0.2,0.5-0.6,0.9-1.1,1.1   c-0.7-0.2-0.9-0.7-0.7-1.2c0.1-0.6,0.4-1.2,0.6-1.8C691.6,271.1,693.7,269.5,695,267z" />
	<path fill="#3C3730" d="M687.8,276.9c-0.9,0.1-1.2-0.4-1.2-1.1c0-0.6,0.3-1,0.5-1.6c0.8-2,2.6-3.4,3.3-5.6c0.8,0.5,0.7,1.1,0.5,1.6   C689.9,272.4,688.8,274.6,687.8,276.9z" />
	<path fill="#25221D" d="M717.5,284.4c-0.3,0-0.6,0-0.9,0c0-0.5,0-0.9,0.1-1.4c0.8-0.7,0.4-1.6,0.4-2.5c0.5-2.6,0.9-5.3,1.9-8   c0.7,0.4,1.2,0.7,0.9,1.3c-0.4,1-0.3,2-0.5,3c-0.7,1.9-0.7,3.9-1.2,5.9C717.9,283.2,717.8,283.8,717.5,284.4z" />
	<path fill="#928572" d="M718,316.1c0-0.6-0.2-1-0.9-0.9c0.6-1,1.2-2.1,1.9-3.1c0.1-0.1,0.3-0.1,0.4-0.2c0.6,0.2,0.7,0.8,0.4,1.1   C718.9,313.9,718.8,315.2,718,316.1z" />
	<path fill="#252424" d="M665.4,278c0.3-0.6,0.6-1,1.1-1.2c0.6,0.4,0.9,0.9,0.4,1.5C666.4,279,665.9,278.8,665.4,278z" />
	<path fill="#352F2B" d="M467.4,346.4c-0.3-0.5-0.3-0.7,0-1.1l0.1-0.1c1.8-0.1,3.6-0.2,5.3-0.2c0.5,0,1.1-0.2,1.4,0.4   C472.8,347,470.8,347.3,467.4,346.4z" />
	<path fill="#403935" d="M480.8,351.9c0.8-1.4,2.1-1.2,3.1-1.5C484.5,352.1,483.7,352.5,480.8,351.9z" />
	<path fill="#2D2824" d="M478.7,349.1c-1.1,1.5-1.6,1.6-3.3,0.5C476.3,348.5,477.4,348.6,478.7,349.1z" />
	<path fill="#574F44" d="M717,280.5c0,0.8,0.4,1.8-0.4,2.5C716.6,282.1,716.4,281.3,717,280.5z" />
	<path fill="#524943" d="M843.4,358.2c0.7-0.6,1.2-0.6,1.6,0.1C844.6,359.1,844.1,359,843.4,358.2z" />
	<path fill="#49413C" d="M786.4,333.8c1.1-0.4,2.7,0.1,4.6,1.6c-1.1,0.7-1.6-0.2-2.4-0.5C787.9,334.7,786.9,334.9,786.4,333.8z" />
	<path fill="#1B1715" d="M208.8,337.7c-1.6,2.3-3.8,2.2-6.3-0.2c1.3-1.3,3-1,4.6-1C207.9,336.4,208.5,336.6,208.8,337.7z" />
	<path fill="#2F2A26" d="M198.4,337.3c-1.1,1.6-2.8,1.6-4.6,0.1C195.3,335.7,196.7,335.7,198.4,337.3z" />
</g>
</svg>