<?xml version='1.0' encoding='utf-8'?>
<svg xmlns="http://www.w3.org/2000/svg" version="1.2" baseProfile="tiny" id="Layer_2_00000019640247105842983350000016974255315054032573_" x="0px" y="0px" viewBox="0 0 900 600" overflow="visible" xml:space="preserve">
<g>
	<path fill="#C2F0FA" d="M533.4,403.4c0.1-0.2,0.2-0.4,0.3-0.4c-69-19.4-100.9-44.3-175-17.4c0.2,0.5,0.3,0.8,0.4,1.1   c-41.5-2.2-82.6,10.4-124.2,4.9c-28.5-2.7-55.3-14.1-83.5-18.3c-29.3-5.1-59.1-1.4-88.6-0.3c9.2-4.7,18.6-10.9,29.3-10.9   c-0.5-0.6-0.8-1-1.1-1.4c2.2,0.2,4.1,1.1,6.2-0.1c0.5,1.2,1.7,0.9,2.4,0.7c12.6-1.7,25.8-0.7,38.5-2.5c20.8,2,41.2,7.7,61.8,10.8   c40.5,4.1,81.8,2.2,122.2-3.7c-30-3.6-58.8-11.3-88.7-15c34.5-5,69.4-16.8,104.7-21.2c-3.8-1.6-6.9,0.7-10-1.2   c17.6-0.3,36,0.3,53.1-1.4c16.1,2.2,32.1,2.8,48.1,6.2c4.2-0.1,20.1,6.5,21.3,3.7c-40.7-23.9-98.9-24.6-143.2-12.8   c-17.2-1.9-30-16.3-47.6-17.1c-8.3-1.3-34.1-2.3-39.7,3.8c33.3-9.4,51-0.8,79.7,14.7c-56.8,4.5-114.6,13.3-171.6,7.6   c-0.8,0.5-1.4,0.9-2.2,1.4c-24.7-1-50.3-4.2-73.4-13.6c33,0.4,66.9,3.4,99.4-4.6c-15-4.1-31-6.2-46.4-9.3   c-18.8-0.5-38.2,0.5-56.2-5.6c12-6.8,27.5-5.8,41.1-4.6c14,1.7,28.3-3.3,42.3-3.7c0.2-0.2,0.5-0.4,0.7-0.6   c40.2-2.3,81.7,2,121.5-5.5c5.6,7.7,15.2,11.2,24.7,11.7c2.6,1,7.1,1.1,9.7,0c43.1,10.9,92.4,14.2,133.8-2.1   c15.8-1.6,30.7-10.1,46.9-7c36.5,1.7,73.5,11.7,109.3,1c19.3,1,42.1,5.1,56.7-11.2c3.2,0.7,4.9-2.1,7.3-3.6   c15.1,8.8,32,14.4,49.8,13.9c5-1.9,9.5,1.7,14.4,0.1c1.8-0.3,3.6,1.3,5.3,1.9c-25.2,6.5-52.5,8-77.8,15.6c0,0.4,0,0.8,0,1.4   c44.3,4.9,88.4-4.1,131.7-14.2c-9.4,9.1-21.2,13.2-31.7,20.7c-6.6,4.4-11.7,10.5-19.3,13.4c0.2,0.4,0.3,0.7,0.4,1   c-0.6,0.1-1.3,0.2-2,0.4c0,0.6,0,1,0,1.5c0.6,0,1.1-0.1,1.7-0.1c0,0.6,0,1.1,0,1.5c-1.7,1-2.4-0.7-3.9-1.1c0.4-0.4,0.9-0.9,1.5-1.4   c-25.6,10.1-52.4,22.4-80.6,22.2c-30.1,0.7-67.6-6.9-94.2,8.8c54.7-9.3,108.8,6.6,162.4,13.4c-19.3,1.9-38.7-1.1-57.9-2.2   c-0.9-1.1-1.9-0.7-3.1-0.3c54.5,13.7,110.3-1.8,165.1-6.5c-1.1,1-2.4,0.6-3.7,1.1c23.8,3.1,48.3,3.4,72.2,6.2   c-27.9,1.4-55.5,6.2-83.2,9.9c0.2,0.3,0.3,0.5,0.4,0.8c-0.1,0.2-0.1,0.3-0.3,0.5C705.2,389.5,618.9,415.4,533.4,403.4z    M201.9,315.8c39.1-5,42.1,13.9,64.2,11.4c-10,0.3-17.4-5.1-26.2-8.7c-17.3-5.9-41.3-7.6-56.2,3.3   C189.5,319.1,196,317.6,201.9,315.8z M143,322.9c0.3-3.1-7.7-1.5-4.8,1.7c0.8,0,1.7,0,2.6,0c-0.4-0.6-0.7-1-1.1-1.7   C141.1,322.9,142,322.9,143,322.9z M506.2,381c0.8-1.1,1.9-2.5,0.1-2.8C504.6,378.4,505.1,379.9,506.2,381z" />
	<path fill="#C2F0FA" d="M444.5,395.7c-0.5,1-1.7,0.5-2.6,1c47.2,18.3,95.5,31.9,144.7,43c-95.7,17.9-193.6,17.7-289.6-0.2   c52.2-8.1,103.8-26,156.7-14.3c-30.9-36.9-125.4,1.7-168.8,3.5c-54,7-108.3-10.5-162,5c-0.4-0.6-0.7-1.2-1-1.8   c6.8-22.4,30.1-33.8,52.6-34.8c-0.4-0.5-0.8-0.9-1.1-1.3c86.7,15.4,120.2,23.6,208.3-4.2c9.2,0.5,20.2-0.4,30.2,0   c7.5,0.7,15.3,1.2,22.8,3.3c0.7,0.2,1.3,0,1.6-0.8C438.3,396.8,441.7,395.7,444.5,395.7z" />
	<path fill="#C2F0FA" d="M805.7,268.2c-1.1,0.4-2.3,0.8-3.4,1.3c-20.8-4.8-41.2-15.2-62.8-14.2c-6.6,0.7-13.6,5.4-19.9,2.1   c-11.4-5.5-24.1-8.2-35.9-12.7c0.4-0.7,1.5-1.2,0.6-2.1c4.3-1.3,6.8-4.2,6.6-8.8c1.6,0,3.1,0,4.5,0c-1.1,1-2.4,0.6-3.9,0.8   c0,0.9,0,1.6,0,2.4c3.7-2.1,7.8-2.6,11.5-3.9c14.5,5.3,22-6.3,34.5-8.3c3.6,2.1,7.1,4.4,11.4,4.8c0.1-0.5,0.2-1,0.3-1.4   c23.3,2.7,46.9,3.9,70.3,1.5c-0.8,0.3-1.6,0.7-2.4,1c26.5,3.5,52.9-2.1,78.9-7.3c1.6,1.3,3.3,2.5,4,4.9c-2.1,1.7-4.2,3.4-6.5,5.3   c1.7,0.5,3.6-0.4,4.9,1.4c-12-1.5-24.7-1.2-36.2,2.9c-1,0-2-0.3-2.8,0.7c-16.1,3.5-31.5,9.6-47.7,12.3c1.8-2.2,5.4-4.2,2.2-6.7   c-4.5-0.2-7.8,0-11.9,1.3c-0.5-0.4-1-0.7-1.6-1.1c-3.9,1.8-8.1,0.8-12.9,1.4c4.2,1,7.7,1.7,11.3,0.6c2.5,3.3,10.1-3.6,15.5-0.1   c-0.1,0.4-0.2,0.9-0.4,1.3c-3.5,3.3-8.3,3.4-12.2,5.9c30.3-2,57.8-20.1,88.6-18.3c-6.2,6.3-16.1,8.9-22.8,14.5   c-0.5-0.5-1-0.9-1.6-1.5c-3.2-0.6-5.5,0.7-4.7,4.2c-8.2,4.3-19.4,6.9-25.5,13.8c-2.9-8.2-13.4-6-12.4,2.7c-0.3-0.6-0.6-1.2-1-2   c-3.4-0.6-7,0.8-10.6,0.6c0.2-0.5,0.3-0.9,0.6-1.7c-2.7,0.5-4,0.3-6.6-0.4C805.8,266.5,805.8,267.4,805.7,268.2z M734,240.6   c-3.7-2.8-6.5,2.7-9.7,2.8c-0.7,0.1-1.7-0.5-2.3,0.7C725.8,243.9,732.9,245.1,734,240.6z M779.7,246.9c0.1-0.2,0.1-0.4,0.2-0.6   c-9.9-2.2-20.3-2.6-30.2-4c-2.9,4.7-8.6,4.1-13.1,5.7c5.5,1,10-1.2,14.1-4.6C760.4,244.1,770.1,245.8,779.7,246.9z M710.4,245.6   c1.2,0.1,1.6,1.8,2.8,0.7c-1.6-2.5-2.4-2.8-4.6-1.6c-0.7,0.4-1.9,1-0.9,2.1C708.6,246.4,709.5,246,710.4,245.6z" />
	<path fill="#C2F0FA" d="M736.1,392.3c-9.7,3.4-23,2.3-32.2,5.8c30.2,6.4,62,7.2,91.3,17.3c-78.2,5.4-158.6,17.9-234.9-6   C619.5,411.5,677.4,396.9,736.1,392.3z" />
	<path fill="#C2F0FA" d="M3.3,270.4c2.4-0.1,4.8-0.2,7.3-0.2c0.2-4.5,1.5-8,3.6-12.2c-1.7-0.1-3.2,0.1-4.6-0.7   c4.7-0.4,10.1,1.2,13.8-2.5c0.1-1,0.1-2,0.2-3.1c3-0.6,6.8,0.2,9.3-1.5c-0.2-0.5-0.4-0.8-0.5-1.1c7.4,1.3,14.4-0.3,21.4-2.2   c1.6,1.8,9.6-1.8,11.7-2.9c8.8,6,19.4,7.9,29.6,9c-9.1,1.6-12.8,11.8-16.1,19.2C69,279,56.3,272.1,51,288.5   c-3.4,0.6-5.9,2.8-9.3,2.5c-2.2,1.9-1.9,2.8-3.3,4.8c-2.2-1.1-3.3-3.1-3.7-5.3c-8.8-5-21.5-4.3-22.8-17.4c-1.6-0.1-3.1-0.1-4.6-0.2   c6.1-1.3,13.3-0.6,19.7-0.3C20.2,268.5,10.7,272.9,3.3,270.4z M26.3,269.9c2.5,0.5,8.3,0.6,11.3,0c0.4-3.3-3.5-3-2.5-7.5   c5.7-6.7,19.8-1,27.4,0.2c2.1-0.4,10.5,4,10.2,1.7c-7.2-3.9-48.9-15-37.3,4.4c-3.1,0.2-6.1-0.1-9,0.2   C26.4,269.5,26.3,269.7,26.3,269.9z" />
	<path fill="#C2F0FA" d="M172.2,393.1c-10.3-7-22.8-6.7-34.6-9.2c-20.7-5.3-41.5-8.6-62.8-8.9c122.1-8.3,123.9,42.4,276,14.6   c-11.8,7.1,17.4,3,20.1,3.6C305,414.5,238.7,407.1,172.2,393.1z" />
	<path fill="#C2F0FA" d="M836.7,313c-34.1,13.8-69.2,25.8-105.1,34.5c7.5-10.5,16.7-19.7,25.5-29.1c3.7-4.5,11.8-4.4,14.9-8.9   c1.7,1.7,4.8,4.1,6.9,1.9c-1.6-1-5-1.3-3.8-3.6c0.5,0.1,0.6,1.1,1.6,0.6c0.1-0.7,0.2-1.6,0.4-2.4c0.3,0.6,0.6,1.2,0.9,1.8   c10.9-5,22.7-8.3,33.4-13.5c0.9-0.1,1.5,0.3,1.9,1.1c2.3,5.3,5.6,11,11.8,12.1l0,0c0.4,0.3,0.8,0.8,1.4,0.7   c0.4,0.3,0.8,0.8,1.4,0.7C830.4,310.9,835,309.2,836.7,313z" />
	<path fill="#28251A" d="M350.8,389.5c-43.1,4.8-86.8,12.9-130,5.3c-24.9-4-48.3-14.3-73.3-17.9c-37.5-5.7-76.1-2.8-113.7,1   c-0.5-0.3-1-0.5-1.5-0.8c38.9-6.4,79.7-9,118.9-4c28.3,4.3,55,15.7,83.5,18.3c41.8,5.7,83.2-7.5,124.9-4.7c0,0.2,0,0.5,0.1,0.7   C356.8,388.2,353.8,388.8,350.8,389.5z" />
	<path fill="#C2F0FA" d="M198.4,247.5c2-1.6,5.2,0.4,6.9-1.3c3,2.3,6.1,5.5,7,7.3c-34.3-10-72.7,32.3-104.7,4.3   c-2.5-2.8-5.6-5.1-9.8-4.8c-0.2-0.7-0.4-1.4-0.7-2.2c-3.5-0.5-7.8,0.3-11-1.2c15.4,1.3,31.9-0.5,46.9,1.3   c-11.2,0.1-22.4-0.2-33.5,0.2c0,0.1,0,0.2,0,0.3c21.4,3.5,43.3,0,64.8-1.2c12.4-0.7,26.2,0.9,37.7-2.6   C200.4,247.6,199.4,247.5,198.4,247.5z" />
	<path fill="#C2F0FA" d="M300.3,229.4c2.7,1.8,6.5,2.3,9.8,2.3c5,2.1,14.8,3.9,19.8,2.8c4.5,1.4,9.4,1.3,14.2,2.2c0,0.1,0,0.2,0,0.3   c-13.2,1.3-25.9,9-38.9,7.9c-10.7-1-21,3.5-31.4,3.8c-2.6-4.1-6.1-7.5-9.7-10.8c0-0.2-0.1-0.4,0-0.6c1.9-0.7,3.5-1.5,5.3-2.6   c0-0.2,0.1-0.5,0.1-0.8c4.6,0.8,9.2,3.4,13.8,0.7c0.1,0.5,0,1.1,0.8,1.2c1.6-1.2,3.5-2.2,4.7-3.9   C292.8,232,296.7,231.5,300.3,229.4z" />
	<path fill="#8CA9AB" d="M150.1,264.8c21.3-1.8,40.3-19.5,62.2-11.3c-1.1-2.5-6.2-6.7-9.2-9.3c1.1,0.1,2.1-0.2,3-0.8   c25.6,19.6,45.6,50.2,79.9,53.9c0.8,1.5,2.8-0.2,3.5,1.3c-12.5,0.6-26.6-0.9-34.4-11.7c-32.2,6.2-65.9,4.2-98.7,4.8   c0.1-0.4,0.2-0.8,0.4-1.4c2.1,0,4.1,0,6.1,0c0-0.1,0-0.3,0-0.4c-0.7-0.2-1.3-0.4-2-0.6c0-0.1,0-0.3,0.1-0.4   c30.1,0.2,60.4-1.2,90.3-3.1c-7.1-3.4-13.5-7.8-19-13.4c-1.4-5.5-8.3-8-11.9-12.2c-3.9-4.4-8.7-6.2-14.4-6.5   c-20.3-2.9-38.2,13.3-57.8,14c0.1-0.6,0.1-1.3,0.1-1.6C149.1,265.5,149.6,265.1,150.1,264.8z" />
	<path fill="#8CA8AB" d="M825,307.6c-9.8-1.6-9.2-11.7-13.7-13.2l0,0c-33.5-9.2-70.7,8.3-103.8-4.7c-22.1,0.9-44.9-1.8-64.2-14   c-2.3,1.6-4.1,4.3-7.3,3.6c-1.2,1-2.2,1.9-3.2,2.8c-0.2-0.8-0.8-0.8-1.4-0.8c9.2-5.7,17.7-12.6,25.6-19.9c1.1,0,1.7-1.5,2.7-0.7   c-3.5,5-7.6,10.2-13.1,12.4c0,0,0,0,0,0c-0.2,0.2-0.5,0.4-0.7,0.7c0,0,0,0,0,0c-0.6,0.3-0.7,0.5,0,0.7c0.3,0.7,0.8,0.7,1.4,0.6   c1,0.8,2.2,0.8,3.4,0.8c1.1,0.6,2.3,1.2,3.4,1.8c-0.1,0.7-0.1,1.1-0.1,1.4c30.2,8.5,61.4,11.5,92.6,11.2c21.9,0,44-5.2,65.3,2.4   c1.1-2.6-3.7-2.8-5-5c3.4-0.8,7,1.2,7.7,4.6c0.3,1.1,0.4,2.3,1.6,2.9c1.2,4.9,5.7,7.1,9.7,9.5C825.5,305.6,825.2,306.6,825,307.6z" />
	<path fill="#C2F0FA" d="M835.4,286.1c20-1.2,38.7-14.6,58.9-11.4c-10.9,9.7-25.2,17.9-37,27.3c-3.4-3.3-5-7.6-10.2-8.4l0,0   c-0.4-0.3-0.8-0.8-1.4-0.7c-0.4-0.3-0.8-0.8-1.4-0.7c-0.4-0.3-0.8-0.8-1.3-0.7c-2.5-1.6-4.4-5-7.7-4.8l0,0   C835.4,286.6,835.4,286.4,835.4,286.1z" />
	<path fill="#93B1B5" d="M166.7,288.9c-1.9,0-3.9,0-5.8,0c0,0.1,0,0.3-0.1,0.4c0.7,0.2,1.3,0.4,2,0.6c0,0.1,0,0.3,0,0.4   c-2,0-4,0-6.1,0c-0.2,0.6-0.3,1-0.4,1.4c-7.6,1-15.2-0.2-22.8,0.7c-0.2,0.2-0.5,0.4-0.7,0.6c-14,0.4-28.3,5.4-42.3,3.7   c-10.3-2.3-20.6,0.4-30.8,0.1c-5.2,0.4-12.7,8.4-16.4,4.9c-0.6-0.6-1.2-0.9-2-1c-5.1-0.9-2.4-7.1,0.5-9.6c3.4,0.3,5.8-1.9,9.3-2.5   c5.3-16.5,17.9-9.5,27.8-16.3c3.4-8.1,8.1-20.2,18.9-19.2c7.6-0.7,10.3,7.6,16.6,9.7c11.5,6.4,23.5,4.5,35.7,2.1   c-0.5,0.3-1.1,0.7-1.9,1.2c0,0.3-0.1,1-0.1,1.6c-13,4.7-31.2,2.6-41.2-7.7c-5-7.6-15.3-4.4-19.7,2.4c-3.1,3.7-3.5,9.7-7.4,12.4   c-8.9,4.6-20.8,3.7-26.2,13.5c-1,0.5,0.1,0.8,0.7,0.7l0,0c0.3,0.4,0.7,0.8,1,1.2c-0.8,0.5-1.9-0.3-2.4,0.8   c-1.4,0.9-2.7,1.2-3.9-0.3c-4.3,0.2-4.3,5.4-3.2,8.8c1.5-0.9,3.4-0.4,4.4-2.2c15.2-4.8,31.9-2,47.6-2.3c11.3-2.1,22.6-2.8,34-2.6   c0-0.2,0-0.3,0-0.5c-1.1-0.1-2.2-0.3-3.7-0.5c9.5-2.7,19-1.1,28.5-2.1c-0.2-0.3-0.3-0.6-0.5-1C159.6,288.6,163.6,287.4,166.7,288.9   z M42.3,298.9c0.2-1.4,0.3-2,0.4-2.6c0.1-0.5,0.9-1,0-1.8c-0.5,1-1,1.9-1.5,2.8C41.5,297.8,41.7,298.2,42.3,298.9z" />
	<path fill="#2A261B" d="M172.2,393.1c59.8,11.8,122.7,21.8,182,4.1c0.4-0.1,0.8-0.1,1.3-0.2c0.5,0.2,1,0.5,1.5,0.7   c-0.7,0.3-1.6-0.3-2,0.6c-0.9,0.5-2.2-0.3-2.8,0.7c-84.2,30.3-170.1-12.1-255.7-10.2C121.8,386.9,147.1,389.8,172.2,393.1z" />
	<path fill="#2A261B" d="M736.1,392.3c-58.7,4.6-116.6,19.2-175.8,17.2l0,0c-19.8-2.2-39.7-5.6-59.3-9.7c0.5-0.2,1.1-0.4,1.6-0.7   c91.9,19.8,184.2-6.2,276.1-13.8c0.7,0.3,1.7-0.3,2.2,0.7C766,388.6,751,389.9,736.1,392.3z" />
	<path fill="#2A271C" d="M658.9,149c15.7-7.1,30.1,6.1,36.4,19.7c9.7,20.5,4.4,33.9-8.6,51.7c-1.7,0.3-3.5,0.6-5.4,1   c-0.6,0.6-0.3,1.9-1.6,2.3c-2.3,2-3.3,5.5-5,8c-0.6,0-1.1,0-1.3-0.6c0.5-3,5.8-7.3,3.3-9.8c-1.3,0.3-2.8,0.5-4.1,0.5   c-2.8-2.4-3.8-4.4-3.9-7.2c2.1,2.5,8.5,8.8,8.3,1.3c-1.9-2.4-2.9-5-6.1-5.5c-1,0.7-2,1.5-3,2.2c-0.7-0.6-0.7-1.3-0.6-2.2   c0.5-0.4,0.9-0.9,1.5-1.4c5.9-1,10.2,5.5,9.7,10.7c2.7-1,6.9,0.2,8.1-2.7c-1-2-2.3-3.8-4.6-4.7c-0.8,1.3,0.5,3.2-1.4,4.3   c-3.4-2.1-2.2-7.6-5.8-9.7c-1.7-1.2-15.8-10.5-15.8-7.3c-2.4-2.5-5.3-4.3-8.3-5.6c-0.8,0.8-1.5,1.5-2.2,2.2c-1-0.8-1.7-1.4-2.5-2.1   c0-0.8,0.1-1.5,0.1-2.3c-1.3-0.8-2.5-1.4-3.6-2.1c-0.2-0.8-0.9-0.8-1.5-0.7c-2-0.9-4.1-1.9-6.1-2.7c-0.9,0.6-0.2,1.1-0.2,1.7   c-1.2,2.3-3.7,4.6-5.6,1.6c-1,0.1-1.8,1.3-2.9,0.4c-0.1-2.6,3.4-2.3,4.7-4.5c-2.7,0.7-4.4,1.5-7,2c0.4-0.7,0.8-1.4,1.2-2.1l0.2,0.1   l-0.2-0.1c0.7,0.1,1.3,0.3,1.4-0.7c0,0-0.1,0-0.1,0c0.2-0.2,0.5-0.5,0.7-0.7c0,0-0.1,0.1-0.1,0.1c0.9-0.1,0.8-0.8,0.7-1.4l0,0   c0.9-0.1,0.8-0.7,0.8-1.3c0.7-0.5,1.4-0.9,2.1-1.4c0.4,1.8-2.3,2.1-1,4.2c6.4-0.3,12.3,4,18.2,6.1c0.9,1.4,1.8,0.3,2.7,0   c11.9,8.6,26.1,13.7,37.4,23.4c8.6-11.3,14.9-24.7,7.1-38.4c-6.8-16.3-15.1-30.7-35.4-25.6C659.4,149.5,659.2,149.2,658.9,149z" />
	<path fill="#8DA8AB" d="M835.4,286.1c0,0.2-0.1,0.5-0.1,0.7c-34.9-12.6-72.6-35.7-111.1-25.4c-16.5-4-30.9-14.3-48.2-16.9   c-2.3-2.5-4.9-5.3-7.5-8c0.7-0.2,1.4-0.4,2.1-0.7c2.4,3,6.7,4.4,8.3,8c13.8,3.4,27.7,7.9,40.7,13.5c7.6,3.7,15.7-3.1,23.6-2.2   c20.3,0.5,39.4,9.7,59,14.3C812.2,277.8,826.2,277.4,835.4,286.1z" />
	<path fill="#2A271C" d="M651.4,372.9c64.8,9.9,128.1-15.8,192.9-8.8c-64.9-1.8-130,22.2-195,9.5   C649.8,372.7,650.8,373.2,651.4,372.9z" />
	<path fill="#2B271C" d="M625,185.3c-0.4,0.7-0.8,1.4-1.2,2.1c-5.5,1.9-11.1,2.7-16.7,4.4c0.4,2.7,2.7,5.2,0.7,7.6   c-7.6-16.6-25.7-33.2-45.3-27.4c-8.1,1.6-15.2-5.7-23.2-6.2c-21.1-2.3-42.5-0.2-63.7-1.4c-3.4,3.7-7.3,6.8-9.4,11.4   c-0.5,0-1,0-1.5,0c0.7-1.1,1.3-2.4,2.1-3.4l0,0c1.1-0.8,0.5-1.9,0.5-2.8c0.1-0.2,0.2-0.4,0.1-0.6c1.5-2.9,4.3-4.6,6.5-7   c5.2,0.7,10.4,1.4,15.6,2c7.3-3.7,15.4-0.7,23.1-0.6c15.6-1.2,31.2-0.6,45,6.7c18.4-6.5,38.5,3.2,48.2,19.5   C612,187.5,619.3,188.5,625,185.3z" />
	<path fill="#29261B" d="M464.5,175.9c0.5,0,1,0,1.5,0c-4.6,12.2-11.2,23.6-14.2,36.5c-1.1,2.2-7.5,24.1-9.4,19.3   c0.9-4.6,3.5-8.9,4.5-13.4c-27.5-6.8-55.4-7.1-75.5,15.4c-0.5,0-0.8,0.5-1.2,0.8c-0.4-0.2-0.9-0.4-1.3-0.7   c17.6-24.7,52.1-26.9,79.1-17.8C452.9,202.5,454,186.9,464.5,175.9z" />
	<path fill="#8AA5A7" d="M843,291.6c0.6-0.1,0.9,0.4,1.3,0.7c0.6-0.1,1,0.4,1.4,0.7c0.6-0.1,1,0.3,1.4,0.7l0,0   c0.2,0.8,0.8,0.7,1.4,0.7c4.8,0.1,5.5,5.3,8.8,7.7c3.3,11.3,7.4,22,5.3,34.1c0.3,0.6,0.7,1.1,1.1,1.9c-1,1.3-1.9,1.1-3.3,0.6   c-0.1,1-0.3,1.9-0.4,2.9c-0.5,0.3-1,0.6-1.5,0.8c-2.6-0.7-3.8-3.3-6-4.4c-0.1-1.5,0.3-2.9-0.3-4.1c-0.1,0.2-0.2,0.3-0.3,0.5   c-0.6,0.2-1.3,0.5-1.8,0.7c-3.4-1-2.8-4.6-2.7-7.3c1.9-2.6,0.9-5.4,1-8.4c-1-0.1-1.9-0.2-3-0.3c-2.6-2.3-6.3-3.2-8.7-6   c-1.6-3.1-5.1-3.6-8.2-3.6c-0.2-0.2-0.5-0.4-0.7-0.6c-0.6,0.1-1-0.4-1.4-0.7c-0.6,0.1-1-0.3-1.4-0.7l0,0c0.3-1,0.5-1.9,0.8-2.9   c0.2,0,0.5,0.1,0.7,0.1c0.2,0.7,0.8,0.6,1.4,0.7c0.3,0.2,0.5,0.4,0.8,0.6c0.6-0.1,0.9,0.4,1.3,0.7l0,0c0.2,0.2,0.5,0.5,0.7,0.7l0,0   c0.2,0.2,0.5,0.5,0.7,0.7l0,0c2.5,1.5,6.2,1,8.6,3.4c5.7,6.7,12.3,6.2,7-3.1c-3.7-1.1-6.7-3-10.4-4.2c-0.3-1.5-0.9-2.7-1.9-3.6   c-0.3-0.3-0.6-0.7-0.1-1.3c2.4,2.5,6.1,2,8.8,3.7c0.4-0.4,0.6-0.6,0.9-0.8c0.2,1.6,1.2,2.9,2.5,3.5c4.2,3.3,5.4,9.3,9,13.4   c3.1,4.2,1.2,9.8,2.8,14.5c0.5,0.3,1.2,0.8,2,1.3c2.2-12.6-2.1-32.5-13.4-39.9c-0.2,0-0.4,0-0.6-0.1c-0.2-0.7-0.8-0.7-1.4-0.7   c-0.3-0.2-0.5-0.4-0.8-0.6c-0.6,0.1-0.9-0.4-1.3-0.7l0,0c-0.3-0.2-0.5-0.4-0.8-0.7c-0.6,0.1-0.9-0.4-1.3-0.7   c0.2-0.7,0.8-0.7,1.4-0.7C842.5,291.2,842.8,291.4,843,291.6z M852.5,332.7c0.5-5.6,1.1-10.5-1.9-15.6c0.5-1.6,0.5-1.6-0.7-2.1   c-0.5,4.5,1.6,8.9-0.4,13.1c-0.5,1.6-0.6,3.6,0.8,4.6c0.4-0.2,0.8-0.5,1.1-0.7C851.8,332.2,852.1,332.4,852.5,332.7z M856,333.9   c1.5-2.2-0.2-4.3,0-6.7c-0.3-1.6,0.7-4-1.3-4.7c1,4.9-3.1,15.7,3.8,16.7c0.1-0.8,0.2-1.4,0.3-2.1C858,336.1,857.1,335.2,856,333.9z   " />
	<path fill="#2C281D" d="M819.5,229.7c-23.4,2.3-47,1.2-70.3-1.5c0-0.2,0-0.4,0-0.7c47.7,3.2,95-1.6,141.3-12.7   C867.8,222.6,843.4,226.5,819.5,229.7z" />
	<path fill="#8BA6A8" d="M299.8,325.4c-18.9-9.6-35.4-20.5-57.9-17.9c21.7-4.3,37.1,4.8,55.6,14.3c27.4,5.7,55.8,3,83.6,5.1   C354.6,328.3,326.3,330,299.8,325.4z" />
	<path fill="#2B271C" d="M264,237.2c0,0.2,0,0.4,0,0.6c-1,0-2,0-2.9,0.1c-10.6-10.5-24.5-15.9-39.2-18.2   c-14-4.5-27.1-12.2-38.7-21.1c0.3-0.3,0.7-0.6,1-0.9c12.7,6.4,24.7,14.7,38.3,19C237.6,220.8,253,225.4,264,237.2z" />
	<path fill="#2C281D" d="M194.2,237.3c-23.4-21.6-55.4-30.1-83.5-42.7c-3-0.7-7,0.1-8.9-2.7c0-0.3,0.1-0.5,0.1-0.8   c11.5,0.8,20.7,6.5,31.1,10.6c22.4,9.8,46.2,17.1,64.2,34.8C196.3,237.1,195.3,237.3,194.2,237.3z" />
	<path fill="#2B281D" d="M108.8,180.8c8.7-3.6,18.4-1,27.2-4.2c10.3-1.8,19.8-16.3,31.3-9.8c6.2,7.6,2.6,19.7,11,26.5   c-0.2,0.4-0.3,0.8-0.5,1.2c-10-6.5-6-19.5-13.7-27.1c-10.6-0.3-17.1,8.9-26.9,11.1c-9.6,3.9-19.9,2.7-29.8,4.9c0-0.5,0-1.1-0.7-1.3   l0,0c0.1-0.3,0.1-0.6,0.2-1.1C107.6,181.1,108.3,181.8,108.8,180.8z" />
	<path fill="#98B4B7" d="M100.5,251c32.1,1.6,65.1-4.3,96.5-2.1c-32,0.8-64.5,6.1-96.5,2.8C100.5,251.4,100.5,251.2,100.5,251z" />
	<path fill="#312C22" d="M283.2,234.5c-4.3,2.2-8.9,0.9-13.1-0.8c3.6-2.2,8.7,1.2,12.2-1.6c0.7-1.9-1.5-2.7-1.7-4.5   c2.9-1.5,6.1,1.4,9.2,1.6c4.2,0.7,10.6-0.3,10.4-5.6c6.3,7.2-10.6,10-15.5,6.9C284.7,232.1,284.5,233.5,283.2,234.5z" />
	<path fill="#687573" d="M368.7,233.8c0.4,0.2,0.9,0.4,1.3,0.7c0,1.1,0,2.3,0,3.4c-0.5,0.2-1,0.5-1.4,0.7c0,0,0,0,0,0   c-8.8-2.3-20.6,2-29.5-0.6c1.7-0.3,3.3-0.7,5-1c0-0.1,0-0.2,0-0.3c-3.3-0.7-6.9-0.3-10-1.5C343.8,232.2,363.5,240.7,368.7,233.8z" />
	<path fill="#2F2B20" d="M737.5,220c-0.7,3.7-5.6,5.3-9,4.9c0.4-2.5,6.4-3.7,5.6-7.8c1.1-3.5-4.2-10-0.5-11.7c3,2.4,8.3,6.8,8,10.5   c-2.7-1.7-2.9-4.4-5.5-5.1C737.1,213.8,736.1,217.1,737.5,220z" />
	<path fill="#2F2A20" d="M70.9,246.9c-3.7-1.3-6.5-3.6-9.4-6.5c-2,4.1-11,9-14.7,7.1c3.5-2.4,13-4.8,12.1-10.2   c-0.4-1.1-0.8-2.2-0.1-3.5c0.7,0.2,1.6,0.1,1.9,0.9c2.7,4.9,6.8,8.3,11.7,10.8C71.8,246,71.3,246.4,70.9,246.9z" />
	<path fill="#96B3B6" d="M75.9,309.1c-13.9,3.9,10.3,12.3,5.1,1.6c-0.5,0-0.9,0.1-1.4,0.1c-0.6-1.1-0.4-1.9,0.6-2.6   c8.8,5.6-1.3,14.3-9,8.7C65.9,313.3,69.9,305.4,75.9,309.1z" />
	<path fill="#3A352B" d="M46.8,247.6c0.3,0.7,0.9,0.6,1.4,0.7c-8.8,2.7-18.8-0.5-27.8,2.2c-1.8-1.2-4.2-0.5-4.5-3.3   c5-0.4,10.4,1.8,15.5-0.1c4.8,1.6,9.9,0.8,14.8,0.3C46.3,247.5,46.5,247.5,46.8,247.6z" />
	<path fill="#3C362C" d="M294.8,204.3c-1.4,5.5,3.2,9.6,8.4,8.7c-5,6.4-15.7-8.1-7.7-10.3c7.7-2.4,11.1,11.6,2.1,7.4   c0-1.4,1.7-1.1,2.5-1.8C301.7,204.6,297.7,203.7,294.8,204.3z" />
	<path fill="#8EA8A9" d="M6.1,273.6c9.8,5.4,2.6,12.8-6.1,11.8c0-1.1,0-2,0-3.1c2.8-0.3,5.6-0.2,8-2c0.5-3.3-3.2-4.3-5.4-5.7   c0.7-0.2,1.7,0.3,2.2-0.8C5.2,273.6,5.6,273.7,6.1,273.6z" />
	<path fill="#333025" d="M444.5,395.7c-2.8,0-6.2,1-8.2-1.6c-0.2-2.1-0.5-4.6,1.4-6.1c1.1,1.5,0.7,3.3,1.6,4.8   c3.2,0.6,8.6,0.4,8.3-4.4c-1-1.4-2.5-0.3-3.8-0.7c1.1-1.3,1.2-1.3,4.6-0.8C451.5,390.6,447.6,394.1,444.5,395.7z" />
	<path fill="#353026" d="M97.1,360.5c-6.3,3.5-14.2-6.5-6.6-9.5c2.7-0.1,8.8,0,7.6,4.1c-2.3-1.4-4.7-2.5-7.4-1.9   c-0.7,2-0.7,2-0.3,4.1c2.9,1.8,3.5,2,8.3,1.3C98.1,359.4,97.6,359.9,97.1,360.5z" />
	<path fill="#90ABAD" d="M823.5,268.9c-1.2-9.1,10.6-10.8,12.4-2.2c-2.3,2.5-4.2,4.7-8.2,3.9c2-1.8,5.1-2.4,5.5-5.2   c-4.5-6.7-9.6,0.2-7.5,5.5c-0.2,0.3-0.5,0.5-0.7,0.8C823.8,271.2,823.6,270.1,823.5,268.9z" />
	<path fill="#96B2B5" d="M37.8,315.1c2.6,2.3,2.8,2.6,2.6,5.7C32.8,326.4,25.6,313.4,37.8,315.1z M37.7,319.1   c0.2-2.2-1.4-3.3-3.3-2.2C34.6,318.9,36.4,318.4,37.7,319.1z" />
	<path fill="#36342A" d="M425,380c0,0.6,0.1,1.3,0.1,1.9c-0.6,0.3-0.7,0.8-0.6,1.4c-4.6,10.2-15.3,3.7-4.9-2.2   c0.8,0.1,1.7-0.3,2.4,0.4c-1,1.3-3,1.1-3.4,3.1c2.5,0.5,4.9-1.6,5.1-4.1c0,0,0.2,0.1,0.2,0.1c0.2-0.2,0.4-0.5,0.6-0.7l0.2,0.1   L425,380z" />
	<path fill="#363225" d="M658.9,149c0.3,0.3,0.5,0.5,0.8,0.8c-7.2,4-15.6,7.5-19,15.7c-0.7,0-1.2,0-1.8,0c-0.2-0.2-0.5-0.4-0.7-0.6   C643.2,157.5,650.2,151.6,658.9,149z" />
	<path fill="#3F382E" d="M753.6,206.6c-1.3-1.5-3.6-0.4-5-2.2c1-0.1,1.7-0.2,2.7-0.3C751.5,187.4,770.4,199.5,753.6,206.6z    M754.7,197.8c-1.6,1.8-2.4,3.7-1.4,6.1c2.3-0.2,3.4-1.6,4.7-3.1C760.6,198,757.3,194.9,754.7,197.8z" />
	<path fill="#3E382E" d="M83.3,179.3c1.7-1.2,4.1-0.5,6-0.7c0.3-0.5,0.6-1,0.8-1.4c0.1,0.8-0.1,1.6,0.4,2.8c0.2-0.8,0.3-1.1,0.3-1.4   c0.2,0,0.4,0,0.6,0c0.9,3.8,5.1,5.1,8.4,6.5c-1.4,1.4-2.7,1.2-3.9,0.4c-2.1-1.5-4.6-1.3-7.4-2.1c0.8,1,1.2,1.5,1.7,2   c-0.4,1.3,0.6,2,1.3,2.8c-0.8,0-1.5,0.1-2.1-0.5c0.6-2.4-2.1-3.2-2.1-5.5c0.6-0.9,1.2-1.8,1.9-2.9   C87.1,179.3,85.2,179.3,83.3,179.3z M90.9,182c-0.1,0.2,0,0.4,0.2,0.4C91,182.3,91,182.2,90.9,182c0.2-1.3-2.3-2.1-1.8-0.2   C89.7,181.9,90.3,181.9,90.9,182z" />
	<path fill="#657370" d="M20.4,250.4c0.8-0.2,1.6-0.4,2.5-0.7c0.8,1.6,0.6,3.2,0.4,5c-4.4,4.1-11,2-16.5,2.5   c1.3-1.8,4.3,0.4,5.2-1.8c-0.1-0.3-0.3-0.6-0.4-0.9C14.6,254.1,23.7,255.7,20.4,250.4z" />
	<path fill="#6E7B79" d="M722.4,231.1c-6,3.5-16.3,5.6-21.4-0.1c0.6,0,1.3-0.1,1.5-0.8c5.9,3.6,12.4,2.1,18.5,0.2   C721.2,231.1,721.9,230.9,722.4,231.1z" />
	<path fill="#9FBFC3" d="M97.8,253c-1,0-1.9,0-2.9,0c-6.1-1.3-13.4-0.8-19.3-4.1c1.4-0.1,3,0.3,4.1-0.7c5.7,1.7,11.4,2.5,17.3,2.5   C97.3,251.7,97.6,252.4,97.8,253z" />
	<path fill="#3B352B" d="M90.9,178.6c-0.1,0.3-0.1,0.6-0.3,1.4c-0.5-1.2-0.3-2-0.4-2.8l0,0c2.5-1.3,5.6-0.3,8.2-0.9   c4.1,2.8-2.9,2.4,5.3,7.1c-0.3,1.6,0.8,2,0.7,3.6c-3.2-2.4-6.5-4.4-7.2-8.4C96.2,177.8,91.7,177.7,90.9,178.6z" />
	<path fill="#93AEB1" d="M776.9,306.1c-0.1,0.9-0.3,1.7-0.4,2.4c-1,0.4-1-0.5-1.6-0.6c-1.2,2.3,2.3,2.6,3.8,3.6   c-2.1,2.2-5.2-0.2-6.9-1.9C769.8,305.4,773.9,301.9,776.9,306.1z" />
	<path fill="#2B271C" d="M638.1,164.8c0.2,0.2,0.5,0.4,0.7,0.6c-1.4,3.4-5.3,3.6-2.7,8.3c-0.2,0.3-0.5,0.5-0.7,0.8   c-1.2-2-4.9,4.1-4.8,5.5c-0.7,0.5-1.4,0.9-2.1,1.4c-0.7-6.3,7.1-7.9,6.3-14.4C635.9,166.3,637,165.6,638.1,164.8z" />
	<path fill="#697A77" d="M194.2,237.3c1.1,0.1,2.1-0.1,3-0.8c3,2.2,5.8,4.7,8.9,6.9C201.7,246,197.2,240,194.2,237.3z" />
	<path fill="#6B7875" d="M695.4,233.8c-1.4,0-2.9,0-4.5,0c-0.2,1-0.3,1.9-0.4,2.7c-0.7-0.2-1.3-0.4-2-0.7c0.2-1.7-0.7-3.6,0.8-5.3   c2.4,1,4.9,2.1,7.1-0.2c0.3-1.2,0.6-2.4,0.8-3.6c0.1,1.3-0.2,2.7,0.9,3.6C698.2,232.2,696.6,232.9,695.4,233.8z" />
	<path fill="#93AAAD" d="M5.6,273.6c-0.3,0-0.6,0.1-0.8,0.1c-0.4-1.8,2.3-1,2-2.7c6.6,0.8,14.5-1.9,20.4,1.6c-7-0.4-14.4-0.8-21,0.5   C5.9,273.3,5.7,273.5,5.6,273.6z" />
	<path fill="#5E635E" d="M11.6,254.5c0.1,0.3,0.3,0.6,0.4,0.9c-0.6,1.7-2.8,0.8-4.2,1.1c-1.9,1.8-4.5,1.1-6.9,2.2   c-0.1-0.9-0.2-1.3-0.2-1.9c1-0.2,1.8-0.4,2.7-0.5C4.3,251.9,8.6,254.4,11.6,254.5z" />
	<path fill="#66736E" d="M833.9,364.8c9.7,0,19-1.7,28.5,0.5C853.1,366.1,843.3,365.7,833.9,364.8z" />
	<path fill="#615047" d="M96.4,388.9c2.5,1.2,5.6,0.4,8.3,0.7c-8.5,0.1-17.6,2.6-25.8,1.2C84.5,389.6,90.7,389.2,96.4,388.9z" />
	<path fill="#93ACAE" d="M688.6,235.8c0.7,0.2,1.3,0.4,2,0.7c0.1,4.9-7.7,7.5-11.4,5.8c0.2-0.3,0.3-0.6,0.5-0.9   C683,241.1,687.8,239.4,688.6,235.8z" />
	<path fill="#3A342A" d="M109.4,354.7c1.7-0.4,3.1-0.7,4.5-1c0.2-0.6,0.5-1.2,0.8-1.8C121.8,354.4,110.7,361.5,109.4,354.7z" />
	<path fill="#90A9AB" d="M853.6,273.6c-2.6,0.6-6.9-0.5-6.3-3.8c1.5,0.1,2.9,0,4.5-1.1C853.2,269.9,854.8,271.5,853.6,273.6z" />
	<path fill="#6E7A77" d="M670.6,235.8c-0.7,0.2-1.4,0.4-2.1,0.7c-0.1-0.8-0.2-1.6-1.2-1.7c-1,0.6-1.9,1.2-2.9,1.8   c-0.5-0.1-1.2,0-1.4-0.7c2.3-3,3.4-4.9,6.9-2.1c0.5,0.6,0.9,0.8,1.4,0l0,0c0.2-0.2,0.5-0.5,0.7-0.7l0,0c0.6-0.3,0.7-0.8,0.6-1.4   c0.2-0.2,0.4-0.5,0.7-0.7c0.2,0.6,0.8,0.7,1.3,0.6C673.3,233,672.7,235.5,670.6,235.8z" />
	<path fill="#3B362C" d="M738,195.3c-2.5-0.5-4-2.9-2.4-5.1C738.7,188.1,742.6,192.7,738,195.3z" />
	<path fill="#514C44" d="M736,222.8c0.3-0.3,0.6-0.6,0.9-0.9c3,3.7,7.7,5.1,12.3,5.6c0.1,0.7-0.2,1.4-0.3,2.1   C744.1,228.8,738.8,226.8,736,222.8z" />
	<path fill="#52433A" d="M869.1,366.2c5.8,1.1,11.8,1.5,17.3,3.3c-0.5,0.2-1,0.4-1.4,0.7c-5.8-1.1-11.7-1.7-17.4-3.3   C868.1,366.6,868.6,366.4,869.1,366.2z" />
	<path fill="#56483F" d="M311.4,231c-2.3-1.2-4.9-1.7-6.9-3.4c0.2-0.2,0.5-0.5,0.7-0.7c5.6,3.2,12.1,3.7,18.2,5.4   c-0.7,0.3-1.7-0.2-2.3,0.7C317.9,232.6,314.7,231.6,311.4,231z" />
	<path fill="#E1F3F5" d="M311.4,231c5.5,1.3,11.1,1.9,16.5,3.5c-3.7,1.5-14-1.5-17.9-2.8C310.6,231.7,311.2,231.7,311.4,231z" />
	<path fill="#433D33" d="M274.7,217.4c-0.8,0.5-1.2,0.8-1.9,1.2c0.2,0.8,0.3,1.7,0.5,2.3c1.8,1,3.3,0.3,4.8-0.2   c0.9,1.6-1.7,2.2-2.7,2.6C270.1,225.2,268.7,215.2,274.7,217.4z" />
	<path fill="#3E3B31" d="M861.4,252.4c-0.8-3.6,1.4-4.8,4.7-4.2c0.6,0.5,1.1,1,1.6,1.5c0.3,1.4,0.3,2.8-1.6,3.6   C864.8,252.5,862.9,253.6,861.4,252.4z M862.8,250.3c1.1,0.8,1.8,1.2,3.1,1.2c-0.1-0.8-0.1-1.2-0.2-1.6   C864.7,249.4,863.9,249.4,862.8,250.3z" />
	<path fill="#4A3F35" d="M99.3,177.2c-0.3-0.3-0.6-0.6-0.9-0.9c2.9-2,9.6-1.5,9.2,3.1c-0.1,0.8,0.6,1.1,1.3,1.4   c-0.4,1-1.2,0.3-1.9,0.1c-0.1,0.5-0.1,0.8-0.2,1.1c-1.2-1.8-1.7-4-3.7-5.3C101.8,176.9,100.2,176.1,99.3,177.2z" />
	<path fill="#61534A" d="M32.3,377.2c0.5,0.3,1,0.5,1.5,0.8c-4.8,1.7-10.2,2.2-15.2,3.4c-0.2-0.2-0.5-0.4-0.7-0.6   C22.7,379.7,27.4,377.5,32.3,377.2z" />
	<path fill="#758583" d="M6.7,271c0,0.7-0.2,1.2-1.1,1.3c-1.9,0.5,0.2,2.4-3.1,2.1c-0.6-0.2-1.2-0.5-1.9-0.7c0-1,0-2,0-3   c0.9-0.5,1.7-0.4,2.7-0.4C4.3,271.3,5.6,270.7,6.7,271z" />
	<path fill="#C1EEF7" d="M825.8,266.2c0-4.6,5.9-4.1,7.5-0.7C830.7,265.1,828.4,266.4,825.8,266.2z" />
	<path fill="#99A5A5" d="M712,331.5c1.5,0.5,2.2,2.2,3.9,1.1c0-0.5,0-1,0-1.5c-0.6,0-1.1,0.1-1.7,0.1c0-0.5,0-0.9,0-1.5   c0.7-0.1,1.3-0.2,2-0.4c2.3,2.1,2.7,4.1,0.6,5.6c-0.1-0.4-0.2-0.8-0.2-1.3c-1.7,0.1-3.3-0.5-4.6,0.7C711,333.3,711,332.8,712,331.5   z" />
	<path fill="#91AEB0" d="M805.7,268.2c0-0.9,0.1-1.7,0.2-2.8c2.6,0.7,3.9,0.8,6.6,0.4c-0.3,0.8-0.4,1.3-0.6,1.7   C810.1,268.6,807.5,269.8,805.7,268.2C805.7,268.2,805.7,268.2,805.7,268.2z" />
	<path fill="#5C8785" d="M879.4,234.3c4.8-1.1,10.5-0.6,15.1,0.7C889.6,234.8,884,236.1,879.4,234.3z" />
	<path fill="#778887" d="M79.8,248.3c-2.7,1.5-6.7,0.7-8.9-1.4c0.5-0.5,0.9-0.9,1.4-1.4C74.8,246.4,77.3,247.4,79.8,248.3z" />
	<path fill="#3D372D" d="M91.5,188.2c-0.8-0.8-1.7-1.5-1.3-2.8c2.9,0.1,5,1.6,6.8,3.6c-0.2,0.3-0.5,0.5-0.7,0.8   C94.6,189.7,93,189.1,91.5,188.2z" />
	<path fill="#4D473E" d="M702.5,230.2c-0.2,0.7-0.9,0.8-1.5,0.8c-0.7-0.5-1.3-1.1-1.9-1.8c-0.3,0.2-0.5,0.5-0.7,0.7   c-0.1-1.6-0.1-3.3-0.2-4.9c0.6-0.4,1.3-0.7,2.2-1.2C699.9,226.4,700.5,228.5,702.5,230.2z" />
	<path fill="#5C554D" d="M780.9,386c-0.5-1-1.5-0.4-2.2-0.7c4-0.9,9.1-2.2,13.2-0.7C788.2,385,784.6,386,780.9,386z" />
	<path fill="#2B1A1A" d="M83.3,179.3c1.9,0,3.9,0,5.9,0c-0.7,1.1-1.3,2-1.9,2.9l0,0c0-0.5,0-1.1,0.1-1.6c-0.4,0.1-0.8,0.1-1.2,0.2   c-0.6,0.4-1,0.9-1.4,1.5c0,0.2,0,0.4-0.1,0.5c-0.6-0.1-1.5,0.4-2-0.1c0-0.9,0-1.8,0-2.6C82.8,179.8,83.1,179.5,83.3,179.3z" />
	<path fill="#AD837E" d="M799.4,383.2c6.2-1,13.3-1,19.6,0C812.5,383.5,805.8,383.5,799.4,383.2z" />
	<path fill="#4E4238" d="M328,234.5c-1.2-0.3-2.3-0.6-3.5-0.9c-0.8-1-2.3-0.2-3.4-0.7c1.1-1.1,2.8-0.5,4.1-0.4   c2.5,1.3,6,0.6,8.9,1.4C332.3,234.9,330.1,234.4,328,234.5z" />
	<path fill="#55524A" d="M740.4,215.1c0.4,0.2,0.8,0.5,1.3,0.7c-0.2,0.8,0.5,1.4,0.7,2.4c-1.3,1.4-3,1.6-4.8,1.8   c-0.9-1.3-0.9-2.8-0.6-4.3c0.3,0.9,0.2,2,0.9,2.8c0.8,0,1.7,0.3,2.3-0.7c-0.4-0.3-0.7-0.6-1.3-1.1   C740,216.7,740.2,215.9,740.4,215.1z" />
	<path fill="#DCE7E7" d="M423.8,380.5c-0.2,2.6-2.6,4.6-5.1,4.1c0.4-2,2.4-1.8,3.4-3.1c-0.7-0.7-1.6-0.3-2.4-0.4   C420.9,380.3,422.4,380.5,423.8,380.5z" />
	<path fill="#3F3C33" d="M718.6,208.8c0.5,0.7,0.9,1.2,1.2,1.7c-2.3,2.4-3.1,2.4-4.5,0.2C715.8,209.4,717,209,718.6,208.8z" />
	<path fill="#F3FAFB" d="M679.7,241.4c-0.2,0.3-0.3,0.6-0.5,0.9c1.2,1,3.5,0.1,5.1,0.4c0.9,0.8-0.1,1.4-0.6,2.1   c-1.5-0.3-3.1-0.6-4.8-0.9c-0.5-0.7-1-1.6-1.5-2.5C678.2,241.4,678.9,241.4,679.7,241.4z" />
	<path fill="#554B41" d="M177.8,194.4c0.2-0.4,0.3-0.8,0.5-1.2c1.9,1.5,3.9,3,5.8,4.5c-0.3,0.3-0.7,0.6-1,0.9   C181.2,197.6,179.2,196.4,177.8,194.4z" />
	<path fill="#718C88" d="M800.1,383.4c5.3,0,10.6,0,15.9-0.1c0,0.2,0,0.4,0,0.6c-5.3,0-10.6,0-15.9,0   C800.2,383.7,800.2,383.6,800.1,383.4z" />
	<path fill="#3A352B" d="M318.7,209.7c1.1,0.3,2,0.5,2.7,0.7c0.7,0.8,0.7,0.9-0.2,2.3c-1.4-0.1-2.8-0.1-4.3-1.1   C317.4,210.9,318,210.4,318.7,209.7z" />
	<path fill="#60605A" d="M490.9,397c2.8,0.1,5.5,0.5,8.2,1.4c-0.5,0.2-1,0.5-1.4,0.7c-2.5-0.5-5.1-0.9-7.6-1.4   C490.3,397.5,490.6,397.2,490.9,397z" />
	<path fill="#D2F3FB" d="M684.7,356.9c2.9-1.8,5.9-1,8.9-0.9C690.7,356.8,687.8,357.6,684.7,356.9z" />
	<path fill="#7F5850" d="M818.2,383.4c2.9,0.1,7.1-1.1,9.3,1.1c-3.2,0.4-6.2-0.5-9.3-0.6C818.1,383.7,818.1,383.6,818.2,383.4z" />
	<path fill="#3D372D" d="M83.2,182.8c0.5,0,1-0.1,1.5-0.1c0.4,2.4,2.8,3.2,4.8,4c0,0.3,0,0.7,0,1C86,188,84.4,185.6,83.2,182.8z" />
	<path fill="#4B453C" d="M722.4,231.1c-0.5-0.1-1.2,0-1.5-0.7c2-1,4-1.9,6-2.9c0.3,0.2,0.6,0.5,0.8,0.7   C726,229.1,724.2,230.1,722.4,231.1z" />
	<path fill="#644E45" d="M63.3,393.1c2.8-0.4,5.5-0.9,8.3-1.3c0.3,0.2,0.5,0.4,0.8,0.7C69.5,393,66.1,394.5,63.3,393.1z" />
	<path fill="#7E6761" d="M800.1,383.4c0.1,0.2,0.1,0.3,0,0.5c-3.2-0.1-6.7,1.4-9.7,0c0.1-0.1,0.2-0.3,0.3-0.5   C793.8,383.5,797,383,800.1,383.4z" />
	<path fill="#64564E" d="M858.2,366c2.9-1.2,6.7-1,9.7,0c-1,0-2,0.1-2.8,0.7C862.7,366.5,860.5,366.2,858.2,366z" />
	<path fill="#2E291E" d="M711.9,334.4c1.3-1.2,2.8-0.5,4.6-0.7c0.1,0.5,0.2,0.9,0.2,1.3C715.2,335.9,713.1,336,711.9,334.4z" />
	<path fill="#616561" d="M364.4,394.9c2.6-0.5,5.1-1.7,7.7-1.8c-0.5,2.2-4.5,1.5-6.3,2.5C365.4,395.4,364.9,395.2,364.4,394.9z" />
	<path fill="#52514A" d="M329.9,234.5c1.5-0.1,3,0.2,4.3-0.7c1.6,0.2,3.2,0.4,4.8,0.6C336.3,235.6,332.6,235.6,329.9,234.5z" />
	<path fill="#B2D3D9" d="M197,248.9c-0.2-0.7-0.8-0.6-1.4-0.7c0-0.2,0-0.4,0-0.6c2.3-0.1,3.7,0,6.3,0.1   C200.4,249.5,199,248.8,197,248.9z" />
	<path fill="#7F736E" d="M490.9,397c-0.3,0.2-0.6,0.5-0.9,0.7c-2.3-0.5-4.6-0.9-6.9-1.4c0-0.2,0-0.5,0-0.7   C485.8,395.6,488.4,396.2,490.9,397z" />
	<path fill="#5E5D54" d="M766.9,172c1.1,1.2,0.6,2.1-0.1,3C764.3,175.3,764.6,172,766.9,172z" />
	<path fill="#92837D" d="M17.9,380.7c0.2,0.2,0.5,0.4,0.7,0.6c-2,1.3-4.3,1.4-6.6,1.9C13.7,381.6,15.8,381.3,17.9,380.7z" />
	<path fill="#82756D" d="M96.3,189.7c0.2-0.3,0.5-0.5,0.7-0.8c1.6,0.7,3.2,1.4,4.8,2.1c0,0.3-0.1,0.5-0.1,0.8   C99.9,191.1,98.1,190.4,96.3,189.7z" />
	<path fill="#867871" d="M63.3,393.1c0.5,0.2,1,0.5,1.5,0.7c-1.9,0.9-3.9,0.5-5.9,0.5C60.2,393.4,61.7,392.8,63.3,393.1z" />
	<path fill="#899393" d="M379.6,392.2c-2.1,0.3-4.1,0.8-6.1,1.4c0-0.2,0-0.5,0-0.7c1.5-0.9,3.1-1.1,4.8-1.4   C378.7,391.8,379.2,392,379.6,392.2z" />
	<path fill="#5C554D" d="M273.6,233c-1.6-0.2-2.8,0.3-4.2,0.8c-0.4-0.4-1.1-0.7-1.5-1.7C270.1,232.4,271.8,232.1,273.6,233z" />
	<path fill="#3A2D22" d="M890.1,370.1c0.8,0,1.6,0,1.6,1.4c-1.9-0.5-3.8-0.3-5.5-1.2C887.5,370.3,888.8,370.2,890.1,370.1z" />
	<path fill="#C9D0D2" d="M379.6,392.2c-0.4-0.2-0.9-0.5-1.3-0.7c1.5-1.1,3.4-0.6,5.2-0.2C382.2,391.5,380.9,391.9,379.6,392.2z" />
	<path fill="#483127" d="M497.6,399.1c0.5-0.2,1-0.5,1.4-0.7c1.2,0.2,2.4,0.4,3.6,0.7c-0.5,0.2-1.1,0.4-1.6,0.7   C499.9,399.5,498.8,399.3,497.6,399.1z" />
	<path fill="#3D352B" d="M698.2,224.9c0,1.8,0.3,3.7,0.1,5.4c-1.4-1.4-0.8-3.7-0.8-5.5C697.7,224.9,697.9,224.9,698.2,224.9z" />
	<path fill="#73665F" d="M727.8,228.2c-0.3-0.2-0.6-0.5-0.8-0.7c0.7-0.5,1.4-0.9,2.2-1.4c-0.3-0.5-0.5-0.8-0.7-1.2   c0.5,0,1,0.1,1.5,0.1C730.2,226.5,729.3,227.8,727.8,228.2z" />
	<path fill="#C2F0FA" d="M554.1,408.9c2.1,0.1,4.3-0.3,6.3,0.6C558.3,409.3,555.8,410.1,554.1,408.9z" />
	<path fill="#51392F" d="M79,390.8c0.5,0.2,1,0.5,1.5,0.7c-2.1,0.2-4.2,0.2-6.4,0C75.6,390.6,77.3,390.9,79,390.8z" />
	<path fill="#4D3B31" d="M74.1,391.5c1.1,0.1,2.2,0.1,3.2,0.2c-1.6,0.9-3.3,0.6-5,0.7c-0.3-0.2-0.5-0.4-0.8-0.7   C72.4,391.6,73.3,391.6,74.1,391.5z" />
	<path fill="#9C9593" d="M483.1,395.7c0,0.2,0,0.5,0,0.7c-1.3-0.3-2.5-0.5-3.8-0.8C480.6,395,481.9,394.6,483.1,395.7z" />
	<path fill="#402C21" d="M890.1,370.1c-1.7,0-3.4,0.3-5,0c0.5-0.2,1-0.4,1.4-0.7C887.7,369.7,888.9,369.9,890.1,370.1z" />
	<path fill="#3F3127" d="M716.1,355.3c-0.8,0.4-1.5,0.8-1.7-0.2C714.6,353.9,715.5,354.4,716.1,355.3z" />
	<path fill="#8E827C" d="M305.3,226.8c-0.2,0.2-0.5,0.5-0.7,0.7c-0.9-0.3-1.5-0.9-1.8-2C303.9,225.6,304.6,226.1,305.3,226.8z" />
	<path fill="#C2F0FA" d="M195.6,247.5c0,0.2,0,0.4,0,0.6c-1.4,0-2.7,0-4.1,0C192.7,247.1,194.2,247.6,195.6,247.5z" />
	<path fill="#3A2F24" d="M865,366.7c1.2-0.8,2.7-0.7,4.1-0.5c-0.5,0.2-1,0.5-1.5,0.7C866.8,366.8,865.9,366.7,865,366.7z" />
	<path fill="#7D807E" d="M359.7,387.5c0-0.2,0-0.5-0.1-0.7c1.2,0,2.4,0,4.5,0C362.2,387.6,361,387.6,359.7,387.5z" />
	<path fill="#595E55" d="M723.6,190.6c-2-0.8-2-0.8-1.6-2.4C722.5,188.9,722.8,189.4,723.6,190.6z" />
	<path fill="#D2E3E4" d="M825,271.7c0.2-0.3,0.5-0.5,0.7-0.8c0.4,0.1,0.8,0.2,1.3,0.4C826.2,272.4,826.2,272.4,825,271.7z" />
	<path fill="#3B3331" d="M97.2,176.5c-1.1,0-2.2,0-3.3,0C95.1,175.9,96.2,175.9,97.2,176.5z" />
	<path fill="#3D372D" d="M82.6,180c0,0.9,0,1.8,0,2.6C81.6,181.7,81.6,181.5,82.6,180z" />
	<path fill="#FBDFD3" d="M467.2,169.7c0,1,0.5,2.1-0.5,2.8C466.7,171.5,466.1,170.4,467.2,169.7z" />
	<path fill="#56483F" d="M327.6,233c-0.8,0-1.7,0.5-2.3-0.5C326,232.6,326.8,232.8,327.6,233z" />
	<path fill="#6B8680" d="M818.2,383.4c-0.1,0.2-0.1,0.4,0,0.6c-0.7,0-1.4,0-2.1,0c0-0.2,0-0.4,0-0.6   C816.8,383.4,817.5,383.4,818.2,383.4z" />
	<path fill="#C2F0FA" d="M809.1,293.8c0.8,0,1.6-0.3,2.1,0.6C810.5,294.4,809.7,294.7,809.1,293.8z" />
	<path fill="#C2F0FA" d="M530.6,403.1c-0.7-0.1-1.3-0.3-2-0.4C529.3,402.6,530.1,402.3,530.6,403.1z" />
	<path fill="#C2F0FA" d="M46.8,247.6c-0.2,0-0.4-0.1-0.6-0.2c0.3-0.6,0.8-0.5,1.3-0.4C47.2,247.2,47,247.4,46.8,247.6z" />
	<path fill="#FBDFD3" d="M468.1,167.6c-0.3,0.5-0.5,1-0.8,1.4C467.2,168.4,467.2,167.8,468.1,167.6z" />
	<path fill="#2B271C" d="M628.5,181.4c0,0.6,0,1.2-0.8,1.3C628,182.2,628.3,181.8,628.5,181.4z" />
	<path fill="#787974" d="M424.5,383.4c-0.1-0.6,0-1.1,0.6-1.4C425.3,382.5,425.1,383,424.5,383.4z" />
	<path fill="#2B271C" d="M626.4,184.7c-0.1,0.9-0.8,0.8-1.4,0.7C625.4,185.1,625.9,184.9,626.4,184.7z" />
	<path fill="#2B271C" d="M627.8,182.6c0.1,0.7,0.2,1.3-0.7,1.4C627.3,183.6,627.5,183.1,627.8,182.6z" />
	<path fill="#624A42" d="M373.5,392.9c0,0.2,0,0.5,0,0.7c-0.4,0-0.9,0-1.3,0c0-0.2,0-0.4,0-0.5C372.6,393,373,393,373.5,392.9z" />
	<path fill="#6D5D55" d="M767.2,217.5c-0.2,0.5-1.1,0.5-1-0.1C766.5,217,766.9,217.1,767.2,217.5z" />
	<path fill="#554B41" d="M178.2,193.1c-0.2-0.2-0.4-0.4-0.6-0.6C177.9,192.7,178.1,192.9,178.2,193.1z" />
	<path fill="#3B3331" d="M90.8,176.8c-0.2,0.1-0.5,0.3-0.7,0.4C90.4,177.1,90.6,176.9,90.8,176.8z" />
	<path fill="#FBDFD3" d="M466.7,172.5c-0.2,0.3-0.4,0.6-0.7,0.9C466.2,173.1,466.4,172.8,466.7,172.5z" />
	<path fill="#687573" d="M369.4,233.1c-0.2,0.2-0.4,0.4-0.6,0.7C369,233.6,369.2,233.4,369.4,233.1z" />
	<path fill="#C2F0FA" d="M5.6,273.6c0.2-0.2,0.3-0.3,0.5-0.5c0,0.2,0,0.3,0,0.5C6,273.6,5.7,273.6,5.6,273.6z" />
	<path fill="#787974" d="M425,380l-0.2,0l-0.2-0.1c0.1-0.1,0.2-0.3,0.3-0.4C424.9,379.6,424.9,379.8,425,380z" />
	<path fill="#787974" d="M424.5,379.9c-0.2,0.2-0.4,0.5-0.6,0.7C423.9,380.2,424,379.9,424.5,379.9z" />
	<path fill="#2B271C" d="M627.1,184c-0.2,0.2-0.5,0.5-0.7,0.7C626.6,184.5,626.8,184.2,627.1,184z" />
	<path fill="#C2F0FA" d="M835.4,286.1c-0.2-0.2-0.4-0.4-0.7-0.6C834.9,285.7,835.2,285.9,835.4,286.1z" />
	<path fill="#C2F0FA" d="M805.7,268.2c0.3,0.2,0.5,0.4,0.8,0.6C806.3,268.6,806,268.4,805.7,268.2z" />
	<path fill="#C2F0FA" d="M835.4,267.5c0.2-0.3,0.4-0.5,0.6-0.8C835.8,267,835.6,267.3,835.4,267.5z" />
	<path fill="#8DA8AB" d="M671.3,235.7c0.3-0.2,0.6-0.3,0.8-0.5C671.8,235.4,671.5,235.5,671.3,235.7z" />
	<path fill="#D4E6E8" d="M851.9,334.4c0.1-0.2,0.2-0.3,0.3-0.5c0.1,0.2,0.2,0.4,0.3,0.5C852.3,334.4,852.1,334.4,851.9,334.4z" />
	<path fill="#99A5A5" d="M711.9,334.4c0.2,0.2,0.4,0.5,0.7,0.7C712.4,334.9,712.2,334.7,711.9,334.4z" />
	<path fill="#8AA5A8" d="M631.3,281.3c0.6,0,1.2,0,1.4,0.8c-18.8,18.1-46.2,3.2-68.3,11.9c-20.5,5.2-41-2.4-61.5-1.3   c-16.5-0.5-33.7-5.7-50.2-3c-9,1.6-25.1,8.5-33,6c2.8-1.8,6.2-1.9,8.3-4.7c1.9-0.7,4.6-1.9,4.8-4.1c1.3-0.9,2.7-1.7,4.1-2.6   c3.2-17.7,14.4-35,28.3-46.3c0.2,0.7,0.8,0.7,1.4,0.7c-3,3.6-5.9,7.2-8.9,10.8c1.9,7.8,1.2,15.6,1.2,23.9c1.9-1,3.9-1,5.6-2.3   c1.5,0,3,0,4.7,0c-2.7,3.6-7.1,3-10.9,4.7c0.3,3.6-0.1,6.7-1.3,10.3c40.5,1.2,81.2,13.2,121.2,3.1   C596.6,290.1,614.5,289.8,631.3,281.3z M456.2,255.8c0-1.5,0-2.9,0-4.5c-12.9,10.6-11.5,29.6-24.4,40.2c7.6-2,14.9-3.6,22.8-3.5   C454.7,277.3,459,266.4,456.2,255.8z" />
	<path fill="#8AA6A8" d="M419.7,295.7c1,0.9,2.2,0.8,3.5,0.8c-5.1,3.6-11.9,4.8-18,4.8c0.3-1.2,1.9-0.2,2.4-1.3c-3.3,0-6.5,0-9.8,0   c-0.2,0.8-1.4,0.8-1.1,2.1c3.5,0.1,7.6-2.5,10.6,0.5c-36.7,5.6-75.3,8-111.6-2.8c0.2-0.2,0.5-0.4,0.7-0.6   c26.2,2.8,52.5,6.3,78.9,4.7c1-20.9,4.1-45.5-6.6-65.2c0.5-0.2,1-0.5,1.4-0.7c9.9,20.1,7.8,42.9,8.5,64.7   c5.5,0.5,10.8-0.8,15.9-0.1c0.4-0.7,0.8-1.3,1.1-1.9C402.2,296.1,412.4,300.7,419.7,295.7z" />
	<path fill="#92ACAF" d="M199.8,315.1c34-5.7,40.3,8.5,66.3,12.1c-20.9,2.5-27.9-16.7-64.2-11.4   C201.2,315.6,200.3,316.1,199.8,315.1z" />
	<path fill="#96AEB1" d="M259.8,306.8c-10.4-0.4-20.2,0.8-30.4,0.7c-0.2-0.2-0.5-0.5-0.7-0.7C238.8,305.8,250.1,305.4,259.8,306.8z" />
	<path fill="#9CB7BA" d="M296.3,299.2c-0.2,0.2-0.5,0.4-0.7,0.6c-2-0.7-4-1.7-6.2-1.3c-0.7-1.5-2.7,0.1-3.5-1.3   c0.4-0.1,0.7-0.2,1.6-0.5c-3.3-1.1-5.4-2.9-8.2-5.2c6.1,2.4,10.4,5.2,16.7,6.5C296.2,298.5,296.2,298.9,296.3,299.2z" />
	<path fill="#A0BEC2" d="M199.8,315.1c0.4,1,1.4,0.5,2.1,0.7c-5.9,1.8-12.4,3.3-18.2,6.1C186.2,318.4,195.3,316.3,199.8,315.1z" />
	<path fill="#99B5B8" d="M143,322.9c-1,0-1.9,0-3.3,0c0.5,0.7,0.7,1.1,1.1,1.7c-0.9,0-1.8,0-2.6,0   C135.4,321.3,143.3,319.7,143,322.9z" />
	<path fill="#A7CAD0" d="M228.8,306.8c0.2,0.2,0.5,0.5,0.7,0.7c-2.6,1.4-6.1,1.6-9,2.7l0,0C222.3,307.8,226.1,308,228.8,306.8z" />
	<path fill="#5C5650" d="M651.4,372.9c-0.7,0.3-1.7-0.2-2.2,0.7c-2.1-0.2-4.1-0.4-6.2-0.7c-0.1-0.2-0.1-0.4-0.1-0.7   C645.8,372.5,648.8,371.9,651.4,372.9z" />
	<path fill="#9CB7BA" d="M279.7,298.6c3.2,0,6.5,0,9.7,0C286.9,299.6,282.3,299.6,279.7,298.6z" />
	<path fill="#383931" d="M506.2,381c-1.1-1.1-1.5-2.6,0.1-2.8C508.1,378.5,507,379.9,506.2,381z" />
	<path fill="#99B0B3" d="M643,372.3c0,0.2,0,0.4,0.1,0.7c-1.2,0.3-2.1-0.1-3.2-1C641.1,371.5,642.1,371.2,643,372.3z" />
	<path fill="#BAD3D5" d="M407.3,302.7c-0.7-0.5-1.4-0.9-2-1.4c0,0,0,0,0,0c1.2,0,2.3,0.1,3.5,0.1   C408.2,301.8,407.7,302.2,407.3,302.7z" />
	<path fill="#D0E3E5" d="M132.9,293c0.2-0.2,0.5-0.4,0.7-0.6C133.4,292.6,133.1,292.8,132.9,293z" />
	<path fill="#A7CAD0" d="M220.5,310.3c-0.1,0.1-0.2,0.2-0.4,0.4C220.1,310.4,220.3,310.3,220.5,310.3L220.5,310.3z" />
	<path fill="#49473F" d="M364.4,394.9c0.5,0.2,1,0.4,1.5,0.6c-3,0.7-5.9,1.4-8.9,2.1c-0.5-0.2-1-0.5-1.5-0.7   C358.4,395.9,361.4,395.4,364.4,394.9z" />
	<path fill="#49473F" d="M354.9,398.3c0.3-0.6,0.9-0.6,1.4-0.5C355.8,398,355.4,398.2,354.9,398.3z" />
	<path fill="#49473F" d="M352.1,399.1c0.3-0.7,0.9-0.6,1.5-0.5C353.1,398.7,352.6,398.9,352.1,399.1z" />
	<path fill="#A6C5CA" d="M779.7,246.9c-9.6-1.1-19.2-2.7-29-3.5c-4.1,3.4-8.6,5.6-14.1,4.6c4.6-1.6,10.2-1,13.1-5.7   c9.9,1.5,20.3,1.8,30.2,4C779.8,246.5,779.7,246.7,779.7,246.9z" />
	<path fill="#94AFB2" d="M814.7,247.6c-1,1.1-1.9,2.1-3,3.3c5-0.6,9.8-2.1,14.7-3.3c0.3,0.3,0.5,0.5,0.8,0.8   c-8.2,2.8-16.6,5.1-25.3,5.1c3.8-2.5,8.7-2.6,12.2-5.9C814.3,247.6,814.5,247.6,814.7,247.6z" />
	<path fill="#95B3B6" d="M814.7,247.6c-0.2,0-0.5,0-0.7,0c0.1-0.4,0.2-0.9,0.4-1.3c-5.4-3.5-12.9,3.4-15.5,0.1   c-3.6,1.1-7.1,0.4-11.3-0.6c4.8-0.6,9.1,0.3,12.9-1.4c0.6,0.4,1.1,0.8,1.6,1.1c4.1-1.3,7.4-1.5,11.9-1.3   C814.5,244.9,816.4,246.7,814.7,247.6z" />
	<path fill="#EEF5F5" d="M698.3,230.4c0.1-0.2,0.1-0.3,0.1-0.5c0.2-0.2,0.5-0.4,0.7-0.7c1.3,1.4,2.7,2.5,3.9,3.9   c-3.7,1.3-7.8,1.8-11.5,3.9c0-0.9,0-1.6,0-2.4C694.3,234.7,697.7,233.5,698.3,230.4z" />
	<path fill="#809292" d="M827.2,248.3c-0.3-0.3-0.5-0.5-0.8-0.8c4.6-1.4,9.2-2.7,13.8-4.1c0.2,0.3,0.5,0.5,0.7,0.8   C836.5,245.9,831.9,247.5,827.2,248.3z" />
	<path fill="#E3EFEF" d="M730,226.2c0-0.4,0-0.8,0-1.2c2.3,0.1,4-1.5,6-2.2c0.5,0.7,1,1.4,1.4,2.1   C735.6,226.2,732.4,225.6,730,226.2z" />
	<path fill="#B6DCE4" d="M726.5,242.7c1.8-2,5.5-3.8,7.6-2.1C731.9,242.6,729.3,243,726.5,242.7z" />
	<path fill="#97AFB3" d="M726.5,242.7c2.8,0.3,5.4-0.1,7.6-2.1c-1.2,4.5-8.2,3.2-12,3.4C723.2,242.3,725.3,244.4,726.5,242.7z" />
	<path fill="#96B1B4" d="M710.4,245.6c-1,0.4-1.9,0.8-2.7,1.2c-1-1,0.2-1.6,0.9-2.1c2.2-1.2,3-0.9,4.6,1.6   C712,247.4,711.6,245.7,710.4,245.6z" />
	<path fill="#57433B" d="M869.8,236.5c-1.5,1-3.2,0.8-4.8,1.2c0-0.2,0-0.4,0-0.6c1.5-1,3.2-0.8,4.8-1.2   C869.8,236.1,869.8,236.3,869.8,236.5z" />
	<path fill="#514C44" d="M879.4,234.3c0.5,0.2,0.9,0.5,1.4,0.7c-1.8,0.2-3.6,0.5-5.5,0.7c0-0.2,0-0.4,0-0.6   C876.6,234.3,878,234.4,879.4,234.3z" />
	<path fill="#4A382F" d="M858.1,239.3c-1,0.9-2.3,0.9-3.5,1.2c0-0.2,0-0.4,0-0.6c1.2-0.4,2.3-0.8,3.5-1.1   C858.1,238.9,858.1,239.1,858.1,239.3z" />
	<path fill="#53423A" d="M875.3,235.1c0,0.2,0,0.4,0,0.6c-1.4,0.2-2.8,0.5-4.1,0.7c0-0.2,0-0.4,0-0.6   C872.5,235.1,873.9,235,875.3,235.1z" />
	<path fill="#4C372F" d="M841.5,243.4c1.4-0.4,2.8-0.9,4.3-1.3c0,0.2,0,0.4,0,0.7c-1.2,0.4-2.3,0.8-3.5,1.2   C842,243.7,841.7,243.5,841.5,243.4z" />
	<path fill="#47332A" d="M850.5,241.3c-0.9,0.2-1.8,0.5-2.7,0.7c-0.2-0.2-0.5-0.3-0.7-0.5c1.1-0.3,2.3-0.6,3.4-0.9   C850.5,240.9,850.5,241.1,850.5,241.3z" />
	<path fill="#523B32" d="M865,237.2c0,0.2,0,0.4,0,0.6c-0.9,0.2-1.8,0.4-2.7,0.6c0-0.2,0-0.4,0-0.5C863,236.9,864,237.2,865,237.2z" />
	<path fill="#4B382F" d="M862.2,237.8c0,0.2,0,0.4,0,0.5c-0.9,0.2-1.8,0.5-2.8,0.7c0-0.2,0-0.4,0-0.6   C860.2,237.6,861.3,237.8,862.2,237.8z" />
	<path fill="#473228" d="M854.6,239.9c0,0.2,0,0.4,0,0.6c-0.9,0.2-1.8,0.4-2.7,0.6c0-0.2,0-0.4,0-0.6   C852.6,239.7,853.7,239.9,854.6,239.9z" />
	<path fill="#433930" d="M847.1,241.6c0.2,0.2,0.5,0.3,0.7,0.5c-0.6,0.7-1.4,0.7-2.2,0.7c0-0.2,0-0.4,0-0.7   C846.2,241.9,846.6,241.7,847.1,241.6z" />
	<path fill="#41342A" d="M841.5,243.4c0.3,0.2,0.5,0.4,0.8,0.5c-0.4,0.1-0.8,0.3-1.2,0.4c-0.2-0.3-0.5-0.5-0.7-0.8   C840.6,243.4,841,243.4,841.5,243.4z" />
	<path fill="#553F36" d="M871.2,235.8c0,0.2,0,0.4,0,0.6c-0.5,0-0.9,0.1-1.4,0.1c0-0.2,0-0.4,0-0.6   C870.3,235.9,870.7,235.9,871.2,235.8z" />
	<path fill="#442F25" d="M859.5,238.5c0,0.2,0,0.4,0,0.6c-0.4,0.1-0.9,0.1-1.3,0.2c0-0.2,0-0.4,0-0.6   C858.6,238.7,859,238.6,859.5,238.5z" />
	<path fill="#423127" d="M851.9,240.5c0,0.2,0,0.4,0,0.6c-0.5,0.1-0.9,0.1-1.4,0.2c0-0.2,0-0.4,0-0.6   C851,240.7,851.4,240.6,851.9,240.5z" />
	<path fill="#95B2B6" d="M26.3,269.9c0-0.2,0-0.4,0.1-0.9c2.9-0.3,5.9,0,9-0.2c-11.5-19.4,30-8.3,37.3-4.4c0.5,2.3-8.3-2.1-10.2-1.7   c-7.6-1.3-21.7-6.9-27.4-0.2c-1,4.5,2.9,4.2,2.5,7.5C34.6,270.5,28.8,270.4,26.3,269.9z" />
	<path fill="#F4FAFA" d="M53.7,246.9c2.9-1.9,6.2-3.1,7.8-6.4c1.4,1.3,2.7,2.5,3.9,3.6C63.3,245.1,55.3,248.7,53.7,246.9z" />
	<path fill="#E5F5F6" d="M23.4,251.7c-0.2-0.6-0.4-1.3-0.6-1.9c3.2,0,6.4-0.6,9.5-0.7c0.1,0.3,0.3,0.6,0.5,1.1   C30.2,251.8,26.5,251,23.4,251.7z" />
	<path fill="#778887" d="M69.4,246.3c0.3,0.1,0.6,0.3,0.8,0.4C70,246.6,69.7,246.5,69.4,246.3z" />
	<path fill="#49473F" d="M351.4,397.9c-0.5,0.9-1.4,0.6-2.2,0.6C349.9,397.8,350.6,397.8,351.4,397.9z" />
	<path fill="#49473F" d="M354.2,397.2c-0.4,0.7-0.9,0.6-1.6,0.5C353.2,397.5,353.7,397.4,354.2,397.2z" />
	<path fill="#8CA8AB" d="M829.8,309.6c1.2,0,2.5-0.3,3.5,0.6C832,310.2,830.8,310.4,829.8,309.6z" />
	<path fill="#8CA8AB" d="M825,307.5c0.2,0.2,0.5,0.4,0.7,0.6C825.5,307.9,825.2,307.7,825,307.5z" />
	<path fill="#8CA8AB" d="M826.3,308.2c0.2,0.2,0.5,0.4,0.7,0.6C826.8,308.6,826.6,308.4,826.3,308.2z" />
	<path fill="#8CA8AB" d="M827.7,308.9c0.2,0.2,0.5,0.4,0.7,0.6C828.2,309.3,828,309.1,827.7,308.9z" />
	<path fill="#9FBFC3" d="M100.5,251c0,0.2,0,0.4,0,0.6c-0.4-0.1-0.8-0.1-1.1-0.2c0-0.1,0-0.2,0-0.3   C99.8,251.1,100.1,251.1,100.5,251z" />
	<path fill="#8BA6A9" d="M339.1,238c3,1.6,7.5,0.2,11,0.7c-22,4.6-45.1,9.1-66.4,16.7c1.9,0.5,3.4,0.8,4.9,1.2c0,0.2,0,0.4,0,0.6   c-5,0.6-9.6-1-14.3-2.4c-2.8-4.6-5.6-9.3-9.2-13.4c0.6-0.1,1.2-0.1,1.5-0.8c3,2.2,4.9,5.4,7,8.1c10.5-0.4,20.8-4.9,31.4-3.8   C316.5,246.2,327.7,239.3,339.1,238z M277.3,253.6c8.8-0.2,16.7-4.8,25.4-6.4c-9.3-1.3-18.1,3-27.3,3.1   C275.4,251.9,276.2,252.8,277.3,253.6z" />
	<path fill="#E1EEEE" d="M283.2,234.5c1.3-0.9,1.5-2.4,1.5-4c1.4,0.5,2.7,0.9,4,1.2c-1.1,1.8-3,2.7-4.7,3.9   C283.2,235.6,283.3,235,283.2,234.5z" />
	<path fill="#6A7C7A" d="M266.7,240.6c-0.2,0.7-0.9,0.7-1.5,0.8c-1.7-0.8-2.8-2.2-4.2-3.4c1,0,2,0,2.9-0.1   C264.9,238.8,265.8,239.7,266.7,240.6z" />
	<path fill="#D4EAED" d="M53.7,288.2c5.9-12.2,23-6.9,29-17.1c2.8-10,15.5-22.6,24.2-11.2c11.6,12.2,31.6,11.2,46.1,6.9   c20.2-2.7,39.3-19.5,60.6-11.7c5.2,7.6,12.8,13.6,20,18.6c-0.5,1.1-1.7,0.3-2.4,0.9c-2.2,1.9-5.2,1.9-7.3,4c0,0,0,0,0,0   c-12.5,4-26,4.8-38.7,0.3c-4-1.1-8.2-2.7-12.5-1.3c2.1,3.6,6.9,4.3,10.2,6.3c0,0.7-0.7,0.6-1,0.6c-3.5-1.2-7.1,0.8-10.8,0.5   c-16.1,2.3-31.3-6.3-47.4-5c-6.3-0.1-10,6.4-16.3,6.9c-4.9,1.4-10.6,1.4-14.6,4.8c-6.2,1-5.1-7.2-8.3-4.1c1.4,0.9,2.3,2,2.8,3.4   c-1.8,1.3-4.9,0.7-7.2,0.3c-1.8-0.7-3.7,0.8-5.6,0c-4.5-2-9,1-13.6,0.5c-3.7,1.2-8.7,2.1-10.9,5.6c-1,1.8-2.9,1.3-4.4,2.2   c-1.1-3.5-1.1-8.7,3.2-8.8c1.2,1.5,2.5,1.2,3.9,0.3c1,0,2,0,3.1,0c2.2-2.4,3.7-5.3,5.6-7.9c-2.7,1.2-4.5,3.2-5.5,5.9   c-0.6,0-1.2,0-1.8,0c0,0,0,0,0,0C54.1,288.7,53.9,288.4,53.7,288.2z M111.5,277c1.2-1.4,3.4-2.8,1.2-4.6c-1.2,1.6-4.2,2.6-4.3,4.6   C109.3,277,110.2,277,111.5,277z M177.4,261.2c0-0.2-0.1-0.4-0.1-0.6c-3.3,0.7-5.2,3-6.9,5.8C173,264.5,175.2,262.8,177.4,261.2z    M120,272.9c-1-0.9-1.7-1.5-2.5-2.2c-0.7,0.9-2.3,0.4-2.3,2.2C116.6,272.9,118,272.9,120,272.9z M99.9,257.2   c-0.9,0.3-1.5,0.7-1.2,1.9C100.4,258.5,100.4,258.5,99.9,257.2z M124.2,273.6c-0.9-0.6-1.7-0.8-3,0   C122.5,273.6,123.3,273.6,124.2,273.6z M64.9,281.5c-0.5,0.5-0.9,1-1.5,1.6C64.7,283.3,65.1,282.8,64.9,281.5z" />
	<path fill="#D2E2E2" d="M296.3,299.2c-0.1-0.3-0.2-0.7-0.3-1.1c-6.3-1.3-10.6-4.1-16.7-6.5c2.7,2.3,4.9,4.1,8.2,5.2   c-8.1,0.1-20.8-2.9-27.2-7.8c4.7,0.2,9.5,1.4,14.2,0.4c-0.2-0.5-0.3-0.8-0.4-1.1c0.4-0.1,0.8-0.2,1.5-0.4c-1-0.7-1.7-1.2-2.6-1.9   c-0.2,0.7-0.3,1.2-0.4,1.6c-3.8-0.5-5.2-4.7-8.7-5.9c-0.3,0.1-0.6,0.3-0.9,0.4c-1.5-1-1.5-1-3.7-0.2c0.4,0.1,0.7,0.2,1,0.3   c-1.4,1.1-3.1,1.1-4.6,1.6c-0.1,0.4-0.1,0.8-0.2,1.1c-6.6-2.4-12.1-6-16.3-11.8c-10.4-9.9-21.3-19.2-31.9-29c3-1.6,7.5-0.2,11-0.6   c1,1.7,1.6,3.5,1.6,5.3c12.5,7.1,23.1,27.7,37.2,27.8c2.2,2,2.2,2,3.1,4c0.8,0.1,1.8,0.1,2.6,0c0.3-2.5-3.6-3.1-2.6-5.2   c18.6,3.6,35.9,12.4,55,13c20.3-0.5,40.1,6.3,60.3,4c0.1,2.7-0.3,5.5,0.5,8.2c0.4,1,0.4,2.3-0.8,3.3   C348.8,305.5,322.5,302.1,296.3,299.2z" />
	<path fill="#D0E3E5" d="M50.2,297.2c4.7-5.7,17.6-7.4,24.5-6c1.8,0.8,3.7-0.7,5.6,0c2.3,0.4,5.3,1.1,7.2-0.3c1.6,0.8,3.4,3,5.3,1.7   c0.1-0.3,0.1-0.6,0.2-1c4-3.4,9.7-3.4,14.6-4.8c6.3-0.5,10-7,16.3-6.9c16.1-1.3,31.3,7.3,47.4,5c3.6,0.3,7.3-1.6,10.8-0.5   c0.4,0.1,1.1,0.1,1-0.6c-3.4-2-8.1-2.7-10.2-6.3c20.1-0.1,26.8,9.5,51.1,1c-1,0.6-2,1.2-3.3,2c4.6,0.1,11.9,0.1,13.2-5.3   c-3.5-0.4-6,3.6-9.9,3.3c2-2.1,5.1-2.1,7.3-4c0.6-0.6,1.9,0.2,2.4-0.9c5.4,4.9,11,9,17.7,12.1c-31.5,1.9-63.7,3.9-95.2,2.5   c0.2,0.4,0.4,0.7,0.5,1c-3.1,0.1-18.1,1.8-18.7-1c-1.4-0.2-2.8-0.1-3.8,1c0.3,0.4,0.6,0.7,0.9,1c-2.2-0.1-4.3,0.4-6.8,1.1   c1.6,0.2,2.6,0.4,3.7,0.5c0,0.2,0,0.3,0,0.5c-11.4-0.3-22.7,0.5-34,2.6C82.1,295.2,65.4,292.4,50.2,297.2z M115.9,288.3   c0.7,1.8,9,2,9.2,0.1C122.1,288,119.1,288.2,115.9,288.3z" />
	<path fill="#D7EAEC" d="M255.6,284.8c0.1-0.3,0.1-0.7,0.2-1.1c1.5-0.5,3.3-0.6,4.6-1.6c1.2-0.1,2.5,0.1,3.7-0.5   c3.8,1.8,5.8,5.7,10.1,6.6c0.1,0.3,0.2,0.6,0.4,1.1c-4.7,1-9.5-0.2-14.2-0.4C258.9,287.4,257.4,286,255.6,284.8z" />
	<path fill="#DDD9D3" d="M217.7,243.4c-3.3,0.5-7.5-1-10.3,0.6c-2.9-1.7-5.8-3.9-8.3-6.2c3.5-1.6,8.4-0.2,12.4-0.6   C213.3,239.6,216.1,240.8,217.7,243.4z" />
	<path fill="#CFE1E2" d="M232.3,272.3c-7.4-3.6-13.6-10.6-18.7-17.2C217,257,232.3,268.9,232.3,272.3z" />
	<path fill="#93B1B5" d="M153,266.9c-0.7,1.1-1.9,0.5-2.8,0.6C150.9,266.3,152,267,153,266.9z" />
	<path fill="#D7EAEB" d="M464.5,271c-1.7,1.3-3.8,1.3-5.6,2.3c0-8.2,0.7-16.1-1.2-23.9c2.9-3.6,5.9-7.2,8.9-10.8   c28.4,1.5,57.3,2.4,85.9,0.7c-1.1,6.1,0.5,13,2.9,18.5c0.7,0.1,1.4,0.2,2.2,0.4c-1.3,2,0.8,3.8,2,5.2c0.6-0.5,1-0.9,1.5-1.3   c6.4,6.2,14.2,8.5,22.4,10.1c0.6,1.2-0.5,2.7,0.9,3.7c1.5-1.3,3.4-2.5,4.4-4c4.8,1,25.8-10,21.4-14.5c-4,5.6-10.2,4.9-16.4,4.7   c-12.7,3.6-23.1-5-35.1-6.9c-0.9,0.7-1.6,1.3-2.4,1.9c-1.7-5.6-1.5-12.1-0.2-17.7c18.6,0.1,37.3-1.4,55.6-2.8   c0.4,1.2,0.8,2.5,1.3,4.1c0.3-2.2,0.5-3.8,0.6-5.5c7.2-0.1,13.5,2.1,20.5,1.5c0.8,0.9,1.7,2.8,0.8,3.4c6.6,6.1,11,10.1,17.7,1.6   c2.1-0.4,4-0.8,5.7-1.2c2.6-3.2,5.9-3.3,8.9-5.7c1.1,0.1,1.1,0.9,1.2,1.7c2.6,2.8,5.1,5.5,7.5,8c17.3,2.6,31.7,12.8,48.2,16.9   c38.5-10.3,76.2,12.8,111.1,25.4c0,0,0,0,0,0c1.8,2.9,5,4.4,7.6,6.2l0,0c0.4,0.3,0.7,0.8,1.3,0.7c0.3,0.2,0.5,0.4,0.8,0.6   c13,5.7,17.6,27.6,15.4,40.7c-0.7-0.5-1.4-0.9-2-1.3c-1.6-4.7,0.3-10.3-2.8-14.5c-3.6-4.1-4.8-10.1-9-13.4   c-1.4-0.6-2.3-1.9-2.5-3.5c-0.3,0.2-0.5,0.5-0.9,0.8c-2.7-1.7-6.4-1.2-8.8-3.7c-0.6,0.5-0.2,1,0.1,1.3c1,1,1.6,2.1,1.9,3.6   c3.7,1.2,6.7,3.1,10.4,4.2c1.8,2.2,3.7,8.7-1.4,7.8c-3.4-2.8-6.8-6.5-11.4-7.4c-0.7-1.1-1.8-0.5-2.8-0.7c0,0,0,0,0,0   c-0.2-0.2-0.5-0.5-0.7-0.7l0,0c-0.2-0.2-0.5-0.5-0.7-0.7l0,0c-0.4-0.3-0.7-0.8-1.3-0.7c-4.5-2.9-11.2-4.6-12.6-10.9   c4.6-10.2-23-13.8-28.9-11.1c-6.3,1.2-12.9,1-19.2,0.7c-16.4-1.1-32.8-2.4-49.3-3.6c-18.8-2.6-46.1,5.9-61.1-8.8   c15.3,4,38.4,12.1,50.8-3.1c-8.5-2-17.1,1.6-25.9,0.4c-8.6-0.1-17.1-4.4-25.7-3.1c-0.4,0.8-0.9,1.7-1.3,2.5c0.6,1,0.8,1.6,0.7,2.7   c-3.5-0.7-4.6,1.4-5.6,4.2c-1.2,0-2.4,0-3.4-0.8c-0.3-0.6-0.8-0.6-1.4-0.6c0-0.2,0-0.5,0-0.7c0,0,0,0,0,0c0.2-0.2,0.5-0.4,0.7-0.7   c0,0,0,0,0,0c0.6,0,1.1,0,1.4-0.7c0.2,0,0.4-0.1,0.6-0.1c4.7-3,8-7.2,11.1-11.7c-1-0.7-1.6,0.7-2.7,0.7c-6.3-17.3-14,33.7-73.6,18   c-1.6,3.1-4.4,4.1-7.3,5.4c-3.1-0.7-10.4,2.7-12.3,0.7c-0.9-1-2.2-0.7-3.4-0.7c-1.2-2.9-2.9-2-5.6-2c-15.6,4.3-31.2-24.7-37-14.1   c-5.1-1.6-11.8-2.3-16,1.6c-6.5-0.7-12.7-1.5-19.5-2.2c6.4-3.4,13.8-2.4,20-6.5c-5.9-3.2-12.1-1.3-18.1-0.3c-0.4-0.6-0.7-1.2-1.2-2   c-0.6,0.6-1,1-1.3,1.4c0.4,0.6,0.6,1,1,1.5c-1.8,0.7-4,0.2-5.2,1.5C473.3,266.1,467.4,266.7,464.5,271z M561.3,242.9   c-0.5,1.9-0.3,3.8-0.2,5.6c0.5,0.6,1,1.1,1.5,1.7c1,0.1,2,0.3,3.4,0.4c-1.2-2.9-1.8-5.6-3.5-7.9C562,242.8,561.7,242.8,561.3,242.9   z M627.5,241c-2.7-0.7-11.2,2.9-9.2,5.9C620.9,244.3,624.2,242.8,627.5,241z M726.4,268.4c-1.4-2.1-5.8,0.5-6.7,2.5   C722.5,271.2,724.4,269.8,726.4,268.4z M519.2,246.5c-1.5,2.5-2.8,6.2-2.9,8.5C517.8,252.6,520.4,250.5,519.2,246.5z M531.4,249.7   c-1.9,0.1-2.6,1.9-3.9,2.8c-0.3,1.4-0.5,2.6-0.8,3.8c2-0.7,2-0.7,1.6-2.9C529.4,252.4,530.9,251.7,531.4,249.7z M531.1,247.8   c1.9-1.4,3.4-2.7,4.6-4.7C533.3,242,530,245.3,531.1,247.8z M611.2,250c0.8,0.4,1,0.6,1.3,0.7c2.1-2,2.1-2,2.2-4   c-0.5-0.5-1.1-1-1.9-1.7C612.6,246.8,613.1,248.7,611.2,250z M673.3,250.3c-0.7,0.6-1.8,1-1.9,2.6   C672.6,252.5,675,251.5,673.3,250.3z M662.9,258c1.9-0.5,2.6-1.5,3.6-3C664.6,255.5,664,256.5,662.9,258z M670.1,254.1   c-1.8,0.2-3,0-2.6,1.5C668.3,255.2,669.1,254.7,670.1,254.1z M733.8,267.1c-1-0.6-1.7-0.3-2.3,0.8   C732.5,268.5,733.2,268.2,733.8,267.1z M832.4,294c-0.4-0.6-0.8-1.3-1.8-0.5c0.1,0.6,0.2,1.2,1.2,1.2   C832,294.5,832.2,294.3,832.4,294z M738.6,265.8c-1-0.6-1.7-0.2-2.2,0.7C737.3,267.1,738.1,266.8,738.6,265.8z" />
	<path fill="#D2E2E2" d="M464.5,271c2.9-4.4,8.8-4.9,13-7.6c0.3,0.2,0.7,0.4,1,0.6c0.1-0.4,0.3-0.8,0.4-1.2c1.2-0.3,2.4-0.5,3.8-0.8   c-0.3-0.5-0.6-0.9-1-1.5c0.4-0.4,0.7-0.8,1.3-1.4c0.5,0.8,0.8,1.4,1.2,2c6-1,12.1-2.9,18.1,0.3c-6.2,4.2-13.6,3.1-20,6.5   c6.7,0.8,13,1.5,19.5,2.2c4.2-3.9,10.9-3.3,16-1.6c3.4-7.9,17,6.7,20.5,10c-2.5-0.2-4.1-3.5-6.6-3.1c7.9,6.9,17,13.2,27.3,8.8   c-0.3-0.6-0.5-1-0.7-1.5c1.4-0.2,1.3,1.3,2.1,2.1c-0.1,2.2,2.2,1,3.4,0.7c1.1,1.4,2.9,0.6,4.1,0c-0.2,1.7,2.4,1.8,2.1,0   c2-0.1,4-1,6.1-0.7c2.9-1.2,5.6-2.3,7.3-5.4c59.5,15.7,67.2-35.2,73.6-18c-22.4,23.1-47,30.9-78.6,27.7c-40,10-80.8-2-121.2-3.1   c1.2-3.5,1.5-6.6,1.3-10.3c3.8-1.7,8.2-1.1,10.9-4.7C467.5,271,466,271,464.5,271z M510.5,288.6c-0.5-1.5-0.5-1.5-2.5-1.9   C508.3,288.1,509.4,288.2,510.5,288.6z M484.8,282.7c1.1,1,1.6,1.5,2.5,2.2c-0.1-1-0.1-1.5-0.1-2.1   C486.4,282.8,486,282.8,484.8,282.7z M525.8,272.5c0.9,0.8,1,1.4,1.9,0.8C527.5,272.1,527,272.5,525.8,272.5z M521.2,270.2   c0-0.2,0-0.4,0-0.6c-0.6,0.1-1.2,0.1-1.9,0.2c0,0.1,0,0.2,0,0.4C520,270.2,520.6,270.2,521.2,270.2z M512,270.2   c0.2-0.1,0.4-0.2,0.5-0.2c-0.2-0.4-0.5-0.2-0.8-0.1C511.8,269.9,511.9,270.1,512,270.2z" />
	<path fill="#D2E3E3" d="M650.6,275.8c3.7-11.2,12.9,4.5,20.3,3.9c15.9,2.7,31.8,0.3,47.7,1.4c22.9,0.9,45.9,5.6,68.5,2.9   c0.8,0.3,1.4,1.1,2.4,0.5c-0.1-0.4-0.3-0.8-0.4-1.2c7.2-0.3,30.3,0.9,26.8,11.8c-1.3-0.5-1.4-1.8-1.6-2.9c-0.7-3.4-4.2-5.4-7.7-4.6   c1.3,2.2,6.1,2.4,5,5c-21.3-7.6-43.4-2.4-65.3-2.4c-31.3,0.3-62.5-2.8-92.6-11.2c0-0.4,0.1-0.8,0.1-1.4   C652.9,277,651.7,276.4,650.6,275.8z M800.3,286.6c1.1,0,2,0,3.1,0C801.9,285.1,801.2,285.1,800.3,286.6z M795.6,286.1   c0.1-0.3,0.2-0.6,0.4-1c-0.9-0.1-1.8-1.2-2.5-0.5C793.6,285.8,794.7,285.7,795.6,286.1z" />
	<path fill="#C4D9DA" d="M647.9,272.4c-0.3,0.7-0.8,0.7-1.4,0.7C646.7,272.4,647.3,272.4,647.9,272.4z" />
	<path fill="#C4D9DA" d="M645.8,274.4c0.6,0,1.1,0,1.4,0.6C646.6,275.1,646,275.1,645.8,274.4z" />
	<path fill="#C4D9DA" d="M645.8,273.7c0,0.2,0,0.5,0,0.7C645.1,274.2,645.1,274,645.8,273.7z" />
	<path fill="#C4D9DA" d="M646.5,273.1c-0.2,0.2-0.5,0.4-0.7,0.7C646,273.5,646.2,273.3,646.5,273.1z" />
	<path fill="#C4D9DA" d="M649.2,271.7c-0.3,0.2-0.5,0.4-0.8,0.6C648.7,272.1,649,271.9,649.2,271.7z" />
	<path fill="#8DA8AB" d="M840.9,291.7c-2.1-1.3-4.2-2.6-5.5-4.8c2.9-0.2,4.7,2.6,6.9,4.2C841.7,291,841.1,291,840.9,291.7z" />
	<path fill="#8DA8AB" d="M848.5,294.4c-0.6,0-1.2,0.1-1.4-0.7C847.6,293.9,848,294.2,848.5,294.4z" />
	<path fill="#8DA8AB" d="M843,291.6c-0.3-0.2-0.5-0.4-0.8-0.6C842.5,291.2,842.8,291.4,843,291.6z" />
	<path fill="#8DA8AB" d="M844.4,292.3c-0.2-0.2-0.5-0.4-0.7-0.6C843.9,291.9,844.1,292.1,844.4,292.3z" />
	<path fill="#8DA8AB" d="M845.7,293c-0.2-0.2-0.5-0.4-0.7-0.6C845.3,292.6,845.5,292.8,845.7,293z" />
	<path fill="#8DA8AB" d="M847.1,293.7c-0.2-0.2-0.5-0.4-0.7-0.6C846.6,293.3,846.9,293.5,847.1,293.7z" />
	<path fill="#A1BFC3" d="M54.3,288.9c0.6,0,1.1,0,1.8,0c1.1-2.7,2.8-4.7,5.5-5.9c-1.9,2.7-3.4,5.5-5.6,7.9c-1.1,0-2.1,0-3.1,0   c0.5-1.1,1.7-0.4,2.4-0.8C55,289.7,54.7,289.3,54.3,288.9z" />
	<path fill="#B2C8CA" d="M134.9,290.2c-0.3-0.3-0.6-0.6-0.9-1c1-1.1,2.4-1.2,3.8-1c0.4,0.5,0.2,1.6,1.3,1.3   C138,290.7,136.4,290.2,134.9,290.2z" />
	<path fill="#BAD5D8" d="M42.3,298.9c-0.6-0.8-0.8-1.1-1.2-1.6c0.5-1,1-1.8,1.5-2.8c0.9,0.8,0.1,1.3,0,1.8   C42.6,297,42.5,297.6,42.3,298.9z" />
	<path fill="#A1BFC3" d="M53.7,288.2c0.2,0.2,0.4,0.5,0.7,0.7C53.8,289,52.7,288.7,53.7,288.2z" />
	<path fill="#FBDFD3" d="M625,236.5c-3.4-1.3-7.5-1.4-11.3-1.4c-0.1-0.1-0.3-0.1-0.4,0c-0.1-9.1-3-18.9-7.3-26.7   c-0.2,8.7,6.8,17.6,4.8,26.6c-18-1.7-36,0.1-54,0.1c-0.5-4.9,3-10.2,1.1-14.9c-1.8-0.1-2.6-1.9-4-2.7c4.3-0.7,11.4-2.2,8-8   c-6.3-3.1-13,0.5-19.7-0.5c-10.5-2.2-20.9-6.4-30.7-10.7c-2.9-6.7-11.7-8.9-18.7-9.7c-0.6,0.5-1.3,1.2-2,1.9c0.5,0.9,1,1.6,1.4,2.2   c-0.8,2.1-2.9,4.7-0.8,6.8c-6.1,12.4-15.6,22.1-25.5,31.6c-7,0.9-14.2,1.2-21.1,1.9c-0.1-0.5-0.2-0.9-0.3-1.4   c10.4-22.2,13.2-49.2,31-67.1c21.3,1.2,42.6-0.8,63.7,1.4c8,0.5,15.2,7.9,23.2,6.2c19.7-5.8,37.7,10.8,45.3,27.4   c2-2.4-0.2-4.9-0.7-7.6c6.6-1.8,12.9-3.3,19.4-5.1c0.4,0.2,0.9,0.5,1.3,0.7c-1.6,1.1-1.6,1.1-1.7,2.4c1.1,0.9,1.8-0.3,2.9-0.4   c0.8,0.7,1.6,1.9,3,1.4c0.3,0.3,0.5,0.5,0.8,0.8c-0.3,1.8-0.4,3.6,0.8,5.3c-6.6,10.9-6.5,24.3-6.3,36.8   C626.5,234.7,625.7,235.6,625,236.5z M590,191.7c-0.6-0.4-1.2-0.8-1.8-1.3c-0.4,1.2,0.4,1.6,0.9,2.1c0.4,1,0.6,2.1,2,2.6   C591.7,193.5,590.9,192.6,590,191.7z M561,176.5c-0.6,0.2-1.2,0.5-1,1.6c3.8-1.5,7.3-3.5,11.5-3.8   C569.8,170.5,563.3,174.6,561,176.5z M542.3,169.2c-3.5-3.3-8.3,1.3-9.7,5.1C536,172.3,540.1,171.8,542.3,169.2z M476.4,172   c2.6-0.3,5.4-2.5,8.3-3.1c1.1-0.3,1.4-0.8,1.9-2C482.5,167.2,478,168,476.4,172z M560.1,179.6c-0.9-0.6-3.2,0.3-2.7,1.8   C558.4,180.8,559.6,180.8,560.1,179.6z M553.3,183.8c1.5,0.4,2.1-0.3,2.8-0.9c-0.2-0.3-0.3-0.5-0.6-0.9   C554.9,182.6,554.2,183.1,553.3,183.8z M526.7,179.1c1.6-0.7,1.6-0.7,1.4-1.7C527.2,177.4,526.7,177.8,526.7,179.1z M470.1,177.4   c0.9-0.2,2.2-0.1,1.6-1.6C470.8,176.3,470.2,176.5,470.1,177.4z M530.1,176.4c1.3,0.4,1.9,0,2.4-1   C531.4,174.9,530.7,175.3,530.1,176.4z M524.5,180.3c-1.6-0.3-1.6-0.3-2.5,1.2C522.9,181.1,523.6,180.8,524.5,180.3z M584.1,189.6   c0.9-0.2,0.6-0.5,0.5-1.1c-0.3,0.1-0.5,0.2-0.8,0.3C583.9,189,584,189.3,584.1,189.6z M579.7,187.6c-0.5-0.3-0.7-0.4-0.9-0.6   C577.9,187.9,578.8,188.5,579.7,187.6z M551.8,185.5c-1.1,0.1-1.7,0.2-1.5,1.4C551.3,186.7,551.4,186.5,551.8,185.5z M493,184.2   c-0.3,0.2-0.4,0.3-0.6,0.4c0.2,0.2,0.4,0.5,0.6,0.7C493.7,185,493.3,184.7,493,184.2z M472.9,174.2c0.2,0,0.3,0.1,0.5,0.1   c0.1-0.3,0.2-0.7,0.4-1C472.9,173,473,173.7,472.9,174.2z" />
	<path fill="#4ABA79" d="M636.2,173.7c-0.3-1.6-0.1-3.2-0.1-4.7c0.8-1.4,2.5-1.7,2.8-3.5c0.6,0,1.1,0,1.8,0   c5.1-10,17.1-16.9,28.2-16.4c1,1,1.7-0.7,2.7-0.2c3.8,1.6,8.7,2.4,11.4,5.8c4,17.4,8.9,37.8-4.8,52.3   c-11.3-7.9-24.8-12.3-34.2-22.8c-0.5-3.7-3.9-5.8-5.7-8.7c0.8-2.8,1.2-3.3-0.3-4.9c-0.7,1.2,0,2.6-0.7,3.7   C636.8,174,636.5,173.8,636.2,173.7z M670.7,151.4c-0.2,1.7,0.5,2.6,1,4.5c0.5-1.8,0.5-3.2,0-4.6   C671.4,151.3,671.2,151.3,670.7,151.4z M651.3,157.8c-1.9,0.5-2.1,0.7-1.6,2.2C650.3,159.2,650.8,158.5,651.3,157.8z M657.6,154.6   c1.4-1.7,1.4-1.7,0-2.5C657.6,152.8,657.6,153.4,657.6,154.6z" />
	<path fill="#FBDFD3" d="M673.3,230.9c-0.2,0.2-0.4,0.5-0.7,0.7c-1.8,0-3.8,0-5.5,0c-1-1.1-1.7-1.8-2.7-2.7c0.4-0.7,0.7-1.3,1.1-2   c-0.4-0.3-0.7-0.5-1.2-0.9c-1.1,1-2.2,1.7-2.1,3.5c0.7,0.6,1.5,1.3,2.2,2c-1.7,1.9-4.5,1.1-6.6,1.7c-1.7,0.6-3.3,0.7-4.9-0.1   c-0.1,0.5-0.2,0.9-0.2,1.2c-2.7,0.1-5.3,1.1-8,0.7c-2.5,1.1-5.1,0.5-7.7,0.7c-0.8-0.8-1.1-1.9-1.5-2.9c-0.1-0.7,0.3-1.7-0.9-1.9   l0,0.1c-1.6-8.8,1-17.6,0.7-26.5c1.3-2.1,2.6-4.1,4-6.3c-0.6-2.4-4.3-1.8-4.5-5c-0.2-1.7,1.9-3.5,0.8-5.7c0.2-0.3,0.4-0.5,0.6-0.8   c1.5,0.7,3,1.4,4.5,2c0.2,2.3-2.4,4.2-1.8,6.1c2.2-0.7,3.1-1.9,3-4.1c0-0.5-0.6-1.1,0.3-1.3c1.2,0.7,2.3,1.4,3.6,2.1   c0,0.7-0.1,1.5-0.1,2.3c0.8,0.6,1.6,1.3,2.5,2.1c0.7-0.7,1.4-1.4,2.2-2.2c6.9,2.8,11.6,9.4,16.8,14.5c0.1,1.5-0.8,2.9,0.4,4   c1.5,3.5,0.9,6.3,4.8,9.2c1.3,0,2.8-0.2,4.1-0.5C679.1,223.7,673.8,227.9,673.3,230.9z M652.2,230.4c-0.6,0.3-1.1,0.6-1.7,0.9   c0.2,0.4,0.4,0.7,0.6,1.2c0.6-0.4,1.2-0.7,1.8-1C652.6,231.1,652.4,230.8,652.2,230.4z" />
	<path fill="#35A65F" d="M678.2,206.9c13.7-14.5,8.8-34.9,4.8-52.3c14.9,17.8,22.3,40.2,5,59.2C684.9,211,681.4,209.1,678.2,206.9z    M685.5,163.6c1.8-0.3,2.5-0.6,2-2.3C686.7,162.2,686.2,162.8,685.5,163.6z" />
	<path fill="#4AB878" d="M630.7,180c0.1-2.4,2-3.8,3.4-5.6c0.5,0,0.9,0,1.4,0c0,0,0,0,0,0c3.6,5.3,9.9,11,12.4,15.9   c-5.9-2.1-11.8-6.4-18.2-6.1C628.3,182.1,631,181.8,630.7,180z" />
	<path fill="#312C21" d="M636.4,187c-0.2,0.3-0.4,0.5-0.6,0.8c1.1,2.2-1,4-0.8,5.7c0.2,3.2,3.9,2.6,4.5,5c-1.4,2.1-2.7,4.2-4,6.3   c-2.4,1.5-0.6,4.6-3.3,6c0.4-5,0.8-8.3,2.7-12.7c-2.3-1.3-2.5-4-2-6.3c0.7-0.5,2.3-1.9,0.6-2.2c0.4-0.5,0.8-1.1,1.1-1.6   c0-0.5-0.7-1,0.2-1.7C635.2,186.5,635.8,186.7,636.4,187z" />
	<path fill="#F4DBCF" d="M662.3,200c6.2,3.4,14.5,5.6,16,13.6c-0.2,0.3-0.4,0.6-0.7,0.9c-1.9-1.9-3-4.5-5.7-5.5   c-0.9-1.2-2.4-0.2-3.3-0.7c-2.3-2.9-5.9-5.1-7.3-8.2C661.7,200,662,200,662.3,200z" />
	<path fill="#4B4F5C" d="M668.6,214.4c-0.3-0.7-0.6-1.3-0.8-2c1-0.7,2-1.5,3-2.2c3.2,0.5,4.2,3.1,6.1,5.5   C677,223.2,670.7,217,668.6,214.4z" />
	<path fill="#F1D6CB" d="M677.6,214.4c0.2-0.3,0.4-0.6,0.7-0.9c0.5,1.2,0.9,2.5,2.2,3.1c1.9-1.1,0.6-2.9,1.4-4.3   c2.3,0.9,3.5,2.7,4.6,4.7c-1.2,2.9-5.5,1.7-8.1,2.7C677.8,218,678.9,216,677.6,214.4z" />
	<path fill="#324831" d="M647.9,190.3c-2.5-4.9-8.8-10.6-12.4-15.9c0.2-0.3,0.5-0.5,0.7-0.8c0.3,0.1,0.6,0.3,1,0.5   c0.7-1.1-0.1-2.5,0.7-3.7c1.5,1.7,1.2,2.1,0.3,4.9c1.8,2.9,5.2,5,5.7,8.7c2.2,2,4.8,3.8,6.6,6.2   C649.7,190.6,648.8,191.8,647.9,190.3z" />
	<path fill="#594E43" d="M662.3,200c-0.3,0-0.7,0.1-1,0.1c1.4,3,5,5.3,7.3,8.2c0.9,0.5,2.4-0.5,3.3,0.7c-1.1,0-2.2,0-3.3,0   c-0.5,0.5-1,0.9-1.5,1.4c0-0.6,0.1-1.1,0.1-1.8c-2.5-3.1-5.9-5.7-8.5-8.9C659.3,197.5,661.3,199.3,662.3,200z" />
	<path fill="#383328" d="M642.3,189.7c-0.9,0.3-0.4,0.8-0.3,1.3c0.2,2.2-0.8,3.4-3,4.1c-0.6-2,2-3.9,1.8-6.1   C641.4,189,642.1,188.9,642.3,189.7z" />
	<path fill="#6C6B60" d="M627.8,187.5c-0.4-0.2-0.9-0.5-1.3-0.7c1.1-0.8,2.6-0.8,4.2-1.4C629.9,186.9,628.7,187,627.8,187.5z" />
	<path fill="#D0BAAF" d="M633.4,189.6c1.7,0.3,0.1,1.7-0.6,2.2c-0.3-0.3-0.5-0.5-0.8-0.8C632.4,190.5,632.9,190,633.4,189.6z" />
	<path fill="#5876E8" d="M371.3,233.7c20.2-22.4,48-22.1,75.5-15.4c-1.4,4.8-3.5,9.9-5.1,14.8C418.4,234.6,394.7,233.5,371.3,233.7z   " />
	<path fill="#D8E3E2" d="M444.4,231.6c0.1,0.4,0.2,0.8,0.3,1.4c6.4-0.8,13.2-0.7,19.7-1.9c-2.3,2.6-4.8,4.6-6.7,7.6   c2.3,0,4.2,0,6.1,0c-12.6,11.7-24.1,28.3-27,45.6c-1.4,0.9-2.8,1.8-4.1,2.6c-1.2,0-2.3,0.4-3.5,0.7c3.8-8.3,9.1-15.7,13.5-23.6   c2.8-9.5,6.8-18.3,14.1-25.3c-4.7,0-8.8-0.1-13.1,0c-0.4-1-1.3-0.7-2.1-0.7C442.7,235.8,443.1,233.4,444.4,231.6z M445.6,236.3   c0.5-0.5,1.3-0.7,0.5-1.9C445.9,235.1,445,235.3,445.6,236.3z" />
	<path fill="#7FA4EF" d="M371.3,233.7c23.4-0.2,47.1,0.9,70.4-0.6c0,1.6-1.1,2.9-1.9,4.1c0,0.4,0,0.9,0,1.3c-0.2,0-0.5,0-0.7,0   c-17.5-1.3-37.6-1.3-55.2,0c-2.5-1.4-5.5-0.4-8.2-0.7c-0.8-0.7-1.2-2.4-2.5-1.7c0.4,0.8,0.7,1.6,1.1,2.4c-1.4,0-2.7,0-4.1,0   c-0.1-1.4,0-2.7,0-4.1C370.4,234.2,370.7,233.7,371.3,233.7z" />
	<path fill="#64767D" d="M440.3,236.5c0.4-1.1,1.5-2,1.4-3.4c0.2-0.5,0.4-0.9,0.7-1.4c0.3,1.2,0.3,1.2,1.5,0.7   c-0.7,1.8-1.4,3.7-2.1,5.5l-0.1-0.1c-0.4,0.8-1.1,0.8-1.9,0.7c0-0.4,0-0.9,0-1.3C439.9,237,440.1,236.8,440.3,236.5z" />
	<path fill="#687573" d="M370.7,233.9c-0.2,0.2-0.4,0.4-0.6,0.6C370.3,234.3,370.5,234.1,370.7,233.9z" />
	<path fill="#D4E6E8" d="M852.5,332.7c-0.4-0.3-0.7-0.5-1.1-0.8c-0.4,0.2-0.8,0.5-1.1,0.7c-1.4-1-1.3-3-0.8-4.6   c2-4.3-0.1-8.6,0.4-13.1c1.2,0.5,1.2,0.5,0.7,2.1C853.6,322.1,853,327,852.5,332.7z" />
	<path fill="#C9DDDE" d="M856,333.9c1.2,1.3,2,2.2,2.9,3.2c-0.1,0.7-0.2,1.3-0.3,2.1c-6.9-0.9-2.9-11.7-3.8-16.7   c2.1,0.6,1.1,3.1,1.3,4.7C855.8,329.6,857.5,331.7,856,333.9z" />
	<path fill="#8CA8AB" d="M831.2,308.1c0.9,0.3,2.1-0.4,2.8,0.7C833,308.9,831.9,309.1,831.2,308.1z" />
	<path fill="#8DA8AB" d="M846.4,295.1c-0.6,0-1.1,0-1.4-0.7C845.6,294.4,846.2,294.4,846.4,295.1z" />
	<path fill="#8CA8AB" d="M826.4,304.8c0.6,0,1.1,0,1.4,0.7C827.2,305.4,826.6,305.4,826.4,304.8z" />
	<path fill="#8DA8AB" d="M841.6,292.3c-0.2-0.2-0.5-0.4-0.7-0.6C841.1,291.9,841.3,292.1,841.6,292.3z" />
	<path fill="#8DA8AB" d="M842.9,293.1c-0.3-0.2-0.5-0.4-0.8-0.7C842.4,292.6,842.7,292.8,842.9,293.1z" />
	<path fill="#8CA8AB" d="M829.9,306.8c0.2,0.2,0.5,0.5,0.7,0.7C830.3,307.3,830.1,307,829.9,306.8z" />
	<path fill="#8DA8AB" d="M843.6,293.7c-0.2-0.2-0.5-0.4-0.7-0.6C843.2,293.3,843.4,293.5,843.6,293.7z" />
	<path fill="#8CA8AB" d="M830.6,307.5c0.2,0.2,0.5,0.5,0.7,0.7C831,307.9,830.8,307.7,830.6,307.5z" />
	<path fill="#8DA8AB" d="M845,294.4c-0.3-0.2-0.5-0.4-0.8-0.6C844.5,294,844.7,294.2,845,294.4z" />
	<path fill="#8DA8AB" d="M847.8,295.8c-0.3-0.2-0.5-0.4-0.8-0.6C847.2,295.3,847.5,295.5,847.8,295.8z" />
	<path fill="#8CA8AB" d="M827.8,305.4c0.3,0.2,0.5,0.4,0.8,0.6C828.3,305.9,828,305.7,827.8,305.4z" />
	<path fill="#8CA8AB" d="M829.2,306.2c0.2,0.2,0.5,0.4,0.7,0.6C829.6,306.6,829.4,306.4,829.2,306.2z" />
	<path fill="#FBDFD3" d="M211.5,237.2c-0.5,0-0.9,0-1.4,0c-8.8-8.3-18.9-15.6-30-20.7c-0.6-9.3-9.8-13-18.2-12.2   c1.9,2.3,3.5,4.4,5.3,6.5c-10-3.9-21.9-5.9-30.8-11.5c0.4-0.1,0.8-0.2,1.3-0.3c-1.5-1.3-1.5-1.3-2.6-0.4c-1.9,0.2-3.2-0.9-4.6-1.7   c0.2-2-12.2-7.8-13.3-5.2c-13.7,0.8-18.8-1-28.5-8.3c2.9,0.8,5.3,0.6,7.4,2.1c1.1,0.8,2.5,1.1,3.9-0.4c-3.2-1.5-7.5-2.8-8.4-6.5   c1.9,0,3.7,0,5.6,0c0.7,4,4.1,6.1,7.2,8.4c0.2-1.6-1-2-0.7-3.6c-1.7-1.1-3.6-2-4.4-4.1c-0.2-0.7,1.6-1.4,0-2.2   c0.9-1.1,2.5-0.3,3.7-0.4c2.1,1.3,2.5,3.4,3.7,5.3c-0.5,1.7,2,1.4,3,1.2c9.1-2.9,18.7-0.7,27.5-4.8c9.8-2.2,16.3-11.4,26.9-11.1   c7.6,7.2,3.6,19.9,12.9,26.4c10.7,9.8,23.8,17.1,37,23.2c15.6,5.8,34.1,6.5,45.6,20.2c-10.5,2.2-22.7-0.2-33.6,0   c-1.1-1-1.3-1-2.1,0C219.8,237.2,215.7,237.2,211.5,237.2z M169.8,195c-1.7-1.2-2.7-1.9-3.7-2.6c-2.6,0.4-6.1,0.2-7.1,3.1   C163.2,195,165.4,195.3,169.8,195z M131.4,190.9c-1.2-0.3-2.1-1.4-3.8-1.1C128.7,190.9,128.7,190.9,131.4,190.9z M171,197.5   c0.6,0.8,1.2,1.5,2.4,0.8C172.2,197.4,172.2,197.4,171,197.5z M180.1,203c1.1,0.7,1.1,0.7,2.4,0.8   C181.9,202.8,181.2,202.4,180.1,203z M144.4,200.3c-0.1-0.8-1.7-1.4-1.6-0.2C143.3,200.4,143.9,200.9,144.4,200.3z M177.9,201.4   c0.1-1,0.1-1-1.4-1.2C176.9,200.9,177.3,201.2,177.9,201.4z M185.1,205.3c0-0.1,0-0.3,0-0.4C183.2,204.4,183.3,205.8,185.1,205.3z" />
	<path fill="#E5E5E2" d="M211.5,237.2c5.1,0.3,10.5-0.9,14.9,1.1c-0.1-0.5-0.2-0.8-0.3-1.1c10.9-0.2,23.1,2.2,33.6,0   c1.7,0.8,2.8,2.2,4.2,3.4c-14.7,3.2-31,2.4-46.2,2.8C216.1,240.8,213.3,239.6,211.5,237.2z" />
	<path fill="#EECABA" d="M106,191.8c3.7,0,7.4,0,11.2,0c0.4,0.8,1.1,0.6,1.8,0.6c3.9-1,7,4.5,10.4,2.9c1,0.1,0.8,1,1.1,1.7   c1.4,0.7,2.8,1.9,4.6,1.7l0,0c0.1,0.4,0.2,0.8,0.6,0.1c8.9,6.3,21.3,8,31.6,12.1c-1.8-2.2-3.4-4.2-5.3-6.5   c8.4-0.7,17.6,2.9,18.2,12.2c11.1,5.1,21.2,12.3,30,20.7c-3.5,0.5-7.9-0.9-11,0.6C172.7,214.9,138.5,202.7,106,191.8z M181.9,223.3   c1.7,0.7,3.1,2.1,5.5,2.1c-2.5-2.3-4.5-3.2-7.6-4C180.6,222.6,180.9,222.9,181.9,223.3z M177,218.6c-0.1-0.2-0.2-0.3-0.3-0.4   c-0.4,0.2-0.1,0.5,0,0.8C176.7,218.8,176.9,218.7,177,218.6z" />
	<path fill="#4A3F35" d="M107.4,183.3c-0.9-0.1-0.7-0.7-0.7-1.3C107.4,182.3,107.4,182.8,107.4,183.3z" />
	<path fill="#554B41" d="M177.8,194.4c-0.2-0.2-0.4-0.4-0.7-0.6C177.3,194,177.5,194.2,177.8,194.4z" />
	<path fill="#D7EAEC" d="M218.4,243.4c15-0.4,31,0.4,45.5-2.8c4.8,3.4,7.3,9.4,10.5,14.1c4.7,1.4,9.3,3,14.3,2.4   c0.9,1.3,2,0.5,3.6,0.7c-2.4-2.4-5.3-1.2-8.6-2.6c26.6-8.5,54.7-16.7,82.8-17.4c0.5,0.8,1.3,0.6,2.1,0.7l0,0   c9,16.3,8.4,35.7,6.9,53.7c-20.1,2.3-39.9-4.5-60.3-4c-19.2-0.7-36.4-9.4-55-13c-1,2.1,2.9,2.7,2.6,5.2c-0.8,0.1-1.8,0.1-2.6,0   c-0.9-2-0.9-2-3.1-4c-14-0.1-24.7-20.8-37.2-27.8C220,246.9,219.4,245.1,218.4,243.4z M290.8,278.5L290.8,278.5   c2.1,2.1,4.9,1.8,7.6,2.1c6.2,1.7,13.2,1.2,19.8,1.3c-4.3-3.9-11.6-3.3-17.1-4.9c-6-1.1-11.3-3.9-17.4-1.7   C285.4,278,288.1,278.6,290.8,278.5z M238.4,251c3.7,4,8.5,8.4,14.1,9.7c0.1-0.1,0.1-0.3,0.2-0.4c-0.6-0.6-1.3-1.2-1.9-1.7   c0.6-0.6,1.3-1.2,1.9-1.9c0.7-5.4-14.9-10.2-19-11.5C235,247.4,237.7,248.7,238.4,251z M296.5,258.1c0.1,1.8,1.2,1.1,2.4,0   C297.6,258.1,297.1,258.1,296.5,258.1z M315.6,283.5c-0.6-0.8-0.9-0.9-1.7-0.6C314.4,283.7,314.5,284.2,315.6,283.5z M304.4,258   c-0.7,0.3-1.2,0.5-1.6,0.8c0,0.1,0.1,0.2,0.1,0.4c0.7,0,1.4,0,2.2,0C304.8,258.8,304.7,258.5,304.4,258z" />
	<path fill="#8AA6A8" d="M368.6,238.6c-0.8,0-1.6,0.1-2.1-0.7C367.3,238,368.2,237.6,368.6,238.6z" />
	<path fill="#E0E2E0" d="M740.4,215.1c-0.1,0.8-0.4,1.5-1.6,1.5c0.6,0.5,0.9,0.8,1.3,1.1c-0.6,1-1.5,0.7-2.3,0.7   c-1.2-2.3-1-5.2-1.6-7.8C738.4,212,738.5,212.1,740.4,215.1z" />
	<path fill="#F5F8F8" d="M37.7,319.1c-1.3-0.7-3.1-0.2-3.3-2.2C36.3,315.7,37.9,316.8,37.7,319.1z" />
	<path fill="#EBECEB" d="M758.1,197.1c2.5,2.7-1.9,6.6-4.8,6.9c-1.1-2.4-0.2-4.4,1.4-6.1c1.2,0.4,0.6,1.7,0.7,2.7   c2.2-0.5,1.5-2.1,1.6-3.4C757.5,197.1,757.8,197.1,758.1,197.1z" />
	<path fill="#514C43" d="M758.1,197.1c-0.3,0-0.7,0.1-1.1,0.1c-0.1,1.3,0.6,2.9-1.6,3.4c-0.1-1,0.5-2.3-0.7-2.7   C755.7,197.3,757.2,195.6,758.1,197.1z" />
	<path fill="#E2CBBF" d="M89.4,186.7c-2-0.8-4.3-1.6-4.8-4c0.1-0.2,0.1-0.3,0.1-0.5c0.4-0.6,0.8-1.1,1.4-1.5c0.2,0,0.4,0,0.6-0.1   c0.2,0.5,0.4,1,0.6,1.5l0,0C87.1,184.2,89.6,184.8,89.4,186.7z" />
	<path fill="#3B3331" d="M97.1,178.6c-2.1,0-4.1,0-6.2,0C91.7,177.7,96.2,177.8,97.1,178.6z" />
	<path fill="#FBDFD3" d="M90.9,182c-0.6-0.1-1.2-0.1-1.8-0.2C88.7,180,91.1,180.7,90.9,182C90.9,182.1,90.9,182,90.9,182z" />
	<path fill="#FBDFD3" d="M90.9,182.1c0.1,0.1,0.2,0.2,0.3,0.4C90.9,182.4,90.9,182.2,90.9,182.1L90.9,182.1z" />
	<path fill="#324831" d="M636.1,169c0,1.4,0,2.8,0,4.1C635.1,171.7,635.1,170.3,636.1,169z" />
	<path fill="#324831" d="M635.5,174.5c-0.5,0-0.9,0-1.4,0C634.5,173.6,635,173.6,635.5,174.5z" />
	<path fill="#8DA8A9" d="M636.4,235.1c1.5,6.9,11,12.8,15,5.2c2.1-0.4,4-0.8,5.9-1.2c0.5-1.5,0.8-1.6-0.7-2.5   c2.1-0.3,4.4,0.4,6.4-0.8c0.3,0.7,0.9,0.6,1.4,0.7c-2.4,1.5-4.1,1.3-6,3.9c-1.7,0.4-3.6,0.8-5.7,1.2c-6.7,8.5-11.1,4.5-17.7-1.6   c0.8-0.6,0-2.5-0.8-3.4c-1.9-0.1-3.9-0.1-5.8-0.2C630.9,235,634.5,237.2,636.4,235.1z" />
	<path fill="#E1DCD8" d="M663,235.9c-1.3,0.8-2.7,0.6-4,0.6c-1.3-1.5-3.4-1.4-4.9-2.8c3.3-0.5,7.5,0,10.3-2.1   c1.4,0.1,1.4,0.1,1.4-1.3c0.4,0.4,0.7,0.8,1.3,1.4c1.5,0,3.2,0,4.9,0c0,0.5,0,0.9,0,1.4l0,0c-0.2,0.2-0.5,0.5-0.7,0.7l0,0   c-1.4,0.2-2.5-0.4-3.5-1.4C665.5,231.8,664.4,234.4,663,235.9z" />
	<path fill="#DFD9D5" d="M672,233.1c0-0.5,0-0.9,0-1.4c0.2,0,0.4,0,0.6,0C672.7,232.3,672.6,232.8,672,233.1z" />
	<path fill="#DFD9D5" d="M669.9,233.8c0.5,0,1,0,1.4,0C670.8,234.6,670.4,234.4,669.9,233.8z" />
	<path fill="#DFD9D5" d="M667.9,232.4c0.2,0.2,0.5,0.4,0.7,0.6C668.3,232.8,668.1,232.6,667.9,232.4z" />
	<path fill="#DFD9D5" d="M668.6,233c0.2,0.2,0.4,0.3,0.6,0.5C669,233.4,668.8,233.2,668.6,233z" />
	<path fill="#DFD9D5" d="M671.3,233.8c0.2-0.2,0.5-0.5,0.7-0.7C671.8,233.3,671.6,233.6,671.3,233.8z" />
	<path fill="#56483F" d="M323,233.2c0.6-0.1,1.2-0.2,1.5,0.4C324,233.4,323.5,233.3,323,233.2z" />
	<path fill="#C0E3E7" d="M862.8,250.3c1.1-0.9,1.9-0.9,2.9-0.4c0,0.4,0.1,0.9,0.2,1.6C864.6,251.6,863.9,251.1,862.8,250.3z" />
	<path fill="#6E7B79" d="M700.9,231c-0.3-0.2-0.5-0.4-0.8-0.6C700.4,230.6,700.7,230.8,700.9,231z" />
	<path fill="#3E382E" d="M87.3,182.2c-0.2-0.5-0.4-1-0.6-1.5c0.2,0,0.4-0.1,0.7-0.1C87.4,181.1,87.3,181.6,87.3,182.2z" />
	<path fill="#3D372D" d="M85.4,181.4c-0.2,0.3-0.4,0.6-0.6,0.8C84.9,181.9,85.1,181.7,85.4,181.4z" />
	<path fill="#3D372D" d="M86.1,180.7c-0.3,0.2-0.5,0.4-0.8,0.6C85.6,181.2,85.9,180.9,86.1,180.7z" />
	<path fill="#96BDE6" d="M456.2,255.8c2.7,10.6-1.6,21.5-1.6,32.2c-7.9-0.1-15.2,1.5-22.8,3.5c12.8-11.3,10.4-22.7,19.6-35   c-1.2,5-4.1,9.2-5.3,14.2c3.6,0.9,6.7-0.4,10.1-0.7C456.2,265.2,456.2,260.5,456.2,255.8z" />
	<path fill="#9BC3F3" d="M456.2,255.8c0,4.7,0,9.4-0.1,14.2c-3.4,0.3-6.6,1.6-10.1,0.7c2.7-6.8,4.3-14.7,10.2-19.4   C456.2,252.9,456.2,254.3,456.2,255.8z" />
	<path fill="#C6DADB" d="M419.7,295.7c-6.9,3.9-14.6,2-22,3.5c-0.9-0.4-1.8-0.8-2.8-1.2c0.4-1,1.1-1.6,1.9-2.2   c9.3,3.5,21.7-0.6,29.8-5.5c0.7-0.1,1.7-0.3,2,0.6c-0.2,0.1-0.4,0.1-0.6,0.1C425.8,293.8,422.5,293.9,419.7,295.7z" />
	<path fill="#DED8D1" d="M463.9,238.6c-1.9,0-3.8,0-6.1,0c1.9-3,4.4-5,6.7-7.6c2,0.5,4.6-1.8,6.2-0.1   C468.1,233.4,467.1,237,463.9,238.6z" />
	<path fill="#76817D" d="M465.2,237.9c2.8-2.6,3.9-6.5,7.5-8.3c0.3,0.8,1,0.7,1.6,0.9c-1.6,1.8-4.2,3-5,5.3c-1,0.7-1.8,1.5-2.1,2.7   C466.4,238.5,465.5,238.8,465.2,237.9z" />
	<path fill="#BAD0D1" d="M428.6,290.9c-0.2-0.7-0.8-0.6-1.3-0.6c1.7-1,3.5-1.9,4.8-3.4c0.2,0,0.5,0,0.7,0   C432.7,289.1,430.2,289.8,428.6,290.9z" />
	<path fill="#BAD0D1" d="M427.3,291.7c0.2-0.2,0.5-0.4,0.7-0.7C427.8,291.2,427.5,291.4,427.3,291.7z" />
	<path fill="#9BC3F3" d="M370.1,238.6c0.7,0,1.3,0,2,0c3,5.6,5.6,10.6,8.1,16.7c-0.3-6-4-11.8-7.4-16.7c0.5,0,0.9,0,1.4,0   c0.9,0.9,1.8,1.9,2.7,2.8c0.3,1.7,1.1,3.4,2.5,4.4c-0.2-0.1-0.3-0.2-0.5-0.3c0.1-1.7-0.5-3.2-2.1-4.1c-0.5-1.1-0.9-2.3-1.4-3.4   c1.8,0,3.6,0,5.5,0c1,0.7,1.8,1.7,3.3,2.1c-0.2-0.7-0.4-1-0.5-1.4c17.5-1.2,37.7-1.3,55.2,0c-1.5,4.3-5.1,7.2-6.6,11.3   c-2.5,1.7-5.4,4-7.5,5.7c-5.2-0.7-9.5-0.5-14.5,0.4c5.1,1,9.6,0,14.9,0.8c-2.3,4.5-1.2,9.2-1.6,13.8c-7.6,9.8-5.3,6.9-16.4,8.6   c-9.8,2.5-18.4,8.8-28.9,9C378.6,271.4,377.8,253.7,370.1,238.6z" />
	<path fill="#96BDE6" d="M378.3,288.2c10.5-0.2,19.1-6.4,28.9-9c-1.7,1.9-7.1,4.8-4.8,7.6c-0.5,1.1-0.8,2.6-0.4,3.7   c-2.7,3.5-12.9,5.1-6.4,10.1c-0.3,0.6-0.7,1.2-1.1,1.9c-5.2-0.6-10.4,0.6-15.9,0.1C377.9,297.7,378.5,293.1,378.3,288.2z" />
	<path fill="#8CA7AA" d="M395.6,300.6c-6.5-5,3.7-6.6,6.4-10.1c-0.1-0.4-0.2-1-0.3-1.6c0.8,0.3,1.5,1.1,2.5,0.5   c-0.3-0.5-0.6-1-0.9-1.6c1.2-0.4,2.3,0.1,3.3,0.3c1.1-0.3,2.2-1.1,3.1-0.8c2.8,0.5,4.9-1.8,7.1-2.9c-0.1-0.6-0.1-1-0.2-1.6   c1.4,0.6,2.6,1.2,3.5-0.3c-0.1-0.5-0.2-0.9-0.4-1.6c0.8,0.5,1.4,0.8,1.9,1.1c1.6-0.2,2.8-2,4.9-0.9c-7.4,4.2-14.6,11-23.6,10.7   c-1.3,1-2.4,1.8-3.1,3.1c3.2,2,11-1,15.5-0.6c4.4-4.2,11.2-5.1,16.7-7.4c-9.1,7-23.7,12.9-35.3,9c-0.8,0.6-1.5,1.2-1.9,2.2   c1.1,0.5,1.9,0.8,2.8,1.2C396.5,298.9,396.4,300.3,395.6,300.6z" />
	<path fill="#BAD3D5" d="M405.2,301.3c-2.9-0.5-5.7,0.9-8.5,0.9c-0.4-1.3,0.8-1.4,1.1-2.1c3.3,0,6.5,0,9.8,0   C407.1,301.1,405.5,300.1,405.2,301.3L405.2,301.3z" />
	<path fill="#D4E8EA" d="M277.3,253.6c-1.1-0.9-1.9-1.7-1.9-3.3c9.2-0.1,18-4.5,27.3-3.1C294,248.8,286.1,253.4,277.3,253.6z" />
	<path fill="#AEC4C6" d="M288.7,256.5c1.7,0.1,2.4-0.3,3.7,1.4c-1.6-0.2-2.8,0.6-3.6-0.7C288.7,257,288.7,256.8,288.7,256.5z" />
	<path fill="#99B6BA" d="M111.5,277c-1.3,0-2.2,0-3.1,0c0-2,3-3,4.3-4.6C114.9,274.2,112.7,275.7,111.5,277z" />
	<path fill="#BBD6DA" d="M92.9,291.7c-0.1,0.3-0.1,0.7-0.2,1c-1.9,1.3-3.7-0.9-5.3-1.7c-0.5-1.4-1.4-2.5-2.8-3.4   C87.9,284.5,86.7,292.7,92.9,291.7z" />
	<path fill="#B0CBCE" d="M177.4,261.2c-2.2,1.7-4.4,3.3-7,5.2c1.7-2.8,3.5-5.1,6.9-5.8C177.3,260.8,177.3,261,177.4,261.2z" />
	<path fill="#ADCDD1" d="M120,272.9c-2,0-3.3,0-4.8,0c0-1.8,1.6-1.3,2.3-2.2C118.3,271.4,118.9,272,120,272.9z" />
	<path fill="#A8C6C9" d="M99.9,257.2c0.5,1.2,0.5,1.2-1.2,1.9C98.4,258,99,257.5,99.9,257.2z" />
	<path fill="#ACC9CD" d="M124.2,273.6c-0.8,0-1.6,0-3,0C122.5,272.8,123.3,273,124.2,273.6z" />
	<path fill="#A1BFC3" d="M64.9,281.5c0.2,1.2-0.2,1.8-1.5,1.6C64,282.5,64.5,282,64.9,281.5z" />
	<path fill="#A3B9BB" d="M274.2,288.3c-0.5-0.2-0.9-0.5-1.4-0.7c0.1-0.4,0.2-0.8,0.4-1.6c0.9,0.7,1.6,1.1,2.6,1.9   C275,288,274.6,288.2,274.2,288.3z" />
	<path fill="#95ADAF" d="M263.2,282c-1.3,0-2.5,0.3-3.7-0.2C261.7,281,261.7,281,263.2,282z" />
	<path fill="#91ACAE" d="M223.9,278.6c3.8,0.3,6.3-3.7,9.9-3.3c-1.3,5.4-8.5,5.4-13.2,5.3C221.9,279.8,222.9,279.2,223.9,278.6   L223.9,278.6z" />
	<path fill="#A0BEC2" d="M115.9,288.3c3.2-0.2,6.2-0.4,9.2,0.1C124.9,290.3,116.6,290.2,115.9,288.3z" />
	<path fill="#E6E5E2" d="M467.1,238.5c0.9-3.3,4.8-3.1,6.7-5.5c3.2-4.2,8.7-4,13.5-4c21.5,2.1,44.8,0.9,66.2,5.4   c-0.9,1.5-0.7,3.2-0.7,4.8C524.3,240.8,495.4,240.3,467.1,238.5z" />
	<path fill="#D2E2E2" d="M583.8,273.1c-0.1-0.3-0.1-0.7-0.2-1c-8.2-1.6-16.1-4-22.4-10.1c-0.5,0.4-1,0.8-1.5,1.3   c-0.2-0.2-0.5-0.4-0.7-0.6c1.5-0.5-0.6-3.1-1.4-2.1c-0.6-0.9-0.5-1.4,0-2.5c-0.9-0.2-1.5-0.3-2.2-0.4c-0.7-0.7-1.2-1.5-1.2-2.7   c1.6-1.9-0.2-4.8,1.3-6.9c0.1,3-0.4,5.9,1,8.9c0.8-0.6,1.5-1.2,2.4-1.9c5.5-0.4,11.4,3.9,15.9,5.9c10.6,2.2,20.6,1.6,31.1,0.4   c-0.4,2.3-4.1,3.6-3.5,5.5c-3.9,2.8-8.2,4.6-13.4,4.9c-0.2,0.2-0.6,0.7-1,1.2c0-1-0.3-1.8-1.6-2   C585.5,271.7,584.7,272.4,583.8,273.1z M592.7,268.9c-5.1,0.2-10.3-0.5-15.3,0.5c7.3-0.5,15.5,2.6,21.7-2.5   C596.6,267.7,594.3,267.6,592.7,268.9z" />
	<path fill="#D2E2E3" d="M656.2,270.4c-0.2-0.4-0.4-0.8-0.7-1.4c0.4-0.8,0.9-1.7,1.3-2.5c8.6-1.3,17.1,3,25.7,3.1   c8.8,1.2,17.4-2.4,25.9-0.4c-8.6,11.5-24.7,9.2-37.1,6.6c0.3-0.9,1.8-0.3,2-1.3C668.1,272.5,661.8,268.8,656.2,270.4z M678.8,273.9   c1.5,2.3,1.8,2.3,4.7,0.8C682.2,273.1,680.7,273.8,678.8,273.9z" />
	<path fill="#E6E5E1" d="M556.9,235.1c18,0,36-1.8,54-0.1c0.1-0.4,0.3-0.9,0.5-1.3c0.2,0.5,0.4,1,0.7,1.5c-0.1,0.5-0.1,0.9-0.2,1.4   c-18.2,1.4-37,2.8-55.6,2.8c-0.1-0.2-0.1-0.5-0.2-0.7C556.4,237.4,555.9,236.1,556.9,235.1z" />
	<path fill="#8FA9AB" d="M558.2,282.7c0.2,0.5,0.5,1,0.7,1.5c-10.3,4.5-19.4-1.9-27.3-8.8C539.8,279.3,548.3,284.4,558.2,282.7z" />
	<path fill="#8EAAAC" d="M656.2,270.4c5.6-1.6,11.9,2.2,17.1,4c-0.2,1-1.7,0.4-2,1.3c-3.8,0.8-6.8-1.6-10.2-2.8   c-1.2-1.4-3.4,0-4.8-1.4C656.2,271.2,656.2,270.8,656.2,270.4z" />
	<path fill="#8AA6A8" d="M556.1,238.5c-0.9,5.3-0.3,11.5-2,16.5c-0.9-5.3-3.1-10.4-1.7-15.8C553.7,239.3,555,239.5,556.1,238.5z" />
	<path fill="#94AFB1" d="M561.3,242.9c0.4-0.1,0.8-0.1,1.2-0.2c1.8,2.2,2.3,5,3.5,7.9c-1.3-0.2-2.4-0.3-3.4-0.4   c-0.5-0.6-1-1.1-1.5-1.7C560.9,246.7,560.8,244.8,561.3,242.9z" />
	<path fill="#91AAAD" d="M602.4,266.9c0.7-3.3,5.3-6.9,8-9.6C613.8,260.1,604.6,265.3,602.4,266.9z" />
	<path fill="#3A2F24" d="M636.4,235.1c-1.3,1.8-4.1,0.4-6,0.8c-1.7,0.1-3.9,1.6-5.4,0.5c0.7-0.9,1.5-1.8,2.2-2.7   c2,0.2,4,0.3,6.2,0.5c0.4-1,0.9-2.1,1.3-3.2c0,0,0-0.1,0-0.1c0.1,0.7-0.1,1.6,0.9,1.9C635.8,233.7,636.1,234.4,636.4,235.1z" />
	<path fill="#97AEB0" d="M627.5,241c-3.3,1.8-6.6,3.3-9.2,5.9C616.2,243.9,624.8,240.4,627.5,241z" />
	<path fill="#98B0B3" d="M726.4,268.4c-2.1,1.5-3.9,2.9-6.7,2.5C720.6,268.9,725,266.3,726.4,268.4z" />
	<path fill="#96ADB0" d="M519.2,246.5c1.1,4-1.4,6.1-2.9,8.5C516.5,252.7,517.8,249,519.2,246.5z" />
	<path fill="#95AEB0" d="M583.8,273.1c0.9-0.7,1.7-1.4,2.5-2c1.3,0.2,1.7,0.9,1.6,2c-1.1,0.9-2.2,1.8-3.4,2.8   C583.3,275.1,583.9,274,583.8,273.1z" />
	<path fill="#ABBFC0" d="M531.4,249.7c-0.5,2-2,2.7-3.1,3.8c0.4,2.2,0.4,2.2-1.6,2.9c0.3-1.3,0.5-2.4,0.8-3.8   C528.8,251.6,529.5,249.7,531.4,249.7z" />
	<path fill="#91ABAD" d="M531.1,247.8c-1.1-2.4,2.2-5.8,4.6-4.7C534.5,245.1,533,246.4,531.1,247.8z" />
	<path fill="#A1B7B9" d="M611.2,250c2-1.4,1.4-3.2,1.6-5c0.8,0.7,1.3,1.2,1.9,1.7c-0.1,2-0.1,2-2.2,4   C612.2,250.6,611.9,250.4,611.2,250z" />
	<path fill="#677A78" d="M611.8,236.5c0.1-0.5,0.1-0.9,0.2-1.4c0.4,0,0.9,0,1.3,0c0.1-0.1,0.2-0.1,0.4,0c-0.2,1.7-0.4,3.4-0.6,5.5   C612.6,239,612.2,237.8,611.8,236.5z" />
	<path fill="#B3C9CB" d="M673.3,250.3c1.7,1.2-0.7,2.2-1.9,2.6C671.5,251.3,672.6,250.9,673.3,250.3z" />
	<path fill="#B0C7C9" d="M563.8,285.4c-1.2,0.3-3.6,1.5-3.4-0.7C561.6,284.8,562.8,284.5,563.8,285.4z" />
	<path fill="#AFC6C8" d="M662.9,258c1.1-1.5,1.7-2.5,3.6-3C665.5,256.5,664.8,257.5,662.9,258z" />
	<path fill="#B2C8CB" d="M670.1,254.1c-1.1,0.6-1.8,1.1-2.6,1.5C667.2,254.1,668.3,254.3,670.1,254.1z" />
	<path fill="#9BB6B8" d="M570,285.4c0.3,1.8-2.3,1.7-2.1,0C568.6,285.4,569.3,285.4,570,285.4z" />
	<path fill="#ACC3C5" d="M789.2,283.4c0.1,0.4,0.3,0.8,0.4,1.2c-1,0.6-1.6-0.2-2.4-0.5C787.6,283.1,788.4,283.4,789.2,283.4z" />
	<path fill="#ADC4C6" d="M733.8,267.1c-0.5,1-1.2,1.3-2.3,0.8C732,266.9,732.7,266.6,733.8,267.1z" />
	<path fill="#B2CCCF" d="M832.4,294c-0.2,0.2-0.4,0.5-0.6,0.7c-1,0-1-0.7-1.2-1.2C831.6,292.8,832,293.4,832.4,294z" />
	<path fill="#9FB8BA" d="M738.6,265.8c-0.5,1.1-1.2,1.3-2.2,0.7C736.9,265.6,737.6,265.2,738.6,265.8z" />
	<path fill="#ABC1C2" d="M557.5,260.6c0.8-1,2.9,1.6,1.4,2.1C558.5,262,558,261.3,557.5,260.6z" />
	<path fill="#A1B4B6" d="M478.9,262.7c-0.1,0.4-0.3,0.8-0.4,1.2c-0.3-0.2-0.7-0.4-1-0.6C477.8,262.7,478.3,262.7,478.9,262.7z" />
	<path fill="#D2E3E3" d="M658.9,272.4c0.8,0,1.6-0.3,2.1,0.6C660.3,273,659.4,273.4,658.9,272.4z" />
	<path fill="#A0B6B8" d="M510.5,288.6c-1.1-0.4-2.2-0.5-2.5-1.9C510,287.2,510,287.2,510.5,288.6z" />
	<path fill="#9BB4B6" d="M484.8,282.7c1.3,0.1,1.7,0.1,2.3,0.1c0,0.6,0.1,1.1,0.1,2.1C486.4,284.1,485.9,283.7,484.8,282.7z" />
	<path fill="#A9BFC0" d="M525.8,272.5c1.2,0,1.7-0.4,1.9,0.8C526.7,273.8,526.7,273.3,525.8,272.5z" />
	<path fill="#A8BCBE" d="M521.2,270.2c-0.6,0-1.2,0-1.8,0c0-0.1,0-0.2,0-0.4c0.6-0.1,1.2-0.1,1.9-0.2   C521.2,269.8,521.2,270,521.2,270.2z" />
	<path fill="#9AAEAF" d="M512,270.2c-0.1-0.1-0.2-0.3-0.2-0.4c0.3,0,0.6-0.2,0.8,0.1C512.3,270,512.1,270.1,512,270.2z" />
	<path fill="#A8BDBE" d="M800.3,286.6c0.9-1.6,1.6-1.5,3.1,0C802.3,286.6,801.4,286.6,800.3,286.6z" />
	<path fill="#AEC2C4" d="M795.6,286.1c-0.9-0.4-2-0.3-2.1-1.5c0.7-0.7,1.6,0.4,2.5,0.5C795.8,285.5,795.7,285.8,795.6,286.1z" />
	<path fill="#EECABA" d="M472.6,229.6c-0.7,0.4-1.3,0.9-2,1.3c-1.2-1.5-3.2,0-4.8,0.1c9.9-9.5,19.4-19.2,25.5-31.6   c2.7,0.1,3.2-6.1,0.8-6.8c-0.4-0.7-0.8-1.3-1.4-2.2c0.7-0.7,1.4-1.4,2-1.9c7,0.7,15.8,3,18.7,9.7c9.8,4.4,20.2,8.6,30.7,10.7   c6.7,1.1,13.4-2.6,19.7,0.5c3.4,5.7-3.7,7.3-8,8c0.5,0.4,1,0.8,1.5,1.2c-0.9,0-1.8-0.1-2.8-0.1c-1.4-1-4.7-1-6.2,0   c-16.3-0.3-31.2-9.9-43.9-19.4c-1.1-0.8-2.4-0.7-3.7-0.5c-0.7-0.6-2.6-0.6-1.6,0.7C490.8,210.8,483.4,221.8,472.6,229.6z" />
	<path fill="#2A271C" d="M502.6,199.2c15,11.7,33.4,21.5,52.8,19.4c0.5,1,1.4,1.3,2.5,1.5c1.7,4.3-0.9,9.1-1.2,13.5   c-1,1.1-2.4,0.6-3.6,0.7c0.8-4.2,1.6-8.5,2.3-12.7c-1.4-0.6-2.5-1-3.8-1.6c-9.6,2.7-18.6,0-27.3-3.9c-6.7,3.7-13.2,7.6-20.6,9.8   c0.1-0.4,0.3-0.8,0.4-1.1c-0.7-1-1.6-0.8-2.5-0.9c6.2-3.6,13-5.9,19.5-9.2c-7.4-5-15.2-8.7-21.6-15   C500.4,198.8,501.7,199.5,502.6,199.2z" />
	<path fill="#EDC9B9" d="M634.7,231.2c-0.4,1.1-0.9,2.2-1.3,3.2c-2.2-0.2-4.2-0.4-6.2-0.5c-0.2-12.5-0.4-25.9,6.3-36.8   c0.4,0.3,0.9,0.7,1.3,1c-2,4.4-2.4,7.6-2.7,12.7c2.7-1.4,1-4.5,3.3-6c0.4,6.8-1.5,13.3-1.3,20.2c-1.7-0.4-1.4,1.3,0,1.4   C634,227.9,635.1,229.4,634.7,231.2z M632.9,215.1c0.6-1.3,0.7-2.1-0.1-3.4C632.5,213.5,632.5,213.5,632.9,215.1z" />
	<path fill="#373328" d="M613.4,235.1c-0.4,0-0.9,0-1.3,0c-1-9-5.2-18-6-26.7C610.4,216.2,613.3,226,613.4,235.1z" />
	<path fill="#373025" d="M542.3,169.2c-2.2,2.7-6.3,3.1-9.7,5.1C534,170.5,538.8,165.8,542.3,169.2z" />
	<path fill="#3F3529" d="M476.4,172c1.6-4,6.1-4.7,10.2-5c-0.6,1.2-0.9,1.6-1.9,2C481.8,169.4,479,171.7,476.4,172z" />
	<path fill="#3C3328" d="M561,176.5c2.3-1.9,8.8-6,10.5-2.2c-3.9,0.1-6.9,2.3-10.4,3.2C561,177.1,561,176.8,561,176.5z" />
	<path fill="#657571" d="M553.4,234.4c1.2,0,2.4,0.3,3.3-0.7c0,0.5,0.1,0.9,0.1,1.4c-1.5,2.6,0.4,4.7-4.2,4.1   C552.7,237.6,552.5,235.9,553.4,234.4z" />
	<path fill="#343024" d="M492.2,192.6c2.4,0.6,1.9,6.9-0.8,6.8C489.3,197.4,491.4,194.7,492.2,192.6z" />
	<path fill="#675D52" d="M590,191.7c0.8,0.9,1.7,1.9,1.1,3.4c-1.4-0.4-1.5-1.6-2-2.6C589.4,192.2,589.7,191.9,590,191.7z" />
	<path fill="#AA978C" d="M560.1,179.6c-0.5,1.2-1.7,1.2-2.7,1.8C556.9,179.9,559.2,179,560.1,179.6z" />
	<path fill="#AD968B" d="M553.3,183.8c0.9-0.7,1.6-1.2,2.2-1.8c0.2,0.4,0.3,0.5,0.6,0.9C555.4,183.5,554.8,184.2,553.3,183.8z" />
	<path fill="#AC9A8E" d="M526.7,179.1c0-1.3,0.6-1.7,1.4-1.7C528.3,178.4,528.3,178.4,526.7,179.1z" />
	<path fill="#A1897E" d="M470.1,177.4c0.1-1,0.7-1.1,1.6-1.6C472.3,177.3,471,177.3,470.1,177.4z" />
	<path fill="#9B8579" d="M530.1,176.4c0.6-1.1,1.3-1.4,2.4-1C532,176.4,531.3,176.7,530.1,176.4z" />
	<path fill="#AB988D" d="M524.5,180.3c-0.9,0.4-1.5,0.7-2.5,1.2C522.8,180,522.8,180,524.5,180.3z" />
	<path fill="#A38B80" d="M590,191.7c-0.3,0.3-0.6,0.6-0.9,0.9c-0.6-0.5-1.4-0.9-0.9-2.1C588.8,190.9,589.4,191.3,590,191.7z" />
	<path fill="#AD978B" d="M584.1,189.6c-0.1-0.3-0.2-0.5-0.3-0.8c0.3-0.1,0.5-0.2,0.8-0.3C584.8,189.1,585,189.4,584.1,189.6z" />
	<path fill="#9C867B" d="M579.7,187.6c-0.9,0.9-1.8,0.4-0.9-0.6C579,187.1,579.2,187.3,579.7,187.6z" />
	<path fill="#948277" d="M551.8,185.5c-0.4,1-0.6,1.2-1.5,1.4C550.1,185.7,550.8,185.6,551.8,185.5z" />
	<path fill="#79665B" d="M561,176.5c0,0.3,0,0.6,0,0.9c-0.3,0.2-0.6,0.4-1.1,0.6C559.8,177,560.4,176.7,561,176.5z" />
	<path fill="#755D51" d="M493,184.2c0.3,0.5,0.7,0.8,0,1.1c-0.2-0.2-0.4-0.5-0.6-0.7C492.6,184.5,492.8,184.4,493,184.2z" />
	<path fill="#A1897E" d="M472.9,174.2c0.2-0.6,0-1.2,0.8-0.9c-0.1,0.3-0.2,0.7-0.4,1C473.2,174.3,473,174.3,472.9,174.2z" />
	<path fill="#355439" d="M670.7,151.4c0.4,0,0.6-0.1,1-0.1c0.5,1.4,0.5,2.7,0,4.6C671.3,153.9,670.5,153,670.7,151.4z" />
	<path fill="#3F8055" d="M651.3,157.8c-0.5,0.7-1,1.3-1.6,2.2C649.1,158.6,649.4,158.3,651.3,157.8z" />
	<path fill="#428C5D" d="M657.6,154.6c0-1.2,0-1.8,0-2.5C659,152.9,659,152.9,657.6,154.6z" />
	<path fill="#D8E9EA" d="M656.7,236.6c1.5,0.9,1.2,1,0.7,2.5c-1.9,0.4-3.8,0.7-5.9,1.2c-3.2,7-13.6,2.6-14.4-4.5   c2.6-0.2,5.2,0.4,7.7-0.7c2.7,0.3,5.3-0.7,8-0.7C654,235.3,654.9,236.8,656.7,236.6z" />
	<path fill="#473E33" d="M665.9,230.3c-0.1,1.4-0.1,1.4-1.4,1.3c-0.7-0.7-1.5-1.3-2.2-2c-0.1-1.7,1-2.5,2.1-3.5   c0.5,0.3,0.8,0.6,1.2,0.9c-0.4,0.7-0.7,1.2-1.1,2C664.9,229.4,665.4,229.9,665.9,230.3z" />
	<path fill="#7D807B" d="M656.7,236.6c-1.8,0.1-2.7-1.4-4-2.2c0.1-0.4,0.1-0.8,0.2-1.2c2,1.3,4.3,1.7,6.1,3.3   C658.2,236.5,657.5,236.6,656.7,236.6z" />
	<path fill="#6B574C" d="M652.2,230.4c0.2,0.4,0.4,0.7,0.6,1.1c-0.6,0.3-1.2,0.7-1.8,1c-0.2-0.4-0.3-0.7-0.6-1.2   C651.1,231,651.6,230.7,652.2,230.4z" />
	<path fill="#927D6F" d="M634.1,226.2c-1.4-0.1-1.7-1.7,0-1.4C634.1,225.3,634.1,225.7,634.1,226.2z" />
	<path fill="#EDC9B9" d="M635.5,233c-1-0.3-0.7-1.2-0.9-1.9C635.8,231.3,635.4,232.3,635.5,233z" />
	<path fill="#2D5032" d="M685.5,163.6c0.7-0.8,1.2-1.4,2-2.3C687.9,163,687.3,163.3,685.5,163.6z" />
	<path fill="#D7EAEC" d="M429.3,287.5c-4.3,3.1-10.5,2.5-14,6.8c-4.4-0.5-12.3,2.6-15.5,0.6c0.6-1.3,1.8-2.2,3.1-3.1   c8.9,0.3,16.2-6.5,23.6-10.7c-2.1-1.1-3.3,0.7-4.9,0.9c-0.5-0.3-1.1-0.6-1.9-1.1c0.2,0.7,0.3,1.1,0.4,1.6c-0.9,1.5-2,0.9-3.5,0.3   c0.1,0.5,0.1,0.9,0.2,1.6c-2.2,1.1-4.3,3.5-7.1,2.9c-0.8-0.3-1.9,0.5-3.1,0.8c-0.6-0.2-1.4-0.4-2.1-0.6c-0.2-0.5-0.5-0.9-0.7-1.4   c6.1-8.7,14.1-2.3,19.9-12.9c0.4,2.9-0.8,4.8,1.4,6.9c1-9.2-2.4-22,6.7-27.5c3.2,1.2,3.2,1.2,4.4,0.5c-0.7-0.4-1.3-0.8-1.9-1.1   c3.7-4,4.8-9.4,7.3-14c1.9-0.1,2.5,0.5,2.2,2.5c1.3-0.2,1.3-0.9,1.3-1.8c3.8,0,7.5,0,11.7,0c-7.3,7-11.2,15.7-14.1,25.3   C438.4,271.7,433.1,279.2,429.3,287.5z M437.7,249.4c1.7-1.5,2.1-2.2,2.3-3.9C438.9,246.7,437.4,247.4,437.7,249.4z M426.9,279.5   c1.1,1.3,1.1,1.3,2.8,1.4C429.2,279.3,429.2,279.3,426.9,279.5z" />
	<path fill="#AEC3C4" d="M445.2,238.6c0,0.8-0.1,1.6-1.3,1.8c0-0.6,0-1.2,0-1.7C444.3,238.6,444.7,238.6,445.2,238.6z" />
	<path fill="#AEB1AE" d="M445.6,236.3c-0.6-1,0.3-1.2,0.5-1.9C446.9,235.6,446,235.8,445.6,236.3z" />
	<path fill="#8BA7AB" d="M441,238.6c-1.7,4.7-3.5,9.4-6.7,13.3c0.6,0.4,1.2,0.7,1.9,1.1c-1.2,0.7-1.2,0.7-4.4-0.5   c-9,5.6-5.7,18.3-6.7,27.5c-2.3-2.1-1.1-4-1.4-6.9c-7.3,11.3-12.2,3.6-21.3,13.7c-2.2-2.3,2.4-5.5,4.1-6.9c1.9-1.9,5-1.3,7.4-1.4   c4.9,0.6,6.5-5.2,9.7-8c0.4-4.6-0.7-9.3,1.6-13.8c-5.2-0.8-9.8,0.2-14.9-0.8c5-0.9,9.2-1.1,14.5-0.4c2.1-1.8,5-4.1,7.5-5.7   c1.5-4.2,5.1-7.1,6.6-11.3C439.7,238.5,440.3,238.6,441,238.6z" />
	<path fill="#8FAFC6" d="M372.8,238.6c3.4,4.9,7.1,10.7,7.4,16.7c-2.5-6.1-5-11.1-8.1-16.7C372.3,238.6,372.6,238.6,372.8,238.6z" />
	<path fill="#8AA9C5" d="M375.6,237.9c0.5,1.1,0.9,2.3,1.4,3.4l0,0c-1.6-1.5-3.2-3-3.9-5.2C374.4,235.5,374.8,237.2,375.6,237.9z" />
	<path fill="#87A6BE" d="M383.8,238.6c0.1,0.4,0.3,0.8,0.5,1.4c-1.5-0.4-2.3-1.4-3.3-2.1C382.1,237.7,383,238.1,383.8,238.6z" />
	<path fill="#8BA7AB" d="M440.3,236.5c-0.2,0.2-0.4,0.5-0.6,0.7C439.9,237,440.1,236.8,440.3,236.5z" />
	<path fill="#8BA7AB" d="M441.6,237.8c-0.2,0.2-0.4,0.5-0.6,0.7C441.2,238.3,441.4,238.1,441.6,237.8z" />
	<path fill="#42392E" d="M169.8,195c-4.4,0.2-6.6,0-10.8,0.5c1-2.9,4.5-2.7,7.1-3.1C167.1,193.2,168.2,193.9,169.8,195z" />
	<path fill="#9C877B" d="M129.3,195.3c-3.3,1.7-6.5-3.8-10.4-2.9c-0.7,0-1.4,0.1-1.8-0.6C120.9,189.4,125.6,194.1,129.3,195.3z" />
	<path fill="#B6968B" d="M131.4,190.9c-2.7,0.1-2.7,0.1-3.8-1.1C129.3,189.4,130.2,190.6,131.4,190.9z" />
	<path fill="#B2AAA3" d="M226.1,237.2c0.1,0.3,0.2,0.6,0.3,1.1c-1.2,0.4-1.5-1-2.4-1.2C224.8,236.2,225.1,236.2,226.1,237.2z" />
	<path fill="#8F786D" d="M171,197.5c1.2-0.2,1.2-0.2,2.4,0.8C172.2,199.1,171.6,198.4,171,197.5z" />
	<path fill="#99877B" d="M180.1,203c1.1-0.6,1.8-0.2,2.4,0.8C181.2,203.7,181.2,203.7,180.1,203z" />
	<path fill="#BAA398" d="M144.4,200.3c-0.5,0.6-1.1,0.1-1.6-0.2C142.6,199,144.2,199.5,144.4,200.3z" />
	<path fill="#BCA79C" d="M136.4,199.3c-0.4-0.3-0.8-0.8-1.4-0.7l0,0c1.1-0.9,1.1-0.9,2.6,0.4C137.1,199.1,136.7,199.2,136.4,199.3z" />
	<path fill="#967E72" d="M177.9,201.4c-0.7-0.2-1.1-0.5-1.4-1.2C178,200.4,178,200.4,177.9,201.4z" />
	<path fill="#887166" d="M185.1,205.3c-1.8,0.5-1.9-0.9,0-0.4C185.1,205.1,185.1,205.2,185.1,205.3z" />
	<path fill="#806B5E" d="M182.7,222.6c1.6,0.7,3.3,1.1,4.7,2.9c-2.4,0-3.8-1.4-5.5-2.1C182.2,223.1,182.4,222.8,182.7,222.6z" />
	<path fill="#AB8C7E" d="M182.7,222.6c-0.2,0.3-0.5,0.5-0.7,0.8c-1.1-0.5-1.3-0.8-2.1-1.9C181.1,221.5,181.9,221.9,182.7,222.6z" />
	<path fill="#A89183" d="M177,218.6c-0.1,0.1-0.2,0.2-0.3,0.3c-0.1-0.3-0.4-0.6,0-0.8C176.7,218.3,176.8,218.4,177,218.6z" />
	<path fill="#FBDFD3" d="M135,198.6c0.2,0,0.4,0.1,0.6,0.1C135.2,199.4,135.1,199,135,198.6z" />
	<path fill="#D1E2E3" d="M297.7,280.6c-2.4-0.3-5-0.2-6.9-2.1c0.9-0.2,2,0.5,2.6-0.8c-2.2-2-5.2-0.9-7.5-2.6c5-2,10.1,1.5,15.2,2   c5.6,1.6,12.9,1,17.1,4.9c-6.6-0.1-13.7,0.4-19.8-1.3c0.8-0.1,1.6-0.2,2.7-0.3c-1.1-1.4-2.1-1.3-3.2-0.8   C297.8,280,297.7,280.3,297.7,280.6z" />
	<path fill="#D2E2E3" d="M237.7,249.6c-0.7-0.7-1.4-1.4-2-2.1c0.7-0.2,0.7-0.8,0.7-1.4c4.5,1,16.6,5.2,16.4,10.4   c-0.7,0.7-1.3,1.3-1.9,1.9c-3.3-2-6.6-4.1-9.8-6.1c-0.2,0.3-0.4,0.5-0.5,0.6c-1-0.4-1.7-1.1-2.1-2.1c0.4-0.1,0.8-0.2,1.1-0.2   C239.8,249.5,238.8,248.7,237.7,249.6z" />
	<path fill="#95AEB0" d="M240.5,253c0.1-0.2,0.3-0.3,0.5-0.6c3.9,2.6,8.3,4.6,11.8,7.8c-0.1,0.1-0.1,0.3-0.2,0.4   C247.7,259.8,244,256.2,240.5,253z" />
	<path fill="#96AEB0" d="M285.9,275.1c2.3,1.7,5.4,0.6,7.5,2.6c-0.6,1.3-1.8,0.5-2.6,0.8l0,0c-2.3-1.5-5.5,0.3-7.1-3.1   C284.6,275.3,285.3,275.2,285.9,275.1z" />
	<path fill="#ADC1C2" d="M297.7,280.6c0.1-0.3,0.1-0.7,0.2-1c1.1-0.5,2.1-0.6,3.2,0.8C299.7,280.5,298.8,280.7,297.7,280.6z" />
	<path fill="#B0C2C4" d="M236.3,246.2c0,0.6,0,1.1-0.7,1.4c-0.6-0.8-1.2-1.6-1.9-2.5C235,244.6,235.4,246,236.3,246.2z" />
	<path fill="#B5CCCE" d="M296.5,258.1c0.6,0,1.1,0,2.4,0C297.7,259.2,296.6,259.9,296.5,258.1z" />
	<path fill="#AFC4C6" d="M237.7,249.6c1.1-0.9,2.2-0.1,1.9,1.1c-0.3,0.1-0.7,0.1-1.1,0.2C238.4,250.4,238.3,249.8,237.7,249.6z" />
	<path fill="#D1E2E3" d="M315.6,283.5c-1.1,0.6-1.2,0.2-1.7-0.6C314.8,282.6,315.1,282.8,315.6,283.5z" />
	<path fill="#94ADAF" d="M304.4,258c0.3,0.5,0.4,0.8,0.6,1.1c-0.8,0-1.5,0-2.2,0c0-0.1-0.1-0.2-0.1-0.4   C303.2,258.5,303.7,258.3,304.4,258z" />
	<path fill="#D1E2E3" d="M287.3,277.9c1.2,0,2.5-0.3,3.5,0.6C289.6,278.5,288.3,278.8,287.3,277.9z" />
	<path fill="#BAD0D1" d="M425.9,290.9c0.2-0.2,0.5-0.4,0.7-0.6C426.3,290.5,426.1,290.7,425.9,290.9z" />
	<path fill="#2E2A1F" d="M502.6,199.2c-1,0.3-2.2-0.4-3,0.7c-0.4,0-0.9,0.1-1.4,0.1c-3.3,11.1-11.3,18.8-19.1,26.8   c2.4,0,4.5,0,6.6,0c0.5,1.5,1.8,1.4,3,1.6c-4.5,1.7-10.2,0.1-14.6,2.1c-0.6-0.1-1.4,0-1.6-0.9c10.7-7.8,18.2-18.8,24.7-30.2   c0.6-0.1,1.3,0,1.6-0.7C500.2,198.6,501.5,198.4,502.6,199.2z" />
	<path fill="#D3D4CE" d="M474.2,230.4c1.3-1.1,3.1-0.6,4.7-0.8c-3.8,1-5.8,5.1-9.8,6.1C470,233.5,472.7,232.3,474.2,230.4z" />
	<path fill="#8AA9C5" d="M379,245.5c-1.1-1.2-1.9-2.5-2.1-4.1l0,0C378.6,242.3,379.1,243.7,379,245.5L379,245.5z" />
	<path fill="#8AA9C5" d="M379,245.5c0.2,0.1,0.3,0.2,0.5,0.3C379.3,245.7,379.2,245.6,379,245.5L379,245.5z" />
	<path fill="#C2DADC" d="M402.4,286.9c0.5-0.2,0.9-0.5,1.4-0.7c0.2,0.5,0.5,0.9,0.7,1.4c-0.3,0.1-0.6,0.1-1.2,0.2   c0.3,0.6,0.6,1.1,0.9,1.6c-1,0.7-1.7-0.2-2.5-0.5C402,288.2,402.2,287.5,402.4,286.9z" />
	<path fill="#FBDFD3" d="M487.3,229c13.2-1.9,25.8-5,37.2-12.7c8.6,3.8,17.6,6.6,27.3,3.9c1.3,0.5,2.5,1,3.8,1.6   c-0.8,4.2-1.6,8.5-2.3,12.7C531.9,229.8,508.7,231.2,487.3,229z" />
	<path fill="#94A0A1" d="M593.4,269.5c-5.3,0.1-10.7,0.1-16-0.2c5-1,10.2-0.3,15.3-0.5C592.9,269.1,593.1,269.3,593.4,269.5z" />
	<path fill="#AABDBE" d="M593.4,269.5c-0.2-0.2-0.4-0.4-0.7-0.7c1.6-1.3,3.9-1.1,6.3-2C597.2,268.8,595.3,269.1,593.4,269.5z" />
	<path fill="#A5BDBF" d="M678.8,273.9c1.9-0.1,3.4-0.8,4.7,0.8C680.6,276.2,680.3,276.2,678.8,273.9z" />
	<path fill="#FBDFD3" d="M552.7,218.5c-2,1-4.1,0.3-6.2,0C548,217.5,551.3,217.5,552.7,218.5z" />
	<path fill="#2A271C" d="M498.9,198.7c-0.3,0.7-1,0.6-1.6,0.7C496.4,198,498.2,198,498.9,198.7z" />
	<path fill="#201A1A" d="M487.9,226.3c4.5-0.9,9.6-0.4,13.8-2.2c0.9,0,1.8-0.1,2.5,0.9c-0.1,0.3-0.3,0.7-0.4,1.1   c-4,2-9.2,0.4-13.1,2c-1.7,0.2-4.1,0.7-4.9-1.3C486.5,226.8,487.4,227.2,487.9,226.3z" />
	<path fill="#534A3E" d="M632.9,215.1c-0.4-1.7-0.4-1.7-0.1-3.4C633.6,213,633.5,213.9,632.9,215.1z" />
	<path fill="#A4BCBE" d="M437.7,249.4c-0.3-2,1.1-2.7,2.3-3.9C439.8,247.2,439.4,247.9,437.7,249.4z" />
	<path fill="#8CA7AA" d="M426.9,279.5c2.2-0.2,2.2-0.2,2.8,1.4C428,280.8,428,280.8,426.9,279.5z" />
	<path fill="#2E2A1F" d="M490.7,228.1c0.8-1,1.9-0.5,2.9-0.5C492.6,227.8,491.7,228,490.7,228.1z" />
	<path fill="#2E2A1F" d="M487.9,226.3c-0.5,0.9-1.4,0.6-2.1,0.5C486.4,226.1,487.1,226.1,487.9,226.3z" />
	<path fill="#2A271C" d="M501.7,224.1c-0.3,0.2-0.6,0.4-0.9,0.6C501.1,224.5,501.4,224.3,501.7,224.1z" />
</g>
</svg>