<?xml version='1.0' encoding='utf-8'?>
<svg xmlns="http://www.w3.org/2000/svg" version="1.2" baseProfile="tiny" id="Layer_1" x="0px" y="0px" viewBox="0 0 900 600" overflow="visible" xml:space="preserve">
<g>
	<path fill="#010000" d="M330.8,435.9c9.3-12.6,29.8,0.5,17,20c1.1,1.8,2.7,3,4.7,3.9c9-32.3,14.1-67.5,30.5-97.1   c0.2-34.3,31.3-41.7,6.8-77.2c-13.6-26-12.6-57.5-28.5-82.3c-17.6-16.2-25.5-39-34.6-60.6c-11.4-20.4-18.8-42.2-25.7-64.7   c-2.9,1.7-4.4,4.7-6.9,6.5c-0.3-0.4-0.7-0.7-1-1.1c2.1-2.9,4.5-5.4,7.2-7.8c-0.8-1.7,0.1-3.6-1.3-4.9c0-0.6,0.2-1.3-0.7-1.5   c-17.8-0.4-35.7-0.6-53.5-0.7c-15.4-0.2-30.9,0.2-46.3-0.5c-1,0-1.9,0.4-2,1.8c3.5,0.4,7,0.2,10.5-0.4c-1.4,5.1,10.1,10.2,7.2,13   l0,0c-3.3-3.3-6.9-6.3-9.3-10.5c-3.8-0.1-7.5-0.1-11.3,0.1c0.9,174.9,3.4,349.7,4.2,524.6c-0.6,0.1-1.1,0.2-1.5,0.3   c-3.7-174.6-3.1-350.4-5.1-525.4c16-14.1,27.3-32.6,43.5-46.2c1.3-0.7,1-2,1.1-3.1c137.3,1.8,275.2,5,412.2,5.9   c0.6,8.3,11.4,14.1,16.1,20.9c9.6,9.9,18.4,21,28.5,30.3c2.1,172.5,4.8,345,5.9,517.5c-0.8,0-1.4,0-2,0   c-2.7-171.7-4-343.4-6.4-515.1c-2.2-0.8-1.4-4.9-4.5-4.8c-52.2-0.9-104.5-1.2-156.7-1.8c-6.4,23.9-7.2,48.9-19.5,70.8   c-10.2,21.7-13.1,47.7-26.7,68.1c-1.7,15.4-0.7,30.9-4.1,46.1c-4.3,12.2-4.1,25.3-4.4,38.2c-3,16.9,6.7,32.3,4.1,49.4   c4.4,5.1-1.1,13.2,1.9,19.1c12.8,20.8,20.9,44.2,28.5,67.4c5.5,14.6,4.2,29.9,4.5,45c6.6,18-8.4,26.8-24.8,23.1   c-33.5,5.2-67.2-12.2-101.2-8.8c1.3,4.2-3.4,5.6-6.3,7.2c-4.8,1.3-5.7,6.3-9.4,9.1c-6.7,5.5-8.5,14.1-10.6,21.9   c-3.4,1.1-6.7,2.3-10.4,1.1c-5.2-10.2-5.8-21.1-3.1-32.2c-4.9-3.7-8.9-7.6-12.6-12.6C304.3,538.3,290.5,472,320,447   c0.3,0.3,0.6,0.7,0.9,1c-12.8,17.7-15.4,27.6-15,49.2c10.3,13.1,23.4-1.7,27-12.7c-1-2.5-3-4.5-2.8-7.1c0.4-2.2-2.3-1.3-3.6-1.4   c-0.2-0.8-0.8-0.8-1.4-0.8c-2.7-2.5-6.7-5.1-6.3-9.3c0.4,0,0.7,0,1,0c1.1,2.4,3.4,5.2,6,5.7c0.5,0.9,1.3,1.2,2.5,1.4   c-0.1-0.5-0.2-0.9-0.3-1.3c-0.8,0-1.5,0-2.2,0c-1.5-2.3-3.6-4.2-4.9-6.7c0.1-1-1.4-2.1,0.2-3.2c0.3,0.2,0.7,0.4,1.1,0.6   c1.8,3.6,2.8,4.8,5,5.8c0.2-1.8-1.6-1.9-2.2-3c-5.8-7.7,4.6-22.2,14-20.1c2.2,2.7,4.2,5.2,5.2,8.6c1-1.5,1.3-3.1,3.1-3.6   c6.7-6.2-3.2-21.5-9.1-14.5c-2.3-0.4-4.3,0.9-6.5,1.4C331.3,436.6,331,436.3,330.8,435.9z M542.3,50.3c-0.3-0.2-0.6-0.4-0.9-0.6   c-0.2,0.1-0.4,0.1-0.6-0.1c0-0.2,0-0.5,0-0.7c1.1-0.1,2.4,0.1,2.3-1.4c0.2,0.6,0.8,1.3,0.7,1.9c0.2,0.3,0.4,0.6,0.5,0.9   c0.2,0.1,0.3,0.3,0.2,0.5c1.2,2.1,2.4,4.1,3.7,6.3c32,0,64.3,1.7,95.9,0.6c-0.3-9.1-0.2-18.3-1.5-27.3c-36.1,0.2-73.7-2.6-108.8-1   c2,3.4,3.2,7.9,6.5,10.4c0.6,0.6,0.5,2,0.3,2.9c-1.2-0.3-1.8,0.1-1.9,1.2c-1.3,0.6-1.1,1.6-0.7,2.7c0.2,1.3,2.4,0.8,2.1,2.3   c-0.7,0.1-1.4,0.1-2.1-0.1c-0.3-0.2-0.5-0.5-0.8-0.7c-0.2-1.1-1.8-1.5-1.6-2.8c0.2-2.1-0.6-4.3,0.6-6.5c-3.5-5.7-4.1-12.6-12.5-9.6   c6.4,12.3,12.1,25.4,19.8,36.9c1.3,0.2,2.3,0.5,3-0.5c1.1-0.4,1.8-1.1,2.1-2.4c-1.9-3.9-3.9-8.1-5.7-11.8   C542.7,51,542.5,50.6,542.3,50.3z M406.2,205.2c1.6,2.1,3.3,4,5,6c-0.2,0.4-0.4,0.8-0.6,1.2c5.8,8.5,10.8,19.6,21.7,22.6   c0.7,0.8,1.6,0.9,2.8,0.3c-1.1-1.3-4.8-4-3.7-5.7c0.9,0.6,1.9,1.1,2.9,1.7c0.6-0.2,1.2-0.4,2.1-0.7c-0.3,1.2-0.5,1.9-0.7,2.8   c0.6,0.9,1.2,1.7,1.8,2.5c18.9,2,12.1-20.7,4.3-29.5c-2.6,0.6-4.4,2-5.2,4.5c-2.1-7.4-2.8-23.6,9.1-20.9c3.5,0.7,11.5-0.4,9.3-5.4   c-0.4-0.9-1.2-1.6-0.9-2.6c0.5-0.5,1-0.9,1.5-1.4c0.2,0.4,0.4,0.8,0.6,1.3c-0.4,1.8,1.3,3.1,0.9,5.1c13.4-6.4,18.1-20.2,25-32.4   c7.4-10.7,4.8-24.3,9.5-36c8.7-13.5,16.9-28.2,22.4-43.7c-66.4-0.7-132.5-1.4-198.6-2.1c7,16.9,20.2,30.8,24.5,49   c5.1,11.1,16.1,18.3,21.4,29.6c6.6,9.1,10.6,29.4,23.5,29.9c-0.4-2.8-2.1-5.8-0.1-8.1c0.2,0,0.3,0.1,0.5,0.1   c0.3,4,1.7,10.6,6.3,12.8c0.3-0.6,0.4-1,0.7-1.5c0.8,1.2,0.5,4.1,2.4,3.5c0-1.3,0-2.8,0.7-4c1.3,2.9-0.1,7.8,3.5,8.8   c0.3-1.2,0.1-2.5,0.2-3.8l0,0c0.2,0,0.5,0,0.7,0c1,3.4,1,7.1,2.9,10.2c0,1,0.5,1.7,1.5,2.1C404.7,202.9,405.3,204.2,406.2,205.2   L406.2,205.2z M534.9,59.8c0.7-3.1,0-6.2-2.3-8.5c-0.4,0.5-0.8,0.9-1.2,1.3c-0.2-0.8-0.7-1.2-1.4-1.5c0-4.8,0-4.8-1.3-6.8   c-0.3,0.4-0.7,0.7-1,1c-0.8-0.2-0.6-0.9-0.7-1.5c0.3-0.5,0.7-0.9,1.1-1.5c-2.3-4.5-4.6-9-7-13.7c-34.6-0.2-69.6-1.5-104.3-1.2   c1.8,2.6,23.3,26.4,25.7,28.4c7,0.5,75.7,1.2,79,0.7c1.3-2.7,2.7-5.5,4.1-8.3c0.3,0.1,0.6,0.1,1,0.2c-1.4,5.6-5.3,9.7-4,15.7   c-2,3.4-5.2,6-5.7,10.3c-2.5,9.7-9,17.6-12.2,27.2c-4.1,8.5-11.8,14.9-13.1,24.5c-2,20-9.9,38.5-22.1,54.3   c-6.3,7.6-17.7,11.1-20.2,21.8c-0.5,0.4-1.1,0.9-1.6,1.3c11.6,12.6,20,28.6,29.7,42c2.1-17.8,2.5-35.4,12.7-51   c6.4-19.7,12.4-40.1,21-59c12.8-19.7,8.4-46,18.3-67c0.2,0,0.4,0,0.7,0.1c48.5,3.5,101.7,1.8,150.9,2.1c-2.6-3.6-6.2-6.6-9.1-9.8   c-4.8-0.4-13.7-0.4-16.5,0.1c-0.1,1.7-0.2,3.5-0.3,5.3c-1.4,1.2-2.5,2.6-4.3,2.9c-0.2-0.1-0.4-0.1-0.5,0c-5-0.8-6.1-4.1-6-8.6   c-31.7-0.8-63.2-1.4-94.7-1.2c0.5,1.3,1,2.7,1.4,3.9c-1.4,3.3-1.8,3.7-5.7,5.1c-5.4,0.2-5.9-5.7-8.2-9.3c-1.4,0.9-1.1,2.2-1.3,3.3   C534.9,61.7,534.9,60.8,534.9,59.8z M225.2,61.3c1.5,0.2,2.5-0.4,3-1.9c-2.6-4.9-7.7-8-11.4-12.1c-1.7,1.3-2.3,2.9-3.6,4.4   C217,55.3,220.1,60.3,225.2,61.3z M308.4,35.3c0.2-0.3,0.5-0.6,0.7-0.9c1.5,0.6,1.3,2.2,1.8,3.4c8.9,5.1,16.6,14.2,26.6,16.8   c28.9,0.3,57.8,0.8,86.7,0.9c-7.2-10-17.1-19.2-25.1-28.8c-34.8,0.1-71.7-2.3-105.3-1c1.4,1.7,3.7,1.5,5.4,2.9   c-0.3,0.3-0.5,0.5-0.8,0.8c-0.5,0-1.1,0-1.3,0.7c-0.3,0-0.6,0-0.8,0c-5.8-5.1-10.4-5.5-18.2-5c13.8,10.7,28.1,20.6,42,31   c4.2,2.5,8.4,8.7,13.8,5.8c6.4-6-21.2-18.4-25.4-23.2c0-0.3,0-0.5,0-0.8C309.1,37.1,308.4,36.2,308.4,35.3z M648.7,35.9   C648.7,35.9,648.7,35.9,648.7,35.9c-1.1-1.5-2.2-3-3.5-4.7c1.3,4.8-2.3,45.7,8.1,33c0-7.8,0-15.6,0-23.8   C651.9,39.1,650.2,37.4,648.7,35.9z M322.2,60.5c-1.9-1.5-3.8-2.9-5.6-4.3c-2.1,0.2-4-0.4-5.8,0.4c-0.4,1.6,0.3,3.1-0.8,4.6   c-0.4,0-1,0-1.5,0c0.1-2.9,0.2-5.7,0.3-8.8c-1.3-2-3.1-5.1-5.9-5.4c-0.6-0.1-1.1-2.2-2.1-2.2c-1.9-0.2-2.6-3.1-4.5-2.8   c-0.1,0.5-0.2,1-0.4,1.5c-1.6-0.8-0.9-2.3-1.6-3.6c-0.7-0.2-1.8-1.8-2.6-1c-1.9,5.6,4.2,6.7,2.9,13.3c5,4.6,3.1,11.6,5.9,17.1   c5.5,15.6,10.6,31.6,15.6,47.4c1.8,8.5,8.5,14.2,11.6,21.7c6.8,12.8,10.8,27.1,17.4,39.9c5.2,11.2,16.1,17.8,22,28.3   c7.4,12.2,6.9,28.5,14,40.3c15-25.9,38.9-41.6,1.8-63.2c-4.2,0.2-7.7-2.8-10-6.1c-5-12.8-14-23.6-21-35.3c-4.3-6.4-9.5-12-14.4-18   c-2.4-9.7-5.6-19.1-11.4-27.4c-6.4-11.3-15.3-22.2-17.7-35.1c0.3,0,0.7,0.1,1.1,0.1c0.6,1.7,1.2,3.4,1.9,5.2   c68.6,1.1,137.3,1.9,205.9,2.1c2.5-3.1,3.6-6.4,3.4-10.2c-25.3-0.9-50.6-0.9-76-1c0.7,4.4,0,6.2-3.1,9.1   c-6.8,0.1-10.9-4.4-14.7-9.4c-30,0.4-60.5-2.2-90.1-0.6C338.6,67.5,327.4,65.2,322.2,60.5z M217.3,58.9c-2-2.1-5-5.9-7.9-3   c-3,3.6-7.7,6.5-9.7,10.4c32.6-0.3,65.2,1.3,97.8,0.5c-0.5-3.6-0.6-7.1-1.9-10.6c-22.2-0.7-44.4-0.8-66.6-0.9   C233.5,65.7,222.3,65,217.3,58.9z M450.2,192.1c-3.5,0.4-7.3-0.9-10.6,0.5c-1.6,4.2-2.1,8.7-1.9,13.6c3.4-1.6,6.5-3.2,9.5-4.8   c1.5-3.5,2.4-7.1,5.5-9.7C451.5,191.4,450.8,191.3,450.2,192.1z M352.7,504.8c-1-1.1-2.1-1.9-3.5-2.7c-3.1,9.4-1.7,20.1,2.6,28.7   c2.6-1,5.1-1.2,7.5-2.3c1.5-4.4,1.9-9.1,4.5-13c-3.7-2.3-4.1-2.9-3.3-4.7c1.6,0.4,3.1,1.7,5.3,1.9c-0.5-2.2-2.4-2.1-3-4.1   c0.5-0.3,0.9-0.6,1.4-0.9c1.4,0.7,2.7,1.4,4.1,2.1c0.4-0.5,0.8-1,1.3-1.7C364,506.1,358,508.4,352.7,504.8z M369.2,501.3   c20.6-11.4,22.6-31.8,30.7-51.6c6.7-12.4,15.6-23.1,21.8-35.9c-15.6-6.6-33.7-12.7-50.8-11.1c-8.7,24.2-13.9,49.5-20,74.1   c-0.5-0.3-0.9-0.5-1.3-0.8c1.1-4.2,2.2-8.4,2.5-13c-5.8-4.4-11.2-9.1-14.4-15.8c-6.6,0.3-8.8,6.4-13.1,10c-0.4,2.5-0.3,4.8,1.2,6.8   c0.5-0.5,1-0.9,1.6-1.5c3.3,18.3,16.4,41.8,37.3,42.4C366.5,503.6,367.8,502.4,369.2,501.3z M407.6,27.2c-1.6-0.1-3.3-0.2-5.4-0.3   c7.7,7.7,29.6,37.9,38,37.9c11.7-2.2-23.8-31.7-26.8-37.6C411.4,27.2,409.5,27.2,407.6,27.2z M469.9,469.5   c-10.1-9.6-61.6,1.2-75.8,5.4c-2.1,5.3-4.1,10.7-7.3,15.5c32.9-0.6,65,9.8,97.7,9.6c6.8-0.4,16.9,3.2,22.3-2.3   c12.5-24.4-4-72.1-13.9-96.7c-17.1,4.7-36.6,5.9-50.6,17.6c5.6,19,17.9,33.7,28.4,50C470.4,468.9,470.1,469.2,469.9,469.5z    M398,348.7c-3.2-0.5-6-1.3-9.2-2.1c-4.5,18.1-10.3,35.7-16.8,53.2c17.7-0.4,35.2,5.7,51.1,12.2c1.6-7.7,14.2-5.9,17.5-0.1   c0.3,1.6-0.2,3.2,1.3,4.3c13.8-11.6,33.1-12.6,49.8-17.9c-3.6-14.5-15.1-26.3-15.9-41.3c-21.7,6.8-44.2,2.6-65.3-4.2   c0.3-0.9,1.1-0.7,1.7-0.8c21.3,5.2,42.5,9,64,2.6c0.2-24.7-7.1-48.2-3.7-72.9c-26.8,3.2-55-5.9-81,2.1c18,25.6,8.4,35.4-1.6,60.5   c3,1,6.3,1.5,9,3.4C398.6,348.1,398.3,348.4,398,348.7z M236,26.4c-6.2,5.9-13.1,12.1-17.5,19.3c2.4,2.5,4.8,5,7.1,7.5   c22.7,0.1,45.8,1.1,67.9,0.6c-0.3-8-5.1-8.7-3.9-17.4c-5.2-3.8-10.6-7.7-16.1-11.8C267.4,25.8,236,21.8,236,26.4z M393.2,232.1   c-4.4,5.6-8.3,11.5-11,18c1.2,3.7,1.2,3.7,0.1,6.6c2.6,7.8,4.8,16.9,8.1,24.4c27.2-6.2,55,2,82.5-1.7c0.4-9.7,3.1-18.9,4.7-28.3   c-9.7-15.8-19.4-32.1-31.3-46.7c-0.8,0.7-2.4,0.7-2.3,1.8c6.1,7.2,11.8,17.3,7.7,26.8c-22.4,17.6-35.8-7.1-45.9-24.5   C404.4,218.2,399.1,224.9,393.2,232.1z M395.7,470.1c23.2-4.4,47.3-9.2,70.7-5.9c-14.7-14.6-23.5-32.1-28.2-51.9   c-13.3-9.9-17.4,10.6-23.2,18.7C407.7,443.8,397.7,454.9,395.7,470.1z M312.2,69.2c0.8,3.2,4.1,1.6,6.4,2c64.9-1.1,133,4.4,197,0.3   C447.8,70,380,70.1,312.2,69.2z M683.4,72.9c-43.7-0.5-87.3-0.5-131-1.3c-3.7,0.6-23.5-2.2-22.6,1.6c51.6,0.8,103.4,1.5,154.9,1.5   C684.2,74,683.8,73.4,683.4,72.9z M669.5,58.4c-4.7-5.3-8.8-10.8-14.2-15.2c0.4,5.3-0.9,10.7,0.5,15.2   C660,58.4,664.4,58.4,669.5,58.4z M382.7,493.6c-1.8,1.9-4.5,3.3-5.6,5.5c1.6,1,6.1-1.8,7.4-4.1   C383.9,494.5,383.3,494.1,382.7,493.6z M370.8,503.9c-0.3,0.2-0.6,0.4-1.2,0.8c0.7,0.7,1.2,1.2,1.8,1.7   C372.4,505.2,371.6,504.6,370.8,503.9z M537.4,40.1c-0.4,1-1.1,1.7-0.5,2.7C538.3,42.2,538.3,42.2,537.4,40.1z M313.2,54   c-1.7-1.7-1.7-1.6-2.2,0C311.7,54,312.3,54,313.2,54z M372.7,502.2c1.7,0.1,1.7,0.1,1.5-1.3C373.7,501.5,373.2,501.8,372.7,502.2z" />
	<path fill="#798BB3" d="M20.3,20.7c-0.9-0.9-1.8-1.9-2.8-2.9c0.5-2.6,0.2-5.5,1.4-7.9c286.9,3.7,575.7,5.3,862.3,13.7   c1.1,1.8,0.4,3.9,0.6,6c-0.7,0.9-1.5,1.8-2.2,2.8c-41.8-3.1-84.6,1.1-125.9-3.6c42.1-1.4,84.9,2.9,126.4,0.5   C595.6,23.1,304,16.8,20.7,16.7c36,1.4,72.7,1.3,108.9,1.9c0,0.2,0.1,0.5,0.1,0.7l0,0c-35.1,3.4-73.1-1.9-109.1,0.1   C20.4,20,20.4,20.3,20.3,20.7z" />
	<path fill="#92A3C5" d="M191.3,117.5c2.8,159.6,1,320,5,479.3c-3,1.2-6.3,0.5-9.4,0.9c0.6-188.9-4.6-378.6-4.7-567.6   c3.5,0.1,6.2-0.3,9.7,0.3c1.1,3.6-2.3,23.7,2.2,22c1.8-6.8,0.2-15,0.8-22.3c10.6,1.1,22.5-0.4,32.6,1.5   c-11.8,13.7-23.1,27.4-36.2,39.8c0,0.4-0.1,1.3-0.2,2.1c-0.3,0.1-0.7,0.2-0.9,0.2c0.9,21,0,42,0.4,63   C192,130.6,190.8,123.9,191.3,117.5z" />
	<path fill="#92A3C5" d="M816.7,593.2c-4.3,2.3-5.5,2-10.2,1.4c1.1-170.3-4.3-341.8-3.9-512.4c3.7,0.2,6.7-0.4,10.3,0.3   c1.3,3.8-2.3,23,2.2,22c1.8-7.1,0.2-14.9,0.8-22.3c10.5,0.7,22-1.2,31.9,0.7c-11.3,13.7-24,26.8-35.6,39.9   c-1.6,14.7-0.2,30.7-0.5,45.8c0.9-3.8,0.3-7.6,0.7-11.3C815,302.5,814.3,448,816.7,593.2z M809.1,92.7c-0.5-0.9-2.1-0.1-1.5,0.7   C808.2,93.4,808.9,93.5,809.1,92.7z" />
	<path fill="#92A3C5" d="M712.5,596.8c-1.9,1.8-4.3,1.6-6.6,1.5c-1.9-186.9-6.4-374.5-8.1-561c3.6,0.2,7.1-0.3,10.9,0.3   c0.8,7.6-1.6,16.6,1,23.5c4.1,0.4,1.1-19.8,2-23.7c11.4,0.6,23.7-1.1,34.6,0.6c-12.9,13.8-24.3,29.2-38.4,41.7   C709.3,252,711.1,424.4,712.5,596.8z" />
	<path fill="#92A3C5" d="M296.2,79.5c-10.7,12.7-21.6,25.4-33.5,37c0.9,158.2,3.2,316.5,3.6,474.6c-2.1,2.7-4.1,4.9-7.9,4.3   c-0.5-172.6-4.4-344.9-4.9-517.5c3.4-0.1,6.7-0.1,9.9-0.1c0.8,6.8-1,14.6,0.7,21c4.5,2.7,1.1-17.8,2.5-20.8   C276.5,77.8,287,77.3,296.2,79.5z" />
	<path fill="#92A3C5" d="M881.2,23.6c-286.4-8.4-575.4-10-862.3-13.7c0-1.8,0-3.5,0-5.2c0.8-1,1.6-1.9,2.3-2.9   C306.4,8.7,593.2,11.7,879,17.2C879.2,19.6,882.5,20.7,881.2,23.6z" />
	<path fill="#798BB3" d="M709.7,61.1c-2.5-6.8-0.2-15.8-1-23.5c-3.8-0.6-7.4-0.2-10.9-0.3c1.7,186.5,6.2,374.1,8.1,561   c-2.9,0.8-8,2-9.4-1.5c0.6,0,1.2,0,2,0c-1.2-172.5-3.8-345-5.9-517.5c-15.1-15-29.5-31.3-43.9-47.2c0-0.8,0.1-1.6,0.2-2.7   c19.4-0.2,38.6-0.1,58,0C712.8,29,707.8,55.6,709.7,61.1z M686.1,67.5c0.4-9.9,0.6-20.1-0.1-29.9c-4.5-0.4-27-0.3-29.6,0.1   C658.7,40.4,677.6,60.5,686.1,67.5z M691.1,30c-2.6,1.6-1.1,4.9-1.2,7.4c0.9,9.3-2,20.2,1.3,28.8C691.4,62.6,692.7,39.4,691.1,30z" />
	<path fill="#798BB3" d="M192.7,52.5c-2.2-6.5-0.1-14.9-0.9-22.1c-3.4-0.6-6.2-0.2-9.7-0.3c0.1,189,5.3,378.7,4.7,567.6   c-1.3,0.5-2.6,1.1-3.8,1.6c-1-0.9-1.9-1.6-2.8-2.3c0.4-0.1,0.9-0.2,1.6-0.4c-2-175.3-4.2-350.6-6.2-525.8   c-14.2-13.3-26.8-28.5-40.3-42.6c-1.6-2.3-5.2-4.3-4.3-7.4c13.8-0.2,27.5,0.1,41.2,0.7c2.5,12-2,25.6,2.2,36.7   c1.1-12.3-1-24.5,0.8-36.7c5.7-0.2,11.5-0.1,17.2,0.2C192.5,31.9,192.6,42.2,192.7,52.5z M170,29.4c-10.3,0.4-19.2-0.7-29.3-0.7   c9.6,10.3,18.6,22,30.2,30.1C171.2,48.5,170.2,39.6,170,29.4z" />
	<path fill="#798BB3" d="M263.5,77.9c-3.2,0-6.5-0.1-9.9,0.1c0.5,172.6,4.3,344.9,4.9,517.5c-1.8,1.1-3.9-0.8-5.2-2.1   c0.2-158.1-4.1-318.1-4.8-476.7c-13.7-15.3-30.1-29.2-41.4-46c12.4-1.5,25.8-0.9,38.3,0c1.3,11-1.5,22.7,1.4,33.3   c2.3-10,0.1-21.9,0.9-32.5c4.7-1.9,10.8-0.6,15.9-0.5C263.5,73.4,263.5,75.6,263.5,77.9z M243.8,77.3c-9.2,0.1-19.8-0.9-28.3,0.3   c10.5,7.4,18.5,18.2,28.2,26.7C244.1,101.5,244.1,81.5,243.8,77.3z" />
	<path fill="#798BB3" d="M813.9,104.6c-2.4-6.3,0.1-15-1-22.1c-3.6-0.7-6.7-0.1-10.3-0.3c-0.3,170.6,5,342,3.9,512.4   c-1.3,0.2-2.1-0.5-2.9-1.3c-1.6-157.2-3.8-314.4-5.4-471.6c-10.9-10.2-19.9-22-30.6-32.4c-3.2-5.3-11-8.5-10.7-15.5   c41.2-0.5,82.3,0.9,123.5,1.3c-5.7,2.4-14-1.1-19.6,1.4c-2.5,0-5,0-7.4,0c-1,2.9-3.5,4.4-5.6,6.4c-10-1.9-21.5,0-31.9-0.7   c-0.6-1.6,0.1-3.8-1.9-4.5C813.3,86.7,813.7,95.6,813.9,104.6z M791,109.4c0.6-9.8-0.6-18.1-0.7-27.8c-8.1,0-16,0-24.1,0   C773,92.5,782,100.3,791,109.4z M796.8,77.9c-1.2,0.2-1.2,1.2-1.2,2.1c0.9,9.6-1.9,20.7,1.3,29.5   C797.5,105.8,797.4,80.9,796.8,77.9z" />
	<path fill="#010101" d="M131.1,20.7c-0.8,3.1,2.7,5.1,4.3,7.4c13.5,14.1,26,29.3,40.3,42.6c1.9,175.3,4.1,350.5,6.2,525.8   c-0.7,0.2-1.1,0.3-1.6,0.4c-6.5-174.4,0.4-355-9.4-527.7l0,0c-48.2-4.9-99.8-1.2-149-3.5c0-0.4-0.1-0.8-0.1-1.3   c48.6-0.6,97.6,1.4,146.1,1.2c-4.4-3.9-7.4-7.5-11.1-11.5c-9.8,0-19.1,0-28.8,0c0.1,1.8,0.2,3.4,0.3,5c-5.5,8.8-14.6-0.3-19.5-5.1   c-29-0.3-57.9-0.6-86.9-0.9c-0.1-0.6-0.1-1.1-0.2-2c28.2,0.4,55.7,1,83.9,0.7C94.3,41.6,82.8,31.9,71.2,21.7   c-16.6-0.7-34.6,0.1-50.9-1c0.1-0.4,0.1-0.7,0.3-1.3c36-2,74,3.3,109.1-0.1l0,0C130.1,19.8,130.6,20.2,131.1,20.7z M78.9,22.1   c-1.1-0.1-2.3-0.4-3.7,0.3c15.6,12.7,29.7,28,46.6,38.7c3.2-1,4.9-1,4.1-5.2C113,44.7,100.2,33.5,87.3,22.1   C84.7,22.1,81.8,22.1,78.9,22.1z M91,22c2.2,2.8,27.6,25.2,33.9,30c9.5-0.2,19.3,0.5,29.6,0.3c-7.9-10.7-18.7-18.8-26-29.8   C116.1,22.4,103.8,22.2,91,22z" />
	<path fill="#010101" d="M767.4,73.4c-3.5,0.1-6.9,0.2-10.5,0.3c-0.4,6.9,7.5,10.1,10.7,15.5c-0.4,0.4-0.7,0.7-1.1,1.1   c-3.8-4.5-9-7.8-11.6-13.2c-13.7,0-27.3,0-40.9,0c-1,1.2-1.9,2.5-2.9,3.7c-0.3-0.2-0.5-0.3-0.8-0.5c1.5,172.1,3,344.2,4.5,516.5   c-1,0-1.6,0-2.3,0c-1.4-172.4-3.2-344.8-4.5-517.2c15.7-14.9,30.5-32.4,44.3-48.7c41.7-1.5,85.1,0.4,127.3,1.4c0,0.4,0,0.7,0,1   c-34.9,1.5-70.7-0.9-105.9-0.9c-4.2,9-8.4,17.9-12.7,27.2c39.8,1,79.6,1,119.5,1.7c0,0.4-0.1,0.9-0.2,1.6   c-40.2,0-80.2-1.1-120.4-1.1c-1.4,6.5-9.1,11-13.4,4.7c0-1.6-0.5-3.4,0.3-5.1c-6.1,0-12,0-18,0c-2.7,3.9-6.3,6.2-9.2,10.1   C735.5,72.1,752,70.6,767.4,73.4z M753.6,67c8.5-9.3,11.5-23.4,17.6-34.5c-3.1-0.1-5.6-0.2-8.3-0.1C761.8,37,739.4,72.5,753.6,67z    M754.2,32.3c-7.1,9.4-16.7,16.7-23.1,26.7c2.9,0.5,13.5,0.8,16.9,0.4c4-8.8,8.1-17.8,12.4-27.1C758,32.2,756,32.2,754.2,32.3z    M716.3,74.7c12.8-0.5,27.4,2,39.3-0.9c-12.5-0.5-24.8-0.4-37.3-0.4C717.3,73.4,716.7,73.7,716.3,74.7z" />
	<path fill="#020101" d="M879,17.2C593.2,11.7,306.4,8.7,21.2,1.8c284.8,1.3,574,8.6,859.4,14C880.8,17.1,879.8,17.1,879,17.2z" />
	<path fill="#020202" d="M847.8,82.9c2.1-2.1,4.6-3.5,5.6-6.4c9,0.3,18.2-0.5,27.1,0.9c0,0.6-0.1,0.9-0.1,1.3c-8.6,0-17.1,0-25.5,0   c-14.4,14.1-26.4,29.9-40.4,44.5c1.3,156.4,2.8,313.5,4.1,470c-0.7,0-1.3,0.1-1.8,0.1c-1.8-157.1-3.2-314.7-4-471.7   C825.3,109.5,836.3,96,847.8,82.9z" />
	<path fill="#020202" d="M236.9,104.6c4,4.2,7.4,7.8,11.6,12c0.7,158.7,5,318.7,4.8,476.7c-0.4-0.1-0.7-0.1-1.3-0.2   c-2.9-158.2-3.3-316.4-6-474.6c-2.8-4.5-6.4-8.5-10-12.5C236,105.3,236.1,104.8,236.9,104.6z" />
	<path fill="#020202" d="M787.1,110.4c3.8,3.9,6.9,7.6,11.1,11.3c1.6,157.2,3.8,314.4,5.4,471.6c-0.6,0-1.2-0.1-1.9-0.1   c-2-155.6-3.7-311.3-5.6-467c-0.6-6.1-6.2-9.9-9.8-14.5C786.3,111.1,786.4,110.6,787.1,110.4z" />
	<path fill="#020202" d="M266.4,591.1c-0.5-158.2-2.7-316.4-3.6-474.6c1.2-1.1,2.4-2.1,3.5-3.2c0.3,0.4,0.7,0.7,1,1.1   c-0.8,1-1.6,2.1-2.6,3.4c1.4,158.1,2.7,316.6,4.1,475.3c-0.8,0-1.3,0-2.1,0C266.7,592.4,266.5,591.8,266.4,591.1z" />
	<path fill="#798BB3" d="M160.7,58.5c2.3,2.2,4.3,4.7,7.2,7.1c-48.5,0.2-97.6-1.8-146.1-1.2c0,0.4,0.1,0.9,0.1,1.3   c28.1,1.4,56.4-0.2,84.6,1.3c0,0.2,0,0.4,0,0.7c-28.2,1.4-56.2-0.2-84.5,0.2c0,0.5,0,0.8,0,1.2c0.7,0.3,1.4,0.5,2.1,0.7   c-0.7,0.1-1.4,0.2-2,0.2c-1-1.3-1.9-2.5-2.9-3.8c0.1-2,0.3-4.3,0.5-6.5c31,1.5,63.9,0.4,94.8-0.7c3.7,3.6,10.9,5.7,13.8-0.1   C138.7,60.9,150.2,59.3,160.7,58.5z" />
	<path fill="#91A3C5" d="M758.7,64.7c0.4-1,0.8-2,1.2-3c40.2,0.1,80.2,1.1,120.4,1.1c0.1-0.7,0.1-1.1,0.2-1.6c0.9,1,0.9,1-0.3,2.4   c0.5,0.5,1.1,1,1.5,1.4c-0.3,3.5,2.5,8.3-0.4,10.7c-0.3-1.7-0.1-3.8-0.1-5.4c-6.5-6-31.5-1.2-41.6-2.7c-26.6-1.4-53.6-0.7-80.3-1.4   C758.9,65.6,758.8,65.2,758.7,64.7z" />
	<path fill="#92A3C5" d="M114.4,59.1c-30.9,1.1-63.7,2.1-94.8,0.7c-0.1-1.2-0.2-2.3-0.4-3.7c0.8-0.9,1.7-1.9,2.6-2.9   c28.9,0.3,57.9,0.6,86.9,0.9C110.7,55.7,112.5,57.4,114.4,59.1z" />
	<path fill="#070606" d="M24,69.8c-0.7-0.2-1.3-0.5-2.1-0.7c0-0.3,0-0.7,0-1.2c48.9,0.8,103.3-0.7,149.6,2.8   C122.8,72.6,73.1,69.4,24,69.8z" />
	<path fill="#0E0C0C" d="M267.3,114.4c-0.3-0.4-0.7-0.7-1-1.1c9-9.8,18-19.8,26.8-29.9c0.3,0.4,0.7,0.7,1,1.1   C285.7,95,277,105.1,267.3,114.4z" />
	<path fill="#0C0C0C" d="M236.9,104.6c-0.7,0.2-0.8,0.7-0.8,1.4c-7.5-7.7-15.1-15.3-21.9-23.6c0.7-0.3,0.8-0.8,0.8-1.4   C222.3,88.8,229.8,96.5,236.9,104.6z" />
	<path fill="#0C0C0D" d="M787.1,110.4c-0.7,0.2-0.9,0.7-0.8,1.4c-7-6.7-13.5-14-19.8-21.4c0.4-0.4,0.7-0.7,1.1-1.1   C774.2,96.1,780.9,103,787.1,110.4z" />
	<path fill="#171311" d="M330.8,435.9c0.3,0.3,0.6,0.6,0.9,1c-2.9,4.3-7,7.5-10.7,11.1c-0.3-0.3-0.6-0.7-0.9-1   C323.1,442.9,327.2,439.7,330.8,435.9z" />
	<path fill="#91A2C3" d="M881,74.7c0.1,1.3,0.7,3-0.6,3.9c0-0.3,0-0.7,0.1-1.3c-6.5-1.4-13.1-0.4-19.7-0.9   C866.6,73.8,875.2,77.7,881,74.7z" />
	<path fill="#0C0C0C" d="M213.5,81.6c0.3,0.3,0.5,0.5,0.8,0.8C214,82.1,213.7,81.8,213.5,81.6z" />
	<path fill="#F6D9C7" d="M389.5,486.2c1.5-3.8,3-7.5,4.5-11.3c16.6-4.8,56.6-12.7,72.2-7.6c4.9,9.7,9.1,19.3,17.3,26.8   c0.7-0.1,1.4-0.2,2.2-0.3c-12.8-26.1-24-54-27.5-83.8c11.4-3.7,22.9-6.5,34.6-9c9.9,24.5,26.5,72.4,13.9,96.7   c-10,0.1-20.5,1.9-30.1-1.2c0.8-1.3,2.8-2.3,1.3-4.5c-14.6,2.2-28.7,1.4-42.9-2.2c-7-3.9-15.6-12-24.2-9.5c2.3,2.3,4.3,4.3,6.4,6.3   C408.1,487.3,398.4,486.5,389.5,486.2z M497.3,491.2c-3-1.9-5.9-10.8-9.3-5.2c1.3,4.3,6.8,10.5,10.8,5.5   C498.1,491.4,497.7,491.3,497.3,491.2z M500.3,490.9c3.3,0.7,7.9-5.3,5.7-8C504.9,486.4,502.8,488.8,500.3,490.9z M456.8,469.8   c1,1.4,2.2,2.5,4.4,2.4C459.3,470.2,459.3,470.2,456.8,469.8z M502.8,458.7c-1.5,0.5-1.5,1.4,0.3,3   C503.6,460.6,503.3,459.7,502.8,458.7z M505.4,469.7c-0.9,0.8-1.1,1.7,0,2.9C505.4,471.4,505.4,470.6,505.4,469.7z" />
	<path fill="#F6D9C7" d="M419.8,353.7c-3.4-0.8-7.1-0.9-10-3c0.1-14.7,4.3-30.8,7.1-45.5c0.8,0.1,1.8,0.3,2.7,0.4   c0.6-3.1,0.2-4.3-3-8.2c0-1.5,0-2.9,0-4.3c1-0.3,1.7-0.5,2.6-0.7c0.7-5.1-5.3-7-4.9-11.9c19.5,0.8,38.8,2.5,58.4,1.2   c-3.4,24.7,3.9,48.3,3.7,72.9c-15.9,3.5-31.9,5.8-47.6,0.3c-1.4-10.1-4.4-19.8-6-30c-1,1.1-1.2,2.6-2.9,2.8   c-0.7,0.1-0.6,0.8,0.3,1.9l0,0c0.9,1.5,0.9,3,0,4.5c1.1,6.1,0.9,13.1,1.8,19.3C421,353.6,420.4,353.6,419.8,353.7z M444.5,316   c-0.6,4-0.9,8.1-0.8,12.2c-1,1.3-1.9,2.6-2.9,3.8c0.7,1.4,1.3,1.9,2.3,3c0.4,2.7-0.9,6.7,0.6,9c6.1-8.5,3-20.2,1.9-29.7   C445.1,315.2,444.8,315.6,444.5,316z M456.8,304.5c0.4,0.9,1,1.4,2,1.1c-0.9-2.7-4.2-5.3-5.8-7.9c-1-0.8-0.1-2.7-1.8-3.1   C449.9,298.5,455.1,301.2,456.8,304.5z M460.6,354.9c4.1-0.2,3.4-9.3,3.8-12.6C462.3,345.5,462,350.8,460.6,354.9z M428.9,304.3   c-1.8,0.4-3.3,3.6-1.3,3.5C428,306.8,428.3,305.8,428.9,304.3z M446.6,292c0.4,1.6,1.5,2.2,2.2,0.5   C448.2,292.4,447.6,292.2,446.6,292z M465.2,328.6c-0.8,0.9-0.7,1.7,0,2.6C466,330.3,465.9,329.4,465.2,328.6z M464.2,336.4   c0.9-1.3,1-2.1,0-3.4C464.2,334.3,464.2,335.2,464.2,336.4z M444.1,310.9c1,0.1,1.1-1.2,0.2-1.3   C443.5,309.9,443.8,310.4,444.1,310.9z M465.2,325.1c0.2-0.4,0.3-0.7-0.2-0.9C464.8,324.6,464.8,324.9,465.2,325.1z" />
	<path fill="#F6D9C7" d="M388.2,403.5c11.4,2.3,23.2,5,33.6,10.2c-6.2,12.8-15.1,23.6-21.8,35.9c-8.1,19.9-10.2,40.3-30.8,51.6   c-22.9-3.8-31.7-19.9-41.6-38.9c-0.6,0.6-1.1,1.1-1.6,1.5c-1.6-2-1.6-4.2-1.2-6.8c4.3-3.6,6.5-9.7,13.1-10   c3.2,6.7,8.6,11.3,14.4,15.8c0.2,9.7-9,21-0.1,28.3c1.5-1.6,1.2-3.8,0.8-5.7c0-8.5,4.3-17.5,8-25.4   C370.5,441.9,374.7,418.9,388.2,403.5z M334.5,453.5c-0.1-3.2-0.1-3.2-2.1-3.6c-0.2,1.5,0,2.7,1.3,3.7c0.9,0.4,0.6,2.1,2.2,2   C336.1,454.4,335.5,453.9,334.5,453.5z M367.1,487.5c-2.1,1.8-4.7,3.7-4.3,6.8C365.8,502.6,372.7,484.6,367.1,487.5z M394.8,451.2   c3.2-1.6,3.1-7,2.5-10.4C396,443.4,393.9,448.1,394.8,451.2z M339.3,470.4c-0.4,2.5-0.4,2.6,1.6,3.1   C340.3,472.3,339.8,471.4,339.3,470.4z M396.8,430.1c1.4-1.9,1.4-1.9,0-3.1C396.8,428.1,396.8,429.1,396.8,430.1z M397.1,432.8   c-0.6,0.8-0.5,1.6,0,2.6C398,434,398,434,397.1,432.8z M344,476.3c-0.7-0.6-1.1-2-2.1-1.7C342.3,476.1,342.3,476.1,344,476.3z    M371,481.5c1-0.5,1.6-1,0.8-2C371,479.9,370.3,480.2,371,481.5z M368.4,484.9c1.1,1,1.9,0,1.2-1   C369.3,484.3,368.9,484.6,368.4,484.9z M397.6,422.9c0.1,0,0.2,0,0.3,0c0-0.4,0-0.7,0-1.1c-0.1,0-0.2,0-0.3,0   C397.6,422.2,397.6,422.5,397.6,422.9z" />
	<path fill="#FF9A77" d="M438.5,409.5c-4.3-3.5-14.2-3.9-15.3,2.6c-11-5-23.3-8.1-35.2-11.3c2.4-5.6,5.2-12,9.2-16.7   c1.3,0.3,2.3,1.1,3.7,0.3c-0.9-0.9-1.8-1.8-2.7-2.6c1.1-1.8,2-2.9,3.4-4.4c5.4,3,9.5,5.2,14.1,9.3c-1.9-4.3-6.7-7.6-10.4-9.9   c-2.2-0.4-2.5-1.1-1.5-3.5c3.9,1.7,7.7,3.6,11.6,5c0.3,0.5,0.5,1,1.1,0.2c-0.4-0.1-0.8-0.1-1.1-0.2c-2.7-3.1-7.4-4.2-10.8-6.7   c0.5-6.2,1.2-12.3,2.4-18.5c22.5,4.2,45.5,12.3,68.6,4.1c0.8,14.9,12.3,26.8,15.9,41.3c-11.3,2.6-22.2,6-33.4,8.8   c-1.6-2.3-0.8-5.8-2.1-8.5c-1.1-3.3,4.5-6.4,2.1-9.6c-3.6,1.1-5,4.3-7.1,7c-4.8,0.1-5.2,6.8-8.9,8.8   C439.9,405.8,441.1,409.6,438.5,409.5z M439.6,371.1c-0.6,3.7-2.1,7.2-2,11.1c2.3-6,4-11.8,4-18.4   C439.9,365.9,440.3,368.6,439.6,371.1z M475,373.4c1.9-0.7,2.5-0.7,4.4-2.2c-6.7,0.8-14.6,6-18.5,11.6   C464.6,379.9,474.3,378,475,373.4z M472,369.6c0.5-0.7,1.9-0.5,2-2c-3-0.9-5,2-7.3,3.1c-4.5,1.9-9.2,3.8-11.6,8.3   c1.7-0.2,3.4-0.9,4.6-2c1-1.2,3-0.4,3.7-1.8c2.3-0.4,4-2.3,6.4-2.7C471.7,371.9,471.7,372,472,369.6z M440.9,401.9   c-0.2-0.2-0.4-0.4-0.6-0.6c-1.4,1.1-2,1.1-2.2,3.3C439.4,403.4,440.1,402.6,440.9,401.9z M436.3,393.4c0.3-1.4,0.6-2.3-0.4-3.5   C435.9,391.1,434.9,392.1,436.3,393.4z M434.2,397.5c-0.1,0-0.3,0-0.4,0c0,0.5,0,0.9,0,1.4c0.1,0,0.3,0,0.4,0   C434.2,398.4,434.2,398,434.2,397.5z" />
	<path fill="#FFF0A7" d="M393.2,232.1c6-7.2,11.2-13.9,12.5-23.7c9.2,16.9,24.7,42.3,45.9,24.5c4.1-9.4-1.6-19.6-7.7-26.8   c-0.1-1.1,1.5-1.1,2.3-1.8c11.9,14.6,21.6,30.9,31.3,46.7c-1.6,9.5-4.3,18.6-4.7,28.3c-10.8,2.2-21.4-0.7-32.2,0.8   c-4.7,1.2-9.2-0.7-13.9-1c-4.2-0.8-8.9,0.3-12.6-2.1c0.7-2.5,1-5,2.2-7.4c3.8-0.5,8.4,1.2,11.6-1.5c1.8-0.1,2.9-1.8,4.9-1.9   c1.2-2.5,5-4.7,3.5-7.9c-4.6-1.7-8.7-0.2-13.3,0.7c-14.9,3.4-24.1-12.3-26.5-24.8C395.1,233.4,394.1,232.8,393.2,232.1z    M443.9,261.7L443.9,261.7c2.2,2.7,5.8,6,9.4,5.8c6.3-0.7,20.9,2.5,19.3-7.8c-9.6,0.2-18.2,2.4-26.5-3.8c-0.9,0.5-1.9,1.1-3,1.7   C443.3,259.1,442.5,260.8,443.9,261.7z" />
	<path fill="#F6D9C7" d="M300.4,69.2c-2.8-5.4-0.9-12.5-5.9-17.1c1.3-6.6-4.9-7.7-2.9-13.3c0.8-0.8,1.9,0.9,2.6,1   c0.7,1.3,0,2.8,1.6,3.6c0.1-0.5,0.3-1,0.4-1.5c2-0.3,2.6,2.7,4.5,2.8c1,0,1.5,2.1,2.1,2.2c2.8,0.3,4.6,3.3,5.9,5.4   c-2.8,27.4,25.3,45.6,28.7,72c13.6,16.3,26.4,34,35.3,53.3c2.3,3.3,5.8,6.2,10,6.1c10.8,7.6,14.2,9.7,20.3,19.6   c-0.1,7-1.9,13.4-5.6,19.3c-0.3-0.1-0.7-0.1-1.2-0.2c2.2-8.2-12.1-22.1-16.3-30.1l0,0c0.1-0.7,0-1.4-1-1.4   c-1.9,1.2-0.7,4.2,0.6,5.4c-0.3,0.7-0.7,1.3-1,1.9c3.8,9.5,6.9,19.6,10.8,28.8l0,0c3.4,4.1-0.9,7.4-3.1,10.9   c-8.8-10.2-7.6-25.9-13.4-37.8c-6.9-11.7-12.1-25.2-22-34.6c-0.8,1-0.6,2-0.6,2.9c-1.9,1.1,2.6,7.1,3.6,8.7l0,0   c0.1,3.1,4.7,6.5,3.8,9.2c-13.1-12.3-19.3-29.8-25.5-46.3c0.8-0.4,1.4-0.7,2.2-1.1c-2.5-8.2-11.9-12.9-14.5-21.3   C313.5,101.7,308.4,83.9,300.4,69.2z M304,53.3c-0.8-2.6-2.3-5.8-4.8-7c-0.2,0.2-0.4,0.3-0.5,0.5c1.8,1.9,2.2,5.2,4.6,6.5   c0.6,2.8,1.1,5.6,1.7,8.5c0.4,0.3,0.9,0.8,1.7-0.1C306.4,59,306,55.4,304,53.3z M334.3,126.2c1.1,2.6,1.4,2.7,3.4,1.8   C336.9,126.9,335.9,126.5,334.3,126.2z M310.2,73.7c-0.8,1.2-0.3,2,0.8,2.6C311.6,75.2,311.3,74.3,310.2,73.7z M308.7,70   c-0.7,1.3-0.2,2,0.9,2.6C310.3,71.3,309.6,70.7,308.7,70z M307.6,64.9c-1.4,1.2-1.4,1.2,0.3,2.4C307.8,66.5,307.7,65.8,307.6,64.9z    M332.2,123.2c0.4,0.5,0.7,1,1.2,1.6C333.8,123.4,333.8,123.4,332.2,123.2z M331.2,120.6c-0.2-0.2-0.5-0.4-0.7-0.6   C329.6,120.8,330.8,121.7,331.2,120.6z" />
	<path fill="#F6D9C7" d="M527.1,72.9c-6,24.4-7.1,49.8-20.2,71.6c-7.8,20.5-13,42.2-22.7,61.8c-6.5,11.9-3.8,26.2-6.8,39   c-7.9-11.2-15.8-24.2-24.2-35.7c0.1-0.4,0.2-0.9,0.4-1.7c7.1,3.6,3.7-11.9,13-19c1.9,3.4,2,7.3,3.3,10.5l0,0   c0.2,0.8,0.4,1.6,0.7,2.4c-0.3,0-0.7,0.1-1.2,0.1c-0.4,1.3-0.2,3.3,1.4,1.9c0.6,0.4,1.2,0.8,1.7,1.1c3-9.9-2-21.5,5.4-30.2   c5.7-11.9,15.9-21.8,17.2-35.4c0,0,0,0,0,0c0.3-0.2,0.8-0.4,0.8-0.6c-0.1-1.3,0.7-2.1,1.6-2.8c0.2-1.7-1.7-0.5-2.8-0.5   c-2.3-13,7.8-21.6,13.2-32.2c6.8-11.8,9.7-25.3,14.1-37.8c3.8-4.7,5.7-9.5,6.6-15.6c5.4,3.1,4.7,11.8,0.6,15.7   c-3.4-0.4-2.6,3.8-3.5,5.9C526.1,71.9,526.6,72.4,527.1,72.9z M468.2,225.1c2.2-3,3.5-10.3,1.6-13.6   C467.8,215.9,466.8,220.2,468.2,225.1z M486.6,190.9c-1.9,1.1-2.9,2.8-3.9,4.8c0.6,0.3,1,0.4,1.4,0.6   C485.6,194.7,486.6,193.1,486.6,190.9z M469.4,206.1c-0.5,1.3-0.6,2.4,0.1,3.7C470.9,207.8,470.9,207.5,469.4,206.1z M524.8,74.6   c-1.2,0.9-1.2,0.9,0,1.6C525.2,75.7,524.9,75.2,524.8,74.6z M498.7,133.6c0.2-0.1,0.4-0.2,0.6-0.3c-0.2-0.6-0.5-0.4-0.9-0.2   C498.5,133.3,498.6,133.4,498.7,133.6z M488.1,186.8c0.1,0,0.2,0,0.3,0c-0.1-0.3,0.3-0.9-0.2-0.9   C488.2,186.2,488.1,186.5,488.1,186.8z M523.1,78.6c-0.1,0.3-0.3,0.5,0,0.7C523.5,79.1,523.2,78.9,523.1,78.6z M489.4,182.5   c-0.2-0.4-0.4-0.1-0.7,0C488.9,182.8,489.2,182.6,489.4,182.5z" />
	<path fill="#F6D9C7" d="M453.9,182.1c4.5,9.7-5.8,8.1-12.3,8c-1.2-1.1-2.6-1.5-4.2-1.5c-0.5-0.8-1.3-0.9-2.2-0.7   c-0.8-0.3-1.5-1-2.4-0.7c-8.5-2.3-10.1-1.4-13.5-9.9c-0.7,0.1-1.4,0.3-2.1,0.4c-1.5-0.6-2.7-1.8-4.5-1.5c-0.7-0.8-1.4-1.5-2.1-2.3   c0.2-0.2,0.5-0.5,0.7-0.7c1,0.3,2,1.1,2.7-0.5c-1.7-2.4-4.1-5.3-0.8-8c1.3,0.4,1.1,1.2,1,2.1c-2.2,1.6,0.8,4.6,1.7,6.3   c1.1-0.9,1.9-1.7,1.9-3.2c-1.1-0.6-2.1-1.3-2.8-2.4c1.1-0.8,0.7-1.8,0.6-2.8c0.9-1.3,2.8,1.2,3.6-0.9c1.6,0.5,1.8-1.5,2.9-2.4   c-1.5,0.1-2.7,0.2-4.2,0.3c4.5-2.2,7.7-5.6,11.2-8.9c-1.5-1.1-0.1-2.1,0.2-3.4c3.3-2.2,1.3-8,2.9-11.4c1.3-0.5,2.4,0.2,3.5,0.6   c0.8-0.6,1.4-1.1,2-1.6c1.5-0.1,2.7,0.3,4.2,0.9c0.8-0.5,1.7-1,2.6-1.5c0.9,0.8,1.4,0,2-0.5c5.1,2.3,5.8,10.5,8,15.3   c-6.4,4.7,0.4,11.7,3.2,16.5c-1.5,2.9-5.4-0.6-5.9,3.3c0.8,0,1.4,0,1.9,0c0.6,1.1,0.1,2.6,1.4,3.2c-0.1,4-4.3,2-7,3.2   C449,180.5,453.9,178.6,453.9,182.1z M448,155.9c-3-0.4-6.4,1.4-7.5,3.7c1,0,1.9,0,3,0c0.6,1.8,1.9,1.8,3.4,1.2   C446.5,159,446.3,159.1,448,155.9z M443.2,153.2c2.4,0.1,5.4,2.7,6.9,0.8c-3.7-3.1-9.6-3.6-11.7,1.3   C440.1,154.5,441.6,153.9,443.2,153.2z" />
	<path fill="#E1C7B6" d="M414.1,280.6c-0.3,4.9,5.6,6.9,4.9,11.9c-0.8,0.2-1.6,0.4-2.6,0.7c0,1.4,0,2.8,0,4.3c3.2,3.9,3.6,5.1,3,8.2   c-0.9-0.2-1.8-0.3-2.7-0.4c-2.8,14.8-7,30.8-7.1,45.5c-3.6-1.1-7-2.7-10.8-2.9c-2.7-1.9-5.9-2.4-9-3.4c10-25.1,19.6-34.9,1.6-60.5   C398.1,280.9,406.8,280.7,414.1,280.6z M405.3,294.4c0.3,0.8,0.9,1,1.6,0.8c1.5-0.7-3.4-3.5-4.5-2.9   C402.9,293.9,404.5,293.6,405.3,294.4z M403.2,285.2c-0.8-1.3-3.6-3.6-4-1.4C400.2,284.8,401.3,285.6,403.2,285.2z M408.4,288.2   c-0.8-2.8-1.8-2.9-4.1-2.4C405.8,286.8,406.8,287.3,408.4,288.2z" />
	<path fill="#EBDA8F" d="M432.9,266c-0.4,0.8-1.9,0.5-2.6,1.1c-0.8,0.4-1.3,1.3-2.4,1.1c0.2-0.4,0.4-0.8,0.6-1.2   c-0.8-0.9-1.5-0.7-2.1,0.1c-0.1,1.2,0.8,1,1.5,1.1c-2.6,2.3-6.3,1.2-9.5,1.4c1.4-0.4,2.6-0.7,3.6-1.9c-19.1-1.4-15.7,0-28-12.6   c-0.2,4.9,3.9,8.7,7.4,11.6c4.3,3.9,10,1.3,14.9,3c-1.2,2.3-1.5,4.9-2.2,7.4c0.8,0.5,1.5,0.9,2.2,1.2c-8.6,0.7-17.6,0.5-26,2.8   c-3.4-7.4-5.5-16.6-8.1-24.4c1.1-2.9,1.1-2.9-0.1-6.6c2.7-6.5,6.6-12.4,11-18c1,0.6,2,1.3,3.3,2.2c2.4,12.5,11.6,28.2,26.5,24.8   c4.6-0.9,8.7-2.4,13.3-0.7C437.7,261.4,434.2,263.6,432.9,266c0-0.4,0-0.8,0-1.3c-1.4-0.1-1.4,0.5-1.2,1.4   C432.2,266.1,432.5,266,432.9,266z" />
	<path fill="#788AB2" d="M227.4,31.6c-10.1-1.9-21.9-0.4-32.6-1.5c0-2.8-0.4-5.7,0.2-8.6c13.1-0.8,26.9,2.3,39.6,0   c136.4,0.1,275,1.9,411.2,6.4c-136.3-0.3-273.4-4.1-410-5.7c0,1.1,0.3,2.4-1.1,3.1C231.7,26.7,230,29.7,227.4,31.6z" />
	<path fill="#E1C7B6" d="M350.4,168.3c0.1-0.9-0.2-1.9,0.6-2.9c9.9,9.4,15.2,22.9,22,34.6c5.8,11.9,4.6,27.7,13.4,37.8   c-1.8,3.1-3.6,6.1-5.4,9.1c-7.1-11.8-6.6-28.1-14.1-40.3c-5.9-10.5-16.8-17.1-22-28.3c-7.7-14.5-11.5-31.7-20.4-45.5   c-13-18.7-15.3-42.9-24.1-63.6c10.1,16.8,13,39.3,24.1,55.6c3,4.8,8.6,8.5,10,14c-0.8,0.4-1.5,0.7-2.2,1.1   c6.2,16.5,12.3,33.9,25.5,46.3c0.9-2.6-3.6-6.1-3.8-9.2c0.5,0.2,0.9,1.3,1.7,0.4c-0.1-0.8-0.4-1.1-1.1-1.7   c-0.2,0.5-0.4,0.9-0.6,1.3c-1.2-0.9-1.5-2.4-2.2-3.6c0.9,0.1,1.2-1.1,0.2-1.2c-0.1,0.4-0.2,0.8-0.2,1.2c-0.7-0.8-1.1-1.8-1.4-2.9   C351.3,169.7,351.3,169.7,350.4,168.3z M357.7,179.7c0,3.4,3,6.3,5.6,8.3C363.4,184.4,360.4,182.3,357.7,179.7z" />
	<path fill="#EF8A6A" d="M415.6,378.3c-4-1.4-7.8-3.3-11.6-5c-2.3,4.3,2.4,2.5,3.7,5c-0.3,1.4,1.2,1.8,1.5,2.9   c-2.9-0.4-4.8-2.3-7.4-3.7c-1.5,1.5-2.4,2.6-3.4,4.4c0.9,0.8,1.7,1.7,2.7,2.6c-1.4,0.9-2.4,0-3.7-0.3c-4,4.7-6.8,11-9.2,16.7   c-5.4-0.6-10.5-0.9-16-0.9c6.5-17.5,12.3-35.1,16.8-53.2c7,1.8,13.9,2.8,20.3,6.2c-0.6,0.1-1.2,0.1-1.9,0.2   c-1.2,6.2-1.9,12.3-2.4,18.5C408.1,374.1,412.9,375.1,415.6,378.3L415.6,378.3z M388.7,371.2c3.7,1.9,8.4,3.6,10.5,3.8   C396.4,372.5,393,371,388.7,371.2z M388,364.7c1.4,1.8,6.5,5.4,8.6,4.6C393.6,366.8,390.8,365.4,388,364.7z" />
	<path fill="#92A3C5" d="M382.8,67.8c-17.3,0.3-33.9-0.8-51.3-1.1c0.4-0.8,0.6-1.3,0.8-1.8c4.1-0.6,5-4.3,4.5-7.9   c29.6-1.6,60.1,0.9,90.1,0.6c1.3,1.5,2.5,3,3.8,4.4c-1.3,2.1-2.7,4.2-5,5.7C411.4,67.8,397.1,67.5,382.8,67.8z" />
	<path fill="#92A3C5" d="M595.7,70c-16.8-0.3-34.3,0.3-50.6-1.6c3.9-1.5,4.3-1.8,5.7-5.1c-0.4-1.2-0.9-2.6-1.4-3.9   c31.5-0.3,63.1,0.4,94.7,1.2c0.4,1.3,0.3,2.4,0.1,3.6c-2.1,1.9-4.2,3.9-6.3,5.8C623.8,70,609.8,69.7,595.7,70z" />
	<path fill="#F6D9C7" d="M432.2,235c-8.2-2.3-13.6-9.3-17.5-16.6c0.3-0.3,0.6-0.6,0.9-0.9c1.1,0.7,1.7,2.2,3.6,2.2   c-1.1-3.6-4.4-5.1-6.6-7.8c2.8-9.1,3.5-18.4,5.6-27.6c2.4,5.2,4.4,9.5,6.9,14.6c0.3-0.4,0.5-0.7,0.7-1c3.2,2.9,5.3,6.8,9.4,8.7   c0.2,2.4-1.1,4.2-0.7,6.6l0,0c-1.7,1.3-0.3,3.6-0.7,5.7c4-2.1,6.7-6.2,10.8-7.9c7.3,8.2,8.1,27.6-7.2,25c-0.5-0.8-1.2-1.6-1.8-2.5   c0.2-0.9,0.4-1.7,0.7-2.8c-0.9,0.3-1.5,0.5-2.1,0.7c-1-0.6-2-1.2-2.9-1.7c-1.1,1.6,1.8,3,2.4,4.5C433.5,235,432.7,234.8,432.2,235z    M425,201.2c0.5,1.4,0.5,2.7,2,3.6c0.5-1.8-0.3-3-0.9-4.3C425.7,200.7,425.4,200.9,425,201.2z M423.9,221.4c-0.7-1.4-1.3-2-2.5-1.4   C421.6,221.2,422.4,221.3,423.9,221.4z M426.6,207.1c0.7-0.9,0.3-1.5-0.7-1.9C425.3,206.1,425.6,206.7,426.6,207.1z M427.2,223   c-0.1,1,1.3,1.3,1.3,0.2C428.3,222.4,427.8,222.6,427.2,223z M432.6,220.9c-1.3-0.3-1.3-0.3-0.9,1.1   C432.1,221.5,432.4,221.2,432.6,220.9z" />
	<path fill="#92A3C5" d="M441.6,67c3.2-2.9,3.8-4.8,3.1-9.1c25.3,0.1,50.6,0.1,76,1c0.2,3.9-0.8,7.2-3.4,10.2   c-26.2,0.2-52.5,0-78.6-0.7C439.3,67.1,441.1,68.4,441.6,67z" />
	<path fill="#E1C7B6" d="M497.4,135.9c-0.9,0.8-1.7,1.5-1.6,2.8c0,0.2-0.5,0.4-0.8,0.6c-0.1-0.6-0.1-1.3-0.2-2   c-2.4,1.8-3,2.9-3.5,5.9c2.2-0.2,2.6-2.4,3.7-3.9c-1.3,13.6-11.5,23.6-17.2,35.4c-7.4,8.8-2.4,20.3-5.4,30.2   c-0.6-0.4-1.1-0.7-1.7-1.1c-0.1-1.5-0.4-3-0.8-4.4c0.6-0.3,1.1-0.7,0-1.4c0,0.6,0,1,0,1.4c-1.3-3.2-1.3-7.1-3.3-10.5   c-9.3,7.1-5.9,22.6-13,19c-0.2,0.8-0.3,1.2-0.4,1.7c-1.8-2.1-3.7-4.1-5.6-6.3c0.6-0.4,1.1-0.9,1.6-1.3   c2.5-10.6,13.9-14.1,20.2-21.8c8.2-11.5,16.1-24.4,19.4-38.3c2.2-20.5,5-23.8,15.8-40.5c3-8.8,8.8-16.3,11.6-25.1   c0.9-4.2,2.5-8,5.7-11c-4.4,12.5-7.4,26-14.1,37.8c-5.4,10.6-15.6,19.2-13.2,32.2c0.5-0.1,1-0.2,1.5-0.3   C496.2,135.9,496.8,135.9,497.4,135.9z" />
	<path fill="#E1C7B6" d="M479.2,488.3c-7.3-5-8.3-14.1-12.9-21c2,0.2,3.3,1.9,4.3,3.4c0.4,0.4,0.7,1,1.4,0.6   c-9.7-17.4-24.3-32.5-29.7-52.6c4.7-4.1,9.8-7.3,15.9-8.6c3.5,29.8,14.7,57.7,27.5,83.8c-0.8,0.1-1.5,0.2-2.2,0.3   c-2-1.4-3.3-3.1-4.1-5.3c0.4,0,0.9,0.4,1.4-0.3c-0.4-0.7-0.4-1.9-1.5-1.9C479.2,487.2,479.2,487.8,479.2,488.3z M475.6,480.3   c0-2.7-1.4-4.4-2.5-6.6C471.5,475.9,473.8,478.3,475.6,480.3z M478.6,481.9c-0.6,0.7-0.8,1.3,0.2,1.5   C479.5,482.9,479.2,482.4,478.6,481.9z" />
	<path fill="#E1C7B6" d="M348.9,477.3c0.3-0.4,0.5-0.9,0.8-1.3c0.4,0.2,0.8,0.5,1.3,0.8c6.1-24.6,11.3-49.9,20-74.1   c5.6-1.3,11.6-0.3,17.2,0.9c-13.4,15.4-17.6,38.3-27.3,56.6c-3.6,7.9-8,16.9-8,25.4c0.5,1.9,0.8,4.1-0.8,5.7   c-3.8-1.4-2.6-5.2-3.9-8c1.1-0.1,1-1.1,0-1.3c0.9-1-0.2-2,0-3c0.4,0.2,0.8,0.4,1.2,0.7c0.3-0.7,0.6-1.3,1-2.1   C349.8,477.3,349.4,477.3,348.9,477.3z" />
	<path fill="#92A3C5" d="M227.3,63.4c3.9-2.7,3.2-4.1,1.7-8c22.3,0.1,44.4,0.1,66.6,0.9c1.3,3.5,1.3,6.9,1.9,10.6   c-21.7,0.6-43.4,0-65.1-0.5c-1.9-1.6-4.5-0.3-7.4-0.7C226.1,64.6,226.7,64,227.3,63.4z" />
	<path fill="#F7EFD0" d="M338.1,435.5c1.8-3.4,5.8-1.4,8,0.7c-1.1,2.2-1.9,4.6-2.7,7.2c2.6-0.4,2.3-3.9,4.1-5.6   c2.5,3.4,3,8.7-0.2,12.2c-1.8,0.5-2.1,2.2-3.1,3.6c-1-3.4-3.1-5.9-5.2-8.6c-8.7-1.9-15.9,8.9-15.9,16.3c-0.3,0.3-0.6,0.6-0.9,0.9   c-0.4-0.2-0.8-0.4-1.1-0.6c-1.5,1.1-0.1,2.2-0.2,3.2c-0.3,0.3-0.7,0.7-1,1c-0.3,0-0.7,0-1,0c-0.5,2.6,1.6,4.4,2.8,6.4   c-2,0.8-3.3-2.8-5.2-0.8c-0.2,2.7,11.3,11.6,13,7.4c0.2,0,0.5,0,0.6,0c0.9,1.8,1.8,3.6,2.8,5.6c-3.1,7.4-8.5,16.9-17.2,18.1   c-2.2-1.7-4.5-3.5-5.9-6.1c0.6-0.9,1.1-1.7,1.6-2.5C310.9,464.7,317.6,455.7,338.1,435.5z M322.6,483.4c1.6,1.1,3.4,1.9,4.5-0.4   c-2.6-3.3-7.4-4.4-10.9-6.9c-0.5,0.5-0.9,0.9-1.4,1.4c2.1,2.7,4.7,4.1,7.5,5.7C322.3,483.3,322.4,483.4,322.6,483.4z M314.1,482.9   c0.4,2.7,8,6.9,9.1,3.3C323.8,483.8,315.6,481.4,314.1,482.9z" />
	<path fill="#E1C6B6" d="M389.5,486.2c8.9,0.4,18.5,1.2,27.7,0.5c-2.1-2.1-4.1-4.1-6.4-6.3c8.6-2.5,17.1,5.5,24.2,9.5   c-2.4-0.4-4.2-1.9-6.7-0.7c2.8,2,6.2,3.9,9.2,2.3c-1-0.6-1.7-1.1-2.5-1.5c14.2,3.6,28.4,4.4,42.9,2.2c1.5,2.2-0.5,3.2-1.3,4.5   c9.6,3.1,20.1,1.3,30.1,1.2c-0.8,5.4-43.2,2.2-48.9,0.4c-23.5-4.5-47.2-6.7-71.1-7.8C387.6,488.8,388.3,487.3,389.5,486.2z    M468.4,496.8c2.6,0,6.8,0,8-2.4c-2.8-1.2-5.8,1-8.7,1.3c-2.4,0-4.9-0.8-7.1,0.9C462.5,498.9,465.9,496.7,468.4,496.8z    M425.2,485.3c-0.3,2.1,2.5,3.3,2.6,1.1C427.1,486.2,426.3,485.8,425.2,485.3z M423,484.1c-0.7-0.8-0.9-1-1.6-0.3   C421.9,484.7,422.1,484.7,423,484.1z M452.7,496.1c0.2-0.2,0.3-0.4,0.5-0.6C451.9,494.4,451.6,494.9,452.7,496.1z" />
	<path fill="#E0C7B6" d="M435.2,206.7c-4.1-1.9-6.2-5.8-9.4-8.7c-1-6.4-2-8.8-4.5-10.6c0.2,2.3,0.9,4.1,1.5,6.3   c-2.3-2.7-2.8-6.1-4.6-9.3c-2.2,9.2-2.8,18.5-5.6,27.6c-2.7-1.5-4.3-4.5-6.4-6.8l0,0c0.1-0.2,0.1-0.5,0-0.7l-0.1,0   c3.7-4.7,4-12.8,3-18.9c-0.4-1.7,1.6-0.9,1.7-2.5c-0.8-0.2-1.6-0.5-2.5-0.8c0-0.5-0.1-1-0.1-1.5c1-0.2,1.9-0.4,2.9-0.6   c0-0.5,0-0.8,0-1.1c1.4-0.8,2.1,1.6,3.2,2.4c1.6-0.5,3-1,4.5-1.5c1.3,7.8,9,6.7,15.1,8.9c-0.6-1-0.9-1.3-1.1-1.7   c1-0.3,1.6,0.4,2.4,0.7c0.4,1.8,0.8,1.9,2.2,0.7c1.6-0.1,3,0.4,4.2,1.5c-6.9,0.9-6.5,10.4-5.9,15.7   C435.5,206.1,435.4,206.4,435.2,206.7z" />
	<path fill="#030202" d="M380.7,143.7c1.6-8.2,10.1-8.5,16.9-7.4c7.5-9,15.6-14.4,27.4-10.7c0,0.2,0,0.4,0,0.7   c-4.3,0.2-8.9-0.7-12.9,1.3c-0.1,0.2-0.1,0.5-0.2,0.7c-2.4-0.1-4.5,1.3-5.6,3.7c3.2-0.2,6.1,0.5,9.2,0.9c-3.2,2-8.4-0.9-11.6,1.1   c-2.1,2.6-6.2,4.5-5.7,8.1c-2,2.7-2.2,6.4-1.9,9.7c1,0.6,1.8,1.2,2.7,1.8c-0.3,0.3-0.6,0.6-0.9,0.9c-0.6-0.1-1.2-0.3-2.3-0.5   c0.8,1.2,1.2,1.9,1.7,2.7c-2.7,1.5,0,3,1.4,4.4c-0.2,0.2-0.4,0.4-0.6,0.6c-0.4-0.1-0.8-0.2-1.3-0.3c0.4,2.6,1.8,4.4,3.4,6.1   c-0.5,0.8-1,1.6-0.2,2.6c0.1,0.1-0.4,0.7-0.6,1l0,0c-0.2-0.3-0.3-0.5-0.5-0.8l-0.2,0c-2.2-1.6-1.5-4.7-3.6-6.5   c-0.4-4.6-1.5-8.4-1.8-13.2c-1.6,17.6,12.1,31.5,12.7,49.2c-0.3,0.3-0.6,0.6-0.9,1c-1.1-0.6-1.1-0.6-1.3,0.7c-1-0.4-1.5-1-1.5-2.1   c2.8-4.3-2.7-14.1-4-18.7c-0.1,0.2-0.2,0.4-0.3,0.5c0.2,1.2-0.6,2.9,0.6,3.6c0.3,1.4,0.2,2.9,0.1,4.3c0,0,0,0,0,0   c-0.2,0-0.4,0-0.7,0c-0.5-1.3,0.6-2.7-0.7-3.6c-4.7-21.9-13.5-25.6-0.7-47.7c-6.2-1.1-13.2,0.2-14.7,7.2c-0.3,0.2-0.5,0.5-0.8,0.7   c-0.3-0.3-0.5-0.6-0.8-0.9C380.7,144.6,380.7,144.2,380.7,143.7z" />
	<path fill="#7388AF" d="M312.2,69.2c67.8,0.8,135.6,0.8,203.4,2.3c-65.5,4-135-1.2-201.3-0.4C313.5,71,312.5,70.9,312.2,69.2z" />
	<path fill="#EADDB8" d="M338.1,435.5c-20.5,20.2-27.2,29.2-26.8,58.5c-0.5,0.8-1,1.6-1.6,2.5c1.5,2.6,3.7,4.4,5.9,6.1   c-4.1-0.3-7.1-2.6-9.7-5.4c-1.4-27,7.1-41.5,25.7-60.3C333.8,436.4,335.8,435.1,338.1,435.5z" />
	<path fill="#7286AD" d="M683.4,72.9c0.4,0.6,0.8,1.1,1.3,1.8c-51.5,0-103.4-0.7-154.9-1.5c-1.2-3.8,19.3-1,22.6-1.6   C596.1,72.4,639.7,72.4,683.4,72.9z" />
	<path fill="#DEAA7C" d="M407.6,27.2c1.9,0,3.8,0,5.8,0c3,5.9,38.4,35.3,26.8,37.6C429.3,52.8,415.8,41.2,407.6,27.2z" />
	<path fill="#788BB3" d="M296.2,79.5c-9.2-2.2-19.8-1.7-29.5-1.4c-1.3,6.7,1.1,14.6-1,20.8c0.2-9.4-0.6-18.8,0.3-28.1   c11.1,0,22,0,32.9,0c1.4,1.3,0.6,3.2,1.3,4.9C298.9,76.9,297.6,78.2,296.2,79.5z" />
	<path fill="#E1C6B5" d="M328.7,464.4c9.4,18.4,18.5,33.1,40.4,36.9c-1.4,1.1-2.7,2.3-4.3,3.5C347,505.2,329.5,481.5,328.7,464.4z" />
	<path fill="#91A2C4" d="M652.3,68.6c0.9-0.8,1.8-1.6,2.7-2.4c0.1-1.8,0.2-3.6,0.3-5.3c2.8-0.5,11.8-0.6,16.5-0.1   c2.9,3.2,6.5,6.3,9.1,9.8c-10,1.4-21.6-0.3-32.2,0C650.5,68,651,70,652.3,68.6z" />
	<path fill="#EF8A6A" d="M438.5,409.5c0.6-0.1,1.4,0,1.7-0.9c1.2-0.6,3-2.2,2.1-3.6c3.8-2.1,4.2-8.7,8.9-8.8c2.1-2.7,3.5-5.9,7.1-7   c1.8,2.2-1,4.7-1.7,6.8c-1.4,3.3,1.4,6.9,1,10.5c0,0.3,0.4,0.5,0.7,0.8c-5.7,2.5-11.8,4.3-16.4,9   C440,414.2,441.4,411.5,438.5,409.5z" />
	<path fill="#C59367" d="M333.8,62c-4.4,5.6-47.4-31.8-55.9-36.8c4.2,0.4,8.4-0.9,11.7,0.6c-1.3,0-2.6,0-4.1,0   c2.2,4.3,7.8,5,10.9,8.5c0.3-0.4,0.4-0.6,0.6-0.7C307.5,44.9,321.3,52.9,333.8,62z" />
	<path fill="#E0C6B5" d="M391,231.3c0.2-1.7-0.9-2.9-1.4-4.4c0.4,0,0.8-0.1,1.5-0.2c-0.9-0.8-1.2-0.5-1.5,0.2   c-2.5-4.6-4.4-10.4-5.1-15.8c0.5,0.2,1,0.3,1.5,0.5c1.7,0.1-5.2-12.6-6.1-13.8c-0.3,0.1-0.7,0.2-1,0.3c0.3-0.6,0.7-1.2,1-1.9   c-0.3-0.3-0.7-0.7-1.1-1.1c1.7,0.2,1.3-1.7,1.4-2.8c4.3,8.1,18.5,21.9,16.3,30.1c0.5,0.1,0.9,0.2,1.2,0.2   C395.6,225.7,393.4,228.6,391,231.3z M387.9,220.8c0.1,0.8,0.4,1.4,1.4,1.2c0.6-1.1,0-2-0.7-2.8c0.7-1.8,0.3-8.4-2.7-6   C386.6,215.5,387.2,218.1,387.9,220.8z" />
	<path fill="#F5EECF" d="M362.8,508.7c0.6,2,2.6,1.9,3,4.1c-2.2-0.3-3.6-1.5-5.3-1.9c-0.8,1.7-0.4,2.4,3.3,4.7   c-2.6,3.9-3,8.5-4.5,13c-1.6,0.7-3.3,1.5-5.1,0.8c-1.2-7.7-3.8-17-1.5-24.5c1.9,0.8,3.8,1.6,5.7,2.4   C359.5,508.8,361.9,506.9,362.8,508.7z" />
	<path fill="#DDAA7B" d="M333.8,62c-12.1-8.5-24.9-16.5-35.5-26.8c0.8,0,1.6-0.1,2.3,0.6c2,2.5,4.8,3.1,7.9,3   C312.6,43.5,340.2,55.9,333.8,62z" />
	<path fill="#D5BFA0" d="M381.5,145.9c3-1.6,6.3-5.9,10.1-4.4l0.1,0.3c-0.7,0.7-1.3,1.3-2,2c-0.2-0.2-0.4-0.5-0.7-0.8   c-4.1,4.3-4.8,9.3-3.4,14.7c0.4-2,0.4-4.2,0.8-6.2c0.2,4.4,0,9.5,2.3,13.2c0,0.7,0,1.4,0,2.2c-3.8,0-1.7-6.2-4.4-7.5   c0.1,4.6-0.4,9.3,0.9,13.9l-0.2,0.1c-0.2,0-0.3-0.1-0.5-0.1C381.6,164.4,375.8,155.1,381.5,145.9z" />
	<path fill="#C59366" d="M407.6,27.2c8.2,14,21.7,25.7,32.6,37.6c-8.3,0.1-30.4-30.2-38-37.9C404.3,27,405.9,27.1,407.6,27.2z" />
	<path fill="#E0C6B5" d="M420,334.2c0.9-1.5,0.9-3,0-4.5c0.8-0.3,1-0.7,0-1.6c0,0.8,0,1.2,0,1.6c-0.8-1.1-0.9-1.8-0.3-1.9   c1.7-0.2,1.8-1.7,2.9-2.8c1.6,10.2,4.6,19.9,6,30c-3-0.1-5.9-0.5-8.8-1.3c0.6-0.1,1.2-0.1,1.9-0.2c0.1-6-2.6-13-0.5-18.9   C420.8,334.4,420.4,334.3,420,334.2z M423.2,343.5c-1.4-0.1-0.8,10.6,1,10.4C424.4,350.1,424.9,346.7,423.2,343.5z M421.4,339.8   c0.2,0,0.3,0,0.5,0C421.9,338.5,421.5,338.5,421.4,339.8z" />
	<path fill="#FCFDFD" d="M451.2,193.1c-2.1,2.4-2.9,5.5-4.1,8.4c-3,1.6-6,3.1-9.5,4.8c-0.1-5,0.3-9.4,1.9-13.6   c3.3-1.4,7.1-0.1,10.6-0.5C450.5,192.4,450.9,192.8,451.2,193.1z" />
	<path fill="#90A2C4" d="M200.5,64.8c5-4.4,10.8-15.2,16.8-5.9c-0.1,2.7-2.1,4.4-3.3,6.6C209.5,65.1,204.4,66.6,200.5,64.8z" />
	<path fill="#FCFCFC" d="M669.5,58.4c-5.1,0-9.5,0-13.7,0c-1.4-4.5-0.1-9.9-0.5-15.2C660.7,47.7,664.7,53.1,669.5,58.4z" />
	<path fill="#E8DBB6" d="M352.7,504.8c-2.3,7.4,0.4,16.8,1.5,24.5c0.5,0.1,1,0.2,1.4,0.4c-1.2,0.4-2.4,0.8-3.8,1.2   c-4.4-8.6-5.7-19.3-2.6-28.7C350.6,502.9,351.8,503.8,352.7,504.8z" />
	<path fill="#C49266" d="M650.1,66.3c-6.7,1.5-3.6-29.5-5-35.2c1.3,1.8,2.4,3.2,3.5,4.7C647.6,45.5,650.7,56.2,650.1,66.3z" />
	<path fill="#90A2C4" d="M308.4,61.8c-0.1-0.2-0.1-0.4,0.1-0.6c0.6,0,1.1,0,1.5,0c1.1-1.5,0.4-3.1,0.8-4.6c1.7-0.7,3.7-0.2,5.8-0.4   c1.8,1.4,3.7,2.8,5.6,4.3c-0.2,2.9-2.9,4.2-4.2,6.4c-2.3,0.3-4.1,0.3-6.6,0.3c-0.6-1.8-1.3-3.5-1.9-5.2   C309.1,61.9,308.8,61.9,308.4,61.8z" />
	<path fill="#DEAA7B" d="M650.1,66.3c0.6-10.1-2.6-20.8-1.4-30.4c1.5,1.5,3.2,3.2,4.6,4.5c0,8.2,0,16,0,23.8   C652.3,65.2,651.9,66.7,650.1,66.3z" />
	<path fill="#C49266" d="M546.6,65.6c-0.7,0.9-1.7,0.6-3,0.5c-7.7-11.5-13.4-24.6-19.8-36.9c2.3-0.3,5.9-1.3,7.4,0.3   c-1.5,0.1-3.1-0.2-4.8,0.3c2.6,5.2,5,12,9.3,15.6c-0.2,1.3,1.4,1.7,1.6,2.8c-0.2,0.2-0.5,0.5-0.7,0.7   C540.4,53.8,541.4,62.3,546.6,65.6z" />
	<path fill="#D6C0A0" d="M385.2,160.4c1.7,1.9,0.3,6.5,3.6,6.5c2.1,4.6,0.8,10.6,4.4,14.5c-0.2,2,1.6,5.1,0,6.5   c-0.4-1-0.7-2-1.1-3.1c-0.2,0.5-0.4,0.9-0.7,1.5c-0.5-0.4-0.9-0.7-1.4-1.1c3.1-1.5-2-5.1-2-1.4c-1.5-3.1-2.8-7.7-2.9-10.3l0.2-0.1   c2,5.2,2,5.2,3.6,6.3C386.6,173.4,384.5,167.2,385.2,160.4z" />
	<path fill="#7885A8" d="M315.5,67.1c0.8-0.1,1.6-0.2,2.5-0.3c1.3-2.2,4-3.4,4.2-6.4c3,2.3,6.4,3.7,10.1,4.4c-0.2,0.5-0.4,1-0.8,1.8   c7.9,1.1,16.5-1,24,0.9C342.2,67.5,328.7,68.4,315.5,67.1z" />
	<path fill="#7382A6" d="M545.1,68.4c6,2.6,14.8-0.9,21,1.4c-11,0.2-22.1,0.1-33.1,0c-1.2,0-2.5,0.1-3-1.3l-0.1,0   c6.7,0.1,4.3-6,7-9.4C539.3,62.7,539.8,68.6,545.1,68.4z" />
	<path fill="#798AB0" d="M441.6,67c-0.5,1.4-2.3,0.1-2.9,1.4c-18.6-0.2-37.4,0.6-55.9-0.6c14.3-0.3,28.6,0,42.9-0.1   c2.3-1.5,3.7-3.6,5-5.7C433.3,65.7,437.4,66.7,441.6,67z" />
	<path fill="#DBA97B" d="M546.6,65.6c-5.1-3.2-6.2-11.7-10-16.8c0.2-0.2,0.5-0.4,0.7-0.7c0,0,0,0,0,0c0.3,0.2,0.5,0.5,0.8,0.7   c6.9,0.5,7.3,9.4,10.6,14.3C548.4,64.4,547.7,65.2,546.6,65.6z" />
	<path fill="#342429" d="M263.5,77.9c0-2.3,0-4.5,0-7c-5.1-0.2-11.2-1.5-15.9,0.5c-0.3-1.9-1-1.2-2.3-0.7c-12.5-1-26-1.5-38.3,0   c0-0.4,0-0.9-0.1-1.3c18.9-0.3,38.4-0.7,57.2,0.6c0,9.7,0,19.3,0,29C262.5,92.5,264.3,84.7,263.5,77.9z" />
	<path fill="#DAA87A" d="M535.7,45.3c-4.3-3.6-6.7-10.4-9.3-15.6c1.7-0.5,3.2-0.2,4.8-0.3c1.7,3.1,3.4,6.3,5.1,9.4   C535.1,41,535.9,43.2,535.7,45.3z" />
	<path fill="#7889AF" d="M650.1,69.1c-0.5,0.5-1,1-1.4,1.5c-17.6-0.1-35.4,0.6-53-0.6c14.1-0.3,28.2,0,42.3-0.1   c2.1-1.9,4.2-3.9,6.3-5.8C644.4,67,647.7,68.6,650.1,69.1z" />
	<path fill="#100D0C" d="M308.4,38.8c-3,0-5.8-0.5-7.9-3c-0.6-0.8-1.5-0.6-2.3-0.6c-1.5-1.3-1.7-3.2-2.2-5c0.3,0,0.6,0,0.8,0   c1,1.6,1.7,3.5,4,3.5c-0.1-2.1-1.9-2.8-2.7-4.2c0.3-0.3,0.5-0.5,0.8-0.8c0.8,0,1.7,0,2.6,0c2.5,1.8,5.6,3,7.4,5.9   c-1,1.2-2.3,2.4-0.7,3.5C308.4,38.2,308.4,38.5,308.4,38.8z M303.9,36.1c0.4-1.3,0.4-2.2-1-2.9c-0.3,0.7-0.5,1.2-0.7,1.8   C302.8,35.4,303.3,35.7,303.9,36.1z M307.4,37.8c-0.7-1-1.1-1.6-1.6-2.2C305.4,36.8,305.5,37.5,307.4,37.8z" />
	<path fill="#798AB0" d="M200.5,64.8c3.9,1.8,9,0.3,13.5,0.8c1.2-2.2,3.2-3.9,3.3-6.6c3.2,2.4,5.7,5.5,10,4.5   c-0.6,0.6-1.3,1.2-2.3,2.2c2.9,0.4,5.5-0.9,7.4,0.7c-10.9,0.3-21.8,0-32.7,0C199.5,65.4,200,65,200.5,64.8z" />
	<path fill="#5C7A9D" d="M645.8,27.9c-2.6-1.7-6.1,0.3-8.7-1.3c15.4,0.1,31.2-0.7,46.5,0.6c-8.6,0.8-18.1-1-26.2,0.7   c-1.8,0.5-8.8-1.4-8.4,0.8c8.2,0.6,17.4-1.2,25.1,0.7c-8.4,0.2-16.7-0.1-25.2,0.1c-0.1,1.1-0.1,1.9-0.2,2.7c-1.2-1.1-0.7-2.4-0.8-4   C647.1,28,646.4,27.9,645.8,27.9z" />
	<path fill="#DBA97A" d="M214.3,50.4c0.6-1.2,1.4-2.1,2.5-3.1c3.7,4.1,8.8,7.3,11.4,12.1c-0.5,1.5-1.5,2.1-3,1.9   C221.5,57.7,218.2,53.8,214.3,50.4z" />
	<path fill="#11100F" d="M381.5,145.9c-5.7,9.2,0.1,18.5,3.1,27.5c-1.1,1-0.9,2.4-0.9,3.7c-2.9-11.4-11.3-20.3-3.6-31.9   c0.2-0.1,0.4-0.2,0.6-0.2C381,145.3,381.2,145.6,381.5,145.9z" />
	<path fill="#DAC3B2" d="M525.6,48.2c0.3-0.5,0.5-1,0.8-1.4c1.3-0.1,1.3-0.1,1.4-1.5c0.3-0.3,0.6-0.7,1-1c1.3,2,1.3,2,1.3,6.8   c-0.4-0.4-0.9-0.7-1.5-1.3c-1.1,5.3-1.7,10.5-5.9,14.3c-1.2-6,2.6-10,4-15.7C526.3,48.3,525.9,48.3,525.6,48.2z" />
	<path fill="#B2BACB" d="M191.3,117.5c-0.4,6.4,0.7,13-0.7,19.3c-0.5-21,0.4-42-0.4-63c0.2-0.1,0.6-0.2,0.9-0.2   C191.3,88.2,191.4,102.9,191.3,117.5z" />
	<path fill="#647595" d="M264.3,69.9c-5.2-0.5-10.6-0.7-15.9-0.8c0-0.1,0-0.3,0-0.4c16.6-0.3,33.3,0.4,49.9,0.6   C287.6,71.2,275.4,69.4,264.3,69.9z" />
	<path fill="#D9A87A" d="M296.1,30.1c0.3,1.1,0.6,2.3,0.9,3.4c-0.1,0.2-0.3,0.4-0.6,0.7c-3.1-3.6-8.7-4.2-10.9-8.5   c1.5,0,2.8,0,4.1,0C291.8,27.2,293.9,28.7,296.1,30.1z" />
	<path fill="#E7CCBC" d="M436.5,211c0.8-2.5,2.5-3.9,5.2-4.5c0.5,0.8,1,1.6,1.5,2.3c-1.4,3.1-5.1,4.8-7.4,7.3   c-0.8-0.9-0.4-1.9-0.2-2.9C436.3,212.6,436.7,212,436.5,211z" />
	<path fill="#5D7DA1" d="M248.3,68.6c0,0.1,0,0.3,0,0.4c-13.5,0.2-27,0-40.6,0c0-0.2,0-0.4,0-0.6C221.3,68.3,234.8,68.3,248.3,68.6z   " />
	<path fill="#2E2A24" d="M393.2,187.9c2.1-7.2-3.1-16.1-2.1-23.9c0.9,1.9,0.9,4.6,2,6.6c-0.9,0.4-0.7,1.2-0.5,1.8   c2.3,5.2,2.9,10.6,1.8,15.9C393.6,188.7,393.3,188.3,393.2,187.9z" />
	<path fill="#C28F64" d="M214.3,50.4c3.9,3.4,7.2,7.3,10.9,10.9c-5-1-8.2-6-11.9-9.6C213.7,51.2,214,50.8,214.3,50.4z" />
	<path fill="#29252B" d="M265,69.9c10.9-0.6,22.9,1.2,33.3-0.7c0.9,0.2,0.7,0.9,0.7,1.5c-10.9,0-21.8,0-32.9,0   c-0.1,1-0.3,1.9-0.4,2.8C264.7,72.5,265,71.2,265,69.9z" />
	<path fill="#C0AD91" d="M399.1,186.9c-0.2-1.1-0.3-2.2-0.1-3.4c0.2,0,0.4,0,0.6,0.1c0,0.2,0.1,0.4,0.1,0.6c-0.2,0.7,0,1.2,0.6,1.5   c0.9,4.1,4.8,10.3,2.2,13.8C400.3,195.7,400.3,191.1,399.1,186.9z" />
	<path fill="#120E0D" d="M540.9,41.5c2.3,0.3,3.2,2.2,4.3,4c-0.5,1.2-1,2.4-1.4,3.6c-0.3-0.9-0.7-1.8-1.5-2.3c0,0,0,0,0,0   c-0.1-0.6-0.1-1.3-0.2-2.2c-0.8,1.5-1.4,2.6-2.1,3.7c-0.6-0.6-1.8-0.5-2-1.5c2.2,0.2,2.3,0,1.8-2.7c-0.4,0-0.7,0-1.1,0.1   c0.2-1.1,0.8-1.5,1.9-1.2C540.7,42.4,540.8,41.9,540.9,41.5z" />
	<path fill="#302524" d="M448.9,178.6c-0.2-0.4-0.4-0.7-0.6-1.2c2.6-1.1,6.8,0.8,7-3.2c0.3-0.3,0.6-0.6,1-1c1.3,1.6,0.9,3.1-0.2,4.3   c0.3,1.5,1.9,3.4,0.1,4.3C454.9,177.5,452.4,178.5,448.9,178.6z" />
	<path fill="#261A16" d="M409.1,352.9c-3.5-2-7.4-2.8-11.1-4.2c0.3-0.3,0.6-0.6,0.9-0.9c4.6,0.6,9.2,2,13.2,4.3   c-0.6,0.2-1.4,0-1.7,0.8C410,352.9,409.6,352.9,409.1,352.9z" />
	<path fill="#2E2321" d="M411.2,211.2c3.1,2.3,6.6,4.8,8,8.6c-3.1,0.1-4.4-5.1-6.7-4.3c-1.2-0.7-1.4-1.9-1.9-3   C410.8,212,411,211.6,411.2,211.2z" />
	<path fill="#7280A5" d="M207.8,68.5c0,0.2,0,0.4,0,0.6c-3.6,1-7.5,1.1-11.3,0.7C198.1,65.9,204.5,68.8,207.8,68.5z" />
	<path fill="#E4E3C5" d="M382.7,493.6c0.6,0.5,1.2,0.9,1.8,1.4c-1.3,2.3-5.8,5.1-7.4,4.1C378.2,496.9,380.9,495.5,382.7,493.6z" />
	<path fill="#322B27" d="M435.8,216.2c2.3-2.5,6-4.2,7.4-7.3c0.4,0.7,0.9,1.4,1.3,2.2c-3.3,1.2-5.7,4.5-8.7,6.5   C434.7,217.1,436,216.6,435.8,216.2z" />
	<path fill="#E3CDAF" d="M398.1,188.1c0.1,1.7,0.9,3.3,0.6,5c-3.3-1-3.6-6.8-2-9.5c0.5,0.9-0.5,2.1,0.7,2.9   C397.6,187,397.8,187.6,398.1,188.1z" />
	<path fill="#CFBEA5" d="M362.8,508.7c-0.9-1.8-3.3,0.1-4.4-1.5c3.8,0.3,7.6-0.8,11.2,1c-0.5,0.7-0.9,1.2-1.3,1.7   c-1.4-0.7-2.7-1.4-4.1-2.1C363.8,508.1,363.3,508.4,362.8,508.7z" />
	<path fill="#BFAD9E" d="M526.3,68.4c0-0.5,0.1-1,0.1-1.5c0.6,0,1.1,0.1,1.7,0.1c0-0.1,0-0.3,0.1-0.4c-0.4-0.1-0.8-0.3-1.2-0.4   c0.5-0.8,1.3-0.6,2.1-0.7c0.8,1,0.8,1,2.4,0.2c0,0.4,0,0.9-0.1,1.2c-2.4,1.1-3,3.8-4.2,6c-0.5-0.5-1-1-1.6-1.5   c2.1-0.3,2-1.9,2.2-3.6C527.1,68.1,526.7,68.3,526.3,68.4z" />
	<path fill="#938479" d="M532.3,59.1c0-2.2-0.2-4.5-0.9-6.6c0.4-0.4,0.8-0.8,1.2-1.3c1.3,1.1,1.7,2.7,2.3,4.2   c-1.3,0.7-0.5,1.9-0.7,2.9c-0.2,0.3-0.4,0.5-0.7,0.8c-0.1-1.6-0.1-3.3-0.2-4.9c-0.9,1.6-0.4,3.3-0.6,4.9   C532.7,59.1,532.5,59.1,532.3,59.1z" />
	<path fill="#CFB7A8" d="M533.6,59.1c0.2-0.3,0.4-0.5,0.7-0.8c0.2,0,0.5,0,0.7,0c-0.1,2-1,3.7-0.7,5.8c-0.7,0.8-1.4,1.5-2.1,2.3   c-0.2,0-0.5-0.1-0.7-0.1C532.2,63.9,533.2,61.6,533.6,59.1z" />
	<path fill="#2B2C29" d="M347.4,437.8c-1.8,1.7-1.5,5.2-4.1,5.6c0.8-2.7,1.6-5,2.7-7.2C346.8,436.5,347.5,436.8,347.4,437.8z" />
	<path fill="#CDAD9E" d="M448.9,178.6c2.6,0.4,5.6-1.5,6.6,2.1c-0.5,0.5-1,0.9-1.5,1.4C454,179.1,450.4,180,448.9,178.6z" />
	<path fill="#888274" d="M322.1,462.3c0.3-0.3,0.6-0.6,0.9-0.9c0.6,1.2,1.3,2.5,2,3.7c0.6,1.1,2.4,1.2,2.2,3   C324.9,467.1,323.9,465.9,322.1,462.3z" />
	<path fill="#C3AC9E" d="M298.2,29.4c0.8,1.4,2.6,2,2.7,4.2c-2.2,0-3-1.9-4-3.5C297.1,29.4,297.7,29.4,298.2,29.4z" />
	<path fill="#BBA98E" d="M396.7,183.6c-0.8,0.9-0.7,2-0.8,3.1c-0.7-2.3-1.4-5.4,0.1-7.4C397,180.5,396.7,182,396.7,183.6z" />
	<path fill="#C6BFA7" d="M319.9,465.9c0.3-0.3,0.7-0.7,1-1c1,1.5,1.9,2.9,2.9,4.4c0,0.3-0.1,0.7-0.1,1   C322,469.2,320.6,467.9,319.9,465.9z" />
	<path fill="#F4DBBB" d="M388,183.7c0-3.6,5.1-0.1,2,1.4C389.3,184.7,388.6,184.2,388,183.7z" />
	<path fill="#C4B3A4" d="M538.7,44c0.4,0,0.7,0,1.1-0.1c0.5,2.7,0.4,2.9-1.8,2.7C537.6,45.6,537.4,44.6,538.7,44z" />
	<path fill="#2E2B28" d="M436.5,211c0.2,0.9-0.3,1.6-0.9,2.2c-0.2,0-0.3,0-0.5,0c0.1-2.4-0.7-5.3,0.6-7.4   C435.9,207.6,435.5,209.5,436.5,211z" />
	<path fill="#8496B4" d="M404,201.7c0.2-1.2,0.2-1.2,1.3-0.7c1.3,0.9,0.9,2.3,0.9,3.6l0.1,0c-0.2-0.1-0.5-0.1-0.7-0.2   C405,203.4,404.5,202.5,404,201.7z" />
	<path fill="#B6AA9C" d="M412.4,215.4c1.3-1,2.1,1.4,3.2,2.1c-0.3,0.3-0.6,0.6-0.9,0.9C414,217.4,413.2,216.4,412.4,215.4z" />
	<path fill="#919B87" d="M330.1,478.9c-0.2,0-0.5,0-0.6,0c-0.5-1.5-2-1.9-2.9-2.9l0,0.1c0.9,0,1.9,0,2.8,0   C330,476.9,330.3,477.8,330.1,478.9z" />
	<path fill="#635751" d="M540,48.2c0.6-1.1,1.2-2.2,2.1-3.7c0.1,1,0.2,1.6,0.2,2.2c-0.9,0.5-0.6,1.4-0.8,2.1c-0.5,0.1-0.9,0-1.3,0.1   C540.1,48.7,540.1,48.4,540,48.2z" />
	<path fill="#938479" d="M534.3,64.1c0-1.5-0.2-3,0.6-4.3c0,1,0,1.9,0.7,2.7c-0.1,0.5-0.2,1.1-0.2,1.6   C535,64.1,534.7,64.1,534.3,64.1z" />
	<path fill="#DDDABE" d="M370.8,503.9c0.8,0.7,1.6,1.2,0.6,2.5c-0.6-0.5-1.1-1-1.8-1.7C370.2,504.4,370.5,504.1,370.8,503.9z" />
	<path fill="#352E2B" d="M470.7,468.6c0.8,0.7,1.5,1.5,1.3,2.7c-1.3,0.6-1.7-1-2.2-1.8C470.1,469.2,470.4,468.9,470.7,468.6z" />
	<path fill="#E2D0BF" d="M537.4,40.1c0.9,2.1,0.9,2.1-0.5,2.7C536.4,41.8,537,41.1,537.4,40.1z" />
	<path fill="#393635" d="M527.8,45.3c-0.1,1.4-0.1,1.4-1.4,1.5c0-1-0.6-2.2,0.7-3C527.1,44.4,527,45.1,527.8,45.3z" />
	<path fill="#56574B" d="M322.9,473.1c0.8,0.7,1.5,1.4,2.3,2.1l-0.1,0.1C323.8,475.4,322.7,474.5,322.9,473.1z" />
	<path fill="#7A786F" d="M308.4,38c-1-1-1-1.3,0-2.7C308.4,36.2,309.1,37.1,308.4,38z" />
	<path fill="#93837F" d="M432.2,235c0.5-0.2,1.3,0,1.5-0.8c0.4,0.4,0.8,0.7,1.3,1.2C433.8,235.9,432.9,235.8,432.2,235z" />
	<path fill="#A0A28D" d="M325.8,471.7c0.7,0,1.4,0,2.2,0c0.1,0.4,0.2,0.8,0.3,1.3C327.1,472.8,326.3,472.5,325.8,471.7L325.8,471.7z   " />
	<path fill="#E4CAB9" d="M535,58.3c-0.2,0-0.5,0-0.7,0c0.2-1-0.6-2.2,0.7-2.9C535.6,56.4,535.3,57.4,535,58.3z" />
	<path fill="#828372" d="M323.6,470.3c0-0.3,0.1-0.7,0.1-1c0.8,0.6,1.7,1.2,2,2.3l0.1-0.1C324.8,471.7,324.1,471.2,323.6,470.3z" />
	<path fill="#7393B0" d="M313.2,54c-0.8,0-1.5,0-2.2,0C311.4,52.4,311.5,52.3,313.2,54z" />
	<path fill="#9B9E89" d="M372.7,502.2c0.5-0.4,0.9-0.8,1.5-1.3C374.4,502.3,374.4,502.3,372.7,502.2z" />
	<path fill="#91ABAB" d="M451.2,193.1c-0.3-0.3-0.7-0.6-1-1c0.6-0.8,1.3-0.7,2.4-0.3C452,192.3,451.6,192.7,451.2,193.1z" />
	<path fill="#120E0D" d="M541.4,48.9c0.3-0.7-0.1-1.7,0.8-2.1l0,0c-0.1,0.7-0.1,1.3,0.7,1.5C542.7,49,542.1,48.9,541.4,48.9z" />
	<path fill="#292620" d="M398.8,192.4c-0.2-1-0.4-2-0.6-3.1c0.2,0,0.4,0,0.7,0C398.9,190.4,398.9,191.4,398.8,192.4z" />
	<path fill="#AAA690" d="M322.9,473.1c0,0.3,0.1,0.7,0.1,1c-0.8-0.6-1.5-1.1-2.3-1.7c0.3,0,0.7-0.1,1-0.1   C322.1,472.6,322.5,472.9,322.9,473.1z" />
	<path fill="#292620" d="M399.1,186.9c0.2,0.8,0.4,1.6,0.5,2.4c-0.2,0-0.5,0-0.7,0C399,188.5,399,187.7,399.1,186.9z" />
	<path fill="#788AB2" d="M236.7,25c0.2,0.7,0.1,1.2-0.7,1.5C236.2,25.9,236.4,25.5,236.7,25z" />
	<path fill="#7889AF" d="M652.3,68.6c-0.4,0.7-1,0.6-1.6,0.5C651.2,68.9,651.8,68.8,652.3,68.6z" />
	<path fill="#4E584D" d="M325.1,475.2c0.6,0,1.2,0.1,1.4,0.8l0-0.1C326,476,325.3,476.1,325.1,475.2L325.1,475.2z" />
	<path fill="#635751" d="M543,48.2c-0.8-0.2-0.8-0.8-0.7-1.5c0.3,0.3,0.6,0.5,0.9,0.8C543.1,47.7,543,48,543,48.2z" />
	<path fill="#0B0B0A" d="M330.1,477.5c-0.2-0.5-0.5-1-0.7-1.5C330.2,476.2,330.2,476.8,330.1,477.5z" />
	<path fill="#120E0D" d="M540.1,48.9c0.2,0,0.5,0,0.7,0c0,0.2,0,0.5,0,0.7c-0.6-0.2-1.1-0.4-1.7-0.6C539.5,49,539.8,49,540.1,48.9z" />
	<path fill="#C49266" d="M538,48.9c-0.3-0.2-0.5-0.5-0.8-0.7C537.5,48.4,537.8,48.6,538,48.9z" />
	<path fill="#7382A6" d="M529.3,68.4c0.2-0.2,0.4-0.4,0.6-0.5c0.1,0.2,0.1,0.4,0,0.7l0.1,0C529.8,68.4,529.5,68.4,529.3,68.4z" />
	<path fill="#C49266" d="M649.4,36.6c-0.2-0.2-0.5-0.5-0.7-0.7C648.9,36.1,649.2,36.4,649.4,36.6z" />
	<path fill="#0C0C0C" d="M214.3,80.2c0.2,0.2,0.4,0.4,0.6,0.6C214.7,80.6,214.5,80.4,214.3,80.2z" />
	<path fill="#070607" d="M405.5,204.3c0.2,0.1,0.5,0.1,0.7,0.2c0.1,0.2,0.1,0.5,0,0.7C406,204.9,405.7,204.6,405.5,204.3z" />
	<path fill="#070607" d="M406.2,205.2c0.2,0.3,0.4,0.5,0.6,0.8C406.6,205.7,406.4,205.5,406.2,205.2z" />
	<path fill="#AAA690" d="M320.6,471c-0.2-0.3-0.4-0.5-0.6-0.8C320.3,470.4,320.4,470.7,320.6,471z" />
	<path fill="#AAA690" d="M321.2,471.7c-0.2-0.2-0.4-0.5-0.6-0.7C320.9,471.2,321.1,471.5,321.2,471.7z" />
	<path fill="#120E0D" d="M544.4,54.1c-0.2-0.3-0.3-0.6-0.5-0.9C544,53.6,544.2,53.9,544.4,54.1z" />
	<path fill="#120E0D" d="M542.9,51.3c-0.2-0.3-0.4-0.6-0.6-0.9C542.5,50.7,542.7,51,542.9,51.3z" />
	<path fill="#120E0D" d="M543.8,49.4c0.2,0.3,0.4,0.6,0.5,0.9C544.2,50.1,544,49.7,543.8,49.4z" />
	<path fill="#120E0D" d="M543.6,52.7c-0.2-0.3-0.4-0.6-0.5-0.9C543.3,52.1,543.5,52.4,543.6,52.7z" />
	<path fill="#E1C6B5" d="M369.2,501.3c0.3-0.2,0.5-0.4,0.8-0.6C369.8,500.8,369.5,501.1,369.2,501.3z" />
	<path fill="#120E0D" d="M542.3,50.3c-0.3-0.2-0.6-0.4-0.9-0.6C541.7,49.9,542,50.1,542.3,50.3z" />
	<path fill="#120E0D" d="M544.5,50.8c0.2,0.3,0.4,0.6,0.5,1C544.9,51.5,544.7,51.2,544.5,50.8z" />
	<path fill="#020101" d="M683.6,27.1c-220.9-3.5-442.4-6.2-663-10.4c282.8,0.1,575,6.4,859.4,12.5C815.1,31.3,748.9,26.6,683.6,27.1   z" />
	<path fill="#6681A6" d="M683.6,27.1c27.4,0.4,55.3,0,82.5,1.5c-4,0-8,0.1-12.5,0.2c1.3,0.6,2.1,0.9,2.9,1.3   c-1.5,0.3-3.2-0.4-4.3,0.9c0.1-0.7,0.2-1.4,0.2-2.3c-31.6,1.5-63.4-0.7-95.1-0.9C665.5,26.1,675,27.9,683.6,27.1z" />
	<path fill="#4A5C75" d="M129.6,18.6c8,0.4,16.3-0.8,24.1,0.6c-7.5-0.7-14.4,1.7-21.6,0.3c-0.1,0.5-0.1,0.9-0.2,1.2   c-0.3,0-0.5,0-0.8,0.1c-0.5-0.5-0.9-0.9-1.4-1.4C129.6,19.1,129.6,18.8,129.6,18.6z" />
	<path fill="#4A5C75" d="M129.7,19.3c-0.3,0.2-0.5,0.4-0.8,0.7C129.1,19.7,129.4,19.5,129.7,19.3z" />
	<path fill="#050505" d="M192.7,52.5c0-10.6-0.4-21.2,0-31.7c0.2,0,0.5,0,0.7,0c2,10.1,0.1,21.2,0.7,31.6   C193.6,52.5,193.1,52.5,192.7,52.5z" />
	<path fill="#271F22" d="M194,52.4c-0.6-10.4,1.3-21.5-0.7-31.6c7.7,0,15.4,0,23.1,0c-6.8,1.7-14.2,0.2-21.4,0.7   C193.8,31.7,196.1,42.7,194,52.4z" />
	<path fill="#1B1D21" d="M813.9,104.6c-0.1-9-0.6-17.9,0.1-26.9c3.3,1.4,2.2,23,1.1,26.8C814.8,104.5,814.3,104.6,813.9,104.6z" />
	<path fill="#A3AFC7" d="M812.2,122.8c0.2,15.3,1,30.6-0.5,45.8C812,153.5,810.6,137.4,812.2,122.8z" />
	<path fill="#C6D3E3" d="M809.1,92.7c-0.2,0.7-0.9,0.7-1.5,0.7C806.9,92.6,808.6,91.9,809.1,92.7z" />
	<path fill="#798BB3" d="M744.3,29.3c2.3-1.3,5.6-0.2,8.3-0.6c0.4,4.4-3.4,6.4-6.2,9.3c-10.9-1.7-23.2,0-34.6-0.6   c-0.2-2.4,0.5-5.1-0.8-7.3c12.5-1.1,27.7,1.8,39.8-0.6C748.3,29.4,746.3,29.3,744.3,29.3z" />
	<path fill="#070707" d="M709.7,61.1c-0.6-10,0-20.2-0.2-30.3c0.5-0.3,1-0.5,1.5-0.8c0,0,0,0,0,0c-0.1,10.2,0,20.4,0.1,30.6   C710.8,61.3,710.2,61.1,709.7,61.1z" />
	<path fill="#3A3339" d="M711.1,60.6c-0.1-10.2-0.1-20.4-0.1-30.6C712.4,39.7,712.2,51.1,711.1,60.6z" />
	<path d="M265,69.9c1.3,9.4,0.5,19.3,0.7,28.9c-3.4,2.2-0.6-25.1-1.4-29C264.5,69.9,264.7,69.9,265,69.9z" />
	<path fill="#92A3C5" d="M686.1,67.5c-8.5-7-27.5-27.1-29.7-29.8c2.6-0.4,25.2-0.5,29.6-0.1C686.7,47.4,686.5,57.6,686.1,67.5z" />
	<path fill="#030303" d="M691.1,30c1.6,9.4,0.4,32.7,0.1,36.2c-3.3-8.6-0.4-19.4-1.3-28.8C690,34.9,688.5,31.6,691.1,30z" />
	<path fill="#3A3339" d="M711,30.1c-0.5,0.3-1,0.5-1.5,0.8c-0.4-1.3-1.5-1.3-2.6-1.3c-10.9,0-21.8-0.1-32.8-0.2   c-0.5-0.9-1.5-0.5-2.3-0.7c0-0.2,0-0.4,0-0.6c17.3,0.9,34.8-0.1,52.1,1.3c0,0.2,0,0.4,0,0.6C719.8,30.5,714.9,29.4,711,30.1z" />
	<path fill="#92A3C5" d="M170,29.4c0.2,10.2,1.2,19.1,0.9,29.4c-11.5-8.2-20.6-19.9-30.2-30.1C150.7,28.7,159.7,29.8,170,29.4z" />
	<path fill="#030303" d="M175.3,21.5c-1.8,12.1,0.3,24.3-0.8,36.7c-4.2-11.1,0.3-24.7-2.2-36.7C173.3,21.1,174.3,19.9,175.3,21.5z" />
	<path fill="#252227" d="M131.8,20.6c0.1-0.3,0.1-0.7,0.2-1.2c11.6,1.4,23.5,0.2,35.2,0.7C155.8,21.9,143.5,20.1,131.8,20.6z" />
	<path fill="#3C3542" d="M162.8,20.8c6.9-0.6,14.1-1.5,21.1-0.1c0,0.2,0,0.4,0,0.6c-2.9,0-5.8,0.1-8.6,0.1c-1-1.5-2-0.4-3,0   C169.1,21.2,165.8,21.8,162.8,20.8z" />
	<path fill="#271F22" d="M183.9,21.3c0-0.2,0-0.4,0-0.6c2.9,0.1,5.9-0.4,8.7,0.1c-0.1,0.3-0.1,0.6-0.2,0.8   C189.6,21.5,186.8,21.4,183.9,21.3z" />
	<path fill="#92A3C5" d="M243.8,77.3c0.4,4.2,0.3,24.1-0.1,27c-9.7-8.5-17.7-19.2-28.2-26.7C223.9,76.4,234.6,77.4,243.8,77.3z" />
	<path fill="#010101" d="M245.4,70.6c1.3-0.4,1.9-1.2,2.3,0.7c-0.7,10.6,1.4,22.5-0.9,32.5C243.9,93.4,246.7,81.6,245.4,70.6z" />
	<path fill="#92A3C5" d="M791,109.4c-9-9.1-18.1-16.9-24.8-27.8c8.1,0,16,0,24.1,0C790.4,91.2,791.6,99.6,791,109.4z" />
	<path fill="#0D0C0F" d="M881,74.7c-0.2,0-0.4,0.1-0.6,0.3c-40.1-1.6-81.4,1-120.9-2.9c40.4,0.5,81.3-0.4,121.5,1.6   C881,74,881,74.4,881,74.7z" />
	<path fill="#060709" d="M796.8,77.9c0.6,3,0.7,27.9,0.1,31.6c-3.2-8.8-0.4-19.9-1.3-29.5C795.6,79.1,795.6,78,796.8,77.9z" />
	<path fill="#DEAB7C" d="M78.9,22.1c2.9,0,5.8,0,8.4,0c13,11.4,25.7,22.5,38.6,33.8c0,1.2,0.7,2.7-0.7,3.8   C109.8,47.9,93,35.9,78.9,22.1z" />
	<path fill="#C59366" d="M78.9,22.1c14.1,13.8,30.9,25.8,46.3,37.6c-0.9,1.4-2.5,0.4-3.4,1.4c-16.9-10.7-31-25.9-46.6-38.7   C76.6,21.7,77.8,22,78.9,22.1z" />
	<path fill="#91A2C4" d="M160.7,58.5c-10.5,0.8-22,2.4-32.4,0.6c-0.1-1.6-0.2-3.2-0.3-5c9.7,1,18.9,0.2,28.8,0   C158,55.5,159.3,57,160.7,58.5z" />
	<path fill="#6E86AC" d="M170.8,69.2c-20.2,1.3-41.6-0.6-62.2-0.8c-0.5-1-1.4-0.6-2.2-0.7c0-0.2,0-0.4,0-0.7   c19.9,0,39.7,0.8,59.6,0.7C167.7,67.7,169.8,67.5,170.8,69.2L170.8,69.2z" />
	<path fill="#9ACDD5" d="M148.4,54.1c-4.8,1-11.1,1.1-15.9,0C137.8,54.1,143.1,54.1,148.4,54.1z" />
	<path fill="#070606" d="M170.8,69.3c-0.2-0.3-0.4-0.5-0.6-0.8C170.4,68.7,170.6,69,170.8,69.3z" />
	<path fill="#798BB3" d="M881,73.7c-53.5-2.3-107.7-0.9-161.5-2.2c1.7-2.6,3.9-4.2,5.8-6C731,67.5,739,66,745.3,66   c0.9-1-0.2-2.5,1.1-3.3c0.1,1.3,0.1,2.6,0.2,3.7c3.3,4.8,9.5,3.6,12.2-1.7c0.1,0.4,0.2,0.9,0.4,1.6c26.7,0.8,53.6,0.1,80.3,1.4   c10.3,1.5,35-3.3,41.6,2.7C881,71.3,881,72.5,881,73.7z" />
	<path fill="#DDA97B" d="M770.5,33.9c-5.7,10.7-8.8,24.2-16.9,33c-0.9-0.2-1.9,0.4-2.8-0.7c5.7-10.8,9.5-22.4,15.2-33.2   C767.7,33.2,769.3,32.5,770.5,33.9z" />
	<path fill="#C49367" d="M770.5,33.9c-1.1-1.5-2.7-0.7-4.4-0.9c-5.7,10.8-9.5,22.5-15.2,33.2c0.9,1.1,1.9,0.5,2.8,0.7   c-3.3,2.4-6.6-2-4.6-5c4.7-9.9,8.9-20,13.9-29.7c2.8,0,5.3,0,8.3,0.1C770.8,33.2,770.7,33.6,770.5,33.9z" />
	<path fill="#8FA1C2" d="M746.3,62.7c-1.3,0.8-0.2,2.3-1.1,3.3c-6.3,0-14.3,1.5-19.9-0.6c1.1-1.4,2.3-2.8,3.4-4.1c6,0,11.9,0,18,0   C746.6,61.9,746.5,62.3,746.3,62.7z" />
	<path fill="#6888AF" d="M716.3,74.7c0.4-1.1,1-1.3,2-1.3c12.5,0,24.8-0.1,37.3,0.4C743.7,76.7,729.1,74.2,716.3,74.7z" />
	<path fill="#8FA0C2" d="M106.4,67.7c0.8,0.1,1.7-0.3,2.2,0.7c-5.8,0-11.6,0-17.3,0C95.7,66.7,101.5,68.3,106.4,67.7z" />
	<path fill="#100D0C" d="M456.2,173.3c-0.3,0.3-0.6,0.6-1,1c-1.4-0.6-0.9-2.1-1.4-3.2c-0.5,0-1.1,0-1.9,0c0.5-3.9,4.3-0.4,5.9-3.3   c-2.8-4.8-9.7-11.8-3.2-16.5c-1.7-5-3.4-10.4-6.4-14.8c0-0.5,0-1,0-1.5c-0.7-1.1-1.4-2.1-2.9-2.1l0,0c-0.5-1.3-1.5-2.1-2.9-2.2l0,0   c-0.4-1-1.1-1.6-2.2-1.5l0,0c-1.6-2-4.3-1.2-6.5-2.2c-0.8-0.9-1.9-0.6-2.9-0.8c-1.5-1.2-4-0.2-5.8-0.6c-2.2-1.8-6.1-0.3-8.9-0.8   c10.5-1.7,25.6-0.9,32.4,8.4c2.8,6.7,10.7,14.5,5.2,21.8c0.8,0.2,1.3,0.3,2.4,0.6c-0.8,0.7-1.4,1.2-2.1,1.8   c0.6,4.7,9.5,10.2,2.1,13.4C456.2,171.8,456.2,172.6,456.2,173.3z" />
	<path fill="#D5BFA0" d="M380.7,145c-0.2,0.1-0.4,0.2-0.6,0.2c-0.1-0.6,0-1.2,0.6-1.5C380.7,144.2,380.7,144.6,380.7,145z" />
	<path fill="#D5BFA0" d="M379.9,145.9c-0.1,0.3-0.3,0.6-0.4,0.9C379.7,146.5,379.8,146.2,379.9,145.9z" />
	<path fill="#E1C6B6" d="M497.4,492.8c-0.6,0.8-1.4,0.5-2.2,0.5c-0.1-0.2-0.3-0.4-0.4-0.5c-0.1,0.2-0.1,0.3-0.2,0.5   c-3.4-1.3-5.3-4-6.5-7.4c3.4-5.6,6.3,3.3,9.3,5.2C497.2,491.7,496,492.3,497.4,492.8z" />
	<path fill="#392E2C" d="M500.3,490.9c2.5-2.2,4.5-4.5,5.7-8C508.3,485.6,503.6,491.6,500.3,490.9z" />
	<path fill="#3E2F2C" d="M456.8,469.8c2.5,0.3,2.5,0.3,4.4,2.4C459.1,472.3,457.9,471.2,456.8,469.8z" />
	<path fill="#514540" d="M502.8,458.7c0.6,0.9,0.8,1.9,0.3,3C501.3,460.1,501.2,459.3,502.8,458.7z" />
	<path fill="#4D423D" d="M479.2,488.3c0-0.6,0.1-1.1,0.1-1.7c1.2,0,1.1,1.2,1.5,1.9c-0.5,0.8-0.9,0.4-1.4,0.3   C479.4,488.6,479.3,488.4,479.2,488.3z" />
	<path fill="#67534E" d="M497.4,492.8c-1.4-0.5-0.2-1.1-0.1-1.6c0.4,0.1,0.8,0.2,1.5,0.3C498.2,492.1,497.8,492.5,497.4,492.8z" />
	<path fill="#2B2524" d="M505.4,469.7c0,0.8,0,1.7,0,2.9C504.3,471.4,504.5,470.6,505.4,469.7z" />
	<path fill="#66665F" d="M494.5,493.3c0.1-0.2,0.1-0.3,0.2-0.5c0.1,0.2,0.3,0.4,0.4,0.5C495,493.4,494.7,493.4,494.5,493.3z" />
	<path fill="#E0C7B6" d="M443.8,327.6c0-1.4,0-2.9,0-4.3c2.3,0.1,2.3-4.8,2.3-6.6c1,8.6,3.4,19.8-2.3,27.4c-1.5-2.3-0.2-6.3-0.6-9   c-0.6-0.7-1.1-1.2-1.6-1.7c0.7,0,1.4,0,2,0c0.9-2.1,2.9-2.2,3.1-4.2C446,327.9,445.1,327.4,443.8,327.6z" />
	<path fill="#221E1D" d="M460.6,354.9c1.5-4.1,1.7-9.4,3.8-12.6C464,345.6,464.7,354.7,460.6,354.9z" />
	<path fill="#1C1716" d="M446.7,329.1c-0.1,2.1-2.1,2.2-3.1,4.2c-0.6,0-1.3,0-2,0c-0.2-0.4-0.5-0.8-0.8-1.3c1-1.3,2-2.6,2.9-3.8   C444.9,328.3,446.1,327.9,446.7,329.1z" />
	<path fill="#392E2C" d="M456.8,304.5c-1.7-3.2-6.9-5.9-5.5-9.9c1.6,0.5,0.8,2.3,1.8,3.1c1.7,1.8,3,4.1,4.6,6   C457.4,303.9,457.1,304.2,456.8,304.5z" />
	<path fill="#2D2825" d="M445.3,321.8c-0.1,0.1-0.2,0.3-0.1,0.4c-0.5,0.1-0.9,0.2-1.4,0.4c0.3-2.2,0.5-4.4,0.8-6.6   C446.4,317,445,320,445.3,321.8z" />
	<path fill="#DAC0B0" d="M445.3,321.8c-0.3-1.8,1.1-4.8-0.7-5.8c0.3-0.4,0.6-0.8,1.2-1.7C446,317.1,446.7,319.4,445.3,321.8z" />
	<path fill="#27211F" d="M428.9,304.3c-0.6,1.5-0.9,2.6-1.3,3.5C425.6,307.9,427.1,304.7,428.9,304.3z" />
	<path fill="#6E6962" d="M456.8,304.5c0.3-0.3,0.6-0.5,0.8-0.8c0.7,0.4,1.4,0.7,1.2,1.9C457.8,305.9,457.2,305.3,456.8,304.5z" />
	<path fill="#644F4A" d="M446.6,292c1,0.2,1.6,0.4,2.2,0.5C448.1,294.1,447,293.5,446.6,292z" />
	<path fill="#3C302E" d="M465.2,328.6c0.7,0.9,0.8,1.7,0,2.6C464.6,330.3,464.5,329.4,465.2,328.6z" />
	<path fill="#353433" d="M464.2,336.4c0-1.3,0-2.1,0-3.4C465.2,334.4,465,335.2,464.2,336.4z" />
	<path fill="#403935" d="M444.1,310.9c-0.3-0.5-0.6-1,0.2-1.3C445.3,309.6,445.1,310.9,444.1,310.9z" />
	<path fill="#DAC0B0" d="M446,328.3c-0.7,0-1.5-0.1-2.2-0.1c0-0.2,0-0.4,0-0.6C444.6,327.7,445.5,327.3,446,328.3z" />
	<path fill="#8E756E" d="M420,334.2c0.4,0.1,0.8,0.2,1.3,0.4c-0.2,0.4-0.4,0.7-0.6,1.1C420.4,335.1,420.2,334.7,420,334.2z" />
	<path fill="#DAC0B0" d="M443.8,322.6c0.5-0.1,0.9-0.2,1.4-0.4c0,1-0.7,1-1.4,1C443.8,323,443.8,322.8,443.8,322.6z" />
	<path fill="#7A6F6B" d="M465.2,325.1c-0.5-0.2-0.4-0.5-0.2-0.9C465.6,324.5,465.5,324.7,465.2,325.1z" />
	<path fill="#DDC5B4" d="M367.1,487.5c4.2-2.3,1.2,7.5-0.9,8.4c-2.4,1.5-4-1.2-3.4-3.4c2.3,0.1,3.9-2.6,5.2-4.3   C367.6,487.9,367.3,487.7,367.1,487.5z" />
	<path fill="#1B1817" d="M394.8,451.2c-1-3.1,1.2-7.8,2.5-10.4C397.9,444.1,398,449.6,394.8,451.2z" />
	<path fill="#2F2321" d="M367.1,487.5c0.3,0.2,0.6,0.4,1,0.6c-1.3,1.8-2.9,4.4-5.2,4.3C363.5,490.3,365.4,489,367.1,487.5z" />
	<path fill="#2B2422" d="M333.6,453.6c-1.3-0.9-1.5-2.2-1.3-3.7c2,0.4,2,0.4,2.1,3.6C334.2,453.6,333.9,453.6,333.6,453.6z" />
	<path fill="#3B3431" d="M339.3,470.4c0.5,1,1,1.9,1.6,3.1C339,473,338.9,472.9,339.3,470.4z" />
	<path fill="#231515" d="M396.8,430.1c0-1,0-2,0-3.1C398.2,428.2,398.2,428.2,396.8,430.1z" />
	<path fill="#3B302E" d="M397.1,432.8c1,1.2,1,1.2,0,2.6C396.6,434.4,396.5,433.6,397.1,432.8z" />
	<path fill="#534C48" d="M333.6,453.6c1.3-0.3,2.5,0.5,2.2,2C334.3,455.8,334.6,454,333.6,453.6z" />
	<path fill="#463C38" d="M344,476.3c-1.7-0.2-1.7-0.2-2.1-1.7C342.9,474.4,343.3,475.8,344,476.3z" />
	<path fill="#2F2C29" d="M348.9,477.3c0.4,0,0.8,0.1,1.6,0.1c-0.4,0.8-0.7,1.4-1,2.1c-0.5-0.3-0.9-0.5-1.2-0.7   C348.5,478.3,348.7,477.8,348.9,477.3z" />
	<path fill="#5B534D" d="M371,481.5c-0.8-1.2-0.1-1.6,0.8-2C372.6,480.5,372,481,371,481.5z" />
	<path fill="#584C47" d="M368.4,484.9c0.4-0.3,0.8-0.6,1.2-1C370.4,484.9,369.5,485.9,368.4,484.9z" />
	<path fill="#7D6F6A" d="M397.6,422.9c0-0.4,0-0.7,0-1.1c0.1,0,0.2,0,0.3,0c0,0.4,0,0.7,0,1.1C397.8,422.9,397.7,422.9,397.6,422.9z   " />
	<path fill="#543F3B" d="M348.3,481.8c1,0.3,1.1,1.3,0,1.3C348.3,482.7,348.3,482.3,348.3,481.8z" />
	<path fill="#ED8A6A" d="M463.4,375.2c-0.7,1.4-2.6,0.6-3.7,1.8c-1.2,1.1-2.9,1.8-4.6,2c2.8-5.8,9.6-6.4,14.1-10.1   c-0.1,0.4-0.1,0.9-0.2,1.6c1.3-0.4,2.1-0.7,3-0.9c0,3.7-3.5,2.7-5.8,4.3c0-0.4,0-0.8,0-1.5C464.4,372.8,463.5,373.6,463.4,375.2z" />
	<path fill="#EC8A6A" d="M475,373.4c-0.7,4.5-10.4,6.5-14.1,9.3c2.5-4.7,6.7-5.7,10.5-8.8c0,0.3,0.1,0.7,0.1,1.1   C472.7,374.5,473.8,373.9,475,373.4z" />
	<path fill="#955D4B" d="M409.1,381.1c-0.3-1.1-1.7-1.5-1.5-2.9c2.8,2.7,6.9,4.5,8.2,8.5C413.1,385.4,411.6,382.7,409.1,381.1z" />
	<path fill="#523831" d="M440.3,372.6c-0.3,3.4-1.3,6.5-2.7,9.5c0-3.8,1.4-7.4,2-11.1C439.8,371.6,440,372.1,440.3,372.6z" />
	<path fill="#6D473B" d="M440.3,372.6c-0.2-0.5-0.4-1-0.7-1.5c0.7-2.5,0.3-5.2,1.9-7.4C441.9,367.1,441.2,369.9,440.3,372.6z" />
	<path fill="#351D18" d="M472,369.6c-0.9,0.3-1.7,0.5-3,0.9c0.1-0.8,0.2-1.2,0.2-1.6c1.6-0.8,2.9-1.8,4.8-1.3   C473.9,369.1,472.6,368.9,472,369.6z" />
	<path fill="#412722" d="M475,373.4c-1.1,0.5-2.2,1.1-3.5,1.7c-0.1-0.5-0.1-0.8-0.1-1.1c3-1.3,4.4-2.9,8-2.8   C477.4,372.7,476.9,372.7,475,373.4z" />
	<path fill="#4F3329" d="M463.4,375.2c0.1-1.6,1-2.4,2.8-2.8c0,0.6,0,1.1,0,1.5C465.2,374.1,464.7,375.5,463.4,375.2z" />
	<path fill="#925E4F" d="M442.4,405c0.8,1.4-0.9,3-2.1,3.6C440.1,407,441.1,405.9,442.4,405z" />
	<path fill="#59332E" d="M440.9,401.9c-0.7,0.7-1.5,1.5-2.8,2.8c0.2-2.3,0.8-2.2,2.2-3.3C440.5,401.5,440.7,401.7,440.9,401.9z" />
	<path fill="#543931" d="M436.3,393.4c-1.4-1.3-0.4-2.3-0.4-3.5C436.9,391.1,436.6,392.1,436.3,393.4z" />
	<path fill="#966253" d="M434.2,397.5c0,0.5,0,0.9,0,1.4c-0.1,0-0.3,0-0.4,0c0-0.5,0-0.9,0-1.4C434,397.5,434.1,397.5,434.2,397.5z" />
	<path fill="#EF8A6A" d="M415.6,378.3c0.3,0,0.7,0.1,1.1,0.2C416.1,379.3,415.8,378.7,415.6,378.3L415.6,378.3z" />
	<path fill="#EBDA8F" d="M453.3,267.5c-3.6,0.2-7.1-3.1-9.4-5.8c2.6,0.1,0.4-2.6,0,0c-1.4-0.9-0.5-2.5-0.7-4.1c1-0.6,2-1.2,3-1.7   c8.3,6.2,16.8,4.1,26.5,3.8c0.1,1.5,0.7,2.9-0.3,4.2c0-0.4-0.1-0.9-0.2-1.7c-6.2,4.7-13.9,3.7-20.9,3.1   C451,267.1,452.8,266.6,453.3,267.5z M448,262.9c-0.3-0.9-0.8-1.5-1.8-0.7C446.4,263.4,447.1,263.5,448,262.9z" />
	<path fill="#090705" d="M416.3,269.7c-4.9-1.7-10.6,0.8-14.9-3c-3.5-2.9-7.6-6.6-7.4-11.5c12.3,12.7,9,11.2,28,12.6   C420.5,269.4,418.4,269.7,416.3,269.7z" />
	<path fill="#271F16" d="M453.3,267.5c-0.5-0.8-2.3-0.3-2.1-2.2c7,0.6,14.7,1.7,20.9-3.1c0.1,0.8,0.1,1.3,0.2,1.7   C467.2,269.3,459.7,266.8,453.3,267.5z" />
	<path fill="#181413" d="M385.9,211.7c-0.5-0.2-1-0.3-1.5-0.5c-2.4-4.1-4.7-8.4-5.7-13c0.3-0.1,0.7-0.2,1-0.3   C382.2,201.9,385.2,207,385.9,211.7z" />
	<path fill="#1E1A18" d="M304,53.3c2,2.1,2.4,5.7,2.6,8.4c-0.8,0.8-1.2,0.4-1.7,0.1c-0.6-2.9-1.1-5.7-1.7-8.5   C303.5,53.3,303.7,53.3,304,53.3z" />
	<path fill="#2E2927" d="M304,53.3c-3.1-0.2-3.3-4.7-5.3-6.5c0.2-0.2,0.4-0.3,0.5-0.5C301.7,47.5,303.1,50.7,304,53.3z" />
	<path fill="#030303" d="M380,192.3c0,1.1,0.3,3-1.4,2.8c-0.3-1.4-1.2-3.3,0.4-4.2C379.4,191.4,379.7,191.8,380,192.3   C380.1,192.3,380,192.3,380,192.3z" />
	<path fill="#201414" d="M334.3,126.2c1.6,0.3,2.6,0.7,3.4,1.8C335.7,128.9,335.3,128.7,334.3,126.2z" />
	<path fill="#5F514C" d="M310.2,73.7c1.1,0.6,1.4,1.5,0.8,2.6C309.9,75.7,309.4,74.9,310.2,73.7z" />
	<path fill="#736760" d="M308.7,70c0.9,0.7,1.6,1.4,0.9,2.6C308.5,72,307.9,71.2,308.7,70z" />
	<path fill="#020202" d="M307.6,64.9c0.1,0.9,0.2,1.5,0.3,2.4C306.1,66.2,306.1,66.2,307.6,64.9z" />
	<path fill="#483430" d="M332.2,123.2c1.7,0.2,1.7,0.2,1.2,1.6C332.9,124.2,332.5,123.7,332.2,123.2z" />
	<path fill="#78625D" d="M350.4,168.3c0.9,1.4,0.9,1.4,0,2.2C349.4,169.3,349.4,169.3,350.4,168.3z" />
	<path fill="#2C1717" d="M331.2,120.6c-0.4,1.1-1.6,0.2-0.7-0.6C330.7,120.2,330.9,120.4,331.2,120.6z" />
	<path fill="#E0C6B5" d="M380.1,192.3c-0.3-0.5-0.6-0.9-1-1.4C380.1,190.9,380.1,191.6,380.1,192.3z" />
	<path fill="#12100F" d="M468.2,225.1c-1.4-4.9-0.4-9.1,1.6-13.6C471.7,214.8,470.4,222,468.2,225.1z" />
	<path fill="#413733" d="M533.4,59.7c-0.2,2.1-0.8,4.1-1.9,6c-1.6,0.8-1.6,0.8-2.4-0.2c2-1.5,2.3-4.2,3.2-6.4c0.2,0,0.4-0.1,0.6-0.1   C533,59.3,533.2,59.5,533.4,59.7z" />
	<path fill="#221B19" d="M486.6,190.9c0,2.2-1,3.9-2.5,5.4c-0.4-0.2-0.8-0.4-1.4-0.6C483.7,193.6,484.7,191.9,486.6,190.9z" />
	<path fill="#413631" d="M526.3,68.4c0.4-0.2,0.8-0.3,1.5-0.6c-0.3,1.7-0.2,3.3-2.2,3.6C525.8,70.4,526.1,69.4,526.3,68.4z" />
	<path fill="#221918" d="M469.4,206.1c1.4,1.5,1.4,1.7,0.1,3.7C468.8,208.5,468.9,207.3,469.4,206.1z" />
	<path fill="#594945" d="M470.5,201.8c0.1,0.7,0.1,1.4,0.2,2c-1.6,1.4-1.7-0.6-1.4-1.9C469.9,201.9,470.2,201.8,470.5,201.8z" />
	<path fill="#4F3D39" d="M524.8,74.6c0.2,0.6,0.4,1.1,0,1.6C523.6,75.5,523.6,75.5,524.8,74.6z" />
	<path fill="#5D3C37" d="M527,66.2c0.4,0.1,0.8,0.3,1.2,0.4c0,0.1,0,0.3-0.1,0.4c-0.6,0-1.1-0.1-1.7-0.1   C526.6,66.7,526.8,66.4,527,66.2z" />
	<path fill="#6A5A56" d="M498.7,133.6c-0.1-0.1-0.2-0.3-0.3-0.4c0.4-0.3,0.7-0.4,0.9,0.2C499.1,133.4,498.9,133.5,498.7,133.6z" />
	<path fill="#6E3E3C" d="M488.1,186.8c0-0.3,0-0.6,0.1-0.9c0.5-0.1,0.2,0.6,0.2,0.9C488.3,186.8,488.2,186.8,488.1,186.8z" />
	<path fill="#3A2624" d="M497.4,135.9c-0.6,0-1.2,0.1-1.4-0.8C497.3,134.8,497.3,134.8,497.4,135.9z" />
	<path fill="#3C3131" d="M523.1,78.6c0.1,0.3,0.3,0.5,0,0.7C522.8,79.1,523,78.9,523.1,78.6z" />
	<path fill="#2E2626" d="M489.4,182.5c-0.3,0.1-0.5,0.4-0.7,0C489,182.3,489.2,182.1,489.4,182.5z" />
	<path fill="#0C0907" d="M429.3,149.5c-0.3,1.3-1.7,2.4-0.2,3.4c-3.6,3.4-6.7,6.7-11.2,8.9c1.5-0.1,2.7-0.2,4.2-0.3   c-0.9,1.2-1.5,2-2.9,2.4c-2-0.7-4.1-1.2-5.1-3.3c0.2-1-0.1-2.2,1.3-2.9c0.3,0.4,0.7,0.8,1,1.3l0,0c-0.2,0.1-0.3,0.3-0.5,0.4   c1.4,0.3,4.8,1.1,5.2-1c-1.2-0.1-2.3-0.2-3.6-0.3c0.9-1.1,2.6,0.2,3.2-1.6c-1.8,0.3-3.6,0.9-5-0.4c2.8-2.4,7.3-1.7,10-4.8   c-3.5,0.1-6.7,2.2-10,0.3c0.8-2.7,4.5-0.9,5.6-3.3c-3.4,0-6.5-0.9-9.8-1.8c0.5-1,1.5-0.3,2.2-0.7c2.4,1.6,18.5-4.4,16.4-1.3   c-2.1-0.2-3.8,1.6-5.7,2.3c-1.4-1.1-1.4-1.1-3.3,0.6c2.5-0.4,5.6,0.8,7.6-0.6c1.4-0.8,1.4,1.4,1.5,2.2   C429.9,149.1,429.6,149.3,429.3,149.5z" />
	<path fill="#16100E" d="M427.1,187.2c-4.4-0.6-7.3-2.6-8.2-7.2c-1.5,0.5-2.9,1-4.5,1.5c-1.7-2.9-3.8-2.5-6.9-2.5   c0.6-0.3,1.2-0.7,1.9-1.1c-1.4-0.1-2.9-1.5-3.9-0.3c-1.5-0.6-0.2-1.4-0.1-2.1c1.7,0.3,3.2,1.5,5.1,1.1c-0.3-1.4-1.1-2.2-2.2-2.7   c-0.4-1.4-1.3-2.5-2.2-3.6c0.2-0.3,0.4-0.5,0.6-0.8c3,1.3,7.6,12.7,10.4,8c0.7-0.1,1.4-0.3,2.1-0.4c3.2,6.9,2.8,7.2,10.7,9.2   C429.1,187.2,428.1,187.3,427.1,187.2z" />
	<path fill="#130E0C" d="M448.1,135c0,0.5,0,1,0,1.5c-0.5-0.2-1.1-0.3-1.6-0.5c-3,3-4.8-7.2-10-4.5c-1.6-0.7-3.2-1.5-5-1.5   c-1.5-1.4-3.9-0.3-5.8-0.8c-0.8-1.5-2.9,0.2-3.7-1.4c2.5-0.6,6.2,1.1,8-0.7l0,0c3.7,0.3,6.4,3.3,10.2,2.1l0,0   c0.4,1.1,1.1,1.6,2.2,1.5l0,0c0.6,1.2,1.5,2.1,2.9,2.2l0,0C445.8,134.2,446.6,135,448.1,135z" />
	<path fill="#181412" d="M414.1,166.9c0.1-0.8,0.3-1.7-1-2.1c-3.3,2.7-0.9,5.6,0.8,8c-2.3,3.4-4.6-2.3-4.7-4.3c-0.7,0-1.2,0-1.6,0   c-0.3-2.6,0.4-5.2,2-7.2c2.5,0.3,3.8,1.1,6,3.6c0.1,1,0.5,2.1-0.6,2.8C414.6,167.4,414.4,167.1,414.1,166.9z M409.6,166.8   c0.9-1,1.8-1.8,2.4-3.1c-0.4-0.3-0.8-0.6-1.3-0.9C409.7,163.9,409.3,165.2,409.6,166.8z" />
	<path fill="#4C493E" d="M436.5,131.5c3.8-1.5,6,2.4,8,4.9c-0.9,0.5-1.7,1.1-2.6,1.5c-1.4-0.5-2.6-0.9-4-1.5l0.1,0   c-0.2-1.2-1.5-1.3-2.2-2c0.5-0.5,1-1.1,1.5-1.6c0.2,0,0.5,0,0.7-0.1c0.4,1,1.1,1.4,2.2,1.4c0.1,0.7,0.2,1.3,0.3,2   c0.6,0,1.1,0,1.6,0c-0.2-1.1-1-1.6-1.9-2c-0.3-1.1-1.1-1.5-2.2-1.5c-0.2-0.8-0.9-0.6-1.5-0.7l0,0   C436.6,132,436.6,131.7,436.5,131.5z" />
	<path fill="#382D26" d="M437.8,137.1c-0.6,0.5-1.3,1-2,1.6c-2.5-1.5-5.7,0.1-8-2.1c-0.9,0.1-1.8,0-2.7-0.2c0.8-0.3,1.5-0.7,2.1-1.3   l0,0c1.2-0.2,3.2,0.6,3.6-1c2.4,0.8,4.8,1.8,7.3,2.4c0,0-0.1,0-0.1,0C437.9,136.7,437.8,136.9,437.8,137.1z M430.4,136   c0,0.1,0,0.2,0,0.3c0.5,0,1,0,1.5,0c0-0.1,0-0.2,0-0.3C431.4,136,430.9,136,430.4,136z" />
	<path fill="#BCAE95" d="M415.5,164.8c-2.2-2.5-3.5-3.3-6-3.6c-1.2,1.6-2,3.4-2,5.6c-1.2-0.7-0.7-1.8-0.8-2.8   c4-10.3,6.5-1.6,12.4-0.1C418.3,166.1,416.4,163.5,415.5,164.8z" />
	<path fill="#171312" d="M448,155.9c-1.7,3.2-1.5,3.1-1.2,5c-1.5,0.6-2.8,0.6-3.4-1.2c-1.1,0-2,0-3,0   C441.7,157.4,445.1,155.5,448,155.9z" />
	<path fill="#251817" d="M443.2,153.2c-1.6,0.7-3.1,1.3-4.8,2.1c2.1-4.9,8-4.4,11.7-1.3C448.6,155.9,445.6,153.4,443.2,153.2z" />
	<path fill="#1C1917" d="M414.1,166.9c1.1,1.2,2.1,2.5,3.6,3.1c-0.1,1.5-0.8,2.3-1.9,3.2C414.9,171.5,411.9,168.5,414.1,166.9z" />
	<path fill="#CEC8AC" d="M430,137.9c0.7,0.1,1.5,0.1,2.2,0.2c-0.2,0.7-0.4,1.4-0.6,2.1c-1-1.1-3.1,0.5-4.4,0.5   c0-0.4-0.1-0.9-0.1-1.3C428.6,139.7,429.2,138.6,430,137.9z" />
	<path fill="#3B312E" d="M430,144.5c0.8-0.3,0.7-0.6,0-0.8c0.2-1,1-1.9,1.4-2.8c0.1,1.6,0.3,3.3-0.5,4.8c-0.5,1,0.6,2.4-0.8,3.1   c-0.2-0.8,0.2-1.9-1-2.4C429.6,145.9,430.2,145.4,430,144.5z" />
	<path fill="#DBBCAC" d="M417.2,177.8c-1.3,3.1-3.8,0.1-4.5-1.5C414.4,176.1,415.7,177.2,417.2,177.8z" />
	<path fill="#AF9B8E" d="M407.6,168.5c0.5,0,0.9,0,1.6,0c0.4,1.7,0.7,3.6,2.1,4.9c-0.2,0.2-0.5,0.5-0.7,0.7   c-0.7-0.9-1.5-1.9-2.2-2.8C409.8,169.8,408.6,169.4,407.6,168.5z" />
	<path fill="#3F3632" d="M427.1,187.2c1,0,2,0,2.9-0.6c0.9,0.2,1.9,0.5,2.8,0.7c0.2,0.4,0.5,0.7,1.1,1.7   C431.4,187.6,429,188.4,427.1,187.2z" />
	<path fill="#7F6557" d="M431.4,140.9c-0.4,0.7-0.9,1.5-1.3,2.2c0.3-1.7-0.6-2.6-2.4-2.4c0.8-0.6,3.4-1.4,3.9-0.6   C431.6,140.4,431.5,140.7,431.4,140.9z" />
	<path fill="#6E5B53" d="M437.4,188.6c-1.3,1.2-1.7,1.1-2.2-0.7C436.1,187.8,436.8,187.8,437.4,188.6z" />
	<path fill="#B5B197" d="M437.8,137.1c0-0.2,0-0.4,0.2-0.6c0.5,0.2,1.1,0.4,1.6,0.6C439,137.1,438.4,137.1,437.8,137.1z" />
	<path fill="#BCAE95" d="M419.1,163.9c0.5-0.2,1-0.4,1.5-0.6C420.4,164.1,419.8,164.1,419.1,163.9z" />
	<path fill="#3B312E" d="M429.3,149.5c0.3-0.2,0.5-0.4,0.8-0.6C429.9,149.1,429.6,149.3,429.3,149.5z" />
	<path fill="#211917" d="M403.2,285.2c-1.9,0.4-3-0.4-4-1.4C399.6,281.6,402.4,283.9,403.2,285.2z" />
	<path fill="#402E2B" d="M405.3,294.4c-0.8-0.8-2.3-0.5-2.9-2.1c2.1-0.2,3.1,0.9,4.6,2.1C406.4,294.3,405.8,294.3,405.3,294.4z" />
	<path fill="#5A4F49" d="M408.4,288.2c-1.6-0.9-2.5-1.5-4.1-2.4C406.6,285.4,407.6,285.5,408.4,288.2z" />
	<path fill="#2B201E" d="M405.3,294.4c0.6-0.2,3,0,1.6,0.8C406.2,295.3,405.5,295.2,405.3,294.4z" />
	<path fill="#2C3523" d="M427.8,268.2c-0.7-0.1-1.5,0-1.5-1.1c0.6-0.8,1.3-1,2.1-0.1C428.3,267.4,428.1,267.8,427.8,268.2   C427.9,268.2,427.8,268.2,427.8,268.2z" />
	<path fill="#402E21" d="M432.9,266c-0.3,0-0.7,0-1.2,0.1c-0.2-0.9-0.2-1.4,1.2-1.4C432.9,265.2,432.9,265.6,432.9,266L432.9,266z" />
	<path fill="#5A789A" d="M192.6,20.8c-0.2-0.1-0.4-0.2-0.7-0.2c16.1-1.4,33.1-0.8,49.3,0c-2.2,0.2-4.7-0.5-6.7,0.8   C220.9,19.6,206.5,21.4,192.6,20.8z" />
	<path fill="#3D3946" d="M216.4,20.8c6,0.4,12.4-1,18.2,0.7c-1.6,1.7-4.7,0.3-6.9,0.7c-5.6-0.5-11.8,0.9-17.1-0.7   C212.5,21.3,214.7,21.9,216.4,20.8z" />
	<path fill="#201A18" d="M357.7,179.7c2.7,2.6,5.7,4.7,5.6,8.3C360.7,186.1,357.7,183.1,357.7,179.7z" />
	<path fill="#080505" d="M354.1,177c0.2-0.4,0.3-0.8,0.6-1.3c0.8,0.5,1.1,0.8,1.1,1.7C354.9,178.3,354.6,177.3,354.1,177   C354.1,177,354.1,177,354.1,177z" />
	<path fill="#2F1C1B" d="M351.8,173.4c0.1-0.4,0.2-0.8,0.2-1.2C353,172.3,352.8,173.5,351.8,173.4   C351.9,173.5,351.8,173.4,351.8,173.4z" />
	<path fill="#4C2B22" d="M388.7,371.2c4.3-0.1,7.7,1.3,10.5,3.8C397.2,374.7,392.5,373.1,388.7,371.2z" />
	<path fill="#48271F" d="M388,364.7c2.9,0.7,5.6,2.2,8.6,4.6C394.5,370.1,389.3,366.5,388,364.7z" />
	<path fill="#27211F" d="M422.8,193.7c-0.6-2.2-1.4-3.9-1.5-6.3c2.5,1.8,3.5,4.2,4.5,10.6c-0.2,0.3-0.4,0.6-0.7,1   C423.5,197.4,424,195.2,422.8,193.7z" />
	<path fill="#352C28" d="M435.2,213.2c0.2,0,0.3,0,0.5,0c-0.2,1-0.6,2.1,0.2,2.9c0.1,0.5-1.1,0.9,0,1.4c-0.6,0.4-1.3,0.8-2.1,1.4   c0-1.3,0-2.4,0-3.4c0.8-0.6,0.7-1.4,0.7-2.2l0,0C434.6,213.2,435,213.2,435.2,213.2z" />
	<path fill="#221D1C" d="M425,201.2c0.4-0.3,0.7-0.5,1.1-0.7c0.6,1.3,1.4,2.5,0.9,4.3C425.5,203.9,425.5,202.6,425,201.2z" />
	<path fill="#E7CCBC" d="M435.2,213.2c-0.2,0-0.5,0-0.7,0.1c0-1.3-0.3-2.6,0.6-3.7C435.1,210.8,435.1,212,435.2,213.2z" />
	<path fill="#3B2D2A" d="M423.9,221.4c-1.4-0.1-2.2-0.3-2.5-1.4C422.5,219.5,423.1,220,423.9,221.4z" />
	<path fill="#181312" d="M426.6,207.1c-1-0.4-1.3-1-0.7-1.9C426.9,205.6,427.3,206.2,426.6,207.1z" />
	<path fill="#70655F" d="M427.2,223c0.6-0.8,1.8,0,1.1,0.8C427.6,224.1,427.3,223.6,427.2,223z" />
	<path fill="#E7CCBC" d="M434.5,213.3c-0.1,0.8,0.1,1.7-0.7,2.2C433.8,214.7,433.3,213.7,434.5,213.3z" />
	<path fill="#1F1A18" d="M432.6,220.9c-0.3,0.4-0.6,0.7-0.9,1.1C431.4,220.5,431.4,220.5,432.6,220.9z" />
	<path fill="#2F2724" d="M495.1,139.3c-1.1,1.5-1.5,3.7-3.7,3.9c0.4-3.1,1-4.1,3.5-5.9C494.9,138,495,138.7,495.1,139.3   C495.1,139.3,495.1,139.3,495.1,139.3z" />
	<path fill="#4B4742" d="M469.9,199.5c0-0.4,0-0.9,0-1.4C471,198.7,470.5,199.1,469.9,199.5L469.9,199.5z" />
	<path fill="#2B2421" d="M475.6,480.3c-1.8-2-4.1-4.4-2.5-6.6C474.2,475.8,475.6,477.5,475.6,480.3z" />
	<path fill="#15110F" d="M478.6,481.9c0.7,0.5,0.9,1.1,0.2,1.5C477.8,483.1,477.9,482.6,478.6,481.9z" />
	<path fill="#0B0B0A" d="M325.1,475.3c0.2,0.8,0.9,0.7,1.5,0.7c0.9,1,2.4,1.4,2.9,2.9c-1.7,4.2-13.2-4.7-13-7.4   C319.5,469.4,322.2,475.3,325.1,475.3z" />
	<path fill="#0C0A09" d="M321.3,482.6c-2.4-1.3-4.6-2.9-6.6-5.2c0.5-0.5,0.9-0.9,1.4-1.4c3.6,2.5,8.3,3.5,10.9,6.9   c-1.1,2.3-2.9,1.5-4.5,0.4c-0.2,0.1-0.3,0-0.4-0.2C321.9,483,321.6,482.8,321.3,482.6z" />
	<path fill="#1A1A17" d="M314.1,482.9c1.5-1.5,9.7,0.9,9.1,3.3C322.1,489.8,314.6,485.6,314.1,482.9z" />
	<path fill="#1A1A17" d="M321.3,482.6c0.3,0.2,0.6,0.4,0.9,0.6C321.9,483,321.6,482.8,321.3,482.6z" />
	<path fill="#1A1A17" d="M322.6,483.4c0.3,0.2,0.7,0.4,1,0.5C323.3,483.7,322.9,483.5,322.6,483.4z" />
	<path fill="#AAA690" d="M320.1,472.2c-0.2-0.2-0.5-0.4-0.7-0.5C319.6,471.8,319.8,472,320.1,472.2z" />
	<path fill="#342724" d="M435.1,489.8c0.7,0.5,1.5,0.9,2.5,1.5c-2.9,1.7-6.3-0.3-9.2-2.3C430.8,487.9,432.7,489.4,435.1,489.8z" />
	<path fill="#2D2320" d="M467.7,495.6c2.9-0.3,5.9-2.5,8.7-1.3c-1.3,2.4-5.5,2.4-8,2.4C468.1,496.4,467.9,496,467.7,495.6z" />
	<path fill="#281917" d="M467.7,495.6c0.2,0.4,0.4,0.8,0.7,1.1c-2.5,0-5.9,2.2-7.7-0.3C462.8,494.8,465.3,495.6,467.7,495.6z" />
	<path fill="#262421" d="M425.2,485.3c1.1,0.5,1.9,0.8,2.6,1.1C427.7,488.7,424.9,487.5,425.2,485.3z" />
	<path fill="#51423D" d="M423,484.1c-0.9,0.5-1.1,0.5-1.6-0.3C422.1,483.1,422.3,483.4,423,484.1z" />
	<path fill="#170C0B" d="M452.7,496.1c-1.1-1.2-0.8-1.7,0.5-0.6C453,495.7,452.9,495.9,452.7,496.1z" />
	<path fill="#070607" d="M407.5,179.1c1.2,0,2.5,0.1,3.7,0.1c0,0.3,0,0.7,0,1.1c-1,0.2-1.9,0.4-2.9,0.6c0,0.6,0.1,1,0.1,1.5   c0.9,0.3,1.7,0.6,2.5,0.8c-0.1,1.6-2.1,0.8-1.7,2.5c0.9,6.1,0.6,14.2-3,18.9c0-1.3,0.5-2.7-0.9-3.6c5.6-8.6-2.5-19.7-4.2-28.4   c0.2,0.1,0.4,0.1,0.6,0.1c0.7,1.6,2.6,1.7,3.7,2.8C403.9,177.9,405.8,177.7,407.5,179.1z" />
	<path fill="#8B9BBB" d="M401.1,174.2c3.7,7.8,7.7,17.4,5.2,25.8c-1.2-9.8-4.7-19.4-8.1-28.7c0.3-0.3,0.5-0.5,0.8-0.8l0.2,0   c0.2,0.3,0.3,0.5,0.5,0.8l0,0C400.1,172.3,400.6,173.2,401.1,174.2z" />
	<path fill="#D1BC9D" d="M399,153.8c-0.9-0.6-1.7-1.1-2.7-1.8c-0.3-1.8-0.3-3.6,0.5-5.4c5,3.6,11.2,5,16.6,7.3   c-0.5,1-1.5,0.8-2.2,0.6c-2.9-1.2-6.1,0.1-8.9-1.2C401,152.7,400.1,154.1,399,153.8z" />
	<path fill="#D1BB9F" d="M406.1,170.6c0.9,1.1,1.8,2.2,2.2,3.6l0,0c-2-0.1-3.4-1.3-5-2.5c0.5-0.3,0.8-0.5,1.5-0.9   c-3.8-2.4-7.1-4.5-7.9-9.2c2.8,1.2,5.2,2.3,8.4,1.7c0.5,1.9-0.3,3.3-0.7,5.3C405,169.2,405.6,169.9,406.1,170.6z" />
	<path fill="#D6C0A0" d="M388.8,164.7c-1.8-3-2.3-7.2-2.1-10.9c2-2.3,1.2-6,3.7-7.8c0.4,0.7,0.8,1.4,1.2,2   c-1.2,3.5-1.4,7.2-1.4,10.9c-0.4-0.8-0.7-1.6-1.4-3.1C388.8,159.3,388.8,162,388.8,164.7z" />
	<path fill="#C9B798" d="M397.4,156.9c-0.5-0.7-0.9-1.5-1.7-2.7c5.4,1.7,10.6,1.9,16.2,2.7c0,0.2,0,0.5,0,0.7   C404.5,158.5,407,162.4,397.4,156.9z" />
	<path fill="#EDD8B8" d="M388.8,164.7c0-2.7,0-5.4,0-8.9c3.1,8.2,2.7,16.9,4.4,25.5C389.8,176.9,389.9,170.1,388.8,164.7z" />
	<path fill="#28221C" d="M411.9,156.9c-4.6-0.9-9.6-0.5-13.9-2.2c0.3-0.3,0.6-0.6,0.9-0.9c6.9-1.4,14.4,4.1,21.6,2.6   c-0.7,1.8-2.3,0.5-3.2,1.6c1.3,0.1,2.4,0.2,3.6,0.3c-0.1,0.9-0.6,1.1-1.2,1.2c-1-1-2.2-0.6-3.5-0.6c-0.3-0.4-0.7-0.9-1-1.3   c-1.4,0.7-1.1,1.9-1.3,2.9c-0.7-0.5-1.4-1.1-2.1-1.6c0.9-0.9,1.2-1,2.6-2.1C413.2,156.9,412.6,156.9,411.9,156.9z" />
	<path fill="#6F6153" d="M430.8,134.1c-0.4,1.5-2.4,0.8-3.6,1c0-0.2,0-0.5,0-0.7c-1-0.9-1-0.9-2.2-0.1c0.4,1.2,1.4,0.7,2.2,0.8   c-2.6,2.9-6.3-0.1-9.4-0.6c-4.6,0.1-9.2,0.1-13.8-0.3c3.2-2,8.3,0.9,11.6-1.1c3,0.6,6,0.2,9.1-0.4c-0.1-0.4-0.1-0.8-0.2-1.3   c0.5,0.1,0.9,0.1,1.4,0.2c0.1,0.3,0.1,0.7,0.1,0.9C427.6,133,429.2,133.6,430.8,134.1z" />
	<path fill="#D3C0A1" d="M403.9,134.2c1.7-0.1,3.1,0.5,4.4,1.6c-1.7-0.1-7.6-0.1-5.1,2.7c1.8-0.7,3.6-0.9,5.4,0   c-1.1,0.1-2.2,0.2-3.3,0.4c0,0.2,0,0.3,0,0.5c1,0,2,0,3,0c0.4,1.2,1.8,0.4,2.6,1c-0.7,0.4-1.3,0.8-1.8,1.1   c-2.3-0.4-5.3-2.7-7.3-0.7c0,0.2,0,0.4,0,0.6c-1.2-0.5-3.1-0.4-3.1-2.1C400.5,137.6,402.2,135.9,403.9,134.2z" />
	<path fill="#EAD6B7" d="M391.6,148.1c-0.4-0.7-0.8-1.3-1.2-2c-2.6,1.9-1.7,5.5-3.7,7.8c-0.8-4.8,1.7-9,5.1-12.1   c1.3-0.1,2.6-0.1,3.8-0.2C394.8,144.1,392.6,145.6,391.6,148.1z" />
	<path fill="#D3C4A8" d="M424.4,131.4c0.1,0.5,0.1,0.9,0.2,1.3c-5.2,1.4-10.3,0.2-15.5-0.5c0-0.2,0-0.5,0-0.7   C414.2,132.2,419.5,130,424.4,131.4z" />
	<path fill="#B6A88E" d="M404.6,159.7c0.7,0,1.4-0.1,2.2-0.1c-0.5,1.2-1.6,2.3-1.2,3.7c-2-0.3-4.1,0.4-6-0.6   c0.4-0.1,0.8-0.2,1.7-0.5c-1.6-0.5-6.7-3.1-4.5-4.7C398.6,159,402.6,161.7,404.6,159.7z" />
	<path fill="#686556" d="M419.3,130.9c-3.2,1.2-6.9,0.3-10.3,0.5c0.8-1.4,2.3-0.2,3.2-1c-1.1-0.4-2.2-0.8-3.3-1.2   c2.1-1.5,5.8-1,8.1,0c-0.5,0.8-1.5,0.4-1.7,1.4C416.7,130.7,418,130.8,419.3,130.9z" />
	<path fill="#46372E" d="M408.2,151.8c-4.2-1-7.9-2.9-11.5-5.2c0.1-1.1-0.4-2.3,0.7-3.1c-0.5,4,7.4,6.2,10.9,6.1   C407.1,151.3,409.7,150.8,408.2,151.8z" />
	<path fill="#817B69" d="M426.4,127.7c-4.8,0.2-9.6,0-14.4,0c4-2.1,8.6-1.1,12.9-1.3c0.2,0.8,0.9,0.7,1.5,0.8   C426.4,127.3,426.4,127.5,426.4,127.7z" />
	<path fill="#766454" d="M398.8,139.3c1,2.7,5.8,2.6,8.1,4.4c-0.5,0.4-0.9,0.9-1.4,1.3c0,0.3,0,0.5,0,0.8c-1-0.4-2-0.9-3-1.3   c0.4-0.4,0.8-0.7,1.3-1.1c-2-0.8-3.4-1.6-5.5-1.8C398.4,140.8,397.8,139.9,398.8,139.3z" />
	<path fill="#2E322B" d="M412.1,127.7c3.3,0,6.7,0.1,10,0.1c0.8,1.6,2.8-0.1,3.7,1.4c-4.8,0.4-9.2-0.5-13.9-0.9   C411.9,128.1,412,127.9,412.1,127.7z" />
	<path fill="#B9AF95" d="M395.6,141.6c-1.3,0.1-2.6,0.1-3.8,0.2c0,0-0.1-0.3-0.1-0.3c1.5-1.1,2.5,0.1,4.1-1.5   c-2.3-1.1-3.8-1.6-6.2-1.3c-0.2-0.2-0.5-0.4-0.7-0.6c2.7-0.3,5.4-0.6,8.1-0.1C397,139.5,396.2,140.5,395.6,141.6z" />
	<path fill="#717B92" d="M394.7,163.2c-1.8-3.7-2.2-7.1-1.2-12.3c0.3,4.5,1.2,8.1,1.7,12.3C395,163.2,394.9,163.2,394.7,163.2z" />
	<path fill="#837764" d="M396,179.2c-0.9,0.8-0.8,1.9-0.8,3c-0.9-3.1-1-6.7-2.6-9.8c-0.3-0.6-0.4-1.4,0.5-1.8   C394.1,173.5,395,176.4,396,179.2z" />
	<path fill="#392822" d="M389.6,141c-2.9,0.7-4.8,3.3-7.4,4.2c0-1.2,0.5-2.1,1.4-2.9c0.1,0.2,0.3,0.3,0.7,0.8   c0.5-1.6,2.6-1.6,2.8-3.4c0-0.1,0.6,0,1-0.1C388,140.7,388.8,140.8,389.6,141z" />
	<path fill="#2A211B" d="M402.5,144.5c1.2,0.5,2.4,1.1,3.6,1.5c-0.5,0.2-1,0.5-1.5,0.7c-2.5-0.6-4.7-1.9-7.1-2.9   c0,0-0.1-0.3-0.1-0.3c0.3-0.4,0.5-0.8,0.8-1.2C399.6,143.1,401.1,143.8,402.5,144.5z" />
	<path fill="#201D1C" d="M400.4,167.7c0.7,0.5,1.4,1,2.1,1.5c-0.6,1.7-1.6,3.2-1.4,5c-0.5-1-1-1.9-1.5-2.9c0.2-0.4,0.7-0.9,0.6-1   C399.3,169.3,399.9,168.5,400.4,167.7z" />
	<path fill="#7B7764" d="M388.1,139.5c-0.3,0-1,0-1,0.1c-0.2,1.8-2.3,1.8-2.8,3.4c-0.4-0.4-0.6-0.6-0.7-0.8c1.5-1.8,2.5-4.4,5.2-4.2   c0.2,0.2,0.5,0.4,0.7,0.6c0,0.2-0.1,0.4-0.1,0.6C389,139.4,388.6,139.5,388.1,139.5z" />
	<path fill="#C1AE91" d="M402.5,144.5c-1.4-0.7-2.9-1.5-4.3-2.2c0-0.2,0-0.5,0.1-0.7c2,0.1,3.5,0.9,5.5,1.8   C403.3,143.8,402.9,144.2,402.5,144.5z" />
	<path fill="#B2AD94" d="M409,129.2c1.1,0.4,2.2,0.8,3.3,1.2c-0.9,0.8-3.5-0.4-3.2,1.7c-0.9,0-1.8,0-2.8,0   C406.8,130.5,407.9,129.9,409,129.2z" />
	<path fill="#3B2620" d="M404.6,159.7c-2,2-5.9-0.7-7.8-2.2c0.2-0.2,0.4-0.4,0.6-0.6C399.7,158,401.9,159.5,404.6,159.7z" />
	<path fill="#31353C" d="M397.3,169.9c-1.2-1.8-1.9-3.7-2-5.9l0,0C396.8,165.5,397.6,167.8,397.3,169.9z" />
	<path fill="#454037" d="M426.4,127.1c-0.8,0-1.7-0.4-1.4-1.5c0.3,0,0.5,0,0.8,0c1.6,2,3.6-1.1,5.1,0.6c-0.3,0.3-0.5,0.6-0.8,0.9   l0,0C428.9,127.1,427.7,127.1,426.4,127.1z" />
	<path fill="#4D493D" d="M399.6,183.6c-0.4-0.1-0.9-0.1-1.3-0.1c0-0.7,0-1.4,0-2.1c0.2,0,0.5,0,0.7,0   C399.1,182.2,399.3,182.9,399.6,183.6z" />
	<path fill="#292620" d="M396.7,183.6c0-1,0-1.9,0.1-2.9c1.1,1,0.6,2.4,0.7,3.7c-0.2-0.1-0.4-0.2-0.6-0.2   C396.9,183.9,396.8,183.7,396.7,183.6z" />
	<path fill="#584A3E" d="M398.8,161.3c0.7,0.3,1.4,0.6,2.5,1c-0.8,0.2-1.2,0.4-1.7,0.5c-0.5-0.3-0.9-0.6-1.4-0.9   C398.4,161.7,398.6,161.5,398.8,161.3z" />
	<path fill="#63768B" d="M397.3,169.9c0.1-0.3,0.1-0.6,0.2-0.9c0.5,0.5,1,1.1,1.4,1.6c-0.3,0.3-0.5,0.5-0.8,0.8   C397.8,170.9,397.6,170.4,397.3,169.9z" />
	<path fill="#292620" d="M398.1,188.1c-0.2-0.6-0.5-1.1-0.7-1.7c0.1-0.3,0.2-0.5,0.2-0.8C398.5,186.4,398.2,187.2,398.1,188.1z" />
	<path fill="#BBA98E" d="M397.6,185.7c-0.1,0.3-0.2,0.5-0.2,0.8c-0.9-0.6-0.6-1.5-0.5-2.3c0.2,0.1,0.4,0.1,0.6,0.2   C397.5,184.8,397.5,185.3,397.6,185.7z" />
	<path fill="#4D493D" d="M400.3,185.7c-0.6-0.3-0.8-0.8-0.6-1.5C400.4,184.6,400.4,185.1,400.3,185.7z" />
	<path fill="#292620" d="M398.2,183.5c0.2,0,0.5,0,0.7,0.1c0,0.5-0.1,1-0.1,1.4C398.2,184.7,398.2,184.1,398.2,183.5z" />
	<path fill="#292620" d="M398.9,181.4c-0.2,0-0.5,0-0.7,0c0.1-0.2,0.2-0.4,0.3-0.5C398.7,181.1,398.8,181.2,398.9,181.4z" />
	<path fill="#201D1C" d="M399.6,171.3c-0.2-0.3-0.3-0.5-0.5-0.8C399.3,170.7,399.4,171,399.6,171.3z" />
	<path fill="#31353C" d="M394.7,163.2c0.2,0,0.3,0,0.5,0c0,0.3,0.1,0.6,0.1,0.9l0,0C395.1,163.7,394.9,163.4,394.7,163.2z" />
	<path fill="#39312D" d="M387.9,220.8c-0.7-2.6-1.3-5.2-2-7.7C389.6,210.7,389.4,218.9,387.9,220.8z" />
	<path fill="#291F1D" d="M387.9,220.8c0.2-0.6,0.5-1.1,0.7-1.7c0.7,0.8,1.3,1.7,0.7,2.8C388.3,222.1,388,221.5,387.9,220.8z" />
	<path fill="#624944" d="M389.5,227c0.2-0.7,0.6-1,1.5-0.2C390.4,226.9,389.9,226.9,389.5,227L389.5,227z" />
	<path fill="#39312D" d="M385.9,211.7c0-0.5,0.1-1,0.1-1.5C386.3,210.7,387.1,211.3,385.9,211.7z" />
	<path fill="#EBD4B4" d="M385.2,160.4c-0.7,6.8,1.4,13,3.7,19.3c-4.5-2.7-4.7-14.6-4.5-20.2C385.2,159.4,385.1,160,385.2,160.4z" />
	<path fill="#38322A" d="M389.8,143.8c-3.6,3.8-3.4,9.1-4.1,14c-1.4-5.4-0.7-10.4,3.4-14.7C389.3,143.3,389.6,143.5,389.8,143.8z" />
	<path fill="#100E0C" d="M388.1,139.5c2.7-0.2,5-0.7,7.6,0.5c-1.6,1.5-2.6,0.4-4.1,1.5C390.5,140.9,388,141.4,388.1,139.5z" />
	<path fill="#36312E" d="M423.2,343.5c1.6,3.2,1.2,6.6,1,10.4C422.5,354.1,421.9,343.3,423.2,343.5z" />
	<path fill="#3E3E3D" d="M420,329.7c0-0.4,0-0.9,0-1.6C421,329,420.8,329.4,420,329.7L420,329.7z" />
	<path fill="#4B3530" d="M421.4,339.8c0-1.3,0.4-1.3,0.5,0C421.8,339.8,421.6,339.8,421.4,339.8z" />
	<path fill="#0E0B0D" d="M529.9,68.5c0.1-0.2,0.1-0.4,0-0.7c1.7-0.9,3.1-2.2,4.4-3.7c0.4,0,0.7,0,1.1,0   C534.8,67.1,532.9,68.4,529.9,68.5z" />
	<path fill="#D1B9AA" d="M303.9,36.1c-0.6-0.4-1.1-0.7-1.7-1.1c0.2-0.6,0.4-1.1,0.7-1.8C304.3,33.9,304.3,34.8,303.9,36.1z" />
	<path fill="#84857A" d="M307.4,37.8c-1.9-0.3-2.1-1-1.6-2.2C306.3,36.2,306.7,36.8,307.4,37.8z" />
	<path fill="#3C3136" d="M671.9,28.1c0,0.2,0,0.4,0,0.6c-7.6,0-15.3,0-22.9,0c-0.1-0.6-0.3-1,0.6-1C657,27.9,664.4,27.8,671.9,28.1z   " />
	<path fill="#413733" d="M532.2,66.4c-0.3,0.2-0.6,0.4-0.9,0.5c0.1-0.2,0.1-0.4,0.1-0.6C531.7,66.3,531.9,66.4,532.2,66.4z" />
	<path fill="#090807" d="M533.4,59.7c-0.2-0.2-0.4-0.4-0.5-0.6c0.2-1.6-0.3-3.3,0.6-4.9C533.3,56,534,58,533.4,59.7z" />
	<path fill="#577191" d="M179.6,20c-13,0.2-26,0.1-39-0.1c12.3-2,26.2-0.1,39-0.5C179.6,19.6,179.6,19.8,179.6,20z" />
	<path fill="#47627D" d="M179.6,20c0-0.2,0-0.4,0-0.6c7,0.4,14.4-0.8,21.1,0.5C193.6,19.7,186.6,21.7,179.6,20z" />
	<path fill="#362F34" d="M724,30c0-0.2,0-0.4,0-0.6c9.1,0.1,17.6-0.3,26.9,0.1C742.9,31.7,732.7,29.5,724,30z" />
	<path fill="#564C41" d="M440.2,129.3c-1.7,0-3.8,0.9-5.1-0.7c0.6-0.1,1.4,0.1,1.5-0.8C438,127.8,439.3,128.1,440.2,129.3z" />
	<path fill="#C2BA9F" d="M436.6,127.8c-0.1,0.9-0.9,0.7-1.5,0.8c-0.7-0.3-1.4-0.6-2.1-0.9c0.3-0.2,0.5-0.5,0.8-0.7   C434.7,127.3,435.6,127.6,436.6,127.8z" />
	<path fill="#4C4D42" d="M448.1,135c-1.5,0-2.3-0.8-2.9-2.1C446.7,132.9,447.4,133.9,448.1,135z" />
	<path fill="#595448" d="M445.3,132.9c-1.4-0.1-2.3-0.9-2.9-2.2C443.8,130.8,444.7,131.6,445.3,132.9z" />
	<path fill="#828874" d="M433.7,127c-0.3,0.2-0.5,0.5-0.8,0.7c-1-0.2-2-0.4-2.9-0.6c0.3-0.3,0.5-0.6,0.8-0.9   C431.8,126.4,432.9,126.1,433.7,127z" />
	<path fill="#838976" d="M429.2,125.8c-1.5,0.9-2.2,0.9-3.4-0.1C426.9,125.7,428.1,125.7,429.2,125.8z" />
	<path fill="#595448" d="M442.4,130.7c-1.1,0.1-1.8-0.4-2.2-1.5C441.3,129.2,442,129.7,442.4,130.7z" />
	<path fill="#DAC0B0" d="M446.7,329.1c-0.2-0.3-0.4-0.5-0.6-0.8C446.2,328.6,446.5,328.9,446.7,329.1z" />
	<path fill="#6C5F41" d="M448,262.9c-0.9,0.6-1.5,0.5-1.8-0.7C447.2,261.4,447.6,262,448,262.9z" />
	<path fill="#8F7F56" d="M443.9,261.7C444.3,259.1,446.5,261.7,443.9,261.7C443.9,261.7,443.9,261.7,443.9,261.7z" />
	<path fill="#E8D1B1" d="M406.9,143.7c-1.7-0.8-3.4-1.5-5-2.3c0-0.2,0-0.4,0-0.6c2.6,0.2,4.9,1.6,7.6,1.4c-0.2-0.3-0.3-0.5-0.4-0.7   c0.5-0.3,1.1-0.7,1.8-1.1c-0.8-0.6-2.1,0.2-2.6-1c2.3-0.1,4.7,0.1,7-0.2c1.2,1.3,2.8,0.8,4.3,0.8l0.2,0.1c0,0.5,0,1,0,1.4   c-3,0.3-4.2-1-7.6-0.6c2.4,0.6,6.9,4.2,7.7,2.9c0.2,0,0.5,0,0.7,0c0.2,0.4,0.5,0.8,0.7,1.3C416.5,147.2,411.6,145.2,406.9,143.7z" />
	<path fill="#CFBB9C" d="M397.5,143.8c4.3,1.5,10,5.6,14.2,3.5c2.4,1.3,4.9,0.4,7.4,0.8c0,0.4,0,0.9,0,1.3c-3,1.3-6.2,0.7-9.4,0.8   c-0.3-0.7-0.9-0.7-1.5-0.6C405.2,149.7,396.9,147.6,397.5,143.8z" />
	<path fill="#928771" d="M416.2,151.9c3.1,1.5,6.1-0.5,9.4-0.6c-2.6,2.5-6.1,2.9-9.3,4c0-0.6,0-1.2-0.7-1.4c0-0.2,0-0.5,0-0.7   C415.8,152.7,416,152.3,416.2,151.9z" />
	<path fill="#B6A890" d="M420.6,143.9c-0.7,0-1.4,0-2.1-0.1l0,0c0.2-0.9,1.9-0.9,1.5-2.2c0.2-0.2,0.5-0.5,0.7-0.7c0-0.2,0-0.4,0-0.6   c0.3-0.1,0.5-0.1,0.8-0.2c0.2,0.1,0.5,0.1,0.7,0.1c-0.2,0.7-0.5,1.4-0.7,2.1l0,0c-0.2,0.1-0.3,0.3-0.5,0.4c2.8,0.6,6.5,0.4,8.6-1.8   c1,0.5,0.6,1.5,0.7,2.3c-0.1,0.2-0.2,0.4-0.2,0.6c-2.2,0.1-4.4-0.2-6.4,0.8C422.8,143.2,421.6,143.9,420.6,143.9z" />
	<path fill="#A38C74" d="M415.6,153.9c0.7,0.2,0.7,0.8,0.7,1.4c-0.2,0.3-0.5,0.5-0.7,0.8c-3.5-0.4-7-0.5-10.3-2.1   c2-0.1,4-0.3,5.9,0.5c0.7,0.3,1.7,0.4,2.2-0.6C414.1,153.9,414.8,153.9,415.6,153.9z" />
	<path fill="#878B74" d="M417.2,148c-4,0.7-7.8-1.5-11.7-2.1c0-0.3,0-0.5,0-0.8C409.5,145.6,413.2,147.2,417.2,148z" />
	<path fill="#4E382F" d="M411.4,146.5c-2-0.3-3.8-1.6-5.9-1.4c0.5-0.4,0.9-0.9,1.4-1.3c2.2,0.7,4.4,1.4,6.7,2.1   C412.9,146.2,411.9,145.5,411.4,146.5z" />
	<path fill="#C7C1A5" d="M430,144.5c0.2,0.9-0.4,1.4-0.8,2c-1.6,0.7-3.2,0.9-4.9,0.8c0-0.2,0-0.4,0-0.6   C426.2,146.1,427.9,144.3,430,144.5z" />
	<path fill="#432922" d="M409.8,150.2c2.2,0,4.4,0.1,6.6,0.1c-0.2,0.4-0.5,0.8-0.7,1.2c-0.5,0-0.9,0-1.4,0   C413,150.1,410.8,151.8,409.8,150.2z" />
	<path fill="#C3B395" d="M414.2,151.6c0.7,0,1.5-0.2,2.1,0.3c-0.2,0.4-0.5,0.9-0.7,1.3c-1.2-0.2-2.2-0.6-3.5-1.3   C413,151.7,413.6,151.7,414.2,151.6z" />
	<path fill="#605E4F" d="M424.3,146.8c0.1,0.2,0.1,0.4,0,0.6c-1.1,0-2.1,0-3.3,0C422.9,145.7,422.9,145.7,424.3,146.8z" />
	<path fill="#D3C0A1" d="M420.6,143.9c1,0.1,2.2-0.7,2.9,0.6c-0.7,0.2-1.5,0.5-2.2,0.7C421.1,144.7,420.9,144.3,420.6,143.9z" />
	<path fill="#767361" d="M419.2,149.4c0-0.4,0-0.9,0-1.3c0.6,0,1.3,0.1,2,0.1C420.7,149.4,420.1,149.6,419.2,149.4z" />
	<path fill="#796151" d="M416.3,159c1.2,0,2.5-0.3,3.5,0.6c-1.1,0-2.3,0-3.4,0C416.3,159.4,416.3,159.2,416.3,159L416.3,159z" />
	<path fill="#3B312E" d="M427.1,147.3c0.5-0.2,1-0.4,1.5-0.6C428.3,147.4,427.7,147.4,427.1,147.3z" />
	<path fill="#28221C" d="M416.3,159c0,0.2,0,0.4,0.1,0.7c-0.2-0.1-0.4-0.2-0.6-0.3C416,159.2,416.1,159.1,416.3,159z" />
	<path fill="#322C28" d="M406.1,170.6c-0.5-0.7-1.1-1.4-1.5-2c0.4-1.5,0.7-2.7,0.9-3.9c0.4-0.2,0.8-0.5,1.1-0.7   c0.2,1-0.3,2.1,0.8,2.8c0,0.3,0,0.7-0.1,1c-0.8,0.5-0.7,1.2-0.7,2C406.6,170.1,406.3,170.3,406.1,170.6z" />
	<path fill="#B3A390" d="M408.3,174.2c1.1,0.5,2,1.3,2.2,2.7c-2,0.4-3.5-0.8-5.1-1.1c0.1-0.4,0.5-0.6,0.8-0.9   C407,174.8,407.9,175.3,408.3,174.2L408.3,174.2z" />
	<path fill="#DABCAD" d="M406.8,169.8c0-0.8,0-1.5,0.7-2c0,1.6,2.8,1.6,0.8,3.4C407.8,170.8,407.3,170.3,406.8,169.8z" />
	<path fill="#828A73" d="M407.5,179.1c-0.7-0.5-1.3-0.9-2-1.4c1-1.2,2.5,0.1,3.9,0.3C408.7,178.4,408.1,178.8,407.5,179.1z" />
	<path fill="#322B24" d="M437.3,133c-0.5,0.5-1,1.1-1.5,1.6c-1.9-0.7-3.9-1.4-5.8-2.1c-0.3-0.5-0.6-0.9-1-1.4c0.2-0.2,0.4-0.6,0.7-1   c-1-0.1-1.8-0.1-2.7-0.1c0.1-0.2,0.1-0.4,0-0.6c2.5-0.4,4.4,0,5.9,2.1c-0.6,0.1-1.2,0.2-1.8,0.2c0,0.2,0,0.3,0,0.5   c0.6,0,1.2,0,1.7,0c0.2,0.6,0.5,1,1.1,0.2c-0.4-0.1-0.8-0.1-1.1-0.2c0-0.3,0-0.5,0-0.8c1.2,0.3,2.4,0.5,3.6,0.8c0,0,0,0,0,0   C436.8,132.4,437,132.7,437.3,133z" />
	<path fill="#817060" d="M427.1,129.3c0.1,0.2,0.1,0.4,0,0.6c-3.6,0-7.1,0-10.7,0c0.2-0.2,0.5-0.4,0.7-0.6   C420.4,129.3,423.7,129.1,427.1,129.3z" />
	<path fill="#717A68" d="M433,131.4c-0.5-0.5-1-0.9-1.5-1.5c1.8,0,3.4,0.8,5,1.5c0,0.2,0,0.5,0,0.7   C435.4,131.9,434.1,131.7,433,131.4C432.9,131.4,433,131.4,433,131.4z" />
	<path fill="#948F7A" d="M426.4,127.1c1.2,0,2.4,0,3.6,0c-0.6,1.4-2.5,0.5-3.6,0.6C426.4,127.5,426.4,127.3,426.4,127.1z" />
	<path fill="#B2A194" d="M409.6,166.8c-0.3-1.6,0.1-2.9,1.1-4c0.5,0.4,0.9,0.6,1.3,0.9C411.4,165,410.5,165.8,409.6,166.8z" />
	<path fill="#B5B197" d="M430,132.4c2.6,1.3,6.5,1.4,8,4.1c-4.1-1.2-8-2.8-12.1-4.1c0-0.2-0.1-0.6-0.1-0.9   C427.2,131.9,428.6,132.1,430,132.4z" />
	<path fill="#AC9882" d="M440.2,134.3c0.9,0.4,1.7,0.8,1.9,2c-0.5,0-0.9,0-1.6,0C440.4,135.7,440.3,135,440.2,134.3L440.2,134.3z" />
	<path fill="#998E79" d="M440.2,134.3c-1,0-1.8-0.4-2.2-1.4l0,0C439.1,132.8,439.9,133.3,440.2,134.3L440.2,134.3z" />
	<path fill="#9FA18A" d="M437.3,133c-0.2-0.3-0.5-0.5-0.7-0.8c0.6,0.1,1.3-0.1,1.5,0.7c0,0,0,0,0,0   C437.8,132.9,437.5,132.9,437.3,133z" />
	<path fill="#54443A" d="M421.4,142.3c0.2-0.7,0.5-1.4,0.7-2.1c0.3-0.1,0.7-0.2,1.4-0.4c-1.4-0.7-2.5-1.2-3.6-1.7   c0.8-0.2,0.5-0.8,0.4-1.5c2.3,0.7,5.7,1.4,7.5,0.1c0.8,0.4,1.5,0.9,2.3,1.3c-1.3,1.9-3.5,1.5-5.6,1.7c0,0.2,0,0.3,0,0.5   c0.7,0,1.3,0,2,0c0,0.2,0,0.4,0.1,0.7C424.6,140.8,423,141.7,421.4,142.3z" />
	<path fill="#D3C0A1" d="M426.4,137.1c-2,0.2-4.1,0.3-6.1-0.6c0.8,2.6-2.1,1-3.5,0.8c0.7-0.1,1.4-0.3,2.3-0.5c-0.5-1-1-1.7-1.4-2.4   c2.9,0.9,5.7,1.9,8.7,2.2C426.4,136.8,426.4,136.9,426.4,137.1z" />
	<path fill="#576758" d="M430.4,136c0.5,0,1,0,1.5,0c0,0.1,0,0.2,0,0.3c-0.5,0-1,0-1.5,0C430.4,136.2,430.4,136.1,430.4,136z" />
	<path fill="#87A991" d="M426.4,137.1c0-0.2,0-0.3,0-0.5c0.5,0,0.9,0,1.4,0C427.5,137.3,426.9,137.2,426.4,137.1z" />
	<path fill="#170F0D" d="M406.7,164c-0.4,0.2-0.8,0.5-1.1,0.7c-0.1-0.5-0.2-1-0.2-1.4l0.2,0.1c0.9-0.6,0.6-1.5,0.5-2.3   c0.9-2.2,3.4-4,5.8-3.4c0.2,0.2,0.5,0.5,0.7,0.7c-0.2,0.2-0.5,0.4-0.7,0.7C408.8,158.5,407.8,161.8,406.7,164z" />
	<path fill="#141210" d="M421.4,142.3c2.5-1.2,5.2-1.9,8-1.5c-2,2.3-5.3,2.2-8,2.1C421.4,142.7,421.4,142.5,421.4,142.3L421.4,142.3   z" />
	<path fill="#7F6557" d="M427.3,140.7c-0.3,0-0.5,0-0.8,0c-0.1-0.4,0-0.9-0.1-1.3c0.3,0,0.5,0,0.8,0   C427.2,139.9,427.2,140.3,427.3,140.7z" />
	<path fill="#4A3A31" d="M408.4,174.1c-1.7,2.9-4.9-2.6-6.6-1.4c-0.2,0-0.4-0.1-0.6-0.1c0.5-1.1,0.9-2.3,1.4-3.4   c0.7,0.4,1.3,0.9,2.4,1.6c-0.6,0.4-1,0.6-1.5,0.9C405,172.8,406.4,174,408.4,174.1z" />
	<path fill="#827965" d="M401.7,172.8c1.2-0.9,3.1,1.6,4.5,2c-0.2,0.2-0.5,0.5-0.7,0.7C404.3,174.5,402.5,174.3,401.7,172.8z" />
	<path fill="#736857" d="M414.2,151.6c-0.6,0.1-1.1,0.1-2.1,0.2c1.3,0.7,2.3,1.2,3.5,1.3c0,0.2,0,0.5,0,0.7c-0.7,0-1.4,0-2.2,0   c-1.5-1.2-3.6-0.8-5.2-2.1c1.5-1-1.2-0.5,0-2.2c0.6-0.1,1.2-0.2,1.5,0.6C410.8,151.8,413,150.1,414.2,151.6z" />
	<path fill="#A38C74" d="M412.6,153.3c0.3,0.2,0.5,0.4,0.8,0.6C413.1,153.7,412.9,153.5,412.6,153.3z" />
	<path fill="#A7A086" d="M412.7,158.3c-0.2-0.2-0.5-0.5-0.7-0.7c0-0.2,0-0.5,0-0.7c0.6,0,1.3,0,2.6,0   C413.6,157.6,413.1,158,412.7,158.3z" />
	<path fill="#E3C6A9" d="M417.7,134.4c0.4,0.7,0.8,1.5,1.4,2.4c-4.2,0.7-9.3-0.2-12.9-2.5C410.2,134.9,413.6,135,417.7,134.4z    M416.5,135.2c-0.2,0.1-0.4,0.2-0.6,0.2c0.2,0.4,0.5,0.1,0.8,0C416.6,135.3,416.5,135.3,416.5,135.2z" />
	<path fill="#261D19" d="M430,132.4c-4.9-1.3-9.6-1.8-14.7-1.8c3.5-1.9,10-0.3,14.4-0.6c-0.3,0.4-0.5,0.7-0.7,1   C429.3,131.5,429.7,132,430,132.4z" />
	<path fill="#D3C0A1" d="M414.8,134.5c-2.2,0.8-3.7,0.8-5.7-0.1C411,134.5,412.9,134.5,414.8,134.5z" />
	<path fill="#929B85" d="M425,134.2c1.2-0.8,1.2-0.8,2.2,0.1C426.4,134.3,425.7,134.3,425,134.2z" />
	<path fill="#382D26" d="M425,134.2c0.7,0,1.5,0.1,2.2,0.1c0,0.2,0,0.5,0,0.7l0,0C426.4,134.9,425.4,135.4,425,134.2z" />
	<path fill="#150F0D" d="M408.3,135.8c5.2,1.1,10.3,1.2,15.1,4c-1.1,0.2-1.3,0.5-2.1,0.2c-1.6-1.4-4.1-0.1-6-0.8l-0.2,0.1   c-3.9-0.7-8.2-1.9-12-0.8C400.7,135.7,406.7,135.7,408.3,135.8z" />
	<path fill="#917B68" d="M409.1,141.5c0.1,0.2,0.2,0.4,0.4,0.7c-2.7,0.2-5-1.2-7.6-1.4C403.8,138.8,406.8,141.1,409.1,141.5z" />
	<path fill="#D9D5B6" d="M408.5,138.5c2.2,0.3,4.5-0.2,6.6,0.8c-3.3,0-6.6,0.1-9.9,0.1c0-0.2,0-0.3,0-0.5   C406.3,138.7,407.4,138.6,408.5,138.5z" />
	<path fill="#322C28" d="M406.1,161c0,0.8,0.3,1.7-0.5,2.3C405.4,162.5,405.4,161.7,406.1,161z" />
	<path fill="#392822" d="M394,139.3c-1.5,0-3,0-4.5,0c0-0.2,0.1-0.4,0.1-0.6C391,138.8,392.6,138.2,394,139.3z" />
	<path fill="#43392F" d="M406.1,146c1.9,0.5,3.8,0.9,5.7,1.4c-1.7,1.6-5.1,0-7.2-0.7C405.1,146.5,405.6,146.3,406.1,146z" />
	<path fill="#D3C0A1" d="M419.9,141.6c0.4,1.3-1.2,1.3-1.5,2.2c-1.8-0.8-3.6-1.6-6.1-2.8C415.7,140.5,416.9,141.8,419.9,141.6z" />
	<path fill="#D9D5B6" d="M415.5,139.3c1.2,0.1,2.4,0.1,3.6,0.2c0.1,0.2,0.2,0.3,0.3,0.5C418.1,140,416.6,140.5,415.5,139.3z" />
	<path fill="#54443A" d="M419.4,140c-0.1-0.2-0.2-0.3-0.3-0.5c0.8-0.1,1.7-0.3,2.3,0.5c-0.3,0.1-0.5,0.1-0.8,0.2   c-0.2-0.1-0.5-0.1-0.7-0.1l-0.2-0.1L419.4,140z" />
	<path fill="#D3C0A1" d="M418.5,143.8c0.5,0,1,0.1,1.5,0.1C419.4,144.6,418.9,144.6,418.5,143.8z" />
	<path fill="#D9D5B6" d="M419.9,140.1c0.2,0,0.5,0,0.7,0.1c0,0.2,0,0.4,0,0.6c-0.2,0-0.5,0-0.7,0   C419.9,140.6,419.9,140.4,419.9,140.1z" />
	<path fill="#D3C0A1" d="M419.9,140.9c0.2,0,0.5,0,0.7,0c-0.2,0.2-0.5,0.5-0.7,0.7C419.9,141.3,419.9,141.1,419.9,140.9z" />
	<path fill="#54443A" d="M421.4,142.3c0.1,0.2,0.1,0.4,0.1,0.6c-0.2-0.1-0.4-0.2-0.6-0.2C421,142.6,421.2,142.4,421.4,142.3z" />
	<path fill="#63705F" d="M432.9,131.4c0,0.3,0,0.5,0,0.8l0,0c-0.6,0-1.2,0-1.7,0c0-0.2,0-0.3,0-0.5   C431.8,131.6,432.4,131.5,432.9,131.4L432.9,131.4z" />
	<path fill="#677262" d="M432.9,132.2c0.3,0.1,0.7,0.1,1.1,0.2C433.4,133.1,433.2,132.7,432.9,132.2L432.9,132.2z" />
	<path fill="#D1C5A8" d="M426.4,139.4c0,0.2,0,0.4,0,0.6c-0.7,0-1.3,0-2,0c0-0.2,0-0.3,0-0.5C425.1,139.5,425.7,139.5,426.4,139.4z" />
	<path fill="#D3C0A1" d="M416.5,135.2c0.1,0.1,0.2,0.2,0.3,0.2c-0.3,0.1-0.6,0.4-0.8,0C416.1,135.3,416.3,135.3,416.5,135.2z" />
</g>
</svg>