<?xml version='1.0' encoding='utf-8'?>
<svg xmlns="http://www.w3.org/2000/svg" version="1.2" baseProfile="tiny" id="Layer_2_00000025429500644127497170000000902425453634166945_" x="0px" y="0px" viewBox="0 0 900 600" overflow="visible" xml:space="preserve">
<g>
	<path fill="#010101" d="M314.7,65.7c1,6.5-3.1,12.5-5.9,18.2c6.2,1.9,12,1.5,17.6-1.4c10.8-0.1,22.4-2.1,32.7,1.9   c10.1,8.2,16.3,21.7,23,32.9c4.1,10.1,15,13.6,21.4,21.7c16.2,1.2,14.3,10.4,23.3,19.4c0,4.5,0,8.8,0,13.2   c11.5,2,20.2-8.6,31.3-10.8c13.5-4.8,26.8-10,40.3-14.5c5.4-3.1,10.3-7.7,17-6.5c25.2-20.9,57.4-31.6,89.2-37.7   c-0.2-5.1-1.8-9.7-3.9-14.2c0.1-0.5,0-1.2,0.7-1.4c3.5,2.7,4.3,8.2,5.1,12.2c1.4,1.1,4.6,1.8,3,4.1c-0.6,0.1-1.2,0.2-2.1,0.4   c2.7,10.4,14.9,4.7,22.6,5.3c0.6,0,1.7,0.2,1.9,0.6c3.1,2.9,8.5-0.1,11.7,3.3c-0.1,0.6-0.1,1.2-0.2,1.9c-0.5,0.1-1.1,0.1-1.7,0.2   c0.5,1.9,2.4,1.2,3.8,2c7.3-4.8,14.4-10.2,23-12.6c22-7.6,2.2-28.7-12-32.5c-20.3-0.4-16-0.7-28.2-16.4   c-11.6-6.8-44.2-1.4-47.4,12.4c-1.1-0.5-0.4-1.5-0.8-2.2c0.1-1.8,0.7-3.4,1.6-4.9c23.3-13.6,45.5-19.4,60.3,8.4   c26.2-6.1,59.1,30,22.5,38.8c-8.6,1.4-14.4,15.7-23.5,9.5c-0.3-1.2-0.6-2.3-0.9-3.8c-3.6,1.6-7.1,3.2-10.6,4.8   c-0.7-0.3-0.8-0.8-0.8-1.4c2.2-1.3,4.1-2.4,6.3-3.9c-9.8-4.9-21,3.5-29.3-5.2c6.2-12.2-66.2,17.9-70.7,21.2   c-8,3.3-14,11.7-22.1,13.5c-27.8,10.7-57.1,24.4-85.4,32.3c-4,3.6-8.7,4.1-13.8,4.1c-2.1,7.2-5.8,13.6-6.5,21.4   c-0.1-0.6,0-1.3-0.8-1.6c-0.7-7.6,3.9-13.4,5.2-20.6c-17.5-0.5-25.6-7.4-38.5-18c-11.8,10.1-23.4,19.7-34.8,30.2   c-0.3-0.3-0.6-0.6-0.9-0.9c9.9-11.7,23.6-19.8,33-31.5c-17.9-17.4-13.9-7.8-32.3-12.7c-3.1,3.1-6.1,1.4-9.8,2.4   c-2.8-2.5-4.8-5.5-7.3-8.7c0.2,4.7,0.3,8.6,0,13c-10.7,15.9-31.9,21.5-49.6,4.8c-6.7,34.4-3.4,49.3,34.1,45   c-2.1,2.2-5.3,2.1-7.9,3.7c1.3,1.4,2.5,2.7,3.6,4c0,0.6,0,1.2,0.7,1.4c0,0.3-0.1,0.7-0.1,1c-2-2-4.1-3.9-6.3-6   c-9.1,0.1-18.3-2-24.9-8.7c0.2,13.8-2.4,27.8-12.5,37.9c-3.4,3.2-8.7,0.3-13.1,0.7c-11.3-13.4-10.8-33.7-10.7-50.4   c-0.9-13.7-8.1-26.7-5.8-40.8c0.8-18.9,23.1-25.8,29.1-41.7c-5.2,0.5-10.7,6.8-16.2,4.2l-0.1-0.1c11.1-0.7,18.2-14.5,16.4-24.2   c1.5-2.6-0.2-6.1,1.3-8.5c0.3,9.7,1.5,18.9-4.5,27.6c10.3-4.2,5.1-24.4,5.4-33.5c0.9-0.2,1.7-0.5,2.5-0.7c0.9,3.5,2.5,6.6,2.6,10.1   c-0.3,0-0.6,0-0.8,0c-0.4-0.3-0.5-1.1-1.5-0.7c0.1,11.3,1.3,22.7-5.4,32.6c0.2,0.7,0.5,1.6,1,2.9c2.1-2.4,4.6-3.2,7.4-2.8   c4.4,1.7,9.1-0.6,13.6,0c0.5,0.6,0.9,1,1.3,1.5c-1.9,9.9,10.6,16.8-4,20.6c0,6.8,3.8,18.2-5.2,21.2c4.2,8.1,22.8,13.8,30.4,9.4   c0-3.7-2.3-9.3,0.8-12c0.6,4,0.2,7.8,1.6,11.5c17.8-8.2,14-9.6,15.6-26.1c-0.7-1.2-1.3-2.2-2-3.2c1-3.1-2.3-5.8-0.9-8.7   c1.2,1.1,2,2.3,2.8,3.8c2.5-1.6,5.9-8.2,8.4-6.8c-2.2,4.1-5.8,7-8.5,10.8c0.5,0.8,1.1,1.5,1.7,2.3c3-2.4,5.5-5.9,9.2-6.8   c-1.7,4.1-6,5.6-8.5,9c0.7,0.7,1.4,1.4,2,2.1c0,0.8,0,1.5,0,2.4c7.1,4.7,6.1,6.5,15,2.5c9.8,3.6,19.5-2.8,27.8,8.3   c7.7,8.2,18,13.9,27.2,20.4c8.1,3.5,17.6,2.4,26.1,4.6c1.7-0.8,3.6-1.1,5-2.8c-1.2-4.2-0.2-9.1-0.5-13.2c-2.5-3-2.9-6.4-4.9-8.9   c-12.7-16.4-38-10.7-54.3-22c0.5-0.2,1-0.5,1.5-0.7c9.4,3.6,19.4,5.5,29.1,8.1c0.3,0.6,0.8,0.7,1.6,0.2c-33-23.9-21.8-65.6-77-49   c1.1,7.6,4.5,14.2,7.7,20.8c1.2,0.3,2.2,0.6,3.1,0.8c0.3-0.9,0.8-1.5,1.5-2.1c2.7,10,15.8,9.7,23.1,14.9c-0.2,0.7-0.9,0.7-1.4,0.7   c-9.4-3.6-18-5.7-25.2-12.8c-3.1,0.7-3.1,4-5.4,5.7c-1.2-2.1-3.1-1-4.9-0.7c-1.9,1.6,0.2,4.5-1.4,6.4c-3.7-11.9-5.9-26.1-10.8-36.5   c1.7-5.5,5.3-10.3,6.5-16.1C314.4,68.1,313.1,66,314.7,65.7z M273.1,119c0.9-0.2,1.7-0.4,2.2-1.9c-3.5,1.4-6.4,1.9-10,1.2   c1.6-1.6,4.3,0.6,5.7-1.3c2.2-1.2,4.6-1.5,7.2-1.5c-0.2-0.5-0.3-0.8-0.5-1.3c-5.2,0.2-10.8,1.7-15.7-0.3c5.3-2.8,11.9,0.7,16.8-2.4   c-6.4,1.3-18.2-3.5-20.4,3.4c-1.7,12.3-3.4,24.5-4.1,36.8c-1.3,6-3.5,11.8-3.7,18c-2.9,14.4-12,27.5-13.1,42   c0.9,14.9,14.7,33.4,24.7,12.9c7.1-12,5.8-26.2,4.4-39.4c-1.2-11.7,2-22.9,3.1-34.3c8.6-2.9,5.1-13.5,4.5-20.6c1-2.1,3.4-4.4,4-6.8   c0.3,0.1,0.7,0.2,1.1,0.3c0.3,1-0.2,2.6,0.9,3.2c1.1,0,1.5-0.8,1.9-1.9c-1.2-1.7-2.8-3.7-3.5-5.6c-3-0.7-9.5,5.2-11.7,1.7   C268.9,120.4,271.1,119.7,273.1,119z M235.4,174L235.4,174c2.3,9.1-0.4,18.7,1.3,28c9-24.4,23.6-59.8,13.5-84.9   C228,134.2,225.1,148.1,235.4,174z M326,110c-3.3-7.4-5.7-14.5-7.5-22.1c-3-0.5-5.8-0.9-8.9-1.3c2.7,9.1,5.4,17.9,8,26.9   c2.3-0.4,4.5-0.8,6.7-1.2C324.9,111.5,325.5,110.7,326,110z M252,115.1c1,3.3,1.4,6.1,3,9.1c1.1-4.7,2.6-8.5-0.1-12.8   C253.8,112.8,252.9,114,252,115.1z M277.9,129.2c0.2-0.2,0.4-0.4,0.5-0.6c-0.4-0.3-0.6-0.3-1,0.1   C277.6,128.9,277.7,129,277.9,129.2z" />
	<path fill="#010101" d="M406.3,198.2c2.3,26.3-19.7,46.6-40,59.5c3.5,4.3,7.9,7.6,11.5,11.7c0,0.5,0,0.9,0,1.4   c-0.7,0.1-1.3,0.3-2.1,0.4c0.2,2.7-1,5.1-0.6,7.7c1.2,1.1,2.6,1.5,4.1,1.9c-0.5,0.2-0.9,0.5-1.4,0.7c-1-0.1-2.1-0.1-3.2-0.2   c-0.3,17.5-7.6,34.1-7.5,51.7c-0.4,19.3,1.8,38.6,2,57.9c-0.8,8.4-1.6,17.2,0.9,25.4c-15.3,37.7,0.6,79,3.7,118   c0.8,0.3,1.7,0.6,2.6,1c1.8,5.9,7.1,7.4,10.8,11.7c0.8,1.1,2,2,3.6,2.4c4.3-30.1,7.4-60.8,12.6-90.9c1.8-14.9-6-31.3,0.2-45.6   c10.9-45.9,31.1-90.1,40.2-136.4c-19.5,4.9-40,10.5-60.1,6.2c-0.9-1.2-2.3-0.2-3.5-0.7c21.3,1,43-2,64.1-6.7   c0.7-3.1,1.4-6.4,2.2-9.5c-0.8,42-22.7,82.5-34.1,122.4c-2.2,6.7-1.1,15.4-5.4,21c-7.1,15.3,0.8,32.9-0.8,49.1   c-4.7,26.9-8.7,53.8-11.8,80.9c8-1,5.5,7.5,5.8,12.6c1,8.6,2,17.1,4.2,25.4c-15.7,11.1-22.8,0.3-26.1,8.4   c-9.8,11.5-32.2,8.3-44.4,1.8c-0.9-4.2,0-8.4,0.9-12.5c1.1-0.6,2.1-1.1,3.1-1.6c0.3,0.3,0.7,0.6,1,0.9c-0.7,0.8-1.4,1.6-2.3,2.7   c-0.3,2.8-0.7,6-1.1,9.2c12.1,6,27.3,5.8,39.7,0.7c2-6.5,7.8-8.2,13.4-5.7c4.7-1,8.4-2.8,12.3-5.5c-0.8-11.3-4.3-21.9-3.2-33.3   c-1-1-2-1-3.2-0.7c-0.7,1.9,1,3.6,0.1,5.5c-0.8,1.6-1,3.6-1.3,5.2c-5.9,0.8-9-8-14.6-9.9c-2-1.3-3.1-4.2-4.4-6c-1.8,0-3.3,0-5,0   c-1.1,3.5-2.1,6.8-3.3,10.4c3.3,0.9,11.6,1.2,11.5,5.3c-7.9-2-12.3-2.6-16.7-2.2c0,0.2-0.1,0.5-0.1,0.9c4.1,1.5,8.8,1.5,12.6,3.6   c-2.3,2.7-7.1,0.2-10.2,0.2c-0.8-0.8-1.9-0.7-2.9-0.7c-1.9-1-2.1-0.9-3,0.7l0,0c-1.1,1.1-2.5,2.3-1.9,4.1c4.1,1.2,8.6,0.8,11.5,4.7   c-4.5,0-8.3-1.7-12.3-2.3c-2.6,3.4-5.1,9.1-9.8,9.4c-0.3-0.3-0.6-0.6-0.9-0.9c6.2-4.2,8.8-10.8,12.3-17c5.1-5.8,9.5-11.5,11.8-18.9   c1.2,0.1,2.2,0.1,3.4,0.2c-1.7-25.9-9.2-50.7-10.2-76.5c-1.4-17.2,6.7-33.3,5.4-50.2c1.9-23.9-1.6-47.7-1.2-71.7   c0.5-22.6,8.8-44.3,8.1-66.9c-12.9-12.7-20.1-30.2-35.7-40.4c-11.8-6.6-26.6-6.8-36.1-17.2c0-0.3,0.1-0.7,0.1-1   c26.6,14,47.5,15.1,63.3,45.5C387.2,243.7,402.4,223.3,406.3,198.2z" />
	<path fill="#030202" d="M314.7,65.7c-1.6,0.4-0.2,2.4-1.7,2.9c-0.2-4.8,0.8-9.6-1-14.3c-1.1,1.1-1.9,3.2-4.3,2.3   c-0.6-0.7-1.1-1.4-1.7-2.1c0.2-0.4,0.5-0.7,0.7-1.1c-0.7-0.3-1.3-0.6-1.9-0.9c1.9-1.5,3.8-1.8,6-1.8c-1.2-1.8-2.8-1.4-4.2-1.4   l0.1,0.1c-0.1-0.2-0.1-0.5,0.1-0.7c2.3-0.4,4.2,0.6,6.2,1.9c0.5-1.4,0.9-2.6,1.4-3.7c-3.1-1.9-6,0.6-9.1-1c0.2-0.4,0.3-0.9,0.5-1.3   c2.7-0.6,5.4-0.4,8.2-0.2c-1.6-7.9-2.1-15.6-7.1-22.1c-0.7,0.3-1.1,0.4-1.5,0.6c-0.9-1.1-1.1-2.7-2.7-3.2c-0.6,1.1,0.2,1.8,0.5,2.6   c-0.3,0-0.5,0-0.8,0.1c-0.2-0.1-0.4-0.1-0.7-0.1l0.1,0.1c-1.4-6.5-8.2-9.5-14.2-9.9c0.5,0.5,0.9,0.9,1.3,1.2   c-0.3,0.3-0.5,0.5-0.8,0.8c-5.7-3.1-13.3-5.2-18.7-1.3c-2-0.7-3,0.7-4.2,2.1c-0.8-0.4-1.5-1.4-2-0.1c-0.9,0.3-0.7,1-0.7,1.7   c-0.6-0.2-1.3-1.5-1.4-0.2l0,0c-1.5-0.1-5.7,4.7-5.7,6.3c-0.5,0.5-1,1-1.5,1.5c0,1.3-1.6,3.5,0,4.2c0,0,0,0,0,0   c0.2,0.3,0.4,0.5,0.6,0.8c0,0,0.1-0.1,0.1-0.1c0.4,0.5,0.9,1,1.3,1.6c-0.3,0.2-0.5,0.5-0.8,0.7c-1.2-0.1-1.9-2.8-3-2   c-1.5,1.9,1.1,4.1,2.6,5.3c-0.1,0.3-0.1,0.7-0.2,1c-0.8-0.5-1.7-1-2.8-1.6c0,1.1,0,2,0,2.8c-1,1.4-0.7,3-0.5,4.6   c-0.4,0.8,0.2,2-1,2.5c-0.3-0.4-0.6-0.9-1-1.4c-1,3.6-5.6,7.6-4.6,10.7c-5.6,9.1-5.2,19.8-6.4,29.9c-0.4-4.1,0.1-8.3-0.4-12.4   c-1.9,4.7-0.3,10-1.8,14.6c-6-20.7,13.8-36,12.9-55.8c2.3-6.3,0.7-14.6,4.4-20.9c4.6-7.3,16.6-6.6,21.9-0.4   c37.4,0.6,43.7,22.7,39,54.9c0.1-1.4,0.1-2.4,0.2-3.5C315.3,61.8,314.7,63.7,314.7,65.7z M260.9,14.4c1.6-0.8,3.1-1.8,4.8-2.3   c-0.2-0.1-0.3-0.3-0.5-0.4c0,0,0,0,0,0c0.2-0.2,0.5-0.7,0.7-0.6c1.3,0.2,2-0.7,2.8-1.5c0.8,0.4,1.5,0.8,2-0.7   c-1.8-2.8-5.3-5.3-7.7-2.2c-8.1-1.2-11,10.1-11.1,16.1c2.7-3.2,4.2-7.3,8.3-8.3l0-0.1C260.5,14.4,260.8,14.4,260.9,14.4z M272,7.8   c-0.2,1.7-0.2,1.8,1.7,1.3C273.1,8.6,272.6,8.3,272,7.8z" />
	<path fill="#030202" d="M447,268.9c0-1.1,0.1-2.2-0.7-3.1c-2.3-13.9,12.1-21.9,17.8-32.7c-2.5,0.1-4.7-0.5-7.1-0.8   c-0.3-0.6-0.9-0.7-1.5-0.6l0,0c-1-1.6-1-1.6-2.9-0.7c-17.9-11.1-24.3-37.5-17.2-56.9c-0.6-0.1-0.9-0.1-1.3-0.2   c0.9-1.1,2.5-0.9,3.8-1.3c-9.3,18.7,3.4,64.7,30,56.6c11.7-15.2,32.3-20.9,43.8-36.7c0.3,0.3,0.6,0.7,0.9,1   c-9.6,14.5-26,23-40,32.7c-6,6.5-10.3,14.1-16.6,20.3C449.1,252,448.8,261,447,268.9z" />
	<path fill="#040303" d="M620.8,124.2c-20.6,13.6-38.1,31.4-62.3,38.7c-31.2,8-19.4,10.1-42.5,24.6c-0.9-0.5-0.5-1.4-0.7-2.2   c7.9-5,15.1-11.9,21.6-18c0.1-0.6,0.1-0.9,0.1-1.3c32.2-3.4,55.9-26.5,82.4-42.6C620,123.5,620.6,123.4,620.8,124.2z" />
	<path fill="#1A1413" d="M601.5,86.4c-0.7,0.2-0.6,0.9-0.7,1.4c-5.8-7.3-17-8.8-20.6-17.8c0.3,0,0.6-0.1,0.8-0.1   C586.7,76.9,595.6,79.6,601.5,86.4z" />
	<path fill="#201A19" d="M231.9,99.1c-4-0.8-7.6-2.2-10.7-4.8c0.3-0.3,0.6-0.5,0.8-0.8c3.2,2,7.7,3.6,11.3,1.5   c1.7,1.3,2.8-0.1,4.2-0.7c0.3,0.2,0.5,0.5,0.8,0.7c-1.9,1.5-4.1,2.2-6.8,2.5c0.8,0.4,1.4,0.7,1.9,1.1   C232.9,98.6,232.4,98.8,231.9,99.1z" />
	<path fill="#13100F" d="M231.9,99.1c6.2-1.1,11.9-1.9,15.7-7.7c0.4,0.7,0.9,1.4,1.3,2.1c-3.5,3.3-7.5,5.6-11.9,7   C235.2,99.6,233.8,99.1,231.9,99.1z" />
	<path fill="#27201C" d="M253.1,91.1c0-0.3,0-0.7,0-1c0.3,0,0.6-0.1,0.9-0.1l0,0c0.3,7.2-5.9,14.8-12.8,15.6c-0.1-0.6,0.4-1,0.9-1.3   C248.3,102.3,250.9,96.8,253.1,91.1z" />
	<path fill="#3F3A33" d="M253.9,90c-0.3,0-0.6,0.1-0.9,0.1c-1.4,1.1-2.7,2.3-4.1,3.4c-0.4-0.7-0.9-1.4-1.3-2.1   c3.2-4.6,5.6-9.5,7.1-14.9c1.9,4-4.2,11-5.2,14.8c1.5-0.4,1.8-2,3-2.7C253,89.1,253.5,89.5,253.9,90z" />
	<path fill="#453E38" d="M236.9,94.4c-1.1,1-2.3,1.5-3.6,0.5c3-3.1,7.2-6.6,5.1-11.4c0.6-0.9,0.7-1.9,0.7-2.9   c0.3,1.1,0.6,2.2,0.9,3.2c0.5,0.2,0.9,0.3,1.2,0.5c-0.5,4-2.8,6.8-4.9,9.7C236.5,94.1,236.7,94.3,236.9,94.4z" />
	<path fill="#262624" d="M236.2,85.7c1.5-4.6-0.1-9.8,1.8-14.6c0.3,3.8,0.4,7.5,0.2,11.2c-1.9,1.5,0.3,4.2-1.2,6   C236.7,87.4,236.4,86.5,236.2,85.7z" />
	<path fill="#281D1C" d="M620.8,124.2c-0.2-0.7-0.8-0.7-1.4-0.7c3-2.5,6.5-4.2,9.3-7c0,0.6,0.1,1.2,0.8,1.4   C626.6,120,623.9,122.5,620.8,124.2z" />
	<path fill="#2B2523" d="M515.3,185.3c0.2,0.7-0.2,1.7,0.7,2.2c-0.7,2.2-1.7,4.3-3.3,6c-0.3-0.3-0.6-0.7-0.9-1   c0.7-1.2,1.3-2.5,2.2-3.5C514.9,187.9,514.2,186.2,515.3,185.3z" />
	<path fill="#E0E1DF" d="M237,88.3c1.5-1.8-0.7-4.4,1.2-6c0.2,2.4,2,5.1-0.4,7C237.2,89.2,236.9,88.9,237,88.3z" />
	<path fill="#322420" d="M343.7,569.9c0.3,0.3,0.6,0.6,0.9,0.9c0,0.2-0.1,0.3-0.2,0.5c-2.2,0.4-3.8,1.8-5.6,3   c-0.3-0.3-0.7-0.6-1-0.9C339.4,571.6,341.6,570.8,343.7,569.9z" />
	<path fill="#3C3D38" d="M581,69.9c-0.3,0-0.6,0.1-0.8,0.1c-1.4-1.7-0.9-3.4-0.1-5.1c0.4,0.7-0.3,1.8,0.8,2.2   C580.9,68.1,580.9,69,581,69.9z" />
	<path fill="#726969" d="M222,93.4c-0.3,0.3-0.6,0.5-0.8,0.8c-1.1-0.5-1.7-1.3-1.8-2.7C220.8,91.6,221.3,92.6,222,93.4z" />
	<path fill="#3D3939" d="M241.1,106.4c0.9,0.6,1.8,0.7,2.9,0.7c-1.4,0.9-2.8,0.8-4.3,0.5C239.7,106.3,240.4,106.3,241.1,106.4z" />
	<path fill="#BDB09B" d="M241.1,105.6c0.5,0,0.9,0,1.4,0.1c-0.1,0.2-0.1,0.3-0.1,0.5c-0.5,0-0.9,0.1-1.4,0.1   C241.1,106.1,241.1,105.8,241.1,105.6z" />
	<path fill="#3F3A33" d="M253.1,91.1c-0.1,0.3-0.3,0.7-0.4,1C252.8,91.7,252.9,91.4,253.1,91.1z" />
	<path fill="#F6D9C7" d="M442.6,216.1c-31.3-57.8,30.3-51.4,64.4-72.1c1.9-1.1,3.6-2.1,5.9-2c5.1,0.1,8.1-5.3,12.5-7.4   c14.7-9.5,31.1-16.8,47.9-21.9c4.6,0,36.8-14.7,32.4-5.3c6.3,6.6,14.6,3.3,22.6,4.2c-29.8,15.4-53.8,43.8-88.5,49   c5.9-10.6,18.6-13.7,27.6-21.5c-34,2-41.9,43-68.8,55.9c4.3-4.4,15.8-19.2,9.8-24.4c-1.1,1.1-0.7,2.8-0.9,4.2   C490.6,194,468,210.6,442.6,216.1z M503.2,166.2c0.1,0.4,0.1,0.8,0.2,1.2c2.4,0.3,4.5,0.5,6.7,0.8c3.5-2.8,7.7-4.8,9.6-9.1   C514.7,152.9,500.1,158.1,503.2,166.2z M522.5,145.7c0.2-2.2-0.6-3.1-2.3-3.6c-0.4,0.3-0.7,0.5-1.2,0.9   C519.7,144.2,520.5,145.3,522.5,145.7z" />
	<path fill="#F6D9C7" d="M406.3,198.2c-3.5,17.3-10.3,34-24.2,45.6c-5.1-1.1-9.9-3.1-15.3-3.5c-8.2-1.5-13.8-8.4-21.1-12.2   c-1-4.5-9.4-3.6-9.9-9.2c0-0.6,0.1-1.3-0.8-1.4l0,0c-0.9-0.8-1.7-1.6-2.5-2.4c0.6-1.5,0.7-2.9-0.2-4c-0.1,0-0.2,0-0.6,0.1   c0,0.6,0,1.3,0,1.9c-3.3-1.3-3.2-5.2-6.4-6.6c0.3,3.1,0.7,5.6,1.3,8.2c-6.5,0-13.7-1.4-18.5-5.8c25-11.6,43.8-32.2,64.9-49.3   c12.8,10.6,21,17.5,38.5,18C410.2,184.8,405.6,190.6,406.3,198.2z M375.1,183.9c-0.6-0.9-1.6-1.1-2.8-1.3c1,2.2,2.5,2.1,4.1,3.6   C376.6,184.9,375.8,184.4,375.1,183.9z M353.3,211.8c2.8,2.6,5.6,5.8,9.4,6.3c-2.8-2.8-5.6-4.4-8.3-6.4c-0.4-0.8-0.9-1.5-2.3-1.1   C352.7,211.1,353,211.4,353.3,211.8z M371.1,219.4c10.8-2.1-3.2-8.7-2.3,3.6C370.2,222.3,370.2,222.3,371.1,219.4z M345.9,204.9   c-2.7-3.1-6.5-5.3-8.8-8.9c-0.3-0.3-0.7-0.7-1.2-0.2C337.7,198.6,342.3,206.3,345.9,204.9z M379.7,187.8c1.1,3,1.9,3.5,5.2,3.9   C384.2,189.9,381.2,189.2,379.7,187.8z M387.9,193.2c0.8,2.4,0.9,2.5,2.8,2.5C390.2,194.5,389.6,193.6,387.9,193.2z M395,201.9   c0.2-0.2,0.3-0.4,0.5-0.6c-0.5-0.4-0.6-1.6-1.9-0.6C394.1,201.2,394.6,201.5,395,201.9z M365.7,178.9c-0.2,0.2-0.3,0.4-0.5,0.6   c0.3,0.5,0.6,1.1,2.1,0.8C366.7,179.7,366.2,179.3,365.7,178.9z M364.3,219.2c-0.2,0-0.4,0-0.5,0   C363.9,219.5,364,219.4,364.3,219.2z" />
	<path fill="#FF9A77" d="M434.1,174c0.3,0,0.7,0.1,1.3,0.2c-6,15-2.1,31.6,5.2,45.4c-0.7,0.6-1.4,1.2-2.1,1.8   c-3.6,14.3-1.1,23.2,9.3,33.4c-2.6,6.7-1.1,13.9-3.7,20.7c-18.6,2.9-37.2,9-56.3,6.1c0.4-1.3,0.7-2.6,1.2-4.3   c1.6-0.9,3.3-2.3,4.5-4.1c1.8-0.8,4.5,0,5.4-2.1c-0.9-0.1-1.7-0.1-2.6-0.1c1.4-2.2,4.5-3.7,4.2-6.5c3.6-2.1,9.4-3.8,11.3-7.3   c-5.5,3-11.2,7.4-17.5,6.8c4.5-3,8.8-5.9,13.3-9c-0.8-0.3-1.3-0.5-1.8-0.6c0.4-0.4,0.7-0.8,1.1-1.2c0.9-0.1,3.1,0.2,2.1-1.5   c-3.5,2.4-7.8,2.9-11.7,5.1c-17.4-18.8-13.6-5.8-0.5-27c10.7-15.4,9-34.8,16.6-51.2c2.8,0,5.2-0.3,7.8-0.1   c-1.9,9.3-2.7,18.4-1.3,27.9c0.1,0,0.2,0,0.4-0.1c-0.1-8.1-0.2-16.3,1.6-24.3c1.4,2,0.1,4.4,0.8,6.7c2-3.1,2.1-8.3,1.2-11.8   c1.1-0.9,2.2-1.7,3.3-2.6C429.7,174.2,431.9,174.1,434.1,174z M438.4,250.9c1.6,0.2,3.1,1.3,5.4,0.8c-4.1-1.8-7.2-3-11.5-3.3   C434.3,249.4,436.2,250.4,438.4,250.9z M412.7,237.4c1.8,1.4,3.7,2.4,6.8,2.7c-5.6-3.2-10-5.6-14.3-10.1c-0.8-0.9-1.1-1.1-2.6-1.1   C405.8,232.5,408.9,235.4,412.7,237.4z M424.9,212.7c-0.4-7.2,0.7-16-0.5-22.4C423.1,197.7,423.1,205.1,424.9,212.7z M416.3,198.4   c0.1-4.8,2.2-9.5,1-14.1C416.5,188.9,415.1,193.6,416.3,198.4z M423.6,243.9c-1.8-2.2-1.8-2.1-4-3   C420.9,242.3,421.5,243.4,423.6,243.9z" />
	<path fill="#FFF0A7" d="M268.9,181.8c-0.6-8.6,0.2-17.2,2.3-25.7c17.7,16.7,38.9,11.1,49.6-4.8c0.2-4.4,0.2-8.3,0-13   c2.5,3.3,4.5,6.2,7.3,8.7c3.7-1,6.8,0.7,9.8-2.4c18.3,4.9,14.4-4.6,32.3,12.7c-4.4,6.7-11.4,11-17.5,16.3   c-12.1,11.8-30.7,29.9-47.4,32.8c0.2-1.6-0.8-2.8-1.6-4.1c2.3-1.4,3.3-3.3,4.2-5.9c-4.8-3.4-11.8,2.4-17.6,1c-8,0.9-16.5-4.1-19-12   C271,184.2,270.5,182.6,268.9,181.8z M316.6,181.8c18.5,7.6,43.3-13.6,36.5-32.9c1.7,13.4-16.2,25.6-28.7,23.6   c-6.8,1.1-12.1-4.4-18.6-4.2C301,170.2,313.5,182.1,316.6,181.8z" />
	<path fill="#F6D9C7" d="M306,54.5c0.6,0.7,1.1,1.4,1.7,2.1c2.4,0.9,3.2-1.1,4.3-2.3c2.4,8.3,1.3,17.6-3.2,25   c-1-2.8-3.8-2.8-6.4-3.6c-3.4-1.6-6.6,1.4-10-0.1c-1.1-0.5-2.6-0.6-2.8,1.1c5.4,3.5,8.8,11.3,16.3,5.5c1.9,1.4-0.3,4.1-0.9,5.8   c-2.1,9-10.3,5.6-17.1,6.1c-5.5-3.7-13.3-3.1-17-9.6c-5.2-3.6-6.7-11.2-8.8-17.4c-0.7,0.2-1.6,0.4-2.5,0.7   c-1.7-1.9-3.9-3.2-5.1-5.5c0.1-0.6,0-1.2-0.7-1.4c-0.1-1.8-2.2-2.9-1.4-4.9c0.2,0,0.5,0,0.7,0c0.5,1.8,1.6,4,3.6,4.2c0,0,0,0,0,0   c0.3,0.2,0.5,0.4,0.8,0.6c0,0.5-0.1,1-0.1,1.6c0.6,0.7,1.2,1.5,1.8,2.2c1.3-1.5,1.3-1.5,1.6-3.2c-1.8-2.7-1.8-2.7-1.4-7.3   c1.7,0.5,3.4,0.9,5.2,1.4c0.3-0.4,0.5-0.8,0.8-1.2c-0.8-0.4-1.4-0.7-2-1c0.1-0.3,0.3-1.4,0.3-1.6c0.6-0.8,4.3-2.2,2.9-2.8l0,0   c0.2-2.1,2.8-3,2.1-5.1c1-0.9,3.3-1.1,2.7-2.9c-0.4,0-0.8,0.1-1.2,0.1c0.2-0.2,0.3-0.4,0.3-0.6l0.3,0c1.3-0.9,1.7-1.1,3.3-2.3   c-1.4,0-2.1,0-3.3,0c1.1-1,5.3-3.8,4.5-4.9c-0.8-0.4-1.4,0.4-2.1,0.8c-0.8-0.8-1.5-1.5-2.3-2.3c1.1-1.4,3.4-0.8,4.3-2.1   c-0.1-0.2-0.1-0.5-0.2-0.7c-0.4-0.3-0.6-0.8-1-0.8c-0.3-0.2-0.6-0.5-0.9-0.7c0-0.2,0-0.4-0.1-0.6c1.2-2,5,0.8,4.5-2.5   c2-0.8,3.4-2.3,5.4-2.9c-0.3-1.1-1-1.8,0.1-2.5c1.5,1.2,3.3,0.6,4.9,0.8c1.5,1.1,3.1,2.1,4.8,3.3c1.5-0.8,2.8-0.5,4,0.8   c0.1,0.7,0.4,1.3,1.4,1.5c0.1-0.4,0.2-0.7,0.4-1.3c1.7-0.3,2.9,1.4,4.5,0.6c0.2-0.1,0.8,0.4,1.2,0.6c0.4-0.2,0.9-0.3,1.3-0.5   c1,2.3,1.1,0.7,2.4-0.1c4.1,5.9,4.1,13,5.8,20c-2.8-0.2-5.5-0.5-8.2,0.2c-0.2,0.5-0.3,0.9-0.5,1.3l0-0.1c-7.9,4.8,1.2,14,1.4,20.5   c-1.2,0.8-2.4,1.6-3.6,2.4c-0.1-0.4-0.3-0.9-0.4-1.3c-2-1.2-3.7,0.1-5.8,0.6c-0.3-0.6-0.7-1.3-1.2-2c-2.5,4.5,5.1,3.6,7.5,2.6   c0.1,0.4,0.1,0.8,0.2,1.3c1.3-0.2,2.4-0.4,3.6-0.6c3.2-4.9-1.9-9.3-2.5-14.1c0.2-0.4,0.4-0.9,0.7-1.3C305.4,54,305.7,54.3,306,54.5   z M281.8,42.3c-1.3,0.1-1.5,1-1.6,2c-0.4,0.6-0.1,1,0.4,0.8c5.8-4.6,12.3-0.6,18.7,0.4c0.3-0.4,0.5-0.7,0.7-0.9   c-4.1-3.4-12.5-5.2-17.5-2.3C282.2,42.3,282,42.3,281.8,42.3z M293.8,52.2c0.4,1.6,2.3-0.3,0.9-1c-0.3-1.2,0.4-2.1,0.9-3.3   c-4.6-1.2-8.9-1.7-13.2,1.1c0.4,0.9,0.8,1.6,1.3,2.6c1.1-0.6,1.8-1,3-0.9c-0.3,3.8,3.7,5,6.5,2.7c0-0.5-0.1-0.9-0.1-1.2l0,0   C293.4,52.2,293.6,52.2,293.8,52.2z M302,74.3c0.2-1.9,0.2-1.9-0.9-3C300.7,72.7,300.9,73.2,302,74.3z" />
	<path fill="#F6D9C7" d="M308.7,89.4c2.6,10.8,6.1,21.2,8.7,31.9c-2.8,3.7,0.7,6.9,0.1,10.8c0.6,1.1,1.2,2.1,2,3.2   c-1.7,16.7,2.4,17.8-15.6,26.1c-1.4-3.7-1-7.5-1.6-11.5c-2.1,1-1.2,3.5-2.2,5.3c-1.6-0.6-2.3-3-4.8-2.5c1.8,2.1,3.9,3.4,5.7,5.1   c0.2,1.4,0.4,2.8,0.6,4.2c-7.6,4.4-26.2-1.3-30.4-9.4c9-3,5.2-14.4,5.2-21.2c14.6-3.8,2.1-10.7,4-20.6c7.8,0.5,13.1-5.4,18.1-10.4   c2.4,3.3,2.9,0.3,3.4-2c0.7-3.7,3.7-6.2,4.9-9.7c0.3-0.6,0.5-1.3,1.4-1.4C308,87.9,308,88.7,308.7,89.4z M300.5,109.4   c-2.9-0.2-5.3,3-7.9,4.1c-1.5,0.6-2.7,4.5-0.2,4.1C293,112.9,298.4,113.1,300.5,109.4z M288.1,120.7c0.6-3-4.2-5.2-5.6-2.6   C284.9,118.6,285.8,119.1,288.1,120.7z M285.4,115.9c-0.6-2.1-1.5-3.1-3-3.8C282,114.1,282.3,114.4,285.4,115.9z M297.3,105.9   c1.4,1.5,3.6-2.1,2.3-3.2C298.4,103.4,297.9,104.7,297.3,105.9z" />
	<path fill="#E1C7B6" d="M507.4,181.7c-1,5.5-5.6,9.1-8.9,13.3c26.9-12.9,34.9-53.9,68.8-55.9c-9,7.7-21.8,10.9-27.6,21.5   c34.7-5.1,58.8-33.5,88.5-49c-2.3-0.5-4.7,0-6.9-0.3c4.7-1.6,8.9-0.3,13.6,1.2c-31.7,19.4-59.8,48.4-98,53.6c0,0.3-0.1,0.7-0.1,1.3   c-6.4,6.1-13.7,13-21.6,18c-1.1,0.9-0.4,2.6-1.4,3.7c-0.9,1-1.5,2.3-2.2,3.5c-11.5,15.8-32.1,21.6-43.8,36.7   c-10.7,4.7-21-3.7-25.4-13.2c25.5-5.4,48-22,64.9-41.4C507.7,177,505.9,179.8,507.4,181.7z M536,159.8c3,0.2,7.4-5.5,6.8-7.5   C539.7,153.9,537.8,156.4,536,159.8z M465.9,219.9c3.2,0.4,5-0.6,6.3-3.2C470.1,217.6,467.7,217.9,465.9,219.9z M504.4,183.2   c-1.8,0.9-1.8,0.9-1.7,2.6C503.7,185.3,504.5,184.8,504.4,183.2z M545.8,150.1c0.1,0.2,0.2,0.3,0.2,0.5c0.4-0.2,0.9-0.3,1.3-0.5   c-0.2-0.3-0.3-0.5-0.5-0.8C546.6,149.6,546.2,149.8,545.8,150.1z M500.4,187.8c-1.1-0.6-1.5,0.1-2.1,1   C499.5,189.2,499.9,188.6,500.4,187.8z M551.2,146.7c1,0.2,1,0.2,1.8-0.4C552.2,146.1,551.9,146.1,551.2,146.7z M557.3,144   c-0.4-1.1-1.6-0.4-1.1,0.4C556.5,144.3,556.9,144.1,557.3,144z M497.4,189.9c-1.2-0.3-1.5,0-1,1.1   C496.8,190.6,497,190.3,497.4,189.9z M476.9,212.5c0,0.2,0,0.3,0,0.5C478.2,213,478.2,212.7,476.9,212.5z" />
	<path fill="#F7EFD0" d="M581.4,66.4c0.7-8.7,12.7-8.8,18.7-12.9c9.3-3.7,18.9-1.9,28.2,1.3c12.3,15.8,7.9,16,28.2,16.4   c14.2,3.7,34,24.9,12,32.5c-0.9-0.8-1.9-1.6-2.9-2.3c0.6-0.2,1.5-0.1,1.4-1.3c-6-2-12-4.6-17.2-7.8l0,0c0-0.5-0.3-0.8-0.8-0.8   c-3.4-2.6-6.9-5.2-10.1-7.6c-14.2,1.5-28.7,0.6-41.6-6C591.2,75,588.1,67.7,581.4,66.4z M612.6,63c5.6,0.9,10.7,2,15.8,5.1   c-0.4-1.4-0.3-1.6-0.1-2.9c-9.7-4.8-19.8-7.8-30.3-3.5C602.2,63.5,607.8,62.1,612.6,63z M653.1,79.6c0,0.2,0,0.5,0,0.7   c6.1,3.2,11.8,8.2,18.2,11.5C672.3,84.7,659.2,79.3,653.1,79.6z M600.4,68.2c1.3,2.3,1.3,2.3,2.4,2.5c7.1,0.6,14.1,1.6,21,2.9   C617.4,66.8,608.4,71,600.4,68.2z" />
	<path fill="#F6D9C7" d="M420.7,154c1.1,1.9,2.3,3.8,3.6,6c0,3.7,0,7.7,0,11.7c-19.4,3.9-35.2-10-50.5-20c0.4-0.3,0.6-0.5,0.7-0.6   c0.4,0,0.8-0.1,1.7-0.2c-1.9-1.8-2.7-3.8-4.7-1.4c-1.5-1.9-3-4.6-5.8-3.9c-0.7-0.8-1.4-1.5-2.1-2.3c0.6-0.8,1.3-1.6,1.9-2.4   c-2.6-1.7-6.6-1-9.6-0.4c-5.9,2.4-12-0.8-18,0.8c-0.1-0.3-0.2-0.7-0.2-1c-0.6-0.3-1.3-0.6-1.9-0.9c0.5-3.9-1.9-7.1-1.4-10.9   c-1.5-1.1-2.3-2.6-2.8-4.3c1-1.6,1-3.5-0.4-4.8c-0.4,0-0.7,0-1.1,0c-1.8-2.1,0.6-5.4-1.5-7.2c-0.2,0.3-0.5,0.5-0.7,0.8   c0.1,0.2,0,0.4-0.1,0.6c-0.7,0.2-1.5,1.4-2.1-0.1c0.5-1.7,1.4-3,3.3-3.4c5.6,4.6,7.9,6.6,15,9c12.5,3.3,22,13,34.6,15.9   c13,5.1,31.2,3.1,39.8,15.6c-0.1,1,1,0.4,1.3,1.1c-0.1,0.6,0.3,1.4-0.5,1.9c-0.3-0.2-0.6-0.4-0.9-0.6l0,0c-1.1-2.8-6.6-4.3-9.8-4.2   c1.1,1.3,2,2.3,2.8,3.3c0,0,0,0,0,0c0.6,1.4,2.4,0.6,3.5,0.8c1.5,0.5,3.5,3.2,4.9,1.4C420.1,154,420.4,154,420.7,154z M339.2,121.3   c-1-1.1-1.7-2.7-3.9-2.1C336.2,120.8,337.5,121.3,339.2,121.3z M338.5,125.7c-0.1,0.2-0.2,0.5-0.3,0.7c0.5,0.3,1,1.1,2.1,0.2   C339.6,126.2,339.1,125.9,338.5,125.7z M341.3,121.7c0.1,0.6,0.2,1.5,1,0.7C342,122.1,341.7,121.9,341.3,121.7z M379.6,152   c-0.3,1.3-0.3,1.3,1.1,1C380.3,152.6,380,152.3,379.6,152z" />
	<path fill="#F6D9C7" d="M395.7,136.4c-14-3.3-27.9-6.2-39.8-14.4c-7.3-5.2-20.5-4.9-23.1-14.9c-0.8,0.5-1.2,1.1-1.5,2.1   c-1-0.2-1.9-0.5-3.1-0.8c-3.3-6.6-6.6-13.2-7.7-20.8c54.8-16,43.6,23,75.5,47.9C395.7,135.8,395.7,136.1,395.7,136.4z M349.3,91.5   c0.5-2.6-2.7-7.4-4.8-3.4C345.8,89.3,347,90.9,349.3,91.5z M351.9,95.6c-0.2-0.2-0.4-0.4-0.7-0.6C350.4,95.6,351.5,96.6,351.9,95.6   z M331.7,102.7c0.1,0,0.3,0,0.4,0c0-0.5,0-0.9,0-1.4c-0.1,0-0.3,0-0.4,0C331.7,101.8,331.7,102.2,331.7,102.7z M353.9,99.7   c-0.1,0.4-0.3,0.7,0.1,0.8C354.3,100.2,354.4,100,353.9,99.7z" />
	<path fill="#F6D9C7" d="M278.1,123.4c-0.6,2.4-3,4.8-4,6.8c0.7,7,4.1,17.7-4.5,20.6c0.1,8.1-3.8,15.8-3.1,24   c-0.2,19.3,5.8,44.4-11.3,58.3c-5.4-4.1-12.3-7.1-12.3-15.1l0.2,0.2l-0.2-0.2c4.7-6.2,7.4-16.2,7.6-24c-3.1,4.8-4,10.9-8.1,14.9   l0,0c2-13.1,7.7-25,12.9-37c3.1-17.1,8.6-34,9.8-51.3c-1-0.4-2-0.7-2.9-1.1c2.9,0,6.3-1.1,8.7,0.3c-1.4,0.4-2.8,0.8-4.1,1.2   c2.2,3.6,8.7-2.4,11.7-1.7C279.7,121.5,280.1,121.7,278.1,123.4z M265.7,156.8c2.4,0.4,2.5-4,1.6-5.5   C264.6,150.5,265.4,155.3,265.7,156.8z M264.6,163c-1.9,2.3-1.9,3.1-0.2,3.7C264.5,165.6,264.6,164.6,264.6,163z M265.9,158.9   c-1.5-0.1-1.5,0.6-1,1.7C265.3,159.9,265.6,159.4,265.9,158.9z" />
	<path fill="#EBDDB8" d="M581.4,66.4c1,0.3,2,0.5,3,0.8c7.9,13,26.1,19.9,40.9,18.1c-0.2-0.3-0.3-0.6-0.5-0.9c1.3,0,2.5,0.3,3.7,0.6   c2.1,2.3,7,0.3,10.3,0.9c3.5,2.3,6.7,5.5,10.9,7.3c0.1-0.5,0.1-0.7,0.1-1c0.9,0.2,1.8,0.4,2.3,1.2c-0.5,0-0.9,0.1-1.7,0.1   c5.1,5.3,12.9,5.2,18.2,10c-8.6,2.4-15.8,7.8-23,12.6c-0.7-0.2-1.3-0.4-2-0.6c-0.1-1.1,0-2.4,0.1-3.4c-3.1-3.4-8.6-0.4-11.7-3.3   c-0.2-0.4-1.2-0.6-1.9-0.6c-7.7-0.5-19.9,5.2-22.6-5.3c0.8-0.1,1.5-0.3,2.1-0.4c1.6-2.2-1.5-3-3-4.1c-0.7-15.2-17-19-25.6-28.7   c0-0.9-0.1-1.8-0.1-2.8C581,66.9,581.2,66.7,581.4,66.4z" />
	<path fill="#F6D9C7" d="M231,139.6c2.7-9.5,12.4-15.6,19.1-22.5c10.1,24.3-3.8,55.5-11.2,79.7c-2-7.1-0.1-15.9,1.1-23.5   c0.7-0.4,1.5-0.8,2.3-1.1c0.7-2.2-1-3.2-2-4.5c0,0,0,0,0,0c-0.3-1.3-0.7-2.7-1-4C233.2,157.5,231.8,148,231,139.6z M236.8,132.4   c0.1,1.8,0.3,3.4,2.1,4.7C240.6,135.4,239.5,130.9,236.8,132.4z M239.7,140.1c-1.6,1.7-1.6,1.7-0.2,3.1   C239.6,141.9,239.7,141,239.7,140.1z" />
	<path fill="#E1C7B6" d="M271,119.8c-2.4-1.4-5.8-0.3-8.7-0.3c0.9,0.4,1.9,0.7,2.9,1.1c-1.1,17.3-6.6,34.2-9.8,51.3   c-5.1,12-10.9,23.8-12.9,37c-1.4,1.3-1.4,1.3-1,3.2c0.7-1,1.1-2,1-3.2c4.1-4,5-10.1,8.1-14.9c-0.1,7.8-2.8,17.8-7.6,24   c0.2-1.1,0.8-2.3-0.1-3.4c-1.7,0.8-1.8,1-1.6,3.6c0.6-0.1,1.1-0.1,1.7-0.2c-0.1,8,6.8,11,12.3,15.1c-12.6,2.5-16.4-11.6-17.9-21.5   c1.1-14.5,10.2-27.7,13.1-42c4.2-18.4,4.9-37.4,8.4-56c0,0.6,0.1,1.1,0.1,1.6c1.5,0.5,2.5,1,3.7,2c-0.1,0.4-0.1,0.8-0.2,1.4   c3.2-0.4,6,0.5,9.1-0.1l0.1,0.3c0.2,0.2,0.4,0.3,0.6,0.5C272,119.4,271.5,119.6,271,119.8z M262.8,124c-0.5,1-0.7,1.9-0.1,2.9   C264.3,125.4,264.3,124.9,262.8,124z M260.8,134.9c1.1-0.6,1.2-1.3,0.6-2.1C260.3,133.1,260,133.7,260.8,134.9z M259.7,118.9   c0,1.5,0,2.2,0,3.1C260.9,120.7,260.9,120.7,259.7,118.9z M262.6,131c-0.2-1.3-0.2-1.9-0.3-2.6C261.2,129.6,261.2,129.6,262.6,131z    M245.2,211.3c-0.1-0.1-0.2-0.1-0.2-0.2c-0.1,0.2-0.3,0.4,0,0.6C245.1,211.6,245.1,211.5,245.2,211.3z" />
	<path fill="#E1C7B6" d="M299.5,101.4c-0.3-0.3-0.6-0.7-1.1-1.2c-5,5-10.4,10.9-18.1,10.4c-0.4-0.4-0.7-0.9-1.3-1.5   c-1.9,0-3.8,0-5.8,0c-2.8-3-2.9-7.7-5.7-10.5c-1.8,3.3-3.6,6.5-5.3,9.6c0.9,0.7,2.4-0.4,3.2,0.9c-2.9-0.4-5.4,0.4-7.4,2.8   c-0.4-1.3-0.7-2.2-1-2.9c6.7-9.9,5.5-21.3,5.4-32.6c1-0.4,1.1,0.4,1.5,0.7c0.1,1,0.4,2,2.1,2.2c-1.1-1.6-1.5-2.5-1.4-4.3   c2.6,3.6,2.3,7.2,6.3,9.4c-0.4,0-0.9-0.3-1.4,0.5c3.8,5.3,10.4,8.8,16.9,9.1c0-0.4,0.1-0.8,0.1-1.1c0.4,0.4,0.9,0.7,1.4,1.2   c4.1,0,8.4,0,12.4,0.3c-3.2,1.1-6.9,0-9.9,0.9c2.8,0.9,6,1.3,9.2,1.2C299.6,98.2,299.5,99.8,299.5,101.4z M266.7,86.2   c-0.2,0.2-0.4,0.4-0.6,0.5c1.3,3,1.8,7.5,4.9,9.1C270.6,92.2,269.3,88.5,266.7,86.2z M278.8,108.7c-1-1.9-1-1.8-2.5-2.8   C276.6,107.1,276.9,108.1,278.8,108.7z M274.8,103.2c-0.3-1.7-0.2-3.1-1.7-1.9C273.5,101.7,273.9,102.1,274.8,103.2z" />
	<path fill="#E1C6B5" d="M370.2,147.6c0.5,0.6,0.9,1.2,1.4,1.8c0.9-0.6,1.6-2,2.8-0.5c-0.4,0.1-0.9,0.1-1.6,0.2   c0.8,0.8,1.3,1.3,1.8,1.9c-0.2,0.1-0.4,0.3-0.7,0.6c15.3,10,31.1,23.9,50.5,20c0.2,0.5,0.4,1,0.5,1.5c-1.4,1.7-3.4,2-5,2.8   c-27.2-1-41.1-13.4-60.3-31.1c-6.7-2.9-16.4,1.5-21.5-3c0-0.2,0-0.4,0-0.7c6-1.6,12,1.6,18-0.8c3.1-0.7,7-1.3,9.6,0.4   c-0.7,0.8-1.3,1.6-1.9,2.4c-1-0.3-1.3-2-3-1.3c0.7,1.9,3,5.1,5,3.6c0.3,0,0.6,0,0.8,0C367.5,146.2,369,149.5,370.2,147.6z" />
	<path fill="#DFC6B5" d="M338,141.2c0,0.2,0,0.4,0,0.7c-0.5-0.3-1-1-1.2-1.5c-7.4,0.8-4.5,3.7-8,3.7c-1.3-1-2.8-2.2-3-4   c2.2-1.8,5.9-1.4,7.8-4.7c-3.6,0-6.2,1.7-8.9,2.8c-1.3-0.4-1.9-1.5-3-2.5c2.4-3.4,6.7-4.9,8.5-9c-3.7,0.9-6.2,4.4-9.2,6.8   c-0.6-0.9-1.1-1.6-1.7-2.3c2.7-3.8,6.3-6.7,8.5-10.8c-2.5-1.4-5.9,5.2-8.4,6.8c-0.5-0.8-0.9-1.6-1.4-2.3c1.9-4.2,4.7-8.1,7.8-11.5   c0.6,1.5,1.4,0.3,2.1,0.1c0.2,1.1-0.1,3,1.5,2.9c-0.1,1.1,0.2,2,0.7,2.9c-0.1,2.6,0,2.9,2.1,3.5c-0.2,0.4-0.4,0.8-0.6,1.3   c0.5,1.7,1.3,3.2,2.8,4.3c-1.6-0.4-1.7,1.9,0,1.5c0.1,3.3,1.9,6,1.4,9.4c0.7,0.3,1.3,0.6,1.9,0.9   C337.9,140.5,337.9,140.8,338,141.2z" />
	<path fill="#FEEFA6" d="M326,110c-0.5,0.7-1.1,1.4-1.7,2.2c-2.2,0.4-4.4,0.8-6.7,1.2c-2.7-8.9-5.3-17.8-8-26.9   c3.1,0.5,5.8,0.9,8.9,1.3C320.3,95.5,322.7,102.7,326,110z" />
	<path fill="#DFC5B4" d="M231,139.6c0.8,8.4,2.2,17.9,8.3,24.1c0.3,1.3,0.7,2.7,1,4c-0.8-0.1-1.7-0.4-1.9,1.1   c1.1,0.3,1.5-0.1,1.9-1.1c1,1.3,2.7,2.3,2,4.5c-0.8,0.4-1.6,0.8-2.3,1.1c-1.1,7.6-3.1,16.4-1.1,23.5c-0.4,2.6-0.4,2.6-2.3,5.2   c-1.7-9.3,1-18.8-1.4-28.1c0.4,0.2,0.8,0.4,1.3,0.7c0.6-1.1,1.2-2.1,0.4-3.4c-1.3,0.6-1.5,1.7-1.6,2.9   C231.2,163.5,228,150.7,231,139.6z" />
	<path fill="#EAD98E" d="M268.9,181.8c1.6,0.7,2.1,2.4,2.4,3.7c2.5,7.9,11,12.9,19,12c5.8,1.4,12.7-4.4,17.6-1   c-0.5,1.1-0.9,2.2-1.3,3.2C291.6,204.1,267.5,202.9,268.9,181.8z" />
	<path fill="#0B0807" d="M253.1,58.8c1.1,3.7,3.8,6.4,6.6,8.9c0,0.3-0.1,0.6-0.1,1c-7.1-3.3-13.2-13.8-7.7-20.8   c-0.4-0.5-0.7-0.9-1-1.3c-0.5,0.2-0.9,0.4-1.3,0.6c0,0,0,0,0,0c0.2-1,0.4-1.9,0.7-2.9c1.1-0.5,0.6-1.7,1-2.5   c0.2,0.1,0.3,0.3,0.5,0.4c0.2,1.7-0.3,3.4,1.1,4.7c5.1-1.4,10.5,0,15.3-2.2c0,0.3,0,0.7,0.1,1c-2.3,2.2-5,1.5-8.1,2.6   c2.6,0.5,4.1,0.2,6.6,0.3c0,0,0,0,0,0c0,0.2,0,0.5,0.1,0.7c-0.2,0.2-0.5,0.5-0.7,0.7c-1.6,0.1-3.2-0.2-5,0.3   c0.7,1.5,1.8,1.1,2.8,1.1c0,0.1-0.1,1.3-0.3,1.6c0.6,0.3,1.2,0.6,2,1c-0.3,0.4-0.6,0.9-0.8,1.2c-1.9-0.5-3.5-1-5.2-1.4   c-0.4,4.7-0.4,4.7,1.4,7.3c-0.2,1.7-0.2,1.7-1.6,3.2c-0.6-0.8-1.2-1.5-1.8-2.2c1.6-1.3,0.1-1.3-0.7-2.2l0,0c-0.4-2,0.6-3,1-4.9   c-1.2,0.6-2.2,1.1-3.4,1.8c-0.2-0.8-0.3-1.3-0.4-1.8c0.8-0.6,1.7-1,2.1-2.2c-0.3-0.2-0.7-0.5-1.1-0.8c-0.7,1.1-1.2,2-1.8,3   c0,0,0,0,0,0c-0.2,0-0.4,0-0.6,0c0.3-1.9,0.7-3.8,1.5-5.6c1.6-0.2,2.5,1.3,3.6,2c0.1-0.1,0.2-0.2,0.4-0.3c-1.4-1.5-2.1-3.9-4.1-1.8   C250.5,51,251.4,56.1,253.1,58.8z M260,50.3l-0.1,0.2l0.3,0L260,50.3z" />
	<path fill="#120C0B" d="M306.8,206.8c11.2-3.6,20.4-12,30.4-18c0.3,0.3,0.6,0.6,0.9,0.9c-11,7.6-21.9,17-34.9,20.4   c0,0.2,0,0.5,0,0.7c-1-0.4-2.7-0.5-2.4-2C303,209.3,304.9,207.4,306.8,206.8z" />
	<path fill="#F3D5C3" d="M265.3,109.1c-0.8-1.3-2.2-0.2-3.2-0.9c1.7-3.1,3.5-6.3,5.3-9.6c2.8,2.8,2.9,7.5,5.7,10.5   C270.5,109.8,267.9,110.2,265.3,109.1z" />
	<path fill="#E9D1C0" d="M262.7,117.2c-1.2-0.9-2.2-1.5-3.7-2c-0.9-3.8,3.4-4.4,6.2-3.8c2,1.8,5-0.4,7.2,1.2   c-3.5,0.4-7.1-0.4-10.4,1.3c4.8,2.1,10.5,0.5,15.7,0.3c0.2,0.5,0.3,0.8,0.5,1.3C272.9,115.9,268.2,117.7,262.7,117.2z" />
	<path fill="#D0B0A1" d="M307.3,77.2c1,0.3,0.7,1.5,1.5,2.1c-0.7,1.4-1.4,2.9-2.1,4.3c0.1-3.2-9.1-2.3-11.5-2.3   c-1.2-1.1-2.4-2.3-3.5-3.4c5.2,0.8,10.2-0.9,15.4,1.5C307.2,78.4,307.2,77.8,307.3,77.2z" />
	<path fill="#181513" d="M293.1,95c7.5,1.2,11.3-3.7,13.4-10.3c0.2,2.4,1,0.2,1.5,2.3c-0.9,0.1-1.1,0.8-1.4,1.4   c-1.2,3.5-4.2,6-4.9,9.7c-0.5,1-0.5,4.6-2.3,3.2c0.1-1.6,0.2-3.2,0.3-5c-2.3-0.1-4.5,0.4-6.6-0.8C293.1,95.4,293.1,95.2,293.1,95z" />
	<path fill="#E2CEB0" d="M247.7,102.9c6.3-4.5,5.2-12.8,9.7-18.3c0,7-2.5,15.4-9.1,19C248.1,103.4,247.9,103.1,247.7,102.9z" />
	<path fill="#C6B599" d="M254.7,65.7c1.6,1,3.3,2,4.9,3c1.7,6.4,0.3,14.2-0.6,20.6c-0.9-4.2,2.6-18.4-2.9-18.5   C256.2,68.9,255.2,67.4,254.7,65.7z" />
	<path fill="#E7D68D" d="M306.8,206.8c-1.9,0.6-3.9,2.4-5.9,2c-1.2-1.3-2.3-2.6-3.6-4c2.1-1.1,4.3-1.7,6.4-2.4   c0.8,1.2,1.8,2.4,1.6,4.1C306,206.6,306.4,206.7,306.8,206.8z" />
	<path fill="#F0E29E" d="M252,115.1c0.9-1.1,1.8-2.3,3-3.8c2.7,4.3,1.2,8.1,0.1,12.8C253.4,121.2,253.1,118.4,252,115.1z" />
	<path fill="#DDC9AD" d="M259,89.2c1.7-3-0.4-6.9,1.3-9.9c-0.9,7.8,3.4,17.9-6,22C257.1,97.2,258.1,93.2,259,89.2z" />
	<path fill="#25201B" d="M257.6,87.1c-0.1-0.8-0.1-1.6-0.2-2.5c-1.8,1.4-2.1,3.5-2.8,5.4c-0.2,0-0.4,0-0.7,0l0,0   c-0.5-0.4-0.9-0.9-1.4-1.3c2.9-3.1,2.6-7.6,3.6-11.5c0.2,0.3,0.5,0.6,0.7,0.9C255.7,81.4,259.9,83.9,257.6,87.1z" />
	<path fill="#191514" d="M323.7,115.6c-1.9,3.1-4.4,5.9-5.7,9.3c-0.5-0.5-1-1-1.4-1.5c2.1-2.7,0.6-6,2.3-8.5c-0.5,1.4-0.2,2.7,0,4.5   c1.5-1.8,2.8-3.3,4-4.8C323.1,115,323.4,115.3,323.7,115.6z" />
	<path fill="#191412" d="M323.7,137.8c0.3,0.1,0.6,0.3,1,0.4c2.8-1.1,5.4-2.8,8.9-2.8c-1.9,3.3-5.5,2.9-7.8,4.7   c0.1,0.4,0.1,0.7,0.2,1.1c-0.7-0.3-1.4-0.6-2.3-1C323.7,139.3,323.7,138.5,323.7,137.8z" />
	<path fill="#2D2220" d="M355.8,122c3.8,1.6,7.2,4.3,10.8,6.4c-0.5,0.2-1,0.5-1.5,0.7c-3.7-1.7-7.1-4.3-10.7-6.3   C354.9,122.6,355.6,122.7,355.8,122z" />
	<path fill="#483E34" d="M256.9,78c-0.2-0.3-0.5-0.6-0.7-0.9c-0.2-2.1-0.2-4.3,0-6.4c2.2,0.1,2.3,0.2,2.7,2.9   c-1.7,2.1,0.4,5.5-1.2,7.8C257.5,80.3,257.7,79,256.9,78z" />
	<path fill="#B1CFBE" d="M272.5,112.6c-2.2-1.5-5.2,0.7-7.2-1.2c4.3,0,8.6,0,13.5,0C276.9,113.4,274.9,112.3,272.5,112.6z" />
	<path fill="#C57B5F" d="M422.8,183.3c-1.1-1.5-0.3-3.4-1.4-5c-0.6,0-1.1-0.1-1.7-0.1c1-1.2,2.9-0.9,4.4-1.4c0.2,0.5,0.4,1,0.7,1.5   c-0.3,0.1-0.7,0.1-1.2,0.2C423.5,180.2,423.6,181.8,422.8,183.3z" />
	<path fill="#CFBEAF" d="M322.9,114.7c-1.3,1.5-2.5,3-4,4.8c-0.2-1.8-0.5-3.2,0-4.5C320.1,114.9,321.7,113.6,322.9,114.7z" />
	<path fill="#463A35" d="M300.9,157.7c-1.8-1.7-3.9-2.9-5.7-5.1c2.5-0.5,3.2,1.9,4.8,2.5c0.3-0.9,0.6-1.8,0.8-2.7   C300.8,154.2,300.9,156,300.9,157.7z" />
	<path fill="#DDC4B4" d="M278.1,123.4c0.3-0.8,1.7-0.8,1.4-2c0.9,1.2,1.7,2.5,2.6,3.6c-0.4,1.1-0.8,1.9-1.9,1.9   c-1.1-0.6-0.6-2.1-0.9-3.2C278.8,123.6,278.5,123.5,278.1,123.4z" />
	<path fill="#351E1C" d="M262.7,117.2c2.8,0,5.5-0.1,8.3-0.1c-1.4,1.9-4.1-0.3-5.7,1.3c-0.9,0.1-1.7,0.1-2.8,0.2   C262.6,117.9,262.7,117.5,262.7,117.2z" />
	<path fill="#8C7C72" d="M337.3,141.2c0.5,0.4,1,0.9,1.4,1.4c-1.8,0.3-3.4,1.3-5,2.1c-0.3-0.3-0.5-0.5-0.8-0.8   C334.6,143.4,336,142.4,337.3,141.2z" />
	<path fill="#807363" d="M247.7,102.9c0.2,0.2,0.4,0.4,0.6,0.7c-1.6,1.5-3.8,2-5.8,2.6C243,104.3,246.1,104.1,247.7,102.9z" />
	<path fill="#D7B9AC" d="M332.9,143.9c0.3,0.3,0.5,0.5,0.8,0.8c-1.7,0-3.4,0.3-4.9-0.7c1.8-0.1,1.8-0.1,2.1-1.5   C331.5,143.2,331.8,144.1,332.9,143.9z" />
	<path fill="#A9A597" d="M271.7,118.4c1.1-0.4,2.2-0.7,3.6-1.2c-0.5,1.5-1.4,1.7-2.2,1.9c-0.3-0.6-0.8-0.5-1.3-0.3   C271.8,118.7,271.7,118.4,271.7,118.4z" />
	<path fill="#9D8E76" d="M256.9,78c0.9,1.2,0.7,2.7,0.6,4.1C256.2,81.1,256.9,79.4,256.9,78z" />
	<path fill="#59554F" d="M264.7,77.1c0.4,0.6,0.7,1.2,1.3,2.2c-1.8-0.2-2-1.1-2.1-2.2C264.2,77.1,264.4,77.1,264.7,77.1z" />
	<path fill="#392118" d="M303.7,200.3c0.8-0.9,1.9-0.7,2.9-0.6c-0.2,0.7-0.5,1.3-1.3,1.4C305,200.3,304.3,200.4,303.7,200.3z" />
	<path fill="#4F5046" d="M643.4,114.1c0,0.5,0.1,1,0.1,1.5c-0.9,0.1-1.5-0.2-1.8-1.3C642.3,114.2,642.9,114.2,643.4,114.1z" />
	<path fill="#DABFAF" d="M420.7,154c-0.3,0-0.6,0-0.9,0c-0.2-0.3-0.3-0.5-0.5-0.8c0.8-0.5,0.4-1.2,0.5-1.9   C420.9,152,420.5,153.1,420.7,154z" />
	<path fill="#181513" d="M308.7,89.4c-0.7-0.6-0.7-1.4-0.6-2.3C309.1,87.6,308.7,88.6,308.7,89.4z" />
	<path fill="#AE9B8E" d="M395.7,136.4c0-0.3,0-0.6,0.1-0.9c0.5,0.4,1,0.7,1.5,1.1C396.4,137.1,396,137,395.7,136.4z" />
	<path fill="#C9C5B5" d="M277.9,129.2c-0.2-0.2-0.3-0.3-0.5-0.5c0.3-0.4,0.6-0.4,1-0.1C278.2,128.8,278.1,129,277.9,129.2z" />
	<path fill="#F6D9C7" d="M271.8,118.7c0.5-0.2,1-0.2,1.3,0.3C272.6,119.4,272.2,119,271.8,118.7z" />
	<path fill="#DABFAF" d="M419.4,151.1c-0.5,0-0.8-0.2-0.9-0.8C418.8,150.6,419.1,150.8,419.4,151.1z" />
	<path fill="#F6D9C7" d="M385.7,283.5c19.7,2.7,39-1.8,57.9-6.9c-9.1,46.3-29.4,90.4-40.2,136.4c-6.1,14.2,1.6,30.7-0.2,45.6   c-5.2,30.2-8.3,60.9-12.6,90.9c-1.6-0.4-2.8-1.4-3.6-2.4c-3.7-4.3-9-5.8-10.8-11.7c-1.4-35-11.8-69.7-4.6-104.6   c0.5,0.2,0.8,0.3,1.2,0.4c2.4,4.7,4.5,9.4,7.8,13.5c-1.7,0.7-0.4,3.5,1.4,3.2c0.7-8.5-4.5-15.9-6.4-24c10.9-7.1,2.9-8.3-0.3-16.9   c-4.4-24.7-0.5-50.1-0.3-75.2C376.7,315.2,382.8,299.6,385.7,283.5z M387.1,392.6C387.1,392.6,387.1,392.6,387.1,392.6   c-1.4-4.4-2.9-10.7-7.1-13.3c-3.5,7.3,4.4,14.2,2.8,21.8c1.8,4.8,2.1-1.7,2.1-3.5c0.9,0.7,1.8,1.3,2.7,2c1,0,1.9,0,2.7,0   C390.5,397.3,389.9,396.1,387.1,392.6z M391.5,453.2c1-3.9,3.7-6.7,3.1-10C391.9,445.9,389.7,449.1,391.5,453.2z M384.7,405.6   c-1.4,1-3.4,4.6-2.2,6C384.5,410.5,385.2,408.7,384.7,405.6z M388.4,541.7c1.2-2.5,1.8-5.4-0.2-6.9   C387.7,537.3,387.6,539.6,388.4,541.7z M391.3,457.3c-1.7,2.6-1.8,2.7-0.6,5.4C390.7,460.7,391.6,459.4,391.3,457.3z M387.5,521   c1.5-2.8,1.4-3.4-0.2-4C386.7,518.2,386.8,519.4,387.5,521z M387.2,526.7c-0.1,1.2,0.2,2.1,1.5,3.4c-0.1-1.6-0.2-2.6-0.2-3.7   C387.9,526.6,387.6,526.6,387.2,526.7z M389.6,468.7c0.6-1.4,0.6-1.4,0.5-2.7C389,466.7,388.9,467.5,389.6,468.7z M388.1,474.5   c0.8-0.4,1.3-0.9,0.9-2C388.1,473,387.5,473.5,388.1,474.5z" />
	<path fill="#E1C7B6" d="M372.9,431.1c-0.3-0.1-0.7-0.2-1.2-0.4c-7.2,34.9,3.2,69.6,4.6,104.6c-0.9-0.3-1.7-0.6-2.6-1   c-3-39-19-80.3-3.7-118c-2.5-8.2-1.7-17.1-0.9-25.4c-0.2-19.3-2.4-38.6-2-57.9c0-17.6,7.3-34.2,7.5-51.7c1.1,0.1,2.2,0.1,3.2,0.2   c1,1,2.3,0.4,3.5,0.7c1.2,1,2.9,0.4,4.4,1.2c-2.9,16.1-9,31.7-10.7,48.1c-0.2,25.1-4.1,50.5,0.3,75.2c3.2,8.6,11.3,9.8,0.3,16.9   c1.6,7.6,6.8,14.6,6.3,22.5c-1.2-1.7-2.8-3.1-3.4-5.2c1.4-0.3,1-2.8-0.7-2.5c0,0.6,0,1.1,0,1.7c-1.5-1.4-2.1-3.3-2.8-5.1   c0.3,0,0.7,0,1.2,0.1c-0.7-2.3-1.8-8.3-4.7-7.4C372.1,428.9,372.5,430,372.9,431.1z" />
	<path fill="#F7EFD0" d="M344.3,571.3c0.1-0.2,0.2-0.3,0.2-0.5c4.7-0.3,7.1-6.1,9.8-9.4c4.1,0.6,7.9,2.3,12.3,2.3   c-1.1-2.1-3-2.2-4.5-3.1c2.8-1.9,5.9,0.7,9-0.2c-1.4-3.4-6.6-3-9.7-4.1c-1.1-1.6-3.3,0.1-4.4-1.4l0,0c1-0.2,2-0.5,3-0.7   c0.7,1.4,1.9,0.7,2.9,0.7c3.1,0,8,2.6,10.2-0.2c-3.8-2.1-8.5-2.2-12.6-3.6c0.1-0.5,0.1-0.7,0.1-0.9c4.4-0.4,8.8,0.2,16.7,2.2   c0.1-4.1-8.2-4.5-11.5-5.3c1.1-3.6,2.2-7,3.3-10.4c1.6,0,3.1,0,5,0c1.3,1.8,2.4,4.7,4.4,6c5.5,1.9,8.7,10.6,14.6,9.9   c0.4-1.6,0.5-3.5,1.3-5.2c0.9-1.9-0.7-3.7-0.1-5.5c1.2-0.3,2.2-0.2,3.2,0.7c-1,11.4,2.5,22,3.2,33.3c-7.5,5.7-16.9,0.9-24.8-1.6   c-4.8,1-1.1,7.2-7.5,9.9c-7.2,4.1-15.5,2.8-23.5,2.8C333,586.7,339.1,576.4,344.3,571.3z M353.3,565.8c-1.3,3.8,4.1,2.7,6.2,3.4   c0.4,0.1,1,0,1.1-0.9C358.6,566.5,356.3,565.4,353.3,565.8z" />
	<path fill="#EF8A6A" d="M385.7,244.5c2.4,4.8,9.1,6.8,11.8,12.1c3.3-1.3,6.1-3,9.6-3.5v0c-0.4,0.4-0.7,0.8-1.1,1.2   c0.5,0.2,1,0.4,1.8,0.6c-0.6,0.4-1,0.7-1.4,1c-1.1-1.8-11.1,6.3-12.8,7.8c0,0,0,0,0,0c-3,1.1-5.9,2.2-8.9,3.3   c-0.1,0.8,0.2,1.7-0.4,2.6c5.4-2,10.9-3.7,16.5-5.1c0.3,2.8-2.9,4.4-4.2,6.5c-4.5,1.2-9.4,0.7-14,0.1c-0.6-0.1-0.8,0.2-0.7,0.8   c3.9,1.3,7.9,1.1,11.9,1.1c-1.2,1.9-2.9,3.2-4.5,4.1c-0.5,1.7-0.8,3-1.2,4.3c-4.3-0.1-9.1,0-12.7-2.6c-0.5-2.6,0.7-5,0.6-7.7   c1.9-0.9,3.9,0.7,5-1.7c-1.1,0-2-0.1-2.9-0.1c0.2-3.7,15.1-8.2,15.1-11.4c-6,2.4-10.9,8-17.2,9.2c-3.2-3.1-6.7-6-9.5-9.5   C371.6,251.9,379.6,249.4,385.7,244.5z" />
	<path fill="#E1C7B6" d="M303.3,210.9c0-0.2,0-0.5,0-0.7c1.2-1,3.2-0.8,4.8-1.3c4.9,4.4,12,5.8,18.5,5.8c-0.7-2.6-1-5.2-1.3-8.2   c3.5,1.9,3.6,6.1,7.7,7.3c-0.1,0.4-0.3,0.8-0.4,1.3c0.8,0.8,1.7,1.6,2.5,2.4c-0.3,0-0.7,0-1.2,0c0.5,5.5,5.5,7.2,9.8,9.3   c7.7,4.1,14.4,11.5,23.2,13.5c5.4,0.4,10.2,2.4,15.3,3.5c-5.2,4.7-11.4,7.8-17.1,12C346.9,223.1,330.7,226.2,303.3,210.9z    M357.2,240.2c-0.2,0.2-0.3,0.4-0.5,0.5c0.7,0.6,1,1.8,2.8,1.3C358.6,241.3,357.9,240.7,357.2,240.2z" />
	<path fill="#EBDCB8" d="M344.3,571.3c-5.2,5.1-11.3,15.4,0.6,15.7c8,0,16.3,1.3,23.5-2.8c6.4-2.8,2.7-8.9,7.5-9.9   c6.9,2.1,13.9,5.7,21.2,3.6c-2.5,2.2-5.6,2.2-8.8,3.4c-5.6-2.5-11.3-0.8-13.4,5.7c-12.4,5.1-27.6,5.4-39.7-0.7   c0.4-3.2,0.7-6.4,1.1-9.2C338.7,574.2,340.9,572.1,344.3,571.3z" />
	<path fill="#804A3B" d="M375.8,267.2c6.2-1.2,11.2-6.8,17.2-9.2c0.1,3.1-15,7.8-15.1,11.4C377.2,268.7,376.5,267.9,375.8,267.2z" />
	<path fill="#5F5D4F" d="M359.4,559.9c-1.4-0.3-2.7-0.6-4.2-0.9c-0.5-1.4,0.3-2.4,1.2-3.4c0.1,0.8,0.2,1.9,0.3,2.6   c1.2,0.8,2.6-0.1,3.5,1C359.9,559.4,359.6,559.7,359.4,559.9z" />
	<path fill="#341916" d="M384.3,281.6c2.2-0.1,4.4-0.1,6.6,0.5C388.7,281.9,386.1,282.9,384.3,281.6z" />
	<path fill="#341916" d="M379.3,280.8c1.3,0,2.6-0.2,3.7,0.6c-1.8-0.4-3.6,1.7-5.1,0.1C378.3,281.3,378.8,281.1,379.3,280.8z" />
	<path fill="#774636" d="M377.9,269.4c0.9,0,1.8,0.1,2.9,0.1c-0.6,1.8-1.9,1.1-2.9,1.3C377.8,270.3,377.9,269.9,377.9,269.4z" />
	<path fill="#C8C0A2" d="M356.5,556.4c0-0.3-0.1-0.5-0.1-0.8c0.2-0.2,0.5-0.5,0.7-0.7c1.1,1.6,3.3-0.2,4.4,1.4   C359.8,556.3,358.2,556.4,356.5,556.4z" />
	<path fill="#9CA791" d="M359.4,559.9c0.2-0.2,0.5-0.5,0.7-0.7c1.2,0.1,2.5-0.1,3.6,0.7c-0.5,0.2-1,0.5-1.5,0.7   C361.3,560.4,360.3,560.1,359.4,559.9z" />
	<path fill="#C8C0A2" d="M360.1,554.2c-1,0.2-2,0.5-3,0.7C358,553.3,358.2,553.2,360.1,554.2z" />
	<path fill="#C8C0A2" d="M363,554.9c-1,0-2.2,0.7-2.9-0.7C361.2,554.2,362.2,554.1,363,554.9z" />
	<path fill="#341916" d="M383.5,282.8c-0.8,0.2-1.5,0.1-2.1-0.5C382.2,282.2,383,281.9,383.5,282.8z" />
	<path fill="#D5BF9F" d="M236.9,94.4c-0.2-0.1-0.3-0.3-0.6-0.5c2.1-2.9,4.4-5.7,4.9-9.7c-0.4-0.1-0.8-0.3-1.2-0.5   c-2.4-9.7-0.4-20.8,4.8-29.4c0.3,0.3,0.5,0.5,0.8,0.8c0,0.2,0,0.4,0.1,0.6c-3.1,9.4-3.4,20.1,0.6,29.2c-2.5,3.4-5.1,6.8-8.6,9.2   C237.2,94.2,237,94.3,236.9,94.4z" />
	<path fill="#16100D" d="M272.5,36.7c-0.4,0.3-0.9,0.7-1.7,1.3c1.1,0,1.8,0,3.3,0c-1.6,1.2-2,1.4-3.3,2.3   c-6.1,1.6-12.4,2.7-18.3-0.8c-0.1-0.2-0.2-0.3-0.3-0.5c-0.1,0.1-0.2,0.2-0.2,0.3c0.2,0.1,0.4,0.1,0.5,0.2c-0.4,0.5-0.9,1.1-1.3,1.6   c-0.3-1.3-0.2-2.6,0.6-3.8c4.6,3,9.3,4.9,14.5,2.4c-2.8-0.7-6.3,0.7-8.7-0.9l0.1,0.1c0.6,0,1.2-0.2,1.3-1c3.1,0.9,5.7,0.1,9.4-0.2   c-3.4-0.8-5.5-1.3-8.6-1.9c2-1.5,4.5,0.2,6.6-1.3c-0.5-0.3-0.7-0.5-1-0.7c-0.2,0-0.4-0.1-0.6-0.2c0.3-0.2,0.6-0.4,0.8-0.7   c2,0.1,3.8,1.1,5.8,0.2c0.1,0,0.3,0.3,0.4,0.5c-0.2,0.4-0.5,0.7-0.9,1.4c0.8,0,1.3,0,1.7,0C272.5,35.5,272.5,36.1,272.5,36.7z    M267.7,35.3c0.1,0.2,0.1,0.4,0.2,0.5c0.9,0.1,3.1,0.2,1.9-1.3C269.1,34.7,268.4,35,267.7,35.3z" />
	<path fill="#080706" d="M296.8,23.6c-1.1-1.3-2.5-1.6-4-0.8c-5-4-10-6.5-16-9.1c0-0.1-0.1-0.4-0.2-0.8c1.5-0.6,2.6,1.8,3.5-0.1l0,0   c3.1-0.6,6.4,4.1,8.7,0.8c0.5,0.2,0.9,0.5,1.4,0.7c-0.1,0.2-0.7,0-0.3,0.5c0.1-0.2,0.2-0.3,0.3-0.5c0.9,0.2,1.8,0.5,2.1,1.5   c-0.4,0.1-0.8,0.2-1.5,0.3c1.9,1.1,3.6,3.4,5.7,3.2l-0.1,0c-0.1,0.6,0.2,0.8,0.8,0.8c0,0,0-0.1,0-0.1c0.1,0.9,0.9,1.5,1.4,2.2   C298.1,22.8,297.5,23.2,296.8,23.6z" />
	<path fill="#C7B699" d="M255.4,22.9c0.1-2.4,2.9-3.8,4.2-5.7c0.3,0.2,0.5,0.5,0.8,0.7c-0.4,1.3-1.3,2,0.6,2.2c2.1,1,4.2,2,6.3,3   c0,0.2,0,0.5,0.1,0.7c-2.3-0.6-4.7-1.1-7-1.7c-0.7-0.9-1.8-0.5-3.3-1.3c2.4,3.4,6.2,2.8,9.6,4.4c0,0.2,0,0.3,0,0.5   C262.6,25.9,258.3,26.2,255.4,22.9z" />
	<path fill="#E7D5B6" d="M265.1,12.2c-0.6,0.3-1.3,0.6-1.9,0.9c-1.9-1.3-3.3-2.5-6-2c0.8,0.6,1.2,0.9,1.6,1.2l0,0.1   c0.3,0.2,0.7,0.4,1,0.6c0.2,0,0.3,0,0.4,0.2c0,0.4,0,0.9,0,1.3c-2.3,0.1-2.6-2.4-4.8-2.4c-0.1-0.5-0.2-0.9-0.2-1.2   c1.5-3.5,4.4-4.4,7.8-4.2c1,0.7,1.9,1.4,2.9,2.2c-0.3,0.3-0.6,0.5-0.8,0.8c-1.3-0.2-2.7-0.6-3.8,0.3c0.9,1.7,2.2,0.7,3.3,1   c0.2,0.3,0.5,0.5,0.7,0.8c0,0,0,0,0,0C265.2,11.8,265.1,12,265.1,12.2z" />
	<path fill="#4C4338" d="M265.2,15.3c0.3-0.3,0.6-0.6,0.9-0.9c3,2.4,6,3.5,9.8,3.1c1.2,1.4,3.3-0.3,4.3,1.4c0,0.2,0,0.3,0,0.5   c-1.4-0.1-3.3-1.5-4.3,0.1c-1.7-1-3.4-2.1-5.5-1c-0.1,1.8,2.4,0.9,3.5,1.3c0,0.1,0,0.2,0,0.3c-2.4,0.1-4.9,0.2-7.3,0.4   c0,0-0.1-0.2-0.1-0.2c0.6-0.4,1.2-0.7,2.1-1.2c-0.9-0.4-1.6-0.6-2.3-0.9c-0.4,0.5-0.7,0.8-0.9,1.2c-1.3-0.5-2.4-1.2-3.1-2.3   c0.1-0.6-0.2-1.4,0.7-1.7c-0.1,1.4,1.1,1.5,1.9,2.1c0.4-0.3,0.6-0.6,0.9-0.8C265.7,16,265.5,15.7,265.2,15.3z" />
	<path fill="#C9B295" d="M255.3,10.9c0.1,0.3,0.1,0.7,0.2,1.2c2.2,0,2.5,2.5,4.8,2.4c-4.2,1-5.6,5.1-8.3,8.3   C251.5,19.9,253.9,13.5,255.3,10.9z" />
	<path fill="#474239" d="M296.8,23.6c2.6-1.7,3.5-1.4,0.5-3.5c0,0,0,0.1,0,0.1c-0.3-0.3-0.5-0.5-0.8-0.8c0,0,0.1,0,0.1,0   c-0.3-1-1.1-1.5-2.1-1.6c-0.5-0.7-0.7-0.3-0.8,0.2c-0.5-0.2-0.9-0.4-1.4-0.6c0.3-0.3,0.5-0.5,0.8-0.8c0-0.2,0-0.5,0-0.7   c0.2,0,0.5,0,0.7,0c0.1,0.1,0.2,0.3,0.1,0.1c0.2,0.1,0,0-0.1-0.1c0.2-0.2,0.5-0.4,0.8-0.7c1.8,1.2,3.4,2.6,5.5,3.4   c0.5,1.1,1,2.1,1.5,3.1c-0.1,0.1-0.2,0.1-0.3,0.2c0.1,0.1,0.3,0.3,0.4,0.4l-0.1-0.1c0,0.7,0.1,1.3,1,1.2c-0.1-0.4-0.3-0.8-0.4-1.1   c1.6-0.3,2.5,1.3,2.1,2.7c-0.4-0.2-1-0.7-1.2-0.6c-1.6,0.8-2.8-1-4.5-0.6c-0.2,0.5-0.3,0.9-0.4,1.3C297.2,25,297,24.4,296.8,23.6z" />
	<path fill="#2D2821" d="M276.7,13c0.1,0.3,0.1,0.7,0.2,0.8c3.8,2,8,3.1,11.2,5.7c-1.7-0.2-3.4,0.4-4.9-0.8   c-4.1-2.6-9.4-3.1-13.7-5.5c0.6-0.2,1.3,0,1.6-0.8C272.8,13.4,274.7,13.5,276.7,13z" />
	<path fill="#CABB9D" d="M269.4,13.2c3.3,2,7.3,2.3,10.7,4.3c-0.2,0.2-0.4,0.4-0.6,0.7c-0.4-0.1-0.9-0.1-1.3-0.2   c-0.8-1-1.9-0.4-2.9-0.6c-3.6,0.7-6.3-1-9.1-3C266.9,12.9,268.1,12.9,269.4,13.2z" />
	<path fill="#96846E" d="M256,31c-0.4-0.5-0.9-1-1.3-1.6c2-0.5,3.6-1.8,5.6-2.1c2.1,1.5,4.5,0.3,7,0.1c0.3,0.2,0.6,0.4,0.9,0.6   c0,0.2-0.1,0.4-0.2,0.6c-2.7,0.3-6.2-0.5-8.6,0.5c2.9,0.4,5.9,0.2,8.8,0.5c0,0.3,0,0.6,0.1,0.9c-3.1,0.7-6.1,0.4-9.2,0.2   C257.9,29.6,257,30.5,256,31z" />
	<path fill="#2B241E" d="M260.4,17.9c-0.3-0.2-0.5-0.5-0.8-0.7c0.3-0.7,0.9-0.6,1.5-0.6c1.6,1.3,3.1,5.1,5.7,3.5   c0.1,0.3,0,0.5,0,0.8c1.4,0.8,2.8,1.5,4.3,2.2c0.6,1,1.6,0.5,2.4,0.5c1.6,1.3,0.8,0.7,2.4,0c0.6,0.5,1.1,1,1.7,1.4   c0.2,1.1-0.9,0.6-1.6,0.7c-1.1-0.9-1.1-0.8-2.2,0.1c-0.1,0-0.3,0-0.4,0c-0.2-0.1-0.3-0.3-0.3-0.6c-0.2-0.3-0.5-0.5-0.7-0.8   c-3.9-0.2-7.6-2.9-11.3-4.3C261.6,19.2,261.5,18.4,260.4,17.9z" />
	<path fill="#DFC8B7" d="M305.2,45.8c3.1,1.6,6-0.9,9.1,1c-0.4,1.2-0.9,2.3-1.4,3.7C309.6,47.2,304.1,50.8,305.2,45.8L305.2,45.8z" />
	<path fill="#C0AFA2" d="M305.1,47.8c0.2,0.9,1,0.8,1.6,0.9c-0.1,0.2-0.2,0.4-0.1,0.7c-0.4,0.1-0.7,0.1-1.1,0.2c0.5,0.3,1,0.5,1-0.2   c1.5,0.1,3.1-0.4,4.2,1.4c-2.2-0.1-4.2,0.3-6,1.8c0.7,0.3,1.2,0.5,1.9,0.9c-0.3,0.4-0.5,0.8-0.7,1.1c-0.3-0.2-0.6-0.5-0.9-0.7   c-0.2,0.4-0.4,0.9-0.7,1.3c-0.5-1.5-0.8-2.8-1.2-4.5C303.8,49.7,304.5,48.8,305.1,47.8z" />
	<path fill="#3C352C" d="M256,31c1-0.5,2-1.4,3.1-0.3c-2,1.3-0.6,2.4,0.7,3.8c1.7-0.2,4,0.6,5.5-0.7c0.3,0.2,0.5,0.3,1,0.7   c-2,1.5-4.6-0.2-6.6,1.3c-1.5-0.1-2.9-0.3-4.3-0.6l0,0c0-0.3,0.1-0.7,0.1-1c0.5-0.2,1-0.4,1.7-0.6c-0.7-0.7-1.3-1.2-2-1.8   C255.5,31.4,255.7,31.2,256,31z" />
	<path fill="#A09984" d="M293.8,15.9c-0.5,0-1,0-1.5,0l0.1,0.1c-1-2-3.6-1.5-4.9-3.5c4.2,0.4,10.4,1.9,12.5,6.1   c-2-0.8-3.6-2.1-5.5-3.4C294.3,15.5,294,15.7,293.8,15.9C293.8,15.9,293.8,15.9,293.8,15.9z" />
	<path fill="#C7B698" d="M259.6,27.4c-1.7,0.7-3.3,1.6-5,2.1c-0.6-0.6-0.9-1.4-1.3-2.2c0.2-0.9,0.4-1.9,0.7-2.8   C256,24.9,257.9,26.1,259.6,27.4z" />
	<path fill="#C2B79C" d="M276.7,13c-2,0.5-3.9,0.3-5.7-0.7c2.5-2,6.8-1.4,9.9-0.6c0,0.2,0,0.3,0,0.5c-0.2,0.2-0.5,0.5-0.7,0.7l0,0   c-0.7,0-1.4,0.1-2,0.1C277.6,12.4,277.2,12.4,276.7,13z" />
	<path fill="#352C25" d="M266,8.8c-1-0.7-1.9-1.4-2.9-2.2c0.4-0.4,0.9-0.7,1.7-1.4c0.7,0.1,2.1-0.7,3.3,0.6c-1.1,0-2.1,0.1-3.5,0.1   c1.4,1.5,3.4,1.8,4.1,3.5c-0.8,0.8-1.5,1.7-2.8,1.5c-0.2,0-0.5,0.4-0.7,0.6c-0.7-0.6-1-1.4-1.4-2.1c0.4,0,0.8,0.1,1.3,0.1   c0.6,0.7,1.3,0.8,2.2,0.2C266.9,9.4,266.4,9.1,266,8.8z" />
	<path fill="#37312A" d="M244.7,53.6c-1.4-1.4,0.8-2.9,1.3-4.3c1.4,0.8,2.5-1.5,3.7-2.1l0,0c-0.5,2-0.7,4.3-2,5.9   C246.5,51.2,245.7,52.2,244.7,53.6z" />
	<path fill="#C3AF92" d="M256,39.5c-1.4-0.7-2.8-1.5-4.2-2.2c0-0.9,0-1.8,0-2.8c1.1,0.6,1.9,1.1,2.8,1.6l0-0.1   c0.4,1,1.3,1.3,2.2,1.5c0.3,0.5,0.6,0.9,0.9,1.4l-0.1-0.1C257,39,256.5,39.2,256,39.5z" />
	<path fill="#BBAD95" d="M249.7,47.2c-1.2,0.6-2.3,2.9-3.7,2.1c1.1-2,2.1-4.1,3.3-6.4c0.4,0.6,0.7,1,1,1.4   C250.1,45.3,249.9,46.3,249.7,47.2z" />
	<path fill="#D0BFA3" d="M268.8,9.5c-0.7-1.7-2.7-2-4.1-3.5c1.3,0,2.4-0.1,3.5-0.1c0.9,1,1.8,2.1,2.7,3   C270.3,10.3,269.6,9.9,268.8,9.5z" />
	<path fill="#2A231E" d="M258.7,26.7c-1.6-0.8-3-2-4.8-2.2c0.5-0.5,1-1,1.5-1.5c2.3,2.5,4.5,2.7,7.7,3c-0.3,0.3-0.6,0.6-0.9,0.8   C261.1,26.7,259.9,26.7,258.7,26.7z" />
	<path fill="#988F78" d="M252.5,39.4c1.9,0.8,3.8,1.5,5.7,2.3c-2,1-4.2,0.4-6.4,0.6c-0.1-0.2-0.3-0.3-0.5-0.4c0-0.3-0.1-0.6-0.1-0.9   C251.6,40.5,252.1,39.9,252.5,39.4L252.5,39.4z" />
	<path fill="#CAB899" d="M255.2,31.7c0.6,0.6,1.3,1.2,2,1.8c-0.7,0.3-1.2,0.4-1.7,0.6c0,0.3-0.1,0.7-0.1,1c-0.2-0.2-0.4-0.2-0.6-0.2   c-0.7-0.7-1.5-1.3-2.2-2c0-1-0.5-2.2,0.7-3C253.9,30.5,254.4,31.4,255.2,31.7z" />
	<path fill="#A99F85" d="M266.7,20.1c-2.5,1.5-4-2.2-5.7-3.5c0,0,0,0,0,0c0.2-0.1,0.5-0.1,0.7-0.2c1.3,0.9,2.1,2.3,3.8,2.8   c0.3-0.3,0.5-0.7,0.9-1.2c0.7,0.3,1.4,0.5,2.3,0.9C268,19.4,267.4,19.8,266.7,20.1z" />
	<path fill="#737161" d="M280.9,12.2c0-0.2,0-0.3,0-0.5c2.6,0.4,4.9,1.6,7.2,2.8C286.1,15.7,282.8,13.4,280.9,12.2z" />
	<path fill="#624C41" d="M259,11c1.7,0.1,2.9,1.3,4.2,2.1c-0.8,0.4-1.5,0.8-2.3,1.3c0.1-0.6,0.2-1.1-0.6-1.2   c-0.1-0.1-0.2-0.2-0.4-0.2c-0.3-0.2-0.7-0.4-1-0.6C258.9,11.9,259,11.4,259,11z" />
	<path fill="#AAA28C" d="M304.4,25c0.3-1.2-0.1-2.2-1.3-2.7c-0.4-0.8-1.1-1.5-0.5-2.6c1.9,0.9,2.7,3,3.1,4.8   C305.3,24.7,304.8,24.9,304.4,25z" />
	<path fill="#40453F" d="M305.7,24.5c-0.1-0.5-0.2-1.1-0.4-1.6c0.4-0.2,0.8-0.3,1.5-0.6c0.4,0.7,0.8,1.4,1.3,2.1   C306.8,25.3,306.7,26.9,305.7,24.5z" />
	<path fill="#B8A78C" d="M265.2,15.3c0.2,0.4,0.4,0.8,0.7,1.2c-0.3,0.3-0.5,0.5-0.9,0.8c-0.8-0.5-1.9-0.7-1.9-2.1   c0.5-0.1,1-0.1,1.5-0.2C264.9,15.1,265,15.2,265.2,15.3z" />
	<path fill="#A59B84" d="M244.7,53.6c0.7-0.6,1.2-2.4,2.2-1.4c-0.2,0.9-0.7,1.7-0.9,2.6c-0.2,0.1-0.4,0.2-0.5,0.2   c-0.3-0.3-0.5-0.5-0.8-0.8C244.7,54.1,244.7,53.9,244.7,53.6z" />
	<path fill="#3C352C" d="M253.3,30c-1.2,0.8-0.7,2-0.7,3C251.3,31.9,251.7,28.3,253.3,30z" />
	<path fill="#010101" d="M314.5,59.9c-0.1,1-0.1,2.1-0.2,3.5C313.7,61.3,313.7,61.3,314.5,59.9L314.5,59.9z" />
	<path fill="#8D8471" d="M272,7.8c0.6,0.4,1.1,0.8,1.7,1.3C271.8,9.6,271.8,9.5,272,7.8z" />
	<path fill="#F6D9C7" d="M302.3,22.3c0.1,0.4,0.3,0.7,0.4,1.1c-0.9,0.1-1-0.6-1-1.2C301.9,22.2,302.1,22.2,302.3,22.3z" />
	<path fill="#3C352C" d="M253.3,27.2c0.2,0.5,0.5,1,0.7,1.5C253.2,28.5,253.1,27.9,253.3,27.2z" />
	<path fill="#4C4338" d="M264.7,15c-0.5,0.1-1,0.1-1.5,0.2C263.6,14.4,264.1,14.2,264.7,15z" />
	<path fill="#E0D2B3" d="M260.3,13.1c0.8,0.1,0.7,0.7,0.6,1.2c-0.1,0.1-0.4,0.1-0.6,0C260.3,14,260.3,13.6,260.3,13.1z" />
	<path fill="#352C25" d="M265.1,12.2c0-0.2,0-0.4,0.2-0.6c0.2,0.1,0.3,0.3,0.5,0.4C265.6,12.1,265.4,12.2,265.1,12.2z" />
	<path fill="#3C352C" d="M254.7,31.4c-0.2-0.2-0.4-0.4-0.6-0.6C254.3,31,254.5,31.2,254.7,31.4z" />
	<path fill="#F6D9C7" d="M301.7,22.3c-0.1-0.1-0.3-0.3-0.4-0.4c0.1-0.1,0.2-0.1,0.3-0.2C301.7,21.9,301.7,22.1,301.7,22.3z" />
	<path fill="#3C352C" d="M254,28.7c0.2,0.3,0.4,0.5,0.6,0.8C254.4,29.2,254.2,28.9,254,28.7z" />
	<path fill="#3C352C" d="M254.8,35c0.2,0,0.4,0,0.6,0.2l0,0c0.1,0.2,0.2,0.4,0.2,0.6c-0.3,0.1-0.6,0.1-0.9,0.2c0,0,0,0.1,0,0.1   C254.6,35.6,254.7,35.3,254.8,35z" />
	<path fill="#3C352C" d="M254,30.7c-0.2-0.2-0.4-0.4-0.6-0.6C253.6,30.3,253.8,30.5,254,30.7z" />
	<path fill="#2B241E" d="M261.8,16.4c-0.2,0.1-0.5,0.1-0.7,0.2C261.2,16,261.4,15.8,261.8,16.4z" />
	<path fill="#EF8A6A" d="M447.8,254.7c-10.4-10.1-12.9-19.1-9.3-33.4c0.7-0.6,1.4-1.2,2.1-1.8c3.9,4.7,8.6,11.5,14.9,12.2l0,0   c1.6,1.3,4.4,0.7,6.4,1.4c0,1,0.1,1.9,0.1,2.9C457.8,242.7,451.9,247.9,447.8,254.7z" />
	<path fill="#713F31" d="M462,236c0-1-0.1-1.9-0.1-2.9c0.7,0,1.3,0,2.1,0C463.8,234.6,463,235.3,462,236z" />
	<path fill="#3F352C" d="M455.5,231.7c-1,0-2.1,0.2-2.9-0.7C454.5,230.1,454.5,230.1,455.5,231.7z" />
	<path fill="#3F352C" d="M457,232.3c-0.6,0.1-1.2,0.1-1.5-0.6C456.1,231.6,456.6,231.7,457,232.3z" />
	<path fill="#D7C0A1" d="M253.9,78.5c-2.5,9.3-11.2,23.7-22.4,18.8c9.9-1.1,15-10.4,18.8-18.1c-0.1,1.1-0.2,2.2-0.3,3.4   C251.9,81.6,251.4,78.4,253.9,78.5z" />
	<path fill="#473A31" d="M246.7,85.6c-2.1,3.8-4.6,7.1-8.5,9.2c-0.3-0.2-0.5-0.5-0.8-0.7c3.5-2.4,6.2-5.7,8.6-9.2   C246.3,85.2,246.5,85.4,246.7,85.6z" />
	<path fill="#3F3A33" d="M253.9,89.9c0.2,0,0.4,0,0.7,0c-0.2,0.5-0.4,1.1-0.6,1.6C254,91,254,90.5,253.9,89.9z" />
	<path fill="#F0DABB" d="M253.9,78.5c-2.5-0.1-2,3.1-3.9,4c0.1-1.2,0.2-2.3,0.3-3.4c0,0,0,0,0,0c2.3-0.5,1.3-3.3,1.5-5   c1-2.4,0.8-5.1,0.7-7.7c-1.5-2.3-3.1-4.6-1.4-7.2c-0.1,0.6-0.1,1.2,0.6,1.5C255.5,66.4,258.1,72.2,253.9,78.5z" />
	<path fill="#C4B093" d="M254.7,76.5c0.4-0.7,0.9-1.5,1.3-2.2c-0.1,4.9-0.1,11.6-4.2,14.9c-0.2-0.2-0.5-0.5-0.7-0.7   C252.2,85.5,256.4,79.2,254.7,76.5z" />
	<path fill="#988778" d="M251,88.5c0.2,0.2,0.5,0.5,0.7,0.7c-0.5,1-1.2,1.7-2.2,2.1C249.1,90.1,250.6,89.4,251,88.5z" />
	<path fill="#E1C7B6" d="M517.4,162.5c-2.1,2.4-4.9,3.6-7.3,5.7c0-0.4,0-0.7,0.1-1.1c-2.3-0.8-4.6-1.1-7-0.9   c-3.1-8,11.4-13.2,16.5-7.2c-0.3,0.5-0.5,1-0.8,1.4c0-0.4-0.1-0.9-0.1-1.4c-2.1,1.5-2.1,1.5-2.8,3.6   C516.6,162.6,517,162.5,517.4,162.5z" />
	<path fill="#161311" d="M507.4,181.7c-1.1-0.9-0.5-2-0.4-3.1c0.6-2.6-0.2-5.8,1.3-8C511.8,172.6,509.5,178.9,507.4,181.7z" />
	<path fill="#41322E" d="M503.2,166.2c2.4-0.2,4.7,0,7,0.9c0,0.4,0,0.8-0.1,1.1c-2.2-0.3-4.3-0.5-6.7-0.8   C503.4,167,503.3,166.6,503.2,166.2z" />
	<path fill="#2C211E" d="M522.5,145.7c-2-0.4-2.8-1.5-3.5-2.8c0.4-0.3,0.8-0.6,1.2-0.9C521.8,142.6,522.7,143.5,522.5,145.7z" />
	<path fill="#362E2A" d="M517.4,162.5c-0.4,0-0.8,0.1-1.4,0.1c0.7-2,0.7-2,2.8-3.6c0,0.6,0.1,1,0.1,1.4   C518.4,161.1,517.9,161.8,517.4,162.5z" />
	<path fill="#120F0E" d="M371.1,219.4c-0.9,2.9-0.9,2.9-2.3,3.6C368,210.7,381.9,217.3,371.1,219.4z" />
	<path fill="#342926" d="M345.9,204.9c-3.6,1.4-8.1-6.2-10-9.1c0.6-0.6,1-0.2,1.2,0.2C339.4,199.6,343.2,201.8,345.9,204.9z" />
	<path fill="#362825" d="M343.6,226.8c-4.3-2.1-9.3-3.8-9.8-9.3c0.5,0,0.9,0,1.2,0l0,0c1.3,4.8,5.2,6.4,9.3,8.5   C344.1,226.3,343.9,226.5,343.6,226.8z" />
	<path fill="#473934" d="M354.4,211.7c2.6,2,5.5,3.6,8.3,6.4c-3.9-0.5-6.7-3.7-9.4-6.3C353.6,211.7,354,211.7,354.4,211.7z" />
	<path fill="#392C29" d="M379.7,187.8c1.5,1.4,4.5,2.1,5.2,3.9C381.6,191.3,380.8,190.8,379.7,187.8z" />
	<path fill="#65554F" d="M387.9,193.2c1.6,0.5,2.3,1.3,2.8,2.5C388.9,195.7,388.8,195.6,387.9,193.2z" />
	<path fill="#574944" d="M333,213.8c-0.4-0.2-0.8-0.4-1.2-0.7c0-0.7,0-1.3,0-1.9c0.4-0.1,0.5-0.1,0.6-0.1   C333,212.2,333,212.2,333,213.8z" />
	<path fill="#867B71" d="M343.6,226.8c0.2-0.3,0.5-0.5,0.7-0.8c1.1,0.3,1.5,0.9,1.3,2C344.7,228.1,344.1,227.6,343.6,226.8z" />
	<path fill="#91746B" d="M374.3,184.7c-0.9-0.3-1.5-0.9-2-2.1c1.2,0.2,2.2,0.4,2.8,1.3C374.8,184.2,374.6,184.4,374.3,184.7z" />
	<path fill="#4B3632" d="M374.3,184.7c0.3-0.3,0.5-0.5,0.8-0.8c0.7,0.5,1.5,1,1.3,2.3C375.5,185.6,374.9,185.1,374.3,184.7z" />
	<path fill="#5B4A44" d="M395,201.9c-0.5-0.4-0.9-0.7-1.4-1.1c1.3-1.1,1.4,0.2,1.9,0.6C395.4,201.5,395.2,201.7,395,201.9z" />
	<path fill="#6D514B" d="M365.7,178.9c0.5,0.4,0.9,0.8,1.7,1.3c-1.5,0.3-1.8-0.2-2.1-0.8C365.4,179.3,365.6,179.1,365.7,178.9z" />
	<path fill="#815E57" d="M354.4,211.7c-0.4,0-0.8,0-1.2,0.1c-0.3-0.3-0.6-0.6-1.1-1.2C353.5,210.2,354,210.9,354.4,211.7z" />
	<path fill="#E1C7B6" d="M335.8,218.9c-0.3-0.5-0.5-1-0.8-1.4C335.9,217.6,335.9,218.3,335.8,218.9z" />
	<path fill="#807369" d="M364.3,219.2c-0.2,0.3-0.3,0.3-0.5,0C363.9,219.2,364.1,219.2,364.3,219.2z" />
	<path fill="#F28D6C" d="M424.9,212.7c-1.8-7.5-1.8-15-0.5-22.4C425.6,196.6,424.5,205.5,424.9,212.7z" />
	<path fill="#693B2E" d="M400.6,264.4c-2.6,0.7-5.2,1.5-7.9,2.1c-0.3-0.4-0.7-0.8-0.9-0.9c0.6-0.7,1.1-1.3,1.6-1.9c0,0,0,0,0,0   c4.5,1.4,9.4-1.8,13.5-3.5c0.2,0.2,0.5,0.5,0.7,0.7C405.4,262,403,263.2,400.6,264.4z" />
	<path fill="#5D372B" d="M393.5,273.1c-4-0.1-8,0.2-11.9-1.1c-0.1-0.6,0.2-1,0.7-0.8c5.1,0.8,10.3,0.7,15.3-0.2   c-0.2,0.5-0.4,0.9-0.6,1.4C395.9,272.5,394.7,272.8,393.5,273.1z" />
	<path fill="#472D24" d="M421.5,178.3c1.8,5.6-1.5,11.8-0.9,17.7C418.4,190.3,420.9,184.1,421.5,178.3z" />
	<path fill="#4A2E24" d="M416.3,198.4c-1.2-4.8,0.2-9.4,1-14.1C418.5,188.9,416.4,193.6,416.3,198.4z" />
	<path fill="#5C392F" d="M412.7,237.4c-3.8-2.1-6.9-5-10.1-8.5c4.3,1.1,6.6,5.9,10.9,7.8C413.2,236.9,412.9,237.2,412.7,237.4z" />
	<path fill="#694032" d="M422.8,183.3c0.7-1.5,0.7-3.1,0.8-4.8c0.5-0.1,0.8-0.1,1.2-0.2c-0.8,3.3,0.5,7.5-1.9,10.2   C422.5,186.8,422.8,185,422.8,183.3z" />
	<path fill="#A1634D" d="M419.8,191.7c0.7,4.8,0.9,9.5,0.7,14.4c-0.1,0-0.2,0-0.4,0.1C420.3,201.4,418.2,196.2,419.8,191.7z" />
	<path fill="#4B2A20" d="M394.5,263.9c-0.3-0.1-0.7-0.1-1-0.2c2.1-2.4,5.3-3.7,7.9-5.7c0.2,0.2,0.5,0.5,0.7,0.7   C399.5,260.4,397,262.2,394.5,263.9z" />
	<path fill="#BD745D" d="M438.4,250.9c-2.2-0.4-4.1-1.5-6.1-2.5c2.4,0.2,4.8,0.4,6.9,1.7C439,250.3,438.7,250.6,438.4,250.9z" />
	<path fill="#8B5A49" d="M412.7,237.4c0.3-0.3,0.5-0.5,0.8-0.8c1.8,1,3.6,2.1,6,3.5C416.4,239.9,414.5,238.8,412.7,237.4z" />
	<path fill="#794A3C" d="M402.1,258.7c-0.2-0.2-0.5-0.5-0.7-0.7c1.4-0.5,3.8-3.9,5-2.1C404.9,256.8,403.5,257.8,402.1,258.7z" />
	<path fill="#885241" d="M407.8,260.8c-0.2-0.2-0.5-0.5-0.7-0.7c1.4-1.1,2.9-2,4.9-3C410.7,259,410.7,259,407.8,260.8z" />
	<path fill="#855544" d="M438.4,250.9c0.3-0.3,0.5-0.6,0.8-0.8c1.5,0.2,2.8,0.6,4.7,1.6C441.5,252.1,440,251.1,438.4,250.9z" />
	<path fill="#AA6A55" d="M423.6,243.9c-2-0.5-2.7-1.5-4-3C421.8,241.7,421.8,241.7,423.6,243.9z" />
	<path fill="#EF8A6A" d="M407.1,253c0.7-0.5,1.4-1,2.1-1.5C410.1,253.2,408,252.9,407.1,253L407.1,253z" />
	<path fill="#EF8A6A" d="M397.1,272.3c0.2-0.5,0.4-0.9,0.6-1.4c0.4,0,0.8,0.1,1.3,0.1C398.6,272.1,398,272.3,397.1,272.3z" />
	<path fill="#EBDA8F" d="M329.4,182.6c-2.6,1-7.3,1.1-10,0c0.2-0.3,0.5-0.7,0.9-1.3c-1.7-0.1-2.7-1.5-4.5-1.1   c0.3,0.7,0.5,1.2,0.7,1.6c-7.5-1.5-20.2-19.5-3.4-11.6c15.2,6.8,28,0.3,38.4-11.1c-3.8,14.8-15.2,19.2-28.4,22.6   C325.1,182.9,327.3,182.4,329.4,182.6z" />
	<path fill="#070604" d="M329.4,182.6c-2.1-0.2-4.3,0.2-6.2-0.9c17.6-3.7,29.9-13.3,29.9-32.8C358.5,163.1,344.3,181.4,329.4,182.6z   " />
	<path fill="#40422D" d="M316.6,181.8c-0.2-0.5-0.4-1-0.7-1.6c1.8-0.4,2.8,1,4.5,1.1c-0.4,0.6-0.7,1-0.9,1.3   C318.5,182.3,317.6,182.1,316.6,181.8z" />
	<path fill="#120B0A" d="M307.3,77.2c-0.1,0.6-0.1,1.3-0.2,2.2c-5.8-3.1-12.2,0.8-17.5-2.7c1-3.3,5.5,0.9,8-1.1   C300.8,74.5,304.2,76.3,307.3,77.2z" />
	<path fill="#1F1816" d="M282.4,42.3c5-2.9,13.4-1,17.5,2.3c-0.2,0.3-0.4,0.5-0.7,0.9c-5.3-0.4-10.9-4.5-16-1.8   C282.5,43.6,282.4,42.9,282.4,42.3z" />
	<path fill="#171413" d="M294.6,50.1c0,0.4,0.1,0.7,0.1,1.1c-0.3,0.3-0.6,0.7-0.9,1c-0.2,0-0.4,0-0.7-0.1c-0.1-0.2-0.3-0.5-0.4-0.7   c-0.1,0.1-0.2,0.2-0.2,0.2c0.2,0.2,0.4,0.3,0.6,0.5c0,0.4,0,0.7,0.1,1.2c-2.8,2.3-6.8,1.1-6.5-2.7c-0.9,0.1-1.6,0.1-2.5-0.3   c1.9-1.1,3.8-1.9,6-1.7c1.1,0.8,2.3,0.6,3.5,0.5C294,49.6,294.3,49.9,294.6,50.1z" />
	<path fill="#BFAC90" d="M268.2,45.8c0-0.3,0-0.7-0.1-1c-4.8,2.3-10.2,0.8-15.3,2.2c-1-1.1-1.2-2.4-1-3.9c5.5,1.7,11.4,1.2,16.9,0.4   C268.8,44.4,269.4,45.3,268.2,45.8z" />
	<path fill="#241F1B" d="M268.8,43.6c-5.6,0.8-11.5,1.3-16.9-0.4c0-0.3-0.1-0.6-0.1-0.9c5-0.2,9.8,1.6,14.7-0.3c0-0.1,0-0.2,0-0.4   c-0.4-0.1-0.8-0.2-1.2-0.3c1.3-0.8,2.8-0.6,4.2-0.7c0.2,0.2,0.2,0.4,0.3,0.6c0.2-0.2,0.3-0.3,0.5-0.5c0,0-0.1,0.1-0.1,0.1   c0.4,0,0.9-0.1,1.2-0.1C272.1,42.5,269.8,42.7,268.8,43.6z" />
	<path fill="#27211F" d="M303,68.6c1.2-0.8,2.3-1.5,3.6-2.4c-0.1-3.2-2.1-5.9-2.9-8.9c0.2-0.5,0.5-1,0.7-1.5   c1.3,4.5,5.4,8.9,2.5,13.5c-1.1,0.2-2.2,0.4-3.6,0.6C303.3,69.4,303.2,69,303,68.6C303.1,68.5,303,68.6,303,68.6z" />
	<path fill="#211C1A" d="M295.2,81.3c3.3-0.2,7.6-0.2,10.7,0.8C302.3,84.7,297.1,85.3,295.2,81.3z" />
	<path fill="#231B16" d="M258.2,31.5c0.3-0.3,0.6-0.6,0.9-0.8c4.1,1.2,9.4-1.4,12.8,0.2c-2.1,1.7-5.5,0.2-7.2,2.7   C262.5,32.9,260.4,32.2,258.2,31.5z" />
	<path fill="#2A231E" d="M267.3,27.4c-1.1,0.1-2.2-0.1-3.4-0.3c1.5-1,3.4-0.5,5-0.3c0.8,1.1,2.4,0.2,3.5,0.6l0,0   c0.7,1.3,2.8,0.1,2.8,2.1c-1.2,0-2.4-0.1-3.6-0.1c-0.7-0.9-1.3-0.9-2.1-0.1c-3,0.7-6.2-0.1-9.3,0c0-0.2,0-0.3,0-0.5   c2.7-0.2,5.6,0.2,8.3-0.3C268.3,28,267.8,27.7,267.3,27.4z" />
	<path fill="#362421" d="M294.6,50.1c-2.3-2.9-6-2.3-9.1-1.3c0.2,0.3,0.4,0.5,0.5,0.6c-0.6,0.3-1.1,0.6-1.9,1   c0.4,0.1,0.8,0.2,1.1,0.3c-0.5,0.3-1,0.5-1.7,0.8c-0.5-0.9-0.8-1.7-1.3-2.6c4.2-2.8,8.6-2.3,13.2-1.1   C295.2,48.8,294.9,49.4,294.6,50.1z" />
	<path fill="#2E2321" d="M286.6,92.9c0,0.3-0.1,0.7-0.1,1.1c-3.7,0.1-7.3-1.6-10.5-3.4c0.3-0.3,0.6-0.6,0.9-0.8   C280.1,90.8,283.4,91.8,286.6,92.9z" />
	<path fill="#2B2421" d="M303.1,68.5c-2.4,1-10,1.9-7.5-2.6c0.4,0.6,0.9,1.4,1.2,2c2.1-0.4,3.8-1.8,5.8-0.6   C302.8,67.7,302.9,68.2,303.1,68.5L303.1,68.5z" />
	<path fill="#352D29" d="M304.4,55.8c-0.2,0.5-0.5,1-0.7,1.5c-1.8-3.6-3.1-9.5,1.5-11.6c0,0.7-0.1,1.4-0.1,2c-0.6,1-1.3,1.9-1.9,2.8   C303.5,52.5,304.4,54,304.4,55.8z" />
	<path fill="#7A705E" d="M279.5,18.1c0.2-0.2,0.4-0.4,0.6-0.7c1,0.3,2.2,0.3,3,1.3c-1.1,0.7-0.4,1.4-0.1,2.5   c-0.5,0.2-0.9,0.3-1.3,0.4c-1.7-1.2-3.7-1.7-5.7-2.2c1.2-1.9,3.6,0.6,5.2-0.2c-0.2-0.5-0.6-0.4-1-0.4   C280.1,18.6,279.8,18.3,279.5,18.1z" />
	<path fill="#5B4D47" d="M276.9,89.8c-0.3,0.3-0.6,0.6-0.9,0.8c-2.8-0.9-4.7-3.6-6.5-5.7c0.5-0.8,1-0.5,1.4-0.5   C272.8,86.4,274.3,88.7,276.9,89.8z" />
	<path fill="#CBB6A6" d="M254,55.1c0.1,0.5,0.2,1,0.4,1.8c1.2-0.6,2.2-1.2,3.4-1.8c-0.4,1.9-1.5,2.9-1,4.9c-2.2-0.2-3.6-2.9-3.7-5   c0,0,0,0,0,0C253.4,55,253.7,55,254,55.1z" />
	<path fill="#AB957D" d="M265.5,32.9c1.2-1.5,3.8-0.9,5.5-1.4c0.8,0.8,1.5,1.5,2.3,2.3c-0.3,0.2-0.5,0.5-0.8,0.7   c-0.4-0.4-1-1-1.3-1.4C269.3,34,267.4,33,265.5,32.9z" />
	<path fill="#463B32" d="M279.5,20.3c0.8,0.4,1.5,0.9,2.3,1.3c-1.1,1.2-2.6,1.7-4.1,2.5c0,0.3-0.1,0.7-0.1,1c-0.6-0.5-1.1-1-1.7-1.4   c0.1-0.2,0.2-0.4,0.4-0.6c1.1-0.5,2.5-0.5,2.5-2C279,20.8,279.2,20.5,279.5,20.3z" />
	<path fill="#BAA990" d="M266.7,48.7c-2.4-0.1-4,0.2-6.6-0.3c3-0.9,4.8-0.7,7.4-1.8C267.2,47.3,267,48,266.7,48.7z" />
	<path fill="#807067" d="M254,49.4c-1.1,2.5-1.4,5.1-1.6,7.8c-1.2-2.4-1.3-6.7,1.5-8L254,49.4z" />
	<path fill="#B9B194" d="M271.7,29.3c1.2,0,2.4,0.1,3.6,0.1c-0.6,1.2-2.4,0.8-3.5,1.4c-0.9-1.3-2.3-0.5-3.6-0.4c0-0.3,0-0.6-0.1-0.9   C269.4,29.2,270.5,29.3,271.7,29.3z" />
	<path fill="#372D29" d="M272.5,34.5c0.8-0.6,1.8-1.8,2.9-1.5c0.6,1.5-2.2,2.3-2.8,3.7C272.6,36,272.3,35.2,272.5,34.5z" />
	<path fill="#565E50" d="M263.8,51.5c-0.9-0.1-2.1,0.4-2.8-1.1c1.8-0.5,3.4-0.3,5-0.3C265.3,50.5,264.5,51,263.8,51.5z" />
	<path fill="#403632" d="M282.4,42.3c0,0.7,0.1,1.3,0.8,1.5c-0.7,0.3-3.8,2.6-3,0.6c1-0.3,1.4-1.1,1.6-2   C282,42.3,282.2,42.3,282.4,42.3z" />
	<path fill="#211918" d="M302,74.3c-1.1-1-1.3-1.5-0.9-3C302.1,72.4,302.1,72.4,302,74.3z" />
	<path fill="#B9998C" d="M281.8,42.3c-0.2,0.9-0.6,1.7-1.6,2C280.3,43.3,280.6,42.4,281.8,42.3z" />
	<path fill="#362421" d="M293.8,52.2c0.3-0.3,0.6-0.7,0.9-1C296.1,52,294.2,53.9,293.8,52.2z" />
	<path fill="#302B25" d="M273.9,25.8c1-0.9,1-0.9,2.1-0.1C275.3,25.8,274.6,25.8,273.9,25.8z" />
	<path fill="#CBB6A6" d="M257.6,60.7c0.9,0.5,0.9,0.6-0.1,1.6C257.5,61.7,257.6,61.2,257.6,60.7z" />
	<path fill="#CBB6A6" d="M254.6,62.2c-0.2-0.5-0.5-1-0.7-1.4C254.7,61,254.7,61.6,254.6,62.2z" />
	<path fill="#302B25" d="M273.4,25.9c0.1,0,0.3,0,0.4,0c-0.2,0.2-0.4,0.5-0.7,0.7c-0.2,0-0.5,0-0.7,0   C272.8,26.4,273.1,26.1,273.4,25.9z" />
	<path fill="#CBB6A6" d="M253.9,60.7c-0.2-0.5-0.4-0.9-0.6-1.4C254,59.6,254,60.1,253.9,60.7z" />
	<path fill="#352720" d="M274.1,27.9c-0.7,0.1-1.3,0.2-1.6-0.6c0.3,0,0.5-0.1,0.8-0.1C273.5,27.4,273.8,27.7,274.1,27.9z" />
	<path fill="#CBB6A6" d="M253.1,58.8c-0.2-0.3-0.3-0.6-0.5-0.9C252.8,58.2,253,58.5,253.1,58.8z" />
	<path fill="#CBB6A6" d="M256.8,60c0.3,0.2,0.5,0.4,0.8,0.6C257.3,60.4,257.1,60.2,256.8,60z" />
	<path fill="#352720" d="M275.1,28.7c-0.2-0.2-0.4-0.4-0.5-0.5C274.8,28.3,274.9,28.5,275.1,28.7z" />
	<path fill="#BAA990" d="M266.8,49.4c0-0.2,0-0.5-0.1-0.7C267.4,48.8,267.4,49.1,266.8,49.4z" />
	<path fill="#241F1B" d="M271,40.1c0.3-0.2,0.6-0.4,0.9-0.6C271.7,39.7,271.3,39.9,271,40.1z" />
	<path fill="#241F1B" d="M269.5,40.7c0.3-0.2,0.7-0.3,1-0.5c0,0.2-0.1,0.4-0.3,0.6l0.1-0.1c-0.2,0-0.5,0-0.7,0   C269.6,40.8,269.5,40.7,269.5,40.7z" />
	<path fill="#A6967E" d="M273.2,27.2c-0.3,0-0.5,0.1-0.8,0.1c0,0,0,0,0,0c0-0.2,0-0.5,0-0.7c0,0,0,0,0,0c0.2,0,0.5,0,0.7,0   C273.2,26.8,273.2,27,273.2,27.2z" />
	<path fill="#AA9D90" d="M252.6,55.8c0-0.3,0-0.6,0-0.8c0.2,0,0.4,0,0.6,0c0,0.3,0,0.6,0.1,0.9C253,55.8,252.7,55.8,252.6,55.8z" />
	<path fill="#2E2623" d="M300.5,109.4c-2.1,3.8-7.4,3.6-8.1,8.2c-2.5,0.3-1.4-3.5,0.2-4.1C295.2,112.3,297.6,109.1,300.5,109.4z" />
	<path fill="#3B2D29" d="M288.1,120.7c-2.3-1.6-3.2-2.1-5.6-2.6C283.8,115.5,288.6,117.7,288.1,120.7z" />
	<path fill="#3F2F2C" d="M285.4,115.9c-3.1-1.5-3.4-1.8-3-3.8C283.9,112.8,284.8,113.8,285.4,115.9z" />
	<path fill="#362B28" d="M297.3,105.9c0.5-1.2,1-2.5,2.3-3.2C300.9,103.8,298.7,107.4,297.3,105.9z" />
	<path fill="#181312" d="M536,159.8c1.7-3.5,3.6-5.9,6.8-7.5C543.4,154.3,539,160,536,159.8z" />
	<path fill="#382A27" d="M465.9,219.9c1.8-2,4.2-2.4,6.3-3.2C470.9,219.3,469.1,220.3,465.9,219.9z" />
	<path fill="#52433D" d="M504.4,183.2c0.1,1.6-0.7,2-1.7,2.6C502.6,184.1,502.6,184.1,504.4,183.2z" />
	<path fill="#121917" d="M545.8,150.1c0.4-0.3,0.7-0.5,1.1-0.8c0.2,0.3,0.3,0.5,0.5,0.8c-0.4,0.2-0.9,0.3-1.3,0.5   C546,150.4,545.9,150.2,545.8,150.1z" />
	<path fill="#61443F" d="M500.4,187.8c-0.4,0.8-0.9,1.3-2.1,1C498.9,188,499.3,187.3,500.4,187.8z" />
	<path fill="#1F1312" d="M551.2,146.7c0.6-0.7,0.9-0.7,1.8-0.4C552.3,146.9,552.3,146.9,551.2,146.7z" />
	<path fill="#6B5C55" d="M557.3,144c-0.4,0.2-0.8,0.3-1.1,0.4C555.7,143.6,556.9,142.9,557.3,144z" />
	<path fill="#88766C" d="M497.4,189.9c-0.4,0.4-0.7,0.7-1,1.1C495.9,189.8,496.2,189.6,497.4,189.9z" />
	<path fill="#50322E" d="M476.9,212.5c1.2,0.1,1.2,0.5,0,0.5C476.9,212.9,476.9,212.7,476.9,212.5z" />
	<path fill="#291E1A" d="M605.6,62.3c-2.6-0.3-5.5,1.3-7.6-0.7c10.5-4.3,20.6-1.3,30.3,3.5c-0.2,1.3-0.2,1.6,0.1,2.9   c-3.1-1.7-6-2.9-9-3.8c0.3-0.4,0.7-0.8,1.2-1.4c-5.2-0.6-9.2-3.4-14.7-1.6c0.7,0.1,1.4,0.2,2.1,0.4   C607.3,62.5,606.3,61.9,605.6,62.3z" />
	<path fill="#362D27" d="M653.1,79.6c6-0.3,19.2,5.1,18.2,12.3c-6.4-3.3-12.1-8.3-18.2-11.5C653.1,80.1,653.1,79.8,653.1,79.6z    M665.5,86.5c1,0.7,1.8,1.7,3.9,1.8c-4.1-3.7-6.8-6.1-12.9-6.8C659.8,83.8,662.7,85,665.5,86.5z" />
	<path fill="#281D18" d="M624.8,84.4c0.2,0.3,0.3,0.6,0.5,0.9c-9.7,1.7-21-2.1-29.5-6.7c0.2-0.7,0.9-0.6,1.4-0.7   C605.9,82.3,615.2,84,624.8,84.4z" />
	<path fill="#291F1B" d="M600.4,68.2c8.1,2.8,17-1.4,23.4,5.3c-7-1.3-13.9-2.3-21-2.9C601.6,70.5,601.6,70.5,600.4,68.2z" />
	<path fill="#1F1512" d="M649.8,92.3c0,0.2,0,0.5-0.1,1c-4.2-1.8-7.4-5-10.9-7.3c-3.2-0.6-8.2,1.3-10.3-0.9c3.5-1,6.6-0.9,10.4-1.1   C642.4,86.6,646.4,89.2,649.8,92.3C649.8,92.2,649.8,92.3,649.8,92.3z" />
	<path fill="#231D19" d="M665.6,101.4c-3.8-1.7-8-2.7-11.4-5.1c0.3-0.3,0.6-0.5,0.9-0.8c4,1.5,8,3,11.9,4.5   C667.1,101.3,666.2,101.2,665.6,101.4z" />
	<path fill="#4C4037" d="M597.3,77.8c-0.5,0.1-1.2-0.1-1.4,0.7c-4.1-3.3-9.3-6.5-11.4-11.3C588.9,70.5,592.3,75.1,597.3,77.8z" />
	<path fill="#4B362F" d="M618.5,62.9c0.6,0,1.2,0,2,0c-0.5,0.6-0.8,1-1.2,1.4c-1.2-0.2-2.4-0.4-3.6-0.7c0-0.2,0-0.5-0.1-0.7   C616.7,62.8,617.6,62.9,618.5,62.9z" />
	<path fill="#3D342D" d="M655.1,95.5c-0.3,0.3-0.6,0.5-0.9,0.8c-1.4-0.5-2.6-1.3-3.9-2.7c0.8-0.1,1.3-0.1,1.7-0.1   C653.1,94.2,654.1,94.9,655.1,95.5z" />
	<path fill="#41443B" d="M605.6,62.3c0.7-0.3,1.7,0.2,2.3-0.7c0.7,0.1,1.5,0.3,2.2,0.4c0,0.3,0,0.6,0,0.8   C608.6,62.9,607,63,605.6,62.3z" />
	<path fill="#4B362F" d="M610.1,62.8c0-0.3,0-0.6,0-0.8c1.7,0.4,3.5-0.3,5.1,0.8C613.5,63,611.8,63,610.1,62.8z" />
	<path fill="#41443B" d="M612.6,63c1,0,2.1-0.2,3.1-0.1c0,0.2,0,0.5,0.1,0.7C614.7,63.4,613.7,63.2,612.6,63z" />
	<path fill="#EBDDB8" d="M649.8,92.2c-0.3-0.3-0.5-0.5-0.8-0.8C649.6,91.5,649.8,91.7,649.8,92.2z" />
	<path fill="#DABFAF" d="M411.4,151.9c-0.9-1-1.8-2-2.8-3.3c3.2-0.1,8.7,1.4,9.8,4.2c-1.1-0.3-3-1.9-3.4-0.1   C413.8,152.5,411.9,153.3,411.4,151.9c0.5-0.1,1.2,0.7,1.7-0.4c-0.5-0.2-0.9-0.4-1.5-0.7C411.5,151.2,411.4,151.6,411.4,151.9z" />
	<path fill="#302E2A" d="M365.7,145.5c-2.1,1.5-4.3-1.7-5-3.6c1.6-0.7,2,1,3,1.3C364.4,144,365,144.7,365.7,145.5z" />
	<path fill="#2B211F" d="M332.3,122.7c-2.1-0.6-2.2-0.9-2.1-3.5c0.4,0,0.7,0,1.1,0C332.3,120.2,332.6,121.4,332.3,122.7z" />
	<path fill="#453A36" d="M414.9,152.6c0.5-1.8,2.4-0.2,3.4,0.1l0,0c0.6,0.3,1.1,0.7,1.4,1.4C418.5,155.8,416.4,153.1,414.9,152.6z" />
	<path fill="#695952" d="M370.2,147.6c-1.1,1.9-2.6-1.4-3.6-2.1C368.2,144.9,369.1,146.7,370.2,147.6z" />
	<path fill="#312623" d="M339.2,121.3c-1.7,0-3-0.5-3.9-2.1C337.4,118.6,338.2,120.2,339.2,121.3z" />
	<path fill="#0E0706" d="M329.4,116.3c-1.6,0.1-1.3-1.8-1.5-2.9c0.1-0.2,0.2-0.4,0.1-0.6c0.2-0.3,0.5-0.5,0.7-0.8   C330.2,113,329.3,114.8,329.4,116.3z" />
	<path fill="#493C38" d="M374.5,151c-0.5-0.5-1.1-1.1-1.8-1.9c0.8-0.1,1.2-0.2,1.6-0.2c0.5,0.5,1.1,1.1,1.9,1.9   C375.3,151,374.9,151,374.5,151z" />
	<path fill="#211716" d="M338.5,125.7c0.5,0.3,1.1,0.5,1.8,0.9c-1.2,0.9-1.6,0.2-2.1-0.2C338.3,126.2,338.4,125.9,338.5,125.7z" />
	<path fill="#4D443F" d="M334.4,129.8c-1.6,0.4-1.6-1.9,0-1.5C334.4,128.8,334.4,129.3,334.4,129.8z" />
	<path fill="#462B28" d="M341.3,121.7c0.3,0.2,0.6,0.4,1,0.7C341.5,123.1,341.4,122.3,341.3,121.7z" />
	<path fill="#6B5A53" d="M379.6,152c0.4,0.3,0.7,0.6,1.1,1C379.3,153.3,379.3,153.3,379.6,152z" />
	<path fill="#DABFAF" d="M419.2,153.2c-0.3-0.2-0.5-0.4-0.8-0.5C418.7,152.9,418.9,153.1,419.2,153.2z" />
	<path fill="#DFC6B5" d="M328.7,112c-0.2,0.3-0.5,0.5-0.7,0.8C328.3,112.6,328.5,112.3,328.7,112z" />
	<path fill="#201917" d="M349.3,91.5c-2.3-0.6-3.5-2.1-4.8-3.4C346.6,84,349.8,88.9,349.3,91.5z" />
	<path fill="#230B0B" d="M351.9,95.6c-0.4,1-1.5,0-0.7-0.6C351.4,95.2,351.7,95.4,351.9,95.6z" />
	<path fill="#232321" d="M331.7,102.7c0-0.5,0-0.9,0-1.4c0.1,0,0.3,0,0.4,0c0,0.5,0,0.9,0,1.4C332,102.7,331.9,102.7,331.7,102.7z" />
	<path fill="#3E3D39" d="M353.9,99.7c0.5,0.2,0.4,0.4,0.1,0.8C353.6,100.4,353.8,100.1,353.9,99.7z" />
	<path fill="#040303" d="M265.7,156.8c-0.2-1.5-1.1-6.4,1.6-5.5C268.1,152.9,268.1,157.3,265.7,156.8z" />
	<path fill="#5B514B" d="M264.6,163c-0.1,1.6-0.1,2.6-0.2,3.7C262.8,166.1,262.7,165.2,264.6,163z" />
	<path fill="#1F1B19" d="M265.9,158.9c-0.3,0.5-0.6,1.1-1,1.7C264.4,159.5,264.4,158.8,265.9,158.9z" />
	<path fill="#1F1917" d="M236.8,132.4c2.7-1.5,3.8,3,2.1,4.7C237.1,135.8,236.9,134.2,236.8,132.4z" />
	<path fill="#2F2825" d="M239.7,140.1c-0.1,0.9-0.1,1.9-0.2,3.1C238.1,141.7,238.1,141.7,239.7,140.1z" />
	<path fill="#201B19" d="M243.1,218c-0.6,0.1-1.1,0.1-1.7,0.2c-0.2-2.6-0.1-2.8,1.6-3.6C243.9,215.7,243.3,216.8,243.1,218l0.2,0.2   L243.1,218z" />
	<path fill="#F6D9C7" d="M242.5,208.9c0.1,1.2-0.3,2.2-1,3.2C241.1,210.2,241.1,210.2,242.5,208.9L242.5,208.9z" />
	<path fill="#282321" d="M262.8,124c1.5,0.8,1.5,1.4-0.1,2.9C262.1,125.9,262.3,125,262.8,124z" />
	<path fill="#70625A" d="M260.8,134.9c-0.8-1.2-0.5-1.8,0.6-2.1C262,133.6,261.9,134.2,260.8,134.9z" />
	<path fill="#292522" d="M259.7,118.9c1.1,1.8,1.1,1.8,0,3.1C259.7,121.1,259.7,120.4,259.7,118.9z" />
	<path fill="#2D1F1C" d="M262.6,131c-1.4-1.4-1.4-1.4-0.3-2.6C262.4,129.2,262.5,129.7,262.6,131z" />
	<path fill="#3F1A19" d="M245.2,211.3c-0.1,0.1-0.2,0.3-0.2,0.4c-0.3-0.2-0.1-0.4,0-0.6C245.1,211.2,245.2,211.2,245.2,211.3z" />
	<path fill="#292320" d="M266.7,86.2c2.6,2.3,3.9,6,4.3,9.6c-3.1-1.5-3.6-6.1-4.9-9.1C266.3,86.6,266.5,86.4,266.7,86.2z" />
	<path fill="#302A27" d="M278.8,108.7c-1.9-0.5-2.2-1.5-2.5-2.8C277.7,106.8,277.7,106.8,278.8,108.7z" />
	<path fill="#76665E" d="M274.8,103.2c-0.9-1.1-1.3-1.5-1.7-1.9C274.6,100.1,274.5,101.5,274.8,103.2z" />
	<path fill="#4B4540" d="M293.1,95c0,0.2,0,0.4,0,0.6c-0.9-0.1-2,0.4-2.6-0.4C291.3,94.4,292.2,94.9,293.1,95z" />
	<path fill="#291F1D" d="M332.9,143.9c-1.1,0.2-1.4-0.8-2-1.3c1.6-1.7,3.5-1.6,5.9-2.3c0.1,0.2,0.3,0.5,0.5,0.9   C336,142.4,334.6,143.4,332.9,143.9z" />
	<path fill="#010000" d="M235.4,174c0-1.2,0.2-2.3,1.6-2.9c0.9,1.3,0.3,2.3-0.4,3.4C236.1,174.3,235.7,174.1,235.4,174L235.4,174z" />
	<path fill="#6A564F" d="M240.3,167.6c-0.4,1-0.8,1.4-1.9,1.1C238.7,167.2,239.6,167.5,240.3,167.6L240.3,167.6z" />
	<path fill="#D7C0A1" d="M251.1,59.3c-1.7,2.7-0.1,5,1.4,7.2c-0.2,2.3,0.6,4.9-0.6,7.1c-0.1-1.3-0.1-2.6-0.2-4.1   c-1.7,3.9-1.5,9.2-4.7,12.4c-2.3-6.7-2.1-13.9-1-20.8c-0.1,3.1,1.1,6,0.9,9.1c0.1,0.9-0.6,2,0.4,2.8c1.7-1.6,0.6-3.6,0.3-5.6   c-0.6-2.3,0-5.5-1.4-7.4c0.2-2.6,0.8-5.6,2.2-7.8C249.4,54.5,250.3,56.9,251.1,59.3z" />
	<path fill="#B7A68B" d="M249.6,55.1c-0.5-0.9-0.9-1.9-1.3-2.8c0.5-1.7,1.1-3.3,1.3-5.1c0.4-0.2,0.8-0.4,1.3-0.6   c0.3,0.4,0.6,0.7,1,1.3C250.5,50,249.2,52.3,249.6,55.1z" />
	<path fill="#AA9D90" d="M254,55.1c-0.3,0-0.6-0.1-0.8-0.1c0.6-1,1.2-1.9,1.8-3c0.4,0.3,0.8,0.6,1.1,0.8   C255.7,54.1,254.8,54.5,254,55.1z" />
	<path fill="#8E8671" d="M253.9,49.3c1.6-1.2,1.9-1.2,3.1,0.6c-0.1,0.3-0.1,0.5-0.2,0.8c-1-0.3-1.5-1.7-2.8-1.3L253.9,49.3z" />
	<path fill="#5B4D43" d="M256.8,50.7c0.1-0.3,0.1-0.5,0.2-0.8c0.3,0.4,0.7,0.8,1,1.2c-0.1,0.1-0.2,0.2-0.4,0.3   C257.3,51.2,257,51,256.8,50.7z" />
	<path fill="#D7C0A1" d="M251.7,60.8c-0.7-0.3-0.7-0.8-0.6-1.4C251.3,59.8,251.5,60.3,251.7,60.8z" />
	<polygon fill="#565E50" points="260,50.3 260.1,50.5 259.9,50.5  " />
	<path fill="#E0C6B5" d="M387.1,392.6c2.8,3.5,3.3,4.7,3.2,6.9c-0.9,0-1.8,0-2.7,0c-0.8-0.6-1.8-1.3-2.7-2c-0.8-0.6-0.1-2-1.4-2.6   c0,2.7,0,5.1,0,7.5c-1.3-4.5-0.5-9.4-3.2-13.7c-1.1-2.8-2-6.8-0.3-9.6C384.2,381.9,385.7,388.2,387.1,392.6   c-0.4-0.2-0.9-0.5-1.5-0.8c-0.1,1.4,0.2,2.3,1.5,2.9C387.1,393.9,387.1,393.3,387.1,392.6z M382.1,385.2c0.8,2,0.8,4.2,2.6,5.8   C385.5,389.7,384,383.7,382.1,385.2z" />
	<path fill="#201B19" d="M391.5,453.2c-1.8-4.1,0.4-7.3,3.1-10C395.2,446.5,392.5,449.3,391.5,453.2z" />
	<path fill="#231D1A" d="M372.9,431.1c-0.4-1.1-0.8-2.2-1.2-3.3c2.8-0.8,4,5.1,4.7,7.4c-0.6,0-0.9,0-1.2-0.1   C374.4,433.8,373.6,432.4,372.9,431.1z" />
	<path fill="#352D2A" d="M384.7,405.6c0.5,3-0.2,4.8-2.2,6C381.3,410.3,383.4,406.6,384.7,405.6z" />
	<path fill="#15100F" d="M383.5,402.6c0-2.4,0-4.9,0-7.5c1.3,0.6,0.6,2,1.4,2.6C384.5,398.9,385.7,403.4,383.5,402.6z" />
	<path fill="#040403" d="M388.4,541.7c-0.8-2.1-0.7-4.5-0.2-6.9C390.2,536.3,389.6,539.2,388.4,541.7z" />
	<path fill="#453935" d="M391.3,457.3c0.3,2.1-0.5,3.4-0.6,5.4C389.5,460,389.5,459.8,391.3,457.3z" />
	<path fill="#0A0B0A" d="M387.5,521c-0.6-1.6-0.7-2.8-0.2-4C388.9,517.6,388.9,518.2,387.5,521z" />
	<path fill="#534A44" d="M380.7,444.6c0.4,0.6,0.9,1.1,1.3,1.7c0,0.4,0,0.9,0.1,1.5C380.3,448.1,379,445.3,380.7,444.6z" />
	<path fill="#36312D" d="M387.2,526.7c0.3-0.1,0.7-0.2,1.2-0.3c0.1,1.1,0.1,2.1,0.2,3.7C387.5,528.9,387.1,527.9,387.2,526.7z" />
	<path fill="#574843" d="M377.9,440.3c0-0.6,0-1.1,0-1.7c1.7-0.4,2.1,2.1,0.7,2.5C378.3,440.8,378.1,440.6,377.9,440.3z" />
	<path fill="#5B4C47" d="M389.6,468.7c-0.7-1.1-0.6-1.9,0.5-2.7C390.1,467.3,390.1,467.3,389.6,468.7z" />
	<path fill="#5D4943" d="M388.1,474.5c-0.6-1.1,0-1.5,0.9-2C389.4,473.6,388.9,474.1,388.1,474.5z" />
	<path fill="#0D0A09" d="M363.7,559.9c-1.1-0.9-2.4-0.6-3.6-0.7c-0.9-1-2.2-0.2-3.5-1c0-0.5-0.1-1.1-0.2-1.8c4.7,0.1,12-0.2,14.7,4   C368.7,561.1,366.2,559.7,363.7,559.9z" />
	<path fill="#1F1A17" d="M353.3,565.8c3-0.3,5.3,0.7,7.3,2.5c-0.9,2.1-4.4,0-6.3,0C353.3,568.1,352.6,567.3,353.3,565.8z" />
	<path fill="#4B2A20" d="M393.5,263.7c-0.5,0.6-1,1.2-1.6,1.9c0.2,0.2,0.5,0.6,0.9,0.9c-2.9,1-5.7,2-8.6,3c0.6-0.9,0.3-1.8,0.4-2.6   C387.6,265.8,390.5,264.7,393.5,263.7z" />
	<path fill="#958378" d="M357.2,240.2c0.7,0.5,1.3,1.1,2.3,1.9c-1.8,0.4-2.1-0.7-2.8-1.3C356.9,240.5,357.1,240.3,357.2,240.2z" />
	<path fill="#14120F" d="M246.2,58.2c-1.4,9-1.6,18,1.3,26.9c-0.3,0.2-0.6,0.4-0.9,0.6c-5.7-9.9-4-23.1,0.2-33.4   c0.3,0.3,0.5,0.6,0.8,0.9c-0.1,0.4-0.2,0.8-0.3,1.2c-1,0.5-0.3,1.4-0.6,2.1C246,56.9,246.1,57.5,246.2,58.2z" />
	<path fill="#37312A" d="M246,54.9c-0.2,0.3-0.3,0.6-0.5,0.9c-0.1-0.2-0.1-0.4-0.1-0.6C245.6,55.1,245.8,55,246,54.9z" />
	<path fill="#8B816B" d="M256,39.5c0.5-0.2,1-0.5,1.5-0.7c2.4,1.6,5.9,0.2,8.7,0.9C262.8,40.6,259.4,42,256,39.5z" />
	<path fill="#B5AD90" d="M255.5,35.7c0-0.2,0-0.4-0.2-0.6c2.8,0.5,5.7,0.8,8.5,1.5c-1.2,1.6-3.1,2.2-4.9,1.2   c-0.4-0.9-1.2-1.3-2.1-1.3C256.4,36.2,255.9,36,255.5,35.7z" />
	<path fill="#B5AD90" d="M258.2,31.5c2.3,0.7,4.7,1.6,7,2.2c-1.4,1.3-3.7,0.5-5.5,0.7C259.1,33.4,257.4,32.7,258.2,31.5z" />
	<path fill="#8D6251" d="M264.7,42.3c-2.7,0.9-5.4,1-8.1,0c2.1-1.5,4.4,0.3,6.6-0.6C263.8,42,264.3,42.2,264.7,42.3z" />
	<path fill="#746A58" d="M262.5,37.9c0.4-0.4,0.9-0.9,1.3-1.3c1.3,0.3,2.6,0.6,4.5,1C266,38.2,264.2,38,262.5,37.9z" />
	<path fill="#6A5749" d="M256.8,36.5c1,0,1.7,0.4,2.1,1.3c-0.1,0.7-0.7,0.9-1.3,1c-0.3-0.5-0.6-0.9-0.9-1.4   C256.8,37.1,256.8,36.8,256.8,36.5z" />
	<path fill="#736958" d="M267.7,35.3c0.7-0.3,1.4-0.5,2.1-0.8c1.2,1.5-1,1.4-1.9,1.3C267.8,35.6,267.8,35.4,267.7,35.3z" />
	<path fill="#909C82" d="M264.7,42.3c-0.5-0.2-1-0.4-1.5-0.6c1.1-0.2,2.1-0.5,3.2-0.1c0,0.1,0,0.2,0,0.4   C265.9,42.1,265.3,42.2,264.7,42.3z" />
	<path fill="#736958" d="M272.5,34.5c-0.1,0.2-0.1,0.3-0.1,0.5c-0.4,0-0.9,0-1.7,0c0.4-0.7,0.7-1,0.9-1.4   C271.9,33.9,272.2,34.2,272.5,34.5z" />
	<path fill="#988F78" d="M252.5,39.4c-0.2-0.1-0.4-0.1-0.5-0.2c0.1-0.1,0.2-0.2,0.2-0.3C252.3,39.1,252.4,39.3,252.5,39.4   L252.5,39.4z" />
	<path fill="#ACA38B" d="M294.6,17.9c1,0.1,1.8,0.6,2.1,1.6c-0.9,0.2-1.7,0.1-2.1-0.8C294.5,18.4,294.6,18.2,294.6,17.9z" />
	<path fill="#A09983" d="M293.1,16.6c-0.3,0.3-0.5,0.5-0.8,0.8c-0.4-0.3-0.8-0.7-1.4-1.2c0.7-0.2,1.1-0.3,1.5-0.3   c0,0-0.1-0.1-0.1-0.1C292.6,16.1,292.9,16.4,293.1,16.6z" />
	<path fill="#B29E87" d="M298.1,20.9c0.7,0.2,2,1.2,0.7,1.5c-0.4-0.5-0.8-1-1.3-1.5C297.6,20.8,297.9,20.9,298.1,20.9z" />
	<path fill="#2D2821" d="M278.2,13c0.7,0,1.3-0.1,2-0.1C279.6,14,279.1,14,278.2,13z" />
	<path fill="#A09984" d="M294.6,17.9c0,0.3,0,0.6,0,0.8c-0.3-0.2-0.5-0.4-0.8-0.6C293.9,17.5,294.1,17.1,294.6,17.9z" />
	<path fill="#2D2821" d="M280.9,12.2c0.3,0.3,0.6,0.5,0.9,0.8c-0.5,0-1.1,0-1.6-0.1C280.4,12.7,280.7,12.4,280.9,12.2z" />
	<path fill="#2D2821" d="M276.7,13c0.5-0.7,0.9-0.6,1.4,0C277.7,13,277.2,13,276.7,13z" />
	<path fill="#B9B399" d="M298.1,20.9c-0.1,0-0.4,0-0.6,0c-0.1-0.2-0.1-0.5-0.2-0.7C297.6,20.4,297.8,20.6,298.1,20.9z" />
	<path fill="#A8A58D" d="M296.6,19.5c0.3,0.3,0.5,0.5,0.8,0.8C296.8,20.3,296.5,20,296.6,19.5z" />
	<path fill="#030202" d="M290.3,14.4c-0.1,0.2-0.2,0.3-0.3,0.5C289.5,14.5,290.2,14.6,290.3,14.4C290.3,14.4,290.3,14.4,290.3,14.4z   " />
	<path fill="#382922" d="M260.4,22.1c2.3,0.6,4.7,1.1,7,1.7c0.7,0.9,1.9,0.5,2.8,0.6c0.2,0.4,0.4,0.8,0.6,1.3   c-3.6-0.1-7.6-1.4-11.3-2.7C259.9,22.7,260.2,22.4,260.4,22.1z" />
	<path fill="#A6967E" d="M269.6,25.7c1,0.1,1.9-0.3,2.9-0.7c0.2,0.1,0.4,0.2,0.6,0.3c0,0.2,0.1,0.4,0.3,0.6c-0.3,0.2-0.6,0.5-1,0.7   c0,0,0,0,0,0c-0.3,0.2-0.6,0.5-0.8,0.7c-1.7-0.1-3.6-0.4-4.9-1.4c0-0.2,0-0.3,0-0.5C267.7,25.2,268.7,25.4,269.6,25.7z" />
	<path fill="#352720" d="M266.7,25.8c0.3,0.2,0.6,0.5,0.9,0.7c-1.2,0.3-2.6-0.4-3.7,0.6c-0.6-0.1-1.1-0.2-1.7-0.3   c0.3-0.3,0.6-0.6,0.9-0.8C264.4,25.9,265.5,25.8,266.7,25.8z" />
	<path fill="#826A58" d="M260.4,22.1c-0.3,0.3-0.5,0.6-0.8,0.8c-0.9-0.2-1.6-0.6-2.5-2.1C258.6,21.6,259.7,21.2,260.4,22.1z" />
	<path fill="#988E79" d="M260.4,17.9c1.1,0.5,1.1,1.3,0.6,2.2C259.1,19.9,260,19.2,260.4,17.9z" />
	<path fill="#8B8670" d="M269.6,24.4c-0.9,0-2.4,0.1-2.2-1.3c0.7,0.2,1.4,0.4,2.1,0.7C269.6,24,269.7,24.2,269.6,24.4z" />
	<path fill="#414138" d="M263.9,9.5c0.2,0.5,0.5,0.9,0.7,1.4c-1.1-0.3-2.4,0.7-3.3-1C262.1,9.5,262.9,9.1,263.9,9.5z" />
	<path fill="#BDB399" d="M266,8.8c0.4,0.3,0.9,0.6,1.4,0.9c-1,0.6-1.7,0.5-2.2-0.2C265.4,9.4,265.7,9.1,266,8.8z" />
	<path fill="#C9B295" d="M259,11c0,0.4-0.1,0.9-0.1,1.3c-0.4-0.3-0.8-0.6-1.6-1.2C258.2,11,258.6,11,259,11z" />
	<path fill="#E0D2B3" d="M258.9,12.4c0.3,0.2,0.7,0.4,1,0.6C259.6,12.7,259.2,12.6,258.9,12.4z" />
	<path fill="#1D1310" d="M279.5,20.3c-0.2,0.2-0.5,0.5-0.7,0.7c-2.1-0.5-3.4,2-5.7,1.5l0,0c-0.3-1.5-2.2-0.5-3.3-1   c-0.8-1-1.9-0.5-2.9-0.5c0-0.2,0-0.4,0-0.6c2.4-0.1,4.9-0.2,7.3-0.4c0-0.1,0-0.2,0-0.3c-1.1-0.4-3.6,0.5-3.5-1.3   C273.8,16.9,276.3,20.1,279.5,20.3z" />
	<path fill="#7A705E" d="M276,17.4c0.8-0.1,1.6-0.3,2.2,0.5C277.4,18,276.6,18.3,276,17.4z" />
	<path fill="#3D322A" d="M280.3,18.8c0.4,0,0.8,0,1,0.4c-0.3,0.3-0.6,0.1-1,0.1C280.3,19.1,280.3,19,280.3,18.8z" />
	<path fill="#080706" d="M293.1,16.6c-0.2-0.3-0.5-0.5-0.7-0.8c0.2,0,0.5,0,0.7,0C293.1,16.1,293.1,16.4,293.1,16.6z" />
	<path fill="#A09984" d="M293.8,15.9c0.1,0.1,0.3,0.2,0.1,0.1C294,16.1,293.9,16,293.8,15.9C293.8,15.9,293.8,15.9,293.8,15.9z" />
	<path fill="#AEB598" d="M262.2,26.7c1.2,0.3,2.5,0.5,3.7,0.7c-2.1,0.9-3.9,0.8-5.7-0.2c0.1-0.2,0.2-0.4,0.2-0.6   C261.1,26.7,261.7,26.7,262.2,26.7z" />
	<path fill="#352720" d="M260.6,26.7c-0.1,0.2-0.2,0.4-0.2,0.6c-0.2,0-0.5,0.1-0.7,0.1c-0.3-0.2-0.6-0.5-0.9-0.7   C259.3,26.7,259.9,26.7,260.6,26.7z" />
	<path fill="#352720" d="M260.3,28.8c0,0.2,0,0.3,0,0.5c-0.3,0-0.7,0.1-1-0.1C259.6,28.7,259.9,28.7,260.3,28.8z" />
	<path fill="#352720" d="M268.2,28c0.1,0.2,0.3,0.3,0.4,0.5c-0.2,0.1-0.4,0.1-0.6,0.2C268.1,28.4,268.2,28.2,268.2,28z" />
	<path fill="#352720" d="M267.3,27.4c0.3,0.2,0.6,0.4,0.9,0.6C267.9,27.8,267.6,27.6,267.3,27.4z" />
	<path fill="#BAAB8F" d="M269.7,21.5c1.2,0.1,2.3,0.4,3.3,1c0,0,0,0,0,0c0,0.2,0,0.4,0.2,0.6l0,0c-1.6,0.3-2.9-0.1-4.3-0.9   C269.2,21.9,269.5,21.7,269.7,21.5z" />
	<path fill="#6C7864" d="M269.7,21.5c-0.3,0.2-0.5,0.5-0.8,0.7c-0.7-0.4-1.5-0.8-2.2-1.2C267.8,21,268.9,20.5,269.7,21.5z" />
	<path fill="#E6CDAF" d="M276.2,23c-0.1,0.2-0.2,0.4-0.4,0.6c-0.2,0-0.4,0.1-0.6,0.3c-0.5,0-0.9,0-1.4-0.1c-0.1-0.2-0.2-0.3-0.4-0.3   c0-0.2-0.1-0.4-0.3-0.6l0,0C274.2,23,275.2,23,276.2,23z" />
	<path fill="#474E41" d="M272.5,25c-0.5,0.2-1,0.4-1.6,0.6c-0.2-0.4-0.4-0.8-0.6-1.3c0.7,0,1.4,0,2.1,0.1   C272.4,24.7,272.5,24.9,272.5,25z" />
	<path fill="#302B25" d="M273.2,23c0.2,0.2,0.3,0.4,0.3,0.6c-0.8,0-1.8,0.5-2.4-0.5C271.8,23.1,272.5,23.1,273.2,23z" />
	<path fill="#302B25" d="M273.9,23.9c0.5,0,0.9,0,1.4,0.1C274.8,24.6,274.3,24.6,273.9,23.9z" />
	<path fill="#302B25" d="M272.5,25c0-0.2-0.1-0.4-0.1-0.5c0.2,0.3,0.5,0.5,0.7,0.8C272.9,25.2,272.7,25.1,272.5,25z" />
	<path fill="#474E41" d="M269.6,24.4c0-0.2,0-0.5-0.1-0.7c0.3,0.2,0.5,0.4,0.8,0.7C270.1,24.5,269.8,24.5,269.6,24.4z" />
	<path fill="#030202" d="M306.6,49.3c0,0.7-0.5,0.5-1,0.2C306,49.5,306.3,49.5,306.6,49.3L306.6,49.3z" />
	<path fill="#030202" d="M256.8,36.5c0,0.3,0,0.6,0,0.9c-0.9-0.3-1.8-0.5-2.2-1.5c0.3-0.1,0.6-0.1,0.9-0.2   C255.9,36,256.4,36.2,256.8,36.5z" />
	<path fill="#37312A" d="M246.8,52.9c-0.1,0.3-0.3,0.5-0.4,0.8C246.5,53.4,246.6,53.1,246.8,52.9z" />
	<path fill="#554A3F" d="M247.6,85c-0.2-1-0.4-2-0.7-3c3.3-3.2,3-8.5,4.7-12.4c0.8,3.7-0.7,6.3-1.4,9.7l0,0   C248.8,80.9,248.7,83.3,247.6,85z" />
	<path fill="#D7C0A1" d="M250.3,79.2c0.2-1.8,0.8-3.4,1.5-5C251.6,75.9,252.6,78.7,250.3,79.2z" />
	<path fill="#A59D90" d="M286,49.5c-0.1-0.2-0.3-0.3-0.5-0.6c1.2-0.3,2.2-0.6,3.3-0.8c0,0.2,0,0.5,0,0.7C287.9,49,287,49.2,286,49.5   z" />
	<path fill="#918379" d="M290.9,48c0.9,0.4,2.1,0.3,2.7,1.3c-1.2,0.1-2.5,0.3-3.5-0.5C290.4,48.5,290.7,48.3,290.9,48z" />
	<path fill="#B8C3B3" d="M290.9,48c-0.3,0.2-0.5,0.5-0.8,0.7c-0.4,0-0.8,0-1.2,0c0-0.2,0-0.5,0-0.7C289.5,48,290.2,48,290.9,48z" />
	<path fill="#F6D9C7" d="M293.1,52.2c-0.2-0.2-0.4-0.3-0.6-0.5c0.1-0.1,0.2-0.2,0.2-0.2C292.9,51.7,293,52,293.1,52.2   C293.1,52.2,293.1,52.2,293.1,52.2z" />
	<path fill="#A19996" d="M269.6,40.8c0.2,0,0.5,0,0.7,0c-0.2,0.2-0.3,0.3-0.5,0.5C269.8,41.1,269.7,41,269.6,40.8z" />
	<path fill="#352720" d="M271.7,29.3c-0.7,0-1.4-0.1-2.1-0.1C270.4,28.5,271.1,28.4,271.7,29.3z" />
	<path fill="#352720" d="M268.9,26.7c0.5,0.2,1,0.3,1.5,0.5C269.9,27.3,269.3,27.4,268.9,26.7z" />
	<path fill="#352720" d="M271.6,27.2c0.3-0.2,0.6-0.5,0.8-0.7c0,0.2,0,0.5,0,0.7C272.2,27.3,271.9,27.3,271.6,27.2z" />
	<path fill="#989C83" d="M276.2,23c-0.8,0-1.6,0-2.3,0c0-0.2,0.1-0.4,0.2-0.6c1.9,0.3,2.8-2.1,4.7-1.4   C278.8,22.5,277.3,22.5,276.2,23z" />
	<path fill="#9DAD97" d="M615.7,62.8c-0.1-0.1-0.4-0.1-0.5,0c-3-1.2-6.3-0.6-9.4-1.6c4.7-1.1,8.5-0.6,12.7,1.6   C617.6,62.9,616.7,62.8,615.7,62.8z" />
	<path fill="#D4D6BA" d="M665.5,86.5c-2.8-1.5-5.7-2.8-9-5c4.2,0.5,7.2,1.8,9.8,4.2C666.1,86,665.8,86.2,665.5,86.5z" />
	<path fill="#A9A892" d="M665.5,86.5c0.3-0.3,0.6-0.5,0.8-0.8c0.9,0.7,1.7,1.5,3,2.6C667.3,88.3,666.5,87.3,665.5,86.5z" />
	<path fill="#211E1C" d="M411.4,151.9c0.1-0.3,0.1-0.6,0.2-1.2c0.6,0.3,1,0.5,1.5,0.7C412.6,152.6,411.9,151.8,411.4,151.9   L411.4,151.9z" />
	<path fill="#E7D2B2" d="M245.9,61.2c0.1-0.4,0.1-0.8,0.2-1.2c1.3,1.9,0.8,5,1.4,7.4c0.3,2,1.4,4-0.3,5.6c-1-0.8-0.3-1.8-0.4-2.8   C247.1,67.2,245.8,64.3,245.9,61.2z" />
	<path fill="#37312A" d="M246.9,55.9c-0.1-0.6-0.2-1.2,0.5-1.5C247.2,54.9,247,55.4,246.9,55.9z" />
	<path fill="#37312A" d="M246.2,58.2c-0.2-0.7-0.2-1.3,0.5-1.7C246.6,57,246.4,57.6,246.2,58.2z" />
	<path fill="#534641" d="M382.1,385.2c1.9-1.5,3.3,4.5,2.6,5.8C382.9,389.4,383,387.2,382.1,385.2z" />
	<path fill="#312B28" d="M387.1,392.6c0,0.6,0,1.3,0,2.1c-1.3-0.7-1.6-1.5-1.5-2.9C386.3,392.1,386.7,392.4,387.1,392.6L387.1,392.6   z" />
	<path fill="#474E41" d="M269.6,25.7c-0.5-0.2-1.1-0.3-1.6-0.5C268.6,25.2,269.2,25.1,269.6,25.7z" />
	<path fill="#302B25" d="M273,22.5c-0.5-0.2-1-0.5-1.5-0.7C272.2,21.6,272.9,21.4,273,22.5z" />
	<path fill="#302B25" d="M274.1,22.4c-0.1,0.2-0.2,0.4-0.2,0.6c-0.2,0-0.5,0-0.7,0c-0.2-0.2-0.2-0.4-0.2-0.6   C273.4,22.4,273.7,22.4,274.1,22.4z" />
</g>
</svg>