<?xml version='1.0' encoding='utf-8'?>
<svg xmlns="http://www.w3.org/2000/svg" version="1.2" baseProfile="tiny" id="Layer_2_00000044860426060111381040000007840845588039760817_" x="0px" y="0px" viewBox="0 0 900 600" overflow="visible" xml:space="preserve">
<g>
	<path d="M14.9,169.9c-0.1-0.9,0.6-1.8-0.6-2.3c-2.9-2.9-1.2-5.7,1.2-8.3c2.8-1.2,5.7,0,8.8,0.1c0.5-1,0.9-1.6,1.8-2.4   c1.3,1,2.5,1.9,3.7,2.8c0.3-0.7,0.6-1.2,0.9-1.7c6,3.5,7.4,12.7,10.8,18.8c9.5-0.3,27.3-17.5,33.7-6.7c4.5-2.4,8.6-4.8,12.6-7.7   c7.7-3.3,12.8-13.5,20.4-1.7c6.4-1.2,6.7-4.5,11.6,1.9c1-1.3,1.8-2.4,2.5-3.3c5.1-0.4,8.5,0.2,13,2.4   c22.3-14.2,22.7,17.8,22.5,32.4c5.5,1.6,12.7-1.9,17.1,2.3c5.5,1.2,10-3.1,15.1-0.7c3-2,7.8-2.5,9.5-5.8c0.6-1.7,1.9-2.6,3.2-3.6   c34.6-28.2,80.1-34.7,123.2-39c12.7-2.9,24.1,6.5,36.4,8.1c30.8,2.1,60.8,11.1,90.7,16.9c0.4,0.5,0.7,0.9,1.1,1.3   c2.5-1.3,5,0.3,7.7-0.1c-4-23.5,25.2-13,19.4-29.8c1.4-3.5,5-2.4,7.4-3.3c4.3-8.5,6.8-14.1,17.3-14.2   c19.4-26.2,50.4-37.1,77.2-54.2c3.7-7.1,15.1-5.4,21.8-8.4c13.7-4.3,24,4.6,30.8,15.5c16.7-5.1,33.9-10.1,48.9-19   C703,58.1,725.7,56.4,739,72c7.5,6.3,7.8,16.9,14.7,23.7c3,3,4.8,6.9,6.6,10.6c0.5,4.2,0.1,8.6,1.7,12.7c0.5,3.4,3.6,7.5,0.7,10.5   c22.7,61.6-0.4,129.2,15.1,191.6c4.1-3.6,9.3-2.6,14.2-2.7c4.3,1.9,5.7,7.8,8,11.5c-0.4,0.9-0.6,1.6-0.9,2.3   c1.4,4.5,3,8.9,5.2,13.3c8.5,1.5,15.1,8.9,23.8,10.8c3.3,1.1,7.3,2.5,9,5.8c1.8,3.5,6.3-1.8,7.8,4.5c4.7,1.9,22.8,9.2,26.4,6.6   c20.9-6.3,22.1,11.5,24.8,27c-8.4,10-18.7,19.7-31.2,24c-4.5-0.4-8.3,2.8-12.7,3.5c-1.3,0.4-2.8,0.5-3.3,2.2   c-16.5-0.5-33.8,2.2-48.8-6.2c-15.8-7.3-33.2-11.9-47.9-0.4c-21.9,3.1-46.5-2.5-64.7-15c-0.4-3,3.5-11.9,5.7-13.8   c4-11.3,4.3-23.6,11.1-33.4c2.7-8.4,1.2-18.6,1.2-27.4c-7.6-0.6-15.4-7.3-22.7-2.3c-8.1,6.4-17.3,4.4-25.7,10.1   c-0.1,0.7-0.3,1.6-0.4,2.4c-14.6,1.3-33.4,1.5-42.2-12.3c6.1-6.1,6.1-15.3,6.3-23.5c-0.6-7,3.5-12.4,3.4-19.2   c-1.8-7.1-2.1-14.3-0.1-21.3c1.1-2.9,4-0.7,6.2-1.5c-0.3-2.2-0.9-4.3-1.9-6.4c-12.7,5-26.6,9-37.4,17.6c-5.3,6.1-10.4,13-18.6,15.6   c-1.1,2.8-3.2,4.6-6.1,5c-5.8,0.6-9.4,5.1-13.9,8.1c2.7,13,6.2,53.3-9.9,56.6c-110.1-0.8-220.6-2-330.8-3.8   c-4.4,8.8-11.7,15-17.8,22.4c0.3,6.8-0.9,16.7-7.8,19.9c-14.3,49.1-28.7,50.7-66.2,79.9c3.8,15.2-3.3,23.1-12.9,33.8   c1.7,1.3,3,2.6,4.1,4.4c-0.1,1.5-0.2,3-0.3,4.9c-4.8,5.4-10.5,12.3-18.6,9.5c-5.3,3.9-14.2,7.4-19.9,2.6c-5.9,6.8-17,6.9-23.3,0.4   c-13.7,5.5-18.6,0.2-26.9-9.9c0.7-8.3-2-17.5,2.4-25c3.1-4.7,2.4-9.6,2.4-15c-8.6,0.9-23.3,6.4-21.7-8.4   c0.2-12.5,2.8-17.5,16.4-17.4c4.6-0.7,7.1-4.6,10.5-7.2c6.3-3.3,13.6-1,20-3.4c6.7-2.3,12.5,1.7,18.9,2.8   c6.9-12.2,16.5-22,21.6-35.2c7.4-14.8,6.5-33.7,19.6-45.6c3.9-3.8,10.1-3.7,13.3-8.4c2.3-2.9,6.5-4.9,6.2-9.1   c-18.7-2.5-38-0.3-56.9-3.5c-0.6,0.3-1.4,0.8-2.1,1.3c-12-10.5-13-39.5-10.1-54.8c-2.4-0.6-4.9-1.1-7.5-1.7   c-0.8,0.4-1.8,0.9-2.7,1.3c-3.5-0.4-6.6-1.4-8.4-5c-0.8-0.1-1.5-0.2-2.3-0.3c-0.9,1.8-0.3,4.3-2.8,5.3c-2.2-0.4-2.5-3.1-4.6-3.4   c-0.1-1-0.1-1.7-0.2-2.4c-1.2-1.6-3.7-1.2-4.8-3.1c0.5-0.8,1-1.6,1.6-2.6c-4.9-0.6-8.1-3.1-3.3-7.1c-9-4.9-10.2-13.7-13.2-23   c-1.1-1.3-4.2-1.6-5.1-4.6c0.3-0.5,0.6-1.1,1.1-1.8c1.2,0.4,2.2,0.8,3.3,1.2c1-6.3-6.5-13.7-2-20.4c-0.4-0.8-0.7-1.5-1.1-2.3   c0.3-0.8,0.7-1.7,1.2-2.7c-0.8-1.6-2.1-3.1-2.6-4.7c0.7-4.7-9.1-10.3-2.8-13.6c0.9,0.2,1.9,0.5,2.9,0.8c1-1-0.4-2-0.2-3   c1.8-4.5-4.9-10.7,1.1-13.1c-0.5-1-1-1.9-1.4-2.7c0.7-3.6,4.1-3.8,6.8-5.4c-3.2-1.8-7.1-2-8.8-5.2c0.2-2.3,2.3-2.2,3.3-3.3   c-0.1-2-0.4-5.8,2.8-4.7c1,1.2,1.8,2.5,4,2.9C16.2,171.5,16.1,170.4,14.9,169.9z M667.5,192.2c7.6-6,12.7-12.7,14.3-22.4   c-7.3-1.7,3.4-10.8,4.9-14.4c-15.7-24.5-34.3-45.5-46-72.6c-30.5,10.4-55,31.4-80.7,50c-0.4-0.4-0.7-0.7-1.1-1.1   c2-3.4,7.9-4.2,3.2-7.6c-0.1-0.6,0-1.2,0.7-1.4l0,0c0.2,0.3,0.5,0.5,0.7,0.8l0,0c0.9,0.7,2.4,3.6,2.9,1.3   c9.3-9.8,19.5-18.1,30.2-26.3c-5.7-7.8-14.6-11.7-21.9-17.5c-11.6,7.9-25,12.1-35.3,21.7c-9,1-15.1,9.6-21.8,15   c1.7,3.2,0.7,3.6-2.2,2.1c-3,3.6-6,7.1-8.8,10.5c-9.2-1.4-12.5,3.8-13.9,12.1c-2.3,1.8-6.1,0.4-8.3,2.6c3.5,7.9-6.2,9.1-8.9,14.2   c-5.2,0.8-6.9,5.4-11,7.5c0,3.6,0.2,6.9-0.9,10.3c-3.1,0.2-5.8-0.3-9.1-0.6c0.3,0.7,0.5,1.4,0.7,2c2.5,1.8,6-0.6,9.1,0.1   c0,0.3,0.1,0.5,0.1,0.8c-0.8,0-1.8-0.4-2.4,0.5c-11.9-2-4.8,12.1-7.5,19.2c0.4,8.6-1.4,17-2.4,25.6c3.2,0,6.1-0.5,9.2,0   c-1.2,3.6-6.5,1.2-9.6,1.8c-3.8,14.1-5.7,29-11.8,42.2c1.5-30.1,14-61.1,12.7-92.3c-41.3-7.3-83.2-16.1-124.1-24.9   c-25.9,1.4-51.1,6.7-75.6,15.4c-7.7,17-25.2,23.3-39.8,33c-15.3,8.7-30,19.6-47.1,24.5c-1,0.3-1.7,0.9-1.8,2.4   c22.2-4.7,59.8-18.2,78.7-1.5l0,0c-0.5,0.2-1,0.4-1.5,0.6c-16.4-10.6-68.3-2.9-83.5,8.3c-17.3,19-19.1,31.6-15.9,56.7   c-0.1,0.9-0.1,1.8,0.6,2.5c0,1.3,0,2.6,1.1,3.5c0.8-0.8,1.5-1.5,2.2-2.2c4,1.5-7.2,24.4-5.3,32.7c-0.6,7.6,0.6,17.2-5,23.2   c0.4,1.2,0.7,2.3,1.1,3.6c-5.1,14.9-22.3,17.2-28.4,30.4c-5.6,12.2-9.7,25.1-13.7,37.8c-5.3,11.6-15.4,20.1-20.4,31.7   c1.9,1.7,5.4,2.5,4.8,5.5c-12.8-6.7-35.7-8.4-48-0.2c-6.2,3.5-13.7,3-19.8,6.7c-3.9,3.1-5,18.3,2.4,18.2c7.2,0.5,17.1,1.1,20.5-7   c0.5,0,1.1,0,1.6,0c1.4,3.8-2.5,6-5.2,7.3c1.7,25-9.1,7.9-6.3,40.6c6.7,8,16.3,10.2,25.2,5.4c1.6,1.6-0.8,2.2-0.5,3.4   c4.7,6,15,6,21-0.2c5-0.3,9.8-6.9,6.2-11.4c-5.6-1.7-9.4,1.1-14.5,3.1c-3.1,0-5.9-0.7-8.9,0.3c-0.4-0.5-0.6-0.8-0.8-1l0,0   c0.8-1.2-0.4-1.9,0-3.1c3.2,0.8,8.4,3.6,10.7,0.3c-1.6-1.7-3.5-2.6-5.5-3.5c-1.2-1.7-3.9,0.2-4.6-2.2c3.9-4,9.3,2,12.5,4.5   c5.5-1.1,10.8-3.8,16.4-1.9c0.1,0.6,0.1,0.9,0.2,1.3c-1,0-1.9,0.1-3,0.1c0.3,1.4,0.4,2.5,1.9,3c0.3-1.1,0.6-2.1,0.9-3.1   c4.4-1.5,9-2.6,13.8-2.9c1.1-1.3,2.3-2.6,3.6-4.1c1.5,0.1,3.6,0.6,5.1,1.1c6.1-9.8,19.6-21,12-33.5c40.4-38.4,50-26.4,68.1-87.3   c0.7,0.7,1.3,1.3,2.1,2.1c0.6-1.2,1.2-2.1,1.8-3.2c-3.7-3.4,2.2-8.2,1.5-11.9c15.7-11.8,19.9-30.3,26.4-47.8   c4-8.2,0.5-17.1,2.5-25.5c0.6,0,1.2,0,1.8,0c1.7,4.2,1.7,7.8,2.8,12.1c13-4.5,29,0,39.8-8.7c28.8-24.8,18.8-68.6-14.6-83.6   c0.5-1.2,1.5-0.6,2.3-0.8c22.5,8.8,34.6,33.9,32.1,57.3c-0.8,1-0.8,2.1-0.6,3.2c0.6,0,1.1,0,2.1,0c-5.3,9.9-12.2,18.3-19.3,26.9   c33.8-2.2,63.8-16.2,95.9-25.1c15.9,1,31.6-1.4,47.7-1.9c7.8-0.3,15.7,4.4,23.3,2.9c-0.3-0.6-0.6-1.1-0.8-1.4   c1-2.2,3.5-2.2,4.6-3.4c0.8-3.7,1.5-7,2.2-10.3c0.5-0.3,1-0.5,1.5-0.8c0.1,1.5,0.3,2.9,0.4,4.3c3.6,0.4,6.6,1.6,9.7-0.5   c1.2,2,1.2,3.9-0.8,5.5c-1-1.1-1.9-2.1-2.8-3.1c-3.6,0.1-8.2-1.5-7.6,3.8c1.3,1,2.5,0.8,4.1,0.5c-0.9-0.8-1.6-1.4-2.3-2.1   c1.1,0,2.3-0.6,3.2,0.6c-0.2,2.5,0.1,3.9-2.9,3.9c-3,0.7-4.6,4.7-7.2,6.8c21.5,29.5,48.9,27,81.5,23c19.1-2.5,33.4-16.3,50.3-23.3   c0.2-0.6,0.4-1.1,0.6-1.7c14.8-2.4,19.1-19,32.3-24.2c14.7-6.3,29.7-12,43.5-20.1c14-5.8,30.6-7.9,40.7-20c-1.1-3-2.2-6-3.3-8.9   c-5-1,0.4-12.7-3-14.8c-0.9-0.2-2.2,0.3-2.8-0.9c1-0.4,2-0.9,3-1.3c0.7-4.5,1.2-11.8,0.7-13.3c-5.9,5.1-11.3,10.6-15.7,17   c-1,0.1-1,0.8-0.9,1.5l0,0c-1.8,0.6,0.1,1.6,0.7,2.3c-6.2,4.2-10.4,23.8-8.5,31c-0.6,0.4-1.1,0.7-1.6,1c-3.2-8,0.7-19.7,3.7-27.6   c1.6-0.4,0.7-2.6,0.9-3.8c3-6.4,9.8-11.6,9.2-19.1c1.2,1.1,0.7,2.7,0.8,4.2C666.4,194.1,666.6,192.8,667.5,192.2z M128.2,163.8   c-1.1-1-2.3-0.7-3.6-0.5c-1,1-1.8,2-2.6,3.2c1.6,1.8,3,3.5,4.5,5.2c-0.3,3.3-1.7,3.1-4.3,2c-3.6-8.8-3.9-12.6-14.1-8.6   c5.1,4.3,0.4,11.9-5.5,8.2c0.7-1.8,1.5-2.7,3-3.8c-2.5-21.8-15.7-1.8-26,3.3c-5.9,4.1-11.4-5.4-17.1-0.5c-6.2,3-13.6,8.8-20.4,7.6   c-2.1,0.5,0.1,4.2-2.5,6.3c1.8,2.9,1.4,9.6,5.1,10c-0.2-1.6-1.1-2.9,0-4.2c7.2,2.8,2.6,14.1,7.9,15.3c15,8.6,27.5,27.3,47.1,26.1   c1.4-1.1,2.6-1.9,3.7-2.7c1.2-0.9,1-3,3-3.2c3.1,1.5-1.1,5.2-1.1,7.6c1.6,1.5,3.7-0.9,5.2,1c-1.3,5.9-10.8,6.8-14.1,11.8   c-1.9,3.3-1.7,7.4-5,9.7c-0.1-0.8,0.3-1.8-1.1-2.2c-0.4,3.2-7.2,4.5-2.6,7.5c1-0.5,1.7-1.2,2.3-2.2c0.4,1.1,0.9,2.2,1.3,3.3   c9.9,3.8,19.9,11.8,25.3-2.5c2-3.7,14.4-16.4,6.9-19.1c-0.4-0.6-0.7-1.2-1.2-2c1-0.6,1.9-1.1,2.6-1.6c0-1,0.1-1.9,0.1-2.8   c1.9-0.6,2.3,1.2,3.7,1.7c5.9-0.2,10.4-4.5,13.7-9.1c0.5-0.1,0.9-0.2,1.8-0.5c-2.5,6-3.1,12.1-9.7,14.8c-1.5,1.4-3.1-1.5-4.4-0.2   c1.1,5.5-3.1,9.2-4.1,14c4.8,0.3,4.8,0.3,7.4,1.7c0.2,1,0,2.2,1.4,2.9c4.1-10,10.3-18.6,18-26c-0.4-1-1.7-0.2-1.8-1.5   c1.1-2.2,7.3-4.7,3.7-6.8c0.7-1,1.4-1.7,2.8-1.1c1.9-0.5,3-3.3,4.9-4.8c3.3-0.3,6.7-0.3,9.5-2.4c16.3-9.3,32.5-19,48.6-28.7   c10.7-5.7,23-9.9,27.8-22.4c-15,4.1-28,13.8-42.6,19.5c-2.5,7.2-9,9.8-15.4,12c-4.5,1.7-19.3,15.4-21.7,13.4   c3.5-4.8,9.1-7.4,13.9-11.5c-9.8-1.7-18.5-2.6-27.9-4.9c-1.1-1.9-0.1-3.9-0.5-5.9c-1.5-0.9-1.3-2.6-1.3-4.3   c1.4-6.6-0.6-14.1-3.2-20.3c-4.8-8.3-13.3,3.1-19.7-1.3C129.4,163.8,128.9,163.6,128.2,163.8z M99.7,516.6c-1,0.7-2,1.5-2.9,2.2   c0.3,4-0.2,7.6-2.7,10.8c1.6,0.2,3.1,0.5,4.8,0.7c3.4-3.2,8.4-5.8,8.9-10.9c-0.8-0.6-1.7-1.2-2.6-1.9c-0.8,0.5-1.4,0.8-2.1,1.2   c-0.2-0.6-0.4-1.2-0.6-1.8C101.6,516.7,100.8,515.8,99.7,516.6z M84.4,523.4c-1.4,0.9-2.7,1.8-3.6,2.4c-1.6,3.1-2.9,5.7-4.3,8.5   c5.9,0.5,10.8-0.8,14.1-5.8c1.2-0.5,2.1-0.8,2.8-1.1c3.3-9.7,0.4-9-7.7-6.8C85.1,521.8,84.8,522.6,84.4,523.4z M650.9,275.5   c7.4,0.4,16.1-1.8,20.4-8.1c-4.3-7.4-7.5-14.3-11.2-22c-5.8,2-11.4,4-16.9,5.9c-0.4,1-0.8,1.8-1.1,2.7c-3.6-1.1-6.4,1.8-9.4,3.7   c1.3,4.1,2.9,8,2.1,12.2c2.9,2.1,5.8,4.2,8.8,6.4C645.9,275.9,648.4,275.7,650.9,275.5z M135.7,327.3c0.4-9.2,7.6-19.7,3.9-28.3   c-1.8-7.5-2.3-15.5-4.8-22.8c-11.6,7.6-27.4,8.7-40.1,16c-0.7-0.4-1.5-0.8-2.5-1.4c-7.2,6.3-16.4,6.4-25.6,6.8   c-3.3,17.6-1.3,34.3,7.6,50.4c19.6,1.9,39.5-1.1,59.2,1.3C137.4,342.4,135.2,334.6,135.7,327.3z M715.6,323.5   c-1.1-12-3.7-24.1-6.2-35.8c-1.2-0.6-2.2-0.8-3.3-1c-0.6,0.6-1,1.1-1.5,1.6c-6.4-2-11.3-6.7-16.7-10.3c-7,1.9-2.5-13.3-9.8-18.9   c-2.2,0.1-4.5,0.3-6.9,0.4c0.2,2.1,1.7,3.4,2.6,4.9c6.2,1.7,5.8,10.5,5,15.6c-6.9,8.8-16.9,9.2-26.8,5.8c-5.3-0.5-6.9-7.1-12.4-7.6   c-0.9-4.5-6.1-5.2-9.1-7.8c-1,0-2.4,0.5-3.6,0.5c-2.7,9,4.9,20.2-2.2,27.8c0.2,11.5-0.7,22.8-5.7,33.4c18.9,11,42.2,7.5,60.4-3.3   c11.1-7.8,24.5,1.3,36.7,0.5C716.1,327.2,715.8,325.3,715.6,323.5z M888.3,391.9c-2-10.9-1-16.3-14.1-15.9   c-8.6,7.1-21.2-1.6-30-4.9c-5.3,11.3-15.4,6-7.2-4.2c-2.5-1.9-4.6-4.1-7.7-4.4c-1.6,4.7-3.5,8.9-7.8,11.4   c-6.3-4.4,4.9-8.5,3.9-13.7c-1.9-1.2-3.9-2.5-6.2-3.4c-1,4.2-12.2,22.9-14.4,12.3c2.8-5.5,7.4-9.6,10.1-15.3   c-1.9-1.2-3.5-2.7-5.5-3.4c-12.2,26.3-29.3,23.1-3-2.2c-1.9,0.2-3.7,0.5-5.5,0.7c-4,7.3-9.7,12.6-17.3,15.5   c-2.7-12.6,24.7-16,7.7-41.9c-18.5,4.3-24.5,23.7-37.2,35.4c-6,3.2-12.9,15.4-20.1,9.4c-5.4-6.9-9.8-14.5-15.2-21.4   c-2.9-3.7-2.7-12.2-8.7-11.1c-0.8,9.3,0.8,19.8-3.1,28.2c-2.5,2.5-3.1,5.6-3.7,8.9c-4.3,12-4.5,24.9-12.3,34.9   c17.6,10.3,40.5,13.7,60.5,10.9c8.5-1.6,16-8.9,25-6.1c11,1.8,21.5,5.3,31,10.4c13.1,2.9,26.6,1.3,39.9,1.8   c12.4,0.4,23.1-8.1,33.5-14c-0.7-0.5-1.2-0.7-1.7-1.1c3.7-2.7,7.3-5.3,11-8.1C889.6,397.6,889,394.8,888.3,391.9z M681,139.5   c2.5,4.4,5.1,8.8,7.7,13.2c5.5-5.5,11.6-10.3,18.3-14.7c1.1,0.1,2.4-0.6,4.4,0.5c-12.8,10.7-23.5,23.5-28.5,39.3   c0.8,0.7,1.4,1.2,2.1,1.8c-6.5,5.6-4.8,15.8-5.8,23.6c1.9,2,2,2,2,4.8c3.9,32.8,33,57.7,36.6,91.2c6.6,36.6-13.7,48.9,36,48.7   c7.3-5.6,12.7-15.1,20.4-21.2c-14.1-61.2,3.1-125.5-13.4-186.7c-0.2-5-3.7-10.9-0.7-15.4c-3.6-8.9-1.2-19.3-8.3-26.5   c-6.1-7.1-8.2-16.9-14.8-24c-6.7-10.8-37.4-16.3-47.1-8.8c-16.2,1.6-31.5,11.1-46.8,16.6C654.2,102.1,665.2,122.5,681,139.5z    M213.3,355c110.2,0.2,220.3,6.5,330.5,2.4c8.6-13.9,4.5-33.4,4.9-49.2c-25.7,12.8-56.1,19.2-84.5,13   c-14.4-2.5-23.4-18.2-33.9-27.4c-0.7,0.5-1.3,1-1.8,1.4c-70.7-16.9-135,28.9-205.4,27.8C222.3,334.4,217.3,344.4,213.3,355z    M578.4,78.4c8.3,5,14.3,11.5,20.2,19c10.7-6.5,21.3-12.2,33-16.9C622.9,58.4,592.6,66,578.4,78.4z M708.4,283.8   c-4.4-19.2-14.8-35.2-24.3-52c-6.2,2.6-9,9.1-15.7,10.4c-1.7,0.4-3.3,1.1-4.8,2.5c1.7,3.4,3,6.9,5.1,10.1c4.3-2.4,7.9,1.7,12.3,1.4   c4.4,5.4,6.6,11.4,7.7,17.9C695,278,701,281.8,708.4,283.8z M754.5,351.8c-10.4,1.1-19.6-0.3-29.1-4.2c2,5.6,7,13.4,10.7,16.7   c1.7-0.1,3.4-0.3,5.4-0.4C745.8,360.1,750.5,356.8,754.5,351.8z M650.8,282.1c9.7,3.9,22.2,3.6,24.3-8.8c-0.3-0.5-0.7-1.2-1.1-2   c-7.3,6.6-16.5,8-26,8C648.7,280.6,649.9,281.2,650.8,282.1z M38.8,184.3c1.2-5.8-9.4-23.1-16.6-21.1   C31.8,167.3,33,177.3,38.8,184.3z M18.2,193.5c1.7-1.9,3.6-2.8,6.1-3.6c-0.4-2-1.7-3.1-3.3-4c-1.1,0.4-2.3,0.8-3.6,1.2   c0.9,0.8,1.6,1.3,2.1,1.7c0.5,3-3.3,2.3-4.2,4.4c0.7,1.6,0.7,3.5,2.6,4.8C18,196.6,18.1,195.4,18.2,193.5z M44.1,260.8   c-1.8,1.8-3.4,3.4-5.1,5.2c1.7,1.1,3.6,1.4,5.8,1.7c-0.3-1.2-0.5-2.2-0.6-2.9c0.5-1,1-1.8,1.5-2.8C45,261.5,44.5,261.2,44.1,260.8z    M54.5,216.1c2.9,3.1,4.7,8.3,9.2,7.8C64.2,222.6,55.8,215.1,54.5,216.1z M36.9,194.4c-3,2.8,1.2,6.1,1.2,9.3   c0.1,0.7,1.1,1.2,1.9,2.2C39.9,201.5,38.6,197.9,36.9,194.4z M45.4,253.1c1.3-0.2,2.1-1.1,2.5-2.6c-1-0.9-2-1.9-3.1-2.9   c-1.2,1.2-2.7,1.8-3,3.6C43.1,251.9,44.2,252.5,45.4,253.1z M40.3,233.2c1.2-2.1,2.3-4.2,3.6-6.5c-0.7-0.6-1.4-1.2-2.2-1.8   c-1,2.4-2,4.5-3,6.7C38.9,232.4,39.3,233.1,40.3,233.2z M70.1,274c1.7-2.3,3.1-4.4,4.5-6.3c-0.8-1.4-1.6-1.9-2.9-1.1   c-0.1,1-0.2,2-0.3,2.9c-1.1,1.2-2,2.4-3.1,3.7C69,273.6,69.4,273.7,70.1,274z M43.6,209.6c1.3,3.9,4.4,5.1,7.2,7.6   C53,215.2,46.2,211.2,43.6,209.6z M80,285.6c-1-2.2-2.7-3-4.7-3.3C73.5,285.5,77.6,286.9,80,285.6z M117,267.7   c3.3-1.1,4.6-3.1,6.7-4.8c-0.9-0.5-1.5-0.7-2-1C119.6,263.1,118.6,265.1,117,267.7z M21.3,264.8c0.4,2.1,0.5,5.1,2.8,5.6   c0.6-0.5,0.8-1.1,0.8-2C23.6,267.2,23.2,264.9,21.3,264.8z M41.7,213.6c-1.3,1.5-2.5,3-4.1,4.9c2.8,0.4,3.7-2.1,5.7-3.5   C43.4,213.8,42.8,213.4,41.7,213.6z M18.2,215.3c-0.9-1.2-1.9-1.8-3.4-2.5c-0.1,1.8,0.1,3.1,0.8,4.7   C16.6,216.7,17.3,216.1,18.2,215.3z M107.5,281.3c-1.3-2.3-1.3-2.3-4.5-1.6c0.1,0.5,0.2,1.1,0.2,1.6   C104.7,281.3,105.9,281.3,107.5,281.3z M84.5,272.1c-1.1-3.6-4.1-1.9-4.3,0.6C81.8,273.6,82.9,271.9,84.5,272.1z M85.3,286.3   c0.1,0.8,0.3,1.3,0.3,1.8c2.6,0.3,2.6,0.3,4.2-0.6C88.7,286.3,87.4,285.8,85.3,286.3z M49.3,285.9c1,1.7,2.3,2,3.6,2.4   c0.4-0.5,0.6-0.9,1-1.4C52.4,286.1,51.4,284.8,49.3,285.9z M44.5,279c1.4,1.3,4.2,3,4.7,0.7C48,278.7,46.7,278,44.5,279z    M68.8,238.8c-1.7-1-2.2-2.4-4-2.1C64.7,239.2,66.3,240.2,68.8,238.8z M70.1,246.4c1.1,1.5,2.5,0.2,3-1c-1.7-1.5-2.2-1.6-3-0.7   C70.1,245.2,70.1,245.8,70.1,246.4z M108.1,272.3c2.5,1.1,2.5,1.1,4.4-1.3C110.8,270.4,109.6,271.1,108.1,272.3z M36.9,277.4   c0.6-1.5,0-2.3-1.4-2.8c-0.5,0.5-0.9,1-1.3,1.4C34.7,277.3,35.5,277.8,36.9,277.4z M15.8,178.7c-1.1-1-1.7-2.3-3.4-2.7   c-0.1,0.7-0.2,1.3-0.4,1.9C13.2,178.4,14.1,179.6,15.8,178.7z M78.6,242.3c0.9,1.7,0.9,1.7,3.3,1.4   C80.3,241.7,80.3,241.7,78.6,242.3z M95.2,273.2c0.9,0.5,1.7,1,2.7,1.6c0.5-0.4,0.8-0.7,1.2-1.1C97.2,272.2,97.2,272.2,95.2,273.2z    M43.2,204.1c1.5-1.9,0.6-5.3-1.4-3.7C42.2,201.4,42.6,202.4,43.2,204.1z M73.3,230.2c0.5-1.9-0.5-2.8-3.1-2.6   C71.1,228.7,71.8,229.9,73.3,230.2z M126.3,267.2c-2.2,0-2.2-0.1-2.4,1.9C125.2,269.1,125.8,268.3,126.3,267.2z M43.9,286   c0.9-1.3,1.3-1.9,2-2.9c-1.1,0.1-1.8,0.1-2.6,0.1C43.4,284.1,43.6,284.6,43.9,286z M26.8,272.8c1.2-1.2,2.1-2.5,0-2.6   C26.8,270.9,26.8,271.5,26.8,272.8z M93.1,243.3c-0.9-0.6-1.1-0.7-1.4,0.2C92,244.1,92.5,243.7,93.1,243.3z" />
	<path fill="#E4DFDF" d="M94.4,157.7c-0.8,0.9-1.5,2.1-2.9,2.4c-1.3-1.5-1.5,0.1-2.9-0.5c0.9-1.3,2.1-2.3,3.2-3.2   C93.1,156.4,93.2,158,94.4,157.7z" />
	<path fill="#433D3D" d="M14.9,169.9c1.2,0.5,1.3,1.6,1.8,3c-2.2-0.4-3-1.7-4-2.9C13.5,170,14.2,170,14.9,169.9z" />
	<path fill="#E4DFDF" d="M90.7,160.8c-0.6,1.2-1.7,1.7-3,1.7C88.2,161.1,89.4,160.9,90.7,160.8z" />
	<path fill="#433D3D" d="M14.3,167.7c0.8,0.3,0.8,1,0.6,1.7C14.3,168.9,14.1,168.4,14.3,167.7z" />
	<path fill="#E4DFDF" d="M95.4,157.1c-0.3,0.2-0.6,0.4-0.9,0.6C94.8,157.5,95.1,157.3,95.4,157.1z" />
	<path fill="#E4DFDF" d="M91.6,160.2c-0.3,0.2-0.6,0.4-0.9,0.6C91,160.6,91.3,160.4,91.6,160.2z" />
	<path fill="#FBDFD3" d="M8.8,473.7c-1.8-10.7,8.8-9.4,15.6-12.2c2-1.4,4.6-0.8,6.6-2.4c4.1-4.5,10.7-3.9,16.2-4.8   c9.9,0,21.1-1.9,29.7,4.4c1.8,1.7,2.9-0.3,4.5-0.9c20.2-4.8,20-68.3,52.1-87.1c4.1,1,7.3-4.5,9-7.5c-1.9,0-2.8,0.1-4.5-0.4   c12-17,10.1-31.4,16-50c-1.1-12.2,29.9-37.1,13-42c-4.9,0.9-8.6,3.2-11.8,6.8c-5.7-10.7-0.7-23.3,2.3-34.2   c1.4-4.6-1.8-11.4,4.8-12.8c23.3-7.3,50.3-14.2,74.4-7.2c-1.7,2-3.3,4.1-5,6.1C225,230.3,193.2,242,202,252   c16.5,5.4,8.5,17.2,18.4,26.9c-0.4,3.1,1.8,10.1,4,4.1l0,0c1-2.4,0.9-4.8,0.1-7.2c0.1-0.2,0.1-0.3-0.1-0.5   c-0.3-3.8,1.2-7.2,0.8-11.1c4.4-3.1,6.9-7.6,10-12.1c9.6-3.6,15.9-9.9,20.7-18.3c0.4-0.9,1.2-1.2,2.2-1.2   c16.3,11.3,25.1,33.6,20.7,52.8c-20.3,0.1-39.3,5.2-59.3,1.6c-0.7,0.6-1.4,1.2-2.2,1.9c-6-3.3-5.8,2.6-1.2,4.8   c0.5,2.8-2.1,9.6,2.2,9.7c0.6,1.1,0.9,2.2,0.1,3.3c-2,8.4,1.6,17.3-2.5,25.5c-6.5,17.5-10.7,36-26.4,47.8c0.7,3.8-5.3,8.5-1.5,11.9   c-0.6,1.1-1.1,2.1-1.8,3.2c-0.8-0.8-1.4-1.4-2.1-2.1c-18.2,61-27.7,48.9-68.1,87.3c7.7,12.5-5.9,23.7-12,33.5   c-1.4-0.5-3.5-1-5.1-1.1c-1.3,1.5-2.5,2.8-3.6,4.1c-4.9,0.3-9.4,1.4-13.8,2.9l0.1,0.1c-0.1-0.4-0.1-0.7-0.2-1.3   c-5.6-1.9-10.9,0.8-16.4,1.9c-5.4-5-8.6-7.8-15.3-3.4c3.8,3.1,9.2-0.7,12.9,4.6c-1.9,4.9-14.9-4.5-10.7,2.8l0,0   c-0.6,0-1.2,0-1.8-0.1c-4-3.7-5.9-13.5-13.1-8c2.8,1.3,5.4,0.9,7,3.8c-3.4,0.7-9-1.9-11.2,1.1c4.5,2.2,12.1-1.4,13.5,5.8   c-6.8,2.3-11.9-4-18.6-4.3c1.6-5.6,1.5-11.2,1.9-17c4.2-4.5,8.4-9.8,6.6-16.4c10-2.7,25.8,5.6,33-3.5c-3.2-4.3-8-1.9-11.9-4.8   c-0.1-5.1-5.2-5.5-9-5.9c-0.3-0.6-0.5-1.2-0.8-1.8c-1.1-0.1-1.1-0.1-1.9,0.6l0,0c-2.6,1.6-5,0-7.3-0.3c-3.8-16.4-13.5-0.3-20.4,3.6   C14.8,476.6,9.4,477.8,8.8,473.7z M112.1,452.6c0.9-0.8,1.4-1.8,1.5-3.1c-3.1,0-3.5,4.3-5.6,6.2c-1.2,2.8-4.1,3.6-5.9,5.5   C107.1,466.1,111.1,456.5,112.1,452.6z M83,481.5c-0.9,2.2-2.1,4-3.6,6c-4.2-2.9-7.6-0.4-10,3.4c0.2,1.3,1.1,1.3,2.1,1.2   c2.9,7.2,15.2,9.4,20.7,4.3c-3.7-2.6-7-4.9-10.4-7.3c1.6-6.8,8-11,6.7-18.5c-0.1-1.5-1.5-4-3.1-2C86.7,473.1,84.4,477.3,83,481.5z    M75.2,512.6c-4.4-1.5-8.6,0.9-12.3-2.2c-3-1.9-18.3-12.9-19.6-7.8c7.3,4.1,14.9,8.2,22.2,12.3c0.7-0.4,1.5-0.7,2.2-1.1   C72.2,514.6,72.3,514.6,75.2,512.6z M112.8,478.5c3.8,1.4,3.8-4,2.5-6.2c-0.3-4.6-17.3-11.5-13.8-5.1   C107.4,467.9,113.8,471,112.8,478.5z M193.4,313.5c3.4-3.4,4.3-12.9-1.8-14.2C186.6,300.6,191.8,310.6,193.4,313.5z M180.3,389.6   c5.1-2,1.9-9.7-1.3-11.6C178.4,381.7,179.5,385.7,180.3,389.6z M178.8,376.1c3.2-1.4,0.8-5.4-1.2-3.2   C176.8,374.1,177,374.6,178.8,376.1z M149.7,359.9c0.8,2,5.1,1.1,4.1-1.3C151.5,357.9,151.4,357.9,149.7,359.9z M115.2,451.2   c2.9-0.1,4.4-3.6,1.5-4.1C115.6,448,114.8,449.2,115.2,451.2z M192,337.1c0.9-1.4,0.5-4.6-1.5-3.7C189,334.4,189.5,338,192,337.1z    M98.9,452.9c0.5,0.5,1,0.8,1.6,1.4C104.3,451.4,100.9,448.2,98.9,452.9z M124.3,442.1c-1.7,0.8-3.2,1-3.4,2.9   C123.2,445.6,124.1,445,124.3,442.1z M191.6,326.7c-0.8,1.2-1.6,3.3,0.2,3.7C193.6,330.3,194.1,327.2,191.6,326.7z M192.7,323.4   c1.8-0.9,1.7-3.4,0-3.8C191,320.1,191,322.6,192.7,323.4z M96.5,465.5c-0.5-2.1-2-3.1-3.9-1.9C93.2,465.1,94.2,465.9,96.5,465.5z    M144,363.5c2.6,0.9,2.6,0.9,3.1-1.3C145.4,361.5,145.4,361.5,144,363.5z M76.2,512.2c3.3,2.2,3.7,2.2,5,0.2   C79.7,511.6,78.3,511.9,76.2,512.2z M158.5,354.4c-1.3-0.1-1.9,0.3-1.9,1.4C158.4,356.7,158.6,356.6,158.5,354.4z M128.3,437.6   c2,1.5,2.9-0.2,1.9-2.1C129.3,436.5,128.8,437,128.3,437.6z M84.8,512.4c0.1,2.1,1.4,1.3,2.6,0C86,512.4,85.4,512.4,84.8,512.4z    M39.1,510.5c-0.5-1.1,0.3-1.9-0.9-2.2C36.6,508.6,37.2,510,39.1,510.5z M47.6,470c1,0,1.3-0.6,1.1-1.4   C47.8,467.7,46.3,469.2,47.6,470z M37.2,513.1c1.9,1.6,1.6,1.6,3.2-0.3C39.2,512.9,38.5,513,37.2,513.1z" />
	<path fill="#CCD2E9" d="M282.4,283c4.3-62.1-60.5-74.1-108.3-59.4c-0.8-0.4-1.9,0.3-2.4-0.9c22.1-12.5,70.9-34.1,81-56   c24.5-8.7,49.7-14.1,75.6-15.4c40.9,8.8,82.8,17.7,124.1,24.9c-0.5,7.2,0.1,14.3-1.2,21.3c-16.2,0.2-30.8,12.6-46.5,10.6   c-0.8,0.5-1.6,0.9-2.3,1.3c0,3.5,1.3,4.7,4.3,3.8c3.9-0.5,8.5,0.8,12.3,0.4c0.8,0.7,1.2,1.1,1.7,1.5c1.2,0.2,3,0.4,2.9-1.4   c3.1-2.6,8.9,0,11.8-3.4c4.4,0.2,8.7,0.2,13.1,0.3c-0.5,17.5-6.1,35.3-9.5,52.6c-0.6,0.2-1.2,0.5-1.8,0.8   c-13.1-3.3-26.6-1.7-39.8-1.5c-5.2,0.5-11.5,2.2-14.3-4c1.2-4.4,7.7-4.6,9.2-8.7c-1-0.6-1.9-1.2-3.1-1.9c0.8-1,1.4-1.8,2.4-3.1   c-18.2,5.4-35.3,10-49.4,23c-12.1,3.8-25.3,5.1-36.7,11.7c-7.4,1.3-15.5,4.4-22.9,4.7C282.6,283.7,282.5,283.3,282.4,283z    M301.6,244.8c-0.7-0.3-1.1-0.9-0.8-1.5c1.1-2.9,2-11.3-3.3-8.8c-4.6,1.6-7.5,6-11.9,7.8c-3,1.3-5,3.3-5.4,6.2   c0.9,2.5-0.3,5.4,1.7,6.9c3.6,1.7,7.1,4.6,11.1,5c4.1-2.7,6.2-6.7,8.8-10.5c6.7,12.4,34.5-4.7,24.9-16.1c-0.7,0.4-1.1,0.7-1.6,1   C316.7,234.7,307.7,239,301.6,244.8z M347.5,180.2c-0.8-3-6.3-22.8-10-18.5C340.9,167.8,341,176.3,347.5,180.2z M343.8,233.4   c-0.9,1-1.8,1.9-2.5,2.7c-0.1,4.4,2.5,3.3,5.4,3.1c0.6-1.1,1.1-2.2,1.6-3.3c-0.5-0.9-0.9-1.7-1.4-2.5   C345.9,233.4,345.1,233.4,343.8,233.4z M356.9,185.8c-1.9-3-4.1-4.7-6.5-4.9C350.8,183.1,354.6,187.1,356.9,185.8z M309.6,228.8   c2.1-2.7,2.6-4.4,0.1-5.9C307.3,225.5,307.3,226.4,309.6,228.8z M400.4,218.9c2.9,1.5,4.8,0.8,6.2-1.9   C404.2,217.4,402.2,216.8,400.4,218.9z M263.8,206.8c-1.9,0.7-2.7,2.8-1,4.2C265.2,208.8,265.3,208.6,263.8,206.8z M357.4,188.9   c2.3,1.3,3.5,2.9,5.8,2.2C362,188.6,359.9,187.7,357.4,188.9z M308.4,235.3c-2.3-0.5-2.3-0.5-3.8,2.1c0.4,0.3,0.7,0.5,1,0.8   C307.5,237.1,307.5,237.1,308.4,235.3z M411.3,217c1.9,0.6,3.5,0.9,4.7-0.7C413.1,215.1,413.1,215.1,411.3,217z M251.4,224.8   c2.5-1.1,2.5-1.1,1.4-2.6C251,223,251,223,251.4,224.8z M271.1,199.9c-0.4-0.6-0.7-1-1-1.7c-1.1,0.9-3,1.9-0.7,2.7   C269.8,200.6,270.3,200.3,271.1,199.9z M367.4,193.7c-1.4,0-1.3,2,0,1.9C368.2,195.1,368.2,194.4,367.4,193.7z M327.3,229.4   c1.7,0.3,2.2-0.2,2.2-1.3c-0.3-0.2-0.6-0.4-1-0.7C328.1,228,327.8,228.5,327.3,229.4z" />
	<path fill="#5876E8" d="M468.1,163.9c1.5-2.9,4.4-3.6,7.3-4.7c2.8-5.1,12.5-6.4,8.9-14.2c2.2-2.2,6-0.7,8.3-2.6   c1.3-8.4,4.6-13.5,13.9-12.1c2.9-3.4,5.8-6.9,8.8-10.5c0.6,0.3,1,0.4,1.5,0.6c4.4,10.2,20.6,18.4,16.9,30.5   c-7.9-3.5-13.6-9.5-21.1-13.6c-0.3,4.5,15.4,11.8,19.2,15.9c-0.4,1.7-0.3,3.5-1.9,4.6c-0.8,0-1.8-0.4-2.3,0.7   c-0.3,0-0.5,0.1-0.8,0.1c-1.8-5.3-5.2-9-10.2-11.2c-1.7,2.4-0.9,4.7-0.6,7c-0.6,0.1-1,0.2-1.3,0.3c-6.3-3.3-11.5-8.8-18.2-10.7   c4.8,5.6,11.6,8.5,17.3,13.1c-0.5,0.7-1,1.5-1.4,2.1c0,1.3,0,2.4,0,3.6c1.2,1.3,2.2,2.8,4,2.9c0.4,0.9,0.7,1.5,1.1,2.5   c0.7-0.6,1.1-0.9,1.5-1.2l0,0c3.8,0.8,6.4-1.5,8.5-4.4c5-1,7.2-1.6,6.9-7c0.3-0.2,0.5-0.4,0.8-0.6c0.5,0,1-0.1,1.5-0.1   c2.3,2.2,6.2-0.5,6.9-3.1c0.8-0.9,2-1.5,1.8-3.1c1.7-4,3.8-7.7,5.3-11.9c1.6-0.1,3.2-0.2,5-0.3c26.9-20.1,52.9-42.3,85-53.5   c9.5,17.4,17.5,35.8,31,50.6c14.1,18.3,14.9,14.3-3.5,27.5c-1.2-0.7-1.6-0.9-2.9-1.7c-0.2,1.5-0.3,2.6-0.4,3.9   c-5.4,3.7-10.7,7.5-16.7,11.4c4.1-13.9,8.1-26.7,9.9-40.8c-20.2,39.8-5.1,41.9-47,71.8c0.1-8.9,2.6-17.8,1.8-26.7   c-6.8,6.9-8.2,36.2-14.8,36.4c-0.1-0.4-0.2-0.7-0.2-1.1c4.4-13.2,9.1-26.2,13.1-39.5c0.7-1.5,0.4-1.7-0.5-3.5   c-5.8,17-10.4,33.2-17.8,49.2c-6.3,2.2-10.9,7.2-17.6,9.1c1.6-22.4,6.5-44.8,2.9-66.8c0.3-0.5-0.3-1.2-1.4-0.5   c-0.5,5.4-4.9,11-6.9,16.2c-0.3-0.4-0.6-0.8-1.4-0.3c0.2,8.2-1.7,16.1-3.4,24.5c-4.2-10.5-2.7-23.4-5.8-34.2c0.1-0.2,0-0.4-0.1-0.6   c-0.1-0.8-0.4-1.4-1.5-1c0.1,1.6-0.4,3.3,0.8,4.8c-0.1,0.2,0,0.5,0.1,0.7c-0.1,1.4-0.3,2.8,0.6,4c1.5,19.2,6.4,40.4,0.6,58.8   c-13.1-22.3-34.3-38.2-41.8-63.8c-8,11.9-7.2,31.9,4.2,41.3c0.5-0.6,0.8-1,1.2-1.5c-4.9-10.6-7.7-21.3-5.8-32.9   c6.9,11.7,12,25.4,23.2,33.8c7.4,8.3,13.8,17.8,19,27.6c-4.5,2-8.2,5.5-13.2,5.6c-0.3,0.6-0.5,1.2-0.7,1.8c-4,1.7-7.8,4.5-11.9,5.6   c-1.6-2.2-2.2-4.8-5.2-5.9c-0.3,3.1,2.9,4.7,2.1,7.8c-2.1,1.1-4.3,2.1-6.5,3.2c-5.6-16.9-5.8-36.4-13-52.2   c-3.7,5.8-0.4,12.8-2.5,18.9c-12.5-9.3-12.9-27.6-12-42c-7.4,10.7-1.2,39.5,9.5,48.1c3.8,5.8,5,11.8,5.6,18.7   c0.3,4.3,3.5,9.2,2.1,13.3c-7.4-8.7-8.4-21.4-17.3-29.3c-2.5,8.9-0.5,18.3,2.5,26.9c0.3,0.8,0.4,1.7-0.7,2.5   c-8.4,0.4-17.2-0.9-25.4,0.6c-0.7-0.6-1.3-1-1.9-1.5c1.5-6.7,0-14.4,2.3-20.6c4.7,5.2,7.1,11.9,10.2,17.7   c-0.3-14.5-13.9-25.7-20.1-38.3c-2.1,0-2.1,1.7-3.3,3.1c-2.3-0.7-4.8-0.6-7.3-1.4c0.9-6.7,2.9-13,2.9-19.7c2.1-1,4-1.1,6.2-1.1   c5.9-4.6,2.6-15.8,3.6-22.7c2.8,0.1,2.2-2.1,2.2-4.1c1.1-0.1,2.1-0.2,2.4-1.4c9.9,4.6,8.6,16.5,10.7,25.2c0.6-0.2,1.2-0.4,1.8-0.6   c3.5,5,0.7,8.1,2.7,13c0.3,4,5.8,17.9,9,8.8c-7-14-10.9-31.7-7.8-46.8c-0.6,0-1.2,0.1-1.6,0.1c-1.1-1-0.4-2.9-2.3-3.4   c-1.1,4.4,1.3,8.3-0.6,12.8c-3.1-4.3-4.8-9.4-10.3-11.5c-0.6-0.8-1.1-0.8-1.6,0.1l0,0c-1.7-1.4,0.4-4.4-2.3-5.3   C468,164.8,468.1,164.3,468.1,163.9z M500.8,201.3c0.2,0.9-0.5,2.3,0.7,2.6c0.6-9.9,0-20.9,2.2-31c-4.5,2.1-1,9-5.1,11.8   c0.2,2.9-0.8,5.9,1.4,8.2C500.3,195.7,499.5,198.8,500.8,201.3L500.8,201.3z M626.1,151.6c-1.3,1.2-1.7,2.6-1.1,4.9   c1.3-3.6,14.1-19.3,11-20.7C632.1,140.5,629.1,146,626.1,151.6z M471.8,206.7c3.9,7.3,9.4,14.6,8.4,23.3c1.2-0.3,2.1-0.5,3.2-0.7   c-2.4-8.2,4.1-21.7-6.9-25.2c-4.3-0.4-10.7-2.2-13.9,0.8c0.4,0.7,0.9,1.5,1.3,2.1c-0.1,2.4-0.7,4.8,0.8,7.1c2.6-1.9,0.3-5,2.1-7.3   C468.3,206.8,470.1,206.7,471.8,206.7z M610,101.2c-1.6,4.7,0.5,29.6,4.3,31.8c-0.1-9.8-2.4-19.4-2.6-29.2   C611.6,102.8,611.5,101.8,610,101.2z M513.3,170.5c-0.2-3.5-13.6-5.5-13.2-1.5c0.2,1.5,1.9,2.1,3.2,1.6   C506.8,169.5,509.8,170.6,513.3,170.5z M566.6,135.3c2.2,2.5,2.6,6.1,5.1,8.4C574,141,569.9,130.5,566.6,135.3z M631.5,105.7   c0-2.6-0.1-4.7-2-6.8C627.7,101.5,629.1,103.7,631.5,105.7z M492.9,173.7c2-0.5,3.3-0.7,4.4-2.1C495.5,170,493.9,171.2,492.9,173.7   z M471,212.6c0-1.7-0.9-2.2-2.4-3C469.2,211.2,469.3,212.3,471,212.6z" />
	<path fill="#FBDFD3" d="M681,139.5c-15.8-17-26.8-37.4-37.9-57.6c15.4-5.5,30.6-15,46.8-16.6c9.6-7.5,40.4-2,47.1,8.8   c6.6,7,8.7,16.8,14.8,24c7.1,7.3,4.6,17.6,8.3,26.5c-3,4.4,0.5,10.5,0.7,15.4c16.4,61.3-0.7,125.5,13.4,186.7   c-19.2,16.5-13.5,27.2-43.3,18.8c2.3-11.5,1.5-23.9,0-35.9c0.6-20.9-0.3-41.5-6.4-61.6c-1.1-0.1-1.2,0.6-1.2,1.2   c-1.3,8.9-2.9,17.4-3.2,26.6c-8.9-27.2-38.3-82.3-23.7-108.6c4.7-10,21.9-18.2,16.2-30.4c5.4-3.1,11.9-2.7,17.1-6.5   c3.9-1.8,1.9-5.6-1-7.1c-7.1-4.3-15.7-2.2-22.9,0.8C696.4,127.4,691,137.9,681,139.5z M744.7,119.7c0.3,2.2,2,3.2,3.4,4.3   c2.5-0.4,0.7-2,1.4-3.3c0.6-0.2,1.2-0.5,1.7-0.7c5.3-9.4-7.7-22.8-11.9-9.1c1.1,3.3,2.9,5.9,5.9,7.2   C744.9,118.7,744.8,119.2,744.7,119.7z M738.5,89c-2.8-6.6-9.6-11.5-17.2-10.5c-6.5,6,4,6.9,6.3,10.7   C731.1,92.7,737.2,96.2,738.5,89z M752.8,231.1c4.8-4.3,6.4-19.9,1.5-24.4c-2.9,4.5-0.3,10.9-2,16.1   C752.3,225.4,750.3,229.2,752.8,231.1z M739.7,154.7c-2.4,3.2-2.1,23.6,0.6,26.7C743.8,178,743,158.2,739.7,154.7z M719.3,116   c-0.9-4.2-16.9,2-16.6,5.7C708.5,121.5,714.2,118.7,719.3,116z M737,78.6c0.8-2.3-10.1-5-11.3-3C728.2,77.5,733.4,80.2,737,78.6z    M738.7,185.4c-0.3,2.1-0.7,4,0.4,6C742.8,190.3,742,185,738.7,185.4z M756.7,129.8c-0.5-2.3-2.2-5.5-4.4-2.7   c0.8,1.4,0.6,3.5,2.9,4.1C755.6,130.7,756.1,130.3,756.7,129.8z M746.6,249.9c2.5-1.2,2-3.4,1.7-5.6   C745.8,244.8,744.1,248.7,746.6,249.9z M749.5,240.4c2.2,0,3.8-6.1,0.8-5.2C749.2,236.7,748,238.2,749.5,240.4z M745.2,258.4   c2.1-1.6,2.1-2,0.1-3.7C743.2,256.4,743.2,256.9,745.2,258.4z M737.8,196.5c-0.9,1.3-1.3,2.4-0.9,3.8   C739,201.3,740.4,196.9,737.8,196.5z M721,75.5c-1-1.3-3-2.5-3.8-0.4c0.9,0.6,1.7,1.1,2.5,1.6C720.1,76.3,720.5,75.9,721,75.5z    M702.5,123c-2.2-0.8-2.3-0.8-3,1.2C701.3,125.2,701.3,125.2,702.5,123z M735.5,208.4c-1.4,2.2-1.4,2.2-0.1,4   C736.7,210.7,736.7,210.7,735.5,208.4z M740.4,149c0.4-0.3,0.7-0.6,1-0.8c-0.3-1.1-0.5-1.9-1.7-1.9   C739.1,147.8,739.1,147.8,740.4,149z M695.8,127.8c1.4-0.1,2.2-0.5,2-1.9C696.2,124.7,695.4,126.3,695.8,127.8z M712,74.4   c-0.9-1.2-1.6-1-2.6-0.2C710.3,75.4,710.9,75.4,712,74.4z M691.9,131.3c0.5-0.9,1.2-1.5,0-1.9C690.5,129.4,690.9,130.6,691.9,131.3   z M705.4,74.8c1.2,1.1,2.3,0.2,1.4-0.9C706.3,74.1,705.9,74.4,705.4,74.8z" />
	<path fill="#2D8FB9" d="M213.3,355c3.9-10.6,9-20.5,9.7-32c70.4,1.1,134.8-44.7,205.4-27.8c0.5-0.4,1.1-0.9,1.8-1.4   c10.5,9.2,19.5,24.9,33.9,27.4c28.3,6.2,58.8-0.2,84.5-13c-0.4,15.8,3.7,35.3-4.9,49.2C433.7,361.4,323.6,355.2,213.3,355z    M375.6,303.6c1.5-1.2,3.6-2.5,1.3-4.4c-2.1,1.7-3.4,1.5-6.1,0.5C371.2,302.8,372.9,303.9,375.6,303.6c-2.1,1.1-5.2,1.5-7.7,2.2   c1.6-3.5,1-4.5-4-6c-1.3,2.7,1.2,5.7,4,6c-28.9,7.7-57.7,18.5-86.9,25.9c60.1,0.1,119.4,2.6,179.4,0.1   C438,311.3,405.6,300.9,375.6,303.6z M382.2,341.3c-0.3-0.9-1.1-1.3-1.8-0.9c-4,1.9-8.2,1.5-12.4,1.5c-3.1,0.7-8.8-1.6-10.6,1   C363,346,378.2,346.8,382.2,341.3z M542.9,326.9c-1-4.4-7.6-0.4-6.9,3c0.2,2.7,3.3,3.4,5.1,1.6c-0.7-0.8-1.4-1.4-2-2.1   C539.6,327.3,541.6,327.8,542.9,326.9z M515.2,337.7c5.1,0.6,6.8-0.3,8.3-4.1c-0.3-0.8-0.4-1.8-1.4-1.7   C519.8,333.9,517.8,335.6,515.2,337.7z M315.2,317.4c2.1,1.8,7.1,3.1,7.6-0.3C321,313.9,317,314.9,315.2,317.4z M319.1,342.7   c2.7,3.1,7.5,3.4,8.2-0.5C324.6,342.4,322.1,342.5,319.1,342.7z M340.2,344.5c0.6-1-0.1-1.7-0.8-1.5c-1.9,0.5-3.3-0.9-5,0.2   C336.2,345.1,336.3,345.2,340.2,344.5z M307.8,345.3c2.5,1.2,4.4-1.7,1.4-2C308.3,343.5,307.6,343.9,307.8,345.3z M288.3,343.4   c1.8,1.5,3,1.2,4.3-0.5C290.9,342.5,289.7,342,288.3,343.4z M513.8,335.1c-1,0.4-2,0.3-2.1,1.5c1.9,0.9,2.6,0.8,3-0.3   C514.5,336,514.3,335.7,513.8,335.1z" />
	<path fill="#4B65C5" d="M534.5,252.4c3.7-1.8,7.4-3.7,11.1-5.5c0.2-0.6,0.5-1.2,0.7-1.8c5-0.1,8.7-3.6,13.2-5.6   c-0.2-0.6-0.4-1.1-0.5-1.6c0.5-0.1,1-0.2,1.7-0.3c-0.5-1-0.8-1.8-1.1-2.6c3.6-7.6,1.9-17.7,2.6-26.2c1.6,7.7,1.5,16.1-0.3,23.8   c0.7,0.6,1.1,1,1.6,1.3c0,3.5,0,6.9-2.5,10.2c5.9,0.5,4.6-6.9,5-10.7c1.4-18.4,5.1-36.3,3.8-55c2-5.2,6.4-10.8,6.9-16.2   c1.1-0.7,1.7,0,1.4,0.5c3.6,22-1.2,44.4-2.9,66.8c6.6-2,11.3-7,17.6-9.1c-1.2,5.1-4.1,10.1-7.4,12.7c6.1,3.2,10-14.9,12.6-19   c0.1,0.4,0.2,0.7,0.2,1.1c6.5,0,8.1-29.7,14.8-36.4c0.9,8.9-1.7,17.9-1.8,26.7c42-30,26.8-32.1,47-71.8   c-1.8,14.1-5.8,26.9-9.9,40.8c6-4,11.3-7.8,16.7-11.4c0.1-1.4,0.3-2.5,0.4-3.9c0.7,0.4,1,0.6,1.4,0.8c-1.4,0.7-1.1,1.8-0.7,2.8   c2.5,9.3-1.6,18.5-1.7,27.7c-0.9,7-5.6,12.2-9.1,18.4c-5,1.6-9.4,3.1-14.2,5.4c1.3-8.8,2.2-17.4,4.8-26c0.2-0.8,0.2-1.5-0.8-1.9   c-6.6,7.4-6.8,19.8-6.1,29.7c-19.5,16.3-48,23.2-64.2,42.6c10.5-6.3,20.5-14.2,31.8-19.6c16.5-7.9,30.5-22.1,47.8-27.7   c-1.8,8.6-7.5,20.3-3.7,28.9c0.5-0.3,1-0.6,1.6-1c-2.3-9,2.3-18,4.6-26.6c2.9-6.7,12.7-6.4,18.4-9.8c0.1,0.1,0.3,0.1,0.4,0   c0.5,2.5-0.4,5.5,0.9,7.6c0.2,2.1-1,7,2.1,7.2c1.1,3,2.2,5.9,3.3,8.9c-10.2,12-26.8,14.2-40.7,20c-13.8,8.1-28.8,13.8-43.5,20.1   c-13.3,5.2-17.5,21.9-32.3,24.2c-0.2,0.5-0.4,1.1-0.6,1.7c-16.9,7-31.2,20.7-50.3,23.3c-32.5,4-60,6.4-81.5-23c1.9-2.1,3.6-4,5.4-6   c1-0.1,2-0.2,2.9-0.2c0.6,0.6,1.2,1.1,1.8,1.6c1.9-1.4,2.1-3.6,3.1-4.8c3.2-1.2,5-3.7,3-6.7c0.8-2.7,2.7-4.8,4.6-6.9   c-0.3-1-0.6-2-0.9-2.9c1.7-2.3,2-5.3,3.1-7.7c0.1,1,0.2,1.9,0.3,3c2.2,0.2,4.2,0.2,6.1,0c1-2.6,1.4-5,1.3-7.6   c5.7,7.1,10,15.7,16.6,22c-0.3-5.8-6.9-9.6-9.1-15l0.2-0.2c0.6,0.5,1.2,0.9,1.9,1.5c8.2-1.5,17.1-0.2,25.4-0.6   c1.1-0.8,1-1.7,0.7-2.5c-3-8.6-5.1-18-2.5-26.9c8.5,7.8,10,19.7,16.5,28.6c-2.1,0.1-2.7-2.7-4.7-2.9c-1,0.8-0.6,1.5,0,2.2   c-2.1,6.8,1.5,12.5,4.7,18.3c-0.3,0.5-0.6,0.9-0.9,1.3c-6.5,1.1-12.9,1.3-19.4,0.2c-3.2-4.9-1.6-12.4-5.4-16.4   c-1.3,5.5,1.8,10.5,2.9,15.8c-6.9,0.4-13.8-1.6-20.5-3c-1.7-4.1-2-8.4-4.9-11.9c-1.3,1.5-0.3,2.7,0.2,3.6c0.6,2.9,0.1,5,1.2,7.9   c-2.7,0.1-7.2-2.5-8,1.2c2.6,2.5,7.2,0.5,9.8,2.7l0,0c1,3,1.9,5.9,3.8,8.5c4.8,8.4,8.9,20.7,18.3,25.1c4.6-2.9-2.2-5.6-4-7.8   c-4.6-3.3-7-8.5-10.3-13c0-0.6-0.5-1-0.8-1.4l0,0c-0.3-0.5-0.5-1-0.8-1.5l0,0c-1.5-2.5-2.5-5.1-3.7-7.8c0.3-0.7,0.6-1.4,1-2.2   c6.7,0.7,16-0.8,21.1,3.8c3,7.9,11.4,24,18.8,27.1c-5.8-9.2-14.1-17.7-17.3-28.6c6.9,1.2,13.7,0.3,20.5-1.2   c0.2,0.4,0.5,0.8,0.8,1.2c0,0.7,0,1.3,0.9,1.5l0,0c0.2,0.3,0.5,0.6,0.7,0.8l0,0c0.3,2,1.1,3.7,3.1,4.6l0,0   c-0.1,2.8,3.3,3.2,4.6,5.3c1.3,2,1.4,2,3,0.2c3.2-2.5-0.1-7.3-0.1-10.7c0.7-3.7,5.8-2.8,7-5.7c0.2,0,0.4,0,0.6,0   c1,2.3,3.4,0.5,4.7-0.5c2.1,1.4,4,2.7,6,4.1c0.1,2,0,4.2,1.7,5.3c1.6,1,2,3.4,4.6,3.6c0.6-0.5,1.5-1.2,2.2-1.9   c-0.3-0.8-0.4-1.4-0.7-2.1c0.6-0.7,1.1-1.6,1.6-2.5c-1.1-2.6-2.1-5.1-3.1-7.2c1.3-2.3,3.1-3.4,2.7-6c-1.8-0.1-3.4-0.2-5.1-0.4   c-2.2-5.5-2.2-11.4-7.8-15.1c-1.2,0.3-4.1,1.7-4.7,0C537.1,254.3,535.1,253.9,534.5,252.4z M666,218.1c-1.8,3.5-8.2,14.5-2.2,15.9   c2-2,1.2-5.5,2.2-8.1c0.9-6.7,8.5-10.9,8.7-17.2c-4.7,2-8.6,5.2-11,9.7C664.6,218.4,665.3,218.3,666,218.1z M546.9,245.4   c5.3,7.6,10.7,14.4,17.5,20.6C561.9,258.6,550.7,248.2,546.9,245.4z" />
	<path fill="#E4E4EB" d="M714,335.7c2.8,6.9,6.2,13.3,11.3,18.8c4.1,5,8,18.7,16.3,13.6c20.6-11.2,26.5-38.6,49.7-45.4   c17,25.9-10.4,29.2-7.7,41.9c7.6-3,13.3-8.2,17.3-15.5c1.8-0.2,3.6-0.5,5.5-0.7c-26.3,25.4-9.1,28.4,3,2.2c2,0.7,3.6,2.2,5.5,3.4   c-2.7,5.7-7.3,9.8-10.1,15.3c2.2,10.6,13.3-8,14.4-12.3c2.3,1,4.3,2.2,6.2,3.4c1.1,5.2-10.2,9.3-3.9,13.7c4.3-2.5,6.2-6.7,7.8-11.4   c3.1,0.3,5.2,2.5,7.7,4.4c-8.3,10.2,1.9,15.4,7.2,4.2c8.8,3.3,21.4,12.1,30,4.9c2.9,0.3,9.7-0.1,11,3c2.2,5.1,3.3,11.1,2.9,16.6   c-21.7,13.5-48.1,19.7-73.2,16.5c-12.5-1.3-21.4-11.9-33.4-14c-6.8-17.9-28.2,12.1-42,10.5c-13.7,1.6-27.2-5-39.9-9.3   c7.3-20.4,11.7-42,11.7-63.4C712.3,335.8,713.1,335.8,714,335.7z M770.8,354.6c2.2,0,2.2,0,2.4-1.9   C771.9,352.6,771.4,353.5,770.8,354.6z" />
	<path fill="#FBDFD3" d="M121.4,255c-2.1,1.9-3.1,4.5-4.7,6.6c-0.9-1.3-1.4-2.9-3-3.7c2-0.2,1.6-2.6,2.2-4l0,0c3,0,1.1-4.8,1.5-6.8   c-1.8-4.6-6.6-6.3-8.3-0.7c0.2,0.9,0.4,1.8,0.4,2.2c-1,1.3-1.7,2.3-2.6,3.4c-1.4-1-3-0.7-3.9-1.9c0.2-1.1,0.4-2,0.5-2.9   c-3.4-2.8-4.6,5.1-7.3,6.8c-5.3-9.2,13.2-10.9,14.3-17.9c-1.5-1.9-3.6,0.5-5.2-1c0-2.4,4.2-6,1.1-7.6c-2,0.1-1.8,2.3-3,3.2   c-1.1,0.8-2.2,1.6-3.7,2.7c-19.6,1.2-32-17.4-47.1-26.1c-1.7-0.2-2.5-1.6-2.9-3.2c0.5-4.3-1-7.9-3.5-11.3c-0.8-3-1.2-6.2-4.4-7.9   c0.1-1.7-0.2-3.3,0.1-4.9c9.6,3,20.3-13.4,29.3-7.5c2.6,2,5.4,1.9,8.2,0.4c10.3-5.1,23.6-25.1,26-3.3c-1.4,1.1-2.3,1.9-3,3.8   c5.9,3.7,10.7-4,5.5-8.2c11.7-4.7,8.4,4.7,14.8,8.9c2.6,0.9,3.1,0.6,3.6-2.3c0.8-2.4-1.7-3.8-2.9-5.5c1.1-2.1,3.1-1.8,4.6-2.4l0,0   c0.2,0.9,0.9,0.8,1.6,0.7c9.3,5.2,23.4-16.6,22.9,21.5c-4.2,11.3-5.2,25.5-11.2,36.6c-4.6,10.6-0.8,6.5-9.5,14.6   c-4.4,1.7-3.6-1.3-6.8-1.1c0,0.8-0.1,1.8-0.1,2.8c-0.8,0.5-1.6,1-2.6,1.6c1,1.7,1.8,2.9,2.8,4.5C123.9,248.4,122.6,251.7,121.4,255   z M113.7,221.3c0.2-3.7,5.5-6.6,2.6-9.4c-3.8,0.9-2.3,5.3-3.7,7.5C106.9,223.6,111.8,228.8,113.7,221.3z M66.9,178.5   c-4.4,5.8-0.5,21.1,3.8,26.4c2,0.7,4,5.4,6.1,2.7c-0.4-2.1-0.2-4.9-2-6.6c-5.9-5.5-1.9-14.3-3.6-21.2   C69.9,178.7,68.7,178.2,66.9,178.5z M82.4,197.2c3.7-2,1.2-4.1,0-6.4c1.8-3.6,0.6-7.7-3.2-9.5c-0.7,0.5-1.2,1-1.8,1.4   c-0.7-0.4-1.5-0.8-2.3-1.3c-0.5,0.7-0.8,1.2-1.1,1.5C75.9,188.4,77.8,193.7,82.4,197.2z" />
	<path fill="#B7BDD5" d="M282.4,283c0.1,0.4,0.2,0.7,0.3,1.1c7.4-0.3,15.5-3.3,22.9-4.7c11.4-6.5,24.6-7.8,36.7-11.7   c14.2-13,31.2-17.6,49.4-23c-1,1.3-1.7,2.1-2.4,3.1c1.1,0.7,2.1,1.3,3.1,1.9c-1.4,4.1-7.9,4.3-9.2,8.7c2.8,6.2,9,4.5,14.3,4   c13.2-0.2,26.7-1.8,39.8,1.5c0.7-0.3,1.2-0.5,1.8-0.8c-1.4,7.1-2,13.7-3.8,21c-1.2,1.1-3.6,1.2-4.6,3.4c0.2,0.4,0.4,0.8,0.8,1.4   c-7.6,1.5-15.5-3.2-23.3-2.9c-16.1,0.6-31.8,2.9-47.7,1.9c-32.2,8.9-62.1,22.9-95.9,25.1c7.1-8.6,14-17,19.3-26.9   c-0.9,0-1.5,0-2.1,0C281.6,285,281.6,283.9,282.4,283z M352.3,279.4c0.9,1.3,3.2,2.1,3.8,0.2C355.9,277.8,353,277.8,352.3,279.4z    M361.1,282.4c1.8,0.8,3.8,3.4,4.5,0.9C364.5,282.3,363.5,281.3,361.1,282.4z" />
	<path fill="#E4E4EB" d="M629.2,270.7c2.5-0.5,10.3,4.5,10.5,7.6c5.5,0.5,7.1,7.1,12.4,7.6c9.9,3.4,19.9,3,26.8-5.8   c0.7-5.1,1.1-13.9-5-15.6c-0.9-1.5-2.4-2.8-2.6-4.9c2.4-0.1,4.6-0.3,6.9-0.4c7.3,5.6,2.7,20.7,9.8,18.9c5.5,3.5,10.4,8.2,16.7,10.3   c0.5-0.5,0.9-1,1.5-1.6c1.1,0.1,2.1,0.4,3.3,1c2.6,11.8,5.1,23.8,6.2,35.8c-9.6-0.9-19.3-5.5-28.4-5.6c-16,11.7-28.9,19.1-49.5,13   c-2-2.9-5.2-3.7-8.5-4.7C635.1,308.4,634.3,288.5,629.2,270.7z" />
	<path fill="#EECABA" d="M681,139.5c10.1-1.6,15.4-12.1,24.8-15.3c19.2-9.9,41.5,6.3,9.1,11.4c0.2-0.6,0.5-1.3,0.8-2.3   c-2.1,0.2-2.6,0.1-3.3,2.1c1.1,0.1,1.8,0.1,2.5,0.2c-0.7,0.4-1.4,0.9-2.2,1.4c5.7,12.2-11.5,20.4-16.2,30.4   c-14.6,26.3,14.7,81.3,23.7,108.6c0.3-9.3,1.9-17.7,3.2-26.6c0-0.7,0.1-1.3,1.2-1.2c6.1,20.1,7,40.7,6.4,61.6   c1.5,12,2.3,24.3,0,35.9c-4.8-1.8-10.7-1.6-11.9-8.1c-0.2-12.7,2-25.7-1.1-38.3c-3.6-33.5-32.7-58.4-36.6-91.2   c0.1-2.8-0.1-2.8-2-4.8c1-7.8-0.7-18,5.8-23.6c-0.7-0.6-1.3-1.1-2.1-1.8c5-15.8,15.7-28.7,28.5-39.3c-1.9-1.1-3.3-0.3-4.4-0.5   c-6.7,4.4-12.8,9.2-18.3,14.7C686.1,148.3,683.5,143.9,681,139.5z M727.6,326c-2.2,4.4-0.8,9-1.3,13.7   C731.8,347.5,732.1,327.9,727.6,326z M727.6,310.9c2.6-1.4,2.2-5.9-1-5.1C726.2,307.5,725.7,309.2,727.6,310.9z M727.2,324.9   c2.9-1.6,2.9-4.5,1-7.3C727,319.9,727.2,321.9,727.2,324.9z M725.8,297.2c2.6-0.5,1.7-7.9-1.1-5.2   C724.7,293.6,724,295.6,725.8,297.2z M721.2,131.3c-1.3-1.7-3.2-1.4-3.2,0.3C718.8,133.3,719.9,132,721.2,131.3z" />
	<path fill="#2D8FB9" d="M135.7,327.3c-0.5,7.3,1.6,15.1-2.3,22c-19.7-2.4-39.5,0.5-59.2-1.3c-8.9-16-10.9-32.7-7.6-50.4   c9.1-0.4,18.3-0.5,25.6-6.8c1,0.5,1.8,1,2.5,1.4c12.7-7.3,28.4-8.4,40.1-16c2.5,7.3,3,15.3,4.8,22.8c-6.8-1.5-14.5-6.4-21.4-3.5   c-14.5,8-29,15.7-43,24.6C95.3,323.4,115.9,327.9,135.7,327.3z M76.9,301.7c-4.4-4.4-7.5,8-3.5,10   C75.3,308.4,75.4,304.9,76.9,301.7z M77.5,316.6c-1.1-0.5-1.3-0.7-2,0C76.1,317.7,76.1,317.3,77.5,316.6z M76.1,322.2   c0.5,0.2,0.8,0.3,1.1,0.4C77.9,321.4,76.8,321,76.1,322.2z" />
	<path fill="#EECABA" d="M157.8,234c1.4,14.6-10.4,29.6-2.6,43.7c3.2-3.6,7-6,11.8-6.8c16.9,5.1-14.2,29.8-13,42   c-5.9,18.6-4,33-16,50c0.7,0.2,1.1,0.3,1.6,0.4c-2.5,1.6-5.8,2.9-6.7,6c0.3,0.6,0.4,1.1,0.6,1.5c-39.2,29.4-28.7,81.7-54.5,88.6   c0.6-3-2.8-3.8-4.8-5.5c5-11.6,15.1-20.1,20.4-31.7c3.9-12.7,8.1-25.6,13.7-37.8c6.1-13.2,23.3-15.4,28.4-30.4   c-0.4-1.3-0.7-2.4-1.1-3.6c5.6-6,4.4-15.6,5-23.2c-1.9-8.6,9.2-30.9,5.3-32.7c-0.7,0.7-1.4,1.4-2.2,2.2c-2.2-1.6,0.1-4.5-1.7-6   c-0.2-0.2-0.2-0.4-0.1-0.6c-0.2-1.5,0.5-2.7,1.4-3.6c-0.5-1.6,0-3.4-1.5-4.2C136.7,262.5,145.9,247.8,157.8,234z M147.9,291.3   c0.8-1.9,2.1-3.1,1.3-5.4c-2.1,1.1-5.6,4.8-3.7,6.9c0.7-0.1,1.5-0.2,2.2-0.3C147.8,292,147.9,291.7,147.9,291.3z M154.2,282.2   c-0.3-1.1-2-0.8-1.9,0.3C152.5,283.5,154,283.3,154.2,282.2z" />
	<path fill="#CFCFDD" d="M714,335.7c-0.9,0.1-1.7,0.1-2.8,0.2c0,21.4-4.4,43-11.7,63.4c12.7,4.3,26.2,10.9,39.9,9.3   c13.9,1.6,35.2-28.4,42-10.5c12,2,21,12.7,33.4,14c25.2,3.2,51.6-3,73.2-16.5c0.1-1.2,0.2-2.5,0.3-3.7c0.6,2.8,1.3,5.6,2,8.7   c-3.7,2.7-7.4,5.4-11,8.1c0.5,0.3,0.9,0.6,1.7,1.1c-10.4,5.9-21.1,14.4-33.5,14c-13.3-0.5-26.8,1.1-39.9-1.8   c-9.5-5.1-20-8.6-31-10.4c-8.9-2.8-16.4,4.6-25,6.1c-20,2.8-42.9-0.5-60.5-10.8c7.9-10,8-22.9,12.3-34.9c0.6-3.3,1.2-6.4,3.7-8.9   c3.3-3.7,1.4-8.4,2.2-12.8c0.8-5.2,1.1-10.1,0.9-15.4C711.7,335.1,713.3,334.2,714,335.7z" />
	<path fill="#5876E8" d="M518.4,119.6c-0.2-0.6-0.5-1.1-0.8-2c6.7-5.4,12.8-14,21.8-15c10.3-9.6,23.8-13.8,35.3-21.7   c7.3,5.7,16.2,9.7,21.9,17.5c-10.6,8.2-20.9,16.5-30.2,26.3c-0.5,0.1-1,0.2-1.4,0.2c-0.6-0.5-1-1-1.5-1.6l0,0   c-0.2-0.3-0.5-0.5-0.7-0.8l0,0c-3.5-5.4-2.4,1.8-6.3-7.9c-1.7,4.3-2.3,7.8-2.4,12.2c-0.5,0.1-0.9,0.2-1.3,0.3   c-3.7-5.8-4.8-12.7-9.4-17.8c1.9,9,6.4,16.2,10,24.6c-1.5,0.3-2.8,0.5-4,0.7c-2.3-5.1-1.8-11.6-5.6-15.6   c-1.3,8.3,5.7,17.6-1.1,24.9c-3.3-1-3.2-7.4-6.7-8.4c0,0,0,0,0,0c-2.9-6.4-9.7-16.6-16.2-18.5c5,6.3,12.5,11,13.1,19.6   c-0.4,0.3-0.6,0.5-0.8,0.6l0,0C527.2,131.6,523.5,125.1,518.4,119.6z" />
	<path fill="#EECABA" d="M218.3,306.7c0.8-1.1,0.5-2.2-0.1-3.3c1.6-2.1,0.7-6.6-2.2-6.5c0-1.1,0-2.2,0-3.2c-0.9-0.6-1.6-1.1-2.3-1.6   c2.5-0.5,2.2-1.8,2-3.6c0.5,0.1,1,0.3,1.5,0.4c0.7-0.6,1.5-1.3,2.2-1.9c20,3.5,39-1.6,59.3-1.6c-12.6,33.8-26.5,28.1-55.8,33.5   c-1.2-4.3-1.1-7.9-2.8-12.1C219.5,306.7,218.9,306.7,218.3,306.7z" />
	<path fill="#40A6CA" d="M135.7,327.3c-19.9,0.6-40.4-3.9-60.4-7.2c14-8.9,28.5-16.6,42.9-24.6c6.9-2.9,14.5,2,21.4,3.5   C143.3,307.6,136.1,318.1,135.7,327.3z M125.1,305.9c0.6-0.2,1.3-0.5,2.1-0.8c-0.5-2.1-0.6-4-0.1-5.9   C123.8,296,122,304.1,125.1,305.9z M115.2,325c1.4-1.4,4-2.1,1.6-4.4c-1.3,0.3-2.6,0.6-4,1c0,0.9,0,1.6,0,2.4   C113.7,324.3,114.3,324.6,115.2,325z" />
	<path fill="#EECABA" d="M258,232.5c-0.9,0-1.8,0.3-2.2,1.2c-4.8,8.4-11.1,14.8-20.7,18.3c-3,4.5-5.5,9.1-10,12.1   c-0.2,2.9,0.3,5.7-1,8.3c-0.2-0.1-0.4-0.1-0.6-0.2c-0.6-1.4-1.3-2.8-2.2-3.9l0,0c-0.2-1.9-0.1-3.9-1.6-5.4c-0.4-1.7-2.3,0-1,0.9   c0,1.3,1,2.4,0.1,3.9c-0.3,0.4,0.5,1.5,0.8,2.3l0,0c0.3,1,0.6,2,0.9,3c0,0,0,0,0,0c0.2,1.3,0.5,2.6,0.7,3.9l0,0c0,1.5,0,3,0,4.6   c-0.2,0.2-0.2,0.3,0,0.5c-0.2,0.1-0.4,0.3-0.6,0.4c-0.1-1.1-0.1-2.3-0.2-3.4c-9.9-9.8-1.9-21.6-18.4-26.9   c-8.8-10,22.8-21.6,29.6-22.5c1.7-2.1,3.3-4.1,5-6.1c1.7,0.5,3.5,0.8,4.7,2.2c1,1,1,0.9,1.5-0.6C248.3,226.4,253.6,229,258,232.5z    M231.5,246.7c2.1-1.6,3.3-4.4,1.2-6.4c-1.9,0.7-1.6,2.7-2.7,3.7c-7.6,1.3-12.8,13.5-7.6,19.9c1.3-1.7,0.2-3.4,0.6-4.9   C229.4,256.9,232.5,252.5,231.5,246.7z M240.1,237.5c-1.1-2.9-4.4-0.1-4.8,2.1C237.2,241.1,239.5,239.6,240.1,237.5z M247.6,229.2   c-3.2-0.8-3.4-0.6-4.7,1.9C245,232.2,246,231.8,247.6,229.2z" />
	<path fill="#CFCFDD" d="M629.2,270.7c5.1,17.8,5.9,37.7,0,55.4c3.2,1,6.5,1.8,8.5,4.7c20.6,6.1,33.5-1.3,49.5-13   c9.1,0.1,18.9,4.7,28.4,5.6c0.2,1.9,0.4,3.7,0.7,5.9c-12.2,0.8-25.6-8.4-36.7-0.5c-18.3,10.8-41.5,14.3-60.4,3.3   c5-10.6,5.9-21.9,5.7-33.4c7.1-7.6-0.5-18.8,2.2-27.8C627.8,270.9,628.5,270.8,629.2,270.7z" />
	<path fill="#FBDFD3" d="M167.9,198.9c4.7,0.7,9.4,1.4,14.5,2.2c-4.8,4.2-10.3,6.7-13.9,11.5c2.4,2.1,17.2-11.6,21.7-13.4   c6.4-2.2,12.9-4.8,15.4-12c14.6-5.7,27.6-15.4,42.6-19.5c-4.8,12.4-17,16.6-27.8,22.4c-16.1,9.8-32.2,19.4-48.6,28.7   c-2.8,2.1-6.2,2.2-9.5,2.4c-1.3,1.4-2.4,2.6-3.5,3.8c-1-0.1-1.9-0.2-3.1-0.3C160.8,216.5,163.9,207.4,167.9,198.9z" />
	<path fill="#FBDFD3" d="M578.4,78.4c14.2-12.3,44.5-20,53.2,2.1c-11.7,4.7-22.2,10.3-33,16.9C592.7,89.9,586.7,83.3,578.4,78.4z    M616.3,72.4c1.5,1.9,3.9,5.1,6.1,3.7C621.3,73.8,618.9,72,616.3,72.4z M614.9,73.3c-1.9-0.2-3.4-1-4.8,0.6   C612.9,75.3,613.9,75.2,614.9,73.3z" />
	<path fill="#EDCABA" d="M167.9,198.9c-4,8.5-7.1,17.6-12,25.8c1.1,0.1,2.1,0.2,3.1,0.3c-0.7,2.2-3.1-0.4-4.1,2.1   c-2.5,1.7-7.9,1.9-7.3,5.9c0.6,0.1,1.3,0.2,2,0.3c0.6,1.2,1.4,2.3,2.4,3.1c-4.8,4.5-8.7,9.7-12.4,15.2c0.2-3.6,2.1-6.1,3.2-9.7   c-3.8,1.8-6,4.6-8.6,7.3c0.3,3.2-1.1,6.1-0.7,9.3c-2.6-1.4-2.6-1.4-7.4-1.7c1-4.8,5.3-8.5,4.1-14c1.3-1.3,2.9,1.6,4.4,0.2   c6.3-3.1,9.6-10,10.8-16.7c1.3-4.2,7-14.6,5.2-17.9c-1.6,0.5-1.9,2-2.4,3.2c-1.6,5.8-5.7,11-5.7,17.1c-2.7,3.5-6.1,7.8-10.6,8.6   c8.8-8.2,4.8-3.9,9.5-14.6c6.1-11.2,7-25.4,11.3-36.6c0,1.6-0.2,3.3,1.3,4.3c0.4,2.1-0.5,4,0.5,5.9   C158.7,198.5,163.8,196.8,167.9,198.9z M152.4,199.7c0.8-1.4,0.8-4.8-1.4-3C150.1,198.1,149.8,200.3,152.4,199.7z M146.9,224.9   c0.6,0.7,1,1,1.3,1.4c1.3-0.7,1.6-1.5,0.7-2.9C148.3,223.8,147.8,224.2,146.9,224.9z" />
	<path fill="#EECABA" d="M45.6,474c0.8-0.7,0.8-0.7,1.9-0.6c0.2,0.6,0.5,1.1,0.8,1.8c3.8,0.4,8.9,0.8,9,5.9   c3.9,2.9,8.7,0.5,11.9,4.8c-7.2,9.1-23,0.8-33,3.5c1.8,6.6-2.3,11.9-6.6,16.4c-0.4,5.7-0.3,11.4-1.9,17c6.7,0.3,11.8,6.6,18.6,4.3   c-0.5-1-0.9-2-1.3-2.9c3.3,1.2,2.5,4.6,1.5,7.2c-7.6,4.5-16.5,0-22.1-6.4c-2.8-32.7,8-15.7,6.3-40.6c2.7-1.4,6.5-3.6,5.2-7.3   c1.9-2,1.9-4.3,1.4-6.7l0.2-0.2c1.3,0.9,0.3,2.4,1.1,3.6C40.7,474,43.1,475.6,45.6,474c-0.6,1.5-1.8,2.7-1.5,4.4   c2.7-1.2,3.2-2,2.6-4.4C46.4,474,46,474,45.6,474z M42.9,481.2c-3,1.3-6.2,1.2-8,3.1C37.3,487.4,41.9,484.9,42.9,481.2z" />
	<path fill="#5775E7" d="M463.5,254.7c0.1,2.5-0.3,5-1.3,7.6c-1.9,0.2-3.9,0.2-6.1,0c-0.2-1.9-0.4-3.7-0.3-5.6   c-0.2,0-0.3-0.1-0.5-0.1c-0.9,1.9-1.8,3.9-2.7,5.8c-3.2-1.1-7.1-0.2-9.9-0.9c3.2-11.7,6.1-23.4,8.8-35.2c3.1-0.5,8.4,1.8,9.6-1.8   c-3-0.5-6,0-9.2,0c1-9.9,3.3-19.4,3.9-29.3c0.3,0,0.5,0,0.8,0c0.1,1,0.2,1.9,0.3,2.9c1.7,0,3.2,0,4.8,0c0-1.2,0-2.3,0-3.6   c-1.8,0-3.5,0-5.1,0c1.5-1.6,4.2-0.5,6.2-0.8c1.2,1.3-0.9,2.8,0.3,4.5c0.7-0.6,1.3-1.1,1.8-1.6c-0.3,0.9-0.5,1.7-0.8,2.6   c-2-0.1-4.1-0.7-6.2,0.5c0.4,0.4,0.6,0.7,0.9,0.9c0,0.2,0,0.5,0.1,0.7c-0.9,0.3-1.9,0.6-2.9,1c0,6.7-2,13.1-2.9,19.7   c2.5,0.9,5,0.7,7.3,1.4c1.2-1.4,1.2-3.1,3.3-3.1c0.9,1.8,1.9,3.6,2.8,5.5c-0.7-0.3-1.4-0.6-1.8-0.8c-0.5-1.4-1-2.5-1.5-3.9   c-1.8,2.2-1.3,4.3-1,6.4c0.7,0.1,1.3,0.2,2.1,0.3c1.7,2.4,3.5,4.8,5.3,7.3c-1.4,4.7-2.5,10.5-5.3,14.4   C460.8,246.2,462.5,253.2,463.5,254.7z M452.7,245.6c2.6,2.3,6.6-2.1,3.5-4.5c-1.8,0.3-3.6,0.6-5.5,0.8c1,2.6,3.7,0.1,5,1.9   c-1.2,0.4-2.7-0.4-3.9,1C452.2,245.2,452.5,245.4,452.7,245.6L452.7,245.6z M457.6,237.2c-2,0.3-4.5-0.7-6.4,0.7   c1.8,1.7,4.5,0.7,6.5,1.8c0.3,0.6,0.6,1.3,0.8,1.9c3.8-0.6,1.3-6,1.7-8.8C458.1,233.6,459.3,235.8,457.6,237.2z M451.5,233.7   c0.1,2.8,4.9,2.4,6.6,0.6C455.8,234,453.9,233.9,451.5,233.7z M456.2,251.1c-1.4,1.8-1.4,1.8-0.2,3.6   C457.7,253.2,457.7,252.9,456.2,251.1z" />
	<path fill="#FBDFD3" d="M640.8,253.9c0.4,0,0.7,0,1.2,0c0.3-0.8,0.7-1.6,1.1-2.7c5.5-1.9,11.1-3.9,16.9-5.9   c3.8,7.7,6.9,14.6,11.2,22c-5.4,7.8-16.4,8.9-25.1,7.8c-2.3-5-2.9-10.9-4.9-16.2C641.2,257.3,639.2,255,640.8,253.9z M643.9,256   c-0.4,2.3,0.6,3.4,2.2,4.4C647.9,258.6,645.9,256.6,643.9,256z" />
	<path fill="#4B65C5" d="M666.8,159.9c0.4,0.3,0.9,0.5,1.5,0.9c4.1-4.5,11.9-6.4,14.6-11.6c1.3,2,2.5,4,3.9,6.1   c-1.5,3.7-12.1,12.8-4.9,14.4c-1.6,10.4-7.3,16.7-15.1,23.2c-1.4-0.8-0.8-2.1-0.6-3.1c1.5-9.9,5-20.2,0.5-29.8L666.8,159.9z" />
	<path fill="#B7BDD5" d="M435.2,210.4c-2.8,3.2-8.6,0.6-11.5,3.2c-1-0.1-2-0.5-2.9,0.3c0,0.3,0,0.7,0,1.1c-0.5-0.4-0.9-0.8-1.7-1.5   c-3.8,0.5-8.4-0.8-12.3-0.4c-3,0.9-4.3-0.3-4.3-3.8c0.7-0.4,1.4-0.8,2.3-1.3c15.7,2,30.3-10.4,46.5-10.6c-0.6,4.9-0.9,9.9-2.2,14.8   c-0.1-0.5-0.3-0.9-0.5-1.6c-4.3-0.1-8.6-0.2-12.8-0.3c4-1.6,10,1.1,13.1-1.6c-2.8-3-20.5-2.1-22.3,2.6   C429.8,211,432.5,210.7,435.2,210.4z" />
	<path fill="#020205" d="M654.3,212.7c0-0.4,0-0.7-0.1-1.4c-17.2,5.6-31.2,19.8-47.8,27.7c-11.3,5.5-21.3,13.3-31.8,19.6   c16.2-19.4,44.6-26.3,64.2-42.6c-0.7-9.9-0.5-22.2,6.1-29.7c1,0.4,1,1.1,0.8,1.9c-2.5,8.5-3.5,17.1-4.8,26   c4.8-2.3,9.2-3.8,14.2-5.4C655,210.1,655.9,212.3,654.3,212.7z" />
	<path fill="#050404" d="M96.2,254.1c2.7-1.7,3.9-9.5,7.3-6.8c-0.2,0.9-0.3,1.8-0.5,2.9c1,1.2,2.5,0.8,3.9,1.9   c0.9-1.2,1.6-2.2,2.6-3.4c-0.1-0.5-0.3-1.3-0.4-2.2c4-9.7,10.8,2,6.8,7.4l0,0c-0.8-0.5-1.7-0.9-2.5-1.4c-3.7,2.5-7.7,2.6-11.6,0.7   c-2.6,2.1-3.4,3.3-4,5.3c1.7,0.4,3.4,0.7,4.7,1c3.7-3.1,6.8-4.1,11.4-4.8c0.2,0.6,0.4,1.1,0.5,1.7c-3.4,1.3-6,2.2-8.6,4.9   c1.1,0.8,2,1.5,3.1,2.3c1.7-1.4,3.3-2.7,4.9-4.1c0.4,0.3,0.8,0.5,1.1,0.7c-1,3.4-3,4.7-5.4,7.7c1.6-0.3,2.4-0.4,3.2-0.6   c-6.4,6.9-14.5-1.8-21.5-3.3c-0.4-1.1-0.8-2.2-1.3-3.3c0,0-0.3,0-0.3,0c0.2-1.2,0.1-2.5-1.4-2.3c1-0.7,1.5-1.8,2-2.9   c1.4,0.4,1,1.4,1.1,2.2c-0.9,0.8-0.7,1-0.4,2.3c0.5-1.2,0.4-1.3,0.4-2.3c0.6-0.4,1.1-0.9,1.7-1.4c-0.5,2.3-0.9,4.3-1.5,6.6   c5.1,1.9,10,6.2,15.5,4.6c0.1-2.2-2.2-1.7-3.2-2.7c-2.7-2.5-7.1-1.4-10.2-3.2C93.2,258.9,95.3,256.6,96.2,254.1z" />
	<path fill="#EDC9B9" d="M8.8,473.7c0.6,4,6,2.9,9.1,3.6c5.9-2.3,13.6-17.7,19.4-7.3l-0.2,0.2c-0.4,0-0.7,0-1.5,0.1   C38.5,486,3.2,491.3,8.8,473.7z" />
	<path fill="#EDC9B9" d="M46.4,531.3c0.3-0.9,0.6-1.8,0.9-2.6c0.6,0.4,1.2,0.8,1.7,1.2c2.1-1.4,1.6-3.5,1.1-5.5c0.6,0,1.2,0,1.8,0.1   c0.2,0.3,0.5,0.6,0.8,1c3-1,5.8-0.3,8.9-0.3c0.1,0.4,0.2,0.7,0.2,1c4.7,2.2,9.3,5.1,14.4,2.8c-1.3,2.7-3.5,4.3-6.4,4.6   c-6,6.2-16.3,6.2-21,0.2c-0.3-1.2,2.1-1.8,0.5-3.4C48.5,530.6,47.4,531,46.4,531.3z" />
	<path fill="#FDFDFD" d="M754.5,351.8c-3.9,5-8.7,8.4-12.9,12c-2,0.2-3.7,0.3-5.4,0.4c-3.7-3.3-8.8-11.1-10.7-16.7   C734.9,351.5,744.1,352.9,754.5,351.8z" />
	<path fill="#ECC9B9" d="M640.8,253.9c-1.6,1.2,0.3,3.4,0.4,5c2,5.3,2.6,11.2,4.9,16.2c1.5,0.1,3.1,0.2,4.7,0.3   c-2.5,0.2-5,0.5-7.4,0.7c-3.1-2.2-5.9-4.3-8.8-6.4c0.8-4.2-0.8-8.1-2.1-12.2C635.1,256.3,638.2,252.7,640.8,253.9z" />
	<path fill="#FCFCFC" d="M650.8,282.1c-0.9-0.9-2.1-1.5-2.7-2.8c9.5,0,18.6-1.4,26-8c0.4,0.7,0.8,1.5,1.1,2   C673,285.7,660.5,286,650.8,282.1z" />
	<path fill="#4A63C1" d="M660.8,204.4c4.5-6.4,9.9-11.9,15.7-17c0.4,1.5,0,8.8-0.7,13.3c-5,1.5-11,5.4-15.9,5.2l0,0   C660.2,205.4,660.5,204.9,660.8,204.4z" />
	<path fill="#4A63C1" d="M442.7,261.4c2.8,0.6,6.7-0.2,9.9,0.9c-0.4,1.6-1.7,2.9-1.3,4.7c-1.3,3.5-2.7,7.1-4,10.6   c-2.4,1.3-5.1-0.2-8-0.3c-0.2-1.7-0.1-4.1-0.9-5.7c0.8-2.2,1.5-3.8,2.7-5.6c0.2,0.5,0.4,1.1,0.6,1.7c2.8,0.2,5.9-0.6,6.4-3.8   c0.5-0.3,1.2-0.4,1.2-1.4c-1.5-0.1-4-0.8-5,0.7c-0.7,0-1.5,0-2.2,0C442,262.5,442.1,261.9,442.7,261.4z M444.1,268.7   c1.3,1.2,1.3,1.2,4.6-0.1C447.1,267.1,445.6,269,444.1,268.7z" />
	<path fill="#E8C5B5" d="M94.6,522.1c-0.4,1.7-0.8,3.4-1.3,5.4c-0.7,0.3-1.6,0.6-2.8,1.1c-3.2,4.9-8.2,6.3-14.1,5.8   c1.4-2.8,2.8-5.5,4.3-8.5c0.9-0.6,2.3-1.5,3.6-2.4C86.8,525.7,91.5,522.2,94.6,522.1z" />
	<path fill="#F6DCD0" d="M76.3,529c-5.1,2.3-9.7-0.6-14.4-2.8c-0.1-0.2-0.1-0.6-0.2-1c5-2,8.9-4.8,14.5-3.1   C77.6,524.2,78.1,527.1,76.3,529z" />
	<path fill="#4B64C4" d="M552.9,127.2c0.4-0.1,0.7-0.2,1.3-0.3c0-4.4,0.6-7.9,2.4-12.2c1.8,2,0.9,4.5,3.2,5.6   c0.2,0.8,0.5,1.5,0.7,2.3c-1.5,1.2,0,4.5,0.9,6.2c-1.6,2-3.1,3.4-5.5,4.4C554.9,131.1,553.4,129.4,552.9,127.2z" />
	<path fill="#0C0E1C" d="M552.9,127.2c0.4,2.2,2,3.9,3,6c1.1-0.6,2-1.1,3-1.6c0.4,0.4,0.7,0.7,1.1,1.1c-1.5,1.2-2.9,2.4-4.3,3.5   c-1.7,0.1-3.3,0.2-5,0.3c-0.8-0.5-1.5-1-2.4-1.6c0-1,0-2.1,0-3.2c0.4,0.9,0.7,1.8,1.2,3c1.2-0.2,2.5-0.5,4-0.7   c-3.6-8.5-8.1-15.6-10-24.6C548.1,114.5,549.2,121.4,552.9,127.2z" />
	<path fill="#F6DACE" d="M133.5,258.5c-0.4-3.2,1-6.1,0.7-9.3c2.5-2.7,4.7-5.5,8.6-7.3c-2.6,6.9-4.3,13.1-7.8,19.5   C133.5,260.8,133.7,259.6,133.5,258.5z" />
	<path fill="#07060D" d="M461.1,193.5c-0.7,0-1.4,0-2,0c0.1-0.4,0.1-0.7,0.2-1.2c1.4-0.2,2.7-0.3,4.1-0.5c0.5-1.4,0.7-2.6-0.2-3.8   c-2.4,0-4.8-0.4-7.2,0.5c-0.1,5.9,0.1,11.8-1.4,17.4c-0.2-8.3,1-16.5,0.8-24.7c0.5,1.5,0.8,3.1,0.7,4.7c0.3,0.2,0.5,0.7,0.8,0.7   c3.6-0.1,8.6,1.2,7.5-4.2c0.1-0.7,0-1.5,0.9-1.8c1.5,4.9,0.8,10.8-0.1,15.9c-0.5,0.5-1.1,0.9-1.8,1.6c-1.2-1.7,0.9-3.2-0.3-4.5   C462.2,192.6,461.7,192.9,461.1,193.5z" />
	<path fill="#0B0D1B" d="M518.4,119.6c5,5.5,8.8,12,13.7,17.6c0.3,1.8,2,2.8,3.5,3.8c1.4-2.5-1.9-3.8,0.5-5.5l0,0   c-0.1,0.7-0.1,1.3,0.7,1.6c0.4,0.8-0.3,1.8,0.7,2.3c0.5,13.6-18.4-16.5-20.7-19.1C517.9,120.7,518.6,121.1,518.4,119.6z" />
	<path fill="#161C35" d="M666.6,160.1c4.5,9.6,1,19.9-0.5,29.8c-0.2,1-0.8,2.3,0.6,3.1c-0.5,0.7-0.6,1-1.6,1   c-2.2-10.2,3.8-20.7,0.9-31.2C665.8,161.9,665.2,160.7,666.6,160.1z" />
	<path fill="#F0D7CB" d="M99.7,516.6c1-0.8,1.9,0.1,2.8,0.3c0.2,0.6,0.4,1.1,0.6,1.8c0.6-0.4,1.2-0.7,2.1-1.2   c0.9,0.6,1.7,1.3,2.6,1.9c0,6.2-6,5.6-10.1,3.8c0-1.3,0-2.4,0-3.4C98.4,518.6,99.1,517.6,99.7,516.6z" />
	<path fill="#211C19" d="M142.5,228.7c0-6.1,4-11.3,5.7-17.1c0.5-1.2,0.8-2.7,2.4-3.2c0.7,0.2,1,0.7,0.7,1.4   c-3.3,8.5-5.2,17.8-9.5,25.8c0-2.6,1.4-4.8,2.5-7.4C143.4,228.5,143,228.6,142.5,228.7z" />
	<path fill="#383939" d="M38.8,184.3c-5.8-7-7-17-16.6-21.1C29.4,161.2,40,178.4,38.8,184.3z" />
	<path fill="#E4BFB0" d="M99.7,516.6c-0.7,1-1.3,2-2.1,3.2c0,1,0,2.1,0,3.4c2.4,0.9,4.9,1.5,7.5,1.2c-1.7,2.5-4.1,4-6.3,5.9   c-1.7-0.2-3.1-0.5-4.8-0.7c2.5-3.2,3-6.8,2.7-10.8C97.8,518,98.7,517.3,99.7,516.6z" />
	<path fill="#DAC4BA" d="M112.7,267.5c-0.8,0.2-1.7,0.3-3.2,0.6c2.4-2.9,4.4-4.3,5.4-7.7c-0.4-0.2-0.7-0.4-1.1-0.7   c-1.6,1.3-3.2,2.7-4.9,4.1c-1.1-0.8-1.9-1.5-3.1-2.3C112.4,253.6,121.3,260.5,112.7,267.5z" />
	<path fill="#455EB9" d="M455.9,186c0.1-1.6-0.2-3.2-0.7-4.7c1.7-3.2,6.9,0,9.1-2.1c0.2,0,0.5,0,0.7-0.1l0,0c0,0.5,0,1-0.1,1.5   c-2.1,1.1,0.2,3.9-1.5,5.3C461,186,458.4,186,455.9,186z M463.1,183.3c-2.3-0.1-5.3-2.4-6,0.3C459.4,183.2,460.8,185.3,463.1,183.3   z" />
	<path fill="#424040" d="M42,180c-0.3,1.6-0.1,3.2-0.1,4.9c3.2,1.7,3.6,4.9,4.4,7.9c-0.5-0.2-0.9-0.4-1.6-0.8   c-1.1,1.3-0.2,2.6,0,4.2c-3.7-0.4-3.3-7.1-5.1-10C42.1,184.3,39.9,180.4,42,180z" />
	<path fill="#303131" d="M18.2,193.5c-0.1,1.8-0.2,3-0.3,4.6c-1.9-1.3-1.9-3.3-2.6-4.8c0.9-2.1,4.7-1.4,4.2-4.4   c-0.5-0.4-1.2-1-2.1-1.7c1.4-0.5,2.5-0.9,3.6-1.2c1.6,1,2.9,2,3.3,4C21.8,190.7,19.9,191.7,18.2,193.5z" />
	<path fill="#EAD5C9" d="M94.6,522.1c-3.1,0.1-7.8,3.6-10.2,1.3c0.3-0.8,0.7-1.6,1.1-2.7C88,520.3,95.7,516.9,94.6,522.1z" />
	<path fill="#0F1121" d="M659.9,205.9c3.9,0.6,8.7-3.1,12.9-3.9c0.5,1.2,1.6,0.6,2.4,0.8c-4.8,1.7-9.7,4.1-14.6,5.4   C660,207.5,658.1,206.5,659.9,205.9z" />
	<path fill="#0C1223" d="M448.3,282.3c-3,0.7-3,3.8-5.4,6c-0.6-0.6-1.1-1-1.8-1.6c-0.9,0.1-1.9,0.1-2.9,0.2c2.4-2.4,4.8,1,4.6-4.8   c0.4,0.2,0.8,0.4,1.5,0.7c0.3-0.9,0.6-1.7,0.8-2.4c-1-0.4-1.7-0.8-2.5-1.1c1.1-0.1,1.7-0.1,2.8,0   C446.4,280.2,447.4,281.3,448.3,282.3z" />
	<path fill="#4862C0" d="M468.1,164.6c0.1,1.1-0.4,2.1-0.8,3c-1.4,0.8-0.5,12.1-3.8,9.2c1.1-3.4,0.9-6.7,0.9-10.3c1.1-0.5,2.2-1,3-2   C467.6,164.6,467.8,164.6,468.1,164.6z" />
	<path fill="#5775E7" d="M442.1,263.1c2.1-0.2,4.1,0.3,6.1,0.7c-0.5,3.2-3.6,4-6.4,3.8c-0.2-0.6-0.4-1.1-0.6-1.7   C441.5,265.1,441.8,264.1,442.1,263.1z" />
	<path fill="#323333" d="M44.1,260.8c0.4,0.3,0.9,0.7,1.6,1.1c-0.5,0.9-1,1.8-1.5,2.8c0.2,0.8,0.4,1.7,0.6,2.9   c-2.3-0.2-4.1-0.6-5.8-1.7C40.7,264.3,42.3,262.6,44.1,260.8z" />
	<path fill="#2A211F" d="M149.5,233.4c-0.7-0.1-1.4-0.2-2-0.3c-0.6-4,4.8-4.2,7.3-5.9c0.7,0.6,2.4,1.8,0.7,2.3   C153.7,227.8,151.3,232.5,149.5,233.4z" />
	<path fill="#0A0D19" d="M447.4,277.6c1.3-3.5,2.7-7.1,4-10.6c0.5,0,0.9,0,1.4,0c0.3,0.9,0.6,1.9,0.9,2.9c-1.9,2.2-3.7,4.2-4.6,6.9   C448.5,277.1,447.9,277.4,447.4,277.6z" />
	<path fill="#333333" d="M54.5,216.1c1.3-1,9.7,6.4,9.2,7.8C59.2,224.4,57.3,219.2,54.5,216.1z" />
	<path fill="#353636" d="M36.9,194.4c1.7,3.5,3,7.1,3.2,11.5c-0.9-0.9-1.9-1.5-1.9-2.2C38.1,200.6,33.9,197.2,36.9,194.4z" />
	<path fill="#373737" d="M45.4,253.1c-1.2-0.7-2.3-1.2-3.6-1.9c0.3-1.8,1.8-2.4,3-3.6c1.1,1,2.1,2,3.1,2.9   C47.5,252.1,46.7,252.9,45.4,253.1z" />
	<path fill="#353636" d="M40.3,233.2c-1-0.1-1.5-0.8-1.6-1.6c1-2.2,1.9-4.3,3-6.7c0.8,0.6,1.5,1.2,2.2,1.8   C42.7,229,41.5,231.1,40.3,233.2z" />
	<path fill="#2B2C2C" d="M70.1,274c-0.7-0.3-1.1-0.5-1.8-0.8c1.1-1.3,2.1-2.5,3.1-3.7c0.1-0.9,0.2-1.9,0.3-2.9   c1.3-0.8,2.2-0.3,2.9,1.1C73.2,269.7,71.8,271.7,70.1,274z" />
	<path fill="#4A61BE" d="M463.5,176.9c0.8,1.5,1.4-0.1,2.1-0.8c0.1,1,0.2,2,0.1,3.1c-0.2,0-0.5,0-0.7,0c-0.3-0.2-0.6-0.5-0.8-0.8   c-3,0.1-6.1,0.1-9.1-0.1c-0.2-0.6-0.5-1.3-0.7-2c2.4,0.2,4.6,0.4,6.7,0.6c0.6,0.8,1.1,0.9,1.7,0C463,176.9,463.2,176.9,463.5,176.9   z" />
	<path fill="#2F3131" d="M43.6,209.6c2.6,1.6,9.4,5.6,7.2,7.6C48,214.7,45,213.6,43.6,209.6z" />
	<path fill="#929CAD" d="M171.6,222.7c0.5,1.2,1.6,0.5,2.4,0.9c-3.2,1.3-6.5,2.3-10,3C164.5,222.9,169.1,223.9,171.6,222.7z" />
	<path fill="#CFB5A7" d="M128.1,163.8c-1.5,0.6-3.5,0.4-4.6,2.4c1.2,1.7,3.7,3.1,2.9,5.5c-1.5-1.7-2.9-3.4-4.5-5.2   c0.8-1.1,1.6-2.1,2.6-3.2C125.8,163.2,127,162.8,128.1,163.8z" />
	<path fill="#3C3D3D" d="M80,285.6c-2.4,1.3-6.5,0-4.7-3.3C77.3,282.6,79,283.4,80,285.6z" />
	<path fill="#CAB3A5" d="M122.2,173.7c-3.9-2.4-2.9-9.6-8.7-9.9C118.5,160.9,120.4,170.4,122.2,173.7z" />
	<path fill="#435CB4" d="M442.7,279.3c0.8,0.3,1.5,0.7,2.5,1.1c-0.3,0.8-0.5,1.5-0.8,2.4c-0.6-0.3-1-0.5-1.5-0.7   c-1.2-1.7-5,0.5-3.7-2.8C440.4,279.3,441.6,279.3,442.7,279.3z" />
	<path fill="#B29C94" d="M92.1,260.8c0.7-3.4,1.7-6.7,3.1-9.9c0.1,1.1-0.4,2.7,0.9,3.2c-0.9,2.5-3,4.7-2.6,7.5   C93.1,261.4,92.6,261.1,92.1,260.8z" />
	<path fill="#D4B4A7" d="M121.4,255c1.3-3.3,2.5-6.5,3.8-9.9c-0.6-0.9-1.1-1.7-1.6-2.5C128.5,243.2,123.7,253.7,121.4,255z" />
	<path fill="#5370DD" d="M561.4,128.8c-0.9-1.6-2.4-5-0.9-6.2c1.2,0.9,2.2,1.9,3.2,3c0,0.5,0,1,0,1.6   C562.9,127.7,562.1,128.3,561.4,128.8z" />
	<path fill="#313232" d="M117,267.7c1.7-2.6,2.6-4.6,4.7-5.8c0.6,0.3,1.1,0.6,2,1C121.6,264.6,120.2,266.6,117,267.7z" />
	<path fill="#2B2323" d="M248,226.5c-1.7-0.5-3.5-1-5.2-1.5c-0.5-0.6-1.1-1.2-1.6-1.8c3.3-0.2,6.3,0.8,9.1,2.4   C249.6,225.9,248.5,225.3,248,226.5z" />
	<path fill="#272727" d="M21.3,264.8c1.9,0.1,2.3,2.4,3.6,3.6c0,0.8-0.2,1.4-0.8,2C21.8,269.9,21.7,266.9,21.3,264.8z" />
	<path fill="#282828" d="M41.7,213.6c1.1-0.2,1.7,0.2,1.6,1.4c-2,1.4-2.9,3.9-5.7,3.5C39.1,216.6,40.4,215.1,41.7,213.6z" />
	<path fill="#8F847B" d="M149.5,233.4c1.8-0.9,4.2-5.6,6-3.9c-1.5,1.5-3,3-4.4,4.5c0.1,1.3,1.4,0.5,1.8,1.5   c-0.2,0.2-0.6,0.6-0.9,1.1C150.9,235.6,150.1,234.6,149.5,233.4z" />
	<path fill="#2B2422" d="M34.1,477c1.2-2,1.7-4.3,1.5-6.6c0.7,0,1.1-0.1,1.5-0.1c0.5,2.4,0.5,4.8-1.4,6.7   C35.2,477,34.6,477,34.1,477z" />
	<path fill="#2F2F2E" d="M88.4,258.5c0.6,0.1,1.3,0,1.5,0.9c-1.9-0.2-1.6,1.3,0.1,1.5c-0.5,1-1.3,1.7-2.3,2.2   C84.8,261.2,86.5,259.8,88.4,258.5z" />
	<path fill="#2F3030" d="M18.2,215.3c-0.9,0.7-1.6,1.4-2.6,2.2c-0.7-1.6-1-2.9-0.8-4.7C16.3,213.5,17.3,214.1,18.2,215.3z" />
	<path fill="#272828" d="M107.5,281.3c-1.6,0-2.8,0-4.3,0c-0.1-0.6-0.2-1.1-0.2-1.6C106.2,279,106.2,279,107.5,281.3z" />
	<path fill="#272929" d="M84.5,272.1c-1.5-0.2-2.6,1.5-4.3,0.6C80.4,270.2,83.4,268.6,84.5,272.1z" />
	<path fill="#303030" d="M85.3,286.3c2.1-0.6,3.3,0,4.5,1.2c-1.6,0.9-1.6,0.9-4.2,0.6C85.6,287.7,85.5,287.1,85.3,286.3z" />
	<path fill="#262734" d="M439.8,268.5c-0.4,1-0.8,2-1.3,3.2c0.1,0.3,0.3,0.8,0.5,1.4c-0.5,0.3-1,0.5-1.5,0.8c-0.5-3,0.5-5.7,1.4-8.5   C439,266.5,438.9,267.6,439.8,268.5z" />
	<path fill="#242525" d="M49.3,285.9c2.1-1.1,3.1,0.2,4.6,1.1c-0.4,0.5-0.6,0.9-1,1.4C51.6,287.9,50.3,287.6,49.3,285.9z" />
	<path fill="#141B35" d="M439.2,279.3c-0.9,2.1,1.6,2.7,2.8,4.2c-1.6,0.3-2.8,0.5-4.1-0.5C438.3,281.8,437.7,279.8,439.2,279.3z" />
	<path fill="#655954" d="M57.1,518.1c-2.5-0.2-5.6,1.3-7.5-1.1c1.1-0.4,2-0.8,2.8-1.1C53.2,518.3,55.9,516.5,57.1,518.1z" />
	<path fill="#2F3232" d="M44.5,279c2.2-1,3.5-0.3,4.7,0.7C48.7,281.9,45.9,280.3,44.5,279z" />
	<path fill="#282929" d="M68.8,238.8c-2.6,1.4-4.1,0.3-4-2.1C66.6,236.4,67.1,237.8,68.8,238.8z" />
	<path fill="#252525" d="M70.1,246.4c0-0.6,0-1.2,0-1.7c0.8-0.9,1.3-0.8,3,0.7C72.7,246.6,71.2,247.9,70.1,246.4z" />
	<path fill="#E0C6BB" d="M141.7,282.3c1.5,0.8,1,2.6,1.5,4.2c-0.9,0.9-1.6,2.1-1.4,3.6c-0.2-0.7-0.8-1.7-0.6-2   C142.5,286.1,141.6,284.2,141.7,282.3z" />
	<path fill="#2F3131" d="M108.1,272.3c1.5-1.2,2.8-1.9,4.4-1.3C110.6,273.4,110.6,273.4,108.1,272.3z" />
	<path fill="#313030" d="M36.9,277.4c-1.4,0.4-2.2-0.1-2.7-1.4c0.4-0.4,0.8-0.9,1.3-1.4C36.8,275.2,37.5,275.9,36.9,277.4z" />
	<path fill="#DEBFB5" d="M81.5,519.8c-0.3,1-0.6,2.1-0.9,3.1c-1.6-0.5-1.7-1.6-1.9-3C79.6,519.9,80.6,519.9,81.5,519.8   C81.6,519.9,81.5,519.8,81.5,519.8z" />
	<path fill="#323434" d="M15.8,178.7c-1.7,0.9-2.6-0.3-3.8-0.8c0.1-0.6,0.2-1.1,0.4-1.9C14.1,176.5,14.7,177.7,15.8,178.7z" />
	<path fill="#202222" d="M78.6,242.3c1.7-0.6,1.7-0.6,3.3,1.4C79.5,244,79.5,244,78.6,242.3z" />
	<path fill="#212424" d="M95.2,273.2c2-1,2-1,3.9,0.5c-0.4,0.3-0.7,0.7-1.2,1.1C96.9,274.2,96.1,273.7,95.2,273.2z" />
	<path fill="#262626" d="M43.2,204.1c-0.6-1.7-1-2.7-1.4-3.7C43.9,198.8,44.8,202.2,43.2,204.1z" />
	<path fill="#333636" d="M73.3,230.2c-1.5-0.3-2.1-1.5-3.1-2.6C72.8,227.4,73.8,228.3,73.3,230.2z" />
	<path fill="#0F1121" d="M676.6,210.5c-1.4-2.1-0.5-5.2-0.9-7.6C677.9,204.1,676,208.3,676.6,210.5z" />
	<path fill="#14172A" d="M562.1,124c-0.5-0.5-1.1-0.9-1.6-1.4c-0.2-0.8-0.5-1.5-0.7-2.3c1.7-0.2,2.4,1,3.1,2.2   C562.1,122.8,562,123.3,562.1,124z" />
	<path fill="#232323" d="M126.3,267.2c-0.5,1.1-1.1,1.9-2.4,1.9C124.1,267.1,124.1,267.2,126.3,267.2z" />
	<path fill="#1D1D1D" d="M43.9,286c-0.3-1.4-0.5-1.9-0.7-2.7c0.9,0,1.5-0.1,2.6-0.1C45.2,284.1,44.8,284.7,43.9,286z" />
	<path fill="#232525" d="M26.8,272.8c0-1.3,0-2,0-2.6C28.8,270.3,28,271.6,26.8,272.8z" />
	<path fill="#161C35" d="M663.6,195.2c0-1.6-0.4-3.2,0.7-4.7C664.2,192.1,664.9,193.9,663.6,195.2z" />
	<path fill="#161D39" d="M455.1,178.3c1.5,0,3.1,0.1,4.6,0.1C457.8,179.4,456.6,179.4,455.1,178.3z" />
	<path fill="#EDC9B9" d="M51.9,524.5c-0.6-0.9-1.8-2.7,0-3.1C51.4,522.5,52.6,523.3,51.9,524.5z" />
	<path fill="#272A2A" d="M93.1,243.3c-0.6,0.4-1.1,0.9-1.4,0.2C92,242.5,92.2,242.6,93.1,243.3z" />
	<path fill="#2B2323" d="M242.8,225.1c-0.5,1.5-0.5,1.5-1.5,0.6C241.8,225.4,242.3,225.2,242.8,225.1z" />
	<path fill="#161D39" d="M464.3,179.2c-0.6,1.1-1.5,0.6-2.4,0.6C462.5,178.8,463.5,179.2,464.3,179.2z" />
	<path fill="#E0C6BB" d="M141.9,290.6c1.1,0.6,0.6,1.6,0.6,2.5C141.8,292.4,141.8,291.6,141.9,290.6z" />
	<path fill="#0F1121" d="M660.8,204.4c-0.3,0.5-0.6,1-0.9,1.5C659.8,205.2,659.8,204.5,660.8,204.4z" />
	<path fill="#14172A" d="M563.6,127.2c0-0.5,0-1,0-1.6C564.5,126.2,564.5,126.7,563.6,127.2z" />
	<path fill="#14172A" d="M565.1,124.9c0.5-0.1,1-0.2,1.4-0.2C566.1,125.8,565.9,125.9,565.1,124.9z" />
	<path fill="#161D39" d="M462.8,176.9c-0.5,0.9-1.1,0.8-1.7,0C461.6,176.9,462.2,176.9,462.8,176.9z" />
	<path fill="#CFB5A7" d="M129.8,164.5c-0.7,0.1-1.4,0.2-1.6-0.7C128.9,163.6,129.4,163.8,129.8,164.5z" />
	<path fill="#2B2323" d="M240.4,224.8c-0.3-0.2-0.6-0.4-0.8-0.6C239.9,224.4,240.2,224.6,240.4,224.8z" />
	<path fill="#2B2323" d="M241.2,225.5c-0.2-0.2-0.4-0.4-0.7-0.6C240.8,225.1,241,225.3,241.2,225.5z" />
	<path fill="#35478B" d="M466.6,165.4c-0.3,0.2-0.6,0.4-0.9,0.6C465.9,165.8,466.2,165.6,466.6,165.4z" />
	<path fill="#14172A" d="M563.6,125.6c-0.2-0.2-0.5-0.5-0.7-0.7C563.1,125.1,563.4,125.3,563.6,125.6z" />
	<path fill="#35478B" d="M467.3,164.7c-0.2,0.2-0.5,0.5-0.7,0.7C466.8,165.2,467.1,164.9,467.3,164.7z" />
	<path fill="#161D39" d="M464.2,178.4c0.3,0.2,0.5,0.5,0.8,0.7c-0.2,0-0.5,0.1-0.7,0.1C464.3,178.9,464.3,178.7,464.2,178.4z" />
	<path fill="#14172A" d="M562.8,124.8c-0.2-0.2-0.4-0.5-0.6-0.7C562.4,124.3,562.6,124.5,562.8,124.8z" />
	<path fill="#14172A" d="M562.8,122.6c0.2,0.3,0.5,0.5,0.7,0.8C563.3,123.1,563.1,122.8,562.8,122.6z" />
	<path fill="#14172A" d="M564.3,124.2c0.3,0.2,0.5,0.5,0.8,0.7C564.8,124.7,564.5,124.4,564.3,124.2z" />
	<path fill="#35478B" d="M468.1,164.6c-0.2,0-0.5,0-0.7,0c0.2-0.3,0.5-0.5,0.7-0.8C468.1,164.1,468.1,164.4,468.1,164.6z" />
	<path fill="#14172A" d="M563.6,123.3c0.2,0.3,0.5,0.5,0.7,0.8C564,123.9,563.8,123.6,563.6,123.3z" />
	<path fill="#161C35" d="M667.5,192.1c0.2-0.2,0.5-0.5,0.7-0.7C668,191.7,667.8,191.9,667.5,192.1z" />
	<path fill="#161C35" d="M666.8,192.9c0.2-0.2,0.5-0.5,0.7-0.7C667.3,192.4,667,192.7,666.8,192.9z" />
	<path fill="#EDC9BA" d="M82.2,487.6c-0.1,0.5-0.3,0.9-0.4,1.4c3.4,2.4,6.8,4.7,10.4,7.3c-5.5,5.1-17.8,2.9-20.7-4.3   c0-1.8-0.9-1.5-2.1-1.2c2.5-3.8,5.8-6.2,10-3.4c0.5-0.7,0.9-1.4,1.4-2.1c-0.1,0.7-0.2,1.3-0.3,2.2   C81.3,487.6,81.8,487.6,82.2,487.6z M73.8,490.3c1.6,1.1,2,1,2.9-0.7C75.5,489.2,74.6,489.2,73.8,490.3z" />
	<path fill="#0C0909" d="M75.2,512.6c-3,2-3,2-7.5,1.2c-0.7,0.3-1.5,0.7-2.2,1.1c-7.3-4.2-14.9-8.2-22.2-12.3   c1.2-5.2,16.6,5.9,19.6,7.8C66.6,513.5,70.9,511.1,75.2,512.6z" />
	<path fill="#0F0C0C" d="M112.8,478.5c1-7.5-5.4-10.7-11.3-11.3c-3.5-6.4,13.5,0.5,13.8,5.1C116.6,474.5,116.6,479.9,112.8,478.5z" />
	<path fill="#080707" d="M193.4,313.5c-1.6-3-6.8-12.9-1.8-14.2C197.7,300.6,196.7,310.1,193.4,313.5z" />
	<path fill="#100E0D" d="M50.1,524.4c0.5,2,1,4.1-1.1,5.5c-0.6-0.4-1.1-0.8-1.7-1.2c0.4-2.1-0.2-3.7-2.3-4.5   c-1.2-1.6-3.1-1.5-4.7-2.1c0.7-1.8,3.5,0.3,3.7-1.8c-1.5-2.9-4.2-2.5-7-3.8C44.2,510.9,46,520.7,50.1,524.4z" />
	<path fill="#110F0F" d="M83,481.5c1.4-4.3,3.7-8.5,2.4-13c6.2-3,2.3,13.1-1.5,14.6C83,482.9,83.1,482.2,83,481.5z" />
	<path fill="#0F0D0D" d="M112.1,452.6c-1,3.9-4.9,13.5-10,8.6c3.9-2.5,6.7-6.1,9.1-10.2C112.1,451.2,112,452,112.1,452.6z" />
	<path fill="#080706" d="M221.2,282c-0.2-0.2-0.1-0.4,0-0.5c1.3-0.4,1.3-4.4,0-4.6l0,0c0-1.4,0.5-2.9-0.7-3.9l0,0   c0-1.2,0.3-2.3-0.9-3l0,0c0.1-0.7,0.2-1.4,0.3-2.1c0.5,0.2,1,0.3,1.4,0.4l0,0c0.9,0.7,0.4,2,1.5,2.4l0,0c0,0.6,0,1.3,0.7,1.5   c0.3,1-0.6,2.4,0.8,3c0.2,0.1,0.2,0.3,0.1,0.5c0,2.4,0,4.8-0.1,7.2c0,0,0,0,0,0c-0.8,0.2-0.8,0.9-0.8,1.5c0,0,0,0,0,0   c-0.8,0-1.5,0-2.3,0C221.3,283.7,221.3,282.8,221.2,282z" />
	<path fill="#0F0C0B" d="M133.5,370.8c-0.2-0.5-0.4-0.9-0.6-1.5c0.9-3.1,4.2-4.4,6.7-6c0.9,0,1.7,0,2.9,0   C140.8,366.3,137.6,371.7,133.5,370.8z" />
	<path fill="#1D1A19" d="M180.3,389.6c-0.9-3.9-1.9-7.9-1.3-11.6C182.2,379.9,185.4,387.6,180.3,389.6z" />
	<path fill="#221E1D" d="M216,296.8c2.9,0,3.8,4.4,2.2,6.5C215.2,303.8,215.5,298.8,216,296.8z" />
	<path fill="#281E1C" d="M44,520.2c-0.2,2.2-3,0-3.7,1.8c-2.5-0.2-5.4,0.8-7.5-0.7C34.9,518.4,40.5,520.9,44,520.2z" />
	<path fill="#39312E" d="M215.7,288.4c0.2,1.9,0.5,3.1-2,3.6C211.7,290.4,212.8,285.9,215.7,288.4z" />
	<path fill="#312E2D" d="M178.8,376.1c-3.4-1.7-0.6-5.3,1.2-3.2C180.8,374.2,180.6,374.9,178.8,376.1z" />
	<path fill="#3B2E2C" d="M149.7,359.9c1.7-2,1.8-2.1,4.1-1.3C154.8,361,150.5,361.9,149.7,359.9z" />
	<path fill="#342D2B" d="M115.2,451.2c-0.4-2.1,0.5-3.2,1.5-4.1C119.5,447.6,118.1,451.1,115.2,451.2z" />
	<path fill="#1C1A19" d="M192,337.1c-2.4,0.9-2.9-2.8-1.5-3.7C192.5,332.5,192.9,335.7,192,337.1z" />
	<path fill="#1F1E1D" d="M83,481.5c0.1,0.7,0,1.4,0.9,1.7c-0.6,1.5-1.1,3-1.7,4.4c-0.5,0-0.9,0-1.7,0c0.1-0.9,0.2-1.5,0.3-2.2   C82.3,484.5,82,482.7,83,481.5z" />
	<path fill="#393331" d="M98.9,452.9c2-4.8,5.4-1.6,1.6,1.4C99.9,453.7,99.5,453.4,98.9,452.9z" />
	<path fill="#413A38" d="M124.3,442.1c-0.2,2.9-1,3.5-3.4,2.9C121.1,443.2,122.6,442.9,124.3,442.1z" />
	<path fill="#352D2C" d="M191.6,326.7c2.5,0.5,2,3.6,0.2,3.7C190,330,190.8,327.9,191.6,326.7z" />
	<path fill="#2A2322" d="M192.7,323.4c-1.8-0.8-1.7-3.3,0-3.8C194.4,320,194.5,322.5,192.7,323.4z" />
	<path fill="#231A19" d="M96.5,465.5c-2.3,0.4-3.2-0.3-3.9-1.9C94.4,462.3,96,463.4,96.5,465.5z" />
	<path fill="#322827" d="M144,363.5c1.4-2,1.4-2,3.1-1.3C146.6,364.4,146.6,364.4,144,363.5z" />
	<path fill="#4D4541" d="M76.2,512.2c2.1-0.3,3.5-0.6,5,0.2C79.9,514.4,79.5,514.4,76.2,512.2z" />
	<path fill="#12100F" d="M224.4,283c0-2.4,0-4.8,0.1-7.2C225.3,278.2,225.4,280.6,224.4,283z" />
	<path fill="#4C4745" d="M158.5,354.4c0,2.2-0.1,2.3-1.9,1.4C156.7,354.7,157.2,354.3,158.5,354.4z" />
	<path fill="#46403E" d="M112.1,452.6c-0.1-0.6,0-1.4-0.9-1.6c0.3-1,0.9-1.7,2.4-1.5C113.5,450.8,113,451.8,112.1,452.6z" />
	<path fill="#141110" d="M128.3,437.6c0.5-0.6,1-1.2,1.9-2.1C131.2,437.4,130.2,439.1,128.3,437.6z" />
	<path fill="#B19C94" d="M84.8,512.4c0.6,0,1.3,0,2.6,0C86.2,513.7,84.9,514.4,84.8,512.4z" />
	<path fill="#554A49" d="M39.1,510.5c-1.9-0.6-2.5-2-0.9-2.2C39.4,508.6,38.6,509.4,39.1,510.5z" />
	<path fill="#837470" d="M47.6,470c-1.3-0.8,0.2-2.3,1.1-1.4C48.9,469.4,48.6,470,47.6,470z" />
	<path fill="#2C1313" d="M69.4,490.9c1.2-0.3,2.1-0.6,2.1,1.2C70.5,492.2,69.5,492.2,69.4,490.9z" />
	<path fill="#5E5450" d="M37.2,513.1c1.3-0.1,1.9-0.2,3.2-0.3C38.8,514.7,39.2,514.7,37.2,513.1z" />
	<path fill="#12100F" d="M224.4,275.4c-1.4-0.7-0.6-2-0.8-3c0.2,0.1,0.4,0.1,0.6,0.2C224.3,273.5,224.3,274.4,224.4,275.4z" />
	<path fill="#12100F" d="M221.3,284.5c0.8,0,1.5,0,2.3,0C222.6,285.6,222.1,285.6,221.3,284.5z" />
	<path fill="#12100F" d="M221.2,282c0,0.8,0.1,1.6,0.1,2.5c-0.2-0.7-0.5-1.4-0.7-2.1C220.8,282.3,221,282.1,221.2,282z" />
	<path fill="#12100F" d="M223.6,284.5c0-0.7-0.1-1.3,0.8-1.5C224.5,283.7,224.4,284.3,223.6,284.5z" />
	<path fill="#B7BDD5" d="M303.1,243.3c6.4-4.6,14.1-8.8,22.1-8.4c-0.3,0.7-1.4,1.3-0.5,2.3c2-0.5,2-0.5,1.7-2.2   c-0.4,0-0.8-0.1-1.1-0.1c0.5-0.3,1-0.6,1.6-1c9.6,11.4-18.2,28.5-24.9,16.1c-0.4,0.5-0.8,1.1-1.2,1.7c0.5-1.8,0.2-3.9,1.5-5.3   c2.3-0.1,2.3-0.1,2.8-2.6C304.3,243.6,303.7,243.4,303.1,243.3z M321.3,248c3.5-2.7,4.8-4.3,2.9-7.7   C323.1,243.1,319.8,245.5,321.3,248z" />
	<path fill="#B7BDD5" d="M302.1,246.4c-0.3,0.3-0.5,0.7-0.8,1c-0.6-0.4-1.2-0.8-1.9-1.3c-4.6,2.5-7.4,6.8-11.1,10.4   c-2.6-1.1-4.6-3.4-7.4-3.1c-1.3-4.4-0.5-9.2,4.7-11c4.7-2,7.8-6.8,12.9-8.2c6.1-1,0.7,9.6,3,10.7   C301.8,245.3,302,245.9,302.1,246.4z" />
	<path fill="#040304" d="M281,253.4c2.8-0.4,4.8,2,7.4,3.1c3.7-3.6,6.5-7.8,11.1-10.4c0.7,0.5,1.3,0.9,1.9,1.3   c-0.3,5.6-3.8,9.8-8.3,13.2C290.1,259.9,280.9,256.7,281,253.4z" />
	<path fill="#0C0C0D" d="M347.5,180.2c-6.6-3.9-6.6-12.3-10-18.5C341.2,157.3,346.7,177.2,347.5,180.2z" />
	<path fill="#0D0809" d="M435.2,210.4c-2.7,0.3-5.4,0.6-8.7,0.9c1.8-4.7,19.5-5.6,22.3-2.6C446.3,211.4,438.9,208.7,435.2,210.4z" />
	<path fill="#B8BED6" d="M343.8,233.4c1.3,0,2.1,0,3.1,0c0.4,0.8,0.8,1.5,1.4,2.5c-0.5,1.1-1.1,2.2-1.6,3.3   c-2.9,0.2-5.5,1.3-5.4-3.1C342,235.3,342.9,234.4,343.8,233.4z" />
	<path fill="#1B1719" d="M356.9,185.8c-2.3,1.4-6.1-2.6-6.5-4.9C352.9,181.1,355.1,182.7,356.9,185.8z" />
	<path fill="#212225" d="M309.6,228.8c-2.3-2.4-2.3-3.3,0.1-5.9C312.2,224.3,311.7,226.1,309.6,228.8z" />
	<path fill="#2A2629" d="M400.4,218.9c1.8-2,3.8-1.5,6.2-1.9C405.2,219.6,403.3,220.4,400.4,218.9z" />
	<path fill="#191819" d="M263.8,206.8c1.5,1.9,1.4,2-1,4.2C261.1,209.6,261.9,207.4,263.8,206.8z" />
	<path fill="#231C1E" d="M357.4,188.9c2.6-1.2,4.6-0.3,5.8,2.2C360.9,191.8,359.7,190.3,357.4,188.9z" />
	<path fill="#252023" d="M308.4,235.3c-1,1.8-0.9,1.8-2.7,2.9c-0.3-0.2-0.7-0.5-1-0.8C306.1,234.8,306.1,234.8,308.4,235.3z" />
	<path fill="#2C282C" d="M302.1,246.4c-0.2-0.5-0.4-1-0.5-1.5c0.5-0.5,1-1,1.5-1.5c0.6,0.1,1.3,0.3,1.9,0.4   C304.4,246.2,304.4,246.2,302.1,246.4z" />
	<path fill="#222022" d="M411.3,217c1.7-1.9,1.7-1.9,4.7-0.7C414.8,217.9,413.3,217.5,411.3,217z" />
	<path fill="#434046" d="M251.4,224.8c-0.4-1.8-0.4-1.8,1.4-2.6C253.9,223.7,253.9,223.7,251.4,224.8z" />
	<path fill="#2B292D" d="M271.1,199.9c-0.8,0.4-1.3,0.7-1.8,1c-2.3-0.8-0.3-1.8,0.7-2.7C270.4,198.9,270.7,199.3,271.1,199.9z" />
	<path fill="#484449" d="M420.8,215c0-0.4,0-0.7,0-1.1c0.9-0.8,1.9-0.4,2.9-0.3C423.8,215.4,422,215.1,420.8,215z" />
	<path fill="#7F818A" d="M367.4,193.7c0.8,0.7,0.8,1.3,0,1.9C366.1,195.8,366,193.7,367.4,193.7z" />
	<path fill="#343336" d="M327.3,229.4c0.5-0.8,0.8-1.4,1.1-2c0.4,0.3,0.7,0.5,1,0.7C329.5,229.2,329,229.7,327.3,229.4z" />
	<path fill="#4B65C5" d="M534.6,278.9c-1.2,2.9-6.3,2.1-7,5.7c-3-8.3-8.1-15.5-13.9-22.1c1.2-7.8-3.6-17-3.6-25.5   c12,11.5,3-6.2,0-10.7c-1.4-2.1-3.6-0.6-3.9-3.8c0.7,0.5,1.5,0.9,2.5,1.6c2-6.1-1.2-13.1,2.5-18.9c7.2,15.9,7.4,35.4,13,52.2   c2.2-1.1,4.3-2.1,6.5-3.2c0.1-0.8,0.1-1.4,0.2-2c4.5,6.8,8,14.4,12.2,21.5c0,0.4-0.1,0.7-0.1,1.2c-3.1,1.8-7,1.1-10.2,2.9   C533.3,278.3,534,278.6,534.6,278.9z" />
	<path fill="#040408" d="M559.5,235c0.3,0.8,0.7,1.6,1.1,2.6c-0.6,0.1-1.1,0.2-1.7,0.3c-5.9-8.9-11.2-18.3-18.5-26   c-11.2-8.4-16.2-22-23.2-33.8c-1.9,11.6,0.9,22.3,5.8,32.9c-0.4,0.5-0.8,0.9-1.2,1.5c-11.4-9.3-12.2-29.4-4.2-41.3   C525.2,196.8,546.4,212.6,559.5,235z" />
	<path fill="#020305" d="M548.3,131.7c0,1.1,0,2.2,0,3.2c0.9,0.6,1.6,1.1,2.4,1.6c-2.3,4.8-3.9,10.8-7,15c-2.5,0.6-4.9,1.4-6.9,3.1   c-0.5,0-1,0.1-1.5,0.1c-0.3,0.2-0.5,0.4-0.8,0.6c1.3,10-12,4.4-15.4,11.3l0,0c-0.4,0-0.9-0.1-1.4-0.1c-0.9-5.7,5.6-5.8,9.1-8.2   c3.4,0.5,4.8-2.4,5-5.4c-3.7-2.7-7.5-5.4-11.2-8.2c6.1-2.8,10.6,10.6,20,4.6c8.7-15.7,3.5-15.2,3.3-30.6   C546.7,122.2,547.5,127.5,548.3,131.7z" />
	<path fill="#050609" d="M569,203.7c0.2,10.1-3.6,19.7-3.1,29.7c-0.4,3.8,1,11.2-5,10.7c2.5-3.3,2.5-6.7,2.5-10.2   c-0.4-0.4-0.9-0.8-1.6-1.3c4.5-21.3-4.4-44.2-2.9-64.9c0.5,1.2-0.8,2.8,0.8,3.8c2.7,14.3,2.9,29.6,5.9,43.5   c1.1-7.1,1.6-14.2,2.5-21.3C569.9,196.3,568.5,200.5,569,203.7z" />
	<path fill="#4B65C5" d="M534.5,252.4c0.6,1.5,2.6,1.9,2.8,3.8c0.7,1.7,3.5,0.2,4.7,0c5.6,3.7,5.5,9.7,7.8,15.1   c1.7,0.1,3.3,0.2,5.1,0.4c0.4,2.6-1.4,3.7-2.7,6c0.9,2.2,2,4.7,3.1,7.2c-0.4,0.9-1,1.7-1.6,2.5c0.2,0.7,0.4,1.3,0.7,2.1   c-0.8,0.7-1.6,1.4-2.2,1.9c-2.6-0.2-3-2.6-4.6-3.6c-1.7-1.1-1.6-3.3-1.7-5.3c-2-1.3-3.9-2.7-6-4.1c-1.3,1-3.7,2.8-4.7,0.5   c2.9-1.4,6.1-1.4,9.2-1.9c1.1,2,8.2,18.1,8.1,8.4c-0.7-3.5-4.6-7.4-2.7-10.8c0.4-0.1,0.8-0.1,1.5-0.3c-0.9-0.5-1.2-0.3-1.4,0.3   c-4.3,0.1-4.2-16.4-8.2-14.7c0.7,2.3,1.4,4.7,2.1,7c-0.2,0.8,0.4,1.9-0.9,2.4c-3.2-5.6-6.4-11.1-9.2-16.8   C534,252.5,534.2,252.5,534.5,252.4z" />
	<path fill="#030407" d="M471.9,170.6c5.5,2.1,7.1,7.2,10.3,11.5c1.9-4.6-0.4-8.4,0.6-12.8c1.8,0.5,1.2,2.5,2.3,3.4   c0.4,0,1-0.1,1.6-0.1c-3,10,0.9,21.3,1.3,31.8c-1.4-0.9-0.7-1.9-2.3-3.3c-0.1,3.7-0.1,6.6-0.1,9.6c-2.1-4.9,0.8-8-2.7-13   c-0.6,0.2-1.2,0.4-1.8,0.6c-2.1-8.7-0.7-20.5-10.7-25.2c-0.5-0.8-0.5-1.5,0-2.3C470.9,170.7,471.4,170.6,471.9,170.6z M484.7,188.8   c-0.9,5.4-0.3,8.2,1.6,10.3C485.8,195.7,485.2,192.2,484.7,188.8z" />
	<path fill="#020205" d="M506.2,222.7c0.3,3.2,2.5,1.7,3.9,3.8c0.4,2.8-1.5,1.6-2.2,3.2l0,0c-0.6,0.2-1.1,0.5-1.7,0.7   c-10.7-8.5-16.9-37.3-9.5-48.1C495.5,196.3,496.6,211.7,506.2,222.7z" />
	<path fill="#06080F" d="M549.8,274.6c-1.9,3.4,1.9,7.4,2.7,10.8c0,10.5-8.4-9.8-9.6-11.6c-4.3-9.3-11.3-17.8-14.4-27.3   c8.8,7.1,10.4,19.6,17.6,28.2c-0.9-5.7-3.3-9.6-4.6-14.9C545.6,258.2,545.5,274.7,549.8,274.6L549.8,274.6z" />
	<path fill="#4B65C5" d="M464.2,249.4c2.8-3.9,3.9-9.7,5.3-14.4c1.6,1.8,3,3.7,4,5.9c-2.4,6.2-0.8,13.9-2.3,20.6l-0.2,0.2   C468.9,257.7,464,254.2,464.2,249.4z" />
	<path fill="#05060C" d="M471.8,206.7c-1.8,0.1-3.5,0.1-5.1,0.2c-1.7,2.3,0.5,5.4-2.1,7.3c-1.5-2.3-0.9-4.7-0.8-7.1   c-0.4-0.7-0.8-1.4-1.3-2.1c16.5-6.7,25.4,5.5,18.7,21.5c-0.9-3.5,2-6-0.1-9.1c-0.6-1.7,0.6-4-0.9-5.3   C479.1,208.3,475.7,205.9,471.8,206.7z" />
	<path fill="#05060B" d="M473.5,240.9c-2.4-4.8-6.4-8.8-9.3-13.2c-0.8-0.1-1.4-0.2-2.1-0.3c-0.3-2.1-0.8-4.2,1-6.4   c0.5,1.4,1,2.6,1.5,3.9c9.2,6.8,14.1,18.6,18.7,28.9c-0.1,0.6,0,1.4-0.9,1.7C479.8,250.5,477.3,245.3,473.5,240.9z" />
	<path fill="#0A0C16" d="M597.9,214.2c-2.6,4-6.6,22.2-12.6,19c10.4-11.3,13.1-30,19.5-44.1c0.9,0.2,0.7,1,0.9,1.7   C603.2,198.6,600.6,206.4,597.9,214.2z" />
	<path fill="#020306" d="M485.6,210.6c0-3,0.1-5.9,0.1-9.6c1.6,1.4,0.9,2.4,2.3,3.3c2.2,5.1,4.4,10.1,6.6,15   C491.3,228.4,485.8,214.6,485.6,210.6z" />
	<path fill="#4B65C4" d="M526.9,158.5c-4.6,3.7-8.2-1.6-12.1-3.9c0.4-0.1,0.7-0.2,1.3-0.3c-0.4-2.3-1.2-4.6,0.6-7   C521.6,149.5,525.1,153.2,526.9,158.5z" />
	<path fill="#090B12" d="M610,101.2c1.5,0.6,1.5,1.6,1.6,2.6c0.2,9.8,2.5,19.5,2.7,29.2C610.5,130.9,608.4,106,610,101.2z" />
	<path fill="#4963C0" d="M542.8,143.9c-0.7,1.7-1.4,3.5-2.2,5.7c-1.9,0.2-4.8,2.7-6.9,1.2c1.9-2.5,0.1-5.6,0-8.4   c6.2,2.6,3-4.3,3-6.8C539.5,137.8,539.7,142.7,542.8,143.9z" />
	<path fill="#0A0A14" d="M514.8,154.6c3,1.6,5.6,5.2,9,5.3c-0.9,1.3-2.4,1.2-3.7,1.7c-6.6-6.6-17.2-10.1-23.6-17.6   C503.3,145.9,508.5,151.3,514.8,154.6z" />
	<path fill="#070A13" d="M507.8,229.6c0.7-1.6,2.6-0.4,2.2-3.2c10.4,15.2,5.5,21.6-3.9,3.9C506.8,230.1,507.3,229.8,507.8,229.6   c0.9,2.2,2.2,4.2,4.5,5.5c-0.8-1.9-1.6-3.7-2.4-5.6C509.1,229.5,508.5,229.6,507.8,229.6z" />
	<path fill="#445AB0" d="M568.2,193.7c-1,6.3-1,12.8-2.3,19.1c-0.4-0.2-0.7-0.4-1.1-0.7c-0.4-3.9-0.7-7.7-1.1-11.6   c0.4,0.6,0.7,1.2,1.3,2c1.5-5.3,1.7-11,3.2-15.8C568.1,189,568.1,191.3,568.2,193.7z" />
	<path fill="#1F2A52" d="M481.2,217.2c2,3.1-0.9,5.6,0.1,9.1c0.6-1.2,0.9-2.1,1.3-2.9c0.3,1.9,0.5,3.7,0.8,5.8   c-1,0.2-1.9,0.5-3.2,0.7c1-8.7-4.5-15.9-8.4-23.3c1.6,0.1,3.4-0.5,4.6,0.7c-0.7,0.1-1.4,0.1-2,0.2c2.3,4.6,4,8.4,6.4,12.9   C481,219,481.1,218.1,481.2,217.2z" />
	<path fill="#4963C2" d="M513.8,157.1c2,1.5,5.4,2,6.3,4.5c-1.9,1.1-2.6,2.7-2.3,5.1c0.5,0,1,0.1,1.4,0.1c-0.4,0.3-0.8,0.7-1.5,1.2   c-0.4-1-0.7-1.6-1.1-2.5c-1.8,0-2.8-1.5-4-2.9c0-1.2,0-2.3,0-3.6C512.9,158.5,513.4,157.8,513.8,157.1z" />
	<path fill="#111522" d="M502.5,178.5c-1.5,7.3-0.5,15.1-0.8,22.7c-0.3,0-0.6,0-0.8,0c0,0,0,0,0,0c-0.5-2.6,1.2-6.6-0.8-8.4   c-2.2-2.2-1.1-5.2-1.4-8.2c1.8-1.3,2.2-3.4,2.3-5.6c1.4-0.9,0.2-2.5,0.7-3.8C502.6,176.2,502.5,177.4,502.5,178.5z" />
	<path fill="#09080F" d="M513.3,170.5c-3.5,0.1-6.5-1-10,0c-1.3,0.5-3,0-3.2-1.6C499.8,165,513.1,167,513.3,170.5z" />
	<path fill="#111528" d="M626.1,151.6c2.9-5.5,5.9-11.1,9.9-15.9c2.8,1.8-7.9,14-9,17.5C626.1,153,626.2,152.2,626.1,151.6z" />
	<path fill="#1F2641" d="M605.7,190.7c-0.1-0.6,0-1.4-0.9-1.7c1.4-5.9,3.7-11.5,5.7-17.9C612.7,174.3,607,186.5,605.7,190.7z" />
	<path fill="#1C202F" d="M568.2,193.7c-0.1-5.1,0-10.5,0.1-15.6c0.8-0.5,1.1-0.1,1.4,0.3c-0.6,8.3,1,17.4-0.7,25.3   C568.5,200.5,569.9,196.3,568.2,193.7z" />
	<path fill="#0B0E19" d="M566.6,135.3c3.3-4.8,7.3,5.7,5.1,8.4C569.3,141.4,568.8,137.8,566.6,135.3z" />
	<path fill="#0D0F1E" d="M522.2,144c-0.7,0-1.4,0.1-1.6,1c-2.2-2.6-8.9-4-8-7.7C516.4,138.8,519.2,141.7,522.2,144z" />
	<path fill="#4662C0" d="M519.1,166.8c1.7-3.3,5.2-3.8,8.5-4.4C525.6,165.3,522.9,167.6,519.1,166.8z" />
	<path fill="#35478B" d="M470.3,170.7c-0.5,0.8-0.5,1.5,0,2.3c-0.3,1.2-1.3,1.2-2.4,1.4c-0.2,1.3,0.7,3.2-0.8,3.9   c-0.6-4.3,1.5-7.9,1.6-12.1l0.1-0.2C470.5,167.3,468.6,169.6,470.3,170.7z" />
	<path fill="#415EB8" d="M536.8,154.7c2-1.8,4.4-2.5,6.9-3.1C543,154.2,539.1,156.9,536.8,154.7z" />
	<path fill="#07090F" d="M631.5,105.7c-2.4-2-3.8-4.2-2-6.8C631.4,101,631.6,103.1,631.5,105.7z" />
	<path fill="#2E3E7A" d="M458.9,201.3c0-0.2-0.1-0.5-0.1-0.7c1.2-0.1,2.4-0.1,3.5-0.2c-1.2-0.5-2.5-1.2-3.5,0.2   c-0.2-0.2-0.5-0.5-0.8-0.9c2.1-1.2,4.2-0.6,6.2-0.5C464.2,202,460.8,201.1,458.9,201.3z" />
	<path fill="#141A33" d="M467.3,172.3c0,2-0.1,4-0.1,5.9c-0.6,0.4-1-0.2-1.4-0.6c-0.3-2.1,0.5-4.1,0.8-6.1   C466.8,171.7,467.1,172,467.3,172.3z" />
	<path fill="#161424" d="M492.9,173.7c1-2.5,2.6-3.7,4.4-2.1C496.3,173,494.9,173.1,492.9,173.7z" />
	<path fill="#1E243D" d="M502.5,178.5c0-1.2,0.1-2.3-0.8-3.2c0.5-1.6,0.5-1.6,2-2.4C503.5,175,503.5,176.8,502.5,178.5z" />
	<path fill="#171B2B" d="M500,192.9c2,1.8,0.3,5.8,0.8,8.4C499.5,198.8,500.3,195.7,500,192.9z" />
	<path fill="#262E4D" d="M482.5,255.6c0.9-0.2,0.8-1,0.9-1.7c1.2,1.4,0.9,2.9,0.4,4.7C482.2,257.9,482.8,256.5,482.5,255.6z" />
	<path fill="#34447D" d="M626.1,151.6c0.1,0.7,0,1.4,0.9,1.7c-0.6,0.9-1.2,1.8-2,3.2C624.4,154.2,624.8,152.7,626.1,151.6z" />
	<path fill="#1E243D" d="M501.8,188.5c0.3-2.6-0.9-5.6,0.6-7.8C502.3,183.3,502.7,185.9,501.8,188.5z" />
	<path fill="#121626" d="M558.9,167.7c-1,1.1-0.7,2.5-0.8,3.9c-1.2-1.5-0.7-3.2-0.8-4.8C558.5,166.3,558.8,166.8,558.9,167.7z" />
	<path fill="#384886" d="M471,212.6c-1.7-0.3-1.8-1.4-2.4-3C470.1,210.5,471,210.9,471,212.6z" />
	<path fill="#171B2B" d="M500.8,201.3c0.3,0,0.6,0,0.8,0c-0.1,0.9,1.1,1.9-0.2,2.7C500.4,203.7,501,202.2,500.8,201.3z" />
	<path fill="#121626" d="M558.2,172.2c1.1,1.1,0.6,2.6,0.6,4C557.9,175,558.2,173.6,558.2,172.2z" />
	<path fill="#4862C0" d="M465.1,179.2c0.2,0,0.5,0,0.7,0c0,1,0,2.1-0.1,3.1C465.2,181.3,464.9,180.3,465.1,179.2z" />
	<path fill="#121626" d="M559.7,171.5c-1.3-0.8-0.6-2.1-0.7-3.1C559.9,169.2,559.8,170.4,559.7,171.5z" />
	<path fill="#4B65C4" d="M530,157.8c-0.6,0.8-1.5,0.7-2.3,0.7C528.2,157.4,529.1,157.8,530,157.8z" />
	<path fill="#1E243D" d="M501.6,176.6c0,0.9,0.5,1.9-0.6,2.5C500.8,178.2,500.8,177.3,501.6,176.6z" />
	<path fill="#4B65C5" d="M512.5,261.6c0.2,0,0.4,0,0.6,0c0.3,0.2,0.5,0.5,0.8,0.7l-0.2,0.3C513.3,262.2,512.9,261.9,512.5,261.6z" />
	<path fill="#35478B" d="M471.9,170.6c-0.5,0-1.1,0.1-1.6,0.1C470.8,169.8,471.4,169.8,471.9,170.6z" />
	<path fill="#35478B" d="M468,166c0-0.2,0.1-0.4,0.1-0.7c0.3,0.2,0.6,0.4,0.9,0.7c0,0-0.1,0.2-0.1,0.2   C468.5,166.1,468.3,166,468,166z" />
	<path fill="#35478B" d="M465.7,177.6c0.3,0.2,0.5,0.5,0.8,0.7c-0.3,0.1-0.5,0.1-0.8,0.2C465.8,178.2,465.8,177.9,465.7,177.6z" />
	<path fill="#415EB8" d="M534.5,155.4c0.3-0.2,0.5-0.4,0.8-0.6C535.1,155,534.8,155.2,534.5,155.4z" />
	<path fill="#4B65C4" d="M514.7,154.6c-0.3-0.2-0.6-0.4-0.9-0.6C514.1,154.2,514.4,154.4,514.7,154.6z" />
	<path fill="#EECABA" d="M738.5,89c-1.4,7.2-7.4,3.7-10.8,0.2c-2.3-3.9-12.8-4.8-6.3-10.7C728.9,77.4,735.8,82.4,738.5,89z" />
	<path fill="#EECABA" d="M744.7,119.7c0.1-0.5,0.3-1,0.4-1.6c-3-1.4-4.7-3.9-5.9-7.2c4.3-13.7,17.2-0.3,11.9,9.1   c-0.6,0.2-1.1,0.5-1.7,0.7c-0.1,0.4-0.1,0.7-0.2,1.1C748,120.5,746.7,118.6,744.7,119.7z" />
	<path fill="#080807" d="M752.8,231.1c-2.5-1.9-0.4-5.7-0.5-8.4c1.7-5.2-0.9-11.5,2-16.1C759.2,211.2,757.6,226.8,752.8,231.1z" />
	<path fill="#0A0909" d="M739.7,154.7c3.2,3.4,4.1,23.3,0.6,26.7C737.6,178.4,737.4,157.9,739.7,154.7z" />
	<path fill="#110E0D" d="M719.3,116c-5.1,2.7-10.8,5.5-16.6,5.7C702.3,118,718.3,111.8,719.3,116z" />
	<path fill="#231D1C" d="M737,78.6c-3.6,1.5-8.8-1.1-11.3-3C726.9,73.6,737.7,76.3,737,78.6z" />
	<path fill="#2F2A29" d="M738.7,185.4c3.3-0.4,4.1,4.9,0.4,6C738.1,189.4,738.4,187.5,738.7,185.4z" />
	<path fill="#2A2423" d="M756.7,129.8c-0.5,0.5-1.1,1-1.5,1.4c-2.3-0.7-2.1-2.8-2.9-4.1C754.4,124.2,756.1,127.4,756.7,129.8z" />
	<path fill="#231F1E" d="M744.7,119.7c2.1-1.6,7.2,3.5,3.4,4.3C746.7,122.9,745,121.9,744.7,119.7z" />
	<path fill="#312D2B" d="M746.6,249.9c-2.5-1.2-0.8-5.1,1.7-5.6C748.6,246.6,749.1,248.7,746.6,249.9z" />
	<path fill="#1B1717" d="M749.5,240.4c-1.5-2.1-0.2-3.7,0.8-5.2C753.3,234.3,751.7,240.4,749.5,240.4z" />
	<path fill="#393533" d="M745.2,258.4c-2-1.6-2-2,0.1-3.7C747.3,256.4,747.3,256.8,745.2,258.4z" />
	<path fill="#403937" d="M737.8,196.5c2.6,0.4,1.2,4.8-0.9,3.8C736.4,199,736.8,197.8,737.8,196.5z" />
	<path fill="#0E0A0A" d="M721,75.5c-0.5,0.4-0.8,0.8-1.3,1.2c-0.8-0.5-1.6-1-2.5-1.6C717.9,73,720,74.2,721,75.5z" />
	<path fill="#383230" d="M702.5,123c-1.3,2.2-1.3,2.2-3,1.2C700.3,122.2,700.3,122.2,702.5,123z" />
	<path fill="#232524" d="M735.5,208.4c1.2,2.2,1.2,2.2-0.1,4C734.1,210.6,734.1,210.6,735.5,208.4z" />
	<path fill="#2A1F1E" d="M740.4,149c-1.3-1.3-1.3-1.3-0.6-2.7c1.2,0,1.4,0.8,1.7,1.9C741.1,148.5,740.7,148.8,740.4,149z" />
	<path fill="#47403E" d="M695.8,127.8c-0.4-1.6,0.5-3.1,2-1.9C698,127.4,697.2,127.7,695.8,127.8z" />
	<path fill="#3C3937" d="M712,74.4c-1.1,1-1.7,1-2.6-0.2C710.4,73.4,711.1,73.2,712,74.4z" />
	<path fill="#313130" d="M691.9,131.3c-0.9-0.7-1.3-1.9,0-1.9C693.1,129.8,692.4,130.4,691.9,131.3z" />
	<path fill="#594442" d="M705.4,74.8c0.5-0.3,0.9-0.6,1.4-0.9C707.6,75,706.5,75.9,705.4,74.8z" />
	<path fill="#40A6CA" d="M367.9,305.9c14.4-6.3,28.5-1.1,43.2,0.9c18.6,2.2,35.3,13.1,49.3,25.1c-59.9,2.5-119.3,0-179.4-0.1   C310.2,324.4,339,313.5,367.9,305.9L367.9,305.9z" />
	<path fill="#040709" d="M382.2,341.3c-4,5.5-19.2,4.7-24.8,1.7c1.7-2.6,7.5-0.4,10.6-1c4.2,0,8.4,0.4,12.4-1.5   C381.1,340,381.8,340.4,382.2,341.3z" />
	<path fill="#060A0D" d="M542.9,326.9c-1.3,0.9-3.3,0.4-3.8,2.6c0.6,0.6,1.3,1.3,2,2.1c-1.8,1.8-5,1.1-5.1-1.6   C535.3,326.5,541.9,322.5,542.9,326.9z" />
	<path fill="#050B0D" d="M515.2,337.7c2.5-2.1,4.6-3.9,6.8-5.7c1-0.1,1.1,0.9,1.4,1.7C522,337.4,520.3,338.3,515.2,337.7z" />
	<path fill="#060D10" d="M315.2,317.4c1.8-2.4,5.8-3.5,7.6-0.3C322.3,320.4,317.3,319.2,315.2,317.4z" />
	<path fill="#070F13" d="M367.9,305.8c-2.9-0.3-5.3-3.3-4-6C368.9,301.3,369.6,302.3,367.9,305.8L367.9,305.8z" />
	<path fill="#0B181E" d="M375.6,303.6c-2.7,0.3-4.5-0.8-4.7-3.8c2.6,1,4,1.1,6.1-0.5C379.3,301.1,377.1,302.5,375.6,303.6z" />
	<path fill="#0A1317" d="M319.1,342.7c3-0.2,5.5-0.3,8.2-0.5C326.6,346.1,321.9,345.8,319.1,342.7z" />
	<path fill="#0C0D0D" d="M340.2,344.5c-3.8,0.6-4,0.6-5.9-1.3c1.7-1.1,3.2,0.3,5-0.2C340,342.8,340.7,343.6,340.2,344.5z" />
	<path fill="#0A151A" d="M307.8,345.3c-0.3-1.4,0.5-1.8,1.4-2C312.2,343.6,310.3,346.5,307.8,345.3z" />
	<path fill="#0B1114" d="M288.3,343.4c1.4-1.3,2.6-0.9,4.3-0.5C291.3,344.5,290.1,344.8,288.3,343.4z" />
	<path fill="#090D0F" d="M513.8,335.1c0.4,0.6,0.7,0.9,0.9,1.2c-0.4,1.2-1.1,1.2-3,0.3C511.8,335.5,512.8,335.5,513.8,335.1z" />
	<path fill="#020204" d="M512.5,261.6c6.7,6.8,20.1,24.5,15.1,33.7c-1-0.1-2-0.1-3-0.2c-0.7-0.7-1.5-1.5-2.2-2.2   c-0.2-1.5-1.2-2.4-2.4-3.1l0,0c-0.7-1.8-1.6-3.4-3.1-4.6l0,0c-0.2-0.3-0.5-0.6-0.7-0.8l0,0c0-0.5-0.1-1-0.1-1.5c0,0,0,0,0,0   c3.1,1.3,4.6,5.8,7.2,8.2c0.1-0.1,0.3-0.1,0.4-0.2c-2-10.5-5.6-20.5-13.6-28c-0.7-1.4-3.5-2.7-1.7-4.3   C510.3,259,510.9,260.9,512.5,261.6z" />
	<path fill="#050509" d="M492.6,284.5c-0.7-3.1-21.9-5.2-24.6-3.8c0,0,0,0,0,0c-2.6-2.2-7.2-0.3-9.8-2.7c0.8-3.6,5.3-1.1,8-1.2   c-1.1-2.9-0.6-5.1-1.2-7.9c-0.4-1-1.4-2.2-0.2-3.6c2.9,3.5,3.2,7.8,4.9,11.9c6.7,1.4,13.6,3.4,20.5,3c-1.1-5.3-4.2-10.3-2.9-15.8   c3.7,3.9,2.1,11.5,5.4,16.4c3,1,6,0.2,8.8,0.7c1.1,1.8,3.6-0.4,4.6,1.5c-4.1,1-8.1,0.5-12.2,0C493.6,283.5,493.1,284,492.6,284.5z" />
	<path fill="#040508" d="M665.8,215.7c2.2-3.7,5.1-5.2,8.9-6.9c-0.3,6.2-7.8,10.5-8.7,17.2c-1,2.6-0.2,6.1-2.2,8.1   c-6-1.4,0.4-12.4,2.2-15.9C667.5,217.3,666,216.5,665.8,215.7z" />
	<path fill="#040509" d="M472,289.9c-0.3-0.7-0.3-1.9,0.6-2.3c0.1,0.2,0.2,0.3,0.2,0.5c0.2,0.3,0.4,0.7,0.6,1c0,0.6,0,1.3,0.8,1.5   l0,0c0,0.7,0,1.3,0.8,1.5l0,0c0.3,0.5,0.8,0.8,0.8,1.4c3.2,4.5,5.7,9.7,10.3,13c1.8,2.2,8.6,4.9,4,7.8c-9-3.9-12.9-15.6-17.5-23.5   C472.4,290.5,472.2,290.2,472,289.9z" />
	<path fill="#0B0E1B" d="M492.6,284.5c0.5-0.5,1-1,1.5-1.5c3.1,10.9,11.4,19.4,17.3,28.6C503.8,308.3,495.7,292.5,492.6,284.5z" />
	<path fill="#0D101E" d="M464.2,249.4c0.2,8.2,15.3,19.7,15.9,27.3C477.8,275.5,455.1,245.4,464.2,249.4z" />
	<path fill="#14192F" d="M546.9,245.4c3.8,2.8,15,13.2,17.5,20.6C557.6,259.8,552.2,253,546.9,245.4z" />
	<path fill="#131427" d="M506.3,283c-1-1.9-3.5,0.3-4.6-1.5c4.3-0.4,9.9,0.7,13-2.4l0,0c1,1.1,1,1.1,2.3,0.2   c1.3-0.2,3.2,0.2,3.1-1.6c0.8,1.2,1.4,2.5,1.3,4c-1.3-1.4-2.8-1-4.5-0.6c-0.2,0.6-0.5,1.3-0.7,2c0,0,0,0,0,0c-0.3,0-0.5,0-0.8,0   c-0.3-0.4-0.5-0.8-0.8-1.2C511.7,282.2,509.1,283.4,506.3,283z" />
	<path fill="#25315F" d="M514.7,279.1c-0.9,0.6-1.1,1.9-2.4,1.5c0.3-0.4,0.5-0.8,0.9-1.3c-3.2-5.8-6.8-11.6-4.7-18.3   c0.6,0.7,1.1,1.4,1.7,2.1C507.4,268.1,512.9,274.3,514.7,279.1z" />
	<path fill="#13192D" d="M472.6,287.6c-0.8,0.3-0.7,1-0.8,1.6c-1.9-2.6-2.8-5.5-3.8-8.5c2.2-0.6,4.9-1.7,6.9-0.1c-1.1,0-2.2,0-3.5,0   c-0.3,0.8-0.6,1.4-1,2.2C471.2,284.4,471.9,286,472.6,287.6z" />
	<path fill="#212A52" d="M542.9,273.8c1.2,0.7,0.8,2.2,1.5,3.1c-3.2,0.5-6.5,0.6-9.5,2c-0.8-0.2-1.5-0.6-2.4-1   c3.2-1.9,7.1-1.1,10.2-2.9C542.8,274.6,542.9,274.2,542.9,273.8z" />
	<path fill="#202A53" d="M452.7,267c-0.5,0-0.9,0-1.4,0c0.1-3.8,2.7-7,4-10.5c0.2,0,0.3,0.1,0.5,0.1   C455.9,260.2,454.6,263.8,452.7,267z" />
	<path fill="#455EB8" d="M517,285.3c1.5,1.2,2.4,2.8,3.1,4.6C518.1,289,517.3,287.3,517,285.3z" />
	<path fill="#363D4E" d="M665.8,215.7c1.7,2.2,0.3,2.5-2.2,2.8C663.9,217,664.8,216.3,665.8,215.7z" />
	<path fill="#2B4484" d="M524.7,295.1c1,0.1,2,0.1,3,0.2C526.1,297.2,525.9,297.2,524.7,295.1z" />
	<path fill="#455EB8" d="M520.1,289.8c1.2,0.7,2.1,1.7,2.4,3.1C521.1,292.3,519.9,291.6,520.1,289.8z" />
	<path fill="#13192D" d="M475,292.1c-0.9-0.2-0.8-0.8-0.8-1.5C474.5,291.1,474.7,291.6,475,292.1z" />
	<path fill="#455EB8" d="M515.4,283c0.3,0,0.5,0,0.8,0c0,0.5,0.1,1,0.1,1.5C515.4,284.3,515.4,283.7,515.4,283z" />
	<path fill="#13192D" d="M474.2,290.6c-0.8-0.2-0.8-0.8-0.8-1.5C473.7,289.6,473.9,290.1,474.2,290.6z" />
	<path fill="#13192D" d="M473.5,292.9c0.2,0.3,0.4,0.6,0.6,0.9C473.9,293.5,473.7,293.2,473.5,292.9z" />
	<path fill="#13192D" d="M476.4,294.5c-0.2-0.3-0.4-0.6-0.6-0.9C476,293.8,476.2,294.1,476.4,294.5z" />
	<path fill="#13192D" d="M474.3,294.4c0.2,0.3,0.4,0.6,0.6,0.9C474.7,295.1,474.5,294.8,474.3,294.4z" />
	<path fill="#13192D" d="M472.8,291.4c0.2,0.3,0.4,0.6,0.6,0.9C473.1,292,472.9,291.7,472.8,291.4z" />
	<path fill="#455EB8" d="M516.3,284.4c0.2,0.3,0.5,0.6,0.7,0.8C516.7,285,516.5,284.7,516.3,284.4z" />
	<path fill="#13192D" d="M472,289.9c0.2,0.3,0.4,0.6,0.6,0.9C472.4,290.5,472.2,290.2,472,289.9z" />
	<path fill="#13192D" d="M475.6,292.9c-0.2-0.3-0.4-0.6-0.6-0.8C475.2,292.4,475.4,292.7,475.6,292.9z" />
	<path fill="#13192D" d="M473.4,289.1c-0.2-0.3-0.4-0.6-0.6-1C473,288.5,473.2,288.8,473.4,289.1z" />
	<path fill="#13192D" d="M467.2,280c0.3,0.2,0.6,0.5,0.9,0.7C467.7,280.5,467.4,280.3,467.2,280z" />
	<path fill="#C3C2C7" d="M770.8,354.6c0.6-1.1,1.1-1.9,2.4-1.9C773.1,354.6,773.1,354.5,770.8,354.6z" />
	<path fill="#050404" d="M66.9,178.5c1.8-0.2,3,0.3,4.3,1.4c1.8,6.9-2.3,15.7,3.6,21.2c1.8,1.6,1.6,4.4,2,6.6c-2.1,2.6-4-2.1-6-2.7   C66.4,199.5,62.4,184.3,66.9,178.5z" />
	<path fill="#090807" d="M82.4,197.2c-4.7-3.5-6.5-8.8-8.4-14.2c0.3-0.4,0.6-0.9,1.1-1.5c0.9,0.5,1.6,0.9,2.3,1.3   c0.6-0.5,1.2-0.9,1.8-1.4c3.8,1.8,5,5.8,3.2,9.5C83.6,193.1,86.2,195.2,82.4,197.2z" />
	<path fill="#2A2423" d="M112.6,219.5c1.4-2.3-0.1-6.7,3.7-7.5c2.9,2.8-2.4,5.6-2.6,9.4C113.6,220.5,113.5,219.7,112.6,219.5z" />
	<path fill="#A6A098" d="M113.7,257.9c-0.6-0.1-1.2-0.2-1.8-0.3c0.8-0.3,1.6-0.7,2.6-1.1c-0.2-0.6-0.3-1.1-0.5-1.7   c-2.3,0.5-4.4,0.9-6.4,1.4c1.5-1.9,3.7-2.5,5.9-3.7c0.8,0.4,1.6,0.9,2.5,1.4C115.2,255.3,115.6,257.7,113.7,257.9z" />
	<path fill="#161414" d="M112.6,219.5c2,0.8,0.6,3.2,0.1,4.6c-1,2.1-3.9,0.4-2.7-1.5C110.7,221.4,111.7,220.5,112.6,219.5z" />
	<path fill="#A6A098" d="M115.9,253.9c1.7-2.2,0.7-5.1,0.8-7.6C117.7,247.4,118.4,254.5,115.9,253.9z" />
	<path fill="#1D1C1F" d="M352.3,279.4c0.8-1.6,3.7-1.6,3.8,0.2C355.5,281.5,353.2,280.7,352.3,279.4z" />
	<path fill="#1B1618" d="M361.1,282.4c2.5-1.1,3.5-0.1,4.5,0.9C364.9,285.8,362.9,283.2,361.1,282.4z" />
	<path fill="#0F0D0C" d="M727.6,326c4.5,1.9,4.2,21.5-1.3,13.7C726.8,335,725.4,330.4,727.6,326z" />
	<path fill="#2E2927" d="M727.6,310.9c-1.9-1.7-1.5-3.4-1-5.1C729.8,305,730.2,309.5,727.6,310.9z" />
	<path fill="#050303" d="M727.2,324.9c0-3-0.2-5,1-7.3C730.1,320.4,730.1,323.3,727.2,324.9z" />
	<path fill="#181413" d="M725.8,297.2c-1.8-1.5-1.1-3.5-1.1-5.2C727.5,289.3,728.4,296.6,725.8,297.2z" />
	<path fill="#403935" d="M721.2,131.3c-1.3,0.7-2.4,2-3.2,0.3C718,129.9,719.9,129.6,721.2,131.3z" />
	<path fill="#3C302D" d="M714.8,135.6c-0.7-0.1-1.4-0.1-2.5-0.2c0.8-2.1,1.3-1.9,3.3-2.1C715.3,134.3,715.1,134.9,714.8,135.6   L714.8,135.6z" />
	<path fill="#05080A" d="M76.9,301.7c-1.5,3.2-1.6,6.7-3.5,10C69.4,309.7,72.5,297.3,76.9,301.7z" />
	<path fill="#183745" d="M77.5,316.6c-1.4,0.7-1.4,1.1-2,0C76.2,315.9,76.4,316.1,77.5,316.6z" />
	<path fill="#2C4955" d="M76.1,322.2c0.7-1.2,1.8-0.8,1.1,0.4C76.9,322.5,76.6,322.4,76.1,322.2z" />
	<path fill="#231D1B" d="M145.6,289.9c1.1-1.7,1.5-3.1,3.6-3.9c0.8,2.3-0.5,3.5-1.3,5.4c-0.6,0.3-1.3,0.6-2.2,1.1   C145.7,291.3,145.7,290.6,145.6,289.9z" />
	<path fill="#E0C6BB" d="M145.6,289.9c0,0.7,0.1,1.5,0.1,2.5c0.9-0.5,1.6-0.8,2.2-1.1c0,0.4-0.1,0.7-0.2,1.3   c-0.8,0.1-1.5,0.2-2.2,0.3C144.8,292,144.4,290.6,145.6,289.9z" />
	<path fill="#321D1B" d="M154.2,282.2c-0.2,1.1-1.7,1.3-1.9,0.3C152.3,281.5,153.9,281.2,154.2,282.2z" />
	<path fill="#222D57" d="M536.1,135.5c-0.8,0.3-0.8,1-0.9,1.7c-3.7-7.9-9.5-13.8-15.3-20.2C526.4,118.9,533.2,129.1,536.1,135.5z" />
	<path fill="#475FBA" d="M532.3,132.4c1,2.3,4.7,5.6,2.2,7.9c-0.9-0.9-2.1-1.6-2.4-3.1c0.2-0.2,0.4-0.3,0.8-0.6   C532.3,135.3,532.2,133.8,532.3,132.4z" />
	<path fill="#222D57" d="M536.8,135.6c0,0.5,0,1,0,1.5c-0.8-0.3-0.8-0.9-0.7-1.6C536.3,135.5,536.5,135.6,536.8,135.6z" />
	<path fill="#475FBA" d="M532.1,137.2c-0.3-0.3-0.5-0.5-0.8-0.8C531.6,136.7,531.9,136.9,532.1,137.2z" />
	<path fill="#101B1E" d="M125.1,305.9c-3.1-1.8-1.4-9.9,2-6.6c-0.5,1.9-0.4,3.7,0.1,5.9C126.4,305.5,125.7,305.7,125.1,305.9z" />
	<path fill="#0E1417" d="M115.2,325c-0.9-0.4-1.5-0.7-2.3-1.1c0-0.8,0-1.5,0-2.4c1.4-0.3,2.7-0.7,4-1   C119.2,322.9,116.6,323.6,115.2,325z" />
	<path fill="#080706" d="M231.5,246.7c1,5.8-2.1,10.2-8.4,12.3c-0.5,1.5,0.7,3.2-0.6,4.9c-5.2-6.5,0-18.7,7.6-19.9   c1.1-1,0.8-3,2.7-3.7C234.8,242.3,233.6,245.1,231.5,246.7z" />
	<path fill="#0E0A0A" d="M240.1,237.5c-0.6,2.1-2.8,3.7-4.8,2.1C235.7,237.4,238.9,234.5,240.1,237.5z" />
	<path fill="#1F1917" d="M247.6,229.2c-1.6,2.6-2.6,3-4.7,1.9C244.2,228.5,244.5,228.4,247.6,229.2z" />
	<path fill="#12100F" d="M221.4,268.4c-0.4-0.1-0.9-0.2-1.4-0.4c-0.1,0.7-0.2,1.4-0.3,2.1c-0.3-0.8-1-1.8-0.8-2.3   c0.9-1.4-0.1-2.6-0.1-3.9c0.3-0.3,0.7-0.6,1-0.9C221.3,264.6,221.1,266.6,221.4,268.4z" />
	<path fill="#12100F" d="M221.2,276.9c1.3,0.2,1.3,4.2,0,4.6C221.2,280,221.2,278.4,221.2,276.9z" />
	<path fill="#12100F" d="M220.5,273.1c1.2,1,0.7,2.5,0.7,3.9C221,275.7,220.8,274.4,220.5,273.1z" />
	<path fill="#12100F" d="M219.6,270.1c1.2,0.7,0.9,1.8,0.9,3C220.2,272.1,219.9,271.1,219.6,270.1z" />
	<path fill="#080706" d="M219.8,263.1c-0.3,0.3-0.7,0.6-1,0.9C217.5,263.1,219.4,261.4,219.8,263.1z" />
	<path fill="#12100F" d="M223.6,272.3c-0.7-0.3-0.7-0.9-0.7-1.5C223.1,271.3,223.3,271.8,223.6,272.3z" />
	<path fill="#12100F" d="M222.8,270.8c-0.7-0.2-0.8-0.8-0.8-1.4C222.3,269.8,222.6,270.3,222.8,270.8z" />
	<path fill="#12100F" d="M222,269.3c-0.2-0.3-0.4-0.6-0.6-0.9C221.6,268.7,221.8,269,222,269.3z" />
	<path fill="#342C2A" d="M616.3,72.4c2.6-0.4,5,1.3,6.1,3.7C620.2,77.5,617.8,74.3,616.3,72.4z" />
	<path fill="#030303" d="M614.9,73.3c-1,2-2,2-4.8,0.6C611.5,72.3,613,73,614.9,73.3z" />
	<path fill="#292624" d="M152.4,199.7c-2.6,0.6-2.3-1.7-1.4-3C153.2,194.9,153.2,198.3,152.4,199.7z" />
	<path fill="#AE9185" d="M146.9,224.9c0.8-0.6,1.4-1.1,2-1.5c0.9,1.4,0.6,2.2-0.7,2.9C147.9,225.9,147.6,225.6,146.9,224.9z" />
	<path fill="#1E1716" d="M42.9,481.2c-1,3.7-5.6,6.2-8,3.1C36.7,482.4,39.9,482.5,42.9,481.2z" />
	<path fill="#4E4541" d="M45.6,474c0.4,0,0.7,0,1.1,0c0.6,2.4,0.1,3.2-2.6,4.4C43.9,476.7,45,475.5,45.6,474L45.6,474z" />
	<path fill="#435CB5" d="M455.8,195.2c0-2.1,0-4.3,0-6.5c2.4-0.9,4.8-0.5,7.2-0.5c1,1.2,0.7,2.3,0.2,3.8c-1.3,0.1-2.7,0.3-4.1,0.5   c-0.1,0.5-0.1,0.8-0.2,1.2c-1,0.2-2.7-0.1-2.4,1.6C456.3,195.1,456.1,195.2,455.8,195.2z" />
	<path fill="#1C2243" d="M457.6,237.2c1.7-1.5,0.6-3.6,2.7-4.4c-0.4,2.8,2.1,8.2-1.7,8.8c-0.3-0.6-0.6-1.2-0.8-1.9   c-2-1.2-4.7-0.1-6.5-1.8C453.1,236.5,455.6,237.5,457.6,237.2z" />
	<path fill="#5876E8" d="M456.6,195.1c0-0.2,0-0.5,0-0.7c1.6,0,3.3,0,5.1,0c0,1.3,0,2.4,0,3.6c-1.6,0-3.1,0-4.8,0   C456.8,197.1,456.7,196.1,456.6,195.1z" />
	<path fill="#1A1830" d="M455.8,243.9c-1.3-1.9-4,0.7-5-1.9c1.8-0.3,3.6-0.6,5.5-0.8c1.7,2.1,1.6,2.7-0.3,4.5c-1.1,0-2.2,0-3.2,0   C453.2,244,455.5,245.6,455.8,243.9z" />
	<path fill="#161326" d="M451.5,233.7c2.3,0.2,4.3,0.4,6.6,0.6C456.4,236.1,451.7,236.5,451.5,233.7z" />
	<path fill="#0B0D1A" d="M456.2,251.1c1.5,1.8,1.5,2.1-0.2,3.6C454.8,252.8,454.8,252.8,456.2,251.1z" />
	<path fill="#222D59" d="M455.8,243.9c-0.3,1.7-2.5,0.2-3,1.7c-0.3-0.2-0.5-0.5-0.9-0.8C453,243.5,454.5,244.3,455.8,243.9z" />
	<path fill="#222D59" d="M452.7,245.6c1.1,0,2.1,0,3.2,0C454.9,246.6,453.8,246.6,452.7,245.6z" />
	<path fill="#435CB5" d="M461.1,193.5c0.6-0.6,1.2-0.9,1.7,0C462.2,193.6,461.6,193.6,461.1,193.5z" />
	<path fill="#2C2524" d="M643.9,256c2,0.5,4.1,2.6,2.2,4.4C644.5,259.4,643.4,258.3,643.9,256z" />
	<path fill="#DDC7BC" d="M92.1,260.8c3.4,2.7,8.5,1.3,11.7,4c1,1,3.4,0.5,3.2,2.7c-5.5,1.6-10.4-2.7-15.5-4.6   C91.8,262.1,92,261.5,92.1,260.8z" />
	<path fill="#E4CCC1" d="M109,254.7c-1.9,2.1-4,3.2-6.5,5c-1.3-0.3-3-0.7-4.7-1c0.5-2,1.4-3.2,4-5.3   C104.1,254.2,106.5,254.8,109,254.7z" />
	<path fill="#695E5A" d="M89.8,260.8c-1.7-0.4-1.4-1.7,0.1-1.5C89.8,259.8,89.8,260.3,89.8,260.8z" />
	<path d="M91.4,257.7c0,1.1,0.1,1.1-0.4,2.4C90.7,258.7,90.5,258.5,91.4,257.7z" />
	<path fill="#1E2447" d="M444.1,268.7c1.5,0.3,3-1.7,4.6-0.1C445.4,269.9,445.4,269.9,444.1,268.7z" />
	<path fill="#16182F" d="M448.2,263.9c-1.3-0.2-2.6-0.5-3.8-0.7c1-1.5,3.5-0.8,5-0.7C449.4,263.5,448.7,263.6,448.2,263.9z" />
	<path fill="#435CB5" d="M455.9,186c2.6,0,5.1,0,7.7,0C461.8,187,457.5,187.2,455.9,186z" />
	<path fill="#222D57" d="M534.5,140.3c1.2-0.5,0.7-1.6,0.8-2.4c0.9,1.2,0.9,1.2,0.3,3.1C535.2,140.7,534.8,140.5,534.5,140.3z" />
	<path fill="#222D57" d="M536.9,137.8c0.7,0.4,0.7,1,0.6,1.6C536.8,139.1,536.8,138.4,536.9,137.8z" />
	<path fill="#0F1121" d="M463.1,183.3c-2.2,2.1-3.7,0-6,0.3C457.7,180.8,460.7,183.2,463.1,183.3z" />
	<path fill="#222C56" d="M468,166c0.3,0,0.6,0.1,0.8,0.1c0.1,2.2-0.4,4.2-1.5,6.1c-0.3-0.3-0.5-0.5-0.8-0.8c0-0.7,0.1-1.5,0.1-2.2   c0.7-0.4,0.7-1,0.6-1.6C467.5,167.1,467.7,166.5,468,166z" />
	<path fill="#35478B" d="M467.2,167.6c0.1,0.6,0.1,1.2-0.6,1.6C466.5,168.6,466.5,168,467.2,167.6z" />
	<path fill="#0C0C0B" d="M73.8,490.3c0.8-1.1,1.7-1.2,2.9-0.7C75.8,491.4,75.4,491.5,73.8,490.3z" />
	<path fill="#28272B" d="M321.3,248c-1.5-2.5,1.7-4.9,2.9-7.7C326.1,243.7,324.8,245.3,321.3,248z" />
	<path fill="#20191B" d="M325.2,234.9c0.4,0,0.8,0.1,1.1,0.1c0.3,1.7,0.3,1.7-1.7,2.2C323.8,236.1,324.9,235.6,325.2,234.9   L325.2,234.9z" />
	<path fill="#696E78" d="M564.7,212.1c0.4,0.2,0.7,0.4,1.1,0.7c-0.1,0.6-0.1,1.3-0.2,2.2C564.8,213.9,564.3,213.1,564.7,212.1z" />
	<path fill="#30407D" d="M543.7,266.9c1.5,2.2,1.7,4.7,2.4,7.9c-2.1-1.8-2.7-3.7-3.3-5.5C544.1,268.9,543.5,267.8,543.7,266.9z" />
	<path fill="#06080F" d="M549.8,274.6c0.2-0.6,0.5-0.8,1.4-0.3C550.5,274.4,550.2,274.5,549.8,274.6   C549.8,274.6,549.8,274.6,549.8,274.6z" />
	<path fill="#2E2F34" d="M484.7,188.8c0.5,3.4,1.1,6.8,1.6,10.3C484.4,197,483.8,194.2,484.7,188.8z" />
	<path fill="#5370DC" d="M479.6,218c-1.7-3.4-3.4-6.9-5.1-10.5C479.8,206.4,481.8,214.3,479.6,218z" />
	<path fill="#4358AE" d="M479.6,218c1-1.1,0.7-2.5,0.7-3.8c0.2,0,0.4,0.1,0.6,0.2c0.3,2.2,0.3,3.5-0.1,6   C480.3,219.3,480,218.7,479.6,218z" />
	<path fill="#1F2A52" d="M480.9,214.4c-0.2-0.1-0.4-0.1-0.6-0.2c0-0.7,0-1.5,0-2.2C481.4,212.5,481,213.5,480.9,214.4z" />
	<path fill="#3A4F9A" d="M507.8,229.6c0.6,0,1.2-0.1,2.1-0.2c0.8,1.9,1.6,3.8,2.4,5.6C510,233.8,508.8,231.8,507.8,229.6   L507.8,229.6z" />
	<path fill="#0B0B16" d="M458.8,200.5c1-1.4,2.3-0.7,3.5-0.2C461.2,200.4,460,200.5,458.8,200.5L458.8,200.5z" />
	<path fill="#4962C0" d="M514.7,279.1c-1.9-4.8-7.3-11-4.6-16.1C513.2,266.6,527.2,281.2,514.7,279.1   C514.7,279.1,514.7,279.1,514.7,279.1z" />
	<path fill="#455EB8" d="M516.2,283c0.2-0.7,0.5-1.3,0.7-2c6.2-2.5,5.3,6.2,6.9,9.9c-0.1,0.1-0.3,0.1-0.4,0.2   C520.8,288.8,519.3,284.3,516.2,283z" />
	<path fill="#25315F" d="M514.7,279.1c0.8,0.1,1.5,0.1,2.3,0.2C515.7,280.2,515.7,280.2,514.7,279.1z" />
</g>
</svg>