<?xml version='1.0' encoding='utf-8'?>
<svg xmlns="http://www.w3.org/2000/svg" version="1.2" baseProfile="tiny" id="Layer_2_00000156561324491473698490000014560675865315528603_" x="0px" y="0px" viewBox="0 0 900 600" overflow="visible" xml:space="preserve">
<g>
	<path d="M596.9,198.2c8.9,3.7,16.1,11.8,24.3,17.3c0,0.5,0,1,0,1.5c5.8,4.8,13.4,6.1,20,9.5c18,8.9,33.2,23.3,47.2,37.5   c9.2,9.1,22.3,13,32.9,20.2c10,6.6,19.6,13.7,31.8,15.4c14.7-29.5,31.7-10.4,49.5,3.1c13.5,4.5,29.7,3.4,44.3,4.3   c12.8-0.4,24.7-6.2,37.6-6.3c31.1,25.1,1.8,60.5-26,72.5c-9.1,2.9-18.3,5.5-26.8,10.3c-23.1,7.5-56.9,42-80.7,27.6   c-9.6-0.8-14-0.8-14-11.9c-2-2.3-4.6-5.1-3.8-8.5c0.8-11.2-10.3-19.2-13.3-29.7c-1-0.5-1.9-0.9-2.7-1.2c-1-3.9,1.7-7.6,2.7-11.5   c-19.6-6.1-37.7-15.2-57.2-22.1c-24.4,1.4-49.5-3.2-70.4-17.2c-1.2,2.2-2.5,4.1-4.2,5.9c-0.1,28.9,29.4,40.9,44.7,61.1   c-0.3,0.5-0.6,1-0.8,1.5c-15.6-3.1-24-20.1-37.1-27.8c-1.4-3.4-4.5-4.4-6.5-7c0.3-0.3,0.6-0.5,0.9-0.8c1.1,0.7,2.1,1.3,3.6,2.2   c-1.9-9.5-6.1-16.5-7.6-26c-4.3,3.5-7.6,7.3-10.8,11.3c-2.5,2.4-2.4,7.6-7.3,6.5c-5.2,3.4-16.7,12.7-22.3,9.1   c-24,36.6-52,69.7-83.2,100.3c0.4,1.8,0.8,3.5,1.2,5.2c2,0.5,3.8,0.9,5.3,1.3c4.4,6.8,11.3,12.6,13.7,20.3   c-0.2,0.1-0.5,0.2-0.7,0.3c-4-4.3-6.6-9.7-10.9-14.1c-0.6,2.5-0.2,4.8-0.1,7.1c0.4,1.4-1.3,1.4-1.5,2.4c0,2.4,0,4.9,0,7.5   c3.9,3.3,1.1,9.8,4.8,12.9c-1.2,2.1-1.2,2.1-0.1,6.6c0.8-0.1,1.6-0.2,2.8-0.4c-1.1,1.2-1.8,2-2.7,3c0.3,4,0.9,7,5.8,5.3   c-0.1-0.1-0.2-0.2-0.3-0.2c-0.7-7.5-7.5-17.7-5.2-24.4c5.7,15.7,10.8,31.7,15.4,47.8c1.8,10.8,13.1,13.4,22.5,12.9   c6.5,2.1,12.9,0.3,19.6,0c13.5-0.7,27.6,2,40.4-3.5c21-20.1,35.9-28.1,38.9-64.8c-0.4-0.1-0.8-0.2-1.3-0.3c0-12.5,0.3-25-0.8-37.5   c-11.6-4.6,15.1-32.6,18.6-39.7c0.8,0.2,0.6,0.9,0.7,1.5c-6.1,11.3-12.8,22.2-17.8,34.1c11.1,60.4-5.3,119.1-77.8,114.7   c-6-0.6-12.6,2.7-18.2,0.1c-7.1-2.7-15.7,1.4-21.5-5.1c-3.5,0.4-6.9,0.7-10.6,1.1c-0.2-0.2-0.6-0.7-0.9-1.1   c-52.2,10.3-106.6,1.5-159.6,4.5c-37.7-0.6-76.4,8.9-113.7,1.9c0.2-0.5,0.3-0.8,0.5-1.3c-9.1-5.3-17.8-11.7-26.3-17.5   c-7-6.5-18.5-8.5-22.2-18.2c-16.2,1-28.9,9.8-42.9,16.7c-18.4,2.9-35.6,14.3-54.9,9.9c-3,3.1-8.2,1.9-10.7-1.1   c-0.9-1.4-1.1-1.3-3.6-0.9c-0.9,1.5,0.1,3.7-1.9,5.1c-2-0.3-3.1-1.8-4.9-3.1c-0.1-0.6-0.1-1.4-0.2-2.1c-1.5-1.4-3.8-0.9-5-2.4   c-0.3-1.5,1.9-1.7,1.3-3.4c-4.6-0.7-8.8-0.8-4.2-6.3c-8.6-4.6-12.3-12.6-15.1-21.7c-1.9-1.3-4.5-1.8-6-4.3c0.2-0.5,0.5-1.1,0.9-1.9   c1.2,0.4,2.2,0.8,3.4,1.2c1.3-3.3-1.4-6-2.9-8.7c-0.5-3.9-3.3-8.4-0.7-12c-0.6-0.9-1-1.7-1.5-2.4c0.3-0.9,0.6-1.8,0.9-2.8   c-2.9-2.7-3-6.7-5.5-9.4c-1.8-2.5-5.7-5.6-1.7-8.3c1.2,0.7,2.4,1.4,3.6,2.1c1.8-0.5,0.1-2.3-0.4-3.2c-0.5-0.8-1-1.7-0.8-2.8   c0.5-3.7-2.9-6.5-2.5-10.3c0.9-0.6,1.6-1.2,2.5-1.8c-0.7-1-1.4-1.8-1.9-2.6c0.1-4.2,4.3-3.8,6.7-6.1c-3.3-1.4-15.1-3.3-6.9-7.4   c0.8-1.9-1.3-4.2,1.4-5.6c1.5,1.1,3.1,2.2,5.1,3.6c-0.5-5.6-7.9-9-2.6-14.5c2.9-0.4,5.8-0.9,8.6-0.1c0.6-1.1,1-2,1.4-2.7   c2.2,0,2.8,2.1,4.4,2.8c0.3,0.8,0.7,1.5,1.8,1.2c0.2-0.9-1-2.1,0.4-2.7l0,0c0,1.5,1,2.4,2.3,2.9c2.8,4.8,6.4,9.1,8.1,14.4   c10.2-1.2,25-20.2,33.2-10c5.9-4.4,12-8.2,17.2-13.3c5.7-6.4,9.7-5.1,15.2,0.3c2.9-0.3,4.9-3.6,8.2-2.3c1.1,1,1.3,2.8,3.4,2.9   c5.7-9.5,15,2.6,20-5.6c16.3-4.8,19.2,16,21.2,26.9c7.8,3.2,16.1-1,24.3,1.4c0.3,0.4,0.7,0.9,1,1.4c6.6,0.8,13.2,1.2,19.9,1.3   c4.5-14.7,18.3-23.9,33.5-23.7c11.1,0.5,19.4-10,30.7-11c24.4-8.4,51.6-5.6,74.2,6.1c17.2,0.4,33.5,0.1,50.9,0.2   c-22-13-33.1-36.3-49-55.4c-9-4.9-13.1-15-15.7-24.4c-7.6-17.7,10.5-34.1,19.4-48.1c-0.8-0.2-1.4-0.3-2.2-0.5   c42.4-30.7,93.4-46.2,138.4-70.6c-15.5-17-9.6-18.5-3.5-36.7c6.8-1.6,12.8-2.8,18.7-6.9c6.8-13.9,17.1-25.1,27.7-36.1   c7.6-5.5,10.3-15.9,10.3-25c-0.7-18.9,10.4-39,31.9-34c17.6,6.5,27.3,27.9,31.3,45.2c-0.2,0.6-0.5,1.1-0.7,1.7   c-5.3-10.9-19.8-51.1-35.4-43.5c-1.1-0.1-0.5,1-1.1,1.4c-0.4,0.5-0.8,1.1-1.2,1.6c0,0,0,0,0,0c-0.9,0.1-0.9,0.7-0.9,1.4   c-0.2,0.3-0.4,0.7-0.6,1c-0.4,1-1,1.9-1.5,2.8c0,0,0,0,0,0c-0.8-0.2-0.8-1-0.9-1.6l0,0c0.8-0.2,0.8-0.8,0.8-1.5l0,0   c0.8-0.2,0.8-0.8,0.8-1.4c0.2-0.3,0.4-0.7,0.6-1c0-0.2,0.1-0.4,0.3-0.5c0.4-0.5,0.8-1.1,1.2-1.6l0,0c1,0,0.4-1,1-1.4   c1.9-1.5-2.4-2.3-3.1-0.8c-26.1,11.6-12.8,50.7-35.8,66.4c2,4.1-1.8,13.9-4.4,5.8c-1.4,0.8-2.3,2.6-3.2,3.7c-0.6,7.7-0.6,7.7-2.2,9   c-0.9-0.4-1.3-1.6-2-2.4c-4.8,4.4-1.7,11-4.1,16.4c-2.8,3.7-4.4-3-4.7-5.6c-0.3,1.3-0.4,1.7-0.5,2.1c-3.1,2.3-2.2,7.1-2.1,10.4   c-3.8,2.7-3-4.4-3.8-6.3c-4.4,1.3-8.6,2.6-12.7,3.9c-3.2,6.9-4.8,13.9-6.5,21c4.3,8.3,12.5,13.1,18.3,20   c6.6,10.1,14.1,26.3,3.8,36.5c2.1,1.7,2.5,4.3,3.4,6.3c11.8,4,24.7,4.3,36.6,8.9c8.5,1.1,15.9,8.1,24.5,5.8   c3.8-7.1,14-7.5,19.1-13.9c11.2-11.1,2.3-28.7,3.8-42.6c-0.6-5.8,2-11.8,0.7-17.5c2.8-5.6,5.6-11,8.3-16.3   c-0.3-0.7-0.5-1.1-0.6-1.3c3.7-12.7,9-24.6,9.3-38c0.8-5.4-2.2-12.1,0.1-16.8c5.7,17.7,0.3,36-5.5,52.8   c-1.8,9.8-10.4,19.2-7.8,29.2c-0.5,0.5-1,0.9-1.6,1.5c0.2,33,10.3,61.1-33.2,66.6c-0.8,0.5-0.7,1.4-0.8,2.2l0,0   c-1.3,1.2-0.7,2.7-0.7,4.3c2.6-1.2,5-0.8,7.2-2.6c-1.2-0.3-2.2-0.6-2.8,0.5c-1.2,0.1-3.5,0.6-2.8-1.4c8.3-3.6,18.8-1.1,20.2,8.9   c6,0.3,6.8,4.5,6.7,9.6c10,5.9,9.2,4.4,7.2,15.9c12.1,17.1,55.3,23.2,75.4,24.8c15.6,4,30.6,10.2,45.1,16.7   c8.8,0.8,17,3.5,22.3,10.8c3-0.6,5.7-1.1,8.4-1.7c1.2-1.7,1.2-1.7,4.1-3.1c16.4-6.2,21.9-27.4,15.8-42.7c-9-4.8-20.1-3.6-28.1-10.2   c-11.4-8.2-23.7-15.1-35.9-21.8c-12.4-10-23.9-20.9-36.4-30.8c-12.3-11.9-29.7-14.7-42.8-24.9c-5.8-6.1-11.5-13-19.2-16.9   C595.7,198.7,596.3,198.4,596.9,198.2z M95,497.9c1,1.1,2.2,1.9,3.7,1.5l0,0c0.7,0.3,1.5,0.5,2.2,0.8l0,0   c7.3,5.4,16.7,3.2,19.4-5.9c2.1-6.4,12.7-15.9,3.7-21c0-0.4,0-0.8,0-1.1c1-0.2,2.1-0.5,3-0.7c1.2,0.5,2.3,0.9,3.3,1.3   c0.8,2.3,1.1,4.4,0.9,6.6c0,0,0,0,0,0c-2.8,5.8-4.8,10.9-2.3,17c3.5,0.1,6.8,0,9.9,1.5c2.7-2.2,5.6,1,8.4,0.7   c0.5-0.4,1.1-0.9,1.4-1.2c3.4,1.1,6.2,1.6,9.5,1.8c1.1-6.5,1.6-12.8,3.5-19c2.6,10.4-5,29.5,9.4,33.7c-13.1-32-3.3-46.9,18.4-69.7   c3.5-0.9,4.9-3.8,7.5-5.8c-7.5-0.1-12.6,9.5-18.3,13.7c-0.3-0.3-0.6-0.7-0.9-1c4.8-6.1,10.5-12.5,18.2-14.9   c1.7-0.4,3.3-1.4,4.1-2.9c11.6-19.3,34.4-25.9,54.2-33.7c-16.2,2.1-39.4,9.4-51.5,20.3c1.9,0.7,3.3,0.8,4.5,2.4   c-13.2-1-26.4,1.5-39.3-1.6c-5.9,2.2-12.9,1.3-18.1-2.3c-1.5-6.4,1.4-14.6-3.7-19.7c-1.2-6.1-7.4-9-12.8-5.3   c-5.8,5.1-9.8,0.7-15.7,1.1c-0.8,1.2-1.5,2.3-2.3,3.4c1.4,2.9,5.4,3.7,4.6,7.5c-1.5,0.5-2.8,0.1-4.1-0.7c-0.2-3.1-5.8-12.3-9-8.8   c-1.6,1.2-3.5,1.3-5.7,2.1c5.3,2.9,1.4,13.3-4,7.9c0.8-0.8,1.6-1.7,2.3-2.5c-3.8-22.9-15.9-1.1-25.7,5.2c-2.8,1.9-5.7,2-8.6,0.2   c-9.6-4.2-18.3,12.4-28.5,10.3c0,1.8,0,3.4,0,4.9c-0.4-0.1-0.7-0.1-1.1-0.2c-1.6-6.2-11.8-21.9-19.6-19.7   c9.9,4.6,13.6,15.3,20,23.5c1.6,1.7,2.9,9.5,5.6,7.9c0.3-1.2-1.3-2.4-0.3-3.9c5,2.7,6.1,8.5,5.7,13.8c18.8,4.2,41.8,37.2,59.8,16.1   c0.5,2.7-1.2,4.7-1.4,7.3c1.8,1.9,3.7-0.6,5.8,1.2c-3.4,8.2-18.9,9.1-18,18.1c1.3-0.1,1.9-0.8,1.7-2.2c0.3-0.5,0.6-0.9,0.8-1.4   c0.3,0.5,0.5,1,0.8,1.6c0,0,0,0,0,0c-1.8,2.5-0.4,6.5-1.6,9.6c-0.2,0.1-0.2,0.3-0.1,0.5C94.4,496.7,94.3,497.3,95,497.9L95,497.9z    M120.9,501.5c1.8-2.1,3.9-4,5.9-5.9c-1.1-1.2-1.1-1.2-2.6-1.4c-3.3,5.1-6.8,9.4-12.9,11.4C115.4,507.4,118.5,504,120.9,501.5   L120.9,501.5z M54.4,453.5L54.4,453.5c-0.6-0.9-1.5-1.3-2.8-1.3c0,1.7,1,2.2,2,2.8c2.9,3.1,5.4,6.9,10.1,7.2   C62.8,458.1,57,456.6,54.4,453.5z M529.3,267.8L529.3,267.8c-6.2,8-6.7,17.9-5.2,27.6c3.5,3.5,0.3,8.7,0.1,12.8   c0.3,0.4,0.6,0.8,0.8,1.1c-14.1,14.6-30.7,27.8-45.8,41.6c-18.5,9.9-37.2,19.4-55.6,29.7c-11.2,4.3-37.2,38.6-43.5,35.1   c0.1-0.5,0.1-1.1,0.3-1.9c-36.5,6.3-73.8,4.9-109.2,16.8c-0.6-0.2-1.4,0-1.6-0.8c3.5-2.3,7.4-2.5,11.3-3.8   c-12.8-6.1-41-11.2-53.3-3.5c0.3,0.4,0.6,0.8,1,1.3c-26.6,7-63.3,39.8-60.4,69.8c3.8,13.8,15.7,24.7,25.7,34.5   c3.3,3.3,9,5.5,10.1,10.2c9.9,6.3,23,5.4,33.9,3.9c3-3.1,7.1-3,10.6-3.5c8.6-6.1,19.7-4.2,29.2-7.9c0.4,0.3,0.8,0.5,1.2,0.8   c19-5.6,38.2-10.6,57.5-14.7c9.6-2.1,19.8-4.7,27-11.9c21.7-14.2,40.4-38.7,67.6-40.6c7.6-6.7,17.1-10.4,24-18   c9.5-10.7,22.8-18.8,28.9-32c16.9-15.8,32.1-35.8,45.5-54.7c0.1,1,0.2,1.6,0.3,2.7c7.1-10.2,13.1-21,22.9-28.7   c1,2.6-5.7,6.2-5.2,8.7c6.4-3.1,15.1-3.8,19.5-9.7c5.5-9.8,15.4-15.9,22.9-24.1c0.2-4.1-2.8-5.7-5.3-8.4c0.1-3.5,0.2-7.1,0.3-10.6   c-8.7-3.7-5.8-7.5-9.7-12.9c-9.1,0.9,0.1-6-11.7-11.4c-9.9,7-17.4,13.3-15-4.9c-4.7-2.7-10.3-3.9-15.2-5.1   c-0.7,3.9-1.5,7.8-3.3,11.5c0,0,0,0,0,0C529.7,267.2,529.5,267.5,529.3,267.8z M74.4,483.8c3.1-0.6,0.4-2.6-1.3-2.9   c-2.8-0.5-1.7,4.9-2.3,6.8c2.2,2,2.4,2.1,4.1,1.3c-0.1-1.6-2.3-1.9-1.9-4.2C73.3,484.7,73.8,484.2,74.4,483.8z M30,511.9   c0-0.6,0-1.2-0.7-1.5c-1.4-1.4-1.9-3.6-4.4-4.4C25.2,509.2,26.4,512.4,30,511.9c-0.2,1.7,1.3,2.3,2.8,2c0.3-1.4,0.4-2.5-0.9-3.3   C31.1,511.2,30.7,511.5,30,511.9z M174.8,514.2c1.3,2.3,2.5,4.6,5.5,6.1c-0.5-1.7-0.9-2.9-1.2-4c-1.6-1.5-3.2-2.4-4.3-4.1   c-0.4-0.3-0.6-1.1-1.5-0.7C173.7,512.6,173.9,513.6,174.8,514.2z M749.1,348.5c-0.9,0.3-1.7,0.8-2.2,2.2c1.1-0.6,2.3-0.4,3-1.4   c7.7-0.5,9.2-7.3,8.8-13.9C755.3,339.3,753.9,345.2,749.1,348.5z M15.9,435c0.6-3.2,4.6-1.9,5.1-4.8c-1-1-2.1-2.1-3.1-3.2   c-1.6,0.6-3.7,0.3-4.6,1.8c1,0.6,1.8,1.2,2.6,1.7c0,2.6-2.3,2.8-3.6,3.7c0,2.4,3.1,13.4,6.4,9.9c-1.2-2.2-2.4-4.1-3.5-6   c0-0.7,0-1.5,0-2.2C15.4,435.5,15.6,435.2,15.9,435z M482.7,514.1c-0.2-0.6-0.4-1.1-0.6-1.7c-1.9-1-3.8-0.5-5.7,0.1   c0.5,2.9,0.5,5.6,1.9,8.2c-0.1,1.3-0.3,2.7,0.6,3.9c-0.1,2.2,0.6,4.3,1.1,6.5c2.5-0.5,4.9-0.4,7-1.6c-0.5-2.1-0.6-3.7-2.2-5l0,0.1   c0-1.4,0.5-3-0.8-4.2c-0.9,0.2-1.9,0.1-2.5,1.1c-1-1-2.2-0.5-3.4-0.6c1.1-2.5,4-0.6,5.9-2C483.6,517.1,483.2,515.6,482.7,514.1z    M479,346.9c4-1.9,6.2-5.8,9-9c-0.3-0.6-0.6-1-0.8-1.4c0.3-0.3,0.5-0.5,0.8-0.8c0.4,0.2,0.9,0.3,1.3,0.5   c9.9-9.3,19.4-20.2,31.8-26.1c0-0.8,0-1.6,0-2.6c-13.5-3.5-25.3-12.5-39.4-13c-4.3,19.1-9.6,37.7-11.5,57.3   C473.4,350.4,476.2,348.7,479,346.9z M205.9,412.6c-1.1,0.7-1.4,1.7-2.1,3.2c15.6-9.3,35.4-21.7,54.2-16.8   c-13.5,7.6-27.4,13.6-40.9,21.1c-0.1,0.1-0.1,0.3-0.2,0.3c0,0,0-0.2,0.1-0.4c0.2,0.4,0.4,0.7,0.8,1.4c-4.4,0.5-7.1,3-10.3,5.6   c0.5,0.8,0.8,1.3,1.2,2c21.4-14.8,55.5-21.9,76.5-4.4c32-11.6,65.9-10.6,99.5-12.8c1.7-1.2,3.6-2.6,5.4-3.9   c1.5-4.7,5.5-7.3,8.6-11.3c-1.4,0.2-2.3,0.4-3.3,0.5c-1.7-1.9-3.9-2.1-6.4-2.1c-16.2-0.3-32.7,1.3-48.6-2   c-17-3.5-33.6-9.5-51.3-9.2c-19,0.6-36.6,9.5-54.2,15.1C223.7,399.8,211.3,401,205.9,412.6z M491.7,247.2   c-0.1,6.2-0.5,14.3-5.2,18.6c-1.6,6.7-4.2,22.5-4.3,25.8c14.2,0.5,26.3,9,39.5,13.9c3.2-5.9-1.1-9.5-0.8-15.3   c-3.1-13.9,9.7-24.1,10.7-37.1c-10.2-4.4-34.7-0.3-38.3-11.1c-4.3,0.6-5.9-2.9-4.6-6.7c1-1.1,1.9-2.2,2.8-3.2   c-4-7.7-6-15.9-8.3-24.1c-3.8,3-8.3,6.4-13.3,4c4.5-2.3,8.5-4.4,12.5-6.4c-0.6-3.3,2.4-9.4-1.4-11.2c-45,34.1-116.4,34.8-146.1,87   c-1.7,3.7-2,8.2-5.2,11.1c-9.5,14.4,1.5,31.5,11.7,42.4c17.6,22.3,33.7,46.4,59.2,60.2c6.3-5.6,12.3-11,19.3-15.6   c-2.8-2.8,1.7-4.9,2.7-7.1c0.1-2.5,1.9-3.2,3.7-4c17.7-6.4,32.6-18.3,40.8-35.5c-5.6-1.2-9.5-5.1-14.4-7.7   c-8.1-6.2-18.9-6.9-27.3-12.1c-16.4,2.8-39.7,3-47-14.7c25.7,21.6,54.4,15.4,73.3-11.3c0.9,0,1.9-0.2,2.3,1   c-5,9.8-13.2,16.3-21.9,22.1c13,5,24,13.3,35.5,20.5c8.1-26.6,13-55.5,22.4-81.5c-11,7.7-20.3,17.7-29.3,27.6   c-4.2-5.5,25-26.2,30.1-30.5C491.1,246.6,491.4,246.9,491.7,247.2z M383.6,494.1c-10,7.1-19.2,15.4-30,21.4   c-0.4-0.2-0.9-0.5-1.4-0.8c-29.6,14.4-64.2,13.1-93.9,26.4c72.5-8.6,148.7,5.9,219.9-6.7c-5.8-20.3-8.7-41.6-11.5-62.2   c-0.8-6.1,2.3-13.8-2.1-18.8c-1,0.3-1.9,0.6-2.6,0.8c-2.1-1.6-1.4-4.3-3-6c-4,2.9-6.4,8-11.2,9.4c-3,0.7-4.9,3.6-7.9,4.4   c-3.6,2.1-6.5,6.1-11.2,5.5C409.8,466.9,397.4,483.7,383.6,494.1z M798,302.5c-0.4-0.8-0.9-1.4-2.1-1.1c3.7,3.2,9.2,34-0.8,23.2   c0.9-10-5.2-18.8-4.6-28.5c-6.7-1.6-9.7-9.1-17-8.5c-6.8-1.4-16.9,4.5-16.8,12.1c3.4,1.5,7.1,1.2,9.9,2.7   c2.7,4.8,5.2,10.2,1.4,15.1c-5.5,8.5-4,19.4-6.9,28.9c-5.3,13.6-22.6,2.2-31.9,9.3c-2.4-0.3-2.4-0.3-2.6-3.4   c-1.5-1-2.3-3.1-4.4-3.1c-0.3,2.6-0.6,5.1-0.9,7.3c4.1,5.6,6.1,11.8,9.2,17.9c2.7,5.2,7.2,9.2,7.1,15.5c0.1,1.7,0.6,3.4,1.9,4.7   c3.5,2.9,1.7,7.1,3.6,10.8c5.8,1.1,12.5,0.2,17.8,3.1c0.2,0.6,0.4,1.2,0.5,1.6c10.6-0.6,20.4-4.1,29.9-8.3   c5.5-4.6,10.3-10.8,17.6-13.4c22.6-9.8,48.6-14.6,67.9-30.4c0.7-6,7.6-6.8,9.3-12.4c8.6-4.6,10.7-18.1,9.2-27.3   c-3.2-4.9-7.4-9.9-11-14.3c-12.7-0.9-23.7,5.3-36.3,6.1c1.1,3.2,3.7,8-0.4,9.9c-4.2-1.6-3.5-6.5-5.1-10c-2.1-0.4-4,0.3-6,0.7   c1.2,3.6,1.6,7,1.9,10.7c0.8,4.8-6.2,5.9-5.9,0.7c0.1-4-1.1-7.7-2.4-11.4c-2.8-0.7-2.8-0.7-4.9-0.3c1.6,5.2,5.7,15-0.9,18   c-2-2.4-2-2.4-2.2-4.2c-0.3-5.5-1.6-10.7-4.9-15.2c-1.9-0.2-3.3-0.2-5.2,0.1c1.7,5.7,6.5,16.1,0.2,19.9   C805.5,325,812.4,309.4,798,302.5z M467.1,338.4c-5.8,6.8-10.6,15.6-18.4,20.9c-7,7.2-20.2,9.4-24.7,17.8   c14.2-8.3,29.1-15.4,43.1-23.8C467.1,348.4,467.1,343.4,467.1,338.4z M495.5,228.6c3.7-8.9-2.7-26.9-11.2-31.2   C484.7,208.6,490.4,218.8,495.5,228.6z M627.4,373c-9.5-10.3-19.9-18.6-29.7-28.4c0.4,1.8,0.6,3.1,0.9,4.2   C607.9,357.2,616.1,367.7,627.4,373z M759.5,302.4c2.7,5.2,4.3,10,4.5,15.6c5.5-4.2,1.7-10.2-1.3-14.8   C762.2,303,761.2,302.8,759.5,302.4z M474.7,504c0.1,2.6,0.5,4.8,1.4,7c1.9,0,3.7,0,5.7,0c-0.6-2.5-1.1-4.8-2.3-7   C478,504,476.6,504,474.7,504z M49.3,501.3c-1-0.4-1.8-0.8-2.4-1.1c-1.6,2.2-3,4.1-4.6,6.3c2.3,1,4.5,1.4,7.6,1.5   C48,505.6,48.5,503.5,49.3,501.3z M33,438.4c2.4,2.9,1.8,5.6,5,7.7c0.3-3.2-2.1-10.2-4.7-11.9C32.6,435.9,33,437.3,33,438.4z    M40.4,464.8c0,2.1,0.1,4.1-1.4,5.7c-0.6,1.1,0.6,3.7,2.2,2.8c0.9-2.3,1.7-4.5,2.6-6.9C43.2,465.5,42.5,464.3,40.4,464.8z    M43.9,490.6c2,1.5,3.8,2.2,5.1,2c0.5-0.5,1.1-1.2,1.9-2.1c-1.3-1.5-2.3-3-4-3.7C45.8,488.1,44.9,489.2,43.9,490.6z M78.9,504.6   c-0.8-1.5-1.8-1.8-3-2c-1.4,1.5-0.4,3.4-0.9,5c-2.1,2.7-2.1,2.7-1.3,4.3C76.7,510.3,76.6,506.6,78.9,504.6z M41.6,449.5   c1,1.7,8,7.4,9.6,6.5C48.5,453.5,45.7,448.6,41.6,449.5z M66.7,470.5c-0.6,1.9-1.1,3.5-1.6,5c1.5,2.2,3.3,1.8,5.5,1.4   c-0.2-2.2-2.4-2-3.3-3.1C67.6,471.6,67.6,471.6,66.7,470.5z M79.4,520.8c2.8,2.4,2.8,2.4,5.8,1.9C85.8,519,81.1,518.2,79.4,520.8z    M38,459.4c2.4-3.3,2.4-3.3,4.4-4.3c-0.2-2-0.2-2-2.2-2.3c-1.2,1.7-2.3,3.3-3.6,5.2C37.1,458.5,37.5,458.9,38,459.4z M480.8,533.5   c2.8,0,5.5,2.7,8.4,0.3c-0.4-0.7-0.7-1.3-1-1.9C485.6,532.5,483.2,533,480.8,533.5z M13,455c0.3,2,0.4,3.6,1.8,5   c1.1-1,2.2-1.7,2.6-3.1C15.5,455.3,15.5,455.3,13,455z M91.5,498.6c1-1.4,1.9-2.7,0.8-4.6C89.2,494,87.3,497.4,91.5,498.6z    M76.7,470.1c2.2-0.1,4,2.1,6.4,0.6C82.2,467.8,78.2,467.3,76.7,470.1z M90.5,521.6c0.1,3,4.3,4,5.9,1.6   C94.9,521.9,93.1,521.5,90.5,521.6z M39.1,437.9c0.1,2.2,0.3,5.1,2.4,5.8c0.3-0.4,0.7-0.8,1.1-1.1   C41.8,440.7,41.8,438.7,39.1,437.9z M55.3,519.2c-2.3-1.7-3.5-1.7-6.1-0.6c0.9,2.3,3.3,1.1,4.6,2.3   C54.4,520.2,54.8,519.8,55.3,519.2z M7.8,417.3c-0.5,1-0.9,1.8-1.3,2.6c3,1.7,3.2,1.8,5.4,1.2C10.6,419.9,9.4,418.8,7.8,417.3z    M69.4,463.1c1.7,3.7,1.8,3.8,5.4,3.4C74.1,464.2,72,463.4,69.4,463.1z M42.3,518.4c0.5-4-1.8-4.8-3.8-1.3   C39.5,517.8,40.5,518.7,42.3,518.4z M25.2,430.7c1.3,2.1,2.2,3.6,3.2,5.1c0.6-0.2,1-0.3,1.5-0.5c0-0.7,0-1.3,0-2.3   C28.2,433.1,27.9,430.7,25.2,430.7z M89.6,507.5c-2.2-2.3-5.8-1.8-4.8,1.9C86.8,508.9,87.6,508.7,89.6,507.5z M55.2,526.4   c1.7,0.1,4.4,2.3,4.9-0.1c-1.3-1.4-2.8-2.4-4.9-1.5C55.2,525.3,55.2,525.7,55.2,526.4z M99.2,472.4c0.7-2.7-6-2.5-6.4-0.6   C95.2,471.4,97,473.3,99.2,472.4z M48.4,497.7c3.1,3.7,3.9,4.1,6,3.1C53.2,498.6,51.2,498.2,48.4,497.7z M107.8,515.5   c2-0.1,5.6,0.9,4.5-2.1c-1.4,0.2-3-0.4-4.6,0.5C107.8,514.3,107.8,514.8,107.8,515.5z M48.4,511.3c1.8,1.9,5.2,3.7,5.7,0   C52.4,511.3,50.7,511.3,48.4,511.3z M105,508.9c-2-1.7-3.4-2.7-5.5-1.7c0.2,0.6,0.3,1.2,0.5,1.7C101.5,508.9,102.8,508.9,105,508.9   z M84.5,480c-3.6-2.5-3.6-2.5-5.5-1C80.6,480.8,82.5,480,84.5,480z M91.6,478.3c0.8,1.4,2,1.3,3.4,0.7c-0.1-0.6-0.3-1.2-0.4-1.7   C93.4,477.1,92.3,476.9,91.6,478.3z M76.6,489.9c0.1,0.8,0.2,1.4,0.3,2.1c1-0.1,1.8-0.3,2.6-0.4c-0.1-0.7-0.2-1.1-0.2-1.7   C78.5,489.9,77.8,489.9,76.6,489.9z M50.1,521.7c-0.9,1-1.2,1.4-1.8,2c0.6,0.6,1,1,1.7,1.7c0.6-0.7,1-1.2,1.6-1.9   C51.1,522.9,50.8,522.5,50.1,521.7z M128.6,512.3c1.5,0.2,1.5,0.2,2.7-0.5c-0.4-1.3-1.7-1.8-2.8-0.9   C128.5,511.4,128.5,511.9,128.6,512.3z M133.7,500.2c1.1,1.6,1.3,1.6,2,0C135,500.2,134.4,500.2,133.7,500.2z M131,500.8   c-0.6,0-1.2,0.1-1.8,0.1C130.3,502.2,130.3,502.2,131,500.8z" />
	<path fill="#202630" d="M632.1,377.2c0.3-0.5,0.6-1,0.8-1.5c3.6,5.3-2.7,13.5-5.2,18.6c-0.1-0.6,0.1-1.3-0.7-1.5   C628.5,388.2,634.2,381.7,632.1,377.2z" />
	<path fill="#1E1E1F" d="M595.3,100.6c0.2-0.6,0.5-1.1,0.7-1.7c1.4,4,3.7,7.9,4.3,12.1c-1.2,0.5-0.5,1.6-0.9,2.4   C598.5,109,596.1,105.1,595.3,100.6z" />
	<path fill="#271F1E" d="M585.7,198.5c-0.1-1.3-0.1-2.6-0.2-3.9c0.6-0.5,1.1-1,1.6-1.5c3.3,1.7,6.6,3.4,9.8,5.1   c-0.6,0.2-1.1,0.5-1.7,0.7c-2.9-1.3-5.8-2.7-8.8-4C586.2,196.1,585.9,197.3,585.7,198.5z" />
	<path fill="#352B2B" d="M25.5,399.5c-1.5,0.7-0.2,1.8-0.4,2.7c-1.1,0.2-1.5-0.4-1.8-1.2c0.2-0.7,0.4-1.5,0.7-2.2   C24.8,398.2,25.3,398.6,25.5,399.5z" />
	<path fill="#352B2B" d="M27.8,402.4c-1.3-0.6-2.2-1.4-2.3-2.9C26.7,400.2,27.5,401.1,27.8,402.4z" />
	<path fill="#FBDFD3" d="M547.8,267.8c1,7.6,7.3,4.2,11.2,0.8c2.5,0.1,4.7-1.3,7.2-1.5c7.8,4.8,1.5,7.2,6.1,9.7   c0.4,0.8,0.8,1.7,1.1,2.5c-1.3,0.9-3.1,0.6-4.1,2l0,0c-5.1,4.9-11,8.4-14.2,15c0.3,0.5,0.6,1.1,1.1,1.9c7.2-4.2,16.1-5.9,20.5-13.9   c2.6,0.5,3.9,2.8,5.9,4.3c-4.8,8.1-15.9,10.4-21.9,18.1c0.1,0.2,0.3,0.5,0.4,0.7c1.4-0.1,2.8-0.9,4.2,0.1c0.1,0.9,0.6,1.7,1.1,2.4   c2.5-0.4,3-2.4,4.1-4.2c1.1-0.2,2.5,0.3,3-1c0,0,0,0,0,0c1.1-0.4,2.5-0.3,3-1.5c0,0,0,0,0,0c3,0,5-3.1,8.1-2.9   c0.6,0.7,1.1,1.3,1.7,2c0.1,0.5,0.2,1,0.2,1.4c-16.5,0.2-18.8,20.9-30.8,27.6c0.5-32.7-27.4,23.5-35.2,27.8   c-28.7,29.8-54.2,62.4-86,89c-32.3,6.1-52.7,38.2-83.7,48.8c-1.9-1.9,2-3.5,1.5-6c0,0,0,0,0,0c1.7-1.4,1.9-4,3.2-5.9   c0.8-0.6,0.7-1.1-0.2-1.4l0,0c1.9-4.9,4.4-13.1-2-15.5c-3.5,1.2-5.9,3.2-7.5,6.1c-11,3.1-13.6,14.5-22.6,19.9   c-10.1,5.9-18.6,15.4-29.4,19.7c-16,4.3-32.1,8.4-48.5,10.4c6.3-10.3,18.9-17.2,20.5-30.3c-1-6.8,12.2-16.4,1.7-20.2   c-9.4,4.6-14.4,14.4-21.1,22.1c-17.4,14.9-39,27.9-62.6,21.7c-41-33.6,8.4-83.4,44.6-94.1c-0.4-0.5-0.7-0.9-1-1.3   c12.3-7.7,40.4-2.6,53.3,3.5c-3.8,1.7-10.7,1.4-12.4,5.2c36-11.8,74.5-11.3,111.8-17.4c-0.1,0.8-0.2,1.4-0.3,1.9   c3.1,2.4,7.4-3.4,10-5.2c10.5-10.7,21-21.7,33.5-29.9c18.4-10.2,37.1-19.8,55.6-29.7c15.1-13.8,31.7-27,45.8-41.6   c-0.3-0.3-0.5-0.7-0.8-1.1c0.2-4.2,3.4-9.3-0.1-12.8c-0.9-8.7-2.5-18.9,5.2-24.9c0-1,0-1.8,0-2.6l0,0c0.2-0.3,0.4-0.6,0.7-0.8l0,0   c3.2,1,3.2,1.1,6.2,0c1.1-0.4,2.2-0.9,3.1-0.5C542.1,267.5,545.1,266.5,547.8,267.8z M415.4,429.1c-1.8-0.4-2.8,0.4-3.4,2.3   C413.6,431,414.7,430.5,415.4,429.1c0.8-0.5,3-0.8,2-2.1C415.9,426.9,415.9,428.2,415.4,429.1z M402.7,434.1   c-6.1,2.2-12.4,2.9-18.6,3.6c8.3,7.4,19.2-1.7,26.9-6.3c-0.5-0.3-0.8-0.4-1.2-0.7C407.8,432.8,405,433.1,402.7,434.1z M282.6,478.3   c8.8-5.7,18.7-10.7,24.9-19.8C299.3,461.1,281.5,468.4,282.6,478.3z M437.1,424.7c-4.8-0.2-10.1,3.3-14.1,5.5   C427.6,432.5,433.7,428.1,437.1,424.7z M373.2,420.2c2.3,0.1,5.7-1,5-3.5C376,417.1,374.4,418,373.2,420.2z M440.9,423.2   c2.5-0.2,4.6-1.7,5.2-4C443.8,419.8,442.5,421.2,440.9,423.2z M310.3,455.2c2.2,0.1,4.9-0.6,4.8-3.2   C311.8,453.3,311.8,453.3,310.3,455.2z M264.2,431.9c-2.9-0.5-3.3-0.3-4.5,1.6C261.3,433.8,262.4,433.1,264.2,431.9z M531.1,302.6   c2.4-0.2,2.6-2.3,1-2.9C530.3,299.5,530.9,301.5,531.1,302.6z M361.4,478.3c-2.2-0.8-2.5-0.5-2,2.2   C360.6,480.4,361.3,479.9,361.4,478.3z M453.2,413.8c1.7,0.4,1.9,0.3,1.8-1.6C453.9,412.1,453.4,412.7,453.2,413.8z M249.1,437.8   c1,0,1.7,0,2.5,0C250.7,436.5,250.7,436.5,249.1,437.8z M526.8,306.3c2-0.1,2.1-0.2,1.4-2.1C527.7,304.9,527.3,305.5,526.8,306.3z    M461.4,407.1c1-1.1,1.5-1.6,2.2-2.3C461.6,404.8,461.6,404.8,461.4,407.1z M326.1,447.8c0.8-0.7,1.2-1.1,1.6-1.5   C326.6,445.6,326.2,446,326.1,447.8z M422.7,423.5c-0.1-0.2-0.3-0.3-0.4-0.5c-0.8,0.1-1.9,0.6-0.9,1.6   C421.9,424.3,422.3,423.9,422.7,423.5z M370.9,420.3c-0.5,0-0.9,0.1-1.3,0.1C369.4,421.9,370.9,421.9,370.9,420.3z M466.6,402.4   c0.9-0.6,1.9-0.8,1-2.1C466.6,400.6,466.3,401.2,466.6,402.4z M318.8,449.9c-1.5,0.3-1.5,0.3-1.4,1.3   C317.8,450.8,318.2,450.5,318.8,449.9z" />
	<path fill="#4B65C5" d="M632.1,377.2c5.1,11.8-38,49.1-23.7,55.3c1.1,12.4,0.9,25,0.8,37.5c0.5,0.1,0.8,0.2,1.3,0.3   c0.1,4-0.5,8.4-2,12.1c-0.2-0.2-0.5-0.3-0.7-0.6c-1.2,2.8-3.8,5.1-3.9,8c1.2-0.6,2.1-1.1,3.1-1.6c-6.7,30-20,28.5-35.3,46.8   c-12.8,5.5-26.9,2.8-40.4,3.5c-9,1.7-17.3,0.2-26.2-0.1c-7.3-0.3-14.5-5.1-15.8-12.7c-3.5-13.7-8.6-26.9-12.5-40.4   c3.3-1.1,6.9-0.8,10.3-0.7c4.8,10.2,1.4,21,3.2,31.4c3.9-4.9,0.8-26.3-2.5-32.3l0.3,0c2.1,1.2,4.2,0.8,6.3,0.5   c-0.9-10.6-3.4-21.6-5.6-32.2c1.7,1.7,3.4,3.4,5.1,5.1c1.5,8.1,6.5,17.8,7.9,26.9c4.8,0.7,10.6,0.9,15.1,0.3   c2.5,1.6,3.8,7.8,7.2,6.2c1.3-6.5-3.2-12.6-6.5-17.9c2-8.4-3.8-17.9-3.7-26.7c2.4,1.3,4.9,2.6,7.3,3.9c3.9,11.9,9.2,23.8,8.3,36.8   c1.9,0,3.6,0,5.2,0c6-5.9,17.9-8.8,16.9-18.4c0-13.1,0.3-26.2-0.8-39.1c3.9,5.6,6,11.5,9.3,17.7c-1.3-9.5-8.3-18.4-12.2-27.4   c0.5-9.5-6.1-19.3-8.3-28.7c0.3,0,0.5-0.1,0.8-0.1l0,0c0.8,1.4,1.9,2.6,3.6,3c1.5,1.5,3,3,4.7,4.3c0.2,0,0.4,0.1,0.7,0.1l-0.1-0.1   c0.3,0.3,0.5,0.5,0.8,0.8l-0.1-0.1c0.3,0.3,0.5,0.5,0.8,0.8l-0.1-0.1c7.5,14.2,8.9,31.1,10.7,46.9c16.1-29.9-7.2-70.3-16.1-99.9   c-0.5-0.1-0.8-0.2-1.2-0.2c0.2-0.4,0.4-0.8,0.8-1.4c2,2.2,4.2,0.7,6.6,0c8.2,10,11.5,22.7,16.9,34c-0.3-10.8,4-20.8,3.5-31.4   c-0.6-3.2-1.4-7.3,1.1-9.8c1-1.4,3.6-1.8,3.6-3.8c4.5,3.3,9.4,6.2,13.3,10.2c4.7,7.9,0.7,16.5,0.8,25.7c-1.2-0.1-1.5-1.9-3.2-1.5   c1.8,3.2,3.9,6.1,3.9,9.9c-2.8,6.2,2,13.5-1.5,19.5c-2.4,3.4,5.3,23,8.9,22.8c-2.5-5.1-5.3-10.1-6.7-15.7   c12.4-8.2,20.7-20.3,30.3-31C625.5,375.3,628.8,376.5,632.1,377.2z M495.5,530.2c2.5-6.7,9.4-9.2,13.1-14.6   C503.1,515.6,492.1,525.2,495.5,530.2z" />
	<path fill="#FBDFD3" d="M378.5,298.4c7.3,17.7,30.6,17.5,47,14.7c8.4,5.2,19.2,5.9,27.3,12.1c4.9,2.6,8.8,6.5,14.4,7.7   c-8.2,17.2-23.1,29.1-40.8,35.5c-1.8,0.8-3.7,1.6-3.7,4.1c-1,2.2-5.5,4.3-2.7,7.1c-1.2,1-2.4,1.8-3.8,2.4   c-16.8-20.1-25.8-11.7-44-41.4c-8.7-9.2-18.3-17.7-29.5-24c-7.5-6-6.9-18.1-11-26.5c23.2-60.6,102.9-59.6,149.3-95.5   c3.7,1.8,0.7,7.9,1.4,11.2c-4,2.1-8,4.1-12.5,6.4c5,2.3,9.5-1.1,13.3-4c2.3,8.2,4.3,16.3,8.3,24.1c-0.9,1-1.8,2.1-2.8,3.2   c-1.5,0.5-0.5,2-1.2,2.8c-2.5,2-5,4-7.5,5.9c-8.9,6.8-12.8,17.4-23.2,22.7c1.1-4.9,1.3-9-1.9-12.5c-9.8,4.8-11.3,18.8-19.9,25.5   c-6.6,8.3-18.9,13.4-29.5,11.2c-11.5,2.1-22.9-12.4-32.7-7.7c-2.8,1.2-3.8,5.9-1.1,7.6c2.4,1.7,3.5,5.2,6.6,5.8   C379.5,297.1,378.2,297.8,378.5,298.4z M408.9,248c0.9-0.3,1.8-0.6,2.2-1.8c-1.9-0.4-3,1-4.4,1.9C407.7,249,408.3,248.7,408.9,248z    M380,263.6c2.8,1.5,12.5-7.6,13.3-10C388.2,255.7,384.8,259.9,380,263.6z M382.6,312.1c-0.2-2.7-5.9-10-8.6-9.9   C375.7,305.3,379.7,309.9,382.6,312.1z M488.1,233.9c-3,0.4-4.9,1.6-5.1,3.9C484.8,236.6,486.4,235.8,488.1,233.9z M392.7,325.3   c-0.9-2.2-0.9-2.2-3.1-2.8C390.3,324.6,390.6,324.9,392.7,325.3z M455.4,217.4c1,0.5,2,0.5,3-0.2   C457.5,215.6,456.9,215.6,455.4,217.4z M465.9,214.3c-2.2-0.6-2.2-0.6-3.1,1.1C464.1,215.5,465.2,215.8,465.9,214.3z M479.4,240   c1.2,0.1,1.2,0.1,2.4-1.8C480.3,238.1,479.9,239.1,479.4,240z M399.3,252.5c2.1-0.3,2.7-1.1,3.6-2.5   C401.2,250.2,400.5,251,399.3,252.5z M366.7,281.7c-0.5-0.2-0.8-0.3-1.1-0.5C365,282.5,365.9,283,366.7,281.7z M418,243.9   c1.4,0.2,1.4,0.2,1.5-1.1C419,243.2,418.6,243.5,418,243.9z M386.4,317.5c-0.2,0-0.3,0-0.5,0C386,318.9,386.4,318.8,386.4,317.5z    M448.7,220c0.2,0.6,1.1,0.6,1.1-0.1C449.4,219.5,449,219.6,448.7,220z" />
	<path fill="#FBDFD3" d="M585.7,198.5c0.2-1.2,0.5-2.3,0.7-3.6c11.4,4,20.3,11.8,27.9,20.9c13.1,10.2,30.6,13.1,42.8,24.9   c12.5,9.9,24,20.8,36.4,30.8c12.2,6.7,24.5,13.6,35.9,21.8c8,6.6,19.1,5.4,28.1,10.2c6.1,15.3,0.6,36.5-15.8,42.7   c-16.9-16.7-37.4-32.2-60.1-40c-4.1,3.6,4.4,5.8,6.2,9.7c-30.2-14.5-66.1-10.9-93.2-32.9c-8.4-4.3-13.8-15.1-23.8-15.3   c-0.5-0.5-1-1-1.5-1.6c0-0.5,0-1,0-1.6c5.1-2.5,5.4-7.6,7.1-12.1c9.5-6.8,10.2-18.6,11.9-29.1c5,1.4,10.1,0.8,15,0   c2,0.8,2,0.8,3-0.7c-0.2-0.3-0.4-0.6-0.7-0.8c6.4-9.8-13-13-18.9-8.4c-0.8-0.8,0.1-2.1-1.1-2.6   C584.3,206.8,585.8,202.6,585.7,198.5z M612.7,277.6c3,0.8,5.9,2,9.6,1.9c-2.1-4.4-5.6-1.4-8.5-3c-2.9-2.6-4.1-3.2-6.1-3.1   C608.6,275.7,610.4,277,612.7,277.6z M606.7,271.6c-6.6-5-15.9-8.2-21.7-14.7C586.3,265.2,599.1,271,606.7,271.6z M620.5,225   c-3.3-3.3-7-2.7-11.5-1.7C613.3,223.8,616.8,227.1,620.5,225z M624.6,282.9c0.9,1.9,5.5,3.5,5.6,1.1   C628.6,283.1,626.9,282.5,624.6,282.9z M633.6,285.4c0,0.3-0.1,0.6-0.1,0.8c1.1,0,3.7,1.8,3.6-0.4C636,285.5,634.8,285,633.6,285.4   z" />
	<path fill="#E4E4EB" d="M729,355.7c9.3-7.1,26.6,4.3,31.9-9.3c2.9-9.4,1.4-20.4,6.9-28.9c3.8-4.9,1.3-10.3-1.4-15.1   c-2.7-1.5-6.5-1.1-9.9-2.7c-0.1-7.6,10-13.5,16.8-12.1c7.3-0.6,10.3,6.9,17,8.5c-0.6,9.7,5.5,18.5,4.6,28.5   c9.6,10.5,4.8-17.7,2-21.2c0.3-0.3,0.7-0.6,1-0.9c14.5,7,7.5,22.4,14.3,26.7c6.2-3.8,1.5-14.2-0.2-19.9c1.9-0.3,3.3-0.3,5.2-0.1   c3.3,4.5,4.6,9.6,4.9,15.2c0.3,1.8,0.3,1.8,2.2,4.2c6.5-3,2.5-12.8,0.9-18c2-0.4,2-0.4,4.9,0.3c1.3,3.7,2.5,7.4,2.4,11.4   c-0.3,5.2,6.7,4.2,5.9-0.7c-0.3-3.7-0.7-7.1-1.9-10.7c2-0.4,3.9-1.1,6-0.7c1.6,3.5,0.9,8.4,5.1,10c4.1-1.9,1.6-6.7,0.4-9.9   c12.6-0.9,23.5-7.1,36.3-6.1c3.4,4.3,7.6,8.9,10.5,13.8c-15,13.2-18.7,36-37.2,45.7c-44.5,20.6-53.7-8.5-64.8,25.9   c-12,6.4-23.5,10.5-37,11.7c-3.4,0.8-8.6-0.5-10.5-3.4C741.1,383.4,735.1,369.3,729,355.7z" />
	<path fill="#E4E4EB" d="M550.1,256.7c-16.2-7.6-34.5-9-51.4-14c-0.9-2.1-1.2-4.6-3.4-6.3c10.3-10.2,2.8-26.3-3.8-36.5   c-5.8-6.8-14-11.7-18.3-20c1.6-7.1,3.3-14.2,6.5-21c4.1-1.2,8.3-2.5,12.7-3.9c0.7,1.9-0.1,9,3.8,6.3c-0.1-3.3-1-8.2,2.1-10.4   c0.3,0,0.6,0,0.9,0c1.1,5.8,4.7,6,5.3-0.1c0.5-4.5-0.6-9.4,3.1-12.9c0.7,0.7,1.1,1.9,2,2.4c1.5-1.3,1.5-1.3,2.2-9   c1-1.1,1.8-2.9,3.2-3.7c2.7,8.1,6.5-1.7,4.4-5.8c21.7-12.3,12.5-67.3,38.9-65.6c-0.2,0.1-0.3,0.3-0.3,0.5c-0.2,0.3-0.5,0.6-0.7,0.9   c0,0,0,0,0,0c-0.4,0.5-0.8,1.1-1.2,1.6c-0.2,0.1-0.3,0.3-0.3,0.5c-0.5,0.8-1,1.6-1.4,2.4c0,0,0,0,0,0c-0.3,0.5-0.5,1-0.8,1.5   c0,0,0,0,0,0c-22.6,37.4-5.5,76-0.5,115c0.8,0.4,1.4,0.7,2.1,1c-8.1,23.9-18.2,53.7-3.9,76.7C550.8,256.5,550.5,256.6,550.1,256.7z   " />
	<path fill="#EECABA" d="M350.2,496.1c0.2,0.3,0.4,0.6,0.7,1c24.1-9.8,42.7-27.7,63.8-42.2c0,0.5,0,0.9,0,1.5   c5.7,2.2,15.8-3.4,17.3-7.5c-1.1,0-2.2,0-3.3,0c1.8-1.2,3.9-0.6,5.9-0.7c1.1,1.3,3.5-0.5,4.4-1.6c-0.4-0.7-0.8-0.4-1.4-0.5   c30-26.9,55.4-57.7,83-86.9c7.7-4.3,36-60.8,35.2-27.8c12-6.7,14.3-27.4,30.8-27.6c-0.1-0.5-0.2-0.9-0.2-1.4   c2.9,1.2,3.2,3.7,3.6,6.3c-7.6,8.2-17.4,14.3-22.9,24.1c-4.5,5.8-13.1,6.6-19.5,9.7c-0.6-2.5,6.1-6,5.2-8.7   c-9.8,7.7-15.8,18.5-22.9,28.7c-0.1-1.1-0.2-1.8-0.3-2.7c-13.4,18.8-28.6,38.9-45.5,54.7c-6.1,13.2-19.4,21.3-28.9,32   c-6.9,7.6-16.4,11.3-24,18c-27.3,1.9-46,26.4-67.6,40.6c-7.2,7.2-17.3,9.8-27,11.9c-19.4,4.1-38.6,9.1-57.5,14.7   c-0.4-0.3-0.8-0.6-1.2-0.8c-9.5,3.8-20.6,1.8-29.2,7.9c-3.5,0.5-7.6,0.4-10.6,3.5c-0.5-0.1-0.9-0.2-1.3-0.3c0-0.4,0-0.8,0-1.1   c-1-0.5-1.8-0.6-2.7,0.1c0.6,0.4,1,0.7,1.8,1.2c-11.2,0.2-21.9,3-31.7-3.9c-3.9-8.5-15.4-11.9-20-20.5c23.6,6.2,45.1-6.8,62.6-21.7   c6.7-7.6,11.7-17.5,21.1-22.1c10.5,3.8-2.7,13.4-1.7,20.2c-1.6,13-14.1,20-20.5,30.3c16.4-2,32.6-6.1,48.5-10.4   c10.8-4.3,19.3-13.8,29.4-19.7c9-5.4,11.6-16.9,22.6-19.9c1.5-2.9,4-4.9,7.5-6.1c6.3,2.4,3.9,10.7,2,15.5c-1.7,0.5-1.7,0.5-1.7,2.9   c0.3,0.1,0.7,0.1,1,0.2c-0.8,1.4-1,3.3-2.3,4.2c-0.3-0.4-0.6-0.9-1.1-1.6c-0.3,1.4-1.2,1.8-0.1,2.6c0.4-0.3,0.8-0.7,1.2-1   c-0.2,1.8-0.9,3.3-2.2,4.5c-0.4-0.4-0.7-0.8-1.2-1.3c-1.3,1.3-2.1,2.5-1.8,4.2C349.3,498.8,349.2,496.9,350.2,496.1z M528.5,356.3   c-0.9,0.9-2.1,1.5-2.9,2.9c2.8,0.4,9.8-8.6,5.2-8.4C530.8,353,529.5,354.6,528.5,356.3z M346.9,499.4c-1.2-0.5-1.8,0.2-2.4,0.8   c-5.2,5.1-12.2,7.1-18.3,10.6C333.4,514.5,347,508,346.9,499.4z M245.9,516.6c-6.7,5.2-10,13.6-18.8,15.5   C233.7,536.9,246.1,523.1,245.9,516.6z M544.8,334.4c-2,2.4-3.3,5.1-3.3,7.4C543.5,340.7,549.2,335.5,544.8,334.4z M220.8,538.9   c-0.1,0.3-0.1,0.5-0.2,0.8c1.1,0.4,3.1,2.4,3.8,0.6C224,538.6,222.2,538.3,220.8,538.9z M249.4,503.2c0.5-1,1.3-2-0.1-3.2   C248.7,501.1,247.6,502.7,249.4,503.2z M442.9,445.2c2.9-0.2,3.2-0.5,2.3-2.2C444.6,443.6,444,444.2,442.9,445.2z M537.3,345.2   c-0.2-0.1-0.5-0.3-0.7-0.4c-0.7,0.8-1.4,1.5-1,3.4C536.3,346.9,536.8,346.1,537.3,345.2z M245,510.5c1.7-0.1,2.7-1.1,1.1-2.2   C245.8,508.9,245.5,509.5,245,510.5z" />
	<path fill="#CFCFDD" d="M549.4,197.8c0.8-6.3,4.8-11.6,5.9-18.1c-0.7-0.3-1.3-0.6-2.1-1c-0.4-1.6-0.3-3.3-0.1-5   c0.3,1.5,0.6,3,1,5.3c3.2-8.8-1.2-17.8-4-25.9c-3.6-24.6-9.3-49.4-1-73.7c-0.1-0.1-0.3-0.1-0.4-0.2c-0.7,1.1-1.5,2.1-2.2,3.2   c0.2-3.5,1.7-7.6,3.6-10.6c-0.3,2.3-1.6,4.2-0.3,6.6c1.5-4.6,3.2-8.7,4.9-13.2c0,0,0,0,0,0c0.5-0.9,1.2-1.9,1.5-2.8   c0.5-0.8,1-1.6,1.5-2.4c0,0,0,0,0,0c0.4-0.5,0.8-1.1,1.2-1.6c0.2-0.1,0.3-0.2,0.3-0.4c12.2-10.2,25.6,20.5,30.3,29.1   c15,27.7,12.5,50.2,1.6,78.7c0.1,0.2,0.3,0.6,0.6,1.3c-2.7,5.3-5.5,10.8-8.3,16.3c1.3,5.7-1.3,11.7-0.7,17.5   c-1.5,13.9,7.4,31.5-3.8,42.6c-5.1,6.4-15.3,6.8-19.1,13.9c-3.4,1-6.6,0.8-9.7-0.7c0.3-0.1,0.7-0.2,1.3-0.3   c-7-7.4-5.8-19.2-6.5-28.7c2.3,8.2,2.8,17,7.1,24.4c-5.6-22.6-7.4-33-1.2-56C550.2,196.9,549.8,197.3,549.4,197.8z M570.1,139.8   c-1.9-14.8-5.5-30.5-10.5-44c3,18.7,11.1,37.2,9.8,56.7c-1.2,6.1-1.2,6.1-0.3,8.1c7-22,4.6-49.4-7.4-68.7c-1.6,3.4,4,7.2,5.3,10.4   c-0.2,12.6,5.3,24.7,3.7,37.6C570.5,139.8,570.3,139.8,570.1,139.8z M587,110.3c-0.3-5.9-1.9-11.5-4.6-16.8   c-3.1,3.9,0.7,11.5,1.6,16.2c2,11.8,2.6,23.7,1.2,35.5C591.9,135.5,586.7,121.6,587,110.3z M572,210.3c0.2-0.9,0-1.7-1.1-2.2   c0,0.5-0.1,1-0.1,1.4c-7,8.4,0,19.5-1.7,29c-0.4,2.2,0,4.6-0.8,6.8c-0.3,3.1,3.7,1.2,3.3-1.1C573.8,232.8,572.6,221.5,572,210.3z" />
	<path fill="#B7BDD5" d="M468.7,485.9c2.2,16.4,4.9,32.7,9.5,48.6c-71.3,12.6-147.4-1.9-219.9,6.7c29.7-13.2,64.3-12,93.9-26.4   c0.5,0.3,0.9,0.5,1.4,0.8c10.7-6,20-14.3,30-21.4c2.1,1.7,6.3-0.8,8.8-1.7c7.4-1,15-1.6,21.7-5.4c9.9-3.5,19.8-14.3,30.7-11   c0.4,3.4,1.4,3-4.4,13.5c9.3,0.2,19,0.6,28.2-0.2C468.6,488.1,468.7,487,468.7,485.9z" />
	<path fill="#FBDFD3" d="M124,472.1c0,0.4,0,0.7,0,1.1c2.4,1.9,4.4,2.3,3.4,5.6c-0.8,2.7-1.1,6-2.8,8.3c-4.5,3.9-4.3,11.2-9.5,14.4   c-0.6-0.1-1.3,0-1.5-0.8c0.7-2.2,6-6.1,3.3-7.8c-2.1,0.9-2.2,3.9-5,4.3c-0.9-0.6-1.8-1.3-3-2.1c2.2-2.9,4.9-4.7,8.1-5.5   c1-3.3-1.9-1.3-2.8-3.1c0.4-0.4,0.8-0.8,1.1-1.1c1.1,0.4,1.9,0.7,2.8,1c3-6-4-15.4-7.3-6.5c0.2,0.6,0.4,1.1,0.6,1.5   c-0.6,0.7-1.2,1.4-1.6,2c-1.3-0.3-2.4-0.5-3-0.6c-1.3-0.4-1-2-2.3-2c-3.7,1.9-4.6,7.7-7.1,11c-1.7-1.2-0.4-4-0.7-5.9l0,0   c1.9-8.3,10.2-9.2,14.6-16.1c-2.1-1.7-4,0.7-5.8-1.2c0.1-2.6,1.9-4.5,1.4-7.3c-18.1,21.1-41-11.9-59.8-16.1   c0.4-5.3-0.7-11.1-5.7-13.8c-1,1.5,0.6,2.7,0.3,3.9c-2,2.3-7.4-10.2-4.9-11.6c0-1.6,0-3.1,0-4.9c10.3,2.1,19-14.5,28.5-10.3   c3,1.8,5.8,1.7,8.6-0.2c9.8-6.2,22-28.1,25.7-5.2c-0.7,0.8-1.5,1.7-2.3,2.5c5.5,5.4,9.3-5,4-7.9c2.2-0.8,4-0.8,5.7-2.1   c4.2,0,6.8,5.1,7.7,8.7c3.2,0.6,7.1,2.7,6-2.5c1.2-2.4-0.9-4.5,0-6.8c3.1-0.8,5.6,1.7,8.7,0.2c6.7-4.1,14.4-6.7,16.9,3.1   c4,8,0.1,16.4-0.3,25c-2.4,16.4-5.3,33.9-19.6,44.2l-0.1-0.1l0.2,0.1c-1.3,0.3-0.8,1.9-1,2.8C124.8,471.1,124.4,471.6,124,472.1z    M62.6,415.3c-4.8,4.8,1.9,21.5,5.9,26.1c2.1,0.3,3.2,2.1,4.8,3.2c0.4-0.3,0.7-0.4,1-0.7c-0.5-2.2-0.8-4.8-2.5-6.3   C63.3,432.8,72.3,417.1,62.6,415.3z M78.8,432.3c3.6-1.7,1.1-3.8,0-5.8c0.1-1.9,0.2-3.6,0.2-5.5c-1.8-0.9-2.1-3.3-4.4-3.9   c-0.5,0.6-1,1.3-1.6,1.9c-0.9-0.4-1.7-0.8-2.5-1.2C68.8,423,75.3,428.9,78.8,432.3z M110.6,458.2c1.9-2,1.9-4,2.1-6.1   c-2.4,1.2-2.5,1.4-3.5,4.6C109.5,457,109.9,457.5,110.6,458.2z M114.8,444.9c-1.9-0.1-3.3,3.7-2.3,5.2   C114.7,450,116,446.6,114.8,444.9z" />
	<path fill="#5876E8" d="M488.6,452.1c2.3,10.6,4.7,21.6,5.6,32.2c-2.1,0.3-4.2,0.7-6.3-0.5c-1.8-3.8-4.3-7.1-6.7-10.5   c4.4-2.5-11.2-17.6-13.1-21.7c-1.5-0.4-3.3-0.8-5.3-1.3c-0.4-1.7-0.8-3.3-1.2-5.2c17.2-17.6,34.1-35.5,50.4-53.9   c2.8,0.2,4.6-2.3,7.7-1.4c30.8,24.7,36,47.3,30.5,85.1c-5,3.7-10.3,7.7-15.7,11.7c-1.5,0-3.2,0-5.2,0c0.7-12.7-4-24.5-8.3-36.1   c1.4,0.5,2.7,1.4,4.2,1.3c0.1-0.2,0.1-0.3,0.2-0.5c-4.2-2.3-7.8-4.6-9.7-9.3c3.3-2,7.1,5.6,9.1,3.9c-3.6-5-38.8-25.5-42.2-19.6   c1,1.7,2.7,1.7,4.2,1.9c9,1.7,17.1,6.6,25.3,10.6c-0.5,0.8-0.9,1.6-0.1,2.5c0.1,0.1-0.3,0.7-0.5,1c-9.5-4.2-20.6-11.6-31.2-9.9   c11.8,2.3,23.3,7.1,33.4,13.5c-0.1,8.8,5.7,18.3,3.7,26.7c-13-13.4-28.7-27.5-46-33.6C477.3,443.5,483.7,446.6,488.6,452.1z    M520.6,423.5c-4.7-1.3-25.1-4.1-26.5,0.7C503.2,423.1,511.6,425.1,520.6,423.5z M505.8,399.2c3.4,6.5,9.8,10,14.5,15.5   c0.4,0.4,0.4,1.2,1.4,0.6C518.1,408.5,511.9,403.7,505.8,399.2z" />
	<path fill="#CCD2E9" d="M285.2,424.6c-20.6-17.3-52.9-10.3-74.7,3c-1.1-0.5-0.6-1.5-0.8-2.3c2.5-2.2,4.7-3.3,8.1-3.8   c-0.4-0.7-0.6-1-0.8-1.4l0.1,0.1c13.5-7.5,27.4-13.5,40.9-21.1c-4.6-2.9-11.1-0.4-16.3-0.2c-0.3-0.3-0.6-0.7-1-1   c35.3-19.1,63.2-15,99.8-4.8c16,3.3,32.4,1.7,48.6,2c2.4,0,4.7,0.2,6.4,2.1c1-0.2,1.9-0.3,3.3-0.5c-3.1,4-7.2,6.6-8.6,11.3   c-1.8,1.3-3.7,2.7-5.4,3.9c-21.8,0.9-43.1,2.6-64.8,4c6.1-19.1-12.8-7-19.6-0.9C295.8,418.9,288.6,419,285.2,424.6z M263.6,397.2   c-0.9,0-1.7,0.1-1.8,1.5c2-0.5,4-0.9,5.9-1.3c0.7,0,1.4,0.3,1.8-0.8C267.4,396.4,265.4,396.1,263.6,397.2z M276.6,396.6   c0.5,0.5,1.1,1,1.7,0C277.6,396.6,277.1,396.6,276.6,396.6z M284.4,396.9c-0.5-0.5-0.8-0.3-1.2,0.1   C283.6,397.3,284,397.2,284.4,396.9z" />
	<path fill="#EECABA" d="M570.8,267.8c9.9,0.2,15.4,11,23.8,15.3c27.2,22,63,18.4,93.2,32.9c-1.8-4-10.3-6.2-6.2-9.7   c22.7,7.8,43.3,23.3,60.1,40c-2.8,1.4-2.8,1.4-4.1,3.1c-2.8,0.5-5.4,1.1-8.4,1.7c-5.4-7.3-13.5-10-22.3-10.8   c-14.5-6.5-29.4-12.7-45.1-16.7c-20.2-1.6-63.1-7.6-75.4-24.8c2-11.6,2.8-10-7.2-15.9c0.2-5.1-0.7-9.2-6.7-9.6   C572,271.2,571.4,269.5,570.8,267.8z M658.9,311.3c-3.7-1.6-7.7-2-12.3-2.8c3.3,2.8,9.1,3.7,13.3,3.2   C659.5,311.6,659.2,311.5,658.9,311.3L658.9,311.3z M738.4,346c-0.5-1.3-1.3-1.7-2.3-1.9c-5.6-1.1-9.7-5.7-15.2-6.7   C724.2,342.4,733.1,352.1,738.4,346z M707.1,333.1c0.4,1.5,3.3,3.5,4,1.6C710,333.6,709,332.4,707.1,333.1z M715.8,335.5   c1,0.8,1.9,1.9,3.7,1.8C719.6,335.4,716.6,333.4,715.8,335.5z M662.2,312.4c1.3,1.7,1.9,1.7,4,0.6   C664.7,312.8,663.5,312.6,662.2,312.4z M702.8,332.6c-0.9-2.3-0.9-2.3-2.3-1.5C701.3,331.6,702.1,332.1,702.8,332.6z M670.3,315   c1,0,2,1.1,3-0.3C672.2,314.2,671.2,314,670.3,315z" />
	<path fill="#EECABA" d="M331.8,290c4,8.4,3.4,20.5,11,26.5c11.1,6.2,20.8,14.7,29.5,24c18.2,29.7,27.1,21.2,44,41.4   c-5.3,4.4-10.4,8.6-15.5,13.3c-19.9-11.4-35.7-27.9-48.5-46.9C340,332.2,314.8,310.7,331.8,290z" />
	<path fill="#EECABA" d="M378.5,298.4c-0.3-0.6,0.9-1.3-0.2-1.8c0.2-0.4,0.3-0.8,0.5-1.2c-1.2-0.9-2.3-1.7-3.7-2.7   c-0.2,0.4-0.3,0.7-0.5,1c-1-1-1.9-2-2.9-2.9c1.1-1.1,0.1-3.1-1.4-3.5c5.4-19.2,47,31,73.4-19.3c3.6-4.6,5-12.1,11.2-13.8   c3.2,3.5,3,7.7,1.9,12.5c10.4-5.3,14.4-15.9,23.2-22.7c2.5-1.9,5-3.9,7.5-5.9c0.7-0.7-0.3-2.3,1.2-2.8c-1.9,4.5,2.6,6.5,2.9,9.8   c-10.5,9.8-24.3,17.6-31.9,30.1C440.7,307.9,411.5,325.3,378.5,298.4z M443.6,284.1c-2.6,4.7-6.7,7-10.5,10.7   c4.8-1.3,12.3-6.5,11.3-12.3C444.1,283.1,443.8,283.6,443.6,284.1z M419.4,300.2c-0.7-0.4-1.1-0.8-1.5-0.1   C418.2,301.1,418.5,300.9,419.4,300.2z M430.1,295.7c-0.1-1-0.5-0.6-1.1-0.4c0.1,0.3,0.2,0.5,0.3,0.8   C429.6,295.9,429.8,295.8,430.1,295.7z M424.2,298.1c-0.1,0.2-0.3,0.4-0.4,0.6c0.5,0.4,0.8,0.1,1-0.4   C424.7,298.2,424.5,298.2,424.2,298.1z" />
	<path fill="#CFCFDD" d="M729,355.7c6.1,13.6,12.1,27.6,16.4,42.1c1.9,2.9,7.1,4.1,10.5,3.4c13.5-1.2,25-5.3,37-11.7   c11.1-34.4,20.2-5.3,64.8-25.9c18.6-9.7,22.2-32.5,37.2-45.7c2.7,8.7-0.4,23.3-8.8,27.8c-1.6,5.6-8.6,6.4-9.3,12.4   c-19.3,15.8-45.4,20.6-67.9,30.4c-7.3,2.6-12.1,8.8-17.6,13.4c-9.6,4.2-19.4,7.7-29.9,8.3c-0.2-0.5-0.3-1-0.5-1.6   c-5.3-2.8-12.1-2-17.8-3.1c-1.9-3.7-0.1-7.9-3.6-10.8c-1.3-1.2-1.9-2.9-1.9-4.7c0.1-6.3-4.5-10.3-7.1-15.5   c-3.1-6.1-5.2-12.3-9.2-17.9c0.3-2.2,0.6-4.7,0.9-7.3c2.1,0,2.9,2.1,4.4,3.1C726.7,355.5,726.7,355.5,729,355.7z" />
	<path fill="#FBDFD3" d="M164.6,421.6c3.6-2.2,6.8-0.2,10.4,0.4c3.4,0.6,6.8-0.2,10.2,0.3c4.4,2.4,9.3-1.3,13.9,0.4   c2.5,1,6-0.6,7.9,1.4c-9.9,13.3-6,8.5-18.9,16.4c-10.1,8.5-17.7,19.7-24.8,30.8c-1.2,0.4-0.7,1.4-0.8,2.2l0,0   c-2.4,2.8-2,6.9-3,10.3c-8.9-1.5-19.4-5.9-28-2c-0.1-0.9-0.1-1.7-0.2-2.6l0,0c1.6-1.6,0.2-4.1,0.2-6.2   C149.8,462.8,158.9,441,164.6,421.6z M148,464.7c5.2-4.9,15.1-4.1,18.5-10.4C163.3,454.8,144.7,460.3,148,464.7z M174.1,450.7   c-0.7-1.8-4.5-0.2-4,1.7C172,452.5,172,452.5,174.1,450.7z" />
	<path fill="#5876E8" d="M519.8,389.8c-3-0.8-4.9,1.6-7.7,1.4c10.6-15.1,21-30.2,32.1-45c0.4,0.1,0.7,0.2,1.2,0.2   c8.9,29.6,32.2,70.1,16.1,99.9c-1.3-15.2-3.8-30.3-9.2-44.6c0.2,0,0.5,0,0.7,0l0,0.1c4,2.8,6.7,9.6,10.5,11   c-3.6-8.5-10.7-15.1-17.1-21.6c-2.7-4.7-7-12.8-12.6-13.9c0.2,1.1,0.5,2.1,0.7,3.2c-3.4-2-5.8-6.1-10-5.9c4.5,4.1,12.4,7.5,13,13.1   c-2.4-1.1-7.5-7.2-9.5-5.9c3.2,2.1,5.8,5.5,9.4,6.7l0,0c0.7,0.8,1.5,1.6,2.2,2.3c2.2,9.4,8.8,19.2,8.3,28.7   c-7.9-13-18.8-24.5-30.2-33.9C517.7,387.3,518.9,388.4,519.8,389.8z" />
	<path fill="#CCD2E9" d="M468.7,485.9c-0.1,1.1-0.1,2.2-0.2,3.5c-9.3,0.7-18.9,0.4-28.2,0.2c5.8-10.5,4.9-10.1,4.4-13.5   c-10.9-3.4-20.8,7.4-30.7,11c-6.7,3.8-14.4,4.5-21.7,5.4c-2.5,0.8-6.6,3.4-8.8,1.7c13.8-10.4,26.3-27.2,45.1-26.5   c4.7,0.6,7.6-3.5,11.2-5.5c3-0.8,4.9-3.8,7.9-4.4c4.9-1.3,7.3-6.5,11.2-9.4c1.6,1.7,0.9,4.4,3,6c0.8-0.2,1.7-0.5,2.6-0.8   c4.4,4.9,1.3,12.7,2.1,18.8C466.1,477,469,481,468.7,485.9z" />
	<path fill="#FBDFD3" d="M521.9,277.5c-4.4,11,3.3,20.1-0.2,28c-13.1-4.8-25.2-13.4-39.5-13.9c0-3.3,2.7-19.1,4.3-25.8   c3.6-2.3,3.3-7.7,5-11.3c7.9,3.7,17.2,6.6,23.1,13.4c2.2,2.5,3.7,5.8,7.2,6.9C521.9,275.8,521.9,276.6,521.9,277.5z" />
	<path fill="#5876E8" d="M472.3,337.2c2.5-14.3,5.9-28.5,9.3-42.6c14.1,0.5,25.9,9.5,39.4,13c0,1,0,1.8,0,2.6   c-12.3,5.8-21.8,16.7-31.8,26.1c-3.3-0.6-4.8-5.6-8.2-5.3c1.6,3.5,5.2,4.1,6.9,7c-2.3,2.4-4,5.5-6.7,7.6c-3,0-4-3.5-6.7-3.8l0,0   c0-0.3,0-0.5,0-0.8c-0.7-0.7-1.4-1.4-2.2-2.3C472.4,338.3,472.3,337.8,472.3,337.2z" />
	<path fill="#5876E8" d="M590.8,369.7c-0.1-9.1,3.9-17.7-0.8-25.7c2.1,1.3,4,2.9,5.1,5.4c10,6.6,18,16.7,27.5,24.2   c-9.6,10.7-17.9,22.8-30.3,31C588.2,396.9,602,384.3,590.8,369.7z" />
	<path fill="#EECABA" d="M164.6,421.6c-5.7,19.3-14.8,41.2-33.1,51.5c-0.1,2.2,1.4,4.6-0.2,6.2c0.1-2.2-0.2-4.3-0.9-6.6   c-1-0.4-2.1-0.8-3.3-1.3c-0.9,0.2-2,0.5-3,0.7c0.4-0.5,0.8-1,1.3-1.7c0.2-0.9-0.3-2.4,1-2.8c-0.1,0.6-0.2,1.2-0.4,1.9   c2.8,2.4,6-0.4,8.9-1c3.9-4.5,8.4-9.7,7.5-16.5c-3.4,3.8-4.3,10.7-9.4,12.4c-2.1,0.2-3.4,1.2-4.3,2.9c-0.9,0.1-1.6,0.2-2.3,0.3   c14.3-10.3,17.2-27.8,19.6-44.2c0.4-8.6,4.3-16.9,0.3-25c5.1,5.1,2.3,13.3,3.7,19.7C154.1,421.1,159.5,422.2,164.6,421.6z    M149.3,428.8c1.7,0.1,1.3-1.3,0.4-2C148.9,427.6,149.2,428,149.3,428.8z" />
	<path fill="#EECABA" d="M521.9,277.5c0-0.8-0.1-1.7-0.1-2.7c-3.5-1.1-5-4.4-7.2-6.9c-5.8-6.7-15.1-9.7-23.1-13.4   c0.1-2.4,0.1-4.8,0.2-7.3c0.8-0.6,1.7-1.1,2-2.6c-0.9,0.2-1.5,0.3-2,0.4c-0.1-1.3-0.1-1.3-1.5-3.4c1.1,0.1,2.2,0.2,3.2,0.3   c3.5,10.8,28.1,6.7,38.3,11.1C531.2,262,524.8,269.2,521.9,277.5z" />
	<path fill="#EECABA" d="M131.3,479.3c0.1,0.8,0.1,1.7,0.2,2.6c7.6-3.7,21.2,0,29.1,2.7c-0.8,4.8-1.5,9.6-2.3,14.6   c-3.4-0.2-6.2-0.8-9.5-1.8c-0.3,0.3-0.9,0.7-1.4,1.2c-2.8,0.2-5.7-2.9-8.4-0.7c-3.1-1.5-6.5-1.3-9.9-1.5   C126.5,490.1,128.5,485.1,131.3,479.3z" />
	<path fill="#5876E8" d="M576.6,333.8c0,2-2.5,2.5-3.6,3.8c-2.4,2.5-1.6,6.6-1.1,9.8c0.4,10.5-3.8,20.6-3.5,31.4   c-5.4-11.2-8.8-24-16.9-34c5.4-2.9,10.9-5,15.7-9.1c3.2,0.6,4.7-1.5,5.8-4.2C574.8,331.5,575.4,333.1,576.6,333.8z" />
	<path fill="#C9CFE6" d="M178.7,452c5.4-4.5,9.3-10.8,16.1-13.5c0.3,0.3,0.6,0.6,0.9,0.9c-24.8,21.1-39.2,40.8-24.6,74.4   c-14.9-4.9-7.8-27.2-7.4-38.9C166.3,466,173.8,459.6,178.7,452z" />
	<path fill="#B7BDD5" d="M285.2,424.6c3.4-5.6,10.6-5.7,15.2-9.7c6.7-6.1,25.7-18.2,19.6,0.9C308,417.2,296.7,421.5,285.2,424.6z" />
	<path fill="#5775E6" d="M467.1,338.4c0,5,0,9.9,0,14.9c-14,8.4-28.9,15.5-43.1,23.8c4.5-8.5,17.7-10.7,24.7-17.8   C456.5,354,461.3,345.2,467.1,338.4z" />
	<path fill="#EECABA" d="M585.6,210.9c1.2,0.5,0.3,1.8,1.1,2.6c5.8-4.7,25.3-1.4,18.9,8.4c-1.1,0-2.1,0.2-2.3,1.6   c-1.9-0.1-3.4,1.1-5.2,0.7c0.1-0.4,0.1-0.7,0.2-1.1c-0.7-1.2-3.5-3.1-3.9-0.8c0.8,0.6,1.6,1.2,2.5,1.8c-2.9,0.3-5.7,0.3-8.6-0.6   c-1,1.9-0.1,3.7-0.6,5.4C586.4,223,586,216.8,585.6,210.9z" />
	<path fill="#EDC9B9" d="M574.5,329.2c3.1-4,6.5-7.9,10.8-11.3c1.5,9.5,5.7,16.5,7.6,26c-6.6-4-12.3-9-18.6-13.2   C574.4,330,574.5,329.6,574.5,329.2z" />
	<path fill="#F8DDD1" d="M206.9,424.1c-1.9-2.1-5.3-0.4-7.9-1.4c-4.6-1.7-9.5,2-13.9-0.4c7.1-1.3,14.9,0.2,22.2-0.1   c-1.2-1.6-2.6-1.7-4.5-2.4c11.3-10.5,28.3-14.7,43.1-18.9c0.7,0.3,1.8-0.3,2.3,0.7C233.7,407.7,218.4,413,206.9,424.1z" />
	<path fill="#5775E6" d="M481.8,470.5c2.1,1.5-0.4,2.4-1.5,3.4c2.5,3.3,5,6.5,6.1,10.6c-3.3,0.1-6.6-0.4-9.7,0.8   c-2.8-8.9-7.3-17.8-6.4-27.2c4.3,4.3,6.9,9.8,10.9,14.1c0.2-0.1,0.5-0.2,0.7-0.3C481.9,471.4,481.9,471,481.8,470.5z" />
	<path fill="#EDC9B9" d="M565.6,308.5c-0.1-0.4-0.1-0.7-0.2-1.1c-1.4-0.9-2.8-0.2-4.2-0.1c-0.2-0.3-0.3-0.5-0.4-0.7   c6-7.7,17.1-9.9,21.9-18.1c0.8,0.4,1.5,0.7,2.4,1.1c-0.1,3.6-0.2,7.1-0.3,10.6c-3.1-0.2-5.1,2.9-8.1,2.9c1.2-1.6,2.9-2.8,3.8-4.7   c-2.2-0.4-2.7,0-4.6,4.1c0.2,0.2,0.5,0.4,0.7,0.6c-0.5,1.2-1.9,1.1-3,1.5c0-0.3,0-0.7,0-1c-1.2-0.6-1.3,0.1-1.6,1.2   c0.8-0.1,1.2-0.2,1.6-0.2c-0.5,1.3-2,0.8-3,1c-0.4,0.8-0.8,1.4-1.2,2.1c-0.1-0.5-0.1-0.9-0.1-1.2   C567.3,305.6,566.6,307.5,565.6,308.5z" />
	<path fill="#EDC9BA" d="M578.3,284.7c-0.5-0.1-0.9-0.3-1.6-0.4c-4.4,8-13.2,9.7-20.5,13.9c-0.5-0.8-0.8-1.4-1.1-1.9   c3.3-6.7,9.1-10.2,14.2-15c-0.1,4.3-4.2,6.5-4.4,10.2c2.7-0.7,7.9-7.8,4.4-10.2c1-1.4,2.7-1.1,4.1-2c-0.4-0.8-0.8-1.6-1.1-2.5   c1.1,0,2.2,0,3,0C577.8,278.9,577,282,578.3,284.7z" />
	<path fill="#EDC9B9" d="M547.8,267.8c-2.7-1.3-5.7-0.3-8.5-1.4c-1-0.4-2.1,0.1-3.1,0.5c-3,1.1-3,1-6.2,0c1.8-3.7,2.6-7.6,3.3-11.5   c5,1.2,10.6,2.4,15.2,5.1C548.2,263,548,265.4,547.8,267.8z" />
	<path fill="#FCFCFC" d="M495.5,228.6c-5.1-9.7-10.8-20-11.2-31.2C492.8,201.7,499.1,219.7,495.5,228.6z" />
	<path fill="#C8CFE5" d="M240.7,397.8c0.3,0.3,0.6,0.7,1,1c-12.8,2.3-23.7,8.6-34.8,14.8c-0.3-0.3-0.7-0.7-1-1   C212.3,398.8,228,400.2,240.7,397.8z" />
	<path fill="#EAC8B8" d="M575.9,253.1c-0.8,4.7-2.1,9.1-6.6,11.5c0,0.6,0,1.1,0,1.6c-4.1-5-11.5-3.9-16.9-2   c-0.3-0.3-0.6-0.6-0.9-0.9l0,0c1.6-0.7-0.1-3.3,2.3-2.8C561.7,259.9,569.3,257.5,575.9,253.1z" />
	<path fill="#5371DE" d="M627.4,373c-11.3-5.3-19.5-15.8-28.8-24.2c-0.2-1.2-0.5-2.4-0.9-4.2C607.5,354.4,617.9,362.7,627.4,373z" />
	<path fill="#3B3C3C" d="M36.6,423.9c-0.7,1.1-1,2.3-0.7,3.7c-6.3-8.2-10.1-19-20-23.5c7.7-2.3,18,13.4,19.6,19.7   C35.9,423.8,36.3,423.8,36.6,423.9z" />
	<path fill="#4862BE" d="M484.9,524.4c1.6,1.3,1.7,2.9,2.2,5c-2.1,1.3-4.5,1.2-7,1.6c-1-3.2-1.4-6-0.9-9.3c0.9-0.1,1.7-0.2,2.4-0.4   c0.6-0.9,1.6-0.9,2.5-1.1C485.4,521.5,485,523.1,484.9,524.4c-0.8,0.1-1.7,0.2-3.3,0.3C483.4,525.2,484.3,525.6,484.9,524.4z" />
	<path fill="#5674E3" d="M472.3,337.2c0,0.6,0.1,1.1,0.1,1.6c0.8,0.8,1.5,1.5,2.2,2.3c-0.2,0.2-0.3,0.3-0.5,0.5   c0.2,0.1,0.3,0.2,0.5,0.3l0,0c1.5,1.7,2.9,3.5,4.4,5.2c-2.8,1.8-5.5,3.5-8.9,5C470.9,346.7,470.5,341.9,472.3,337.2z" />
	<path fill="#4760BC" d="M473.9,484.4c1.8,5.9,3.7,11.8,5.1,17.9c-1.5,0-2.9,0-4.4,0c-1.4-1.6-0.4-3.5-1.1-5c0.9-1,1.6-1.8,2.7-3   c-1.3,0.2-2.1,0.3-2.8,0.4c-1.1-4.6-1.1-4.6,0.1-6.6c-1.8-1.2-2-3-1.8-5c1.2,0.5,0.2,2,1.1,2.7C473.9,485.9,473.7,485,473.9,484.4z   " />
	<path fill="#E6C9BF" d="M113.6,500.8c0.3,0.8,0.9,0.7,1.5,0.8c-3.9,3-8.9,1.6-12.7-0.7c-0.2-0.9-0.8-0.9-1.5-0.7l0,0   c-0.3-1.3-1.4-0.8-2.2-0.8c0,0,0,0,0,0c-1-1.4-2.8-0.2-3.7-1.5c0,0,0,0,0,0c0.1-0.7-0.3-1.7,0-2.3c0.5,0.2,1.1,0.4,1.6,0.6   c0,0,0,0,0,0c0.3,0.3,0.5,0.5,0.8,0.8l0,0c1.8,1.9,6,0.4,8.6,0.7c1.3,1.2,2.8,1.7,4.4,1.7c0.5,0.6,0.9,1.2,1.4,1.8   C112.4,501,113,500.9,113.6,500.8z" />
	<path fill="#445CB4" d="M478.3,520.7c-1.4-2.6-1.4-5.2-1.9-8.2c1.9-0.7,3.7-1.2,5.7-0.1c-0.1,0.7-0.2,1.3,0.6,1.7   c0.5,1.5,1,3,1.5,4.7C482.3,520.2,479.4,518.3,478.3,520.7L478.3,520.7z" />
	<path fill="#343434" d="M15.2,435.7c-0.2,1.3,0.6,3.9-1.5,3.7c-0.7-1.7-1.7-3.2-1.4-5.3c1.3-0.9,3.6-1.1,3.6-3.7   c-0.8-0.5-1.7-1.1-2.6-1.7c0.9-1.5,2.9-1.1,4.6-1.8c1.1,1.1,2.2,2.2,3.1,3.2C20.4,433,17.1,431.3,15.2,435.7z" />
	<path fill="#EEEEEE" d="M759.5,302.4c1.8,0.4,2.7,0.6,3.2,0.8c3,4.6,6.9,10.6,1.3,14.8C763.8,312.4,762.2,307.6,759.5,302.4z" />
	<path fill="#4056A9" d="M474.7,504c1.9,0,3.3,0,4.9,0c1.1,2.2,1.7,4.5,2.3,7c-2,0-3.8,0-5.7,0C475.2,508.8,474.8,506.6,474.7,504z" />
	<path fill="#F5F6F6" d="M758,341.8c0.2,5.1-3.9,6.5-8.1,7.4c-0.3-0.3-0.5-0.5-0.8-0.8c3.7-3,6.1-6.9,8.2-11.1   C758.3,338.6,757.9,340.3,758,341.8z" />
	<path fill="#221E1D" d="M460.7,276.8c-1.2,4.4-3.4,8.1-6.6,11.3c-0.4-1.2-1.4-0.9-2.3-1c2.7-4,5.3-7.9,8-11.9   C459.8,275.8,459.8,276.5,460.7,276.8z" />
	<path fill="#383838" d="M49.3,501.3c-0.8,2.2-1.3,4.3,0.5,6.7c-3.1-0.1-5.2-0.5-7.6-1.5c1.6-2.2,3-4.1,4.6-6.3   C47.6,500.5,48.4,500.9,49.3,501.3z" />
	<path fill="#4D69CE" d="M473.9,484.4c-0.2,0.6,0,1.5-1.1,1.3c-0.9-0.7,0.1-2.2-1.1-2.7c-0.9-2.7-0.8-5.9-3-8c0-2.6,0-5.1,0-7.5   C471.6,472.3,472.2,478.9,473.9,484.4z" />
	<path fill="#E8C5B6" d="M122.6,394.9c-0.6,0.1-1.2,0.2-2,0.3c-0.9,2.3,1.2,4.4,0,6.8c-0.3,1.1,1.1,2.6-0.6,3.3   c0.9-3.8-3.2-4.6-4.6-7.5c0.7-1.1,1.5-2.2,2.3-3.4C119.4,394.3,121,393.8,122.6,394.9z" />
	<path fill="#1C1819" d="M178.7,452c-3.6,5-7.4,9.9-11.2,14.7c-0.3-0.3-0.6-0.6-0.8-0.9c3.1-5.4,7.2-10,11.1-14.8   C178.1,451.4,178.4,451.7,178.7,452z" />
	<path fill="#393939" d="M33,438.4c0-1.1-0.3-2.6,0.4-4.3c2.5,1.7,5,8.7,4.7,11.9C34.8,444,35.4,441.3,33,438.4z" />
	<path fill="#393939" d="M55.1,454.2c2.5,2.8,7.9,4.2,8.6,8c-4.7-0.3-7.2-4.1-10.1-7.2c0-0.6,0-1.2,0.7-1.5l0,0   C54.6,453.7,54.9,453.9,55.1,454.2z" />
	<path fill="#393939" d="M40.4,464.8c2-0.4,2.8,0.7,3.5,1.6c-0.9,2.4-1.8,4.6-2.6,6.9c-1.6,0.9-2.8-1.8-2.2-2.8   C40.5,468.8,40.4,466.9,40.4,464.8z" />
	<path fill="#251821" d="M574.5,329.2c0,0.4-0.1,0.7-0.2,1.4c4.9,3.5,10.2,7.2,15,11.1c-0.3,0.3-0.6,0.5-0.9,0.8   c-5.3-3.4-10-8.2-15.4-10.9C573.4,330.7,573.5,329.7,574.5,329.2z" />
	<path fill="#393939" d="M43.9,490.6c1.1-1.3,2-2.5,3-3.8c1.7,0.7,2.7,2.2,4,3.7c-0.7,0.8-1.4,1.5-1.9,2.1   C47.6,492.8,45.9,492.1,43.9,490.6z" />
	<path fill="#0C1020" d="M473.1,480.2c-2.2-3.9-1.5-9.3-4.4-12.6c0.2-1,1.9-1,1.5-2.4c1.8,3.9,2.8,8.4,3.7,12.7   C472.7,478.3,473.3,479.4,473.1,480.2z" />
	<path fill="#2F3030" d="M78.9,504.6c-2.3,2-2.2,5.7-5.3,7.3c-0.8-1.6-0.8-1.6,1.3-4.3c0.6-1.6-0.5-3.5,0.9-5   C77,502.8,78,503.1,78.9,504.6z" />
	<path fill="#191819" d="M554.6,65.2c-1.7,4.5-3.4,8.6-4.9,13.2c-1.7-5.2,2.1-10.2,4-14.8C553.8,64.2,553.7,65,554.6,65.2z" />
	<path fill="#353636" d="M41.6,449.5c4.1-0.9,7,4,9.6,6.5C49.6,456.9,42.6,451.1,41.6,449.5z" />
	<path fill="#242424" d="M66.7,470.5c0.9,1.1,0.9,1.1,0.6,3.2c0.9,1.1,3.1,1,3.3,3.1c-2.1,0.4-4,0.8-5.5-1.4   C65.6,474,66.1,472.4,66.7,470.5z" />
	<path fill="#3A3B3B" d="M79.4,520.8c1.7-2.6,6.4-1.7,5.8,1.9C82.1,523.1,82.1,523.1,79.4,520.8z" />
	<path fill="#222020" d="M99.6,480.1c-2.7,1.7-0.9,4-2.9,6c-0.3-0.5-0.5-1-0.8-1.6c0.2-0.6,0.3-1.2,0.7-2.5c-3.6,1.8,0.5,5.4-3.2,6   C92.7,484,94.7,481.4,99.6,480.1z" />
	<path fill="#2F2F2F" d="M38,459.4c-0.5-0.5-1-0.9-1.4-1.4c1.3-1.9,2.4-3.5,3.6-5.2c2,0.3,2,0.3,2.2,2.3   C40.4,456.1,40.4,456.1,38,459.4z" />
	<path fill="#161515" d="M74.4,483.8c-0.6,0.4-1.1,0.9-1.3,1.1c-0.4,2.2,1.8,2.6,1.9,4.2c-1.6,0.8-1.9,0.7-4.1-1.3   c0.2-1.8,0.4-3.6,0.6-5.4C72.3,483.1,72.9,484.2,74.4,483.8z" />
	<path fill="#C9CFE6" d="M160.6,484.6c-0.4-0.3-0.8-0.5-1.2-0.8c1-3.4,0.5-7.5,3-10.3C162.1,477.2,161.8,480.9,160.6,484.6z" />
	<path fill="#3D54A5" d="M480.8,533.5c2.4-0.5,4.8-1,7.4-1.6c0.3,0.6,0.6,1.2,1,1.9C486.3,536.2,483.6,533.5,480.8,533.5z" />
	<path fill="#D5C0B6" d="M175.7,513.4c1.1,0.9,2.2,1.9,3.5,3c0.3,1.1,0.7,2.3,1.2,4c-3-1.6-4.2-3.9-5.5-6.1   C175.1,514,175.4,513.7,175.7,513.4z" />
	<path fill="#303030" d="M13,455c2.5,0.3,2.6,0.3,4.4,1.9c-0.4,1.4-1.5,2.1-2.6,3.1C13.4,458.6,13.3,457,13,455z" />
	<path fill="#5673E1" d="M606.9,488.2c-1,0.5-1.9,1-3.1,1.6c0.1-2.9,2.7-5.2,3.9-8c0.3,0.2,0.5,0.4,0.7,0.6   C607.7,484.1,607.6,486.2,606.9,488.2z" />
	<path fill="#D4BFB4" d="M121.5,498.4c0.9-1.4,1.5-3.1,2.7-4.2c1.5,0.3,1.5,0.3,2.6,1.4c-1.3,1.4-2.8,2.6-4.2,3.9   C122.3,499.1,121.9,498.7,121.5,498.4z" />
	<path fill="#CBB4A7" d="M115.9,404.6c-0.4,0-0.7,0-1.3-0.1c-0.9-3.6-3.4-8.7-7.7-8.7C110.1,392.2,115.7,401.4,115.9,404.6z" />
	<path fill="#212121" d="M13.7,439.4c1.1,0.1,1.5-0.5,1.5-1.5c1.1,1.9,2.3,3.9,3.5,6C16.1,446.7,14.4,441.4,13.7,439.4z" />
	<path fill="#333333" d="M91.5,498.6c-4.2-1.3-2.3-4.7,0.8-4.6C93.4,495.9,92.5,497.2,91.5,498.6z" />
	<path fill="#141414" d="M76.7,470.1c1.4-2.7,5.4-2.2,6.4,0.6C80.7,472.2,78.9,470,76.7,470.1z" />
	<path fill="#363737" d="M29.2,511.9c-3.1,0.3-4-3.1-4.3-5.9c2.5,0.9,3,3.1,4.4,4.4C29.2,510.9,29.2,511.4,29.2,511.9z" />
	<path fill="#303030" d="M90.5,521.6c2.6-0.1,4.4,0.3,5.9,1.6C94.8,525.6,90.6,524.7,90.5,521.6z" />
	<path fill="#242525" d="M39.1,437.9c2.7,0.8,2.7,2.8,3.4,4.7c-0.3,0.4-0.7,0.8-1.1,1.1C39.4,443,39.1,440.1,39.1,437.9z" />
	<path fill="#313333" d="M55.3,519.2c-0.6,0.6-0.9,1.1-1.5,1.7c-1.3-1.3-3.7-0.1-4.6-2.3C51.8,517.4,53,517.5,55.3,519.2z" />
	<path fill="#2D2F2F" d="M7.8,417.3c1.6,1.5,2.8,2.6,4,3.8c-2.1,0.6-2.3,0.5-5.4-1.2C6.9,419.1,7.3,418.3,7.8,417.3z" />
	<path fill="#180E0D" d="M224.4,542.9c3.8-0.8,7.1-0.5,11.2-0.7c-0.8-0.5-1.3-0.8-1.8-1.2c0.9-0.7,1.8-0.6,2.7-0.1   c0,0.3,0,0.6,0,1.1c0.4,0.1,0.9,0.2,1.3,0.3C234.1,544.1,228.7,542.4,224.4,542.9z" />
	<path fill="#2D2E2E" d="M69.4,463.1c2.6,0.3,4.7,1.1,5.4,3.4C71.2,466.8,71.1,466.8,69.4,463.1z" />
	<path fill="#131527" d="M487.2,336.6c-2.3-1.5-4.6-3-6.1-5.7c2.8-0.3,4.6,3.5,6.9,4.9C487.7,336.1,487.4,336.3,487.2,336.6z" />
	<path fill="#2F2F2F" d="M42.3,518.4c-1.7,0.3-2.7-0.6-3.8-1.3C40.4,513.5,42.8,514.4,42.3,518.4z" />
	<path fill="#151616" d="M25.2,430.7c2.6,0,3,2.4,4.6,2.3c0,1,0,1.6,0,2.3c-0.5,0.2-0.9,0.3-1.5,0.5   C27.4,434.2,26.5,432.7,25.2,430.7z" />
	<path fill="#2C2D2D" d="M89.6,507.5c-2,1.3-2.9,1.4-4.8,1.9C83.9,505.7,87.4,505.1,89.6,507.5z" />
	<path fill="#282828" d="M55.2,526.4c0-0.7,0-1.1,0-1.5c2.2-0.9,3.6,0.1,4.9,1.5C59.6,528.7,56.9,526.5,55.2,526.4z" />
	<path fill="#1E1E1E" d="M99.2,472.4c-2.2,0.9-4-1-6.4-0.6C93.2,469.8,100,469.7,99.2,472.4z" />
	<path fill="#343338" d="M161.8,480.1c0.2-2.2,0.4-4.5,0.7-6.7l0,0c0.2-0.1,0.4-0.2,0.5-0.3c0.3,0.6,0.5,1.2,0.8,1.8   c-0.4,3-0.3,6.1-1.3,9.1C162.4,482.6,162.6,481.3,161.8,480.1z" />
	<path fill="#191A1A" d="M48.4,497.7c2.8,0.5,4.9,0.9,6,3.1C52.3,501.8,51.4,501.4,48.4,497.7z" />
	<path fill="#323232" d="M107.8,515.5c0-0.7-0.1-1.2-0.1-1.7c1.6-0.9,3.1-0.3,4.6-0.5C113.4,516.4,109.8,515.3,107.8,515.5z" />
	<path fill="#D4C0B1" d="M566.1,267.1c-2.5,0.2-4.7,1.6-7.2,1.5c1.1-1.7,2.9-2.3,4.5-3.2C564.7,265.6,565.5,266.1,566.1,267.1z" />
	<path fill="#171717" d="M48.4,511.3c2.3,0,4,0,5.7,0C53.6,515,50.2,513.2,48.4,511.3z" />
	<path fill="#4A413E" d="M115.7,503.6c1.5-1.2,2.9-2.4,4.4-3.6c0.1,0.6,0,1.3,0.8,1.5c-0.9,1.7-3,2.4-4.4,3.7   C116.6,504.5,116.5,503.9,115.7,503.6z" />
	<path fill="#2A2B2B" d="M105,508.9c-2.2,0-3.5,0-5.1,0c-0.1-0.5-0.3-1.1-0.5-1.7C101.6,506.2,103,507.1,105,508.9z" />
	<path fill="#2B3365" d="M479,346.9c-1.5-1.7-2.9-3.4-4.4-5.2c2.7,0.2,3.7,3.8,6.7,3.8C480.5,346,479.7,346.5,479,346.9z" />
	<path fill="#363636" d="M84.5,480c-2.1-0.1-4,0.7-5.5-1C80.9,477.5,80.9,477.5,84.5,480z" />
	<path fill="#BEB6AD" d="M248.2,401.6c-0.5-1-1.6-0.4-2.3-0.7c2.5-1,5-1.8,8.4-1.4C252,400.6,250.1,401.2,248.2,401.6z" />
	<path fill="#1A1A1A" d="M30,511.9c0.7-0.4,1.2-0.7,1.9-1.3c1.3,0.7,1.2,1.8,0.9,3.3C31.3,514.2,29.8,513.6,30,511.9   C30,511.9,30,511.9,30,511.9z" />
	<path fill="#323434" d="M74.4,483.8c-1.4,0.4-2.1-0.8-3-1.5c0.5-2.5,2.2-1.1,3.7-0.7C74.8,482.3,74.6,483.1,74.4,483.8z" />
	<path fill="#B4A8A0" d="M115.7,503.6c0.8,0.3,0.9,0.9,0.8,1.6c-1.4,1.1-3,1.3-5.2,0.4C113.1,504.8,114.4,504.2,115.7,503.6z" />
	<path fill="#D6BCB0" d="M96.7,496.2c-0.5-0.2-1.1-0.4-1.6-0.6c0.3-1.7,0.5-3.4,0.8-5c0.2-0.1,0.4-0.2,0.6-0.2   c0.1,0.6,0,1.4,0.8,1.6C97.1,493.4,96.9,494.8,96.7,496.2z" />
	<path fill="#212323" d="M91.6,478.3c0.7-1.4,1.8-1.1,3.1-1c0.1,0.5,0.2,1,0.4,1.7C93.6,479.6,92.5,479.6,91.6,478.3z" />
	<path fill="#171818" d="M76.6,489.9c1.2,0,1.8,0,2.7,0c0.1,0.6,0.1,1,0.2,1.7c-0.9,0.1-1.6,0.2-2.6,0.4   C76.8,491.2,76.7,490.7,76.6,489.9z" />
	<path fill="#D6BFB1" d="M529.3,267.8c0,0.8,0,1.7,0,2.6c-0.9,0.8-1.9,1.7-2.8,2.6C526.9,271,527.8,269.2,529.3,267.8z" />
	<path fill="#C2A296" d="M551.5,263.3c0.3,0.3,0.6,0.6,0.9,0.9c-0.1,0.6-0.2,1.2,0.5,1.5c0,0.4,0,0.8,0,1.2   c-0.7,0.2-1.3,0.5-2.2,0.8C550.8,266,550.2,264.5,551.5,263.3z" />
	<path fill="#292929" d="M50.1,521.7c0.6,0.7,1,1.2,1.5,1.7c-0.6,0.7-1,1.2-1.6,1.9c-0.6-0.6-1.1-1.1-1.7-1.7   C48.9,523.2,49.2,522.7,50.1,521.7z" />
	<path fill="#272929" d="M128.6,512.3c0-0.4-0.1-0.9-0.1-1.3c1.1-0.9,2.4-0.4,2.8,0.9C130,512.5,130,512.5,128.6,512.3z" />
	<path fill="#A2A8A8" d="M758,341.8c-0.1-1.5,0.3-3.2-0.7-4.5c0.1-0.9,0.3-1.6,1.4-2C758.5,337.6,759.1,339.8,758,341.8z" />
	<path fill="#7D818F" d="M209.7,425.3c0.1,0.8-0.3,1.8,0.8,2.3c-0.5,0.4-1.1,0.9-1.7,1.5c-0.4-0.7-0.8-1.3-1.2-2   C208.2,426.5,208.9,425.9,209.7,425.3z" />
	<path fill="#161919" d="M54.4,453.5c-0.7,0.2-0.7,0.9-0.7,1.5c-1-0.6-2-1.2-2-2.8C52.9,452.2,53.7,452.5,54.4,453.5z" />
	<path fill="#445CB4" d="M481.6,521.4c-0.8,0.1-1.6,0.2-2.4,0.4c-0.1,1.1-0.2,2-0.2,2.9c-1-1.2-0.7-2.5-0.6-3.9l-0.1,0.1   C479.4,520.8,480.6,520.3,481.6,521.4z" />
	<path fill="#8E909F" d="M205.9,412.6c0.3,0.3,0.7,0.7,1,1c-0.7,1-1.5,1.7-3.1,2.2C204.5,414.4,204.8,413.3,205.9,412.6z" />
	<path fill="#97857D" d="M120.9,501.5c-0.7-0.2-0.7-0.9-0.8-1.5c0.5-0.5,0.9-1.1,1.4-1.6c0.4,0.4,0.7,0.7,1.1,1.1   C122.1,500.2,121.7,501,120.9,501.5z" />
	<path fill="#4056A9" d="M474.6,502.3c1.5,0,2.9,0,4.4,0c0.1,0.1,0.2,0.2,0.3,0.2C478.1,503.2,476.2,503.1,474.6,502.3z" />
	<path fill="#FBDFD3" d="M95,485.9c-0.9-1.5-0.1-2.4,1.5-3.8C96,484,95.9,484.6,95,485.9z" />
	<path fill="#44302C" d="M491.7,245.1c0.6-0.1,1.1-0.2,2-0.4c-0.3,1.5-1.2,2-2,2.6c-0.3-0.3-0.6-0.6-1-0.9   C491.1,245.9,491.4,245.5,491.7,245.1z" />
	<path fill="#B1BABA" d="M749.1,348.5c0.3,0.3,0.5,0.5,0.8,0.8c-0.7,1-1.8,0.8-3,1.4C747.3,349.2,748.1,348.8,749.1,348.5z" />
	<path fill="#938F87" d="M175.7,513.4c-0.3,0.3-0.6,0.6-0.8,0.8c-0.9-0.7-1.2-1.6-1.5-2.6C174.8,511.2,175,512.6,175.7,513.4z" />
	<path fill="#191819" d="M558.3,56.3c-0.5-1.3-2-0.7-3.1-0.8C555.9,53.9,560.2,54.8,558.3,56.3z" />
	<path fill="#312E2B" d="M555.2,265.6c0.6-1.1,1.6-0.8,2.8-0.5c-1,0.7-1.7,1.4-2.8,1.2C555.2,266.1,555.2,265.8,555.2,265.6z" />
	<path fill="#222020" d="M96.5,490.4c-0.2,0.1-0.4,0.1-0.6,0.2c0.1-1.6-0.7-3.4,0.8-4.5C96.6,487.5,96.6,488.9,96.5,490.4z" />
	<path fill="#7C8B8F" d="M798,302.5c-0.3,0.3-0.7,0.6-1,0.9c-0.4-0.7-0.7-1.3-1.2-2C797.1,301.1,797.6,301.7,798,302.5z" />
	<path fill="#65605D" d="M133.7,500.2c0.7,0,1.3,0,2,0C135,501.8,134.9,501.8,133.7,500.2z" />
	<path fill="#38322F" d="M271.2,430.6c-0.8,0.7-1.7,0.9-2.7,0.6c-0.3-1,0.4-1.2,1.1-1.4C269.9,430.6,270.7,430.4,271.2,430.6z" />
	<path fill="#728794" d="M195.7,439.4c-0.3-0.3-0.6-0.6-0.9-0.9c0.6-0.8,1.2-1,2.2-0.2C196.6,438.7,196.1,439.1,195.7,439.4z" />
	<path fill="#6C6D69" d="M131,500.8c-0.7,1.4-0.7,1.4-1.8,0.1C129.8,500.8,130.3,500.8,131,500.8z" />
	<path fill="#161515" d="M74.4,483.8c0.2-0.7,0.5-1.5,0.7-2.2C76.2,482.9,76.1,483.3,74.4,483.8z" />
	<path fill="#D6BCB0" d="M95.8,498.6c1.1-0.1,2.1-0.1,2.9,0.8C97.6,499.5,96.6,499.5,95.8,498.6z" />
	<path fill="#86867C" d="M555.2,265.6c0,0.2,0,0.5-0.1,0.7c-0.7,0.2-1.4,0.4-2.2,0.6c0-0.4,0-0.8,0-1.2   C553.7,265.7,554.5,265.6,555.2,265.6z" />
	<path fill="#C2A296" d="M552.2,261.2c0,0.8,0.3,1.8-0.8,2.2C551.5,262.5,551.4,261.7,552.2,261.2z" />
	<path fill="#D6BCB0" d="M98.7,499.4c0.8,0,1.9-0.5,2.2,0.8C100.2,499.9,99.5,499.7,98.7,499.4z" />
	<path fill="#191819" d="M554.4,62.2c0.3-0.5,0.5-1,0.8-1.4C555.3,61.4,555.2,62,554.4,62.2z" />
	<path fill="#839599" d="M499.1,150.9c-0.3,0-0.6,0-0.9,0c0.1-0.4,0.2-0.8,0.5-2.1C498.9,150.1,499,150.5,499.1,150.9z" />
	<path fill="#D6BCB0" d="M100.9,500.2c0.7-0.1,1.3-0.2,1.5,0.7C101.9,500.7,101.4,500.4,100.9,500.2z" />
	<path fill="#4B65C5" d="M607.9,484.8c-0.1-0.7-0.3-1.3,0.5-1.7C608.2,483.6,608,484.2,607.9,484.8z" />
	<path fill="#1A1A1A" d="M29.2,511.9c0-0.5,0-1,0.1-1.5c0.7,0.3,0.7,0.9,0.7,1.5l0,0C29.7,511.9,29.5,511.9,29.2,511.9z" />
	<path fill="#4056A9" d="M482.7,514.1c-0.8-0.3-0.7-1-0.6-1.7C482.3,513,482.5,513.6,482.7,514.1z" />
	<path fill="#191819" d="M553.7,63.6c0.3-0.5,0.5-1,0.8-1.5C554.5,62.8,554.5,63.4,553.7,63.6z" />
	<path fill="#191819" d="M557.6,60c-0.3,0.5-0.6,0.9-0.9,1.4C556.7,60.8,556.7,60.1,557.6,60z" />
	<path fill="#D6BCB0" d="M95,496.1c0,0.6,0.1,1.2,0.1,1.8C94.3,497.3,94.4,496.7,95,496.1z" />
	<path fill="#191819" d="M555.2,60.7c0.2-0.3,0.4-0.6,0.6-1C555.6,60.1,555.4,60.4,555.2,60.7z" />
	<path fill="#191819" d="M556.7,61.4c-0.2,0.3-0.4,0.6-0.6,1C556.3,62.1,556.5,61.8,556.7,61.4z" />
	<path fill="#191819" d="M555.8,62.9c-0.2,0.3-0.4,0.6-0.5,0.9C555.5,63.5,555.7,63.2,555.8,62.9z" />
	<path fill="#D6BCB0" d="M95,497.9c0.3,0.2,0.5,0.5,0.8,0.7C95.5,498.3,95.3,498.1,95,497.9z" />
	<path fill="#191819" d="M555.1,64.4c-0.2,0.3-0.3,0.6-0.5,0.8C554.7,65,554.9,64.7,555.1,64.4z" />
	<path fill="#D6BFB1" d="M529.9,266.9c-0.2,0.3-0.4,0.6-0.7,0.8C529.5,267.5,529.7,267.2,529.9,266.9z" />
	<path fill="#191819" d="M559.9,57.1c-0.3,0.3-0.5,0.6-0.8,0.9C559,57.4,559.3,57.1,559.9,57.1z" />
	<path fill="#161919" d="M55.1,454.2c-0.3-0.2-0.5-0.5-0.8-0.7C54.6,453.7,54.9,453.9,55.1,454.2z" />
	<path fill="#191819" d="M556.7,58.5c0.2-0.3,0.4-0.6,0.6-0.8C557.1,57.9,556.9,58.2,556.7,58.5z" />
	<path fill="#CCD2E9" d="M217,420c0,0.2-0.1,0.3-0.1,0.4C216.9,420.4,217,420.2,217,420L217,420z" />
	<path fill="#212121" d="M15.2,435.7c0.2-0.3,0.5-0.5,0.7-0.8C15.6,435.2,15.4,435.5,15.2,435.7z" />
	<path fill="#202630" d="M631.4,377.1c-0.3-0.2-0.6-0.3-0.9-0.5C630.9,376.8,631.1,377,631.4,377.1z" />
	<path fill="#191819" d="M556.1,59.2c0.2-0.2,0.4-0.5,0.6-0.7C556.5,58.7,556.3,59,556.1,59.2z" />
	<path fill="#191819" d="M558.8,58.5c-0.2,0.2-0.4,0.5-0.6,0.7C558.4,59,558.6,58.7,558.8,58.5z" />
	<path fill="#CBB4A7" d="M106.9,395.8c-0.3,0.2-0.6,0.4-0.9,0.6C106.3,396.2,106.6,396,106.9,395.8z" />
	<path fill="#191819" d="M557.3,57.7c0.2-0.3,0.5-0.6,0.7-0.9C558.1,57.3,557.9,57.6,557.3,57.7z" />
	<path fill="#191819" d="M558.2,59.2c-0.2,0.3-0.4,0.6-0.6,0.8C557.7,59.8,558,59.5,558.2,59.2z" />
	<path fill="#B7BDD5" d="M384.3,493.4c-0.3,0.2-0.5,0.4-0.8,0.7C383.8,493.9,384.1,493.7,384.3,493.4z" />
	<path fill="#4A413E" d="M120.9,501.5c0.3-0.2,0.5-0.4,0.8-0.7C121.5,501.1,121.2,501.3,120.9,501.5z" />
	<path fill="#030303" d="M282.6,478.3c-1.1-9.9,16.7-17.1,24.9-19.8C301.3,467.6,291.4,472.6,282.6,478.3z" />
	<path fill="#080606" d="M404.4,435c-4.9,4.8-14.9,8-20.3,2.7c6.2-0.6,12.5-1.4,18.6-3.6C403.3,434.3,404.1,434.1,404.4,435z" />
	<path fill="#0B0807" d="M428.7,448.9c1.1,0,2.2,0,3.3,0c-1.6,4.1-11.6,9.7-17.3,7.5c0-0.6,0-1.1,0-1.5   C419.7,453.7,424.1,451.1,428.7,448.9z" />
	<path fill="#1B1514" d="M437.1,424.7c-3.4,3.5-9.5,7.8-14.1,5.5C427,427.9,432.2,424.5,437.1,424.7z" />
	<path fill="#2F2321" d="M373.2,420.2c1.2-2.1,2.8-3,5-3.5C378.8,419.2,375.5,420.2,373.2,420.2z" />
	<path fill="#36312E" d="M565.6,308.5c1-1.1,1.7-2.9,3.7-2c0,0.3,0.1,0.8,0.1,1.2c-0.8,0.9-1.4,2-3,2.1   C566.2,309.5,565.9,309,565.6,308.5z" />
	<path fill="#3F3230" d="M404.4,435c-0.2-0.9-1.1-0.7-1.7-0.9c2.3-1,5.1-1.4,7.1-3.4c0.4,0.3,0.7,0.4,1.2,0.7   C409,433.3,406.6,434,404.4,435z" />
	<path fill="#3C302D" d="M350.2,496.1c-0.9,0.8-0.8,2.7-2.8,2.4c-0.3-1.7,0.5-2.9,1.8-4.2c0.4,0.5,0.8,0.9,1.2,1.3   C350.1,495.8,350.1,495.9,350.2,496.1z" />
	<path fill="#342725" d="M440.9,423.2c1.6-2,2.9-3.3,5.2-4C445.5,421.5,443.4,423,440.9,423.2z" />
	<path fill="#473431" d="M310.3,455.2c1.5-1.9,1.5-1.9,4.8-3.2C315.2,454.6,312.5,455.3,310.3,455.2z" />
	<path fill="#261C1B" d="M264.2,431.9c-1.7,1.2-2.9,1.9-4.5,1.6C260.8,431.6,261.3,431.4,264.2,431.9z" />
	<path fill="#342A28" d="M531.1,302.6c-0.2-1.1-0.8-3.1,1-2.9C533.7,300.3,533.5,302.4,531.1,302.6z" />
	<path fill="#876F67" d="M437.6,446.1c0.6,0.1,1-0.2,1.4,0.5c-0.9,1.1-3.3,2.9-4.4,1.6C435.6,447.6,436.6,446.9,437.6,446.1z" />
	<path fill="#3B3633" d="M361.4,478.3c-0.1,1.6-0.8,2.1-2,2.2C358.9,477.8,359.2,477.5,361.4,478.3z" />
	<path fill="#2F201E" d="M354.8,486.9c-0.3-0.1-0.7-0.1-1-0.2c0-2.4,0-2.4,1.7-2.9l0,0c0.1,0.5,0.2,0.9,0.2,1.4   C355.3,485.8,355,486.4,354.8,486.9z" />
	<path fill="#69524E" d="M415.4,429c-0.6,1.4-1.8,2-3.4,2.4C412.6,429.5,413.6,428.7,415.4,429L415.4,429z" />
	<path fill="#50423F" d="M453.2,413.8c0.1-1.1,0.7-1.7,1.8-1.6C455.1,414,455,414.1,453.2,413.8z" />
	<path fill="#46413E" d="M249.1,437.8c1.6-1.3,1.6-1.3,2.5,0C250.8,437.8,250.1,437.8,249.1,437.8z" />
	<path fill="#56514D" d="M526.8,306.3c0.5-0.8,0.9-1.4,1.4-2.1C528.9,306.1,528.8,306.2,526.8,306.3z" />
	<path fill="#442B29" d="M461.4,407.1c0.2-2.4,0.2-2.4,2.2-2.3C462.9,405.5,462.4,406.1,461.4,407.1z" />
	<path fill="#5B423E" d="M415.4,429.1c0.5-0.8,0.5-2.2,2-2.1C418.4,428.3,416.2,428.6,415.4,429.1L415.4,429.1z" />
	<path fill="#130303" d="M326.1,447.8c0.1-1.8,0.4-2.2,1.6-1.5C327.3,446.7,326.9,447.1,326.1,447.8z" />
	<path fill="#6F605B" d="M422.7,423.5c-0.4,0.4-0.9,0.8-1.3,1.1c-1-1,0.1-1.5,0.9-1.6C422.5,423.2,422.6,423.4,422.7,423.5z" />
	<path fill="#665853" d="M370.9,420.3c0.1,1.6-1.5,1.6-1.3,0.1C370,420.4,370.4,420.4,370.9,420.3z" />
	<path fill="#483A38" d="M466.6,402.4c-0.4-1.2,0-1.8,1-2.1C468.5,401.6,467.6,401.8,466.6,402.4z" />
	<path fill="#3B2220" d="M318.8,449.9c-0.6,0.6-0.9,0.9-1.4,1.3C317.3,450.2,317.3,450.2,318.8,449.9z" />
	<path fill="#EECABA" d="M355.6,485.3c-0.1-0.5-0.2-0.9-0.2-1.4C356.4,484.2,356.4,484.6,355.6,485.3z" />
	<path fill="#5876E7" d="M516.8,484.4c-4.6,0.6-10.3,0.3-15.1-0.3c-1.4-9.1-6.5-18.8-7.9-26.9C502.2,465.5,509.9,474.8,516.8,484.4z   " />
	<path fill="#111326" d="M516,483.1c-11.9-15.8-25.1-31.1-41.5-42.2c0.3-0.3,0.6-0.6,1-1c18.3,12.6,47.1,25.8,48.6,50.6   c-3.4,1.7-4.8-4.5-7.2-6.2C516.8,483.9,516.3,483.6,516,483.1z M490.1,451.3c-0.1-0.3,0-0.7-0.5-0.3c11.8,10.9,22.7,26.4,33.4,37.7   C520.2,471.7,503.4,460.1,490.1,451.3z" />
	<path fill="#07070D" d="M522.8,390.5c14.5,11.3,25.2,26.9,32.4,43.7c-0.3,0.3-0.5,0.5-0.8,0.8c-8.7-16.2-18.5-31.5-32.5-43.7   C522.2,391.1,522.5,390.8,522.8,390.5z" />
	<path fill="#04050A" d="M590.8,369.7c7.7,9.5,3.5,23.8-0.8,33.5c-1-1.9-0.8-3.7,0-5.6c3-9.4,3.4-21-2.4-29.4   C589.3,367.8,589.6,369.5,590.8,369.7z" />
	<path fill="#0B0911" d="M518.2,446.2c1.2,1,2.5,1.9,3.7,2.9c-0.2,0.2-0.5,0.5-0.7,0.7c-12.9-7.1-25.9-14.9-40.7-17.4   C493.5,431.1,506.9,440.1,518.2,446.2z" />
	<path fill="#06080F" d="M495.5,530.2c-3.4-5,7.6-14.6,13.1-14.6C504.9,520.9,498,523.5,495.5,530.2z" />
	<path fill="#0B0F1C" d="M490.7,493.5c0.5,4.6,2.8,20.1-0.5,22.6c-1.9-6.5,0.6-13.6-0.2-20.3C490.3,495,489.7,494,490.7,493.5z" />
	<path fill="#101427" d="M590,403.2c0.8-0.3,0.7-1.1,0.8-1.7c2.5,6.4,4.8,12.8,8.1,18.9C594.8,419.8,591.4,407.3,590,403.2z" />
	<path fill="#3D57AA" d="M537.5,387.6c0.5-0.7,0.1-1.4-0.1-2.1c5.7,4.5,11.2,9.7,16.1,15c-0.2,0.6-0.4,0.9-0.5,1.2   c-0.2,0-0.5,0-0.7,0c-0.4-0.9-0.8-1.7-1.5-2.3l0.1,0.1c-0.3-0.3-0.5-0.5-0.8-0.8l0.1,0.1c-0.3-0.3-0.5-0.5-0.8-0.8l0.1,0.1   c-0.1-0.2-0.2-0.4-0.3-0.6c-0.1,0.2-0.2,0.3-0.4,0.5c-0.5-0.5-1.1-0.9-1.6-1.4c1-1.3-5.1-5.8-6.7-6c0,0,0,0,0,0   c-0.6-1.3-1.4-2.2-3-2.2l0,0C537.5,388.1,537.5,387.9,537.5,387.6z" />
	<path fill="#1B2446" d="M554.5,435c0.3-0.3,0.5-0.5,0.8-0.8c1.8,4,5.2,8.2,4.8,12.7C558.1,442.7,555.9,439,554.5,435z" />
	<path fill="#5673E3" d="M591.5,378c1,4.2,0.5,8.4-0.1,12.5C590.3,387,590.2,381.6,591.5,378z" />
	<path fill="#293462" d="M486.5,484.5c-1.1-4.1-3.7-7.2-6.1-10.6c0.4-0.3,0.7-0.5,0.9-0.7c2.4,3.4,4.9,6.7,6.7,10.5l-0.3,0   c-0.2,0.3-0.4,0.5-0.6,0.8C486.9,484.6,486.7,484.5,486.5,484.5z" />
	<path fill="#1B2444" d="M487.1,484.6c0.2-0.3,0.4-0.5,0.6-0.8c1.5,3.1,2.6,6.3,3,9.7c-1,0.5-0.4,1.5-0.7,2.3   C488.9,492.3,488.5,488.2,487.1,484.6z" />
	<path fill="#2A376B" d="M540.4,390.6c1.9,0.1,3,1.9,4.4,3C542.8,393.8,541.3,392.2,540.4,390.6z" />
	<path fill="#2B3460" d="M521.1,449.8c0.2-0.2,0.5-0.5,0.7-0.7c1.2,0.7,2.5,1.4,3.7,2.2c-0.1,0.2-0.1,0.3-0.2,0.5   c-1.5,0.1-2.8-0.8-4.2-1.3C521.2,450.2,521.2,450,521.1,449.8z" />
	<path fill="#263262" d="M544,393.6c0.3,0,0.6,0,0.8,0c0.7,1,3.3,1.8,2.2,3C546,395.6,545,394.6,544,393.6z" />
	<path fill="#2A376B" d="M537.4,388.4c1.6,0,2.4,0.9,3,2.2c-0.3,0-0.5,0.1-0.8,0.1C538.9,389.9,538.2,389.2,537.4,388.4z" />
	<path fill="#111325" d="M550.7,399.4c0.3,0.3,0.5,0.6,0.8,0.8C551.3,400,551,399.7,550.7,399.4z" />
	<path fill="#111325" d="M549.3,398c0.3,0.3,0.5,0.5,0.8,0.8C549.8,398.5,549.5,398.2,549.3,398z" />
	<path fill="#111325" d="M550,398.7c0.3,0.3,0.5,0.5,0.8,0.8C550.5,399.2,550.3,399,550,398.7z" />
	<path fill="#111325" d="M548.7,397.9c0.1-0.2,0.2-0.3,0.4-0.5c0.1,0.2,0.2,0.4,0.3,0.6C549.1,398,548.9,398,548.7,397.9z" />
	<path fill="#211A19" d="M380,263.6c4.9-3.7,8.2-7.9,13.3-10C392.5,256,382.7,265.2,380,263.6z" />
	<path fill="#302725" d="M382.6,312.1c-3-2.1-6.9-6.7-8.6-9.9C376.7,302.1,382.4,309.3,382.6,312.1z" />
	<path fill="#4D423E" d="M374.7,293.7c0.2-0.3,0.3-0.6,0.5-1c1.4,1,2.4,1.8,3.7,2.7c-0.2,0.4-0.3,0.8-0.5,1.2   C376.5,296.5,375.7,294.9,374.7,293.7z" />
	<path fill="#7E6A65" d="M488.1,233.9c-1.7,1.9-3.3,2.7-5.1,3.9C483.2,235.5,485.2,234.3,488.1,233.9z" />
	<path fill="#483C39" d="M392.7,325.3c-2.2-0.4-2.5-0.7-3.1-2.8C391.8,323.1,391.8,323.1,392.7,325.3z" />
	<path fill="#594C46" d="M370.4,287.2c1.5,0.4,2.5,2.4,1.4,3.5C370.5,289.9,369.9,288.8,370.4,287.2z" />
	<path fill="#40312E" d="M408,247.1c0.9-0.5,1.8-1.3,3-0.9c-0.3,1.2-1.3,1.4-2.2,1.8C408.6,247.7,408.3,247.4,408,247.1z" />
	<path fill="#290E0D" d="M455.4,217.4c1.5-1.7,2-1.8,3-0.2C457.4,217.8,456.5,217.9,455.4,217.4z" />
	<path fill="#25100F" d="M465.9,214.3c-0.7,1.5-1.8,1.2-3.1,1.1C463.7,213.7,463.7,213.7,465.9,214.3z" />
	<path fill="#6F615D" d="M479.4,240c0.5-0.9,0.9-1.9,2.4-1.8C480.6,240.1,480.6,240.1,479.4,240z" />
	<path fill="#544340" d="M399.3,252.5c1.1-1.5,1.9-2.3,3.6-2.5C402.1,251.4,401.4,252.2,399.3,252.5z" />
	<path fill="#766D68" d="M408,247.1c0.3,0.3,0.6,0.6,0.9,0.8c-0.6,0.7-1.2,1-2.2,0.1C407.2,247.8,407.6,247.5,408,247.1z" />
	<path fill="#9B817B" d="M366.7,281.7c-0.7,1.2-1.7,0.7-1.1-0.5C365.9,281.4,366.2,281.5,366.7,281.7z" />
	<path fill="#2E2B29" d="M418,243.9c0.6-0.4,0.9-0.7,1.5-1.1C419.4,244.1,419.4,244.1,418,243.9z" />
	<path fill="#6F605B" d="M386.4,317.5c0,1.3-0.4,1.4-0.5,0C386,317.5,386.2,317.5,386.4,317.5z" />
	<path fill="#584D49" d="M448.7,220c0.3-0.6,1.1-0.5,1.1,0.2C449.3,220.7,449,220.5,448.7,220z" />
	<path fill="#0F0B0B" d="M606.7,271.6c-7.5-0.6-20.4-6.4-21.7-14.7C590.7,263.4,600,266.6,606.7,271.6z" />
	<path fill="#1F1918" d="M620.5,225c-3.7,2.2-7.2-1.1-11.5-1.7C613.5,222.3,617.3,221.6,620.5,225z" />
	<path fill="#292220" d="M613.7,276.5c2.9,1.5,6.3-1.5,8.5,3c-3.7,0.1-6.6-1.1-9.6-1.9C613,277.2,613.4,276.9,613.7,276.5z" />
	<path fill="#241D1B" d="M613.7,276.5c-0.4,0.4-0.7,0.7-1.1,1.1c-2.3-0.6-4.1-1.8-5-4.1C609.7,273.3,610.9,273.9,613.7,276.5z" />
	<path fill="#2E1D1B" d="M624.6,282.9c2.3-0.4,4,0.2,5.6,1.1C630.1,286.4,625.5,284.8,624.6,282.9z" />
	<path fill="#302421" d="M596.8,224c-0.9-0.6-1.7-1.2-2.5-1.8c0.4-2.3,3.2-0.4,3.9,0.8c-0.1,0.3-0.1,0.7-0.2,1.1   C597.6,224.1,597.2,224,596.8,224z" />
	<path fill="#1C0909" d="M633.6,285.4c1.2-0.4,2.4,0.1,3.5,0.5c0.1,2.1-2.5,0.4-3.6,0.4C633.5,286,633.6,285.7,633.6,285.4z" />
	<path fill="#362F2D" d="M603.3,223.4c0.2-1.6,2.3-2.1,3-0.7C605.3,224.2,605.3,224.2,603.3,223.4z" />
	<path fill="#EECABA" d="M606.3,222.7c-0.2-0.3-0.4-0.5-0.6-0.8C605.8,222.2,606.1,222.4,606.3,222.7z" />
	<path fill="#050506" d="M546.5,82.4c0.7-1.1,1.5-2.1,2.2-3.2c0.1,0.1,0.3,0.1,0.4,0.2c-8.3,24.3-2.6,49.1,1,73.7   c2.8,8.1,7.2,17.1,4,25.9C549.8,147.3,534,114.3,546.5,82.4z" />
	<path fill="#131314" d="M549.4,197.8c0.4-0.4,0.8-0.9,1.5-1.7c-6.2,23-4.4,33.4,1.2,56C543.5,235,542.8,215.6,549.4,197.8z" />
	<path fill="#060404" d="M346.9,499.4c0.2,8.7-13.5,15.1-20.8,11.3c6.1-3.5,13.1-5.5,18.3-10.6C345.1,499.6,345.7,498.8,346.9,499.4   z" />
	<path fill="#0A0707" d="M245.9,516.6c0.2,6.5-12.2,20.3-18.8,15.5C235.9,530.2,239.2,521.8,245.9,516.6z" />
	<path fill="#1C1614" d="M544.8,334.4c4.4,1.1-1.3,6.2-3.3,7.4C541.5,339.5,542.7,336.8,544.8,334.4z" />
	<path fill="#433632" d="M528.5,356.3c1-1.8,2.4-3.4,2.3-5.4c3.7-0.6-0.3,6.1-2.1,6.7C528.6,357.2,528.5,356.7,528.5,356.3z" />
	<path fill="#3D2926" d="M220.8,538.9c1.4-0.6,3.2-0.3,3.6,1.4c-0.7,1.8-2.7-0.2-3.8-0.6C220.7,539.4,220.8,539.2,220.8,538.9z" />
	<path fill="#1B110F" d="M249.4,503.2c-1.8-0.4-0.6-2-0.1-3.2C250.6,501.2,249.9,502.2,249.4,503.2z" />
	<path fill="#442D29" d="M442.9,445.2c1.1-1,1.7-1.6,2.3-2.2C446.1,444.7,445.8,445,442.9,445.2z" />
	<path fill="#594742" d="M528.5,356.3c0.1,0.4,0.1,0.8,0.2,1.2c-0.7,0.9-1.6,1.4-3.1,1.7C526.4,357.8,527.6,357.2,528.5,356.3z" />
	<path fill="#4F443F" d="M537.3,345.2c-0.5,0.8-1,1.7-1.8,3c-0.4-1.9,0.3-2.7,1-3.4C536.8,344.9,537,345.1,537.3,345.2z" />
	<path fill="#4C3A35" d="M245,510.5c0.5-1,0.8-1.6,1.1-2.2C247.7,509.4,246.6,510.4,245,510.5z" />
	<path fill="#0B0A09" d="M352.4,491.1c-0.4,0.3-0.8,0.7-1.2,1c-1.1-0.8-0.1-1.3,0.1-2.6C351.9,490.3,352.1,490.7,352.4,491.1   L352.4,491.1z" />
	<path fill="#0B0B0B" d="M572,210.3c0.6,11.3,1.7,22.6-0.5,33.8c0.4,2.3-3.6,4.3-3.3,1.1c0.8-2.2,0.4-4.5,0.8-6.8   c1.7-9.5-5.2-20.6,1.7-29C571.2,209.7,571.6,210,572,210.3z M570.5,213.7c-1.1,4-1.1,7,0.1,11.2   C571.7,220.9,571.1,217.3,570.5,213.7z" />
	<path fill="#121213" d="M570.7,139.8c1.3-12.8-3.6-25.2-3.7-37.6c0.3-0.3,0.5-0.6,0.8-0.8c3.2,19.1,9.2,40,1.4,59.2   C567.1,156.7,571.8,145.5,570.7,139.8z" />
	<path fill="#0C0C0D" d="M587,110.3c-0.2,11.3,4.9,25.2-1.8,34.9c1.1-11.1,1.2-22.2-1-33.3c0-1.5-0.7-3.5,0.6-4.6   c0.2,1.7,0.7,3.1,1.1,4.9C586.3,111.4,586.6,110.8,587,110.3z" />
	<path fill="#454449" d="M568.5,134.1c-2-12.8-7.3-25.6-8.9-38.3c4.2,11.5,7.7,24.9,9.6,37.5C568.9,133.5,568.7,133.8,568.5,134.1z" />
	<path fill="#29282A" d="M587,110.3c-0.3,0.6-0.7,1.1-1.2,1.9c-0.3-1.3-0.6-2.4-0.9-3.6c1.5-2.2-0.7-8.2-1.9-10.6   c0.1,3.3,1,6.2,1.7,9.3c-1.1,0.5-0.4,1.6-0.8,2.4c-0.8-4.7-4.7-12.3-1.6-16.2C585.1,98.8,586.7,104.3,587,110.3z" />
	<path fill="#3A3A3E" d="M568.5,134.1c0.2-0.3,0.5-0.6,0.7-0.8c0.8,6.5,2.4,12.9,0.2,19.2C569.7,146.3,568.7,140.2,568.5,134.1z" />
	<path fill="#2B282B" d="M567.7,101.4c-0.3,0.3-0.5,0.6-0.8,0.8c-1.3-3.2-6.9-7-5.3-10.4C563.6,95.1,565.8,98.1,567.7,101.4z" />
	<path fill="#2B282B" d="M568.5,106.6c-1.1-1.3-0.5-3.1-0.5-4.7C569.1,103.3,568.5,105,568.5,106.6z" />
	<path fill="#928F98" d="M570.7,143.4c-1.1-1.1-0.5-2.4-0.6-3.7c0.2,0,0.4,0,0.6,0C570.7,141,570.7,142.2,570.7,143.4z" />
	<path fill="#2B282B" d="M567.1,108c1.2,0.9,0.6,2.1,0.6,3.2C566.9,110.3,567,109.2,567.1,108z" />
	<path fill="#7D737B" d="M572,210.3c-0.4-0.3-0.8-0.6-1.3-0.8c0-0.4,0.1-0.9,0.1-1.4C572.1,208.6,572.3,209.3,572,210.3z" />
	<path fill="#080706" d="M96.7,496.2c0.9-5.3,3.6-12.2,7.8-15.3c0.1,1.3,0.2,2.6,0.4,4c1.4,0.3,2.8,0.5,4.3,0.8c1-1.2,2-2.2,3-3.4   c-0.8-0.8-0.9-1.3-1.3-2.3c3.3-8.9,10.3,0.5,7.3,6.5c-0.9-0.3-1.7-0.6-2.8-1c-2.9,3.4-7.6,2.6-11.5,1.5c-1.6,1.9-3.1,3.7-3.7,6.3   c2.2,0.2,4.1,0.5,5.6,0.6c3.3-3,6.8-6.1,11.4-5.5c-0.1,0.4-0.1,0.7-0.2,1.3c-3.2,0.8-5.9,2.6-8.1,5.5c1.1,0.8,2.1,1.4,3,2.1   c2.7-0.4,2.9-3.4,5-4.3c2.7,1.7-2.6,5.6-3.3,7.8c-0.6,0.1-1.2,0.2-1.8,0.3c-0.4-0.6-0.9-1.1-1.4-1.8c-1.6,0-3.1-0.4-4.4-1.7   c-2.8-0.2-5.7-0.8-8.6-0.7l0,0C97.1,496.8,96.9,496.5,96.7,496.2C96.6,496.2,96.7,496.2,96.7,496.2z M114.7,483.1   c0.7-0.2,1.2-0.3,1.8-0.4c-0.6-1.4-0.6-4.7-2.7-3.5C114,480.3,114.3,481.4,114.7,483.1z" />
	<path fill="#040404" d="M62.6,415.3c9.7,1.8,0.7,17.5,9.2,22.3c1.8,1.6,2,4.1,2.5,6.3c-0.4,0.2-0.6,0.4-1,0.7   c-1.6-1.1-2.8-2.8-4.8-3.2C64.5,436.9,57.8,420.1,62.6,415.3z" />
	<path fill="#070606" d="M78.8,432.3c-3.4-3.4-10-9.3-8.3-14.3c0.8,0.4,1.7,0.8,2.5,1.2c0.5-0.7,1.1-1.3,1.6-1.9   c2.3,0.5,2.6,3,4.4,3.9c-0.1,1.9-0.2,3.6-0.2,5.5C79.9,428.5,82.4,430.5,78.8,432.3z" />
	<path fill="#E0C1B2" d="M117.2,488.4c-4.6-0.6-8.1,2.5-11.4,5.5c-1.6-0.2-3.5-0.4-5.6-0.6c0.6-2.6,2.1-4.4,3.7-6.3   c3.5,1,7,1.6,10.3-0.4C114.7,488.2,117,486.6,117.2,488.4z" />
	<path fill="#DCB8AA" d="M111.4,481.5c0.2,0.2,0.4,0.5,0.8,0.8c-1,1.1-2,2.2-3,3.4c-1.4-0.3-2.8-0.5-4.3-0.8c-0.1-1.5-0.3-2.7-0.4-4   c1.3-0.1,1,1.5,2.3,2c0.7,0.1,1.7,0.3,3,0.6C110.2,482.9,110.8,482.2,111.4,481.5z" />
	<path fill="#2A2624" d="M110.6,458.2c-0.7-0.7-1.1-1.2-1.4-1.5c1.1-3.2,1.1-3.4,3.5-4.6C112.5,454.2,112.5,456.2,110.6,458.2z" />
	<path fill="#2F2A29" d="M114.8,444.9c1.3,1.8,0,5.1-2.3,5.2C111.4,448.6,112.9,444.8,114.8,444.9z" />
	<path fill="#05050A" d="M518.1,441.8c-9.9-4.9-20-11.3-31.1-13.6c-1.5-0.1-3.2-0.2-4.2-1.9c4.2-5.5,30.3,11.2,36.2,14.5   C518.7,441.2,518.4,441.5,518.1,441.8z" />
	<path fill="#0E0C17" d="M520.6,423.5c-9,1.5-17.4-0.5-26.5,0.7C495.5,419.5,515.9,422.2,520.6,423.5z" />
	<path fill="#111323" d="M505.8,399.2c6.1,4.6,12.3,9.3,15.9,16.1c-1,0.6-1-0.3-1.4-0.6C515.6,409.2,509.2,405.6,505.8,399.2z" />
	<path fill="#4963C1" d="M512.3,438.8c1.8,0.8,3.7,1.4,5.2,2.9c-0.4,0.1-0.9,0.2-1.6,0.4c0.8,1.5,1.6,2.9,2.3,4.2   c-2.2-1.3-4.4-2.6-6.5-3.9c0.2-0.4,0.6-0.9,0.5-1C511.3,440.4,511.8,439.6,512.3,438.8z" />
	<path fill="#1B2141" d="M518.1,441.8c0.3-0.3,0.6-0.6,0.9-0.9c2.6,1.1,4.2,3.1,6,5C523.8,447.3,519.8,442.5,518.1,441.8z" />
	<path fill="#141629" d="M522.8,390.5c-0.3,0.3-0.6,0.6-0.9,0.8c-2.1-1.3-4.1-3.2-4.2-5.8C520,386,521,389,522.8,390.5z" />
	<path fill="#353E76" d="M475.4,440c-0.3,0.3-0.6,0.6-1,1c-0.9-0.6-1.8-1.1-3-1.9C473.4,438.4,474.4,439.2,475.4,440z" />
	<path fill="#4963C1" d="M511.6,442.3c-0.3-0.2-0.6-0.4-1-0.6C511,441.9,511.3,442.1,511.6,442.3z" />
	<path fill="#1B0F10" d="M267.7,397.4c-2,0.4-3.9,0.9-5.9,1.3C262.3,395.9,265.7,397.7,267.7,397.4z" />
	<path fill="#280809" d="M267.7,397.4c-1.4-0.1-2.7-0.1-4.1-0.2c1.9-1.1,3.8-0.8,5.9-0.6C269.1,397.7,268.3,397.4,267.7,397.4z" />
	<path fill="#64454B" d="M276.6,396.6c0.5,0,1,0,1.7,0C277.7,397.7,277.1,397.2,276.6,396.6z" />
	<path fill="#484045" d="M284.4,396.9c-0.4,0.3-0.7,0.4-1.2,0.1C283.6,396.6,283.9,396.4,284.4,396.9z" />
	<path fill="#070504" d="M738.4,346c-5.3,6.2-14.2-3.5-17.5-8.7c5.5,1.1,9.6,5.6,15.2,6.7C737,344.3,737.9,344.7,738.4,346z" />
	<path fill="#432E2A" d="M658.8,312.1c-3.8-1.1-9.1-0.3-12.2-3.6c4.6,0.8,8.6,1.2,12.3,2.8c0,0,0,0,0,0   C658.9,311.6,658.8,311.8,658.8,312.1z" />
	<path fill="#4E3F3A" d="M707.1,333.1c1.9-0.6,2.9,0.6,4,1.6C710.4,336.6,707.5,334.6,707.1,333.1z" />
	<path fill="#46332F" d="M715.8,335.5c0.8-2.1,3.8-0.1,3.7,1.8C717.7,337.4,716.8,336.3,715.8,335.5z" />
	<path fill="#1D0D0C" d="M662.2,312.4c1.2,0.2,2.5,0.4,4,0.6C664.2,314.1,663.5,314.1,662.2,312.4z" />
	<path fill="#36302C" d="M702.8,332.6c-0.7-0.5-1.5-1-2.3-1.5C701.9,330.3,701.9,330.3,702.8,332.6z" />
	<path fill="#3B1C19" d="M670.3,315c0.9-0.9,1.9-0.8,3-0.3C672.4,316,671.3,315,670.3,315z" />
	<path fill="#504D47" d="M654.9,311.6c0.9-0.1,1.8-0.4,2.5,0.5C656.5,311.9,655.7,311.7,654.9,311.6z" />
	<path fill="#504D47" d="M658.8,312.1c0.1-0.3,0.1-0.5,0.2-0.8c0.3,0.1,0.6,0.3,0.9,0.4C659.5,311.9,659.1,312,658.8,312.1z" />
	<path fill="#504D47" d="M658.9,311.3c-0.3-0.2-0.5-0.3-0.8-0.5C658.4,311,658.6,311.2,658.9,311.3z" />
	<path fill="#2C221F" d="M444.4,285c-2.4,5.1-6.3,8.5-11.3,9.8c3.7-3.6,7.9-6,10.5-10.7C443.8,284.4,444.1,284.7,444.4,285z" />
	<path fill="#917B71" d="M419.4,300.2c-0.9,0.7-1.1,0.9-1.5-0.1C418.2,299.5,418.7,299.8,419.4,300.2z" />
	<path fill="#54433E" d="M444.4,285c-0.3-0.3-0.6-0.6-0.8-0.9c0.2-0.5,0.5-1,0.8-1.6C445.1,283.8,445.1,283.8,444.4,285z" />
	<path fill="#3C2825" d="M430.1,295.7c-0.3,0.1-0.6,0.2-0.9,0.3c-0.1-0.3-0.2-0.5-0.3-0.8C429.7,295.1,430,294.7,430.1,295.7z" />
	<path fill="#3C2926" d="M424.2,298.1c0.3,0.1,0.5,0.2,0.7,0.2c-0.3,0.5-0.5,0.7-1,0.4C423.9,298.5,424.1,298.3,424.2,298.1z" />
	<path fill="#110D0C" d="M148,464.7c-3.4-4.3,15.3-9.9,18.5-10.4C163.1,460.6,153.2,459.8,148,464.7z" />
	<path fill="#2B2A2F" d="M163.8,474.9c-2.3-3.3,1.5-6.2,3-9c0.3,0.3,0.6,0.6,0.8,0.9C166.2,469.4,164.3,471.9,163.8,474.9z" />
	<path fill="#443734" d="M174.1,450.7c-2.1,1.8-2.1,1.8-4,1.7C169.6,450.5,173.4,448.9,174.1,450.7z" />
	<path fill="#C9CFE6" d="M163.2,471.3c-0.1,0.6-0.2,1.2-0.2,1.9c-0.1,0.2-0.3,0.3-0.5,0.3C162.5,472.7,162,471.7,163.2,471.3z" />
	<path fill="#111325" d="M553,401.7c0.1-0.3,0.3-0.7,0.5-1.2c-9.1-9.5-18.3-17.8-29-26c12.2,4.6,33.1,26.2,39,38.3   C559.6,411.4,556.9,404.6,553,401.7L553,401.7z" />
	<path fill="#4B64C3" d="M546.4,391.2c-4.2-3.2-7.9-7.3-11.9-10.8c-0.2-1-0.5-2.1-0.7-3.2C539.3,378.4,543.7,386.5,546.4,391.2z" />
	<path fill="#323F76" d="M537.5,387.6c0,0.3-0.1,0.5-0.1,0.8c-3.6-1.2-6.2-4.6-9.4-6.7C530,380.4,535.1,386.5,537.5,387.6z" />
	<path fill="#4B65C5" d="M553.7,402.5c0.2,0.2,0.4,0.4,0.7,0.6C554.1,403,553.9,402.7,553.7,402.5z" />
	<path fill="#4B65C5" d="M553,401.8c0.2,0.2,0.4,0.5,0.7,0.7C553.4,402.2,553.2,402,553,401.8z" />
	<path fill="#2B3365" d="M474.6,341.8c-0.2-0.1-0.3-0.2-0.5-0.3c0.2-0.2,0.3-0.3,0.5-0.5C474.6,341.3,474.6,341.5,474.6,341.8z" />
	<path fill="#13100F" d="M126.3,467.7c0.7-0.1,1.5-0.2,2.3-0.3c0.9-1.7,2.2-2.7,4.3-2.9c5.1-1.7,6-8.6,9.4-12.4   c0.9,6.8-3.5,12-7.5,16.5c-2.9,0.6-6.1,3.4-8.9,1C126,468.8,126.2,468.2,126.3,467.7l-0.1-0.1L126.3,467.7z" />
	<path fill="#B6998D" d="M149.3,428.8c-0.1-0.8-0.4-1.3,0.4-2C150.6,427.5,151.1,428.9,149.3,428.8z" />
	<path fill="#3B2F2B" d="M576.6,303.2c-0.3-0.2-0.5-0.4-0.7-0.6c1.9-4,2.4-4.5,4.6-4.1C579.5,300.4,577.8,301.6,576.6,303.2   L576.6,303.2z" />
	<path fill="#57413C" d="M573.6,304.7c-0.4,0.1-0.8,0.1-1.6,0.2c0.3-1.1,0.4-1.9,1.6-1.2C573.6,304,573.6,304.3,573.6,304.7z" />
	<path fill="#2E2523" d="M569.3,281.2c3.5,2.4-1.7,9.5-4.4,10.2C565.2,287.7,569.3,285.5,569.3,281.2   C569.4,281.2,569.3,281.2,569.3,281.2z" />
	<path d="M484.9,524.4c-0.6,1.2-1.6,0.8-3.3,0.3C483.3,524.6,484.1,524.6,484.9,524.4L484.9,524.4z" />
	<path fill="#D6BCB0" d="M97.3,497c2.8,0,5.6,0.1,8.3,0.8C103.1,497.3,99.1,499,97.3,497z" />
	<path fill="#D6BCB0" d="M106.2,497.8c0.3,0.2,0.6,0.4,0.9,0.7C106.8,498.3,106.5,498,106.2,497.8z" />
	<path fill="#D6BCB0" d="M96.6,496.2c0.3,0.3,0.5,0.5,0.8,0.8C97.1,496.8,96.9,496.5,96.6,496.2z" />
	<path fill="#4B65C5" d="M516,483.1c0.2,0.2,0.4,0.4,0.5,0.7C516.3,483.6,516.2,483.4,516,483.1z" />
	<path fill="#5775E6" d="M519.1,484.5c-7.9-10.3-16.5-19.9-25.3-29.5c0.3-0.3,0.6-0.6,0.9-0.9C502.7,461.8,522.5,471.7,519.1,484.5z   " />
	<path fill="#4760BC" d="M519.1,484.5c1.2-1.5,0.5-3.4,0.7-5.2c2.1,2.8,2.9,6,3.3,9.4C521.6,488.2,521.6,488.2,519.1,484.5z" />
	<path fill="#405DB7" d="M494.7,454.1c-0.3,0.3-0.6,0.6-0.9,0.9c-1.4-1-2.8-2.2-3.6-3.8l0,0C492.1,451.5,493.4,452.8,494.7,454.1z" />
	<path fill="#405DB7" d="M490.1,451.2c-0.2-0.1-0.4-0.2-0.5-0.3C490.1,450.5,490,451,490.1,451.2L490.1,451.2z" />
	<path fill="#BBBBC7" d="M570.5,213.7c0.5,3.6,1.2,7.2,0.1,11.2C569.5,220.7,569.4,217.7,570.5,213.7z" />
	<path fill="#6F6F77" d="M584.7,107.3c-0.8-3-1.7-6-1.7-9.3c1.2,2.4,3.4,8.4,1.9,10.6C584.8,108.2,584.8,107.8,584.7,107.3z" />
	<path fill="#1B1817" d="M114.7,483.1c-0.4-1.6-0.7-2.8-0.9-3.9c2.2-1.2,2.1,2.1,2.7,3.5C115.9,482.8,115.4,482.9,114.7,483.1z" />
</g>
</svg>