<?xml version='1.0' encoding='utf-8'?>
<svg xmlns="http://www.w3.org/2000/svg" version="1.2" baseProfile="tiny" id="Layer_2_00000165945010522042473440000012234901256171217566_" x="0px" y="0px" viewBox="0 0 900 600" overflow="visible" xml:space="preserve">
<g id="b_00000125602426670011972410000013732624871528021672_">
	<g><path d="M678.9,111.5c0.2,0.6,0.1,1.8-0.7,2.1l0,0c0-0.6,0-1.2-0.6-1.4c-1-3.8,1.5-12.3-1-14.7c-1.4,1.1-1.8,3.1-3.5,3.6   c-0.5-0.2-1.1-0.4-1.5-0.5c-0.9,0.5-1.1,2-2.4,1.8c0-1.8-2-3-3.4-2.6c-0.1,0.7-0.2,1.5-0.4,2.5c-2.4-1.1-4.7-1.9-6.4-3.9   c-0.3,0.7-0.5,1.2-0.7,1.7c-1.8-1.1-3.5-2.1-5.1-3c-0.3,0.4-0.6,0.8-0.7,0.9c-1.2,0.2-2-1-3.1,0.2c-0.1,4.9,1.2,11-1.6,15.4   c-1.8-6,2.7-13.6-1.6-19.2c-0.5,0.1-1.1,0.3-1.9,0.6c-0.7-2.2-2.4-2.7-3.5-4.6c-1.2,0-2.5,0-4.2,0c0.5-1.2,0.8-2.1,1.3-3.4   c-1.2,0.3-2,0.4-3,0.6c-0.3-0.9-0.5-1.7-0.8-2.7c-0.9-0.4-1.9-0.8-3.1-1.3c0.5-0.5,0.8-0.9,1.4-1.5c-0.5-0.4-1.1-0.9-1.6-1.4   c-0.8,0.2-1.4,0.4-2.3,0.6c-1.5-1.8-0.3-3,0.6-4.7c-1.4-1.2-2.2,0.8-3.2,0.8c-1.4-1.2,0.1-2.2,0.1-3.4c-0.4,0-0.9,0.1-1.3,0.1   c-1.2-3.1-1.2-3.1-0.9-5.3c-0.4-0.5-0.8-1-1.3-1.5c0.1-1.2,0.3-2.5,0.4-3.8c-1.9-0.8-3.1-2.1-3.9-3.9c0.4-1.3,2.3-2.1,1.8-4   c-0.5,0-1,0-1.8,0c-0.6-2,0.4-3.6,0-5.6c-0.4-1.2,0.8-2.1,1.8-2.8c-0.5-1.6-1.8-0.9-3-1c-0.5-2.2,1.6-3.5,2.6-5.2   c0.8,0.1,1.1-0.8,0.4-1.1c-0.1,0.2-0.2,0.3-0.3,0.5c-3.4-1.2,0.9-4,2.5-5.4c-1.4,0.2-2.2,0.3-3.1,0.4c-0.8-1.2,0.3-2.1,0.5-3.3   c0.9-0.4,1.8-0.8,2.9-1.3c0-0.8,0-1.6,0-2.3c1.2-1.1,2.4-2.2,3.9-3.5c0.7-1.1,2.7,0.8,3.5-1c-0.8-0.3-1.5-0.5-2.6-0.9   c1.7-2.2,4.5-1.3,6.4-3.2c-0.5-0.4-0.9-0.6-1.4-1c1-1.8,4-0.8,4.6-3.2c1.7,0,3.3,0,5,0c-0.1-0.9-0.6-1.1-1.1-1.3   c-0.3-0.4-0.6-0.7-1-1.2c3.4-3.2,8-1.7,12.3-1.2c0-0.9,0-1.5,0.2-2.4c1.9-0.3,3.7-0.6,5.7-0.9c2.1,2.7,3.5,0.3,5.9,1.3   c1.7-1.1,5.4-3.9,6.4-0.8c-0.8,0.1-1.7,0.3-2.7,0.5c1.3,2.2,5.9-0.9,8.6-0.8c1.3,1-0.7,2-1.6,2.8c5.3-0.2,10.4,1.6,14.8,4.1   c-0.7,1.6-3.8-0.5-3,1.9c1.6-0.1,3.2,0,4.5-1.1c0.9-0.1,1.8-0.8,2.6,0.4c-0.2,0.5-0.5,1-0.7,1.6c3,0.3,4.6,2.1,5.1,5   c-0.4,0-0.8,0-1.1-0.1c-0.7-1.2-1.6-0.6-2.7-0.1c0.7,0.1,1.1,0.2,1.5,0.3c0.7,0.6,1.4,0.8,2.3,0.5c1,0.4,2.3,0.6,2.2,2.4   c-0.7,0.2-1.5,0.4-2.3,0.7c0.2,0.9,0.5,1.2,1.3,1.3c2.6,0.2,3.2,2.6,5.2,3.9c-0.2,0.4-0.3,0.8-0.5,1.3c3,4,3,4,1.7,6.3   c0.8,1.4,2.2,2.8,0.9,4.9c3.1,3.4-0.7,7.5,1.7,11.8c-0.3,0.2-0.7,0.4-1.1,0.6c-0.8-0.7-1.7-1.3-2.5-2c-0.5,2.2,3.5,3.2,1.1,5.6   c0.9,1.7,0.5,3.4,0.3,5.4c-0.5-0.1-0.9-0.1-1.3-0.2c-0.2,2.4-0.4,4.8-0.6,7.5c-0.7-0.2-1.3-0.4-2.3-0.8c-0.2,0.4-0.5,1-1,1.9   c0.1,0.3,0.2,1,0.4,1.6c-0.4,1.2-0.9,2.4-1.4,3.7c-0.5-0.1-1-0.2-1.6-0.3c-0.3,1-0.6,1.9-1,3c-0.7-0.2-1.3-0.3-1.8-0.4   c-0.8,1.2-1.6,2.5-2.5,3.8c0,0.6-0.1,1.3-0.1,2.5c-0.7-0.9-1.2-1.4-1.7-2c-1.8,0.7-2.9,2.1-3,4.3c-1.3-0.2-2.2-0.3-3.1-0.4   c-1.8,1.9-1.9,5.5-5.6,4.2C678,97.9,677.6,107.9,678.9,111.5z M698.8,58.1c0.1,1.4,0.6,1.8,1.8,1.8   C700.6,58.6,700.1,58.1,698.8,58.1z M627.5,26.8c-0.4,0.3-0.8,0.7-1.3,1.1C627.3,28.5,627.8,28.3,627.5,26.8z M683.7,23.4   c0.4-0.3,0.8-0.7,1.3-1.1C684,21.8,683.4,21.9,683.7,23.4z M643.7,15.3c1.7,0.3,1.7,0.3,1.6-0.8C644.9,14.7,644.4,14.9,643.7,15.3z    M705.8,39.1c-0.5-0.3-0.9-0.5-1.3-0.8C703.9,39.3,704.9,39.8,705.8,39.1z M655.1,12.4c0.1,0,0.3,0,0.4,0c0-0.5,0-0.9,0-1.4   c-0.1,0-0.3,0-0.4,0C655.1,11.4,655.1,11.9,655.1,12.4z M622.8,59.8l0.1-0.2h-0.2L622.8,59.8z" />
	<path fill="#020101" d="M733.3,275.2c-4.4,4.3-12.2,1.6-15.7,7.4c4.6,35.8-4.4,70.9-12.1,105.4c-2,25.8,6.6,51.1,4.9,76.7   c0.3,21.5-5.1,43.3-1.6,64.7c2.5,0.5,5.5,0.8,5.2,3.9c0.2,7.8,1.3,15.6,4.3,22.9c1.9,0.4,3.9,0.8,6,1.2c1.2,1.2,1.7,2.7,1.9,4.3   c-0.3,0.7,0.3,1.8-0.7,2.3c-0.2-0.3-0.5-0.5-0.7-0.8c0-1.5-0.7-2.7-1.5-4c-1.9-0.5-3.9-1.1-6.2-1.8c-2.4-3.3-3.6-7.7-3.6-11.8   c-0.6-0.5-1.1-0.9-1.6-1.3c0.3-0.9,0.6-1.6,0.9-2.3c-0.5-0.6-1-1.2-1.2-1.5c0-3.1,1.8-6.3-0.5-8.8c-9.5,11.6-16-12.2-26-12.1   c1.3-1.2,1.3-1.2,3.3-1.3c0.8-21.5-9.7-40.8-14.2-61.1c-0.8-18.4,2.4-36.6-3.8-54.3c-0.6-18-2.9-36.8-9-53.6   c-2.1,19.3-5.8,38.5-7.1,57.9c-6.2,16.5-1.5,34.1-3,51.3c-4.3,19.6-16.9,40-13.2,60.5c-11.3,4.8-13.2,18.9-24.6,14.8   c-0.9-2.1,1.7-1.2,1.8-3c-4.5,0.4-4,6.5-2.8,9.6c-0.5,0.6-1,1.2-1.5,1.8c0.3,0.8,0.6,1.6,0.9,2.3c-0.6,0.5-1.2,0.9-2,1.6   c1.2,2.2-0.8,3.9-0.9,6.2c-0.1,4.6-4.2,6.3-7.7,7c-3.1,0.6-2.2,5.9-4.2,7.7c-1.8-3,0.3-6.4,2.2-9.5c1.9-0.4,4-0.8,6.2-1.3   c2.5-7.5,4.3-15.5,4.3-23.4c0.3-3,3-4.9,6.1-4.7c3.4-26.9-1.8-53.7-1.5-80.6c0.3-17.6,5.7-34.7,7-52.2   c-5.4-32.7-17.4-65.6-14.5-99.6c2.2-49.1,39.8-53.2,15.8-110.1c-3.9,15.5-7.7,33.3-21.3,43.4c-2.8,2.4-6,2.7-9.2,1   c-6.9-3.5-14.7-2.8-21.8-5.8c-1.2,107.6,0.8,215.6-0.9,323c-1.6-106.3,0-213.7-0.6-320.3c1.3-5-4.7-5-7.1-8   c0.3-0.3,0.5-0.6,0.8-0.8c6.8,2.9,14.7,9.2,22.3,6.9c3.6,1.7,7.1,3.3,10.7,4.9c24.4-13,26.8-46.2,25.6-71c0.2,0,0.5-0.1,0.7-0.1   c2.1,5.6,0.1,12.7,1.9,17.9c0.3-0.3,0.6-0.6,1-0.9c0.2,0.2,0.4,0.4,0.5,0.6c-0.6,0.9-1.1,1.8-1.8,2.8c20.4,60.2,3.5,50-13,101.9   c34.9,5.5,70.3,8.1,105,0c-1.4-4.5-2.5-8.8-3.2-13.3c-1.3-0.7-2.4-0.3-3.7-0.4c0-0.3,0-0.5,0-0.8c7.1-1.2,13.1,4.8,20.8,2.4   c-3.5,4.9-9.6,0.6-14.5,0c1,3.5,0.6,7,2.6,10.3c1.3-0.8,2.6-1.9,4-2.1C725.1,278.1,731.2,272.8,733.3,275.2z M630.1,521.7   c1.8-0.7,3.3-1.7,4.8-3.1c-2-0.8-4.2,1.9-6.2,2.3c-3.2,0.8-6.5,0.7-9.6,1.1c-0.7,2.4-1.3,8.4-0.9,10.5   C624,531.2,626.2,525.5,630.1,521.7z M696.6,521c-1.8-0.8-3.7-1.6-5.5-2.4c-1.2,2,2.2,2.8,3.4,3.8c4,2.9,6.5,11.9,12.6,9.5   c-0.5-3.4-1.1-6.7-1.6-9.9C702.3,521.7,699.5,521.4,696.6,521z M681.6,476c5.3,12.9,7.2,26.8,8.9,40.8c4.3,2.3,9.8,3.7,15.1,2.6   c0.4-24.4,3.9-48.6,2.7-73c-2.8-17.2-4.8-34.2-5.3-51.6c4.1-36.8,18-73.8,12.3-111.3c-35.1,6.1-70.4,6.3-105.3-0.1   c-6.2,37.9,8.3,75.1,13.4,111.8c-1.3,13-2.7,25.7-6,38.3c-4.3,28.5,3.7,57.2,2,85.9c5.2,0.8,10.9,0.2,15.5-2.7   c1.3-18.3,6.2-35.6,13.4-52.2c1.4-12.6,1.3-25.9,0.5-38.6c0-7.7,2.9-15.2,4.4-22.7c2.4-8.9-1.4-18,2.1-26.8   c6.4-21.2,5.6-43.6,4.9-65.4c-6.5,4.4-17.2,6.8-24,2.8c8.7,0,18.8,0.9,25.1-6.2c1.2-0.6,2,0.2,2.8,0.9c7.2,6,16.4,5.3,25.3,5.3   c-8.5,4.1-20.1,1.3-27.2-4.9c-3.5,34.2,9.4,66.2,11.3,100.1C680.7,430.9,670.4,455.3,681.6,476z" />
	<path fill="#0E0E0D" d="M561,195.4c0.2,2,0.4,4,0.7,6.1c2,0.5,4.1,1,6.1,1.5c1.5-51.2-0.3-102.9,1-154.3c0.2,0,0.5,0,0.7,0   c0.7,51.5,0.3,103,0.5,154.5c6.6,3.8,13-0.4,19.4-2.6c5.8-13.8,10.8-28.2,13.2-42.9c0.2,0.6,0,1.4,0.8,1.7   c-1.1,14.8-6.6,31-13.9,43.7c-1.2-0.5-2.3-0.5-3.1,0.7c-9.5,4-20.7,2.6-29.4-2.3c0.8-1.5,1.7-0.4,2.6-0.5c1.1-1.1,1.1-1.8,0.2-3.5   c0-4.9-0.1-9.8-0.1-14.7c0.2-0.3,0.5-0.5,0.7-0.8C560.9,186.3,559.4,191.5,561,195.4z" />
	<path fill="#040303" d="M699.6,122c15.9,1.5,32.6,7.1,38.1,23.8c2.2,6,4.3,12.1,9.7,15.9c12.3,10.2,19.7,24.8,27.3,38.5   c4.7,12.8-16.1,36.3-23.1,47.4c-0.3-0.3-0.5-0.6-0.8-0.8c4.8-13.6,28.9-34.4,21-48.2c-8.3-13.3-16.4-27.1-27.9-37.8   c-8.2-8.4-9.1-21.4-19.1-28.6c-8-7.6-20.1-5.5-29.6-9.4C696,121.4,698.2,122.3,699.6,122z" />
	<path fill="#141010" d="M568.2,222.9c2.6,107.4-1,216.8,1.3,324.3c-11.7,15.7-26.5,29.1-38.6,44.5c-2.9-0.2,0.1-2.6,0.8-3.5   c12.2-13.9,24.3-27.7,36.7-41.7C568.1,438.5,568.6,330.7,568.2,222.9z" />
	<path fill="#0A0707" d="M603.4,159.4c-4-50,26.7-23.1,43.7-47.3c4.6,9.8,18.6,6.7,27.5,5.6c0.2,0.2,0.5,0.4,0.7,0.6   c-9.7,3.9-20.1,4.1-28.6-2.5c-2.5,2.9-4.8,4.6-8.1,6.3c2.3,15.1,0,30.8-6.9,44.4c-2-3.4,3.4-11.8,3.8-16.2   c2.6-8.9,2.9-18.3,2.2-27.6C607.1,130.7,607.6,126.5,603.4,159.4z" />
	<path fill="#181211" d="M719.8,573.8c-10.6,2.5-28.8,1.3-32.6-10.9c-0.5-2.8-1.8-5.3-4.4-6.9c-5.6-5.4-16.8-9.2-15-18.7   c6-4.7,12.8-8,15.3-15.5c0.3,0.3,0.5,0.6,0.8,0.8c-0.3,9.8-18,12.2-14,20.5c5,6.5,14.1,9.1,17.7,16.6c2.7,13.9,19.9,14.4,31.4,13.5   C719.2,573.4,719.5,573.6,719.8,573.8z" />
	<path fill="#130F0E" d="M640.1,521.1c2.7,7.8,9.1,11.2,15.5,16.1c2.8,12.4-15.9,14.7-19.2,24.8c-4.4-8.7,23.4-15.4,16.4-23.3   c1.1-3.5-11.8-6.2-13.6-16.6C639.5,521.7,639.8,521.4,640.1,521.1z" />
	<path fill="#191412" d="M635.8,560.4c4.8,14.7-35,20.9-38.7,6.5c0.8-0.3,0.6-1,0.8-1.6c1.5,3.3,4.5,5.1,6.8,7.6   c2,0.3,4,0.8,5.8-0.5c5.6,2.7,13.5-1.3,19.3-3.2C633.7,568.1,634,563.6,635.8,560.4z" />
	<path fill="#13100F" d="M562.5,217.9c-0.3,0.3-0.5,0.6-0.8,0.8c-5.5-4.5-11.8-7.7-16.8-12.9c-0.3-8.3-0.1-17,0.8-25.3   c0.2,0,0.4,0,0.6,0c0.1,0.7-0.3,1.6,0.6,2.1C545.7,204.6,544.2,204.8,562.5,217.9z" />
	<path fill="#100E0D" d="M750.8,246.8c0.3,0.3,0.5,0.6,0.8,0.8c-6.8,8.7-10.2,20.1-18.3,27.6c-0.2-0.8-0.8-0.9-1.5-0.9   C739.4,266.4,743.6,255.3,750.8,246.8z" />
	<path fill="#15100F" d="M699.6,122c-1.4,0.3-3.6-0.5-4.5,0.8c-0.4,0-0.8,0.1-1.2,0.1c-0.3,1.3-0.6,2.3-0.9,3.4c-0.3,0-0.5,0-0.8,0   c0-0.9,0.1-1.8,0.1-2.7c2.8-1.7-11.9-6.1-13.5-7c-0.1-1-0.5-2-0.8-3c0.8-0.3,0.7-1,0.8-1.6C683.1,118.8,692.5,120.4,699.6,122z" />
	<path fill="#342824" d="M546.2,167.6c1.3-1.8,1.5-3.9,1.6-6.1c1.6,1-0.3,3.2,1.3,4.2c0.7,6.2,5,14,2.2,19.5   c-0.3-6.6-1.9-11.8-3.3-18.3c-0.5,1.1-0.8,1.7-1,2.3C546.6,168.7,546.4,168.2,546.2,167.6z" />
	<path fill="#2B2522" d="M554.6,163c2.3,4.8,2.6,10.4,4.3,15.5c-0.2,0.3-0.5,0.6-0.7,0.9c-3.6-2.5-2-7.4-3.2-11   c-0.9-1.7-1-3.6-0.9-5.4l0,0C554.2,163,554.4,163,554.6,163z" />
	<path fill="#231E1C" d="M719.8,573.8c-0.3-0.2-0.5-0.4-0.8-0.6c2.2-2.9,6.9-5,6.5-9.1c1-0.5,0.4-1.6,0.7-2.3   C729.1,566.8,723.7,571.4,719.8,573.8z" />
	<path fill="#433431" d="M549,165.8c-1.6-1,0.3-3.2-1.3-4.2c0.2-2.2,2.9-8.3,5.4-5.6c0,0.4,0.1,0.9,0.1,1.3   c-0.8,0.1-1.2-0.2-2.1-0.6c0,1.3,0,2.4,0,3.4c-0.3,0.3-0.5,0.6-0.8,0.9c-0.3-0.3-0.6-0.7-1.4-0.3C549,162.3,549,164,549,165.8z" />
	<path fill="#201F1F" d="M569.6,48.7c-0.2,0-0.5,0-0.7,0c0-7.1-0.4-14.2,0.2-21.3C569.8,30.1,570,42.9,569.6,48.7z" />
	<path fill="#4A403D" d="M546.2,167.6c0.7,1.2,0.9,2.5,1.1,3.8H547c-1.2,2.8-0.4,6.1-0.6,9.1c-0.2,0-0.4,0-0.6,0   C546,176.4,544.7,171.6,546.2,167.6z" />
	<path fill="#292524" d="M561,195.4c-1.7-3.8-0.2-9.1-0.7-13.4C561.8,186,560.6,191,561,195.4z" />
	<path fill="#392F2B" d="M552.6,157.3c0.2,0,0.4,0,0.6,0c1.4,1.6,0.9,3.7,0.8,5.7l0,0C552.6,161.7,552.6,159.2,552.6,157.3z" />
	<path fill="#CAE0E0" d="M691.6,16.4c-1.3,1.2-2.9,1-4.5,1.1c-0.8-2.5,2.4-0.3,3-1.9C690.7,15.9,691.1,16.1,691.6,16.4z" />
	<path fill="#292524" d="M558.2,179.4c0.2-0.3,0.5-0.6,0.7-0.9c0.5,1.2,1,2.3,1.5,3.5c-0.2,0.3-0.5,0.5-0.7,0.8   C559.2,181.6,558.7,180.5,558.2,179.4z" />
	<path fill="#5B5B5B" d="M707.2,59.4c0.2-2-2.5-2.3-1.9-4.2c0.9,0.7,1.7,1.4,2.5,2C707.6,58,707.4,58.7,707.2,59.4z" />
	<path fill="#493B39" d="M640.1,521.1c-0.3,0.3-0.6,0.6-0.9,0.9c-0.7-0.7-1.4-1.4-2.1-2.1c0.3-0.3,0.6-0.7,0.9-1   C639.4,519,640.3,519.5,640.1,521.1z" />
	<path fill="#A3B2B2" d="M671.1,9.9c-1.6,0.9-1.6,0.9-2.8-0.4c1-0.2,1.8-0.3,2.7-0.5C671,9.4,671.1,9.7,671.1,9.9z" />
	<path fill="#15100F" d="M678.9,111.5c-1.3-1.4-0.5-3.4-0.6-5.1C678.5,108.1,678.7,109.8,678.9,111.5z" />
	<path fill="#3A3831" d="M683.9,522.6c-0.3-0.3-0.5-0.6-0.8-0.8c0.3-1,0.9-1.7,1.8-2.2c0.4,0.1,0.8,0.1,1.1,0.2   C685.4,520.7,684.6,521.7,683.9,522.6z" />
	<path fill="#615454" d="M641.5,14.2c0.5,0.2,1.1,0.4,1.1,1.3c-0.9,0-1.7,0-2.6,0C640.5,15.1,641,14.7,641.5,14.2z" />
	<path fill="#EAA388" d="M660.7,356c-0.2-1-0.2-1.9,0.4-2.7C661.3,354.3,661.6,355.2,660.7,356z" />
	<path fill="#B2CFCF" d="M697.5,23.3c0.4,0,0.8,0,1.1,0.1c0.1,0.2,0.1,0.4,0,0.6c-0.9,0.3-1.6,0.1-2.3-0.5   C696.7,23.4,697.1,23.3,697.5,23.3z" />
	<path fill="#9BA5A5" d="M620.3,40.2c0.1-0.2,0.2-0.3,0.3-0.5c0.7,0.3,0.4,1.2-0.4,1.1C620.2,40.7,620.2,40.4,620.3,40.2z" />
	<path fill="#9C7C70" d="M554,163c0.1-0.5,0.1-1,0.2-1.5c0.1,0.5,0.3,1,0.4,1.6C554.4,163,554.2,163,554,163z" />
	<path fill="#9C7C70" d="M553.1,156c-0.2-0.2-0.4-0.5-0.6-0.7C552.8,155.5,552.9,155.7,553.1,156z" />
	<path fill="#B28C7D" d="M678.2,113.6c0.2,0.7,0.4,1.3,0.6,2c-8.1,3.8-19.3,5.4-27.4,0.8c1.4-2.3,0.4-5.6,0.7-8   c1.3-1.3,2.2-2.5,3.5-3.3c0.8,0.5,1.5,1,2.6,1.7c0.5-0.8,1-1.5,1.4-2.2c1.1,0.2,1.4,1.6,2.6,1.2c2-0.7,4.4-0.7,5.6-3   c0.2-0.3,0.8-0.3,1.2-0.5c1.4,0.2,1.5-1.3,2.4-1.8c0.5,0.2,1,0.3,1.5,0.5c1.8-0.5,2.2-2.5,3.5-3.6   C677.3,102.9,675.7,108.7,678.2,113.6L678.2,113.6z" />
	<path fill="#957163" d="M669,102.3c-0.4,0.2-1.1,0.2-1.2,0.5c-1.2,2.3-3.6,2.3-5.6,3c-1.2,0.4-1.5-1-2.6-1.2   c-0.4,0.7-0.9,1.4-1.4,2.2c-1.1-0.7-1.8-1.2-2.6-1.7c-1.3,0.8-2.2,2-3.5,3.3c-0.3,2.5,0.7,5.7-0.7,8c-1.5-0.3-3.5-1.2-3.6-2.8   c2.8-4.5,1.5-10.6,1.6-15.4c1-1.2,1.9-0.1,3.1-0.2c0.1-0.1,0.4-0.5,0.7-0.9c1.6,0.9,3.2,1.9,5.1,3c0.2-0.5,0.4-1,0.7-1.7   c1.7,2.1,4,2.9,6.4,3.9c0.2-1,0.3-1.8,0.4-2.5C667,99.4,669,100.5,669,102.3z" />
	<path fill="#15100F" d="M677.4,111.6c-1.4-4.5-0.2-9.5-0.9-14.1C678.9,99.7,676.8,107.9,677.4,111.6z" />
	<path fill="#1C1D1D" d="M698.8,58.1c1.4,0,1.8,0.5,1.8,1.8C699.4,59.9,698.9,59.4,698.8,58.1z" />
	<path fill="#292828" d="M627.5,26.8c0.3,1.5-0.2,1.7-1.3,1.1C626.7,27.5,627.1,27.2,627.5,26.8z" />
	<path fill="#292D2D" d="M683.7,23.4c-0.3-1.5,0.3-1.6,1.3-1.1C684.6,22.7,684.1,23.1,683.7,23.4z" />
	<path fill="#615454" d="M643.7,15.3c0.6-0.3,1.1-0.6,1.6-0.8C645.4,15.5,645.4,15.5,643.7,15.3z" />
	<path fill="#B2E4E4" d="M697.5,23.3c-1,0.2-1.6,0.2-2.7-0.1C695.9,22.6,696.8,22.1,697.5,23.3z" />
	<path fill="#8F8F8F" d="M705.8,39.1c-0.9,0.7-1.8,0.2-1.3-0.8C704.9,38.6,705.3,38.8,705.8,39.1z" />
	<ellipse fill="#5B5E5E" cx="655.2" cy="11.7" rx="0.3" ry="1" />
	<path fill="#15100F" d="M678.2,113.6c-0.2-0.5-0.4-0.9-0.6-1.4C678.2,112.5,678.2,113,678.2,113.6z" />
	<polygon fill="#3B5555" points="622.8,59.8 622.7,59.6 622.9,59.6  " />
	<path fill="#F5DDCE" d="M692.4,123.6c-2.1,19,0,43.9,15.8,56.5c-11.7,40.3-19.1,39.7,0.9,78.9c-3.5,3.9-8.8,5-13.3,7.5   c0,0.9,0,1.7,0,2.5c1.7,1.1,3.4,1.6,5.4,1.2c1.4,1.3,2.8-0.6,4.3-0.7c0.3-0.3,0.7-0.5,1-0.7l0,0c0.7-0.5,1.3-0.9,2-1.4   c1.3,0.1,2.4-0.3,3.7,0.4c0.7,4.4,1.8,8.8,3.2,13.3c-27.3,5.6-55.6,7.3-83.2,2.5c-1-16.4,7.2-30.8,13.7-45.2c2.2,0,4.3,0,7,0   c-2-2.4-4-0.7-6.3-1.8c0-0.7,0-1.4,0-2.4c2.7-0.5,6.5,1.2,8.1-1c-2.5-0.4-4.9-0.8-7.4-1.2c7.4-17.5-6.2-32.4-8.4-48.8   c2.6,1.9,5.3,1.5,8.3,2.3c-3.8-7.4-7.7-14.1-12.2-21c0.4-11.5,5.4-22.9,5-34.4c2-5.3,7.6-6.2,10.4-10.7c9.2,2.5,19.9,2.5,28.4-2.7   c4.4,1.6,9,3.5,13.4,5.5C692.3,122.6,692.4,123.1,692.4,123.6z M662,234.9c-0.1,0.8-1.1,2.2,0.5,2.1c0.1-0.4,0.2-0.9,0.3-1.3   c0.6-0.6,0.8-1.3,0.2-2.1C662.2,233.6,661.9,234.1,662,234.9z M661.8,219.1c-1.1,1.1-0.1,2.1,0.1,3.1c-0.1,1.4-1.3,2.7-0.5,4.2   c1.2-0.4,1.2-2.5,1.9-3.4c-2.2-2.7,2.8-7.1,0.5-8.9C662.3,216.3,662.3,216.3,661.8,219.1z M662.9,212c1.4-2.4,3.3-5.5,2.1-8.2   C663.6,206.7,662.9,209.2,662.9,212z M665.9,199.2c-2.5,1.7-3.3,3-3.5,5.6C664.2,203.1,665,201.2,665.9,199.2z M663,227.3   c-1.7,1.7-2,2.8-1.1,4.4C663.2,229.9,663.4,229.1,663,227.3z M663.6,196.7c0.6-0.4,1.6-1.1,0.9-1.9   C663.3,195.4,663.3,195.4,663.6,196.7z M662.5,240.2c-0.5,0.7-1.2,1.4,0,1.9C662.5,241.5,662.5,240.9,662.5,240.2z M661.6,246.1   c0.7-0.6,0-1.8-0.8-1.1C660.5,245.7,660.9,246,661.6,246.1z M660.6,252.1c0.1,0,0.3,0,0.4,0c0-0.5,0-1.1,0-1.6c-0.1,0-0.3,0-0.4,0   C660.6,251,660.6,251.5,660.6,252.1z M664.5,191.4c-0.4-0.2-0.7-0.3-0.9,0.2C664,191.8,664.3,191.9,664.5,191.4z M665.9,187.3   c0.1-0.3,0.4-0.6,0-0.8C665.5,186.8,665.6,187,665.9,187.3z" />
	<path fill="#EAA388" d="M636.7,286.9c26.2,3.9,52.5,0.1,78.6-3.4C721,321,707.1,358,703,394.8c0.4,17.4,2.5,34.4,5.3,51.6   c1.3,24.4-2.3,48.6-2.7,73c-4.4,0.8-9.8,0.1-13.3-1.8c-1.5-12.2-0.5-24.5-2.9-36.8c3,1.5,3.2,5.2,6.6,3.7   c-12.9-26.8-22.1-37.4-13-69.3c1.1-2.7,1.2-5.5-1.3-7.5c0.1-15.3-1.1-30.1-4.5-45c-1.6-10-6.7-30.8-1.2-39.2   c7.7-6.8,23.3-5.1,27.2-15.1c-14.7,7.7-31.9,2.3-41.4-10.7c0.2,3.3-0.3,6,0.6,8.5c-0.7,0.9-1,1.5-1.8,2.1c-16.2,0.4-27.3-3-29-21   C633.5,287.1,635.1,287,636.7,286.9z M694.3,412.4c-0.1-3.1,0.6-6.6-1.3-9.1c0.3-4.9-5.6-10-8.4-4.4c0.7,5.9,4.4,12.5,8.8,16.2   C693.7,414.1,694,413.2,694.3,412.4z M703.2,446.3c0.5-4.3-0.2-10.2-3.2-13.4C700.3,437.5,702.3,441.8,703.2,446.3z M703.9,456.4   c0.7-4.1,0.7-5.6-0.3-8.1C703.5,451.4,703.3,453.9,703.9,456.4z M697.5,428.6c0.5-0.2,0.7-0.3,1.2-0.4c-0.7-1.1-0.3-2.8-2-3.5   C696.3,426.3,697.3,427.3,697.5,428.6z M704.5,467.7c0.7-1.9,0.5-3.3,0.2-5.4C704,464.4,704.1,465.8,704.5,467.7z" />
	<path fill="#EAA388" d="M643.6,476.7c-5.7,12.3-7.1,26.6-8.8,40.1c-3.8,2.5-8,3.1-12.4,2.9c1.1-13.8,1.6-27.6,2.3-41.5   c1.7,1.2,1.3,4.3,4.1,3c-3.7-14-8.8-29.2-4.9-43.4c1.6-1.7,0.1-4.7,0.4-6.9c0.3,0,0.6-0.1,0.9-0.1l0,0c0.1,0.6,0.9,0.9,1.2,0.2   c0.2-11.6,1.7-23.1,4.8-34.3c5.4,0.8-1.8-26.3-1.2-30.7c-1.9-13.5-0.8-27.5,1.6-41c0.4-15.4,20.3-5.2,28.5-13.8   c0.7,21.8,1.5,44.3-4.9,65.4c-1.5,5.4-2.3,10.7-1.3,16.3c1,8.4-2.8,16.6-4.2,24.8c-3,16.8,3.1,35.5-3.4,51.8   c-0.8-0.1-0.5-1.7-1.8-1.1c-0.7,3.1-2.2,5.1-3,8.5c0.9-0.5,1.3-0.8,1.9-1.2C643.5,476,643.6,476.4,643.6,476.7z M644.3,394.2   c-1.1-0.9-2.4-1.3-3.9-1.4c-0.9,0.9-1.7,1.8-2.5,2.6c0,6.9,0.2,13.4,5.5,18.5C645.1,407.6,646.1,400.5,644.3,394.2z M640.2,476.1   c-1.4,0.9-2.3,2.1-2,4.3C639.8,479.2,639.9,477.6,640.2,476.1z M632.1,407.3c0.3-1,0.8-1.9-0.6-2.5   C630.9,406.3,630.9,406.3,632.1,407.3z M632.8,400.4c0-0.6,0-1.2,0-2.3C631.7,399.1,631,400.2,632.8,400.4z M635.5,480   c-1.1,0.9-1.1,0.9-1.2,2.2C635.4,482.1,635.4,481.3,635.5,480z" />
	<path fill="#D69479" d="M641.7,315.8c-22.3-1.8-7.8,65.7-8.6,79.7c-0.2,0.1-0.3,0.2-0.5,0.2c0.2,0.2,0.3,0.3,0.5,0.5   c-0.4,1-1.1,0.5-1.7,0.4c-3.1,11.2-4.6,22.8-4.8,34.3c-0.3,0.6-1.1,0.4-1.2-0.2c1.7-2,0.6-5.7,0.3-9.1c-0.8,3.5-0.6,6.3-0.3,9.1   c-0.7,0.1-1.3,0.1-2.1,0.2c-0.4,2.3-0.3,4.6,0.7,6.8c-3.9,14.2,1.3,29.4,4.9,43.4c-2.8,1.3-2.4-1.8-4.1-3   c-0.7,13.9-1.2,27.6-2.3,41.5c-1,0.2-2.1,0.4-3.1-0.2c1.7-28.7-6.3-57.3-2-85.9c3.3-12.7,4.8-25.3,6-38.3   c-5.1-36.7-19.6-74-13.4-111.8c8.8,1.5,18.1,2.2,26.7,3.5c-1.6,0.1-3.2,0.2-5.1,0.3c1.7,18.1,12.9,21.5,29,21   c-6.2,6.6-16.1,5.5-24.5,5.6C637.5,315.7,639.8,315.2,641.7,315.8z M624.3,424.3c-0.4,2.1-2.5,4.5,0.1,6.1   C624.6,428,624.5,426.2,624.3,424.3z M621.7,444.3c1.2-1,1.1-2.5-0.2-2.8C620.9,442.5,620.9,443.3,621.7,444.3z M634.9,313.7   c-1.1-1.4-2-1.5-3.1-1C632.3,313.8,633.2,313.9,634.9,313.7z M621.1,311c0.1-0.9-0.2-1.6-1.3-1.1   C620.3,310.4,620.7,310.7,621.1,311z M627.3,311c0.4,1.3,0.4,1.3,1.3,0.9C628.2,311.5,627.8,311.2,627.3,311z M617.8,308.8   c0.7-0.8,0.1-1.5-0.6-1.1C617.4,308.1,617.5,308.4,617.8,308.8z M620.9,449.5c-0.2,0-0.3,0-0.5,0.1c0.1,0.4,0.1,0.9,0.2,1.3   c0.2,0,0.3,0,0.5-0.1C621,450.4,620.9,449.9,620.9,449.5z" />
	<path fill="#B28C7D" d="M558.2,179.4c3,6.6,1.2,14.5,1.4,21.6c-0.8,0.1-1.8-1-2.6,0.5c8.7,4.9,19.9,6.3,29.4,2.3   c0.3,0.2,0.5,0.5,0.8,0.7c0,0.5-0.9,1,0,1.5c1,3.8-0.6,9.2,3.2,12.4c4-17.2,11.7-33.4,15.4-51.1c8.2,2-0.4-23.6,8.2-38.2   c7.7-3,16-3.2,23.7-6.3c1.2,18.4-2.4,39.1-13.9,53.8c-2.1-7.2,0.5-16.4-3.3-23.4c2.3,25.6,1.2,60.7-23.3,75.5   c-4.4-5.1-10.8-6.3-17-7.9c-11.9-2.6-21.8-10.3-30.9-17.9c-3.3-11.2,0.4-22.7-2.4-33.6c0.3-0.6,0.5-1.2,1-2.3   c1.4,6.5,3,11.7,3.3,18.3c3.2-7.2-3.5-16.5-2.2-24.6c0.8-0.4,1,0.1,1.4,0.3c1.1,5.7,2.4,11.6,3.9,17.1c0.1,0,0.2-0.1,0.4-0.1   c0-1.7,0-3.5,0-5.2c0.2,0,0.4,0,0.6,0C556.1,175.2,555.8,178,558.2,179.4z M552.9,185.6c-0.5,1.4,0,2.2,1,3.2   C554.2,187.4,554.3,186.4,552.9,185.6z M600.2,223.3c1.1-1.1,1.1-1.1,0.6-2.2C599.9,221.6,599.5,222.3,600.2,223.3z M625,127.1   c0.3,1.8,0.3,1.8,1.9,1.5C626.2,128,625.6,127.6,625,127.1z M555.2,194.4c0.1-2.3,0.1-2.3-1.2-2   C554.3,192.8,554.6,193.3,555.2,194.4z M629.7,127.8c-0.5-0.3-0.7-0.4-1-0.6C627.9,128.1,628.8,128.7,629.7,127.8z M620.4,151.4   c0.2-0.1,0.5-0.2,0.7-0.3c-0.1-0.4-0.2-0.8-0.3-1.2C619.8,150.2,620.1,150.7,620.4,151.4z M600.7,218.5c1.2,0.3,1.5,0,1-1   C601.3,217.8,601.1,218,600.7,218.5z" />
	<path fill="#E6CCBB" d="M635.1,159.2c0,1.8,0,3.5,0,5.2c4.6,6.9,8.4,13.6,12.2,21c-3-0.8-5.8-0.4-8.3-2.3   c2.2,16.3,15.8,31.2,8.4,48.8c2.5,0.4,4.9,0.8,7.4,1.2c-1.6,2.2-5.4,0.6-8.1,1c0,1,0,1.7,0,2.4c2.3,1,4.3-0.6,6.3,1.8   c-2.7,0-4.8,0-7,0c-6.5,14.4-14.6,28.9-13.7,45.2c-7.4-0.5-14.4-1.4-21.8-2.5c16.5-51.9,33.4-41.7,13-101.9   C629,173.2,632,166.6,635.1,159.2z" />
	<path fill="#D69479" d="M697.2,311c1.6-1.4,4-1.6,6.1-2.7c-3,11.4-27.5,7.4-29.3,19.7c-1.3,27,9.4,52.6,7.7,79.6   c2.5,2.1,2.4,4.8,1.3,7.5c-9.2,32,0.1,42.5,13,69.3c-1.2,0.1-2.3,1.1-2.9-0.2c1-1.1,1-1.1-0.5-2.6c-0.1,0.5-0.2,0.9-0.4,1.3   c-0.8-0.6-1.6-1.3-2.8-2.3c2.5,12.3,1.4,24.6,2.9,36.8c-0.6-0.3-1.2-0.5-1.8-0.8c-1.7-13.9-3.6-27.9-8.9-40.8   c0.1-0.4,0.2-0.7,0.3-1c0.7,0.4,1.3,0.6,1.9,0.9c0.6,1.4,0.5,1.6,2.3,2.5c-1.3-3.1-1.4-5.7-2.4-8.1c-0.4,0.3-0.5,0.4-0.7,0.6   c-0.3,0-0.7-0.1-1-0.1c-1-1.3-1-6.1-3.1-4.8c0.3,1.4,1.6,2.9,0.6,4.3c-6.2-13.4-3.1-29.9-3-44.4c0.1-11.6-6.7-22.8-5-34.5   c1.5-9.4-3-18.4-4.7-27.5c-4.5-18-6.5-36.3-4.7-54.9c7.1,6.2,18.7,9,27.2,4.9c-8.9,0-18.1,0.6-25.3-5.3c-0.8-0.7-1.6-1.5-2.8-0.9   c0.3-0.4,0.7-0.9,1.1-1.5c-0.9-2.5-0.3-5.3-0.6-8.5C670.9,309.1,682.8,314.1,697.2,311c-0.1,0.4-0.3,0.8-0.4,1.2   c0.9,0.4,1.2-0.2,1.6-0.9C698,311.1,697.6,311.1,697.2,311z M679.3,418.6c0.9-2.3,1.4-4.1-0.4-6.1   C678.8,415,678.6,416.8,679.3,418.6z M690.8,313.4c1.7,0.4,1.7,0.4,2.6-0.9C692.4,312.4,691.3,312,690.8,313.4z M689.4,479.5   c-0.5-2-0.5-2-1.4-2.7C688.1,478.7,688.1,478.7,689.4,479.5z M680,409.4c0.3-0.4,0.4-0.7-0.2-1C679.6,408.9,679.5,409.2,680,409.4z    M680.9,404c-0.1-0.2-0.2-0.3-0.3-0.5c-0.4,0.2-0.1,0.5,0,0.9C680.7,404.3,680.8,404.2,680.9,404z" />
	<path fill="#F7EFD0" d="M601.3,559.2c3.5-0.8,7.6-2.4,7.7-7c0.1-2.2,2.1-4,0.9-6.2c0.9-0.7,1.4-1.1,2-1.6c-0.3-0.7-0.6-1.5-0.9-2.3   c0.5-0.6,1-1.2,1.5-1.8c-1.1-2.4-0.8-4.8-0.5-7.2c12.9,6.8,13.8-10.5,23.2-11.3c2.4,6.3,6.7,11.2,12.7,14.3   c-14.2,9.6-20.9,28.8-37.2,35.9C606.8,567.7,599.7,566.4,601.3,559.2z" />
	<path fill="#F7EFD0" d="M690.3,521.7c6,3.5,13.4,20.3,20.7,10c2.3,2.6,0.5,5.7,0.5,8.8c0.3,0.3,0.7,0.8,1.2,1.5   c-0.3,0.7-0.6,1.4-0.9,2.3c0.5,0.4,1,0.8,1.6,1.3c0.1,4,1.3,8.5,3.6,11.8c2.3,0.6,4.3,1.2,6.2,1.8c1.5,2.1,1.7,3.9,1.2,6.3   c-22.4,14.8-31.1-18.5-46.2-28C681.1,531.5,686.5,527.2,690.3,521.7z" />
	<path fill="#977164" d="M750.8,246.8c-7.2,8.6-11.4,19.6-19,27.6c-4.6,2.7-10.2,1.8-14.4,5c-2-3.2-1.6-6.8-2.6-10.3   c4.9,0.6,11,4.9,14.5,0c-8.3,2.4-14.5-3.8-22.2-2.4c8-5.4,13.3,5.8,24.7-2c1.1,0.7,2.7-0.3,3.8,1.1c2-3.2,4.4-6.6,4.5-10.3   c0.3,0,0.5,0,0.8,0l0,0c0.1,0.4,0.2,0.9,0.4,1.6c5.5-7.7,8.7-17.4,15.9-24.4c4.7-7.9,8-17.1,15.4-23   C767.7,222.6,756.9,233.9,750.8,246.8z M731,268.7c0.7-0.5,1.3-1.1,2.2-1.8C731.3,266.7,731.3,266.7,731,268.7z" />
	<path fill="#977164" d="M547.2,171.5c2.3,10-1.2,21,2.1,31.4c9.2,7.6,19,15.3,30.9,17.9c6.2,1.6,12.6,2.8,17,7.9   c-0.6,0.4-1.1,0.7-1.7,1.1c-3.6-1.6-7-3.2-10.7-4.9c-13.6,1.7-26.5-10-36.3-18.4c-5.1-10.5,0-23.5-1.6-35H547.2z M580.1,222.2   c-0.3-0.5-0.6-0.9-1.3-0.2C579.4,222.1,579.8,222.1,580.1,222.2c-0.4,1.2,1.7,3,2,1.2C581.7,222.5,581,222.1,580.1,222.2z    M550.4,204.9c-0.2-0.3-0.3-0.3-0.5,0C550.1,205.2,550.2,205.2,550.4,204.9z" />
	<path fill="#E6D9B5" d="M681.6,532.2c-1.1,1.9-2.9,3-3.3,5.3c5,3.6,10.3,8.2,12.6,13.9c-6.6-4.9-11.7-13.2-19.7-14.8   c8.4-5,10.5-8.8,14.9-16.9c0.4,0.2,0.9,0.4,1.3,0.6c-1.4,4.6-3.6,8.7-7,11.9C681,532.2,681.3,532.2,681.6,532.2z M674.9,535.7   c1.8-0.5,1.8-0.5,3-1.7C676.1,534.4,676.1,534.4,674.9,535.7z" />
	<path fill="#B08A7C" d="M696.6,521c2.9,0.3,5.8,0.7,8.9,1.1c0.5,3.2,1,6.5,1.6,9.9c-6.1,2.3-8.6-6.6-12.6-9.5   C694.8,521.4,695.6,521.1,696.6,521z" />
	<path fill="#E9DAB5" d="M702.8,564.8c9.4,5.5,11.7,6.8,21.7,0.8c0.1-0.9,0.2-1.6,0.3-2.3c0.2,0.3,0.5,0.5,0.7,0.8   c0.3,4.1-4.3,6.2-6.5,9.1c-2.5,0-5.3,1-7.7,0.2c0-0.3,0-0.5,0-0.8c0.4-0.1,0.7-0.2,1.6-0.4C708.6,570.5,705.4,568.5,702.8,564.8z" />
	<path fill="#E8DAB6" d="M601.3,559.2c-1.6,7.2,5.5,8.5,9.4,12.7c0,0.2-0.1,0.4-0.2,0.6v-0.1c-1.8,1.2-3.8,0.7-5.8,0.5   c-2.3-2.5-5.4-4.3-6.8-7.6C599,563.5,598.8,559.6,601.3,559.2z" />
	<path fill="#947163" d="M625.3,527.4c-1.6,2.8-4.2,4.1-7.1,5.1c-0.3-2.1,0.2-8,0.9-10.5c1.3-0.5,2.7-0.2,4-0.2   c-0.2,0.4-0.4,0.8-0.7,1.4C623.2,524.7,624.1,526.2,625.3,527.4z" />
	<path fill="#E1D8B8" d="M635.2,521.8c-0.4,0-0.9,0-1.3,0c1.1-0.7,2.2-1.3,3.4-2c1.2,1.2,2.5,2.4,2.9,4.1c0.9,5,5.2,7.3,8.7,10.4   l-0.1,0.1c-1.1-0.4-2.2-0.7-3.4-1.1c0,0.4,0,0.7,0,1.1c-1-0.7-1.9-1.4-2.9-2.1c0.3-0.1,0.7-0.2,1.6-0.4   C638.8,530.1,639.4,523.8,635.2,521.8z" />
	<path fill="#AC8879" d="M625.3,527.4c-1.2-1.2-2.1-2.7-2.9-4.2c0.3-0.5,0.5-1,0.7-1.4c1.9-0.3,3.7-0.6,5.6-0.9   c0.5,0.2,0.9,0.5,1.4,0.7C628.1,523.2,627.2,525.7,625.3,527.4z" />
	<path fill="#805748" d="M683.8,476c-0.6-0.3-1.2-0.6-1.9-0.9c-0.1,0.2-0.2,0.6-0.3,1c-1-1.8-1.6-3.7-2-5.7c1-1.4-0.3-2.9-0.6-4.3   c2.1-1.3,2.1,3.5,3.1,4.8c0.3,0,0.6,0.1,1,0.1C683.3,472.6,683.5,474.3,683.8,476z" />
	<path fill="#261F1C" d="M631.7,166.5c-1.2,3.9-2.9,7.4-6.4,9.8c-0.2-0.2-0.4-0.4-0.5-0.6c2.6-3.2,4.4-7.1,6.2-10.7   C631,165.6,630.9,166.3,631.7,166.5z" />
	<path fill="#53382F" d="M643.6,476.7c-0.1-0.3-0.2-0.6-0.2-1c-0.5,0.3-1,0.6-1.9,1.2c0.8-3.4,2.3-5.3,3-8.5c1.2-0.7,1,1,1.8,1.1   C645.3,471.8,645.2,474.8,643.6,476.7z" />
	<path fill="#625B4B" d="M682.8,530.2c1.8-3.2,3.6-6.3,4.6-9.9c0.5,0.2,0.9,0.4,1.4,0.6c-2.1,2.9-2.8,6.4-5.1,9.2   C683.4,530.2,683.1,530.2,682.8,530.2z" />
	<path fill="#886B5E" d="M696.6,521c-1,0.1-1.8,0.4-2.1,1.4c-1.1-1.1-4.5-1.8-3.4-3.8C692.9,519.4,694.7,520.2,696.6,521z" />
	<path fill="#E6D9B5" d="M685.9,526.7c1.3-1.8,1.3-4.2,2.9-5.7c0.5,0.2,1,0.5,1.4,0.7C689,523.5,687.6,525.3,685.9,526.7z" />
	<path fill="#5A4D44" d="M630.1,521.7c-0.5-0.2-0.9-0.5-1.4-0.7c2-0.5,4.2-3.1,6.2-2.3C633.5,520,632,521.1,630.1,521.7z" />
	<path fill="#523E38" d="M621.1,158.7c-0.6-1.9-0.7-3.4-0.6-5.6c1.7,1.8,1.4,3.7,1.4,5.5C621.6,158.7,621.3,158.7,621.1,158.7z" />
	<path fill="#B6C0A8" d="M613.4,533.7c-0.5-0.2-1-0.4-1.5-0.6c0.7-1.2,1.5-2.4,3.3-2.4C615.1,532.5,612.5,531.6,613.4,533.7z" />
	<path fill="#1F1B19" d="M707.1,266.6c0.5,0,0.9,0,1.4,0c0,0.3,0,0.5,0,0.8c-0.7,0.5-1.3,0.9-2,1.4c-0.1-0.3-0.2-0.7-0.2-1   C706.6,267.4,706.9,267,707.1,266.6L707.1,266.6z" />
	<path fill="#977264" d="M587.2,204.5c-0.3-0.2-0.5-0.5-0.8-0.7c0.8-1.2,1.9-1.2,3.1-0.7c6.7-10.8,10.8-25.3,13.5-37.8   c2.1-10.9,0-30.5,11-36.2c-8.6,14.7,0,40.2-8.2,38.2c-3.7,17.8-11.4,33.9-15.4,51.1c-3.8-3.2-2.2-8.6-3.2-12.4   c0.4-0.3,0.8-0.6,1.5-1.2C587.9,204.7,587.6,204.6,587.2,204.5z" />
	<path fill="#292524" d="M559.6,201c0.1-1.2,0.1-2.3,0.2-3.5C560.7,199.1,560.6,199.9,559.6,201z" />
	<path fill="#B28C7D" d="M772.6,209.5c-8.2,6.4-10.9,16.9-16.8,25c-7,6.1-9,15.7-14.5,22.5c-0.2-0.7-0.3-1.2-0.4-1.6   c2.4-0.2,0.3-2.4,0,0c-0.3,0-0.5,0-0.8,0c-1.6,1.1-1.7,1.5-0.7,2.7c-0.6,2.9-2.3,5.2-3.9,7.7c-1.1-1.3-2.7-0.3-3.8-1.1   c-11.5,7.8-16.7-3.4-24.7,2l0,0c-3.3,0.5-6.2,2-9.9,1.4c1.6-2.7,9.2-3.1,11.5-6.9c5.9-2.7,14.4-1.2,19.1-5.9   c4.3-8.3,11.1-15.6,13.8-24.6c3.6-8.3,6.2-17.1,10.4-25.1c1.8-1.3,4.7-0.4,6.3-2.2c3.7,1,9.4,3.8,12.1,2c-2.1-3.5-7.3-4.7-11.1-5.7   c-7.1-4.9-13.2-10.3-19.7-16.2c4.3-0.4,8.4,1.2,11.7-1.7c-6.5-5.8-16.7-5.5-23.4-11.5c-4.6-3.3-5.7-10-11-12.4   c-0.5,1.3-2.2,1.5-2,3.1c-0.3,3.1-1.8,5.8-3.3,8.4c-1.6,2.8-0.8,5.9-2.9,8.6c-14.1-9.7-17.2-39-14.8-55c38.4,5.9,30.9,9,49.9,37.8   c11.6,10.7,19.6,24.5,27.9,37.8C774.5,203,774.5,203.8,772.6,209.5z M716.8,133.5c-0.6-2.3-0.6-2.3-2.7-3.4   C714.5,131.6,715,132.7,716.8,133.5z M727.8,152.5c-0.1,1.3,0.3,1.8,1.3,1.8C729.6,153,729.6,153,727.8,152.5z M718.4,132.7   c0.1,2,0.1,2,1.6,1.5C719.3,133.6,718.9,133.1,718.4,132.7z M735.4,261.8c1.3,0.2,2.1-0.1,1.8-1.4   C736.3,260.7,735.9,261,735.4,261.8z M736.5,155.1c1.4-0.1,1-1.9-0.2-1.8C736.2,154,735.8,154.6,736.5,155.1z M715.2,157.9   c1-0.8,1.5-1.4,0.8-2.5C714.9,155.8,714.7,156.5,715.2,157.9z M732.6,153.2c0.1,0.9,0.2,1.6,1.3,1.4   C733.9,153.6,733.8,153.2,732.6,153.2z M715.7,153.3c0.2,0,0.4,0,0.6,0c-0.1-0.4-0.2-0.8-0.2-1.2c-0.1,0-0.3,0-0.4,0   C715.7,152.5,715.7,152.9,715.7,153.3z" />
	<path fill="#E3CABA" d="M652.2,119.2c-0.6,0.1-1.1,0.1-1.7,0.2c-5.3,6.6-10.3,5.5-11.1,15.4c0-4.3-0.2-8.3-0.8-12.6   c3.4-1.6,5.7-3.4,8.1-6.3C648.6,116.8,650.5,117.9,652.2,119.2z" />
	<path fill="#483A35" d="M678.9,116.6c-0.9,1.2-2.3,1.5-3.6,1.7c-0.2-0.2-0.5-0.4-0.7-0.6c1.4-0.7,2.8-1.4,4.2-2.1   C678.8,116,678.9,116.3,678.9,116.6z" />
	<path fill="#957163" d="M651.4,116.4c0.2,0.2,0.5,0.4,0.7,0.5C651.9,116.8,651.6,116.6,651.4,116.4z" />
	<path fill="#EADCB8" d="M711.3,572.6c0,0.3,0,0.5,0,0.8c-26.2-2.2-17-6.4-27.4-18.6c-3.9-4.5-16.8-8.9-14-15.8   C679.7,534.4,699.3,569.2,711.3,572.6z" />
	<path fill="#6D4D41" d="M674.7,538.6c-1.6-1-3.2,0-4.7,0.3c0.2-0.9,0.3-1.8,1.3-2.2c0.7,1.4,2.6-0.2,3.5,1.1   C674.7,538.1,674.7,538.3,674.7,538.6z" />
	<path fill="#EADCB8" d="M635.8,560.4c-1.8,3.2-2.1,7.7-6,8.9c-5.7,1.9-13.7,5.9-19.3,3.2v0.1c11.3,2.2,37.5-45.3,43.8-31.4   C651,549.7,638.2,551.4,635.8,560.4z" />
	<path fill="#E1D8B8" d="M635.8,548.4c2.6-5.2,7.4-9,12-12.3c0.4,0.1,0.8,0.1,1.5,0.2c-0.3-0.7-0.5-1.3-0.7-1.9l0.1-0.1   c1.2,0.8,2.3,1.5,3.5,2.3C645.6,537.9,641.3,544.3,635.8,548.4z" />
	<path fill="#554B3F" d="M647,538.6c1.2-2,3.9-0.6,5.1-2.1c1.2,0.8,1.2,0.8,0.7,2c-1.7-0.1-3.4-0.2-5,0.7   C647.6,539.1,647.3,538.9,647,538.6z" />
	<path fill="#060404" d="M546.9,171.4c0,3.7,0,7.5,0,11.2c-1-0.5-0.5-1.4-0.6-2.1C546.5,177.5,545.8,174.3,546.9,171.4z" />
	<path fill="#030303" d="M750.9,207.4c-3.1,7.7-6.2,15.5-9.2,23.3c-2.5-8.7,9.2-17.8,6.6-27.2c-10.6-12.6-23.7-21.9-33.7-35   c-4.6,18.5-22.8,53.2-12.9,69.8c3.9,6.2,6,13.2,9,19.8c0.4,1.8,2.7,0,3.4,1.5c-1.8,0.5-3.6,1.1-5.4,1.6c-0.3-0.3-0.6-0.5-0.9-0.8   c0.4-0.4,0.8-0.9,1.3-1.4c-20-39.2-12.5-38.6-0.9-78.9c-14.7-11.5-18.1-36-15.9-53.8c0.3,0,0.5,0,0.8,0c0.3,16.9,1,40.8,15.7,51.6   c2.1-2.7,1.3-5.8,2.9-8.6c1.5-2.6,3-5.3,3.3-8.4c0.4-0.3,0.9-0.6,1.5-1c0.8,2.7-1,4.5-1.2,6.7c10.3,10.6,20.7,21.3,31.5,31.4   C750.7,201.9,750.7,201.9,750.9,207.4z" />
	<path fill="#B28C7D" d="M692.4,123.6c-0.1-0.5-0.1-1-0.2-1.4C693.3,122.5,693,123,692.4,123.6z" />
	<path fill="#9C7C70" d="M555.3,172.8c-0.2,0-0.4,0-0.6,0c-1.5-5.4-3.7-10.4-3.5-16.1c0.6,0.3,1,0.4,1.4,0.6c0,1.9,0,4.4,1.5,5.6   C553.5,166.4,556,169.4,555.3,172.8z" />
	<path fill="#3A2E29" d="M551.2,160.1c1.3,6,4,11.7,3.5,17.9c-0.1,0-0.2,0.1-0.4,0.1c-1.6-5.5-2.8-11.4-3.9-17.1   C550.6,160.7,550.9,160.4,551.2,160.1z" />
	<path fill="#221715" d="M707.8,260.3c0.3,0.3,0.6,0.5,0.9,0.8c-2.8,3.6-8.5,4.3-11.8,6.7c2.7,2.7,6.3,1.2,9.3,0   c0.1,0.3,0.2,0.7,0.2,1l0,0c-0.3,0.2-0.7,0.5-1,0.7h-0.3c-2.9,1.2-6.6,1.2-9.4-0.5c0-0.8,0-1.6,0-2.5   C699.9,264.4,704.2,263,707.8,260.3z" />
	<path fill="#4F4743" d="M662.9,212c0-2.8,0.7-5.4,2.1-8.2C666.1,206.5,664.3,209.7,662.9,212z" />
	<path fill="#1E1817" d="M661.8,219.1c0.5-2.8,0.5-2.8,2-5c2,0.9-1.1,4.9-1.1,6.7C661.8,220.5,662,219.7,661.8,219.1z" />
	<path fill="#3B3330" d="M661.8,219.1c0.2,0.6,0,1.4,0.9,1.7c0.2,0.6,0.4,1.3,0.6,2.2c-0.6,0.9-0.7,3-1.9,3.4   c-0.8-1.5,0.3-2.8,0.5-4.2C661.7,221.2,660.7,220.2,661.8,219.1z" />
	<path fill="#594E49" d="M665.9,199.2c-0.9,2-1.8,3.9-3.5,5.6C662.7,202.2,663.4,200.9,665.9,199.2z" />
	<path fill="#4F4641" d="M663,227.3c0.4,1.8,0.2,2.6-1.1,4.4C661,230.1,661.3,229.1,663,227.3z" />
	<path fill="#5D4D48" d="M663.6,196.7c-0.3-1.3-0.3-1.3,0.9-1.9C665.2,195.6,664.2,196.3,663.6,196.7z" />
	<path fill="#745752" d="M662,234.9c-0.1-0.8,0.2-1.3,1-1.3c0.6,0.8,0.4,1.5-0.2,2.1C662.5,235.4,662.3,235.1,662,234.9z" />
	<path fill="#181615" d="M662,234.9c0.3,0.3,0.6,0.5,0.8,0.8c-0.1,0.4-0.2,0.9-0.3,1.3C660.9,237.1,661.8,235.7,662,234.9z" />
	<path fill="#3A342F" d="M662.5,240.2c0,0.6,0,1.2,0,1.9C661.3,241.7,662,240.9,662.5,240.2z" />
	<path fill="#756962" d="M661.6,246.1c-1,0.1-1.3-1.3-0.2-1.3C662.2,245.1,661.9,245.6,661.6,246.1z" />
	<path fill="#1F1B19" d="M701.2,270.2c0.8,0,1.6,0,2.4,0C702.8,270.8,702,270.9,701.2,270.2z" />
	<path fill="#5A4F49" d="M660.6,252.1c0-0.5,0-1.1,0-1.6c0.1,0,0.3,0,0.4,0c0,0.5,0,1.1,0,1.6C660.9,252.1,660.8,252.1,660.6,252.1z   " />
	<path fill="#705B55" d="M664.5,191.4c-0.3,0.5-0.5,0.4-0.9,0.2C663.8,191.1,664.1,191.2,664.5,191.4z" />
	<path fill="#97877E" d="M665.9,187.3c-0.3-0.3-0.4-0.5,0-0.8C666.3,186.7,666,187,665.9,187.3z" />
	<path fill="#1F1B19" d="M705.7,269.4c0.3-0.2,0.6-0.4,0.8-0.6C706.2,269,706,269.2,705.7,269.4z" />
	<path fill="#1F1B19" d="M704.3,270c0.3-0.2,0.6-0.3,0.9-0.5C704.9,269.6,704.6,269.8,704.3,270z" />
	<path fill="#D69479" d="M693.8,405.4c0.8,1.1,0.7,2.4,0.6,3.7c-0.4,0-0.8,0.1-1.4,0.2c0.1,1.1,0.1,2.1,0.1,3.1c0.5,0,0.9,0,1.2,0   c-0.3,0.9-0.6,1.7-0.9,2.8c-4.4-3.7-8.2-10.3-8.8-16.2c2.8-5.6,8.7-0.5,8.4,4.4c-1,1.7-1,1.7,0.6,3.9   C693.7,406.5,693.7,406,693.8,405.4z" />
	<path fill="#32221D" d="M703.2,446.3c-1-4.5-2.9-8.8-3.2-13.4C703,436.1,703.7,442,703.2,446.3z" />
	<path fill="#31211C" d="M703.9,456.4c-0.5-2.5-0.4-5-0.3-8.1C704.6,450.8,704.6,452.2,703.9,456.4z" />
	<path fill="#926454" d="M697.5,428.6c-0.2-1.3-1.1-2.3-0.9-4c1.8,0.8,1.4,2.4,2,3.5C698.2,428.4,697.9,428.5,697.5,428.6z" />
	<path fill="#66463A" d="M694.3,412.4c-0.3,0-0.7,0-1.2,0c0-1-0.1-2-0.1-3.1c0.6-0.1,1-0.1,1.4-0.2   C694.3,410.2,694.3,411.3,694.3,412.4z" />
	<path fill="#976856" d="M693.8,405.4c-0.1,0.5-0.1,1.1-0.2,1.8c-1.6-2.2-1.6-2.2-0.6-3.9C693.9,403.8,693.6,404.7,693.8,405.4z" />
	<path fill="#835B4C" d="M704.5,467.7c-0.4-1.9-0.5-3.4,0.2-5.4C705,464.4,705.3,465.8,704.5,467.7z" />
	<path fill="#5A3F36" d="M692.2,483c0.1-0.4,0.2-0.8,0.4-1.3c1.5,1.5,1.5,1.5,0.5,2.6C692.8,483.9,692.5,483.5,692.2,483z" />
	<path fill="#D49378" d="M644.2,410.2c-0.2,1.1-0.5,2.2-0.8,3.6c-5.3-5-5.5-11.6-5.5-18.5c0.8-0.8,1.6-1.7,2.5-2.6   c1.6,0,2.8,0.5,3.9,1.4c-0.7,0.2-1.1,0.6-0.2,1.4c0.1-0.6,0.1-1,0.2-1.4c1.2,4.5,1.2,11,0,15.5c-0.2-1.6,0.3-3-1.2-4.1   c-0.4,1.8-0.4,3.2,0,4.7C643.6,410.2,643.9,410.2,644.2,410.2z M643.7,400.3c0.2,0,0.3,0,0.5,0   C644.1,399.1,643.8,399.1,643.7,400.3z" />
	<path fill="#47322A" d="M624,437.8c-1.1-2.2-1.1-4.4-0.7-6.8c0.4-0.1,0.8-0.1,1.1-0.1C624.1,433.1,625.6,436.1,624,437.8z" />
	<path fill="#241914" d="M644.2,410.2c-0.3,0-0.7,0-1.1,0c-0.4-1.5-0.5-2.9,0-4.7c1.5,1.1,1,2.6,1.2,4.1   C644.2,409.9,644.2,410,644.2,410.2z" />
	<path fill="#4E352C" d="M640.2,476.1c-0.3,1.5-0.3,3.2-2,4.3C637.9,478.2,638.8,477,640.2,476.1z" />
	<path fill="#7D5A4D" d="M632.1,407.3c-1.1-0.9-1.1-0.9-0.6-2.5C632.9,405.4,632.4,406.3,632.1,407.3z" />
	<path fill="#97695A" d="M632.8,400.4c-1.9-0.2-1.2-1.3,0-2.3C632.8,399.2,632.8,399.8,632.8,400.4z" />
	<path fill="#412F29" d="M635.5,480c-0.1,1.3-0.1,2.1-1.2,2.2C634.4,480.9,634.4,480.9,635.5,480z" />
	<path fill="#715247" d="M633,396.3c-0.2-0.2-0.3-0.3-0.5-0.5c0.2-0.1,0.3-0.2,0.5-0.2C633,395.8,633,396.1,633,396.3z" />
	<path fill="#EAA388" d="M624.3,424.3c0.2,1.9,0.3,3.7,0.1,6.1C621.8,428.8,623.9,426.5,624.3,424.3z" />
	<path fill="#130E0B" d="M625.3,430.8c-0.3-2.8-0.5-5.5,0.3-9.1C625.9,425.1,627,428.8,625.3,430.8z" />
	<path fill="#67473A" d="M621.7,444.3c-0.8-1-0.8-1.8-0.2-2.8C622.7,441.8,622.8,443.3,621.7,444.3z" />
	<path fill="#50332A" d="M634.9,313.7c-1.7,0.2-2.6,0.1-3.1-1C632.9,312.2,633.8,312.2,634.9,313.7z" />
	<path fill="#A3705B" d="M621.1,311c-0.4-0.3-0.8-0.7-1.3-1.1C620.9,309.4,621.2,310.1,621.1,311z" />
	<path fill="#966754" d="M627.3,311c0.4,0.3,0.8,0.5,1.3,0.9C627.8,312.2,627.8,312.2,627.3,311z" />
	<path fill="#A4705B" d="M617.8,308.8c-0.2-0.4-0.4-0.7-0.6-1.1C617.9,307.3,618.5,308.1,617.8,308.8z" />
	<path fill="#754F41" d="M620.9,449.5c0.1,0.4,0.1,0.9,0.2,1.3c-0.2,0-0.3,0-0.5,0.1c-0.1-0.4-0.1-0.9-0.2-1.3   C620.5,449.5,620.7,449.5,620.9,449.5z" />
	<path fill="#392824" d="M552.9,185.6c1.4,0.8,1.4,1.8,1,3.2C552.9,187.8,552.3,187,552.9,185.6z" />
	<path fill="#463731" d="M600.2,223.3c-0.7-1-0.3-1.7,0.6-2.2C601.3,222.2,601.3,222.2,600.2,223.3z" />
	<path fill="#3D2D28" d="M625,127.1c0.6,0.5,1.2,0.9,1.9,1.5C625.3,128.9,625.3,128.9,625,127.1z" />
	<path fill="#83685D" d="M555.2,194.4c-0.6-1.1-0.9-1.5-1.2-2C555.3,192.1,555.3,192.1,555.2,194.4z" />
	<path fill="#5E413A" d="M629.7,127.8c-0.9,0.9-1.8,0.4-1-0.6C629,127.3,629.3,127.5,629.7,127.8z" />
	<path fill="#7A5950" d="M620.4,151.4c-0.3-0.8-0.6-1.2,0.4-1.5c0.1,0.4,0.2,0.8,0.3,1.2C620.9,151.2,620.6,151.3,620.4,151.4z" />
	<path fill="#483933" d="M587.2,204.5c0.4,0.1,0.8,0.2,1.5,0.3c-0.7,0.5-1.1,0.9-1.5,1.2C586.2,205.5,587.1,205,587.2,204.5z" />
	<path fill="#65453D" d="M600.7,218.5c0.4-0.4,0.7-0.7,1-1C602.2,218.5,601.9,218.7,600.7,218.5z" />
	<path fill="#32221B" d="M683.8,476c-0.3-1.7-0.5-3.4-0.8-5c0.2-0.1,0.3-0.3,0.7-0.6c1,2.5,1.1,5,2.4,8.1   C684.3,477.6,684.4,477.4,683.8,476z" />
	<path fill="#221612" d="M679.3,418.6c-0.7-1.8-0.5-3.6-0.4-6.1C680.7,414.5,680.2,416.3,679.3,418.6z" />
	<path fill="#4E3229" d="M690.8,313.4c0.5-1.4,1.6-1,2.6-0.9C692.5,313.8,692.5,313.8,690.8,313.4z" />
	<path fill="#614236" d="M689.4,479.5c-1.2-0.8-1.2-0.8-1.4-2.7C688.8,477.5,688.8,477.5,689.4,479.5z" />
	<path fill="#966754" d="M697.2,311c0.4,0.1,0.8,0.2,1.2,0.3c-0.4,0.7-0.7,1.3-1.6,0.9C697,311.8,697.1,311.4,697.2,311z" />
	<path fill="#3D2D25" d="M680,409.4c-0.5-0.3-0.4-0.5-0.2-1C680.4,408.7,680.3,409,680,409.4z" />
	<path fill="#654B3E" d="M680.9,404c-0.1,0.1-0.2,0.3-0.4,0.4c-0.1-0.3-0.4-0.6,0-0.9C680.7,403.7,680.8,403.9,680.9,404z" />
	<path fill="#2B251F" d="M647,538.6c0.3,0.2,0.5,0.4,0.8,0.7c-12.7,8.7-23.3,30.3-37.4,33.3c0.1-0.2,0.2-0.4,0.2-0.6   C625.6,564.8,633.4,547.8,647,538.6z" />
	<path fill="#49443B" d="M635.2,521.8c4.2,2,3.6,8.3,8.7,10.1C639.2,533,637.2,525,635.2,521.8z" />
	<path fill="#615B4F" d="M648.6,534.5c0.2,0.6,0.4,1.1,0.7,1.9c-1.8-0.1-2.7-1.1-4.1-1.9c0-0.3,0-0.6,0-1.1   C646.3,533.7,647.5,534.1,648.6,534.5z" />
	<path fill="#E1D8B8" d="M641.5,531.9c0.2,0.1,0.5,0.3,0.7,0.4C642,532.2,641.8,532,641.5,531.9z" />
	<path fill="#352B23" d="M708.4,571.3c-6.8-5.2-13.2-11.6-18.3-18.4c0.3-0.3,0.5-0.5,0.8-0.8c5.6,6.5,11.3,13.4,18.2,18.4   C708.9,570.8,708.7,571,708.4,571.3z" />
	<path fill="#4E3B31" d="M691,552.1c-0.3,0.3-0.5,0.5-0.8,0.8c-2.1-2.1-4.2-4.3-6.3-6.4c0-0.3,0.1-0.7,0.1-1c2.3,2,4.6,4,6.9,6   C690.9,551.6,690.9,551.9,691,552.1z" />
	<path fill="#82836F" d="M682.8,530.2c0.3,0,0.6,0,0.9,0c-0.7,0.7-1.4,1.4-2.1,2c-0.3,0-0.6,0-1.2,0   C680.8,530.9,682,530.8,682.8,530.2z" />
	<path fill="#534039" d="M731,268.7c0.3-2,0.3-2,2.2-1.8C732.3,267.6,731.7,268.2,731,268.7z" />
	<path fill="#523F38" d="M739.6,258c-1.1-1.1-1-1.5,0.7-2.7C740.5,256.4,740.1,257.2,739.6,258z" />
	<path fill="#654C43" d="M580.1,222.2c0.9,0,1.6,0.3,2,1.2C581.8,225.2,579.7,223.3,580.1,222.2L580.1,222.2z" />
	<path fill="#654C43" d="M580.1,222.2c-0.4-0.1-0.8-0.1-1.3-0.2C579.6,221.2,579.9,221.7,580.1,222.2L580.1,222.2z" />
	<path fill="#250E0D" d="M550.4,204.9c-0.2,0.2-0.3,0.2-0.5,0C550.1,204.7,550.2,204.7,550.4,204.9z" />
	<path fill="#4D4036" d="M684,545.4c0,0.3-0.1,0.7-0.1,1c-3.9-1.4-5.3-6.1-9.2-7.8c0-0.3,0-0.5,0.1-0.8   C678.7,539,680.9,542.8,684,545.4z" />
	<path fill="#675849" d="M674.9,535.7c1.2-1.3,1.2-1.3,3-1.7C676.7,535.2,676.7,535.2,674.9,535.7z" />
	<path fill="#6E6555" d="M708.4,571.3c0.3-0.3,0.5-0.5,0.8-0.8c1.1,0.5,2.2,1,3.7,1.7c-0.8,0.2-1.2,0.3-1.6,0.4   C710.4,572.1,709.4,571.7,708.4,571.3z" />
	<path fill="#977164" d="M706.3,267.7c-3,1.2-6.3,2.7-9.1,0.2c3.7,0.6,6.6-0.8,9.9-1.4C706.9,267,706.6,267.4,706.3,267.7z" />
	<path fill="#977264" d="M750.9,207.4c-0.2-5.4-0.2-5.5-4.2-9.4c-10.8-10.1-21.2-20.7-31.5-31.4c0.3-2.2,2.1-4,1.2-6.7   c-0.7,0.4-1.1,0.7-1.5,1c-0.3-1.7,1.5-1.8,2-3.1c5.3,2.4,6.4,9.1,11,12.4c6.8,5.9,16.9,5.7,23.4,11.5c-3.3,2.9-7.4,1.4-11.7,1.7   c6.4,5.4,11.8,11.3,19,15.4c-1.5,0.5,0.1,2.3,0.7,0.8c3.8,1,9,2.3,11.1,5.7c-2.7,1.8-8.5-0.9-12.1-2   C756.1,205.4,751.9,203.8,750.9,207.4z M760,200.7c0.8,2.8,2.8,3.6,4.9,2.3C763.4,202.3,762,201.6,760,200.7z M732.1,175.2   c0.9,2.1,1.8,2.7,4.7,3C735.4,176.6,733.9,175.8,732.1,175.2z M747.7,181.7c-0.1-0.7-1.6-1.2-1.6-0.3   C746.7,181.6,747.1,182.2,747.7,181.7z M743.9,180.4c-0.4-0.2-0.7-0.3-1-0.4C742.3,181.1,743.2,181.4,743.9,180.4z M740,179.4   c-0.3-0.1-0.6-0.3-0.8,0.1C739.5,179.7,739.7,179.9,740,179.4z" />
	<path fill="#181110" d="M740.9,228.4c0.3,0.7-0.3,1.7,0.7,2.2c-2.7,9-9.5,16.3-13.8,24.6c-3,3.6-9.3,3.3-13.7,4.3   c-0.8-1.6-3,0.3-3.4-1.5c4.5,0,14.7-1.1,16.9-5.4C731.6,244.2,738.2,237.2,740.9,228.4z" />
	<path fill="#3C2D29" d="M716.8,133.5c-1.9-0.7-2.4-1.8-2.7-3.4C716.3,131.2,716.2,131.2,716.8,133.5z" />
	<path fill="#544039" d="M727.8,152.5c1.8,0.5,1.8,0.5,1.3,1.8C728.1,154.3,727.6,153.8,727.8,152.5z" />
	<path fill="#624941" d="M718.4,132.7c0.5,0.5,1,0.9,1.6,1.5C718.5,134.7,718.5,134.7,718.4,132.7z" />
	<path fill="#624C45" d="M735.4,261.8c0.5-0.8,0.9-1.1,1.8-1.4C737.5,261.7,736.8,262,735.4,261.8z" />
	<path fill="#402E29" d="M736.5,155.1c-0.7-0.6-0.3-1.1-0.2-1.8C737.6,153.2,738,155,736.5,155.1z" />
	<path fill="#3D2C27" d="M715.2,157.9c-0.5-1.3-0.3-2.1,0.8-2.5C716.7,156.4,716.2,157.1,715.2,157.9z" />
	<path fill="#3E2D28" d="M732.6,153.2c1.2-0.1,1.3,0.4,1.3,1.4C732.8,154.8,732.7,154.2,732.6,153.2z" />
	<path fill="#977164" d="M741,255.3C741.2,252.9,743.4,255.1,741,255.3L741,255.3z" />
	<path fill="#604B41" d="M759.4,199.6c-0.6,1.5-2.3-0.3-0.7-0.8C758.9,199.1,759.1,199.3,759.4,199.6z" />
	<path fill="#543731" d="M715.7,153.3c0-0.4,0-0.8,0-1.2c0.1,0,0.3,0,0.4,0c0.1,0.4,0.2,0.8,0.2,1.2   C716.1,153.3,715.9,153.3,715.7,153.3z" />
	<path fill="#4E372E" d="M644.3,394.2c-0.1,0.4-0.1,0.8-0.2,1.4C643.3,394.7,643.6,394.4,644.3,394.2L644.3,394.2z" />
	<path fill="#30221C" d="M643.7,400.3c0.1-1.3,0.5-1.2,0.5,0C644,400.4,643.8,400.4,643.7,400.3z" />
	<path fill="#281C18" d="M760,200.7c1.9,0.9,3.4,1.5,4.9,2.3C762.8,204.3,760.9,203.6,760,200.7z" />
	<path fill="#2C1E1A" d="M732.1,175.2c1.8,0.6,3.3,1.4,4.7,3C734,177.8,733.1,177.3,732.1,175.2z" />
	<path fill="#6C5147" d="M747.7,181.7c-0.7,0.5-1-0.1-1.6-0.3C746.1,180.5,747.6,181,747.7,181.7z" />
	<path fill="#4B3730" d="M743.9,180.4c-0.6,1.1-1.6,0.7-1-0.4C743.2,180.1,743.4,180.2,743.9,180.4z" />
	<path fill="#5F3E37" d="M740,179.4c-0.2,0.5-0.5,0.3-0.8,0.1C739.4,179.2,739.6,179.4,740,179.4z" />
</g>
<g id="a_00000049190420686451251580000005596962971850430388_">
	<path d="M310.3,87.8c0.6,2.5-0.9,4.4-0.1,7.2c-1-0.3-1.6-0.5-2.5-0.8c-0.3,0.4-0.8,0.9-1,1.2c0.2,2.4,0.2,3.8-1,5.9   c-0.4-0.2-0.8-0.3-1.4-0.6c-0.4,1.1-0.7,2.1-1.1,3.2c-0.7-0.1-1.2-0.2-1.9-0.3c-0.8,1.9-3,3.1-2.5,6.4c-0.9-1.1-1.3-1.5-1.6-2   c-2.2,1.2-2.2,1.2-3.6,4.1c-1-0.1-1.9-0.2-3-0.3c-1,3.1-2.2,4.8-5.7,4.5c-3.1,8.7-2.8,21.6,8,24.3c0,0.3,0,0.6-0.1,0.8   c-12.2-0.4-10.8-13.5-11.2-21.8c-0.3,0-0.6,0-0.8,0c-0.8,1.2-1.4,2.2-2.1,3.3c-0.5-0.2-0.9-0.4-1.4-0.6c0.1-0.8,1.2-1.5,0.3-2.5   c-1.4,0.3-1,1.5-1.2,2.4c-0.6,0.5-1.2,1.1-2,1.8c-0.9-1.7-2.1-2.7-3.7-3c-1.1,0.8,0.9,2.3-0.9,2.7c-2.1-0.9-4.3-1.3-5.6-3.4   c-0.4,0.5-0.7,0.9-1.1,1.4c-1.3-1.3-3.4-1.1-4.2-2.9c-1-1.6-3.2,0.2-4.6,0.4c-0.8,1,0.3,2.4-1,3.2c-0.6-2.3-0.1-4.9-2.3-6.6   c-0.5,0.2-1,0.4-1.7,0.7c-0.4-0.7-0.8-1.5-1.3-2.5c-1-0.2-1.9-0.7-1.8-2.3c-1.5,0-2.8,0-4.4,0c0.4-1.1,0.7-2,0.9-2.9   c-1.1-1-1.8,0.7-3-0.2c-0.1-0.4-0.4-1.1-0.7-2.2c-0.7-0.3-1.7-0.8-2.9-1.3c0.8-0.6,1.4-1,2.2-1.6c-1.6-1-3.1-1.2-4.9-0.8   c-1.7-1.9,0.6-3,0.8-4.4c-1.5-1.2-2.2,0.3-3.1,0.7c-1.7-0.6-0.3-2.1,0.1-3.3c-0.7,0-1.1,0-1.8,0c-0.7-3.7-2-6.6-1.5-10.6   c-1.8-0.8-3.1-2-3.8-3.9c0.6-0.8,3.4-4.8,0.3-4c-2.2-1.4,0.7-3.5-0.3-5.4c-0.5-1.4,1.1-2.2,1.9-3.2c-0.5-0.4-0.9-0.7-1.4-1.1   c-0.4,0.1-0.9,0.2-1.7,0.4c-0.3-2.8,2-4.1,3.5-6.4c-0.8,0.1-1.3,0.1-1.9,0.2c-1.6-2.1,1.8-3.3,3-4.7c-0.9-1.3-2,0.2-3.1-0.4   c-0.1-1,0.6-1.8,1-2.8c0.9-0.7,2.6-0.4,3.1-2.1c-0.1-0.4-0.2-1-0.4-1.7c0.6-0.3,1.2-0.7,1.8-1c0.9,1.3,2,0.9,3.2,0.7   c-0.3-2.2-2.1,0.4-2.6-1.4c1.4-1.4,1.4-1.4,5-2.3c-0.5-0.9-0.5-0.9-2.1-1.4c1.3-2.1,4.6-1.2,6.3-3.3c-0.6-0.4-1-0.7-1.6-1   c3.3-2.4,4.8-0.7,8,0.3c-0.9-1.2-1.6-2.1-2.9-2c-0.3-0.2-0.5-0.4-1.4-0.9c4.1-1.1,5.8,0.4,9.5-1.4c-1.8,0.1-2.9,0.2-3.9,0.3   c-0.6-0.6-1.3-1.2-2-1.9c2.5-2.1,4.8-2,7.7-1.3c1.8-1.5,3.8,1.5,5.1-0.4c0.7,0.4,1.5,0.7,2.4,1.2c0.1-0.6,0.2-1.1,0.3-1.8   c-1.1,0-2-0.1-2.9-0.1c-1.2-1.5,4.6-1.2,5.6-1.7c0.7,0.6,1.3,1.1,1.8,1.5c1.5-0.2,2.9-0.4,4.9-0.7c1-0.7,4.5-3.1,5.3-0.4   c-0.7,0.1-1.4,0.1-2.1,0.2c-0.1,0.4-0.3,0.7-0.4,1c2.8,0.9,5.7-0.9,8.5-1.6c1.3,1.8-1.7,1.6-1.1,3.2c4.9-1,9.7,2,14.3,3.5   c-0.6,1.3-1.8,0.3-2.8,0.8c-0.1,0.3-0.2,0.7-0.3,1.4c3,0.6,4.7-2,7.5-1.1c-0.5,0.8-0.9,1.3-1.3,1.9c3.2,0.9,4.1,1.2,5.8,4.5   c-1.9-0.2-3.1-1.2-4.7,0.8c2.2,0.3,3.9,0.6,5.6,0.8c0.4,0.4,0.8,0.8,1.5,1.3c-1.2,0.6-2.1,1-3.4,1.7c2.2,1.7,4.6,1.1,5.8,3.8   c0.3,0.5,1,0.8,1.7,1.4c-0.6,0.2-0.9,0.3-1.3,0.4c-0.4-0.2-0.8-0.4-1.2-0.6c-0.2,1.2,0.4,1.3,1.2,1.2c1.6,1.2,4.8,4,2.1,5.7   c-0.2-0.9-0.8-1.4-1.8-1.4c-0.1,0.3-0.2,0.6-0.4,1c0.8,0.3,1.5,0.6,2.3,0.9c1,1.8,2.2,2.1,0.9,4.6c0.6,0.9,1.1,1.7,1.6,2.4   c-0.8,2.9-1.2,4.8,0.1,9.8c-0.7,0.1-1.3,0.2-2,0.3c-0.2-1.1-0.6-1.9-2.3-2.1c0.8,1.2,0.9,2.3,2.3,2.1c0.2,0.6,0.4,1.3,0.7,2   c-0.4,0.6-0.8,1.1-1.2,1.8c0.9,1.7,1.1,3.5,0,5.2c-0.4-0.5-0.6-1.1-1.8-1C309.9,87.2,310.1,87.5,310.3,87.8z M289.7,45.5   c0.4-0.8,0.6-1.3,0.9-1.8c-1.8-0.2-1.8-0.2-2.4,1.5C288.6,45.3,289,45.4,289.7,45.5z M304.1,80.9c0.4,0.2,0.7,0.3,1,0.4   C305.7,80.3,304.8,79.9,304.1,80.9z M227.9,82.2c0.5-0.5,0.9-0.8,0.4-1.3C227.4,81.1,227.4,81.3,227.9,82.2z" />
	<path fill="#010101" d="M235.7,542.3c-6-38.8-10.7-77.4-5.4-116.4c-0.7-15.8-10.1-29.5-11.6-45.1c-3.8-17.7-6.5-35.8-7-54   c-2.8-53.1,41.8-63.8,15.8-120.2c-0.9,5.6-1.9,10-3.9,15c-0.2-0.5-0.4-1-0.7-1.5c2.6-9.9,3-20.7,5-30.2c0.2,3-0.3,5.9,0.2,8.9   c0.6,0.1,1.1,0.2,1.5,0.3c-1.1,1.2-1,2.4-0.5,3.9c3.5,11.2,6,22.6,9.1,33.9c3.2,24.3-19.2,42.4-22.3,65.7   c34.6,5.4,70,8.1,104.5,0.2c-5.9-23.3-1.5-10.2,14-11.9c-4,4.2-9.6,0.4-14.5-0.4c1.1,3.7,0.9,7.2,2.8,10.2c2-1.4,4.8-2.8,6.9-1   c-3,0.2-5.2,1.6-7,4.4c3.8,26.8-1,53.7-6,79.9c-3.1,17.2-13.3,33.4-11.3,51.4c6.9,34.5,0.3,71-5.9,104.8c-1,13.6,4.6,3.2-3.6,13.6   c-6.2,10-14-0.3-21.2-3c0.9-1.2,2.5,0,3.7-1.1c3.7-28.9-9.4-56.9-1.6-85.6c2.5,5.5-0.4,13-0.5,19.1c-1.2,21,7.6,41.4,5,62.6   c3.8,3.9,12.9,0.4,16-1c6.3-39.8,10.7-80.1,6.4-120c8.9-39,22.7-78.9,17.2-119.5c-34.9,5.6-70.4,6.7-105.1-0.4   c-5.9,39.9,7.1,80.2,16.8,118.4c-3.7,40.6-0.4,81.3,6.6,121.7c3.8,2.3,8.2,1.6,12.4,2.6c6.4,0.1,2-8.2,3.1-12   c-0.1-19,7.7-37.1,4.9-56.1c0-4.8-2.3-11.1,0-15.3c7.8,28.8-5.6,57.2-1.4,86.1c1.7,0.1,3.2-0.3,4.1,1.4c-0.3,0.3-0.5,0.5-0.8,0.8   c-13.2,1-12.2,15.9-25.4-4.4C237.3,547,236.6,543.9,235.7,542.3z M245,548.7c-2.1-1.1-4-0.6-6.5-1.8c0.7,5.2,4.3,7.6,8,10.2   c3.3-1.7,6.1-3.3,8.7-5.8c-0.3-0.9-0.5-1.7-0.9-2.6c-0.9,0.4-1.6,0.8-2.4,1.2c0,1.4,0,2.6,0,3.9C249.5,548.4,251.7,549.8,245,548.7   z M297,547.2c-4.1,0.9-7.8,1.8-11.7,2.6c-0.3,1.4-0.6,2.9-0.9,4.3c1.5,1.3,2.9,2.1,4.6,2.9C293,555,296.7,552.1,297,547.2z    M283.6,549.8c-1-0.4-1.6-1.1-2.6-0.6c-0.2,0.8-0.3,1.6-0.5,2.6c1.1,0.6,2,1.2,3.1,1.9C283.6,552.2,283.6,551.1,283.6,549.8z" />
	<path fill="#060504" d="M274.6,550.9c0.6,1,2,0.6,2.8,1.3c-0.9,0.1-1.8,0.2-2.8,0.3c0.7,8.6-4.6,15.6-4.8,23.8   c12.5,6.8,25.1,0.1,37.8-0.7c9.9,1.2,22.2-2.8,24.7-13.4c3.7,7.5-6.8,11.5-11.9,14.5c-6.9,2.7-14.8-0.6-21.8,2.2   c-10,4.3-21.7,3.6-31.3-1.7c-11.4,9.3-26.1,1.5-38.6,0.6c-13,1.8-29.7-5.6-26.6-21.1c3.2-5.2,10.6-2.3,15.8-3.1   c6.4,0,9.7-6.4,14.9-9.1c0.3,0.2,0.6,0.5,0.8,0.7c-2.3,2.8-2.4,6.9-2.8,10.7c-0.8-0.4-1.5-0.7-2.1-1.1c-0.4,1-0.7,1.8-1,2.8   c-1.6-1.5-0.7-3.3-1.5-4.8c-2.2,1.2-0.4,4-2.5,5.1c-0.6-0.9-1.2-1.9-1.7-2.7c-2.1,0-1.3,3.1-3.5,2.6c-0.2-0.7-0.3-1.5-0.5-2.3   c-4.3,0.7-11.1-2.4-13.8,1.9c-2.5,6.3,1.8,12.4,7.1,14.7c5,3.8,11,4.1,17,3.6c8.2-0.2,40.2,11.5,37.2-4.9c0.3-0.3,0.5-0.5,0.8-0.8   c0.5,1.1,1.1,2.2,1.7,3.5c1.6-5.6,4.8-10,4.9-15.8C273.2,555.5,272.5,552.2,274.6,550.9z" />
	<path fill="#040303" d="M292.9,141.4c0-0.3,0-0.6,0.1-0.8c18.7,5.9,42.3,4.1,49.8,26.6c2.3,6.1,4.3,12.3,9.8,16.2   c12.4,10.2,19.7,25,27.5,38.8c3.8,12.9-15.4,34.2-22.2,45.4c-0.3-0.3-0.5-0.6-0.8-0.8c21.5-39.3,33.1-31.5,3.3-71.7   c-6.5-9.1-16.7-15.2-19.5-26.6C329.2,143.4,313.1,151,292.9,141.4z" />
	<path fill="#977264" d="M192.7,248.5c-0.1,0-0.4,0-0.5,0c-0.1-0.3-0.2-0.7-0.3-1.2c-0.8-0.3-1.6-0.7-2.4-1c-0.6,0.4-1,0.8-1.5,1.2   c-13.8-2.9-25.5-10.7-35.4-20.7c-1-5.3-1.4-11.8,0-17.2c0.4,5.5,1.1,11.1,2.9,16.2c-1.4,1.5,0.9,1.9,0.6,0.1   c7.8,5.4,14.9,12.1,24.1,14.8c6.5,2.9,14.9,2.7,20.1,7.8c0.8,0.9,1.8,1.5,3.1,1.3c-3.1,3.6-6.8-1.1-10-2   C193,248.2,192.9,248.4,192.7,248.5z M185.3,244.6c0.1,0.7,0.8,0.6,1.3,1c0.1-0.3,0.2-0.5,0.3-0.8C186.3,244.6,186,244,185.3,244.6   z" />
	<path fill="#0B0707" d="M253.4,122.3c1.3-0.7,0.2-2.2,1-3.2c1.4-0.1,3.6-2,4.6-0.4c-1-0.3-1.3,0.8-1.8,1c-0.8-0.1-1.5-0.2-2.4-0.2   c-0.2,5.7,0.7,11.4-2.1,16.8c8.7,5.8,19,5,28.6,2.4c0.6-0.2,1.4-0.6,1.7,0.4c-1.1,0.8-2.7,0.4-3.5,1.4c-9.6,3.5-19.4,3.1-27.8-3   c-2.1,2.6-4.5,4.8-7.6,5.8c-0.2,0.3-0.4,0.5-0.6,0.8l0,0c-22.3,7.4-32.8,1.7-34,31C202.1,129.9,255.3,160.9,253.4,122.3z" />
	<path fill="#0F0F0F" d="M173.8,510c-0.3-44.9-0.2-89.8,0-134.6c3.5,39.5,0.7,80.5,1.3,120.5C172.9,499.8,176,506.1,173.8,510z" />
	<path fill="#100C0B" d="M165.9,212.6c0.3,3.5,0.6,7,0.9,10.6c10.4,3.6,17.6,4.7,27.8-0.7c5-11.3,8.6-23.4,12.2-35.2   c0.4,0,0.9,0,1.3,0c-0.2,7.6-4.7,14.6-6.6,22c-2.1,5.2-3,12.2-7.1,15.9c-1.6-0.5-1.6-0.5-3.3,0.8c-8.6,3-22,2.9-28.8-3.2   c1.1-0.1,1.9-0.2,2.7-0.3C165.6,219,164.5,215.5,165.9,212.6z" />
	<path fill="#242525" d="M175.2,225.2c-0.5-0.2-1-0.5-1.5-0.7c0.1-34.5-0.2-69.1,0.1-103.6C176.5,155.1,174.7,190.5,175.2,225.2z" />
	<path fill="#292A2A" d="M173.8,328.2c-0.3-26.3-0.3-52.7,0-79c1.5-0.8-0.2-2.8,1.4-3.5c-0.1,31.7,0.3,63.4-0.1,95.1   C173,337.3,175.9,331.6,173.8,328.2z" />
	<path fill="#0D0B0A" d="M300,548.1c-1.2-1-1.2-7.4,0-8.4c0,0.8,0,1.6,0,2.5c4.6,2.8,8,6.6,12.3,9.6c6.2,4.8,15.9-1.8,20.9,4.6   c-0.2,0.6,0,1.4-0.9,1.7c-0.8-0.9-1.7-1.9-2.3-2.6c-4.3,0-8.3,0-12,0c-0.7,0.9,0.2,2.2-1.5,2.5c-0.6-1-1.3-2.3-2.3-2.9   c-1.3,0.7-1,2.4-2.6,2.7c-0.9-1.6-0.1-5.1-2.3-5.2c-0.2,1.6,0.5,3.7-1.2,4.7c-1.8-2.9-0.1-5.8-2.2-8.6c-0.1,2.2-0.2,4-0.2,5.7   c-0.3,0-0.7,0-1.2,0c-0.1-4.2,0.2-8.7-4.5-10.7C299.8,545.3,299.6,546.7,300,548.1z" />
	<path fill="#141111" d="M174.5,546.7c-12.2,15.5-26.1,29.6-39.1,44.3c-0.2-0.5-0.3-0.8-0.5-1.2c12.8-15,25.9-29.7,38.9-44.5   C174.5,545.5,174.4,546.1,174.5,546.7z" />
	<path fill="#130F0F" d="M192.7,248.5c0.2-0.2,0.3-0.3,0.7-0.7c15.7,10.9,25.5-16.2,29.7-27.7c0.2,0.5,0.4,1,0.7,1.5   C220.4,234.4,208.7,261.4,192.7,248.5z" />
	<path fill="#171212" d="M357,266.7c0.3,0.3,0.5,0.6,0.8,0.8c-9.4,10.5-12.2,30.5-28.2,32.3c-0.5-1-1.5-0.5-2.2-0.7   C343.9,297.1,347,277.6,357,266.7z" />
	<path fill="#323232" d="M175.1,140.6c-2.2-5.8,1-14-1.2-19.7c-0.2-12,0.1-24,0-36c0.4,0,0.8,0,1.2,0   C175.3,103.5,175.3,122.1,175.1,140.6z" />
	<path fill="#1E1F1F" d="M173.8,328.2c2.1,3.5-0.8,9.2,1.3,12.7c0.2,14.3,0.3,28.7,0,43C172.2,365.9,174.1,346.6,173.8,328.2z" />
	<path fill="#1A1615" d="M152.5,209.7c-1.3,5.3-0.9,11.8,0,17.2c3.1,3.5,6.2,6.2,9.8,8.4c-0.2,0.2-0.5,0.4-0.7,0.6   c-4.2-2.1-7.9-4.8-11.3-8.8c-0.9-8.2-0.1-17,0.9-25.8C152.6,203.8,151.6,206.9,152.5,209.7L152.5,209.7z" />
	<path fill="#171717" d="M174.5,546.7c0-0.6,0-1.2-0.7-1.4c0-16.4-0.8-33.3,1.3-49.3C174.8,512.7,176.5,530.5,174.5,546.7z" />
	<path fill="#322A27" d="M152,206.3c0.3-6-3.4-14.1,1-19.2c-0.5-1.9,0-3.7,0.5-5.5c0.4,0,0.8-0.2,1.2-0.1   c-2.1,8.7,3.7,17.2,2.8,26.1l0,0c-0.4-0.1-0.8-0.2-1.5-0.4c0.5-6.2-1.3-11.9-2.9-17.8C150.6,190.7,154.2,202.2,152,206.3z" />
	<path fill="#2D2826" d="M165.9,212.6c-1.2,2.1-0.5,4.8-0.7,7.2c-1.4-3.9-0.3-8.6-0.5-12.8c0.5-4-2.9-6.3-3.7-9.8   c-0.6-4.5-1.2-9-2-13.5c0.2,0.1,0.4,0.1,0.6,0.1c0,1.1,0.6,2.1,1.4,2.8C161.8,195.5,167.3,203.4,165.9,212.6z" />
	<path fill="#1D1615" d="M175.2,245.7c-1.6,0.7,0.1,2.7-1.4,3.5c-0.1-1.5-0.2-3-0.2-4.4c-2.4-1.6-4.6-3.2-6.9-4.8   c0.3-0.2,0.5-0.5,0.8-0.7c6.4,3.7,13.2,6.8,20.5,8.2c0.5-0.4,1-0.7,1.5-1.2c0.8,0.3,1.6,0.7,2.4,1c0.1,0.5,0.2,0.8,0.3,1.2   C186.8,249.9,180.6,246.5,175.2,245.7z" />
	<path fill="#2F2522" d="M154.7,181.5c-0.2,0-0.4,0-0.6,0c-0.1-0.3-0.2-0.5-0.3-0.8c1.3-1.6,1.7-3.6,4-3.9c0.2,1.3,0.7,2.2,0.4,3.3   c-0.4-0.6-0.8-1.2-1.2-1.9c-3.3,5.7,5.7,15.7,1.9,21.6C158.2,193.8,157,186.9,154.7,181.5z" />
	<path fill="#474747" d="M175.1,85c-0.4,0-0.8,0-1.2,0c-0.1-7.5-0.2-15,0-22.5c1.7,1.5-0.5,4.1,1.2,5.6   C175.1,73.7,175.1,79.3,175.1,85z" />
	<path fill="#272220" d="M208.2,187.2c-0.4,0-0.9,0-1.3,0c0.4-6.9,1.1-13.8,2-20.6c0.4,2.7-0.8,6.3,0.7,8.6   C209.6,179.2,208.2,183.1,208.2,187.2z" />
	<path fill="#575757" d="M175.1,68c-1.7-1.5,0.5-4.1-1.2-5.6c0-4,0-8,0-11.9c0.4,0.2,0.8,0.4,1.2,0.7   C175.1,56.8,175.1,62.4,175.1,68z" />
	<path fill="#373532" d="M332.3,558c0.9-0.2,0.8-1,0.9-1.7c1.3,2.4,0.5,6.1,0,8.8c-0.1-1.1,0-2.2-0.8-3   C332.3,560.8,332.3,559.4,332.3,558z" />
	<path fill="#38302D" d="M167.5,239.3c-0.3,0.2-0.5,0.5-0.8,0.7c-1.7-1.4-3.3-2.8-5-4.1c0.2-0.2,0.5-0.4,0.7-0.6   C164.4,236.2,166.2,237.4,167.5,239.3z" />
	<path fill="#433F3A" d="M233.6,545.1c-0.3-0.2-0.6-0.5-0.8-0.7c0.7-1.1,1.7-1.8,2.9-2.1c0.9,1.6,1.6,4.6-0.1,5.7   c-0.1-1.3,0.7-2.9-0.3-3.9C234.8,544.4,234.2,544.8,233.6,545.1z" />
	<path fill="#BFC6C6" d="M304.9,46.1c-1.7-0.2-3.4-0.5-5.6-0.8c1.6-2,2.8-1,4.7-0.8C304.3,45.1,304.6,45.6,304.9,46.1z" />
	<path fill="#D7E5E5" d="M295.8,38.6c-1.1,0.9-2.3,0.5-3.7,0.6c0.2-0.7,0.2-1.1,0.3-1.4c1-0.5,2.2,0.5,2.8-0.8   C295.9,37.3,295.7,38,295.8,38.6z" />
	<path fill="#D8DCDC" d="M277.5,31.5c-1.2,0.7-2.5,1.2-4,0.4c0.1-0.3,0.2-0.6,0.4-1c0.7-0.1,1.4-0.1,2.1-0.2   C276.5,31,277,31.2,277.5,31.5z" />
	<path fill="#5A6060" d="M258.3,32.1c0.9,0,1.8,0.1,2.9,0.1c-0.1,0.7-0.2,1.2-0.3,1.8c-1-0.5-1.7-0.8-2.4-1.2   C258.4,32.6,258.4,32.4,258.3,32.1z" />
	<path fill="#9A9393" d="M175.1,51.2c-0.4-0.2-0.8-0.4-1.2-0.7c-0.1-1-0.2-1.4,0.6-2.2C175.4,49.3,175.2,50.2,175.1,51.2z" />
	<path fill="#666B6B" d="M230.7,48.2c0.5,1.7,2.3-0.8,2.6,1.4c-1.2,0.3-2.3,0.6-3.2-0.7C230.3,48.7,230.5,48.4,230.7,48.2z" />
	<path fill="#444747" d="M243.5,38.5c1.3-0.1,2,0.8,2.9,2c-1.6,0.1-2.1-1.1-3-1.4C243.4,38.8,243.5,38.6,243.5,38.5z" />
	<path fill="#96A9A9" d="M311.3,61.6c-0.7-0.3-1.5-0.6-2.3-0.9c0.2-0.5,0.3-0.8,0.4-1C310.6,59.6,311.4,60.6,311.3,61.6z" />
	<path fill="#91ADAD" d="M247.7,36.4c1.1-0.1,2.2-0.2,3.9-0.3c-1.7,1.3-2.8,0.7-3.9,0.7C247.7,36.7,247.7,36.6,247.7,36.4z" />
	<path fill="#9C7C6F" d="M159.5,183.7c-0.2,0-0.4,0-0.6-0.1l0,0c0-1.2-0.1-2.3-0.1-3.5c0.1-0.1,0.2-0.2,0.3-0.2   C160,181.1,159.6,182.4,159.5,183.7z" />
	<path fill="#91ABAB" d="M310.3,87.8c-0.2-0.3-0.4-0.6-0.7-1.1c1.1-0.2,1.4,0.4,1.8,1C311,87.7,310.7,87.7,310.3,87.8z" />
	<path fill="#545454" d="M309.2,55.3c-0.8,0.1-1.4,0.1-1.2-1.2c0.5,0.2,0.8,0.4,1.2,0.6C309.2,54.9,309.2,55.1,309.2,55.3z" />
	<path fill="#9C7C6F" d="M158.3,180.1c0.1-0.3,0.1-0.6,0.2-0.9c0.2,0.2,0.5,0.5,0.7,0.7c-0.1,0.1-0.2,0.2-0.3,0.2   C158.7,180.1,158.5,180,158.3,180.1L158.3,180.1z" />
	<path fill="#9C7C6F" d="M160.9,186.6c-0.2-0.2-0.4-0.5-0.6-0.7C160.5,186.1,160.7,186.3,160.9,186.6z" />
	<path fill="#9C7C6F" d="M160.3,185.8c-0.2-0.3-0.4-0.6-0.5-0.8C159.9,185.3,160.1,185.6,160.3,185.8z" />
	<path fill="#B28C7D" d="M153.9,180.8c0.1,0.3,0.2,0.5,0.3,0.8c-0.2,0.1-0.4,0.1-0.6,0.1C153.6,181.3,153.7,181.1,153.9,180.8z" />
	<path fill="#433F3A" d="M232.3,544.7c-0.2,0.2-0.5,0.4-0.7,0.5C231.8,545.1,232.1,544.9,232.3,544.7z" />
	<path fill="#F5DDCE" d="M282.3,139.5c0.9-0.3,1.9-0.7,2.8-1c3.9,2.6,8.4,3,12.4,5.1c-1.6,19.8-0.7,44.9,15.8,58.4   c-11.8,42-19.3,38.4,1,79.1c-4,3.5-9.4,4.5-13.5,7.6c0,0.6,0.1,1.2,0.1,1.9c6.5,4.8,10.5-1.9,16.6-1.1c1,4.4,1.9,8.9,2.9,13.5   c-26.9,5.6-54.6,6.9-81.8,2.6c-4.3-14.6,7.3-32.1,12.7-45.9c2.4,1.5,4.5,0.5,7.2-0.3c-2.6-0.4-4.9,0.1-6.8-1.3   c0.3-0.8,0.5-1.5,0.8-2.3c2.6-0.2,5.1,0.1,7.8-0.2c-2.3-1.9-4.9-0.9-7.2-1.5c5.3-20.2-4.7-30.8-9.4-49.1c3.3,1.4,5.4,2.7,9,1.9   c-20.9-30.9-8-22.2-7.6-55c2-2,2.8-4.4,5.4-5.6c2.8-1,3.9-4.5,6.5-5.5C264.9,144.8,274.7,142.7,282.3,139.5z M267,242.9   c1.8-0.3,2.1-4.6,2.5-6.9C267.6,236.8,266.5,239.8,267,242.9z M270,226.2c-0.8,2.5-2.1,4.8-2.3,7.7   C269.5,232.4,270.5,229.1,270,226.2z M271.1,221c-0.2-0.1-0.4-0.2-0.6-0.3c-1,1.9-3.2,3.5-2.8,5.8C269,224.6,270.6,223.1,271.1,221   z M266.8,247.9c0.9-1.2,1.8-2.5,1.2-4.8C266.7,244.7,266.5,246.2,266.8,247.9z M268.1,249.4c-1.1,1.1-1.8,2.3-1.1,4.1   C268.3,252.3,268.4,250.9,268.1,249.4z M267,259.1c1.5-1,1.5-2.1,1-3.8C266.8,256.5,266.5,257.6,267,259.1z M266.9,264   c1.1-0.9,1.1-0.9,0.1-2.2C266.9,262.6,266.9,263.2,266.9,264z M265.5,273.9c1.2-1.2,1.2-1.2-0.1-1.8   C265.4,272.7,265.5,273.2,265.5,273.9z M266.7,265.9c-0.8,1.1-0.9,1.6,0,2.1C266.7,267.3,266.7,266.9,266.7,265.9z M269.7,216.9   c-0.1-0.1-0.3-0.1-0.4-0.2c-0.3,0.4-0.7,0.8-1.3,1.6C269.5,218.1,269.5,218.1,269.7,216.9z M271,209c0.2-0.1,0.4-0.2,0.6-0.3   c-0.2-0.4-0.5-0.2-0.8-0.1C270.8,208.7,270.9,208.8,271,209z M269.4,212.8c-0.5,0.2-0.4,0.5-0.2,0.9   C269.7,213.4,269.6,213.2,269.4,212.8z" />
	<path fill="#B18C7D" d="M285.2,138.4c-0.7,0.3-1.4,0.5-2.1,0.8c-0.3-1-1.1-0.6-1.7-0.4c-7.9,1.8-17,3.8-24.4-0.3   c-0.5-2.9,0.8-5.7,0.8-8.4c1.1-1.4,1.9-2.2,3.2-3.5c1.4,2.1,2.8,1.4,4,0.2c1,0.5,1.8,0.8,2.4,1.1c2.6-0.8,4.3-1.7,6.3-3.3   c3.5,0.3,5.6-1.9,7.1-4.9c0.1,0,0.5,0,0.8,0C282.8,125.5,280.2,133.3,285.2,138.4z" />
	<path fill="#967264" d="M278.8,122.9c-1.4,1.5-3.2,1.5-5,1.6c-2,1.6-3.7,2.5-6.3,3.3c-0.6-0.3-1.4-0.6-2.4-1.1   c-1.2,1.2-2.6,1.9-4-0.2c-1.3,1.3-2.1,2.1-3.2,3.5c0,2.7-1.3,5.5-0.8,8.4c-1.3-0.7-2.7-1.3-4.2-2.1c2.8-5.4,1.9-11.1,2.1-16.8   c0.8,0.1,1.5,0.2,2.4,0.2c0.5-0.2,0.8-1.3,1.8-1c0.8,1.8,2.9,1.7,4.2,2.9c0.4-0.5,0.7-0.8,1.1-1.4c1.3,2,3.6,2.4,5.6,3.4   c1.8-0.4-0.2-1.8,0.9-2.7c1.6,0.3,2.8,1.3,3.7,3c0.8-0.7,1.4-1.2,2-1.8C277.4,122.2,278.1,122.6,278.8,122.9z" />
	<path fill="#1E1E1E" d="M289.7,45.5c-0.7-0.2-1.1-0.2-1.5-0.3c0.6-1.7,0.6-1.7,2.4-1.5C290.3,44.2,290.1,44.7,289.7,45.5z" />
	<path fill="#57453D" d="M277.4,122.3c-0.3,0-0.5-0.1-0.8-0.1c0.2-0.9-0.2-2.1,1.2-2.4C278.6,120.8,277.5,121.5,277.4,122.3z" />
	<path fill="#859595" d="M312,78.6c-1.4,0.2-1.6-0.9-2.3-2.1C311.3,76.8,311.8,77.6,312,78.6L312,78.6z" />
	<path fill="#262828" d="M304.1,80.9c0.6-1.1,1.5-0.7,1,0.4C304.8,81.2,304.6,81.1,304.1,80.9z" />
	<path fill="#3A3B3B" d="M227.9,82.2c-0.5-0.9-0.5-1.1,0.4-1.3C228.8,81.4,228.3,81.7,227.9,82.2z" />
	<path fill="#EAA388" d="M237.2,308.4c27.8,3.2,55.7,1.1,83.4-3.1c5.5,40.6-8.2,80.5-17.2,119.5c4.3,39.9-0.1,80.2-6.4,120   c-3.1,1.8-8.1,2.7-13.3,2.6c1.8-18.4-1.6-37.5-2-55.9c-0.2-19.9,5.3-39.8,5.9-59.6c-2.3,0.3-2.6,2.5-3.7,4   c-1.1-0.9-1.2-0.9-1.5,0.7c0.9,1.7,0.2,1.6-0.8,2.9c-1.9-3.7,1.3-8-0.2-11.9c-1.4-6.9,0.4-14.1-1-21c0.4-9.9,4.1-20.1,4-30.3   c-0.9,0.4-1.6,0.7-2.4,1.1c-9.2-41.8-1.2-27.8,26.3-45.4c0-0.8,0-1.4,0-2c-14.3,8.3-32.1,2.1-41.2-10.8c-1,2.5,1.7,4.7-0.2,6.7   c0.5,1.2,0.9,2.2,1.2,3.2c-1,0.2-1.9,0.5-2.7,1.2C249.4,329.4,238,327.7,237.2,308.4z M296.4,434.6c2-1.7-0.7-3.1-0.9-5   c-0.1-1.1-0.5-2.5-2.4-2.8c-2.4,4-2,8-0.6,11.9c1.3,1.1,2.6,0.6,3.9,0.7c0.7,0.9,1.3,3.9,2.8,2.3   C299,439.2,296.3,437.3,296.4,434.6z M300.1,493.1c0.2,2.9-1.8,5.3-1.4,8.6C300,499.7,303,493.6,300.1,493.1z M301.7,480.4   c0.5-0.9,0.7-1.6-0.5-2.2C300.6,479.2,300.4,479.9,301.7,480.4z M301.3,486.8c-1.4,1.4-1.4,1.4,0,2.5   C301.3,488.4,301.3,487.7,301.3,486.8z M296.2,507.9c1.1-0.4,1.2-1.1,0.4-2.5C296.2,506.5,295.2,506.9,296.2,507.9z M294,510.8   c-0.8,0.4-1.3,0.9-0.9,2.1C293.9,512.3,294.6,511.9,294,510.8z" />
	<path fill="#EAA388" d="M258.3,468.6c4.3,22.7-2.9,44.4-4,66.9c1.1,12,0.6,15.1-12,9.6c0.4-8.9-4-17.5-2.5-26.3   c2.3,2.6,2.3,6.1,4.9,8.6c0.8-12.8-6.9-24.1-7.7-36.7c-0.5-6.4-1.5-12.7-2-19c0.7-4.2-1.7-30.4,2.7-29.5c0.4-1.7,2.1-3.2,1.1-5   c-1.7,1.2-1.6,3-2.5,4.3c-1.3-3.2-0.3-7.1-0.6-10.6c0-0.4-0.2-1,0.5-1c0.8,0.8,1.6,1.6,2.3,2.4c-0.4,1.8,1.1,2.4,2.2,3.7   c4.8-8-7.6-27.3-5.8-39.2c-0.7-14.6-3.4-48.8,6.7-59.4c8.1,1.2,16.4,0,23.5-4.6c1.5,23.3-0.1,46.1-4.9,68.9   c-0.8,12.9,1.1,26.4-2.8,39c-1.9,0.8-3.1,2.4-1.3,4.2C255.7,453,256.5,461,258.3,468.6z M249.8,443.8c0.4,0.4,0.5,1.4,1.5,0.8   c-0.2-4,2.7-27.2-5.7-17.6C246.5,432.8,246.6,438.7,249.8,443.8z M252.7,517c2,0.1,3.2-3.4,1.1-3.2   C253.5,514.7,253.1,515.6,252.7,517z" />
	<path fill="#B28C7D" d="M154.7,181.5c2.4,5.4,3.5,12.2,4.3,18.3c2.5,1.7,0.5-2.1,2-2.7c5.9,9.6,2.8,15.3,4.1,25.2   c-0.8,0.1-1.6,0.2-2.7,0.3c6.6,6,20.4,6.2,28.8,3.2c0.3,0.3,0.6,0.6,0.9,0.8c1.2,3.6,0.1,7.7,2.1,11.2c0.7,0.8,0.4,2.9,1.8,2.6   c3.3-17.6,11-34.2,15.5-51.7c4.6-0.1,2.9-3.4,3.2-6.5c-0.2-10.5,0-21.4,4.1-31.2c7.5-3.5,16.4-2.8,23.8-6.8   c1.4,18.7-1.8,39.2-13.7,54.2c-0.9-8.2-0.4-15.1-2.6-23.3c0.6,22.2,0.8,69.5-25.9,73.4c-5.3-5.1-13.6-4.9-20.1-7.8   c-9.6-2.5-16.5-10.2-24.7-14.9c-1.8-5.2-2.5-10.8-2.9-16.2l0,0c1.8-4.2,0.3-9.7,0.7-14.3c-0.6-1.8-2.6-4.6-0.1-6   c1.6,5.9,3.3,11.6,2.9,17.8c0.6,0.2,1,0.3,1.5,0.4c0.4,0.9,0.8,1.8,1.4,3.1c0.8-1.5,0.2-2.3-0.4-3.1c-0.4,0-0.7,0-1,0   C158.4,198.7,152.6,190.3,154.7,181.5z M229.6,149.2c0.5,1.3,1.2,1.8,2.7,1.6C231.8,149.4,231,148.9,229.6,149.2z M160,213.6   c-0.8,0.5-0.2,2.1,0.7,1.5C160.7,214.4,160.8,213.8,160,213.6z M206.7,239.3c-0.2,0.4-0.3,0.7-0.4,1   C207.4,240.8,207.7,239.9,206.7,239.3z M206.5,243.1c-1.1,0.3-1.1,0.3-0.7,1.7C206.2,244.2,206.4,243.8,206.5,243.1z M235.1,149.8   c-0.6-0.5-0.9-0.9-1.4-0.4C234,150.4,234.2,150.4,235.1,149.8z M225.7,171.6c-0.2,0.4-0.2,0.7-0.3,1   C226.4,173.2,226.7,172.2,225.7,171.6z" />
	<path fill="#D69479" d="M238.7,432.5c-0.8-0.8-1.6-1.6-2.3-2.4c-0.7,0-0.5,0.6-0.5,1c0.2,3.8-0.6,7.7,0.7,11.3   c-3.1,15.5-1,32.6,0.6,48.4c0.8,12.6,8.5,23.9,7.7,36.7c-2.7-2.5-2.7-6-4.9-8.6c-1.5,8.8,2.8,17.4,2.5,26.3c0.9,0.5,1.8,1,2.7,1.5   c-2.2,0.2-4.2-0.4-6.2-1.6c-6.9-40.4-10.3-81.1-6.5-121.7c-9.7-38.3-22.7-78.6-16.8-118.4c7.2,1.7,14.6,1.8,21.7,3.5   c0.8,19.3,12.2,21,28.2,21.9c-6.3,6.5-16.2,5-24.4,5.6c4.2,2.3,8,1.2,12.4,1.5c-3.3,1.3-8.1,0.7-11.7,0.2   c-10,10.4-7.4,44.9-6.7,59.4c-1.8,12,10.5,31.2,5.8,39.2c-0.6-0.7-1.1-1.1-1.5-1.6C240.7,434.1,240,432,238.7,432.5z M234.1,485.8   c0.8-5.2,0.8-5.2-0.3-6.1C233.6,481.5,232.4,483.3,234.1,485.8z M235.6,493.8c0.4-1.4,0.5-2.6,0-4.1   C234.1,491.8,234.1,492.6,235.6,493.8z M236.3,496.3c-0.6,1.4-0.9,2.2-0.1,3C237.4,498.5,237.4,498.5,236.3,496.3z M236.7,334.4   c2.2,1.2,2.2,1.2,3.1,0.4C239,334.3,238.2,334.1,236.7,334.4z M236.8,504.2c1.3-1.2,1.3-1.2,0-1.9   C236.8,503,236.8,503.6,236.8,504.2z M238.2,509.5c-0.9,0.5-0.2,2.1,0.7,1.6C238.9,510.5,239,509.7,238.2,509.5z M223.9,330.3   c-0.5-0.4-0.9-0.9-1.3-0.3C222.8,330.8,223,330.9,223.9,330.3z M232.6,332.5c-0.5,1-0.1,1.2,1,1.1   C233.2,333.2,233,332.9,232.6,332.5z M226.3,332c-0.3-0.1-0.6-0.4-0.8,0C225.8,332.3,226,332.4,226.3,332z" />
	<path fill="#E6CCBB" d="M239.9,182c1.4,9.5,8.7,16.1,12.7,24.7c-3.6,0.8-5.7-0.5-9-1.9c4.6,18.3,14.6,29,9.4,49.1   c2.3,0.6,5-0.4,7.2,1.5c-2.7,0.3-5.2,0-7.8,0.2c-0.3,0.8-0.5,1.6-0.8,2.3c1.9,1.5,4.2,0.9,6.8,1.3c-2.7,0.8-4.8,1.7-7.2,0.3   c-5.4,13.8-17,31.3-12.7,45.9c-7.6-0.5-15.1-1.6-22.6-2.7c2.7-19.9,18.6-34.5,21.6-54.1c5.8-12-10-37.9-7.9-49.5   C235,194.7,236.9,188.2,239.9,182z" />
	<path fill="#D69479" d="M302.1,333.1c1.8-1.5,4-2.1,6.2-3c0,0.6,0,1.3,0,2c-27.5,17.7-35.5,3.4-26.3,45.4c0.8-0.4,1.5-0.7,2.4-1.1   c0.1,10.2-3.5,20.4-4,30.3c1.4,6.9-0.4,14,1,21c1.5,3.9-1.8,8.2,0.2,11.9c-0.4,1.3-1.2,2.5-0.4,4.2c0.9-1.3,2-3.2,0.5-4.2   c1-1.2,1.6-1.1,0.8-2.8c2.7,0.2,2.1-4.7,5.2-4.7c-0.6,19.8-6.1,39.7-5.9,59.6c0.4,18.4,3.9,37.5,2,55.9c-1.2,0.1-2-0.6-2.7-1.6   c2.7-21.2-6.2-41.5-5-62.6c0.9-12.4,3.8-24.4,3.5-36.9c-3.7-9.8-3.7-20.4-4.2-30.6c0.6-0.8,0.6-1.7,0-2.5   c0.1-27.7-12.4-54.4-7.8-82.5c6,6.2,21.1,8.9,26.7,4.8c-9.5,0.2-23.4,0.7-27.4-9.6c1.9-2-0.9-4.3,0.2-6.7c9.8,12,15.8,14,30.9,14.6   c-0.7,0.3-1.3,0.6-2.2,1c1.1,1.1,1.9,0.3,2.8,0c-0.1-0.3-0.1-0.7-0.2-1C299.6,333.6,300.8,333.3,302.1,333.1c0.2,0.6,0.5,1,1.3,0.2   C302.8,333.2,302.4,333.1,302.1,333.1z" />
	<path fill="#F7EFD0" d="M332.3,558c1.5,10.4-11.8,14-20,15c-4.3,2.4-7.7-2.7-11.6-1.3c-3.5,0.9-5.7,4.8-9.6,4.6   c-6.1-0.1-12.1-0.1-18-1.4c0-0.2,0-0.5,0.1-0.7c0.7-0.3,0.6-0.9,0.5-1.5c0.3-1.1,1.1-2.2,0.7-3.4c2.4-5.1,0.5-11.3,3-16.2h0.3   l0.3-0.1c13.3,8.3,12.1,6.8,22-3.9c0.4-0.3,0.6-0.8-0.2-1c-0.4-1.4-0.2-2.7-0.1-4.3c4.6,2,4.3,6.5,4.5,10.7c1,0,1.6,0,2.6,0   c0.3,0.9,0.7,1.9,1,2.8c1.3-0.6,1-1.8,1.2-2.8c0.4-0.2,0.9-0.5,1.3-0.7c0.3,1.3,0.7,2.6,1,4c1.6-0.3,1.4-2,2.6-2.7   c1,0.6,1.8,1.9,2.3,2.9c1.7-0.3,0.8-1.6,1.5-2.5c3.7,0,7.6,0,12,0C330.6,556.1,331.5,557.1,332.3,558z" />
	<path fill="#F7EFD0" d="M233.6,545.1c0.6-0.3,1.2-0.7,1.8-1.1c1,1.2,0.3,3.4,0,4.7c9.7,10.8,8.8,12.5,22.2,4.2   c0.2,0.1,0.5,0.1,0.7,0.1c1.8,1.8,0.2,4.4,1.5,6.4c1,2.9-1.8,8.3,1.6,9.6c-0.1-2.4-0.2-4.6-0.2-6.8c0.3-0.3,0.5-0.5,0.8-0.8   c0.4,4.8,5.3,9.5,3.7,14.1c-1.9-1.7-1.3-4.3-3.6-5.8c0.3,2.2,0.9,4.1,0.4,6.1c-11.4,3.2-22-1-32.8-4.2c-11.5,2.3-18.7-4-25.5-12.3   c-0.7-7.3,9.4-3.3,13.8-4.1c0.2,0.8,0.4,1.6,0.5,2.3c2.3,0.5,1.5-2.6,3.5-2.6c0.5,0.8,1.1,1.7,1.7,2.7c2.2-1.1,0.3-3.9,2.5-5.1   c0.8,1.5-0.1,3.3,1.5,4.8c0.4-1,0.6-1.8,1-2.8c0.7,0.3,1.3,0.7,2.1,1.1C231.2,552.1,231.4,548,233.6,545.1z" />
	<path fill="#977164" d="M357,266.7c-10,10.9-13.1,30.4-29.7,32.4c-1.8-0.4-3,0.9-4.6,1.7c-1.9-3-1.7-6.5-2.8-10.2   c5,0.7,10.5,4.6,14.5,0.4c-5.5,0.8-11-0.8-15.9-2.9c-5.5-2.1-9.9,5-15.2,2c3.1-0.7,6.3-0.9,9.3-2.4c6.7-4,14.2,5.2,20.9,0.1   c0.5-0.3,1-0.5,1.5-0.9c1.4-1.1,2.9,0.3,4.4-0.2c0.3-0.1,0.8,0.6,1.3,0.9c1.7-2.2,3.1-4.6,4.1-7.1c-0.2-0.4-0.3-0.7-0.4-1.1   c0.5-0.5,0.9-1,1.4-1.4c1.8,1.5,2.2,0.1,2.1-1.4l0,0c4.1-9.7,11.2-17.5,16.7-26.3c3.3-6.8,6.9-14,13-18.7   C373,244.1,362.9,254.7,357,266.7z M338.5,288.6c-1.3-0.5-3,0.2-2.1,1.6C337.1,289.6,337.8,289.1,338.5,288.6z" />
	<path fill="#151210" d="M275.4,415.8c-1.3,17.9,8.1,35,2.1,52.8c-0.3-1.4,0.6-3.6-0.9-4.4c2.6-11.1-0.1-21.5-2-32.4   c1-1.2,1-2.4,0-3.5c0.3-7.6-0.9-16.1,0.6-23.2C275.3,408.6,275.4,412.2,275.4,415.8z" />
	<path fill="#AB8678" d="M297,547.2c-0.3,4.9-4,7.9-8.1,9.8c-1.7-0.8-3-1.6-4.6-2.9c0.3-1.4,0.6-2.9,0.9-4.3   C289.2,548.9,292.9,548.1,297,547.2z" />
	<path fill="#161211" d="M260.6,434.8c-2.2,9.8-3.3,19.3-1.4,29.3c-1.5,0.9-0.6,3.1-0.9,4.5c-4.4-13.5-0.6-26.3,1.5-39.7   C261.2,430.3,260.2,433,260.6,434.8z" />
	<path fill="#AB8678" d="M252,553.7c-1.5,1.5-3.4,2.4-5.4,3.4c-0.8-0.6-1.6-1.2-2.4-1.8c0.2-2.2-0.5-4.7,0.9-6.6   C251.7,549.8,249.5,548.4,252,553.7L252,553.7z" />
	<path fill="#241816" d="M303.4,290.2c5.3,3.2,10.5-4.9,15.7-1.5c-0.6,0.1-1.3,0-1.5,0.8c-6.1-0.7-10.1,5.9-16.6,1.1   c0-0.7-0.1-1.4-0.1-1.9c3.5-2.7,8.2-3.5,11.8-6.3c0.3,0.3,0.5,0.5,0.8,0.8c-3.1,3.5-7.7,4.4-12,6.3   C302.6,289.8,303,290,303.4,290.2z" />
	<path fill="#2D2C28" d="M265.3,570.8c-3.3-5.6-3.9-12-4.3-18.4c0.3-0.3,0.5-0.5,0.8-0.8c2.1,5.8,1.7,12.4,4.3,18.3   C265.9,570.2,265.6,570.5,265.3,570.8z" />
	<path fill="#8D6C5E" d="M245,548.7c-1.4,1.9-0.6,4.4-0.9,6.6c-3-1.9-4.9-4.5-5.6-8.4C241,548.1,242.9,547.6,245,548.7z" />
	<path fill="#120E0D" d="M226.7,197c0.2-7.5-1.1-14.3-0.5-21.8c1,5.2,2.4,9.9,1.8,14.8C226.2,191.7,228.4,195,226.7,197z" />
	<path fill="#29221F" d="M235.8,190.7c-0.7,3.8-3.8,5.7-6.1,8.5c-0.4-0.1-0.9-0.2-1.5-0.3c-0.3-2.1-0.3-4.2-0.1-6.2   c0.8,2,0.5,3.4,0.7,5.8c2.8-3.1,4.5-6,6.2-9.2C235.1,189.8,235.1,190.5,235.8,190.7z" />
	<path fill="#B4B396" d="M278.2,552.9c-5.2-0.1-1.4,7.1-3.5,10c-0.3-0.5-0.5-1-0.8-1.5c0.2-2.9,0.5-5.9,0.7-9c1-0.1,1.9-0.2,2.8-0.3   C277.7,552.5,277.9,552.7,278.2,552.9z" />
	<path fill="#A68274" d="M252.1,553.8c0-1.3,0-2.5,0-3.9c0.8-0.4,1.5-0.7,2.4-1.2c0.3,0.9,0.6,1.8,0.9,2.6   C254.4,552.5,253.3,553.2,252.1,553.8L252.1,553.8z" />
	<path fill="#8D6A5D" d="M283.6,549.8c0,1.3,0,2.4,0,3.9c-1.1-0.7-2.1-1.3-3.1-1.9c0.2-1,0.4-1.8,0.5-2.6   C282,548.6,282.6,549.4,283.6,549.8z" />
	<path fill="#BCBEA6" d="M261.1,552.4c0.3,3,0.5,6.1,0.8,9.1c-0.3,0.3-0.5,0.5-0.8,0.8c-2.3-2.5,1.8-9.7-3.5-9.4   C258.6,551.8,259.9,552.5,261.1,552.4z" />
	<path fill="#EADCB7" d="M204.1,557.3c0,0.7,0,1.4,0,2.2c6.8,8.3,13.9,14.5,25.5,12.3c10.8,3.2,21.4,7.4,32.8,4.2   c0.1-0.6,0.2-1.2,0.2-1.9c0.4,0.7,0.7,1.4,1.1,2.1c0.1,0,0.3-0.1,0.4-0.1c0-0.9,0-1.7,0-2.6c0.4,0.8,0.9,1.5,1.4,2.2   c-0.4,0.5-0.9,1.1-1.3,1.6c-13,5.1-23.6-0.8-36.1-1.7C217.6,577.2,200,570.7,204.1,557.3z" />
	<path fill="#EADCB7" d="M273.9,561.5c0.3,0.5,0.5,1,0.8,1.5c-0.1,4.4-3.4,9.2-2.4,13.2c0.4-0.5,0.6-0.9,0.9-1.3   c5.9,1.3,11.9,1.4,18,1.4c3.8,0.2,6-3.7,9.6-4.6c12.5,2.2,19.4,2.3,30.3-6.7c-3,8.8-15,11.5-23.5,10.6c-12.6,0.8-25.3,7.5-37.8,0.7   C269.4,571.1,272.4,566.4,273.9,561.5z" />
	<path fill="#433F3A" d="M233.5,545.2c-0.2,0.2-0.4,0.4-0.6,0.6C233.1,545.6,233.3,545.4,233.5,545.2z" />
	<path fill="#B28C7D" d="M303.4,290.2c-0.4-0.2-0.8-0.3-1.9-0.8c9.7-4,17.9-9.4,28.7-10.5c12.6-12.7,18.6-31.6,25.4-48.1   c1.4-0.7,0.3-2.2,1.3-3.5c2.1-0.6,4.4-1.4,7-2.2c3.2,1.3,6.6,2.2,10.3,2.8c0.4-0.4,0.8-0.9,1.2-1.4c-9.7-5.3-22.7-12.3-31-21.8   c1.7,0.2,3.2,0.4,4.6,0.7c1.6,0.3,3.1-1.3,4.7,0c1-0.8,1.8-1.5,2.9-2.3c-18.9-9.8-19.3-4.8-33.6-23.1c-4.6,2-6.4,15.4-9.2,19.7   c-14.2-11.2-17.1-38.8-14.4-55.6c0.1,0.1,0.2,0.1,0.4,0c9.5,4.2,22.1,1.9,30.1,9.7c9.8,7.1,11,20,18.9,28.3   c11.7,10.8,19.9,24.6,28.1,38.1c2.4,4.8,3,4.4,0.7,11.2c-6.1,4.7-9.7,11.9-13,18.7c-5.5,8.8-12.6,16.6-16.7,26.3   c-0.1-0.4-0.2-0.8-0.4-1.6c-0.5,0.5-0.7,0.8-1.2,1.2c0.8,0.2,1.2,0.2,1.6,0.3c0.1,1.5-0.4,2.9-2.1,1.4c-0.5-1.7-3.1,1-1.4,1.4   c0.1,0.3,0.3,0.6,0.4,1.1c-1,2.5-2.4,4.9-4.1,7.1c-0.5-0.4-1.1-1-1.3-0.9c-1.4,0.6-3-0.9-4.4,0.2c-0.4,0.4-1,0.6-1.5,0.9   c-6.7,5.1-14.2-4.2-20.9-0.1C309.7,289.3,306.5,289.5,303.4,290.2z M322.3,154.9c-1.1-1.3-1.4-3.6-3-2.5   C319.7,153.4,320.1,154.5,322.3,154.9z M339.1,176.5c0.5-0.9,0.2-1.4-0.9-1.8C337.9,175.5,337.7,176.3,339.1,176.5z M323.1,154.9   c0.5,1.3,0.3,1.2,1.6,1.7C324.5,155.2,324.6,155,323.1,154.9z M342.2,177.3c0.1-1.5,0.4-1.6-0.6-2.1   C341,176.2,341.4,176.2,342.2,177.3z M333.7,176c0.4-0.3,0.6-0.4,0.7-0.5C333.6,174.1,332.7,174.6,333.7,176z M321.9,174.4   c-0.6-0.4-1-0.8-1.3-0.1C320.9,175.2,321.1,175.1,321.9,174.4z M320.5,179.2c0.9-0.5,1.1-1.1,0.7-1.9c-0.3,0-0.4,0-0.7,0.1   C320.5,178,320.5,178.6,320.5,179.2z M341,283.3c0.8,0.5,1.5,0,1.1-0.7C341.7,282.8,341.3,283.1,341,283.3z" />
	<path fill="#050404" d="M355.6,230.9c-3.3,8.2-6.5,16.5-10,24.6c-0.2-0.3-0.5-0.6-0.7-0.9c0.5-10.7,10.6-19.7,8.4-30.2   c-11-11.2-23.2-23.1-33.9-34.1c-5.5,15.9-9.4,32.8-15.3,48.8c-3.5,15.1,7,27.9,12.4,41.2c5.1-1.2,10.1-1.9,15-3.7   c0.3,0.3,0.6,0.5,0.9,0.8c-5.2,3.7-13,3-18.9,5.7c-0.3-0.3-0.5-0.5-0.8-0.8c0.6-0.4,1.1-0.8,1.7-1.3c-20.3-40.7-12.8-37.2-1-79.1   c-16.5-13.6-17.3-38.6-15.8-58.4c0.6,0.2,1.2,0.5,1.8,0.7c-2.7,16.8,0.2,44.3,14.4,55.6c2.8-6,4.1-12.5,7.3-18.3   c2,1.9-0.3,4.7-0.7,6.7c11.1,12.6,23.9,23.2,35.2,35.6C355.6,226.2,355.6,228.5,355.6,230.9z" />
	<path fill="#050404" d="M301.3,144.9c-0.5-0.2-1.1-0.5-1.6-0.7C300.4,144.2,301.1,144.1,301.3,144.9z" />
	<path fill="#4D3831" d="M185.3,244.6c0.6-0.5,1,0,1.6,0.2c-0.1,0.3-0.2,0.5-0.3,0.8C186.1,245.2,185.5,245.3,185.3,244.6z" />
	<path fill="#543A33" d="M155.4,225.9c0.2,0,0.4,0.1,0.6,0.1C156.4,227.8,154.1,227.4,155.4,225.9z" />
	<path fill="#977264" d="M192.1,226.6c-0.3-0.3-0.6-0.6-0.9-0.8c1.7-1.3,1.7-1.3,3.3-0.8c4.1-3.7,5-10.7,7.1-15.9   c1.9-7.3,6.4-14.4,6.6-22c2.6-11.7-0.7-28.7,10.6-36.1c-4.1,9.9-4.3,20.7-4.1,31.2c-0.3,3,1.4,6.3-3.2,6.5   c-4.4,17.5-12.2,34.1-15.5,51.7c-1.4,0.3-1.2-1.8-1.8-2.6c-2.2-3.2-0.4-7.2-2.1-10.5c0.6-0.1,1.5,0.1,1.2-1.2   C192.9,226.4,192.5,226.5,192.1,226.6z" />
	<path fill="#E3CBBA" d="M256.9,140.6c-2.6,1-3.7,4.5-6.5,5.5c-2.6,1.2-3.5,3.6-5.4,5.6c-0.5,4,1.1,9.3-0.7,12.9   c-0.1-6.8,0.8-13.7-0.7-20.4l0,0c0.2-0.3,0.4-0.5,0.6-0.8c3.2-1,5.6-3.2,7.6-5.8C253.7,138.4,255.4,139.4,256.9,140.6z" />
	<path fill="#100D0C" d="M243.6,144.2c2.5,15.8-0.2,32.4-7.8,46.5c-1.8-2.8,2.2-7.3,2.6-10.6c4.3-11.4,5.3-23.8,4.2-35.8   C242.9,144.2,243.3,144.2,243.6,144.2z" />
	<path fill="#B18C7D" d="M280.9,140c-0.3,0.6-0.8,0.7-1.4,0.6C279.8,140,280.3,139.9,280.9,140z" />
	<path fill="#100D0C" d="M242.4,144.3c-0.3,0.2-0.6,0.3-1,0.5C241.8,144.6,242.1,144.4,242.4,144.3z" />
	<path fill="#100D0C" d="M244.1,143.5c-0.2,0.3-0.4,0.5-0.6,0.8C243.8,144,244,143.7,244.1,143.5z" />
	<path fill="#B18C7D" d="M282.3,139.5c-0.2,0.1-0.5,0.3-0.7,0.4C281.9,139.7,282.1,139.6,282.3,139.5z" />
	<path fill="#B1B19A" d="M307,554.4c-0.5,0-0.9,0-1.4,0c0.1-1.7,0.2-3.5,0.2-5.7C307.4,550.7,306.9,552.2,307,554.4z" />
	<path fill="#98A48E" d="M310.5,553.7c-0.4,0.2-0.9,0.5-1.3,0.7c0-0.6,0-1.3,0-1.9C310.3,552.4,310.6,552.9,310.5,553.7z" />
	<path fill="#977264" d="M152.7,194.2c0.9,4.6,1.3,11.1-0.2,15.5C151.7,204.6,153.1,199.4,152.7,194.2z" />
	<path fill="#9C7C6F" d="M161,197.1c-1.5,0.7,0.5,4.4-2,2.7c3.8-5.9-5.2-15.9-1.9-21.6c0.4,0.7,0.8,1.3,1.2,1.9l0,0   c0.1,1.2-0.5,2.6,0.7,3.6l0,0C159.7,188.1,160.4,192.6,161,197.1z" />
	<path fill="#251F1C" d="M159,183.7c-1.2-1-0.7-2.3-0.7-3.6c0.2-0.1,0.4,0,0.6,0.1C158.9,181.4,158.9,182.5,159,183.7z" />
	<path fill="#282220" d="M267,242.9c-0.5-3.1,0.5-6.1,2.5-6.9C269.1,238.3,268.9,242.6,267,242.9z" />
	<path fill="#473E3B" d="M270,226.2c0.5,2.9-0.5,6.2-2.3,7.7C267.9,231,269.1,228.7,270,226.2z" />
	<path fill="#5B514C" d="M271.1,221c-0.5,2.1-2.1,3.6-3.5,5.4c-0.4-2.3,1.9-3.9,2.8-5.8C270.7,220.7,270.9,220.9,271.1,221z" />
	<path fill="#2E2422" d="M266.8,247.9c-0.3-1.7,0-3.2,1.2-4.8C268.6,245.4,267.7,246.7,266.8,247.9z" />
	<path fill="#38332F" d="M268.1,249.4c0.3,1.5,0.3,2.9-1.1,4.1C266.3,251.8,267,250.5,268.1,249.4z" />
	<path fill="#4E4743" d="M267,259.1c-0.5-1.5-0.2-2.6,1-3.8C268.5,257,268.5,258.1,267,259.1z" />
	<path fill="#4B423E" d="M266.9,264c0-0.7,0.1-1.3,0.1-2.2C268,263.1,268,263.1,266.9,264z" />
	<path fill="#786762" d="M265.5,273.9c-0.1-0.7-0.1-1.2-0.1-1.8C266.7,272.6,266.7,272.6,265.5,273.9z" />
	<path fill="#635A54" d="M266.7,265.9c0,1,0,1.5,0,2.1C265.8,267.5,265.9,267,266.7,265.9z" />
	<path fill="#443935" d="M269.7,216.9c-0.3,1.1-0.2,1.1-1.7,1.4c0.7-0.8,1-1.2,1.3-1.6C269.5,216.8,269.6,216.8,269.7,216.9z" />
	<path fill="#988077" d="M271,209c-0.1-0.1-0.2-0.3-0.3-0.4c0.3-0.1,0.7-0.3,0.8,0.1C271.4,208.8,271.2,208.9,271,209z" />
	<path fill="#72645E" d="M269.4,212.8c0.2,0.4,0.3,0.7-0.2,0.9C268.9,213.2,268.9,213,269.4,212.8z" />
	<path fill="#0D0908" d="M268.1,329.1c7,6.7,17,6.9,26.2,6.5c-5.7,4-20.7,1.3-26.7-4.8c-3.6,24.5,4.3,48.2,7.6,72.1   c-0.4-0.2-0.9-0.5-1.3-0.7c-2.3-10.8-4.4-21.4-6.7-32.1c-0.9,1.7-1,2.9-1.1,4.6c-1.5-13.1,0.3-27.9-0.8-41.6   c-7.2,4.6-16.3,5.9-24.3,2.8C251.8,336,259.3,335.5,268.1,329.1z" />
	<path fill="#D69479" d="M296.4,439.5c-1.2-0.1-2.6,0.4-3.9-0.7c-1.4-3.9-1.8-7.9,0.6-11.9c3.1,0.7,2,4,3.9,5.7   c-1.4-0.6-2,1.6-0.6,2.1c-0.1,1,0.2,1.9,0.7,2.7C296.1,437.8,296.5,438.8,296.4,439.5z" />
	<path fill="#412F29" d="M300.1,493.1c2.9,0.5-0.1,6.6-1.4,8.6C298.3,498.3,300.3,496,300.1,493.1z" />
	<path fill="#3C2721" d="M296.4,439.5c0.1-0.8-0.4-1.7,0.7-2.1c1.3,1.3,1.6,2.9,2.1,4.4C297.7,443.4,297.2,440.4,296.4,439.5z" />
	<path fill="#725246" d="M301.7,480.4c-1.3-0.5-1.1-1.2-0.5-2.2C302.4,478.8,302.2,479.5,301.7,480.4z" />
	<path fill="#2F1C16" d="M298.4,333.9c0,0.3,0.1,0.6,0.2,1c-0.9,0.4-1.7,1.1-2.8,0c0.9-0.4,1.5-0.7,2.2-1   C298.1,333.9,298.2,334,298.4,333.9z" />
	<path fill="#62473B" d="M296.4,434.6c-1.4-0.5-0.8-2.7,0.6-2.1C297.1,433.4,297.2,434.1,296.4,434.6z" />
	<path fill="#221513" d="M301.3,486.8c0,0.9,0,1.6,0,2.5C299.9,488.2,299.9,488.2,301.3,486.8z" />
	<path fill="#4E372F" d="M296.2,507.9c-1-1,0-1.4,0.4-2.5C297.4,506.8,297.3,507.5,296.2,507.9z" />
	<path fill="#7E5244" d="M283.9,436c-0.3,0.8-0.9,0.8-1.5,0.7C282.7,435.1,282.8,435,283.9,436z" />
	<path fill="#452F29" d="M294,510.8c0.6,1.1-0.1,1.5-0.9,2.1C292.7,511.7,293.2,511.2,294,510.8z" />
	<path fill="#1D1918" d="M265.3,373.1c0.2,0.6,0,1.3,0.8,1.6c-0.2,7.8-1.7,15.3-3.6,22.8c-1.7,12.4,0.3,25.2-2,37.4   c-0.4-1.8,0.7-4.5-0.8-5.9C259.6,410.1,261.4,391.5,265.3,373.1z" />
	<path fill="#D59378" d="M251.2,438c0,1,0,2,0,3c-0.4,0-0.8,0-1.5,0c0,1,0,1.9,0,2.8c-3.3-5-3.3-11-4.2-16.7   c1.8-4.4,6.3-1.6,5.7,2.3c-0.6,2.8,1.9,5.6-0.1,8.1c-0.5-0.7-1-1.4-1.7-2.3c-0.3,1.6-0.3,1.6,0.6,2.9   C250.6,438.1,250.9,438,251.2,438z M249.5,429c-1.3,1.6-0.9,2.1,0.3,2.5C249.7,430.8,249.6,430.3,249.5,429z" />
	<path fill="#3C2721" d="M236.5,442.3c0-0.2-0.1-0.5-0.1-0.7c0.9-1.3,0.8-3.1,2.5-4.3c1,1.8-0.6,3.4-1.1,5   C237.2,442.3,236.9,442.3,236.5,442.3z" />
	<path fill="#261D18" d="M249.8,443.8c0-0.9,0-1.8,0-2.8c0.6,0,1,0,1.5,0c0,1.2,0,2.4,0,3.6C250.3,445.1,250.2,444.2,249.8,443.8z" />
	<path fill="#64453B" d="M252.7,517c0.5-1.4,0.8-2.3,1.1-3.2C255.9,513.5,254.7,517.1,252.7,517z" />
	<path fill="#2A1A15" d="M251.2,438c-0.3,0-0.7,0.1-1,0.1c-1-1.4-1-1.4-0.6-2.9c0.6,0.9,1.2,1.6,1.7,2.3   C251.2,437.7,251.2,437.8,251.2,438z" />
	<path fill="#A9705E" d="M257.6,440.9c-0.2,1.1-0.5,2.3-0.7,3.4c-0.7-0.7-0.7-1.6-0.8-2.5C256.6,441.5,257.1,441.2,257.6,440.9z" />
	<path fill="#61473B" d="M238.7,432.5c1.4-0.5,2.1,1.6,0.7,2.1C238.5,434.1,238.6,433.3,238.7,432.5z" />
	<path fill="#301B17" d="M256.1,441.8c0,0.9,0.1,1.8,0.8,2.5c-0.2,0.3-0.4,0.6-0.6,0.9C255.1,443.7,255.1,443.1,256.1,441.8z" />
	<path fill="#4E3C36" d="M229.6,149.2c1.4-0.3,2.2,0.1,2.7,1.6C230.8,151.1,230.1,150.5,229.6,149.2z" />
	<path fill="#1F1613" d="M157.5,207.6c0.3,0,0.7,0,1,0c0.5,0.8,1.2,1.6,0.4,3.1C158.3,209.4,157.9,208.5,157.5,207.6L157.5,207.6z" />
	<path fill="#85665B" d="M160,213.6c0.7,0.2,0.7,0.8,0.7,1.5C159.9,215.7,159.2,214.1,160,213.6z" />
	<path fill="#675048" d="M206.7,239.3c1.1,0.6,0.7,1.6-0.4,1C206.4,240,206.5,239.7,206.7,239.3z" />
	<path fill="#2B221E" d="M206.5,243.1c0,0.7-0.2,1.1-0.7,1.7C205.4,243.4,205.4,243.4,206.5,243.1z" />
	<path fill="#594840" d="M235.1,149.8c-0.9,0.6-1.1,0.5-1.4-0.4C234.2,148.9,234.6,149.4,235.1,149.8z" />
	<path fill="#6E564D" d="M225.7,171.6c1.1,0.6,0.8,1.6-0.3,1C225.4,172.3,225.5,172,225.7,171.6z" />
	<path fill="#4A332E" d="M192.1,226.6c0.4-0.1,0.8-0.3,1.2-0.4c0.3,1.2-0.6,1.1-1.2,1.2C192.1,227.1,192.1,226.9,192.1,226.6z" />
	<path fill="#080605" d="M234.1,485.8c-1.6-2.5-0.5-4.2-0.3-6.1C234.9,480.6,234.9,480.6,234.1,485.8z" />
	<path fill="#1C110E" d="M235.6,493.8c-1.5-1.2-1.5-2,0-4.1C236,491.2,236,492.4,235.6,493.8z" />
	<path fill="#55372E" d="M236.3,496.3c1.1,2.2,1.1,2.2-0.1,3C235.4,498.5,235.8,497.7,236.3,496.3z" />
	<path fill="#301C16" d="M236.7,334.4c1.5-0.2,2.3-0.1,3.1,0.4C238.9,335.6,238.9,335.6,236.7,334.4z" />
	<path fill="#815747" d="M236.8,504.2c0-0.6,0-1.2,0-1.9C238,503.1,238,503.1,236.8,504.2z" />
	<path fill="#6F4F41" d="M238.2,509.5c0.7,0.2,0.7,0.9,0.7,1.6C238.1,511.7,237.4,510,238.2,509.5z" />
	<path fill="#A3745F" d="M223.9,330.3c-0.9,0.6-1.1,0.5-1.3-0.3C223,329.4,223.3,329.9,223.9,330.3z" />
	<path fill="#94604E" d="M232.6,332.5c0.3,0.4,0.6,0.6,1,1.1C232.5,333.8,232.2,333.6,232.6,332.5z" />
	<path fill="#8D604F" d="M226.3,332c-0.3,0.4-0.5,0.3-0.8,0C225.8,331.6,226,331.9,226.3,332z" />
	<path fill="#2F2A28" d="M273.9,402.2c0.4,0.2,0.9,0.5,1.3,0.7c-1.1,6.6-0.3,13.8-0.7,20.7C273.5,416.5,274.1,409.3,273.9,402.2z" />
	<path fill="#2F2A28" d="M274.6,428.3c1,1.2,1,2.3,0,3.5C274.6,430.6,274.6,429.4,274.6,428.3z" />
	<path fill="#2F2A28" d="M275.9,426.8c-1.4-2.7-0.2-6.3-0.5-9.4C276.4,420.4,275.6,423.8,275.9,426.8z" />
	<path fill="#583C31" d="M281.6,439.5c1.6,1,0.5,2.9-0.5,4.2C280.4,442,281.1,440.8,281.6,439.5z" />
	<path fill="#2F2A28" d="M275.4,415.8c0-0.8,0-1.7,0-2.5C276,414.1,276,414.9,275.4,415.8z" />
	<path fill="#835748" d="M302.1,333.1c0.4,0.1,0.8,0.1,1.3,0.2C302.6,334,302.3,333.7,302.1,333.1L302.1,333.1z" />
	<path fill="#3B3A33" d="M273.8,567.7c0.3-3.1,1.7-6,1.6-9.1c0.2,0,0.5,0,0.7,0c0,3.6-0.4,7.1-1.6,10.5   C274.3,568.7,274,568.2,273.8,567.7z" />
	<path fill="#6C695A" d="M273.8,567.7c1.7,2.6-0.2,5.9-1.5,8.4c-0.9-0.8-0.4-1.8-0.1-2.8C273.3,571.6,272.9,569.5,273.8,567.7z" />
	<path fill="#6B5347" d="M275.4,554.5c0.2-1.2,1-1.6,2.1-1.5c-1.4,1.6-0.9,3.7-1.4,5.6h-0.3C275.9,557.3,276.4,555.8,275.4,554.5z" />
	<path fill="#EADCB7" d="M273.3,574.2c0.2-0.5,0.3-1,0.5-1.5C273.9,573.2,274,573.8,273.3,574.2z" />
	<path fill="#57554A" d="M260.4,561.5c0.2,0.3,0.4,0.6,0.7,0.8c0.1,2.2,0.1,4.4,0.2,6.8c-3.1-0.9-0.9-5.2-1.5-7.6   C260,561.5,260.3,561.5,260.4,561.5z" />
	<path fill="#4D493F" d="M264.1,573.4c0,0.9,0,1.7,0,2.6c-0.1,0-0.3,0.1-0.4,0.1c-1.3-2-1.4-3.9-1.7-6.3   C263.7,570.7,263.3,572.4,264.1,573.4z" />
	<path fill="#6C554A" d="M258.2,553c3.7-0.2,0.9,4.3,1.5,6.4C258.4,557.5,260,554.9,258.2,553z" />
	<path fill="#33312A" d="M259.7,559.4c0.1-1.7-0.1-3.4,0.6-4.9c0,2.3,0.1,4.6,0.1,6.9c-0.1,0-0.4,0-0.6,0   C259.8,560.8,259.7,560.1,259.7,559.4z" />
	<path fill="#553E37" d="M338.5,288.6c-0.7,0.5-1.4,1-2.1,1.6C335.5,288.8,337.2,288.1,338.5,288.6z" />
	<path fill="#402F2A" d="M344.2,278.1c0.8-0.9,0.9-0.9,1.5,0c-0.5,0.5-0.9,1-1.4,1.4l0,0C344.3,279,344.3,278.6,344.2,278.1z" />
	<path fill="#312F28" d="M275.4,554.5c1,1.3,0.4,2.7,0.4,4.1c-0.1,0-0.3,0-0.4,0C275.4,557.3,275.4,555.9,275.4,554.5z" />
	<path fill="#977264" d="M355.6,230.9c0-2.3,0-4.7,0-7.1c-11.4-12.3-24.1-23-35.2-35.6c0.4-2.1,2.7-4.9,0.7-6.7   c0.4-0.8,0.9-1.3,1.9-1.3c14.3,18.3,14.7,13.3,33.6,23.1c-1,0.8-1.9,1.5-2.9,2.3c-1.5-1.3-3.1,0.3-4.7,0c-1.4-0.3-2.8-0.4-4.6-0.7   c6.1,5.6,11.9,10.9,18.3,15.5c0.1,0.4,0.3,0.8,0.4,1.2c0.4-0.2,0.7-0.4,1.1-0.6c5.2,1.7,9.1,3.7,11.2,5.7c-0.4,0.5-0.8,1-1.2,1.4   c-3.7-0.6-7.1-1.5-10.3-2.8c-2.5,0.8-4.9,1.5-7,2.2C356,228.7,357,230.2,355.6,230.9z M364.9,223.2c1.2,2.1,2.9,2.4,4.7,2.4   C370.3,224.1,366.2,222.3,364.9,223.2z M337,197.3c2.3,2.3,2.7,2.5,5,2.8C340.6,198,338.8,197.1,337,197.3z M349,202.3   c-0.3-0.1-0.6-0.4-0.8,0C348.4,202.7,348.6,202.6,349,202.3z M352.2,202.8c-0.2,0.1-0.3,0.2-0.4,0.3c0.2,0.4,0.5,0.1,0.8,0   C352.4,203,352.3,202.9,352.2,202.8z" />
	<path fill="#191413" d="M332.4,277.4c-0.3-0.3-0.6-0.5-0.9-0.8c4-7.6,8.5-15.1,13.4-22c0.2,0.3,0.5,0.6,0.7,0.9   C341.9,263.2,336.8,270.1,332.4,277.4z" />
	<path fill="#322521" d="M322.3,154.9c-2.2-0.4-2.5-1.5-3-2.5C320.9,151.3,321.1,153.6,322.3,154.9z" />
	<path fill="#45342E" d="M339.1,176.5c-1.4-0.2-1.1-1-0.9-1.8C339.3,175.1,339.6,175.6,339.1,176.5z" />
	<path fill="#4D3C36" d="M323.1,154.9c1.5,0.1,1.4,0.3,1.6,1.7C323.4,156.1,323.6,156.2,323.1,154.9z" />
	<path fill="#140908" d="M342.2,177.3c-0.8-1.2-1.1-1.1-0.6-2.1C342.6,175.8,342.3,175.9,342.2,177.3z" />
	<path fill="#64463E" d="M364.2,221c-0.4,0.2-0.7,0.4-1.1,0.6c-0.1-0.4-0.3-0.8-0.4-1.2C363.3,220.6,363.8,220.8,364.2,221z" />
	<path fill="#342622" d="M333.7,176c-0.9-1.3,0-1.9,0.7-0.5C334.2,175.6,334.1,175.7,333.7,176z" />
	<path fill="#634D45" d="M321.9,174.4c-0.8,0.6-1.1,0.8-1.3-0.1C320.9,173.6,321.3,174.1,321.9,174.4z" />
	<path fill="#977164" d="M347.9,276.7c-0.4-0.1-0.8-0.2-1.6-0.3c0.5-0.5,0.7-0.7,1.2-1.2C347.7,275.9,347.8,276.3,347.9,276.7   L347.9,276.7z" />
	<path fill="#251F1B" d="M320.5,179.2c0-0.7,0-1.2,0-1.8c0.3,0,0.4,0,0.7-0.1C321.6,178.1,321.4,178.7,320.5,179.2z" />
	<path fill="#3E2F2B" d="M341,283.3c0.3-0.2,0.7-0.4,1.1-0.7C342.5,283.3,341.8,283.8,341,283.3z" />
	<path fill="#977164" d="M344.2,278.1c0,0.5,0.1,0.9,0.1,1.4C343.5,279.1,343.5,278.6,344.2,278.1z" />
	<path fill="#583B30" d="M249.5,429c0.2,1.2,0.2,1.8,0.3,2.5C248.6,431.1,248.2,430.6,249.5,429z" />
	<path fill="#281E1A" d="M364.9,223.2c1.4-0.9,5.4,0.9,4.7,2.4C367.7,225.6,366.1,225.3,364.9,223.2z" />
	<path fill="#31231F" d="M337,197.3c1.9-0.3,3.6,0.7,5,2.8C339.6,199.9,339.2,199.6,337,197.3z" />
	<path fill="#33231E" d="M349,202.3c-0.3,0.3-0.6,0.4-0.8,0C348.4,201.8,348.7,202.2,349,202.3z" />
	<path fill="#553731" d="M352.2,202.8c0.1,0.1,0.2,0.2,0.3,0.4c-0.3,0.1-0.6,0.3-0.8,0C351.9,203,352,202.9,352.2,202.8z" />
</g>
</g></svg>