<?xml version='1.0' encoding='utf-8'?>
<svg xmlns="http://www.w3.org/2000/svg" version="1.2" baseProfile="tiny" id="Layer_2_00000029754939391493499050000007924261077733818785_" x="0px" y="0px" viewBox="0 0 900 600" overflow="visible" xml:space="preserve">
<g id="b">
	<g><path d="M562.5,74.8c-0.7-3.1-1-5.9,0.2-9.8c-0.8,0.1-1.4,0.2-2.3,0.4c-2.6-3.2,0.8-7.1-0.7-10.6c-2-5.5,3.6-10.3,4.7-15.6   c-0.4-0.6-0.9-1.1-1.4-1.9c0.8-1.6,1.6-2.9,2.3-4.5c1.3-0.6,2.7-1.3,4.1-1.6c0-0.1,0-0.2-0.1-0.3c-0.4,0-0.9-0.1-1.3-0.1   c-1.1-0.9,0.1-1.7,1-2.2c1.7,0.2,3.2-0.1,4.5-1.4c-0.2-0.9-0.4-1.8-0.7-2.8c0.9-1.3,2.2-1.6,3.8-1.6c-0.1-1.4-2.1-1.3-1.2-3.4   c3-0.7,5.9-1.3,8.9-2c0.6-3.2,2.1-3.9,4.7-2.4c4.2-2.3,12.5-6.2,16.5-1.9c3.7-1.3,8-4,11.8-1.8c-0.1,0.3-0.2,0.7-0.3,1.1   c-0.8,0.3-1.4,0.6-2.6,1c2.2,1,3.2-0.2,4.1-1.2c3.1-0.6,5.5-1.7,8.8-0.7c-1.3,1.7-2,1.4-4.1,2.3c4.7,2.4,11.4-0.7,14.8,4.5   c-0.2,0.3-0.3,0.6-0.6,0.9c-1.1,0-3.8-0.8-2.9,1.3c1,0,1.9,0,2.9,0c2.6,1.6,5.1,3,7.8,4.6c0,0.4-0.1,0.9-0.2,1.4   c2.1,1.3,2.8,3.9,4.3,5.8c-0.7,0.7-1.1,1-1.7,1.6c0.3,0.8,0.8,1.6,1.2,2.6c-0.3,0.6-0.7,1.2-1,1.9c0.6,0.4,1.2,1,1.8,1.4   c0.1,2.6,0.9,5.2-1.3,7.3c0.1,1.2,0.3,2.3,0.4,3.7c-0.8,0.7-1.4,1.4-2.3,2.2c0.3,2.1-1,4.2-1.2,6.3c-0.6,0.3-1,0.6-1.4,0.8   c0.2,1.4,0.3,2.8,0.6,4.2c-0.2,0.6-0.6,1.1-0.8,1.7c-7.5-18-4.2-11.7-18.5-13.6c-1.9-0.8-3.1,1.3-4.7,0.4   c-13.7,4.1-11.5,12.4-16.1,22.1c0.2,1,0.9,1.9-0.1,2.7c-1,0-2,0-3,0c-3.2-7.7,3.3-16.4,8.1-21.9c5.5-6.3,14.2-5.6,21.6-7.5   c-8.9-5.1-21.8-0.9-27.5,7.5c-6,7.8-5.6,17.9-9.3,25.9c1.3,4,4.1,6,7,8.7c0,0.3,0,0.6,0.1,0.9l0,0c-2,3.4-0.2,8.5-0.9,12.5   c-0.4-1-0.9-2-1.3-3c-1.2,0-2.6,0-3.8,0c-0.3,0.7-0.8,1.2-1.2,2c-3.1-1.4-3.3-3.9-6.7-1.4c-0.8-0.6-1.6-1.3-2.1-2.1   c-0.7,0.2-1.2,0.4-2.1,0.7c-1.8-0.6-2.8-2.4-3.9-3.9c-4.5,3-8.2-4.8-9.8-8.8c-4.3-0.3-5-5-5.1-8.5c1.2-1,0.9-2.2,0.7-3.6   c-0.3,0.1-0.6,0.1-0.9,0.2C563.4,75.4,562.9,75.2,562.5,74.8z M564.9,42.1c0.8,0.8,1.6,0.1,1.1-0.7   C565.7,41.7,565.2,41.9,564.9,42.1z" />
	<path fill="#010101" d="M617.4,375.7c-2.3,22-7.5,43.4-13.4,64.8c-4.8,7.7-4,15.4-3.4,24c-2.8,25.6-13.6,52.2-6.7,77.9   c2-0.1,2.8,0.9,3.1,2.9c1.8,8.6,7.6,15.7,10.8,23.8c5.2,7.7,10.2,10.1,5.8,20.5c-12.7,3.7-26.6,3.8-39.4,0.1   c-0.4-1.4-0.9-2.9-1.3-4.2c-2.4-0.6-4.8-1.1-7-1.7c-1.7-5.1,2.6-9.8,2.6-15c1.1-5.5-3-13.7,3.2-16.5c4.1-29.7-9.3-58.9-7.2-88.7   c1.1-22.6,16.2-43.7,8.8-66.5c-7.5-44.8-27.3-94.1,1.7-135.3c0.9,0.2,0.7,1.1,0.9,1.7c-3.8,8.6-8.2,17.5-10.6,26.5   c31.3-1.1,65,10.9,95-1.1c-17.2-57-14.5-34.4-4.3-89.2c9.3-4,14.8-12.1,10.9-22c0.4-3.9-5.8-11.1-3.2-13.2c1.2,1.8,2.3,3.6,3.8,5.7   c13.7-0.7,28.7-7.1,41.8-7.3c-13.1,5.1-26.8,9.5-41.2,8.9c4.9,11.1,3.1,24.7-9.3,29.4c-2.2,7.5-1.9,14.2-4,21.5   c-0.6,5.8-5.2,10.5-4.3,16.5c4.9,31.7,17.9,62,18.1,94.7c2.9,30.6-6.1,60.5-6.2,90.7c-2.6,19.4,1.7,39.1-1.1,58.6   c-0.3,16.2-5.3,31.8-5.2,48.1c1,0.3,2.1,0.7,3,1.1c3,4.5,0.3,10.1,4.3,14c4.8,5.9,8.2,14.4,15.1,17.9c5.7,2.6,6.1,2.8,7.2,9   c5.7,16.2-35.6,11.6-41.8,3.4c-5.5,1.8-17.8,0.6-20.1-5.3c4.6-5.6,4.1-12.7,4.5-19.6c0.4-4.6,3.6-8.5,3.3-13.1c2-1.4,2-1.4,5.2-1   c-1.4-13.8,0.6-28.2-3.4-41.6c-4-13.6-8.5-27.6-6.5-41.8c6.2-26.9-1.3-56.6-9.2-81.5C617.4,373.8,617.4,374.7,617.4,375.7z    M609.5,588.3c1,0.1,1.7-0.1,2.1-1.3c-3.1,0.1-6.3-0.4-9.2-0.7c-1.2,0.8-2.1,1.4-3.1,2.1c-0.8-0.2-1.4-0.6-1.4-1.4   c1-0.8,2.1-1.6,3.3-2.6c3.6,0.3,7.2,0.7,11.1,1c1.1-3,1.4-6-1.2-8.3c-7.7-8.9-12.9-20.9-16.2-32c-3.4-1.8-5-5.3-7.7-7.8   c-2.3,0.4-4.7,0.8-6.2,2c-1.2,4.7-2.8,17-8.3,16.9c-0.4-0.4-0.8-0.9-1.2-1.4c-0.4,0.4-0.7,0.8-0.8,0.9c1,9.3-0.2,17.6-2.6,26.4   c1.8,0,3.3,0.8,4.8,0.3c0.2-0.9,0.6-1.8,1-3.1c2.2,2.8,1.1,6.1,2.8,9.1C587.6,590.5,598.5,590.3,609.5,588.3z M665.2,553.2   L665.2,553.2c-1.1-6.6-10.7-0.9-14.8,0.4c-2.3-5.7,8.1-4.3,11.1-6.1c-0.1-0.3-0.1-0.6-0.2-1c-5.2,0.8-10.6,0.3-15.1,3.6   c-0.4-0.6-0.7-1-0.9-1.3c2.9-5.1,8.7-3.2,13.7-4c-0.3-3.2-0.7-6.3-1-9.6c-2.9-1.6-5.7-2-8.7-0.3c-2.3,4.7-4.6,14.4-11.6,10.9   c-1.6-2.1-0.9-5.5-3.4-6.6c-4.8,10.8-2.2,22.6-7.9,32.8c4.6,1.1,9.5,3.8,14.1,2.9c2.4-0.8,4.6,0,6.7,1.2   c10.7,6.2,26.4,7.8,37.2,1.6c-1-12.6-5.9-8.2-12.4-15.6c-1.6-1.4-2.3-4.6-4.5-5l0.1,0.1C667.4,555.6,666.4,554.1,665.2,553.2z    M623,316.1C623,316.1,623,316.2,623,316.1c0.3,0.1,0.7,0.2,1.2,0.3c-8.1,37.2,0.4,74.2,7.7,110.8c2.2,8.8-2.7,17.4-2.7,26.2   c-1.1,11.9,0.9,23.5,4.5,34.7c5,15.5,4.5,31.6,5.9,47.6c2.6-0.3,4,1.2,6.6,0.2c0.9-3.6,4-4.5,7.3-5.2c5-40.1,6.8-80.3,6.6-120.6   c6.2-38.9,10.2-79.3,0.9-118.3c-31.4,11-64.8-0.2-96.8,0.6c-7.5,37.9,8.8,76.7,13.5,114.4c2.6,19.8-9.5,37.5-10,57   c-3,27.8,8.8,54.2,7.8,82c6-9.9-0.9-8.1,13.4-11.8c-1.4-25.5,9.3-49.4,9.1-74.7c-1.8-15.5,8.2-29,10.6-44.1   C617.2,383,615.7,348.1,623,316.1z M645.1,539.4c-2.1-1.1-3.9-1.3-6-1c-0.8,2.3-0.8,5.8,2.6,5.3C642.9,542.3,643.9,541,645.1,539.4   z M575.1,552.3c1.3-3.3,1.3-3.3,0.9-5C573.9,550.5,573.9,550.5,575.1,552.3z" />
	<path fill="#060303" d="M652.7,118.9c6.6-2.2,13.8,0.6,20.5-2.1c4-1.2,8.6-2,12.5,0.2c6.6,4.2,16.7-0.7,22.1,5.2   c0.9,4.1-10.2,7.9-14,7c-8.1,2.1-16.6,7.9-25.1,2.9c-3.3,0.3-6.7,1.4-9.9-0.4c-2.7,1.3-6,0.6-8.2,2.9c48,20.8,43.4-1.6,85.4,0.1   c-21.9-0.1-44.2,16.1-66.5,9.2c-7.2-3.1-15.1-7-23.1-6.6c0.8,2.1,2.3,3.4,3.3,5c-0.3,0.3-0.7,0.8-1,1.1c-0.2-0.3-0.6-0.6-0.8-0.9   l0,0c-1.4-1.6-2.9-2.8-4.5-4.3c-0.7,0.7-1.2,1.2-1.8,1.7c13.5,21.7-7.9,24.8-24.5,19.6c-4.3-1.1-8-5.5-12.7-4   c-1.7,0.4-3.6,0.7-5.2-0.1c3-0.8,6.1-3,9.2-2.3c18.2,1.1,30.7-18.8,47.9-22.6c-0.2-1.1-0.3-2.2-0.6-3.4c0.7,0,1.1,0,1.4,0l0,0   c3.9,9.6,14.1,0.4,19.9-1.6c3.1-0.1,6,0.2,8.6-2.3c-1-0.1-1.7-0.2-2.3-0.3c1.1-0.4,2.2-1.2,3.4-1.4l0.3,0.1   c-0.8,4.7,3.6,2.4,6.3,2.9c-1.3,1.7-1.7,0.6,0,2.3c-7.7,0-16.8-2.3-22.5,4.5c8.3,3.3,14.7-2.1,22.3-3.6c2.9-0.2,7.6,0.4,9.2-2.1   c-2.9-1.6-6-1-9-1.1c0-0.2,0-0.4,0-0.7c3.1-0.3,6.3-0.2,9.9-2c-8.1-0.9-16.1-0.7-23.8-4.5C671.1,119.6,661.3,121,652.7,118.9z    M628.3,158.8c0.6-0.4,1-1,1.6-1.4c0.3,0.7,0.7,1.3,0.9,1.8c3.6-0.1,6.8-0.3,9.9-0.4c1.2-1.3,2.2-2.4,3.3-3.6   c-0.4-4.9-1.6-9.7-4.8-13.8c-8.3,5.2-16,11.1-25.5,13.9C618.5,157.8,621.7,159.1,628.3,158.8z M704.5,123.5c0.9,0,1.4,0,2.2,0   c-0.4-0.6-0.7-0.9-1-1.4C705.3,122.5,705,122.8,704.5,123.5z" />
	<path fill="#060504" d="M599.3,155.3c0.6,0.2,1.2,0.4,1.8,0.7c-4,1.9-8.6,1.9-12.4,4.1c0,11.5-3.3,31.4-17.7,31.4   c9.8,20.1,15.4,44.2,7,65.8c-0.3-0.6-0.6-1.2-0.9-1.8c13.9-44.8-20.4-67-20.4-101c3,12.4,6.6,24.5,13.4,35.4c1.8-0.3,3.6-0.7,5.5-1   c6.8-7.5,12-17.8,11.5-28c-6.3,0-14.2,5-20.4,1c4.2-2,9-0.2,13.5-1.7C586.5,158.5,592.8,155.4,599.3,155.3z" />
	<path fill="#080505" d="M723.4,136.1c3.2-2.4,9.3,1,12.6-1.6c10,0.2,20.1,1,30.2-0.8c11.5-4.6,16.6-5.6,29.2-3.4   c4.1,3.1,10.7,3.1,15.4,5.7c2.9,1.8,7.8,0.6,9.3,4.1c-1.7,3.1-4.2,3.4-7.2,2.4c-5.3,2.7-10.8,1.3-16.1,0.8c-4,4-8.5,3-13.4,2.3   c-0.4-2.7,1-3.3-1.9-5c1.3-1.1,2.6-2.3,1.4-4.5c-0.6-0.2-1.2-0.4-2-0.8c-1.3,2-1.6,4.5-3.8,5.3c-0.7-0.1-1.4-0.1-1.7-1   c2-1.4,3.1-4,4.6-6c4.7-0.2,5.3,0.9,5.6,5.1c-1.4,1.7,0,3.2,0.1,4.8c3,1,5.2,1.4,7.3-0.6c-2-0.1-3.8,0.1-5.7-0.1c0-0.4,0-1,0.1-1.4   c7.7-1.2,16,2.7,23.3-0.4c-2.3-2.4-7-1.7-9.3-4.8c-3.1-0.8-6.5-1.9-8.9-3.2c-3-0.2-7,2.2-8.1-1c1.1-0.2,2.2,0.3,3.7-0.9   c-9.8-1.9-16.9,4.8-26.4,4.8C748.7,138.1,736.1,135.3,723.4,136.1z M812.2,138.4c-3.6-1.4-4.1-1.6-6.5-1c2.7,1.2,6.2,1.2,7.7,4   c0.7-0.7,1.7-0.4,1.7-1.9C814.2,139.1,813.2,138.8,812.2,138.4z" />
	<path fill="#0F0B0A" d="M556.8,154.2c-1.1,1.3-0.7,3.1-0.8,4.8c-13.9-49.4,44.2-19.7,42.3-57.2c-0.6-0.3-1-0.7-1.6-1   c0.7,0,1.2,0,1.9,0c4,7.9-1.4,18.2-8.9,21.6c0.1,2.6,1.3,4.8,2,7.1c4.9,0.4,10,0.3,14.8-0.4c-3.9,4.8-12.6,1.3-18.2,2.2   c-0.2-0.3-0.6-0.6-0.8-0.9c0.7-0.6,1-1,1.9-1c-0.6-2-1-4.1-1.9-6.1c-2.1,0.7-4.7,1.8-4.7,4c-0.3,0.3-0.6,0.7-0.9,0.9   C565.2,121.7,551.9,138.4,556.8,154.2z" />
	<path fill="#0C0908" d="M782.9,144.6c0.1,0.4,0.1,0.8,0.2,1.2c-2,3.7-8.7,4.3-11.4,1.1c-19.7,1.4-39.2,20.6-58.6,12.2   c19.6,2.9,38.3-10.1,57.1-14.5c-0.2-0.4-0.4-1-0.6-1.4c0.3-0.8,0.6-1.6,0.9-2.3c0.2,0.3,0.6,0.6,0.8,0.9c0,0.1,0,0.3,0,0.4   c0.8,1.3,2.3,2.7,3.1,4c1.6,0.2,2.8,0.4,4.3,0.7C780.1,146.2,781.6,145.4,782.9,144.6z" />
	<path fill="#110B0B" d="M606.6,129.1c-0.3,0-0.7,0-0.9-0.1c4-5.5,11.2-6.7,17.6-7.2c0.4-3,0.9-5.8,1.2-8.5c1.7-0.8,3.4-1,5.3-0.9   c0.3,0.2,0.6,0.6,0.9,0.8c-1.3,0.1-2.6,0.2-3.9,0.3c-1.1,2.9-0.9,5.9-0.9,9.1c6.6,0.3,13.4-3.2,19.8-0.9   C632.6,125.3,618.2,121.6,606.6,129.1z" />
	<path fill="#120E0D" d="M643.4,66.3c0.2-0.6,0.6-1.1,0.8-1.7c1.6,3.3,2,7,1.7,10.7c1.1,0.8,1.2,1.6,0.6,2.7   c-3,3.9,0.2,7.1-1.7,11.1c-1.6-2.1-0.9-5.8-1.6-8.3c-2.8-0.4-3.7-2.8-4.6-4.9c1.4-1.3,3.4-0.6,5.3-1.1c0-0.6,0-1.1,0-2   c-1.9,0.2-3.6,0.4-5.2,0.7c0.2-2.8,3.3-2.4,5.1-3.3C643.7,68.5,643.5,67.4,643.4,66.3z" />
	<path fill="#3E3835" d="M630.7,113.2c-0.3-0.2-0.6-0.6-0.9-0.8c4.3-1.1,7.1-3,8.7-7.2c-0.4-0.3-0.6-0.4-0.8-0.6c0-0.2,0-0.4,0-0.8   l0,0c0.2-0.3,0.6-0.7,0.8-1c-0.3-1.7,0.9-2.1,2.1-2.7c0-0.7,0.1-1.3,0.1-1.9c0.2-0.3,0.4-0.7,0.7-1c0.3,0.6,0.6,1.2,0.9,1.8   C640.9,105,637.8,113.6,630.7,113.2z" />
	<path fill="#383534" d="M642.4,99.2c-0.3-0.6-0.6-1.2-0.9-1.8c0.7-3.7,1.2-7.5,2.3-10.9c0.3,0.8-0.3,1.9,0.8,2.4   C644,92.4,643.9,96,642.4,99.2z" />
	<path fill="#32211F" d="M645.6,121.9c-1.6-0.9-3.2-0.7-5-0.8c4.5,0,9.6-3.3,13.7-1.3C651.8,121.1,648.5,121.1,645.6,121.9z" />
	<path fill="#34302D" d="M577.2,255.2c0.3,0.6,0.6,1.2,0.9,1.8c-0.8,2.1-1.4,4.2-2.2,6.5c-0.2-0.7,0-1.4-0.9-1.7   C575.7,259.6,576.4,257.4,577.2,255.2z" />
	<path fill="#211514" d="M713.2,159.1c0.6,0.4,1,0.9,1.6,1.3c-2.1,0.1-3.6,1.7-5.5,2.4c-0.3-0.8-1-0.7-1.7-0.8   C709.5,161,711.4,160.1,713.2,159.1z" />
	<path fill="#372525" d="M572.5,24.4c0.2,0.9,0.4,1.8,0.7,2.8c-1.6-0.9-2.8,1.3-4.5,0.4C568.9,25.9,571.4,25.5,572.5,24.4z" />
	<path fill="#A7E0E0" d="M618.2,12.3c-1,1-1.9,2.2-4.1,1.2c1.1-0.4,1.9-0.8,2.6-1c0.1-0.3,0.2-0.8,0.3-1.1   C617.3,11.6,617.8,12,618.2,12.3z" />
	<path fill="#8C8E8E" d="M637.1,20.5c-1,0-2,0-2.9,0c-0.9-2,1.8-1.3,2.9-1.3C637.1,19.7,637.1,20.1,637.1,20.5z" />
	<path fill="#9BBCBC" d="M568.8,27.6c1.7,0.9,2.9-1.3,4.5-0.4c-1.2,1.3-2.7,1.7-4.5,1.4C568.8,28.3,568.8,28,568.8,27.6z" />
	<path fill="#788383" d="M617.4,375.7c0-0.9,0-1.9,0-3c1.8,0.3,1.4,1.3,1.3,2.2C618.3,375.2,617.9,375.4,617.4,375.7z" />
	<path fill="#BFD3D3" d="M563.8,75.6c0.3-0.1,0.6-0.1,0.9-0.2c0.2,1.2,0.6,2.6-0.7,3.6c-0.6-0.6-1.1-1.1-1.6-1.7   C563.9,77.1,563.9,77.1,563.8,75.6z" />
	<path fill="#393E3E" d="M563.8,75.6c0.1,1.6,0.1,1.6-1.4,1.6c0-0.8,0-1.6,0-2.3C562.9,75.2,563.4,75.4,563.8,75.6z" />
	<path fill="#AED6D6" d="M567.9,30.9c0.4,0,0.9,0.1,1.3,0.1c0,0.1,0,0.2,0.1,0.3c-0.4,0.1-0.9,0.2-1.3,0.3   C567.9,31.4,567.9,31.2,567.9,30.9z" />
	<path fill="#B28C7D" d="M643.9,86.5c-1.6,3.7-1.1,8.3-3.1,11.9c-0.2,0-0.3,0-0.6-0.1c-2.1-5-9.7-2.1-12.8,0.6   c-1.3-0.6-2.3-0.4-2.9,1c3.2,3,8.2,6.5,13.1,4.8c0.2,0.1,0.4,0.3,0.8,0.6c-2,6.3-10.3,9.7-15.7,5l0,0c-1.6-2.1-3.7-3.4-6.2-3.9l0,0   c-2-2.9-5.9-3.3-8.6-5.6l0,0c-2.9-2.8-4.7-7-4.7-11c-0.7-1.2-2-2.1-1.6-3.8c1.6-1-0.1-2.2-0.7-3.2c-0.8-5.5,1-2.4,3-4.7   c0.9-0.8,0.3-1.6,0.1-2.7c4.9-10,2.1-17.9,16.1-22.1c1.7,0.9,2.9-1.3,4.7-0.4c1.4,0.7,3.2,0.4,5.3,0.7c3.8-1,3.8-1,6.3-0.2   c4,4.8,6.5,10.5,7.3,16.7c-1.8,1-4.9,0.7-5.1,3.3c1.7-0.2,3.3-0.4,5.2-0.7c0,0.9,0,1.4,0,2c-1.8,0.6-3.8-0.2-5.3,1.1   c-0.4-0.2-0.9-0.3-1.3-0.6c-1.9,1.1-3.1,6.6-0.3,7.1c0-0.9,0.1-1.8,0.1-2.7c0.6-0.1,1.4,0.2,1.2-0.9c0.7,0,1.2,0,1.9,0   c0.4,1.2,1.7,1.4,3,1.9C643.4,82.5,643.7,84.5,643.9,86.5z M639.4,91.1c-1.6-0.6-2.6,0.2-3.8,1.6c1.6-0.2,2.7-0.3,3.8-0.4   c0.6-0.4,1-1,1.4-1.4c-1.1-2.9-0.9-2.6-3.3-4C638.2,88.6,639.5,89.2,639.4,91.1z M626.2,70.9c-2.7-1-5.6-1-8.2,0   c-0.2-0.1-0.3,0-0.6,0.1c-1.2,0.1-2.3,0.6-3.2,1.6c0.6,0.8,1.1,0.3,1.6,0.1c4.8-3.4,13.1,3,14.8,0.1   C629.2,71.8,628,70.8,626.2,70.9z M617.3,79.9c3.7,0.9,7.2,0.6,11,0.1c-0.3-1.3-0.7-2.6-1-3.6c-3.4-3-8.1-1.2-12,0   C616,77.7,616.5,78.7,617.3,79.9z M629.3,88.2c-5,3.6,0.7,6.5,4.5,3.3c-1.8-2.1-3-0.1-4.7,0.3C629.2,90.6,629.3,89.5,629.3,88.2z" />
	<path fill="#977264" d="M610.3,102.3c2.1,1.2,4.8,1.9,6.1,4c-0.3,0.1-0.7,0.1-1.4,0.2c2.8,2.9,6.2,4.5,9.5,6.8   c-0.4,2.8-0.8,5.6-1.2,8.5c-2.2,0.2-4.5,0.6-6.7,0.8c-3-5-8-9.3-11.8-14c0.2,8.5-5.7,15.9-11.7,21.3c-0.3-0.1-0.8-0.1-1.2-0.2   c-0.7-2.3-1.9-4.6-2-7.1c12.2-5.2,10-20.1,11.2-31l0,0c2,3.1,2.4,8.6,7,9.3l0,0C607.6,102,609.6,104.2,610.3,102.3z" />
	<path fill="#92909F" d="M603.2,56c5.7-8.3,18.6-12.6,27.5-7.5c-8.7,1.8-18.2,2-24,9.9C604.9,58.5,603.9,57.5,603.2,56z" />
	<path fill="#8D8690" d="M603.2,56c0.7,1.4,1.7,2.4,3.3,2.4c-2.6,4.8-6.1,9.1-6.7,14.7c-0.3,0.4-0.8,1-1.1,1.3   c-0.7-0.2-1.2-0.3-1.9-0.6C597.4,67.5,599.3,61.4,603.2,56z" />
	<path fill="#32241F" d="M600.9,80.5c-0.7,2.2,2.7,4,0.9,5.5c-0.7-0.2-1.3-0.6-2.4-1c0.4,1.9,1,2.6,0.1,4c-0.2-0.2-0.4-0.6-0.8-0.8   c0.4-2.1-1.4-3.1-2.3-4.8c1.6-1.1,0.2-4.2,3.1-3.9l0,0c-0.4,1.2-2.3,1.9-1.1,3.8c0.4,0,0.9,0.1,1.3,0.1   C599.7,82.3,599.6,81.1,600.9,80.5z" />
	<path fill="#241A17" d="M604.7,98.5c-2.7-1.6-1.9-5-3.8-7c0-0.3,0-0.6-0.1-0.9c0.8-0.3,1.6-0.6,2.3-0.9c-0.2,3.1,1.3,5.9,2.6,8.7   C605.4,98.4,605.1,98.5,604.7,98.5z" />
	<path fill="#352C28" d="M597,74c0.6,0.2,1.2,0.3,1.9,0.6c0.3-0.4,0.7-0.9,1.1-1.3c0.2,1.6-0.2,3.3,1,4.8c-0.4,0.6-1,1.2-1.7,1.7   l0,0c-1-1.4-1.9-3-3.9-3.1C596,75.5,597.2,75.3,597,74z" />
	<path fill="#58443B" d="M596.2,83.5c0.9,1.6,2.8,2.7,2.3,4.8c-2.4-1.3-3.6-3.7-4.7-6.3c1.2-1,0.1-2.9,1.3-4   C595.7,79.7,594.6,82.1,596.2,83.5L596.2,83.5z" />
	<path fill="#8F6C5F" d="M603.3,89.7c-0.8,0.3-1.6,0.6-2.3,0.9c-0.7-0.4-1.1-1-1.6-1.6c0.9-1.4,0.4-2.2-0.1-4c1.1,0.4,1.8,0.7,2.4,1   C601.2,87.6,602.5,88.5,603.3,89.7z" />
	<path fill="#7A6054" d="M595.4,78.7c-0.2-0.8,0-1.4,0.1-2.2c2,0.1,2.9,1.7,3.9,3.1c-2.9-0.4-1.7,2.8-3.1,3.9l0,0   C596.2,81.8,596.5,80.2,595.4,78.7z" />
	<path fill="#7A6054" d="M599.3,79.6c0.7-0.4,1.1-1,1.7-1.7c1,0,2,0,3,0c-0.7,1.7-3.3,0.2-3.1,2.6c-1.2,0.7-1,1.9-1.2,3   c-0.4,0-1-0.1-1.3-0.1C597,81.5,598.8,80.8,599.3,79.6z" />
	<path fill="#241A17" d="M601,91.4c-0.1,2.1,0.1,4.3-0.8,6.3C600.4,95.6,599.3,93,601,91.4z" />
	<path fill="#353333" d="M564.9,42.1c0.4-0.2,0.8-0.4,1.1-0.7C566.5,42.2,565.7,43,564.9,42.1z" />
	<path fill="#241A17" d="M600.1,90c0.2,0.2,0.6,0.4,0.8,0.6C600.6,90.4,600.3,90.2,600.1,90z" />
	<path fill="#EAA388" d="M622.1,317.4c-6.3,43.4-6.6,88.6-23.7,129.8c1.2,29.4-9.9,57.3-9.6,86.8c-3,0.9-6,1.8-9.1,2.7   c-3.1-11.1-3.7-23.8-3.9-35.6c-3.1-19.9-5.1-42.5,2.9-61.4c4.1,6.3,4.9,11.5,5.6,18.9c2-9.3,2-16.2,0.3-25.4   c1.9,1.3,3.4,2.4,5.1,3.6c0.4-0.4,0.7-0.8,1.2-1.3c-2-3.8-4-7.6-6-11.5c0.9-4.9-0.2-9.7,2.4-14.2c0.8-0.2,1.6-0.4,2.3-0.6   c0.7-3.3-3.1-5.2-3.3-8.6c-3.1-9.3-2.7-19.5-3.4-29.2c-0.9-25.7-2.4-51.9,2.8-77.1c24.9,0.2,51.1,6.7,75.3-2.3   c9.2,38.9,5.3,79.3-0.9,118.3c0.2,40.3-1.6,80.6-6.6,120.6c-3.3,0.8-6.5,1.7-7.3,5.2c-1.4,0.7-2.6,0.4-3.7-0.1   c-1-13.2-0.9-26.3-2.2-39.6c-2.8-17.7-12.8-37.6-3.8-54.7c3.2,4.1,4,9.2,7,13.2c1.4-9.8-3.2-18.7-7.8-27   c-2.1-7.9-2.4-16.4-2.3-24.4c1.3,0.2,2,1.9,3.7,1.2c0.3-5.1-0.2-10.1-3.1-14.6c-1-25.1-0.2-51.4-7-75.7c0.6-1.3,2.2-2.1,1.6-4.2   c-1.2,1.3-2.3,2.1-3.1,3.4c0,0.2,0,0.4-0.1,0.7c-0.7,0.6-2,0.4-2.1,1.8V316C622.1,316.1,622.1,316.7,622.1,317.4z M600.1,305   c-0.6-0.9-0.4-0.7-1.8-0.3c1,0.2,1.3,0.2,1.6,0.1c1.8,1.9,6.6,5.8,9.1,5.2C605.6,308.2,603.4,305.7,600.1,305z M596.4,408.7   c-0.3,1.8,0.2,3.2,1.8,4.3c1-1.7,0.2-3.1-0.4-4.5c-0.7-3.9-0.8-7.6-2.9-10.9c-2.7-2.8-6,1.1-2.7,3.9   C593.1,404.1,592.6,408.9,596.4,408.7z M648.7,414.9c-1.4-0.1-2.4,1.1-3,2.3c0.8,3.7,2.1,10.8,6.8,10.7c0.8-3.8-0.3-7.1-0.9-10.8   C650.7,416.5,649.7,415.7,648.7,414.9z M595.8,451c-2,1-4.3,8.5-2.4,10.1C595.8,456.2,596.4,454,595.8,451z M651.9,411.8   c2.8-2.2,5.2-5.2,3.6-8.6C654,406.1,652.4,408.4,651.9,411.8z M604.7,313.9c2.3,1.8,4.2,3.1,7.2,3.6   C609.2,315.1,608.3,314.6,604.7,313.9z M592,462.9c-1.3,1.9-1,3.2-0.1,4.8C593.4,466.1,593.2,464.6,592,462.9z M645.1,463.6   c0.4-2.6,0.3-3-1.9-4.5C643.3,461.1,643.5,462.6,645.1,463.6z M589.6,477.8c1.6-2.3,1.6-2.6,0-3.9   C588.7,475,588.8,476.2,589.6,477.8z M645.7,468.4c-0.3-0.6-0.8-1.1-1.2-1.9C644,468.3,644,468.3,645.7,468.4z M644.8,474   c0.7-0.9,0.8-1.2-0.2-1.6C643.9,472.9,644.4,473.3,644.8,474z" />
	<path fill="#F5DDCE" d="M588.3,169.9c0.6-3.3,0.4-6.3,0.4-9.8c6.7-2,15-6.7,21.8-3.7c15,9.1,47,8.3,31.2-16.5c0.6-0.4,1-1,1.8-1.7   c1.6,1.6,3,2.8,4.5,4.3l0,0c8.3,11.9,18,24.7,19.7,39.2c-5.7,12.9-20.8,3.7-30.9,4.9c-1.3,2.3,0.7,3.6,1.9,5.2   c-0.7,0.1-1.3,0.3-2.2,0.4c2.1,1.6,2.1,1.7,3.7,0.4c1.4,1.2,2.1,3.8,4.9,3.1c4.6,2,10.5-0.8,14.8,1.3c-1.2,0.8-2.4,1.6-3.8,2.4   c-10.1,55.1-12.9,32.2,4.3,89.2c-22.8,9.3-49.6,4.1-73.6,1.9c-0.4-0.4-0.9-0.9-1.6-1.3c1.1-6.6,1.6-15.5,6.7-20.3   c1.7,1.1,1.4,3.2,2.8,4.5l0,0c1.4,4.9,4.5,9.7,8.3,12.9c-0.2-0.1-0.3-0.2-0.6-0.3c0.4-8.6-4.5-16.4-6.8-24.5   c-5.1-12.4-4.3-25.7-4.1-38.7c4.1-26.5,11.6-23.6,32.8-31.8c1.8,0.3,2.6-1,3.2-2.2c1.2-0.9,2.8-1.6,2-3.8   C616.2,185.3,589.6,188.7,588.3,169.9z M641.6,240.4c1.8-1.2,0.6-5.1-0.8-3C641,238.5,640.2,240,641.6,240.4z M627.4,231.3   c-3.3,9.3-2.2,20.1,0,30.2C627.2,250.8,630.3,241.3,627.4,231.3z M650,269.9c-2,3.6-2.9,7-3.3,10.9   C649.5,278,650.6,274.5,650,269.9z M643.7,250.9c0.9-3.1-0.1-5.3-1.7-7.3C642.2,245.9,642.6,248.2,643.7,250.9z M643.1,286.8   c2-0.7,1.9-1.3,1.3-2.7C644,285.1,643.7,285.6,643.1,286.8z M641.5,291.4c0.7-0.6,1.7-0.9,0.7-2.2   C641.7,289.8,640.5,290,641.5,291.4z M642.7,224.9c-0.4-0.3-0.8-0.4-1-0.7C640.7,225.3,641.6,225.9,642.7,224.9z M641.8,230.3   c0.2,0,0.3,0,0.6,0C642.2,228.8,641.8,228.8,641.8,230.3z M642.1,234.6c-0.3-0.1-0.7-0.4-0.9,0   C641.6,235.1,641.8,235.1,642.1,234.6z" />
	<path fill="#D69479" d="M588.5,293.8c-0.9,0.1-1.8,0.1-2.9,0.2c-5.2,25.4-3.7,51.5-2.8,77.1c0.8,9.7,0.3,19.8,3.4,29.2   c0.2,3.3,4,5.2,3.3,8.6c-0.8,0.2-1.6,0.4-2.3,0.6c-2.7,4.6-1.6,9.3-2.4,14.2c2,3.8,4,7.6,6,11.5c-0.4,0.6-0.8,0.9-1.2,1.3   c-1.7-1.2-3.2-2.2-5.1-3.6c1.8,9.1,1.8,16-0.3,25.4c-0.7-7.5-1.4-12.6-5.6-18.9c-8,19-6,41.5-2.9,61.4c0.3,11.8,0.8,24.5,3.9,35.6   c-2.9,2.6-1.1,6.8-4.2,9.2c1-27.8-10.8-54.2-7.8-82c0.6-19.5,12.6-37.2,10-57c-4.7-37.6-20.9-76.4-13.5-114.4   C572.1,292.5,580.8,291.7,588.5,293.8z" />
	<path fill="#E6CCBB" d="M627.6,188.8c-0.8,1.2-1.4,2.6-3.2,2.2c0.1-0.4,0.3-0.9,0.4-1.3c-1.8,0-1.8,0-2.3,1.4   c0.7,0,1.3-0.1,1.9-0.1c-0.9,1.2-2.3,1.2-3.7,1.7c-12.6-2.8-25,4.1-34.8-10.7c1.7,11.6,15.1,12.4,24.6,12.9   c-5,4.7-12.8,4.9-14.8,12.6c-3.8,9.3-4.3,19.1-4,29c-1.9,17.6,10.1,32.6,11,49.5l0,0c-0.8-0.8-1.6-1.6-2.3-2.4   c1.7-1.1,0.7-2.6-1.4-3.4c0,0.3-0.1,0.8-0.1,1.1c-1.8-2.2-3.3-5.1-4-7.9c0.4,0.2,0.9,0.3,1.3,0.6c0.4-1.4,0.1-2.3-1.4-3   c0.1,1,0.1,1.7,0.1,2.4c-1.4-1.2-1.1-3.3-2.8-4.5c-5.1,4.9-5.6,13.7-6.7,20.3c0.6,0.6,1.1,1,1.6,1.3c-7.1-0.9-14.4-0.6-21.5-0.8   c15-37.8,25.9-58.3,5.9-98.6c11.7,0.8,14.2-12.8,17.2-21.5c1.4,18.8,27.9,15.5,41.3,15.1C630.3,187.1,628.8,187.9,627.6,188.8   c-0.3-0.4-0.7-0.9-1.2-1.6C625.9,188.9,626.9,188.7,627.6,188.8z M593.2,267.8c0.2-0.1,0.4-0.1,0.7-0.2c-0.2-0.3-0.3-0.8-0.6-1.1   C592.4,266.8,592.8,267.2,593.2,267.8z" />
	<path fill="#D69479" d="M641.7,451.7c-1.4-3.3-3-6.9-5.2-10.1c-7.6,14.2-1.7,31.9,2.3,46.7c3.3,15.7,2.3,31.7,3.7,47.5   c-0.9,0-1.8-0.1-2.9-0.1c-1.4-15.9-0.9-32.2-5.9-47.6c-3.6-11.2-5.5-22.8-4.5-34.7c0-8.8,4.9-17.4,2.7-26.2   c-7.2-36.6-15.8-73.7-7.7-110.8c-0.6-0.1-0.9-0.1-1.2-0.2c0.1-1.3,1.4-1.2,2.1-1.8c0.4,1,1.1,0.1,1.7,0.2c6.8,24.1,6,50.5,7,75.7   c3,4.3,3.4,9.5,3.1,14.6c-1.7,0.8-2.3-1-3.7-1.2c-0.2,7.9,0.2,16.5,2.3,24.4c3.3,7.1,8.6,13.9,7.6,22.4c-0.4-0.2-0.9-0.3-1.4-0.7   C641.8,450.4,641.7,451.1,641.7,451.7z" />
	<path fill="#F7EFD0" d="M572.7,556c5.6,0.1,7-12.2,8.3-16.9c1.6-1.2,3.9-1.6,6.2-2c2.7,2.6,4.2,6,7.7,7.8   c3.3,11.1,8.6,23.1,16.2,32c2.7,2.3,2.2,5.2,1.2,8.3c-3.9-0.3-7.7-0.7-11.1-1c-6.5,6.3-15.7-0.1-23.7,0.8   c-2.6-3.6,1.2-10.1-4.7-11.2C574.1,567.9,572.8,561.9,572.7,556z M590.8,553.2c-0.6-0.3-1.1-0.6-1.7-0.9c1.6-0.9,6-0.4,5.3-3   c-3.7-2.2-17.7,4-10.2,7.6c-0.3,1.2-1,3.1,1.1,3.1c1.7-3.7,6.1-4.1,9.7-4.7C596.1,552.5,592.4,553.4,590.8,553.2z M596.8,559.7   c-0.3-4.7-10.6,0.6-11.6,3.2c0.3,0.3,0.6,0.7,0.8,0.9C589.6,562.5,593.1,561.1,596.8,559.7z M597.8,563.3   c-2.8-0.2-10.2,1.4-9.3,5.2C595.7,566.2,597,565.6,597.8,563.3z M590.4,571.4c1.9,1.8,8-0.3,9.7-2.2   C598.1,566.8,592,569,590.4,571.4z" />
	<path fill="#F7EFD0" d="M667.5,557c2.1,0.4,2.9,3.6,4.5,5c2.4,5.2,12.6,4.2,10.3,11.5c-6.8-0.8-12.7,2.1-19,3.2   c-8.9,2.3-17.7-9.5-23.6-4.9c-2.8-0.7-5.2-1.2-7.7-1.8c1-9.2-1.2-19.7,4.1-27.9c0.6,1.2,1,2.3,1.6,3.7c6.9,3.6,9.2-6.2,11.6-10.9   c3-1.8,5.8-1.2,8.7,0.3c0.3,3.2,0.7,6.3,1,9.6c-5,0.8-10.8-1.1-13.7,4c0.2,0.3,0.6,0.8,0.9,1.3c3.3-2.2,7.5-3.7,11.2-1.8   c-2.4,0.9-9.6,1.4-7,5.3c4.1-1.4,9.5-4.8,13.5-2.9c-0.1,0.3-0.2,0.8-0.2,0.9c-2.9,1.3-11.9,2.2-8.5,6.8c2.9-2.9,7.1-2.7,10.1-5.1   l0,0C666.4,554.1,667.4,555.6,667.5,557c-2.2-0.2-11,2.4-7.8,5.3C662.2,561.1,667.7,560.4,667.5,557z M670.1,562.9   c-0.8-3.3-4-2.2-6,0.3C666.3,564.8,668,563.3,670.1,562.9z" />
	<path fill="#977264" d="M713.2,159.1c-14,7.1-30.5,8.5-45.7,11c-2.7-4.3-5.7-7.9-7-12.7c10.8,6.2,24.3,1.6,35.3-2.4   c2.1-1,4.9-2.7,7.1-0.8c-1.1,2.6-3.6,3.4-5.6,5.5c7.7,1.2,13.6-7.1,20.9-7.6c0.3,0.3,0.8,0.8,1.1,1.2c-0.4,0.9-0.8,1.7-1.2,2.6   c18.1,0.9,33.8-10.1,51.5-12.6c0.2,0.4,0.4,0.9,0.6,1.4C751.3,149.4,733.5,161,713.2,159.1z M678.2,164.2c-1.7-0.9-2.8-1.9-4.5,0.1   C675.2,164.4,676.2,165.6,678.2,164.2z M683.2,164.3c-0.4-0.7-0.8-1-1.2-1.4c-0.8,0.4-1.6,0.8-2.9,1.4   C680.9,164.3,681.9,164.3,683.2,164.3z M693.5,162.2c0.7-0.9,0.8-1.1-0.2-1.4C692.7,161.1,693.1,161.5,693.5,162.2z M688.9,162.1   c-1.2-0.4-1.6-0.6-1.8-0.7C686.3,162.8,687.4,162.7,688.9,162.1z" />
	<path fill="#EADBB7" d="M636.1,542.1c-5.3,8.2-3.1,18.6-4.1,27.9c2.4,0.6,4.9,1.1,7.7,1.8c5.9-4.6,14.8,7.2,23.6,4.9   c6.5-1.2,12.2-4.1,19-3.2c0.1-1.2,0.2-2.2,0.3-3.2c0.6,2.6,1.1,5,1.7,7.5c-10.8,6.2-26.5,4.7-37.2-1.6c-2.1-1.2-4.1-2-6.7-1.2   c-4.7,0.9-9.5-1.8-14.1-2.9c5.6-10.2,3-21.9,7.9-32.8C635.6,539.6,636.1,540.6,636.1,542.1z M669.8,577.7c1.3,0.9,1.7,1,2.1,0.6   c2.9-2.9,7.1-0.9,10.6-1.9C682.5,572.7,670.3,573.9,669.8,577.7z" />
	<path fill="#E5CBBA" d="M646.6,196.5c-0.6-0.2-1.1-0.4-1.8-0.7c-1.1-1.8-1.8-2-3.1-0.8c-1.2-3-6.9-4.3-5.1-8.5   c10.1-1.2,25.4,8,30.9-4.9c1.4,6.3-1.6,13.2-7.9,15.6c-0.8-1.2-2.3-0.1-3.1-1.2C653.5,196.3,649.3,194.8,646.6,196.5z" />
	<path fill="#E8DAB6" d="M572.7,556c0.2,5.9,1.4,11.9,0.1,17.8c6,1.1,2.2,7.7,4.7,11.2c6.9-0.3,13.6,2.9,20.3,1.8   c0.1,0.9,0.7,1.3,1.4,1.4c0,0.2,0,0.6,0,0.8c-7.5,2.2-15.2-0.1-22.7-1c-1.7-3-0.6-6.3-2.8-9.1c-0.4,1.3-0.7,2.2-1,3.1   c-1.4,0.4-3.1-0.2-4.8-0.3c2.3-8.8,3.7-17,2.6-26.4c0.1-0.1,0.3-0.3,0.8-0.9C571.8,555.1,572.3,555.6,572.7,556z" />
	<path fill="#1B1614" d="M660.5,157.4c0.6,2.6,2.1,4.7,3.2,7c-0.9,0.3-0.7,1.1-0.9,1.7c-3.8-8.1-9.5-15.1-14.2-22.7   c0.3-0.3,0.7-0.8,1-1.1c3.1,3.7,5.5,7.8,8.1,11.8c0.7-1.4,2.2-3.6,3.6-1.4l0,0c-0.9,0.6-1.6,1.2-1.6,2.3   C658.9,156.1,658.9,156.2,660.5,157.4z" />
	<path fill="#191714" d="M665.2,553.2c-3,2.4-7.2,2.3-10.1,5.1c-3.3-4.6,5.6-5.3,8.5-6.8c0-0.1,0.1-0.6,0.2-0.9   C664.8,551.2,665.4,552,665.2,553.2z" />
	<path fill="#97776A" d="M645.1,539.4c-1.2,1.6-2.3,2.9-3.4,4.3c-3.4,0.4-3.3-3-2.6-5.3C641.2,538,643,538.2,645.1,539.4z" />
	<path fill="#D0C0A0" d="M599.3,589.2c0-0.2,0-0.6,0-0.8c1-0.7,1.9-1.3,3.1-2.1c1.9,0.2,4.1,0.4,6.3,0.7c0.2,0.4,0.6,0.9,0.8,1.3   C606.2,589.4,602.7,589,599.3,589.2z" />
	<path fill="#91A28D" d="M657.4,548.2c-1-0.6-2.1-0.7-3.2-0.8c2.2-1,4.7-0.4,7-1c0.1,0.4,0.1,0.7,0.2,1   C660.2,548.2,658.8,548.5,657.4,548.2z" />
	<path fill="#624F46" d="M575.1,552.3c-1.2-1.8-1.2-1.8,0.9-5C576.5,549,576.5,549,575.1,552.3z" />
	<path fill="#9A9E84" d="M609.5,588.3c-0.2-0.4-0.6-0.9-0.8-1.3c1,0,1.9,0,3,0C611.2,588.2,610.4,588.4,609.5,588.3z" />
	<path fill="#E5CBBA" d="M667.5,180.1c-1.1-0.6-0.7-1.6-0.7-2.4C667.6,178.3,667.7,179.2,667.5,180.1z" />
	<path fill="#D69479" d="M622.1,317.4c0-0.7,0-1.4,1-1.3C622.7,316.5,622.3,317,622.1,317.4z" />
	<path fill="#191714" d="M666.1,553.9c-0.3-0.2-0.6-0.4-0.9-0.7C665.4,553.4,665.7,553.7,666.1,553.9z" />
	<path fill="#B28C7D" d="M645.6,121.9c11.2-3.6,22.8-0.8,34.1-4.8c7.7,3.8,15.7,3.4,23.8,4.5c-4.1,2.6-8.2,1-11.8,2.7   c-1.3-0.1-3.9,1.2-4.5-0.6c1.2-1.3,0.8-1.6-0.4-2.3c-5.5,0.6-9.7-1.1-15.4-0.4c3.6,1.9,6.6,1.6,10.2,2.1c-1.7,1.6-4.5-0.1-6.3,0.8   c-6.3,1.6-11.9,6.6-18.1,3.1l0,0c-2.1-2-4.2-1.9-6.1-0.1c-1.4-0.4-2.3,0.6-3.1,1.4c-0.8-0.2-1.3-0.4-1.7-0.6   c-1.3,1.2-2.4,2.2-3.7,3.3c0.6,0.2,1.1,0.6,1.9,0.9c-6.6,2.8-30,18.6-34.7,15c0.3-1,0.6-2.1-0.4-2.9c-1-0.6-0.9-2.3-2.7-2.3   c0.3,1.3,0.7,2.1,0.2,3.3c-14.9,9.8-33,9.9-50.1,7.6c-6.6-19.6,15.8-32.9,31.4-21.1c3.8,2.8,11.5-1.2,15,1.8c0.8,3.3,3.8-0.2,5.3-1   C611.2,118.8,635.3,126.6,645.6,121.9z" />
	<path fill="#B28C7D" d="M660.5,157.4c-1.6-1.2-1.6-1.3-0.8-2.4c1.1-0.3,1.7-1.1,1.6-2.3l0,0c7.8-5.1-2.2-7.3-6.1-3.1   c-2.9-4.2-6.3-7.6-8.8-12.2c30.4,5,30.4,15,65.4,1.7c15.7-6.6,33.3,0.2,49.5-2.6c8.1,0.7,14.5-6.1,22.6-4.8   c0.2,4.3,5.1,1.7,8.2,1.9c5,2,10.9,4.7,16,6.9c-4.9,0.9-11-1.1-16.2-1.2c-0.3-1.4-0.3-1.9-0.4-3.9c-2.1,2.4-3.4,4.1-5.3,6.6   c-2.4-3.7,1.1-8.2-6.3-7.6c-1.4,1.9-2.6,4.5-4.6,6c-0.9-0.2-0.9-0.2-1.4,1.1c3.7,1.9,5.5-2.9,6.9-5.6c0.8,0.3,1.4,0.6,2,0.8   c1.1,2-0.1,3.2-1.4,4.5c0.4,0.4,0.8,0.7,1,0.9c-2.3,3.4-8.5,4.2-10.8,0.6c0-0.1,0-0.3,0-0.4c1-1.1,1.6-2.4,2.2-4.1   c-3.2,0.8-2.8,3.4-3.9,5.6c-17.7,2.4-33.4,13.5-51.5,12.6c0.4-0.9,0.8-1.7,1.2-2.6c-0.3-0.4-0.8-0.9-1.1-1.2   c-7.3,0.4-13.2,8.8-20.9,7.6c2-2,4.5-2.9,5.6-5.5c-2.2-1.8-4.9-0.2-7.1,0.8C684.8,159,671.3,163.6,660.5,157.4z M710.8,142.8   c-2.2,1.6-3.1,2.6-1.3,3.4C709.9,145.4,710.2,144.5,710.8,142.8z M666.6,149.3c0.2-0.3,0.4-0.6,0.7-0.9   C666.6,147.6,665.6,148.8,666.6,149.3z" />
	<path fill="#977264" d="M556.9,152.6c16.9,2.4,35.2,2.2,50.1-7.6c0.1-0.4,0.1-0.8,0.2-1.1c0.8,0.2,1.3,1.8,2.2,0.1   c1,0.8,0.8,1.9,0.4,2.9c4.9,3.4,28-12.2,34.7-15c-0.8-0.3-1.3-0.6-1.9-0.9c1.2-1.1,2.3-2.1,3.7-3.3c0.3,0.1,0.9,0.3,1.7,0.6   c2.8-3.7,3.8,1.2,6.2-2.1c-0.7-0.1-1.1-0.1-1.6-0.2c1-1.3,3.4-0.1,4.7,1c-0.3,0-0.8,0-1.4,0c0.2,1.2,0.3,2.2,0.6,3.4   c-15.4,4.8-26.8,17.4-42.2,23c-1.7,0-3.7,0.3-5.7-0.4c-3.1-0.7-6.2,1.6-9.2,2.3c-6.5,0.1-12.8,3.2-19.1,4.6   c-4.5,1.4-9.1-0.3-13.5,1.7c4.8,3.1,11.6,0.6,16.8-0.3c-0.2,2.3,0.7,4.2,2,6c0.3-0.1,0.8-0.2,1.1-0.4c-0.7,3.9-1.8,7.7-3.8,11.1   c-1.4-2.8-5.1-6.1-8.6-5.8c-0.3,0.6-0.6,1.1-0.8,1.6c1.9,3.8,2.9,7.9,5.5,11.1c-1.1,1.2-2.2,2.6-3.2,3.8c-1.9,0.3-3.7,0.7-5.5,1   C563.6,178.2,558.6,165.5,556.9,152.6z M564.5,160.8c-0.3-0.1-0.7-0.4-0.9,0C563.9,161.3,564.1,161.2,564.5,160.8z" />
	<path fill="#B18B7C" d="M628.3,158.8c-6.6,0.1-9.8-1.1-14.6-3.7c9.5-2.8,17.1-8.7,25.5-13.9c3.2,4.2,4.3,8.9,4.8,13.8   c-1.1,1.2-2.1,2.3-3.3,3.6c-3.1,0.1-6.3,0.2-9.9,0.4c-1.1-2.3-1.4-5.1-4-6.6c-0.1-0.7,0-1.6-1.4-1.2c0.6,0.6,1,0.9,1.4,1.2   C627,154.7,628,156.7,628.3,158.8z" />
	<path fill="#916F61" d="M689.7,128.2c-5.8,3.3-11.8,5-18.6,2.9c4.5-5.1,12.4-5.9,18.5-4.3C689.5,127.2,689.7,127.8,689.7,128.2z" />
	<path fill="#967062" d="M657.3,126.8c6.2,3.6,11.8-1.4,18.1-3.1c1.8-0.9,4.7,0.8,6.3-0.8c1.4-0.3,2.2-0.2,4,0   c-2.6,2.6-5.5,2.1-8.6,2.3C671.4,127.2,661.2,136.5,657.3,126.8z" />
	<path fill="#392421" d="M683.4,122.7c-4.2,0.3-8,0-11.9-1.9c5.6-0.7,9.7,0.9,15,0.4C685.4,121.8,684.4,122.2,683.4,122.7z" />
	<path fill="#221A17" d="M693.5,124.3c3,0.1,6.1-0.4,9,1.1c-0.1,0.8-0.6,1.1-1.3,1.2c-2.3-2.2-5.1,0.6-7.8,0   C691.9,124.9,692.2,126,693.5,124.3L693.5,124.3z" />
	<path fill="#6C5B4F" d="M693.5,126.7c2.7,0.6,5.5-2.2,7.8,0c-3.8,1.2-7.8,0.4-11.7,1.6c0-0.4,0-1,0-1.4   C690.9,126.7,692.2,126.7,693.5,126.7z" />
	<path fill="#312723" d="M626.9,154.1c0-0.2-0.1-0.4-0.1-0.6c0.2,0,0.6-0.1,0.8-0.1c1.3,1,2.1,2.3,2.2,4c-0.6,0.4-1,1-1.6,1.4   C627.9,157.3,627.8,155.5,626.9,154.1z" />
	<path fill="#574E46" d="M704.5,123.5c0.6-0.6,0.8-1,1.2-1.4c0.3,0.4,0.6,0.9,1,1.4C705.9,123.5,705.3,123.5,704.5,123.5z" />
	<path fill="#392421" d="M687.2,121.5c1.2,0.9,1.2,0.9,0.1,2.2C687.2,122.9,687.2,122.1,687.2,121.5z" />
	<path fill="#221A17" d="M691.8,124.2c0.4-0.7,1.1-0.8,1.8-0.6c0,0.2,0,0.4,0,0.7l0,0C693,124.3,692.3,124.2,691.8,124.2z" />
	<path fill="#1B1614" d="M648.6,143.4c-0.2-0.2-0.6-0.6-0.8-0.8C648.1,142.8,648.4,143,648.6,143.4z" />
	<path fill="#1B1614" d="M647.9,142.6c-0.2-0.3-0.6-0.6-0.8-0.9C647.4,141.9,647.6,142.3,647.9,142.6z" />
	<path fill="#B08A7B" d="M578.9,184.8c-2.4-3.2-3.4-7.3-5.5-11.1c0.2-0.4,0.6-1,0.8-1.6c3.6-0.4,6.1,2.9,8.5,5.1   C582.9,179.9,580.5,182.7,578.9,184.8z" />
	<path fill="#A38274" d="M586.7,166.7c-0.3,0.1-0.7,0.2-1.1,0.4c-1.3-1.8-2.2-3.7-2-6c1.1-0.9,2.3-0.9,3.6-0.6   C587.8,162.8,587.3,164.7,586.7,166.7z" />
	<path fill="#967063" d="M786.1,141.6c1.2-1.7,2.4-3.2,3.8-4.7c0.1,0.7,0.2,1.4,0.3,2.3c0.6-0.7,1-1.1,1.4-1.6   c0.1,0.3,0.1,0.8,0.2,1.2c4.9,0.8,10.1,0.6,15,1.9c1.1-0.6,2.8-1.2,3.4,0.6C802.8,144.3,794.3,140.6,786.1,141.6L786.1,141.6z" />
	<path fill="#967062" d="M772.9,143.9c3.8,0.9,6.9,1.1,9.3-2.3c1.4,0.1,0.7,1.9,0.7,2.9c-1.4,0.8-2.9,1.7-4.1,2.3   c-1.6-0.2-2.8-0.4-4.3-0.7C774.1,145.6,773.4,144.8,772.9,143.9z" />
	<path fill="#6B5147" d="M787.7,143.3c1.7,0,3.3,0,5,0c-2,1.8-3.6,2-6.6,0.8C786.7,143.8,787.2,143.5,787.7,143.3z" />
	<path fill="#92766A" d="M812.2,138.4c1,0.4,2,0.9,2.9,1.2c0,1.3-1,1.2-1.7,1.9c-0.9-0.9-1.3-2.4-2.8-2.3   C811.2,138.8,811.7,138.6,812.2,138.4z" />
	<path fill="#453F39" d="M812.2,138.4c-0.4,0.2-1,0.6-1.4,0.8c-1.7-0.6-3.3-1.2-4.9-1.8C808.1,136.8,808.6,136.9,812.2,138.4z" />
	<path fill="#967063" d="M787.7,143.3c-2.4,2.4-3.9-2.3-2.4-4.2c0.2,0.9-0.2,2,0.9,2.6C786,142.7,786.7,143.3,787.7,143.3z" />
	<path fill="#49443D" d="M776.9,140.9c-1,1.1-2,0.7-3.1,0.2c0.4-1.3,0.4-1.3,1.4-1.1C775.4,140.8,776.2,140.8,776.9,140.9z" />
	<path fill="#5F5C53" d="M783.9,132.2c0-0.3-0.1-0.6-0.1-0.9c1.1,0,2.2,0,3.8,0C786.2,132.6,785,132.1,783.9,132.2z" />
	<path fill="#6B5147" d="M787,143.2c-0.9-0.1-0.8-0.9-0.8-1.4c0.3,0,0.6,0,0.9,0.1C787.1,142.2,787,142.7,787,143.2z" />
	<path fill="#B18B7D" d="M593.1,129.8c6.1-5.3,12-12.7,11.7-21.3c3.8,4.7,8.8,9,11.8,14c-4,1.4-8.3,2.7-10.9,6.5   C601.6,130.6,597.2,129.6,593.1,129.8z" />
	<path fill="#B18B7D" d="M603.3,133.1c-3.6-3-11.2,1-15-1.8c8.8,0,14.7,1.4,21.9-3.9c-0.2,1.2-1.9,1.7-1.6,3.1c-1.8-0.1-2,2,0,1.6   c-0.8,0.6-1.6,1.1-2.3,1.7C606.1,131.4,604.5,132.4,603.3,133.1z" />
	<path fill="#DECCBE" d="M582.8,127.4c0.1-2.2,2.6-3.3,4.7-4c0.9,2.1,1.4,4.1,1.9,6.1c-0.4,0.1-0.7,0.1-1,0.2   C586.9,128.2,584.9,127.8,582.8,127.4z" />
	<path fill="#3B2724" d="M582.8,127.4c2,0.4,4,0.9,5.7,2.3c-0.3,0.3-0.7,0.6-1,0.9c-1.9-0.8-3.7-1.4-5.6-2.2   C582.3,128,582.6,127.7,582.8,127.4z" />
	<path fill="#211514" d="M716.4,159c3.4,0,6.8,0,10.2,0C723.8,160.2,719,160.2,716.4,159z" />
	<path fill="#3A2A26" d="M770.6,140.9c0.4-1.4,0.8-2.8,3-3.3c-0.7,1.8-1.2,3-2.2,4.1C771.1,141.5,770.9,141.1,770.6,140.9z" />
	<path fill="#3A2A26" d="M771.4,142.3c0.2,0.3,0.4,0.7,0.6,1C771.9,142.9,771.7,142.6,771.4,142.3z" />
	<path fill="#3A2823" d="M624.4,113.3c-3.2-2.3-6.7-3.8-9.5-6.8c0.8-0.1,1.1-0.1,1.4-0.2c1.8,1.8,3.8,3.3,6.2,3.9l0,0   c1.2,1,2.7,1.6,4.1,2.2C626.1,112.8,625.3,113.1,624.4,113.3z" />
	<path fill="#5E4F48" d="M637,79.7c0,0.9-0.1,1.8-0.1,2.7c-1-0.1-1.3-0.4-1.4-1.2c1-1.3,1-1.8,0-3c0.4-1,0.6-2.2,1.8-2.9   c0.4,0.2,0.9,0.3,1.3,0.6c0,1.2,1.3,1.7,1.6,3c-0.1,0-0.4,0-0.6,0c-0.2-0.2-0.4-0.4-0.7-0.7c-0.1,0.2-0.1,0.4-0.2,0.7   c-0.1,0-0.3,0-0.4,0C637,78.2,637,78.2,637,79.7z" />
	<path fill="#916F62" d="M627.6,102.4c-0.9-0.7-1.3-1.8-2.7-1.9c-0.1,0-0.2-0.4-0.3-0.7c3,0.8,15,2.2,15.6-1.3l0.2-0.1   c0.2,0,0.3,0.1,0.6,0.1c0,0.7-0.1,1.2-0.1,1.9c-1.2,0.6-2.6,0.9-2.1,2.7c-0.2,0.3-0.6,0.7-0.8,1l0,0c-3.4,0.3-6.5-0.7-9.5-2.2   C628.1,101.6,627.8,102.1,627.6,102.4z" />
	<path fill="#2A110F" d="M633.1,103.9c1.6,0,3.1,0,4.6,0.1c0,0.2,0,0.6,0,0.8c-1.8,0.6-3.6,0.8-5.5,0   C632.6,104.4,632.9,104.1,633.1,103.9z" />
	<path fill="#2A110F" d="M637.7,103.9c0.2-0.3,0.6-0.7,0.8-1C638.2,103.3,638,103.6,637.7,103.9z" />
	<path fill="#100C0B" d="M617.3,79.9c-0.8-1.3-1.3-2.3-2-3.4c3.9-1.2,8.5-2.9,12,0c0.3,1,0.7,2.2,1,3.6   C624.4,80.6,620.9,80.9,617.3,79.9z M621.6,78.6c0-0.3-0.1-0.8-0.2-1.3c-2.8,0.1-3.1,1.6-0.4,2.4C621.7,79.5,622.2,79.3,621.6,78.6   z M625.2,77.4c-0.1,0.1-0.3,0.2-0.4,0.3c0.2,0.4,0.6,0.1,0.9,0C625.4,77.6,625.3,77.5,625.2,77.4z" />
	<path fill="#462F29" d="M632.2,100.8c-2.7,0.4-5.1-0.6-7.7-0.9c0.6-1.4,1.6-1.6,2.9-1c2.9-2.4,8.8-4.8,11.9-2.1   c-3.7,0.9-6.8-0.8-10.3,2.1c0.6,0.6,0.9,0.9,0.8,0.7c2.7-0.1,4.6-0.2,6.5-0.3c0,0.2,0,0.4,0,0.7C634.8,100,633.5,99.9,632.2,100.8z   " />
	<path fill="#85695C" d="M636.2,99.3c-1.9,0.1-3.8,0.2-6.5,0.3c0.1,0.1-0.2-0.2-0.8-0.7c3.7-2.8,6.8-1.2,10.3-2.1   c0.3,0.4,0.6,1,0.9,1.4C638.8,99.4,637.8,98.5,636.2,99.3z" />
	<path fill="#201D1A" d="M617.3,70.9c4.2,0.2,9.7-1.2,13.1,1.9c-1.4,2.7-9.1-2.6-13.1-0.9C617.4,71.6,617.3,71.3,617.3,70.9z" />
	<path fill="#42302B" d="M629.3,88.2c-0.1,1.3-0.1,2.4-0.2,3.7c1.7-0.4,2.9-2.4,4.7-0.3C630,94.6,624.3,91.7,629.3,88.2z" />
	<path fill="#977264" d="M622.8,110.3c-2.6-0.7-4.6-2.1-6.2-3.9C619.2,106.8,621.2,108.2,622.8,110.3z" />
	<path fill="#4E3630" d="M633.1,103.9c-0.2,0.2-0.6,0.6-0.8,0.8c-1.8-0.4-3.3-1.2-4.8-2.2C629,100.9,631.3,103.5,633.1,103.9z" />
	<path fill="#4C3A33" d="M639.4,91.1c0.2-1.9-1.1-2.4-1.8-4.3c2.4,1.4,2.2,1.2,3.3,4c-0.4,0.4-0.9,0.9-1.4,1.4   C639.4,91.9,639.4,91.5,639.4,91.1z" />
	<path fill="#391E1B" d="M626.2,70.9c-2.8,0-5.6,0-8.2,0C620.7,69.8,623.4,69.8,626.2,70.9z" />
	<path fill="#1F0F0D" d="M639.4,91.1c0,0.3,0,0.8,0.1,1.1c-1.1,0.1-2.3,0.3-3.8,0.4C636.7,91.3,637.7,90.5,639.4,91.1z" />
	<path fill="#391E1B" d="M617.3,70.9c0,0.3,0,0.7,0,1c-1.1,0.2-2.1,1.7-3.2,0.6C615,71.5,616.1,71,617.3,70.9z" />
	<path fill="#4C3C35" d="M604.7,98.5c0.3,0,0.7,0,1-0.1c0.8,0.8,1.4,1.6,2.2,2.3C606.3,100.9,605.5,99.6,604.7,98.5z" />
	<path fill="#4D3B34" d="M610.3,102.3c-0.7,1.8-2.7-0.3-2.4-1.6C608.8,101.3,609.5,101.9,610.3,102.3z" />
	<path fill="#1F1815" d="M635.5,78.1c1,1.3,1,1.7,0,3C635.5,80.1,635.5,79.1,635.5,78.1z" />
	<path fill="#2B1917" d="M637,79.7c0.1-1.4,0.1-1.4,1.2-0.9C638.5,79.9,637.6,79.5,637,79.7z" />
	<path fill="#977264" d="M623.7,110.9c-0.3-0.2-0.6-0.4-0.9-0.7C623.1,110.4,623.3,110.7,623.7,110.9z" />
	<path fill="#7A6054" d="M601.6,83.5c-0.2-0.3-0.4-0.6-0.7-0.9C601.2,83,601.4,83.3,601.6,83.5z" />
	<path fill="#EBF8F8" d="M638.7,78.8c0.1-0.2,0.1-0.4,0.2-0.7c0.2,0.2,0.4,0.4,0.7,0.7C639.2,78.8,639,78.8,638.7,78.8z" />
	<path fill="#2F221E" d="M595.4,78.7c1.1,1.3,0.8,3.1,0.8,4.8C594.8,82.3,595.5,80.4,595.4,78.7z" />
	<path fill="#D59379" d="M648.7,414.9c1,0.8,2,1.6,2.9,2.2c0.6,3.7,1.6,7,0.9,10.8c-4.7,0.1-6-7-6.8-10.7c0.6-1,1.2-2,2.4-2.3   c-0.2,0.7-0.4,1.3-0.7,2.1c0.4,0,0.7,0,1.2,0.1C648.7,416.3,648.7,415.7,648.7,414.9z" />
	<path fill="#D59378" d="M592.2,401.5c-4.7-5.6,4.8-9.5,5.6,7c-0.8,0.1-1.7,0.1-2.4,0c0.2-3,0-5.8-1.8-8.9   C592.8,400.5,592.5,401,592.2,401.5z" />
	<path fill="#2A1E19" d="M595.8,451c0.6,3,0,5.2-2.4,10.1C591.5,459.4,593.8,452,595.8,451z" />
	<path fill="#33231D" d="M592.2,401.5c0.3-0.6,0.7-1,1.2-1.9c1.8,3,2,5.9,1.8,8.9C592.5,407.8,593.1,403.8,592.2,401.5z" />
	<path fill="#2B1D18" d="M651.9,411.8c0.4-3.3,2.2-5.8,3.6-8.6C657,406.5,654.7,409.7,651.9,411.8z" />
	<path fill="#B37B67" d="M600,304.8c3.6,0.9,5.8,3.4,9.1,5.2C606.4,310.6,601.6,306.7,600,304.8z" />
	<path fill="#1E120F" d="M641.7,451.7c0-0.7,0.1-1.3,0.1-2.2c0.6,0.2,1,0.4,1.4,0.7c0.2,1.4,1.2,2.9,0.2,4.7   C642.4,454.1,642.1,453,641.7,451.7z" />
	<path fill="#744B3F" d="M604.7,313.9c3.6,0.8,4.5,1.2,7.2,3.6C609,317,607.1,315.6,604.7,313.9z" />
	<path fill="#32211B" d="M596.4,408.7c0.4,0,0.9-0.1,1.3-0.1c0.7,1.3,1.4,2.8,0.4,4.5C596.6,411.9,596.1,410.4,596.4,408.7z" />
	<path fill="#52322A" d="M626.8,314.5c-0.6,0-1.2,0.8-1.7-0.2c0.1-0.2,0.1-0.4,0.1-0.7c0.9-1.3,1.9-2.1,3.1-3.4   C629.1,312.4,627.3,313.3,626.8,314.5z" />
	<path fill="#190D0B" d="M592,462.9c1.3,1.8,1.4,3.2-0.1,4.8C590.9,466.1,590.6,464.7,592,462.9z" />
	<path fill="#3E2721" d="M645.1,463.6c-1.7-1-1.9-2.6-1.9-4.5C645.5,460.7,645.6,461.1,645.1,463.6z" />
	<path fill="#3E2B24" d="M589.6,477.8c-0.8-1.6-0.9-2.8,0-3.9C591.2,475.2,591.2,475.4,589.6,477.8z" />
	<path fill="#4F382F" d="M645.7,468.4c-1.7-0.1-1.7-0.1-1.2-1.9C644.9,467.3,645.4,467.9,645.7,468.4z" />
	<path fill="#341D18" d="M648.7,414.9c0,0.8,0,1.4,0,2.2c-0.4,0-0.8,0-1.2-0.1c0.2-0.8,0.4-1.4,0.7-2.1   C648.3,414.9,648.5,414.9,648.7,414.9z" />
	<path fill="#916050" d="M644.8,474c-0.4-0.7-0.9-1.1-0.2-1.6C645.6,472.8,645.5,473,644.8,474z" />
	<path fill="#B37B67" d="M600.1,305c-0.4-0.1-0.8-0.1-1.8-0.3C599.6,304.3,599.6,304.1,600.1,305z" />
	<path fill="#D69479" d="M625.9,312.9c-0.2,0.3-0.4,0.6-0.7,0.9C625.4,313.4,625.7,313.1,625.9,312.9z" />
	<path fill="#0F0C0B" d="M610.3,195c-9.3-0.6-22.9-1.3-24.6-12.9c9.8,14.8,22.3,7.8,34.8,10.7C617.3,194.1,613.8,194.2,610.3,195z" />
	<path fill="#E7CDBC" d="M627.4,231.3c2.9,10-0.1,19.5,0,30.2C625.1,251.4,624.1,240.6,627.4,231.3z" />
	<path fill="#37322E" d="M650,269.9c0.6,4.6-0.6,8.1-3.3,10.9C647,276.9,648,273.5,650,269.9z" />
	<path fill="#1A0808" d="M646.6,196.5c2.4-1.3,8-0.9,10.6,0C653.7,196.5,650.1,196.5,646.6,196.5z" />
	<path fill="#3E3531" d="M643.7,250.9c-1.1-2.7-1.4-5-1.7-7.3C643.6,245.5,644.6,247.8,643.7,250.9z" />
	<path fill="#937E75" d="M638.6,191.8c0.4,0.3,1,0.7,1.4,0.9c-1.6,1.1-1.6,1.1-3.7-0.4C637.2,192,637.9,191.9,638.6,191.8z" />
	<path fill="#75665E" d="M598.6,281.4c0-0.3,0-0.8,0.1-1.1c2.1,0.9,3.1,2.3,1.4,3.4C599.6,282.9,599.1,282.1,598.6,281.4z" />
	<path fill="#75645D" d="M641.8,195c1.3-1.1,2-1,3.1,0.8C643.7,196.1,642.7,195.6,641.8,195z" />
	<path fill="#735D57" d="M640.9,237.4c1.2-2.1,2.6,1.7,0.8,3C641.6,239.4,642.2,237.7,640.9,237.4z" />
	<path fill="#2E1C1A" d="M643.1,286.8c0.6-1.2,0.9-1.8,1.3-2.7C645,285.5,645.1,286.3,643.1,286.8z" />
	<path fill="#412E2B" d="M641.5,291.4c-1-1.2,0.2-1.4,0.7-2.2C643.1,290.5,642,290.8,641.5,291.4z" />
	<path fill="#080A09" d="M640.9,237.4c1.3,0.3,0.8,2,0.8,3C640.2,240,641,238.5,640.9,237.4z" />
	<path fill="#A28880" d="M642.7,224.9c-1,1-2,0.4-1-0.7C641.9,224.4,642.1,224.6,642.7,224.9z" />
	<path fill="#553E3A" d="M641.8,230.3c0-1.4,0.4-1.4,0.6,0C642.1,230.3,641.9,230.3,641.8,230.3z" />
	<path fill="#BF958B" d="M642.1,234.6c-0.3,0.4-0.6,0.4-0.9,0C641.5,234.2,641.7,234.5,642.1,234.6z" />
	<path fill="#E6CCBB" d="M602.4,286.1c0.2,0.1,0.3,0.2,0.6,0.3C602.7,286.3,602.6,286.3,602.4,286.1L602.4,286.1z" />
	<path fill="#393833" d="M624.3,191c-0.6,0-1.2,0.1-1.9,0.1c0.7-1.4,0.7-1.4,2.3-1.4C624.7,190.1,624.4,190.6,624.3,191L624.3,191z" />
	<path fill="#393531" d="M594.6,273.5c0-0.7-0.1-1.4-0.1-2.4c1.7,0.7,1.9,1.6,1.4,3C595.5,273.8,595.1,273.7,594.6,273.5   L594.6,273.5z" />
	<path fill="#504943" d="M593.2,267.8c-0.2-0.6-0.8-1,0.1-1.3c0.2,0.3,0.3,0.8,0.6,1.1C593.6,267.7,593.4,267.7,593.2,267.8z" />
	<path fill="#B9A194" d="M627.6,188.8c-0.7-0.1-1.7,0.1-1.2-1.6C626.9,187.9,627.2,188.3,627.6,188.8L627.6,188.8z" />
	<path fill="#181411" d="M583.6,556.2c-6.1-3,7.9-9.1,10.9-6.9C594.2,553.4,584.9,551,583.6,556.2z" />
	<path fill="#181310" d="M590.8,553.2c1.6,0.2,5.2-0.7,4.3,2.1c-3.6,0.7-8,1-9.7,4.7C580.4,558,588.5,553.8,590.8,553.2z" />
	<path fill="#161311" d="M596.8,559.7c-3.8,1.4-7.2,2.8-10.8,4.1c-0.2-0.2-0.4-0.6-0.8-0.9C586.3,560.2,596.5,555,596.8,559.7z" />
	<path fill="#120E0C" d="M597.8,563.3c-0.8,2.2-2.1,2.9-9.3,5.2C587.6,564.8,595,563.1,597.8,563.3z" />
	<path fill="#1E1714" d="M590.4,571.4c1.6-2.3,7.7-4.6,9.7-2.2C598.4,571,592.3,573.1,590.4,571.4z" />
	<path fill="#BABBA3" d="M590.8,553.2c-2.3,1-4.8,1.8-6.5,3.7c-0.2-0.2-0.4-0.4-0.7-0.7c1.1-2.2,3-3.6,5.5-3.9   C589.7,552.7,590.3,553,590.8,553.2z" />
	<path fill="#181310" d="M667.5,557c0.2,3.6-5.5,4.1-7.8,5.3C656.5,559.4,665.3,556.8,667.5,557L667.5,557z" />
	<path fill="#2E2823" d="M670.1,562.9c-2.1,0.6-3.9,2-6,0.3C666.1,560.6,669.3,559.6,670.1,562.9z" />
	<path fill="#0E0303" d="M678.2,164.2c-1.9,1.4-2.9,0.2-4.5,0.1C675.3,162.4,676.5,163.4,678.2,164.2z" />
	<path fill="#27231F" d="M683.2,164.3c-1.3,0-2.3,0-4.1,0c1.4-0.7,2.1-1.1,2.9-1.4C682.4,163.3,682.8,163.6,683.2,164.3z" />
	<path fill="#6B5147" d="M693.5,162.2c-0.4-0.7-0.9-1.1-0.2-1.4C694.3,161,694.2,161.3,693.5,162.2z" />
	<path fill="#614940" d="M688.9,162.1c-1.4,0.6-2.6,0.8-1.8-0.7C687.3,161.5,687.7,161.6,688.9,162.1z" />
	<path fill="#231915" d="M669.8,577.7c0.6-3.8,12.7-5,12.6-1.3c-3.4,1-7.7-1-10.6,1.9C671.4,578.7,671.2,578.6,669.8,577.7z" />
	<path fill="#8D6A5D" d="M655.2,149.5c2.2-1.8,6.6-4,8.7-0.8c-1,0.7-2.3,0.3-2.3,2c0.4,0.1,0.9,0.2,1.3,0.3l0.2,0.2   c-0.6,0.4-1.1,1-1.7,1.4c-1.2-2.1-2.8,0-3.6,1.4C656.5,152.7,655.8,151.1,655.2,149.5z" />
	<path fill="#8D6A5D" d="M661.3,152.6c0.1,1.2-0.4,2-1.6,2.3C659.8,153.8,660.4,153.2,661.3,152.6z" />
	<path fill="#382622" d="M603.3,133.1c1.2-0.9,2.8-1.8,3.1,0.6C605,134.5,603.7,135.5,603.3,133.1z" />
	<path fill="#372925" d="M609.4,144c-0.8,1.7-1.4,0-2.2-0.1c-0.1-0.7-0.3-1.3-0.6-2.2C608.5,141.7,608.4,143.5,609.4,144z" />
	<path fill="#2C1E1B" d="M652.7,125.8c0.4,0.1,0.9,0.1,1.6,0.2c-1.6,1.7-1.6,1.7-3,0.8C651.7,126.5,652.2,126.1,652.7,125.8z" />
	<path fill="#3B2824" d="M608.8,132.1c-1.9,0.4-1.8-1.7,0-1.6C608.8,131.1,608.8,131.6,608.8,132.1z" />
	<path fill="#52413A" d="M710.8,142.8c-0.7,1.7-1,2.6-1.3,3.4C707.8,145.3,708.6,144.4,710.8,142.8z" />
	<path fill="#2E1F1C" d="M791.7,137.7c-0.4,0.4-0.8,0.9-1.4,1.6c-0.1-0.9-0.2-1.7-0.3-2.3c0.3-0.4,0.8-0.9,1.6-1.9   C791.6,136.4,791.7,137,791.7,137.7z" />
	<path fill="#46312C" d="M666.6,149.3c-1-0.4,0-1.7,0.7-0.9C667.1,148.7,666.8,148.9,666.6,149.3z" />
	<path fill="#8D6A5D" d="M663.8,148.6c0.9,0.6,0.8,1.2,0,1.8l-0.1-0.1c0-0.4-0.1-0.9-0.1-1.4C663.5,148.8,663.8,148.6,663.8,148.6z" />
	<path fill="#8D6A5D" d="M663.8,150.4c-0.2,0.2-0.6,0.4-0.8,0.7l-0.2-0.2c0.3-0.2,0.6-0.4,0.9-0.7L663.8,150.4z" />
	<path fill="#4A302B" d="M564.5,160.8c-0.3,0.3-0.6,0.4-0.9,0C563.9,160.4,564.1,160.7,564.5,160.8z" />
	<path fill="#7D6056" d="M626.8,152.6c-0.4-0.3-0.9-0.8-1.4-1.2C626.9,150.9,626.7,151.9,626.8,152.6L626.8,152.6z" />
	<path fill="#7D6056" d="M626.9,154.1c0.2,0.3,0.3,0.7,0.6,1C627.2,154.7,627.1,154.4,626.9,154.1z" />
	<path fill="#7D6056" d="M627.6,153.4c-0.2,0-0.4,0.1-0.8,0.1c0-0.2-0.1-0.6-0.1-0.8l0,0C627.1,152.8,627.3,153.1,627.6,153.4z" />
	<path fill="#1A0F0E" d="M636.2,99.3c0.4-0.1,1.1-0.6,1.3-0.4c1,0.6,1.7-0.3,2.4-0.4c0.4,2.1-2.4,1.7-3.8,1.4   C636.2,99.8,636.2,99.5,636.2,99.3z" />
	<path fill="#3E3835" d="M636.2,100c0.2,0,0.6,0.1,0.8,0.1c-1.4,0.9-3.1,0.7-4.8,0.7C633.5,99.9,634.8,100,636.2,100z" />
	<path fill="#C6D2D2" d="M621.2,79.5l-0.3,0.1c-2.7-0.9-2.3-2.2,0.4-2.4C621.6,78.3,621.6,78.7,621.2,79.5z" />
	<path fill="#3A5353" d="M625.2,77.4c0.1,0.1,0.2,0.2,0.3,0.3c-0.3,0.1-0.7,0.3-0.9,0C624.9,77.6,625,77.5,625.2,77.4z" />
	<path fill="#B28C7D" d="M619.4,78.9c0.3,0.2,0.7,0.4,1.1,0.6C620.2,79.4,619.9,79.2,619.4,78.9z" />
	<path fill="#B28C7D" d="M621.2,79.5c0.1-0.3,0.2-0.6,0.2-0.9C622,79.1,622.1,79.5,621.2,79.5z" />
	<path fill="#040303" d="M663.7,150.3c-0.3,0.2-0.6,0.4-0.9,0.7c-0.4-0.1-0.9-0.2-1.3-0.3c0-1.3,1-1.6,2.1-1.8   C663.6,149.3,663.6,149.8,663.7,150.3z" />
</g>
<g id="a">
	<path d="M191.8,101.5c-0.1-0.6-0.2-1-0.3-1.8c-1.2-0.3-2.6-0.6-3.9-0.9c-0.3,0.8-0.7,1.4-1.1,2.3c-2-2.1-3.8-3.8-6.7-1.7   c-0.8-0.8-1.4-1.6-2.1-2.2c-3.5,1.8-4.2-1.3-6.1-3.6c-0.6,0.7-1,1.1-1.6,1.7c-4-2-6.5-5.9-7.9-10.3c0.1-0.1,0.2-0.2,0.4-0.4   c-0.1,0.1-0.2,0.3-0.3,0.4c-7-0.7-4-8.5-4.1-13.2c-0.7,0.6-1.1,1-1.6,1.3c-0.2-0.1-0.4-0.1-0.7,0c-1.2-1.4-0.2-3.6-1.3-5.1   c0.1-1.4,1-3.6,1.1-5.1c-0.9-1.1-1.3,0.2-2.2,0.4c-2.6-2.7,0.3-7.1-0.6-10.1c-3.1-4.3,2.1-8,2.9-11.9c0.1-1.8,1.1-2.9,1.7-4.2   c1-0.4,1.7-1,1.3-2.3c-0.9,0.6-1.6,1.1-2.2,1.6c-1.8-1.6,1.1-3.7,1.7-5.5c1.3-0.6,2.9-1.1,4.8-1.9c-1.1-0.2-1.8-0.3-2.3-0.4   c-0.6-0.8,0-1.2,0.6-1.7c1.9,0.1,4.2-0.1,4.7-2.3c-0.2-0.6-0.6-1.1-0.8-1.7c0.7-0.7,1.4-1.4,1.8-1.8c1.1-0.4,1.7,0.6,2.2-0.2   c0.4-1.6-2.6-1.4-0.9-3.6c2.9-0.6,5.7-1.1,8.4-1.7c1.6-1.9,0.9-4.2,3.8-2.9c3.8,0.4,6.6-4.5,10.8-2.6c2.8-1.9,3.3-1.8,6.4,0.8   c3.9-0.8,7.4-3.3,11.6-2.2c0.1,0.3,0.1,0.8,0.2,1.3c-0.9,0.4-1.9,0.9-3.1,1.4c2.1,0.8,3.6,0.4,4.6-1.2c2.9-0.3,5.8-2.5,8.5-0.6   c-0.9,1.2-2.8,0.6-3.1,2.2c3.8,2.2,12.3-0.3,14,4.3c-0.6,2.2-3.5-0.6-3.3,1.9c4.1-0.7,6.5,3.2,10.1,4.3c0.6,3,3.6,4.8,4.5,8   c-0.3,0.2-0.8,0.4-1.4,0.9c0.3,0.9,0.8,2,1.2,3.1c-0.2,0.4-0.6,1-0.9,1.7c0.6,0.6,1.1,1,1.8,1.8c-0.1,2.1,1.1,4.7-1.2,6.9   c0.2,2.2,1,5.5-2.3,5.8c1.1,2.6-0.6,4.6-0.9,6.9c-0.9,0-1.3,0-2,0.1c0.8,0.8,0.8,2.9-0.2,3.6c-4.9-12-4.7-10.8-16.7-10.4   c-5.7-1.4-10.7,2.3-15,5.6c-5,5.2-2.6,11.8-6.5,16.8c0.2,0.9,0.3,1.4,0.4,2.1c-1,0.3-1.7,0.7-2.5,0.9c-0.6-0.3-1.1-0.6-1.6-0.9   c0.2-1.3-1-1.6-1.6-2.5c3.9-15.9,15-27.8,32.7-25.9c-15.9-10.9-34.4,7.7-34.8,24.2c0.4,0.7,0.7,0.9,1.2,1.1   c-6.7,4.7-3,11.7,2.3,15.8c0.3,6.2,0,12.5-0.8,18.7C191.1,105.9,192.1,103.2,191.8,101.5z M188.2,12.6c0-0.2,0-0.3-0.1-0.6   c-0.6,0.1-1,0.1-1.6,0.2c0,0.2,0,0.3,0.1,0.6C187.2,12.8,187.8,12.6,188.2,12.6z M153.3,51.4c0.2,0.1,0.4,0.3,0.7,0.4   C154.7,50.8,154.3,50.3,153.3,51.4z" />
	<path fill="#010101" d="M261.1,325.9c4.6,28.8-3.9,57.6-5.3,85.9c-1.3,18.5-0.7,36.9-0.8,55.5c0,21.2-5.3,41.7-6,62.7   c1,0.3,2,0.7,3.2,1c1.7,3,1.6,6.2,1.8,10.1c5.6,7.1,9.6,17.3,17.5,22.1c6.8,1.7,8.2,8.9,7.7,15c-12.7,7.7-30.5,5.6-42.7-2.8   c-5,2-17.3,0.2-19.6-5.2c3.3-4.3,4.7-9.5,4.2-14.9c-1-6.2,3.9-11.6,3.5-17.7c1.4-2.3,3.5-1,5.1-0.9c-0.6-11.3-0.8-22.1-1.4-33.1   c-2.3-13.3-7.8-25.9-8.8-39.5c-0.7-11.6,2.8-23.1,3.7-34.7c-2.6-19.2-6.5-38.9-11.6-57.3l0,0c-0.1-0.4-0.2-0.9-0.3-1.2   c-0.1,0-0.2,0-0.3,0c-1.6,12-2.9,24.1-5.7,35.9c-1.2,0.6-0.8,1.7-0.7,2.6c0.1,0.9-1.4,1-0.8,2.2c-1.2-0.6-1.1-2.3-0.9-3.3   c5.8-27.5,7.7-58.5,11-87.3c0.6,0,1,0,1.6,0c1.1,14.7-2.5,29.8-2.2,44.5c4,20.4,8.4,40.7,11.8,61.2c1.1,14.5-6.1,29.2-2.2,43.9   c5.1,20.8,9.9,41.6,9.4,63.3c7.8,4.2,6.8-3.5,14.3-4.6c0.6-20.8,6.4-40.9,5.9-61.9c0.4-17.3-1.4-34.5,1.2-51.7   c1.9-41.5,12-84.3,0.1-125.5c-31.5,10.6-64.9-0.4-97,0.3c-2.6,8-2.2,12.5,3.6,18.5c-0.3,0.3-0.6,0.7-0.9,0.9   c-3.7-3.8-8.7-8.5-10.1-13.6c0.6-1.3-0.4-2.3-0.6-3.2c0.6-0.4,1-0.8,1.1-1c0.6-16.5,2.8-32.4,6.5-48.4c1.7,16.7-6.1,34.2-4.5,51.5   c6-10.5,8.1-24.5,15.4-35c2.9,2.6-8.9,22.5-9.7,28.2c31.5-2,65.2,10.8,95.6-1.3c-16.8-55.3-14-35-4.5-89.4   c17.1-6.9,12.9-21.3,6.7-34.9c0.2-0.3,0.6-0.6,0.8-0.9c1.4,2.2,2.9,4.5,4.6,6.9c0.9-14.5-5.9-31.1-21.7-33.1   c3.9,3.1,6.5,7.5,8.7,11.8c-0.3,0.3-0.6,0.7-0.9,1c-4.9-5.5-8.4-13-15.3-16.3c3.1,7.2,12.9,19.8,2.7,25.2c-0.3-0.1-0.6-0.1-0.9-0.2   v0.1c1-1.3,2-2.7,3.2-4.3c0.1-7.6-4.7-15.4-8.1-22.1c-3.8-1.1-6.6-2.3-9.7-4.3c-0.3,0.4-0.4,0.8-0.8,1.2c-3-5.5-1.2-12.1-0.3-18.1   c0.6,0.1,1,0.2,1.6,0.3c-1.7,4-0.4,8.9-1.1,13.4c40.7,19.2,46.7,13.6,44.4,62.9c-2.5,3,0.9,8.8-1.6,11.8c-0.4-1.4,0.8-4.9-1.1-5.1   c-1.9,3.2-6.1,4.3-8.9,6.4c-11.8,46.6-0.8,50.4,10.5,92.8c0.6,0.3,1.1,0.8,1.8,1.2c0.1,5.3-1.2,10.5-2.3,15.6   c-1.4,1.3-0.4,2.7,0,3.9c0,0.7,0,1.3,0.7,1.6c0.3,0.7,0,1.2-0.2,2c-0.4-0.3-0.8-0.6-1.2-1C260.8,319.3,259.4,323.2,261.1,325.9z    M246.1,255.3c5.7,17.2,11.4,34.3,13.7,52.4c4.3-24.2-15.3-47.4-16.4-71.9C242.4,243.7,244.4,248,246.1,255.3z M257.1,550.2   c0.9-3.5-11.9,1.1-13.5,2.8c-2.7-5.7,7.6-5.3,11.3-6.2c-2.5-2.6-12.5,0.4-15.5,2.1c-3.9-5.5,9.5-4.3,12.5-5.2   c-0.3-3.3-0.2-6.5-1.2-9.4c-3.5-1.8-5.2-1.8-8.5,0c-1.8,4-3,8.6-7.1,11.4c-6.5,1.2-4.2-4.9-7.8-7.2c-4.7,10.9-2.5,22.4-7.8,32.9   c4.9,0.8,9.4,3.8,14.3,2.7c2.2-0.7,4.2-0.1,6.4,1.1c10.9,6.4,26.3,7.9,37.4,1.8c-0.8-3-1.6-5.5-1.6-8.5   C266.9,564.9,262.5,557.4,257.1,550.2L257.1,550.2z M238.4,537.8c-2.3-0.2-4.1-0.4-6.2-0.7c0.1,2.2-1.3,5.9,2.2,5.8   C235.8,541.2,237.3,540.1,238.4,537.8z" />
	<path fill="#020202" d="M202.3,418.3c-1.8,8.5-3.3,17.5-6.9,25.3c-3,3.3-2.3,7.9-2.1,11.9c1,28.6-14.3,57.2-6.6,85.9   c0.7,0.1,1.4,0.2,2.3,0.4c4.1,11.1,8.7,23.3,16.5,32.4c4.6,3.8,2.7,9.5,1.1,14.3c-12.5,3.9-26.4,3.8-39.1,0.3   c-0.4-1.4-0.8-2.8-1.2-4.2c-2.3-0.9-5.1-0.8-7.2-2c-1.1-5,2.6-9.6,2.7-14.6c0.9-5.2-3.2-13.9,3.1-16.3c4.2-30-9.1-59.5-7.2-89.8   c14.9-60.7,11.7-50.6,0.3-111.3c-2-1.2-5-1.7-6.4-4c0.8-1.6,1.7,1.2,2.3-1.7c6.9,7.5,1.3-0.4,6.6,0.8c1.9,35.1,18.9,66.4,2.2,101   c-8.1,33.1,5.7,65.2,5.7,98.4c4.2-9.3,2.3-9.8,13.2-11.8c0.6-17.2,2.2-34.3,6.8-50.9c3.9-11.5,1.7-23.3,2.7-35   c3.8-10.7,7.4-21.4,10.4-32.3C202.3,415.9,202.2,417,202.3,418.3z M168.3,580c-0.1,2.3,0.3,4.7,1.1,7.1c6.8,1.3,40,5.7,36.7-6.5   c0.1-2-0.6-3.6-2.1-4.8c-7.7-8.9-12.7-20.7-16.2-31.9c-3.3-1.8-5-5.3-7.9-8.1c-2,1-4.3,0.9-6,2.3c-1,5.9-2.3,12.4-6.5,16.8   c-1.2-0.3-2.5-0.6-3.7-0.9c-0.1,8.9,0.6,17.8-3.1,26.5c1.8,0.2,3.5,1.2,5,0.7c0.3-0.9,0.7-1.9,1.1-3.2   C167.5,579,167.8,579.6,168.3,580z M167.8,551.1c1.3-2.3,1.3-2.3,0.8-4.3C167.7,547.9,167.1,549.2,167.8,551.1z" />
	<path fill="#030202" d="M157.4,248.2c-3.3-19.6,3-38.9,5.5-58.3c2.3-7.8-0.9-19.1,4.1-25.2c0.4,0.4,0.7,0.8,1.2,1.3   c8-11.6,11.7-26.9,5.5-40c-9.4,6.5-22.4,6.2-28.2,17.2c-6.8,10.9,0.4,24.3-3.9,36c-3.1,14.5-2.6,29.9-5.3,44.1   c-1.3,7.2-4.2,14.3-3.6,21.8c0,21.6,9.8,42.7,7.1,64.2c-4-20.2-6.7-41.3-9.5-62.1c-1.6-10.6,4.3-20.1,5-30.3   c0.1-10.8,0.8-21.4,3.1-32c5.2-17.9-5.3-46.1,18.1-53.6c9.1,0.3,20.4-14.7,26.6-11.5c-0.2,0.4-0.6,0.9-0.9,1.3   c4.7,18.6,18.1,36.8,39.1,35.6c-0.2-0.9-0.4-1.7-0.7-2.5c0.2-0.6-0.1-1.3,0.8-1.6c0.7,1.6,1.4,3,2.1,4.7c3.2,0.2,6.7-1.1,9.7,0   v-0.1c0.1,0.2,0.1,0.4,0,0.8c-25.1,7.7-48.8-12.3-52.9-36.7c-2.2,0.4-3.7,1.7-5,3.5c7.4,15.3,2.7,34.3-9.1,46   c-5.5,28.9,15.8,49.6,6.5,77c-0.4-16.5-0.4-35.1-8.5-50.3C158.9,214.3,159.4,231.2,157.4,248.2z" />
	<path fill="#060505" d="M261.1,198.5c2.5-3-0.9-8.8,1.6-11.8c-1.4,17.9,5.8,34.7,7.9,52c2.2,17.9,0.3,36,0.9,53.9   c-0.3,0.3-0.6,0.7-0.9,1c-3.1-17.5,0.1-35.4-2.2-52.9C267.1,226.4,260.9,213.1,261.1,198.5z" />
	<path fill="#110D0C" d="M265,334.5c1.2-2.6,2.8-5.3,4.7-7.4c-0.1-2.2,0.7-5.1-2.1-5.1c-1.1-2.3-1.8-6.6,1.8-7c1,1,1.8,2,2.8,3.1   c0.8,3.6,1.8,7.1,1.6,11c-0.8,0.3-0.9,1-0.7,1.7c-0.1,0.2-0.1,0.4-0.1,0.8c-1.4,1.7-2.1,3.7-2.5,6.5c3.5-3.2,3.1-7.7,7.2-9.6   C277.7,335.3,264.5,350.4,265,334.5z M268.4,318c0.9,1.7,1.8,3.3,2.9,5.6c0.1-1.8,0.2-3.1-0.3-4.8c-0.4-0.3-1.3-1.1-2-1.3   C268.7,317.6,268.6,317.8,268.4,318z M270.9,329.9c-1.6,1.9-3.2,3.9-4.9,5.9c0.6,0.9,1.8,1.6,1,3c-0.1,0.1,0.4,0.7,0.9,1.4   c0.4-4.3,2.2-7.6,4.2-10.5c0-1.3-0.1-2.2-1.6-3C270.7,327.9,270.8,328.6,270.9,329.9z" />
	<path fill="#12100F" d="M138.3,300c1.8,1.8,0.3,5.3,0.9,7.8c2.5,5.2-1.6,12.7,2.2,17.4c0.8,2.8,3.5,4.7,4,7.8   c-0.2,2.3-0.1,4.9,1.2,6.8c1.6,1.4,4.6,6.6,6.5,3.5c0.3,0.6,0.6,1,0.9,1.6c-0.7,2.9-1.6,0.1-2.3,1.7   C135.6,336.7,138.6,316.1,138.3,300z M143.5,334.2c0.1-2,0.1-2-1.1-3.7C142.5,332.4,142.5,332.4,143.5,334.2z" />
	<path fill="#1C1817" d="M277.7,328.3c-0.6,0.2-1.1,0.6-1.7,0.8c0.4-4.6,0.8-9.3,1.2-13.9c-3.2-6.8-7.4-13.6-6.7-21.4   c0.3-0.3,0.6-0.7,0.9-1c1.6,8.4,4.7,16.3,8.5,23.9C278.2,320.5,278.1,324.4,277.7,328.3z" />
	<path fill="#3C2D29" d="M236.8,90c-0.7,4.7-1.9,9.1-4,13.4c-0.2,0-0.6,0-0.8,0c-0.2-0.7-0.7-0.8-1.2-0.4c-2,0.8-5.7,1.2-6.7-1.1   c2.2,0,4.5,0,6.7,0c0.4-1,0.8-1.8,1.4-3.1c-5.5-0.1-9.7,0.7-14.8-0.3c0.8-0.7,1.1-1.2,1.4-1.2c4.5-0.6,8.5-5.2,13.3-2.5   c-3.1,2-7.1-0.4-10.3,3.2c3-0.2,5.5,0.3,7.9-0.7c1.1-0.2,3.1-0.6,3.9,0.7c-0.9,1.1-1.1,0.9,0,2.7c0-1.4,0-2,0-2.7   c1.6-2.1,1.3-5.9,2.5-8.6c0.2,0,0.3,0,0.6,0C236.6,89.4,236.7,89.7,236.8,90z" />
	<path fill="#181211" d="M238.2,67.9c0.1,1.9,0.3,3.8,0.4,5.8c0.2,0.2,0.6,0.6,1,1.1c-0.7,1.1-1.3,2.2-2,3.5c-0.6,0.2-1,0.4-1.6,0.7   c-1.1-0.6-2.1-1.1-3.2-1.6v0.1c0-1.3-0.4-2.6-0.8-3.8c1.7-0.7,3.3-0.9,5-0.4c0.3-0.9,0.2-1.2-0.1-1.9c-1.9-0.8-3.7,1-5.7-0.2   C233.1,68.3,235.7,69,238.2,67.9z M235.7,75.4l-0.2-0.1v0.2L235.7,75.4z" />
	<path fill="#322C29" d="M267.5,321.9c1.1,0.1,2,0.4,2.1,1.8c-1.4,2.2-1.4,4.9-4.3,6c-2.1-4.2-2.1-7.2-4.3-11.9c0,3.3,0,5.8,0,8.2   c-1.7-2.8-0.2-6.6-0.7-10c0.4,0.3,0.8,0.6,1.2,1c0.1-0.4,0.2-0.9,0.3-1.3c2.2,3.5,1.8,7.6,4.3,10.9   C267.8,325.1,267.2,323.5,267.5,321.9z" />
	<path fill="#201817" d="M183.3,120c-0.2-0.9-1-0.8-1.6-0.9c7.6-2.1,9-10.7,10-17.6c0.4,1.8-0.7,4.5,0.9,5.8   C191.5,112.4,189,118.7,183.3,120z" />
	<path fill="#4E4645" d="M231.9,103.2c0.2,0,0.6,0,0.8,0c-1.4,6.2-7.2,8.7-13.2,8.7c-0.3,0.6-0.7,1.1-1,1.6c-0.4-1.2,0-2.2,0.7-3.1   C225.2,111,229.4,108.5,231.9,103.2z" />
	<path fill="#474341" d="M236,78.8c0.6-0.2,1-0.4,1.6-0.7c0.3,3.6,1.6,8-1,11c-0.2,0-0.3,0-0.6,0C236.8,85.8,236.8,82.3,236,78.8z" />
	<path fill="#383230" d="M238.2,67.9c-0.6,0.2-1.1,0.4-1.7,0.6c0.6-2.6-1.1-4.6-1.2-7c1-0.6,0.3-1.6,0.7-2.3   C237.2,61.8,237.4,65.1,238.2,67.9z" />
	<path fill="#1E1A18" d="M202.3,418.3c0-1.2,0-2.5-0.9-3.5c0.4-1.9,0.9-3.8,1.4-5.7c0.3,0.9-0.2,2.1,1,2.7   C203.3,414,202.7,416.1,202.3,418.3z" />
	<path fill="#6C544A" d="M267.4,328.4c1-1.4,1.2-3.3,2.3-4.7c0,1,0,2.1,0,3.5c-0.7,0.8-1.4,1.8-2.2,2.8   C267.4,329.4,267.4,328.9,267.4,328.4z" />
	<path fill="#322E2E" d="M165,23c0.2,0.6,0.6,1.1,0.8,1.7c-1.6,0.1-2.2,0.8-3.7,1.7c-0.1-0.8-0.2-1.2-0.3-1.7   C162.9,24.1,164,23.6,165,23z" />
	<path fill="#C8C9C9" d="M161.9,24.7c0.1,0.4,0.1,0.9,0.3,1.7c1.4-0.9,2.1-1.7,3.7-1.7c-0.4,2.2-2.8,2.6-4.7,2.3   C161.4,26.1,160.8,25.1,161.9,24.7z" />
	<path fill="#C3C6C6" d="M210.9,10.5c-1,1.6-2.5,2-4.6,1.2c1.2-0.6,2.1-1,3.1-1.4c-0.1-0.6-0.1-0.9-0.2-1.3   C209.6,9.5,210.2,10,210.9,10.5z" />
	<path fill="#828484" d="M156.5,36.4c0.7-0.4,1.3-1,2.2-1.6c0.2,1.3-0.4,2-1.3,2.3C157,36.9,156.7,36.7,156.5,36.4z" />
	<path fill="#654F46" d="M265,334.5c0,1,0,2.1,0,3.1C264,336.4,264,336.3,265,334.5z" />
	<path fill="#BBC4C4" d="M211.6,372.3c0.9,0.7,0.8,1.6,0.7,2.5C211.2,374.2,211.4,373.2,211.6,372.3z" />
	<path fill="#1E1A18" d="M204.6,409.5c-0.1-1-0.6-2,0.7-2.6C205.1,407.8,204.8,408.7,204.6,409.5z" />
	<path fill="#432222" d="M155.7,73.5c0.2-0.1,0.4-0.1,0.7,0c0,0.6,0,1.2,0,1.9C155,74.8,155.8,74,155.7,73.5z" />
	<path fill="#1E1A18" d="M203.8,411.9c-0.2-0.7-0.2-1.3,0.7-1.7C204.3,410.7,204.1,411.3,203.8,411.9z" />
	<path fill="#BBC4C4" d="M210.9,372.4c0-0.4,0.1-0.9,0.1-1.3c0.1,0,0.2,0,0.3,0c0.1,0.4,0.2,0.9,0.3,1.2   C211.4,372.4,211.1,372.4,210.9,372.4z" />
	<path fill="#B28C7D" d="M236.6,89.2c0.2-0.2,0.6-0.6,0.8-0.8c-0.2,0.6-0.3,1-0.6,1.6C236.7,89.7,236.6,89.4,236.6,89.2z" />
	<path fill="#383230" d="M235.9,58.4c-0.1-0.2-0.3-0.3-0.4-0.6c0.2,0,0.4-0.1,0.7-0.1C236.3,58.1,236.2,58.3,235.9,58.4z" />
	<path fill="#B28C7D" d="M235.3,61.6c0.1,2.3,1.8,4.5,1.2,7c-2,0.1-3.8,0.4-5.2,2.3c2,1.2,3.8-0.6,5.7,0.2c0.3,0.7,0.6,1,0.1,1.9   c-4.9-1.1-12.1,2-7.6,7.8c0.1-1.3,0.2-2,0.2-2.6c1.1-0.2,2.6,0.2,3.1-1c1.1,0.6,2.1,1.1,3.2,1.6c1.6,5.9-0.3,11.6-1.8,17.3   c-5.1-4.9-11.9-0.7-16.8,2.1c1.2,0.2,2,0.3,2.7,0.6c-0.4,2,2.1,3.3,4,3l0,0c1,2.3,4.7,1.9,6.7,1.1c0.6-0.3,1-0.2,1.2,0.4   c-8.5,15.9-21,0.6-31.4-4.8l0,0c-4.5-5-4.3-11.7-6.5-17.3c-0.1-1.7,0.2-3.2,0.9-4.7c0.7-0.3,1.4-0.6,2.5-0.9   c-0.1-0.7-0.2-1.2-0.4-2.1c3.9-4.9,1.4-11.6,6.5-16.8c4.3-3.2,9.3-7,15-5.6C230.6,50.8,230.4,49.5,235.3,61.6z M225,90.1   c0.6-0.1,1.1-0.3,1.7-0.4c0-0.1-0.1-0.2-0.1-0.4c-1.8-0.1-2.9,0-4.8,0.7c0.2-1.4,0.3-2.6,0.6-3.8c-1.6,0.8-1.9,2-2,3.2   c0.9,1.7,2.3,2,4,2C224.7,91,224.8,90.5,225,90.1z M210.9,68.8c-1.2,0.6-3,0.4-3.9,2.1c2,0.4,3.3-0.3,4.7-1.3   c4.3-0.1,7.6,2.1,11.9,1.9C220.7,67.4,215.1,68.8,210.9,68.8z M208.6,74.4c0.4,5.7,8.2,4.9,12.3,3.3c-0.1-1-0.3-1.9-0.4-3   C216.5,71.9,212.5,73.7,208.6,74.4z M229,90.8c6.1,0.9,5-3.8,1.6-6.8c-0.7,2.2,1.8,2.9,2,4.7C230.9,88.3,229.7,89,229,90.8z" />
	<path fill="#977264" d="M203.7,100.9c4.3,2.2,9.4,4.2,12.6,7.9c-2.8,0.2-5.6-4.8-7.7-3.2c2.8,2.2,5.7,4.5,9,5.8   c-1.2,4.9-1.3,9.8-0.7,14.8c-7.4-5.6-13.6-11.8-18.7-19.5c-0.1,7.1-6,16.2-11.6,20.5c-0.9,0.6-1.1,1.3-1.2,2.3c-1-2.7-2-5.5-3-8.1   c0.3-0.6,0.6-1,0.9-1.3c11.7-4,9.7-19.8,10.3-29.9c0.3,0,0.8,0.1,0.8,0.1c1.7,3.2,2.1,7.7,6.2,8.5l0,0   C200.5,100.1,202.2,102.4,203.7,100.9z" />
	<path fill="#918F9D" d="M196.6,53.7c6.1-8.2,19.5-12.9,28-6.2c-10.3-0.9-18.7,3.1-26.2,9.3c-0.9-0.7-1.7-1.3-2.6-2.1   C196,54.2,196.3,54,196.6,53.7z" />
	<path fill="#8C858F" d="M195.8,54.5c0.9,0.7,1.7,1.3,2.6,2.1c0.4-0.2,1-0.3,1.4-0.6c-3.5,5.5-6,11.1-7.9,17.2   c-0.8-0.6-1.6-0.8-2.1-1.8C190.8,65.7,191.9,59.6,195.8,54.5z" />
	<path fill="#543F38" d="M191,86.1c-2.2-1.2-2.9-3.6-3.8-5.3c0.6-2.2,0.1-4.2,1.4-5.8c0.3,1.8,1.1,3.6,2.5,4.8c0,0.6,0,1.1,0.1,1.6   c-0.4,0.4-0.8,0.9-1.3,1.2c0.6,0.3,0.9,0.8,1.3,1.2C191.2,84.5,191.8,85.3,191,86.1z" />
	<path fill="#291D19" d="M196.6,95.4c-0.7-1.7-1.4-3.3-2.2-5.2c-0.1,0-0.4,0-0.8-0.1c0-0.6-0.1-1.1-0.1-1.6c0.8-0.3,1.6-0.7,2.5-0.9   c0.2,0.3,0.7,0.7,0.7,0.9C195.7,90.8,198.8,93.9,196.6,95.4z" />
	<path fill="#88675B" d="M195.8,87.5c-0.8,0.3-1.6,0.7-2.5,0.9c-0.4-0.6-0.9-1.1-1.3-1.7c1.6-0.9,0.1-2.7-0.1-3.9   c1,0.2,2.1,0.6,3.1,0.8C194.9,85.1,194.9,86.4,195.8,87.5z" />
	<path fill="#382C27" d="M191,79.6c-0.2-0.3-0.6-0.6-0.8-0.9c0.4-0.6,0.9-1.2,1.3-1.8c-0.7-0.9-1.4-1.8-2.1-2.7   c0.4-0.6,1-1.1,1.4-1.7c1,0.9,2.5,1.7,2.5,3.1c-1.2,0.4-0.3,1.2-0.2,1.8C192.4,78.3,191.7,79,191,79.6z" />
	<path fill="#886D61" d="M191,79.6c0.7-0.7,1.3-1.3,2.1-2.1c0-0.6-0.9-1.3,0.2-1.8c0.6,0.3,1.1,0.6,1.6,0.9   c-0.3,0.8-0.6,1.6-0.9,2.3c-0.3,0-0.8,0.1-1.1,0.1c-0.2,0.7-0.6,1.3-0.8,2c-0.4,0.1-0.8,0.1-1.1,0.1C191,80.7,191,80.2,191,79.6z" />
	<path fill="#896B5E" d="M189.5,74.4c0.7,0.9,1.4,1.8,2.1,2.7c-0.4,0.7-0.9,1.2-1.3,1.8c-0.9-1.2-1.3-2.6-1.7-3.9   C188.9,74.7,189.2,74.5,189.5,74.4z" />
	<path fill="#32241F" d="M191.9,82.9c0.2,1.2,1.7,3,0.1,3.9c-0.3-0.2-0.7-0.4-1-0.7c0.8-0.7,0.2-1.6,0-2.5c-0.2-0.2-0.6-0.6-0.8-0.8   c0-0.2,0-0.6,0-0.8c0.2-0.2,0.6-0.6,0.8-0.8l0,0c0.2,0.2,0.6,0.6,0.8,0.8C191.9,82.4,191.9,82.6,191.9,82.9z" />
	<path fill="#424B4B" d="M188.2,12.6c-0.6,0.1-1,0.1-1.6,0.2c0-0.2,0-0.3-0.1-0.6c0.6-0.1,1-0.1,1.6-0.2   C188.2,12.3,188.2,12.4,188.2,12.6z" />
	<path fill="#434343" d="M153.3,51.4c1-1.1,1.3-0.8,0.7,0.4C153.8,51.8,153.6,51.6,153.3,51.4z" />
	<path fill="#383230" d="M234.9,60.2c-0.2-0.3-0.3-0.7-0.6-1C234.6,59.6,234.8,59.9,234.9,60.2z" />
	<path fill="#8C858F" d="M196.6,53.7c-0.2,0.3-0.4,0.6-0.8,0.9C196,54.2,196.3,54,196.6,53.7z" />
	<path fill="#EAA388" d="M202.7,409.2c-3.1,12.9-7.2,25.5-11.7,38c-1,11.7,1.2,23.5-2.7,35c-4.6,16.6-6.2,33.8-6.8,50.9   c-2.9,0.8-5.7,1.4-8.5,2.2c-0.6-0.2-1.1-0.4-1.6-0.6c-2-14.5-1.9-29-4.6-43c-1-17.8-3.5-35.3,4.6-53.4c1.8,4.3,5,7.8,4.6,13.2   c0.1,1.3-0.7,3,1.1,4.5c2.5-8.7,2.3-15.8-0.3-24.4c2.2,1.3,3.3,3.7,5.9,3.7c0.9-4.6-4.5-8.5-5-13c-0.6-4.8-0.1-11.8,4.5-14.3   c-0.1-2.1-0.1-2.1-1.1-4c-6.6-11.8-4-26-5.9-38.9c0.4-24.4-2-49,3.1-72.9c25,1.9,51,6.6,75.3-1.4c11.9,41.1,1.8,84-0.1,125.5   c-2.7,17.2-0.9,34.4-1.2,51.7c0.4,21-5.3,41-5.9,61.9c-2.7,1.1-6,1.6-7.2,5c-1.2-0.1-2.6-0.2-4-0.3c-0.7-14.7-1.1-29-2.5-43.7   c-4.7-16-10.7-34.3-3.3-50.4c2,2.8,2.5,6.2,5.2,7.9c-0.1,2.2,0.3,4.1,2,6c1.1-18.1-14-32.5-9.7-51.3c0.8,0.3,1.6,0.8,2.3,1.1   c2.6-2.1,0.2-12-1.9-14c0.3-15.3-2-30.2-2.5-45.2c-2-10.1,0.3-21.8-5.3-31c0.7-1.3,2.3-2,2.2-3.8c-2.7,0.3-3.3,3.1-5.2,4.7v-0.1   c-5.7,11.3-3.3,25.6-5.3,38.1c-1.8,16.8-5,33.5-6.7,50.5c-0.8,1-0.7,2.1-0.6,3.3C203.7,407.3,202.8,408.2,202.7,409.2z M202,309.4   c0.3,0.8,0.8,1.6,2,1.3C203.8,309.7,203.1,309.4,202,309.4c-2-2.3-8.1-6.9-11-6.5C194.9,305.1,198.3,308,202,309.4z M187.1,407.1   c2,1.1,2,4,4.2,4.3c0.2-4.7-1.6-9.6-2.8-14.2c-0.7-2.5-4.9-3-4.6,0.2C184.8,400.8,186.4,403.8,187.1,407.1z M242.2,414.1   c-6.6-1.1-1.4,13.9,3.1,12.4c-0.1-3.9,0.7-7.7-1.1-11.3C243.6,414.7,243,414.4,242.2,414.1z M188.3,449.6c-2,3.3-3,6.6-2.6,10.6   C187.6,458.1,191.2,450.7,188.3,449.6z M248.6,402c-1.6,2.7-3.7,5.3-3,8.1C247.9,408.2,250.2,405.2,248.6,402z M198.5,313.1   c1.9,0.9,3.5,2.8,5.7,2.5C202.5,314.1,200.9,312.9,198.5,313.1z M185.1,466.5c0.9-2.5,0.9-2.5-0.2-4.2   C183.5,464.2,183.5,465,185.1,466.5z M238.2,462.7c0.2-3.7,0.3-3.6-2.2-4.8C236.5,459.9,236.6,461.3,238.2,462.7z M182.7,476.2   c1.6-1.8,1.6-2-0.1-3.1C182.1,474,181.9,475,182.7,476.2z M237.7,467.6c0.3-1.6,0.3-1.6-0.9-1.7C237.2,466.6,237.4,467,237.7,467.6   z M237.9,472.1c0.1-0.1,0.2-0.1,0.2-0.2c-0.1-0.1-0.1-0.1-0.2-0.2c-0.1,0.1-0.2,0.2-0.2,0.3C237.7,472,237.8,472.1,237.9,472.1z" />
	<path fill="#F5DDCE" d="M169.8,167.8c8.7-12.6,12.7-28.5,5.8-42.8c1.3-1.8,2.8-3,5-3.5c4.7,43.6,80.1,54.8,51.2,11   c10.4,6,43.9,50.9,19.3,54.7c-7.2,0.4-16.3-4.9-22.2-1.4c0.7,1.3,1.3,2.5,2,3.7c-0.4,0.6-1.8,0-1.8,1.3c3.1,1.4,4.1-1,6.2,2.9   c2.3,1.6,5.1,0.3,7.7,1.4c2.7,0.6,6.7-1,8.7,1l0,0c-0.7-0.1-1.3-0.1-1.6,0.8c-0.4,0.3-0.8,0.7-1.3,1.1   c-9.7,54.4-12.4,34.2,4.5,89.4c-23.6,9.3-50.9,4-75.6,1.4c2-7,1.6-16.8,7.6-21.7c3.2,6.1,4.9,13.4,10.5,17.8   c-1-15.8-11.9-29.8-11.3-45.9c-1.2-14.3-1-35.4,13.6-42.9c2.1,0.4,3.1-1.6,4.2-2.1c1.4-0.6,2.9,0.3,3.7-1c3.8-1.1,8.9-1.2,11.6-4.1   c2.9-0.1,5-3,5.2-6.4c-12.6,1.9-24.7,1.6-36.4-3.3c-3-5-6.2-8.4-12-8l0.2-0.1l-0.2,0.1c-0.6-1.1-1.2-2.1-1.8-3.1   C171.4,168.1,170.8,168.7,169.8,167.8z M220.5,229.4c-4.2,9.1-0.8,19.9-1.1,29.8C222.2,254.9,222.4,235.1,220.5,229.4z    M239.7,279.8c2.2-3.3,5.5-8,2.6-10.7C241.9,272.7,240.1,275.7,239.7,279.8z M235.9,249.2c2.3-2.1,1-4.9-0.8-7.4   C234.8,244.5,236.2,246.5,235.9,249.2z M234.9,239c0.4-1.3,0.7-2.5-0.3-3.8C233.5,236.4,232.6,238.3,234.9,239z M233.7,289.5   c1.6,0.6,1.7-0.4,2-1C235.7,286.7,234.3,288.7,233.7,289.5z M236.9,285.1c1.2-0.4,1.7-1,1-2.2C236.9,283.4,236.4,283.9,236.9,285.1   z M234.4,228.9c0.1,0.1,0.3,0.1,0.4,0.2c0.2-0.3,0.4-0.7,0.7-1c-0.3-0.1-0.6-0.2-0.9-0.3C234.6,228,234.5,228.4,234.4,228.9z    M234.8,223.1c-0.6,0.2-0.4,0.6-0.2,1C235.1,223.8,235.1,223.5,234.8,223.1z M234.7,233.2c0,0.2,0,0.3,0,0.4   c0.1-0.1,0.1-0.1,0.2-0.2C234.9,233.4,234.8,233.3,234.7,233.2z" />
	<path fill="#B28C7D" d="M145.4,333.1c-0.8-2.3-1.7-4.7-3.6-6.4c-0.7-4.2-0.8-9.3,0.3-13.5c-0.3-4.1-1.8-9.6,0.7-13.2   c0-22.3-13.4-58.5-0.7-77.1c2.7,2.7,3.9,7,7.6,7.7c0.1-2.9-1.2-5.5-2.9-7.8c0-0.2,0.1-0.4,0.2-0.7c-7.2-14.6-5-30.8-0.1-47.3   c1,0.2,1.9,0.4,2.8,0.7c2.8-1.8-0.2-4.9-0.4-7.2c-1.8-9.5-4.3-19.1,0.9-28c3.2-9.6,16.5-7.9,23.5-14.2c6.2,13.3,2.6,28.5-5.5,40   c-0.6-0.6-0.9-0.9-1.2-1.3c-5,6.1-1.8,17.4-4.1,25.2c0.4,10.6-5.3,20.1-5.5,30.6c0.6,24.4-6.9,47.4-7.2,71.8   c-0.2,0.1-0.6,0.4-1.1,1c-0.1,8.5,9.8,13,11.8,20.4c-0.6,5.7,1.4,11.3,1.3,16.5c-6-1.6-2.2-10.8-6.8-13.5   c-0.3,7.2,2.6,14.3,2.5,21.3c-0.8-0.2-1.3-0.3-2-0.4c-0.7-3.6-1.1-7.1-3.2-11c-0.6,0.1-1,0.2-1.7,0.2c0.7,3.2,4.9,10.9,0.7,12.5   l0,0c-2.5-4.3-0.8-12.1-7.1-13.4c2.6,4,4.3,7.7,5,12.4c-0.2,0.1-0.3,0.3-0.6,0.6C147.4,337.2,146.4,335.2,145.4,333.1z    M148.7,289.6c-0.6,0.7-1,1-0.3,1.6C149.3,290.9,149.3,290.6,148.7,289.6z M149.1,324.3c0.2-2.1,0.2-2.1-1-1.7   C148.4,323,148.7,323.5,149.1,324.3z" />
	<path fill="#D69479" d="M178.5,292c-5.1,23.9-2.7,48.6-3.1,72.9c1.8,12.9-0.8,27.1,5.9,38.9c1,1.9,1,1.9,1.1,4   c-4.6,2.5-5,9.4-4.5,14.3c0.6,4.6,5.9,8.4,5,13c-2.6,0-3.7-2.3-5.9-3.7c2.7,8.6,2.8,15.7,0.3,24.4c-1.8-1.4-0.9-3.1-1.1-4.5   c0.4-5.2-2.8-8.7-4.6-13.2c-7.9,18.2-5.5,35.6-4.6,53.4c2.7,14,2.6,28.5,4.6,43c0.4,0.1,1,0.3,1.6,0.6c-3.3,2.1-1.8,6.4-4.8,9.6   c0-33.1-13.8-65.3-5.7-98.4c16.7-34.5-0.2-65.9-2.2-101c2.3-4.3-2.3-9.3-0.9-14c1.7-0.7,4.8,0.2,4.6-2.6   c-1.6-7.2,0.1-12.8-3.8-19.8c-5.9-6-6.1-10.5-3.6-18.5C164,290.8,171.5,290,178.5,292z" />
	<path fill="#E6CCBB" d="M187,271c-0.6-1.2-1.1-2.5-1.7-3.8c-6,4.8-5.6,14.7-7.6,21.7c-6.7-0.2-13.3-0.8-20.1-0.1   c35.3-78.6,6.7-54.6,8.8-117.7c1-1.2,2.1-2.3,3.3-3.2c1,0.9,1.6,0.2,2.8,0.2c0.6,1,1.1,2.1,1.8,3.1c-1.7,0.1-1.3,1.7,0.2,2.2   c-0.1-0.8-0.1-1.6-0.2-2.2c5.8-0.3,9,3,12,8c11.7,4.9,23.9,5.2,36.4,3.3c-0.2,3.2-2.2,6.2-5.2,6.4c-0.1-0.4,0.2-1-0.7-1.3   c-0.4,0.3-1,0.7-2.3,1.7c1.7-0.2,2.3-0.2,3-0.3c-0.9,1.1-2.9,2.2-4.6,2.5c0.1-0.4,0.3-0.9,0.4-1.3c-19.2,1.4-26.9,2.1-38.1-14.4   c3.9,14.3,16.9,18.4,30.6,17.3c-0.8,1.3-2.2,0.4-3.7,1c-1.1,0.7-2.1,2.6-4.2,2.1c-14.6,7.4-14.8,28.6-13.6,42.9   c-0.7,16.2,10.3,30.1,11.3,45.9c-1.4-1.1-2.7-1.8-3-3.3c0.3,0,0.7,0,1.2,0c-0.4-1.2-0.6-2.3-2-2.9c0,0.6-0.1,1-0.1,1.4   c-1.9-2.2-3-5-4-7.8c0.4-0.3,0.9-0.2,1.8-0.6c-0.8-0.9-0.6-2.2-2-2.2c-0.1,0.3-0.2,0.8-0.3,1.1L187,271z M186.3,264.9   c-0.2,0-0.3,0-0.6,0C185.8,266.3,186.2,266.3,186.3,264.9z M220,186.4c-0.1-0.2-0.2-0.3-0.4,0C219.7,186.6,219.8,186.6,220,186.4z" />
	<path fill="#B28C7D" d="M270.6,293.7c-0.7,7.8,3.5,14.7,6.7,21.4c-0.9,6.2,0.3,12.8-3.7,17.8c-0.9-0.3-0.7-1.6-0.6-2.2   c2-3.6-0.4-8.9-0.9-12.7c-1-1.1-1.9-2-2.8-3.1c-2,0-2.3,2.5-3.8,3.3c-1.4-3-3.2-5.8-4.3-8.9c1.2-6.6,6.4-29.5-1.4-32   c-3.7-18.5-14.5-35.6-9.1-54.9c1.6,1.9,6.5,3.7,6.7,0.4c2.1,0.2,2.1-3,1.2-4.7c-1.1,1.4-1.1,3-1.2,4.7c-0.2,0-0.6,0-0.8-0.1   c-3.1-3.8-5.9-10.6-3.9-15.5c-0.7-1-1.2-1.9-1.8-2.8c0.1-1.6,0.2-3.1,0.3-4.9c2.8-2,7-3,8.9-6.4c0.6,0,0.7,0,0.8,0.1   c-0.4,16.3,5.7,31.3,7.6,47.3C270.7,258.3,267.5,276.2,270.6,293.7z M259.9,217.3c1.6-0.7,2.1-5.7,0.3-5.8   C259.2,213.9,259.2,214.3,259.9,217.3z" />
	<path fill="#D69479" d="M234.6,448c-2.8-1.7-3.1-5.1-5.2-7.9c-7.4,16-1.3,34.3,3.3,50.4c1.3,14.7,1.8,29,2.5,43.7   c1.4,0.1,2.8,0.2,4,0.3c-1.6,1.6-4.9,0.8-7-0.3c0.6-21.7-4.2-42.5-9.4-63.3c-3.9-14.7,3.3-29.4,2.2-43.9   c-3.1-21.6-9.4-43-11.9-64.8c1-15.8,2.7-33.1,3.1-47.9c0.8-0.9,1.4-1.7,2.2-2.6c0,0.7-0.3,1.4,0.8,1.7c5.8,10.8,4.1,24.4,5.5,36.4   c1,13.2,2.6,26.3,2.3,39.8c2.1,2,4.5,11.9,1.9,14c-0.8-0.3-1.6-0.7-2.3-1.1c-3.8,22.3,9.1,29.1,9.1,45.8   C235.5,448.3,235,448.2,234.6,448z" />
	<path fill="#B28C7D" d="M185.4,129.4c0.1-0.9,0.3-1.8,1.2-2.3c5.6-4.3,11.5-13.4,11.6-20.5c5,8.9,13.7,14,19.9,21.6   c0.3-0.4,0.4-0.8,0.8-1.2c3.1,2,6,3.2,9.7,4.3c3.5,6.7,8.2,14.6,8.1,22.1c-1.2,1.7-2.2,3-3.2,4.3c-3-1.1-6.5,0.2-9.7,0   c-1.4-2.5-1.7-5.9-4.5-7.1c-0.1-0.4-0.1-0.8-0.2-1.4c-0.6,1-0.2,1.2,0.3,1.4c0.2,2.5,1.8,3.9,2.1,6.4   C204.8,157.6,189.6,145.4,185.4,129.4z M189.3,130.3c3.7,1.6,4.2,1.6,6.7,0.7C193.6,129.3,191.5,129,189.3,130.3z M205.8,134   c0.6-0.4,1-0.8,1.7-1.2c-1.6-1-1.6-1-2.9,0.1C204.9,133.2,205.4,133.6,205.8,134z M201.9,132.7c-0.7-1.1-0.7-1.1-2.2-0.7   C200.5,133.1,200.5,133.1,201.9,132.7z" />
	<path fill="#F7EFD0" d="M247.7,547.8c-2.1,0.9-6.6,2.1-4.1,5.2c3.8-3.1,8.2-2.9,12.5-4.2c0.3,0.4,0.7,1,1,1.4l0,0   c-2.1,1.8-12.8,3.1-9.4,7c3.9-1.9,7-3.5,10.9-4.7c0.7,0.8,1.2,1.6,1.9,2.3c-1.7,2.8-8.9,1.7-8.6,5.9c3.6,1.4,7.4-2.7,9.9-4.3   c2.9,6,8.1,8.9,13.9,11.8c0.1,1,0.2,2,0.2,3c-2.9,3.2-8,0-10.9,2.6l0,0c-9.3,2.6-18.5,2.1-26.5-3.9c-1.2-0.7-2.7-1.7-4-0.7   c-3.3,2.3-6.8-0.1-10.8,0.1c4.2-9.3-0.7-20.1,5-28.8c0.7,1.4,1.2,2.8,1.8,4c1.6,1.1,3,0.8,4.3,0.9c4-2.8,5.2-7.4,7.1-11.4   c3.2-1.8,5-1.8,8.5,0c1,2.9,0.9,6.1,1.2,9.4c-3,0.9-16.3-0.1-12.5,5.2C241.9,547.6,245.1,545.6,247.7,547.8z M262.8,561.8   c0.3-3.2-5.3-1.8-5.5,0.8C259.4,563.2,261.3,563.1,262.8,561.8z" />
	<path fill="#977264" d="M250.8,204.6c0.6,0.9,1.1,1.7,1.8,2.8c-2.1,4.9,0.7,11.8,3.9,15.5c-0.8,0.2-0.8,0.9-0.8,1.6   c-1.9,0.2-3.5-0.3-5.1-2c-5.3,19.4,5.6,36.4,9.1,54.9c6.2,1.6,3,11.5,3.7,16.4c-0.7-0.4-1.3-0.9-1.8-1.2   C252.8,254.8,238,245.5,250.8,204.6z M262.5,289c-0.9,0.8-0.9,1.3,0.2,2.3C262.7,290.4,262.6,289.8,262.5,289z" />
	<path fill="#EADCB7" d="M265.1,573.9c2.9-2.6,8,0.7,10.9-2.6c0.4,1.8,0.9,3.5,1.3,5.5c-11.1,6.2-26.5,4.7-37.4-1.8   c-2.1-1.2-4.1-1.8-6.4-1.1c-4.9,1-9.4-1.9-14.3-2.7c5.3-10.5,3.1-22.1,7.8-32.9c1.3,0.4,1.8,1.2,1.7,2.3c-5.7,8.7-0.8,19.5-5,28.8   c4-0.2,7.5,2.2,10.8-0.1c1.3-1,2.8,0,4,0.7C246.6,576,255.9,576.5,265.1,573.9c-0.8,1-1.6,1.9-2.2,2.8c0.7,1.2,1.4,1.2,2.1,0.7   c3.1-3.1,7.5-0.7,10.9-2.1C273.8,572,268.5,574.6,265.1,573.9z" />
	<path fill="#E6CBBB" d="M235.3,193.7c-1.1-0.8-0.9-2.6-2.6-2.3c-1.2-1.1-1.4-1.1-2.9-0.1c-0.3-0.1-0.6-0.3-0.9-0.4   c0.1-1.3,1.3-0.7,1.8-1.3c-0.7-1.2-1.3-2.5-2-3.7c5.9-3.5,15,1.9,22.2,1.4c4-1.4,10.3-3.5,9.5-9.6c2,8.2-0.4,15.2-8.7,18.4   c-0.2-0.9-1-0.8-1.7-0.9c0-0.6,0.1-1.2-0.8-1.2c-3.1,0.3-7.5-1.4-9.9,0.4c-1.1-0.1-2.5,0.6-3.5-0.6c0.4-0.1,1-0.3,1.4-0.4   C236.6,193.2,235.7,192.4,235.3,193.7z" />
	<path fill="#B08B7C" d="M243.1,137c13.7,4.5,18.4,18.9,17.8,32.2c-7.2-10.1-11.8-21.6-19.6-31.2C241.6,137.1,242.4,137.2,243.1,137   z" />
	<path fill="#F0F0F0" d="M255.4,278c2,9.1,7.7,18.9,4.8,28.3c-0.2,0-0.4,0-0.7,0c-1.8-8.8-3.6-17.6-4.9-26.5   C255,279.1,255.2,278.6,255.4,278z" />
	<path fill="#221916" d="M160.5,309.3c3.9,6.9,2.2,12.6,3.8,19.8c0.2,2.8-2.9,1.9-4.6,2.6c-0.1,1.2-0.1,2.5-0.2,3.7   c-1.3-1.3-0.4-2.8-0.6-3.7c0.7-0.9,1.1-1.4,1.4-1.9c0.4,0.1,0.9,0.3,1.7,0.6c0.9-3.2-1.8-6.5-1-10c-0.6-3.5,0.2-6.9-1.6-10.1   C159.8,310,160.1,309.7,160.5,309.3z" />
	<path fill="#D2D4D4" d="M255.4,278c-0.2,0.6-0.6,1.2-0.8,1.8c-3-7.9-6.6-15.6-8.4-23.9c0.2-0.6,0.4-1.1,0.7-1.7   C249.5,262.2,253.2,270,255.4,278z" />
	<path fill="#967164" d="M261.1,309.4c1.2,3.1,2.9,5.9,4.3,8.9c0.2-0.2,0.7-0.6,1.1-1c-0.1,1.7,0.3,3.1,0.9,4.7   c-0.2,1.4,0.2,3.1-1.1,4.7c-2.8-4-2.7-9.5-5.2-13.3C260.6,312,259.7,310.8,261.1,309.4z" />
	<path fill="#1B1916" d="M258.8,552.5c-3.9,1.3-7,2.9-10.9,4.7c-3.5-4,7.2-5.2,9.4-7C258.2,550.6,258.2,551.7,258.8,552.5z" />
	<path fill="#1C1A19" d="M167.4,260.6c1.6-5.2,3.2-10.5,4.8-15.8c0,1.2-0.1,2.3,0.8,3.2c-0.9,5.1-2.3,10.3-4.7,14.8   C168.2,262.1,168.6,261.1,167.4,260.6z" />
	<path fill="#282420" d="M261.9,556.4c-2.6,1.7-6.2,5.7-9.9,4.3c-0.3-4.2,6.9-3.1,8.6-5.9C261,555.4,261.5,556,261.9,556.4z" />
	<path fill="#A48375" d="M238.4,537.8c-1.1,2.3-2.6,3.3-4,5c-3.6,0.2-2.1-3.5-2.2-5.8C234.3,537.3,236,537.6,238.4,537.8z" />
	<path fill="#292320" d="M247.9,147.9c3.1,4.7,5.8,9.5,8.5,14.4c-0.2,0.3-0.6,0.6-0.8,0.9c-2.8-4.8-5.9-9.4-8.5-14.3   C247.3,148.6,247.6,148.3,247.9,147.9z" />
	<path fill="#ACAFAF" d="M244.5,242.6c0.8,3.7,1.6,7.4,2.3,11c-0.2,0.6-0.6,1.1-0.8,1.7c-1-3.9-2.3-7.7-2.5-11.7   C244,243.2,244.2,242.9,244.5,242.6z" />
	<path fill="#3C2924" d="M217.7,111.4c-3.5-1.3-6.2-3.6-9-5.8c2-1.4,4.9,3.5,7.7,3.2c0.6,0.4,1.1,0.9,1.6,1.3   C217.8,110.6,217.8,110.9,217.7,111.4z" />
	<path fill="#2C1E18" d="M216.4,314.3c2.1,1.9-1.4,4.5-0.9,6.9c-0.6,0-1,0-1.6,0C213.9,318.7,214.8,316.1,216.4,314.3L216.4,314.3z" />
	<path fill="#C2C6AC" d="M247.7,547.8c-1-0.9-2.1-0.8-3.3-0.9c3.2-0.3,8-2.5,10.5-0.2C252.3,547.2,250,547.5,247.7,547.8z" />
	<path fill="#737575" d="M244.5,242.6c-0.3,0.3-0.6,0.6-0.9,0.9c-0.9-2.8-0.9-3.2-0.2-7.8C243.8,238.5,244.2,240.6,244.5,242.6z" />
	<path fill="#6D675C" d="M243.1,137c-0.7,0.1-1.6,0-1.8,1c-0.7-0.7-1.4-1.3-2.1-1.9C240.6,136.2,242.1,136,243.1,137z" />
	<path fill="#1E1A18" d="M203.7,406.2c-0.1-1.1-0.2-2.3,0.6-3.3C204.4,404.1,204.9,405.3,203.7,406.2z" />
	<path fill="#EEEFEF" d="M246.1,255.3c0.2-0.6,0.6-1.1,0.8-1.7c0.4,0.8-0.4,1.6-0.6,2.3C246.1,255.7,246.1,255.5,246.1,255.3z" />
	<path fill="#322C29" d="M261.1,313.3c0.8,0.3,0.8,0.9,0.7,1.6C261.1,314.7,261.1,314,261.1,313.3z" />
	<path fill="#B28C7D" d="M259.6,306.3c0.2,0,0.4,0,0.7,0c0.2,0.6,0,1-0.6,1.3C259.4,307.2,259.4,306.8,259.6,306.3z" />
	<path fill="#1E1A18" d="M202.9,408.5c0.2-0.6,0.6-1.1,0.8-1.6C203.7,407.6,203.7,408.3,202.9,408.5z" />
	<path fill="#E6CBBB" d="M250.1,197c0.2-0.9,0.9-0.9,1.6-0.8C251.2,196.4,250.6,196.8,250.1,197z" />
	<path fill="#1B1916" d="M257.1,550.2c-0.3-0.4-0.7-1-1-1.4C257.2,548.7,257.2,549.4,257.1,550.2z" />
	<path fill="#B28C7D" d="M260.4,305.5c0.1-0.3,0.3-0.7,0.4-1C260.8,305,260.6,305.3,260.4,305.5z" />
	<path fill="#B28C7D" d="M234.4,157.7c-0.3,0.2-0.6,0.3-0.9,0.6c0.1-0.2,0.1-0.4,0-0.8C233.8,157.6,234.1,157.6,234.4,157.7z" />
	<path fill="#F7EFD0" d="M167.4,555.1c4-4.5,5.3-10.9,6.5-16.8c1.7-1.4,4-1.2,6-2.3c2.8,2.8,4.6,6.4,7.9,8.1   c3.5,11.3,8.5,23.1,16.2,31.9c2.3,1.7,2.2,4.6,2,7.1c-0.3,0.4-0.8,1-1.1,1.4c-3.7-0.6-7.2-1.2-10.8-1c-6.7,5.6-16,0.9-24,0.3   c-1.1-2.9-1.2-5.7-1.1-8.8c-1-0.9-2-1.8-3.1-2.7c0-5.2,0-10.6,0-15.9C166.5,555.8,166.9,555.4,167.4,555.1z M177,556.5   c0,1-0.4,2.1,1.4,2.8c1.7-5,7-3.2,10.4-5.7c-2.3-2.5-5.2-0.2-7.9-1.8c2.2-0.9,5.1-1,6.9-2.7C185.6,545,169.7,552.1,177,556.5z    M178,563.1c4.6-2,9-2.1,12-4.8C188.2,554.6,178.4,559.2,178,563.1z M191,563.2c-0.1-3.1-12.6,2.3-9.4,4.3   C184.8,566.7,188.7,565.7,191,563.2z M183,570.8c2.2,1,8.7-0.7,9.9-2.8C189.9,566.3,185.2,567.9,183,570.8z" />
	<path fill="#E6D8B4" d="M169.1,580c0.3,1.2,0.7,2.5,1.1,3.7c6.8,0.8,14.4,3.5,20.8,1.8c0,0.4,0,1,0,1.3c2,1.1,3-0.8,4.7-1.4   c2.5,0.7,6.4,0,8.6,1.6c-11.5,2-23.4,2.9-34.9,0.1c-0.9-2.5-1.2-4.8-1.1-7.1C168.5,580,168.7,580,169.1,580z" />
	<path fill="#E6D8B4" d="M169.1,580c-0.2,0-0.6,0-0.8,0c-0.3-0.6-0.7-1-1.3-2c-0.4,1.4-0.8,2.3-1.1,3.2c-1.6,0.6-3.2-0.4-5-0.7   c3.6-8.7,3-17.6,3.1-26.5c1.2,0.3,2.5,0.6,3.7,0.9c-0.4,0.4-0.9,0.9-1.4,1.3c0,5.2,0,10.6,0,15.9c1,0.9,2,1.8,3.1,2.7   C169.1,576.7,169.1,578.4,169.1,580z" />
	<path fill="#17110F" d="M160.4,329.8c-4.8,4,3.3,11,0.2,15.8c-0.4-0.1-0.8-0.1-1.2-0.2c0.4-9.3-4.9-18.7-4.1-28.5   C159.4,319.5,156.9,326.5,160.4,329.8z" />
	<path fill="#16100E" d="M153.5,336.8c-0.4-3.5-1.2-6.6-2.5-9.8c0.6-0.1,1.1-0.2,1.7-0.2c3.7,6.6,2,13,6.5,18.8   c-1.6,0.1-0.2,3.8-1.8,2.5c0.3-1.2-0.1-2.3-0.9-3.2C154.2,342.4,154.6,339.4,153.5,336.8z" />
	<path fill="#221A16" d="M204.3,587.1c-2.1-1.6-6.1-0.9-8.6-1.6c-1.7,0.7-2.7,2.5-4.7,1.4c0-0.3,0-0.9,0-1.3c1-0.7,1.9-1.3,3-2   c3.6-0.1,7.1,0.4,10.8,1c0.3-0.4,0.8-0.9,1.1-1.4C206.2,584.8,205.8,586.2,204.3,587.1z" />
	<path fill="#906C5F" d="M158.9,345.5c-1.2-2.6-3.2-4.8-3.2-7.8c0.6,0.1,1.2,0.3,2,0.4c0.1-0.4,0.2-0.9,0.3-1.3   c1.1,2.7,2.5,5.8,1.3,8.6C159.3,345.4,159.1,345.5,158.9,345.5z" />
	<path fill="#88685B" d="M153.5,336.8c1.2,2.6,0.8,5.6,2.9,7.9c0.8,0.9,1.2,2,0.9,3.2c-2.8-2.2-4.6-5.1-5.6-8.6   C153.6,339.4,153.2,338,153.5,336.8z" />
	<path fill="#856B5F" d="M167.8,551.1c-0.8-1.9-0.1-3.1,0.8-4.3C169.2,548.7,169.2,548.7,167.8,551.1z" />
	<path fill="#977264" d="M146.9,222.7c0.6,0.8,1.1,1.7,1.7,2.5c-1.6,0.6-0.7,2.7-0.9,4c-2.5-1.4-3.3-4.2-5.5-6.4   c-12.7,18.6,0.7,54.8,0.7,77.1c-2.9,7.5-0.4,16.9-1.4,25.2c-3.8-5.9-0.7-18.5-0.7-25.5c-2.1-18.3-7.5-36.1-8-54.5   c0.6-15.2,6.6-28.9,5.7-44.4c1.4-12.9,5.8-26.1,4.2-39.1c-1.2-9.4,0.8-19.8,9-25.5c-5.9,10.3-5.3,20.8-2.5,31.9   c0.3,2.3,3.2,5.5,0.4,7.2c-0.8-0.2-1.8-0.4-2.8-0.7c-0.1-1.3,0-2.6,0-3.9c-0.3-0.9-1.6-1.2-1-2.6c0.2-0.6-0.4-1.4-1.7-1.2   c-0.7,0.8-0.9,2.2-0.3,2.7c1.4,1.6,1.1,3.8,3,4.9c-3.8,13.5-6.7,28.1-2.3,41.9C142.8,218,145.7,221.8,146.9,222.7z" />
	<path fill="#70554C" d="M219.4,150.5c1.1,0.4,2,1.2,2.3,2.5c-0.9,0.2-0.7,1-0.8,1.6C219.9,153.3,219.7,152,219.4,150.5L219.4,150.5   z" />
	<path fill="#A1B3B3" d="M165.7,200.1c-0.4-0.2-0.9-0.6-1.4-0.8c0-0.4,0.1-0.9,0.1-1.6C165.5,198.4,165.9,199.1,165.7,200.1z" />
	<path fill="#654F46" d="M270.9,329.9c-0.1-1.2-0.2-2-0.3-3.1c1.4,0.8,1.7,1.7,1.6,3c-2,2.9-3.8,6.1-4.2,10.5   c-0.6-0.8-1-1.2-0.9-1.4c0.8-1.4-0.3-2.1-1-3C267.8,333.7,269.4,331.8,270.9,329.9z" />
	<path fill="#654F46" d="M268.9,317.3c0.7,0.3,1.7,1,2,1.3c0.4,1.7,0.4,3,0.3,4.8c-1.1-2.1-2-3.8-2.9-5.6   C268.6,317.8,268.7,317.6,268.9,317.3z" />
	<path fill="#87695D" d="M272.9,331.4c0.1,0.6-0.1,1.2,0.7,1.6c-0.6,1.7-1.6,3.1-3.2,4.9C270.8,335.1,271.5,333.2,272.9,331.4z" />
	<path fill="#87695D" d="M273.6,329c0.1,0.7,0.1,1.3-0.7,1.7C272.8,329.9,272.9,329.4,273.6,329z" />
	<path fill="#877064" d="M268.9,317.3c-0.2,0.2-0.3,0.4-0.6,0.7C268.6,317.8,268.7,317.6,268.9,317.3z" />
	<path fill="#87695D" d="M273.8,332.4c0.2-0.3,0.4-0.7,0.6-1C274.3,331.7,274,332.1,273.8,332.4z" />
	<path fill="#2B201C" d="M151.7,339.4c0.6,1.3,1,2.6,1.6,3.9c-0.2,0.2-0.4,0.6-0.7,0.8c-3.7-5.8-3.7-12.5-7.9-18.1   C150.9,327.3,149.1,335.1,151.7,339.4L151.7,339.4z" />
	<path fill="#8D695C" d="M149.4,338.4c1,1.9,2,3.8,3,5.7c-3.6,0.8-8.4-7.2-7-11.1c0.9,2.1,2,4.1,3.5,5.9   C149.1,338.7,149.3,338.6,149.4,338.4z" />
	<path fill="#544038" d="M143.5,334.2c-1-1.8-1-1.8-1.1-3.7C143.6,332.2,143.6,332.2,143.5,334.2z" />
	<path fill="#8B6C5F" d="M221,100.9c-1.2-0.3-0.8-1.3-0.9-2.2c3.9-0.2,7.8,0,12.1-0.2c-0.7,1.3-1,2.1-1.4,3.1c-2.2,0-4.5,0-6.7,0   l0,0C223.6,100.7,221.8,99.7,221,100.9z" />
	<path fill="#8B6A5D" d="M232,94.7c0.8,0.6,1.4,1,2.2,1.6c0.1,0.7,0.1,1.3-0.7,1.7l0,0c-0.8-1.2-2.7-0.9-3.9-0.7   c-2.5,1-4.9,0.4-7.9,0.7C224.9,94.1,228.9,96.6,232,94.7z" />
	<path fill="#796157" d="M233.6,97.8c0,0.7,0,1.2,0,2.7C232.5,98.8,232.7,98.9,233.6,97.8L233.6,97.8z" />
	<path fill="#63534B" d="M232.8,77.3c-0.6,1.2-2,0.8-3.1,1c-0.6-1.7,0.4-3.1,0.6-4.7c0.6,0,1.1-0.1,1.7-0.1c0.2,0.8,0.4,1.6,0.7,2.3   c-0.3,0-0.8,0-1.1,0c-0.3,0.3-0.7,0.6-1.1,0.9c0.2,0.2,0.6,0.4,0.8,0.7C231.8,77.4,232.4,77.3,232.8,77.3L232.8,77.3z" />
	<path fill="#AEB7B7" d="M231.6,75.8c0.3,0,0.8,0,1.1,0c0,0.6,0.1,1,0.1,1.6c-0.6,0-1,0-1.6,0C231.5,76.8,231.5,76.3,231.6,75.8z" />
	<polygon fill="#445D5D" points="235.7,75.4 235.5,75.5 235.5,75.3  " />
	<path fill="#130E0D" d="M208.6,74.4c3.9-0.7,7.9-2.6,11.8,0.3c0.2,1.1,0.3,2.1,0.4,3C216.9,79.3,209.1,80.1,208.6,74.4z M213,77.4   c1.9,2.1,1.6-0.8,1.2-2.2c-0.9,0.8-2,0-2.5,1.4C212.2,76.8,212.6,77.1,213,77.4z M218.2,76.4c0.2-0.1,0.2-0.2,0-0.4   C218,76.1,218,76.2,218.2,76.4z" />
	<path fill="#19100E" d="M210.9,68.8c4.3,0,9.9-1.4,12.7,2.7c-4.3,0.2-7.6-2-11.9-1.9C211.4,69.4,211.1,69,210.9,68.8z" />
	<path fill="#44322D" d="M229,90.8c0.7-1.8,1.8-2.5,3.6-2.1c-0.2-1.8-2.6-2.5-2-4.7C234.1,87,235.3,91.7,229,90.8z" />
	<path fill="#48332E" d="M225,90.1c-0.2,0.4-0.4,0.9-0.7,1.3c-1.8-0.1-3.1-0.4-4-2c0.1-1.2,0.4-2.5,2-3.2c-0.2,1.2-0.3,2.2-0.6,3.8   c1-0.3,1.7-0.4,2.3-0.7C224.5,89.5,224.8,89.8,225,90.1z" />
	<path fill="#46352F" d="M230.4,73.6c-0.9,2.7-0.6,4.2-0.8,7.2C227.5,78.5,227.7,74.8,230.4,73.6z" />
	<path fill="#42322C" d="M196.6,95.4c0.9-0.2,0.8-1,0.9-1.7c1,1.6,2.1,3.2,3.1,4.8C198.6,98.3,197.5,97,196.6,95.4z" />
	<path fill="#3E2B26" d="M210.9,68.8c0.3,0.2,0.6,0.6,0.9,0.8c-1.3,1-2.7,1.8-4.7,1.3C207.8,69.1,209.5,69.4,210.9,68.8z" />
	<path fill="#513730" d="M191.9,82.1c-0.2-0.2-0.6-0.6-0.8-0.8c0.3,0,0.8-0.1,1.1-0.1c0.2-0.7,0.6-1.3,0.8-2c0.4,0,0.8-0.1,1.1-0.1   c0,0.8,0,1.6,0,2.3C193.4,81.6,192.7,81.8,191.9,82.1z" />
	<path fill="#5D4840" d="M203.7,100.9c-1.4,1.4-3.2-0.8-3.1-2.3C201.6,99.3,202.6,100.1,203.7,100.9z" />
	<path fill="#221815" d="M191.9,82.1c0.8-0.2,1.6-0.6,2.2-0.8c0.6,0.7,1.2,1.3,0.9,2.3c-1-0.2-2.1-0.6-3.1-0.8   C191.9,82.6,191.9,82.4,191.9,82.1z" />
	<path fill="#3E2A26" d="M221,100.9c0.8-1.2,2.6-0.2,3.1,0.9C222.9,102.1,222,101.5,221,100.9z" />
	<path fill="#1A0A09" d="M225,90.1c-0.3-0.3-0.6-0.6-0.9-0.9c0.8,0,1.7,0,2.5,0c0,0.1,0.1,0.2,0.1,0.4   C226.1,89.8,225.6,89.9,225,90.1z" />
	<path fill="#221815" d="M190.3,82.9c0.2,0.2,0.6,0.6,0.8,0.8C190.8,83.4,190.6,83.1,190.3,82.9z" />
	<path fill="#221815" d="M190.2,82.1c0,0.2,0,0.6,0,0.8c-0.2-0.1-0.3-0.2-0.6-0.3C189.9,82.3,190.1,82.2,190.2,82.1z" />
	<path fill="#D69479" d="M242.2,414.1c0.7,0.3,1.3,0.8,2,1.1c1.8,3.6,1,7.4,1.1,11.3c-4.2,1.4-8.7-10.9-4.6-12.3c0,0.7,0,1.4,0,2.3   C241.9,415.9,242.2,415,242.2,414.1z" />
	<path fill="#D19076" d="M185.4,401.5c-4.3-7.8,4-10.9,5.6,6.4c-1.4-0.1-1.4-0.1-1.7,1.6c-0.8-0.8-1.4-1.4-2.2-2.2   c1.9-1.7,1.1-7-1.1-8.2C185.8,399.9,185.7,400.7,185.4,401.5z" />
	<path fill="#2E201B" d="M188.3,449.6c2.9,1.2-0.8,8.5-2.6,10.6C185.3,456.1,186.3,453,188.3,449.6z" />
	<path fill="#1D1410" d="M185.4,401.5c0.2-0.8,0.3-1.6,0.6-2.7c2.2,1.3,2.9,6.7,1.1,8.2C186.6,405.3,186,403.4,185.4,401.5z" />
	<path fill="#2F201C" d="M248.6,402c1.6,3.1-0.9,6.1-3,8.1C245,407.4,247.1,404.7,248.6,402z" />
	<path fill="#BA806C" d="M202,309.4c-3.9-1.4-7.1-4.3-11-6.5C193.9,302.5,200,307.1,202,309.4C202.2,309.4,202,309.4,202,309.4z" />
	<path fill="#442E27" d="M234.6,448c0.4,0.2,0.9,0.3,1.4,0.6c0.9,1.7,1.2,3.3,0.6,5.5C234.9,452.1,234.4,450.2,234.6,448z" />
	<path fill="#744F43" d="M198.5,313.1c2.5-0.2,4,1,5.7,2.5C201.9,315.9,200.4,314,198.5,313.1z" />
	<path fill="#32231E" d="M185.1,466.5c-1.6-1.4-1.6-2.2-0.2-4.2C186,464,186,464,185.1,466.5z" />
	<path fill="#221915" d="M189.3,409.4c0.3-1.7,0.3-1.7,1.7-1.6c0,1.2,1.2,2.2,0.3,3.7C189.9,411.6,189.8,410.3,189.3,409.4z" />
	<path fill="#37211C" d="M238.2,462.7c-1.6-1.3-1.7-2.8-2.2-4.8C238.5,459.1,238.4,459.1,238.2,462.7z" />
	<path fill="#3F2821" d="M219.4,313.4c-1.1-0.2-0.8-1-0.8-1.7c1-0.6,1.1-2.3,3-2.1C221.7,311.4,220.1,312.2,219.4,313.4z" />
	<path fill="#241411" d="M182.7,476.2c-0.8-1-0.6-2.1-0.1-3.1C184.2,474.2,184.2,474.4,182.7,476.2z" />
	<path fill="#452E26" d="M242.2,414.1c0,1-0.2,1.8-1.4,2.3c0-0.9,0-1.7,0-2.3C241.3,414.1,241.7,414.1,242.2,414.1z" />
	<path fill="#BA806C" d="M202.2,309.4c0.9,0,1.7,0.2,2,1.3C202.8,311,202.5,310.2,202.2,309.4L202.2,309.4z" />
	<path fill="#291915" d="M237.7,467.6c-0.3-0.6-0.6-1-0.9-1.7C238,466.1,238,466.1,237.7,467.6z" />
	<path fill="#D69479" d="M216.4,314.2c-0.2,0.3-0.6,0.6-0.8,0.9C215.9,314.9,216.1,314.6,216.4,314.2z" />
	<path fill="#4A231E" d="M237.9,472.1c-0.1,0-0.1-0.1-0.2-0.1c0.1-0.1,0.2-0.2,0.2-0.3c0.1,0.1,0.1,0.1,0.2,0.2   C238,472,237.9,472,237.9,472.1z" />
	<path fill="#100B0A" d="M179.2,180.5c6.9,12.6,22.1,10.4,34.3,9.7c-0.1,0.4-0.3,0.9-0.4,1.3c-11.6,3-29.6,3.2-34.8-10   C178.6,181,178.9,180.7,179.2,180.5z" />
	<path fill="#E7CEBD" d="M220.5,229.4c1.9,5.8,1.7,25.4-1.1,29.8C219.8,249.4,216.3,238.5,220.5,229.4z" />
	<path fill="#221D1B" d="M239.7,279.8c0.3-4.1,2.2-7,2.6-10.7C245.2,271.6,241.9,276.4,239.7,279.8z" />
	<path fill="#461412" d="M239.4,194.5c2.5-1.9,6.8,0,9.9-0.4C246.1,194.9,242.6,194.6,239.4,194.5z" />
	<path fill="#4E4540" d="M235.9,249.2c0.2-2.8-1.2-4.8-0.8-7.4C236.9,244.3,238.3,247.1,235.9,249.2z" />
	<path fill="#30504A" d="M241.2,194.6c2,0.7,9.4-1.8,8.9,0.7C247.1,195.1,244,195.8,241.2,194.6z" />
	<path fill="#2B2321" d="M234.9,239c-2.3-0.7-1.3-2.6-0.3-3.8C235.6,236.5,235.4,237.7,234.9,239z" />
	<path fill="#52413C" d="M191.9,280.3c0-0.4,0.1-0.9,0.1-1.4c1.4,0.6,1.6,1.7,2,2.9c-0.6,0-0.9,0-1.2,0   C192.5,281.2,192.1,280.8,191.9,280.3z" />
	<path fill="#514541" d="M233.7,289.5c0.6-0.8,2-2.8,2-1C235.4,289,235.4,290,233.7,289.5z" />
	<path fill="#574844" d="M236.9,285.1c-0.6-1.2,0-1.8,1-2.2C238.6,284.1,238.2,284.7,236.9,285.1z" />
	<path fill="#704F4A" d="M229.8,191.3c1.3-1,1.7-1,2.9,0.1C231.8,191.4,230.8,191.3,229.8,191.3z" />
	<path fill="#595A54" d="M234.4,228.9c0.1-0.4,0.1-0.8,0.2-1.2c0.3,0.1,0.6,0.2,0.9,0.3c-0.2,0.3-0.4,0.7-0.7,1   C234.7,229,234.6,228.9,234.4,228.9z" />
	<path fill="#5C3F3B" d="M235.3,193.7c0.4-1.3,1.2-0.6,2.1-0.2c-0.4,0.1-1,0.3-1.4,0.4C235.7,193.7,235.5,193.7,235.3,193.7z" />
	<path fill="#E6CCBB" d="M187.8,272.5c-0.2-0.6-0.6-1-0.8-1.6l0.2-0.2c0.2,0.6,0.6,1,0.8,1.6L187.8,272.5z" />
	<path fill="#726D66" d="M234.8,223.1c0.2,0.4,0.3,0.8-0.2,1C234.4,223.6,234.3,223.3,234.8,223.1z" />
	<path fill="#918E84" d="M234.7,233.2c0.1,0.1,0.2,0.2,0.2,0.3c-0.1,0.1-0.1,0.1-0.2,0.2C234.7,233.5,234.7,233.4,234.7,233.2z" />
	<path fill="#221917" d="M147.7,229.2c0.2-1.3-0.7-3.3,0.9-4c0.9,1.7,1.2,3.5,1.2,5.2C148.4,231,148.2,229.9,147.7,229.2z" />
	<path fill="#3F2D28" d="M146.9,222.7c-1.3-0.9-4.2-4.7-2.3-6C145,219,148.2,219.9,146.9,222.7z" />
	<path fill="#644F47" d="M148.7,289.6c0.7,1,0.7,1.2-0.3,1.6C147.7,290.6,148.2,290.3,148.7,289.6z" />
	<path fill="#2E1E1B" d="M149.1,324.3c-0.4-0.7-0.7-1.2-1-1.7C149.3,322.1,149.3,322.1,149.1,324.3z" />
	<path fill="#977264" d="M147.1,222.2c0-0.6,0-1.1,0-1.6C147.9,221.1,147.9,221.6,147.1,222.2z" />
	<path fill="#88685B" d="M151.7,339.4c-0.2-0.3-0.3-0.6-0.6-0.9C151.2,338.7,151.5,339.1,151.7,339.4z" />
	<path fill="#3F3430" d="M179.2,180.5c-0.3,0.3-0.6,0.7-0.9,1c-1.1-2-2.7-3.2-2.9-5.7C177.5,176.9,178.6,178.5,179.2,180.5z" />
	<path fill="#201E1C" d="M188,272.4c-0.2-0.6-0.6-1-0.8-1.6c0.1-0.3,0.2-0.7,0.3-1.1c1.4,0,1.2,1.3,2,2.2   C188.9,272.2,188.5,272.3,188,272.4z" />
	<path fill="#190C0A" d="M217.7,189c-0.7,0.1-1.3,0.1-3,0.3c1.3-0.9,1.9-1.3,2.3-1.7C217.9,187.8,217.5,188.5,217.7,189z" />
	<path fill="#171312" d="M174.4,171.1c0.1,0.7,0.1,1.3,0.2,2.2c-1.8-0.7-1.7-2,0-2.3L174.4,171.1z" />
	<path fill="#57433D" d="M186.3,264.9c-0.1,1.4-0.6,1.4-0.6,0C186,264.9,186.1,264.9,186.3,264.9z" />
	<path fill="#92645D" d="M220,186.4c-0.2,0.2-0.3,0.2-0.4,0C219.8,186.1,219.9,186.1,220,186.4z" />
	<path fill="#231A17" d="M259.9,217.3c-0.7-3-0.6-3.3,0.3-5.8C262,211.6,261.5,216.5,259.9,217.3z" />
	<path fill="#0E0605" d="M257.2,221.2c0.2-1.2,0.3-1.9,1.1-3c0.9,1.4,0.4,2.6,0.3,3.8C258.2,221.7,257.8,221.5,257.2,221.2z" />
	<path fill="#674D45" d="M255.5,224.5c-0.1-1,0.4-1.9,1.6-1.6l0,0C257.2,223.9,256.8,224.6,255.5,224.5z" />
	<path fill="#977264" d="M257.2,221.2c0.4,0.2,1,0.6,1.4,0.8c-0.1,1-0.9,0.9-1.6,0.9l0,0C257.2,222.4,257.2,221.7,257.2,221.2z" />
	<path fill="#3B2925" d="M189.3,130.3c2.1-1.3,4.2-1.1,6.7,0.7C193.6,131.9,192.9,131.9,189.3,130.3z" />
	<path fill="#533F39" d="M205.8,134c-0.6-0.4-0.9-0.8-1.2-1.1c1.3-1.1,1.3-1.1,2.9-0.1C207,133.2,206.4,133.6,205.8,134z" />
	<path fill="#2B221E" d="M201.9,132.7c-1.4,0.4-1.4,0.4-2.2-0.7C201.3,131.6,201.3,131.6,201.9,132.7z" />
	<path fill="#70554C" d="M219.4,150.5c-0.6-0.2-0.9-0.4-0.3-1.4C219.2,149.7,219.3,150.2,219.4,150.5L219.4,150.5z" />
	<path fill="#1F1C19" d="M262.8,561.8c-1.6,1.3-3.3,1.4-5.5,0.8C257.4,560,263.1,558.5,262.8,561.8z" />
	<path fill="#1D1311" d="M262.5,289c0.1,0.8,0.1,1.3,0.2,2.3C261.6,290.5,261.7,289.9,262.5,289z" />
	<path fill="#180F0C" d="M265.1,573.9c3.3,0.7,8.6-1.9,10.7,1.2c-3.3,1.6-7.8-0.9-10.9,2.1c-0.7,0.6-1.4,0.6-2.1-0.7   C263.6,575.8,264.3,574.8,265.1,573.9L265.1,573.9z" />
	<path fill="#130E0C" d="M175.3,555c-2.2-4.5,10.8-9.6,12.5-5.8c-2.9,2.7-8.2,1.4-10.6,5C176.7,555,176.1,555.2,175.3,555z" />
	<path fill="#191613" d="M178,563.1c0.3-3.9,10.3-8.6,12-4.8C187,561,182.5,561.1,178,563.1z" />
	<path fill="#120E0C" d="M182.4,552.6c2.3,0,4.3-0.8,6.4,1.1c-3.3,2.3-8.7,0.6-10.4,5.7c-1.9-0.7-1.4-1.8-1.4-2.8   C178.3,554.6,180.4,553.6,182.4,552.6z" />
	<path fill="#211A17" d="M191,563.2c-2.2,2.5-6.2,3.5-9.4,4.3C178.4,565.4,190.8,560,191,563.2z" />
	<path fill="#1C1815" d="M183,570.8c2.2-2.9,6.9-4.6,9.9-2.8C191.7,570.1,185.3,571.9,183,570.8z" />
	<path fill="#C8C5AC" d="M182.4,552.6c-2,1-4.1,2-5.5,4c-0.6-0.6-1.1-1-1.7-1.6C178,555.2,179.3,550,182.4,552.6z" />
	<path fill="#3F302A" d="M146.2,174.1c-1.1-1.1-0.9-3-2.2-4.2c-0.6-0.6-0.3-1.9,0.3-2.7c1.2-0.2,1.9,0.7,1.7,1.2   c-0.6,1.3,0.8,1.7,1,2.6C146.1,171.9,146.1,173,146.2,174.1z" />
	<path fill="#0D0A09" d="M146.2,174.1c0-1.1,0-2.2,0.8-3.1c0,1,0,2-0.1,3C146.7,174.1,146.4,174.1,146.2,174.1z" />
	<path fill="#3F302A" d="M146.2,174.1c0.2,0,0.4-0.1,0.8-0.1c0,0.2,0,0.6,0.1,0.8C146.7,174.6,146.4,174.4,146.2,174.1z" />
	<path fill="#201615" d="M231.6,75.8c-0.1,0.6-0.2,1-0.2,1.6c-0.2-0.2-0.6-0.4-0.8-0.7C230.9,76.4,231.2,76.1,231.6,75.8z" />
	<path fill="#CFDAD9" d="M213,77.4c-0.4-0.2-0.8-0.6-1.1-0.8c0.4-1.4,1.6-0.7,2.5-1.4c0.1,1,0.2,1.6,0.2,2.1   C214.1,77.3,213.5,77.4,213,77.4z" />
	<path fill="#B28C7D" d="M213,77.4c0.6,0,1-0.1,1.6-0.1C214.2,78.4,214.1,78.4,213,77.4z" />
	<path fill="#756868" d="M218.2,76.4c-0.2-0.2-0.2-0.3,0-0.4C218.4,76.1,218.4,76.2,218.2,76.4z" />
</g>
</g></svg>