<?xml version='1.0' encoding='utf-8'?>
<svg xmlns="http://www.w3.org/2000/svg" version="1.2" baseProfile="tiny" id="Layer_2_00000023262767588066505580000016353705988676653221_" x="0px" y="0px" viewBox="0 0 900 600" overflow="visible" xml:space="preserve">
<g id="b_00000077300568626346493620000017616064267150875274_">
	<g><path d="M556.4,133.2c14.3,4.5,29.1,2.5,43.8,2.9c10.1-5.3,20.5-6.9,31.6-5.1c5.4,0,11.5,3.3,16.6,1c11.5-5.7,18.2-7,17.7-22.1   c-1.1-0.7-2.4-0.5-3.7-0.8c-0.4,0.6-0.6,1.2-0.9,1.6c-2.7,0.1-2.6-4.2-6-1.2c-2.1-0.6-2.7-3-3.5-4.8c-2.1,0,0.3,2-0.3,3.1   c-2.7,0.8-2.7-3.1-4.9-3.7c-0.2,0.4-0.4,0.7-0.6,1.4c-2.5,0.3-2.9-3.4-5.2-3.3c-1-2.3-1.8-4.2-2.7-6.1c-0.8-0.2-1.6-0.4-2.5-0.5   c-3.8-3.6-1-7.9-1.6-12.3c-0.5,0.8-0.9,1.3-1.2,1.8c-0.2,0-0.5,0-0.6,0.1c-1.4-3-1.2-6.4-0.1-10c-1-1.1-1.2,0.6-2.3,0.4   c-1.7-1.4-0.6-5-0.4-7.1c0.4-3.1-2.1-6,0.3-9c2.1-2.7,2.4-5.8,3.9-8.6c-0.5-0.5-0.9-1.1-1.5-1.6c1.2-2.9,2.6-5.2,5.9-5.6   c-0.6-0.5-1.1-0.8-1.7-1.4c0.5-0.5,0.9-0.7,1.3-1.1c1.8,0.4,3.1-0.4,4.4-1.6c-0.3-0.6-0.6-1.2-1.1-1.6c0-1.6,1.6-1.6,2.3-2.5   c0.6,0.2,1.1,0.3,1.6,0.5c0.8-1.8-2.3-1.3-0.6-3.7c2.7-0.5,5.4-1.1,8.2-1.7c0.5-1.5,1-4.1,2.8-2.9c3.8,1.6,6.2-3.9,10.8-2   c1.2-2.3,4.8-0.9,6,0.7c3.7-0.7,7.6-3.8,11.3-1.7c0.2,2-2.1,0.7-2.7,2.2c1.6,2.1,9.3-5.3,11.7-1.3c-1,0.5-2.1,0.9-3.4,1.5   c3.8,2.9,12.9-1,13.6,5c-0.9,0-1.9,0-2.9,0c-0.1,0.3-0.2,0.6-0.4,1.2c4.4-0.6,7,2.8,10.6,4.4c-0.1,0.5-0.2,0.9-0.4,1.4   c1.9,1.5,2.8,3.7,4,5.8c-0.6,0.5-1.1,0.7-1.6,1.1c0.5,0.9,0.8,1.7,1.3,2.7c-0.3,0.6-0.5,1.3-0.8,1.8c0.5,0.4,0.8,0.7,1.4,1.2   c0.5,2.4,0.9,4.9-0.9,7.1c0.1,1.2,0.1,2.4,0.2,3.6c-1.1,1.2-1.1,1.2-2.5,1.6c1,2.4-0.8,4.4-0.9,6.6c-0.5,0.3-0.9,0.5-1.4,0.6   c0,1.2,0.5,2.8-0.5,3.8c-1.9-3.8-3.8-12.2-9.2-11.1c-10.2,0.4-18.6,0-24.5,10.4c0.4,2.7-1.2,4.8-0.7,7.5c-0.8,1.3-1.6,2.6-2.5,3.8   c0.4,0.4,0.6,0.7,0.9,1.1c-0.4,1.1-1.4,1.4-2.3,1.6c-0.5-0.2-0.9-0.4-1.4-0.5c-0.5-0.9-0.8-1.8-1.3-2.8l0,0   c3.8-16.6,12.8-24.7,30.2-24.4c-15-9.8-34.1,8.1-32.3,23.8c-0.7,1.4-2.4,2.3-2,3.9c-2.7,4.3,1.8,8.7,4.8,11.3   c0.2,12,1.3,24.4-10.2,31.1c4.5,17.4,16.9,34.4,36.8,33.6c-0.1-1.3,0-2.1,0.6-3.1c0.5,1.3,1.1,2.5,1.6,3.5c3.3,0,6.2-0.1,9.2-0.1   c0,0.2,0,0.5,0.1,0.6c-10.7,4.7-22.7,0.2-32.2-5.4c-11.3-5.5-14.1-18.3-18.1-29c-2,0.5-3.3,1.7-4.5,3.2c7.3,15.5,2.5,40.6-15.5,46   c18.3,54.6,22,54.3-1.2,108.5c29.9-0.9,61.3,10.3,90.1-0.9c-15.3-50.5-13.8-34.2-4-84.6c18.8-7.1,10-26.4,2.7-39.3   c0.3-0.2,0.5-0.5,0.7-0.6c0.7,0.8,1.6,1.7,2.4,2.6c1.1-0.9,2-1.7,2.9-2.6c0.5,0.5,0.9,1,1.1,1.3c24.7-1.2,47.5-11.7,72.2-11.6   c17-4.1,33.5-12.1,51.1-12.2c6.8,2.1,13.3-4.3,19.9-1c-0.2,0.1-0.5,0.3-0.6,0.4c-0.2-0.2-0.4-0.2-0.5-0.1c-0.5-0.1-1.1-0.3-1.5,0.3   c-5.8-0.3-11,3.1-16.8,2c-2.7-0.6-5.4,0.8-8.2,0.7c-12.8,0.9-24.4,7.1-36.8,10.1c-12,3.1-24.5,2.1-36.5,5.5   c-15,2.7-29.7,8.6-45.1,8.6c8.1,11.4,10.8,31.5-4.8,37.2c-1.7,6.4-2,12.6-3.7,19.1c-1.5,8.1-6,15.3-3.7,23.6   c5.6,22.9,14.2,44.9,17,68.5c6.9,28.9,1.3,58.8,1.5,87.7c-0.2,18.9,2.5,37.5,3.2,56.5c1,18.6-2.5,37.1-1.4,55.5   c1.1,0.3,2,0.5,2.9,0.6c2.7,5.4,1.7,10.4,6.8,15.2c4.3,4.8,7.8,11.5,13.9,13.8c3.4,1.3,6.6,2.7,6.9,6.7c8,16.5-32.1,14.4-39.3,7.3   c-3.6,2.2-21,1.4-18.3-5.2c3.2-4.1,2.5-9.3,2.3-14.1c-0.9-5.4,2.9-10.4,2.1-15.8c1.3-1.8,3-1.4,4.8-1c-1.9-14.3-1.6-29.2-7.2-42.6   c-6.9-16-9.6-33.4-6.4-50.5c-0.7-29.1-15.4-56.2-20.7-84.8c-7.2,30.5-11.3,64.2-26.3,92c-3.4,9.1-0.8,19.3-4.4,28.5   c-4.9,15.8-10.3,31.6-10.5,48.4c0.7,3.7-3.1,13.5,2.3,13.1c3.8,10.4,8.2,21.5,15.7,30c4.8,3.6,3,9.1,1.7,14   c-11.9,3.6-24.9,4-37,0.9c-0.5-1.4-0.8-2.7-1.2-3.9c-2.2-1.1-4.9-0.5-7.1-2c-0.9-5.4,3.2-10.4,2.4-16c0.5-4.9-2.8-11.4,3.1-13.7   c4.8-56.6-12.8-67.8,12.4-126.6c2.2-38-9.5-76.6-4.1-115c24.4-60.4,23.2-61.2-0.5-122.7c-9.7-8.6-27.5-3.9-39.8-7.4   c-11.6-1.1-21.9-6.9-33.2-9.4c8-3,15.5,4.2,23.3,5.4c11.2,2.6,22.9,2.6,34.1,5.2c3.9,0.5,14.1-0.6,16,2.3c1.2,3.4,3.8,6,4.6,9.6   c15.9-0.8,20.9-30.5,14.6-42.4c-15.9,0.5-34.2-7.1-48.8,3.8c-11.2-1.5-22.7,1.9-33.6,0c0.3-0.3,0.5-0.5,0.8-0.8   c-4.3-1.6-8.7-2.7-13.1-3.7C555.4,133.7,555.9,133.5,556.4,133.2z M748.7,537.8L748.7,537.8c-0.9-1-1.7-1.6-2.8-2.5   c-2.7,2.5-6.4,2.9-9.3,5.4c-3.3-3.8,5.7-5.4,8.2-7c-0.3-0.5-0.6-0.9-0.9-1.5c-4,1.2-8.2,1.6-11.5,4.7c-2.9-5.3,7-5.3,10.1-6.8   c-0.2-0.4-0.4-0.7-0.5-0.9c-5,1-9.8,0.9-13.9,4.1c-0.4-0.4-0.7-0.7-1.1-1c2.1-5,8.4-3.4,12.8-4.9c-0.5-3-1.1-5.8-1.6-8.3   c-10.3-6.3-8.2,7.4-14.6,11.5c-1.2-0.1-2.4-0.2-3.7-0.3c-1.6-2.1-1.7-4.9-3.9-6.3c-3.9,10.5-0.5,21.4-5.1,31.6   c4.7,0.5,9.3,3,13.9,1.6c1.9-0.7,3.7-0.3,5.4,0.6c10.8,5.6,24.8,5.4,35.4-0.4C764.2,543,757.6,551.4,748.7,537.8z M624.3,539.6   c-1.5,0-2.1-0.4-3.5-1.4c-0.2,8.9,0.7,17.2-2.3,25.8c1.7,0,3.3,0.8,4.8,0.2c0.2-0.8,0.4-1.6,0.6-2.7c2.4,2,1.6,5.4,2.6,8.2   c11,2.2,22.5,2.1,33.3-1.1c-7-2.9-13.5,2.9-12.6-0.5c0.8-0.7,1.8-1.5,2.7-2.2c3.6-0.2,6.9,0.4,10.4,0.8c3.8-7-5.3-10.1-7.1-16   c-3-7.4-8.6-13.9-9.9-22c-3.3-1.7-4.9-4.9-7.4-7.3c-2.2,0.4-4.3,0.8-5.9,1.9C628.9,529.2,628,535.2,624.3,539.6z M689.3,314.6   c-12.4,37.3,14.4,74.2,17.8,111.3c-3.3,16.7-2,34.3,4.7,50c5.5,14.2,6.8,29.4,8.5,44.4c2.3,0.2,4.1,0.1,6.5,0.1   c0.5-3.6,3.6-4.6,6.6-5.8c2.3-37.8,0.8-75.6-1.9-113.4c3.2-37.4,3.2-74.9-6.2-111.6c-29.4,11.1-61.5-1-91.5,1.2   c-6.8,37,3.2,75.3,4.1,112.6c-1.3,15.5-10.7,28.6-13,43.8c-6.2,27.1,3.2,54.2,0.5,81.6c4.6-5.7-1.7-8.1,11.5-9.9   c0.6,0.6,0.9,1.1,1.5,1.7c1.9-18.3,5.6-35.9,11.8-53.3c4-9.7,1.6-20.3,4.3-30.2c4.3-8.8,8.2-17.7,11.1-27   c12.4-30.7,11.6-65.9,23-96.4C688.8,314.1,689,314.3,689.3,314.6z M720.3,522.5c-0.5,4.6-0.5,4.6,2,5.7c1.8-1.2,3.3-2.9,3.7-5.1   C724,522.9,722.2,522.7,720.3,522.5z M625.5,531.3c-1.6,0.5-2.7,3.8-0.9,4.3C625.7,533.6,625.7,533.6,625.5,531.3z M631.5,63.6   c-0.5-0.5-0.6-0.1-1,0.3C630.8,64.5,631.1,63.9,631.5,63.6z M634.7,53.7c0.6-0.3,0.6-0.5,1-1.3C634.8,52.7,634.2,52.8,634.7,53.7z    M635.5,48.9c-1.1-0.1-1.1-0.1-0.8,1C635,49.5,635.3,49.1,635.5,48.9z M662.8,27.3c-0.3-0.1-0.5-0.4-0.8,0   C662.4,27.7,662.5,27.7,662.8,27.3z" />
	<path fill="#040303" d="M724,162.7c-0.3,0.2-0.5,0.5-0.7,0.6c-5.8-7.7-10.4-17.5-18.8-22.6c0-0.4,0.1-0.6-0.4-0.3   c0.2,0.1,0.3,0.2,0.5,0.2c1.7,6.6,8.2,12.7,6,20.1c-0.5-0.2-0.8-0.5-1.3-0.6c-2.4-12.7-4.9-19.9-17.3-24.7   c-0.2,0.5-0.4,1.1-0.5,1.9c-1.9-5.3-2.7-12.5,0.5-17.2c0.5,0,0.8,0.1,1.3,0.1c-2.9,2.9-0.6,8.4-1.6,12.5c3,1.6,5.9,3.1,8.8,4.7   c21.4-12.6,33.2,3.2,51.1,1.5c16.1-0.6,30.9-6.5,46.7-8.1c15.3-1.6,30.7,0.8,46.1,0.1c5,0.6,9.7-3.2,14.7-1.4c0,0.2,0,0.5,0,0.6   c-1.5,0.3-3.7-0.6-4.7,0.7c-1.1,0.4,0.1,1.5-0.8,2c-0.7-0.2-1.9-0.8-2.5-1.4c-23.4,4.7-48.9-4.6-71.8,5.1c0.4,0.4,0.6,0.6,1,0.9   c-0.5,0.1-1.3,0-1.5,0.7c-1,0.2-0.9-0.6-1-1.2c-3,0.8-31.3,4.6-34.6,4.6c-0.3-0.4-0.6-0.8-1-1.3c-2.2-0.5-4.5-1-6.6-1.5   c-0.6-0.7-1.1-1.4-1.2-1.6c-10-1.6-20.9-5.9-29.6,0.6c6.7,5.6,11.7,12.6,16.7,19.3c1.6-1,3.2-4.9,5.1-3.8c-0.5,2.7-2.6,4.7-4.1,7   c0.5,0.7,1,1.3,1.6,1.9C724,162.3,724,162.5,724,162.7z" />
	<path fill="#130C0C" d="M559.6,154c-0.9,0.3-2-0.5-2.7,0.6c-11.9-2.8-23.1-8.5-34.5-13c-14.8-3.1-31.3-2.6-46.4-2.8   c13.6-5,28,3.2,41.5-1.1C530.9,144.2,545.1,150,559.6,154z" />
	<path fill="#251A18" d="M476,138.8c0.5,0.2,1,0.5,1.6,0.6c-3,1.6-5.7,1-9.2,1.5c-0.4-0.4-1-1-1.6-1.6c0.2-1,0.3-1.6,0.5-2.3   c6-3.8,13-3.5,19.6-4.5c-0.4-0.7-0.6-1.4-1-2.1c2.2-1.9,5.5-1.7,8.2-1.5c5.2,1.1,9.4-4.1,14.8-1.7c-5.4,1.2-10.7,2.8-15.8,5.1   c0.6,0.2,1.4,0.4,2.7,0.7c-3.2,1.7-5.4,0-8.5,0.9c-2.8-0.6-13.2,2-13.5,5C474.7,139,475.4,138.9,476,138.8z M473.7,136.1   c-2.5-0.5-4.1,0.9-4.4,3.2c1.2-0.1,2-0.1,2.7-0.2C472.7,138.2,473.2,137.2,473.7,136.1z M488.1,130.2c0,3.6,4.1,0.9,6,0   C492.2,130.2,490.2,130.2,488.1,130.2z" />
	<path fill="#1B100F" d="M507.4,127.9c0.5-0.2,1-0.5,1.5-0.6c15.3,5.2,31.8,3.4,47.5,6c-13,1.4-27.2-1.2-40.1-1.6   c-0.5-0.5-1.3-1-1.6-1.3c-1.5,0.1-2.7,0.1-3.8,0.2c0-0.2,0-0.4,0-0.5c0.5-0.1,1.1-0.2,2-0.3C510.8,128.5,509.3,128.7,507.4,127.9z" />
	<path fill="#281817" d="M873.7,139.3c-0.8-0.5-1.7-0.7-2.7-0.9c6.9-2,13.8-2.7,21.1-2.4c-2.3-2.2-5.6-1.3-8.3-2.5   c0-0.3,0-0.5,0-0.7c0.5,0,1-0.1,1.6-0.1c-0.2-0.4-0.2-0.8-0.2-1.2c1.9-0.3,3.8-0.4,5.5,0.5c-0.4,0.1-0.8,0.2-1.4,0.4   c1,0.4,1.8,0.6,2.6-0.2c0.9,0.4,1.7,0.8,2.6,1.2c0.2,0.9,0.4,1.6,0.6,2.5c-0.2,0.4-0.5,0.9-0.7,1.5   C887.3,137.5,880.3,137,873.7,139.3z" />
	<path fill="#120C0C" d="M883.7,132.7c0,0.3,0,0.5,0,0.7c-6-0.2-12.3,0.5-18.1-1.6c-1-1.1-2.3-0.5-3.5-0.5c-0.6,0-1.7,0.1-1.6-1.2   c1.4-0.1,2.9-0.5,4.4-0.1c1.4,1.4,3.8,0,5.5,1.2c2,0.7,3.7,1.2,5.9,0.2c0.5-0.3,1.6,0.3,1.8-0.7c0.4-0.1,0.6-0.2,1-0.3l-0.2,0.2   l0.1-0.2c0.7,1.8,4.1,0.5,5.9,0.9c0,0.2,0,0.4,0,0.5c-2.3,0.1-4.6-0.1-6.9,0.3c0,0.2,0,0.3,0,0.5   C880.1,132.7,881.9,132.7,883.7,132.7z" />
	<path fill="#1E1514" d="M708,74.5c0.9-0.5,0.4-1.5,0.6-2.2c1.3,4,2.6,8.1,2,12.4c0.6,0.8,1.7,1.4,0.5,2.4c-0.6-3.1-4.5-1.4-6.6-1.3   c0-0.3,0-0.5-0.1-0.7c1.3-1.4,3.2-0.1,4.8-1.1c-0.1-0.5-0.2-1-0.2-1.2c-1.8-1.1-3.4,0.7-5.2,0c0.9-2.5,3.3-2.2,5.3-2.9   C708.8,78.1,708.5,76.3,708,74.5z" />
	<path fill="#0D0D0C" d="M704.6,85.9c2.2-0.1,6-1.8,6.6,1.3c-0.5,1-0.9,1.9-1.5,3c0.5,2.9,0.8,6.2-0.4,9.1c-0.3-0.1-0.5,0-0.7-0.1   c0.4-3.3,0.9-6.3-0.5-9.5c-0.8-0.2-1.6-0.4-2.3-0.5l0,0c-0.3-0.3-0.5-0.5-0.7-0.7v0.1C705.3,87.6,705.1,86.7,704.6,85.9z    M708.3,86.9c-0.2-0.4-0.5-0.1-0.8,0C707.7,87.3,708,87,708.3,86.9z" />
	<path fill="#362725" d="M692,123.4c-1.2-6.6,10.1,0.1,12.6-11.5c0.2,0,0.5,0,0.6-0.1c0.1,6.5-6.7,9.6-12.5,9.5   C692.5,122,692.2,122.8,692,123.4z" />
	<path fill="#2E2A28" d="M705.3,112.9c0.5-4.6,1.8-9.3,3.3-13.7c0.2,0,0.4,0,0.6,0C708.7,103.8,707.8,108.7,705.3,112.9z" />
	<path fill="#281817" d="M870.5,131.3c-1.6-1.2-4.1,0.2-5.5-1.2c4.7,1,10.4-3.4,14.2,0.4c-0.4,0.1-0.6,0.2-1,0.3   C875.6,129.8,873,129.5,870.5,131.3z" />
	<path fill="#271E1B" d="M863.9,129.9c-1.1,0.1-2.2,0.2-3.2,0.3c-0.2,1.3,0.7,1,1.2,1.3c-1.8,0.6-3.7,1.3-5.5,1.9   c-0.2-0.2-0.5-0.5-0.6-0.6c1-0.6,2-1.3,3.1-2c-1.6,0-3,0-4.5,0c1.2-1.7,4,0.2,5.3-1.3C861.1,129.4,862.6,129.2,863.9,129.9z" />
	<path fill="#949292" d="M641.6,38.6c0.2,0.3,0.3,0.5,0.5,0.8c-1.3,1.2-2.7,2-4.4,1.6c0.4-0.6-0.4-1.6,0.5-2   c0.2,0.4,0.3,0.7,0.5,1.2C639.8,39.6,640.7,39.1,641.6,38.6z" />
	<path fill="#A6A2A2" d="M685.3,25.1c-1.4,0.8-2.9,3-4.6,1.5c0.5-1.5,2.7-0.2,2.7-2.2C683.9,24.6,684.6,24.9,685.3,25.1z" />
	<path fill="#150F0F" d="M641.6,38.6c-0.9,0.5-1.9,1-2.9,1.6c-0.2-0.5-0.4-0.8-0.5-1.2c0.6-1,1.8-0.9,2.7-1.3   C641.3,38.1,641.5,38.3,641.6,38.6z" />
	<path fill="#ACBABA" d="M702.6,33c-1,0-2.1,0-3.3,0c0.2-0.5,0.3-0.9,0.4-1.2c1.1,0,2,0,2.9,0C702.6,32.2,702.6,32.6,702.6,33z" />
	<path fill="#A2ABAB" d="M633,85.2c0.4-0.5,0.7-1,1.2-1.8c0.5,1.3,0.3,2.3,0.1,3.2c-0.4,0-0.8,0-1.2,0C633.1,86.1,633,85.6,633,85.2   z" />
	<path fill="#444D4D" d="M651.8,107.9c0.6-1.1-1.8-3.1,0.3-3.1c0.4,0.8,0.6,1.6,1,2.6C652.6,107.5,652.2,107.7,651.8,107.9z" />
	<path fill="#3F3636" d="M633,85.2c0.1,0.5,0.1,0.9,0.2,1.5C631.8,87.7,631.6,84.8,633,85.2z" />
	<path fill="#160B0A" d="M891.8,132.1c-0.7,0.8-1.5,0.5-2.6,0.2C890.2,131.9,890.8,131.8,891.8,132.1z" />
	<path fill="#B28C7D" d="M708.7,102.6c-0.2-0.5-0.2-1,0.4-1.4C709,101.7,708.9,102.1,708.7,102.6z" />
	<path fill="#281817" d="M871.1,139.8c0.4-0.6,0.9-0.5,1.5-0.3c-0.1,0.2-0.1,0.3-0.1,0.5C872,139.9,871.5,139.9,871.1,139.8z" />
	<path fill="#281817" d="M880.5,131.3c-0.6,0-1.3,0.1-1.3-0.8C879.7,130.7,880.1,131,880.5,131.3z" />
	<path fill="#B28C7D" d="M709.4,99.3c0.1-0.3,0.2-0.5,0.4-0.7C709.7,98.7,709.6,99,709.4,99.3z" />
	<path fill="#120C0C" d="M859.7,129.4c-0.2,0.2-0.5,0.4-0.6,0.5c0-0.2,0-0.5,0-0.6C859.3,129.4,859.4,129.4,859.7,129.4z" />
	<path fill="#977264" d="M872.5,140c0-0.2,0-0.3,0.1-0.5c0.2-0.1,0.4,0,0.5,0.1C872.9,139.7,872.6,139.8,872.5,140z" />
	<path fill="#EAA388" d="M655.9,291.7c22.8,1.5,47.3,6.1,69.2-2c9.4,36.7,9.5,74.2,6.2,111.6c2.7,37.8,4.1,75.6,1.9,113.4   c-2.9,1.2-6,2.3-6.6,5.8c-1.5,0-2.8,0-4.1,0c-1.3-15.5,3.5-35.5-3.8-49.1c0.1,3.9-1,7.4-0.8,11.4c-4.6-15.5-12.2-35.7-5.5-51.6   c1.9,2,3.3,4.4,4.7,6.7c-1.2,1.3-1.2,1.3-0.5,2.5c0.9,1.1,0.6,2.9,2.1,3.8c0.9-0.8,0.5-1.6,0.6-2.5c1.8,1.1,2.6,3.3,3.8,4.9   c0.7-15.4-14.5-25.3-15.1-40.2c-4.7-24.2-3.5-48.6-2.8-72.8c-2.8,1.7-2.4,4-4.8,6.9c-1.5-9.3-2.9-18.1-4.3-26.7   c-1.1-1.4-1.8-2.3-2.7-3.2c0.2-0.8,1.3-1.5,0.7-2.7c-11.4,8.2-9.8,23.7-13,36c-2.5,17-6.9,33.7-10.4,50.6   c-3.1,18.7-16.5,35-17.5,53.7c-1.6,24.8-13.9,47.4-14.8,72.6c-0.5-0.6-1-1.2-1.5-1.7c-2.7-0.3-5,2.1-7.7,1.1   c0.5-11.5,4.2-24.2,3.2-35c-0.8,0.9-1.6,1.9-2.7,3.2c0.2-2.7-0.4-4.9,0.5-7.3c0.6-2.7-1.5-5.5,0-8.2c-3.5-16.8,2.7-34.7,9.1-50.5   c2.8,3,1.2,8.1,4.7,10.1c3-6.8,0.9-15-0.1-22.4c0.5-9.7,2.7-19.7,2-29.4c4.1-29.3-1.5-59.9,6.1-88.7   C653.6,291.8,654.7,291.7,655.9,291.7z M654.5,393.3c-1.8-2.3-3.1-3-5.3-0.1c-0.7,2.9,3.1,9.3,6,7.4c0.4,1.7,0,3.7,1.8,4.7   c0.5-1.9,0.6-5.3-1.9-4.6C655.3,398.2,655.1,395.8,654.5,393.3z M676.6,308.5c0.1,0.2,0,0.6,0.5,0.3c-2.6-2.6-6.3-4.9-9.8-6.3   c-0.5-0.7-0.4-0.5-1.6-0.2c0.9,0.2,1.3,0.2,1.6,0.3c1.4,1.7,3.1,2.7,5.2,3.4c0.5,0.8,1.1,1.3,2.1,1.4   C674.9,308.1,675.6,308.6,676.6,308.5z M720.1,408.7c1.3-0.5,1.3-1.6,1.2-2.7c-0.3-0.7-1.4-0.6-1.4-1.7c0-3.3-2.3-5-5-6.4   c-0.9,0.5-1.9,1-2.7,1.5C710.8,404.8,716.1,407.4,720.1,408.7z M651.5,440.8c-2.1,1-3.8,6.9-3.6,9.4   C650.3,448.4,652.7,443.5,651.5,440.8z M726.6,394.4c-1.4,2.9-3,5.4-2.5,8.4C726.1,400,728.4,397.5,726.6,394.4z M678.1,314.2   c-1.5-1.5-3-2.8-5.9-3C674.2,312.9,676,313.7,678.1,314.2z M646.9,452c-1.3,2.7-1.3,2.7,0.1,4.3C648,454.1,648,454.1,646.9,452z    M720.9,452.1c1-1.8-0.1-3.5-2.5-4.2C719.4,449.4,719.2,451.3,720.9,452.1z M644,465.4c1.5-0.7,1.2-2.3,0.2-3.4   C643.4,464.1,643.4,464.1,644,465.4z M721.8,456.9c-0.5-0.9-0.8-2.7-1.7-1.6C720.2,456,720.3,456.9,721.8,456.9z M722,461   c-0.8-1-1.7-0.5-0.9,0.5C721.4,461.3,721.6,461.2,722,461z" />
	<path fill="#F5DDCE" d="M704.6,140.7c12,9.3,32.4,37.9,26,53.4c-14.5,2-15.9-1.6-26.1-10.1c-14,10.5,4.7,16.3,14.2,16.1   c0.7,1.5,2.7-0.2,3.4,1.3c-0.5,0.4-0.8,0.7-1.4,1.2c-9.8,50.7-11.2,33.9,4,84.6c-22.9,8.9-49,3.8-72.9,1.3   c2.2-21,8.1-42.1,12.3-62.6c1.6,0.6,3,1,4.6,1.6c1.7-4.3-6.1-9.5-4.9-13.1c1.5,0.4,3.1,1,4.6,0.2c0.9-3.3-3.4-5.3-4.3-8.2   c-1.4-3.8-5.2-8.3-4.9-12.2c8.6,4.4,21.4,6.1,29.7,0.5c5.8-1.3,7.3-5.6-0.3-4.4c-9.9,0.8-21.8,0.3-29.1-7.1   c-1.9-2.9-4.7-5.4-5.7-8.8c-0.3-1-0.8-2-2-2.5c-1.2-0.5-2.2-1.5-2.6-2.7c6-11.1,7.8-23.9,2.2-35.5c1.2-1.5,2.5-2.7,4.5-3.2   c4.9,18.8,15.7,33.7,36.4,35.7C715.9,168.6,713.2,157.4,704.6,140.7C704.6,140.6,704.6,140.7,704.6,140.7z M661.2,267.7   L661.2,267.7c0.4,4.3,4,6.9,4.7,11.2c0.9,3.8,5,5.4,7,8.7c0.7,1.2,1.7,2.3,3,2.7c0.8-0.6,0.5-1.3,0.3-1.9   c-3.8-9.2-6-19.7-14.4-26.1c-3.3,0.7-1.3,2.1-1.4,4.6C660.7,267.2,661,267.4,661.2,267.7z M715.1,269.9c-1.9,2.1-2.9,6.7-3,9.6   C714.4,276.8,715.5,273.4,715.1,269.9z M708.9,250.7c0.7-2.6,0.3-4.5-1.6-6.5C707.5,246.5,708.1,248.9,708.9,250.7z M706.9,241.6   c0.8-1.3,1.1-2.5,0-3.8C705.7,239.6,705.7,239.7,706.9,241.6z M710.3,282.6c-1.1,0.4-1.6,1-1.6,2c0.3,0.1,0.5,0.3,0.7,0.4   C710.3,284.5,710.8,283.9,710.3,282.6z M706.3,289.1c1.7,0,1.8-0.2,1.3-2C707.1,287.8,706.7,288.4,706.3,289.1z M706.8,225.1   c-0.2,2.2-0.2,2.2,1.1,1.9C707.6,226.6,707.5,226.2,706.8,225.1z M707.8,230.2c-1.5,0.7-1.4,0.9,0,1.8   C707.8,231.4,707.8,230.8,707.8,230.2z M707,236.1c0.1-0.1,0.2-0.1,0.3-0.2c-0.2-0.3-0.3-0.3-0.5,0   C706.8,236.1,706.9,236.1,707,236.1z" />
	<path fill="#B28C7D" d="M510.7,130.6c1.2-0.1,2.3-0.1,3.8-0.2c0.4,0.3,1.1,0.8,1.6,1.3c16.9,2.1,35.2-0.4,51.7,5.9   c-0.4,0.4-0.5,0.5-0.8,0.8c10.9,1.9,22.5-1.5,33.6,0c14.5-10.9,32.8-3.3,48.8-3.8c4.9,10.8,3.2,22.6-2.3,32.8   c-11.3-4.2-13.5-23.2-26.1-25.4c-2.7-1.5-5.5-4.8-8.7-2.7c-1.8-1.5-1.8-1.5-3.3-0.7c0.9,1.3,2.2,0.8,3.3,0.6c2.8,2.1,6.5,3,9.3,5.3   l0,0c4.7,7.1,11.2,13.1,14.6,20.9c-0.4,0.6-0.6,1.1-0.8,1.4c-19.5-11.4-42.7-6-63.1-13.3c1.2-0.9,2.7-1.1,3-2.6   c-0.6-0.6-1.3-1.2-1.7-1.6c-18.7,3.8-33.1-3.3-49.6-11.2c1.2-0.7,2.9,0.4,3.6-1.6c-6.3-2.3-12.9-0.4-19.4,0   c-11.8,0.1-23.5-1.2-34.6,2.4c3.5-6.6,16.1-4,22-6c-1.4-0.4-2.1-0.5-2.7-0.7c5.4-1.6,11.2-6.1,16.9-3.7c0.1,0.2,0.1,0.3,0.1,0.5   c-3.9,0.3-8.4,1.3-11.7,3.4C503,132.2,506.2,130.5,510.7,130.6z M612.2,147.8c-0.6-1-0.8-1.2-1.4-1c-3.1,1.2-6.7-0.1-9.6,1.4   C605,148.6,608.6,149.4,612.2,147.8z M564.2,139.6c-0.2-1.2-1.7-1-1.6,0.2C563.2,140.2,563.5,139.9,564.2,139.6z M596.1,147.6   c-1-0.5-1.8-0.5-3,0.3C594.2,148,595.1,148.5,596.1,147.6z M560.1,140.2c-0.7-0.3-2-0.2-1.4,0.6   C559.3,141.3,559.7,140.9,560.1,140.2z M497,133c-0.3,0-0.5,0-0.8,0C496.4,133.4,496.7,133.1,497,133z" />
	<path fill="#D69479" d="M655.9,291.7c-1.2,0.1-2.5,0.1-3.8,0.2c-7.6,28.8-2.1,59.4-6.1,88.7c0.6,9.7-1.6,19.7-2,29.4   c1,7.4,3.1,15.6,0.1,22.4c-3.5-2.1-1.9-7.1-4.7-10.1c-6.3,15.8-12.6,33.7-9.1,50.5c-1.5,2.7,0.6,5.5,0,8.2   c-0.9,2.3-0.4,4.6-0.5,7.3c1-1.3,1.8-2.2,2.7-3.2c1,10.8-2.7,23.5-3.2,35c0.5,0.1,0.8,0.3,1.3,0.4c-0.8,0.5-1.6,1-2.5,1.5   c-0.5,2-1.1,3.9-1.6,5.8c0.2-26.6-7.1-53.9-1.6-80.4c2.3-15.2,11.7-28.3,13-43.8c-0.9-37.3-10.9-75.6-4.1-112.6   C640.9,289.8,648.9,290,655.9,291.7z" />
	<path fill="#B28C7D" d="M854.4,130.7c1.5,0,2.8,0,4.5,0c-1.9,1.3-3.5,2.3-5.6,2.9c-0.2,0.5-1,1-0.1,1.7c2.4-2.1,5.8-2.7,8.7-3.8   c0.1,0.1,0.3,0.1,0.4,0c9.5,3.4,20.8-0.1,29.9,4.5c-9.3-1-17.9,2.4-27,2.7c-3.1,0.2-6.4-1.7-9,0.4c-21.8-2.9-41.1,11.1-62.7,10.3   c1.2-1.9,4.8-3.3,2.8-5.3c-22,13.6-48.9,9.6-72.1,18.1c-0.5-0.6-0.9-1.2-1.6-1.9c3.3-5,7.9-8.8,12.5-12.7   c-1.3-7.2-12.6,5.8-15.8,6.7c-3.7-6.4-9.3-11.2-14.5-16.4c8.7-6.5,19.6-2.3,29.6-0.6c0.2,0.2,0.6,0.8,1.2,1.6   c2.1,0.5,4.4,1,6.6,1.5c0.4,0.5,0.6,0.9,1,1.3c3.2,0,31.6-3.8,34.6-4.6c0.2,0.5,0.1,1.4,1,1.2c0.6,0.7,1.3,0.4,1.8-0.2   c-0.2-0.5-0.9-1.1-1.4-1.6c22.9-9.7,48.3-0.4,71.8-5.1c0.5,0.6,1.7,1.2,2.5,1.4C854.5,132.1,853.3,131,854.4,130.7z M786.9,138.2   c-1-0.5-1.9-0.9-3-1.5c-0.5,0.3-1,0.5-1.8,1.1c2.3,1.4,5,1.2,7.4,0.6C788.6,137.1,787.8,137.6,786.9,138.2z M846.7,135.5   c1.1-0.1,2.3-0.1,3.7-0.2C849,133.8,849,133.8,846.7,135.5z M841.2,135.7c0.5,1.3,0.9,1.3,2.4-0.2   C842.8,135.1,841.9,135,841.2,135.7z" />
	<path fill="#E6CCBB" d="M659.1,194.2c-0.4,3.8,3.5,8.3,4.9,12.2c1,2.9,5.2,4.9,4.3,8.2c-1.6,0.8-3.1,0.1-4.6-0.2   c-1.2,3.5,6.8,8.7,4.9,13.1c-1.6-0.5-3-1-4.6-1.6c-4.2,20.6-10.1,41.6-12.3,62.6c-5.7-0.1-11.4-0.2-17.2-0.3   c23.2-54.4,19.4-54.1,1.2-108.5c6-1.6,10.4-5.1,13.3-10.5c0.4,2.7,4.2,2.7,4.6,5.2c3.8,10.5,13.7,15.4,24.4,15.9   c2.4,1.9,18.1-2.4,15.3,1.9c-0.1-0.2-0.2-0.4-0.2-0.5c-0.1,0.1-0.2,0.2-0.3,0.3c0.2,0.1,0.4,0.2,0.5,0.3c-0.3,0.9-0.9,1.4-1.9,1.4   c-0.5-1.6-3.4-0.3-2.7,1.2c-0.5,0.5-1.1,0.9-1.6,1.4c-0.1-0.3-0.1-0.6-0.2-0.9c-15.9,1.3-27.3,1.9-35.5-13.7   C650.2,183.4,657.2,192.4,659.1,194.2z M650.3,179.6c0.5-1.2,0.4-1.9-0.8-2.2C648.8,178.3,649,178.9,650.3,179.6z M648.1,175.1   c-0.3-0.1-0.5-0.4-0.7,0C647.7,175.5,647.9,175.4,648.1,175.1z" />
	<path fill="#D69479" d="M716.5,440.2c-0.6-1.2-0.6-1.2,0.5-2.5c-1.4-2.3-2.7-4.7-4.7-6.7c-6.6,15.8,1,36.5,5.5,51.6   c-0.3-3.9,0.8-7.4,0.8-11.4c7.3,13.7,2.6,33.6,3.8,49.1c-0.7,0-1.5-0.1-2.4-0.1c-0.5-23.5-10.1-44.5-14.5-67.2   c-1.2-9.2-0.2-18.1,1.3-27.1c-0.5-8.7-4.3-17-5.6-25.6c-6.8-29-22.1-59.1-12.3-87.8c0.6-0.6,1.3-1.4,1.9-2c0.1,0.4,0.1,0.8,0.2,1.4   c0.7-0.5,1.3-1,1.9-1.4c0.7,0.9,1.6,1.8,2.7,3.2c1.4,8.5,2.8,17.5,4.3,26.7c2.4-2.9,1.9-5.2,4.8-6.9c-0.5,24.1-1.8,48.6,2.8,72.8   c0.6,14.9,15.9,24.8,15.1,40.2c-1.2-1.7-1.9-3.9-3.8-4.9c-0.8-0.8-0.5-2.7-2.5-2.5C716.7,439.4,716.6,439.7,716.5,440.2z" />
	<path fill="#B28C7D" d="M708.6,99.2c-1.2,2.5-1.4,5.3-2.1,8c-0.2,0.1-0.4,0.1-0.5,0.1c-0.3-0.2-0.5-0.5-0.7-0.6   c-1.2-4.4-9-1.7-11.4,0.6c-1.1,0-2.4-0.5-2.7,1.2c0.7,0.1,1.4,0.2,1.9,0.3c-0.1,0.9,0,2.1,1.4,1.9l0,0c2.4,2.2,6.2,3.5,9.3,1.9   c0.2,0,0.4,0.1,0.6,0.2c-3.1,9.4-14.8,9-20.3,2c-6-3.8-13.8-8.1-13.7-16.2c-0.5-1.4-1,1.3-2,0.6c0.3-1.8,1.7-4,0.9-5.8   c-1.3-1.4-0.8-3.1-1.1-4.8c0.5,0,1.2,0.1,1.5-0.6c1-0.2,1.9-0.5,2.3-1.6c-0.3-0.4-0.5-0.6-0.9-1.1c0.8-1.3,1.6-2.6,2.5-3.8   c-0.5-2.7,1.1-4.7,0.7-7.5c6-10.4,14.3-10.1,24.5-10.4c7.1-0.5,8.8,11.1,10.4,16.5c-2,0.7-4.4,0.5-5.3,2.9c1.8,0.7,3.3-1.1,5.2,0   c0,0.2,0.1,0.7,0.2,1.2c-3.7,0.8-4-0.2-6.9,3.1c0-0.6,0.7-1.2,0.3-2.1c-1.7,1.4-2.6,5.7-0.4,6.3c0.1-0.7,0.3-1.5,0.4-2.3   c1.3,0.3,2.1,0.7,3.1,0.1c0.7,0.2,1.5,0.3,2.3,0.5C709.6,93,709,96,708.6,99.2z M695.3,100.6c-0.1-0.5-0.2-1-0.3-1.6   c-0.1-0.5,0.9-1,0.1-1.7c-1.6,0.9-1.9,3.6,0.1,3.9c1.4,1.6,3-0.5,4.5-1.1c-0.6-0.3-1.3-0.6-1.7-0.8   C696.8,99.6,696.4,100.8,695.3,100.6z M703.9,97.3c0.5,0.7,0.9,1.4,1.3,2c-0.7,0.8-1.2,0.1-1.6,0.1c-0.6,0.5-1.3,1-2.3,1.7   c1.5,0,2.7,0,3.6,0c3.1-2.5-0.9-4.8-1.8-7.4C702.3,95.5,703,96.4,703.9,97.3z M682.6,81.2c-0.7,0.4-2.7,0.6-1.5,1.8   c0.8-0.5,2-0.2,2.8-1.1c3.4-0.9,7.1-0.2,10.3,1.2c0.6,0.4,1.5,0.5,2.2-0.2C693.2,79,686.8,79.4,682.6,81.2z M682.1,85.9   c1.5,5.3,8,4.5,12.2,3.3C694.1,82.3,686.5,84.9,682.1,85.9z" />
	<path fill="#B28C7D" d="M689.9,128c0.1,3.2,0.3,6,1.6,9.2c0.3-0.8,0.4-1.3,0.5-1.9c3.3,3,8.8,2.6,10.9,6.7c2.7,6,6.8,12.3,6.1,19   c-1.6,0.6-2.1,2.1-3.1,3.2c-2.9,0-5.9,0.1-9.2,0.1c-1.1-1.6-1.2-4.6-3.5-5.5c0.3,1.3,0.5,2.5,1.2,3.4c0,0.6,0,1.1,0,1.7   c-18,0.6-32-14.2-35.4-30.6c6-1.4,10.3-4.9,12.9-10.5C676,128.4,683.3,130,689.9,128z M670.7,139.8c-2.1-2-2.9-2.2-6.2-1.5   C665.5,140.1,668.4,139.8,670.7,139.8z M673.9,140.4c0.9,1.2,0.9,1.2,2.4,0.3C675.3,139.9,675.3,139.9,673.9,140.4z M679.8,142.1   c0.5-0.4,0.9-0.6,1.5-1.1c-1.5-0.9-1.5-0.9-2.6,0.1C678.9,141.4,679.3,141.6,679.8,142.1z" />
	<path fill="#F7EFD0" d="M717.9,527.1c0.6,1,1.2,2.1,1.8,3.2c1.3,0.1,2.5,0.2,3.7,0.3c6.3-4,4.3-17.8,14.6-11.5   c0.5,2.6,1,5.4,1.6,8.3c-4.3,1.5-10.6-0.2-12.8,4.9c0.4,0.4,0.7,0.6,1.1,1c1.7-0.6,2.8-2.5,4.8-2.4c1,0.1,2,0.4,2.7-0.5   c1.1-0.3,2.2,0.2,3.3,0.5c-0.4,0.1-0.8,0.2-1.2,0.3c-0.6-0.3-1.1-0.2-1.4,0.5c-2,1.1-6.4,2.2-3.9,5.2c3.4-3.1,7.5-3.5,11.5-4.7   c0.4,0.5,0.6,1.1,0.9,1.5c-2.5,1.6-11.4,3.1-8.2,7c2.8-2.5,6.6-2.9,9.3-5.4c1.1,1,2,1.6,2.8,2.5l0,0c6,10.2,15.9,8.9,15.5,14.5   c-0.5,1.1-1.5,0.8-2.3,0.8c-4.7-0.4-9.2,1.4-13.5,2.8c-6.1,1.5-12.2-2.6-18.5-1.6c-0.9-0.7-1.7-1.4-2.7-2.2c-1.6,0.6-3,1.3-4.7,2   c-1.7-0.9-4.1-0.8-5.9-2.5C717.2,543.5,714.8,535.2,717.9,527.1z M741.2,544.5c2.8-1.6,5.6-2.5,7.6-4.9c-0.5-0.5-0.8-0.8-1.3-1.3   C745.4,540.1,738.8,540.7,741.2,544.5z M750.9,542.6c-2.3-0.6-4.9-0.1-5,2.5C748.1,545.5,751.2,545.1,750.9,542.6z" />
	<path fill="#F7EFD0" d="M624.3,539.6c3.8-4.4,4.6-10.4,5.9-16.2c1.5-1,3.6-1.6,5.9-1.9c2.5,2.4,4.1,5.6,7.4,7.3   c1.3,8,6.9,14.5,9.9,22c1.6,5.8,10.4,8.6,7.3,15.1c-14.1-3.4-15.7,3.8-31.8-0.2c-2.7-2.1,0.5-6.9-4.4-7.6   C623.5,551.8,624.6,545.9,624.3,539.6z M640.4,536.4c-0.6-0.3-1.6,0.3-2.1-0.7c1.6-0.7,4-0.6,5-2.3c-1.7-4-17.1,4.1-10.4,6.2   c0.3,1.3-0.5,3.5,1.5,3.6c2.9-5,5.7-2.8,9.6-5.1C643.4,536.4,642,536.6,640.4,536.4z M635.1,546.8c3.6-1.5,7-2.8,10.5-4.3   C645.9,538.3,632.4,544,635.1,546.8z M637.8,551.4c2.7-2,8.7-2.1,8.5-5.5C644,545.6,635.9,548.2,637.8,551.4z M639.6,554   c1.3,1.3,9.3-0.9,8.9-2.9C645.9,550.1,640.9,551.6,639.6,554z" />
	<path fill="#977264" d="M629.1,154c-0.6-0.6-1.3-1.4-2-2c0.4-0.1,0.8-0.1,1.4-0.2c-0.9-2-1.9-5.8-4.8-4.4c-0.6-0.9-1.3-1.8-1.9-2.7   c0.4-0.1,0.7-0.2,1.2-0.3c-0.7-0.9-1.4-1.6-1.9-2.3c12.6,2.2,14.8,21.2,26.1,25.4c-1.9,4.9-6.5,10.4-12.3,9.7   c-0.5-1.8-4.8-11.8-6.5-10.9c-10.4-0.8-20.5-2.2-30.9-3.5c-27.6-4.1-54.8-13.1-80.1-25c-11.7,3.7-24-1.8-36.1-0.4   c8.4-1.7,18.2-0.1,27.1-0.5c6.5-0.4,13.1-2.3,19.4,0c-0.6,2-2.4,0.8-3.6,1.6c15.9,7.8,31.6,15,49.6,11.2c0.5,0.4,1.1,1,1.7,1.6   c-0.4,1.5-1.8,1.7-3,2.6c20.3,7.3,43.5,1.9,63.1,13.3c0.2-0.3,0.5-0.8,0.8-1.4c-0.4-0.9-0.8-1.9-1.3-2.9c1.8-0.9-0.3-4.3-2-3.6   c0,0.4-0.1,0.7-0.1,1c-0.6-1.1-1.3-2.3-1.9-3.4C633.3,155.8,630,152.5,629.1,154z M637.4,165.2c0.3,0.1,0.5,0.4,0.7,0   C637.9,164.8,637.7,164.7,637.4,165.2z" />
	<path fill="#977264" d="M724,162.1c23.2-8.4,50.1-4.5,72.1-18.1c2,2-1.6,3.4-2.7,5.3c21.6,0.8,40.9-13.2,62.7-10.3   c2.6-2.1,5.9-0.3,9-0.5c-8.9,3.8-19.1,0.2-28.3,3.7c-12.4,3.4-24.5,8.1-37,10.4c-23.8-0.2-45.4,10.5-69.3,11.4   c-0.2-0.3-0.6-0.7-1.1-1.3c-0.9,0.8-1.8,1.6-2.9,2.6c-0.8-0.9-1.6-1.7-2.4-2.6C724,162.5,724,162.3,724,162.1z M731.6,161.2   c1.1,0.6,1.6,0.2,2.3-0.8C732.8,159.9,732,160.1,731.6,161.2z" />
	<path fill="#977264" d="M689.9,128c-6.6,1.9-13.7,0.5-17.8-5.1c-2.7,5.5-6.9,9.2-12.9,10.5c-0.5-1.1-1-2.2-1.4-3.1   c9.4-6.1,10.5-14,10.2-24.9c1.1-1.6,0.4-2.8,0.8-5.1c1.9,4.9,3.8,9,8.6,11.1c0.3-0.4,0.4-0.5,0.5-0.6c2.1,1.6,5.1,2.7,6.7,4.7   c-0.4,0-0.8,0.1-1.6,0.2c2.5,2.5,5.2,3.5,8.1,5.3C690.3,123.1,690,125.6,689.9,128z" />
	<path fill="#EADCB7" d="M717.9,527.1c-3,8.1-0.7,16.4-1.3,24.7c1.7,1.6,4.1,1.6,5.9,2.5c1.6-0.7,3.1-1.4,4.7-2   c1,0.7,1.8,1.5,2.7,2.2c6.3-1,12.4,3,18.5,1.6c4.3-1.5,8.8-3.2,13.5-2.8c0.8,0.1,1.8,0.3,2.3-0.8c0.5,1.7,1.5,3.3,1.2,5.1   c-10.6,5.8-24.6,5.9-35.4,0.4c-1.7-0.9-3.5-1.3-5.4-0.6c-4.6,1.5-9.3-1-13.9-1.6c4.6-10.2,1.2-21.2,5.1-31.6   C717.3,525.1,717.3,525.1,717.9,527.1z M752.8,559c2.3-1.3,4-2.7,6.8-2.6c1.8-0.1,3.3,0.4,4.9-1.1c-3.5-1.6-10.8-1.6-12.6,2.7   C752.3,558.3,752.5,558.5,752.8,559z" />
	<path fill="#EADCB7" d="M624.3,539.6c0.4,6.3-0.8,12.3,0.2,18.5c4.9,0.7,1.7,5.5,4.4,7.6c16.1,4,17.6-3.2,31.8,0.2   c-0.1,0.3-0.2,0.5-0.3,0.8c-3.6-0.5-6.8-1-10.4-0.8c-0.9,0.7-1.8,1.5-2.7,2.2c-0.8,3.5,5.8-2.4,12.6,0.5   c-10.8,3.2-22.3,3.3-33.3,1.1c-1-2.8-0.3-6.2-2.6-8.2c-0.3,1.1-0.5,1.9-0.6,2.7c-1.4,0.6-3-0.2-4.8-0.2c3.1-8.6,2.1-17,2.3-25.8   C622.1,539.2,622.8,539.6,624.3,539.6z" />
	<path fill="#E6CCBB" d="M707.9,198.8c-1.5,0-2.3-1.3-3.3-2c0.2-0.3,0.4-0.6,0.5-0.9c-1.2-0.6-2.2-0.4-3.1-0.3   c-5.2-3.9-1.9-7.9,2.5-11.5c10.3,8.4,11.7,12.1,26.1,10.1c-1.1,3.8-5.1,6-8.6,7.3c-0.6-1.5-2.7,0.1-3.4-1.3c1.4-0.2,2,0.1,3-1.2   c-3.8,0.1-7.3-1.2-10.3,0.5C710.2,199.4,708.9,199.8,707.9,198.8c0.6,0,1.3,0,1.9,0c0-0.2,0.1-0.3,0.1-0.5   c-0.7-0.3-1.6-0.6-2.7-1.1C707.6,198.1,707.8,198.5,707.9,198.8z" />
	<path fill="#92909E" d="M673.2,63.8c5.5-6.1,17.4-8.9,24.2-3.7c-7,0.3-14.8,1-20.7,5.8C675.6,65.3,674.4,64.5,673.2,63.8z" />
	<path fill="#8E8791" d="M673.2,63.8c1.2,0.7,2.4,1.4,3.5,2.1c-4.2,4.7-7.8,10.3-9,16.5c-0.7,0.5-0.6,1.4-0.6,2.1l0,0   c-0.6-0.2-1.4-0.4-2-0.5C664.6,77.2,667.9,68.6,673.2,63.8z" />
	<path fill="#8A6C60" d="M720.3,522.5c1.9,0.2,3.7,0.4,5.6,0.5c-0.4,2.2-1.8,3.9-3.7,5.1C719.8,527.2,719.8,527.2,720.3,522.5z" />
	<path fill="#28201D" d="M665.1,83.9c0.6,0.2,1.4,0.4,2,0.5c0.5,0.9,0.8,1.8,1.3,2.8c-0.3,0-0.5,0-1.2,0.1c0.5,0.5,0.8,0.8,1.1,1.1   c0.1,0.2,0.1,0.4,0.1,0.5c-3-0.3-3.8,3.3-1.3,4.8c-0.6,0-1.4,0-2,0.1l0,0c0-0.3,0-0.5-0.1-0.8c-0.2-0.2-0.4-0.4-0.6-0.5   c-0.2-1.7,0.7-3.1,2.1-4.4c-1-0.8-1.8-1.6-2.7-2.3C664.3,85.2,664.6,84.5,665.1,83.9z M666,86.5c0.5-0.7,0.3-1.3-0.5-1.1   C665.7,85.7,665.8,86,666,86.5z" />
	<path fill="#1B1311" d="M671.8,106.6c-1.7-1.6-1.7-3.9-3.1-6.4c-0.5,2.3,0.4,3.5-0.8,5.1c0-2.1,0-4.1,0-6.2c0.2,0,0.5,0,0.6-0.1   c0.6,0.4,0.9-0.3,1.3-0.6c0.3,0,0.5,0,0.7,0c-0.1,2.7,1.1,4.9,2.1,7.3C672.3,106.2,672.1,106.3,671.8,106.6z" />
	<path fill="#6F5349" d="M665.9,97.2c-2.4-2.4-5.1-5.9-2.7-9.3c1.6,0.4,1.7,0.7,0.6,2c-0.8-1.1-1,2.4,0,2.7l-0.1-0.1   c0.3,0.3,0.5,0.5,0.7,0.7l0,0c0.2,0.3,0.5,0.5,0.6,0.7l0,0C665.4,94.9,667.1,96.4,665.9,97.2z" />
	<path fill="#8B6B5E" d="M668.6,99.1c-0.2,0-0.5,0-0.6,0.1c-0.2-0.2-0.5-0.5-0.6-0.6c0.5-1.6,0-3.2-0.7-4.7c0.2,0,0.5,0,0.6,0   c0.8,0.5,1.6,1,2.7,0.6C669.4,96.1,669,97.5,668.6,99.1z" />
	<path fill="#24211F" d="M705.9,164.2c1-1.1,1.6-2.6,3.1-3.2c0.2-0.1,0.2-0.5,0.3-0.9c0.5,0.2,0.8,0.5,1.3,0.6   c-0.6,2.4-2.3,3.6-4.6,4.1C706,164.6,706,164.4,705.9,164.2z" />
	<path fill="#816458" d="M663.8,89.9c1-1.3,0.9-1.6-0.6-2c0-0.7-0.2-1.6,0.6-2c0.9,0.7,1.7,1.5,2.7,2.3c-1.3,1.4-2.3,2.7-2.1,4.4   l0,0c-0.3,0-0.5,0-0.7,0l0.1,0.1C663.8,91.7,663.8,90.8,663.8,89.9z" />
	<path fill="#73564B" d="M625.5,531.3c0.2,2.4,0.2,2.4-0.9,4.3C622.8,535.1,623.9,531.9,625.5,531.3z" />
	<path fill="#B07560" d="M625.6,520.2c0.3,2.5-0.5,5.1,0.6,7.4c0,0.7,0,1.4-1,1.2C625,526,625,522.3,625.6,520.2z" />
	<path fill="#A5B19A" d="M738.6,530.9c-0.6-0.2-1.4-0.5-2-0.6c1.6-0.6,3.3-0.8,5.1-1.1c0.1,0.2,0.2,0.5,0.5,0.9   C741,530.6,739.9,531.1,738.6,530.9z" />
	<path fill="#2A1C19" d="M666.5,93.9c0.7,1.5,1.3,2.9,0.7,4.7c-0.7-0.2-1.2-0.6-1.4-1.4c1.3-0.7-0.5-2.3-0.7-3.2   C665.6,93.9,666,93.9,666.5,93.9z" />
	<path fill="#322521" d="M694.4,162.2c-0.7-1-0.9-2.1-1.2-3.4c1.1,0.5,1.7,1.1,1.9,2C694.9,161.3,694.7,161.7,694.4,162.2z" />
	<path fill="#816458" d="M668.3,88.6c-0.4-0.4-0.6-0.6-1.1-1.1c1.2-0.2,1.6,0.1,2.7,0.5C669.6,88.7,669,88.6,668.3,88.6z" />
	<path fill="#A5B19A" d="M735.4,530.5c-0.8,0.9-1.8,0.6-2.7,0.5C733.4,530.3,734.4,530.3,735.4,530.5z" />
	<path fill="#4C2E25" d="M689.2,312.5c0.9,0.7,0.9,1,0.1,2.1c-0.3-0.3-0.5-0.5-0.8-0.8C688.8,313.3,688.9,312.9,689.2,312.5z" />
	<path fill="#393E3E" d="M631.5,63.6c-0.4,0.3-0.7,0.8-1,0.3C630.8,63.4,630.9,63,631.5,63.6z" />
	<path fill="#28201D" d="M667.1,84.5c0-0.7-0.2-1.6,0.6-2.1C667.8,83.2,668.1,84.1,667.1,84.5z" />
	<path fill="#627272" d="M634.7,53.7c-0.5-0.8,0.1-1,1-1.3C635.3,53.3,635.4,53.4,634.7,53.7z" />
	<path fill="#606E6E" d="M635.5,48.9c-0.3,0.4-0.5,0.6-0.8,1C634.5,48.7,634.5,48.7,635.5,48.9z" />
	<path fill="#494949" d="M662.8,27.3c-0.3,0.4-0.5,0.3-0.8,0C662.3,27,662.5,27.2,662.8,27.3z" />
	<path fill="#977264" d="M659.1,134c0.7,0.3,0.6,0.9,0.5,1.5C659.1,135.1,659.1,134.6,659.1,134z" />
	<path fill="#A5B19A" d="M736.1,531.7c0.3-0.6,0.8-0.7,1.4-0.5C737,531.4,736.5,531.5,736.1,531.7z" />
	<path fill="#1B1815" d="M748.7,537.8c-0.2-0.3-0.5-0.5-0.6-0.7C748.2,537.4,748.4,537.5,748.7,537.8z" />
	<path fill="#1B1815" d="M749.3,538.5c-0.2-0.3-0.5-0.5-0.6-0.7C748.9,538,749.2,538.3,749.3,538.5z" />
	<path fill="#957063" d="M734,148.1c-0.7,0.6-1.4,1.2-2.1,1.8c0.2-2.8-4.2-0.2-3.2,1.7c0.5,0.1,0.8,0.1,1.1,0.1   c-1.3,1.2-2.4,2.6-3.9,3.5c0.2-0.7,0.5-1.5,0.6-2.2c-1.9-1.1-3.5,2.8-5.1,3.8c-1.2-0.6-1.8-1.6-2.3-2.9c4.2-1.3,10.4-11.2,15.5-8.1   C733.8,146.5,732.6,147.6,734,148.1z" />
	<path fill="#32221E" d="M691.1,120.7c-2.8-1.8-5.6-2.8-8.1-5.3c0.7-0.1,1.1-0.1,1.6-0.2c2.1,2.1,4.9,3.2,7.4,4.6   C691.7,120.2,691.4,120.5,691.1,120.7z" />
	<path fill="#040202" d="M780.2,137.3c1,0.9-0.8,1.6-1.5,0.7C779,137.3,779.7,137.3,780.2,137.3z" />
	<path fill="#F5DDCE" d="M704.6,140.6c-0.2-0.1-0.3-0.2-0.5-0.2C704.6,140.1,704.6,140.4,704.6,140.6L704.6,140.6z" />
	<path fill="#98796C" d="M473.7,136.1c-0.5,1-1.1,2-1.6,3.1c-0.7,0-1.6,0.1-2.7,0.2C469.6,137.1,471.2,135.8,473.7,136.1z" />
	<path fill="#997E70" d="M488.1,130.2c2.1,0,4,0,6,0C492.2,131.1,488.2,133.7,488.1,130.2z" />
	<path fill="#3D2C28" d="M510.7,130.6c-4.6-0.2-7.7,1.6-12.5,2c3.3-2.1,7.8-3.1,11.7-3.4c0.3,0.3,0.5,0.5,0.7,0.8   C510.7,130.2,510.7,130.4,510.7,130.6z" />
	<path fill="#5F4E45" d="M510.7,130c-0.3-0.3-0.5-0.5-0.7-0.8c0-0.2,0-0.3-0.1-0.5c1.2,0.1,1.6,0.3,2.8,1   C511.8,129.9,511.3,129.9,510.7,130z" />
	<path fill="#2D342E" d="M883.7,132.7c-1.3,0-2.7-0.1-3.9-0.1c0-0.2,0-0.4,0-0.5c1.7,0,3.6-0.1,5.3-0.1c0.1,0.2,0.1,0.5,0.2,0.6   C884.7,132.7,884.3,132.7,883.7,132.7z" />
	<path fill="#8E7B6D" d="M870.5,131.3c2.5-1.7,5-1.5,7.7-0.5C876.4,132.2,872.9,131.2,870.5,131.3z" />
	<path fill="#281817" d="M871.1,131.4c1.7,0,3.6,0,5.3,0C874.5,132.3,872.9,132.2,871.1,131.4z" />
	<path fill="#271E1B" d="M865.8,131.9c-1.2,0-2.4,0.3-3.5-0.5C863.4,131.5,864.7,130.8,865.8,131.9z" />
	<path fill="#281817" d="M879.8,132c0,0.2,0,0.4,0,0.5c-0.5,0-1.1,0-1.6,0c0-0.2,0-0.3,0-0.5C878.7,132.2,879.2,132.1,879.8,132z" />
	<path fill="#342C28" d="M706,89.2c-1.1,0.7-1.8,0.3-3.1-0.1c-0.2,0.8-0.3,1.6-0.4,2.3c-0.6,0.1-1-0.3-1.1-0.9   c0.9-0.5,0.5-1.5,0.7-2.2c0.1,0,0.2,0,0.2,0c-0.1-0.1-0.2-0.2-0.3-0.2c0.5-1.2,1.8-1.8,2.6-2.9c0,0.7,0.4,1.4,0.6,2   c-1.6-0.4-1.5,1.9,0.1,1.4v-0.1C705.5,88.7,705.7,89,706,89.2L706,89.2z" />
	<path fill="#BCC4C2" d="M705.3,88.6c-1.6,0.5-1.6-1.7-0.1-1.4C705.3,87.6,705.3,88.1,705.3,88.6z" />
	<path fill="#353D3C" d="M708.3,86.9c-0.3,0.1-0.5,0.4-0.8,0C707.8,86.8,708.1,86.5,708.3,86.9z" />
	<path fill="#B28C7D" d="M706,89.2c-0.3-0.3-0.5-0.5-0.7-0.7C705.5,88.7,705.7,89,706,89.2z" />
	<path fill="#59473F" d="M706,107.3c0.2,0,0.4,0,0.5-0.1c-0.5,1.6-0.8,3.2-1.3,4.8c-0.2,0-0.5,0.1-0.6,0.1l-0.1-0.1   c0-0.5,0.1-1.1-0.5-1.3C704.2,109.3,704.8,108.2,706,107.3z" />
	<path fill="#59473F" d="M704.5,112.8c-0.2-0.1-0.4-0.1-0.6-0.2c0.2-0.2,0.5-0.5,0.6-0.6l0.1,0.1   C704.6,112.2,704.5,112.5,704.5,112.8z" />
	<path fill="#56433B" d="M856.4,133.4c-1.2,0.5-2.3,1.1-3.2,1.9c-0.9-0.7-0.1-1.2,0.1-1.7c0.8-0.3,1.6-0.6,2.4-0.9   C856,132.9,856.1,133.1,856.4,133.4z" />
	<path fill="#D69479" d="M720.1,408.7c-4-1.3-9.3-3.8-7.9-9.3c0.7-0.5,1.7-0.9,2.7-1.5c2.8,1.3,5,3.1,5,6.4c0,1,1.1,1,1.4,1.6   C719.8,406.5,719.8,406.5,720.1,408.7z" />
	<path fill="#C68970" d="M653,400.8c-2.6-1.8-4.3-4.1-3.8-7.5c2.1-2.5,2.6-2.6,4.7-0.6l-0.2,0.2c-0.3,0.1-0.6,0.2-1,0.2   c-0.5,2.6-0.1,5,0.6,7.5C653.2,400.6,653.1,400.7,653,400.8z" />
	<path fill="#261A16" d="M651.5,440.8c1.2,2.7-1.2,7.6-3.6,9.4C647.8,447.7,649.5,441.8,651.5,440.8z" />
	<path fill="#251B16" d="M726.6,394.4c1.7,3.2-0.6,5.7-2.5,8.4C723.6,399.8,725.2,397.3,726.6,394.4z" />
	<path fill="#3F2C24" d="M716.5,440.2c0.1-0.4,0.1-0.8,0.2-1.2c2-0.2,1.6,1.7,2.5,2.5c-0.1,0.8,0.4,1.7-0.5,2.5   C717.2,443.1,717.5,441.3,716.5,440.2z" />
	<path fill="#66473B" d="M678.1,314.2c-2.1-0.5-3.9-1.3-5.9-3C675,311.3,676.7,312.7,678.1,314.2z" />
	<path fill="#14100D" d="M646.9,452c1.1,2.1,1.1,2.1,0.1,4.3C645.7,454.8,645.7,454.8,646.9,452z" />
	<path fill="#34231D" d="M657,401.6c0.2,1.2,0.5,2.3,0,3.8c-1.6-0.8-1.5-2.3-1.8-3.8C655.8,401.5,656.4,401.5,657,401.6z" />
	<path fill="#32241E" d="M720.9,452.1c-1.6-0.8-1.5-2.7-2.5-4.2C720.8,448.6,721.8,450.3,720.9,452.1z" />
	<path fill="#34211B" d="M693.2,310.5c-0.5,0.5-1.1,0.8-1.9,1.4c-0.1-0.6-0.1-1-0.2-1.4c0.8-0.9,1.4-2.2,2.7-2.7   C694.5,309,693.4,309.6,693.2,310.5z" />
	<path fill="#A97562" d="M667.1,302.4c2.3,0.5,4,2.2,6,3.3C670.8,305.8,668.7,304.3,667.1,302.4L667.1,302.4z" />
	<path fill="#0E0908" d="M644,465.4c-0.6-1.3-0.6-1.3,0.2-3.4C645.2,463.1,645.5,464.7,644,465.4z" />
	<path fill="#B37C66" d="M654.6,394.5c0.9,1.9,0.4,4.1,0.6,6.1l0,0c-0.2,0-0.4,0-0.6,0.1c-0.1-0.1-0.2-0.2-0.3-0.3   c0-1.9,0-3.8,0-5.8C654.5,394.7,654.6,394.6,654.6,394.5z" />
	<path fill="#422F28" d="M720.1,408.7c-0.4-2.1-0.3-2.2,1.2-2.7C721.5,407.1,721.4,408.2,720.1,408.7z" />
	<path fill="#482D26" d="M721.8,456.9c-1.6,0-1.6-0.8-1.7-1.6C721,454.1,721.4,456,721.8,456.9z" />
	<path fill="#B27E69" d="M674.5,306.5c0.9,0.4,1.6,1,2,1.9l0,0C675.4,308.7,674.4,307.7,674.5,306.5z" />
	<path fill="#794F43" d="M722,461c-0.5,0.2-0.7,0.4-0.9,0.5C720.4,460.4,721.2,460,722,461z" />
	<path fill="#A16F5D" d="M674.5,306.5c0,0.3,0,0.5,0,0.7c-1-0.1-1.6-0.5-2.1-1.4c0.3,0,0.5,0,0.7,0   C673.6,306,674.1,306.3,674.5,306.5z" />
	<path fill="#B37C66" d="M657,401.6c-0.6,0-1.2,0-1.8-0.1c0-0.3-0.1-0.5-0.1-0.8l0,0C655.8,400.8,656.9,400.3,657,401.6z" />
	<path fill="#B37C66" d="M654.5,393.3c0.1,0.4,0.1,0.8,0.2,1.2c-0.1,0.1-0.2,0.2-0.3,0.2c-0.2-0.5-0.3-0.9-0.5-1.5   C654.1,393.3,654.3,393.3,654.5,393.3z" />
	<path fill="#B37C66" d="M654.6,400.8c-0.5,0.7-1,0.6-1.5-0.1c0.1-0.1,0.2-0.2,0.3-0.2c0.4,0,0.6,0,1,0   C654.4,400.7,654.5,400.8,654.6,400.8z" />
	<path fill="#A97562" d="M667.1,302.4c-0.3-0.1-0.6-0.1-1.6-0.3C666.8,302,666.8,301.7,667.1,302.4L667.1,302.4z" />
	<path fill="#B27E69" d="M676.6,308.5c0.2,0.1,0.3,0.2,0.5,0.3C676.6,309.1,676.7,308.7,676.6,308.5L676.6,308.5z" />
	<path fill="#C68970" d="M654.5,393.3c-0.2,0-0.4,0-0.5,0c-0.2-0.2-0.2-0.4-0.3-0.5l0.2-0.2C654.1,392.9,654.3,393.1,654.5,393.3z" />
	<path fill="#E5CCBB" d="M660.5,265.8c-1-2.4-0.9-2.6,1.4-3.4c8.3,6.4,10.5,17,14.4,26.1c0.3,0.6,0.5,1.2-0.3,1.9   c-3.4-1.7-4.8-6-8.2-7.9c0.8-1.3,0.8-1.6-0.8-2.7c0.1,0.6,0.1,1,0.2,1.4l-0.1,0.1c-1.8-2.6-1.4-6.1-3.8-8.1c1.5-0.2,1-2.7-0.6-2.7   c-0.1,0.5-0.1,0.9-0.2,1.3c-0.9-1.3-0.4-2.8-1.1-4.1C662.4,266.9,661.8,265.6,660.5,265.8z" />
	<path fill="#0E0A0A" d="M655.1,186.8c6.8,11.2,20.7,8.8,31.9,8.3c0.1,0.3,0.1,0.6,0.2,0.9C678.3,199.7,654.7,199.1,655.1,186.8z" />
	<path fill="#39302D" d="M715.1,269.9c0.5,3.5-0.6,6.9-3,9.6C712.1,276.6,713.1,272,715.1,269.9z" />
	<path fill="#330E0C" d="M711.4,199.5c2.9-1.6,6.5-0.4,10.3-0.5C718.9,201.6,714.8,199.3,711.4,199.5z" />
	<path fill="#433A36" d="M708.9,250.7c-0.9-1.8-1.4-4.1-1.6-6.5C709.2,246.2,709.7,248.1,708.9,250.7z" />
	<path fill="#1D1615" d="M706.9,241.6c-1.3-1.8-1.3-1.9,0-3.8C708,239.1,707.8,240.3,706.9,241.6z" />
	<path fill="#59534D" d="M688.8,194.7c-0.7-1.5,2.1-2.9,2.7-1.2C690.7,194.3,689.8,194.7,688.8,194.7z" />
	<path fill="#655651" d="M710.3,282.6c0.5,1.2-0.1,1.8-0.7,2.5c-0.3-0.1-0.6-0.3-0.7-0.4C708.8,283.7,709.3,283.1,710.3,282.6z" />
	<path fill="#81514C" d="M702,195.6c1-0.1,1.9-0.5,3.1,0.3c-0.2,0.4-0.4,0.6-0.5,0.9C703.7,196.5,702.9,196.1,702,195.6z" />
	<path fill="#332B27" d="M662.4,271.7c0.1-0.4,0.1-0.8,0.2-1.3c1.6-0.1,2.1,2.5,0.6,2.7C662.9,272.6,662.6,272.2,662.4,271.7z" />
	<path fill="#55413D" d="M706.3,289.1c0.5-0.7,0.8-1.3,1.3-2C708.1,288.9,708,289.1,706.3,289.1z" />
	<path fill="#97867D" d="M706.8,225.1c0.5,1.1,0.8,1.5,1.1,1.9C706.6,227.3,706.6,227.3,706.8,225.1z" />
	<path fill="#82746D" d="M707.8,230.2c0,0.6,0,1.2,0,1.8C706.4,231.1,706.4,230.9,707.8,230.2z" />
	<path fill="#705D56" d="M660.5,265.8c1.3-0.2,1.9,1.2,0.7,1.8l0,0c-0.2-0.3-0.5-0.5-0.6-0.7C660.5,266.6,660.5,266.1,660.5,265.8z" />
	<path fill="#E5CCBB" d="M667.8,282.4c-0.3-0.5-0.5-0.8-0.7-1.3l0.1-0.1c0.3,0.4,0.5,0.7,0.8,1.1   C667.9,282.3,667.9,282.3,667.8,282.4z" />
	<path fill="#E5CCBB" d="M660.5,266.9c0.2,0.3,0.5,0.5,0.6,0.7C661,267.4,660.7,267.2,660.5,266.9z" />
	<path fill="#7D5550" d="M707,236.1c-0.1-0.1-0.2-0.2-0.3-0.2c0.2-0.3,0.3-0.3,0.5,0C707.1,236.1,707,236.1,707,236.1z" />
	<path fill="#140D0B" d="M621,142c0.5,0.7,1.2,1.4,1.9,2.3c-0.5,0.1-0.8,0.2-1.2,0.3c-2.8-2.3-6.5-3.3-9.3-5.3v0.1   C615.5,137.2,618.4,140.5,621,142z" />
	<path fill="#1D1311" d="M612.2,147.8c-3.6,1.6-7.2,0.8-11,0.4c2.9-1.5,6.5-0.2,9.6-1.4C611.5,146.5,611.7,146.8,612.2,147.8z" />
	<path fill="#201613" d="M623.7,147.4c2.8-1.4,3.8,2.4,4.8,4.4c-0.6,0.1-1,0.2-1.4,0.2C626,150.4,624.9,148.9,623.7,147.4z" />
	<path fill="#231916" d="M633,160.1c0-0.4,0-0.6,0.1-1c1.7-0.7,3.9,2.7,2,3.6C634.4,161.8,633.8,161,633,160.1z" />
	<path fill="#1F1715" d="M629.1,154c0.9-1.6,4.2,1.7,2,2.7C630.5,155.8,629.7,154.9,629.1,154z" />
	<path fill="#241613" d="M612.4,139.3c-1.2,0.1-2.4,0.5-3.3-0.6C610.5,137.9,610.5,137.9,612.4,139.3L612.4,139.3z" />
	<path fill="#665048" d="M564.2,139.6c-0.6,0.3-0.9,0.5-1.6,0.2C562.4,138.6,564,138.3,564.2,139.6z" />
	<path fill="#4E3631" d="M596.1,147.6c-1,0.9-1.8,0.4-3,0.3C594.2,147.1,595.1,147.1,596.1,147.6z" />
	<path fill="#3F1A18" d="M560.1,140.2c-0.4,0.7-0.7,1.1-1.4,0.6C558,140.1,559.4,139.9,560.1,140.2z" />
	<path fill="#251A18" d="M497,133c-0.3,0.1-0.6,0.4-0.8,0C496.4,133,496.7,133,497,133z" />
	<path fill="#977264" d="M621,144.2c0.3,0.2,0.5,0.3,0.7,0.5C621.5,144.5,621.3,144.4,621,144.2z" />
	<path fill="#201715" d="M729.9,151.9c-0.4,0-0.6-0.1-1.1-0.1c-1-2,3.3-4.6,3.2-1.7C731.3,150.6,730.6,151.3,729.9,151.9z" />
	<path fill="#402F2A" d="M786.9,138.5c-1.9,0.2-3.2,0.5-4.9-0.8c0.8-0.5,1.4-0.8,1.8-1.1c1.1,0.5,2.1,1,3,1.5   C786.9,138.3,786.9,138.4,786.9,138.5z" />
	<path fill="#0F0907" d="M846.7,135.5c2.3-1.6,2.3-1.6,3.7-0.2C849,135.4,847.8,135.4,846.7,135.5z" />
	<path fill="#382622" d="M734,148.1c-1.5-0.6-0.3-1.7,0.6-2.1C736.1,146.7,734.9,147.7,734,148.1z" />
	<path fill="#322924" d="M841.2,135.7c0.7-0.6,1.6-0.6,2.4-0.2C842.1,137,841.7,137,841.2,135.7z" />
	<path fill="#0E0A09" d="M786.9,138.5c0-0.1,0-0.3,0-0.4c0.8-0.6,1.6-1.1,2.5,0.2C788.5,139,787.8,138.9,786.9,138.5z" />
	<path fill="#302825" d="M655.1,186.8c-0.6,0.2-0.6,0.8-0.6,1.3c-0.9-1.6-1.8-3-2.8-4.6c0.3-0.3,0.6-0.6,0.8-0.8   C653.9,183.8,654.5,185.4,655.1,186.8z" />
	<path fill="#3E3632" d="M650.3,179.6c-1.2-0.7-1.5-1.4-0.8-2.2C650.5,177.8,650.7,178.4,650.3,179.6z" />
	<path fill="#655049" d="M652.5,182.8c-0.3,0.3-0.5,0.5-0.8,0.8c-0.6-0.5-1-1.1-0.2-2.1C651.9,182,652.2,182.3,652.5,182.8z" />
	<path fill="#B5978B" d="M648.1,175.1c-0.3,0.3-0.5,0.4-0.7,0C647.7,174.7,647.9,175,648.1,175.1z" />
	<path fill="#6B5B54" d="M693.2,192.1c-0.2-0.1-0.4-0.2-0.5-0.3c0.1-0.1,0.2-0.2,0.3-0.3C693.1,191.9,693.2,192,693.2,192.1   L693.2,192.1z" />
	<path fill="#140E0D" d="M682.1,85.9c4.4-1.1,11.9-3.7,12.2,3.3C690,90.5,683.5,91.2,682.1,85.9z M685.4,87.5c1,1,1,1,2.7,1.3   c-0.1-0.6-0.2-1.3-0.2-2C686.8,87,686.1,87.2,685.4,87.5z M691.5,86.9c-0.1,0.3-0.3,0.5,0.1,0.7C691.8,87.4,691.9,87.2,691.5,86.9z   " />
	<path fill="#8C6D5F" d="M704.6,108.6c-0.6,5.6-6.6,2.7-10.1,1.9l0,0c-0.1-0.2-0.1-0.3-0.2-0.5c-0.2,0.2-0.3,0.3-0.5,0.5   c-1-0.4-0.6-1.2-0.7-1.9C697,108.7,700.8,108.6,704.6,108.6z" />
	<path fill="#20110F" d="M682.6,81.2c4.3-1.8,10.5-2.2,13.8,1.6c-0.7,0.8-1.6,0.5-2.2,0.2c-2.4-1.4-5.1-1.1-7.8-1.6   C685.4,81.1,683.3,82.8,682.6,81.2z" />
	<path fill="#2E1B18" d="M704.6,108.6c-4.5-0.1-8.9,0.4-13.3-0.2c0.2-1.5,1.2-1.3,2-1.2c0.1,0.2,0.2,0.3,0.3,0.5   c0.1-0.2,0.2-0.3,0.3-0.5c0.3,0,0.5,0,0.7,0.1h-0.1c2.9,1.6,7.8,0.5,10.7-0.6h-0.1c0.3,0.2,0.5,0.5,0.7,0.6   C705.5,107.7,705.1,108.2,704.6,108.6z" />
	<path fill="#2E1B18" d="M694.5,106.6c2.7-1.6,9.7-4.2,10.7,0h0.1c-0.6-0.5-1.3-0.8-2-1.4c-1.2,1.2-2.6,0.3-3.7,0.1   c-2,0.4-3.2,1.9-5,1.9h0.1C694.6,107.1,694.5,106.8,694.5,106.6z" />
	<path fill="#2F201C" d="M694.5,110.7c2.9,0.4,7.2,3.1,9.4,0c0.6,0.2,0.5,0.7,0.5,1.3C701.8,114.6,697,112.9,694.5,110.7z" />
	<path fill="#553F37" d="M671.8,106.6c0.3-0.3,0.5-0.5,0.8-0.8c1.7,1.6,3.5,3.2,5.2,4.8c-0.1,0.2-0.3,0.4-0.5,0.6   C674.9,110.5,673.4,108.5,671.8,106.6z" />
	<path fill="#2A1C19" d="M669.8,94.5c-1.6,0.5-2.9-0.9-3.9-1.9c0.4,0,0.6-0.1,1.2-0.1c0.4-0.9,0.3-2.2,1.6-2.6   C668.2,91.7,669.5,92.9,669.8,94.5z" />
	<path fill="#362924" d="M704.6,96.5c1.2,1.4,2.3,3.2,0.2,4.6c-0.9,0-2,0-3.6,0c0.9-0.7,1.6-1.3,2.3-1.7c0.5,0,1,0.7,1.6-0.1   c-0.4-0.6-0.8-1.3-1.3-2C704.2,97,704.3,96.8,704.6,96.5z" />
	<path fill="#362521" d="M695.3,100.6c1.1,0.2,1.6-1,2.7-1.3c0.5,0.2,1.1,0.5,1.7,0.8c-1.5,0.6-3.1,2.7-4.5,1.1   C695.3,101,695.3,100.8,695.3,100.6z" />
	<path fill="#816458" d="M668.5,89.9c-1.3,0.4-1.2,1.6-1.6,2.6c-0.5,0.1-0.8,0.1-1.2,0.1c-1.1-1.7,0.8-3.8,2.6-3.5   C668.4,89.4,668.5,89.7,668.5,89.9z" />
	<path fill="#140F0E" d="M695.3,100.6c0,0.2,0,0.5,0,0.6c-2-0.5-1.8-3-0.1-3.9c0.8,0.7-0.2,1.2-0.1,1.7   C695.1,99.6,695.2,100,695.3,100.6z" />
	<path fill="#2B1E1A" d="M702.5,87.3c-0.9,0.9,0,2.5-1.2,3.3c-0.3-1.9-0.5-3.8,1.4-5.4C703.2,86,702.5,86.6,702.5,87.3z" />
	<path fill="#52463E" d="M682.6,81.2c0.2,0.7,0.8,0.5,1.4,0.6c-0.7,1-1.9,0.6-2.8,1.1C680,81.9,681.9,81.6,682.6,81.2z" />
	<path fill="#7D6156" d="M704.6,96.5c-0.3,0.3-0.5,0.5-0.7,0.7c-0.9-0.8-1.6-1.7-0.9-3.6C703.6,94.9,704.2,95.7,704.6,96.5z" />
	<path fill="#8C6B5E" d="M693.9,107.3c-0.1,0.2-0.2,0.3-0.3,0.5c-0.1-0.2-0.2-0.3-0.3-0.5C693.5,107.3,693.7,107.3,693.9,107.3z" />
	<path fill="#8C6B5E" d="M694.5,106.6c0,0.3,0,0.5,0.1,0.7c-0.3,0-0.5,0-0.7-0.1C694.1,107,694.3,106.8,694.5,106.6z" />
	<path fill="#8B6B5E" d="M670.5,98.5c-0.3,0-0.5,0-0.7,0C670.1,97.9,670.3,97.9,670.5,98.5z" />
	<path fill="#2F201C" d="M693.9,110.7c0.2-0.2,0.3-0.3,0.5-0.5c0.1,0.2,0.1,0.3,0.2,0.5C694.3,110.7,694.2,110.7,693.9,110.7z" />
	<path fill="#8B6B5E" d="M669.8,98.6c-0.2,0.2-0.5,0.4-0.6,0.5C669.3,98.9,669.6,98.7,669.8,98.6z" />
	<path fill="#271715" d="M670.7,139.8c-2.3,0-5.2,0.2-6.2-1.5C667.8,137.7,668.6,137.9,670.7,139.8z" />
	<path fill="#2C2521" d="M673.9,140.4c1.4-0.5,1.4-0.5,2.4,0.3C674.8,141.6,674.8,141.6,673.9,140.4z" />
	<path fill="#4C3731" d="M679.8,142.1c-0.5-0.4-0.7-0.7-1.1-1c1.2-1,1.2-1,2.6-0.1C680.7,141.4,680.2,141.7,679.8,142.1z" />
	<path fill="#1B1815" d="M741.2,544.5c-2.4-3.8,4.1-4.4,6.3-6.2c0.5,0.5,0.8,0.8,1.3,1.3C746.8,542.1,744,542.9,741.2,544.5z" />
	<path fill="#15110E" d="M750.9,542.6c0.3,2.6-2.8,2.9-5,2.5C746,542.6,748.6,542,750.9,542.6z" />
	<path fill="#0D0A09" d="M633,539.6c-6.8-2.1,8.7-10.3,10.4-6.2C640.7,536.6,634.5,534.9,633,539.6z" />
	<path fill="#14100E" d="M640.4,536.4c1.6,0.2,2.8-0.1,3.8,1.6c-4,2.3-6.7,0.2-9.6,5.1c-1.5,0-1.4-1.1-1.5-2   C634.7,538.2,637.6,537.4,640.4,536.4z" />
	<path fill="#13100E" d="M635.1,546.8c-2.7-2.8,10.6-8.6,10.5-4.3C642.1,544,638.8,545.3,635.1,546.8z" />
	<path fill="#1B1714" d="M637.8,551.4c-1.9-3.2,6.2-5.8,8.5-5.5C646.6,549.4,640.5,549.5,637.8,551.4z" />
	<path fill="#1B1512" d="M639.6,554c1.3-2.5,6.3-4,8.9-2.9C648.9,553.1,640.9,555.4,639.6,554z" />
	<path fill="#CACAB0" d="M640.4,536.4c-2.9,1-5.9,1.7-7.3,4.7c-0.6-3.3,2.7-4.9,5.3-5.4C638.8,536.8,639.8,536.2,640.4,536.4z" />
	<path fill="#553A33" d="M637.4,165.2c0.3-0.4,0.5-0.4,0.7,0C638,165.5,637.7,165.3,637.4,165.2z" />
	<path fill="#4F3932" d="M731.6,161.2c0.5-1.1,1.2-1.2,2.3-0.8C733.2,161.3,732.7,161.7,731.6,161.2z" />
	<path fill="#181310" d="M752.8,559c-0.4-0.5-0.5-0.6-0.8-1c1.6-4.2,9-4.2,12.6-2.7c-1.6,1.4-3,0.9-4.9,1.1   C756.9,556.1,755.1,557.7,752.8,559z" />
	<path fill="#745851" d="M707.9,198.8c-0.2-0.4-0.3-0.7-0.6-1.6c1.2,0.5,1.9,0.8,2.7,1.1c0,0.2-0.1,0.3-0.1,0.5   C709.2,198.8,708.6,198.8,707.9,198.8L707.9,198.8z" />
	<path fill="#654D44" d="M666,86.5c-0.2-0.5-0.4-0.8-0.5-1.1C666.3,85.2,666.7,85.8,666,86.5z" />
	<path fill="#2A1C19" d="M665.1,94c-0.2-0.3-0.5-0.5-0.6-0.7c0.2-0.1,0.4-0.1,0.5-0.1C665.1,93.4,665.1,93.7,665.1,94z" />
	<path fill="#816458" d="M665.1,93.1c-0.2,0-0.4,0.1-0.5,0.1l0,0c0-0.3,0-0.5,0-0.7l0,0C664.6,92.8,664.9,93,665.1,93.1z" />
	<path d="M663.8,89.9c0,0.9,0,1.8,0,2.7C662.8,92.3,663,88.8,663.8,89.9z" />
	<path d="M664.6,92.5c0,0.3,0,0.5,0,0.7c-0.3-0.3-0.5-0.5-0.7-0.7C664,92.5,664.3,92.5,664.6,92.5z" />
	<path fill="#B28C7D" d="M702,88.3V88c0.1,0.1,0.2,0.2,0.3,0.2C702.2,88.3,702.1,88.3,702,88.3z" />
	<path fill="#020101" d="M653.6,392.8c1.1,2.4,0.5,5.1,0.6,7.8c-0.4,0-0.6,0-1,0c-0.8-2.5-1.1-4.9-0.6-7.5   C653,393,653.4,392.9,653.6,392.8z" />
	<path fill="#312B27" d="M668,282.2c-0.3-0.4-0.5-0.7-0.8-1.1c-0.1-0.4-0.1-0.8-0.2-1.4C668.6,280.8,668.6,280.8,668,282.2z" />
	<path fill="#E2EAEA" d="M685.4,87.5c0.8-0.3,1.6-0.5,2.4-0.7c0.1,0.7,0.2,1.3,0.2,2C686.4,88.5,686.4,88.5,685.4,87.5z" />
	<path fill="#545858" d="M691.5,86.9c0.5,0.3,0.3,0.5,0.1,0.7C691.2,87.5,691.4,87.2,691.5,86.9z" />
	<path fill="#8C6B5E" d="M694.5,107.3c1.8,0,3.1-1.6,5-1.9c1.1,0.2,2.5,1.1,3.7-0.1c0.7,0.5,1.4,0.9,2,1.4   C702.3,107.8,697.5,108.8,694.5,107.3z" />
</g>
<g id="a_00000181052745416867331660000016116958318869506729_">
	<path d="M167.2,328.8c-3.2-80.3,42.8-63.4,0.2-156.9c-6.1-6.7-17.3-3.9-25.6-5.7c-12.6-0.7-24.9-2.9-36.7-7.7c2.7-1.8,7,1,10.1,1.4   c12.6,3,25.6,3.6,38.2,5.9c4.3-0.5,8.2,0.8,12.5,0.9c2.3-0.4,2,3.1,3.3,4.3c1.7,1.9,2.3,4.4,3.2,6.6c15.8-0.9,21.1-30.5,14.4-42.4   c-5.1,1.9-10.2-1.4-15.4-1.6c-7.6-0.9-15.2-0.7-22.8,0.3c-0.6-0.1-1.4-0.1-1.6-0.9c11.5-4.2,24.4-1.1,36.1,0.8   c12-5.6,21.4-7.9,20.5-23.7c-1.6-0.3-2.8-0.5-4.1-0.6c-0.2,0.6-0.3,1.1-0.5,1.6c-2.5,0.4-2.8-4.5-6.5-0.9c-2-1.8-2-3.3-3.8-5.3   c-0.6,1.6,0.7,2,0.4,3.5c-2.8,0.6-2.6-3.2-5-3.8c-0.2,0.4-0.3,0.6-0.6,1.2c-2.4,0.7-2.5-2.6-4.5-2.9c-1.9-1.4-2.2-4.5-3.3-6.6   c0.6-0.1,0.6-0.1,0.2-0.6c0,0,0.1,0,0.1-0.1c-0.1,0.3-0.1,0.5-0.2,0.8c-0.8-0.1-1.7-0.2-2.4-0.4c-4.1-3.8-0.9-7.9-1.7-12.2   c-0.7,0.7-1.3,1.4-1.9,1.9c-0.6-1.7-0.3-3.5-1.3-5.1c0.4-1.6,0.8-3.3,1.3-4.9c-0.3-0.2-0.4-0.4-0.7-0.5c-0.4,0.3-0.7,0.5-1.2,0.9   c-2.4-0.8-1.1-4.7-0.9-6.7c-0.6-7.7-1.6-6.8,2.9-14.3c-0.6-1.4,0.6-2.3,1.2-3.5c0.9-0.5,1.6-1.3,1.8-2.7c-1,0.6-1.7,1-2.5,1.5   c-1.4-1.6,1.2-3.3,1.7-5c1.1-0.4,2.3-0.8,3.7-1.3c-0.6-0.5-1.1-0.8-1.8-1.3c0.5-0.5,0.8-0.8,1.2-1.2c1.8,0.4,3.2-0.5,4.6-1.9   c-0.5-0.4-0.9-0.5-1.3-0.7c-0.1-1.6,1.3-2.3,2.4-3.1c0.6,0.1,1.1,0.3,1.6,0.4c1.1-1.8-2.3-1.5-0.6-3.7c2.7-0.5,5.4-1.2,8-1.7   c1-2.5,1-2.5,2.1-3.2c4.3,2.3,6.5-3.7,11.5-1.6c0.4-0.1,0.5-0.6,0.7-0.9c2.2-0.7,3.9-0.2,5.3,1.7c3.6-0.9,7.6-4,11.2-1.8   c0.1,2-2,0.6-2.7,2.4c3.5,1.3,7.1-4.8,12-1.8c-0.8,1.1-2,1.2-3.3,1.6c2.7,3.5,13-0.8,13.4,5.2c-1,0-1.9-0.1-3-0.2   c-0.1,0.5-0.1,1-0.2,1.6c1.2-0.1,2.2-0.2,3.2-0.2c2.2,2.1,4.9,2.7,7.2,4.7c-0.1,0.4-0.3,0.7-0.5,1.1c2.1,1.3,2.8,3.7,4.2,5.7   c-0.7,0.5-1.2,0.6-1.7,1c0.5,0.8,0.9,1.7,1.4,2.7c-0.3,0.5-0.6,1.1-1,1.7c0.6,0.5,1.1,0.9,1.7,1.5c0,1.6,0,3.5,0,5.3   c-0.4,0.5-0.8,0.9-1.2,1.5c0.1,1.2,0.3,2.5,0.4,3.5c-0.6,1.2-1.3,1.7-2.4,1.7c0,2.4-0.3,4.4-1.1,6.7c-0.4,0.2-0.9,0.4-1.4,0.6   c0.1,0.7,0.3,1.5,0.4,2.3c-0.3,0.3-0.5,0.6-0.8,0.9c-2.4-5.2-5-13.5-12.3-9.5c-10.4-3.7-23.2,6.1-21.8,17.1   c-0.9,1.4-1.6,2.6-2.4,3.8c0.4,0.5,0.6,0.7,0.9,1.1c-0.4,1.1-1.4,1.4-2.3,1.6c-0.5-0.2-0.9-0.4-1.4-0.5c-0.5-0.9-0.8-1.8-1.3-2.8   l0,0c3.7-16.6,12.8-24.7,30.2-24.4c-15-9.8-34.1,8.1-32.3,23.7c-0.7,1.4-2.4,2.3-2,3.9c-2.7,4.3,1.8,8.7,4.8,11.3   c0.1,12.2,1.5,24.1-10.2,31.1c4.3,17.7,17,34.2,36.8,33.7c0.5-0.5,0.9-0.9,1.4-1.3c0.4,0.6,0.7,1.2,0.9,1.6c3.3,0,6.1-0.1,9.1-0.1   c0,0.2,0,0.5,0.1,0.6c-10.4,4.5-22.6,0.5-31.8-5.2c-11.4-5.6-14.3-18.3-18.3-29.1c-2,0.5-3.3,1.7-4.5,3.2   c7.2,15.5,2.5,40.5-15.5,45.9c18.4,54.3,21.8,54.4-1.2,108.4c29.8-0.8,61.2,10.3,89.9-0.9c-15.2-50.9-13.8-33.7-4-84.4   c18.7-7.2,10-26.4,2.7-39.2c0.3-0.2,0.5-0.5,0.7-0.6c0.7,0.8,1.6,1.7,2.4,2.6c1.1-0.9,2-1.7,3-2.7c0.5,0.5,0.7,0.9,1.2,1.5   c17.6-0.1,34-8.9,51.8-7.4c10-0.4,20.3-1.6,29.8-5.4c3.4-0.6,8.2-4.9,11.2-3.3c-16.9,10.7-36.8,9.3-55.7,11.4   c-13.4,2.7-26.3,7.7-40.1,7.2c8.3,11.2,11,31.6-4.5,37.2c-16.5,57.3,1.7,53.8,8.8,108.3c8.5,35.9,1.4,73.3,2,109.4   c5.9,30.8,2.3,61.9,1.8,92.9c1,0.3,2,0.5,3.1,0.8c2.5,5.1,2,10.8,6.7,15.1c4.5,4.7,7.8,11.4,13.9,13.8c6.4,1,8.2,8.1,8,13.7   c-11.6,7.7-28.3,7.3-40.2,0.2c-3.7,2.1-20.3,1.5-18.4-4.8c3.7-4.8,2.5-10.5,2.4-16.1c-0.5-4.8,3-9.1,2.1-13.8c1.3-2.1,3-1.6,5-0.8   c-2.3-13.3-1.5-27.1-6.2-39.9c-4.6-12.2-9.7-25-8.9-38.3c5.5-34.8-12.7-66.7-19.7-100.3c-4.6,19.3-7.1,40-13.6,58.9   c-1-0.5-0.6-1.4-0.7-2.1c2.4-12.3,5.4-24.5,8-36.7c4.8-16.8,3.7-35.7,11.5-51.3l0,0c0.3-0.2,0.5-0.5,0.7-0.6v0.1   c-11.7,37.8,13.4,74.7,17.8,113c-3.3,16.7-2.1,34.3,4.7,50c5.5,14.2,6.8,29.4,8.5,44.4c2.2,0.2,4.1,0.2,6.2,0.2   c1.1-3.3,3.5-4.8,6.7-5.6c2.6-37.8,0.6-75.7-1.8-113.5c3-37.3,3.3-74.7-6.3-111.4c-29.4,10.7-61.1-0.5-91.3,0.9   c-3,12.6-3.5,25.9-1.9,38.6C168.5,329.3,167.8,329,167.2,328.8z M286,537.8L286,537.8c-0.8-0.9-1.7-1.6-2.7-2.4   c-3,2.1-6.5,2.9-9.4,5.2c-3.3-3.5,6-5.9,8.1-6.8c-0.1-0.6-0.5-1.2-1-1.6c-3.9,1.1-8.1,1.6-11.5,4.6c-2.8-5.3,7-5.3,10.1-6.7   c-0.2-0.4-0.4-0.7-0.5-0.9c-5,1-9.8,1-13.9,4.1c-0.4-0.4-0.7-0.7-1.1-1c2.2-5,8.5-3.3,12.7-4.9c-0.5-3-1.1-5.8-1.6-8.2   c-2.6-2.2-6-1.8-8.3,0.1c-1.4,3.9-2.2,8.4-6.1,11.4c-1.2-0.1-2.4-0.2-3.7-0.3c-1.6-2.1-1.7-5-3.9-6.3c-3.9,10.5-0.6,21.4-5.1,31.6   c4.7,0.5,9.3,3,13.9,1.6c1.9-0.7,3.7-0.4,5.4,0.5c10.8,5.6,24.7,5.5,35.4-0.4C301.4,543,294.8,551.3,286,537.8z M263.3,523.1   c-2-0.2-3.8-0.4-5.8-0.6c-0.1,2.3-1,4.5,1.8,5.9C261.3,527.1,262.7,525.5,263.3,523.1z M171.7,54.1c0.8,0.1,1.6-0.1,0.9-1   C172.3,53.5,172,53.7,171.7,54.1z M169,64.2c-1-0.5-1.2-0.1-1,0.9C168.4,64.7,168.7,64.5,169,64.2z M200.5,28.3   c-0.6-0.5-0.6-0.5-1-0.1C199.7,28.2,200,28.2,200.5,28.3z" />
	<path fill="#010101" d="M206.5,401.5c0.2,0.7-0.3,1.6,0.7,2.1c-0.3,0.9-0.6,1.8-0.8,2.8l-0.3,0.1l0.1,0.3   c-3.4,8.9-5.5,18.4-9.4,27.1c-3.5,4-4.2,8.6-4,13.8c0.2,13.7-5.9,26.1-9.1,39c-3.6,12.8-4.2,26.1-4.4,39.3c0.9,0.1,1.6,0.2,2.7,0.4   c3.9,10.4,8.3,21.5,15.7,30c4.8,3.5,3.1,9.1,1.8,13.9c-7.2,2.2-36.9,7.1-38-3c-2.3-0.9-4.9-0.6-7.1-1.8c-1.3-5.3,3.3-10.4,2.2-15.9   c-0.5-3.2,0.3-6.4-0.5-9.6c-0.4-2.2,2.3-3.1,3.8-4.1c4.9-30.8-7-62.9,1-93.6c21.2-49,6.7-64.3,6.4-113.6c0.7,0.2,1.4,0.5,2.1,0.6   c2.4,17.2,2.1,34.7,4.1,52.1c4.4,18.6,0.3,36.8-8.2,53.7c-10.6,30.4-0.4,62.7-2.2,93.6c1.8-1.4,1.4-4.9,2.5-7   c2.6-1.6,5.8-2.7,8.8-2.9c0.5,0.6,0.9,1.1,1.5,1.8c1-24.7,12.5-47,14.8-71.2c-0.9-8.1,2.4-14.8,6-21.7   C200.6,419.4,202.2,409.8,206.5,401.5z M198,565.9c3-6.6-5.9-9.4-7.3-15.1c-3-7.4-8.6-13.9-9.9-21.9c-3.2-1.7-4.9-4.9-7.5-7.4   c-2.1,0.6-4.2,0.9-5.8,2.1c-1.1,5.8-2.1,11.8-5.8,16.1c-1.5,0-2.1-0.4-3.4-1.3c-0.3,8.8,0.8,17.1-2.3,25.7c1.7,0.2,3.2,0.7,4.7,0.5   c0.3-1,0.5-1.8,0.7-2.9c2.4,2,1.6,5.4,2.6,8.2c11,2.1,22.5,2.1,33.3-1.1c-6.9-2.9-13.5,2.9-12.6-0.5c0.8-0.7,1.8-1.5,2.7-2.1   c3.7-0.4,7.1,0.4,10.5,0.7C197.9,566.4,198,566.1,198,565.9z M162,535.6c1.4-2.3,1.4-2.3,0.7-4.2   C160.8,533.6,160.7,534.1,162,535.6z" />
	<path fill="#050303" d="M261.4,163.3c-0.3,0.2-0.5,0.5-0.7,0.6c-5.8-7.6-10.4-17.5-18.7-22.6c0-0.4,0.1-0.7-0.4-0.3   c0.2,0.1,0.3,0.2,0.5,0.2c1.6,6.5,8.3,12.8,6,20.1c-0.5-0.2-0.8-0.5-1.3-0.6c-2.4-12.7-4.9-19.8-17.2-24.7   c-0.2,0.5-0.4,1.1-0.6,1.9c-1.9-5.3-2.7-12.5,0.5-17.2c0.2,0,0.4,0,0.6,0.1c-0.6,4.1-1,8.3-0.9,12.6c3.1,1.6,6,3.2,8.9,4.7   c15.2-10.4,31.3-1,46.7,1.9c21.1-1,41.2-9.7,62.2-8c-21.6,3.3-44.1,7.9-66.2,10.3c-0.5-0.5-0.7-1-1.1-1.5c-2.1-0.5-4.6-1-6.6-1.5   c-0.6-0.7-1.1-1.4-1.3-1.6c-9.9-1.5-20.9-5.9-29.5,0.7c6.7,5.6,11.7,12.6,16.7,19.2c1.6-1,3.2-4.9,5.1-3.8c-0.5,2.7-2.6,4.7-4.1,7   c0.6,0.7,1,1.3,1.6,1.9C261.3,162.8,261.3,163,261.4,163.3z" />
	<path fill="#070404" d="M147.1,133c0.2,0.8,0.9,0.8,1.6,0.9c-3.8,1-7.2,3.2-10.3,5c-11.5-1.2-22.5,1.4-34,0.2   c0.5-0.5,0.7-0.8,1-1.2c-17.3-8.3-37.1-5.4-55.7-8.2c5.9-2.6,12.8-0.2,19,0.1c8.8,1.5,18-0.8,26.4,2.5   C110,138.4,132.2,139.3,147.1,133z" />
	<path fill="#0E0A0A" d="M106.6,157.9c-0.5,0.1-1.2,0-1.5,0.6c-17.2-2.1-32.8-8.2-47.9-16.7c-5.4-2.1-11,2.9-16.2-1   c-1.1,0.4-2,0.5-3.1,0.3c0-0.2-0.1-0.4-0.1-0.5c0.5-0.3,0.9-0.5,1.3-0.8c1.3,0.2,2.6-0.1,3.8,0.5c5.8,3.5,11.6-3.4,14.8-1.2   c-0.6,0.1-1.2,0.1-1.7,0.4c8.9,3.8,17.2,8.7,26.1,12.5C89.7,156,98.9,153.8,106.6,157.9z" />
	<path fill="#1C1211" d="M344.1,133.2c0.8-0.7,2.1-0.3,2.7-1.3c14.3,0.9,28.7-4.1,42.7,0.1C374.7,132,359.2,133.1,344.1,133.2z" />
	<path fill="#2B201D" d="M22.2,139.9L22,140c-1,0-2.3-0.6-3.1,0.5c-3.7,0.4-13,2.5-12.6-3.5c4.5-1.4,8.6-4,13.3-4.3   c0.3,0.2,0.5,0.5,0.7,0.6c-0.1,0.2-0.1,0.4-0.1,0.5c-4.3,0.4-8.1,2.7-12.1,3.9c-0.5,0.7-0.4,0.9,0.7,1.4c0.6,0.9,0.6-0.8,0.9-1.5   c4.7-0.7,9.8-2.6,13.7-5c0.9,0.1-0.2,1,0.7,1.3c-4.1,2-8.8,3.1-12.9,5.1c6.8,3,13.3-2.9,20.3-2.4c0,0.2,0,0.4,0,0.5   c-1.3,0.2-2.7-0.3-4,0.5c0.5,0.8,0.6,1.4,0.9,2.2c-0.4,0.1-0.6,0.2-1,0.2l0,0c-0.2-0.3-0.4-0.5-0.6-0.7l0,0   c-0.9-1.2-1.1-0.8-2.1,0.1C23.9,139.3,22.9,138.9,22.2,139.9z" />
	<path fill="#241A18" d="M422,143.4c-1.6-0.1-3.1-0.2-4.6-0.4c-4.9,6.4-11.5-0.6-17.6,2.2c-3.6,0.7-7.5-0.2-9.8-3.2   c0.4-0.1,0.6-0.1,1-0.2c4.5,3.2,9.6,2.1,14.6,0.7l0,0c2.6,1.8,7.9,3.2,9.7,0c-2.7-1-6.2-0.5-8.3-2.7c0.2-0.2,0.4-0.4,0.5-0.6   c4.9,2.2,10.4,1.9,15.4,3.4C422.5,142.9,422.3,143.1,422,143.4z" />
	<path fill="#0F0A0A" d="M390.9,141.9c-8.3,1.4-16.6,2.2-24.7,4.8c-0.6-0.3-1.6,0.3-2-0.6c7.4-3.1,15.5-3.9,23.2-5.9   c-1.2-1.2-2.1-1.3-3.2-0.2c-0.8,0-1.5-0.3-1.3-1.4C386.3,137.7,388.7,139.2,390.9,141.9z" />
	<path fill="#32221F" d="M229.9,121.4c0-0.3-0.1-0.5-0.1-0.7c5.5,0.6,10.4-2,12-7.6c-4.2,1.8-6.8,0.3-10.6-1.8   c0.7-1.1,1.9,0.1,2.7,0.4c2.6,1.3,8,2.2,7.6-2.3c-4.3-0.3-8.6,0.7-12.9-0.3c0.3-1.5,0.8-1.4,1.9-1.2c0.1,0.2,0.2,0.3,0.3,0.5   c0.1-0.2,0.2-0.3,0.3-0.5c3.3,1.2,8.1,0.9,11.4-0.6c0.3,0.2,0.5,0.5,0.7,0.6c0,0.3-0.1,0.5-0.1,0.7l0,0c-1.2,0.6-0.7,1.5-0.1,2.3   c0.1-0.5,0.1-1,0.2-1.6c0.2,0.3,0.5,0.5,0.6,0.8C242.8,116.6,237.4,123.4,229.9,121.4z" />
	<path fill="#261C1A" d="M408.8,132.7c5.1,3,12.2,3.3,17.3,6.8c-3.7,1.6-7.2-2.6-11.3-1.6c-3.8-0.1-4.2-2.7-6.9-4.4   C408.2,133.1,408.5,132.8,408.8,132.7z" />
	<path fill="#251716" d="M408.8,132.7c-6.8,3-15.7,0.8-22.9,0.1C393.3,131.7,401.5,131.3,408.8,132.7z" />
	<path fill="#221615" d="M20.4,133.3c-0.3-0.2-0.5-0.5-0.7-0.6c0.9-0.4,2,0.3,2.7-0.6c2.5-1.6,5.9-0.7,8.1-2.1   c0.6-0.5,1.6,0.5,2-0.6c0.1-0.2,0.3-0.2,0.5-0.2c0.9-0.6,1.5-0.9,2.2,0.1c-0.2,0.3-0.5,0.5-0.6,0.7l0,0c-0.3,0.2-0.5,0.5-0.7,0.6   c-0.5,0-1.1,0-1.3,0.5c-0.2,0.1-0.4,0.2-0.5,0.2c-2.2,1.5-4.9,1.7-7.4,2.7c-0.9-0.3,0.1-1.1-0.7-1.3c-0.2,0-0.5,0.4-0.6,0.5   C22,133.3,21.2,133.3,20.4,133.3z" />
	<path fill="#2C201F" d="M424.7,140c0.5-0.2,1-0.5,1.5-0.6c2.7,1,5.4,0.9,8,2.1c-0.8,5.4-8.7,3.6-12.2,1.9c0.3-0.3,0.6-0.5,0.9-0.7   c2.8,0.6,7.1,2.6,9.3-0.3C429.5,141.5,427.1,140.8,424.7,140z" />
	<path fill="#120908" d="M248.6,86.5c1.2,2.6-3.4,0.3-1.3,3.3c-1.1,0.1-2.2,0.2-3.3,0c-0.2-0.2-0.5-0.5-0.6-0.6   c0.2-1.2-0.4-1.9-1.4-2.7c1.1,0.1,2.1,0,2.6-1.2C247.7,84.6,246.6,86.5,248.6,86.5z M245.6,87.6c-0.2-0.5-0.5-0.1-0.7,0   C245.1,87.9,245.3,87.6,245.6,87.6z" />
	<path fill="#0F0F0E" d="M248.6,86.5c-1.2,0.3-1.1-1-1.8-1.3c-0.1-0.7-0.2-1.4-0.3-2c-1,0-1.7,0-2.5,0c0.7-1.5,2.9,0.3,3.2-1.6   c-0.2-0.2-0.5-0.4-0.7-0.5c-0.1-2.2-0.6-4.4-1.2-6.5c0.3-0.3,0.6-0.6,0.8-0.9C247.8,77.7,247.6,82.2,248.6,86.5z" />
	<path fill="#413C39" d="M244,110c-0.2-0.3-0.5-0.5-0.6-0.8c0-0.3-0.1-0.5-0.1-0.7l0,0c1.9-3.6,1.6-8.3,3.3-12.1   c0.2,0.5,0.5,0.9,0.6,1.4C246.3,101.9,246,106.3,244,110z" />
	<path fill="#332422" d="M51.2,129.2c-3.6,1.8-7.8-0.5-11.5-0.6C42.9,126.8,47.6,128.2,51.2,129.2z" />
	<path fill="#382825" d="M41.9,127.8c-0.7,0.2-1.7-0.3-2.3,0.6c-1.6-0.4-3.2-0.2-4.7,0.7c-0.3-0.3-0.5-0.5-0.9-0.7   C36.3,126.1,39.3,127.4,41.9,127.8z" />
	<path fill="#252525" d="M27.5,140.1c0.4-0.1,0.6-0.2,1-0.2c2.8,1.3,6.1,0.6,9.2,0.8c0,0.2,0,0.4,0.1,0.5   C34.6,140.6,29.4,142.9,27.5,140.1z" />
	<path fill="#0F0F0E" d="M247.2,97.8c-1.4-2.4,0-5.7-2.1-7.9c0.7,0,1.5-0.1,2.1-0.1C246.9,92.5,248,95.2,247.2,97.8z" />
	<path fill="#292726" d="M364.1,145.9c0.5,1,1.4,0.4,2,0.6c-1.8,0.6-3.6,1.3-5.4,1.9c-0.2-0.6-0.8-0.6-1.3-0.6   C360.9,147.1,362.4,146.3,364.1,145.9z" />
	<path fill="#161413" d="M167.1,316.6c0,3.7,0,7.4,0,11.1C166.4,324.1,166.3,320.1,167.1,316.6z" />
	<path fill="#162C2C" d="M29.3,141.4c3.3,0,6.5-0.3,9.8,0C36.6,142.5,32,142.1,29.3,141.4z" />
	<path fill="#9DA6A6" d="M169.8,85.9c0.6-0.6,1.2-1.2,1.9-1.9c0.5,1.1,0.3,2.2,0.2,3.2c-1.1-0.1-1.6,0.5-2.7-0.2   C169.4,86.6,169.5,86.3,169.8,85.9z" />
	<path fill="#A9AAAA" d="M178.4,39.2c0.4,0.2,0.7,0.5,1.3,0.7c-1.4,1.5-2.7,2.3-4.6,1.9C176.1,40.6,178,40.6,178.4,39.2   C178.5,39.1,178.4,39.2,178.4,39.2z" />
	<path fill="#BABABA" d="M221.2,26.7c-0.9,1.3-2,1.4-3.4,0.8c0.7-1.6,2.8-0.4,2.7-2.4C221.4,25.4,221.2,26,221.2,26.7z" />
	<path fill="#BAC9C9" d="M239.9,33.7c-1,0.1-1.9,0.1-3.2,0.2c0.1-0.6,0.1-1.1,0.2-1.6c1.1,0.1,2.1,0.1,3,0.2   C239.9,32.9,239.9,33.4,239.9,33.7z" />
	<path fill="#211717" d="M178.5,39.1c-0.4,1.3-1.6,1.3-2.5,2c-0.1-0.2-0.2-0.4-0.4-0.5c0-0.3,0-0.5,0-0.8   C176.4,38.8,177.4,38.6,178.5,39.1z" />
	<path fill="#566262" d="M189.2,108.5c0.4-1.5-0.9-1.8-0.4-3.5c1.3,0.8,1.1,2.1,1.7,2.8C190.1,108.1,189.6,108.3,189.2,108.5z" />
	<path fill="#727C7C" d="M170.5,50.5c0.7-0.5,1.5-0.8,2.5-1.5c-0.3,1.5-0.9,2.2-1.8,2.7C170.9,51.3,170.7,51,170.5,50.5z" />
	<path fill="#252525" d="M18.9,140.5c0.7-1.1,1.8-0.5,2.8-0.5C20.9,140.2,19.8,140.4,18.9,140.5z" />
	<path fill="#0F0F0E" d="M247.3,89.8c-0.5-0.7-1.1-1.9,0.3-1.9C247.6,88.6,248.4,89.8,247.3,89.8z" />
	<path fill="#252525" d="M22.2,139.9c0.5-1,1.5-0.5,2.3-0.5C23.8,139.5,23.1,139.7,22.2,139.9z" />
	<path fill="#252525" d="M25,139.3c1.1-0.9,1.1-0.9,2,0.1C26.3,139.3,25.6,139.3,25,139.3z" />
	<path fill="#2B201D" d="M22.2,132c-0.4,0.6-0.9,0.5-1.5,0.5C21.3,132.4,21.8,132.2,22.2,132z" />
	<path fill="#382825" d="M30.3,130c-0.3,0.7-0.9,0.6-1.6,0.5C29.3,130.3,29.7,130.1,30.3,130z" />
	<path fill="#382825" d="M32.3,129.3c-0.3,0.7-0.9,0.6-1.5,0.5C31.3,129.6,31.8,129.4,32.3,129.3z" />
	<polygon fill="#EAA388" points="206.2,406.8 206.2,406.5 206.5,406.4 206.5,406.7  " />
	<path fill="#EAA388" d="M205.5,408.1c0.1-0.2,0.2-0.3,0.3-0.5C205.7,407.8,205.6,408,205.5,408.1z" />
	<path fill="#A9AAAA" d="M175.7,39.7c0,0.3,0,0.5,0,0.8C175,40.3,175.1,40,175.7,39.7z" />
	<path fill="#BABABA" d="M222.6,25.9c-0.3,0.2-0.6,0.3-0.7,0.5C222.2,26.1,222.3,26,222.6,25.9z" />
	<path fill="#252525" d="M26.9,139.3c0.2,0.3,0.4,0.5,0.6,0.7C27.3,139.8,27.1,139.5,26.9,139.3z" />
	<path fill="#382825" d="M33.6,128.6c-0.3,0.2-0.6,0.4-0.9,0.5C33,129,33.3,128.8,33.6,128.6z" />
	<path fill="#EAA388" d="M206.5,401.5c-4.3,8.3-5.9,17.9-10.1,26.3c-3.6,7-6.9,13.7-6,21.7c-2.3,24.2-13.8,46.5-14.8,71.2   c-0.5-0.6-0.9-1.2-1.5-1.8c-2.7-0.4-5,2.1-7.7,1.1c1.3-11.3,2.4-22.6,3.8-33.7c0.2-0.5,0-1.1-0.8-1c-0.7,0.9-1.5,1.8-2.5,3.1   c0.3-2.7-0.4-5,0.5-7.3c0.6-2.7-1.5-5.5,0-8.2c-3.5-16.8,2.7-34.7,9-50.4c2.8,3.1,1.1,8.1,4.9,10.2c2.6-7.1,0.9-14.9-0.3-22.5   c1.6-14.1,2.2-28.4,3.2-42.5c1.9-25.1-1.6-51,5-75.4c24.1,0.1,49.7,6.6,73-2.2c9.5,36.6,9.3,74.1,6.2,111.4   c2.5,37.8,4.4,75.6,1.8,113.5c-3.2,0.8-5.6,2.3-6.7,5.6c-1.3,0-2.6,0-3.9,0c-1.3-16.1,3.4-34.3-3.8-49.1c-0.4,3.8-0.6,7.5-1,11.3   c-4.3-16.3-12-34.8-5.4-51.5c1.9,2,3.3,4.4,4.7,6.7c-1.2,1.2-1.2,1.2-0.5,2.5c0.9,1.1,0.6,2.9,2.1,3.8c0.9-0.7,0.5-1.6,0.5-2.5   c1.9,1.1,2.6,3.3,3.8,4.9c0.7-15.4-14.5-25.3-15.1-40.1c-4.7-24.1-3.4-48.6-2.9-72.8c-2.9,1.6-2.7,4.9-4.8,7   c-1.5-9.2-2.9-18.1-4.3-26.7c-1.1-1.4-1.8-2.3-2.7-3.2c0.2-0.8,1.3-1.5,0.6-2.7c-1.8,1.4-3.5,2.9-4.6,4.9v-0.1   c-0.3,0.2-0.5,0.5-0.7,0.6l0,0c-5.8,9-4.9,20.5-7.7,30.7C215.5,363.5,210.1,382.3,206.5,401.5z M213.9,308.7   c0.2,0.1,0.3,0.2,0.5,0.3C214.2,308.9,214,308.9,213.9,308.7c-0.4-0.9-1-1.4-2-1.4c-2-2.3-4.5-3.8-7.3-4.7c-0.3-0.5-0.5-0.9-1-0.2   c0.4,0.1,0.7,0.1,1,0.2c0.3,1.3,1.6,1.5,2.5,2c1.6,1,2.8,2.5,4.9,2.7C212.3,308.4,212.9,308.8,213.9,308.7z M212,312   c-0.9-0.8-1.8-1.5-3.1-1c1.6,1.9,4.9,3.2,6.8,3C214.1,313.2,213,312.6,212,312z M193.3,404.9c0.4,0.2,0.7,0.4,1.1,0.5   c0.7-3.8-0.3-8.2-2.6-11.1c-4.4-8.4-9.3,5,0.8,8C192.8,403.2,191.9,404.3,193.3,404.9z M258.6,406.2c-2.9-3.2-0.5-5.7-6.4-8.1   c-0.9,0.5-1.9,1-2.7,1.5c-1,5.8,3.8,7.9,7.9,9.3C258.7,408.3,258.7,407.3,258.6,406.2z M189,440.9c-2.3,1.3-3.6,6.6-3.6,9.5   C187.9,448.1,189.9,444.1,189,440.9z M264.4,395c-0.3,0-0.5-0.1-0.7-0.1c-1.2,2.6-2.8,5.1-2.3,8C263.5,400.4,264.9,397.9,264.4,395   z M184.1,456.4c1.5-1.3,1.5-3.1,0-4.3C183.4,453.8,183,455,184.1,456.4z M258.1,452.3c0.6-2.3-0.1-3.6-2.2-4   C256.6,449.6,256.6,451.3,258.1,452.3z M181.5,462.4c-0.7,1.9-0.7,1.9-0.1,3.1C182.7,463.7,182.7,463.7,181.5,462.4z M257.2,454.9   c0.4,1.1,0.2,1.9,1.3,2C258.7,455.7,258.7,455.7,257.2,454.9z M258.6,460.3c-0.5,0.5-0.8,0.9-0.3,1.3   C259.2,461.3,259.2,461.1,258.6,460.3z" />
	<path fill="#F5DDCE" d="M241.9,141.3c11.9,9.1,32.4,37.9,26,53.3c-14.6,1.9-15.5-1.2-25.9-10.1c-3.1,2.5-5.9,5.1-5.2,9.2   c0.8,0.6,1.6,1.2,2.4,1.7c-0.8,1.8,1.9,1.2,2.8,1.8c3.5,3.8,9.2,2.5,14,3.4c0.7,1.4,2.7-0.2,3.4,1.3c-0.5,0.4-0.8,0.7-1.4,1.2   c-9.8,50.8-11.2,33.7,4,84.4c-22.8,8.8-49.1,3.8-72.8,1.2c2.2-21,8.1-42,12.3-62.5c1.6,0.5,3,1,4.6,1.6c1.8-4.2-6.4-9.8-4.9-13.1   c1.5,0.6,3,0.9,4.6,0.3c0.9-3.3-3.3-5.3-4.3-8.2c-1.4-3.8-5.2-8.3-4.9-12.1c15.6,10.8,47-4.7,29.3-3.9   c-13.2,1.6-28.1-1.4-34.3-14.3c-0.5-3-2.8-4.2-4.9-5.8c4.5-11.7,8.3-24.3,2-36.5c1.2-1.5,2.5-2.7,4.5-3.2   c4.8,19.8,18.1,35.6,39.6,36C255.3,167.6,248.4,155.1,241.9,141.3L241.9,141.3z M198.6,268L198.6,268c0.4,4.2,3.9,6.9,4.7,11   c1.6,3.8,4.9,5.9,7.3,9.3c0.6,1,1.5,2.2,3.2,2.4c-2.6-9.9-6-21.2-14.5-28c-3.2,0.7-1.3,2.1-1.3,4.6   C198.1,267.6,198.3,267.8,198.6,268z M245.1,246.9c0.3,1.5,0.4,2.9,1.2,4.5c0.7-2.5,0.2-5.5-1.6-7   C244.3,245.3,244.4,246.1,245.1,246.9z M249.6,279.9c1.8-2.7,3.9-6.4,2.7-9.6C250.7,272.4,249.3,277.2,249.6,279.9z M244.2,238.2   c-1.3,2-1.3,2.3,0.2,3.8C245,240.6,245.3,239.5,244.2,238.2z M247.6,283.2c-1,0.2-1.5,0.8-1.6,1.8c0.2,0.2,0.5,0.3,0.7,0.5   C247.6,284.8,248.2,284.2,247.6,283.2z M244.2,289.9c1-0.5,1.5-1.1,0.9-2.3C244.3,288.1,243.4,288.5,244.2,289.9z M245,232.4   c0.7-0.6,0.2-2.1-0.7-1.4C243.7,231.8,244.2,232.2,245,232.4z M245.5,227.9c-0.6-0.8-0.9-1.2-1.3-1.6   C244.1,227,243.5,227.9,245.5,227.9z M244.2,236.6c0.1-0.1,0.2-0.1,0.3-0.2c-0.2-0.3-0.3-0.3-0.5,0   C244.2,236.4,244.2,236.5,244.2,236.6z" />
	<path fill="#B28C7D" d="M37.6,140.6c-3-0.2-6.3,0.5-9.2-0.8c-0.1-0.5-0.3-0.9-0.4-1.3c1.1-1.5,3.1,0.2,4.3-1.2   c2.6-1.1,5.6,0.3,7.9-1.5c2.3-1.2,4.4-2.7,7.1-2.8c-2.7-1.4-5.7,0.7-8,2.1c-9.5,0.1-18.9,6.4-28.1,3.9c6.8-3,14.1-5.2,20.9-8   c1,0.3,1.4-0.7,2-1.2l0,0c2.5-3.6,23.4,1.4,29.2,1.2c14.2,2.1,28.8-0.4,41.9,7c-0.3,0.4-0.5,0.6-1,1.2c11.5,1.2,22.5-1.5,34-0.2   c14.1-11.1,32.8-3.2,48.4-3.8c4.9,10.5,3.4,22.8-2.2,32.7c-11.3-4.2-13.5-23.2-26.1-25.4c-2.7-1.5-5.5-4.8-8.7-2.7   c-1.9-1.5-1.9-1.5-3.3-0.7c0.9,1.3,2.2,0.7,3.3,0.6c2.8,2,6.5,3,9.3,5.3l0,0c4.7,7.1,11.2,13.1,14.6,20.9c-0.4,0.6-0.6,1.1-0.9,1.6   c-13.1-7.6-29-5.7-43.3-8.4c-6-0.3-11.6-3.4-17.9-2.7c-2.7-0.1-6.8,0-8.4-2.4c0.4-0.5,0.6-1.1,1.1-1.7c-5.5-4.6-14.1,0.4-20.4-3.7   c-6.3-1.6-12.9-3.7-18.9-6.5c-0.2-0.6-0.2-1.1-0.1-1.6c1.2,0,2.4,0,4,0c-4.5-3.9-13.6-5.9-18.5-2.2   C45.9,139.2,41.3,138.1,37.6,140.6z M149.7,148.3c-0.3-1.3-1.1-1.2-1.6-1c-3.4,1.4-6.9-0.5-9.8,1.8   C142.5,149.2,146.1,149.9,149.7,148.3z M130.9,148c0.8,0.6,1.6,1,2.7,0C132.6,148,131.8,148,130.9,148z M101.8,140.3   c-0.3-1.4-1.7-1.3-1.6,0.3C100.7,140.5,101.2,140.4,101.8,140.3z" />
	<path fill="#D69479" d="M193.4,292.1c-1.2,0.1-2.5,0.1-3.8,0.2c-6.7,24.5-3,50.3-5,75.4c-0.9,14.1-1.6,28.4-3.2,42.5   c1.1,7.5,2.8,15.3,0.3,22.5c-3.8-2.1-2-7.1-4.9-10.2c-6.3,15.8-12.5,33.6-9,50.4c-1.5,2.7,0.6,5.5,0,8.2c-0.9,2.3-0.4,4.6-0.5,7.3   c1-1.3,1.7-2.2,2.5-3.1c0.8-0.1,1,0.5,0.8,1c-1.5,11.1-2.7,22.5-3.8,33.7c0.5,0.1,0.8,0.3,1.3,0.4c-0.8,0.5-1.6,1-2.4,1.5   c-1.1,2.2-0.7,5.7-2.5,7c1.2-41.3-10.7-70.6,9-110.5c7.1-18.1,0.4-37-0.1-55.6c-0.6-24-6.2-48.1-0.6-71.7   C178.5,290.5,186.1,290.2,193.4,292.1z" />
	<path fill="#E6CCBB" d="M230.6,192.6c-0.3,0.9-0.9,1.4-1.9,1.4c-1.2-1-1.2-1-2.6,0.6c0.2,0.3,0.4,0.5,0.6,0.7c-1.1,0-1.3,1-2.2,1.4   c-0.1-0.3-0.1-0.6-0.2-0.9c-16.1,1.2-26.9,2.1-35.4-13.7c-1.4,2,5.7,10.9,7.5,12.7c-0.4,3.8,3.5,8.2,4.9,12.1   c1,2.9,5.2,4.9,4.3,8.2c-1.6,0.5-3.1,0.4-4.6-0.3c-1.6,3.3,6.8,8.9,4.9,13.1c-1.6-0.5-3-1-4.6-1.6c-4.2,20.5-10.1,41.5-12.3,62.5   c-5.7-0.1-11.3-0.2-17.1-0.3c23-54,19.6-54.2,1.2-108.4c6-1.6,10.4-5.3,13.4-10.8c0,0.5,0,0.9,0,1.4c2.2,1.6,4.5,2.7,4.9,5.8   c4.7,9.6,13.6,13.7,23.8,14.2C217.8,192.6,233.3,188.4,230.6,192.6c-0.1-0.2-0.2-0.4-0.2-0.5c-0.1,0.1-0.2,0.2-0.3,0.3   C230.2,192.5,230.4,192.6,230.6,192.6z M187.2,180c0.5-1.9,0.5-1.9-1-1.8C186.6,178.9,187,179.5,187.2,180z" />
	<path fill="#D69479" d="M253.9,440.3c-0.6-1.2-0.6-1.2,0.5-2.5c-1.4-2.3-2.7-4.7-4.7-6.7c-6.7,16.6,1.1,35.1,5.4,51.5   c0.4-3.8,0.6-7.4,1-11.3c7.1,14.8,2.5,32.9,3.8,49.1c-0.7,0-1.5-0.1-2.4-0.2c-1.7-14.9-3-30.2-8.5-44.4c-6.7-15.7-8-33.3-4.7-50   c-4.5-38.3-29.5-75.3-17.8-113c0.2-1.1,1-1.6,1.8-2.1c0.1,0.4,0.1,0.8,0.2,1.4c0.7-0.5,1.3-1,1.9-1.4c0.7,0.9,1.6,1.8,2.7,3.2   c1.4,8.5,2.8,17.4,4.3,26.7c2-2.1,1.8-5.2,4.8-7c-0.5,24.1-1.8,48.6,2.9,72.8c0.6,14.9,15.8,24.8,15.1,40.1   c-1.2-1.7-1.9-3.9-3.8-4.9c-0.8-0.8-0.5-2.7-2.5-2.5C254,439.5,254,439.9,253.9,440.3z" />
	<path fill="#B28C7D" d="M245.1,89.9c3.5,5.5-0.6,11.9-1.3,17.8c-0.2,0.1-0.3,0.1-0.5,0.1c-0.3-0.2-0.5-0.5-0.7-0.6l0,0   c-1.4-4.5-9.1-1.6-11.5,0.6c-1.2,0-2.3-0.5-2.5,1.2c0.6,0.1,1.2,0.2,1.8,0.3c-0.5,2,1.9,2.4,3.4,3.2c3.6,1.6,4.3,1.6,8,0.5   c-3.2,11.5-16.9,8-22.5,0.8c-5.6-3.2-11.6-7.6-11.5-14.7c-0.5-1.4-1,1.3-2,0.6c0.3-1.8,1.7-4,0.9-5.8c-1.3-1.4-0.8-3.1-1.1-4.8   c0.5,0,1.2,0.1,1.5-0.6c1-0.2,1.9-0.5,2.3-1.6c-0.3-0.4-0.5-0.6-0.9-1.1c0.7-1.2,1.6-2.4,2.4-3.8c-1.4-11,11.5-20.8,21.8-17.1   c9.3-4.5,12.6,9.3,13.5,16c-2-0.2-5.1,0.5-4.9,2.9c2-0.8,2.8-1,4.9-0.8c0.1,0.6,0.2,1.4,0.3,2c-3.3-0.2-4.7,0-6.9,2.7   c0-0.6,0.7-1.2,0.3-2.1c-1.7,1.4-2.6,5.7-0.3,6.2c0-0.8,0.2-1.4,0.5-2.3c1.2,0.2,2.2,1,3,0C243.9,89.8,244.4,89.8,245.1,89.9z    M242,97.2c-0.5-0.8-1-1.6-1.6-2.8c-0.9,2.7,1.4,3.6,2.3,5.6c-0.7,0.8-1.2,0.1-1.6,0.1c-0.6,0.5-1.3,1-2.3,1.7c1.5,0,2.7,0,3.6,0   C244.2,100.4,243.1,98.6,242,97.2z M221.3,82.6c3.3-0.9,7.1-0.2,10.3,1.2c0.6,0.4,1.5,0.5,2.1-0.1c-1.6-4.1-16.1-3.7-15.2,0.1   C219.3,83.2,220.5,83.5,221.3,82.6z M221.1,89.8c3.1,1,7.5,1.1,10.4,0c-0.3-6.9-7.9-4.3-12.2-3.2C220,87.7,220.6,88.7,221.1,89.8z    M233.7,102.6c1.3-0.6,2.4-1.2,3.6-1.8c-0.6-0.4-1.1-0.6-1.6-1c-0.9,0.5-1.7,0.9-2.8,1.6c0-1.4,0-2.4,0-3.4   c-2.2,1.1-1.5,1.9-1.4,3.7C232.2,101.9,232.9,102.3,233.7,102.6z" />
	<path fill="#B28C7D" d="M227.2,128.6c0.1,3.2,0.3,6,1.6,9.2c0.3-0.8,0.4-1.3,0.5-1.9c3.3,3,8.8,2.6,10.8,6.7c2.7,6,6.7,12.3,6.1,19   c-1.6,0.6-2.1,2.1-3.1,3.2c-2.9,0-5.8,0.1-9.1,0.1c-1.3-1.7-1.1-4.3-3.5-5.6c0.5,2,0.8,3.7,1.2,5.3c-17.9,0.3-32.3-14.1-35.4-30.7   c6.1-1.4,10.3-5,13-10.6C213.2,129.4,220.7,130.4,227.2,128.6z M202,139.2c1.8,0.7,3.7,1.7,6.3,1   C206.1,138.4,204.2,138.3,202,139.2z M211.2,140.9c0.9,1.4,1.6,1.4,2.4,0.1C212.9,140.3,212.1,140.3,211.2,140.9z M218.5,141.5   c-1.4-1-1.4-1-2.3,0.3C217.4,142.5,217.4,142.5,218.5,141.5z" />
	<path fill="#F7EFD0" d="M255.2,527.1c0.5,1,1.2,2.1,1.8,3.2c1.3,0.1,2.5,0.2,3.7,0.3c3.9-2.9,4.8-7.3,6.1-11.4   c2.4-1.9,5.8-2.2,8.3-0.1c0.5,2.5,1,5.3,1.6,8.2c-4.3,1.6-10.5-0.1-12.7,4.9c0.4,0.4,0.7,0.6,1.1,1c1.8-0.5,2.8-2.5,4.8-2.4   c1,0.1,2,0.4,2.7-0.5c1.1-0.3,2.2,0.2,3.3,0.5c-0.4,0.1-0.8,0.2-1.2,0.3c-0.6-0.3-1.1-0.2-1.4,0.5c-2,1.1-6.4,2.2-3.9,5.2   c3.4-3,7.5-3.5,11.5-4.6c0.5,0.4,0.9,0.9,1,1.6c-2.1,0.9-11.4,3.4-8.1,6.8c2.9-2.4,6.4-3.1,9.4-5.2c0.9,0.8,1.9,1.5,2.7,2.4l0,0   c6,10.2,15.9,8.9,15.5,14.5c-0.5,1.1-1.5,0.8-2.3,0.8c-4.7-0.4-9.1,1.4-13.5,2.8c-6.1,1.6-12.2-2.6-18.5-1.6   c-0.9-0.7-1.7-1.4-2.7-2.2c-1.6,0.6-3,1.3-4.8,2.1c-1.6-1-4-0.8-5.8-2.5C254.4,543.4,252.1,535.1,255.2,527.1z M284.9,538.5   c-2.3,1.3-8.8,2.5-6.4,5.9c2.7-1.4,6-2.2,7.5-4.9C285.7,539.1,285.3,538.7,284.9,538.5z M288.5,543.5c-1.3-2.3-5.8-1-5.2,1.5   C285.3,545.5,286.9,545.1,288.5,543.5z" />
	<path fill="#977264" d="M161.2,148c-0.6-0.9-1.3-1.8-1.9-2.7c0.4-0.1,0.6-0.2,1.2-0.3c-0.7-0.9-1.4-1.6-1.9-2.3   c12.6,2.2,14.8,21.2,26.1,25.4c-1.8,4.9-6.6,10.4-12.2,9.7c-1-2.2-1.5-4.8-3.2-6.6c-1.3-1.1-1-4.7-3.3-4.3c-4.7-0.3-9.3-1.2-14.1-1   c-32.9-4.9-66.1-9.3-95.4-25.8c0-0.2,0-0.4,0-0.5c3.6,0.2,0.7-2.7-0.8-0.7c-5.5,3.7-10.7,2.5-16.7,1.3c3.3-1.6,7.5-0.7,11.5-1.5   c4.9-3.7,14-1.7,18.5,2.2c-2.7-0.1-3.7,0.3-6-0.7c0.6,1.3,0.8,1.3,2,1.4c0.1,0.4,0.1,0.6,0.2,1.1c9.9,3.9,20.3,8.7,31.2,8.3   c2.8,0.1,6.1-0.8,8.1,1.8c-0.4,0.6-0.7,1.2-1.1,1.7c1.6,2.4,5.7,2.4,8.4,2.4c6.1-0.6,11.8,2.4,17.9,2.7c14.2,2.7,30.1,0.7,43.3,8.4   c0.3-0.5,0.6-1,0.9-1.6c-0.4-0.9-0.8-1.9-1.2-2.9c1.9-1.1-0.3-4-2-3.7c0,0.5-0.1,0.8-0.1,1.1c-0.6-1.1-1.3-2.3-1.9-3.4   c2.2-0.9-1.1-4.2-2-2.6c-0.6-0.6-1.3-1.4-2-2c0.4-0.1,0.8-0.1,1.3-0.2C165.3,150.2,163.8,146.6,161.2,148z M61.6,140.3   c-0.5-1.6-0.5-1.6-2-1.7C60.1,139.6,60.4,139.5,61.6,140.3z M175.2,165.4c-0.1,0.1-0.3,0.2-0.4,0.3c0.2,0.4,0.5,0.1,0.7,0   C175.4,165.6,175.3,165.5,175.2,165.4z" />
	<path fill="#977264" d="M364.1,145.9c-16,7.3-33,12.2-50.7,11.3c-15.6,0.1-30,7.6-45.5,7.4c-0.5-0.5-0.8-1-1.2-1.5   c-1,0.9-1.9,1.6-3,2.7c-0.8-0.9-1.6-1.7-2.4-2.6c0-0.2,0-0.5,0-0.6c4.1-1.9,7.9-4.3,12.8-3.2c0.1,0.4,0.3,0.7,0.3,0.9   c15.9-2.3,33.2-4.8,46.9-13.9c0,2.5,0.5,4.6-1.2,6.3c-0.1-0.4-0.3-0.7-0.4-1.2c-1.7,1-3.5,1.2-4.4,2.8c1.6,0.8,2.7,0,4-0.8   c22.2,2.6,41.7-13.9,63.4-14.8c-0.2,1.1,0.5,1.3,1.3,1.4c-0.3,0.5-0.5,0.8-0.7,1.3C376.8,141.7,370.4,143.7,364.1,145.9z    M271.2,160.9c-1.3-0.5-1.9-0.3-2.3,0.7C270,161.8,270,161.8,271.2,160.9z" />
	<path fill="#977264" d="M227.2,128.6c-6.4,1.8-14,0.7-17.7-5.3c-2.7,5.7-6.9,9.3-13,10.6c-0.5-1.1-0.9-2.1-1.4-3   c9.7-6.5,10.4-13.6,10.2-24.8c1.1-1.6,0.4-2.8,0.8-5.1c1.9,4.9,3.8,9,8.6,11c0.3-0.4,0.4-0.5,0.5-0.6c1.5,1.2,3.8,1.6,4.7,3.4   c-0.2,0.2-0.4,0.5-0.5,0.6c2.7,2.7,6,4.3,9.1,6C227.7,123.7,227.4,126.1,227.2,128.6z" />
	<path fill="#EADCB7" d="M255.2,527.1c-3,8-0.7,16.4-1.3,24.7c1.7,1.6,4.1,1.5,5.8,2.5c1.7-0.7,3.2-1.4,4.8-2.1   c1,0.7,1.8,1.5,2.7,2.2c6.3-1.1,12.4,3.1,18.5,1.6c4.3-1.5,8.8-3.2,13.5-2.8c0.8,0.1,1.8,0.3,2.3-0.8c0.5,1.7,1.5,3.3,1.2,5.1   c-10.6,5.8-24.6,5.9-35.4,0.4c-1.7-0.9-3.5-1.3-5.4-0.5c-4.6,1.5-9.3-1-13.9-1.6c4.6-10.2,1.2-21.2,5.1-31.6   C254.6,525.1,254.6,525.1,255.2,527.1z M301.7,555.3c-3.6-1.6-10.8-1.6-12.6,2.7c0.4,0.4,0.6,0.6,0.9,0.8c2.2-1.3,3.9-2.7,6.7-2.5   C298.8,556.2,300.2,556.7,301.7,555.3z" />
	<path fill="#E6CCBB" d="M245.3,199.3c-1.5,0-2.3-1.2-3.3-2c0.2-0.3,0.4-0.5,0.6-0.9c-1.1-0.4-2-0.8-2.7,0.3   c-0.9,0.1-1.3-0.3-0.8-1.2c-0.7-0.5-1.6-1.1-2.4-1.7c-0.6-4,2.2-6.7,5.2-9.2c10.4,9,11.5,12,25.9,10.1c-1.6,3.7-4.9,6-8.6,7.3   c-0.6-1.5-2.6,0.1-3.4-1.3c1.6-0.2,1.9,0.1,3.2-1.4c-3.8,0.3-7.7-1.2-10.4,0.5C247.5,199.9,246.2,200.3,245.3,199.3   c0.6,0,1.3,0,1.9,0c0-0.2,0.1-0.3,0.1-0.5c-0.7-0.3-1.6-0.6-2.7-1.1C245,198.6,245.1,198.9,245.3,199.3z" />
	<path fill="#928F9E" d="M210.5,64.5c5.5-6.1,17.4-8.9,24.2-3.7c-7,0.3-14.8,1-20.6,5.8C212.9,65.9,211.7,65.2,210.5,64.5z" />
	<path fill="#8E8791" d="M210.5,64.5c1.2,0.7,2.4,1.4,3.5,2.1c-4.2,4.7-7.8,10.2-9,16.5c-0.7,0.5-0.6,1.4-0.6,2.1l0,0   c-0.6-0.2-1.4-0.4-2-0.5C201.9,77.8,205.3,69.2,210.5,64.5z" />
	<path fill="#8A6D60" d="M263.3,523.1c-0.6,2.4-2,3.9-3.9,5.2c-2.8-1.3-1.9-3.6-1.8-5.9C259.6,522.8,261.4,523,263.3,523.1z" />
	<path fill="#28201D" d="M202.5,84.5c0.6,0.2,1.4,0.4,2,0.5c0.5,0.9,0.8,1.8,1.3,2.8c-0.3,0-0.5,0-1.2,0.1c0.6,0.5,0.8,0.8,1.1,1.1   c0.1,0.2,0.1,0.4,0.1,0.5c-3-0.3-3.8,3.3-1.3,4.8c-0.6,0-1.4,0-2,0.1l0,0c0-0.3,0-0.5-0.1-0.8c-0.2-0.2-0.4-0.4-0.6-0.5   c-0.2-1.7,0.7-3.1,2.1-4.4c-1-0.8-1.8-1.6-2.7-2.3C201.6,85.8,202.1,85.2,202.5,84.5z M203.4,85.9c-0.3,0.2-0.5,0.3-0.5,0.3   c0.2,0.4,0.4,0.6,0.9,0.5C203.6,86.5,203.5,86.2,203.4,85.9z" />
	<path fill="#1B1311" d="M209.1,107.3c-1.7-1.6-1.7-3.8-3.1-6.4c-0.5,2.3,0.4,3.5-0.8,5.1c0-2.1,0-4.1,0-6.2c0.2,0,0.5,0,0.6-0.1   c0.6,0.4,0.9-0.3,1.3-0.6c0.3,0,0.5,0,0.7,0c-0.1,2.7,1.1,4.9,2.1,7.3C209.7,106.7,209.4,107,209.1,107.3z" />
	<path fill="#6F5349" d="M203.3,97.7c-2.4-2.4-5-5.9-2.7-9.3c1.6,0.4,1.6,0.7,0.6,2c-0.8-1.1-1,2.4,0,2.7l-0.1-0.1   c0.3,0.3,0.5,0.5,0.7,0.7l0,0c0.2,0.3,0.5,0.5,0.6,0.7l0,0C202.7,95.5,204.6,97.1,203.3,97.7z" />
	<path fill="#8B6B5E" d="M205.9,99.7c-0.2,0-0.5,0-0.6,0.1c-0.2-0.2-0.5-0.4-0.6-0.6c0.5-1.6,0-3.2-0.7-4.7c0.2,0,0.5,0,0.6,0   c0.8,0.5,1.6,1,2.7,0.6C206.8,96.7,206.4,98.2,205.9,99.7z" />
	<path fill="#816458" d="M201.2,90.5c1-1.3,0.9-1.6-0.6-2c0-0.7-0.2-1.6,0.6-2c0.9,0.7,1.7,1.5,2.7,2.3c-1.3,1.4-2.2,2.7-2.1,4.4   l0,0c-0.3,0-0.5,0-0.7,0l0.1,0.1C201.3,92.3,201.3,91.4,201.2,90.5z" />
	<path fill="#252320" d="M243.2,164.7c1-1.1,1.6-2.6,3.1-3.2c0.2-0.1,0.2-0.6,0.3-0.9c0.5,0.2,0.8,0.5,1.3,0.6   c-0.6,2.4-2.3,3.6-4.6,4.1C243.2,165.1,243.2,164.9,243.2,164.7z" />
	<path fill="#161413" d="M168.5,314.7c1.5,4,0.3,8.6,0.5,12.8C167.6,323.6,168.9,318.9,168.5,314.7z" />
	<path fill="#271D1A" d="M231.9,164.6c-0.4-1.6-0.7-3.3-1.2-5.3c1.6,1.1,2.4,2.4,2.6,4C232.8,163.7,232.3,164.2,231.9,164.6z" />
	<path fill="#A5B19A" d="M276,530.9c-0.6-0.2-1.4-0.4-2-0.6c1.6-0.6,3.3-0.8,5.1-1.1c0.1,0.2,0.2,0.5,0.5,0.9   C278.3,530.6,277.2,531.1,276,530.9z" />
	<path fill="#2A1C19" d="M203.8,94.5c0.7,1.5,1.3,2.9,0.7,4.7c-0.7-0.2-1.2-0.6-1.4-1.4c1.3-0.6-0.6-2.3-0.7-3.2   C203,94.5,203.5,94.5,203.8,94.5z" />
	<path fill="#816458" d="M205.7,89.2c-0.3-0.3-0.6-0.6-1.1-1.1c1.2-0.2,1.6,0.1,2.7,0.5C206.9,89.3,206.3,89.2,205.7,89.2z" />
	<path fill="#A5B19A" d="M272.7,530.5c-0.7,0.9-1.8,0.6-2.7,0.5C270.7,530.3,271.7,530.3,272.7,530.5z" />
	<path fill="#7A8A8A" d="M171.7,54.1c0.3-0.4,0.6-0.6,0.9-1C173.3,54,172.6,54.2,171.7,54.1z" />
	<path fill="#4C5555" d="M169,64.2c-0.4,0.3-0.6,0.5-1,0.9C167.8,64.1,168,63.7,169,64.2z" />
	<path fill="#28201D" d="M204.6,85.2c0-0.7-0.2-1.6,0.6-2.1C205.1,83.8,205.6,84.7,204.6,85.2z" />
	<path fill="#676464" d="M200.5,28.3c-0.6,0-0.8-0.1-1-0.1C199.9,27.8,199.9,27.7,200.5,28.3z" />
	<path fill="#977264" d="M196.6,134.6c0.7,0.3,0.6,0.9,0.5,1.5C196.6,135.7,196.5,135.2,196.6,134.6z" />
	<path fill="#A5B19A" d="M273.3,531.7c0.3-0.6,0.8-0.7,1.4-0.5C274.3,531.4,273.8,531.5,273.3,531.7z" />
	<path fill="#D69479" d="M225.4,314.3c0.2-0.3,0.5-0.6,0.6-0.8C225.7,313.8,225.5,314.1,225.4,314.3z" />
	<path fill="#D69479" d="M225.9,313.5c0.3-0.2,0.5-0.5,0.7-0.6C226.5,313.1,226.2,313.3,225.9,313.5z" />
	<path fill="#1B1815" d="M286,537.8c-0.2-0.3-0.5-0.5-0.6-0.7C285.5,537.4,285.8,537.5,286,537.8z" />
	<path fill="#1B1815" d="M286.6,538.5c-0.2-0.3-0.5-0.5-0.6-0.7C286.1,538,286.4,538.3,286.6,538.5z" />
	<path fill="#F7EFD0" d="M161.7,539.6c3.7-4.4,4.7-10.4,5.8-16.1c1.6-1.2,3.7-1.5,5.8-2.1c2.6,2.6,4.3,5.7,7.5,7.4   c1.3,8,6.9,14.5,9.9,21.9c1.6,5.8,10.4,8.6,7.3,15.1c-14.2-3.4-15.5,3.8-31.8-0.2c-2.3-2.7,0.3-6.8-4.3-7.6   C160.9,551.8,162.1,545.9,161.7,539.6z M177.9,536.4c-0.6-0.3-1.6,0.3-2-0.7c1.6-0.5,3.1-1.1,4.7-1.6c1-5.5-17.2,3.3-10,5.5   c0.3,1.4-0.5,3.6,1.7,3.5c1.7-3.8,5.4-3.9,8.7-4.3C182.5,536.5,179.3,536.6,177.9,536.4z M183.3,542.4c-0.7-4-13.8,1.8-10.4,4.3   C176.1,545.3,179.4,544,183.3,542.4z M184.1,546.1c-1.6-0.9-12.1,2.8-8.4,5C178.4,549.5,182.9,549.4,184.1,546.1z M177,554.2   c2.7,0.6,7.6-0.5,9.1-2.9C183.3,549.8,178.2,551.2,177,554.2z" />
	<path fill="#EADCB7" d="M161.7,539.6c0.4,6.3-0.8,12.3,0.2,18.4c4.6,0.7,2,4.9,4.3,7.6c16.2,4,17.6-3.2,31.8,0.2   c-0.1,0.3-0.2,0.5-0.3,0.8c-3.5-0.4-6.9-1.1-10.5-0.7c-0.8,0.6-1.7,1.4-2.7,2.1c-0.8,3.5,5.8-2.4,12.6,0.5   c-10.8,3.2-22.2,3.2-33.3,1.1c-1-2.8-0.2-6.2-2.6-8.2c-0.3,1.1-0.5,1.9-0.7,2.9c-1.6,0.3-3-0.3-4.7-0.5c3.1-8.5,2.1-16.9,2.3-25.7   C159.6,539.2,160.3,539.6,161.7,539.6z" />
	<path fill="#73564B" d="M162,535.6c-1.3-1.4-1.2-2,0.7-4.2C163.4,533.3,163.4,533.3,162,535.6z" />
	<path fill="#B28C7D" d="M320.1,152.6c1.7-1.7,1.1-3.8,1.2-6.3c-13.7,9.3-31,11.6-46.9,13.9c-0.1-0.2-0.2-0.5-0.3-0.9   c-4.9-1.1-8.7,1.3-12.8,3.2c-0.5-0.6-0.9-1.2-1.6-1.9c3.3-5,7.9-8.8,12.5-12.7c-1.3-7.2-12.6,5.8-15.8,6.7   c-3.7-6.4-9.2-11.2-14.4-16.3c8.7-6.6,19.6-2.2,29.5-0.7c0.2,0.2,0.6,0.8,1.3,1.6c2,0.5,4.5,1,6.6,1.5c0.4,0.5,0.6,0.9,1.1,1.5   c21.5-1.3,42-8.4,63.5-8.9c12.3,0.6,24.4-1.6,36.7-1.3c9,1.2,18.1,3.2,27.2,1.5c2.1,0.8,2.5,3.8,4.9,3.9c6.8,0.5,12.6,3,19.2,5.1   c-2.1,3.7-20.3-2.1-24.7-3.1c-1.1-1.3-4.9-2.7-5.9-1.2c4.8,1.6,8.5,3.8,13.6,4.6c-1.8,3.3-6.8-0.3-9.7,0l0,0   c-4.8-3.9-11.7,2.8-15.8-4c-24.5-2.4-45.7,17.4-70.3,14.8C319.7,153.2,320,152.9,320.1,152.6z M326.2,146.2   c-1.6,0.6-2.9,1.6-3.8,3.4C325.3,150,325.3,147.5,326.2,146.2z M400.7,136.9c-0.7-0.5-1.5-0.5-2.3,0   C400,138.2,400,138.2,400.7,136.9z" />
	<path fill="#957063" d="M256.5,154.7c4.2-1.3,10.4-11.2,15.5-8.1c-0.9,0.4-2.1,1.6-0.6,2.1c-0.7,0.6-1.4,1.2-2.1,1.8   c0-0.4,0.2-0.9-0.4-1.2c-2.2,0.4-3.2,1-2.8,2.9c0.5,0.1,0.8,0.1,1.1,0.1c-1.3,1.2-2.4,2.6-3.9,3.5c0.2-0.7,0.5-1.5,0.6-2.2   c-1.9-1.1-3.5,2.8-5.1,3.8C257.6,157,256.9,155.9,256.5,154.7z" />
	<path fill="#3B2824" d="M228.4,121.4c-3.1-1.7-6.4-3.4-9.1-6c0.2-0.2,0.4-0.5,0.5-0.6c3,2.2,6.1,4.2,9.4,5.9   C229,120.8,228.7,121.1,228.4,121.4z" />
	<path fill="#F5DDCE" d="M242,141.2c-0.2-0.1-0.3-0.2-0.5-0.2C242,140.6,242,140.9,242,141.2L242,141.2z" />
	<path fill="#3A231F" d="M55.6,138.5c0.5-1.5,3.9-0.2,2,0.6C57.2,138.2,56.3,138.7,55.6,138.5z" />
	<path fill="#3A231F" d="M56.4,139.3c-0.1,0.2-0.1,0.4,0,0.5c-0.2-0.1-0.4-0.2-0.5-0.3C56.1,139.5,56.2,139.4,56.4,139.3z" />
	<path fill="#3A231F" d="M54.3,139.3c0.3-0.2,0.5-0.4,0.7-0.5C54.8,138.9,54.5,139.1,54.3,139.3z" />
	<path fill="#8E7669" d="M8.2,137.9c4-1.4,7.8-3.7,12.1-3.9c0,0.2,0,0.4,0,0.5c-3.5,1-6.7,3.1-10.4,3.3c-0.3,0.7-0.3,2.4-0.9,1.5   C8.9,138.7,8.9,138.1,8.2,137.9z" />
	<path fill="#1A0F0E" d="M31.7,136.7c2.6-1,5.2-1.1,7.9-1.6c0.3,0.3,0.5,0.5,0.7,0.7c-2.5,1.6-5.8,0.7-8.6,1.4   C31.7,137.1,31.7,136.9,31.7,136.7z" />
	<path fill="#252525" d="M31.7,137.2c0.3,0,0.5,0.1,0.7,0.1c-1.2,1.4-3.2-0.3-4.3,1.2c-0.1-0.3-0.3-0.5-0.5-0.9   C29,137,30.4,137.4,31.7,137.2z" />
	<path fill="#6D6458" d="M20.2,134.5c0-0.4,0-0.8,0.2-1.2c0.8,0,1.6,0,2.6,0C22.3,134.2,21.1,133.9,20.2,134.5z" />
	<path fill="#A27D6F" d="M8.2,137.9c0.7,0.2,0.7,0.8,0.7,1.4C7.8,138.8,7.7,138.6,8.2,137.9z" />
	<path fill="#966E61" d="M387.4,138.6c0.7,0,1.6,0,2.2,0c4,6.9,11,0.1,15.8,4C398.9,145,391.9,144.5,387.4,138.6z" />
	<path fill="#45302B" d="M406.9,139.9c-1.7-0.5-3.4-1.2-5.2-1.8c1.1-1.5,4.7-0.1,5.9,1.2C407.2,139.5,407,139.7,406.9,139.9z" />
	<path fill="#966E61" d="M405.5,142.6c2.7,0.2,5.3,1.4,8.2,1.4C411,145.3,407.8,144.2,405.5,142.6z" />
	<path fill="#553C34" d="M383.4,141.2c0.7-1.7,2.3-2.8,3.8-1C386,140.9,384.8,140.5,383.4,141.2z" />
	<path fill="#8C6C5F" d="M231.2,111.2c-1-0.4-0.6-1.2-0.7-1.9c3.8,0.5,7.4-0.4,11.1,0c0.4,4.5-5,3.6-7.6,2.3   C233.2,111.3,232.1,110.1,231.2,111.2z" />
	<path fill="#8C6B5E" d="M242.6,107.2c-2.9,1.3-7.8,2.2-10.7,0.6l0,0c1.6-0.6,3.2-1.3,5-2c1.1,0.2,2.5,1.1,3.7,0   C241.4,106.3,242,106.8,242.6,107.2C242.6,107.3,242.6,107.2,242.6,107.2z" />
	<path fill="#775D53" d="M243.2,108.5c0.2,0.7,0,1.5-0.1,2.3C242.6,109.9,242.1,109.1,243.2,108.5z" />
	<path fill="#775D53" d="M243.3,107.8c0.2,0,0.3,0,0.5-0.1c-0.2,0.3-0.4,0.5-0.5,0.8C243.2,108.3,243.3,108.1,243.3,107.8z" />
	<path fill="#8C6B5E" d="M230.7,107.8c0.2,0,0.4,0,0.5,0c-0.1,0.2-0.2,0.3-0.3,0.5C230.9,108.2,230.8,108,230.7,107.8z" />
	<path fill="#8C6B5E" d="M231.2,107.8c0.2-0.2,0.5-0.5,0.6-0.6c0,0.3,0,0.5,0,0.7l0,0C231.7,107.8,231.5,107.8,231.2,107.8z" />
	<path fill="#382825" d="M33.6,130.5c-0.3,0.5-0.7,0.6-1.3,0.5C32.6,130.5,33.1,130.5,33.6,130.5z" />
	<path fill="#382825" d="M31.8,131.3c-0.3,0.2-0.5,0.4-0.7,0.5C31.2,131.6,31.5,131.5,31.8,131.3z" />
	<path fill="#382825" d="M34.3,129.9c-0.2,0.2-0.5,0.5-0.6,0.6C33.9,130.4,34.1,130.2,34.3,129.9z" />
	<path fill="#382825" d="M35,129.3c-0.2,0.3-0.5,0.5-0.6,0.7C34.5,129.7,34.8,129.4,35,129.3z" />
	<path fill="#342C28" d="M239.8,87.9c0.7-0.6,1.5-1.3,2.1-2c0,0.3,0,0.5,0.1,0.7c0.2,0.2,0.5,0.5,0.6,0.6c0,0.2,0,0.5-0.1,0.6   c-1.6-0.4-1.5,1.9,0.1,1.3v-0.1c0.3,0.3,0.5,0.5,0.7,0.7l0,0c-0.9,0.9-1.8,0.1-3,0c-0.3,0.9-0.4,1.5-0.5,2.3   c-0.7,0.1-1-0.3-1.1-0.9c0.9-0.5,0.5-1.5,0.7-2.2c0.1,0,0.2,0,0.2,0c-0.1-0.1-0.2-0.2-0.3-0.2C239.6,88.5,239.7,88.2,239.8,87.9z" />
	<path fill="#0F0F0E" d="M242,86.5c0-0.3,0-0.5-0.1-0.7c0.7-0.9,1.7-0.5,2.7-0.5C244.1,86.5,243.1,86.5,242,86.5z" />
	<path fill="#0F0F0E" d="M242.6,87.8c0-0.2,0-0.5,0.1-0.6c0.9,0.5,0.6,1.3,0.6,1.9l-0.1,0.1c-0.2-0.1-0.4-0.1-0.6-0.1v0.1   C242.6,88.7,242.6,88.3,242.6,87.8z" />
	<path fill="#0F0F0E" d="M245.6,87.6c-0.3,0.1-0.5,0.4-0.7,0C245.2,87.4,245.4,87.1,245.6,87.6z" />
	<path fill="#0F0F0E" d="M244,89.8c-0.2,0-0.5,0-0.6,0l0,0c0-0.2-0.1-0.5-0.1-0.6l0.1-0.1C243.5,89.4,243.7,89.6,244,89.8z" />
	<path fill="#120908" d="M244,83.2c-0.7,0.3-1.4,0.5-2.4,0.8c-0.3-2.6,3.9-3.9,5.6-2.4C246.9,83.4,244.6,81.6,244,83.2z" />
	<path fill="#D69479" d="M257.4,408.7c-4.2-1.4-9-3.5-7.9-9.3c0.8-0.5,1.7-0.9,2.7-1.5c5.9,2.4,3.5,4.9,6.4,8.1   C257.2,406.6,257.1,406.7,257.4,408.7z" />
	<path fill="#D29177" d="M190.4,401c-5.4-0.6-4.8-13.5,0.7-8.1c-0.4,0.1-0.8,0.2-1.3,0.3c-0.3,2.7-0.1,5.1,0.7,7.6L190.4,401z" />
	<path fill="#241A16" d="M189,440.9c0.9,3.2-1.2,7.1-3.6,9.5C185.4,447.6,186.7,442.2,189,440.9z" />
	<path fill="#CB8C73" d="M192.5,402.2c-0.7-0.5-1.4-0.8-2.1-1.3l0.2-0.2c0.3,0,0.6-0.1,1.1-0.1c0-2.1,0-4.3,0-6.4   c1.7,1.8,2.5,4.9,2.7,7.5C193.6,401.3,193,401.4,192.5,402.2z" />
	<path fill="#201511" d="M191.8,394.3c0,2.1,0,4.2,0,6.4c-0.6,0.1-0.8,0.1-1.1,0.1c-0.8-2.4-1-4.9-0.7-7.6c0.5-0.1,0.9-0.2,1.3-0.3   C191.4,393.3,191.5,393.8,191.8,394.3z" />
	<path fill="#271C18" d="M264.4,395c0.4,2.9-0.9,5.4-3,7.9c-0.6-2.8,1.1-5.5,2.3-8C264,394.9,264.2,395,264.4,395z" />
	<path fill="#402E27" d="M253.9,440.3c0.1-0.4,0.1-0.8,0.2-1.2c2-0.1,1.6,1.7,2.5,2.5c-0.1,0.8,0.4,1.7-0.5,2.5   C254.5,443.2,254.8,441.4,253.9,440.3z" />
	<path fill="#B17C69" d="M204.6,302.8c2.8,0.9,5.4,2.3,7.3,4.7l-0.1,0.1c-2-0.2-3.3-1.6-4.9-2.7   C206.1,304.3,204.8,304.1,204.6,302.8L204.6,302.8z" />
	<path fill="#090403" d="M184.1,456.4c-1.1-1.5-0.7-2.7,0-4.3C185.6,453.3,185.6,455.1,184.1,456.4z" />
	<path fill="#342621" d="M258.1,452.3c-1.5-1-1.6-2.6-2.2-4C258.1,448.7,258.7,450,258.1,452.3z" />
	<path fill="#160F0C" d="M192.5,402.2c0.5-0.8,1.1-0.9,1.8-0.5c0.1,1.1,0.5,2.3-0.1,3.6c-0.4-0.2-0.7-0.4-1.1-0.5   c-0.2-0.7-0.5-1.4-0.6-2.1C192.6,402.6,192.6,402.4,192.5,402.2z" />
	<path fill="#36231E" d="M230.6,310.8c-0.5,0.5-1.1,0.8-1.9,1.4c-0.1-0.6-0.1-1-0.2-1.4c0.8-0.9,1.5-2.1,2.7-2.7   C231.9,309.3,230.8,309.9,230.6,310.8z" />
	<path fill="#0F0B09" d="M181.5,462.4c1.2,1.3,1.2,1.3-0.1,3.1C180.8,464.2,180.8,464.2,181.5,462.4z" />
	<path fill="#5A3E35" d="M212,312c1.1,0.6,2.2,1.2,3.6,2c-1.8,0.1-1.8,0.1-4.3-1.3C211.4,312.5,211.7,312.3,212,312z" />
	<path fill="#9B6B5B" d="M212,312c-0.3,0.3-0.5,0.5-0.7,0.7c-0.8-0.5-1.9-0.6-2.5-1.7C210.1,310.6,211.1,311.2,212,312z" />
	<path fill="#45322A" d="M257.4,408.7c-0.4-2-0.3-2.1,1.2-2.7C258.7,407.3,258.7,408.3,257.4,408.7z" />
	<path fill="#4B3028" d="M257.2,454.9c1.6,0.7,1.6,0.7,1.3,2C257.4,456.9,257.6,456,257.2,454.9z" />
	<path fill="#B17C69" d="M211.9,307.5c1,0,1.6,0.5,1.9,1.4l0,0C212.9,308.8,212.3,308.4,211.9,307.5L211.9,307.5z" />
	<path fill="#80574B" d="M258.6,460.3c0.6,0.9,0.6,1.1-0.3,1.3C257.8,461.1,258.2,460.7,258.6,460.3z" />
	<path fill="#CB8C73" d="M192.6,402.8c0.2,0.7,0.5,1.4,0.6,2.1C192.2,404.4,192.5,403.5,192.6,402.8z" />
	<path fill="#B17C69" d="M204.6,302.8c-0.3-0.1-0.6-0.1-1-0.2C204.1,301.9,204.3,302.3,204.6,302.8L204.6,302.8z" />
	<path fill="#B17C69" d="M213.9,308.8c0.2,0.1,0.3,0.2,0.5,0.3C214.2,308.9,214.1,308.8,213.9,308.8L213.9,308.8z" />
	<path fill="#E6CCBB" d="M199.8,272.1c-0.9-1.3-0.4-2.7-1.1-4.1c1.2-0.7,0.5-2-0.7-1.8c-1-2.4-0.9-2.5,1.3-3.4   c8.5,6.7,11.9,18.1,14.5,28c-3.8-1.5-5.4-5.8-8.4-8.2c1.2-1.1-0.1-2.6-1.1-3.5c-0.2,0.5-0.3,0.7-0.4,1.1c-1.4-2.1-1.1-4.9-3.3-6.7   c1.5-0.2,1-2.7-0.6-2.7C199.9,271.3,199.8,271.7,199.8,272.1z" />
	<path fill="#0E0A09" d="M192.5,187.3c6.7,11.2,20.7,8.8,31.8,8.3c0.1,0.3,0.1,0.6,0.2,0.9C215.7,200.1,192.1,199.6,192.5,187.3z" />
	<path fill="#352E2B" d="M249.6,279.9c-0.3-2.6,1.1-7.5,2.7-9.6C253.4,273.5,251.4,277.2,249.6,279.9z" />
	<path fill="#352522" d="M248.7,199.9c2.8-1.7,6.6-0.3,10.4-0.5C256.3,202.2,252.2,199.8,248.7,199.9z" />
	<path fill="#1F1917" d="M244.2,238.2c1,1.5,0.7,2.6,0.2,3.8C243,240.4,243,240.2,244.2,238.2z" />
	<path fill="#38312E" d="M245.9,246c0.4,1.6,1.3,3.2,0.4,5.3c-0.8-1.6-0.9-3-1.2-4.5C245.3,246.6,245.6,246.3,245.9,246z" />
	<path fill="#4A3C37" d="M203.8,280.1c0.1-0.3,0.2-0.6,0.4-1.1c1,0.9,2.4,2.5,1.1,3.5C204.8,281.7,204.4,280.9,203.8,280.1z" />
	<path fill="#5E544E" d="M247.6,283.2c0.5,1.1-0.1,1.7-0.8,2.3c-0.3-0.2-0.5-0.4-0.7-0.5C246.3,284,246.6,283.3,247.6,283.2z" />
	<path fill="#4B3430" d="M226.6,195.2c-0.2-0.3-0.4-0.5-0.6-0.7c1.4-1.6,1.4-1.6,2.6-0.5C228,194.4,227.4,194.8,226.6,195.2z" />
	<path fill="#352C29" d="M199.8,272.1c0.1-0.4,0.1-0.8,0.2-1.3c1.6-0.1,2.1,2.4,0.6,2.7C200.2,273,200,272.5,199.8,272.1z" />
	<path fill="#584440" d="M244.2,289.9c-0.6-1.4,0.2-1.6,0.9-2.3C245.6,288.7,245.2,289.3,244.2,289.9z" />
	<path fill="#7D4641" d="M239.9,196.6c0.6-1.1,1.6-0.7,2.7-0.3c-0.2,0.4-0.4,0.6-0.5,0.9C241.2,197.1,240.6,196.9,239.9,196.6z" />
	<path fill="#867970" d="M245,232.4c-1-0.1-1.3-1.6-0.2-1.6C245.6,231.2,245.3,231.8,245,232.4z" />
	<path fill="#9C8C83" d="M245.5,227.9c-2,0.1-1.5-0.8-1.3-1.6C244.6,226.7,245,227.1,245.5,227.9z" />
	<path fill="#7F7069" d="M245.9,246c-0.3,0.3-0.5,0.5-0.8,0.7c-0.6-0.7-0.7-1.6-0.4-2.5C245.5,244.7,245.8,245.3,245.9,246z" />
	<path fill="#715E56" d="M197.9,266.1c1.3-0.1,1.9,1.2,0.7,1.8l0,0c-0.2-0.3-0.5-0.5-0.6-0.7C197.9,266.9,197.9,266.5,197.9,266.1z" />
	<path fill="#89645E" d="M244.2,236.6c-0.1-0.1-0.2-0.2-0.2-0.2c0.2-0.3,0.3-0.2,0.5,0C244.4,236.4,244.3,236.5,244.2,236.6z" />
	<path fill="#E6CCBB" d="M197.9,267.3c0.2,0.3,0.5,0.5,0.6,0.7C198.3,267.8,198.1,267.6,197.9,267.3z" />
	<path fill="#130C0B" d="M158.4,142.6c0.6,0.7,1.2,1.4,1.9,2.3c-0.6,0.1-0.8,0.2-1.2,0.3c-2.8-2.3-6.5-3.3-9.3-5.3v0.1   C152.9,137.8,155.8,141.1,158.4,142.6z" />
	<path fill="#1E1513" d="M149.7,148.3c-3.7,1.6-7.2,0.9-11.5,0.8c2.9-2.3,6.5-0.5,9.8-1.8C148.6,147.1,149.5,147,149.7,148.3z" />
	<path fill="#201614" d="M161.2,148c2.7-1.4,4.1,2.2,4.6,4.4c-0.5,0.1-0.8,0.1-1.3,0.2C163.4,151,162.3,149.4,161.2,148z" />
	<path fill="#4B2F2A" d="M40.3,135.9c-0.3-0.3-0.5-0.5-0.7-0.7c2.3-1.5,5.1-3.5,8-2.1C44.7,133.1,42.6,134.7,40.3,135.9z" />
	<path fill="#201513" d="M170.5,160.6c0-0.3,0-0.6,0.1-1.1c1.7-0.4,3.9,2.6,2,3.7C171.8,162.4,171.2,161.4,170.5,160.6z" />
	<path fill="#1F1715" d="M166.5,154.6c0.9-1.6,4.2,1.7,2,2.6C167.9,156.3,167.2,155.5,166.5,154.6z" />
	<path fill="#241714" d="M149.8,139.9c-1.1,0.1-2.4,0.5-3.3-0.6C147.9,138.4,147.9,138.4,149.8,139.9L149.8,139.9z" />
	<path fill="#4F3732" d="M130.9,148c0.8,0,1.6,0,2.7,0C132.6,149,131.8,148.6,130.9,148z" />
	<path fill="#665048" d="M101.8,140.3c-0.6,0.1-1.1,0.2-1.6,0.3C100.1,139.1,101.4,138.9,101.8,140.3z" />
	<path fill="#442B26" d="M64.9,141.2c-1.2-0.1-1.3-0.1-2-1.4c1,0.4,1.6,0.5,2.1,0.7C65,140.8,65,141,64.9,141.2z" />
	<path fill="#977264" d="M158.4,144.8c0.3,0.2,0.5,0.3,0.7,0.5C158.9,145,158.7,144.9,158.4,144.8z" />
	<path fill="#302925" d="M192.5,187.3c-0.6,0.2-0.6,0.8-0.6,1.3c-0.9-1.6-1.8-3-2.7-4.6c0.3-0.3,0.5-0.6,0.8-0.8   C191.4,184.3,191.8,185.8,192.5,187.3z" />
	<path fill="#3E3632" d="M187.2,180c-0.3-0.5-0.6-1.1-1-1.8C187.7,178.1,187.7,178.1,187.2,180z" />
	<path fill="#65504A" d="M189.9,183.3c-0.3,0.3-0.6,0.6-0.8,0.8c-0.6-0.5-1-1.1-0.2-2.1C189.2,182.4,189.6,182.9,189.9,183.3z" />
	<path fill="#6E5D55" d="M230.6,192.6c-0.2-0.1-0.3-0.2-0.5-0.3c0.1-0.1,0.2-0.2,0.3-0.3C230.4,192.3,230.5,192.5,230.6,192.6   L230.6,192.6z" />
	<path fill="#140E0D" d="M221.1,89.8c-0.6-1.1-1.1-2-1.6-3.2c4.3-1.1,11.8-3.7,12.2,3.2C228.7,90.9,224.3,90.9,221.1,89.8z    M225.1,89.8c0-1,0-1.6,0-2.5c-0.9,0.3-1.6,0.5-2.7,0.8C223.4,88.8,224.2,89.3,225.1,89.8z M229.1,88c-0.1-0.2-0.1-0.4-0.2-0.5   c-0.4,0.1-0.2,0.4-0.2,0.6C228.8,88.1,229,88.1,229.1,88z" />
	<path fill="#20110F" d="M220,82c4.4-1.8,10.4-2.3,13.7,1.6c-0.6,0.7-1.5,0.5-2.1,0.1c-2.4-1.4-5.1-1.1-7.7-1.6   C222.7,81.8,220.8,83.4,220,82z" />
	<path fill="#46342F" d="M233.7,102.6c-0.7-0.4-1.5-0.6-2.3-1c-0.2-1.7-0.9-2.6,1.4-3.7c0,1,0,2,0,3.4c1.1-0.6,1.9-1.1,2.8-1.6   c0.6,0.4,1.1,0.6,1.6,1C236,101.4,235,101.9,233.7,102.6z" />
	<path fill="#32221F" d="M231.9,107.9c0-0.3,0-0.5,0-0.7c2.6-1.6,9.5-4.3,10.7,0c-0.6-0.5-1.3-0.8-2-1.4c-1.2,1.1-2.6,0.3-3.7,0   C235.1,106.6,233.5,107.3,231.9,107.9z" />
	<path fill="#553F37" d="M209.1,107.3c0.3-0.3,0.6-0.5,0.8-0.8c1.7,1.6,3.5,3.2,5.2,4.8c-0.1,0.2-0.3,0.4-0.5,0.6   C212.3,111.1,210.8,109.1,209.1,107.3z" />
	<path fill="#2A1C19" d="M207.2,95.2c-1.6,0.5-2.9-0.9-3.9-1.9c0.4,0,0.6-0.1,1-0.1c0.5-0.8,0.3-2.2,1.6-2.6   C205.6,92.3,206.8,93.5,207.2,95.2z" />
	<path fill="#362924" d="M242,97.2c1.2,1.4,2.3,3.2,0.2,4.6c-0.9,0-2,0-3.6,0c0.9-0.7,1.6-1.3,2.3-1.7c0.5,0,1,0.7,1.6-0.1   c-0.4-0.6-0.8-1.3-1.3-2C241.5,97.6,241.7,97.5,242,97.2z" />
	<path fill="#816458" d="M205.8,90.5c-1.4,0.4-1.1,1.7-1.6,2.6c-0.4,0-0.7,0.1-1,0.1c-1.1-1.7,0.8-3.7,2.6-3.5   C205.8,90,205.8,90.3,205.8,90.5z" />
	<path fill="#2B1E1A" d="M239.8,87.9c-0.9,0.9,0,2.5-1.2,3.3c-0.3-1.9-0.4-3.8,1.4-5.4C240.6,86.6,239.8,87.3,239.8,87.9z" />
	<path fill="#7D6156" d="M242,97.2c-0.3,0.3-0.5,0.5-0.7,0.7c-0.9-0.8-1.6-1.7-0.9-3.6C240.9,95.5,241.5,96.4,242,97.2z" />
	<path fill="#52463E" d="M220,82c0.2,0.7,0.8,0.5,1.4,0.6c-0.7,1-1.9,0.6-2.8,1.1C217.3,82.5,219.2,82.2,220,82z" />
	<path fill="#8B6B5E" d="M207.1,99.2c-0.2,0.2-0.4,0.4-0.6,0.5C206.8,99.6,206.9,99.4,207.1,99.2z" />
	<path fill="#8B6B5E" d="M207.9,99.1c-0.3,0-0.5,0-0.7,0C207.4,98.6,207.7,98.6,207.9,99.1z" />
	<path fill="#271815" d="M202,139.2c2.2-0.7,4.1-0.7,6.3,1C205.7,140.9,203.8,139.9,202,139.2z" />
	<path fill="#2C2622" d="M211.2,140.9c0.8-0.6,1.6-0.5,2.4,0.1C212.9,142.3,212.2,142.3,211.2,140.9z" />
	<path fill="#4D3833" d="M218.5,141.5c-1.1,1-1.1,1-2.3,0.3C217.1,140.4,217.1,140.4,218.5,141.5z" />
	<path fill="#1B1815" d="M284.9,538.5c0.4,0.4,0.6,0.6,1,1c-1.5,2.7-4.7,3.5-7.5,4.9C276.1,540.9,282.7,539.7,284.9,538.5z" />
	<path fill="#15110F" d="M288.5,543.5c-1.6,1.6-3.3,2-5.2,1.5C282.7,542.5,287.3,541.2,288.5,543.5z" />
	<path fill="#362420" d="M61.6,140.3c-1.3-0.7-1.6-0.6-2-1.7C61.1,138.6,61.1,138.6,61.6,140.3z" />
	<path fill="#553A33" d="M175.2,165.4c0.1,0.1,0.2,0.2,0.4,0.3c-0.3,0.1-0.6,0.3-0.7,0C174.9,165.6,175.1,165.5,175.2,165.4z" />
	<path fill="#160F0D" d="M320.1,152.6c-1.3,1.3-3,2.6-4.9,1.6c0.9-1.6,2.7-1.8,4.4-2.8C320,151.9,320.1,152.3,320.1,152.6z" />
	<path fill="#4F3932" d="M271.2,160.9c-1.1,0.9-1.1,0.9-2.3,0.7C269.3,160.6,269.9,160.4,271.2,160.9z" />
	<path fill="#181310" d="M301.7,555.3c-1.6,1.4-3,0.9-4.9,1.1c-2.7-0.3-4.5,1.2-6.7,2.5c-0.3-0.3-0.5-0.5-0.9-0.8   C290.9,553.8,298.2,553.8,301.7,555.3z" />
	<path fill="#765A53" d="M245.3,199.3c-0.2-0.4-0.3-0.7-0.6-1.6c1.1,0.5,1.9,0.8,2.7,1.1c0,0.2-0.1,0.3-0.1,0.5   C246.5,199.3,245.9,199.3,245.3,199.3L245.3,199.3z" />
	<path fill="#654D44" d="M203.4,85.9c0.1,0.3,0.2,0.5,0.3,0.7c-0.5,0.2-0.6-0.1-0.9-0.5C203,86.2,203.2,86.1,203.4,85.9z" />
	<path fill="#2A1C19" d="M202.5,94.5c-0.2-0.3-0.5-0.5-0.6-0.7c0.2-0.1,0.4-0.1,0.6-0.1C202.4,94,202.5,94.2,202.5,94.5z" />
	<path fill="#816458" d="M202.4,93.7c-0.2,0-0.4,0.1-0.6,0.1l0,0c0-0.3,0-0.5,0-0.7l0,0C202.1,93.4,202.3,93.5,202.4,93.7z" />
	<path d="M201.2,90.5c0,0.9,0,1.8,0,2.7C200.2,93,200.4,89.5,201.2,90.5z" />
	<path d="M201.9,93.1c0,0.3,0,0.5,0,0.7c-0.3-0.3-0.5-0.5-0.7-0.7C201.4,93.1,201.6,93.1,201.9,93.1z" />
	<path fill="#0D0A08" d="M170.5,539.6c-7.2-2.2,11-11,10-5.5C177.1,535.8,172,535.4,170.5,539.6z" />
	<path fill="#13100E" d="M183.3,542.4c-3.8,1.6-7.1,2.9-10.4,4.3C169.4,544.2,182.6,538.4,183.3,542.4z" />
	<path fill="#16120F" d="M177.9,536.4c1.4,0.2,4.6,0,3,2.4c-3.3,0.4-7.1,0.5-8.7,4.3c-1.6,0.1-1.6-1-1.6-1.9   C172.1,538.2,174.9,537.4,177.9,536.4z" />
	<path fill="#1B1714" d="M184.1,546.1c-1.2,3.3-5.7,3.5-8.4,5C172.1,548.9,182.5,545.1,184.1,546.1z" />
	<path fill="#1B1512" d="M177,554.2c1.2-2.9,6.2-4.3,9.1-2.9C184.6,553.8,179.8,554.8,177,554.2z" />
	<path fill="#CCCEB4" d="M177.9,536.4c-2.9,1-5.9,1.6-7.3,4.7c-0.6-3.3,2.7-4.9,5.3-5.4C176.2,536.7,177.2,536.2,177.9,536.4z" />
	<path fill="#201815" d="M267.2,152.5c-0.4,0-0.6-0.1-1.1-0.1c-0.4-1.9,0.6-2.6,2.8-2.9c0.6,0.3,0.3,0.7,0.4,1.2   C268.5,151.2,267.9,151.8,267.2,152.5z" />
	<path fill="#322925" d="M326.2,146.2c-1,1.3-0.9,3.8-3.8,3.4C323.4,147.9,324.5,146.8,326.2,146.2z" />
	<path fill="#634B43" d="M400.7,136.9c-0.7,1.3-0.7,1.3-2.3,0C399.3,136.4,400,136.4,400.7,136.9z" />
	<path fill="#392722" d="M271.3,148.7c-1.5-0.5-0.3-1.7,0.6-2.1C273.4,147.2,272.1,148.2,271.3,148.7z" />
	<path fill="#BCC4C2" d="M242.6,87.8c0,0.5,0,0.9,0.1,1.3C241.1,89.8,241,87.5,242.6,87.8z" />
	<path fill="#B28C7D" d="M243.2,89.2c0,0.2,0,0.5,0.1,0.6c-0.3-0.3-0.5-0.5-0.7-0.7C242.8,89.1,243.1,89.2,243.2,89.2z" />
	<path fill="#B28C7D" d="M239.4,88.9v-0.3c0.1,0.1,0.2,0.2,0.3,0.2C239.6,88.9,239.5,88.9,239.4,88.9z" />
	<path fill="#E2EAEA" d="M225.1,89.8c-1-0.5-1.6-1-2.7-1.6c1.1-0.4,1.8-0.5,2.7-0.8C225.1,88.2,225.1,88.8,225.1,89.8z" />
	<path fill="#545858" d="M229.1,88c-0.1,0-0.3,0.1-0.4,0.1c0-0.3-0.1-0.5,0.2-0.6C229,87.6,229.1,87.8,229.1,88z" />
</g>
</g></svg>