<?xml version='1.0' encoding='utf-8'?>
<svg xmlns="http://www.w3.org/2000/svg" version="1.2" baseProfile="tiny" id="Layer_2_00000142155471089913696320000015691642895748321924_" x="0px" y="0px" viewBox="0 0 900 600" overflow="visible" xml:space="preserve">
<g>
	<path d="M481.7,189.6c-0.2,2.5-1.6,5-0.5,7.4c0.8,1.7,0.4,3.1-0.9,4.2c-9.1,8.4-18.1,11.8-23.2-2c-0.8,3,1.1,5.1,1.3,8   c-0.3,0.3-0.7,0.5-1.2,0.9c1.9,12.9,8.4,24.1,14.5,35.3c4.3,7.6,3.2,16.5,6.4,24.4c17.1,40.7,13.6,86.4,20.2,129.5   c-1.1,21,10.8,38.3,14.5,58.4c2.5,27.5,2.2,55.4,6.2,82.8c8,6,5.7,16.5,8.3,25.1c2.2,6.5,5.3,12.6,5.6,19.7   c4.8,12.7-34.3,13.6-37.3,5.6c1.1-12.8-2.4-25.9,2.8-38.3c-1.3-4.3-1.9-7.7,1.1-11.6c-5.9-26.6-18-50.6-25.5-76.3   c-2.8-12.7,1.4-26.7-4.9-38.4c-14-18.9-17.7-42.3-23.7-64.6c-4.4-9.9-11.2-19-13.7-29.8c-0.9-7.9-2.4-15.8-6.5-22.9   c-3.3-0.9-5.9,3-5.7,5.7c1.3,1.8,0.5,3.7,0.2,5.6c-7.1,32.1-24.2,61-29.1,93.7c-1.6,10.4-9.7,18.7-10.8,28.9   c0.2,7.8,0.5,15.7,0.1,23.5c-0.3,16.1-12.7,28-14.4,43.9c-10.2,29.1-12.5,20.2-4.3,50.3c-3.1,10.8,1.7,22.9-3.4,34   c0.3,0.2,0.6,0.5,1.2,0.9c-3.9,8-25,4.7-32.4,2.5c-0.6,0.2-1.2,0.5-1.8,0.8c-7.6-4.5-3.3-12.9-1.1-19.2c2.2-8.8,4.7-17.6,7-26.4   c1.5-0.8,2.9-1.6,4.5-2.5c11.9-39.6-4.8-85.8,15.3-123.6c7.9-29.6,2.6-59.9,4.1-90.2c5.2-38.5,13.9-76.7,26-113.6   c7.3-32.4-18-61.2-23.9-92c-10.1-30.8-1.7-59.7,34.4-37.2c1.5-4.3-0.1-8.5,0.9-12.8c1,0.4,1.8,0.4,2.5,1.3   c-0.6,0.3-1.1,0.6-1.7,0.9c0.6,0.8,0,2,1.2,2.6c1.8,2.9-3.5,7.5,0.3,9.2c0-1.2-0.9-2.6,0.4-3.3c0.4,1.4,0.8,2.7,1.2,4.2   c13.6,5.4,27,8.1,41.3,11.1c-11.2-4.4-17.6-12.6-16.4-25c-0.1,0-0.3,0.1-0.4,0.1c-0.3-0.7-0.7-1.3-1-2c1-1.7,2-3.4,2.9-5.1   c1.2,11.2,1.3,24.1,14.1,28.9c-0.2-2-0.3-3.9-0.4-5.7c0.5,0.2,0.9,0.5,1.4,0.7c2.4,9.1,2.3,18.5,7.9,26.7c0.4,0,0.8-0.1,1.6-0.1   c0.3,1.6,0.5,3.3,0.8,4.9c-0.7,0-1,0.1-1.5,0.1c3.5,22.2-3.3,48.3,12.4,67l0,0c0.4,4.6,3,8.8,7,11.6c5.3-1.5,9.8-4.1,14-7.6   c-0.8-3.5-1.5-6.6,0.7-9.7C480.8,189.6,481.2,189.5,481.7,189.6z M347.6,555.7c-4.7-0.8-9.3-2-14,0.5c-0.1-2.8,2.3-3.2,1.7-5.7   c-0.8,0.4-1.5,0.8-1.9,1c-3.4,6.8-3,14.1-5.1,21.2c-1.5,6.3-7.4,12.2-4.5,19c9.5,4,21.1,4.4,30.7,2c-0.9-2.9,1.4-5.5,2.5-8   c4.4-8.5-0.9-18.8,2-27.9c-2-5.5-3.3-11.1-5.9-16.5c-1.8,0.4-3.7,1.1-5-0.8c-6.1,0.8-12,4-10.2,10.9c2.9,0.3,21,0.8,17.7,5.5   c-1.6-0.2-3-0.4-4.4-0.6C350.2,555.4,348.9,555.7,347.6,555.7z M420.9,254.9L420.9,254.9c-15.1-1.5-30.6-4-45.9-5.8   c-5.5,19.4-7.5,38.2-11.9,57.9c5.6,3.1,11.8,4.2,17.9,5.9c-1.2,0.7-3,1.6-4.3,1.4c-0.8-1.3-2-0.6-3-0.7c-3.9-0.8-7.3-2.7-11.1-3.8   c-12.1,35.1,2.1,76.3-9.7,111.8c0.1,10.3-7.8,19-9.3,29.3c0,29.4-0.8,58.7-2.6,88.1c1.5,0,2.8,0.2,3.9-0.7c2.7-0.1,5.5-0.9,8.3,1   c4.8-20.6,9.9-42.5,20.4-60.9c3-2.8,2.3-6.9,3.5-10.4c3.8-10.7-4.3-28.2,3.4-36.5c5.2-11.6,7.7-23.9,11.3-36   c5.2-27.3,20.4-52.2,24.6-79.8c-11.7,2.6-23.9,4.4-35.4,0c11.8-1.9,24.4,1.2,36.1-3.3c0-1.7,0.4-3,1-4.5c11-9.7,10.8,3.8,14.6,11.3   c2.9-0.9,6,0.4,8.5-1.6c-0.1-0.4-0.2-0.7-0.3-0.9c14.9-0.8,29.3-1.4,43.1-7.9c-1.4-20.4-8.3-39.3-13.4-58.9   c-7.6-0.8-14.3,3.2-21.4,4.8c-8.9,1.1-18.1,1.3-27.1,0.1C421.8,254.1,421.3,253.9,420.9,254.9z M402.6,249.2   c0.3-0.3,0.6-0.6,0.9-0.9c11.8,4.8,28.4,3.6,41.3,3.3c1.6-1.7,3-3.1,4.4-4.6c0.3,0.2,0.5,0.5,0.8,0.7c-0.7,1.2-2,2-2.3,3.7   c7.8-1.3,14.4-3.5,22.2-4.6c-8.4-17.9-17.7-32.7-15.1-53.1c-0.5-0.7-1.2-1.6-1.6-2.1c-23.6-2.9-47.4-4.4-71,0.1   c2.6,12.3,4.4,24.7,0.8,37.1c-0.4-0.1-0.8-0.2-1.3-0.4c-1.5,6.3-4.3,12-6.5,18.2C384.4,246,393.8,250.3,402.6,249.2z M374.5,128.8   c-0.3-0.3-0.5-0.5-0.8-0.8c-0.2-1.2-1.3-1.5-2.1-2.1c0.1-0.4,0.2-0.9,0.2-1.2c23.5,8.6,47.3,2,71.4,4.5c0.3-4.6-2.7-8.4-2.9-12.8   c-2.5-2.5-3.1-5.8-3.6-9.3c-12.8-2.5-25.8-5.1-38.1-9.4c-9.3-2.7-16.7-10.7-26.5-11.6c-7.8,0.6-17.6,3.4-16.6,13.2   c0.5,17.9,3.4,36.2,11.9,52c0.9,0,1.8,0,2.8,0c6.2-5.4,12.2-12.4,14.4-20.5C381.1,130.3,378,128.2,374.5,128.8z M514.3,553.5   c-4.7-0.5-10.1-1.9-14.6-0.8c0,0.9,0,1.9,0,3c-3.3,0.1-1.3,8.8-2.4,11.4c-1.5,5.3,1.9,10.4,0.4,15.6c-0.8,3.6-1,7.9,4.2,7.5   c0-0.3,0.1-0.7,0.1-1c2.5-3.4,6.3-4,9.9-4.6c0.2-0.8,0.4-1.3,0.6-1.9c3.4-0.4,9.1,1.2,10.2,4.7c-2.4-0.4-4.7-1.7-6.9-2.7   c-3.5,3.7-9.1,1.2-12,5.8c9.2,2.9,16.8-1,25.6-2.2c4.1-9.4-3.9-20.2-5.6-29.7c-3.7-7.9-0.2-14.4-9.3-20.1   c-7.7-1.8-19.1,3.2-13.7,11.7c3.3-1.5,20.1-2.4,18.2,3.3C517.7,553.5,516,553.5,514.3,553.5z M423,130.9c-2.5-0.2-4.9,0.1-7.8,0.2   c1.1,1.3,1.9,2.2,2.8,3.3c-1.4,0.4-1.8-0.5-2.2-1.1c-4.6-4.1-12.4-0.9-18.2-1.1c3,8.4,12.1,11.4,20.1,10.8c0.3-2.7-0.6-5.2,0.4-8   c1.7,2.9,0.6,5.8,1.9,8.2c7.7,3.8,16.4-4.5,16.6-11.9C432.4,130.5,427.5,130.8,423,130.9z M499.8,527.3c1.3,2.8,2.4,6.5,1.9,9.6   c5-0.5,9-1.3,14.1-1c-0.5-19.3-3.8-38.4-4.5-57.7c1.3-10.1-0.2-20.4-2.8-30.3c-18.7-43.4-13.5-91.3-24.1-136.7   c-16,7.5-33.6,10.1-51.1,10.6c-0.5,17.4,15.9,30.4,18.2,47c4.3,13.1,7,27.2,11.6,40.1c4.8,7.1,10.6,13.7,11.9,22.4   c-2.1,45.4,17.7,54.1,23.7,94.7C499.5,526.1,499.8,526.6,499.8,527.3c-0.9,0.5-0.6,1.1-0.2,1.8   C499.6,528.5,499.7,527.9,499.8,527.3z M381,143.9c-3.4,4.9-7.8,8.4-12.9,10.8c2.8,7.4,5.7,14.9,8.6,22.2c0.7,0.5,1.3,0.9,1.9,1.2   c0.8,3.8,1.3,7.6,2.9,11.1c17.6-2.1,35.6-4.1,53.3-2.7c5.7,0.5,10.9,4.3,16.7,1.8c-2.2-6.8-3.9-13.2-5.5-20.3   c-7.3-0.3-15.6,0.4-20.7-6c-0.6-4.5,12.8,8.3,20.8,3.5c-0.9-11.1-0.3-22.7-2.3-33.6c-1.3-0.3-2.6-0.8-4-0.3   c-0.8,5.3-3.6,9.4-7.9,12.4c0.1,0.5,0.2,1,0.3,1.5c-13,0.7-34.2,3.8-36.9-13.6c-2.7-0.2-5.3-0.4-7.7-0.6   C385.2,135.9,383.3,139.7,381,143.9z" />
	<path fill="#020202" d="M481.2,189.5c-0.3,0-0.6,0.1-0.9,0.1c1.5-11.8-4.9-21.6-9-32.1c-5.1-11.2-7.3-23.6-9.8-35.4   c-2.9-13.2,9.3-19.6,7-24.2c-0.4,0.3-0.7,0.5-1.1,0.8c-0.6-1.7-0.3-2.9-0.2-4.5c0.3-0.3,0.6-0.6,0.9-0.9c2-0.4,0.6-3,2.2-3.7   c1,0.9,0.8,2,0.5,3c-0.6,5.2,0.6,9.9-3.3,14.2c19,0.1,36.9,7.3,55.6,8.9c6.2,1.5,13.7-1.8,18.9,2.2c8.8,0.6,16.4-6.4,25.2-5.2   c0.5,1.3,1,2.5,1.5,3.7c-0.3,0.3-0.5,0.5-0.8,0.8c-0.7-1-1.4-1.9-2.1-2.9c-8.6,0.2-17.5,7.3-25.6,5.2c-6.8-2.6-15.3-0.2-22.7-1.8   c-17.1-2.8-34.1-8.5-51.4-8.5c-4.5,7.5-1.3,16.9,0.2,24.7c23.3,4.8,46.5-3.3,69.8-3.8c8.1-0.2,13,13,21.8,10.1   c0.8,0.4,1.7,0.8,3.1,1.4c-2.1,0.1-3.2-0.6-4.5,0.8c-3.3,1.4-7.4-1.8-9.8-4.1c-10.7-13.7-47.2,1.9-66.2-0.8   c-3.1,16.4,1.7,32.6,1.2,48.8C480.7,187.4,481.1,188.5,481.2,189.5z M466.6,136.1c2.9,11,5.5,21,10.9,30.5   c-1.6-10,0.7-18.6,0.6-28.5C474.2,137.8,470.5,137.8,466.6,136.1z" />
	<path fill="#0C0B0A" d="M384.4,18.5c2.2-6.1,9.5-11.2,16-10.4c4.1-7.9,19.9-9.8,19.7,1.7c-0.4,0-0.9,0-1.3,0   c-0.3-0.9-0.5-1.8-1.4-2.3c-2.7-5.1-10.9-4.4-13.6,0.1c1.3,0.1,2.4,0.2,3.5,0.3c1.2-1,1.7-2.6,3.5-2.5l-0.1-0.1   c-0.6,0.9-1.1,1.8-1.8,2.6c0.7,0.7,1.1-0.5,1.9-0.5c0.1,2.8,3.7,0.5,5.3,2.8c-2.4,0.3-3.3,0.3-5.4,0.1c-0.5,0.6-0.7,1.4-0.7,2.2   c-0.5-0.7-0.9-1.3-1.3-2c-4.6-1.8-2.3,0.7-4.3,2.8c-0.2-0.3-0.5-0.5-0.7-0.8l0.1,0.1c-0.4-1.3,0.6-3.8-1.6-2.4   c-0.3,0.9-0.7,1.6-1.3,2.3c0,0,0,0,0,0c0.1-1,0-2.4-1.5-2.2c-1.2-0.1-0.5,1.4-0.7,2.2c-0.3,2.1-0.7,4.3,1.3,5.9l0,0   c0,0.6,0.1,1.2,0.8,1.4l-0.1,0.1c0,1.8,1.8,1.6,1.6-0.1c0.9,0.5,0.5,1.3,0.6,2.1c-1,0.1-2,0.2-3,0.3c-1.8-2.2-2.5-5.1-3.8-7.6   c1.3-1.3,0.1-2.6,0.1-4.1c-0.8,0.1-1.3,0.1-1.7,0.1c-0.8,0.6,0.4,5.1-1.1,3.3c-0.5-0.6-0.7-1.1-1-1.9c-1.4,1.5-4,1.9-4,4.2   c-3.1,0,0,2.9-0.8,4.6c-0.5-0.5-1-1.1-1.4-1.7c0,0,0,0,0,0C385.8,18.4,385.1,18.6,384.4,18.5z" />
	<path fill="#161412" d="M393.3,79.5c-0.3-0.1-0.7-0.3-1.1-0.4c-1,4.2,0.6,8.5-0.9,12.8c-1-0.6-1.6-1-2.2-1.4c0.6,0,1.2,0.1,1.9,0.1   c2.3-9.1-2.9-15.7-5.5-24c-3.9-2.3-4-7.6-6-11.3c-2.3-3.8-0.6-7,1.4-10.6c-0.3-3.2-0.8-6.7,0.2-10.1c1.7-0.9-0.2-3.3,1.4-4.3   c0.7,1.8,1.7,3.5,1.6,5.7c0.7-0.5,1.2-0.6,2-0.5c0,1.6,0.8,3.7-0.8,4.9c-1.1-0.9-0.6-3.1-2.7-3.3c-1.2,2.9,2.6,0.3,0.7,5.9   c-0.5,12.5,3.2,25.6,10,36C393.3,79.1,393.3,79.3,393.3,79.5z M380.3,50.1c-0.3,2.1-0.6,3.9,1.3,5.4   C381.6,53.5,382.6,51.6,380.3,50.1z M384.2,64.1c0.4-0.2,0.7-0.3,1-0.4c-0.5-2.5-0.5-2.5-2.2-4.6C383.5,61.1,383.8,62.6,384.2,64.1   z M381.3,47.6c-0.1,1.3-0.1,1.3,1,0.9C382,48.2,381.7,48,381.3,47.6z" />
	<path fill="#100F0E" d="M427.4,60.6c-0.5,1.7-1,3.4-1.5,5c-0.3-0.5-0.5-1.1-0.8-1.6c0.3-3.2,1-6.5,2.3-9.4   c2.6-5.8-1.3-11.4-0.1-17.2c0.9-0.7,1.1-1.8,1.5-2.8c-0.3-0.3-0.5-0.6-0.8-0.8c0.2-2.6,0.3-13.2-2.8-13c0.5-1.9,1.2-0.7-0.1-2.8   c0.3-0.3,0.5-0.6,0.8-0.9c7.1,8,2.5,19.9,5,29l0,0c-0.6-0.1-1.8,0.3-0.8,0.8c0.3,0.5,0.6,1.1,0.9,1.6c-0.7,1.1,0.1,1.8,0.7,2.5   c0.1,3.5-5.4,6.1-3,8.2C428.3,59.6,427.8,60.1,427.4,60.6z" />
	<path fill="#151312" d="M470.2,89.5c-0.9,0.3-0.8,1-0.9,1.7c-1-1.6-0.3-3.5-0.8-5.5c-2.1-1.7-1.9-5.1-4.2-6.9   c-0.8,1.1-0.1,2.5-0.7,3.6c2.9,3,3.1,6.9,4.4,10.7c-0.3,0.3-0.6,0.6-0.9,0.9c-0.5-1.2-1-2.4-1.5-3.7c0.2-0.7,0.1-1.3-0.6-1.6   c-0.3-3.7-1.5-5.5-6.1-5c-0.9,1.5,0.2,3.3-0.9,5c-0.6-0.6-1-1.1-1.6-1.6c-1.1,0.1-2.3,0.1-3.3,0.2c-0.8,0.7-1.4,1.2-2.1,1.7   c-1-0.9-1.8-1.7-2.7-2.4c0-0.2,0-0.4,0-0.6c2.6-0.5,5.2-0.3,7.9-0.3c0.4-1.1,0.8-2.1,1.3-3.3c1.3-0.1,2.6-0.3,4-0.5   c0.8-1.9-0.4-4.8,2.7-5.9C467.8,79.5,470.5,84.3,470.2,89.5z" />
	<path fill="#1B1817" d="M575.9,128.7c0.3,2.1,0.5,4.2,0.8,6.4c8.9,5.7-6.5,8.8-10.9,7.3c0.3-0.2,0.5-0.5,0.8-0.7   c1.2-0.2,2.5,0.4,3.6-0.6c2.9,0.3,5-1.2,7.4-2.9c-0.6-0.6-1.2-1.2-1.5-1.5c-1.6,0.8-3,1.6-4.3,2.3c-0.3-0.2-0.6-0.5-0.9-0.7   c5.9-3.2,5.8-7.8-1.5-5.3c-3.3,0.7-8.4,1.3-9.3-2.8c4.4,2.4,8.9,1.8,13.9,1.1C574.5,130.5,575.1,129.5,575.9,128.7z" />
	<path fill="#292624" d="M431.2,52.9c0.2-0.6,0.4-1.2,0.7-1.9c0.4,0.2,0.7,0.5,1.1,0.8c0.5-2.9,0.5-2.9-0.3-4.7   c-0.5,0.5-1,0.9-1.6,1.4c-0.3-0.5-0.6-1.1-0.9-1.6c0.3-0.3,0.5-0.5,0.8-0.8l0,0c0.7,0.1,1.2-0.1,1.4-0.8c-0.1-0.2-0.1-0.3-0.2-0.5   c-0.2,0.2-0.4,0.4-0.5,0.6c-0.2-0.1-0.4-0.1-0.7-0.1c0-0.3,0-0.6-0.1-0.9c0.5-0.6,1.1-1.2,1.7-1.8c5.8,4.2,1.7,12.2-1.5,16.7   c-0.3-0.3-0.6-0.6-1-0.9c0.7-1.8,1.4-3.6,2.2-5.6C431.8,52.8,431.5,52.8,431.2,52.9z" />
	<path fill="#2C2825" d="M566.6,141.7c-0.3,0.2-0.5,0.5-0.8,0.7c-3.1,0.1-6.3,0.1-9.4,0.2c1.3-1.4,2.4-0.7,4.5-0.8   c-1.4-0.7-2.2-1-3.1-1.4c0.7-0.6,1.3-1.2,2-1.8c-0.2-0.5-0.4-1.1-0.7-1.6c0.1-0.5,0.2-1.1,0.3-1.6c0.1,0,0.3-0.1,0.4-0.1   c0.2,0.2,0.3,0.4,0.3,0.6c2.1,4.2,7.1,4.6,10.8,2.4c0.3,0.2,0.6,0.5,0.9,0.7c-1,0.5-2,1-2.9,1.5   C566.9,140.3,566.8,140.3,566.6,141.7z M560.4,139.3c1,1.8,1.8,2.1,3.3,1.4C562.6,140.2,561.9,139.9,560.4,139.3z" />
	<path fill="#211F1E" d="M448.4,86.1c0,0.2,0,0.4,0,0.6c-1.5,1.8-2.9,3.9-2.5,6.3c-1.8,0.7-2-1.3-3.1-1.9c-1.4,1.9-3.2,3-5.1,4.2   c-0.1,0.6-0.2,1.1-0.2,1.5c-0.5-0.2-0.9-0.5-1.4-0.7c0.5-1.1,1-2.1,1.4-3.2c3.7-1.5,6.7-5.2,10.2-7.1C447.9,86,448.2,86,448.4,86.1   z" />
	<path fill="#2B2927" d="M382.4,30.2c-1.6,1.1,0.3,3.4-1.4,4.3c0.9-5.2,0.1-11.8,3.4-16c0.6,0.1,1.4-0.1,1.7,0.8   c-0.4,0.1-0.8,0.2-1.2,0.3c0.2,0.9,0.3,1.6,0.3,1.8c-0.7,1.1-1.1,1.9-1.5,2.6c0.7,1,1.2,1.8,1.7,2.5c0,0-0.1-0.1-0.1-0.1   c-0.2,0-0.5,0.1-0.7,0.2c-0.2,0-0.4-0.1-0.7-0.1c-1.4-1.1,0.1,1.9,0.2,2.5c0.5,0,1.1-0.1,1.6-0.1c-0.5,0.7-0.9,1.2-1.4,1.8   c-0.5-0.4-1-0.7-1.4-1.1C382.7,29.8,382.6,30,382.4,30.2z" />
	<path fill="#21201D" d="M425.9,17.1c-0.3,0.3-0.5,0.6-0.8,0.9c-2.5-2-10.5-10.3-11-3.8c-0.6-1.1-0.8-2.2-0.7-3.5   c0.7-0.1,1.3-0.1,2.6-0.3c-0.8-0.6-1.3-0.9-1.7-1.2c1.3-0.4,2.7,0,3.7,1c0.5-0.2,1.4-0.4,2.1-0.3C419.8,13.3,424.7,14,425.9,17.1z" />
	<path fill="#3E3936" d="M575.9,128.7c-0.3,0.3-0.6,0.6-0.9,0.9c-0.5-1-1-2.1-1.5-3.1c-0.4,0.2-0.8,0.3-1.1,0.4   c-0.2-0.7,0-1.5-0.9-1.8c-1.6-2.5-1.9-5.5-3.6-8c0.3-0.3,0.5-0.5,0.8-0.8C571.5,120,574.7,124.4,575.9,128.7z" />
	<path fill="#252322" d="M425.1,64c2.2,3.8-1,8.1-2,11.9c0-1.1,0-2.1-0.7-3C423.3,70,424.2,67,425.1,64z" />
	<path fill="#54514F" d="M430.1,58.3c0.3,0.3,0.6,0.6,1,0.9c-0.5,0.6-0.9,1.3-1.4,1.9c-0.8-0.2-1.6-0.3-2.3-0.5   C428.1,59.6,429.1,58.9,430.1,58.3z" />
	<path fill="#C1C1C1" d="M457.7,203.5c-0.9-1.3-0.9-2.7-0.6-4.4c0.9,0.8,1.4,1.7,1.4,2.8C457.7,202.2,458,203,457.7,203.5z" />
	<path fill="#F6D9C7" d="M481.2,189.5c-0.1-1-0.5-2.1,0.4-3c0,1,0.1,2,0.1,3C481.5,189.6,481.4,189.5,481.2,189.5z" />
	<path fill="#F6D9C7" d="M448.4,86.1c-0.2-0.1-0.5-0.2-0.7-0.2c1.3-0.9,1.6-0.9,2.8-0.1C449.8,85.9,449.1,86,448.4,86.1z" />
	<path fill="#2B2927" d="M385.3,16.9c-0.2,0.3-0.4,0.6-0.5,0.9C384.9,17.5,385.1,17.2,385.3,16.9z" />
	<path fill="#F6D9C7" d="M446.5,86.1c-0.3,0.2-0.6,0.5-0.9,0.7C445.6,86.3,445.9,86.1,446.5,86.1z" />
	<path fill="#F6D9C7" d="M376.7,314.3c0.2,0.2,0.3,0.2,0.6,0.1c12.6,5.4,26.2,4.5,39.2,1.3c-4.3,27.6-19.4,52.5-24.6,79.8   c-3.6,12.1-6.1,24.4-11.3,36c-7.7,8.3,0.4,25.8-3.4,36.5c-1.2,3.5-0.5,7.6-3.5,10.4c-10.5,18.4-15.6,40.3-20.4,60.9   c-3.4-2.4-6.8-0.4-10.2-1.3c5.6-17.2,3-34.4,4-52c7.3-16.5-0.7-36.8,6.1-54c1.4,0.1,2.4,1.6,4.1,0.6c-2.2-14.2,4.4-18,5-30.8   c5.4-29-1.1-60.2,8.4-88C372.5,314.1,374.6,314.3,376.7,314.3z M369.5,420.2c2.3-2.1,1.5-6.9,4.8-7.7c0.2-0.8,0.4-1.5,0.4-1.9   c4.4-3.3,11.3-8.5,9.6-14.5c-3.1,3.7-4.5,9.6-9,12.5c-1.8-3.9-0.5-9.5-5.4-11.8c-4.7,2.1-1.8,7.6-1,11.3c0.4,0.4,0.9,0.8,1.4,1.3   c-0.1,3.7,0,7.3-1.8,10.8c-0.5,0.4-0.7,0.9,0,1.5C368.8,421.1,369.2,420.7,369.5,420.2L369.5,420.2z M360.7,477.3   c0-0.7,0-1.3,0-2.1c-1.7,0.3-1.9,3.4-0.7,4.1c0.2,0,0.3,0,0.6-0.1C360.6,478.7,360.6,478,360.7,477.3z M365.1,458.6   c0.2-1.5,3.9-5.4,1-5.7c-1.2,1.6-1.7,3.6-1.8,5.7c-1,0.7-0.8,1.6-0.2,3.1C364.5,460.2,364.8,459.4,365.1,458.6z M371.5,443.3   c1.3-1.7,5.1-5,3.2-7c-0.7,1.4-8.7,11.1-6.8,11.2C369.2,446.1,370.7,444.9,371.5,443.3z M366,427.9c1.7-1.5,1.6-1.5,0.6-3.6   C365.5,425.5,365.6,426.6,366,427.9z M362.2,469.3c0.9-1,1-1.3,1.4-2.4c-0.4-0.3-0.8-0.6-1.4-1C362.2,467.1,362.2,468,362.2,469.3z   " />
	<path fill="#F6D9C7" d="M443.3,321.6c14.1-2.2,28.1-3.7,41-10.3c10.6,45.3,5.4,93.3,24.1,136.7c2.6,9.9,4.1,20.2,2.8,30.3   c0.7,19.3,4,38.4,4.5,57.7c-3.4-0.1-6.2,0-9.4,0.3c-1.7-7.5-3.9-14.8-7.2-21.7c0.3-1.5,1.4-3.3,0.1-4.5   c-4-23.9-23.7-46.6-17.9-72.1c1.3,0.4,2.4,1.9,4.1,1.7c2.4,1.3,0.7,9.3,3.4,8.3c-0.4-1.7-0.9-3.5-1.3-5.3c-0.1-1.1,1.2-2.2,0.1-3.4   c-2.5-10.9-13.4-17.7-17.2-28.1c0.7-0.3,1.3-0.6,2-1c-7.5-14.4-10.8-30.9-13.8-46.9c-0.6-3.3-1.2-6.3-4.4-8c0.1-6,3-22.6-2.3-26.1   c-2.6,4.7-2.4,10.2-4.5,14.9C445.2,336.5,444.5,329.3,443.3,321.6z M490.6,454c-0.3-0.6-0.3-1.5-1.4-0.9c0.4,1.3,0.8,2,1.6,3.3   C491.3,455.3,491.4,454.6,490.6,454z M481.1,399.8c1.7-0.1,2.8,2,4.9,1.1c0.2-4.6-2.8-8.9-7.3-9.7c-3.1,3.4,2.3,7.8-0.6,12.2   c-10.6-1.4-1.6,20.8,5.7,20c-0.5-0.6-0.9-1.1-1.3-1.7c2.2-5.1-0.3-11.8-2.9-16.2C480,403.7,480.5,401.8,481.1,399.8z M488.7,419.8   c1.2,0.5,2.3,0.5,3.1-0.8C490.5,418.1,489.7,419.1,488.7,419.8z M492.4,461.6c-0.9,1.2-0.9,1.2,0.4,2.5   C492.6,463,492.5,462.3,492.4,461.6z" />
	<path fill="#FF9A77" d="M381,312.9c-1.9-0.5-3.9-1.1-5.8-1.6c-0.2-0.4-0.4-0.9-0.7-1.4c5.7-10.2,9.4-21.5,13.3-32.4   c1.6-0.4,3,0,4.9-0.5c-1.8-1.3-3.4-0.5-4-2.4c2.9-0.7,5.7,0.9,8.4-1c-2.4-1.3-4.8-1.9-7.1-2.4c-0.2-2.2-0.2-2.3,1.4-4.1   c1.6-0.1,3.1,0.5,4.4-0.9c-1.7-0.9-3-1.6-4.3-2.3c0.2-2.6,0.4-5.1,0.6-7.5c1.1-0.2,2.2,0.2,3.4-0.5c-1.5-1-1.5-1-3.4-1.1   c0.1-0.7,0.2-1.3,0.2-2c9.3-0.1,18.5,0.2,27.4,2.5c0.4,5.6-1.2,10.6,1.2,16.1c0-6,0-10.8,0.2-16.5l0,0c9.4,0.6,19.1,1.2,28.5-0.3   c7.2-1.6,13.8-5.6,21.4-4.8c5,19.6,12,38.5,13.4,58.9c-13.1,5.7-26.5,8.3-40.7,6.8c0.5-10.5-0.7-21.7,9.3-28.1   c-3.6,1-6.9,1.9-10.2-0.5c-7.5,5.4-27,15.1-25.4,25.4c-10.3,3.3-21,3-31.6,2.6c0-0.5,0-1.1,0-1.6   C383.9,312.7,382.5,312.8,381,312.9z M403.5,294.7c-2.1-2.3-2.7-3.7-5.2-4.3c1.6,1.6,2.4,3.3,4.5,3.6c2.9,3.7,6.3,6.6,10,9.3   c0.9-0.1,1.8-0.1,3-0.2c-0.6-5.7-5.7-10.2-9.6-14c-2.3-3.2-4.8-7.6-8.2-9.1c0.2,0.1,0.3,0.2,0.5,0.3c0.5,1.7,1.7,3,2.9,4.3   c-0.7,0.1-1.7-0.4-2.2,1.1c4.6,4.3,9,9.2,12.8,14.4c-0.2,0.2-0.4,0.4-0.6,0.5C408.8,298.5,406.2,296.5,403.5,294.7z M458.5,256.3   c2.8,0,5.6,0.1,9.1-0.3c-3.5-2.3-9.5-0.8-13,0.8C455.9,256.9,457.4,257.6,458.5,256.3z M410.1,304.8c1.3,0.1,2.3,1.4,4,0.5   c-6.4-3.3-12-6.7-18.9-8.9C400.1,299.7,403.9,305,410.1,304.8z M449.5,267.7c3.9,0.6,13.9-1.4,16.1-4.4   C460.7,263.8,453.4,264.6,449.5,267.7z M450.9,261.9c2.4-0.6,6.5,0.4,7.6-2.4C455.7,260,453.3,260.5,450.9,261.9z M422.7,289.3   c-1-2.9-1.2-5.2-0.7-8.3C420.3,283.4,420.4,286,422.7,289.3z" />
	<path fill="#F6D9C7" d="M401.3,189.7c17.6-2.4,34.6,0.1,52,1.9c0.4,0.6,1.1,1.4,1.6,2.1c-2.6,20.4,6.7,35.2,15.1,53.1   c-7.8,1.1-14.4,3.3-22.2,4.6c0.5-2.8,7-8.5,5.3-10.9c-2.7,4-4.5,7.8-8.2,11.1c-10.8,1.1-21.7,0-32.6-1.1   c-10.8-5.5-13.6-32-13.7-43.5C398.8,201.2,394.1,192.1,401.3,189.7z M445.4,204.2c0.1,0.3,0.1,0.8,0.6,0.3   C445.9,204.3,445.7,204.2,445.4,204.2c-0.8-3-4.1-4.7-5.7-7.4c-2.4-1.6-4.1-7.4-7.3-6C436.2,195.8,441.3,199.5,445.4,204.2z    M409.2,194.7c-3.7,3.1-5.6,6.8-5.7,11.7l0,0c-1.5,3.2-1.1,7.9,0.4,11.2c2.3-7.3,4-14.7,6.2-22.1c0.6-1.3,5.1-4.3,2.3-5   C411.4,191.9,410.3,193.3,409.2,194.7z M447.8,218.5c0.1,1.4,0.3,2.8,1.1,4c0.2-5.1-0.4-10.7-1.9-15.5   C446.5,211.2,447.1,214.6,447.8,218.5z M419.5,235.5c0.3,4.7,6,1.2,8.4,0.2c-1.1-1.2-2.9-1-3.5-2.5c-0.7-0.5-1.4-1-2.2-1.6   c2.9-6.6,0.7-14.3-0.3-21.3c-2.4,4.6-0.1,9.5-1.7,14.3C418.7,228.2,419.8,231.9,419.5,235.5z M456.4,235.6   c-1.5,0.5-1.5,0.5-0.9,1.8C455.9,236.7,456.2,236.1,456.4,235.6z" />
	<path fill="#FFF0A7" d="M425.2,162.1c5,6.4,13.4,5.7,20.7,6c1.6,7,3.3,13.5,5.5,20.3c-5.8,2.5-11-1.3-16.7-1.8c-12-2-23.9,1.1-36,0   c-2-5.5-0.2-10.2,2.7-15c6.1-1.7,16.2-3.4,17.9-10.3c-0.4-0.2-0.7-0.5-1.5-0.9c-0.5,2.9-2.5,4.1-4.8,5c-6.1-12.1-16.6,7.5-32-21.4   c2.3-4.1,4.2-8,6.5-12.4c2.4,0.2,5,0.4,7.7,0.6c2.7,17.4,23.9,14.3,36.9,13.6c-0.1-0.6-0.2-1-0.3-1.5c4.4-3,7.1-7.1,7.9-12.4   c1.5-0.4,2.7,0,4,0.3c1.6,8.7,2,18.4,1.3,27.1c-6.6-0.1-12-3.1-17.5-5.7C422,154.2,422.3,158.5,425.2,162.1z" />
	<path fill="#F6D9C7" d="M441.1,93.1c0.5-0.6,1.1-1.2,1.7-2c1.1,0.6,1.3,2.6,3.1,1.9c-0.4-2.4,1-4.5,2.5-6.3   c0.9,0.8,1.7,1.6,2.7,2.4c0.7-0.5,1.3-1.1,2.1-1.7c1-0.1,2.2-0.1,3.3-0.2c0.5,0.5,1,1,1.6,1.6c1.2-1.7,0-3.5,0.9-5   c4.5-0.4,5.7,1.3,6.1,5c-1.5-0.2-2.8,0.1-4.1,1.4c1.7,0.1,3.2,0.2,4.7,0.2c1.7,2.7,1.1,5.2,1.7,8.2c0.4-0.3,0.8-0.5,1.1-0.8   c2.9,4.1-11.6,11.3-6.3,28.7c-0.9,0.5-1.8,1-2.9,1.5c-0.6,2.9,1.8,4.2,4.2,5c2.1,19.7,21,40,15.5,59.1c-1.1,2.4,0.3,4.6,0.5,7.1   c-3.8,2.6-7.5,6.7-12.4,6.2c-5-3.7-1.3-8.5-4.2-12.9c1.5-4.6-3.5-8.5-5-12.7c-4.7-10.2-4.3-22.2-5.9-33.1c-1.6-2.8,0.1-6.1-1.4-9   c-0.2-0.6-0.3-1.7,0.4-2.2c2.7,2.8,3.5,6.1,4.3,9.8c7.1-7.8-1.7-21.1-8.4-27c-1.8-7.5-5-15.2-5-23.1   C443.5,94.4,441.6,94,441.1,93.1z M464.2,178.8c0.4,1.6,0.9,3.1,2.4,4.4c0.2-1.5-2.4-8.3-4.2-6.9   C463,177.1,463.6,177.9,464.2,178.8z M459.2,164.3c-0.4-0.9-0.5-2-1.5-2.7c0.3,1.2-0.4,2.5,0.8,3.5c1.2,3.7,1.2,3.7,3.2,4.9   C460.9,167.8,460,166.1,459.2,164.3z M453.7,89.9c-1.6-0.7-2.4,0.1-3.4,0.9C451.5,91,452.5,91,453.7,89.9z M451.4,96.9   c0.4-0.8,1.2-1.8,0-3.1C451.4,95.2,451.4,96,451.4,96.9z M453.8,102.3c0.5-1.1,0.9-2,0-3C453,100.3,453.4,101.3,453.8,102.3z    M453.1,150.8c-0.4,0.3-0.2,1-0.1,1.4C454.4,152.9,454.3,151,453.1,150.8z M446,104.6c0.4-1.2,0.2-1.8-1.2-2.1   C444.7,103.5,444.8,104.2,446,104.6z M444,98.5c0-0.7-0.1-1.5-0.1-2.4C442.8,97,443.2,97.8,444,98.5z" />
	<path fill="#F6D9C7" d="M362.1,88.7c13.3-7.6,24.6,5.2,36.6,9.1c12.3,4.3,25.3,6.9,38.1,9.4c0.5,3.5,1.1,6.8,3.6,9.3   c0.1,2,0.7,4.8-2,5.2c-14.7,0.6-29.6,1.3-44.3,1.2c-6-0.9-12.1-2.4-18.4-2.1c-2.9,0.3-8.1-2.8-9.2,1.2c0.9,0.9,2,1.9,3.1,2.9   c-0.4,0.3-0.7,0.6-1.1,0.9c-0.7,0-1.4-0.1-2.2-0.1C355.5,111.7,364.5,102.3,362.1,88.7z" />
	<path fill="#F6D9C7" d="M425.1,64c-1.9,8.5-5.8,17.7-15,19.1c-3.7-3-8.2-2.4-12.7-4.1c-6.9-4.7-16.5-31.9-12.2-38.9   c0,0,0,0.1,0,0.1c0.5,0.3,1.1,0.5,1.6,0.8c4.4-1.4,8.6,0,13.3,1.6c-2.5-5.3-9.7-3.3-14.3-3c0.1-0.2,0.2-0.5,0.3-0.7   c0.8-0.5,0.7-1,0-1.5c-0.3-4.3-0.4-8.8,3.7-11.4c1.9-2.3,4.8-5.3,7.9-3.1c0.5-0.5,0.9-0.9,1.3-1.3c1.2,1.8,3.3,1.4,5.1,1.4   c0.3,0.2,0.5,0.4,0.8,0.6c3.1-0.6,5.7-1.5,7.4-4.3c-0.5,2.1,2.9,2.1,3.2,0.1c0.3,0.7,0.6,1.9,1.7,1.3c1.1,0.8,2.3,0.7,3.7,0.8   c0,0-0.1,0-0.1,0c-0.2,0.5-0.7,1,0.3,1.6c0.6-0.4,1.2-0.9,1.9-1.5c0.1,1-0.1,2.1,0.3,2.5c1.9,1.3,0.5,3.4,2,4.6   c0.1,1.3-0.5,2.7,0.7,3.6c-0.3,1.1-0.6,2.2-0.9,3.2c0.4,1,1,1.9,2.2,1.9c-1.2,5.9,2.7,11.5,0.1,17.2C426,57.6,425.4,60.8,425.1,64z    M410.2,59.9c0.1,0.3,0.3,0.6,0.4,0.9l0,0.3c-1.1,1.4-1.4-0.5-2.7-0.4c-1-0.7-1.2-2.5-2.4-0.9c-0.7,1.1-0.7,1.2,0.8,2.2   C413.7,66.2,411.5,56.2,410.2,59.9z M423.7,36.7c0-0.8,0.4-1.6-0.5-2.1c-0.2,0-0.3,0.1-0.6,0.1c0.2,1.4-1.1,3.6,1.2,4   C423.7,38,423.7,37.4,423.7,36.7z M399.8,59.8c-1.2,1.4,0.3,2.3,0.3,3.7c0.6-0.2,0.9-0.3,1.2-0.5c-0.3-0.9-0.5-1.6-0.7-2.4   c0.3-0.7,1.2-1.2,0.4-2.1C400,58.6,399.9,59.2,399.8,59.8z M420.1,44.6L420.1,44.6c-4.2-3.1-8.6-0.7-10.9,3.3   c1.6,1.3,2.1-0.9,3.3-0.7c0.6,0.8,1.3,1.4,2.4,1.2c-0.1,0.4-0.2,0.8-0.4,1.2c0.8,0.4,1.1,0.2,2,0c-0.2-0.5-0.4-0.9-0.6-1.3   c0.4-0.5,0.9-1.1,1.3-1.6c1.3,0.2,3.5,2,4.2,0.2C422.8,45.4,422,44.5,420.1,44.6z M415.8,40.2c2.4,0,4.7,0.2,7,0.6   c0.2-3.5-17.2-2.5-15.3,0.9C410.1,41.2,413,40.7,415.8,40.2z M412,73L412,73c0.3-0.5,0.6-1,0.9-1.5c0.5-0.5,1.8-0.4,1.4-1.8   c-6,0-11.4-2.3-17.4,0.7c2,6.9,11.1,8,15.9,3.2C412.5,73.3,412.3,73.2,412,73z M399.1,47.6c-3.3-3.9-8.4-5.2-11.8-1.6   c0.5,0.1,0.9,0.2,1.4,0.4c-0.4,0.5-0.8,1-1.3,1.6c0.7,0.3,1.2,0.6,1.7,0.8c0.8-0.6,1.6-1.1,2.4-1.6c0.7,0.9,1,2.1,2.4,2   c-0.4,0.4-0.8,0.7-1.3,1.1c1.2,1,2.3,1.1,3.4,0c-0.2-0.5-0.4-0.9-0.6-1.3c0.4-0.3,0.9-0.7,1.3-1c0.6,0.5,1,0.6,1.7,0.8   C398.6,48.3,398.9,47.9,399.1,47.6c0.4,0.2,0.8,0.4,1.9,1c-0.5-1-0.7-1.3-0.9-1.7C399.8,47.1,399.5,47.3,399.1,47.6z M406.4,47   c-0.8,2.2-0.8,2.2,0.1,5.1C407.3,50.5,407.4,49.1,406.4,47z M404.2,62.7c0.1-2-3.1-1.6-1.8,0.3C402.9,62.9,403.6,62.8,404.2,62.7z    M407.2,46c1.3-1.7,1.3-1.7,1.2-3.1C407.4,43.8,406.7,44.6,407.2,46z" />
	<path fill="#E1C7B6" d="M485.4,439.7c-1.7,0.2-2.7-1.3-4.1-1.7c-5.6,25,13.2,47.6,17.7,70.7c-1.3,0.9-0.4,2.6-0.5,3.9   c0.5,0.1,0.9,0.1,1.2,0.2c-0.2,0.6-0.3,1.1-0.5,1.7c3.3,6.9,5.5,14.2,7.2,21.7c-1.3,0.8-3,0.4-4.7,0.7c0.5-3.1-0.6-6.8-1.9-9.6   l0.1,0.1c0-0.8-0.4-1.3-1.3-1.3c-6-40.6-25.8-49.2-23.7-94.7c-1.2-8.8-7.1-15.4-11.9-22.4c-4.6-12.9-7.3-27-11.6-40.1   c-2.2-16.6-18.7-29.6-18.2-47c3.4-0.1,6.7-0.2,10.1-0.3c1.2,7.7,1.9,15,4.1,22.6c2.1-4.7,1.9-10.2,4.5-14.9   c5.3,3.4,2.4,20.1,2.3,26.1c3.2,1.7,3.8,4.7,4.4,8c2.7,15.7,6.5,31.3,13,45.9c-0.7,0.1-1.3,0.1-2.4,0.2c1.7,0.6,1.7,0.6,2.4-0.2   c0.2,0.3,0.4,0.5,0.7,0.9c-0.7,0.4-1.3,0.6-2,1c3.9,10.4,14.8,17.2,17.2,28.1c1.1,1.2-0.3,2.2-0.1,3.4c-0.2,0-0.5,0-0.7,0   c-0.2-0.7-0.5-1.5-0.7-2.2c2.5-0.6-6.2-11.5-7.6-10.4C480.8,433.4,483.9,435.8,485.4,439.7z" />
	<path fill="#E1C7B6" d="M373.9,314.2c-1.2-0.1-2.3-0.3-3.5-0.4c-9.5,27.9-3.1,59.1-8.4,88c-0.5,12.7-7.2,16.7-5,30.8   c-1.6,1.1-2.6-0.4-4.1-0.6c-6.7,17.2,1.3,37.5-6,54c-1,17.6,1.6,34.8-4,52c0.6,0.1,1.3,0.2,1.9,0.3c-1.1,0.9-2.4,0.7-3.9,0.7   c1.8-29.4,2.6-58.7,2.6-88.1c1.5-10.3,9.5-19,9.3-29.3c11.8-35.5-2.4-76.8,9.7-111.8c3.8,1.1,7.2,3,11.1,3.8   C373.7,313.8,373.8,314,373.9,314.2z" />
	<path fill="#EF8A6A" d="M391.9,256.4c-0.2,2.5-0.4,4.9-0.6,7.5c1.3,0.7,2.7,1.4,4.3,2.3c-1.3,1.4-2.8,0.8-4.4,0.9   c-1.6,1.8-1.6,1.8-1.4,4.1c2.3,0.5,4.7,1.1,7.1,2.4c-2.7,1.8-5.5,0.2-8.4,1c0.7,1.9,2.2,1.1,4,2.4c-1.9,0.5-3.2,0.1-4.9,0.5   c-3.9,10.9-7.6,22.2-13.3,32.4c0.3,0.5,0.5,0.9,0.7,1.4c-4.3-0.7-8.2-2.4-12.1-4.3c4.4-19.7,6.4-38.5,11.9-57.9   c8.3-0.1,16.1,3,24.3,3.5c-2.3,0.1-4.6,0.1-7.2,0.2c-0.1,0.7-0.2,1.4-0.2,2c-1.4,0.1-2.9-0.2-4,1.5   C389.4,256.4,390.6,256.4,391.9,256.4z" />
	<path fill="#E1C7B6" d="M401.3,189.7c-7.2,2.4-2.5,11.5-2.9,17.3c0.2,11.6,2.9,37.7,13.7,43.5c-6.9,0.9-7.9-2.2-12.6-5.8   c-0.2,0.4-0.3,0.6-0.4,0.7c-0.3-0.1-0.6-0.3-1.4-0.6c1-0.7,1.4-1.1,1.9-1.4c-0.8-2.1-1.6-4.2-2.3-6.3c-1,0.3-1.1,1.1-1.2,2   c-1.6-0.2-1,0.3-0.7,1.3c-1.4,1.2-2.8,2.3-4.2,3.5c0.2,1.6,0.4,3,0.6,4.5c-5.6-0.7-10.9-1.9-16.6-1.8c2-5.2,3.9-10.3,5.8-15.5   c0.3,0.9,0.6,1.8,1.1,3c4.1-13.9,3.4-28.4,0.1-42.5C388.6,189.7,395,189.9,401.3,189.7z M393,235.6c0.3-1.8,0.3-1.8-2.1-2.9   C391.7,233.8,392.3,234.6,393,235.6z" />
	<path fill="#EBDA8F" d="M401.3,171.5c-2.8,4.8-4.7,9.5-2.7,15c2.7,0.1,5.3,0.2,7.9,0.3c-8.4,1.4-16.8,0.1-25.2,2.4   c-1.5-3.4-2-7.2-2.9-11.1c-0.6-0.4-1.1-0.8-1.9-1.2c-2.8-7.4-5.7-14.9-8.6-22.2c5.1-2.4,9.5-5.9,12.9-10.8   c15.4,28.9,25.8,9.2,32,21.4c-9.9,6.2-23.5,4-32.3-3.2c-0.3,0.3-0.6,0.7-0.8,1C384,170.7,393.6,171.1,401.3,171.5z" />
	<path fill="#F7EFD0" d="M351.3,556.4c1.4,0.2,2.8,0.4,4.4,0.6c3.1-4.7-11.2-4.1-13.9-5.5c0-2.8,0-5.6,0-7.6c0.8-1.1,1.2-1.5,1.5-2   c1.6-0.4,3.2-0.9,5-1.4c1.3,2,3.1,1.3,5,0.8c2.5,5.4,3.9,11,5.9,16.5c-2.7,10.6,3.1,22.2-3.9,31.7c-0.6,1.3-1.2,2.6-0.5,4.1   c0,0-0.3,0.2-0.5,0.4c-10.3-1.5-7.3-13.9-21.7-7.2c-1.8-6.9,1.2-15.4,2.7-22.3c5.3-1,10.6,1.5,15.7,0.4c1.7-4.3-4.3-3.1-6.8-4.2   c0-0.2,0-0.5,0-0.7c2.6,0,5.1,0,7.6,0c0.9-1.5,0.1-2.3-1-3C350.9,556.8,351.1,556.6,351.3,556.4z M346.8,570.7   c2.2-5.6-9.7-3.1-11.7-0.7C340.8,571.3,342.5,571.4,346.8,570.7z M335.7,572.3c0,0.2-0.1,0.5-0.1,0.7   C345.3,579.5,346.2,569.3,335.7,572.3z" />
	<path fill="#F7EFD0" d="M519.3,553.5c2.6-4.2-10.8-5.1-13.4-5c-0.9-2.8-1.8-5.5-2.6-8.1c16.5-8.1,17.4,6.9,20.7,18.2   c1.7,9.5,9.7,20.3,5.6,29.7c-1.9,0.3-4.3,1.1-6.4,0.6c-0.3-4.7-6.5-6.7-10.6-6.2c-0.2,0.6-0.4,1.1-0.6,1.9   c-3.6,0.6-7.4,1.2-9.9,4.6c-2.9-4.4,1.9-10.3-0.1-15.1c0.3-3.8-2.6-8.6,1.7-11.2c3.3,0.8,16.1,2.9,16.3-1.8   c-4.4-2.9-10.6-1.1-15.6-0.8c-0.2-0.2-0.5-0.4-0.7-0.6c2-3.2,21.5,1.6,15.7-5.4C519.4,554,519.4,553.7,519.3,553.5z M505.3,566.5   c1.3,2.6,15.8,5,11.8-0.3C513.4,565.4,508.8,563.5,505.3,566.5z M505.9,572.4c1.3,2.8,10.2,3.8,9-0.3   C512.2,571.2,509.3,571.2,505.9,572.4z" />
	<path fill="#E1C7B6" d="M451.9,136.7c-0.3-0.3-0.6-0.7-0.9-1c-0.7,0.4-0.5,1.5-0.4,2.2c1.5,2.9-0.2,6.2,1.4,9   c-0.9,0.7-0.9,0.7,0,1.4c2.1,10.5,1.2,22,5.9,31.7c1.5,4.2,6.5,8.1,5,12.7c2.9,4.5-0.9,9.2,4.2,12.9c0.6,0,1.5,0,2.3,0   c-1.3,0.5-2.6,0.9-3.9,1.4c-3.8-2.5-5.6-6-6.9-9.9c0.7-0.6,0.8-1.2-0.1-1.7l0,0c0-0.2,0-0.5-0.1-0.7c0.4,0.1,0.9,0.1,1.3,0.2   c0.5,0.6,0.9,1.5,2,1.1c0-1.4-1.6-3.2-3.1-2.9c-0.4,0.5-0.2,1.1-0.2,1.7c-0.2-0.1-0.4-0.2-0.7-0.2c-14.9-18.7-8.3-44.3-11.7-66.1   c0.5,0,0.9-0.1,1.5-0.1c-0.3-1.7-0.5-3.3-0.8-4.9c-0.7,0.1-1.2,0.1-1.6,0.1c-5.3-8.6-6.6-18.6-7.7-28.2c1.1-0.7,2.2-1.5,3.4-2.2   c0.3,0.3,0.5,0.6,0.8,0.9c0,0.5-1.1,1,0,1.5c0.1,7.9,3.3,15.5,5,23.1c6.7,5.9,15.5,19.2,8.4,27c-0.2-0.7-0.3-1.1-0.4-1.6   c0.9-1.1,0.9-1.1,0.2-2.6c-0.3,0.2-0.6,0.3-0.9,0.5c0.3-1.6-0.9-2.5-1.5-3.7c0.9-1.2,0.9-1.2-0.4-2.8   C452.1,135.9,452,136.3,451.9,136.7z M449.3,130.2c-0.5,1.6,0.3,2.5,1.2,3.8C450.8,132.2,450.6,131.1,449.3,130.2z" />
	<path fill="#E1C7B6" d="M362.1,88.7c2.4,13.6-6.6,23.1,4.4,37c0.8,0,1.5,0.1,2.2,0.1c0.8,1.1,0.8,1.4,2,0.2c0.3,0,0.6-0.1,1-0.1   c0.8,0.6,1.9,0.9,2.1,2.1c-1.3,0.8-2.2,2-3,3.3c0.4,0.2,0.7,0.3,1,0.5c0.5,3.9,3.9,7,5.6,10.6c0.3,0.1,0.7,0.1,1.1,0.2   c-2,3.5-4.9,6.2-8,8.7c-1,0-1.9,0-2.8,0C361.5,141.4,346.8,93,362.1,88.7z" />
	<path fill="#E1C7B6" d="M371.6,125.8c-1,0.1-1.9,0.1-2.9,0l-0.1-0.1c0.4-0.3,0.7-0.6,1.1-0.9c-1.1-1-2.1-2-3.1-2.9   c1-4,6.3-0.9,9.2-1.2c20.8,2.5,41.5,2.1,62.7,0.8c-0.3,0.6-1.5,1.1-0.4,2c1.5,0.1,1.6-1.6,2.7-2.1c2,1.8,2.7,4.9,2.6,7.7   c-24.1-2.5-48,4.1-71.4-4.5C371.8,125,371.7,125.4,371.6,125.8z" />
	<path fill="#EF8A6A" d="M417.3,310.1c-0.4-8.4,18.7-18.5,25.2-23.2c3.3,2.4,6.6,1.6,10.2,0.5c-10,6.3-8.8,17.6-9.3,28.1   c1.8,0.1,3.5,0.2,5.1,0.3c-2.4,0.9-4.9,0.6-7.5,0.9c0.1,0.2,0.2,0.5,0.3,0.9c-2.5,1.9-5.7,0.6-8.5,1.6c-3.8-7.5-3.6-21-14.6-11.3   C417.9,308.6,417.6,309.4,417.3,310.1z M432.5,297c1.2-1.3,3.1-2.2,3.4-4c-0.1-0.1-0.3-0.2-0.4-0.2c-1.6,2.4-4.5,3.2-5.3,6.1   C431.5,298.4,432,297.7,432.5,297z M441.2,293.3c-4,1.5-6.9,5.7-10.6,8.1c-1,0.9-1,1-1,2.8c3.9-4.1,8.7-6.8,11.8-11.4   C441.3,293,441.2,293.1,441.2,293.3z M442,302.2c-1.9,0.5-7.3,0.2-6,2.6c0.9-0.4,1.8-0.8,2.7-1.2   C439.7,303.1,441.1,303.9,442,302.2z" />
	<path fill="#EADCB7" d="M337.8,564.2c-0.8,0.1-1.7,0.2-2.7,0.3c-1.4,6.9-4.5,15.4-2.7,22.3c-0.7,0.5-1.3,1-2,1.5c0,1.1,0,2.1,0,3.3   c2.7-3.1,6.5-4,10.5-4.7c2.7,1.1,4.1,4,6.7,4.9c0-0.6,0-1,0-1.3c2.1,1.5,3.7,4.1,6.6,3.5c-9.9,1.5-20.7,1.9-30.2-2.4   c-2.9-6.8,3-12.7,4.5-19c2.1-7.1,1.7-14.4,5.1-21.2c0.4-0.2,1-0.5,1.9-1c0.6,2.5-1.7,2.9-1.7,5.7c2.8-1.8,5.5-1.3,8.2-1.2   c0,0.4,0,0.8,0,1.2c-2.5,0.8-6.6-0.4-7.6,2.7c1.2,0.9,2.6,0.9,4,1.1c-0.6,1.4-1.7,2.1-2.9,3.2C336.3,563.7,337,564,337.8,564.2z" />
	<path fill="#E0C6B5" d="M420.9,83.7c0,0.3,0,0.6,0,0.9c-2.3-0.1-2.1,1.9-2.6,3.3c0.5,0.2,1.1,0.5,1.7,0.7c0,1.1,0.7,2.3-0.6,3.2   c-0.1-0.9,0.4-1.9-0.4-3.1c-0.4,0.4-0.7,0.7-1,1c-0.2-0.2-0.3-0.3-0.5-0.5c-2.5,3.7-6.2,6.2-9.8,8.3c-4.1-0.9-7.7-2.5-11.8-3.8   c-0.6-2-1-4-2.1-5.8c1-2,0-4.1,0.3-6.2c12.5,6.3,14.4,6.2,25.8-1.4C420.7,81.4,419.7,82.8,420.9,83.7z" />
	<path fill="#F2D5C4" d="M420.1,143.3c-1.3-2.5-0.2-5.3-1.9-8.2c-1,2.8-0.1,5.3-0.4,8c-8.1,0.6-17.1-2.4-20.1-10.8   c5.8,0.2,13.6-3,18.2,1.1c0.4,0.6,0.8,1.5,2.2,1.1c-0.9-1.1-1.7-2-2.8-3.3c2.9-0.1,5.3-0.4,7.8-0.2c-1.3,1.9-4-0.4-5.5,1.3   c0.6,0.8,1.3,1.6,1.9,2.4c-0.1,0.8-0.7,1.7,0.6,2.1C420.1,138.9,420.1,141.1,420.1,143.3z" />
	<path fill="#F5D8C6" d="M420.1,143.3c0-3.5-0.6-7,1.9-9.9c-0.1-0.1-0.2-0.2-0.4-0.3c-0.7,0.5-1.4,1-2.1,1.5   c-0.6-0.8-1.3-1.6-1.9-2.4c1.4-1.7,4.2,0.6,5.5-1.3c4.4-0.1,9.4-0.4,13.6,0.5C436.5,138.8,427.8,147.1,420.1,143.3z" />
	<path fill="#EAD98E" d="M425.2,162.1c-3-3.5-3.3-7.9,2.3-8.6c5.4,2.6,10.9,5.6,17.5,5.7c0.2-0.6,0.4-1.1,0.6-1.6   c0.8,2.7,0.2,5.4,0.4,8.1C437.9,170.3,424.7,157.6,425.2,162.1z" />
	<path fill="#E8DBB6" d="M503.7,562.8c-4.3,2.6-1.4,7.4-1.7,11.2c2,4.8-2.8,10.8,0.1,15.1c0,0.3-0.1,0.7-0.1,1   c-5.2,0.4-5-3.8-4.2-7.5c0.3-8.7-1.5-17.5,0.5-26.3c0.5,0.5,1.1,0.9,1.8,1.5c0.5-1.2,0.4-1.5-0.4-2.3c0-1,0-2.1,0-3   c4.5-1.1,9.8,0.3,14.6,0.8c0,0.2,0,0.4-0.1,0.7c-4.4-0.6-20.2,0.1-7.8,4.4c-0.9,0.2-2.1-0.2-2.7,1.1c0.2,0.2,0.4,0.4,0.7,0.6   c-0.4,0.4-0.8,0.7-1.3,1.2C503.3,561.8,503.5,562.3,503.7,562.8z" />
	<path fill="#F3D7C5" d="M419.4,91.8c1.3-0.9,0.6-2.1,0.6-3.2c-0.7-0.3-1.2-0.5-1.7-0.7c0.5-1.4,0.3-3.4,2.6-3.3   c0.1,7.1,5,15.3,11.6,18.1c-0.3,0.3-0.5,0.5-0.8,0.8c-8-1.9-16.5-2.2-23.9-5.8c3.5-2.1,7.2-4.7,9.8-8.3c0.2,0.2,0.3,0.3,0.5,0.5   C418.2,90.5,418.2,93.1,419.4,91.8z" />
	<path fill="#F4D7C5" d="M378.3,142.6c-0.4-0.1-0.7-0.1-1.1-0.2c-1.7-3.6-5.1-6.7-5.6-10.6c2-2.5,4.1-4.3,7.3-2.4   c-0.5,1.1-1.7,2-1.3,3.7c1.5-0.8,1.6-2.3,2-3.6c1.6,0.4,3.2,0.8,5,1.3C384.2,135.6,380.6,138.7,378.3,142.6z" />
	<path fill="#E6D8B4" d="M522.9,587.3c0.1,0.4,0.2,0.9,0.4,1.5c0.7,0.1,1.4,0.2,2,0.3c-7.4,1.4-13.4,3.9-21.3,1.4   c2.9-4.7,8.5-2.1,12-5.8C518.2,585.6,520.5,586.8,522.9,587.3z" />
	<path fill="#F3D6C4" d="M391.9,248.4c-0.2-1.5-0.4-2.9-0.6-4.5c1.4-1.1,2.8-2.3,4.2-3.5c0.4,0,0.8-0.1,1.3-0.1   c-0.3-0.5-0.4-0.9-0.6-1.3c0.1-0.9,0.2-1.7,1.2-2c0.8,2.1,1.6,4.2,2.3,6.3c-0.5,0.4-1,0.7-1.9,1.4c2.3,0.9,3.2,2.7,4.8,4.4   C399.5,250.2,395.2,249.1,391.9,248.4z" />
	<path fill="#E5D8B4" d="M503.4,540.3c0.8,2.7,1.7,5.3,2.6,8.1c2.2,0.1,4.3-0.5,6.2,0.7c-3.7,0.1-7.4-0.5-11,1   C498.5,546.9,499.7,542,503.4,540.3z" />
	<path fill="#1F1B19" d="M420.9,83.7c-1.2-0.8-0.2-2.3-0.9-3.3c-5.3,3-13.1,9.7-19.4,4c0.3-0.3,0.7-0.5,1-0.8   c2.9,0.6,5.8,1.3,8.5-0.5c0.2,0.1,0.4,0,0.6-0.1c0.8,0.1,1.6,0.1,2.2-0.6c2.5-0.9,4.5-2.6,6.5-4.3c0.3,0.7,0.7,1.3,1,2   c0.1,0,0.3-0.1,0.4-0.1C420.9,81.2,420.9,82.4,420.9,83.7z" />
	<path fill="#E6D9B5" d="M343.3,541.9c-0.3,0.5-0.7,0.9-1.5,2c0,2,0,4.8,0,7.6c-1.2,0-2.4,0-3.7,0c-0.1-1.5-0.2-2.5-0.4-4   C339.2,545.5,340.2,541.6,343.3,541.9z" />
	<path fill="#191514" d="M381,312.9c1.5-0.2,2.9-0.2,4.6,0.4c0,0.6,0,1.1,0,1.6c-1.6,0.1-3.2-0.2-4.6,0.7c-1.3-0.4-2.5-0.8-3.8-1.3   C378.5,314,379.9,313.7,381,312.9z" />
	<path fill="#25201E" d="M401.6,83.6c-0.3,0.3-0.7,0.5-1,0.8c-2.1-0.8-4.2-1.7-6.4-2.6c0,0.6-0.1,1.3-0.2,2   c-1.2-0.5-0.6-1.8-1.2-2.6c0.7-0.4,1.4-0.6,2-1.2C397.1,81.2,399.3,82.4,401.6,83.6z" />
	<path fill="#462D24" d="M420.9,254.9c-0.1,2.4-0.1,4.8-0.2,7.1c-0.4,0.5-0.8,0.9-1.2,1.4c0-2.7,0-5.4,0-8.2   c-1.2-0.4-2.1-0.7-3.1-1.1C418,253.9,419.5,253.9,420.9,254.9z" />
	<path fill="#544A43" d="M383.1,228.7c0.1,1.7,0.4,3.5-0.9,5.4c-0.4-1.2-0.7-2.1-1.1-3c0.2-0.9,0.4-1.7,0.7-2.8   C382.3,228.5,382.7,228.6,383.1,228.7z" />
	<path fill="#3A332E" d="M441.7,122.4c-0.4-0.3-0.7-0.6-1.1-0.9c-1.1,0.6-1.2,2.3-2.7,2.1c-1.1-1,0.1-1.4,0.4-2   c1.7-0.3,2.2-1.5,2.1-3C441.3,119.7,441.8,121,441.7,122.4z" />
	<path fill="#5C524C" d="M402.6,249.2c-1.1-1.3-2.2-2.6-3.5-3.8c0.1-0.2,0.2-0.4,0.4-0.7c1.7,0.8,2.9,2.1,3.9,3.6   C403.2,248.6,402.9,248.9,402.6,249.2z" />
	<path fill="#A7A28D" d="M341.8,556.3c0-0.4,0-0.8,0-1.2c2-0.5,3.9,0.5,5.8,0.7c0,0.2,0,0.4,0,0.5   C345.7,556.3,343.8,556.3,341.8,556.3z" />
	<path fill="#9C8A7F" d="M449.2,247c0.7-1.3,1.3-2.5,2-3.8c0.3,0.3,0.6,0.5,0.8,0.8c-0.3,1.4-1.1,2.6-2,3.7   C449.7,247.4,449.4,247.2,449.2,247z" />
	<path fill="#4F4741" d="M374.5,128.8c-0.9,1-1.9,2-2.9,3c-0.3-0.1-0.6-0.3-1-0.5c0.8-1.4,1.7-2.5,3-3.3   C374,128.2,374.2,128.5,374.5,128.8z" />
	<path fill="#8F7E73" d="M431.6,103.5c0.3-0.3,0.5-0.5,0.8-0.8c1.5,0.3,3,0.6,4.9,2.2C434.9,104.2,433.1,104.5,431.6,103.5z" />
	<path fill="#AB988B" d="M393.9,88c0.3,0.6,0.6,1.1,0.8,1.7c-1.3,0.7-0.3,2.2-0.4,3.3C392.2,92.6,393,89.3,393.9,88z" />
	<path fill="#7B7667" d="M347.6,556.3c0-0.2,0-0.4,0-0.5c1.3-0.1,2.6-0.4,3.7,0.6c-0.2,0.2-0.4,0.4-0.6,0.6   C349.7,556.8,348.6,556.5,347.6,556.3z" />
	<path fill="#686558" d="M514.2,554.1c0.1-0.2,0.1-0.4,0.1-0.7c1.7,0,3.3,0,5,0c0,0.3,0.1,0.5,0.1,0.8   C517.7,554.2,516,554.2,514.2,554.1z" />
	<path fill="#B6AB8F" d="M499.8,555.7c0.7,0.8,0.9,1.1,0.4,2.3c-0.7-0.6-1.2-1.1-1.8-1.5C498.4,555.3,499.2,555.7,499.8,555.7z" />
	<path fill="#584F49" d="M379.6,129.5c-0.4,1.3-0.5,2.7-2,3.6c-0.4-1.7,0.8-2.5,1.3-3.7C379.1,129.5,379.4,129.5,379.6,129.5z" />
	<path fill="#191514" d="M373.9,314.2c-0.1-0.2-0.2-0.4-0.3-0.6c1,0,2.2-0.6,3,0.7C375.8,314.3,374.8,314.2,373.9,314.2z" />
	<path fill="#E1C7B6" d="M499.8,527.3c-0.1,0.6-0.1,1.2-0.2,1.8C499.2,528.5,498.9,527.8,499.8,527.3L499.8,527.3z" />
	<path fill="#462D24" d="M422.3,254.8c-0.5,0-1,0.1-1.4,0.1C421.3,253.9,421.8,254.1,422.3,254.8z" />
	<path fill="#2A2522" d="M458.6,195.4c0.9,0.5,0.8,1.1,0.1,1.7C458.6,196.5,458.6,195.9,458.6,195.4z" />
	<path fill="#2A2522" d="M457.9,194.5c0.2,0,0.5,0.1,0.7,0.2l-0.1-0.1c0,0.2,0,0.5,0.1,0.7C458.3,195.1,458.1,194.8,457.9,194.5z" />
	<path fill="#25201E" d="M393.3,79.5c0-0.2,0-0.4,0-0.6c0.3,0.2,0.5,0.4,0.8,0.6l-0.1,0.2C393.7,79.5,393.5,79.5,393.3,79.5z" />
	<path fill="#25201E" d="M394.6,80.3c-0.3-0.2-0.5-0.5-0.8-0.7l0.1-0.2c0.3,0.2,0.6,0.4,0.8,0.6L394.6,80.3z" />
	<path fill="#F6D9C7" d="M567.9,117.2c1,2,4.4,7.3-0.2,6.4c-0.2-1.5-1.5-1.2-2.5-1.6c-0.2-1.2,1-2.3,0.1-3.4   c-0.9,0.5-0.9,1.8-1.9,1.9c-0.7-0.3-0.7-1.5-1.8-1.3c0.3,1,0.6,1.8,0.9,2.4c-1.9,1-4.1,1.2-5.3,2.9c0,0.2,0,0.3,0,0.5   c-0.4,0.2-0.7,0.6-1.1,0.6c-2.1-0.8-4.1,0.2-6.1,0.9c-7.8,2.9-15.3-3-23.2-2.2c-20.4,1.8-41,10.3-61.3,2.2   c-1.2-5.8-3.2-11.8,0.7-17.3c17.4,0,34.3,5.7,51.4,8.5c7.4,1.6,15.9-0.8,22.7,1.8c8.2,2.1,17.1-5.1,25.6-5.2   C566.5,115.2,567.2,116.2,567.9,117.2z M469.4,114.1c-1.7,0.4-3.4,0.8-5.1,1.2c0.8,4.1,5.5-0.1,7.2-1.4   C470.5,113.4,469.9,113.4,469.4,114.1z M472.6,114.5c0.1,0.6,1,0.7,1.5,1C474.9,114.3,473.4,113.6,472.6,114.5z" />
	<path fill="#E0C7B6" d="M464.4,122.9c0.9,1,0.8,2.3,1,3.6c20.4,8.1,40.9-0.5,61.3-2.2c7.9-0.8,15.4,5.1,23.2,2.2   c2-0.7,4-1.7,6.1-0.9c0.4,0,0.7-0.4,1.1-0.6c0.7,0.7,1.4,0.4,2.1,0c0,0.4,0,0.8,0,1.3c-3.7,0.9-5.9,2.4-9.1,5   c0.9,0.2,1.4,0.2,1.8,0.3c-1.4,1.3-2.8,0.3-4.4,2.4c4.4-1.2,7,3.7,11,1.3c0.3,1.1,0.7,2.2,1.1,3.3c-1.3,1.4-2.6,2.1-4.6,2.4   c-7.6-1.2-11.7-10.6-19.1-10.8c-23.3,0.5-46.5,8.6-69.8,3.8C465.4,130.5,464.1,126.8,464.4,122.9z M529.8,128.5   c4.7,0.4,4.7,0.4,7.1-0.6c-1.9-1.4-3.7,0.4-5.8-0.6C530.5,127.1,529.9,127.6,529.8,128.5z M542.8,129.9c-1.1-0.8-2.3-1.5-3.8-0.9   C540,130.6,541.4,130.5,542.8,129.9z M544.2,130.7c0.9,2.1,1.3,2.2,4,1.1C546.9,131.5,545.8,131.2,544.2,130.7z M525.4,128.5   c1.3,0.4,2,0.3,2.4-0.9C526.7,127,526,127.3,525.4,128.5z M520.5,127.7c0.4,0.4,1.1,0,1.6,0c-0.1-0.3-0.2-0.6-0.3-0.9   C521.3,127.1,520.6,127.1,520.5,127.7z" />
	<path fill="#F4D7C5" d="M466.6,136.1c3.9,1.7,7.6,1.7,11.5,2c0.1,9.9-2.2,18.5-0.6,28.5C472.1,157.1,469.5,147.1,466.6,136.1z" />
	<path fill="#D8BFAF" d="M468,93.2c-1.3-3.8-1.4-7.7-4.4-10.7c0.6-1.1-0.2-2.5,0.7-3.6c2.3,1.9,2.1,5.3,4.2,6.9   c0.5,1.9-0.2,3.8,0.8,5.5C469,92,469.2,93,468,93.2z" />
	<path fill="#DBC2B1" d="M463.5,133.1c-2.4-0.7-4.8-2.1-4.2-5c1-0.6,1.9-1.1,2.9-1.5C463,128.7,463.7,130.8,463.5,133.1z" />
	<path fill="#DBC2B1" d="M462.1,125.8c-1.1-1-0.6-2.4-0.6-3.7C462.3,123.2,462.2,124.5,462.1,125.8z" />
	<path fill="#C2AE92" d="M409.2,7.7c0.5-0.7,1-1.5,1.4-2.2c0.2,0,0.4,0,0.4-0.3c-0.1,0.1-0.3,0.2-0.4,0.3C409,5.4,408.4,7,407.2,8   c-1-0.1-2.2-0.2-3.5-0.3c3.2-4.1,6.9-4.7,12-2.1c-1.9-0.5-2.8,1.3-4.2,2.2c-0.2-0.2-0.4-0.4-0.6-0.6c-0.1,0.2-0.2,0.3-0.3,0.5   C410.2,7.8,409.7,7.8,409.2,7.7z" />
	<path fill="#CAB597" d="M396.2,22.2c-2.2-0.5-3.4,1-5.1,2.2c0,0-0.1-0.1-0.1-0.1c0-0.7,0-1.4,0-2.2c0.4-0.6,0.8-1.2,1.2-1.8   c-0.6-2.3-1.2-4.5-1.8-6.8c0.5-0.4,1.1-0.8,1.7-1.3c1.1,1.6-0.4,3.6,0.9,5c0.3,1.5,1.1,2.7,2.4,3.5C395.7,21.2,396,21.7,396.2,22.2   z" />
	<path fill="#8E7E6A" d="M396.2,22.2c-0.2-0.5-0.5-1-0.7-1.5c2-3-3.1-6.6-1.2-9.9c0.4,0,0.9-0.1,1.7-0.1c0,1.5,1.2,2.7-0.1,4.1   c1,2.3,2,4.6,3.1,6.9c-0.4,0.4-0.8,0.8-1.3,1.3C397.2,22.7,396.7,22.4,396.2,22.2z" />
	<path fill="#A8967D" d="M385.4,26.5c-0.5-0.8-1-1.5-1.7-2.5c0.4-0.7,0.9-1.5,1.5-2.6c0-0.2-0.2-0.9-0.3-1.8   c0.4-0.1,0.8-0.2,1.2-0.3c0,0,0,0,0,0c1,1.3,3.6,3.8,1.4,5c0-0.4-0.1-0.8-0.1-1.2c-0.1,0-0.2,0-0.3,0   C386.6,24.8,387.2,26.4,385.4,26.5z" />
	<path fill="#0C0B09" d="M402.7,22.1c-0.1-0.7,0.3-1.6-0.6-2.1c0.3-2.7-2.2-6,1.3-7.2c0,0-0.1-0.1-0.1-0.1c0.2,1.6-0.3,3.4,0.5,4.8   c0.1-0.2,0.1-0.3,0.2-0.5c0,0,0,0,0,0c0.2,0.1,0.5,0.1,0.7,0.2c0.4,1.7-1.1,3.2-0.6,5c0,0,0,0,0,0   C403.7,22.2,403.2,22.1,402.7,22.1z" />
	<path fill="#BBA990" d="M405,11.9c0.2-2.8,1.9-1.7,3.5-1.2c0.3,1.5-0.4,2.8-0.8,4.2c-0.2,0-0.4,0-0.6,0c-0.2-0.6-0.1-1.2-0.3-1.8   c-0.1,0-0.3,0-0.4,0c0,1.3-0.1,2.6-0.2,3.9C404.6,15.7,406.5,13.4,405,11.9z" />
	<path fill="#342F27" d="M394.1,14.2c0.8,1.8,2.9,4.8,1.4,6.5c-2.3-1.4-2.5-4.2-2.8-6.4c0.2-0.1,0.4-0.1,0.6-0.2   C393.5,14.6,393.7,15,394.1,14.2z" />
	<path fill="#4C4439" d="M390.5,13.5c0.6,2.3,1.2,4.5,1.8,6.8c-0.4,0.6-0.8,1.2-1.2,1.8c-0.5-0.7-1-1.4-1.5-2.1   c1.1-0.5-0.1-1,0.1-1.5c1.5-0.8,0-3,0-4.4C390,13.9,390.2,13.7,390.5,13.5z" />
	<path fill="#CFBCA1" d="M413.4,10.7c0.4,2.1-0.8,3.8-1.5,5.7c-1-0.8,0.2-2.3-1.1-2.8c-0.2-0.3-0.4-0.5-0.6-0.8l-0.3-0.1   c0.1-0.8,0.2-1.6,0.7-2.2C411.5,10.6,412.5,10.6,413.4,10.7z" />
	<path fill="#F5DEBE" d="M399.1,10.6c0.2,0,0.5,0,0.7,0c0.1,0.8-0.3,1.7,0.8,2.2l0,0c-1.1,2.2-1.1,2.2,0.6,3.7   c0,1.3,0.3,2.6-0.7,3.6c0.3-0.6,0.1-1.4-0.8-1.5l0,0c-0.5-1.9,0-4.4-1.3-5.9c0-0.5,0-0.9,0-1.4C398.7,11.1,398.9,10.8,399.1,10.6z" />
	<path fill="#AB9A81" d="M401.2,16.5c-2.9-1.8,0-3.8,0.7-6.1c0.1,0.4,0.1,0.8,0.2,1.4c0.5-0.2,0.8-0.3,1.2-0.5   c0.1,0.5,0.1,1,0.2,1.5C401.9,13.5,401.3,14.7,401.2,16.5z" />
	<path fill="#EED8B9" d="M411.6,7.7c1.5-1.2,3.2-3.4,5.1-1.6C415.2,6.9,413,10,411.6,7.7z" />
	<path fill="#73695A" d="M411.6,7.7c1.4,2.3,3.7-0.8,5.1-1.6c0.7,0.2,0.6,0.8,0.7,1.4c-1.3,1.7-7.7,3.1-6.3-0.4   C411.2,7.3,411.4,7.5,411.6,7.7z" />
	<path fill="#AE9E87" d="M415.1,9c0.7-0.5,1.5-1,2.2-1.5c1,0.5,1.1,1.4,1.4,2.3C417.5,10.6,416.6,8.7,415.1,9z" />
	<path fill="#998B77" d="M407.8,14.3c0.5-1.1,0.8-2.3,0.7-3.6c0.4,0.7,0.9,1.4,1.3,2l0.3,0.1c-0.5,1.2-1.1,2.4-1.5,3.6   C408.3,15.7,409,14.7,407.8,14.3z" />
	<path fill="#A5937B" d="M389.7,14.1c0,1.3,1.5,3.6,0,4.4c-0.5-0.7-1-1.4-1.5-2.2C388.3,15.4,388.6,14.5,389.7,14.1z" />
	<path fill="#726656" d="M401.2,16.5c0.1-0.3,0.1-0.6,0.2-0.9c0.6,1.4,1.5,5,0,5.8c-0.7,0-0.9-0.6-0.9-1.3   C401.5,19.1,401.2,17.8,401.2,16.5z" />
	<path fill="#AB9A81" d="M398.4,12.7c1.3,1.5,0.8,4,1.3,5.9C397.7,17,398.1,14.9,398.4,12.7z" />
	<path fill="#39342C" d="M405,11.9c1,0.8,0.3,1.9,0.5,2.9c-0.9,0.6-0.4,1.6-0.7,2.3c-0.2-0.1-0.5-0.1-0.7-0.2c0-1.2,0.1-2.3,0.1-3.5   C405,13.2,404.9,12.5,405,11.9z" />
	<path fill="#27221D" d="M388.3,16.4c0.5,0.7,1,1.4,1.5,2.2c-0.1,0.5,1,1-0.1,1.5c-1.2-0.8-1.5-2.4-2.2-3.6   C387.7,16.4,388,16.4,388.3,16.4z" />
	<path fill="#2C2721" d="M388.3,22.6c-0.3-0.5-0.5-1.1-0.8-1.6c0-0.3,0.1-0.7,0.1-1c0.2,0.1,0.4,0.1,0.6,0.1   c0.4,0.9,2.3,2.3,0.7,2.9C388.8,22.8,388.5,22.7,388.3,22.6z" />
	<path fill="#776B5A" d="M388.2,20c-0.2,0-0.4-0.1-0.6-0.1c-0.1-0.7-0.3-1.5-0.8-2.1c0-0.6-0.1-1.2,0.6-1.4c0.5,1,0.9,2,1.4,2.9   C388.6,19.6,388.4,19.8,388.2,20z" />
	<path fill="#726656" d="M402.7,22.1c0.5,0,1,0.1,1.4,0.1c0,0.3-0.1,0.5-0.1,0.8c-1.5-0.1-3.1,0.3-4.4-0.7   C400.7,22.3,401.7,22.2,402.7,22.1z" />
	<path fill="#AB9A81" d="M404.2,13.5c0,1.2-0.1,2.3-0.1,3.5l0,0c-0.2,0-0.3,0-0.5-0.1c0-1.4-0.1-2.8-0.1-4.2   C403.7,13,403.9,13.2,404.2,13.5z" />
	<path fill="#BFAC92" d="M403.3,11.3c-0.4,0.1-0.7,0.3-1.2,0.5c-0.1-0.5-0.1-1-0.2-1.4C403.4,9.7,403.4,9.7,403.3,11.3z" />
	<path fill="#AB9A81" d="M400.6,12.7c-1-0.4-0.7-1.4-0.8-2.2C401,11,400.5,12,400.6,12.7z" />
	<path fill="#AB9A81" d="M399.8,18.6c0.8,0.1,0.9,0.7,0.8,1.4C399.9,19.8,399.7,19.3,399.8,18.6z" />
	<path fill="#73695A" d="M409.2,7.7c0.3,0,0.6,0.1,0.8,0.1c-0.4,0.4-0.7,0.8-1.2,0.3C409,8,409.1,7.8,409.2,7.7z" />
	<path fill="#4A433A" d="M410.6,10.5c-0.2,0.3-0.4,0.6-0.5,0.8C410.2,11.1,410.4,10.8,410.6,10.5z" />
	<path fill="#2C2721" d="M386.8,17.8c0.2,0.3,0.3,0.5,0.5,0.8C387.1,18.3,387,18.1,386.8,17.8z" />
	<path fill="#AB9A81" d="M399.1,10.6c-0.2,0.3-0.4,0.5-0.7,0.8C398.3,10.8,398.6,10.5,399.1,10.6z" />
	<path fill="#8E7E6A" d="M393.2,14.1c-0.2,0.1-0.4,0.1-0.6,0.2c0-0.3,0-0.6,0-0.9C392.9,13.6,393.1,13.9,393.2,14.1z" />
	<path fill="#2C2721" d="M386.7,20.1c-0.2-0.3-0.4-0.6-0.7-0.8C386.3,19.6,386.5,19.8,386.7,20.1z" />
	<path fill="#DEC4B3" d="M394.9,80c-7.7-7.8-11-21-11-31.8c3.9,10.1,4.3,23.2,13.5,30.7c4.5,1.7,9,1.1,12.7,4.1   C404.9,86.3,399.5,82.5,394.9,80z" />
	<path fill="#C6B196" d="M388.3,22.6c0.2,0.1,0.4,0.2,0.7,0.4c0.4,0.9,1,1.5,2.1,1.4c0,0,0.1,0.1,0.1,0.1c-3.3,3.2-5.8,6.1-5.1,11   c-0.8-0.1-1.3,0-2,0.5c0.1-2.2-0.9-3.9-1.6-5.7c0.1-0.2,0.3-0.3,0.5-0.5c0.5,0.3,0.9,0.7,1.4,1.1c0.4-0.6,0.9-1.1,1.4-1.8   c-0.5,0-1,0.1-1.6,0.1c-0.4-0.8-0.3-1.7-0.2-2.5c0.2,0,0.4,0.1,0.7,0.1c0.2,0.2,0.3,0.3,0.5,0.5c0.1-0.2,0.1-0.4,0.2-0.6   c0,0,0.1,0.1,0.1,0.1c1.4-0.4,1.4-0.4,1.5-2.3C388,24.7,388.4,23.4,388.3,22.6z" />
	<path fill="#A39179" d="M383.9,48.3c0,1.7-0.1,3.5-0.1,5.2c-1-4.3-1-9.4,0.1-13.7c-0.2-1.2-2.6-1.1-1.4-2.9c2,0.1,1.6,2.3,2.7,3.2   C383.5,42.6,383.9,45.5,383.9,48.3z" />
	<path fill="#C0AA9B" d="M380.3,50.1c2.2,1.6,1.2,3.4,1.3,5.4C379.8,53.9,380.1,52.2,380.3,50.1z" />
	<path fill="#83746A" d="M384.2,64.1c-0.4-1.6-0.7-3-1.2-4.9c1.8,2,1.8,2,2.2,4.6C384.9,63.9,384.6,64,384.2,64.1z" />
	<path fill="#83746A" d="M381.3,47.6c0.4,0.3,0.7,0.6,1,0.9C381.2,48.9,381.2,48.9,381.3,47.6z" />
	<path fill="#C6B196" d="M385.9,39.5c0.4,0.1,0.7,0.1,1.1,0.2c0,0.4-0.1,0.8-0.1,1.3c-0.5-0.3-1.1-0.5-1.6-0.8   C385.5,40,385.7,39.8,385.9,39.5z" />
	<path fill="#C6B196" d="M386.1,37.4c0.8,0.5,0.9,1,0,1.5C386.2,38.4,386.2,37.9,386.1,37.4z" />
	<path fill="#4E473D" d="M425.2,28.7c-1.5-1.2-0.1-3.3-2-4.6c-0.4-0.4-0.2-1.5-0.3-2.5c-0.7,0.6-1.3,1-1.9,1.5   c-0.9-0.5-0.5-1-0.3-1.6c1.2-0.6,0.9-2.5,2.5-2.8c0.6,0.7,1.3,1.3,1.9,2c0.6,0,1.3-0.3,1.5,0.7C425.6,23.4,425.8,26.4,425.2,28.7   L425.2,28.7z" />
	<path fill="#CEBBA0" d="M425.2,20.7c-0.6-0.7-1.3-1.3-1.9-2c-1.6,0.2-1.3,2.2-2.5,2.8c0,0,0.1,0,0.1,0c-0.3-1.6,1.2-4.7-0.7-5.2   c0-0.9,0.4-1.6,1.4-1.6c1.2,1.1,2.4,2.1,3.5,3.2c0,0.2,0.1,0.4,0.2,0.6C425.4,19.3,425.3,20,425.2,20.7z" />
	<path fill="#50483E" d="M425.9,32.3c-1.2-0.9-0.7-2.3-0.7-3.6c0,0-0.1,0.1-0.1,0.1c0.7-1.5,1.4-3,2.1-4.5c0.3,2,1.2,3.9,0.7,6   c-1.2,0-1.2,0-1.4,1.3c0,0,0.1-0.1,0.1-0.1C426.4,31.8,426.2,32.1,425.9,32.3C425.9,32.4,425.9,32.3,425.9,32.3z" />
	<path fill="#39342E" d="M427.3,37.4c-1.2,0-1.8-0.9-2.2-1.9c0.3-1.1,0.6-2.1,0.9-3.2l-0.1,0.1c0.5,0,1-0.1,1.5,0   c-0.2,0.6-0.4,1.2-0.7,2c0.6-0.3,1-0.4,1.3-0.5c0.3,0.3,0.5,0.6,0.8,0.8c-0.9,0.3-2.2,1.6-0.7,2C427.8,36.9,427.6,37.2,427.3,37.4z   " />
	<path fill="#C7AFA0" d="M430.1,58.3c-0.4,0.3-0.9,0.6-1.3,0.9c-2.6-2.4,2.7-3.8,2.4-6.3c0.3,0,0.6-0.1,1.2-0.1   C431.6,54.7,430.9,56.5,430.1,58.3z" />
	<path fill="#DCC2B2" d="M431.1,48.5c0.5-0.5,1-0.9,1.6-1.4c0.7,1.8,0.7,1.8,0.3,4.7C431.8,51,430.3,50,431.1,48.5z" />
	<path fill="#F6D9C7" d="M427.3,24.2c-0.7,1.5-1.4,3-2.1,4.5c0.6-2.3,0.4-5.3,1.5-7.3C426.9,22.4,427.1,23.3,427.3,24.2z" />
	<path fill="#7F7463" d="M428,33.8c-0.3,0.1-0.6,0.3-1.3,0.5c0.3-0.8,0.5-1.4,0.7-2c0.3,0,0.5,0,0.8,0C428.1,32.8,428,33.3,428,33.8   z" />
	<path fill="#A2937E" d="M428.1,36.6c-1.5-0.5-0.2-1.7,0.7-2C428.5,35.3,428.3,36,428.1,36.6z" />
	<path fill="#50483E" d="M428.1,32.3c-0.5,0-1,0-1.5,0c0-0.2,0-0.5,0.1-0.7l-0.1,0.1c0.4-0.3,0.9-0.6,1.3-0.9   C428,31.3,428.1,31.8,428.1,32.3z" />
	<path fill="#CEBBA0" d="M428,30.8c-0.4,0.3-0.9,0.6-1.3,0.9c0.2-1.4,0.2-1.4,1.4-1.3C428,30.4,428,30.6,428,30.8z" />
	<path fill="#4E473D" d="M425.3,20c0-0.5,0-1,0-1.5C426.1,19,426,19.5,425.3,20z" />
	<path fill="#7C6D64" d="M432.3,45.3c-0.2,0.7-0.7,0.9-1.4,0.8c0-0.3,0-0.6,0-0.8C431.4,45.3,431.9,45.4,432.3,45.3z" />
	<path fill="#292624" d="M430.2,46.9c-0.5-0.3-0.6-0.6,0.1-0.8C430.2,46.3,430.2,46.6,430.2,46.9L430.2,46.9z" />
	<path fill="#7C6D64" d="M430.3,46.8c0-0.2,0-0.5,0-0.7c0.2,0,0.5,0,0.7,0C430.8,46.3,430.5,46.6,430.3,46.8z" />
	<path fill="#292624" d="M430.9,54.1c-0.2,0.3-0.4,0.6-0.6,0.9C430.5,54.7,430.7,54.4,430.9,54.1z" />
	<path fill="#6D6059" d="M465.6,90.5c-1.5-0.1-3-0.2-4.7-0.2C462.2,88.7,466.2,87.8,465.6,90.5z" />
	<path fill="#D5BCAC" d="M572.4,126.9c0.3-0.1,0.6-0.3,1.1-0.4c0.5,1.1,1,2.1,1.5,3.1c-0.4,0.6-0.8,1.2-1.1,1.7   c-4.7,0.4-9.2,1.7-13.3-1.1c0.3-0.3,0.5-0.6,0.8-0.8c0.2,0.1,0.3,0.2,0.6,0.1c0.9,0.5,1.9,0.8,2.8,1.1   C567,128.1,570.4,129.1,572.4,126.9z" />
	<path fill="#CFB7A7" d="M560,135.8c0-0.3-0.1-0.5-0.3-0.6c2.6,1,4.6,2.6,7.7,2.9c2.5-1.5,4.7-4.1,7.6-4.8   C574.2,139.2,562.9,142.5,560,135.8z" />
	<path fill="#D3BAAA" d="M560.1,130.2c1.7,5.7,8.1,2.1,12.5,3.1c-2.4,1.5-3.5,2.2-5.7,3.5c-3.1-1.2-6.2-2.1-8-5.1   c-0.1-0.1-0.7,0-1,0c0.5-0.5,0.9-1.1,1.4-1.6C559.5,130.2,559.8,130.2,560.1,130.2z" />
	<path fill="#3D3631" d="M557.9,131.8c0.4,0,0.9-0.2,1,0c1.8,3,4.9,3.9,8,5.1c2.2-1.3,3.3-2,5.7-3.5c-1.5-0.2-2.3-0.2-3.2-0.3   c1.6-0.9,4.9-1.3,5.7,0.4c-0.5,0.1-0.9,0.2-1.4,0.4c-0.1-0.2-0.1-0.3-0.3-0.3c0.1,0.1,0.2,0.2,0.3,0.4c-2.1,1.5-4.2,3-6.2,4.4   c-3-0.3-5-2-7.7-2.9c-0.1,0.1-0.3,0.1-0.4,0.1C558.7,134.3,557.5,133.3,557.9,131.8z" />
	<path fill="#443C37" d="M560.1,130.2c-0.3,0-0.5,0-0.8,0c-0.4-1.1-1.2-1.6-2.2-2c-1.7,1.2-3.4,2.3-5,3.4c-0.4-0.1-0.9-0.1-1.8-0.3   c3.1-2.6,5.4-4.1,9.1-5c0.3,0.3,0.5,0.6,0.8,0.9c-1.4,0.6,0.9,1.6,1.4,2.1c-0.3,0.3-0.5,0.6-0.8,0.8   C560.5,130.2,560.2,130.2,560.1,130.2z" />
	<path fill="#CFB7A8" d="M568.8,140.5c2.5-1.3,4.6-2.4,7.2-3.8c0.3,0.4,0.9,0.9,1.5,1.5C574.9,140.1,571.9,142.4,568.8,140.5z" />
	<path fill="#817369" d="M568.8,140.5c0.5,0.2,0.9,0.4,1.4,0.7c-1.1,1-2.4,0.4-3.6,0.6C566.8,140.3,566.9,140.3,568.8,140.5z" />
	<path fill="#443C37" d="M560.7,130.2c0.3,0.2,0.7,0.3,1,0.5C561.3,130.6,561,130.4,560.7,130.2z" />
	<path fill="#C1AA9C" d="M432.3,45.3c-0.2,0-0.5,0-0.7,0.1c0.2-0.2,0.4-0.4,0.5-0.6C432.2,45,432.3,45.1,432.3,45.3z" />
	<path fill="#AA9689" d="M560.4,139.3c1.5,0.6,2.2,0.9,3.3,1.4C562.2,141.4,561.4,141.1,560.4,139.3z" />
	<path fill="#3D3631" d="M559.1,137c-0.2-0.6-0.3-1.1-0.5-1.7c0.2,0,0.5-0.1,0.6,0l0.1,0.1C559.3,135.9,559.2,136.4,559.1,137z" />
	<path fill="#3D3631" d="M560,135.8c0.2,0.3,0.3,0.6,0.5,0.9C560.4,136.4,560.2,136.1,560,135.8z" />
	<path fill="#6E6252" d="M383.9,26.5c0,0.5-0.1,1-0.1,1.5C383.5,27.6,382.8,25.4,383.9,26.5z" />
	<path fill="#6E6252" d="M385.2,26.5c-0.1,0.2-0.1,0.4-0.2,0.6c-0.2-0.2-0.3-0.3-0.5-0.5C384.8,26.5,385,26.5,385.2,26.5z" />
	<path fill="#4A433A" d="M410.7,13.5c1.3,0.6,0.1,2,1.1,2.8c0.6-1.3,1.1-2.5,1.6-3.8c1.3,1.8,0.3,3.5-0.6,5.2l0,0   c-0.7,0.3-0.8,0.8-0.8,1.5l0.1,0c-1.4,1.5-2.6,3.8-5.1,3.7c0-0.3,0-0.5,0-0.8c0.9-1.3,0.7-2.8,0.7-4.3c0.2,0,0.5,0,0.7,0   c0.2,0.1,0.3,0.2,0.7,0.5C409.7,16.7,410.2,15.1,410.7,13.5z" />
	<path fill="#5B5347" d="M415.7,11.4c0.9,0.7,1.9,1.3,3.1,1.6c-0.8,1.4-1.5,2.9-2.3,4.3c0-0.6-0.1-1.3-0.1-1.9c-0.1,0-0.3,0-0.4,0   c-0.1,0.3-0.2,0.6-0.3,0.9c-0.5,0.3-1,0.6-1.5,1C414.7,15.1,416.3,13.5,415.7,11.4z" />
	<path fill="#413B32" d="M421.6,14.8c-1,0-1.4,0.7-1.4,1.6c-0.3,0.3-0.5,0.5-0.8,0.8c0,0,0.1-0.1,0.1-0.1c-0.7,1.2-1.5,2.4-2.2,3.6   l-0.3,0.1c0,0-0.3-0.1-0.3-0.1c0.1-2.9,3.2-4.5,3.1-7.3C420.3,13.9,420.9,14.3,421.6,14.8z" />
	<path fill="#C9B79C" d="M419.6,13.4c0.3,2-1.6,3.3-2.5,5c-0.7-0.1-0.5-0.7-0.6-1.1c0.8-1.4,1.5-2.9,2.3-4.3   C419.1,13.1,419.3,13.3,419.6,13.4z" />
	<path fill="#C9B79C" d="M415.7,11.4c0.3,1.3,0.1,2.5-0.7,3.5c-0.3,0-0.5,0-0.8,0C414.2,13.7,414.1,11.5,415.7,11.4z" />
	<path fill="#E8CDBC" d="M560,127.3c-0.3-0.3-0.5-0.6-0.8-0.9c0-0.4,0-0.8,0-1.3c0.6-1,1.5-1.4,2.3-1.6c1.1,0.7,2.1,1.2,3.3,1.9   c0.8-3.2,4-0.4,5.3-2.5c0.4,0.8,0.9,1.5,1.3,2.3c-0.1,0.3-0.2,0.7-0.3,1.4c-2.7-0.7-4.5,1.4-6.9,2.4   C562.9,128.4,561.5,127.8,560,127.3z" />
	<path fill="#3B3430" d="M560,127.3c1.4,0.6,2.9,1.1,4.2,1.7c2.4-1,4.2-3.1,6.9-2.4c0.2-0.7,0.2-1,0.3-1.4c1,0.3,0.8,1.1,0.9,1.8   c-2,2.2-5.5,1.2-7.6,3.7C563.7,130.2,558.4,128.8,560,127.3z" />
	<path fill="#E1C7B6" d="M368.8,408c-0.8-3.7-3.6-9.2,1-11.3c6.2,2.4,2.6,12,6.8,12.5c-0.5,0.4-1.1,0.7-2,1.3   c-0.1,0.4-0.3,1.2-0.4,1.9c-0.9,0.5-2.2,0.6-2.1,2c-1.5-1.6,0.1-4.4,0-6.4C370.9,407.4,369.9,407.7,368.8,408z" />
	<path fill="#161412" d="M377.3,407c2.9-3.3,4.4-7.7,7-10.9c1.7,4.3-3,9.1-6.2,11.7C377.8,407.5,377.5,407.2,377.3,407z" />
	<path fill="#2E2926" d="M368.8,408c1-0.3,2.1-0.6,3.3,0.1c0.1,2-1.5,4.8,0,6.4c-0.9,1.9-1.3,4.1-2.7,5.7l0,0c-0.3,0-0.7-0.1-1-0.1   c1.7-3.4,1.6-7.1,1.8-10.8C369.7,408.8,369.3,408.4,368.8,408z" />
	<path fill="#26221F" d="M370.8,442.5c4.5-9.7,7.1-5.9,0.8,0.7C371.3,443,371,442.8,370.8,442.5z" />
	<path fill="#4A423D" d="M364.3,458.6c0.2-2.1,0.6-4,1.8-5.7c2.8,0.3-0.8,4.1-1,5.7C364.8,458.6,364.5,458.6,364.3,458.6z" />
	<path fill="#8F7F76" d="M370.8,442.5c0.3,0.2,0.5,0.5,0.8,0.7c-0.8,1.6-2.4,2.9-3.5,4.2C366.3,446.2,370.1,444,370.8,442.5z" />
	<path fill="#594F49" d="M366,427.9c-0.4-1.3-0.5-2.4,0.6-3.6C367.7,426.3,367.7,426.3,366,427.9z" />
	<path fill="#98887D" d="M362.2,469.3c0-1.3,0-2.2,0-3.4c0.6,0.4,0.9,0.7,1.4,1C363.2,468,363.1,468.3,362.2,469.3z" />
	<path fill="#B19D90" d="M360.7,477.3c0,0.7-0.1,1.3-0.1,1.9c-0.3,0.1-0.4,0.1-0.6,0.1c-1-0.4-0.6-1.3-0.6-2   C359.8,477.3,360.2,477.3,360.7,477.3z" />
	<path fill="#665B54" d="M377.3,407c0.3,0.3,0.6,0.6,0.8,0.8c-0.5,0.5-1,0.9-1.5,1.4c-0.6,0-1.2,0.2-1.4-0.7   C375.9,408,376.6,407.5,377.3,407z" />
	<path fill="#BCA79A" d="M364.3,458.6c0.3,0,0.5,0,0.8,0c-0.3,0.8-0.6,1.7-1,3C363.5,460.1,363.3,459.3,364.3,458.6z" />
	<path fill="#766A62" d="M360.7,477.3c-0.4,0-0.9,0-1.3,0c-0.1-0.9,0-1.6,1.3-2C360.7,476,360.7,476.7,360.7,477.3z" />
	<path fill="#4B433E" d="M368.5,420.1c0.3,0,0.7,0.1,1,0.1c-0.3,0.4-0.7,0.9-1,1.4C367.8,421,367.9,420.5,368.5,420.1z" />
	<path fill="#4B433E" d="M369.3,417.8c-0.1,0.3-0.3,0.6-0.4,0.9C369.1,418.4,369.2,418.1,369.3,417.8z" />
	<path fill="#4B433E" d="M369.5,420.2c0.2-0.3,0.5-0.5,0.7-0.8C370,419.7,369.7,420,369.5,420.2z" />
	<path fill="#DEC5B4" d="M479.4,405.6c2.6,4.4,5.2,11,2.9,16.2c-0.6-0.7-1.3-1.3-2.3-2.4c0.1,1.4,0.2,2.1,0.3,2.9   c-5.1-2.6-12-20.1-2.4-18.9c-0.6,3-2.4,4.4-3.4,7.4C477.3,410,477.7,407.5,479.4,405.6z M479.8,418c2-1.9,1.4-8.7-1.9-7.9   C478.5,412.8,479.2,415.3,479.8,418z" />
	<path fill="#E1C7B6" d="M478.9,400.6c0.8-3.5-3.2-6.5-0.3-9.4c4.6,0.8,7.6,5.1,7.3,9.7c-2.1,0.9-3.2-1.2-4.9-1.1   c-0.4-0.5-0.8-1-1.3-1.7C479.4,399.2,479.1,399.9,478.9,400.6z" />
	<path fill="#2B2623" d="M478.9,400.6c0.3-0.7,0.5-1.4,0.9-2.5c0.5,0.7,0.9,1.2,1.3,1.7c-0.9,3.1-1.5,6.2-3.7,8.7   c-0.3-0.3-0.6-0.6-0.9-0.9C477.3,405.3,478.1,403,478.9,400.6z" />
	<path fill="#2E2A26" d="M480.3,422.3c-0.1-0.8-0.1-1.5-0.3-2.9c1.7,1.7,2.4,2.4,3.6,4.1C482.2,423.8,481.3,422.9,480.3,422.3z" />
	<path fill="#82756C" d="M486.8,442.6c0.2,0,0.5,0,0.7,0c0.4,1.8,0.9,3.6,1.3,5.3C486.6,449,487.4,443.9,486.8,442.6z" />
	<path fill="#98877C" d="M485.4,439.7c-0.5-1-1-1.9-1.5-2.9c0.2-0.2,0.5-0.5,0.7-0.7c0.4,1.2,3.2,3.4,1.4,4.3   C485.9,440.1,485.6,439.9,485.4,439.7z" />
	<path fill="#796D65" d="M499.7,512.7c-0.3,0-0.7-0.1-1.2-0.2c0.1-1.3-0.8-3,0.5-3.9c0.5,1.2-0.5,2.7,0.7,3.6   C499.7,512.4,499.7,512.6,499.7,512.7z" />
	<path fill="#72655E" d="M488.7,419.8c0.9-0.6,1.7-1.7,3.1-0.8C491,420.3,489.9,420.2,488.7,419.8z" />
	<path fill="#84776E" d="M492.4,461.6c0.1,0.7,0.2,1.5,0.4,2.5C491.5,462.7,491.5,462.7,492.4,461.6z" />
	<path fill="#675B54" d="M490.6,454c0.8,0.6,0.7,1.3,0.2,2.5c-0.4-0.7-0.7-1.2-1-1.6C490.1,454.6,490.3,454.3,490.6,454z" />
	<path fill="#1C1917" d="M490.6,454c-0.3,0.3-0.5,0.5-0.8,0.8c-0.2-0.6-0.4-1.1-0.6-1.7C490.4,452.5,490.4,453.4,490.6,454z" />
	<path fill="#E1C7B6" d="M499.8,512.3c-0.8-0.6-0.6-1.4-0.5-2.3C500.1,510.6,499.8,511.5,499.8,512.3z" />
	<path fill="#F08B6B" d="M411.4,300.6c0.2-0.1,0.3-0.3,0.6-0.5c-3.8-5.2-8.2-10-12.8-14.4c0.5-1.4,1.4-0.9,2.2-1.1   c1,0.3,1.5,1.7,2.8,1.4c3,5.9,11.1,9.8,11.6,17.1c-1.1,0.1-2.1,0.2-3,0.2C413.2,302,411.7,301.6,411.4,300.6z" />
	<path fill="#F18C6B" d="M449.5,267.7c4-3,11.2-3.9,16.1-4.4C463.4,266.3,453.4,268.3,449.5,267.7z" />
	<path fill="#E98868" d="M410.1,304.8c-6.2,0.2-10-5.1-14.9-8.4c4.9,1.1,8.1,3.7,12.6,5.5c-0.4,0.1-0.8,0.2-1.4,0.3   C407.8,303.2,409,304,410.1,304.8z" />
	<path fill="#724A3D" d="M411.4,300.6c0.3,1,1.8,1.4,1.4,2.8c-3-2.5-6.3-4.6-8.7-7.8l0.2-0.2C406.9,296.8,409,298.8,411.4,300.6z" />
	<path fill="#985F4C" d="M419.5,263.5c0.4-0.5,0.8-0.9,1.2-1.4c0,2.9,0,5.9,0,9.4C419.5,268.5,419.2,266.1,419.5,263.5z" />
	<path fill="#784E40" d="M458.6,255.6c3.2-0.4,6.1-1.8,9,0.4c-3.5,0.4-6.3,0.3-9.1,0.3C458.5,256.1,458.5,255.9,458.6,255.6z" />
	<path fill="#C3765C" d="M391.9,256.4c-1.3,0-2.6,0-4.1,0c2-2.5,5.3-1.8,7.4-0.5C394.1,256.6,393,256.2,391.9,256.4z" />
	<path fill="#6E4739" d="M410.1,304.8c-1.1-0.8-2.3-1.6-3.7-2.5c0.6-0.1,1-0.2,1.4-0.3c2,1.2,4.2,1.9,6.3,3.4   C412.4,306.2,411.4,304.8,410.1,304.8z" />
	<path fill="#704638" d="M450.9,261.9c2.3-1.4,4.8-1.9,7.6-2.4C457.4,262.2,453.3,261.3,450.9,261.9z" />
	<path fill="#A46A56" d="M422.7,289.3c-2.3-3.3-2.4-5.9-0.7-8.3C421.5,284.1,421.7,286.5,422.7,289.3z" />
	<path fill="#A56955" d="M404.1,286c-1.3,0.3-1.8-1.1-2.8-1.4c-1.2-1.3-2.4-2.6-2.9-4.3l0,0C400.7,281.8,402.6,283.7,404.1,286z" />
	<path fill="#A56A56" d="M402.7,294c-2-0.3-2.9-2-4.5-3.6C400.7,291.3,400.7,291.3,402.7,294L402.7,294z" />
	<path fill="#A96B56" d="M458.6,255.6c0,0.2,0,0.5,0,0.7c-1.2,1.2-2.6,0.5-3.9,0.5C455.8,256.1,457,255.4,458.6,255.6z" />
	<path fill="#724A3D" d="M404.1,295.5c-0.2-0.3-0.4-0.5-0.6-0.8c0,0,0,0,0,0c0.3,0.2,0.6,0.4,0.8,0.6L404.1,295.5z" />
	<path fill="#805748" d="M402.7,294c0.2,0.2,0.5,0.5,0.7,0.7c0,0,0,0,0,0C403.2,294.5,403,294.3,402.7,294   C402.7,294,402.7,294,402.7,294z" />
	<path fill="#A56955" d="M398.4,280.2c-0.2-0.1-0.3-0.2-0.5-0.3C398.4,279.5,398.3,280,398.4,280.2L398.4,280.2z" />
	<path fill="#E2C8B7" d="M419.5,235.5c0.3-3.6-0.8-7.4,0.7-10.9c1.6-4.8-0.7-9.7,1.7-14.3c1,7,3.2,14.7,0.3,21.3   c0.8,0.6,1.5,1.1,2.2,1.6C422.4,232.6,421.4,235.1,419.5,235.5z" />
	<path fill="#E1C7B6" d="M410,196.1c-2.4,7.1-3.8,14.3-6.1,21.4c-1.5-3.3-1.9-8.1-0.4-11.2c0,1-0.4,2.1,0.4,3.1   c-0.1-1,1.1-2.2-0.5-3.1c0.6-2.6,0.3-6.1,2.3-8c0.1,0.4,0.1,0.7,0.2,1.3C407.5,198.4,408.7,197.2,410,196.1z" />
	<path fill="#181514" d="M419.5,235.5c1.9-0.4,2.9-2.9,4.9-2.3c0.6,1.5,2.5,1.3,3.5,2.5C425.5,236.7,419.8,240.2,419.5,235.5z" />
	<path fill="#342E2B" d="M438.9,197.6c-2.3-2.1-4.7-4.3-6.4-6.9c3.2-1.3,4.9,4.4,7.3,6C439.5,197,439.2,197.3,438.9,197.6z" />
	<path fill="#3A3430" d="M447.8,218.5c-0.7-3.9-1.3-7.4-0.8-11.5c1.6,2.8,0.9,6.1,1.5,9.2C448.2,217,448.7,218,447.8,218.5z" />
	<path fill="#322C29" d="M409.2,194.7c1.1-1.4,2.1-2.8,3.2-4.1c2.8,0.7-1.7,3.7-2.3,5C409.8,195.2,409.5,194.9,409.2,194.7z" />
	<path fill="#625851" d="M438.9,197.6c0.3-0.3,0.6-0.6,0.8-0.8c1.2,1.5,2.4,2.9,3.6,4.4c0,0.3,0,0.5-0.1,0.8   C441.9,200.5,440.4,199.1,438.9,197.6z" />
	<path fill="#6A5E56" d="M409.2,194.7c0.3,0.3,0.6,0.6,0.8,0.8c0,0.2-0.1,0.4-0.1,0.6c-1.2,1.1-2.5,2.2-4,3.6   c-0.1-0.6-0.2-0.9-0.2-1.3C406.9,197.1,408.1,195.9,409.2,194.7z" />
	<path fill="#685D56" d="M447.8,218.5c0.9-0.5,0.4-1.5,0.7-2.3c1,2,0.6,4.1,0.4,6.3C448.1,221.3,447.9,219.9,447.8,218.5z" />
	<path fill="#A19086" d="M443.3,202c0-0.3,0-0.5,0.1-0.8c1.1,0.7,2,1.5,2.2,2.9l-0.1,0.1C444.7,203.4,444,202.7,443.3,202z" />
	<path fill="#807269" d="M456.4,235.6c-0.3,0.5-0.6,1.1-0.9,1.8C454.9,236.1,454.9,236.1,456.4,235.6z" />
	<path fill="#7E6F67" d="M452.1,241.8c0.3-0.4,0.6-0.9,1-1.3c0.8,1,0.6,1.6-0.1,2.1C452.6,242.4,452.3,242.1,452.1,241.8z" />
	<path fill="#24211E" d="M452.1,241.8c0.3,0.3,0.5,0.5,0.8,0.8c-0.3,0.4-0.6,0.9-0.9,1.3c-0.3-0.3-0.6-0.5-0.8-0.8   C451.5,242.7,451.8,242.3,452.1,241.8z" />
	<path fill="#9B8A80" d="M445.5,204.1c0.2,0.1,0.3,0.2,0.5,0.4C445.6,204.9,445.6,204.4,445.5,204.1L445.5,204.1z" />
	<path fill="#0A0906" d="M401.3,171.5c-7.7-0.5-17.3-0.8-21.5-8.5c0.2-0.3,0.5-0.6,0.8-1c9.7,8.2,30.2,10.6,37.1-1.8   c0.8,0.5,1.1,0.7,1.5,0.9C417.5,168.2,407.4,169.8,401.3,171.5z" />
	<path fill="#4C443F" d="M459.2,164.3c0.8,1.8,1.7,3.5,2.5,5.7c-1.9-1.2-1.9-1.2-3.2-4.9C458.7,164.8,458.9,164.6,459.2,164.3z" />
	<path fill="#6A5F58" d="M465.1,178.7c1.3,2,1.3,2,1.5,4.5c-1.5-1.3-2-2.8-2.4-4.4C464.5,178.7,464.8,178.7,465.1,178.7z" />
	<path fill="#3C3530" d="M453.7,89.9c-1.2,1.1-2.2,1.1-3.4,0.9C451.2,90,452,89.2,453.7,89.9z" />
	<path fill="#7B6E65" d="M459.2,164.3c-0.2,0.3-0.5,0.5-0.7,0.8c-1.1-1-0.4-2.3-0.8-3.5C458.7,162.3,458.8,163.4,459.2,164.3z" />
	<path fill="#97867C" d="M465.1,178.7c-0.3,0-0.6,0-0.9,0c-0.6-0.8-1.2-1.6-1.8-2.5C464,175.3,464.4,177.8,465.1,178.7z" />
	<path fill="#76685F" d="M451.9,136.7c0.1-0.4,0.3-0.8,0.4-1.4c1.4,1.6,1.4,1.6,0.4,2.8C452.4,137.7,452.2,137.2,451.9,136.7z" />
	<path fill="#6C6059" d="M454.3,141.9c0.3-0.2,0.6-0.3,0.9-0.5c0.7,1.5,0.7,1.5-0.2,2.6C454.7,143.3,454.5,142.6,454.3,141.9z" />
	<path fill="#61554E" d="M451.4,96.9c0-0.9,0-1.8,0-3.1C452.6,95.1,451.8,96.1,451.4,96.9z" />
	<path fill="#7D6E65" d="M453.8,102.3c-0.5-1.1-0.8-2,0-3C454.7,100.3,454.3,101.3,453.8,102.3z" />
	<path fill="#B8A396" d="M453.1,150.8c1.2,0.2,1.2,2.1-0.1,1.4C453,151.8,452.7,151.1,453.1,150.8z" />
	<path fill="#514742" d="M446,104.6c-1.2-0.4-1.3-1.1-1.2-2.1C446.2,102.8,446.4,103.4,446,104.6z" />
	<path fill="#39332E" d="M444,98.5c-0.9-0.8-1.3-1.5-0.1-2.4C444,97,444,97.8,444,98.5z" />
	<path fill="#A79387" d="M441.9,95.4c-1.1-0.5,0-1,0-1.5C442.8,94.6,442.8,94.6,441.9,95.4z" />
	<path fill="#99887E" d="M452,148.3c-0.9-0.7-0.9-0.7,0-1.4C452,147.3,452,147.8,452,148.3z" />
	<path fill="#292422" d="M393.9,49.1c-1.4,0.1-1.7-1.1-2.4-2c-0.8,0.5-1.5,1.1-2.4,1.6c-0.5-0.2-1-0.5-1.7-0.8   c0.5-0.7,0.9-1.1,1.3-1.6c-0.5-0.1-0.9-0.2-1.4-0.4c3.5-3.6,8.5-2.3,11.8,1.6c0,0,0-0.1,0-0.1c-0.2,0.4-0.5,0.8-0.7,1.3   c-0.8-0.2-1.1-0.3-1.7-0.8c-0.4,0.3-0.9,0.7-1.3,1C394.9,49,394.4,49,393.9,49.1z" />
	<path fill="#282420" d="M397.7,71.4c-0.3-0.3-0.5-0.7-0.8-1.1c6-3,11.4-0.7,17.4-0.7c0.4,1.5-0.8,1.3-1.4,1.8   C407.8,71.1,402.7,71.4,397.7,71.4z" />
	<path fill="#D8BFAF" d="M397.7,71.4c5.1,0,10.1-0.3,15.2,0c-0.3,0.5-0.6,1.1-0.9,1.6c-4.3,2.2-9.1,1.1-13.5,0.8   C398.2,73,397.9,72.2,397.7,71.4z" />
	<path fill="#292522" d="M417.2,46.7c-0.4,0.5-0.9,1.1-1.3,1.6c-1.3,0.2-2.7,0.1-3.4-1.1c-1.2-0.2-1.7,2-3.3,0.7   c2.4-4.1,6.7-6.4,11-3.3c-1,0.2-2.2-0.6-3.3,0.4c0.4,0.2,0.7,0.4,1,0.5C417.7,45.9,417.4,46.3,417.2,46.7z" />
	<path fill="#403935" d="M386.9,41c0-0.4,0.1-0.8,0.1-1.3c4.2-1.3,11-1.7,13.2,2.9C395.5,41,391.3,39.6,386.9,41z" />
	<path fill="#413934" d="M398.5,73.8c4.4,0.3,9.2,1.4,13.5-0.8l0,0c0,0.4-0.1,0.8-0.1,1.3c-0.8,0.7-1.7,1.2-2.7,1.5   c-0.9-0.8-5.7-0.9-6.5,0.1C401.1,75.4,399.4,75.5,398.5,73.8z" />
	<path fill="#504842" d="M410.5,39.4c3.6-0.6,10.4-2.2,12.3,1.4C418.5,40.5,414.6,39.5,410.5,39.4z" />
	<path fill="#3C3531" d="M410.5,39.4c1.8,0.1,3.7-0.3,5.3,0.8c-2.8,0.5-5.6,1-8.3,1.5C406.1,39.7,409.3,39.9,410.5,39.4z" />
	<path fill="#3D3730" d="M420.2,16.3c1.9,0.4,0.4,3.6,0.7,5.2c-0.5-0.1-0.9-0.1-1.4-0.2c-0.3-0.4-0.5-0.8-0.7-1   c0.2-1.2,0.4-2.2,0.6-3.3c0,0-0.1,0.1-0.1,0.1C419.6,16.9,419.9,16.6,420.2,16.3C420.2,16.4,420.2,16.3,420.2,16.3z" />
	<path fill="#040403" d="M402.7,75.9c0.8-1,5.6-1,6.5-0.1C407.1,76.3,404.9,77.1,402.7,75.9z" />
	<path fill="#C0A99B" d="M417.9,45.5c-0.3-0.2-0.6-0.3-1-0.5c1-1,2.2-0.1,3.3-0.4l-0.1-0.1c0.5,0.8,0.6,0.8,1.3,0.1   c1.4,0.2,0.4,1.5,0,2.2C420.3,46.5,419.1,46,417.9,45.5z" />
	<path fill="#5B514A" d="M407.9,60.7c1.3-0.1,1.6,1.9,2.7,0.4c0.2,0.3,0.5,0.6,0.7,0.9c-1,1.5-3.6,1.3-5,0   C406.8,61.6,407.4,61.1,407.9,60.7z" />
	<path fill="#736859" d="M416.5,17.3c0.1,0.4-0.2,1,0.6,1.1c-0.2,0.8-0.4,1.5-0.6,2.3c-1,0-0.6-1-1.1-1.4c-0.3,0-0.7,0-1,0   c0-0.3-0.1-0.5-0.1-0.8c1.7-0.4,1.3-2,1.8-3.2c0.1,0,0.3,0,0.4,0C416.5,16,416.5,16.6,416.5,17.3z" />
	<path fill="#B8A295" d="M406.4,47c1,2.1,0.9,3.5,0.1,5.1C405.6,49.2,405.6,49.2,406.4,47z" />
	<path fill="#BEAD94" d="M407.1,22.1c0,0.3,0,0.5,0,0.8c-0.7,0.2-1.5,0.4-2.2,0.7c0.2-1.9-0.3-3.9,0.1-5.7   C406.8,18.8,404.2,22.5,407.1,22.1z" />
	<path fill="#453D38" d="M393.9,49.1c0.5,0,1-0.1,1.5-0.1c0.2,0.4,0.4,0.8,0.6,1.3c-1.1,1.1-2.2,1-3.4,0   C393.1,49.8,393.5,49.4,393.9,49.1z" />
	<path fill="#3C3633" d="M417.9,45.5c1.2,0.5,2.4,0.9,3.6,1.4c-0.8,1.8-3,0-4.2-0.2C417.4,46.3,417.7,45.9,417.9,45.5z" />
	<path fill="#A0907E" d="M419.4,17.1c-0.2,1-0.4,2.1-0.6,3.3c0.2,0.2,0.4,0.6,0.7,1c-0.9,0.3-1.5-0.4-2.3-0.7   C417.9,19.5,418.7,18.3,419.4,17.1z" />
	<path fill="#7F7067" d="M400.5,60.6c0.2,0.8,0.5,1.5,0.7,2.4c-0.3,0.1-0.6,0.2-1.2,0.5c0-1.3-1.5-2.3-0.3-3.7   C400,60,400.3,60.3,400.5,60.6z" />
	<path fill="#C1AA9C" d="M407.9,60.7c-0.5,0.5-1,0.9-1.6,1.4c-1.5-1.1-1.5-1.1-0.8-2.2c0.5,1.2,1.1,0.1,1.6,0   C407.3,60.1,407.6,60.4,407.9,60.7z" />
	<path fill="#48413D" d="M423.7,36.7c0,0.7,0,1.3,0,2c-1.5-0.2-1.4-1.2-1.3-2.1C422.8,36.7,423.2,36.7,423.7,36.7z" />
	<path fill="#8B7F77" d="M423.7,36.7c-0.4,0-0.9,0-1.3,0c0-0.7,0.1-1.3,0.1-1.9c0.3-0.1,0.4-0.1,0.6-0.1   C424.1,35.1,423.7,36,423.7,36.7z" />
	<path fill="#433B36" d="M404.2,62.7c-0.6,0.1-1.3,0.2-1.8,0.3C401.1,61.1,404.2,60.7,404.2,62.7z" />
	<path fill="#61564F" d="M407.2,46c-0.5-1.4,0.2-2.2,1.2-3.1C408.6,44.3,408.6,44.3,407.2,46z" />
	<path fill="#544A44" d="M411.3,62c-0.2-0.3-0.5-0.6-0.7-0.9C409.2,57.5,412.8,59.6,411.3,62z" />
	<path fill="#5A5146" d="M412.8,20.6c-0.8-0.2-0.7-0.8-0.6-1.4l-0.1,0c0.9-0.2,0.8-0.9,0.8-1.5l0,0c0.3,0,0.5,0,0.8,0   C413.7,18.8,413.1,19.7,412.8,20.6z" />
	<path fill="#71655D" d="M400.5,60.6c-0.2-0.3-0.5-0.5-0.7-0.8c0.1-0.6,0.3-1.2,1.1-1.3C401.7,59.3,400.8,59.9,400.5,60.6z" />
	<path fill="#A69781" d="M412.8,20.6c0.3-0.7,0.5-1.3,0.8-2c0.2,0,0.4-0.1,0.6-0.1l0,0c0,0.3,0.1,0.5,0.1,0.8   c0.2,0.2,0.4,0.4,0.6,0.6C414.6,21.2,413.7,20.8,412.8,20.6z" />
	<path fill="#695C55" d="M414.9,48.4c0.3,0,0.7,0,1,0c0.2,0.4,0.4,0.8,0.6,1.3c-0.9,0.2-1.2,0.4-2,0   C414.7,49.2,414.8,48.8,414.9,48.4z" />
	<path fill="#594F48" d="M407.1,59.8c-0.5,0.1-1.1,1.1-1.6,0C406.4,58.9,406.5,58.9,407.1,59.8z" />
	<path fill="#3F3834" d="M399.1,47.6c0.3-0.2,0.7-0.5,1-0.7c0.2,0.4,0.4,0.7,0.9,1.7C400,48,399.5,47.7,399.1,47.6   C399.1,47.5,399.1,47.6,399.1,47.6z" />
	<path fill="#DEC4B3" d="M412.9,82.4c-0.6,0.7-1.4,0.7-2.2,0.6C411.2,82,412.1,82.4,412.9,82.4z" />
	<path fill="#D8BFAF" d="M411.9,74.3c0-0.4,0.1-0.8,0.1-1.3c0.2,0.2,0.5,0.3,0.7,0.5C412.5,73.8,412.2,74,411.9,74.3z" />
	<path fill="#292522" d="M421.4,44.7c-0.7,0.7-0.8,0.7-1.3-0.1C420.6,44.6,421,44.7,421.4,44.7z" />
	<path fill="#0C0B09" d="M404.9,22.2c0,0.5,0,0.9,0,1.4c-0.3-0.2-0.5-0.4-0.8-0.6c0-0.3,0.1-0.5,0.1-0.8c0,0,0,0,0,0   C404.3,22.2,404.7,22.2,404.9,22.2z" />
	<path fill="#5B514A" d="M410.2,59.9c0.1,0.3,0.3,0.6,0.4,0.9C410.5,60.5,410.3,60.2,410.2,59.9z" />
	<path fill="#C1AA9C" d="M409.3,61.3c-0.3-0.2-0.6-0.4-0.9-0.6C408.7,60.9,409,61.1,409.3,61.3z" />
	<path fill="#3F3931" d="M415,20c-0.2-0.2-0.4-0.4-0.6-0.6c0.3,0,0.7,0,1,0C415.3,19.5,415.2,19.8,415,20z" />
	<path fill="#211E1B" d="M481.7,433.9c-1.1-1.2-2.4-2.2-3.2-3.9c1.9,0.3,1.9,0.3,4,3.1C482.2,433.4,482,433.6,481.7,433.9z" />
	<path fill="#554C45" d="M481.7,433.9c0.2-0.3,0.5-0.5,0.7-0.8c0.7,1,1.4,1.9,2.2,2.9c-0.2,0.2-0.5,0.5-0.7,0.7   C483.2,435.8,482.5,434.8,481.7,433.9z" />
	<path fill="#514944" d="M471.7,409.2c-0.8,0.8-0.8,0.8-2.4,0.2C470.3,409.3,471,409.2,471.7,409.2   C471.6,409.2,471.7,409.2,471.7,409.2z" />
	<path fill="#665B53" d="M393,235.6c-0.7-1-1.3-1.7-2.1-2.9C393.3,233.8,393.3,233.8,393,235.6z" />
	<path fill="#8F8075" d="M396.1,239c0.2,0.4,0.4,0.7,0.6,1.3c-0.5,0-0.9,0.1-1.3,0.1C395.1,239.3,394.6,238.9,396.1,239z" />
	<path fill="#070706" d="M347.6,556.3c1.9,0.5,5.5,0.8,4,3.7c-5.7-0.5-12.1,1.3-17.4-1C336.6,554.9,343.5,556.8,347.6,556.3z" />
	<path fill="#090908" d="M337.8,564.2c-0.7-0.3-1.5-0.6-2.4-0.9c1.9-3.7,17.7-3.8,15.5,1.6C346.6,565.8,342.1,564.3,337.8,564.2z" />
	<path fill="#151411" d="M347.5,590.5c0,0.4,0,0.7,0,1.3c-2.6-0.9-4-3.8-6.7-4.9c-4,0.6-7.7,1.6-10.5,4.7c0-1.2,0-2.2,0-3.3   C336.1,584.1,343.9,583.3,347.5,590.5z" />
	<path fill="#0E0D0C" d="M346.8,570.7c-4.3,0.7-6,0.6-11.7-0.7C337.1,567.6,349,565.1,346.8,570.7z" />
	<path fill="#23221D" d="M335.7,572.3c10.6-3,9.6,7.3-0.1,0.7C335.6,572.8,335.6,572.5,335.7,572.3z" />
	<path fill="#B8B29B" d="M344.1,560.7c-2.2,0.1-4.4-0.1-6.6,0.7c0.2-0.4,0.5-0.9,0.7-1.3c1.9,0,3.9-0.1,5.8-0.1   C344,560.2,344.1,560.5,344.1,560.7z" />
	<path fill="#060605" d="M514.2,554.1c3.6-0.7,10.3,1.4,4,3.8c-5,0.1-10.4,1.5-15.1-0.5C498.1,552.3,511.8,554.6,514.2,554.1z" />
	<path fill="#080706" d="M503.7,562.8c-0.2-0.5-0.4-1-0.6-1.4c0.5-0.5,0.9-0.8,1.3-1.2c5-0.3,11.2-2.1,15.6,0.8   c0.4,3.2-3.5,1.6-5.3,2C511.4,564.6,507.2,563.7,503.7,562.8z" />
	<path fill="#22211C" d="M505.3,566.5c3.4-2.9,8-1.1,11.8-0.3C521.1,571.4,506.7,569.1,505.3,566.5z" />
	<path fill="#0C0C0B" d="M505.9,572.4c3.4-1.1,6.3-1.2,9-0.3C516.1,576.2,507.2,575.2,505.9,572.4z" />
	<path fill="#22211C" d="M513.6,563.6c1.4-1.2,3.4-0.5,5.2-0.6C517.1,564,515.4,563.7,513.6,563.6z" />
	<path fill="#2A2522" d="M459.8,194.9c-0.4-0.1-0.9-0.1-1.3-0.2l0.1,0.1c-0.1-0.6-0.2-1.1,0.2-1.7c0.9-0.3,1.5,0.2,2,0.9   C460.4,194.3,460.1,194.6,459.8,194.9z" />
	<path fill="#5E534B" d="M449.3,130.2c1.3,1,1.5,2.1,1.2,3.8C449.6,132.6,448.8,131.7,449.3,130.2z" />
	<path fill="#6A5E56" d="M459.8,194.9c0.3-0.3,0.6-0.6,0.9-0.9c0.7,0.5,1.2,1.1,1.1,2C460.7,196.3,460.4,195.4,459.8,194.9z" />
	<path fill="#2C2825" d="M368.7,125.9c0.6,0,1.3,0,1.9,0C369.5,127,369.4,127,368.7,125.9z" />
	<path fill="#7E4A39" d="M436,298.3c-2.1,1.9-4.2,3.9-6.5,5.9c-0.3-3.6,3.7-4.4,5.7-6.6C435.6,297.8,435.8,298.1,436,298.3z" />
	<path fill="#B0664F" d="M436,298.3c-0.2-0.2-0.5-0.5-0.7-0.7c1.7-1.6,3.6-3.8,5.8-4.3l0,0C439.8,295.3,438.1,297,436,298.3z" />
	<path fill="#C87459" d="M442,302.2c-0.9,1.8-2.3,1-3.3,1.4c-0.9,0.4-1.9,0.8-2.7,1.2C434.6,302.3,440,302.7,442,302.2z" />
	<path fill="#B86B53" d="M432.4,296c1-1.1,2.1-2.2,3.1-3.3c0.1,0.1,0.3,0.2,0.4,0.2c-0.3,1.8-2.3,2.7-3.4,4   C432.5,296.6,432.5,296.3,432.4,296z" />
	<path fill="#693E30" d="M432.4,296c0,0.3,0.1,0.6,0.1,0.9c-0.5,0.8-1.1,1.5-2.3,1.9C430.4,297.1,431.5,296.7,432.4,296z" />
	<path fill="#B0664F" d="M441.2,293.3c0.1-0.2,0.2-0.3,0.3-0.5C441.3,292.9,441.2,293.1,441.2,293.3L441.2,293.3z" />
	<path fill="#211E1C" d="M419.4,91.8c-1.2,1.3-1.2-1.3-1.4-2c0.3-0.3,0.6-0.6,1-1C419.8,89.8,419.3,90.9,419.4,91.8z" />
	<path fill="#48403A" d="M419.5,134.5c0.7-0.5,1.4-1,2.1-1.5c0.1,0.1,0.2,0.2,0.4,0.3c-0.6,1.1-1.2,2.1-1.8,3.2   C418.8,136.3,419.4,135.3,419.5,134.5z" />
	<path fill="#403934" d="M567.7,123.6c-1.2,0.1-2.4,0-2.9,1.7c-5.7-4.5-4.1,1.3-7.7-0.3c0-0.2,0-0.3,0-0.5c1.2-1.7,3.4-1.8,5.3-2.9   c-0.2-0.6-0.5-1.5-0.9-2.4c1.6,0,1.8,2.8,2.9,0.2c0.4,0,0.7,0,1.1,0c0.2,0.9-0.7,1.7-0.4,2.7C566.2,122.4,567.5,122.1,567.7,123.6z   " />
	<path fill="#2D2825" d="M470.2,115c-1.7,0.9-5.4,4-5.9,0.3c1.7-0.4,3.4-0.8,5.1-1.2C469.6,114.4,469.9,114.7,470.2,115z" />
	<path fill="#6D6159" d="M472.6,114.5c0.8-0.9,2.4-0.2,1.5,1C473.6,115.1,472.7,115.1,472.6,114.5z" />
	<path fill="#C0AA9C" d="M470.2,115c-0.3-0.3-0.5-0.6-0.8-0.9c0.5-0.7,1.1-0.7,2.1-0.2C471,114.3,470.6,114.6,470.2,115z" />
	<path fill="#6C5F57" d="M565.7,119.3c-0.4,0-0.7,0-1.1,0c0.3-0.3,0.5-0.5,0.8-0.8C565.4,118.8,565.5,119.1,565.7,119.3z" />
	<path fill="#E0C7B6" d="M557.8,123.7c-0.2,0.3-0.4,0.6-0.7,0.9C557.4,124.2,557.6,123.9,557.8,123.7z" />
	<path fill="#6C5F57" d="M565.2,121c0.1-0.3,0.3-0.7,0.4-1C565.5,120.3,565.4,120.7,565.2,121z" />
	<path fill="#F0D4C2" d="M559.3,135.3c-4.4,2.4-7-2.2-11.6-1.3c3.4-2.4,6.2-3.1,9.4-5.8c1,0.3,1.8,0.9,2.2,2   C557.1,131.7,557.8,133.6,559.3,135.3z" />
	<path fill="#6E6159" d="M529.8,128.5c0-0.9,0.7-1.5,1.4-1.2c2.1,1,3.9-0.7,5.8,0.6C534.6,128.9,534.6,128.9,529.8,128.5z" />
	<path fill="#473F39" d="M542.8,129.9c-1.4,0.6-2.7,0.7-3.8-0.9C540.5,128.4,541.6,129.1,542.8,129.9z" />
	<path fill="#3C3631" d="M544.2,130.7c1.6,0.5,2.7,0.8,4,1.1C545.4,132.9,545.1,132.8,544.2,130.7z" />
	<path fill="#73665E" d="M525.4,128.5c0.6-1.1,1.3-1.5,2.4-0.9C527.4,128.7,526.6,128.9,525.4,128.5z" />
	<path fill="#A39184" d="M520.5,127.7c0.1-0.6,0.9-0.6,1.3-0.9c0.1,0.3,0.2,0.6,0.3,0.9C521.5,127.7,520.9,128.1,520.5,127.7z" />
	<path fill="#0C0B0A" d="M410.7,5.5c0.1-0.1,0.3-0.2,0.4-0.3C411.1,5.4,410.9,5.4,410.7,5.5L410.7,5.5z" />
	<path fill="#B3A085" d="M391.1,24.3c-1.1,0.1-1.7-0.4-2.1-1.4c1.6-0.6-0.3-2-0.7-2.9c0.2-0.2,0.4-0.4,0.6-0.6   c1,0.7,1.6,1.8,2.3,2.7C391.1,22.8,391.1,23.6,391.1,24.3z" />
	<path fill="#8E7E6A" d="M392.7,15.6c0.6,0.4,0.6,1,0.4,1.6C392.6,16.7,392.5,16.2,392.7,15.6z" />
	<path fill="#584F42" d="M387.5,24.3c-0.2,0-0.5,0-0.7-0.1c0.1-0.4,0.1-0.8,0.2-1.1c0.1,0,0.2,0,0.3,0   C387.4,23.5,387.4,23.9,387.5,24.3z" />
	<path fill="#8A7D6B" d="M406.4,22.1c-1.9-0.8,0.3-3.3-1.4-4.3c-0.1-0.2-0.1-0.5-0.2-0.7c0.3-0.8-0.1-1.7,0.7-2.3   c0.3,0.7-0.2,1.7,0.7,2.2C406.8,18.7,406.3,20.5,406.4,22.1z" />
	<path fill="#39342C" d="M404.9,22.2c-0.2,0-0.5,0-0.7,0c-0.1-1.3,0-2.5,0.6-3.6C404.8,19.8,404.8,21,404.9,22.2z" />
	<path fill="#39342C" d="M403.6,16.9c0.2,0,0.3,0.1,0.5,0.1c-0.1,0.2-0.1,0.3-0.2,0.5C403.8,17.3,403.7,17.1,403.6,16.9z" />
	<path fill="#312C26" d="M406.5,17.9c-0.5-1.1,0-2.3,0-3.5c0.1-0.1,0.4-0.1,0.6-0.1c0.1,0.6,0.2,1.2,0.2,1.9c0.1,0,0.2,0,0.3,0   c0-0.6,0.2-1.2,0.2-1.9c1.1,0.4,0.5,1.5,0.8,2.1c-0.1,0.5-0.2,0.9-0.2,1.4C407.8,17.8,407.1,17.9,406.5,17.9z" />
	<path fill="#998B77" d="M407,14.3c-0.2,0-0.4,0-0.6,0.1c0-0.4,0-0.8,0-1.3c0.1,0,0.3,0,0.4,0C406.9,13.5,407,13.9,407,14.3z" />
	<path fill="#998B77" d="M407.7,14.9c0,0.4-0.1,0.8-0.1,1.2c-0.1,0-0.2,0-0.3,0c0-0.4-0.1-0.8-0.1-1.2   C407.3,14.9,407.5,14.9,407.7,14.9z" />
	<path fill="#DAC6AA" d="M408.4,17.8c0.2-1.8,1-3.4,1.7-5c0.2,0.3,0.4,0.5,0.6,0.8c-0.5,1.6-1.1,3.1-1.6,4.8   C408.8,18.1,408.6,17.9,408.4,17.8z" />
	<path fill="#F6D9C7" d="M426.7,31.6c0,0.2,0,0.5-0.1,0.7c-0.2,0-0.5,0-0.7,0C426.2,32.1,426.4,31.8,426.7,31.6z" />
	<path fill="#443C37" d="M562,129.5c0.3,0.2,0.6,0.3,0.9,0.5C562.6,129.8,562.3,129.7,562,129.5z" />
	<path fill="#1B1817" d="M573.6,133.7c-0.1-0.1-0.2-0.2-0.3-0.4C573.6,133.4,573.6,133.5,573.6,133.7L573.6,133.7z" />
	<path fill="#0B0A09" d="M406.5,17.9c0.4,0,0.8,0,1.3,0c0,1.5,0.2,3-0.7,4.3c-0.2,0-0.5,0-0.7,0C406.4,20.7,406.5,19.3,406.5,17.9z" />
	<path fill="#AA9A84" d="M413.6,17.9c-0.3,0-0.5,0-0.8,0c0.5-1,0.9-1.9,1.4-2.9c0.3,0,0.5,0,0.8,0c-0.2,0.7-0.4,1.5-0.7,2.2   c0,0,0,0,0,0C414.1,17.3,413.9,17.6,413.6,17.9z" />
	<path fill="#AA9A84" d="M412.9,17.8c0,0.6,0.1,1.3-0.8,1.5C412.1,18.7,412.2,18.1,412.9,17.8z" />
	<path fill="#A69781" d="M415.8,16.2c0.1,1.2-0.3,2-1.5,2.4l0,0c0-0.5,0.1-0.9,0.1-1.4c0,0,0,0,0,0   C414.8,16.8,415.3,16.5,415.8,16.2z" />
	<path fill="#A0907E" d="M420.2,16.4c-0.3,0.3-0.5,0.5-0.8,0.8C419.6,16.9,419.9,16.6,420.2,16.4z" />
	<path fill="#201C1A" d="M479.8,418c-0.7-2.8-1.3-5.3-1.9-7.9C481.2,409.3,481.8,416.1,479.8,418z" />
	<path fill="#72655C" d="M476.4,407.6c0.3,0.3,0.6,0.6,0.9,0.9c-0.5,1.1-1.3,1.8-2.8,2.3C474.7,409.1,475.7,408.5,476.4,407.6z" />
	<path fill="#8E7F74" d="M403.5,206.3c1.5,0.8,0.3,2,0.5,3.1C403.2,208.5,403.5,207.4,403.5,206.3L403.5,206.3z" />
	<path fill="#3E3830" d="M414.4,17.1c0,0.5-0.1,0.9-0.1,1.4c-0.2,0.1-0.4,0.1-0.6,0.1c0-0.3,0-0.5,0-0.8   C413.9,17.6,414.1,17.3,414.4,17.1z" />
</g>
</svg>