<?xml version='1.0' encoding='utf-8'?>
<svg xmlns="http://www.w3.org/2000/svg" version="1.2" baseProfile="tiny" id="Layer_2_00000044898912090230481720000008423636543412927886_" x="0px" y="0px" viewBox="0 0 900 600" overflow="visible" xml:space="preserve">
<g id="b">
	<g><path d="M817.6,455c2.7,1.3,4.6,3.3,6.4,6.4c-0.2,0.9-0.4,2.1-0.7,3.2c0.9,1.1,2-1,2.9-1.3c1.1,0.4,1.3,0.9,1.7,1.9   c-2.1,3-3.3,5.9-4,9.4c1,0.3,1.9,0.2,2.7-0.7c-0.3-1.4-0.3-2.7,0.2-4c4.4,1.5,1.9,7.7,4,11c0.8,1.5,1.1,3.1,0,4.9   c2.4,2,1.1,4.9,0.3,7.3c1.7,1.6,2.2-2,4-2.1c0.4,0.3,1,0.8,1.5,1.1c-0.1,1.6-2,1.9-1.8,3.8c0,0.8-0.6,1.5-0.9,2.3   c-0.2,2.5-3.2,4-1.4,6.6c1.8-0.8,0.8-2.3,1.9-3.6c5,1.9-0.3,7.2-2.4,9.7c1.3,2.3-0.3,4-1.5,5.8c0.9,1.2,1.6,2.3,2.4,3.4   c-1.1,3.5-0.9,7-3.5,9.9c-0.7-0.6-1.1-1.1-1.7-1.6c-0.4,0.3-0.9,0.6-1.5,0.9c0.3,1.6,0.7,3.1,1.1,4.6c-0.4,0.9-0.9,1.6-1.4,2.6   c1.7,4.7-0.3,8-3.3,11.7c-0.9-1.2-1.7-2.1-2.5-3.2c0.1-1.7-0.2-3.5,0.8-5.1c-0.1-0.2-0.1-0.3-0.2-0.6c-1.6,2-2.3,7-1.9,9.9   c1.4,2.7-0.5,4.1-2.1,5.8c-1.1,0.2-2.2,0.4-3.3,0.6c-0.5-1.6,0.7-2.5,0.3-4.1c-0.5,0-0.9,0-1.2,0c-1.6,2.4-6.4,11.5-9.8,6.8   c0.3-0.9,0.7-1.6,1.3-2.6c-0.6-0.9-1.2-1.7-1.8-2.7c-0.8-0.1-1.6-0.2-2.3-0.2c-5.1,3.7-8.5,10.4-15.2,10.6   c-50.1,2.3-99.4-11.9-149.2-11.9c-52.6,36.3-112.2-23.4-167.5-3.6c-16.9,7-35.8,4.9-53.1,9.9c-61.1,23.5-146.6,42.8-208.1,13.9   c-17.2-9.5-32.9-25.3-53.4-27c-6.2,5.9-15-0.6-21-3.3c-24.6-3.3-54.8-1.5-68.5-26.1c-2-17.6,13-32.9,30.7-30.6   c-4.2-5.3-16.6-4-15.1-13.2c-3.3-26.5,28.3-36.9,49.8-34.6c20.4,3.3,16.6,8.1,30.1,14.3c17,4.8,38.6-3,49.2,15.2   c21.4-3.4,48.7-13,66.1,4c23.8-9.4,41.1-27.7,60.5-43.7c41-37.6,100.5-30.1,147.6-9.2c0,0.6,0.1,1.3,0.1,2.1   c25.9,15.8,56.4,8.1,84.3,3c-46.8-6.4-74.1-42.2-78.8-87.9c-2.3-16.7,0.4-34.2-2.4-50.4c-2.8-5.9-0.8-13.5-2-19.3   c-2.3,3.9-2.2,8.8-6,11.9c-9.2-1.5-18.3-3.6-27.5-5.3c-1.6-3.7-1.3-7.1-0.6-10.7c2.1,2.1-0.7,6.5,1.5,8.6c7,2.8,15.3,4.1,22.8,4.8   c-0.3-11.4,2.2-22.4,5.8-33.4c1-0.8,0.9-2.1,1.5-3.3c-7.6-1.5-15-3-22.4-4.5c-2.8,3.2-3.4,7.5-4.8,11.3c-2.1-2.7,1.7-11.3,4.9-13.1   c8.8,1.3,17.6,3.3,26.5,5.2c2.6,3.8,1.1,7.9,1.3,12c0.8,0.3,1.6,0.5,2.6,0.9c2.9-4,6.8-2.2,10.6-0.5c3.2-4.9,7.7-4.3,11.7-0.7   c3.7-3.3,7.2-1.6,10.6,0.6c0.9-0.5,1.7-0.9,2.7-1.5c5.7,1.2,10,4.6,9.1,10.8c0.9,0.3,1.7,0.4,2.6,0.7c2.5-3.6,1.9-8.5,6.2-11   c3.5,1.4,32.1,3,26.4,8.8c-0.1-0.9-0.3-1.9-1.5-2c-6.4,9.5-9.7,25.9-7.2,37.2c3-1.1,3.4-4.6,4.6-7.3c0.3,0.5,0.5,1.1,0.8,1.6   c-0.6,2.8-1.5,5.4-4.1,7.4c-9.1-1.8-18.1-3.6-27.2-5.4c-2.1-4.4-0.6-8.8-0.8-13.1c-0.3-0.5-1-0.3-1.7-0.6   c-1.2,5.3-4.2,10-10.2,10.3c-2.4,2.8-4.7,5.6-7.3,8.8c-2.7,31.1,17.6,47.7,26.7,74.5c17.9,5.8,36.4,10.3,55.3,11.5   c14,0.9,28.3-1.9,41.8,2.8c30.5,8.5,10.8,70.3,65.9,83.4c1.5-2.2,3.5-4,6.2-4.9c0.3-1.5-1-3.3,0.5-5c1.1-0.3,2.5-0.5,3.9-0.9   c1.5-0.3,1.7-2.2,3.1-2.8c-0.7-1.2-2.7-1.2-2.9-2.9c1.9-0.3,1.9-0.3,4,0.4c1.6-1.8,4.2-2.2,6.4-3.4c-0.2-0.7-0.3-1.4-0.5-2   c1-2.9,3.9-0.5,5.7-2.1c-0.4-0.6-0.9-1.3-1.3-1.8c1.1-1.7,3.8-0.8,5.6-1.6c1-0.3,2.5,0.5,4.1,0.9c0.6-0.4,1.5-1,2.7-1.8   c-0.6-0.9-1.1-1.5-1.8-2.6c2.7-2.2,5.6,0.7,8.4-0.4c1.5-0.3,2.9,0.3,4.5,1.1c-0.3-1-0.5-1.7-0.7-2.4c0.4-0.3,0.9-0.6,1-0.5   c2.2,1.1,5.3-0.9,7.1,2.1c5.2-3.8,5.7,1,9.2,3.7c-0.3-1.8-1-2.5-2.1-3c-0.3-0.7-0.6-1.4-0.9-2.1c0.4-0.7,0.9-1.4,1.4-2.1   c2.9,1,5.8,4,8.8,2.2c0.8,0.4,1.4,0.8,1.7,0.9c3.3-0.5,6-1,7.6,2.4c3.6-2.1,5.6,0.7,7.9,2.9c0.4-0.8,0.7-1.3,1-2.1   c1.2,0.3,2.3,0.5,3.7,0.9c0.9,1.7,3.3,2.6,3.9,4.8c0.3,1,0.5,2.1,1.8,3.3c-0.3-1.9-0.3-2.3-0.3-4c0.3-0.2,0.5-0.3,0.8-0.6   c1.6,1.3,1.5,4.2,4.1,4c0.8,2.8,1.4,5.4,2.1,8.3c0.8-0.5,1.4-0.9,1.9-1.2c0.2-1,0.3-1.9,0.5-2.7c4.6-1.1,2.9,5.8,4,8.5   c-0.9,1-0.9,2.1-0.3,3.3c0.9-1.1,1-2.1,1-3.3C819.1,458.5,816.3,456.8,817.6,455z M152.3,543c-0.6,0-1.3,0-1.9,0c0,0.2,0,0.3,0,0.5   c2.4-0.3,4.8,0.7,7.1-0.4C155.8,542.9,154,542.9,152.3,543z M726.6,535.1c-0.1-0.3-0.2-0.7-0.3-1.2c-2.7,1.6-6,0.4-8.3,1.9   c-0.4-0.1-0.9-0.2-1.6-0.3c0.5-0.9,0.9-1.5,1.5-2.3c-0.5-0.8-1-1.6-1.5-2.5c-3.1,1.8-3.1,1.8-5.5,0.5c-0.9-0.8,0-2-1.5-2.3   c-0.4,1-0.7,2.7-2.1,2.6c-2.3-0.3-7,2.5-5.7-2.1c-2.1-1.2-4.3-1.5-6.5-2c0.9-0.2,1.9-0.3,3.4-0.5c-1.6-1.1-2.7-1.9-4-2.7   c-1.6,0.9-3.2,1.6-4.7,2.5c-0.3-0.3-0.6-0.6-0.9-0.9c1.7-2.7,4.5-4,8.1-4.6c-6.3-4.5-12-9.4-19.8-9.6   c-11.9,14.6-30.7,21.5-40.4,38.2c33.7,0.9,66.9,6.3,100.6,8.1c15.1,0,47.8,10.6,56.8-3.3c-0.4-0.3-0.9-0.8-1.2-1   c-0.3-1.2,0.9-2.2,0.3-3.4c-1.2,0.7-1.8,2.1-3.6,1.6c0.1-1.8,1-4.4-0.3-5.9c-1.1,0.2-2.1,0.3-3,0.5c-0.8-0.8-1.5-1.5-2.4-2.2   c-0.8,0.7-1.2,1.8-2.3,1.6c-0.5-2.1,0.8-3.3,2-4.5c0.2-0.9,0.3-1.7,0.4-2.5c-1.4-0.3-2.7-0.5-4.1-0.8c-0.4,0.3-0.9,0.6-1.4,0.9   c-0.7-0.1-1.4-0.2-2.1-0.3c-1.5-1.5-1.7-2.7-2.6-5.2c0.1,3.7-2.7,6-5.9,6.4c0-0.3,0-0.4-0.1-0.7c0.1-0.3,0.2-0.4,0.3-0.7   c1.5-0.7,1.4-2,1.1-3.5c-1.5,0.7-2.8,0.8-4.2,0.1c-2.5-0.7-5.2,0.4-7.7,0.3c-5.5,1.1-12.8-3.3-16.7,2.3c-2.8,0.7-5.7,1.2-8.4,2.1   c-0.3-0.4-0.9-0.8-0.7-1.4c1.4-0.3,4.9-3.3,2.6-4.1C732.3,537.9,726.7,541.5,726.6,535.1z M534.3,265.5c0.2,2.6-1.1,4.7-2,7.1   c0.5,0.3,0.9,0.5,1.5,0.9c1.9-3.8,1.4-7.7,2.5-11.6c-0.8-1.7-3.8-2.1-4.7-0.4C532.5,262.7,533.3,264.1,534.3,265.5z M496.3,260.5   c1.3-3.1,2.5-6.1,2.8-9.6c-11-7.7-13,15.7-2.3,16C496.7,264.6,496.5,262.6,496.3,260.5L496.3,260.5z M519.2,260.3   c-1,3.7-4.7,12.2,2,12.1c0.7-1,1.5-2.1,2.1-3c-0.8-2.1-1.5-4-2.2-6c-0.4-0.2-0.9-0.3-1.7-0.6c1.3-0.2,2.1-0.3,2.8-0.4   c0.6-7,2.8-6.4,7.6-2.7c2-2.3,2-2.3,1.6-6.2c-1.9-2.1-1.9-2.1-6.2-3.5C521.9,252.7,519.7,256.1,519.2,260.3z M152.4,492.1   c-0.6,3.7,8.8,10.6,11.2,8.1c-11-7-8.1-18.9,0-27.1c3.5-2.6,7.4-2.7,11.5-1.5c10-0.7,20.3-1.7,30.1-4.3   c-9.1-17.6-33.8-5.6-48.6-13.7c-8.7-4.4-14.8-13.2-25.5-13.2c-22-2.8-54.6,6.5-48.3,34.5c25.6,22.2,45.8,8.7,68.9,21.6   C151.9,494.8,150.8,493,152.4,492.1z M535,277.7c0,2.7,0,5.7,0,8.2c6.8,3.6,15.5,4.3,23,5.2c0-2.2-0.3-4.1-0.2-6.2   c1.5-10,3.7-20.8,7-30.6c-7.3-1.4-14.6-2.8-21.8-4.2c-4.4,5.3-5.7,12.9-6.7,19.7c-0.7,0.4-0.7,1.1-0.7,1.8   C535.9,273.7,534.7,275.5,535,277.7z M506.4,260.5c0.9-3.1,3-5.7,3.5-8.8c1-5.3-6.1-4.9-8.4-1.5c-1.8,6.6-5.7,12.9-1.5,19.2   c0.7,1.8,0.7,1.8,2.7,1.7c1.5-1.3,2.6-2.2,3.8-3.3C505.1,265.3,506.2,263,506.4,260.5z M508.4,260.5c-2.3,3.7-0.7,7.1,0.5,10.7   c7,0,8.6-15.4,12.5-20.4C513.5,244,510,254.2,508.4,260.5z M171.9,515.7c-3.8-4-16-2.3-20.5-0.2c-5.9,6.4-10.9,17.4-3.8,24.6   c2-1,4-0.3,6.4-0.4c-5.4-7-4.4-20.9,5.3-23.3c4.8-1.1,8.8-0.1,13.7-0.5C172.4,515.9,172.2,515.8,171.9,515.7z M167.4,493.6   c-2.9-8.6,1.7-15,8.5-19.9c-9.5-3.4-15.8,4.8-16.9,13.5c-1.5,5.2,3.8,8,6.5,11.4c1.4,0,2.4,0,3.7,0   C168.7,496.7,168.5,495,167.4,493.6z M487.7,258.3c0.3-2.1,0.7-4.4,1-6.7c-4.8-1-5.4-2.3-9,1.7c0.7-1.6,1.1-2.8,1.6-4   c1.4-0.3,2.6-0.6,3.8-0.9c0.3-3.1,1.8-8.8-1.2-10c-4.6,2.4-11.9,35.5-6.4,36.8c2.8-2.6,3-6.4,4.4-9.8c-1.2-0.6-2.2-1.1-3.3-1.7   c0-1.5,0-2.9,0-4.3c0.2,0.1,0.3,0.1,0.5,0.2c-0.3,5,7,4,10.5,4.2C489,262,488.7,260,487.7,258.3z M191.6,503.6   c3,5.6,6.4,11.4,4.5,17.9c9.2,2.2,17.5,0.4,26.7-0.3c-11.3-5.2-19.8-18-32.5-18.6C190.8,502.9,191.2,503.3,191.6,503.6z    M681.6,507.8c0-0.6,0.1-1.2,0.8-1.5c16.6,18.7,41.9,24.4,65.5,23.7c1.3-0.7,2.5-1.4,3.8-2.1c0.3,0.1,0.8,0.3,1.3,0.4   c2.1-1.6,4.3-3.3,6.5-5c0.1-0.5,0.3-1.2,0.3-1.9c3.3-1,3.4-4.3,5.8-6.2c-0.7-0.3-1-0.4-1.5-0.6c0.6-0.9,1.1-1.7,1.5-2.4   c-0.2-2.4-0.8-4.6,0.1-6.5c-0.6-1.4-1.1-2.7-1.7-4c7.4-9.5,4.5-20.5-6.2-25.2c-1.6-5.1-22-8.4-27.4-8.1   c-12.2-1.1-24.6,1.6-36.1,5.8c-0.7-0.1-1.3-0.1-1.5-0.9c3.3-2.3,6.5-2.7,10.1-4.6c-14.5-2.2-24.4-13.6-34.9-23   c-30.7-10.1-69,6.4-60.7,43.4c5.3,4,11.2-1.4,16.7-2c-0.8,2.1-3.2,2.7-4,4.3c0.2,1,1.9,1,1.6,2.5c-1.6-0.1-3-0.8-4.1-1.7   c-3.1,1.3-5.9-1.4-9,0.1c8.4,39.5,35.6,31.9,61.3,15.9c-3.6-1.2-7.3-2.1-10.6-4c0.2-0.4,0.3-0.9,0.4-1.5c7.6,1.9,14.7,4.4,22.2,6.6   C681.8,508.7,681.7,508.3,681.6,507.8z M779.1,519.4c11-14.8-1.5-49.5-21.1-48.4c27,17.9,19.8,50.1-7.9,62.3   c5.6-0.2,10.1-1.5,15.6-0.9C771,529,775.8,525.1,779.1,519.4z M507.1,382c10.6,31.9,77.9,47.8,107.2,37.4c0,0.5,0.1,0.9,0.1,1.3   c-1.8,0.9-3.5,1.7-5.3,2.7c16.7,4,34.6,3,51.7,5.1c-5.2-9.9-5.3-21.5-9.6-31.5c-20.3-24.3-56.5-9-83.5-17.3   c-9.2-3.6-20.9-4-28.2-10.8c-12.5-24-29.4-46.6-27.6-75c-0.7-0.1-1.2-0.2-1.8-0.3c-0.3-2-4.5-0.5-3-2.7c9.4,3.4,9.6-6.9,16.8-8.6   c6.5-2,5.5-10.9,8.4-16.1c-2.1-2.4-4.3-4.9-7.5-6.4c-4.1,7.9,1.5,5.9,1.6,10.8c-0.7,0-1.4,0-2.2,0c-0.7,1.2-1.5,2.4-2.1,3.4   c-1.9,0.3-3.6,0.6-5.3,0.9c-0.3-3.1-0.4-3.1-3.2-3.5c-1.2,0.7-2.4,1.4-3.5,2.1c-1.5-0.5-2.6-1-3.6-2.2c-1.2,0.9-2.3,1.5-3.2,2.1   c-2.9-0.2-4.7-1.5-5.5-4c-4.1,0.7-6.3-3.9-10.3-2.7c-2.1,18.8,4,37.8,3.9,56.8C491.4,344.1,495.6,364.3,507.1,382z M409.1,472.1   c0.3,0.3,0.5,0.5,0.8,0.8c-12.1,15.9-24.6,32.4-43.7,40c-35,4-69,35-104.6,22.2c-36.5-5.8-10.8-14.3-58.1-10.1   c-10.9,0.2-20.7-4.7-31.2-6.8c-18.2-4.9-24.6,13.7-11,24.4c11.1,7.9,25.3,10.6,35.6,20c41,30.1,89.9,21.1,136.4,13.4   c17.9-3.2,36.5-3.3,53.4-10.2c11.1-5.2,22.4-8.9,33.7-13.8c6-17.7,2.2-37.3,4.7-55.6c0.8-30.2,11.9-67.5-9.8-92.7   c-57.8-6-93.8,45.9-139,71.4c2.7,7.6,2.7,7.6,2.2,9.5c-3.3-2.4-2.5-9.4-6.8-10.5c0.3,0.7,0.5,1.3,0.7,1.9c-0.4,1.8-0.4,2.7-2.4,3.7   c-0.9-3,0.2-5.4,0.7-7.9c-18.6-16.1-51.7-3.6-73.6,0.3c-17.3,2.5-33.9,3.9-25.1,26.6c16.9,1.1,33.5,3.9,46,16.6   c5.2,5.3,12.3,6.8,19.2,8.8c9,6.2,12.1,7.8,23.3,9.2c27.8,8.2,53.1-8.2,78.7-16C375.2,509.9,386.4,499.8,409.1,472.1z M67.9,507.1   c-5.2,26.8,45.4,30.7,63.5,31.1c-0.5-8.4-1.7-19.4,6.5-25c0.8-0.6,1.5-0.2,2,0.9c-5.7,7.6-7,16.7-4.8,25.8c5,2.4,8.4,6.6,14.5,5.1   c-15.1-5.5-7.6-26.3,2.1-31.8c19.1-6,24.6,5.9,42,8.3c0.8-6.5-1.5-12.7-6.3-17.2c-12.2,3.9-25.6,2.8-35.6-5.4   c-12.3,3.1-16,7.3-28.2-1.8c-5.2-5.9-13.1-4.6-19.6-7.6C90.6,482.6,68.9,490.5,67.9,507.1z M656.7,525.2c5.2-4,13.1-8.3,15.4-14.3   c-31.3,19.3-57.2,23.4-67-19.4c-9.3-42.7,25.9-53.9,60.9-49.4c-1.6-3.9-2.4-8.2-4.2-11.9c-11.9-1.1-23.6-0.3-35.4-1.1   c-16.9-2.9-34-7-51.4-3.8c-22.5,1.4-45.4,12.5-67.9,6.6c-8.2-3.5-19.7-3.4-25.8-10.4c-20.8-6.7-39.7-17.6-62.1-17.8   c23.6,26.5,4.7,110.8,4.7,147.8c24.6,2.6,46.4-11.4,70.5-11.1c24.4,1.7,47.7,11.7,72.2,14c15.9,10,38.6,8.2,55.5,1.5   C634.7,546.9,643.9,533.9,656.7,525.2z M147.3,496.8c-7.4-3.6-13.1-4.2-24.7-3.3C129.6,498.5,139.7,502.5,147.3,496.8z    M186.3,501.6c-6.7,0.4-14.3-2.1-20.4,0.2C171,504.5,181.5,505.1,186.3,501.6z M816.5,479.1c0.3-1,0.6-1.9,0.9-2.7   c-0.9-0.3-1,0.4-1.5,0.6c-0.6,0.3-1.3,0.5-2.1,0.9c0.4,0.9,0.8,1.5,1,2.1C815.4,479.5,815.8,479.3,816.5,479.1z M760.6,444.4   c-1.1,1.5,1.2,3.9,2.2,2.1C762.1,445.8,761.3,445.1,760.6,444.4z M788.6,451.9c0.3-1.2,0.7-2.1-0.8-2.5   C787.2,450.5,787.4,451.2,788.6,451.9z M789.1,456.2c1.9-0.1,1.2-1.3,0-2.4C789.1,455,789.1,455.6,789.1,456.2z M828.6,526.5   c0.3-1,0.1-2.6-1-1.8C827.2,525.6,827.6,525.8,828.6,526.5z M793.9,441.8c-0.3,0.6-0.9,1.2,0.1,1.6   C795.2,443.4,795.2,441.7,793.9,441.8z M712.7,464.2c0.3-0.5,0.5-0.8,0.9-1.4c-0.8,0-1.3,0.1-2.1,0.1   C712,463.5,712.4,463.8,712.7,464.2z M743.8,439c0.5,0.2,0.9,0.3,1.2,0.5C745.3,438.8,744.6,438.3,743.8,439z" />
	<path fill="#141515" d="M569.3,256.9c1-0.4,0.5-1.5,0.7-2.2c2.2,10.2-0.9,22-4.2,31.8c-0.3-0.5-0.5-1.1-0.8-1.6   C567.6,275.7,569.6,266.4,569.3,256.9z" />
	<path fill="#171618" d="M453.4,242.6c0.3,0.7-0.3,1.7,0.7,2.1c-2,8.2-3.2,16.4-2.7,25.1c-2.1-2.1,0.7-6.5-1.5-8.6   C450.4,254.9,451.3,248.4,453.4,242.6z" />
	<path fill="#E2E7E7" d="M826.9,470c-0.5,1.3-0.6,2.7-0.2,4c-0.8,0.9-1.6,1-2.7,0.7c0.9-2.1,0.5-4.4,2.1-6.1   C826.1,469.2,826.2,469.8,826.9,470z" />
	<path fill="#CACCCC" d="M816.6,460c-0.2-1.2-0.4-2.4-0.6-3.6c0.8-0.2,0.5-1.5,1.5-1.4c-1.2,1.8,1.6,3.3-0.2,4.9   C817.2,460,816.9,460,816.6,460z" />
	<path fill="#585C5C" d="M821,540c-0.9,1.5-0.7,3.3-0.8,5.1c-0.4,0.3-0.9,0.5-1.3,0.8c0.1-1.8,0.8-4.8,1.4-5.8   C820.5,540.1,820.8,540.1,821,540z" />
	<path fill="#FDFEFE" d="M833.2,504.4c-0.3,0.2-0.4,0.3-0.8,0.6c-1.3-1.8-0.3-3,0.7-4.3C833.1,501.9,833.2,503.1,833.2,504.4z" />
	<path fill="#403E3E" d="M803.2,443.6c0,1.5,0,2,0.3,4c-1.2-1.3-1.5-2.4-1.8-3.3C802.2,443.9,802.7,443.8,803.2,443.6z" />
	<path fill="#A89E9E" d="M765.9,434.2c0.3,0.7,0.6,1.4,0.9,2.1c-0.2,0-0.3,0.1-0.3,0.3c-0.7-0.8-1.4-1.5-2.1-2.2   C764.9,434.2,765.4,434.2,765.9,434.2z" />
	<path fill="#EAA388" d="M273.3,474.9c2.6,2.7,2.3,7.1,5.2,9.5c0.6-1.8,0.6-1.8-2.2-9.5c45.3-25.4,81.2-77.3,139-71.4   c24.8,27.6,7,87.2,8.2,122.9c-2.8,3.3,2.9,14.1-4.5,12.7c-1.5-1.8-0.8-3.9-2.4-5.4c-1.8,1.1,0,4.3-0.2,6.2   c-24.5,9.5-48.6,21.9-75,26.4c-27.1,2.6-53.8,8-80.8,9.3c-9.8-5.3-20.3-12.4-30.7-14.6c-1.5,4.6,5.4,6.1,5.8,10.1   c-10-0.2-19.1-5.5-26.2-12.4c-17.1-10.2-35.6-18.3-54.4-24.6c-6.6-31.5,33.3-8.6,48.4-9.5c14.9,0.3,17.9-2.7,31.9,6.8   c9.6,5.2,21.6,5.8,32.2,8.4c20.4,5.6,39.6-5.2,58.2-12c41.3-12.1,62-22.3,86.8-58.7c-1.5-6-8.8,1.6-11.1,3.6   c-20.2,16.7-47.1,23.4-70,36.1c-15.3,6.7-30.9,12.8-46.8,17.9c-1.9,0.6-3.8,1.3-5.8,0.2c-3.9-0.5-8.2,0.6-12-1   c-2.6-1.8-6.9-8.8-10-5c0.2,1.2,1.3,2.4-0.2,3.7c-7.6-4.1-12.8-12.5-21-15.5c-0.3,3.9,1.8,6.8,3.3,10.1c-2.8,0-4.1-1.8-5.6-3.4   c0.5-0.4,0.9-0.9,1.3-1.2c-6.2-10-19.3-14.1-29.4-19.1c-11.2-4.1-23.8-0.4-35-3.7c-4.8-18,14.8-18,26.8-20.4   c22.2-3.9,54.5-16.4,73.6-0.3c-0.4,2.5-1.5,4.8-0.7,7.9c2-1,2-1.9,2.4-3.7C272.7,475.5,273,475.2,273.3,474.9z M395.9,508.8   c2.3,5,16.6,21.3,20.4,23.3c-4.6-7.6-12.5-13-17.2-20.7C398.3,510.2,397.4,508.8,395.9,508.8z M410.5,499.1   c4.7,0.7,8.5,0.3,10.6-1.3C417.6,498.1,412.7,496.7,410.5,499.1z M265.5,479.1c1.3-0.6,3.1-6.1,1.5-7   C265.6,475,265.2,476.6,265.5,479.1z M388.4,504.3c1.8,1.5,2.9,2.7,5,2.7C391.4,504.8,391.4,504.8,388.4,504.3z M403.4,499.7   c1,0.6,2.1,0.7,3.2,0C405,498.2,404.4,498.2,403.4,499.7z M273.5,484.9c1-0.9,1-0.9-0.2-2.5C272.7,483.3,272.9,484,273.5,484.9z    M386.2,503.1c0.6,0.9,1,1.6,2.1,0.9C387.9,503.1,387.4,502.7,386.2,503.1z" />
	<path fill="#F5DDCE" d="M427.6,551.5c-1.2,0-2.3,0-3.8,0c0-37,18.9-121.4-4.7-147.8c22.4,0.2,41.2,11.1,62.1,17.8   c6.2,7,17.6,6.9,25.8,10.4c22.5,5.9,45.4-5.2,67.9-6.6c17.4-3.2,34.4,0.9,51.4,3.8c11.8,0.8,23.5,0.1,35.4,1.1   c1.9,3.8,2.6,8.1,4.2,11.9c-27.1-4.2-63,3.3-63.1,37.4c-4.3,0-8.3,0-12.3,0c-11.5-4.6-13.8-6.8-18.6-18.8c-3.6-9,1.9-18.5,3-27.4   c-4.4-1.5-8.3,3.3-9.1,7l0,0c-13.2,31.3,3.2,58.8,39.2,51.3c9.8,42.8,35.7,38.6,67,19.4c-4.7,10-17.6,14.2-26.4,20.4   c-12.1,8.2-24,18.9-39.3,19c-27.7,7.5-45.3-11.9-34.3-36.4l0.2-0.1l-0.2,0.1c0.9-1.9,1.6-3.8,2.6-5.8c-9.3,1.6-11.2,12-12.8,19.8   c-33-2.1-65.9-7-98.6,0.6c-9.5,4.9-18.5,13-30.1,13.9c-2.2,0.3-4.1,2.3-5.6,4C427.6,548.1,427.6,549.7,427.6,551.5z" />
	<path fill="#B28C7D" d="M492.6,267.7c1.5,0.9,3.1,1.8,5.1,1.5c0.8,2.7,2.6,4,5.5,4c0.9-0.6,2-1.3,3.2-2.1c1,1.2,2,1.7,3.6,2.2   c1.1-0.7,2.3-1.4,3.5-2.1c2.7,0.4,2.8,0.5,3.2,3.5c1.7-0.3,3.3-0.5,5.3-0.9c0.6-1,1.4-2.2,2.1-3.4c0.8,0,1.5,0,2.2,0   c3.7-4-3.6-7.2-1.6-10.8c3.3,1.5,5.3,4,7.5,6.4c-7.6,25.1-4.5,7.9-17.3,23.8c-1.5-1.9-0.6-4.1-3.7-3.6c-3.2,0.3-5.8-1.4-8.9-1.5   c-0.9,0.9-1.7,1.8-2.4,2.5c0,2.5,0,2.5,1.3,4.8c-0.2-0.1-0.3-0.1-0.5-0.1c-0.3,0.3-0.6,0.4-0.9,0.7c0.3,2.9-0.8,5.5,1.3,8.1   c1.6-3.1,0.2-5.6,1.1-8.9c2.9,2.6,6.1,0.9,9.4,1.7c-1.8,28.4,15.1,51,27.6,75c7.3,6.8,19,7.2,28.2,10.8c27.1,8.3,63.3-7,83.5,17.3   c4.3,10.1,4.5,21.6,9.6,31.5c-17.1-2.1-35-1-51.7-5.1c2.6-1.6,5.8-2.1,7.9-4.3c-17.2-4.1-38.3-0.5-54.4-9c2.7,0,5.1,0,7.6,0   c2.1-1.6,4.2,0.2,6.4,0.7c5.8-2.1,13.2,0.5,18.4-3.2c-13.4-2.6-27.7-3.1-41.4-3.9c-0.5-0.5-1-0.9-1.5-1.4   c-11.1,0.3-30.1-2.4-36.4-12.7c2.3,0.6,4.2,1,6.1,1.5c0.9-0.9,1.8-1.2,3-1.3c-2.2-5-8-5.7-11-10   C494.4,352.5,489.7,300.2,492.6,267.7z M503.1,307.7c-1.3,0.8-0.5,5.4,1.1,3.7C504.2,310.2,504.5,308.8,503.1,307.7z M498.8,286.3   c0.3-1.3-0.1-2.1-1.2-2.9C496.9,285.2,496.9,285.2,498.8,286.3z M502.6,306.2c0.3-1.9,0.3-1.9-0.3-3.3   C501.1,303.9,501.7,304.8,502.6,306.2z M506.3,315c-1.2-0.2-1.5,0-1,1.1C505.6,315.7,505.9,315.5,506.3,315z M583.5,412   c0.2-0.1,0.4-0.2,0.6-0.3c-0.3-0.5-0.5-0.4-0.9-0.2C583.2,411.7,583.3,411.9,583.5,412z" />
	<path fill="#B28C7D" d="M606.5,481.4c-1.6-33,35.1-44.4,61.7-35.6c10.5,9.4,20.4,20.8,34.9,23c-8.1,3.5-16.6,6.2-22.3,13.2   c-7.1,1.4-11.2,8.8-14.9,14.4c-2.1,1-4.7,0.1-7,0c-4,2-10.3,1.3-13,4.9c0.4,1.2,1.3,1.5,2.3,1.4c4.7,0.3,9.9,0.9,14,3   c0.2,0.4,0.3,0.8,0.4,1.1c-4.1,3.9-10.8,6.1-13.3,10.9c-23.3,11.5-35.6-3.8-40.7-25.4c3.1-1.4,5.9,1.2,9-0.1   c1.1,0.9,2.5,1.6,4.1,1.7c0.3-1.5-1.5-1.5-1.6-2.5c0.9-1.7,3.3-2.3,4-4.3c0.5-2.7,3.7-0.5,5.1-4.4c2.5-0.5,3.5-2.3,4.2-4.6   C628.4,474.9,617.6,483.8,606.5,481.4z M642.7,453.7c-1,3.3-2.6,5.7-2.7,8.8C641.3,461.7,645,456.7,642.7,453.7z M663.4,465.9   c-0.9-1-5.4,0.7-4.1,1.8C660.7,467.2,662.2,467.2,663.4,465.9z M624.8,498.9c0.9-2.1-1.5-4.8-2.3-2.7   C623.1,497,623.8,497.7,624.8,498.9z M644.7,450.3c1.3-1.5,1.3-2,0.1-3.1C644.3,448.8,644.3,448.8,644.7,450.3z M672.8,464.1   c-0.9-1.3-0.9-1.3-3.9,0C670.4,464.6,671.6,464.5,672.8,464.1z M655.1,468.7c1.1,1.1,2.6,0.4,2.6-0.8   C656.7,467.6,655.9,467.6,655.1,468.7z" />
	<path fill="#B28C7D" d="M694.4,474.3c19.2-7.6,40.9-8.5,60.1-0.9c0.5,1.7,1.3,3.1,3.3,3.1c10.7,4.8,13.6,15.8,6.2,25.2   c0.6,1.4,1.1,2.7,1.7,4c-0.9,2-0.2,4.1-0.1,6.5c-0.4,0.6-0.9,1.5-1.5,2.4c0.4,0.2,0.8,0.3,1.5,0.6c-2.4,2-2.6,5.2-5.8,6.2   c-0.2,0.7-0.3,1.4-0.3,1.9c-2.2,1.7-4.4,3.3-6.5,5c-0.4-0.2-0.9-0.3-1.3-0.4c-1.3,0.7-2.5,1.4-3.8,2.1c-0.7-0.3-1.4-0.5-2-0.8   C716.9,536.4,646.9,501.3,694.4,474.3z M730.2,487.9c-0.5,0.9-2.1,1.1-1.6,2.6c3.3-1.6,7.6-4.7,7.3-9.1c0.3-0.5,0.8-1,1.2-1.6   c0.2,1,0.4,2,0.7,3.4c3.4-4-1.4-7.1-4.1-9.9c-2.5,0.7-2.2,3.6-0.7,5.2c-0.5,0.1-1.1,0-1.3,0.8c-3.3,2.7-3.5,3.5-1.5,7   C729.2,487.1,729.2,487.1,730.2,487.9z M703,484.3c-0.3-0.5-0.5-0.9-0.8-1.5c0.4-1,2-3.4-0.3-3.2c-0.3,0.8-0.7,1.6-1.1,2.5   c-12.9-4.2-16.9,23.9-3.6,24.1c-0.4,4.3,3.8,4.1,2.2,0.2c0.9-1.4,2.1-2.5,2.1-4.3l0,0c1.2-0.3,0.4-1.3,0.8-2.1c1-0.2,0.9-4.1,0-4.3   C702.4,492,705.3,488,703,484.3z M728.2,509.5c-0.1,0.2-0.2,0.3-0.2,0.5c-3.6,0.7-3.1,5.8-0.6,7.1c-1.9-0.1-1.9,2.6,0.1,2.3   c-1.3,1.6-0.8,5.2,1.5,5.6c0-0.6,0.1-1.1,0.1-1.8c3-1.3,6.7-2.3,6.2-6.4c0-0.5-0.3-0.9-1-0.8c-0.4,1.5-1.2,4.9-3.3,4   c2.7-4.5,1.1-13.5-4.1-14.9c0.6,0.9,0.9,1.5,1.3,2.1C726.3,507.6,726.4,509.6,728.2,509.5z M708.8,499.2c-0.5-0.7-0.9-1.4-1.6-2.2   c-0.4,1.5-0.4,1.5,0.7,3.2c-0.1,1.4-0.2,2.7,0.2,4.1c-1,0.5-1,1.1-0.3,1.9c2.9,0.5,2.9,0.5,4.6-1.2c-1.7,0.2-3.3,0.9-4.3-0.8   C711.4,503.4,710.1,501.1,708.8,499.2z M725.2,492.8c2.3,1.4,4.8,2.4,7.1,0.2c-3.3,0-4.9-1-8.1-1.9   C724.7,491.9,724.9,492.4,725.2,492.8c-0.9-0.1-2.1-1.1-2.7-0.2c0.3,1.1,1.2,1.5,2.5,1.5C725,493.7,725.1,493.2,725.2,492.8z    M708,492.8c2.1,0.1,2.7-1.5,3.6-2.8c-0.2-0.9-0.4-1.6-0.6-2.4c2-0.7,2.7,1.1,4.1,1.8c1.3-2.4-2.7-4.7-4.6-3.3   c-1.6,0.5-1.2,2-1.1,3.9C709.2,491.2,707.8,491.6,708,492.8c-0.7,0.5-1.8,0.5-2,2C707.6,495.1,707.6,493.9,708,492.8z M738.6,494.7   c3.9-0.8,6.6-10.6,7.7-14.2c0.5-1.6-2-9-4-7.2C747.6,482,737.5,487.2,738.6,494.7z M735.7,505.9c2.7,6.6,4.4,12.5,1.2,19.3   c0.5,0.3,0.9,0.4,1.2,0.6c6.1-6.8,2.5-11.9,0.9-19.4c-0.2-1-0.6-2.5-2-2.6C736.6,504.4,736.3,505,735.7,505.9z M727.8,482.8   c0.4-1.4,2.1-3.2-0.1-3.4C727.3,480.4,726,481.3,727.8,482.8z M724.2,510.4c-0.7,1.1-0.9,2.3-0.2,3.7   C724.8,512.7,724.6,511.6,724.2,510.4z M735.4,487.2c2.1-0.4,2.2-0.9,1.5-2.1C736.5,485.7,736.2,486.1,735.4,487.2z" />
	<path fill="#E6CCBB" d="M427.6,551.5c0-1.6,0-3.3,0-5.2c1.5-1.6,3.3-3.7,5.6-4c11.4-0.9,20.5-9,30.1-13.9   c32.6-7.6,65.6-2.6,98.6-0.6c1.5-7.8,3.4-18.2,12.8-19.8c-0.9,2.1-1.7,4-2.6,5.8c-2.8,0.8,0.8,2.6,0,0   c-10.9,24.6,6.8,43.9,34.3,36.4c20.2,0.2,33-18.2,50.3-25c-14.6,9.1-23.6,26.2-39.5,32.7c-16.1,4-36.1,6-50.6-3.5   c-24.5-2.3-47.7-12.3-72.2-14C471.5,539.7,451,553.3,427.6,551.5z M563.9,548.4c1.3-1.7,1.5-1.6,1.3-3.2   c-1.1-5.2-0.2-10.1,0.3-15.3C560.2,533.9,561.4,543.2,563.9,548.4z M567.6,518.7c-2.2,2.8-2.4,3.4-1.4,5.5   C567.9,522.7,569.2,520.6,567.6,518.7z" />
	<path fill="#F7EFD0" d="M82.9,466.3c0.3-24,33.3-28.4,51.9-25.2c11.2,1.3,17.2,13.1,28.3,14.9c13.6,3.3,34.8-4,42.2,11.4   c-10.6,2.3-21.9,4.6-32.6,3.9c-10.6-2.7-18.5,12.5-15.9,21.5c-0.2,0.3-0.4,0.4-0.5,0.5c-2.3-1.4-4-2.2-5.9-4   c-0.2-7.8,5.9-13.8,11.9-18.2c-2.9-2.4-4.7,2.7-7.2,4c-0.2-0.3-0.4-0.4-0.6-0.7c1.4-1.9,4.1-6.9-0.5-5.4   c-4.8,5.2-6.4,12.8-6.5,19.8c-0.5-0.2-1-0.3-1.5-0.4c-0.8-7.6,1.5-14.7,4.9-21.3c-3.8-9.4-9.6,17.2-8.5,20.4c-0.9,0-1.9,0-2.9,0   c-1-7.6,2.7-15,4.9-21.9c-3.9-7.4-6.3,9.4-7.8,11.9c-1.6,2.5-0.3,6-0.8,9.2C117.5,483.8,96.7,479.2,82.9,466.3z M131.1,484.6   c3.3-5.3,1.5-12.9,5.9-18.3C135.5,455.4,126.6,479.8,131.1,484.6z M124.9,479.8c1.4-4.1,1.5-8.8,3.9-12.6c0.5-0.8,0-2-0.7-2.4   C124.2,463.8,120.6,480.2,124.9,479.8z" />
	<path fill="#F7EFD0" d="M135.1,537.2c-3.1-7.8,0.5-16.6,4.9-23.1c-0.4-1.1-1.2-1.5-2-0.9c-7.6,4.9-6.5,14.2-7.1,21.9   c-6.9-1.1,3.5-18-1.8-19.9c-4,2.4-3.4,13.4-4.3,17.7c-6.5-4,3.9-16.4-1.4-18.4c-3.2,0.9-2.8,5.2-4,7.7c-1.6,2.3-0.3,6-0.7,8.9   c-1.5-0.3-2.9,0.1-3.7-1.2c0.1-5.2,0.5-10.2,2.1-15c-2-2.5-4.3,0.2-5,2.3c-1.8,3.6,0.3,8.7-0.9,12.7c-11-0.9-23.1-3-31.6-10.6   c-3.7-2.7-6.2-9.1-11.8-7.3c-2.1-14.3,11.2-25.2,24.6-24.7c7.1-1.4,12.6,4,19.6,4.4c10.8,1,18.9,14.9,30.6,10.5   c2.7-2.4,5.9-2.6,9.4-3.3c10,8.3,23.4,9.4,35.6,5.4c4.7,4.5,7,10.6,6.3,17.2c-10.6-0.3-18.7-8.7-28.6-10   c-5.3,1.4-13.1-0.4-16.7,4.3c-5.6,6.5-9.7,15.2-6.1,23.7C140,538.7,137.4,538.6,135.1,537.2z M105.7,528.3   c3.3,0.9,1.4-8.5,3.8-10.6C104,512.6,103.6,525.4,105.7,528.3z" />
	<path fill="#D69479" d="M417.8,537.2c0.3,0.6,0.6,1.2,1,2.1c7.5,1.4,1.6-9.5,4.5-12.7c0.3,8.5,0.5,17.5-3,25.4   c-11.2,4.9-22.6,8.7-33.7,13.8c-16.9,7-35.6,7-53.4,10.2c-23.4,2.8-46.7,8.5-70.2,8.1c-29.3-0.6-55.6-13.1-78.9-29.9   c-10.1-5.8-24-8.1-29.1-19.8c18.8,6.2,37.3,14.3,54.4,24.6c7.1,6.8,16.1,12.1,26.2,12.4c-0.3-4-7.2-5.5-5.8-10.1   c10.4,2.1,20.9,9.2,30.7,14.6c27.1-1.3,53.8-6.8,80.8-9.3c26.4-4.6,50.5-16.9,75-26.4c1,1.2,0.5,3.3,2.7,4.1   C419,541.6,417.4,539.7,417.8,537.2z" />
	<path fill="#D69479" d="M170.3,492.1c11.2,3.3,23.9-0.4,35,3.7c10,5.1,23.2,9.2,29.4,19.1c-0.3,0.3-0.8,0.7-1.3,1.2   c1.5,1.6,2.7,3.4,5.6,3.4c-1.5-3.3-3.6-6.3-3.3-10.1c8.2,3.1,13.4,11.4,21,15.5c1.5-1.4,0.3-2.5,0.2-3.7c3-3.8,7.6,3.1,10,4.9   c4,1.6,8.2,0.5,12,1c2.1,1.1,4,0.4,5.8-0.2c15.9-5.2,31.5-11.2,46.8-17.9c22.8-12.7,49.8-19.4,70-36.1c2.5-2.1,9.4-9.6,11.1-3.6   c-15.9,13.1-26.8,35.6-48.9,41c-30.2,5-56.6,23.7-87.3,24.6c-13.8-0.9-28.1-2.7-39.2-11.3c-6.9-2-14-3.4-19.2-8.8   c-12.5-12.8-29.1-15.5-46-16.6C171.4,496.2,170.2,494.3,170.3,492.1z" />
	<path fill="#B28C7D" d="M768.1,540c3.3-0.4,6-2.7,5.9-6.4c0.9,2.3,0.9,3.6,2.6,5.2c-0.3,0.5-0.4,1-0.9,1.8c1.2,0,2,0,3,0   c1.5,3.6,4.3,6.7,6.2,10c-20.3,8.7-51.7,0.9-73.5-0.7c-23-2.9-46.9-4-69.9-6.3c8.2-12.1,21.9-18,32.3-27.9c3.3,1.9,6.7,3.4,9.1,7   c-6.6,6.6-17.3,8.8-22.8,16.2c10.6,1.5,20-5.9,28.5-11.1c10,8.8,25.3,12.3,37.9,8.7c0.9,2.7,2.9,2,5.2,2.1c-0.1,0.8,0.1,1.5,1,1.4   c11.3-4.4,23.8-1,35.6-1.4c-0.1,0.3-0.2,0.4-0.3,0.7C767.3,539.7,767.5,539.9,768.1,540z" />
	<path fill="#977264" d="M574.2,409.9c-1.5-0.9-2.8-0.9-4.3,0c-0.5-1.4-1.6-2.2-2.7-2.8c-1.9,0.9,0.7,2.1,1.3,2.8c-2,0-4,0-6.2,0   c16.1,8.5,37.3,5,54.4,9c-0.5,1.1-1.7,1.2-2.6,1.7c0-0.3,0-0.7-0.1-1.3c-30.7,10-84.6-3.8-104.3-30.1c0-0.9,0.1-1.8,0.1-2.7   c1-0.2,1.4-0.2,2.1-0.9c-0.8-1.8-1.7-3.3-3.3-4.4c-0.6,0.3-1.1,0.5-1.6,0.8c-16-23.3-15.3-51.4-17.3-78.3   c-0.3-12.5-4.9-24.9-2.4-37.3c2-0.3,3.8-0.2,5.2,1.3c-3,32.5,1.8,84.8,21,112c3,4.4,8.8,5.1,11,10c-1.3,0-2.1,0.4-3,1.3   c-1.8-0.4-3.8-0.9-6.1-1.5c5.6,9.7,20.9,11.2,30.9,12.6c-0.2,0.9,0.1,1.6,1.2,2c0.1-0.5,0.1-0.9,0.2-1.4c1.3,0.2,2.5-0.2,3.7-0.6   c-0.9,1.8,2.3,5,4.1,4.6c-0.1-1.6-1.8-2.1-2.2-3.3c13.7,0.9,27.9,1.3,41.4,3.9c-5.2,3.7-12.5,1.1-18.4,3.2   C576.4,409.2,574.9,407.4,574.2,409.9z M557.3,404.6c-0.6,2.8,1.4,4.1,3.9,4.2C560.5,407.1,560.5,407.1,557.3,404.6z M512.9,383.6   c0,2.2,0,2.2,2,2.5C514.8,384.9,514.1,384.3,512.9,383.6z" />
	<path fill="#977264" d="M641.5,543.7c22.9,2.2,46.8,3.3,69.9,6.3c21.8,1.5,53.3,9.4,73.5,0.7c-0.6-1.9-2.1-3.2-3.3-4.7   c1.1,0.1,1.5-0.9,2.3-1.6c0.9,0.8,1.6,1.5,2.4,2.2c0.9-0.2,1.9-0.3,3-0.5c1.3,1.5,0.3,4,0.3,5.9c1.8,0.6,2.4-0.9,3.6-1.6   c0.5,1.2-0.6,2.2-0.3,3.4c0.3,0.3,0.8,0.7,1.2,1c-8.8,13.8-41.8,3.3-56.8,3.3c-33.7-1.7-67-7.1-100.6-8.1   C638.4,547.7,639.7,545.5,641.5,543.7z" />
	<path fill="#E6CCBB" d="M564.3,445c0.1-1.6-0.3-4.1,1.6-4.8c0.1,0.6,0,1.2,0.9,1.2c1-0.8,1-0.8,1.3-2.2c-0.9,0.4-1.5,0.7-2.2,1   c0.8-3.6,4.7-8.4,9.1-7c-1.1,9-6.6,18.4-3,27.4c4.8,12.1,7.1,14.3,18.6,18.8c4,0,8,0,12.3,0c0.6-2.5-0.9-6.4,0.7-8.7   c0.1,7,0.2,13.8,1.5,20.7c-1.5,0.3-3,0.5-4.6,0.7c0.2-0.6,1.5-0.3,1.1-1.5c-1.8,0.1-3.7-0.6-5.8,0.3c0.6,0.5,1,0.9,1.4,1.3   c-2.9,0-5.9,0-8.8,0c1.2-0.9,3.1,0.3,4.4-1.4c-0.9-1.3-2.4-1.1-3.8-1.4c-12.8-0.1-17.6-9.3-24.3-17.9c-1.1,1.5-0.3,3-0.4,4.4   c-1.2-1.5-0.6-3.3-0.7-5.1c0.3,0,0.7,0,1.2,0c-0.4-4-1.1-8.1-2.2-11.9c-0.4,0-0.8,0-1.1,0c-0.2-2.6-0.2-5.1,0.8-7.5   c0.3,0,0.7,0.1,1.1,0.1c0.8-2,2.1-3.8,2.1-6.1C564.9,445.1,564.6,445,564.3,445z" />
	<path fill="#D59479" d="M366.1,512.9c-16.1,9.4-34.8,11.7-51.6,19.7c-16.4,5.6-28.9,12.4-47.1,7.6c-8.3-0.9-16.1-4.5-24.4-5.2   c-8.5-1.9-15.1-9.1-23.7-10.7c5.6-0.9,12.2-1.4,17.3,1.7C280.8,555.9,321.7,521.3,366.1,512.9z" />
	<path fill="#EBDDB8" d="M139.4,487.1c0.9,0,1.9,0,2.9,0c0.6,1.7,0.3,3.3,2.6,3.8c0.2-2.3,0.4-4,0.9-6.1c0.1,1,0.2,2.1,0.3,3.3   c0.4,0.2,0.9,0.3,1.5,0.4c0.6,1.5,0.9,4.7,3.3,3.7c0.9,1.4,0.9,2.4,1.1,4.2c-22.9-12.8-43.3,0.7-68.9-21.6   c-0.2-2.8-1.1-5.8-0.1-8.7c13.8,13,34.5,17.5,52.9,20c0.5-3.2-0.9-6.7,0.8-9.2c0.4,3.5-1.9,9.2,1.9,11.2   C138.8,488,139.1,487.6,139.4,487.1z" />
	<path fill="#EBDDB8" d="M122.9,527.7c0.3,1.8-0.7,4.7,1.9,5.2c1-3-0.5-6.4,1-9.2c0.8,4.3-2.1,10.3,1.3,13.4c1.3-1,1.2-2.7,1.5-4.3   c0.2,1.4,0.7,2.4,2.2,2.3c0.4,0.9,0.9,1.9,0.6,3.1c-17.9-0.3-68.6-4.2-63.5-31.1c0,1.5,0,3.1,0,4.8c5.6-1.8,8,4.6,11.8,7.3   c8.4,7.6,20.6,9.7,31.6,10.6c1.3-4-0.9-9.1,0.9-12.7c0.8,3.3-1.5,13.4,1.7,14.3c0.3-0.4,0.8-0.9,1.2-1.5c0.8,1.3,2.1,0.9,3.7,1.2   c0.4-2.8-0.9-6.5,0.7-8.9c0.7,4.1-2.2,11.2,2.7,13.1C122.7,532.4,121.9,530.2,122.9,527.7z" />
	<path fill="#4C505E" d="M452.6,252.6c0.5-5.4,1.9-10.8,4.3-15.7c7.4,2.7,15.5,2,22.9,4.3c-2.5,5.8-2.3,12.8-5.6,18   c-6.3-2.2-12.5-3-19.1-3.7C453.1,254.9,453.1,255.2,452.6,252.6z" />
	<path fill="#4C505E" d="M536.3,269.7c0.6-5.3,1.8-11,4.3-15.7c7.2,2.7,15.2,3.8,22.9,4.3c-1.7,5.7-3.2,11.3-4.3,17.2   c-3.9,2.1-8.1-1.9-12.3-1.4c-3.6-0.3-7.2-0.9-10.5-2.5C536.4,270.9,536.3,270.3,536.3,269.7z" />
	<path fill="#9492A0" d="M769.5,517c11.3-16.8,4.2-35.4-11.5-46.1c19.7-1,32.2,33.7,21.1,48.4c-3,0.4-6-1.4-9.3-0.9   C769.7,518,769.6,517.4,769.5,517z" />
	<path fill="#977264" d="M659.3,504.3c-3.8,0.3-7.3-1.9-11.2-1.5c-1,0.1-1.9-0.2-2.3-1.4c2.7-3.6,9-2.9,13-4.9c2.2,0.1,4.8,1,7,0   c3.7-5.6,7.8-13.1,14.9-14.4c-5.9,8.7-4.4,19.1,1.3,27.3c-7.5-2.2-14.7-4.7-22.2-6.6C659.6,503.5,659.5,503.9,659.3,504.3z" />
	<path fill="#977264" d="M675.2,536c-4.8,1.5-9.9,4.2-15,3c5.5-7.4,16.1-9.6,22.8-16.2c-2.3-3.5-5.8-5.1-9.1-7   c1-1.4,2.1-2.8,3.2-4.2c7.7,0.3,13.5,5.2,19.8,9.6c-6,0.8-8.8,5.1-13.1,8.4c-1.5,1.4-4.2,1.2-5.2,3.3c0.3,0.3,0.5,0.5,0.8,0.8   c-0.9,0.4-1.9,0.9-2.8,1.3c-1.3-0.9-1.3-0.9-2.8,0.4C674.3,535.7,674.8,535.8,675.2,536z M668.2,535.7c-0.5,0.4-1.1,0.7-0.6,1.2   C668.5,536.9,668.6,536.7,668.2,535.7z" />
	<path fill="#4B4F5D" d="M479.2,259.7c-0.2-0.1-0.3-0.1-0.5-0.2c0,1.4,0,2.7,0,4.3c1,0.5,2.1,1,3.3,1.7c-1.4,3.4-1.5,7.2-4.4,9.8   c-5.4-1.4,1.7-34.3,6.4-36.8c3,1.2,1.5,6.9,1.2,10c-1.2,0.3-2.4,0.5-3.8,0.9c-0.5,1.2-0.9,2.3-1.6,4c3.6-4,4.3-2.7,9-1.7   c-0.6,2.9-0.5,5.6-1.5,8.2C482.7,258.8,483.3,258.7,479.2,259.7z" />
	<path fill="#4B4F5D" d="M569.3,256.9c-0.8,11.4-0.7,26.7-8.8,35.2c-2.5-11.2,0.9-27.6,7.2-37.2C569,255,569.2,256,569.3,256.9z" />
	<path fill="#977264" d="M606.5,481.4c11.2,2.4,21.7-6.5,27.1-3.1c-0.7,2.1-1.7,4-4.2,4.6c-0.3-0.1-0.7-0.3-1.1-0.4   c-0.6,1-2,1.6-1.7,3.2c-1.9,0.2-1.9,0.2-2.3,1.6c-5.5,0.6-11.4,6-16.7,2C607.1,486.8,606.2,484.2,606.5,481.4z" />
	<path fill="#373A46" d="M451.2,269.8c0-2.7,0-5.2,0-7.9c7.3,3.2,15.5,2.8,22.8,5.8c0,2.2,0,4.5,0,7   C466.5,273.8,458.3,272.6,451.2,269.8z" />
	<path fill="#373A46" d="M557.8,285.5c0.1,1.8,0.1,3.5,0.2,5.5c-7.5-0.9-16.2-1.5-23-5.2c0-1.9,0-4,0-6.1   C542.8,280.4,551.3,280.8,557.8,285.5z" />
	<path fill="#967264" d="M722.3,537.9c-12,0.1-24.5-1.1-33.7-10c1.1-2.1,3.6-2.5,5.6-3.8c1.2,0.9,2.4,1.6,4,2.7   c-1.5,0.3-2.5,0.3-3.4,0.5c2.2,0.3,4.4,0.8,6.5,2c-1.4,4.6,3.3,1.8,5.7,2.1c1.5,0.2,1.7-1.5,2.1-2.6c1.5,0.3,0.6,1.5,1.5,2.3   c2.4,1.3,2.4,1.3,5.5-0.5c0.5,0.9,1,1.7,1.5,2.5c-0.4,0.8-0.9,1.5-1.5,2.3C718.7,536.1,721.5,535,722.3,537.9z" />
	<path fill="#B08B7C" d="M161.6,494.3c-6.1-4.6-1-13.6,2.3-18.5c3.1-3.5,7.8-3,11.9-2.1c-8.8,6.3-10,11.2-8.9,21.4   C165.1,494.8,163.4,494.5,161.6,494.3z" />
	<path fill="#908993" d="M769.5,517c0.1,0.4,0.3,0.9,0.3,1.5c3.3-0.4,6.2,1.4,9.3,0.9c-3.2,5.7-8,9.5-13.4,12.9   c-5.5-0.5-10,0.8-15.6,0.9C757.9,529.8,764.8,524.4,769.5,517z" />
	<path fill="#AF8A7B" d="M146.6,522.2c2.3-2.6,3.5-7,7.2-7.7c5.8,0,13.5-3.2,18,1.4c-12.6-0.5-21.6,1.7-21.8,16.2   C144.5,531,145.9,526.2,146.6,522.2z" />
	<path fill="#373A46" d="M563.5,258.4c-7.6-0.5-15.7-1.7-22.9-4.3c0.3-1.5,0.9-2.9,2.3-4c7.2,1.4,14.5,2.8,21.8,4.2   C565.2,256.1,564.1,257.1,563.5,258.4z" />
	<path fill="#B08B7C" d="M508.4,260.5c1.5-6.4,5.1-16.5,13-9.7c-3,4-3.2,9.2-5.8,13.3C513.8,261.9,511.2,260.8,508.4,260.5z" />
	<path fill="#AF8A7B" d="M498.4,260.3c1-3.4,2.1-6.8,3.2-10.2c2.3-3.3,9.4-3.7,8.4,1.5c-0.5,3.2-2.5,5.8-3.5,8.8   c-1.9-0.2-4,0.4-5.8-0.3c-1-1.2-1.3,0.3-1.9,0.5C498.6,260.7,498.5,260.5,498.4,260.3z" />
	<path fill="#F7F8F8" d="M147.3,496.8c-7.6,5.8-17.8,1.7-24.7-3.3C134.3,492.5,140,493.1,147.3,496.8z" />
	<path fill="#373A46" d="M536.3,269.7c0.1,0.6,0.1,1.2,0.2,2c3.3,1.6,6.9,2.1,10.5,2.5c4.2-0.6,8.3,3.4,12.3,1.4   c-0.7,3-0.1,6.7-1.4,9.4c0-1.3,0-2.6,0-3.9c-7-3.5-14.7-2.6-21.8-5.2c-0.4,0.7-0.8,1.3-1.1,1.8c-0.3-2.1,0.9-4,0.7-6.1   C535.7,270.8,535.7,270.1,536.3,269.7z" />
	<path fill="#373A46" d="M452.6,252.6c0.3,2.6,0.4,2.4,2.6,2.9c6.6,0.6,12.8,1.5,19.1,3.7c0.4-0.5,0.9-1,1.3-1.5   c-0.9,2.6-0.2,5.7-1.4,8c-0.1-0.6-0.1-1.2-0.2-1.8c-6.9-3.7-15.1-4-22.7-4.7C452.2,257,451.5,254.5,452.6,252.6z" />
	<path fill="#4C505E" d="M451.3,259.1c7.6,0.7,15.7,1,22.7,4.7c0.2,1.3,0.2,2.5,0.1,3.9c-7.4-2.9-15.5-2.6-22.8-5.8   C451.3,260.9,451.3,260,451.3,259.1z" />
	<path fill="#363A46" d="M479.8,241.2c-7.4-2.3-15.5-1.6-22.9-4.3c0.3-1.3,0.8-2.5,2-3.5c7.4,1.5,14.8,2.9,22.4,4.5   C480.8,239.1,481,240.4,479.8,241.2z" />
	<path fill="#967163" d="M501.3,292.1c-1.3-2.3-1.3-2.3-1.3-4.8c0.7-0.7,1.5-1.5,2.4-2.5c3.1,0.1,5.8,1.7,8.9,1.5   c3.1-0.5,2.2,1.6,3.7,3.6c-2.5,1.7-5.2,1.7-8.1,0.9c-1.5,2.1,2.7,0.7,3,2.7c-2.7-0.1-5.2,0.7-7.6-1.5c-0.2,1-0.3,1.7-0.3,2.3   C501.7,293.5,501.5,292.8,501.3,292.1z" />
	<path fill="#AF8A7B" d="M491.4,263.3c-3.9-5.9-0.5-18.4,7.8-12.4c-0.4,2.9-1,5.6-2.3,8.1c-0.6,0.3-0.6,0.9-0.5,1.5l0,0   c-1.5,0.4-3.3-1.9-4.3-0.1c0.3,0.3,0.4,0.5,0.7,0.8C492.3,262,491.9,262.6,491.4,263.3z" />
	<path fill="#080706" d="M151.5,493.8c-0.3-0.5-0.5-1-0.9-1.5c-7.6,0.9-0.4-26.5,5.5-23.3c1.5,2.7-2.6,5.5-3.3,8.2   c-0.8,3.9-2.1,8.2-2.5,12c0.8,0.6,1.4,1.1,2,1.5c0.1,0.4,0.1,0.9,0.2,1.4C151.5,492.4,151.6,493.1,151.5,493.8z" />
	<path fill="#AF8A7B" d="M519.2,260.3c0.5-4.3,2.7-7.6,5.9-10.4c4.3,1.5,4.3,1.5,6.2,3.5c0.3,3.9,0.3,3.9-1.6,6.2   c-3.9-2.7-6.4-5-7.6,1.5C520.7,262,519.6,262.5,519.2,260.3z" />
	<path fill="#957063" d="M649.4,517.9c2.5-4.8,9.2-7,13.3-10.9c-0.1-0.3-0.3-0.7-0.4-1.1c2.6,0.9,5.1,1.6,7.7,2.5   C667.2,511.8,657.7,515.2,649.4,517.9z" />
	<path fill="#947264" d="M768.3,538.7c-9.1-0.1-18.2-1.1-27.4-0.8c3.9-5.7,11.2-1.2,16.7-2.3c2.5,0,5.2-1,7.7-0.3   c1.4,0.7,2.7,0.7,4.2-0.1C769.7,536.7,769.8,538,768.3,538.7z" />
	<path fill="#0D0908" d="M681.6,507.8c-10.4-11.6-2.7-30.1,11.3-34.3c0.3,0.8,0.9,0.8,1.5,0.9c-12.8,5.2-21,19.8-12.1,32.1   C681.6,506.6,681.6,507.1,681.6,507.8z" />
	<path fill="#4B4F5D" d="M535,277.7c0.3-0.6,0.7-1.1,1.1-1.8c7.1,2.7,14.9,1.7,21.8,5.2c0,1.5,0.1,3-0.1,4.5   c-6.5-4.7-15-5.1-22.8-5.8C535,279.1,535,278.4,535,277.7z" />
	<path fill="#947062" d="M146.6,522.2c-0.7,4-2.1,8.9,3.4,9.8c0.1-1.8-0.1-3.3,0.8-4.7c-0.4,4.8,0.3,8.6,3.2,12.6   c-2.3,0.1-4.4-0.6-6.4,0.4C143,535.9,143.2,527.1,146.6,522.2z" />
	<path fill="#947062" d="M501.3,260.5c1.7,0,3.4,0,5.1,0c-0.2,2.5-1.2,4.8,0,7.2c-1.2,1.1-2.4,2.1-3.8,3.3   c-2.9,1.3-5.9-8.9-4.2-10.7c0.2,0.2,0.3,0.3,0.4,0.5c0.6-0.2,0.9-1.7,1.9-0.5c-0.2,0.3-0.4,0.4-0.6,0.7c0.9,1.8,5.3,2.8,5.2,0.2   C503.9,261.1,502.3,261.5,501.3,260.5z" />
	<path fill="#936F61" d="M508.4,260.5c0.3,0,0.6,0.1,0.9,0.1c1.6,2.2,2.5,2.6,4.8,2c0.5,0.5,1,1,1.5,1.5c-1.5,2.9-2.7,7.4-6.7,7.1   C507.8,267.6,506.1,264.1,508.4,260.5z" />
	<path fill="#8F6C5F" d="M519.2,260.3c0.4,2.1,1.5,1.6,2.8,0.9c0,0.3,0,0.7,0,1.3c-0.8,0.1-1.5,0.3-2.8,0.4c0.9,0.3,1.3,0.5,1.7,0.6   c0.7,2,1.5,4,2.2,6c-0.6,0.9-1.4,2-2.1,3C514.4,272.6,518.1,264.1,519.2,260.3z" />
	<path fill="#D9D1AE" d="M186.3,501.6c-4.8,3.4-15.4,2.9-20.4,0.2C172,499.5,179.5,502.1,186.3,501.6z" />
	<path fill="#E5D7B3" d="M135.1,537.2c2.3,1.3,4.9,1.5,7.4,2.1c1.5,2.6,4.2,4,7.2,5.6c-6.1,1.5-9.5-2.6-14.5-5.1   C135.1,539.1,135.1,538.1,135.1,537.2z" />
	<path fill="#373945" d="M479.2,259.7c4.1-1,3.5-1,8.1,0c0.2-0.4,0.3-0.9,0.6-1.5c0.9,1.7,1.2,3.7,1.9,5.7   C486.2,263.8,478.9,264.7,479.2,259.7z" />
	<path fill="#E3D6B2" d="M152.4,492.1c-0.1-0.4-0.1-0.9-0.2-1.4c1.3,0.8,2.6,1.5,4,2.4c0.1-0.1,0.3-0.3,0.5-0.5   c1.8,3,4.3,5.3,6.8,7.6c-2.2,2-5.5-1.8-8-2.4C153.4,496.7,153.2,494.2,152.4,492.1z" />
	<path fill="#86685B" d="M781.6,545.8c-0.9-1.8-2-3.5-2.8-5.2c-1,0-1.8,0-3,0c0.3-0.9,0.6-1.3,0.9-1.8c0.7,0.1,1.4,0.2,2.1,0.3   c0.4-0.3,0.9-0.6,1.4-0.9c1.4,0.3,2.7,0.5,4.1,0.8c-0.2,0.8-0.3,1.5-0.4,2.5C782.5,542.5,781.2,543.7,781.6,545.8z" />
	<path fill="#846357" d="M495.6,260.5c0.3,0,0.6,0,0.9-0.1c0.2,2.1,0.3,4.1,0.5,6.4c-2.7-0.1-4.4-1.4-5.4-3.6c0.4-0.7,0.9-1.4,1.3-2   C493.8,261.4,494.7,261.4,495.6,260.5z" />
	<path fill="#936E61" d="M161.6,494.3c1.9,0.3,3.5,0.4,5.4,0.7c0.2-0.6,0.3-1,0.3-1.5c1,1.5,1.3,3.2,1.8,5c-1.3,0-2.3,0-3.7,0   C164.3,497.3,162.9,495.8,161.6,494.3z" />
	<path fill="#1F1412" d="M507.1,382c0.5-0.3,1-0.4,1.6-0.8c1.6,1,2.6,2.6,3.3,4.4c-0.7,0.7-1,0.8-2.1,0.9c0,0.9-0.1,1.8-0.1,2.7   c-1.4-0.9-0.5-2.6-1.4-3.7C507.8,384.5,507.5,383.2,507.1,382z" />
	<path fill="#31231F" d="M689.5,526.6c-2.9,2.7-6.4,5.3-10.1,7.1c-0.3-0.3-0.5-0.4-0.8-0.8c0.6-1.4,1.9-1.7,3-2.2   c2.7-1.1,4.4-3.8,7-5.1C688.9,526,689.3,526.3,689.5,526.6z" />
	<path fill="#936F62" d="M524.2,261.1c0.9,2.8,5.1,6.4,2.1,9.4C526.6,266.9,520.8,266,524.2,261.1z" />
	<path fill="#484D59" d="M534.3,265.5c-0.9-1.4-1.8-2.7-2.7-4c0.9-1.6,4-1.3,4.7,0.4c-0.3,1.1-0.5,2.4-0.8,3.6   C535.1,265.5,534.7,265.5,534.3,265.5z" />
	<path fill="#31323A" d="M534.3,265.5c0.4,0,0.9,0,1.4,0c-0.5,2.6-0.3,5.3-1.8,7.9c-0.6-0.3-0.9-0.5-1.5-0.9   C533.2,270.2,534.4,268,534.3,265.5z" />
	<path fill="#1E110F" d="M722.3,537.9c-0.3-0.4-0.4-0.9-0.7-1.3c1.5-0.9,3.2-1.4,4.9-1.5c0,0.5,0,0.9,0,1.5   C725.2,537,724,538.1,722.3,537.9z" />
	<path fill="#262727" d="M816.5,479.1c-0.6,0.3-1,0.5-1.7,0.9c-0.3-0.7-0.7-1.4-1-2.1c0.9-0.3,1.5-0.6,2.1-0.9   c0.5-0.2,0.7-0.9,1.5-0.6C817.1,477.2,816.8,478,816.5,479.1z" />
	<path fill="#5F554A" d="M726.6,535.1c-1.7,0.1-3.4,0.5-4.9,1.5c-1-0.9-2.3-0.9-3.7-0.8c2.3-1.5,5.7-0.3,8.3-1.9   C726.5,534.5,726.6,534.7,726.6,535.1z" />
	<path fill="#5C4B42" d="M731.7,538.7c-0.3-0.1-0.6-0.1-0.9-0.2c1.2-1.3,2.3-2.7,3.5-4C736.6,535.4,733.1,538.3,731.7,538.7z" />
	<path fill="#524840" d="M758,476.6c-2.1,0.1-2.8-1.4-3.3-3.1C756.4,473.8,757.6,474.6,758,476.6z" />
	<path fill="#492F26" d="M409.1,472.1c1.1-1,1.7-2.9,3.5-2.7c-0.9,1.2-1.4,2.7-2.7,3.4C409.6,472.6,409.3,472.4,409.1,472.1z" />
	<path fill="#2D2F2F" d="M760.6,444.4c0.8,0.8,1.5,1.5,2.2,2.1C761.8,448.2,759.4,446,760.6,444.4z" />
	<path fill="#948E8E" d="M816.6,460c0.3,0,0.5,0,0.8,0c0,1.2-0.2,2.2-1,3.3C815.8,462.1,815.8,460.9,816.6,460z" />
	<path fill="#657A6A" d="M152.3,543c1.7-0.1,3.5-0.1,5.2,0.2c-1.7,0.9-3.5,0.3-5.2,0.4C152.3,543.4,152.3,543.2,152.3,543z" />
	<path fill="#292D2D" d="M788.6,451.9c-1.3-0.7-1.4-1.5-0.8-2.5C789.2,449.8,788.9,450.7,788.6,451.9z" />
	<path fill="#928F8F" d="M766.8,436.3c1,0.5,1.8,1.2,2.1,3C767.7,438.4,766,437.3,766.8,436.3z" />
	<path fill="#262727" d="M789.1,456.2c0-0.6,0-1.1,0-2.4C790.3,454.9,791,456.1,789.1,456.2z" />
	<path fill="#674C45" d="M168.7,515.8c1.5,0,2.7-0.3,4.2,0.2C170.5,516.6,170.5,516.6,168.7,515.8z" />
	<path fill="#838B8B" d="M828.6,526.5c-0.9-0.7-1.4-0.9-1-1.8C828.7,523.9,829,525.4,828.6,526.5z" />
	<path fill="#F4F8F8" d="M793.9,441.8c1.3-0.1,1.3,1.6,0.1,1.6C792.9,443,793.5,442.4,793.9,441.8z" />
	<path fill="#9D7360" d="M273.3,474.9c-0.3,0.3-0.6,0.6-0.9,0.9c-0.3-0.6-0.4-1.2-0.7-1.9C272.8,473.7,273.1,474.3,273.3,474.9z" />
	<path fill="#262828" d="M712.7,464.2c-0.4-0.4-0.7-0.8-1.1-1.3c0.8,0,1.2-0.1,2.1-0.1C713.2,463.4,713.1,463.8,712.7,464.2z" />
	<path fill="#ABB2B2" d="M220.2,521.4c0-0.4,0-0.9,0-1.3c0.6,0.3,1.2,0.5,2.5,1.1C221.5,521.3,220.8,521.4,220.2,521.4z" />
	<path fill="#A6BBBB" d="M192.6,502.8c-0.3,0.3-0.7,0.6-0.9,0.9c-0.4-0.3-0.8-0.7-1.3-1C191.3,501.9,192,502.1,192.6,502.8z" />
	<path fill="#262D2D" d="M743.8,439c0.8-0.7,1.5-0.2,1.2,0.5C744.6,439.4,744.2,439.2,743.8,439z" />
	<path fill="#AFBBA3" d="M152.3,543c0,0.2,0,0.3,0,0.6c-0.6,0-1.3,0-1.9,0c0-0.2,0-0.3,0-0.5C151,543,151.6,543,152.3,543z" />
	<path fill="#846357" d="M496.3,260.5c-0.1-0.6-0.1-1.1,0.5-1.5C496.7,259.6,496.5,260,496.3,260.5z" />
	<path fill="#5C4B42" d="M732.4,539.9c-0.5,0-0.7-0.3-0.7-0.7C732,539.5,732.1,539.7,732.4,539.9z" />
	<path fill="#947264" d="M768.1,540c-0.6-0.1-0.9-0.3-0.1-0.7C768.1,539.6,768.1,539.8,768.1,540z" />
	<path fill="#97ABAB" d="M821,540c-0.2,0-0.5,0-0.7,0c0.2-0.2,0.3-0.3,0.5-0.6C820.8,539.7,820.9,539.9,821,540z" />
	<path fill="#2E1D18" d="M395.9,508.8c1.5,0,2.3,1.5,3.2,2.5c4.7,7.7,12.5,13.1,17.2,20.7C412.5,530.1,398.3,513.8,395.9,508.8z" />
	<path fill="#402B24" d="M417.8,537.2c-0.4,2.5,1.1,4.5,1.2,7c-2.1-0.8-1.6-2.9-2.7-4.1c0.2-1.9-1.6-5.1,0.2-6.2   C417.7,534.6,417.5,536,417.8,537.2z" />
	<path fill="#38221D" d="M410.5,499.1c2.1-2.4,7-0.9,10.6-1.3C419,499.3,415.2,499.8,410.5,499.1z" />
	<path fill="#3F2B24" d="M265.5,479.1c-0.3-2.5,0-4,1.5-7C268.6,473.1,266.9,478.5,265.5,479.1z" />
	<path fill="#38241E" d="M388.4,504.3c3.1,0.5,3.1,0.5,5,2.7C391.2,507,390.2,505.9,388.4,504.3z" />
	<path fill="#603C32" d="M403.4,499.7c0.9-1.5,1.6-1.5,3.2,0C405.6,500.3,404.5,500.3,403.4,499.7z" />
	<path fill="#190D0A" d="M273.5,484.9c-0.6-0.8-0.8-1.6-0.2-2.5C274.6,484,274.6,484,273.5,484.9z" />
	<path fill="#321D18" d="M386.2,503.1c1.2-0.4,1.7,0.1,2.1,0.9C387.2,504.7,386.8,504,386.2,503.1z" />
	<path fill="#040303" d="M564.3,475.7c0.1-1.4-0.7-2.8,0.4-4.4c11,14.9,10.4,15.1,28.1,19.3c-1.2,1.6-3.1,0.5-4.4,1.4   C577.7,491.6,568.1,486.2,564.3,475.7z" />
	<path fill="#161311" d="M561.4,458.6c0.3,0,0.7,0,1.1,0c1.1,3.9,1.8,7.9,2.2,11.9c-0.5,0-0.9,0-1.2,0   C562,466.8,561,462.8,561.4,458.6z" />
	<path fill="#49403B" d="M564.3,445c0.3,0.1,0.7,0.1,1.2,0.3c0.1,2.3-1.3,4.1-2.1,6.1c-0.4,0-0.8-0.1-1.1-0.1   C562.9,449.1,563.6,447,564.3,445z" />
	<path fill="#0C0505" d="M597.2,492c-0.4-0.3-0.8-0.7-1.4-1.3c2.1-0.9,4-0.2,5.8-0.3c0.4,1.3-0.9,0.9-1.1,1.5   C599.5,492,598.3,492,597.2,492z" />
	<path fill="#110E0C" d="M501.3,292.1c0.9,2.8,1.3,5.8-0.1,8.6c-2.1-2.6-1-5.2-1.3-8.1c0.3-0.3,0.6-0.4,0.9-0.7   C501,292,501.1,292.1,501.3,292.1z" />
	<path fill="#271D19" d="M553.4,403.6c0.4,1.2,2.1,1.5,2.2,3.3c-1.9,0.3-5.1-2.8-4.1-4.6c0.2,0,0.3,0,0.4,0   C552.5,402.6,552.9,403.1,553.4,403.6z" />
	<path fill="#241A17" d="M503.1,307.7c1.4,1.1,1.1,2.5,1.1,3.7C502.6,313.1,501.8,308.4,503.1,307.7z" />
	<path fill="#291E1A" d="M568.6,409.9c-0.7-0.8-3.2-1.8-1.3-2.8c1.1,0.7,2.1,1.5,2.7,2.8C569.5,409.9,569.1,409.9,568.6,409.9z" />
	<path fill="#392925" d="M498.8,286.3c-1.9-1-2-1-1.2-2.9C498.7,284.1,499.2,285,498.8,286.3z" />
	<path fill="#1C100E" d="M502.6,306.2c-0.9-1.4-1.5-2.3-0.3-3.3C502.9,304.4,502.9,304.4,502.6,306.2z" />
	<path fill="#2D1F1B" d="M574.2,409.9c0.6-2.5,2.1-0.8,2.2,0.7C575.7,410.4,575,410.2,574.2,409.9z" />
	<path fill="#2E1D1A" d="M547.9,402.8c-0.1,0.4-0.1,0.9-0.2,1.4c-1.1-0.3-1.4-1.1-1.2-2C546.9,402.3,547.3,402.6,547.9,402.8z" />
	<path fill="#796358" d="M506.3,315c-0.4,0.5-0.7,0.8-1,1.1C504.7,315,505.1,314.9,506.3,315z" />
	<path fill="#2C201D" d="M583.5,412c-0.1-0.2-0.3-0.3-0.3-0.4c0.4-0.3,0.7-0.3,0.9,0.2C583.8,411.8,583.7,411.9,583.5,412z" />
	<path fill="#967163" d="M500.8,292c-0.3,0.3-0.6,0.4-0.9,0.7C500.2,292.5,500.5,292.3,500.8,292z" />
	<path fill="#977264" d="M552.7,402.9c-0.3-0.3-0.5-0.5-0.9-0.7C552.2,402.4,552.5,402.6,552.7,402.9z" />
	<path fill="#1A1311" d="M642.7,453.7c2.2,3-1.5,8-2.7,8.8C640.1,459.4,641.7,457,642.7,453.7z" />
	<path fill="#483832" d="M663.4,465.9c-1.2,1.2-2.7,1.3-4.1,1.8C658,466.7,662.5,465,663.4,465.9z" />
	<path fill="#3D302A" d="M624.8,498.9c-1-1.1-1.7-1.9-2.3-2.7C623.3,494.1,625.7,496.8,624.8,498.9z" />
	<path fill="#40312C" d="M626.6,485.7c-0.3-1.5,1.1-2.1,1.7-3.2c0.4,0.2,0.8,0.3,1.1,0.4C628.7,484,628,485.2,626.6,485.7z" />
	<path fill="#1B1916" d="M644.7,450.3c-0.3-1.5-0.3-1.5,0.1-3.1C646,448.2,646,448.7,644.7,450.3z" />
	<path fill="#110504" d="M672.8,464.1c-1.3,0.3-2.5,0.3-3.9,0C671.9,462.9,671.9,462.9,672.8,464.1z" />
	<path fill="#2E2420" d="M655.1,468.7c0.9-1,1.6-1.1,2.6-0.8C657.7,469.1,656.1,469.8,655.1,468.7z" />
	<path fill="#957163" d="M697.4,508c-0.1-0.6-0.1-1.1-0.2-1.8c-0.9-0.2-2.1,0.9-2.7-0.3c0.4-0.1,0.9-0.3,1.6-0.5   c-9.7-5.8-5.7-18.8,1.9-23.2c-0.9,0-1.4,0-2,0c1-1.5,3.5-0.9,4.9-0.1c-1,3.5-4.1,6.5-4.3,10.4c-0.1,1.2-1.1,1.5-1.9,2.1   c2.4,3.2,2.1,8.5,3.4,12.5C697.9,507.5,697.6,507.7,697.4,508z" />
	<path fill="#060505" d="M731.5,522.1c-0.9,0.3-1.7,0.8-2.5,1.1c0,0.7-0.1,1.2-0.1,1.8c-2.4-0.3-2.8-4-1.5-5.6   c0.6-0.6,1.6-0.8,1.6-2c-5.8-0.4-4.1-9.3,1.9-7.3c2.4,3.1,1.3,6.8-0.1,10c-0.5,0.1-1.2,0.1-1.1,0.9   C730.2,521.3,730.9,521.7,731.5,522.1z M730.7,512.6c-0.6-0.5-0.9-0.8-1.4-1.2C728.8,512.9,728.8,512.9,730.7,512.6z" />
	<path fill="#070605" d="M733,478.5c-1.5-1.5-1.8-4.5,0.7-5.2c1.4,1.4,2.6,2.6,3.8,3.7c-0.9,1-1.2-0.7-2.1-0.1   c0.7,4,1.3,8.7-2.9,10.9c-0.5-0.5-1-0.9-1.5-1.5c-0.3,0-0.4-0.1-0.6-0.2c-2.1-3.4-1.9-4.3,1.5-7C732.3,479.5,734,479.5,733,478.5z    M733.5,482.2c0.2-0.1,0.3-0.2,0.6-0.3c-0.3-0.4-0.5-0.7-0.9-0.2C733.3,481.9,733.3,482,733.5,482.2z" />
	<path fill="#87675A" d="M701.5,502.1c0.1,1.8-1.2,2.9-2.1,4.3c-2.8-6.3-2.7-16.1,1.9-21.8c0.7,1-0.4,2.4,0.9,3.3   c0.8,2.8-2.1,5.2-1.3,7.6c1,2.5-0.2,4.6-0.7,7.1C700.9,502.4,701.2,502.3,701.5,502.1z" />
	<path fill="#0C0908" d="M738.6,494.7c-1.2-7.5,9-12.7,3.8-21.4c2-1.9,4.5,5.6,4,7.2C745.2,484.2,742.5,493.9,738.6,494.7z" />
	<path fill="#0E0B0A" d="M735.7,505.9c0.5-0.9,0.9-1.5,1.3-2.1c1.4,0.1,1.8,1.5,2,2.6c1.5,7.6,5.2,12.6-0.9,19.4   c-0.3-0.2-0.7-0.3-1.2-0.6C740.1,518.4,738.4,512.5,735.7,505.9z" />
	<path fill="#261B18" d="M695.9,482.2c0.6,0,1.1,0,2,0c-7.6,4.4-11.5,17.4-1.9,23.2c-0.8,0.3-1.2,0.3-1.6,0.5   C686.1,500.3,687.5,487.1,695.9,482.2z" />
	<path fill="#291E1A" d="M700.2,485.8c-3,6.8-3.6,14.9-0.6,21.4c-0.5,0-1,0.1-1.5,0.1c-1.4-4-1-9.3-3.4-12.5   c3.1-2.1,2.4-6.8,4.8-9.7C699.7,485.2,699.9,485.5,700.2,485.8z" />
	<path fill="#291D1A" d="M708,492.9c-0.3-1.3,1.1-1.7,1.4-2.7c-0.1-2-0.5-3.3,1.1-3.9c2.1-1.5,6,0.9,4.6,3.3   c-1.4-0.7-2.1-2.5-4.1-1.8c0.2,0.8,0.3,1.5,0.6,2.4C710.8,491.3,710.1,492.9,708,492.9L708,492.9z" />
	<path fill="#211917" d="M701.5,502.1c-0.3,0.2-0.7,0.3-1.3,0.5c0.5-2.5,1.7-4.6,0.7-7.1c-0.6-1.1,0-2.3,0.7-3.3   c1.8-2-0.5-5.8,1.5-7.9c-0.6,2.7,1.3,5.6,0.2,8c-1.3,1.8-0.9,3.5-0.3,5.5C701.8,499,702.6,500.8,701.5,502.1L701.5,502.1z" />
	<path fill="#261D1A" d="M731.5,522.1c-0.6-0.3-1.3-0.7-1.9-1.1c0.4-2.5,3.3,1.6,4.6-5C737.1,517,734,521.8,731.5,522.1z" />
	<path fill="#3F322C" d="M735.9,481.4c-0.2-1.5-0.4-2.9-0.6-4.4c1-0.6,1.2,1.1,2.1,0.1c2,1.6,2,4.4,0.3,6.2   c-0.3-1.5-0.5-2.4-0.7-3.4C736.7,480.4,736.3,480.9,735.9,481.4z" />
	<path fill="#2A1E1B" d="M725.2,492.9c-0.3-0.5-0.5-0.9-1-1.8c3.2,0.9,4.7,1.9,8.1,1.9C729.9,495.3,727.4,494.3,725.2,492.9   L725.2,492.9z" />
	<path fill="#2A1F1C" d="M708,504.3c-0.3-1.4-0.3-2.7-0.2-4.1c0.3-0.3,0.6-0.6,0.9-0.9C710.1,501.1,711.4,503.4,708,504.3L708,504.3   z" />
	<path fill="#382C2A" d="M730.9,510.1c-0.9,0-2-0.1-2.9-0.1c0.1-0.2,0.2-0.3,0.2-0.5c0.3-0.1,0.6-0.2,1.1-0.4   c-1.1-1.5-1.6-2.2-2.7-4C729.1,505.2,730.2,507.9,730.9,510.1z" />
	<path fill="#654D43" d="M703,484.3c-0.9,1-0.8,2.3-0.8,3.6c-1.3-0.8-0.2-2.2-0.9-3.3c-0.4,0.3-0.8,0.7-1.2,1.1   c-0.3-0.3-0.5-0.4-0.8-0.7c0.4-0.8,0.9-1.5,1.3-2.2c0.4,1.1,1,0.1,1.5,0C702.5,483.3,702.8,483.8,703,484.3z" />
	<path fill="#261C19" d="M708,504.3c0.9,1.7,2.6,0.9,4.3,0.8c-1.6,1.6-1.6,1.6-4.6,1.2C707,505.4,707,504.8,708,504.3L708,504.3z" />
	<path fill="#302A28" d="M730.9,486.4c0.5,0.5,1,0.9,1.5,1.5c-1.3,0.7-2.4,2.4-3.8,2.6c-0.5-1.5,1.1-1.7,1.6-2.6   C730.9,487.6,730.9,487.1,730.9,486.4z" />
	<path fill="#31231F" d="M702.3,482.8c-0.5,0-1,1.1-1.5,0c0.1-0.3,0.1-0.4,0.1-0.7c0.3-0.9,0.8-1.7,1.1-2.5   C704.1,479.4,702.6,481.8,702.3,482.8z" />
	<path fill="#CCCBCA" d="M727.3,517c0.5,0.1,1.1,0.2,1.6,0.3c0.1,1.2-0.9,1.5-1.6,2C725.4,519.7,725.4,516.9,727.3,517z" />
	<path fill="#2C1E1B" d="M727.8,482.8c-1.8-1.6-0.5-2.5-0.1-3.4C729.8,479.8,728.3,481.5,727.8,482.8z" />
	<path fill="#211815" d="M698,507.1c0.5,0,1-0.1,1.5-0.1c1.2,1.9-1.9,3.7-2.2,0.9C697.6,507.7,697.9,507.5,698,507.1z" />
	<path fill="#392E29" d="M725.2,492.8c-0.1,0.4-0.2,0.9-0.3,1.4c-1.3-0.1-2.1-0.4-2.5-1.5C723.1,491.7,724.2,492.8,725.2,492.8   C725.2,492.9,725.2,492.8,725.2,492.8z" />
	<path fill="#654D43" d="M703.6,490.1c-1.1-1.6-0.4-3.9-0.6-5.8C704.2,485.8,703.5,488.1,703.6,490.1z" />
	<path fill="#DEE2E1" d="M727.9,507.1c0.4,0.6,0.9,1.2,1.4,1.9C727.4,510.3,725.5,508.1,727.9,507.1z" />
	<path fill="#553E37" d="M708.8,499.2c-0.3,0.3-0.6,0.6-0.9,0.9c-1.1-1.7-1-1.7-0.7-3.2C707.8,497.9,708.3,498.6,708.8,499.2z" />
	<path fill="#1B1311" d="M724.2,510.4c0.3,1.2,0.7,2.3-0.2,3.7C723.4,512.6,723.6,511.5,724.2,510.4z" />
	<path fill="#57423B" d="M708,492.8c-0.4,1-0.3,2.2-2,2C706.2,493.3,707.3,493.3,708,492.8L708,492.8z" />
	<path fill="#57453E" d="M735.4,487.2c0.8-1.1,1.1-1.5,1.5-2.1C737.6,486.2,737.5,486.8,735.4,487.2z" />
	<path fill="#CECFCE" d="M730.9,486.4c0.1,0.6,0,1.1-0.7,1.4c-1-0.7-1-0.8,0-1.6C730.4,486.4,730.7,486.4,730.9,486.4z" />
	<path fill="#87675A" d="M702.3,500c0-0.8-0.2-1.6,0.6-2.2C703,498.6,703.4,499.5,702.3,500z" />
	<path fill="#CDC9C7" d="M733,478.5c1,0.9-0.7,0.9-1.3,0.8C731.8,478.5,732.4,478.6,733,478.5z" />
	<path fill="#87675A" d="M702.9,497.3c-0.2-0.5-0.3-1-0.6-1.5C703,496.1,703,496.7,702.9,497.3z" />
	<path fill="#87675A" d="M701.5,502.1c0.3-0.5,0.4-1,0.7-1.5C702.3,501.3,702.3,501.9,701.5,502.1z" />
	<path fill="#654D43" d="M703.2,492.3c0.2-0.3,0.3-0.6,0.5-0.9C703.5,491.7,703.4,491.9,703.2,492.3z" />
	<path fill="#161311" d="M563.9,548.4c-2.5-5.3-3.7-14.7,1.5-18.5c-0.5,5.1-1.5,10-0.3,15.3C565.5,546.9,565.3,546.7,563.9,548.4z" />
	<path fill="#302A26" d="M567.6,518.7c1.5,2.1,0.3,4-1.4,5.5C565.2,522.1,565.4,521.5,567.6,518.7z" />
	<path fill="#231A17" d="M572,513.8c0.7,2.6-2.9,0.9,0.2-0.1L572,513.8z" />
	<path fill="#060605" d="M145.8,484.8c-0.4,2.1-0.7,3.8-0.9,6.1c-5.9-1.3-0.3-27.2,5.3-25.9C152.3,467,144.7,478.5,145.8,484.8z" />
	<path fill="#060605" d="M139.4,487.1c-0.3,0.4-0.8,0.9-1,1.2c-5.9-0.6,2.2-32.8,6-23.1C142.2,472.1,138.4,479.6,139.4,487.1z" />
	<path fill="#080706" d="M131.1,484.6c-4.6-4.7,4.4-29.2,5.9-18.3C132.6,471.6,134.4,479.2,131.1,484.6z" />
	<path fill="#0A0A08" d="M124.9,479.8c-4.3,0.3-0.7-16.1,3.2-15c0.6,0.4,1.2,1.6,0.7,2.4C126.5,471.2,126.3,475.7,124.9,479.8z" />
	<path fill="#2B241F" d="M152.3,480.7c0.2-1.2-0.4-2.5,0.5-3.6c1,1.7,1.7-1.5,2.2-2.2c2.4-1.2,4.3-6.4,7.2-4   C158.4,473.8,155.2,477,152.3,480.7z" />
	<path fill="#A8A590" d="M155.1,474.9c-0.5,0.8-1.2,4-2.2,2.2c0.5-0.9,1-1.9,1.6-2.8C154.6,474.5,154.9,474.7,155.1,474.9z" />
	<path fill="#050404" d="M122.9,527.7c-0.9,2.6-0.2,4.7-0.7,7.6c-5.3-1.1-3.3-19.4,1.3-20.9C127.8,516.7,121.7,523.4,122.9,527.7z" />
	<path fill="#070605" d="M128.6,532.7c-0.3,1.5-0.2,3.3-1.5,4.3c-3.1-1.5-1.6-21,1.9-22C133.2,516.7,127.7,528.3,128.6,532.7z" />
	<path fill="#060605" d="M115.1,529.9c-0.4,0.5-0.9,1-1.2,1.5c-3.3-1-0.9-9.6-1.7-12.8c-0.3-2.5,2.7-6.6,5.1-3.7   C115.7,519.7,115.1,524.7,115.1,529.9z" />
	<path fill="#0B0B0A" d="M105.7,528.3c-2.1-2.8-1.6-15.6,3.8-10.6C107,519.9,109,529.2,105.7,528.3z" />
	<path fill="#4C352E" d="M675.2,536c-0.4-0.2-0.9-0.3-1.4-0.4c1.5-1.4,1.5-1.4,2.8-0.4C676.1,535.4,675.6,535.7,675.2,536z" />
	<path fill="#271C19" d="M557.3,404.6c3.2,2.5,3.2,2.5,3.9,4.2C558.7,408.7,556.8,407.4,557.3,404.6z" />
	<path fill="#201411" d="M512.9,383.6c1.2,0.7,1.9,1.4,2,2.5C512.9,385.8,512.9,385.8,512.9,383.6z" />
	<path fill="#4D413B" d="M565.9,440.1c0.7-0.3,1.4-0.6,2.2-1c-0.3,1.5-0.3,1.5-1.3,2.2C565.9,441.3,565.9,440.7,565.9,440.1   L565.9,440.1z" />
	<path fill="#45332D" d="M668.2,535.7c0.3,0.9,0.3,1.2-0.6,1.2C667,536.4,667.6,536.1,668.2,535.7z" />
	<path fill="#221412" d="M514.2,262.6c-2.3,0.6-3.2,0.3-4.8-2C511,261,512.7,261.5,514.2,262.6z" />
	<path fill="#170F0D" d="M501.3,260.5c1.1,0.9,2.6,0.6,4,0.6c0.2,2.6-4.2,1.6-5.2-0.2c0.2-0.3,0.4-0.4,0.6-0.7   C500.8,260.4,501.1,260.5,501.3,260.5z" />
	<path fill="#452C27" d="M495.6,260.5c-0.8,0.8-1.7,0.8-2.8,0.7c-0.3-0.3-0.4-0.5-0.7-0.8C492.7,259,494.4,260.3,495.6,260.5z" />
	<path fill="#846357" d="M492,260.4c0.2,0.3,0.4,0.5,0.6,0.8C492.5,260.9,492.3,260.7,492,260.4z" />
	<path fill="#A9A7A7" d="M730.7,512.6c-1.9,0.3-1.9,0.3-1.4-1.2C729.8,511.7,730.1,512,730.7,512.6z" />
	<path fill="#869393" d="M733.5,482.2c-0.2-0.2-0.3-0.3-0.4-0.4c0.4-0.5,0.6-0.3,0.9,0.2C733.9,482,733.7,482.1,733.5,482.2z" />
	<path fill="#654D43" d="M702.2,490.7c0.1,0.6,0.1,1.2-0.6,1.5C701.8,491.7,702,491.2,702.2,490.7z" />
</g>
<g id="a">
	<path d="M831.2,103.4c3.6,3,1.6,8.2,3.9,11.9c0.8,1.3,0.3,2.8-0.3,4c1.6,2.4,1.6,2.4,0.3,7.7c1.8,1,2.2-1.8,3.9-2.4   c0.6,0.5,1,1,1.7,1.6c-1.6,1.9-5.6,10.2-4.5,12.2c1.9,0.6,1.5-2.3,1.9-3.5c5.6,1.5-0.1,7.3-2.3,9.6c1,2.3-0.3,4.2-1.6,6   c0.9,1.1,1.6,2.2,2.4,3.4c-1.4,3-0.4,8.3-4,9.6c-0.3-0.4-0.4-0.9-0.8-1.5c-0.6,0.3-1.2,0.6-1.8,1c0.1,2.6,2.1,5.2-0.5,7.4   c1.8,4.6,0,8.1-3,11.6c-1-1-2.2-1.8-2.9-3l0,0c-0.4-2.3,1-3.8,1.5-6.6c-2.2,2.3-2.3,4.3-2.2,6.7c-2.6,4.7,3.9,9.2-6,10.9   c-0.3-1.6,0.6-2.5,0.3-4.2c-0.6,0-1,0-1.7,0c-1,3.9-4.3,6.8-7.6,8.5c-0.7-0.5-1.2-1-1.9-1.5c0.4-1,0.9-1.8,1.4-2.9   c-0.5-0.8-1.2-1.7-1.9-2.7c-0.8,0-1.5-0.1-2.3-0.1c-4.6,3.5-8.1,9.7-14.1,10.7c-51,2.6-101.3-11.6-152.1-12.1   c-54.2,38-116.9-26.7-174-1.9c-16.1,5.8-33.6,3.5-49.6,8.6c-35.7,15.9-73.9,23.4-112.8,25.4c-15.9,0.7-31.2,6.9-47.1,3.1   c-17.4-1.5-33.6-8.7-49.9-14.8c-16.9-9.5-33.5-25.6-53.8-27.2c-7.9,7.2-16.1-3.3-24.2-3.6c-23.5-2.8-52.7-2.3-66-25.6   c-2.7-18.1,12.7-32.7,30.5-31.6c-5.3-5.6-17.4-3.9-14.8-15C73,77.9,104,68.3,124.7,70.2c18.2,1,22.2,13.6,36.5,15.7   c15.9,2.6,34.9-2.3,44.5,14.4c20.4-3,49.1-14.1,65.2,3.6c0.6,0.2,1.1,0.3,1.6,0.3c30.2-11.9,50.2-38.7,77.3-55.7   c30.5-19.9,68.9-18.5,102.8-8.7c14.8,3.8,28.6,12.8,44.3,12.2c4.9-8.6,12.2-14.7,17-23.4c29.1-12.8,62-21.4,93.7-16.2   c22.8-2.5,52.5,2.8,51.8,31.4c7.1,24,20.1,51,47.4,55.6c1.6-2,3-4.4,6.2-4.6c-1.7-8.9,4-3,7.5-9.3c-0.6-1.2-2.7-1-2.8-2.9   c1.3-0.7,2.3,0.1,3.5,0.5c2.3-1.6,4.2-2.6,6.9-3.4c-0.2-0.7-0.4-1.5-0.7-2.3c1.1-2.9,4.3-0.2,5.8-2.2c-0.4-0.5-0.9-1.1-1.3-1.6   c0.9-1.8,3.8-0.9,5.6-1.7c1-0.3,2.4,0.6,4.1,1c0.6-0.4,1.6-1,2.6-1.6c0.3-1.4-1-1.6-1.5-3c2.7-1.8,5.6,1,8.3-0.3   c2.5-1.1,3.1,1.9,5.7,1.6c-1-1.2-2.5-1.8-1.2-3.5c2.9,0.5,5.5,0,8.2,2c4.3-3.9,5.4,1.4,8.2,3.2c-0.2-2.7-2.5-2.6-2.3-5.2   c0.3-0.3,0.6-0.7,1-1.1c3.1,0.5,6,3.8,9,2.1c0.8,0.4,1.3,0.8,1.9,1.1c2.9-1.3,5.6-1.3,7.2,2.3c3.7-2.2,5.7,0.5,8,2.9   c0.4-0.7,0.9-1.3,1.3-2.1c1.2,0.3,2.3,0.6,3.6,0.9c1.6,1.8,3.1,3.6,4.7,5.4c0.3-0.4,0.7-1,1.2-1.8c1.8,1.3,1.8,4.2,4.3,4.3   c1.7,2.5,1,5.6,2.6,8.2c0.8-0.4,1.5-0.9,1.9-1.2c0.2-1,0.3-1.8,0.3-2.6c1.5-0.8,2.3,0.2,3,1.3c0.2,3.2,0.5,7,1.1,9.8   c0.5-1.4,1-2.7,1.4-4c-0.3-1-0.7-2-1-3c0.3-0.2,0.6-0.3,0.9-0.5c5.1,3.4,6.3,5,5.6,10.2c1.5,0.2,1.4-1.7,3-1.6   c0.3,0.3,0.9,0.8,1.5,1.4c-0.6,1.1-1.1,2-1.6,3c-0.6,0.3-1,0.7-0.8,1.3c-0.2,0.2-0.2,0.3-0.1,0.5c-1,1.4-1.6,3.8-1.4,5.2   c0.7,0.1,1.6,0,2.3-0.3c0.4-1.2,0-2.6,0.1-3.9l0,0C830.7,103.8,830.9,103.7,831.2,103.4z M218.9,154.6c-10.4-6.1-18.7-16.8-31-18.7   c3.6,6.2,6.7,12,5.6,19.4c8.3,2.4,18.2,1.1,26.2-0.4C219.7,154.9,219.1,154.7,218.9,154.6L218.9,154.6z M148.7,177.7   c1.8-0.2,3.7,0.3,6.1-0.3C153.2,176.7,144.2,177.1,148.7,177.7z M778.2,169.1c0-0.7,0.1-1.5-1.2-1.2c-0.1,0.9-0.2,1.7-0.2,2.6   c-1.1,1.5-3.7,4.7-5.6,3c1.2-1.1,2.6-2.3,1.5-4.6c-2.2,1.9-4.3-0.4-6.8,0.1c-7.2,2.5-16.6-3.2-22.2,3c-2.4,1-5.1,0.4-7.4,2   c-0.3,0.2-0.9-0.1-1.4-0.2c0-0.7,0-1.3,0-1.8c2.5-0.7,2.9-1,2.7-3.9c-1.1,1.5-2,2.6-2.6,4c-2.3,1.2-4.3,0.3-5.9-1.2   c-1.2,0.4-2.3,0.8-3.4,1.1c-0.3-0.3-0.5-0.8-0.8-1.2c0.6-0.5,1.2-1,1.8-1.6c-3.1-0.1-4.6,0-7.7,0.7c0.7-1.1,1-1.7,1.5-2.5   c-0.4-0.9-0.9-1.7-1.4-2.9c-1.1,0.7-2,1.2-3,1.8c-1-0.3-2-0.7-2.9-1c-0.3-0.9-0.4-1.6-0.8-2.8c-1,1.6-0.9,3.2-3,3   c-2-0.3-3.5,1.1-5.6,0.3c0-1,0-1.8,0-2.7c-2-1-4-1.6-6.2-1.3c0.5-1.3,2.3,0,2.5-1.6c-1-0.7-2.2-1.4-3.3-2.1c-1.6,0.9-3,1.6-4.5,2.3   c-0.7-0.3-0.7-0.8-0.7-1.4c2.2-2.3,4.2-3.5,7.4-4.2c-5.9-4.5-11.9-9-19.3-9.6c-11.4,14.1-32.5,22-40.5,38.8   c38.1,2.1,76.3,6,114.4,9.9c14.8-1.1,33.1,8.5,44.2-4.8c-0.5-0.7-1-1.2-1.2-1.7c0.3-1,0.4-1.9,0.7-3c-1.2,0.8-2.2,1.4-3.6,2.3   c-0.1-2.4-0.1-4.4-0.2-6.4c-2.5,0.5-4.1,0.2-5.8-1.7c-1,0.3-1.3,2-2.8,1.2c-0.6-2,1.6-3.1,2.4-4.3c0-1,0-1.8,0-2.6   c-1.3-0.3-2.5-0.4-3.8-0.7c-0.9,1.2-1.7,2.1-3.1,2.6c-0.7-0.4-0.5-0.9-0.2-1.4C779.4,172.1,778.8,170.5,778.2,169.1z M539,183.5   c30.9,3.6,54.3,20.8,85.4,6.3c10.2-7.4,17.9-17.8,27.8-25.5c7-6.8,18.5-11.2,22.4-20.1c-30.8,20.2-59.4,23.3-67.7-19.5   c-10.8-41.2,27.3-55.5,61.4-49.3c-1.4-4.1-2.8-8.2-4.3-12.5c-13.2-0.9-26,0-39.1-1.5c-9.7-1-19.3-5.4-29.1-3.9   c-13.1,2.4-26.5,4-39.8,2.3c-4.5,0.3-10.6-3.8-13.9,0.6c-13.7,20.9-40.7,38.8-37.2,66.8c0.3,6.8,13.3,10.6,10.2,15.2   C478.9,115,527.4,75.9,546,52.9c-0.1,1-0.2,2.1-0.3,3.3c22.6,4,46-3,68.2-1.9c-0.6,0.4-1.2,0.9-2.3,1.6c16.9,4.5,33.8,3,51,5.4   c-8.2-15.6-3.9-36.1-24-42.8c-13.7-6.1-29.2-1.2-43.4-4.5c-24.8-3.5-58.5,8.6-81.4,18.2c-4.8,9.1-11.3,17.5-16.9,26.1   c-5.5,12.5-7.3,26.3-10.1,39.6c-4.3,21.4-23.3,38.7-16.3,61.8c5.8,3.5,8.1,0.3,7.1-5.6c0.4-0.1,0.8-0.1,1.1-0.2   c2,3.8-0.8,8.7,3.6,11.6c1.3-0.1,2.8-0.2,4.3-0.3c1.3-2.3-1.1-8.6,1.3-8.3c2.1,3.3-0.4,7.6,2.3,10.5c1.9,0,3.9,0,5.9,0   c0.5-0.8,1-1.4,1.6-2.1c3,4.5-6.6,4.9-9.4,3.5c-0.4-0.7-0.9-1.4-1.3-2c-5.3,1.6-6.2,1.1-9.2-4.3c-7.8,1-10-1.7-10.2-9.2   c-1.1-0.3-2.3-0.5-3.5-0.8c-1.6,4.2-2.1,8.6-5.6,11.8c-9.4-1.4-18.6-3.6-27.9-5.4c-0.2-0.5-0.3-0.9-0.3-1.2   c0.3-0.8-0.3-1.8,0.8-2.3c-0.1,3.7,20.1,6.2,23.7,6.2c-0.3-3-0.3-5.5,0.2-8.2c2.3,2.4-1.7,8.5,3,9.3c2.3-3.1,4.1-6.7,4-10.4   c-3-0.4-3.7-2.5-3.4-5.3c1.6,0.3,1,2.3,2.3,3.2c1.8-0.1,3.8,1.5,6.2,0.7c-0.1-4.3,0.3-8.2,0.6-12.3c-2.9-1.3-5-1.5-6.9,1.6   c-0.4-1.6,0.7-2.5,1.2-3.9c1.2-0.3,2.4-0.6,3.7-0.9c1.3,0.7,2.7,2.6,2.8-0.2c2.9-8.5,7.3-16.5,11.5-24.3c5-18.1,6.3-36.7,13.7-54   c-25.3-2.6-47.9-21.7-74.7-20.3c23.4,26.6,4.8,111.7,4.6,149.4C476.2,184.3,480.2,163.2,539,183.5z M149.4,126.5   c1,5.3,6.7,7.9,11.8,7.9c-12.9-7.1-8.8-24.2,2.8-29.6c12.8,0.2,25.5-0.9,38.5-3.8c-6.9-15.9-29-8.2-42.5-11.7   c-11.3-1.6-17.3-13.7-28.6-15c-22.7-4.8-58.6,4.7-52.5,33.9c25.6,22.7,46,9.1,69.7,21.9C148.9,128.7,148.1,127.3,149.4,126.5z    M147.2,165.5c-0.6-14.2,10.5-17.3,22.4-15.3c-3.4-4.8-18.1-3.3-22.1-0.3c-5.6,6.2-10.8,18-2.8,24.5c1.8-1.3,3.9-0.2,6.2-0.3   C149.3,171.1,147.2,168.9,147.2,165.5z M158.2,127.9c1.3,1.5,2.7,3,3.9,4.3c1.5,0.1,2.6,0.4,4-0.4c-4.8-9-2.7-19.8,6.9-24.5   C161,101.4,150.9,120.5,158.2,127.9z M683.6,143.2c0.4,0.8,1,0.9,1.7,0.4c-0.2-1.2-0.2-1.2,0.6-2c17.2,17.4,45.8,26.8,69,20.5   c0.3,0.1,0.7,0.3,1,0.4c2.3-1.7,4.4-3.4,6.8-5.2c0.1-0.4,0.3-1,0.4-1.8c2.9-1,3.8-3.9,5.3-6.2c-0.3-0.2-0.5-0.3-0.9-0.6   c0.5-0.9,1.1-1.7,1.6-2.5c-0.4-2.2-1-4.3-0.1-6.4c-0.6-1.4-1.2-2.6-1.7-3.8c7-11.6,5.5-19.5-6.5-26c-18.2-13.5-50.4-9.6-70.7,1.6   c-0.3-0.3-0.7-0.6-1-1c4.9-4.2,10.8-6.1,16.9-8.2c-16.9-1.5-25.6-17.9-39.5-24.5c-31-7.9-66.1,9.5-57.4,45.4   c5.6,3.6,11.8-3.1,16.6-1.9c-1.4,1.3-3.1,2.3-4.2,3.9c0.5,0.9,2.1,0.9,1.6,2.3c-1.6,0.2-2.7-0.9-3.9-1.6c-3.7,1.1-5.9-1.2-9.7,0.2   c7,21.9,17.6,37.4,42,25.5c4.5-1.6,18.9-5.9,20.4-9.7c-3.2-1-6.9-2-10.2-3.3c0-0.7,0.1-1.3,0.2-2.1   C669.5,138.4,676.6,140.5,683.6,143.2z M782,154c12.2-14.6-0.7-50.2-20.9-49.9c26.8,18.3,20.2,51.8-8.5,63.3   c6.1-0.1,10.5-1.6,16.1-1C774.2,163.1,778.8,159.6,782,154z M398.6,116.9c0.8,0.2,0.9,0.8,0.9,1.5c-8.6,12.2-20.4,22-34,28.2   c-23.8,5.6-46.9,14.7-69.9,23c-10.4,2.9-22.5,5.3-32.8,0.8c-7.7-3.9-16.9-1.5-23.7-7.4c-16.8-13.2-30,3.8-70.1-11.1   c-13.9-3-22.7,5.2-16.2,18.5c4.3,7.4,12.2,10.6,19.8,13.6c13.6,4.9,23.2,16.3,36.5,21.7c37.8,18.7,76,12.3,115.9,5.7   c18-3,36.5-4,54-8.9c13.8-5.2,27.3-11.1,41-16.5c6.2-17.9,2.4-37.8,5-56.5c0.5-30.6,11.9-67.8-10-93.5   c-40.6-3.4-75.3,20.4-103.5,47.1c-10.3,11.3-26.2,15.1-37,25.3c0.6,3.1,4.1,6.6,2.1,9.6c-14.6-39.1-63.4-13.5-93.1-11.2   c-13.5-0.5-20.7,12.4-14.2,25.1c17.5,1,34.5,4.3,47.3,17.4c6,6.4,15.5,5.6,22.3,10.2c9.1,8.2,23.4,7.7,35.1,9.4   c21.4,0.9,39.8-10.7,59.5-16.9C358.4,146.3,383.1,139.4,398.6,116.9z M64,139.2c-7,28.8,45.1,32.6,64.1,32.9   c-0.3-8.2-2-22.6,8-25.1c1.1,2.1-1.7,4.3-2.6,6.1c-3.8,6.2-2.8,14-1.8,20.7c4.9,2.3,8.8,6.9,14.3,4.9c-14.2-5.6-7.6-26.8,3.3-32   c20.1-5.6,23.2,5.6,41.7,8.6c1.5-6.6-1.6-13.2-6.2-17.4c-12.3,4.2-25.7,2.6-35.9-5.5c-12.9,3-15.5,7.6-28.5-1.9   c-5.6-6.2-14.4-4.5-21.2-8.2C85.8,116.9,66.2,124,64,139.2z M118.7,126.6c6.9,5.9,17.9,9.7,25.6,3.5   C135.8,126.4,128.4,126.3,118.7,126.6z M162.7,135c2.7,3.6,17.7,3.3,20.8,0.2C176.3,135.7,170,133.5,162.7,135z M818.4,113.3   c1.8-1,1.8-1,2.9-4.3c-1.2,0.9-2.2,1.6-3.2,2.3C818.1,112,818.2,112.6,818.4,113.3z M766.7,80.1c-1-1.2-1.7-2.3-3-2.7   c-0.9,1.4,0.3,1.9,0.8,2.9C765,80.1,765.7,80.1,766.7,80.1z M790.3,84.1c0.9,0.5,1.4,0.9,2,1.2c0.4-1.9,0.2-2.5-0.9-2.6   C791.2,83,790.9,83.4,790.3,84.1z M792,88.6c0.4,1.2,1,1.2,2.1,0.5c0-0.4-0.1-1-0.2-1.8C793.1,87.8,792.6,88.1,792,88.6z    M832.3,160c0.8-1-0.2-2.5-1-1.1C831.5,159.3,831.8,160.1,832.3,160z M797.3,74.2c-0.7,1.6,0.3,3.3,1.6,1.5   C798.3,75.2,797.9,74.9,797.3,74.2z M715.2,96c-0.2,0.4-0.3,0.7-0.3,1C715.9,97.6,716.3,96.7,715.2,96z M832.2,147.3   c0.3-0.3,0.4-0.6,0.7-0.9C832.4,145.8,831.5,146.8,832.2,147.3z M747.7,72.7c0.1-0.3,0.3-0.6,0-0.8   C747.2,72.1,747.3,72.3,747.7,72.7z" />
	<path fill="#C5C3C3" d="M820.9,88.9c0.3,1,0.7,2,1,3c-0.4,1.3-1,2.6-1.4,4c-0.6-2.8-1-6.7-1.1-9.8   C820.9,86.5,819.6,88.4,820.9,88.9z" />
	<path fill="#D1D3D3" d="M830.4,104.1c-0.1,1.3,0.3,2.7-0.1,3.9c-0.6,0.3-1.6,0.3-2.3,0.3c-0.2-1.4,0.4-3.8,1.4-5.2   C829.8,103.5,830,103.8,830.4,104.1z" />
	<path fill="#989F9F" d="M769.5,66.4c-0.3,2.7,2.1,2.5,2.3,5.2C770.7,71,767.4,68.1,769.5,66.4z" />
	<path fill="#A09191" d="M755.5,68.6c0.3,0.3,0.7,0.8,1.2,1.3c-1.6,0.1-2.3-0.5-3-1.3C754.3,68.6,754.9,68.6,755.5,68.6z" />
	<path fill="#D1D3D3" d="M829.6,102.6c-0.2-0.7,0.2-1,0.8-1.3C830.4,101.9,830.2,102.4,829.6,102.6z" />
	<path fill="#A4B1B1" d="M823.2,179.3c0-0.3-0.1-0.5-0.1-0.8c0.3,0,0.5,0,0.8,0c0,0.3,0,0.4,0,0.7   C823.7,179.3,823.4,179.3,823.2,179.3z" />
	<path fill="#A4B1B1" d="M823.9,179.2c0.2,0.3,0.3,0.5,0.6,0.8C824.2,179.7,824.1,179.4,823.9,179.2z" />
	<path fill="#D1D3D3" d="M831.2,103.4c-0.3,0.3-0.5,0.4-0.9,0.7C830.4,103.5,830.7,103.3,831.2,103.4z" />
	<path fill="#EAA388" d="M152.2,169.1c-9.5-35.9,42.1-4.3,58.7-10.5c8.8-2.1,16.3,4,23.7,7.9c36.9,12.5,53,11.9,88.5-4   c25.3-8.2,52-15.7,70.3-36.2c1.4-3.7,25.8-26.7,16.8-25.9c-8.5,1.8-12.6,11.4-20.5,14.6c-22.7,9.4-44,21.7-66.8,30.6   c-18.3,7.5-37.6,19.3-57.6,14.6c-2.9-2.1-6.2-8.2-10.2-5.6c0.1,1.2,0.2,2.6,0.3,4.3c-8.3-3.4-13.1-12.1-21.4-16   c-1.3,3.9,1.6,6.6,2.3,9.8c-2,0.2-2,0.2-4.6-2.8c0.4-0.5,0.8-1,1.1-1.6c-15.6-19.1-42.1-22.3-65.3-22c-5.4-18.7,13.9-19,26-21.1   c23-4,55.3-16.7,75.3-0.6c-1.3,2-0.9,4.4-1.4,6.6c-0.2,0.7,0.6,1.2,1.5,1.1c2.3-1,1.2-3.6,1.3-5.5c3.6,2.9,3.4,7.6,6.2,11.2   c2-3-1.4-6.6-2.1-9.6c10.8-10.2,26.6-13.9,37-25.3c28.2-26.7,62.9-50.5,103.5-47.1c25.1,25.2,6.3,99.6,7.6,135.8   c-1.5,1.6-3.2,1.4-4.8,1.4c-0.6-2.3-0.1-4.3-2.2-5.9c0,2.8,0.1,4.6-0.3,7c-22.7,7.6-43.3,20.1-67.2,24.4   c-29.7,5-59.6,9.5-89.8,11.1c-9.9-5.5-20.5-11.9-31.2-14.8c-0.6,4.6,4.9,6.8,6.6,10.5c-14.1,0.5-23.3-10.5-34.6-17.2   C183.4,181.8,169,172.9,152.2,169.1z M388,138c-0.6-1.1-1.2-1.9-2.7-1.2C385.9,138.2,386.9,138.2,388,138c0.9,1.6,2.4,2.3,4.7,3   C391.8,139,390.2,137.7,388,138z M415.6,166.1c-4.2-7.9-12.7-13.5-17.4-21.4c-0.9-0.8-1.7-3-3.1-1.7   C401.2,151.4,407.9,159.1,415.6,166.1z M420.3,131.8c-2.4-0.2-9.3-1.4-10.5,1C413.2,132.9,417.7,133.9,420.3,131.8z M265.7,105.7   c-1.7,0.3-3.5,6.2-1.7,7.1C265.1,110.4,266,108.3,265.7,105.7z M402.4,133c1.4,1,2.5,0.9,3.6,0.3C405.1,132,404.8,132,402.4,133z    M272.4,118.8c-0.3-1.7,0.4-2.5-1.3-3.1C270.8,116.9,270.4,118,272.4,118.8z" />
	<path fill="#F5DDCE" d="M515.9,140.9c-31.2-26,11.1-57.7,26.3-80.5c3.2-4.4,9.4-0.3,13.9-0.6c13.3,1.7,26.6,0.1,39.8-2.3   c9.9-1.6,19.4,2.9,29.1,3.9c13,1.6,25.9,0.6,39.1,1.5c1.5,4.3,2.9,8.4,4.3,12.5c-27.6-5.1-63.8,3.3-63.7,37.6   c-4.7-0.9-9.6,0.9-14-1.1c-2.3-1.7-5.6-0.6-7.5-3c-6.5-5.1-12.4-14.8-10.9-23.3c0.3-6.5,3.8-13.1,3.3-19.5c-1,0-1.8-0.1-2.9-0.1   c-11.7,10.1-11.8,27.7-7.6,41.6c4.6,20.1,26.1,18.3,41.8,18.4c9.5,42.4,37.2,38.2,67.7,18.5c-2.5,6.9-11.2,11-16.8,15.6   c-15.3,5.8-27.1,21.8-44.4,24c-26.8,6.8-51.4-3.1-41-34.4c0.2,0,0.3,0,0.3,0.1c0.6,0.1,0.9-0.2,1-0.8c-0.1-0.1-0.1-0.3,0-0.4   c-0.1-2.3,1-4.3,1.8-6.4c-0.1,0.2-0.2,0.3-0.3,0.5c-10.7,1.8-9.5,11.9-12.6,19.4c-3.7,0.1-7.3,0.1-10.7,0c-2.3-6.7,3.8-15.3-1-21.7   c-8.9-2-18-4-26.7-5.2c-4.8,2.5-3.3,8.1-6.7,11.4C516.9,144.1,516.9,142.7,515.9,140.9z" />
	<path fill="#B28C7D" d="M546.1,52.9c-17.6,22.1-66.5,61.1-32.2,87.8c-2.5,1.6-1.1,4.3-1.7,6.7c-1,5.2-4.6,9.9-4.3,15.4   c0.2,1.6,0.3,3.4-0.8,4.9c-0.8-6-4.8-8.7-8.9-12.9c-0.5,1.8-1.4,3.1-2.5,4.3c-0.7-0.8-1.2-1.4-1.9-2.2c-1.9,0-4.3,0.3-5.5-1.6   c0.7-3.1-2.3-3.9-2.1-0.5c0,0.2-0.3,0.3-0.5,0.3c-2.3-3-4.9-1.4-7.9-0.9c-0.1,2.1,0.8,4.4-0.9,6.3c-1-0.1-1.8-0.2-3-0.3   c0.3-6.5,0.2-12.2,0-18.7c8.5-13.1,14.4-28.4,18.6-43.5c-1.3-1.6-0.2-3.3,0.3-4.8c3-7.8,4-16.1,6.2-24c4.8-14.1,16-24.7,20.2-39   c16-8,58.9-20.1,76-16.1c14.2,3.3,29.7-1.6,43.4,4.5c20.1,6.7,15.9,27.2,24,42.8c-17.2-2.4-34-0.9-51-5.4c1-0.7,1.6-1.1,2.3-1.6   c0.4-1.1,1.5-0.8,2.3-0.9c1.2,1.1,1.9,0.1,2.8-0.6c2.3-1.9,6.2-0.5,7.9-4.3c-10.3-2.6-21.3,3.5-31.7,3.8c-15.5,0-32.6,3.7-47-2.7   c0.2-0.6,0.3-1.3,0.5-1.9c-1.4-0.3-1.5,0.8-2,1.3c-1.2,1-0.1,1.3,0.6,2C547.1,51.7,546.5,52.3,546.1,52.9z M535.1,28.2   c-2.2,0.5-6,2.2-4.2,4.3c1.7-0.1,3.2-1,4.7-2.2C535.4,29.6,535.3,29,535.1,28.2z M479.3,147.2c1.4-3.5,1.4-3.8,0.1-5.2   C478.8,143.7,478.7,145.3,479.3,147.2z M527.2,38.9c-1,1.1-1.8,1.5-1.7,3c1.7-0.2,2.2-1.1,2.6-2.3   C527.8,39.4,527.6,39.3,527.2,38.9z M498.7,146c0,1.2,0,2.3,0,4C499.7,148.2,501.3,147,498.7,146z M480.9,138.4   c-1.4,0.3-1.6,1.8-0.3,2.4C481.4,140,481.5,139.3,480.9,138.4z M499.7,142.6c-0.6,0.8-0.6,1.6-0.1,2.5   C501,143.3,501,143.3,499.7,142.6z M490.9,144.7c-0.9,0-1.4,1.3-0.4,1.8C491.2,146,491.6,145.6,490.9,144.7z M482.4,136.5   c1,0,1.4-1,0.7-1.7C482.1,134.1,481.5,135.9,482.4,136.5z M490.7,141.9c0.3-0.7,0.8-1.1,0.2-1.5C490,140.7,490,141,490.7,141.9z    M500.7,139.8c-0.2-0.1-0.3-0.2-0.5-0.2c-0.2,0.3-0.3,0.7-0.5,1c0.2,0.1,0.4,0.2,0.6,0.3C500.5,140.5,500.5,140.1,500.7,139.8z    M529.9,35.7c-0.5-0.5-1-0.4-1.4,0.2C529.1,36.4,529.5,36.3,529.9,35.7z" />
	<path fill="#F5DDCE" d="M427.7,185.6c-1.3,0.1-2.6,0.1-4.1,0.2c0.2-37.8,18.9-122.4-4.6-149.4c26.7-1.3,49.3,17.8,75.1,20.2   c-9.5,21.8-19.8,43.2-27,66.1c-9.3,0-18.5-3.6-27.6-4.5c-7.5,6.1-11.5,31.9-8.7,40.8c5.9,1.2,11.9,2.3,17.8,3.7   c-0.1,0.3-0.2,0.7-0.3,1c-3.2,1.1-12,5.6-14,7.1c0.9,1.7,3,2.6,3.8,4.6C432.3,176,424.9,177.9,427.7,185.6z" />
	<path fill="#B28C7D" d="M651.8,151.7c-24.4,11.9-35-3.7-42-25.5c3.8-1.3,6,1,9.7-0.2c1.1,0.8,2.2,1.8,3.9,1.6   c0.5-1.5-1.1-1.5-1.6-2.3c1.6-2.2,4.3-3.2,5.3-5.9c0.5,0,1.1-0.1,1.6-0.1c2.1-2.2,4.8-3.9,6.5-6.3c0.4-6.4-16.4,4.3-26.6,2.3   c-2.3-32.2,31.6-43.8,58.2-37.2c13.9,6.6,22.5,23,39.5,24.5c-8.9,2.8-17,6.6-23.3,13.4c-7.6,1.4-11.1,9.5-15.6,14.9   c-2.5,1-5.4-1.3-7.9-0.1c-3.3,2.4-9.9,1-11.8,4.7c5.9,2.6,12.1,1.7,18,4.9C661.8,144.5,654.1,146.1,651.8,151.7z M645.1,87.4   c-1.6,2.4-3,6.4-3,8.3C643.5,95.4,646.6,89.8,645.1,87.4z M661.3,100.5c0.2,0.2,0.3,0.4,0.4,0.6c1.2-0.5,2.4-1.1,4.3-1.9   C663.6,98.8,662.4,99.5,661.3,100.5z M647,80.3c-1.3,1.4-1.3,1.7,0.1,3.1C647.5,81.8,647.5,81.8,647,80.3z M675.4,97.3   c-1.4-1.3-1.4-1.3-3.9,0.2C672.9,97.8,674.1,97.9,675.4,97.3z M626.8,132.3c-0.3-2.3-0.7-2.8-2.5-2.5   C625.2,130.6,625.9,131.4,626.8,132.3z M657.6,101.4c0.1,0.5,0.2,0.8,0.3,1.1c1,0.1,1.7-0.3,2.5-1.5   C659.1,101.2,658.4,101.2,657.6,101.4z" />
	<path fill="#B28C7D" d="M690.4,111.4c20.4-11.4,47.3-13.8,68.4-3.7c0.3,1.7,0.3,1.7,2.3,2.1c12,6.4,13.5,14.3,6.5,26   c0.5,1.1,1.1,2.4,1.7,3.8c-0.9,2.1-0.3,4.3,0.1,6.4c-0.5,0.8-1.1,1.6-1.6,2.5c0.3,0.3,0.6,0.5,0.9,0.6c-1.4,2.4-2.4,5.3-5.3,6.2   c-0.2,0.8-0.3,1.5-0.4,1.8c-2.3,1.8-4.5,3.5-6.8,5.2c-0.3-0.2-0.8-0.3-1-0.4C729.6,172.2,655.7,144.5,690.4,111.4z M735.7,155.4   c2.1-1.4,4-3.7,1.9-6.1c-0.8,1.7-1.4,3.1-2,4.5c-0.2,0.1-0.4,0.2-0.6,0.3c-0.8-0.3-0.7-1-0.7-1.6l0,0c1.4-1.3,0.3-3.3,1.4-5.1   c-1.7-3-2.3-6.9-5.3-9.2c-1,1.1,0.1,1.8,0.3,2.6c-1.1,1.1-1,1.5,0.1,2.4c-0.1,0.2-0.1,0.3-0.2,0.5c-3,0.5-2.9,5.5-0.6,7   c-1.2,1.3-1.2,1.5,0.2,2.5c-0.7,1.9-0.6,4.9,1.6,5.6c0.2-0.6,0.4-1.2,0.6-1.9C733.4,156.5,734.7,156.2,735.7,155.4z M705.2,117.1   L705.2,117.1c-0.5-1.6,1.9-3-0.4-4.2c-1,1.5-2.5,2.3-4.3,1.9c-4.8,1.2-8.4,6.7-9.1,11.6c-1.4,4.5,3,15.5,8.7,12.9   c0.3,1,0,2.3,0,3.4c1.5,0.9,4-1,2.3-2.1c0.5-1.4,1-2.8,1.3-4.3l0,0c1.8-2.1,1.9-6,0.8-8.7c2.8-2.8,1.2-6.6,1.4-10   C705.7,117.6,705.5,117.4,705.2,117.1z M735.6,121.3c3.3-2,3.7-6.4,3.6-10.1l-0.1,0.1c0.9,1.5,1.4,3,1.8,4.7   c2.7-3.3-2.1-7.6-4.5-9.5c-0.4,0.3-1,0.5-1.4,0.7c-0.4,1.7-0.5,3.2,0.5,4.6c-2.6,1.8-5.8,5.1-2.3,8.1c-1.3,0-1.6,0.9-0.4,1.6   c-0.5,0.7-1.6,1-1.5,2.5C733.3,124.2,734.2,122.2,735.6,121.3z M710.3,138c4.5-0.3,1.6-5.2-0.4-7c-0.4,1.6,0.9,2.6,0.9,3.2   c0.3,2.2-1.5,4.8-0.2,5.7c1.1,0,4.5,1.2,3.8-1C712.9,139.3,711.3,139.5,710.3,138z M727,125.7c-0.6,0-1.3,0.1-2,0.1   c0.5,1.6,3,3,2.7,0.6c2.4,1,4.9,2.8,7.4,0.1c-3,0.1-5.4-0.8-7.8-2C727.2,125.1,727.1,125.4,727,125.7z M745.2,105.9   c5.2,8.2-2.9,14.3-4,21.8c0.4,0.2,1,0.4,1.6,0.7C746.5,122.3,754.2,110.4,745.2,105.9z M740.2,159.7c4.4-2,5.5-8.7,3.6-13.2   c-2.1-2.6-0.4-7.4-3.6-8.9c-4.1,4.4,4.3,10.9,1.3,16.2C740.8,155.7,739.9,157.5,740.2,159.7z M710.4,126.2c2.1,0.6,2.6-0.9,3.6-1.9   c0-1,0-2.1,0-3.1c1.9-0.8,2.4,1.4,3.8,1.6c0.8-3.2-3.6-5-6.1-1.6c0.2,0.9,0.3,1.7,0.5,2.6C711.7,124.6,711.1,125.3,710.4,126.2z    M726.4,148c1.7-1.6,1.7-2.9,0.2-4.2C726.1,145.1,726.1,146.3,726.4,148z M730.9,112.7c-1.1,1.1-1.4,2.2-0.7,3.4   C731.9,114.3,732,114.3,730.9,112.7z M740.7,119.2c-2.1,0-2.1,0-1.5,1.6C739.8,120.2,740.3,119.7,740.7,119.2z M709.5,126.3   c-0.3,1.2-0.7,1.4,0.1,2.2C710.6,127.8,710.3,128,709.5,126.3z" />
	<path fill="#F7EFD0" d="M79.2,95.2c5.2-20.9,34.1-24,52.2-21c11.3,1.3,17.3,13.3,28.6,15c13.5,3.5,35.6-4.2,42.5,11.7   c-13,3-25.6,4-38.5,3.8c-7.1,3-12,12.4-10.9,20.1c-0.2,0.6,0,1.5-1,1.5c-1.7-1.3-3.5-2.5-5-4.1c0-8.2,6.3-13,11.9-18   c-1.7-2.6-4.2,1.9-5.9,2.7c-0.3-0.3-0.6-0.6-0.9-0.9c0.5-1,1-1.8,1.4-2.7c-4.9-6.9-10.5,15-10,18.4c-0.6,0.2-1,0.3-1.5,0.3   c0-7.9,2.1-15.6,5.8-22.6c-6.1-6.4-9.2,17.7-9.7,21c-0.5-0.1-1-0.1-1.6-0.2c-1.5-8,2.7-14.8,4.3-22.2c-4.2-7.9-9.3,18.9-7.9,21.8   C119.8,117.7,79.4,111.2,79.2,95.2z M127.3,118.1c4.1-4.2,1.3-12.1,5.6-17c1-1.7,1.7-4.3-1.6-4   C126.9,103.3,125.3,110.2,127.3,118.1z M120,113.7c3.9-2,2.1-9.4,5.2-13c0.6-1.3,0.5-2-1.5-2.8C119.4,101.7,119.2,107.9,120,113.7z   " />
	<path fill="#F7EFD0" d="M131.5,170.5c-1.9-5.5-0.7-12.3,2-17.4c0.9-1.8,3.7-4,2.6-6.1c-5,0.2-7.4,7.6-8.3,12   c-2.3,2.9,1,7.6-1.8,10.4c-1.2-6.8,1-12.6,1.1-19.3c-4.1-5.8-5.5,14.2-5.8,16.4c-0.8-0.1-1.5-0.2-2.1-0.3c0-0.7,0-1.5,0-2.2   c1.2-1.5,0.4-3.5,0.6-5.2c-0.3-3.1,1.5-5.7,2.1-8.5c-4.8-8.2-6.5,12-7.5,14.3c-0.8,0-1.5,0-2.2,0c-0.7-4.9-0.7-10.2,1.3-14.8   c0.4-1.5-1.5-3-2.7-1.8c-4.4,4-1.6,10.8-2.8,16c-9.4-0.3-18.7-2.7-27.2-6.8c-6.5-3-9.5-10.9-16.8-12.4c-2.2-15.3,13.2-25,27-24.1   c6.5-0.3,11.5,4.5,18,4.6c10.7,1.3,18.8,15.2,30.5,10.4c2.7-2.4,5.8-2.5,9.2-3.1c10.2,8.1,23.6,9.5,35.9,5.5   c4.8,4.3,7.7,10.9,6.2,17.4c-9.9-1.2-17.7-7-26.6-10.2c-6.1,0.6-14.8-0.6-19,4.3c-5.5,6.4-9.5,14.5-6.4,23   c-0.2,0.3-0.4,0.5-0.6,0.8C135.7,172.8,133,172.7,131.5,170.5z M102.3,162.7c3.2-2.5,0.5-7.1,3-10.4c1-2-1.9-3.1-3-1.6   C100.2,154.2,100,159.3,102.3,162.7z" />
	<path fill="#D69479" d="M152.2,169.1c16.8,3.7,31.2,12.7,46.9,19.4c11.3,6.6,20.5,17.7,34.6,17.2c-1.7-3.7-7.2-5.9-6.6-10.5   c10.8,2.9,21.3,9.3,31.2,14.8c30.1-1.6,60.1-6.1,89.8-11.1c23.8-4.3,44.4-16.8,67.2-24.4c0.1-0.9,0.2-1.7,0.3-2.7   c0.9,2.5,0.5,4.5,3,6.6c-0.3-2.1-0.6-3.6-0.8-5c1.6,0,3.3,0.3,4.8-1.4c0.1-0.9,0.2-2,0.3-3.1c1,5.7-0.8,12-3,17.3   c-49.2,23.5-105.1,28.5-158.8,32.4c-18.3-0.5-35.3-5.7-52-12.8c-13.2-5.4-22.8-16.8-36.5-21.7C164.6,180.8,155.9,177.5,152.2,169.1   z" />
	<path fill="#D69479" d="M167.4,126.5c23.1-0.2,49.6,3,65.3,22c-0.3,0.5-0.8,1-1.1,1.6c2.6,3,2.6,3,4.6,2.8   c-0.7-3.2-3.6-5.9-2.3-9.8c8.3,3.9,13.2,12.6,21.4,16c-0.1-1.6-0.2-3-0.3-4.3c5.9-3.3,7.8,9,20,6.5c38.3-4.5,73.3-29.3,109.2-43.6   c8.4-2.8,14.4-9,20.7-14.9c2.5-2.8,11-3.2,6.1,2.1c0-0.4,0.1-0.9,0.1-1.8c-28.8,33.5-34,39.3-77.9,49.3   c-24.1,8.3-48.7,22.7-75.1,14.7c-13.1-1.7-13.1-3-23.5-9.4c-6.4-2-13.3-3.1-18.2-8c-12.8-13.1-29.9-16.6-47.3-17.4   C168.3,130.1,167.3,128.5,167.4,126.5z" />
	<path fill="#E6CCBB" d="M427.7,185.6c-2.9-7.7,4.6-9.7,10.6-10.2c-0.9-2-3-2.9-3.8-4.6c2-1.5,10.8-6,14-7.1c0.1-0.3,0.2-0.7,0.3-1   c3.4,0.5,6.6,1,10.1,1.6c3.5-3.1,3.9-7.6,5.6-11.8c1.2,0.3,2.3,0.5,3.5,0.8c0.3,7.5,2.4,10.2,10.2,9.2c3,5.5,3.9,5.9,9.2,4.3   c0.4,0.7,0.9,1.3,1.3,2c3.2,1.1,6.4,1.2,9.4-0.6c6.1,7.2,13.9,1,12.3-7.1c1.9-0.2,3.4,0.6,4.9,1c-0.3,4.6-1.5,9,0.6,13.5   c9.3,1.8,18.4,3.6,27.3,5.4c6-4.8,5.8-14,8.2-20.9c0.3,0.7,0.1,1,0.7,1.6c3.3,0.1,6.9,0.1,10.7,0c3-7.6,2-17.6,12.6-19.4l0,0   c-0.4,2-1.7,3.7-1.6,5.9c-1.2-0.8-1.9-0.1-1.3,1c-10.4,31.3,14.1,41.1,41,34.4c17.4-2.2,29.2-18.1,44.4-24   c-14.1,9.2-23.1,25.7-38.6,32.4c-14.1,4.1-28.7,4.2-43,0.8c-3.8-0.3-6.4-3.5-10-4.5c-5.6-1.6-11.7-1.6-17.3-3.4   c1-0.3,2.3,0.2,2.9-1.3c-4.3-2.3-11.1-2.3-15.6-1C477.4,163.6,479.3,183.4,427.7,185.6z M566.5,164c-4.1,2.2-5.2,16.6-0.6,17.8   C566.9,176,564.9,170.2,566.5,164z M567.9,158.4c1-1.8,2-3.4,1.3-5.5C567,153.1,565.5,157,567.9,158.4z" />
	<path fill="#B28C7D" d="M781.2,174.3c0.3-0.1,0.4-0.2,0.7-0.3c1.6,4.3,5.2,6.9,6.5,11.3c-25.5,7.9-52.9,0.2-78.7-1.8   c-21.9-2.5-44.5-3.4-65.9-5.9c8.1-12.2,22.1-18.1,32.6-28c3.2,2.2,6.9,3.7,9.3,7c-5.6,6-20.3,10.4-23.4,16.6   c11.2,1.1,20.7-6.5,30-11c9.4,9.3,24.5,11.2,36.8,8.6c1.7,1.6,3.6,2.4,5.9,1.2l-0.1-0.1c0,0.6,0,1.1,0,1.8   c11.3-2.9,23.5-1.8,35.2-1c2.2,2.2,2.8,1.1,5.1-0.2c1.5,0,3,0.1,4.5,0.1c0.9,0.8-0.5,1.5,0.6,2.1   C780.6,174.6,780.9,174.5,781.2,174.3z" />
	<path fill="#977264" d="M643.7,177.6c21.4,2.6,44,3.4,65.9,5.9c25.8,1.9,53.1,9.7,78.7,1.8c-0.1-2.6-2.2-3.8-3.5-5.6   c1.4,0.8,1.7-1,2.8-1.2c1.7,1.8,3.3,2.2,5.8,1.7c0.1,2,0.1,4,0.2,6.4c1.3-0.9,2.3-1.5,3.6-2.3c-0.3,1.1-0.4,2-0.7,3   c0.3,0.4,0.8,1,1.2,1.7c-5.2,5.8-12.1,8.9-19.8,6.6c-12.5-1.4-25.1-1.6-37.6-3.6c-33.9-1.7-67.4-7.1-101.2-8.2   C639.4,182.7,640.8,180.7,643.7,177.6z" />
	<path fill="#E6CCBB" d="M565,105.6c-0.3-0.7-0.5-1.5-0.8-2.2c0.4,0.2,1,0.4,1.7,0.8c-1.2-4.2-0.3-9.3-2.9-12.3   c-0.3,0.2-0.6,0.5-1,0.8c-0.2-2.8,1-5.5,0.7-8.3c0-0.7-0.1-1.5,0.7-1.8c0.1,0.7,0.2,1.4,0.3,2.6c1.5-2.4,3-4.3,2.5-6.9   c-0.5,0.1-0.9,0.1-1.2,0.1c0.4-5.4,3.6-9.1,7.6-12.5c1,0.1,1.9,0.1,2.9,0.1c0.5,6.5-3,13-3.3,19.5c-1.5,8.5,4.4,18.2,10.9,23.3   c1.9,2.3,5.2,1.2,7.5,3c4.4,2,9.3,0.3,14,1.1c0.1-1.7,0.2-3.6,0.3-5.6c0.7,6.1,0.6,12.2,2.1,18.3c-1.6-1.3-3.2,0-5.1-0.1   c0.5-0.3,1-0.7,1.5-1.1c-2-0.2-3.9-1.1-5.9-0.2c0.4,0.5,0.7,0.9,1,1.2c-3,0-6,0-8.9,0c1.5-0.3,3-0.5,4.7-0.9   c-0.6-1.8-2.1-1.7-3.6-1.9c-11.9,0.1-19-8.9-24.3-18.3C565.8,105,565.5,105.2,565,105.6z M569.3,72.1c-2,1-2,1-1.6,2.3   C568.7,74.2,569.4,73.7,569.3,72.1z" />
	<path fill="#977264" d="M519.4,30.1c-4.3,14.2-15.5,24.8-20.2,39c-2.3,7.9-3.3,16.3-6.2,24c-0.5,1.5-1.6,3.1-0.3,4.8   c-4.3,15.1-10.1,30.4-18.6,43.5c0.2,6.5,0.3,12.2,0,18.7c1.1,0.1,2,0.2,3,0.3c-1.8,1.6-4.3,0.2-6.2-0.7   c-6.9-23.1,12.2-40.4,16.3-61.8c2.8-13.3,4.6-27.1,10.1-39.6c5.6-8.7,12.2-17,16.9-26.1C515.8,31.4,517.6,30.8,519.4,30.1z" />
	<path fill="#D59479" d="M365.5,146.6c-12.8,8.1-28.6,10.2-42.5,16c-41.3,20.1-66.7,14-106.5-4.3c7.8-1.8,16.4-0.6,22.6,4.9   c6.8,5.9,16.1,3.5,23.7,7.4C295.1,180.1,332.5,151,365.5,146.6z" />
	<path fill="#EBDDB8" d="M79.2,95.2c0.2,16.1,40.5,22.7,53.6,24.8c4.3,5.7,2-3.2,3.4-5.2c0.1,1.9,0.2,3.7,0.3,5.7   c0.6,0.1,1,0.1,1.6,0.2c1.2-2.3-0.6-5.3,1.1-7.1c0.4,3.5-1.1,8.1,1.3,10.9c1.6-0.2,1.1-1.5,1.6-2.2c0.4-0.1,0.9-0.2,1.5-0.3   c0.1-1.9-0.4-3.8,0.7-5.5c0.4,3.1-1,7.5,1.7,9.7c0.7-0.1,1.3-0.2,1.8-0.3c0.1,1-0.2,2.2,0.7,3c0,0.3-0.1,0.7-0.1,1.2   c-23.5-12.7-44.1,0.8-69.7-21.9C78.6,104,78,99.2,79.2,95.2z" />
	<path fill="#EBDDB8" d="M111.7,162.3c0.1,0.7,0.3,1.4,0.4,2.2c0.8,0,1.4,0,2.2,0c1-1.5-0.3-3.6,1.1-4.9c0.5,2.5-0.9,10.2,3.2,9   c0.2-0.8,0.3-1.6,0.5-2.5c0.7,0.1,1.3,0.2,2.1,0.3c0.1-1.6-0.4-3.3,0.7-4.6c0.5,3-1,7,1.5,9.2c3-2.1,0.3-5.1,2.1-7.9   c0.3,1.8-0.2,3.8,0.4,6.2c2.8-2.8-0.4-7.6,1.8-10.4c0.1,4.5,0,8.6,0.3,13.1c-18.9-0.3-71.1-4.1-64.1-32.9c0,1.8,0,3.6,0,5.6   c7.2,1.5,10.3,9.4,16.8,12.4c8.3,4.1,17.8,6.5,27.2,6.8c0.1-1,0.3-1.9,0.3-2.9c0.3,1.5,0.6,2.9,1,4.7   C111,165,111.1,163.9,111.7,162.3z" />
	<path fill="#9491A0" d="M772.4,151.6c11.7-16.6,4.5-36.6-11.3-47.6c20.1-0.2,33.2,35.3,20.9,49.9c-2.3-0.5-4.3-2-6.8-1.5   C774.1,152.6,773.2,152.5,772.4,151.6z" />
	<path fill="#050404" d="M551.2,160.2c-2.3,6.9-2.2,16.1-8.2,20.9c-8.9-1.7-18.1-3.6-27.3-5.4c-2.1-4.4-0.9-8.9-0.6-13.5   c-1.6-0.4-3-1.2-4.9-1c1.6,8.1-6.2,14.3-12.3,7.1c0.5-0.9,1.3-2.3,0-2.9c0.2-0.5,0.4-1,0.6-1.6c0.3,0.3,0.6,0.6,0.9,1   c0.1,1.4-0.6,2.9,1.1,4.3c5.1,0.6,8.2-0.3,7.5-6.2c-0.3-6.9,5.3-12.6,4.4-19.6c0.3-0.2,0.8-0.4,1.2-0.7c0.2,1,0.3,1.8,0.3,2.8   c0.5-0.1,1-0.2,1.3-0.3c0-1,0-1.8,0-2.6c0.7-0.3,0.6-0.9,0.7-1.5c1,1.8,1,3.2,1.6,5.5c3.4-3.4,2-8.9,6.7-11.4   c8.8,1.2,17.8,3.3,26.7,5.2C554.9,146,551.4,153.7,551.2,160.2z M511.5,155.3c-0.9,1-1.6,2-1.2,3.5c1.6,0.5,3.1,1,4.7,1.4   c1.8-3.4,1.4-7.8,2.8-11.6c-1.8-1-1.8-1-3.7-0.9C512.6,150,511.8,152.5,511.5,155.3z M516.7,163.3c-0.5,3.5-1.9,7.6,0.5,10.8   c7.4,1.4,15,4,22.5,4.3c-0.3-12.7,2.3-25.3,7.1-37c-7.7-1.6-15.3-3-23-4.6C519.7,145,517.2,154.3,516.7,163.3z M542.5,179.6   c6.1-7.9,10.8-28.6,7.4-37.9C543.5,148.3,539.2,171,542.5,179.6z" />
	<path fill="#E5CBBA" d="M465.2,122.9c0.6-0.1,1.2-0.2,2-0.3c7.1-19.2,13.1-39.1,23.5-56.9c-4.7,14.7-6,30.1-10.2,44.9   c-4.3,7.8-8.7,15.8-11.5,24.3c-0.3,0-0.7,0.1-1.1,0.1C467.1,131.1,469.4,125.3,465.2,122.9z" />
	<path fill="#977264" d="M662,138.7c-4.9-1.9-9.5-1-14.3-3.4c1.9-3.7,8.5-2.3,11.8-4.7c2.5-1.2,5.3,1,7.9,0.1   c4.5-5.6,8.1-13.5,15.6-14.9c-5.2,8.4-5.1,19.1,1.3,26.9c-0.3,0.3-0.5,0.4-0.7,0.6c-7-2.6-14.1-4.8-21.4-6.5   C662.1,137.4,662,138,662,138.7z" />
	<path fill="#977264" d="M548.4,49.7c15,6.3,32.9,3,48.8,2.3c10-0.1,20.2-6.2,29.9-3.5c-1.6,3.8-5.6,2.4-7.9,4.3   c-1-0.3-2-0.5-2.8,0.6c-0.9,0.1-1.8-0.3-2.3,0.9c-22.3-1-45.7,5.8-68.2,1.9c0.1-1.3,0.2-2.3,0.3-3.3c0.4-0.6,1-1.2,1.4-1.7   c-0.7-0.7-1.8-1-0.6-2C547.1,49.9,547.7,49.9,548.4,49.7z" />
	<path fill="#977264" d="M682.1,167.7c-0.8,0.9-1.8,1.3-3,1.3c-1.3-0.9-1.3-0.9-2.6,0.4c0.3,0.3,0.8,0.4,1.2,0.4   c-5,1.6-10.3,4.2-15.6,3.3c-0.3-1.4,0.7-1.9,1.5-2.4c7.3-4.9,15.3-8.6,22-14.2c-2.4-3.3-6.1-4.9-9.3-7c0.7-1.6,1.9-3,3.4-4.3   c7.4,0.6,13.4,5.1,19.3,9.6c-5.4,1.5-9.7,5.5-13.3,9.5c-1.9,0.4-3.7,1-5.1,2.8C681.4,167.5,681.8,167.6,682.1,167.7z M669,171.1   c1.3,0,1.8,0.3,2.1-0.9C670.1,169.6,670,170.2,669,171.1z" />
	<path fill="#977264" d="M507.1,167.6c-0.7,2.7-4.9,1-6.7,1.5c-1.6-1.4-1-2.9-1.1-4.3c1.1-1.7-0.2-3.2-0.2-5   c-2.3,2.8,0.5,4.8-2.9,7.8c-2,0-4,0-5.9,0c-2.8-2.9-0.2-7.2-2.3-10.5c-2.4-0.3,0.1,6.1-1.3,8.3c-1.6,0.1-3,0.2-4.3,0.3   c-4.3-3-1.6-7.8-3.6-11.6c2.5-1,4.9-1.5,6.8,1c1.2-0.4-0.1-2,1.3-2.5c0,0.9,0.1,1.7,0.1,2.7c0.5,0,0.9,0,1.2,0   c1.1,2,3.6,1.6,5.5,1.6c0.7,0.8,1.2,1.4,1.9,2.2c1.2-1.1,2-2.4,2.5-4.3C502.3,158.9,506.3,161.7,507.1,167.6z" />
	<path fill="#977264" d="M608.4,107.5c0.1,2.5,0.2,5,0.2,7.6c10.3,2.1,27-8.6,26.6-2.3c-1.2,1.6-2.6,3-4.3,4.3   c-0.1-0.4-0.3-0.8-0.4-1.3c-1.7,1.6-1.7,1.6-1.8,3.4c-0.6,0-1.1,0.1-1.6,0.1c-0.4,0.8-0.8,1.4-1.1,2.1c-4.7-1.2-10.9,5.6-16.6,1.9   C608.2,118.3,606.8,112.4,608.4,107.5z" />
	<path fill="#373A46" d="M455.2,153.2c-0.6,2.9-0.6,5.3-0.2,8.2c-7.3,0-14.9-2.4-22.1-4c-2.5-0.3-1.9-10.2-0.9-11.6   c0.1,1.1,0.2,2.3,0.3,3.6c7.9,0.6,14.9,3.1,22,6.5c0.2-1.6-0.2-3,0.8-4.2C455.1,152.3,455.2,152.7,455.2,153.2z" />
	<path fill="#967264" d="M725.6,172c-11.7-0.3-24.7-0.4-33.3-9.7c-2.3-0.1-2.9,2.7-5,2.5c2.2-3.4,6.2-4.6,9.6-6.6   c1.1,0.7,2.2,1.4,3.3,2.1c-0.3,1.6-2,0.3-2.5,1.6c2.3-0.3,4.3,0.3,6.2,1.3c0,0.8,0,1.6,0,2.7c2.1,0.7,3.5-0.7,5.6-0.3   c2.1,0.2,2-1.4,3-3c0.3,1.2,0.5,1.9,0.8,2.8c0.9,0.3,1.9,0.7,2.9,1c1-0.6,1.8-1.1,3-1.8c0.5,1.1,1,2,1.4,2.9   c-0.4,0.8-0.9,1.4-1.5,2.5c3.2-0.7,4.7-0.8,7.7-0.7c-0.7,0.5-1.2,1-1.8,1.6C725.1,171.2,725.4,171.5,725.6,172z" />
	<path fill="#070506" d="M455.2,153.2c0.5-9.5,2.9-19.7,6.9-28.6c-7.7-1.6-15.1-3-22.6-4.4c-6.9,10-8,23.5-8.3,35.2   c-1,0.5-0.5,1.6-0.8,2.3c-2.2-8.4,1.7-34,9-39.6c8.5,1.2,17.1,3.4,25.7,4.8c4.2,2.4,1.9,8.2,2.5,12.2c0.5-0.1,0.8-0.1,1.1-0.1   c-0.1,2.8-1.5,0.9-2.8,0.2c-0.8-3,1.7-8.9-1.6-10c-6.7,10.4-8,24.4-7.7,36.7C454.5,159.8,457.3,155.3,455.2,153.2z" />
	<path fill="#4B4F5D" d="M466,127.2c0,2.6,0.1,5.3,0.1,7.9c-1.2,0.3-2.5,0.6-3.7,0.9c-0.6,1.4-1.6,2.3-1.2,3.9   c1.9-3,4.1-2.9,6.9-1.6c-0.2,2.8-0.3,5.6-0.6,8.3c-2.3,0-4.5-1.2-6.9-0.3c-0.4-0.3-0.9-0.7-1.6-1.2c-0.5,3.1-0.7,6.4,3.2,6.9   c0,3.7-1.6,7.3-4,10.4c-0.5-0.2-1-0.4-1.6-0.6c-0.7-11.5,1.4-23.3,5.8-33.9C463.7,128,465,128,466,127.2z M460,141.5   c-0.6,1.4-0.6,1,0.1,2.6C460.4,142.9,461.5,142.6,460,141.5z" />
	<path fill="#B08B7C" d="M158.2,127.9c-7.4-7.4,2.8-26.4,14.8-20.5c-8.2,4.3-11.3,12.7-8.2,21.3C162.4,129,160.5,127.8,158.2,127.9z   " />
	<path fill="#908993" d="M772.4,151.6c0.7,1,1.7,1,2.9,0.9c2.5-0.5,4.5,1,6.8,1.5c-3.2,5.6-7.8,9.2-13.4,12.3   c-5.6-0.6-10.1,1-16.1,1C760.9,164.3,767.4,158.6,772.4,151.6z" />
	<path fill="#B08B7C" d="M142.9,156.8c1.7-3.1,3.8-7.7,7.6-8.6c6.3,0.2,14.2-3.6,19.1,2c-11.9-2-23,1.1-22.4,15.3   c-1.6,0.2-3,0-4.3-1.5C142.9,161.7,142.9,159.2,142.9,156.8z" />
	<path fill="#F8F9F9" d="M118.7,126.6c9.7-0.2,17.1-0.2,25.6,3.5C136.6,136.3,125.6,132.5,118.7,126.6z" />
	<path fill="#947264" d="M771.2,173.6c-8.4-2.5-18.5-1.2-27.5-1.6c5.6-6.2,14.9-0.4,22.2-3c2.4-0.5,4.6,1.9,6.8-0.1   C773.8,171.4,772.4,172.4,771.2,173.6z" />
	<path fill="#967163" d="M651.8,151.7c2.3-5.6,10.1-7.2,13.8-11.5c2.4,0.2,4.4,1.6,6.6,1.9C670.8,145.7,656.3,150.1,651.8,151.7z" />
	<path fill="#936F61" d="M142.9,156.8c0,2.4,0,4.9,0,7.2c1.2,1.5,2.7,1.6,4.3,1.5c0,3.4,2,5.6,3.6,8.6c-2.3,0.2-4.3-1-6.2,0.3   C139.4,170.7,139.6,161.7,142.9,156.8z" />
	<path fill="#0D0908" d="M683.6,143.2c0.2-0.2,0.3-0.3,0.7-0.6c-8.1-9.4-6.6-26.4,5-32.1c0.3,0.3,0.7,0.6,1,1   c-9.9,6.3-12.2,21.2-4.3,30.1c-0.8,0.8-0.8,0.8-0.6,2C684.7,143.9,684,143.9,683.6,143.2z" />
	<path fill="#DAD3B0" d="M162.7,135c7.3-1.5,13.6,0.6,20.8,0.2C180.4,138.3,165.4,138.6,162.7,135z" />
	<path fill="#E3D6B2" d="M131.5,170.5c1.6,2.2,4.3,2.2,6.7,2.7c0.2-0.2,0.3-0.4,0.6-0.8c1.9,2.8,4,4.8,7.2,6.2   c-5.5,2.1-9.5-2.7-14.3-4.9C131.5,172.9,131.5,171.7,131.5,170.5z" />
	<path fill="#E2D4B1" d="M148.6,123.6c1.2,0.9,2.3,1.8,3.6,2.7c1,0,0.8-0.9,1-1.5c1.5,3.7,4.3,6.5,8.1,9.5   C154.6,134.6,149.3,130.1,148.6,123.6z" />
	<path fill="#373944" d="M458.9,146.8c0.1-0.4,0.1-0.9,0.2-1.7c0.7,0.5,1.1,0.9,1.6,1.2c2.3-0.9,4.5,0.4,6.9,0.3c0,1.3,0,2.6,0,4   c-2.4,0.8-4.4-0.8-6.2-0.7C459.8,149.1,460.5,147.2,458.9,146.8z" />
	<path fill="#EDD2C3" d="M536.1,182.7c4.5-1.3,11.4-1.2,15.6,1c-3.1,3-8.9,0.3-12.8-0.3C538.4,182.2,537.1,183.3,536.1,182.7z" />
	<path fill="#1A110E" d="M398.6,116.9c3.3-5.1,7.6-9.5,12.4-14.1c-0.1,1-0.1,1.4-0.1,1.8c-3.8,4.6-7.6,9.2-11.5,13.7   C399.5,117.7,399.4,117.1,398.6,116.9z" />
	<path fill="#8E6D5F" d="M784.7,179.2c-1-1.7-1.9-3.5-2.9-5.2c0.5-0.6,1-1.2,1.6-1.9c1.3,0.3,2.5,0.4,3.8,0.7c0,0.8,0,1.6,0,2.6   C786.6,176.6,784.8,177.4,784.7,179.2z" />
	<path fill="#8F6A5D" d="M158.2,127.9c2.3-0.1,4.3,1.1,6.5,0.8c0.4,1,0.9,2.1,1.4,3.2c-1.3,0.9-2.5,0.4-4,0.4   C160.9,130.8,159.6,129.4,158.2,127.9z" />
	<path fill="#312520" d="M692.3,160.4c-1.7,1.4-4.1,2.2-5.1,4.3c-1.6,1-3.3,2-5,3c-0.4-0.2-0.9-0.3-1.6-0.5c1.4-1.8,3.1-2.3,5.1-2.8   c1.2-2.6,4-3.4,5.9-5.4C691.6,159.7,691.6,160.3,692.3,160.4z" />
	<path fill="#221915" d="M270.2,107c-0.1,1.8,0.9,4.6-1.3,5.5c-0.9,0.1-1.6-0.4-1.5-1.1c0.6-2.2,0.1-4.6,1.4-6.6   C269.2,105.5,269.7,106.3,270.2,107z" />
	<path fill="#282929" d="M818.4,113.3c-0.2-0.7-0.3-1.3-0.4-2.1c1-0.7,2-1.4,3.2-2.3C820.2,112.3,820.2,112.3,818.4,113.3z" />
	<path fill="#81685C" d="M779.7,172.7c-1.5,0-3-0.1-4.5-0.1c1-1.2,1.8-2.4,3-3.5C778.7,170.3,779.3,171.5,779.7,172.7z" />
	<path fill="#937468" d="M515.2,142.4c0,0.8,0,1.6,0,2.6c-0.4,0.1-0.8,0.2-1.3,0.3c-0.1-1-0.3-1.7-0.3-2.8c-0.4,0.3-0.9,0.4-1.2,0.7   c-0.3-1.1,1-1.6,1.6-2.4C514.3,141.3,514.8,141.8,515.2,142.4z" />
	<path fill="#272A2A" d="M766.7,80.1c-1,0.1-1.6,0.1-2.3,0.1c-0.4-0.9-1.6-1.5-0.8-2.9C764.9,77.8,765.7,78.8,766.7,80.1z" />
	<path fill="#6F7A7A" d="M823.9,178.5c-0.3,0-0.5,0-0.8,0c0.1-2,0.2-3.9,2.2-6C825.1,175,823.5,176.6,823.9,178.5z" />
	<path fill="#1D1D1D" d="M790.3,84.1c0.5-0.7,0.9-1,1-1.3c1,0,1.3,0.7,0.9,2.6C791.7,84.9,791.2,84.6,790.3,84.1z" />
	<path fill="#6B5349" d="M734.9,172.1c0.6-1.3,1.6-2.4,2.6-4C737.7,170.9,737.4,171.3,734.9,172.1L734.9,172.1z" />
	<path fill="#1D1D1D" d="M792,88.6c0.5-0.3,1-0.8,1.9-1.3c0.1,0.9,0.2,1.4,0.2,1.8C793.1,89.8,792.5,89.7,792,88.6z" />
	<path fill="#6C8170" d="M148.6,177.1c1.8,0.1,3.7-0.3,6.1,0.3c-2.3,0.7-4.3,0.2-6.1,0.3C148.7,177.5,148.7,177.3,148.6,177.1z" />
	<path fill="#4E443D" d="M760.9,109.8c-1.9-0.3-1.9-0.3-2.3-2.1C760.8,107.7,760.8,107.7,760.9,109.8z" />
	<path fill="#50423A" d="M778.2,169.1c-0.4,0.4-1,1-1.4,1.4c0.1-0.9,0.2-1.7,0.2-2.6C778.3,167.7,778.2,168.4,778.2,169.1z" />
	<path fill="#090807" d="M148.8,124.9c0.2,0.5,0.4,1,0.6,1.6c-1.1,0.5-0.6,1.6-0.8,2.3c-0.9-0.9-0.6-2-0.7-3   C148.2,125.5,148.5,125.2,148.8,124.9z" />
	<path fill="#B2B4B4" d="M832.3,160c-0.5,0-0.8-0.7-1-1.1C832.2,157.6,833.1,159,832.3,160z" />
	<path fill="#D6DEDE" d="M797.3,74.2c0.6,0.5,1,1,1.6,1.5C797.6,77.6,796.6,75.8,797.3,74.2z" />
	<path fill="#272626" d="M715.2,96c1.1,0.6,0.7,1.6-0.3,1C714.9,96.7,715,96.5,715.2,96z" />
	<path fill="#394040" d="M832.2,147.3c-0.7-0.5,0.1-1.6,0.7-0.9C832.7,146.7,832.5,147,832.2,147.3z" />
	<path fill="#E6CCBB" d="M536.8,182.8c0.8,0,1.7-0.3,2.3,0.6C538.3,183.3,537.5,183.1,536.8,182.8z" />
	<path fill="#C8D8BC" d="M148.6,177.1c0,0.3,0.1,0.4,0,0.7C147.1,178.1,147,176.7,148.6,177.1z" />
	<path fill="#92A5A5" d="M218.8,155.2c-0.1-0.3,0-0.4,0.1-0.6C220.2,154.7,219.7,155.7,218.8,155.2z" />
	<path fill="#4D4D4D" d="M747.7,72.7c-0.3-0.3-0.4-0.5,0-0.8C748,72.1,747.8,72.3,747.7,72.7z" />
	<path fill="#8E6D5F" d="M781.2,174.3c-0.3,0.2-0.6,0.3-0.9,0.4C780.6,174.6,780.9,174.5,781.2,174.3z" />
	<path fill="#92A5A5" d="M218.9,154.6c-0.3-0.2-0.5-0.4-0.8-0.6C218.3,154.2,218.6,154.4,218.9,154.6z" />
	<path fill="#32201B" d="M415.6,166.1c-7.6-6.9-14.5-14.8-20.5-23.1c1.4-1.4,2.3,1,3,1.7C403,152.6,411.5,158.2,415.6,166.1z" />
	<path fill="#3C261F" d="M420.3,131.8c-2.6,2.1-7,1.1-10.5,1C411,130.4,417.9,131.6,420.3,131.8z" />
	<path fill="#32221C" d="M417.6,173.5c0.3,1.5,0.5,3,0.8,5c-3.3-3.4-2.9-6.6-3-10.9C417.6,169.1,417,171.2,417.6,173.5z" />
	<path fill="#3E2A23" d="M265.7,105.7c0.3,2.6-0.5,4.8-1.7,7.1C262.1,111.8,263.8,105.9,265.7,105.7z" />
	<path fill="#452D25" d="M388,138c2.3-0.3,3.8,0.9,4.7,3C390.4,140.3,388.8,139.7,388,138L388,138z" />
	<path fill="#603D33" d="M402.4,133c2.4-1.1,2.7-1,3.6,0.3C404.8,134,403.8,134,402.4,133z" />
	<path fill="#3F2822" d="M272.4,118.8c-1.9-0.8-1.6-1.8-1.3-3.1C272.8,116.3,272.2,117,272.4,118.8z" />
	<path fill="#462C25" d="M388,138c-1.1,0.2-2.1,0.2-2.7-1.1C386.7,136.1,387.4,136.9,388,138L388,138z" />
	<path fill="#040303" d="M565,105.6c0.3-0.3,0.7-0.6,1.3-1c5.3,9.4,12.5,18.4,24.3,18.3c1.5,0.2,3,0.1,3.6,1.9   C581.4,128,566.3,119.1,565,105.6z" />
	<path fill="#191614" d="M562.2,92.6c0.3-0.3,0.7-0.5,1-0.8c2.5,3,1.6,8.1,2.9,12.3c-0.8-0.3-1.2-0.6-1.7-0.8   C563.1,99.8,562.5,96.2,562.2,92.6z" />
	<path fill="#3F3733" d="M565.1,78.2c0.3,0,0.7-0.1,1.2-0.1c0.4,2.6-1,4.4-2.5,6.9C563.2,82.1,564.3,80.7,565.1,78.2z" />
	<path fill="#0B0404" d="M598.5,125.6c-0.3-0.3-0.6-0.7-1-1.2c2-1,3.9,0,5.9,0.2c-0.5,0.3-1,0.7-1.5,1.1   C600.7,125.6,599.6,125.6,598.5,125.6z" />
	<path fill="#090404" d="M572.4,149.3c-0.6-1.1,0.1-1.9,1.3-1c-0.1,0.2-0.1,0.3,0,0.4c-0.3,0.3-0.6,0.5-1,0.8   C572.7,149.4,572.5,149.3,572.4,149.3z" />
	<path fill="#E6CCBB" d="M575.2,142.4c0.1-0.2,0.2-0.3,0.3-0.5C575.4,142,575.3,142.2,575.2,142.4L575.2,142.4z" />
	<path fill="#E6CCBB" d="M572.8,149.5c0.3-0.3,0.6-0.5,1-0.8C573.6,149.2,573.3,149.5,572.8,149.5z" />
	<path fill="#150E0C" d="M535.1,28.2c0.3,0.9,0.4,1.5,0.6,2.2c-1.6,1.1-3,2.1-4.7,2.2C529.1,30.3,532.9,28.7,535.1,28.2z" />
	<path fill="#060404" d="M479.3,147.2c-0.6-1.8-0.5-3.5,0.1-5.2C480.7,143.3,480.6,143.7,479.3,147.2z" />
	<path fill="#362622" d="M527.2,38.9c0.4,0.4,0.6,0.6,0.9,0.8c-0.4,1-0.9,2.1-2.6,2.3C525.4,40.4,526.2,40,527.2,38.9z" />
	<path fill="#2E211E" d="M498.7,146c2.6,1,1,2.2,0,4C498.7,148.3,498.7,147.2,498.7,146z" />
	<path fill="#141110" d="M488.3,155.1c-0.3,0-0.7,0-1.2,0c0-1-0.1-1.8-0.1-2.7C488.7,152,488.3,154.1,488.3,155.1z" />
	<path fill="#3D312C" d="M480.9,138.4c0.6,0.9,0.5,1.6-0.3,2.4C479.4,140.2,479.5,138.7,480.9,138.4z" />
	<path fill="#513E38" d="M499.7,142.6c1.3,0.7,1.3,0.8-0.1,2.5C499.1,144.1,499,143.3,499.7,142.6z" />
	<path fill="#4D3732" d="M490.9,144.7c0.6,0.8,0.2,1.3-0.4,1.8C489.6,146.1,490,144.7,490.9,144.7z" />
	<path fill="#2B1F1C" d="M548.4,49.7c-0.6,0.2-1.2,0.3-1.5-0.6c0.5-0.6,0.6-1.6,2-1.3C548.7,48.5,548.5,49.1,548.4,49.7z" />
	<path fill="#110504" d="M616.4,53.4c0.7-1.1,1.7-0.9,2.8-0.6C618.3,53.6,617.6,54.5,616.4,53.4z" />
	<path fill="#463531" d="M482.4,136.5c-0.9-0.5-0.3-2.3,0.7-1.7C483.8,135.4,483.4,136.5,482.4,136.5z" />
	<path fill="#503C36" d="M490.7,141.9c-0.7-0.9-0.8-1.1,0.2-1.5C491.5,140.7,491.2,141.2,490.7,141.9z" />
	<path fill="#311E1B" d="M500.7,139.8c-0.1,0.3-0.3,0.7-0.3,1c-0.2-0.1-0.4-0.2-0.6-0.3c0.2-0.3,0.3-0.7,0.5-1   C500.4,139.7,500.5,139.7,500.7,139.8z" />
	<path fill="#3E211D" d="M529.9,35.7c-0.3,0.6-0.9,0.7-1.4,0.2C528.9,35.2,529.4,35.2,529.9,35.7z" />
	<path fill="#2A1F1B" d="M645.1,87.4c1.6,2.4-1.6,8.1-3,8.3C642,93.8,643.4,89.7,645.1,87.4z" />
	<path fill="#382B26" d="M628.7,119.2c0.1-1.8,0.1-1.8,1.8-3.4c0.2,0.5,0.3,0.9,0.4,1.3C630.1,117.8,629.4,118.5,628.7,119.2z" />
	<path fill="#35201D" d="M661.3,100.5c1.1-1,2.3-1.7,4.6-1.2c-1.7,0.8-3,1.3-4.3,1.9C661.6,100.9,661.5,100.7,661.3,100.5z" />
	<path fill="#191411" d="M647,80.3c0.5,1.5,0.5,1.5,0.1,3.1C645.8,82.1,645.7,81.7,647,80.3z" />
	<path fill="#1C0C0B" d="M675.4,97.3c-1.3,0.5-2.5,0.3-3.9,0.2C674.1,96,674.1,96,675.4,97.3z" />
	<path fill="#2B1F1B" d="M626.8,132.3c-1-1-1.6-1.6-2.5-2.5C626.1,129.4,626.5,129.9,626.8,132.3z" />
	<path fill="#1F1614" d="M657.6,101.4c0.8-0.1,1.6-0.3,2.8-0.4c-0.9,1.2-1.5,1.6-2.5,1.5C657.7,102.2,657.7,101.9,657.6,101.4z" />
	<path fill="#957163" d="M700.2,139.5c-1.3,0.5-2.4,1.1-3.6,0c0.4-0.1,0.9-0.2,1.4-0.3c-8.4-7.5-5.6-17.1,1.8-23.5   c-0.3-0.1-0.7-0.1-1-0.2c1.2-1.6,3.6,0.1,5-1.4c-1.1,4.6-4.5,8.6-5.4,13.5c-0.4,0.2-0.9,0.3-1.3,0.5   C699.6,131.4,699.1,135.6,700.2,139.5z" />
	<path fill="#0A0807" d="M733.4,119.9c-3.1-2.3-1-7.3,2.8-7.3c-1.2-1.6-1.6-3.2-1-5.3c0.4-0.2,0.9-0.5,1.4-0.7   c2.3,1.9,7.2,6.2,4.5,9.5c-0.3-1-1.6-5.6-2.3-5c0.2,0.1,0.3,0.2,0.6,0.3C739.8,114.4,737.5,124.6,733.4,119.9z M736.5,115   c-0.1,0.1-0.3,0.3-0.3,0.3c0.4,0.3,0.6,0.3,0.9-0.2C736.8,115,736.6,115,736.5,115z" />
	<path fill="#0C0A09" d="M733.5,143.1c0.7,1.5,1.4,3,2.1,4.3c-0.3,1-0.5,2-0.7,2.9c-0.9,0.5-0.6,1.4-0.6,2.3l0,0   c-1,0.6-1.2,1.5-1.4,2.5c1.6,0.7,1.6-0.9,2.7-1.1c0.3,0.3,0.6,0.6,1,0.9c-1.1,1.1-2.7,1.7-4.2,2.3c-0.3,0.7-0.4,1.3-0.6,1.9   c-3.2-1.5-2.3-5.9,0.5-7.6c-4.3,0.2-5.6-6.6-1.6-7.6C731.6,143.9,732.7,143.6,733.5,143.1z M732.5,146.6c0.3-0.4,0.3-0.7-0.2-0.9   C732,146.1,731.9,146.4,732.5,146.6z" />
	<path fill="#8B6A5D" d="M703.8,136.6c-0.4,1.5-0.9,2.9-1.3,4.3c-0.3-0.2-0.6-0.3-0.9-0.6c-1.8-7.5-2.4-17,3-23.2   c-0.3,3.8,1,7.8-1.6,11.2c1.6,2.8,0.6,5.4-0.3,8.1C703.1,136.4,703.5,136.5,703.8,136.6z" />
	<path fill="#090706" d="M745.2,105.9c9,4.5,1.4,16.4-2.3,22.5c-0.7-0.3-1.2-0.5-1.6-0.7C742.3,120.3,750.4,114.1,745.2,105.9z" />
	<path fill="#0C0908" d="M740.2,159.7c-0.3-2.1,0.7-3.9,1.4-5.9c3-5.3-5.3-11.8-1.3-16.2c3.1,1.6,1.5,6.2,3.6,8.9   C745.6,151,744.6,157.7,740.2,159.7z" />
	<path fill="#2D211D" d="M704.6,117c-5.5,6.2-4.8,15.6-3,23.2c-0.4,0-0.9,0-1.3-0.1c-1-4.1-0.7-8.6-3.2-12.1   c0.4-0.2,0.9-0.3,1.3-0.5c1.5-5.2,3.9-10.2,6.4-14.7c1.7,0.8,0.9,1.8,0.4,2.7C704.6,115.9,704.5,116.4,704.6,117L704.6,117z" />
	<path fill="#251B18" d="M698.8,115.6c0.3,0.1,0.7,0.1,1,0.2c-7.4,6.4-10.2,16.1-1.8,23.5c-0.5,0.1-1,0.2-1.4,0.3   C688.5,133.4,690.1,120.2,698.8,115.6z" />
	<path fill="#2C221E" d="M703.8,136.6c-0.3-0.1-0.7-0.1-1.1-0.2c0.9-2.7,1.9-5.3,0.3-8.1c2.6-3.3,1.4-7.4,1.6-11.2l0,0   c0.2,0,0.5,0,0.7,0l0,0c0.3,0.3,0.4,0.5,0.7,0.8c-0.3,3.4,1.4,7.2-1.4,10C705.9,130.8,705.3,133.9,703.8,136.6L703.8,136.6z" />
	<path fill="#271E1A" d="M710.4,126.2c0.7-0.9,1.3-1.6,1.9-2.5c-0.2-0.9-0.3-1.7-0.5-2.6c2.4-3.4,6.9-1.6,6.1,1.6   c-1.5-0.3-2-2.3-3.8-1.6c0,1,0,2,0,3.1C713.1,125.3,712.5,126.8,710.4,126.2z" />
	<path fill="#241210" d="M727,125.7c0.1-0.3,0.2-0.7,0.3-1.3c2.3,1.2,4.8,2.1,7.8,2c-2.4,2.7-4.9,1-7.4-0.1l0.1,0.1   C727.4,126.2,727.2,126,727,125.7L727,125.7z" />
	<path fill="#1A1210" d="M710.3,138c0.1-1,0.2-2.2,0.3-3.8c0-0.6-1.4-1.6-0.9-3.2C711.9,132.7,714.8,137.7,710.3,138L710.3,138z" />
	<path fill="#473A37" d="M733.5,143.1c-0.9,0.6-1.8,1-3,0.7c0.1-0.2,0.1-0.3,0.2-0.5c0.4-0.2,0.8-0.3,1.4-0.5   c-0.9-1.6-3-2.6-1.8-4.5C731.9,139.5,733,141.1,733.5,143.1z" />
	<path fill="#44352F" d="M736.5,154.7c-0.3-0.3-0.6-0.6-1-0.9c0.6-1.4,1.2-2.8,2-4.5C739.2,151.1,738.5,153.5,736.5,154.7z" />
	<path fill="#322E2A" d="M734.1,120.6c0.3,0.7,0.8,0.8,1.4,0.7c-1.3,1-2.3,2.8-4.1,2.7C731.4,122.2,733.1,121.6,734.1,120.6z" />
	<path fill="#1F1816" d="M710.3,138c1,1.6,2.5,1.3,4.1,0.9C715.4,141.2,708.1,140.6,710.3,138L710.3,138z" />
	<path fill="#3A2B27" d="M726.4,148c-0.3-1.6-0.3-2.9,0.2-4.2C728.2,145.1,728.1,146.3,726.4,148z" />
	<path fill="#14110F" d="M701,140.2c0.2,0,0.4,0,0.6,0c0.3,0.3,0.7,0.3,1,0.7c0,0.5,0,1,0,1.5c-0.6,0.6-1.2,1-2.3,0.5   c0-0.5,0.1-1.2,0.1-1.8C700.5,140.7,700.7,140.5,701,140.2z" />
	<path fill="#CFD3D3" d="M730,150.8c0.6,0.2,1.3,0.3,2.3,0.5c-0.9,0.8-1.5,1.4-2.2,2C728.7,152.3,728.7,152.1,730,150.8z" />
	<path fill="#261B18" d="M730.9,112.7c1,1.7,1,1.6-0.7,3.4C729.4,114.8,729.8,113.8,730.9,112.7z" />
	<path fill="#3B2C28" d="M727.7,126.4c0.3,2.3-2.2,1-2.7-0.6c0.8,0,1.4-0.1,2-0.1v-0.1C727.2,126,727.4,126.2,727.7,126.4   L727.7,126.4z" />
	<path fill="#664E45" d="M740.7,119.2c-0.4,0.5-1,1-1.5,1.6C738.6,119.2,738.6,119.2,740.7,119.2z" />
	<path fill="#E4E8E7" d="M730.6,140.8c0.4,0.6,1,1.2,1.5,1.9c-0.6,0.2-1,0.3-1.4,0.5C729.5,142.3,729.5,141.9,730.6,140.8z" />
	<path fill="#44352F" d="M735,154.1c-0.4,0.7-0.9,1.4-2.1,0.9c0.1-1,0.4-1.9,1.4-2.5C734.3,153.1,734.2,153.8,735,154.1z" />
	<path fill="#B9B5B2" d="M734.1,120.6c-0.4,0.3-0.8,0.6-1.2,1c-1.1-0.8-0.8-1.6,0.4-1.6C733.7,120.2,734,120.4,734.1,120.6z" />
	<path fill="#453731" d="M709.5,126.3c0.8,1.6,1.1,1.5,0.1,2.2C708.8,127.7,709,127.5,709.5,126.3z" />
	<path fill="#44352F" d="M734.2,152.5c0-0.8-0.3-1.6,0.6-2.3C735,151.1,735.2,152,734.2,152.5z" />
	<path fill="#8B6A5D" d="M705.2,117.1c-0.2,0-0.5,0-0.7,0c0-0.6,0-1.2,0.8-1.5C705.3,116.2,705.3,116.6,705.2,117.1z" />
	<path fill="#8B6A5D" d="M702.5,142.4c0-0.5,0-1,0-1.5C703.2,141.3,703.3,141.9,702.5,142.4z" />
	<path fill="#BFC8C8" d="M735.7,111.8c0.2,0.3,0.3,0.5,0.4,0.8c-0.4,0.1-0.8,0.1-1.2,0.2C735.2,112.4,735.4,112.2,735.7,111.8z" />
	<path fill="#8B6A5D" d="M703.8,136.6c0.3-0.5,0.5-1,0.7-1.5C704.6,135.7,704.6,136.3,703.8,136.6z" />
	<path fill="#8B6A5D" d="M701,140.2c-0.2,0.3-0.4,0.5-0.6,0.8c0-0.3,0-0.6,0-0.9C700.4,140.2,700.7,140.2,701,140.2z" />
	<path fill="#44352F" d="M734.9,155.9c0.3-0.2,0.5-0.3,0.8-0.5C735.4,155.6,735.2,155.8,734.9,155.9z" />
	<path fill="#8B6A5D" d="M705.9,117.8c-0.3-0.3-0.4-0.5-0.7-0.8C705.5,117.4,705.7,117.6,705.9,117.8z" />
	<path fill="#322E2A" d="M735.6,121.3c0.3-0.3,0.4-0.4,0.7-0.7C736.1,120.9,735.9,121.1,735.6,121.3z" />
	<path fill="#44352F" d="M735.7,155.4c0.3-0.3,0.5-0.4,0.8-0.7C736.2,155,736,155.1,735.7,155.4z" />
	<path fill="#090807" d="M148.6,123.6c0.1,0.4,0.2,0.9,0.3,1.3c-0.3,0.3-0.6,0.6-0.9,0.9c-0.6,0.1-1.1,0.2-1.8,0.3   c-5-2.7,1.6-29.6,7.6-22.7c-0.8,3.2-5.7,5.9-3.5,9.3c-2,2.8-2.7,6.1-3,9.5C147.6,122.7,148,123.1,148.6,123.6z" />
	<path fill="#050504" d="M142.1,122.2c-0.4,0.8,0,2-1.6,2.2c-4-2.9,1.1-31.6,7.3-24.7C144.2,106.5,142.1,114.2,142.1,122.2z" />
	<path fill="#070605" d="M136.3,114.7c-1.4,2.1,0.8,10.9-3.4,5.2c-1.4-2.8,3.8-29.8,7.9-21.8C140,103.8,136.8,109,136.3,114.7z" />
	<path fill="#080706" d="M127.3,118.1c-1.9-7.9-0.3-14.8,3.9-21c3.4-0.3,2.7,2.2,1.6,4C128.5,106,131.3,113.9,127.3,118.1z" />
	<path fill="#0B0A08" d="M120,113.7c-0.7-5.8-0.6-12.1,3.8-15.8c2,0.8,2.1,1.5,1.5,2.8C122.1,104.4,123.9,111.7,120,113.7z" />
	<path fill="#2B231F" d="M153.1,107c1.7-0.9,4.2-5.3,5.9-2.7c-1.8,2.5-5.1,3.5-6.6,6.3c-1-0.2-0.8-1-0.9-1.6   C152,108.4,152.6,107.7,153.1,107z" />
	<path fill="#6E6F61" d="M151.5,109.1c0.1,0.6-0.1,1.4,0.9,1.6c-0.8,0.7-1.5,1.4-2.3,2.1c-1.2-1.6-0.7-3.1,0.6-4.4   C151,108.5,151.2,108.8,151.5,109.1z" />
	<path fill="#C0BCA3" d="M151.5,109.1c-0.3-0.3-0.5-0.5-0.8-0.8c0.5-0.7,1-1.5,1.5-2.2c0.3,0.3,0.6,0.6,0.9,0.9   C152.6,107.7,152,108.4,151.5,109.1z" />
	<path fill="#070706" d="M119.1,166.2c-0.2,0.9-0.3,1.8-0.5,2.5c-6.4,2.8-1.9-28.4,3.2-18.5c-0.6,2.8-2.3,5.5-2.1,8.5   C118.5,161.1,119.3,163.7,119.1,166.2z" />
	<path fill="#080706" d="M125.5,163.2c-1.7,2.8,0.9,5.7-2.1,7.9c-3.4-5.4-1-15.8,1.2-21.6C129.7,147,125.1,160.6,125.5,163.2z" />
	<path fill="#090807" d="M111.7,162.3c-0.5,1.6-0.7,2.6-2.4,3.4c-0.9-5.8-2.9-13.3,1.5-17.9c1.2-1,3.1,0.4,2.7,1.8   C111.5,153.8,111.8,158.1,111.7,162.3z" />
	<path fill="#090908" d="M102.3,162.7c-5.4-8.5,3.2-16.8,3-10.4C102.8,155.6,105.6,160.2,102.3,162.7z" />
	<path fill="#EBDDB8" d="M119.1,164c-0.2-1.8-0.3-3.6,0.6-5.2C119.6,160.5,120.3,162.6,119.1,164z" />
	<path fill="#151211" d="M566.5,164c-1.6,6.2,0.5,12-0.6,17.8C561.2,180.6,562.4,166.2,566.5,164z" />
	<path fill="#37322E" d="M567.9,158.4c-2.4-1.4-0.9-5.2,1.3-5.5C569.8,155,568.9,156.5,567.9,158.4z" />
	<path fill="#462F2A" d="M677.9,169.9c-0.4,0-0.9-0.2-1.2-0.4c1.3-1.3,1.3-1.3,2.6-0.4C678.7,169.4,678.3,169.6,677.9,169.9z" />
	<path fill="#4B413B" d="M569.3,72.1c0,1.6-0.7,2.1-1.6,2.3C567.4,73,567.4,73,569.3,72.1z" />
	<path fill="#4C505E" d="M517.3,159c0.3-6.2,2.6-12.2,4.4-18c7.4,2.9,16.1,2,23.1,5c-2,6.2-3.3,12.4-4.4,18.7   c-5.3,0.1-10-2.8-15.3-3C522.3,161.6,519.5,161.1,517.3,159z" />
	<path fill="#4B4F5D" d="M542.5,179.6c-3.3-8.6,1.1-31.2,7.4-37.9C553.2,151,548.5,171.7,542.5,179.6z" />
	<path fill="#373A46" d="M539.7,171.3c0,2.3,0,4.5,0,7c-7.6-0.3-15.1-2.9-22.5-4.3c-1.9-2.6-1.7-6.6-0.6-9.4c0.1,1,0.1,2.2,0.2,3.2   c7,2.2,14.7,2.1,21.8,4.7C538.9,172.1,539.3,171.7,539.7,171.3z" />
	<path fill="#373A46" d="M544.8,146c-7-3-15.7-2.2-23.1-5c0.7-1.4,1.4-2.8,2.1-4.3c7.7,1.6,15.3,3,23,4.6   C546.3,142.9,545.9,144.6,544.8,146z" />
	<path fill="#4B505E" d="M539.7,171.3c-0.4,0.4-0.8,0.9-1.2,1.3c-7-2.5-14.8-2.4-21.8-4.7c-0.1-1.5-0.3-3-0.1-4.5   c7.6,2.1,15.4,3.7,23.1,5C539.7,169.4,539.7,170.3,539.7,171.3z" />
	<path fill="#373A46" d="M539.7,168.4c-7.7-1.3-15.5-3-23.1-5c0.1-1.5-0.3-3.1,0.6-4.4c2.2,2.2,5,2.6,7.8,2.9c5.3,0.2,10.1,3,15.3,3   C540.6,166,540.5,167.3,539.7,168.4z" />
	<path fill="#494D5B" d="M511.5,155.3c0.3-2.8,1.1-5.3,2.5-7.6c1.9-0.1,1.9-0.1,3.7,0.9c-0.6,2.8-1.2,5.5-1.8,8.2   C514.4,156.3,512.4,156.6,511.5,155.3z" />
	<path fill="#373945" d="M511.5,155.3c1,1.3,3,1,4.4,1.5c0,1.1,0.4,2.3-0.9,3.3c-1.5-0.4-3-0.9-4.7-1.4   C509.9,157.3,510.6,156.3,511.5,155.3z" />
	<path d="M498.5,163.8c-0.3-1.3-0.9-2.7,0.7-4.2c0,1.9,1.3,3.4,0.2,5C499.1,164.5,498.7,164.2,498.5,163.8z" />
	<path fill="#584139" d="M669,171.1c1-0.9,1-1.6,2.1-0.9C670.8,171.5,670.3,171.1,669,171.1z" />
	<path fill="#4C505E" d="M432,145.9c0-0.3,0-0.4,0.1-0.7c7.9,0,15.6,2.3,23.2,4.3c0.1,2.3-1.1,3.8-0.9,6.3c-7.1-3.3-14.1-5.9-22-6.5   C432.1,148.2,432.1,147.1,432,145.9z" />
	<path fill="#4C505E" d="M460.3,128.7c-1.9,5.6-3,11.5-4.4,17.3c-7.6-2.3-15.6-3.3-23.1-5c0.3-6,2.6-11.6,4.5-17.3   C444.8,125.5,453.1,125.9,460.3,128.7z" />
	<path fill="#363A46" d="M460.3,128.7c-7.2-2.8-15.5-3.1-23-5c0.4-1.4,1.1-2.6,2.4-3.5c7.5,1.5,14.8,3,22.6,4.4   C461.6,126,460.9,127.3,460.3,128.7z" />
	<path fill="#373A46" d="M432.7,140.9c7.5,1.8,15.5,2.9,23.1,5c0.1,1.3,0.1,2.5-0.6,3.6c-7.6-2.1-15.3-4.3-23.2-4.3   C432.1,143.8,431.7,142.1,432.7,140.9z" />
	<path fill="#313742" d="M466,127.2c-1,0.7-2.3,0.7-3.5,0.7c0.4-1,0.7-2.2,1.8-2.8C465.6,125.2,466.1,126.1,466,127.2z" />
	<path fill="#2B2D33" d="M460,141.5c1.5,1.1,0.3,1.5,0.1,2.6C459.4,142.5,459.4,142.9,460,141.5z" />
	<path d="M148.1,125.6c0.2-0.2,0.3-0.3,0.5-0.5C148.5,125.3,148.3,125.5,148.1,125.6z" />
	<path fill="#A7B9B8" d="M736.5,115c0.2,0.1,0.3,0.2,0.5,0.2c-0.2,0.5-0.4,0.4-0.9,0.2C736.2,115.2,736.4,115,736.5,115z" />
	<path fill="#B28C7D" d="M739.2,111.2c-0.2-0.1-0.3-0.2-0.6-0.3C739.2,110.4,739.2,111,739.2,111.2L739.2,111.2z" />
	<path fill="#D3D1D1" d="M732.5,146.6c-0.6-0.3-0.4-0.4-0.2-0.9C732.7,145.9,732.7,146.2,732.5,146.6z" />
	<path fill="#B28C7D" d="M727.7,126.5c-0.3-0.3-0.5-0.5-0.8-0.8C727.2,126,727.4,126.2,727.7,126.5z" />
</g>
</g></svg>