<?xml version="1.0" encoding="utf-8"?>
<!-- Generator: Adobe Illustrator 26.0.3, SVG Export Plug-In . SVG Version: 6.00 Build 0)  -->
<svg version="1.2" baseProfile="tiny" id="Layer_2_1_"
	 xmlns="http://www.w3.org/2000/svg" xmlns:xlink="http://www.w3.org/1999/xlink" x="0px" y="0px" viewBox="0 0 900 600"
	 overflow="visible" xml:space="preserve">
<g id="b_00000024698494776234567200000005443243772081992859_" display="none">
	<path display="inline" d="M408.7,104.5c0.2-5.7,2.5-12.5-1-17.6c-0.6,0.2-1.2,0.4-2,0.6c-0.8-2.3-2.4-3.1-3.8-4.8
		c-1.1,0-2.3,0-3.9,0c0.4-1.2,0.8-2.1,1.2-3.3c-1.2,0.2-2,0.4-3,0.5c-0.3-0.9-0.5-1.7-0.8-2.7c-0.8-0.3-1.8-0.6-3-1.1
		c0.4-0.6,0.8-1.1,1.2-1.7c-0.4-0.3-0.9-0.8-1.4-1.2c-1.2,0.2-2.6,1.1-3.2-1.2c0.3-0.7,0.8-1.7,1.4-3c-1.3-0.5-2,0.3-3,0.9
		c-1.6-1.1-0.4-2.1-0.1-3.2c-0.5-0.1-1-0.2-1.7-0.3c0.2-1.7-1.6-3.2-0.3-5c-0.5-0.6-0.9-1.1-1.3-1.6c0.1-1.3,0.2-2.5,0.3-3.9
		c-1.7-0.9-3.1-2.1-3.8-3.9c0.4-1.4,2.3-2.1,1.8-3.9c-0.5,0-1.1-0.1-1.6-0.1c-0.7-1-0.5-2.1-0.2-3.1c0.4-2-0.6-4.3,1.8-5.4
		c-0.7-1.3-1.7-1.3-3.1-0.5c-0.5-2.6,1.4-3.7,2.6-5.7c0.8,0.2,1.1-0.8,0.4-1c-0.1,0.2-0.2,0.3-0.3,0.5c-0.3-0.1-0.7-0.1-1.1-0.2
		c-1.2-2.5,1.6-3,2.4-4.7c-0.8-0.1-1.4-0.2-2.4-0.3c0.3-1.1,0.6-2.1,0.9-3.1c1-0.4,1.9-0.9,3-1.4c0-0.8,0-1.5,0-2.4
		c2.4-1.6,3.7-4.6,7.1-3.6c-0.3-0.4-1.7-1.6-2.2-1.9c1.6-2,4.7-1.2,6.2-3.2c-0.5-0.2-0.9-0.4-1.3-0.7c1-1.9,3.8-0.9,4.5-3.3
		c1.8,0,3.5,0,5.3,0c-0.4-1.4-1.5-1.3-2.5-2.2c3.2-3.7,8.2-2.2,12.4-1.4c0.1-0.7,0.2-1.5,0.4-2.5c1.8-0.3,3.8-0.6,5.8-0.9
		c0.6,0.5,1.3,1,1.9,1.5c1.4,0.1,2.6-1.2,4-0.2c1.7-1.1,5.5-3.9,6.4-0.7c-0.8,0.1-1.7,0.3-2.7,0.5c0.5,2.9,12.8-4.5,7.7,1.8
		c1.6,0.1,3.3-0.5,4.4,0.9c1.5-0.3,2.6,0.3,3.9,1c1.8,1.1,5.4,0.2,5.8,3c-0.9,0-1.8,0-2.7,0c-0.2,0.4-0.4,0.7-0.6,1.2
		c2.9,0.6,4.9-2.2,7.7-0.9c-0.3,0.7-0.5,1.2-0.7,1.7c2.6,0.9,2.6,0.9,4.9,3.8c-0.1,0.4,0.2,0.9-0.4,1.2c-0.9-0.2-1.8-1.1-2.9-0.2
		c1.2,0.8,2.4,1.2,3.9,1c0.8,0.6,2,0.9,1.5,2.5c-0.6,0.2-1.4,0.4-2.2,0.6c0.3,1.1,0.9,1.1,1.9,1.4c2.3,0.4,2.9,2.6,4.7,3.8
		c-0.1,0.4-0.2,0.7-0.3,1.4c1.2,1.7,3.9,4.1,1.6,6.3c0.9,1.4,2.2,2.9,0.9,4.8c3,3.3-1.2,8,1.9,11.8c-0.6,0.3-0.9,0.5-1.3,0.7
		c-0.8-0.7-1.7-1.3-2.5-2c-0.4,2,3.2,3.1,1.4,5.2c0.1,1.9,0.2,3.6,0.3,5.3c-0.5,0.3-0.9,0.5-1.4,0.8c-0.3,2.1-0.5,4.4-0.8,6.9
		c-0.6-0.2-1.3-0.3-2.1-0.5c-0.4,0.4-0.7,0.8-1.2,1.3c0.2,0.6,0.4,1.3,0.5,2c-0.5,1.3-0.9,2.5-1.4,3.8c-0.5-0.1-0.9-0.2-1.3-0.3
		c-0.9,0.5-0.4,1.8-1.1,2.8c-0.6-0.1-1.2-0.1-2-0.2c-1.3,2.1-2.5,3.4-2.8,6.1c-0.6-0.8-1-1.3-1.3-1.8c-2.4,0.2-2.4,2.6-3.5,4.1
		c-0.9-0.1-1.8-0.3-2.7-0.4c-2.1,2.4-1.6,5.1-5.9,4.3c-2.9,8.3-3.1,21.2,7.4,23.7c-3,2.4-5.4-2.2-8.4-2c-2.7-6.1-1.9-12.5-2.4-19
		c-2,1.3-2.3,4.7-5.1,2.9c-0.9,0.5-1.1,2-2.4,1.8c0-1.8-2-3-3.4-2.6c-0.1,0.7-0.2,1.5-0.4,2.5c-2.4-1.1-4.7-1.9-6.4-3.9
		c-0.3,0.7-0.5,1.2-0.7,1.7c-1.8-1.1-3.5-2.1-5.1-3c-0.3,0.4-0.6,0.8-0.7,0.9c-1.2,0.2-2-1-3.1,0.3c-0.1,4.9,1.2,11-1.6,15.4
		C409.2,105.5,409,105,408.7,104.5z M461.8,52.5c0.4-1.9,0.1-2.1-1.7-1.6C460.8,51.5,461.2,51.9,461.8,52.5z M446.5,14.5
		c-0.4-0.4-1,0.2-1.5,0.2c0.2,0.3,0.3,0.5,0.5,0.8C445.7,15.2,446.6,15.1,446.5,14.5z M405.3,7.7c1.9,0.2,1.9,0.2,1.6-0.9
		C406.4,7,406,7.3,405.3,7.7z M388.9,20.7c0.5-0.5,0.9-0.8,0.4-1.3C388.4,19.6,388.4,19.9,388.9,20.7z M416.9,3
		c-0.3,0.8-0.5,1-0.1,1.6C417.5,4.1,417.3,3.9,416.9,3z M467.4,31.6c-0.5-0.4-0.9-0.7-1.2-1C465.8,31.6,465.9,32.1,467.4,31.6z"/>
	<path display="inline" fill="#010101" d="M395.3,411.3c3.7,45.8-15.5,49.8-1,103c0.4,0.3,1.1,0.8,1.8,1.3c-0.2,0.2-0.5,0.5-0.7,0.7
		c-1.6-0.4-1.6,1.7-0.1,1.4c0.2,0.2,0.5,0.5,0.7,0.7c-2,2.3-4.9-0.8-7-1.5c0.3-0.2,0.5-0.5,0.8-0.7c0.3,0,0.7-0.1,1.3-0.1
		c0-2.9,0.3-5.8-0.1-8.7c-2.3-0.9-3.8-3.2-6.8-2.9c0.2,1.5,0.4,2.9,0.5,4.2c-0.4,0.5-0.8,0.9-1.2,1.4c0.7,1.1,1.4,2.2,2.1,3.3
		c-0.3,0.3-0.5,0.5-0.8,0.8c-3.2-2.3-4.7-6.1-7.9-8.6c-6.8-0.4-5.8,9.4-10.5,12.9c-0.7-0.2-1.7,0.3-2.1-0.7c4-3.2,6.2-8.4,7-13.2
		c-5.7-22.6-8.5-45.7-12.2-68.6c-4.9-20.9,4.2-40.2,6.1-60.7c0.1-24.7-3.3-49.5-0.2-74.2c0.4-28.6,15.8-52.5,26.6-77.8
		c4.1-15.1-3.8-30.3-7.3-44.9c-3.4,13.2-12.1,49.6-30.7,44c-6.8-3.4-14.5-2.8-21.5-5.7c-1.6,107.6,0.7,215.8-1,323.1
		c-1.5-107.5-0.1-216.1-1.2-323.9c-2-1.3-3.9-2.6-5.8-3.9c3.6-2.3,16.6,9.3,22.4,5.4c3.6,1.7,7.1,3.3,10.7,4.9
		c24.8-13.3,26.8-47.2,25.6-72.4c0.1,0,0.4,0,0.6,0c2.3,6.1,0.5,13.5,2.1,19.2c0.3-0.3,0.6-0.6,1-0.9c0.2,0.2,0.4,0.4,0.5,0.6
		c-0.6,0.9-1.1,1.8-1.8,2.8c20.4,60.2,3.5,50.1-13,101.9c34.9,5.2,70.4,8.4,105,0c-1.4-4.4-2.5-8.8-3.2-13.2
		c-1.4-0.8-2.6-0.4-3.7-0.4c0-0.3,0-0.5,0-0.8c7.2-1.1,13.5,4.8,20.9,2.4c-3.7,4.8-9.6,0.6-14.6,0c0.9,3.5,0.6,7.1,2.6,10.3
		c14.4-5.7,15.8-2.4,23.5-18.3c6.4-13.5,39.7-50.2,30.8-62.4c-8.3-13.3-16.4-27.1-27.9-37.8c-18.3-28.7-12.2-31.3-49.4-38.1
		c-0.3-0.6-0.6-0.5-0.7,0.1c-0.2,0-0.4-0.1-0.6,0c-0.3-0.2-0.5-0.4-0.8-0.6c0,0,0-0.2,0-0.2c-0.3-0.2-0.5-0.3-0.8-0.5
		c-0.2,0-0.4,0-0.6-0.2c24.9,2,41.4,4.5,49.8,32.2c1.2,3.4,4,5.8,6.6,8.1c12.5,10.3,20,25.1,27.7,39.1c3.6,14.3-16.5,35.4-23.6,47.8
		c-9.8,12.1-12.6,30.3-31,31.3c-1.1,1.2-2.4,2.6-3.9,4.2c7.2,32,4.8,64.9,3.4,97.3c0.3,18.1,9.9,34.7,7.3,52.9
		c-3.9,26.8-6.6,55-14.5,80.7c-0.4-0.2-0.9-0.5-1.3-0.7c-0.9-1.4-2.2-0.7-3.4-0.8c-1.9,2.2-3.7,4.3-5.5,6.5c-0.3-0.3-0.7-0.6-1-1
		c0.9-3.2,3.7-4.7,5.6-7.7c-1.5,0.1-2.7,0.2-3.8,0.3c-0.3,2-0.6,3.7-1,5.4c-0.4-0.1-0.9-0.2-1.5-0.3c0.2-1.6,0.3-3.1,0.4-4.7
		c-3,0.1-5,1.9-7.3,3.5c0.3,3.2-0.6,6.7,0.6,9.8c-1.9,1.2-3.8,2.2-6,0.9c-0.4,1-0.7,1.9-1.1,2.7c-2.2-3.4,1.2-5.9,4.1-7.1
		c-0.6-6.8,2.8-13.1,3.8-19.7c2.4-13.1,1.6-28.9-1.8-42.2c-5.7-13.7-4.1-29-3.4-43.4c-2.1-33.6-18.4-65-26.7-97.5
		c0.1-0.2,0.3-0.3,0.4-0.5c13.9,26.7,18.1,58.8,28.5,87.2c0.5-0.5,0.9-0.8,1.4-1.2c-8.2,36.6,13.7,72.3,0.9,108.3
		c5.9-3.5,11.2-3.7,17.7-3.1c5.3-26.5,11.9-53.6,12.7-80.7c0.9-17.5-7.8-33.5-7.7-51.2c0-31,4.8-63.3-3.7-93.6
		c-34.5,5.8-69.1,5.9-103.5-0.5c-9.5,33.1-2.2,67.7-4.4,101.4c-12.4,46.8-3.9,78.2,5.7,124.5c6.3-0.6,11.6-0.4,17.3,2.7
		c-11.3-35.8,8.9-71.4,1.6-107.7c0.1,0,0.3,0,0.4,0c0.2,0.6,0.4,1.3,0.6,1.8c8.5-31.3,20.6-62,27.2-93.9c-6.8,3.5-15.5,5.2-22.3,1.8
		c9.1,0.4,18.7,0.3,25.6-6.2c0.9,0.6,1.6,1.1,2.4,1.7c-1.6,0.9-1.1,2.1-1.9,3.4c-0.1-0.7-0.3-1.3-0.5-2c-7.9,32-20.5,64-27.9,96.5
		c-1,0.4-0.8,1.4-0.7,2.1c0.1,1.4-1.6,1.4-1.4,2.8C395.2,406.6,394.1,409.4,395.3,411.3z M382.5,508.6c0.4-1.9-0.4-3.2-0.8-4.7
		c-1.2,0-2.3,0-3.5,0C379.6,505.4,381,506.9,382.5,508.6z M451.2,516.8c0.3,0.4,0.5,0.7,0.9,1C452.5,516.5,452.5,516.5,451.2,516.8z
		 M452.6,405.2c0.2,0,0.4,0,0.6,0c-0.1-0.4-0.1-0.8-0.2-1.3c-0.1,0-0.2,0-0.4,0C452.6,404.4,452.6,404.8,452.6,405.2z"/>
	<path display="inline" fill="#0E0D0D" d="M322.7,186.4c0.2,2.4,0.4,4.9,0.7,7.6c2.1,0.5,4.1,1,6.1,1.5c1.3-51.3-0.4-102.9,1-154.3
		c0.2,0,0.5,0,0.7,0c0.7,51.5,0.4,103.1,0.6,154.7c6.7,3.6,12.8-0.4,19.2-2.6c5.6-13.4,11.2-27.5,12.8-42c0.2,0,0.4-0.1,0.6-0.2
		c0.2,0.3,0.5,0.6,0.7,0.9c-1.1,14.8-6.6,31-13.9,43.7c-1.2-0.5-2.3-0.5-3.1,0.7c-9.5,4.2-20.6,2.3-29.5-2.3
		c0.9-1.4,1.8-0.4,2.6-0.5c1.4-5.2-0.6-12.4,0.1-18.2c0.2-0.3,0.5-0.5,0.7-0.8C322.5,178.2,321,183,322.7,186.4z"/>
	<path display="inline" fill="#130F0F" d="M330.4,310.9c0.9,76.1-1,153,0.7,228.7c-11.9,15.8-26.5,29.4-38.9,44.8
		c-0.5-0.3-0.7-0.5-1.2-0.8c12.2-15.2,25.9-29.4,38.5-44.3C331.2,463.5,328.8,386.9,330.4,310.9z"/>
	<path display="inline" fill="#090606" d="M365,151.8c-0.2-0.3-0.5-0.6-0.7-0.9c-1.5-48.4,25.9-22.2,44.5-46.5
		c4.6,9.8,18.7,6.7,27.5,5.6c0,0.3,0,0.6,0,0.8c-9.5,3.9-19.7,3.7-27.9-2.7c-2.5,2.9-4.8,4.7-8.1,6.3c2.3,15.1,0,30.8-6.9,44.4
		c-1.9-3.4,3.4-11.8,3.8-16.2c2.6-9,2.9-18.3,2.3-27.6C368.7,123.1,369.2,118.9,365,151.8z"/>
	<path display="inline" fill="#1C1917" d="M396.1,518.5c-0.2-0.2-0.5-0.5-0.7-0.7c0-0.5,0-0.9,0.1-1.4c0.2-0.2,0.5-0.5,0.7-0.7
		c7.2,7.3,2.9,20.5,7.9,29.2c3.8,2.3,9.8,1.8,9.6,7.7c-0.2,3.2,0.2,6.3-3.4,7.6c-0.3-0.3-0.6-0.6-0.9-0.9c5.4-3.3,2.7-12.6-3.8-11.6
		c0.2,0.9,0.4,1.8,0.7,2.7c-0.9,0-1.5,0-2.5,0c0.8-4.2-3.1-7.4-3.5-11.5C398.9,532.3,400.3,523.8,396.1,518.5z"/>
	<path display="inline" fill="#0F0D0C" d="M325.5,211.1c-0.6,0-1.2,0-1.4,0.8c-5.8-4.7-12.2-8.1-17.6-13.5c-0.3-8.4-0.2-17,0.8-25.4
		c2.1-2.3-0.9-7.1,1.5-9.2C310,189.1,300,195.6,325.5,211.1z"/>
	<path display="inline" fill="#0C0909" d="M474.4,558c-11.8,3.8-30,9.8-40.3,0c0.2-0.5,0.4-1,0.7-1.4c2.4,2.8,7.3,5.7,10.6,3.3
		c0.1,0.5,0.2,1,0.3,1.6c4.2,0.5,7.2-0.9,10.9-2.2c3.3,1.1,7.9,0.3,10.6-2.1c1,0.3,1.9,1.5,2.9,0.2c1.2-0.4,2.6,0.5,3.5-0.7
		c0.2,0,0.5-0.1,0.7-0.1c0.3,0.3,0.6,0.5,0.9,0.8c0,0,0,0,0,0C474.9,557.6,474.7,557.8,474.4,558z"/>
	<path display="inline" fill="#0C0A09" d="M409.3,559.3c0.3,0.3,0.6,0.6,0.9,0.9c-11.3,6.1-26.7,1.8-38.1-2.3
		c1.3-1.2,3.3-0.4,4.9-0.4c0.8,1.3,1.4-0.1,2.1-0.8c1.5,2,3.9,2.8,6.3,2.9c1.1,0.8,2.3,0.4,3.5,0.5c0.3-0.3,0.6-0.6,0.9-0.9
		C396,562.5,402.9,561.9,409.3,559.3z"/>
	<path display="inline" fill="#181514" d="M434.8,556.6c-0.2,0.5-0.4,1-0.7,1.4c-2.4-7.7-0.2-11.3,8.1-12.5c5.1-7.8,2-17.7,5.9-25.8
		c0.2,0.5,0.5,1.1,0.7,1.6c-2.1,8.5-0.8,17.8-5.5,25.4c-1.1,0.9-0.8,2.2-0.8,3.5l0,0c-0.2-0.1-0.4-0.1-0.7,0l0,0
		c-0.1-1.1,0-2.2-0.3-3.2c-0.1,0.1-0.3,0.3-0.4,0.4C435.9,547.4,434.2,552,434.8,556.6z"/>
	<path display="inline" fill="#0F0E0D" d="M375.1,557.2c-0.9,0.3-2.1-0.4-2.9,0.6c-2.3-1.4-2.2-4.6-3-6.9
		c-1.7-9.9-17.1-14.7-11.9-26.1c0.7-0.3,0.8-0.8,0.7-1.4l0,0c0.3,0,0.7,0,1,0.1c-0.2,0.9-0.2,1.9-0.2,2.9c0,0,0,0,0,0
		c-4.1,8.8,10.2,11.6,13.4,30C373.3,556.7,374.2,557,375.1,557.2z"/>
	<path display="inline" fill="#120B09" d="M427.1,312.6c-0.6-0.6-1.2-1.1-1.8-1.7c-0.1,0.2-0.2,0.3-0.4,0.5
		c-0.2-0.8-0.4-1.5-0.6-2.3c0.3-0.4,0.9-0.6,0.2-1c-0.1,0.2-0.2,0.4-0.4,0.6c-0.2-0.8-0.4-1.5-0.7-2.3c0.8-1.5,0.6-3.2,2.2-4.2
		c8,4.6,16.8,4.5,25.4,4.8c0,0,0,0,0,0c-8,3.8-18.5,0.7-25.9-3.3C424.9,306.7,426.4,309.6,427.1,312.6z"/>
	<path display="inline" fill="#171513" d="M489,523.5c6.7,11.3-8.6,17.2-11.2,26.7c-3.3-9.5,15.4-14.2,9.9-24.6
		c0.8-0.2,0.8-0.8,0.8-1.5C488.6,524,488.8,523.7,489,523.5z"/>
	<path display="inline" fill="#322723" d="M314.8,148.4c0.1,0.7,0.2,1.3,0.3,2c-0.3,0-0.5,0-0.8,0c-0.2-0.6-0.1-1.5-1.3-1
		c0,1.7,0,3.4,0,5.1c-0.2,0.3-0.5,0.5-0.7,0.8c-0.5-0.8,0.3-2.2-1.2-2.8c-2.4,8.7,4.9,17.1,2,25.8c-1-6.9-1.6-12.2-3.6-18.8
		c-0.4,1-0.7,1.5-1,2.1c-0.2-0.6-0.5-1.1-0.7-1.7c0.7-1.3,1.7-2.8,1.4-5.1C309.3,152.5,311.9,145.6,314.8,148.4z"/>
	<path display="inline" fill="#292320" d="M316.3,155.4c2.1,4.9,2.9,10.3,4.2,15.5c-0.2,0.3-0.5,0.6-0.7,0.9c-2.4-1.4-2-4.2-2.8-6.5
		c0.7-3.5-1.8-6.5-1.3-9.9l0,0C315.8,155.3,316.1,155.3,316.3,155.4z"/>
	<path display="inline" fill="#221E1C" d="M474.3,507.3c0.8-0.2,0.7-1,0.9-1.6c2.5,4.6,3.4,10,8.4,12.8c-0.3,0.3-0.6,0.6-0.9,0.9
		C477.4,518.6,476.4,511.3,474.3,507.3z"/>
	<path display="inline" fill="#202020" d="M331.2,41.1c-0.2,0-0.5,0-0.7,0c0-7.1-0.4-14.2,0.2-21.3
		C331.4,22.4,331.7,35.1,331.2,41.1z"/>
	<path display="inline" fill="#36302A" d="M359,523.5c-0.3,0-0.7,0-1-0.1c0.6-3.1,4-4.1,6.4-5.6c0.4,1,1.4,0.5,2.1,0.7
		C363.9,520.2,360.6,520.5,359,523.5z"/>
	<path display="inline" fill="#291C17" d="M395.3,411.3c-1.3-1.9-0.1-4.7-2-6.4c-0.2-1.4,1.5-1.4,1.4-2.8c-0.1-0.7-0.3-1.7,0.7-2.1
		C395.4,403.8,395.3,407.6,395.3,411.3z"/>
	<path display="inline" fill="#312C29" d="M477.2,548.1c0.2,0.7-0.3,1.6,0.6,2.2c-0.3,2.6-0.8,5.1-2.5,7.2c-0.3-0.3-0.6-0.5-0.9-0.8
		C476.1,554,476,550.8,477.2,548.1z"/>
	<path display="inline" fill="#453E3C" d="M307.8,160c0.7,1.2,0.9,2.5,0.8,3.8c-2,2.3,0.7,6.8-1.3,9.2
		C307.7,168.7,306.3,163.9,307.8,160z"/>
	<path display="inline" fill="#3F3935" d="M482.7,519.4c0.3-0.3,0.6-0.6,0.9-0.9c2.4,1,4.6,2.3,5.4,5c-0.2,0.2-0.3,0.4-0.5,0.6
		c-0.2,0-0.4,0-0.6,0C487.4,521.5,484.5,520.8,482.7,519.4z"/>
	<path display="inline" fill="#262221" d="M322.7,186.4c-1.6-3.4-0.2-8.1-0.6-12C323.4,178,322.3,182.4,322.7,186.4z"/>
	<path display="inline" fill="#2D1F1D" d="M454,113c-0.5,0.2-1,0.4-1.5,0.6c-1.7-0.6-3.3-1.3-5-1.9c0.5-0.3,1-0.5,1.4-0.8
		C450.7,111.5,452.6,111.8,454,113z"/>
	<path display="inline" fill="#211C1A" d="M314.3,150.4c0.3,0,0.5,0,0.8,0c1.1,1.5,0.8,3.3,0.6,5l0,0
		C314.5,153.9,314.2,152.2,314.3,150.4z"/>
	<path display="inline" fill="#262221" d="M319.8,171.8c0.2-0.3,0.5-0.6,0.7-0.9c0.5,1.2,1,2.3,1.5,3.5c-0.2,0.3-0.5,0.5-0.7,0.8
		C320.8,174,320.3,172.9,319.8,171.8z"/>
	<path display="inline" fill="#9BD6D6" d="M460.8,16.4c-1.4,0.2-2.7-0.1-3.9-1c1.1-0.9,2,0,2.9,0.2c0.6-0.3,0.3-0.8,0.4-1.2
		C461.3,14.8,460.9,15.7,460.8,16.4z"/>
	<path display="inline" fill="#4A4B4B" d="M468.9,51.8c0.1-1.9-2.3-2.3-1.9-4.2c0.8,0.7,1.7,1.3,2.5,2
		C469.3,50.4,469.1,51.1,468.9,51.8z"/>
	<path display="inline" fill="#A8DFDF" d="M451.8,9.2c-1,0.8-2.1,0.6-3.4,0.5c0.3-0.5,0.4-0.8,0.6-1.2c0.9,0,1.8,0,2.7,0
		C451.9,8.8,451.9,9,451.8,9.2z"/>
	<path display="inline" fill="#92A2A2" d="M432.8,2.3c-1.6,1-1.6,1-2.8-0.3c1-0.2,1.8-0.3,2.7-0.5C432.7,1.7,432.7,2,432.8,2.3z"/>
	<path display="inline" fill="#929B9B" d="M423.8,305.5c-0.1,0.3-0.2,0.5-0.3,0.8c-0.4,0-0.8,0-1.2,0c-0.2-1.1-0.1-2.1,1-2.8
		C423.5,304.2,423.6,304.9,423.8,305.5z"/>
	<path display="inline" fill="#2D1F1D" d="M461.8,114.4c-1.7-0.2-3.7,0.6-5-0.6C458.4,113.8,460.2,113.5,461.8,114.4z"/>
	<path display="inline" fill="#3A3A3A" d="M403.1,6.6c0.7,0.4,1,0.4,1.2,1.3c-0.9,0-1.8,0-2.6,0C402.2,7.5,402.6,7,403.1,6.6z"/>
	<path display="inline" fill="#977264" d="M364.3,148.3c0,0.9,0,1.8,0,2.7c-0.2,0.1-0.4,0.1-0.6,0.2
		C363.7,150.1,363.4,149.1,364.3,148.3z"/>
	<path display="inline" fill="#F7EFD0" d="M446.8,523.5c-0.2,1-0.4,2-0.5,3C446.2,525.4,445.7,524.3,446.8,523.5z"/>
	<path display="inline" fill="#D69479" d="M457.3,492.5c0.2,0.8,0.2,1.5-0.5,2.1C456.7,493.8,456.6,493,457.3,492.5z"/>
	<path display="inline" fill="#D69479" d="M458.1,489c0.2,0.8,0.2,1.5-0.5,2.1C457.4,490.3,457.3,489.5,458.1,489z"/>
	<path display="inline" fill="#9C7C6F" d="M315.7,155.4c0.1-0.5,0.1-1,0.2-1.5c0.2,0.5,0.3,1,0.5,1.5
		C316.1,155.3,315.8,155.3,315.7,155.4z"/>
	<path display="inline" fill="#010101" d="M424.2,308.6c0.1-0.2,0.2-0.4,0.4-0.6c0.7,0.4,0,0.6-0.2,1
		C424.1,309,424.1,308.8,424.2,308.6z"/>
	<path display="inline" fill="#8B9696" d="M382,32.7c0.1-0.2,0.2-0.3,0.3-0.5c0.7,0.3,0.4,1.2-0.4,1C381.8,33,381.8,32.8,382,32.7z"
		/>
	<path display="inline" fill="#2D1F1D" d="M456.1,113.7c-0.6,0.1-1.2,0.1-1.5-0.5C455.1,113.3,455.6,113.5,456.1,113.7z"/>
	<path display="inline" fill="#36302A" d="M358,523.5c0.1,0.6,0,1.2-0.7,1.4C357.5,524.4,357.8,523.9,358,523.5z"/>
	<path display="inline" fill="#F7EFD0" d="M447.5,521.4c-0.2,0.5-0.4,1-0.6,1.5C446.8,522.2,446.8,521.6,447.5,521.4z"/>
	<path display="inline" fill="#9C7C6F" d="M314.8,148.4c-0.2-0.2-0.4-0.5-0.6-0.7C314.4,147.9,314.6,148.1,314.8,148.4z"/>
	<path display="inline" fill="#EBDDB8" d="M370.1,555c0.1,0.3,0.3,0.5,0.4,0.8C370.4,555.6,370.3,555.3,370.1,555z"/>
	<path display="inline" fill="#312C29" d="M474.4,558c0.3-0.2,0.5-0.4,0.8-0.6C474.9,557.6,474.7,557.8,474.4,558z"/>
	<path display="inline" fill="#F5DDCE" d="M447.5,111.7c2.1,0.9,4.4,1.6,6.4,2.6c-1.6,19.6-0.6,45.1,15.9,58.2
		c-11.5,39.9-19.3,40.1,0.9,78.9c-3.5,3.9-8.8,5-13.2,7.5c0,0.9,0,1.7,0,2.5c1.7,1,3.4,1.6,5.4,1.2c1.4,1.3,2.8-0.6,4.3-0.7
		c0.3-0.3,0.7-0.5,1-0.7l0,0c0.7-0.5,1.3-0.9,2-1.4c1.2,0,2.3-0.4,3.7,0.4c0.7,4.4,1.8,8.8,3.2,13.2c-27.3,6-55.5,7-83.2,2.5
		c-1-16.4,7.2-30.8,13.7-45.2c2.2,0,4.3,0,7,0c-2-2.4-4-0.7-6.3-1.8c0-0.7,0-1.4,0-2.4c2.7-0.4,6.3,1.2,8.2-1
		c-2.6-0.4-5-0.8-7.5-1.2c7.4-17.5-6.2-32.4-8.4-48.8c2.6,1.9,5.3,1.5,8.3,2.3c-3.8-7.4-7.7-14.1-12.2-21c0.4-11.5,5.4-22.9,5-34.4
		c2-5.3,7.6-6.2,10.4-10.7c9.2,2.5,19.9,2.6,28.4-2.8C443.2,108.8,444.8,111.7,447.5,111.7z M424.4,228.1c0.6-0.6,0.8-1.3,0.2-2.1
		c-1,0.2-1.9,2.5-1.2,3.4C424.5,229.4,424.3,228.7,424.4,228.1z M424.3,213.2c0-1.8,3.3-6.1,1-6.7c-1.1,1.4-1.8,3.1-1.9,5
		c-1.1,1.1-0.1,2.1,0.1,3c-0.1,1.5-1.3,2.8-0.4,4.5c1.5-1,1-2.7,1.8-3.7C424.7,214.5,424.5,213.8,424.3,213.2z M424.7,204.7
		c1.3-2.1,2.5-5.8,2-8C425.6,197.6,423.8,203.5,424.7,204.7z M427.8,191.9c-0.2-0.2-0.4-0.4-0.5-0.6c-2.1,1.9-2.7,2.8-3.4,5.9
		C425.9,195.7,426.5,193.5,427.8,191.9z M423.3,224.3c1.5-0.9,1.7-3.3,1.4-4.8C422.9,221.8,422.8,222.1,423.3,224.3z M426.9,186.8
		c-1.9,0.7-2.3,1.3-1.5,2.5C425.8,188.6,426.1,188,426.9,186.8z M423.7,234.7c0.1,0,0.3,0,0.4,0c0-0.7,0-1.4,0-2.1
		c-0.1,0-0.3,0-0.4,0C423.7,233.3,423.7,234,423.7,234.7z M423.7,237.7c-0.6-0.6-1.2-0.7-1.3,0.2
		C422.8,238.6,423.2,238.5,423.7,237.7z M422.7,243c-0.5,0.5-1,1.1,0,1.6C422.7,243.9,422.7,243.4,422.7,243z M426.1,183.8
		c-0.4-0.2-0.7-0.3-0.9,0.2C425.6,184.2,425.9,184.3,426.1,183.8z M427.8,179.3c-0.1-0.2-0.2-0.3-0.3-0.5c-0.4,0.2-0.1,0.5,0,0.8
		C427.5,179.6,427.7,179.5,427.8,179.3z"/>
	<path display="inline" fill="#B28C7D" d="M436.3,110.1c-7.7,0.8-16.3,3.3-23.3-1.3c1.4-2.3,0.4-5.6,0.7-8c1.3-1.3,2.2-2.5,3.5-3.3
		c0.8,0.5,1.5,1,2.6,1.7c0.5-0.8,1-1.5,1.6-2.5c2.8,3.8,6.6-0.6,9.3-2c1.4,0.2,1.5-1.3,2.4-1.8c2.8,1.7,3-1.7,5.1-2.9
		c0.8,6.1-0.8,12.5,2.3,18.1C439.1,108.7,437.7,109.4,436.3,110.1z"/>
	<path display="inline" fill="#957163" d="M430.7,94.7c-2.6,1.4-6.4,5.8-9.3,2c-0.6,1-1.1,1.7-1.6,2.5c-1.1-0.7-1.8-1.2-2.6-1.7
		c-1.3,0.8-2.2,2-3.5,3.3c-0.3,2.5,0.7,5.7-0.7,8c-1.5-0.3-3.5-1.2-3.6-2.8c2.8-4.5,1.5-10.6,1.6-15.4c1-1.2,1.9-0.1,3.1-0.3
		c0.1-0.1,0.4-0.5,0.7-0.9c1.6,1,3.3,1.9,5.1,3c0.2-0.5,0.4-1,0.7-1.7c1.7,2.1,4,2.9,6.4,3.9c0.2-1,0.3-1.8,0.4-2.5
		C428.6,91.7,430.7,92.9,430.7,94.7z"/>
	<path display="inline" fill="#483A35" d="M436.3,110.1c1.4-0.7,2.8-1.4,4.2-2c0,0.3,0.1,0.6,0.1,0.9c-1.1,1.4-2.6,1.7-4.2,1.9
		C436.3,110.6,436.3,110.3,436.3,110.1z"/>
	<path display="inline" fill="#1C1D1D" d="M461.8,52.5c-0.6-0.6-1.1-1.1-1.7-1.6C461.9,50.4,462.2,50.7,461.8,52.5z"/>
	<path display="inline" fill="#292D2D" d="M446.5,14.5c0.1,0.5-0.7,0.7-1.1,1c-0.2-0.3-0.3-0.5-0.5-0.8
		C445.5,14.7,446.1,14.1,446.5,14.5z"/>
	<path display="inline" fill="#3A3A3A" d="M405.3,7.7c0.7-0.4,1.1-0.6,1.6-0.9C407.3,7.9,407.3,7.9,405.3,7.7z"/>
	<path display="inline" fill="#262626" d="M388.9,20.7c-0.5-0.9-0.5-1.1,0.4-1.3C389.8,19.9,389.3,20.2,388.9,20.7z"/>
	<path display="inline" fill="#575B5B" d="M416.9,3c0.4,0.8,0.6,1.1-0.1,1.6C416.4,4.1,416.6,3.8,416.9,3z"/>
	<path display="inline" fill="#7D7D7D" d="M467.4,31.6c-1.5,0.5-1.6,0-1.2-1C466.5,30.9,466.9,31.1,467.4,31.6z"/>
	<path display="inline" fill="#EAA388" d="M447.6,308.4c1.2-0.4,2.7-0.4,3.5-1.5c0,0,0,0,0,0c2.9,0.4,4.6-2,7.1-2.1
		c4.1-0.8,9-1.7,11.7-5.2c-3.5-4.9-9.8,1.8-14.7,0.3c-4.3,1.1-10.2,2.8-14.2,0.3c-5.2-1.2-10-0.7-14.4-3.9c-0.2-1.5-0.7-2.9-2.4-3.3
		c-1.7,0.7-1.2,2.5-1.8,3.2c0.2,1.1,0.3,1.9,0.4,2.5c-3.1,2.1-6.8,2.8-10,3.2c-1.7-1-3.4-0.6-4.9,0.1c-9.6-2.8-14.4-13-13.2-22.5
		c26.8,3.3,53.8,1.1,80.5-2.9c8.5,30.4,3.6,62.6,3.7,93.6c-0.1,17.7,8.6,33.7,7.7,51.2c-0.9,27-7.5,54.1-12.7,80.7
		c-2.8-0.1-5.3-0.3-7.8-0.4c-0.3-3.2,1.1-5.9,0.7-9.2c1.3-0.7,0.6-1.9,0.7-3c0.5-1,1-1.7,0.8-2.8c-0.4-7.8,2.5-15,1-23
		c-1.3,3.2-2.6,6.1-3.5,9.5c-1.1-4.9-1.2-9.4-0.9-14c0.9-1.3,1.8-2.7,2.7-4.1c1.1,0.1,2-0.6,3-1c0.9-2.1,0.9-2.1,0.1-3.9
		c-0.5,0.9-1,1.8-1.5,2.6c-0.3-0.2-0.6-0.4-0.8-0.5c-0.5,0.2-1,0.5-1.5,0.7c-21.1-31.7,4.2-73.7-8.8-72.3c-0.6,0.8-1.2,1.5-2.1,2.6
		C450.3,359.4,437.6,332.7,447.6,308.4z M462.5,377.5c-2.2,2.5,0.7,10.1,2.1,12.8c0.3,1.5-1,4.9,1.3,4.8c0.4-0.7,0.8-1.3,1.2-2
		c0.4-0.1,0.9-0.3,1.3-0.4C470.8,387.2,468.6,379,462.5,377.5z M476.5,448c1.7-3,1.6-6.2,1.2-10c-1.1-1.1-2.9-2.4-4.7-1.6
		c0.2,5.1-0.8,9.3-0.5,14.6c1.2-1.6,1.3-2.7,1.8-4.4c0.5,0.5,1,1,1.5,1.5c0.1,0.9-0.6,2.1,1,2.7C477.3,449.7,477.6,448.8,476.5,448z
		 M475.3,389.9c0.5-2.4,0.5-2.4-0.8-5.2C473.8,385.5,474.1,390.2,475.3,389.9z M473.1,380.2c0.8-1,0.8-1.7-0.2-2.4
		C473,378.5,473,379.3,473.1,380.2z"/>
	<path display="inline" fill="#EAA388" d="M409.5,308.4c3.6-0.6,7-1.5,10.5-3.5c-6.5,32-18.6,62.6-27.2,93.9
		c-0.2-0.5-0.4-1.2-0.6-1.8c-0.1,0-0.3,0-0.4,0c7.3,36.4-12.8,71.9-1.6,107.7c-2.1-0.9-4.1-1.8-6.2-2.6c-0.5-0.9-1.4-0.6-2.2-0.5
		c0.3-0.5,0.5-1,0.8-1.4c0-1.1-0.1-2.3-0.1-3.4c-0.6-1-1.8-1.7-1.4-3.2c1.1-1.3-0.6-2.8-0.7-4.2l0,0c2-0.8-0.2-3.3-0.4-5.1
		c-1.2,0.5-2.5,1.7-0.8,2.3l0,0c-0.6,2-1.1,4.1-1.9,6.8c-3.5-15.1-5.7-30.8-6.7-45.4l0,0c-12.4-27.1,2.2-54.5,7.8-81.1
		c2.4-15.1,4.5-30.5,7.9-45.3C389.3,311.4,400.6,309.9,409.5,308.4z M382.1,388c2.3,3.3,4.8,7,7.7,9.6c0-0.6,0-1.2,0-1.7
		c3.3-4,0.5-9.7-2.5-12.7c-1.2,0-2.1,0-3,0c0-1.7,1.5-4.6-0.3-5.6c-0.8,1.1-0.3,2.3-0.4,3.4c-1.3,0.7-0.6,1.9-0.7,2.8
		C381.8,385.1,382,386.5,382.1,388z M380.6,457.1L380.6,457.1c3,2.8,6.5,1.4,5.6-2.8c-3.9-4.8-7.9-9.2-9.1-15.4
		c-0.3-1.8-1.8-3.3-3.7-2.8c-1.7,2.3-1.9,15.7,2.2,14.8C375.7,454.2,377.9,455.7,380.6,457.1z M371.1,430.7c-0.6,2.8-0.6,4.9,0,7
		C371.6,435.6,371.7,433.5,371.1,430.7z M381.5,394.8c0.6-1.5,0.7-3,0.1-4.9C380.8,391.8,381,393.3,381.5,394.8z M370.6,423.5
		c-1.3,2.2-1.3,2.2,0,3.1C370.6,425.5,370.6,424.5,370.6,423.5z"/>
	<path display="inline" fill="#B28C7D" d="M456.1,115c37.5,6.9,31.1,9.3,49.4,38.1c11.5,10.8,19.6,24.5,27.9,37.8
		c2.7,4.5,2.7,5.2,0.9,10.9c-7.9,6.3-11.1,16.2-16.3,24.5c-7,6.3-9.6,15.8-14.9,23c-0.2-0.8-0.3-1.2-0.4-1.7c2.4-0.2,0.3-2.4,0,0
		c-0.3,0-0.5,0-0.8,0c-1.6,1.1-1.7,1.5-0.7,2.7c-0.6,2.9-2.3,5.2-3.9,7.6c-1.4-1.2-3-0.3-4.1-1.1c-10.3,8.1-16.7-3.4-24.5,2.1
		c-3.3,0.5-6.2,2-9.9,1.4c1.6-2.7,9.2-3.1,11.5-6.9c5.9-2.7,14.4-1.2,19.1-5.8c4.4-7.5,9.6-14.5,13.2-22.5
		c3.8-9.1,6.6-18.5,11.1-27.3c1.8-1.3,4.7-0.4,6.3-2.2c3.7,1,9.4,3.8,12.1,2c-2.1-3.5-7.3-4.7-11.1-5.7
		c-7.1-4.9-13.2-10.3-19.7-16.2c4.3-0.4,8.4,1.2,11.7-1.7c-6.5-5.8-16.7-5.5-23.4-11.5c-4.6-3.3-5.7-10-11-12.4
		c-0.5,1.3-2.2,1.5-2,3.1c-0.3,3.1-1.9,5.8-3.3,8.4c-1.6,2.8-0.8,5.9-2.9,8.6c-14.6-11-15.2-33.8-15.6-50.9c0.9-1.3,0.4-2.9,0.6-4.3
		C455.6,115.1,455.8,115.1,456.1,115z M476,122.4c0.6,2.7,0.6,2.7,2.5,3C478.2,123.9,477.3,123.1,476,122.4z M491,146.6
		c0.5-1.1-1.1-2.4-1.7-1.2C489.2,146.2,490.1,147,491,146.6z M479.9,124.6c-0.4,2.2-0.1,2.5,1.5,2
		C481.1,126,480.7,125.5,479.9,124.6z M497.9,145c-0.4,1.8-0.5,1.7,0.5,2.5C499.3,146.3,499,146.3,497.9,145z M497,253.8
		c0.8,1.8,2.8-0.1,1.6-0.9C498.1,253.2,497.6,253.4,497,253.8z M477.6,147.8c-1.1,1.1-1.1,1.1-0.5,2.2
		C478,149.4,478.2,148.7,477.6,147.8z M495.2,147.2c0.5-0.6,0.3-1.8-0.8-1.5C494.6,146.3,494.5,147,495.2,147.2z M477.4,145.8
		c0.2,0,0.3,0,0.5-0.1c-0.1-0.4-0.1-0.9-0.2-1.3c-0.2,0-0.3,0-0.5,0.1C477.3,144.9,477.3,145.3,477.4,145.8z"/>
	<path display="inline" fill="#D69479" d="M380.5,489.5c0.3,0.8,0.5,1.5,0.8,2.3c-1,0.9-1,0.9-0.1,1.9c-0.4,1.4,0.8,2.2,1.4,3.2
		c-0.4,0-0.8,0-1.2-0.1c-0.1,2.3-0.1,2.3,1.3,3.5c-0.3,0.5-0.5,1-0.8,1.4c-2.9,0.1-5.8,0.2-8.9,0.4c-9.7-46.4-18.1-77.6-5.7-124.5
		c2.2-33.7-5.1-68.3,4.4-101.4c7.8,1.3,15.4,1.7,23,3.4c-1.2,9.5,3.6,19.7,13.2,22.5c1.5-0.7,3.2-1.2,4.9-0.1
		c3.3-0.4,6.9-1.1,10-3.2c-0.1-0.6-0.2-1.4-0.4-2.5c0.6-0.8,0.1-2.5,1.8-3.2c1.7,0.4,2.2,1.8,2.4,3.3c4.4,3.2,9.2,2.7,14.4,3.9
		c4,2.5,9.9,0.8,14.2-0.3c5,1.5,11.2-5.2,14.7-0.3c-2.4,3.6-6.8,3.4-10.3,5.2c-0.7-0.9-0.7-0.9-1.4,0c-1.4-0.4-2.1,0.8-3,1.4
		c-0.7-1.5-1.6-0.7-2.6-0.4c0,0.4,0.1,0.7,0.1,1.1c-10,0.1-20.8,0.1-29.4-6.3c-6.9,6.5-16.5,6.6-25.6,6.2c3.3,2.4,7.9,1.4,11.8,1.7
		c-22.2,2.4-24.1,10.8-26.6,31.2c-2.5,16.5-5.3,32.8-10.1,48.4c0-1.1-0.1-2.2-0.1-3.3c-1.8,0.5-2.3,4.9-0.6,5.4
		c-5.3,19.1-10.1,39.1-1.4,57.9c-1.1,0.7-1,1.5-0.4,2.5c0.8-0.8,0.4-1.7,0.4-2.6c1,14.7,3.2,30.3,6.7,45.4c0.8-2.7,1.3-4.8,1.9-6.8
		c0.5-0.3,0.8-0.6,0-1.3c0,0.6,0,1,0,1.4c-1.7-0.5-0.4-1.7,0.8-2.3C380.3,486.2,382.5,488.6,380.5,489.5c0-0.6,0.6-1.4-0.5-2
		C379.6,488.4,379.6,489,380.5,489.5z M373.9,377.7c-1.4,0.8-1.4,1.5-0.1,2.4C374.5,379.3,374.4,378.5,373.9,377.7z M395.8,306.7
		c0.1-0.2,0.2-0.5,0.3-0.7c-0.7-0.7-1.5-0.8-2.8-0.1C394.3,306.2,395,306.4,395.8,306.7z M390,305.2c0.1-1.2,0.1-1.2-1.5-1.1
		C388.6,305,389.5,304.9,390,305.2z M383,303c-0.3-0.1-0.6-0.4-0.8,0C382.6,303.4,382.7,303.4,383,303z"/>
	<path display="inline" fill="#B28C7D" d="M319.8,171.8c3,6.6,1.1,14.5,1.4,21.6c-0.8,0-1.8-0.9-2.6,0.5c8.9,4.6,19.9,6.5,29.5,2.3
		c0.3,0.2,0.5,0.5,0.8,0.7c0,0.5-0.9,1,0,1.5c1,3.8-0.6,9.2,3.2,12.4c4-17.2,11.7-33.4,15.4-51.2c8.1,2.4-0.4-23.6,8.2-38.1
		c7.7-3,16-3.2,23.8-6.3c1.1,18.4-2.4,39.1-14,53.8c-1.8-7,0.5-16.5-3.2-23.2c2.1,25.3,1.1,60.6-23.4,75.3
		c-7-7.9-18.6-6.9-27.5-11.6c-7.6-3.8-14-9.1-20.4-14.2c-3.3-10.5,0.6-21.6-2.2-31.5l-0.1,0c-0.2-1.7,0-2.6,0.9-4.3
		c2,6.6,2.7,11.8,3.6,18.8c2.9-8.7-4.4-17.1-2-25.8c3,5,2.6,12.4,4.9,18c0.1,0,0.2-0.1,0.4-0.1c0-1.7,0-3.5,0-5.2c0.2,0,0.4,0,0.6,0
		C317.8,167.6,317.4,170.4,319.8,171.8z M314.5,178.1c-0.5,1.3,0,2.2,1.1,3.2C315.7,179.9,316.1,178.8,314.5,178.1z M388.6,121.5
		c-0.6-1.2-0.9-2-2.2-1.7C386.8,120.9,386.8,120.9,388.6,121.5z M361.8,215.7c1.1-0.6,1.5-1.3,0.8-2.4
		C361.7,214.3,361.7,214.3,361.8,215.7z M316.9,186.5c0-1.2,0.5-1.7-0.7-2.1C315.5,185.4,316.1,185.5,316.9,186.5z M390.4,120.8
		c0.3-0.2,0.5-0.3,0.7-0.4c-0.2-0.3-0.3-0.5-0.5-0.8c-0.2,0.2-0.5,0.3-0.7,0.5C390.1,120.3,390.3,120.6,390.4,120.8z M382.7,143.8
		c-0.1-0.7-0.2-1.1-0.2-1.8C381.5,143.1,381.5,143.1,382.7,143.8z M363.2,209.6c-0.4,0.3-0.7,0.6-1.3,1.1
		C363.5,211.1,363.8,210.9,363.2,209.6z"/>
	<path display="inline" fill="#E6CCBB" d="M396.7,151.6c0,1.8,0,3.5,0,5.2c4.6,6.9,8.4,13.6,12.2,21c-3-0.8-5.7-0.4-8.3-2.3
		c2.2,16.3,15.8,31.2,8.4,48.8c2.5,0.4,4.9,0.8,7.5,1.2c-1.9,2.2-5.4,0.6-8.2,1c0,1,0,1.7,0,2.4c2.3,1,4.3-0.6,6.3,1.8
		c-2.7,0-4.8,0-7,0c-6.5,14.4-14.6,28.9-13.7,45.2c-7.4-0.5-14.4-1.4-21.8-2.5c16.6-51.9,33.4-41.7,13-101.9
		C390.6,165.6,393.6,159,396.7,151.6z"/>
	<path display="inline" fill="#D69479" d="M447.6,308.4c-10,24.3,2.7,51,7.9,74.8c0.9-1.1,1.5-1.9,2.1-2.6
		c13.1-1.5-12.2,40.6,8.8,72.3c0.5-0.2,1-0.4,1.5-0.7c0.1,0.9,0.1,1.8,0.1,2.8c-0.3,0-0.6,0-0.9,0c0-0.5,0.2-1.2-1-1.3
		c-0.6,0.9-1.7,2.6-0.3,3.4c-0.5,0.7-0.9,1.3-1.3,2c-0.3,4.6-0.1,9.2,0.9,14c0.9-3.4,2.2-6.3,3.5-9.5c0.9,8.6-0.6,17.2-1.5,25.3
		c-0.7-3.4-3,0.6-0.2,0.5c-0.1,1,0.6,2.2-0.7,3c-0.4-0.2-0.7-0.4-1.1-0.5c-0.4,0.8-0.3,1,0.1,1.6c0.4-0.2,0.7-0.3,1-0.5
		c-0.1,1.7,0.6,3.7-0.6,5c-0.1-0.6-0.1-1.5-1.1-1.4c-1.2,2-1.2,2-0.3,3.5c0.4-0.5,0.9-1,1.3-1.5c0,1,0,2,0.1,3
		c-3.3,0.5-6.5,1.6-9.9,3.5c12.8-36-9.1-71.7-0.9-108.3c-0.5,0.4-0.8,0.7-1.4,1.2c-9-31.4-19.7-63.1-28.6-94.5
		C431.9,307.7,439.6,308.9,447.6,308.4z"/>
	<path display="inline" fill="#F7EFD0" d="M409.3,559.3c-8.7,5-12.7-7.9-20.3-10.5c-10.7-7.1-4.4-21.6-23.7-24.8
		c3.7-4.8,11.9-10.8,9-17.5l0,0c0-0.2,0.1-0.4,0.1-0.6c0.9-0.1,1.8-0.2,2.7-0.3c3.1,2.6,4.7,6.3,7.9,8.6c0.7,2,2.6,2.1,4.2,2.7
		c2.1,0.7,5.1,3.8,7,1.5c4.2,5.3,2.9,13.8,4.2,20.4c0.4,4.1,4.3,7.3,3.4,11.5c1,0,1.6,0,2.5,0c-0.2-1-0.4-1.8-0.7-2.7
		C412,546.8,414.7,556,409.3,559.3z"/>
	<path display="inline" fill="#F7EFD0" d="M440,547.6c0.4-0.1,0.8-0.1,1.2-0.2c0.2,0.2,0.4,0.2,0.6,0.2c0.1,0.1,0.1,0.3,0,0.4
		c-1.5,0.8-1.5,0.8-1,2.8c0.4-0.2,0.8-0.4,1.1-0.6c0.2,0.2,0.3,0.3,0.5,0.5c5.1-9.9,4.1-21.6,7.6-32.1c8.6,2.2,14.5-7.1,19.5-12.8
		c1.2,0,2.5-0.7,3.4,0.8l0-0.1c-2.2,0.9-0.6,5.5,0.7,6.4l0-0.1c0.1,5.1,4.9,7.2,7.9,10.6c0,0.2-0.1,0.5-0.2,0.6
		c-20.8,4.5-10.5,20.2-32.4,31.1c-4.5-0.9-9.3-0.4-13.2-3.2C434.7,548.9,437.8,548.2,440,547.6z"/>
	<path display="inline" fill="#977164" d="M502.6,247.7c0.1,0.4,0.2,0.9,0.4,1.7c5.3-7.2,7.9-16.7,14.9-23
		c5.2-8.2,8.4-18.1,16.3-24.5c-8.3,17.9-21.1,34.6-31.6,51.5c-7.9,16.1-9,12.5-23.5,18.3c-2-3.2-1.7-6.7-2.6-10.3
		c4.9,0.6,10.9,4.8,14.6,0c-7.9,2.3-14.5-3.8-22.3-2.4c7.7-5.5,14.3,6,24.5-2.1c1.1,0.8,2.7-0.1,4.1,1.1c2-3.1,4.4-6.6,4.5-10.3
		C502.1,247.8,502.3,247.7,502.6,247.7L502.6,247.7z M494.8,259.3c-2.4-0.1-2.7,0.3-2.1,1.9C493.4,260.6,494,260,494.8,259.3z"/>
	<path display="inline" fill="#977163" d="M308.7,163.8c2.8,9.9-1.1,21,2.2,31.5c6.5,5.1,12.9,10.4,20.4,14.2
		c8.9,4.7,20.5,3.7,27.5,11.6c-0.6,0.4-1.1,0.7-1.7,1.1c-3.6-1.6-7-3.2-10.7-4.9c-12.9,1.9-25-9.3-34.7-16.8
		C303.5,191,310.7,175.4,308.7,163.8z M341.8,214.6c-0.3-0.5-0.6-0.9-1.3-0.2C341,214.5,341.4,214.5,341.8,214.6
		c-0.4,1.1,1.7,3,2,1.2C343.3,214.9,342.7,214.5,341.8,214.6z M311.8,197c0,0.2,0,0.4,0,0.5c0.1-0.1,0.2-0.1,0.2-0.2
		C312,197.3,311.9,197.2,311.8,197z"/>
	<path display="inline" fill="#937062" d="M455.5,516.2c0-2.8,0-5.5,0-8.3c2.3-1.6,4.3-3.4,7.3-3.5c-0.2,1.6-0.3,3.1-0.4,4.7
		c0.6,0.1,1.1,0.2,1.5,0.3l-0.1,0C462.5,512.8,459.3,516,455.5,516.2z"/>
	<path display="inline" fill="#AD8879" d="M385.6,513.5c-0.7-1.1-1.4-2.1-2.1-3.3c0.4-0.5,0.8-0.9,1.2-1.4c-0.2-1.3-0.3-2.6-0.5-4.2
		c3-0.3,4.6,2,6.8,2.9c0.5,2.9,0.2,5.8,0.1,8.7c-0.6,0.1-1,0.1-1.3,0.1C388.4,515.4,387,514.4,385.6,513.5z"/>
	<path display="inline" fill="#DBD1B0" d="M359,523.5c1.5-2.5,3.9-3.3,6.4-4.3c4.7-2.7,4.8-8.9,8.1-12.7c0.2,0,0.5,0,0.7,0l0,0
		c-0.4,8.7-5.3,11.1-10,16.6c-2.1,0.5-3.6,0.9-5.4,1.6C358.9,524.3,358.9,523.9,359,523.5z"/>
	<path display="inline" fill="#EAE6C8" d="M482.7,519.4c1.9,1.5,4.7,2.2,5.2,4.8c-1.9-0.3-3.8-1-5.7-0.7c0.7-2.2-2.2-3-3.5-4.2
		c-2.2-1.7-3.2-4.5-5-6.4l0,0.1c-0.1-2.2-0.5-4.3-0.7-6.4l0,0.1c0.4,0.2,0.9,0.5,1.3,0.7C476.4,511.3,477.4,518.6,482.7,519.4z"/>
	<path display="inline" fill="#261F1C" d="M393.3,158.9c-1.2,3.9-2.9,7.5-6.4,9.8c-0.2-0.2-0.4-0.4-0.5-0.6
		c2.6-3.2,4.4-7.1,6.2-10.7C392.6,158,392.5,158.7,393.3,158.9z"/>
	<path display="inline" fill="#221C19" d="M455.5,516.2c3.4,0,5.4-2.6,7.5-4.9c0.3,0.3,0.7,0.6,1,1c-2,2.8-4.6,4.6-8,5.4
		C455.8,517.2,455.6,516.7,455.5,516.2z"/>
	<path display="inline" fill="#A37C6E" d="M463.8,509.4c0.3-1.7,0.6-3.4,1-5.4c1.1-0.1,2.2-0.2,3.8-0.3
		C467.1,506,465.2,507.4,463.8,509.4L463.8,509.4z"/>
	<path display="inline" fill="#7D6559" d="M382.5,508.6c-1.5-1.7-2.9-3.2-4.4-4.7c1.2,0,2.3,0,3.5,0
		C382.2,505.4,382.9,506.7,382.5,508.6z"/>
	<path display="inline" fill="#2D2621" d="M385.6,513.5c1.4,0.9,2.8,1.9,4.2,2.8c-0.3,0.2-0.5,0.5-0.8,0.7c-1.6-0.6-3.5-0.7-4.2-2.7
		C385.1,514,385.3,513.8,385.6,513.5z"/>
	<path display="inline" fill="#2D1F1D" d="M455.4,115.2c-0.3,1.4,0.3,3-0.6,4.3c-0.7-1.1-0.8-2.3-0.7-3.6c0.2-0.3,0.5-0.5,0.7-0.8
		C454.9,115.1,455.2,115.1,455.4,115.2z"/>
	<path display="inline" fill="#523E38" d="M382.7,149.7c-0.8-1.2-1-2.5-0.5-4c1.3,1.1,1.3,2.5,1.1,4
		C383.2,149.7,382.9,149.7,382.7,149.7z"/>
	<path display="inline" fill="#1F1B19" d="M468.8,259c0.5,0,0.9,0,1.4,0c0,0.3,0,0.5,0,0.8c-0.7,0.5-1.3,0.9-2,1.4
		c-0.1-0.3-0.2-0.7-0.2-1C468.2,259.8,468.5,259.4,468.8,259C468.8,259,468.8,259,468.8,259z"/>
	<path display="inline" fill="#737062" d="M395.4,516.4c0,0.5,0,0.9-0.1,1.4C393.8,518.1,393.9,516,395.4,516.4z"/>
	<path display="inline" fill="#D69479" d="M381.9,501.7c0.8-0.1,1.6-0.4,2.2,0.5C383.3,502.2,382.5,502.4,381.9,501.7z"/>
	<path display="inline" fill="#979380" d="M451.2,516.8c1.3-0.3,1.3-0.3,0.9,1C451.8,517.4,451.5,517.1,451.2,516.8z"/>
	<path display="inline" fill="#453027" d="M452.6,405.2c0-0.4,0-0.8,0-1.2c0.1,0,0.2,0,0.4,0c0.1,0.4,0.1,0.8,0.2,1.3
		C453,405.2,452.8,405.2,452.6,405.2z"/>
	<path display="inline" fill="#B28C7D" d="M454.7,115.1c-0.2,0.3-0.5,0.5-0.7,0.8c0-0.5-0.1-1-0.1-1.4
		C454.2,114.7,454.5,114.9,454.7,115.1z"/>
	<path display="inline" fill="#736D5E" d="M373.5,506.5c-0.2,0.2-0.5,0.5-0.7,0.7C373.1,507,373.3,506.8,373.5,506.5z"/>
	<path display="inline" fill="#736D5E" d="M374.3,506.5c-0.2,0-0.5,0-0.7,0c0-0.5,0.3-0.7,0.8-0.6
		C374.3,506.1,374.3,506.3,374.3,506.5z"/>
	<path display="inline" fill="#2D1F1D" d="M456.1,115c-0.2,0-0.5,0.1-0.7,0.1C455.5,114.6,455.7,114.4,456.1,115z"/>
	<path display="inline" fill="#2D1F1D" d="M453.9,114.3c-0.3-0.2-0.5-0.3-0.8-0.5C453.4,114,453.7,114.1,453.9,114.3z"/>
	<path display="inline" fill="#977264" d="M375.6,121.5c-8.6,14.6,0,40.4-8.2,38.1c-3.7,17.8-11.4,34-15.4,51.2
		c-3.8-3.2-2.2-8.6-3.2-12.4c0.4-0.3,0.8-0.6,1.5-1.2c-0.7-0.2-1.1-0.2-1.5-0.3c-0.3-0.2-0.5-0.5-0.8-0.7c0.8-1.2,1.9-1.2,3.1-0.7
		c6.7-10.8,10.8-25.3,13.5-37.8C366.7,146.9,364.7,127.2,375.6,121.5z"/>
	<path display="inline" fill="#262221" d="M321.2,193.4c0.1-1.4,0.1-2.8,0.2-4.2C322.3,190.9,322.3,192.2,321.2,193.4z"/>
	<path display="inline" fill="#E3CABA" d="M413.8,111.5c-0.6,0.1-1.1,0.1-1.7,0.2c-5.3,6.6-10.3,5.5-11.1,15.4
		c0-4.3-0.2-8.3-0.8-12.6c3.4-1.6,5.7-3.4,8.1-6.3C410.2,109.2,412.1,110.2,413.8,111.5z"/>
	<path display="inline" fill="#957163" d="M413,108.8c0.2,0.2,0.5,0.4,0.7,0.5C413.5,109.2,413.3,109,413,108.8z"/>
	<path display="inline" fill="#EADDB8" d="M477.2,548.1c-1.2,2.8-1,6-2.8,8.5c-1.4,0.2-2.8,0.7-4.2,0.8c-0.2-0.3-0.5-0.5-0.7-0.8
		c1.2-0.9,2.2-1.8,2.5-3.7c-4.6,3.6-7.2,7.4-13.6,7.1c0.6-2.7,4-2.5,5.2-4.6c-0.8-0.4-1.5-0.8-2.3-1.2c-3.5,5-8.7,7.8-14.8,6.5
		c3.6-9.1,16.3-9,18.3-18.6c2.2-10.1,12.3-19.5,22.9-16.5h-0.1c3.6,7.3-4.2,12.2-8.2,17.1c-0.6-1.6-2.1-2-3.5-2.4
		c2.6-4.3,7-8.4,5.9-13.9c-3.1,6.1-10.1,11-9.5,18.4c0.9-1.1,1.8-2.1,2.6-3.1c-0.1,1.3-0.2,2.6-0.4,3.9c1.2,0.8,2.2,0.1,3.2-0.4
		C477.7,546.2,477.4,547.1,477.2,548.1z"/>
	<path display="inline" fill="#E5D7B3" d="M435.5,550.9c0.1,0.3,0.1,0.7,0.2,1.1c3.8,2.8,8.7,2.3,13.2,3.2
		c-2.8,6.5-9.9,7.1-14.1,1.4C435,554.7,434.4,552.7,435.5,550.9z"/>
	<path display="inline" fill="#453A31" d="M445.4,559.9c2.8-4.5,6.8-7.7,11.4-10.3c0.5,0.3,1.1,0.5,1.6,0.8
		c-5,1.8-9.2,5.6-11.9,10.3c1.7,0.5,3.5-0.1,5.3,0.2c-1.6,1.2-3.9,0.3-6.1,0.6C445.6,560.9,445.5,560.4,445.4,559.9z"/>
	<path display="inline" fill="#3C3128" d="M456.7,559.4c1.5-1.7,3.1-3.4,4.7-5.1c0.8,0.4,1.5,0.8,2.3,1.2c-1.2,2-4.6,1.8-5.2,4.6
		C457.8,559.8,457.2,559.6,456.7,559.4z"/>
	<path display="inline" fill="#504136" d="M469.5,556.6c0.2,0.3,0.5,0.5,0.7,0.8c-1.1,1.4-2,0.2-2.9-0.2c0.5-0.5,0.9-1,1.4-1.5
		C468.9,556,469.2,556.3,469.5,556.6z"/>
	<path display="inline" fill="#453A31" d="M442.6,560.8c0.7-0.2,1.5-0.4,2.2-0.5C444.2,561.2,443.4,560.9,442.6,560.8z"/>
	<path display="inline" fill="#312C29" d="M471.5,557.2c0.7-0.2,1.5-0.3,2.2-0.5C473.1,557.6,472.3,557.3,471.5,557.2z"/>
	<path display="inline" fill="#EBDDB8" d="M375.1,557.2c-0.9-0.3-1.7-0.6-2.9-0.9c-3.4-18.5-13-16.4-14.1-28.5
		c0.2-0.5,0.5-1,0.7-1.5l0,0c4.7-3.9,10,0.6,14.7,2.2c7.5,4.6,6.9,14.7,12.7,20.5c5.4,2.9,11.1,5.6,14,11.8c-6.4,1-11-1.8-14.8-6.6
		c-0.8,0.5-1.4,0.9-2.1,1.4c1.6,1.1,3.1,2.1,4.5,3c-5,3.5-8.9-3.2-12.7-5.5c0.3,1.5,1.1,2.1,2,2.8c0,0.5,1,0.9,0,1.4
		C376.4,557.4,375.7,557.3,375.1,557.2z M365.1,530.5c1.4,5.6,6.2,10,9.5,14.6c0.3-6.3-4.8-11.2-8.2-16c-0.1-1.2-0.6-2-1.9-2.6
		C364.8,528,364.9,529.2,365.1,530.5z"/>
	<path display="inline" fill="#4E4136" d="M394.7,560.9c1.8,0,3.6,0,5.5-0.1c-2.6-5-7-8.7-12-10.5c0.6-0.1,1.4,0,1.6-0.9
		c6,2.3,8.8,8.6,14.2,11.2C401,561.3,397.5,562.4,394.7,560.9z"/>
	<path display="inline" fill="#362F27" d="M387.7,558.7c-1.4-1-2.8-1.9-4.5-3c0.8-0.5,1.4-0.9,2.1-1.4c1.8,1.3,3,3.3,4.5,4.9
		c-0.3,0.3-0.6,0.6-0.9,0.9C388.5,559.6,388.1,559.1,387.7,558.7z"/>
	<path display="inline" fill="#584136" d="M378.4,555.9c0.2,0.3,0.4,0.5,0.6,0.8c-0.7,0.7-1.2,2-2.1,0.8c1-0.5,0-1,0-1.4
		c0-0.3,0.1-0.7,0.1-1C377.6,555.2,378,555.6,378.4,555.9z"/>
	<path display="inline" fill="#A1967D" d="M387.7,558.7c0.4,0.5,0.8,0.9,1.2,1.4c-1.2-0.1-2.4,0.3-3.5-0.5
		C386.1,559.1,387.2,559.8,387.7,558.7z"/>
	<path display="inline" fill="#584136" d="M379.1,556.7c0.2,0.2,0.4,0.4,0.7,0.7C379.5,557.1,379.3,556.9,379.1,556.7z"/>
	<path display="inline" fill="#584136" d="M379.8,557.4c0.2,0.2,0.4,0.4,0.6,0.7C380.2,557.9,380,557.6,379.8,557.4z"/>
	<path display="inline" fill="#63695B" d="M441.9,550.2c-0.4,0.2-0.7,0.4-1.1,0.6c-0.5-2.1-0.5-2.1,1-2.8
		C441.8,548.7,441.9,549.5,441.9,550.2z"/>
	<path display="inline" fill="#63695B" d="M443.4,546.8c-0.1,1.2,0.2,2.5-0.8,3.5C442.7,549,442.3,547.7,443.4,546.8z"/>
	<path display="inline" fill="#63695B" d="M440,547.6c-0.3,0.1-0.6,0.2-0.9,0.4C439.4,547.9,439.7,547.7,440,547.6z"/>
	<path display="inline" fill="#63695B" d="M441.8,547.6c-0.2,0-0.4,0-0.6-0.2c0.1-0.1,0.3-0.3,0.4-0.4
		C441.7,547.2,441.8,547.4,441.8,547.6z"/>
	<path display="inline" fill="#63695B" d="M442.6,550.2c-0.1,0.2-0.1,0.3-0.2,0.5c-0.2-0.2-0.3-0.3-0.5-0.5
		C442.2,550.2,442.4,550.2,442.6,550.2z"/>
	<path display="inline" fill="#36302A" d="M361.5,524.8c-0.9,0.5-1.8,1-2.7,1.6c0-0.6,0-1.1,0-1.7c0.6-0.2,1.3-0.4,1.9-0.6
		C361,524.3,361.2,524.6,361.5,524.8z"/>
	<path display="inline" fill="#36302A" d="M358.8,526.4c-0.2,0.5-0.5,1-0.7,1.5C358,527.2,357.9,526.5,358.8,526.4z"/>
	<path display="inline" fill="#D69479" d="M451.1,306.9c-0.2,0.2-0.5,0.5-0.7,0.7C450.6,307.4,450.8,307.2,451.1,306.9z"/>
	<path display="inline" fill="#F3EACB" d="M477.9,545.3c-1,0.5-2,1.1-3.2,0.4c0.3-1.8-0.1-3.8,1.3-5.3c1.4,0.4,2.9,0.7,3.5,2.4
		C478.9,543.6,478.4,544.5,477.9,545.3z"/>
	<path display="inline" fill="#5E493F" d="M487.1,525.5c-2-0.4-4-0.5-5.8-1.4c0.2-0.2,0.2-0.4,0.2-0.6c2.4-0.3,4.6,0.6,6.9,0.7
		c0,0.6,0,1.3-0.8,1.5h0.1C487.6,525.2,487.5,524.9,487.1,525.5z"/>
	<path display="inline" fill="#9C7C6F" d="M317,165.2c-0.2,0-0.4,0-0.6,0c-1.8-3.4-1.4-7.4-3.4-10.7c0-1.7,0-3.4,0-5.1
		c2.4-0.6,0.7,4.7,2.7,6C315.2,158.8,317.7,161.8,317,165.2z"/>
	<path display="inline" fill="#3C2F2A" d="M312.9,154.5c2,5,3.6,10.5,3.4,15.9c-0.1,0-0.2,0.1-0.4,0.1c-1.7-4.9-2.1-10.2-3.7-15.2
		C312.5,155,312.7,154.8,312.9,154.5z"/>
	<path display="inline" fill="#030202" d="M454,118c2.3,16.8,0.8,41.4,16.4,52.4c2.1-2.8,1.3-5.8,2.9-8.6c1.5-2.6,3-5.3,3.3-8.4
		c0.4-0.3,0.9-0.6,1.5-1c0.8,2.7-1,4.5-1.2,6.7c36.9,42,43.3,24,25.7,66.2c-0.3-0.5-0.5-1.1-0.8-1.6c1-9.6,9.7-17.9,8.1-27.7
		c-10.5-12.5-23.6-21.8-33.6-34.9c-4.5,11.7-7.5,24.1-11.3,36.2c-2.8,8.6-6.3,16.8-4.3,25.9c2.5,9.5,8.7,17.8,11.7,27.3
		c0.4,1.9,2.7,0,3.4,1.5c-1.8,0.5-3.6,1.1-5.4,1.6c-0.3-0.3-0.6-0.5-0.9-0.8c0.4-0.4,0.8-0.9,1.3-1.4c-20.2-38.7-12.3-39.1-0.9-78.9
		C454.8,160.5,451.8,136.4,454,118z"/>
	<path display="inline" fill="#221715" d="M469.5,252.8c0.3,0.3,0.6,0.5,0.9,0.8c-2.8,3.6-8.5,4.3-11.8,6.7c2.7,2.7,6.3,1.2,9.3,0
		c0.1,0.3,0.2,0.7,0.2,1l0,0c-0.3,0.2-0.7,0.5-1,0.7c0,0-0.3,0-0.3,0c-2.9,1.2-6.6,1.2-9.4-0.5c0-0.8,0-1.6,0-2.5
		C461.5,256.8,465.8,255.4,469.5,252.8z"/>
	<path display="inline" fill="#4E4642" d="M424.7,204.7c-0.9-1.2,0.9-7.1,2-8C427.2,198.9,426,202.6,424.7,204.7z"/>
	<path display="inline" fill="#1D1817" d="M423.4,211.5c0.1-1.9,0.8-3.6,1.9-5c2.3,0.7-1,4.9-1,6.7
		C423.5,212.9,423.6,212.1,423.4,211.5z"/>
	<path display="inline" fill="#3A322F" d="M423.4,211.5c0.2,0.6,0,1.4,0.9,1.7c0.2,0.6,0.4,1.3,0.6,2.1c-0.7,1-0.3,2.7-1.8,3.7
		c-1-1.7,0.3-2.9,0.4-4.5C423.4,213.6,422.3,212.6,423.4,211.5z"/>
	<path display="inline" fill="#584D48" d="M427.8,191.9c-1.3,1.6-1.9,3.8-3.9,5.3c0.7-3.1,1.3-4,3.4-5.9
		C427.4,191.5,427.6,191.7,427.8,191.9z"/>
	<path display="inline" fill="#4E4541" d="M423.3,224.3c-0.5-2.2-0.4-2.5,1.4-4.8C425.1,221.1,424.9,223.5,423.3,224.3z"/>
	<path display="inline" fill="#5D4C47" d="M426.9,186.8c-0.8,1.3-1.1,1.8-1.5,2.5C424.6,188.1,425,187.5,426.9,186.8z"/>
	<path display="inline" fill="#735650" d="M423.6,227.3c0.3-0.9,0.3-0.9,1.1-1.2c0.6,0.8,0.4,1.4-0.2,2.1
		C424.2,227.8,423.9,227.5,423.6,227.3z"/>
	<path display="inline" fill="#3A342F" d="M423.7,234.7c0-0.7,0-1.4,0-2.1c0.1,0,0.3,0,0.4,0c0,0.7,0,1.4,0,2.1
		C423.9,234.7,423.8,234.7,423.7,234.7z"/>
	<path display="inline" fill="#181514" d="M423.6,227.3c0.3,0.3,0.6,0.5,0.8,0.8c-0.1,0.6,0,1.3-0.9,1.3
		C422.8,228.6,423.6,228,423.6,227.3z"/>
	<path display="inline" fill="#736760" d="M423.7,237.7c-0.5,0.8-1,0.9-1.3,0.2C422.5,237,423.1,237.1,423.7,237.7z"/>
	<path display="inline" fill="#584C48" d="M422.7,243c0,0.5,0,1,0,1.6C421.7,244.1,422.2,243.5,422.7,243z"/>
	<path display="inline" fill="#1F1B19" d="M462.9,262.6c0.8,0,1.6,0,2.4,0C464.5,263.3,463.7,263.3,462.9,262.6z"/>
	<path display="inline" fill="#6F5A54" d="M426.1,183.8c-0.3,0.5-0.5,0.4-0.9,0.2C425.5,183.5,425.7,183.6,426.1,183.8z"/>
	<path display="inline" fill="#95867D" d="M427.8,179.3c-0.1,0.1-0.2,0.2-0.4,0.4c-0.1-0.3-0.4-0.6,0-0.8
		C427.6,179,427.7,179.2,427.8,179.3z"/>
	<path display="inline" fill="#1F1B19" d="M465.9,262.4c0.3-0.2,0.6-0.3,0.9-0.5C466.6,262.1,466.2,262.2,465.9,262.4z"/>
	<path display="inline" fill="#1F1B19" d="M467.3,261.8c0.3-0.2,0.6-0.4,0.8-0.6C467.9,261.4,467.6,261.6,467.3,261.8z"/>
	<path display="inline" fill="#D29176" d="M463.1,377.5c5.6,2.5,7.7,9.5,5.3,15.2c-0.4,0.1-0.8,0.3-1.3,0.4c-0.4,0.7-0.8,1.3-1.2,2
		c-0.1-1.6,0.3-3.2-0.2-4.9c-0.5,0-0.8,0-1.1,0.1c-0.3-0.5-0.6-1-0.8-1.5c1.2-1.6,1.3-2.8,0-4.3l0,0.1c0.5-1.2,1.1-3.2-0.7-3.6
		c0,0,0,0.1,0,0.1C463,379.9,463.1,378.7,463.1,377.5z"/>
	<path display="inline" fill="#D59479" d="M474.2,436.1c1.4-0.1,2.8,1.1,3.6,1.8c0.3,3.8,0.4,7-1.2,10c-0.2,0-0.4,0.1-0.7,0.1
		c-0.5-0.5-1-1-1.5-1.5C474.3,443.1,474.2,439.6,474.2,436.1z"/>
	<path display="inline" fill="#3F2C24" d="M474.2,436.1c-0.4,5,1.5,10.4-1.6,14.8c-0.4-5.3,0.7-9.4,0.5-14.6
		C473.5,436.3,473.8,436.2,474.2,436.1z"/>
	<path display="inline" fill="#D29176" d="M463.8,388.8c-0.9-2.8-3.4-8.7-1.3-11.3c0.3,1-0.7,3.3,0.7,3.5l0-0.1
		c0.1,1.3-0.4,2.7,0.7,3.6l0-0.1c0.1,1.4,0.1,2.7,0.2,4.1L463.8,388.8z"/>
	<path display="inline" fill="#5D3F35" d="M468.1,455c0-0.5,0-0.9,0-1.4c0.9-1,1.4-2.2,2.2-3.4c0.7,1.8,0.7,1.8-0.1,3.9
		C469.6,454.3,468.9,454.7,468.1,455z"/>
	<path display="inline" fill="#402D26" d="M464.6,390.3c0.3,0,0.7,0,1.1-0.1c0.5,1.6,0.1,3.3,0.2,4.9
		C463.6,395.3,464.9,391.8,464.6,390.3z"/>
	<path display="inline" fill="#0B0807" d="M475.3,389.9c-1.2,0.3-1.6-4.4-0.8-5.2C475.8,387.5,475.8,387.5,475.3,389.9z"/>
	<path display="inline" fill="#2E201A" d="M465.9,498.7c-0.4,0.5-0.8,1-1.3,1.5c-1-1.5-1-1.5,0.3-3.5c1-0.1,1,0.7,1.1,1.4
		C465.9,498.3,465.8,498.4,465.9,498.7z"/>
	<path display="inline" fill="#714E41" d="M465.9,457.2c-1.4-0.9-0.3-2.5,0.3-3.4c1.2,0,1,0.7,1,1.3
		C466.8,455.7,466.4,456.5,465.9,457.2z"/>
	<path display="inline" fill="#63463B" d="M475.8,448.1c0.2,0,0.4-0.1,0.7-0.1c1.1,0.8,0.8,1.7,0.4,2.8
		C475.3,450.2,475.9,449,475.8,448.1z"/>
	<path display="inline" fill="#403229" d="M467.3,489.5c-2.8,0.1-0.5-3.9,0.2-0.5C467.3,489.1,467.3,489.3,467.3,489.5z"/>
	<path display="inline" fill="#271D19" d="M452.7,306.8c0-0.3-0.1-0.7-0.1-1.1c1-0.3,2-1.1,2.6,0.4
		C454.4,306.4,453.5,306.6,452.7,306.8z"/>
	<path display="inline" fill="#3F2C25" d="M473.1,380.2c-0.1-1-0.1-1.7-0.2-2.4C473.9,378.5,473.9,379.2,473.1,380.2z"/>
	<path display="inline" fill="#30211C" d="M462.5,380.3c0-0.9,0-1.9,0-2.8c0.2,0,0.4-0.1,0.6,0c0,0.9,0,1.9,0,2.8
		C462.9,380.3,462.7,380.3,462.5,380.3z"/>
	<path display="inline" fill="#49261F" d="M466.6,493c-0.3,0.1-0.6,0.3-1,0.5c-0.4-0.6-0.5-0.8-0.1-1.6c0.4,0.2,0.7,0.4,1.1,0.5
		C466.5,492.6,466.5,492.8,466.6,493z"/>
	<path display="inline" fill="#895A4D" d="M458.2,304.8c0.7-0.8,0.7-0.8,1.4,0C459.1,304.8,458.7,304.8,458.2,304.8z"/>
	<path display="inline" fill="#50382E" d="M468.8,452.8c-0.2,0.3-0.5,0.6-0.7,0.8c0-0.5-0.1-0.9-0.1-1.4
		C468.3,452.4,468.6,452.6,468.8,452.8z"/>
	<path display="inline" fill="#D59378" d="M375.6,450.8c-0.8-0.1-1.7,0.4-2.1-0.7c0.3-0.1,0.6-0.1,1-0.2c-0.4-4.7-0.7-9.3-1.1-13.9
		c1.9-0.4,3.4,1,3.7,2.8c1.2,6.2,5.2,10.6,9.1,15.4c1,4.2-2.6,5.6-5.6,2.8c1.3-0.5,0.9-3.3-0.6-3.2c-0.7,1.3,0.6,2.1,0.6,3.2
		c-1.3-1.1-3.1-1.4-4.2-2.9c0.8,0.2,1.7,0.3,2.7,0.5c-0.1-0.9-0.1-1.6-0.2-2.2c-0.7-0.3-1.2-0.5-1.6-0.7c-0.4-0.6-0.1-1.5-1.1-1.7
		C376.1,450.4,375.9,450.6,375.6,450.8z"/>
	<path display="inline" fill="#D49378" d="M384.1,383.1c0.9,0,1.8,0,3,0c3,3.1,5.8,8.7,2.5,12.7c-0.4-0.4-0.7-0.8-1.2-1.3
		c-0.1,0.5-0.3,0.9-0.4,1.3c-1.7-2.5-4.3-4.2-5.5-7C383.8,387.1,383.3,385,384.1,383.1z"/>
	<path display="inline" fill="#30211C" d="M373.4,436.1c0.3,4.6,0.7,9.2,1.1,13.9c-0.3,0.1-0.7,0.1-1,0.2
		C372.7,445.6,371.2,440.3,373.4,436.1z"/>
	<path display="inline" fill="#6A4B40" d="M384.1,383.1c-0.8,1.9-0.3,4-1.5,5.7c-0.2-0.3-0.4-0.5-0.6-0.8c0.9-1.2,0.9-1.6,0-2.7
		c2-2.4,0.8-5,1.8-7.7C385.6,378.5,384.2,381.4,384.1,383.1z"/>
	<path display="inline" fill="#59423A" d="M375.6,450.8c0.2-0.2,0.5-0.4,0.7-0.6c1,0.2,0.7,1.1,1.1,1.7c0.4,0.2,0.9,0.4,1.6,0.7
		c0,0.6,0.1,1.2,0.2,2.2c-1-0.2-1.9-0.3-2.7-0.5C376.1,453.1,375.9,452,375.6,450.8z"/>
	<path display="inline" fill="#33231D" d="M372.1,390.2c-1.7-0.5-1.2-5,0.6-5.4C372.8,386.7,373,388.4,372.1,390.2z"/>
	<path display="inline" fill="#402E27" d="M371.1,430.7c0.7,2.8,0.5,4.9,0,7C370.5,435.6,370.5,433.5,371.1,430.7z"/>
	<path display="inline" fill="#291D18" d="M382.7,500.3c-1.4-1.2-1.4-1.2-1.3-3.5c0.4,0,0.8,0,1.2,0.1
		C382.6,498,382.7,499.1,382.7,500.3z"/>
	<path display="inline" fill="#0F0B0A" d="M381.5,394.8c-0.5-1.5-0.8-3,0.1-4.9C382.3,391.8,382.2,393.3,381.5,394.8z"/>
	<path display="inline" fill="#775446" d="M388.2,395.8c0.1-0.4,0.2-0.8,0.4-1.3c0.5,0.5,0.8,0.9,1.2,1.3c0,0.6,0,1.1,0,1.7
		C388.5,397.5,388.4,396.5,388.2,395.8z"/>
	<path display="inline" fill="#2F211C" d="M370.6,423.5c0,1,0,2,0,3.1C369.4,425.7,369.3,425.7,370.6,423.5z"/>
	<path display="inline" fill="#35211B" d="M382,385.3c0.9,1.2,1,1.6,0,2.7C382,387.1,382,386.2,382,385.3z"/>
	<path display="inline" fill="#46231D" d="M381.2,493.7c-0.9-1-0.9-1,0.1-1.9C381.8,492.4,381.8,493,381.2,493.7z"/>
	<path display="inline" fill="#36251F" d="M383.4,381c0.1,1.1,0.1,2-0.7,2.8C382.8,382.8,382.1,381.7,383.4,381z"/>
	<path display="inline" fill="#977264" d="M512.5,199.8c-0.2-5.4-0.2-5.5-4.2-9.4c-10.8-10.1-21.2-20.8-31.5-31.4
		c0.3-2.2,2.1-4,1.2-6.7c-0.7,0.4-1.1,0.7-1.5,1c-0.3-1.7,1.5-1.8,2-3.1c5.3,2.4,6.4,9.1,11,12.4c6.8,5.9,16.9,5.7,23.4,11.5
		c-3.3,2.9-7.4,1.4-11.7,1.7c6.4,5.4,11.8,11.3,19,15.4c-1.5,0.5,0.1,2.3,0.7,0.8c3.8,1,9,2.3,11.1,5.7c-2.7,1.8-8.5-0.9-12.1-2
		C517.8,197.8,513.5,196.2,512.5,199.8z M521.6,193.1c1,2.9,3,3.7,5,2.2C525,194.7,523.6,194,521.6,193.1z M493.8,167.5
		c0.8,2.1,1.6,2.6,4.6,3.1C497.1,168.9,495.5,168.2,493.8,167.5z M509.4,174.1c-0.3-0.7-0.7-0.9-1.4-0.9
		C507.3,174,508.7,174.6,509.4,174.1z M505.6,172.9c-0.8-0.6-1.1-0.7-1.4,0.2C504.6,173.7,505,173.3,505.6,172.9z M501.3,171.7
		c-0.1,0.1-0.3,0.2-0.4,0.3c0.2,0.4,0.5,0.1,0.8,0C501.5,171.9,501.4,171.8,501.3,171.7z"/>
	<path display="inline" fill="#171110" d="M501.8,223.5c0.3,0.5,0.5,1.1,0.8,1.6c-3.6,8-8.8,15-13.2,22.5c-3,3.5-9.3,3.3-13.6,4.2
		c-0.8-1.5-3.1,0.3-3.4-1.5C490,252.1,494.1,236,501.8,223.5z"/>
	<path display="inline" fill="#977164" d="M467.9,260.2c-3,1.2-6.3,2.7-9.1,0.2c3.7,0.6,6.6-0.8,9.9-1.4
		C468.5,259.4,468.2,259.8,467.9,260.2z"/>
	<path display="inline" fill="#3C2D29" d="M476,122.4c1.4,0.7,2.2,1.5,2.5,3C476.6,125.1,476.5,125.1,476,122.4z"/>
	<path display="inline" fill="#544039" d="M491,146.6c-1.1,0.5-2.4-1.1-1.2-1.7C490.6,144.7,491.4,145.7,491,146.6z"/>
	<path display="inline" fill="#624941" d="M479.9,124.6c0.7,0.9,1.1,1.4,1.5,2C479.8,127.1,479.5,126.8,479.9,124.6z"/>
	<path display="inline" fill="#402E29" d="M497.9,145c1.1,1.3,1.4,1.4,0.5,2.5C497.4,146.6,497.5,146.7,497.9,145z"/>
	<path display="inline" fill="#624C45" d="M497,253.8c0.6-0.4,1.1-0.7,1.6-0.9C499.8,253.7,497.7,255.6,497,253.8z"/>
	<path display="inline" fill="#3D2C27" d="M477.6,147.8c0.6,0.9,0.4,1.6-0.5,2.2C476.5,148.9,476.5,148.9,477.6,147.8z"/>
	<path display="inline" fill="#523F38" d="M501.8,247.8c0.3,1-0.1,1.8-0.7,2.7C500.1,249.3,500.2,248.9,501.8,247.8z"/>
	<path display="inline" fill="#3E2D28" d="M495.2,147.2c-0.8-0.2-0.7-0.9-0.8-1.5C495.5,145.4,495.7,146.6,495.2,147.2z"/>
	<path display="inline" fill="#604B41" d="M521,192c-0.7,1.5-2.3-0.3-0.7-0.8C520.5,191.5,520.7,191.7,521,192z"/>
	<path display="inline" fill="#977164" d="M502.6,247.7C502.9,245.3,505,247.5,502.6,247.7C502.6,247.7,502.6,247.7,502.6,247.7z"/>
	<path display="inline" fill="#543731" d="M477.4,145.8c-0.1-0.4-0.1-0.9-0.2-1.3c0.2,0,0.3,0,0.5-0.1c0.1,0.4,0.1,0.9,0.2,1.3
		C477.7,145.7,477.5,145.7,477.4,145.8z"/>
	<path display="inline" fill="#6C4B3D" d="M373.9,377.7c0.5,0.8,0.6,1.6-0.1,2.4C372.5,379.1,372.5,378.4,373.9,377.7z"/>
	<path display="inline" fill="#2B1E19" d="M395.8,306.7c-0.8-0.2-1.5-0.5-2.5-0.8c1.3-0.7,2.1-0.5,2.8,0.1
		C396,306.2,395.9,306.4,395.8,306.7z"/>
	<path display="inline" fill="#A76D59" d="M390,305.2c-0.5-0.4-1.4-0.2-1.5-1.1C390.1,304.1,390.1,304.1,390,305.2z"/>
	<path display="inline" fill="#3B2720" d="M370.7,448c0,0.8,0.4,1.7-0.4,2.6C369.6,449.6,369.5,448.7,370.7,448L370.7,448z"/>
	<path display="inline" fill="#070302" d="M380.5,489.5c-0.9-0.4-0.9-1.1-0.5-2C381.1,488.1,380.4,488.8,380.5,489.5L380.5,489.5z"
		/>
	<path display="inline" fill="#93604E" d="M383,303c-0.3,0.4-0.5,0.3-0.8,0C382.5,302.7,382.7,302.9,383,303z"/>
	<path display="inline" fill="#2B1A16" d="M379.3,486.7c0-0.4,0-0.8,0-1.4C380.1,486,379.7,486.3,379.3,486.7L379.3,486.7z"/>
	<path display="inline" fill="#392824" d="M314.5,178.1c1.6,0.7,1.2,1.8,1.1,3.2C314.5,180.2,314,179.3,314.5,178.1z"/>
	<path display="inline" fill="#3D2D28" d="M388.6,121.5c-1.8-0.6-1.8-0.6-2.2-1.7C387.6,119.5,388,120.3,388.6,121.5z"/>
	<path display="inline" fill="#463731" d="M361.8,215.7c-0.1-1.4-0.1-1.4,0.8-2.4C363.3,214.5,362.9,215.1,361.8,215.7z"/>
	<path display="inline" fill="#83685D" d="M316.9,186.5c-0.8-1-1.4-1.1-0.7-2.1C317.4,184.7,317,185.2,316.9,186.5z"/>
	<path display="inline" fill="#5E413A" d="M390.4,120.8c-0.2-0.2-0.3-0.5-0.5-0.7c0.2-0.2,0.5-0.3,0.7-0.5c0.2,0.3,0.3,0.5,0.5,0.8
		C390.9,120.5,390.7,120.6,390.4,120.8z"/>
	<path display="inline" fill="#7A594F" d="M382.7,143.8c-1.3-0.8-1.3-0.8-0.2-1.8C382.6,142.7,382.6,143.2,382.7,143.8z"/>
	<path display="inline" fill="#473933" d="M348.8,196.9c0.4,0.1,0.8,0.2,1.5,0.3c-0.7,0.5-1.1,0.9-1.5,1.2
		C347.9,197.9,348.8,197.4,348.8,196.9z"/>
	<path display="inline" fill="#65453D" d="M363.2,209.6c0.6,1.3,0.3,1.5-1.3,1.1C362.5,210.2,362.8,210,363.2,209.6z"/>
	<path display="inline" fill="#39312B" d="M382.1,542.5c-1.6-9.2-8.5-15-17.1-17.6c0.5-0.2,1-0.4,1.5-0.6c8.4,1.9,14.9,8,16.3,16.6
		C382.5,541.4,382.3,542,382.1,542.5z"/>
	<path display="inline" fill="#3F3A32" d="M382.1,542.5c0.2-0.5,0.4-1,0.7-1.5c1.4,3.7,3.3,6.9,7,8.6c-0.2,0.8-1,0.8-1.6,0.9
		C385.1,548.8,383.1,545.7,382.1,542.5z"/>
	<path display="inline" fill="#736D5E" d="M368.4,519.1c3.8-3.4,5.1-7.8,5.8-12.6c2.1,3-1.8,10.5-4.6,12.8
		C369.2,519.2,368.8,519.2,368.4,519.1z"/>
	<path display="inline" fill="#554D43" d="M368.4,519.1c0.4,0.1,0.8,0.1,1.2,0.2c-2,1.7-3.7,3.4-5.2,5.5c-1,0-1.9,0-2.9,0
		c-0.3-0.3-0.6-0.5-0.8-0.8c1.1-0.3,2.2-0.6,3.5-0.9C364.8,521.5,366.7,519.8,368.4,519.1z"/>
	<path display="inline" fill="#2D1210" d="M364.4,524.8c0.3-0.3,0.5-0.5,0.8-0.8c0.4,0.1,0.8,0.2,1.2,0.3
		C365.8,524.5,365.1,525.2,364.4,524.8z"/>
	<path display="inline" fill="#322923" d="M481.3,524.1c0.5,0.2,1,0.4,1.5,0.6c-19.8,4.6-12.7,17.4-24.4,25.7
		c-0.5-0.3-1.1-0.5-1.6-0.8C468.3,543,462.7,527.2,481.3,524.1z"/>
	<path display="inline" fill="#777163" d="M473.6,512.9c1.8,1.9,2.8,4.6,5,6.4c-0.2,0.2-0.5,0.5-0.7,0.7
		C475.4,518.2,473.8,516,473.6,512.9z"/>
	<path display="inline" fill="#413931" d="M477.9,519.9c0.2-0.2,0.5-0.5,0.7-0.7c1.3,1.3,4.2,2,3.5,4.2c-0.1,0-0.4,0-0.6,0
		C480.3,522.3,479.1,521.1,477.9,519.9z"/>
	<path display="inline" fill="#6C6659" d="M473,506.5c0.2,1.7,0.4,3.3,0.6,5c-0.3,0-0.5,0-0.8,0C472,510.2,471.1,507.2,473,506.5z"
		/>
	<path display="inline" fill="#69675A" d="M472.8,511.5c0.3,0,0.5,0,0.8,0c0,0.5,0.1,1,0.1,1.4C472.9,512.8,472.9,512.1,472.8,511.5
		z"/>
	<path display="inline" fill="#534039" d="M494.8,259.3c-0.8,0.7-1.4,1.3-2.1,1.9C492.1,259.5,492.4,259.2,494.8,259.3z"/>
	<path display="inline" fill="#654C43" d="M341.8,214.6c0.9,0,1.6,0.3,2,1.2C343.5,217.6,341.3,215.7,341.8,214.6L341.8,214.6z"/>
	<path display="inline" fill="#654C43" d="M341.8,214.6c-0.4-0.1-0.8-0.1-1.3-0.2C341.2,213.7,341.5,214.1,341.8,214.6L341.8,214.6z
		"/>
	<path display="inline" fill="#250E0D" d="M311.8,197c0.1,0.1,0.2,0.2,0.3,0.3c-0.1,0.1-0.2,0.1-0.2,0.2
		C311.8,197.4,311.8,197.2,311.8,197z"/>
	<path display="inline" fill="#736D5E" d="M367.9,519.3c-0.3,0.2-0.5,0.4-0.8,0.6C367.4,519.7,367.6,519.5,367.9,519.3z"/>
	<path display="inline" fill="#564F42" d="M476,540.4c-1,1.6-2.3,3-3.5,4.5c-0.7-1.7,0.3-3,0.7-4.4c1.4,0.5,1.6,0.4,2-1.2
		c1.2-1.3,2.5-2.6,2.9-4.5l0,0c0.2-0.2,0.5-0.5,0.7-0.7l0,0c0.9-0.4,1.4-0.9,1.2-2.3c-0.6,0.7-0.9,1.1-1.3,1.5
		c-0.2-0.2-0.4-0.4-0.6-0.7c0.7-0.9,1.4-1.9,2.1-2.8c0.4,0.7,0.9,1.4,1.3,2C479.9,534.9,477.8,537.6,476,540.4z"/>
	<path display="inline" fill="#685C4D" d="M477.9,532.7c0.2,0.2,0.4,0.4,0.6,0.7c0,0.2,0.1,0.5,0.1,0.7c0,0,0,0,0,0
		c-0.2,0.2-0.5,0.5-0.7,0.7l0,0c-3.2,0.8-2,7.1-4.8,5.7C473.9,537.4,475.8,534.9,477.9,532.7z"/>
	<path display="inline" fill="#2C261F" d="M481.4,531.9c-0.4-0.7-0.9-1.4-1.3-2c0.5-1.1,0.6-2.4,1.9-3.3
		C482.5,528.5,481.8,530.2,481.4,531.9z"/>
	<path display="inline" fill="#8D7F6A" d="M469.5,556.6c-0.3-0.3-0.6-0.6-0.9-0.9c0.9-1,1.7-2.1,3.4-2.8
		C471.7,554.8,470.7,555.8,469.5,556.6z"/>
	<path display="inline" fill="#171513" d="M487.1,525.5c0.4-0.6,0.5-0.2,0.6,0.2C487.5,525.6,487.3,525.5,487.1,525.5z"/>
	<path display="inline" fill="#575043" d="M366.5,529.1c3.4,4.8,8.5,9.7,8.2,16c-3.3-4.7-8.1-9.1-9.5-14.6
		C366.2,530.6,366.5,530,366.5,529.1z M372.1,539.7c0.1,0.1,0,0.8,0.5,0.3C372.4,539.9,372.3,539.8,372.1,539.7
		c0-0.6,0.1-1.2-0.7-1.4c-0.8-2.3-2.1-4.3-4.2-5.6c-0.1-0.3-0.2-0.7-0.3-1.3c-0.5,0.8-0.2,1.1,0.3,1.3c0.9,2.2,2.3,4.1,4.2,5.7
		C371.4,538.9,371.4,539.4,372.1,539.7z"/>
	<path display="inline" fill="#312A23" d="M366.5,529.1c0,0.9-0.3,1.5-1.3,1.4c-0.2-1.2-0.4-2.5-0.6-4
		C365.9,527.1,366.4,527.9,366.5,529.1z"/>
	<path display="inline" fill="#786B59" d="M377.1,555c0,0.3-0.1,0.7-0.1,1c-0.9-0.6-1.8-1.3-2-2.8
		C376.1,553.6,376.7,554.2,377.1,555z"/>
	<path display="inline" fill="#786B59" d="M378.4,555.9c-0.2-0.2-0.5-0.4-0.7-0.5C378,555.5,378.2,555.7,378.4,555.9z"/>
	<path display="inline" fill="#31221C" d="M463.8,384.6c-1.1-0.9-0.7-2.3-0.7-3.6C464.9,381.4,464.3,383.3,463.8,384.6z"/>
	<path display="inline" fill="#160F0C" d="M464,388.5c-0.1-1.4-0.1-2.7-0.2-4.1C465,386,465,386.9,464,388.5z"/>
	<path display="inline" fill="#31221C" d="M462.5,380.3c0.2,0,0.4,0,0.6,0c0,0.2,0,0.5,0.1,0.7C462.6,381.1,462.4,380.8,462.5,380.3
		z"/>
	<path display="inline" fill="#533B31" d="M380.6,457.1c0-1.1-1.3-1.9-0.6-3.2C381.5,453.8,382,456.6,380.6,457.1L380.6,457.1z"/>
	<path display="inline" fill="#281C18" d="M521.6,193.1c2,0.9,3.4,1.5,5,2.2C524.6,196.8,522.6,196,521.6,193.1z"/>
	<path display="inline" fill="#2C1E1A" d="M493.8,167.5c1.7,0.7,3.4,1.4,4.6,3.1C495.4,170.1,494.6,169.6,493.8,167.5z"/>
	<path display="inline" fill="#6C5147" d="M509.4,174.1c-0.7,0.6-2.1,0-1.4-0.9C508.7,173.2,509.1,173.3,509.4,174.1z"/>
	<path display="inline" fill="#4B3730" d="M505.6,172.9c-0.6,0.4-1,0.8-1.4,0.2C504.5,172.2,504.8,172.4,505.6,172.9z"/>
	<path display="inline" fill="#5F3E37" d="M501.3,171.7c0.1,0.1,0.2,0.2,0.3,0.3c-0.3,0.1-0.6,0.3-0.8,0
		C501,171.9,501.1,171.8,501.3,171.7z"/>
	<path display="inline" fill="#AFA98C" d="M475.1,539.2c0.2-2,1.2-3.5,2.9-4.5C477.5,536.6,476.3,537.9,475.1,539.2z"/>
	<path display="inline" fill="#A9A88B" d="M478.6,534.1c0-0.2-0.1-0.5-0.1-0.7c0.4-0.4,0.7-0.8,1.3-1.5
		C480,533.2,479.5,533.7,478.6,534.1z"/>
	<path display="inline" fill="#A9A88B" d="M477.9,534.8c0.2-0.2,0.5-0.5,0.7-0.7C478.4,534.3,478.1,534.5,477.9,534.8z"/>
	<path display="inline" fill="#A8A387" d="M367.2,532.6c2.1,1.4,3.4,3.3,4.2,5.6l-0.1,0.1C369.5,536.8,368.1,534.9,367.2,532.6
		L367.2,532.6z"/>
	<path display="inline" fill="#A8A387" d="M367.2,532.6c-0.5-0.2-0.7-0.5-0.3-1.3C367,531.9,367.1,532.3,367.2,532.6L367.2,532.6z"
		/>
	<path display="inline" fill="#ADA387" d="M371.4,538.2c0.7,0.3,0.7,0.9,0.6,1.5l0,0C371.4,539.4,371.4,538.9,371.4,538.2
		L371.4,538.2z"/>
	<path display="inline" fill="#A09B81" d="M372.1,539.7c0.2,0.1,0.4,0.2,0.5,0.3C372.1,540.5,372.3,539.8,372.1,539.7L372.1,539.7z"
		/>
</g>
<g id="a_00000024715323944397439690000010016737211389435784_">
	<path d="M467.4,74.4c0.3,1.2,0.4,2.3-0.9,3.3c1.1,1.6,0.8,3.4,0.3,5.3c-0.4-0.1-0.8-0.2-1.3-0.3c0.4,2.6-0.7,5.1-0.4,7.9
		c-0.9-0.3-1.5-0.6-2.4-0.9c-0.3,0.4-0.6,0.8-1.1,1.5c0.1,0.5,0.3,1.2,0.5,2.1c-0.4,1.1-0.9,2.4-1.4,3.6c-0.5-0.1-0.9-0.3-1.6-0.5
		c-0.1,1.1-0.5,2.1-1,3c-0.7-0.1-1.2-0.2-1.8-0.3c-0.8,1.3-1.6,2.5-2.5,3.9c0,0.5,0,1.2,0,2.4c-0.7-0.8-1.2-1.4-1.7-2
		c-1.7,0.6-2.8,1.8-2.7,3.9c-1.3,0-2.3,0-3.4,0c-1.6,2.6-2.1,4.9-5.9,4.3c-4.1,16.9-1.2,21.2,14.6,26.5c-0.3,1.1-1.4,0.7-2.1,0.9
		c-4.4-2-8.9-4-13.3-5.5c-2.7-6.2-1.9-12.5-2.4-19.2c-1.8,1.7-2.3,4.8-5,3.2c-0.9,0.5-1,2-2.4,1.8c0-1.8-2-2.9-3.4-2.6
		c-0.1,0.7-0.2,1.5-0.4,2.3c-4.3-1.2-3.9-2-6.5-3.4c-0.2,0.5-0.4,1-0.6,1.5c-1.8-1.1-3.4-2-5.1-3c-0.3,0.4-0.6,0.8-0.7,0.9
		c-1.2,0.2-2-1-2.9,0.1c0,5.6,0.5,11-1.6,16.4c7.7,6.1,17.6,4.8,26.7,3.2c0,0.3,0,0.6,0,0.8c-9.4,3.9-19.6,3.7-27.8-2.7
		c-2.4,2.9-4.8,4.7-8,6.2c1.8,15.1,0.1,30.6-7,44.2c-1.9-3.4,3.4-11.7,3.8-16.1c2.5-8.9,2.9-18.3,2.2-27.5
		c-30.7,8.2-29.8,3.4-34.2,36.5c-2.1-12.9,1.1-33.6,17.7-34.3c18.1-1.5,33-11.2,24.8-30.8c-0.5,0.2-1.1,0.4-1.9,0.6
		c-0.6-2.2-2.6-2.6-3.3-4.6c-1.4,0-2.7,0-4.3,0c0.5-1.1,0.9-1.9,1.2-2.7c-0.8-1.5-1.6,0.4-2.8-0.4c-0.3-1.9-1.8-2.9-3.9-3.4
		c0.7-0.7,1.3-1.3,2-1.9c-0.9-0.3-1.7-0.7-2.5-1c-0.5,0.2-1,0.4-1.6,0.7c-0.5-0.5-0.9-0.9-1.4-1.4c0.6-1.1,1.1-2.2,1.8-3.6
		c-1.5,0.1-2.3,0.3-3.4,1.1c-0.5-1.1-0.4-1.6,0.1-3.4c-0.6,0.2-1,0.3-1.6,0.1c0-1.8-1.4-3.4-0.3-5.5c-0.5-0.4-1-0.7-1.5-1
		c0.1-1.4,0.2-2.7,0.3-4.1c-1.8-0.8-2.9-2.1-3.9-3.8c1-1.1,1.6-2.3,2.1-3.9c-0.8-0.2-1.4-0.3-2.1-0.5c-0.4-1.7,0.6-3.1,0.2-4.8
		c-0.6-1.4,0.5-2.4,1.7-3c-0.3-1.9-1.8-1.2-3-1.3c-0.5-2.1,2.1-3.8,3-5.9c-0.1-0.1-1.1-0.1-1.5-0.2c-1.3-1.5,0.8-2.6,1.7-3.7
		c0.7-0.1,1.4-0.2,1.2-1.2c-0.8-0.3-1.6-0.4-2.1,0.5c-1.1-1.1-0.2-2.2,0.2-3.4c1.9-1.1,3.7-0.8,2.9-3.6c1.9-1.4,3.4-4.4,6.2-3.7
		c0.3,0.1,0.8-0.2,1.5-0.5c-1.1-0.6-1.9-1-2.8-1.6c2-1.5,4.8-0.9,6.3-2.9c-0.5-0.3-0.9-0.5-1.5-0.8c1.3-1.1,2.6-1.7,4.3-1.5
		c0.5,1,1.4,0.5,2.1,0.6c0.3,0.5,0.6,1,1.4,0.2c-0.6-0.1-1-0.1-1.4-0.1c-0.3-0.7-0.6-1.4-1.5-1.3c-0.2-0.1-0.3-0.2-0.6-0.5
		c1.6-0.7,3-0.3,4.7-1c-0.5-0.8-0.9-1.4-1.5-2.3c3.8-2.5,7.9-1.5,12.2-0.7c0.1-0.9,0.1-1.6,0.2-2.5c1.9-0.3,3.8-0.6,5.7-0.9
		c0.7,0.6,1.3,1.1,1.9,1.6c1.3-0.1,2.4-1.3,3.8-0.4c2.3-1.1,4.5-3.3,6.8-0.9c-1.2,0.3-2,0.5-2.8,0.8c1.8,2.6,6.1-1.5,8.6-0.7
		c0.6,1.5-1.3,1.6-1.8,2.8c1.8,0.2,3.5-0.8,4.9,0.5c1.5,0,2.9,0.4,4.2,1.2c2,1.1,4.3,0.2,5.8,2.6c-1.2,0.1-2.1,0.1-3,0.2
		c0,0.3,0,0.6,0,1c2.9,1.1,4.3-2.1,6.9-0.3c-0.4,0.5-0.8,1-1.2,1.6c3,0.5,3,0.5,5.5,3.6c-0.1,0.3-0.2,0.6-0.3,1.2
		c-1.2-0.8-2.5-1.2-3.8,0.1c1.7,0.2,3.2,0.5,4.8,0.7c0.6,0.5,1.1,1,1.9,1.7c-1.2,0.5-2.1,0.9-3.2,1.4c0.6,0.5,1,1,1.5,1.1
		c2.8,0.1,3.6,2.6,5.6,4c-0.3,0.5-0.4,0.8-0.6,1.1c0.7,1.8,3.4,2.8,2.3,5.6c-0.6-0.1-1.3-0.1-1.9-0.2c-0.1-0.2-0.3-0.4-0.4-0.6
		c-0.1,0.1-0.2,0.2-0.2,0.3c2,1.1,4.6,3.7,2.9,6.1c1.2,1.2,2.1,2.6,0.8,4.3c0.1,2.5-0.4,5,1.1,7.4C468.5,73.9,467.9,74.2,467.4,74.4
		c0-0.5-0.2-0.7-0.8-0.7c0-0.5-0.1-0.8-0.7-0.7c-0.1-0.2-0.3-0.4-0.4-0.6c-0.1,0.1-0.1,0.1-0.2,0.2c0.2,0.1,0.4,0.2,0.7,0.3
		c-0.1,0.6,0.2,0.8,0.7,0.7C466.6,74.3,466.8,74.5,467.4,74.4z M460.3,77.2c-0.1-2-0.1-2-1.6-1.5C459.4,76.3,459.9,76.8,460.3,77.2z
		 M443.4,39.6c0.3,1.4,1.8,1.2,1.7-0.3C444.6,39.4,444.1,39.5,443.4,39.6z M415.7,29.5c0.2-0.5,0.3-0.8,0.4-1.1c-0.2,0-0.4,0-0.6,0
		C415.6,28.6,415.6,28.9,415.7,29.5z M387.4,44.5c0,0.1,0,0.2,0,0.3c0.4,0,0.8,0,1.1,0c0-0.1,0-0.2,0-0.3
		C388.1,44.5,387.7,44.5,387.4,44.5z M405.2,32c0.2,0.5,0.5,0.4,0.9,0.1C405.9,31.6,405.7,31.8,405.2,32z M383.7,76.9
		c-0.1-0.1-0.1-0.1-0.2-0.2c0,0.1,0,0.3,0,0.4C383.5,77,383.6,77,383.7,76.9z"/>
	<path fill="#010101" d="M434.4,537.3c11.7,4.4,13.9-8.2,25.2-10.4c2.3-19.1-0.4-37.6-6.7-55.7c-2.4-11.2-0.8-22.9-3.8-34
		c0.2-0.7-0.3-1.8,0.8-2.2c4.6,8.2,2.5,18.7,3.7,27.7c1.2,12.3,6.9,23.5,8.3,35.6c0.7,11.5,0.7,23.1,0,34.6
		c4.5,1.8,12.2,3.6,15.7,1.5c0.6-27,8.1-53.7,5.8-80.7c-0.8-16.8-10.6-31.8-10.5-48.7c5.4-34.4,9.7-70.8,1.7-105.2
		c-34.4,6-68.9,6-103.3-0.1c-9.2,35.9-1.3,73.4,1.4,109.3c-0.8,16.9-11.1,32.1-10.5,49.4c-0.5,25.4,4.9,50.8,6.5,76.1
		c2.7,1.1,2.7,1.1,5.4,0.2c6.2-0.5,7.2-0.7,9.7-2.2c-0.8-19.4-1.2-38.8,5.9-57.2c4.8-13.4,0.2-29,6.7-41.7c1.1,0.4,0.5,1.5,0.8,2.2
		c-2.9,8.3-1.8,17.1-3,25.6c-0.1,13-7.5,24.3-8.2,37.1c0,9.4-0.2,18.8,0.3,28.1c6.6,1.6,11.6,6.4,16.5,10.9
		c-0.5,0.4-0.9,0.9-1.3,1.2c-0.2,1.9,1,6-2.2,4.8c-0.1-2-0.2-4-0.3-6.2c-0.7-0.5-1.3-0.9-2.3-1.6c0.1,2.3,0.3,12.2-3.4,8.1
		c2.3-3.3,1.7-7,1.5-10.5c-2.2-2.8-5-3.8-8.2-4.3c-0.1,1.5-0.2,1.6,0.4,1.9c3.9,2,3.1,6.8,3,10.4c-0.5,4.8-7.2,6.6-11.2,4.7
		c-2.9-0.7-5.9-1.6-7.6-4.4c-1-1.7-3.5-0.1-5-1.3c-0.2,0.4-0.4,0.8-0.5,1.2c-1-0.4-0.6-1.4-0.7-2.1c0.4-0.5,0.9-1,1.4-1.7
		c-1.9-45-15.7-80.2,3.8-124.2c3.5-13.4-3.6-26.6-4.1-40c-1.1-22.6-2.5-45.6,1.7-68c7.3-47.2,37.7-47.9,15.8-103.2
		c-2.5,4.3-1.7,10.7-4.7,15.1c-0.2-0.5-0.4-1-0.7-1.5c3.5-13.3,4.7-26.9,3.6-40.6c0.2,0,0.5-0.1,0.7-0.1c2.1,5.8,0.8,11.5,1.6,17.8
		c0.6-0.4,1-0.6,1.3-0.8c0.2,0.2,0.4,0.4,0.5,0.6c-0.5,0.9-1.1,1.7-1.8,2.8c20.3,59.9,3.5,49.8-12.9,101.3
		c34.8,5.4,69.9,7.9,104.4,0.1c-1.5-4.5-2.4-8.7-3.2-13.3c-5-1.9-8.2,4.9-13.5,2.2c0.2-0.2,0.5-0.4,0.7-0.6c3,0.2,5.6-0.6,7.8-2.6
		c7.6-1.7,14.3,4.6,22.1,2.3c-3.9,4.7-9.6,0.5-14.6,0c1.1,3.5,0.6,7.1,2.7,10.2c4.8-3.1,10.8-2.4,15.7-5.6c0.2,0.2,0.5,0.5,0.7,0.7
		c-4.3,4.9-12.5,2.2-16.3,7.7c3,23.6,4.7,47.5,2.3,71.3c0.9,14.4-7.1,28.2-4.6,42.6c20,49.4,6.6,76.5,4.1,126.3
		c0.4,0.3,0.8,0.7,1.2,1c-1.1,0.6-1.9,1.5-2.9,2.1c-1.1,0.2-2.5-0.3-3.2,0.8c-2.4,3.4-6.3,3.7-9.8,4.8c-9.5,1.9-12.6-12.4-5-16.5
		c-0.2-0.5-0.4-0.9-0.5-1.3c-4.8,1.2-4.8,1.2-8,4.2c-0.2,3.7-0.8,7.6,1.4,10.9c-4,3.1-3.5-6.1-3.5-8.5c-4.2,2-0.6,5.8-3.3,8.4
		c-2.6-0.8-1.3-3.6-2.1-5.4c-2.1,0.7-0.9,3-2.1,4c-1.6-0.4-0.6-1.9-1.3-2.8c-0.5,0.7-1,1.4-1.8,2.4c-0.5-1.1-0.7-1.8-1-2.5
		c-0.8-0.4-1.6-0.9-2.5-1.3C434.8,538.3,434.6,537.8,434.4,537.3z M386.6,538.8c-0.7,0.3-0.7,0.8-0.6,1.4c-2.8,1.3-0.8-4.3-2.3-5.6
		c-2.9,0.8-5.6,1.6-8.2,2.3c-0.3,1.5-0.6,2.7-0.9,3.9c-1.9-0.5-0.8-2.4-1.8-3.6c-1.5,0-2.8,0-4.4-0.2c0.1,0.6,0.1,1,0.2,1.4
		c2.5,0.5,4,1.4,5.2,3c3.6,3.1,10.8,5,14,0.2c-0.5-2.9,2-8.1-1.9-9C386.2,535,386.4,536.9,386.6,538.8L386.6,538.8z M471.6,542.4
		c0.9-0.9,1.8-1.8,2.7-2.7c1-0.2,1.9-0.4,3-0.6c-0.1-0.6-0.1-1-0.2-1.7c-1.6,0.2-3-0.2-4.5,0.3c-0.2,1.1-0.4,2.1-0.5,3.1
		c-0.5,0-0.8,0-1.2,0c-0.1-1.2,0.2-2.5-0.5-3.9c-3,0-5.5-1.2-8.3-2.3c-0.9,2,0.3,4.5-1.9,6.3c-1.5-2.5-0.1-5.2-0.8-7.5
		c-2.6,1-1.9,5.1-1.6,7.3C458.9,547.2,468.2,545.3,471.6,542.4z"/>
	<path fill="#0C0C0C" d="M308,563.2c7-8.4,13.9-16.2,21.2-24.6c-0.2-99.7,0.5-199.5,0-299.2c-1.5-1-3-1.9-4.4-2.9
		c3.9-2,14.9,8.2,21,4.6c0.8,0.6,1.5,1.1,2.2,1.6l0,0c-0.5,0.3-0.9,0.6-1.4,0.9c-5.3-0.3-10.3-1.6-15.5-3.5
		c-0.8,98.9,0.3,197.8-0.2,296.6c-3.8,10.7-14.5,19-22.2,27.3C308.5,563.8,308.2,563.5,308,563.2z"/>
	<path fill="#040303" d="M453.2,139c0.6,0,1.3,0,1.5-0.8c1.9,0.2,3.9-0.2,5.7,0.7c-2.3-0.3-4.2,0.5-6.4,0.9
		c-1.5,16.9,0.2,44.1,14.9,54.7c1.6-2.3,2-4.8,2-7.2c2.2-3.1,3.6-6.6,4.2-9.7c0.4-0.3,0.9-0.6,1.3-0.9c1.3,1.8-0.8,4.3-1,6.5
		c36.4,41.5,43.1,23.9,25.5,65.8c-2.4-9.6,9.6-19.2,7.4-29.4c-10.5-12.3-23.5-22-33.6-34.8c-5.4,18.4-14.1,38-15.9,57
		c0.3,11.9,8.6,21.6,12.6,32.7c5.3-1.1,10.5-1.5,15.3-3.8c0.3,0.3,0.6,0.5,0.9,0.8c-4.7,4.2-12.8,3.5-18.7,5.8
		c-0.3-0.3-0.6-0.5-0.9-0.8c0.4-0.5,0.9-1.1,1.3-1.6c-20.4-37.2-12-40.2-1-78.1C453,184,450.5,160,452.6,141.1
		C453.5,140.6,453.3,139.8,453.2,139z"/>
	<path fill="#0E0E0E" d="M363.4,174.4c2.9,8.5-7.7,37.5-13,45.1c-10.4,3.7-22.4,4.3-32.4-1.6c0.9-1.4,1.8-0.4,2.6-0.5
		c1.4-5.1-0.6-12.3,0.1-18.1c0.3-0.3,0.5-0.5,0.8-0.8l0,0c-0.3,6.7,0.3,12.8,1.3,19.4c2.1,0.5,4.1,0.9,6.1,1.4
		c1.4-57.9-0.4-116.3,1-174.4c0.1,0,0.4,0,0.6,0c0.7,58.2,0.2,116.5,0.6,174.7c6.7,3.6,12.8-0.3,19-2.6
		C356.1,203.5,361,189.1,363.4,174.4z"/>
	<path d="M455.4,139.7c8.5-1.8,25.9,2.1,32.4,8.4c10.3,7.6,9.7,22.4,19.5,30.1c12.5,10.2,19.9,25,27.6,38.8
		c3.9,12.8-16.7,36.5-23.9,47.6c-0.3,0-0.6,0-0.9-0.1c28.5-47.6,33.8-40.9-6.4-87.3c-7.9-8.3-8.8-21.2-18.8-28.2
		C476.8,141.4,464.8,143.5,455.4,139.7z"/>
	<path fill="#090808" d="M478.6,541c0.6-0.6,1.4-1.1,2.1-1.6c1.2,1,1.1,2.6,1.2,3.8c0,4.2,1.9,7.4,4.3,10.7
		c-0.4,5.2,1.7,10,3.7,14.9c-7.3,7.4-21.3,8.6-30.2,3.6c0.5-0.2,0.9-0.4,1.4-0.6c8.7,3.1,18.7,2.3,26.3-3.2
		c-3.2-3.9-3.4-9.2-3.2-13.9c-3.8-4-3.4-8.6-4.4-13.6C479.3,541,478.9,541,478.6,541z"/>
	<path fill="#090707" d="M364.9,539.5c0.1,0.7-0.3,1.7,0.7,2.1c0.4,4.7-0.6,8.8-3.6,12.5c0.1,5.1-0.3,10-3.5,14.5
		c8.5,4.6,18.3,6.6,27.3,2.5c0.3,0.3,0.6,0.5,0.8,0.8c-8.8,5.7-22.9,4-30.5-3.1c2.4-5.3,3.2-10.8,4.3-16.3
		C364.1,548.7,363.2,543.9,364.9,539.5z"/>
	<path fill="#1B1615" d="M434.4,537.3c0.2,0.5,0.4,1,0.6,1.5c-9.6-5.3-14.1,8.5-8.7,14.6c11.9,12.9,23,3.8,29.7,15
		c0,0.3,0,0.5-0.1,0.8c-0.2-0.1-0.4-0.1-0.6,0c-8.4-9.9-15.8-1.5-28.2-12.8C418.1,551.1,422.4,531.2,434.4,537.3z"/>
	<path fill="#1A1514" d="M420.9,541.6c3.9,10.8-5,18.7-14.9,21.2c-5.4,0.9-10.8-0.1-14.6,4.8c-0.2-0.2-0.4-0.4-0.6-0.6
		C397.5,555.5,420.2,568.7,420.9,541.6z"/>
	<path fill="#100E0E" d="M378.2,216c0.2,0.5,0.4,1,0.7,1.5c-3.2,11.4-9.8,28.3-23.1,29.4C367.5,240.1,374.1,228.8,378.2,216z"/>
	<path fill="#151312" d="M315.6,229.6c-3.6-1.7-6.5-4.4-9.4-7.2c-0.8-4.6-0.6-15,0.5-23c0.4,0,0.8,0,1.3,0c0.1,11.4-3.9,23,8.5,29.6
		C316.2,229.1,315.9,229.3,315.6,229.6z"/>
	<path fill="#332824" d="M307.3,199.3c-0.2,0-0.4,0-0.6,0c1.1-5.7-1.9-12.5,1.9-17.3c-0.2-3.5,0.3-7,3.5-9.6
		c0.6,2.1,0.2,4.3,0.3,6.4c-0.2,0.3-0.5,0.6-0.7,0.8c-0.5-0.8,0.2-2.1-1.2-2.8c-2.1,8.6,4.3,16.3,2.2,25c-1.3-5.7-2-12-3.6-17.9
		c-1.4,1.5-1.1,2.8-0.8,4.2c0,0-0.3,0-0.3,0C306.9,191.7,307.6,195.6,307.3,199.3z"/>
	<path fill="#120F0E" d="M510,264.5c0.3,0,0.6,0,0.9,0.1c-5.6,8.5-9.8,18.6-16.9,25.9c-0.2-0.2-0.5-0.5-0.7-0.7
		C499,281.5,503.3,272.1,510,264.5z"/>
	<path fill="#171313" d="M308,563.2c0.3,0.3,0.5,0.6,0.8,0.9c-5.6,6.8-11.1,13.4-17,20c-0.5-0.3-0.8-0.6-1.2-0.9
		C295.8,576.2,302,569.6,308,563.2z"/>
	<path fill="#2A2422" d="M315.7,180.4c2.4,4.3,2.7,9.9,4.2,14.7c-0.3,0.3-0.5,0.6-0.8,0.9c-3.9-3.7-2.6-10.7-4.1-15.6
		C315.3,180.4,315.5,180.4,315.7,180.4z"/>
	<path fill="#28211F" d="M315.6,229.6c0.3-0.2,0.6-0.4,0.9-0.7c3.7,1.7,6.4,4.8,9.8,6.9c-0.6,0-1.2,0-1.4,0.7
		C321.4,234.7,319,231.5,315.6,229.6z"/>
	<path fill="#272322" d="M357.2,245.7c-0.5,0.4-0.9,0.8-1.4,1.2c-2.9,0-5.2-2.2-7.8-3.4c0-0.3,0-0.5,0-0.8l0,0
		C351.4,242.4,353.7,246.1,357.2,245.7z"/>
	<path fill="#352E2C" d="M315.7,180.4c-0.2,0-0.4,0-0.6,0c-1.9-1.9-0.4-5.9-2.8-6.9c-0.1-0.3-0.2-0.7-0.3-1c0.7,0.1,1.5,0.2,2.2,0.3
		C315,175.2,315.3,177.8,315.7,180.4z"/>
	<path fill="#272322" d="M322,211.9c-1.5-4.1-0.3-9-0.6-13.4C322.7,202.6,321.6,207.6,322,211.9z"/>
	<path fill="#332725" d="M390.9,566.9c0.2,0.2,0.4,0.4,0.6,0.6c-1.2,1.8-3.2,2.8-4.9,4.2c-0.3-0.3-0.6-0.5-0.8-0.8
		C387.1,569.2,389.2,568.3,390.9,566.9z"/>
	<path fill="#3A2C28" d="M456,569.2c0-0.3,0-0.5,0.1-0.8c1.7,1.1,3.3,2.3,5,3.4c-0.5,0.2-0.9,0.4-1.4,0.6c-1.2-0.9-2.5-1.8-3.7-2.8
		C455.9,569.5,456,569.3,456,569.2z"/>
	<path fill="#272322" d="M319.2,196c0.3-0.3,0.5-0.6,0.8-0.9c0.5,1.2,1,2.3,1.5,3.5c-0.3,0.3-0.5,0.5-0.8,0.8
		C320.1,198.2,319.7,197.1,319.2,196z"/>
	<path fill="#C8DBDB" d="M459.6,41.4c-1.5-0.2-3.1-0.4-4.8-0.7c1.3-1.4,2.6-1,3.8-0.1c0.1-0.6,0.2-0.9,0.3-1.2
		C460,39.8,459.5,40.7,459.6,41.4z"/>
	<path fill="#403B3B" d="M400,35.1c-0.7-0.1-1.6,0.4-2.1-0.6c0.2-0.2,0.4-0.5,0.6-0.7C399.4,33.8,399.6,34.5,400,35.1L400,35.1z"/>
	<path fill="#B7D0D0" d="M380.8,52.6c0.6-0.8,1.3-0.8,2.1-0.5c0.2,1-0.6,1.1-1.2,1.2C381.4,53.1,381.1,52.8,380.8,52.6z"/>
	<path fill="#977264" d="M348,242.7c0,0.3,0,0.5,0,0.8c-0.4,0.6-0.8,0.9-1.3,0.2C347.1,243.4,347.6,243.1,348,242.7z"/>
	<path fill="#332824" d="M313.7,172.6c-0.5-0.1-1.1-0.1-1.6-0.2c0.4-0.7,0.9-0.6,1.5-0.4C313.7,172.2,313.7,172.4,313.7,172.6z"/>
	<path fill="#685757" d="M330.4,45c-0.1,0-0.4,0-0.6,0c0-0.4,0.1-0.7,0.1-1.1c0.1,0,0.3,0,0.4,0C330.4,44.3,330.4,44.6,330.4,45z"/>
	<path fill="#B28C7D" d="M307.2,183.8c-0.2,0.5-0.3,1-0.5,1.5C306.5,184.7,306.7,184.2,307.2,183.8z"/>
	<path fill="#967163" d="M510.2,265.9c0.2-0.2,0.3-0.4,0.5-0.7C510.5,265.4,510.3,265.7,510.2,265.9z"/>
	<path fill="#9E7E71" d="M313.7,172.6c0-0.2,0-0.4-0.1-0.7c0.5,0,0.7,0.3,0.6,0.7C314,172.7,313.8,172.7,313.7,172.6z"/>
	<path fill="#E9DBB6" d="M390.3,568.9c0.2-0.1,0.3-0.3,0.5-0.4C390.6,568.7,390.5,568.8,390.3,568.9z"/>
	<path fill="#EBDCB7" d="M454.7,568.5c0.2,0.1,0.3,0.3,0.5,0.4C455,568.8,454.9,568.7,454.7,568.5z"/>
	<path fill="#967163" d="M509.5,267.3c0.1-0.2,0.3-0.5,0.4-0.7C509.8,266.9,509.7,267.1,509.5,267.3z"/>
	<path fill="#EBDCB7" d="M456,569.2c0,0.2-0.1,0.3-0.1,0.5c-0.2-0.2-0.3-0.3-0.5-0.5C455.6,569.1,455.8,569.1,456,569.2z"/>
	<path fill="#0E0908" d="M422.5,332.6c-0.4,2.8-0.9,5.6-1.5,8.4c-0.3-0.3-0.5-0.6-0.8-0.9c0.4-4.7,0.8-8.7,0.6-13.5
		c-6.3,5.7-15,5.4-22.9,4.5c-0.4-0.4-0.8-0.7-1.4-1.4c9.7,0.4,18.9,0.5,26.3-6.4c7.6,7.2,17.7,5.8,26.8,7.1
		c-8.2,2.7-17.6,1.2-24.9-3.6c-0.1,0.7-0.2,1.1-0.3,1.6c-0.2,0-0.4,0-0.6,0C421.7,326,422.7,331.5,422.5,332.6z"/>
	<path fill="#1E1918" d="M449.8,434.9c-1.1,0.4-0.6,1.4-0.8,2.2c-5.9-12.2-6.3-26.2-8.4-39.3c0.8-0.3,0.6-1,0.8-1.6
		C444.5,409.1,444.6,422.6,449.8,434.9z"/>
	<path fill="#1C1715" d="M420.9,541.6c-1.6,2.8,0.4,6.4-1.3,9.1c0.8-9.1-0.5-16.8-11.3-11c-0.3,0.7-0.6,1.3-1.1,2.4
		c-0.7-1-1.2-1.7-1.8-2.7c-0.5,1.1,0.5,2.6-1.1,3.1c-1.9-0.7,0-3.6-2.1-3.8c-0.3,1.2-0.6,2.4-0.9,3.6c0-1.2,0-2.4,0-3.8
		c0.4-0.3,0.8-0.8,1.3-1.2C408.6,539.5,420.1,531,420.9,541.6z"/>
	<path fill="#1C1715" d="M441.5,396.2c-0.1,0.6,0,1.3-0.8,1.6c-2.6-10-6.9-19.4-10-29.2c0.4-1-0.4-2.2,0.7-3
		C434.6,375.8,439.8,385.6,441.5,396.2z"/>
	<path fill="#191615" d="M415.5,367.5c-3.6,9.2-6.8,18.7-9.9,28.2c-2.1-7.6,7.1-22.5,9.1-30.9c0.2,0,0.5,0,0.7,0
		C415.5,365.7,415.5,366.6,415.5,367.5z"/>
	<path fill="#231F1D" d="M397.2,435.8c-0.3-0.7,0.3-1.8-0.8-2.2c3.8-9.1,4.5-19.1,6.4-28.7C404.7,414.9,400.8,426.2,397.2,435.8z"/>
	<path fill="#1B1615" d="M415.4,364.8c-0.2,0-0.5,0-0.7,0c2.3-8.1,3.8-16.5,5.5-24.7c0.3,0.3,0.5,0.6,0.8,0.9
		C420.3,349.1,419.6,357.7,415.4,364.8z"/>
	<path fill="#1A1715" d="M429.5,362.7c-2.6-5.2-4.9-11.8-3-17.5c1.1,5.9,2.5,11.7,3.8,17.5C430.1,362.7,429.8,362.7,429.5,362.7z"/>
	<path fill="#362C29" d="M403.6,408.6c-0.9-5.2-0.2-10.8,1.2-15.8c-0.1,1.1,0.1,2,0.8,2.9C404.9,400,404.2,404.3,403.6,408.6z"/>
	<path fill="#342D2A" d="M426.5,345.2c-0.7,1.2-0.7,2.5-0.7,3.8c-1.2-4.8-1.5-10-2.1-15c0.5,0,1,0,1.5,0
		C425.7,337.7,426.1,341.4,426.5,345.2z"/>
	<path fill="#372F2C" d="M429.5,362.7c0.3,0,0.6,0,0.9,0c0.3,1,0.7,1.9,1,2.9c-1,0.8-0.3,2-0.7,3
		C429.9,366.7,429.9,364.7,429.5,362.7z"/>
	<path fill="#828484" d="M422.5,328.4c0.4-1,0.5-1,1.4-0.1c0,1.9,0.1,3.7,0.1,5.6l-0.3,0C422.2,332.4,424.1,329.7,422.5,328.4z"/>
	<path fill="#CED3D3" d="M422.5,328.4c1.3,0.9,0.4,2.8,0.5,4.2c-0.2,0-0.4,0-0.6,0C422.5,331.2,422.5,329.8,422.5,328.4z"/>
	<path fill="#EAA388" d="M415.4,364.8c0.2-0.2,0.4-0.4,0.6-0.6c0.1,1.1,0.5,2.3-0.5,3.3C415.5,366.6,415.5,365.7,415.4,364.8z"/>
	<path fill="#F7EFD0" d="M420.9,539.6c-0.2-0.3-0.4-0.6-0.6-0.9C420.6,539.1,420.7,539.4,420.9,539.6z"/>
	<path fill="#F5DDCE" d="M452.6,141.1c-2.1,18.8,0.4,42.9,15.7,55.7c-11.1,38-19.4,41,1,78.1c-3.2,4.4-9.4,4.9-13.3,8.1
		c0.1,0.6,0.1,1.4,0.2,2.3c8.8,4.2,10-3.1,16.3-1.4c0.8,4.6,1.8,8.8,3.2,13.3c-27.3,5.5-55.2,6.9-82.7,2.4
		c-0.9-16.3,7.1-30.7,13.6-45c2.2,0,4.3,0,7,0c-2-2.4-4-0.7-6.3-1.8c0-0.7,0-1.4,0-2.3c2.7-0.1,5.3-0.1,7.8-0.2
		c0.1-0.4,0.1-0.7,0.1-1c-2.4-0.4-4.7-0.8-7.2-1.2c7.4-18.1-6.4-32.1-8.3-48.7c2.5,2.3,5.3,1.6,8.3,2.7c-3.9-7.6-7.8-14.1-12.3-21.2
		c0.4-11.4,5.3-22.8,5-34.2c2.1-5.1,7.6-6.1,10.4-10.6c9.2,2.4,19.8,2.6,28.3-2.7c4.4,1.5,9,3.5,13.3,5.5
		C452.6,139.7,452.6,140.4,452.6,141.1z M422.4,251.2c-0.1,0.8-1.1,2.2,0.5,2.1c0.1-0.4,0.2-0.9,0.3-1.3c0.6-0.6,0.8-1.3,0.2-2
		C422.7,250.3,422.7,250.3,422.4,251.2z M423.1,237.2c0-1.9,3.4-6.1,1-6.7c-1.1,1.4-1.8,3-1.8,5c-1,1.1-0.2,2.1,0.1,3.1
		c-0.1,1.4-1.3,2.7-0.4,4.4c1.5-1,1-2.6,1.8-3.6C423.5,238.5,423.3,237.8,423.1,237.2z M423.3,228.5c1.4-2.4,3.3-5.5,2.1-8.2
		C424,223.1,423.3,225.7,423.3,228.5z M422.4,221.3c2-1.4,3.5-3.8,3.9-6.5C424.5,217,423.2,218.6,422.4,221.3z M422,248.2
		c1.5-1.2,2.1-2.8,1.5-5.2C422.2,245,421.3,246.4,422,248.2z M423.9,213.4c1.1-0.7,1.7-1.2,1-2.1
		C423.8,211.5,423.6,212.2,423.9,213.4z M422,262.3c0.8-0.6,0-1.8-0.8-1.1C420.9,262,421.3,262.3,422,262.3z M423,256.6
		c-0.2,0-0.3,0-0.5,0c-0.3,0.7-0.2,1.3,0.1,1.9c0.1,0,0.2-0.1,0.4-0.1C423,257.8,423,257.2,423,256.6z M421.1,268.3
		c0.1,0,0.3,0,0.4,0c0-0.5,0-1.1,0-1.6c-0.1,0-0.3,0-0.4,0C421.1,267.2,421.1,267.8,421.1,268.3z M424.9,208
		c-0.4-0.2-0.7-0.3-0.9,0.2C424.4,208.4,424.7,208.4,424.9,208z M426.2,203.1c-0.1,0.4-0.3,0.7,0.1,0.9
		C426.5,203.6,426.7,203.4,426.2,203.1z"/>
	<path fill="#B28C7D" d="M319.2,196c3,6.5,1.1,14.4,1.4,21.5c-0.8,0-1.8-0.9-2.6,0.5c8.9,4.6,19.8,6.5,29.3,2.3
		c0.2,0.2,0.5,0.5,0.7,0.7c0,0.5-0.9,1,0,1.5c1,3.8-0.6,9.2,3.2,12.3c4-17.2,11.6-33.2,15.3-51c8.1,2.3-0.4-23.4,8.1-37.9
		c7.6-3,15.9-3.1,23.6-6.3c1,18.1-2,39.7-14.3,53.5c-0.8-8.2,0.6-15.9-2.9-23.3c2.4,25.6,1,60-23.2,75.1c-4.3-5-10.4-6.3-16.5-7.8
		c-12-2.5-21.9-10.2-31.1-17.9c-3.2-10.3,0.5-21.3-2.1-31.2c-0.2-1.3-0.6-2.7,0.8-4.2c1.6,5.9,2.3,12.2,3.6,17.9
		c2.1-8.8-4.3-16.5-2.2-25c3,5.3,2.6,12.2,4.8,17.9c0.1,0,0.2-0.1,0.4-0.1c0-1.7,0-3.4,0-5.2c0.2,0,0.4,0,0.6,0
		C317.1,191.8,316.8,194.6,319.2,196z M314,202.2c-0.7,1.3,0.1,2.2,0.8,3.2C315.3,204,315.3,203,314,202.2z M385.2,144.1
		c0.2,1.5,0.9,1.8,2,1.8C387.2,144.5,386.3,144.4,385.2,144.1z M361.8,237.3c-1.1,0.6-1.5,1.3-0.9,2.4
		C362.1,239.2,362.3,238.4,361.8,237.3z M316.2,208.4c-1.4,0.3-1.3,1.8,0.3,1.7C316.4,209.5,316.3,209,316.2,208.4z M390.3,144.8
		c-0.5-0.5-0.9-1-1.4-0.5C389.1,145.3,389.4,145.3,390.3,144.8z M381.6,166.5c-1,0.9-1,0.9,0,1.7
		C381.6,167.6,381.6,167.1,381.6,166.5z M362.2,235.1c0.4-0.4,0.8-0.7,0.2-1.1c-0.2,0.2-0.5,0.4-0.7,0.6
		C361.8,234.8,361.9,234.9,362.2,235.1z"/>
	<path fill="#E6CCBB" d="M395.6,175.9c0,1.7,0,3.5,0,5.1c4.6,7.1,8.4,13.6,12.3,21.2c-3.1-1.1-5.9-0.4-8.3-2.7
		c1.9,16.6,15.8,30.7,8.3,48.7c2.5,0.4,4.8,0.8,7.2,1.2c0,0.3-0.1,0.5-0.1,1c-2.5,0.1-5,0.1-7.8,0.2c0,0.9,0,1.6,0,2.3
		c2.3,1,4.3-0.6,6.3,1.8c-2.7,0-4.8,0-7,0c-6.5,14.3-14.5,28.7-13.6,45c-7.4-0.4-14.3-1.4-21.7-2.5c16.4-51.6,33.2-41.5,12.9-101.3
		C389.6,189.9,392.6,183.3,395.6,175.9z"/>
	<path fill="#977264" d="M348,221c-0.2-0.2-0.5-0.5-0.7-0.7c1.5-1,1.5-1,3-0.7c6.6-10.8,10.7-25.2,13.4-37.6
		c2-10.6,0.1-30.6,10.9-36.1c-8.6,14.6,0,40.2-8.1,37.9c-3.7,17.7-11.3,33.8-15.3,51c-3.8-3.2-2.1-8.5-3.2-12.3
		c0.4-0.3,0.8-0.6,1.5-1.2C348.8,221.2,348.4,221.1,348,221z"/>
	<path fill="#B28C7D" d="M435,134.6c-7.7,1-16.2,3.3-23.2-1.2c1.4-2.3,0.5-5.5,0.7-8c1.3-1.3,2.2-2.5,3.5-3.3c0.8,0.5,1.4,1,2.5,1.7
		c0.5-0.8,1-1.5,1.6-2.5c2.9,3.7,6.6-0.6,9.2-2c1.4,0.2,1.5-1.3,2.4-1.8c2.7,1.6,3.2-1.5,5-3.2c0.8,6.2-0.8,12.5,2.3,18.2
		C437.8,133.3,436.4,133.9,435,134.6z"/>
	<path fill="#957163" d="M429.4,119.3c-2.6,1.4-6.4,5.7-9.2,2c-0.6,0.9-1.1,1.7-1.6,2.5c-1.1-0.7-1.8-1.2-2.5-1.7
		c-1.3,0.8-2.2,2-3.5,3.3c-0.3,2.4,0.6,5.7-0.7,8c-1.5-0.2-2.4-1.3-3.6-1.9c2.2-5.4,1.7-10.8,1.6-16.4c0.9-1.1,1.7,0.1,2.9-0.1
		c0.1-0.1,0.4-0.5,0.7-0.9c1.6,1,3.2,1.9,5.1,3c0.2-0.5,0.4-1,0.6-1.5c2.6,1.5,2.1,2.2,6.5,3.4c0.1-0.8,0.2-1.6,0.4-2.3
		C427.4,116.4,429.4,117.5,429.4,119.3z"/>
	<path fill="#E3CABA" d="M412.7,136.1c-0.6,0.1-1.1,0.1-1.7,0.2c-5.2,6.6-10.3,5.5-11,15.3c-0.1-4.3-0.6-8.3-0.8-12.6
		c3.3-1.6,5.6-3.4,8-6.2C409.1,133.7,411,134.8,412.7,136.1z"/>
	<path fill="#261F1C" d="M392.3,183.2c-1.2,3.9-2.9,7.4-6.3,9.8c-0.2-0.2-0.4-0.4-0.5-0.6c2.6-3.2,4.3-7,6.1-10.6
		C391.6,182.3,391.5,183,392.3,183.2z"/>
	<path fill="#4E443F" d="M435,134.6c1.4-0.7,2.7-1.3,4.1-2c0,0.3,0.1,0.6,0.1,0.9c-1.1,1.4-2.6,1.7-4.2,1.9
		C435,135.2,435,134.9,435,134.6z"/>
	<path fill="#1C1D1D" d="M460.3,77.2c-0.5-0.5-1-0.9-1.6-1.5C460.2,75.3,460.2,75.3,460.3,77.2z"/>
	<path fill="#292D2D" d="M443.4,39.6c0.6-0.1,1.1-0.2,1.7-0.3C445.2,40.9,443.8,41.1,443.4,39.6z"/>
	<path fill="#B28C7D" d="M452.6,141.1c0-0.7,0-1.4-0.1-2.1c0.2-0.1,0.4-0.1,0.6,0C453.3,139.8,453.5,140.6,452.6,141.1z"/>
	<path fill="#ABD8D8" d="M415.7,29.5c-0.1-0.6-0.2-0.8-0.2-1.1c0.2,0,0.4,0,0.6,0C416,28.7,415.9,28.9,415.7,29.5z"/>
	<ellipse fill="#679E9E" cx="387.9" cy="44.6" rx="0.8" ry="0.2"/>
	<path fill="#403B3B" d="M399.9,35.2c0.4,0,0.8,0.1,1.4,0.1C400.6,36.1,400.3,35.7,399.9,35.2L399.9,35.2z"/>
	<path fill="#88C3C3" d="M405.2,32c0.4-0.2,0.7-0.4,0.9,0.1C405.7,32.4,405.5,32.5,405.2,32z"/>
	<path fill="#99B1B1" d="M467.4,74.4c-0.5,0.1-0.8-0.2-0.7-0.7c0,0-0.1,0.1-0.1,0.1C467.1,73.7,467.4,73.9,467.4,74.4
		C467.3,74.5,467.4,74.4,467.4,74.4z"/>
	<path fill="#9EB8B8" d="M465.9,73.1c0.7-0.2,0.7,0.4,0.8,0.7C466.1,73.8,465.8,73.6,465.9,73.1L465.9,73.1z"/>
	<path fill="#A5CECE" d="M465.9,73c-0.2-0.1-0.4-0.2-0.7-0.3c0.1-0.1,0.1-0.1,0.2-0.2C465.6,72.6,465.7,72.9,465.9,73L465.9,73z"/>
	<path fill="#D0FFFF" d="M465.2,56.1c-0.2-0.1-0.5-0.2-0.7-0.3c0.1-0.1,0.2-0.2,0.2-0.3C464.9,55.8,465,56,465.2,56.1L465.2,56.1z"
		/>
	<path fill="#957163" d="M411.9,133.4c0.2,0.2,0.5,0.4,0.7,0.5C412.4,133.7,412.1,133.5,411.9,133.4z"/>
	<path fill="#646D6D" d="M383.7,76.9c-0.1,0.1-0.1,0.1-0.2,0.2c0-0.1,0-0.3,0-0.4C383.5,76.7,383.6,76.8,383.7,76.9z"/>
	<path fill="#EAA388" d="M442.7,331.9c3.9-0.9,7.9-0.7,11.4-2.8c1.4-1.5,4.1,0.2,4.7-2.1c2.5-1,5.1-2.1,7.7-3.2
		c-0.4-1.3,1.4-2.3,0.3-3.7c-14.9,5.4-33.6,7.2-43.5-6.9c-0.8,2.4-0.1,5.3-0.3,7.7c-11.1,8.3-35.2-2.2-30.6-17.7
		c27.5,2.3,54.7,1.1,82-3.5c8,34.3,3.6,70.8-1.7,105.2c-0.1,16.9,9.7,31.9,10.5,48.7c2.4,27.1-5.1,53.7-5.7,80.7
		c-2.3,1.7-6.8,1.4-10.3-1.1c0.5-13.8-1.8-27.5-1.9-41.1c2.5-0.7,1.6,3.4,4.1,1.9c0.1-1.3-0.5-3.2,0.7-4.3c0.9-0.4,0.9-1.1,0.4-1.9
		c-0.4,0.2-0.8,0.4-1.1,0.5c-2.5-7.9-9.6-14.8-9.9-23.3c0.2-5.5-2-11-2.2-16.4c-1.6-10.4-0.1-20.8,1.5-31.1c0.1-0.6-0.1-1.2-1.1-1.3
		c-1.9,1.7-3.5,3.7-5.5,5.5c-6.9-16.5-6.2-33.9-6-51.5c-2.8,1.5-1.4,6.1-3.9,7C439.8,362.1,435.8,346.3,442.7,331.9z M465.9,424.5
		c0.7,1,1.4,1.9,2.1,2.9c-2.1,1.4,0.5,3,1.4,5.2c0.8-6.2,0.5-11.8-2.8-17.3c-0.8,0.2-1.7,0.4-2.4,0.6c-0.3,1.5-0.6,2.7-1,4
		C465.5,419.6,464.6,423.2,465.9,424.5z M476.2,475.6c0.3-2.3,1.1-5.9-1-7.3C474.7,472.6,475,474.5,476.2,475.6z M474.3,482.4
		c0.8-2.9,1.5-3.3-0.3-4.8C473.5,479.2,473.3,480.5,474.3,482.4z M472.1,529.2c-0.9,1.9-0.9,3.2-0.5,4.7
		C473.4,533.4,473.3,531.1,472.1,529.2z M471.6,524c0,1.1,0,1.9,0,3.3C473,526.1,473.8,524.9,471.6,524z M472.6,486.6
		c0.6-1.1,0.7-2,0-3.1C472,484.6,471.9,485.5,472.6,486.6z"/>
	<path fill="#EAA388" d="M404.8,392.8c-3.2,13-2.8,27.5-8.3,40.1c-3.8,7.3-3.6,16-4.1,24.1c0.4,15.7-8.4,29.6-8.7,45.1
		c-0.5,10.1,0,20.2,0.1,30.4c1.3,0.2-13.1,4.3-10.6,0.8c0.3,0.2,0.7,0.3,1.2,0.6c0.1-1.7,0.2-2.9,0.2-4.4c-0.8-0.4-1.4-0.7-1.8-0.9
		c-0.2-2.9,2.9-0.4,1.7-5.1c-0.9,0-1.7,0.1-2.7,0.1c2.6-17.1-3.7-33.8-3.8-50.7c1.8,4.1,1.7,7.9,4.4,11.2c0.1,2.4,0.9,1.9,2.5,2.2
		c-0.3,2-0.3,2,0.5,3.3c0.2-0.2,0.4-0.5,0.6-0.7c-0.4-10.5-3.3-21.9-7-31.6c-0.6-9.8,6-16.8,6.5-26.2c0.5,0.3,0.9,0.6,1.6,1
		c0.2-1.8,1.9-2.9,1.5-4.7c-1.2-0.4-1.4,0.7-1.9,1.2c-2-4.8,1.5-10.4,2.5-15.3c2-7.5,1.3-15.8,2.5-23.3c-0.3-16.3-2.5-33.2,4.7-48.5
		c7-17,23.3-4.6,34.4-14.9C421.5,349.8,411.8,371.2,404.8,392.8z M383.1,415.4c-0.5,1.3-0.9,2.5-1.3,3.4c1.1,4.1,2.5,8.4,6.9,9.9
		C388.4,423.6,390.8,414.3,383.1,415.4z M393.4,435.9c0.3-3.6,0.3-3.6-1-4.9C392.1,432.6,391.9,434.1,393.4,435.9z M392.5,426.8
		c-0.9,0-1.3,1.2-0.4,1.7C392.7,428,393.1,427.5,392.5,426.8z M379.2,424.1c1,0,1.3-1.7,0.2-1.7C379.1,423,378.7,423.6,379.2,424.1z
		"/>
	<path fill="#D69479" d="M373.2,533.2c-0.8,1.1-0.8,1.1,0.8,1.4c-2.7,0.8-2.7,0.8-5.4-0.2c-1.6-25.3-7-50.7-6.5-76.1
		c-0.6-17.3,9.7-32.5,10.5-49.4c-2.6-35.9-10.6-73.4-1.4-109.3c8.6,1.3,17.5,2.2,26,3.4c-1.5,0.1-3,0.1-4.8,0.2
		c-4.6,15.5,19.4,26,30.6,17.7c0.2-2.5-0.5-5.3,0.3-7.7c9.8,14,28.5,12.3,43.5,6.9c1.1,1.4-0.7,2.4-0.3,3.7c-3.1,1.9-7.6,2-9.8,4.5
		c-1,0-1.9,0.1-2.7,0.8c-0.9-1.5-2.5-0.9-3.2,0.5c0.8,0.1,1.2,0.2,1.7,0.2c-8.3,1-22.9,0-29.8-6.5c-7.4,6.9-16.6,6.8-26.3,6.4
		c0.7,0.7,1.1,1,1.4,1.4c-23.5,10.6-14.3,42.7-16.8,63c-1,6.3,0,13.1-2,19.2c-1.3,5.5-5.2,12.7-1.6,17.5c-0.1,0.4-0.3,0.8-0.5,1.3
		c-0.6-0.4-1.1-0.7-1.6-1c-0.4,9.4-7.1,16.4-6.5,26.2c3.7,9.3,6.2,20.2,7.1,30.3c-0.2,0.2-0.5,0.3-0.7,0.5c0.2,0.3,0.5,0.6,0.7,0.8
		c-0.2,0.2-0.4,0.5-0.6,0.7c-0.8-1.3-0.8-1.3-0.5-3.3c-0.3-0.1-0.6-0.1-1-0.2c0-1.1,0.3-2.3-0.4-3.2c-0.3,0-0.4,0-0.7,0
		c-0.1,0.4-0.3,0.8-0.4,1.2c-2.7-3.3-2.6-7.1-4.4-11.2c0,16.9,6.4,33.6,3.8,50.7c1-0.1,1.7-0.1,2.7-0.1c1.2,4.6-1.9,2.2-1.7,5.1
		c0.4,0.2,1,0.5,1.8,0.9c0,0.6,0,1.2,0,1.9c-0.3-0.5-0.6-1-1.4-2.2C373.2,531,373.2,532.1,373.2,533.2z M370.2,468
		c-0.8,3.8-0.8,4.9,0.3,7.2C370.3,472.5,371,470.4,370.2,468z M392.4,328.6c0.3,1.2,2.3,1.8,2.6,0.4
		C394.2,328.1,393.3,328.2,392.4,328.6z M371.5,477.5c-0.4,1.2-0.7,2.4,0.1,3.8C372.1,479.4,372.1,479.4,371.5,477.5z M382.3,326.6
		c-0.5-0.4-0.6-1.3-1.8-0.6C381,326.4,381.1,327.2,382.3,326.6z M388.9,328.5c-0.1-1.4-0.1-1.4-1.4-1.1
		C387.9,327.8,388.3,328.1,388.9,328.5z M373.5,526c0.1,0,0.2,0,0.3,0c0.3-0.6,0.3-1.2,0-1.9c-0.1,0-0.2,0-0.3,0
		C373.5,524.8,373.5,525.4,373.5,526z"/>
	<path fill="#D69479" d="M470.1,489.7c-1.2,1.1-0.6,3-0.7,4.3c-2.5,1.5-1.6-2.6-4.1-1.9c0.1,13.6,2.5,27.3,1.9,41.1
		c0.8,0.5,1.4,0.9,2.1,1.3c-2.6,0-5.1-0.3-7.5-1.7c0.7-11.5,0.7-23.1,0-34.6c-1.4-12.2-7.1-23.4-8.3-35.6c-0.8-10.5,0.2-21.5-4.8-31
		c-4.8-12.6-4.9-26.5-7.9-39.6c-7.9-20.7-14.8-41.8-16.4-63.7c0.1-0.4,0.2-0.9,0.3-1.6c5.4,4,11.6,4.5,18,5.1
		c-6.9,14.5-3,30.3-0.4,45.3c2.5-0.9,1.1-5.5,3.9-7c-0.2,17.6-0.9,35,6,51.5c2-1.8,3.6-3.8,5.5-5.5c1,0.2,1.1,0.7,1.1,1.3
		c-1.6,10.3-3.2,20.7-1.5,31.1c2,8,0.7,17.4,4.5,24.6C465.4,478.3,467.2,484.4,470.1,489.7z M452.7,431.9c0,1.4-0.8,2.6-0.1,3.8
		C453.8,434.5,453.3,433.2,452.7,431.9z M453.5,428.5c0.1,0,0.2,0,0.3,0c0-0.4,0-0.7,0-1.1c-0.1,0-0.2,0-0.3,0
		C453.5,427.8,453.5,428.2,453.5,428.5z"/>
	<path fill="#F7EFD0" d="M401.4,542.5c0.3-1.2,0.6-2.4,0.9-3.6c2.2,0.2,0.2,3.1,2.1,3.8c1.5-0.5,0.5-2,1.1-3.1
		c0.6,0.9,1.1,1.6,1.8,2.7c0.5-1.1,0.8-1.7,1.1-2.4c10.4-5.9,12.2,2,11.3,11c-1.3,5.4-6.6,7.2-11.2,9.2
		c-11.4-4.6-19.6,4.1-27.6,10.5c-5.4-0.8-10.7-1.6-16.1-2.4c-1.7-4.3,2.4-8.7,2.9-13.1c0-4.5,0-9.2,2-13.3c0.6,0,1.1,0.1,1.5,0.1
		c9.3,11.5,27.3,1.3,15.9-10.7c-0.6-0.3-0.5-0.4-0.4-1.9c3.1,0.5,6,1.5,8.2,4.3c0.2,3.5,0.8,7.2-1.5,10.5c3.6,4,3.5-5.8,3.4-8.1
		c1,0.7,1.7,1.2,2.3,1.6c0.1,2.1,0.2,4.2,0.3,6.2C400.5,543.9,401.3,543.7,401.4,542.5z"/>
	<path fill="#F7EFD0" d="M425.8,540c3.5-4,7.9-2.1,11.7,0.1c0.3,0.7,0.6,1.4,1,2.5c0.8-1,1.3-1.7,1.8-2.4c0.8,0.9-0.3,2.3,1.3,2.8
		c1.1-1,0-3.3,2.1-4c0.8,1.9-0.5,4.6,2.1,5.4c2.8-2.6-0.9-6.4,3.3-8.4c-0.1,2.4-0.5,11.6,3.5,8.5c-2.2-3.4-1.6-7.2-1.4-10.9
		c3.2-3,3.2-3,8-4.2c0.1,0.4,0.3,0.8,0.5,1.3c-10.9,9.3-0.4,24.7,16.7,11c2.1,4.5,0.9,9.5,1.9,14.1c1.1,4.2,3.4,8.1,3.9,12.5
		c-10.6,4.5-21.6,1.2-29-7.3c-0.9-1.6-2.5-2.5-4.3-2.5c-5.5-1.6-17.9-3.6-20.4-8.6C427,546.7,427.9,543,425.8,540z"/>
	<path fill="#967163" d="M510,264.5c-14.4,16.6-8.5,25-32.4,30.9c-2-3.1-1.5-6.7-2.7-10.2c5.1,0.6,10.8,4.7,14.6,0
		c-7.8,2.3-14.5-4-22.1-2.3l-0.2-0.2c5.3-4.3,12,2.1,17.6,1.2c3.6-1.5,7.5-4,11-2.2c1.9-3,4.2-6.4,4.4-10.1c0.3,0,0.5,0,0.8,0l0,0
		c0.1,0.4,0.2,0.8,0.4,1.6c5.5-7.7,8.6-17.4,15.8-24.3c4.7-7.8,7.9-17.1,15.3-22.9C527.3,239.5,516.1,251.1,510,264.5z M493.1,283.3
		c-2.3-0.1-2.3-0.1-2.1,1.7C491.7,284.3,492.4,283.8,493.1,283.3z"/>
	<path fill="#AF8A7B" d="M374.7,540.9c0.3-1.2,0.6-2.5,0.9-3.9c2.5-0.7,5.3-1.5,8.2-2.3c1.5,1.3-0.5,6.9,2.3,5.6
		c0.6-0.3,0.7-0.8,0.6-1.4c3.9,7.7-9.6,6.9-12.8,2.8C374.1,541.4,374.4,541.1,374.7,540.9z"/>
	<path fill="#E4D7B3" d="M362.8,570.4c-1.4-0.6-2.7-1.2-4.3-1.9c3.2-4.4,3.6-9.3,3.5-14.5c3.8-3.9,3.2-8.8,4.2-13.7
		c0.6,0.2,1.1,0.4,1.6,0.5c-0.6,5.5-0.2,11.5-2,16.8C365,562.1,361,566.2,362.8,570.4z"/>
	<path fill="#EFE8C9" d="M478.6,541c0.3,0,0.7,0,1.1,0c1,4.9,0.6,9.6,4.4,13.6c-1.6,3.2,3.9,13.7-0.5,13c-4.3-8.3-4-17.3-5.9-26
		C478,541.4,478.3,541.2,478.6,541z"/>
	<path fill="#926E61" d="M465.9,544.5c-6.6,3.9-11.6-7.3-6.5-11c0.7,2.3-0.7,5,0.8,7.5c2.2-1.8,0.9-4.3,1.9-6.3
		c1.8,0.7,3.5,1.4,5.3,2C465.7,539.1,467.5,542.1,465.9,544.5z"/>
	<path fill="#AB8879" d="M465.9,544.5c1.5-2.4-0.2-5.4,1.4-7.8c1,0.1,2,0.2,3,0.3c0.9,2,0,3.7,1.3,5.5c-0.9,2-3.2,0.6-4.3,1.9
		C466.8,544.4,466.4,544.4,465.9,544.5z"/>
	<path fill="#211614" d="M458.9,286.1c-0.9-0.2-1.7-0.5-2.7-0.8c-0.1-0.9-0.1-1.7-0.2-2.3c3.5-2.7,8.4-3.7,12-6.5
		c0.3,0.3,0.6,0.5,0.9,0.8c-2.9,3.5-7.8,4.5-11.6,6.3c0.2,0.9,1.6,1.4,2.4,1.9C459.4,285.7,459.2,285.9,458.9,286.1z"/>
	<path fill="#AC8476" d="M471.6,542.4c-0.3-0.5-0.5-1-0.8-1.5c0.3,0,0.7,0,1.2,0c0.2-1,0.3-2,0.5-3.1c1.4-0.6,2.9-0.2,4.5-0.3
		c0.1,0.6,0.1,1.1,0.2,1.7c-1,0.2-2,0.4-3,0.6C473.3,540.6,472.5,541.5,471.6,542.4z"/>
	<path fill="#775C50" d="M387.3,542.3c-0.2-1.1,0.6-2.8-0.7-3.4c-0.2-1.9-0.5-3.9-0.8-6C389.1,532.8,388.1,540.6,387.3,542.3z"/>
	<path fill="#8E7062" d="M374.7,540.9c-0.3,0.3-0.6,0.5-0.8,0.8c-1.2-1.6-2.7-2.5-5.2-3c0-0.4-0.1-0.8-0.2-1.4
		c1.6,0.1,2.9,0.2,4.4,0.2C373.8,538.4,372.8,540.4,374.7,540.9z"/>
	<path fill="#967163" d="M459.7,285.5c-0.8-0.4-1.5-0.8-2.2-1.4c3.4,0.4,6.5-0.4,9.7-1.5l0.2,0.2C465.2,285,462.6,285.7,459.7,285.5
		z"/>
	<path fill="#534E41" d="M367.1,546.6c0.3-1.9,0.9-3.7,0.6-5.6c1.1,0.1,3-0.7,3.5,0.7c-0.5,0-0.9-0.1-1.5-0.1c-1,2-1.2,4.3-1.9,6.5
		C367.5,547.5,367.3,547.1,367.1,546.6z"/>
	<path fill="#56554A" d="M477.7,541.5c0.5,2.3,1.7,4.8,0.2,7c0-2.4-0.9-4.7-1.5-6.9C476.8,541.6,477.3,541.6,477.7,541.5z"/>
	<path fill="#523E38" d="M381.7,175.5c-0.6-1.9-0.7-3.4-0.6-5.6c1.7,1.8,1.3,3.7,1.3,5.5C382.2,175.4,382,175.4,381.7,175.5z"/>
	<path fill="#926E61" d="M467.3,544.3c0.3-0.7,1-0.6,1.6-0.5C468.5,544.4,467.9,544.5,467.3,544.3z"/>
	<path fill="#775C50" d="M386.6,538.8c0.1,0.6,0,1.1-0.6,1.4C385.9,539.6,386,539.1,386.6,538.8z"/>
	<path fill="#977264" d="M308.3,188.1c2.5,9.9-1.1,20.9,2.1,31.2c9.2,7.6,19.1,15.4,31.1,17.9c6.1,1.5,12.3,2.8,16.5,7.8
		c-0.3,0.2-0.5,0.5-0.8,0.7c-3.5,0.4-5.8-3.3-9.2-2.9c-0.7-0.5-1.4-1.1-2.2-1.6c-13.2,2-24.8-9.4-34.7-16.7
		c-7.8-8.1-1.2-25.4-3.2-36.4L308.3,188.1z M341,238.6c-0.3-0.5-0.6-0.9-1.3-0.2C340.3,238.5,340.6,238.5,341,238.6
		c-0.4,1.1,1.7,3,2,1.1C342.6,238.9,341.9,238.5,341,238.6z M311.4,221.4c-0.1-0.1-0.1-0.2-0.2-0.2c0,0.1,0,0.3,0,0.4
		C311.3,221.6,311.4,221.5,311.4,221.4z"/>
	<path fill="#B28C7D" d="M467.2,282.7c-3.2,1.1-6.3,1.9-9.7,1.5c-0.4-0.5-0.2-0.7,0.3-0.9c3.9-1.4,8.3-2.8,11.1-6
		c5.9-2.3,14-1.6,18.7-5.8c11.4-15,16.9-32.7,24.4-49.6c1.7-0.8,4.8-0.7,6.2-2.1c3.8,1,9.4,3.8,12.2,1.9c-2.4-3.3-7.3-4.7-11.1-5.6
		c-7-4.8-13.2-10.2-19.6-16.1c4.2-0.3,8.3,1.1,11.6-1.7c-6.4-5.8-16.6-5.5-23.3-11.4c-4.5-3.3-5.6-9.9-10.9-12.4
		c-3.2,3.5-2.6,8.6-6.1,12.8c0,2.4-0.4,4.9-2,7.2c-14.7-10.5-16.4-37.8-14.9-54.7c37.7,5.7,31.1,8.6,49.6,37.4
		c11.4,10.6,19.5,24.1,27.7,37.3c3,5,3.1,5.7,1.2,11.4c-8.1,6.3-10.8,16.9-16.7,24.8c-6.9,6.1-9,15.6-14.4,22.3
		c-0.2-0.7-0.3-1.2-0.4-1.6c2.4-0.2,0.3-2.4,0,0c-0.3,0-0.5,0-0.8,0c-1.6,1.1-1.7,1.5-0.7,2.6c-0.5,2.8-2.2,5.1-3.7,7.4
		c-3.6-1.8-7.4,0.7-11,2.2C479.2,284.8,472.6,278.4,467.2,282.7z M477,150.1c0-1.3-2-4.2-2.7-2.4C475,148.4,475.1,149.9,477,150.1z
		 M488.3,169.1c-1.4,0.8,0.3,2.7,1.3,1.5C489.6,169.9,489,169.5,488.3,169.1z M477.8,150.2c0.4,0.8,0.7,1.5,1.9,1.2
		C479.2,149.6,479.2,149.6,477.8,150.2z M495.3,277.7c0.9,1.6,2.9-0.1,1.7-1C496.5,277,496,277.2,495.3,277.7z M496.7,172.3
		c1-1.4,0.9-2.1-0.3-2.4C495.8,170.9,496.1,171.1,496.7,172.3z M476.1,171.9c-0.8,0.9-1.4,1.5-0.7,2.5
		C476.4,174,476.7,173.3,476.1,171.9z M493.7,172.2c0.2-2.2,0.2-2.2-1.2-2C492.8,170.7,493.1,171.1,493.7,172.2z M476.2,168.4
		c-0.4,0.9-0.7,1-0.2,1.7C476.7,169.7,476.3,169.4,476.2,168.4z"/>
	<path fill="#977264" d="M519.3,216.1c3.8,1,8.7,2.3,11.1,5.6c-2.8,1.8-8.4-0.9-12.2-1.9c-1.3,1.4-4.5,1.3-6.2,2.1
		c-0.5,0.8-0.8,1.4-1.2,2c-0.2-5.4-0.2-5.5-4.2-9.4c-10.7-10.1-21.1-20.6-31.3-31.2c0.2-2.2,2.2-4.7,1-6.5c-0.4,0.3-0.9,0.6-1.3,0.9
		c-0.2-1.7,1.5-1.8,2-3.1c5.3,2.4,6.4,9.1,10.9,12.4c6.7,5.9,16.9,5.6,23.3,11.4c-3.3,2.8-7.4,1.3-11.6,1.7
		c6.4,5.4,11.7,11.2,18.9,15.3C517,215.8,518.6,217.6,519.3,216.1z M520.2,217.4c-0.5,2.5,3.3,4,4.8,2.1
		C523.3,218.7,521.9,218.1,520.2,217.4z M492.5,191.5c0.2,2.2,2,3.4,4.4,3.1C495.3,193.5,493.9,192.5,492.5,191.5z M506.1,198.4
		c0.5,0,1.1,0,1.7,0C507.3,197.3,506.8,197,506.1,198.4z M503.2,196.4c-1,0.8-0.5,1.7,0.5,0.9C503.5,197.1,503.4,196.8,503.2,196.4z
		 M500,196c-0.3-0.1-0.6-0.3-0.8,0.1C499.5,196.4,499.7,196.5,500,196z"/>
	<path fill="#171211" d="M486.7,270.7c3.7-8.2,9.6-15.1,13.5-23.3c0.2,0.6,0,1.3,0.8,1.6c-3.6,7.9-8.7,15.1-13.3,22.4
		C487.3,271.3,487,271,486.7,270.7z"/>
	<path fill="#272322" d="M320.6,217.5c0.1-1.4,0.1-2.8,0.2-4.2C321.7,215.1,321.6,216.3,320.6,217.5z"/>
	<path fill="#EBDCB7" d="M483.6,567.5c1.7,0,1.7,0,2-1.4c0.5,0.7,1.1,1.5,1.7,2.4c-28.1,15.9-29.6-7.9-43.5-6.6
		c-10.3-0.4-25-10.3-18-21.9c2.1,3,1.2,6.7,2.6,9.9c2.4,4.9,15,6.9,20.4,8.6c1.8-0.1,3.4,0.8,4.3,2.5c7.4,8.5,18.5,11.8,29,7.3
		c0.4,0.5,0.7,1,1,1.5c0.3-0.1,0.4-0.2,0.6-0.3C483.7,568.8,483.6,568.2,483.6,567.5z"/>
	<path fill="#E9DBB6" d="M362.8,570.4c0.1-1.5,0.9-2.9,1.3-4.4c0.2,0.6,0.4,1.3,0.7,2c5.4,0.8,10.7,1.6,16.1,2.4
		c8-6.4,16.2-15.1,27.6-10.5c-1.9,2.1-5.3,1.5-7.9,1.7C387.2,562.5,387.3,580.8,362.8,570.4z"/>
	<path fill="#060404" d="M307.9,188.1c0,3.7,0,7.5,0.1,11.2c-0.2,0-0.4,0-0.6,0C307.6,195.6,306.9,191.7,307.9,188.1z"/>
	<path fill="#9E7E71" d="M316.3,189.5c-0.2,0-0.4,0-0.6,0c-1.8-3.3-1.4-7.4-3.4-10.7c0-1.8,0-3.6-0.1-5.3
		C314.3,174.3,316.4,186.8,316.3,189.5z"/>
	<path fill="#3C2F2A" d="M312.4,178.8c2,5,3.5,10.4,3.4,15.9c-0.1,0-0.2,0.1-0.4,0.1c-1.7-4.8-2.1-10.2-3.7-15.1
		C311.9,179.3,312.1,179.1,312.4,178.8z"/>
	<path fill="#030302" d="M425.1,333.3c0.1,0.2,0.1,0.4,0,0.7c-0.4,0-0.8,0-1.1,0c0-1.9-0.1-3.7-0.1-5.6c0.2,0,0.4,0,0.6,0
		C424.9,330,423.9,331.9,425.1,333.3z"/>
	<path fill="#4E4742" d="M423.3,228.5c0-2.8,0.7-5.4,2.1-8.2C426.6,223,424.7,226.1,423.3,228.5z"/>
	<path fill="#2D2522" d="M422.3,235.4c0-1.9,0.8-3.5,1.8-5c2.4,0.7-0.9,4.9-1,6.7C422.3,236.9,422.4,236.1,422.3,235.4z"/>
	<path fill="#3B332F" d="M422.3,235.4c0.2,0.6,0,1.5,0.9,1.8c0.2,0.6,0.4,1.3,0.6,2.1c-0.7,1-0.2,2.7-1.8,3.6
		c-0.9-1.7,0.3-2.9,0.4-4.4C422.1,237.5,421.2,236.5,422.3,235.4z"/>
	<path fill="#584E48" d="M422.4,221.3c0.8-2.7,2.2-4.3,3.9-6.5C425.9,217.5,424.4,219.9,422.4,221.3z"/>
	<path fill="#4E4641" d="M422,248.2c-0.7-1.9,0.2-3.2,1.5-5.2C424.1,245.4,423.5,247.1,422,248.2z"/>
	<path fill="#72554F" d="M422.4,251.2c0.3-0.9,0.3-0.9,1.1-1.3c0.6,0.8,0.3,1.4-0.2,2C423,251.7,422.7,251.5,422.4,251.2z"/>
	<path fill="#5C4C47" d="M423.9,213.4c-0.3-1.2-0.1-1.8,1-2.1C425.6,212.2,424.9,212.7,423.9,213.4z"/>
	<path fill="#736861" d="M422,262.3c-1,0.1-1.2-1.3-0.2-1.3C422.6,261.3,422.4,261.8,422,262.3z"/>
	<path fill="#3A3430" d="M423,256.6c0,0.6,0,1.2,0,1.9c-0.1,0-0.2,0.1-0.4,0.1c-0.4-0.6-0.4-1.2-0.1-1.9
		C422.6,256.6,422.8,256.6,423,256.6z"/>
	<path fill="#181614" d="M422.4,251.2c0.3,0.3,0.5,0.5,0.8,0.8c-0.1,0.4-0.2,0.9-0.3,1.3C421.4,253.4,422.3,252.1,422.4,251.2z"/>
	<path fill="#594F49" d="M421.1,268.3c0-0.5,0-1.1,0-1.6c0.1,0,0.3,0,0.4,0c0,0.5,0,1.1,0,1.6C421.3,268.3,421.2,268.3,421.1,268.3z
		"/>
	<path fill="#6D5954" d="M424.9,208c-0.3,0.5-0.5,0.4-0.9,0.2C424.3,207.6,424.5,207.7,424.9,208z"/>
	<path fill="#95867E" d="M426.2,203.1c0.5,0.3,0.4,0.5,0.1,0.9C425.9,203.7,426.1,203.5,426.2,203.1z"/>
	<path fill="#392824" d="M314,202.2c1.3,0.8,1.3,1.8,0.8,3.2C314.1,204.4,313.3,203.6,314,202.2z"/>
	<path fill="#3D2D28" d="M385.2,144.1c1.1,0.4,2,0.5,2,1.8C386.1,145.9,385.4,145.5,385.2,144.1z"/>
	<path fill="#463631" d="M361.8,237.3c0.5,1.1,0.2,1.9-0.9,2.4C360.3,238.6,360.8,237.9,361.8,237.3z"/>
	<path fill="#83685D" d="M316.2,208.4c0.1,0.6,0.2,1.1,0.3,1.7C314.9,210.2,314.8,208.7,316.2,208.4z"/>
	<path fill="#5E4039" d="M390.3,144.8c-0.9,0.5-1.2,0.4-1.4-0.5C389.4,143.8,389.8,144.3,390.3,144.8z"/>
	<path fill="#7A584F" d="M381.6,166.5c0,0.7,0,1.1,0,1.7C380.5,167.4,380.5,167.4,381.6,166.5z"/>
	<path fill="#473933" d="M348,221c0.4,0.1,0.8,0.2,1.5,0.3c-0.7,0.5-1.1,0.9-1.5,1.2C347.1,222,348,221.5,348,221z"/>
	<path fill="#65443D" d="M362.2,235.1c-0.2-0.2-0.3-0.4-0.5-0.5c0.2-0.2,0.5-0.4,0.7-0.6C362.9,234.5,362.5,234.7,362.2,235.1z"/>
	<path fill="#D69479" d="M468,427.4c-0.7-1-1.4-1.9-2.1-2.9c1.5-0.1,1.7-1.5,0.1-2c-0.1,0.7-0.1,1.3-0.2,1.9
		c-1.2-1.3-0.3-4.9-2.6-4.6c0.3-1.4,0.6-2.6,1-4c0.8-0.2,1.6-0.4,2.4-0.6c1.9,4.1,4.6,9.7,2.8,14.2
		C468.9,428.7,468.5,428.1,468,427.4z"/>
	<path fill="#5F4238" d="M476.2,475.6c-1.2-1-1.5-3-1-7.3C477.3,469.6,476.5,473.3,476.2,475.6z"/>
	<path fill="#423028" d="M474.3,482.4c-1-1.8-0.8-3.1-0.3-4.8C475.8,479.1,475.1,479.5,474.3,482.4z"/>
	<path fill="#37241E" d="M472.1,529.2c1.2,1.9,1.4,4.2-0.5,4.7C471.2,532.4,471.2,531.1,472.1,529.2z"/>
	<path fill="#3F2C26" d="M468,427.4c0.5,0.7,0.9,1.3,1.4,2c0,0.8,0,1.5,0,3.2C468.4,430.4,465.8,428.8,468,427.4z"/>
	<path fill="#4F362C" d="M471.6,524c2.1,0.9,1.4,2.1,0,3.3C471.6,525.9,471.6,525.1,471.6,524z"/>
	<path fill="#4F352C" d="M452.6,329.8c-0.4-0.1-0.8-0.1-1.7-0.2c0.7-1.4,2.3-2.1,3.2-0.5C453.6,329.3,453.1,329.6,452.6,329.8z"/>
	<path fill="#271A17" d="M472.6,486.6c-0.7-1.1-0.5-2,0-3.1C473.2,484.6,473.2,485.5,472.6,486.6z"/>
	<path fill="#835A4C" d="M470.1,489.7c-0.2-0.5-0.5-0.9-0.7-1.4c0.4-0.2,0.7-0.4,1.1-0.5C471.1,488.6,471,489.2,470.1,489.7z"/>
	<path fill="#976E5D" d="M456.8,328.3c0.3-1,1-1.4,2-1.4C458.5,328,457.9,328.4,456.8,328.3z"/>
	<path fill="#D69479" d="M383.1,415.4c7.7-1.1,5.3,8.2,5.6,13.2c-4.4-1.5-5.8-5.7-6.9-9.9C382.2,417.9,382.6,416.8,383.1,415.4z"/>
	<path fill="#694B3F" d="M393.4,435.9c-1.5-1.8-1.3-3.2-1-4.9C393.7,432.3,393.7,432.3,393.4,435.9z"/>
	<path fill="#35231E" d="M377.5,430.9c-1.3-0.3-0.6-1.4-0.8-2.2c0.5-0.5,0.7-1.6,1.9-1.2C379.1,428.8,377.8,429.7,377.5,430.9z"/>
	<path fill="#65453A" d="M372.5,484.1c0.1-0.4,0.3-0.8,0.4-1.2c0.3,0,0.4,0,0.7,0c0.7,0.9,0.3,2.1,0.4,3.2
		C372.7,486,372.7,486,372.5,484.1z"/>
	<path fill="#090706" d="M373.2,533.2c0-1.1,0-2.2,0-4.1c0.7,1.1,1,1.7,1.4,2.2c0,0.7-0.1,1.5-0.2,2.5
		C373.9,533.5,373.6,533.4,373.2,533.2z"/>
	<path fill="#8A6050" d="M392.5,426.8c0.6,0.8,0.2,1.2-0.4,1.7C391.2,428,391.7,426.7,392.5,426.8z"/>
	<path fill="#2E1916" d="M379.2,424.1c-0.5-0.6-0.1-1.1,0.2-1.7C380.4,422.5,380.1,424.1,379.2,424.1z"/>
	<path fill="#48312A" d="M376.1,488.9c-0.2-0.3-0.5-0.6-0.7-0.8c0.2-0.2,0.5-0.3,0.7-0.5C376.1,488,376.1,488.5,376.1,488.9z"/>
	<path fill="#281B17" d="M370.2,468c0.8,2.4,0.1,4.5,0.3,7.2C369.4,472.8,369.4,471.8,370.2,468z"/>
	<path fill="#4F332A" d="M392.4,328.6c0.9-0.4,1.8-0.4,2.6,0.4C394.7,330.4,392.8,329.8,392.4,328.6z"/>
	<path fill="#180D0B" d="M371.5,477.5c0.7,1.9,0.6,1.9,0.1,3.8C370.7,479.9,371.1,478.7,371.5,477.5z"/>
	<path fill="#A4715C" d="M382.3,326.6c-1.2,0.6-1.3-0.2-1.8-0.6C381.6,325.3,381.7,326.1,382.3,326.6z"/>
	<path fill="#956754" d="M388.9,328.5c-0.5-0.4-0.9-0.7-1.4-1.1C388.8,327.1,388.8,327.1,388.9,328.5z"/>
	<path fill="#130E0D" d="M373.5,526c0-0.6,0-1.2,0-1.8c0.1,0,0.2,0,0.3,0c0.3,0.6,0.3,1.2,0,1.9C373.7,526,373.6,526,373.5,526z"/>
	<path fill="#39261F" d="M452.7,431.9c0.5,1.3,1,2.6-0.1,3.8C451.9,434.4,452.7,433.2,452.7,431.9z"/>
	<path fill="#342D2A" d="M425.1,333.3c-1-1.2-0.5-2.8-0.6-4.3C425.5,330.3,425.2,331.8,425.1,333.3z"/>
	<ellipse fill="#462C24" cx="453.7" cy="428" rx="0.2" ry="0.8"/>
	<path fill="#646052" d="M364.1,566c-0.4,1.2-0.9,2.5-1.3,3.7c-1.9-3.2,3.2-10.8,3.9-14.8c0.3,0,0.6,0,0.9,0
		C366.8,558.7,365.1,562.3,364.1,566z"/>
	<path fill="#2E2B25" d="M367.6,554.9c-0.3,0-0.6,0-0.9,0c0.1-2.8,0.2-5.6,0.4-8.3C368.4,549.1,367.4,552.1,367.6,554.9z"/>
	<path fill="#635F52" d="M483.6,567.5c0.1,0.7,0.1,1.3,0.2,1.9c-0.2,0.1-0.3,0.1-0.6,0.3c-2.3-7-7.3-15.2-4.5-22.8
		C479.4,554,480.4,560.9,483.6,567.5z"/>
	<path fill="#534039" d="M493.1,283.3c-0.7,0.5-1.3,1.1-2.1,1.7C490.8,283.2,490.8,283.2,493.1,283.3z"/>
	<path fill="#523F38" d="M499.6,274.2c-1.1-1.1-1-1.5,0.7-2.6C500.5,272.6,500.1,273.4,499.6,274.2z"/>
	<path fill="#654C43" d="M341,238.6c0.9,0,1.6,0.3,2,1.1C342.7,241.5,340.6,239.7,341,238.6L341,238.6z"/>
	<path fill="#654C43" d="M341,238.6c-0.4-0.1-0.8-0.1-1.3-0.2C340.5,237.7,340.8,238.1,341,238.6L341,238.6z"/>
	<path fill="#250E0D" d="M311.4,221.4c-0.1,0.1-0.2,0.1-0.2,0.2c0-0.1,0-0.3,0-0.4C311.3,221.3,311.4,221.3,311.4,221.4z"/>
	<path fill="#3C2D29" d="M477,150.1c-2-0.2-2-1.7-2.7-2.4C475,145.9,477,148.8,477,150.1z"/>
	<path fill="#544039" d="M488.3,169.1c0.6,0.3,1.2,0.8,1.3,1.5C488.7,171.8,486.9,170,488.3,169.1z"/>
	<path fill="#624941" d="M477.8,150.2c1.3-0.5,1.3-0.5,1.9,1.2C478.6,151.7,478.3,150.9,477.8,150.2z"/>
	<path fill="#624C45" d="M495.3,277.7c0.7-0.4,1.2-0.7,1.7-1C498.2,277.6,496.2,279.2,495.3,277.7z"/>
	<path fill="#402E29" d="M496.7,172.3c-0.6-1.3-1-1.4-0.3-2.4C497.7,170.3,497.7,170.9,496.7,172.3z"/>
	<path fill="#3D2C27" d="M476.1,171.9c0.7,1.5,0.3,2.1-0.7,2.5C474.7,173.3,475.3,172.7,476.1,171.9z"/>
	<path fill="#3E2D28" d="M493.7,172.2c-0.6-1.1-0.9-1.5-1.2-2C493.9,170,493.9,170,493.7,172.2z"/>
	<path fill="#604B41" d="M519.3,216.1c-0.6,1.5-2.2-0.3-0.7-0.8C518.8,215.6,519,215.8,519.3,216.1z"/>
	<path fill="#967163" d="M501,271.5C501.2,269.1,503.4,271.3,501,271.5L501,271.5z"/>
	<path fill="#543731" d="M476.2,168.4c0.1,0.9,0.5,1.2-0.2,1.7C475.5,169.4,475.8,169.3,476.2,168.4z"/>
	<path fill="#281C18" d="M520.2,217.4c1.8,0.8,3.1,1.4,4.8,2.1C523.4,221.3,519.7,219.9,520.2,217.4z"/>
	<path fill="#2C1E1A" d="M492.5,191.5c1.4,1,2.8,2,4.4,3.1C494.5,194.9,492.7,193.7,492.5,191.5z"/>
	<path fill="#6C5147" d="M506.1,198.4c0.7-1.3,1.2-1,1.7,0C507.1,198.4,506.6,198.4,506.1,198.4z"/>
	<path fill="#4B3730" d="M503.2,196.4c0.2,0.4,0.3,0.7,0.5,0.9C502.7,198.1,502.2,197.2,503.2,196.4z"/>
	<path fill="#5F3E37" d="M500,196c-0.2,0.5-0.4,0.3-0.8,0.1C499.4,195.8,499.7,196,500,196z"/>
	<path fill="#51332B" d="M465.9,424.5c0.1-0.6,0.1-1.3,0.2-1.9C467.6,423,467.4,424.4,465.9,424.5
		C465.9,424.5,465.9,424.5,465.9,424.5z"/>
</g>
</svg>
