<?xml version='1.0' encoding='utf-8'?>
<svg xmlns="http://www.w3.org/2000/svg" version="1.2" baseProfile="tiny" id="Layer_1" x="0px" y="0px" viewBox="0 0 900 600" overflow="visible" xml:space="preserve">
<g>
	<path fill="#040404" d="M889.4,471.2c-0.4,0.5-0.8,1.1-1.3,1.6c0.4,3.4-1.7,6.3-5.1,6.7c-1.1,0.1-2.1,0.3-3.1,0.7   c-0.9,2.2-2.1,4.2-4,5.5c-1.2,0.9-2.4,1.8-3.4,2.9c-0.6,0.6-1.2,1.3-2,1s-0.7-1-1-1.4c-0.2,0-0.5-0.1-0.7,0   c-2.6,0.8-5.3,1.5-6.8,4.1c-0.3,0.5-1,0.8-1.5,1.1c-2.8,1.5-5.5,3-8.2,4.5c-5.7,3.2-11.7,3.6-18,2.3c-1.6-0.3-3.2-0.6-4.8-0.7   c-7.7-0.6-15.5-1.2-23.2-1.5c-9.4-0.4-18.8,0.3-28.2,1.1c-2.4,0.2-4.9,0.2-7.3,0.3c-0.2,0-0.3,0-0.5,0c-3.4-1.5-7-0.4-10.4-0.2   c-8.5,0.5-17.1,0.9-25.6,0.2c-5.3-0.5-10.6-1.1-15.7-2.5c-3.2-0.9-6.6-1.1-10-1.6c-12.8-1.9-25.7-3.4-38.5-6.2   c-2.4-0.5-4.7-1.1-7-2.1c-0.7-0.3-1.4-0.3-2.1-0.3c-9,0-18-0.2-27,0.6c-6.6,0.6-13.1,1.6-19.6,2.5c-6.5,0.8-13,1.1-19.4,1.8   c-9.7,1-19.4,0.7-29.1,1.5c-7.8,0.7-15.7,0.4-23.5,0.3c-6.5-0.1-13,0-19.5-0.5c-8.4-0.6-16.7-1.3-24.8-3.8   c-2.7-0.8-5.4-0.5-8.2-0.4c-9.7,0.3-19.2-0.9-28.2-4.7c-1.9-0.8-3.7-2-5.5-3.1c-0.7,0.2,0,0.9-0.6,1.1c-1.8,0.5-2.4-1.3-3.7-2   c-1.6,0.3-2.8-0.5-4-1.3c-3.6-2.5-7.1-5.2-10-8.5c-0.5-0.5-1-1-1.6-1.7c-2.3,8.3-6.7,15-14.4,19.1c0.3,0.1,0.5,0.2,0.7,0.3   c0.2,0.1,0.4,0.1,0.6,0.1c-0.1,0.4-0.3,0.6-0.6,0.7c-3.6,2-7.1,4.2-11.1,5.4c-3.6,1.1-7.1,2.4-10.6,3.5c-3.8,1.2-7.8,1.4-11.8,1.8   c-2.2,0.2-4.3,0.4-6.5,0.8c-1.4,0.3-2.6,0-3.7-0.8c-2.4-1.5-4.8-3-7.2-4.5c-2.1,0.7-4.4,0.3-6.6,0.1c-3.3-0.3-6.5-1-9.8-1.1   c-4.9-0.2-9.9-0.1-14.8-0.1c-10.1,1.9-20.3,0.8-30.4,0.6c-4.8-0.1-9.5-0.5-14.2-1.1c-8.1-1-16.1-2.3-24-4.2   c-7.1-1.7-14.1-3.4-21.2-4.9c-3.1-0.6-6.2-0.8-9.3-1.2c-7.1-0.7-14.1-1.7-21.2-2.6c-6-0.8-11.9-1.6-17.9-2.2   c-1.9-0.2-3.9-0.1-5.8-0.7c-0.6-0.2-1.3-0.2-1.8,0.1c-0.7,0.4-1.5,0.3-2.3,0.3c-2.2-0.2-4.5-0.5-6.7-0.8c-1.8-0.2-3.6-0.3-5.3-0.5   c-5.7-0.7-11.5-1.3-17.2-1.8c-3.5-0.3-7-0.5-10.5-0.6s-7-0.6-10.5-0.5c-6.2,0.2-12.4,0.3-18.5,0.8c-3.8,0.3-7.7,0.1-11.5,0.2   c-8.5,0.1-16.9,0-25.4-0.9c-0.5-0.1-1.1-0.2-1.6,0c-2.7,1-5.5,0.5-8.1-0.1c-8.3-2-16.6-4.2-25.2-6.3c-0.6,0.7-1.6,0.7-2.8,0.5   c-6.8-1.1-13.6-1-20.4,0c-3,0.5-5.9-0.1-8.9-0.1c-2.4,0-4.7-0.2-7-0.2c-1.2,0-2.4-0.2-3.5-0.5c-2-0.5-3-2.2-3.3-4.2   c-0.3-1.9-0.1-3.7,0.3-5.6c0.4-1.8,1.6-3,3.3-3.9c0.1-2.2,1.5-3.4,3.2-4.5c3.3-2.2,6.9-3.5,10.9-3.8c2.2-0.2,4.3-1,6-2.5   c3-2.6,6.1-4.9,9.8-6.3c0.1,0,0.2-0.2,0.3-0.4c-1.1-1.2-1-2.6-0.5-4.1c0.7-2,1.8-3.7,3.2-5.2c2.5-2.7,4.9-5.5,8.2-7.3   c0.3-0.1,0.6-0.3,0.7-0.6c1.8-2.8,4.5-3,7.4-2.6c1,0.1,2,0.4,3,0.5c1.9,0.3,3.6,0.8,5.1,2c1.5-0.2,2.5-0.8,3.1-2.2   c0.7-1.7,2.2-2.7,3.7-3.4c3-1.6,6.3-2.4,9.7-2.3c1.5,0,2.7-0.3,3.9-1.1c3.7-2.3,7.9-3.7,12.3-4.4c2.3-0.4,4.5,0.5,6.7,1   c0.7,0.1,1.4,0.5,2,0.1c1.4-0.8,2.4-0.2,3.2,0.9c0.2,0.3,0.4,0.5,0.5,0.7c1.2-0.1,2-0.6,2.9-1c1.3-2.8,3.7-4.8,6.2-6.5   c3.1-2.2,5.5-4.8,7.6-7.9c3-4.4,6.5-8.4,10.5-12c0.8-0.7,1.5-1.6,2.2-2.4c1.2-1.4,2.5-2.6,4-3.6c4.1-2.8,8.6-3.3,13.2-1.5   c5.3,2.1,10.1,4.9,14.3,8.8c3.3,3.1,6.6,6.3,9.1,10.1c0.2,0.3,0.4,0.6,0.6,0.7c2.2,0.8,4.1,2.1,6.6,2.2c5.2,0.1,10.4-0.1,15.5-0.6   c3.1-0.3,6.3-0.2,9.4-0.5c3.3-0.3,6.6-0.9,9.9-1.5c7.6-1.3,15.2-2.9,22.8-4.2c7.2-1.2,14.5-2.3,21.7-3c2.7-0.3,5.4-0.5,8.4-0.7   c2.8-6,7.3-10.9,10.7-16.6c5.4-9,13.4-15.1,23.1-19c2.9-1.1,5.8-1.7,8.9-1.5c1,0.1,1.9,0.2,2.8,1c1,0.9,2.2,1.2,3.6,0.6   c2.7-1.1,5.5-1.5,8.4-1.6c3.2-0.2,6.5-0.1,9.9,0.1c-0.8-4.2-1.6-8.3-2.4-12.3c-1.3-7.1-2.6-14.1-3.6-21.3   c-0.5-3.6-1.1-7.1-1.4-10.7c-0.3-4.3-0.7-8.6-0.7-12.9c-0.1-15.5-0.1-31.1,0-46.6c0.1-10.7,0.6-21.3,1.8-31.9   c0.8-7.1,2.4-14.2,4.2-21.2c0.2-0.8,0.4-1.5,0.4-2.3c-0.1-2.8,0-5.5,0.5-8.2c0.8-4.2,1-8.4,1.2-12.6c0.2-3.9,1.2-7.6,2.4-11.2   c3.3-10.3,8.4-19.5,15.4-27.7c6.7-7.9,14.3-14.7,22.9-20.4c5.8-3.9,12.1-6.9,18.9-8.4c0.9-0.2,1.9-0.3,2.8-0.3c7,0,13.9,0,20.9,0.1   c3.9,0,7.8,0.7,11.6,1.4c8.6,1.6,16.9,4,25,7.2c15.1,5.8,29.3,13.2,42,23.4c0.3,0.2,0.6,0.5,0.9,0.7c3.2,0.2,3.2,0.2,4.3,3.5   c0.2,0.6,0.6,1.1,1,1.6c4.7,6.4,9.9,12.3,14.7,18.6c7.7,10.1,14.9,20.5,21.5,31.3c5.4,8.8,9.4,18.2,12.6,28   c2.8,8.9,5,17.9,6.6,27.1c2,11.5,3,23,2.8,34.7c1.8,1.6,1.7,3.9,1.8,6.1c0.3,4.9,0.4,9.7,0.5,14.6c0.3,11.4,0.9,22.7,0.7,34.1   c-0.2,14.1-1.7,28-4.6,41.7c-1.3,5.8-2.6,11.6-4.2,17.4c1.7,2.9,0,6-0.1,9.1c3.3,0.9,6.7,0.9,10,1.1c2,0.1,4.1,0,6.1,0   c5.2,0,10.3,0.8,15.4,1.6c2.1,0.4,4.3,0.7,6.4,1.2c1.6,0.4,3.1,0,4.6-0.2c2-0.3,4-0.3,6.1,0c0.6,0.1,1.2,0.1,1.9,0.1   c5,0,10,0.3,15,0.9c2.9,0.3,5.9,0.3,8.9,0.6c3.6,0.4,7.3,1,10.9,1.3c3.9,0.3,7.8,0.9,11.5,1.9c3.2,0.9,6.6,0.9,9.9,1.6   c4.2,0.9,8.1,2.7,12.2,4.1c2,0.7,3.9,1.7,6,2c0.9,0.1,1.7,0.3,2.6,0.3c4.3,0,8.6,0.1,12.9,0.1c4,0,8,0.3,11.9,0.8   c2,0.3,4,0.4,6.1,0.5c5.4,0.2,10.6,1.5,15.7,3.1c2,0.6,4,1.2,6.1,1.6c0.5,0.1,1,0.1,1.3,0.4c2.8,2,6.1,1.8,9.2,2.4   c6,1.2,12.1,2.1,18.2,3.1c6.5,1,12.9,2.4,19.3,3.9c1,0.2,2,0.1,3.1,0.1c9.8,0,19.6,0,29.4,0c1.3,0,2.7,0,4.1,0   c1.5-1.9,2.7-4.2,5-5.4c0.5-0.3,1-0.2,1.6-0.1c0.3-0.8,0-1.5,0-2.3c-0.1-3.2,1.1-6.1,2.1-9c0.2-0.6,0.8-1.2,1.3-1.7   c3.5-3.6,8.8-2.2,10.3,2.6c0.5,1.8,1.4,3.5,2.1,5.3c1.1-0.9,1.9-2,2.2-3.4s1.6-2.3,1.8-3.7c0.1-0.6,0.9-0.8,1.6-0.8   c1.1,0,2.2,0.3,3.1,0.9c2.9,1.7,4.3,4.5,5.2,7.5c0.3,1-0.5,1.7-0.7,2.8c2.1-0.9,4-1.1,6-0.6c1.9,0.5,3.3,2.1,5.5,2.2   c2.6-1.8,5.4-0.9,8.1,0.1c1.9,0.7,3.1,3.4,2.8,5.5c-0.1,0.5-0.2,1-0.1,1.5c0.5,2.2-0.3,4.2-1.1,6.1c-0.2,0.6-0.6,1.3-0.9,1.9   c0.6,0.9,1.3,0.7,2.1,0.5c3-0.7,4.6,0.2,5,3.1c0.4,2.6,1.1,5.2,1.1,7.9c0,0.1,0,0.2,0,0.2c1.4,3.3-0.3,5.3-2.7,7.2   c-0.2,0.2-0.5,0.4-0.8,0.7c0.7,1.1,1.5,2.2,1,3.5c-0.4,0.1-0.7,0.3-1.3,0c-0.5-1.5-1.9-2.3-3.3-3.1c-1,0-2,0-3,0   c-3.5,2.8-3.9,5.6-1.4,8.9c2.2,0.1,4.5,0.6,6.6-0.6C889.4,470.3,889.4,470.8,889.4,471.2z M441.5,203.1c0.2,1,0.8,1.8,1.3,2.7   c0.5-1-0.6-1.8-0.3-2.7c0-0.1-0.3-0.3-0.4-0.5c-0.2-0.4-0.5-0.7-0.5-1.3c0-1.1-0.3-2.1-0.9-3c0.1-0.6-0.3-1.3,0.3-1.8   c1,0.4,1.1,0.4,1.3,1c0.6,1.7,1.2,3.4,1.7,5.1c2.4,8.2,4.7,16.4,7.5,24.5c1.2,3.4,2.3,6.8,3.5,10.2c1-0.7,0.3-1.9,0.9-2.5   c1-1.1,0.8-2.3,0.8-3.5c0-8.7-0.1-17.3-0.5-26c-0.1-2.7-0.4-5.3-0.6-7.9c-0.1-1.3,0-2.6-0.7-3.8c0-2.6-1.3-4.8-2.5-7   c-0.2-0.3-0.5-0.6-0.8-0.8s-0.7,0.5-1,0c0.4-1.6,0.8-1.8,1.9-1.3c0.7,0.3,1.3,0.9,1.8,1.5c0.9,1.2,1.5,2.6,1.9,4   c0.5,1.9,0.9,3.7,1.4,5.6c0,1.6,0.3,3.3,0.5,4.9c0.6,5.4,0.6,10.9,0.9,16.4c0.2,4.8,0.1,9.6,0.1,14.3c0,0.5-0.2,1,0.2,1.5   c1.9-1.8,1.9-1.8,2.2-3.8c0.2-1.1,0.3-2.2,0.5-3.2c1.6-8.1,2.2-16.4,2.1-24.7c0-0.5,0.1-1-0.3-1.3c0.1-1.2,0-2.3-0.4-3.5   c-0.2-0.8-0.5-1.6,0-2.3c1.1,0.2,1.1,1.2,1.7,1.7c0.1,0.6-0.2,1.4,0.5,1.9l0,0c0.5,10.4-0.1,20.7-2.4,31c3.2-1.5,7.1-7.3,9.9-12.7   c0.3-0.6,0.7-1.2,1.1-1.8c4.7-8.8,8.1-18,11.3-27.4c2.3-6.7,4.7-13.4,6.1-20.5c1.3-7,3.1-14,5.7-20.6c1.7-4.2,3.4-8.5,6.6-11.9   c-0.3-0.5-0.8-0.7-1.3-1c-3.6-2.1-7.2-4.3-10.8-6.4c-16-9.2-32.9-16.4-50.8-21.1c-4.6-1.2-9.2-2.1-14-2.2c-4.5-0.1-8.9,0-13.4,0   c-2.4,0-4.7,0.3-6.9,1.1c-1.3,0.5-2.4,0.4-3.3-0.6c-0.9,0.4-1.7,0.6-2.5,1c-4.5,2-8.9,4.4-12.9,7.4c-2.3,1.3-4.2,3-6.2,4.6   c-8.4,6.6-16,14-22.4,22.6c-4.9,6.5-8.3,13.7-10.6,21.4c-0.2,0.8-0.5,1.6-0.2,2.3c0.6,1.1,0.4,2.3,0.5,3.4c0.2,2.1-0.7,4-0.6,6.1   c0.1,0.5,0.8,0.7,0.9,1.1c0,0.6,0.1,1.2,0,1.7c-0.9,3.8-0.9,7.7-1.3,11.6c-0.4,4-1.2,7.8-1.8,11.8c-0.7,4.5-1.5,8.9-2,13.4   c-0.5,4.3-0.8,8.6-0.9,12.8c-0.2,6-0.3,12-0.4,18.1c-0.2,22-0.1,44-0.2,66.1c0,3.8,0.5,7.5,1.1,11.1c1.2,6.9,2.7,13.7,4.1,20.5   c1.5,7.6,3.1,15.2,4.5,22.8c1.1,5.7,2.1,11.5,2.1,17.4c0,2.4,0.2,4.8,0,7.2c-0.2,3.4,0.1,6.9,0.3,10.3c0.1,1.9,0.6,3.6,1.6,5.3   c0.7,1.3,1.7,2.4,1.8,3.9c-0.6,1-1.5,1.1-2.4,1.3c-0.8,0.2-1.5-0.5-2.3-0.3c-1.2,0.5-1.8,1.3-1.5,2.5c0.4,1.7-0.1,2.9-1.3,3.9   c-0.3,0.3-0.7,0.6-0.9,1c0,1.1,0,2.2,0,3.3c-0.8,1.8-2.6,1.6-4.1,1.8c-0.1,0.4-0.1,0.7-0.2,1c-0.3,0.2-0.7,0.3-1,0.5   c-2.9-1.8-8.1-3.3-10.3-3c-0.2,0.9,0.3,1.7,0.5,2.5c2.2,8.6,4.7,17.1,7.9,25.4c1.8,4.5,3.6,9,5,13.7c0.5,1.5,1.1,3.1,0,4.8   c6.7,8.8,14.1,16.8,23.3,22.9c3.5,2.8,7.4,5.1,11,7.5c1.5-0.8,2.8-1,4.2-0.9c4.1,0.2,8.1-0.4,12-1.4c2.8-0.8,5.6-1.7,8.5-2.5   c2.6-0.7,5.2-1.4,7.8-2c0.3-0.7-0.5-1.1-0.1-1.8c1.8-1.2,4.1-1.9,6-3.5c6.4-3.6,10-9.3,12.2-16c-0.4-1-0.8-1.8-0.9-2.5   c0.3-2.3,1.1-4.1,1.9-6c0.8-2,0.9-4.1,1.3-6.1c0.2-1.2,1-1.4,1.7-1.6c2.8-7.5,4.4-15.2,6-22.8c0.8-3.9,1.4-7.8,2.2-11.7   c0.5-2.3,0.7-4.6,1-6.9c0.3-2.6,0-5.3,1.6-7.7c0.2-0.3,0.2-0.7,0.3-1.1c0.3-3.7,0.7-7.3,1-11c0.4-5.6,0.7-11.2,0.9-16.8   c0.2-5.2,0.3-10.5,0.5-15.7c0.1-4.1,0.5-8.3,0.7-12.4c0.1-2.1,0.3-4.2,0.4-6.3c0.4-5.1,0.9-10.3,1.3-15.4s0.7-10.1,0.9-15.2   c0.4-8.2,0.7-16.4,1-24.6c0.2-5.5,0-11.1,0.4-16.7c0.3-4.6,0.2-9.2,0.2-13.9c0-0.8-0.2-1.6-0.4-2.5c-0.4-1.4-0.8-2.9-0.6-4.4   c0.2-1.1-0.2-2.1-0.9-3c-3.7-5.4-7.4-10.8-11-16.3c-3.7-5.8-7.6-11.4-11.5-17.1c-0.3-0.4-0.8-0.8-0.4-1.5c0.9,0.1,1.5,0.7,2,1.4   c0.8,1,1.6,1.9,2.3,2.9c2.2,3.1,4.4,6.3,6.6,9.4c2,3.5,4.4,6.8,6.6,10.2c0.6,1,1.4,2,2.1,3.1c0.1-0.3,0.2-0.5,0.2-0.6   c-2.1-4-4.3-7.9-7.1-11.5c-0.5-0.6-1-1.2-0.8-2.1c0.8-0.2,1.4,0.1,1.9,0.7c0.9,0.9,1.8,1.7,2.5,2.8c0.3,0.4,0.5,1.1,1.4,1   c-2.7-8.7-4.7-17.5-9.6-25.2c0.6-0.7,1-0.4,1.5-0.4l0,0C440.2,201.2,440.8,202.2,441.5,203.1z M328.5,417.6   c0.1-1.6,1.3-2.5,2.1-3.7c1.3-0.4,1.9,0.8,2.7,1.3c4,0.1,7.3,1.6,10.8,3.4c0.7-0.7,1.9-0.3,2.8-1.2c0-0.6,0-1.3,0-2   s0.2-1.4,0.6-1.7c1.6-1.1,1.8-2.8,2.3-4.4c0.6-1.8,1.5-3.5,3.8-3.5c0.6,0,1.2,0.2,1.7-0.1c-2.5-5.4-2.5-5.4-2.7-11.5   c0-0.2,0-0.3,0-0.5c-0.2-2.3-0.2-4.5-0.5-6.8c-0.4-2.7-1.3-5.3-1.6-8c-1.2-8.3-2.7-16.5-4.4-24.8c-0.3-1.3-0.2-2.6-1-3.8   c-1.4,0.5-2.8,0.4-4.2,0.5c-4.4,0.2-8.9,0.3-13.2,1.2c-1.7,0.3-3.5,0.5-5.1-0.7c-0.6-0.4-1.3-0.8-1.9-1.1c-3.4,0.2-6.6,1-9.4,3   c-1.6,0.5-2.8,1.4-3.9,2.7c-1.6,0.6-2.5,2-3.7,3.1c-7.6,6.4-12.9,14.5-16.4,23.8c-1.4,2.7-2.3,5.4-2.5,8.5c1-2.5,2-5,3-7.5   c3-5.7,6.4-11.1,10.4-16.1c3.1-3.9,6.3-7.7,9.8-11.3c1.3-0.9,2.6-1.7,3.9-2.6c0.3,0,0.7,0,0.9,0.4c-0.1,0.9-1.3,0.6-1.5,1.4   c-2.7,2.4-4.9,5.3-7.2,8c-5.3,6.2-9.9,12.9-13.7,20.1c-1.7,3.3-3.2,6.7-4.1,10.4c-1.8,5.3-2.5,10.7-2.6,16.3c0.7-2.6,1.1-5.2,2.7-8   c-0.1,3.2-1.6,5.7-1.2,8.5c2.1,0.3,4,0.1,6,0.1c0.1-0.4,0.3-0.6,0.3-0.9c0.3-3.3,1.1-6.5,2.1-9.6c0.2-0.7,0.5-1.3,0.3-2.1   c0.8-1.5,1.4-3,2-4.6c0.2-0.6,0.6-1.3,0.8-1.9c3.2-7,7.1-13.6,11.4-20.1c1-1.5,2.1-3,3.2-4.5c0.5,0.1,0.5,0.5,0.5,0.9   c-2.7,4.6-5.5,9.2-8.1,13.9c-3.1,5.5-6,11.1-7.8,17.2c-1.5,3.7-2.4,7.7-3.1,11.6c0.6-1,1.1-2.1,1.4-3.2c0.7-2.4,1.8-4.6,2.1-7.1   c0.8-1.6,1.6-3.3,2.4-5c4-8.1,8.3-16.1,14.6-22.8c1.6-1.6,3.1-3.3,4.8-4.8c0.5-0.5,1.2-1.3,2.2-0.6c-0.6,1.5-1.7,2.7-2.7,3.8   c-3.5,3.9-6.8,8-9.4,12.5c-0.4,0.7-0.7,1.4-1.4,1.8c-1.2-0.6-1.2-0.6-1.4,0.5c-0.6,1.3-1.2,2.5-1.7,3.8c-1.4,3.7-3.1,7.3-4.1,11.1   c-0.9,1.5-1.3,3.3-1.7,5c-0.4,1.7-1.6,3.3-1.5,5.3c2,0.2,3.8,0.4,5.6,0.6c1.5,0.3,3,0.6,4.5,0.9c0.4,0.1,0.9,0.3,1.1-0.4   c0.9-1.3,0.6-2.9,1.4-4.2c0.9-1.9,1.8-3.8,2.8-5.8c0.3-0.4,0.7-0.8,1-1.3c0.2,0,0.5,0,0.7,0.1c0.4,1.3-0.3,2.4-0.6,3.6   c-0.6,2.6-1.7,5-2.1,7.6c-0.4,0.3-0.4,0.6-0.1,1.1c0.2,0.1,0.5,0.2,0.8,0.3c3.4,0.7,6.8,1.5,10.2,2.4c2,0.6,4,1.2,6,1.8   C327.8,418.1,328.5,418.4,328.5,417.6z M293.3,366.4c-0.7,0.1-1,0.8-1.4,1.2c-4.5,5-7.4,11.1-11.2,16.7c-0.8,1.1-1.3,2.5-1.9,3.8   c-1.4,3.3-2.8,6.6-3.1,10.2c-0.3,0.2-0.4,0.5-0.4,0.8c-0.6,3.4-0.4,6.9-0.4,10.3c0,0.6,0.1,1.2,0.8,1.7c1,0,2.2,0.2,3.3-0.3   c0-2.6-0.2-5.1,0.8-7.5c0.4,0.5,0,1.1,0.7,1.6c0.5-3.7,1-7.3,1.4-10.8c0.1-0.4,0.3-0.7,0.4-1.1c1.6-9.5,5.1-18.2,10.8-26   C293.3,366.8,293.3,366.5,293.3,366.4c1.6-1,2.7-2.5,3.7-4C295,363.7,294,364.8,293.3,366.4z M874.3,433.6c0.4-0.3,0.7-0.8,0.4-1.2   c-0.6-0.9-0.5-1.7-0.1-2.6c0.2-0.5,0.3-1,0-1.4c-3.1-2.4-6.7-1.1-10.3-1.5c-1,1.6-2.3,3.4-3.7,4.9c1.1,2.7,0.2,5.3,0.1,7.8   c0.4,0.7,1.1,0.7,1.7,0.7c0.6,0.6,1.9,0.2,2,1.5c-0.7,1.3-1.9,0.6-2.9,0.8c-3.2-0.5-3.7-3.4-4.6-5.7c-0.6-1.5-0.5-3.3,1.1-4.6   c-0.7-1.1-0.5-2.1,0.3-3c0.6-0.7,1.2-1.5,1.8-2.1c1.6-1.6,2.3-3.7,2.3-6c-1.6-1.4-2.8-3.3-5-4.2c-0.9,2.4-1.5,4.8-3.3,6.5   c-0.1,0.1-0.2,0.3-0.2,0.4c-0.7,2.2-1.9,4.3-2.7,6.5c-1.2,3.3-3,6.2-5.4,8.7c-1,1-1.7,2-1.9,3.4c-2,3.2-3.6,6.7-6.1,9.6   c-0.5,0.6-0.8,1.3-0.8,2.1c0,1.4,0,2.8,0,4.3c0.5,0,1.1,0.1,1.5-0.4c0.4,0,0.8-0.1,1.2-0.1s0.8,0.1,1.1,0c0.7-0.1,0.9,0.4,0.9,1   c-0.7,1.7-2.4,1.8-3.8,2.3c-6,2.1-12.4,2.4-18.6,3.7c-2.5,0.5-5.2,0.2-7.7,0c-5.9-0.5-11.8-1.2-17.7-2.1c-7.6-1.2-15.3-2.1-23-3.3   c-9.6-1.5-19-3.6-28.3-6.2c-0.5-0.2-1.2-0.2-1.5-0.6c-0.7-1-1.7-1-2.7-1.2c-1.2-0.3-2.4-0.6-3.7-0.8c-5.2-1.1-10.4-2.1-15.8-2.1   c-3.7,0-7.3-0.2-11-0.8c-1.2-0.2-2.5-0.3-3.7-0.2c-1.6,0.2-3.1,0-4.7-0.2c-3.2-0.4-6.3-1-9.5-1.6c-4.9-1.1-9.8-1.9-14.3-4.2   c-0.8,0.6-1.7,0.9-2.7,0.8c-2.2-0.3-4.5-0.7-6.7-1c-5.4-0.7-10.8-1.6-16.3-2c-6.5-0.5-13.1-0.7-19.7-1c-3.4-0.2-6.9-0.3-10.3-0.6   c-4.5-0.5-9-0.6-13.5-1.3c-3.2-0.5-6.5-0.8-9.8-1.1c-4.2-0.4-8.4-0.8-12.6-1.1c-4.2-0.3-8.4-0.3-12.7-0.7c-2.9-0.3-5.8-0.2-8.6-0.8   c-2-0.4-4-0.8-6-1c-0.9-0.1-1.8-0.3-2.7-0.6c-1.9-0.8-3.9-1.5-6-1.8c-0.3-0.4-0.7-0.3-1-0.5c-2.3-0.6-4.6-1.3-6.8-2.4   c-0.8-0.4-1.7-0.7-2-1.7c0.4-0.8,1-0.9,1.8-0.8c1.4,0.2,2.8,0.5,4.1,0.9c1.6,0.4,3.1,1.1,4.7,1.2c0.7,0.4,1.4,0.8,2.3,0.4   c0.2-1.8-0.2-3.5-1.2-5.1c-2.1-3.5-4.6-6.9-6.4-10.6c-0.5-1.1-1-2.1-0.7-3.3c-5.3-6-10.5-11.9-17-16.5c-8.1-5.7-16.9-9.1-26.9-7.1   c-6.3,1.2-12.2,3.3-15.3,9.7c-0.4,0.2-0.7,0.2-1.1,0c-0.9-0.7-0.4-1.8-0.6-2.9c-11.7,7.4-22,15.8-28.7,28.3c1.2,1.3,0.6,2.8,0,4.1   c-2,4.8-2.3,10.1-4.4,14.9c-0.1,0.1,0,0.3-0.1,0.5c-0.9,5.6-0.4,11.2,0.5,16.8c-0.2,1.1,0.3,2.2,0.4,3.2c0.5,4.7,1.6,9.3,2.8,13.9   c0.2,0.8,0.5,1.5,1.1,2c1.7,1.7,3.6,3.2,5.7,4.4c5.6,3.1,11.8,4.5,18,5.5c5.6,0.9,11.2,1.3,16.8,1.6c3.9,0.2,7.7,0.9,11.6,1   c3.8,0.1,7.6,0.6,11.5,0.6c8.2,0.1,16.4,0,24.7,0.4c5.9,0.3,11.9,0.2,17.8,0.5c5.4,0.2,10.8,0.4,16.2-0.2c4.4-0.5,8.9,0,13.4-0.3   c6.3-0.3,12.7-0.4,19-1.2c3.6-0.4,7.3-0.6,11-1.1c5.9-0.9,11.8-1.3,17.7-1.6c6.1-0.3,12.2-0.2,18.3,0c1.8,0,3.6,0,5.2-0.8   c0.6-0.3,1.2-0.3,1.8-0.3c2,0,4.1,0,6.1-0.2c1.5-0.1,3-0.1,4.5-0.1c0.9,0,1.9,0.1,2.2,1.2c-0.7,1.4-2.1,0.9-3.3,1.3   c2.3,0.7,4.5,1.7,6.7,2c3.6,0.5,7.3,0.9,10.9,1.5c5.5,0.8,10.9,1.7,16.4,2.5c6.8,1.1,13.5,2.5,20.3,3.3s13.5,1.4,20.3,1.4   c10,0,19.9-0.3,29.9,0c1.4,0,2.8,0,4.2-0.2c4.9-0.7,9.8-1.1,14.7-1.3c7-0.2,13.9,0.1,20.9,0.8c4.4,0.5,8.8,1,13.2,2   c0.7,0.2,1.5,0.2,2.3,0.1c2-0.2,4.1-0.3,6.1,0.1c2.5,0.4,5,0,7.4-0.4c5-0.8,9.3-3.4,13.8-5.6c0.3-0.2,0.7-0.4,0.9-0.8   c1-1.5,2.4-2.1,4-2.8c0.9-0.4,1.9-0.7,2.9-1.1c-0.4-1.6,0.3-2.8,0.9-4c1.3-0.8,2.6-1.7,3.9-2.5c0.8-0.5,1.7-0.7,2.8,0   c-1.5,1.9-4.5,2.6-4.2,5.7c0.8,0,1.5,0,2.1,0c2.1-1.5,3.5-3.5,5-5.4c-2.6-0.7-2.7-0.8-2.5-2.6c0.4-0.3,0.8-0.4,1.3-0.4   c2,0.2,3.9-0.2,5.8-0.5c2.1-0.4,2.9-1.8,3.6-3.5c-1.4-0.2-2.6-0.7-3.6,0.2c-3.6-2-5-4.9-3.9-8.2c0.7-2.1,2.1-3.9,3.9-5.1   c1.8-1.1,3.9-0.6,5.9-0.5c3.4-2.7,3.5-2.9,3.2-5.4c-1.4,0.3-2.9,0.7-4.3,1c-1.2,0.3-2.6,0.6-3.7,0.1c-2-1-4.1-1.7-5.7-3.5   c-1.2-1.3-1.6-2.6-0.9-4.2c1.3-3.1,3.9-4.7,6.7-6.1c0.7-2.4,2.2-4.6,1.9-7.2c-1-1.4-2.1-2.6-3.7-3.3c-0.2-0.7-0.3-1.4,0.6-1.7   c0.8-0.1,1.5,0.7,2.4,0.6c-1.1-1.9-2.8-2.5-5-2c0.4,0.7,1.4,1.2,0.9,2.2c-0.8,0.1-1.6,0.3-2.3,1c-0.5,1-0.9,2.1-1.4,3.2   c-0.8,0.3-0.8,1.9-2.1,1.3C873.9,435.1,874.4,434.3,874.3,433.6z M29.5,464.7c1.9,0.1,3.7-0.4,5.6-0.5c4.2-0.2,8.3-0.2,12.5,0.6   c0.6-1.1,1.6-1.2,2.7-1.3c2.4-0.1,4.7,0.3,7,0.8c6.5,1.5,12.8,3.2,19.1,5.1c0.6,0.2,1.2,0.3,1.8,0.4c5.8,0.4,11.7,0.9,17.5,1.3   c0.4,0,0.8,0.1,1.2,0c1.3-0.6,2.8-0.4,4.2-0.5c5.2-0.1,10.3,0.4,15.5,0.3c5-0.2,10-0.2,15.1-0.2c0.5,0,1.1,0.1,1.6-0.2   c2.5-1.2,5.1-1.2,7.8-1.2c5.2,0,10.5,0.6,15.7,0.5c1.5,0,3,0,4.5,0.1c5.8,0.4,11.7,0.5,17.5,1.2c3.8,0.5,7.6,0.6,11.4,1.1   c5.6,0.7,11.1,1.5,16.7,2.2c6.3,0.8,12.7,1.7,19,2.8c0.2,0,0.4-0.1,0.6-0.1c-0.2-0.5-1-0.6-0.8-1.4c0.7-0.5,1.5-0.4,2.2-0.2   c4.2,1.2,8.5,1.8,12.8,2.4c5,0.7,10,1.5,15,2.2c4.4,0.6,8.8,1.3,13.1,2.2c4.2,0.9,8.3,2,12.6,2.7c4,0.7,8,1.3,12,1.9   c5.6,0.9,11.1,1.5,16.7,2.2c3.9,0.5,7.8,0.9,11.7,1.2c3.7,0.3,7.5,0.8,11.2,0.6c3.7-0.2,7.5-0.6,11.2-0.1c0.5,0.1,1.1,0.1,1.4-0.1   c1.8-1.5,3.9-0.9,5.9-0.6c4.6,0.6,9.1,1.4,13.7,2.1c0.9,0.1,1.9,0.4,2.9,0.1c-0.2-0.6-0.6-0.8-0.9-1c-8.2-5.6-14.9-12.6-20.3-20.9   c-1.8-2.8-3.6-5.7-3.4-9.3c0-0.5-0.2-1.1-0.4-1.6c-1.4-2.9-2.8-5.7-4.2-8.6c-0.1-0.4-0.2-0.8-0.3-1.1c-3-7.8-5.5-15.7-7.4-23.8   c-0.4-1.7-0.5-3.5-1.3-5.2c-3.3,0-6.5-1-9.7-1.6c-3.1-0.6-6.2-1.3-9.4-2c-1.1-0.2-2,0.2-2.9,0.4c-1.2,0.2-1.8-1-3-1.1   c-3.7-0.4-7.4-0.9-11.2-0.9c-7.2,0-14.4-0.1-21.6,0.5c-3,0.3-6.1,0.3-9.1,0.6c-1.6,0.2-3.4,0-4.9,0.5c-4.8,1.3-9.6,2.5-14.5,3.4   s-9.8,1.8-14.7,2.6c-4.3,0.8-8.6,1.5-12.9,2.2c-3.4,0.6-6.7,1.2-10.1,1.6c-3.5,0.4-7,0.9-10.5,1.1c-6.3,0.5-12.6,1.2-18.9,1.8   c-3.2,0.3-6.4,0.7-9.6,1.1c-3.3,0.4-6.7,0.9-10,1.2c-4.2,0.4-8.4,0.7-12.6,1.3c-1.5,0.2-3.1,0.4-4.7,0.6c-0.8,0.1-1.6,0.1-2.2-0.6   c-0.8-1-1.9-0.7-2.8-0.8c-1.4,0.6-0.7,1.9-1.2,2.8c-0.6,0.9-1.5,1.3-2.2,2c0.4,2.3-0.9,3.1-3.4,2.3c-0.1-1.8,1.4-2.1,2.6-2.7   c0.1-1.4,0.1-1.4,1.6-3.7c-3.6-2.5-5.8-6.4-9.5-9.3c-0.1,0-0.3,0.7-1.2,0.3c-3.9-5.4-9.7-9.7-13.9-15.6c-3.2-0.1-6.4-0.4-9.6,0.4   c-4.7,1.2-8.8,3.7-13,6c-0.5,0.3-1,0.8-1.4,1.2c-1.8,2-3.6,3.9-5,6.2c-2,3.1-3.9,6.2-6.1,9.2c-1.2,1.6-2,3.6-3.7,4.8   c-2.1,1.5-4.4,2.8-6.8,3.6c-0.8,0.3-1.7,0.6-2.5,0.5c-1.4-0.2-2.8,0.2-4.1,0.4c-0.8,0.2-1.7,0.2-2.6,0.2c-0.5,0-1-0.1-1.1-0.7   c1.2-1.6,4.5-2.2,6.9-1.4c0.6-0.3,1.1-0.6,1.7-1.5c-2.4-0.3-4.4-0.6-6.5-1.1s-4.2-0.7-6-2.5c1.5-1,2.9-0.9,4.2-0.8   c4.2,0.5,8.4,1.1,12.5,2.1c0.4-0.2,0.9-0.5,1.4-0.8c2.1-1.2,3.7-2.7,4.8-4.9c2.2-4.5,5.1-8.6,8.4-12.4c0.9-1,1.8-2.2,2.8-3.6   c-3,0.3-5.6,1.1-8,2.4c-0.4,0.2-0.5,0.6-0.7,0.9c-1,1.3-2.3,2.3-3.5,3.4c-0.4,0.4-1.1,0.8-1.7,0.8c-1.7-0.2-3.4-0.1-5-1   c-3.3-1.7-6.5-1.9-9.6,0.6c-0.2,0.2-0.4,0.3-0.6,0.3c-1.6,0.3-2.5,1.5-3.6,2.5c-2.1,2.1-3.8,4.5-5.4,7c-0.9,1.4-1.6,2.9-1.9,4.7   c4.2-1.2,4.4-1.2,5.6,0.1c0,0.3-0.3,0.4-0.5,0.4c-2,0.3-3.7,1.2-5.4,2.3c-2.8,1.7-5.5,3.6-8.2,5.5c-3.1,2.2-6.6,3.9-10.5,4.1   c-3.1,0.2-6,0.9-8.4,2.9c-0.5,0.1-0.8,0.5-1.1,0.8c-1,1.3-1.9,2.7-3.1,4c-0.8,0.8-0.8,1.9-0.2,3.2c0-1.7,0.7-2.7,1.9-3.2   c0.5-0.2,0.7-0.6,0.8-1c0.3-1.4,1.3-2.3,2.1-3.2c1-0.4,2-0.9,3-1.2c1.6-0.5,3.1-0.2,4.6,1.3c-2.8,1-6,0.7-7.6,3.6   c0.9,0.8,1.4,0.2,1.9-0.2c1.8-1.2,3.8-1.8,6-1.6c1.5,0.1,1.9,0.4,2.4,2.1c-1,0.5-2,0.5-3.1,0.6c-1.4,0.2-3,0.2-4.1,1.4   c-0.7,0.2-1,0.7-1.1,1.4c0.2,0.4,0.5,0.8,0.7,1.2c1.2,2.3,3.2,3.1,5.6,3.2c1,0,2,0,3.1,0c0.6,0,1,0.3,1.3,1.1   c0.1,0.3-0.8,0.7-0.2,1.3C28.1,465.1,28.9,465.3,29.5,464.7z M457.1,249.5c0.1,0.5-0.4,1.2,0.4,1.5c0.5,1.1,0.5,2.4,0.8,3.7   c1.8-0.2,3.5-0.5,5.1-1.1c4.4-1.8,9-3,13.6-4.2c1.1-0.3,2.3-0.5,3.5-0.2c-0.5,1-1.4,1.3-2.2,1.6c-3.3,1.5-6.5,3-9.9,4.3   c-3.1,1.3-6.2,2.9-9.8,2.2c-0.3,6.7,0,18.7,0.5,20.3c1,0.5,2.2,0.6,3.1,1.5c-1.1,0.2-2.1,0-3.1-0.2c-0.1,0.3-0.2,0.6-0.2,0.8   c0,5.9-0.1,11.7-0.2,17.6c-0.1,10.2-0.5,20.3-1.2,30.5c0,0.9,0,1.7-0.1,2.6c-0.7,4.2-0.7,8.6-1.2,12.8c-0.3,3-0.2,6.1-0.6,9.1   c-0.4,2.7-0.4,5.5-0.6,8.2c-0.3,3.8-0.9,7.6-0.7,11.5c-0.3,1.3-0.4,2.6-0.5,3.9c-0.2,4.1-0.7,8.3-1.1,12.4   c-0.6,5.6-1.2,11.2-2.1,16.7c-1,5.6-1.8,11.2-2.7,16.9c-0.5,3.2-1,6.5-1.6,10c1-1.6,1.5-3.1,3.1-3.6c0.1-0.6,0.1-1,0.2-1.5   c0.3-1.6,0.9-3.1-0.1-4.7c-0.2-0.4-0.1-1.1,0.1-1.6c0.6-1.6,1.1-3.3,1.9-4.8c2.8-5.5,6.6-10.2,11-14.5c4.2-4,9-7.3,13.9-10.2   c4.2-2.5,8.9-4.1,12.8-7.1c0.2-0.2,0.5-0.3,0.8-0.5c4-2.2,8.4-3.3,12.9-3.8c2.6-0.2,5.4-0.4,8,0c5.5,1,10.5,3.2,15.2,6.1   c6.6,4.1,12,9.5,16.5,15.8c1.9,2.6,4,5.3,3.8,8.7c2.1,3,4.1,5.9,6.4,8.6c0.9,1,1.6,2.1,2,3.4c0.2,0.5,0.1,1.1,0.8,1.3   c1.4-2.7,3.1-5.2,3.5-8.3c0.3-2.7,0.6-5.4,0.9-8.2c0.4-4.8,1.3-9.4,2.7-14c0.2-0.5,0.4-1.1,0.2-1.6c-0.5-1.2,0-2.3,0.2-3.4   c0.1-0.7,0.2-1.4,0.3-2.1c0.2-1.9,0.3-3.7,0.6-5.6c0.6-4.6,1.2-9.1,1.7-13.7c0.5-4.2,0.8-8.4,1.1-12.6c0.4-5.5,1.1-10.9,1.2-16.4   c0.2-14.4,0.6-28.8,1.1-43.2c0.1-1.9,0-3.8,0.1-5.6c0.1-2.9,0.4-5.8-1-8.5c-0.1-0.2-0.1-0.5-0.1-0.7c-0.6-3.4-0.9-6.8-1.5-10.2   c-1.2-6.7-2.3-13.5-3.6-20.2c-1.7-8.7-3.5-17.4-5.8-25.9c-2.1-7.8-4.9-15.4-8.3-22.7c-3.2-6.8-7-13.2-11-19.5   c-8.7-13.6-18.1-26.7-26.8-40.3c-0.5-0.7-0.9-1.4-1-2.3c-0.1-1.5-0.8-2.5-2.4-2.5c-0.7,0.3-1.5,0.5-2.1,1c-1.9,1.6-3.2,3.7-4.2,6   c-2.5,6-4.2,12.3-6,18.6c-0.2,0.5-0.3,1.1-0.1,1.6c0.7,1.8,0.1,3.4-0.4,5c-0.9,3.4-2,6.9-3,10.3c-2.8,9.4-5.7,18.7-9.5,27.7   c-1.3,3.1-2.8,6.1-4.2,9.1c-1.6,2.4-2.9,4.9-4.5,7.3c-2.2,3.2-4.9,5.9-8.2,7.9c-0.9,0.6-1.9,1.1-2.8,1.7c-1,0.7-1.7,1.6-2,2.6   c0.1,0.8,1,1,0.9,1.7c-0.3,0.9-0.8,1.7-1.7,1.7c-1.2-0.2-0.9-1.3-1.6-1.9c-0.6,0.8-0.6,1.6-0.5,2.4c0.5,2.4,0,4.8-0.5,7.1   c-0.9,0.9-0.2,1.9-0.4,2.9C457.1,249,457.1,249.3,457.1,249.5z M186.1,398.4c-0.4-0.8-1.4-0.6-2-1c-1.4-0.6-2.9-1.1-4.3-1.7   c-2.2-1-3.9-2.5-4.8-4.9c-0.2-0.6-0.6-1.1-1-1.5c-2.7-2.6-5.4-5.2-8.4-7.4c-3.1-2.3-6.2-4.5-9.7-6.1c-2.3-1-4.5-0.6-6.5,0.6   c-2.9,1.8-5.5,3.9-7.8,6.4c-0.5,0.5-0.9,1.1-1.5,1.5c-2.6,1.6-4.4,4-6.2,6.3c-1.6,2.1-3.2,4.2-4.2,6.7c-0.5,1.3-1.1,2.3-2.1,3.3   c-2.7,2.7-5.9,4.8-8.6,7.6c-0.8,0.8-1.9,1.3-3,1.8c-0.5,0.3-1,0.3-1.4,0.9c1.3,1.5,2.5,3.2,3.4,5c0.9,1.9,2.1,3.5,4.2,4.5   c2.3,1.1,4.1,3.1,6,4.8c1.5,2.4,3.9,3.6,6.4,4.6c1.6,0.6,3.4,0.9,5.2,0.6c3.9-0.6,7.7-1,11.6-1.5c3.6-0.4,7.2-0.6,10.7-1.1   c5-0.7,9.9-1.3,14.9-1.7c6-0.5,12-0.7,18-1.1c2.6-0.2,5.1-0.4,7.5-1.3c0.2,0,0.5,0,0.7,0c7.4-1.6,14.9-3.2,22.3-4.5   c5.1-0.9,10.3-1.7,15.4-2.6c2.4-0.4,4.9-0.7,7.3-1.4c5.8-1.6,11.6-2.7,17.6-3.4c1.8-0.2,3.7-0.1,5.5-0.7c-0.5-4.1-0.3-8.2,0.3-12.2   c0.6-4,2.1-7.9,3.5-12c-4.7,1.3-9.2,2-13.6,2.8c-3.6,0.6-7.2,1-10.8,1.6c-4.1,0.7-8.2,1.5-12.4,2.2c-4.6,0.8-9.2,1.5-13.9,2.1   c-4.2,0.6-8.4,1-12.6,1.2c-2.3,0.1-4.7,0.4-7,0.7c-3.5,0.4-7,1-10.5,1.3C191.7,399.1,188.9,398.6,186.1,398.4z M745.3,449.2   c1.8,0.8,3.9,1,5.8,1.6c5.8,1.7,11.7,2.8,17.6,3.5c5.7,0.6,11.5,1.2,17.2,2.1c9.4,1.4,18.8,3.1,28.1,4.8c3.1,0.6,6.3,1.1,9.5,0.3   c1.5-0.3,3-0.3,4.4-0.7c2.1-0.5,4.3-0.5,6.4-1.5c0.1-1.7,0.2-3.3,0.2-4.9c-2.6-1.2-3.3-1.7-5-3.9c0-0.9-1.2-1.8,0-3   c2,1.1,2.5,3.9,5.1,4.5c0.3-1.3,1.1-2.4,1.8-3.4c-1.5-1-2.6-2.2-3.6-3.5c-0.5-0.7-0.9-1.6,0.5-2.1c1.8,0.6,2.6,2.8,4.6,3.5   c1.6-2.6,3.1-5.1,5.3-7.2c-0.8-0.3-1.3-0.6-1.9-0.8c-0.8-0.3-1.4-0.9-2-1.6c-0.5-0.6-0.8-1.2-0.2-1.9c0.5-0.6,1.1-0.5,1.7-0.2   c0.5,0.3,0.9,0.6,1.4,0.9c0.8,0.6,1.6,1.2,2.3,1.7c3.8-3.4,4.6-8,6.1-12.3c-3.6-2.1-3.2-5.8-3.9-9.1c-0.9-0.7-1.4-1.8-2.6-2.4   c-0.9,0.1-1.7,0.5-2.1,1.3c-1.1,2.6-2.1,5.2-2.9,7.9c-0.1,0.5-0.1,1.1-0.1,1.6c0.1,1.2,0.1,2.3,0.5,3.5c0.4,1.4,0.2,2.8,0.1,4.2   c-0.1,0.7-0.4,1.3-1.3,1.4c-1.8-1.3-1-3.7-2.1-5.4c-2.6,2.9-5,5.8-6.5,9.4c-0.2,0.5-0.7,0.8-1.1,1.2c-0.8,0.6-1.6,1.3-2.4,2   c-0.3-0.5-0.6-1.1-0.6-1.6c0-1.8,1.9-2.3,2.6-3.7c-0.7-0.4-1.3-0.3-1.9-0.2c-4.5,0.3-8.9,0.6-13.4,0.9c-6.3,0.4-12.5-0.4-18.8-0.5   c-0.4,0-0.8-0.1-1.2-0.2c-3.7-0.6-7.4-1.1-11.1-1.7c-3.8-0.6-7.6-1.1-11.4-1.5c-4.2-0.5-8.3-1.2-12.5-1.7c-4.4-0.5-8.8-1.1-13.2-2   c-3.7-0.8-7.4-1.7-10.4-4.4c-0.3-0.3-0.8-0.5-1.3-0.6c-5.9-1.4-11.8-2.9-17.9-3c-6.3-0.1-12.5-0.1-18.8,0   c-3.7,0.1-7.2-0.1-10.7-1.6c-4-1.7-8.3-2.9-12.4-4.7c-0.5-0.2-1-0.4-1.6-0.3c-1.8,0.3-3.6-0.3-5.3-0.7c-7.4-1.5-14.9-2.9-22.5-2.7   c-0.5,0-1.1,0-1.6,0c-6-0.4-12-0.7-18-1.3c-4.3-0.4-8.5-0.8-12.8-1c-4.6-0.2-9.1-1.1-13.7-1.9c-6.9-1.2-13.8-1.9-20.8-1.7   c-4.4,0.1-8.7,0.1-13-0.7c-0.6,0.9-0.4,1.9-0.6,2.8c-0.8,3.2-0.3,6.6-1.3,9.9c-0.8,2.7-1.7,5.3-2.9,7.8c-0.7,1.4-1.2,2.8-1.3,4.6   c1.7,0.2,3.3,0.4,5,0.4c2.6,0.1,5.2,0.1,7.8,0.2c3.8,0.2,7.6,0.5,11.5,0.8c4,0.3,7.9,0.7,11.9,1.1c3.8,0.4,7.6,0.9,11.4,1.2   c3.8,0.3,7.7,0.3,11.5,0.6c6.3,0.4,12.6,1.1,19,1.2c9.7,0.3,19.3,1.7,28.8,3.7c4,0.8,8,2.1,12.3,1.3c0.5-0.1,1.1,0,1.6,0.2   c1.3,0.3,2.6,0.6,3.9,0.9c4.6,1.1,9,2.6,13.7,2.8c1.7,0.1,3.5,0.1,5.2,0.3c6.3,0.8,12.7,1.5,19.1,1.7c5.5,0.2,10.9,1.3,16.3,2.2   C739.9,448,742.6,448.6,745.3,449.2z M448.5,473.6c-2.9-10.1-3.9-20.4-4.4-30.9c-1.5,7-4.7,13.5-6.9,20.2   C441,466.7,444.1,470.7,448.5,473.6z M891.2,451.9c-0.9-2.6-0.5-5.4-2.4-7.6c-1.3,0.5-2.5,0.7-3.7,0.1c-0.5-0.2-1.1-0.2-1.6,0   c-2.3,0.8-4.3,4.2-4,6.8c1.5,0.4,2.9,1.1,4.1,2.1c0.5,0.4,1.1,0.7,1.7,0.5C887.2,453.2,889.1,452.6,891.2,451.9z M14.2,457.1   c-1.7,0.9-1.8,1.1-1.6,2.3c0.2,0.9,0.4,1.8,0.7,2.7c0.7,2,1.1,2.2,3.5,1.7C14.8,462,14.6,459.6,14.2,457.1z" />
	<path fill="#F4D7C6" d="M888.8,470.2c-2.1,1.1-4.4,0.7-6.6,0.6c-2.5-3.3-2.1-6.1,1.4-8.9c0.9,0,1.9,0,3,0c1.4,0.8,2.8,1.7,3.3,3.1   c0.6,0.3,0.9,0,1.3,0c0.1,0.7-0.8,0.5-0.9,1c-1.8,0.9-0.4,2.4-0.6,3.7C889.4,469.8,889.1,470,888.8,470.2z" />
	<path fill="#433E3B" d="M888.8,470.2c0.3-0.2,0.6-0.4,0.9-0.6c0.3-1.2-1.1-2.7,0.6-3.7c1,0.4,1.4,1.1,1.5,2.1   c0.2,1.5-0.1,2-1.7,2.7c-0.3,0.1-0.4,0.5-0.8,0.4C889.4,470.8,889.4,470.3,888.8,470.2z" />
	<path fill="#F59878" d="M441.1,222.4c-2.2-3.1-4.4-6.3-6.6-9.4c-0.7-1-1.5-2-2.3-2.9c-0.5-0.6-1.2-1.2-2-1.4   c-0.5,0.7,0.1,1.1,0.4,1.5c3.8,5.7,7.8,11.3,11.5,17.1c3.6,5.5,7.3,10.9,11,16.3c0.6,1,1,1.9,0.9,3c-0.2,1.5,0.1,3,0.6,4.4   c0.3,0.8,0.4,1.6,0.4,2.5c0,4.6,0.1,9.3-0.2,13.9c-0.3,5.5-0.2,11.1-0.4,16.7c-0.3,8.2-0.6,16.4-1,24.6c-0.2,5.1-0.5,10.1-0.9,15.2   s-0.8,10.3-1.3,15.4c-0.2,2.1-0.3,4.2-0.4,6.3c-0.2,4.1-0.6,8.3-0.7,12.4c-0.2,5.2-0.2,10.5-0.5,15.7c-0.2,5.6-0.5,11.2-0.9,16.8   c-0.2,3.7-0.6,7.3-1,11c0,0.4-0.1,0.8-0.3,1.1c-1.5,2.4-1.2,5.1-1.6,7.7c-0.3,2.3-0.5,4.6-1,6.9c-0.8,3.9-1.4,7.8-2.2,11.7   c-1.6,7.7-3.2,15.3-6,22.8c-0.8,0.1-1.5,0.4-1.7,1.6c-0.4,2-0.4,4.1-1.3,6.1c-0.8,1.8-1.6,3.7-1.9,6c0.1,0.7,0.5,1.5,0.9,2.5   c-2.2,6.7-5.8,12.4-12.2,16c-1.3,0.2-2.5-0.5-3.9-0.5c-8.7,0.1-17.4,0-26.1,0.1c-2,0-3.9,0.5-5.9,0.7c-2.3,0.2-4.5,1.1-6.8,1.1   c-1,0-1.9,0.4-2.8,1c-1.3,0.8-2.3,2-3.9,2.3c-9.2-6.1-16.6-14.1-23.3-22.9c1.1-1.7,0.5-3.2,0-4.8c-1.4-4.7-3.3-9.2-5-13.7   c-3.2-8.3-5.7-16.8-7.9-25.4c-0.2-0.8-0.7-1.6-0.5-2.5c2.2-0.4,7.4,1.1,10.3,3c0.3-0.2,0.6-0.3,1-0.5c0.5,1.4,1,2.7,2.5,3.4   c0.5,0.2,0.8,1,0.8,1.6c-0.1,1.4,0.8,2.5,0.9,3.7c-0.6,0.8-1.9,0.9-2.3,2.1c-0.2,1.2,0.4,2.4,0.9,3.6c2,4.5,4.2,8.9,6.4,13.3   c0.7,1.4,1.6,2.7,2.8,3.6c1.2,0.4,1.9-0.2,2.5-1.2c0-0.7,0-1.4-0.3-2.2c-0.9-2.7-2.5-5.1-3.6-7.7c-0.8-1.8-1.6-3.4-2.1-5.3   c1,0,2,0,3.1,0c1,2.4,1.9,4.7,2.6,7.1c0.2,0.8,0.5,1.6,0.8,2.4c0.3,0.7,0.8,1.1,1.7,0.8c0.6-0.8,0.3-1.6,0-2.4   c-0.9-2.4-1.8-4.8-2.7-7.2c-0.2-0.4-0.5-0.8-0.2-1.3c1.2-0.1,1.2-0.1,1.7,0.8c1.8,3.1,3.8,6,6.1,8.8c2.1,2.5,4.7,4.6,6.5,7.3   c0.2,0.3,0.5,0.6,0.8,0.8c0.6,0.5,1.3,0.5,1.9,0.1s0.6-1,0.6-1.7c0-0.6-0.4-1-0.7-1.5c-0.5-0.9-1.5-1.6-1.8-2.7   c0-1.6,0.3-3.3,0-4.9c-0.7-3.4-1.9-6.7-3.2-9.9c-0.4-1.1-0.9-2.1-0.9-3.3c0.2-1,1.2-0.7,1.8-1.1c-0.6-0.8-0.3-1.4,0.1-2   c1-1.3,1.7-2.8,2.9-3.9c0.7,0.2,0.9,0.9,1.1,1.4c2.2,4.7,4.5,9.4,6.6,14.2c1,2.3,2.1,4.6,3.1,6.9c1,2.4,2,5,4.6,6.5   c0.9-1.3,0.6-2.7,0.3-4c-0.3-1.2-0.8-2.3-1.2-3.4c-1.8-4.3-3.5-8.7-5.3-13c-1.5-3.5-3.2-7-4.8-10.5c-0.3-0.5-0.2-1.1-0.2-1.6   c1,0.5,1.6,1.7,3.1,1.5c0.6-2.4-2.1-3-2.5-4.9c0.1-0.7,0.9-1.7-0.3-2.4c-0.6,0.1-1,0.7-1.6,0.6c-0.8-1-1.7-2-2.5-3.1   c-0.8-0.6-1.5-1.3-1.8-2.2c-0.3-0.8-0.9-1.4-1.5-1.7c-1.2-0.6-1.9-1.8-3.1-2.2c-0.7-2.5-1.4-4.9-2.2-7.3c-0.9-2.8-2-5.5-1.8-8.5   c0-0.4-0.2-0.8-0.2-1.1c-0.3-1.9-0.6-3.8,0.1-5.6c2.4,3.5,4.6,7.1,7.2,10.4c3.7,4.8,7.5,9.6,12.2,13.6c0.3,0.6,0.8,0.6,1.3,0.3   c-0.3-0.4-0.2-1.1-0.9-1.1c-0.6-0.5-1-1.2-1.3-1.9c0.5-0.9,2-0.5,2.3-1.8c0.1-0.7,0.2-1.4-0.2-2.2c-1-1.9-1.8-3.9-2.7-5.9   c-0.6-1.3-1.4-2.6-2-3.9c-2.2-5.2-4.8-10.3-6.9-15.6c-1.4-3.6-2.9-7.1-4.2-10.7c-1.8-5-3.4-9.9-5.1-14.9c-1.3-3.9-2.6-7.8-3.7-11.8   c-1.2-4.4-1.4-8.9-1.9-13.4c-0.4-3.1-0.8-6.1-1.1-9.2c-0.1-1.2-0.1-2.5-0.5-3.6c-0.6-1.9-0.4-3.8-0.8-5.7c-0.3-1.5-0.5-3-0.6-4.6   c-0.2-2.1-0.8-4.2-0.8-6.4c0-0.5-0.1-0.9-0.1-1.4c-0.3-1.8-0.8-3.6-0.7-5.4c0.1-3.9-0.3-7.8,0.3-11.7c0.5-3.2,0.4-6.5,0.5-9.7   c0.2-15.9,0.1-31.8,0.1-47.7c0-2.6,0.8-5.1,0.5-7.6c0-0.1,0-0.2,0-0.2c1-2.4,0.3-4.9,0.8-7.3c0.4-2,0.6-4.1,0.7-6.2   c0.1-1.3,0.1-2.6,0.4-3.9c0.7-2.9,0.8-5.9,1.4-8.8c0.4-2.3,1-4.6,1.3-7c0.2-2.1,0.8-4,1.1-6.1c0.2-2.2,0.8-4.4,1.1-6.6   c0.7-4.4,1.7-8.8,2.7-13.2c0.5-2,0.9-4,1.9-5.9c2.3-4.3,4.7-8.5,7.1-12.7c1.2-2.1,2.4-4.3,4.7-5.6c1-0.5,1.8-1.5,2.2-2.7   c0.6-1.5,1.4-3,2.4-4.2c1-1.1,1.7-2.4,2.2-3.8c0.6-1.7,1.4-3.4,2-5.1c4-3,8.3-5.3,12.9-7.4c0.8-0.3,1.6-0.6,2.5-1   c0.9,1.1,1.9,1.2,3.3,0.6c2.2-0.9,4.5-1.2,6.9-1.1c4.5,0,8.9,0,13.4,0c4.8,0.1,9.4,1,14,2.2c17.9,4.7,34.8,11.9,50.8,21.1   c3.6,2.1,7.2,4.2,10.8,6.4c0.4,0.3,1,0.4,1.3,1c-3.2,3.5-4.9,7.7-6.6,11.9c-2.6,6.6-4.4,13.6-5.7,20.6c-1.3,7-3.7,13.7-6.1,20.5   c-3.2,9.4-6.7,18.6-11.3,27.4c-0.3,0.6-0.7,1.2-1.1,1.8c-0.5-0.8-0.7-1.8-0.8-2.8c-0.6-4.2-2.7-7.4-6.1-9.8c0-1.6,0-3.2,0-4.9   c0-0.4,0-0.8-0.5-0.9l0,0c-0.1-0.6,0.5-1.5-0.5-1.9c-0.6-0.5-0.6-1.5-1.7-1.7c-0.6,0.7-0.2,1.6,0,2.3c0.3,1.1,0.5,2.3,0.4,3.5   c-0.1,0.4,0.1,1-0.3,1.4c-1.4-2.5-3.1-4.6-5.9-5.5c-0.5-1.9-0.9-3.7-1.4-5.6c-0.4-1.4-1.1-2.8-1.9-4c-0.5-0.6-1-1.2-1.8-1.5   c-1.1-0.5-1.5-0.3-1.9,1.3c0.3,0.5,0.6-0.1,1,0c0.4,0.2,0.6,0.4,0.8,0.8c1.2,2.2,2.4,4.4,2.5,7c-0.1,0.4,0,0.8-0.4,1   c-1.1,0.1-1.9-0.6-2.7-1.1c-2.1-1.2-4.3-1-6.5-0.5c-3.6,0.9-5.7,3.4-6.9,6.7c-0.5,0.2-0.5,0.5-0.5,0.9c0,1.4,0.1,2.8,0,4.2   c-0.2,3.1,0.6,5.8,1.7,8.7c0.8,2.1,1.5,4.3,2.3,6.4c0.3,0.7-0.2,1-0.3,1.5C441.5,221.8,441.6,222.2,441.1,222.4z M399.2,262.4   c0.7-0.3,0.4-0.9,0.4-1.5c0.9-3.8,2.2-7.5,3.4-11.2c2.4-7.3,4.9-14.6,8.1-21.6c1.3-3,2.9-5.8,4.5-8.7c0.4-0.7,1-1.3,0.2-2.1   c-0.7-0.1-0.9,0.5-1.2,0.9c-3.9,6.1-6.8,12.8-9.4,19.6c-2.8,7.4-5,14.9-6.6,22.6c-0.1,0.1-0.3,0.2-0.3,0.3c-0.4,2.5-1,4.9-1.4,7.4   c-0.3,1.4-1.1,2.9-0.3,4.5c1-2.5,1.4-5.1,2.1-7.6C399,264.2,399.4,263.3,399.2,262.4L399.2,262.4z M386.9,382.8   c0.3-1.8,0.7-3.5,1-5.3c1.1-7,1.5-14.1,1.8-21.2c0.3-5.9,0.1-11.9,0.4-17.8c0.3-5.1,0.2-10.2,0.7-15.2c0.5-4.7,1-9.5,1-14.3   c0-0.2,0-0.5,0.1-0.7c0.4-1.4,0.1-2.8-0.2-4.2c0-0.1-0.2-0.2-0.3-0.3c-0.5-0.1-0.8,0-1.2,0.5c0.1,5.2-0.5,10.5-0.8,15.9   c-0.4,6.6-0.6,13.3-0.9,19.9c-0.3,6.2-0.1,12.4-0.5,18.5c-0.4,6.8-0.8,13.6-1.5,20.3c-0.1,0.2-0.4,0.3-0.4,0.5   c0,1.6-0.2,3.2-0.5,4.8c-0.2,1-0.2,2,0.1,3.2C386.6,386.1,386.9,384.6,386.9,382.8z M453.9,275c-3-2.6-6.6-4.2-9.9-6.4   c-3.3-2.2-6.5-4.5-9.7-7c-3.1-2.4-5.7-5.5-9-7.9c-0.3,1.6-0.3,1.6,0.7,2.6c5.6,6.3,12.2,11.5,19.4,15.8c2.1,1.3,4.3,2.5,6.6,3.4   C452.8,275.9,453.3,276,453.9,275z M385.4,470c0.2-0.3,0.1-0.6-0.2-0.8c-5.6-5.2-11-10.6-15.7-16.6c-0.1-0.1-0.4-0.1-0.6-0.2   c-0.1,1.8,0.7,3.2,4.4,7.6C378.1,465.8,382.9,469.7,385.4,470z M478.2,194.4c-0.5-0.9-1.3-1.2-2.1-1.5c-2.5-1.2-5.1-2.2-7.8-3.1   c-2.1-0.7-4.2-1.2-6.3-1.6c-0.8-0.2-1.7-0.2-2.1,0.8c0.3,0.8,0.9,0.8,1.5,1c4.1,0.9,8.1,2.1,12,3.7c1.1,0.5,2.1,0.9,3.2,1.3   C477.2,195.2,477.8,195.1,478.2,194.4z M426.1,207.3c0.7-0.3,1-0.9,1.4-1.5c2.1-3,4.4-5.8,7.1-8.3c1.9-1.8,3.9-3.3,6-4.8   c0.4-0.3,0.9-0.6,0.7-1.3C435.7,193.4,426.4,203,426.1,207.3z M379.3,441.6c-0.3,3,5.2,10.6,8.4,11.1c-2.8-3.8-5.6-7.3-7.8-11.2   C379.9,441.5,379.5,441.6,379.3,441.6z M435.5,273.7c-1.8-1.4-3.9-1.9-5.9-2.5c-0.4-0.1-0.9-0.1-1.2,0.7c1,1.8,3,2,4.8,2.5   C434.1,274.7,434.9,274.7,435.5,273.7z M450,255.8c0.5-0.5,0.6-0.9,0.4-1c-2.2-2-4.7-3.5-7.3-5c-0.3,0.5-0.3,0.8,0,1   C445.3,252.6,447.5,254.5,450,255.8z" />
	<path fill="#F6DAC8" d="M844.2,442.4c0.2-1.3,1-2.4,1.9-3.4c2.4-2.5,4.2-5.3,5.4-8.7c0.8-2.2,1.9-4.2,2.7-6.5   c0-0.2,0.1-0.3,0.2-0.4c1.8-1.7,2.5-4.1,3.3-6.5c2.2,0.9,3.4,2.8,5,4.2c-0.1,2.3-0.7,4.4-2.3,6c-0.7,0.7-1.2,1.4-1.8,2.1   c-0.8,0.9-1,1.9-0.3,3c-1.5,1.2-1.7,3.1-1.1,4.6c0.9,2.3,1.4,5.1,4.6,5.7c0.8,0.9,1.9,0.2,3,0.6c4.6,3.2,10,1.9,13.4-3.5   c0-1,0-1.9,0-2.8c-0.4-0.9-1.5-1.2-1.4-2.4c0.5-1.1,1-2.2,1.4-3.2c0.7-0.7,1.5-0.8,2.3-1c0.6,0.1,0.4,1,1.1,0.9   c1.6,0.7,2.7,1.9,3.7,3.3c0.3,2.6-1.2,4.9-1.9,7.2c-2.8,1.4-5.4,3-6.7,6.1c-0.7,1.7-0.3,2.9,0.9,4.2c1.6,1.8,3.7,2.6,5.7,3.5   c1.1,0.5,2.5,0.2,3.7-0.1c1.4-0.3,2.9-0.7,4.3-1c0.3,2.5,0.2,2.7-3.2,5.4c-2-0.2-4.1-0.6-5.9,0.5c-1.9,1.2-3.2,3-3.9,5.1   c-1.1,3.2,0.3,6.2,3.9,8.2c1-0.9,2.2-0.4,3.6-0.2c-0.7,1.7-1.5,3.1-3.6,3.5c-1.9,0.3-3.8,0.6-5.8,0.5c-0.5,0-0.9,0-1.3,0.4   c-0.2,1.7-0.1,1.8,2.5,2.6c-1.6,1.9-2.9,4-5,5.4c-0.6,0-1.3,0-2.1,0c-0.3-3,2.7-3.8,4.2-5.7c-1.1-0.7-1.9-0.6-2.8,0   c-1.3,0.8-2.6,1.7-3.9,2.5c-0.9,0.2-1.6,0.8-2.5,1c-3.8,1.1-7.3,2.6-10.7,4.7c-1.7,1-3.5,2.3-5.4,2.6c-2.6,0.4-5.3,0.4-8,0   c-2.9-0.4-5.7-1.5-8.6-2.1c-4.4-1-8.8-2.1-13.4-2c-1.3,0-2.5,0-3.8,0c-5.5,0-11.1-0.2-16.6,0.5c-1.7,0.2-3.4,0.3-5,0.5   c-2.8,0.3-5.5,0.9-8.2,0.9c-0.4,0-0.8-0.1-1.2,0c-2.8,0.8-5.7,0.5-8.5,0.8c-3.3,0.4-6.6,0-10,0.4c-3.9,0.5-7.9,0.3-11.9,0.5   c-5.5,0.3-11,0.1-16.6-0.3c-2.6-0.2-5.2-0.9-7.9-0.5c-0.2,0-0.3,0-0.5-0.1c-2-0.8-4.1-0.5-6.2-0.8c-1.6-0.3-3.4-0.4-5-0.7   c-2.5-0.4-5-0.8-7.4-1.2c-2.9-0.5-5.8-1.3-8.8-1.6c-0.1,0-0.2-0.2-0.2-0.4l0,0c0.5-0.1,1.2,0.4,1.4-0.5c0.1-0.4,0.5-0.6,0.3-1.2   c-0.3-0.5-0.7-0.8-1.4-0.7c-0.7,0-1.4,0.1-2.1,0.1c-1.3-0.2-2.3-0.1-2.8,1.5c-1.7-1.1-3.6-0.9-5.2-1.8c2.7-1,5.9-0.2,7.8-2.8   c0-0.7,0.2-1.3-0.1-1.9c-0.8-1-1.6-1.9-2.8-2.1c-3.4-0.5-6.8-1.2-10.2-1.4c-4.6-0.2-9.1-0.5-13.6-0.9c-4.3-0.4-8.7-0.8-13.1-0.5   c-0.9,0.1-2,0.2-2.8,0c-4-1.3-8.2-0.7-12.3-0.9c-0.4,0-0.8,0-1.2,0c-2.3,0.4-4.6,0.9-7,1.4c-2.7,0.5-5.4,1.2-8.1,1.7   c-2.5,0.5-5,1.1-7.5,1.1c-10.3,0.2-20.6,0-30.9,0.5c-5.2,0.3-10.4,0.2-15.5,0.9c-2.9,0.4-5.9,0.8-8.9,1.1c-1.5,0.1-3,0.1-4.3,0.5   c-2,0.6-4-0.1-5.9,0.8c-5.2-0.3-10.4,0.3-15.7-0.4c-3.3-0.5-6.6-0.1-10-0.5c-3.6-0.4-7.3,0.1-10.9-0.4c-2.9-0.4-5.8-0.7-8.7-1.1   c-4.2-0.6-8.4-1.6-12.6-2.3c-4.9-0.8-9.7-2.2-14.5-3.4c-2.7-0.6-5.4-1.7-8.3-1.9c-1.1,0-2.3-0.2-3.3-0.9c-2.2-1.6-4.7-2.5-7.3-3.3   c-0.9-0.3-1.4-0.8-1.7-1.7c-0.2-1-0.6-1.9-0.9-2.8c-0.6-1.5-1.1-3.1-2.4-4.2c-1.1-1-1.6-2.2-1.9-3.6c-0.2-1.2-0.6-2.4-1.6-3.2   c-0.5-0.4-0.6-1-0.8-1.6c-0.2-1.2-0.5-2.5-1.8-3.1c-0.6,0.2-1.3-0.3-2.1,0.5c-0.2,0.6-0.6,1.5-0.6,2.4c0,2.2-0.9,4.3-0.5,6.5   c0,0.1-0.3,0.3-0.4,0.5c-0.9-5.6-1.4-11.2-0.5-16.8c0-0.2,0-0.3,0.1-0.5c2.1-4.8,2.4-10.1,4.4-14.9c0.6-1.3,1.2-2.8,0-4.1   c6.6-12.5,16.9-20.9,28.7-28.3c0.1,1.1-0.4,2.2,0.6,2.9c0.4,0.2,0.8,0.1,1.1,0c3.1-6.4,9.1-8.5,15.3-9.7c10-1.9,18.8,1.4,26.9,7.1   c6.5,4.6,11.7,10.5,17,16.5c-0.3,1.2,0.2,2.2,0.7,3.3c1.8,3.7,4.3,7.1,6.4,10.6c1,1.6,1.4,3.3,1.2,5.1c-0.9,0.4-1.6,0-2.3-0.4   c-0.2-0.3-0.4-0.5-0.4-0.8c-0.1-3.1-1.6-5.4-3.8-7.4c-0.5-0.4-0.8-0.9-1.3-1.3c-2.5-2-4.9-4.1-8.3-4.7c-3.1-0.5-6.2-1.4-9.3-2.3   c-3-0.8-5.8-0.6-8.5,1c-0.9-0.3-1.9-0.7-2.9-0.5c-1.7,0.2-3.4,0.3-5,0.8c-0.8,0.2-1.3,0-1.9-0.3c-1.1-1-2.1-2.1-3.3-3   c-0.6-0.5-1.3-1.2-2.3-0.6c-0.3,0.8,0.2,1.4,0.8,1.8c1,0.9,2,1.7,3,2.6c-0.2,0.6-0.7,1-1.2,1.4c-2.6,2.3-1.9,4.5,0.2,6.4   c0.5,0.5,1.2,0.6,1.9,1c-1.6,0.3-3.1-0.2-4.9,0.4c0.4,0.3,0.6,0.5,0.7,0.6c0.9,0.5,1.8,0.8,2.8,1.1c4.2,1.1,8.4,1.4,12.7,1.3   c3.8,2.9,7.9,4.8,12.6,3.3c2.5,1,4.6,2.4,6.9,3.7c2.8,1.5,5.5,1.4,8-0.5c0.9-0.7,1.8-0.9,2.8-0.9c2.1,0.3,4.1,1,6,1.8   c0.9,0.4,1.7,0.5,2.7,0.6c2,0.2,4,0.6,6,1c2.9,0.6,5.8,0.5,8.6,0.8c4.2,0.4,8.4,0.4,12.7,0.7c4.2,0.3,8.4,0.7,12.6,1.1   c3.3,0.3,6.5,0.6,9.8,1.1c4.5,0.6,9,0.8,13.5,1.3c3.4,0.4,6.9,0.5,10.3,0.6c6.6,0.3,13.1,0.5,19.7,1c5.4,0.4,10.8,1.3,16.3,2   c2.3,0.3,4.5,0.6,6.7,1c1,0.2,1.8-0.2,2.7-0.8c4.5,2.3,9.4,3.2,14.3,4.2c3.1,0.7,6.3,1.2,9.5,1.6c1.6,0.2,3.1,0.4,4.7,0.2   c1.2-0.2,2.5,0,3.7,0.2c3.6,0.5,7.3,0.8,11,0.8c5.3,0,10.6,0.9,15.8,2.1c1.2,0.3,2.4,0.5,3.7,0.8c1,0.3,2,0.3,2.7,1.2   c0.3,0.4,1,0.5,1.5,0.6c9.3,2.6,18.8,4.6,28.3,6.2c7.6,1.2,15.3,2.2,23,3.3c5.9,0.9,11.8,1.6,17.7,2.1c2.6,0.2,5.2,0.5,7.7,0   c6.2-1.3,12.6-1.6,18.6-3.7c1.4-0.5,3.1-0.7,3.8-2.3c2.1-0.5,3.4-1.9,4.2-3.8c-0.2-0.6-0.5-0.9-1.1-0.9c-1.2,0.8-2.1,2-2.9,3.2   c-0.7,0.1-1.5-0.3-2.1,0.4c-0.4,0-0.8,0.1-1.2,0.1c-0.3-0.1-0.6-0.1-0.9-0.2c-0.3-0.8-0.2-1.5,0.4-2.1c2.1-2.4,3.6-5.2,4.8-8.1   C843.7,446.1,844.4,444.3,844.2,442.4z M874.9,458.6c1.6-0.3,3.1-0.9,3.5-2.6c-0.3-0.7-0.7-0.9-1.2-0.9c-1.8,0-3.3,0.9-4.6,2   c-0.4,0.3-0.3,0.9-0.3,1.3c-2.8-0.1-3.3,0.3-3.8,2.8c0.4,0.8,1.1,1.1,1.9,0.8c1.6-0.4,2.4-1.5,2.6-3   C873.7,458.9,874.4,459.2,874.9,458.6z M488,423.4c-1.8-2.1-4.5-2-6.8-2.4c-1.2-0.2-2.5-0.4-3.4,0.8c0.1,1,0.8,1.2,1.5,1.3   c2.3,0.5,4.6,0.9,6.9,1.4C486.9,424.7,487.5,424.5,488,423.4z M550.3,444.1c-1-1.3-1-1.4-2.2-1.6c-2.5-0.6-5-1.5-7.6-1.3   c-0.6,1.4-0.1,2,1,2.3c1.9,0.5,3.8,0.9,5.7,1.1C548.2,444.6,549.2,444.9,550.3,444.1z M662.7,456.1c0.7,2.1,2.7,1.9,4.4,2   c1.3,0.1,2.9,0.2,3.5-1.7c-1.8-1.4-4-1.4-6-1.6C663.7,454.7,663.1,455.2,662.7,456.1z M866.6,464.9c-2-0.6-2.2-0.5-3.5,1.4   c1,1.3,1.2,1.4,2.4,0.9C866.8,466.6,866.8,466.5,866.6,464.9z M846.3,453.3c1.6,0.2,2.4-0.6,3.1-1.8c-0.8-1.1-1.1-1.2-1.8-1   C846.5,451,846.1,451.8,846.3,453.3z M471.4,425.8c-0.5-1-1.2-0.9-1.9-0.6c-0.8,0.3-1.5,0.8-1.5,1.8   C469.7,427.8,470,427.7,471.4,425.8z M577,450.1c-0.8-1.1-1.9-0.9-2.8-0.8c-0.4,0-0.9,0.3-0.8,1c0.7,0.8,1.6,0.8,2.5,0.8   C576.4,451,576.7,450.7,577,450.1z M675.9,456.9c-0.3-1.3-0.5-1.5-1.1-1.5c-1-0.1-1.8,0.1-2.2,1.1   C673.5,457.6,674.6,457.7,675.9,456.9z M465,429.1c-1.7-1.2-2.4-0.8-2.7,1.1C463.5,430.7,464.3,430.3,465,429.1z M561.3,447.1   c-1.3-1.6-1.7-1.7-3-0.5C559.3,447.3,560.1,448.2,561.3,447.1z M570.1,449.1c-1.6-1.4-1.8-1.4-2.9-0.2   C568.1,449.7,568.9,449.9,570.1,449.1z" />
	<path fill="#FFF1A8" d="M478.2,215.3c1.4-3,2.9-6,4.2-9.1c3.8-9,6.7-18.3,9.5-27.7c1-3.4,2-6.8,3-10.3c0.4-1.6,1.1-3.3,0.4-5   c-0.2-0.5,0-1.1,0.1-1.6c1.7-6.3,3.4-12.6,6-18.6c1-2.4,2.3-4.4,4.2-6c0.6-0.5,1.4-0.7,2.1-1c1.6,0,2.3,1.1,2.4,2.5   c0.1,0.9,0.5,1.6,1,2.3c8.7,13.6,18.1,26.7,26.8,40.3c4,6.3,7.9,12.7,11,19.5c3.4,7.3,6.1,14.9,8.3,22.7c2.3,8.6,4.1,17.2,5.8,25.9   c1.3,6.7,2.4,13.5,3.6,20.2c0.6,3.4,0.9,6.8,1.5,10.2c0,0.2,0,0.5,0.1,0.7c1.3,2.7,1.1,5.6,1,8.5c-0.1,1.9,0,3.8-0.1,5.6   c-0.4,14.4-0.8,28.8-1.1,43.2c-0.1,5.5-0.8,10.9-1.2,16.4c-0.3,4.2-0.6,8.4-1.1,12.6c-0.5,4.6-1.1,9.1-1.7,13.7   c-0.2,1.9-0.4,3.7-0.6,5.6c-0.1,0.7-0.2,1.4-0.3,2.1c-0.2,1.1-0.7,2.2-0.2,3.4c0.2,0.5,0,1.1-0.2,1.6c-1.4,4.6-2.3,9.2-2.7,14   c-0.2,2.7-0.5,5.4-0.9,8.2c-0.4,3.1-2.1,5.7-3.5,8.3c-0.7-0.2-0.6-0.8-0.8-1.3c-0.4-1.3-1.2-2.4-2-3.4c-2.3-2.7-4.2-5.6-6.4-8.6   c0.2-3.4-1.9-6-3.8-8.7c-4.5-6.3-9.9-11.7-16.5-15.8c-4.7-2.9-9.7-5.2-15.2-6.1c-2.6-0.5-5.3-0.3-8,0c-4.5,0.4-8.9,1.6-12.9,3.8   c-0.3,0.2-0.6,0.3-0.8,0.5c-3.9,3-8.6,4.6-12.8,7.1c-5,3-9.8,6.2-13.9,10.2c-4.4,4.3-8.2,9-11,14.5c-0.8,1.5-1.3,3.2-1.9,4.8   c-0.2,0.5-0.3,1.2-0.1,1.6c1,1.6,0.4,3.2,0.1,4.7c-0.1,0.5-0.1,0.9-0.2,1.5c-1.6,0.5-2.2,2-3.1,3.6c0.6-3.6,1.1-6.8,1.6-10   c0.9-5.6,1.7-11.3,2.7-16.9c1-5.5,1.6-11.1,2.1-16.7c0.4-4.1,0.8-8.3,1.1-12.4c0.1-1.3,0.2-2.6,0.5-3.9c1.1,0.6,1.9,1.8,3.4,1.9   c3.6,0.2,7.1-0.2,10.3-2.1c1.8-1,2.6-2.3,2.3-4.3c-0.6-0.6-1.1-1.3-1.8-1.6c-1,0-2,0-3,0.4c-1.2,0.5-2.5,0.8-3.7,1.3   c-0.8,0.3-1.5,0.3-2.2,0c0-0.1-0.1-0.2,0-0.3c0.1-0.2,0.2-0.4,0.3-0.6c1.6-2.7,1.7-5.7,1.5-8.8c0-1.2-0.7-2.1-1.6-2.7   c-0.4-0.3-0.9-0.4-1.1-0.8c-0.2-3.6,1.2-9.1,2.8-10.6c1.7,1.5,3.8,0.9,5.8,1c0.7,0,1.4-0.3,1.8-0.9c0.9-1,2-1.9,2.8-3.1   c1.3-1.9,2-4.2,3.5-6c0.6-0.7,0.8-1.5,1.1-2.3c0.6-1.4,0.8-3,1.6-4.3c2.5-3.7,4.9-7.4,7.4-11.2c2.2-3.4,3.2-7,0.7-10.8   c-0.2-0.3-0.2-0.6-0.4-0.8c-0.4-0.5-0.4-1-0.4-1.5c0-5.2,0.2-10.4-0.5-15.6c3.6,0.6,7,1.9,10.5,3.2c1.6,0.6,3.2,1.3,4.8,1.9   c0.6,0.2,1.2,0.8,2,0.1c-0.5-0.8-1.2-1.4-2-1.8c-1.7-0.8-3.3-1.7-5.1-2.4c-3.2-1.2-6.5-2.2-9.7-3.4c-0.8-1-0.4-2.1-0.5-3.2   c4.8-0.3,9.7,0.6,15,0.5c-1.1-0.9-2.1-0.6-2.8-1.1c0.9-1.8,1.3-3.6,0.8-5.5c-2-2.1-2-2-5.2-2.5c-1.1-0.2-2.2-0.2-3.1-0.5   c-1.2-0.5-2.9,0.1-3.7-1.2c0-0.9,0-1.8,0-2.6c2.2-1.1,4.6-0.5,6.8-1.2c2.6-0.8,5.5-0.9,7.1-3.7c0.2,0.5,0.2,0.8,0.6,0.8   c0.6,3.5,1.1,6.9,1.7,10.4c0.8,5.5,1.7,11,2.5,16.5c0.9,6.3,1.6,12.7,2.6,19.1c0.3,1.7,0.1,3.6,1.1,5.3c0.4-1.7,0.3-3.4,0.2-5.1   c-0.3-4.8-0.8-9.5-1.3-14.2c-0.9-7.3-2-14.5-3.1-21.8c-0.8-5.5-1.7-11-2.2-16.5c0-0.9,0.1-1.8,0.1-2.7c0.2-0.1,0.3-0.2,0.3-0.2   c1.4,0.2,2.6,0.8,3.9,1.2c1.8,0.5,4.3-0.5,4.8-2.2s0.6-3.4-0.7-5c-1.9-2.4-4.6-3.2-7.3-3.4c-3.4-0.2-6.7-0.1-10.1,0   c-0.4,0-0.8,0-1.1,0.1c-1.4,0.5-2.9,0.3-4.4,0.2c0-1.1,0-2,0-2.9c0.7-0.4,1.4-0.8,2.1-1.1c1.5-0.9,2-2.3,1.3-3.9   c-0.7-1.7-1.8-2.3-3.9-2.1c-0.8,0.1-0.9-0.2-1-1c1.6-0.9,3.2-1.9,4.8-2.9c3.2-2.1,6.5-4.1,10.1-5.4c1.3-0.5,2.5-1.2,3.3-2.5   c0-1.8,0-1.8-1.3-2.9c-1.2,0-2.4-0.2-3.5,0c-2.8,0.6-5.5,1.1-8.2,2c-1.2,0.4-1.8,0-2.6-0.7l0,0c0-1.7,0.7-3.3,0.5-5   c-0.5-4-4-6.8-7.7-5.4c-1,0.4-1.5,1.3-2.3,1.8C478.8,215.4,478.6,216.1,478.2,215.3z M515.4,184.4c3-2.9,6-5.7,8.6-8.9   c0.8-1,1.3-2,1.6-3.2c-0.7-0.3-0.9,0.2-1.1,0.5c-0.7,1.1-1.5,2.2-2.4,3.1c-2.5,2.6-4.9,5.2-7.3,7.9c-0.8,0.5-1.5,1-1.3,2.3   C514.4,185.6,515,185.1,515.4,184.4z M497.5,342.8c2.6-1.3,5.1-2.6,7.7-3.8c1,2.6,0.8,15.6-0.3,18.8c-0.4,0.4-1,0.4-1.5,0.5   c-2.2,0.3-4.3,0.6-6.5,0.9c-0.6,0.1-1.2,0.2-1.3,1.1c3.1,1,6.1-0.5,9.3-0.4c-0.4,3.1-0.8,6-1.1,9c-0.1,0.9-0.4,1.8,0.5,2.8   c1.9-4.1,1.6-8.4,2.7-12.3c2.1-1.2,4.7-0.9,6.6-2.9c-2.4-0.4-4.3,0.9-6.4,0.7c0.7-6.6,1.1-13,0.2-19.5c4.5-2.6,9.1-5,13.2-8.1   c0.6-0.2,1-0.6,0.8-1.5c-0.7,0.3-1.4,0.3-1.7,1c-0.3,0.2-0.5,0.3-0.8,0.5c-7.4,4.3-15,8.2-22.4,12.6c-0.8,0.5-1.8,0.8-2.2,2.1   C495.6,344,496.7,343.6,497.5,342.8z M460.9,350.6c-0.2,0.8-0.1,1.5,0.6,2.1c0.8,0.8,1.6,1.3,2.8,1.4c2.2,0.2,4.3-0.3,6.4-0.6   c1.8-0.3,4.1-0.4,5-2.4c0.4-1.5,0-2.4-0.9-2.9c-3.4-0.6-6.3,0.4-9.4,0.3C463.6,348.4,462,348.9,460.9,350.6z M509.1,176.9   c2.5-2.1,9-11.2,9.2-12.7C516.8,165.2,510.5,173.8,509.1,176.9z M538.2,228.3c1.1-0.3,1.5-1,1.6-2.2   C538.4,226.3,538.4,227.4,538.2,228.3z" />
	<path fill="#F6DAC8" d="M18.1,456.9c1.1-1.2,2.7-1.1,4.1-1.4c1-0.2,2.1-0.1,3.1-0.6c-0.5-1.7-0.9-2-2.4-2.1c-2.2-0.2-4.2,0.5-6,1.6   c-0.6,0.4-1.1,1-1.9,0.2c1.6-2.9,4.8-2.6,7.6-3.6c-1.5-1.5-3-1.7-4.6-1.3c-1,0.3-2,0.8-3,1.2c-0.3-0.1-0.5-0.2-0.5-0.5   c2.4-2,5.3-2.7,8.4-2.9c3.9-0.2,7.3-1.8,10.5-4.1c2.7-1.9,5.4-3.7,8.2-5.5c1.7-1.1,3.4-1.9,5.4-2.3c0.2,0,0.4-0.2,0.5-0.4   c-1.2-1.3-1.3-1.3-5.6-0.1c0.3-1.8,1-3.3,1.9-4.7c1.6-2.5,3.3-4.9,5.4-7c1.1-1,2-2.2,3.6-2.5c0.2,0,0.4-0.2,0.6-0.3   c3.1-2.5,6.3-2.2,9.6-0.6c1.6,0.8,3.3,0.7,5,1c0.5,0.1,1.2-0.4,1.7-0.8c1.2-1.1,2.6-2.1,3.5-3.4c0.2-0.3,0.3-0.7,0.7-0.9   c2.4-1.3,5-2.1,8-2.4c-1.1,1.4-1.9,2.5-2.8,3.6c-3.4,3.8-6.2,7.9-8.4,12.4c-1.1,2.3-2.7,3.7-4.8,4.9c-0.5,0.3-1,0.5-1.4,0.8   c-4.2-1-8.3-1.6-12.5-2.1c-1.4-0.2-2.8-0.2-4.2,0.8c1.8,1.8,4,2,6,2.5s4.1,0.8,6.5,1.1c-0.6,0.9-1.2,1.2-1.7,1.5   c-2.4-0.9-5.8-0.2-6.9,1.4c0.1,0.6,0.6,0.7,1.1,0.7c0.9,0,1.7-0.1,2.6-0.2c1.4-0.2,2.7-0.6,4.1-0.4c0.8,0.1,1.7-0.2,2.5-0.5   c2.4-0.8,4.7-2.2,6.8-3.6c1.7-1.2,2.5-3.2,3.7-4.8c2.1-3,4.1-6.1,6.1-9.2c1.5-2.2,3.3-4.2,5-6.2c0.4-0.5,0.9-0.9,1.4-1.2   c4.2-2.3,8.3-4.8,13-6c3.2-0.8,6.4-0.5,9.6-0.4c4.1,5.9,10,10.2,13.9,15.6c0.9,0.4,1.1-0.3,1.2-0.3c3.8,2.9,5.9,6.9,9.5,9.3   c-1.5,2.3-1.5,2.3-1.6,3.7c-1.1,0.6-2.7,0.9-2.6,2.7c2.6,0.8,3.8,0,3.4-2.3c0.7-0.7,1.7-1.1,2.2-2s-0.2-2.1,1.2-2.8   c0.9,0.1,2-0.2,2.8,0.8c0.6,0.7,1.4,0.6,2.2,0.6c1.6-0.2,3.1-0.3,4.7-0.6c4.2-0.6,8.4-0.9,12.6-1.3c3.3-0.3,6.7-0.8,10-1.2   c3.2-0.4,6.4-0.7,9.6-1.1c6.3-0.6,12.6-1.4,18.9-1.8c3.5-0.3,7-0.8,10.5-1.1c3.4-0.4,6.8-1,10.1-1.6c4.3-0.7,8.6-1.4,12.9-2.2   c4.9-0.9,9.8-1.8,14.7-2.6c4.9-0.9,9.7-2,14.5-3.4c1.5-0.4,3.2-0.3,4.9-0.5c3-0.3,6.1-0.3,9.1-0.6c7.2-0.6,14.4-0.5,21.6-0.5   c3.8,0,7.5,0.4,11.2,0.9c1.2,0.1,1.8,1.3,3,1.1c1-0.2,1.9-0.6,2.9-0.4c3.1,0.7,6.2,1.4,9.4,2c3.2,0.6,6.3,1.7,9.7,1.6   c0.8,1.7,0.9,3.5,1.3,5.2c1.9,8.1,4.4,16,7.4,23.8c0.1,0.4,0.2,0.7,0.3,1.1c-0.1,1.8,0.7,3.4,1.1,5.1c0.4,1.8,1.7,3.7-0.3,5.3   c0.4,7.2,3.1,13.5,5.8,20.2c-3.8-0.7-7.3-1-10.8-1c-4.3,0-8.5,0.8-12.8,0.5c-1.6-0.1-3.3,0-4.9,0c-1.8-0.1-3.5,0.3-4.8,1.5   c-2.4-0.6-4.6-1.3-6.8-1.8c-4.7-1-9.3-1.9-14.1-2c-0.4,0-0.8,0.1-1.2,0c-1.5-0.8-3.1-0.5-4.6-0.4c-1.6,0.1-3-0.7-4.6-0.5   c-3,0.3-5.9-0.5-8.8-0.6c-1.7-0.1-3.4-0.1-5.1-0.4c-3-0.5-6-0.7-9-0.9c-2.9-0.2-5.8-0.7-8.6-1.2c-2.3-0.4-4.4-1.3-6.6-1.8   c-2.1-0.4-4.1,0-6.2-0.7c-2.7-0.8-5.5-1.2-8.3-1.7c-2.1-0.4-4.2-0.9-6.3-1.1c-2.4-0.3-4.9-0.6-7.3-1.1c-4-0.7-8-1.4-11.9-2.1   c-4.5-0.8-8.9-1.9-13.4-2.9c-3.1-0.6-6.1-1.5-9.2-2c-2.3-0.3-4.6-0.6-6.8-1c-2.8-0.5-5.7-0.5-8.5-0.7c-2.5-0.2-5,0.6-7.5,0.8   c-2.9,0.2-5.8,0.9-8.7,1.1c-1.2,0.1-2.5,0.1-3.6,0.5c-2.3,0.8-4.7,1-7,1.2c-2.9,0.3-5.8,0.8-8.7,1.1c-3.7,0.4-7.4,0.9-11.1,0.8   c-5.7,0-11.4,0-17.2,0c-1.5,0-3.1-0.2-4.6,0.4c-0.7,0.3-1.6,0.2-2.3,0c-1.8-0.6-3.8-0.6-5.6-1.1c-2.3-0.7-4.8-1.4-7.2,0.1   c-0.3,0.2-0.8,0.2-1.1,0.1c-1.9-0.7-4.1-0.6-6.1-1.6c1.7-1,3.1-2.3,5-2.5c2.7-0.3,3.8-1.8,3.9-4.2c2.8-2.1,6.4-2.5,8.8-4.6   c0-1.2-0.7-1.6-1.2-2c-1.4-0.3-2.6,0.1-3.7,0.6c-3.2,1.3-6.5,2.4-10,2.2c-0.3,0-5.3,1.7-5.7,1.9l0,0c-0.5,0-1.1-0.2-1.5,0.3   c-1,1.3-2.5,1.2-3.9,1.5c-0.9,0.2-1.9,0.2-2.6,1c-0.1,0.1-0.2,0.1-0.4,0c-1.7,0-3.5-0.3-5.1,0c-3.2,0.6-6.5,0.7-9.8,1.3   c-2.8,0.5-5.5,1-8.1,2.3c-0.7,0.4-1.4,0.6-2.2,0.5c-3.3-0.2-6.6,0.4-9.7,1.4c-2.6-2.1-5.4-3.7-8.6-4.8   C18.9,457.8,18.2,457.7,18.1,456.9z M108,441.5c0.2-0.2,0.4-0.6,0.6-0.8c1.8-1.5,2.1-3.3,1.2-5.4c-0.5-1.2-1.4-2.1-2.5-2.6   c-1.6-0.8-3.1-1.8-4.2-3.2c-2.2-2.6-5-3.7-8.5-3.3c-2.5,1.8-3.5,4.8-5.4,6.8c0,1.4,0,2.6,0,3.7c1.5,2,4,2.7,5.4,4.5   c1.2,0,2.3,0.2,3.2,0c1.8-0.6,3.3,0,4.8,0.5c1.3,0.5,2.5,0.7,3.8,0C106.8,441.4,107.4,441.5,108,441.5z M312,467.3   c-0.2-0.9-0.7-1.3-1.5-1.3c-0.9,0-1.7,0-2.6,0c-5.2,0.3-10.5,0.4-15.7-0.2c-1-0.1-1.8,0.1-2.5,0.6c-0.4,1,0,1.5,0.8,1.8   s1.6,0.6,2.5,0.7c5.7,0.7,11.4,0.3,17-0.4C310.7,468.4,311.5,468.1,312,467.3z M125.6,448.4c0.1,1,0.8,1.5,1.5,1.7   c3.1,0.7,6.3,0.8,9.3,0.5c0.8-1.3,0.1-1.8-0.8-2.1c-2.8-1-5.6-1-8.5-1.1C126.5,447.2,126,447.6,125.6,448.4z M258.9,463.1   c0.1,1.2,0.9,1.6,1.6,1.8c2.2,0.6,4.4,1.5,6.7,1.2c0.5-1.6,0.5-2.1-0.6-2.7c-2.2-1.2-4.6-1.5-7-0.9   C259.4,462.5,259.2,462.8,258.9,463.1z M246.3,459c1.4,1.9,3.7,1.7,5.6,2.3c0.7,0.2,1.2-0.1,1.4-0.8   C251.5,457.8,248.1,457,246.3,459z M277.9,466.9c-1.2-2-3.3-2.7-6.1-2c-0.5,0.9-0.2,1.5,0.7,1.8c1.2,0.4,2.4,0.7,3.6,0.9   C276.7,467.7,277.4,467.7,277.9,466.9z M282.5,466.2c0.3,1.7,0.8,2.1,2.9,2.3c2.1,0.2,2.3,0.2,3-1.6   C286.6,465.6,284.7,465.4,282.5,466.2z M138.6,449.8c-0.2,1.1,0.3,1.5,1.1,1.6c1.3,0.1,2.8,0.4,3.7-1   C142,448.9,141.1,448.8,138.6,449.8z M147.6,451c2.2,1.4,4,1.3,5.1-0.2C150.9,449.3,149,449.3,147.6,451z M64.1,428.3   c-1.3,1.8-1.2,3.7,0.3,4.8C65.6,431.6,65.5,430.3,64.1,428.3z M156.1,452.1c2.5,1.6,3.9,1.7,5.1,0.3   C159.4,451.1,158.1,451,156.1,452.1z M45.6,442.3c-2.6-0.6-3.5-0.4-4.4,1.2C43.4,444.5,44.7,444.2,45.6,442.3z M48.5,442.6   c0.8-0.3,1.5-0.4,1.7-1.3c-0.3-1-1-0.8-1.7-0.5c-0.3,0.2-0.6,0.5-0.6,1C48,442,48.2,442.2,48.5,442.6z" />
	<path fill="#F6DAC8" d="M745.3,449.2c-2.8-0.6-5.5-1.2-8.3-1.7c-5.4-0.9-10.8-2-16.3-2.2c-6.4-0.2-12.8-0.9-19.1-1.7   c-1.7-0.2-3.4-0.2-5.2-0.3c-4.7-0.2-9.2-1.8-13.7-2.8c-1.3-0.3-2.6-0.6-3.9-0.9c-0.5-0.1-1.1-0.2-1.6-0.2   c-4.2,0.8-8.2-0.5-12.3-1.3c-9.5-1.9-19.1-3.4-28.8-3.7c-6.3-0.2-12.6-0.8-19-1.2c-3.8-0.2-7.7-0.3-11.5-0.6   c-3.8-0.3-7.6-0.8-11.4-1.2c-4-0.4-7.9-0.8-11.9-1.1c-3.8-0.3-7.6-0.6-11.5-0.8c-2.6-0.1-5.2-0.1-7.8-0.2c-1.6-0.1-3.2-0.3-5-0.4   c0.2-1.8,0.6-3.2,1.3-4.6c1.2-2.5,2.1-5.1,2.9-7.8c1-3.3,0.5-6.7,1.3-9.9c0.2-0.9,0-1.9,0.6-2.8c4.2,0.9,8.6,0.8,13,0.7   c7-0.2,13.9,0.5,20.8,1.7c4.5,0.8,9.1,1.6,13.7,1.9c4.3,0.2,8.6,0.7,12.8,1c6,0.5,12,0.9,18,1.3c0.5,0,1.1,0,1.6,0   c7.6-0.2,15.1,1.1,22.5,2.7c1.7,0.4,3.5,1,5.3,0.7c0.5-0.1,1.1,0.1,1.6,0.3c4,1.8,8.3,3,12.4,4.7c3.6,1.5,7.1,1.7,10.7,1.6   c6.3-0.1,12.5-0.1,18.8,0c6.1,0.1,12,1.6,17.9,3c0.4,0.1,0.9,0.3,1.3,0.6c2.9,2.7,6.7,3.6,10.4,4.4c4.3,0.9,8.7,1.5,13.2,2   c4.2,0.5,8.3,1.3,12.5,1.7c3.8,0.4,7.6,0.9,11.4,1.5c3.7,0.6,7.4,1.1,11.1,1.7c0.4,0.1,0.8,0.2,1.2,0.2c6.3,0.1,12.5,0.8,18.8,0.5   c4.5-0.3,8.9-0.6,13.4-0.9c0.6,0,1.2-0.2,1.9,0.2c-0.7,1.4-2.6,1.9-2.6,3.7c0,0.6,0.3,1.1,0.6,1.6c0.8-0.7,1.6-1.3,2.4-2   c0.4-0.3,0.9-0.6,1.1-1.2c1.5-3.6,3.9-6.5,6.5-9.4c1.2,1.7,0.4,4,2.1,5.4c0.8-0.1,1.2-0.7,1.3-1.4c0.1-1.4,0.3-2.8-0.1-4.2   c-0.4-1.1-0.4-2.3-0.5-3.5c0-0.5-0.1-1.1,0.1-1.6c0.8-2.7,1.7-5.3,2.9-7.9c0.4-0.8,1.2-1.2,2.1-1.3c1.2,0.5,1.6,1.7,2.6,2.4   c0.7,3.3,0.3,7,3.9,9.1c-1.5,4.3-2.3,9-6.1,12.3c-0.8-0.5-1.5-1.1-2.3-1.7c-0.5-0.3-0.9-0.6-1.4-0.9c-0.6-0.3-1.2-0.4-1.7,0.2   c-0.6,0.7-0.3,1.3,0.2,1.9c0.6,0.6,1.1,1.3,2,1.6c0.6,0.2,1.1,0.5,1.9,0.8c-2.3,2.1-3.7,4.7-5.3,7.2c-1.9-0.8-2.7-2.9-4.6-3.5   c-1.4,0.6-1,1.5-0.5,2.1c1,1.3,2.1,2.5,3.6,3.5c-0.8,1.1-1.5,2.1-1.8,3.4c-2.6-0.6-3.1-3.4-5.1-4.5c-1.2,1.2-0.1,2.1,0,3   c-0.5,0.8-1.4,0.8-2.2,1c-3.1,0.6-6.4,0.7-9.5,1.4c-1,0.2-2.1,0.3-3-0.1c-1.8-0.6-3.7-0.6-5.4-0.7c-5.3-0.2-10.5-0.4-15.7-1   c-3.7-0.4-7.5-0.6-11.3-1c-2.4-0.3-4.8-0.1-7.2-0.4c-3.1-0.4-6.2-0.3-9.3-0.5C759.1,448.9,752.2,449.1,745.3,449.2z M693.9,426.2   c0.1,1.5,1.2,2.1,2.4,2.5c1.3,0.5,2.4,1.7,4,0.9c0-0.3,0.1-0.6,0-0.8c-1-2-2.8-3-4.8-3.7C694.7,424.9,694.2,425.5,693.9,426.2z    M702.7,433.8c0.5-0.4,0.8-0.7,0.7-1.2c-0.1-0.6-0.4-1-0.9-1.3c-0.7-0.4-1.3-0.8-2.1-0.3c-0.4,0.5-0.4,0.9-0.1,1.5   C701,432.9,701.9,433.3,702.7,433.8z" />
	<path fill="#EF8A6A" d="M365.2,382.8c-0.8,1.9-0.4,3.7-0.1,5.6c0.1,0.4,0.2,0.7,0.2,1.1c-0.3,3,0.9,5.7,1.8,8.5   c0.7,2.4,1.4,4.8,2.2,7.3c1.2,0.4,2,1.6,3.1,2.2c0.6,0.3,1.2,0.9,1.5,1.7c0.3,1,1,1.6,1.8,2.2c-0.8-0.1-1.6-0.2-1.9,1   c0.7,1.7,2.1,3.1,3.3,4.6c-2.4,3.2-4.6,6.4-6.5,10c-0.5-0.4-0.8-0.7-1.1-1.1c-3.8-4-7.4-8.1-10.6-12.5c-0.8-1.1-1.5-2.2-2.7-2.9   c-0.5,0.2-0.8,0.4-1.1,1.2c4,6.1,9.2,11.3,14.5,16.5c0.3,0.7-0.6,1.3-0.2,1.9c0.5,0.6,0.8,0,1.1,0c0,1.2,0.5,2.2,0.9,3.3   c1.3,3.2,2.5,6.5,3.2,9.9c0.3,1.6,0,3.2,0,4.9c-0.4-0.4-0.8-0.7-1.1-1.2c-4.6-6-8.6-12.4-12-19.2c-2.6-5.1-5-10.4-7-15.7   c-0.5-0.4-1-0.3-1.4-0.2c-0.5-1.3,0.6-2.5,0.3-3.8c0.8-0.2,1.5,0.5,2.3,0.3c0.9-0.2,1.9-0.3,2.4-1.3c-0.1-1.5-1.1-2.7-1.8-3.9   c-1-1.7-1.5-3.4-1.6-5.3c-0.2-3.4-0.5-6.9-0.3-10.3c0.2-2.4,0-4.8,0-7.2c0-5.9-1-11.6-2.1-17.4c-1.5-7.6-3-15.2-4.5-22.8   c-1.4-6.8-2.8-13.6-4.1-20.5c-0.7-3.7-1.2-7.4-1.1-11.1c0.1-22,0-44,0.2-66.1c0.1-6,0.2-12,0.4-18.1c0.2-4.3,0.4-8.6,0.9-12.8   c0.5-4.5,1.3-8.9,2-13.4c0.6-3.9,1.3-7.8,1.8-11.8c0.4-3.9,0.4-7.8,1.3-11.6c0.1-0.5,0-1.1,0-1.7c-0.1-0.5-0.8-0.6-0.9-1.1   c-0.1-2.1,0.7-4,0.6-6.1c-0.1-1.1,0.1-2.3-0.5-3.4c-0.4-0.7-0.1-1.5,0.2-2.3c2.4-7.7,5.8-14.9,10.6-21.4   c6.4-8.6,14.1-15.9,22.4-22.6c2-1.6,3.9-3.3,6.2-4.6c-0.6,1.7-1.4,3.4-2,5.1c-0.5,1.3-1.2,2.7-2.2,3.8c-1.1,1.2-1.8,2.6-2.4,4.2   c-0.4,1.1-1.2,2.1-2.2,2.7c-2.3,1.3-3.5,3.4-4.7,5.6c-2.4,4.2-4.8,8.4-7.1,12.7c-1,1.8-1.4,3.9-1.9,5.9c-1,4.4-2,8.8-2.7,13.2   c-0.3,2.2-0.9,4.4-1.1,6.6c-0.2,2-0.8,4-1.1,6.1c-0.3,2.3-0.8,4.7-1.3,7c-0.5,2.9-0.7,5.9-1.4,8.8c-0.3,1.3-0.3,2.6-0.4,3.9   c-0.1,2.1-0.3,4.2-0.7,6.2c-0.5,2.4,0.2,5-0.8,7.3c0,0.1,0,0.2,0,0.2c0.3,2.6-0.5,5.1-0.5,7.6c0,15.9,0.1,31.8-0.1,47.7   c0,3.2,0,6.6-0.5,9.7c-0.6,3.9-0.3,7.8-0.3,11.7c0,1.8,0.5,3.6,0.7,5.4c0.1,0.5,0.1,0.9,0.1,1.4c0,2.2,0.6,4.2,0.8,6.4   c0.2,1.5,0.4,3.1,0.6,4.6c0.4,1.9,0.2,3.8,0.8,5.7c0.4,1.1,0.4,2.4,0.5,3.6c0.3,3.1,0.7,6.1,1.1,9.2c0.6,4.5,0.7,9,1.9,13.4   c1.1,4,2.4,7.9,3.7,11.8c1.7,5,3.4,10,5.1,14.9c1.3,3.6,2.8,7.1,4.2,10.7c2.1,5.3,4.7,10.3,6.9,15.6c0.6,1.3,1.3,2.6,2,3.9   c0.9,1.9,1.7,3.9,2.7,5.9c0.4,0.8,0.3,1.5,0.2,2.2c-0.3,1.3-1.7,0.9-2.3,1.8c-1.5-1.2-2.5-2.9-3.8-4.3c0.7-0.2,0.5-0.6,0.2-1.1   c-3.1-6.2-6.2-12.3-8.9-18.7c-1.5-3.6-3-7.2-4.4-10.8c-0.6-1.4-1-2.8-1.6-4.3c-0.3,0.3-0.6,0.5-0.6,0.7c-0.4,3.7,0,7.5-0.2,11.2   c-0.5-0.9-1.1-1.7-1.6-2.6c-2.6-5.1-5.2-10.1-7.7-15.2c-0.4-0.7-0.6-1.6-1.7-1.6c-0.5,0.9-0.3,1.7,0.1,2.5c0.5,1,0.9,2.1,1.4,3.2   C358,369.9,361.6,376.4,365.2,382.8z M358.8,341.8c-1.2-3.5-3.7-6.3-5.3-9.5c-0.3-0.6-0.8-1-1.5-0.6c-0.5,1.7-0.5,1.8,0.2,3.1   c1.4,2.6,3,5,5.1,7.2c0.3,0.3,0.6,0.4,1,0.4c0.2,0.4,0.6,0.5,0.9,0.1C359.3,342.3,359.1,342,358.8,341.8z M369.5,414.2   c-1.8-3.9-4-7.4-6.6-10.8c-1.2,0.7-1.2,1.6-0.6,2.3c1.8,2.5,3.4,5.2,5.5,7.5C368.2,413.7,368.4,414.4,369.5,414.2z" />
	<path fill="#F6DAC8" d="M128.2,425.1c-1.9-1.7-3.7-3.7-6-4.8c-2.1-1-3.2-2.5-4.2-4.5c-0.9-1.8-2.1-3.5-3.4-5   c0.4-0.5,0.9-0.6,1.4-0.9c1-0.6,2.2-1,3-1.8c2.7-2.8,5.9-4.9,8.6-7.6c1-0.9,1.6-2,2.1-3.3c1-2.5,2.6-4.6,4.2-6.7   c1.8-2.3,3.6-4.7,6.2-6.3c0.6-0.4,1-1,1.5-1.5c2.2-2.5,4.9-4.6,7.8-6.4c2-1.2,4.2-1.6,6.5-0.6c3.5,1.5,6.6,3.8,9.7,6.1   c3,2.2,5.7,4.8,8.4,7.4c0.5,0.5,0.8,0.9,1,1.5c0.8,2.3,2.6,3.9,4.8,4.9c1.4,0.6,2.9,1.1,4.3,1.7c0,0.6-0.4,0.5-0.8,0.6   c-0.9,0-1.7,0.1-2.2,1c0.5,1.2,0.8,1.6,1.6,1.7c1.3,0.2,2.7,1,3.9-0.3c0.3-0.8,0-1.4-0.5-2c2.8,0.2,5.6,0.7,8.4,0.5   c3.5-0.3,7-0.9,10.5-1.3c2.3-0.3,4.7-0.5,7-0.7c4.2-0.2,8.4-0.6,12.6-1.2c4.6-0.6,9.2-1.4,13.9-2.1c4.1-0.7,8.2-1.5,12.4-2.2   c3.6-0.6,7.2-1,10.8-1.6c4.4-0.8,8.9-1.5,13.6-2.8c-1.4,4.1-2.9,7.9-3.5,12c-0.6,4-0.8,8.1-0.3,12.2c-1.8,0.6-3.7,0.5-5.5,0.7   c-6,0.7-11.8,1.9-17.6,3.4c-2.4,0.6-4.9,1-7.3,1.4c-5.1,0.9-10.3,1.7-15.4,2.6c-7.5,1.3-14.9,2.9-22.3,4.5c-0.2,0-0.5,0-0.7,0   c-1.1,0.2-1.8-0.4-2.4-1.2c-1.1-1.3-2.5-1.8-4.1-1.7c-2.5,0.1-5.1,0.1-7.6,0.3c-3.7,0.4-7.4,1.3-11.1,1.6c-3.1,0.3-6.3,0.5-9.4,0.8   c-0.7,0.1-1.3,0.2-2,0.4c-1.5,0.5-3,0.9-4.7,1.1c-3.4,0.5-6.7,0.9-10.1,0.8c-4.4,0-8.7,0-13.1,0c-1.7,0-3.4-0.3-4.9-0.9   C131.5,424.5,129.8,424.4,128.2,425.1z M158,411.9c1.3,0.2,2.3-0.2,3.3-0.6c2.6-0.9,4.1-3.4,2.8-6.3c-0.6-1.3-1.3-2.6-2.1-3.8   c-1.6-2.7-3.8-4.6-7-5.1c-1.1-0.2-2.2,0-3.2-0.1c-1.9-0.1-3.2,0.8-4.1,2.4c-0.5,0.9-0.9,1.8-1.4,2.7c-0.9,1.8-1.7,3.7-3.3,5   c-0.6,0.5-1,1.2-1,2c0.1,1-0.3,1.9-0.6,2.7c-0.6,1.3-0.2,2.3,0.5,3.2c0.4,0.5,0.9,0.9,1.3,1.2c1.7,0.3,2.7-0.8,3.7-1.8   c0.7,0.6,1.4,1.3,1.9,1.7C152.4,415.5,155.6,415.3,158,411.9z M166.7,421.3c1.8,0.5,3.6-0.2,5.3-0.5s3.4-0.6,5-1s3.6,0.1,4.9-1.5   c-1.5-1-2.4-1.1-4.3-0.9c-3.3,0.3-6.4,1.2-9.6,1.8c-0.6,0.1-1.2,0.2-1.7,0.7C166.2,420.3,166.1,420.8,166.7,421.3z M184.1,419.5   c1.2,1.5,2.6,0.6,3.8,0.4c1-0.2,2.2-0.2,2.5-1.6C187.8,417.4,185.5,417.8,184.1,419.5z M199.8,418.4c-1.9-1.5-4.4-1.2-5.3,0.4   C196.3,419.7,198,419.3,199.8,418.4z M179.3,403.3c1.8,0.9,1.8,0.9,3-0.3C181.1,401.8,181,401.8,179.3,403.3z M174.9,405.5   c0.9,0.2,1.9,0.7,2.2-0.9C176.1,404.2,175.3,404.3,174.9,405.5z" />
	<path fill="#E2C8B7" d="M449.6,455.2c0.1-0.2,0.4-0.4,0.4-0.5c-0.3-2.2,0.6-4.3,0.5-6.5c0-0.9,0.5-1.8,0.6-2.4   c0.8-0.8,1.6-0.4,2.1-0.5c1.4,0.6,1.6,1.9,1.8,3.1c0.1,0.6,0.2,1.2,0.8,1.6c1.1,0.8,1.4,2,1.6,3.2c0.3,1.4,0.8,2.6,1.9,3.6   c1.3,1.1,1.8,2.7,2.4,4.2c0.4,0.9,0.7,1.9,0.9,2.8c0.2,0.9,0.8,1.5,1.7,1.7c2.6,0.8,5.1,1.7,7.3,3.3c1,0.7,2.2,0.8,3.3,0.9   c2.9,0.1,5.5,1.2,8.3,1.9c4.8,1.1,9.6,2.6,14.5,3.4c4.2,0.7,8.4,1.7,12.6,2.3c2.9,0.4,5.8,0.7,8.7,1.1c3.7,0.6,7.3,0,10.9,0.4   c3.3,0.4,6.7,0,10,0.5c5.2,0.7,10.4,0.1,15.7,0.4c1.9-0.9,3.9-0.2,5.9-0.8c1.3-0.4,2.9-0.4,4.3-0.5c3-0.3,6-0.7,8.9-1.1   c5.2-0.7,10.4-0.6,15.5-0.9c10.3-0.5,20.6-0.3,30.9-0.5c2.5,0,5-0.6,7.5-1.1c2.7-0.5,5.4-1.1,8.1-1.7c2.3-0.5,4.6-0.9,7-1.4   c0.4-0.1,0.8-0.1,1.2,0c4.1,0.1,8.2-0.5,12.3,0.9c0.8,0.3,1.9,0.1,2.8,0c4.4-0.3,8.7,0.1,13.1,0.5c4.5,0.4,9.1,0.7,13.6,0.9   c3.4,0.2,6.8,0.8,10.2,1.4c1.2,0.2,2,1.1,2.8,2.1c0.2,0.5,0.1,1.2,0.1,1.9c-2,2.6-5.2,1.9-7.8,2.8c1.6,0.9,3.6,0.8,5.2,1.8   c0.4-1.6,1.5-1.7,2.8-1.5c-0.5,0.6-1.6,0.1-1.9,1.2c1,1,2.5,0.6,3.7,1.1c0.1,0.1,0.2,0.4,0.2,0.4c3,0.4,5.8,1.1,8.8,1.6   c2.5,0.4,5,0.8,7.4,1.2c1.6,0.3,3.4,0.4,5,0.7c2,0.3,4.2,0,6.2,0.8c0.1,0.1,0.3,0.1,0.5,0.1c2.7-0.3,5.3,0.3,7.9,0.5   c5.5,0.4,11.1,0.6,16.6,0.3c4-0.2,7.9,0,11.9-0.5c3.4-0.4,6.7,0,10-0.4c2.8-0.4,5.7,0,8.5-0.8c0.4-0.1,0.8,0,1.2,0   c2.8,0,5.5-0.5,8.2-0.9c1.7-0.2,3.4-0.3,5-0.5c5.5-0.7,11-0.5,16.6-0.5c1.3,0,2.5,0,3.8,0c4.6-0.1,9,1,13.4,2   c2.9,0.6,5.7,1.7,8.6,2.1c2.6,0.4,5.4,0.4,8,0c1.9-0.3,3.7-1.6,5.4-2.6c3.4-2.1,6.9-3.6,10.7-4.7c0.9-0.3,1.6-0.8,2.5-1   c-0.6,1.3-1.4,2.5-0.9,4c-1.1,0.4-2,0.8-2.9,1.1c-1.5,0.6-3,1.3-4,2.8c-0.2,0.3-0.5,0.6-0.9,0.8c-4.4,2.3-8.7,4.9-13.8,5.6   c-2.4,0.4-4.9,0.8-7.4,0.4c-2-0.3-4.1-0.3-6.1-0.1c-0.8,0.1-1.5,0.1-2.3-0.1c-4.3-1-8.7-1.6-13.2-2c-7-0.7-13.9-1-20.9-0.8   c-4.9,0.1-9.8,0.5-14.7,1.3c-1.4,0.2-2.8,0.3-4.2,0.2c-10-0.3-19.9-0.1-29.9,0c-6.8,0-13.6-0.6-20.3-1.4   c-6.8-0.8-13.5-2.2-20.3-3.3c-5.5-0.9-10.9-1.7-16.4-2.5c-3.6-0.6-7.3-1-10.9-1.5c-2.2-0.3-4.3-1.2-6.7-2c1.2-0.5,2.6,0,3.3-1.3   c-0.3-1.1-1.3-1.1-2.2-1.2c-1.5,0-3,0-4.5,0.1c-2,0.2-4.1,0.2-6.1,0.2c-0.6,0-1.2,0.1-1.8,0.3c-1.7,0.8-3.4,0.8-5.2,0.8   c-6.1-0.2-12.2-0.3-18.3,0c-5.9,0.3-11.8,0.8-17.7,1.6c-3.6,0.5-7.3,0.7-11,1.1c-6.3,0.8-12.6,0.8-19,1.2c-4.5,0.2-9-0.2-13.4,0.3   c-5.4,0.6-10.8,0.4-16.2,0.2c-6-0.2-11.9-0.2-17.8-0.5c-8.2-0.4-16.4-0.3-24.7-0.4c-3.8,0-7.6-0.5-11.5-0.6s-7.8-0.8-11.6-1   c-5.6-0.3-11.2-0.7-16.8-1.6c-6.2-1-12.4-2.3-18-5.5c-2.1-1.2-4-2.7-5.7-4.4c-0.6-0.6-0.9-1.2-1.1-2c-1.2-4.6-2.3-9.2-2.8-13.9   C449.8,457.4,449.4,456.3,449.6,455.2z M687.7,482.8c0.4,1.8,2.3,2.2,3.9,0.9C690.6,482.2,690,482.1,687.7,482.8z M684.3,482.9   c-1.8-1.3-3.1-1.2-4.2,0.1C681.9,484.2,682.8,484.2,684.3,482.9z" />
	<path fill="#EBDA8F" d="M488.5,223.8c0.7,0.7,1.3,1.1,2.6,0.7c2.7-0.9,5.4-1.5,8.2-2c1.1-0.2,2.3,0,3.5,0c1.3,1.1,1.3,1.1,1.3,2.9   c-0.8,1.3-2,2-3.3,2.5c-3.7,1.3-6.9,3.4-10.1,5.4c-1.6,1-3.3,2-4.8,2.9c0.1,0.8,0.2,1.1,1,1c2-0.3,3.1,0.4,3.9,2.1   c0.7,1.6,0.2,3-1.3,3.9c-0.7,0.4-1.3,0.7-2.1,1.1c0,0.9,0,1.8,0,2.9c1.5,0.1,2.9,0.4,4.4-0.2c0.3-0.1,0.8-0.1,1.1-0.1   c3.4,0,6.8-0.2,10.1,0c2.8,0.2,5.4,1,7.3,3.4c1.3,1.6,1.3,3.3,0.7,5c-0.5,1.7-3,2.7-4.8,2.2c-1.3-0.4-2.6-1-3.9-1.2   c-0.1,0-0.1,0.1-0.3,0.2c0,0.8-0.1,1.8-0.1,2.7c-0.7-1.6-0.4-3.3-0.8-5c-0.2-0.8-0.2-1.7-1.2-2c-1,1.1-0.6,2.3-0.6,3.6   c-4.1,0.3-8.1-1.1-12.3-0.2c0,0.7-0.2,1.3,0.2,2.1c2.1,0.2,4.2,0.7,6.4,1.1c2,0.3,4.4,0,6,2.5c0.1-1,0.1-1.6,0.2-2.2   c0.5,2.2,0.9,4.4,0.9,6.7c-0.4-0.1-0.4-0.4-0.6-0.8c-1.6,2.8-4.6,2.8-7.1,3.7c-2.2,0.7-4.6,0.1-6.8,1.2c0,0.8,0,1.7,0,2.6   c0.8,1.4,2.5,0.7,3.7,1.2c0.9,0.4,2.1,0.4,3.1,0.5c3.2,0.5,3.2,0.4,5.2,2.5c0.5,1.9,0.1,3.8-0.8,5.5c-1.6,0.1-3.1-0.2-4.7-0.5   c-2.7-0.4-5.5,0-8.2-0.6c-2.4-0.5-4.5,0.2-7,0.3c0.3,0.3,0.4,0.6,0.6,0.6c2.3,0.3,4.7,0.5,7,0.7c0.1,1.1-0.3,2.2,0.5,3.2   c-3.3-0.7-6.5-1.4-9.8-2c-3.9-0.7-7.9-0.7-11.9-0.2c-1,0.1-2.2,0.2-2.7,1.5c0.8,0.8,1.7,0.5,2.5,0.5c3.5-0.2,7-0.1,10.5,0.4   c3.7,0.5,7.4,1.2,10.9,2.4c0.7,5.2,0.5,10.4,0.5,15.6c0,0.6,0,1.1,0.4,1.5c0.2,0.2,0.2,0.6,0.4,0.8c2.5,3.8,1.5,7.3-0.7,10.8   c-2.4,3.7-4.9,7.4-7.4,11.2c-0.9,1.3-1.1,2.9-1.6,4.3c-0.3,0.8-0.5,1.6-1.1,2.3c-1.5,1.8-2.2,4-3.5,6c-0.8,1.2-1.9,2.1-2.8,3.1   c-0.5,0.5-1.2,0.9-1.8,0.9c-2,0-4.1,0.5-5.8-1c-1.6,1.6-3,7.1-2.8,10.6c0.2,0.5,0.7,0.6,1.1,0.8c0.9,0.6,1.6,1.5,1.6,2.7   c0.1,3,0.1,6-1.5,8.8c-0.1,0.2-0.2,0.4-0.3,0.6c0,0.1,0,0.2,0,0.3c0.7,0.3,1.5,0.3,2.2,0c1.2-0.4,2.5-0.7,3.7-1.3   c1-0.4,1.9-0.4,3-0.4c0.7,0.4,1.2,1,1.8,1.6c0.3,2-0.5,3.2-2.3,4.3c-3.2,1.9-6.6,2.3-10.3,2.1c-1.5-0.1-2.3-1.3-3.4-1.9   c-0.3-3.8,0.3-7.6,0.7-11.5c0.2-2.7,0.3-5.5,0.6-8.2c0.4-3,0.3-6.1,0.6-9.1c0.5-4.3,0.5-8.6,1.2-12.8c0.1-0.8,0-1.7,0.1-2.6   c0.6-10.2,1-20.3,1.2-30.5c0.1-5.9,0.2-11.7,0.2-17.6c0-0.2,0.1-0.4,0.2-0.8c1,0.2,2,0.4,3.1,0.2c-0.9-0.9-2.1-1.1-3.1-1.5   c-0.5-1.6-0.8-13.6-0.5-20.3c3.6,0.6,6.6-1,9.8-2.2c3.3-1.3,6.6-2.8,9.9-4.3c0.8-0.4,1.8-0.6,2.2-1.6c-1.2-0.3-2.4-0.2-3.5,0.2   c-4.6,1.2-9.2,2.4-13.6,4.2c-1.6,0.7-3.3,0.9-5.1,1.1c-0.3-1.3-0.2-2.6-0.8-3.7c0.1-0.6,0.1-1.1-0.4-1.5c0-0.2,0-0.5,0-0.7   c0.6-0.3,1,0.4,1.6,0.3c0.2-0.2,0.6-0.4,0.8-0.7c2.6-2.9,5.8-4.9,9.4-6.4c3.7-1.6,7.6-2.9,11.3-4.5c0.8-0.3,1.7-0.5,2.3-1.3   c-1-0.9-2-0.3-2.8-0.1c-5.8,1.6-11.5,3.3-16.8,6.4c-0.1,0.1-0.3,0-0.4-0.1c-0.1-0.4,0.3-0.7,0-1.2c-0.2-0.3-0.6-0.5-1.1-0.6   c-1.2,0.4-2.2,1.1-2.4,2.4c0,0.9,0.8,0.9,1.3,1.5c-0.9,1-1.9,1.9-2.8,3.4c-0.1-1-0.1-1.5-0.1-2c0.5-2.4,1-4.7,0.5-7.1   c-0.2-0.7-0.1-1.5,0.5-2.4c0.7,0.5,0.4,1.7,1.6,1.9c0.9,0,1.4-0.7,1.7-1.7c0.1-0.8-0.8-1-0.9-1.7c0.3-1,1-2,2-2.6   c0.9-0.6,1.9-1.1,2.8-1.7c3.3-2,6-4.7,8.2-7.9c1.6-2.4,2.9-4.9,4.5-7.3c0.3,0.8,0.6,0.1,0.8-0.1c0.8-0.6,1.3-1.4,2.3-1.8   c3.7-1.4,7.3,1.5,7.7,5.4C489.2,220.5,488.6,222.1,488.5,223.8c-0.6-0.5-0.5-1.3-0.8-1.9c-0.8-1.9-1.5-3.9-2.3-5.8   c-0.2-0.6-0.5-1.2-1.5-0.5c1,3.7,2.4,7.3,4.7,10.8C489.2,225.2,488.4,224.6,488.5,223.8z M489,254.2c0-0.2-0.1-0.4-0.1-0.6   c-2.2,0.4-4.5,0.1-6.7,0.6c-3,0.6-6.1,1.1-9.2,1.7c-2.6,0.5-5.2,1.1-7.7,1.8c-1.1,0.3-2.4,0.5-3.1,1.7c0.4,1.1,1.1,1,1.9,0.7   c5.7-1.4,11.3-2.7,17-4.1C483.8,255.5,486.4,254.8,489,254.2z M489.7,264.7c-1.3,0-2.6,0-4,0c-6.9-0.3-13.7,0.1-20.6,0.4   c-0.8,0-1.8,0-2,1.1c1,0.9,1,1,1.9,1c1.6,0,3.1,0,4.7-0.1C476.5,266.7,483.1,265.8,489.7,264.7z M477.2,302.3   c-0.2-0.6-0.5-0.8-0.8-1c-3.7-1.7-7.2-3.7-11.1-5.1c-0.9-0.3-1.8-0.6-2.8-0.5c-0.7,0.1-1.2,0.3-1.2,1.4c4.3,1.2,8.5,3.1,12.8,4.5   C475.1,302,476,302.6,477.2,302.3z M469.9,230.1c0.5,0.4,1,0.5,1.4,0.3c2.4-1.6,5-2.9,6.8-5.2c0.1-0.2,0.1-0.4,0.1-0.6   c-0.5-0.6-1-0.7-1.6-0.3c-2.3,1.3-4.4,2.6-6.3,4.4C469.9,228.9,469.6,229.3,469.9,230.1z M466.5,311.3c2.5,1.9,8.3,3.7,11.6,3.3   c-3.9-1.7-7.3-3.2-10.6-4.6C466.7,310.3,466.3,310.6,466.5,311.3z M460.1,273c1.9,1,5.4,1.2,7.3,0.6   C465.5,272.5,462.7,272.2,460.1,273z" />
	<path fill="#E2C8B7" d="M71.3,454.3c0.4-0.2,5.3-1.9,5.7-1.9c3.6,0.3,6.8-0.8,10-2.2c1.1-0.4,2.3-0.9,3.7-0.6   c0.5,0.4,1.3,0.8,1.2,2c-2.5,2.1-6.1,2.5-8.8,4.6c-0.2,2.4-1.3,3.9-3.9,4.2c-1.8,0.2-3.3,1.6-5,2.5c1.9,1,4.1,0.9,6.1,1.6   c0.3,0.1,0.8,0.1,1.1-0.1c2.4-1.5,4.8-0.8,7.2-0.1c1.8,0.6,3.8,0.6,5.6,1.1c0.7,0.2,1.6,0.3,2.3,0c1.5-0.6,3.1-0.4,4.6-0.4   c5.7,0,11.4,0,17.2,0c3.7,0,7.4-0.5,11.1-0.8c2.9-0.3,5.8-0.8,8.7-1.1c2.3-0.3,4.7-0.5,7-1.2c1.1-0.4,2.4-0.4,3.6-0.5   c2.9-0.2,5.8-0.9,8.7-1.1c2.5-0.2,5-1,7.5-0.8c2.8,0.2,5.7,0.3,8.5,0.7c2.3,0.4,4.5,0.7,6.8,1c3.1,0.5,6.1,1.3,9.2,2   c4.5,1,8.9,2,13.4,2.9c4,0.8,8,1.4,11.9,2.1c2.4,0.4,4.8,0.8,7.3,1.1c2.1,0.3,4.2,0.7,6.3,1.1c2.8,0.5,5.6,0.9,8.3,1.7   c2.1,0.6,4.1,0.3,6.2,0.7c2.3,0.4,4.4,1.4,6.6,1.8c2.9,0.5,5.7,1.1,8.6,1.2c3,0.2,6,0.3,9,0.9c1.7,0.3,3.4,0.3,5.1,0.4   c2.9,0.1,5.9,0.8,8.8,0.6c1.6-0.1,3,0.6,4.6,0.5c1.5-0.1,3.1-0.4,4.6,0.4c0.3,0.2,0.8,0,1.2,0c4.8,0.1,9.4,1,14.1,2   c2.2,0.5,4.4,1.1,6.8,1.8c1.3-1.2,3-1.5,4.8-1.5c1.6,0.1,3.3-0.1,4.9,0c4.3,0.3,8.5-0.6,12.8-0.5c3.6,0,7.1,0.4,10.8,1   c-2.7-6.7-5.4-13-5.8-20.2c2-1.6,0.7-3.5,0.3-5.3c-0.4-1.7-1.2-3.3-1.1-5.1c1.4,2.9,2.8,5.7,4.2,8.6c0.2,0.5,0.4,1.1,0.4,1.6   c-0.2,3.6,1.6,6.5,3.4,9.3c5.4,8.3,12.1,15.3,20.3,20.9c0.3,0.2,0.7,0.4,0.9,1c-1,0.3-1.9,0-2.9-0.1c-4.6-0.7-9.1-1.5-13.7-2.1   c-1.9-0.2-4-0.8-5.9,0.6c-0.3,0.2-0.9,0.2-1.4,0.1c-3.8-0.5-7.5,0-11.2,0.1c-3.8,0.2-7.5-0.4-11.2-0.6c-3.9-0.3-7.8-0.8-11.7-1.2   c-5.6-0.6-11.2-1.3-16.7-2.2c-4-0.6-8-1.3-12-1.9c-4.2-0.7-8.4-1.8-12.6-2.7c-4.4-0.9-8.7-1.6-13.1-2.2c-5-0.7-10-1.5-15-2.2   c-4.3-0.6-8.6-1.2-12.8-2.4c-0.7-0.2-1.5-0.3-2.2,0.2c-0.3,0.8,0.6,0.9,0.8,1.4c-0.2,0-0.4,0.1-0.6,0.1c-6.3-1.1-12.6-2-19-2.8   c-5.6-0.7-11.1-1.5-16.7-2.2c-3.8-0.5-7.6-0.6-11.4-1.1c-5.8-0.7-11.7-0.9-17.5-1.2c-1.5-0.1-3-0.1-4.5-0.1   c-5.3,0.2-10.5-0.4-15.7-0.5c-2.7,0-5.3,0-7.8,1.2c-0.5,0.2-1.1,0.2-1.6,0.2c-5,0.1-10,0-15.1,0.2c-5.2,0.2-10.3-0.4-15.5-0.3   c-1.4,0-2.8-0.2-4.2,0.5c-0.3,0.2-0.8,0.1-1.2,0c-5.8-0.4-11.7-0.8-17.5-1.3c-0.6,0-1.2-0.2-1.8-0.4c-6.3-1.9-12.7-3.7-19.1-5.1   c-2.3-0.5-4.6-0.9-7-0.8c-1.1,0-2,0.2-2.7,1.3c-4.2-0.9-8.3-0.9-12.5-0.6c-1.9,0.1-3.7,0.6-5.6,0.5c-0.5-0.1-1.1,0.2-1.5-0.4   c0-0.5,0-1,0-1.5c3.2-1,6.4-1.6,9.7-1.4c0.8,0.1,1.5-0.2,2.2-0.5c2.5-1.4,5.3-1.8,8.1-2.3c3.2-0.6,6.5-0.7,9.8-1.3   c1.6-0.3,3.4,0,5.1,0c-0.4,0.5-1.4,0.6-1,1.8c0.9,0.3,1.7,0.3,2.2-0.7c-0.1-0.7-0.5-0.8-0.9-1.1c0.7-0.8,1.7-0.8,2.6-1   c1.4-0.3,2.9-0.2,3.9-1.5C70.2,454.1,70.8,454.3,71.3,454.3c-0.5,0.6-1.6,0.7-1.8,1.9c1.6,0.1,3.1,0.3,4-1.2   C72.6,454.3,72.6,454.3,71.3,454.3z M52,461c2.1,0.9,4.2,0.5,5.7-1.2c-1.4-1.2-2.9-0.9-4.4-0.5C52.5,459.5,51.9,459.9,52,461z" />
	<path fill="#FBE4C4" d="M312.6,401.2c-0.3,0.4-0.7,0.8-1,1.3c-0.8-0.4-0.1-0.8,0-1.1c1.8-4.4,4-8.6,6.6-12.6c1.9-2.9,4-5.8,6-8.7   c0.5-0.7,1.1-1.3,1-2.1c-0.6-0.5-1-0.4-1.4,0c-0.7,0.7-1.5,1.4-2.1,2.2c-2.3,3-4.4,6.1-6.4,9.3c-2.7,4.4-4.6,9.2-6.1,14.2   c-0.8,0.1-0.2,1.2-1.1,1.4c-1-0.3-2.2-0.8-3.4-0.3c-0.7,0.5-0.8,1.2-1.1,2c0.5,2,2.5,2.5,3.8,3.8c0,0.7,0,1.4,0,2.1   c-0.2,0.6-0.7,0.4-1.1,0.4c-1.5-0.3-3-0.6-4.5-0.9c2-2.8,1.9-4.8-0.6-7.3c-0.6-0.6-1.3-1.1-1.7-1.4c-0.1-1.1-0.1-1.6-0.1-2.1   c1-3.8,2.6-7.4,4.1-11.1c0.5-1.3,1.1-2.6,1.7-3.8c0.5-0.2,1.1,0.3,1.4-0.5c0.7-0.4,1-1.1,1.4-1.8c2.6-4.5,5.9-8.6,9.4-12.5   c1-1.2,2.1-2.3,2.7-3.8c-1-0.7-1.7,0.1-2.2,0.6c-1.6,1.6-3.2,3.2-4.8,4.8c-6.3,6.7-10.6,14.6-14.6,22.8c-0.8,1.6-1.6,3.3-2.4,5   c-0.8-0.3-0.2-1-0.5-1.4c1.9-6.1,4.8-11.7,7.8-17.2c2.6-4.7,5.4-9.3,8.1-13.9c1.1-1.1,1.9-2.4,2.3-4c-1.1,0.9-2.1,1.8-2.7,3.1   c-1.1,1.5-2.2,3-3.2,4.5c-4.2,6.4-8.2,13-11.4,20.1c-0.3,0.6-0.6,1.3-0.8,1.9c-0.6,1.6-1.2,3.1-2,4.6c-1.8-0.8-3.5-1.4-5.6-0.4   c-0.4-1.6-2.3-2.2-2-3.9c0.8-3.7,2.4-7.1,4.1-10.4c3.7-7.3,8.4-13.9,13.7-20.1c2.3-2.7,4.5-5.6,7.2-8c0.2,0.1,0.4,0.2,0.3,0.5   c-0.3,0.8-1,1.4-1.5,2s-1.1,1.2-1,2.2c1.7-1.4,2.9-2.8,3.8-4.6c0.3-0.5,0.7-1.1-0.1-1.6c-0.2-0.3-0.6-0.4-0.9-0.4   c-0.2-0.1-0.5-0.2-0.6-0.5c2.8-1.9,5.9-2.8,9.4-3c0.6,0.4,1.3,0.8,1.9,1.1c0.5,1.5,0.9,2.9,1.3,4.4c0.1,0.4-0.1,0.6-0.4,0.7   c-1.2-0.3-1.7,0.4-1.9,1.5c-0.7,3.1-1,6.2-0.6,9.3c0.1,1.3-0.2,2.2-0.9,3.2c-2.5,3.6-5,7.2-7.4,10.8c-1.8,2.7-3.5,5.3-4.4,8.5   c-0.2,0.8-0.5,1.6,0.2,2.5c1-0.5,1.4-1.4,1.7-2.2c0.6-1.3,1.3-2.4,2-3.6c0.4,0.1,0.6,0.3,0.6,0.7c-0.6,0.6-0.9,1.4-1,2.2   c-1,0.7-0.5,1.3,0.2,1.8c0.7,0.4,1.2,0.1,1.2-0.8c2.9-5.9,7.2-11,10.3-16.6c-0.3-0.8-0.7-1-1.3-0.9c-0.6-0.1-0.5-0.5-0.5-0.9   c0.6-1.1,1.3-2.3,1.9-3.5c0.4-0.8,0.7-1.7,0.2-2.6c-0.3-0.1-0.5-0.2-0.8-0.2c0-1.3,0-2.5,0-3.7c0-1.4-0.1-2.9,0.6-4.2   c0.2,0,0.5,0.1,0.8,0.2c0.8,5.6,0.4,11.3,1,16.8c-0.4,1.9,0.7,3.3,1.6,4.7c1.3,2,3.2,3.6,4.9,5.3c-0.5,0.7-0.9,1.2-1.3,1.8   c-2.2,2.7-4.1,5.7-5.9,8.7c-1.2,2.2-2,4.5-3.2,6.7c-1,0-1.7-0.7-2.5-1c-1.7-0.6-3.2-0.7-4.7,0.4   C313.8,400.7,313.4,399.9,312.6,401.2z M318.9,355.2c-0.8-1.1-1.5-1-2.2-0.6c-0.5,0.3-1,0.8-1.4,1.2c-5.8,5.3-10.5,11.5-14.6,18.3   c-1.2,2-2.3,4.1-3.2,6.2c-0.4,0.9-0.8,1.9-0.3,3.1c0.8-0.6,1.3-1.4,1.8-2.2c1.1-1.8,2.2-3.6,3.2-5.4c3.9-6.4,8.4-12.4,13.7-17.8   C316.9,357,317.9,356.2,318.9,355.2z" />
	<path fill="#F6DAC8" d="M323.4,356.4c0.3-0.1,0.5-0.3,0.4-0.7c-0.5-1.5-0.9-2.9-1.3-4.4c1.6,1.3,3.4,1.1,5.1,0.7   c4.4-0.9,8.8-0.9,13.2-1.2c1.4-0.1,2.8,0,4.2-0.5c0.8,1.2,0.7,2.5,1,3.8c1.7,8.2,3.2,16.5,4.4,24.8c0.4,2.7,1.2,5.3,1.6,8   c0.3,2.2,0.4,4.5,0.5,6.8c0,0.2,0,0.3,0,0.5c0.2,6.1,0.2,6.1,2.7,11.5c-0.5,0.3-1.1,0.2-1.7,0.1c-0.2-2-0.9-3.8-2.5-5.1   c-0.3-0.2-0.7-0.4-1-0.5c-0.5-0.1-0.8,0.3-1.2,0.6c-0.2,0.2-0.4,0.6-0.9,0.4c0.8-2.3,1.6-4.6,2.5-6.9c0.5-1.3,0.9-2.6,0.8-4.1   c0-0.7-0.3-1.2-1.1-1.4c-0.3,0.2-0.7,0.5-1,0.8c-0.4-0.5-0.5-1.3-1.4-1.2c-1,0.4-0.8,1.5-1.3,2.2c-2.1-0.8-3.6-2.2-5.4-3.1   c-0.9,1,0.2,1.8-0.2,2.8c-0.5,1.3-0.8,2.7-1.4,4c-1.2,2.9-2.4,5.8-3.7,8.7c-0.7,0-1.4,0-2.4,0c-0.5,0.6-1.1,1.3-1.7,2   c-0.3,0.4-0.5,0.2-0.6-0.2c0.1-0.4,0.1-0.8,0.2-1.1c1.9-5.9,4.2-11.5,8.1-16.5c0.5-0.6,1.4-1.3,1.1-2.4c-0.9-0.2-1.3,0.5-1.7,1   c-1.9,2.4-3.9,4.7-5.3,7.4c-1.7,3.2-3,6.5-4.2,9.9c-0.7,0.1-1.2-0.5-1.8-0.7c0-0.4,0-0.7,0-1.1c0.3-1.4,1.3-2.6,1.8-3.9   c0.9-0.3,0.8-1,1-1.8c-0.8,0.1-1.2,0.3-1.3,0.9c-0.6,0.1-0.3,0.9-0.9,1c-0.3,0-0.5-0.3-0.6-0.6c1.6-4,4.3-7.2,6.5-10.7   c0.6-0.1,1.1-0.2,2.2-0.4c-2.3-1,0.3-2.3-0.9-3.3c-1-0.6-1.4,0.6-2.3,0.4c-0.8-0.3-1.4-1.1-2-1.8c-1.4-1.7-2.8-3.3-3.8-5.3   c-0.3-0.6-0.7-1-1.4-0.9c-0.6-5.6-0.2-11.3-1-16.8c-0.3-0.1-0.5-0.1-0.8-0.2C323.5,357.4,323.5,356.9,323.4,356.4z" />
	<path fill="#E2C8B7" d="M507.8,410.6c0.6,0.2,1.1,0.5,1.9,0.3c1.6-0.4,3.3-0.5,5-0.8c1-0.2,2,0.2,2.9,0.5c2.7-1.6,5.5-1.9,8.5-1   c3.1,0.9,6.2,1.7,9.3,2.3c3.4,0.6,5.8,2.7,8.3,4.7c0.5,0.4,0.9,0.9,1.3,1.3c2.2,2,3.7,4.3,3.8,7.4c0,0.3,0.3,0.5,0.4,0.8   c-1.7,0-3.1-0.8-4.7-1.2c-1.4-0.4-2.7-0.6-4.1-0.9c-0.8-0.1-1.4,0-1.8,0.8c0.2,1,1.2,1.3,2,1.7c2.2,1.1,4.5,1.8,6.8,2.4   c0.4,0.1,0.8,0.1,1,0.5c-1,0-1.9,0.2-2.8,0.9c-2.5,1.9-5.2,2-8,0.5c-2.2-1.2-4.4-2.6-6.9-3.7c-4.7,1.5-8.8-0.4-12.6-3.3   c0.4,0,0.8-0.1,1.1-0.2c1.4-0.3,2.9-0.3,4.3-0.8c0.7-0.3,1.3-0.5,0.8-1.5c0.3-0.9,2.1-0.4,1.7-2c-0.9-0.9-1.9-0.7-3.1,0.1   c0.6,0.6,0.3,1-0.3,1.4c-0.4,0-0.8-0.1-1.2,0c-4.7,0.6-9.3,0.6-14,0.1c-1.2-0.1-2.5-0.1-3.7-0.1c-0.5,0-1-0.1-1.1,0.6   c-0.2-0.2-0.4-0.3-0.7-0.6c1.8-0.6,3.3-0.1,4.9-0.4c-0.7-0.5-1.3-0.5-1.9-1c-2.1-1.9-2.8-4.1-0.2-6.4c0.5-0.4,1-0.8,1.2-1.4   C507.6,411.7,507.6,411.7,507.8,410.6z M518.8,419.5c-0.5-1.1-1.2-1.4-2.1-1.5c-1.3-0.2-2.6-0.7-3.8-1.2c-2-0.9-4-1.7-6-2.6   c-0.4-0.2-0.8-0.6-1.3-0.1C507.9,417.7,515.3,420.8,518.8,419.5z M536.1,423.6c-0.6-2-2.2-1.9-3.6-2.3c-1.3-0.3-2.5-0.8-3.6,0.5   c-0.1,1.3,0.8,1.6,1.6,1.7C532.4,423.8,534.1,425,536.1,423.6z" />
	<path fill="#E2C8B7" d="M745.3,449.2c6.9,0,13.8-0.2,20.7,0.1c3.1,0.1,6.2,0.1,9.3,0.5c2.4,0.3,4.8,0.2,7.2,0.4   c3.8,0.4,7.5,0.6,11.3,1c5.2,0.5,10.5,0.8,15.7,1c1.8,0.1,3.7,0.1,5.4,0.7c0.9,0.3,2.1,0.3,3,0.1c3.1-0.7,6.4-0.8,9.5-1.4   c0.8-0.2,1.7-0.2,2.2-1c1.7,2.2,2.3,2.7,5,3.9c-0.1,1.6-0.2,3.2-0.2,4.9c-2,0.9-4.3,1-6.4,1.5c-1.4,0.3-2.9,0.4-4.4,0.7   c-3.2,0.7-6.4,0.2-9.5-0.3c-9.4-1.7-18.7-3.4-28.1-4.8c-5.7-0.8-11.5-1.4-17.2-2.1c-6-0.7-11.8-1.8-17.6-3.5   C749.2,450.2,747.2,450,745.3,449.2z" />
	<path fill="#EF8A6A" d="M371,488.6c1.6-0.3,2.6-1.6,3.9-2.3c0.9-0.5,1.8-1,2.8-1c2.3,0,4.5-0.9,6.8-1.1c2-0.2,3.9-0.7,5.9-0.7   c8.7-0.1,17.4,0,26.1-0.1c1.3,0,2.5,0.7,3.9,0.5c-1.9,1.5-4.2,2.3-6,3.5c-0.5,0.8,0.3,1.1,0.1,1.8c-2.5,0.7-5.2,1.3-7.8,2   c-2.8,0.8-5.6,1.7-8.5,2.5c-3.9,1-7.9,1.6-12,1.4c-1.4,0-2.8,0.1-4.2,0.9C378.3,493.7,374.5,491.4,371,488.6z" />
	<path fill="#EF896A" d="M438.2,199.8c1.3-3.3,3.3-5.8,6.9-6.7c2.2-0.5,4.4-0.7,6.5,0.5c0.8,0.5,1.6,1.2,2.7,1.1   c0.4-0.2,0.4-0.7,0.4-1c0.7,1.2,0.6,2.6,0.7,3.8c0.3,2.6,0.5,5.3,0.6,7.9c0.4,8.7,0.5,17.3,0.5,26c0,1.2,0.2,2.5-0.8,3.5   c-0.6,0.6,0.1,1.7-0.9,2.5c-1.2-3.4-2.3-6.8-3.5-10.2c-2.8-8.1-5-16.3-7.5-24.5c-0.5-1.7-1.1-3.4-1.7-5.1c-0.2-0.6-0.3-0.6-1.3-1   c-0.6,0.5-0.2,1.2-0.3,1.8c0,0.8,0,1.7-1,2l0,0C439.4,199.4,438.7,199.9,438.2,199.8z" />
	<path fill="#E1C8B7" d="M128.2,425.1c1.6-0.7,3.3-0.6,4.9,0c1.6,0.6,3.2,0.9,4.9,0.9c4.4,0,8.7,0,13.1,0c3.4,0,6.7-0.3,10.1-0.8   c1.6-0.2,3.2-0.6,4.7-1.1c0.7-0.2,1.3-0.3,2-0.4c3.1-0.3,6.3-0.5,9.4-0.8c3.7-0.4,7.4-1.2,11.1-1.6c2.6-0.3,5.1-0.2,7.6-0.3   c1.6-0.1,3,0.4,4.1,1.7c0.6,0.7,1.3,1.4,2.4,1.2c-2.4,0.9-5,1.1-7.5,1.3c-6,0.4-12,0.6-18,1.1c-5,0.4-9.9,1-14.9,1.7   c-3.6,0.5-7.2,0.7-10.7,1.1c-3.9,0.4-7.8,0.9-11.6,1.5c-1.9,0.3-3.6,0-5.2-0.6C132.1,428.7,129.7,427.5,128.2,425.1z" />
	<path fill="#EE896A" d="M354,436.8c0.5,1.9,1.4,3.6,2.1,5.3c1.1,2.6,2.7,5,3.6,7.7c0.3,0.8,0.3,1.5,0.3,2.2c-0.6,1-1.3,1.6-2.5,1.2   c-1.3-1-2.1-2.2-2.8-3.6c-2.2-4.4-4.4-8.8-6.4-13.3c-0.5-1.2-1.1-2.4-0.9-3.6c0.4-1.2,1.6-1.3,2.3-2.1c-0.2-1.3-1-2.4-0.9-3.7   c0-0.6-0.3-1.3-0.8-1.6c-1.5-0.7-2-2.1-2.5-3.4c0.1-0.3,0.1-0.6,0.2-1c1.6-0.1,3.3,0,4.1-1.8c1.2-0.8,2-1.9,2.4-3.4   c0.2-0.5,0-1.4,0.7-1.8c0.1,0.2,0.3,0.4,0.3,0.6c3.1,8.2,7.1,16,11.4,23.8c0.8,1.5,2,2.9,2.5,5c-2.4-1.9-3.6-4.2-5.1-6.3   c-0.6-0.9-0.5-1.7,0-2.7c-1.2,0.1-1.8-0.5-2.1-1.4c-0.5-1.3-1.2-2.5-1.7-3.8c-1.2-2.9-2.2-5.8-3.4-8.7c-0.3-0.6-0.3-1.6-1.5-1.6   c-0.5,0.6-0.6,1.4-0.7,2.2c-0.3,2.6,0.2,5.1,1.1,7.6c0.8,2.2,1.7,4.5,2.6,6.7c-1,0.6-2.4-0.1-3.1,1   C353.5,436.3,353.8,436.6,354,436.8z M352.8,435.1c0.5-1.7-0.2-2.9-0.4-4.1c-0.3-2.2-1.4-4.2-0.8-6.5c0.2-0.6-0.3-1.2-1.2-1.2   c-1.2,1-0.8,2.4-0.6,3.6C350.2,429.7,350.7,432.6,352.8,435.1z" />
	<path fill="#D6BF9F" d="M351.1,400.7c1.6,1.3,2.3,3.1,2.5,5.1c-2.3,0-3.2,1.7-3.8,3.5c-0.5,1.6-0.7,3.3-2.3,4.4   c-0.5,0.3-0.6,1-0.6,1.7s0,1.4,0,2c-0.9,0.9-2.1,0.5-2.8,1.2c-3.4-1.8-6.8-3.3-10.8-3.4c-0.8-0.5-1.4-1.7-2.7-1.3   c-0.5-0.1-0.6-0.5-0.6-0.9c0-1,0-2,0-3c0-1.8,0.3-3.5,1-5.1c0.1,0.3,0.3,0.6,0.6,0.2c0.6-0.7,1.2-1.4,1.7-2c1,0,1.8,0,2.4,0   c0.2,1.1-0.5,1.9-0.7,2.9c-0.3,1.2-0.6,2.4,0,3.6c1.5,0.5,1.8-0.5,2.2-1.5c0.9-2.8,1.6-5.6,2.8-8.3c0.1,0.3,0,0.6,0.5,0.9   c0.8,0,1.8,0,2.9,0c-0.1,0.4-0.2,0.8-0.3,1.1c-1,3-2.1,6-3,9.1c-0.6,1.9-0.4,2,1.6,2.8c1-0.4,1.6-1.3,2-2.2   c0.8-1.5,1.4-3.1,2.2-4.6c0.7-1.3,1.4-2.7,3.3-3.6c-0.4,1-0.6,1.7-1,2.3c-0.8,1.6-1.6,3.2-2.4,4.8c-0.4,0.7-1,1.5-0.2,2.4   c1.4,0.3,1.9-0.8,2.5-1.6c1.2-1.9,2.2-3.9,3-6.1C351.3,403.7,351.5,402.2,351.1,400.7z" />
	<path fill="#EE896A" d="M457.5,195.6c2.8,1,4.5,3.1,5.9,5.5c0.4-0.5,0.2-1,0.3-1.4c0.4,0.3,0.3,0.8,0.3,1.3   c0,8.3-0.5,16.5-2.1,24.7c-0.2,1.1-0.3,2.2-0.5,3.2c-0.3,2-0.3,2-2.2,3.8c-0.3-0.5-0.2-1-0.2-1.5c0-4.8,0.1-9.6-0.1-14.3   c-0.2-5.5-0.2-10.9-0.9-16.4C457.8,198.8,457.4,197.2,457.5,195.6z" />
	<path fill="#EBD98F" d="M448.5,473.6c-4.4-2.8-7.5-6.9-11.3-10.7c2.2-6.7,5.4-13.1,6.9-20.2C444.6,453.1,445.6,463.4,448.5,473.6z" />
	<path fill="#EE896A" d="M465.5,197.5c0.5,0.1,0.5,0.4,0.5,0.9c0,1.6,0,3.2,0,4.9c3.5,2.4,5.6,5.6,6.1,9.8c0.1,0.9,0.3,1.9,0.8,2.8   c-2.8,5.3-6.7,11.2-9.9,12.7C465.3,218.1,465.9,207.8,465.5,197.5z" />
	<path fill="#E1C8B7" d="M876.6,434.5c-0.1,1.1,1,1.5,1.4,2.4c0,0.9,0,1.8,0,2.8c-3.4,5.4-8.8,6.8-13.4,3.5c-1.1-0.4-2.2,0.3-3-0.6   c1-0.2,2.2,0.5,2.9-0.8c-0.1-1.3-1.5-0.9-2-1.5c0.9-0.5,0.8-1.4,1-2.2c0.4-1.2,0.9-2.3,1.9-2.8c2.8-1.5,5.6-2.8,8.9-1.7   c0,0.7-0.4,1.5,0.2,2.2C875.9,436.3,875.9,434.7,876.6,434.5z M873.4,437c-2.1,1.3-4.4,2.6-6.7,4c1.1,1.3,1.2,1.4,2,1.2   c2.4-0.7,4.5-1.9,6-3.9C874.5,437.7,874.3,437.3,873.4,437z" />
	<path fill="#D7C0A0" d="M286.2,394c-0.3,1.8,1.6,2.3,2,3.9c2-1.1,3.8-0.4,5.6,0.4c0.1,0.7-0.2,1.4-0.3,2.1c-1,3.1-1.8,6.3-2.1,9.6   c0,0.3-0.2,0.6-0.3,0.9c-2,0-3.9,0.2-6-0.1c-0.4-2.8,1.1-5.3,1.2-8.5c-1.6,2.8-1.9,5.5-2.7,8C283.7,404.7,284.4,399.3,286.2,394z" />
	<path fill="#F6D9C8" d="M874.3,433.6c-3.3-1.1-6.2,0.2-8.9,1.7c-1,0.5-1.6,1.6-1.9,2.8c-0.2,0.7-0.2,1.7-1,2.2   c-0.6,0-1.3,0-1.7-0.7c0.2-2.5,1-5.1-0.1-7.8c1.4-1.5,2.7-3.2,3.7-4.9c3.6,0.4,7.2-0.9,10.3,1.5c0.3,0.4,0.2,0.9,0,1.4   c-0.4,0.9-0.5,1.7,0.1,2.6C875,432.7,874.8,433.3,874.3,433.6z" />
	<path fill="#F8E1C2" d="M275.9,398.2c0.2-3.7,1.7-6.9,3.1-10.2c0.5-1.3,1.1-2.6,1.9-3.8c3.8-5.5,6.6-11.7,11.2-16.7   c0.4-0.4,0.7-1.1,1.4-1.2l0,0c0,0.2,0,0.5-0.1,0.6c-5.7,7.8-9.1,16.5-10.8,26c-0.1,0.4-0.2,0.7-0.4,1.1c-2.6,0.9-4.2,3-6.1,5   C276,398.7,275.9,398.5,275.9,398.2z" />
	<path fill="#D7C0A0" d="M312.6,401.2c0.8-1.2,1.2-0.4,1.6,0.3c1.5-1.1,3.1-1,4.7-0.4c0.8,0.3,1.5,1,2.5,1c-0.9,2.6-1.8,5.1-2.6,7.7   c-0.4,1.3-0.8,2.7-0.1,4.1c-0.4-0.2-0.9-0.5-1.3-0.4c-2,0.1-3.8-0.5-5.6-1.1c-0.6-0.2-0.8,0.1-1.3,0.1c0.4-2.6,1.5-5,2.1-7.6   c0.3-1.2,1-2.3,0.6-3.6C313.1,401.2,312.9,401.2,312.6,401.2z" />
	<path fill="#EE896A" d="M438.2,199.8c0.5,0.1,1.2-0.3,1.4,0.5c-0.4,0-0.9-0.3-1.5,0.4c4.9,7.7,6.9,16.5,9.6,25.2   c-0.9,0.1-1.1-0.5-1.4-1c-0.7-1.1-1.6-1.9-2.5-2.8c-0.5-0.5-1.1-0.9-1.9-0.7c-0.2,0-0.3,0-0.5,0c0.1-0.5,0.5-0.8,0.3-1.5   c-0.9-2.1-1.6-4.3-2.3-6.4c-1-2.8-1.9-5.6-1.7-8.7c0.1-1.4,0-2.8,0-4.2C437.7,200.3,437.8,199.9,438.2,199.8z" />
	<path fill="#EFD3C2" d="M891.2,451.9c-2.1,0.7-4,1.3-5.9,1.9c-0.6,0.2-1.2,0-1.7-0.5c-1.2-1-2.6-1.7-4.1-2.1c-0.3-2.6,1.8-6,4-6.8   c0.5-0.2,1.1-0.2,1.6,0c1.2,0.6,2.4,0.4,3.7-0.1C890.7,446.5,890.3,449.3,891.2,451.9z" />
	<path fill="#D4BE9E" d="M275.9,398.2c0,0.2,0.1,0.5,0.1,0.8c1.8-2,3.5-4.1,6.1-5c-0.5,3.5-0.9,7.1-1.4,10.8   c-0.7-0.6-0.3-1.2-0.7-1.6c-1,2.4-0.8,5-0.8,7.5c-1.1,0.4-2.3,0.2-3.3,0.3c-0.7-0.5-0.8-1.1-0.8-1.7c0-3.4-0.2-6.9,0.4-10.3   C275.5,398.7,275.6,398.4,275.9,398.2z" />
	<path fill="#0F0F09" d="M457.4,245.9c0,0.5,0.1,1.1,0.1,2c0.9-1.5,1.9-2.4,2.8-3.4c-0.5-0.5-1.2-0.6-1.3-1.5c0.2-1.3,1.2-2,2.4-2.4   c0.5,0.1,0.9,0.3,1.1,0.6c0.3,0.5-0.1,0.8,0,1.2c0.2,0,0.3,0.1,0.4,0.1c5.2-3.1,11-4.8,16.8-6.4c0.8-0.2,1.8-0.8,2.8,0.1   c-0.6,0.8-1.5,1-2.3,1.3c-3.7,1.6-7.6,2.9-11.3,4.5c-3.6,1.5-6.8,3.5-9.4,6.4c-0.3,0.3-0.6,0.5-0.8,0.7c-0.7,0.1-1-0.6-1.6-0.3   C457.2,247.8,456.6,246.8,457.4,245.9z" />
	<path fill="#0F0D0A" d="M309.3,403.5c1.5-5,3.4-9.7,6.1-14.2c1.9-3.2,4-6.3,6.4-9.3c0.6-0.8,1.4-1.5,2.1-2.2c0.4-0.3,0.8-0.5,1.4,0   c0.1,0.8-0.5,1.5-1,2.1c-2,2.9-4,5.8-6,8.7c-2.6,4-4.8,8.2-6.6,12.6c-0.1,0.3-0.8,0.7,0,1.1c-0.9,1.9-1.8,3.8-2.8,5.8   C308.6,406.6,309.4,405.1,309.3,403.5z" />
	<path fill="#F5DFBF" d="M287.2,382.7c3.6-9.2,8.8-17.3,16.4-23.8c1.2-1,2.1-2.5,3.7-3.1c0.2,0.1,0.5,0.2,0.5,0.4   c-3.4,3.6-6.6,7.4-9.8,11.3c-4,5-7.4,10.4-10.4,16.1C287.1,383.6,287.3,383.1,287.2,382.7z" />
	<path fill="#D5BE9F" d="M330,410c0,1,0,2,0,3c0,0.4,0.1,0.8,0.6,0.9c-0.8,1.2-2,2.1-2.1,3.7c-0.5-0.8-0.7-1.8-1.9-1.9   c-0.8,0-1.2-0.6-1.7-1.1c-0.5-0.7-1.6,0.3-1.9-0.8c0.2,0,0.5,0,0.8,0c0.1-0.3,0.3-0.5,0.3-0.8c0.1-0.5,0.2-1.1,0.2-1.6   c-0.1-3.7,1.4-7,2.9-10.2c0,0.4,0,0.7,0,1.1c0.6,0.3,1.1,0.8,1.8,0.7c-0.1,0.5-0.1,0.9-0.2,1.4c-0.7,2.9-1.3,5.8-1.2,8.7   c0,0.8,0,1.7,1,2.2c0.7-1,0.8-2.1,0.9-3.1C329.7,411.4,329.4,410.6,330,410z" />
	<path fill="#D6BF9F" d="M299.4,401c0,0.5,0.1,1.1,0.1,2.1c0.4,0.3,1.1,0.8,1.7,1.4c2.5,2.5,2.7,4.5,0.6,7.3   c-1.8-0.2-3.7-0.4-5.6-0.6c-0.1-2,1.1-3.5,1.5-5.3C298.1,404.3,298.5,402.6,299.4,401z" />
	<path fill="#F3DAC2" d="M323,413.8c0.3,1.1,1.4,0.2,1.9,0.8c0.4,0.5,0.8,1.1,1.7,1.1c1.2,0,1.5,1,1.9,1.9c0,0.9-0.7,0.5-1,0.4   c-2-0.6-4-1.2-6-1.8c-3.4-1-6.7-1.8-10.2-2.4c-0.3-0.1-0.6-0.2-0.8-0.3c-0.3-0.5-0.3-0.8,0.1-1.1c0.4,0,0.7-0.3,1.3-0.1   c1.8,0.6,3.6,1.2,5.6,1.1c0.4,0,0.8,0.3,1.3,0.4c0.8,0.7,1.2-0.2,1.7-0.5C321.4,413.4,322.3,413.3,323,413.8L323,413.8z" />
	<path fill="#DEC5B4" d="M28,462.8c0,0.5,0,1,0,1.5c0.4,0.6,1,0.3,1.5,0.4c-0.6,0.6-1.4,0.4-2.2,0.5c-0.6-0.6,0.3-1,0.2-1.3   c-0.2-0.8-0.6-1.1-1.3-1.1c-1,0-2,0-3.1,0c-2.4-0.1-4.4-0.9-5.6-3.2c-0.2-0.4-0.5-0.8-0.7-1.2c0.2-0.6,0.4-1.2,1.1-1.4   c0.2,0.8,0.9,0.9,1.4,1C22.6,459.1,25.4,460.7,28,462.8z" />
	<path fill="#DBC2B2" d="M844.2,442.4c0.2,1.9-0.5,3.6-1.2,5.3c-1.2,2.9-2.7,5.7-4.8,8.1c-0.6,0.7-0.7,1.3-0.4,2.1   c0.3,0.1,0.6,0.1,0.9,0.2c-0.4,0.5-0.9,0.4-1.5,0.4c0-1.5,0-2.9,0-4.3c0-0.8,0.3-1.5,0.8-2.1C840.6,449.1,842.2,445.7,844.2,442.4z   " />
	<path fill="#D5BE9F" d="M309.3,403.5c0,1.6-0.7,3.1-0.5,4.7c-0.8,1.3-0.5,3-1.4,4.2c0-0.7,0-1.4,0-2.1c-1.3-1.3-3.3-1.8-3.8-3.8   c0.3-0.7,0.5-1.5,1.1-2c1.3-0.5,2.4,0.1,3.4,0.3C309.2,404.7,308.5,403.6,309.3,403.5z" />
	<path fill="#D27B5F" d="M441.5,221.4c0.2,0,0.3,0,0.5,0c-0.2,0.9,0.3,1.4,0.8,2.1c2.8,3.5,5,7.5,7.1,11.5c0,0.1-0.1,0.3-0.2,0.6   c-0.8-1.1-1.5-2-2.1-3.1c-2.2-3.4-4.6-6.6-6.6-10.2C441.6,222.2,441.5,221.8,441.5,221.4z" />
	<path fill="#CEB69B" d="M353,413.8c-0.8,0.3-0.6,1.2-0.7,1.8c-0.4,1.5-1.2,2.6-2.4,3.4c0-1.1,0-2.2,0-3.3c0.1-0.4,0.5-0.7,0.9-1   c1.2-1,1.7-2.3,1.3-3.9c-0.3-1.2,0.3-2,1.5-2.5c0.3,1.3-0.9,2.5-0.3,3.8C353.2,412.7,353.1,413.2,353,413.8z" />
	<path fill="#282421" d="M186.1,398.4c0.4,0.6,0.8,1.2,0.5,2c-1.2,1.3-2.6,0.5-3.9,0.3c-0.8-0.1-1.1-0.5-1.6-1.7   c0.5-0.8,1.4-0.9,2.2-1c0.4,0,0.8,0,0.8-0.6C184.7,397.8,185.7,397.5,186.1,398.4z" />
	<path fill="#CDB5A6" d="M14.2,457.1c0.4,2.5,0.6,5,2.6,6.8c-2.4,0.5-2.8,0.3-3.5-1.7c-0.3-0.9-0.6-1.8-0.7-2.7   C12.4,458.2,12.6,458,14.2,457.1z" />
	<path fill="#9C8B74" d="M295.7,399.2c0.3,0.4-0.3,1.1,0.5,1.4c-0.3,2.5-1.5,4.7-2.1,7.1c-0.3,1.1-0.8,2.1-1.4,3.2   C293.3,406.9,294.1,403,295.7,399.2z" />
	<path fill="#292421" d="M839.9,458c0.6-0.7,1.4-0.4,2.1-0.4c0.9-1.3,1.8-2.4,2.9-3.2c0.6,0,0.9,0.3,1.1,0.9   c-0.8,1.8-2.1,3.2-4.2,3.8c0-0.6-0.1-1-0.9-1C840.6,458.1,840.2,458,839.9,458z" />
	<path fill="#CDB5A6" d="M14.4,450.5c0,0.3,0.2,0.4,0.5,0.5c-0.8,1-1.9,1.9-2.1,3.2c-0.1,0.4-0.3,0.8-0.8,1   c-1.2,0.6-1.9,1.6-1.9,3.2c-0.7-1.4-0.6-2.4,0.2-3.2c1.2-1.2,2.1-2.6,3.1-4C13.6,451,13.9,450.6,14.4,450.5z" />
	<path fill="#BAA396" d="M881.4,431.2c-0.7,0-0.5-0.9-1.1-0.9c0.5-1-0.5-1.5-0.9-2.2c2.2-0.4,3.8,0.2,5,2c-0.9,0.2-1.5-0.7-2.4-0.6   C881.1,429.8,881.2,430.5,881.4,431.2z" />
	<path fill="#B0A089" d="M287.2,382.7c0.1,0.4-0.1,0.9,0.5,1c-1,2.5-2,5-3,7.5C284.8,388.2,285.8,385.4,287.2,382.7z" />
	<path fill="#A89883" d="M312.7,354.1c0.8,0.5,0.4,1,0.1,1.6c-0.9,1.7-2.1,3.2-3.8,4.6c-0.1-1,0.4-1.6,1-2.2s1.2-1.2,1.5-2   c0.1-0.3-0.1-0.4-0.3-0.5C311.4,354.7,312.6,355,312.7,354.1z" />
	<path fill="#EE896A" d="M439.6,200.3c1-0.3,1-1.2,1-2c0.6,0.9,1,1.9,0.9,3c0,0.5,0.3,0.8,0.5,1.3c-0.1,0.3-0.2,0.5-0.5,0.5   C440.8,202.2,440.2,201.2,439.6,200.3z" />
	<path fill="#C0AF97" d="M307.9,356.3c-0.1-0.3-0.3-0.4-0.5-0.4c1-1.3,2.3-2.2,3.9-2.7c0,0.3,0.3,0.4,0.6,0.5   C310.5,354.6,309.2,355.4,307.9,356.3z" />
	<path fill="#73685A" d="M311.2,367.2c0.6-1.3,1.6-2.2,2.7-3.1c-0.3,1.6-1.1,2.9-2.3,4C311.7,367.7,311.7,367.3,311.2,367.2z" />
	<path fill="#8B7F6D" d="M293.3,366.4c0.6-1.5,1.6-2.6,3.7-4C296,363.9,295,365.4,293.3,366.4L293.3,366.4z" />
	<path fill="#975844" d="M441.5,203.1c0.3-0.1,0.5-0.3,0.5-0.5c0.2,0.2,0.5,0.4,0.4,0.5c-0.2,0.9,0.8,1.7,0.3,2.7   C442.2,204.9,441.6,204.1,441.5,203.1z" />
	<path fill="#908370" d="M306.5,385.6c-0.3,0.7-0.9,0.3-1.4,0.5C305.3,385,305.3,385,306.5,385.6z" />
	<path fill="#EE896A" d="M465,195.6c1,0.4,0.3,1.3,0.5,1.9C464.9,197,465.1,196.2,465,195.6z" />
	<path fill="#0F0F09" d="M457.1,249.5c0.5,0.4,0.4,1,0.4,1.5C456.7,250.7,457.2,250.1,457.1,249.5z" />
	<path fill="#0E0705" d="M353,413.8c0.1-0.6,0.1-1.2,0.2-1.8c0.5-0.1,0.9-0.2,1.4,0.2c2,5.3,4.4,10.5,7,15.7   c3.4,6.8,7.4,13.2,12,19.2c0.3,0.4,0.8,0.8,1.1,1.2c0.3,1.1,1.3,1.8,1.8,2.7c0.3,0.5,0.6,0.9,0.7,1.5c0,0.6,0,1.3-0.6,1.7   c-0.7,0.4-1.3,0.4-1.9-0.1c-0.3-0.2-0.6-0.5-0.8-0.8c-1.8-2.8-4.4-4.8-6.5-7.3c-2.3-2.8-4.4-5.7-6.1-8.8c-0.5-0.9-0.5-0.9-1.7-0.8   c-0.3,0.5,0,0.9,0.2,1.3c0.9,2.4,1.8,4.8,2.7,7.2c0.3,0.8,0.6,1.6,0,2.4c-0.9,0.4-1.4,0-1.7-0.8c-0.3-0.8-0.6-1.6-0.8-2.4   c-0.7-2.4-1.6-4.7-2.6-7.1c-1,0-2.1,0-3.1,0c-0.3-0.2-0.5-0.5-0.8-0.8c0.8-1.1,2.1-0.3,3.1-1c-0.9-2.3-1.8-4.5-2.6-6.7   c-0.9-2.4-1.4-4.9-1.1-7.6c0.1-0.8,0.2-1.5,0.7-2.2c1.1,0,1.2,0.9,1.5,1.6c1.2,2.9,2.2,5.8,3.4,8.7c0.5,1.3,1.2,2.5,1.7,3.8   c0.4,0.9,0.9,1.5,2.1,1.4c-0.4,1-0.6,1.8,0,2.7c1.6,2.1,2.8,4.5,5.1,6.3c-0.5-2-1.7-3.4-2.5-5c-4.2-7.7-8.3-15.5-11.4-23.8   C353.3,414.2,353.1,414,353,413.8z M359.8,434.2c-1.8-3-3.3-6.1-4.6-9.5c-0.1,0.4-0.2,0.5-0.2,0.7c0.6,3,2,5.8,3.1,8.7   C358.3,434.6,358.8,434.8,359.8,434.2z" />
	<path fill="#EF8A6A" d="M379.5,419.8c0,0.5-0.1,1,0.2,1.6c1.6,3.5,3.3,7,4.8,10.5c1.8,4.3,3.6,8.6,5.3,13c0.5,1.1,0.9,2.3,1.2,3.4   c0.3,1.3,0.6,2.7-0.3,4c-2.6-1.5-3.6-4.1-4.6-6.5c-1-2.3-2.1-4.6-3.1-6.9c-2.1-4.8-4.4-9.5-6.6-14.2c-0.3-0.5-0.4-1.2-1.1-1.4   c0.9-1.6,2.1-2.9,3.3-4.3C379,419.2,379.3,419.4,379.5,419.8z" />
	<path fill="#140C08" d="M386.5,379c0.7-6.8,1.1-13.6,1.5-20.3c0.4-6.2,0.3-12.4,0.5-18.5c0.3-6.6,0.5-13.3,0.9-19.9   c0.3-5.4,1-10.7,0.8-15.9c0.4-0.6,0.7-0.7,1.2-0.5c0.1,0.1,0.3,0.2,0.3,0.3c0.3,1.4,0.6,2.8,0.2,4.2c-0.1,0.2-0.1,0.5-0.1,0.7   c0,4.8-0.5,9.5-1,14.3c-0.5,5.1-0.4,10.2-0.7,15.2c-0.3,5.9-0.1,11.9-0.4,17.8c-0.4,7.1-0.7,14.2-1.8,21.2c-0.3,1.8-0.6,3.5-1,5.3   c-0.5-0.1-0.5-0.5-0.5-0.9C386.5,380.9,386.5,380,386.5,379z" />
	<path fill="#100806" d="M365.2,382.8c-3.6-6.4-7.2-12.9-10.4-19.6c-0.5-1.1-0.9-2.1-1.4-3.2c-0.4-0.8-0.6-1.6-0.1-2.5   c1.1,0,1.3,0.8,1.7,1.6c2.6,5.1,5.1,10.2,7.7,15.2c0.5,0.9,1,1.7,1.6,2.6c0.1,0.9,0.7,1.6,1.1,2.3c4.3,7.3,8.9,14.3,14.5,20.6   c1.3,1.4,2.2,3.1,3.8,4.3c0.4,0.7,0.7,1.4,1.3,1.9c0.1,0.4,0,0.7-0.4,0.8c-4.7-3.9-8.5-8.7-12.2-13.6   C369.8,389.9,367.6,386.3,365.2,382.8z" />
	<path fill="#100806" d="M379.5,419.8c-0.2-0.4-0.4-0.6-0.9-0.8c-1.2,1.3-2.4,2.7-3.3,4.3c-1.2,1.1-1.9,2.6-2.9,3.9   c-0.4,0.6-0.7,1.2-0.1,2c-0.6,0.4-1.6,0.1-1.8,1.1c-0.3,0-0.6,0.6-1.1,0c-0.4-0.6,0.5-1.2,0.2-1.9c-5.3-5.1-10.5-10.4-14.5-16.5   c0.2-0.7,0.6-1,1.1-1.2c1.2,0.7,1.9,1.8,2.7,2.9c3.2,4.4,6.8,8.6,10.6,12.5c0.3,0.3,0.6,0.6,1.1,1.1c1.9-3.6,4.1-6.8,6.5-10   c-1.1-1.6-2.6-2.9-3.3-4.6c0.3-1.2,1-1.1,1.9-1c0.8,1,1.7,2,2.5,3.1c0.6,0.1,0.9-0.5,1.6-0.6c1.2,0.6,0.5,1.6,0.3,2.4   c0.4,1.9,3.2,2.5,2.5,4.9C381.1,421.5,380.4,420.3,379.5,419.8z" />
	<path fill="#0F0806" d="M453.9,275c-0.6,1-1.1,0.9-1.9,0.6c-2.3-0.9-4.5-2.1-6.6-3.4c-7.2-4.3-13.7-9.5-19.4-15.8   c-1-1.1-1-1.1-0.7-2.6c3.3,2.4,5.9,5.5,9,7.9c3.2,2.4,6.4,4.7,9.7,7C447.3,270.8,451,272.4,453.9,275z" />
	<path fill="#190E0A" d="M398.7,260.5c1.6-7.7,3.8-15.2,6.6-22.6c2.5-6.8,5.4-13.4,9.4-19.6c0.3-0.5,0.5-1,1.2-0.9   c0.7,0.8,0.1,1.4-0.2,2.1c-1.6,2.9-3.2,5.7-4.5,8.7c-3.2,7-5.7,14.3-8.1,21.6c-1.2,3.7-2.4,7.4-3.4,11.2c-0.7,0.3-0.4,0.9-0.4,1.5   l0,0C398.2,262,399,261.1,398.7,260.5z" />
	<path fill="#190D08" d="M385.4,470c-2.5-0.3-7.4-4.2-12.2-10c-3.7-4.4-4.5-5.8-4.4-7.6c0.2,0.1,0.5,0,0.6,0.2   c4.8,6,10.1,11.4,15.7,16.6C385.5,469.4,385.7,469.7,385.4,470z" />
	<path fill="#1C0F0A" d="M478.2,194.4c-0.4,0.8-0.9,0.8-1.5,0.6c-1.1-0.4-2.2-0.8-3.2-1.3c-3.9-1.6-7.9-2.9-12-3.7   c-0.6-0.1-1.3-0.2-1.5-1c0.3-1.1,1.2-1,2.1-0.8c2.1,0.4,4.2,0.9,6.3,1.6c2.7,0.9,5.3,1.9,7.8,3.1   C476.8,193.2,477.7,193.5,478.2,194.4z" />
	<path fill="#311E17" d="M426.1,207.3c0.3-4.3,9.6-13.9,15.3-15.9c0.2,0.7-0.3,1-0.7,1.3c-2.1,1.5-4.1,3-6,4.8   c-2.7,2.5-5,5.3-7.1,8.3C427.1,206.3,426.8,207,426.1,207.3z" />
	<path fill="#271711" d="M379.3,441.6c0.2,0,0.6-0.1,0.6,0c2.2,3.9,5,7.4,7.8,11.2C384.5,452.2,379,444.7,379.3,441.6z" />
	<path fill="#2D1B13" d="M435.5,273.7c-0.6,1-1.5,1-2.3,0.7c-1.8-0.5-3.8-0.7-4.8-2.5c0.3-0.7,0.8-0.8,1.2-0.7   C431.7,271.8,433.8,272.3,435.5,273.7z" />
	<path fill="#321F17" d="M450,255.8c-2.6-1.3-4.7-3.2-7-5c-0.2-0.2-0.3-0.5,0-1c2.6,1.4,5.1,3,7.3,5   C450.6,255,450.6,255.4,450,255.8z" />
	<path fill="#A4644D" d="M398.7,260.5c0.3,0.6-0.5,1.5,0.5,1.9c0.2,1-0.2,1.8-0.5,2.7c-0.7,2.5-1.1,5-2.1,7.6   c-0.7-1.6,0.1-3.1,0.3-4.5c0.4-2.5,1-4.9,1.4-7.4C398.4,260.6,398.6,260.6,398.7,260.5z" />
	<path fill="#A4634D" d="M386.5,379c0,1,0,1.9,0,2.9c0,0.4,0,0.7,0.5,0.9c0,1.8-0.4,3.3-1.3,4.8c-0.3-1.2-0.3-2.3-0.1-3.2   c0.3-1.6,0.5-3.2,0.5-4.8C386,379.3,386.3,379.2,386.5,379z" />
	<path fill="#945A46" d="M384.6,406.8c0.4-0.2,0.5-0.5,0.4-0.8c0.7,0,0.6,0.7,0.9,1.1C385.4,407.4,384.9,407.4,384.6,406.8z" />
	<path fill="#A4644D" d="M399.2,262.4c0-0.5-0.3-1.1,0.4-1.5C399.6,261.4,399.9,262.1,399.2,262.4z" />
	<path fill="#110E0C" d="M524.5,421.4c0.5,0.9-0.2,1.2-0.8,1.5c-1.4,0.5-2.9,0.5-4.3,0.8c-0.4,0.1-0.8,0.1-1.1,0.2   c-4.3,0.1-8.5-0.3-12.7-1.3c-1-0.3-1.9-0.6-2.8-1.1c0.1-0.6,0.7-0.6,1.1-0.6c1.3,0,2.5,0,3.7,0.1c4.7,0.5,9.4,0.5,14-0.1   c0.4,0,0.8,0,1.2,0C523.4,420.7,523.9,421.3,524.5,421.4z" />
	<path fill="#1F1B18" d="M488,423.4c-0.5,1.1-1.1,1.3-1.9,1.1c-2.3-0.5-4.6-0.9-6.9-1.4c-0.7-0.2-1.4-0.4-1.5-1.3   c0.9-1.2,2.2-1,3.4-0.8C483.6,421.5,486.2,421.3,488,423.4z" />
	<path fill="#15120F" d="M550.3,444.1c-1.1,0.8-2.1,0.5-3.1,0.4c-1.9-0.2-3.8-0.6-5.7-1.1c-1.1-0.3-1.6-0.9-1-2.3   c2.6-0.2,5,0.8,7.6,1.3C549.3,442.8,549.3,442.9,550.3,444.1z" />
	<path fill="#191513" d="M662.7,456.1c0.4-1,1-1.4,1.9-1.3c2.1,0.2,4.2,0.2,6,1.6c-0.6,1.9-2.1,1.8-3.5,1.7   C665.4,458,663.4,458.3,662.7,456.1z" />
	<path fill="#181412" d="M872.3,458.5c0-0.5-0.1-1,0.3-1.3c1.3-1.1,2.8-2,4.6-2c0.5,0,0.9,0.2,1.2,0.9c-0.4,1.7-1.9,2.3-3.5,2.6   C874,458.5,873.2,458.5,872.3,458.5z" />
	<path fill="#2A2522" d="M872.3,458.5c0.9,0,1.7,0.1,2.6,0.1c-0.5,0.6-1.2,0.3-1.8,0.6c-0.2,1.5-1.1,2.6-2.6,3   c-0.9,0.2-1.5,0-1.9-0.8C869,458.8,869.5,458.4,872.3,458.5z" />
	<path fill="#191614" d="M507.8,410.6c-0.2,1.1-0.2,1.1-1.8,0.9c-1-0.9-2-1.7-3-2.6c-0.5-0.5-1-1-0.8-1.8c1-0.6,1.7,0,2.3,0.6   C505.7,408.5,506.7,409.5,507.8,410.6z" />
	<path fill="#1B1816" d="M701.6,484.8c-1.2-0.5-2.6-0.1-3.7-1.1c0.3-1,1.4-0.6,1.9-1.2c0.7,0,1.4-0.1,2.1-0.1c0.7,0,1.2,0.2,1.4,0.7   c0.2,0.6-0.3,0.8-0.3,1.2C702.6,484.5,702,484.3,701.6,484.8L701.6,484.8z" />
	<path fill="#1A1716" d="M866.6,464.9c0.2,1.6,0.2,1.7-1.1,2.3c-1.2,0.5-1.4,0.5-2.4-0.9C864.4,464.4,864.6,464.3,866.6,464.9z" />
	<path fill="#241F1D" d="M846.3,453.3c-0.2-1.5,0.2-2.3,1.2-2.7c0.7-0.3,1-0.1,1.8,1C848.7,452.7,847.9,453.5,846.3,453.3z" />
	<path fill="#2C2623" d="M471.4,425.8c-1.5,1.9-1.8,2-3.4,1.1c0-1,0.7-1.5,1.5-1.8C470.2,425,470.9,424.9,471.4,425.8z" />
	<path fill="#544B45" d="M577,450.1c-0.3,0.6-0.6,0.9-1.1,0.9c-0.9,0-1.9,0-2.5-0.8c-0.1-0.7,0.4-0.9,0.8-1   C575.1,449.2,576.2,449,577,450.1z" />
	<path fill="#413A35" d="M675.9,456.9c-1.3,0.8-2.3,0.7-3.3-0.4c0.4-1.1,1.2-1.2,2.2-1.1C675.4,455.4,675.5,455.6,675.9,456.9z" />
	<path fill="#1D1917" d="M465,429.1c-0.7,1.2-1.5,1.7-2.7,1.1C462.6,428.2,463.3,427.9,465,429.1z" />
	<path fill="#3D3732" d="M561.3,447.1c-1.2,1.1-2,0.2-3-0.5C559.6,445.4,560,445.4,561.3,447.1z" />
	<path fill="#463E39" d="M570.1,449.1c-1.2,0.8-2,0.6-2.9-0.2C568.4,447.7,568.6,447.7,570.1,449.1z" />
	<path fill="#E2C8B7" d="M701.6,484.8c0.3-0.5,1-0.3,1.4-0.5C702.8,485.2,702.1,484.8,701.6,484.8z" />
	<path fill="#11110B" d="M520.6,329.6c-4.1,3.1-8.7,5.5-13.2,8.1c0.9,6.5,0.5,12.9-0.2,19.5c2.1,0.2,4-1.1,6.4-0.7   c-1.9,2-4.5,1.7-6.6,2.9c-1.1,3.9-0.8,8.2-2.7,12.3c-0.9-1-0.6-2-0.5-2.8c0.3-2.9,0.7-5.9,1.1-9c-3.1-0.2-6.1,1.4-9.3,0.4   c0.1-0.9,0.7-1.1,1.3-1.1c2.2-0.3,4.3-0.6,6.5-0.9c0.5-0.1,1.1-0.1,1.5-0.5c1.1-3.3,1.3-16.2,0.3-18.8c-2.6,1.3-5.1,2.6-7.7,3.8   c-0.4-0.1-0.9,0-1-0.6c7.3-4.4,14.9-8.3,22.4-12.6c0.3-0.2,0.5-0.3,0.8-0.5C520,329.2,520.5,329,520.6,329.6z" />
	<path fill="#090A06" d="M499,255.8c0.1-1.2-0.3-2.5,0.6-3.6c1.1,0.3,1,1.2,1.2,2c0.4,1.6,0.2,3.4,0.8,5c0.5,5.5,1.4,11,2.2,16.5   c1.1,7.3,2.3,14.5,3.1,21.8c0.6,4.7,1,9.5,1.3,14.2c0.1,1.7,0.2,3.4-0.2,5.1c-1.1-1.6-0.9-3.5-1.1-5.3c-1-6.3-1.7-12.7-2.6-19.1   c-0.8-5.5-1.6-11-2.5-16.5c-0.5-3.5-1.1-6.9-1.7-10.4c0-2.3-0.4-4.5-0.9-6.7C499.3,257.9,499.6,256.8,499,255.8z" />
	<path fill="#0A0A06" d="M484.8,288.3c-3.6-1.2-7.2-1.9-10.9-2.4c-3.5-0.5-7-0.5-10.5-0.4c-0.8,0-1.7,0.3-2.5-0.5   c0.6-1.2,1.8-1.4,2.7-1.5c4-0.4,7.9-0.5,11.9,0.2c3.3,0.6,6.5,1.3,9.8,2c3.2,1.1,6.5,2.2,9.7,3.4c1.7,0.6,3.4,1.5,5.1,2.4   c0.8,0.4,1.5,1,2,1.8c-0.8,0.7-1.4,0.1-2-0.1c-1.6-0.5-3.2-1.3-4.8-1.9C491.8,290.1,488.4,288.9,484.8,288.3z" />
	<path fill="#EBDA90" d="M460.9,350.6c1.1-1.6,2.7-2.2,4.6-2.1c3,0.1,6-0.9,9.4-0.3c0.9,0.4,1.3,1.4,0.9,2.9c-0.9,2.1-3.2,2.2-5,2.4   c-2.1,0.3-4.2,0.8-6.4,0.6c-1.2-0.1-2-0.7-2.8-1.4C460.8,352.1,460.7,351.4,460.9,350.6z" />
	<path fill="#28261A" d="M484.8,282.7c-2.3-0.2-4.7-0.5-7-0.7c-0.2,0-0.3-0.3-0.6-0.6c2.4-0.1,4.6-0.8,7-0.3   c2.6,0.6,5.4,0.2,8.2,0.6c1.5,0.2,3.1,0.6,4.7,0.5c0.7,0.5,1.7,0.2,2.8,1.1C494.5,283.3,489.7,282.4,484.8,282.7z" />
	<path fill="#4C4833" d="M514.9,183.8c2.4-2.6,4.9-5.3,7.3-7.9c0.9-1,1.7-2,2.4-3.1c0.2-0.3,0.3-0.7,1.1-0.5   c-0.3,1.2-0.8,2.2-1.6,3.2c-2.7,3.2-5.7,6-8.6,8.9C515.1,184.3,514.9,184.1,514.9,183.8z" />
	<path fill="#625C41" d="M509.1,176.9c1.3-3.1,7.7-11.7,9.2-12.7C518.2,165.6,511.7,174.8,509.1,176.9z" />
	<path fill="#7E7754" d="M496.5,342.3c0.1,0.6,0.6,0.5,1,0.6c-0.9,0.8-1.9,1.1-3.2,1.5C494.8,343.1,495.7,342.8,496.5,342.3z" />
	<path fill="#9C9266" d="M538.2,228.3c0.2-0.9,0.2-2,1.6-2.2C539.7,227.3,539.3,228,538.2,228.3z" />
	<path fill="#A2986A" d="M514.9,183.8c0.1,0.3,0.3,0.5,0.6,0.6c-0.4,0.7-1.1,1.2-1.9,1.7C513.3,184.8,514.1,184.3,514.9,183.8z" />
	<path fill="#91885F" d="M520.6,329.6c-0.1-0.6-0.6-0.4-1-0.5c0.3-0.7,1-0.7,1.7-1C521.6,329.1,521.2,329.4,520.6,329.6z" />
	<path fill="#E2C8B7" d="M108,441.5c-0.7,0.1-1.2,0-1.6,0.2c-1.3,0.7-2.5,0.4-3.8,0c-1.6-0.6-3.1-1.1-4.8-0.5c-0.9,0.3-2,0-3.2,0   c-1.4-1.8-3.9-2.5-5.4-4.5c0-1.1,0-2.3,0-3.7c1.9-2,2.9-5,5.4-6.8c3.4-0.4,6.3,0.8,8.5,3.3c1.2,1.4,2.6,2.4,4.2,3.2   c1.1,0.5,2,1.4,2.5,2.6c0.9,2.1,0.6,3.9-1.2,5.4C108.4,440.9,108.2,441.3,108,441.5z" />
	<path fill="#14110F" d="M312,467.3c-0.5,0.9-1.2,1.1-2,1.2c-5.7,0.7-11.3,1.1-17,0.4c-0.8-0.1-1.7-0.4-2.5-0.7   c-0.7-0.3-1.1-0.8-0.8-1.8c0.7-0.5,1.6-0.7,2.5-0.6c5.2,0.6,10.5,0.5,15.7,0.2c0.9,0,1.7,0,2.6,0C311.3,466,311.8,466.4,312,467.3z   " />
	<path fill="#0F0D0B" d="M125.6,448.4c0.3-0.8,0.9-1.1,1.5-1.1c2.9,0.1,5.8,0.1,8.5,1.1c0.8,0.3,1.6,0.8,0.8,2.1   c-3,0.4-6.2,0.3-9.3-0.5C126.4,449.8,125.7,449.4,125.6,448.4z" />
	<path fill="#100D0B" d="M258.9,463.1c0.3-0.2,0.5-0.5,0.7-0.6c2.4-0.6,4.8-0.3,7,0.9c1.1,0.6,1.1,1,0.6,2.7   c-2.3,0.4-4.5-0.6-6.7-1.2C259.8,464.6,259,464.3,258.9,463.1z" />
	<path fill="#171411" d="M246.3,459c1.8-2,5.2-1.3,7,1.4c-0.2,0.8-0.7,1.1-1.4,0.8C249.9,460.7,247.6,461,246.3,459z" />
	<path fill="#181412" d="M277.9,466.9c-0.5,0.8-1.2,0.8-1.8,0.7c-1.2-0.2-2.4-0.5-3.6-0.9c-0.9-0.3-1.2-0.9-0.7-1.8   C274.5,464.2,276.6,464.9,277.9,466.9z" />
	<path fill="#1F1B18" d="M282.5,466.2c2.3-0.8,4.1-0.5,5.9,0.7c-0.7,1.8-0.9,1.8-3,1.6C283.2,468.2,282.8,467.9,282.5,466.2z" />
	<path fill="#352F2B" d="M138.6,449.8c2.5-1,3.4-1,4.8,0.6c-1,1.4-2.4,1.1-3.7,1C138.9,451.3,138.3,450.9,138.6,449.8z" />
	<path fill="#2E2926" d="M147.6,451c1.4-1.6,3.4-1.7,5.1-0.2C151.6,452.3,149.8,452.4,147.6,451z" />
	<path fill="#312B27" d="M64.1,428.3c1.4,2.1,1.5,3.3,0.3,4.8C62.9,431.9,62.8,430,64.1,428.3z" />
	<path fill="#282421" d="M156.1,452.1c2.1-1.2,3.4-1.1,5.1,0.3C159.9,453.8,158.5,453.8,156.1,452.1z" />
	<path fill="#1C1816" d="M45.6,442.3c-0.9,1.9-2.2,2.2-4.4,1.2C42.1,441.9,43,441.7,45.6,442.3z" />
	<path fill="#2D2825" d="M63.3,457.2c0.4,0.2,0.8,0.4,0.9,1.1c-0.5,1-1.3,1-2.2,0.7c-0.4-1.2,0.6-1.3,1-1.8   C63.1,457.2,63.2,457.2,63.3,457.2z" />
	<path fill="#514843" d="M48.5,442.6c-0.3-0.4-0.5-0.6-0.7-0.8c0-0.5,0.3-0.8,0.6-1c0.7-0.3,1.4-0.5,1.7,0.5   C50.1,442.2,49.3,442.2,48.5,442.6z" />
	<path fill="#120F0D" d="M693.9,426.2c0.3-0.8,0.8-1.3,1.6-1.1c2,0.7,3.8,1.7,4.8,3.7c0.1,0.2,0,0.5,0,0.8c-1.6,0.8-2.8-0.4-4-0.9   C695.1,428.3,694,427.7,693.9,426.2z" />
	<path fill="#2D2825" d="M702.7,433.8c-0.9-0.5-1.7-0.9-2.4-1.3c-0.3-0.6-0.3-1,0.1-1.5c0.8-0.5,1.4-0.1,2.1,0.3   c0.5,0.3,0.8,0.8,0.9,1.3C703.5,433.1,703.2,433.4,702.7,433.8z" />
	<path fill="#F59878" d="M379.9,399.7c-5.6-6.3-10.2-13.4-14.5-20.6c-0.4-0.7-1-1.4-1.1-2.3c0.2-3.7-0.2-7.5,0.2-11.2   c0-0.2,0.3-0.3,0.6-0.7c0.6,1.5,1.1,2.9,1.6,4.3c1.5,3.6,2.9,7.2,4.4,10.8c2.7,6.4,5.8,12.5,8.9,18.7   C380.3,399.1,380.5,399.5,379.9,399.7z" />
	<path fill="#1B0D08" d="M358.2,342.4c-0.4-0.1-0.7-0.1-1-0.4c-2.1-2.1-3.7-4.6-5.1-7.2c-0.7-1.3-0.6-1.4-0.2-3.1   c0.8-0.4,1.2,0.1,1.5,0.6c1.7,3.2,4.1,6,5.3,9.5C358.7,342.1,358.5,342.3,358.2,342.4z" />
	<path fill="#1E100B" d="M369.5,414.2c-1,0.2-1.3-0.5-1.7-0.9c-2.1-2.3-3.6-5-5.5-7.5c-0.6-0.8-0.6-1.6,0.6-2.3   C365.5,406.8,367.7,410.3,369.5,414.2z" />
	<path fill="#8D5240" d="M358.2,342.4c0.3-0.1,0.5-0.3,0.5-0.6c0.3,0.1,0.5,0.4,0.3,0.7C358.8,342.9,358.5,342.8,358.2,342.4z" />
	<path fill="#E2C8B7" d="M158,411.9c-2.3,3.4-5.6,3.6-9.2,3.2c-0.5-0.5-1.2-1.1-1.9-1.7c-1,1-2,2-3.7,1.8c-0.4-0.4-0.9-0.7-1.3-1.2   c-0.7-1-1.2-1.9-0.5-3.2c0.4-0.8,0.7-1.7,0.6-2.7c-0.1-0.8,0.4-1.5,1-2c1.6-1.3,2.4-3.2,3.3-5c0.4-0.9,0.9-1.8,1.4-2.7   c0.9-1.6,2.2-2.6,4.1-2.4c1.1,0.1,2.2-0.1,3.2,0.1c3.2,0.6,5.4,2.5,7,5.1c0.8,1.2,1.5,2.5,2.1,3.8c1.4,2.9-0.2,5.5-2.8,6.3   C160.3,411.7,159.2,412.2,158,411.9z" />
	<path fill="#100E0C" d="M166.7,421.3c-0.6-0.6-0.5-1-0.3-1.5c0.4-0.5,1.1-0.6,1.7-0.7c3.2-0.6,6.4-1.5,9.6-1.8   c1.9-0.2,2.8,0,4.3,0.9c-1.3,1.6-3.3,1.1-4.9,1.5c-1.7,0.4-3.3,0.8-5,1C170.3,421.1,168.5,421.8,166.7,421.3z" />
	<path fill="#221E1B" d="M184.1,419.5c1.4-1.7,3.7-2.1,6.2-1.2c-0.3,1.4-1.5,1.4-2.5,1.6C186.7,420.2,185.4,421,184.1,419.5z" />
	<path fill="#26211F" d="M199.8,418.4c-1.8,0.9-3.5,1.3-5.3,0.4C195.4,417.2,197.9,417,199.8,418.4z" />
	<path fill="#544A45" d="M179.3,403.3c1.8-1.5,1.8-1.5,3-0.3C181,404.2,181,404.2,179.3,403.3z" />
	<path fill="#4A423C" d="M174.9,405.5c0.4-1.2,1.2-1.3,2.2-0.9C176.8,406.2,175.8,405.8,174.9,405.5z" />
	<path fill="#282320" d="M687.7,482.8c2.3-0.7,3-0.6,3.9,0.9C690,485,688,484.6,687.7,482.8z" />
	<path fill="#433B37" d="M684.3,482.9c-1.5,1.3-2.4,1.3-4.2,0.1C681.2,481.7,682.5,481.6,684.3,482.9z" />
	<path fill="#12110A" d="M489,254.2c-2.6,0.6-5.2,1.3-7.8,1.9c-5.7,1.4-11.3,2.7-17,4.1c-0.8,0.2-1.5,0.3-1.9-0.7   c0.6-1.2,1.9-1.4,3.1-1.7c2.6-0.7,5.1-1.3,7.7-1.8c3.1-0.6,6.1-1.1,9.2-1.7c2.2-0.5,4.5-0.2,6.7-0.6   C488.9,253.8,488.9,254,489,254.2z" />
	<path fill="#FFF0A7" d="M499,255.8c0.6,1,0.3,2.2,0.5,3.2c0,0.6-0.1,1.2-0.2,2.2c-1.5-2.4-3.9-2.1-6-2.5c-2.2-0.4-4.3-0.9-6.4-1.1   c-0.4-0.8-0.2-1.4-0.2-2.1C490.8,254.7,494.9,256,499,255.8z" />
	<path fill="#0E0D08" d="M489.7,264.7c-6.6,1.1-13.2,2-19.9,2.4c-1.6,0.1-3.1,0.1-4.7,0.1c-0.9,0-0.9,0-1.9-1c0.2-1.1,1.1-1.1,2-1.1   c6.9-0.2,13.7-0.7,20.6-0.4C487.1,264.7,488.4,264.7,489.7,264.7z" />
	<path fill="#1C1B11" d="M477.2,302.3c-1.2,0.4-2.1-0.2-3-0.5c-4.3-1.5-8.5-3.4-12.8-4.5c0-1.1,0.5-1.4,1.2-1.4   c1-0.1,1.9,0.1,2.8,0.5c3.8,1.4,7.4,3.4,11.1,5.1C476.7,301.4,477,301.7,477.2,302.3z" />
	<path fill="#15150C" d="M469.9,230.1c-0.3-0.7,0-1.1,0.4-1.5c1.9-1.8,4.1-3.1,6.3-4.4c0.6-0.4,1.2-0.3,1.6,0.3c0,0.2,0,0.5-0.1,0.6   c-1.9,2.3-4.4,3.6-6.8,5.2C470.9,230.5,470.4,230.5,469.9,230.1z" />
	<path fill="#2B291B" d="M466.5,311.3c-0.2-0.7,0.2-1,1-1.3c3.3,1.5,6.8,3,10.6,4.6C474.7,315,468.9,313.2,466.5,311.3z" />
	<path fill="#2A281B" d="M488.5,223.8c-0.2,0.7,0.6,1.4,0.1,2.6c-2.3-3.5-3.7-7.1-4.7-10.8c1-0.7,1.3-0.1,1.5,0.5   c0.8,1.9,1.5,3.9,2.3,5.8C488,222.6,487.9,223.3,488.5,223.8L488.5,223.8z" />
	<path fill="#1E1C13" d="M460.1,273c2.6-0.8,5.4-0.5,7.3,0.6C465.5,274.3,462,274,460.1,273z" />
	<path fill="#25211E" d="M52,461c-0.2-1.2,0.5-1.6,1.3-1.8c1.5-0.3,3-0.6,4.4,0.5C56.3,461.5,54.1,461.9,52,461z" />
	<path fill="#24201D" d="M71.3,454.3c1.3,0,1.3,0,2.2,0.7c-1,1.6-2.4,1.3-4,1.2C69.7,455,70.8,454.9,71.3,454.3L71.3,454.3z" />
	<path fill="#080707" d="M320.5,413.3c-0.5,0.3-0.9,1.2-1.7,0.5c-0.7-1.4-0.3-2.8,0.1-4.1c0.8-2.6,1.7-5.1,2.6-7.7   c1.2-2.2,2-4.5,3.2-6.7c1.8-3.1,3.7-6,5.9-8.7c0.4-0.5,0.8-1.1,1.3-1.8c-1.7-1.7-3.6-3.3-4.9-5.3c-0.9-1.4-2.1-2.8-1.6-4.7   c0.8-0.2,1.1,0.3,1.4,0.9c1,2,2.4,3.6,3.8,5.3c0.6,0.7,1.2,1.5,2,1.8c0.9,0.2,1.4-1,2.3-0.4c1.1,1-1.5,2.4,0.9,3.3   c-1.1,0.2-1.6,0.3-2.2,0.4c-2.2,3.5-4.9,6.7-6.5,10.7c-1.2,1.8-2.2,3.6-2.8,5.7c-1.2,1.7-1.9,3.7-2.3,5.7   C321.9,410,320.8,411.5,320.5,413.3z" />
	<path fill="#0D0B09" d="M323.4,356.4c0,0.5,0.1,0.9,0.1,1.4c-0.8,1.3-0.6,2.8-0.6,4.2c-0.6,1.3-0.3,2.6-0.2,4c0,0.1,0.2,0,0.2-0.2   c0.2,0.1,0.4,0.1,0.8,0.2c0.5,0.9,0.2,1.7-0.2,2.6c-0.6,1.2-1.3,2.3-1.9,3.5c-3.4,4.7-6.7,9.4-9.5,14.5c-0.8,1.1-1.5,2.3-2,3.6   c-0.3,0.8-0.7,1.7-1.7,2.2c-0.6-0.9-0.4-1.7-0.2-2.5c0.9-3.1,2.6-5.8,4.4-8.5c2.4-3.6,4.9-7.2,7.4-10.8c0.7-1,1-2,0.9-3.2   c-0.3-3.1-0.1-6.2,0.6-9.3C321.7,356.9,322.2,356.2,323.4,356.4z" />
	<path fill="#0B0A08" d="M318.9,355.2c-1,1-2,1.8-2.9,2.8c-5.3,5.4-9.8,11.3-13.7,17.8c-1.1,1.8-2.2,3.6-3.2,5.4   c-0.5,0.8-1,1.6-1.8,2.2c-0.5-1.2-0.1-2.1,0.3-3.1c0.9-2.2,2-4.2,3.2-6.2c4-6.8,8.8-12.9,14.6-18.3c0.5-0.4,0.9-0.9,1.4-1.2   C317.5,354.2,318.2,354.2,318.9,355.2z" />
	<path fill="#13120E" d="M322.1,372.9c0.6-0.1,1.1,0,1.3,0.9c-3.1,5.6-7.4,10.7-10.3,16.6c-0.3,0-0.6,0.6-0.8,0.4   c-0.6-0.5-0.5-1-0.6-1.4c0.1-0.8,0.4-1.6,1-2.2C315.7,382.3,318.8,377.5,322.1,372.9z" />
	<path fill="#DCC8AB" d="M322.1,372.9c-3.4,4.6-6.4,9.4-9.4,14.2c-0.1-0.3-0.3-0.6-0.6-0.7c2.8-5,6.1-9.8,9.5-14.5   C321.6,372.4,321.6,372.9,322.1,372.9z" />
	<path fill="#F6DAC8" d="M323,365.8c0,0.2-0.2,0.3-0.2,0.2c-0.1-1.3-0.3-2.7,0.2-4C323,363.3,323,364.5,323,365.8z" />
	<path fill="#DCC8AB" d="M311.7,389.4c0.1,0.4,0,0.9,0.6,1.4c0.2,0.2,0.4-0.4,0.8-0.4c0,0.9-0.5,1.1-1.2,0.8   C311.2,390.7,310.7,390.1,311.7,389.4z" />
	<path fill="#060606" d="M339.9,399.7c-1.1,2.7-1.8,5.5-2.8,8.3c-0.3,1-0.7,2-2.2,1.5c-0.6-1.2-0.3-2.3,0-3.6c0.2-1,0.9-1.8,0.7-2.9   c1.2-2.9,2.4-5.8,3.7-8.7c0.6-1.3,0.8-2.7,1.4-4c0.4-1-0.8-1.8,0.2-2.8c1.8,1,3.4,2.3,5.4,3.1c0.5-0.6,0.3-1.8,1.3-2.2   c0.9-0.1,1.1,0.7,1.4,1.2c0.4-0.3,0.7-0.6,1-0.8c0.9,0.2,1.1,0.7,1.1,1.4c0.1,1.4-0.3,2.8-0.8,4.1c-0.8,2.3-1.6,4.5-2.5,6.9   c0.5,0.2,0.6-0.2,0.9-0.4c0.4-0.3,0.7-0.7,1.2-0.6c0.4,0.1,0.7,0.3,1,0.5c0.4,1.5,0.2,2.9-0.3,4.4c-0.7,2.2-1.7,4.2-3,6.1   c-0.6,0.9-1.1,1.9-2.5,1.6c-0.7-0.9-0.1-1.7,0.2-2.4c0.8-1.6,1.6-3.2,2.4-4.8c0.3-0.6,0.5-1.3,1-2.3c-1.9,0.9-2.6,2.3-3.3,3.6   c-0.8,1.5-1.5,3.1-2.2,4.6c-0.5,0.9-1,1.8-2,2.2c-2-0.8-2.2-1-1.6-2.8c0.9-3.1,2-6.1,3-9.1c0.1-0.4,0.2-0.7,0.3-1.1   c1.2-2.6,2.2-5.2,2.9-8c-0.7-0.4-1.2-0.7-1.8-1c-0.6-0.3-1.1-0.9-1.9-0.7c0,1.9-0.7,3.7-1.4,5.4   C340.6,397.5,340.1,398.6,339.9,399.7z" />
	<path fill="#100E0B" d="M330,410c-0.6,0.6-0.3,1.5-0.4,2.2c-0.1,1.1-0.2,2.1-0.9,3.1c-1-0.5-1-1.4-1-2.2c-0.1-3,0.5-5.9,1.2-8.7   c0.1-0.5,0.2-0.9,0.2-1.4c1.2-3.4,2.5-6.7,4.2-9.9c1.5-2.7,3.5-5,5.3-7.4c0.4-0.5,0.8-1.2,1.7-1c0.3,1.1-0.6,1.8-1.1,2.4   c-3.9,4.9-6.3,10.6-8.1,16.5c-0.1,0.4-0.1,0.8-0.2,1.1C330.3,406.5,330,408.2,330,410z" />
	<path fill="#211E19" d="M322.1,408.3c0.4-2.1,1.1-4,2.3-5.7c0.5-0.1,0.7-0.5,1-0.9c0.8-1.4,1.6-2.8,2.4-4.2c0.5-0.1,0.3-0.9,0.9-1   c0.5,0.1,0.4,0.5,0.4,0.9c-0.5,1.3-1.4,2.5-1.8,3.9c-1.5,3.3-3,6.5-2.9,10.2c0,0.5-0.1,1.1-0.2,1.6c-0.1,0.3-0.2,0.6-0.3,0.8   c-0.3,0-0.5,0-0.8,0l0,0c-0.6-1.4-0.5-2.8-0.5-4.2C322.5,409.1,322.9,408.5,322.1,408.3z" />
	<path fill="#877D70" d="M327.7,397.4c-0.8,1.4-1.6,2.8-2.4,4.2c-0.2,0.4-0.4,0.8-1,0.9c0.6-2.1,1.6-3.9,2.8-5.7   C327.2,397.1,327.4,397.4,327.7,397.4z" />
	<path fill="#958774" d="M329,397.3c0-0.4,0.1-0.7-0.4-0.9c0.2-0.6,0.6-0.8,1.3-0.9C329.8,396.3,329.9,397,329,397.3z" />
	<path fill="#181412" d="M518.8,419.5c-3.4,1.2-10.9-1.9-13.2-5.3c0.5-0.5,0.9-0.1,1.3,0.1c2,0.8,4,1.7,6,2.6c1.2,0.5,2.4,1,3.8,1.2   C517.5,418.2,518.3,418.5,518.8,419.5z" />
	<path fill="#1D1916" d="M536.1,423.6c-2,1.3-3.8,0.2-5.5-0.1c-0.8-0.1-1.7-0.5-1.6-1.7c1-1.2,2.3-0.8,3.6-0.5   C533.9,421.7,535.5,421.7,536.1,423.6z" />
	<path fill="#1C1916" d="M524.5,421.4c-0.6-0.1-1-0.6-1.7-0.5c0.5-0.4,0.8-0.8,0.3-1.4c1.2-0.8,2.2-1,3.1-0.1   C526.6,421,524.7,420.5,524.5,421.4z" />
	<path fill="#2F1B14" d="M352.8,435.1c-2.1-2.5-2.6-5.4-3-8.3c-0.2-1.2-0.6-2.6,0.6-3.6c0.9,0,1.4,0.6,1.2,1.2   c-0.5,2.3,0.5,4.4,0.8,6.5C352.7,432.3,353.3,433.5,352.8,435.1z" />
	<path fill="#F5DFBF" d="M339.9,399.7c0.2-1.2,0.7-2.2,1.1-3.3c0.7-1.8,1.3-3.5,1.4-5.4c0.9-0.2,1.3,0.4,1.9,0.7   c0.6,0.3,1.1,0.6,1.8,1c-0.7,2.8-1.7,5.5-2.9,8c-1,0-2,0-2.9,0C339.9,400.4,340,400,339.9,399.7z" />
	<path fill="#15120F" d="M873.4,437c0.9,0.4,1.1,0.7,1.3,1.2c-1.5,2-3.6,3.2-6,3.9c-0.8,0.2-0.9,0.1-2-1.2   C869,439.6,871.3,438.2,873.4,437z" />
	<path fill="#C5B093" d="M322.1,408.3c0.8,0.2,0.4,0.8,0.5,1.3c0,1.4-0.1,2.9,0.5,4.2c-0.8-0.5-1.7-0.4-2.5-0.5   C320.8,411.5,321.9,410,322.1,408.3z" />
	<path fill="#BA6E54" d="M359.8,434.2c-1,0.6-1.5,0.4-1.7-0.2c-1.1-2.9-2.4-5.6-3.1-8.7c0-0.1,0.1-0.3,0.2-0.7   C356.5,428.1,357.9,431.2,359.8,434.2z" />
</g>
</svg>