<?xml version='1.0' encoding='utf-8'?>
<svg xmlns="http://www.w3.org/2000/svg" version="1.2" baseProfile="tiny" id="Layer_2_00000052082217566906436630000010376474951675397801_" x="0px" y="0px" viewBox="0 0 900 600" overflow="visible" xml:space="preserve">
<g>
	<path d="M342.1,255.4c11.4-25.4,34.7-21.3,51.7-35.5c15.4-8.2,30.9-17.4,47.9-22.2c16.6-3.2,30-9.8,41.6-22.3   c-0.9-0.7-1.6-1.3-2.3-1.9c-0.2-3.1-2-6.3,0.7-8.7c-0.6-3.3-1.2-6.6-3-9.6c5.6-10.6-3.3-20.7-6.3-30.9c-4.5-2.1-5.5-9.2-6.7-13.7   c1.9-6.1-1.1-40.5,8-36.8c8.8-5.7,18.6-7.5,28.8-6.6c0.3,0.5,0.6,0.9,0.9,1.3c1.1,0.3,2.2,0.5,3.4,0.8   c16.1,17.5,22.7,18.8,27.3,44.4c4.3-9.6,15.2-9.8,23.4-14.5c8.2-4.5,17.1-8.9,26.2-4.5c15,6.8,31.7,15.7,40,30.5   c2.1,5.2,3.2,10.5,8.4,13.7c0.7-0.1,1.3-0.2,2.2-0.4c19,17.2,35.2,36.9,49.8,57.9c-0.2,0.7-0.4,1.2-0.6,1.9   c21.9,32,44.9,64.9,75.7,88.8c1-0.2,2.1-0.3,3.4-0.5c1-4.7,4.7-7.8,7.4-11.6c-0.1-0.6-0.2-1.2-0.4-1.9   c16.6,4.2,17.5,27.2,33.8,32.3c37.5,16.3,34.7,30.4,80.4,23.9c10,4.3,11.9,15,12.1,25c-5.1,8.2-16.4,10.3-25.2,12.7   c-23.1,11.7-46.7,14.3-72,10.1c-9.2-1.9-13.7,8.8-22.7,9.1c-10.3,0.4-37.7,7.3-44.3-0.6c-0.8-0.2-1.5-0.4-2.1-0.6   c0.3-10-0.4-20.2-4.3-29.9c-4.2-16.5,1.4-14.6-10.2-29.5c1.1-1.1,2.3-2.3,3.5-3.5c-8.2-11.3-22.7-16-33.1-25.1   c-10.9-8-20.8-17.3-32-24.7l0,0c0.3-0.3,0.7-0.6,1-0.9c21.7,13.2,42.7,29.6,63.1,44.7c2,4.8,7.3,4.1,11.1,6.2   c10.2-8.2,26.6-16.3,26.6-31c-3-1.8-6.1-3.4-8.5-6.1c0.3-0.3,0.6-0.6,0.8-0.9c0.5,0,1,0.1,1.4,0.1c0.1,0.2,0.2,0.3,0.3,0.5   c0.1-0.1,0.2-0.2,0.3-0.3c-28.3-29.1-58.1-60.4-75.5-97.7c-14.2-15.7-27.3-32.3-43.7-45.9c-2.3-2.7-7.7-5.4-6.8-9.4   c-11.6-17.8-28.7-30.6-49.1-36.1c-8.8,2.6-16.2,8.6-24.8,10.7c-5.2,2.9-12.3,4.1-14.4,10.4c-9.3,20.9-13.4,43.5-18.9,65.4   c-0.7,15.3,8.3,30.9,19,41.4c4.1-8.7,3.7-16.9,14.2-20.6c0.3-2,1.8-3.1,3.5-4.1c8.7-6.2,13.6-17.3,24.9-19.4   c7.6,6.3,3.5,14-2.8,19.5c-2.5,2.2-1.5,6-4.1,8.3c-0.9,1-1.6,2.1-1.5,3.6c8.9,1.7,16.8-0.9,25.4-2.4c-0.5-6.9-5.1-14.2-3-20.9   c6.2,13.9,11.3,28,19.5,41c0,0.1-0.2,0.5-0.4,1.2c5.9,20.3,22.7,30.5,40.2,40.4l0,0c-0.2,0.9-1,0.7-1.6,0.9l0,0   c-12.5-5.6-25.7-13.9-34.4-25.4c-1.2,1.7-2.3,3.1-3.4,4.6c0.3,8.1,14.4,12,8.9,20.6c1.4,22.8,30.1,38.1,22.9,61.6   c-2.4-2.1,0.7-7-1.6-9.1c-2.5-11.2-9.4-20.5-15.7-29.9c-4.5-7.9-7.1-16.4-7.6-25.5c-0.1-1.7-0.7-3.1-2.2-4.4   c-0.7,9.2,10.1,43.2,0.2,45.3c-30.7,3.8-30.8-11.1-54.7-23.5c-1.8,0.4-3.5,0.7-5.6,1.2c5,4,9.9,6.7,14.4,11   c-0.3,0.3-0.6,0.6-0.9,0.9c-7.3-1.5-12.2-7.4-18.7-11.2c-17.6-0.6,21.6-7.3,23.9-8.4c11.5-7.9,25.4-14.7,35.5-23.7   c-0.5-1.2-1.2-2.4-1.3-3.7c-1-0.3-1.8-0.5-2.1-0.6c-3.5,1.2-6.4,2.8-9.8,1.1c1.2-2.7,4.3-1.7,6.1-3.4c-3.4-5-1.6-6.9,1.3-11.1   c-2.4,0.6-4.5,1.1-6.6,1.5c1.1-3.1,4.6-3,7-4.9c-2.1-2.5-2.6-5.4-2.9-8.4c-1.5,0.2-2.9,0.4-4.2,0.6c-1.8-1.1-1.8-1.1-0.7-2.9   c1.6-0.4,3.2-0.6,4.4-2c-4.6-2.8-0.1-9.7-5.8-10.8c-15.5,4.9-40.9,12-23.3-12.6c2.9-3.3,7-7.6,6.3-12.2c-10.5-7-16,12.6-25,16   c-15.2,9.9-17.4,28.9-27.6,43c0.4,0.7,0.8,1.2,1,1.6c-6.9,7.6-15.2,13.3-22.8,19.7c0.1,0.4,0.2,0.9,0.2,0.9   c-13.4,11.7-27.2,22.3-42,31.9c17.2-1.2,33.2,2,48.7,7.5c0.8-1.7-0.8-3.5,0.9-5.1c3.8,1.9,7.9,3,12.1,3.8   c4.7-8.7,11.5-16.4,20.8-19.8c0.8,1.4-1,2.5-1.6,3.7c0.8,1.9,1.5,3.8,2.2,5.6c-0.1,0.6,0,1.3-0.8,1.6c-0.9-1.7-1.8-3.5-2.9-5.6   c-5.2,4.8-10.3,9.3-14.2,14.9c14,4.1,29.3,5.7,41.6,14.2c2.2,1.5,4.4,3.5,7.4,3.2c10,4.8,17.5,13.8,27.3,18.7   c-0.2,1.2,1.1,1.4,1.5,2.3c0.6,1.2,1.4,2.3,3,2.3c9.9,6.8,19,16.1,23.7,27.1c-0.3,0.3-0.6,0.7-0.9,1l0,0c-0.2-0.3-0.5-0.6-0.7-0.9   c0-0.7-0.1-1.3-1-1.4c-12.1-15.9-29.8-25.6-44.1-38.9c-20-15.9-46.5-19.7-70.3-26.5c4.7,34-13,23.8-17.3,60.8   c-1.3,0.4-0.8,1.4-0.9,2.3l0,0c-6,13.4-15.5,25.9-28.6,33.4c-11.3,5.8-24.7-2.4-36.6,2.2c-0.1,2.7-0.2,5.4-0.3,8.7   c2,3,4.1,7.6,5.7,10.6c11.1,2.9,27.1,11.1,19.8,24.5c-0.6-0.3-1.1-0.6-1.6-0.9c-4.7,15.1,14.4,10.4,23.1,13.8   c6.8,1,8.5,9.2,2.3,12.6c0-1.9,0-3.7,0-5.5c-1.4-1.7-3.3-2-5.1-2.5c-1.4-1.5-3.4-0.3-5.5-0.6c1,1.4,0.4,3.1,1.9,3.8   c-0.1,1.4,1,2.3,1.5,3.8c1.6-0.2,3.2-0.5,4.8-0.7c0.4,8.9-5.6,12.6,1.1,22.8c-0.4,1-1.4,0.6-2.2,0.6l0,0c-0.4-0.2-0.7-0.4-1.1-0.6   c0,0.5-0.3,1.2,0.2,1.5c0.1,2.6,0,4.9,1.1,7.4c0.8-0.6,1.4-1,2-1.4c1.2,0.2,3.1-0.6,3.8,0.7c1.3,3.8,6.9,7.3,9.3,11.3   c-0.3,0.2-0.5,0.5-0.8,0.7c-2.1-1.9-3.8-4.2-6.5-5.8c-2.8,1.5-6.1-0.3-8.8,1.6c-0.5-0.4-0.9-0.7-1.3-1c-4.4-14.9-1.6-31.3-7.1-45.4   c-16.2-1-18.6-8.2-13.2-22.5c-1.6-12.2-16.5-10-21.7-18.9c-2.5-6.3-9.7-15.9-5.3-22.4c-1.8-1-3.4-2.4-5.4-3.1   c-4.2,8.2-7.3,10.7-15.2,14.9c-17,16.9-35.9,33.3-52.4,50.9c2.1,1.6,4.2,3.1,6.3,4.7c-2.8,2.5-7.9-0.8-11.1-2.2   c-6.2,3.4-13.5,10.4-20,10.7c0.1-0.1,0.2-0.2,0.2-0.3c0,0.1-0.1,0.2-0.1,0.4c-4.8,0.7-9.3,3.8-13.7,5.7   c4.4,11.7-0.7,23.8-11.4,29.8c-0.7,0-1.4-0.1-1.6-1c7.2-7.1,13.2-17.4,9.1-27.7c-14.2,2.4-25.6,10.9-38.3,16.7   c-0.3-0.3-0.6-0.6-1-0.9c0.6-1,1.9-0.7,2.2-1.7c21.2-15.1,47.7-20.5,69.9-34c14.5-13.7,30.3-27.2,44.9-40.1   c-1.2,0.5-2.3,0.9-3.4,1.4c9.2-12,28.1-14.3,32.9-29.6c-16.8-10.4-32.8-22.1-47.4-35.5c-6,2.2-9.9,7.4-15,11.3   c-0.3-0.3-0.6-0.6-0.9-0.9c1.8-1.9,2.8-4.2,3.9-6.6c-35.6-1.5-67.8,20-101.3,28.8c-0.1-0.4-0.3-0.8-0.5-1.4c-2-0.8-5.5-0.1-6.5-2   c1.7-0.8,3.7-0.1,5.2-1.2c1.8-0.4,3.7,0.6,5.3-0.8c0.2,0,0.5,0,0.7-0.1c1.2,0.1,2.3-0.6,3.5-0.1c0.1,0,0.4-0.6,0.8-1.2   c-6.7,0.3-12.5,1-19,1.7c-0.1,1,0.4,1.2,1,1.4c-0.1,0.4-0.1,0.7-0.2,1.4c-8.4-0.1-16.8-1.2-25.1,0c-0.3,0.5-0.6,1-1,1.7   c-29.6,15.2-41.8,57.4-25.4,86.9c1.8,9.8,13.1,16.5,16.6,25.6c13.4,10.5,29.9,20.2,47.6,20.1c9.8-0.8,22.6,2.4,30.2-4.4   c0.7,0,1.3-0.1,1.3-1c0,0,0,0,0,0c0.3-0.2,0.6-0.4,0.9-0.7c0,0,0,0,0,0c0.5-0.2,0.8-0.9,1.3-0.9c0.4,0.3,0.7,0.7,1.1,1l0,0   c-0.3,0.2-0.6,0.4-0.9,0.7c0,0,0,0,0,0c-1.4,1-2.5,1.9-3,3.7c60.7-7.8,120.5-22.5,182-12c0.8,0.8,3.2,1.9,1.7,3.1   c-0.9,0-2-0.5-2.6,0.7c-21.7,1.6-43.7-4.7-65.6-3.5c-29.4,3.6-58.6,9.6-88.1,12.3c-27.9,2.3-58.9,12.4-85.2-1.8   c-21.3-12.7-49.8-25.8-53.1-53.5c-4.7,1.8-9.6,0.4-14.3,1.3c0,1,0,1.8,0,2.7c-18.9,5.6-37.6,13.1-53.3,25.3c-1-0.4-1.9-0.7-2.9-1.1   c-9.7,9.8-24.4,13-38.2,11.3c-6.7,6.8-10.5-4.1-14.8-1.4c-1,1.9,0.4,4.3-1.9,5.7c-2.2-0.1-3.2-2.6-5.3-2.8   c-0.3-0.9-0.4-1.7-0.6-2.4c-1.7-0.6-3.3-1.2-5.1-1.9c0.4-1.4,0.7-2.5,1.1-3.7c-4.9-1-8.8-0.4-4.4-6.6c-10-3.8-13.6-12.3-18.1-21.7   c-1.9-0.6-4.6-2.1-6.4-3.5c0.4-0.8,0.6-1.3,0.7-1.6c1.6-0.9,3.2,1.4,4.6-0.8c-1.7-6.4-8.7-12.3-6.3-19.5c0.6-1.2-0.6-2.1-1-2.9   c0.2-1.1,0.3-2.1,0.4-3.1c-2.4-2.4-3.3-4.1-4.6-7.6c-1.9-1.5-4.7-4.7-6-7c0.7-2.1,0.7-2.1,2.1-3.4c1.4,0.6,2.8,1.3,4.4,2   c1-2.3-1.1-3-1.9-4.6c1.2-4.8-7-10.4-0.7-13.8c-0.9-1-1.6-1.8-2.3-2.6c0.4-3.6,3.4-4.8,5.8-6.4c-1.8-3.2-6.7-0.7-9.1-3.7   c-2.4-3.9,4.6-1.9,1.8-8.6c0.6-0.4,1.2-0.8,1.8-1.1c1.2,0.7,2.3,1.3,3.3,1.9l0,0c0.2,1.6,2.2,2.5,3.6,1.9c0.4-2-1.9-2.1-2.7-3.6   c0,0,0,0,0,0c-0.2-0.3-0.5-0.5-0.7-0.8c0,0,0,0,0,0c-0.3-0.2-0.5-0.5-0.8-0.7c0,0,0,0,0,0c-1.3-1.5-2.1-3-3.3-4.7   c-0.1-6.9,6.4-7.1,11.8-7c0.3-0.7,0.6-1.7,1-2.8c2.1,0.1,2.4,2.2,4.5,2.4c0.2-0.7,0.5-1.3,0.7-2c6.4,3,10.2,11.9,14,18.1   c11.9-1.7,23.5-23,34.5-12.9c8-5.5,14.1-14.1,22.2-19.2c4.7-2.7,7,2.1,11,3.5c8.2-5.1,4.7-3.3,11.7,0.2c0.8-1.3,1.7-2.7,2.5-4   c1.1-0.1,2.3,0,3.1-0.5c4.1-2.3,6.8,2,10.9,0.8c4.4-6.8,15.2-6.2,20.3,0c0.6,7.9,7.4,14,8.6,21.7c5.7,1.2,11.4,1.7,17.3,1.8   c10.7,0.1,19.8,6.2,30.5,6.2c12.1-9.9,26.3-16.8,39.4-25.1c14.5-10.9,30.3-21.5,48.6-24c15.5-1.4,31.9-6.5,46,3.6   c3.3,1.8,6,4.6,10.1,3.6c-26-21.1-41.3-44.8-20-76.4c0.3,0.3,0.6,0.6,0.8,0.9c0.1,0.6,0.2,1.2,0.3,1.7   c-17.8,28.9-1.4,48.7,20.6,68.3c22.9,22.9,46.8,46.3,74.6,63.3c11.7-3.9,25.1,1.1,36.4-2.5c20.9-17,25.7-26,29.8-52.3   c5.6-16.1,16.4-15.9,13.9-35.9c-21-10.8-47.2-5.9-69-15.3c-0.5-0.6-0.9-1.2-1.4-1.9c-5.5-1-11.3-0.4-16.6-2.9   c0.5-1.9-1.2-2.3-2.3-3c0.2-0.8,1-0.6,1.6-0.8c7.6,2.2,15.1,4.1,22.8,6c29.7-9.9,38.1-35.3,51.3-60.3c12.9-15.5,9.1-36.1,15.9-53.8   c-0.3-4.3-3.6-6.2-5.1-9.8c-8-3.2-21.8-3.6-22.3,7.7c-21.6,28.4-69.1,26.9-98,51.5c-24.6,6.8-30.1,8.3-46.5,29   C342.1,256.6,342.2,255.9,342.1,255.4z M494.5,272.8c0.3-0.2,0.7-0.4,1-0.6c0.2,0,0.4-0.1,0.5-0.3c1-0.8,1.9-1.2,0.9-2.3   c1.3-1.8,2.6-3.6,3.7-5.3c0.2-11.4,2-21.8,2.8-32.9c-2.7,5.7-6.5,10-9.8,15.2c-3.7,6.7-3.6,15.1-8.5,21.3   c-9,11.3-17.7,21.9-32.1,26.6c2.1,0.9,4,1.7,5.9,2.6C470.6,288.6,482.5,280.8,494.5,272.8z M127.5,470.7L127.5,470.7   c0.6,0,1.3,0,1.5-0.8c0,0,0,0,0,0c5.1-2.6,4.2-11.1,7.5-12.3c0.9,2.5-2.3,4.9-0.6,7.1c0.6-0.9,1-1.6,1.5-2.4   c2.7-0.4,5.1,0.9,7.7,0.6c1.9-0.5,3,1.5,3.5,3c11.2,3,22.6-2,34.1-0.9c-0.6-9.3-1.2-20.8,5.9-28c2.4-22,18.8-39,32.2-54.3   c-5.8,6.2-11.6,4.6-19,4.1c-4.7,1.1-8.8-2.5-13.3-3.4c-8.6-2.6-19.4,2-26.4-5.4c-9.7-4.5-5.6-26.4-19.9-23.6   c-3.9,2.4-6.8,5.9-11.6,4.9c-0.6-0.8-1.4-0.9-2.4-0.8l0,0c-0.3-0.5-0.6-0.5-0.9,0l0,0c-1.2,0-2.5,0-3.6,0c-1.3,1.5-1.9,2.3-2.8,4   c2.5,2.1,6.4,3.5,5.6,7.4c-6.5,1.8-6.3-9.4-13.1-10.1c-2.3,1.4-4.6,2.3-6.6,4c1.1,0.9,2,1.6,2.8,2.3c0.7,4.8-4,10.4-7.2,5.7   c0.8-1,1.6-2,2.3-2.9c-8.6-31-20.2,18.9-38.3,7.4c-8.4,2.9-15.2,10-23.4,14c-1-0.1-1.8-0.2-2.9-0.3c-0.1,2.2,0.3,4.1-0.8,5.9l0,0   c-1.4-2.5-0.8-7-4.5-7.5c-3.7-5.6-9.9-15.7-17.8-12.2c6.8,2.7,8,3.6,12.5,9.5c5.8,7.3,10.9,15.1,16.5,22.4c1.2-2.2-1-3.2-0.7-5.4   l0,0c0.5,0,1,0.1,1.5,0.1c4.5,3.6,5.9,8.2,6.1,13.7c19.5,4.8,34.9,24.6,57,19.9c1.3-2,4.1-3.3,4.6-6.4c0.5-1.2,1.9-1.1,2.7,0   c-0.6,2.4-1.1,4.5-1.6,6.5c1.7,2.4,3.7-1.3,5.3,0.8c-1.9,8.7-18.4,11.7-16.9,19.5c2.3-0.3,1.6-3,3.3-4c-0.1,4.2-1.4,8.4-1.2,12.7   c-1.1,0.7-0.7,1.6-0.5,2.5c1.5,1.6,3.3,1.3,5.2,1.3c4.7,1.8,10.5,6.3,15.1,2.3l0,0C126.7,471.5,127.3,471.5,127.5,470.7z    M52.5,462.4L52.5,462.4c-0.9,0.5-0.9,1,0,1.5c0,0,0,0,0,0c1.2,1.4,3.3,1.4,4.9,2.2c1.1-0.9,1.6-2,1.9-3.5   c-1.5-0.9-2.2-2.7-4.1-3.2C54.2,460.4,53.5,461.4,52.5,462.4z M126.8,473c-0.6,0-1.3,0-1.5,0.8c0,0,0,0,0,0   c-0.4,0.1-0.9,0.2-1.3,0.3c2,5.3,7.7-1.6,8.3-4.3c-1.7,0.9-2.9,2.3-4.7,2.5C127.3,472.5,127,472.7,126.8,473z M58.5,474.5   c-0.3-0.3-0.5-0.5-0.8-0.8l0,0c-1.2-1.1-1.2-1.1-2.3,0c0.2,2.6-1.5,4-3.3,5.6c1.1,2.6,4.7,2.5,7.1,1.4   C55.1,476.1,60.9,476,58.5,474.5C58.5,474.5,58.5,474.5,58.5,474.5z M236.1,376.1c12.3-5.8,24.2-12.7,36-19.5   c2-1.9,6.3-4.9,8.6-2.6c-15.8,10.4-32,20.5-49.8,27.2c-4.5,1.8-7.6,4.7-10.3,8.6c18.1-7.9,38.8-4.6,57.5-7.7   c27.8-9.5,56.2-25,86.4-21.5c1.5-1.4,2.9-2.7,4.2-4c-34.5-30.9-80.3-21-115.8,6.4c0.8,2-0.9,2.6-1.8,3.8   c-6.5,2.7-13.5,5.6-18.2,10.8C234.3,377.1,235.4,376.9,236.1,376.1z M607.6,234c-0.2,1.2,1.4,0.7,2.1,0.8c0.3,2.2-2.9,2.5-4.3,3.7   c-2.4,4.3,2,7.2,4.4,9.9c1.8-2.1,2.7-4.2,3.4-6.6c-1.3-2.3-1.6-5.1-3.6-6.9c-0.1-3.8-2.9-6.8-4.1-10.7c-1.1,3.7,2.3,5.7,2.2,9.2   C607.5,233.6,607.5,233.8,607.6,234z M205.7,495c-14.2-13.9-16.3-33.8-17.6-52.6c-9.8,21.9,5.9,47.2,24,58.6   C209.6,498.7,207.9,496.6,205.7,495z M73.7,446.4c-0.2,2.3,3.7,1.8,5.2,1c0-0.4,0-0.8,0.1-1.3c-0.7-0.4-1.5-0.8-2.2-1.2   c-1-2.1,1.4-3.3-2-4.5C73.3,442.2,73.8,444.3,73.7,446.4z M93.4,448.7c-1.7-0.9-3.4-1.2-5.2-0.3c0.3,2,1.7,1.8,2.9,1.9   c1.1,1.4,2.6,0.4,4.2,1c0.5,0.6,2,1.4,3.1,1C99.5,449,95.4,449.4,93.4,448.7z M84.3,451.8c-1.1-1.3-2.4-0.8-3.6-0.4   c-0.2,1.4,0,2.6,0.4,3.8c0.4,1.2-1.1,2.6,0,4.3c0.7,0.4,1.6,0.9,2.7,1.4c0.4-0.4,0.8-0.8,1.2-1.2c-0.7-1.2-1.4-2.4-2.1-3.5   C83.5,454.1,86,454.2,84.3,451.8z M507.5,258.5L507.5,258.5c6.1-3.2,10.3-9.2,16.5-12c-0.7-3.2,2-5,2.4-7.9c0,0,0,0.1,0,0.1   c3.2-3,5.1-7.9,7.4-11.6c-8.3-8.4-14.9-16.7-18.5-28.2c-4.8,20.6-12.3,40.9-11.4,62.3C505.6,260.7,506.3,259.5,507.5,258.5z    M16.8,411.6c1.1,2.5,2.1,5.2,4.7,6.9c0.6-0.7,1-1.2,1.7-2c-2.7-1.9-4.7-4.9-4.8-8c0.7-0.3,0.7-0.9,0.7-1.5c4-3.1,8.7-3.5,1.7-7.6   c-1.8,1.1-4.2,0.4-5.4,2.4c1.2,1.1,3.4,0.1,3.6,2.6c-1.1,1-2.4,2-3.9,3.3C15.7,409.1,16.3,410.3,16.8,411.6z M486,171   c6.8-13.1,21.1-9.9,29.6,0c-1.8-13.2-24.4-21.9-29.1-4.6c-0.6,0.1-1.2,0.2-1.7,0.2c-0.8,1.3-0.6,2.5-0.1,3.7c-0.3,1-0.5,2-0.9,3.3   C485.5,173.1,485.8,172.1,486,171z M483.1,143.8c0.7,4.1,0.8,7.9-1.1,11.7c0.4,1.9,0.8,3.7,1.3,5.5c16.6-11.1,14.5-7,31.6-0.7   c0.4-0.8,0.7-1.4,1-2.1c0.5,0.2,0.9,0.3,1.4,0.5c2.5-10.9,6.9-21.1,11.5-31.3c1-5,5.6-10.3,3.3-15.3c-5.4-15.9-15.4-27.9-26.2-40.5   c-9.9-1.7-20.1-1.2-28.9,4c-1.5,1.3-2.8,1.6-4.8,1.2c-0.1,2.8-2,6.1-0.3,8.7C465.8,114.5,473.5,118.4,483.1,143.8z M759.8,294   c-0.1-0.5-0.1-0.9-0.2-1.4c-0.2,0-0.3,0-0.5-0.1c-3,16.6-17.4,25.5-31,33.7C764.5,340.8,761.1,324.2,759.8,294z M597.4,268.1   c-9.1,3.3-15.5,11.5-24.4,14.6c-0.9-0.3-1.5-0.5-2.1-0.7c-1.5,0.6-3.1,0.8-4.6,1.9c22.4,11.2,23.1,26.4,51.6,20.7   c2.7-8-1-15.8-1.7-23.7c-2.2-6.7-0.3-15.6-5.4-20.9C606.2,262.7,600.7,263.6,597.4,268.1z M729.1,329.5c-2.8-0.9-4.9-2.7-7.1-4.2   c-0.4,0.6-0.9,1.3-1.4,2c8.3,6.9,4.9,18.2,7.5,27.5c4.4,9.3,6,19.6,4,29.3c14.3,1.7,29.1,1.2,43.3-1.4c8.5-0.3,13.1-11.5,22.2-9.7   c18.5,2.4,37.1,4.5,54.9-3.2c9.5-2.5,18.7-10.7,28.6-9.2c6.1-2.6,8.1-3.8,10.9-6.5c-1.4-7.9-0.6-18.2-9.1-22.3   c-3.2,2.4-3.2,2.4-6.9,1.4c-12.5,0.4-25.1,2.7-36.8-3.5c-0.7,1.6-1.4,3-2.1,4.5c-3.3-1.8-2-4.7-2.1-7.2c-2.1-1.2-4.2-2.3-6.4-3.5   c-1.4,2.7-0.8,6.3-4.6,7.5c-2.2-3-0.6-6.6,1.1-9.4c-1-0.9-1.9-1.8-3.4-1.8c-1.7,3-3.3,6.2-7,7.7c-0.9-4.1,1.4-7.2,2.6-10.5   c-2.3-2.1-5-2.8-7.8-3c-2.3,3.7-3.1,8.4-8.4,9.5c-1.6-4.4,2.4-7.7,2.9-11.9c-1.9-1.1-3.6-2-5.5-3c-2.7,4.4-3.2,14.5-9.5,14.2   c-1.5-6.6,4.2-11.8,4.5-18.4c-8.1-7.8-10.6-20.2-21.7-25c-12.9,13-5,33.8-10.3,49.7c-4,6.4-15.3,10.1-20.5,4   C737.1,331.7,733.1,330.6,729.1,329.5z M59.7,424.7C60,428,69.6,434.8,72,432c-1.8-3.4-6.7-3.6-9.3-6.5C62,424.9,61,424,59.7,424.7   z M44.2,417.2c-2.4-4.2-3.1-9.3-6.7-12.5c-2.4,3.8,1.5,6.4,2.3,9.9C40.1,416.3,42.2,418.2,44.2,417.2z M48.5,446.5   c0-3.3,1.9-5.8,2.4-8.6c-1.4-0.9-2.7-1.9-4.2-1c0.6,2.5,0.2,4.8-1.1,6.9C46.1,445.2,46.8,446,48.5,446.5z M86,475   c2.6,4.2-4.3,7.8-0.4,8.5c1.8-2,5.9-7.1,3.1-9.4C87.6,473.5,86.7,473.8,86,475z M57.6,427.6c0.3-3.1-7.6-8.3-9.9-5.9   C50.8,424.2,53.8,426.1,57.6,427.6z M48.5,427.1c0-7-8,2.2-5.3,4.9C45.9,431,46,427.6,48.5,427.1z M98.7,492.4   c-7.9-5.8-9.6,4.1-0.2,1.6C98.5,493.5,98.6,493,98.7,492.4z M38.7,487.2c0.6-3.2-2.2-5-4.7-6.7C32.9,482.9,35.7,488.2,38.7,487.2z    M65,474.2c-1.9-2.9-3.9-3.1-7.8-3.8c0.2,2.2,2.3,2.4,3.5,3.6C61.8,474.9,63,474.6,65,474.2z M103.2,493.5c1,1.1,1.4,1.9,2.7,2.3   c1.1-0.4,2.3-0.8,3.5-1.3c-0.1-0.6-0.2-1.1-0.3-1.5c-1.7-0.3-3.3-0.6-4.7-0.8C103.9,492.6,103.7,492.9,103.2,493.5z M15,393.9   c-2.1-1.5-3.6-2.6-5.2-3.7c-0.5,0.8-0.9,1.3-1.3,1.8C10.3,394.5,12.1,395.6,15,393.9z M66.1,498.3c0.2,3.1,3.6,3.2,5.9,2.4   C70.7,497.9,70.7,497.9,66.1,498.3z M43.4,409.5c0.9,2.2,1.4,4.9,3.7,5.5c0.3-0.3,0.5-0.7,0.8-1C46.3,409.7,46.5,409.4,43.4,409.5z    M60.3,493.2c2,0.3,2.8,0.5,4.8,1.2C68.5,491,60,489.5,60.3,493.2z M103.6,464c-1.7,0-2.8,1-3.3,2.6   C101.1,470.7,105.8,467.1,103.6,464z M102.9,441c2.1,0.1,4.2,0.3,6.2-0.2C110,437.9,101.6,438,102.9,441z M29.6,402.5   c1.3,2.5,1.5,6.2,4.8,4.9C34.2,404.4,32.6,403.4,29.6,402.5z M18.6,429.2c-0.6,1.9,0.1,3,1.1,4.3c1.6-0.6,1.8-2,2.5-3.2   C21.1,429.6,20.2,428.7,18.6,429.2z M111.8,477c2.3,2.5,3.3,2.7,5.6,0.9C115.6,476.6,113.4,475.2,111.8,477z M96.9,480.7   c1.5-0.8,2.9-1.2,4-2.2C98.8,475.1,95.3,477.4,96.9,480.7z M125.2,482.5c-1.4,0.2-2.8,0.4-4.5,0.7c0.1,0.8,0.1,1.3,0.2,2   c2-0.1,4,0.8,5-1.6C125.8,483.1,125.5,482.8,125.2,482.5z M86.1,440c3.3,0.6,3.6,0.6,5.6-0.4C90.6,437.7,85.8,437.2,86.1,440z    M77.9,433.8c1.2,3.1,1.8,3.3,4.7,2.1C82.3,434.2,79.5,433.1,77.9,433.8z M59.2,484.5c1.6,2.4,1.9,2.5,5.3,1.6   c-0.1-0.5-0.2-1.1-0.3-1.6C62.5,484.5,61.1,484.5,59.2,484.5z M48.8,489.9c-0.2,2,1.6,3.3,3.5,2.4c0-0.8,0-1.6,0-2.4   C51,489.9,50,489.9,48.8,489.9z M478.1,506.4c1.9,0.2,3.6,0.5,6.2,0.8c-1.4-1.3-2.1-2.1-2.9-2.9C480.1,505.1,478.7,505,478.1,506.4   z M105.3,448.5c0.9-2.5-2.3-3.9-3.3-1.6C102.8,447.9,103.5,449.1,105.3,448.5z M41.3,485.4c-0.9,1-1.3,1.5-1.8,2.1   c0.6,0.6,1.1,1.1,1.7,1.7c0.6-0.7,1.1-1.2,1.7-2C42.3,486.6,41.9,486.1,41.3,485.4z M89.6,460.4c-2.2-0.1-2.2-0.1-2.8,1.8   c0.8,0,1.6,0,2.6,0C89.5,461.6,89.5,461.1,89.6,460.4z M476.3,474.6c-2.2,1.1-2.7,2.4-2,4.4C475.6,477.8,476.3,476.6,476.3,474.6z    M61,499.7c1.6-2.2,1.6-2.2,0-3.8C59.7,497.3,60.2,497.9,61,499.7z M150.7,473.6c0-0.2,0-0.4-0.1-0.5c-0.5,0.1-1,0.1-1.4,0.2   c0,0.2,0,0.4,0.1,0.5C149.7,473.7,150.2,473.6,150.7,473.6z" />
	<path fill="#010101" d="M642.3,322.8c2.3,2.2-0.8,7,1.6,9.1c-0.2,1.1-0.4,2.1-0.6,3.3c0.9-0.2,1.7-0.4,2.8-0.6   c-2.8,8.2,0,15.5,2.1,23.7c-1,1.3-1.1,3.1-0.9,5.1c1.8,10.5-0.9,20.8-1.2,31.3c16.9,28.5-1.9,67.1-22.8,88.4   c-21.8,23.1-52.9,28.9-81.1,40.3c-9.1,2.7-18.4,10.3-27.8,9.5c-10.7-5.4-22-8.5-32-15.2c-2.1,0.2-4.5-0.3-6.2-2.6   c-0.2-0.3-0.9-0.3-1.4-0.4c0.6-1.2,1.7-0.7,2.6-0.7c2.4,3.7,8.9-0.7,11,2.9c-0.3,0.4-0.8,0.8-1.2,1.3c9.8,3.3,20.1,6.6,29.2,11.4   c30-13,63-18.5,89.6-38.4c33.5-21.8,54.1-65.4,34.3-102.8c1.2,0.8,1.8,1.2,2.7,1.7c0.6-12.8,3.4-25.7-0.3-38.2   C640,342.5,643.4,332.6,642.3,322.8z" />
	<path fill="#2A2827" d="M336.9,267.6c-0.3-0.3-0.6-0.6-0.8-0.9c1.6-4,4-7.6,6.1-11.3c0.1,0.6,0,1.3,0.8,1.5   C341.6,260.9,339.3,264.2,336.9,267.6z" />
	<path fill="#2D2A29" d="M649.9,270.5c0.6-0.2,1.4,0,1.6-0.9c1,0.5,2,1,3.1,1.5c-0.3,0.3-0.7,0.6-1,0.9   C652.4,271.6,651.1,271.1,649.9,270.5z" />
	<path fill="#CACACA" d="M11.4,386.7c-1.1-0.6-2.1-1.2-3.3-1.9c-0.6,0.4-1.2,0.7-1.8,1.1C6.2,382.8,11.1,384.2,11.4,386.7z" />
	<path fill="#818181" d="M168.5,472.3c0-0.5,0-1.1,0-1.6c0.9,0.1,1.7,0.1,2.7,0.2C170.7,472.3,169.6,472.4,168.5,472.3z" />
	<path fill="#CACACA" d="M11.5,387.3c-0.1-0.2-0.2-0.4-0.1-0.7c0.8-0.3,0.8-1,0.9-1.7c0.5,0.5,0.9,1.1,1.4,1.6   C13.3,387.6,12.4,387.3,11.5,387.3z" />
	<path fill="#B1B1B1" d="M354.3,341.7c0.4,0.3,0.9,0.7,1.7,1.3c-1.8,0.4-3,0.4-4.1-0.5C352.7,342.2,353.8,343,354.3,341.7z" />
	<path fill="#2D2A29" d="M648.2,269.8c0.7-0.2,1.4-0.2,1.7,0.7C649.3,270.3,648.8,270.1,648.2,269.8z" />
	<path fill="#CACACA" d="M10.8,383.5c0.3,0.2,0.5,0.5,0.8,0.7C11.4,383.9,11.1,383.7,10.8,383.5z" />
	<path fill="#2D2A29" d="M653.6,272.1c0.3,0.3,0.5,0.5,0.8,0.8C654.1,272.7,653.9,272.4,653.6,272.1z" />
	<path fill="#CACACA" d="M11.6,384.2c0.2,0.3,0.5,0.5,0.7,0.8C12.1,384.7,11.9,384.4,11.6,384.2z" />
	<path fill="#CACACA" d="M10.1,382.6c0.2,0.3,0.5,0.6,0.7,0.9C10.3,383.4,10,383.2,10.1,382.6z" />
	<path fill="#FBDFD3" d="M336.9,267.6c13.5-24.4,25.5-33.7,52.5-39.8c23.6-16.4,50.8-25.6,78.3-34c7.3-5.1,14.6-9.8,19.7-17.5   c0.5-11.3,14.3-10.9,22.3-7.7c1.5,3.5,4.9,5.4,5.1,9.8c-3.4,6.4-2.3,14.5-8.6,19.3c-2.6,3.3-15.1,18.5-12.3,21.2   c3.1-2.5,6.6-5.4,10.4-6.7c0,0,0,0,0,0c-11,21.4-26,39.7-46.6,52.4c-5.7,5.9-15.7,3.1-19.5,10.6c-9.6-0.7-20.1-3.4-29.1-1.9   c0.4,0.7,0.8,1.3,1.3,1.9c-9.9,14.7,23,16.5,31.7,18.1c0.5,0.7,0.9,1.3,1.4,1.9c21.8,9.4,48.1,4.5,69,15.3   c2.4,20-8.3,19.7-13.9,35.9c-3.2,17.1-5.8,32.8-20.7,44.2c-49.5-24.7-103.6-51.6-132.9-100l0,0c-0.2-1.1-1.1-1.1-2.1-1.3   c-0.5,0.6-1,1.2-1.7,2c-2.2-1.9-4.1-3.9-6.8-4.3c-5.3-5.6-0.2-12.1,2.8-17.5C337.2,268.8,337,268.2,336.9,267.6z M450.6,320.5   c7.3,3.5,16.2,9,24.1,7.4c-8.1-3.6-17.3-7-25.6-8.6C449.6,319.7,450.1,320.1,450.6,320.5z M454.1,234.7c-0.7,0.4-1.3,0.8-2.2,1.3   c2,1.3,3-0.6,4.5-1.4C455.5,233.7,454.8,234,454.1,234.7z M425.5,309.9c0.9,0.5,1.8,1.2,3,0.7c-0.3-1.1-1.2-1.4-2.1-1.6   c-0.6-0.6-1.3-1-2.2-0.1C424.6,309.3,425.1,309.6,425.5,309.9z M445.2,317.5c4.2,0.9,0.1-2.7-2.1-1.4   C443.6,317.2,444.3,317.5,445.2,317.5z M445.9,239.3c-1.1,0.4-1.8,1.1-2,2.4c1.9,0.6,2.3-1.4,3.5-1.7c0.3-0.3,0.5-0.6,0.8-0.9   C447.3,238.5,446.7,238.7,445.9,239.3z M464.9,229.4c-1.2,0.8-2.9,1.2-3.6,3.1c1.8-0.2,6.6-2.1,6.2-3.7   C466.5,228.6,465.6,228.6,464.9,229.4z M388.4,259.8c-0.3,2.4-1.4,4.4-2.4,6.7c0.5,0.3,0.9,0.6,1.3,0.9c2.1-2.3,2.1-4.9,1.7-7.5   c1.7-2.1,3.5-4.4,2.4-7.2C389.8,254.8,386.6,257.6,388.4,259.8z M430,248.4c-5.2,1.9-11.9,4-14.7,8.9c2.9,3.4,13.6-8.3,18.1-9.4   C431.8,247.7,430.8,247.5,430,248.4z M435.2,245.5c1.7,0.8,1.9,0.9,2.6,0.4c1.2-1.2,2.6-1.7,3.3-3.4   C438.6,242.7,436.6,243.2,435.2,245.5z M347.6,276.3c-0.2-0.2-0.4-0.4-0.7-0.6c-1.5,1.9-4.5,2.8-2.7,5.8   C345.9,280.1,346.1,277.8,347.6,276.3z M364.7,250c0.2,0,0.5,0,0.7,0c0.5-2,2-3.8,1.5-5.9C364.9,245.6,364.1,247.9,364.7,250z    M439.7,315c-1.5-2.2-2.4-2.5-5-1.5C436.3,314.4,437.7,315.3,439.7,315z M366.7,259.1c0.7-0.9,1.3-1.3,1.2-1.5   c-0.6-1.1-0.5-3.5-2-3.3C366.1,255.6,366.3,256.9,366.7,259.1z M388.3,240.1c0.2,1.7,0.4,2.8,1.6,3.9   C390,242.4,390,241.2,388.3,240.1z M388.1,239.5c0.7-1.5,0.1-2.4-1.1-3.3C386.4,237.8,386.8,238.7,388.1,239.5z M344.6,284.5   c-0.3,0-0.6,0-0.8,0c0,0.8,0,1.6,0,2.7C344.7,286.2,345.1,285.4,344.6,284.5z M417.6,304.5c-0.1,1.4-0.1,1.4,1.1,1.3   C418.3,305.3,418,304.9,417.6,304.5z" />
	<path fill="#FBDFD3" d="M746.9,285c2.4,2.7,5.5,4.3,8.5,6.1c0.8,10.5-9.4,17.5-16.6,23.5c-0.4-0.1-0.7-0.1-1.2-0.2   c-8.6-12.7-19.4-26.1-33.6-32.3c0.4,2.7,3,4.7,3,7.7c3.2,4.4,6.9,7.8,9.4,13c-10.2-8.7-21.3-16.5-30.8-25.9   c2.9-8-6.2-9.8-11.4-12.8c4.1-12.3-35.5-24.9-45-32c-10.2-13.3-16.4-30.6-28.4-42.4c-2.5-6.2-1.8-22.5-12.3-17.7   c-2.8,12.1,3,24.6,3.8,36.4c-7.4,2.6-14.7,3.2-22.5,2.1c-0.1-1.5,0.6-2.6,1.5-3.6c2.5-2.3,1.5-6.1,4.1-8.3   c6.3-5.4,10.4-13.2,2.8-19.5c-11.3,2.1-16.2,13.2-24.9,19.4c-1.6,1-3.2,2.1-3.5,4.1c-10.3,3.5-10.3,12.2-14.2,20.6   c-6.9-4.1-3.2-12-3.3-18.4c0-5.3-0.3-10.5,0.8-15.7c-0.4-17.3,2.9-34.5,5.3-51.6c0.7-8.9,6.4-18.6,2.3-26.9   c11.4-5,22.2-10.4,33.9-15.1c20.5,5.5,37.5,18.3,49.1,36.1c-1,3.9,4.5,6.8,6.8,9.4c14,12,26.6,25.6,38.2,39.9   c22.3,36.1,47.2,71.5,78.3,101c-0.3,0.3-0.6,0.6-0.9,0.9c-0.2-0.1-0.4-0.1-0.6-0.1c-0.8-0.8-1.8-1.2-3-1.3   C743.3,283.4,745.3,283.7,746.9,285z M633.2,167.4c-1.9-2.9-11.8-12.7-14.2-7.5c5.3,4.8,12.5,7,17.2,12.8   C636.8,170.2,634.1,169.3,633.2,167.4z M607.4,150.7c-1.1-0.9-2.1-2.3-3.7-1.5c0,1.9,2.4,1.9,3.8,2.3c0.2,0.7,0.8,0.7,1.3,0.7   c1.5,1.5,2.2,3.1,4.9,2.9C611.6,153,610.1,151.7,607.4,150.7z M664.3,224.3c0.4,0.5,0.8,0.9,1.3,1.5c0.5-1.1,0.3-1.9-0.3-2.5   c-0.2-0.8-0.4-1.7-1.5-1.9C663,222.5,663.5,223.4,664.3,224.3z M734.7,275.9c0.9,1.3,2,2.4,3.9,2.2c-0.5-1.9-2.3-2.6-3.8-3.1   c-0.3-0.6-0.7-0.9-1.4-0.2C733.9,275.2,734.3,275.6,734.7,275.9z M583.4,120.3c-0.5-0.6-1-1.1-1.7-0.1c1.2,1.9,0.5,4.3,3.4,5.4   C584.5,123.6,584.4,121.9,583.4,120.3z M656.1,203.8c-0.9-3.8-1.4-4.6-4.3-6c1.5,3.3,2.6,6.1,5.2,8.2   C657,205,656.9,204.2,656.1,203.8z M599.1,148.3c0.9,0,1.9,0.1,2.8,0.1c0-0.2,0.1-0.3,0.1-0.5c-3.1-1.3-5.9-3.2-9.3-0.6   C594.7,149.3,596.7,148.3,599.1,148.3z M558.1,108c0.8,0,1.6-0.2,1.9-1.2c-1.5-0.2-2.9-0.4-4.3,0.5c-2.4,0.1-6.8,0-4.1,3.5   C553.9,109.8,556,108.9,558.1,108z M649.2,193.1c0.8,1.2,1.6,2.4,2.4,3.5c-0.6-5.4-4.7-9.5-8-13.5c-0.5,0.3-0.8,0.4-1.3,0.6   C643.9,187.3,647,189.9,649.2,193.1z M586.3,108.8c-7-8.4-20.6-3.1-14.1,1.4l0.3,0c1.7,1.1,3.5,2.1,5.2,3.2   c0.9,5.2,10.4,8.4,15,7.7c0.6,0.4,1.2,0.9,1.8,1.3c7.9,1.2,9.1-4.2,2-7.1c-1.3-3.1-3.7-4.2-5.6-5.8   C589.2,109.7,587.7,109.7,586.3,108.8z M584.9,126.7c-0.6,5.1-0.5,8.5,0.3,10.7C585.6,133.7,588.8,129.7,584.9,126.7z M658.1,210.6   c1.9,3.7,2.5,4.4,4.7,6.1C661.9,212.7,661,211.4,658.1,210.6z M700.3,283.6c0.4,2.1,1.4,3.1,3.5,3.6   C703.8,285,702.7,283.7,700.3,283.6z M731.2,272.1c-0.7-2.6-1.9-3.8-4.2-3.7C728,270.1,728.9,271.4,731.2,272.1z M719.3,260.8   c0.9,1.5,1.7,3.2,4.1,3.8C722.4,262.4,721,261.4,719.3,260.8z M564.5,106.9c-1.2,1.9,0.7,3.2,2.8,1.5   C566.3,107.8,565.4,107.3,564.5,106.9z M582.4,147.9c2-2.4,2-2.4,0.3-3.3C582.6,145.6,582.5,146.4,582.4,147.9z M578.9,155.4   c1.3-1.5,2-2.5,2-4.1C579.5,152.7,579.4,152.7,578.9,155.4z M668.2,228c-0.4,1.2-0.5,1.5-0.6,1.7   C668.9,230.4,668.8,229.4,668.2,228z" />
	<path fill="#FBDFD3" d="M195.6,471.6c-7.2-18.2-6.1-41.8,6-57.7c7.1-7.1,12-19.6,22.4-21.9c0.4-0.7,0.7-1.2,1-1.7   c8.3-1.2,16.7-0.1,25.1,0c0.1-0.6,0.1-1,0.2-1.4c2.3-2.9,5.8-0.4,8.4-2.3c1.8-0.2,3.5-0.2,5.2,0.6c-1.5,0.5-3.2-0.6-4.5,0.8   c-1.3,0.4-2.8-0.7-3.8,0.7c-0.9,0.2-1.9,0.4-2.8,0.7c1.1,1.9,4.6,1.2,6.5,2c0.2,0.6,0.3,1,0.5,1.4c33.5-8.8,65.7-30.3,101.3-28.8   c-1.1,2.4-2.1,4.7-3.9,6.6c-0.7,0.2-1.3,0.5-0.9,1.7c6.2-3.2,9.9-9.9,16.7-12.2c11.8,11.2,25.1,20.4,38.2,30   c-11.6,9.8-26.8,15.8-38.1,26.4c-10.7,7.4-18.4,20.2-30.3,25.2c4.2-7.6,6.5-14.9,3.3-23.4c-28.3,24.1-38.9,51.2-78.7,64.5   c-0.1-13.2,18-26.9,9.1-40.8c-2.1,0.3-3.8,1.2-5.1,2.6c-0.8-0.5-1.1-2.1-2-0.4l0,0c-1,0.7-0.8,2.8-0.8,3.4   c-7.4,11.4-13,21.9-20.6,32.7C229.3,484.2,210.1,485.9,195.6,471.6z M298.9,415.4c5.1-4,11.6-6.6,15.9-11.5   c0-4.4-14.2,5.1-17.4,5.2c-4.7,1.5-11.2,0.6-12.1,7.1c0.9,1.4,1.9,2.8,2.3,4.5c-0.2,0.6-0.5,1.1-0.7,1.8c0.5,0.4,1,0.7,1.4,1.1   C291.9,420.7,295,417.7,298.9,415.4z M204.7,443.2c-3.3,1.7-6.5,3.7-8.7,7.1c0.5,0.5,0.9,0.9,1.2,1.2c5.1-1.4,7.3-7.5,11.9-10.1   c-0.1-0.1-0.2-0.1-0.5-0.5C207.4,441.6,205.8,441.9,204.7,443.2z M353,377.9c-1.7-0.7-3,1.6-1.6,2.7   C352,379.7,352.4,378.9,353,377.9z M321.2,398.1c-1.5-0.6-4.4,1.2-3,2.6C319.2,399.9,320.2,399.1,321.2,398.1z M220.6,434.8   c-0.1-0.1-0.2-0.3-0.2-0.4c-0.8,0.3-2.7,0.6-1.4,1.9C219.5,435.8,220,435.3,220.6,434.8z M213.9,437.5c-2.2,0.7-2.2,0.7-1.8,2.2   C212.7,439,213.2,438.4,213.9,437.5z" />
	<path fill="#5876E8" d="M644.8,400.9c0.9,2.8,3.1,5.6,2.7,8.5c-8.9,1.9-14.5,8.6-22,12.7c1.2-5.2,7.6-10.8,2.3-15.2   c-17,19.4-23,38.2-51.6,43.9c-1.9-1.4-3.2-2-4.5-3.9c11.6-9.4,21.8-21.3,29.7-33.7c-6.7,4.2-11.9,9-17.7,14.1   c-0.3-0.4-0.4-0.6-0.6-0.8c4.2-6.2,13.5-13.9,11-21.7c-4.7,13.6-17.9,29.2-29.9,37c-5-3.1-9.2-5.6-14.3-8.4   c8-8,23.9-21.2,25.9-31.6c-11.2,3.6-19,14-28.4,20.9c-4.2,3.4-8.5,6.2-11.1,10.9c-4.6-2-8.3-5.1-12.9-7.1c-7.7-2.8-12,8.2-5.5,12.4   c4,2.8,8.3,5.1,11.3,9.1c-4.3-0.5-8.7-0.3-12.8-1.6c-0.8-0.9-1.7-0.7-2.6-0.4c-0.3,0.4,0.3,1.1-0.8,1.2c-1-1.7-1.9-3.4-1.8-5.5   c0.9-0.2,1.2,1.2,2.2,0.3c-2.7-4.9-6.5-9.7-9.2-14.4l0,0c-3.4-8.7-8.2-17.8-15-24.3c-0.9-1.7-1.8-3.3-1.6-5.3   c-0.3-0.3-0.6-0.5-1.1-0.8c-0.3,0.9-0.5,1.4-0.7,1.9c-2-1.4-4.5-2.1-5.8-4.2c1-1,2.4-1.8,2.8-3c2.4-5.8,8.6-8.6,10.9-14.4   c0.6-0.1,1.2-0.2,1.8-0.3c14.7-15.7,36.5-28.5,56.1-37.4c-15-0.7-42.3,19.9-53.8,30.6c-0.1-0.5-0.2-0.9-0.3-1.2l0,0   c5.9-39.6,23-31.1,18.1-63.1c28,7.8,60.9,12.2,79.7,36.5c0.9-0.1,1.6-0.1,2.4-0.2c12.6,8.9,24.7,18.9,33.9,31.3l0,0   c2.2,2.9,4,12.3,7.7,12.1c-0.5,1.1-1.1,2.2-1.7,3.5c1.2,2.3,2.4,4.6,3.6,7c-1,1.4,0,2.5,0.7,3.6   C642.9,400.2,643.9,400.6,644.8,400.9z M515.8,339.6c2.3-0.2,4.5-0.8,6.8-1.4c-1-1.5-1-1.5-1.6-1.3c-2.3,1.4-14.1,2.9-13.1,5.5   C510.5,341.5,513.2,340.6,515.8,339.6z M566.4,392.6c-4,3.3-8.3,7.8-9.2,9.7c4.2-3.7,24.2-20.9,22.6-27.2   C575.7,381.3,571.4,387.1,566.4,392.6z M552.8,359.8c2.2-2,14.2-3.9,13.1-6.5c-4.7,1.4-9.1,3.6-13.7,5.3c-0.7-0.1-1.2,0-1.6,0.6   c-16.3,5.8-34.4,11.6-46,24.9c0.3,0.3,0.7,0.6,0.9,0.8C519.7,373.5,536,366.4,552.8,359.8z" />
	<path fill="#4B65C5" d="M510.5,437.3c1.6,0.9,2,3.1,3,4.6c-1,0.9-1.3-0.5-2.2-0.3c-0.1,2.1,0.8,3.8,1.8,5.5   c1.1-0.2,0.5-0.8,0.8-1.2c0.8-0.3,1.8-0.5,2.6,0.4c-0.4,0.1-0.9,0.3-1.8,0.5c11.2,4.7,22.9,10.4,28.7,21.5   c2.8,4.9-2.1,9.4-1.8,14.4c1.2,7.1,2.1,10.5-4.2,16.5c9.2-1.7,6.6-12.6,5.6-19.3c7.8-12.3-5.7-22.5-15.1-28.5   c3.7-4,10.9-3.9,14.9-7.7c-0.2-0.3-0.5-0.6-0.8-1c-4,1.8-7.9,3.6-11.9,5.2c-0.7-6.1,7.9-6,11.9-8.4c4.1,1.1,5.6,6.3,0.9,8.3   c-2.5,1.6-6.5,1.6-8.1,4c0.7,1.2,1.3,2.4,1.9,3.6c0.7,0.3,1.3,0.6,2.2,1c2.4-2,5.4-1.6,8.4-1.8c0.4-4.7,5.9-4.6,7.6-8.3   c2-0.9,3.8-2.1,5.4-3.8c1.2,0.3,2.2,0.6,3.3,0.9c-6.2,5.7-12.8,11-20.3,14.9c16.7-4.9,28.1-19.7,39.7-31.9c0.1,0.2,0.3,0.4,0.6,0.8   c5.9-5,11-9.9,17.7-14.1c-8,12.4-18.1,24.3-29.7,33.7c1.3,1.9,2.6,2.5,4.5,3.9c28.7-5.7,34.6-24.5,51.6-43.9   c1.2,1.7,3.8,3.5,1.8,5.4c-0.1-0.6-0.3-1.3-0.4-2.1c-7.9,18.6-20.8,36.1-27.2,54.6c8.4-14.3,15.2-28.5,23.5-42.7   c7.6-4.1,13.2-10.8,22-12.7c0-0.4,0.1-1,0.1-1.7c6.9,45.2-30.1,82.5-69,99.4c-3.9-4.8-10.5,3.1-15.8,1.5c-1.2,0-2.5-0.3-3.6,0.4   c-0.2,2.7-0.2,2.7,2.1,3.4c-15.2,5.4-29.6,12.2-45,17.1c-4.9-3.3-11.3-4.2-16.6-7.3c0.4-0.1,0.9-0.2,1.5-0.4   c-5.7-6.4-10.2-13.3-16.1-19.1c-0.6,0.2-0.9,0.4-1.3,0.5c-0.7-1.4-2.5-0.5-3.8-0.7c1.2-1.8,3.2,0.2,4.5-1.6c-0.6-0.5-1.1-1-1.2-1.1   c-1.6,0.1-2.5,0.1-3.5,0.2c1-0.8,2.6-0.9,3.1-2.6c-5.6-4-7.6-12.1-5.1-18.4c0.7-2.2,2.4-4.5,1.1-6.9c-1.6,0.2-3.2,0.5-4.8,0.7   c-0.5-1.5-1.5-2.4-1.5-3.8c1.8,0,2.5-2.1,3.6-3.1c1.8,0.5,3.7,0.8,5.1,2.5c0,1.7,0,3.6,0,5.5c6.2-3.5,4.5-11.6-2.3-12.6   c-8.6-3.4-27.8,1.3-23.1-13.8c0.5,0.3,1,0.6,1.6,0.9c7.3-13.4-8.7-21.6-19.8-24.5c-1.2-2.4-2.6-5.2-4-8c0.9-0.4,0.8-1.1,0.8-1.9   c-0.1-3.8,1.8-7.3,3.8-10.3c18.7-2.1,25.2,6.4,41.6-9.2c1.3,2.1,3.8,2.9,5.8,4.2c0.2-0.5,0.4-1.1,0.7-1.9c0.4,0.3,0.7,0.6,1.1,0.8   C483.1,400.9,507.1,436.9,510.5,437.3z M580.9,497.2c2.1-1.2,4.6-1.5,5.7-3.8c-15.4,6.3-40.3,17.1-52.4,25.6c0.8,1.9,3,0,4.2-0.5   C552.2,510.6,566.1,503.1,580.9,497.2z M567.3,488.3c4.1-2.5,8.3-5,12.5-7.5c-0.8-2.9-24.4,13.6-23.2,15.2   C560.4,493.6,563.7,490.7,567.3,488.3z M632.5,437.3c-1.6,6.6-5.2,12.6-5.9,19.4c3.1-7,11.9-28.6,9.3-34.9   C634.7,427.1,633.6,432.1,632.5,437.3z M470.1,436.5c-2.4,0.8-12.8,3-8.4,6.2c5.4-2.6,10.4-4.8,15.5-8.4   C474.1,434.2,472.2,435.6,470.1,436.5z M518.7,525.8c0.2-7.3-27.4-27.8-33.2-24.8c2.3,4.3,7.4,5.9,11,9   C503.6,513.3,512.3,525.3,518.7,525.8z M483.6,461.4c15.6-5.9,32.3,10.2,31.1,26c3.5-1.6,1.5-7.6,1.1-10.7   c-2.1-10.4-11.1-17.9-21.4-19.8C491.2,455.8,479.2,456.2,483.6,461.4z M491.3,492.3c-2-1.7-9.4-1.3-8.4,1.8   C486.5,494.4,489.7,493.8,491.3,492.3z M450.4,424.5c0.2,0.2,0.3,0.5,0.5,0.7c3.9-1.3,7.6-1.3,11.6-2.7c-0.3-0.4-0.6-0.7-0.8-0.9   C457.8,422.4,453.2,421.5,450.4,424.5z M526.6,509.7c3.1-0.8,5.6-2.3,8-3.9C533.6,503.1,527.8,508.5,526.6,509.7z" />
	<path fill="#B7BDD5" d="M305.7,512.4c10.7-6,15.8-18.1,11.4-29.8c4.5-2,8.9-5,13.7-5.7l-0.1-0.1c6.5-0.3,13.8-7.4,20-10.7   c4.6,2.3,9.7,3.8,14.1,5c-1.6-3.5-6.6-4.5-9.3-7.5c7.5-7,13.6-15.6,22.1-21.9c1.7,2.3,5.8-0.8,6.2,3.2c-1.1,2.1-2.4,4.6-3.7,7.1   c1.6,0.1,2.9-0.3,3.9-1.6c5-4.7,12.5-5,19-4.8c14.3-1.8,27.9-3.8,42.5-3.7c-6.1-3-11.9-4.9-17.8-8.4c0.9,0,1.9,0,3.6,0   c-2.2-0.8-4.1-3.5-5.8-1.5c-3.3-1.7-4.2-6.1-7.9-7c-0.7-0.1-1.3-0.7-0.9-1.9c5.4,0.2,10.9-0.5,16.5-0.3c5.4,9.1,20.4,7.1,22.2,19.4   c-5.4,14.4-3,21.5,13.2,22.5c5.2,14.4,3.3,31.1,7,46.2c-61.5-10.6-121.3,4.2-182,12c0.5-1.7,1.7-2.6,3-3.7c0,0,0,0,0,0   c0.3-0.2,0.6-0.4,0.9-0.7l0,0C300.6,517,303.1,514.6,305.7,512.4z M441.9,435.7c-0.9-1.6-2.7-1.3-4-2c-1.3-0.7-2.7-1.6-4.7-0.5   C436.2,434.6,438.6,436.6,441.9,435.7z M375.4,477.8c1.3,1.8,2.6,2.1,4.7,1.7C378.6,478.4,377.8,476.9,375.4,477.8z M370.1,473.1   c0.8,2.2,0.8,2.2,3.2,2.2C372.6,474,372.4,472.6,370.1,473.1z M384.8,481.1c-0.8-0.6-1.1-0.6-1.5,0.2   C384,482.1,384.2,482,384.8,481.1z" />
	<path fill="#EECABA" d="M267,481.3c0.1,0.5,0.2,0.9,0.4,1.5c40-13.4,50.3-40.3,78.7-64.5c3.1,8.4,0.8,15.8-3.3,23.4   c11.9-5,19.6-17.7,30.3-25.2c11.4-10.6,26.6-16.5,38.1-26.4c3.2,1.8,6.2,3.2,9.2,5.5c-4.8,15.2-23.7,17.5-32.9,29.6l0.1,0   c-1.6,0.7-3.7,2.6-3.7,4.6c-11.7,9.8-22.6,20.4-34.1,30.5c-0.2-0.3-0.4-0.6-0.8-1c-5.2,2.5-10,5.3-14.6,9c0.4,0.4,0.6,0.7,0.8,0.9   c-21.6,12.4-47.8,16.7-66,34.3c2.7-0.2,4.1-1.7,5.7-3c12.8-5.7,24.1-14.3,38.3-16.7c5.3,13.9-6.3,26.3-16.8,33.8   c-0.5,0-0.8,0.6-1.3,0.9c0,0,0,0,0,0c-0.3,0.2-0.6,0.4-0.9,0.7c0,0,0,0,0,0c-24.2,14.1-58.7,2.5-79-14.7   c-3.5-9.1-14.8-15.7-16.6-25.6c-0.8-2.2-2.2-4.9-3-7.2c14.5,14.3,33.8,12.6,52.4,8.8c7.7-10.9,13.2-21.3,20.6-32.7   c0-0.6-0.2-2.7,0.8-3.4c0.4,1.9-1.9,6.8,0.9,6.9c-0.4-2.2,0.9-5.2-0.9-6.9c0.9-1.7,1.2-0.1,2,0.4c1.3-1.4,3-2.2,5.1-2.6   c6.2,10-2.2,23.5-7.2,32.5c-0.5-2.2,1.2-3.8,0.2-6.2c-1.9,5.1-3.9,10.2-4.1,16C265.9,483.3,266.5,482.3,267,481.3z M259.5,508.6   c1.8,0,7.3-1.5,5.3-3.8C262.9,505.7,261,506.9,259.5,508.6c-0.6-0.5-1.2-1.1-1.9-1.7c-0.6,0.4-1.1,0.8-1.9,1.4   C257.2,508.5,258.4,509.9,259.5,508.6z M258.6,491.1c-4.8,3.7-9.5,7.4-14.4,11.2c-0.1,1.2-0.8,2.5-0.5,4.1   c7.3-0.3,20.8-12.9,19.1-20.4C260.8,487.3,259.8,489.3,258.6,491.1z M335.8,447c-5.7,7.3-9.8,14.1-18.2,18.2   C320.2,474.1,337.4,452.7,335.8,447z M335,444.9c1.2-1.6,1.5-3.2,1.4-5.1C334.3,440.5,332.6,443.3,335,444.9z M341.9,424.5   c-1.8-0.7-6.2,5.1-3.1,5C339.7,428,340.7,426.5,341.9,424.5z M335.7,437.1c0.9-1.4,1.6-2.5,0.9-4   C334.4,435.1,334.4,435.3,335.7,437.1z M269.8,462.5c1.3-1,1.2-2.3,1-3.8C269,460.2,269,460.2,269.8,462.5z" />
	<path fill="#E4E4EB" d="M729.1,329.5c4,1.1,8,2.2,12.1,3.4c5.2,6.1,16.5,2.4,20.5-4c5.3-15.8-2.6-36.6,10.3-49.7   c11.1,4.8,13.6,17.1,21.7,25c-0.3,6.6-6.1,11.8-4.5,18.4c6.3,0.3,6.8-9.9,9.5-14.2c1.9,1,3.6,2,5.5,3c-0.5,4.2-4.6,7.5-2.9,11.9   c5.3-1.1,6.1-5.8,8.4-9.5c2.8,0.2,5.5,0.9,7.8,3c-1.2,3.4-3.5,6.5-2.6,10.5c3.7-1.5,5.3-4.7,7-7.7c1.5,0,2.4,0.9,3.4,1.8   c-1.8,2.8-3.3,6.5-1.1,9.4c3.7-1.2,3.2-4.9,4.6-7.5c2.2,1.2,4.2,2.3,6.4,3.5c0.1,2.5-1.2,5.4,2.1,7.2c0.7-1.5,1.3-2.9,2.1-4.5   c11.7,6.3,24.3,4,36.8,3.5c3.6,1,3.6,1,6.9-1.4c6.8,3.2,7.9,10.3,7.6,17.1c-11.1,6.5-24.9,2.4-36.1,9   c-17.4,12.3-40.4,12.3-59.7,4.4c-5.7,0.8-7.2,6.1-10.1,10.1c-4.3,7.2-14.1,3.5-21,4.3c-7.1,0.1-13.9,2.4-20.9,3.5   c-6.2-16.2-4.7-35.4-15-50.3C728.1,329.7,728.6,329.6,729.1,329.5z" />
	<path fill="#FBDFD3" d="M40.4,391.7c0-0.6,0-1.2,0-2c1.1,0.1,1.9,0.2,2.9,0.3c8.2-3.9,15-11,23.4-14c18.2,11.5,29.6-38.4,38.3-7.4   c-0.7,0.9-1.5,1.9-2.3,2.9c3.2,4.7,7.9-0.9,7.2-5.7c-0.8-0.7-1.8-1.4-2.8-2.3c0.3-0.3,0.5-0.5,0.8-0.7c1.9,0.4,3.4-0.5,5.1-1.4   c7.8,6.6,18,18.4,13-1.5c0.6-0.7,1.1-1.2,1.5-1.8c0,0,0,0,0,0c0.3,0,0.6,0,0.9,0l0,0c0.9,1.7,3.1,0.4,4.6,0.9   c5.2,0.2,8.6-7.6,14.4-4.7c5.7,9.3,1.9,27.3,8.3,36.3c1.4,11.7-2.9,22.3-3,33.7c-1.4,2.3-4.2,4.1-4.4,6.8l0,0c-1.9,1.3-3.6,3-6,3.5   c-1.6,2.9-3.1-2.1-5-0.1c0.2,0.7,0.4,1.5,0.7,2.3c-0.5,1.3-2.5,1-2.5,2.7c0.7,2.7,3.3,1.5,3.5,4.3c-1.1,3-0.7,8.3-3.4,10.9   c-0.7,0.6-1.2,1.3-0.9,2.3c-1.7,4-1.9,8.9-5.5,11.8c-0.7-0.1-1.7,0.5-2.1-0.6c1.5-2.4,3.7-4.3,2.9-7.6c-2.5,1-2.5,4.4-5.5,4.8   c-0.9-0.5-1.9-1.1-3.1-1.7c1.1-2.4,2.8-3.7,4.9-4.6c1.2,0,2.6,0.3,3.7-1.1c0.1-0.7,0.2-1.7,0.3-2.8c6.9-5.5-6.7-20.9-8.6-7.4   c3.7,1.2,0.4,3.9-0.9,5.8c-1.6-0.3-3-0.6-4.5-0.9c-0.1-1.2-0.2-2.2-0.2-3.2c-3.8,0.2-4.2,6.9-6.4,9.6c-4.7-9.8,9.1-14.7,11.8-22.2   c-1.6-2.1-3.6,1.5-5.3-0.8c0.5-2,1-4.1,1.6-6.5c-0.8-1.1-2.1-1.3-2.7,0c-0.6,3-3.3,4.3-4.6,6.4c-22.1,4.7-37.4-15.1-57-19.9   c0.8-3.5-4-15.5-7.5-13.8l0,0c-2.6-1.3-3.4-4.5-5.2-6.7C41.5,394.4,41.5,393,40.4,391.7z M81.3,412.5c-1-2.3-1.1-5.3-3.7-6.5   c-8.4-4.1-0.6-23.8-11.5-21.7c-2.1,4.8,0.8,9.4,2.1,13.8c-0.1,3.5,2.8,5.8,3.8,8.9c1.3,3.9,5,5.2,8.1,6.7   C80.8,413.4,81,413.2,81.3,412.5z M78.3,387.1c-0.9-0.4-1.5-0.6-2.4-1c-0.4,0.6-0.8,1.2-1.2,1.7c2.7,5.1,5.5,9.3,10.4,12.4   c4.2,0.9,1.7-4.4,0-5.7c0.8-4.3-0.4-8.4-5-9.4C79.4,385.7,79,386.3,78.3,387.1z M121.8,416.9c2.3-0.5,4-5,1.8-6.2   C121.3,411,120.3,415.3,121.8,416.9z M119.5,425.1c3.1-1.1,3.4-4.1,2.2-6.7c-2,1.5-2.6,3.4-3.2,5.7   C118.8,424.4,119.2,424.8,119.5,425.1z" />
	<path fill="#FBDFD3" d="M567.2,213c7.9,5.6,18.4-2.2,27-1.5c1.5,3.3,3.1,6.6,4.6,9.9c-2.9,3.2-1.8,3.2,1,5.6c-2,3.4-1.4,5.8,1,8.7   c-2.6,1.4-2.3,3.7-2.3,6.5c2,1.6,4.2,3.2,5.3,5.7c-1.7,1.7-4.9,0.7-6.1,3.4c3.4,1.7,6.3,0,9.8-1.1c0.3,0.1,1.1,0.3,2.1,0.6   c0.1,0.4,0.2,0.9,0.2,1.4c-6.5,2-12.8,5.9-19.5,6.5c-0.3-0.6-0.6-1.3-1-2.1c-1.2,0.5-2.1,1-3.1,1.7c-1.1,0.1-2.4-0.4-3,1.1   c1.2,0.8,2.5,0.2,3.6,0.3c0.2,0.2,0.3,0.3,0.6,0.7c-6.2,1.8-8.6,8.8-15,10.1c-4.9,0.8-10.5,4.7-15.1,3.7c0.5-0.6,1-1.3,1.9-2.4   c-1.3,0.4-2,0.7-2.8,0.9c-0.6,1.4-1.4,3.9-3.4,2.7c1.6-4.1,4.4-7.6,4.8-12.3c-18,6.5-29.6,25.5-43.1,38.6c-0.8-0.3-1.5-0.7-2.2-1   c-1.7,1.6,0,3.4-0.9,5.1c-15.5-5.5-31.5-8.7-48.7-7.5c14.8-9.7,28.5-20.2,42-31.9c0-0.1-0.1-0.5-0.2-0.9   c7.6-6.4,15.9-12.1,22.8-19.7c-0.2-0.4-0.6-0.9-1-1.6c10.3-14,12.4-33.1,27.6-43c9-3.4,14.5-22.9,25-16c0.7,4.6-3.4,8.9-6.3,12.2   c-3.1,4.3-4.7,9.9-7.6,14.4c-3.9,0.8-8.1,0.2-10.9,3.9c0.3,0.3,0.7,0.6,1,1C559.6,215.1,562.9,212.5,567.2,213z M583.2,248.5   c1.2,1.8,2.5-0.3,4.1-0.6c4.3,0.3,14.5-0.8,7.2-6.2c-6.8,0.4-25.4-0.7-25.5,8.7c2.7,0.6,4.8-1.3,7.3-1.8c1.5,1.2,3.1,1,4.7,0   C581.7,248.6,582.5,248.5,583.2,248.5L583.2,248.5z M564.1,237.8c-0.6,0.5-1.5,1-1.1,2.1c1.7,0.4,2.1-1.6,3.6-2   c6.6,1.8,13.3-3.5,20.3-3.8c2.4-0.5,2.8-1,3.2-3.8c0.3-1,1.5-1.8,0.4-3.2c-1.3,0-2.3,0.9-3.2,1.8C581,228.6,567,232.1,564.1,237.8z    M592,216.3c1.7,3.1-1.9,6.9,1.1,8.3C596.5,223,596.2,217.3,592,216.3z M553,216.9c0-0.9-0.1-1.4-0.9-1.8c-1.4,0.3-4,3-1.8,3.6   C551.2,218.1,552.1,217.5,553,216.9z M564.3,269.1c-1.4-1-1.4-1-2.7,0.4C562.7,270.5,562.7,270.5,564.3,269.1z M595,234.2   c-0.5,1.3-0.5,1.3,0.6,2C596.1,235,596.1,235,595,234.2z" />
	<path fill="#EECABA" d="M332.1,281.6c-0.2,2.1,1.3,3.4,2.4,5.2c2.7,0.3,4.6,2.3,6.8,4.3c0.7-0.8,1.2-1.4,1.7-2   c0.9,0.2,1.8,0.2,2.1,1.3c-1.8,1.3-1.7,3-1.1,5.3c1-1.9,1.6-3.5,1.1-5.3c29.3,48.5,83.4,75.4,132.9,100   c-13.2,15.4-24.2,6.6-41.7,9.7c0.4-0.4,0.7-0.8,1.1-1.2c-2.1-1.2-4.1-2-6.5-1.8c-1.4,0.3-3.5-1.7-4.4,0   c-25-16.9-47.3-38.1-68.4-59.5c-10.5-8.9-19-19.4-26.1-31.2C326.2,298.8,330.8,289.8,332.1,281.6z M341.7,306.7   c3.5,0.6,4.2-7.3,2.4-9.4C343.6,300.8,340.8,303.4,341.7,306.7z" />
	<path fill="#EECABA" d="M588.5,171.9c10.5-4.8,9.7,11.4,12.3,17.7c12,11.8,18.2,29.1,28.4,42.4c9.6,7.2,49,19.7,45,32   c5.2,3,14.3,4.8,11.4,12.8c9.5,9.4,20.5,17.2,30.8,25.9c-1.6-4.2-4.4-5.9-6.6-9.4c0.9-0.1,1.8-0.3,1.5-1.8c-1-0.8-2.1-1.6-3.2-2.5   c-0.5,0.4-0.4,0.6-0.5,1.1c-1.5-2-1.5-5.2-3.6-7.2c-0.1-0.1,0-0.5,0-1c14.2,6.2,25.1,19.6,33.6,32.3c0.5,0.1,0.8,0.2,1.2,0.2   c-3.1,2.9-6.5,5-10,7.5c-3.8-2.1-9.1-1.4-11.1-6.2c-21.4-15.6-42.9-33.3-66.1-46.2c0,0,0,0,0,0c-17.5-9.9-34.3-20.1-40.2-40.4   c0.2-0.6,0.4-1.1,0.4-1.2c-9.6-16.8-18.6-34.5-21.7-53.2C590,173.6,590.4,171.7,588.5,171.9z M717.4,296.3   c-0.5-0.3-0.9-0.8-1.5-0.8c-0.3-0.5-0.7-1-1.6-0.4c2,1,4.7,8.6,6.8,4.7C720.4,298.1,718.9,297.2,717.4,296.3z M723.5,304.6   c-0.7-0.8-1.5-1.5-2.8-1.4c2.3,2.5,9.9,16,13.3,13C731.8,311.8,728.2,306.6,723.5,304.6z" />
	<path fill="#E4E4EB" d="M477.1,75.7c8.8-5.2,19-5.8,28.9-4c10.8,12.6,20.8,24.6,26.2,40.5c2.3,5-2.3,10.3-3.3,15.3   c-4.6,10.2-9,20.4-11.5,31.3c-0.5-0.2-0.9-0.3-1.4-0.5c-0.3,0.6-0.6,1.3-1,2.1c-7.3-1.6-12.7-8.1-21-5.7c-1.9-1.8-0.8-5-0.8-7.6   c8.4-0.9,16.9,0.4,24.8,0c-4-6.2-19.4-4.1-26.5-4.6c-0.5-1-1-1.9-0.8-3.1c7.9-2.9,16.8,2.2,24.4-0.4c-3.1-6.2-21.9-2.1-27.1-5.2   c0.2-0.4,0.3-0.9,0.5-1.3c7.7-1.6,15.6-2.1,23.3-1c0.2-0.3,0.6-0.8,0.8-1.2c-4.1-9.5-27,3.5-29.1-5.7c4.8-5,20.5,0.7,24-3.8   c1.1-4.6-24.4-3.4-25.9-0.5C470.2,108.8,479.6,90,477.1,75.7z M484.9,113.8c0.3,3.1,19.2,2.1,19.2-0.6   C505.2,108.3,485.2,109.8,484.9,113.8z" />
	<path fill="#CCD2E9" d="M286.1,344.1c32.2-9.9,57.6-10,82.6,12.5c-1.3,1.3-2.7,2.5-4.2,4c-30.2-3.5-58.6,12.1-86.4,21.5   c-17.7,2.6-36.5,0.8-54.1,6.1c-0.3-0.3-0.7-0.7-1-1c2.1-2.7,4.6-4.8,7.9-6c19.6-7.2,37.5-19.7,55-29.9c18.6-2.5,40-7.8,57.8-0.6   c1,1,7.9,1.4,3.9-0.7c-15.8-9.8-41.5-4-59.8-0.8c-0.4-1.8-1-3-2.1-4.3C285.9,344.6,286,344.3,286.1,344.1z" />
	<path fill="#FBDFD3" d="M173.2,382.6c8.1-0.5,15.8-0.3,23.2,3.4c1.8,0.6,3.4,1.4,5.4,0.6c4.1-0.5,8.5,1.5,12.8,0.6   c0.3,0.3,0.6,0.7,0.9,1c-12.3,14.2-24.6,29.4-26.9,48.7c-3.9,4.2-6.2,10.4-6.7,16.1c-5.9,0.1-8.5-5.2-14.2-5   c-5.6-0.1-11.4,0.8-16.8-0.7c-0.1-2.5-1.4-4.6-2.3-6.8c8.8,4.9,10.3-6.1,11.4-12.9c1.5-1.2,3.1-2.5,4.6-3.7c1-0.4,2.1-0.7,1.7-2.3   c-1.1,0.5-2.4,0.5-3.3,1.5c-0.7,0.1-1.1-0.1-2-0.2c5.2-12.8,10.8-26.4,10.2-39.8C172,382.8,172.6,382.7,173.2,382.6z M193.4,401.6   c1.3-0.8,2.7-1.4,3.5-2.7c-1.9,0.5-4,1.1-4.9,2.8C192.5,401.7,193,401.9,193.4,401.6z M186,407.8c-1.6-1.6-4.1,1.3-2.6,2.8   C184.3,409.6,185.1,408.7,186,407.8z M172,417.4c-0.2-0.2-0.4-0.4-0.6-0.6c-1.3,1.1-2.2,1.1-1.9,3.3   C170.6,418.9,171.3,418.2,172,417.4z M175.2,413.5c0.9,0.6,2.2,0,1.5-0.6C176.3,412.9,175.9,413.2,175.2,413.5z" />
	<path fill="#EECABA" d="M504.4,212.1c-3.9,1.3-7.3,4.2-10.4,6.7c-2.4-5.1,13.5-22,17.3-27.2c-0.3,19.8-8.7,36.8-19.1,53   c-6,7.7-5.9,18.5-13.2,25.2c-9.5,8.8-18.3,19.1-31.3,22.5c-10.5-2.2-21.1-5.6-30.5-9.4c1.5,4.3,8.4,2.8,8.4,7.2   c-7.4-1.5-22.6-5.1-15.2-15.2c-0.4-0.6-0.8-1.2-1.3-1.9c9.1-1.5,19.5,1.3,29.1,1.9c3.8-7.4,13.9-4.7,19.6-10.6   c20.9-12.7,35.8-31.3,46.9-52.9C504.6,211.7,504.5,211.9,504.4,212.1z M411.2,278.3c-0.4,1.5,0.8,2.8,2.2,1.7   C412.8,278.9,412.8,278.9,411.2,278.3z" />
	<path fill="#5876E8" d="M639.5,385.5c-1,0.1-2.1,0.7-2.4-0.7c0.5,0,1,0.3,1.4-0.2c-0.4-2.6-2.2-6.2-5.9-11.9   c-0.4-1.4-1.7-2.6-1.7-4.2c0.3-0.2,0.6-0.6,0.8-0.5c2.2,0.8,4.4,0.3,6.4,0.3c6.8-6.6,2.5-16.9-1-24.2c1.7-0.8,3.4-0.4,3-3.1   c-0.3-0.2-0.6-0.4-0.9-0.6c-3.7,0.7-6-1.5-7.4-4.7c0.7-2.9,3.4-1.4,5.2-3.5c-5.4-0.2-7.4,2.2-11.3-3.4c3.8-2.7,8.4-8.1,4.9-12.9   c-0.8-1.1,0.3-3.2-1.8-3.3c-25.4,22.7-45.9,1-70.6-10.8c1.1-2.9,3.1-4.7,5.4-6.3c2.1,0.9,4.1,2.4,6.5,2.5   c2.5,0.5,11.4,7.7,12.1,4.8c-5.4-3.7-12-5.3-16.5-10.2c0.1-1.4-0.3-2.9,0.3-4.3c0.5-0.1,0.8-0.2,1.2-0.2   c11,4.5,17.8,16.8,28.9,19.9c7.7-0.6,16.7,3.2,23.7-1c3.5-14.2-2.9-29.3-3.1-43.8c1.5,1.3,2.1,2.7,2.2,4.4   c0.5,9.1,3.2,17.6,7.6,25.5c4.8,6.8,9.4,13.8,13,21.3c6.2,12-0.3,25.5,3,37.7c3.7,12.6,0.9,25.4,0.3,38.2c-0.8-0.5-1.5-0.9-2.7-1.7   c1.6,4.8,2.4,8.3,4.5,12.5c-0.9-0.3-1.9-0.7-2.8-1c-0.7-1.1-1.7-2.2-0.7-3.6c-1.2-2.4-2.4-4.7-3.6-7c0.3-0.7,1.9-3.8,1.7-3.5   C639.7,385.8,640.1,385.2,639.5,385.5z M637.9,380.2c1.5,1.4,2.5,3.5,5.1,2.1c0-2,0-3.8,0-5.7c-0.5-0.7-0.9-1.4-1.5-2.3   c0.8-0.7,1.5-1.4,2.3-2.1c0-1.9,0.3-3.8-0.3-6c-2.6,0.8-2.7,4.2-5.6,4.5c-0.7-0.4-1.7-0.9-3-1.7c-0.1,1.5-0.2,2.5-0.2,3.4   C637.7,375.7,637.7,375.7,637.9,380.2z" />
	<path fill="#CFCFDD" d="M729.1,329.5c-0.5,0.1-1,0.2-1.6,0.4c10.4,14.8,8.8,34.1,15,50.3c7-1.1,13.8-3.4,20.9-3.5   c6.9-0.8,16.7,2.9,21-4.3c2.9-4,4.5-9.2,10.1-10.1c19.2,7.9,42.2,7.9,59.7-4.4c11.3-6.6,25-2.5,36.1-9c0-1.4,0-2.8,0-4.2   c1.1,3,1.1,6.5,1.5,9.4c-2.7,2.8-4.7,3.9-10.9,6.5c-9.8-1.5-19.1,6.7-28.6,9.2c-17.8,7.7-36.4,5.6-54.9,3.2   c-9-1.8-13.7,9.4-22.2,9.7c-14.2,2.6-29,3.1-43.3,1.4c2-9.8,0.4-20-4-29.3c-2.6-9.3,0.8-20.6-7.5-27.5c0.5-0.7,1-1.4,1.4-2   C724.2,326.8,726.3,328.6,729.1,329.5z" />
	<path fill="#CCD2E9" d="M433.3,422.9c-5.6-0.2-11.1,0.5-16.5,0.3c-0.6,2.8,3.7,1.7,4.3,4.1c5.9,8.2,16.1,10.2,24.5,14.6   c-14.6,0-28.2,1.9-42.5,3.8c-6.5-0.2-14.1,0.1-19,4.8c-1,1.2-2.3,1.6-3.9,1.6c1.3-2.5,2.6-4.9,3.7-7.1c-0.4-4-4.5-0.9-6.2-3.2   c7.4-7.4,16.1-13.5,22.8-21.6c2.1-2.6,3.3-6.1,7.5-7.4c7.8-4.2,11-6.7,15.2-14.9c2,0.7,3.6,2.1,5.4,3.1   C424,408,431.5,415.8,433.3,422.9z M415.6,428.3c0.9,1.1,1.9,1.7,3.4,1.3c-3-1.1-14.2-13.8-15.5-8.9   C405.9,423.5,411.1,425.5,415.6,428.3z" />
	<path fill="#FBDFD3" d="M612.8,262.9c2.2,13.5,7.4,28.1,5.1,41.7c-28.6,5.7-29.2-9.5-51.6-20.7c1.5-1.1,3.1-1.3,4.6-1.9   c0.5,0.2,1.1,0.4,2.1,0.7c7.3-2.7,13-8.3,19.6-12.5c6.2-3,13.1-4,18.8-8.1C611.9,262.5,612.4,262.7,612.8,262.9z" />
	<path fill="#4B65C5" d="M630.2,314.5c3.4,5.8,0.5,10.7-4.5,14.2c0.3,0.5,0.6,1.2,1,1.4c1.8,0.7,2.7,3.2,5.1,2.6   c-8.5,3.9-18.7,5-27.4,8.3l0.1-0.1c-9.8-4.9-17.3-13.9-27.3-18.7c-3.1,0.3-5.2-1.7-7.4-3.2c-12.4-8.5-27.7-10.1-41.6-14.2   c4-5.6,9-10.1,14.2-14.9c3.4,5.7,6.6,14.3,12.1,17.1c-4.4-5.9-8.2-11.8-10.6-18.7c0.6-1.2,2.4-2.2,1.6-3.7c0.6-0.4,1.3-0.5,2.1-0.5   l0,0c0,0.3,0,0.5,0,0.8c-2.3,2.3,2.8,2.4,3.9,1.8c4.3,3.1,8.3,5.6,12.2,8.7c-2.3,1.6-4.3,3.4-5.4,6.3c6.5,5.5,17,6.7,22.5,12.9   c9,2.8,16.7,8.5,26,9c-11.5,5-32.4-12.1-44.8-13.8C585.7,324.9,606.3,337.7,630.2,314.5z" />
	<path fill="#EECABA" d="M540.7,110.4c4,12.8-4,27.5-4.5,40.9c-3.1,22.5-3.8,45-4.6,67.6c-15.4-17.3-17.1-34.4-11-55.9   C526.5,147.4,528.6,121.5,540.7,110.4z" />
	<path fill="#EECABA" d="M546.4,284.2c-9.7,3.6-16.9,11.2-21.7,20.3c-3.3-0.7-6.7-1.4-9.9-2.8c13.6-13.1,25.1-32,43.1-38.6   c-0.4,4.7-3.2,8.3-4.8,12.3c2,1.2,2.8-1.3,3.4-2.7c1.1,5.1,11.9-2,15.9-2.1c6.4-1.4,8.8-8.3,15-10.1c-0.3-0.3-0.4-0.5-0.6-0.7   c0.1-0.2,0.1-0.4,0.2-0.6c0.9-0.1,2.1,0.1,2.4-1.5c-0.6-0.1-1.1-0.2-1.7-0.3c0.5-0.2,1-0.5,1.7-0.8c0.4,0.8,0.7,1.5,1,2.1   c6.7-0.6,13-4.6,19.5-6.5c0.3,0.8,0.7,1.5,1,2.3c-8.1,8.1-19.5,12.5-28.8,19.6c-9.7,7.1-23.1,7.8-34.6,10l0,0   c2-2.6,5.2-4.2,6.5-7.3c-2-1.4-2.6,2.2-3.6,3.3C549.2,281.4,545.8,282,546.4,284.2z" />
	<path fill="#4B65C5" d="M505.1,241.7c1.7-14.5,7-28.5,10.1-42.8c3.7,11.5,10.3,19.8,18.5,28.2c-2.2,3.7-4.2,8.6-7.4,11.6   c-3.9-6.5-8.1-12.6-12.4-18.8c2,6.2,6.3,14.3,11.2,19.3c0.6-0.3,0.9-0.4,1.3-0.6c-0.2,2.1-1.7,3.5-2.4,5.3c-1,0.3-0.2,2-1.4,2.2   c-2.4-1.6-2.1-4.8-4.5-7c0.2,3.4,1.8,5.6,3,8.6c-4,4.2-8.7,7.6-13.5,10.8C505.7,253.1,506.9,246.5,505.1,241.7z" />
	<path fill="#EECABA" d="M151,447.2c5.4,1.5,11.2,0.6,16.8,0.7c5.6-0.2,8.3,5.1,14.2,5c0.1-1.5-0.2-3,0.9-4.2   c0,5.6-0.9,10.8-0.1,16.2c-11.6-1.1-22.9,3.8-34.1,0.9c-0.5-1.5-1.6-3.5-3.5-3c-2.6,0.3-5-0.9-7.7-0.6c-0.5,0.8-1,1.5-1.5,2.4   c-1.5-2.6,1.6-5.9,1.9-8.7c0.4-1.7,2.2-1.2,3.6-1.3c0.5-0.9,1.1-1.8,1.7-2.8C146,451.1,153.9,452.3,151,447.2z M157.2,450.2   c1.1,0.4,1.4,0.5,1.7,0.6C159.6,449.4,158.5,449.5,157.2,450.2z" />
	<path fill="#EECABA" d="M173.2,382.6c-0.6,0.1-1.2,0.2-1.9,0.2c0.6,13.4-5,27-10.2,39.8c0.6,0.1,1,0.2,1.3,0.3   c-2.1,1.7-4.2,3.3-6.3,5c-0.3,0-0.7-0.1-1.1-0.1c0-9.1,4.1-17.9,3.9-26.7c-4,0.3-2.2,8.3-4.1,11.2c-0.3,0-0.6,0-0.8,0   c1.4-7.1,1.8-14.1,1.5-21.4c-6.6-10.5-2.2-25.5-8.3-36.3C160.5,363.6,150.2,378.6,173.2,382.6z M158.3,420.5   c2.3-1.3,2.5-1.4,2.4-2.6c-0.5-0.3-1-0.7-1.5-1C157.7,418,157.6,419.1,158.3,420.5z" />
	<path fill="#4B65C5" d="M637,344.1c1.9,5,5.3,9.7,4.5,15.3c-4.8-1.7-9.7-2.4-15.1-2.2c4.2,3.5,9.9,4.7,15.1,3.4   c-0.8,2.8-0.5,5.8-3.4,7.7c-2,0-4.2,0.5-6.4-0.3c-0.2-0.1-0.5,0.4-0.8,0.5c-5.8-8.9-13-17-21.9-22.9c-0.2-0.4-0.3-0.9-0.6-1.7   C618.2,344.8,627.3,344.5,637,344.1z" />
	<path fill="#CECEDC" d="M484.6,123.3c-0.3,0.3-0.6,0.7-1.2,1.2c0.7,1.3,0.6,3.2,2.9,3.4c-7,2.2-3.5,5.5,2.1,4.4   c-0.2,0.5-0.3,0.9-0.5,1.3c1.2,1.6,3,0.6,4.4,1c-9.3-0.1-15,6.6-1.7,4.5c-0.2,1.2,0.3,2.1,0.8,3.1c-2.8,0.4-5.7,0.2-8.4,1.4   c-9.7-25.7-17.4-29.1-11.3-58.3c-1.7-2.6,0.2-5.8,0.3-8.7c2.1,0.4,3.3,0.1,4.8-1.2c2.5,14.3-6.9,33.1,4.5,44.7   C481.4,122.5,482.9,123.1,484.6,123.3z" />
	<path fill="#060505" d="M156.2,428c2.1-1.7,4.2-3.3,6.3-5c0.2,0,0.5,0,0.7,0c0.6,0.2,1.3-0.1,1.5,0.8c-8.1,4.1-12.2,16.5-21.8,16   c-0.6,5,1.7,11.4-3.5,15c-2.2,0.1-1.9,3.2-2.8,4.7c0-0.6-0.1-1.2-0.1-1.8c-3.1,0.9-2.5,7.7-5.2,10.1c0-3.5,2.2-7,3.1-10.5   c4.5-3.1,4.6-9.5,5.4-14.4c-1.1-1.7-2.4-1.9-3.9-1.9c-0.3-0.4-0.5-0.8-0.7-1.2c0-1.8,2-1.5,2.5-2.7c-0.2-0.8-0.4-1.6-0.7-2.3   c2-2,2.9,2.6,4.9,0.4c3,0.3,5.1-0.9,6.1-3.8l0,0c2.7-2,4.3-4.9,6-7.7c1.9,1.5-1.2,3.7,0.3,5.9C155.1,429,156.2,429.2,156.2,428z" />
	<path fill="#020305" d="M497.6,369.1c0.1,0.3,0.2,0.7,0.3,1.2c11.4-10.6,38.8-31.3,53.8-30.6c-19.5,8.7-41.5,21.8-56.1,37.4   c-0.6,0.1-1.2,0.2-1.8,0.3C495.1,374.7,495.8,371.3,497.6,369.1z" />
	<path fill="#F8DDD1" d="M279,353.1c-9.4,3.4-17.5,10.7-27,14.6c-0.3-0.3-0.6-0.6-0.9-0.9c0.9-1.2,2.6-1.8,1.8-3.8   c10.1-6,19-17.4,31.4-16.4c0.2,1.2,0.4,2.1,0.5,3.1C282.8,350.9,280.9,352,279,353.1z" />
	<path fill="#C9CEE5" d="M196.3,486c-11-10.7-14-29.7-8.2-43.6c1.3,14.3,2.1,29.1,9.2,42C197.2,485.1,197.2,485.8,196.3,486z" />
	<path fill="#FBFBFB" d="M484.7,170.3c-0.5-1.2-0.7-2.4,0.1-3.7c0.5-0.1,1.1-0.2,1.7-0.2c4.7-17.3,27.3-8.6,29.1,4.6   c-8.5-9.9-22.9-13.1-29.6,0C485.6,170.8,485.1,170.6,484.7,170.3z" />
	<path fill="#5673E2" d="M475.7,511c0-0.3,0.1-0.5,0.1-0.8c0.4,0.3,0.8,0.6,1.3,1c2.7-1.9,6-0.2,8.8-1.6c4.5,2.1,6,7.6,10.4,8.8   c-3.6-5.5-9.7-10-12.4-15.1c0.3-0.1,0.7-0.3,1.3-0.5c5.9,5.9,10.4,12.8,16.1,19.1c-0.6,0.2-1.1,0.3-1.5,0.4   c-4.2-1.4-8.4-2.7-12.6-4.1c0.4-0.5,0.9-0.9,1.2-1.3c-2.1-3.6-8.6,0.9-11-2.9C478.9,512.8,476.5,511.8,475.7,511z" />
	<path fill="#CDCDDB" d="M483.1,143.8c0.7-0.3,1.5-0.5,2.2-0.8c-0.5,0.7-1,1.4-1.5,2.1c3.7,4.2,18.1-1.2,25.2,1.6   c-5.4,0.1-10.5,0-15.9,0.3c0,2.6-1.1,5.7,0.8,7.6c-4.5,0.9-6.4,5.8-10.7,6.4c-0.4-1.8-0.8-3.6-1.3-5.5   C483.9,151.7,483.8,147.9,483.1,143.8z" />
	<path fill="#030407" d="M637,344.1c-9.7,0.4-18.9,0.7-28.7-0.1c0.3,0.8,0.5,1.2,0.6,1.7c-1.6,0-2.4-1.1-3-2.3   c9.8-5.2,22.6-0.7,33.2-2.9c0.3,0.2,0.6,0.4,0.9,0.6C640.4,343.7,638.7,343.2,637,344.1z" />
	<path fill="#E5C3B4" d="M588.5,171.9c1.9-0.2,1.5,1.7,1.6,3c-1.6,1.8-0.5,4.4,0.6,7c0.1-1.5,0.1-2.3,0.1-3.1l0.1-0.1   c1.1,1.7,0.5,3.7,0.6,5.6c-2.4,6.3,3.4,16.5,3.8,23.7c-1,0.1-2,0.2-2.9,0.3C591.5,196.5,585.7,184,588.5,171.9z" />
	<path fill="#383838" d="M37.4,389.5c1.6,2.5,2.1,5.5,2.2,8.4c-7.4-7.7-11.5-18.8-22.3-22c9.8-3.9,14.9,9.5,19.8,15.1   C37.2,390.4,37.3,390,37.4,389.5z" />
	<path fill="#E9C5B6" d="M609.7,234.9c2,1.9,2.3,4.7,3.6,6.9c-0.8,2.3-1.7,4.5-3.4,6.6c-2.4-2.7-6.8-5.6-4.4-9.9   C606.8,237.4,610.1,237,609.7,234.9L609.7,234.9z" />
	<path fill="#353535" d="M18.4,408.6c0,1.2,0,2.2-0.1,3.5c-0.6-0.2-1-0.3-1.5-0.4c-0.6-1.2-1.1-2.5-1.7-3.8c1.5-1.2,2.8-2.3,3.9-3.3   c-0.2-2.6-2.4-1.6-3.6-2.6c1.2-2.1,3.6-1.4,5.4-2.4C30.1,405,19.1,404,18.4,408.6z" />
	<path fill="#464544" d="M126.8,468.5c0.5,1.1,1.4,0.5,2.1,0.6c0,0.3,0.1,0.6,0.1,0.9l0,0c-0.6,0-1.2,0.1-1.5,0.8l0,0   c-0.6,0-1.3,0-1.5,0.7l0,0c-5.1,1.1-10.4-0.2-15.1-2.3c-1.2-1.6-4.5-0.1-4.6-3c0.8-0.3,0.7-1.1,0.9-1.7c1.8,0.2,3.3,1.3,5.2,1   c0.8,0,1.8-0.3,2.3,0.7c-1.6,0.1-3.2,0.1-5,0.2c4.5,2.4,9.8,5.1,14.8,2.8c0.1,0.4,0.2,0.8,0.6,2c0.5-1.5,0.7-2.1,1-2.8   C126.3,468.4,126.5,468.4,126.8,468.5z" />
	<path fill="#E9C6B6" d="M600.8,235.8c-2.4-2.9-3-5.3-1-8.7c-0.5-0.5-0.9-0.9-1.4-1.3c1.3-0.2,2.7-0.4,4.2-0.6   c0.4,2.9,0.8,5.8,2.9,8.4C603.9,234.6,602.4,235.3,600.8,235.8z" />
	<path fill="#E4C1B2" d="M597.7,222.9c0.4-0.5,0.7-0.9,1.1-1.4c-1.5-3.3-3.1-6.6-4.6-9.9c-0.4-0.1-0.8-0.2-1.2-0.2   c1.1-0.4,2.3-0.9,3.3-1.3c5.7,1.2,1.2,8.1,5.8,10.8C600.8,222.2,599.2,222.5,597.7,222.9z" />
	<path fill="#5572DE" d="M505.1,241.7c1.8,4.9,0.6,11.5,2.4,16.8l0,0c-1.3,1-1.9,2.2-3.8,2.7C503.6,254.6,503.8,248.1,505.1,241.7z" />
	<path fill="#F4D9CD" d="M335.3,469.2c-0.2-0.3-0.5-0.5-0.8-0.9c4.6-3.8,9.4-6.5,14.6-9c0.3,0.4,0.6,0.7,0.8,1   C346,464.7,340.7,467.3,335.3,469.2z" />
	<path fill="#181718" d="M279,353.1c1.9-1.1,3.8-2.2,5.8-3.4c-0.2-1-0.3-1.9-0.5-3.1c-1.8-0.1-3.5-0.2-5.1-0.2   c1.2-1.2,3-0.7,4.4-0.8c0.9-0.5,1.2-1.9,2.5-1.4c-0.1,0.2-0.3,0.4-0.5,0.8c1.1,1.3,1.7,2.5,2.1,4.3c1.7-0.2,3.4-0.4,5.1-0.5   c0.3,0.3,0.7,0.6,1,0.8c-2.5,0.6-5.1,1.2-7.9,1.8c-1,1.9-3.1,2.2-5.2,2.6C280.5,353.1,279.7,353.2,279,353.1z" />
	<path fill="#E2C1B2" d="M126.8,370.6c-0.5,0.2-0.9,0.4-1.4,0.6c-5.4-1-7.8-7-12.5-9.6c-1.8,0.8-3.3,1.8-5.1,1.4   c1.9-1.1,3.8-2.2,5.9-3.3c6.7,0.8,6.6,11.9,13.1,10.1C126.8,370,126.8,370.3,126.8,370.6z" />
	<path fill="#5572E0" d="M438.4,404c-2,3-3.9,6.5-3.8,10.3c0,0.8,0.1,1.5-0.8,1.9c-0.6-1-1.3-2.1-1.7-2.7c0.1-3.3,0.2-6,0.3-8.7   C434.4,403.7,436.4,403.9,438.4,404z" />
	<path fill="#323232" d="M59.7,424.7c1.3-0.7,2.3,0.1,3.1,0.8c2.6,2.9,7.4,3,9.3,6.5C69.6,434.8,60.1,428.1,59.7,424.7z" />
	<path fill="#313131" d="M44.2,417.2c-1.9,1-4.1-0.9-4.4-2.6c-0.8-3.5-4.8-6.1-2.3-9.9C41,407.9,41.7,413,44.2,417.2z" />
	<path fill="#E6C4B5" d="M612.8,262.9c-0.5-0.2-0.9-0.4-1.5-0.7c-4.3,2.6-8.8,5.1-14,5.9c3.2-4.5,8.8-5.4,13.4-8.1   C611.8,260.7,612.7,261.5,612.8,262.9z" />
	<path fill="#4860BB" d="M567.3,287.9c-0.4,0.1-0.7,0.1-1.2,0.2c-0.6,1.4-0.2,2.9-0.3,4.3c-3.1-1.9-5.9-4-9.1-6.5   c2.1-0.4,3.7-0.8,5.6-1.2C563.9,285.9,565.6,286.9,567.3,287.9z" />
	<path fill="#353535" d="M58.5,476c-1.8,1.4-0.2,3.2,0.8,4.7c-2.3,1.1-6,1.2-7.1-1.4c1.7-1.5,3.5-3,3.3-5.6c0.8,0,1.5,0,2.3,0   c0,0,0,0,0,0c0.3,0.3,0.5,0.5,0.8,0.8c0,0,0,0,0,0C58.5,475,58.5,475.5,58.5,476z" />
	<path fill="#E7C6B7" d="M126.8,370.6c0.9-4.3-2.7-6-5.6-8.2c0.9-1.8,1.4-2.6,2.8-4c1.1,0,2.4,0,3.6,0c-0.5,0.5-0.9,1.1-1.5,1.8   C126.2,363.3,128.7,367.8,126.8,370.6z" />
	<path fill="#D9C4BC" d="M251.1,366.8c0.3,0.3,0.6,0.6,0.9,0.9c-4.6,3-9.3,5.6-14.4,7.6c-0.3-0.3-0.6-0.6-0.9-0.8   C241,370.9,246,368.7,251.1,366.8z" />
	<path fill="#363636" d="M48.5,446.5c-1.7-0.5-2.4-1.4-2.9-2.7c1.3-2,1.7-4.4,1.1-6.9c1.6-0.9,2.8,0,4.2,1   C50.4,440.7,48.6,443.2,48.5,446.5z" />
	<path fill="#383838" d="M53.2,461.6c0.6-0.7,1.3-1.5,1.9-2.3c1.9,0.6,2.6,2.4,4.1,3.2c-0.3,1.5-0.8,2.6-1.9,3.5   c-1.6-0.7-3.7-0.8-4.9-2.2l0,0c0-0.5,0-1,0-1.5l0,0C52.7,462.1,53,461.9,53.2,461.6z" />
	<path fill="#3D3C3C" d="M39.6,397.9c0-0.8,0-1.5,0-2.3l0,0c0.3,0,0.6,0,0.9,0c1.7,2.2,2.6,5.4,5.2,6.7c-0.3,2.2,1.9,3.3,0.7,5.4   C43,405.3,41.9,401.3,39.6,397.9z" />
	<path fill="#E3C0B1" d="M602.3,245.4c-1.3-1.1-2.6-2.1-3.8-3.1c0-1.5,0-2.7,0-3.9c2.1-0.5,4.2-1,6.6-1.5c-0.2,0.5-0.2,1.1-0.5,1.3   C601.7,239.9,601.9,242.6,602.3,245.4z" />
	<path fill="#ECD1C6" d="M426.3,397.1c1-1.7,3.1,0.3,4.4,0c2.4-0.2,4.4,0.6,6.5,1.8c-0.4,0.4-0.7,0.8-1.1,1.2   c-1.2,0.3-2.4,0.6-3.7,0.9c-1.7-0.6-3.3-1.7-4.7-2.9C427.6,397.1,426.9,397.2,426.3,397.1z" />
	<path fill="#323232" d="M86,475c1.2-2.6,4.6-0.7,3.6,1.6c-1.1,2.5-1.9,5.1-4,6.9C81.7,482.8,88.5,479.3,86,475z" />
	<path fill="#323232" d="M57.6,427.6c-3.7-1.5-6.8-3.4-9.9-5.9C49.9,419.3,57.9,424.5,57.6,427.6z" />
	<path fill="#2C2C2C" d="M48.5,427.1c-2.5,0.5-2.7,3.9-5.3,4.9C40.5,429.3,48.6,420.1,48.5,427.1z" />
	<path fill="#272626" d="M111.8,447.3c-1.1,2.2-2.1,4.4-3.3,6.6c-0.2,0-0.4,0.1-0.6,0.2l-0.2-0.2c0-0.3-0.1-0.7-0.2-1.2   c-1.7,1-1,3.7-3.3,4c-0.6-1.9,0-3.6,1.3-5.3C108,451,109.7,448.5,111.8,447.3z" />
	<path fill="#161616" d="M83.6,454.8c-0.2,0.4-0.4,0.9-0.7,1.5c0.7,1.1,1.3,2.2,2.1,3.5c-0.4,0.4-0.8,0.7-1.2,1.2   c-1-0.5-2-1.1-2.7-1.4c-1.1-1.7,0.4-3.1,0-4.3c-0.4-1.2-0.6-2.4-0.4-3.8c1.3-0.4,2.5-0.9,3.6,0.4c-0.9,0.1-1.9,0.1-2.8,0.2   C81.6,454.2,81.6,454.2,83.6,454.8z" />
	<path fill="#0C1121" d="M632.6,372.7c3.7,5.7,5.5,9.4,5.9,11.9c-0.4,0.5-0.9,0.2-1.4,0.2c-1.8-3.7-3.7-7.4-5.4-11.2   C632,373.4,632.3,373,632.6,372.7z" />
	<path fill="#3C3C3C" d="M98.7,492.4c-0.1,0.6-0.1,1-0.2,1.6C89.1,496.5,90.8,486.7,98.7,492.4z" />
	<path fill="#2C2C2C" d="M38.7,487.2c-3,1-5.7-4.2-4.7-6.7C36.5,482.2,39.3,484,38.7,487.2z" />
	<path fill="#1B223B" d="M571.1,297c4,1.4,7.7,3.4,11.2,5.7c-0.8,2.9-9.6-4.3-12.1-4.8C570.5,297.6,570.8,297.3,571.1,297z" />
	<path fill="#222222" d="M16.8,411.6c0.4,0.1,0.9,0.3,1.5,0.4c0-0.8,0.1-1.4,0.1-2c1.3,2.3,2.2,4.9,4.8,6.5c-0.7,0.8-1.1,1.3-1.7,2   C18.9,416.7,17.9,414.1,16.8,411.6z" />
	<path fill="#161616" d="M65,474.2c-1.9,0.4-3.2,0.8-4.3-0.2c-1.2-1.1-3.4-1.3-3.5-3.6C61.1,471,63.1,471.2,65,474.2z" />
	<path fill="#1B191A" d="M296.4,517.6c2.6-2.1,5.1-4.1,7.7-6.2c0.2,0.9,0.9,1,1.6,1c-2.6,2.2-5.1,4.6-8.2,6.2   C297.1,518.3,296.8,518,296.4,517.6z" />
	<path fill="#3B3B3B" d="M103.2,493.5c0.5-0.6,0.8-0.9,1.2-1.3c1.5,0.3,3,0.5,4.7,0.8c0.1,0.4,0.2,0.9,0.3,1.5   c-1.2,0.4-2.4,0.9-3.5,1.3C104.5,495.4,104.2,494.6,103.2,493.5z" />
	<path fill="#292929" d="M15,393.9c-2.9,1.7-4.7,0.6-6.5-1.9c0.3-0.5,0.7-1,1.3-1.8C11.4,391.3,12.9,392.4,15,393.9z" />
	<path fill="#252525" d="M66.1,498.3c4.7-0.4,4.7-0.4,5.9,2.4C69.7,501.5,66.3,501.4,66.1,498.3z" />
	<path fill="#262626" d="M43.4,409.5c3.2-0.2,2.9,0.2,4.5,4.5c-0.2,0.3-0.5,0.7-0.8,1C44.7,414.4,44.3,411.7,43.4,409.5z" />
	<path fill="#292929" d="M60.3,493.2c-0.3-3.8,8.3-2.2,4.8,1.2C63.1,493.7,62.2,493.5,60.3,493.2z" />
	<path fill="#3E3E3E" d="M103.6,464c2.2,3.2-2.5,6.7-3.3,2.6C100.8,465,101.9,464,103.6,464z" />
	<path fill="#161616" d="M102.9,441c-1.3-3,7.1-3.1,6.2-0.2C107,441.4,105,441.1,102.9,441z" />
	<path fill="#060810" d="M480.1,495.1c1,0.9,2,1.7,3,2.5c-0.5,1.7-2.1,1.8-3.1,2.6c-0.6-0.2-1.2-0.3-1.9-0.5   c0.2-0.6,0.4-1.1,0.5-1.7c0,0,0,0,0,0c0.6-0.1,1.3-0.2,2.6-0.4c-1.3-0.7-1.9-1-2.5-1.3l0,0c0-0.2,0-0.5-0.1-0.7   C479.2,495.7,479.8,495.8,480.1,495.1z" />
	<path fill="#181818" d="M29.6,402.5c3,0.9,4.6,1.9,4.8,4.9C31.1,408.6,31,404.9,29.6,402.5z" />
	<path fill="#1F2950" d="M521,247.7c-1.2-3-2.7-5.2-3-8.6c2.4,2.2,2.2,5.3,4.5,7c1.2-0.2,0.4-1.9,1.4-2.2c0,0.8,0,1.7,0,2.6   C523,246.9,522,247.3,521,247.7z" />
	<path fill="#101010" d="M93.4,448.7c2,0.7,6,0.2,5,3.6c-1.1,0.3-2.6-0.4-3.1-1c-1.7-0.6-3.2,0.4-4.2-1c0.9,0,1.7,0,2.8,0   C93.7,449.6,93.6,449.2,93.4,448.7z" />
	<path fill="#5673E2" d="M478.1,499.7c1.9,0.7,2.9,0.4,5.3,0.3c0.1,0.1,0.6,0.6,1.2,1.1c-1.1,1.3-2.3,0.5-3.7,0.8   c-0.9,0.7-1.6,1.4-2.8,2.1C477.5,502.6,478,501.2,478.1,499.7z" />
	<path fill="#151B31" d="M549.9,302.3c-1.6-2.2-3.6-4.2-4.6-6.8c0.8-0.2,0.7-1,0.8-1.6c1.5,2.6,3,5.1,4.5,7.7   C550.4,301.8,550.1,302.1,549.9,302.3z" />
	<path fill="#303030" d="M76.7,444.9c0.8,0.4,1.5,0.8,2.2,1.2c0,0.6-0.1,0.9-0.1,1.3c-1.1,0.9-2.4,0.4-3.6,0.5c-0.5-0.5-1-1-1.5-1.5   c0-0.2,0-0.5,0-0.7C74.6,445.1,75.6,444.8,76.7,444.9z" />
	<path fill="#353535" d="M18.6,429.2c1.5-0.5,2.4,0.4,3.6,1.1c-0.6,1.3-0.9,2.6-2.5,3.2C18.7,432.3,18,431.1,18.6,429.2z" />
	<path fill="#1E1E1E" d="M111.8,477c1.6-1.8,3.8-0.5,5.6,0.9C115.1,479.7,114.1,479.6,111.8,477z" />
	<path fill="#393939" d="M96.9,480.7c-1.6-3.3,1.9-5.6,4-2.2C99.8,479.5,98.5,479.9,96.9,480.7z" />
	<path fill="#121212" d="M76.7,444.9c-1.1-0.2-2.1,0.1-3,0.8c0-1.9-0.3-3.7,1-5.2C78.2,441.6,75.7,442.9,76.7,444.9z" />
	<path fill="#403733" d="M423.2,287.2c-2.5-0.7-4.8-1.7-6.2-4.2c2.6-0.4,5.2,2.5,7.7,3.4C424.2,286.6,423.5,286.3,423.2,287.2z" />
	<path fill="#393939" d="M125.2,482.5c0.3,0.4,0.5,0.7,0.8,1.1c-1,2.4-3.1,1.4-5,1.6c-0.1-0.7-0.1-1.2-0.2-2   C122.4,482.9,123.8,482.7,125.2,482.5z" />
	<path fill="#202020" d="M86.1,440c-0.3-2.8,4.5-2.3,5.6-0.4C89.7,440.6,89.4,440.6,86.1,440z" />
	<path fill="#303030" d="M77.9,433.8c1.6-0.8,4.3,0.4,4.7,2.1C79.7,437.2,79.2,436.9,77.9,433.8z" />
	<path fill="#2A2A2A" d="M93.4,448.7c0.1,0.5,0.3,0.9,0.5,1.6c-2.2-0.3-4.9,1.1-5.6-1.9C90.1,447.5,91.8,447.8,93.4,448.7z" />
	<path fill="#1B1B1B" d="M59.2,484.5c1.9,0,3.3,0,5,0c0.1,0.5,0.2,1,0.3,1.6C61.1,487,60.8,486.9,59.2,484.5z" />
	<path fill="#435AB0" d="M597.8,342.4c-0.7,0.1-1.5,0.1-2.4,0.2c-1.8-1.9-4.6-3.4-5.4-6.1C592.3,339,595.3,340.1,597.8,342.4z" />
	<path fill="#515151" d="M383.9,429.8c-0.1-2.1,1.9-3,3.1-4.4c0.4,0.5,0.5,0.1,0.6-0.2l-0.1,0c1.1-0.5,2.2-0.9,3.4-1.4   C389.9,426.6,386.1,427.9,383.9,429.8z" />
	<path fill="#161616" d="M114.7,470.7c3.8,1,7.5,1.6,11.4,0.8C123,474.2,117.7,473.1,114.7,470.7z" />
	<path fill="#3A3A3A" d="M48.8,489.9c1.2,0,2.3,0,3.5,0c0,0.9,0,1.6,0,2.4C50.4,493.2,48.5,491.9,48.8,489.9z" />
	<path fill="#A8ADC0" d="M196.3,486c0.9-0.2,0.9-1,1-1.7c1.5,2,3,4.1,4.6,6.1c-0.3,0.3-0.5,0.5-0.8,0.8   C199.5,489.5,197.9,487.7,196.3,486z" />
	<path fill="#2C2C2C" d="M83.6,454.8c-2-0.7-2-0.7-2.1-2.8c0.9-0.1,1.9-0.1,2.8-0.2C85.2,453.6,85.2,453.6,83.6,454.8z" />
	<path fill="#1B2548" d="M476.3,466.1c-1,1.4-4.3,5.3-4.6,1.6c0.7-0.7,1.5-1.5,2.2-2.2C474.8,465.5,475.7,465.1,476.3,466.1z" />
	<path fill="#705F57" d="M607.7,233.4c0.1-3.6-3.3-5.5-2.2-9.2c1.2,2.8,2.3,5.3,3.4,7.7C608.5,232.4,608.1,232.9,607.7,233.4z" />
	<path fill="#526ED9" d="M478.1,506.4c0.6-1.4,2-1.3,3.3-2c0.8,0.8,1.5,1.5,2.9,2.9C481.7,506.8,479.9,506.6,478.1,506.4z" />
	<path fill="#40424A" d="M205.7,495c2.2,1.6,4,3.7,6.4,6c-2.7-0.8-2.9-0.9-6.4-5C205.6,495.6,205.6,495.3,205.7,495z" />
	<path fill="#1F1F1F" d="M105.3,448.5c-1.9,0.6-2.6-0.5-3.3-1.6C103,444.6,106.2,446,105.3,448.5z" />
	<path fill="#383838" d="M127.6,472.3c2.2-0.3,1.9,0.4,1.5,2.2c-0.2,0.3-0.5,0.5-0.7,0.8c-1.3,0-3.2,0.4-3-1.5c0.6,0,1.3,0,1.5-0.8   C127,472.7,127.3,472.5,127.6,472.3z" />
	<path fill="#251F1D" d="M274.9,500.5c-1.5,1.3-3,2.8-5.7,3c1.2-2.3,3.1-2.9,4.7-3.9C274.2,499.9,274.6,500.2,274.9,500.5z" />
	<path fill="#BAA79F" d="M264,387.2c-0.8-0.3-1.6-0.5-2.4-0.8c2-0.9,4.2-0.1,6.7-0.6c-0.4,0.6-0.7,1.3-0.8,1.2   C266.3,386.6,265.1,387.3,264,387.2z" />
	<path fill="#161616" d="M129,474.5c0.1-1.2,1-2.4-0.7-2.3c1.3-0.8,2.5-1.6,3.9-2.4C131.8,471.4,130.6,473.1,129,474.5z" />
	<path fill="#3A3532" d="M567.2,213c-1.6-0.7-3,0.5-4.5,0.5c-0.6-1.1-1.7-0.5-2.5-0.8c1.5-1.1,3.4-0.4,5.1-0.9   c0.3-0.4,0.7-0.9,1.1-1.4C566.7,211.3,566.9,212.2,567.2,213z" />
	<path fill="#6A6E7A" d="M205.7,495c0,0.3,0,0.7,0,1c-1.5-1.6-3-3.2-4.5-4.8c0.3-0.3,0.5-0.5,0.8-0.8   C203.1,491.9,204.4,493.5,205.7,495z" />
	<path fill="#2D2E34" d="M361.9,468.3c1.5,0.4,2.8,1,3,2.8c-1.6,0.6-3.2-1.3-4.7-1.8C360.8,469.1,361.7,469.3,361.9,468.3z" />
	<path fill="#191919" d="M41.3,485.4c0.7,0.8,1.1,1.2,1.6,1.8c-0.6,0.7-1.1,1.3-1.7,2c-0.6-0.6-1.1-1.1-1.7-1.7   C40,486.8,40.4,486.4,41.3,485.4z" />
	<path fill="#1D1D1D" d="M89.6,460.4c-0.1,0.7-0.1,1.2-0.2,1.8c-0.9,0-1.7,0-2.6,0C87.4,460.3,87.4,460.3,89.6,460.4z" />
	<path fill="#334587" d="M476.3,474.6c0,2-0.7,3.2-2,4.4C473.6,477,474.1,475.7,476.3,474.6z" />
	<path fill="#2F2F2F" d="M61,499.7c-0.9-1.8-1.3-2.4,0-3.8C62.6,497.5,62.6,497.5,61,499.7z" />
	<path fill="#0E0C0B" d="M106.3,466.2c0,2.9,3.3,1.4,4.6,3c-1.8,0-3.7,0.3-5.2-1.3c-0.2-0.9-0.6-1.8,0.5-2.5   C106.3,465.7,106.3,465.9,106.3,466.2z" />
	<path fill="#4B65C5" d="M608.2,341.8c-0.7,0.5-1.5,1-2.2,1.5c-0.4-0.8-1.7-1-1.5-2.3l-0.1,0.1C605.7,341.1,607.1,340.7,608.2,341.8   z" />
	<path fill="#1E1A19" d="M591.5,190.9c-0.8-1.9-1.6-5.2-0.1-6.7c0.3,1,0.5,1.9,0.8,2.9C591.3,188.2,591.6,189.6,591.5,190.9z" />
	<path fill="#D6BFB5" d="M215.6,388.2c-0.3-0.3-0.6-0.7-0.9-1c1.3-1,2.6-2,3.8-3c0.3,0.3,0.5,0.5,0.8,0.8   C218,386.1,216.8,387.1,215.6,388.2z" />
	<path fill="#263365" d="M493.1,514.6c0.9,1.1,1.8,2.2,3.1,3.8c-2.3,0.1-2.6-1.7-3.9-3C492.6,515.1,492.9,514.9,493.1,514.6z" />
	<path fill="#1B1B1B" d="M11.5,387.3c0.8,0,1.8,0.2,2.2-0.8c0.9,0.3,1.6,0.8,1.3,2C13.6,389.1,12.5,388.4,11.5,387.3z" />
	<path fill="#161616" d="M125.2,473.7c-0.2,1.9,1.7,1.5,3,1.5c-2.2,1.4-3.4,1.1-4.4-1.2C124.4,474,124.8,473.9,125.2,473.7z" />
	<path fill="#272626" d="M106.3,466.2c-0.1-2.1-0.3-4.3,0.6-6.2l0.3,0.2C106.9,462.1,108,464.8,106.3,466.2z" />
	<path fill="#272626" d="M106.9,460c0.1-2.1-0.1-4.1,0.8-6l0.2,0.2c0,2.1-0.2,4.1-0.7,6.1L106.9,460z" />
	<path fill="#3E54A3" d="M473.9,465.5c-0.7,0.7-1.5,1.5-2.2,2.2c-0.3-0.6-0.5-1.3-0.9-2.2C472.1,465.5,473,465.5,473.9,465.5z" />
	<path fill="#C0A396" d="M607.7,233.4c0.4-0.5,0.8-1,1.2-1.5c0.4,1,1.3,1.8,0.7,3l0.1-0.1c-0.5,0-1,0-1.5-0.1   C608,234.3,607.3,233.9,607.7,233.4z" />
	<path fill="#B4B4B4" d="M502.9,236.4c-0.4-0.7,0.3-1.9-0.8-2.3c0.3-0.7,0.7-1.4,1.3-2.7C503.8,233.6,503.8,235.1,502.9,236.4z" />
	<path fill="#969696" d="M37.4,389.5c-0.1,0.5-0.2,0.9-0.3,1.4c-1.3-0.7-1.9-1.6-2-2.9C36,388.1,36.8,388.8,37.4,389.5z" />
	<path fill="#5169C6" d="M478.1,499.7c-0.1,1-0.2,2-0.3,3c-0.9-1.5-0.7-3.1-0.6-4.7c0.5,0,1,0,1.5,0   C478.4,498.6,478.3,499.2,478.1,499.7z" />
	<path fill="#2D2827" d="M746.9,285c-0.8-0.5-1.5-1-2.3-1.5c0.3-0.3,0.6-0.6,0.9-0.9c1,0.1,1.5,1.1,2.2,1.6   C747.5,284.4,747.2,284.7,746.9,285z" />
	<path fill="#999999" d="M484.7,170.3c0.4,0.2,0.9,0.4,1.3,0.7c-0.2,1.1-0.6,2.1-2.2,2.7C484.2,172.3,484.4,171.3,484.7,170.3z" />
	<path fill="#706D73" d="M236.1,376.1c-0.8,0.8-1.8,1-3.3,1.5c0.6-1.5,1.4-2,2.4-2.4C235.5,375.5,235.8,375.8,236.1,376.1z" />
	<path fill="#BAA79F" d="M258.7,386.6c-1.4,1.3-3.1,0.7-4.7,0.6C255.5,386.4,257.1,386.4,258.7,386.6z" />
	<path fill="#9FA4B6" d="M223,387.2c0.3,0.3,0.7,0.7,1,1c-0.9,0.5-1.9,0.9-3.4,1.6C221.3,388.2,222,387.6,223,387.2z" />
	<path fill="#BAA79F" d="M252.7,387.4c-0.8,0.4-1.6,0.9-2.4,1.5c-0.6-0.1-1.2-0.4-1-1.4C250.3,387.2,251.5,387.1,252.7,387.4z" />
	<path fill="#736F6D" d="M219.3,385c-0.3-0.3-0.5-0.5-0.8-0.8c0.8-0.5,1.6-1.1,2.5-1.6C221.3,384.3,220,384.4,219.3,385z" />
	<path fill="#383838" d="M40.5,395.7c-0.3,0-0.6,0-0.9,0c0.9-1.2,0.7-2.6,0.8-3.9C41.5,393,41.5,394.4,40.5,395.7z" />
	<path fill="#161616" d="M129,469.9c0-0.3-0.1-0.6-0.1-0.9c0.8-0.8,1.5-1.5,2.3-2.3c0.1,0.3,0.1,0.7,0.2,1   C130.6,468.4,129.8,469.2,129,469.9z" />
	<path fill="#B0A19A" d="M747.8,284.1c-0.5-0.5-1.1-1-1.6-1.5c0.3-0.3,0.6-0.6,0.9-0.9c1,0.5,1.9,1.2,2.2,2.3l-0.1,0.1   C748.7,284.2,748.3,284.1,747.8,284.1z" />
	<path fill="#BAA79F" d="M259.4,388c1.1-1.1,2.5-0.6,3.9-0.7C262.1,388.3,260.8,388.2,259.4,388z" />
	<path fill="#5673E2" d="M478.6,498.1c-0.5,0-1,0-1.5,0c0-0.5-0.1-0.9-0.1-1.4c0.3-0.3,0.6-0.6,0.9-1c0,0,0,0,0,0   c0.3,0.2,0.6,0.5,0.9,0.7c0,0,0,0,0,0C478.7,496.9,478.6,497.5,478.6,498.1L478.6,498.1z" />
	<path fill="#A39CA1" d="M236.1,376.1c-0.3-0.3-0.6-0.6-0.9-0.9c0.5-0.3,1-0.5,1.5-0.8c0.3,0.3,0.6,0.6,0.9,0.8   C237.1,375.5,236.6,375.8,236.1,376.1z" />
	<path fill="#655A56" d="M358.1,371.4c-0.6,0.3-1.1,0.6-1.8,0.9c-0.4-1.2,0.2-1.5,0.9-1.7C357.5,370.8,357.8,371.1,358.1,371.4z" />
	<path fill="#C9C9C9" d="M759.8,294c-0.5,0.2-1,0.5-1.5,0.7c0.3-0.7,0.5-1.5,0.8-2.2c0.2,0,0.3,0,0.5,0.1   C759.7,293.1,759.7,293.6,759.8,294z" />
	<path fill="#161616" d="M57.8,473.8c-0.8,0-1.5,0-2.3,0C56.6,472.7,56.6,472.7,57.8,473.8z" />
	<path fill="#2D2D2D" d="M150.7,473.6c-0.5,0.1-1,0.1-1.4,0.2c0-0.2,0-0.4-0.1-0.5c0.5-0.1,1-0.1,1.4-0.2   C150.6,473.2,150.6,473.4,150.7,473.6z" />
	<path fill="#BAA79F" d="M255.6,388.7c0.6-1,1.5-0.7,2.4-0.5C257.4,388.8,256.5,388.9,255.6,388.7z" />
	<path fill="#121212" d="M73.7,446.4c0.5,0.5,1,1,1.5,1.5C74.1,448,73.6,447.5,73.7,446.4z" />
	<path fill="#5169C6" d="M477.9,495.7c-0.3,0.3-0.6,0.6-0.9,1c-0.5-0.4-0.1-1-0.2-1.5C477.2,495.3,477.5,495.5,477.9,495.7z" />
	<path fill="#020305" d="M498.4,366.9c-0.1,0.8,0,1.7-0.9,2.3C497.6,368.3,497.1,367.2,498.4,366.9z" />
	<path fill="#E7C6B7" d="M130.7,359.2c-0.9,0-1.9,0.5-2.4-0.8C129.3,358.2,130.1,358.4,130.7,359.2z" />
	<path fill="#161616" d="M58.5,476c0-0.5,0-1,0-1.5C59.5,475,59.5,475.5,58.5,476z" />
	<path fill="#0C1121" d="M631,372.8c-0.3-0.5-0.6-0.9-1-1.4C630.9,371.5,631,372.2,631,372.8z" />
	<path fill="#161616" d="M126.8,473c-0.2,0.8-0.9,0.8-1.5,0.8C125.5,473,126.1,473,126.8,473z" />
	<path fill="#3D3C3C" d="M45.6,402.4c0.6-1,1-0.7,1.5,0.1C46.6,402.5,46.1,402.5,45.6,402.4z" />
	<path fill="#FBDFD3" d="M496.8,271.2c0-0.6,0.1-1.1,0.1-1.7C497.2,270.1,497.9,270.7,496.8,271.2z" />
	<path fill="#EECABA" d="M426.3,397.1c0.7,0,1.3,0,1.4,0.9C427.3,397.7,426.8,397.4,426.3,397.1z" />
	<path fill="#1C1C1C" d="M52.5,462.4c0,0.5,0,1,0,1.5C51.5,463.4,51.5,462.9,52.5,462.4z" />
	<path fill="#161616" d="M127.5,470.7c0.2-0.7,0.9-0.8,1.5-0.8C128.8,470.7,128.2,470.7,127.5,470.7z" />
	<path fill="#161616" d="M126,471.5c0.3-0.7,0.9-0.8,1.5-0.7C127.3,471.5,126.7,471.5,126,471.5z" />
	<path fill="#222222" d="M18.4,408.6c0-0.6-0.1-1.3,0.7-1.5C19.1,407.7,19.1,408.3,18.4,408.6z" />
	<path fill="#1B191A" d="M292.9,520.1c0.4-0.3,0.9-0.6,1.3-1C294.2,520,293.6,520,292.9,520.1z" />
	<path fill="#383838" d="M36.6,388.7c-0.3-0.2-0.6-0.3-0.9-0.5C36,388.3,36.3,388.5,36.6,388.7z" />
	<path fill="#B7BDD5" d="M330.8,476.9c0-0.1,0.1-0.3,0.1-0.4C330.9,476.6,330.8,476.7,330.8,476.9L330.8,476.9z" />
	<path fill="#B0A19A" d="M749.3,284.1c0.2,0.1,0.3,0.2,0.5,0.3c-0.1,0.1-0.2,0.2-0.3,0.3C749.4,284.5,749.3,284.4,749.3,284.1   L749.3,284.1z" />
	<path fill="#2D2623" d="M547.6,284.1c0.4,0.1,0.8,0.2,1.1,0.2c-0.4,0.2-0.8,0.4-1.2,0.6C547.5,284.6,547.6,284.4,547.6,284.1z" />
	<path fill="#B0A19A" d="M747.1,281.7c-0.3-0.3-0.5-0.5-0.8-0.8C746.6,281.2,746.8,281.5,747.1,281.7z" />
	<path fill="#FBDFD3" d="M493.8,273.3c0.3-0.2,0.5-0.3,0.8-0.5C494.3,273,494,273.1,493.8,273.3z" />
	<path fill="#FBDFD3" d="M494.5,272.8c0.3-0.2,0.7-0.4,1-0.6C495.2,272.4,494.9,272.6,494.5,272.8z" />
	<path fill="#2D2A29" d="M655.2,271.4c0.3,0.2,0.7,0.3,1,0.5C655.9,271.7,655.5,271.6,655.2,271.4z" />
	<path fill="#FBDFD3" d="M496,271.9c0.2-0.2,0.5-0.4,0.7-0.6C496.5,271.5,496.3,271.7,496,271.9z" />
	<path fill="#2D2A29" d="M650.7,269.2c0.3,0.2,0.6,0.3,0.9,0.5C651.2,269.5,650.9,269.3,650.7,269.2z" />
	<path fill="#4B65C5" d="M506.7,259.2c0.3-0.2,0.6-0.5,0.9-0.7C507.2,258.7,507,258.9,506.7,259.2z" />
	<path fill="#1C1C1C" d="M53.2,461.6c-0.2,0.3-0.5,0.5-0.7,0.8C52.7,462.1,53,461.9,53.2,461.6z" />
	<path fill="#1C1C1C" d="M52.5,463.9c0.3,0.3,0.5,0.5,0.8,0.8C53,464.4,52.7,464.1,52.5,463.9z" />
	<path fill="#705F57" d="M607.6,234c0.2,0.3,0.4,0.5,0.6,0.8C607.8,234.8,607.6,234.5,607.6,234z" />
	<path fill="#5169C6" d="M478.7,496.4c-0.3-0.2-0.6-0.5-0.9-0.7c0.3,0,0.5,0,0.8,0.1C478.7,496,478.7,496.2,478.7,496.4z" />
	<path fill="#251F1D" d="M275.1,498.6c0.3-0.3,0.6-0.5,1-0.8C276,498.5,275.7,498.7,275.1,498.6z" />
	<path fill="#251F1D" d="M273.9,499.6c0.2-0.2,0.5-0.4,0.7-0.6C274.4,499.2,274.2,499.4,273.9,499.6z" />
	<path fill="#251F1D" d="M277.8,498.9c-0.3,0.2-0.6,0.4-0.9,0.5C277.2,499.2,277.5,499,277.8,498.9z" />
	<path fill="#251F1D" d="M276.3,499.6c-0.3,0.2-0.6,0.4-0.9,0.6C275.7,500,276,499.8,276.3,499.6z" />
	<path fill="#0C1121" d="M631.1,369.7c0.2,0.3,0.4,0.6,0.6,0.9C631.4,370.3,631.3,370,631.1,369.7z" />
	<path fill="#0C1121" d="M631.7,373.7c-0.2-0.3-0.4-0.6-0.6-0.9C631.3,373.1,631.5,373.4,631.7,373.7z" />
	<path fill="#1B2548" d="M472.6,469.8c0.2,0.3,0.3,0.6,0.5,0.9C473,470.5,472.8,470.2,472.6,469.8z" />
	<path fill="#161616" d="M58.5,474.5c-0.3-0.3-0.5-0.5-0.8-0.8C58,474,58.3,474.3,58.5,474.5z" />
	<path fill="#0C1121" d="M631.8,371.2c0.2,0.3,0.4,0.6,0.6,1C632.2,371.8,632,371.5,631.8,371.2z" />
	<path fill="#161616" d="M127.6,472.3c-0.3,0.2-0.5,0.5-0.8,0.7C127,472.7,127.3,472.5,127.6,472.3z" />
	<path fill="#E7C6B7" d="M128.4,358.4c-0.3,0-0.6,0-0.9,0C127.8,357.9,128.1,358,128.4,358.4z" />
	<path fill="#1B191A" d="M295.1,518.5c0.3-0.2,0.5-0.4,0.8-0.6C295.6,518.1,295.3,518.3,295.1,518.5z" />
	<path fill="#1B191A" d="M294.2,519.2c0.3-0.2,0.6-0.4,0.9-0.7C294.8,518.7,294.5,518.9,294.2,519.2z" />
	<path fill="#1B191A" d="M297.5,518.6c-0.3,0.2-0.6,0.4-0.9,0.7C296.9,519.1,297.2,518.8,297.5,518.6z" />
	<path fill="#1B191A" d="M296.6,519.3c-0.3,0.2-0.5,0.4-0.8,0.7C296.1,519.7,296.4,519.5,296.6,519.3z" />
	<path fill="#1B191A" d="M295.7,520c-0.2,0.2-0.5,0.4-0.7,0.6C295.3,520.4,295.5,520.2,295.7,520z" />
	<path fill="#1B191A" d="M294.9,520.7c-0.2,0.2-0.4,0.4-0.6,0.6C294.5,521.1,294.7,520.9,294.9,520.7z" />
	<path fill="#5572DF" d="M561.3,512.5c-2.3-0.8-2.3-0.8-2.1-3.4c1.1-0.7,2.4-0.4,3.6-0.4c5.3,1.6,12-6.3,15.8-1.5   c-1.3,0.6-2.6,1.4-4,2C569.8,508.4,566,512,561.3,512.5z" />
	<path fill="#131110" d="M453.8,320.4c6.9,2.7,14.3,3.9,20.8,7.5c-7.3,1.5-15.8-3.4-22.6-6.7C452.7,321,453.2,320.7,453.8,320.4z" />
	<path fill="#100E0E" d="M430.9,249.3c-3.7,1.4-12.8,11.2-15.6,8.1c2.8-4.9,9.6-7,14.7-8.9C430.3,248.7,430.6,249,430.9,249.3z" />
	<path fill="#23201E" d="M388.4,259.8c-1.8-2.2,1.4-5,3-7.2c1.1,2.9-0.7,5.2-2.4,7.2C388.8,259.8,388.6,259.8,388.4,259.8z" />
	<path fill="#453E3B" d="M388.4,259.8c0.2,0,0.4,0,0.6,0c0.4,2.7,0.4,5.2-1.7,7.5c-0.4-0.3-0.8-0.5-1.3-0.9   C387,264.2,388.2,262.3,388.4,259.8z" />
	<path fill="#393331" d="M435.2,245.5c1.5-2.3,3.4-2.7,5.9-3c-0.8,1.7-2.2,2.2-3.3,3.4C437.1,246.4,436.9,246.3,435.2,245.5z" />
	<path fill="#36312F" d="M347.6,276.3c-1.5,1.5-1.6,3.7-3.3,5.2c-1.9-3,1.1-3.9,2.7-5.8C347.1,275.9,347.4,276.1,347.6,276.3z" />
	<path fill="#1D1A19" d="M364.7,250c-0.6-2,0.2-4.4,2.2-5.9c0.5,2.2-1,3.9-1.5,5.9C365.2,250,365,250,364.7,250z" />
	<path fill="#4A423F" d="M439.7,315c-2,0.3-3.4-0.6-5-1.5C437.3,312.5,438.2,312.7,439.7,315z" />
	<path fill="#3B3532" d="M466.4,230.3c-1.4,1.1-2.9,2.1-5.1,2.3c0.7-2,2.4-2.3,3.6-3.1C465.4,229.6,466.2,229.4,466.4,230.3z" />
	<path fill="#5C534F" d="M366.7,259.1c-0.4-2.2-0.6-3.5-0.8-4.8c1.5-0.1,1.4,2.3,2,3.3C367.9,257.9,367.4,258.2,366.7,259.1z" />
	<path fill="#36312F" d="M447.4,240c-1.2,0.4-1.6,2.3-3.5,1.7c0.2-1.3,0.9-2,2-2.4C446.4,239.5,446.9,239.8,447.4,240z" />
	<path fill="#69605C" d="M388.3,240.1c1.7,1.1,1.7,2.2,1.6,3.9C388.7,242.9,388.6,241.8,388.3,240.1z" />
	<path fill="#5C524F" d="M445.2,317.5c-0.9,0-1.6-0.3-2.1-1.4c1.3-0.2,2.6-0.5,3.6,0.7C446.2,316.9,445.4,316.6,445.2,317.5z" />
	<path fill="#312C2A" d="M426.4,309c0.9,0.2,1.8,0.5,2.1,1.6c-1.2,0.5-2.1-0.1-3-0.7C425.8,309.6,426.1,309.3,426.4,309z" />
	<path fill="#302B29" d="M388.1,239.5c-1.3-0.8-1.7-1.8-1.1-3.3C388.3,237.1,388.8,238.1,388.1,239.5z" />
	<path fill="#403A37" d="M455.1,235.6c-0.9,0.4-1.7,1.4-3.1,0.4c0.8-0.5,1.5-0.9,2.2-1.3C454.5,235,454.8,235.3,455.1,235.6z" />
	<path fill="#4A4340" d="M344.6,284.5c0.5,0.9,0.1,1.6-0.8,2.7c0-1.2,0-1.9,0-2.7C344.1,284.5,344.3,284.5,344.6,284.5z" />
	<path fill="#695F5B" d="M430.9,249.3c-0.3-0.3-0.6-0.6-0.9-0.9c0.8-0.9,1.8-0.8,3.4-0.4C432.3,248.6,431.6,248.9,430.9,249.3z" />
	<path fill="#332E2C" d="M453.8,320.4c-0.6,0.3-1.1,0.5-1.7,0.8c-0.5-0.2-1-0.5-1.5-0.7c0.3-0.3,0.6-0.6,0.9-0.9   C452.2,319.9,453,320.2,453.8,320.4z" />
	<path fill="#998983" d="M466.4,230.3c-0.2-0.9-1-0.6-1.5-0.8c0.7-0.8,1.6-0.9,2.6-0.5C467.8,229.9,467.2,230.1,466.4,230.3z" />
	<path fill="#7A6E68" d="M447.4,240c-0.5-0.2-1-0.5-1.5-0.7c0.8-0.6,1.4-0.8,2.3-0.2C447.9,239.4,447.6,239.7,447.4,240z" />
	<path fill="#6C615C" d="M451.5,319.6c-0.3,0.3-0.6,0.6-0.9,0.9c-0.5-0.4-1-0.7-1.6-1.2C450.1,318.7,450.8,319,451.5,319.6z" />
	<path fill="#7D716B" d="M426.4,309c-0.3,0.3-0.6,0.6-0.9,0.9c-0.4-0.3-0.9-0.7-1.3-1C425.1,308,425.8,308.4,426.4,309z" />
	<path fill="#0A0909" d="M445.2,317.5c0.2-0.9,0.9-0.6,1.5-0.7C447.9,317.9,445.9,317.9,445.2,317.5z" />
	<path fill="#756964" d="M455.1,235.6c-0.3-0.3-0.6-0.6-0.9-0.9c0.7-0.7,1.3-1,2.4-0.1C456,234.9,455.5,235.3,455.1,235.6z" />
	<path fill="#423C39" d="M417.6,304.5c0.4,0.4,0.7,0.8,1.1,1.3C417.5,305.9,417.5,305.9,417.6,304.5z" />
	<path fill="#EDCABA" d="M590.8,109.7c1.9,1.6,4.4,2.7,5.6,5.8c7.1,2.9,5.9,8.3-2,7.1c-0.6-0.4-1.2-0.9-1.8-1.3   c-4.6,0.7-14.1-2.6-15-7.7c-1.7-1-3.3-2-5-3c1.2-0.4,2.4-0.7,3.6-1c0-0.1,0-0.3,0-0.4c-1.6,0.1-3.2-1.7-4.4,0.2   c0.1,0.4,0.2,0.7,0.3,1c-6.5-4.5,7.1-9.9,14.1-1.4c-0.8,0.2-1.9,0.1-1.4,1.7c1.8,0.1,3.8,0.2,5.8,0.3   C590.7,110.4,590.8,110,590.8,109.7z" />
	<path fill="#0B0A0A" d="M633.8,168.1c0.2,0.1,0.3,0.3,0.4,0.6c-0.3,0.3-0.5,0.6-0.8,0.8c-4.2-3.9-10.5-5.7-14.3-9.7   C621.7,154.6,631.8,165,633.8,168.1z" />
	<path fill="#1F1C1B" d="M649.2,193.1c-2.2-3.2-5.4-5.8-6.9-9.4c0.4-0.2,0.8-0.4,1.3-0.6c2.3,2.9,5.1,5.5,6.4,9.2   C649.8,192.5,649.5,192.8,649.2,193.1z" />
	<path fill="#302C2A" d="M584.9,126.7c3.9,3,0.7,7,0.3,10.7C584.4,135.2,584.3,131.8,584.9,126.7z" />
	<path fill="#252120" d="M558.1,108c-2.1,0.9-4.1,1.7-6.5,2.7C548.2,106.8,556.3,106.5,558.1,108z" />
	<path fill="#11100F" d="M599.1,148.3c-2.4,0.1-4.4,1-6.4-1c2.6-1.9,4.8-1.4,7.1-0.3C599.6,147.4,599.4,147.8,599.1,148.3z" />
	<path fill="#292523" d="M658.1,210.6c2.9,0.8,3.8,2.1,4.7,6.1C660.5,215,660,214.4,658.1,210.6z" />
	<path fill="#3B3533" d="M655.2,203.8c-1.3-1.7-2.6-3.5-3.4-6.1c2.9,1.4,3.4,2.2,4.3,6C655.8,203.8,655.5,203.8,655.2,203.8z" />
	<path fill="#6E635E" d="M583.9,121.2c0.4,1.4,0.8,2.8,1.2,4.5c-2.9-1.1-2.2-3.6-3.4-5.4C582.7,118.9,583.5,120.4,583.9,121.2z" />
	<path fill="#3C3430" d="M707.6,290.2c0.1-0.5,0-0.7,0.5-1.1c1.1,0.9,2.2,1.8,3.2,2.5c0.3,1.5-0.6,1.7-1.5,1.8   C709.1,292.3,708.3,291.2,707.6,290.2z" />
	<path fill="#534B47" d="M700.3,283.6c2.4,0.1,3.6,1.4,3.5,3.6C701.7,286.7,700.7,285.6,700.3,283.6z" />
	<path fill="#524A46" d="M731.2,272.1c-2.2-0.7-3.1-2-4.2-3.7C729.3,268.3,730.5,269.5,731.2,272.1z" />
	<path fill="#2E2926" d="M590.8,109.7c0,0.3-0.1,0.7-0.1,1.1c-2-0.1-3.9-0.2-5.8-0.3c-0.5-1.6,0.6-1.4,1.4-1.7   C587.7,109.7,589.2,109.7,590.8,109.7z" />
	<path fill="#504845" d="M719.3,260.8c1.7,0.6,3.1,1.6,4.1,3.8C721,263.9,720.2,262.3,719.3,260.8z" />
	<path fill="#292524" d="M736.5,275.7c0.8,0.6,2,0.9,2.2,2.4c-1.9,0.2-3-0.9-3.9-2.2c0-0.3,0.1-0.6,0.1-0.9   C735.5,275,735.9,275.5,736.5,275.7z" />
	<path fill="#443D3A" d="M633.4,169.5c0.3-0.3,0.5-0.6,0.8-0.8c1,1.3,2.7,1.9,2.1,3.9C634.8,171.7,633.9,170.8,633.4,169.5z" />
	<path fill="#5E5551" d="M649.2,193.1c0.3-0.3,0.5-0.6,0.8-0.8c1.1,1.2,1.6,2.6,1.6,4.4C650.8,195.4,650,194.3,649.2,193.1z" />
	<path fill="#070606" d="M572.1,110.3c-0.1-0.3-0.2-0.7-0.3-1c0.9-1.4,2-0.9,3.1-0.3c0,0.3,0,0.6,0,0.8c-0.8,0.2-1.5,0.5-2.3,0.7   c0,0-0.2-0.2-0.2-0.2L572.1,110.3z" />
	<path fill="#2C2826" d="M605,150.8c-0.8-0.2-1.4-0.5-1.3-1.6c1.6-0.8,2.6,0.6,3.7,1.5c0,0.3,0,0.5,0,0.8   C606.6,151.4,605.8,151.2,605,150.8z" />
	<path fill="#211E1C" d="M564.5,106.9c0.9,0.5,1.8,0.9,2.8,1.5C565.3,110,563.4,108.7,564.5,106.9z" />
	<path fill="#665C58" d="M558.1,108c-0.5-1-1.6-0.4-2.3-0.8c1.3-0.9,2.8-0.6,4.3-0.5C559.7,107.8,558.9,108,558.1,108z" />
	<path fill="#877A74" d="M582.4,147.9c0.2-1.6,0.2-2.4,0.3-3.3C584.3,145.5,584.3,145.6,582.4,147.9z" />
	<path fill="#716662" d="M578.9,155.4c0.6-2.7,0.6-2.7,2-4.1C580.8,152.9,580.2,153.9,578.9,155.4z" />
	<path fill="#36302E" d="M664.3,224.3c-0.8-0.9-1.3-1.7-0.5-2.9c1.1,0.2,1.3,1,1.5,1.9C664.9,223.6,664.6,223.9,664.3,224.3z" />
	<path fill="#6D625D" d="M745.6,282.5c-0.3,0.3-0.6,0.6-0.9,0.9c-1-0.4-1.6-1-2.1-2.3C743.8,281.3,744.8,281.7,745.6,282.5z" />
	<path fill="#736863" d="M611.3,152.9c0.7,0.6,1.4,1.2,2.4,2.2c-1.8,0.2-2.6-0.5-3.4-1.2C610.7,153.5,611,153.2,611.3,152.9z" />
	<path fill="#A09189" d="M655.2,203.8c0.3,0,0.6,0,0.9-0.1c0.8,0.5,1,1.2,1,2.2C655.8,205.6,655.6,204.6,655.2,203.8z" />
	<path fill="#302B29" d="M611.3,152.9c-0.3,0.3-0.6,0.6-1,1c-0.5-0.5-1-1.1-1.5-1.6c0.6,0,1.1,0,1.7,0   C610.8,152.4,611,152.6,611.3,152.9z" />
	<path fill="#6D625D" d="M610.5,152.2c-1.3,0-3.4,0.6-3.1-1.5C608.5,151.2,609.5,151.7,610.5,152.2z" />
	<path fill="#504845" d="M599.1,148.3c0.2-0.4,0.5-0.9,0.7-1.3c0.7,0.3,1.5,0.7,2.2,1c0,0.2-0.1,0.3-0.1,0.5   C601,148.4,600,148.3,599.1,148.3z" />
	<path fill="#5C5450" d="M664.3,224.3c0.3-0.3,0.7-0.7,1-1c0.7,0.7,0.9,1.4,0.3,2.5C665.1,225.2,664.7,224.7,664.3,224.3z" />
	<path fill="#D1BCB3" d="M668.2,228c0.6,1.4,0.8,2.4-0.6,1.7C667.6,229.5,667.7,229.2,668.2,228z" />
	<path fill="#665C57" d="M734.8,275c0,0.3-0.1,0.6-0.1,0.9c-0.4-0.4-0.9-0.7-1.3-1.1C734.2,274.2,734.6,274.4,734.8,275z" />
	<path fill="#665C57" d="M736.5,275.7c-0.3-0.2-0.6-0.3-0.9-0.5C735.9,275.4,736.2,275.6,736.5,275.7z" />
	<path fill="#443D3A" d="M632.6,168.8c0.2,0.2,0.5,0.5,0.7,0.7C633.1,169.3,632.8,169,632.6,168.8z" />
	<path fill="#443D3A" d="M631.7,168.1c0.3,0.2,0.6,0.4,0.8,0.6C632.3,168.5,632,168.3,631.7,168.1z" />
	<path fill="#443D3A" d="M633.8,168.1c-0.2-0.3-0.4-0.5-0.5-0.8C633.4,167.6,633.6,167.9,633.8,168.1z" />
	<path fill="#443D3A" d="M633.2,167.4c-0.2-0.3-0.4-0.6-0.7-0.9C632.8,166.8,633,167.1,633.2,167.4z" />
	<path fill="#6D625D" d="M605,150.8c0.3,0.1,0.6,0.3,1,0.4C605.7,151.1,605.4,150.9,605,150.8z" />
	<path fill="#6D625D" d="M607.4,150.7c-0.2-0.2-0.5-0.5-0.7-0.7C606.9,150.2,607.2,150.5,607.4,150.7z" />
	<path fill="#EDCABA" d="M583.9,121.2c-0.2-0.3-0.3-0.6-0.5-0.8C583.6,120.6,583.8,120.9,583.9,121.2z" />
	<path fill="#EDCABA" d="M581.8,120.2c0.1,0.3,0.3,0.6,0.4,0.9C582,120.8,581.9,120.5,581.8,120.2z" />
	<path fill="#EDC9B9" d="M305.6,410.7c-0.8,1.7-3,2.1-4.5,3.1c-1.1-1.6-10.8,6-13.6,6.9c-0.4-1.7-1.5-3.1-2.3-4.5   c0.9-6.5,7.4-5.7,12.1-7.1c3.9-1.2,7.4-3.5,11.4-4.3c1.3,2.4,3.8-1.8,6-0.9C312.7,407.1,308.6,408.4,305.6,410.7   c0.2-0.7,0.7-1.3,0.3-2.1c-1.1,0.3-1.8,0.9-2.4,2.4C304.5,410.8,305,410.7,305.6,410.7z" />
	<path fill="#161413" d="M205.7,444.2c-2.9,2.3-4.6,6.7-8.5,7.3c-0.3-0.3-0.7-0.7-1.2-1.2c2.2-3.4,5.4-5.4,8.7-7.1   C205.1,443.5,205.4,443.9,205.7,444.2z" />
	<path fill="#231E1D" d="M287.5,420.7c2.7-1.6,5.5-3.1,8.2-4.7c0.3,0.3,0.6,0.6,0.8,0.8c-2.7,2.2-5.5,4.4-8.4,6.8   c-0.4-0.3-0.9-0.7-1.4-1.1C287.1,421.8,287.3,421.2,287.5,420.7z" />
	<path fill="#A89187" d="M266.4,478.4c-0.3-2.3,1.2-4.2,2-6.2c0.3,0.3,0.6,0.5,0.8,0.8c0,0.5,0,1,0,1.6c-1.5,1.2-1.2,3.1-2.1,4.7   C266.9,478.9,266.6,478.7,266.4,478.4z" />
	<path fill="#786A64" d="M266.4,478.4c0.3,0.3,0.5,0.5,0.8,0.8c0.1,2-0.9,3.5-1.9,5.1C265,482.1,265.9,480.3,266.4,478.4z" />
	<path fill="#332D29" d="M312.6,404c-1.1,0.5-3.1,2.8-3.8,0.8c1.2-0.8,2.2-2.1,3.7-2.2C312.5,403.1,312.5,403.5,312.6,404z" />
	<path fill="#80736D" d="M205.7,444.2c-0.3-0.3-0.6-0.7-1-1c1.1-1.3,2.6-1.6,3.8-2.2c0.4,0.3,0.5,0.4,0.5,0.5   C208,442.4,206.8,443.3,205.7,444.2z" />
	<path fill="#0E0D0C" d="M353,377.9c-0.6,1-1,1.8-1.6,2.7C350,379.5,351.3,377.2,353,377.9z" />
	<path fill="#998982" d="M321.2,398.1c-1,0.9-2,1.8-3,2.6C316.9,399.4,319.8,397.5,321.2,398.1z" />
	<path fill="#907D74" d="M312.6,404c0-0.5-0.1-0.9-0.1-1.4c2-0.2,2-0.2,2.3,1.3C314,403.9,313.3,403.9,312.6,404z" />
	<path fill="#6B5D56" d="M296.6,416.8c-0.3-0.3-0.6-0.6-0.8-0.8c1.1-0.5,2.1-1.1,3.2-1.6c0,0.3,0,0.7,0,1   C298.1,415.8,297.3,416.3,296.6,416.8z" />
	<path fill="#4D4643" d="M220.6,434.8c-0.6,0.5-1.1,1-1.7,1.5c-1.3-1.3,0.6-1.6,1.4-1.9C220.4,434.6,220.5,434.7,220.6,434.8z" />
	<path fill="#A28D84" d="M298.9,415.4c0-0.3,0-0.7,0-1c0.5-0.7,1.7-2,2.2-0.6C300.3,414.3,299.6,414.8,298.9,415.4z" />
	<path fill="#847771" d="M213.9,437.5c-0.7,0.9-1.2,1.5-1.8,2.2C211.7,438.2,211.7,438.2,213.9,437.5z" />
	<path fill="#907D74" d="M311.9,402.7c-0.3,0.1-0.6,0.3-1,0.4C311.2,402.9,311.6,402.8,311.9,402.7z" />
	<path fill="#4B65C5" d="M563.7,443.5c-1.1-0.3-2.1-0.6-3.3-0.9c-1.7,1.7-3.4,2.8-5.4,3.8c-1.7,3.7-7.3,3.7-7.6,8.3   c-3,0.1-6-0.2-8.4,1.8c-0.8-0.4-1.5-0.7-2.2-1c-0.6-1.2-1.3-2.4-1.9-3.6c3.9-3.5,18.5-5.5,7.2-12.3c-4,2.5-12.4,2.3-12,8.4   c-0.3,0-0.5,0-0.8,0c-3-3.9-7.3-6.3-11.3-9.1c-6.5-4.2-2.2-15.2,5.5-12.4c4.5,2,8.3,5.1,12.9,7.1c2.6-4.7,6.9-7.5,11.1-10.9   c9.4-6.9,17.2-17.3,28.4-20.9c-2,10.4-17.8,23.6-25.9,31.6c5.1,2.8,9.3,5.3,14.3,8.4c0.5-0.2,1.4-0.4,2.2-0.7   C565.8,442.2,565,443.1,563.7,443.5z" />
	<path fill="#04050A" d="M554.3,359.1c-17.2,7.1-34.2,13.9-48.8,25.8c-0.2-0.2-0.5-0.5-0.9-0.8C516.9,371,537.4,361.8,554.3,359.1z" />
	<path fill="#060810" d="M563.7,443.5c11.7-10.9,25.3-23.2,30.4-38.7c2.8,12.8-27.4,39.7-38,47.1c-0.3-0.3-0.6-0.6-0.9-0.9   C558,448.5,560.9,446,563.7,443.5z" />
	<path fill="#0E1325" d="M611.9,444.1c5.8-11.3,11.7-22.3,17.3-33.8c0.2,0.8,0.3,1.4,0.4,2.1c-4.3,11.5-11,21.8-16.8,32.5   C612.5,444.6,612.2,444.4,611.9,444.1z" />
	<path fill="#4A64C4" d="M489.3,403.2c6.8,6.5,11.6,15.6,15,24.3C498.4,420.3,492.6,412,489.3,403.2z" />
	<path fill="#1B2547" d="M528.8,450.4c-0.2,0.3-0.4,0.6-0.8,1.1c3.1,2.3,6.7,3.8,9,7.1c-0.3,0.2-0.5,0.5-0.8,0.7   c-6.4-5.8-13.5-9.3-21.5-12.5c0.9-0.3,1.3-0.4,1.8-0.5c3.2,0.9,6.4,2.7,9.3,4c0.9-0.4,1.4-0.6,2-0.8   C528.2,449.8,528.5,450.1,528.8,450.4z" />
	<path fill="#263465" d="M498.2,419.2c2,2.8,3.4,6.2,6.1,8.3l0,0c0,0.6,0.1,1.2,0.8,1.5c1.8,2.8,3.6,5.6,5.4,8.3   c-3.1,0.2-10.5-14-13-17.4C497.8,419.7,498,419.5,498.2,419.2z" />
	<path fill="#131932" d="M571.7,386.4c2.8-3.7,5.4-7.4,8.1-11.3c1.2,4.7-4.6,8.7-7.2,12.2C572.3,387,572,386.7,571.7,386.4z" />
	<path fill="#222E5B" d="M554.3,359.1c-0.5-0.2-1-0.4-1.4-0.7c4.3-1.9,8.6-3.7,13-5.1C567.2,355.7,556.3,357.6,554.3,359.1z" />
	<path fill="#4760BC" d="M527.9,449.5c-0.6,0.2-1.1,0.5-2,0.8c-2-1-4.2-2-6.4-3.1c3.6-0.5,7,1,10.6,0.6c0,0,0.1,0.1,0.1,0.1   C529.4,448.5,528.6,449,527.9,449.5z" />
	<path fill="#394D98" d="M567.3,392.6c-3.2,4-7.8,8.4-10.1,9.7c0.9-1.9,5.2-6.4,9.2-9.7C566.7,392.6,567,392.6,567.3,392.6z" />
	<path fill="#28366A" d="M489.3,403.2c0.4,2.5,2,4.5,3,6.8c-0.2,0.2-0.5,0.5-0.7,0.7c-1.5-3.1-3-6.1-4.5-9.2c0.2-0.5,0.5-1,0.7-1.5   C488.3,401.1,488.8,402.2,489.3,403.2z" />
	<path fill="#151C37" d="M515,338.8c2.6-0.2,6-3.6,7.6-0.5c-2.3,0.6-4.5,1.2-6.8,1.4C515.5,339.3,515.3,339.1,515,338.8z" />
	<path fill="#36488E" d="M515,338.8c0.3,0.3,0.5,0.6,0.8,0.9c-2.6,0.9-5.2,1.9-7.9,2.8C506.9,340,513.3,339.9,515,338.8z" />
	<path fill="#222E5A" d="M567.3,392.6c-0.3,0-0.6,0-0.9,0c1.8-2.1,3.5-4.1,5.3-6.2c0.3,0.3,0.6,0.6,0.9,0.9   C570.9,389.1,569.1,390.8,567.3,392.6z" />
	<path fill="#141A33" d="M487.8,400.1c-0.2,0.5-0.5,1-0.7,1.5c-0.1-1.3-0.6-2.7,0.6-3.7C487.7,398.6,487.7,399.4,487.8,400.1z" />
	<path fill="#4A64C4" d="M505.1,429c-0.7-0.2-0.8-0.8-0.8-1.5C505.1,427.7,505.1,428.4,505.1,429z" />
	<path fill="#222E5B" d="M552.2,358.6c-0.4,0.7-1,0.7-1.6,0.6C550.9,358.6,551.5,358.4,552.2,358.6z" />
	<path fill="#222E5B" d="M552.8,359.8c0.3-0.2,0.6-0.4,0.9-0.5C553.4,359.5,553.1,359.6,552.8,359.8z" />
	<path fill="#010102" d="M518.7,525.8c-6.3-0.5-15.1-12.5-22.2-15.8c-3.6-3.1-8.7-4.7-11-9C491.2,498,518.8,518.4,518.7,525.8z" />
	<path fill="#010204" d="M483.6,461.4c-4.4-5.2,7.7-5.5,10.8-4.5c10.3,1.9,19.2,9.4,21.3,19.8c0.5,3.1,2.4,9.1-1.1,10.7   C515.9,471.5,499.2,455.5,483.6,461.4z" />
	<path fill="#0A0D1B" d="M558.9,507.1c-6.2,2.2-19.6,13.7-24.7,11.9c2.5-2.3,16.2-9.6,23.8-12.8   C558.3,506.5,558.6,506.8,558.9,507.1z" />
	<path fill="#10162A" d="M543.1,480c0.9,6.7,3.6,17.6-5.6,19.3c8.5-6.9,3-12.6,4.9-20.9C542.6,478.9,542.9,479.4,543.1,480z" />
	<path fill="#070912" d="M471.7,437.3c-3.1,2.3-6.7,3.8-10.1,5.3c-4.3-3.2,6-5.4,8.4-6.2C470.7,436.6,471.5,436.5,471.7,437.3z" />
	<path fill="#263465" d="M611.9,444.1c0.3,0.3,0.6,0.5,0.8,0.8c-3,6.8-6.8,13.2-10.8,20C602.9,457.8,608.7,450.8,611.9,444.1z" />
	<path fill="#131A32" d="M543.1,480c-0.2-0.5-0.5-1.1-0.7-1.6c4.6-7.1-0.4-14.5-6.2-19c0.3-0.2,0.5-0.5,0.8-0.7   C544.3,463.2,548,472.4,543.1,480z" />
	<path fill="#0D1122" d="M527.9,449.5c4.3-2.9,9.5-4.4,14.2-6.7c0.4,0.4,0.6,0.7,0.8,1c-3.9,3.1-9.6,4.2-14.1,6.6   C528.5,450.1,528.2,449.8,527.9,449.5z" />
	<path fill="#36488D" d="M633.2,438.1c-1.6,6.4-3.6,12.7-6.7,18.7c0.7-6.8,4.4-12.8,5.9-19.4C632.7,437.6,633,437.8,633.2,438.1z" />
	<path fill="#182140" d="M633.2,438.1c-0.2-0.2-0.5-0.5-0.7-0.7c1.1-5.2,2.2-10.2,3.4-15.5C638.3,426.7,634.1,433,633.2,438.1z" />
	<path fill="#0B0F1D" d="M491.3,492.3c-1.6,1.5-4.8,2.1-8.4,1.8C481.9,491,489.3,490.6,491.3,492.3z" />
	<path fill="#12182F" d="M450.4,424.5c2.8-3,7.4-2.1,11.2-2.8c0.2,0.2,0.5,0.5,0.8,0.9c-3.9,1.4-7.7,1.4-11.6,2.7   C450.7,425,450.6,424.8,450.4,424.5z" />
	<path fill="#1E284E" d="M566.6,487.4c4.2-1.6,8.9-8,13.2-6.7c-4.2,2.5-8.4,5-12.5,7.5C567.1,488,566.8,487.7,566.6,487.4z" />
	<path fill="#171F3C" d="M555.2,451c0.3,0.3,0.6,0.6,0.9,0.9c-3.7,3.3-7.9,5.5-12.7,6.5C547.5,456.2,551.4,453.7,555.2,451z" />
	<path fill="#151D38" d="M558.9,507.1c-0.3-0.3-0.6-0.6-0.9-0.8c3.6-2.3,7.4-4,11.4-5.3c0.3,0.3,0.6,0.5,0.8,0.8   C566.5,503.6,562.7,505.3,558.9,507.1z" />
	<path fill="#374A91" d="M566.6,487.4c0.3,0.3,0.5,0.6,0.8,0.8c-3.6,2.5-6.9,5.3-10.7,7.7C556.1,493.5,564.6,489.7,566.6,487.4z" />
	<path fill="#212D59" d="M570.3,501.8c-0.3-0.3-0.6-0.5-0.8-0.8c3.4-2,7-3.4,10.7-4.5c0.2,0.3,0.5,0.5,0.7,0.8   C577.4,498.7,573.8,500.3,570.3,501.8z" />
	<path fill="#36498F" d="M491.5,410.8c0.2-0.2,0.5-0.5,0.7-0.7c2,3.1,4,6.1,6,9.2c-0.2,0.2-0.5,0.5-0.7,0.7   C495.3,417,493.1,414.1,491.5,410.8z" />
	<path fill="#1D274C" d="M526.6,509.7c1.2-1.2,6.9-6.7,8-3.9C532.3,507.4,529.8,508.9,526.6,509.7z" />
	<path fill="#1A2445" d="M471.7,437.3c-0.3-0.8-1-0.7-1.6-0.8c2.1-0.8,4.1-2.3,7.1-2.2C475.4,436.2,473.4,436.4,471.7,437.3z" />
	<path fill="#35488B" d="M580.9,497.2c-0.2-0.3-0.5-0.5-0.7-0.8c1.8-1.6,4.1-2.1,6.5-3C585.5,495.7,583,496,580.9,497.2z" />
	<path fill="#4B65C5" d="M539.2,460.1c-0.3-0.2-0.6-0.5-0.8-0.7C538.7,459.6,538.9,459.9,539.2,460.1z" />
	<path fill="#3B3C44" d="M441.9,435.7c-3.3,0.8-5.7-1.1-8.6-2.5c2-1.1,3.4-0.2,4.7,0.5C439.2,434.4,441,434.1,441.9,435.7z" />
	<path fill="#2E3036" d="M375.4,477.8c2.4-1,3.2,0.5,4.7,1.7C378,480,376.7,479.6,375.4,477.8z" />
	<path fill="#303137" d="M427.8,433.5c-0.7-0.5-1.4-1-2.2-1.5c1.7-2,3.6,0.7,5.8,1.5C429.7,433.5,428.7,433.5,427.8,433.5z" />
	<path fill="#1D1E22" d="M370.1,473.1c2.3-0.5,2.5,1,3.2,2.2C370.9,475.2,370.9,475.2,370.1,473.1z" />
	<path fill="#575A66" d="M384.8,481.1c-0.6,0.9-0.8,1-1.5,0.2C383.8,480.6,384,480.6,384.8,481.1z" />
	<path fill="#040403" d="M260.3,494.4c-4.4,4.9-9.6,11.5-16.6,12c-0.4-1.6,0.4-2.9,0.5-4.1c4.9-3.8,9.6-7.5,14.4-11.2   c1.3,0.4,0.5,1.3,0.5,2C259.5,493.6,259.9,494,260.3,494.4z" />
	<path fill="#080706" d="M335.8,447c1.6,5.6-15.6,27.1-18.2,18.2C326,461.1,330.2,454.3,335.8,447z" />
	<path fill="#37322F" d="M260.3,494.4c-0.4-0.4-0.8-0.8-1.3-1.3c0-0.6,0.9-1.6-0.5-2c1.2-1.8,2.2-3.8,4.3-5.1   c0.2,0.5,0.5,0.9,0.4,1.1C262,489.5,263,492.8,260.3,494.4z M260.8,491.6l-0.2-0.2l0,0.3L260.8,491.6z" />
	<path fill="#413833" d="M335,444.9c-2.4-1.5-0.8-4.4,1.4-5.1C336.5,441.6,336.2,443.3,335,444.9z" />
	<path fill="#483D38" d="M341.9,424.5c-1.2,2-2.2,3.6-3.1,5C335.7,429.6,340.1,423.8,341.9,424.5z" />
	<path fill="#362E2B" d="M259.5,508.7c1.5-1.8,3.3-2.9,5.3-3.8C266.8,507.2,261.3,508.6,259.5,508.7L259.5,508.7z" />
	<path fill="#282322" d="M269.3,444.2c1.8,1.7,0.5,4.7,0.9,6.9C267.5,451,269.7,446.1,269.3,444.2L269.3,444.2z" />
	<path fill="#4A3F3A" d="M335.7,437.1c-1.3-1.8-1.2-2,0.9-4C337.3,434.6,336.6,435.7,335.7,437.1z" />
	<path fill="#655852" d="M269.3,472.9c-0.3-0.3-0.6-0.5-0.8-0.8c0.3-1.2-0.4-2.7,1.1-3.8C270.5,470.1,269.1,471.5,269.3,472.9z" />
	<path fill="#362F2C" d="M269.8,462.5c-0.8-2.3-0.8-2.3,1-3.8C271.1,460.2,271.2,461.5,269.8,462.5z" />
	<path fill="#7E6D65" d="M259.5,508.6c-1.1,1.3-2.3-0.1-3.9-0.4c0.8-0.6,1.3-0.9,1.9-1.4C258.3,507.6,258.9,508.1,259.5,508.6   C259.5,508.7,259.5,508.6,259.5,508.6z" />
	<path d="M387.6,425.2c-0.1,0.4-0.2,0.7-0.6,0.2C387.1,425.1,387.3,425,387.6,425.2z" />
	<path fill="#0E0C0B" d="M124.5,469.2c-0.2,0-0.5,0-0.7,0c-0.4-1.8-2.3-1.2-3.4-1.6c-1.7-1.5-3.8-1.2-5.7-1.4   c-1.5-1.7-4.3,0.1-6.1-1.5c0.4-3.8,3.1-14.5,7.2-14.9c0.1,1,0.2,2,0.2,3.2c1.5,0.3,2.9,0.6,4.5,0.9c0.8-1.6,4.1-3.6,2-5.2   c0.2-2,0.3-4,2.5-5.1c4.4,0.4,7.3,7,4.8,10.6c-0.9-0.3-1.8-0.6-2.9-0.9c-0.3,0.6-0.6,1-0.9,1.5c0,0,0,0,0,0   c-3.5,2-7.1,1.8-10.9,0.9c-1.4,2.4-4,4.8-3.2,7.5c2-0.1,4-0.2,5.7-0.3c1.5-1.7,10.2-9.4,11.4-5.3c-2.9,2-6.3,2.8-7.9,6.4   c1.2,0.7,2.2,1.3,3.1,1.7c3-0.5,3-3.8,5.5-4.8c0.6,2.6-0.5,4.4-1.9,6.2C126.2,467.2,126,468.9,124.5,469.2z" />
	<path fill="#060605" d="M81.3,412.5c-0.3,0.7-0.5,0.9-1.1,1.2c-3.1-1.4-6.9-2.8-8.1-6.7c-1-3.1-4-5.3-3.8-8.9   c-1.3-4.4-4.1-9-2.1-13.8c10.9-2.1,3,17.7,11.5,21.7C80.2,407.3,80.3,410.2,81.3,412.5z" />
	<path fill="#E0C7BC" d="M125.9,454.7c0.3-0.5,0.6-1,0.9-1.5c1.1,0.4,2,0.6,2.9,0.9c2.5-3.5-0.4-10.1-4.8-10.6   c-2.1,1.1-2.3,3.1-2.5,5.1c-0.3-0.2-0.6-0.3-1.1-0.6c1.9-13.5,15.4,1.9,8.6,7.4c-0.1,1-0.2,2-0.3,2.8c-1.1,1.4-2.4,1.1-3.7,1.1   c1-0.6,2-1.2,3-1.8c-1.2-4.1-9.9,3.6-11.4,5.3c-1.7,0.1-3.7,0.2-5.7,0.3c-0.7-2.7,1.9-5.1,3.2-7.5   C118.8,456.5,122.5,456.7,125.9,454.7c1.1,0.9,1.1,0.9,1.4-0.3C126.8,454.5,126.4,454.6,125.9,454.7z" />
	<path fill="#070606" d="M78.3,387.1c0.7-0.8,1.2-1.3,1.7-2c4.6,1,5.8,5.1,5,9.4c1.7,1.3,4.2,6.6,0,5.7c-4.9-3-7.7-7.3-10.4-12.4   c0.4-0.5,0.8-1.1,1.2-1.7C76.7,386.4,77.4,386.7,78.3,387.1z" />
	<path fill="#D3B3A5" d="M154.1,423.7c-1.7,2.8-3.3,5.7-6,7.7c0.2-2.7,3-4.5,4.4-6.8c-0.4-4.2,0.5-8.4,1.6-12.2c0.3,0,0.6,0,0.8,0   c-0.1,2-0.9,3.9-1.4,5.8C153,420.1,154.4,421.8,154.1,423.7z" />
	<path fill="#EECABA" d="M136,441c1.5-0.1,2.8,0.2,3.9,1.9c-0.8,4.9-0.8,11.3-5.4,14.4c-0.3-1,0.3-1.7,0.9-2.3   c2.7-2.6,2.2-7.9,3.4-10.9C138.8,441.5,136.3,442.5,136,441z" />
	<path fill="#272525" d="M121.8,416.9c-1.4-1.6-0.4-5.9,1.8-6.2C125.7,411.9,124.1,416.5,121.8,416.9z" />
	<path fill="#1A1918" d="M119.5,425.1c-0.3-0.3-0.6-0.6-1-0.9c0.6-2.3,1.2-4.2,3.2-5.7C122.9,420.9,122.6,424,119.5,425.1z" />
	<path fill="#C6B0A7" d="M109.3,459.3c-0.3,1.8-0.5,3.5-0.8,5.3c-0.4-0.1-0.9-0.1-1.3-0.2c-0.3-3.5,0.7-6.9,0.7-10.4   c0.2-0.1,0.4-0.2,0.6-0.2C108.6,455.7,108.2,457.7,109.3,459.3z" />
	<path fill="#D3B3A5" d="M148.1,431.4c-1,3-3.1,4.1-6.1,3.8C144.1,433.9,146.1,433.1,148.1,431.4z" />
	<path fill="#161616" d="M126,468.4c0.3-0.8,0.8-1.4,1.7-1.4c-0.3,0.5-0.6,1-1,1.4C126.5,468.4,126.3,468.4,126,468.4z" />
	<path fill="#EECABA" d="M154,413.8c-0.2,0.3-0.4,0.5-0.6,0.8C153.6,414.3,153.8,414.1,154,413.8z" />
	<path fill="#EDC9BA" d="M583.2,248.5c-0.7,0-1.5,0-2.2,0.1l-0.1-0.1c0.1-0.8,0.3-0.8,0.9-1.7c-3.1,0.1-5,1.9-7.8,2.4   c-0.7-1.7-4.5-0.4-4,1.2c-0.3,0-0.7-0.1-1-0.1c0.1-9.4,18.6-8.2,25.5-8.7c5.3,2.4,0.4,7.5-4,5.9c0.9-1,4-2.5,1.4-3.6   C589.4,245.9,585.4,246.3,583.2,248.5z" />
	<path fill="#EAC7B7" d="M590,230.3c-0.7,6.1-9.3,4-13.6,6c-3.4,0.9-6.2,3.5-9.8,1.5c0.6-1.4,4.1-0.6,2.6-3   c-1.4,0.5-2.6,1.8-4.2,1.5c3.7-4.5,16.2-7.8,22.2-7.5c-2.1,2.1-4.6,1.8-7.3,3.2C584.5,233.2,586.2,232.9,590,230.3z M574.9,234.2   c1.1-0.2,2.5,0.3,3.1-1.2c-1-1.5-4.8,0.3-4.4,2C574.2,234.7,574.5,234.4,574.9,234.2z" />
	<path fill="#151211" d="M590,230.3c-3.9,2.6-5.6,2.9-10.1,1.8c2.7-1.4,5.2-1.1,7.3-3.2c0.9-0.9,1.9-1.8,3.2-1.8   C591.6,228.5,590.4,229.3,590,230.3z" />
	<path fill="#221F1D" d="M592,216.3c4.2,0.9,4.5,6.7,1.1,8.3C590,223.2,593.6,219.4,592,216.3z" />
	<path fill="#1B1817" d="M560.2,212.7c0.8,0.4,1.9-0.3,2.5,0.8c-2.3,1-4.6,2-7.2,3.1c-0.3-0.3-0.7-0.6-1-1   C555.9,213.2,558.2,213.1,560.2,212.7z" />
	<path fill="#2F2825" d="M586.2,246.9c2-1,3.9-2,5.7-3c2.6,1.1-0.5,2.6-1.4,3.6c-1.1,0.1-2.2,0.2-3.3,0.3   C586.9,247.6,586.6,247.2,586.2,246.9z" />
	<path fill="#3C3431" d="M565,236.4c1.6,0.3,2.8-1,4.2-1.5c1.4,2.4-2,1.6-2.6,3c-0.5,0.3-1,0.6-1.5,0.9c-0.3-0.3-0.7-0.7-1-1   C564.4,237.3,564.7,236.8,565,236.4z" />
	<path fill="#332E2C" d="M553,216.9c-0.9,0.6-1.8,1.2-2.7,1.8c-2.2-0.6,0.4-3.3,1.8-3.6C552.9,215.5,553,216,553,216.9z" />
	<path fill="#3B3431" d="M570,250.4c-0.5-1.6,3.2-2.9,4-1.2C572.8,250,571.5,250.5,570,250.4z" />
	<path fill="#2C2826" d="M564.3,269.1c-1.6,1.5-1.6,1.5-2.7,0.4C562.9,268,562.9,268,564.3,269.1z" />
	<path fill="#9B8B84" d="M587.1,259.2c-0.1,0.2-0.1,0.4-0.2,0.6c-1.2-0.1-2.4,0.5-3.6-0.3c0.6-1.6,1.9-1,3-1.1   C586.5,258.7,586.8,258.9,587.1,259.2z" />
	<path fill="#352F2E" d="M587.1,259.2c-0.3-0.3-0.5-0.6-0.8-0.8c0.5-0.3,1-0.6,1.5-0.9c0.6,0.1,1.1,0.2,1.7,0.3   C589.1,259.3,588,259.1,587.1,259.2z" />
	<path fill="#352F2C" d="M586.2,246.9c0.3,0.3,0.7,0.6,1,0.9c-1.3,0.8-2.6,0.9-4.1,0.6l0,0C583.7,247.1,585.1,247.3,586.2,246.9z" />
	<path fill="#EDC9BA" d="M581,248.6c-1.6,1-3.1,1.1-4.7,0c0,0,0.1-0.1,0.1-0.1C578,248.5,579.4,248.5,581,248.6   C580.9,248.5,581,248.6,581,248.6z" />
	<path fill="#887A74" d="M564.1,237.8c0.3,0.3,0.7,0.7,1,1c-0.5,0.7-1,1.5-2.1,1.1C562.6,238.7,563.5,238.3,564.1,237.8z" />
	<path fill="#70655F" d="M595,234.2c1.1,0.7,1.1,0.7,0.6,2C594.5,235.5,594.5,235.5,595,234.2z" />
	<path fill="#403A38" d="M557.4,274.3c-1.1-0.1-0.9-0.8-0.8-1.6c0.7-0.2,1.4-0.5,2.8-0.9C558.4,273,557.9,273.7,557.4,274.3z" />
	<path fill="#EDC9BA" d="M583.2,248.5c0.8,0,1.5,0.1,2.3,0.1C584.2,249.5,584.2,249.5,583.2,248.5z" />
	<path fill="#211C1A" d="M341.7,306.7c-0.9-3.3,1.8-5.9,2.4-9.4C345.9,299.3,345.2,307.3,341.7,306.7z" />
	<path fill="#322B28" d="M345,290.3c0.6,1.8,0,3.4-1.1,5.3C343.3,293.3,343.3,291.6,345,290.3L345,290.3z" />
	<path fill="#0C0B0A" d="M723.5,304.6c4.7,2,8.3,7.2,10.5,11.6c-4.4,2.2-8.7-7.9-11.5-10.7C722.9,305.2,723.2,304.9,723.5,304.6z" />
	<path fill="#1D1917" d="M716,297c-0.5-0.4-0.2-1-0.2-1.5c2,0.8,4.3,2.2,5.2,4.3C719.7,303.2,717.2,298.2,716,297z" />
	<path fill="#806D65" d="M723.5,304.6c-0.3,0.3-0.6,0.6-0.9,0.9c-0.8-0.5-1.6-1-1.8-2.3C722,303.1,722.8,303.8,723.5,304.6z" />
	<path fill="#E5C3B4" d="M590.1,174.9c0.8,1.1,0.8,2.4,0.8,3.7l-0.1,0.1c-1.4-0.7-0.6-2.5-0.9-3.7L590.1,174.9z" />
	<path fill="#594C47" d="M715.9,295.5c-0.1,0.3-0.1,0.6-0.2,0.9c-0.5-0.4-0.9-0.9-1.5-1.4C715.2,294.5,715.6,295,715.9,295.5z" />
	<path fill="#594C47" d="M716,297c0.2,0.3,0.4,0.5,0.6,0.8C716.4,297.5,716.2,297.3,716,297z" />
	<path fill="#594C47" d="M717.4,296.3c-0.3-0.2-0.6-0.4-0.8-0.5C716.9,295.9,717.2,296.1,717.4,296.3z" />
	<path fill="#060606" d="M488.4,132.5c-22.8-1.4,23.5-10.9,24.1-2.2c-0.2,0.4-0.6,0.8-0.8,1.2C504,130.4,496.2,130.9,488.4,132.5z" />
	<path fill="#060606" d="M509.1,146.7c-7.1-2.8-21.6,2.5-25.2-1.6c0.5-0.7,1-1.4,1.5-2.1c8.2-0.3,27.7-2.9,32.6,4   c-1.7,1.5-3-0.1-4.4-0.1C512.1,146.9,510.6,146.8,509.1,146.7z" />
	<path fill="#050506" d="M490.7,139.3c-2.3,0.5-10.2,1.6-7-2.6c6-2.5,27.8-3.3,31.4,2.2C507.5,141.6,498.7,136.5,490.7,139.3z" />
	<path fill="#060606" d="M484.6,123.3c-13.6-6.1,25.1-7.8,22.8-2.6C504.4,124.5,490.3,121.1,484.6,123.3z" />
	<path fill="#070707" d="M484.9,113.8c0.3-4,20.3-5.5,19.2-0.6C504.2,115.9,485.3,116.9,484.9,113.8z" />
	<path fill="#0A0A0B" d="M293.8,349.5c-0.3-0.3-0.7-0.6-1-0.8c13.9-2.9,39.6-8.6,51,0.6C327.3,345.8,310.6,348.3,293.8,349.5z" />
	<path fill="#232427" d="M342,349.4c1.8,0,4-0.6,5.6,0.6c-1.3,0-2.7-0.1-3.9,0.7C343.1,350.3,342.6,349.9,342,349.4z" />
	<path fill="#0A0A0B" d="M343.7,350.7c1.2-0.7,3.2-1,4.5-0.4c0,0.4,0,0.9,0,1.3c-0.5,0-1-0.1-1.5-0.1   C345.9,350.1,344.4,351.6,343.7,350.7z" />
	<path fill="#232427" d="M344.2,351c0.9-0.1,1.8-0.5,2.5,0.6C345.8,351.4,345,351.2,344.2,351z" />
	<path fill="#232427" d="M348.2,351.6c0-0.4,0-0.9,0-1.3C349.1,351,349.1,351.1,348.2,351.6z" />
	<path fill="#EDCABA" d="M139.4,454.7c5.2-3.6,2.9-9.9,3.5-15c8,1.2,11.2-8.5,17.2-12.3c-0.6,5.2-2.9,18.8-10.6,12.7   c-1.6,0.5-3.4,1-5.3,1.4c0,2.1-0.4,4.2,0.3,6.3c2.5,0.3,5.5-3.2,6.9,0.4c0.9,4.4-5.8,2.7-8.4,3.7c-0.6,1-1.2,1.9-1.7,2.8   C140.7,454.7,140.1,454.7,139.4,454.7z" />
	<path fill="#EECABA" d="M151,447.2c-2.4-1.9-3.9,1-6.4,0.6c-0.7-2.1-0.3-4.1-0.3-6.3c1.6-0.4,3-0.8,4.5-1.2   C149.6,442.6,150.9,444.8,151,447.2z" />
	<path fill="#6E625C" d="M186,407.8c-0.8,0.9-1.6,1.8-2.6,2.8C181.9,409.1,184.4,406.2,186,407.8z" />
	<path fill="#8D817B" d="M192.6,400.8c1.3-1,2.7-1.5,4.3-1.9c-0.8,1.4-2.2,2-3.5,2.7C193.2,401.4,192.9,401.1,192.6,400.8z" />
	<path fill="#605551" d="M164.7,423.7c-0.2-0.9-1-0.6-1.5-0.8c0.9-1,2.2-1,3.3-1.5C166.8,423,165.7,423.3,164.7,423.7z" />
	<path fill="#403936" d="M172,417.4c-0.7,0.7-1.4,1.5-2.5,2.7c-0.4-2.2,0.6-2.1,1.9-3.3C171.6,417,171.8,417.2,172,417.4z" />
	<path fill="#2B2726" d="M192.6,400.8c0.3,0.3,0.5,0.6,0.8,0.9c-0.4,0.3-1,0.1-1.5,0.1C192.2,401.4,192.4,401.1,192.6,400.8z" />
	<path fill="#625752" d="M175.2,413.5c0.7-0.3,1.1-0.7,1.5-0.6C177.4,413.5,176.1,414.1,175.2,413.5z" />
	<path fill="#3B332F" d="M411.2,278.3c1.6,0.6,1.6,0.6,2.2,1.7C412,281.1,410.8,279.8,411.2,278.3z" />
	<path fill="#FBDFD3" d="M504.4,212.1c0.1-0.2,0.2-0.3,0.3-0.5C504.6,211.7,504.5,211.9,504.4,212.1L504.4,212.1z" />
	<path fill="#010203" d="M630.2,314.5c-25,21.5-37.6,13.5-63-1.5c0.3-0.3,0.6-0.6,0.9-0.9c27.3,10.1,33.4,20.7,60.7,0.4   C630.1,312.7,630.3,313.5,630.2,314.5z" />
	<path fill="#5876E8" d="M637.9,380.2c-0.2-4.5-0.2-4.5-3.1-7.9c0.1-0.8,0.1-1.9,0.2-3.4c1.3,0.7,2.2,1.3,3,1.7   c2.9-0.3,3-3.7,5.6-4.5c0.5,2.2,0.3,4.2,0.3,6c-0.8,0.7-1.5,1.4-2.3,2.1c0.6,0.9,1,1.6,1.5,2.3c0,1.9,0,3.7,0,5.7   C640.4,383.7,639.4,381.5,637.9,380.2z" />
	<path fill="#4962BF" d="M637.2,340.4c-6.2,1.4-13.3,0.2-19.9,0.6c-0.7-0.5-1.4-0.9-2.2-1.3c5.8-1.8,11.6-3.6,17.4-5.4   c-0.2,0.4-0.5,0.9-0.7,1.4C633.1,337.7,634.2,340.7,637.2,340.4z" />
	<path fill="#10162A" d="M632.5,334.3c-7.5,2.2-14.8,5.1-22.5,6.3c0,0.4,0,0.7,0,0.9c-0.6,0.1-1.2,0.2-1.9,0.3c-1-1-2.4-0.7-3.8-0.7   c10.6-2.8,21.8-7.4,32.6-8.9C635.7,333.9,633.7,333.1,632.5,334.3z" />
	<path fill="#060810" d="M641.5,360.6c-5.1,1.3-10.8,0.1-15.1-3.4c5.4-0.2,10.3,0.5,15.1,2.2C641.5,359.7,641.5,360.1,641.5,360.6z" />
	<path fill="#5876E8" d="M639.6,385.3c0.4,0.2,0,0.5-0.3,0.5C639.4,385.6,639.5,385.4,639.6,385.3z" />
	<path fill="#4962BF" d="M640.1,341c-0.3-0.2-0.6-0.4-0.9-0.6C639.5,340.6,639.8,340.8,640.1,341z" />
	<path fill="#121315" d="M413.3,426.8c-5.1-2.4-7.2-3.7-9.7-6.2c1.3-4.3,8.5,3.9,10.6,5.3C413.9,426.2,413.6,426.5,413.3,426.8z" />
	<path fill="#878B99" d="M416.3,427.6c1.2,0.2,1.8,1.3,2.8,1.9c-1.5,0.4-2.6-0.2-3.4-1.3C415.9,428.1,416.1,427.9,416.3,427.6z" />
	<path fill="#555760" d="M416.3,427.6c-0.2,0.2-0.4,0.4-0.6,0.6c-0.8-0.5-1.6-1-2.4-1.4c0.3-0.3,0.6-0.6,0.9-0.9   C414.9,426.5,415.6,427.1,416.3,427.6z" />
	<path fill="#2D2623" d="M546.4,284.2c-0.6-2.3,2.8-2.8,4.1-4.1c0,0.3,0,0.6,0.1,0.9c-1,1-2,2.1-3,3.1   C547.2,284.2,546.8,284.2,546.4,284.2z" />
	<path fill="#394A89" d="M549.9,302.3c0.2-0.2,0.5-0.5,0.7-0.7c1.3,1.8,2.5,3.5,3.9,5.5C552.2,306.3,551.6,305.6,549.9,302.3z" />
	<path fill="#222C4F" d="M568.1,312.1c-0.3,0.3-0.6,0.6-0.9,0.9c-1.8-1-3.8-1.5-5.4-3.2C564.1,309.4,566,311.5,568.1,312.1z" />
	<path fill="#3B322F" d="M550.6,281c0-0.3,0-0.6-0.1-0.9c1-1.1,1.7-4.6,3.6-3.3C553.4,278.6,552.3,280,550.6,281z" />
	<path fill="#090D19" d="M526.4,238.6c-0.3,0.1-0.7,0.3-1.3,0.6c-3.2-2.9-5.6-7-7.3-11c0.3-0.3,0.7-0.6,1-1   C521.4,231,524.2,234.6,526.4,238.6C526.3,238.6,526.4,238.6,526.4,238.6z" />
	<path fill="#202B54" d="M518.8,227.2c-0.3,0.3-0.7,0.6-1,1c-1-2.7-4.2-5.8-3.9-8.3C515.7,222.3,517.5,224.5,518.8,227.2z" />
	<path fill="#B69D91" d="M157.2,450.2c1.3-0.6,2.4-0.8,1.7,0.6C158.6,450.7,158.3,450.6,157.2,450.2z" />
	<path fill="#24201E" d="M154.1,423.7c-0.7-3.6-0.7-6.6,0.8-10.2c1.4-2.7,0.7-12.5,4.2-12.3c0.2,8.8-3.9,17.6-3.9,26.7   c0.4,0,0.7,0.1,1.1,0.1c0,1.2-1.1,1-1.8,1.6C152.9,427.4,156,425.2,154.1,423.7z" />
	<path fill="#D4B4A6" d="M158.3,420.5c-0.7-1.4-0.6-2.5,0.9-3.6c0.5,0.3,1.1,0.7,1.5,1C160.8,419.1,160.6,419.3,158.3,420.5z" />
	<path fill="#36498E" d="M610,341.5c0-0.2,0-0.5,0-0.9c1.7-0.3,3.4-0.6,5.1-0.9c0.7,0.4,1.5,0.9,2.2,1.3   C614.9,341,612.4,340.9,610,341.5z" />
	<path fill="#554843" d="M590,175c0.2,1.2-0.5,3,0.9,3.7c0,0.8-0.1,1.7-0.1,3.1C589.6,179.3,588.6,176.9,590,175z" />
	<path fill="#CAB4AB" d="M114.6,466.2c2,0.2,4-0.1,5.7,1.4c1.1,0.4,3.1-0.2,3.4,1.6c-4.6,2.8-10-0.9-14.1-2.8   C111.5,466.3,113.1,466.2,114.6,466.2z" />
	<path fill="#161616" d="M124.5,469.2c0.5-0.3,1-0.5,1.5-0.8c-0.2,0.7-0.4,1.3-0.9,2.8C124.7,470,124.6,469.6,124.5,469.2z" />
	<path fill="#5169C6" d="M478.6,498.1c0-0.6,0.1-1.1,0.1-1.7c0.6,0.3,1.2,0.6,2.5,1.3C479.9,497.9,479.2,498,478.6,498.1z" />
	<path fill="#594D48" d="M574.9,109.7c0-0.3,0-0.6,0-0.8c0.4,0,0.9,0.1,1.3,0.1c0,0.1,0,0.3,0,0.4   C575.8,109.6,575.4,109.7,574.9,109.7z" />
	<path fill="#433A36" d="M305.6,410.7c-0.6,0.1-1.1,0.2-2,0.3c0.5-1.5,1.2-2.1,2.4-2.4C306.3,409.4,305.8,409.9,305.6,410.7z" />
	<polygon fill="#8D8D8D" points="260.8,491.6 260.5,491.7 260.6,491.4  " />
	<path fill="#FBDFD3" d="M125.9,454.7c0.4-0.1,0.9-0.2,1.4-0.3C127,455.6,127,455.6,125.9,454.7L125.9,454.7z" />
	<path fill="#98837A" d="M580.9,248.5c-1.5,0-3,0-4.5-0.1c1-0.5,2.1-0.9,3.1-1.4c0.2,0.9,0.9,0.7,1.5,0.9   C581,248.1,581,248.3,580.9,248.5z" />
	<path fill="#2D2724" d="M581,247.9c-0.6-0.2-1.3,0-1.5-0.9c0.6-0.1,1.3-0.2,2.3-0.3C581.4,247.4,581.2,247.7,581,247.9z" />
	<path fill="#2D2724" d="M574.9,233.3c1-0.7,1.9-1.5,3.1-0.3c-0.7,1.5-2,1-3.1,1.2C574.9,233.9,574.9,233.6,574.9,233.3z" />
	<path fill="#72635C" d="M574.9,233.3c0,0.3,0,0.6,0,0.9c-0.3,0.2-0.7,0.5-1.2,0.9C573.5,233.7,574.2,233.5,574.9,233.3z" />
</g>
</svg>