<?xml version='1.0' encoding='utf-8'?>
<svg xmlns="http://www.w3.org/2000/svg" version="1.2" baseProfile="tiny" id="Layer_2_00000046309313968278494000000011500691567045046709_" x="0px" y="0px" viewBox="0 0 900 600" overflow="visible" xml:space="preserve">
<g>
	<path d="M774,323.6c-3.4-12-17.2-5.6-25.9-9.5c-11.6,4.4-19.8,13-30.3,19c3.4,12.9,0.6,33.3,19.2,33.8c6.9,2,13.8-2.7,20.5-0.1   c2.8,1.3,5.8,2,8.6-0.1c0-1.4,0-2.7,0-4.1c-1.4-0.7-2.7-1.4-4.1-2.1c-5.3,2.7-11.1,0.5-15.9-2.5c0.6-0.5,1.1-0.9,1.5-1.2   c7.1,4.2,15.4-0.3,21.9,5.4c5.2,2.7,10.6,0.2,15.9,0.8c4,1.2,8.7,1.9,12.5,0.6c-4.4-1.7-8.6-2.3-12.2-5.1c0.6-1.4,2.2-0.5,3.2-0.1   c4.6,2.2,10.9,2.1,14.7,4.7c-0.6,0.3-1,0.7-0.5,1.4c1.1,0.1,1.6-0.6,2.1-1.3c1.7-0.1,4.3-1.9,5.4,0c-11,10.1-28.4,3.2-41.9,2.6   c-1.9,8.4-10.9,2.7-16.6,3.5c-27.6,5.9-34-8-36.5-32.7c-10.3,15.2-23.8,31.8-44.4,30.8c-14.2,4.1-28.1,11.1-43.4,6.9   c-16.7,1.1-33.4,0.9-50.2-1c0.2,22.3,29.8,11.7,40.1,23.8c22.3,10,58.2,22.3,7.9,24.6c-3.3,0.8-7.9,2.4-10.9,0.3   c-15.8,3.5-30-2-44.9-6.2c-11.9-3.2-18.6-4.7-20-18.5c-10.1-9-10.4-24.9-21.3-34.1c-18.7-0.8-35.6-7-50.8-18   c-0.6,0.3-1.1,0.6-1.8,1c-62.5-24.4-54.6-11.4-111.6-8.2c0.1,0.6,0.1,1.1,0.2,1.6c-3.4,0.6-6.6,0.1-8.9-2.7   c-27.7-1-55.1-6.1-79.7-19c-8.9-5.2-20.3-1.8-28.1-9.4c-6.9-4.4-16-2-23.1-6.7c-36.5-15.3-77.6-13.1-115.7-22.7   c-1.4,14.8-10.2,14.2-7,33.8c-0.3,0.6-0.8,1.5-1.4,2.5c3,5.4,7.8,10.7,0.9,15.7c-6.1,5.2-14.7,8-21.7,2.7   c-27,33.2-95.4-12-65.2-47.9c1.7-17.1-14-11.8-14.1-37.6c-2.2-13.4,9.6-31.6,22.4-34.8c11-0.1,19.7,7.4,30.1,8.6   c2.9,0,5.6,0.6,7.8,2.8c0.5,1,1.2,0.8,1.5-0.1c0.8-11.5,9.6-20.2,21.2-14.9c10.1,4.1,45,1.6,45.1,14.4c5.4,1.5,10.9,1.1,16.4,1   c0.7,0.9,1.3,1.5,1.9,2.3c50.3,3.1,72.8-6.8,123.9,13.2c28.6-11.6,63.9-2.2,90.6-16.4c0.1-0.5,0.2-1,0.4-1.6   c49.2-34.6,126.3-34.5,168.3,11.9c32.6-8.1,66.7-6.1,99.9-4.8c25-4.7,49.8-7.5,75.1-10.6c1.5-4.6-1.6-14,5.1-14.7   c0.5,2-1.7,2.7-2.1,4.2c0.1,3.1,0,5.8-0.3,8.9c19.8,0.5,40.2,2.2,59.4,4.1c-17.9-7.8-36.9-21.5-57.1-17.1   c5.6-7.8,16.4-0.8,24.1-0.8c16,4.1,31.4,12.1,43.8,23.1c5.2-5.9,7.8-14.2,13.3-20.2c1.4-0.5,3.5-1,3.3-3   c9.5-14.9,27.9-21.6,44.4-25.4c5.3-0.9,8.1,2.2,13.4-1.2c11.5,4,17,10.5,11.2,22.8c-0.3,0-0.7-0.1-1-0.1c0.4-12,0.7-19.4-14.1-17.8   c-5,4.2-9.4,9.1-13.7,14c-0.3-0.3-0.6-0.7-0.9-1c0.1-0.5,0.6-0.9,0.9-1.4l0,0c0.8-0.2,0.9-0.8,0.9-1.5c1.9-3.5,4.7-5.4,6.9-8.9   c-19.2-0.5-32.6,17.7-40.9,32.9c-1.5,0.5-0.4,2.3-1.5,3.3c-0.1,0.8-1.3,1-0.9,2.1l0,0c-0.9-0.3-1.1-1.7-0.8-2.4   c0.8-0.3,0.8-0.9,0.7-1.6l0,0c1-0.3,0.9-1,0.7-1.7c0.1-0.8,1.3-1,0.9-2.1c3.5-9.1,9.6-15.9,16.5-22.6c-8.4,3.8-15.8,9.4-22.4,15.8   c-7.6,22.9-16.3,47.4-23.3,70.8c11.1-12.9,15.6-28.7,19.8-44.7c2.5,25-16.4,51.2-37.4,63.2c-0.1-0.5-0.3-1-0.5-1.6   c13.3-6.7,14.9-22.3,18.5-35.1c-7.4,9.1-16.1,18-29.3,13.3c0.1-0.4,0.2-0.8,0.3-1.2c6.9,0.1,14-0.4,19.1-5.4   c-8.3,2.9-16.9,6.2-25.2,1.1c10.7,1.5,35-2.5,34.7-16c0.8,1.1,1.3,1.7,2,2.6c2.4-8.4,5.3-16.4,7.7-24.5c-5.6,8-9.1,18-16.1,25.4   c-0.3-0.3-0.6-0.7-1-1c0.7-1.4,1.4-2.7,2.2-4.3c-7.6,1.6-15.4,1.5-22.1-2.5c0.5-1,1.6-0.3,2.3-0.7c7.2,0.5,16.1,3.4,22.3-1.3   c-8.8-0.8-18.8-1.4-25.6-7.9c0.2-0.9,1-0.7,1.6-0.8c3.7,2.1,7.5,2.6,11.6,2.3c0.1,0.7-0.3,0.9-0.7,1.5c4.8,1.1,11,3,15.2,0.7   c0.1-1.8-7.6,0.7-9.9-0.8c1.2-1,2.8-0.2,3.9-1.3c1-0.3,2.3,0.2,3.1-0.8c2.3-0.6,7.3-1.4,6.3-4.6c-5.8,2.7-11.6,4.9-18,5.3   c0-0.2,0-0.5,0-0.7c0.8-0.4,1.9,0.4,2.3-0.8c5-2.7,10.7-4.6,15.3-7.9c-13.8-7.7-31.8-5-47.2-5.3c-1.2,2.8-5,1.3-5.1,4.5   c39.3,43.1-43.7,107.5-14.3,106.1c6.7-8.4,19.2-8.5,26.5-16.4c12-9.3,33.2-8.5,42.6,2.6c0.1,1.7,0,3.3-0.1,5.1   C775.5,324.8,775.6,323.1,774,323.6z M63,304.2L63,304.2c1,0.1,1-2.9,0.1-3.1c0.2-1.1-1-1.3-1-2c0.6-1.5-1.7-2.7-2.2-0.9   c-4.1,1-14.3,3.7-17-0.6c5.6-4.3,13.5-0.1,19.2-4.8c-4.6-0.2-19,5.3-18.1-3c9.1-1.5,28.5,0.6,29.7-11.4c-6.1,0.5-13.9,7.7-19.8,4.1   c-2-3.6-7.8-6.8-7.1-11.1c-3.6-4.9-14.1-18.5-5.6-22c-0.5,11.2,8.3,21.4,15.4,29.6c0.9-0.3,1.7-0.5,2.4-0.8c0-0.9,0-1.7,0-2.5   c33.7-7.5,67.5,3.2,100.7,8c23,1.1,44.6,6.2,65.4,15.9c0.6-0.4,1.2-0.8,1.7-1.1c3.9,0.4,9.3,3.4,12.5,2.3c-1.3-2.2-4-3.1-6.1-4.3   c11.5,0.4,21.5,13,33.6,15.1c27,9.9,54.3,20.4,83.8,19.8c-4.1-8-7.6-16.3-10.5-24.8c0.1-0.2,0.1-0.4-0.1-0.6   c-7-24.1-0.2-49.7,8.5-72.2c-23.3,3.9-47.1,3.9-70.2,8.9c-21,4.5-43.5,14-63.8,2.2c-49.5-27.4-107.9,2.8-159-12.2   c-5.2,4.4-8.3,10.2-12.5,15.3c-0.9-0.2-0.7-1.1-1-1.7c2.3-6.1,7-18.3,15-15.6c0.7-1.2,1.2-2.2,1.7-3.2c-3.3-1.9-3.4-2-5.4-1.7   c-10.7,1-17.4-8.8-29.8-8.5c-4.2-0.8-4.5,5-7.5,6.7c-15.1,10.9-16,35.3-2.1,47.3c11,12.4-2.3,28.6-1.4,43.3   c5.5,20.1,52.8,40.7,60.8,14.5c-1-1.6-1.9-3.2-2.7-4.6c0.1-0.8,0.2-1.4,0.3-2.1c-3-3.7-6.3-6.9-7.8-11.7c-0.7,0.3-1.1,0.5-1.6,0.7   c-0.9-0.1-1.8-0.1-2.5,0.6c-3.5,0.2-6.9,0.3-10.1-1.4c2.1-4.9,14.1-0.1,13.3-5.4C62.5,304.7,62.7,304.5,63,304.2z M718.5,274.1   C718.5,274.1,718.5,274.1,718.5,274.1c-0.3-0.3-0.6-0.6-0.9-0.9c1.7-11.3,3.1-28.1-7.1-36.2c-0.7,0.1-1.3,0.2-2.1,0.3   c-3.3-3.6-8-5.6-12.9-6.5c-13.8,0.5-28-3.6-41.9,1.1c-6.5,0.8-14-2.1-19.6,1.9c-1.4,2.8-4.7,0.2-7,0.9   c-31.6-3.6-120.6-4.7-135.6,27.1c8.1,20.5,10.4,43.2,19.8,63.1c8.9,19.8,22.5,36.4,33.3,55c-0.5,0.4-1,0.8-1.6,1   c2.2,4,3.7,8.9,7.2,12.1c4.5,4.4,3.3,10.9,7.5,15.7c10,3.9,20.9,5.7,30.9,9.7c1.7,0.8,3.5,1.7,5.5,0.7c4.1-0.1,17,2.5,19.5-0.9   c-1.6-0.3-2.8-0.4-4.1-0.3c-0.6-0.8-1.4-0.8-2.3-0.9c-4.1-4-19.8-4.3-20.3-9.7c7.6,3.2,16.8,3.4,23.4,8.3c1.3,0,2.5,0,3.6,0   c0.5,0.3,1,0.7,1.5,1c0.1,1,0.1,2,0.2,3.1c5.2,1.4,9.7-1.8,14.9-1c3.4,0.6,6.7-0.6,9.8-2.1c-6.7-3-13.8-6.7-21-8.7   c-4.7-1.2-10-1.3-13.2-5.5c1.1-0.2,1.7-0.5,2.1-0.3c6.2,3,13.7,2,19.3,6.2c3.1,1.8,8.7,1.3,10.5,4.7c2.7,1,4.9,1.9,7.6,2.9   c0.2-0.1,0.8-0.3,2-0.7c-1.9-0.6-2.4-1.6-2.7-2.9c-10.5-4.2-20.6-9.4-30.4-14.8c-8.7-8.6-30.1-1.3-35.4-14   c-0.7,0.1-1.3,0.2-1.8,0.2c-5.1-16.1-13.9-31.3-18.9-47.6c-3.9-18.1,1.8-37.1-5.8-54.4c0.3-0.3,0.6-0.6,0.9-0.8   c2.9,2.2,3.2,6,4.2,9.1c15.2,3.6,30.5,0.9,45.5,3.3c9.8,1.1,26.7-8.1,31.5,3.1c-0.2,0.8-1,0.7-1.6,0.9c-8.8-5.1-18.9-1.1-28.5,0.2   c-3.7,35.4,44.3,32.2,65.3,19.6c-0.5-0.6-0.8-0.9-1.1-1.3c20.4-8,32.8-24.3,47.1-39.6c0.3,0.3,0.7,0.7,1,1   c-7.4,15.4-18.7,31.1-35.8,36.4c-11.1,8.6-24.1,14.2-38,16.7c-18.7-0.9-50.6-6.7-42.7-32.4c-9.1-0.2-18.4,2.7-26.6-1.5   c-3.4,29.5,0,83.7,42.5,73.9c-8-3.6-20-11.4-18.2-21.4c0.6,0.1,1.1,0.2,1.6,0.3c7.2,21.5,34.6,21.1,53.5,20.6   c9.9-3.6,17.3-13.4,26.2-18.6c-2.4,5.2-7.3,7.8-11.2,12.2c16.8,1.8,32.6-8.6,40.1-23c0.9-0.4,1.2-1.1,1.3-2.1   c-1.2-0.2-1.7,0.5-1.9,1.4c-1.3,1-2.1,2.8-4.4,3c0.7-2.4,3-3.2,3.9-5.3c-18.3,3-7.1-19.2-0.5-26c6.9-11.3,11.7-23.7,18.7-35   c6.5-16.3,2.9-36.4-8-50.2c0.8-1.2,1.4-2.2,2.2-3.3c-14.1-1.4-27.8,0.3-41.8,2.2c0,0.1,0,0.3,0,0.4   C708.6,227.6,735.8,238.2,718.5,274.1z M454.6,273.2c-3.3,3-4.8,5.3-5.1,8c2.7-4.6,6.5-7.7,8.6-12.3c-0.2-0.5-0.4-0.9-0.5-1.2   c18.3-16,40.6-30.3,65.4-34.2c-5.1-7.5-12.7-11.9-20.9-15.2c-9.7-3.7-18.7-10.2-29.1-11.2c-0.2-0.6-0.3-1.3-0.5-2.1   c-4.2-0.7-8.3-1.6-13.1-1.2c3.2,4,14.3,4.1,13.9,9c-2.4-0.5-4.7-2.3-7.4-0.5c-27.7-15-60.9-6.3-88,5.8c-5,7.1-13.9,9.6-21.8,11.9   c-14.4,38.6-25.3,56.9-2.1,96.1c-0.2,0.6-0.4,1.2-0.6,1.7c6.4,12,56.7-1.6,71.2-1.2c3.8-27,9-36.4,29.3-54.9   C454.4,271.8,454.6,272.5,454.6,273.2z M500.2,243.8c-1.7,0.5-3.4,1.1-4.5,1.4c-8.5,11-24,13.4-32.8,25   c-14.3,16.2-39.5,33-33.2,57.4c10.3,6.8,23.2,4.5,34.7,5.4c-0.2,0.5-0.4,0.9-0.7,1.4c-1.2,0.3-2.8-0.1-3.8,1.3   c22.5,6.9,42.1,21.6,65.9,23.9c-20.5-30.8-32.1-65.5-37.2-102c6.5-8.4,6.2-10.2,16.2-15.3C502.8,242.5,501.4,242.9,500.2,243.8z    M573,345.9c-5.5-16.3-6.2-33.3-3.1-50.1c-3.7,0-7-1.7-10.9-1.5c2.6,12.3,0.1,24.7,1.6,37.1c3.9,13.3,10.1,25.8,15.6,38.5   c3.8,0,7.3,0,11.3,0C581.1,363,576.8,354.6,573,345.9z M261,243c1.4,0.2,2.7,0.4,3.9-1.3c-2.1,0.1-3.5-0.4-5.5-0.8   c-0.5,0.4-1,0.8-1.4,1.2c-2.2-0.4-4.4-0.8-7.3-1.3c1.9-0.4,3.1-0.6,4.4-0.9c-19-7.3-40.1-10.9-60.4-8.3c0,0.1,0,0.3-0.1,0.4   C218.9,242,233.4,252.2,261,243z M97.8,281.9c-2.3-1.2-2.3-1.2-3.5-3.2c-5.5-0.6-10.9-1.8-16.5-0.3c-0.4,7.5-3.3,9.2-9.5,12   c3.9,6.3-1.6,11.5-1,17.7c-0.1,9.2,12.9,13,10.6,20.1c0.9,1.1,1.7,2.1,2.5,3c5.9,0.5,12.2,2.2,16.9-2.3c2.6-1.4,5.3-3.8,3.1-6.9   c-2-2.9-4.5-6.2-2.3-9.8c-2-5.6,0.2-11.7,0.5-17.5c-5.5-1.7-1.7-4.8,2.2-4.2c0.2-0.8,0.4-1.5,0.6-2.1c-2.8-1-8.7-0.8-5.8-5.2   c2.3-0.8,7.1,2.7,7.8-0.2C101.3,282.6,99.7,282.3,97.8,281.9z M122.7,220.3c-13.5-4.5-28.8-2.9-42.1-8.1c-3-2-6.5-0.7-9.5,0.8   c-2.9,6.2-7.4,11.5-8,18.8c15.6,2.5,31.1,0.4,46.8-0.5C111.7,225.3,117.3,222.5,122.7,220.3z M122.9,224.4c-5.5,1-7.3,2.3-9.1,6.5   c3.7-1.2,7-0.1,10.6-0.7c-0.1-2,2-1.3,2.8-2.4c-1.5-0.6-3-1.3-4.4-1.9C122.8,225.4,122.9,225.1,122.9,224.4z M65,294.5   c-0.7,1.1-0.6,2.1-0.1,3.3C65.5,296.6,65.6,295.6,65,294.5z M839.6,181.4c0,0.1,0,0.2,0,0.3c0.4-0.1,0.8-0.1,1.3-0.2   c0-0.1,0-0.2,0-0.4C840.4,181.3,840,181.4,839.6,181.4z M708.8,335.8c0.4-0.4,0.8-0.7,1.4-1.3C708.4,334.6,708.4,334.6,708.8,335.8   z M104.3,279c-0.3-0.1-0.7-0.5-0.9,0C103.7,279.5,103.9,279.4,104.3,279z M662.5,368.4c0.2-0.1,0.4-0.1,0.6-0.2   c-0.2-0.5-0.5-0.4-0.9-0.2C662.2,368.1,662.3,368.3,662.5,368.4z" />
	<path fill="#F6D9C7" d="M821.1,342.9l-0.2,0.1c-0.8-0.3-1.4-0.7-2.3-1.1c-1.9,1.3-3.7,2.6-5.5,3.8c-3.8-0.8-5.9-2.8-9.5-3.8   c-0.1,1.4-0.7,3.6,1.4,3.3l0,0c-0.3,3.4-4.2-0.1-5.7-0.4c-5.2,0.8-9.6,3.5-14.8,1.4c-7-11-7.1-34.5,1.8-44.5c0.7,0,1.4-0.6,2.1,0.5   c2.7,1.2,6-6,9-7.3c0.6,0,1-0.5,1.5-0.8c0.7,0.2,1.6-0.2,2.3,0.8c0.2,2.8-0.2,5.9,0.3,9.6c1.1-8,1.9-15.9,6.8-22.7   c0.3,0.5,0.5,1,0.8,1.5c-3.1,13,3.3,24.7,8,36c2.3-2.3-0.1-5.4-0.4-8.1c3.9-3.3,6.8-7.2,9.1-11.7c16.5-14.8,4.5,1.4,1.8,8.7l0,0   c-1.2,0.3-1.7,1.1-1.6,2.3c-1,2.3-3.6,4-3.5,6.2c1.4-0.7,2-2,2.7-3.1c9.7-2.3,17.2-10.1,23.9-17.1c0.9,0.2,0.8,0.9,0.8,1.5   c-1.4,2.6-4.2,4.1-3.7,7.4c4-3.4,5.9-8,9.1-12c1.4,3.2,1.3,6.5,5.8,7.3c-0.6,1.4,0.2,3,0.5,4.4c-0.5,0.6-0.9,1.2-1.3,1.8   c1.6,1.3,2.7-0.3,4.2-0.4c1.3,0.5,3,0.6,4,1.7c0,0.3,0,0.6,0,0.9c-0.8-0.1-1.5-0.2-1.5,1.1c2.8,2.2,7,2.4,9.9,0.1   c0.3,0.3,0.7,0.7,1,1c-6.3,9.5-16.6,16.1-28.4,15.6c-1.9-0.3-3.6,0.3-4.9,1.6c-7.2,4-8.8,13.3-15,17.6c-3.7-1-5.5-4.1-8.1-6.8   C819.8,340.3,820.6,341.6,821.1,342.9z M836.3,318c-1.1-0.9-2.4-1.2-4.6-1.4c4.1,2.8,6.3,7.5,10.6,9.1   C843.9,322.2,839,319.2,836.3,318z M827,328.9c2.3,1.2,8,3.8,8.4-0.2c-3.1-2.9-8.4-2.8-10.4-7.2c-0.1-0.1-0.4-0.1-0.9-0.2   C823.4,324.5,825.7,326.5,827,328.9z" />
	<path fill="#020202" d="M821.1,342.9c-0.5-1.3-1.4-2.6,0.4-3.6c2.5,2.7,4.3,5.9,8.1,6.8c7.2-4.8,9.4-18.9,20-19.2   c11.8,0.5,22.1-6.1,28.4-15.6c20.4-15.9,22.5-44.8,13.1-67.4c0.1-0.7,0-1.3-0.7-1.7c-2.2-8.8-6.8-16-13.3-22.2   c0.2-1,1.1-0.7,1.7-0.9c16.9,8.4,27.2,57,17.6,73c-3.8,9-10.3,15.8-17,22.7c-6.4,11.8-20.9,14.9-33.1,16.8   C836.3,336.4,833.5,359.5,821.1,342.9z" />
	<path fill="#020202" d="M862.3,194.1c0,1.9,0.1,3.8,0.1,5.7c-0.8,1.2-0.8,1.2,0,3.2c0-1.5,0-2.3,0-3.2c0.3,0,0.7,0.1,1,0.1   c-0.1,0.9-0.3,1.8-0.4,2.7c0.3,0.3,0.7,0.7,1.2,1.3c-0.6,2.5-1.3,5.3-0.8,7.8c3.2,1.5,6.2,2.9,9.2,4.3c1,3.6,4.6,5.3,6.1,8.6   c-0.3,0.3-0.6,0.6-0.9,0.9c-4.3-3.1-7.2-7.7-12.3-9.3c-0.6-1.1-1.3-0.9-2.3-0.2c0.1,2.9,0.2,6.6,2.2,8.8c0,0.2,0,0.5,0.1,0.7   c-0.2,0.9-0.2,1.8,0.6,2.5c6.8,21.6,2.9,44.7-9.9,63.3c-0.3-0.3-0.6-0.6-0.9-0.9C876.1,250.9,855.6,231,862.3,194.1z" />
	<path fill="#040404" d="M779.5,333.8c1.1,4.4,3.1,8.3,5,12.5c7.5,2.9,15-5,21.5,2.3c0.6-0.5,0.9-0.8,1.4-1.3   c-1.4-1.3-2.6-2.3-3.9-3.5c0-0.6,0.1-1.2,0.1-1.8c3.6,1,5.7,3,9.5,3.8c1.8-1.2,3.6-2.5,5.5-3.8c0.8,0.4,1.5,0.7,2.1,1   c-0.3,0.1-0.4,0.3-0.3,0.6c-2.9,4.2-8.9,4.3-12.9,6.8c-2.7,1.7-5-1.2-7.3-2.6c-3.5,2.5-7,4-11.2,5.1c-12-5.5-11.2-18.8-15-29.2   c1.6-0.5,1.5,1.1,2.4,2c0.1-1.4,0.1-2.5,0.2-3.7C777.5,326,777.3,330,779.5,333.8z" />
	<path fill="#0D0B0A" d="M737.8,318.9c0.9-0.5,1.7-0.9,2.6-1.4c2.3,8.1-0.1,16.2,2.3,24.6c2.5,0.7,5.2,1,6.9,2.9   c7.3,0.8,14.1,1.4,20.8,4.1c0.1,0.5,0.2,0.9,0.4,1.5c-8.7-0.8-18.3-2.3-26.6-4.7c0.3-1.9-1.8-1.4-1,0.1c-0.3,0.3-0.7,0.6-1.2,1   c-0.7-1.7-1.4-2.7-2.9-3.4c1.5-8.2-0.7-16.1,0.1-24.4C738.5,319,738.2,318.9,737.8,318.9z" />
	<path fill="#110C0C" d="M768.7,350.7c0.7-0.1,1.4-0.1,2.1-0.2c-0.2-0.6-0.3-1.1-0.4-1.5c13.7,5.8,28.6,6.8,43.1,9.7   c0.1,2.3-0.7,3.7-2.8,4.4c-0.3-0.9-1.1-0.8-1.7-0.9c0.5-0.9,2.1-0.5,2-2c-8.2,0.4-18.3-5.2-25.1-1.8c-1.3-0.2-2.7-0.5-4-0.7   c0.9-0.1,1.8-0.2,2.8-0.3c-1.2-0.3-2.5-1.2-3.4,0.3c-1.6,0-3.3,0.2-4.7-0.7c2.6,0.1,4.9-1.1,7.6-1c0-0.1,0-0.2,0-0.3   C778.7,354.7,773.7,352.8,768.7,350.7z" />
	<path fill="#54443E" d="M876.2,220.7c-1.7-1.2-3.1-2.8-3.7-4.9c2.3,0.7,4.3,1.9,6.2,3.2c-0.6,0.2-1.5-0.1-1.7,0.9   C876.8,220.2,876.5,220.5,876.2,220.7z" />
	<path fill="#4E3D3C" d="M794.3,203.7c0.2,1.9-1.9,2.4-3.3,3C791.1,204.7,793.1,204.7,794.3,203.7z" />
	<path fill="#5C4D4D" d="M62.2,222.2c0.2,1.1,0,4.6-1.6,2.5C61.4,224,61.8,223.1,62.2,222.2z" />
	<path fill="#F6D9C7" d="M819.9,344.4c0.2-0.3,0.4-0.6,0.5-0.9C820.3,343.8,820.1,344.1,819.9,344.4z" />
	<path fill="#F6D9C7" d="M660.3,321.2c-16.9,7.3-51.8,9.3-54.5-14.7c8.8,5.1,18.4,5.4,28.2,6.6c0.1,1.7,0.2,3.2,0.3,4.9   c1.5,0.1,2.7,0.1,3.7,0.2c2.5-1.6,3.9-3.7,4.9-5.8c4.3-1.2,3.3-7.4,1.7-10.5c-2.1-2.3-0.2-5.8-2.1-8c-10.9-14.7-30-8.3-45.2-8.2   c-11.6-2.5-24.6,1.8-35.7-3c-1.9,0.1-3.8,0-5.6,0.8c-1.7-1.4-2.5-3.8-4.7-4.1c10.3,17.3,3.1,38,7.4,56.9   c5,16.3,13.7,31.5,18.8,47.6c0.5-0.1,1.1-0.1,1.8-0.2c5.3,12.7,26.7,5.5,35.4,14c9.8,5.3,19.9,10.5,30.4,14.8   c0.3,1.2,0.8,2.3,2.7,2.9c-1.2,0.4-1.8,0.6-2,0.7c-2.6-1-4.9-1.9-7.6-2.9c-1.8-3.4-7.5-2.9-10.5-4.7c-5.7-4.2-13.1-3.2-19.3-6.2   c-0.4-0.2-1.1,0.1-2.1,0.3c3.2,4.1,8.5,4.3,13.2,5.5c7.2,2,14.3,5.7,21,8.7c-3.5,2.1-7.8,1.1-11.6,1.3c-1.5-2.9-3.9-4.2-7-3.8   c-9.1-1.9-17.6-8.5-27.4-8.4c-0.6,1.5,0.6,1.9,1.2,2.7c-1.9,2.6-6.1-0.9-8.7-1.1c-1,3.4,11,5.7,14,6.9c2.2,0.7,4.5,1.2,6.3,2.8   c0.4,1.2,1.4,0.9,2.3,0.9c-0.5,0.5-1,1-1.5,1.6c-5.6,0.5-10.6-2.9-15.8-4.6c-11.1-4.3-24.8-4.2-32.2-14.8   c-1-20.5-22.8-43.3-32.8-61c1-2.9,0-4.5-1.2-6.9c0.3-1.3-0.7-2.7-2.1-2c0.2,1.1,0.4,2,0.7,3.8c-11.3-18.1-16.3-38.6-22.2-58.6   c-1.7-6.2,7-14.3,5.5-19.9c-4.1-0.4-6.5,8-8,6.3c0.4-1.1,0.8-2.3,1.2-3.4l0,0c1.1-0.2,2.1-3.7,0.2-3.7c-0.2,0.3-0.5,0.6-0.7,0.9   l0,0c-0.8-1.4-2-2.7-2.6-4.2c40.4-20.1,89.5-20.8,133.3-16.4c2.3,1.2,2.9-2.7,5.2-2.1c0.2,0.5,0.5,1,0.8,1.6   c6.5-1,13.3,3.4,19.4,2.4c-3.8-5.1-13.1-0.7-17.7-4.7c4.9-2.4,9.8,0.8,14.8-0.4c13.9-4.7,28.1-0.6,41.9-1.1c4.9,0.9,9.6,3,12.9,6.5   c0.8-0.1,1.4-0.2,2.1-0.3c9.9,7.4,7.9,21.4,7.9,32.3c-0.9,0.9-0.7,2.1-0.6,3.2c-0.1,0.2-0.2,0.4-0.2,0.7   c-16.3,21.6-30.4,36.4-57.1,46C660.4,319.9,660.4,320.6,660.3,321.2z M508.7,286.4c-0.3-1.6,0-3.5-1.9-4.5   c-1.2,1.6,0.9,6.5,2.3,7.4C510,288,509,287.3,508.7,286.4z M597,258.6c-1.5,0-2.9,0.3-4.2,1.6c1.9,0.5,1.9,0.5,5.1-0.6   c1.9,0,3.8-0.1,5.4-1.5c0-0.6,0.1-1.2-0.5-1.7C600.8,256.2,598.9,258,597,258.6z M549.5,278.8c0.4-2.5-0.6-3.5-3.2-3.6   C547.1,276.6,547.5,278.4,549.5,278.8z M582.3,262c3,0.6,3,0.6,3.7-0.8C584.8,260.4,583.7,260.6,582.3,262z M509.6,293.7   c0.5,1.3,0.8,2.4,2.5,2.9c-0.5-1.5-0.8-2.5-1.1-3.7C510.4,293.2,510.1,293.4,509.6,293.7z M543.6,273c-1-2-1-2-2.8-1.8   C541.4,272.2,541.8,273.2,543.6,273z M578.7,261.6c-1.8,0.1-2.8,0.2-4.2,0.3C576.5,263.3,576.5,263.3,578.7,261.6z M522.1,323   c-0.2,1.3-0.1,2.1,1.1,2.6C523.8,324.4,523.5,323.6,522.1,323z" />
	<path fill="#F6D9C7" d="M43,247.8c4.2-5.2,7.3-11,12.5-15.3c4.3,1.9,9,1,13,3.5c8.7,2.9,18.2-0.1,27.2,0c15.3,0.4,31-0.4,46-3.1   c29.5-2.6,58.3,3.3,84.6,16.5c-0.3,0.2-0.5,0.5-0.8,0.7c-2.7,0-5.4,0.1-8.1,0.1c0,0.2,0,0.3-0.1,0.5c2.7,0.7,5.3,1.3,8,1.8   c5.9,3.3,16.4,3.1,22.3-0.3c-0.1-0.7-0.2-1.3-0.3-2c32.6-10.4,67.3-12.2,101.2-16.6c-6.9,18.1-12.7,37.7-11.2,57.6   c1.4,18.4,8.2,16-8.3,16.1c-17.1-1.7-34.1-7.1-51.3-6.8c-9.1,0.9-17.7-6.4-26.5-3.9c-11.9-6.6-26-14.3-39.5-13.9l0,0   c-3.1-6.6-14.6-0.9-20.2-2.8c-45.3,0.3-95.4-26.2-139.2-5.8C47.7,266.3,38.7,257.2,43,247.8z M49.1,260.1c1.7,1,1.7,1,3.7,0.3   c-0.8-0.4-1.5-0.7-2.2-1c-0.5-1.2-1.3-2.4-0.7-3.9c15-2.4,30.9-2.8,46.2-5.4c1.3,0.1,3.4,0,3-1.9C86,243.4,72.4,245.4,59,245   C50,242.9,42.2,253.5,49.1,260.1z M210.3,247.5c0.9,1.6,2.4,1.6,3.6-0.2C212.6,246.6,211.5,246.7,210.3,247.5z M202.3,244.4   c1.6,0.4,1.6,0.4,2.3-0.6C203.6,243,202.8,243.2,202.3,244.4z" />
	<path fill="#FF9A77" d="M453.6,271.6c-11.7,11.6-25.1,23.7-26.8,41.2c-10.5-2.9-20.7-3.3-31.6-3.3c-0.7-7.4,0.5-14.1-0.5-21.5   c-4.1,5.4,0.1,15.2-3,21.3c-0.2,0-0.3-0.1-0.5-0.1c0-10,0-20,0-30.1c-4,9.3-0.1,20.5-1.9,30.5c-1.5-0.1-2.8-0.1-4.3-0.2   c0-5.1,0-10,0-15c-3.4,4.1-1.7,10-2.6,14.8c-12.2-0.6-24.8-2.7-36.9-1.1c-12.9-26.8,1.2-52.6,10.4-78.1c7.9-2.3,16.8-4.9,21.8-11.9   c27.2-12.1,60.4-20.8,88-5.8c2.7-1.8,5,0,7.4,0.5c0.5-4.9-10.7-5-13.9-9c4.8-0.4,8.9,0.5,13.1,1.2c0.2,0.8,0.4,1.5,0.5,2.1   c10.4,1,19.4,7.5,29.1,11.2c8.3,3.3,15.9,7.7,20.9,15.2C496.3,237.9,472.5,253.4,453.6,271.6z M386.2,258.5c10.1,0,20.1,2.8,30,2.3   c1.1-0.9,1.9-1.7,2.5-2.2c-3.2-23.1-22.7-19.8-36.1-6.5C382.4,255.1,384.1,256.8,386.2,258.5z M401.7,296.4   c2.2-1.7,1.6-3.7,2.4-5.3c1-3.1,3.2-6.4,2-9.8C402.2,285.2,402.5,290.9,401.7,296.4z M376.7,276.8c-1.9,3.3-4.6,7.2-3.8,11   c1.4,0.1,1.7-1,2.6-1.7C375.3,282.8,377.4,280,376.7,276.8z M475.9,215.5c2,1.7,3.4,2.7,5.1,3.6   C482.3,217.1,478.1,213.5,475.9,215.5z M488.4,223.8c1.2,1.4,2.3,1.9,3.8,1.3C490.4,222.7,490.4,222.7,488.4,223.8z" />
	<path fill="#FFF0A7" d="M719,273.2c15.8-34.7-9.4-45.1-39.2-47.2c-0.1-0.2-0.1-0.5,0-0.7c13.2-2.2,26.3-3.3,39.8-2.1   c-0.7,1.1-1.4,2.1-2.2,3.3c10.9,13.7,14.5,33.8,8,50.2c-6.9,11.3-11.8,23.8-18.7,35c-6.6,6.8-17.9,29,0.5,26   c-0.9,2.1-3.2,2.9-3.9,5.3c2.3-0.2,3.1-2,4.4-3c0.2,0.2,0.4,0.4,0.6,0.6c-6.2,11.7-14.7,20.7-28.7,15.4c-2.3-0.6-1.1-2.7-0.2-4.5   c-1.9,0.2-2.4,1.1-3.6,2.3c-11.3-1.3-20,7.5-31.1,8.5c-16.4-0.8-34.9-5.2-43.3-21c-1.6-2.4-3.1-4.9-5.9-6.2   c-0.1,2.8-0.2,5.2-0.3,7.6c-0.9,0.1-3.6,1.1-2.3,1.9c-4.6,1.8-10.3-0.4-14.7,3.1c-8.9-15.4-4.1-34.1-4.4-51.1   c4.6,2.1,9.2,3.1,14.2,3.1c2.9,3.6,6.9,5.5,11.1,7c2.4,20.7,27.7,22.1,44,23.8c13.9-2.5,26.9-8.2,38-16.7   C699.9,307.9,711.2,290,719,273.2z M685,348.5c-1.6-0.4-2.5,0.1-3,1.8C683.8,351,684.2,349.7,685,348.5z M592,336.6   c-0.8,0.7-1.6,2.6-0.1,3C592.7,338.8,593.6,337,592,336.6z" />
	<path fill="#F6D9C7" d="M749.4,271.6c-2.2,0-4.3,0-6.7,0c-0.1,0.4-0.2,0.8-0.3,1.2c10.7,3.8,21.6-2,27.1-11.2   c1.2,0.5,0.6,1.7,0.9,2.5c-2.6,11.7-5.4,24.6-17.1,30.5c0.2,0.6,0.3,1.1,0.5,1.6c14.6-7.9,26.7-23,33.7-38.4   c1.1,0.6,0.5,1.7,0.9,2.5c-1.8,10.5-4.3,20.9-5.6,31.5c-6.8-2.7-14.9,6.2-19.4,10.9c-0.2,0-0.4,0.1-0.6,0.1   c-7.9,8.1-20.1,8.3-28.8,15.1c-7.3,7.9-19.8,8-26.5,16.4c-29.4,1.5,53.5-63,14.3-106.1c0.2-3.2,4-1.7,5.1-4.5   c15.4,0.3,33.4-2.4,47.2,5.3c-10.6,6.6-27.1,16.2-34.7,0.7c2.3,13,18.8,14.1,29.4,15.1c-8.6,5.7-20.7,1.2-29.4-1.4   c6.9,6.9,17.6,7.9,26.8,5.8c-1.2,2-1.6,3.7-3,5.2c-5.3,0.1-10.1,4.1-16,2.7c-0.2,0-0.5,0.6-1,1.1c5.4,1,10.3,1.6,14.8-1.9   c-1.4,4-6.3,5.6-7.8,9.8c-5.7,1.5-10.5,1.8-16.6,1.1c4.7,3.5,9.8,1.6,14.4,3.7l-0.1,0C750.3,270.8,749.7,270.9,749.4,271.6z    M770.4,287.3c4.4-4.3,11.1-8.9,12.7-14.6c-4.7,5.8-10.5,10.6-15.5,16C768.9,289,769.7,288.3,770.4,287.3z M751.5,300   c-0.6-0.7-1.6-0.6-1.9,0.2C749.4,301.6,751.7,301.4,751.5,300z M758.6,302.2c-0.6-1.2-0.6-1.2-2.1-0.6   C757.1,302.7,757.1,302.7,758.6,302.2z" />
	<path fill="#F7EFD0" d="M47.5,295.6c-1.6,0.3-3.2,0.6-4.5,1.9c0.9,2.5,3.4,1.8,5.3,2.9c0.3,0.5,0.5,1,0.8,1.4   c-0.9,0.5-1.7,0.9-2.9,1.6c3.2,4.2,13.1,2.9,15.9-0.8c0,0,0,0,0,0c0.3,0,0.5,0.1,0.8,0.1c0.1,0.5,0,1,0.1,1.5   c-1.1,0.9-1.8,1.7-1.5,3.1c-4.1,0.7-9.7-0.5-12.6,3.1c1.8,1.2,3.7,0.9,5.6,1.6c0.3,0.5,0.5,1,0.8,1.4c-0.2,0.4-0.4,0.7-0.6,1.1   c3.5-0.2,8.4,2.5,6.8-3.3c0.5-0.2,0.9-0.4,1.6-0.7c1.6,4.8,4.8,8,7.8,11.7c-0.1,0.7-0.2,1.3-0.3,2.1c0.8,1.4,1.8,2.9,2.7,4.6   c-1.6,4.4-4.2,12.2-10.2,8.3c-9.4-5.4-23.4-1.1-31-9.5c-0.1-1.4-0.2-2.7-0.3-4.2c-3.4-3.4-7.8-6.9-9.7-11.3c1.9-11.1,2.1-22,3-33.2   c-1.9-9.6-13.1-14.6-15.2-24.6c-3.7-12.5,1.7-32.3,13.5-37.4c12.5-0.2,19.1,9.5,29.8,8.5c2-0.3,2.1-0.2,5.4,1.7   c-0.5,1-1.1,2-1.7,3.2c-8.7-2.6-14.6,12.1-15.7,18.9c-8.5,3.6,2,17,5.6,22c-0.7,4.3,5.1,7.5,7.1,11.1c5.9,3.6,13.6-3.6,19.8-4.1   c-1.3,12-20.6,9.9-29.7,11.4c-1.4,2.1,1.5,4.1,3.3,4.4C47.5,294.7,47.5,295.2,47.5,295.6z" />
	<path fill="#E1C7B6" d="M52.2,274.1c43.8-20.5,93.8,6.1,139.2,5.7c5.7,1.9,17.1-3.8,20.2,2.8c-2.4,0.8-4.5,2.2-6.9,3.6   c3.2,1.6,16.2,8.1,18.6,5.6c0.3,0,0.5,0,0.8-0.1c2.7,1.9,2.7,1.9,4.5,1.2c-0.4-1.3-2.5-1.5-3.7-1.8c-1.3-0.9-1.3-0.9-1.5,0.7   c-1-1-1.6-2.5-3.3-2.4c-0.4-2.3-0.7-2.4-3.7-2c0.3,0.5,0.6,0.9,0.9,1.2c-2.4-0.2-3.4-3-5.4-4.6c0-0.3,0-0.9-0.1-1.6   c13.6-0.3,27.6,7.3,39.5,13.9c8.8-2.5,17.4,4.8,26.5,3.9c20.8-1.2,42.2,9.6,62.5,6c2.9,8.6,6.5,16.8,10.5,24.8   c-41.2-0.3-80.1-16.7-115.8-35.5c-0.5-1.5-3.4-0.2-1.5,0.7c2.1,1.2,4.8,2.1,6.1,4.3c-3.2,1.1-8.6-2-12.5-2.3   c-0.5,0.3-1,0.7-1.7,1.1c-22.5-10.7-46.3-15.2-71.2-16.3c-30.9-6.6-63.3-14.1-94.9-7.6c0,0.8,0,1.5,0,2.5c-0.8,0.3-1.6,0.5-2.4,0.8   C55.2,277.2,53.7,275.6,52.2,274.1z" />
	<path fill="#F6D9C7" d="M429.8,314.2c6.6-24,40.4-53.6,62.6-64.2c0.3,0.3,0.6,0.6,0.9,0.9c-1.4,2-2,5-4.6,6.7   c4.8,27.4,10.6,56.2,24.6,80.8c-0.1,0.3-0.2,0.7-0.3,1.4c-6.9-4.4-14.2-7.1-21.1-11c3.3-3.4,6.4-5.6,10.7-7.7   c-7.3-6.4-18.2-1.3-27.1-4c-15.5-1.3-30.5,8.5-45.5,0.7C429.9,316.5,429.8,315.3,429.8,314.2z" />
	<path fill="#E1C7B6" d="M429.8,314.2c0.1,1.1,0.1,2.3,0.2,3.5c15.1,7.9,30.1-1.9,45.5-0.7c8.9,2.8,19.8-2.3,27.1,4   c-4.3,2.1-7.4,4.4-10.7,7.7c7,3.9,14.2,6.6,21.1,11c0.2-0.7,0.3-1,0.3-1.4c4.7,7,8.6,13.5,12.6,21.2c-23.8-2.3-43.4-16.9-65.9-23.9   c2.3-2.8,5.6,0.4,7.7-2.8C454.3,332.2,420.4,336.8,429.8,314.2z M468.6,331.7c0.7,3.6,5.4,1.8,7.6,0.7c-0.9-1.2-1.8-0.3-2.5-0.5   C471.9,331.8,470.5,331.9,468.6,331.7z M481.5,330.5c-1.4-1.6-1.5-1.6-2.3-0.1C480,330.4,480.6,330.4,481.5,330.5z" />
	<path fill="#EF8A6A" d="M345.5,308.1c12.1-1.5,24.7,0.5,36.9,1.1c0.9-4.8-0.8-10.7,2.6-14.8c0,5.1,0,9.9,0,15   c1.5,0.1,2.7,0.1,4.3,0.2c1.8-10-2.1-21.2,1.9-30.5c0,10,0,20,0,30.1c0.2,0,0.3,0.1,0.5,0.1c3-6.1-1.1-15.9,3-21.3   c1.1,7.3-0.2,14.1,0.5,21.5c10.9,0,21.1,0.3,31.6,3.3c0.5,4.9-1.4,9-2.4,13.7c-14.3-0.3-64.9,13.3-71.2,1.2   c0.2-0.6,0.4-1.1,0.6-1.7C350.1,320.4,346.7,314.8,345.5,308.1z" />
	<path fill="#E1C7B6" d="M532.7,348.4c2.6,4.2,7.7,7.5,8.5,12.5c-2-2.3-3.4-5-5.8-6.9c-1,0.8,6.4,11.1,7.3,10.2c0-0.4,0-0.7,0-1.1   c5.1,8,18.9,28.1,17,37.1c11,13.1,30.4,12.3,45.1,19.5c-16.3,1.3-31.6-6.7-47.3-10.9c-4.2-4.8-2.9-11.3-7.5-15.7   c-1.8-2-3.6-4-4.3-6.7c6.9-1.6-25.1-38.5-26.8-46.7c-15.1-23.7-18.1-51.8-27.6-77.7c1.4-4.3,3.3-7.3,6.4-10.4   c0.5,1.5,1.8,2.8,2.6,4.2c0.2,0.9-0.7,2.1,0.5,2.8c-0.4,1.2-0.8,2.3-1.2,3.4c1.5,1.7,4-6.8,8-6.3c1.5,5.6-7.3,13.8-5.5,19.9   c6,20,10.9,40.5,22.2,58.6c-0.3-1.8-0.5-2.7-0.7-3.8c1.3-0.7,2.4,0.7,2.1,2c-1.5,0.8-1.1,5.3,1,4.7c0-0.8,0-1.7,0-2.6   c1.3,1.4,0.5,2.8,0.3,4.7c1,1.6,2.9,3.9,3.5,6.1c-0.4,0.1-0.9,0.2-1.3,0.3c1.6,3.1,2.7,4.4,3.5,3.9   C532.6,349.1,532.7,348.7,532.7,348.4z M548.1,375.5c-2-3.3-2-3.3-3.9-4.5c0.7,1.9,8.9,17.6,10.4,14.6   C552.9,382,550.6,378.7,548.1,375.5z M500.8,272.3c0.2-3.4,0.8-6.2-1.1-9.1C497.6,266.3,498.5,269.4,500.8,272.3z" />
	<path fill="#E1C7B6" d="M555.8,283.4c1.8-0.7,3.7-0.6,5.6-0.8c11.1,4.8,24.2,0.5,35.7,3c15.3-0.1,34.4-6.5,45.2,8.2   c2,2.2,0.1,5.7,2.1,8c1.7,3.2,2.6,9.3-1.7,10.5c-0.9,2.1-2.3,4.2-4.9,5.8c-1,0-2.2-0.1-3.7-0.2c-0.1-1.7-0.2-3.2-0.3-4.9   c-9.8-1.2-19.4-1.4-28.2-6.6c-0.1,0.9-0.2,1.7-0.3,2.4c-1.5-3.6-1.1-7.5-0.7-11.4c10.8-1.5,22.6-6.1,31.7,2.1   c-0.5-2.8-4.8-9.3-7.8-8.6c-8.5,0-16.8,2.1-25.3,2.3c-15-2.4-30.3,0.3-45.5-3.3C557.2,288,556.5,285.7,555.8,283.4z M633.2,303.5   c0,0.6,0.1,1.2,0.1,1.5c-0.7,0.9-1.1,1.6-1.6,2.2c0.9,1.6,1.7,3,2.7,4.9c1.5-2.6-0.1-4.5,0.4-7.2c0.3-0.9,0.2-1.8-0.4-2.5   C633.9,301.9,632.3,302.6,633.2,303.5z" />
	<path fill="#F7EFD0" d="M95.5,283.3c-2.8,4.4,3.1,4.2,5.8,5.2c-0.1,0.5-0.3,1.2-0.6,2.1c-3.9-0.6-7.7,2.5-2.2,4.2   c-0.3,5.8-2.4,11.9-0.5,17.5c-4,6.2,8.9,12.7-0.8,16.7c-8.2-1-14.4-8-22.7-8.6c-14.5-12.4-1.5-18.3-6.3-30.1   c6.2-2.8,9.1-4.5,9.5-12c5.6-1.6,11.1-0.4,16.5,0.3c1.2,2,1.2,2,3.5,3.2C96.9,282.3,96.2,282.7,95.5,283.3z" />
	<path fill="#F6D9C7" d="M781.8,357.7c5.8,0.9,10.2,4.4,16.2,5.8c-3.9,1.4-8.6,0.6-12.5-0.6c-5.3-0.5-10.7,1.9-15.9-0.8   c-6.5-5.6-14.8-1.2-21.9-5.4c-0.4,0.3-0.9,0.7-1.5,1.2c4.7,3,10.6,5.2,15.9,2.5c1.4,0.7,2.7,1.4,4.1,2.1c0,1.5,0,2.7,0,4.1   c-2.8,2-5.8,1.4-8.6,0.1c-6.6-2.6-13.6,2.1-20.5,0.1c-2.5-3.8-8.8-4.5-10-9.4c-2.6-9-4.8-18.7-4-27.8c5.8-2.6,10-6.8,14.8-10.8   c0.4,0.1,0.7,0.2,1.3,0.3c-0.8,8.3,1.4,16.2-0.1,24.4c1.5,0.7,2.3,1.7,2.9,3.4c0.5-0.4,0.9-0.7,1.2-1c0.3,0,0.6-0.1,1-0.1   c9.7,3.3,22.9,2.9,32.3,8c-0.5,0.3-1.1,0.6-1.6,0.8c-0.5-0.1-0.9-0.2-1.4-0.2c-0.6-0.9-1.5-0.7-2.4-0.6c-1.7,0-4.6-2.7-5.4-0.2   C770.1,356.5,776.5,357.2,781.8,357.7z" />
	<path fill="#EBDA8F" d="M593,343.6c0.7-0.7,1.2-0.8,2.3-1c0.1-2.3,0.2-4.7,0.3-7.6c16.9,19.7,21.3,25.4,49.2,27.1   c11.1-0.9,19.8-9.7,31.1-8.5c-6.9,5.8-14.3,12.8-22.6,16.3c-18.8,0.5-46.3,0.9-53.5-20.6c-0.5-0.1-1.1-0.2-1.6-0.3   c-2.1,9.9,9.3,15.6,15.9,20.8c0,0.3,0,0.6,0,0.9c-18.6,4.1-30.3-6-35.7-23.2c4.5-3.7,10.5-1,15-3.3c1.4,0.6,0.9,3.1,3.4,3   c0.4-2.1-1.4-3.5-3.4-3.4C593.2,343.8,593.1,343.7,593,343.6z" />
	<path fill="#EBDDB8" d="M13.4,226.7c-4.3,10.3-7.4,22.7-1,33c2.9,7.6,11.8,11.3,12.8,19.5c-0.9,11.1-1.2,22.1-3,33.2   c1.9,4.4,6.3,7.9,9.7,11.3c0.1,1.5,0.2,2.8,0.3,4.2c4.5,5.8,13.4,5,20,6.6c5.4-0.5,9.7,3.1,14.6,3.9c-19.4,8.3-46.3-4.1-54.3-23.8   c1.6-7.7,0.7-16.9,4.6-23.8c2.9-6.3,1.6-14.4-3.2-19.5C1.6,260.7-0.2,237,13.4,226.7z" />
	<path fill="#FAE4C3" d="M862.3,194.1c-3.6,7.5-0.9,16.8-3,24.3c-3-10.1-7-20-2.4-30.2c-6.4,4.8-11.5,12.5-13.5,19.8   c3.1-3.6,5.1-8.9,8.2-12.8c2.1,1.7,0.3,6.4,0.9,9.1c0.1,1.2-0.9,1.7-1.5,2.4c-0.5,1.5,0.4,3.1-0.8,4.3c-0.5,0.4-1.3-0.5-1.6,0.5   c-14.7,13.5-13.9,35.5-26.8,50.3c2.7-18.7,11.1-36.4,16.5-54.2c-11.9,14.3-15.3,33.6-22.2,50.4c2-20.7,14.2-38.3,21-57.5   c0.4,0,0.7,0,1.1,0c3.5-6.4,9.6-16.7,17.7-13.8c0.7-1.4-0.6-2-1.2-2.9c1.7-2.3,5-0.1,6.4,1.4C863.3,187.4,861.9,191.1,862.3,194.1z   " />
	<path fill="#F7EFD0" d="M122.7,220.3c-5.4,2.2-11.1,5-12.8,11c-15.6,0.9-31.2,3.1-46.8,0.5c0.6-7.3,5.1-12.6,8-18.8   c3-1.4,6.4-2.8,9.5-0.8C93.9,217.4,109.2,215.8,122.7,220.3z" />
	<path fill="#F5D9C7" d="M709.8,204.5c19.4-4.3,37.8,8.6,55,16.2c-0.2,0.9-1.1,0.6-1.6,0.8c-18.5-2.8-37.1-3-55.8-4   c0.3-3.1,0.4-5.8,0.3-8.9c0.4-1.5,2.6-2.2,2.1-4.2C709.9,204.4,709.8,204.5,709.8,204.5z" />
	<path fill="#F5D8C6" d="M196.2,231.5c19.8-2.5,40.4,1.3,59,8.4c-1.3,0.2-2.5,0.5-4.4,0.9c2.9,0.5,5.1,0.9,7.3,1.3   c0.5-0.4,1-0.8,1.4-1.2c1.3,0.3,2.5,0.5,3.8,0.8c-25,11.5-44.7,0.9-67.3-9.3C196,232.1,196.1,231.8,196.2,231.5z M242,238.7   c1.7,0.5,3,2.2,5.1,1.1C245.3,238.3,244.8,238.2,242,238.7z M235.7,237.5c-1.2,0.2-1.7,0.3-2.4,0.4   C234.1,239.1,234.7,239.2,235.7,237.5z" />
	<path fill="#F9E3C2" d="M835.9,194.3c1.8-1.8,3.6-3.7,5.4-5.5c0.4,0.4,0.7,0.7,1.1,1.1c0,0.2-0.1,0.4,0,0.7   c-7.4,8.7-11.6,24-21,29.4c0-1.5,1.6-2.6,1.3-4.2c-4.7,3.1-5.3,11.6-8.3,16.6c-0.5-0.5-1.1-1-1.7-1.5c3-10.7,9.2-19.6,13-29.8   c-10.3,7.8-14,21.6-21.1,31.4c-0.4-17.6,15.1-30.5,25.1-43.4c0.9-0.1,0.9-0.8,0.9-1.5c0.2-0.3,0.4-0.6,0.7-0.9l-0.1,0.1   c1-0.1,0.9-0.9,0.9-1.6c3.2-1.9,6.4-2.2,10.1-1.7c-2.6,3.8-5.8,6.2-7.8,10.3c0,0,0,0,0,0c-0.2,0.5-0.8,0.9-0.9,1.4   c-2.2,2.5-3.5,5.5-4.6,8.6c0.5,0.3,0.7,0.5,1.2,0.8C832.4,201.1,833.4,197.2,835.9,194.3z" />
	<path fill="#D7C0A0" d="M788.3,260.4c-0.4-0.8,0.3-2-0.9-2.5c2-8.5,5.3-18.5,4.9-26.9c-5.8,14.2-7.7,31.7-18.9,43.9   c-0.3-0.3-0.6-0.6-0.9-0.9c8.1-18.8,14.7-62,28.7-72.7c0.1,1.1,0.3,2,1.6,2.2c2.2-1,2.4-4.7,5.6-3.6c-3.8,5.6-7.3,11.3-9.6,17.6   l0,0C793.1,231,793.3,246.6,788.3,260.4z" />
	<path fill="#E1C7B6" d="M763.4,302.7c4.4-4.6,12.6-13.6,19.4-10.9c-0.2,5.5-0.3,11.4-3.1,16.2c-0.7-0.3-1.4-0.7-2.2-1.1   c-0.4,1.1-1.3,2.2-0.1,3.4c2.1,0.5,3.1-1,4.7-2.3c-2.2,8.3-1.9,17-2.4,25.6c-2.3-4.2-2.4-8.7-3-13.3c0.5-1.6-1.1-1.5-2.2-1.7   c-6.6-9.1-18.9-6.3-28.8-6.8c5.8-2.4,12.7-4.3,17.2-9.2c-0.4,1.5,1.1,1.5,2.2,1.4c2.1,1.2,4,2.6,6.3,2.9c1.9-3-4.2-3.9-6.3-3.6   C764.4,303.3,763.9,303,763.4,302.7z M775.6,313.8c0.1,1.5,0.1,2,0.2,2.7C777.2,315.9,777.2,315.9,775.6,313.8z" />
	<path fill="#F5D8C6" d="M566.8,348.3c-9.8-16.9-4.9-35.7-7.8-54c3.8-0.2,7.1,1.5,10.9,1.5c-3,16.8-2.3,33.9,3.1,50.1   c-0.1,0.5-0.2,0.9-0.3,1.3C570.6,347.6,568.7,348,566.8,348.3z" />
	<path fill="#DFC5B4" d="M566.8,348.3c1.9-0.4,3.8-0.7,5.9-1.1c0.1-0.4,0.2-0.8,0.3-1.3c3.8,8.7,8,17.1,14.5,23.9c-4,0-7.5,0-11.3,0   C573.4,362.5,569.3,355.8,566.8,348.3z" />
	<path fill="#E0C6B5" d="M723,329.7c-0.8,9.2,1.4,18.8,4,27.8c1.2,4.9,7.5,5.6,10,9.4c-18.7-0.5-15.8-20.8-19.2-33.8   C719.3,331.6,721,330.4,723,329.7z" />
	<path fill="#D4BE9F" d="M801.4,216.1c3.7-7.6,8.6-14.3,14.5-20.3c0.4,5.4-9,9.4-6,14.9c-5,8-8.6,16.5-11.6,25.4   c-0.6-0.4-1.1-0.8-1.7-1.2c-0.8-4.7,1.2-8.9,2.4-13.3c0,0,0,0,0,0C799.8,219.7,800.5,217.9,801.4,216.1z" />
	<path fill="#D2BC9D" d="M764.9,254.7c4.6-5.2,7.9-11.2,11.5-17.1c1.3,0.4,0.6,1.6,0.9,2.5c-1,4.6-2.4,9.1-4,13.7   c-0.7-0.9-1.1-1.5-2-2.6c1.3,7.8-8.2,11.2-14.1,13.7c-0.4-0.1-0.8-0.3-1.1-0.3C759.3,261.3,762.1,258.1,764.9,254.7z" />
	<path fill="#E9DBB6" d="M74.5,320.5c8.3,0.6,14.6,7.5,22.7,8.6c-4.7,4.6-11,2.8-16.9,2.3c-0.8-0.9-1.6-1.9-2.5-3   C79.6,324.9,76.6,322.8,74.5,320.5z" />
	<path fill="#E8D78D" d="M678.3,353.9c0.1,3.4,10.3,3.4,13.3,3.8c-7.1,4.3-14.5,7.3-23.4,5.9C671.7,360.2,675,357.1,678.3,353.9z" />
	<path fill="#F5DFBF" d="M809.9,210.7c-3-5.5,6.4-9.5,6-14.9c3.6-4.3,8.4-7.2,13.3-9.9C824.7,194.6,815.7,202.2,809.9,210.7z" />
	<path fill="#0D0D0B" d="M59,304.9c-4.2,0.7-9.8,2.6-12.7-1.5c2.2-1.6,3.8-1.1,5.8-3c-2.2,0-3.7,0.3-5.5-0.7c4.1,0.3,8-0.7,12.1-0.8   c1.2,0.7,2.4,1.5,3.7,2.2l-0.1-0.1c0,0.5,0,1,0,1.5c0,0,0,0,0,0C61.5,303.8,60.2,304.4,59,304.9z" />
	<path fill="#E6D98F" d="M599.3,306.5c-4.2-1.5-8.3-3.3-11.1-7c-2-0.2-4.3,0.7-5.8-0.8c6-0.3,11.9-0.5,18.2-0.8   C600,300.9,599.3,303.6,599.3,306.5z" />
	<path fill="#DDC7B7" d="M790.6,357.5c6.8,0.4,13.5,2.3,20.3,2.7c0.1,1.5-1.6,1.1-2,2c-6.4,2-13.2-2.3-19.9-3.9   C789.5,358,790,357.8,790.6,357.5z" />
	<path fill="#E3CAB9" d="M122.9,224.4c0,0.6-0.1,1-0.1,1.6c1.4,0.6,2.9,1.2,4.4,1.9c-0.8,1.1-2.9,0.3-2.8,2.4   c-3.6,0.6-6.9-0.5-10.6,0.7C115.6,226.7,117.4,225.4,122.9,224.4z" />
	<path fill="#D8C3B3" d="M593.7,409.5c0.7-0.2,1.5-0.1,1.8-1.1c6.6,1.5,13.6,2.4,19.3,6.4c-0.3,0.3-0.6,0.6-0.9,0.8   c-1.1,0-2.3,0-3.6,0C605.8,411.5,599,412.1,593.7,409.5z" />
	<path fill="#D6BCAC" d="M613.8,415.7c0.3-0.3,0.6-0.6,0.9-0.8c3.8,2.4,8,2.4,12.2,2.2c0-0.6,0.1-1,0.1-1.4c0.5,0.7,0.9,1.4,1.6,2.3   c2.7,0,5.6,0,8.5,0c-2.1,1.1-4.5,1-6.7,0.8c-5.2-0.8-9.7,2.4-14.9,1c-0.1-1.1-0.1-2.1-0.2-3.1C614.9,416.4,614.4,416.1,613.8,415.7   z" />
	<path fill="#2D2A27" d="M247.4,250.2c0.1,0.6,0.2,1.2,0.3,2c-4.4,3.1-11.5,3-16.8,1.9c0-0.3,0-0.5,0-0.8c2.8-1.4,5.9-0.3,8.6-1.6   l0.3,0.1l0.3-0.1c1.2,0.1,2.4,0,3.7-0.2c-0.4-0.6-0.5-0.9-0.7-1.2C244.6,250.2,246,250.2,247.4,250.2z" />
	<path fill="#E6D5B6" d="M808.5,199.9c-3.2-1.1-3.4,2.6-5.6,3.6c-1.3-0.2-1.6-1.1-1.6-2.2c3.5-3.1,7.4-5.6,11.5-7.9   c0.3,0.3,0.6,0.6,1,1C811.9,196.2,810.2,198,808.5,199.9z" />
	<path fill="#DBCDAF" d="M842.4,189.9c-0.4-0.4-0.7-0.7-1.1-1.1c1.9-2.7,4.6-4.6,7.1-6.9c2.8,0,5.5-0.6,8.2,0.7   c-0.7,0.2-1.5,0.1-1.9,1c-4.9-1.1-8.8,2.5-11.6,6.1C842.8,189.8,842.6,189.8,842.4,189.9z" />
	<path fill="#231F1A" d="M799,221.5c-1.2,4.4-3.2,8.6-2.4,13.3c0.6,0.4,1.1,0.8,1.7,1.2c-2-0.2-1.7,1.8-1.7,3.2   c-2.3-1.9,0.7-6.6-1.6-8.5c0.3-3.9,1.3-7.5,3-11C798.2,220.4,798.1,221.2,799,221.5z" />
	<path fill="#7F6E5C" d="M762.5,257.8c-2.1,2.3-4.1,4.5-6.3,6.8c0.2,0.1,0.6,0.2,1.1,0.3c-1.2,0.9-2.6,1.3-4.1,1.3   c1.9-4.6,7.3-6.6,8.6-11.6c0.4,0,0.9-0.1,1.3-0.1c-0.2,0.6-0.4,1.1-0.6,1.7C761.8,256.7,761.5,257.2,762.5,257.8z" />
	<path fill="#3F3534" d="M660.3,321.2c0.1-0.6,0.1-1.2,0.2-2c2.8-1.3,5.5-2.7,8.5-3.3c0.3,0.4,0.6,0.7,1.1,1.3   C667,318.8,663.7,320.5,660.3,321.2z" />
	<path fill="#B4A58A" d="M765.7,236.9c2.9-1.2,5.9-2.5,8.8-3.7c0.9,3.2-4.1,4-6.3,4.6C767.3,237.5,766.1,238.2,765.7,236.9z" />
	<path fill="#908676" d="M771,240.7c-4.2,2.3-10.4,0.4-15.2-0.7c0.3-0.4,0.4-0.6,0.6-0.9c4.4,0.8,8.8,1.9,13.2,1   C769.7,240.9,770.4,240.7,771,240.7z" />
	<path fill="#38332B" d="M834.6,195.9c-1.3,2.8-2.7,5.6-4.3,8.4c-0.5-0.3-0.8-0.5-1.2-0.8c1.1-3.1,2.4-6.1,4.6-8.6   C833.9,195.3,834.2,195.6,834.6,195.9z" />
	<path fill="#5E6C5E" d="M47.5,295.6c0-0.5,0-0.9,0-1.4c5.1,0.4,9.7-1,14.7-1.4C57.8,295.9,52.5,295.3,47.5,295.6z" />
	<path fill="#A8998C" d="M493.3,250.8c-0.3-0.3-0.6-0.6-0.9-0.9c1-1.4,2-2.8,3.4-4.7c1.1-0.3,2.8-0.9,4.5-1.4   c0.2,0.2,0.4,0.5,0.7,0.7C497.5,245.6,495.9,248.7,493.3,250.8z" />
	<path fill="#F6D9C7" d="M240.2,251.6l-0.3,0.1c-3.9-0.7-7.6,2-11.4,0l0,0c1.9-2.1,5.4,0.4,7.1-1.7c1,0,2.1,0,3.1,0   C239.2,250.5,239.7,251.1,240.2,251.6z" />
	<path fill="#99917A" d="M751.1,271c-1.2-0.9-2.6-0.9-4-0.9c3.5-1,7.3-0.9,10.8-2.4c0.3,0.3,0.5,0.5,0.8,0.8   C756.2,269.6,753.8,271,751.1,271z" />
	<path fill="#544A40" d="M825.2,192c1.1-2,4.2-3.8,3.9-6.1c0.4-1.1,1.4-0.9,2.2-0.9c0,0.5-0.1,1-0.1,1.5l0.1-0.1   c-1.5,2.4-3.4,4.4-5.3,6.4C825.8,192.6,825.5,192.3,825.2,192z" />
	<path fill="#1E1615" d="M453.6,271.6c1.3-1.3,2.6-2.6,3.9-3.9c0.2,0.3,0.3,0.7,0.5,1.2c-0.4,2.1-2.3,3.4-3.5,5.2   C454.5,273.2,454.8,271.9,453.6,271.6z" />
	<path fill="#A3957D" d="M777.3,240.1c-0.3-0.8,0.4-2-0.9-2.5c0.8-1.8,1.6-3.5,2.5-5.3c0.3,0.3,0.6,0.5,0.9,0.8   C779,235.5,778.2,237.8,777.3,240.1z" />
	<path fill="#302621" d="M761.1,239.9c-1.6-0.3-3.2-0.5-4.8-0.8c0-0.2,0.1-0.4,0.1-0.6c0,0,0,0,0,0c2.1-0.3,4.2-0.6,6.3-0.7   c0.4,1.2,1.5,0.5,2.3,0.8C763.9,239.7,762.3,238.9,761.1,239.9z" />
	<path fill="#2E2725" d="M544.5,379.9c1.2,1.3,4.3,5.1,2.2,6.2c-0.9-2-2.2-3.7-3.8-5.2C543.5,380.6,544,380.3,544.5,379.9z" />
	<path fill="#E8C4B4" d="M235.6,250c-1.6,2.1-5.2-0.4-7.1,1.7c-1-0.1-1.9-0.7-2.9-1c0-0.2-0.1-0.4-0.1-0.6c0.3-0.2,0.5-0.5,0.8-0.7   C229.3,250.4,232.4,249.8,235.6,250z" />
	<path fill="#989380" d="M95.5,283.3c0.7-0.5,1.5-1,2.3-1.4c1.9,0.4,3.5,0.8,5.5,1.1C102.6,285.9,97.8,282.4,95.5,283.3z" />
	<path fill="#3B3E3E" d="M454.6,273.2c0,0.3,0,0.6,0,0.9c-1.6,2.3-3.3,4.5-5.1,7.1C449.7,278.4,451.3,276.1,454.6,273.2z" />
	<path fill="#604F4A" d="M744.1,246.9c-1.9-0.5-3.4-1.6-4.7-3.3c2.5-0.5,4.5,2.1,7,2.6C745.7,246.5,744.6,245.8,744.1,246.9z" />
	<path fill="#42443E" d="M41.3,249.3c-0.2-1.2-0.3-2.3,0.7-3.2c0.2,0.6,0,1.5,1,1.7c-1.9,2.7-0.7,6.1-0.9,9.2   C40.6,254.8,41.6,251.9,41.3,249.3z" />
	<path fill="#C7B1A3" d="M641.8,234.6c-1.6,0-3.3,0-4.8,0c-0.3-0.6-0.5-1.1-0.8-1.6c0.7-0.8,1.5-0.8,2.5-0.6c0.8,1.1,2,1.3,3.2,1.6   C641.9,234.1,641.9,234.4,641.8,234.6z" />
	<path fill="#B0A799" d="M607.8,419.5c0.5-0.5,1-1,1.5-1.6c1.3-0.2,2.5-0.1,4.1,0.2C611.7,420.5,609.8,420.1,607.8,419.5z" />
	<path fill="#BBBDA5" d="M55.2,313.4c-0.3-0.5-0.5-1-0.8-1.4c1.5-0.1,3-0.1,4.6-0.2c0.3,0.2,0.5,0.5,0.8,0.7   C58.3,313.1,56.9,313.9,55.2,313.4z" />
	<path fill="#E8C4B4" d="M240.2,251.6c-0.5-0.5-1-1-1.5-1.6c1.5,0.1,3,0.1,4.5,0.2c0.2,0.3,0.4,0.6,0.7,1.2   C242.6,251.6,241.4,251.7,240.2,251.6z" />
	<path fill="#B3BFA7" d="M62.3,301.2c-1.2-0.7-2.4-1.5-3.7-2.2c1.2-0.9,2.7-1.3,3.5,0.2c-0.1,0.2-0.1,0.4,0.1,0.5   C62.2,300.1,62.3,300.6,62.3,301.2z" />
	<path fill="#5C605E" d="M543.6,381.6c1.5,1.2,2.3,2.8,3.1,4.5c-0.3,0.1-0.6,0.1-0.9,0.2C544.6,384.9,543.8,383.4,543.6,381.6z" />
	<path fill="#898773" d="M813.7,194.4c-0.3-0.3-0.6-0.6-1-1c1-1.2,2.3-1.7,4.3-2.3C815.8,192.7,815,193.8,813.7,194.4z" />
	<path fill="#847662" d="M764.9,238.6c-0.8-0.3-1.9,0.3-2.3-0.8c1-0.3,2-0.6,3-0.8c0.5,1.2,1.6,0.6,2.4,0.9   C767.2,238.8,766,238.3,764.9,238.6z" />
	<path fill="#291E19" d="M791.2,233c-0.1-0.9,0.1-1.8,1.2-2.1c0.6,2.1,0.6,2.1-0.3,5.3C792,235,792.1,233.9,791.2,233z" />
	<path fill="#423E32" d="M718.5,274.1c-0.5,1.1-1,2.1-1.5,3.2c-0.3-0.3-0.7-0.7-1-1c0.5-1,1.1-2.1,1.6-3.1   C717.9,273.5,718.2,273.8,718.5,274.1z" />
	<path fill="#544D41" d="M779.8,233.1c-0.3-0.3-0.6-0.5-0.9-0.8c0.5-1.1,0.7-2.3,2.1-3C781.3,231,780.7,232.1,779.8,233.1z" />
	<path fill="#7F6F66" d="M464.5,333c1,0,2-0.1,3.2-0.1c-1.1,1.8-2.5,1.6-3.9,1.5C464,333.9,464.3,333.4,464.5,333z" />
	<path fill="#3C3E39" d="M500.9,244.5c-0.2-0.2-0.4-0.5-0.7-0.7c1.2-0.9,2.6-1.3,4.7-1.6C503.4,243.7,502.2,244.2,500.9,244.5z" />
	<path fill="#B8AD96" d="M770.4,264.1c-0.3-0.8,0.3-2-0.9-2.5c0.3-1,1.1-1.6,2.2-2.1C771.4,261.2,771.4,262.7,770.4,264.1z" />
	<path fill="#4B4B3E" d="M758.6,268.6c-0.3-0.3-0.5-0.5-0.8-0.8c1-0.9,2.3-1,4-1.6C760.9,267.9,759.7,268.2,758.6,268.6z" />
	<path fill="#69635B" d="M634.8,296.5c1,0.6,1.4,1.5,1.6,3.1c-1.3-0.9-2.2-1.6-3.1-2.3C633.8,297.2,634.6,297.4,634.8,296.5z" />
	<path fill="#47332F" d="M743.2,237c-0.5-0.5-1.1-1-1.6-1.5c0.3-0.3,0.7-0.7,1-1c0.7,0.6,1.5,1.1,2.2,1.7   C744.1,236.3,743.4,236.1,743.2,237z" />
	<path fill="#58433D" d="M261,243c1.4-0.8,2.2-1.6,3.9-1.3C263.7,243.4,262.3,243.2,261,243z" />
	<path fill="#332D25" d="M762.5,256.2c0.3-0.9,0.6-1.9,1.4-2.5c0.3,0.3,0.6,0.7,1,1c-0.8,0.8-1.5,1.7-2.3,2.5   C762.6,256.9,762.6,256.6,762.5,256.2z" />
	<path fill="#8A7C67" d="M772.5,273.9c0.3,0.3,0.6,0.6,0.9,0.9c-0.5,0.8-1.1,1.5-2.1,2.9C771.2,275.8,771.6,274.8,772.5,273.9z" />
	<path fill="#79675F" d="M552.7,281.9c-0.5-0.8-1-1.6-1.6-2.6c1.5,0.3,1.5,0.3,2.5,1.7C553.3,281.3,553,281.6,552.7,281.9z" />
	<path fill="#86756F" d="M763.3,221.5c0.5-0.3,1.4,0.1,1.6-0.8c0.6,0.3,1.3,0.6,2,1C765.1,222.4,765.1,222.4,763.3,221.5z" />
	<path fill="#7C645C" d="M803.6,363c0.5,0,1.1,0,1.6,0.1c-0.5,0.8-0.9,1.5-2.1,1.3C802.6,363.7,803,363.3,803.6,363z" />
	<path fill="#9D978A" d="M790.6,357.5c-0.5,0.3-1.1,0.5-1.6,0.8c-0.5-0.2-1.1-0.4-1.6-0.7C788.2,356.2,789.4,357.2,790.6,357.5z" />
	<path fill="#49463D" d="M65,294.5c0.6,1.1,0.5,2.1-0.1,3.3C64.4,296.6,64.2,295.5,65,294.5z" />
	<path fill="#536161" d="M708.3,340.6c-0.2-0.2-0.4-0.4-0.6-0.6c0.2-0.9,0.7-1.6,1.9-1.4C709.5,339.4,709.2,340.2,708.3,340.6z" />
	<path fill="#7F8271" d="M59.8,312.5c-0.3-0.2-0.5-0.5-0.8-0.7c0.7-0.7,1.6-0.7,2.5-0.6c0,0.5,0,0.9,0,1.4   C61,312.6,60.4,312.6,59.8,312.5z" />
	<path fill="#614743" d="M774.3,318.8c1.1,0.3,2.6,0.2,2.2,1.7C775.4,320.4,774.4,320.1,774.3,318.8z" />
	<path fill="#423E32" d="M717.8,272.5c-0.1-1.1-0.2-2.2,0.6-3.2C718.4,270.5,719,271.7,717.8,272.5z" />
	<path fill="#463934" d="M233.3,296.4c-1.9-0.9,1-2.2,1.5-0.7C234.4,295.9,233.8,296.1,233.3,296.4z" />
	<path fill="#2D2A27" d="M251.1,249.3c-0.9,0.8-2,0.8-3.1,0.8C248.7,248.7,250,249.4,251.1,249.3z" />
	<path fill="#0D0D0B" d="M62.1,299.1c-0.5-0.7-1.2-1.2-2.2-0.9C60.5,296.4,62.8,297.6,62.1,299.1z" />
	<path fill="#484B44" d="M679.8,225.3c-0.1,0.2-0.1,0.5,0,0.7c-0.7,0-1.3-0.1-2-0.1c0-0.1,0-0.3,0-0.4   C678.5,225.4,679.1,225.4,679.8,225.3z" />
	<path fill="#F9E3C2" d="M839.6,181.4c0.4-0.1,0.8-0.1,1.3-0.2c0,0.1,0,0.2,0,0.4c-0.4,0.1-0.8,0.1-1.3,0.2   C839.6,181.7,839.6,181.6,839.6,181.4z" />
	<path fill="#B7B69E" d="M61.5,307.3c0.1-0.8-0.4-1.8,0.8-2.3C62.2,305.8,62.8,307.4,61.5,307.3z" />
	<path fill="#AFCECE" d="M708.8,335.8c-0.4-1.2-0.4-1.2,1.4-1.3C709.6,335.1,709.2,335.4,708.8,335.8z" />
	<path fill="#B0A799" d="M609.3,418c-0.9,0.1-1.8,0.3-2.3-0.9C607.9,417.1,608.8,417.1,609.3,418z" />
	<path fill="#E1C7B6" d="M340,305.8c-1.2-0.6-0.7-1.6-0.6-2.6C340.1,303.9,340.2,304.8,340,305.8z" />
	<path fill="#302621" d="M757.1,237.6c0.5-0.2,1.1-0.5,1.6-0.7C758.4,237.8,757.8,237.8,757.1,237.6z" />
	<path fill="#809A95" d="M196.2,231.5c-0.1,0.3-0.1,0.6-0.2,0.8c-0.4-0.1-0.8-0.2-1.3-0.4c0-0.1,0-0.3,0.1-0.4   C195.2,231.6,195.7,231.6,196.2,231.5z" />
	<path fill="#231F1A" d="M799.7,219.9c-0.2,0.5-0.4,1.1-0.7,1.6C798.9,220.8,798.9,220.2,799.7,219.9z" />
	<path fill="#231F1A" d="M801.4,216.1c-0.3,0.6-0.5,1.1-0.8,1.7C800.5,217,800.4,216.3,801.4,216.1z" />
	<path fill="#231F1A" d="M798.9,217.5c0.2-0.6,0.5-1.1,0.7-1.7C799.7,216.5,799.8,217.3,798.9,217.5z" />
	<path fill="#231F1A" d="M799.8,215.3c0.2-0.5,0.5-1,0.7-1.5C800.6,214.4,800.5,215,799.8,215.3z" />
	<path fill="#38332B" d="M834.5,193.5c0.3-0.5,0.6-1,0.9-1.5C835.4,192.8,835.3,193.4,834.5,193.5z" />
	<path fill="#F5DFBF" d="M831.3,186.5c0-0.5,0.1-1,0.1-1.5c0.3,0,0.5-0.1,0.8-0.1C832.2,185.7,832.3,186.4,831.3,186.5z" />
	<path fill="#0D0D0B" d="M62.3,301.2c0-0.5,0-1.1,0-1.6c0.8,0.2,0.8,0.9,0.8,1.5l-0.2,0.2C62.6,301.2,62.4,301.2,62.3,301.2   L62.3,301.2z" />
	<path fill="#99917A" d="M749.4,271.6c0.4-0.7,0.9-0.8,1.6-0.6C750.6,271.7,750,271.8,749.4,271.6z" />
	<path fill="#0D0D0B" d="M63.1,301.1c0.8,0.4,0.7,1.1,0.6,1.9c-0.2-0.1-0.4-0.2-0.7-0.2c-0.1-0.5-0.1-1-0.1-1.5L63.1,301.1z" />
	<path fill="#B7B69E" d="M63,302.7c0.2,0,0.5,0.1,0.7,0.2c-0.1,0.5,0.3,1.2-0.6,1.2C63,303.7,63,303.2,63,302.7z" />
	<path fill="#94A08C" d="M104.3,279c-0.4,0.4-0.6,0.5-0.9,0C103.6,278.6,103.9,278.9,104.3,279z" />
	<path fill="#231F1A" d="M798.2,219.1c0.2-0.5,0.4-1.1,0.7-1.6C799,218.2,799,218.8,798.2,219.1z" />
	<path fill="#C7DDD2" d="M771,240.7c-0.6,0-1.2,0.2-1.4-0.7C770.1,240,771,239.4,771,240.7z" />
	<path fill="#7B9494" d="M662.5,368.4c-0.1-0.1-0.2-0.3-0.3-0.4c0.4-0.2,0.7-0.3,0.9,0.2C662.9,368.3,662.7,368.3,662.5,368.4z" />
	<path fill="#87A8A3" d="M614.1,370.8c0-0.3,0-0.6,0-0.9c0.5,0.1,1,0.2,2.3,0.6C615,370.6,614.5,370.7,614.1,370.8z" />
	<path fill="#302621" d="M754.6,238.3c0.5-0.6,1.1-0.7,1.8-0.6c0,0.2,0,0.5,0,0.7c0,0,0,0,0,0C755.8,238.4,755.2,238.4,754.6,238.3z   " />
	<path fill="#463934" d="M235.5,295.9c0.3,0.2,0.6,0.3,0.9,0.5C236.1,296.2,235.8,296.1,235.5,295.9z" />
	<path fill="#B7B69E" d="M62.2,305c0.2-0.3,0.5-0.5,0.7-0.8C62.7,304.5,62.5,304.7,62.2,305z" />
	<path fill="#38332B" d="M833.9,194.4c0.2-0.3,0.4-0.6,0.6-0.9C834.3,193.8,834.1,194.1,833.9,194.4z" />
	<path fill="#463934" d="M236.4,297.9c-0.3-0.2-0.6-0.3-0.9-0.5C235.8,297.5,236.1,297.7,236.4,297.9z" />
	<path fill="#38332B" d="M835.9,194.3c-0.2,0.2-0.4,0.5-0.6,0.7C835.5,194.8,835.7,194.6,835.9,194.3z" />
	<path fill="#38332B" d="M835.2,195.1c-0.2,0.3-0.4,0.6-0.7,0.8C834.8,195.7,835,195.4,835.2,195.1z" />
	<path fill="#463934" d="M237.1,296.6c0.3,0.2,0.7,0.3,1,0.5C237.7,297,237.4,296.8,237.1,296.6z" />
	<path fill="#B8AD96" d="M769.5,261.6c-0.3,0.3-0.5,0.5-0.8,0.8C768.9,262.1,769.2,261.9,769.5,261.6z" />
	<path fill="#423E32" d="M719,273.2c-0.2,0.3-0.3,0.6-0.5,0.9C718.7,273.8,718.9,273.5,719,273.2z" />
	<path fill="#231F1A" d="M800.4,218.3c-0.2,0.3-0.3,0.7-0.5,1C800,219,800.2,218.7,800.4,218.3z" />
	<path fill="#463934" d="M234.8,297.1c-0.3-0.2-0.6-0.3-1-0.5C234.2,296.8,234.5,297,234.8,297.1z" />
	<path fill="#D7C0A0" d="M859.2,218.4c2.7-5.1-1.2-13.4,1.7-18.6c-2.3,27.2,11.6,54.3-1.7,80.4c-0.3-0.3-0.5-0.5-0.8-0.8   c1-3.3,1.4-11.7-3.5-6.6c-1,7-2.7,12.5-6.5,18.2c0,0,0,0,0,0c-0.6,0.7-1.1,1.5-1.7,2.3c0,0,0,0,0,0c-0.2,0.3-0.5,0.6-0.7,0.9   c0,0,0,0,0,0c-0.3,0.3-0.5,0.6-0.8,0.8c0,0,0,0,0,0c-5.1,3.4-12,13.3-17.7,13.3c0.3-2.5,2.7-4.7,3.8-7.1c0,0.5,0.1,0.9,0.2,1.5   C852.1,280.5,867,249,859.2,218.4z" />
	<path fill="#070605" d="M798.1,294.9c-1.2,0-1.7,1.4-2.7,1.8c-0.3-0.3-0.7-0.6-1-0.9c7.1-8.6,14.5-18.4,13.3-30.1   c0.9,1.9,0.6,3.1,0.8,5.6c3.7-4.6,2.6-10.3,4.5-15.7c1.9-1-0.4-3.6,1.6-4.6c1.5,5.7,0.4,10.9-0.7,16.8c0.9-0.9,1.6-1.5,2.3-2.1   c-2.8,8.5-5.5,16.7-5.6,25.7c0.3,0.1,0.5,0.2,0.8,0.3c2.5-11.7,7-22.5,13.9-32.2c0.3,0.3,0.6,0.6,1,1c-6.2,12.3-15,27.1-13.3,40.8   c0,6,7.5,12.3,4.2,18.2c-4.7-11.3-11.1-22.9-8-36c1.2-1,0.7-2.2,0.5-4C806.8,285.5,802.5,290.1,798.1,294.9z" />
	<path fill="#D5BF9F" d="M860.9,302c0.1-0.5,0.2-0.9,0.3-1.2c-1-0.4-1.8-0.7-2.7-1c0.1-0.1,0.2-0.2,0.3-0.3   c5.5,2.2,9.6-3.3,13.2-6.4c5.8-1.5,6.8-8.4,9.7-12.8c0.6,3.6-3.3,7.7-1.7,10.9c-0.4,0.9-0.9,1.7-1.3,2.6c3.8,1.1,7.8-15.5,9.9-18.9   c0.3,0.3,0.5,0.6,0.8,0.9c-1.2,12.6-9.8,22.7-17.7,31.9c-1.9-0.6-3.3-1.4-4.9-2.7c3-3.2,7.2-4.1,8.8-8.1c-4.1,2-7,4.6-11.1,6.8   C863.3,303.1,862.5,301.2,860.9,302z" />
	<path fill="#D5BE9F" d="M816.7,311.2c-1.3-3.4-3.8-6.4-3.8-10.1c5.5-4.6,10.4-10.3,13.2-17l0,0c2.6-4.3,3-9,6.4-12.8   c-0.5,2.3-0.7,3.7-1,5.3c0.4-0.1,0.6-0.2,0.8-0.3c2.1,3.5-3.9,11.7-4.7,16.1c-2.2,5.4-7.8,9.5-7.7,15.6   C818.8,309.1,817.8,310.2,816.7,311.2z" />
	<path fill="#050504" d="M796.6,239.2c0-0.7,0-1.5,0-2.2c1.5,0.8,0.2,2.4,1,3.3c0.4-0.2,0.7-0.4,1.1-0.6c0.3,1.6,0.3,2.6-0.6,3.8   c0,1.9,0.1,3.9-0.1,5.8c-2.4,4.6,0.9,11.7-1.5,16.2c-0.3-2.2,0.4-4.3-0.5-6.4c-2.6,17.1-2.7,37.6-16.1,50.5c-2.3,0,0.6-2.8,0.7-3.9   C793.4,287.2,791.7,260.7,796.6,239.2z" />
	<path fill="#0B0A08" d="M858.5,271.8c2,15-11.9,29.4-23.7,37.2c-0.3-0.3-0.7-0.6-1-0.9c3.8-3.1,9.4-7.5,11.5-11   c-0.2-0.5-0.5-0.9-0.7-1.4c0,0,0,0,0,0c0.3-0.3,0.5-0.5,0.8-0.8c0,0,0,0,0,0c0.3-0.3,0.5-0.6,0.8-0.8c0,0,0,0,0,0   c0.2-0.3,0.5-0.6,0.7-0.9c0,0,0,0,0,0c0.9,0,0.9-0.7,1-1.4c0.2-0.3,0.5-0.6,0.7-0.9c0,0,0,0,0,0c0.5,0.2,0.9,0.4,1.5,0.5   c4.9-5.6,7.4-13.1,7.2-20.5C857.7,270.8,858,271.5,858.5,271.8z" />
	<path fill="#C8B496" d="M895.8,266.2c3.4,16.7-5,34.5-17.8,45.1c-0.3-0.3-0.7-0.7-1-1c8.7-9.3,16.5-20.9,17.9-33.8   C896.9,273.9,895.2,269.4,895.8,266.2z" />
	<path fill="#0E0C0A" d="M890.2,291.1c-4,7.4-9.1,18.9-17.7,20.8c6.6-6.7,12-14.3,16.9-22.4C890.3,289.6,890.2,290.4,890.2,291.1z" />
	<path fill="#0D0A09" d="M827,328.9c-1.3-2.4-3.7-4.4-2.8-7.6c0.4,0.1,0.8,0.1,0.9,0.2c2,4.4,7.3,4.3,10.4,7.2   C835,332.7,829.4,330.1,827,328.9z" />
	<path fill="#191310" d="M860.9,302c1.7-0.8,2.4,1.1,3.6,1.4c2.7-1.6,5.3-3.2,7.8-4.7c0.3,0.3,0.6,0.6,0.8,0.9   c-2.1,1.7-4.1,3.4-6.4,5.2c1,0.7,1.7,1.2,2.5,1.8c-0.3,0.9-1.1,0.7-1.7,0.8c-1.1-0.3-2.2-0.7-3.1-1c-1.4,0.1-2.5,1.7-4.2,0.4   c0.4-0.6,0.9-1.2,1.3-1.8C861.4,304.1,861.2,303,860.9,302z" />
	<path fill="#D0BA9B" d="M786.3,301.8c2.8-5,6.1-9.3,9.3-14.4c0.6,6-3.6,9.8-7,14.4c0.8,0,1.3,0,1.7,0c-0.5,1.1-1.5,1.2-1.9,0.4   C787.8,301.1,787.1,301.8,786.3,301.8z" />
	<path fill="#25211D" d="M855.3,290.2c0.3,0.3,0.6,0.6,0.9,0.9c-2,5.2-5.9,10.2-9.9,14.3c0.2-5.9,6.9-9.3,8.4-15.1   C854.9,290.3,855.1,290.2,855.3,290.2z" />
	<path fill="#191514" d="M836.3,318c2.8,1.2,7.6,4.2,6,7.7c-3.2-0.7-5.2-4.7-7.9-6.7C834.7,318,835.6,318.2,836.3,318z" />
	<path fill="#BCAC9A" d="M798.9,294.2c1.6-2.6,4.2-4.6,6.2-7c-2.2,5.8-2.8,11.3-3.6,17.4c-0.4-3.8,0-6.8-0.3-9.6   C800.5,293.9,799.7,294.3,798.9,294.2z" />
	<path fill="#302B26" d="M833.8,308.1c0.3,0.3,0.7,0.6,1,0.9c-2.9,2.1-5.8,4.2-9.5,4.5c-0.2-0.2-0.5-0.5-0.7-0.7   c0.5-0.8,1-1.6,1.4-2.4c0.9-0.5,1.7-1.1,1.6-2.3l0,0c0.7,0.7,1.5,0.4,2.3,0.1c0.2,0.2,0.5,0.4,0.7,0.6c0,0.2,0,0.5,0,0.7   c-0.9,0.1-1.6,0.3-2,1.3c1.2,0.3,1.6-0.5,2.1-1.2C831.7,309.2,832.8,308.6,833.8,308.1z" />
	<path fill="#231D19" d="M836.1,298c-1.1,2-2.6,3.1-4.5,4.6c-0.1-0.6-0.1-1-0.2-1.5c1.7-3.7,3.3-7.4,5.4-10.9c0.1,0.6,0,1.4,0.8,1.7   c-0.2,0.8-0.5,1.6-0.7,2.3c-1.1,0.3-0.5,1.4-1.1,2.1c0.1-0.2,0.2-0.3,0.3-0.5c0.3,0.3,0.6,0.6,0.9,1   C836.9,297.2,836.3,297.5,836.1,298z" />
	<path fill="#665D4F" d="M819.8,308.1c-0.3-4.1,2.4-7,4.6-10.1c0,0.9,0.3,1.7,1.4,1.5C823.8,302.4,822.7,306,819.8,308.1z" />
	<path fill="#3D322B" d="M867.7,307.4c0.6-0.2,1.4,0,1.7-0.8c0.8,0.3,1.6,0.6,2.4,0.9c-0.1,0.7-1.5,1.4,0,2.2c0.2,1,1,0.8,1.6,0.9   c-0.3,0.4-0.5,0.9-0.8,1.3c-2,0.1-3.9-0.3-5.5-1.7c0-1.3,0.7-1.2,1.5-1.1c1.6,1.7,2.2-1.4,0-0.9C868.3,307.9,868,307.7,867.7,307.4   z" />
	<path fill="#C6B79D" d="M854.7,290.3c-1.2,2.8-2.6,5.4-4.7,7.6c0-0.6,0-1.3-0.8-1.5c1.6-2.3,3.2-4.6,4.8-6.9   C854.2,289.8,854.4,290.1,854.7,290.3z" />
	<path fill="#635B4C" d="M831.5,295c-1.6,1.2-3.2,2.4-4.8,3.7c-0.1-2,0.9-4,2.2-5.3c0.5,1.5,1.7-0.3,2.4-0.8   c0.3,0.3,0.6,0.6,0.9,0.9c0,0.3,0,0.5,0,0.8C832,294.5,831.8,294.7,831.5,295z" />
	<path fill="#C6B497" d="M855.4,293.4c0.3-0.5,0.5-1,0.8-1.5c0.9,0.7,1.4,2.3,2.4,0.9c0.2,0.2,0.5,0.5,0.7,0.7c-0.5,1-1,1.9-1.4,2.9   c0.3,1.1,0.5,2,0.8,3c-0.1,0.1-0.2,0.2-0.3,0.3c-1.4-1.6-2.6-3.2-2.4-5.5C856.1,293.9,855.7,293.6,855.4,293.4z" />
	<path fill="#25201C" d="M790.4,301.9c-0.5,0-0.9,0-1.7,0c1.2-2.8,3.8-3.8,4.9-6.1c0.2,0,0.6,0,0.8,0c0.3,0.3,0.7,0.6,1,0.9   C793.7,298.4,792,300.1,790.4,301.9z" />
	<path fill="#332B24" d="M828.1,294c-0.6,1.5-1.7,2.8-1.4,4.6c-0.3,0.3-0.6,0.6-0.9,0.9c-1.2,0.1-1.4-0.6-1.4-1.5   c1-1.8,2.1-3.6,3.1-5.5C827.7,293,827.9,293.5,828.1,294z" />
	<path fill="#BBAB92" d="M836.8,290.2c-0.7,1.4-1.5,2.7-2.2,4c-0.2-1.4-0.2-1.4-1.4-0.7c-0.1-0.1-0.2-0.2-0.3-0.3   c1.1-1.7,2.3-3.4,3.4-5.1c0.3,0.2,0.6,0.5,0.9,0.7C837,289.3,836.9,289.7,836.8,290.2z" />
	<path fill="#B89A8D" d="M805.2,345.2c0.7,0.7,1.5,1.3,2.3,2.1c-0.5,0.5-0.9,0.8-1.4,1.3c-0.9-0.6-1.7-1.2-2.4-1.7   C804.6,346.7,805.2,346.3,805.2,345.2z" />
	<path fill="#918178" d="M824.6,312.8c0.2,0.2,0.5,0.5,0.7,0.7c-0.7,1.1-1.3,2.4-2.7,3.1C822.8,314.8,822.8,314.8,824.6,312.8z" />
	<path fill="#604540" d="M836.3,318c-0.7,0.2-1.6,0-1.8,1c-0.7-0.6-1.4-1.3-2.7-2.4C833.9,316.8,835.1,317.2,836.3,318z" />
	<path fill="#535755" d="M808.3,281.9c0.4-0.7,0.7-1.4,1.3-2.5c0.1,1.8,0.6,3-0.5,4C808.8,282.9,808.6,282.4,808.3,281.9z" />
	<path fill="#C2B99E" d="M868.6,308.1c2.2-0.5,1.6,2.6,0,0.9C868.6,308.8,868.6,308.5,868.6,308.1z" />
	<path fill="#D7C0A0" d="M827.7,308.2c0.1,1.2-0.7,1.8-1.6,2.3C826,309.2,826.5,308.4,827.7,308.2z" />
	<path fill="#B89A8D" d="M803.6,343.7c0.5,0.5,1.1,1,1.6,1.5C804,345.4,803.5,344.9,803.6,343.7z" />
	<path fill="#D7C0A0" d="M832.2,299.6c-0.2,0.5-0.5,1-0.7,1.5C831.4,300.5,831.4,299.9,832.2,299.6z" />
	<path fill="#25201C" d="M796.6,295.7c0.3-0.2,0.6-0.5,0.8-0.7C797.2,295.2,796.9,295.4,796.6,295.7z" />
	<path fill="#BBAB92" d="M831.5,295c0.2-0.3,0.5-0.5,0.7-0.8C832,294.5,831.8,294.7,831.5,295z" />
	<path fill="#BCAC9A" d="M798.1,294.9c0.3-0.2,0.6-0.5,0.9-0.7C798.6,294.4,798.4,294.6,798.1,294.9z" />
	<path fill="#B89A8D" d="M803.6,346.8c-0.3-0.2-0.7-0.4-1-0.6C802.9,346.4,803.2,346.6,803.6,346.8z" />
	<path fill="#C6B497" d="M854.8,294.2c0.2-0.3,0.4-0.5,0.6-0.8C855.2,293.7,855,293.9,854.8,294.2z" />
	<path fill="#BBAB92" d="M832.3,294.2c0-0.3,0-0.5,0-0.8c0.2-0.1,0.3-0.2,0.5-0.3c0.1,0.1,0.2,0.2,0.3,0.3   C832.8,293.8,832.6,294,832.3,294.2z" />
	<path fill="#25201C" d="M795.8,296.3c0.2-0.2,0.5-0.4,0.7-0.6C796.3,295.9,796.1,296.1,795.8,296.3z" />
	<path fill="#FAE3C2" d="M880,291c1.2-15.6,11.1-35.4,2-50.6c1.6,11.4,4.9,24.2-2.6,34.4c0-3.3,0-6.1,0-9.7c-3.1,4-2.2,7.8-5,11.5   c-0.7-3.7,0.4-7.1,1.8-10.2c1.2-5.7-0.4-12,3.4-17c-0.5-1.3,0.5-2.9-0.7-4.2c-1.3-7.9-2.2-16.1-6.5-23c0.3-0.3,0.6-0.6,0.9-0.9   c0,0,0,0,0,0c3.8,1.1,9,13.2,10.6,10.3c-1-2.7-3-4.8-4.4-7.1c0.3-0.3,0.6-0.6,0.9-0.9c5.8,5.1,9.1,13.1,10,20.2l0,0   c-0.2,0-0.5,0-0.7,0c-0.4-1.5-0.7-1.7-2.4-2.6c3.7,12.5,1.5,24.5-1.5,36.6C884.1,282.2,882.2,286.7,880,291z" />
	<path fill="#F8E2C1" d="M889.4,289.4c-0.5,0.5-1,1.1-1.3,1.7c-0.3-0.4-0.7-0.7-1-1.1c1.5-4.5,3.6-9.7,3.2-15   c-0.4,0.2-0.6,0.3-0.8,0.4c-0.3-0.5-1.2-0.9-0.7-1.5c3-9.4,2.1-20.2,1.5-30.2c0,0,0,0,0,0c0.3,0,0.5,0,0.8,0   c4,9.9,6.5,22.6,3.7,32.7C891.7,280,892.1,285.5,889.4,289.4z" />
	<path fill="#A99E87" d="M880.3,223.7c-0.3,0.3-0.6,0.6-0.9,0.9c-0.2,0-0.4-0.1-0.7-0.1c-0.8-1.2-1.6-2.5-2.5-3.7   c0.3-0.3,0.5-0.5,0.8-0.8C878.1,221.2,879.2,222.4,880.3,223.7z" />
	<path fill="#B8A991" d="M890.2,241.6c-0.8-0.3-0.8-0.9-0.7-1.6C889.7,240.5,889.9,241,890.2,241.6z" />
	<path fill="#B8A991" d="M891.1,243.9c-0.3,0-0.5,0-0.8,0c0-0.6,0.1-1.1,0.1-1.7C891.1,242.6,891.2,243.2,891.1,243.9z" />
	<path fill="#F8E1C1" d="M867.7,266.2c3.7-13.7,1.2-28.5-2.3-41.6c0.3-0.3,0.5-0.6,0.8-0.8c10.3,8.2,9.7,19.8,7.7,31.6   c-0.7-1-1-1.7-1.4-2.3c-0.3-0.1-0.7-0.4-0.8,0c-0.1,5.3-1.2,10.5-3.1,15.5C867.2,268.2,868.1,266.9,867.7,266.2z" />
	<path fill="#080706" d="M875.7,239.8c-1.8-6.1-4.5-11.7-9.5-16c0.1-0.7,0.1-1.4,0.2-2.2c-0.6-0.3-1-0.6-1.7-1   c0,1.2-0.1,2.2-0.1,3.1c-1-2.2-1.4-5.3-1.4-7.9c0.9-0.8,1.6-0.9,2.3,0.2c-0.5,0-1,0.1-1.7,0.1c0.1,0.8,0.1,1.4,0.2,2.4   c1-1,2.5-0.2,3-1.7c1.8,0,2.7,1.4,3.9,2.4c-0.4,0.1-0.8,0.1-1.5,0.2c5.4,5.1,9.3,14.1,7.1,21.3   C876.2,240.4,875.9,240.1,875.7,239.8z" />
	<path fill="#B4A187" d="M867.7,266.2c0.4,0.8-0.5,2,0.9,2.4c0,0.3,0.1,0.6,0.1,0.9c-1.6,3.6-3.2,7.1-4.8,10.7   c-0.3-0.3-0.5-0.7-0.8-1C864.6,274.9,866.1,270.5,867.7,266.2z" />
	<path fill="#A09279" d="M863,279.2c0.3,0.3,0.5,0.7,0.8,1c-0.9,3.5-7,9.8-5.1,12.5c-1.1,1.4-1.6-0.2-2.4-0.9c0-0.3,0-0.5,0-0.8   C858.5,287.1,860.9,283.2,863,279.2z" />
	<path fill="#373029" d="M878.7,224.5c0.2,0,0.4,0.1,0.7,0.1c1.5,2.4,3.5,4.5,4.4,7.1c-2.2,2.3-4.4-5-6-6.4   C878.1,225.1,878.4,224.8,878.7,224.5z" />
	<path fill="#7E7463" d="M854.7,290.3c-0.3-0.3-0.5-0.5-0.8-0.8c1.5-3.4,3-6.7,4.6-10.1c0.3,0.3,0.5,0.5,0.8,0.8   c-1.3,3.3-2.4,6.7-3.9,10C855.1,290.2,854.9,290.3,854.7,290.3z" />
	<path fill="#9B957F" d="M872.3,222.3c-0.9-0.9-1.8-1.8-3-2.9c0.8-0.1,1.1-0.2,1.5-0.2c0.8,0.8,1.5,1.5,2.3,2.3   C872.9,221.8,872.6,222.1,872.3,222.3z" />
	<path fill="#A89E87" d="M864.7,223.8c0-1,0.1-1.9,0.1-3.1c0.7,0.4,1.1,0.6,1.7,1c-0.1,0.7-0.1,1.5-0.2,2.2   c-0.3,0.3-0.5,0.6-0.8,0.8C865.2,224.3,864.9,224,864.7,223.8z" />
	<path fill="#B6B49A" d="M867,216.8c-0.5,1.4-1.9,0.7-3,1.7c-0.1-1-0.1-1.6-0.2-2.4c0.7,0,1.2-0.1,1.7-0.1   C866,216.3,866.5,216.6,867,216.8z" />
	<path d="M862.4,199.8c0,0.9,0,1.7,0,3.2C861.6,201,861.6,201,862.4,199.8L862.4,199.8z" />
	<path fill="#A89E87" d="M865.5,225.3c1,0.6,0.8,1.6,0.6,2.5C865.4,227.1,865.4,226.2,865.5,225.3z" />
	<path fill="#9B957F" d="M874,222.2c-0.3-0.2-0.6-0.5-0.8-0.7C873.5,221.7,873.8,221.9,874,222.2z" />
	<path fill="#6F7268" d="M744.1,345.8c-0.3,0-0.6,0.1-1,0.1C742.3,344.4,744.4,343.9,744.1,345.8z" />
	<path fill="#6F7268" d="M745.6,346.7c-0.7,0.1-1.3,0-1.4-0.9C744.6,346.2,745.1,346.5,745.6,346.7z" />
	<path d="M776.4,356.9c-1.5-0.3-3-0.6-4.5-0.9c-0.5-1.1-1.5-0.7-2.3-0.7c0.6-1.2,2-0.8,3.1-0.6c2.2,1.3,5.3,0.6,7.8,1.5   C779.2,357,777.8,356.9,776.4,356.9z" />
	<path fill="#AD998C" d="M780.4,356.1c-1.8-0.3-3.6-0.6-5.3-0.9c-0.1-0.2-0.1-0.4-0.2-0.6c0.5-0.3,1.1-0.6,1.6-0.8   c1.3,0.3,2.6,0.5,3.9,0.8c0.5,1.1,1.5,0.3,2.3,0.7c0,0.2,0,0.4,0,0.7C781.9,356.1,781.1,356.1,780.4,356.1z" />
	<path d="M781.8,357.7l-0.3,0.1l-0.3-0.2c0.9-1.5,2.2-0.6,3.4-0.3C783.6,357.5,782.7,357.6,781.8,357.7z" />
	<path fill="#AD998C" d="M775.8,353.7c-0.7,0.2-1.3,0.1-1.6-0.6C774.7,353.3,775.2,353.5,775.8,353.7z" />
	<path fill="#9C998C" d="M782.1,355.2c-0.7,0.1-1.3,0.2-1.7-0.6C780.9,354.8,781.5,355,782.1,355.2z" />
	<path fill="#9C998C" d="M782.7,356c0-0.2,0-0.4,0-0.7c0.4,0.1,0.9,0.1,1.3,0.2c0,0.1,0,0.2,0,0.3C783.6,355.9,783.1,356,782.7,356z   " />
	<path fill="#0D0908" d="M627.1,415.7c0,0.4-0.1,0.8-0.1,1.4c-11.3,1.2-20.1-8.1-31.5-8.6c-0.6-0.8-1.8-1.2-1.2-2.7   c7.4,0.7,15.4,3,21.9,6.9C619.5,415.3,623.9,412.9,627.1,415.7z" />
	<path fill="#423733" d="M641.8,234.6c0-0.2,0.1-0.5,0.1-0.7c4.6,0.7,11.6-0.7,14.6,3.1C651.9,238,646.6,235.1,641.8,234.6z" />
	<path fill="#6A5C55" d="M542.7,363.1c0,0.4,0,0.7,0,1.1c-0.9,0.9-8.4-9.4-7.3-10.2C538.4,356.5,540.4,359.9,542.7,363.1z" />
	<path fill="#2C211F" d="M597,258.6c1.9-0.6,3.9-2.4,5.9-2.3c0.6,0.4,0.5,1,0.5,1.7c-1.6,1.5-3.5,1.5-5.4,1.5   C597.6,259.2,597.3,258.9,597,258.6z" />
	<path fill="#584B45" d="M549.5,278.8c-1.9-0.4-2.3-2.2-3.2-3.6C548.9,275.3,549.9,276.4,549.5,278.8z" />
	<path fill="#4A3E3A" d="M507.3,286.2c-0.4-1.4-1.7-2.6-0.5-4.4c1.9,1,1.6,2.9,1.9,4.5C508.3,286.3,507.8,286.3,507.3,286.2z" />
	<path fill="#6B5D55" d="M532.7,348.4c0,0.4-0.1,0.7-0.1,1.1c-0.8,0.5-1.9-0.8-3.5-3.9c0.5-0.1,0.9-0.2,1.3-0.3   C531.2,346.2,531.9,347.3,532.7,348.4z" />
	<path fill="#574641" d="M597,258.6c0.3,0.3,0.6,0.6,1,0.9c-3.3,1.2-3.3,1.2-5.1,0.6C594.1,258.9,595.4,258.6,597,258.6z" />
	<path fill="#514944" d="M526.7,334.4c0,0.9,0,1.7,0,2.6c-2,0.6-2.5-3.9-1-4.7C526,333,526.3,333.7,526.7,334.4z" />
	<path fill="#2C1C1A" d="M500.9,258.4c-1.2-0.7-0.3-1.9-0.5-2.8l0,0c0.2-0.3,0.5-0.6,0.7-0.9C503.2,255.1,501.8,257.6,500.9,258.4   L500.9,258.4z" />
	<path fill="#413834" d="M582.3,262c1.4-1.4,2.5-1.6,3.7-0.8C585.3,262.6,585.3,262.6,582.3,262z" />
	<path fill="#342E2B" d="M509.6,293.7c0.5-0.3,0.8-0.5,1.4-0.8c0.4,1.2,0.7,2.2,1.1,3.7C510.4,296,510,295,509.6,293.7z" />
	<path fill="#665B55" d="M543.6,273c-1.8,0.2-2.2-0.8-2.8-1.8C542.6,271,542.6,271,543.6,273z" />
	<path fill="#86544E" d="M578.7,261.6c-2.2,1.7-2.2,1.7-4.2,0.3C575.8,261.8,576.8,261.7,578.7,261.6z" />
	<path fill="#BFADA0" d="M507.3,286.2c0.5,0.1,0.9,0.1,1.4,0.2c0.3,0.9,1.3,1.6,0.4,2.8C507.9,288.6,507.7,287.4,507.3,286.2z" />
	<path fill="#A69288" d="M522.1,323c1.4,0.6,1.7,1.4,1.1,2.6C521.9,325.1,521.8,324.3,522.1,323z" />
	<path fill="#E1C7B6" d="M500.9,258.5c0.3-0.3,0.5-0.6,0.8-0.9C501.7,258.1,501.5,258.5,500.9,258.5z" />
	<path fill="#E1C7B6" d="M501.1,254.7c-0.2,0.3-0.5,0.6-0.7,0.9C500.6,255.3,500.8,255,501.1,254.7z" />
	<path fill="#E0C6B5" d="M62.8,245.5c12.2-1.7,24.5-0.9,36.3,2.6c0.4,1.9-1.8,2-3,1.9c-15.3,2.6-31.1,3-46.2,5.4   c-0.6-5.1,5.4-7.6,9.3-8.8c3.5,1.5,3.5,1.5,5.6,0.7C64.1,246.7,63.4,246.1,62.8,245.5z M80.6,247.8c-1.1-1-4.3-2.1-4.3,0.1   C77.6,249.1,79.1,248.1,80.6,247.8z M69.5,246.5c0.1,0.7,1.1,0.7,1.6,1.1C71.9,246.4,70.3,245.7,69.5,246.5z" />
	<path fill="#0F0C0B" d="M62.8,245.5c0.6,0.6,1.3,1.2,1.9,1.8c-2,0.9-2,0.9-5.6-0.7c-5.6,1.2-12,6.5-8.6,12.7   c-0.5,0.2-1,0.5-1.5,0.7C40.9,251.2,53.2,241.7,62.8,245.5z" />
	<path fill="#29201E" d="M225.6,250.7c0.7,0.3,1.5,0.6,2.2,0.9c-0.5,1.2-1.6,0.5-2.4,0.8c-1.5-0.3-3-0.6-4.5-0.9   c-0.2-0.4-0.5-0.9-0.7-1.3c0.7,0,1.4,0,2.1-0.1C223.3,251,224.5,250.7,225.6,250.7z" />
	<path fill="#533F39" d="M225.4,252.5c0.8-0.3,1.9,0.4,2.4-0.8c0.2,0,0.5,0,0.7,0.1l0,0c-0.1,1.6,1.3,1.4,2.4,1.5c0,0.3,0,0.5,0,0.8   C228.8,254.5,227,254,225.4,252.5z" />
	<path fill="#6D5E57" d="M210.3,247.5c1.2-0.7,2.3-0.8,3.6-0.2C212.7,249,211.2,249,210.3,247.5z" />
	<path fill="#AA897E" d="M220.2,250.2c0.2,0.4,0.5,0.9,0.7,1.3c-1.2-0.3-2.4-0.6-3.5-0.9c0-0.2,0-0.3,0.1-0.5   C218.4,250.2,219.3,250.2,220.2,250.2z" />
	<path fill="#6D655D" d="M49.1,260.1c0.5-0.2,1-0.5,1.5-0.7c0.7,0.3,1.3,0.6,2.2,1C50.8,261.1,50.8,261.1,49.1,260.1z" />
	<path fill="#0E0707" d="M202.3,244.4c0.5-1.2,1.3-1.4,2.3-0.6C203.9,244.8,203.9,244.8,202.3,244.4z" />
	<path fill="#AA897E" d="M225.6,250.7c-1.1,0-2.3,0.4-3.2-0.6c1,0,2.1,0,3.1-0.1C225.5,250.3,225.5,250.5,225.6,250.7z" />
	<path fill="#EF8A6A" d="M386.2,258.5c-2.1-1.7-3.8-3.4-3.5-6.4c13.4-13.4,32.9-16.6,36.1,6.5c-0.6,0.5-1.5,1.3-2.5,2.2   C406.3,261.3,396.3,258.5,386.2,258.5z" />
	<path fill="#F28D6C" d="M401.7,296.4c0.8-5.5,0.5-11.2,4.4-15.1c1.2,3.4-1,6.7-2,9.8C403.3,292.7,403.9,294.7,401.7,296.4z" />
	<path fill="#F18C6C" d="M376.7,276.8c0.6,3.2-1.5,6-1.2,9.2c-1,0.8-1.3,1.8-2.6,1.7C372.1,284,374.8,280.1,376.7,276.8z" />
	<path fill="#503329" d="M475.9,215.5c2.2-2,6.5,1.6,5.1,3.6C479.3,218.3,477.8,217.2,475.9,215.5z" />
	<path fill="#3F241E" d="M488.4,223.8c1.9-1.1,2-1.1,3.8,1.3C490.7,225.8,489.6,225.3,488.4,223.8z" />
	<path fill="#625741" d="M685,348.5c-0.7,1.2-1.2,2.4-3,1.8C682.5,348.7,683.4,348.2,685,348.5z" />
	<path fill="#160F0C" d="M592,336.6c1.6,0.3,0.7,2.2-0.1,3C590.5,339.2,591.3,337.4,592,336.6z" />
	<path fill="#EBDA8F" d="M593,344.5c-0.6-0.3-0.6-0.6,0-0.9c0.1,0.1,0.2,0.2,0.3,0.3l0,0.4C593.2,344.4,593.1,344.4,593,344.5z" />
	<path fill="#080706" d="M784.2,301c0.3,1.4-1.1,1.9-1.9,2.8c-0.6,0.6-0.1,1.9-1.4,1.9c2.9-25.4,8.8-50.1,14.2-75   c1.7,1.6,0.4,4.8,0.8,7C791.8,258.2,786.8,280.6,784.2,301z" />
	<path fill="#413631" d="M761.8,254.7c-2.7,5.8-10.1,4.7-15.6,3.7c0.5-0.6,0.8-1.2,1-1.1C752.6,258.6,757.2,255.1,761.8,254.7z" />
	<path fill="#C6AEA0" d="M774.9,281.7c2.8-3,5.2-6.1,8.2-9c-0.5,3.7-4.9,6.9-7.4,9.9C775.4,282.3,775.2,282,774.9,281.7z" />
	<path fill="#8A776E" d="M774.9,281.7c0.3,0.3,0.5,0.6,0.8,0.8c-1.8,1.6-3.6,3.2-5.3,4.7c-0.3-0.3-0.6-0.6-0.8-0.8   C771.3,284.9,773.1,283.3,774.9,281.7z" />
	<path fill="#87736A" d="M742.5,234.5c-0.3,0.3-0.7,0.7-1,1c-1.1-1.5-2.2-3.1-2.2-5.8C740.6,231.7,741.6,233.1,742.5,234.5z" />
	<path fill="#B6A295" d="M769.5,286.4c0.3,0.3,0.6,0.6,0.8,0.8c-0.6,1-1.4,1.7-2.8,1.4C767.8,287.4,768.6,286.9,769.5,286.4z" />
	<path fill="#7F6E65" d="M751.5,300c0.1,1.4-2.1,1.6-1.9,0.2C749.9,299.4,750.9,299.3,751.5,300z" />
	<path fill="#584B45" d="M758.6,302.2c-1.4,0.5-1.4,0.5-2.1-0.6C757.9,301.1,757.9,301.1,758.6,302.2z" />
	<path fill="#877B71" d="M763.4,302.7c0.5,0.3,1.1,0.6,1.6,0.8c0,0.2,0,0.5,0,0.7c-1.1,0.1-2.6,0.1-2.2-1.4   C762.9,302.8,763.1,302.7,763.4,302.7z" />
	<path fill="#1F1E1A" d="M59.8,312.5c0.6,0,1.1,0.1,1.7,0.1c1.6,3.2-2.9,2.3-4.6,1.8c0-0.3,0-0.5,0-0.8   C57.9,313.3,58.9,312.9,59.8,312.5z" />
	<path fill="#A6B79F" d="M48.3,300.4c1.1,0,2.2,0,3.7,0c-1,1-1.8,1.4-2.9,1.4C48.8,301.3,48.5,300.9,48.3,300.4z" />
	<path fill="#5E3932" d="M56.9,313.7c0,0.3,0,0.5,0,0.8c-0.8,0.3-1.5,0.6-2.2,0.1c0.2-0.4,0.4-0.7,0.6-1.1   C55.8,313.5,56.3,313.6,56.9,313.7z" />
	<path fill="#B7B69E" d="M62.9,301.3c0,0.5,0.1,1,0.1,1.4c-0.3,0-0.5-0.1-0.8-0.1c0-0.5,0-1,0-1.5C62.4,301.2,62.6,301.2,62.9,301.3   z" />
	<path fill="#B7B69E" d="M59,304.9c0.6-0.2,1.1-0.4,1.7-0.7C60.3,305.1,59.7,305.1,59,304.9z" />
	<path fill="#B7B69E" d="M61.5,303.5c0.2-0.3,0.4-0.6,0.7-0.9C61.9,302.9,61.7,303.2,61.5,303.5z" />
	<path fill="#B7B69E" d="M60.6,304.2c0.3-0.2,0.6-0.4,0.8-0.7C61.2,303.7,60.9,303.9,60.6,304.2z" />
	<path fill="#F5D8C6" d="M211.6,282.6c0,0.6,0.1,1.2,0.1,1.6c5.3,7.2,7.9,3.2,11.6,7.7l0,0c-2.3,2.5-15.3-4-18.6-5.6   C207.1,284.7,209.2,283.4,211.6,282.6L211.6,282.6z" />
	<path fill="#58504A" d="M220,289.5c-1.1,0.4-1.9-0.4-2.9-0.8c-0.3-0.4-0.5-0.8-0.9-1.2C219.3,287,219.5,287.2,220,289.5z" />
	<path fill="#2F2623" d="M227.2,291.8c0.6,0.2,1.2,0.4,1.3,1.1c-1.8,0.8-1.8,0.8-4.5-1.2c0.3-0.2,0.5-0.5,0.8-0.7   c0.2,0,0.5,0,0.7,0.1C225.9,291.9,226.5,291.9,227.2,291.8z" />
	<path fill="#6C4F49" d="M224.8,291.1c-0.3,0.2-0.5,0.5-0.8,0.7c-0.3,0-0.5,0-0.8,0.1l0,0C223.5,290.2,223.5,290.2,224.8,291.1z" />
	<path fill="#6C4F49" d="M227.2,291.8c-0.7,0.1-1.3,0.1-1.7-0.6C226,291.4,226.6,291.6,227.2,291.8z" />
	<path fill="#272622" d="M468.6,331.7c1.9,0.2,3.3,0.1,5.1,0.3c0.8,0.1,1.7-0.7,2.5,0.5C474,333.5,469.3,335.3,468.6,331.7z" />
	<path fill="#4B4641" d="M481.5,330.5c-0.9,0-1.5-0.1-2.3-0.1C480,328.8,480.1,328.8,481.5,330.5z" />
	<path fill="#25201D" d="M548.1,375.5c2.5,3.2,4.8,6.5,6.5,10.1c-2.5,2.1-5.3-7-7.2-8.7C547.5,376.4,547.3,375.7,548.1,375.5z" />
	<path fill="#2C2623" d="M500.8,272.3c-2.3-2.8-3.2-5.9-1.1-9.1C501.6,266.1,501,268.8,500.8,272.3z" />
	<path fill="#77685F" d="M548.1,375.5c-0.8,0.2-0.6,0.9-0.7,1.5c-1.2-1.8-2.7-3.4-3.2-5.9C546.1,372.2,546.1,372.2,548.1,375.5z" />
	<path fill="#28211E" d="M634.9,305c-0.5,2.6,1.1,4.6-0.4,7.2c-1-1.9-1.8-3.3-2.7-4.9c0.5-0.6,0.9-1.3,1.6-2.2   c0-0.3-0.1-0.9-0.1-1.5C633.8,304,634.3,304.5,634.9,305z" />
	<path fill="#151110" d="M634.9,305c-0.5-0.5-1.1-1-1.6-1.5c-0.6-0.5-0.2-1,0.3-1.2C634.9,302,635.3,304,634.9,305z" />
	<path fill="#372B28" d="M771.2,354.4c-0.6,0.2-1.4,0-1.7,0.9c-1.6,0-2.8-0.8-3.8-1.7c0.7-2.5,3.7,0.2,5.4,0.2   C771.1,354,771.2,354.2,771.2,354.4z" />
	<path fill="#372B28" d="M774.8,354.6c0.1,0.2,0.1,0.4,0.2,0.6c-0.9,0.1-1.8,0.3-2.4-0.6C773.3,354.3,774.1,354.5,774.8,354.6z" />
	<path fill="#AD998C" d="M773.4,354.4c-0.7,0.4-1.5,0.2-2.2,0c-0.1-0.2-0.1-0.4-0.2-0.6C771.9,353.7,772.8,353.5,773.4,354.4z" />
	<path fill="#372B28" d="M769.6,355.3c0.9-0.1,1.8-0.3,2.3,0.7C771,356.2,770.2,356.1,769.6,355.3z" />
	<path fill="#281E14" d="M593.3,344.3l0-0.4c2-0.1,3.8,1.3,3.4,3.4C594.2,347.4,594.7,344.9,593.3,344.3z" />
	<path fill="#D8C1A1" d="M825.2,259.3c-6.9,9.7-11.4,20.5-13.9,32.2c-0.3-0.1-0.5-0.2-0.8-0.3c0-9,2.7-17.3,5.6-25.7   c-0.7,0.6-1.3,1.2-2.3,2.1c0.5-3,0.9-5.6,1.4-8.3c0.8-0.2,0.8-0.9,0.8-1.6l0,0c6.9-16.7,10.3-36.1,22.2-50.4   c-5.4,17.8-13.9,35.5-16.5,54.2c2.9-4.1,5.6-7.9,8.2-11.7c0,0.5,0,1,0,1.6C828.3,254.2,826.8,256.7,825.2,259.3z" />
	<path fill="#050504" d="M859.2,218.4c6,23.8-1.3,48.6-15.3,68.1c-1.2-0.3-0.8-1.5-0.9-2.4c20.9-34.4,13.3-53.5,10.6-88.5   C853.9,203.4,857.5,210.7,859.2,218.4z" />
	<path fill="#D8C1A1" d="M815.2,257.8c-0.7-3.8,0.5-9.2-2.8-11.8c1-9.1,4.8-18.1,9-26.2c6.8-3,10.8-14.4,15.5-20.9   c-5.3,19.9-19.3,37.6-20.9,58.8l0,0C815.7,257.8,815.5,257.8,815.2,257.8z" />
	<path fill="#D2BB9C" d="M829.9,251.6c0.3-5.6,2.4-11.1,4.6-16.2c0.1,0.4,0.2,0.8,0.4,1.6c1.6-3.4,2.4-6.4,4.3-9.2   c0.8,4.1-5.3,15.8-3,17.5c0.7-0.9,1.4-1.9,2.1-2.9c0,0.8,0,1.6,0.1,2.3c-0.1,0.2-0.1,0.4-0.1,0.7c-0.7,0.7-0.8,1.5-0.6,2.4   c-0.4,0.9-0.8,1.8-1.5,3.4c-0.2-2-0.3-3.2-0.4-4.4c-0.5,7.7-1.6,15.2-5.5,22.2c-1.9,0.7-1.2,2.9-2.2,4.2c-0.9,1.2-1.5,2.6-2.2,4   c1.1-5.8,1-11.7,2-17.5c-0.2-0.1-0.4-0.3-0.7-0.4C828.1,256.9,831.7,253.8,829.9,251.6z" />
	<path fill="#F6DFBF" d="M853.1,204.5c0.1,0.7,0,1.5-0.1,2.2c-2.2,0-1.7,2.3-1.3,3.4c0.8,7.3,1.5,15.1,0,22.3   c-1.1-5.4,2.5-14.9-2.4-17.8c0-0.6,0-1.3-0.7-1.5c-0.1-1.8-0.3-2.1,1.6-2.1c1.3-1.2,0.4-2.8,0.8-4.3c0.6-0.7,1.6-1.2,1.5-2.4   C852.6,204.3,852.8,204.4,853.1,204.5z" />
	<path fill="#211D19" d="M843.7,188.8c2.7-3.2,6.3-6.2,10.9-5.2c0.5,0.9,1.8,1.5,1.2,2.9c-5.2-2.3-8.8,2.2-12.9,5.5   c-0.2-0.5-0.4-0.9-0.6-1.4C842.8,190,843.3,189.4,843.7,188.8z" />
	<path fill="#605548" d="M853.1,204.5c-0.2-0.1-0.4-0.2-0.6-0.3c-0.5-3.3,1.5-8-1.7-9.9c1.8-2.5,3.4-4.3,6.2-6.1   c-1.3,4.9-3,8.9-2.3,14c-1.2-2-0.6-4.3-1-6.5C852.6,198.5,853.4,201.5,853.1,204.5z" />
	<path fill="#877967" d="M839.2,227.7c-0.3,0.5-0.6,0.9-0.9,1.4c-0.3-0.3-0.5-0.5-0.8-0.8c2-5.4,5-10.1,8.6-14.5   c0.3,0.3,0.6,0.5,0.8,0.8C844.1,218.7,841.3,223,839.2,227.7z" />
	<path fill="#3E372F" d="M842.3,190.6c0.2,0.5,0.4,0.9,0.6,1.4c-1.6,2.8-3.2,5.5-4.8,8.3c-0.4,0-0.8,0-1.1,0c0-0.4,0-0.9,0-1.3   C838.7,196.2,840.1,193,842.3,190.6z" />
	<path fill="#A79781" d="M850,197.4c-2.3,3.3-4,7.6-6.6,10.5c0.6-3.8,3.4-8,5.7-11.4C849.4,196.8,849.7,197.1,850,197.4z" />
	<path fill="#A2927B" d="M837.5,228.3c0.3,0.3,0.5,0.5,0.8,0.8c-1.1,2.5-2.1,5-3.4,7.8c-0.2-0.8-0.3-1.2-0.4-1.6   C835.4,232.9,836,230.4,837.5,228.3z" />
	<path fill="#827564" d="M850,197.4c-0.3-0.3-0.6-0.6-0.9-0.9c0.6-0.7,1.1-1.5,1.7-2.2c0.3,0.3,0.6,0.6,0.8,0.9   C851,195.9,850.5,196.7,850,197.4z" />
	<path fill="#C3AE95" d="M847,214.5c-0.3-0.3-0.6-0.5-0.8-0.8c0.4-1.1,1.2-1.8,2.3-2.3c0,0.5,0,1,0.1,1.6   C848,213.5,847.5,214,847,214.5z" />
	<path fill="#735B53" d="M242,238.7c2.8-0.5,3.3-0.4,5.1,1.1C245,240.8,243.6,239.1,242,238.7z" />
	<path fill="#B5A194" d="M235.7,237.5c-1.1,1.7-1.6,1.6-2.4,0.4C234,237.8,234.5,237.7,235.7,237.5z" />
	<path fill="#D8C1A1" d="M798.1,249.3c0-1,0.1-1.9,0.1-2.9c1-1.2,0.7-2.7,0.7-4.1c0.2-0.2,0.2-0.4,0.1-0.6   c1.9-6.6,3.5-13.4,6.9-19.5c-0.5,3.5-2.1,6.3-1.3,10.1c7.2-9.8,10.8-23.6,21.1-31.4c-3.8,10.3-10,19.1-13,29.8   c0.6,0.5,1.1,1,1.7,1.5c-5,14.7-7.6,29.9-13.9,44.2C796.6,268.2,798.5,258.2,798.1,249.3z" />
	<path fill="#1F1A16" d="M805.9,222.2c-3.4,6.1-5,12.9-6.9,19.5c-0.1-0.6-0.1-1.3-0.2-2.1c-0.4,0.2-0.8,0.4-1.1,0.6   c-0.8-1,0.5-2.6-1-3.3c0.2-0.9,1-0.8,1.7-0.9c4.9-17,15.1-31.2,26.9-44c0.3,0.3,0.6,0.6,0.8,0.9   C818.9,202.3,810.3,211.1,805.9,222.2z" />
	<path fill="#887865" d="M821.4,219.9c-2.5,3.5-3.3,7.9-5.3,11.7c-0.3-0.3-0.6-0.6-0.9-0.9c2.1-4.8,3.3-12.4,7.4-15.1   C822.9,217.3,821.4,218.4,821.4,219.9z" />
	<path fill="#544B3E" d="M815.2,230.8c0.3,0.3,0.6,0.6,0.9,0.9c-0.8,2.3-1.6,4.7-2.3,7c-0.3-0.6-0.5-1.1-0.8-1.7   C813.6,234.8,814,232.6,815.2,230.8z" />
	<path fill="#F5DFBF" d="M829.7,188.9c0.3-0.5,0.6-1,0.9-1.5C830.7,188.1,830.7,188.8,829.7,188.9z" />
	<path fill="#F5DFBF" d="M830.7,187.4c0.2-0.3,0.4-0.6,0.7-0.9C831.1,186.8,830.9,187.1,830.7,187.4z" />
	<path fill="#3E372F" d="M843,189.7c-0.2,0.3-0.5,0.5-0.7,0.8c0-0.2,0-0.4,0-0.7C842.6,189.8,842.8,189.8,843,189.7z" />
	<path fill="#3E3530" d="M764.9,304.2c0-0.2,0-0.5,0-0.7c2-0.3,8.2,0.6,6.3,3.6C768.9,306.8,767,305.4,764.9,304.2z" />
	<path fill="#373430" d="M779.6,308.1c-0.2,0.9-0.9,1.6,0.6,1.5c-0.7,1.5-1.9,0.6-2.9,0.8c-1.2-1.2-0.3-2.3,0.1-3.4   C778.2,307.4,778.9,307.7,779.6,308.1z" />
	<path fill="#514741" d="M775.6,313.8c1.6,2.1,1.6,2.1,0.2,2.7C775.8,315.8,775.7,315.2,775.6,313.8z" />
	<path fill="#373430" d="M780.2,307.1c-0.2,0.3-0.4,0.7-0.6,1C779.8,307.8,780,307.4,780.2,307.1z" />
	<path fill="#413631" d="M762.5,256.2c0,0.5,0.3,1.1,0,1.6C761.5,257.2,761.8,256.7,762.5,256.2z" />
	<path fill="#E8C4B4" d="M231,253.2c-1.1-0.2-2.6,0-2.4-1.5c1.5,1,3.3,0.5,4.9,0.8C232.6,252.7,231.8,253,231,253.2z" />
	<path fill="#E8C4B4" d="M234.8,252.3c1.3-1.2,3.1-0.6,4.8-0.7C238.1,252.5,236.4,252.3,234.8,252.3z" />
	<path fill="#3E372F" d="M843.7,188.8c-0.2,0.3-0.5,0.6-0.7,0.9C843.3,189.4,843.5,189.1,843.7,188.8z" />
	<path fill="#1F1A16" d="M793.6,248.6c0.6-3.6,1.1-7.6,2.2-11c0,0.6,0,1.3,0.8,1.6c-1.9,4.1-0.7,9.1-2.2,13.2   C794.4,251.1,794.6,249.7,793.6,248.6z" />
	<path fill="#221916" d="M830.6,308.9c-0.2-0.2-0.5-0.4-0.7-0.6c4.9-4.2,9.8-8.4,14.6-12.6c0.2,0.5,0.5,0.9,0.7,1.4   c-1.4,2.3-4.6,5.5-7.7,7.9c-0.2-0.2-0.5-0.5-0.7-0.7C834.8,305.9,832.7,307.4,830.6,308.9z" />
	<path fill="#665849" d="M857.1,271.1c-0.1,0.7-0.1,1.5-0.2,2.2c-2.7,1.2-0.7,5-2.1,7.2c-0.1,0.3,0.4,0.8,0.6,1.2   c-0.5,1.3-1,2.6-1.5,3.8c-0.5-0.5-1-1-1.5-1.5c1.3-3.8,1.7-7,2.6-11.3C855.4,272.5,856.2,271.8,857.1,271.1z" />
	<path fill="#312D25" d="M843,284.9c0,0.7,0,1.4,0.9,1.6c-2.3,3.4-4.6,6.8-7,10.2c-0.3-0.3-0.6-0.6-0.9-1c0-0.6,0-1.3,0.8-1.5   C839.8,291.8,840.9,287.9,843,284.9z" />
	<path fill="#221916" d="M852.3,284.1c0.5,0.5,1,1,1.5,1.5c-1,2.2-2.3,4.2-4,6c-0.5-0.2-1-0.4-1.5-0.5   C849.7,288.7,851,286.4,852.3,284.1z" />
	<path fill="#221916" d="M847.7,291.9c0,0.7-0.1,1.3-1,1.4C847.1,292.8,847.4,292.4,847.7,291.9z" />
	<path fill="#221916" d="M845.3,294.9c-0.3,0.3-0.5,0.5-0.8,0.8C844.8,295.4,845.1,295.2,845.3,294.9z" />
	<path fill="#221916" d="M846.1,294.1c-0.3,0.3-0.5,0.6-0.8,0.8C845.6,294.6,845.8,294.4,846.1,294.1z" />
	<path fill="#665849" d="M858.5,271.8c-0.3-0.2-0.5-0.4-0.8-0.7C858.2,271,858.4,271.3,858.5,271.8z" />
	<path fill="#312D25" d="M836.1,298c0.2-0.2,0.4-0.5,0.6-0.7C836.5,297.5,836.3,297.8,836.1,298z" />
	<path fill="#221916" d="M846.8,293.3c-0.2,0.3-0.5,0.6-0.7,0.9C846.3,293.8,846.6,293.5,846.8,293.3z" />
	<path fill="#221916" d="M848.4,291c-0.2,0.3-0.4,0.6-0.7,0.8C848,291.6,848.2,291.3,848.4,291z" />
	<path fill="#D6BF9F" d="M827.4,259.3c0.2,0.1,0.4,0.3,0.7,0.4c-1.4,8-0.2,16.7-5.1,23.6l0,0c-0.2,0.5-0.8,0.8-0.8,1.4   c-2.4,2.3-6.5,11.4-9.3,10.9C814.8,282.8,819.8,269.8,827.4,259.3z" />
	<path fill="#15120F" d="M806.6,260.8c1.2-5.4,2.4-10.8,3.9-16.2c2.2,1.6,4.5,3.1,3.8,6.2c-2,1,0.4,3.6-1.6,4.6   c-0.3-2.5,0.6-5.2-1.1-7.5c-1.7,4.5-2.9,15.7-2.2,19.3c0.3-0.3,0.7-0.6,1.1-1c0.1,1.8-0.6,3.1-2.2,4.8   C808.5,267.1,807.3,264.6,806.6,260.8z" />
	<path fill="#CEB89A" d="M806.7,275.6c-1.1,2.9-2.2,5.8-4,8.4c-4.2-5.6,2.3-12.3,4-18.9C806.7,269.2,806.7,272.4,806.7,275.6z" />
	<path fill="#322D25" d="M806.7,275.6c0-3.2,0-6.4,0-10.5c-3,6.4-4.4,11.7-7,17.5c0,0,0,0,0,0c-0.3-0.3-0.6-0.6-0.8-0.9   c0-0.2,0.1-0.5,0.1-0.7c2.3-6.2,4.3-13.8,7.6-20.2C807.5,265.4,808.6,271.4,806.7,275.6z" />
	<path fill="#B9A58A" d="M810.6,266.3c-0.4,0.3-0.7,0.7-1.1,1c-0.7-3.6,0.5-14.9,2.2-19.3C814.7,253.8,811.4,260.3,810.6,266.3z" />
	<path fill="#695D4E" d="M812.8,295.7c2.4,0.8,5.6-7,7.7-8.6c0.2,0.2,0.4,0.5,0.7,0.9c0.6-0.9,1.2-1.6,1.8-2.3c0.3,0,0.5,0,0.8,0   c-0.2,1.7-1.3,2.7-2.3,3.9c-0.2-0.1-0.4-0.3-0.6-0.4c-0.3,0.7-0.7,1.3-1,2l0,0c-1.6,1.3-9,8-6.2,9.3l0,0c-0.3,0.3-0.5,0.5-0.8,0.8   C811.6,299.8,812,297.6,812.8,295.7z" />
	<path fill="#6A5D4E" d="M798.9,281.8c0.3,0.3,0.6,0.6,0.8,0.9c-0.2,2.9-4.1,6.9-2.4,9.2c-0.9,1.4-1.8,2.8-3.1,3.9   c-0.2,0-0.6,0-0.8,0C795.2,291,796.9,286.4,798.9,281.8z" />
	<path fill="#C2AE91" d="M797.4,291.8c-1.7-2.3,2.2-6.3,2.4-9.2c0,0,0,0,0,0c1.3,1,1.6,2.3,1.5,3.8C800,288.2,798.7,290,797.4,291.8   z" />
	<path fill="#43392F" d="M827.4,259.3c-0.4,0.3-0.8,0.7-1.2,1c-0.3-0.3-0.6-0.6-1-1c1.6-2.6,3.1-5.2,4.7-7.7   C831.7,253.8,828.1,256.9,827.4,259.3z" />
	<path fill="#6A5D4E" d="M801.3,286.4c0.1-1.5-0.2-2.8-1.5-3.8c0.5-1.1,0.9-2.1,1.4-3.2c0.2,1.6-0.1,3.4,1.6,4.6   C802.2,284.8,801.8,285.6,801.3,286.4z" />
	<path fill="#FAE4C3" d="M815.2,257.8c0.2,0,0.5,0,0.7,0c0,0.7,0,1.3-0.8,1.6C815.2,258.8,815.2,258.3,815.2,257.8z" />
	<path fill="#25201C" d="M794.3,295.7c0.3-0.2,0.5-0.5,0.8-0.7C794.8,295.2,794.6,295.5,794.3,295.7z" />
	<path fill="#25201C" d="M795.1,295c0.3-0.2,0.5-0.5,0.8-0.7C795.6,294.5,795.4,294.7,795.1,295z" />
	<path fill="#0A0807" d="M858.7,299.4c-0.3-0.9-0.5-1.9-0.8-3c2.3-4.8,5.9-8.9,8.5-13.7l0,0c0.5-0.8,1-1.6,1.5-2.4c0,0,0,0,0,0   c0.3-0.5,0.6-1,0.9-1.5c0,0,0,0,0,0c1.3-2.1,2.4-4.3,3.8-6.3c0.9,0.2,0.7,1.1,0.9,1.7c-1.9,8.8-8.8,15.9-12.8,23.1   c3.7,0.1,6.3-3.2,9.3-4.8c0.4,0.4,0.7,0.7,1.1,1.1C868.1,297,863.6,301.2,858.7,299.4z" />
	<path fill="#221F1A" d="M888.8,274.1c-0.2,0.2-0.2,0.4-0.1,0.6c-1,2.6-2,5.2-3.1,7.8c-0.3-0.7-1.1-1.4-0.6-2.2   c3.6-12.3,6-25.8,2.2-39c1,0.6,1.4,0.8,1.8,1c3.5,9.3,2.1,19.7,0.5,29.3C888.6,272.3,888.7,273.2,888.8,274.1z" />
	<path fill="#2F2923" d="M871,293.6c-0.4-0.4-0.7-0.7-1.1-1.1c1.5-1.7,3-3.4,4.5-5.1c0.3,0.3,0.6,0.6,0.9,1   c5.6-8.2,7.2-17.9,8.8-27.5C886.8,270.4,880.5,289.6,871,293.6z" />
	<path fill="#100D0B" d="M887.2,289.5c-0.2,0.2-0.2,0.3-0.2,0.6c-3.6,7.6-8.7,14.4-15.3,19.6c-1.5-0.8-0.1-1.5,0-2.2   c6.1-6.8,11.8-14,15.5-22.5c0.3,0.5,0.5,1,0.8,1.6C887.9,287.6,887.6,288.5,887.2,289.5z" />
	<path fill="#776A5A" d="M884.7,280.9c0.3,0.5,0.5,1,0.8,1.5c-1.3,2.3-3.8,12.5-6.8,11.2C880.8,289.4,882.8,285.1,884.7,280.9z" />
	<path fill="#9B8B77" d="M889.4,275.6c0.2-0.1,0.4-0.2,0.8-0.4c0.3,3.3-0.5,6.2-1.4,9.1c-0.2-0.6,0-1.4-0.9-1.6   C888.8,280.3,889.2,278,889.4,275.6z" />
	<path fill="#665648" d="M873.2,299.5c-0.3-0.3-0.6-0.6-0.8-0.9c0.7-1.1,1.8-1.5,3.2-2C875.3,298.5,874.3,299,873.2,299.5z" />
	<path fill="#685C4F" d="M888,282.6c0.9,0.2,0.7,1,0.9,1.6c-0.3,0.8-0.6,1.5-0.8,2.3c-0.3-0.5-0.5-1-0.8-1.6   C887.5,284.2,887.7,283.4,888,282.6z" />
	<path fill="#776A5A" d="M885.7,281.9c0.2-0.3,0.3-0.6,0.5-0.9C886,281.2,885.9,281.5,885.7,281.9z" />
	<path fill="#14120F" d="M822.1,284.7c0-0.6,0.6-0.9,0.8-1.4l0,0c6.1-11.9,13.1-23,13-36.6c0.1,1.2,0.2,2.4,0.4,4.4   c0.7-1.6,1.1-2.5,1.5-3.4c1.3-0.8,0.3-2,0.7-3.1c1.2,0.5,0.5,1.7,0.9,2.5c-1.8,9.5-4.8,19.5-7.1,29.2c-0.2,0.1-0.4,0.1-0.8,0.3   c0.3-1.5,0.6-3,1-5.3c-3.1,3.3-3.3,7.4-5.6,11.2c-0.8,0.2-0.8,0.9-0.8,1.6c0,0,0,0,0,0c-0.4-0.4-0.8-0.8-1.4-1.2   c-0.1,0.4-0.1,0.8-0.2,1.3c-0.5,0.5-1.1,1-1.5,1.5C822.6,285.3,822.4,285,822.1,284.7z" />
	<path fill="#151310" d="M828.1,294c-0.2-0.5-0.4-1-0.6-1.5c2.1-6.4,5.3-12.6,7.2-19c1.6-4.1,3.3-8.2,3.8-12.6   C840.9,269.7,832.6,285.9,828.1,294z" />
	<path fill="#695D4E" d="M821.4,291.9c-1.9,3.4-4.7,6.1-7.8,8.5l0,0c0.9-3.7,5.4-5.3,6.2-9.3l0,0c0.2,0,0.5,0,0.7-0.1   C820.8,291.3,821.1,291.6,821.4,291.9z" />
	<path fill="#29251F" d="M821.4,291.9c-0.3-0.3-0.6-0.6-0.9-0.9c0.8-2,2.9-3.1,3.2-5.4l0,0c0.5-0.9,0.9-1.8,1-2.8   c0.5,0.5,0.9,0.9,1.4,1.2C825.2,287.2,823.2,289.4,821.4,291.9z" />
	<path fill="#B09D84" d="M834.5,274c-0.1,1.4-0.6,2.8-1.5,3.9c-0.1-0.6,0-1.3-0.8-1.6c0.3-1.7,0.5-3.4,1.4-4.8   C834,272.3,833.3,273.5,834.5,274z" />
	<path fill="#29251F" d="M826.1,284.1c-0.1-0.7-0.1-1.3,0.8-1.6C826.6,283.1,826.3,283.6,826.1,284.1z" />
	<path fill="#CDB899" d="M798.9,281.8c-1.4,2.2-1.4,5.1-3.1,7c-0.1-0.4-0.1-0.7-0.2-1.4c-2.7,3.1-3.7,7.4-6.8,9.8   c3.7-10.8,5-22.1,7.7-33.1C796.6,270.1,799.3,275.9,798.9,281.8z" />
	<path fill="#CBB698" d="M786.5,287.1c1.9-11.3,3.7-22.6,6.4-33.8c1.7,12.6-2.4,26.3-5.7,38.6c-1.2,0.5-0.3,1.5-0.7,2.3   c-1.3-0.9-0.6-2.6-0.6-3.8C787,289.4,786.5,288.2,786.5,287.1z" />
	<path fill="#3C362D" d="M797.5,271.7c-0.3-2.1-0.5-4.2-0.8-6.2c2.4-4.6-1-11.7,1.5-16.2c0.3,7.1-0.9,15.1,0.7,21.7   c-0.1,1.5,0.8,3.5-0.6,4.6C797.8,274.3,798.9,272.7,797.5,271.7z" />
	<path fill="#9F8E77" d="M785.7,291.8c0.3,0.8-0.3,1.9,0.8,2.4c-0.8,2.3-1.6,4.5-2.3,6.8C782.9,298.4,785.5,294.7,785.7,291.8z" />
	<path fill="#3C362D" d="M796.5,264.1c-0.5,1.5-1,3-1.4,4.6c-0.5-3.3,0.6-6.4,1.1-9.7C796.8,260.7,796.7,262.4,796.5,264.1z" />
	<path fill="#776D5B" d="M793.6,257.1c-0.1-1.3,0.1-2.7-0.7-3.8c0.2-1.5,0.5-3.1,0.7-4.6C795.1,250.9,794.5,254.6,793.6,257.1z" />
	<path fill="#1F1A16" d="M799,242.3c0,1.4,0.3,2.8-0.7,4.1C798.3,245,797.7,243.4,799,242.3z" />
	<path fill="#9F8E77" d="M786.7,293.5c-0.2-0.7-0.2-1.3,0.6-1.7C787,292.4,786.9,293,786.7,293.5z" />
	<path fill="#A09078" d="M855.4,281.7c-0.2-0.4-0.7-0.9-0.6-1.2c1.4-2.2-0.6-6,2.1-7.2C857.5,276.3,856.4,279,855.4,281.7z" />
	<path fill="#615C4E" d="M830.6,308.9c2.1-1.5,4.1-3,6.3-4.6c0.2,0.2,0.4,0.5,0.7,0.7c-2.1,1.8-4.3,3.6-6.9,4.7l-0.1-0.1   C830.6,309.3,830.6,309.1,830.6,308.9z" />
	<path fill="#80715F" d="M891.1,285.7c1.3-3,1.2-7,3.6-9.2c0.1,3.7-1.5,7.4-2.9,10.8C891.7,286.8,891.4,286.3,891.1,285.7z" />
	<path fill="#4C4136" d="M891.1,285.7c0.3,0.5,0.5,1,0.8,1.6c-0.5,1.3-0.6,2.7-1.7,3.8c-0.1-0.7,0.1-1.4-0.9-1.6   C890,288.2,890.6,287,891.1,285.7z" />
	<path fill="#9B8F78" d="M871.7,309.6c5.8-4.4,10.2-10.1,13.8-16.4c0.3,0.3,0.6,0.6,0.9,1c-3.7,6-7.7,11.7-13.1,16.4   C872.6,310.4,871.8,310.6,871.7,309.6z" />
	<path fill="#CAB89D" d="M886.4,294.2c-0.3-0.3-0.6-0.6-0.9-1c0.5-1,1-2.1,1.6-3.1c0.3,0.4,0.7,0.7,1,1.1   C887.5,292.2,886.9,293.2,886.4,294.2z" />
	<path fill="#CAB89D" d="M888,291.2c0.2-0.3,0.4-0.6,0.6-0.9C888.4,290.6,888.2,290.9,888,291.2z" />
	<path fill="#615C4E" d="M830.7,309.7c-0.4,0.7-0.8,1.5-2.1,1.2c0.4-1,1.1-1.3,2-1.3L830.7,309.7z" />
	<path fill="#080706" d="M836.8,290.2c-0.3-2.3,3.5-4.9,1.2-6.4c-0.3-0.2-0.3-0.9-0.4-1.3c4.8-8.9,7.3-18.6,9.4-28.5   c0.7-0.4,1.5-0.8,2.2-1.2c0.1-1-0.2-1.8,0.1-2.6c1.7,9.2-4.5,19.7-6.2,29.3c-0.8,0.6-0.8,1.5-0.8,2.3l0,0c-1.5,3.4-2.6,7-4.7,10.1   C836.7,291.5,836.9,290.8,836.8,290.2z" />
	<path fill="#706755" d="M837.6,291.8c0.5-0.8,1-1.6,1.5-2.4c0.3,0.3,0.6,0.6,0.8,0.8c-0.8,1.4-1.4,3-3,3.9   C837.1,293.4,837.3,292.6,837.6,291.8z" />
	<path fill="#312D25" d="M836.1,295.7c-0.1,0.2-0.2,0.3-0.3,0.5C835.9,296.1,836,295.9,836.1,295.7L836.1,295.7z" />
	<path fill="#D7C0A1" d="M847,253.9c-1,7.8-10.8,38.9-18.1,39.4c3.2-8.4,15.7-29.5,8.6-36.5c0.6-4.8,2.4-9.3,2.6-14.3   c1-1.5,0.6-3.2,0.6-4.8c5.8-5.7,5.2-15.9,8.6-23.2c2.2-0.2,1.4,2.5,1.5,3.8c-1.4,1.7-0.5,4.1-0.8,6.2c-1.4,0.7-0.5,2.6-0.8,3.9   c-1.3,0.7-0.6,2-0.8,3.1c-1.4,0.8-0.5,2.6-0.8,3.9c-1.2,0.6-0.6,2.1-0.8,3.1c-1.2,0.8-1.2,4.7,0,5.5c0.2,1.9-0.6,3.5,0.7,5.5   c1.6-2,0.5-4.6,0.9-7c0.8-0.3,0.8-0.9,0.8-1.6l0,0c0.2-0.3,0.5-0.5,0.7-0.8c0-0.3,0-0.5,0-0.8c0.3,0,0.5,0,0.8,0   c-0.3,3.6-0.9,7.3-1.5,10.9c-0.1,0.2-0.2,0.4-0.1,0.6c-0.6-0.1-1.2-0.2-2-0.4C847,251.6,846.7,252.7,847,253.9z" />
	<path fill="#231D18" d="M831.3,292.5c2.1-3.4,4.2-6.7,6.3-10.1c-0.1,1.7,2.3,1.7,0.9,3.2c-0.2-0.1-0.4-0.2-0.6-0.4   c-1.6,2.7-3.4,5.3-5.1,7.9c-0.2,0-0.4,0.1-0.5,0.3C831.9,293.1,831.6,292.8,831.3,292.5z" />
	<path fill="#AB9A80" d="M863.2,288c-1.3,1.8-2.5,3.7-3.8,5.5c-0.3-0.3-0.6-0.6-0.9-0.9c1.2-1.9,2.5-3.7,3.7-5.6   C862.6,287.3,862.9,287.7,863.2,288z" />
	<path fill="#585345" d="M836.2,288.1c0.6-0.9,1.1-1.9,1.7-2.8c0.2,0.1,0.4,0.2,0.6,0.4c-0.5,1.1-0.9,2.1-1.4,3.2   C836.7,288.6,836.5,288.3,836.2,288.1z" />
	<path fill="#D7C0A0" d="M882.6,269.4c-0.9,6.7-3.6,13.1-7.2,19c-0.4-0.4-0.6-0.7-0.9-1c-3.6,4.2-8.1,9.3-13.8,9.9   c4-7.2,10.9-14.2,12.8-23.1c0.2-0.1,0.4-0.1,0.6-0.2c0.1,0.7,0.2,1.4,0.4,2.8c2.9-3.8,2-7.5,5-11.5c0,3.6,0,6.4,0,9.7   C881.3,272.9,881.1,271.1,882.6,269.4z" />
	<path fill="#D8C1A2" d="M869.5,277.4c0,0.5-0.6,0.9-0.8,1.4c0,0,0,0,0,0c-1,0.1-0.9,0.8-0.9,1.5l0,0c-1.2,0.3-0.6,1.7-1.5,2.4l0,0   c-0.8-0.3-0.9-1-0.9-1.7c0.8-0.3,0.7-0.9,0.8-1.5c0.7-0.3,0.7-0.9,0.7-1.6c0.8-0.3,0.8-0.9,0.7-1.6l0,0c2.9-6.8,4.7-15.4,4.7-23.2   c0.4,0.6,0.7,1.2,1.4,2.3c0.7-5.6,0.8-10.3,1.8-15.6c2.4,3-0.3,8,2.8,10.7c0.1-2,0.2-3.6,0.2-5.1c1.3,1.3,0.2,2.9,0.7,4.2   c-4.2,5-1.5,12.2-3.9,17.5c-0.1-1-0.2-1.9-0.3-2.9c-2.6,2.7-1.6,7.8-4.4,10.7c-0.9,0.2-0.9,0.8-0.9,1.5   C869.9,276.7,869.7,277.1,869.5,277.4z" />
	<path fill="#62584C" d="M885,265.7c-0.6-5.2-1.2-10.3-0.9-15.6c0.2-0.2,0.5-0.5,0.7-0.7C885.8,254.7,886.2,260.3,885,265.7z" />
	<path fill="#4C453B" d="M878.8,245.4c-0.1,1.5-0.1,3-0.2,5.1c-2.7-2.5-1.3-6.5-2.1-9.8c0.9-1.2,0.7-2.6,0.8-3.9   C878.1,239.6,878.3,242.5,878.8,245.4z" />
	<path fill="#564C40" d="M872.5,272.5c1.2-2.6,0.8-6.5,2.9-8.4c0.7,3.4-0.8,6.5-1.4,9.8c-0.2,0.1-0.4,0.1-0.6,0.2   C873.1,273.6,873.4,272.8,872.5,272.5z" />
	<path fill="#998A76" d="M884.7,249.4c-0.2,0.2-0.5,0.5-0.7,0.7c-1.3-2.7-2-6.7-2-9.7C884.3,242.2,884.6,246.4,884.7,249.4z" />
	<path fill="#B8A991" d="M890.2,246.3c-0.2-0.8-0.4-1.6-0.6-2.5c0.2,0,0.5,0,0.7,0C890.2,244.7,890.2,245.5,890.2,246.3z" />
	<path fill="#776A5A" d="M885.6,277.9c0.1,0.9,0.3,1.8-0.7,2.4C884.8,279.4,884.7,278.5,885.6,277.9z" />
	<path fill="#9B957F" d="M873.2,223.8c-0.2-0.3-0.4-0.6-0.6-0.9C872.8,223.2,873,223.5,873.2,223.8z" />
	<path fill="#B8A991" d="M889.4,243.3c-0.2-0.3-0.3-0.6-0.5-1C889,242.6,889.2,242.9,889.4,243.3z" />
	<path fill="#D5BF9F" d="M888.8,274.1c-0.1-0.9-0.1-1.8,0.6-2.5C889.5,272.5,889.8,273.4,888.8,274.1z" />
	<path fill="#CAB89D" d="M887.2,289.5c0.2-0.6,0.4-1.2,0.6-1.7C888,288.5,888,289.2,887.2,289.5z" />
	<path fill="#B7A58D" d="M872.5,253.1c-0.1,4.1-0.4,8.5-1.5,12.5c-0.2-0.6,0-1.3-0.8-1.5C871.2,262.1,871,252.6,872.5,253.1z" />
	<path fill="#7F7161" d="M870.2,264.1c2,1.6,0,5-0.8,6.9c-0.2-0.5,0.1-1.3-0.7-1.5C868.5,267.6,869.7,265.9,870.2,264.1z" />
	<path fill="#A89E87" d="M867,224.6c0.2,0.2,0.5,0.5,0.7,0.7C867.5,225.1,867.3,224.9,867,224.6z" />
	<path fill="#A89E87" d="M866.2,223.8c0.2,0.3,0.5,0.5,0.7,0.8C866.7,224.3,866.5,224.1,866.2,223.8z" />
	<path fill="#27231D" d="M868.7,269.5c0.9,0.2,0.6,1,0.7,1.5c-0.5,1.8-0.8,3.7-1.6,5.4l0,0c-2.5,5.7-5.7,11.1-9.3,16.3   c-0.7-0.2-0.7-0.7-0.5-1.2C861.9,284.3,865.4,277,868.7,269.5z" />
	<path fill="#110202" d="M80.6,247.8c-1.5,0.3-3,1.3-4.3,0.1C76.2,245.7,79.5,246.8,80.6,247.8z" />
	<path fill="#73635B" d="M69.5,246.5c0.9-0.8,2.5-0.2,1.6,1.1C70.5,247.2,69.6,247.2,69.5,246.5z" />
	<path fill="#9F8E77" d="M786.5,287.1c0.1,1.1,0.6,2.3-0.6,3.2C785.8,289.2,785.7,288,786.5,287.1z" />
	<path fill="#D5BF9F" d="M843,279.4c2-7.7,4.7-15.3,6.3-23.1c0.8-0.7,0.7-1.5,0.6-2.4c0.2-0.2,0.2-0.4,0.1-0.7   c2.6-10.4,4-21.1,3.7-31.8l0.3,0c1.7,6,0.6,12.1,0.2,18.4c1.2,1.1,1.9,2.1,2.6,4c0.1-1.7,0.2-2.5,0.9-3.8   c-0.4,14.6-6.6,28.2-13.2,41c-0.8,0.3-0.8,0.9-0.7,1.5c-0.8,0.3-0.8,0.9-0.8,1.5l0,0c-1.2-0.5-0.6-1.6-0.8-2.3l0,0   C843.4,281.3,843,280.3,843,279.4z" />
	<path fill="#F5DFBF" d="M857.7,240c-0.7,1.3-0.8,2.1-0.9,3.8c-0.7-1.8-1.3-2.8-2.6-4c2.2-9.3-1.6-18.7,0.4-27.7   C857.2,221.3,858.8,230.5,857.7,240z" />
	<path fill="#B19E83" d="M842.2,281.8c0.2,0.8-0.4,1.9,0.8,2.3c0,0.3,0,0.5,0,0.8c-1.1,1.8-2.1,3.6-3.2,5.3   c-0.3-0.3-0.6-0.6-0.8-0.8C840.1,286.9,841.2,284.3,842.2,281.8z" />
	<path fill="#D1C0A4" d="M854.6,212.2c-0.3,0.5-0.5,1.1-0.8,1.6c-1.1-2.2-0.5-4.8-1.5-7c0.2,0,0.4,0,0.6-0.1   c0.3,0.3,0.5,0.6,0.8,0.9C854,209.1,854.3,210.6,854.6,212.2z" />
	<path fill="#817564" d="M853.8,207.6c-0.3-0.3-0.5-0.6-0.8-0.9c0.1-0.5,0.1-1,0.2-1.5C854,205.8,853.9,206.7,853.8,207.6z" />
	<path fill="#B19E83" d="M843.8,282.5c-0.1-0.7,0-1.3,0.7-1.5C844.3,281.5,844.1,282,843.8,282.5z" />
	<path fill="#B19E83" d="M843,284.1c-0.1-0.7,0-1.3,0.8-1.5C843.6,283.1,843.3,283.6,843,284.1z" />
	<path fill="#332D25" d="M812.4,246c-0.7-0.4-1.3-0.8-1.8-1.4c0.1-2.8,1.5-5.2,2.3-7.7c0.3,0.6,0.5,1.1,0.8,1.7   C813.2,241.1,812.3,243.5,812.4,246z" />
	<path fill="#FAE4C3" d="M849.3,214.5c-3.4,7.3-2.8,17.6-8.6,23.2l0,0c-0.3-0.2-0.6-0.4-1-0.7c-0.8,2.9-1.2,5.9-3.5,8.2   c-1-0.2-1-0.9-0.8-1.5c3.2-10.9,4.5-22.5,13.1-30.8C849.3,213.2,849.2,213.9,849.3,214.5z" />
	<path fill="#363028" d="M838.4,242.3c0.3-1,0.6-2,0.9-3c1.4,2.2,1.1,5.5,0,7.9c-0.3-0.8,0.3-2-0.9-2.5   C838.4,243.9,838.4,243.1,838.4,242.3z" />
	<path fill="#363028" d="M838.3,245.3c0,0.9,0.4,1.8-0.6,2.4C837.6,246.8,837.7,246,838.3,245.3z" />
	<path fill="#FAE4C3" d="M846.9,245.4c-0.2-1,0.5-2.6-0.8-3.1c0-0.8,0-1.5,0-2.3c1.2-0.5,0.6-2.1,0.8-3.1c1.2-0.5,0.6-2.1,0.8-3.1   c1.3-0.7,0.5-2,0.8-3.1c1.5-1,0.4-3.1,0.8-4.6c1.2-0.5,0.6-2.1,0.8-3.1c1.5-1.9,0.5-4.7,0.8-7c2,4.6,0.2,11.1,0.8,16.3l0,0   c-1.5,1.8-1.1,5.3-1.6,7.7c-0.2,0.3-0.5,0.5-0.7,0.8l0,0c-1.1,0.4-0.7,1.5-0.8,2.3C848,243.9,847.4,244.7,846.9,245.4z" />
	<path fill="#2C2620" d="M853.2,233.2c-0.3,6.8-1.5,13.5-3.2,20.1c0-1.2,0-2.2-0.8-3.2c0.7-5.9,2.2-11.8,2.3-17.8l0,0   c1-1.4,0.4-3.1,0.8-4.6C853.5,229.3,853.1,231.3,853.2,233.2z" />
	<path fill="#817564" d="M852.3,206.7c1.3,4.8,1.7,9.7,1.7,14.7l-0.3,0c-0.4,0.8-0.9,1.6-1.3,2.3c-0.1-4.6,0.2-9.2-0.8-13.7   C851.4,209,850.6,207.5,852.3,206.7z" />
	<path fill="#5D5447" d="M852.4,223.8c0.5-0.8,0.9-1.5,1.3-2.3c-0.2,3.9,0.7,8-0.5,11.7C853.5,229.9,852.1,227.1,852.4,223.8z" />
	<path fill="#423A30" d="M798.3,275.6c1.1-0.6,0.5-1.7,0.8-2.5c0.2,1.6,3.2,5-0.1,4.9C798.7,277.1,798.5,276.4,798.3,275.6z" />
	<path fill="#423A30" d="M798.8,270.9c-1.1-0.7-0.6-1.7-0.6-2.6C798.5,269.2,798.7,270.1,798.8,270.9z" />
	<path fill="#29251F" d="M822.1,284.7c0.3,0.3,0.6,0.6,0.9,0.9c-0.6,0.7-1.1,1.5-1.8,2.3c-0.3-0.4-0.5-0.7-0.7-0.9   C821,286.3,821.5,285.5,822.1,284.7z" />
	<path fill="#29251F" d="M823.6,282.3c-0.2,0.4-0.4,0.7-0.7,1.1C823.1,283,823.3,282.6,823.6,282.3z" />
	<path fill="#29251F" d="M822.9,283.3c-0.2,0.3-0.4,0.5-0.5,0.8C822.6,283.8,822.7,283.6,822.9,283.3z" />
	<path fill="#6A5D4E" d="M799,277.9c0.2,0,0.5,0,0.7,0c-0.2,1,0.5,2.3-0.6,3.1C799,280,799,279,799,277.9z" />
	<path fill="#B8A98D" d="M819.9,291.1c-0.7,4-5.3,5.7-6.2,9.3C810.8,299,818.2,292.3,819.9,291.1z" />
	<path fill="#B8A98D" d="M821.4,289.5c-0.3,0.5-0.6,1-0.8,1.5c-0.2,0-0.5,0.1-0.7,0.1c0.3-0.7,0.7-1.3,1-2   C821,289.3,821.2,289.4,821.4,289.5z" />
	<path fill="#29251F" d="M822.9,285.7c0.2-0.3,0.5-0.5,0.7-0.8c0,0.3,0,0.5,0,0.8c0,0,0,0,0,0C823.5,285.6,823.2,285.7,822.9,285.7z   " />
	<path fill="#C1AC8F" d="M862.2,287c1.1-2,2.2-4,3.3-5.9c0,0.7,0.1,1.4,0.9,1.7c-1.1,1.8-2.1,3.5-3.2,5.3   C862.9,287.7,862.6,287.3,862.2,287z" />
	<path fill="#C1AC8F" d="M870.1,276.3c0-0.7,0-1.3,0.9-1.5C870.7,275.4,870.4,275.9,870.1,276.3z" />
	<path fill="#C1AC8F" d="M867.9,280.3c-0.1-0.7-0.1-1.4,0.9-1.5C868.4,279.3,868.1,279.8,867.9,280.3z" />
	<path fill="#C1AC8F" d="M867,281.7c0-0.7,0-1.3,0.9-1.5C867.6,280.8,867.3,281.2,867,281.7z" />
	<path fill="#C1AC8F" d="M866.4,282.7c0.2-0.3,0.4-0.6,0.6-0.9C866.8,282.1,866.6,282.4,866.4,282.7z" />
	<path fill="#C1AC8F" d="M868.7,278.8c0.2-0.3,0.4-0.6,0.6-0.9C869.1,278.2,868.9,278.5,868.7,278.8z" />
	<path fill="#C1AC8F" d="M869.5,277.4c0.2-0.4,0.4-0.7,0.6-1.1C869.9,276.7,869.7,277.1,869.5,277.4z" />
	<path fill="#CDB89B" d="M837.5,256.8c0.6,0.6,1.1,1.2,1.7,1.8c-1.2,0.5-0.9,1.5-0.7,2.4c-0.5,3.8-1.7,7.3-3.2,10.8   c-1.3,0.4-0.3,1.5-0.8,2.3c-1.2-0.5-0.5-1.7-0.9-2.5C835,266.9,835.1,261.4,837.5,256.8z" />
	<path fill="#363028" d="M839.1,248.5c0.1,0.9,0.2,1.8-0.6,2.5C838.5,250.1,838,249.1,839.1,248.5z" />
	<path fill="#B09D84" d="M834.4,268.4c0.2,0.7,0.3,1.4-0.5,1.8C834,269.6,834.2,269,834.4,268.4z" />
	<path fill="#695D4E" d="M823.7,285.7c0-0.3,0-0.5,0-0.8c0.3-0.2,0.5-0.5,0.8-0.7C824.2,284.7,823.9,285.2,823.7,285.7z" />
	<path fill="#524439" d="M838.5,260.9c-0.2-0.9-0.5-1.9,0.7-2.4c1.3,2.3,1.2,4.7,0.1,7C838.9,264.1,839.9,262,838.5,260.9z" />
	<path fill="#B09D84" d="M834.7,273.5c-0.1-0.7-0.2-1.4,0.7-1.8C835.1,272.3,834.9,272.9,834.7,273.5z" />
	<path fill="#423A30" d="M797.5,271.7c1.1,0.6,0.6,1.6,0.6,2.5C797.9,273.4,797.7,272.6,797.5,271.7z" />
	<path fill="#2C2620" d="M847,253.9c-0.2-1.2,0.1-2.4,0.2-3.7c0.8,0.2,1.4,0.3,2,0.4c0,0.6,0,1.2,0,2.1   C848.5,253.1,847.7,253.5,847,253.9z" />
	<path fill="#B19E83" d="M843,279.4c0,0.9,0.4,1.9-0.8,2.3C842.2,280.9,842.2,280,843,279.4z" />
	<path fill="#2C2620" d="M849.9,253.9c0.1,0.9,0.1,1.7-0.6,2.4C849.3,255.5,848.9,254.5,849.9,253.9z" />
	<path fill="#F6DFBF" d="M846.9,245.4c0.5-0.8,1-1.5,1.5-2.3c-0.3,2.2,0.6,4.4-0.8,6.3C846.5,247.9,847,246.6,846.9,245.4z" />
	<path fill="#F6DFBF" d="M851.6,232.3c0.2,2.4-0.1,4.7-0.8,6.9c-0.3,0-0.5,0-0.8,0C850.7,237.1,850.1,233.9,851.6,232.3z" />
	<path fill="#605144" d="M840.1,242.5c0-1.2,0-2.3-0.9-3.2c0-0.5,0-0.9,0-1.4c0.5-0.1,0.9-0.1,1.4-0.2l0,0   C840.7,239.3,841.1,241,840.1,242.5z" />
	<path fill="#F6DFBF" d="M850.8,218.3c-0.1,1.6,0.5,3.4-0.8,4.6C850.1,221.4,849.6,219.6,850.8,218.3z" />
	<path fill="#F6DFBF" d="M849.2,228.4c-0.1,0.8,0.4,1.8-0.8,2.3C848.6,229.9,848.1,228.9,849.2,228.4z" />
	<path fill="#F6DFBF" d="M848.5,231.5c-0.1,0.8,0.4,1.8-0.8,2.3C847.8,233,847.4,232,848.5,231.5z" />
	<path fill="#F6DFBF" d="M850,224.5c0,0.6,0,1.3-0.7,1.6C849.2,225.4,849.3,224.8,850,224.5z" />
	<path fill="#F6DFBF" d="M847.7,235.3c0,0.6,0,1.3-0.7,1.6C846.9,236.3,846.9,235.6,847.7,235.3z" />
	<path fill="#F6DFBF" d="M846.2,242.3c0.8,0.3,0.8,0.9,0.8,1.6C846.2,243.6,846.2,243,846.2,242.3z" />
	<path fill="#F6DFBF" d="M848.5,242.3c0-0.6,0-1.3,0.8-1.6C849.2,241.4,849.2,242.1,848.5,242.3z" />
	<path fill="#F6DFBF" d="M846.9,238.4c0,0.6,0,1.3-0.7,1.6C846.2,239.4,846.2,238.7,846.9,238.4z" />
	<path fill="#F6DFBF" d="M849.2,240.8c0.2-0.3,0.5-0.5,0.7-0.8C849.7,240.3,849.5,240.5,849.2,240.8z" />
	<path fill="#C1AC8F" d="M867.8,276.3c0.2-0.6,0.5-1.2,0.7-1.7C868.6,275.3,868.7,276.1,867.8,276.3z" />
	<path fill="#C1AC8F" d="M867.1,277.9c0.2-0.5,0.5-1.1,0.7-1.6C867.8,277,867.9,277.6,867.1,277.9z" />
	<path fill="#C1AC8F" d="M866.3,279.5c0.2-0.5,0.5-1,0.7-1.5C867.1,278.6,867,279.2,866.3,279.5z" />
	<path fill="#C1AC8F" d="M865.5,281c0.3-0.5,0.5-1,0.8-1.5C866.3,280.2,866.3,280.8,865.5,281z" />
	<path fill="#D7C0A1" d="M840.7,237.7c-0.5,0.1-0.9,0.1-1.4,0.2c0.1-0.3,0.3-0.6,0.4-0.8C840.1,237.3,840.4,237.5,840.7,237.7z" />
</g>
</svg>