<?xml version='1.0' encoding='utf-8'?>
<svg xmlns="http://www.w3.org/2000/svg" version="1.2" baseProfile="tiny" id="Layer_2_00000183226384979102707020000018229574822610625725_" x="0px" y="0px" viewBox="0 0 900 600" overflow="visible" xml:space="preserve">
<g>
	<path d="M300.7,400.8c-3.1-0.2-5.8-0.7-9.1-1.1c-2.9-5.7-0.4-12.7-1.8-18.9c7.8-4.9,17.3-2.9,26.3-4.1c-0.8-4-4.4-8.2-2.1-12.2   c3.8,9.1,8.2,21.7,19.4,22.6c0,0.6,0,1.2,0,1.8c59.2,14.7,88.3,0.9,142.9-15.7c0.3,0.3,0.5,0.5,0.8,0.8   c-28.6,52.6,18.7,106.9,15,161.3c-1.4,1.7-0.2,3.9-0.5,5.8c-0.9,2.7-1.9,6,1.4,7.8c0.2,0.9,0.8,0.9,1.5,0.7l0,0   c0.1,1.1,2.2,0.7,2.7,1c10-5.1,14.5-8.6,20.8-17.7c-11.8-54.8,1.2-111.1-7.7-165.8c3.5-5.9,0.2-13.3,2.8-19.8   c-2.6-3.9-7.7-6.5-7.8-11.5c-42.8-12.5-88.3-14.1-132.5-16.9c-1.7,0.1-1.7-1.4-1.6-2.9c-7-1.3-13.5-2.9-20.2-5.2   c0.5-0.3,1-0.5,1.6-0.8c11.6,0.4,22.7,8.7,34.2,5.4c-16.9-6.1-34.3-11.1-52.3-12.9c-5,9.6-11.9,17.7-16.1,27.9   c-1.1-0.4-0.5-1.5-0.8-2.2c3.1-12.8,12.3-22.5,17.6-34.4c-21.4-17.6-25.2-32.7-33-57.7c3.9-15.5,3.1-31.6,7.2-46.9   c8.2-22.9-2.9-59,26.7-68.2c1.3-3.8,0.8-7.6,0.8-11.7c-2.1,2.5-1,5.2-3.5,7.5c5-24.5-6.1-47.2-11.9-70.6c-1.3-7.7,5-13.2,7.2-20   c4-11.1,14.1-7.1,22.7-7c3.3-3.8,8.7-6,11.1-10c15-7.6,44.7-4.6,55.7,8.5c-0.4,1.5,1.6,2.5,0.6,3.8c-2.2-1.6-3.8-4.6-6.5-5.1l0,0   c-4.5-6.5-20.7-9.7-28.3-7.9c0,0,0.1-0.2,0.1-0.2c-3.8-1.6-8.3-0.1-12.2,0.2c-1.2,1.8-3.1,0.8-4.5,2c-1.3,1.5-4.1,1.9-4.3,4   c2.2,0.8,4.8,0.4,7.2,1.2c0.8,1.2,1.9,0.6,2.9,0.6c-3.7,2-8.9,0.3-13.3,0.5c-3.7,2.8-8.7,6.2-8.5,11.1c-3.3,3.1-3,8.2-3.7,12.5   c1.8,1.2,3.5,2.3,5.2,3.4c-0.3,0.8-1,0.7-1.7,0.9c-1.2-0.5-2.5-0.9-4.1-1.5c0.4,1.2,0.6,2,0.8,2.7c-0.3,0.6-0.5,1.2-0.8,1.7l0,0   c-2.4,3.8,2.3,11,5.1,14.3c-0.2,0.8-0.9,0.4-1.6,0.6c1.5,3.5,2.3,7.7,5.9,9.7c-0.4,0.4-0.8,0.7-1.3,1.1c0.7,0.7,0.9,1.8,1.9,1.8   c0.1,0.7,0.7,1.4,0.9,2.1c0,0,0,0,0,0c0.2,0.5,0.4,1.1,0.7,1.6c-0.1,0.2,0,0.4,0.2,0.5c0.3,1,0.9,1.5,2,1.2c-0.2-0.8-0.4-1.3-0.5-2   c0.6,0.1,0.9,0.1,1.3,0.1l0,0c1.3,0.4,2.5,2,3.9,0.7l0.3,0l0.2-0.2c1.1,0.7,0.7,1.8,0.6,2.9c-1.3,0.7-2.7,1.4-4.1,2.2   c4.3,30.9-13.8,28.9,0.5,33.9c9.7,7.4,19.8,14.6,26.7,25.1c2.4,3.3,5.4,6.2,9.4,7.5c9.3,2.2,21.9,8.5,30.4,3.1   c-5.1-10.3-11.1-22.6-21.4-28.4c-6.2-3.6-8.9-20.8-6.9-27.4c0.5-0.1,0.9-0.2,1.5-0.3c0.5,2.9-1,6.8,0.8,9.1   c2.9,20.8,2,11.1,13.9,23.2c7.7,11,17.5,20.4,28.4,28.3c6.9,7.4,17.3,13.7,17.9,24.8c2.8,15.1-4.7,28.2-19.6,32.1   c0.3,0.8,0.5,1.6,0.7,2.3c-3.7,8-2.3,18.4-9.4,24.6c-0.8-0.2-0.7-0.9-0.7-1.5c1.8-5.7,4.1-11.6,4.2-17.6c-2.3-0.9-4.2-1.7-6.3-2.7   c-0.8,1.5-1.5,2.9-2.3,4.4c-1.3-1.1-0.4-3.1-0.7-4.6c-27,1.6-54.2,4-80.1,12.3c7.2,23.5-1.6,45.7-12.8,66.5   c11.2,0.9,22.5,5,33.2,6.5c-0.1-1.3-0.3-2.5-0.4-3.8c0.2-0.5,0.5-1,0.7-1.5c0.7,2,1.4,4.1,2.1,6.4c14.8,3.7,30,10.6,45.6,6.6   c0.3-0.8,0.6-1.5,0.9-2.1c2.1-1.8-0.7-6.1,1.4-8c2,4.9,0.2,9.2,1,14.2c41.3,4.5,86.2,1,124.9,16.8c1.8,4.3,7.8,5.6,8.2,10.7   c7,59.8-3.3,121,7.1,180.4c1.2-0.5,2.2-0.9,3.3-1.3c2,0.4,4.6,1.1,5.1,3.3c8.7,13.3,22.8,21,35.1,30.8c11.5,9.3,30.5,3,24.1,25.2   c-12.6,3-25.8,1.9-38.7,3.1c-0.9,1.7-0.4,3.8-1.8,5.1c-24.3,3.6-50.1,5.4-74.4,0.4c-14.1-1.2-29.1,1.3-42.2-5.3   c-1.6-1.1-2.1-2.3-1.3-4.1c2.8-5.2,3.1-11.2,5.7-16.3c3.8-8.3,1.6-18.8,8.9-25.5c0.5,0.3,1.1,0.7,1.7,1.1   c5.3-18.6-3.3-39.9-7.3-58.5c0.3-0.4,0.5-0.8,0.9-1.3c-7.4-29.4-24.3-59.1-15.2-90.1c-7.3,1-11.4,3.8-17.6,3.4   c-0.9,1.2,0.3,2.5-0.2,3.9c-1.4,0.9-2.8,1.8-4.3,2.7c0.1,0.1,0.1,0.3,0.2,0.4c-3.7,0.5-7.3,1.1-11.1,1.7   c7.5,55.4,15.2,111.1,20.1,166.7c-7.3,6.4-19.3,0.8-18.4-8.8c-0.9-12.9-1.9-25.7-3.7-38.5c-0.5-17.6-4.5-34.9-6.7-52.3   c-2.4-21.8-1.7-43.6-6.1-65.2c-14.2-0.2-27.6,2.3-41.6,2.2c1.1,60.1-1.6,120.7-1.1,180.7c-3.4,4.8-12.9,7.5-17.1,2.7   c-5.1-0.3-5.1-0.3-6.4-5.3c-0.1-58.8,6-119.2,6-178.3c-13.1-0.8-26-2.4-39-3.6c-5.6,39.8-16.1,78.7-23.4,118.3   c-0.6-39.8,17.3-79,20-118.7C310.2,402.9,305.3,401.9,300.7,400.8z M537.6,542.5c1.9,1.7,10.2-5.6,13.5-6.5   c1.7-3.5,4.2-6.4,6.8-9.1c-11.4-52.9,1.2-107.5-7.6-160.4c3.7-5.3,0.7-12.8,2.6-19.1c-2.7-3.4-6.9-6.3-7.8-10.8   c-21.9-7-44.8-9-67.5-11.9c-5.5-1.3-11.8-1.7-17.8-1.9c15,5.1,43.4-0.4,52.5,14.2c-0.8-0.2-1.6-0.3-3.2-0.6   c4.4,4.1,8.7,8.5,7.5,14.9c-0.3,0.1-0.7,0.3-1.1,0.4c0.1,7.9-1,16.3-0.2,24c1,0,1.7,0,2.7,0c-0.8,0.9-1.5,1.6-2.2,2.3   c4.5,25.4,0.5,51.3,1.6,76.8c7.6,26.6,16.4,53.3,14.6,81.3C533.9,538.2,536.3,540,537.6,542.5z M334.2,23.7c-0.8,1.1-2.3,1.9-2,3.6   c0.5-0.3,0.9-0.5,1.3-0.7c0.2,0.2,0.4,0.4,0.6,0.6c-20.7,12.8-0.9,45,3.4,63.2c0.6-5.8-2.1-10.2-1.1-15.9   c5.7,13.3,1.5,27.6,3.2,41.4c0.5-2.3,0.8-3.7,1.1-5.2c2.2,2.9-2,6.5-1,9.2c1.3-0.1,2.4-0.7,3.5-1.5c0.1-1.2,0.3-2.4,0.4-3.6   c2.5-9-1.2-20.7,1.4-29.7c2.3,10.9,0.7,21.9,0.3,32.9c1.6-0.1,2.1-1.1,2-2.4c0,0,0,0,0,0c0.2-0.3,0.4-0.5,0.6-0.8   c0.4,0.7,0.8,1.3,1.2,2c8.3-1.6,2.5-19.7,0.4-25.3l0,0.1c0-1,0.1-2.1-0.8-2.9l0,0c0-1.1,0.1-2.2-0.7-3.2   c-2.4-7.8-4.5-16.3-7.1-23.9c-0.3,0.1-0.7,0.3-1,0.4c-1.5-13.1-0.9-26.4,8.7-36.2c1.4-0.8,0.7-2.7,1.6-4.2c-5-0.7-9.9-1.7-14.6,0.7   C334.7,22.1,334,22.8,334.2,23.7C334.2,23.7,334.2,23.7,334.2,23.7z M353.5,76.6c1.4,3.4,0,7.8,1.6,10.8c0.8-1.4,3.3-1.6,2.6-3.7   c-0.6,0.3-1.2,0.5-1.7,0.7c-0.6-1.1,0.6-1.9,0.5-3.1c-1.6-2-1.2-6.1-3.4-7.2C352.9,74.9,352.8,75.8,353.5,76.6z M352.2,88.2   c0.2-1.3-0.7-2.2-1.2-3.2c0,1.3-0.7,2.7,0.5,3.9c0.2,2.2,0.2,2.2,1.2,3.2C352.6,90.7,352.4,89.5,352.2,88.2z M343.6,41.1   c-0.5,11.5,0.4,23.6,6.9,33.5c-1.1-11.9-7.6-22.8-6.4-35.4c-0.1,0-0.3,0-0.4,0C343.8,39.8,343.7,40.5,343.6,41.1z M359,589.5   c4.2,0.4,13,2.4,13.8-3.7c-1.1-48.7,0.4-97.5-0.3-146.4c-4-0.3-7.3,1.7-11.4,0.6c-2.5,33.7-4.5,67.6-5.4,101.3   C356.1,550.3,349.1,588.1,359,589.5z M484.9,546.9c-2.8,12.3-5.3,24.6-10.2,36.5c12.3,5.9,26,3.6,38.9,4.2   c23.6,5.9,48.5,1.3,72.4,0.8c0.4-2.8,0.3-5.4-0.2-8.1c-8.3-0.8-14.8-5.8-21.6-10.2c-2.8,1.4-5.5,1.5-8.3,0.2   c-1.4-2.6,3.6-2.6,4-4.6c-0.6-0.5-1.3-1-1.9-1.4c-3.4,2.2-12.1,5.5-14.6,1.6c1.4-4.1,6.6-2.5,8.8-6.1c-4.6,1.1-8.4,2.5-13.1,2.1   c-5.8-3.4,5.5-5.1,8.1-5.1c-3.6-3-6-5.8-9.8-8c-4.1,2.1-8.1,4.3-12.7,4.6c-2.8-4.9,8-5.8,10.6-8.3c-3.3-4-6.4-7.8-9.6-11.6   c-3.5,0.9-6.2,3.1-8.1,6.1c-4.2,6.8-12.2,9.1-18.1,14c-4.4,3-10.6-2.8-13.3-6.1c-0.6-1.1,1.4-2.3-0.4-3.5   C485.4,545.1,484.6,545.8,484.9,546.9z M357.4,107.6c0.1,0.6,0.1,1.1,0.2,1.7c0.1,0,0.3,0,0.4,0c0-5.6,5.3-19.4,0.1-22.6   C352.4,92.2,358.5,100.8,357.4,107.6z M435.6,541.7c0.2,6,1.9,12.1,2,18.3c-0.2,4.3,0.4,9.3,5.8,8.8c-0.1,0.3-0.2,0.6-0.4,1.2   c2.8-0.2,5.4-0.1,7.5-2c-6.6-54.3-14.8-109.2-20.7-163.7c-3.1,0.6-6.6,0.1-9.6,1.3C426.5,450.5,431.5,497,435.6,541.7z    M324.2,386.8c0.1-0.3,0.2-0.7,0.4-1.2c-2.1-0.9-4.4-2.4-6.1-3.4c-0.3-1.3-0.6-2.2-0.8-3.3c-8.1,1.2-16.4,0.5-24.2,2.8   c-1.8,4.4-1.3,10.9,0,15.7c21.4,4,43.6,7.9,65.9,6.5c7.9-0.8,45.8,3.4,46.2-4.2c0.3,1,0.6,2,0.9,2.9c12.6-0.8,25.1-1,37.3-3.9   c0.5-1.1,1.2-2.1,0.9-3.5C404.9,397.1,361.8,403.5,324.2,386.8z M366.8,438.4c1.9,0.3,3.7-0.1,5.6-0.3c1-10,1.3-20.1,0.8-30.2   c-4.6,0.4-8.8-1.1-13.3-0.2c1.7,10.2,0.5,20.4,1.6,30.6C363.2,438.4,365,438.4,366.8,438.4z M425.5,392.8c-0.6,0.1-1.2,0.1-1.8,0.2   c0,0.1,0,0.3,0,0.4c14.7,1.3,29.7-1.7,43.7-6.1c1.2-2.1,0.8-4.5,2.5-6.3c0.8-0.8,0.7-1.3,0.8-3.2   C455,381.2,440.2,386.4,425.5,392.8z M351.4,175.6c0.9,0.2,2-0.2,2.5,1c-6.7,6.2-6.8,16.7-7.9,25.2c12.2-3.4,15.4-14.5,23-22.5   c18-22.8,0.9-45.9-18.6-60.6c-31.6,13.1-29.9,11.1-33.6,45.8c-1.2,13-3.9,25.7-7.4,38.4c-0.6,11,0.3,22.7-5.7,32.5   c10.5,22.7,7.8,33.3,28.2,51.7c2.4-0.3,2.6,2.4,4.2,3.8c1.5-2.4,2.5-4.8,3-7.4c0.4-1.3,1.8-0.3,2.7-1.3c1.8-3.6,3.7-7.5,4.5-11.3   c-6.7-12.8-8.4-27.1-13.6-40.4c6.2-9.9,6.8-22.4,10.9-33.2C345.8,189.9,344.7,180.6,351.4,175.6z M589.8,554.8   c1-0.4,2.2-0.6,2.3-2.3c-1.2,0.8-2.7,0.5-3.9,1.5c-3.2-0.2-9.4,2.9-10.7-1.1c2.4-3,6.1-2.1,9.7-3.4c-1.6-1.1-2.9-2-4.3-3   c-2.8,4.4-8.9,3.5-13.3,5.4c-3.3-5.3,6.8-6.2,10.2-7.3c-0.9-1-1.5-1.8-2.2-2.6c-4.1,2.2-8.2,4-12.6,4.7c-2.8-5.2,7.7-5.5,10.4-8.1   c-3.3-3.8-6.4-7.5-9.6-11.2c-3.6,0.9-6.3,3.1-8.4,6.2c-3.9,6.3-11.8,8-16.9,12.8c15.4,10.6,28.8,26.4,47.7,31   c0.4,0.7,0.8,1.4,1.3,2.1c0,0.9-0.1,1.9,0.8,2.7c10.3,0.6,20.7-2.3,30.9-1.4c8.6,2,3.6-7.2,3.4-11.9c-3.7-2.2-9-0.1-12.1-3.9   c-2.3-0.9-4.6-2.6-6.7-3.8c-1.7,0.2-2.8,1.1-3.5,2.1c-2.2,0.5-6.7,1.3-6.7-1.7c1.3-0.8,2.8-1.8,4.5-2.9c-0.8-0.6-1.5-1.1-2.1-1.6   C592.7,562.2,574.4,560.3,589.8,554.8z M392.8,219.8c16.2-0.3,32.5-5.3,48.6-1.3c0.3-8.2,13.1-7.6,16.8-16.2   c12.9-23-11.3-37.3-26.2-50.3c0.4,8.1-11.3,6.9-16.8,6.8c-28.9-3.2-32.7-24-55.1-38.2c-0.5,0.4-0.8,0.7-1.3,1   c16,15.5,30.5,37.8,12.2,57.9c-0.6,0.2-0.8,0.6-0.7,1.2c-0.2,0.1-0.2,0.3-0.2,0.5c-4,11.3-12.9,21-25.2,23.1   c-0.8,2.4-1.5,4.8-2.2,6.9c2.4,6.2,4.4,12,6.5,18C363.7,224.8,377.9,221.2,392.8,219.8z M517.6,466.9c-0.3,0-0.5,0-0.8,0.1   c-0.6,21.4,0.2,43,4.8,63.9c7.6-2,3.8,1.6,6.8,1.7c3.3-17.7-4.1-36.6-8.1-54c0.3-0.5,0.6-1,0.8-1.5   C519.8,473.7,519,470.2,517.6,466.9z M346.8,265.7c0.2-0.1,0.4-0.1,0.5-0.2c3.4-17,0.7-33-5.6-49.2c-1.1,6.5-6.8,12.1-4.7,18.5   C340.2,245.2,341.4,256,346.8,265.7z M350.8,79.8c-0.6-2.4-1.1-4.4-2.4-6.4C348.8,75.1,348.5,80.5,350.8,79.8z M418.5,315.9   c0-0.2,0-0.3,0-0.5c-0.7,0-1.3,0.1-2,0.1c0,0.2,0,0.3,0,0.5C417.2,315.9,417.8,315.9,418.5,315.9z" />
	<path fill="#020202" d="M300.7,400.8c1-0.3,1.7,0.4,2.6,0.7c-9.6,55.3-23.1,110.4-31.9,165.6c-0.3,0-0.7-0.1-1-0.1   C276.3,511.1,292,455.9,300.7,400.8z" />
	<path fill="#050505" d="M270.3,567.1c0.3,0,0.7,0.1,1,0.1c-0.2,0.5-0.5,1.1-0.7,1.6c1.2,3.9,1.5,4.4,4.1,6c0.5-0.6,1-1.1,1.6-1.7   c0.3,0.4,0.6,0.7,0.8,1c0.8-0.2,1.5-0.3,2.1-0.4c0.5,0.6,0.8,1.1,1.3,1.7c1.1-0.7,2.1-1.5,3.1-2.1c0.2-10.5,4.6-20.4,6.5-30.7   c1.2-7.6,2.9-16.1,4.3-24c2.1,14.3-3.9,28.9-6.6,43c-2.2,5.8-1,19.8-10.9,15.4c-1,0.3-2,0.7-2.9,1c-5-2.1-4.8-6.3-4-10.7   C269.9,567.1,270.1,567.1,270.3,567.1z" />
	<path fill="#0D0B0A" d="M403.7,106.9c-1.8-2.2-0.3-6.1-0.8-9.1c-0.6,0.1-1.1,0.2-1.5,0.3c2.7-7.2,29.5,4.7,21-11.4   c0.5-1.6,1.6-2.5,2.8-3.4c-1.1-4.1-5.3-2-7.8-2.5c-0.6-0.5-2-0.5-1.3-2.2c3.2-0.5,7.9,1.5,9.4-2.8c-1.9-1.3-1.4-3.5-1.8-5.3   c-0.8,0-1.4,0-2,0c0-0.5,0-0.9,0-1.4l0,0c0.6,0,1.3,0,1.4-0.9l0,0c1.2-0.2,2.2,2.7,3,0.7c1-0.6,1.9-1.1,2.8-1.7   c0-0.7,0.1-1.3,0.1-1.8c0.5,0.7,1,1.4,1.4,2.2c-0.8,1.7-2.3,2.5-3.9,3.4c-0.5,2.1,0.8,4,0.9,6.4c-0.5,0.6-1.1,1.4-1.8,2.3   c1.1,2.5,1.9,4.5-0.3,6.7c6,13.7-12.7,13-21.2,10.8C402.9,100.4,403.8,103.8,403.7,106.9z" />
	<path d="M430.5,67.8c-4.9-7.2-13-16.8-4.1-23.8c-0.8-4.4-8.6-18.9-5.9-21.8c4,8.5,11.8,19.2,4.2,27.8c1.1,0.1,1.9,0.2,3.2,0.3   c-1.3,0.9-2.1,1.5-3,2.1c1.1,4.8,2.4,7.3,6,11.4C431,65.1,431.4,66.5,430.5,67.8z" />
	<path fill="#0C0A08" d="M420.4,22.2c-1.2,0.4-0.7,1.5-0.9,2.3c-0.6-0.1-1.3,0.1-1.5-0.7c0.1-0.2,0.8,0,0.3-0.5   c-0.1,0.2-0.2,0.3-0.3,0.5c-0.4-0.2-0.8-0.4-1.4-0.7c-0.4,0.5-0.7,1-1.1,1.6c-4-1.8-4.1-6.7-8.5-8.3c-0.7,0.3-1.3,0.6-1.9,0.9   c-5.8-3.3-12.2-4.8-18.8-5.2c-0.2-0.4-0.3-0.8-0.4-1.1c-2-0.5-3.8,0.1-6.4-0.6c3.2-0.5,4.6-0.4,7.5-0.2c1,1.2,3,0.5,4.3,0.5   c2.1,1.5,4.6,0.6,7,1.5c0.2,0.1,0.7-0.5,1-0.7c1.9,0.8,3.8,1.5,5.8,2.3c0.5,0.8,1,0.7,1.5-0.1l0,0c2.4-0.1,3.5,2.9,5.8,2.9l0,0   c1.6,2.4,3.6,4.2,5.9,5.8c1.9-1.6-0.3-2.7-0.1-4.5C419.5,19,420.2,20.5,420.4,22.2z" />
	<path fill="#0B0B0A" d="M420.3,303c-2.1,1.9,0.7,6.1-1.4,8c1.3-14.1-4.7-29.1,0.2-42.6C419.7,279.7,419.3,291.5,420.3,303z" />
	<path fill="#110F0F" d="M434.8,240.8c0.1,0.6,0,1.2,0.7,1.5c-3.8,6.7-7.7,13.3-13,18.8c-0.2,0-0.4,0-0.7,0   C423.9,253.4,430.8,247.6,434.8,240.8z" />
	<path fill="#18110F" d="M312.4,343.3c0.1-1.4-0.4-2.9,0.8-4.1c0.7,0,1.4,0,2.1,0c-0.8,5.2-1.1,10.8-2.2,15.9c-0.4,0-0.9,0-1.3,0   C311.9,351.1,312.8,347.4,312.4,343.3z" />
	<path fill="#2C221E" d="M315.3,339.2c-0.7,0-1.4,0-2.1,0c0.5-0.3,0.9-0.6,1.7-1c0.9-3.1,0.9-6.8,2.7-9.9c0.3,0.7-0.4,1.8,0.8,2.2   C317.1,333.3,317,336.9,315.3,339.2z" />
	<path fill="#2C2320" d="M311.8,355.1c0.4,0,0.9,0,1.3,0c0,3.2,0,6.3,0.8,9.4c-0.3,0.6-0.5,1.1-0.8,1.7   C312.1,362.6,311.5,358.9,311.8,355.1z" />
	<path fill="#99B6B6" d="M444.9,217.6c-0.2-0.7-0.5-1.5-0.7-2.3c1.4-1,2.9-1,4.4-1.2C447.4,215.3,446.2,216.5,444.9,217.6z" />
	<path fill="#403C3A" d="M419.7,270.6c-0.2-0.8-0.5-1.5-0.7-2.3c0.5-1.5,0.9-2.9,1.4-4.4c0.2,0.3,0.5,0.6,0.7,0.9   C420.7,266.8,420.2,268.7,419.7,270.6z" />
	<path fill="#2C2320" d="M312.4,343.3c-0.3,2.7,0.8,5.9-0.5,8.2C311.7,348.7,311.5,346,312.4,343.3z" />
	<path fill="#C0B4B2" d="M362.5,9.3c-0.2,1.8-1.5,2.4-3,2.9C359.5,10.2,361,9.7,362.5,9.3z" />
	<path fill="#5B5653" d="M421.2,264.9c-0.2-0.3-0.5-0.6-0.7-0.9c0.2-0.9,0.5-1.8,0.7-2.7c0.4-0.2,0.9-0.2,1.3-0.2   C422.1,262.3,421.6,263.6,421.2,264.9z" />
	<path fill="#8F8580" d="M270.3,567.1c-0.2,0-0.4,0.1-0.5,0.1c0.2-1-0.3-2.1,0.6-3C270.4,565.2,270.3,566.1,270.3,567.1z" />
	<path fill="#5B5653" d="M422.5,261c0.2-0.2,0.4-0.5,0.7-0.7C423,260.6,422.7,260.8,422.5,261z" />
	<path fill="#F6D9C7" d="M372.6,319c44.2,2.8,89.7,4.4,132.5,16.9c0.1,5,5.1,7.6,7.8,11.5c-2.6,6.5,0.7,13.9-2.8,19.8   c8.8,54.7-4.1,111,7.7,165.8c-6.3,9.1-10.8,12.6-20.8,17.7c-0.6-0.1-2.1-0.3-2.7-1l0,0c0-0.2,0-0.4,0-0.7l0,0.1   c3.3,0.2,2.2-1.4,1.4-3.5c0-6.2,1.1-12.4,2.1-18.4c-4.2-15.4,2.8-32.7-2.4-47.4c-2,3-1.3,6.6-2.9,9.5c-0.6-1.9-1.1-3.8-1.7-5.7   c5.1-18-11.4-34.9-12.4-52.8c-0.6-20.6,0.3-41.4,7.8-60.7c1.5-0.7,3-1.1,4-2c1-0.9,3.1-0.3,3.3-2.7c-1.6-1.3-3.5-2.4-5.4-3.4   c0.3-3.4-11.1-2.2-12.4,0.3c-41.9,1.1-83.4,22.7-125.4,8C343.9,351,354.9,328.3,372.6,319z M499.2,343.6c-0.3-0.2-0.6-0.4-0.9-0.7   c-2,0.3-1.4,2.8-2,4.4c1.5,2.1,3,5.7,5.7,6.3c1.6,3.4,2.4,8.4,5.8,10.3c-0.3-3.9-2.4-7.6-4.3-11c0,0,0,0,0,0   c0.7-1.2,1.5-2.4,2.2-3.7c0.5,1.2,0.6,2.1,2.1,2.7c0.1-1.7-0.5-2.9-0.9-4.1c-0.9,0-1.4,0-2.2-0.2   C503.6,345.6,502.4,342.9,499.2,343.6L499.2,343.6z M493.6,405.6c-0.3-4.7-1.5-9.7-2.9-12.1c-2.1,5.2,2.1,13,3.4,18.4   C494.1,409.8,494.5,407.7,493.6,405.6z M494.8,416.3c-0.8,2.9,0.7,5,1.4,7.9C496.8,418.3,496.8,417.9,494.8,416.3z M495.4,427.2   c0.2,1.5,0.3,2.3,0.4,3.1C497.4,429.4,497.4,429.3,495.4,427.2z M493.4,389.5c-1.4-1.2-2.9,0.8-1.1,1.1   C492.6,390.3,492.9,390,493.4,389.5z M496.1,435.2c0.1-0.3,0.4-0.6,0-0.8C495.7,434.6,495.7,434.8,496.1,435.2z" />
	<path fill="#F6D9C7" d="M518,433.2c-0.8-14.7,0-29.4,0-44.1c3-3,5-11.3,5.3-16.2c2.1-3.1,4.9-1.5,7.2-3.9   c-3.1-5.4-9.4-3.8-14.5-3.3c-0.9-9.6,3.9-19.9-4.5-27.1c0.3-0.5,0.6-1,0.9-1.6c-0.8-3.8-5.4-5.7-8.7-7.2   c13.2-1.6,28.5,2.7,41.5,6.8c0.9,4.5,5.1,7.4,7.8,10.8c-1.9,6.3,1.1,13.8-2.6,19.1c8.9,52.9-3.7,107.5,7.6,160.4   c-2.6,2.7-5.1,5.6-6.8,9.1c-3.1,1.7-6.1,3.4-9.2,5.1c-0.4-0.5-0.9-1.1-1.3-1.6C544.1,502.6,527.8,467.6,518,433.2z M536.8,419.4   c0.1-1.7,0.2-2.2-1.3-3.6c0,3.2,0,4.4,0.2,7.3C537.3,421.9,537,420.6,536.8,419.4z M547.1,526.7c-0.1,2.5-0.8,5,0.9,7.1   c2.7-0.1-0.2-8.1-0.5-10C546.8,524.9,547,525.8,547.1,526.7z M535.4,344.3c0.7-1.5-1.2-3.5-2.4-2.1c0.8,5.7-0.1,14.3,8,12.7   C545,351.6,540.2,340.5,535.4,344.3L535.4,344.3z M535.7,390.5c-1,0.1-1,0.8-0.9,1.6c1,6.5,1.2,12.6,1.5,19.3   C538.7,403.4,538.4,394.5,535.7,390.5z M547.4,518.5c-0.9,1.4-0.9,1.4,0,4.2C548.9,521.9,548.9,521.9,547.4,518.5z M533.4,386.4   c0-2.8-0.3-3.4-2.5-5.3C531.8,383.1,531.6,385.1,533.4,386.4z M545.9,515.6c0.7-2.4,0.2-3.6-1-5.2   C544.6,512.4,544.7,513.7,545.9,515.6z M532.3,445.5c0.1-1.5,1.4-2.5,0.8-4C532,442.6,531.2,443.7,532.3,445.5z M544.9,507   c0.1-1.5,0.1-1.5-0.6-2.5C544,505.4,543.9,506.3,544.9,507z M535.1,435.1c-1.4,0.9-1.4,0.9-0.8,1.9   C534.6,436.2,534.9,435.6,535.1,435.1z M535.4,426.2c-0.2,0-0.4,0-0.6,0.1c-0.1,0.8-0.1,1.5,0.3,2.3c0.1,0,0.2-0.1,0.3-0.1   C535.4,427.7,535.4,426.9,535.4,426.2z" />
	<path fill="#F6D9C7" d="M348.7,178c-6.9,16.7-6.9,36.6-16,52.5c5.2,13.3,6.8,27.6,13.6,40.4c-0.9,3.9-2.7,7.8-4.5,11.3   c-0.9,1-2.3,0-2.7,1.3c-0.3,0.1-0.7,0.3-1.1,0.5c-16.5-22.1-32.5-50.8-21-78.4c1.7,1.2,3.2,2.3,5.2,3.7c0.4-0.5,0.8-1,0.9-1.1   c-2.8-18.4-4.5-14.9-1-34.6c2.5,2.3,4.9,4.3,8.3,3.1c-3.1-25.6-13.3-45.4,20-57.9c13.6,10.9,30.6,27.2,25.2,46.5   c-7.1,26-8.4,7.8-23.1,1.6c-0.9,0.5-2,1.1-2.7,1.5c-0.9,2.1,0.2,3.6,0.3,5.1C349.5,175,348.4,176.3,348.7,178z M331.9,222   c0.2,1.5-0.2,3.1,0.6,5.2c0.6-2.2,0.9-7.6-1.7-6.9C331.2,220.8,331.5,221.4,331.9,222z" />
	<path fill="#FFF0A7" d="M371.1,179.5c18.3-20.1,3.8-42.4-12.2-57.9c0.4-0.4,0.8-0.6,1.3-1c22.3,14.3,26.1,35.1,55.1,38.2   c5.5,0.1,17.2,1.2,16.8-6.8c12.4,11.4,38.8,26.7,26.8,46.6c-6.1,2-11.8-0.4-17.9-0.5c-4.1-0.2-5.1,4.3-5.3,7.5   c0.2,3.9,4.4,6.2,6.4,9.2c-0.2,1.2-0.4,2.3-0.7,3.7c-16-3.6-32.7,0.5-48.6,1.3c0.7-2.6,3.1-4.9,3.2-7.7c10.9,0,23.9,0.9,31.5-7.5   c1.2,1.2,2.6-0.2,3.8-0.7c0.2-0.3,0.4-0.7,0.6-1.1c-0.8-0.3-1.3-0.5-1.9-0.8c1.2-1,2.4-2,3.4-2.9c1.1-9.6-11.2,3.1-24.1,0.2   c-15-1.3-27.1-9.3-38.9-17.8C369.7,180.7,371.5,180.5,371.1,179.5z" />
	<path fill="#E1C7B6" d="M486.9,360.2c1,0.1,0.8,1.1,1.1,1.8c1.9,1,3.8,2.1,5.4,3.4c-0.2,2.4-2.3,1.8-3.3,2.7c-1,0.9-2.5,1.3-4,2   c-7.5,19.3-8.4,40.1-7.8,60.7c1,17.9,17.5,34.8,12.4,52.8c0.6,1.9,1.1,3.7,1.7,5.7c1.7-3,1-6.5,2.9-9.5c4.6,12.1-0.2,26.4,1.1,39.3   c2.6,8.8-1,17.5-0.8,26.4c-2.8-9.5,1.7-19.7-2-28.8c0,0.9,0,1.8,0,2.7l-0.1-0.1c-1.6,1.1,0.2,3.3-1.4,4.4   c-3-51-43.5-104-13.1-152.6c-1.6,0.1-2.2,1-2.8,2.1c-38.1,9.6-68.2,27.5-108.9,20.1c-7.8-6.9-14.6-12.2-17.1-23.1   c42,14.7,83.5-6.9,125.4-8c2.4-2.6,5.5-2.3,8.7-2.1c-4.3,2.7-13.3,5.1-14.9,9.9C473.8,366.7,486.2,367.2,486.9,360.2z M493.1,511.3   c1.6-0.9,1.6-2.9-0.1-4.6C492.6,508.3,492.4,509.8,493.1,511.3z M492.5,498.2c-0.6,2.7-0.6,2.7,0,4.8   C493.6,501.5,494.1,499.7,492.5,498.2z M466.1,370.2c-1.9-0.9-2.8-0.2-3.9,1.1C463.8,371.6,464.9,371.5,466.1,370.2z" />
	<path fill="#F6D9C7" d="M421.2,261.2c-8.2,16.6,0.1,34.8-3.2,51.9c-13.2,3.3-26.4-0.6-38.9-5c-4.4-7.9-4.3-18.6-7-27.2   c3.2-7,6.4-13.6,8.2-21.1c2,0,3.5-1.2,4.8-2.6c2.9-0.4,6.4,0.4,7.9-2.7c-3.8,0.9-7,1.9-10.3,1.5c-1.1-3-0.7-6-0.6-9   c2.2,0.3,3.9,2,6.4,1.5c-0.5-1.5-0.9-2.8-1.4-4.1c1.7,0.3,1.8-1.6,0-1.4c-1.9-0.9-4.1-3.2-4.7-5.2c2.4,1.6,4.4,3.6,7.4,3.5   c0.3-0.3,0.6-0.6,0.8-1c-1.3-3.8-2.8-7.3-5-10.5c0.4-0.3,0.6-0.5,0.7-0.6c0.4-0.1,0.9-0.1,1.5-0.2c-1.4-1.8-4.4-1.5-4.4-4.2   c15.3-2.2,30.9-4,46.4-4.6c0.1,5.7-4.1,10.3-5.8,15.5c-0.2,0-0.5,0-0.7,0c-3.6,3-9,3.6-11.6,8c-3,2.2-7.3,1.4-10.1,2.9c0,0,0,0,0,0   c-0.4,0.1-0.8,0.1-1.7,0.2c1,0.7,1.5,1.1,2.2,1.6c-8.6,8.2-5.1,8.9-6.2,19.3c2.6-2.1,0.8-4.5,2.8-6.8c8.6-2.9,2.7-5.4,14.3-1.1   c0.9,2.3-2.1,3.5-1.3,6.1c1.2-2.1,2.4-4.1,4.2-5.8C417.5,260.6,420.1,259.5,421.2,261.2z M399.5,235.6c2.1,0.4,3.2,1.4,4.8,0.1   c-0.9-1.5-2.8-0.3-4.2-0.8c-0.6-0.8-1.3-0.9-2-0.2C398.5,235.5,398.5,235.5,399.5,235.6z M394.3,270.5c-1.1,0.7-0.9,1.6-0.4,3.1   c0.5-0.9,0.8-1.3,1.1-1.7C395,271.3,395.6,270.4,394.3,270.5z M393.6,286.3c0,1.2,0.6,2.3,1.3,3.3c-0.1-1.4,0.7-2.9-0.5-4.1   c-0.1-1.7-0.3-3.3-1.3-5C392.3,282.8,393.2,284.5,393.6,286.3z M409.4,290.5c-0.7,2.1-1.1,4.2-1.1,7.2c4.8-9.2-0.8-19.8,1.8-29.4   c-1.1,1.3-2.3,2.6-3.5,4C406,278.4,409.4,284.3,409.4,290.5z M395.5,296.7c0.3-2-0.2-3.4-1-4.8   C394.3,293.5,393.7,295.1,395.5,296.7z M395.3,232.7c-0.3-1.9-0.3-1.9-2-1.5C394,231.8,394.7,232.2,395.3,232.7z M409.8,299.9   c-0.4-0.4-0.6-0.6-0.8-0.8C407.8,300.3,408.4,301.2,409.8,299.9z M395.8,246c1.1,0.8,1.8,1,3.2-0.2   C397.6,245.9,396.8,245.9,395.8,246z M391.6,244.6c0,0.2,0.1,0.3,0.1,0.5c0.6-0.1,1.2-0.1,2.3-0.3   C392.6,244.4,392.6,244.3,391.6,244.6z" />
	<path fill="#F7EFD0" d="M487,549c4.6,3.2,9.9,8.6,14.9,2.9c5.4-3.9,12.2-6.3,15.8-12.3c1.9-3,4.6-5.2,8.1-6.1   c3.2,3.8,6.3,7.6,9.6,11.6c-2.6,2.5-13.4,3.4-10.6,8.3c4.5-0.3,8.5-2.6,12.7-4.6c0.5,0.4,1,0.7,1.4,1.1c0.2,0.6,0.5,1.2,0.6,1.6   c-3.5,1-13.8,2.3-9.9,7.4c4-1.9,10.1-1.2,12.6-5.1c0.1-0.2,0.8-0.3,1.2-0.4c1.1,1,2.3,2,3.8,3.3c-13.2,0.7-12.6,7.4,0.4,4.4   c0.5,0.3,1.1,0.5,1.6,0.8c-2.1,1-5,1.2-5.8,3.8c2.4,3.9,11.2,0.7,14.6-1.6c0.6,0.5,1.3,0.9,1.9,1.4c-0.4,2-5.4,2-4,4.6   c2.8,1.2,5.5,1.2,8.3-0.2c6.3,4.1,12.3,8.5,19.8,10c0.2,0.9,2.3,1,1,2.5c-23.8-1.1-49.4,7.2-71.9-3.2c-5.3-3.1-9.6,4.1-15.2,2.8   c-6.1,0.3-12.1-0.5-18.1-1.8c-0.4-4.2,0-8,0.7-11.9c0.2-0.3,0.5-0.5,0.7-0.8c0-0.2,0-0.5,0-0.7C484.8,561.9,485.5,555,487,549z" />
	<path fill="#E1C7B6" d="M383.4,224.8c-0.1,1.6,1.3,2,2.2,2.9c-1.1,0.5,0.4,0.9,0.7,1.5c-0.2,0.1-0.4,0.3-0.7,0.6   c2.2,3.2,3.6,6.8,5,10.5c-0.3,0.3-0.6,0.7-0.8,1c-3,0.1-5-1.9-7.4-3.5c0.6,2.1,2.8,4.4,4.7,5.2c-0.2,2,0.8,3.5,1.3,5.5   c-2.4,0.5-4.1-1.2-6.4-1.5c-0.1,3.1-0.4,6.1,0.6,9c-0.3,0.5-0.5,0.9-0.8,1.4c-0.3,0.1-0.6,0.2-0.9,0.4c0,0.1,0.1,0.2,0.1,0.4   c0.7,0,1.4,0,2,0c-0.1-0.2-0.1-0.5-0.2-0.7c0.9-0.9,0.9-0.9,2.2-0.1c-1.3,1.4-2.7,2.6-4.8,2.6c-1.8,7.5-5,14.1-8.2,21.1   c2.7,8.6,2.6,19.2,7,27.2c-2.4-0.2-4.7-0.9-6.7-1.6c-1.3-2-2.5-11.8-4.8-10.1c1.3,2.8,2.3,5.9,2.4,9c-0.8,0.6-1.3,0.3-1.9-0.2   c1.1-1.8-0.9-4.2-1.1-6.2c-0.4-1.3,0-2.9-0.9-4.1c1.2-1.3,1.2-1.3-0.7-2.8c0,0.8,0,1.5-0.1,2.1c-3.1,1.7-1.9,5.9-2.1,8.7   c0.6,0.6,1,1,1.4,1.4c-9.3-1.6-18.3-4.6-27.8-5.3c11.2-20.8,20-43,12.8-66.5C360.8,229.2,371.8,225.9,383.4,224.8z M357.4,254.3   c-1.5-6-2.3-8-3.5-9C353.3,249.1,354.9,251.8,357.4,254.3z M377.8,242.8c-2.8-1.5-2.8-1.5-4.3-1.5   C374.3,242.4,374.9,242.7,377.8,242.8z M358.3,258.7c1.3-1.1,1.1-1.9-0.3-2.9C358.1,257,358.2,257.9,358.3,258.7z M363.9,275.1   c-0.4-0.5-0.7-1-1.1-1.7C362.2,274.6,362.2,275.3,363.9,275.1z M362.7,281.2c-0.3,1.9-0.3,1.9,1.2,1.8   C363.5,282.4,363.2,282,362.7,281.2z M364.8,287.5c-0.1,1.6-0.1,1.6,1.3,2.1C365.6,288.8,365.3,288.3,364.8,287.5z M378.9,258   c0-0.2,0-0.3,0-0.5c-0.6,0-1.2,0-1.8,0c0,0.2,0,0.3,0,0.5C377.8,258,378.4,258,378.9,258z" />
	<path fill="#EBDA8F" d="M427.6,204.6c-2-0.2-1.8,1.7-2.8,2.9c0.1-0.7,0.2-1.4-0.8-2c-16.3,6.6-33.3,2.4-49.3-2.9   c6.5,5.3,14.8,6.6,22.6,9.1c-0.3,0.1-0.7,0.2-1.3,0.3c-0.2,2.9-2.5,5.1-3.2,7.7c-15,1.4-29.1,5-43.5,9.4c-2-6.1-4.1-11.8-6.5-18   c0.7-2.1,1.4-4.5,2.2-6.9c12.3-2,21.3-11.8,25.2-23.1c15.7,12.4,37.7,24.2,57.9,15.2c2.9-2.1,5.8-1.3,5.2,2.8   c-1,0.9-2.2,1.9-3.4,2.9c0.6,0.2,1.2,0.5,1.9,0.8c-0.2,0.4-0.4,0.7-0.6,1.1C430.6,202.3,428.1,203,427.6,204.6z M368.5,200.9   c0.9,0.2,1.6,0.5,2.6,0.3C370.3,200.2,370.3,200.2,368.5,200.9z" />
	<path fill="#F6D9C7" d="M403.7,119.2c1,5.5,6,6.9,10.1,9.8c6,7.7,12.3,15.9,15.9,25c-8.5,5.5-21.1-0.9-30.4-3.1   c-11.3-5.1-15.8-19-26.6-25.2c0.7-1.4,1.9-0.7,2.8-0.6c7.5,1.1,15,0.2,22.4,1.4c2.2,1.3,3.6,5.8,5.8,4.8c-5.7-11.2-22.1-8-32.6-6.9   c-3.1-2.8-7.7-4.4-9.2-8.5c6.9-7.7,8-18.3,11-27.7c6.3,9.7,13.9,18.3,22.3,25.8c0,0,0.4,0,0.4,0C398.1,115.9,400.7,118,403.7,119.2   z" />
	<path fill="#EF8A6A" d="M313.9,364.5c-3.9-23,8.6-43.2,20.5-61.9c14.3,1.2,28.2,5.3,41.8,9.1c0.3,1.6-1.1,2.7-1.4,4.3   c-3.5-2.4-31.2-9.4-33.4-6.7c6.6,0.9,12.7,2.4,18.9,4.5c-1.4,1.9-4.1-0.3-5.8,1.3c-9.5,1-19,0.6-28.2,3.4c2.2,0.9,4,0.2,5.8,0.4   c-7,7.3-7.9,19-11.5,28.2c5.5,9.5,15.9,15.6,26,18.1c0.3-3.1-0.7-6.6,0.6-9.4c-0.4,16,1.1,30.6,17.6,37.5   c-10.5-0.2-21.3-1.8-31.5-4.4c0-0.6,0-1.1,0-1.8C322.1,386.2,317.6,373.6,313.9,364.5z M333.5,314.7c0.2,0.2,0.4,0.3,0.6,0.5   c0.7-1.2,1.8-2.3,1.5-3.8c-0.1,0-0.3-0.1-0.4-0.1C334.5,312.4,334,313.6,333.5,314.7z" />
	<path fill="#F7EFD0" d="M589.7,579.5c-0.4-0.7-0.9-1.4-1.3-2.1c-19-4.5-32.3-20.4-47.7-31c5.1-4.9,13-6.5,16.9-12.8   c2-3.1,4.8-5.4,8.4-6.2c3.2,3.7,6.3,7.4,9.6,11.2c-2.8,2.6-13.3,2.9-10.4,8.1c4.4-0.7,8.4-2.5,12.6-4.7c0.7,0.8,1.3,1.6,2.2,2.6   c-3.4,1.1-13.6,2-10.2,7.3c4.4-1.9,10.5-1,13.3-5.4c1.5,1,2.7,1.9,4.3,3c-3.5,1.3-7.2,0.4-9.7,3.4c1.7,4.9,8.9-0.6,12.2,1.9   c-15.4,5.5,3,7.4,8.4,2.4c0.6,0.5,1.2,0.9,2.1,1.6c-1.7,1.1-3.2,2-4.5,2.9c0,3,4.5,2.2,6.7,1.7c0.7-1,1.8-1.8,3.5-2.1   c2.1,1.3,4.4,2.9,6.7,3.8c3.1,3.8,8.4,1.7,12.1,3.9c0.4,2.6,0.8,5,1.2,7.4c-10.7,4.2-24,0.6-35.1,4   C590.4,580,590,579.7,589.7,579.5z" />
	<path fill="#E1C7B6" d="M337.1,124.9c-20.3,23.4-7.3,27-6.7,51.7c-3.4,1.2-5.8-0.8-8.3-3.1c-3.5,19.7-1.9,16.2,1,34.6   c-0.1,0.1-0.5,0.6-0.9,1.1c-1.9-1.4-3.5-2.5-5.2-3.7c-11.6,27.6,4.4,56.3,21,78.4c0.5-0.2,0.8-0.3,1.1-0.5c-0.5,2.6-1.5,5-3,7.4   c-1.5-1.4-1.8-4.1-4.2-3.8c-20.4-18.4-17.7-29-28.2-51.7c6-9.8,5.1-21.5,5.7-32.5c2.1-10.2,6-20.1,6.4-30.6   C318.7,155.5,315.1,128.5,337.1,124.9z M313.3,250.2c0.7,0.9,0.7,2.5,2.2,2.3c-0.7-2.3-2.7-7.5-4.1-7.2   C311.5,247.2,312.4,248.7,313.3,250.2z M319.8,258.1c-1.6-3.7-2.2-4.7-3.1-4.6c-0.2,0.2-0.4,0.5-0.5,0.6c3,3.4,3.1,8.1,6.4,10.9   C321.7,262.6,321.4,260.1,319.8,258.1z M318.5,180.9c-0.7,1.2-0.2,2,0.9,2.7C320.3,182.3,319.5,181.6,318.5,180.9z M325.2,270.1   c0.4-1,0-1.4-1.1-1.7C323.9,269.4,324.3,269.8,325.2,270.1z" />
	<path fill="#A39893" d="M368.2,439.9c1.4-0.4,2.7-1.1,4.3-0.6c-0.3,49.4,1.1,99.9-0.7,148.9c-3.4,2.2-10,3.5-11.6-0.9l0,0   c3.4-47.9,4-97.8,6-146.3C367,440.6,367.6,440.2,368.2,439.9z" />
	<path fill="#8F8580" d="M303.7,399.3c-3.5-0.5-6.5-1.2-10.1-1.9c-1.6-4.5-1.2-9.5-0.6-14.1c2.2,1.2,4.5,0.7,6.7,0.6   c0.1-0.6,0.2-0.9,0.2-1.3c1.4,0,2.7,0,4,0c0.7,1.2,1.8,0.6,2.7,0.6c-0.2,1.4-1.9,0.3-2.5,1.4c1.5,0,2.8,0,4.2,0   c0.1-0.4,0.3-0.8,0.4-1.3c0.6,0,1.1,0,1.7,0c0,0.5-0.1,0.9-0.1,1.4c1.3,1.2,3,0.6,4.5,0c2.1,1.8,5.1,1.9,6.9,4.3   c2.6-0.2,5.2,0.6,7.4-0.6c8.7,6.3,21.7,4.9,32.1,7.5c14.2,3.5,28.6,2.1,43.1,2.7c0,1.5,0.1,2.8,0.1,4.1c-32.9,3-66.7,2.2-99.1-2.9   c0-0.2,0-0.4-0.1-0.6c0.6-0.3,0.9-0.9,0.6-1.4c-0.9-2.1-0.3-3.6-0.9-5.8c-0.7,4.2-0.7,4.9,0.3,7.3   C304.7,399.3,304.2,399.3,303.7,399.3z M318.6,394.9c-0.1,1.2-1.3,1.9-0.2,2.8C319.3,397,319.1,396.2,318.6,394.9z" />
	<path fill="#8F8580" d="M276.2,573c-0.5,0.6-1,1.2-1.6,1.7c-2.6-1.6-2.9-2.1-4.1-6c10.1-55.5,22.6-111.5,32.6-167.2   c4,0.7,7.9,1.5,11.9,2.1c0.1,6-1.1,12.4-2.5,18.3c-0.6-3.1-4.9-5.2-7.9-4.2c-8.1,41.1-15,82.5-22.6,123.8c1.1,0.1,2,0.2,2.9,0.3   c-5.5,1.5-2.5,2.9-4.5,6.5c-0.4,0.1-0.8,0.1-1.6,0.3c1,0.8,1.7,1.3,2.5,1.8C277.7,556.9,278.5,565.8,276.2,573z" />
	<path fill="#A39893" d="M431.8,417.4c3.7,50.5,13.6,100.5,18.7,150.6c-2.1,1.9-4.8,1.8-7.5,2c0.2-0.6,0.3-0.9,0.4-1.2   c-1.5-2,0.4-5.1-1.4-6.7c-0.1-6.5-0.5-13.7-2.1-19.6c-3.4-37.3-8.2-74.4-12.4-111.6c0.6-0.8,2.4-1.2,2-2.3   c-0.8-0.4-1.7-0.8-2.6-1.2c0.5-5.1-1.8-9.6-0.4-14.5C428.7,414.2,430,415.7,431.8,417.4z" />
	<path fill="#8F8580" d="M368.2,439.9c-0.6,0.3-1.2,0.7-2,1.2c-2,48.4-2.7,98.4-6,146.3c0-3.7,0.4-8.7-1.9-11.7   c-1.1,4.3,2.2,8.1-0.5,11.7c-0.9,0-1.8,0-2.6,0c-2.4-48.8,3.6-98.5,6-147.4C363.6,440.3,365.8,440.3,368.2,439.9z M359.2,567.6   c1.7-4.7,0.3-8,0.1-12.8c-3,2.7,0.6,6-1,9.2C357.8,565.1,357.6,566.6,359.2,567.6z M359.1,548.1c1.3-0.9,1.5-2.8,0.7-6.6   C358.9,543.7,358.4,545.8,359.1,548.1z M360.7,532.3c-0.1-2,1.2-4.2,0.2-5.5C360,528.7,360,529,360.7,532.3z" />
	<path fill="#E1C7B6" d="M518,433.2c9.9,34.3,26.1,69.4,22.6,106.2c-0.1,0.1-0.1,0.3-0.1,0.4c-0.2-0.1-0.4-0.2-0.6-0.3   c-0.5-1.7-3.1-3.6-5-4.1c-0.6,0.6-1.1,1.3-1.5,2c-0.5-0.5-1-1-1.4-1.3C536.8,500.5,513.2,468.1,518,433.2z" />
	<path fill="#A39893" d="M285,541.8c-0.9-0.1-1.8-0.2-2.9-0.3c6.4-34.4,12.1-69.1,18.9-103.4c1.4,0.6,2.8,1.3,4.3,0.2   c2,2.8-1.2,11.5-1.5,15.4c-1.8,5.9-0.1,11.6-2,17.4c-5.7,22.6-5.1,46.6-12.6,68.5c-0.7,0.3-0.6,0.9-0.6,1.5l0,0   c-0.8,0.1-1.6-0.3-2.2,0.6C286,541.7,285.5,541.8,285,541.8z" />
	<path fill="#EBDDB8" d="M480.4,569.3c-0.9,3.6-0.9,7.3-0.6,11.3c6,1.2,12,2,18.1,1.8c5.6,1.3,9.9-6,15.2-2.8   c22.5,10.4,48.1,2.1,71.9,3.2c1.3-1.5-0.8-1.6-1-2.5c0.6,0.1,1.1,0.1,1.8,0.2c0.5,2.7,0.6,5.3,0.2,8.1c-23.9,0.5-48.8,5.1-72.4-0.8   c-12.9-0.6-26.6,1.7-38.9-4.2c2.1-4.6,2.9-9.5,4.9-14.2C479.8,569.3,480.1,569.3,480.4,569.3z" />
	<path fill="#E1C7B6" d="M393.6,112c-8.7-6.3-14.4-15.1-20.7-23.8c-3,9.4-4.1,20-11,27.7c0.4,0.8,0.8,1.6,1.2,2.5   c-14.4-5,3.8-3.1-0.5-33.9c2.1-1.2,4.6-1.9,5.6-4.3c0.6,0.5,1.3,1,1.8,1.4c3.2-0.6,6.3-1.1,5.3-5c0.6,0.6,1.1,1.3,1.5,2.1   c-2.7,6.5,4.3,10.6,9.8,11.9c2.3-0.2,7.4,3.3,8.5,1.2c4.5,1.4,9,3.2,13.8,3.7c-13.7-0.9-6.8,15.9-5.2,23.8   c-3.1-1.2-5.6-3.3-8.2-5.2c0.3-1.2-0.3-2-1.1-2.8C394.1,111.5,393.8,111.8,393.6,112z M392.2,108.3c0.3,0.9,0.9,1.7,2,2   c0.5-1.3-0.3-2-1.2-2.7c-0.6-0.9-0.6-2.3-2.3-2.6C390.3,106.5,391.3,107.2,392.2,108.3z M387.2,96c-1.8-1.8-2.4-5.1-5.2-5.5   c1.2,3.9,4.3,5.3,6.1,8.4c0.5,0.6,0.6,1.7,1.9,1.9C389.6,98.8,388.2,97.5,387.2,96z" />
	<path fill="#D7C0A1" d="M345,30.2c-1.4,2.7-2.9,5.3-4.3,8c-0.1-0.6-0.2-1.2-0.3-2.1c-2.7,5-3.9,11.3-2.9,15.7   c0.6,0,1.2,0.1,1.7,0.1c1,5.6,0.1,11.3,1.2,16.9c0.6,5.7,3.9,12.4,1.8,17.7c-0.9-2.7,0.1-6.5-1.6-8.6l0,0c-0.1-4-1.7-7.6-3.1-11.3   c-0.5,0.2-0.8,0.3-1.2,0.4c-1-2.8-0.6-5.3-3.1-7.4c0.3,2.3,0.6,3.9,0.9,5.6c-0.6-0.4-1-0.6-1.4-0.9c0.5,6.4,5.5,13.5,2.8,20   c-5.3-18.1-23.9-53.9,5.6-59.2c-6.5,8-14.1,19.1-11.1,29.9c1.1-0.5,2.1-1,3.2-1.5c0.1-0.3,0.1-0.7,0.2-1c1.5,2.3,0,4.2,2.4,6.6   c-0.5-9.2-4.8-20.5,2.6-28.4c0.1,0.2,0.3,0.3,0.4,0.5c1.7-0.7,2.3-2.8,4.3-3.3C343.9,28.8,344.4,29.5,345,30.2z M327.9,49.6   c0.9-4,0.4-8.6,1.9-12.7c0.2-0.8,0-1.7-1.2-2c-2.3,4.7-2.9,9.6-2.1,14.8C327.2,49.6,327.6,49.6,327.9,49.6z" />
	<path fill="#8F8580" d="M427.5,430.9c4.4,36.5,8.5,73,12.4,109.5c-0.7-0.5-1.4-1-2.1-1.5c-1.2-2.2-1.1-4.6-2.1-6.6   c-4.5-33.5-9.5-67-11-100.7C425.7,431.3,426.6,431.1,427.5,430.9z" />
	<path fill="#E1C7B6" d="M348.7,178c-0.4-1.7,0.7-3,1.4-4.5c-0.1-1.5-1.2-3-0.3-5.1c0.7-0.4,1.7-1,2.7-1.5c7,2.2,10.4,9.5,16.5,12.4   c-7.6,8-10.8,19.1-23,22.5c0.9-10,1.8-21.3,10.5-27.6C352.9,174,351,175.5,348.7,178z" />
	<path fill="#E0C6B5" d="M425.5,392.8c14.7-6.4,29.6-11.6,45.1-15c0,1.9,0.1,2.4-0.8,3.2c-1.7,1.8-1.3,4.2-2.5,6.3   c-13.4,4.2-27.9,7.2-42.1,6.2C425.4,393.3,425.4,393,425.5,392.8z" />
	<path fill="#8E847F" d="M366.8,438.4c-1.8,0-3.6-0.1-5.3-0.1c-1.1-10.2,0.1-20.5-1.6-30.6c4.4-0.9,8.7,0.7,13.3,0.2   c0.4,8.2,0.6,16.7-0.4,24.8c-0.1-4.3-0.1-8.6-0.2-12.8c-1.3-1.6-2.6-2.6-4.6-2.4C365.5,424.2,367.3,431.4,366.8,438.4z" />
	<path fill="#EBDA8F" d="M442.1,214.8c-2.1-3-6.2-5.3-6.4-9.2c0.2-15,17.4-1.4,24.5-8.2C458.9,206.9,448.5,209.8,442.1,214.8z" />
	<path fill="#A19792" d="M303.1,465.2c-1.2-7.4,1.6-15.2,2.8-22.6c0,1.3,0,2,0.4,3.4c0.9-7.6,5.5-16,3.3-22.9   c-1.5,5.4-1.6,12.5-3.6,18.1c0.6-2.9-2.3-4.7-5.1-4.3c1.3-6.4,2.1-13,3.8-19.3c11.8-1.9,6.5,11.3,5.4,17.9   C307.7,445.5,306.2,455.7,303.1,465.2z" />
	<path fill="#8D837E" d="M404.4,402.8c0-1.3-0.1-2.6-0.1-4.1c-1.6-0.1-3-0.2-4.4-0.2c14.6-4.2,30-1.1,44.9-3.2   c0.3,1.3-0.4,2.3-0.9,3.5c-12.2,2.9-24.7,3.1-37.3,3.9c-0.3-0.9-0.6-1.9-0.9-2.9C404.6,400.4,405.8,402.2,404.4,402.8z M414.4,398   c-1.2,1.2-1.2,1.2,0,2.4C414.4,399.5,414.4,398.8,414.4,398z M420.3,399.3c-0.5-0.9-0.8-1.4-1.1-2.1   C418.8,398.2,418.7,398.9,420.3,399.3z" />
	<path fill="#E0C6B5" d="M516.5,351.2c-1,4.8-0.5,9.4-0.6,14.5c5.1-0.4,11.4-2,14.5,3.3c-2.3,2.4-5.1,0.9-7.2,3.9   c-0.3,4.9-2.3,13.2-5.3,16.2c0,1.4,0,2.9,0,4.5c-1.5-5.1-1.6-10.5-2.3-15.7c0.7-0.7,1.3-1.4,2.2-2.3c-0.9,0-1.7,0-2.7,0   c-0.8-7.7,0.3-16.1,0.2-24C515.9,351.5,516.2,351.4,516.5,351.2z" />
	<path fill="#F5D8C6" d="M434.8,240.8c-1.9,2.7-3.8,5.4-5.7,8c-1.9-3.6,0.1-9-2.2-13.1c2.8-4.9,2.9-10.5,5.8-15.3   c2.1,1,4,1.8,6.3,2.7C438.9,229.2,436.6,235,434.8,240.8z" />
	<path fill="#8E847F" d="M431.8,417.4c-1.8-1.6-3.1-3.2-5.3-4.5c-1.4,4.9,0.9,9.4,0.4,14.5c0.9,0.4,1.7,0.8,2.6,1.2   c0.2,0.5,0,0.9-0.5,1.1c-0.9-2-3.3,1-5-0.1c-0.5-8.1-2-16.1-3.7-24c3-1.2,6.5-0.8,9.6-1.3C431.2,407.7,432,413.4,431.8,417.4z" />
	<path fill="#A09792" d="M310.4,383.4c-0.6,0-1.2,0-1.7,0c-0.2,0.5-0.3,0.9-0.4,1.3c-1.3,0-2.6,0-4.2,0c0.6-1.1,2.3,0,2.5-1.4   c-1.8-1.5-4.4-0.1-6.7-0.6c-0.1,0.4-0.1,0.7-0.2,1.3c-2.2,0.1-4.5,0.6-6.7-0.6c0.7-4.6,19.7-2.9,24.8-4.3c0.3,1.1,0.5,2,0.8,3.3   c1.3,0.8,3,1.7,4.6,2.7c-0.4,0.4-0.8,0.9-1.6,1.7c2.9,0.3,5.2,0.2,7.5,1.9c-2.2,1.2-4.8,0.3-7.4,0.6c-1.1-0.9-2.2-1.8-3.4-2.8   c0.2-0.3,0.5-0.7,0.9-1.1c-0.9-0.5-1.6-0.8-2.2-1.1c-2.3,0.5-4.6,2.4-6.7,0.7c0.8-0.1,1.9,0.3,2.1-1.3   C311.7,383.5,311.1,383.4,310.4,383.4z" />
	<path fill="#A19691" d="M366.8,438.4c0.6-7-1.3-14.2,1.2-20.9c1.9-0.2,3.2,0.8,4.6,2.4c-0.2,6,0.8,12.1-0.1,18.2   C370.4,438.3,368.6,438.7,366.8,438.4z" />
	<path fill="#0D0A09" d="M347.3,365.3c0-2.4,0-4.8,0-7.2c0.1,0,0.3,0,0.4,0c0.8,11.7,5.4,25.1,15.7,31.8c1.9,1.3,2,1.2,3.7,3.5   c3.8,0.2,7.9-0.5,11.4,1.4c-2.9,0.6-5.6-0.8-8.5-0.6c-2.9-0.5-6.7,1-9.1-0.7c1.3-0.1,2.6-0.1,3.8-0.2   C351.5,387,348.2,379.2,347.3,365.3z" />
	<path fill="#0D0A08" d="M375.3,76.6c0.9,3.6-2.3,4.5-5.3,5c-3.7-3.7-3.8-5.3-9.8-5.7c-0.1-0.2-0.3-0.2-0.5-0.2   c-0.3-0.2-0.6-0.4-0.9-0.5c-0.1-0.2-0.3-0.3-0.5-0.2c-0.4-0.4-0.8-0.7-1.5-1.3c-0.1,0.6-0.2,1-0.2,1.4c-0.4-0.5-0.8-1.1-1.3-1.7   c0.5-0.4,0.9-0.8,1.3-1.1c0.2,0,0.5,0,0.7,0c2.5,1.3,4.8,2.9,8.3,2.7c-2.9-3.8-5.1-6.9-7.5-10.7c-0.6-2.2,1.5-3.8,1.2-6.1   c-0.7-5.2,5.5-11.8,10.4-7.7l0,0c-0.2,0.8-0.9,0.8-1.5,0.8c-6.3-0.2-7.8,7.2-7.4,12.2c-1.5,2.1,2.8,4.6,3.7,6.6   c2.6,2.9,3.8,8.1,8.3,8.5C373.5,77.7,374.1,76.6,375.3,76.6z" />
	<path fill="#D4BE9E" d="M353.1,43.9c-1.7-1.1-3.4-2.2-5.2-3.4c0.3-2.3,0.5-4.5,0.8-6.7c7.2,3,14.5,7.8,22.4,10.2   c-5.3,1.9-11.7-0.4-17.3-1.9c0.1,0.7,0.2,1.1,0.3,1.6C353.7,43.8,353.4,43.8,353.1,43.9z" />
	<path fill="#D4BE9F" d="M359.6,54.3c-0.4,2.4,0.2,5.1-1.2,7.2c-0.7,0.8-0.3,1.8-0.3,2.7c-0.1,0.6,0,1.3-0.8,1.5   c-4.3-2.9-8.1-6.5-9.4-11.6c0.1-0.3,0.2-0.6,0.3-1c3.2,2.2,6,2.5,9.9,2.9c-2.9-3.3-5.8,0.1-10.8-6.4c0-0.7,0-1.4,0-2.1l0,0   c2.6,2.1,5.6,3.6,8.7,4.8C356.5,54.4,359,52.4,359.6,54.3z" />
	<path fill="#D3BE9F" d="M352.3,25.2c-0.5-1.5,0.5-2.1,1.5-2.7c1.3,0.8,2.3-0.4,3.5-0.9c0.4,0.5,0.8,1.1,1.3,1.7   c2.7-1.3,5.2-0.8,7.7,0.4c-2.1,0.1-4.2,0.2-6.2,0.3c4.6,0.8,10.6,3.5,14.8,1.2c3.2,0.5,6.5,0.6,9.3,2.4c0,0.2,0,0.3,0,0.5   c-0.8,0.1-1.6,0.2-2.3,0.3c0.8,2.3-1.8,2.2-3.4,2.7c-1.7-1.3-4.3-1.1-6.2-2.3c-1.4-0.3-3.8-2.3-4.7-0.5c-2.6-0.5-6.2-3.8-8.5-1.6   c-0.6,0.1-1.3,0-1.5,0.7C355.7,26.6,354,25.9,352.3,25.2z" />
	<path fill="#E8D8B4" d="M589.7,579.5c0.4,0.3,0.7,0.6,1.2,1c11.1-3.4,24.4,0.2,35.1-4c3.2,6.9-6.5,3.6-10,4.2   c-8.5,0.6-17,1.8-25.5,1.6C589.6,581.4,589.7,580.4,589.7,579.5z" />
	<path fill="#CCB799" d="M349.5,31.5c0.2-0.7,0.4-1.4,0.6-2c5.9,2.9,11.7,6.3,18.5,7.1c0.6-0.4,1.2-0.8,1.8-1.3   c2.9,1.4,6.2,1.5,9.4,2.3c0,0.4,0,0.8,0,1.2C369.4,41.2,357.7,38.6,349.5,31.5z" />
	<path fill="#D2BC9D" d="M359.6,54.3c-0.6-1.9-3.2,0.1-3.6-1.8c1,0,2.1,0,3.8,0c-5.1-2.7-11.3-3.4-12.5-9.2   c7.9,3.1,15.8,3.7,24.3,5.3c-0.4,1-1,1.3-1.8,1.8c0,0,0,0,0,0C366,47.1,361.5,50.8,359.6,54.3z" />
	<path fill="#8B817C" d="M437.8,538.9c0.7,0.5,1.4,1,2.1,1.5c-0.2,6.4-1.8,16.7,1.4,22.8c0.2-0.4,0.5-0.7,0.8-1.1   c1.8,1.6-0.1,4.7,1.4,6.7c-5.4,0.5-6-4.5-5.8-8.8c-0.5-7-1.5-14.1-2-20.9c1.8,1.8,1.1,4.2,3.3,6   C439.8,542.3,438.5,541.1,437.8,538.9z" />
	<path fill="#D7C5A8" d="M345.7,78c2.2,3.3,1.7,7.6,3.1,10.8l0,0c0,1.1-0.3,2.2,0.8,2.9l0-0.1c0.4,7.4-0.6,14.2-1.5,21.1l0,0   c-1.3,0.7-0.6,1.9-0.7,3l0,0c-2.5-11,2-24.2-2.4-35.3c-0.6-1.3-1.2-3.4,0-4.5C345.4,76.5,344.6,77.5,345.7,78z" />
	<path fill="#BCA88D" d="M336.5,67.1c0.3-0.1,0.6-0.2,1.2-0.4c5.1,13,3.1,27.6,3,41.7c-0.4-0.2-0.9-0.5-1.3-0.7   C340.8,94,338.3,80.5,336.5,67.1z" />
	<path fill="#F2F2F2" d="M357.4,107.6c1.1-6.8-4.9-15.4,0.6-20.9c4.8,2.5,0.7,16,0,20.9C357.8,107.7,357.6,107.7,357.4,107.6z" />
	<path fill="#090807" d="M543.4,553.5c-0.4,0.1-1.1,0.1-1.2,0.4c-2.6,3.9-8.6,3.2-12.6,5.1c-3.9-5.1,6.4-6.5,9.9-7.4   c-0.2-0.4-0.4-1-0.6-1.6C540.6,550.4,541.8,552.4,543.4,553.5z" />
	<path fill="#26211C" d="M344.3,78.1c0.1,0.8,0.2,1.6,0.7,2.3c0,0.2,0,0.4,0.1,0.5c-1.8,10.8,0.6,23.3-1.4,34   c0.9-17.9-1.1-35.2-3.7-52.8c0.3-0.1,0.6-0.2,1-0.4c1.1,0.9,1.3,2,1.2,3.3C340.2,67.1,343.7,75.1,344.3,78.1z" />
	<path fill="#120C0B" d="M372.6,319c-9.3,4.1-15.1,13.3-20.4,21.7c-0.3-0.3-0.5-0.6-0.8-0.9c3.3-9.1,10.6-17.8,19.6-21.7   C371.3,318.9,371.9,318.9,372.6,319z" />
	<path fill="#18100F" d="M371.1,124.4c9.2-0.9,22.8-3.5,29.8,3.3c-0.3,0.3-0.6,0.6-0.9,0.9c-5.9-6.1-16.8-1.1-24.6-3.5   c-0.9-0.1-2.1-0.9-2.8,0.6C371.9,125.6,371.4,125.1,371.1,124.4z" />
	<path fill="#27211C" d="M371,49.6c0.2-0.3,0.3-0.6,0.6-1c-5.9-0.7-11.3-2.3-17.1-3.2c-0.2-0.6-0.4-0.7-0.7,0   c-0.9,0.2-1.7,0.2-2.4-0.6c0.6-0.2,1.4-0.1,1.7-0.9c0.3-0.1,0.7-0.1,1-0.2c-0.1-0.5-0.2-0.9-0.3-1.6c7,2.4,13.4,5.1,21,4.8   c-0.4,0.4-0.8,0.7-1.2,1.1c2.3,2.5,5-0.4,7.7,0.2c-2.4,2.6-6.8,1.5-10,1.6C371.2,49.8,371.1,49.7,371,49.6z" />
	<path fill="#C0AC90" d="M349.4,103.4c0-3.9,0.1-7.8,0.1-11.7c2.9,7.3,4.8,15.7,2.9,23.4c-0.3-1.2,0.2-2.5-0.7-3.8   c-0.7,0.9-1.2,1.5-1.7,2.2c0.2-4.6,1.3-8.1,0.7-13.1C350.1,101.7,349.8,102.5,349.4,103.4z" />
	<path fill="#E6DAB6" d="M487,549c-1.5,5.5-1.7,11.6-5.1,16.7c-0.2,0-0.4,0-0.6,0.1l-0.1-0.1c0.1-6.7,2.4-12.4,3.7-18.7   c0.5,0.2,0.9,0.4,1.4,0.7C486.5,548.1,486.7,548.5,487,549z" />
	<path fill="#F2D5C3" d="M366.1,295.1c0.9,1.2,0.5,2.7,0.9,4.1c0.2,2,2.2,4.4,1.1,6.2c-1.9-0.5-3.6-0.5-4.9-2.2   c0.2-2.8-1-6.9,2.1-8.7C365.5,294.6,365.8,294.8,366.1,295.1z" />
	<path fill="#1F1814" d="M341.2,25.3c-2.5,0-4.8,1.1-7.1,2c-0.2-0.2-0.4-0.4-0.6-0.6c0.5-1.5,2.2-1.5,3.2-2.5   c-0.3-0.4-0.7-0.8-1.1-1.2c4.2-0.3,9-1.9,12.4,1.5c-0.1,0.2-0.1,0.4-0.1,0.7c-0.2,0.1-0.4,0.2-0.6,0.2c-0.3,0.2-0.6,0.4-0.9,0.6   c-0.5,0-0.9,0-1.4-0.1C343.9,24.6,342.5,25.4,341.2,25.3z" />
	<path fill="#C1AD91" d="M343.6,104.1c-0.1,4.8,0.4,9.6-0.3,14.4c-1.1,0.8-2.2,1.4-3.5,1.5c-1-2.7,3.3-6.3,1-9.2   c0-0.6,0-1.2,0.1-1.9c0.3,0.2,0.6,0.3,0.9,0.5c0.4-1.8,0.7-3.6,1.1-5.3C343.1,104,343.4,104,343.6,104.1z" />
	<path fill="#120F0E" d="M430.4,224.9c-0.7,5.5-2.7,10.9-7.2,14.4c0,0,0,0.1,0,0.1c0-0.7,0-1.5,0-2.2l0,0c2-5,4.6-9.6,6.5-14.6   C429.9,223.4,429.4,224.4,430.4,224.9z" />
	<path fill="#E8E8E8" d="M345.7,57c2.1,4.6,4,9.2,4.6,14.3c-0.3,0.3-0.6,0.6-0.9,0.9C346.6,68,343.8,61.8,345.7,57z" />
	<path fill="#2F2620" d="M349.5,31.5c5,5.3,11.7,5.8,18,8.1c0,0.2,0,0.3,0,0.5c-1-0.2-2.1-0.3-3.1-0.5c0,0.1-0.1,0.3-0.1,0.4   c0.8,0.4,1.6,0.8,2.4,1.2c-0.3,0.2-0.5,0.5-0.8,0.7c-6.3-1.4-11.5-6.4-17.2-8.1C349,33.1,349.2,32.3,349.5,31.5z" />
	<path fill="#D2BB9C" d="M345,85.2c0-1.4,0-2.9,0.1-4.3c4.2,11-0.3,24,2.2,34.8c0.1,1.4-0.3,2.3-2,2.4   C345.7,107.1,347.3,96.1,345,85.2z" />
	<path fill="#2D241E" d="M352.4,61.9c1.6,1.3,3.3,2.5,4.9,3.8c-0.9,1.1-1.5,0.3-3.1,0.1c2.6,3.4,5.4,3.9,8.2,6.3   c-2.1,0.3-3.5-0.8-5.1-1.4l0,0.1c-1.2-0.7-2.1-2.7-3.5-2.5c0,0.3,0,0.7-0.1,1c-1-1.3-1.8-2.8-2.1-4.5c0.5-0.2,0.6-0.5,0.4-0.9   c-0.2,0.1-0.4,0.3-0.6,0.4c-0.2-0.6-0.5-1.1-0.8-1.7C351.5,62.3,352.2,62.8,352.4,61.9z" />
	<path fill="#231A16" d="M368.7,36.6c-6.8-0.8-12.6-4.2-18.5-7.1c0.5-0.5,1-1,1.4-1.4c5.4,3.1,11.2,5.9,17.2,7.6   C368.7,36.1,368.7,36.4,368.7,36.6z" />
	<path fill="#F1DABA" d="M339.3,51.9c-0.6,0-1.2-0.1-1.7-0.1c-1-4.4,0.2-10.7,2.9-15.7C340.7,41.4,339,46.5,339.3,51.9z" />
	<path fill="#DCCEAF" d="M357.3,21.5c-1.2,0.5-2.2,1.7-3.5,0.9c1.9-2.1,4-4,6.3-5.5c2.6,0.1,4.9,0.3,7.3,0.4   c0.1,0.2,0.2,0.3,0.2,0.5c-1.1,1.2-2.5,0.8-4.1,1c0.8,0.9,2.2,0.1,2.6,1.2C363.1,20,359.1,18.3,357.3,21.5z" />
	<path fill="#EF9473" d="M374.7,316c0.4-1.5,1.7-2.6,1.4-4.3c3.5,1.3,6.8,2.5,10.5,3.8C383,317.3,378.7,315.8,374.7,316z" />
	<path fill="#98877B" d="M492,523.7c1.6-1.1-0.2-3.3,1.4-4.4c0.6,3.9-1.4,9,0.7,12.3c-0.3,3.9-1.8,7.7-2,11.8   c-0.4-0.7,0.2-1.8-0.8-2.3C492.1,535.3,493,529.6,492,523.7z" />
	<path fill="#352E27" d="M382.8,9.9c-0.8,0.1-1.6,0.2-3.3,0.4c2.6,0.7,4.4,0.1,6.4,0.6c0.1,0.3,0.3,0.7,0.4,1.1   c-1.9,0-3.9,0-5.8,0.1c-3.9-2.6-8.7-0.9-13.1-1.5c1.4-1.2,3.3-0.2,4.5-2c2.7,1.8,7.2,0.2,10.6,0.8C382.7,9.5,382.8,9.7,382.8,9.9z" />
	<path fill="#A5654E" d="M371,318.1c-0.2,0.1-0.4,0.1-0.7,0.1c-1.3-1.7-4.1,0.6-5.9,0.7c-0.5-0.2-0.9-0.5-1.4-0.7   c0.8-0.8,1.5-1.4,2.6-1.7c-3.4-2.2-7.5-0.7-11.3-1.2c1.7-1.6,4.4,0.5,5.8-1.3c3.6,0.7,7.1,1.5,10.8,2.2   C371,316.9,371,317.5,371,318.1z" />
	<path fill="#DECEB0" d="M370.4,15.8c-1.4-0.3-2.9-0.6-4.3-0.9c0.3-0.2,0.5-0.5,0.8-0.7c5.2,0.1,10.6-1,14.9,2.8   c-3,0.5-5.5,0-8.4-0.6C372.5,15.6,371.4,15.7,370.4,15.8z" />
	<path fill="#E5D5B6" d="M345.1,25.7c0.5,0,0.9,0,1.4,0.1c0.3-0.2,0.6-0.4,0.9-0.6c0.2,0,0.4-0.1,0.6-0.2c0.2,0.3,0.5,0.5,0.7,0.8   c-0.8,1.8-1.8,3.4-3.6,4.3c-0.6-0.7-1.2-1.4-1.8-2.1c-2,0.4-2.7,2.6-4.3,3.3c-0.1-0.2-0.3-0.3-0.4-0.5c0-0.2,0.1-0.4,0.1-0.6   C340.8,28.7,341.9,25.2,345.1,25.7z" />
	<path fill="#191514" d="M355.2,587.3c0.8,0,1.7,0,2.6,0c2.6-3.6-0.7-7.4,0.5-11.7c2.2,2.9,1.8,8,1.9,11.7c0,0,0,0,0,0   c-0.8,0.5-1.4,1.1-1.2,2.1C357.6,589,356.2,588.5,355.2,587.3z" />
	<path fill="#6A5A4D" d="M352.3,25.2c4.1,1.5,7.9,3.5,11.7,5.6c-0.5,0.5-1,1-1.4,1.5c-1.5-0.4-2.9-0.9-4.4-1.3   c-0.1-0.8,0.5-1.8-0.8-2.2c-0.4-0.9-1.4-0.5-2.1-0.7c-1-1-2.1-1.5-3.5-1.4C351.9,26.2,352.1,25.7,352.3,25.2z" />
	<path fill="#D4D5D5" d="M345.7,57c-1.1,0.8-0.3,2.1-0.7,3c-1.5-6.2-1.7-12.6-1.3-19c0.2,0,0.5,0,0.6,0   C344.3,46.5,345.4,51.8,345.7,57z" />
	<path fill="#2B221D" d="M348.1,46c3.1,3.1,7.2,4.5,11.7,6.5c-5.1,0.5-8.6-1.9-12.5-4.8C347.6,47.1,347.8,46.5,348.1,46z" />
	<path fill="#35322A" d="M399.4,11.3c-0.3,0.3-0.8,0.8-1,0.7c-2-1-4.6,0.1-6.3-1.2c0.8-0.1,1.6-0.2,2.5-0.3c0-0.1,0-0.3,0-0.4   c-1-0.1-2.1-0.1-3.1-0.2c-1.3-1.5-3.7,0.2-5.1-1.4c1-0.2,2.1-0.4,3.1-0.7C392.3,9.5,396.7,8.8,399.4,11.3z" />
	<path fill="#3D362D" d="M336.3,67.9c0.7,3.1,1.5,6.2,1.5,9.4c-0.4-0.8-0.7-1.6-1.3-2.7c-0.1,1.4-0.2,2.5-0.3,3.6   C335.2,74.9,334,70.8,336.3,67.9z" />
	<path fill="#32302C" d="M476.9,325.4c-5.9-0.6-11.1-1.1-17.1-2.6c6,0.1,12.3,0.5,17.8,1.9C477.3,324.9,477.1,325.2,476.9,325.4z" />
	<path fill="#DBDBDB" d="M355.2,78c0.5,1.2,1,2.3,1.4,3.3c-0.5,1.8-1,3,0,4.7c-0.5,0.5-1,1-1.5,1.4C354.1,86.4,353.8,78.9,355.2,78z   " />
	<path fill="#AE9D90" d="M533.3,537.4c0.4-0.8,0.9-1.5,1.5-2c-0.7,3,3.3,4.6,5.5,5.4c0.1-0.4,0-0.9,0.2-1.3c0.4,0.5,0.9,1.1,1.3,1.6   c-1.3,1-2.5,1.9-4.2,1.5C536.7,540.3,534.8,539.3,533.3,537.4z" />
	<path fill="#2D2822" d="M350.2,109.2c0.3,2.5-1.2,4.9-0.6,7.1c0.5,0,0.8,0,1.2,0.1c-0.4,0.8-1.1,0.8-1.8,0.5   c-0.4-0.7-0.8-1.4-1.2-2c0-0.7,0-1.4,0-2.2l0,0c0.9-1.1,0.7-2.4,0.7-3.6c0.2-0.2,0.2-0.3,0.1-0.5c0.3-1,0.5-2,0.8-3   C350.3,106.6,350.2,107.9,350.2,109.2z" />
	<path fill="#E1C7B6" d="M358.3,75c0.2,0,0.4,0,0.5,0.2c2.4,1.7,4.7,3.6,8.1,2.7l0,0c-0.4,0.5-0.5,1.3-1.1,1.7   c-0.9-0.1-1.8-0.1-2.7-0.1c-0.2-0.8-0.8-0.8-1.5-0.7l0,0c-1.3-1.6-1.8-0.4-2.7,0.6c-0.6-0.6,0.4-1.8-0.9-2.1l0,0   c0.4-1.1-0.8-1.2-0.9-2.1C357.5,75.1,357.9,75,358.3,75z" />
	<path fill="#2B221D" d="M351.5,54.9c-1.1-0.6-2.2-1.2-3.3-1.8c-0.1,0.3-0.2,0.6-0.3,1c-1.1-2.8-2.2-4.6-0.5-6.5c0,0.7,0,1.4,0,2.1   c1.8,1.6,3.2,3.7,5.6,4.4C352.8,54.9,352.1,54.7,351.5,54.9z" />
	<path fill="#211F1E" d="M437.8,538.9c0.7,2.2,2,3.4,1.1,6.1c-2.1-1.7-1.4-4.1-3.3-6c-0.5-1.4,0.6-2.5,0.7-3.9   C436.9,536.4,437.4,537.7,437.8,538.9z" />
	<path fill="#A39C85" d="M367.5,10.6c2.1,0.1,4.3,0.1,6.4,0.2c-1.6,1-3.5,0.6-5.2,0.8c0,0.1,0,0.2,0,0.4c1.1,0.2,2.2,0.3,3.4,0.5   c0,0.2,0,0.3,0,0.5c-1.7,0.3-3.4,0.5-5.1,0.8c0,0-0.2-0.2-0.2-0.2c0.2-1.1-0.4-1.4-1.3-1.4C366.1,11.6,366.8,11.1,367.5,10.6z" />
	<path fill="#42231C" d="M350.9,310.9c-3.1-0.5-6.2-1-9.5-1.6c2.2-2.2,8,0,11.1,0.8C351.9,310.4,351.4,310.7,350.9,310.9z" />
	<path fill="#B49E84" d="M343.7,22.1c-2.7,0.3-5.4,0.5-8,0.8c0-0.2,0-0.4,0-0.6c3.7-1.6,7.8-2.1,11.7-1   C346.1,21.5,344.8,21.4,343.7,22.1z" />
	<path fill="#C6AEA0" d="M491.4,541.1c1,0.5,0.4,1.6,0.8,2.3c-0.2,2.2,0.6,4.1,2,5.7l0-0.1C489.7,549.1,490.1,543.9,491.4,541.1z" />
	<path fill="#1E1A19" d="M424,429.6c1.7,1,4.1-1.9,5,0.1c-1.2,1.3-2.6,1.6-4.4,1.9c0,2.1,0,4.1,0,6.1   C423.3,435.2,424.2,432.2,424,429.6z" />
	<path fill="#645E51" d="M406.6,13.6c-0.8,1.5-1.5-0.1-2.3-0.7c0-0.5,0-0.9,0.1-1.4c0.2,0,0.5,0,0.7,0c2.4,1.3,5.9,2,7.3,5.1   C410.1,16.5,409,13.6,406.6,13.6c-0.2-0.1-0.3-0.2-0.5-0.2C406.3,13.4,406.4,13.5,406.6,13.6z" />
	<path fill="#ECD5B6" d="M350.9,116.4c-0.4,0-0.7,0-1.2-0.1c-1-2.1,0.8-3.4,2-5.1c0.8,1.3,0.4,2.6,0.7,3.8   C351.9,115.5,351.4,115.9,350.9,116.4z" />
	<path fill="#E0CEB0" d="M343.7,22.1c2-1.2,4.2-0.6,6.6-0.5c-0.3,1-0.6,1.9-0.9,2.7C347.3,24.5,345.7,22.7,343.7,22.1z" />
	<path fill="#403D38" d="M481.1,324.8c3.3,1.2,7.2-0.3,10.3,1.2c-0.7,0.3-1.6-0.2-2.1,0.7c-2.6-0.6-6.1,0.1-8.1-1.4   C481.1,325.2,481.1,325,481.1,324.8z" />
	<path fill="#A9957C" d="M335.6,84.5c0.8-1.1,0.8-2.4,0.8-3.7c1.2,3.2,1.3,6.1,1.2,9.6C336.3,88.2,335.7,86.4,335.6,84.5z" />
	<path fill="#D3BFA3" d="M340.9,108.9c0,2.6-0.6,4-1.2,7c-1.2-3.4-0.4-5.2-0.4-8.2C339.8,108.1,340.8,108.1,340.9,108.9z" />
	<path fill="#2C1F1A" d="M373.3,16.5c1.4,0.3,2.8,0.5,4.3,0.8c-2.8,1.7-6.8,0.2-10,0.6c-0.1-0.2-0.1-0.4-0.2-0.5   C369.2,16.9,372,18,373.3,16.5z" />
	<path fill="#B2B399" d="M382.5,9.3c-3.3-0.5-7.9,1.1-10.6-0.8c4.1-0.4,8.1-0.1,12.2-0.2C384,9.3,383.2,9.2,382.5,9.3z" />
	<path fill="#B7AE95" d="M404.4,12.2c0,0.2,0,0.4,0,0.6c-0.2,0.1-0.5,0.1-0.7,0.2c-2.1-0.8-4.3-1.5-6-3c2.2-0.5,4.1,0.7,6.1,1.3   C404,11.6,404.2,11.9,404.4,12.2z" />
	<path fill="#8F907B" d="M399.5,9.9c-3.3,0.2-7.1-0.9-10.1-2C392.5,7,396.4,8.9,399.5,9.9z" />
	<path fill="#C1B094" d="M344.3,78.1c-0.9-2.1-1.3-4.3-1.5-6.5c0.3-0.3,0.5-0.5,0.8-0.8c0.5,1.7,0.9,3.4,1.4,5.1   C344,76.4,344.5,77.4,344.3,78.1z" />
	<path fill="#645E51" d="M418.9,21.6c-0.1,0.2-0.3,0.4-0.5,0.7c-2.3-1.6-4.4-3.5-5.9-5.8C415.1,16.9,416.7,20,418.9,21.6z" />
	<path fill="#A3AC93" d="M382.5,9.3c0.6-0.1,1.3,0,1.6-0.8c0.7,0,1.4,0,2.2,0c1.4,1.5,3.8-0.2,5.1,1.4c0,0.2,0,0.4,0,0.6   c-2.5-0.5-5.7-0.5-8.6-0.6C382.8,9.7,382.7,9.5,382.5,9.3z" />
	<path fill="#C1B395" d="M351.7,26.7c1.4-0.2,2.6,0.3,3.5,1.4c0,0.7,0,1.4,0,2.1c-1.2-0.7-2.4-1.4-3.6-2   C351.6,27.6,351.6,27.1,351.7,26.7z" />
	<path fill="#646565" d="M350.8,79.8c-2.3,0.7-2-4.7-2.4-6.4C349.7,75.4,350.2,77.5,350.8,79.8z" />
	<path fill="#9F947B" d="M335.7,22.4c0,0.2,0,0.4,0,0.6c0.4,0.4,0.7,0.8,1.1,1.2c-0.9,1-2.6,1-3.2,2.5c-0.4,0.2-0.8,0.4-1.3,0.7   c-0.3-1.7,1.2-2.6,2-3.6c0.7-0.2,0.8-0.8,0.9-1.4C335.3,22.3,335.5,22.3,335.7,22.4z" />
	<path fill="#877C68" d="M343.5,70.8c-0.3,0.3-0.5,0.5-0.8,0.8c-0.6-1.9-2.4-5.1-0.6-6.6C342.6,66.9,343.1,68.9,343.5,70.8z" />
	<path fill="#ADA396" d="M507.3,329c-1.2,0.3-3-0.5-3.7,0.8c-1.2-0.3-2.4-0.6-3.6-0.8C502.2,327.8,505,328,507.3,329z" />
	<path fill="#35322A" d="M384.2,8.4c-3.2,0-6.3,0-9.5,0C377.3,7.4,381.6,7.4,384.2,8.4z" />
	<path fill="#2C1917" d="M351.4,175.6c1.1-1.7,3.3-0.9,5.2-1.3c-0.5,1.5-1.8,1.6-2.7,2.4C353.4,175.3,352.2,175.8,351.4,175.6z" />
	<path fill="#94968A" d="M501.8,328.2c-0.6,0.2-1.2,0.5-1.7,0.7c-1.5-0.4-2.9-0.8-4.4-1.3c0-0.2,0-0.5,0-0.7   C497.7,327.4,499.7,327.8,501.8,328.2z" />
	<path fill="#A39C85" d="M366.8,14.2c-0.3,0.2-0.5,0.5-0.8,0.7c-1,0.1-2,0.2-2.9-0.3c-0.1-1.2,0.6-1.5,1.4-1.8   c0.4,1.2,1.4,0.7,2.2,0.7l0.2,0.2C366.8,13.9,366.8,14.1,366.8,14.2z" />
	<path fill="#A3957C" d="M353.8,69.3c0-0.3,0-0.7,0.1-1c1.4-0.2,2.3,1.8,3.5,2.5c-1,0-1.9-0.1-2.9-0.1   C354.3,70.2,354,69.7,353.8,69.3z" />
	<path fill="#828C81" d="M489.3,326.8c0.5-0.9,1.4-0.4,2.1-0.7c0.9,0.3,2.1-0.3,2.9,0.7c0,0.2,0,0.5,0,0.7   C492.6,327.2,490.9,327,489.3,326.8z" />
	<path fill="#CEBDA1" d="M358.9,79.4c0.9-1,1.4-2.2,2.7-0.6c-0.3,0-0.7-0.1-1.3-0.1c0.2,0.6,0.3,1.2,0.5,2   C359.8,80.9,359.3,80.4,358.9,79.4z" />
	<path fill="#808D7B" d="M589.8,554.8c-0.5-0.3-1-0.5-1.5-0.8c1.1-0.9,2.6-0.7,3.9-1.5C591.9,554.2,590.8,554.4,589.8,554.8z" />
	<path fill="#6A5951" d="M476.1,373.2c0.5-1.1,1.2-2,2.8-2.1c0,1.6-1.1,2.2-2,2.9C476.6,373.7,476.4,373.5,476.1,373.2z" />
	<path fill="#8F8580" d="M359,589.5c-0.2-1,0.4-1.6,1.2-2.1c-0.1,1.6,1.4,1.3,2.2,2.4C361.2,589.6,360.1,589.5,359,589.5z" />
	<path fill="#A9AC96" d="M549.2,562.1c-0.5-0.3-1.1-0.5-1.6-0.8c1.3-0.7,2.7-1.2,4.6-1.4C551.3,561.2,550.3,561.7,549.2,562.1z" />
	<path fill="#8E917C" d="M486.3,547.6c-0.5-0.2-0.9-0.4-1.4-0.7c-0.3-1.2,0.5-1.9,1-2.9C487.6,545.3,485.7,546.5,486.3,547.6z" />
	<path fill="#CEBDA1" d="M366,79.4c0.3-0.5,0.6-1,0.8-1.5c0.4,0.8,0.9,1.5,1.3,2.3c-0.4,0.8-0.9,1.5-1.5,2.1   C366.8,81.2,367.2,80.1,366,79.4z" />
	<path fill="#656765" d="M324.2,386.8c-0.7,0-1.4-0.1-2.6-0.2c0.8-0.8,1.2-1.3,1.6-1.7c0.5,0.2,1,0.5,1.5,0.7   C324.5,386.2,324.3,386.5,324.2,386.8z" />
	<path fill="#2A2C2C" d="M351.5,88.9c-1.2-1.2-0.4-2.6-0.5-3.9c0.5,1.1,1.3,2,1.2,3.2C352,88.4,351.7,88.7,351.5,88.9z" />
	<path fill="#B2B5B1" d="M355.2,78c-1.2,0.5-0.5,1.6-0.8,2.4c-0.3-1.3-0.5-2.5-0.8-3.8c0.3-0.3,0.6-0.6,0.9-0.8   C354.7,76.5,355,77.2,355.2,78z" />
	<path fill="#EBDA8F" d="M394.3,219.8c1.5-1.3,3.5-0.4,5.3-0.6C397.9,220,396.1,219.8,394.3,219.8z" />
	<path fill="#6C6E6D" d="M351.5,88.9c0.2-0.2,0.5-0.4,0.7-0.7c0.2,1.3,0.3,2.5,0.5,3.8C351.6,91.1,351.6,91.1,351.5,88.9z" />
	<path fill="#E6DAB6" d="M480.4,569.3c-0.3,0-0.6,0-0.9-0.1c0.5-1.2,1.1-2.4,1.6-3.6c0,0,0.1,0.1,0.1,0.1c0,0.7-0.1,1.4-0.1,2.1   c-0.2,0.3-0.5,0.5-0.7,0.8C480.5,568.8,480.4,569.1,480.4,569.3z" />
	<path fill="#C7C1A4" d="M366.7,13.5c-0.8,0-1.7,0.4-2.2-0.7c0.3-0.2,0.5-0.4,0.8-0.7C366.3,12.1,366.9,12.5,366.7,13.5z" />
	<path fill="#484D4B" d="M354.5,75.8c-0.3,0.3-0.6,0.6-0.9,0.8c-0.8-0.8-0.7-1.7-0.3-2.6C354.3,74.2,354.5,74.9,354.5,75.8z" />
	<path fill="#211F1E" d="M435.6,541.7c1.1,1.4,0.6,3,0.6,4.5C435.1,544.9,435.7,543.2,435.6,541.7z" />
	<path fill="#626A61" d="M481.1,324.8c0,0.2,0,0.4,0.1,0.6c-1.4,0-2.9,0-4.3,0c0.2-0.2,0.5-0.5,0.7-0.7   C478.8,324.7,479.9,324.8,481.1,324.8z" />
	<path fill="#8C8D81" d="M512.3,337c-0.3,0.5-0.6,1-0.9,1.6c-0.6-0.5-1.2-1.1-2.4-2.2C510.7,336.7,511.5,336.9,512.3,337z" />
	<path fill="#515757" d="M356.6,85.9c-0.2-0.5-0.4-1-0.6-1.6c0.5-0.2,1.1-0.4,1.7-0.7C358.3,85.1,357.5,85.5,356.6,85.9z" />
	<path fill="#1B1816" d="M491.9,535.3c0,1.3,0.3,2.6-0.5,3.7C491.4,537.8,490.8,536.4,491.9,535.3z" />
	<path fill="#423733" d="M369.7,298.6c0.2,0.5,0.4,1.1,0.6,1.6c-0.2,0.5-0.5,1-0.7,1.5c-0.3-0.8-0.5-1.5-0.8-2.3   C369.1,299.2,369.4,298.9,369.7,298.6z" />
	<path fill="#B2AEAE" d="M349.3,72.2c0.3-0.3,0.6-0.6,0.9-0.9c0.7,0.9,0.9,1.8,0.3,3.2C350.1,73.6,349.7,72.9,349.3,72.2z" />
	<path fill="#2D241E" d="M354.5,70.6c1,0,1.9,0.1,2.9,0.1c0,0,0-0.1,0-0.1c0,0.5,0,1,0,1.5c-0.2,0-0.5,0-0.7,0   C355.9,71.8,355.1,71.3,354.5,70.6z" />
	<path fill="#D2BB9C" d="M348,112.7c0,0.7,0,1.4,0,2.2c-0.2,0.3-0.4,0.5-0.6,0.8C347.4,114.7,346.7,113.5,348,112.7z" />
	<path fill="#7C8989" d="M418.5,315.9c-0.7,0-1.3,0.1-2,0.1c0-0.2,0-0.3,0-0.5c0.7,0,1.3-0.1,2-0.1   C418.5,315.5,418.5,315.7,418.5,315.9z" />
	<path fill="#D2BB9C" d="M349.5,91.7c-1.1-0.7-0.8-1.8-0.8-2.9C349.6,89.6,349.5,90.7,349.5,91.7z" />
	<path fill="#D2BB9C" d="M348.8,88.8c-1.1-0.8-0.8-2-0.7-3.2C348.9,86.6,348.7,87.7,348.8,88.8z" />
	<path fill="#2C1F1A" d="M370.4,15.8c1-0.1,2.1-0.2,2.9,0.6C372.3,16.4,371.1,17,370.4,15.8z" />
	<path fill="#B4A9A9" d="M357.4,107.6c0.2,0,0.4,0,0.7,0c0,0.6-0.1,1.1-0.1,1.7c-0.1,0-0.3,0-0.4,0   C357.5,108.8,357.5,108.2,357.4,107.6z" />
	<path fill="#CEBDA1" d="M363.1,79.5c0.8,0,1.6,0,2.4,0.1C364.7,80.2,363.9,80.2,363.1,79.5z" />
	<path fill="#7F8888" d="M344.3,41.1c-0.2,0-0.5,0-0.6,0c0.1-0.7,0.1-1.3,0.2-2c0.1,0,0.3,0,0.4,0C344.2,39.8,344.3,40.5,344.3,41.1   z" />
	<path fill="#506A61" d="M425.5,392.8c-0.1,0.2-0.1,0.5-0.2,0.7c-0.6,0-1.1-0.1-1.7-0.1c0-0.1,0-0.3,0-0.4   C424.2,392.9,424.9,392.8,425.5,392.8z" />
	<path fill="#CEBDA1" d="M358.3,75c-0.6,0.1-1.2,0.4-1.7,0.1c0.1-0.4,0.1-0.8,0.2-1.4C357.5,74.2,357.9,74.6,358.3,75z" />
	<path fill="#211F1E" d="M435.6,532.3c0.8,0.6,0.7,1.5,0.6,2.3C435.2,534,435.6,533.1,435.6,532.3z" />
	<path fill="#4B463C" d="M348,24.4c0.5,0,0.9,0,1.4,0c0.1,0.7,0,1.2-0.8,1.5c-0.2-0.3-0.5-0.5-0.7-0.8   C347.9,24.8,347.9,24.6,348,24.4z" />
	<path fill="#CEBDA1" d="M357.4,75.8c0.7,0.3,0.7,0.9,0.7,1.5C357.8,76.8,357.6,76.3,357.4,75.8z" />
	<path fill="#0C0A08" d="M406.6,12c-0.6,0.1-1.2,0.1-1.4-0.6C405.6,11.6,406.1,11.8,406.6,12z" />
	<path fill="#E1C7B6" d="M371.1,179.5c0,0.6-0.1,1-0.7,1.2C370.3,180.1,370.5,179.7,371.1,179.5z" />
	<path fill="#1F1814" d="M335.1,22.4c-0.1,0.6-0.2,1.2-0.9,1.4C334.2,23.1,334.2,22.4,335.1,22.4z" />
	<path fill="#0C0A08" d="M408.7,12.9c-0.5-0.3-1-0.5-1.4-0.8C407.9,12.1,408.6,12.1,408.7,12.9z" />
	<path fill="#AC9589" d="M537.7,542.5c0.6,0,1.1,0.1,1.7,0.1C538.7,543.3,538.2,543.5,537.7,542.5z" />
	<path fill="#CEBDA1" d="M361.6,78.8c0.6-0.1,1.3-0.1,1.5,0.7C362.6,79.2,362.1,79,361.6,78.8z" />
	<path fill="#1B1816" d="M492.8,548.9c0.5,0,1,0.1,1.5,0.1c0.1,0.2,0.1,0.4,0,0.7C493.6,549.8,493,549.8,492.8,548.9z" />
	<path fill="#A1A799" d="M494.2,327.5c0-0.2,0-0.5,0-0.7c0.5,0.1,0.9,0.1,1.4,0.2c0,0.2,0,0.5,0,0.7   C495.2,327.6,494.7,327.5,494.2,327.5z" />
	<path fill="#625855" d="M305.2,399.3c0,0.2,0,0.4,0.1,0.6c-0.6,0.2-1.2,0.1-1.6-0.5C304.2,399.3,304.7,399.3,305.2,399.3   L305.2,399.3z" />
	<path fill="#6B5D4F" d="M351.5,64.3c0.2-0.1,0.4-0.3,0.6-0.4c0.2,0.5,0.1,0.8-0.4,0.9C351.6,64.6,351.6,64.4,351.5,64.3z" />
	<path fill="#CEBDA1" d="M358,77.3c0.9,0.3,0.8,1,0.7,1.6C358.5,78.4,358.3,77.8,358,77.3z" />
	<path fill="#C1B094" d="M345.7,78c-0.7-0.3-0.6-0.9-0.6-1.5C345.3,77,345.5,77.5,345.7,78z" />
	<path fill="#EF8A6A" d="M377.8,312.3c-0.3-0.1-0.5-0.3-0.8-0.4C377.2,312.1,377.5,312.2,377.8,312.3z" />
	<path fill="#AC9589" d="M537.1,541.8c0.2,0.2,0.3,0.4,0.5,0.7C537.5,542.3,537.3,542.1,537.1,541.8z" />
	<path fill="#D7C0A1" d="M345,30.2c0.3-0.2,0.6-0.4,0.9-0.6C345.6,29.8,345.3,30,345,30.2z" />
	<path fill="#1B1816" d="M494.3,549.7c0.3,0.2,0.6,0.5,0.9,0.7C494.7,550.4,494.3,550.2,494.3,549.7z" />
	<path fill="#1F1814" d="M334.2,23.7c-0.2,0.2-0.5,0.5-0.7,0.7C333.7,24.2,334,24,334.2,23.7z" />
	<path fill="#75705F" d="M404.4,12.2c-0.2-0.3-0.4-0.6-0.6-0.9c0.2,0,0.5,0,0.7,0.1C404.4,11.7,404.4,12,404.4,12.2z" />
	<path fill="#AC9589" d="M539.8,542.4c0.3-0.2,0.6-0.4,0.9-0.6C540.4,542.1,540.1,542.3,539.8,542.4z" />
	<path fill="#A29792" d="M276.2,573c2.4-5.6,1.3-20.8,6.4-22.9c0.4-1.3-1.5-0.9-2.1-1.7l0,0c1.5-1.5-0.1-4,1.5-5.2   c2.6,0.1,5.3,0,7.9-0.7c-1.9,10.3-6.3,20.2-6.5,30.7c-0.9,0.6-2,1.4-3.1,2.1c-0.5-0.6-0.8-1.1-1.3-1.7c-0.6,0.1-1.3,0.3-2.1,0.4   C276.8,573.7,276.5,573.4,276.2,573z" />
	<path fill="#3F4140" d="M290,542.5c-2.6,0.7-5.2,0.8-7.9,0.7c1.5-2,4.9-0.8,6.5-2.1l0,0c1-0.4,0.5-1.3,0.7-2.1   C290.1,539.9,291.6,541.8,290,542.5z" />
	<path fill="#A29792" d="M290.6,540.9c-0.3-0.7-0.7-1.3-1.3-1.9c0.4-1.3,0.5-2.7,1.4-3.7C290.7,537.2,290.7,539,290.6,540.9z" />
	<path fill="#F6D9C7" d="M375.3,76.6c-1.3,0-1.9,1.1-2.5,2c-4.5-0.4-5.7-5.6-8.3-8.5c0.3-0.3,0.5-0.5,0.8-0.8c1.3,1,3.6,3.3,4.6,0.5   c-0.8-1.3-1.6-2.7-2.4-4.1c0.1-1.7-0.3-3.5,1.3-4.8c0.2-0.1,0.1-0.7,0.1-1l0,0c0.5,0,1.1,0,1.6-0.1c0,0,0,0,0,0   c0,0.6,0,1.1,0.1,1.7l0,0c-0.5-0.1-0.8,0.2-0.8,0.7l0,0c-1.2,0.9-1.2,1.6-0.2,2.8c1.8,1.3,1,3.9,2.7,5.4c1.6-0.9,2.7-2,2.9-4   c-1.2-0.8-2.3-1.6-3.6-2.4c3.7-5.4-3.2-9.3-7.1-11.4c0.9-1.5,2.3-1.3,3.7-1.3c3.4,2.3,5.9,8.8,11.1,6.6c1.9-1.1,3.7-2.5,1.8-4.5   c1.5-2.3,4-3.1,5.9-4.9c1.4,0,1.7-1.2,2.3-2.1c1.2-0.2,2.1-0.8,2.7-2.1c-0.6-0.2-1.1-0.4-1.3-0.5c0.4-0.5,0.9-1,1.4-1.5   c-0.7-1.9,1.2-2.8,2.5-3.2c0.5-4.7,1.8-7.6,1.7-12.6c-1.8,1.3-3.7,0.6-5.6,1.5c0.1-0.3,0.1-0.7,0.2-1c3.1-1.6,6.3-3.1,9.9-1.9   c0,0.6,0,1,0,1.8c3-2.6,6.4-4.5,9.5-1.2c1.8-0.6,3.6-2,5.3-0.9c0.4-0.5,0.8-1.1,1.1-1.6c1.3,0.3,1.6,1.5,2.9,1.4   c2.2,6.6,4.3,13.1,6.8,19.5c-8,6.5-2.4,14.9,2.7,21.7c0,0.6-0.1,1.1-0.1,1.8c-0.9,0.5-1.9,1.1-2.8,1.7c-1.3-0.8-1.4-1.8-3-0.7l0,0   c-1.2-0.1-1.4,1.2-2.2,1.9c0.9,0.5,1.6,0.3,2.8,0.4c0.5,1.8-0.1,4.1,1.8,5.3c-1.4,4.3-6.2,2.2-9.4,2.8c-0.8,1.6,0.7,1.6,1.3,2.2   c1.6,2.5,7.7,2,5,5.9c9.1,19.8-36.5,3-43-2.4c-0.9-1.7-0.4-5.3-2.6-5.8C376.5,77.9,376,77.2,375.3,76.6z M406.1,47.7   c5.5-4.3,12,3.3,14.1-0.3C410.8,39,399.3,50.4,406.1,47.7z M406.4,53.6c1.2,2.4,3.1,0.4,4.6,1.2c-0.1,0.4-0.1,0.8-0.2,1.2   c1.4,0.8,2.7,1.5,4.6,0.6c-1.3-1.5-0.1-2.9,0.1-4.3c0.6-0.8,2.2-0.9,1.8-2.5C413.2,49.1,409.9,51.9,406.4,53.6z" />
	<path fill="#CEAFA0" d="M423.2,85.1c-0.4-2.6-4.4-2-5.7-4.2c2.5,0.5,6.7-1.6,7.8,2.5C424.6,84,423.9,84.6,423.2,85.1z" />
	<path fill="#120908" d="M423.1,68.5c1.6-1.1,1.7-0.1,3,0.7C425.4,71.2,424.4,68.2,423.1,68.5z" />
	<path fill="#120908" d="M421.8,70.7c-0.3-0.1-0.5-0.2-0.8-0.4c0.3-0.3,0.5-0.7,0.8-1C421.8,69.8,421.8,70.2,421.8,70.7z" />
	<path fill="#120908" d="M421.8,69.3c0.2-0.7,0.7-0.9,1.4-0.9C423.1,69.3,422.4,69.3,421.8,69.3z" />
	<path fill="#E1C7B6" d="M410.7,95.5c0.6-0.1,1.3-0.3,1.7,0.5C411.8,95.8,411.3,95.6,410.7,95.5z" />
	<path fill="#514E42" d="M405.1,17.2c0.6-0.3,1.3-0.6,1.9-0.9c3,1.5,5.3,4.1,5.4,7.3c-0.3,0-0.6,0-0.9,0   C409.3,21.5,407.7,18.9,405.1,17.2z" />
	<path fill="#98907B" d="M405.1,17.2c1.6,1.3,3.4,2.4,4.4,4.3c-0.3,0-0.6,0-0.8,0c-3-2.2-6-4.2-9.3-5.9c0.2-0.2,0.5-0.5,0.7-0.7   C401.8,15.7,403.5,16.5,405.1,17.2z" />
	<path fill="#555347" d="M400.1,14.9c-0.2,0.2-0.5,0.5-0.7,0.7c-3.6-2.3-8.2-1.3-11.7-2.8c0.2-0.2,0.4-0.4,0.6-0.6   C392.4,12.8,396.5,13,400.1,14.9z" />
	<path fill="#A19B84" d="M388.4,12.3c-0.2,0.2-0.4,0.4-0.6,0.6c-2.6,0-5.2-0.1-7.9-0.1c0.2-0.2,0.4-0.4,0.7-0.6   C383.2,12.1,385.8,11.9,388.4,12.3z" />
	<path fill="#7C6A5B" d="M412.4,23.6c0-0.5,0-0.9,0-1.4c0.8,0.7,1.5,1.4,2.3,2c-0.5,0.1-1.1,0.1-1.6,0.2   C412.9,24.1,412.6,23.9,412.4,23.6z" />
	<path fill="#B1AD94" d="M391.4,10.5c0-0.2,0-0.4,0-0.6c1,0.1,2.1,0.1,3.1,0.2c0,0.1,0,0.3,0,0.4C393.5,10.5,392.4,11,391.4,10.5z" />
	<path fill="#352E27" d="M387,10.1c0.7,0,1.5,0.1,2.2,0.1c0,0.2,0,0.3,0,0.5C388.4,10.6,387.6,11,387,10.1z" />
	<path fill="#35322A" d="M389.2,10.7c0-0.2,0-0.3,0-0.5c0.6-0.2,1.1-0.1,1.5,0.5C390.2,10.6,389.7,10.7,389.2,10.7z" />
	<path fill="#75705F" d="M403.6,13c0.2-0.1,0.5-0.1,0.7-0.2c0.3,0.3,0.5,0.5,0.8,0.8C404.6,13.4,404.1,13.2,403.6,13z" />
	<path fill="#35322A" d="M400.1,11.5c0.3,0.2,0.6,0.3,0.9,0.5C400.7,11.9,400.4,11.7,400.1,11.5z" />
	<path d="M418.1,23.8c0.1-0.2,0.2-0.3,0.3-0.5C418.9,23.8,418.2,23.6,418.1,23.8L418.1,23.8z" />
	<path fill="#DEC5B4" d="M423.2,239.3c1.2-1.2,2.4-2.4,3.6-3.6c2.4,4.1,0.3,9.4,2.2,13.1c-2.3,4-6.7,7.5-7.2,12.3   c-0.2,0-0.4,0.1-0.7,0.2c-1.1-1.7-3.7-0.6-5.4-1C419.9,253.8,422.6,247,423.2,239.3z" />
	<path fill="#5B5653" d="M421.9,259.7c0.1-0.3,0.3-0.6,0.4-0.9C422.2,259.1,422.1,259.4,421.9,259.7z" />
	<path fill="#DFC5B4" d="M499.2,343.6c3.2-0.7,4.3,2.1,5.5,4.1c0.4,0.1,0.7,0.1,1,0.2c0.2,2-1.4,3.4-2.3,5.1   c-1.9,0.1-3.6-4.1-5.1-2.2c-0.7-1.2-1.4-2.3-2.1-3.4c0.6-1.6,0.1-3.7,1.7-4.4c-0.1,1.2-0.7,2.5,0.6,3.4   C499.7,345.5,499.2,344.5,499.2,343.6z" />
	<path fill="#0A0706" d="M471.1,367.6c4.8-3.1,10-7.2,15.8-7.4c1,5.2-12.5,7.5-15.8,8.6c-0.2-0.2-0.4-0.4-0.6-0.6   C470.6,368.1,470.9,367.8,471.1,367.6z" />
	<path fill="#1B1816" d="M494.2,549.1c-3.6-4-1.7-10.6-0.1-15.2c1.5,4.1,0.2,8.6,1.8,12.6C497,548.7,496.7,549.1,494.2,549.1z" />
	<path fill="#1B1816" d="M492.8,407.2c-0.8-4.4-4.4-9.4-2.1-13.7c1.4,2.4,2.5,7.5,2.9,12.1C493.3,406.1,493.1,406.7,492.8,407.2z" />
	<path fill="#161413" d="M504.2,353.9c1.2,3.4,3.6,6.4,3.6,10.1c-3.4-1.9-4.3-6.8-5.8-10.3C502.8,353.7,503.5,353.6,504.2,353.9z" />
	<path fill="#332D2A" d="M494.8,416.3c2,1.6,2,1.9,1.4,7.9C495.5,421.3,494.1,419.2,494.8,416.3z" />
	<path fill="#77564B" d="M348,361.6c-0.6-2.1,0.6-4.5-0.6-6.4c0.2-1.5,0.5-2.9,0.7-4.4c0.2,0,0.4,0,0.6,0c0,3.6-0.1,7.3-0.1,10.9   C348.4,361.7,348.2,361.6,348,361.6z" />
	<path fill="#514640" d="M503.6,353.7c-2.4,0.6-3.7-1.3-5.1-2.9c1.5-1.9,3.2,2.3,5.1,2.2l0,0C503.6,353.2,503.6,353.4,503.6,353.7z" />
	<path fill="#A16F5C" d="M348.7,350.8c-0.2,0-0.4,0-0.6,0c0.8-2.4,0.6-5.1,1.9-7.3c0.2,0.2,0.5,0.5,0.7,0.7   C350,346.3,350,349.1,348.7,350.8z" />
	<path fill="#4F4A46" d="M492.8,407.2c0.3-0.5,0.5-1,0.8-1.6c0.9,2,0.5,4.2,0.5,6.3C493.1,410.5,492.9,408.9,492.8,407.2z" />
	<path fill="#352A27" d="M505.7,349.3c0-0.5,0-1,0.1-1.4c0.4,0,0.7,0,1.2,0c0.4,1.2,1,2.4,0.9,4.1   C506.4,351.5,506.3,350.6,505.7,349.3z" />
	<path fill="#6B6159" d="M499.2,343.6c0,0.9,0.5,1.9-0.5,2.8c-1.4-0.9-0.8-2.2-0.6-3.4l0.3,0C498.6,343.1,498.9,343.4,499.2,343.6   L499.2,343.6z" />
	<path fill="#392B26" d="M350.7,344.2c-0.2-0.2-0.5-0.5-0.7-0.7c0.5-1.3,1-2.5,1.4-3.8c0.3,0.3,0.5,0.6,0.8,0.9   C351.7,341.8,351.2,343,350.7,344.2z" />
	<path fill="#83756D" d="M495.4,427.2c2,2.1,2,2.2,0.4,3.1C495.7,429.4,495.6,428.7,495.4,427.2z" />
	<path fill="#3E3430" d="M493.4,389.5c-0.5,0.5-0.8,0.8-1.1,1.1C490.6,390.3,492,388.2,493.4,389.5z" />
	<path fill="#2A211D" d="M348,361.6c0.2,0,0.4,0.1,0.6,0.1c0,0.9,0,1.9,0,2.8C347.4,363.7,348.1,362.6,348,361.6z" />
	<path fill="#B4A097" d="M496.1,435.2c-0.3-0.3-0.4-0.5,0-0.8C496.4,434.6,496.2,434.9,496.1,435.2z" />
	<path fill="#DFC5B4" d="M503.6,353.7c0-0.2-0.1-0.4-0.1-0.7c0.2,0.3,0.5,0.6,0.7,0.9C504,353.8,503.8,353.8,503.6,353.7z" />
	<path fill="#DFC5B4" d="M500.7,353.2c0.2,0.2,0.5,0.3,0.7,0.5C501.2,353.5,500.9,353.3,500.7,353.2z" />
	<path fill="#DFC5B4" d="M499.2,343.6c-0.3-0.2-0.6-0.4-0.9-0.7C498.6,343.1,498.9,343.4,499.2,343.6z" />
	<path fill="#DFC6B5" d="M535.4,344.4c4.9-3.8,9.7,7.2,5.6,10.6c-1.1,0-2.2,0-3.5,0c-1.2-1-3.8-1.6-3.4-3.6c1,0.6,1.9,1.6,4,1.6   C536.1,350.1,535.1,347.4,535.4,344.4z" />
	<path fill="#131110" d="M535.7,390.5c2.7,3.9,3,12.9,0.6,20.8c-0.3-6.6-0.6-12.7-1.5-19.3C534.7,391.4,534.7,390.7,535.7,390.5z" />
	<path fill="#1F1B19" d="M535.4,344.4c-0.3,3,0.7,5.8,2.7,8.6c-2,0-2.9-1-4-1.6c-0.4-3-0.7-6-1.1-9.2c0.4-0.8,1.1-0.4,1.7-0.1   C534.9,342.9,535.2,343.6,535.4,344.4L535.4,344.4z" />
	<path fill="#23201E" d="M548.4,527.4c-0.2,1.9,2.3,6-0.4,6.4c-1.7-2.1-1-4.7-0.9-7.1C547.6,526.9,548,527.1,548.4,527.4z" />
	<path fill="#554D47" d="M547.4,518.5c1.5,3.5,1.5,3.5,0,4.2C546.5,519.9,546.5,519.9,547.4,518.5z" />
	<path fill="#5D524D" d="M533.4,386.4c-1.8-1.3-1.6-3.3-2.5-5.3C533.1,383,533.4,383.6,533.4,386.4z" />
	<path fill="#342F2B" d="M535.5,420.2c0-1.3,0-2.5,0-4.5c1.5,1.4,1.4,1.9,1.3,3.6C536.4,419.7,535.9,419.9,535.5,420.2z" />
	<path fill="#5B524C" d="M545.9,515.6c-1.2-2-1.3-3.3-1-5.2C546.1,512.1,546.6,513.3,545.9,515.6z" />
	<path fill="#B7A99C" d="M535.5,420.2c0.4-0.3,0.9-0.6,1.3-0.8c0.2,1.3,0.5,2.5-1.1,3.7C535.6,421.9,535.5,421.1,535.5,420.2z" />
	<path fill="#95847B" d="M532.3,445.5c-1.1-1.9-0.4-2.9,0.8-4C533.7,443.1,532.5,444,532.3,445.5z" />
	<path fill="#5F4D48" d="M548.4,527.4c-0.4-0.2-0.8-0.5-1.2-0.7c-0.1-0.9-0.3-1.8,0.4-2.9C547.8,525.2,548.5,526.1,548.4,527.4z" />
	<path fill="#534641" d="M544.9,507c-1-0.7-0.9-1.6-0.6-2.5C545,505.5,545,505.5,544.9,507z" />
	<path fill="#81746C" d="M535.1,435.1c-0.2,0.6-0.5,1.2-0.8,1.9C533.7,436,533.7,436,535.1,435.1z" />
	<path fill="#38302D" d="M535.4,426.2c0,0.7,0,1.5,0,2.2c-0.1,0-0.2,0.1-0.3,0.1c-0.4-0.7-0.4-1.5-0.3-2.3   C534.9,426.2,535.2,426.2,535.4,426.2z" />
	<path fill="#DFC6B5" d="M535.4,344.3c-0.2-0.7-0.5-1.5-0.7-2.2C535.9,342.6,535.4,343.5,535.4,344.3z" />
	<path fill="#49443F" d="M332.7,222c0.4,1.5,0.4,3-0.1,5.2c-0.9-2.1-0.4-3.7-0.6-5.2C332.2,222,332.4,222,332.7,222z" />
	<path fill="#988178" d="M332.7,222c-0.3,0-0.5,0-0.8-0.1c-0.4-0.6-0.7-1.1-1.1-1.7C332.2,219.3,332.2,221.3,332.7,222z" />
	<path fill="#070604" d="M397.3,211.7c-5-1.2-9.9-2.8-14.6-5c0.5-1.1,1.5-0.4,2.2-0.7c13.1,3.1,26.2,4.7,39-0.4c1,0.5,0.9,1.2,0.8,2   C416.4,212.2,406.6,212.7,397.3,211.7z" />
	<path fill="#434231" d="M427.6,204.6c0.5-1.6,3-2.3,3.8-0.7C430.1,204.4,428.8,205.8,427.6,204.6z" />
	<path d="M494.2,531.6c-2.1-3.2-0.1-8.4-0.7-12.3c0.5,0.7,0.9,1.5,1.5,2.2C494.6,524.9,496,528.7,494.2,531.6z" />
	<path fill="#403935" d="M493.1,511.3c-0.7-1.5-0.5-3-0.1-4.6C494.7,508.4,494.8,510.4,493.1,511.3z" />
	<path fill="#2C2724" d="M492.5,498.2c1.6,1.5,1.1,3.2,0,4.8C491.9,500.9,491.9,500.9,492.5,498.2z" />
	<path fill="#080303" d="M466.1,370.2c-1.2,1.3-2.3,1.3-3.9,1.1C463.3,370,464.2,369.3,466.1,370.2z" />
	<path fill="#50423C" d="M494.9,521.6c-1.3-1.4-1.5-3-1.4-4.8C494.5,518.3,495.2,519.8,494.9,521.6z" />
	<path fill="#54453F" d="M470.4,368.3c0.2,0.2,0.4,0.4,0.6,0.6c-0.6,0.4-1.1,0.9-1.7,1.3C469,369.1,469,369.1,470.4,368.3z" />
	<path fill="#54453F" d="M471.7,368.8c0.6-0.9,1.4-0.7,2.2-0.5C473.3,368.9,472.6,368.9,471.7,368.8z" />
	<path fill="#54453F" d="M471.1,367.6c-0.2,0.2-0.4,0.4-0.7,0.6C470.7,368,470.9,367.8,471.1,367.6z" />
	<path fill="#E0C6B5" d="M401.6,246.6c2.4-1.4,6-0.7,8.7-2.2c0.3,0.4,0.6,0.8,0.8,1.2c-3.7,3.4-10.1,5.4-12.1,9.9   c6.5-4.7,13.9-7.1,19.8-12.6c2.4,3.8-3.8,13.9-5.7,18.1c-0.1-0.3-0.1-0.7-0.2-1c-11.5-4.3-5.8-1.8-14.3,1.1   c-0.4-1.6,1.6-2.3,0.4-4.4c-0.8,1.7-1.3,2.8-1.9,4.3c-0.2,0.1-0.3,0.1-0.5,0.1c-2.9-5.4,2.7-8.7,5.5-12.6c-0.7-0.5-1.2-0.9-2.2-1.6   C400.8,246.7,401.2,246.7,401.6,246.6c1.1,1.1,2.2,1,4.1,0C403.8,246.6,402.7,246.6,401.6,246.6z" />
	<path fill="#0B0909" d="M413.1,261c4.6-6.6,4.9-15.3,9.4-21.7c0.3,0,0.5,0.1,0.8,0.1l0-0.1c-0.8,8.5-3.7,16.7-9.5,23.1   c-0.3-0.2-0.5-0.5-0.8-0.7C413.1,261.5,413.1,261.2,413.1,261z" />
	<path fill="#0E0A0A" d="M401.6,252.4c3.2-2.3,6.4-4.5,9.5-6.8c-0.3-0.4-0.5-0.8-0.8-1.2c3.3-1.7,6.9-3,9.3-6   c0.3,0.2,0.6,0.3,0.9,0.5c-2.7,7.7-11.6,10.4-18.2,14.2C402.1,252.9,401.8,252.7,401.6,252.4z" />
	<path fill="#070605" d="M408.1,281.3c-2.4-4.8-2.5-9.5,1.9-12.9c-0.9,3.7-0.5,7.7-0.5,11.5C409,280.3,408.6,280.8,408.1,281.3z" />
	<path fill="#5D554F" d="M408.1,281.3c0.5-0.5,0.9-0.9,1.4-1.4c0.1,3.9,1.2,7.7,0.6,11.5C408.4,288.5,408.9,284.6,408.1,281.3z" />
	<path fill="#513733" d="M381.9,257.4c0.3-0.5,0.5-0.9,0.8-1.4c3.3,0.4,6.5-0.5,10.3-1.5c-1.6,3.1-5.1,2.3-7.9,2.7   c-1.4-0.8-1.4-0.8-2.2,0.1C382.5,257.4,382.2,257.4,381.9,257.4z" />
	<path fill="#E0C6B5" d="M419.6,238.5c-2.1,2.5-4.9,4.1-7.9,5.2c1.7-3,5.1-4.3,7.9-5.8C419.6,238.1,419.6,238.3,419.6,238.5z" />
	<path fill="#DEC5B4" d="M419.6,238.5c0-0.2,0-0.4,0-0.6c1.5-0.6,1.3,1.7,2.8,1.4c-1.6,1.3-1.9,3.4-2.8,5.2c-0.1-0.7,0-1.4-0.9-1.6   c0.6-1.3,1.1-2.6,1.7-3.9C420.2,238.8,419.9,238.6,419.6,238.5z" />
	<path fill="#60544E" d="M409.4,290.5c0.2,0.3,0.5,0.6,0.7,0.9c-0.4,2.6-0.1,3.9-1.8,6.3C408.3,294.7,408.7,292.6,409.4,290.5z" />
	<path fill="#B09D91" d="M396.5,261.1c0.2,0,0.4-0.1,0.5-0.1c0.2,0.5,0.5,0.9,0.7,1.4c-0.7,2.2,0.3,3.6-2,5.4   C396.1,265.2,396.3,263.2,396.5,261.1z" />
	<path fill="#5A4F4A" d="M393.6,286.3c-0.4-1.8-1.3-3.5-0.5-5.8c1,1.7,1.2,3.4,1.3,5C394.1,285.8,393.9,286.1,393.6,286.3z" />
	<path fill="#E0C6B5" d="M422.5,239.3c-1.3,0.3-1.3-1.2-2.2-1.5c1-0.7,2-1.4,3-2.1c0,0.5,0,1,0,1.5l0,0   C422.1,237.6,422.7,238.6,422.5,239.3z" />
	<path fill="#746760" d="M395.5,296.7c-1.8-1.6-1.1-3.2-1-4.8C395.2,293.4,395.7,294.8,395.5,296.7z" />
	<path fill="#756A62" d="M413,261.7c0.3,0.2,0.5,0.5,0.8,0.7c-0.7,1.2-1.4,2.4-2.2,3.6C411.2,264.2,412.1,263,413,261.7z" />
	<path fill="#8B7E75" d="M393.6,286.3c0.2-0.3,0.5-0.5,0.7-0.8c1.2,1.2,0.4,2.7,0.5,4.1C394.2,288.6,393.7,287.6,393.6,286.3z" />
	<path fill="#7B7A71" d="M402.2,235.1c0.8-0.1,1.6-0.4,2.1,0.6c-1.5,0.9-1.5,0.9-3.6,0.1C401.2,235.6,401.7,235.3,402.2,235.1z" />
	<path fill="#746860" d="M395.3,232.7c-0.6-0.5-1.2-0.9-2-1.5C394.9,230.8,394.9,230.8,395.3,232.7z" />
	<path fill="#6A6159" d="M397.8,262.4c-0.2-0.5-0.5-0.9-0.7-1.4c0.2-0.5,0.4-1,0.7-1.5c0.3,0.3,0.5,0.5,0.8,0.8c0,0.3,0,0.5,0,0.8   C398.3,261.5,398,261.9,397.8,262.4z" />
	<path fill="#878177" d="M395,271.9c-0.3,0.4-0.5,0.9-1.1,1.7c-0.5-1.5-0.7-2.4,0.4-3.1C394.4,271,394.1,271.7,395,271.9z" />
	<path fill="#B1988C" d="M399.5,235.6c-1-0.1-1-0.1-1.4-0.9c0.8-0.7,1.4-0.6,2,0.2C399.9,235.2,399.7,235.4,399.5,235.6z" />
	<path fill="#D4BAAB" d="M409.8,299.9c-1.4,1.3-2,0.5-0.8-0.8C409.1,299.3,409.4,299.5,409.8,299.9z" />
	<path fill="#978379" d="M386.3,229.2c-0.3-0.6-1.8-1-0.7-1.5c1.2,0.3,1.2,0.3,2.2,1.3C387.2,229.1,386.8,229.1,386.3,229.2z" />
	<path fill="#837068" d="M387,244.4c0-0.5,0-1,0-1.4C388.8,242.8,388.8,244.7,387,244.4z" />
	<path fill="#552322" d="M399.5,235.6c0.2-0.2,0.4-0.4,0.6-0.7c0.7,0.1,1.4,0.1,2.1,0.2c-0.5,0.2-1,0.5-1.6,0.7   C400.3,235.8,399.9,235.7,399.5,235.6z" />
	<path fill="#593C38" d="M395.8,246c1-0.1,1.8-0.1,3.2-0.2C397.6,247,396.8,246.8,395.8,246z" />
	<path fill="#5C3734" d="M391.6,244.6c1.1-0.4,1.1-0.2,2.5,0.3c-1.2,0.1-1.8,0.2-2.3,0.3C391.7,245,391.6,244.8,391.6,244.6z" />
	<path fill="#DEC5B4" d="M423.3,237.2c0-0.5,0-1,0-1.5c0.2,0,0.5,0,0.7,0C423.7,236.2,423.5,236.7,423.3,237.2z" />
	<path fill="#2B2523" d="M395,271.9c-0.8-0.2-0.6-0.8-0.6-1.3C395.6,270.4,395,271.3,395,271.9z" />
	<path fill="#EBDDB8" d="M481.2,567.2c0-0.5,0.1-0.9,0.1-1.4c0.2-0.1,0.4-0.1,0.6-0.1C481.9,566.3,481.9,566.9,481.2,567.2z" />
	<path fill="#EBDDB8" d="M480.5,568.6c0.2-0.3,0.5-0.5,0.7-0.8C480.9,568.1,480.7,568.4,480.5,568.6z" />
	<path fill="#62564F" d="M357.4,254.3c-2.5-2.5-4.1-5.2-3.5-9C355.1,246.4,355.9,248.3,357.4,254.3z" />
	<path fill="#A38D82" d="M369.7,298.6c-0.3,0.3-0.6,0.6-0.9,0.8c-0.4-1-0.8-2-1.2-3C369,295,369.2,297.8,369.7,298.6z" />
	<path fill="#8A756B" d="M377.8,242.8c-2.9-0.1-3.5-0.4-4.3-1.5C375,241.3,375,241.3,377.8,242.8z" />
	<path fill="#2A221F" d="M358.3,258.7c-0.1-0.8-0.2-1.7-0.3-2.9C359.5,256.8,359.7,257.7,358.3,258.7z" />
	<path fill="#332B28" d="M366.1,295.1c-0.3-0.2-0.5-0.5-0.8-0.7c0-0.7,0-1.3,0.1-2.1C367.3,293.7,367.3,293.7,366.1,295.1z" />
	<path fill="#6F5C55" d="M363.9,275.1c-1.7,0.2-1.7-0.5-1.1-1.7C363.2,274,363.6,274.6,363.9,275.1z" />
	<path fill="#A29186" d="M362.7,281.2c0.5,0.7,0.8,1.2,1.2,1.8C362.5,283.1,362.5,283.1,362.7,281.2z" />
	<path fill="#54322E" d="M381.9,257.4c0.3,0,0.6,0,1,0c0.1,0.2,0.1,0.5,0.2,0.7c-0.7,0-1.4,0-2,0c0-0.1-0.1-0.2-0.1-0.4   C381.2,257.6,381.6,257.5,381.9,257.4z" />
	<path fill="#2F2623" d="M364.8,287.5c0.5,0.8,0.8,1.3,1.3,2.1C364.7,289.1,364.7,289.1,364.8,287.5z" />
	<path fill="#57413B" d="M378.9,258c-0.6,0-1.2,0-1.8,0c0-0.2,0-0.3,0-0.5c0.6,0,1.2,0,1.8,0C378.9,257.7,378.9,257.9,378.9,258z" />
	<path fill="#544931" d="M384.9,206c-0.7,0.3-1.8-0.3-2.2,0.7c-3-0.4-5.7-1.6-8-4.1C378.6,203.2,381.3,205,384.9,206z" />
	<path fill="#351812" d="M368.5,200.9c1.9-0.7,1.9-0.7,2.6,0.3C370.1,201.4,369.3,201.1,368.5,200.9z" />
	<path fill="#2B2623" d="M400.1,128.7c0.3-0.3,0.6-0.6,0.9-0.9c1.2,1,2.2,2,2.7,3.6C401.9,131.4,401.9,131.4,400.1,128.7z" />
	<path fill="#736059" d="M393.6,112c0.3-0.2,0.5-0.4,0.9-0.8c0.8,0.9,1.4,1.6,1.1,2.8c0,0-0.4,0-0.4,0c-0.3-0.2-0.6-0.4-0.9-0.6   C394,113,393.8,112.5,393.6,112z" />
	<path fill="#2B2623" d="M393.3,125.8c1.6,0.1,3.3-0.6,4.5,0.6C396.4,126.3,394.8,126.1,393.3,125.8z" />
	<path fill="#2B2623" d="M399.4,125.7c-0.2-0.2-0.5-0.4-0.7-0.5C398.9,125.4,399.1,125.5,399.4,125.7z" />
	<path fill="#2B2623" d="M399.9,126.5c-0.2-0.2-0.4-0.5-0.6-0.7C399.6,126,399.8,126.2,399.9,126.5z" />
	<path fill="#E1C7B6" d="M394.3,113.5c0.3,0.2,0.6,0.4,0.9,0.6C394.9,113.9,394.6,113.7,394.3,113.5z" />
	<path fill="#2B2623" d="M397.9,126.5c0.2,0.2,0.5,0.4,0.7,0.6C398.4,126.9,398.1,126.7,397.9,126.5z" />
	<path fill="#2B2623" d="M398.7,127.2c0.2,0.2,0.4,0.4,0.6,0.7C399.1,127.6,398.9,127.4,398.7,127.2z" />
	<path fill="#2B2623" d="M399.4,127.9c0.2,0.2,0.4,0.5,0.6,0.7C399.8,128.4,399.6,128.1,399.4,127.9z" />
	<path fill="#FF9A77" d="M351.4,339.7c-3.2,8.1-5.2,16.8-4.9,25.5c-10.1-2.5-20.5-8.6-26-18.1c3.6-9.2,4.5-20.9,11.5-28.2   c3.6,0.2,8.5-1,11.6,0.6c-3.3,2.8-13.8,1.8-13.9,6.3c1.3-1.6,3.3-0.7,4.6-1.8c0.4-0.1,0.9-0.2,1.3-0.2c0.3,0.3,0.5,0.5,0.8,0.8   c-1.2,0.9-7.1,2.7-5.2,4.4c6.4-3.8,14.2-3.8,21.2-5.8c5.4-1.9,12.6-6.4,18-5.2C361.8,322.8,354.6,330.6,351.4,339.7z M350.1,327.6   c-4.8,1.8-9.5,4-13.6,7c6.7-0.7,12.6-5.8,19-9.1C352.9,325.5,351.5,326.5,350.1,327.6z M331.3,338.4c-2.5-3.1-1.3-6.9-1.5-10.7   c-3,4.7-1.7,10.3,2.8,13.5C332.7,340,332.1,339.2,331.3,338.4z M338.5,347.9c-1.5-0.5-3.2-0.6-4.3-2c0.8-2.2,8.7-4.9,8-6.8   c-3.6,1.7-7.6,3.6-10.3,6.7c3.7,3.8,7.8,3.2,12.6,4.1C342.5,348.1,340.3,348.6,338.5,347.9z" />
	<path fill="#2D1814" d="M344.3,316.1c4.6,0.1,9.3-0.6,13.8,0.5c-9.4-0.7-19.2,2.9-28.2,1C334.5,315.7,340,317.8,344.3,316.1z" />
	<path fill="#301813" d="M358.1,316.6c-3.8-1.1-7.9-0.3-11.8-0.6c6.3-0.6,13.6-2,19.5,0.5C363.3,317.5,360.6,316.5,358.1,316.6z" />
	<path fill="#402C24" d="M329.9,317.6c0.9,0.7,2,0.7,3.1,0.7c-0.1,0.2-0.2,0.3-0.3,0.5c-2.1,0-4,0.5-6.4-0.3   C327.8,318,328.5,317.7,329.9,317.6z" />
	<path fill="#804B3B" d="M333.5,314.7c0.5-1.1,1.1-2.2,1.6-3.4c0.1,0,0.3,0.1,0.4,0.1c0.3,1.5-0.7,2.6-1.5,3.8   C333.8,315,333.7,314.8,333.5,314.7z" />
	<path fill="#2A211D" d="M347.3,365.3c1.1,1.5,0.4,3.5,0.5,5.2C346.9,368.8,347.2,367,347.3,365.3z" />
	<path fill="#301813" d="M344.3,316.1c-1.4,1.3-3.6,0.5-5.4,0.6C340.7,315.7,342.5,316.1,344.3,316.1z" />
	<path fill="#2A211D" d="M347.1,355.8c0.1-0.2,0.2-0.4,0.2-0.6c1,0.8,0.4,1.9,0.4,2.8c-0.1,0-0.3,0-0.4,0   C347.3,357.3,347.2,356.6,347.1,355.8z" />
	<path fill="#918177" d="M319.8,258.1c1.6,2,1.9,4.5,2.8,7c-2.4-1.4-2.4-3.9-3.5-6.3C319.3,258.6,319.6,258.3,319.8,258.1z" />
	<path fill="#4E443F" d="M319.8,258.1c-0.2,0.2-0.5,0.5-0.7,0.7c-0.9-1.5-1.9-3-2.9-4.6c0.2-0.2,0.4-0.4,0.5-0.6   C317.6,253.4,318.3,254.4,319.8,258.1z" />
	<path fill="#39312D" d="M313.3,250.2c-0.9-1.5-1.8-3-2-4.9c1.4,0.4,1.4,0.4,2.8,4C313.8,249.6,313.6,249.9,313.3,250.2z" />
	<path fill="#625650" d="M313.3,250.2c0.3-0.3,0.5-0.6,0.8-0.9c0.8,0.9,1.1,2,1.4,3.2C314,252.6,314,251,313.3,250.2z" />
	<path fill="#574A44" d="M318.5,180.9c0.9,0.7,1.8,1.4,0.9,2.7C318.3,182.9,317.9,182.1,318.5,180.9z" />
	<path fill="#5B4640" d="M325.2,270.1c-0.9-0.3-1.3-0.8-1.1-1.7C325.2,268.7,325.6,269.2,325.2,270.1z" />
	<path fill="#625855" d="M305.2,399.3c-1-2.4-1-3.1-0.3-7.3c0.6,2.2,0,3.8,0.9,5.8C306.1,398.4,305.9,399,305.2,399.3L305.2,399.3z" />
	<path fill="#3B3231" d="M314.8,384.9c0.7-0.2,1.3-0.4,2.2-0.7c0.6,0.3,1.3,0.6,2.2,1.1c-0.4,0.5-0.6,0.8-0.9,1.1   C317,386.1,315.6,386.2,314.8,384.9z" />
	<path fill="#3A3534" d="M310.4,383.4c0.6,0,1.3,0,1.9,0.1c-0.2,1.6-1.3,1.2-2.1,1.3C310.3,384.4,310.4,383.9,310.4,383.4z" />
	<path fill="#504B48" d="M318.6,394.9c0.5,1.2,0.6,2.1-0.2,2.8C317.4,396.8,318.5,396.2,318.6,394.9z" />
	<path fill="#5F3A39" d="M303.9,382.7c0.9,0.2,2-0.6,2.7,0.6C305.7,383.3,304.6,383.9,303.9,382.7z" />
	<path fill="#352C2B" d="M300.9,437c1.7-0.2,3.1,0.2,4.3,1.3c-1.5,1.1-2.9,0.5-4.3-0.2C300.9,437.8,300.9,437.4,300.9,437z" />
	<path fill="#453A38" d="M281.3,548.9c1.6,0,2,1.5,0.1,1.5c-0.7-0.5-1.4-1-2.5-1.8c0.8-0.1,1.2-0.2,1.6-0.3l0,0   C280.8,548.5,281.1,548.7,281.3,548.9z" />
	<path fill="#383534" d="M442,562.1c-0.3,0.4-0.5,0.8-0.8,1.1c-1.7-3.5-3.2-13.9-1.4-17.7C440.2,551,440.7,557,442,562.1z" />
	<path fill="#8F8580" d="M442,561.4c-1.8-5.8-2.1-12.7-2.1-18.9C441.5,548.2,441.9,555.2,442,561.4z" />
	<path fill="#645D5A" d="M359.2,567.6c-3-2.4,0.8-5.2-0.9-8.1c-0.4-1.8-0.6-3.3,1-4.8C359.5,559.7,360.9,563,359.2,567.6z" />
	<path fill="#665F5C" d="M359.1,548.1c-0.8-2.3-0.3-4.4,0.7-6.6C360.7,545.4,360.5,547.3,359.1,548.1z" />
	<path fill="#605A57" d="M360.7,532.3c-0.7-3.3-0.7-3.6,0.2-5.5C361.9,528.1,360.7,530.3,360.7,532.3z" />
	<path fill="#140D0B" d="M537.7,539.8c-1.2-1.3-3.6-2.4-2.8-4.4c1.8,0.2,2.9,1.7,4.1,2.8c0.1,0.6,0.1,1.2,0.8,1.3   c0.2,0.2,0.4,0.3,0.6,0.3l0,0.3C539.6,540.7,538.5,540.3,537.7,539.8z" />
	<path fill="#AC9589" d="M539.9,539.5c-0.7-0.1-0.8-0.7-0.8-1.3C539.7,538.4,539.8,538.9,539.9,539.5z" />
	<path fill="#3B3937" d="M306,441.3c2-5.5,2.1-12.7,3.6-18.1c0.1,1.4-0.4,3,0.6,4.2c-1,6.4-2.5,12.1-3.9,18.7   C305.8,444.3,305.8,443,306,441.3z" />
	<path fill="#A29792" d="M288.6,541.1c-0.5,1-1.4,0.5-2.2,0.6C287,540.8,287.9,541.2,288.6,541.1z" />
	<path fill="#A29792" d="M289.2,539.7c0,0.6,0.1,1.2-0.6,1.5C288.6,540.5,288.5,539.9,289.2,539.7z" />
	<path fill="#1D1816" d="M376.9,78.7c2.3,0.5,1.7,4.1,2.6,5.8c3.4,3.2,7.9,3.8,11.9,5.8c-0.2,0.9-1.1,0.7-1.6,0.9   C383.5,90.4,373.9,86.5,376.9,78.7z" />
	<path fill="#392E2A" d="M386.4,96.7c-1.5-1.9-3.7-3.3-4.5-6.2c2.8,0.4,3.4,3.6,5.2,5.5C386.9,96.3,386.6,96.5,386.4,96.7z" />
	<path fill="#50443F" d="M389.8,91.2c0.6-0.2,1.4,0,1.6-0.9c1.2,0.5,2.5,1,3.7,1.4C394.4,93.8,391.3,91.2,389.8,91.2z" />
	<path fill="#85776E" d="M386.4,96.7c0.3-0.2,0.5-0.5,0.8-0.7c1,1.5,2.4,2.8,2.8,4.9C387.9,100.1,387.8,98.1,386.4,96.7z" />
	<path fill="#60514B" d="M392.2,108.3c-0.8-1.1-1.9-1.8-1.5-3.3c1.7,0.4,1.6,1.8,2.3,2.6C392.7,107.8,392.4,108.1,392.2,108.3z" />
	<path fill="#9B8B80" d="M392.2,108.3c0.2-0.2,0.5-0.5,0.7-0.7c0.9,0.6,1.7,1.3,1.2,2.7C393,109.9,392.5,109.2,392.2,108.3z" />
	<path fill="#1D1816" d="M374.7,80c0.2-0.4,0.5-0.9,0.7-1.3C375.6,79.4,375.3,79.8,374.7,80z" />
	<path fill="#1D1816" d="M373.3,80.8c0.4-0.2,0.9-0.5,1.3-0.7C374.4,80.7,373.9,80.9,373.3,80.8z" />
	<path fill="#F8E2C1" d="M333.5,52.6c-0.1,0.3-0.1,0.7-0.2,1c-1.1,0.5-2.1,1-3.2,1.5c-1.9-4.9-0.3-12.1,2.7-16.2   C331.2,43.7,333.3,47.8,333.5,52.6z" />
	<path fill="#14120F" d="M340.9,108.9c0-0.2,0-0.4-0.2-0.5c0.8-7.4-0.4-15.4,1.4-22.4c0.8,7.7,1.7,15.7-0.3,23.4   C341.4,109.2,341.1,109,340.9,108.9z" />
	<path fill="#F8E1C0" d="M327.9,49.6c-0.3,0-0.8,0.1-1.4,0.1c-0.8-5.2-0.2-10.1,2.1-14.8c1.1,0.3,1.4,1.2,1.2,2   C328.3,41,328.8,45.6,327.9,49.6z" />
	<path fill="#312B25" d="M332.6,41.1c0.3-4.3,2.2-8.4,5.2-11.6c0.3,0.3,0.5,0.5,0.8,0.8c0,0.2-0.1,0.4-0.1,0.6   c-4.5,4-3.1,10.3-5.6,15.3C332.8,44.4,332.7,42.8,332.6,41.1z" />
	<path fill="#64584A" d="M336.3,67.9c-0.9,1-1.1,2.3-1.4,3.6c-0.9-2.2-2.3-4.6-2.1-7c0.5,0.3,0.8,0.5,1.4,0.9   c-0.3-1.8-0.5-3.3-0.9-5.6C335.7,61.9,336.2,65,336.3,67.9z" />
	<path fill="#93836D" d="M342.9,104c0.3-5.9-0.2-11.7-0.6-17.5c1.3-1.2,0.4-3.4,0.7-5c1.7,7.1,0.3,15.1,0.6,22.5   C343.4,104,343.1,104,342.9,104z" />
	<path fill="#50463A" d="M342.1,86c-1.1,1.5-0.6,3.4-0.8,5.1c-0.6-4-1.2-9.3-0.6-13.1l0,0c-0.1,0.7,0,1.2,0.7,1.6   C341.7,81.7,341.9,83.8,342.1,86z" />
	<path fill="#95856F" d="M333.5,52.6c0-0.7,0-1.4,0-2.2c0.2-0.2,0.5-0.5,0.7-0.7c0.8,2.6,2.1,6.8,1.6,9.5   C333.6,56.8,335,54.9,333.5,52.6z" />
	<path fill="#4B463C" d="M338.6,30.3c-0.3-0.3-0.5-0.5-0.8-0.8c1.2-1.4,2.4-2.7,3.4-4.2c1.3,0.1,2.7-0.6,3.8,0.4   C341.9,25.2,340.8,28.7,338.6,30.3z" />
	<path fill="#5E5749" d="M334.2,49.7c-0.2,0.2-0.5,0.5-0.7,0.7c-1-2.6-0.8-4.9,0.6-7.2C334.1,45.4,334.2,47.6,334.2,49.7z" />
	<path fill="#BCA88D" d="M341.4,79.6c-0.6-0.3-0.7-0.9-0.7-1.6C341.5,78.3,341.4,78.9,341.4,79.6z" />
	<path fill="#282524" d="M310.2,427.4c-1-1.2-0.5-2.8-0.6-4.2C311.1,423.8,309.9,426.2,310.2,427.4z" />
	<path fill="#2C2827" d="M414.4,398c0,0.8,0,1.5,0,2.4C413.1,399.2,413.1,399.2,414.4,398z" />
	<path fill="#615956" d="M420.3,399.3c-1.6-0.5-1.5-1.1-1.1-2.1C419.6,397.9,419.8,398.4,420.3,399.3z" />
	<path fill="#B6A68A" d="M361,70.8c-2.6-0.8-4.5-2.5-6.8-4.9c2,0.7,3.8,0.5,3.9-1.6c1.2,1.9,2.5,3.7,3.7,5.6   C361.5,70.1,361.2,70.4,361,70.8z" />
	<path fill="#B4A388" d="M361,70.8c0.3-0.3,0.6-0.7,0.9-1c1.2,1.6,2.4,3.2,3.8,5.1c-3.5,0.1-5.9-1.4-8.3-2.7c0-0.5,0-1,0-1.5   c1.6,0.5,3,1.7,5.1,1.4C361.8,71.5,361.4,71.1,361,70.8z" />
	<path fill="#BAA795" d="M365.3,69.3c-0.3,0.3-0.5,0.5-0.8,0.8c-0.9-2-5.2-4.5-3.7-6.6c0.9,0,2,0.2,2.8,0.3   C364.2,65.7,364.8,67.5,365.3,69.3z" />
	<path fill="#C8B3A4" d="M364.5,52.5c0.3,0.3,0.7,0.7,1,1c-1.9,2-2.9,4.5-3.8,7.1c-0.2,0-0.5,0-0.7,0   C360.6,57.2,361.7,54.5,364.5,52.5z" />
	<path fill="#CEBDA1" d="M366.9,77.9c-2.3,0.3-5.2,0.3-6.6-2C362.5,76.5,365.1,76.3,366.9,77.9z" />
	<path fill="#27211C" d="M370.3,52.8c-0.7-0.5-1.4-1-2.1-1.6c0.6-0.1,1.3,0,1.5-0.8c0.4-0.3,0.8-0.5,1.2-0.8   c0.1,0.1,0.2,0.2,0.3,0.2c0.2,0.5,0.3,1,0.5,1.5C371.2,51.9,370.8,52.3,370.3,52.8z" />
	<path fill="#938175" d="M361,60.6c0.2,0,0.5,0,0.7,0c0,0.9,0,1.9,0,2.8c-0.3,0-0.6,0-0.9,0C360.9,62.5,361,61.5,361,60.6z" />
	<path fill="#CEBDA1" d="M359.7,75.7c-0.3-0.2-0.6-0.4-0.9-0.5C359.1,75.4,359.4,75.5,359.7,75.7z" />
	<path fill="#27211C" d="M368.9,49.9c0.3,0.2,0.5,0.3,0.8,0.5C369.5,50.3,369.2,50.1,368.9,49.9z" />
	<path fill="#93826C" d="M369.1,46.7c-3.3-0.5-6.6-0.9-9.5-2.7c4.2-0.1,9.5,2.4,12.9-0.6c1.8,0.4,1.8,0.4,2.2-1.5   c1.2,0.5,2.4,1,3.6,1.5c-0.8,0.3-1.6,0.6-2.6,1c0.7,0.4,1.3,0.8,2,1.1c-1,0.5-2,1-3,1.5C372.7,46.2,371.1,45.5,369.1,46.7z" />
	<path fill="#5F4B3F" d="M372.5,43.3c-0.2,0.8-0.9,0.6-1.4,0.7c-1.7-0.7-3.4-1.4-5.1-2.1c0.3-0.2,0.5-0.5,0.8-0.7   C368.6,41.9,370.6,42.6,372.5,43.3z" />
	<path fill="#94856F" d="M351.5,54.9c0.5-0.2,1.2,0,1.4-0.8c1.8,0.7,4.2-0.1,5.2,1.9C355.7,55.3,353.4,56.1,351.5,54.9z" />
	<path fill="#2C241E" d="M403.8,24.6c-0.9,0.7-1.9,1.3-3,2.1c0-0.8,0-1.2,0-1.8c-2.5-0.6-5.9-0.7-7.9,1c-3.3-0.1-6.1-0.4-8.8,1.5   c-1-0.5-2-1-3-1.4c2-0.8,4.1-0.9,6.3-1.2c-2.2-0.7-5,0.5-6.8-1c0.6-0.1,1.3-0.2,2-0.3c-0.3-0.5-0.5-0.8-0.9-1.3   c4.2,0.3,7.5,2.4,11.6,1c-1.6-0.4-3.1-0.7-4.7-1.1c0-0.2,0-0.4,0-0.6c0.6-0.1,1.3-0.1,2.7-0.2c-2-0.9-3.4-1.5-4.8-2.1   c0.2-0.2,0.5-0.4,0.7-0.7c2.2,0.6,4.3,1.9,7.4,1.2c-1.9-0.6-3.2-1-4.5-1.4c0.3-0.2,0.5-0.4,0.8-0.7c4.6,1.1,9,2.6,12.9,5.3   C403.7,23.6,403.8,24.1,403.8,24.6z M394.9,21.5c0.9,1.1,1.9,2,3.6,1.1C397.1,22.2,396,21.8,394.9,21.5z M391.7,24.9   c0,0,0-0.1,0-0.1c-0.5,0-0.9,0-1.4,0c0,0,0,0.1,0,0.1C390.8,24.9,391.2,24.9,391.7,24.9z M383.6,26.2l0.2,0.1l0-0.2L383.6,26.2z" />
	<path fill="#14100E" d="M380.5,23.8c1.8,1.5,4.6,0.2,6.8,1c-9.7,3.4-19.2-3.6-28.8-1.6c-0.5-0.6-0.9-1.2-1.3-1.7   C362.9,16.5,373.8,22.6,380.5,23.8z" />
	<path fill="#F3DDBD" d="M363.9,30.7c-2.2-1.2-4.4-2.3-6.5-3.5c2.2-1.9,5.9,1.2,8.6,1.4c1.4,0.8,1.5-1.8,2.9-1.3   c3.1,1.4,6.6,2.1,9.5,3.5c-3.3,0.6-5.8-1.4-9.2-0.5c1.2,0.6,2.2,1,3.1,1.5c0,0.1-0.1,0.2-0.1,0.3C369.4,32,366.6,31.7,363.9,30.7z" />
	<path fill="#E4D8B8" d="M366.2,23.6c2.9,0.2,5.8,0.5,8.6,1.5c-4.2,2.3-10.1-0.4-14.8-1.2C362.1,23.8,364.2,23.7,366.2,23.6z" />
	<path fill="#897A68" d="M367.4,28.1c-2.1,1.6-5.9-1.4-8.5-1.6C361.2,24.3,364.8,27.6,367.4,28.1z" />
	<path fill="#3C322A" d="M381.2,30.2c1.2-0.4,0.4-1.3,0.5-2c1.2-0.5,3,0.3,3.7-0.9c0.8-0.1,1.5-0.1,2.3-0.2c0,0,0,0.2,0,0.2   c-1,1.3-2.6,1.4-4.2,1.6c-0.1,0.7-0.1,1.3-0.1,1.9c-0.7,0-1.5,0.1-2.2,0.1C381.2,30.7,381.2,30.5,381.2,30.2z" />
	<path fill="#9A8974" d="M381.2,30.2c0,0.2,0,0.5,0,0.7c-1.4,1-1.7,1-2.9,0C379.3,30.7,380.3,30.5,381.2,30.2z" />
	<path fill="#98A089" d="M385.5,27.4c-0.2,0.7-0.8,0.6-1.4,0.5c0-0.2,0-0.3,0-0.5c0.3-0.1,0.5-0.1,0.8-0.2   C385.1,27.4,385.3,27.4,385.5,27.4z" />
	<path fill="#070504" d="M378.4,43.4c-2.3-1-4.7-1.9-7.2-2.4c1.5-1,3.4-0.5,5.1-0.6c2.1,1.5,4.1,0.8,6.3-0.3   c-0.8-0.4-1.3-0.8-1.9-1.1c1.1-0.3,2.2,0.2,2.6-1.3c-6.3-0.1-12.2-1.8-17.8-4.6c0.5-1.1,1.5-0.4,2.2-0.7c7.1,2.8,14.8,2.5,21.7-1   c0.2,0.1,0.5,0.2,0.7,0.2c0.9,1.6,3.3,0.6,4.8,1c0.1,0.8,0.2,1.4,0.2,2c-0.3,0-0.5,0-0.8,0c0-0.4-0.1-0.7-0.1-1.2   c-3.5-0.7-5.6,2.9-9.2,2.7c-1-1.5-2.2-0.7-3.6-0.4c1.3,1,2.5,0.5,3.6,0.4c2.2,2.3,5.2,0.2,7.8-0.1c1.1,1,0.2,2.5,0.2,3.8   c-1.1,0.5-1,1.4-0.8,2.5c-0.4,0.5-0.9,1-1.4,1.5c0.3,0.1,0.7,0.3,1.3,0.5c-1.7,3.7-6.8,1.3-9.3,4.2l0,0c-3.2-0.8-6.5,2.2-9.2-0.2   c4-4.4,11-1.6,14.4-6.7C384.3,42.3,381.7,43.1,378.4,43.4z" />
	<path fill="#A89A81" d="M365.4,33.1c1.7,0.7,3.4,1.5,5,2.2c-0.5,0.5-1.1,0.9-1.8,1.3c0-0.2,0-0.5,0.1-0.9   c-3.9-1.2-7.8-2.7-11.5-4.6C360,31,362.6,32.6,365.4,33.1z" />
	<path fill="#201915" d="M380.5,39c0.6,0.3,1.2,0.7,1.9,1.1c-2.2,1-4.1,1.8-6.3,0.3c0-0.2,0-0.5,0-0.7   C377.6,39.5,379.1,38.5,380.5,39z" />
	<path fill="#37241E" d="M376.2,39.7c0,0.2,0,0.5,0,0.7c-1.7,0.1-3.6-0.4-5.1,0.6c-1.2-0.3-2.4-0.5-3.6-0.8c0-0.2,0-0.3,0-0.5   C370.4,39.6,373.3,39.6,376.2,39.7z" />
	<path fill="#908873" d="M380.5,39c-0.3-0.1-0.5-0.1-0.8-0.2c0-0.4,0-0.8,0-1.3c0.7,0,1.4,0,2.1,0c-0.2,0.5-0.4,0.9-0.7,1.4   C381,38.9,380.8,38.9,380.5,39z" />
	<path d="M353.8,45.4c0.3-0.7,0.5-0.5,0.7,0C354.3,45.5,353.9,45.5,353.8,45.4z" />
	<path fill="#6E6252" d="M350.2,109.2c-0.1-3.4-1.8-5.4,0.5-8.9C350.7,103.7,351.4,106.5,350.2,109.2z" />
	<path fill="#D2BB9C" d="M349.3,104c0.4,1.6-0.2,3-0.6,4.5C348.8,107,348.2,105.3,349.3,104z" />
	<path fill="#D2BB9C" d="M348.7,109.1c-0.1,1.2,0.2,2.6-0.7,3.6C348,111.4,347.6,110.1,348.7,109.1z" />
	<path fill="#C1B094" d="M344.9,80.4c-0.2-0.3-0.3-0.6-0.5-0.9C344.6,79.7,344.8,80.1,344.9,80.4z" />
	<path fill="#0D0B09" d="M381.2,48.3c0.2,0,0.5,0,0.7,0c0.3,0.7,0.5,0.6,0.7,0l0,0c1.6,0.4,3-1,4.4,0c-4.3,3-6.7,6.4-12.7,6.9   c2.8,0.6,4.7,0.6,6.7-0.1c0.1,0.4,0.2,0.8,0.2,1.1c-3.5,4.1-9.2,0.6-11-3.5c0.4-0.4,0.9-0.9,1.4-1.4c-0.1-0.5-0.3-1-0.5-1.5   C374.4,49.8,378.8,51,381.2,48.3z M379.9,51.2c-2.5,0-3.9,0-6.7,0.2C375.9,53,378,53,379.9,51.2z" />
	<path fill="#C2B295" d="M369.1,46.7c1.7-0.8,3.3-1.1,4.9,0.2C372.4,46.8,370.7,46.8,369.1,46.7z" />
	<path fill="#4B463C" d="M347.3,25.2c-0.3,0.2-0.6,0.4-0.9,0.6C346.8,25.6,347.1,25.4,347.3,25.2z" />
	<path fill="#4B463C" d="M347.3,23.7c0.2,0.2,0.5,0.5,0.7,0.7C347.7,24.2,347.5,23.9,347.3,23.7z" />
	<path fill="#DEC5B4" d="M422.5,239.3c0.1-0.7-0.3-1.7,0.8-2.1c0,0.7,0,1.5,0,2.2C423,239.4,422.8,239.3,422.5,239.3z" />
	<path fill="#B9AE91" d="M367.5,40.1c2.4,0.5,4.8,1.1,7.2,1.7c-0.3,4.2-8.1-1.2-10.4-1.9c0-0.1,0.1-0.3,0.1-0.4   C365.4,39.8,366.5,40,367.5,40.1z" />
	<path fill="#E8D2B4" d="M358.1,30.9c-0.3,0-0.6,0.1-0.9,0.1c-0.7-0.3-1.3-0.7-2-1c0-0.7,0-1.4,0-2.1   C356.8,28.3,358.7,29.1,358.1,30.9z" />
	<path fill="#EFDABA" d="M378.9,23.1c-4.3-1-8.5-2-12.8-3c-0.4-1.2-1.7-0.3-2.6-1.2c1.6-0.2,3,0.2,4.1-1c3.8,0.1,7.7-0.1,11.4,0.9   c0.1,0.9,0.6,1.3,1.5,1.4c-0.8,0.8-0.4,1.8-0.5,2.7C379.5,23,379.2,23,378.9,23.1z" />
	<path fill="#64574A" d="M380.5,12.1c-0.2,0.2-0.4,0.4-0.7,0.6c-1.7,0.3-4.3-0.6-5.1,1.4c-2.7,0-5.3,0-8,0.1c0-0.2,0-0.4,0-0.6   c1.7-0.3,3.4-0.5,5.1-0.8c0-0.2,0-0.3,0-0.5c-1.1-0.2-2.2-0.3-3.4-0.5c0-0.1,0-0.2,0-0.4C372.7,11.8,376.8,9.1,380.5,12.1z" />
	<path fill="#EB8C6C" d="M332.7,318.9c0.1-0.2,0.2-0.4,0.3-0.5c10.6-0.7,20.9-2.3,31.5-1.4c-5.2,3.3-11.9,3.8-17.8,5   c-0.7-0.3-1.8,0.3-2.3-0.8c0.6-0.5,1.6-0.6,1.2-1.9c-0.6,0.1-1.3,0.2-1.9,0.3C340.7,317.9,336.2,319.4,332.7,318.9z" />
	<path fill="#4C261D" d="M356.6,320.3c2-1.2,4.3-1.7,6.5-2.1c0.5,0.2,0.9,0.5,1.4,0.7c-2.6,0.8-5.2,1.5-7.8,2.3   C356.7,320.9,356.6,320.6,356.6,320.3z" />
	<path fill="#1B1512" d="M374.8,14.2c2.9-3.1,9-0.7,12.9-1.3c0.4,0.8,1.2,0.7,1.9,0.7c5.1-0.4,9.7,1.9,14,4.5   c-0.5,1.1-1.4,0.6-2.2,0.6c-1.5-2-3.5-2.9-6.5-2.8c2.2,1.1,4,2,5.8,2.9c-0.3,0.2-0.5,0.5-0.8,0.7c-3.5-0.7-8.5-5-11.5-3l0.1,0   C385.2,12.3,379.3,15.4,374.8,14.2z" />
	<path fill="#5C4D42" d="M379,18.8c-1.2-0.2-2.4-0.5-3.7-0.7c0.7-0.4,1.8,0.2,2.3-0.8c1.8-0.2,3.6,0.3,5.3,0.8   c0.3-0.7-0.4-1.4,0.5-1.6c0.2,0.1,0.4,0.2,0.6,0.1c1.3,0.6,3.4,1.3,4.5-0.1c0,0-0.1,0-0.1,0c0.8,0.5,1.6,0.9,2.3,1.4   c-0.3,0.2-0.5,0.4-0.8,0.7c-1.6-0.8-2.6-0.7-3.6,0.8c-0.4-0.1-1-0.4-1.3-0.3C383,19.9,381.1,18.5,379,18.8z" />
	<path fill="#D5C8AB" d="M383.4,16.4c-0.9,0.2-0.2,0.9-0.5,1.6c-1-0.2-2.1-0.5-3.2-0.8c0.6-0.1,1.2-0.1,2.1-0.2   c-1.5-1.5-3.4-1.6-4.8-2.7c1.2,0,2.4,0,3.6,0C381.5,15.1,382.5,15.7,383.4,16.4z" />
	<path fill="#D7C0A1" d="M340.1,28.8c0.2-0.2,0.4-0.5,0.6-0.7C340.5,28.3,340.3,28.6,340.1,28.8z" />
	<path fill="#D7C0A1" d="M339.5,29.5c0.2-0.2,0.3-0.4,0.5-0.6C339.8,29.1,339.7,29.3,339.5,29.5z" />
	<path fill="#D7C0A1" d="M340.8,28.1c0.2-0.2,0.4-0.5,0.7-0.7C341.2,27.6,341,27.8,340.8,28.1z" />
	<path fill="#524036" d="M365.4,33.1c-1-0.3-1.9-0.5-2.9-0.8c0.5-0.5,1-1,1.4-1.5c1.1,0.3,2.3,0.7,3.4,1c0.1,0.2,0.2,0.4,0.2,0.6   C366.9,32.7,365.8,31.9,365.4,33.1z" />
	<path fill="#C1B395" d="M357.3,28.8c-0.5-0.2-1-0.4-1.4-0.6C356.5,28,357,28.2,357.3,28.8z" />
	<path fill="#AC9589" d="M537.7,539.8c0.3,0.1,0.6,0.3,0.9,0.4C538.3,540.1,538,540,537.7,539.8z" />
	<path fill="#AC9589" d="M539.8,540.4c0.2-0.1,0.4-0.2,0.6-0.3c0,0.2-0.1,0.4-0.1,0.7C540.2,540.7,540,540.5,539.8,540.4z" />
	<path fill="#0C0A08" d="M406.6,13.6c-0.2-0.1-0.3-0.2-0.5-0.2C406.3,13.4,406.4,13.5,406.6,13.6C406.6,13.6,406.6,13.6,406.6,13.6z   " />
	<path fill="#8F8580" d="M281.3,548.9c-0.3-0.2-0.5-0.4-0.8-0.5C280.8,548.5,281.1,548.7,281.3,548.9z" />
	<path fill="#0C0908" d="M361.8,63.5c-0.4-3.7,1.3-7.2,3.7-9.9c0.1,0.1,0.3,0,0.4,0c4.1,1.6,8.9,6,5.7,10.4c1.3,0.9,2.5,1.7,3.6,2.4   c-0.3,2.1-1.4,3.2-2.9,4c-1.7-1.5-0.9-4.1-2.7-5.4c0.1-0.9,0.1-1.9,0.2-2.8l0,0c0.8-0.8,2.1-1.4,0.7-2.4l0,0   c-0.1-1.5-1.4-1.4-1.6,0.1c0,0,0,0,0,0c-0.7,0.7-1.5,1.4-2.3,2.2c-0.1,2.9,2,5.3,3.3,7.7c-0.9,2.9-3.2,0.5-4.6-0.5   c-0.5-1.8-1.1-3.6-1.7-5.6C363.2,63.7,362.5,63.6,361.8,63.5z M364.4,59.7c-0.3,0.7-0.7,1.3-1.1,2.3c2.3-0.6,3.7-2.7,4.9-4.9   c-0.5-0.3-1.1-0.6-1.9-1.1C365.5,57.4,364.9,58.6,364.4,59.7z" />
	<path fill="#161211" d="M406.4,53.6c3.6-1.7,6.8-4.6,10.9-3.7c0.3,1.6-1.2,1.7-1.8,2.5c-0.2,1.4-1.4,2.8-0.1,4.3   c-1.9,0.9-3.2,0.1-4.6-0.6c0.1-0.4,0.1-0.8,0.2-1.2C409.5,54,407.6,56,406.4,53.6z" />
	<path fill="#1B1210" d="M404.3,47.6c3.6-5,11.6-3.8,15.9-0.2c-2.2,3.6-8.8-3.6-12.7-0.2C406.4,47.8,405.3,47.7,404.3,47.6z" />
	<path fill="#464138" d="M400,19.4c0.9-1.6,2.8,0.1,3.6-1.4c1.7,1.2,3.4,2.4,5.1,3.6c0,0.2,0,0.4,0,0.6c-0.9,0.6,0.2,0.7,0.7,1   c0,0.2,0.1,0.3,0.1,0.5c-0.2,0.2-0.5,0.5-0.7,0.7c-1.9-0.5-3.4-1.3-5,0.2c0-0.5-0.1-1-0.1-1.5c0.5-0.1,0.9-0.3,1.8-0.6   C403.4,21.3,401.7,20.4,400,19.4z" />
	<path fill="#1C1A16" d="M383.4,30.8c0-0.6,0.1-1.1,0.1-1.9c1.6-0.2,3.2-0.2,4.2-1.6c0.5-0.1,0.9-0.2,1.4-0.3   c-0.2,0.5,0.5,0.6,0.7,0.9c0.1,0.5,0.4,0.7,0.7,0.2l0-0.3c0.2,0,0.4,0,0.6,0c0.7,0.4,1.9-0.4,2.3,0.9c-2.3,2.5-5.5,0.6-8,2.1   C384.9,30.8,384.2,30.8,383.4,30.8z" />
	<path fill="#443830" d="M395,34.6c-0.1-0.6-0.1-1.2-0.2-2c-1.5-0.3-4,0.6-4.8-1c1.4,0.1,2.8,0.5,4.2-0.2c0.5-1.5,1.1-2.6,0.8-4.2   c0.4-0.2,0.7-0.5,1.3-0.8C395.7,29.3,396.7,32.3,395,34.6z" />
	<path fill="#AAA186" d="M381.3,56.3c-0.1-0.3-0.1-0.7-0.2-1.1c-2,0.7-3.9,0.6-6.7,0.1c2.8-0.6,4.9-1,6.8-2   C381.6,54.2,382.7,55.6,381.3,56.3z" />
	<path fill="#443830" d="M392.9,39.7c0-1.3,0.9-2.8-0.2-3.8c0.5-0.4,1-0.9,1.5-1.3c0.3,0,0.5,0,0.8,0c-0.1,1.3-0.3,2.6-0.5,4.4   C394.2,39.1,393.6,39.4,392.9,39.7z" />
	<path fill="#27211C" d="M387.1,48.3c-1.4-1-2.8,0.4-4.4,0c1.9-1.7,4.3-1.8,6.6-2.1C388.7,47.1,388.5,48.3,387.1,48.3z" />
	<path fill="#27221D" d="M408.8,24.4c0.2-0.2,0.5-0.5,0.7-0.7c1,0,2-0.1,2.9-0.1c0.2,0.3,0.4,0.5,0.6,0.8c-0.9,0.4-1.8,0.8-2.9,1.2   C409.8,25.2,409.3,24.8,408.8,24.4z" />
	<path fill="#C7B5A6" d="M367.5,65.7c-1.1-1-0.5-2.4-0.9-3.6c0.8-0.8,1.6-1.5,2.3-2.2c0,0.3,0.1,0.9-0.1,1   C367.2,62.2,367.6,64,367.5,65.7z" />
	<path fill="#927F6C" d="M394.9,27.3c-0.1,1,0.4,2.2-0.5,3.1c-0.2-0.6,0-1.4-0.9-1.6c-0.4-1.3-1.5-0.5-2.3-0.9   C392.4,26.9,393.7,27.4,394.9,27.3z" />
	<path fill="#927F6C" d="M389.2,25.9c1.2,0,2.4,0,3.7,0c-0.6,0.5-1.2,0.8-2,0.9c-0.1,0.5-0.2,0.9-0.1,1.4c-0.2-0.1-0.5-0.1-0.7-0.2   C388.9,27.6,389.2,26.8,389.2,25.9z" />
	<path fill="#C7B5A6" d="M368.9,59.8c0.2-1.5,1.6-1.5,1.6-0.1C370,59.8,369.4,59.8,368.9,59.8z" />
	<path fill="#C7B5A6" d="M369.8,62.2c-0.1,0.9-0.1,1.9-0.2,2.8C368.6,63.7,368.6,63,369.8,62.2z" />
	<path fill="#4A4943" d="M404.3,47.6c0.6,0.1,1.2,0.1,1.8,0.2C405.5,48.2,402.9,48.8,404.3,47.6z" />
	<path fill="#C8B3A4" d="M367.5,54.1c-0.5-0.2-1.1-0.4-1.6-0.6C366.6,53.3,367.2,53.3,367.5,54.1z" />
	<path fill="#C7B5A6" d="M370.5,59.8c0.8,0.8,0.9,0.9,0.1,1.7C370.5,60.9,370.5,60.4,370.5,59.8z" />
	<path fill="#C7B5A6" d="M370.5,61.5c-0.3,0.2-0.5,0.5-0.8,0.7C369.8,61.7,370,61.4,370.5,61.5z" />
	<path fill="#CDC6A9" d="M408.7,22.2c0-0.2,0-0.4,0-0.6c0.3,0,0.6,0,0.8,0c0.5,0.5,0.9,1,1.4,1.5c-0.7,0-1.5,0.4-2-0.1   C408.8,22.6,408.7,22.4,408.7,22.2z" />
	<path fill="#7C6A5B" d="M409.4,23.2c0.5-0.1,1-0.1,1.5-0.2c0.2,0.2,0.5,0.4,0.7,0.6c-0.7,0-1.4,0.1-2.1,0.1   C409.5,23.5,409.4,23.3,409.4,23.2z" />
	<path fill="#72645C" d="M401.6,252.4c0.2,0.2,0.5,0.5,0.7,0.7c-1,0.7-2,1.4-3.3,2.4C399.6,253.6,399.6,253.6,401.6,252.4z" />
	<path fill="#2D2824" d="M398.5,260.3c-0.3-0.3-0.5-0.5-0.8-0.8c0.4-0.8,0.7-1.7,1.3-2.8C400,258.3,398.7,259.2,398.5,260.3z" />
	<path fill="#25100F" d="M401.6,246.6c1.1,0,2.3,0,4.1,0C403.8,247.6,402.7,247.8,401.6,246.6L401.6,246.6z" />
	<path fill="#100A07" d="M356.6,320.3c0,0.3,0.1,0.6,0.1,0.9c-6.3,4-14.5,3.8-21.7,5.9c-0.5-0.3-1-0.5-1.5-0.8   C340.3,322.1,349.2,322,356.6,320.3z" />
	<path fill="#4F332B" d="M337,348.7c-1.9-0.5-3.6-1.2-5.1-2.9c2.7-3.1,6.7-5,10.3-6.7c0.8,1.9-7.1,4.5-8,6.8c1,1.3,2.8,1.5,4.3,2   C338.3,348.7,337.6,348.5,337,348.7z" />
	<path fill="#331914" d="M343.6,319.6c0.6-0.1,1.3-0.2,1.9-0.3c0.4,2.9-12.9,5.4-15.6,5.4C333.6,321.3,339.4,322.4,343.6,319.6z" />
	<path fill="#5C3B30" d="M330.6,339.2c-2.9-4.1-3.2-7.2-0.7-11.4c0.2,3.8-1,7.5,1.5,10.7C331.1,338.7,330.8,338.9,330.6,339.2z" />
	<path fill="#291510" d="M348,329.8c-1.9,1-3.8,2-5.7,3c-0.6-0.1-1.3,0.1-1.5-0.8c1.9-1,3.8-2,5.7-3C347,329.1,347.7,329,348,329.8z   " />
	<path fill="#926250" d="M337,348.7c0.6-0.2,1.3,0,1.5-0.8c1.8,0.7,4,0.2,6.1,2C341.6,349,339.4,350,337,348.7z" />
	<path fill="#734838" d="M340.7,332c0.2,0.9,1,0.7,1.5,0.8c-1.9,0.5-3.8,2.7-5.8,1.8C337.7,333.2,339.2,332.6,340.7,332z" />
	<path fill="#5E4033" d="M333.5,326.3c0.5,0.3,1,0.5,1.5,0.8c-1.3,0.7-2.7,1.4-3.9,2.1C329.5,327.6,332.6,327,333.5,326.3z" />
	<path fill="#D27C60" d="M350.1,327.6c1.4-1,2.8-2,5.4-2.1c-2,1.2-3.3,2-4.7,2.9C350.6,328.1,350.3,327.8,350.1,327.6z" />
	<path fill="#B37359" d="M335.5,323.9c1.3-0.4,2.5-0.8,3.8-1.1c0.3,0.2,0.6,0.5,0.9,0.7c-1.3,0.4-2.6,0.8-3.9,1.2   C336.1,324.4,335.8,324.1,335.5,323.9z" />
	<path fill="#914E3C" d="M350.1,327.6c0.2,0.3,0.5,0.5,0.7,0.8c-0.9,0.5-1.9,1-2.8,1.5c-0.2-0.8-1-0.7-1.6-0.9   C347.5,328.2,348.8,328,350.1,327.6z" />
	<path fill="#835747" d="M330.6,339.2c0.2-0.3,0.5-0.5,0.7-0.8c0.8,0.7,1.3,1.6,1.4,2.8C331.5,340.8,331,340.1,330.6,339.2z" />
	<path fill="#9C6B59" d="M329.9,324.7c0.5,0,1,0.1,1.5,0.1c-0.6,0.4-1.1,0.8-1.7,1.1C329,325.3,329.2,325,329.9,324.7z" />
	<path fill="#B37359" d="M332.6,324.6c0.5-0.2,1.1-0.3,1.6-0.5C333.9,324.8,333.3,324.8,332.6,324.6z" />
	<path fill="#B37359" d="M335.8,324.8c-0.3,0.2-0.6,0.3-0.9,0.5C335.2,325.2,335.5,325,335.8,324.8z" />
	<path fill="#4C261D" d="M355.9,321.8c0.3-0.2,0.5-0.4,0.8-0.7C356.4,321.4,356.2,321.6,355.9,321.8z" />
	<path fill="#301813" d="M349.6,316.9c-1.2,0.7-2.5,0.6-3.8,0.4C347,316.3,348.4,316.9,349.6,316.9z" />
	<path fill="#D7C0A1" d="M332.9,46.1c-0.1,0.3-0.2,0.5-0.2,0.8c-0.9-2.1-0.9-3.7,0-5.8C332.7,42.8,332.8,44.4,332.9,46.1z" />
	<path fill="#DAC6A9" d="M384.1,43.9c-2.7,1-5.9,2.6-8.4,0.4C378.4,43.3,381.6,42.3,384.1,43.9z" />
	<path fill="#CCBFA3" d="M400,19.4c1.7,0.9,3.4,1.9,5.5,3.1c-0.9,0.3-1.4,0.4-1.8,0.6c-4.5-3.6-10.4-3.9-15.2-6.7   C391.5,14.4,396.5,18.7,400,19.4z" />
	<path fill="#D8CBAE" d="M378.9,23.1c0.3-0.1,0.7-0.1,1.2-0.2c0.1-0.9-0.3-1.9,0.5-2.7c2.9,0.6,5.8,1.4,8.7,2.1   c-0.4,1.1-1.5,0.4-2.2,0.8c-1.7-0.3-3.4-0.5-5.4-0.8c0.4,0.5,0.6,0.8,0.9,1.3c-0.7,0.1-1.3,0.2-2,0.3   C380,23.6,379.4,23.3,378.9,23.1z" />
	<path fill="#A39D86" d="M382.8,20.7c-1.3-0.5-3.7-0.1-3.8-1.9c2.1-0.3,4,1.1,6.1,0.2c2.1,0.3,3.5,1.4,6.1,2.3   C387.8,22.4,385.6,18.9,382.8,20.7z" />
	<path fill="#908975" d="M387.1,18.6c1.7-1.8,4.7,1,7.4,1.2C391.4,20.5,389.3,19.2,387.1,18.6z" />
	<path fill="#6B564A" d="M382.8,20.7c1.6-1.4,4,0.1,5.7,0.8c0,0.2,0,0.4,0,0.6C386.6,21.7,384.7,21.2,382.8,20.7z" />
	<path fill="#8F816F" d="M387,23.1c0.7-0.3,1.7,0.3,2.2-0.8c1.4,0.3,2.7,0.6,4.1,0.9C391.1,23.7,389,24.3,387,23.1z" />
	<path fill="#C4C6A9" d="M389.2,25.9c0,0.4,0,0.8,0,1.2c-0.5,0.1-0.9,0.2-1.4,0.3c0,0,0-0.2,0-0.2c-0.7-0.2-1.3-0.6-2-0.7   C386.7,25.5,388,25.9,389.2,25.9z" />
	<path fill="#606658" d="M394.9,21.5c1.1,0.4,2.2,0.7,3.6,1.1C396.8,23.5,395.8,22.6,394.9,21.5z" />
	<path fill="#F6D9C7" d="M391.7,24.9c-0.5,0-0.9,0-1.4,0c0,0,0-0.1,0-0.1c0.5,0,0.9,0,1.4,0C391.7,24.8,391.7,24.8,391.7,24.9z" />
	<path fill="#14100E" d="M385.8,26.5c0.2,0,0.4,0,0.5,0.1c0,0.2,0.1,0.5,0.1,0.7c-0.5,0-1,0.2-1.5-0.1   C385.2,27,385.5,26.8,385.8,26.5z" />
	<polygon fill="#14100E" points="383.6,26.2 383.8,26.2 383.8,26.3  " />
	<path fill="#D8C0A1" d="M383.4,30.8c2-0.1,3.9,0.2,5.8,0.5l0,0c-6.9,3.4-14.5,3.8-21.7,1c0-0.2-0.1-0.4-0.2-0.6   c1.6,0.2,3.2,0.3,4.8,0.5c0-0.1,0.1-0.2,0.1-0.3c-0.9-0.4-1.9-0.9-3.1-1.5c3.3-0.9,5.9,1,9.2,0.5c1.2,1,1.6,1,2.9,0   C382,30.9,382.7,30.9,383.4,30.8z" />
	<path fill="#927F6C" d="M386.3,27.3c0-0.2,0-0.5-0.1-0.7c0.5,0.2,1,0.4,1.5,0.6C387.3,27.2,386.8,27.3,386.3,27.3z" />
	<path fill="#D6C9AC" d="M394.2,34.6c-0.5,0.4-1,0.9-1.5,1.3c-0.6,0.1-1.2,0.2-1.8,0.3c-0.8-0.3-1.9,0.3-2.4-0.8   c1.7-1.2,3.3-2.6,5.6-2C394.1,33.9,394.2,34.2,394.2,34.6z" />
	<path fill="#DED1B3" d="M389.2,31.3C389.2,31.3,389.2,31.3,389.2,31.3c0.1-0.3,0.1-0.7,0.2-1c1.6-0.1,2.9-0.6,4.2-1.6   c0.9,0.2,0.7,1,0.9,1.6c-0.1,0.3-0.2,0.7-0.3,1.1C392.6,32.1,390.8,31.8,389.2,31.3z" />
	<path fill="#BDB79C" d="M384.1,43.9c-0.9-0.8-2-0.7-3.1-0.8c2.1-0.8,4.3-0.9,6.9-1.8C387,43.5,385.5,43.7,384.1,43.9z" />
	<path fill="#AC9E84" d="M388.5,35.3c0.5,1.1,1.6,0.5,2.4,0.8c-1.8,1-4.4,1.4-6-0.2c0,0,0,0.1,0,0.1   C386.1,35.8,387.3,35.6,388.5,35.3z" />
	<path fill="#94A289" d="M384.9,36c-1.2,0.2-2.3,0.6-3.6-0.4C382.7,35.4,383.9,34.5,384.9,36L384.9,36z" />
	<path fill="#201915" d="M381.2,38.9c0.2-0.5,0.4-0.9,0.7-1.4c0.4,0,0.8,0.1,1.3,0.1C382.8,38.7,382.1,39,381.2,38.9z" />
	<path fill="#27211C" d="M382.7,48.3c-0.2,0.6-0.5,0.7-0.7,0C382.2,48.3,382.5,48.3,382.7,48.3z" />
	<path fill="#AC9E84" d="M389.2,34.8c-0.2,0.2-0.5,0.3-0.7,0.5C388.8,35.2,389,35,389.2,34.8z" />
	<path fill="#576D5B" d="M379.9,51.2c-1.9,1.8-4,1.8-6.7,0.2C376,51.2,377.4,51.2,379.9,51.2z" />
	<path fill="#C0775C" d="M340.2,323.4c-0.3-0.2-0.6-0.5-0.9-0.7c1.7-0.5,3.4-1,5.1-1.6c0.5,1.1,1.5,0.4,2.3,0.8   C344.6,322.8,342.4,323.2,340.2,323.4z" />
	<path fill="#4C261D" d="M354.5,320.5c-0.6,0.9-1.4,0.7-2.3,0.6C352.8,320.4,353.6,320.4,354.5,320.5z" />
	<path fill="#DECEB0" d="M383.4,16.4c-1-0.7-1.9-1.3-2.9-2c2.3-0.2,4.1,1,6.5,0.6l0,0c0.3,1.2-1,1.3-1.4,2c-0.6,0-1.1-0.2-1.6-0.5   C383.8,16.6,383.6,16.5,383.4,16.4z" />
	<path fill="#717564" d="M401.4,18.6c-0.2,0-0.5,0-0.7,0c-1.8-0.9-3.6-1.8-5.8-2.9C397.9,15.8,399.9,16.7,401.4,18.6z" />
	<path fill="#D5C8AB" d="M387,15c-1.5-0.1-3.1,0.4-4.3-0.6C384.2,14.4,385.7,13.9,387,15z" />
	<path fill="#D5C8AB" d="M385.6,17.1c0.4-0.7,1.7-0.8,1.4-2c0.5,0.5,1,0.9,1.5,1.4C387.8,17.7,386.6,17,385.6,17.1z" />
	<path fill="#D5C8AB" d="M384,16.6c0.3,0.2,0.6,0.3,0.8,0.5C384.6,16.9,384.3,16.7,384,16.6z" />
	<path fill="#B19F91" d="M364.4,59.7c0.6-1.1,1.1-2.3,1.8-3.7c0.8,0.5,1.4,0.8,1.9,1.1c-0.6,1.6-1.6,2.6-2.7,3.5   C365,60.4,364.7,60.1,364.4,59.7z" />
	<path fill="#78635B" d="M364.4,59.7c0.3,0.3,0.7,0.6,1,0.9c-0.7,0.9-0.8,1.2-2.2,1.4C363.7,61.1,364,60.4,364.4,59.7z" />
	<path fill="#98907B" d="M408.7,22.2c0.1,0.2,0.1,0.5,0.2,0.7C408.1,22.8,408.2,22.5,408.7,22.2z" />
	<path fill="#3C322A" d="M389.4,30.4c-0.1,0.3-0.1,0.7-0.2,1c-1.2-0.2-2.4-0.3-3.6-0.5C386.8,29.7,388.1,30.3,389.4,30.4z" />
	<path fill="#3C322A" d="M389.9,28.1c0.2,0.1,0.5,0.1,0.7,0.2C390.3,28.7,390.1,28.6,389.9,28.1z" />
	<path fill="#3C322A" d="M389.2,27.5c0.3,0.2,0.5,0.4,0.8,0.6C389.7,27.9,389.4,27.7,389.2,27.5z" />
</g>
</svg>