<?xml version='1.0' encoding='utf-8'?>
<svg xmlns="http://www.w3.org/2000/svg" version="1.2" baseProfile="tiny" id="Layer_2_00000039830119653226078670000000799510013442903210_" x="0px" y="0px" viewBox="0 0 900 600" overflow="visible" xml:space="preserve">
<g>
	<path d="M298.4,412.3c-2.6-0.3-5.2-0.6-7.9-0.9c-3.1-5.7-2.7-11.9-1.5-18.6c10.7-5.3,24.4-2.8,36.2-3.1c-0.3-1.1-0.6-2.2-0.9-3.3   c1.3,0.5,2.5,1.4,2.9-0.8c0.7,1.6,1.4,3.3,2.1,4.9c-1.2-0.6-2.4-1.4-2.8,0.7c-7.3-0.3-15,0.1-22.3,1.5c-4.3,0.5-9.3-1.4-12.8,2.2   c1.2,2.3-0.9,4.5-0.1,7c0.8,2.3-0.3,4.9,1,7.4c34.6,6.7,71.8,8.8,107.2,4.5c0.1-1,0.2-1.9,0.4-3.3c0.4,1.5,0.7,2.4,1,3.4   c7.8-0.4,32.6-0.3,37.1-5.1c-26.9-1.9-53.2-4.6-80.2-3.6c0.3-1.9-3.1-1.9-2.8,0c-3.1,0.4-6.2-0.7-9.3,0.3c-2.3-0.6-4.9,0.2-6.9-1.6   c1.7-1.1,1.7-1.1,0.9-2.9c13.3,4.7,27.9,0.4,41.3,2.7c-6.5,0.5-14-0.9-20,0.7c10.1,1,20-1.2,29.6-0.2c10.1-5.4,22.8,5.1,32.7-2.6   c0.2,0.2,0.4,0.4,0.7,0.6c-1,0.6-2,1.3-3.5,2.2c30,1.6,60.2,3.6,90.4,6.1c1.2-16.1,5.3-31.4,11.8-46.1c-0.1-0.5-0.2-1.2-0.4-1.8   c8.2-15.7,17.4-34.3,18.2-51.7c-31.9-2.6-70.3-6.8-99.7,5.7c-1,0.3-2.2-0.5-2.8,0.6c-2.3,0.4-10.3,2.4-10.5-0.7   c-0.2-0.2-0.4-0.4-0.6-0.6c0.3-0.2,0.5-0.5,0.8-0.7c1.1,0.3,2.2,0.5,3.5,0.8c18.6-8.4,41.3-8.5,61.7-10.6c27.8-3.2,55,4.3,82.1,7.5   c-3.1-13.1-39.3-10.2-51.1-16.8c-18.2-5.7-38.9-9.4-50.9-25.8c-18.6-6.7-32-23.6-51.4-29.5c-2.5,3.6-4.1,7.5-6,11.1   c-1.9,1-2.6,3-3.2,4.8c-2.5,6.1-9.4,8.9-14.7,11.9c-0.7-0.3-1.7,0.3-2.2-0.7c11.5-6.2,17.6-18.3,23.5-29.8   c-9.9-5.2-18.3-12.8-25.7-21.2c-2,0.5-3.9,0.9-5.4,1.3c-2.4,6.3-5.3,11.5-10.6,15.6c-0.8-0.2-0.7-0.8-0.8-1.4   c2.2-4.7,5.9-9.3,7.4-14.2c-2.6-0.9-5-1.8-7.3-2.6c3.1-2.6,7.2,1.1,10.8-0.1c5.5-6.9-14.3-27.6-8-30.5   c7.7,13.9,14.5,28.3,26.1,39.1c10,8.1,21.3,14.5,32.1,21.3c3.1,0.5,7.8,5,10.3,3.6c0.4,0.3,0.8,0.6,1.1,0.9   c-0.2,0.5-0.3,0.9-0.5,1.4c8.2,8.4,19.5,14.7,30.3,19.6c-0.1,0.5-0.2,0.9-0.4,1.5c20.9,15.7,48.8,20.8,73.7,27.7   c1.8,0.3,3.6,1.2,5.4,0.8c5.6-1,10.9,2.8,16.3,4c2.1,1.9,5.1-0.7,7,1.3c-1.3,0.4-2.6,0.8-3.9,1.2c0,1.4,0,2.5,0,3.8   c7.3,5.8,16.8,9.4,22.1,17.4c-0.3,0.2-0.5,0.5-0.8,0.7c-4.9-2.5-9.5-6.7-14.2-9.7c0.2-0.6,0.3-1,0.4-1.4   c-12.3-5.9-27.1-4.4-40.7-6.7c-1.4,16.6-7.6,32.2-16.5,46c0.3,0.4,0.5,0.8,0.7,1.1c-3.2,8.8-8.1,17.1-9.1,26.6   c10.3-3.2,18.9-7.7,28.7-11.5c0,0.5,0,1,0,1.5c-6.8,9.8-12.1,20.4-16.6,31.4c-6.6-2,9-24.7,10.7-28.2c-31.3,12.5-27,40.1-21.4,68   c0.7,15.3,2.5,33.4-2.8,48c0-13.5,0.4-26.2,0.6-39.6c1-14.1-4.8-27.4-4.6-41.7c-24.1,0.3-47.9-2.9-71.9-4.5   c-0.2,0.8-0.4,1.4-0.6,1.9c-3.9,3.4-8.7,3.9-14.5,4.5c6.9,53.3,14.2,106.9,19.4,160.4c-25.4,14.7-17-31.6-21.6-46.2   c-0.5-20.8-6.5-41-7.5-61.8c-0.4-17-1.6-33.7-4.8-50.5c-8.7-0.4-17.2,1.5-25.9,0.8c-3.8,2.9-9.4,0.6-14,1.3   c0.5,58-1.1,116.6-1.5,174.4c-3.3,4.3-12.3,6.7-16.3,2.2c-4.8-0.2-4.8-0.2-6.1-5.1c-0.1-56.5,6-114.8,5.7-171.8   c-12.7-0.8-24.9-2.2-37.5-3.5c-5.1,38.3-15.6,75.8-22.5,113.9c-0.6-38.3,16.4-76.1,19.4-114.2c-3.1-0.5-5.9-1-8.9-1.6   c-1.1-1.3-2.9-0.1-4.1-1.2C299.7,412.1,298.9,412.3,298.4,412.3z M514.7,403.8c-1.5,2.6-1.7,4.5-1,7.9c1.1-7.8,4-15.6,6-22.7   C515.6,388.6,515,400.7,514.7,403.8z M353.7,592.7L353.7,592.7c0.4,2.1,3.2,1.3,4.8,1.6c2.6,1.6,10.6,0.2,10-4.1   c-1.3-46.9,1.2-94.3-0.6-141.2c-3.5,1.1-6.9,1.5-10.6,1.3c-2.6,35-4,70.1-5.6,105.2C352.3,561.8,346.7,592.6,353.7,592.7z M429,548   c1.2,8.3,1.2,16.9,3.2,25.3c1.2,0.3,2.6,0.6,3.9,1c0.1,0.3,0.2,0.7,0.4,1.1c1.5-0.2,3.1,0.3,4.4-0.7c1,0,1.7-0.5,2.5-1.3   c-6.1-52.5-14.8-105-19.6-157.7c-3.3,0.4-6.3,0.8-9.7,1.2C420.5,460.2,424.8,505,429,548z M368.2,448.2c0.9-9.8,1-19.3,0.7-29   c-4.5,0.5-8.6-1-12.8,0.1c1.1,9.5,1.3,19.2,1.1,28.9C361.7,449.3,361.7,449.3,368.2,448.2z M392.5,215.5c-0.8-1.1-0.8-2.3-2.3-2.7   c-0.4,0.9-0.7,1.7-1.2,2.7C390.2,215.5,391.2,215.5,392.5,215.5z M394.4,404.8c0,0.1,0,0.1,0,0.2c0.3,0,0.5,0,0.8,0   c0-0.1,0-0.1,0-0.2C394.9,404.8,394.6,404.8,394.4,404.8z M341.4,404.3l0.1-0.2l-0.2,0L341.4,404.3z" />
	<path d="M327.2,385.7c-0.4,2.2-1.6,1.3-2.9,0.8c-22.8-84.3-43.1-184.2,14.5-259.6c-0.1-0.7-0.3-1.2-0.4-1.8   c4-9.9,21.1-27.4,12.6-37c-1.5-8.8-2-17.9-5.1-26.4c0.4-0.7,0.7-1.3,1.1-2.2c-5.9-9.2-0.2-19.7,0.4-29.3c0.5-2.8,3.5-3.4,4.6-5.9   c-1.6-0.8-2.3-1.2-3.7-2.4c1.2-1.1,1.8-1.7,2.9-2.7c0.7-0.1,1.4-0.1,2.1-0.2c0.6-0.9,1.2-1.7,1.9-2.8c0.8,0.5,1.5,0.9,2.2,1.4   c1.5-3.2,2.1-5.4,5.3-1.5c4-5.6,10.8-5.8,17.1-6.6c1.6-1,2.2-3.5,5-2.9c-0.4,1.1-0.7,1.9-1.1,2.7c1.4,0.9,2.8,0.5,4.1,0.1   c4.7-1.7,9.5-0.2,13.9,1.3c3.8-1.4,7.7-1.9,11.4-3.7c1,0.4,1.2,0.6,1.8,1.5c-0.4,0.7-0.8,1.5-1.3,2.5c3.7,0.5,6.8,0.5,10.4,0.1   c0.5,0.8,0.9,1.5,1.3,2.1c0.7-0.2,1.4-0.4,2-0.6c2.2,0.9,2,3.2,2.8,5.2c2.1-1.7,2.2-4.9,5.2-5.4c1.2,1.7,1.8,3.5,3.7,4   c-0.2,1-0.3,1.7-0.5,2.7c2.1,0.3,3.6-1.1,5.8-1.1c0.8,0.7,1.7,1.5,2.6,2.3c0.2,2.2-0.6,4-1.2,6c0.4,0.4,0.9,0.9,1.5,1.6   c-0.7,0.7-1.4,1.4-2.1,2.2c0.2,0.5,0.4,0.9,0.7,1.6c-1.6,1.6-12.9,4.5-14.1,2.5c4.6-3.1,11.3-2.8,12.3-9.8c-3.9,3.6-7.8,7-13.6,7   c-1.1-0.1-1.7,0.4-2.1,1.4c-1.7,0.4-4.4,0-5.4,1.5c0,0,0,0,0,0c-1.1-0.1-2.2-0.4-2.8,0.7c0,0,0.1,0,0.1,0c-2.5-0.3-5.7-2.2-7.6,0.3   c1.3,1.7,2.6,0.9,4,0.3c0.8,1.6,2.6,1.1,3.6,2.2c-0.7-0.1-1.3-0.2-1.5,0.7c-2.5,2.1-5.3,0.7-8,0.3c-6.5,11.9-32,21.6-21.4,37.7   c-2.2,0.2-3-1.8-4.9-1.9c-1.1,1,0.2,2.6-1.2,3.2c-3.3-2.5-5.3-8.4-5.6-12.7c-0.9-0.9-1.6-2-2.8-2.3c-1.1,0.5,0.5,1.7-0.8,2.1   c-7.6-4.1-10-0.9-13.2,6.1l0,0c-3.9,7.5,13,11.4,3.2,18.2c-0.5,2-0.9,3.7-1.3,5.1c-0.9,0.4-1.5,0.7-2.1,0.9c0.1,1.5,0.3,3-1.3,4   c-0.6-0.1-1.4-0.1-2.1-0.2c-8.9,13.5-16.8,28.8-24.5,42.8c2.3-0.4,4.6-1.1,6.9-1.9c0.3,0.3,0.7,0.6,1,0.9c-2.9,2.2-6.1,3-9.7,2.9   c-33.8,61-32.4,138.2-11.7,203.6c14.9-22.4,40.1-39.2,66.8-43.2c0-4.3-1-9.5,0.5-13.4c1.7,4.8-0.7,10.4,3.4,14.6   c8.8,0.7,20.1-7.1,20.3,6.3c3,0.5,5.7,0.9,8.5,1.4c-2.9,1.6-6.4-0.5-9.3,1.4c-1.5,1.1-1-1.6-1.2-2.3c-0.8-0.5-1.4-0.9-2-1.3   c1.1-1.2,0.9-2.5,0.5-4.1c-5-0.1-10.7-0.2-15.2,2c-0.4-0.5-0.8-0.9-1.2-1.4c-2.3-0.7-4.7-1.1-6.8,0.6c-2.8-0.7-2.8-0.7-4.5,0.9   l0-0.1c-1.3-0.6-2.4-0.5-3.6,0.7c0.4,0.7,0.8,1.5,1.2,2.3c1.6-0.4,6.6-2.2,5.6,0.9c-7.7,1.1-14.1,6.5-21.2,9.6   c-0.3-0.3-0.6-0.6-0.9-0.9c2.4-2.3,5.8-3.4,8.3-5.4c-0.7-1.8-1.6-3.2-2.8-4.3c-1.2,1.2-2.6,0.1-3.4,1.4c-0.7,0.4-1.4,0.9-2.1,1.3   c-0.6,0-1.1,0.1-1.3,0.8c-10.1,6.7-21.1,12.7-28.6,22.4c-3,1-2,4.6-2.2,7.2c-1.2-0.6-0.8-2.1-1.9-3c-0.8,3.2,0.8,6,1.3,9.2   c-0.6,0.1-0.9,0.2-1.2,0.3c-0.7-2.1-0.4-5.3-2.2-6.6c-0.3,0.5-0.6,0.9-0.8,1.3c0.5,2.3,2.6,4.8,0.7,6.8c-0.7-1.4-0.2-4.2-1.7-4.7   c-0.2,2.4,1.1,4.6,0.9,7.1c-1.3-1.2-0.9-3-2.1-4.6C320.2,362,324.5,374.4,327.2,385.7z M411.5,32.3L411.5,32.3   c-0.8,0-1.6,0.3-0.9,1.3c1-0.1,2.1,0.7,3-0.6c2.3-0.4,5.1,0.7,7-0.8c-0.1-0.3-0.1-0.7-0.2-1.1c-0.7-0.3-1.4-0.7-1.8-0.9   C415.9,30.8,413.4,30.4,411.5,32.3z M369.7,313.3c1.3,2,1.7,1.5,3.4,0l0,0c0.4,1.1,0.9-0.4,1.5-0.7c-0.7-1.3-1.1-2.7-2.8-2.7   c-1.2,0.6-3.4,0.2-3.8,1.7C367.9,312.4,369.1,314.1,369.7,313.3z M368.3,15.5c2.2,0.1,3.8-1.1,5.8-2.8   C371.1,13,368.4,11.5,368.3,15.5c-0.8,0-1.5,0.2-1.9,1.2c0.4,0.3,0.8,0.6,1.2,1c0.5-0.4,0.8-0.6,1.2-0.9   C368.6,16.3,368.4,15.9,368.3,15.5z M416.6,19.6c6-3,6.3-0.9,8.5,4.3c1.2-0.8,2.2-1.6,3.2-2.3c-0.2-1.4,0.5-2.7-1-3.7   c-0.5,0.8-1,1.3-1.9,1.8c-1.2-1-0.1-2.9-2.1-3.3c-2.2,0.9-5.1,0.4-7.8,2.4C416,19.2,416.4,19.5,416.6,19.6z M372.7,30.2   c0.2-0.5,0.4-0.9,0.6-1.4c-1.3-0.9-2.4-1.8-2.5-3.4c-0.5,0-0.9,0-1.4-0.1c-0.2,1.4-1.4,2.3-1.6,3.8   C369.4,29.5,370.8,29.8,372.7,30.2z M396.1,47.3c1,0.6,9.1-4.9,7.1-6C400.5,42.7,397.3,43.5,396.1,47.3z M382.1,49.2   c-1.5-0.6-3.1-1.2-4.6-1.7c-1.7,1.3-1.9,1.9-1.3,2.4c0.9-0.1,1.8-0.2,2.6-0.2c0.4,0.8,0.8,1.5,1.1,2.1   C381.8,51.1,381.8,51.1,382.1,49.2z M361.5,44.7c-0.3,0.3-0.6,0.6-0.8,0.8c1.6,1.6,3,3.1,4.5,4.6c0.8-0.5,1.5-1,1.6-2.1   C364.4,47.5,363.1,46.6,361.5,44.7z M379.5,33.2c1-0.5,1.8-0.9,2.7-1.4c0-1.7-1-2.4-2.1-3.2c-0.8,1.1-1.4,1.9-2.2,3   C378.5,32.2,378.9,32.6,379.5,33.2z M408.9,35c-1-1.4-7.3,3.4-6,4.8C405.3,38.9,407.1,37.2,408.9,35z M398.8,31.2   c-2.4-0.1-4.4-4.2-6.1-1.3c1.4,1,2.8,2.1,4.3,3.2C397.7,32.4,398.2,31.8,398.8,31.2z M406.7,33.1c-1.3-1.5-2.3-5.2-4.3-2.8   c0.5,0.6,0.9,1.3,1.5,1.8c0.7,0.6,0.1,1.9,1.5,2.2C405.8,33.9,406.2,33.6,406.7,33.1z M353.5,47.6c-1.5,1-2.2,2-2.4,3.5   c0.4,0.2,0.9,0.5,1.4,0.8c0.8-0.9,1.6-1.8,2.4-2.7C354.4,48.6,354,48.2,353.5,47.6z M409.9,13.5c-1.4,0.1-2.6-0.4-4,0.5   c0.6,1.1,1.1,1.9,2.1,2.3C409,15.6,409.9,15.1,409.9,13.5z M353.3,67.9c-2.2,1-2.3,1.8-0.6,3.9C354,70.7,353.8,69.4,353.3,67.9z    M432.7,19.2c1.4-0.9,2.8-0.9,3.2-2.6c-0.5-0.3-1-0.7-2-1.3C434.1,16.9,432.4,17.3,432.7,19.2z M366.1,59.9c1.2,0.8,2,1.6,3.5,1.4   c-0.1-0.9-0.2-1.6-0.2-2.3C367.6,58.8,367.6,58.8,366.1,59.9z M424,26.8c-1.8,0.5-5.3,0.2-3.8,2.6C422.2,29.7,422.8,28.2,424,26.8z    M359.1,31.7c1.2-1.1,2.7-3.7,0.5-4C359,28.7,357.9,29.7,359.1,31.7z M354,30.2c-0.4,1-2.1,3.1-0.1,3.3c1.1-0.7,1.4-1.8,1.7-3.2   C354.9,30.3,354.5,30.3,354,30.2z M358.2,72.2c-2,1.2-1,3.8,0.9,4.4C359.4,74.9,358.7,73.6,358.2,72.2z M358.2,63.7   c-0.4,1-2.1,3-0.1,3.3c1.1-0.7,1.5-1.8,1.7-3.1C359.2,63.8,358.7,63.7,358.2,63.7z M349.1,55.5c-0.3,2-0.3,2,0.5,3.2   c0.7-1,1.5-1.7,1-3.2C350.1,55.5,349.6,55.5,349.1,55.5z M381.9,54.7c-1.7,2.2-1.7,2.2-1.2,3.9c0.8-0.9,1.5-1.7,2.4-2.6   C382.6,55.5,382.2,55.1,381.9,54.7z M361.1,56.6c2-0.1,2.1-3.4-0.1-3.2C360.6,54.9,360.6,54.9,361.1,56.6z M364,32.3   c1.3-1.3,1.8-2.4,1.2-4.1C363.7,29.3,362.8,30.3,364,32.3z M388.8,55.3c-1.8,1.2-1.8,1.2-1.3,3.2C389.1,57.8,389.1,57.8,388.8,55.3   z M385.8,49c0.9-0.7,2-1.1,1.9-2.5C386.2,45.4,383.8,47.7,385.8,49z M394,51.6c-1.5-1.4-4,1.1-2,2.3   C392.8,53.4,393.6,52.9,394,51.6z M362.1,22.9c0.6,0,1.2,0,2,0c-0.1-0.9-0.2-1.6-0.3-2.4C362.3,21.3,362.3,21.3,362.1,22.9z    M382.6,69.8c2.5-0.6,2.6-0.8,1.8-3.2C383.8,67.6,383.4,68.4,382.6,69.8z M357.5,26.1c-1.7,0.2-1.7,0.2-1.4,1.7   C357.6,27.9,357.6,27.9,357.5,26.1z M380.3,63c-0.8,1.2-1.2,1.7-1.8,2.6c1-0.1,1.6-0.1,2.4-0.1C380.7,64.7,380.6,64.2,380.3,63z" />
	<path fill="#010101" d="M517.4,484.5c0,3.2,0,6.3,0,10c0.7-1,1.1-1.5,1.5-2.1c0.1,3.4-0.3,6.7-1.3,9.9c-0.1-0.6-0.1-1.3-0.3-2.7   c-0.5,1.7-0.9,2.5,0.2,3.2c-1,11-1.6,22.8-5.7,33c2,1.8,3.8,3.4,5.7,5.2c4.7-25.3,8.8-51.1,7.8-77c-1.4-20.2-2.3-40.3,4-59.6   c0.2,1.9,0.2,1.9,1.6,2.3c-0.5,1.6-1,3.2-1.5,4.9c-0.1-0.6-0.2-1.1-0.3-2c-0.6,1.1-0.5,1.6,0.3,2c-5.2,19.5-1.2,39.8-1.5,59.8   c0.5,24.2-3.3,48-8.2,71.4c7.6,2,15.2,2.9,22.8,1.1c0.1-2.2-1-4.1,0-6.4c1.6,1.9,1.1,3.9,2.6,5.6c2.3-0.5,4.3-1.8,6.5-1.6   c5.9-31.2,11.9-63.5,25.9-92.5c6.1-16.6,10.1-34,14.7-51c3.7-10.1,9.5-19.4,11.1-30.2c0.4-0.3,0.8-0.6,1.2-0.9   c1.4,0.5,0.1,2.3,1.5,2.8c0.9,2.4,2.5,4.4,4.7,5.8c-0.1,2.5-2.8,0.6-4.3,0.2c-0.6-1-1.1-2.1-1.7-3.1c-0.8,0.1-0.6,0.7-0.7,1.1   c-0.2,5.9-4.2,10.7-6.6,15.9c-6,15.2-7.1,32.3-13.1,47.8c-9.4,31.9-24.4,62.5-27.9,95.9c9-7.8,13.9,12.6,17.8,18   c11.1,5.2,23.6,11,36,8.1c2.2,0.6,5.4,5.3,5.5,7.6c12.2-1.8,16.8,6.9,14.6,17.8c-2.8,2.4-6,4.3-9.4,6.1c0.2,0.2,0.3,0.4,0.5,0.7   c-20.7,10.8-43.1,4.9-65,5.1c-19.9-0.3-44.1,10.1-60.6-4.7c0.5-2.1,0.9-4.1,1.3-6.1c-3.6-0.9-7.3-1.6-9.1-5.4   c0.1-0.4,0.2-0.9,0.2-1.3c3.6,1.3,6.2,4.2,10.4,4.8c1.8-8.9,6.2-17,7.3-26.1c-0.1-6.7,1.5-13.2,4.6-19.3c-2.4-2.3-4.9-6.1-8.4-5.8   c-0.3-0.3-0.6-0.6-0.9-0.8c0-0.2,0-0.4,0-0.6c2.9-1.6,5.4,1,7.6,2.9C516.1,519.3,515.5,500.9,517.4,484.5z M614.3,591.3   c2-0.2,2.1-0.3,1.5-2c1-0.4,2.2,0.5,2.8-0.7c2.8-2,8-2.1,9.1-5.6c3.3-4-2.7-7.3-2.1-11.5c-2.2-2.8-3.5-1.9-6.3-1.9   c-7.4-0.6-15-2.3-21.6-5.4c-1.2,0.6-2.5,3-4,1.8c0.4-0.9,0.8-1.9,1.2-2.9c-2.4-1.7-5.1-2.2-7.8-2.4c-1.3,1.4-2.3,3.1-4.9,2.7   c0.5-1.6,1-3,1.5-4.5c-1-0.8-2-1.5-2.8-2.1c-3.3,1.1-3.4,4.5-7,5.4c0.1-2.6,1.2-4.6,1.8-6.9c-1.1-0.8-1.7-2.1-3-2.4   c-3.9,5.2-4.1,5.4-7.1,5.9c1.9-3,3.6-5.9,5-8.9c-3.9-5.2-4.8-14.8-11.6-16.5c-9.8,20-34.3,41.9-43.9,8.9c-1-0.8-1.7-1.6-3-1.6   c-3.3,7.5-3.2,15.6-4.6,23.5c-0.7,6.1-6.3,12.1-5,17.9c-1.7,3.1-3.2,6-4.8,8.9c19.3,11,42.2,3.3,63.1,2.5   C578.6,595.1,597.1,598.2,614.3,591.3z M518,545.4c3.7,5.8,8,15.8,15.8,11.3c5.6-3.7,11.8-5.8,15.4-12.2   C538.8,549,528.9,548.2,518,545.4z M599,561.5c3.4,4,8.1,3.3,12.7,4.8c-0.1-2.3-0.1-5.1-3.1-4.6C605.2,562.2,602.6,561.2,599,561.5   z" />
	<path fill="#010101" d="M435.8,164.1c0.2,12.3,6.7,17.2,17.4,21.1c16.7,8.4,19.3,30.8,37.4,36.9c6.4,2.7,12.3,6.4,17.6,11   c5.1,4.7,12.3,6.3,16.3,12.2c4.4,5.5,7.8,11.8,14.4,15.2c4.6,5.7,60.7,30.5,51.9,33.3c-16.4-12.5-38.4-16.3-53.8-30.8   c-12.6-14.4-27.1-26.4-43.9-35.8c-15.2-5.9-22.2-20.6-34-31c-7-8.2-21.4-11.4-23.8-22.7c1.2-2.6-2.3-5.3-0.8-7.8   c0.9,0,0.5-0.8,0.6-1.4C435.3,164.1,435.7,164.1,435.8,164.1z" />
	<path fill="#020202" d="M298.4,412.3c0.6,0,1.3-0.2,1.7,0.1c1.2,1.1,3-0.1,4.1,1.2c-0.8,0-1.6,0-2.4,0   C291.1,467,280.1,521,270.1,574.4c1.1,3.9,1.9,5,4.5,5.6c0.1-0.6,0.2-1.1,0.3-1.7c0.1,0,0.3,0,0.4,0c0.3,0.2,0.6,0.5,0.9,0.7   c0.8,0,1.6,0,2.5,0c0.1,0.7,0.1,1.2,0.2,2c5.4-1.9,3.2-7.8,4.7-11.6c1.4-6.1,3.1-12.2,4.7-18.4c0.9-0.5,0.4-1.4,0.6-2.1   c1.2-0.5,0.4-1.8,0.7-2.8c0.9-1,0.9-1,0-2.1c0.7-6,2.6-11.7,3.4-17.6c0,1.1-0.1,2.2,0.8,3c-0.8,15.3-5.5,30.1-8.8,44.9   c0.3,5.3-2.8,10.3-8.9,7.9c-11.2,3.1-5.7-12.5-5.1-18.3c6.6-50.5,19.2-100.9,28.6-150.6C299.1,412.8,298.7,412.6,298.4,412.3z" />
	<path fill="#030202" d="M431.8,113.4c-1.2,2.1-1.2,2.1-3.8,3.6c-5.8-0.5-11.2,1-16.6,1.8c-1.2,2.7-2.2,5-3.2,7.5   c14.1,6.4,23.1,16.9,26.4,32c-0.2,0.5-0.5,1-0.7,1.5c-9.5-25.5-31.8-35.6-55.8-37.6c1.3-0.1,2-1.2,2.8-2c0.5,0,0.9,0,1.4,0   c0.5,0.9,1.4,0.5,2.1,0.6c2.1,0.6,0.6-2.2,2.1-2.8l0,0c-0.1,0.6-0.1,1.1,0.6,1.4c0.3,0.6,0.6,1.2,0.9,1.9   c6.3,0.3,11.7,3.9,17.8,4.1c2.7-15.5,16.8-8.2,25.8-13.5C431.6,112.5,431.7,112.9,431.8,113.4z" />
	<path fill="#12100F" d="M431.8,113.4c-0.1-0.4-0.2-0.9-0.3-1.5c-1.4,0.9-2.3,2.5-4.2,1.8c7.8-2.6-0.5-10.6,4.4-15.2   c1-1.6,1-1.7,0.1-2.9l0,0c-0.2-1-0.7-1.7-1.9-1.7c-1.5,1.2-2.9,2.6-5.1,1.7l0,0c0-0.4,0-0.8-0.1-1.3l0,0c0.5-0.5,0.9-1,1.4-1.4l0,0   c2.5,0.1,4.7-0.7,6.6-2.2c2.2-1.2-0.1-4,0.3-6.3c-3.2,1.8-8.6-0.6-4.8-4.3c0.6,0.7,1.1,1.3,1.5,1.8c3.4-0.2,8.9,1.4,8.3-3.7   c0-0.8,0.3-1.7-0.8-2l0,0c0.1-0.6,0.1-1.2-0.7-1.4l0,0c0-0.7,0-1.4,0-2.1l0,0c0.3,0,0.5,0,0.8,0l0,0c-0.1,0.6-0.1,1.2,0.7,1.4l0,0   c-0.1,0.7,0,1.3,0.9,1.3c3.1,3.7,0.8,7.9-3.1,9.5c0.5,4.4,1.8,5.3-2.5,7.8c0.6,0.9,1.2,1.7,1.9,2.8c-0.2,2.9-1.3,5.9-3.1,8.2   C433.9,107,434.4,110.3,431.8,113.4z" />
	<path fill="#0F0E0E" d="M431.7,34.3c2,2.2,4.7-0.8,7.1,0.1c-2.3,0.7-4.6,1.4-7,2.1c-1.8,7.6,9.8,19.4,0.8,24.2   c1.2,2.9,2.3,5.6,3.4,8.4c-0.1,0.8-0.5,1.8,0.7,2.2c0,0,0,0,0,0c0,0.5-0.1,1-0.1,1.5l0,0c-0.3,0-0.5,0.1-0.8,0.1c0,0,0,0,0,0   c-0.2-0.3-0.4-0.5-0.6-0.8c0-0.6,0-1.2-0.8-1.3c-1.8-3.9-6.6-8.9-2.4-12.8c4.3-4.2-1.6-9-1.6-13.9c-0.2-4.3-2.9-6.8-5.5-9.5   c-0.6,0-1.3,0-2,0c0.8-1.6,3.2-1,4.8-1.5c-0.1,0.4-0.3,0.8-0.4,1.4C428.7,34.3,430.2,34.3,431.7,34.3z" />
	<path fill="#0D0C0C" d="M590.7,293.7c0.9,0,1.4-0.4,1.3-1.3c7.7,12,17.9,21.3,26.5,32.6c-1.8,6.1-0.5,13.2-2.1,18.9   c-0.8-6-0.8-12.1-0.6-18c-3.7-3.6-5-8.4-8.8-11.6C599.1,309.7,597.3,299.9,590.7,293.7z" />
	<path fill="#080808" d="M501.4,532.1c0.3,0.3,0.6,0.6,0.9,0.8c-1.6,3-2.8,7-0.2,9.9c-3.9,10.6-2.6,23.1-10.1,32.1   c-0.9,1.4-3,2.8-2.2,4.7c-0.4-0.1-0.9-0.2-1.4-0.3c-0.1,0.4-0.2,0.9-0.2,1.3c-1.4-2.9,1.6-6.2,2.9-8.9c5.3-8.4,5.9-18.7,8.6-28.2   c-1.8-3-0.9-6.9,0.5-9.8l0,0c0.2-0.5,0.5-0.9,0.7-1.4l0,0C501,532.1,501.2,532.1,501.4,532.1z" />
	<path fill="#131212" d="M616.5,343.9c1.6-2.7,0.3-6.9,0.7-10.1c0.9,4.7,0.4,9.5,0.6,14.3c-0.6,0.2-0.6,0.5,0,0.7   c-1.7,8.5-3.8,17.1-7,25.1C608.7,364.7,617.4,353.9,616.5,343.9z" />
	<path fill="#DFBEAF" d="M610.2,370.4c0.1,1.1-0.7,3,0.7,3.5c0,0.5-0.1,1.1-0.1,1.6c-3.5-2.1-6.3-6.8-4-10.6c0,1,0,2,0,2.9   C608.7,368.7,608.7,368.7,610.2,370.4z" />
	<path fill="#2E2E2E" d="M338.3,125c0.1,0.6,0.2,1.1,0.4,1.8c-0.6,1.3-1.3,2.7-2.6,3.7C336.1,128.4,336.9,126.6,338.3,125z" />
	<path fill="#585351" d="M433.9,159.8c0.2-0.5,0.5-1,0.7-1.5c0.9,1.8,1.3,3.7,1.2,5.7c-0.2,0-0.5,0-0.7,0   C434.1,162.8,434.2,161.2,433.9,159.8z" />
	<path fill="#2F2F2F" d="M438.8,17.8c0.1-0.4,0.2-0.8,0.3-1.3c-0.4-0.6-1.6-0.1-1.8-1.1C439.3,14.5,441.5,17.1,438.8,17.8z" />
	<path fill="#3A3635" d="M436.7,71.2c-1.2-0.4-0.8-1.4-0.7-2.2C436.7,69.6,436.8,70.4,436.7,71.2z" />
	<path fill="#CECEDB" d="M499.3,535.6c-0.2,0.5-0.4,1-0.5,1.6C498.5,536.5,498.5,535.9,499.3,535.6z" />
	<path fill="#3A3635" d="M438.9,75.4c-0.9,0-1-0.6-0.9-1.3C438.3,74.5,438.6,74.9,438.9,75.4z" />
	<path fill="#3A3635" d="M438,74.1c-0.8-0.2-0.8-0.8-0.7-1.4C437.6,73.1,437.8,73.6,438,74.1z" />
	<path fill="#3A3635" d="M436.6,72.7c0-0.5,0.1-1,0.1-1.5c0.2,0.5,0.4,1,0.7,1.4C437.1,72.7,436.8,72.7,436.6,72.7z" />
	<path fill="#CECEDB" d="M503,530.8c-0.5,0.2-1,0.4-1.6,0.6C501.7,530.6,502.3,530.6,503,530.8z" />
	<path fill="#CECEDB" d="M500.8,532.2c-0.2,0.5-0.5,0.9-0.7,1.4C499.9,532.9,500,532.3,500.8,532.2z" />
	<path fill="#CECEDB" d="M500.1,533.5c-0.2,0.5-0.4,1-0.6,1.5C499.3,534.4,499.3,533.8,500.1,533.5z" />
	<path fill="#CECEDB" d="M501.4,532.1c-0.2,0-0.4,0.1-0.6,0.1c0.2-0.3,0.4-0.5,0.6-0.8C501.4,531.6,501.4,531.8,501.4,532.1z" />
	<path fill="#2E2E2E" d="M338.9,124.1c-0.2,0.3-0.4,0.6-0.5,0.9C338.5,124.7,338.7,124.4,338.9,124.1z" />
	<path fill="#0D0C0C" d="M617.8,348.8c-0.6-0.2-0.6-0.5,0-0.7C617.8,348.3,617.8,348.5,617.8,348.8z" />
	<path fill="#4B65C5" d="M327.2,385.7c-2.6-11.2-7-23.7-6.4-34.9c1.2,1.5,0.7,3.4,2.1,4.6c0.2-2.5-1.1-4.7-0.9-7.1   c1.9,1.2,0.6,4.6,2.9,6.2c0.2-2.1,0.1-3.1,2.2-3.3c-0.5-3.2-2.1-6-1.3-9.2c1.1,0.9,0.7,2.4,1.9,3c0.2-2.6-0.9-6.2,2.2-7.2   c-0.1,1.5,0.3,2.9,1.2,4.3c0.6-2-0.2-3.6-0.6-5.2c2-2.6,4.3-4.9,6.9-6.8c1,1.8,0.9,5.6,3.6,5.5l0,0c-0.6,1.4-1.4,2.7-2.5,3.8   c3.2-1.5,4.7-4.7,8-5.9c0.5,0.7,0.5,1.8,1.7,2c4.6-4.9,10.8-5.4,16.8-7.7c0.2,0.7,0.3,1.1,0.4,1.3c-1.7,1.6-2.7,3.1-3.6,5.2   c-1-0.8-1.6-3.4-3.3-2.3c0.9,1.4,1.8,2.9,2.7,4.3c-3.5,1.2-5.9,5.2-8.5,7.9c1,1,1.9,1.8,2.7,2.6c0.9-0.3,1.4-0.7,1.5-1.5   c0.4-3.3,2.9-5.9,4.3-8.9c2.3,2.1,4.7,4.1,6.9,6.3c-2.5,0.9-3.7,4.3-6.4,5.5c-0.3,0.2-0.3,0.7-0.5,1.4c3.5,0.1,6.7,0.1,9.9,0.2   c-3.9,6.1-12.3,10.8-14.4,17.2c5.6-6.7,11.9-12.2,18.3-18.1c2.6,1.4,4.9,4.6,6.4,7.2c-0.2,0.3-0.4,0.6-0.7,0.8   c-2.3-1.9-4.9-0.5-7.9-0.8c2.5,1.6,4.6,2.2,7,2c-2.5,3.8-7.4,8-5.8,13c1.4-4.9,4.6-9.1,8.1-12.8c-1.4,2.6,25.6,7.7,25.8,4.1   c2.1-0.4,7.8,0.9,8.6-0.8c-1.3-0.8-3-0.6-4.5-0.7c20.9-7.7,43-12.6,64.3-19.4c-10.2,8.7-23.7,13.1-36,18.4c2.6,0.9,6-0.6,8,1.1   c-4.2-0.2-8.5,0.5-12.8-0.8c-0.4,0.5-0.7,1-1.1,1.4c-1.4,0.5-3,0.7-4.2,1.6c-1.2,0.9-3.2-0.2-4,1.8c3.3,0.5,6.9-0.7,9.5,1.6   c9.2-0.2,19.1,1,27.1-3.3c3.9,0.5,8.1,0.9,12.2,0.4c-2.5-1.4-5.6,0.4-8-1.2c14.9-1.8,29.3-8.1,44.3-8.9c-5.1,4.2-11,6.5-16.7,9.3   c5.2,0.2,10.4-0.8,15.7-0.4c-2.4,1.2-5.4,0.5-8,1.9c4.8,0.4,9.3-0.6,14-1.4c0-0.5,0.1-0.8,0.1-1.2c0.5-0.2,1-0.4,1.7-0.6   c0.1,0.8,0.2,1.3,0.3,2c1.2,0,2.4,0,3.7,0c0.1,0.7,0.3,1.3,0.4,1.8c-4.7,16.8-18.7,27.3-32.9,36.8c6.5-0.1,21-15.1,25.8-20.3   c0.3,0.3,0.4,0.5,0.6,0.6c-2.5,9.6-4.6,19-5.3,29c-24.4-3-49.6-2.1-74.1-5.5c0.2-1.1,1-1.1,1.8-1.2c11.7-1.5,20.1-10.4,30.3-15.2   c-3.5,0.2-7.6,1.8-10,4.6c-7.5,5.7-16.7,8.8-25.6,9.7c0.8,0.4,1.5,0.8,2.3,1.3c-5,0.5-9.5,0.1-15.1,0.2   c9.5-6.6,20.5-11.2,29.1-18.6c-15.7,7-29.4,23.9-48.3,17.1c7.3-3.3,17.1-4.6,23.2-9c-14.2,4.5-28,11-42.9,9.7   c-0.2-0.1-0.4-0.1-0.5,0C362.4,400.5,332.6,411.2,327.2,385.7z M489.5,390.7c-0.3,0.2-0.5,0.4-0.8,0.6c-0.2,0-0.4,0-0.6,0.2   c-0.6-0.3-0.4-0.7,0-1c8.1-6.4,18.2-12.4,22.9-21.4c-1.3,1.1-2.6,1.8-2.6,3.5c-12.7,13.1-28.3,21.6-44,30.5   c6.6-1.3,11.3-5.4,17.4-7.8c3.4-2.4,10.4-2.5,11.7-6.5C492.1,389.4,490.8,390.1,489.5,390.7z M336.8,350.8   c-1.3,2.5-0.2,5.8-0.5,8.8c2.8-2.3,0.5-6.2,1.6-9.2c0.4-2.4,1.3-5.1-0.7-7C336.7,346.3,337,348.6,336.8,350.8z M486.7,379.3   c3.5-1.3,5.9-3.3,8.5-5.5C493.9,372.7,486.9,377.7,486.7,379.3z M330,353.4c-1.1,2-0.9,4-0.3,6.1C330,357.4,330.2,355.4,330,353.4z    M458.5,401.4c2.5,0.5,2.5,0.5,4.6-0.3C461,401.2,460.1,400.8,458.5,401.4z M332.5,346.1c1.8-0.2,2-0.5,1.7-2.4   C333.6,344.6,333.1,345.3,332.5,346.1z" />
	<path fill="#FBDFD3" d="M540.5,544.1c-3.3,1.5-7,0.5-10.5,0.6c-0.4-0.4-0.8-0.8-1.3-1.2c1.4-17.7,11.2-34,9.6-52.1   c-1.2-13-3.6-25.9-2.7-38.6c2.3-32.6,6.4-49.5,22.9-77.9c2.9-8.9,13.4-9.1,18.7-15.5c3.4-3.1,9-2.8,13.5-2.8   c1.4-1.1,3.1-0.4,4.4-0.8c1.5-1.5,1.2-3.1,1.3-4.7c0.3-0.7,1.6-0.9,1.3-2c-30.1-6.4-46,7.1-72.7,17.2c1-2.5,1.9-4.9,2.9-7.5   c-0.2-0.3-0.5-0.7-0.7-1.1c8.9-13.8,15.1-29.4,16.5-46c13.6,2.3,28.4,0.8,40.7,6.7c-0.1,0.4-0.2,0.8-0.4,1.4   c4.2,3.2,9,5.9,13.1,9.4c0.1,0.9,0.7,0.9,1.3,0.9c1.1,0.7,2.4,1.8,3.4,2.6c1.2,9.8-2.5,18.9-1.9,28.6c8.4,11.7-4.6,25-7.7,36.8   c-11.4,48.4-34.5,93.8-40.6,143.5c-2.2-0.1-4.3,1.1-6.5,1.6c-2-2.3-0.9-5.9-1.2-8.7c1.1-8,1.9-15.8,1.3-23.9   C540.8,520.4,538.2,533.1,540.5,544.1z M596.3,338.3c-0.6-1-1.5-1.5-2.8-1.9c0.8,3,3.2,2.9,4.8,5.7   C598.6,339.8,597.6,339.5,596.3,338.3z M562.6,408c-0.8,1.5-1.6,3.1-2.7,5.3c3.8-2.5,11.7-21.2,7.9-24.8   C564.9,394.4,565.4,401.8,562.6,408z M568.9,432.9c-0.8,2.2-2.6,4.3-2.4,6.7c0.1,0,0.3,0.1,0.4,0.1c1.5-4.1,7.9-13.6,5.1-16.8   C571,426.2,570,429.6,568.9,432.9z M592.7,390.8c3.7-0.2,2.2-7.4,0.4-9.1C593,385,592.8,387.9,592.7,390.8z M560.1,417.9   c-1.6,0.7-2.2,2.2-2.1,5.3C559.5,421.7,559.6,421.3,560.1,417.9z M589.3,368.2c-0.2,2.2,0.3,3.7,2.2,5.4   C590.8,371.4,590.8,369.8,589.3,368.2z M551,439c-2,1.4-2,1.4-1.6,3.1C550,440.9,550.5,440,551,439z M559.4,458.9   c-2.3,0.9-2.3,0.9-1.8,3.4C558.2,461.2,558.6,460.3,559.4,458.9z M553.9,432.1c0.9-0.9,1.4-1.7,1-3   C553.5,429.8,553.5,429.8,553.9,432.1z M591.8,375.6c-0.1,0-0.3,0-0.4,0.1c0,1-0.5,3.9,1.3,2.6   C592.4,377.4,592.1,376.5,591.8,375.6z M597.2,374.5c1.5-0.8,1.5-1.2-0.3-2.4C597,373,597.1,373.7,597.2,374.5z M547.3,445.7   c1.5-0.8,2.5-1.2,1.1-2.5C548.1,443.9,547.8,444.5,547.3,445.7z M560.5,452.9c-0.9,0.7-1.6,1.2-0.9,2.4   C560.5,454.6,561.1,454,560.5,452.9z M561.8,448.2c1.1-0.8,1.1-0.8,1-1.9C561.8,446.6,561.9,447.4,561.8,448.2z" />
	<path fill="#CCD2E9" d="M385.6,300.9c0.1,1.1,0.2,2.3,0.3,3.5c-15.9,1.6-30.1,9.3-42.7,18.6c-3.7-7.9-7.7-27.5-5.6-36.1   c0.6-11-2-21.9-3.3-32.8c5.6-17.5-1.7-35.4-1.1-53.3c1.9,1,3.9,2.2,5.6,3.4c2.7-2.8-8-18.9-9.3-23.8c3.3-13.7,5-28.8,13.7-40.1   c11.3-5.5,20.6-15.4,32.6-19.4c0.9,0.3,1.7,0.6,2.3,1.3c-17,7.3-26.6,24.8-30.1,42.4c-11.3,33.7,4.6,46.9,36,53.6   c-1.6,6.2-8.6,13.6-9.9,19.2c6-5.6,11.2-11.1,13.9-19.2c1.5-0.3,3.3-0.8,5.4-1.3c7.3,8.4,15.7,16,25.7,21.2   c-6,12.4-13.1,24-25.1,31.1c-0.4-0.4-0.8-0.7-1.3-1.1c0.5-1.2,1-2.2,1.5-3.3c-16.6-5.2-29,14.2-34,27.8c0.3,0.5,0.7,1,1,1.5   c-0.6,1.2-1.3,0.4-1.9,0.3l0,0c0-0.6,0-1.2-0.7-1.4c-0.5-0.6-1-1.2-1.7-2.1c-0.3,2.9,2.1,3.7,2.1,6.1c3.5-0.5,5.2,2.2,7.3,4.4   c-2.6,1.5-5.9,1.3-8.2,3.8c3.6,1.8,7.5,0.8,11.1-0.4c0.6,0.5,1.2,0.9,1.8,1.4c0.7-0.8,0.8-1.1,0.6-2c5.2-2.5,5.6-2.8,6.4-4.9   c-6.2,0-8.4,3.4-13.8-2.1c1.8-1.3,4-1.2,5.8-2.1c5.6,6.2,9.4-3.3,15.1-3.6C385,294.7,384.8,297.8,385.6,300.9z M359.9,253.9   c0.7-0.8,1.3-1.3,1.3-2.5c-2,0.7-3.1,2.4-3.2,4.5C359,255.4,359.6,254.8,359.9,253.9z M364.7,247c-0.1-1.6-2.4,0.2-1.9,1.5   C363.9,248.2,364.2,247.8,364.7,247z M369.7,242.9c1.1-1.3,2.8-1.8,2.6-3.8c-1.9,0.4-2.4,2-3.4,3c-0.9,0.6-1.8,1.2-2.1,2.9   C368,244.1,368.9,243.5,369.7,242.9z M349.5,282.3c0.9,1.7,1.6,5.7,3.8,5.4C351.5,283.5,351.5,283.5,349.5,282.3z" />
	<path fill="#5876E8" d="M510.5,362.1c-5.3-0.5-10.5,0.6-15.7,0.4c5.7-2.8,11.6-5.1,16.7-9.3c-18,0.8-35,10.6-53.1,8.4   c1.5,1.1,3,1.2,4.6,1.4c-8.1,4.4-17.9,3.1-27.1,3.3c-2.7-2.2-6.2-1-9.5-1.6c0.8-2,2.8-0.9,4-1.8c5.3-3.5,12.8,0.1,18-2.2   c-1.9-1.7-5.4-0.2-8-1.1c12.3-5.3,25.8-9.7,36-18.4c-20.9,6.2-41.6,12.2-62.5,18.4c-9.4,3.4-20.4-2-30.2-3.1   c0.2-0.2,0.3-0.5,0.5-0.7c5.9-0.9,11.8-4.2,17.5-4.2c-0.5,0.7-1.9,1.1-0.8,2.2c11.4-9.7,22.1-21.3,27.4-35.5   c3.2-0.3,6.6,0.3,9.7-0.8c0.6,0.1,1.2,0.1,1.6-0.5c0.4,0,0.8-0.1,1.2-0.1c-5.9,11.2-18.7,19.7-24.7,29.7c8.6-9.8,20.1-18.2,26-29.8   c28.5-13.1,64.1-7.5,94.6-6.1c-2.5,4.4-5.5,7.4-9.1,11.1c3.6-1.2,7.7-7.1,10.8-10.4c0.9-0.1,1.4-0.1,2-0.2   c-0.8,17.4-10,36-18.2,51.7c-1.2,0-2.5,0-3.7,0c-0.1-0.6-0.2-1.2-0.3-2c-2.2,1.5-4.4-0.3-6.5,1.2C511.4,362,511,362,510.5,362.1z    M490.3,350.2c9.5-6.4,21.8-17.3,26.8-27.8c-7.2,8.9-15.1,17-23.3,25C492,347.6,491.1,348.8,490.3,350.2c-1.3-0.1-1.9,0.8-3,2.3   C489,351.9,489.8,351.2,490.3,350.2z M456.1,330c3.7-4.2,10-9.5,9.3-15.4c-4.4,11.4-14,17.9-21.8,26.5   C446.6,339.9,451.8,335.2,456.1,330z M410.1,352.3c2.2-1,3.8-2,4.1-4.6C412.5,349.7,411.1,350.5,410.1,352.3z" />
	<path fill="#EECABA" d="M444.9,248.6c-14.1-6.2-27.2-15.2-39.5-24.5c-3.6-2.2-4.2-7.2-8.2-8.7c-7.9-6.6-16-37.5-26.8-34.3   c2.3,1.4,4.5,2.8,6.6,4.1c2,9.3,14.2,22.1,10.4,30.3c-3.5,0.9-6.5-1.5-10-0.6c-3.5-1.3-7.4-1.8-10.6-3.9c-1.9-10.7-5.1-21.2-5.6-32   c1.2-0.4,1.2-0.4,0.6-1.5c4.3-0.5,1.2-8.2,6.5-8.1c1.8-8.7,9.6-7.8,16.5-6.5c6.6,2.6,19.2,1.2,21.1,9.3c2.8,0.7,5.7,1.3,8.5,3   c-1.6,7.6-13.7,5.6-19.2,4.5c-3.3,1.3-6.5-0.1-10,0.9c9.1,7.1,13.2,18.6,20,27.3c0.5-0.1,1.1-0.3,1.5-0.4c1,0.5,2,0.9,2.9,1.3   c0.7-0.2,1.4-0.4,2-0.7c1.3,0.7,2.6,1.4,4.1,2.3c2.8-3.6,7.3-2,11.1-2.3c-0.3,0.5-0.5,0.9-0.8,1.3c3.4,4.6,10.5,4.1,15.3,2.1   c0.4,0.3,0.6,0.5,0.9,0.7c-0.4,0.1-0.9,0.2-1.4,0.4c0.4,9.8-10.9,3.1-16.3,3.3c-1.8,2.5-1.8,2.5-4.7,4.1   c17.4,12.7,34,15.7,47.5,34.5c6.1-2.8,12.1,2.7,17.9,4.5c4.1,2,10.7,2,13.2,5.9c-1.3,2.4-4.5,1.2-6.1,3.2c-2.8-0.4-4.4-2-7.4-2.3   c1.3,2.5,3.9,2.4,6.2,3.6c-0.4,0.1-0.9,0.2-1.7,0.4c4.6,3.8,8.8,7.5,14.2,9.4c6.4-4.1,20.2,5.8,27.9,7.1   c16.1,6,34.2,10.3,49.9,14.8c-1.9-0.2-6.8-1.4-6.5,1.6c1.5,1,2.6-0.5,3.8-0.6c0.7,1,1.5,1.9,2.2,2.9   c-34.4-5.3-73.2-12.5-102.5-32.4c0.1-0.6,0.2-1,0.4-1.5c-10.7-4.9-22-11.3-30.3-19.6c4.2-0.3,6.8,5.1,10.6,5.3   c-1.3-1.7-1.3-1.7-4.4-2.6c-2.9-4.6-9.2-4.2-9.8-11.6c-0.1-0.3-0.6-0.5-1.1-0.9c-0.7,2.5,0.4,4.3,1.3,6.1   C445,247.9,445,248.2,444.9,248.6z M441.4,237.3c-0.3-0.8-0.6-1.5-2-1.2c2.2,1.1,0.4,3,2.4,3.9C442.7,238.9,442,238.1,441.4,237.3z    M375.9,201.7c-2.6,2.3-2.6,2.3-2.6,4.1c1.7-2,7.2-4.7,5.8-6.9C377.5,199.2,376.9,200.6,375.9,201.7z M383.7,163.4   c1.5,6.2,9.2,11,15.7,10.3C393.2,171.1,389,167.2,383.7,163.4z M407.5,174.1c-1.9-0.5-3.3-0.6-4.9-0.3   C404.2,175.5,404.5,175.5,407.5,174.1z M410.6,174.8c0.9,1.3,1.7,1.2,2.7,0.8C412.7,174.7,412,174.7,410.6,174.8z M368.5,180.9   c0.2-1.5,0.2-1.5-1.6-1.3C367.5,180.1,367.9,180.4,368.5,180.9z M370.1,207.4c-2.1,0.1-2.1,0.1-2,1.5   C368.6,208.4,369.1,208.1,370.1,207.4z" />
	<path fill="#EECABA" d="M589.9,356.5c-9.2-0.8-10.8,1.8-17.2,6.5c-13.9,4.4-17,18.7-23.4,30.1c-12.6,19.1-10.8,42.9-14.3,64.4   c0.5,14.3,4.5,29.3,2.8,43.8c-0.2,14.5-8.6,27.6-9.1,42.1c0.5,0.5,0.9,0.8,1.3,1.2c-3.6-0.1-6.8-1.1-10.4-1.9   c6-28.6,9.9-58,7.7-87.4c0.5-11-3.5-24.4,1.2-34.3c-0.1-1.2,0.7-2.1,1-2.6c-0.1-2.7-0.4-4.5-0.2-7c0,0,0,0,0,0   c5.7-14.3,10.9-32,24.5-40.3c1.9-1.7,13.2-5.3,11.1-7.6c-14.9,8.8-29.7,16.3-46.2,21.6c0.8-6.6,3.4-13.1,6.2-19.1   c14.7-4.4,27.6-14.6,43-17.3c6.3,0,12.6-1.1,18.8-2.1c0.1,0.4,0.1,0.8,0.2,1.3c1.4-0.1,2.4-0.3,3.1-1.4c1.9,0.9,3.5,2.3,5.6,2.7   c-0.3,0.5-0.6,0.9-0.9,1.4c-0.8,0.1-1.2,0.4-0.6,1.5c0.8-0.5,1.4-1.5,2.4-1.4c-0.1,1.6,0.2,3.2-1.3,4.7c-1.3,0.3-3-0.3-4.4,0.8   c-0.1-0.2-0.2-0.3-0.4-0.5C590.2,356.1,590,356.3,589.9,356.5z M551.8,356.6c0.4-0.1,0.8-0.3,1.2-0.4c-0.9-1.9-3.5,0.2-4.2,1.6   C550.2,357.7,551,357.2,551.8,356.6z M569.6,361.9c-0.9,0.3-2.1-0.2-2.7,1c0.6,2.9,5.7-1.2,7-2.3   C572,360.6,570.8,361.2,569.6,361.9z M563.5,352.9c-2.1,0.5-4.1,1.2-6,2.5c6.8-0.6,14.5-3.5,21.9-3.5c0.7,0,1.2-0.6,0.6-1.7   C574.5,349.8,568.6,351.2,563.5,352.9z M544,360.3c-1.2-0.9-3.1,0.1-2.1,1.1C542.5,361.1,543.2,360.7,544,360.3z" />
	<path fill="#8F8580" d="M301.3,410.9c-3-0.5-6.1-1-9-1.5c-1.3-2.5-0.2-5.1-1-7.4c-0.9-2.5,1.3-4.7,0.1-7c3.4-3.6,8.4-1.7,12.8-2.2   c-1.3,1-2.9,0.6-4.6,0.7c0.8,1,2.1,0.1,2.5,1.3c-1.1,0.9-2.1,0.6-3.5,0.5c0.5,1.3,5.4,1.2,6.3,0.2c1.4,0,2.7,0,4.1,0   c-0.3,0.4-0.7,0.8-1.2,1.4c1,0,1.7-0.1,2.5-0.1c0.4,1.2,1.6,0.4,2.4,0.3c0.9,1.3,2.8,1.8,3.9,0.6c3,1.1,7-1.2,9.8,0.6   c-2.2,0.1-4.4,0.2-6.6,0.2c0,0.2,0,0.3,0,0.5c5.7,0.2,7.5,2.5,12.2,0.8c3.6,3.8,8.7,5.6,13.7,5.9c30.9-1.7,61.5,1,92.3,3.3   c-4.4,4.8-29.4,4.7-37.1,5.1c-0.3-1-0.6-1.9-1-3.4c-0.2,1.4-0.3,2.3-0.4,3.3c-31.6,3.8-64.7,2.5-96-2.5c0-0.2-0.1-0.4-0.1-0.6   c0.2-0.2,0.6-0.6,0.6-0.7c-1-1.8-0.1-4-0.9-5.7c-0.2,2.2-1,4.4,0.3,6.5C302.7,410.9,302,410.9,301.3,410.9z M315.9,409.3   c0.8-0.8,0.8-0.8,0.3-2.3C316.1,407.9,315.3,408.5,315.9,409.3z M413.3,408.7c-0.4,1-0.6,1.1-0.2,1.8   C413.8,410,413.4,409.7,413.3,408.7z" />
	<path fill="#A39893" d="M364.8,449.9c1-0.3,2-0.5,3-0.8c1.9,46.8-0.6,94.3,0.6,141.2c0.8,4.7-9.8,6.6-11.3,2.4   c-0.3-47.5,6.3-94.2,5.7-141.6C363.6,450.6,364.2,450.3,364.8,449.9z" />
	<path fill="#A39893" d="M288.2,551c-1.6,6.1-3.2,12.2-4.7,18.4c-1.5,3.8,0.7,9.7-4.7,11.6c-0.1-0.7-0.1-1.2-0.2-2   c-0.8,0-1.7,0-2.5,0c0-0.8-0.7-0.7-1.3-0.7c0.2-7.4,0.5-15.9,3.6-22.5c1.1-0.1,2.1,1.5,3.3,0.4c-0.5-1.2-1.8-0.8-2.9-1.6   c-0.2,0-0.4,0-0.6,0c7-38.2,12.3-77.4,21.7-114.8c2.2,0.4,4.4,0.2,6.1,1.8c-0.3,3-1.6,5.9-1.5,9c-1.2,2.2-0.8,5.2-1.3,7.7   c-1.3,1.3-0.4,2.9-0.6,5c0.5-0.9,0.7-1.4,0.9-1.8c0.2,0.1,0.3,0.3,0.5,0.4c-6.8,27.1-9.5,54.9-14.7,82.2c-1.2,1-1.4,2.5-1.6,3.9   c-2.3,0.4-4.4,0.8-6.5,1.2c1.8,0.9,3.7,0.3,5.6,0.1c-0.1,0.7-0.2,1.3-0.4,2.3c0.6-0.5,0.9-0.8,1.2-1   C287.9,550.7,288.1,550.8,288.2,551z M299.3,447.7c2.2,1.8,2.2,1.8,4.3,0.2C302,448.1,300.8,446.4,299.3,447.7z" />
	<path fill="#5876E8" d="M408,314.6c0.3,0.7,0.7,0.3,1.1,0.1c2.1-1.2,4.6-1.1,6.7-0.1c4.1-0.8,7.2,1.9,11.1,1.4   c0.2,0.2,0.4,0.4,0.6,0.6c-5.8,12.2-13.3,24-23.6,32.9c-2.8-0.4-5.7,1.8-8.2-0.2c0.8-1.2,1.8-2.2,0.9-3.7   c-2.5,7.2-12.5,2.7-18.5,3.9c-0.9-0.7-1.5-1.5-1.4-2.7c1.6-1.6,3.2-3.2,4.2-5.2c-2.4-0.7-4.1,3-5.8,4.4c-3-1-6-4-8.2-6.3   c7.1-2.2,13.6-5.5,17.9-11.4c-2.1-7.4,2.5-13.3,6.3-19.1c4.4-2.2,10.1-2.1,15.2-2c1.6,5.3-6.5,7.1-8.6,11.6   c-3.9,5.6-13.6,8.2-13.3,16c1.3,1.6,2.8,2.9,4.8,2.3c2-1,5.1,0.4,6.2-1.9c0.7-0.5,1.5-0.9,2.6-1.6c-0.3,2.2-2,3.5-0.8,5.4   c1.2-3.8,2.8-7.5,6.4-9.5c0.4-5.5,5.5-7.4,6.2-12.3c-0.2-0.1-0.3-0.1-0.5-0.2c-0.5,0.7-1,1.4-1.5,2.1c-0.7-1.2-2-1.9-1.9,0.1   c0,0,0,0,0,0c-1.5,1-2.1,2.6-3,4.2c-1.7-0.5-3.6-0.6-4.8-2.1c2.3-3.4,4.7-6.6,8.6-8.4C407.3,313.3,407.6,313.9,408,314.6z    M411.5,323.7c-1.9,2.8-3.4,5.9-3.7,8.1c1.9-4.4,8.7-11.9,7.3-16.4C413.9,318.3,412.7,321,411.5,323.7z M401.2,308.5   c-3.6,0.7-5.1,4.4-6,7.8c1.6-1.2,1.9-2.6,3-3.9C398.9,311,402.5,310,401.2,308.5z" />
	<path fill="#EECABA" d="M517.5,502.3c3.2-18.2,4.3-37.7,2.7-55.8c-5.3-23.9-9.6-57.4,19.5-66.5c0.2,0.2,0.5,0.5,0.7,0.7   c-17.5,24-17.2,54.9-15.2,83.2c1,25.9-3.1,51.7-7.8,77c-1.9-1.8-3.7-3.4-5.7-5.2c4.1-10.2,4.7-22,5.7-33   C517.7,502.7,517.7,502.5,517.5,502.3z" />
	<path fill="#8F8580" d="M364.8,449.9c-0.6,0.3-1.1,0.7-1.9,1.2c0.5,47.4-6,94.1-5.7,141.6c0.5,0.6,0.9,1.1,1.3,1.6   c-1.1-0.1-2.2-0.2-3.3-0.2c1.1-2.1,1.9-4.3,1.2-6.6c-1.1-1.8,0.5-5.7-1.7-6.2c-1.5,3.8,2.3,8.3-0.9,11.4l0,0   c-0.5-0.9-1.4-0.5-2.1-0.6c-2.3-46.8,3.6-94.7,5.6-141.7C359.8,450.5,362.2,450.4,364.8,449.9z M355.6,560.3   c-1.6,1.9-1.4,2.9-1,4.9c1.5,2.8-1.9,6,0.9,8.3C357,568.8,355.7,565.6,355.6,560.3z M356.3,547.2c-1.4,4.4-2.4,5.6,0,8.1   C356.5,552.5,356.5,550.3,356.3,547.2z M356.7,538.7c0.5-2,0.6-3.3,0-4.7C356.4,535.4,356.3,536.7,356.7,538.7z" />
	<path fill="#A39893" d="M426.1,438.7c4.2,45,12.7,89.8,17.3,134.7c-1.2,1.6-2.8,1.4-4.5,1.1c-9.2-44-15.7-88.8-17-133.7   C423.2,439.9,424.3,438.3,426.1,438.7z" />
	<path fill="#8F8580" d="M278.5,555.7c-3.4,7.2-3.1,16.3-3.9,24.2c-2.6-0.6-3.4-1.7-4.5-5.6c10-53.3,21-107.4,31.6-160.8   c3.9-0.1,7.4,1.1,11.3,1.6c-1.3,15.6-4.6,31.7-8.9,46.7c-0.2-0.1-0.3-0.3-0.5-0.4c-0.2,0.4-0.5,0.9-0.9,1.8c0.2-2.1-0.6-3.7,0.6-5   c0.1,0.2,0.3,0.4,0.5,0.2c0.8-7.9,5.7-16.8,3.7-24.5c-1.6,2.1,0.1,5.3-1.4,7.6c-1.7-1.5-4-1.3-6.1-1.8   C290.9,477.6,284.6,517.1,278.5,555.7z" />
	<path fill="#8E8480" d="M368.2,448.2c-6.5,1.1-6.5,1.1-11-0.1c0.2-9.7,0-19.4-1.1-28.9c4.2-1,8.3,0.4,12.8-0.1   C369.2,428.9,369.1,438.4,368.2,448.2z" />
	<path fill="#8E8480" d="M421.9,440.8c0,35.9,7,71.2,11.2,106.7c-3.6-0.4-2.5-6.2-4.1-8.5c-4.8-32.1-8.1-64.4-11.2-96.7   C419.2,441.8,420.6,441.3,421.9,440.8z" />
	<path fill="#8E847F" d="M426.1,438.7c-1.5-0.4-2.3,0.8-3.4,1.4c-0.2-0.2-0.4-0.5-0.5-0.6c-1.5,0.4-2.9,0.8-4.3,1.1   c-0.6-7.9-1.8-15.8-3.8-23.8c3.3-0.4,6.4-0.8,9.7-1.2C425.6,423.3,425.7,431,426.1,438.7z" />
	<path fill="#EAC7B7" d="M599,328.6c-5.3-8-14.7-11.6-22.1-17.4c0-1.3,0-2.4,0-3.8c1.8-0.4,3.5-1.4,5.4-1.1c0.7,1.9,0.3,5,3,5   c-0.6,0.9-1.1,1.9-2,3.2c2.5,0.4,2.4-0.9,3.3-2.5c0.2-0.1,0.4-0.1,0.6-0.2c2.5,5.3,10.1,6.7,13.1,11.9c0.7,1.3,1.8,2.4,3.6,2.1   c-0.3,0.7-1.6,0.9-1,2.2c0.6-0.2,1.2-0.5,1.7-0.7c0.8,1.2,0.8,2.7,0.6,4C602.7,332,601,329.9,599,328.6z M580.8,311.9   c0-0.7-0.1-1-0.1-1.3C579.8,310.6,580.1,311.3,580.8,311.9z" />
	<path fill="#110F0E" d="M599,328.6c2,1.3,3.7,3.4,6.2,2.7c0.5,0.2,0.9,0.4,1.4,0.7c-0.6,0.9-2.1,1.2-2.7,1.6   c0.4,4.6-0.3,8.6-0.7,13.2c-0.1,3.3-2.7,6.4-1.5,9.8c-0.3,1.7-0.2,3.4,0,5.1c0.8,0.9,1.3,1.9,2.5,2.2c1.1-2.9,2.8-5.5,2.3-8.7   c0.5-4.3,3.7-7.7,4.1-12c0.5-2.9-1-6.6,2.2-8.2c0.4,12.3-6.2,23-7,34.9c-1.3-0.5-0.1-2.3-1.5-2.8c0-0.4,0-0.8,0-1.2   c-11.1-4.6,0.1-23.4-2.8-33.1c-1-0.8-2.2-1.8-3.4-2.6c-0.1-0.2-0.1-0.4-0.2-0.6C598.5,329.1,598.7,328.9,599,328.6z" />
	<path fill="#A29792" d="M302,394.8c-0.4-1.2-1.8-0.2-2.5-1.3c8.8-1.3,17.9-3,26.9-2.2c1.4,2.3,2.7,4.7,4.1,7   c-1.2,1.1-2.7,0.1-4.1-0.1c-2.8-1.9-6.7,0.5-9.8-0.6c-1.7-2.5-5,1.1-6.4-0.8c0.1-2.4-3.9-0.8-5.4-1.3   C304.2,394.2,303,395,302,394.8z" />
	<path fill="#8D837F" d="M432.3,547.5c0.3,0,0.5,0,0.8,0c1.9,9,3.9,17.8,5.8,27c0.7,0.1,1.3,0.2,2,0.3c-1.3,1-2.9,0.5-4.4,0.7   c-0.2-0.5-0.3-0.9-0.4-1.1c-1.4-0.3-2.7-0.7-3.9-1c-2.3-8.8-1.7-18.2-3.2-27.1c2,0.8,0.8,3.6,2.6,4.8c1.6,5.7,0.2,12.6,2.8,17.9   c1.6-0.5,0.1-5.1-0.5-6.1C433.9,557.5,432.6,552.4,432.3,547.5z" />
	<path d="M330.5,398.3c-1.4-2.3-2.7-4.7-4.1-7c0.4-2.1,1.6-1.3,2.8-0.7c2.4,5.9,3.9,9,10.4,10.5c0.8,1.8,0.8,1.8-0.9,2.9   C335.2,403.2,333.1,400.3,330.5,398.3z" />
	<path fill="#080B14" d="M413.5,339.6c5.1-7.4,10.4-14.7,14-23c0.1,0.6,0,1.3,0.8,1.6c-3,8.3-8.2,15.7-14,22.3   C414,340.2,413.8,339.9,413.5,339.6z" />
	<path fill="#11172C" d="M459.6,394.1c-5.9,4.8-13.4,8.5-21,9.9c-0.8,0.1-1.6,0.2-1.8,1.2c-1,0-2.2,0.6-2.9-0.6   c0.6-0.1,1.1-0.1,1.8-0.2c-0.8-0.5-1.5-0.8-2.3-1.3c8.9-0.9,18.1-4,25.6-9.7C459.1,393.6,459.3,393.8,459.6,394.1z" />
	<path fill="#1E2647" d="M426.1,334.8c4.9-5.9,11-11.3,14.7-18c0.4-1.1,0.9,0,1.4-0.1c-3.2,7.6-10.2,13.3-16,19   C426.1,335.4,426.1,335.1,426.1,334.8z" />
	<path fill="#1C2444" d="M438.6,393.3c-4.7,3.4-9.7,6.1-14.7,9c-0.2-0.2-0.4-0.4-0.7-0.6c4.6-3.5,9.7-6.1,14.7-9   C438.2,392.9,438.4,393.1,438.6,393.3z" />
	<path fill="#DDDDDD" d="M515.2,399.5c1.3-3.4-0.1-10.1,4.5-10.4c-1.1,3.6-2.2,8-3.7,11.8C515.7,400.5,515.4,400,515.2,399.5z" />
	<path fill="#1E1D1C" d="M353.7,592.7c3.3-3.2-0.5-7.6,0.9-11.4c2.2,0.5,0.6,4.4,1.7,6.2c0.7,2.3-0.1,4.5-1.2,6.6   C354.3,594,353.8,593.5,353.7,592.7z" />
	<path fill="#282A30" d="M426.8,316c-1.8,0.1-3.7,0.4-5.3-1c-2.2-1-5.2,0.5-7.3-1c4.6-0.3,9.2-1.6,13.4,1.3   C427.4,315.5,427.1,315.7,426.8,316z" />
	<path fill="#384C94" d="M516.1,381.6c-0.1-0.2-0.3-0.3-0.6-0.6c-2.5,2.4-4.4,5.3-7.2,7.5c-0.2-0.2-0.5-0.5-0.7-0.7   c2.7-3.3,6.5-5.8,8.4-9.6c0.2-0.7,0.8-0.8,1.4-0.8C517.1,378.8,517,380.3,516.1,381.6z" />
	<path fill="#241E1C" d="M378,187c-0.3-0.6-0.6-1.2-1-1.9c-2.1-1.3-4.3-2.7-6.6-4.1c0-0.5,0.3-0.6,0.9-0.5c2.5,0.5,5,0.9,6.4,3.5   c0.3,0.5,1.1,0.6,1.6,0.9C378.1,185.2,378.1,185.2,378,187z" />
	<path fill="#242527" d="M397.6,268.6c-3.7,1.5-5,5.7-7.9,8.3c-0.3,0-0.6-0.1-0.8-0.1c1.4-3.5,3.7-6.5,6.5-8.9   C395.9,269,396.9,268.3,397.6,268.6z" />
	<path d="M381,403.8c0.2-0.1,0.4-0.1,0.5,0c-6,2-13.9,0.3-20.6,0.6C367,402.9,374.5,404.3,381,403.8z" />
	<path fill="#211F1E" d="M431.6,551c-1.8-1.2-0.6-4-2.6-4.8c-0.5-1.6,0.5-2.9,0.7-4.4c1,1.8,0.9,4.5,2.7,5.6c0,1.2,0.1,2.3,0.1,3.5   C432.2,551,431.9,551,431.6,551z" />
	<path fill="#292320" d="M445.1,247.6c-0.9-1.8-2-3.6-1.3-6.1c2.2,1.9,2,5.3,4.1,7.5c-0.8,0.6-1.4,0.8-2.3,0.2   C446.4,248.3,445.6,248,445.1,247.6z" />
	<path fill="#2E2B2C" d="M369,212.2c2.8,0.9,5.7,1.8,8.5,2.7c-0.3,0.2-0.5,0.5-0.8,0.7c-3.4-0.7-6.7-1.5-9.9-2.6   C367.4,212.6,368.5,213.2,369,212.2z" />
	<path fill="#6B5C56" d="M553.9,371.2c-2.1,1.4-4.3,2.7-6.4,4.1c0-0.5,0-1,0-1.5c1.9-1,3.8-2.1,5.6-3.3   C553.3,370.7,553.6,371,553.9,371.2z" />
	<path fill="#C5AEA5" d="M582.3,306.3c-0.5,0-1,0-1.5,0c-1.9-2.1-4.9,0.6-7-1.3c3.2,0,6.4-0.3,9.5,0.1   C583.7,306.2,582.9,306.2,582.3,306.3z" />
	<path fill="#1A213D" d="M540.5,311c-0.6,0-1.1,0.1-2,0.2c-1.1,1.3-2.3,2.7-3.6,4.1c-0.2-0.2-0.5-0.5-0.7-0.7c0.9-1.3,1.7-2.7,2.6-4   C538.1,310.4,539.3,310.2,540.5,311z" />
	<path fill="#5B5B5B" d="M515.2,403.8c-0.5,2.6-1,5.3-1.5,8c-0.7-3.4-0.5-5.4,1-7.9C514.8,403.8,515,403.8,515.2,403.8z" />
	<path fill="#7A685F" d="M449,249.9c2.2,0.8,4.9,1.8,5.7,4.1l0,0c-2.1-0.9-3.8-3-6.2-2.7C448.7,250.8,448.9,250.3,449,249.9z" />
	<path fill="#2A2C30" d="M377.4,233.8c-0.6,1.6-2.1,2.4-3.3,3.6c0.1-1.9,0.1-1.9,2.6-5C376.7,232.9,376.6,233.6,377.4,233.8z" />
	<path fill="#C1A497" d="M392.5,215.5c-1.3,0-2.3,0-3.5,0c0.4-1,0.8-1.9,1.2-2.7C391.7,213.1,391.7,214.4,392.5,215.5z" />
	<path fill="#242E54" d="M405.2,401.7c-1.4,0.4-2.8,0.5-4,1.3c-0.8-0.2-1.5-0.5-2.3-0.7c1.8-0.9,3.6-1.3,5.6-1.4   C404.7,401.2,404.9,401.5,405.2,401.7z" />
	<path fill="#191817" d="M417.9,440.6c1.4-0.4,2.8-0.7,4.3-1.1c0.1,0.1,0.3,0.4,0.5,0.6c-1.3,1.3-3.2,1.5-4.8,2.2   C417.9,441.7,417.9,441.2,417.9,440.6z" />
	<path d="M357.8,405.3c-0.9,0-1.9,0-2.8,0C354.7,403.4,358.1,403.4,357.8,405.3z" />
	<path fill="#878787" d="M515.2,403.8c-0.2,0-0.3,0-0.5,0.1c0-1.5-0.4-3,0.5-4.3c0.2,0.5,0.5,0.9,0.7,1.4   C515.7,401.9,515.4,402.8,515.2,403.8z" />
	<path fill="#211F1E" d="M429,548c1,1.3,0.6,2.8,0.6,4.3C428.5,551.2,429.1,549.5,429,548z" />
	<path fill="#8A7B74" d="M540.4,380.8c-0.2-0.2-0.5-0.5-0.7-0.7c0.6-0.5,1.1-0.9,1.9-1.6C541.3,379.9,541.3,379.9,540.4,380.8z" />
	<path fill="#55504D" d="M301.3,410.9c0.7,0,1.4,0,2.2,0l0,0c0,0.2,0,0.4,0.1,0.6C302.7,411.5,301.9,411.7,301.3,410.9z" />
	<path fill="#211F1E" d="M429,539c0.7,0.6,0.7,1.4,0.6,2.2C428.6,540.7,428.9,539.8,429,539z" />
	<path fill="#1E1D1C" d="M351.5,592.1c0.7,0.1,1.6-0.3,2.1,0.6C352.9,592.7,352,593.1,351.5,592.1z" />
	<path fill="#897972" d="M445.1,247.6c0.5,0.4,1.4,0.7,0.6,1.5c-0.2-0.2-0.5-0.4-0.7-0.6C445,248.2,445,247.9,445.1,247.6z" />
	<path fill="#EAC7B7" d="M598.2,329.3c0.1,0.2,0.1,0.4,0.2,0.6c-0.7,0-1.3,0-1.3-0.9C597.4,329.1,597.8,329.2,598.2,329.3z" />
	<path fill="#1E2647" d="M439.5,316.8c-0.4,0.5-0.9,0.6-1.6,0.5C438.3,316.6,438.9,316.6,439.5,316.8z" />
	<path fill="#8F8580" d="M394.4,404.8c0.3,0,0.5,0,0.8,0c0,0.1,0,0.1,0,0.2c-0.3,0-0.5,0-0.8,0C394.4,404.9,394.4,404.9,394.4,404.8   z" />
	<polygon points="341.4,404.3 341.3,404.1 341.5,404.2  " />
	<path fill="#6B5C56" d="M546,374.5c0.3-0.2,0.6-0.3,0.8-0.5C546.5,374.1,546.2,374.3,546,374.5z" />
	<path fill="#B7BDD5" d="M343.1,140.3c-8.7,11.3-10.4,26.4-13.7,40.1c1.4,4.9,12,21.1,9.3,23.8c-1.8-1.2-3.7-2.4-5.6-3.4   c-0.6,17.9,6.7,35.8,1.1,53.3c1.2,11,3.9,21.8,3.3,32.8c-2.1,8.6,1.9,28.1,5.6,36.1c-10.1,6-17.7,14.7-24.1,24.5   c-20.7-65.4-22.1-142.6,11.7-203.6C335.5,144.7,338.9,141.5,343.1,140.3z M327.7,157.7c-1.1,2.4-1.8,5-2.3,7.5   c1.1-0.6,7.5-12.6,3.4-11.3C328.5,155.1,328.1,156.4,327.7,157.7z M326.1,177.7c0.3-3.9,2.5-7.6-0.1-10.7   C324.1,170.1,323.5,174.8,326.1,177.7z M322,211.3c0.3-1.3-2-4.3-3.4-4.9C318.2,208.5,318.8,209.4,322,211.3z M325.6,330.8   c-0.3-3.3-1-4.5-3.4-6.2C323.1,326.8,323.4,329,325.6,330.8z M318.7,314.4c0.7-1.7,0.3-3.1-1.3-5   C317.3,311.3,318,312.8,318.7,314.4z M326.7,186.6c1.1-1.1,1.2-1.3,0.1-4.1C324.4,182.4,326.4,185.5,326.7,186.6z M320.3,319.7   c0.9-1.3,0.6-2.1-0.5-2.6C319.4,317.9,319.2,318.7,320.3,319.7z M329.1,191.1c0.3-1.2,0-1.9-1-2.5   C327.6,189.7,327.8,190.5,329.1,191.1z M330.7,194.8c-0.1-0.9-0.1-1.4-0.2-2.1C329.4,193.2,329.2,193.7,330.7,194.8z" />
	<path fill="#FBDFD3" d="M422.8,34.5c0.7,0,1.4,0,2,0c2.6,2.7,5.4,5.2,5.5,9.5c0,4.8,6,9.6,1.6,13.9c-4.3,4.2,1.3,10.2,3.2,14.1   c0.2,0.3,0.4,0.5,0.6,0.8l0,0c0,0.8,0.1,1.5,0.8,2c0,0,0,0,0,0c0.2,0.5,0.4,1,0.7,1.4c0,0,0,0,0,0c-0.1,0.8,0,1.5,0.8,2   c0.5,5-4.9,3.5-8.3,3.7c-0.4-0.4-0.9-1.1-1.5-1.8c-3.8,3.7,1.6,6.1,4.8,4.3c1.2,7.2-2.8,5.7-6.9,8.5l0,0c-1.3,0.1-1.3,0.1-1.4,1.4   c0,0,0,0,0,0c-0.2,0.3-0.4,0.5-0.7,0.8c0.2,0.1,0.5,0.3,0.7,0.4l0,0c1.2,1.8,4.1,1,5.2-0.5c0.8,0.2,1.1,0.3,1.8,0.5l0,0   c-0.7,0.9-0.9,1.9-0.1,2.9c-4.8,4.3,2.5,10.9-2.9,14.4c-6.2,1.4-16.5,3.8-22-0.1c-0.1-0.7-0.3-1-0.2-1.6c-0.2-0.3-0.5-0.5-0.7-0.8   c-2.7,0.4-5.3,0.7-7-1.8c-3.7-1.8-7.7-3.7-11.2-6.4l0,0c-0.7-1.1-1.8-0.8-2.9-0.8c-3.4-2.7-5.5-6-5.2-10.4c0.6-0.7,1.1-1.3,1.6-2.1   c-0.8-0.3-1.4-0.5-1.9-0.7c-0.6-0.5-0.4-1.5-1.4-1.6c-0.7,0.6-1.5,1.2-2.3,1.9c-3.9-1.1-6.8-3.7-9-6.6c0.1-0.9-0.6-1.2-1.2-1.6   c0.5-0.4,1-0.8,1.6-1.1c3.2,1.2,9.4,4.7,11-0.4c-0.7-2.1-2.3-2.5-4.2-2.6c-0.5-0.8-1-1.5-1.5-2.3c0.5-0.9,1-1.7,1.4-2.4   c0.9,0,1.7,0.9,2.5-0.1c-0.9-2.1-3.1-3.4-4.6-5.1c0.5-0.9,1.3-0.4,2-0.6c1.1,0.8,2.4,1.4,3.6,2c1.5,3.4,2.5,8.4,5.5,10.3   c1.4-0.7,0.1-2.2,1.2-3.2c1.9,0.1,2.8,2.1,4.9,1.9C378.4,60.5,404,50.9,410.5,39c3.4,0.9,6.4,1.2,9.5-1l0,0   c0.2-0.2,0.5-0.3,0.9-0.5c-0.5-0.5-0.9-0.9-1.3-1.3c0.1-0.3,0.3-0.6,0.4-0.9c0,0-0.1,0-0.1,0C421,35.2,422,35.3,422.8,34.5   L422.8,34.5z M428,54.7c-2.3-4.6-20.6-2.8-21.5,2.7c1.9,0.1,3.6,0.6,5.3-0.7c4.5-3.4,10.3,1,15.2-0.2C427.3,56,427.6,55.4,428,54.7   z M424.8,63c-0.4-0.9-0.6-1.4-0.8-1.9c0.2-0.8,0.8-1.3,0.4-2.1c-4,0.1-7.6,1.4-10.8,4c0.8,2.3,2.8,0.7,4.1,0.6   c1.2,0.4,2.2,0.8,3.3,1.1C422.3,64.2,423.4,63.7,424.8,63z M394.8,82.3c-0.5-1.7-1.6-2.6-3.3-3.2c-0.3,0.3-0.7,0.7-1.1,1.2   C391.7,81.6,392.8,82.6,394.8,82.3z M395.5,82.6c0.2,2,1.7,2.8,3.4,2.7C399.2,83,397.2,82.6,395.5,82.6z" />
	<path fill="#EECABA" d="M406.5,111.6c0.1,0.3,0.1,0.7,0.2,1.2c2,0.9,3.8,2.4,6.2,2.5c-4.2,2.3-6.2,5.6-7.3,10.2   c-6.1-0.2-11.4-3.9-17.8-4.1c-0.6-1.1-1.1-2.2-1.5-3.3c0,0,0,0,0,0c0-1.4-0.7-2.3-2-2.7c-3.2-6-7.1-12-10.4-18.2   c-1.8,0.4-3.5,0.7-5.2,1c-1,2.2-1.5,4.8-2.6,6.6c-0.2-0.8-0.7-3-1.8-1.6c0.2,1,0.5,1.8,1.8,1.6c-1.3,2.2-2.7,4.4-4,6.5   c0.2,0.5,0.4,0.8,0.5,1.1c-0.6,0.1-1.4-0.1-1.5,0.8c-5.6,9.3-14.6,16.2-19.8,25.5c0.3,0.2,0.4,0.3,0.6,0.4c-3,1.4-6.3,2.4-9.5,3   c7.7-13.9,15.6-29.3,24.5-42.8c0.7,0.1,1.5,0.1,2.1,0.2c1.5-1,1.4-2.4,1.3-4c0.6-0.3,1.2-0.5,2.1-0.9c0.4-1.5,0.8-3.1,1.3-5.1   c1.2-1,2.7-2.3,3.1-4.3c0.4,0.2,1.1,0.3,1.1,0.5c1,4.1,5.3,4.5,8.8,5.8c-0.3,0.9-0.7,1.8-1,2.6c2.2,7.4,15.7,13.2,22.4,15.4   c-0.6-0.8-1-1.4-1.4-1.9c2.7,0.1,3.9,4.7,7.1,2.9C404.3,112.1,404.9,112.3,406.5,111.6z M382.9,109c0.7,2.3,0.7,2.3,2.6,3.2   c-0.8-1.6-0.9-2.9-1.8-3.9c0-0.2,0-0.4-0.1-0.6c0.2-0.6,0.1-1.2-0.6-1.5c-0.4-0.7-0.7-1.5-1.9-1.1C380.4,106.6,382,107.8,382.9,109   z M359.1,109.5c0.6,1,0.5,1.8,1.6,1.9C361.3,110.2,360.5,109.9,359.1,109.5z" />
	<path fill="#5876E7" d="M361.9,334.3c0.9-2,1.9-3.5,3.6-5.2c-0.1-0.3-0.2-0.7-0.4-1.3c-5.9,2.3-12.1,2.8-16.8,7.7   c-1.2-0.3-1.2-1.4-1.7-2l0,0c0.2-0.2,0.5-0.5,0.7-0.7c0.1-0.6,1.1-1,0.3-1.7c-2.8,1.7-4.3-3.2-4.5-5.3c5-3.7,10.2-7.1,15.4-10.3   c1.3,1.5,1.3,3.7,2,5.5c-2.8,2.9-8.1,4.5-10,7.6c10.1-4.6,20-13.4,31.4-15.6c1-3.1-4-1.3-5.6-0.9c-0.4-0.8-0.8-1.6-1.2-2.3   c1.2-1.1,2.4-1.3,3.6-0.7c0.3,0.8,0.7,1.2,1.7,1.1c-0.2-1-0.9-1.2-1.7-1.1c1.7-1.6,1.7-1.6,4.5-0.9c2.1-1.7,4.4-1.3,6.8-0.6   c-13.7,21.5-0.5,16.9-11.8,23.9c-0.2-0.1-0.4-0.3-0.7-0.6c2.5-2.4,6.5-8.4,0.7-9.3c-6.6,2.4-10.8,8.7-16,13.1   C362,334.6,361.9,334.4,361.9,334.3z" />
	<path fill="#050505" d="M339.4,140.2c11.3-5.5,19.5-16.3,31.9-20.1c0.6-0.2,1.8,0.3,1.9-1.1c-1.9-1.2-3.8-2.4-6.1-3.7   c4-0.4,8.4,0.1,9.7,4.4c0.6,0.2,1.2,0.3,1.8,0.4c-14.3,3-24.5,16.2-38.3,21C340.1,140.8,339.7,140.5,339.4,140.2z" />
	<path fill="#0F0D0C" d="M384.2,102.7c-3.9-1.8-7.2-4.2-8.5-8.7c0.3-0.8,0.6-1.7,1-2.6c-3.5-1.3-7.8-1.6-8.8-5.8   c-0.1-0.2-0.7-0.3-1.1-0.5c0.3-1.5-0.8-2.3-1.3-3.6c3.5,2.1,5.6,6,10.1,7c0.8-0.7,1.6-1.3,2.3-1.9c1.1,0.1,0.9,1,1.4,1.6   c0.5,0.2,1.1,0.4,1.9,0.7c-0.6,0.7-1.1,1.3-1.6,2.1c-0.4,4.4,1.7,7.7,5.2,10.4c0,0.2,0.1,0.4,0.2,0.6   C384.7,102.2,384.5,102.5,384.2,102.7z" />
	<path fill="#0A0D18" d="M408,314.6c-0.4-0.7-0.8-1.3-1.3-2.1c-7.3,4.8-13.3,12.4-15.4,21.1c1.1,0.6,2.6,0.2,3.3,1.3   c-14.2,3.7,6.1-22.4,11.1-23.7c0.6,0.4,1.3,0.8,2,1.3C407.9,313,408,313.8,408,314.6z" />
	<path fill="#222324" d="M388.9,276.9c0.3,0,0.6,0.1,0.8,0.1c-0.1,1.7-1.4,3-2.2,4.4c0.4,3.1,0.4,5.4-1.4,7.6c0.1,0.6,0.2,1.3,0.2,2   c-1.5,2.8-0.3,6.7-0.7,9.9c-1.2-3.9,0-8.2-1.3-12.1c0.5-1.4,2.1-2.1,1.8-3.7c-1.5-1-3.6-1.2-5.4-1.2c1.5-0.3,3.1-0.5,4.8-0.8   C384.9,280.2,387.2,278.6,388.9,276.9z" />
	<path fill="#363636" d="M431.7,34.3c-1.5,0-2.9,0-4.6,0c0.2-0.5,0.3-0.9,0.4-1.4c1.2,0.1,2.3-0.2,2.8-1.4c5.8,0,9.7-3.4,13.6-7   C443,31.5,436.3,31.2,431.7,34.3z" />
	<path fill="#303030" d="M416.6,19.6c-0.2-0.2-0.5-0.5-1-0.9c2.7-1.9,5.6-1.4,7.8-2.4c2,0.5,1,2.4,2.1,3.3c0.8-0.5,1.4-1,1.9-1.8   c1.5,1,0.7,2.3,1,3.7c-1,0.7-2,1.5-3.2,2.3C422.8,18.8,422.5,16.7,416.6,19.6z" />
	<path fill="#4963C0" d="M343.1,325.7c0,0.5,0,1,0.1,1.4c-0.4,0.1-0.8,0.2-1.2,0.4c0.9,1.8,1.4,3.7,3.2,4.6   c-1.2,1.3-2.6,2.5-4.1,3.5c0,0,0,0,0,0c-1.4-2-2.5-4.4-2-6.9C340.3,327.5,341.6,326.4,343.1,325.7z" />
	<path fill="#181F39" d="M383.6,326.5c-2.5-6.9,4.3-13,6.5-18.9c0.4,0.5,0.8,0.9,1.2,1.4C387.7,314.3,383.9,320.1,383.6,326.5z" />
	<path fill="#DDC5BA" d="M361.2,69.7c1.2-2.2,2.8-5.1,5-6.2c1.1,2.4-3.9,12.8-5.6,7.7l0,0C361.4,71,361.3,70.4,361.2,69.7z" />
	<path fill="#526ED9" d="M364,318.7c-0.9,0.5-1.8,1.1-2.8,1.6c0.1-2.1-1.1-3.8-1.4-5.7c0.7-0.4,1.4-0.9,2.1-1.3   c0.3,0.1,0.7,0.2,1,0.3C363.4,315.3,364.2,316.9,364,318.7z" />
	<path fill="#373737" d="M372.7,30.2c-1.8-0.4-3.3-0.7-4.9-1c0.2-1.5,1.4-2.4,1.6-3.8c0.6,0,0.9,0,1.4,0.1c0.1,1.6,1.2,2.5,2.5,3.4   C373,29.3,372.9,29.7,372.7,30.2z" />
	<path fill="#192243" d="M360.7,322.4c-3.4,1.8-6.7,5.2-10.2,6.1c1.8-2.8,6.5-4.5,9.3-6.9C360.2,321.8,360.4,322.1,360.7,322.4z" />
	<path fill="#303030" d="M412.2,31.6c2.2-0.8,3.9-0.9,6.4-1.3c0.4,0.2,1.1,0.5,1.8,0.9c0.1,0.4,0.1,0.8,0.2,1.1c-3-0.5-6.5,2.2-9,0   c0,0,0,0,0,0C411.7,32,412,31.8,412.2,31.6z" />
	<path fill="#303030" d="M396.1,47.3c1.2-3.8,4.4-4.6,7.1-6C405.2,42.4,397.1,47.9,396.1,47.3z" />
	<path fill="#4157AA" d="M364,318.7c0-0.4,0-0.9,0-1.3c1.4-1.2,0.7-3.4,0-4.9c0.4-0.2,0.8-0.4,1.3-0.7c1.2,1.2,2,2.5,2.8,4.3   C366.9,317.1,365.5,318,364,318.7z" />
	<path fill="#181818" d="M382.1,49.2c-0.3,1.9-0.3,1.9-2.1,2.6c-0.3-0.6-0.7-1.3-1.1-2.1c-0.8,0.1-1.7,0.2-2.6,0.2   c-0.6-0.6-0.4-1.1,1.3-2.4C379,48.1,380.6,48.7,382.1,49.2z" />
	<path fill="#C2ACA3" d="M360.5,71.2c0.1,0.6,0.1,1.3,0.9,1.6c-0.5,2.2,2.2,5.8,4.6,5.4c0,0.9-0.8,0.8-1.4,0.9   c-0.3,0.2-0.5,0.5-0.8,0.7C361.2,77.9,358.7,74.7,360.5,71.2z" />
	<path fill="#2F2F2F" d="M361.5,44.7c1.6,1.8,2.9,2.8,5.2,3.3c-0.1,1.1-0.8,1.6-1.6,2.1c-1.4-1.5-2.9-3-4.5-4.6   C360.9,45.3,361.2,45.1,361.5,44.7z" />
	<path fill="#353535" d="M379.5,33.2c-0.6-0.6-1-1-1.6-1.5c0.8-1,1.4-1.9,2.2-3c1.1,0.8,2.1,1.5,2.1,3.2   C381.3,32.2,380.5,32.7,379.5,33.2z" />
	<path fill="#36488D" d="M325.9,351.4c-1.2,0.7-0.8,1.5-1,3c-0.6-0.7-0.9-1-1.2-1.4c1.9-2-0.2-4.5-0.7-6.8c0.2-0.4,0.5-0.8,0.8-1.3   C325.5,346.2,325.1,349.4,325.9,351.4z" />
	<path fill="#2E2E2E" d="M408.9,35c-1.8,2.2-3.6,3.9-6,4.8C401.6,38.4,407.9,33.6,408.9,35z" />
	<path fill="#363636" d="M398.8,31.2c-0.6,0.6-1.1,1.2-1.8,1.9c-1.5-1.1-2.9-2.2-4.3-3.2C394.4,27,396.4,31.2,398.8,31.2z" />
	<path fill="#212121" d="M368.3,15.5c0.1-4.1,2.8-2.5,5.8-2.8C372,14.4,370.4,15.6,368.3,15.5L368.3,15.5z" />
	<path fill="#C0AAA1" d="M366.2,65.1c0-0.5-0.1-1.1-0.1-1.6c2.5-1.3,5.1,1,7.6,1.6c0,0.2,0.1,0.4,0.1,0.6c-0.7,0.2-1.6-0.4-2,0.6   c-1.3-0.8-2.6-1.6-4-2.5C367.2,64.3,366.7,64.7,366.2,65.1z" />
	<path fill="#272727" d="M406.7,33.1c-0.5,0.5-0.9,0.9-1.2,1.2c-1.4-0.3-0.8-1.6-1.5-2.2c-0.6-0.5-1-1.2-1.5-1.8   C404.4,27.9,405.4,31.6,406.7,33.1z" />
	<path fill="#343231" d="M373.8,65.7c0-0.2-0.1-0.4-0.1-0.6c1.3-0.3-0.4-1.5,0.8-2.1c1.2,0.3,1.8,1.4,2.8,2.3c0,0.8,0.1,1.6,0.1,2.4   C376.2,67.1,374.9,66.6,373.8,65.7z" />
	<path fill="#383838" d="M353.5,47.6c0.5,0.5,0.9,1,1.4,1.5c-0.8,0.9-1.6,1.7-2.4,2.7c-0.6-0.3-1-0.5-1.4-0.8   C351.3,49.6,352,48.6,353.5,47.6z" />
	<path fill="#282828" d="M409.9,13.5c0,1.6-0.9,2.2-1.9,2.7c-1-0.4-1.6-1.1-2.1-2.3C407.3,13.1,408.6,13.6,409.9,13.5z" />
	<path fill="#101010" d="M420,35.2c-0.1,0.3-0.3,0.6-0.4,0.9c0.4,0.4,0.8,0.8,1.3,1.3c-0.4,0.2-0.6,0.4-0.9,0.5   c-1.3-1.2-4.3-0.9-3.6-3.6C417.6,34.6,418.8,34.9,420,35.2z" />
	<path fill="#2C3B74" d="M359.9,314.6c0.3,2,1.5,3.7,1.4,5.7c-0.2,0.2-0.5,0.4-0.7,0.5c-0.7-1.8-0.7-4-2-5.5   C358.8,314.7,359.3,314.6,359.9,314.6z" />
	<path fill="#282828" d="M353.3,67.9c0.5,1.4,0.7,2.7-0.6,3.9C351,69.8,351.1,69,353.3,67.9z" />
	<path fill="#2F2F2F" d="M432.7,19.2c-0.4-2,1.3-2.3,1.2-3.9c0.9,0.6,1.4,0.9,2,1.3C435.5,18.3,434.1,18.4,432.7,19.2z" />
	<path fill="#1F1F1F" d="M416.4,34.3c0,0.5,0,0.9,0,1.4c-1.3,0.6-2.7,1.4-4-0.3C413.4,33.7,415,34.6,416.4,34.3z" />
	<path fill="#363636" d="M366.1,59.9c1.5-1.1,1.5-1.1,3.3-0.9c0.1,0.7,0.1,1.4,0.2,2.3C368.1,61.5,367.4,60.7,366.1,59.9z" />
	<path fill="#10162A" d="M364.1,312.5c0.7,1.5,1.4,3.6,0,4.9c-0.4-1.3-0.7-2.6-1.1-3.9c-0.3-0.1-0.6-0.2-1-0.3   C362.4,312.2,363.3,312.6,364.1,312.5z" />
	<path fill="#0C101F" d="M369.6,310.4c0.8-0.2,1.5-0.4,2.3-0.6c-0.2,1.4,0.8,2.3,1.2,3.4c-0.5,0.4-1,0.9-1.5,1.3   c0.1-1.5-0.5-2.7-1.9-3.5C369.7,310.9,369.7,310.6,369.6,310.4z" />
	<path fill="#151515" d="M424,26.8c-1.2,1.4-1.8,2.9-3.8,2.6C418.7,26.9,422.3,27.3,424,26.8z" />
	<path fill="#303030" d="M359.1,31.7c-1.2-1.9-0.1-2.9,0.5-4C361.8,27.9,360.3,30.6,359.1,31.7z" />
	<path fill="#2C2C2C" d="M354,30.2c0.5,0,0.9,0.1,1.6,0.1c-0.3,1.4-0.6,2.5-1.7,3.2C351.9,33.3,353.6,31.2,354,30.2z" />
	<path fill="#323232" d="M358.2,72.2c0.5,1.4,1.3,2.7,0.9,4.4C357.1,76,356.1,73.4,358.2,72.2z" />
	<path fill="#222222" d="M358.2,63.7c0.5,0,1,0.1,1.6,0.1c-0.3,1.4-0.6,2.5-1.7,3.1C356.1,66.7,357.8,64.7,358.2,63.7z" />
	<path fill="#313131" d="M349.1,55.5c0.5,0,1,0,1.5,0c0.5,1.5-0.3,2.2-1,3.2C348.8,57.5,348.8,57.5,349.1,55.5z" />
	<path fill="#232323" d="M381.9,54.7c0.4,0.4,0.7,0.8,1.2,1.3c-0.8,0.9-1.6,1.7-2.4,2.6C380.1,57,380.1,57,381.9,54.7z" />
	<path fill="#2B2B2B" d="M361.1,56.6c-0.5-1.6-0.5-1.6-0.1-3.2C363.2,53.2,363.1,56.5,361.1,56.6z" />
	<path fill="#141414" d="M364,32.3c-1.2-2-0.2-3,1.2-4.1C365.8,29.9,365.2,31,364,32.3z" />
	<path fill="#181818" d="M388.8,55.3c0.3,2.6,0.3,2.6-1.3,3.2C387,56.5,387,56.5,388.8,55.3z" />
	<path fill="#212C56" d="M339.1,328.6c-0.4,1.7,0.2,3.2,0.7,4.8c-0.3,0.3-0.5,0.5-0.8,0.8c-0.5-1.4-1-2.7-1.5-4.1   C338,329.6,338.5,329.1,339.1,328.6z" />
	<path fill="#2D2D2D" d="M385.8,49c-1.9-1.3,0.4-3.6,1.9-2.5C387.7,47.9,386.7,48.3,385.8,49z" />
	<path fill="#4962BF" d="M373.1,313.2c-0.4-1.1-1.4-2.1-1.2-3.4c1.7,0,2.1,1.4,2.8,2.7c-0.4,0.3-0.6,0.6-0.8,0.8   C373.6,313.3,373.4,313.3,373.1,313.2L373.1,313.2z" />
	<path fill="#2D2D2D" d="M394,51.6c-0.4,1.3-1.2,1.8-2,2.3C390.1,52.6,392.5,50.1,394,51.6z" />
	<path fill="#1D284E" d="M330.6,336.9c0.4,1.6,1.2,3.2,0.6,5.2c-0.9-1.4-1.3-2.8-1.2-4.3C330.1,337.5,330.3,337.2,330.6,336.9z" />
	<path fill="#2F2F2F" d="M362.1,22.9c0.2-1.7,0.2-1.7,1.7-2.4c0.1,0.8,0.2,1.5,0.3,2.4C363.3,22.9,362.7,22.9,362.1,22.9z" />
	<path fill="#282828" d="M382.6,69.8c0.7-1.3,1.2-2.2,1.8-3.2C385.2,69,385.1,69.2,382.6,69.8z" />
	<path fill="#465EB8" d="M369.7,311.1c1.4,0.8,2,1.9,1.9,3.5c-1.3,0.6-1.2-0.9-1.9-1.2C369.7,312.5,369.7,311.8,369.7,311.1z" />
	<path fill="#465EBA" d="M369.7,311.1c0.8,5.7-3.9-0.5-0.1-0.6C369.7,310.6,369.7,310.9,369.7,311.1z" />
	<path fill="#1F1F1F" d="M357.5,26.1c0.1,1.8,0.1,1.8-1.4,1.7C355.8,26.3,355.8,26.3,357.5,26.1z" />
	<path fill="#212121" d="M368.3,15.5c0.2,0.4,0.3,0.8,0.5,1.3c-0.3,0.3-0.7,0.5-1.2,0.9c-0.4-0.4-0.8-0.7-1.2-1   C366.7,15.7,367.4,15.5,368.3,15.5C368.3,15.5,368.3,15.5,368.3,15.5z" />
	<path fill="#212121" d="M380.3,63c0.3,1.3,0.4,1.8,0.6,2.5c-0.8,0-1.4,0.1-2.4,0.1C379.1,64.7,379.4,64.2,380.3,63z" />
	<path fill="#101010" d="M411.5,32.3c0.4,1,1.4,0.6,2.1,0.7c-0.9,1.3-2,0.5-3,0.6C409.9,32.6,410.7,32.2,411.5,32.3z" />
	<path fill="#101010" d="M416.3,32.9c1.3-0.9,2.7-0.7,4.2-0.7C419.4,33.4,417.8,32.8,416.3,32.9z" />
	<path fill="#C2ACA3" d="M366.7,81.9c-0.4-0.1-0.8-0.2-1.2-0.3c-0.3-0.4-0.6-0.8-0.8-1.1l0.2-0.2c0.2,0.1,0.4,0.1,0.6,0.1   C366.1,80.7,366.8,81,366.7,81.9z" />
	<path fill="#101010" d="M422.8,34.5c-0.8,0.8-1.8,0.8-2.8,0.7C420.6,34.1,421.7,34.4,422.8,34.5z" />
	<path fill="#0F0E0E" d="M430.3,31.6c-0.4,0.9-1.1,1.4-2.1,1.4C428.6,32,429.3,31.5,430.3,31.6z" />
	<path fill="#C2ACA3" d="M361.2,69.7c0.1,0.7,0.2,1.3-0.7,1.6C360.7,70.7,361,70.2,361.2,69.7z" />
	<path fill="#101010" d="M420,37.9c-0.5,0.2-1,0.5-1.5,0.7C418.7,37.8,419.3,37.8,420,37.9z" />
	<path fill="#C2ACA3" d="M364.7,80.4c-0.3-0.2-0.5-0.4-0.8-0.6c0.1-0.1,0.2-0.2,0.3-0.3c0.2,0.1,0.4,0.1,0.5,0.1   c0,0.2,0,0.4,0.2,0.6L364.7,80.4z" />
	<path fill="#0C101F" d="M373.1,313.3c0.2,0,0.5,0,0.7,0C373.6,313.9,373.3,313.8,373.1,313.3z" />
	<path fill="#101010" d="M412.2,31.6c-0.2,0.2-0.5,0.5-0.7,0.7C411.7,32,412,31.8,412.2,31.6z" />
	<path fill="#E4E4EB" d="M516.1,546.7c4.3,5.7,9.5,16.9,18.1,12.2c11.1-5.2,19.8-14.1,24.8-25.4c6.8,1.7,7.7,11.3,11.6,16.5   c-1.5,3-3.2,5.9-5,8.9c3-0.5,3.2-0.7,7.1-5.9c1.3,0.3,1.9,1.6,3,2.4c-0.6,2.2-1.7,4.3-1.8,6.9c3.6-0.9,3.7-4.3,7-5.4   c0.8,0.6,1.8,1.3,2.8,2.1c-0.5,1.5-1,2.9-1.5,4.5c2.6,0.4,3.6-1.3,4.9-2.7c2.7,0.2,5.4,0.7,7.8,2.4c-0.4,1.1-0.8,2-1.2,2.9   c1.4,1.2,2.8-1.2,4-1.8c6.7,3.2,14.3,4.8,21.6,5.4c2.8,0.1,4.1-0.8,6.3,1.9c-0.2,2.1,1,3.9,2,5.7c5.3,9.3-13,7.8-18.2,10.6   c-15.4,1.6-34.6,7.2-47.7-3.3c-18.5-1.3-37.6,18.5-52.5-0.7C511.7,571.8,512.1,558.1,516.1,546.7z" />
	<path fill="#CFCFDD" d="M516.1,546.7c-4.1,11.4-4.5,25-7,37.1c15,19.3,34-0.5,52.5,0.7c12.6,12,50.3,3.3,66-1.5   c-1.8,3.8-8.1,4.9-11.9,6.3c-2.3,0.1-2.4,0.2-1.5,2c-17.2,6.8-35.7,3.8-53.5,2.2c-20.9,0.9-43.8,8.6-63.1-2.5   c1.6-2.9,3.2-5.8,4.8-8.9c-1.3-5.8,4.4-11.9,5-17.9c1.5-7.9,1.3-15.9,4.7-23.5c1.3,0,2.1,0.8,3,1.6   C515.5,543.8,515.8,545.3,516.1,546.7z" />
	<path fill="#CECEDB" d="M489.7,579.5c-0.8-1.8,1.3-3.3,2.2-4.7c7.6-8.9,6.3-21.4,10.1-32.1c-2.6-2.9-1.4-6.9,0.2-9.9   c2.3-0.6,3.5,1,4.8,2.5c-0.7,11.1-9.2,21.2-5.4,32.6c1.8-5.4,2.5-11.9,4.6-17c0.8,11.6-5.2,21.9-7.5,33   C495.2,583.2,492.3,581.7,489.7,579.5z" />
	<path fill="#FDFDFD" d="M518,545.4c10.9,2.8,20.8,3.6,31.2-0.9c-3.5,6.3-9.7,8.4-15.4,12.2C526,561.2,521.7,551.2,518,545.4z" />
	<path fill="#EDC9BA" d="M540.5,544.1c-2-8.6-0.4-18.3,2.1-26.7c0.3,0.7,0.6,1.3,1.2,2.7c0-1.5,0-2.3,0-3.2   c-0.5,0.1-0.8,0.1-1.1,0.1c0.4-1.8,1.6-3.3,1.4-5.2c0-0.3,0.5-0.6,1.1-1.3c0.6,8.2-0.2,15.9-1.3,23.9c-0.3-0.9-0.6-1.9-1.1-3.4   c-0.4,1.8-0.4,3-0.1,4.3c0.5-0.3,0.8-0.4,1.1-0.6c0,1.7,0,3.5,0,5.2c-0.4-0.7-0.8-1.4-1.4-2.5c-1,2.3,0.1,4.2,0,6.4   C541.8,543.9,541.1,544,540.5,544.1z M543,524.1c0.5-0.1,0.5-0.8,0.8-1.3c-0.3-0.1-0.6-0.2-0.8-0.3   C542.8,523.2,542.3,523.8,543,524.1z M541.8,527.8c0.3,0.4,0.7,0.8,1.1,1.3C543.5,528.1,543.3,527.6,541.8,527.8z" />
	<path fill="#E1E1E9" d="M506.3,551c-2.1,5.1-2.7,11.6-4.6,17c-3.8-11.5,4.7-21.5,5.4-32.6c1.4,0.8,2.6,1.8,3.6,3.3   C508.6,542.5,507.5,546.7,506.3,551z" />
	<path fill="#D0D0D6" d="M599,561.5c3.5-0.3,6.2,0.7,9.6,0.2c3-0.5,3,2.3,3.1,4.6C607.2,564.8,602.4,565.5,599,561.5z" />
	<path fill="#EECABA" d="M529.2,413.4c0.1,1.5,0.2,3.1,0.3,5.1c-0.9,0.6-0.6,2.7-1.8,3.4C528.2,419.1,528.1,416.1,529.2,413.4z" />
	<path fill="#323235" d="M614.3,591.3c-0.9-1.7-0.7-1.9,1.5-2C616.3,591,616.3,591.1,614.3,591.3z" />
	<path fill="#DCBBAD" d="M601.9,364.6c0.8,0.3,1.6,0.6,2.6,1c0,0.4,0,0.8,0,1.2c-0.4,0.3-0.8,0.6-1.2,0.9   C602.8,366.7,602.4,365.7,601.9,364.6z" />
	<path d="M517.5,502.3c0.1,0.2,0.1,0.4-0.1,0.5c-1.1-0.7-0.7-1.5-0.2-3.2C517.4,501.1,517.5,501.7,517.5,502.3z" />
	<path d="M529.3,411.5c-0.8-0.4-0.9-0.9-0.3-2C529.2,410.4,529.3,411,529.3,411.5L529.3,411.5z" />
	<path fill="#323235" d="M617,589.2c0.5-0.2,1-0.4,1.6-0.5C618.2,589.4,617.7,589.4,617,589.2z" />
	<path fill="#FBDFD3" d="M582.3,306.3c0.6-0.1,1.4,0,1.1-1.2c-0.8-0.1-1.6-0.2-2.5-0.3c-0.7-1-1.5-1.9-2.2-2.9   c0.9-0.4,1.8-0.8,2.7-1c-15.7-4.5-33.8-8.8-49.9-14.8c-7.8-1.3-21.3-11.1-27.9-7.1c-5.4-1.9-9.6-5.6-14.2-9.4   c7.2-2.7,14.8,6.2,21.1,2.2c-6.2-0.8-12.1-2.5-18.1-4c1.6-1.9,4.9-0.7,6.1-3.2c-2.5-3.8-9.1-3.8-13.2-5.9   c-5.7-1.7-11.8-7.3-17.9-4.5c-13.4-18.7-30.3-21.9-47.5-34.5c2.9-1.7,2.9-1.7,4.7-4.1c5.4-0.1,16.7,6.6,16.3-3.3   c1.4-0.3,2.4-0.9,3.7-1.4c-5.8-1.6-12-0.2-17.7-3.1c-3.9,0.3-8.3-1.3-11.1,2.3c-1.5-0.8-2.8-1.6-4.1-2.3c-0.7,0.2-1.3,0.4-2,0.7   c-0.9-0.4-1.9-0.9-2.9-1.3c-0.5,0.1-1,0.3-1.5,0.4c-6.8-8.8-10.9-20.3-20-27.3c3.5-1,6.7,0.4,10-0.9c5.5,1.1,17.6,3.1,19.2-4.5   c-2.8-1.7-5.7-2.2-8.5-3c-1.7-8-14.5-6.8-21.1-9.3c-6.9-1.3-14.8-2.3-16.5,6.5c-5.9,0.4-1.6,9.6-8.5,8.1c0.4,1,0.5,1.3,1.4,1.5   c0.4,10.9,3.7,21.4,5.6,32c-37-14.1-15.3-75.7,12.7-88c0.2,0.1,0.4,0,0.6-0.1c24.3,0.5,49.6,16.8,55,41.9   c-3.7,17.6,14.3,21.1,23.9,31.3c7.7,6.9,13.9,15.2,20.6,23c12.2,8.2,25.8,14.3,37,24c7.8,5.6,13.4,13.2,20.3,19.9   c13.3,11.9,30.4,17.5,46,25.6c6.7,2.5,11.7,9.1,15.2,15.3c2.1,7.7,10.7,9.5,13.4,16.6c-0.3,0.5-0.5,1-0.8,1.5   c2.7,3.7,1.5,7.7-0.2,11.6c2.9-1,4.3-6.3,2.9-9.2c-0.2-0.4-0.4-0.8,0.3-1c0.7,0.9,1.4,1.7,2.3,2.8c0.9,15.3-0.2,30-5.8,44.5   c-1.4-1.7-1.4-1.7-3.4-2.6c0.3-11.4,6.7-21.3,6.2-32.9c-3.2,1.6-1.7,5.4-2.2,8.2c-0.4,4.3-3.5,7.7-4.1,12c-1.1,0.5-0.3,1.7-1,2.5   c-1.1-1-2.4-1.3-3.9-1.1c-1-2.3,0.2-4.2,0.8-6.3c1.4-0.9,0.2-2.4,0.7-3.5c1.7,1.4-0.3,3.9,2.1,5.3c1.2-6.6-3-16.4,2.7-21   c-0.1-0.1-0.1-0.3-0.2-0.4c-0.8,0.1-1.7,0.2-2.5,0.2c-0.1-1.2,0.1-2.5-0.7-3.6c0.2-0.4,0.4-0.8,0.6-1.4c-2.1,0-4.2-0.2-5-2.2   c-3-5.3-10.5-6.6-13.1-11.9c0.4-0.8,0.8-1.7,1.4-2.8c-1.6,0.4-2.2,1.2-2.8,2.2C582.8,311.9,582.9,308.2,582.3,306.3z M500.1,242.7   c-4.8-3.4-10-8.3-16.5-7.5c-2.8,0.4-1.7,4.8,0.5,5.5c3.4,2.1,7.8,5.5,11.8,2.8l0,0c0.7,0,1.3,0.1,2,0.1c1.1,1,2.2,0.6,3.4,0.3   C501.3,242.8,500.7,242.9,500.1,242.7z M540.5,281.8c-1.2-0.9-2-1.7-3.5-1.2c1.5,1.7,1.5,1.7,3.5,2c0.3,0.5,0.7,0.8,1.5,0.2   C541.4,282.5,540.9,282.2,540.5,281.8z M569.8,295c-1-0.7-2.1-1.2-3.5-1.3c0.6,1.5,1.8,1.6,2.7,2c1.3,0.6,2.3,1.9,4.2,2   C572.6,295.7,571.2,295.4,569.8,295z M489.6,250.6c0.4,0.6,0.8,0.7,1.4,0c-2.1-0.6-3.9-5.8-5.9-3.9   C486.2,248.4,487.4,250,489.6,250.6z M405.1,138.3c0.9,0.8,1.8,1.7,3.6,1c-3.6-2.1-6.6-5-10.4-5.4   C398.4,136.5,403.2,136.8,405.1,138.3z M492.6,251.2c1.6,3.1,4.2,3,7.7,3.4C497.9,252.8,495.9,251.8,492.6,251.2z M476.5,225.8   c0.7,2,0,4.3,1.6,6.1c0.4-0.2,0.7-0.4,1-0.6C478.7,229.3,478.2,227.3,476.5,225.8z M518.3,273.3c-2-1.4-3.5-1.8-6.3-1.7   C514.1,273.4,515.2,273.6,518.3,273.3z M532.1,278.8c2.1,2,2.1,2,4.4,1.5C535,279.4,533.7,278,532.1,278.8z M526.4,276.9   c0.8,1.5,1.9,1.8,3.4,1.4C528.6,277.1,528.6,277.1,526.4,276.9z M502.9,243.3c0.8,1.4,2,1,3.2,0.8   C504.7,242.6,504.7,242.6,502.9,243.3z M475,222.7c0-1.6,0.2-2.6-1.2-3.3C473.3,220.6,473.4,221.6,475,222.7z M524.8,275.4   c-1.2-1-1.9-1.7-3.1-1C522.3,275.3,523.1,275.7,524.8,275.4z M457.2,214.7c-1.1-1.2-1.1-1.2-2.2-0.6   C455.6,214.8,456.2,215.5,457.2,214.7z M451.7,212c-0.4-0.7-0.7-1.1-1.6-1C449.4,211.9,450.9,212.3,451.7,212z M414.9,148.5   c0.3,0.5,0.7,1,1.1,1.6C416.6,149,416.1,148.5,414.9,148.5z M418.8,175.8c-1.2-1.4-1.2-1.4-2.5-0.7   C417,175.3,417.6,175.4,418.8,175.8z M509.8,244.8c-0.6-0.5-1.1-0.7-1.3,0.2C508.8,245.7,509.3,245.4,509.8,244.8z M411.7,144.3   c0.1-0.1,0.3-0.1,0.4-0.2c-0.2-0.5-0.2-1.1-1-0.8C411.3,143.7,411.5,144,411.7,144.3z M446,210.8c0,0.2,0,0.3,0,0.5   c0.5,0,1,0,1.4-0.1c0-0.2,0-0.3,0-0.5C447,210.7,446.5,210.8,446,210.8z M502.7,255.2c0-0.2,0-0.3,0-0.5   C501.5,254.8,501.5,255.1,502.7,255.2z" />
	<path fill="#585351" d="M434.6,165.5c0.2-0.3,0.4-0.5,0.6-0.8C435.3,165.2,435.1,165.4,434.6,165.5z" />
	<path fill="#393736" d="M288.2,551c-0.2-0.2-0.3-0.3-0.5-0.5c-0.3,0.2-0.6,0.5-1.2,1c0.2-1,0.3-1.7,0.4-2.3   c-1.9,0.2-3.8,0.8-5.6-0.1c2.1-0.4,4.2-0.8,6.5-1.2c0.2-1.3,0.4-2.9,1.6-3.9c2.3,1.7-1.9,2.1-0.1,3.4c0.3,0.9-0.3,1.4-1.1,1.8   c0.1,0.1,0.3,0.2,0.4,0.3C288.9,550.1,288.9,550.6,288.2,551z" />
	<path fill="#A39893" d="M289.4,547.3c-0.8-0.5-0.7-0.9,0.1-1.3C289.5,546.5,289.4,546.9,289.4,547.3z" />
	<path fill="#A39893" d="M288.7,549.5c-0.1-0.1-0.3-0.2-0.4-0.3c0.2-0.1,0.3-0.2,0.5-0.3C288.7,549.1,288.7,549.3,288.7,549.5z" />
	<path fill="#8F8580" d="M275.3,578.2c0.5,0,0.8,0.2,0.9,0.7C275.9,578.7,275.6,578.5,275.3,578.2z" />
	<path fill="#FBDFD3" d="M378.7,120.1c-0.6-0.1-1.1-0.3-1.8-0.4c-1.3-4.3-5.7-4.8-9.7-4.4c2.2,1.4,4.2,2.6,6.1,3.7   c-11.2,4.4-21.2,12.7-31.3,20c-0.2-0.1-0.4-0.3-0.6-0.4c5.3-9.3,14.3-16.1,19.8-25.5c0.7,0.1,1.3,1.1,2.2,0.2   c-0.5-0.7-0.9-1.2-1.3-2.1c1.3-2.1,2.6-4.3,4-6.5l0,0c1.1-1.8,1.6-4.4,2.6-6.6c1.8-0.4,3.4-0.7,5.2-1c3.3,6.1,7.2,12.1,10.4,18.2   l0,0c-2,1.1,0.8,2.8,1.2,4.3c-0.1,0.1-0.1,0.3,0,0.4C383.4,120.4,381,120.1,378.7,120.1z M368.1,109.8c0.1,0.9,0.3,1.6,1.4,1.7   c0.5-1.7-0.8-2.6-1.4-4C367.2,108.5,367.5,109.2,368.1,109.8z" />
	<path fill="#1F1D1E" d="M379.5,122.9c-5.3,2.7-10.9,5.8-14.7,10.5c-0.1-0.6,0-1.2-0.7-1.4c3.9-3.8,8.8-7.7,13.9-9.8   C378.3,123,379,122.8,379.5,122.9z" />
	<path fill="#312E2C" d="M385.6,119.5c-0.4-0.7-0.9-1.5-1.3-2.2c0-0.7,0.1-1.4,0.1-2.1l0,0c1.3,0.4,2,1.3,2,2.7   C385.6,118.2,385.8,119,385.6,119.5z" />
	<path fill="#1F1D1E" d="M378.7,120.1c0.7,0,1.4,0,2.1,0c-0.8,0.9-1.5,1.9-2.8,2c-0.6-0.7-1.4-1-2.3-1.3   C376.8,120.9,377.9,120.9,378.7,120.1z" />
	<path fill="#1F1D1E" d="M384.3,123c-1.4,0-2.8-0.1-4.2-0.1C381.8,121.9,382.9,121.9,384.3,123z" />
	<path fill="#1F1D1E" d="M382.2,120.2c0.7,0,1.4,0,2.1,0c0,0.2,0,0.4,0,0.6C383.6,120.7,382.7,121.1,382.2,120.2z" />
	<path fill="#312E2C" d="M386.4,118c0.2,0.5,0.4,1,0.6,1.4C386.3,119.1,386.3,118.6,386.4,118z" />
	<path fill="#312E2C" d="M384.3,120.8c0-0.2,0-0.4,0-0.6c0.4-0.1,0.9-0.2,1.3-0.2C385.7,121,384.9,120.8,384.3,120.8z" />
	<path fill="#D3B4A6" d="M426.2,93c2-2.1,7.4-1.4,7-5.7C435.4,91.5,429.2,92.9,426.2,93z" />
	<path fill="#D4B5A8" d="M431.8,95.6c-0.7-0.2-1-0.3-1.8-0.5c-1.1,1.4-4,2.3-5.2,0.5c2.2,0.9,3.7-0.5,5.1-1.7   C431.1,94,431.6,94.7,431.8,95.6z" />
	<path fill="#D4B5A8" d="M431.7,98.5c-0.7-1-0.6-1.9,0.1-2.9C432.7,96.8,432.7,96.9,431.7,98.5z" />
	<path fill="#D4B5A8" d="M424.8,94.4c0.1-1.3,0.1-1.3,1.4-1.4C425.7,93.4,425.3,93.9,424.8,94.4z" />
	<path fill="#3A3635" d="M438,78.3c-0.7-0.5-0.8-1.2-0.8-2C438.3,76.6,438,77.5,438,78.3z" />
	<path fill="#3A3635" d="M436.6,74.8c-0.7-0.5-0.8-1.3-0.8-2c0.3,0,0.5-0.1,0.8-0.1C436.6,73.4,436.6,74.1,436.6,74.8z" />
	<path fill="#D4B5A8" d="M424.9,95.6c-0.2-0.1-0.5-0.3-0.7-0.4c0.2-0.3,0.4-0.5,0.7-0.8C424.8,94.8,424.9,95.2,424.9,95.6z" />
	<path fill="#3A3635" d="M437.2,76.2c-0.2-0.5-0.4-1-0.7-1.4C437.3,75,437.4,75.6,437.2,76.2z" />
	<path fill="#D4B5A8" d="M431.1,99.4c0.2-0.3,0.4-0.6,0.6-0.9C431.5,98.8,431.3,99.1,431.1,99.4z" />
	<path fill="#3A3635" d="M435.2,72c-0.6-0.2-0.9-0.7-0.8-1.3C435.2,70.8,435.2,71.3,435.2,72z" />
	<path fill="#3A3635" d="M435.8,72.8c-0.2-0.3-0.4-0.5-0.6-0.8C435.4,72.3,435.6,72.5,435.8,72.8z" />
	<path fill="#1E1B1A" d="M613.6,323.1c-0.7,0.2-0.5,0.6-0.3,1c0.9,2.2,0.8,4.4-0.4,6.5c-1.1-0.5-0.4-1.5-0.8-2.2   c0.4-2.4-0.2-4.6-1.5-6.6c0.3-0.6,0.6-1,0.8-1.5C612.4,321,613.1,322,613.6,323.1z" />
	<path fill="#1B2344" d="M487.5,392.7c-8.1,3-14.7,8.2-23.1,10.3c12.1-7.1,24-13.2,34.9-22.2c0.2,0.2,0.4,0.5,0.7,0.7   c-3.9,3-7.9,5.9-11.8,8.9c-0.4,0.3-0.6,0.7,0,1C487.9,391.8,487.7,392.3,487.5,392.7z" />
	<path fill="#5775E6" d="M371.2,349.6c-3.2-0.1-6.4-0.1-9.9-0.2c1.1-2.9,4.5-3.8,5.9-6.6c0.1-0.2,0.6-0.2,1-0.2   c1.9,1.4,3.7,2.8,5.6,4.2C373.4,348,372.3,348.8,371.2,349.6z" />
	<path fill="#5674E3" d="M408,362c0,3.6-27.1-1.4-25.8-4.1l-0.1-0.2C390.8,358.4,399.4,361.6,408,362L408,362z" />
	<path fill="#0A0D18" d="M371.2,349.6c1.1-0.8,2.2-1.5,2.6-2.9c0.6,0,1.2,0,1.3-0.8c1.7-1.4,3.4-5,5.8-4.4   c-4.1,6.1-9.8,11.1-15.4,15.8c0-0.3-0.1-0.7-0.1-1C367.3,354.1,369.3,351.8,371.2,349.6z" />
	<path fill="#5775E6" d="M361.3,336.2c-1.4,3-3.9,5.6-4.3,8.9c-0.2,0.8-0.6,1.3-1.5,1.5c-0.8-0.8-1.7-1.6-2.7-2.6   C355.4,341.4,357.8,337.4,361.3,336.2L361.3,336.2z" />
	<path fill="#090C16" d="M384.1,355.7c-0.5,0.8-1.3,1.4-2,2.1l0.1,0.2c-2.8,2.9-5,6.2-7,9.7c-0.8-0.2-0.6-0.9-0.7-1.4   c2.3-3.9,6.6-12.3,10.9-12.9C385,354.1,384.6,354.9,384.1,355.7z" />
	<path fill="#1F294E" d="M507.7,387.8c0.2,0.2,0.5,0.5,0.7,0.7c-4,3.2-14.1,13.3-18.7,12.8C495.8,396.9,502.2,393,507.7,387.8z" />
	<path fill="#161C35" d="M361.9,334.3c1,1.6,2.6,3.1,3.6,4.5c1.1-0.4,1.9-0.8,2.7-1.1c0.2,0.8,1,0.7,1.6,0.8   c-0.9,0.4-1.8,0.7-2.8,1.1c0.1,0.2,0.3,0.6,0.5,0.9c-0.2,0.2-0.5,0.5-0.7,0.7c-1.8-1.6-3.7-3.3-5.5-4.9l0,0   c-0.9-1.4-1.8-2.9-2.7-4.3C360.3,330.8,360.9,333.5,361.9,334.3z" />
	<path fill="#1A2242" d="M510.5,362.1c1.7-0.4,3.5,0.6,4.9-0.7c0.4,0,0.8,0,1.2,0c0,0.3-0.1,0.7-0.1,1.2c-4.6,0.8-9.2,1.8-14,1.4   C505.1,362.6,508.2,363.3,510.5,362.1z" />
	<path fill="#334586" d="M438.6,393.3c-0.2-0.2-0.4-0.4-0.6-0.7c3.9-2,7.5-5.6,11.6-6.7C447.1,389.4,442,390.7,438.6,393.3z" />
	<path fill="#3E539E" d="M412.9,398.3c3.7-1.7,7.5-3.3,11.5-4.2c-2.4,2.8-8,3.1-11.5,4.9C412.9,398.7,412.9,398.5,412.9,398.3z" />
	<path fill="#324381" d="M500,381.5c-0.2-0.2-0.4-0.5-0.7-0.7c3-2.8,6.1-5.6,9.1-8.4l0,0C506.9,376,503,378.9,500,381.5z" />
	<path fill="#5673E2" d="M380.9,356.6c-0.3,0.4-0.6,0.8-1,1.2c-2.3,0.2-4.5-0.4-7-2C376.1,356.2,378.7,354.7,380.9,356.6z" />
	<path fill="#192242" d="M459.6,394.1c-0.2-0.2-0.5-0.5-0.7-0.7c2.4-2.8,6.5-4.4,10-4.6C465.8,390.6,462.3,391.6,459.6,394.1z" />
	<path fill="#36488C" d="M486.7,379.3c0.2-1.6,7.2-6.6,8.5-5.5C492.6,376,490.2,378,486.7,379.3z" />
	<path fill="#161D36" d="M336.8,350.8c0.2-2.2-0.1-4.5,0.4-7.3c2.7,2.7,0.2,6.7,0.3,10C336.9,352.8,336.8,351.8,336.8,350.8z" />
	<path fill="#4154A0" d="M448.4,360.7c-3.9,1.7-9.4,0.1-13.9,0.6c0.3-0.4,0.7-0.9,1.1-1.4C439.9,361.2,444.2,360.4,448.4,360.7z" />
	<path fill="#293563" d="M382.2,354.9c-0.2,0.3-0.4,0.6-0.6,0.9c-1.6-2.6-3.9-5.8-6.4-7.2c0.5-0.6,1-1.2,1.5-1.9   C377.1,349.9,380.8,351.9,382.2,354.9z" />
	<path fill="#2F3E73" d="M410.7,360.7c1.9-0.2,4.2-0.4,5.9,0.5c-0.8,1.7-6.5,0.4-8.6,0.8l0,0c0-0.2,0-0.4-0.1-0.6   C408.9,361.4,409.9,361.4,410.7,360.7z" />
	<path fill="#36488A" d="M336.8,350.8c0.2,2.9,2.3,6.5-0.5,8.8C336.6,356.7,335.5,353.3,336.8,350.8z" />
	<path fill="#253058" d="M366.8,341.1c0.2-0.2,0.5-0.5,0.7-0.7c2.6,1.6,4.7,4.7,7.6,5.4c-0.1,0.8-0.7,0.8-1.3,0.8   C371.5,344.8,368.9,343.3,366.8,341.1z" />
	<path fill="#374A90" d="M362.7,360c-2,2.2-3.5,4.8-5.8,6.8c-0.1-2.4,3.1-5.2,5.1-6.8C362.2,359.9,362.5,359.9,362.7,360z" />
	<path fill="#3D519B" d="M465.1,362.1c3.3,0.6,6.8,0.3,10.1,1.2c-3.5,0-7.5,0.9-10.8-0.5C464.7,362.5,464.9,362.3,465.1,362.1z" />
	<path fill="#31417A" d="M412.9,398.3c0,0.2,0,0.5,0,0.7c-2.6,0.9-5.1,1.8-7.7,2.8c-0.3-0.3-0.5-0.5-0.8-0.8   C407.1,399.5,410,399.1,412.9,398.3z" />
	<path fill="#334587" d="M341.1,335.5c0.7-0.5,1.4-0.9,2.1-1.4c0.3,0.3,0.5,0.6,0.8,0.8c-1.9,1.3-3,3.6-5.4,4.4   C339.6,338.2,340.4,336.9,341.1,335.5z" />
	<path fill="#192243" d="M487.5,392.7c0.4-0.5,0.5-1.5,1.3-1.4c1.4-1.1,3.1-1.6,4.7-2.5C493.5,391.3,489.5,391.9,487.5,392.7z" />
	<path fill="#1B2446" d="M343.9,334.9c-0.3-0.3-0.5-0.6-0.8-0.8c0.7-0.7,1.4-1.4,2.1-2.1c0.6,0,1.2,0,1.5-0.7   c0.3-0.1,0.6-0.3,0.9-0.4c0.8,0.7-0.2,1.2-0.3,1.7c-0.2,0.2-0.5,0.5-0.7,0.7c0,0,0,0,0,0C345.7,333.9,344.8,334.4,343.9,334.9z" />
	<path fill="#2B3663" d="M465.1,362.1c-0.2,0.2-0.5,0.5-0.7,0.7c-2.1,0.1-4.1,0-6-1.3C460.8,360.8,462.8,361.9,465.1,362.1z" />
	<path fill="#090C16" d="M330,353.4c0.2,2,0,4-0.3,6.1C329,357.4,328.9,355.4,330,353.4z" />
	<path fill="#171E3A" d="M362.7,360c-0.2,0-0.5,0-0.7,0c1.1-1.2,2.3-2.4,3.4-3.6c0,0.3,0.1,0.7,0.1,1   C364.6,358.2,363.6,359.1,362.7,360z" />
	<path fill="#222E57" d="M374.5,366.2c0.1,0.5-0.1,1.2,0.7,1.4c-0.3,1.1-0.7,2.1-1,3.2C374,369.2,373.2,367.6,374.5,366.2z" />
	<path fill="#35488D" d="M508.4,372.5c0-1.7,1.3-2.3,2.6-3.5C510.4,370.9,510.4,370.9,508.4,372.5L508.4,372.5z" />
	<path fill="#3B4F9A" d="M458.5,401.4c1.6-0.6,2.5-0.2,4.6-0.3C460.9,401.9,460.9,401.9,458.5,401.4z" />
	<path fill="#273464" d="M332.5,346.1c0.6-0.8,1.1-1.5,1.7-2.4C334.6,345.6,334.4,345.9,332.5,346.1z" />
	<path fill="#334587" d="M339,334.1c0.3-0.3,0.5-0.5,0.8-0.8c0.4,0.7,0.9,1.4,1.3,2.1C340,335.6,339.3,335.2,339,334.1z" />
	<path fill="#171E3A" d="M366.2,357c0.2-0.2,0.4-0.4,0.6-0.6C366.6,356.6,366.4,356.8,366.2,357z" />
	<path fill="#171E3A" d="M366.8,356.4c0.2-0.2,0.5-0.4,0.7-0.6C367.3,356,367.1,356.2,366.8,356.4z" />
	<path fill="#171E3A" d="M367.6,355.7c0.2-0.2,0.5-0.5,0.7-0.7C368,355.3,367.8,355.5,367.6,355.7z" />
	<path fill="#1B2344" d="M489.5,390.7c-0.3,0.2-0.5,0.4-0.8,0.6C489,391.1,489.3,390.9,489.5,390.7z" />
	<path fill="#171514" d="M564.1,403.7c1.4-5,1.3-10.7,3.7-15.2c3,4.7-1.1,11.8-3,16.7C564.6,404.7,564.3,404.2,564.1,403.7z" />
	<path fill="#1C1A18" d="M592.7,390.8c0.1-2.9,0.3-5.9,0.4-9.1C595,383.5,596.4,390.6,592.7,390.8z" />
	<path fill="#433C39" d="M568.9,432.9c1-3.4,2.1-6.7,3.1-10c2.5,0.9-1.4,8.8-2.3,10.9C569.5,433.5,569.2,433.2,568.9,432.9z" />
	<path fill="#5A524E" d="M568.9,432.9c0.3,0.3,0.5,0.6,0.8,0.9c-0.9,2-1.9,3.9-2.8,5.9c-0.1,0-0.3-0.1-0.4-0.1   C566.3,437.2,568.1,435.1,568.9,432.9z" />
	<path fill="#4E4743" d="M560.1,417.9c-0.5,3.4-0.7,3.9-2.1,5.3C557.9,420.1,558.5,418.6,560.1,417.9z" />
	<path fill="#B3A098" d="M563.3,408.6c-1.2,2.1-0.9,3.6-3.5,4.7c1.2-2.3,2-3.8,2.7-5.3C562.9,408.2,563.1,408.4,563.3,408.6z" />
	<path fill="#736863" d="M589.3,368.2c1.5,1.6,1.6,3.2,2.2,5.4C589.6,371.9,589.1,370.4,589.3,368.2z" />
	<path fill="#413B39" d="M563.3,408.6c-0.2-0.2-0.5-0.4-0.7-0.6c0.5-1.4,1-2.8,1.4-4.3c0.2,0.5,0.5,1,0.7,1.5   C564.3,406.3,563.8,407.5,563.3,408.6z" />
	<path fill="#4C4541" d="M596.3,338.3c1.4,1.2,2.3,1.5,2.1,3.8c-1.2-1.3-2-2.2-2.8-3.1C595.8,338.7,596,338.5,596.3,338.3z" />
	<path fill="#81736D" d="M596.3,338.3c-0.2,0.2-0.5,0.4-0.7,0.7c-0.9-0.5-2-1-2.1-2.6C594.8,336.7,595.7,337.3,596.3,338.3z" />
	<path fill="#A18C83" d="M589.9,346.7c-0.7,1.1-1.7,1.3-3.1,1.4c-0.1-0.5-0.1-0.9-0.2-1.3C587.7,346.8,588.8,346.7,589.9,346.7z" />
	<path fill="#4E4744" d="M551,439c-0.5,0.9-1,1.9-1.6,3.1C549,440.4,549,440.4,551,439z" />
	<path fill="#7A6E69" d="M559.4,458.9c-0.8,1.4-1.2,2.3-1.8,3.4C557.1,459.8,557.1,459.8,559.4,458.9z" />
	<path fill="#5F5552" d="M553.9,432.1c-0.4-2.3-0.4-2.3,1-3C555.4,430.4,554.9,431.3,553.9,432.1z" />
	<path fill="#2C2826" d="M596.3,350.9c-0.6,0.1-1.2,0-1.7-0.1c0.3-0.5,0.6-0.9,0.9-1.4c0.7-0.2,1.2-1.1,2.1-0.5   C597.9,350,596.6,350.2,596.3,350.9z" />
	<path fill="#6B615D" d="M591.8,375.6c0.3,0.9,0.6,1.8,0.9,2.7c-1.8,1.3-1.3-1.6-1.3-2.6C591.5,375.7,591.6,375.6,591.8,375.6z" />
	<path fill="#38312E" d="M543.8,534.7c-0.3,0.2-0.6,0.3-1.1,0.6c-0.3-1.3-0.4-2.5,0.1-4.3c0.5,1.5,0.8,2.4,1.1,3.4   C543.8,534.5,543.7,534.6,543.8,534.7z" />
	<path fill="#B7A39B" d="M597.2,374.5c-0.1-0.8-0.2-1.5-0.3-2.4C598.7,373.2,598.7,373.7,597.2,374.5z" />
	<path fill="#5B534F" d="M547.3,445.7c0.5-1.2,0.8-1.8,1.1-2.5C549.7,444.5,548.8,444.9,547.3,445.7z" />
	<path fill="#7F726C" d="M560.5,452.9c0.6,1.2,0,1.8-0.9,2.4C558.8,454.1,559.6,453.5,560.5,452.9z" />
	<path fill="#6E645F" d="M561.8,448.2c0-0.8,0-1.6,1-1.9C562.9,447.5,562.9,447.5,561.8,448.2z" />
	<path fill="#463C38" d="M542.7,517c0.3,0,0.6-0.1,1.1-0.1c0,0.8,0,1.6,0,3.2c-0.6-1.3-0.9-2-1.2-2.7   C542.7,517.3,542.7,517.1,542.7,517z" />
	<path fill="#94827B" d="M589.9,356.5c0.1-0.2,0.2-0.4,0.3-0.5c0.1,0.2,0.2,0.3,0.4,0.5C590.5,356.4,590.1,356.5,589.9,356.5z" />
	<path fill="#B7BDD5" d="M388.9,276.9c-1.7,1.8-4,3.4-3.4,6.2c-5.1,1.3-8.8,0.5-14.1,1.2c3.6,0.5,6.3,2.2,9.5,0.5   c1.7,0.1,3.9-0.9,5.2,0.3c0.3,1.6-1.2,2.3-1.8,3.7c0.2,0.8,0.4,1.8,0.7,2.8c-5.8,0.2-9.5,9.8-15.1,3.6c-2,0.6-4.4,1.6-6.4,2   c-0.6-0.8-1.4-1.2-2.6-1.3c0.2,0.5,0.4,0.9,0.5,1.3c-0.8,0-1.5-0.1-2.5-0.1c-0.1-0.5-0.1-1.1-0.2-1.6c0.2-0.4,0.4-0.7,0.6-1.1   c0.6,0.1,1.2,0.9,1.9-0.3c-0.3-0.4-0.6-1-1-1.5c5-13.6,17.4-33,34-27.8c-0.5,1.1-0.9,2.2-1.5,3.3c0.5,0.4,0.9,0.7,1.3,1.1   C392,271.6,390,273.9,388.9,276.9z M376,288.9c-1.5,0.4-3,0.7-4.6,0.8c3.7,0.3,8.1,1.5,10.8-1.7C379.9,288.1,378.2,288.4,376,288.9   z M366,291.3c2.2-1.2,4.1-1.4,5-3.3c-1.1-0.8-2.1-0.6-3.2-0.3C367.4,288.6,366.9,289.6,366,291.3z M391.1,266.2   c-1-1.5-2.3-1-3.8-0.9C388.5,266.3,389.5,267,391.1,266.2z M380.6,272.2c3.6,0.8,3.6,0.8,5.7,0   C384.2,272.2,382.4,272.2,380.6,272.2z M380.5,280.7c-1.4-0.4-2.7-0.4-4.1,0.1C377.7,281.1,379.1,281.4,380.5,280.7z M365,289.5   c0.1-0.5,0.2-0.8,0.3-1.3c-0.9,0-1.6,0-3,0C363.6,288.9,364.3,289.2,365,289.5z" />
	<path fill="#030303" d="M346.6,175.9c-1,15.7,7.3,30.8,22.3,36.3c-0.5,1.1-1.5,0.4-2.2,0.8c-16.1-3.2-25.8-20.8-21.4-36.3   C345.8,176.4,346.2,176.1,346.6,175.9z" />
	<path fill="#070707" d="M364.1,132c0.7,0.3,0.6,0.9,0.7,1.4c-8.2,10.3-11.6,23.1-16.6,35c0,0.2,0,0.4-0.2,0.5   c-0.3-0.3-0.5-0.6-0.8-0.8C350.1,155.4,353.9,141.2,364.1,132z" />
	<path fill="#B7BCD4" d="M369.1,304.8c-3.6,1.3-7.5,2.2-11.1,0.4c2.2-2.5,5.6-2.3,8.2-3.8C367.6,302.1,368.5,303.3,369.1,304.8z" />
	<path fill="#B7BDD4" d="M368.9,300.7c3.2,0.2,5.8-2,9-1.4c-0.7,2.1-1.2,2.4-6.4,4.9C370.6,303,369.8,301.9,368.9,300.7z" />
	<path fill="#191A1D" d="M368.9,300.7c0.9,1.7,4,3.5,2,5.5c-0.7-0.5-1.2-1-1.8-1.4c-1.2-3-4.5-4.3-6.4-6.9c0.2-0.2,0.5-0.5,0.7-0.7   c0.2,0.1,0.4,0.1,0.7,0.1C365.7,298.4,367.3,299.5,368.9,300.7z" />
	<path fill="#3A3B41" d="M349.5,282.3c2,1.2,2,1.2,3.8,5.4C351.1,288,350.4,284,349.5,282.3z" />
	<path fill="#2E3035" d="M368.9,242.1c1-1,1.5-2.6,3.4-3c0.2,2-1.5,2.5-2.6,3.8C369.4,242.6,369.2,242.3,368.9,242.1z" />
	<path fill="#4E4D50" d="M346.6,175.9c-0.4,0.2-0.9,0.5-1.3,0.7c0.1-2,0.4-3.9,1.2-5.8c0.2,0.5,0.4,1,0.6,1.5   C347,173.5,346.8,174.7,346.6,175.9z" />
	<path fill="#313237" d="M359.2,294.4c-0.2,0.4-0.4,0.7-0.6,1.1c-0.9-1.3-2-2.4-1.9-4.6C357.9,292.3,358.6,293,359.2,294.4   L359.2,294.4z" />
	<path fill="#3C3A3B" d="M347.2,172.3c-0.7-1.3-1-3,0-4.3c0.3,0.3,0.5,0.6,0.8,0.8C347.7,170,347.5,171.2,347.2,172.3z" />
	<path fill="#8D919F" d="M368.9,242.1c0.3,0.3,0.5,0.6,0.8,0.8c-0.8,0.6-1.7,1.2-2.9,2.1C367.1,243.3,368,242.7,368.9,242.1z" />
	<path fill="#757884" d="M364.7,247c-0.5,0.8-0.8,1.2-1.9,1.5c-0.1-1.2,0.4-1.8,1.3-2.1C364.3,246.5,364.5,246.7,364.7,247z" />
	<path fill="#747785" d="M363.4,297.1c-0.2,0.2-0.5,0.5-0.7,0.7c-0.5-0.2-1-0.4-1.4-0.7c-0.1-0.4-0.3-0.8-0.5-1.3   C362,295.9,362.8,296.3,363.4,297.1z" />
	<path fill="#3C3E44" d="M359,253.2c0.4-0.8,1-1.5,2.2-1.8c0,1.2-0.6,1.7-1.3,2.5C359.6,253.7,359.3,253.4,359,253.2z" />
	<path fill="#8D91A0" d="M359,253.2c0.3,0.2,0.6,0.5,0.9,0.7c-0.3,0.9-0.8,1.5-1.9,2C357.9,254.7,358.4,253.9,359,253.2z" />
	<path fill="#3C3A3B" d="M348,164.6c0.1,0.8,0.4,1.7-0.6,2.2C347.3,166,347.3,165.2,348,164.6z" />
	<path fill="#B7BDD5" d="M359.2,294.4c-0.2-0.5-0.5-0.9-0.7-1.4C359.2,293.2,359.2,293.8,359.2,294.4z" />
	<path fill="#27292C" d="M364.7,247c-0.2-0.2-0.4-0.4-0.6-0.6C364.6,246.2,364.8,246.4,364.7,247z" />
	<path fill="#4B65C5" d="M382.2,354.9c-1.3-1.9-2.6-3.8-4.1-5.5c5.9-1.2,15.9,3.3,18.5-3.9c0.8,1.5-0.1,2.5-0.9,3.7   c2.6,2,5.4-0.2,8.2,0.2c-0.7,0.7-1.4,1.3-2.2,2c-5.7,0-11.7,3.3-17.5,4.2c0.4-0.8,0.9-1.6,1.3-2.4   C384.3,352.4,383.2,354.5,382.2,354.9z" />
	<path fill="#303E73" d="M499.3,341.8c6.2-6.3,12.1-12.6,17.7-19.5c-2.9,7.7-11,14.2-17,20.2C499.8,342.3,499.6,342,499.3,341.8z" />
	<path fill="#232D54" d="M382.2,357.8c0.5-0.5,1-0.9,1.5-1.4c5.4,1.2,10.9,1.8,16.2,3.4c-0.7,0.3-1.7-0.3-2.2,0.7   C392.4,359.8,387.4,357.9,382.2,357.8z" />
	<path fill="#232D53" d="M401.7,351.4c4.3-3.6,8.2-7.6,11.8-11.8c0.3,0.3,0.6,0.6,0.8,0.8c-4.3,4.6-8.5,9.3-13.5,13.1   C399.8,352.5,401.2,352.1,401.7,351.4z" />
	<path fill="#293562" d="M455.4,329.3c4-4.3,7.8-8.7,10-14.7c0.7,5.9-5.6,11.2-9.3,15.4C455.9,329.7,455.7,329.5,455.4,329.3z" />
	<path fill="#364581" d="M455.4,329.3c0.2,0.2,0.5,0.5,0.7,0.7c-4.4,5.3-9.5,9.9-12.5,11.1C447.3,336.7,451.8,333.5,455.4,329.3z" />
	<path fill="#4860B9" d="M424.7,337.6c-2.9,2.9-5.6,6.1-8.6,8.9c-0.2-2.9,6.3-6.6,7.9-9.6C424.3,337.1,424.5,337.4,424.7,337.6z" />
	<path fill="#1B223C" d="M397.6,360.5c3.8-1.7,8.9,0.4,13.1,0.2C406.7,362.5,401.8,360.9,397.6,360.5z" />
	<path fill="#394985" d="M534.2,314.6c0.2,0.2,0.5,0.5,0.7,0.7c-2.7,3.5-4.7,5.2-7.2,6.3C530.1,318.9,532.1,317.3,534.2,314.6z" />
	<path fill="#475DB0" d="M499.3,341.8c0.2,0.2,0.5,0.5,0.7,0.7c-1.6,2-4,4-6.3,4.9l0,0C495.6,345.5,497.5,343.7,499.3,341.8z" />
	<path fill="#4860BC" d="M410.1,352.3c1-1.8,2.3-2.6,4.1-4.6C413.9,350.3,412.3,351.3,410.1,352.3z" />
	<path fill="#475DB0" d="M490.3,350.2c0.9-1.3,1.7-2.6,3.5-2.8l0,0C492.9,348.7,492,350,490.3,350.2L490.3,350.2z" />
	<path fill="#4A62BB" d="M490.3,350.2c-0.5,1-1.2,1.7-3,2.3C488.3,350.9,489,350.1,490.3,350.2L490.3,350.2z" />
	<path fill="#34427A" d="M424.7,337.6c-0.2-0.2-0.5-0.5-0.7-0.7c0.7-0.7,1.4-1.4,2.1-2.1c0,0.3,0,0.6,0.1,0.9   C425.7,336.3,425.2,337,424.7,337.6z" />
	<path fill="#4B65C5" d="M515.5,361.4c-1.1,1-2.4,0.6-3.6,0.5C512.9,360.8,514.3,361.5,515.5,361.4z" />
	<path fill="#4B65C5" d="M401.6,351.5c-0.2,0.2-0.4,0.4-0.6,0.6C401.2,351.9,401.4,351.7,401.6,351.5z" />
	<path fill="#1F1A19" d="M426.9,208c5.7,2.9,11.8,1.4,17.7,3.1c-0.8,0.3-1.5,0.7-2.3,1c-0.3-0.2-0.5-0.4-0.9-0.7   c-4.7,2-11.9,2.5-15.3-2.1C426.3,208.9,426.6,208.4,426.9,208z" />
	<path fill="#120F0E" d="M383.7,163.4c5.3,3.8,9.5,7.8,15.7,10.3C393,174.4,385.2,169.5,383.7,163.4z" />
	<path fill="#2D2825" d="M494.3,269.4c-3.4-0.2-7.4-0.8-9.4-3.9c3.8,0.7,6.5,2.2,10.1,3.2C494.8,269,494.6,269.2,494.3,269.4z" />
	<path fill="#292321" d="M581.4,300.9c-2.3,0.2-4.2,2.6-6.5,1.6C574.6,299.5,579.6,300.7,581.4,300.9z" />
	<path fill="#322B27" d="M375.9,201.7c0.9-1.1,1.6-2.5,3.2-2.8c0.6,1.6,0.5,1.7-2.3,3.6C376.5,202.2,376.2,202,375.9,201.7z" />
	<path fill="#5A4D47" d="M375.9,201.7c0.3,0.3,0.6,0.6,0.9,0.9c-1.1,1.1-2.1,2.2-3.5,3.2C373.3,204,373.3,204,375.9,201.7z" />
	<path fill="#463C37" d="M407.5,174.1c-3,1.4-3.3,1.4-4.9-0.3C404.1,173.5,405.6,173.6,407.5,174.1z" />
	<path fill="#524641" d="M454.7,254c3.1,0.8,3.1,0.8,4.4,2.6C457.1,256.3,456.4,255.9,454.7,254L454.7,254z" />
	<path fill="#63544D" d="M441.4,237.3c0.5,0.8,1.3,1.6,0.4,2.7c-1.6-0.5-0.9-1.9-1.2-2.8C440.9,237.2,441.2,237.2,441.4,237.3z" />
	<path fill="#6E615C" d="M361.3,178.9c-0.9-0.3-1-0.5-1.4-1.5c0.8,0,1.4,0,2,0C362.5,178.5,362.5,178.5,361.3,178.9z" />
	<path fill="#423A36" d="M410.6,174.8c1.3-0.1,2.1-0.1,2.7,0.8C412.3,176,411.5,176.1,410.6,174.8z" />
	<path fill="#836F67" d="M368.5,180.9c-0.5-0.5-1-0.8-1.6-1.3C368.7,179.4,368.7,179.4,368.5,180.9z" />
	<path fill="#A38A7F" d="M441.4,237.3c-0.3,0-0.5,0-0.8,0c-0.4-0.3-0.7-0.7-1.2-1.1C440.8,235.7,441.1,236.5,441.4,237.3z" />
	<path fill="#5D504A" d="M370.1,207.4c-1,0.8-1.5,1.1-2,1.5C368,207.5,368,207.5,370.1,207.4z" />
	<path fill="#1E1A18" d="M563.5,352.9c5.1-1.8,11-3.1,16.4-2.8c0.6,1.1,0.2,1.7-0.6,1.7C574.2,351.3,567.9,355.2,563.5,352.9z" />
	<path fill="#352D2A" d="M553.9,371.2c-0.3-0.3-0.5-0.5-0.8-0.8c3.6-2.9,8.1-4.4,11.9-6.8C567.1,365.9,555.7,369.5,553.9,371.2z" />
	<path fill="#655751" d="M563.5,352.9c0.2,0.8,1,0.6,1.5,0.8c-2.4,0.4-5.2,2.5-7.5,1.7C559.4,354.2,561.3,353.4,563.5,352.9z" />
	<path fill="#423834" d="M571.1,362.6c-1.2,0.4-3.8,2.7-4.2,0.3c0.6-1.2,1.8-0.7,2.7-1C570.2,362.1,570.9,361.9,571.1,362.6z" />
	<path fill="#75645C" d="M571.1,362.6c-0.2-0.8-0.9-0.6-1.4-0.7c1.1-0.7,2.3-1.3,4.3-1.4C572.8,361.8,572.4,362,571.1,362.6z" />
	<path fill="#70615A" d="M551.8,356.6c-0.8,0.6-1.6,1.1-2.9,1.2c0.5-1.2,1.3-1.6,2.2-2C551.2,356.1,551.5,356.3,551.8,356.6z" />
	<path fill="#302926" d="M551.8,356.6c-0.3-0.3-0.5-0.5-0.8-0.8c0.9-0.5,1.3-0.9,2,0.4C552.5,356.3,552.2,356.5,551.8,356.6z" />
	<path fill="#60524C" d="M544,360.3c-0.8,0.4-1.5,0.8-2.1,1.1C540.8,360.4,542.8,359.4,544,360.3z" />
	<path fill="#7B6A62" d="M594.5,350.8c0.4,0.1,0.7,0.1,1.1,0.2c-0.6,0.4-1.1,0.9-1.8,1.4C593.3,351.3,593.7,350.9,594.5,350.8z" />
	<path fill="#1B1A19" d="M330.5,398.3c0.8,0.2,1.2,0.7,1.4,1.4c-4.8,1.1-4.4,0.5-10.4-0.8c0-0.2,0-0.3,0-0.5   C324.6,397.6,327.9,399.3,330.5,398.3z" />
	<path fill="#68625E" d="M302,394.8c1,0.2,2.1-0.5,2.8,0.7c-0.9,1-5.8,1.1-6.3-0.2C299.9,395.4,301,395.6,302,394.8z" />
	<path fill="#55504D" d="M303.4,410.8c-1.4-2-0.5-4.2-0.3-6.5c0.8,1.8-0.1,3.9,0.9,5.7C304.1,410.2,303.6,410.6,303.4,410.8   C303.4,410.8,303.4,410.8,303.4,410.8z" />
	<path fill="#1F1E1D" d="M312.7,397c1.4-0.3,2.8-0.8,3.9,0.6C315.6,398.8,313.7,398.3,312.7,397z" />
	<path fill="#302D2C" d="M309,395.5c0.9-0.1,1.5,0.2,1.3,1.3c-0.8,0-1.5,0.1-2.5,0.1C308.3,396.3,308.7,395.9,309,395.5z" />
	<path fill="#4D4846" d="M315.9,409.3c-0.6-0.7,0.3-1.4,0.3-2.3C316.7,408.5,316.7,408.5,315.9,409.3z" />
	<path fill="#595250" d="M413.3,408.7c0.1,1,0.5,1.3-0.2,1.8C412.7,409.8,413,409.7,413.3,408.7z" />
	<path fill="#524E4C" d="M321.6,398.4c0,0.2,0,0.3,0,0.5c-0.6,0-1.2,0-1.8,0c0-0.2,0-0.3,0-0.5C320.4,398.4,321,398.4,321.6,398.4z" />
	<path fill="#343130" d="M306.2,441.5c1.5-2.3-0.2-5.4,1.4-7.6c1.1,6.1-1.2,11.8-2.2,17.9C303.6,448.6,306.1,444.9,306.2,441.5z" />
	<path fill="#585452" d="M304.7,450.5c0.2,0.4,0.4,0.9,0.6,1.3c-0.6,1.3-0.8,7-2,6.4C304,455.7,303.5,452.7,304.7,450.5z" />
	<path fill="#343130" d="M299.3,447.7c1.5-1.3,2.7,0.4,4.3,0.2C301.5,449.6,301.5,449.6,299.3,447.7z" />
	<path fill="#3F3C3A" d="M278.5,555.7c0-0.4-0.1-0.8-0.1-1.2c0.2,0,0.4,0,0.6,0c1.1,0.8,2.3,0.5,2.9,1.6   C280.5,557.2,279.6,555.6,278.5,555.7z" />
	<path fill="#8F8580" d="M279.7,555c-0.3-0.2-0.5-0.3-0.8-0.5C279.2,554.7,279.5,554.8,279.7,555z" />
	<path fill="#4A64C3" d="M393.3,334.1c-0.6-0.2-1.2-0.4-1.9-0.6c0.7-5.3,3.6-9,6.8-12.7c1.2,1.5,3.1,1.6,4.8,2.1   C400.8,327.8,399,332.6,393.3,334.1z" />
	<path fill="#4B65C4" d="M394.3,322.4c-2.3,4.4-9.1,15.7,1.2,12.5c-1.1,2.3-4.2,0.9-6.2,1.9c-2,0.6-3.5-0.6-4.8-2.3   c0-0.8,0-1.7,0-2.7C387.1,327.8,389.9,324.5,394.3,322.4z" />
	<path fill="#05060C" d="M369.8,338.4c-0.6-0.2-1.3,0-1.6-0.8c5-2.8,9.8-5.9,14.5-9.3c1.7-1.3,0.1-3.8,1.5-5.3   c0.2,1.6,0.4,3.2,0.7,5.1C381,333,376.2,336.8,369.8,338.4z" />
	<path fill="#242F56" d="M395.5,334.9c-0.2,0-0.5-0.1-0.7-0.1c-0.2-0.7-0.9-0.6-1.4-0.7c7.9-1.7,7.7-10.5,12.6-15.3   c-0.9,4.4-4.8,8-5,12.5c-2.2,1.7-2.4,4.9-3.7,7.3c-1.2-1.8,0.5-3.1,0.8-5.4C396.9,334,396.2,334.4,395.5,334.9z" />
	<path fill="#4C66C6" d="M401,331.3c0.2-4.6,4-8.1,5-12.5l0,0c0.2-0.1,0.4-0.2,0.5-0.3c-0.2-0.1-0.3-0.3-0.5-0.4   c0.7-1.4,1.3,0,1.9,0.7c-0.5,0.8-0.6,1.4,0.2,2.1c-1.4,2.6-4.2,4.4-4.3,8.2C402.9,329.7,401.9,330.5,401,331.3z" />
	<path fill="#222C52" d="M401.2,308.5c1.3,1.6-2.3,2.6-3,3.8c-1.1,1.4-1.4,2.8-3,3.9C396.1,312.9,397.7,309.1,401.2,308.5z" />
	<path fill="#263058" d="M411.5,323.7c1.2-2.7,2.4-5.4,3.6-8.3c1.4,3.5-2,5.7-3,8.9C411.9,324.1,411.7,323.9,411.5,323.7z" />
	<path fill="#485DAE" d="M411.5,323.7c0.2,0.2,0.4,0.4,0.7,0.6c-1.2,2.6-3,5-4.3,7.5C408,329.5,409.5,326.4,411.5,323.7z" />
	<path fill="#293561" d="M408,320.9c-1.5-1.4,0.6-2.9,1.4-4.2c0.2,0.1,0.3,0.1,0.5,0.2C410,318.4,408.6,319.5,408,320.9z" />
	<path fill="#242F56" d="M405.9,318.1c0.2,0.1,0.3,0.3,0.5,0.4c-0.2,0.1-0.4,0.2-0.5,0.3C405.9,318.6,405.9,318.3,405.9,318.1z" />
	<path fill="#655F5B" d="M355.6,560.3c0.1,5.3,1.5,8.4-0.1,13.2c-2.8-2.4,0.6-5.5-0.9-8.3C354.2,563.2,354,562.3,355.6,560.3z" />
	<path fill="#6A6360" d="M356.3,547.2c0.1,3.1,0.1,5.3,0,8.1C353.9,552.8,355,551.6,356.3,547.2z" />
	<path fill="#534E4C" d="M356.7,538.7c-0.4-2-0.4-3.3,0-4.7C357.3,535.3,357.2,536.7,356.7,538.7z" />
	<path fill="#262422" d="M308.2,438c-1-1.1-0.5-2.6-0.6-4C308.8,435,308.1,436.6,308.2,438z" />
	<path fill="#2D2724" d="M585.3,311.2c0.2,0,0.3-0.1,0.5-0.2c0.3,0.3,0.6,0.6,0.8,0.8c-0.9,1.6-0.8,2.9-3.3,2.5   C584.1,313.1,584.7,312.2,585.3,311.2z" />
	<path fill="#6D615C" d="M586.6,311.9c-0.3-0.3-0.6-0.6-0.8-0.8c0.6-0.9,1.2-1.8,2.8-2.2c-0.6,1.1-1,2-1.4,2.8   C587,311.8,586.8,311.9,586.6,311.9z" />
	<path fill="#443B38" d="M603.9,325.8c0.4,0,0.9,0.1,1.4,0.1c-0.2,0.5-0.4,1-0.6,1.4c-0.6,0.2-1.1,0.5-1.7,0.7   C602.2,326.6,603.6,326.4,603.9,325.8z" />
	<path fill="#594F4B" d="M605.4,330.8c0.8-0.1,1.7-0.2,2.5-0.2c0.1,0.1,0.1,0.3,0.2,0.4c-0.5,0.3-0.9,0.6-1.4,1   c-0.5-0.2-0.9-0.4-1.4-0.7C605.3,331.1,605.4,331,605.4,330.8z" />
	<path fill="#4C413C" d="M580.8,311.9c-0.7-0.6-0.9-1.3-0.1-1.3C580.7,310.9,580.7,311.2,580.8,311.9z" />
	<path fill="#E2C1B2" d="M606,332.7c-1.6,6.2-0.2,12.9-0.7,19.3c-2.4-1.4-0.4-3.9-2.1-5.3c0.3-4.5,1.1-8.5,0.7-13.2   C604.4,333.3,605.2,333,606,332.7z" />
	<path fill="#EAC7B7" d="M601.7,356.5c1.5-0.2,2.8,0.1,3.9,1.1c0.7-0.8-0.1-2,1-2.5c0.5,3.2-1.2,5.8-2.3,8.7   c-1.2-0.3-1.7-1.3-2.5-2.2C601.6,359.9,601.4,358.2,601.7,356.5z" />
	<path fill="#E2C1B2" d="M603.1,347.2c0,1,0.6,2.1-0.6,2.9C602.8,349.2,602.9,348.2,603.1,347.2z" />
	<path fill="#494543" d="M431.6,551c0.3,0,0.5,0,0.8-0.1c1.3,2.3,0.7,5.7,1.3,8.4c-1,0.5-0.4,1.4-0.7,2.1   C431.5,558.2,433.2,554.3,431.6,551z" />
	<path fill="#4C4745" d="M433.9,562.7c0.7,1.1,2.1,5.7,0.5,6.1c-1.2-1-0.7-3.2-1.2-4.7C433.4,563.7,433.6,563.2,433.9,562.7z" />
	<path fill="#272524" d="M433.9,562.7c-0.2,0.5-0.5,1-0.7,1.4c0.2-1.5-0.8-3.6,0.6-4.8C433.8,560.5,433.8,561.6,433.9,562.7z" />
	<path fill="#151619" d="M326.1,177.7c-2.7-2.9-2-7.6-0.1-10.7C328.6,170.1,326.4,173.7,326.1,177.7z" />
	<path fill="#24252A" d="M327.7,157.7c0.4-1.3,0.7-2.6,1.1-3.8c3.3-0.6,0.3,4.5-0.3,5.9C327.3,159.5,328,158.4,327.7,157.7z" />
	<path fill="#303238" d="M322,211.3c-3.2-1.9-3.8-2.7-3.4-4.9C320,207,322.3,210,322,211.3z" />
	<path fill="#3A3C44" d="M325.6,330.8c-2.2-1.8-2.4-4-3.4-6.2C324.6,326.3,325.3,327.5,325.6,330.8z" />
	<path fill="#979CB0" d="M327.7,157.7c0.3,0.7-0.5,1.7,0.8,2.1c-1.1,1.6-1.5,4.5-3.1,5.4C326,162.7,326.7,160.1,327.7,157.7z" />
	<path fill="#8A8FA1" d="M318.7,314.4c-0.6-1.6-1.4-3.1-1.3-5C319,311.3,319.4,312.7,318.7,314.4z" />
	<path fill="#25262B" d="M326.7,186.6c-0.3-1.2-2.3-4.2,0.1-4.1C327.8,185.3,327.8,185.6,326.7,186.6z" />
	<path fill="#868A9B" d="M320.3,319.7c-1-1-0.9-1.8-0.5-2.6C320.9,317.6,321.2,318.3,320.3,319.7z" />
	<path fill="#6E7280" d="M329.1,191.1c-1.3-0.6-1.5-1.4-1-2.5C329.1,189.1,329.3,189.9,329.1,191.1z" />
	<path fill="#464851" d="M330.7,194.8c-1.5-1-1.3-1.5-0.2-2.1C330.6,193.3,330.6,193.8,330.7,194.8z" />
	<path fill="#1B1817" d="M366.2,65.1c0.5-0.4,1-0.9,1.5-1.3c3.3,2,6.7,4.3,8.6,7.6c-0.9,1-1.6,0.1-2.5,0.1c-0.4,0.7-0.9,1.5-1.4,2.4   c0.5,0.8,1,1.5,1.5,2.3c1.9,0.1,3.5,0.5,4.2,2.6c-0.7,3.6-4.9,2.3-7.6,2.2c-0.7-1.2,0.8-1.9,0.6-3.2c-1.6-2.6-0.1-5.1,1.1-7.6   c-1-1.3-1.9-2.6-3.6-3.4c-0.5,1.3-0.9,2.5-1.4,3.7c1.4,1.4,4.1,8.5,1,8.1c-0.3-1.3,0-3-1.3-4c-0.1-0.9-0.4-1.6-1.3-2   c-0.5,0.3-1,0.6-1.4,0.9c-0.9-0.2-0.8-1-0.9-1.6C364.6,69.7,366.1,67.7,366.2,65.1z" />
	<path fill="#0C0B0A" d="M428,54.7c-0.4,0.7-0.7,1.3-1,1.8c-4.9,1.2-10.7-3.2-15.2,0.2c-1.7,1.3-3.4,0.8-5.3,0.7   C407.4,51.9,425.7,50.1,428,54.7z" />
	<path fill="#141211" d="M424.8,63c-1.4,0.7-2.5,1.2-3.8,1.8c-1.1-0.4-2.1-0.7-3.3-1.1c-1.4,0.1-3.3,1.7-4.1-0.6   c3.2-2.7,6.8-3.9,10.8-4c0.4,0.8-0.2,1.3-0.4,2.1C424.2,61.7,424.4,62.2,424.8,63z" />
	<path fill="#ECD2C6" d="M366.9,74.6c1.3,1.1,1,2.7,1.3,4c3.1,0.3,0.4-6.7-1-8.1c0.5-1.3,0.9-2.4,1.4-3.7c1.7,0.8,2.6,2.1,3.6,3.4   c-1.2,2.5-2.8,5-1.1,7.6c0.2,1.3-1.3,2-0.6,3.2c-1.1-0.7-1.9-1.9-3.5-1.8c-0.7,0.3-1.3,1.4-2.1,1c-0.2-0.3-0.1-0.8-0.2-1.1   c0.6-0.1,1.3,0.1,1.4-0.9C366.2,77,367.3,76,366.9,74.6z" />
	<path fill="#322C29" d="M384.2,102.7c0.3-0.2,0.5-0.5,0.8-0.7c0.9,0.1,1.8,0.1,2.7,0.2l0,0c2.3,1.6,4.8,3.1,7.2,4.7   c-0.2,0.9-0.9,0.7-1.5,0.8C390.2,106,387.2,104.4,384.2,102.7z" />
	<path fill="#4D4745" d="M394.8,82.3c-1.9,0.3-3.1-0.7-4.4-2c0.4-0.5,0.8-0.9,1.1-1.2C393.2,79.7,394.3,80.6,394.8,82.3z" />
	<path fill="#383533" d="M395.5,82.6c1.6,0,3.7,0.4,3.4,2.7C397.2,85.4,395.8,84.6,395.5,82.6z" />
	<path fill="#675851" d="M393.3,107.6c0.6-0.1,1.3,0.1,1.5-0.8c0.7,0.3,1.3,0.5,2,0.8c0.4,0.5,0.8,1.1,1.4,1.9   C396.2,110,395,108.3,393.3,107.6z" />
	<path fill="#6D625D" d="M406.5,111.6c-1.6,0.7-2.2,0.4-2.6-1.2c0.6,0,1.3,0,1.9-0.1c0.2,0.3,0.5,0.5,0.7,0.8   C406.5,111.3,406.5,111.5,406.5,111.6z" />
	<path fill="#EECABA" d="M387.7,102.1c-0.9-0.1-1.8-0.1-2.7-0.2c-0.1-0.2-0.1-0.4-0.2-0.6C385.9,101.3,387,101,387.7,102.1z" />
	<path fill="#C2ACA3" d="M367.5,82.6c-0.2-0.2-0.5-0.5-0.7-0.7C367.2,81.8,367.5,82.1,367.5,82.6z" />
	<path fill="#EECABA" d="M388.5,102.7c-0.3-0.2-0.5-0.4-0.8-0.6C387.9,102.3,388.2,102.5,388.5,102.7z" />
	<path fill="#C0AAA1" d="M373.8,65.8c0.3,0.2,0.5,0.4,0.8,0.6C374.4,66.1,374.1,66,373.8,65.8z" />
	<path fill="#C0AAA1" d="M372.5,67c-0.2-0.2-0.4-0.4-0.7-0.7C372.1,66.6,372.3,66.8,372.5,67z" />
	<path fill="#C0AAA1" d="M373.2,67.7c-0.2-0.2-0.4-0.4-0.7-0.7C372.7,67.3,373,67.5,373.2,67.7z" />
	<path fill="#EECABA" d="M406.5,111.2c-0.2-0.3-0.5-0.5-0.7-0.8C406.1,110.6,406.3,110.9,406.5,111.2z" />
	<path fill="#221D1A" d="M383.6,107.6c0.1,0.2,0.1,0.4,0.1,0.6c-0.3,0.3-0.5,0.5-0.8,0.8c0,0,0,0,0,0c-0.8-1.2-2.4-2.3-1.8-4   c1.1-0.3,1.5,0.4,1.9,1.1C382.9,106.7,382.9,107.3,383.6,107.6z" />
	<path fill="#75635B" d="M382.9,109c0.3-0.3,0.5-0.5,0.8-0.8c0.9,1,1,2.4,1.8,3.9C383.6,111.3,383.6,111.3,382.9,109z" />
	<path fill="#75635B" d="M366.2,104.8c-1.2,0.2-1.6-0.6-1.8-1.6C365.5,101.8,366,103.9,366.2,104.8L366.2,104.8z" />
	<path fill="#6B5F5A" d="M362.7,112.3c0.2,0.3,0.5,0.7,0.7,1c-0.9,0.9-1.5-0.1-2.2-0.2C361.3,112.2,362.1,112.4,362.7,112.3z" />
	<path fill="#665750" d="M359.1,109.5c1.4,0.5,2.2,0.7,1.6,1.9C359.6,111.3,359.7,110.5,359.1,109.5z" />
	<path fill="#75635B" d="M383.6,107.6c-0.6-0.3-0.7-0.9-0.6-1.5C383.6,106.4,383.7,106.9,383.6,107.6z" />
	<path fill="#75635B" d="M382.2,108.2c0.2,0.2,0.4,0.5,0.7,0.7C382.6,108.7,382.4,108.5,382.2,108.2z" />
	<path fill="#4B65C5" d="M378.2,331.5c-4.2,2.6-8,5.5-12.7,7.2c-1-1.2-2.2-2.6-3.3-4c5.2-4.5,9.4-10.8,16-13.1   c5.7,0.9,1.8,6.9-0.7,9.3C377.9,331.2,378,331.3,378.2,331.5z" />
	<path fill="#253262" d="M346.7,331.4c-2.1,2.4-3.9-2.1-4.7-3.9c0.4-0.1,0.8-0.2,1.2-0.4C344.2,328.6,344.5,331.4,346.7,331.4z" />
	<path d="M378.7,309.1c0.8-0.1,1.5,0.1,1.7,1.1C379.5,310.3,379,309.8,378.7,309.1L378.7,309.1z" />
	<path fill="#4B65C5" d="M346.6,333.4c0.2-0.2,0.5-0.5,0.7-0.7C347.1,332.9,346.8,333.2,346.6,333.4z" />
	<path fill="#1A1A1D" d="M377.4,284.1c2.2,0,4.8-0.8,6.8,0.5C382,284.6,379.5,285.3,377.4,284.1z" />
	<path fill="#342E2C" d="M366.1,77.6c-0.1,0.2-0.1,0.4,0,0.6c-2.4,0.4-5.1-3.2-4.6-5.4c0.7,0,1.2-0.7,1.8-1c0.1,0.6,0.1,1.4,0.9,1.6   C363.6,75.3,365.4,76.2,366.1,77.6L366.1,77.6z" />
	<path fill="#C2ACA3" d="M362.8,72.1c-0.3,0.2-0.6,0.4-0.8,0.6C362.3,72.5,362.6,72.3,362.8,72.1z" />
	<path fill="#FBDFD3" d="M364.7,79.1c0,0.2,0,0.4,0,0.6c-0.2,0-0.4,0-0.5-0.1C364.4,79.4,364.6,79.2,364.7,79.1z" />
	<path fill="#C1A498" d="M543,524.1c-0.7-0.3-0.2-1-0.1-1.5c0.3,0.1,0.6,0.2,0.8,0.3C543.5,523.3,543.6,524,543,524.1z" />
	<path fill="#B2988D" d="M541.8,527.8c1.4-0.3,1.6,0.2,1.1,1.3C542.5,528.7,542.2,528.2,541.8,527.8z" />
	<path fill="#ECC8B9" d="M484.1,240.7c-9-10,11.5-4.1,13.9,0.7c-5,1-8.7-2.7-13.1-4.2C483,238.2,483.7,239.5,484.1,240.7z" />
	<path fill="#0A0908" d="M484.1,240.7c-0.3-1.2-1.1-2.4,0.8-3.5c4,1.6,7.7,4,11.8,5.3c-0.3,0.4-0.6,0.7-0.9,1l0,0   c-2.3,0-4.6,0-7,0.1C487.3,242.6,485.7,241.6,484.1,240.7z" />
	<path fill="#1F1C1A" d="M502.3,270.5c2.7,0.4,5.5,0.9,8.2,1.3c-2.1,2.3-6.6,0.8-9.1-0.5C501.7,271.1,502,270.8,502.3,270.5z" />
	<path fill="#2F2A28" d="M405.1,138.3c-1.9-1.5-6.7-1.8-6.8-4.4c2.7,0.5,4.9,1.5,7.5,3.7C405.6,137.9,405.4,138.1,405.1,138.3z" />
	<path fill="#49423E" d="M492.6,251.2c3.3,0.6,5.4,1.6,7.7,3.4C496.8,254.1,494.2,254.3,492.6,251.2z" />
	<path fill="#48403D" d="M476.5,225.8c1.7,1.5,2.2,3.4,2.6,5.5c-0.3,0.2-0.6,0.4-1,0.6C476.5,230.1,477.2,227.8,476.5,225.8z" />
	<path fill="#413B38" d="M489.6,250.6c-2.1-0.6-3.4-2.2-4.6-3.9c1.6-1.9,3.2,2.2,4.6,3C489.6,250,489.6,250.3,489.6,250.6z" />
	<path fill="#262321" d="M518.3,273.3c-3.2,0.3-4.2,0-6.3-1.7C514.9,271.5,516.4,271.9,518.3,273.3z" />
	<path fill="#1F1C1B" d="M532.1,278.8c1.7-0.8,2.9,0.6,4.4,1.5C534.2,280.8,534.2,280.8,532.1,278.8z" />
	<path fill="#6A605B" d="M494.3,269.4c0.2-0.2,0.5-0.5,0.7-0.7c2,0.1,3.9,0.4,5.8,1.2c-0.3,0.2-0.5,0.4-0.8,0.7   C498.1,270.3,496.2,270.1,494.3,269.4z" />
	<path fill="#554D49" d="M569.8,295c1.4,0.4,2.8,0.7,3.5,2.6c-1.9-0.1-3-1.3-4.2-2C569.3,295.5,569.6,295.3,569.8,295z" />
	<path fill="#5C514D" d="M612.1,328.4c0.4,0.7-0.3,1.8,0.8,2.2c-0.9,2.2-0.9,2.1-2.5,2.7C611.2,331.5,611.6,330.2,612.1,328.4z" />
	<path fill="#D6B6A8" d="M488.9,243.6c2.3,0,4.6,0,7-0.1C494.1,244.8,490.7,244.7,488.9,243.6z" />
	<path fill="#D6B6A8" d="M495.8,243.5c0.3-0.3,0.6-0.7,0.9-1c-0.8-0.3-1.6-0.7-2.3-1c1.2,0,2.4,0,3.6-0.1c0.2,0.2,0.5,0.5,0.7,0.7   c-0.8,0.2-0.8,0.7-0.6,1.3l-0.2,0.3C497.2,243.6,496.5,243.5,495.8,243.5z" />
	<path fill="#433C39" d="M540.5,282.6c-2-0.3-2-0.3-3.5-2c1.6-0.5,2.4,0.4,3.5,1.2C540.5,282.1,540.5,282.3,540.5,282.6z" />
	<path fill="#726762" d="M526.4,276.9c2.1,0.2,2.1,0.2,3.4,1.4C528.3,278.7,527.3,278.3,526.4,276.9z" />
	<path fill="#4F4744" d="M502.9,243.3c1.8-0.7,1.8-0.7,3.2,0.8C504.9,244.3,503.8,244.7,502.9,243.3z" />
	<path fill="#9D8D86" d="M475,222.7c-1.6-1.1-1.6-2.1-1.2-3.3C475.2,220,475,221.1,475,222.7z" />
	<path fill="#786B66" d="M569.8,295c-0.3,0.2-0.5,0.5-0.8,0.7c-1-0.4-2.2-0.5-2.7-2C567.8,293.9,568.8,294.4,569.8,295z" />
	<path fill="#D6B6A8" d="M500.1,242.8c0.6,0.1,1.2,0.1,1.1,1.2c-1.1,0.3-2.3,0.7-3.4-0.3c0,0,0.2-0.3,0.2-0.3   C498.8,243.5,499.8,244.1,500.1,242.8z" />
	<path fill="#7E716C" d="M405.1,138.3c0.2-0.2,0.5-0.5,0.7-0.7c0.9,0.5,1.7,1,2.9,1.7C406.9,140,406,139.1,405.1,138.3z" />
	<path fill="#635955" d="M524.8,275.4c-1.7,0.3-2.4-0.1-3.1-1C522.9,273.7,523.6,274.4,524.8,275.4z" />
	<path fill="#6A5E59" d="M457.2,214.7c-1,0.8-1.6,0.2-2.2-0.6C456.1,213.5,456.1,213.5,457.2,214.7z" />
	<path fill="#95857E" d="M451.7,212c-0.8,0.4-2.3-0.1-1.6-1C451,210.8,451.4,211.2,451.7,212z" />
	<path fill="#161413" d="M500.1,242.8c-0.4,1.3-1.3,0.7-2.1,0.6c-0.2-0.6-0.2-1.1,0.6-1.3c0.2,0.1,0.3,0.2,0.5,0.1   C499.5,242.4,499.8,242.6,500.1,242.8z" />
	<path fill="#8E807A" d="M414.9,148.5c1.2-0.1,1.7,0.4,1.1,1.6C415.6,149.5,415.2,149,414.9,148.5z" />
	<path fill="#443E3B" d="M418.8,175.8c-1.2-0.4-1.8-0.5-2.5-0.7C417.6,174.4,417.6,174.4,418.8,175.8z" />
	<path fill="#8A7B75" d="M509.8,244.8c-0.5,0.6-1,0.9-1.3,0.2C508.6,244.1,509.2,244.3,509.8,244.8z" />
	<path fill="#4D4642" d="M500.1,270.5c0.3-0.2,0.5-0.4,0.8-0.7c0.5,0.2,1,0.4,1.4,0.7c-0.3,0.3-0.6,0.5-0.9,0.8   C501,271.1,500.5,270.8,500.1,270.5z" />
	<path fill="#CDB7AD" d="M411.7,144.3c-0.2-0.3-0.4-0.6-0.6-0.9c0.7-0.4,0.7,0.3,1,0.8C412,144.2,411.8,144.3,411.7,144.3z" />
	<path fill="#82756F" d="M540.5,282.6c0-0.3,0-0.5,0-0.8c0.5,0.3,0.9,0.6,1.4,1C541.1,283.4,540.8,283.1,540.5,282.6z" />
	<path fill="#7C706B" d="M489.6,250.6c0-0.3,0-0.6,0-0.9c0.4,0.3,0.9,0.6,1.3,1C490.4,251.3,489.9,251.2,489.6,250.6z" />
	<path fill="#625752" d="M446,210.8c0.5,0,1,0,1.4-0.1c0,0.2,0,0.3,0,0.5c-0.5,0-1,0-1.4,0.1C446,211.1,446,211,446,210.8z" />
	<path fill="#6B615D" d="M502.7,255.2c-1.2-0.1-1.2-0.4,0-0.5C502.7,254.9,502.7,255.1,502.7,255.2z" />
	<path fill="#3C3A3B" d="M348.2,168.4c0.1-0.3,0.3-0.6,0.4-0.9C348.5,167.8,348.3,168.1,348.2,168.4z" />
	<path fill="#D6B6A8" d="M500.1,242.7c-0.3-0.2-0.6-0.3-0.9-0.5C499.5,242.4,499.8,242.5,500.1,242.7z" />
	<path fill="#544A46" d="M368.9,109c0.2,0.8,1.1,1.4,0.5,2.5c-1-0.1-1.3-0.9-1.4-1.7C368.4,109.5,368.7,109.2,368.9,109z" />
	<path fill="#877871" d="M368.9,109c-0.3,0.3-0.6,0.6-0.8,0.8c-0.6-0.6-0.9-1.3,0-2.3C368.4,108.1,368.7,108.5,368.9,109z" />
	<path fill="#EECABA" d="M384.4,115.3c0,0.7-0.1,1.4-0.1,2.1C383.3,116.4,383.4,116,384.4,115.3z" />
	<path fill="#4B65C5" d="M403.8,361.4c1.4,0,2.7,0,4.1,0c0.1,0.2,0.1,0.4,0.1,0.6C406.6,361.9,405,362.4,403.8,361.4z" />
	<path fill="#C9CFE6" d="M366,291.3c0.9-1.7,1.3-2.7,1.8-3.6c1.1-0.2,2.1-0.5,3.2,0.3C370.1,289.9,368.2,290.1,366,291.3z" />
	<path fill="#656875" d="M377.4,284.1c1,0.8,2.2,0.6,3.4,0.7c-3.1,1.6-5.8-0.1-9.5-0.5C373.8,283.7,375.6,283.9,377.4,284.1z" />
	<path fill="#808494" d="M379.5,289.6c-2.3,1.2-5.4,0.3-8,0.1c1.6-0.1,3.1-0.4,4.6-0.8C377,289.8,378.3,289.6,379.5,289.6z" />
	<path fill="#34363C" d="M379.5,289.6c-1.2-0.1-2.5,0.2-3.5-0.7c2.2-0.5,3.9-0.8,6.2-0.8C381.6,289.5,380.5,289.5,379.5,289.6z" />
	<path fill="#7F8494" d="M391.1,266.2c-1.5,0.8-2.6,0.1-3.8-0.9C388.7,265.2,390.1,264.7,391.1,266.2z" />
	<path fill="#61646F" d="M380.6,272.2c1.8,0,3.6,0,5.7,0C384.2,272.9,384.2,272.9,380.6,272.2z" />
	<path fill="#666976" d="M380.5,280.7c-1.4,0.7-2.8,0.4-4.1,0.1C377.7,280.3,379.1,280.4,380.5,280.7z" />
	<path fill="#7F8393" d="M365,289.5c-0.8-0.4-1.4-0.7-2.7-1.3c1.4,0,2.1,0,3,0C365.2,288.8,365.1,289.1,365,289.5z" />
	<path fill="#FBDFD3" d="M365.6,76.8c-0.8-1-1.8-1.9-1.3-3.4c0.5-0.3,0.9-0.5,1.4-0.9c1.9,0.9,1.5,3.7,0.4,5.1   C365.9,77.4,365.7,77.1,365.6,76.8z" />
	<path fill="#C2ACA3" d="M365.6,76.8c0.2,0.3,0.3,0.5,0.5,0.8C365.9,77.4,365.7,77.1,365.6,76.8z" />
</g>
</svg>