<?xml version='1.0' encoding='utf-8'?>
<svg xmlns="http://www.w3.org/2000/svg" version="1.2" baseProfile="tiny" id="Layer_2_00000083771623061107403790000000148529232435546530_" x="0px" y="0px" viewBox="0 0 900 600" overflow="visible" xml:space="preserve">
<g>
	<path d="M282.8,324.8c-40.4-6.9-80.7-49.9-43.8-86.6c5.4-6.5,13.7-11.5,21.4-14.8c12.4-2.7,21.4-12,31.2-19.4   c13.3-16.4,25.9-33.4,40.7-48.6c10.8-17.4,22.7-33.2,38-47.1c7.4-21.1-19.2-56.6-9.5-72.2c7.1-15.6,9-18.5,27-15.7   c8.3-10.7,23.9-16.3,36.7-11.8c-0.2,0.5-0.5,0.9-0.7,1.4c-0.5,0-1,0.1-1.5,0.1c0,0,0.1-0.1,0.1-0.1c-4.8-1.4-10.5-0.5-15.6-0.4   c-0.1,0.7-0.2,1.2-0.2,1.8c-3.1-0.2-6.2,1.3-7.8,4.3c4.5,1,8.5,0.9,12.9,2.3c-10.6,2.8-13.7-4.6-23.1,6.6c-0.6,2-0.6,4.2-2.4,5.8   c-0.5,1.4-1.7,1.5-0.1,2.6c0,0,0,0,0,0c-2.5,1.6-1.3,5.3-1.9,7.8c0.9,1.3,2.2,1.8,3.4,2.8c-0.3,0.9-1.1,0.8-1.8,1   c-0.6-0.2-1.2-0.4-1.9-0.6c0,0.8,0,1.3,0,1.8c0.7,0.8,1.3,1.6,2,2.3c-0.4,0.2-0.8,0.4-1.2,0.5c-2.4-3.1-1.4,2.4-1.5,4   c1.8,3.2,2.6,7.3,5.6,9.7c-0.5,0.5-0.9,0.9-1.5,1.5c0.7,1.6,1.2,3.4,2.3,4.9c0,0,0,0,0,0c0.2,0.5,0.6,0.9,0.7,1.4   c0.3,0.2,0.5,0.5,0.8,0.7l-0.1,0c0.1,0.8,0.8,0.8,1.4,0.8c-0.5,0.9-1.4,2.3,0.1,2.8l0,0c-0.1,0.6-0.1,1.2,0.7,1.5   c4.8,9.6,1.4,1.5,9.4,5l0,0c0,0.2-0.1,0.5-0.1,0.7c-1.2,0.9-2.4,1.7-3.5,2.5c0,5.2,0,10.2,0,15.5c12.9,1.9,20.8,14.7,32.9,16.3   c-0.5-8.6,5-20.7,14.7-20.5c6,1.5,16.2-1.2,10.6-8.9c0.2-0.6,0.3-0.9,0.4-1.3c0.3-0.2,0.6-0.4,0.9-0.6c0.3,0.1,0.6,0.1,1.1,0.2   c-0.3,0.7-0.9,1.4,0.2,1.9c5.8,9.6-7.6,12.6-14.7,11.4c-6,1.8-8.5,6.8-9.9,12.7c19.2,2.9,36.5,12.5,56.4,10   c23.5,0.5,47.1,6.7,70.9,5.2c2.5-1.6,4.8-0.2,6.5,1.5c-23.8,3.7-49.8-2.2-73.9-4.2c-14.2,0.4-31.1,5.7-43.9-1   c-9.8,0.9-18.9-1.7-27.3-5.9c-32.9-31.2-67.7,3-84.1,33.7c0.1,11.9,8.4,24.4,21.9,20.2c13.5-2.3,29.6-4.6,38.4-16.3   c-1.8-0.5-3.2-0.9-4.7-1.3c-1.6,1.8-3,3.5-4.5,5.3c-0.7-1.2-1.5-1.6-2.6-0.6c0,0,0,0,0,0c-0.5,0.2-0.8,0.8-1.3,0.8   c-0.3-0.2-0.5-0.5-0.8-0.7c1.8-2,4.2-3.3,5.1-6.1c-3.6-2.3-7.5-3.6-10.8-6.2c1.7-1.5,4.1-0.1,5.9,0.7c5.6,3.5,12.9,3.2,18.1,7.1   c7.4-0.8,14.9,1,22.2,1.6c2.3-1.5,2.3-1.4,4.7-1.1c9.7,0.8,20.4,1.9,29.5-2c8.9-2.4,19.2,0.4,28.6-0.2c26.4-1.3,52.3-6.8,78.2-11.4   c6.5-1.5,10.9,4.7,17.4,4.6c13.2,3.2,28.4-2.7,40.5,2.9c-1.5,2.3-4.6,0-6.8-0.2c-9.8-1.4-19.9,1.7-29.8,0   c-8.5,1.5-14.6-6.2-23.2-3.9c-30.4,4.3-60.6,12-91.4,9.9c16.1,2.8,32.1,7.6,48.4,9.2c28.9,1.9,57.3-6.4,85.3-9.7   c1.9,0.3,4.1,0.4,4.7,3c7.8,6.7,17.4,2.1,26.4,2.9c2.5-0.1,5,1.3,7.6,0.1c-3.3-6.2-12.6-2-17.4-5.8c0.2-0.5,0.4-1,0.5-1.4   c4.2-2.9,9.9-2.8,14.2-4.5c0.1,0.4,0.2,0.8,0.3,1.6c1-0.9,1.7-1.6,2.5-2.3c0,0-0.1-0.1-0.1-0.1c0.3,0.1,0.6,0.1,0.8,0.2   c0.2,0.2,0.5,0.5,0.7,0.7c0.2,0,0.4,0,0.7,0c-0.5,0.5-0.9,1-1.4,1.4l0,0c-0.6-0.1-1.2-0.1-1.5,0.7c-2,1.1-4,1.5-6.2,0.4   c-1.6,0.6-3.2,1.2-5.5,2.1c4.5,2.1,15.3,1,13.7,8.4c-4.7,2.5-10.4-1.3-15.6,0.1c-8,1.5-18.5,2.1-23.6-5.2   c-38.5,5-80.8,17.4-118.5,3.7c-9-0.7-18.1-3.5-26.6-5.5c-8.9,1.4-16.9,3.1-25.1,2.9c-4.8,14.3,0.2,30.9-7,44.5   c-0.7,18.7-24.1,17.7-37.4,18.1c-6.5,2.2-8.3,10.5-14.4,12.8c-13.8,8.1-31.2,12.2-39.8,26.9c20.1,7.5,40,16.2,58.1,27.9   c-0.2,0.9-1,0.8-1.6,0.9c-16.3-7.6-32.3-16.1-48.9-23c-4.2,1-6.5,4.3-9.7,6.9c13.9,8,29.3,12.3,41.2,23.4c-0.1,2.1,1.8,2.6,2.9,3.6   c3,2.7,6,5.4,9,8.1c0,0.5,0.2,0.8,0.8,0.7l0,0c-0.4,0.3-0.7,0.6-1.1,1c-26.9-22.3-59-37.3-91.3-50.6c-18.2,13-39.2,33.2-35.1,57.7   c6.8,2.7,13.8,5.6,20.8,8.4C284.7,325.1,283.6,324.4,282.8,324.8z M371.1,23.7L371.1,23.7c-0.8,0-0.8,0.7-0.8,1.3   c-0.5,1.2-2,1.9-2,3.7c0.9-0.6,1.5-1,2.1-1.5c0.2,0.2,0.4,0.4,0.6,0.6c-19.9,12.4-3.1,37.9,0.8,55.1c-0.1,0.6,0,1.2,0.6,1.6   c0,0.2,0,0.4,0.1,0.6c-0.2,1.5,0.6,2.6,1.2,3.9c0.3-2.1,0.6-4.2-0.4-6.1c0.1-0.2,0-0.4-0.1-0.6c0.4-3.1-1.5-5.8-0.5-9   c0.5,0.2,0.8,0.3,1.1,0.5c0.2,0.7,0.5,1.5,0.7,2.2c-0.1,0.2-0.1,0.4,0.1,0.6c1.9,9.6,1.3,18.7,1.4,28.5c4.1-4.7-0.5-18,2.1-23.3   c-0.1,0.2-0.1,0.3,0,0.5c1.4,6.8-0.1,14.3,1.3,20.7c0.4-0.4,1.2-0.7,1.4-1.2c0.1-6.2-0.8-11.9-0.6-18c0.3-0.3,0.5-0.5,0.8-0.8   c0.1,0.2,0.1,0.4,0,0.6c0.2,1.9-0.8,4.3,0.7,5.8c0,0,0,0,0,0c0.5,4.1-0.9,9.4,0.7,12.8c1.6-1.7,3.5-2.2,5.7-3   c-6.3-27.7-21.8-51.9-1.7-76.2c-4.6-1.7-9.9-0.9-14.6,0C371.5,23.2,371.3,23.5,371.1,23.7z M335.8,156.5c-3.9,4.9-8.7,9.1-12.6,14   c-0.4,0-0.9,0.1-1.4,0.1c-1.2,1.4-2.4,2.8-3.6,4.1c14.7,24,37.2,44.4,64.8,51.6c2.3-3.4,5.4-6.1,7.8-9.4c-7.6,0-15.1-1.6-20.7-6.6   c0.2-0.9,1-0.8,1.6-0.9c10.6,4.3,22.4,5.3,32.5-0.5c1.4,5.1-5.6,4.8-7.3,7.7c42,3.1,31.4-31.8,39.4-60.1c-2-0.5-4.1-0.9-6.1-0.4   c-0.6,9-1.4,17.7-4.6,26.2c-11.4,10.8-24.5,3.9-21.6-11.7c0.2-4.8,4.1-11.3,0.7-15.4c-0.8,0.2-1.6,0.4-2.5,0.6   c-13.1,18-60.5,30.1-65.9-0.3C336.1,155.9,336,156.2,335.8,156.5z M474.6,121.7c-2.6,0.2-5.6-0.9-7.8,0.7   c-9.9-4.2-21.6-6.7-32.2-9.9c-0.9,1.4-0.7,2.7-0.5,4.2c7.7,2.8,17.6,0.4,23.9,5.8c6.7,0.1,13.7,1.6,20.1-0.7   C476.6,121.7,475.6,121.7,474.6,121.7z M317.4,260.3c-17.8-8.7-34.6-20.5-44.2-38.4c-52.1,16.2-63,63.2-12.5,91.4   c1.3-23.7,15.1-45.4,36.2-56.2c-1.3-0.6-2.2-0.9-3.3-1.4c4.4-2.7,17,3.8,22.3,5.4l0,0c5.2,1.8,9,5.6,14.5,6.3   C326.2,264.2,321.8,262.9,317.4,260.3L317.4,260.3z M380.1,53.8c1.1,6.7,1.5,13.5,5.8,19.2c-0.1,0.9,0.3,1.5,1.2,2   c0.3-1,0.5-1.9-0.5-2.7c-2.9-10.9-6.6-20.5-6-32.1C378.4,43.2,379.6,50.1,380.1,53.8z M390.1,78.8c0.3,2.9-0.3,5.9,1,8.5   c0.7-1.1,1.2-1.8,1.6-2.4c-0.4-0.6-0.7-1.1-0.9-1.6c0.3-0.9,0.6-1.7,0.9-2.3c-1.3-2.1-1.1-4.9-3.1-6.3   C389.4,76.2,389.3,77.6,390.1,78.8z M413.1,169.5c0.7,1.9,1.4,3.7,2.1,5.7c1-0.2,2.1-0.4,3.2-0.6c-1.1,1.5-2.1,2.9-3.2,4.3   c0,1.4,0,3,0,4.7c3.2,0.5,6.1,0,8.3-1.9c1.7-8.7,4.3-17.4,3.8-26c-6.2,0-12.7,0-19.1,0c-0.3,8.6-6.8,23.9,4.7,27.2   c0.3-4.2-0.3-7.9-0.6-12C412.6,170.5,412.9,170,413.1,169.5z M331.7,265.1c0.5,0.2,1,0.3,1.1-0.5c2.4-2.8,3.7-5.8,4.2-9.3   c9.1-9.9,21.5-16.9,34.2-21c3.5-0.9,6.4-3.2,8.3-5.9c-10.7-2.5-20.3-7.9-29.5-13.6c-0.4,0.5-0.7,0.9-1,1.4c-0.5-2.8-2.5-4-4.8-5.3   c-13.5-7.4-19.5-22.2-27.9-34.2c-9.4,11.8-16.7,25.9-28.9,35.1c-4.3,2.3-8.9,4.8-12.2,8.4C288.4,241.4,311.4,252.7,331.7,265.1z    M338.7,261c-2.6,2.4-5,4.7-7.5,7.1c1,1,2.5,1.5,3.9,2.1c2.7-3.1,5.5-4.4,8.7-7C341.9,262.3,340.3,261.6,338.7,261z M393,98.6   c1,0,1.6,0,2.4,0c0.5-4,1-7.8,0.2-11.8c-0.5-0.3-1-0.5-1.5-0.8C390.1,90,391.9,94.2,393,98.6z M387.6,86c-0.2,4.2-0.2,4.2,1.1,6.5   C389.1,90.3,388.8,88.3,387.6,86z M386.4,79.7c-0.1-2.1-0.3-4-1.9-6.2C384.5,76.2,384.9,78.1,386.4,79.7z M397.6,81.7   c-0.2,0.1-0.4,0.2-0.6,0.2c0.2,0.4,0.5,0.1,0.8,0C397.7,81.8,397.6,81.7,397.6,81.7z" />
	<path d="M402.4,289.7c10.9,7.1,20.8,15.7,31.5,23.1c21.4,38.8-36.1,90.5-50.2,126.2c3.3,4.8,7,11.4,12.6,13.8   c10.6,1.1,17.7,10.6,27.9,11.6c10.6-1.6,16.2,12.9,9.4,20.2c7.6,2.8,14.5,6,20.3,11.7c-0.3,0.3-0.5,0.5-0.8,0.8   c-27.2-16.3-58.1-18-89.2-17.5c2.6,2.1,4.9,3.9,7.4,5.9c9.7-1.2,16.6-0.2,21.1,9.5c-0.5,1.2-1.1,2.3-1.5,3.4   c-1,0.1-1.8,0.3-2.3,0.3c-9,17.8-51.4,26.5-63.9,9.1c-10.7,3.4-23.5,4.8-31.4-5.1c-0.9-0.8-2.2-0.5-3.5-0.7   c3.4-2.9,3.6-3.5,2.9-8.5c-9,4.9-14.5,14-20.9,21.5c-2.3,0.8-2.5,0.7-3-1.5c6.9-9.5,14.8-20.7,26.5-24.6c4.6-6-0.6-13.1,0.7-19.6   c3.4-4.2,6.3-9.8,12.5-8.8c13-25.3,14.2-55.9,21.2-83.3c4.1-13.7,16.9-22.6,26.1-32.8c-12-4.9-25-7.6-37.8-10.3   c-0.3-0.4-0.7-0.8-1.1-1.3c14.9-1,28.8,6.5,43.1,9.2c0.1,0.8,0.2,1.6,0.2,2.3c-19.4,19.4-31.3,28.5-32.3,58.1   c-1.6,16.8-9.9,32.5-10.8,49.3c-3,5.7-5.4,11.7-7.7,17.6c-1.7,1-2.6,3-1.8,4.8c1.1,0.4,2,0.6,3.2,0.9c7.1-8.4,14.5-22.4,27-21.6   c10.6-35.6,86.1-112.2,54.6-143.7c0.2-0.6,0.7-0.5,1.2-0.5c16.8,12.6,11.6,39.9-2.2,52.7c0.3,0.6,0.5,1.2,0.8,1.7   c-7.7,14.8-15.2,29.9-22.7,44.7c-3.1,14.5-7.6,28.8-13.4,42.4c10.9,1.4,15.5-10.3,25.1-12.1c16.8-38.8,49.9-69.4,56.9-112   c-6.2-17.3-24.8-23.7-37.3-35.9C401.1,289.6,401.8,289.7,402.4,289.7z M351.7,473.4c-0.5-2.3-3.2-3.7-5.2-5.6   c-6.3,2.8-10,8.4-14.1,13.2c-7.3-3.8,9.4-15.3,13.6-16.4c-2.2-4.1-6.3-5.9-8.9-8.9c-14.2-2.9-20.5,31.2-32.5,19.8   c-0.4-1,0.2-2.1,0.2-3.1c-1.4-4.1,3.6-6,3-10c-3.6-0.6-4,0.5-6.2,3.1l0,0c-6.8,4.9,0.5,12.6-1,19c-1.1,4-2.2,8.5-5.1,11.5   c-1.8,1.3-2,2-0.8,3.7c7.6,11.3,20.8,6.6,31.9,6c15.9,16.8,47.7,5,61.8-9.3c-0.7-3.3-2.4-5.9-5-8.2c-6.9,4.9-15.6-0.2-21.7-4.3   c-4.6,4.3-5.5,5-9.1,6.4c-0.6-2.8-0.1-3.5,6.2-8.9c-0.9-0.4-1.7-0.8-2.6-1.3c-3.4,2.3-6.7,4.6-9.2,7.7c-6.1-3.5,4.1-8.7,7-10.9   C353.2,475.7,352.7,474.4,351.7,473.4z M432.3,481.9c1.8-2.5,0.3-6.8,0.7-9.9c-1.3-1.7-3.1-3.3-4.5-4.9c-12,1.9-20.2-8.1-30.7-11.3   c-1.7,0.9-3.3,1.8-4.8,2.6c-1.3-1.8,0.8-2.7,0.7-4.3c-0.7-0.3-1.6-0.6-2.5-1c-1.7,2.1-3.4,3.7-6.2,4.6c0.8-2.9,1-5.4,3.8-7.1   c-11.4-19.9-12.6-0.6-26.4,2.2c-2.5,0.6-5.3,0-7.4,2c-2.3-0.7-4.6-1.4-7-2.1c-0.9,2.2-1.8,4.2-2.7,6.4c1.6,1.1,2.9,2.4,3.3,4.4   c0.7,5.4,6.2,8.4,9.3,12.3c24.5,3.5,49.6-2.3,73.3,7.6C431.7,482.9,432,482.4,432.3,481.9z M364.5,412.6   c-9.4,12.7-18.6,26.2-24.2,40.9c0.9,0.5,1.6,1.8,2.8,1.7c2.5-3.7,5.8-6,9.8-5c5.1-12.8,10.8-25.7,13-39.1   C365.1,411.5,364.6,411.8,364.5,412.6z" />
	<path fill="#010101" d="M268.7,513.4c0.6,2.2,0.7,2.3,3,1.5c-3.1,4.2-6,8.5-8.7,12.9c-0.1-0.4-0.2-0.8-0.4-1.8   c-0.6,1.8-0.7,2.5-1.3,3.7c0.1-0.2,0.2-0.3,0.3-0.5c0.3,0,0.5,0,0.8,0c0,0.4,0,0.9,0.1,1.3c-21.3,30.8,36.5,31.1,54.2,38.8   c0.5,0.9,1.4,0.7,2.2,0.6c-0.2,0.3-0.5,0.5-0.7,0.8c-10.2-1.1-20-4.2-30-6.5c-10.7-4.1-26.9-5.8-33.3-17.1c0.7,0.1,1.2,0.2,1.6,0.3   c0.3-0.9,0.5-1.8-0.3-2.6c-0.1-1.1-0.2-2.1-0.3-3.1c-2.9,0.5-6.2,1.6-8.6,3.9c0.6,1.5,1.1,2.9,1.6,4.3c-3.4,1.8-1.9,5.8-2.2,9   c2.3,2.3,3.5,6,7.2,5.5c43.4,24.2,109.8,29.1,158.9,22.2c23.8-3.6,55.2-2.9,73.6-19.9c0.5,0.2,0.8,0.3,1.1,0.5l0,0   c0,0.2,0,0.5,0,0.7c0,0,0,0,0,0c-18.4,25.3-94.3,24-125.3,26.2c-32.6-8.1-106.9-4.6-117.7-41c-2-8.4,5.3-12.5,12.3-14.9   c0.2-0.7,0.5-1.3,0.7-2c0.6-0.2,0.6-0.6,0.4-1.1c2.3-5.7,5.1-11.3,7.9-16.8c1,1,1,1,1.3-0.2c-0.5,0.1-0.9,0.2-1.3,0.3   C266.3,516.4,267.4,514.9,268.7,513.4z" />
	<path fill="#070706" d="M424.5,8.6C418,5,408.4,8.8,401.4,9.3c14.2-6.1,46.8-2.4,53.6,13.3c3.1,8.8,11.9,18.9,4.2,27.6   c1.2,0.4,1.3,0.4,2.8,0.6c-1.1,0.9-1.8,1.5-2.6,2.1c0.5,6.6,11.9,14.2,1.6,18.1c-0.2,1.7,0.9,4-0.8,5l0,0c-1.6-1.6-1.9-3.2-1.8-5.4   c-1.1,0.1-1.9,0.1-3,0.2c0.6-2.9,3.5-3.6,5.5-2c1-0.5,1.7-1,2.4-1.4c-1.8-7.3-11.9-16.5-2.5-22.7c-2.2-6.6-4.2-12.8-6.2-18.9   c-0.8-0.4-2.4-1.2-2.6-1.3c-1.6-0.3-1.2,1.5-2.3,0.6c-2.8-2.7-4.5-6.4-8.2-8c-0.7,0.3-1.3,0.6-1.9,0.9c-6.2-3.6-12.9-4.7-19.9-5.2   c1.8-3.9,10.5,1.6,14.2-0.6c0,0,0,0,0,0c0.3,0.7,0.9,0.7,1.5,0.6c2.1,0.5,3.5,2.9,5.8,1.9c0.3-0.2,0.9,0.1,1.3,0.3   c3.2,0.8,8.4,8.6,10.6,7.3C445.9,13.8,435.3,10.2,424.5,8.6z" />
	<path fill="#090808" d="M591.8,120.3c0.7-0.5,1.8,0.4,2.1-0.8c4.8-2.2,10.1-0.5,15.2-1.2c3.1,0.5,5.5,2.8,8.8,1.9   c5.2-0.7,9.7,2.5,14.3,4.3c2.9,0.9,3.2,3.9,4.9,6c-1.1,3.9-7.9,3.3-10.6,1.7c-8.3,3-4-3-11.8-3.5c-0.2,1.4,1.8,1.4,1.8,2.7   c-4-0.4-6.3-3.8-8.7-6.6c-7.3-1-9.3-7.5-16.9-2.3l0,0c-1-0.4-1.2,0.8-2,0.8c-0.8-0.3-1.8,0.3-2.3-0.8l0,0c0.8,0,1.7,0.4,2.1-0.7   l0,0c0.7,0.1,1.2,0,1.4-0.8l0,0C590.9,121,591.5,121,591.8,120.3z M629.1,127.2c-3.1-3.2-5.9-6.6-11.2-5.5c5,2.2,9.1,4,11.7,9   c1.6-0.3,3.5,0.8,4.7-0.5C632.6,129.2,630.9,128.2,629.1,127.2z M612.1,125.8c4.5,0.1,9.5,6,14,3.5c-6.5-3.7-15-11.3-22.5-8.5   C607.1,122.4,609.1,122.7,612.1,125.8z" />
	<path fill="#040405" d="M476,527.1c3.3,4.4,5,9.9,6.1,15.3c2.4,2,5.5,2.8,8.3,4c3.6,1.1,5.1,4,6.3,7.2c3.2,6.5-3.3,10.3-7.9,13.4   c0,0,0,0,0,0c-0.5,0-0.9,0-1.4,0l0,0c12-10.5,6.7-15.7-5.5-21.9c-0.5,3.3-2.3,6-4,8.9c-0.3-0.3-0.5-0.5-0.7-0.6   c0-0.2,0.1-0.4,0.2-0.6c4.5-7.6,0.5-16.4-2.3-24.2C475.5,528.1,475.7,527.6,476,527.1z" />
	<path fill="#070909" d="M453.1,497c0.3-0.3,0.5-0.5,0.8-0.8c8.9,5.9,17.8,14.8,20.1,25.6c-0.2,0.5,0,1.3-0.8,1.6   C468.7,513.2,459.7,505.7,453.1,497z" />
	<path fill="#161414" d="M625.5,147.5c-0.2-0.9-1-0.8-1.7-1c0.7-0.5,1.5-1.1,2.3-1.7c-2-3-3.6-7.1-7.8-5.3c-3.4-0.5-7.9,1-10.7-0.8   c0.7,0,1.4-0.2,1.6-1c5.7,1.3,13-3.6,16.6,2.9c6.9-2.9,16.3-3.7,23.3-2c-6.8,2.3-15.9-0.5-21.9,3.9   C628,145.9,628,145.9,625.5,147.5z" />
	<path fill="#141211" d="M673.4,142.3c0.6,0.4,1.3,0.8,2.1,1.3c-0.7,1.1-1.3,1.9-1.8,2.6c-5.9,1.7-13.2,3.5-18.2-0.2   c5.7-0.8,11.2,1.5,16.6-1.3c-4-2.2-8.8-0.1-13.1-0.8c-3.1-0.5-5.8,0.2-8.6,1.3c-0.2,0.3-0.4,0.5-0.6,0.8l0,0   c-0.3,0-0.5-0.1-0.8-0.1c-0.1-0.8,0.4-1.5,0.7-2.2c3.2-1.1,6.4-2.5,10-1.5C664.2,142.7,668.8,140.8,673.4,142.3z" />
	<path fill="#100E0E" d="M609.1,137.8c-0.2,0.8-0.8,1-1.6,1c-2.5-1.9-1-4.6,0.9-6.3c-2.8-2.9-6.4-3.1-10.1-3.8   c-0.6-0.8-2.3-1-1.8-2.7c2.7-0.4,5.6,1.6,8.5,1.5c3.1,1.3,6.3,5.7,10.2,3.5c0.4,0.1,0.9,0.1,1.6,0.3c0-1.4-2-1.3-1.8-2.7   c0.9-0.4,1.4,0.4,2.1,0.6c0.9,0.4,2.3,0.1,2.6,1.2c-0.6,0-1.2-0.1-1.7-0.1c-1.1,1.1,0.8,1.6,0.3,2.6c-2.2,1.8-2.4,1.9-7.3,1   c-1.1,0.7-2,1.5-3,2.5c0.5,0.4,0.8,0.7,1.1,1C609.1,137.5,609.1,137.6,609.1,137.8z" />
	<path fill="#141313" d="M320.4,332.4c-1.1,0.1-2.2,0.1-3.4,0.2c0.4,0.5,0.8,0.9,1.1,1.3c-11.9-2-23.7-6-35.3-9.2   c0.8-0.3,1.9,0.3,2.4-0.8C296.9,326.7,308.6,329.8,320.4,332.4z" />
	<path fill="#21201F" d="M673.4,142.3c-1.5-0.3-3.1-0.5-4.6-0.8c1.1-0.3,2.2-0.6,3.1-0.9c0.5-0.7,0.5-0.8,0.3-1.7   c-5.6,0.2-11.2-0.1-16.4-2.2c-2.4,0.7-4.6,1.4-6.9,2c-2.8-1.7-7.1-0.3-10.3-0.8c7.9-0.4,15.8-3.4,23.7-1.7   C666.2,138.2,678.6,134.9,673.4,142.3z" />
	<path fill="#201C1A" d="M460.2,76c0.8-0.3,0.8-1.1,0.9-1.7c1.3,2.2,1,4-1.3,5.3c2,2.5,1.6,4.7-0.3,7c-1.1-0.4-0.5-1.2-0.2-1.9   c-0.5-0.1-0.8-0.2-1.1-0.2c0.4-0.6,0.9-1.3,1.5-2.1c-1-0.9-1.8-1.6-2.4-2.2c-1.9,0.2-3.4,0.4-4.9,0.6l0,0c-0.5-0.2-1-0.4-1.5-0.5   c-0.2-0.4-0.5-0.9-0.9-1.5C453.6,77.4,457.8,80.1,460.2,76z" />
	<path fill="#201F1E" d="M568.9,127.3c-1.8-1.7-4.1-3.1-6.5-1.5c1-3.8,13.7-0.4,17.3-0.1c-3.2,2-6.2,2.8-9.5,0.7   C569.7,126.8,569.3,127.1,568.9,127.3z M568.3,125.3c-0.1,0.1-0.3,0.2-0.4,0.3c0.2,0.3,0.5,0.1,0.8,0   C568.5,125.5,568.4,125.4,568.3,125.3z" />
	<path fill="#2A2726" d="M579.7,125.8c-0.6-0.2-1.1-0.5-1.7-0.7c2.9-0.9,5.8-2.4,8.8-2.8c0.5,1.1,1.5,0.5,2.3,0.8   C586.1,124.5,582.9,125.4,579.7,125.8z" />
	<path fill="#443F3B" d="M649,145.9c2.1,0.6,4.3,0.3,6.5,0.1c0.5,0.4,0.9,0.8,1.4,1.2c-2.4,0.3-4.8,0.6-7.1,0.8   c-0.2-0.2-0.5-0.5-0.7-0.7c-0.2,0-0.4,0-0.7,0C648.5,146.8,648.8,146.4,649,145.9z" />
	<path fill="#33302F" d="M402.4,289.7c-0.6,0.1-1.3,0-1.4,0.8c-1.4-1-2.9-1.9-4.3-2.9c0.6-0.1,1.4,0,1.6-0.9   C399.6,287.6,401,288.6,402.4,289.7z" />
	<path fill="#313E43" d="M473.2,523.5c0.8-0.2,0.6-1,0.8-1.6c0.7,1.7,1.3,3.4,2,5.2c-0.3,0.5-0.5,1-0.8,1.5   C474.5,526.8,473.8,525.2,473.2,523.5z" />
	<path fill="#E1C7B6" d="M615.5,137.4c-1.1,0.8-2.4,0.6-3.7,0.6C612.9,136.8,614.3,137.4,615.5,137.4z" />
	<path fill="#211E1D" d="M649,147.4c0.2,0.2,0.5,0.5,0.7,0.7c-0.7,0.2-1.4,0.5-2.1,0.7C648,148.3,648.5,147.8,649,147.4z" />
	<path fill="#2A2726" d="M588.9,121.6c-0.4,1.1-1.3,0.8-2.1,0.7C587.5,122,588.2,121.8,588.9,121.6z" />
	<path fill="#2A2726" d="M590.3,120.8c-0.2,0.8-0.8,0.8-1.4,0.8C589.4,121.3,589.9,121.1,590.3,120.8z" />
	<path fill="#211E1D" d="M646.1,149.4c0.3-0.7,0.8-0.7,1.5-0.7C647.3,149.4,646.8,149.5,646.1,149.4z" />
	<path fill="#2A2726" d="M591.8,120.3c-0.3,0.7-0.9,0.7-1.5,0.5C590.8,120.6,591.3,120.5,591.8,120.3z" />
	<path fill="#2A2726" d="M594,119.5c-0.3,0.7-0.9,0.7-1.5,0.6C592.9,119.9,593.5,119.7,594,119.5z" />
	<path fill="#2D8FB9" d="M257.9,535.1c0.2,0.5,0.2,0.9-0.4,1.1C257.3,535.6,257.3,535.3,257.9,535.1z" />
	<path fill="#373A46" d="M487.4,567.1c0.5,0,0.9,0,1.4,0c-0.4,0.3-0.9,0.5-1.3,0.8C487.5,567.6,487.5,567.3,487.4,567.1z" />
	<path fill="#40A6CA" d="M455.1,496.9c-0.1-0.1-0.3-0.2-0.4-0.3C454.8,496.6,455,496.7,455.1,496.9z" />
	<path fill="#40A6CA" d="M455.9,497.5c-0.1-0.1-0.3-0.2-0.4-0.3C455.6,497.2,455.7,497.4,455.9,497.5z" />
	<path fill="#E1C7B6" d="M609.1,137.8c0-0.2,0-0.3,0-0.5c0.2,0.2,0.4,0.3,0.6,0.5C609.5,137.8,609.3,137.8,609.1,137.8z" />
	<path fill="#373A46" d="M488.9,567c0.3-0.2,0.6-0.4,0.9-0.6C489.4,566.6,489.1,566.8,488.9,567z" />
	<path fill="#373A46" d="M486.7,568.5c0.3-0.2,0.5-0.4,0.8-0.7C487.2,568,487,568.2,486.7,568.5z" />
	<path fill="#F6D9C7" d="M393.7,311.3c8.7,9,6.9,18.8,5.8,30c-15.2,39.8-44.3,72.8-61.6,112c-12.5-0.8-19.8,13.2-27,21.6   c-1.2-0.3-2.1-0.5-3.2-0.9c-0.9-1.8,0.1-3.9,1.8-4.8c8.7-3.8,6.5-15.4,10.7-22.2c0.2-2.7,1.7-5.2,2.1-7.9l0,0   c1.8-2.5,0.9-6.4,4.3-7.8c-2.2-9.9,5.5-20.5,7.2-30.2c1.8-26.1,10.1-32.2,29-47.6c0.2,0.4,0.4,0.6,0.5,0.8c0.1,1.1-0.9,2.3,0.1,3.4   c1.5,0,1.2-1.5,1.9-2.2c1.2-1.4,0.5-3.1,1.4-5c-1,0.3-1.6,0.6-2.2,0.8c0-0.5-0.1-1,0.1-1.4c1.4-2.2-0.2-3.7-0.4-5.8   c3.6,1.6,6.8,3.6,10.8,4.3c0.5-6.6-6.8-11.3-12.7-12.1l0,0c-32.1-10.4-66.8-19.6-94.9-39.6c2.9-17.3,19.1-28.7,32.1-38.8   C332.7,271.8,367.1,286.8,393.7,311.3z M351.5,368.8c-5.2,7.6-11.1,17.4-11.5,26.5c0.5-0.2,1-0.5,1.5-0.7   c2.9-8.7,12.5-16.9,13-27.2c1.5-1.7,3.4-3.2,4.4-5.3C355.4,360.9,353,366.3,351.5,368.8z M388.9,331.6c0.5,3.1,0,6.9,2.3,9.2   c3.8-3.4,4.4-7.6,2-13.5c-0.9-0.4-1.9-0.8-2.8-1.2c-0.6-0.6,0.1-2-1.4-2C388.9,326.6,388.9,329.1,388.9,331.6z M386.6,355.4   c-1.3,3.5-2.9,6-0.8,9.2C386.9,361.4,387.2,358.7,386.6,355.4z M387.2,351c1.2-0.7,1.2-0.7,0.1-2.1   C386.7,349.6,386.6,350.3,387.2,351z M386.4,344.2c-0.2,0-0.4,0.1-0.6,0.1c0.1,0.5,0.2,1.1,0.3,2.1   C386.7,345.3,386.9,345.2,386.4,344.2z" />
	<path fill="#F6D9C7" d="M579.7,125.8c4-0.4,7.8-1.9,11.5-3.5c0,0,0,0,0,0c1-0.5,2.1-0.7,3-1.3c0.2,0,0.4,0,0.5-0.2   c0.8,0.1,1.7,0.1,2.3-0.5c3.9,1,6.9,4,11,4.4c2.1,2.5,4,5,7.1,6.3c-3.8,2.2-7-2.2-10.2-3.5c-2.9,0.1-5.8-1.9-8.5-1.5   c-0.5,1.7,1.2,1.8,1.8,2.7c-3.4,3.1-8.4,4.7-12.7,6.5c-1.9,1.2-3.5,2.8-5.8,1.9c-18.5-1.2-38,3.5-56.7,3.9   c-21.2,3.1-44.4-2.4-64.3,6c-21.2-6.6-43.5-0.1-65.2-4.3c5-4.8,18.5-8.4,18.9-16.3c-9.4-4.2-18.7,7.3-27.7,9.5   c-7.5-2.4-11.5-2-9.3,6.4c0.5,1.1,1.1,2.8,2.5,1.9c0.3-0.6,0.6-1.2,0.9-1.9c0.8,0.4,1.4,0.7,2.1,1c-0.7,0.3-1.2,0.5-1.9,0.9   c2,1.3,3.8,2.5,5.7,3.8c0.1,0.4,0.3,0.9,0.5,1.4c-6,6-14.3,10-18.8,17.5c-0.8,1.6-1.8,2.7-3.8,2.7c-8.5,4.8-19.5-2.7-21.6-11.6   c-0.9-2.6,0.5-5.6-1-8c54.5-85.9,70.4-25.3,111.4-27.8c12.9,6.7,29.7,1.4,43.9,1c24.3,1.4,51.5,9.4,75,3.4   C573.5,128.6,576.4,127.8,579.7,125.8z M483.1,130.8c-2.4,0.7-4.8,1.5-7.2,2.2c1.9,6.2,10.3-1.2,12.3-4.3   C485.8,128.7,484.9,130,483.1,130.8z M461.7,141.2c-11.1-0.1-4.4,8.2,0.7,0.7C462.1,141.7,461.9,141.5,461.7,141.2z M491,128.4   c1.9,0.6,2.9,0,3.8-1.3C492.9,126.5,492.9,126.5,491,128.4z M421.1,118.1c0.6-2.2,0-2.5-2.9-2C419.2,116.8,420,117.3,421.1,118.1z" />
	<path fill="#F6D9C7" d="M396.6,287.5c14.1,12.6,34.2,20.4,41.6,38.8c-7,42.7-40.2,73.2-56.9,112c-6.8,0.6-10.1,7.4-16,10   c-0.4-0.1-0.9-0.2-1.2-0.3c2.2-18.3,13.8-35.5,13.2-54.3c4.9-10.2,9.4-20.6,15-30.4c-0.2-0.5-0.5-1-0.8-1.7   c6.1-4.7,8-12.1,11.6-18.4c3.4,0.1,6.8-0.3,8.6-3.7c-0.9-0.9-1.6-1.8-2.4-2.6c-2,0-3.7-1.2-5.6-0.8c3.5-23.2-13.4-26.8-24.5-41.3   c-11.9-11.1-27.3-15.4-41.2-23.4c3.2-2.6,5.5-6,9.7-6.9C364.3,271.5,380.3,280,396.6,287.5z M428.2,329.7c-1.2,0.6-0.8,2-1.5,2.8   c-1.7-3.5-3.5-6.5-7.2-7.9c-12.2,3.8,7.2,16.8,10.1,5.1C429,329.7,428.6,329.7,428.2,329.7z M429.5,325.9c1-2.3,0.4-10-3.7-9   C424,319.8,428.5,323.2,429.5,325.9z M402.2,356.8c-1.1,1.5-3.2,9.5-1.4,10.4C401.7,364.1,406.1,359.1,402.2,356.8z M393.5,385   c1.1-2.6,3.9-4.3,2.9-6.5C394.4,380,393.2,381.8,393.5,385z M390.3,389.1c1.6,0.6,4.6-0.9,3.2-2.7   C392.5,387.4,391,387.6,390.3,389.1z M397.6,373.8c1.5-0.9,1.6-2.1,1-3.5C396.9,371.2,397.4,372.4,397.6,373.8z" />
	<path fill="#FFF0A7" d="M336.5,156.7c6.2,29.1,52.8,16.8,65.6-0.8c0.9-0.2,1.7-0.4,2.5-0.6c3.4,4-0.5,10.6-0.7,15.4   c-2.8,15.6,10.2,22.4,21.6,11.7c3.1-8.5,4-17.3,4.6-26.2c2.1-0.5,4.1-0.1,6.1,0.4c-3.1,15.2-4.9,30.2-7.5,45.4   c-1.4,10.5-13.7,7.2-21.1,6.8c-2.3-5.4-10.1-1.6-14-2.1c-8.1-5.7-20-0.3-25.3-9.9c-2.2-3.8-1.1-9.1-4.5-12.2   c-0.9,0-1.9,0.1-2.9,0.1c-3.5,5.9-1.4,15.2,3.4,19.9c0,0.2,0,0.5,0.1,0.7c0.3,0.2,0.5,0.5,0.8,0.7l0,0c1.8,2,4.1,3.5,5.8,5.5   c-0.7,3.3-5.7,2.7-7.2,5.8c-0.1,0.2-0.7,0.2-1,0.2c-4.3-2.4-8.5-4.7-12.7-7.2c-0.6-2.2,2.9-7.3-0.3-7.7c-2.1,1.6-0.5,4.2-1.4,6.1   c-0.3,0-0.7,0.1-1,0.1c-10.9-10.4-21.5-20.8-29.1-34.1c1.2-1.3,2.4-2.7,3.6-4.1c0.6-0.1,1-0.1,1.4-0.1c3.9-4.9,8.7-9.1,12.6-14   C336.1,156.6,336.3,156.6,336.5,156.7z M337.4,170.3c0.9-0.9,3.6-2.6,1.2-3.6c-1.4,0.4-1.7,2-2.7,2.9c-1,0.6-1.4,1.4-1.3,3.2   c0.6-1,0.9-1.4,1.2-1.8C336.5,170.9,336.9,170.5,337.4,170.3z M331.3,179.8c-0.3-0.1-0.6-0.4-0.8,0   C330.8,180.3,331,180.2,331.3,179.8z" />
	<path fill="#F6D9C7" d="M351.8,215.9c3.7,2.2,7.5,4.4,11.4,6.5c-17.9,12.8-39.8,7.4-52.8,29.3c-14.7-6.5-25.9-18.6-35-31.4   c3.3-3.6,8-6.2,12.2-8.4c12.3-9.3,19.5-23.4,28.9-35.1c8.7,12.9,15.6,28.3,30.3,35.7c-0.3,2.9,0.3,5.5,2.5,7.7   C350.7,218.9,350.5,217.2,351.8,215.9z M338.1,221.6c0.1,0.2,0.2,0.4,0.3,0.5c0.1-2.1,1.7-10.9-1.3-10.3c-0.7,1.8-1.9,3.4-3.3,4.7   c0,2.6-0.5,5.1,2.2,6.6C336.8,222.6,337.5,222.1,338.1,221.6L338.1,221.6z M305.4,242.7c-2.3,1.1-3.2,5.9,0.2,4.7   C305.4,245.7,305.3,244.4,305.4,242.7z M307.1,239.6c1.8-1.7,1.8-1.9,0.5-3.5C307,237.2,307,238.3,307.1,239.6z M309.2,234.1   c0.4-1.6,0.2-2.3-0.9-2.9C307.9,232.3,307.9,233.1,309.2,234.1z" />
	<path fill="#F6D9C7" d="M460.2,76c-2.3,4.1-6.5,1.4-10,2.7c0.7,1.1,0.9,2.6,2.4,2.1l0,0c1.4,2.4,6.3,1.9,4.5,5.5   c11.6,17.3-46.5,3.9-43.5-8c-2.4-0.5-2.1-4.4-4.5-0.9c-0.3-0.2-0.7-0.4-0.8-0.6c-0.7-3.7-4.4-3.2-6.6-5.1c0.8-1.9,3.2,0.4,4-1.9   c-2.5-4.4-5-6.6-0.2-11.2c0.6,1,1,1.6,1.3,2.2c-0.7,1.2-1.3,2.1-1.7,2.9c1,2.4,1.8,4.4,2.7,6.8c1.6-0.9,2.6-2,3.1-3.5   c-0.5-2-2.5-2-3.6-3.2c1.6-2.1,2.3-3.5,0.7-5.8c0.6-0.3,1.2-0.6,1.8-0.8c2.4,2.5,10.9-0.5,6.3-3.3c3-3.7,8.3-5.6,11-9.4   c-0.4-0.2-0.8-0.4-1.1-0.5c0.5-0.5,1.1-1.1,1.5-1.6c-0.1-0.6-0.2-1-0.3-1.4c0.8-0.5,1.7-1.1,2.1-1.4c0.7-4.7,3-8.1,2.5-12.7   c-1-0.1-1.1,0.3-1.6,0.9c-1.2,0.2-2.5-0.4-3.5,0.7c-0.2,0.1-0.4,0.1-0.6,0c0-0.4,0-0.8,0-1.1c0.7-0.1,1.3-0.1,2-0.2   c1.9-2.2,5.3-1,7.9-1.3c-0.1,0.3-0.1,0.7-0.2,1.2c3.1-0.4,3.4-3.1,6.8-2.1c1.1,0.4,2.6,2.3,3.5,0.8c1.2-0.2,2.4-0.5,3.6-0.7   c2.1,0.6,0.1-2.2,4.9,0.7c2,6.1,4.1,12.3,6.2,18.9c-9.4,6.3,0.7,15.4,2.5,22.7c-0.6,0.4-1.4,0.8-2.4,1.4c-2-1.6-4.9-0.9-5.5,2   c1.1-0.1,2-0.1,3-0.2C458.3,72.7,458.5,74.4,460.2,76L460.2,76z M449.9,57c-0.5-1.6-0.5-3.1,0.2-4.5c0.7-0.7,2-0.9,1.9-2.3   c-4.4-1-7.4,1.9-11.1,3.8c1.8,1.8,3.1,0.1,4.9,0.9c0,0.4,0,0.9,0,1.3C446.9,57,448.1,57.5,449.9,57z M455.1,48.2   c-5-4.5-12.7-5.3-16.7,0.6c2.9,0.1,4.8-2.1,7.4-2.1C449.2,47.2,451.4,49.9,455.1,48.2z" />
	<path fill="#FF9A77" d="M236.5,245.2c8.2-13.4,23.2-17.1,36.7-23.3c7.1,12.7,17.5,22.9,29.8,30.6c-0.2,0.4-0.3,0.8-0.5,1.4   c1.5,1,3.1,2,4.7,3.1c-0.4,0.3-0.6,0.4-0.7,0.6c-3.9-0.6-9.3-4.4-12.8-1.9c1,0.4,1.9,0.8,3.3,1.4c-14.1,7.6-25.9,19.7-31.7,34.8   C251.5,280.2,237.7,263.8,236.5,245.2z M260.8,269c0.5,0.8,1,1.5,2.1,1c-0.1-1-0.6-1.5-1.4-1.7c-1-1.1-2-2.3-3.3-3.8   c-0.5,0.4-0.8,0.7-1.2,1.2C258.6,266.9,259.7,268,260.8,269z M273.7,236.7L273.7,236.7c-7.7-3-9-3.5-12-3.1   c3.4,1.7,6.7,2.6,9.9,4.6c0,0,0,0,0,0c-0.3,0.2-0.5,0.4-0.8,0.6c-2,0.9-7.9-3.6-8.3-0.9c4.1,1.5,8.2,2.8,12,4.6   c0.4,0.1,0.8,0.6,1.3-0.2c-1.2-0.8-2.4-1.7-3.4-2.4c0-0.5-0.1-0.7-0.1-1c3.3-0.4,6.1,3.6,9.2,3.1c-0.3-2.8-4-2.2-4.9-4.6   c0.4-0.5,0.9-0.9,1.7-1.8C276.3,235.4,275.2,235.5,273.7,236.7z M258.7,244.6c0.7,1.4,2.3,0.5,3.5,0.8c-0.3,0.2-0.5,0.5-0.8,0.7   c-0.8-0.1-1.5-0.2-2.1,0.6c-1.3-0.1-2.7-0.2-4.1-0.3c0.6,1.8,2.6,0.2,3.3,1.7c-2.4,8.6-5.4,4-7.5,6.6c0.8,0.5,1.6,1.1,2.4,1.6   c0.8-0.1,1.4-0.1,2-0.2c0.8,1.1,0,2.7,1.5,3.2c1.6-0.6,0.6-2.4,1.6-3.4c6.3-1.9,13.8,0.9,19.7-2.8c-2.5,0-4.9,0-7.4,0   c-1.4-3.3-8,0.2-11.3-0.5c-0.2-1.6-0.1-3,0.7-4.4c11.1-0.2,22.2,6.7,32.6,6.6c-1.4-1.8-3.5-1.8-5.3-2.5c0-0.2-0.1-0.4,0-0.6   c2.2-1.8-16.5-6.8-18.5-6.6c-2.4-3.2-20.3-6.3-21.8-2.9c3.2,0.8,7,1.1,10.1,0.9C257.9,243.8,258.3,244.2,258.7,244.6L258.7,244.6z" />
	<path fill="#E1C7B6" d="M581,137.4c1.9,0.2,3-1.4,4.6-2.1c0.2,0.4,0.4,0.7,0.8,1.3c4.4-2.3,10.8-1.6,13.2-6.5   c-1.1,0.1-1.9,0.1-2.7,0.1c0.5-0.5,0.9-1,1.4-1.5c3.7,0.6,7.3,0.8,10.1,3.8c-0.7,1.3-2.3,1.9-2.3,3.5c-1.6,1.9-3.4,1.9-5.8,3.3   c2.9,0.9,4.2-0.2,6.4-1.1c2.9,2.7,7.7,0.8,11.5,1.4c-1.5,1-3.5,0.6-5.2,0.7c-0.7,1.9-1.2,2.6-2.5,4.2c3.3,0.5,6.8-1,9.2,0.7   c-11.6-0.2-23.1,1.1-34.7-0.6c-6.5,0.1-10.9-6.2-17.4-4.6c-35.2,7.6-71.4,11.7-106.8,11.5c-10.6,5.6-23.6,0-34.3,3.1   c-7.3-0.7-14.8-2.4-22.2-1.6c-5.1-3.9-12.5-3.6-18.1-7.1c-1.8-0.8-4.1-2.2-5.9-0.7c-0.5-0.3-0.9-0.6-1.5-1c0.8-0.3,1.3-0.6,1.9-0.9   c-0.8-0.4-1.4-0.7-2.1-1c-0.3,0.7-0.6,1.3-0.9,1.9c-0.7,0.4-1.4,0.4-1.8-0.4c2.6,0.1,1.3-2.2-0.7-1.5c-2.2-8.5,1.8-8.8,9.3-6.4   c9-2.2,18.3-13.7,27.7-9.5c-0.3,7.9-13.9,11.5-18.9,16.3c21.7,4.3,44-2.3,65.2,4.3c19.9-8.4,43.1-3,64.3-6   c18.7-0.4,38.2-5.1,56.7-3.9c-0.5,0.2-1,0.4-1.6,0.6c1.8,1.4,1.9,1.5,5.3,0.7C582.6,138.1,581.8,137.7,581,137.4z M395.9,138.1   c-3.1,0.7-9.2-1.7-10.6,0.8C388.3,141.2,393.3,141.2,395.9,138.1z M400,135.3c-1,0-2.1-0.7-2.7,0.7   C398.8,136.8,398.8,136.8,400,135.3z M403.8,133.5c1.2,0.6,1.7,0.3,2-0.7C404.7,132.7,404.7,132.7,403.8,133.5z M597,137.7   c1.6,1.3,2.1,0.8,2.5-0.3C598.8,137.5,598.2,137.6,597,137.7z" />
	<path fill="#E1C7B6" d="M267.3,294.7c0,0.6,0.1,1.2,0.1,1.9c28.1,20,62.9,29.2,94.9,39.6c-1.4-0.3-2.7,2.4-0.9,2.5   c0.8-1.1,0.8-1.1,0.8-2.5c5.9,0.8,13.2,5.5,12.7,12.1c-4-0.7-7.2-2.7-10.8-4.3c0.2,2.1,1.8,3.7,0.4,5.8c-0.2,0.4-0.1,0.9-0.1,1.4   c-0.2,0.1-0.3,0.2-0.5,0.3c0.3,0.2,0.5,0.4,0.7,0.7c-0.5,0.7-1,1.4-1.5,2.1c-0.1-0.2-0.3-0.4-0.5-0.8c-12.5,11-25.8,18.8-27.6,37.2   c0.3,14-10.3,27.1-8.6,40.6c-0.1,0.3-0.5,0.4-0.8,0.6c0-0.4,0-0.8-0.1-1.2c-1.4-0.2-2.2,0.9-1.2,2.1c-1.2,2-0.7,4.6-2.2,6.3   c0-0.7-0.1-1.3-0.1-2.1c-1.5,0.9-1.5,0.9-1.7,3c0.7-0.4,1.3-0.6,1.8-0.9c-0.5,2.2-1.2,4.4-2,6.6c-0.2-1.2,0.2-2.7-1.3-3.4   c-0.2-0.1-0.2-0.7-0.2-1c2.5-10.6,5.7-21.1,7.9-31.6c3.8-36.5,7.9-40.5,33.6-65.4c-0.1-0.7-0.1-1.5-0.2-2.3   c-31.4-9.8-65.5-12.2-95.6-26.3C262.5,310.4,264.3,299,267.3,294.7z" />
	<path fill="#EF8A6A" d="M236.5,245.2c1.2,18.6,14.9,35.1,28.7,46.6c-1.7,7.2-4.5,13.9-4.6,21.4   C234.7,296.2,215.3,275.3,236.5,245.2z" />
	<path fill="#E1C7B6" d="M310.3,251.7c13.1-22,34.9-16.5,52.8-29.3c5.6,1.8,10.4,5.3,16.4,6.1c-5.8,7.6-17.3,7.6-25,13.1   c-6.1,4.2-12.9,8-17.6,13.8c-0.5,3.7-3.6,13.2-8.4,8.4C322.9,259.1,316.3,255.8,310.3,251.7z M347.3,235.2   c1.9,0.2,27.5-5.2,17.9-6.2c-6.4,2.1-12.8,4-19.3,5.6c-0.7,0.1-1.6-0.2-1.8,1.2C345.2,235.6,346.3,235.4,347.3,235.2z M330.4,240.8   c2.6-1,6.2-2.8,6.8-5.3C334.1,235,331.9,238.3,330.4,240.8z M330,241.8c-2.2-0.6-5.7,1.3-4.3,3.6C327.1,244.3,329,243.8,330,241.8z   " />
	<path fill="#E1C7B6" d="M640.4,158.8c-9.4-1.2-19.6,4-27.8-3c-2.1-4.9-10.6-3.5-14.7-1.7c-40.9,10.3-83,11-123.6-0.7   c19.4-0.1,38.4,0.2,57.5,3.9c17.9-1.5,35.4-5.5,53.3-8.6c-0.8-1-2.2-0.1-2.6-1.3c9.8,0.5,19.5,0.1,29.3-0.1   C623.1,164.2,628.8,150.9,640.4,158.8z" />
	<path fill="#E1C7B6" d="M430.2,90.9c8.1,1.6,16.2,3.7,24.5,3.6c-3.9,2.5-8.2-0.5-12,1.3c-6.8,2.6-8.7,8.9-11,15.1   c-12.2-5.3-22.3-15.6-23.6-28.8c0.7,6.8-2,12.9-5,18.8c-1.4-0.5-2.9-0.9-4.3-1.4c0-5.3,0-10.3,0-15.5c0.6-0.9,4.7-2.4,3.7-3.2l0,0   c0.6-0.7,0.4-1.3-0.1-1.9c0-0.5,0-1,0-1.6c1.5,1,1.4,3.3,3.3,3.9c3.1-0.2,6.7-1.3,5.1-5.2c1.2,0.3,1.2,2.2,2.8,2.3   c0.1,0,0.2,0.4,0.2,0.6c-0.5-0.1-1.1-0.1-1.6-0.2c-2.1,10.4,10.9,11,18,13.5C430.1,91.6,430.2,91.2,430.2,90.9z M420.9,95.2   c1.5,1.4,2.6,4.4,4.6,4.5c-3-3.3-4.1-8.7-8.6-9.7C418.3,92.3,419.5,93.8,420.9,95.2z" />
	<path fill="#F6D9C7" d="M582.5,147.4c0.4,1.2,1.8,0.3,2.6,1.3c-26.4,4.6-52.8,12.5-79.1,4.4c19.8-4.2,39.8-5.9,59.7-9.6   C571.9,141.9,577.1,145,582.5,147.4z" />
	<path fill="#EBDA8F" d="M363.1,203.1c-3.5-4.8-5.3-13.1-2-18.4c0.9,0,2-0.1,2.9-0.1c3.4,3.1,2.2,8.4,4.5,12.2   c5.3,9.6,17.2,4.2,25.3,9.9c3.9,0.5,11.7-3.3,14,2.1c5.6,0.5,10.6,1.3,16.2,0.2c-7.1,6.9-17.6,8.5-27,7.7c1.7-2.8,8.8-2.6,7.3-7.7   c-12.8,7.2-37.3,5.7-40.7-10.8C362,199.5,362.9,201.4,363.1,203.1z M362.6,188.2c-0.9,0-1.3,1-0.7,1.6   C363.1,190.5,363.6,188.7,362.6,188.2z M361.1,192.9c-0.1,1.7-0.1,1.7,1.5,1.6C362.1,193.9,361.7,193.5,361.1,192.9z" />
	<path fill="#F5D8C7" d="M412.3,171c0.4,4.1,0.9,7.7,0.6,12c-11.4-3.4-5-18.6-4.7-27.2c6.4,0,12.8,0,19.1,0c0.5,8.6-2.1,17.3-3.8,26   c-2.3,1.8-5.1,2.4-8.3,1.9c0-1.7,0-3.2,0-4.7c1.1-1.4,2.1-2.8,3.2-4.3c-1.1,0.2-2.2,0.4-3.2,0.6c-1.1-1.5-2.3-10.2-4.4-7.8   C411.3,168.5,411.8,169.8,412.3,171z" />
	<path fill="#F5D8C6" d="M640.4,158.8c-11.6-7.8-17.4,5.4-28.6-11.5c4.4-2.4,10.1,3.1,13.7,0.2c2.5-1.5,2.5-1.6,1.6-4.9   c8.5-4.8,19.7-1.4,28.8-5.9c5.2,2.1,10.8,2.4,16.4,2.2c0.1,0.9,0.1,1-0.3,1.7c-7.2,3-15.3-0.2-22.3,3.1c-5.7,1.7-12.4,0.5-17.5,4.8   c-0.9-0.3-1.8-1-2.5,0.2c-0.2,0.1-0.4,0.2-0.6,0.1c-0.3,0.2-0.6,0.4-0.9,0.7c0,0,0,0,0,0c-1.7,1,0.7,1.6,1.5,2.2   c-0.2,0.4-0.3,0.9-0.5,1.4c4.8,3.7,14.1-0.4,17.4,5.8C644.5,159.9,642.4,158.9,640.4,158.8z" />
	<path fill="#D6C0A0" d="M373.1,82.3c0,0.9,0.3,2.2-0.7,2.8c-0.4-0.7,0.5-1.7-0.7-2.1c-0.4-0.7,0.5-1.8-0.8-2.1   c-3.9-16.6-20.8-45.6,2.9-53.7c-3.3,4.3-7.6,11.6-5.8,16.8c0.6-2,0.1-4.6,1.6-6c-0.5,3.1-0.5,20.6,2.9,20c0.1,0.4,0.3,0.8,0.4,1.1   c-1.3,0.4-1.1,1.6-1.2,2.6c-0.4-0.4-0.8-0.8-1.6-1.6c0.4,2.2,0.6,3.8,0.9,5.4c-0.7-0.1-0.8-1.5-1.8-0.6   C371.4,70.5,371.8,76.7,373.1,82.3z" />
	<path fill="#F5D8C6" d="M403.1,100.8c3-5.9,5.7-12,5-18.8c1.3,13.3,11.4,23.5,23.6,28.8c0,0.2,0,0.5,0,0.7c-1.1,0.7-0.8,2.3-1,3.4   C420.1,114.7,413.6,103,403.1,100.8z" />
	<path fill="#EAD98E" d="M362.9,217.5c0.3-0.1,0.9,0,1-0.2c1.3-2.1,3.6-2.7,5.6-3.8c0.9-0.5,1.6-1,1.6-2.1c6,3.9,12.4,5.8,19.7,5.5   c-2.4,3.3-5.5,6-7.8,9.4C375.2,225.4,368.8,222,362.9,217.5z" />
	<path fill="#E0C6B5" d="M361.7,170.2c0.3-0.2,0.5-0.7,0.8-0.6c2,0.1,3-1,3.8-2.7c4.5-7.4,12.8-11.4,18.8-17.5   c-0.2-0.6-0.3-1-0.5-1.4c2.3,0.9,4.4,2,6.6,3.4c-1.7,4.5-6,5.8-9,9.3c0.7,0.1,1.2,0.1,1.6,0.2c-1,1.2-2.5,1.7-3.4,3   c-0.9-1.4-2.1-0.8-2.8,0.7c0.9,0,1.4,0,2,0c-0.5,0.9-2.6,0.8-3,0.7c-1.4,0.7-2.1,1.1-2.7,1.5c0.2-0.4,0.4-0.8,0.6-1.3   c-1.6,0.2-1.6,0.2-2.3,1.8c0.6-0.2,1.1-0.3,1.7-0.5c0.3,0.7,0.9,0.6,1.5,0.7C370.8,168.7,366.4,169.9,361.7,170.2z" />
	<path fill="#F8E1C0" d="M371.6,61.6c0.1-1-0.1-2.1,1.2-2.6c-2.9-10.8-3.9-24.4,6-31.8c1.7,0.2,3.6-0.5,5,0.7   c-8.2,8.6-8.4,19.4-7.9,30.7c-3.8,1.8-0.7,6.5-0.8,9.4c-0.9-0.8-1.8-1.5-2.6-2.3C372.2,64.4,371.9,63,371.6,61.6z" />
	<path fill="#11100E" d="M403.2,78c-0.3-0.2-0.5-0.5-0.8-0.7l0,0c-1-0.9-2.3-0.7-3.6-0.7l0,0c-0.8-0.8-1.8-0.7-2.8-0.8l0,0   c-1-0.4-2.8-2.9-3.6-1.3c-1.4-0.5-0.5-2,0-2.8c0.2,0,0.4,0,0.6,0c2.3,1.9,4.8,3,8.2,3.3c-0.7-1.5-1.1-2.7-2.4-3.4l0,0   c-1.2-2.1-2.3-4.3-4.2-5.9c-0.3-1-1.3-2.3-0.7-3.3c2-2.5,0.8-5.8,2.1-8.6c2.1-3.1,5.9-6,9.3-3c0,0,0,0,0,0   c-0.3,0.3-0.6,0.6-0.9,0.9c-0.9,0-1.9-0.1-2.8-0.1c-5.1,3.1-5,8-5.3,13.4c2.4,2.1,9.3,16.2,12.6,12.5c0.7-0.4,0.6-1.5,1.7-1.4   C413,81.3,404,83.2,403.2,78z" />
	<path fill="#C8B395" d="M387.5,43.5c-1.2-1-2.5-1.5-3.4-2.8c0.2-1.7,0.3-3.6,0.5-5.5c0.4-0.3,0.7-0.6,1.1-0.9   c6.4,4.7,13.7,7.3,20.9,10.2c-5.2,1.7-11.4-0.5-16.8-1.7c0,0.7,0,1,0,1.5C389,44,388.2,43.8,387.5,43.5z" />
	<path fill="#F1D4C3" d="M380.3,163.8c2-2,4.4-3.6,6.5-5.6c0.5-0.1,0.8-0.6,1.3-0.8c0,0,0,0,0,0c1.1-1,1.9-0.6,2.6,0.6   c1.5-1.7,2.9-3.4,4.5-5.3c1.5,0.4,3,0.8,4.7,1.3c-4.9,6.9-18.1,14.3-26.2,12.7c0.7-0.4,1.3-0.7,2.7-1.5   C377.4,165.5,379.6,164.9,380.3,163.8z" />
	<path fill="#D3BC9D" d="M396,53.7c-1.3,2.8,0,6.1-2.1,8.6c-0.5,1.3,0,2.4,0.7,3.3c-2.9,1.8-10.7-8.6-10.8-12   c3.4,0.6,6.1,2.9,10.2,2.3c-3.9-1.9-8.5-2-10.4-6.8c0.4-0.2,0.7-0.4,0.9-0.6c1.9,2.1,4.3,3.2,7,3.8C392.8,53.8,395,52.2,396,53.7z" />
	<path fill="#E9CEBD" d="M466.7,122.9c-2.9-0.2-5.9-0.3-8.7-0.5c-6.3-5.4-16.2-3-23.9-5.8c-0.2-1.5-0.4-2.8,0.5-4.2   c10.6,3.2,22.3,5.7,32.2,9.9C466.6,122.5,466.6,122.7,466.7,122.9z" />
	<path fill="#D3BC9D" d="M404.6,50.2c-6.5-3.9-5.7,8.9-20.7-4.4c0-0.5,0-1.1,0-1.8c7.3,3,15.4,3.4,23.3,5c-0.2,0.5-0.4,0.8-0.5,1.1   l0,0c-0.4,0.2-0.9,0.4-1.3,0.6c0,0,0,0,0,0C405.1,50.6,404.8,50.4,404.6,50.2z" />
	<path fill="#CFBA9C" d="M380.9,74.4c3.2,8,5,16.3,7.2,24.7c-1.1,0.4-2,0.7-2.9,1c0.7-1.2,0.9-2.4,0.6-3.8c-1.2-0.7-1.7-1.3-2.7-2.6   c-0.1,2.5,0.5,4.4-0.6,6.4c-0.4-3.6,0.7-7.5-0.7-10.8l0,0c0-2,0.2-4-0.7-5.8c0.1-0.2,0.1-0.4,0-0.6c-0.1-2.1-0.4-4.2-0.8-6.3   C380.4,75.9,379.9,74.9,380.9,74.4z" />
	<path fill="#F1D5C3" d="M619.7,145.2c-2.4-1.7-6-0.3-9.2-0.7c1.3-1.6,1.9-2.3,2.5-4.2c7.2-0.1,8.9-3.9,13.1,4.6   c-0.8,0.6-1.6,1.1-2.3,1.7C622.4,146.1,621.1,145.6,619.7,145.2z" />
	<path fill="#F0DABA" d="M394.5,19.2c5.3-3.4,13.1,0.9,19.3,0.2c0.2,2.1,1.9,2,3.6,2.2c-0.8,0.3-1.6,0.6-2.4,0.9   c0,0.3-0.1,0.7-0.1,1c-5.2-0.1-10.9-1.7-15.7-3.4C397.7,19.7,395.4,20.8,394.5,19.2z" />
	<path fill="#24201B" d="M406.6,50.1c0.1-0.3,0.3-0.6,0.5-1.1c-7.1-1.7-14.9-1.7-21.4-4.4c0.7-0.2,1.5-0.1,1.8-1   c0.7,0.3,1.5,0.5,2.4,0.8c0-0.5,0-0.9,0-1.5c7.5,1.7,14.7,6.3,22.5,3.7c-0.7,1.3-2.2,1.2-3.6,2c0.4,0.4,0.7,0.7,1,0.9   c2.5-1.1,4.7-0.7,6.9-0.7c-1.2,2.6-4.9,0.8-7.1,2.1c-0.2-0.2-0.5-0.5-0.7-0.7C408.1,50.1,407.4,50.1,406.6,50.1z" />
	<path fill="#CDB89B" d="M372.5,65.8c0.9,0.8,1.7,1.5,2.6,2.3c0.1-2.9-3-7.6,0.8-9.4c-1.1,7.9,4.5,16.3,2.2,23.6   c0.2-2.4-0.3-4.7-1.6-6.8c-0.2,0.1-0.3,0.2-0.5,0.3c-1.2-0.3-0.3-1.8-1.3-2.6c-0.1,1.1-0.1,1.9-0.2,2.7   C373.3,72.7,373.3,69.2,372.5,65.8z" />
	<path fill="#161411" d="M378.9,79.3c-2.6-12.4-4.3-25.4-2.3-37.9c0,6.2,0,12.5,0,18.7c1.3,1.7,2.6,3.5,2.1,5.8   c-0.4-0.5-0.8-1.1-1.3-1.9c0.5,6.7,3.3,12.4,3.6,18.9c-0.3,0.3-0.5,0.5-0.8,0.8c-0.2,0-0.4-0.1-0.5-0.2   C379.4,82.2,379.8,80.6,378.9,79.3z" />
	<path fill="#E58B6B" d="M338.7,261c1.6,0.7,3.2,1.3,5,2.1c-3.2,2.6-6,3.9-8.7,7c-1.4-0.6-2.8-1.1-3.9-2.1   C333.7,265.7,336.2,263.4,338.7,261z" />
	<path fill="#D9C1B1" d="M629.7,151.7c-0.7-0.6-3.2-1.2-1.5-2.2c0.3,1.9,3.2-0.1,1.4-0.8c0.7-1.2,1.6-0.5,2.5-0.2   c4.7-3.4,10.4-4.2,16-4.1c0,0.3,0.1,0.5,0.1,0.8c-0.2,0.2-0.5,0.5-0.8,0.7l0,0c-0.3,0.2-0.6,0.4-0.8,0.5l0.1,0.1   C641.1,148,634.9,148.7,629.7,151.7z" />
	<path fill="#F2F2F2" d="M393,98.6c-1.1-4.4-2.8-8.6,1.1-12.6c0.5,0.3,1,0.6,1.5,0.8c0.8,3.9,0.3,7.8-0.2,11.8   C394.6,98.6,393.9,98.6,393,98.6z" />
	<path fill="#C0AD92" d="M376,75.8c0.2-0.1,0.3-0.2,0.5-0.3c1,2,1.9,3.9,1.6,6.3c-2.6,5.2,2,18.6-2.1,23.3c-0.3-6.5,0.2-12.1,0-18.5   c1.1-1.4,1.1-5.7,0-7.2C375.9,78.2,375.9,77,376,75.8z" />
	<path fill="#201D18" d="M373.8,27.1c-1,0.2-1.9,0.5-2.9,0.7c-0.2-0.2-0.4-0.4-0.6-0.6c0.2-1.3,1.7-1.2,2.6-2.1   c-0.5-0.1-0.8-0.2-1.1-0.3c0.7-0.5,1.1-0.8,1.5-1.1c1.4-0.1,2.9,0.1,4.2-0.7c2.6,0,5,0.3,6.9,2.5C381,28.8,377.1,23.9,373.8,27.1z" />
	<path fill="#736859" d="M419.6,12.8c2.3,0.3,4.6,0.6,7,0.9c-4.2,2.8-11.3-1.6-15.7,0.6c-1.7,0.1-3.4,0.2-5-0.7   c-0.7-0.2-1.7,0.4-2.3-0.6c1.2-0.1,2.3-0.2,3.4-0.3c0-0.1,0-0.3,0-0.4c-1.3-0.1-2.7-0.2-4-0.3c1.1-1.1,2.5-0.4,3.7-0.6   c2.4,0.4,4.9-0.5,7.1,1.3C415.5,13.1,417.7,12.7,419.6,12.8z" />
	<path fill="#EAEAEA" d="M381.8,57.2c2.3,4.8,4,9.8,4.9,15.1c-0.2,0.2-0.5,0.5-0.7,0.7c-3.3-4.7-4.8-10-5.2-15.7   C381.1,57.3,381.5,57.2,381.8,57.2z" />
	<path fill="#E18265" d="M306.5,257.6c0.2-0.1,0.3-0.3,0.7-0.6c-1.6-1.1-3.1-2.1-4.7-3.1c0.2-0.6,0.4-1,0.5-1.4   c4.8,2.6,9.7,5.1,14.4,7.8l0,0c-0.2,0.8-0.9,0.7-1.5,0.8l0,0C313.4,259.4,309.5,258.9,306.5,257.6z" />
	<path fill="#373129" d="M401.5,42.4c-5.7-1.8-10.8-4.7-15.8-8c-0.4,0.3-0.8,0.6-1.1,0.9c-0.4-1.2,0.8-1.5,1.4-2.3   c1.4,0.8,2.7,1.5,4.1,2.3c0,0,0,0,0,0c3.3,3.2,7.6,2.8,11.5,4.3c0,0.3,0,0.5,0,0.8c-0.4,0.1-0.7,0.1-1.5,0.3c1,0.5,1.6,0.8,2.2,1.2   C402.1,41.9,401.8,42.1,401.5,42.4z" />
	<path fill="#50483C" d="M372.5,65.8c0.5,2.6,1,5.3,1.2,7.9c-0.3-0.1-0.6-0.3-1.1-0.5c-0.1,0.9-0.2,1.8-0.3,2.7   c-1.3-3.5-1.9-7.4-3.2-11c1-0.9,1.1,0.5,1.8,0.6c-0.3-1.6-0.5-3.2-0.9-5.4c0.9,0.8,1.2,1.2,1.6,1.6C371.9,63,372.2,64.4,372.5,65.8   z" />
	<path fill="#312C24" d="M388.8,62.3c1.5,1.2,3,2.3,4.5,3.5c-0.7,1.5-1.9-0.6-2.8,0.5c2.1,1.8,4.2,3.6,6.9,4.5   c0.3,0.6,0.9,0.8,1.5,0.7l0,0c-1.5,2.1-3.7-1.3-5.7-0.7c-0.6-1.5-2.1-2.2-3.3-3.5c-0.1,0.6-0.2,0.9-0.2,1.2   c-1.2-1.4-1.6-3.2-2.3-4.9C387.8,63.2,388.3,62.8,388.8,62.3z" />
	<path fill="#B6A58D" d="M403,12c1.3,0.1,2.7,0.2,4,0.3c0,0.1,0,0.3,0,0.4c-1.1,0.1-2.2,0.2-3.4,0.3c1.1,1.2,2.6,0.1,3.8,1.3   c-1.5,0.3-3-0.3-4.4,0.7c3.3,0,6.6,0,9.9,0.2c0.2,0.1,0.3,0.3,0.4,0.5c-2.5,0.5-6-0.8-8,0.8c-2.2,0.3-4.2-0.3-6.5-0.8   C399.7,13.7,401.3,12.9,403,12z" />
	<path fill="#322D27" d="M419.6,12.8c-4.6,0.7-8.5-1.7-13-1.4c0.1-0.6,0.2-1.1,0.2-1.8c1.9-0.4,3.8-0.4,5.6-0.2   c-1.4,1-3.2,0.3-4.7,0.9c0,0.1,0,0.2,0.1,0.4c4.6,0.1,9.2,0.1,13.7,0.2c0.1,0.2,0.1,0.4,0.2,0.6C420.8,11.5,419.4,11.4,419.6,12.8z   " />
	<path fill="#24201B" d="M386.1,30.3c0.4-0.6,0.9-1.1,1.3-1.7c2.3,1.4,4.6,2.8,7.1,3.7c0,0,0,0,0,0c1.7,1.6,4.3,1.9,6.4,2.9   c-3.2,1.9-6.8-1.3-9.9-2.2c0,0,0,0,0,0C389.4,32.1,388,30,386.1,30.3z" />
	<path fill="#6C6152" d="M379.7,83.6c0.2,0.1,0.4,0.1,0.5,0.2c0.1,6.2,0.2,12.3,0.2,18.5c-0.3,0.2-0.6,0.5-1,0.7   C377.7,96.9,379.7,90,379.7,83.6z" />
	<path fill="#E0CBAD" d="M394.5,19.2c1.2,1.9,4.3-0.2,5.8,1.5c-2.4,0.1-5.6-0.9-7.1,1.5c0,0,0-0.1,0-0.1c-1.6,0.5-0.3,1.7-0.6,2.6   c-0.8,0.6-1.7,1.2-2.5,1.8c-0.7-0.3-1.3-0.5-2-0.8C389,22.9,392.5,21.5,394.5,19.2z" />
	<path fill="#DBC7AA" d="M378.9,26.6c2-0.1,3.9,0.6,5.5-1.1c-2.3-3.4-6.5-1.4-9.1-3.3c3.7-0.3,7.7-0.7,11.1,0.7   c-0.8,1.8-1.4,3.6-2.6,5c-1.4-1.2-3.3-0.5-5-0.7C378.9,27,378.9,26.8,378.9,26.6z" />
	<path fill="#D8BFAF" d="M351.8,215.9c-1.3,1.2-1,3-2.6,4.2c-2.2-2.2-2.8-4.8-2.5-7.7c1.7,0.6,1.8,2.3,2.4,3.8   c0.3-0.4,0.6-0.8,1-1.4C350.6,215.2,351.2,215.6,351.8,215.9z" />
	<path fill="#EFD9B9" d="M405.3,16.5c2-1.5,6-0.5,8.6-0.7c0.9,1.2,2.4,1.5,3.6,2.2l0,0c0,0.2,0,0.4,0,0.7c-0.2,0.1-0.5,0.1-0.7,0.2   C413.2,17.4,409,17.9,405.3,16.5z" />
	<path fill="#6F6556" d="M388.1,25.8c3.5,1.3,6.7,3.2,10,4.9c0.1,0.4,0.2,0.9,0.4,1.5c-1.6-0.9-2.5-0.4-4,0.1c0,0,0,0,0,0   c-0.3-0.3-0.5-0.5-0.8-0.8c0.2-0.4,0.3-0.8,0.6-1.5c-2.1-1-4.2-1.9-6.3-2.8C388.1,26.7,388.1,26.2,388.1,25.8z" />
	<path fill="#C8A697" d="M457.4,85c0-2.6-3.8-2.1-4.9-4.3c1.5-0.2,3-0.4,4.9-0.6c0.7,0.6,1.5,1.3,2.4,2.2   C458.9,83.5,458.6,84.5,457.4,85z" />
	<path fill="#D6D6D6" d="M390.8,76.7c0.6,1.4,1.2,2.8,1.8,4.4c-0.2,0.7-0.5,1.4-0.9,2.3c0.2,0.4,0.5,0.9,0.9,1.6   c-0.4,0.6-0.8,1.3-1.6,2.4C390.1,84.2,389.4,79.7,390.8,76.7z" />
	<path fill="#E5D0B2" d="M382.5,100.2c1.1-2,0.5-3.9,0.6-6.4c1,1.3,1.6,1.8,2.7,2.6c0.6,2.5-0.5,4.3-2.8,5.1   C382.4,101.3,382.3,100.8,382.5,100.2z" />
	<path fill="#9E9E9E" d="M380.1,53.8c-0.5-3.7-1.8-10.6,0.5-13.6C381.7,45.1,380.3,49.1,380.1,53.8z" />
	<path fill="#29281F" d="M347.4,208.8c0.3,0,0.7-0.1,1-0.1c0.9-2-0.7-4.5,1.4-6.1c3.3,0.4-0.3,5.5,0.3,7.7   C349.2,209.9,348,209.8,347.4,208.8z" />
	<path fill="#B8A78F" d="M421.6,10.8c-4.6-0.1-9.2-0.1-13.7-0.2c0-0.1,0-0.2-0.1-0.4c1.6-0.6,3.3,0.1,4.7-0.9c1.8,0,3.7,0,5.5,0   c1.4,0.8,2.9,0.6,4.4,0.5C422.2,10.3,421.9,10.6,421.6,10.8z" />
	<path fill="#3F3930" d="M384.6,48.6c-0.3,0.2-0.6,0.4-0.9,0.6c1.4,2.5,3,4.4,5.8,5.3c-0.4,0.3-0.9,0.5-1.3,0.8   c-1.4-0.5-2.7-1.8-4.2-1.6c-1.4-1.5-0.5-3.8-0.8-5.7c0.3,0,0.6-0.1,0.8-0.1C384.1,48.1,384.4,48.3,384.6,48.6z" />
	<path fill="#DFCAAD" d="M388.1,27.2c2.1,0.9,4.2,1.9,6.3,2.8c-0.3,0.7-0.5,1.1-0.6,1.5c-2.3,0.2-4.3-2-6.3-2.9   C387.6,28.1,387.9,27.6,388.1,27.2z" />
	<path fill="#B09F87" d="M380.2,76.7c-1.3-4-2.2-8.2-2.7-12.7c2.4,3,2.3,6.8,3.5,10.4C379.9,74.9,380.4,75.9,380.2,76.7z" />
	<path fill="#BD6E55" d="M315.9,261c0.6-0.1,1.3,0,1.5-0.8c2.8,1.5,5.6,3,8.5,4.4c-0.3,0.2-0.5,0.5-0.8,0.7   C322,264,319,262.5,315.9,261z" />
	<path fill="#C9B597" d="M386.1,30.3c1.9-0.3,3.3,1.8,4.9,2.6c-1.7-0.1-0.6,1.2-0.8,2.3c-1.4-0.8-2.7-1.5-4.1-2.3l0,0   c0-0.7,0-1.4-0.1-2.1C386.1,30.6,386.1,30.5,386.1,30.3z" />
	<path fill="#2C2821" d="M385.9,48.1c2.4,1.2,4.8,2.3,7.2,3.5c-0.2,0.8-1,0.6-1.5,0.8c-2.6-0.7-5.1-1.6-6.9-3.8   C385.1,48.4,385.5,48.2,385.9,48.1z" />
	<path fill="#4D463C" d="M411.7,18c0.7,0,1.3,0,2,0.1c0.8,1,2,0.3,3,0.7c1.2,1.4,2.4,0.3,3.6-0.1c0,0.4,0,0.9-0.1,1.3   c-1.6,0-3.3,0.1-4.9,0.1l0,0c-2.1-1.7-6,0.1-8.7-1.4C408.2,18.4,410.5,19.2,411.7,18z" />
	<path fill="#CDB89B" d="M375.9,79.4c1.1,1.4,1.1,5.8,0,7.2c-0.5-3.3-0.9-6.7-1.4-10C375.6,77.1,375.2,78.5,375.9,79.4z" />
	<path fill="#C1AC90" d="M392.4,74.4c0.9-1.5,2.6,0.9,3.6,1.3c-0.5,0.3-1.5,0.1-1.2,1.3c0.9,0.1,2,0,2.5,1c-0.4,0-0.8,0-1.4,0   c0.2,0.8,0.3,1.4,0.5,2c-0.4,0-0.7,0-1.1,0C394.3,78.2,393.3,76.3,392.4,74.4C392.4,74.4,392.4,74.4,392.4,74.4z" />
	<path fill="#B4A186" d="M379.7,83.6c-0.2,2.2,0.4,4.5-0.8,6.5c-0.3-2.6-0.5-5.2-0.8-7.8c0.9-0.8,0.8-1.9,0.8-3   C379.8,80.6,379.4,82.2,379.7,83.6z" />
	<path fill="#D3D3D3" d="M380.1,53.8c0.1-1.7-0.2-3.5,0.7-5.1c0.4,2.8,1.2,5.6,0.9,8.5c-0.3,0-0.7,0.1-1,0.1   C380.6,56.1,380.4,55,380.1,53.8z" />
	<path fill="#958379" d="M466.7,122.9c1-2.6,5.6-0.8,7.9-1.2c0,0.2,0,0.4,0,0.7C472.1,123.5,469.3,122.7,466.7,122.9z" />
	<path fill="#928471" d="M421.6,10.8c0.3-0.2,0.5-0.5,0.8-0.7c0.5,0,1-0.1,1.5-0.1c1.6,1.1,3.3,0.7,5,0.8c0.4,0.4,0.8,0.8,1.3,1.2   c-2.7,0.7-5.6-0.5-8.4-0.6C421.7,11.2,421.7,11,421.6,10.8z" />
	<path fill="#161411" d="M382.5,100.2c-0.2,0.6,0,1.1,0.6,1.3c-0.2,0.2-0.4,0.5-0.6,0.7c-1.6-3.5-0.2-8.8-0.7-12.8   C383.1,92.7,382.1,96.6,382.5,100.2z" />
	<path fill="#484431" d="M365.3,204.5c2,1.9,4.1,3.6,6.4,4.9c-0.6,0.2-1.4,0-1.6,0.9c-1.6-1.5-3.4-2.8-4.9-4.5l0,0   c-0.3-0.2-0.5-0.5-0.8-0.7c0-0.2-0.1-0.5-0.1-0.7C364.8,204.5,365,204.5,365.3,204.5z" />
	<path fill="#9D8D75" d="M373.3,23.8c-0.4,0.3-0.7,0.5-1.5,1.1c0.3,0.1,0.6,0.2,1.1,0.3c-0.9,0.9-2.4,0.8-2.6,2.1   c-0.6,0.4-1.3,0.9-2.1,1.5c0-1.8,1.5-2.5,2-3.7c0.7-0.1,0.9-0.7,0.9-1.3l0,0c0.2-0.3,0.5-0.5,0.7-0.8c0.2,0,0.4-0.1,0.6,0   C372.7,23.2,373,23.5,373.3,23.8z" />
	<path fill="#444444" d="M387.6,86c1.3,2.3,1.6,4.3,1.1,6.5C387.3,90.2,387.3,90.2,387.6,86z" />
	<path fill="#626262" d="M386.4,79.7c-1.5-1.6-1.9-3.5-1.9-6.2C386.1,75.7,386.3,77.7,386.4,79.7z" />
	<path fill="#8D5340" d="M325.1,265.4c0.3-0.2,0.5-0.5,0.8-0.7c1.5,0.7,3,1.2,4.5,2.7C328,267.5,326.6,266.4,325.1,265.4z" />
	<path fill="#A29078" d="M372.4,85.1c1-0.5,0.4-1.5,0.8-2.2c1.1,2,0.7,4,0.4,6.1C373,87.8,372.2,86.6,372.4,85.1z" />
	<path fill="#5A514C" d="M412.3,171c-0.5-1.3-1-2.5-1.5-3.6c1.4-2,1.8,1.2,2.3,2.1C412.9,170,412.6,170.5,412.3,171z" />
	<path fill="#AF9C82" d="M389.6,68.6c0.1-0.3,0.1-0.6,0.2-1.2c1.2,1.3,2.6,1.9,3.3,3.5l0-0.1c-0.7,0-1.4,0-2.1-0.1c0,0,0.1,0,0.1,0   c-0.3-0.2-0.5-0.5-0.8-0.7C390.2,69.5,389.8,69.1,389.6,68.6C389.6,68.6,389.6,68.6,389.6,68.6z" />
	<path fill="#161411" d="M380.4,102.3c0-2.6,0-5.2,0-7.9C381.2,96.4,381.2,100.3,380.4,102.3z" />
	<path fill="#EBD5B6" d="M375.9,79.4c-0.8-0.9-0.4-2.3-1.4-2.9c-0.3-1,0.1-2,0.1-3.3c1,0.7,0.1,2.3,1.3,2.6   C375.9,77,375.9,78.2,375.9,79.4z" />
	<path fill="#413B32" d="M395.3,80c0.3,0,0.6,0,1.1,0c-0.1-0.7-0.3-1.2-0.5-2c0.6,0,1,0,1.4,0l0,0c0.5,0.3,1,0.5,1.4,0.8   c0.1,0.1,0.1,0.3,0.2,0.4c-0.1,0.1-0.2,0.2-0.3,0.3C397.1,79.4,396.9,82.1,395.3,80z" />
	<path fill="#9D8E7A" d="M373.3,23.8c-0.3-0.3-0.6-0.6-0.9-0.8c1-0.2,1.9-0.5,2.9-0.7c0.5,1.1,1.5,0.4,2.3,0.8   C376.2,23.9,374.7,23.6,373.3,23.8z" />
	<path fill="#3C362E" d="M428.9,10.8c-1.7-0.1-3.5,0.3-5-0.8c0.2-0.5,0.5-0.9,0.7-1.4c0.2,0,0.5,0,0.7,0   C425,11.1,428,9.1,428.9,10.8L428.9,10.8z" />
	<path fill="#E1C7B6" d="M428.7,115.2c0.6-0.1,1.2-0.1,2-0.2c0.3-1.2-0.1-2.7,1-3.4c0,1.4,0,2.8,0,4.2   C430.5,116.1,429.6,116,428.7,115.2z" />
	<path fill="#161411" d="M381,83.6c0.9,1.9,0.7,3.9,0.7,5.8C380.2,87.9,381.3,85.5,381,83.6z" />
	<path fill="#413B32" d="M402.4,78.8c0.6,0.6,0.7,1.3,0.1,1.9c-1.3-0.3-2.6-0.5-3.8-1.2c0.1-0.1,0.2-0.2,0.3-0.3   C400.1,79.1,401.2,79,402.4,78.8z" />
	<path fill="#211E1D" d="M644,147.2c0.9-0.2,1.9-0.5,2.8-0.7c-0.8,0.7-1.5,1.4-2.5,2.3C644.1,148.1,644.1,147.6,644,147.2z" />
	<path fill="#8B8B8B" d="M390.8,76.7c-0.9,0.5-0.4,1.5-0.7,2.2c-0.8-1.3-0.7-2.6-0.6-4C390.6,75.1,390.7,75.9,390.8,76.7z" />
	<path fill="#35302D" d="M391.9,307.4c0.6,0.5,1.2,1.1,1.8,1.6c-0.5,0-1-0.1-1.2,0.5c-0.6-0.4-1.1-0.8-1.7-1.2   C391.2,308,391.5,307.7,391.9,307.4z" />
	<path fill="#A29078" d="M373.1,82.3c-1.2-1.1-0.6-2.9-0.7-4.3C373.3,79.3,373.2,80.8,373.1,82.3z" />
	<path fill="#3C362E" d="M422.5,10c-1.5,0.1-3,0.3-4.4-0.5C419.5,9.4,421.1,8.8,422.5,10z" />
	<path fill="#727272" d="M386,73c0.2-0.2,0.5-0.5,0.7-0.7c1,0.7,0.8,1.6,0.5,2.7C386.3,74.5,385.9,73.9,386,73z" />
	<path fill="#5D544F" d="M474.6,122.3c0-0.2,0-0.4,0-0.7c1,0,2.1,0,3.4,0C476.7,122.7,475.6,122.3,474.6,122.3z" />
	<path fill="#211E1D" d="M649,145.9c-0.2,0.5-0.5,1-0.7,1.5c-0.2-0.2-0.5-0.5-0.7-0.7c0-0.2,0-0.5,0-0.7l0,0   c0.3-0.2,0.5-0.4,0.8-0.7c0.2,0,0.4,0,0.7,0C649,145.4,649,145.6,649,145.9z" />
	<path fill="#373129" d="M386,30.8c0,0.7,0,1.4,0.1,2.1C384.9,32,384.9,31.9,386,30.8z" />
	<path fill="#211E1D" d="M641,148c0.6-0.7,1.5-0.7,2.3-0.6C642.7,148.4,641.8,148,641,148z" />
	<path fill="#39332F" d="M386.8,158.2c-0.3,0.2-0.5,0.5-0.8,0.7c-0.3-0.3-0.6-0.6-0.9-0.9c0.3-0.2,0.6-0.4,0.9-0.6   C386.3,157.7,386.6,157.9,386.8,158.2z" />
	<path fill="#BD6E55" d="M314.4,260.4c0.6-0.1,1.3-0.1,1.5,0.7C315.4,260.8,314.9,260.6,314.4,260.4z" />
	<path fill="#E58B6B" d="M331.7,265.1c0.4-0.2,0.7-0.4,1.1-0.5C332.8,265.4,332.3,265.3,331.7,265.1z" />
	<path fill="#A9A284" d="M336.5,156.7c-0.2-0.1-0.5-0.1-0.7-0.2c0.1-0.3,0.3-0.6,0.4-0.9C336.3,156,336.4,156.3,336.5,156.7z" />
	<path fill="#201D18" d="M371.1,23.7c0,0.6-0.1,1.2-0.9,1.3C370.3,24.4,370.2,23.8,371.1,23.7z" />
	<path fill="#A29078" d="M371.7,83c0.8,0.3,0.8,0.9,0.6,1.6C371.7,84.2,371.6,83.6,371.7,83z" />
	<path fill="#413B32" d="M397.6,81.7c0.1,0.1,0.2,0.2,0.2,0.2c-0.3,0.1-0.6,0.4-0.8,0C397.2,81.8,397.4,81.7,397.6,81.7z" />
	<path fill="#A29078" d="M370.9,80.9c0.8,0.3,0.8,0.9,0.6,1.6C371.3,81.9,371.1,81.4,370.9,80.9z" />
	<path fill="#11100E" d="M392.4,74.4c0.2,0.5,0.5,1,0.7,1.5C392.4,75.6,392.4,75,392.4,74.4z" />
	<path fill="#11100E" d="M391,70.8c0.5,0,0.9,0,1.4,0.1c0,0.2,0,0.5,0,0.7l0,0C391.8,71.5,391.1,71.6,391,70.8z" />
	<path fill="#2C2821" d="M383.8,45.8c0.2,0.3,0.4,0.5,0.6,0.8C384.3,46.3,384.1,46,383.8,45.8z" />
	<path fill="#A9A284" d="M335.8,156.5c-0.2,0.3-0.4,0.5-0.6,0.8C335.4,157.1,335.6,156.8,335.8,156.5z" />
	<path fill="#39332F" d="M386.1,157.4c0.2-0.2,0.5-0.4,0.7-0.6C386.5,157,386.3,157.2,386.1,157.4z" />
	<path fill="#39332F" d="M389,156.8c-0.3,0.2-0.6,0.4-0.9,0.6C388.4,157.2,388.7,157,389,156.8z" />
	<path fill="#39332F" d="M388.1,157.4c-0.3,0.2-0.5,0.4-0.8,0.5C387.6,157.7,387.9,157.5,388.1,157.4z" />
	<path fill="#201D18" d="M371.8,23c-0.2,0.3-0.5,0.5-0.7,0.8C371.3,23.5,371.5,23.2,371.8,23z" />
	<path fill="#BD6E55" d="M312.8,259.7c0.3,0.2,0.6,0.3,1,0.5C313.5,260,313.1,259.9,312.8,259.7z" />
	<path fill="#BD6E55" d="M317.4,260.3c-0.3-0.2-0.5-0.3-0.8-0.5C316.9,259.9,317.2,260.1,317.4,260.3z" />
	<path fill="#E58B6B" d="M333.2,263.9c0.2-0.2,0.3-0.4,0.5-0.6C333.5,263.5,333.3,263.7,333.2,263.9z" />
	<path fill="#443F3B" d="M647.6,145.9c0,0.2,0,0.5,0,0.7c-0.3-0.1-0.6-0.1-0.8-0.2C647,146.3,647.3,146.1,647.6,145.9z" />
	<path fill="#413B32" d="M402.5,80.8c0.6,0.4,0.5,0.6-0.1,0.7C402.4,81.3,402.4,81,402.5,80.8z" />
	<path fill="#35302D" d="M391.1,306.6c0.3,0.2,0.5,0.5,0.8,0.7C391.3,307.4,391.1,307.1,391.1,306.6z" />
	<path fill="#35302D" d="M390.3,308c-0.2-0.2-0.5-0.4-0.7-0.5C389.8,307.7,390.1,307.8,390.3,308z" />
	<path fill="#312C24" d="M390.3,70c0.3,0.2,0.5,0.5,0.8,0.7C390.8,70.5,390.6,70.3,390.3,70z" />
	<path fill="#312C24" d="M389.6,68.6c0.2,0.3,0.3,0.5,0.5,0.8C389.9,69.2,389.8,68.9,389.6,68.6z" />
	<path fill="#312C24" d="M388.1,61.6c0.2,0.2,0.5,0.5,0.7,0.7C388.5,62.1,388.3,61.8,388.1,61.6z" />
	<path fill="#312C24" d="M387.4,60.9c0.2,0.2,0.5,0.5,0.7,0.7C387.8,61.3,387.6,61.1,387.4,60.9z" />
	<path fill="#2C2821" d="M385.2,47.4c0.2,0.2,0.4,0.4,0.6,0.6C385.6,47.8,385.4,47.6,385.2,47.4z" />
	<path fill="#3F3930" d="M384,54.2c0.1,0.3,0.3,0.6,0.4,0.9C384.3,54.8,384.1,54.5,384,54.2z" />
	<path fill="#2C2821" d="M383.9,47.8c-0.3,0-0.6,0.1-0.8,0.1C383.3,47.3,383.6,47.3,383.9,47.8z" />
	<path fill="#39332F" d="M386.8,156.7c0.2-0.2,0.4-0.4,0.6-0.6C387.2,156.3,387,156.5,386.8,156.7z" />
	<path fill="#2C2821" d="M384.5,46.6c0.2,0.2,0.4,0.5,0.6,0.7C384.9,47.1,384.7,46.8,384.5,46.6z" />
	<path fill="#BD6E55" d="M316.1,259.5c-0.3-0.2-0.6-0.4-0.9-0.5C315.5,259.2,315.8,259.3,316.1,259.5z" />
	<path fill="#40A6CA" d="M473.2,523.5c2.4,8.1,8.5,16.4,5.6,25c-1.1,0.7-0.4,1.9-0.7,2.9c-0.9,0.4-0.5,1.3-0.8,2.1   c-0.9,1-1.8,2-2.7,3l0,0c-0.6-0.1-1.2,0-1.5,0.7c-48.7,20.7-103.4,24.8-154.4,12.9l0-0.1c-9.3-2.8-19.8-4.7-29.3-7.8   c1.5-5.4,3.6-10.7,6.6-15.5c1.1-0.2,2.2-0.4,3.2-0.5c0-1.5-1.1-1-1.9-1.1c14-29.4,35.3-23.1,60.7-28.7c11.4-3.5,25-5.5,30.5-17.6   c0.6-0.1,1.4-0.2,2.3-0.3c0.5-1.1,1-2.2,1.5-3.4c3.7-1.8,8-1.9,11.4-3.8c-1.8-1.5-7.9,1.4-12.1,2.3c-4.9-8.9-11.2-8.9-20.4-8   c-2.5-2-4.9-3.9-7.4-5.9C404.6,478.8,453.7,481.6,473.2,523.5z M449.6,537.8c-4.9,1.8-11.7,1.7-15.7,4.6c9.4-1.6,35.2-5.9,39-14.6   C465.8,532.9,457.7,534.9,449.6,537.8z" />
	<path fill="#F7EFD0" d="M352.4,474.1c0.5,0.9,1,1.8,1.6,2.8c-2.9,2.2-13.1,7.4-7,10.9c2.5-3.2,5.8-5.4,9.2-7.7   c0.9,0.4,1.7,0.8,2.6,1.3c-6.3,5.4-6.8,6.1-6.2,8.9c3.5-1.4,4.4-2,9.1-6.4c6.1,4.1,14.8,9.2,21.7,4.3c2.6,2.3,4.3,4.9,5,8.2   c-2.2,2.5-5.2,3.9-7.3,6.3c-17.5,0.1-39.5,14.3-52.6-3.5c-9,1.9-17.1,8.9-26.7,1.6c0-5.2,1.7-10.3,1.5-15.5   c1.6-3.1-0.7-7.2,1.4-9.9c11.9,11.4,18.3-22.8,32.5-19.8c2.6,3,6.7,4.8,8.9,8.9c-4.2,1.1-20.9,12.7-13.6,16.4   c4.2-4.9,7.8-10.4,14.1-13.2c1.7,1.2,2.8,3.1,3.8,4.9c-3.4-1.6-16,9.6-9.3,11.6c2.8-3.9,10-6.4,9.2-11.6   C351,473,351.9,473.3,352.4,474.1z M361.1,490.8c1.7,2.2,5.8,0.3,4.6-2.2C364.2,486.3,361.1,488.6,361.1,490.8z" />
	<path fill="#2D8FB9" d="M358.1,516.2c-25.6,5.7-46.5-0.8-60.7,28.7c-12.8-1.1-25.8-4.8-34.9-14.4c0-0.4,0-0.9-0.1-1.3l0.1,0.1   c0.2-0.5,0.8-0.9,0.6-1.5c8.4-12.4,16.8-26.3,29.7-34.4c0.6,5,0.4,5.6-2.9,8.5c1.3,0.2,2.6-0.1,3.5,0.7c7.9,9.9,20.7,8.6,31.4,5.1   c1.3,3.6,4.1,3.3,6.7,5.3C339.3,519.5,348.9,516.8,358.1,516.2z M284.6,521.3c-3.7-2.6-7-4.8-10.2-7c-0.1,0.1-0.3,0.3-0.6,0.5   C276.1,518.4,280.5,520.5,284.6,521.3z" />
	<path fill="#F7EFD0" d="M418.1,479.8c-19.7-6.2-40.3,0.2-60.2-3.9c-3.1-3.9-8.5-6.9-9.3-12.3c-0.4-2-1.7-3.3-3.3-4.4   c0.9-2.2,1.8-4.3,2.7-6.4c2.4,0.7,4.6,1.4,7,2.1c2.2-2,4.9-1.5,7.4-2c13.7-2.8,15-22.1,26.4-2.2c-2.7,1.7-2.9,4.2-3.8,7.1   c2.7-0.9,4.5-2.6,6.2-4.6c0.9,0.4,1.7,0.7,2.5,1c0.1,1.6-2,2.5-0.7,4.3c1.5-0.8,3.1-1.7,4.8-2.6c10.5,3.2,18.7,13.2,30.7,11.3   c1.3,1.4,2.6,2.8,3.8,4.1c-0.2,1.6,0.4,3.2-0.1,4.8C427.1,475.9,423,478.5,418.1,479.8z" />
	<path fill="#EBDDB8" d="M304.6,475.5c-2.1,2.7,0.3,6.8-1.4,9.9c0.2,5.2-1.5,10.3-1.5,15.5c9.7,7.3,17.7,0.3,26.7-1.6   c13.1,17.8,35.1,3.5,52.6,3.5c-15.2,10-40,17.9-54.5,3c-11.1,0.5-24.3,5.3-31.9-6c-1.1-1.7-0.9-2.3,0.8-3.7c3-3,4-7.6,5.1-11.5   c1.5-6.4-5.8-14.1,1-19c1.1,2.7,1.2,5.5,1.7,8.3c0.5,0.1,0.8,0.2,1.1,0.3C304.5,474.6,304.5,475,304.6,475.5z" />
	<path fill="#E0C6B6" d="M377.3,393.8c0.6,18.8-11,36-13.2,54.3c0.3,0.1,0.8,0.2,1.2,0.3c-2.4,1.9-6,1.9-9.1,2.1   C365.5,432.3,365.6,410.6,377.3,393.8z" />
	<path fill="#D4BBAB" d="M318.7,441.2c0.1,0.3,0,0.9,0.2,1c1.8,1,1.2,3.1,1.2,4.8c-0.2,0-0.4,0-0.6,0c0-0.9,0-1.7-0.1-2.9   c-1.7,1-1.7,2.1-1.3,3.4c0.4,0,0.7,0,1.1,0c0.1,0.1,0.2,0.1,0.3,0.2c-3.1,7-2,17.7-10.1,21.4c2.3-5.9,4.7-11.9,7.7-17.6   C316.2,447.7,317.6,444.4,318.7,441.2z" />
	<path fill="#E0C6B5" d="M403.7,336.2c1.9-0.4,3.6,0.8,5.6,0.8c0.8,0.8,1.5,1.7,2.4,2.6c-1.5,2.6-3.7,3.6-6.5,3.7   c-0.3-1.4-0.3-1.4-2.2-1.4C402.4,339.8,403.4,338,403.7,336.2z" />
	<path fill="#151310" d="M418.1,479.8c4.8-1.3,9-3.9,14.2-3.7c0.5-1.6-0.2-3.3,0.1-4.8c1.1,1.4,1.2,9.4-0.1,10.7   c-0.1-1.1,0.7-2.3-0.1-3.4c-3,1.1-7.5,0.2-9.5,2.6C421.1,480.9,419.4,480.9,418.1,479.8z" />
	<path fill="#ECE4C7" d="M304.4,474.1c-0.3-0.1-0.7-0.2-1.1-0.3c-0.4-2.8-0.6-5.7-1.7-8.3l0,0c2.2-2.6,2.6-3.6,6.2-3.1   c0.6,3.9-4.4,5.8-3,10C304.9,472.9,304.6,473.5,304.4,474.1z" />
	<path fill="#D8CBA9" d="M422.7,481.1c2-2.5,6.5-1.6,9.5-2.6c0.8,1.1,0,2.3,0.1,3.4c-0.3,0.5-0.6,1-1.1,1.6   C428.3,483.4,425.7,481.5,422.7,481.1z" />
	<path fill="#1A2C33" d="M391.7,493.5c1.2-0.3,2.3-0.6,3.5-0.9c0.6,0.2,1.3,0,1.5,0.8c-1.4,0.5-2.8,1-4.2,1.5   C392.2,494.4,391.9,493.9,391.7,493.5z" />
	<path fill="#0D0E0D" d="M351.7,473.3c-0.5-0.2-1-0.5-1.5-0.7l0.1,0.1c-0.6-1.3-1.5-2.4-2.3-3.6C350.4,470.8,351,471.4,351.7,473.3z   " />
	<path fill="#C2C2C2" d="M365.3,414.8c-0.4-0.7,0.3-1.8-0.8-2.2c0.1-0.8,0.6-1.2,1.4-1.5C366.1,412.6,366.1,413.8,365.3,414.8z" />
	<path fill="#302C29" d="M403.1,341.8c1.9,0,1.9,0,2.2,1.4c-0.7,0-1.4,0-2.2,0C403.1,342.8,403.1,342.3,403.1,341.8z" />
	<path fill="#0D0E0D" d="M352.4,474.1c-0.2-0.3-0.4-0.5-0.7-0.8C351.9,473.6,352.1,473.9,352.4,474.1z" />
	<path fill="#EBDDB8" d="M302.3,464.7c-0.2,0.3-0.5,0.5-0.7,0.8C301.8,465.3,302.1,465,302.3,464.7z" />
	<path fill="#35302D" d="M393.8,309.1c0.2,0.2,0.4,0.4,0.7,0.6C394.2,309.5,394,309.3,393.8,309.1z" />
	<path fill="#35302D" d="M393.2,310.3c-0.2-0.2-0.4-0.4-0.7-0.7C392.7,309.8,392.9,310,393.2,310.3z" />
	<path fill="#35302D" d="M394.5,309.8c0.2,0.2,0.5,0.4,0.7,0.6C395,310.2,394.7,310,394.5,309.8z" />
	<path fill="#35302D" d="M393.7,311.3c-0.2-0.3-0.3-0.6-0.5-1C393.4,310.6,393.5,311,393.7,311.3z" />
	<path fill="#4C505E" d="M331.6,572.1c9,5.3,38.2,7.8,48,4.5c-6.5-0.8-13.3,0.9-19.4-0.8c41.7,1.4,76.8,1.9,115.3-18.4   c-0.4-0.4-0.6-0.7-0.8-0.9c0.9-1,1.8-2,2.7-3c0.2,0.2,0.3,0.3,0.7,0.6c1.7-2.8,3.4-5.5,4-8.9c3.1,0.9,5,3.4,7.6,4.8   c0.2,1.3-0.8,1.5-1.9,1.5c-3.3,9.9-16.5,13.4-24.9,18.3c-4.4,3-10.8,0.8-13.8,5.7c0.2,2-0.5,4.1,0.6,5.8c-47.9,8.7-97.5,13-145,0   c-0.4-1-1.4-0.4-2.2-0.6c1.4-8.3-7.7-9.5-13.5-11.4c-0.4,0.4-0.9,0.7-0.7,0.5c-3.2,0.9-4.9-0.9-7-1.9c-2.1-0.7-5.3-0.8-5.7-3.6   c14.6-2,27.9,5,42.6,6.4C320.7,571.7,329.3,573.9,331.6,572.1z M448.8,573.4c-2.5,0.6-4.6,0.9-7,2.1   C444.7,575.6,447.4,575.6,448.8,573.4z M413.1,580.5c2.1-0.1,4,0.8,5.7-1.2C416.8,579.4,414.9,578.5,413.1,580.5z" />
	<path fill="#373A46" d="M296.6,571.4c3.8,1.7,6.6,4.8,5.8,9.3c-16.7-3-34.7-5.6-48.5-16.4c-3.7,0.6-4.9-3.2-7.2-5.5   c0.5-2.4-1.3-6.8,1.4-8.2c3.5,4.4,6.5,6.5,10.6,6.8c-5-2.8-9.9-6.1-11.4-11.9c2-2.2,4.7-2.8,7.2-3.6c-0.1,1.2,0.3,2.3,1.1,3.3   c0.2-0.2,0.4-0.3,0.5-0.5c0.8,0.8,0.7,1.7,0.3,2.6c-0.5-0.1-0.9-0.2-1.6-0.3c5.8,10.5,20.3,12.2,30.5,16.4   c-3.1,1.2-6.4,0.5-9.7,0.8c0.1,0.5,0.3,0.9,0.4,1.4c-2,0-3.3-2-5.4-1.9c-0.5,1.6,9.8,6.2,10.4,4.1c2.3,0.8,4,2.9,7.3,2   c-0.2,0.2,0.2-0.2,0.7-0.5C289.3,571.7,294.6,573.3,296.6,571.4z" />
	<path fill="#2D8FB9" d="M298,544.9c0.5,0.1,1.2-0.1,1.2,1.1c-1,0.2-2.1,0.4-3.2,0.5c-3,4.8-5.1,10.1-6.6,15.5   c-16.5-4.8-40.6-7.2-28.5-29.9C270.8,539.1,285.4,548,298,544.9z" />
	<path fill="#373A46" d="M488.9,551.3c0.7-0.2,0.7-0.8,0.7-1.4c1.6,0.7,2.9,2.4,4.1,3.4c2.7,7.3-2.4,8.6-6.2,13.7   c-0.3-0.1-0.7-0.3-1.1-0.5c-9.8,10-23.5,12.7-36.8,14.7c-1.1-1.7-0.4-3.9-0.6-5.8c4.1-5.2,12.5-3.3,17.9-7.6   C472,568.8,490.4,558.6,488.9,551.3z" />
	<path fill="#0F2E3B" d="M283,543.5c-8.6-0.8-15.2-7.5-22-11.3c0.4-0.6,0.9-1.2,1.4-1.7c6.3,6.1,13.9,10.9,22.7,12.3   C284.7,543.9,283.7,543.3,283,543.5z" />
	<path fill="#0F1013" d="M248.8,549.8c3.2,2.9,5.7,5.7,9.8,7.6c-4-0.3-7-2.3-10.6-6.8C248.3,550.4,248.5,550.1,248.8,549.8z" />
	<path fill="#2A3136" d="M331.6,572.1c-2.3,1.9-10.9-0.3-13.6-1.4c0.2-0.2,0.5-0.5,0.7-0.7c0.5,0,1,0.1,1.5,0.1   c0.8,1.1,2.4,0.3,3.6,0.7c0.3,0.6,0.9,0.6,1.5,0.5C327.6,571.1,329.4,572.4,331.6,572.1L331.6,572.1z" />
	<path fill="#2B6883" d="M256,544.8c-0.2,0.1-0.3,0.3-0.5,0.5c-0.8-0.9-1.2-2-1.1-3.3c0.4-0.5,0.7-0.5,1.4-0.3   C255.8,542.7,255.9,543.8,256,544.8z" />
	<path d="M263.1,527.8c0.1,0.6-0.4,1-0.6,1.5c0,0-0.1-0.1-0.1-0.1c-0.3,0-0.5,0-0.8,0l0,0c0.3-0.8,0.6-1.7,1-3.2   C262.9,527,263,527.4,263.1,527.8z" />
	<path d="M265.8,518.3c0.4-0.1,0.9-0.2,1.3-0.3C266.8,519.3,266.8,519.3,265.8,518.3L265.8,518.3z" />
	<path fill="#373A46" d="M288.1,564.2c-0.8,0-1.7,0.3-2.2-0.6C286.7,563.5,287.6,563.3,288.1,564.2z" />
	<path fill="#4C505E" d="M316.6,569.3c0.8-0.1,1.7-0.3,2.2,0.6C318,570,317.1,570.2,316.6,569.3z" />
	<path fill="#373A46" d="M303,580.7c0.6-0.1,1.2-0.1,1.5,0.6C303.9,581.4,303.3,581.3,303,580.7z" />
	<path d="M261.6,529.2c-0.1,0.2-0.2,0.3-0.3,0.5C261.4,529.5,261.5,529.3,261.6,529.2L261.6,529.2z" />
	<path fill="#544C41" d="M449.6,25.1c-1.2,0.2-2.4,0.5-3.6,0.7c0.4-0.4,0.7-0.8,1.2-1.2c-0.5-0.1-0.9-0.2-1.3-0.3   c-1.8-2.5-3.8-4.7-6.4-6.3c0.6-0.3,1.2-0.6,1.9-0.9C445.1,18.7,446.8,22.4,449.6,25.1z" />
	<path fill="#655C4F" d="M438.1,12.2c6.3,1.1,10.6,6,14.9,10.1c-2.7,1.4-8.1-7.8-11.9-7.6c-1.6,0.8-2.7-0.2-3.8-1   c0.4-0.1,0.9-0.1,1.5-0.2C438.5,13,438.3,12.6,438.1,12.2z" />
	<path fill="#9F907B" d="M445.4,23.6c0.2,0.2,0.4,0.4,0.5,0.7c-0.8,0-1.6,0-2.6,0c-0.4-4.2-5.2-5-8.1-7.2c0.3-0.2,0.5-0.5,0.8-0.7   c3.3,1.5,6.6,3.2,8.6,6.4c-0.2,0.2-0.3,0.4-0.5,0.6C444.6,23.6,445,23.7,445.4,23.6z" />
	<path fill="#2C2822" d="M425.3,14.5c0.5-0.1,1.1,0,1.3-0.7c2.1-0.3,4,0.4,5.9,1.2c-0.5,0.2-1.2,0-1.3,0.8   C429.4,14.4,426.8,15.9,425.3,14.5z" />
	<path fill="#C8B69B" d="M438.1,12.2c0.2,0.4,0.4,0.8,0.7,1.3c-0.6,0.1-1,0.1-1.5,0.2c-1.6-0.8-3.4-1.3-4.8-2.3   c0.2-0.2,0.5-0.5,0.7-0.7C434.9,11.2,436.5,11.7,438.1,12.2z" />
	<path fill="#3C362E" d="M432.5,11.4c0.4,0.3,0.9,0.6,1.3,0.8c-1.7,0.3-3.4,1.1-5,0.1c0.4-0.1,0.8-0.2,1.3-0.3   c-0.5-0.5-0.9-0.9-1.3-1.2c0,0,0,0,0,0C430.1,10.5,431.3,11.2,432.5,11.4z" />
	<path fill="#7D7261" d="M429.6,10.7c-0.2,0-0.5,0.1-0.7,0.1c-0.8-1.7-3.8,0.3-3.6-2.2c1.8,0.1,3.6,0.5,5.2,1.3   C430.2,10.2,429.9,10.4,429.6,10.7z" />
	<path fill="#756A5A" d="M431.2,15.7c0.1-0.8,0.8-0.6,1.3-0.8c1.2,0.5,2.4,1,3.6,1.4c-0.3,0.2-0.5,0.5-0.8,0.7   C433.9,16.8,432.8,15.6,431.2,15.7z" />
	<path fill="#7F7363" d="M429.6,10.7c0.3-0.2,0.6-0.5,0.9-0.7c1,0.1,2-0.2,2.7,0.7c-0.2,0.2-0.5,0.5-0.7,0.7   C431.5,11.2,430.6,10.9,429.6,10.7z" />
	<path fill="#3C362E" d="M433.8,12.3c0.5,0.2,1,0.4,1.5,0.6C434.7,13,434.1,13,433.8,12.3z" />
	<path fill="#201C1A" d="M460.2,76c-0.2-0.3-0.4-0.6-0.5-0.9C459.8,75.4,460,75.7,460.2,76z" />
	<path fill="#EACEBD" d="M612.1,125.8c-3-3.2-5-3.4-8.5-5c7.6-2.8,16.1,4.8,22.5,8.5C621.5,131.8,616.6,126,612.1,125.8z" />
	<path fill="#BCA698" d="M628.3,128.7c-2.4-4.1-6.2-4.9-10.3-7c5.3-1.1,8.1,2.2,11.2,5.5C628.3,127.4,628.3,128.1,628.3,128.7z" />
	<path fill="#E4C9B8" d="M628.3,128.7c0-0.7,0.1-1.3,0.9-1.5c1.7,1,3.4,2,5.2,3c-1.2,1.3-3.1,0.2-4.7,0.5   C629.2,130,628.7,129.4,628.3,128.7z" />
	<path fill="#2A2726" d="M597,120.3c-0.7,0.7-1.5,0.6-2.3,0.5C595.3,119.8,596.1,120.2,597,120.3z" />
	<path fill="#2A2726" d="M591.1,122.3c-0.5,0.2-1,0.4-1.5,0.6C590,122.3,590.5,122.2,591.1,122.3z" />
	<path fill="#2A2726" d="M592.7,121.7c-0.5,0.2-1,0.4-1.5,0.7C591.4,121.5,592,121.6,592.7,121.7z" />
	<path fill="#2A2726" d="M594.1,121c-0.3,0.2-0.6,0.3-0.9,0.5C593.5,121.3,593.8,121.2,594.1,121z" />
	<path fill="#4C505E" d="M478.2,550.6c-0.1-0.8-0.3-1.6,0.6-2.2C478.9,549.2,479.1,550.1,478.2,550.6z" />
	<path fill="#4C505E" d="M477.5,552.8c-0.1-0.6,0-1.2,0.6-1.5C478.2,551.9,478.2,552.5,477.5,552.8z" />
	<path fill="#DAC0B0" d="M655.5,146c-1.9,0-3.9,0.6-5.7-0.1l0,0c3.4-3.1,17.9-2.7,22.3-1.3C666.7,147.5,661.1,145.2,655.5,146z" />
	<path fill="#443F3B" d="M649,145.2c-0.2,0-0.4,0-0.7,0c0-0.3-0.1-0.5-0.1-0.8c0.5-0.3,1-0.5,1.5-0.8   C649.5,144.2,649.2,144.7,649,145.2z" />
	<path fill="#443F3B" d="M650.4,145.2c-0.2,0.3-0.4,0.5-0.6,0.8C650,145.7,650.2,145.4,650.4,145.2z" />
	<path fill="#413B37" d="M606.8,138.1c-2.2,0.8-3.6,1.9-6.4,1.1c2.4-1.3,4.2-1.4,5.8-3.3C606.3,136.7,606.6,137.4,606.8,138.1z" />
	<path fill="#C8A697" d="M452.5,80.8c-0.6,0.2-1.2,0.2-1.5-0.5C451.5,80.4,452,80.6,452.5,80.8z" />
	<path fill="#5A5A5A" d="M568.3,125.3c0.1,0.1,0.2,0.2,0.3,0.3c-0.3,0.1-0.6,0.3-0.8,0C568,125.5,568.1,125.4,568.3,125.3z" />
	<path fill="#DFC5B4" d="M340.2,393.3c1-8.2,6-15.8,10-22.9c0.1,0.4,0.1,0.9,0.3,1.8c1.5-1.9,2.5-3.1,4-4.7   c-0.5,10.3-10.1,18.5-13,27.2C341.6,393.3,341.6,393.3,340.2,393.3z M348.8,378.3c0.4-1.1,1.2-2,1.4-3.4c-1.9,1-3.7,3-3.3,5.4   C347.8,379.7,348.3,379.2,348.8,378.3z M344.1,385c-0.9,0.6-1.3,1.3-0.7,2.3c0.9-0.3,1.5-0.7,1.6-1.7   C344.6,385.3,344.4,385.2,344.1,385z" />
	<path fill="#E0C6B5" d="M390.4,326.1c1,0.4,1.9,0.8,2.8,1.2c2.5,5.9,1.9,10.1-2,13.5c-2.4-2.4-1.8-6.2-2.3-9.2   c0.5,0.4,0.8,1.2,1.9,0.7C391.5,330.3,390.8,328.2,390.4,326.1z" />
	<path fill="#262220" d="M354.5,367.5c-0.7,0.7-1.4,1.5-2.1,2.2c-0.3-0.3-0.6-0.6-0.9-0.9c1.5-2.5,3.9-7.9,7.4-6.6   C357.9,364.3,356,365.8,354.5,367.5z" />
	<path fill="#1C1918" d="M390.4,326.1c0.4,2.1,1.1,4.2,0.4,6.2c-1.1,0.5-1.4-0.3-1.9-0.7c0-2.5,0-5,0-7.6   C390.5,324.1,389.8,325.5,390.4,326.1z" />
	<path fill="#36322F" d="M386.6,355.4c0.6,3.3,0.4,5.9-0.8,9.2C383.7,361.5,385.2,358.9,386.6,355.4z" />
	<path fill="#23201F" d="M363.2,354.2c0.5-0.7,1-1.4,1.5-2.1c0.7,1,0.7,2.1,0.6,3.3c-0.7,0.7-0.4,2.2-1.9,2.2   C362.3,356.5,363.3,355.3,363.2,354.2z" />
	<path fill="#E1C7B6" d="M365.3,355.4c0.1-1.3,0-2.6-0.8-3.7c0-0.2,0.1-0.4,0.1-0.6l0,0c0.6-0.2,1.2-0.4,2.2-0.8   C365.8,352.3,366.4,354,365.3,355.4z" />
	<path fill="#907F74" d="M324.5,432.7c-1-1.3-0.2-2.3,1.2-2.1c0,0.4,0,0.8,0.1,1.2C325.4,432.1,324.9,432.4,324.5,432.7z" />
	<path fill="#5A514A" d="M351.5,368.8c0.3,0.3,0.6,0.6,0.9,0.9c-0.6,0.7-1.1,1.4-2,2.4c-0.1-0.9-0.2-1.3-0.3-1.8   C350.6,369.9,351.1,369.4,351.5,368.8z" />
	<path fill="#2F2A28" d="M340.2,393.3c1.4,0,1.4,0,1.3,1.4c-0.5,0.2-1,0.5-1.5,0.7C339.1,394.5,340.1,394,340.2,393.3z" />
	<path fill="#58524F" d="M387.2,351c-0.6-0.7-0.5-1.4,0.1-2.1C388.4,350.4,388.4,350.4,387.2,351z" />
	<path fill="#595553" d="M386.4,344.2c0.5,0.9,0.3,1-0.3,2.2c-0.2-1-0.2-1.6-0.3-2.1C386,344.3,386.2,344.3,386.4,344.2z" />
	<path fill="#E1C7B6" d="M319.6,446.9c0.2,0,0.4,0,0.6,0c-0.2,0.2-0.4,0.5-0.6,0.7c-0.1-0.1-0.2-0.1-0.3-0.2   C319.3,447.3,319.4,447.1,319.6,446.9z" />
	<path fill="#201D1B" d="M596.8,130.2c0.8,0,1.6-0.1,2.7-0.1c-2.3,4.8-8.8,4.2-13.2,6.5c-0.3-0.6-0.6-0.9-0.8-1.3   C589.6,134,592.9,131.7,596.8,130.2z" />
	<path fill="#141210" d="M485.4,131.7c-2.1,2.4-8.2,6.6-9.5,1.4c2.4-0.7,4.8-1.5,7.2-2.2C483.9,131.1,485,130.5,485.4,131.7z" />
	<path fill="#1D1A19" d="M461.7,141.2c0.2,0.2,0.4,0.5,0.7,0.7C457.3,149.4,450.6,141.1,461.7,141.2z" />
	<path fill="#5E534C" d="M485.4,131.7c-0.4-1.2-1.5-0.6-2.3-0.8c1.8-0.9,2.7-2.2,5.1-2C487.5,130.4,486.4,131,485.4,131.7z" />
	<path fill="#4D4541" d="M581,137.4c0.8,0.3,1.6,0.7,2.4,1c-3.4,0.8-3.5,0.8-5.3-0.7c0.6-0.2,1.1-0.4,1.6-0.6   C580.1,137.2,580.5,137.3,581,137.4z" />
	<path fill="#635750" d="M491,128.4c2-1.9,2-1.9,3.8-1.3C493.9,128.4,492.9,129,491,128.4z" />
	<path fill="#4A433F" d="M421.1,118.1c-1.1-0.8-1.9-1.4-2.9-2C421.2,115.6,421.8,116,421.1,118.1z" />
	<path fill="#302C29" d="M375.3,142.4c2-0.7,3.3,1.6,0.7,1.5C375.7,143.3,375.5,142.9,375.3,142.4z" />
	<path fill="#E1C7B6" d="M427.4,333.3c-5.1,5.1-18.7-5.9-8-8.7C423.7,326,424.9,330.1,427.4,333.3z" />
	<path fill="#211E1C" d="M429.5,325.9c-1-2.8-5.5-6.1-3.7-9C429.9,316,430.5,323.6,429.5,325.9z" />
	<path fill="#1F1C1A" d="M402.2,356.8c3.9,2.3-0.5,7.3-1.4,10.4C399,366.3,401.1,358.3,402.2,356.8z" />
	<path fill="#3F3936" d="M393.5,385c-0.3-3.2,0.9-5,2.9-6.5C397.4,380.7,394.6,382.4,393.5,385z" />
	<path fill="#605751" d="M390.3,389.1c0.6-1.6,2.2-1.7,3.2-2.7C394.9,388.2,392,389.7,390.3,389.1z" />
	<path fill="#58504B" d="M397.6,373.8c-0.2-1.4-0.7-2.6,1-3.5C399.2,371.7,399.1,372.9,397.6,373.8z" />
	<path fill="#988A81" d="M427.4,333.3c-0.3-0.3-0.5-0.5-0.8-0.8c0.8-0.8,0.4-2.2,1.5-2.8c0,0.6-0.2,1.2,0.7,1.4   C428.4,331.8,427.9,332.6,427.4,333.3z" />
	<path fill="#3E3834" d="M428.8,331.1c-0.9-0.1-0.7-0.8-0.7-1.4c0.4,0,0.8,0,1.4,0C429.2,330.3,429,330.7,428.8,331.1z" />
	<path fill="#312E21" d="M365.3,204.5c-0.3,0-0.6,0-0.9,0c-0.5-0.5-0.9-1-1.4-1.5c-0.2-1.7-1.1-3.6,0.5-4.9   C365.5,199.6,364.3,202.5,365.3,204.5z" />
	<path fill="#322F25" d="M336,169.5c1-0.9,1.3-2.4,2.7-2.9c2.6,1.2-1.4,3.8-2.7,4.3C335.9,170.5,336,170,336,169.5z" />
	<path fill="#8F8969" d="M336,169.5c0,0.5,0,0.9,0,1.4c-0.3,0.4-0.6,0.9-1.2,1.8C334.6,171,335,170.1,336,169.5z" />
	<path fill="#9D9575" d="M331.3,179.8c-0.3,0.4-0.5,0.5-0.8,0C330.7,179.4,331,179.7,331.3,179.8z" />
	<path fill="#EBDA8F" d="M364.5,205.2c0.3,0.2,0.5,0.5,0.8,0.7C365,205.7,364.8,205.5,364.5,205.2z" />
	<path fill="#EBDA8F" d="M365.3,205.9c0.2,0.3,0.5,0.5,0.7,0.8C365.7,206.4,365.5,206.2,365.3,205.9z" />
	<path fill="#8F8969" d="M336.5,170.8c0.3-0.2,0.6-0.3,0.9-0.5C337.1,170.4,336.8,170.6,336.5,170.8z" />
	<path fill="#D8BFAF" d="M338.8,214.5c0,1.5,0,2.9-0.1,4.4c-0.3,0-0.7-0.1-1-0.1c-1,1,0,1.9,0.4,2.8c-0.7,0.5-1.3,0.9-2.1,1.5   c-2.7-1.5-2.1-4.1-2.2-6.6c1.4-1.3,2.6-2.9,3.3-4.7c0.8-0.2,1.5-0.3,1.6,0.8c-0.4-0.1-0.8-0.1-1.5-0.2c0.2,1.7-1.2,3.3,0.5,4.6   C338,216.2,338.4,215.4,338.8,214.5z" />
	<path fill="#201D1C" d="M305.4,242.7c0,1.7,0,3,0.2,4.7C302.1,248.6,303.1,243.8,305.4,242.7z" />
	<path fill="#0A0909" d="M338.8,214.5c-0.4,0.8-0.7,1.6-1.1,2.5c-1.7-1.3-0.3-2.9-0.5-4.6c0.7,0.1,1.1,0.2,1.5,0.2   C338.7,213.3,338.7,213.9,338.8,214.5z" />
	<path fill="#181716" d="M307.1,239.6c-0.1-1.3-0.1-2.4,0.5-3.5C308.9,237.7,308.9,237.9,307.1,239.6z" />
	<path fill="#9E9088" d="M309.2,234.1c-1.3-1-1.3-1.8-0.9-2.9C309.4,231.8,309.6,232.5,309.2,234.1z" />
	<path fill="#746963" d="M338.1,221.6c-0.4-1-1.4-1.8-0.4-2.8c0.3,0,0.7,0.1,1,0.1c0,0.9,0,1.8,0,2.7   C338.5,221.6,338.3,221.6,338.1,221.6L338.1,221.6z" />
	<path fill="#D8BFAF" d="M338.1,221.6c0.2,0,0.4,0,0.6,0c-0.1,0.2-0.2,0.4-0.3,0.6C338.3,222,338.2,221.8,338.1,221.6z" />
	<path fill="#080706" d="M416.7,48.7c-2.2,0.1-4.4-0.3-6.9,0.7c-0.2-0.2-0.6-0.5-1-0.9c1.4-0.8,2.9-0.7,3.6-2   c3.5-1.6,7.8-1.3,10.7-4c-1.1-0.6-1.8-0.2-2.4,0.3c-1.4,0.5-3-0.2-4.2,0.8c-3.5,1-6.4-1.5-9.8-2c2.8-2.2,8.3-0.8,10.8-3.2   c-4.4-1-9.2-0.7-12.9-3.3c0.5-1,1.5-0.4,2.3-0.7c6.2,1.7,12.5-0.3,18.4-2.1c1.2,1.1,2.7,0.4,4.1,0.6c2.2,1.6,0,4.3-0.2,6.9   c-0.4,0.3-1.3,0.8-2.1,1.4c0.1,0.4,0.1,0.8,0.3,1.4c-0.4,0.5-1,1-1.5,1.6c0.3,0.1,0.7,0.3,1.1,0.5c-0.7,1.3-0.7,1.3-2.3,2.1   c-1.4,0.1-1.4,0.1-1.4,1.5c-1.9-1.4-3.6-1.1-5.1,0.6l0,0C417.6,48.7,417.2,48.7,416.7,48.7z M420.3,36.5c-0.7-1.4-2-0.5-3.5-0.5   C418.1,37.6,419.2,37.1,420.3,36.5c0.7,2.7,9.3,0.3,9-2.3C426.3,33,423.5,36.9,420.3,36.5z" />
	<path fill="#0B0A09" d="M407.9,58c0,0.2,0.1,0.5,0.3,0.7c0,1.2,0,2.4,0.1,3.6c-0.3,0.5-0.6,1-1,1.5c1.1,1.2,3.1,1.2,3.6,3.2   c-0.4,1.4-1.4,2.5-3.1,3.5c-1-2.4-1.8-4.4-2.7-6.8c0.4-0.7,1-1.7,1.7-2.9c-0.4-0.6-0.8-1.2-1.3-2.2c-4.8,4.6-2.3,6.9,0.2,11.2   c-0.6,1.4-1.6,1.1-2.5,1.1c-2.2-1.9-3.1-4.1-3.3-6.9c-0.7-0.2-1.5-0.4-2.4-0.7c0.8-3.3,0.7-8.4,4.8-9.2   C403.9,55.2,405.9,56.6,407.9,58z M401,60.9c1.1-1,2.2-2,2.8-3.6c-0.5-0.3-1-0.6-1.5-0.9c-2,1.5-2,3.6-3.3,5.6   C400.3,62.3,400.7,61.6,401,60.9z" />
	<path fill="#2B2721" d="M431.2,15.7c4.2,1.3,11.2,3.8,12.2,8.6c1.5,0,2.5-0.1,3.8,0.3c-0.9,0.7-1.4,2.4-2.6,1.6   c-6.5-4-13.8-8.5-21.3-9.7c-3.4-3.1-9.3-0.4-13.7-1.5c0-0.2,0-0.4,0-0.6c5.2-0.2,10.5,0,15.8,0.1C426.8,15.9,429.4,14.4,431.2,15.7   z M429.9,16.9c2.3,1.2,4.1,2.5,6.8,2.9C434.8,17.5,432.5,17,429.9,16.9z" />
	<path fill="#12100F" d="M449.9,57c-1.8,0.5-3,0-4.1-0.7c0-0.4,0-0.9,0-1.3c-1.8-0.8-3.1,0.9-4.9-0.9c3.7-1.9,6.6-4.8,11.1-3.8   c0.2,1.4-1.2,1.6-1.9,2.3C449.5,54,449.4,55.4,449.9,57z" />
	<path fill="#151311" d="M423.7,90.3c-5.8-1-13.4-4.4-11.5-11.6c0.5,0.1,1.1,0.1,1.6,0.2c0.4,1.7,0.8,3.4,1.1,5   c3.2,3.2,7.3,3.7,11.2,5.5C425.6,90.6,424.4,89.9,423.7,90.3z" />
	<path fill="#403A32" d="M426,28.5c0.2,0.1,0.4,0.1,0.6,0c0.2,0.1,0.5,0.2,0.7,0.2c-0.7,1-1.7,0.7-2.5,0.4c-2-1.1-3.9,0.1-6,0.7   c0,0.6-0.1,1.2-0.1,1.7c-1.4,0.2-2.6,0.8-4.1,0.4c1-0.5,1.8-0.9,2.6-1.4c0.1-0.6,0.2-1.2,0.3-1.8c0.5,0,1.1-0.1,1.9-0.2   c-0.9-0.6-1.5-0.9-2.1-1.3c0.6-0.1,1.1-0.1,2-0.2c-0.4-0.7-0.7-1.3-0.8-1.6c-1.5-0.6-3,0.2-4-1c0.9,0,1.7,0,2.8,0   c-0.4-0.6-0.6-0.9-0.9-1.4c3.3,0.3,6.3,1.5,9.5,1.4c-0.6,0.3-1.1,0.6-1.8,1c0.1,0.3,0.2,0.7,0.4,1.2c-1,0.2-2.5-0.5-3.2,0.4   C422.5,29,424.6,27.2,426,28.5z" />
	<path fill="#1D1A18" d="M455.1,48.2c-3.7,1.8-5.9-1-9.3-1.5c-2.6,0-4.5,2.1-7.4,2C442.4,42.9,450.1,43.7,455.1,48.2z" />
	<path fill="#0E0C0A" d="M416.7,48.7c0.2,0,0.5,0,0.7,0c0.2,0.7,0.5,0.6,0.7,0l0,0c1.2-0.2,2.1,0.1,3,0.9c-1.2,0.9-2.4,1.8-3.7,2.7   c-0.2,0-0.5,0-0.7,0c-0.2-1.7-2.4-2-3.5-0.8c-1.4,0.2-2.9-0.1-4.1,0.5c0.2,0.1,0.3,0.2,0.5,0.4l0,0c0.3,0.2,0.5,0.5,0.8,0.7   c1.6,0,3.3-0.2,4.9,0c0,0.3,0,0.5,0.1,0.8c0,0,0,0,0,0c-0.6-0.1-1.2-0.1-1.5,0.6c-1.5,0.3-3.2-0.3-4.8,0.2c-0.1,0.6-0.2,1-0.3,1.5   c-0.5-0.3-0.9-0.7-1.3-1.1c-0.1-0.6-0.1-1.1-0.8-1.3l0,0c-0.2-0.3-0.4-0.5-0.7-0.8c0.4-0.4,0.8-0.8,1.3-1.3c-0.2-0.5-0.4-1-0.7-1.5   l0,0c0.7,0,1.5,0,2.2,0c0.2,0.2,0.5,0.5,0.7,0.7C411.8,49.5,415.5,51.3,416.7,48.7z" />
	<path fill="#CCB5A0" d="M408.1,55.6c0.7,0.4,1.1,1,1.5,1.6c-0.6,0.3-1.2,0.6-1.8,0.8c-2-1.4-4-2.8-5.7-4.1   c-3.5,0.3-2.9,4.5-5.4,6.1c-0.3-3.9,1.9-6.4,4.9-8.6c0.9,0,1.8,0.1,2.8,0.1c0.8,0.7,1.7,1.3,2.2,2.1c0,0,0,0,0,0   C407.1,54.4,407.5,55.1,408.1,55.6z" />
	<path fill="#353029" d="M439.5,25c-1.1,1-2.2,1.9-3.8,2c0.1-0.5,0.1-0.8,0.2-1.2c-0.9-2.3-2.9-0.8-4.3-2.1c1.3-0.8-1.2-1.4-1.3-0.2   c-1.8-0.5-1.3-1.2-0.5-2.6c-1.8-0.7-3.7-1.3-5.9-2.1c0.7-0.2,1.1-0.3,1.4-0.4C430.3,20.1,435.8,21.3,439.5,25z" />
	<path fill="#BCA698" d="M396.8,60.1c0.5-0.5,0.9-0.9,1.4-1.4c-0.2,1.5-0.5,2.9-0.8,4.5c0.9,0.3,1.7,0.5,2.4,0.7   c0.2,2.8,1.2,5.1,3.3,6.9c-0.6,0.1-1.3,0-1.5,0.8c-2.2-1.8-3.6-4.9-5.2-6.8C396.5,63,396.7,61.5,396.8,60.1z" />
	<path fill="#61584C" d="M435.3,25c0.2,0.3,0.5,0.6,0.7,0.9c-2.6,0.5-6.2-1.3-7.9,1.3c-1.3-0.1-2.3,0.6-3.5,0.8   c0-0.8-0.1-1.8-0.4-2.5C427.7,22.2,431.2,25.9,435.3,25z" />
	<path fill="#14120F" d="M409.6,57.2c-0.3-0.4-0.6-0.7-0.9-1.1c0.1-0.4,0.2-0.9,0.3-1.5c1.4-0.4,2.8-0.2,4.2-0.1   c-0.9,0.3-1.8,0.6-3.1,1c2.4,0.6,4.4,0.6,6.3-0.2c0.1,0.5,0.1,0.8,0.1,1.2C414.5,58.7,412.1,58.5,409.6,57.2z" />
	<path fill="#D9C0B0" d="M409,77.4c-2.6,2.8-5.5-3.1-6.8-5c2.6,0.8,5.2,1.4,6,4.4C408.3,77,408.7,77.2,409,77.4z" />
	<path fill="#BAA991" d="M416.7,56.5c0-0.3-0.1-0.7-0.1-1.2c-1.9,0.8-3.9,0.8-6.3,0.2c2.1-0.8,3.3-1,5.1-1.8l0,0   c0.2-0.1,0.5-0.2,0.7-0.4c0,0.2-0.1,0.3-0.1,0.5C417.1,54.6,418.2,55.1,416.7,56.5z" />
	<path fill="#39342C" d="M430.4,34.5c-0.2-0.7-0.1-1.5-1-1.7c0-1.3,0.9-2.7-0.5-3.5c0-0.2,0-0.3,0-0.5c0.6-0.1,1.2-0.2,1.3-0.9   l0.1-0.1C431.9,29.2,431,32.6,430.4,34.5z" />
	<path fill="#48413C" d="M423.7,90.3c0.8-0.4,2,0.3,2.4-0.9c1.4,0.5,2.8,1,4.1,1.5c0,0.3,0,0.7-0.1,1.3   C427.9,91.5,425.8,90.9,423.7,90.3z" />
	<path fill="#24201B" d="M421.1,49.6c-0.8-0.9-1.8-1.1-3-0.9c1.5-1.7,3.2-1.9,5.1-0.6C422.5,48.6,421.8,49.1,421.1,49.6z" />
	<path fill="#8F826F" d="M439.5,25c-0.5-0.5-0.9-0.9-1.4-1.4c0.6,0,1.3,0.1,1.5-0.8c1,0.7,1.9,1.4,2.9,2.1   C441.5,25.3,440.5,24.2,439.5,25z" />
	<path fill="#C3B197" d="M431.1,32.2c-0.3-1.4,0.6-3.7-0.9-4.5c0.4-0.6,0.6-0.9,1.5-0.9C431.6,28.7,432.2,30.6,431.1,32.2z" />
	<path fill="#C3B197" d="M430.2,27.9c-0.4,1.4-2.4,1-3.5,0.7C427.7,27.4,429,28.1,430.2,27.9z" />
	<path fill="#CCB5A0" d="M408.2,62.3c0-1.2,0-2.4-0.1-3.6C409.2,60.2,409.2,60.8,408.2,62.3z" />
	<path fill="#24201B" d="M423.3,48.1c0-1.4,0-1.4,1.4-1.5C424.2,47.1,423.7,47.6,423.3,48.1z" />
	<path fill="#C3B197" d="M425.1,28c0.3-0.2,0.6-0.4,1-0.6c0,0.4,0,0.8,0,1.1C425.7,28.3,425.4,28.2,425.1,28z" />
	<path fill="#C3B197" d="M428.8,26.4c0.3-0.8,0.9-0.6,1.5-0.5C429.8,26.1,429.3,26.2,428.8,26.4z" />
	<path fill="#C3B197" d="M428.1,27.2c0.2-0.3,0.5-0.5,0.7-0.8C428.5,26.7,428.3,26.9,428.1,27.2z" />
	<path fill="#24201B" d="M416.7,52.2c0.2,0,0.5,0,0.7,0c-0.2,0.2-0.5,0.5-0.7,0.7c0,0-0.1-0.1-0.1-0.1   C416.7,52.7,416.7,52.4,416.7,52.2z" />
	<path fill="#24201B" d="M416.7,53c-0.3,0.3-0.5,0.6-0.8,0.9c0.1-0.2,0.1-0.3,0.1-0.5c0.2-0.2,0.3-0.4,0.5-0.5L416.7,53z" />
	<path fill="#DE8364" d="M273,254.6c-4.1,2.2-10.3-0.8-14.5,1.3c-1,0.9,0.1,2.8-1.6,3.4c-1.6-0.5-0.8-2.1-1.5-3.2   c-0.6,0-1.3,0.1-2,0.2c-0.7-0.5-1.5-1-2.4-1.6c0.8-2,4.4,0.3,6.2-3c-0.2,1.5-0.5,3-0.4,4.6c1.7-1.8,1.3-4.2,2.6-6   c0,0.8,0.1,1.6,0.1,2.4c3.4,0.7,9.9-2.8,11.3,0.5c-2.7,0.8-5.5,0.1-8,1.4C266.2,254.6,269.6,254.6,273,254.6z" />
	<path fill="#281812" d="M287.5,252.4c1.8,0.7,3.9,0.7,5.3,2.5c-0.7,0.9-1.6,0.6-2.3,0.4c-7.9-2.4-15.9-4.5-23.9-6.4   c0.9-1.3,2.8-0.5,4.1-0.6c4.4,1.2,9.2,1.7,13.7,3.6C285.3,252.9,286.4,252.3,287.5,252.4z" />
	<path fill="#EF8B6A" d="M258.7,244.6c-0.4-0.4-0.8-0.8-1.6-1.4c-3.1,0.2-6.9-0.1-10.1-0.9c1.3-3.2,18.5-0.4,21,2.3   C265.1,245.1,261.3,242.5,258.7,244.6z" />
	<path fill="#3E251C" d="M287.5,252.4c-1-0.1-2.2,0.5-3-0.6c0.4-0.1,0.8-0.2,1.6-0.4c-5.3-2.4-9.9-3.1-15.1-4.7   c0.5-1,1.4-0.4,2.1-0.7c4.8,1.6,10.1,2,14.3,5c-0.8,0.3-0.6,0.5,0,0.8C287.4,252,287.4,252.2,287.5,252.4z" />
	<path fill="#EB8D6C" d="M275.3,248c0.4,0.1,0.8,0.2,1.2,0.2c-0.5,0.2-1,0.5-1.4,0.7c-0.4-0.1-0.9-0.1-1.3-0.2   c-1.4-1.4-3.3-0.2-5-0.7c-2.2-1.6-5.8,0.6-7.3-2c0.3-0.2,0.5-0.5,0.8-0.7C266.7,245.9,271.2,246.3,275.3,248z" />
	<path fill="#EE8A6A" d="M271.7,238.2c-3.2-2-6.5-2.9-9.9-4.6c3-0.5,4.3,0.1,12,3.1c-0.5,0.5-0.9,1-1.4,1.6   C272.1,238.2,271.9,238.2,271.7,238.2z" />
	<path fill="#86503E" d="M273,254.6c-3.4,0-6.8,0-10.2-0.1c4.9-1.7,10.3-1.3,15.5-1.4C276.6,254.2,274.9,254.5,273,254.6z" />
	<path fill="#492C22" d="M259.4,250.3c-1.4,1.8-0.9,4.2-2.6,6c-0.2-2.8,0.7-5.6,1.8-8.2c-0.6-1.5-2.6,0-3.3-1.7   c1.9,0.2,3.6,0.2,5.4,0.5C260.3,248.1,259.9,249.1,259.4,250.3z" />
	<path fill="#ED8A6A" d="M276.6,237.4c0.9,2.4,4.6,1.8,4.9,4.6c-2.5,0.4-5.2-2.3-7.7-3.1C274.7,238.4,275.6,237.9,276.6,237.4z" />
	<path fill="#5C3629" d="M271.7,238.2c0.2,0,0.5,0,0.7,0c0,0.6,0,0.8,0,1.6c1.1,0.8,2.3,1.6,3.4,2.4c-1.7,1.4-4.3-2.5-6.8-1.7   c-0.5,0.1-1.1-0.7-1.7-1.1c1.1-0.7,2.3-0.8,3.5-0.7C271.1,238.6,271.4,238.4,271.7,238.2C271.7,238.2,271.7,238.2,271.7,238.2z" />
	<path fill="#A05F49" d="M267.4,245.9c-2.2-0.2-4.3-0.5-6.5-0.7c-0.5-0.9-1.4-0.6-2.2-0.7c0,0,0,0,0,0c2.5-2,6.3,0.5,9.3,0   c0.3,0.2,0.6,0.4,0.8,0.6C268.4,245.4,267.9,245.7,267.4,245.9z" />
	<path fill="#7B4A39" d="M260.2,248.3c0.1-0.4,0.3-0.8,0.4-1.4c-0.4-0.1-0.9-0.2-1.3-0.2c0.5-0.8,1.3-0.7,2.1-0.6   c1.5,2.6,5.1,0.4,7.3,2c-0.7,0.3-1.7-0.3-2.1,0.7C264.5,248.6,262.4,248.5,260.2,248.3z" />
	<path fill="#492F27" d="M272.3,238.9c0-0.2,0-0.4,0-0.6c1.5-2.1,3.2-3.1,6-2.7C276.5,237.6,274.9,238.9,272.3,238.9z" />
	<path fill="#945642" d="M268.8,238.8c-0.5,0.2-1,0.5-1.4,0.7c-1.6-0.5-3.2-1.1-4.8-1.6C262.2,235.7,267.7,238.4,268.8,238.8z" />
	<path fill="#744636" d="M260.8,269c-1.1-1-2.3-2.1-3.8-3.4c0.4-0.4,0.7-0.7,1.2-1.2c1.3,1.5,2.3,2.7,3.3,3.8   C261.3,268.5,261.1,268.7,260.8,269z" />
	<path fill="#7C4A39" d="M267.4,245.9c0.5-0.3,1-0.5,1.5-0.8c1.4,0.2,3-0.3,4.2,0.8c-0.7,0.3-1.7-0.3-2.1,0.7   C269.8,246.4,268.6,246.2,267.4,245.9z" />
	<path fill="#C3765B" d="M260.8,269c0.2-0.3,0.5-0.5,0.7-0.8c0.9,0.2,1.3,0.8,1.4,1.7C261.8,270.5,261.3,269.8,260.8,269z" />
	<path fill="#EB8D6C" d="M258.7,244.6c0.8,0.1,1.7-0.2,2.2,0.7C260.1,245.2,259.2,245.6,258.7,244.6z" />
	<path fill="#281812" d="M287.4,251.8c-0.6-0.2-0.8-0.5,0-0.8C288,251.2,288.2,251.5,287.4,251.8z" />
	<path fill="#EE8A6A" d="M274.6,236.1c-0.3,0.2-0.6,0.4-0.9,0.6C274,236.5,274.3,236.3,274.6,236.1z" />
	<path fill="#EE8A6A" d="M271.7,238.2c-0.3,0.2-0.5,0.4-0.8,0.6C271.1,238.6,271.4,238.4,271.7,238.2z" />
	<path fill="#131210" d="M395.9,138.1c-2.7,3-7.7,3-10.6,0.8C386.7,136.5,392.8,138.9,395.9,138.1z" />
	<path fill="#302B28" d="M400,135.3c-1.3,1.5-1.3,1.5-2.7,0.7C397.9,134.7,399,135.3,400,135.3z" />
	<path fill="#3B3531" d="M403.8,133.5c0.9-0.7,0.9-0.7,2-0.7C405.5,133.7,405,134,403.8,133.5z" />
	<path fill="#AF9C90" d="M597,137.7c1.3-0.2,1.8-0.2,2.5-0.3C599,138.5,598.6,139,597,137.7z" />
	<path fill="#453D38" d="M322.3,439c-0.6,0.3-1.1,0.6-1.8,0.9c0.2-2.1,0.2-2.1,1.7-3C322.2,437.7,322.3,438.4,322.3,439   C322.3,439,322.3,439,322.3,439z" />
	<path fill="#544C46" d="M362.3,336.1c-0.1,1.3-0.1,1.3-0.8,2.5C359.7,338.6,360.9,335.8,362.3,336.1L362.3,336.1z" />
	<path fill="#F6D9C7" d="M364.5,351.1c0,0.2,0,0.4-0.1,0.6c-0.1-0.1-0.3-0.2-0.4-0.3C364.2,351.3,364.4,351.2,364.5,351.1z" />
	<path fill="#1B1917" d="M351.7,233.2c16.2-6.8,24.6-3.5,2.2,0.8C353.2,233.6,352.1,234.2,351.7,233.2z" />
	<path fill="#2F2A26" d="M330.4,240.8c1.4-2.5,3.6-5.8,6.8-5.3C336.6,238,333,239.8,330.4,240.8z" />
	<path fill="#2E2926" d="M330,241.8c-1,2-2.9,2.5-4.3,3.6C324.2,243.1,327.8,241.2,330,241.8z" />
	<path fill="#544C47" d="M351.7,233.2c0.5,1.1,1.5,0.4,2.2,0.8c-2,1.1-4.4,0.8-6.6,1.2c-0.5-0.2-1-0.4-1.5-0.7   C347.7,233.6,349.8,233.7,351.7,233.2z" />
	<path fill="#3E3936" d="M345.8,234.5c0.5,0.2,1,0.4,1.5,0.7c-1.1,0.2-2.1,0.4-3.3,0.6C344.2,234.3,345.1,234.6,345.8,234.5z" />
	<path fill="#EAD4B5" d="M402.4,78.8c-1.1,0.1-2.2,0.3-3.4,0.4c-0.3-0.9-0.7-1.5-1.6-1.2l0,0c-0.5-1-1.6-0.8-2.5-1   c-0.3-1.3,0.7-1.1,1.2-1.3l0,0c0.7,1.1,1.7,0.8,2.8,0.8l0,0c0.9,1.2,2.3,0.7,3.6,0.7c0,0,0,0,0,0C402.4,77.8,402.4,78.3,402.4,78.8   z" />
	<path fill="#312C28" d="M420.9,95.2c-1.4-1.4-2.7-2.9-4-5.2c3,0.1,3.2,2.5,4.9,4.3C421.5,94.6,421.2,94.9,420.9,95.2z" />
	<path fill="#776B62" d="M420.9,95.2c0.3-0.3,0.6-0.6,0.9-0.9c1.2,1.7,2.4,3.5,3.7,5.4C423.5,99.6,422.4,96.6,420.9,95.2z" />
	<path fill="#413B32" d="M403.2,78c0.2,0.3,0.3,0.6,0.5,1C403.5,78.6,403.3,78.3,403.2,78z" />
	<path fill="#716A4B" d="M362.6,188.2c1,0.5,0.4,2.3-0.7,1.6C361.3,189.3,361.8,188.3,362.6,188.2z" />
	<path fill="#2B291D" d="M361.1,192.9c0.6,0.6,1,1,1.5,1.6C361.1,194.7,361.1,194.7,361.1,192.9z" />
	<path fill="#252321" d="M629.7,148.7c1.8,0.7-1.1,2.7-1.4,0.8c0,0,0,0,0,0c0.3-0.2,0.6-0.4,0.9-0.7   C629.3,148.9,629.5,148.8,629.7,148.7z" />
	<path fill="#D9C1B1" d="M629.1,148.8c-0.3,0.2-0.6,0.4-0.9,0.7C628.6,149.3,628.8,149.1,629.1,148.8z" />
	<path fill="#ECD6B6" d="M373.8,27.1c0.5-0.3,1-0.5,1.4-0.8c0.6,0.1,1.3,0.2,1.9,0.3c-4.4,5.2-8.6,10.4-9.1,17.3   C366.2,38.7,370.5,31.4,373.8,27.1z" />
	<path fill="#2C2721" d="M369.6,38c1.1-2.2,1.9-4.6,3.6-6.4c0.3,0.3,0.5,0.6,0.8,0.9c-3.3,4.9-2.8,10.9-4.4,16.2   C368.8,45.1,369.4,41.5,369.6,38z" />
	<path fill="#90816C" d="M369.6,48.6c1.4-1.9,0-4.5,1.4-6.4c0.1,5.3,0.2,10.6,1.5,15.7C370.4,59.3,369.8,50.3,369.6,48.6z" />
	<path fill="#80736A" d="M385.2,158c0.3,0.3,0.6,0.6,0.9,0.9c-0.8,0.6-1.5,1.3-2.3,1.9c-0.4,0-0.8-0.1-1.6-0.2   C383.1,159.3,384.2,158.7,385.2,158z" />
	<path fill="#36312D" d="M373.8,166.7c-0.5,0.2-1.1,0.3-1.7,0.5c0.6-1.6,0.6-1.6,2.3-1.8C374.2,165.9,374,166.3,373.8,166.7   C373.9,166.7,373.8,166.7,373.8,166.7z" />
	<path fill="#4A433E" d="M380.3,163.8c-0.3,0.2-0.5,0.5-0.8,0.7c-0.6,0-1.1,0-2,0C378.3,163.1,379.4,162.4,380.3,163.8z" />
	<path fill="#50493E" d="M373.9,32.4c-0.3-0.3-0.5-0.6-0.8-0.9c1.3-1.6,2.6-3.2,4-4.9c-0.6-0.1-1.3-0.2-1.9-0.3   c1.3-1.4,2.5-0.3,3.7,0.2c-0.1,0.2-0.1,0.4-0.1,0.6C377.2,28.9,375.5,30.6,373.9,32.4z" />
	<path fill="#B4A086" d="M397.4,70.9c-2.7-0.9-4.7-2.7-6.9-4.5c0.9-1.1,2.1,0.9,2.8-0.5c0.5,0.1,1.1,0.9,1.4-0.2   c1.5,1.5,2.9,3.1,3.6,5.2C398,70.8,397.7,70.8,397.4,70.9z" />
	<path fill="#A39179" d="M393.1,70.9c2-0.6,4.2,2.7,5.7,0.7c1.2,0.7,1.7,1.8,2.4,3.4c-3.3-0.3-5.9-1.4-8.2-3.3   C393.1,71.3,393.1,71.1,393.1,70.9L393.1,70.9z" />
	<path fill="#685D4E" d="M391.6,52.4c0.6-0.2,1.3,0,1.5-0.8c1.5,0.2,2.7,1.2,4.2,0.6c-0.4,0.5-0.8,1.1-1.3,1.6   C395,52.2,392.8,53.8,391.6,52.4z" />
	<path fill="#14120F" d="M406,52.9c-0.5-0.4-1.1-0.9-1.6-1.3c0.6-0.7,1.4-1.2,2.2-1.5c0.2,0.5,0.5,1.1,0.7,1.5   C406.8,52.1,406.4,52.5,406,52.9z" />
	<path fill="#C1AC90" d="M402.4,77.2c-1.3-0.1-2.7,0.4-3.6-0.7C400.1,76.6,401.4,76.3,402.4,77.2z" />
	<path fill="#C1AC90" d="M398.9,76.5c-1.1,0-2.2,0.3-2.8-0.8C397,75.8,398.1,75.7,398.9,76.5z" />
	<path fill="#A39179" d="M397.4,70.9c0.3,0,0.6,0,1-0.1c0.2,0.3,0.4,0.5,0.6,0.8C398.2,71.6,397.7,71.5,397.4,70.9z" />
	<path fill="#B4A086" d="M394.5,65.1c-0.7-0.3-0.7-0.9-0.6-1.5C394.1,64.1,394.3,64.6,394.5,65.1z" />
	<path fill="#312C24" d="M393.1,70.8c0,0.3-0.1,0.5-0.1,0.8c-0.2,0-0.4,0-0.6,0c0-0.2,0-0.5,0-0.7C392.6,70.8,392.9,70.8,393.1,70.8   z" />
	<path fill="#24201B" d="M404.6,50.2c0.3,0.2,0.5,0.3,0.8,0.5C405.1,50.6,404.8,50.4,404.6,50.2z" />
	<path fill="#AF9D84" d="M409.6,42.2c2.1,0.7,4,2,6.4,1.4c-1.2,1.2-3,0.7-4.6,0.9c0,0.1,0,0.3,0,0.4c1.6,0.1,3.2,0.2,4.8,0.3   c-2.2,0.6-4.4,1.5-6.7,2c-1.2-1.1-2.3-1-3.5-0.1c-3.6-0.2-6.9-1.1-10.1-2.7c3.5-0.1,7.6,1.8,10.8,0.1c0.8,0.2,1.7,0.3,2.4,0.5   c-0.3-0.4-0.7-0.9-1-1.3c0.6,0,1.2-0.1,2-0.1C409.8,43.1,409.7,42.7,409.6,42.2z" />
	<path fill="#50483C" d="M408,43.7c0.3,0.4,0.7,0.9,1,1.3c-2.6-0.3-5.1-1.7-7.5-2.7c0.3-0.2,0.6-0.5,0.9-0.7   C404.3,42.3,406.2,43,408,43.7z" />
	<path fill="#9B8A73" d="M388.1,55.3c0.4-0.3,0.9-0.5,1.3-0.8c1.7,0.4,3.2,0.2,4.6,1.5C392.1,56.1,389.3,55.7,388.1,55.3z" />
	<path fill="#0B0A09" d="M414.5,24.4c1,1.2,2.5,0.4,4,1c0.2,0.3,0.5,0.9,0.8,1.6c-0.8,0.1-1.4,0.2-2,0.2l0,0   c-0.5-1.1-1.4-0.7-2.2-0.7c-7.1-0.3-14-4.2-21.1-2.5c-0.3-0.7-0.6-1.2-0.8-1.8c0,0,0,0.1,0,0.1C398.9,18.1,408.2,23,414.5,24.4z" />
	<path fill="#918370" d="M415.3,20.1c4-0.4,7.9-0.1,11.2,2.3c-0.5,0.5-0.7,0.8-1,1.1c-3.2-0.5-6.2-1.6-9.4-2.1   C415.8,21,415.5,20.5,415.3,20.1z" />
	<path fill="#E0CBAE" d="M417.3,21.6c1.9,0.5,3.7,1,5.6,1.4c-0.5,0.2-0.9,0.5-1.4,0.7c-1.7-0.2-3.4-0.5-5.1-0.7   c0.3,0.5,0.5,0.8,0.9,1.4c-1.7,0-3,0.2-4.4-0.7c0.6-0.1,1.2-0.1,1.8-0.2c0-0.4,0.1-0.7,0.1-1C415.7,22.2,416.5,21.9,417.3,21.6z" />
	<path fill="#E0CBAE" d="M415.3,20.1c0.3,0.5,0.5,0.9,0.8,1.4c-1.1,0.1-1.9-0.3-2.2-1.5C414.4,20,414.8,20,415.3,20.1   C415.3,20.1,415.3,20.1,415.3,20.1z" />
	<path fill="#918370" d="M415.3,20.1c-0.5,0-0.9-0.1-1.4-0.1c0-0.2-0.1-0.3-0.2-0.5C414.4,19.3,415,19.3,415.3,20.1z" />
	<path fill="#C8B395" d="M406,47.1c1.2-0.9,2.4-1,3.5,0.1C408.4,47.2,407.2,47.2,406,47.1z" />
	<path fill="#14120F" d="M409.6,50.8c-0.2-0.2-0.5-0.5-0.7-0.7C409.1,50.3,409.3,50.6,409.6,50.8z" />
	<path fill="#443F3B" d="M648.3,145.2c-0.2,0.2-0.5,0.4-0.7,0.7C647.8,145.7,648.1,145.5,648.3,145.2z" />
	<path fill="#2C2822" d="M416.8,14.3c-2,0-4,0-5.9,0C412.6,13.2,415,13.4,416.8,14.3z" />
	<path fill="#2C2822" d="M409.6,14.4c0,0.2,0,0.4,0,0.6c-0.9,0-1.9,0-2.8,0c0-0.2,0-0.4,0-0.6C407.7,14.2,408.6,14.4,409.6,14.4z" />
	<path fill="#E6D0B1" d="M411,40.1c-0.7,0.2-1.4,0.4-2,0.6c-6.3-1.9-13.5-1.2-18.8-5.5c0,0,0,0,0,0c0.2-1.1-0.9-2.4,0.8-2.3l0,0   c4.1,2,9.4,3.9,14.3,4.2c2,1.8,4.7,0.4,6.4,1.4C411.4,39.1,411.2,39.6,411,40.1z" />
	<path fill="#C8B395" d="M408,43.7c-2.8-1.1-5.1-1.7-7.9-3.2c0.8-0.1,1.2-0.2,1.5-0.3c2.4,1.4,5.3,1.1,7.9,2   c0.1,0.4,0.3,0.8,0.5,1.3C409.2,43.6,408.6,43.7,408,43.7z" />
	<path fill="#494237" d="M406.7,41.5c-1.8,0-3.5-0.4-5-1.3c0-0.3,0-0.5,0-0.8c2.4,0.4,4.9,0.4,7.3,1.3   C408.3,41.1,407.2,40.4,406.7,41.5z" />
	<path fill="#C9B597" d="M390.1,35.2c0.3,0.2,0.5,0.4,0.8,0.6C390.7,35.6,390.4,35.4,390.1,35.2z" />
	<path fill="#685F51" d="M406.8,14.4c0,0.2,0,0.4,0,0.6c-1.3,0-2.5,0-3.8,0C404.2,14.2,405.5,14.4,406.8,14.4z" />
	<path fill="#2C2822" d="M412.9,15.1c0.6,0,1.3,0,1.9,0.1c-0.3,0.2-0.6,0.4-1,0.5c-0.1-0.1-0.4-0.1-0.6-0.1   C413.2,15.5,413.1,15.3,412.9,15.1z" />
	<path fill="#A7957D" d="M405.2,37.2c-0.2,0-0.5,0-0.7,0c0-0.3-0.1-0.7-0.1-1.1c-3.3-1-7.1-1.7-9.9-3.8c3.6,0.3,7.7,1.4,10.8,3.4   C405.3,36.2,405.2,36.7,405.2,37.2z" />
	<path fill="#4E463B" d="M400.9,35.2c1.2,0.3,2.3,0.6,3.5,0.9c0,0.5,0.1,0.8,0.1,1.1c-1.8,0-3.4-0.6-5.1-1.3   C399.9,35.7,400.4,35.4,400.9,35.2z" />
	<path fill="#C9B597" d="M392.5,33.6c-0.6,0.1-1.2,0.1-1.5-0.7C391.5,33.2,392,33.4,392.5,33.6z" />
	<path fill="#A7957D" d="M393,31.6c0.3,0,0.5-0.1,0.8-0.1c0.3,0.3,0.5,0.5,0.8,0.8C394,32.1,393.5,31.8,393,31.6z" />
	<path fill="#A7957D" d="M391.5,31c0.3,0.2,0.6,0.3,0.9,0.5C392.1,31.3,391.8,31.1,391.5,31z" />
	<path fill="#D6C0A0" d="M393.2,22.3c0.2,0.5,0.5,1,0.8,1.8c5.3-1.6,10.4,1.1,15.6,1.7c-1.1,0.1-2.2,0.2-3.9,0.3   c2.9,1.4,5.3,2.5,6.9,3.2c2.2-0.2,3.5-0.3,4.9-0.5c-0.1,0.6-0.2,1.1-0.3,1.8c-0.8,0.4-1.6,0.8-2.6,1.4c3.9,0.1,7.9-1,12-1.1   c-7.3,5.1-17.7,5.1-25.7,1.4l0,0c-3.6-1.9-7.2-3.9-10.9-5.6c0.8-0.6,1.7-1.2,2.5-1.8C392.9,24,391.6,22.8,393.2,22.3z M403.6,29.4   c-3.4-1.9-6.1-3.2-10-2.7C397,27.9,399.7,29.2,403.6,29.4z" />
	<path fill="#D6C0A0" d="M393.8,21.5c-0.2,0.3-0.4,0.5-0.6,0.8C393.4,22,393.6,21.8,393.8,21.5z" />
	<path fill="#7C7060" d="M425.4,18.5c-0.3,0.1-0.6,0.2-1.4,0.4c2.2,0.8,4,1.4,5.9,2.1c-0.1,0.2-0.2,0.4-0.3,0.5   c-3.5,0-6.2-1.8-9.2-2.9c-1.2,0.3-2.4,1.4-3.6,0.1c0.4-0.1,0.8-0.2,1.2-0.3c-0.2-0.2-0.3-0.3-0.5-0.5c0,0,0,0,0,0   c0.2-0.3,0.5-0.5,0.7-0.8c1.8,1.2,4.3,1.2,5.7-0.7c0.7,0,1.3,0.1,2,0.1c0.1,0.2,0.2,0.3,0.3,0.5c-0.4,0.1-0.8,0.1-1.4,0.2   C425,17.8,425.2,18.1,425.4,18.5z" />
	<path fill="#C5B499" d="M418.1,17.1c-0.2,0.3-0.5,0.5-0.7,0.8c-1.2-0.7-2.7-1-3.6-2.2c1.8-1.1,4.1-0.3,6.1-0.6   c0.2,0.2,0.3,0.3,0.4,0.5c-1.3,0.1-2.6,0.2-4.2,0.2C417.1,16.5,417.6,16.8,418.1,17.1z" />
	<path fill="#C5B499" d="M416,18.5c-0.8,0.1-1.7,0.2-2.3-0.5C414.5,17.9,415.4,17.6,416,18.5z" />
	<path fill="#C5B499" d="M417.4,17.9c0.2,0.2,0.3,0.3,0.5,0.5c-0.2,0.1-0.3,0.1-0.5,0.2C417.4,18.4,417.4,18.1,417.4,17.9z" />
	<path fill="#584F42" d="M398.1,30.7c1,0.5,1.9,1,2.9,1.5c-0.6,0.1-1.3,0-1.5,0.8c-1.5,0.2-2.8-0.6-4.2-0.9c1.1-0.9,1.9-0.3,3.2,0.1   C398.4,31.5,398.2,31.1,398.1,30.7z" />
	<path fill="#3D372F" d="M420.3,18.7c1.6,0.1,2.8,1.5,4.3,2.1c0,0.2,0,0.4,0.1,0.5c-1.5-0.6-3.2-0.9-4.3-2   C420.3,19.1,420.3,18.9,420.3,18.7z" />
	<path fill="#7C7060" d="M420.3,19.3c0.3,0.2,0.5,0.4,0.8,0.7c-0.3,0-0.6,0-0.9,0C420.2,19.8,420.3,19.6,420.3,19.3z" />
	<path fill="#C1AC90" d="M397.4,78c0.7-0.1,1.3-0.1,1.4,0.8C398.3,78.5,397.8,78.3,397.4,78z" />
	<path fill="#040505" d="M474.7,556.4c0.2,0.2,0.4,0.5,0.8,0.9c-21.4,8.9-46.1,20.6-69.4,18.4C429.6,572.5,452.8,564.8,474.7,556.4   L474.7,556.4z" />
	<path fill="#0A0C0D" d="M360.2,575.7c6.1,1.7,12.9,0,19.4,0.8c-9.9,3.6-22.3,0.1-32.9-0.2C350.5,574.5,355.9,576.2,360.2,575.7z" />
	<path fill="#0F191C" d="M449.6,537.8c8.1-2.9,16.2-4.9,23.3-9.9c-1.7,6.5-15.2,8.4-21.1,10.7C451.1,538.3,450.1,538.9,449.6,537.8z   " />
	<path fill="#325764" d="M449.6,537.8c0.4,1.1,1.4,0.5,2.2,0.7c-5.6,1.5-12,3.6-17.9,3.9C437.9,539.5,444.7,539.6,449.6,537.8z" />
	<path fill="#236A88" d="M283,543.5c0.7-0.3,1.7,0.3,2.1-0.7c4.3,0.7,8.5,2.2,12.9,2.1C296.1,546.7,285.4,544.7,283,543.5z" />
	<path fill="#335A68" d="M396.7,493.4c-0.2-0.8-1-0.7-1.5-0.8c5.6-2.1,6.3-2.2,8.7-1.4C402,492.6,398.9,492.4,396.7,493.4z" />
	<path fill="#21282C" d="M348.9,575.6c-0.7,0.3-1.7-0.3-2.2,0.7c-2.5,0.1-5.9-0.1-7.9-1.3C342.1,575.3,345.9,574.4,348.9,575.6z" />
	<path fill="#4C505E" d="M331.6,572.1c-1.2,0-2.5,0.2-3.6-0.6C329.3,571.4,330.6,571.1,331.6,572.1z" />
	<path fill="#4C505E" d="M474.6,556.4c-0.3,0.7-0.9,0.7-1.5,0.7C473.5,556.4,474,556.3,474.6,556.4z" />
	<path fill="#4C505E" d="M321.7,570.5c-0.6,0.1-1.2,0.2-1.5-0.5C320.7,570.2,321.2,570.4,321.7,570.5z" />
	<path fill="#4C505E" d="M325.3,571.3c-0.6,0.1-1.2,0.2-1.5-0.5C324.3,570.9,324.8,571.1,325.3,571.3z" />
	<path fill="#0D0E0D" d="M350.2,472.6c0.8,5.3-6.4,7.7-9.2,11.6C334.2,482.3,346.8,471.1,350.2,472.6L350.2,472.6z" />
	<path fill="#2A2C28" d="M361.1,490.8c0-2.2,3.1-4.5,4.6-2.2C366.8,491.1,362.7,493,361.1,490.8z" />
	<path fill="#225B73" d="M284.6,521.3c-4.1-0.9-8.5-3-10.8-6.5c0.3-0.3,0.4-0.4,0.6-0.5C277.6,516.5,280.9,518.8,284.6,521.3z" />
	<path fill="#0F2E3B" d="M262.4,529.3c0.2-0.3,0.4-0.6,0.5-0.8C262.8,528.7,262.6,529,262.4,529.3z" />
	<path fill="#473E39" d="M319.6,446.9c-0.2,0.1-0.3,0.3-0.3,0.5c-0.3,0-0.7,0-1.1,0c-0.4-1.3-0.3-2.4,1.3-3.4   C319.5,445.2,319.6,446.1,319.6,446.9z" />
	<path fill="#070708" d="M488.9,551.3c1.5,7.3-16.9,17.5-22,16.5c7.1-4.4,18.4-7.7,20.8-16.3C488.2,551.4,488.5,551.4,488.9,551.3z" />
	<path fill="#1B1B1F" d="M280.8,567.8c-0.6,2.1-10.8-2.5-10.4-4.1c2.1-0.1,3.4,1.9,5.4,1.9C277.2,567.1,279.1,567.2,280.8,567.8z" />
	<path fill="#191A1C" d="M296.6,571.4c-2,1.9-7.3,0.3-7.8-2.1C291.4,570,293.9,571.2,296.6,571.4z" />
	<path fill="#27282B" d="M448.8,573.4c-1.4,2.2-4.1,2.3-7,2.1C444.1,574.3,446.3,573.9,448.8,573.4z" />
	<path fill="#313237" d="M413.1,580.5c1.8-2,3.6-1.2,5.7-1.2C417.1,581.3,415.2,580.5,413.1,580.5z" />
	<path fill="#E4CFB1" d="M445.4,23.6c-0.4,0-0.8,0-1.2-0.2c0.2-0.2,0.3-0.4,0.5-0.6C444.9,23.1,445.2,23.4,445.4,23.6z" />
	<path fill="#383330" d="M348,376.8c0.7-1,0.9-1.6,2.2-1.9c-0.2,1.4-1,2.3-1.4,3.4C347.9,378.1,348.2,377.4,348,376.8z" />
	<path fill="#80736A" d="M348,376.8c0.1,0.5-0.1,1.3,0.7,1.4c-0.4,1-0.9,1.4-1.9,2C346.4,378.7,347.2,377.8,348,376.8z" />
	<path fill="#A29085" d="M344.1,385c0.3,0.2,0.5,0.4,0.8,0.6c0,1-0.7,1.4-1.6,1.7C342.8,386.3,343.2,385.6,344.1,385z" />
	<path fill="#C3B197" d="M420.3,36.5c3.2,0.4,6-3.5,9-2.3C429.6,36.9,421,39.2,420.3,36.5L420.3,36.5z" />
	<path fill="#C7B295" d="M405.2,37.2c0-0.5,0-1,0.1-1.5c2.9,1.5,6.2,1.2,9.3,2.3c0.2,0.5,0.5,0.9,0.7,1.4c-1.4,0.3-2.8,0.5-4.3,0.8   c0.2-0.5,0.4-1,0.6-1.5C409.9,37.6,407.2,38.9,405.2,37.2z" />
	<path fill="#D6C2A6" d="M425.3,32.2c1.1-1.1,2.3-2,3.5-2.9c1.4,0.8,0.6,2.3,0.5,3.5C428,32.6,426.5,33.3,425.3,32.2z" />
	<path fill="#1F1C17" d="M399.5,33c0.3-0.8,0.9-0.7,1.5-0.8l0,0c0.3,0.8,0.9,0.7,1.6,0.6c1.4,0.5,2.9,1,4.3,1.5   c-0.7,0.3-1.7-0.3-2.3,0.7C402.9,34.3,401,34,399.5,33z" />
	<path fill="#C8B395" d="M416.2,45.2c-1.6-0.1-3.2-0.2-4.8-0.3c0-0.1,0-0.3,0-0.4c3,0.3,5.2-1.4,8.1-0.9c0,0.2,0,0.5,0,0.7l-0.2,0.1   c-0.7,0-1.5-0.3-1.9,0.5C417,45.1,416.6,45.2,416.2,45.2z" />
	<path fill="#A59680" d="M420.3,36.5c-1.1,0.7-2.2,1.1-3.6-0.5C418.3,36.1,419.6,35.1,420.3,36.5C420.3,36.5,420.3,36.5,420.3,36.5z   " />
	<path fill="#887966" d="M415.2,39.3c-0.2-0.5-0.5-0.9-0.7-1.4c0.9,0.1,1.8,0.2,2.9,0.3C416.8,39.5,416,39.4,415.2,39.3z" />
	<path fill="#9F8E77" d="M420.7,42.8c0.6-0.5,1.3-0.9,2.4-0.3c-0.5,0.4-1,0.8-1.4,1.2C421.4,43.3,421.1,43.1,420.7,42.8z" />
	<path fill="#9F8E77" d="M419.6,43.6c-1,0-2-0.1-3-0.1c0.9-0.8,2-0.6,3-0.6C419.6,43.2,419.6,43.4,419.6,43.6z" />
	<path fill="#AF9D84" d="M419.6,43.6c0-0.2,0-0.4,0-0.6c0.4-0.1,0.8-0.1,1.2-0.2c0.3,0.3,0.6,0.6,1,0.9c-0.1,0.1-0.3,0.2-0.4,0.1   c-0.5,0.3-1.1,0.5-1.7,0.6C419.6,44.1,419.6,43.9,419.6,43.6z" />
	<path fill="#AF9D84" d="M417.4,45c0.4-0.7,1-0.6,1.6-0.5C418.5,44.7,418,44.9,417.4,45z" />
	<path fill="#9F8E77" d="M420.3,44.2c0.3-0.1,0.6-0.3,1-0.4C420.9,43.9,420.6,44.1,420.3,44.2z" />
	<path fill="#24201B" d="M418.1,48.7c-0.2,0.6-0.5,0.7-0.7,0C417.7,48.7,417.9,48.7,418.1,48.7z" />
	<path fill="#C5AD9F" d="M400.1,60c0.5-1.3,0.9-2.6,2.3-3.6c0.5,0.3,0.9,0.6,1.5,0.9c-0.5,1.6-1.6,2.6-2.8,3.6   C400.7,60.6,400.4,60.3,400.1,60z" />
	<path fill="#7F6F66" d="M400.1,60c0.3,0.3,0.6,0.6,1,0.9c-0.4,0.7-0.7,1.4-2,1.1C399.4,61.3,399.8,60.6,400.1,60z" />
	<path fill="#C7B59B" d="M425.4,18.5c-0.2-0.4-0.4-0.7-0.7-1.2c5.1-0.2,10,4,14.9,5.5C438.6,25.2,428.8,18.3,425.4,18.5z" />
	<path fill="#695F52" d="M429.9,16.9c2.6,0.1,4.9,0.5,6.8,2.9C434,19.4,432.2,18.1,429.9,16.9z" />
	<path fill="#2C2822" d="M420.4,15.7c-0.1-0.2-0.3-0.4-0.4-0.5c0.8,0,1.8-0.5,2.4,0.4c-0.1,0.1-0.1,0.2,0,0.4   C421.7,15.9,421.1,15.8,420.4,15.7z" />
	<path fill="#7C7060" d="M422.4,15.6c0.3,0.3,0.6,0.6,0.9,0.9c-0.1,0.2,0,0.3,0.1,0.5c-0.1,0.1-0.2,0.2-0.3,0.3   C422.9,16.7,422.2,16.2,422.4,15.6z" />
	<path fill="#2C2822" d="M426.7,17.1c-0.2,0-0.5,0-0.6,0c-0.1-0.2-0.2-0.4-0.3-0.5C426.1,16.8,426.4,16.9,426.7,17.1z" />
	<path fill="#2C2822" d="M423.3,17c-0.1-0.2-0.1-0.3-0.1-0.5c0.2,0,0.4,0,0.6,0C423.7,16.7,423.5,16.8,423.3,17z" />
	<path fill="#E4CFB1" d="M417.6,28.8c-1.4,0.1-2.8,0.3-4.9,0.5c-1.6-0.8-3.9-1.8-6.9-3.2c4.4-0.5,7.6,0,11.6,1.3l0,0   c0.6,0.4,1.2,0.8,2.1,1.3C418.7,28.7,418.2,28.7,417.6,28.8z" />
	<path fill="#24211C" d="M428.8,29.2c-0.7,0.5-1.4,1.1-2.1,1.6c-2.6,0.2-5.2,0.5-7.9,0.7c0-0.6,0.1-1.1,0.1-1.7c2-0.6,3.9-1.8,6-0.7   c0.8,0.4,1.8,0.6,2.5-0.4c0.5,0,0.9,0,1.4,0C428.8,28.9,428.8,29.1,428.8,29.2z" />
	<path fill="#BBAA91" d="M424.5,26.6c0,0.5,0,0.9,0,1.4c-1.1,0-2.4,0.4-3.2-1C422.1,26.1,423.5,26.8,424.5,26.6z" />
	<path fill="#AC9C86" d="M421.6,23.8c0.5-0.2,0.9-0.5,1.4-0.7c1.5,0.3,2.9,0.6,4.4,0.7c-0.5,0.2-0.9,0.4-1.4,0.7   C424.5,24.2,422.9,24.7,421.6,23.8z" />
	<path fill="#756B5B" d="M409.6,51.6c1.6,0.2,5.3-1.1,5.6,0.7c-0.3,0.2-0.6,0.4-0.9,0.6c-1.3,0-2.7,0-4,0.1   c-0.3-0.2-0.5-0.5-0.8-0.7l0,0C409.6,52,409.6,51.8,409.6,51.6z" />
	<path fill="#14120F" d="M415.3,52.3c0.2-1.2-1.3-0.7-2.1-0.9c2-2.2,5.4,1.2,2.2,2.4C415.3,53.3,415.3,52.8,415.3,52.3z" />
	<path fill="#14120F" d="M415.3,53.7c-0.5,0.2-1,0.4-1.5,0.6C414.1,53.6,414.7,53.7,415.3,53.7z" />
	<path fill="#14120F" d="M407.5,55c-0.3-0.4-0.5-0.9-0.8-1.3C407.4,53.8,407.4,54.4,407.5,55z" />
	<path fill="#24201B" d="M415.3,52.3c0,0.2,0,0.4,0,0.7c-0.3,0-0.6-0.1-0.9-0.1C414.7,52.7,415,52.5,415.3,52.3z" />
	<path fill="#14120F" d="M409.6,52.2c0.3,0.2,0.5,0.5,0.8,0.7C410.1,52.7,409.8,52.5,409.6,52.2z" />
	<path fill="#24201B" d="M409.6,51.6c-0.1,0.2-0.1,0.4-0.1,0.7c-0.2-0.1-0.3-0.2-0.5-0.4C409.3,51.8,409.5,51.7,409.6,51.6z" />
	<path fill="#14120F" d="M408.1,55.6c-0.2-0.2-0.4-0.4-0.5-0.6C407.7,55.2,407.9,55.4,408.1,55.6z" />
	<path fill="#14120F" d="M406.7,53.7c-0.2-0.3-0.4-0.5-0.6-0.8C406.3,53.2,406.5,53.4,406.7,53.7z" />
	<path fill="#1D1B17" d="M427.3,23.8c-0.6-0.1-1.2-0.2-1.9-0.2c0.3-0.3,0.6-0.6,1-1.1c-0.6-0.4-1.2-0.7-1.8-1.1c0-0.2,0-0.4-0.1-0.5   c1.7,0.3,3.3,0.5,5,0.8c-1.2,1.8,0.7,2,2.1,2.2c0.9,1.4,2.8-0.2,3.6,1.3C432.4,25.6,429.9,24.4,427.3,23.8z" />
	<path fill="#736959" d="M431.7,23.8c-0.4-0.1-0.9-0.1-1.3-0.2C430.5,22.4,433,23,431.7,23.8z" />
	<path fill="#B1674F" d="M275.1,249c0.5-0.2,1-0.5,1.4-0.7c3.2,0.5,6.1,1.7,9.5,3.1c-0.8,0.2-1.2,0.3-1.6,0.4   C281.4,250.6,278,250.1,275.1,249z" />
	<path fill="#B1674F" d="M270.8,248.3c1,0,2.2-0.5,3,0.5C272.7,248.8,271.6,249.1,270.8,248.3z" />
	<path fill="#B1674F" d="M275.3,248c-0.3-0.1-0.6-0.3-0.9-0.4C274.7,247.8,275,247.9,275.3,248z" />
	<path fill="#403A32" d="M417.4,27.3c-0.7-0.2-1.5-0.5-2.2-0.7C416,26.5,416.9,26.1,417.4,27.3z" />
	<path fill="#584F42" d="M399.5,33c0.3,0.2,0.5,0.3,0.8,0.5C400.1,33.3,399.8,33.2,399.5,33z" />
	<path fill="#786C5A" d="M403.6,29.4c-3.9-0.1-6.6-1.5-10-2.7C397.5,26.1,400.2,27.4,403.6,29.4z" />
	<path fill="#584F42" d="M402.6,32.8c-0.7,0.1-1.3,0.2-1.6-0.6C401.5,32.4,402,32.6,402.6,32.8z" />
	<path fill="#EED8B9" d="M422.4,15.9c0.2,0.4,0.4,0.9,0.7,1.3c-2.3,1.7-4.6,0.1-6.8-1.3C418.5,15.8,420.3,15.6,422.4,15.9z" />
</g>
</svg>