<?xml version='1.0' encoding='utf-8'?>
<svg xmlns="http://www.w3.org/2000/svg" version="1.2" baseProfile="tiny" id="Layer_2_00000044886288754630498970000007470515046991038863_" x="0px" y="0px" viewBox="0 0 900 600" overflow="visible" xml:space="preserve">
<g>
	<path d="M366.4,456.3c-8.6,28.6-29.2,52.8-33.6,82.5c4.6-3.5,5.8,0.6,7.8,4.7c0.7,4.1,5.4,4.7,6.1,8.7c4.9,12.5,20,15.4,32,16.4   c6.4,0,5.2,6.2,5.3,10.6c0.1,17.3-43.8,17.1-55.6,12.2c-15.3-2.8-34.2,10.1-46.2-6.7c0.9-0.3,1.4-0.4,2-0.6   c1.9-8.2,5.7-16.1,6.5-24.6c-0.3-6,5.2-9.4,8.5-13.8c0.9,0.4,1.6,0.7,2.7,1.1c8.3-36.2,8.5-75,20.9-109.8   c9.5-12.3,21.3-22.2,26.1-37.5c-1.2-0.9-2.4-1.8-3.8-2.9c3.8-15.7,10.9-30.9,16.9-45.9c0.5-0.3,0.5-1.5,1-2.2l0.3-0.1l-0.1-0.3   c1.8-3.1,1.8-6.4,1.3-10.1c-1.5-0.4-3,0-4.7-0.1c-0.9,4.1-3.6,7.2-5.6,10.4c-2.2,1.1-4.8,1.9-6.7,0.2c0.3-0.3,0.6-0.5,1-0.8   c2.6,0.2,4.6-0.5,5.8-3c-0.5-0.4-0.9-0.8-1.5-1.3c6.5-6.9,3.4-5.9,5.2-13.8c0.5,1.9,1.1,3.8,1.7,5.9c1.7,0,3.3,0,5.3,0   c-1-0.8-1.7-1.4-2.5-2.1c1.6-3.5-3.4-6.3-2.2-9.1l0,0c0.5,0.8,0.9,1.6,1.4,2.3l0,0c0.8,0.7,0.8,2.1,2.3,1.8   c-9.3-30.1-9.2-26.5,1.3-57.7c3.6-2.1,0.2-8.3,2.2-11.8c1-0.5,1.9-1,2.7-1.5c-3.1-17.6,0.8-36.7,1.3-54.3   c-14.8,10.4-16.3,6.5-15.5,26.5c-3.1,13.5-3.6,28.1-7,41.6c-1-0.5-0.4-1.7-0.9-2.4c1.2-19.3,6.7-37.9,6.8-57.2   c17.1-12.4,35.2-26.6,44.9-46.5c0.3,0.2,0.6,0.3,0.9,0.4c-1.9,8.3-8.5,14.9-13.1,22.1c11.2,2.3,19.7-5.4,26-13.6   c-1.5-2.2-11.1-17.4-7.3-18c0.5,0.9,1,1.8,1.5,2.8c0.5,0.2,1.1,0.4,1.5,0.5c2.5,3.7,4.2,7.9,7.2,11.1c2.8,4.9-5,7.9-6.9,11.9   c-6.2,6.3-14.5,9-23.2,7.6c-4.2,3.6-8.2,7.2-12,10.5c-0.2,9,0.3,17.4-0.4,26.2c-0.6-0.2-0.9-0.3-1.5-0.4c-0.3,10.3,2.4,20,0.4,30.3   c21.6,5.2,45.3,5.1,67.2,0.5c3.8-21.2,11.2-42.1,11.3-63.8c-0.1-2.4-0.1-4.8,2.4-6.3c9.1-9.8,7.9-23.1,5-35.3c0.3-0.9-0.3-2,1-2.5   c4.7,30.4,14.9,21.5,26,43.8c2.7,0,5.3,0,8,0c0,0.1,0,0.3-0.1,0.4c18.6,6.1,40.5,3.7,57.4-6c17.5-10.4,10.8-18.9,36.8-16.8   c4.5,3.6,8.7,12.2,5.2,17.6c0.3,3.4,1.5,5.6,4,8.2c-1.2,4.3-5.5,9.3-10.5,7.8c-0.5-1-1-2.1-1.6-3.5c-14.3,8.6-12.1,12.7-29.9,9   c-24.7,6.6-48.8,24.9-75.7,19.8c-4.9,3.3-19.4-10.8-27.2-12.8c-2.4,12.4-4.2,24.9-8.6,36.7c-2.7,9,7.3,15.9,11.4,22.9   c-2.1,7.3-0.1,14.7,0.2,22.3c4.3,3.5,8.3,7.5,8.7,13.3c6.8,15.5,20.5,29.5,21.7,47.3c4.3,11.3,8.5,22.1,9,34.4   c2.8,4.8,8.9,8.7,9.8,14.4c-0.4,0.4-1,0.9-1.5,1.4c-1.3,14.7,5.9,26.6,12.7,38.9c9.3,24.9,13.3,50.1,31.6,71.2c1-0.5,2-1,3.1-1.5   c24.4,12.2,33.8,9.9,57.9,0c23.1,5.4-0.6,34.6-11.4,41.8c-4.8,5.7-12.7,5-18.5,8.7c-5,7.8-14,11.5-20.2,17.5   c-4.7,4.2-12.6,2.8-18.4,2c-1-6.9-2.9-13.1-8-18c-1.9-4-1.6-11.3-7.7-11.8c-0.6-4-0.3-8.4,2.7-11.7c-11.8-21.6-29.6-40-44.4-60   c0.3-0.3,0.6-0.6,0.9-0.9c19.8,18.3,34.9,37.6,46.4,61.8c8.9-8.5,23.6-19,11.6-31.3c-6.4-2.1-7.1-11.6-10.4-16.9   c-1.2-2.8-3.5-4.5-3.8-7.6c-8.2-20.7-14.2-43.5-24.8-62.7c-1.9-7.4-2.1-14.5-1.2-22.3c-1.5-2.4-3.2-5-5.2-8.1c-0.9,2-2,2.1-3.6,1   c-0.8-4.9,0.2-10-0.8-15c-13.1,2.7-24,10-35.4,16.5c0,1.1-0.1,2-0.2,3c-0.8-0.6-1.6-1.2-2.1-1.6c-2.3,0.5-6.6-1-7.5,0.7   c27.1,18.5,16.5,40.1,26.5,67.3c-0.3,0.6,0,1.6-1,1.8c-12.5-26.9,0.2-49.6-29.1-69.7c-6.1-0.2-12.1,0.4-18,1   c-1.9,1.7-1.5,4.7-3.5,6.2c-6.1-1.6-12.2-1.6-18.5-2c-4,7.4-12.3,9.8-18,14.5c-0.2,0-0.4,0-0.5,0c-0.3-0.3-0.6-0.6-0.9-0.9   c4.7-5.4,11.2-8.3,15.1-14.5c-16.3,4.7-31.5-2-47-5.5c-6.7,20-26.6,31.9-32,52.5c-3.1,32.7-10.2,63-13.9,94.6   c6.4,1.9,13,0.1,19.1-1.1c6.3-4,3.9-12.3,7.2-18.2c8-26,22.2-50.1,34.2-74.4C366,455.3,366.2,455.8,366.4,456.3z M434.3,263.7   c-0.4,0-0.9,0.1-1.3,0.1c-0.4-0.7-0.9-1.4-1.3-2.3c-17.5,0.8-36.5,3.3-53.2-2.4c-1.1-1.3-2.7-0.4-4.2-0.6c-0.5,1.9-0.2,3.6-0.3,5.4   c-0.4-0.1-0.7-0.1-1.2-0.2c-0.2-0.8-0.4-1.6-0.6-2.6c-23.6,62.4-9.7,38.3,6.3,88.3c-5.2-5.9-7.3-15.1-12.6-20.3   c-0.1,0.6-0.3,1.1-0.4,1.8c4.5,3.3,2.3,17.6-1.9,20c-4.6,14.8-13.3,29.3-14.5,44.8c17.7,10.3,38.7,9.8,58.5,9.9   c-4.8-13.9-10.8-26.5-18.4-38.9c-0.2,0-0.4,0-0.7,0c0-0.3,0-0.5,0-0.8l0,0c0.6-0.1,0.8-0.4,0.1-0.8c-0.6-1.2-1.2-2.4-1.8-3.6   c0.3-0.3,0.6-0.6,0.9-1c8.9,13.5,18.6,26.9,22.3,42.9c13.9-2.3,28.2-3.1,42.2-4.2c12.6-5,23.5-13.2,36.3-17.5   c0.1-6.4-2.1-12.5-3.4-18.7c-5.5-4.5-2.3-13.5-6.9-19.1c-4.7-8.4-7.9-18-14.8-24.9c-2.1-1.9-3.2-4-3.3-6.9   c-3.3-18.4-11.4-1.8-8.3-35.7c-3.3-3.9-5.5-9.2-9.8-12.1c-0.1-0.9-0.7-0.9-1.4-0.8c-0.2-0.1-0.5-0.1-0.7,0.1   c-1-0.1-1.9-0.2-2.8-0.3c-0.4-1,0.9-1.7-0.1-2.8c-0.5,0.3-1,0.6-1.4,0.9c-0.4-0.2-0.8-0.5-1.3-0.8c-0.7,1-0.6,1.6,0.2,2.1   C434.5,263.3,434.4,263.5,434.3,263.7z M583.2,195C583.2,195,583.1,195.1,583.2,195c0.8,1,1.6,2,2.7,3.2c0.8-3.5,3.4-4.8,5.6-6.7   c0-1.3-0.3-2.5-0.9-3.6c0.6-0.8,1.1-1.6,1.7-2.4c0.1-4.5,0.1-4.5-1.5-6.6c-1.8,2.3-0.5,6.3-4.1,6.7c-0.2-0.1-0.3-0.1-0.5,0   c-1.6-1-2.7-3-3.9-4.4c-3.7,5.8-10.4,5.6-15.8,8.3c-0.6-0.1-1.2-0.2-1.5,0.6c-0.4,0.2-0.8,0.4-1.7,0.7c2-7.1,11.2-4,15.8-8.3   c0.7-2.6,0.7-2.6-0.2-4.2c-5.1,1.1-10,3.5-15.7,1.9c-11,14.1-29.9,17.4-46.8,19c-11.2,1.2-21.6-4.9-32.7-3.7   c-4.8-9.5-11.9-18.2-20.2-24.8c0.4,9.7-4.6,11.1-8.5,18c1.1,5.8-1.8,11.2-1.3,17.1c2.3,1.2,4.6,2.1,7.1,3c-2.5,1.1-4.6-0.1-6.9-0.8   c-0.5,1.9-1,3.8-1.5,5.6c8.8,2.4,14.9,8.1,21.8,13.6c24.1,3.9,47.2-7,69.4-15.8c17.6-11.2,16.7,5.6,39.3-12.5   c-0.2-0.9-0.3-1.7-0.5-2.6C582.6,196.1,582.9,195.5,583.2,195z M584.6,178.3c-0.2,1-0.4,1.9-0.5,2.6c0.7,1.4,1.5,2.1,3,1.7   c1-1.8,1.7-4.1,2.5-6.1c-0.9-1.6-1.6-2.5-2.8-3.9c-7.3,0.9-18.6-2.1-22.1,6.3c5.2,0.3,10.6-3.4,15.4-2.1c1.9,0.6,0.7,2.6,2.5,2.8   c0.4-0.7,0.8-1.4,1.2-2.2C584.1,177.8,584.4,178.1,584.6,178.3z M298.1,550.8c-1.7,2-2.8,3.6-4.5,6c1.7,8.2-4.7,14.6-5.4,22.3   c-0.3,2.4-1.8,4.2-3,6.5c11,7.4,24.3,4.3,36.4,2.5c6.2-2,11.6,2.6,17.7,2.2c12.6-0.2,26.3,2.5,36.7-6.3c0.9,0.4,1.6,0.7,2.1,0.9   c4.6-2.6,4.6-10,1.6-13.6c-5.6-0.3-11.4-0.2-16.9-1.7c-3.6,3.1-3.7,3.1-6.2,1.7c-0.1-1.6,1.5-2.2,2.1-3.5c-1.2-0.8-2.4-1.6-3.9-2.6   c-1.2,2.5-1.8,5.4-4.9,5.9c-3.7-3.1,1.5-4.1,2.4-6.6c-0.7-0.7-1.5-1.3-2.2-2c-4.1,4.4-4.1,4.4-6.7,4c-1-3.5,2.7-4.7,3.9-7.2   c-0.4-0.4-0.9-0.7-1.4-1.2c-7.7,12.9-14.3,6-2.2-2.3c-0.4-1.6-0.7-3-1.2-4.9c-2.3,3.4-5.8,9.3-10.4,6.6c0.3-4.1,4.6-5.9,7.3-8.8   c-1.3-2.5-3.1-3.8-5.6-4.1c0-0.4,0.1-0.7,0.1-1c1-0.2,1.9-0.4,2.8-0.5c-0.2-1.1-0.4-1.9-1.6-2.2c-7.7,7.1-15.3,15-26.1,17.1   c-5.4,1.1-6.6-5.8-9.5-9C299.1,549.8,298.6,550.3,298.1,550.8z M614.2,528.1c-0.7-3.6-2.9-5.7-6.2-6.8c-6.2,3.1-12.9,5.5-18.8,8.3   c-0.1,1.3,0.8,5.9-2.2,4.2c-0.2-1-0.4-2.2-0.7-3.6c-0.8,0.2-1.4,0.3-1.8,0.4c0.2,1.9-0.9,6.6-2.8,3.4c-0.4-1.2,0.2-2.7-1-3.6   c-0.3,0.1-0.6,0.2-0.9,0.2c-0.9,2.4,0.9,5.6-2.2,7.1c-3.2-1.5-1.7-5.1-2-8.1c-1.2,0.2-2.1-0.8-3.1,0.1c-0.2,2.8,1.2,7.9-2.7,8.7   c-3.7-2.5-1.2-6.5-1.6-10c-0.5-0.3-0.9-0.5-1.3-0.7c-0.5,3.8-0.8,7.9-4.1,10.4c-0.9-4.8,1.6-7.9,0.6-12.6   c-11.6-2.2-15.4-9.9-14.5,6.9c5.1,5.7-0.5,13-3.5,19c-6.3,3.4-11.5,2.5-17.7-0.7c-2.2,4.3,2.1,7.1,4.2,10.3   c3.5,3.1,1.6,8.1,4.5,11.3c4.1,3.5,4.8,8.5,6.2,13.4c9.3,2.1,15.8-3.6,23.4-8.4c-0.3-1.4,0.9-2.1,2-3c4.7-2.7,7.1-8.7,12-10.6   c5.1-1,10.4-1.4,13.9-5.9C601.8,551.3,614.3,538.8,614.2,528.1z M543.2,550.2c0.6-5.5,4.1-9.8,3.8-15.2c-4.9,5-8.5,9.9-14.4,13.9   c1.7,1.1,3.2,2,4.6,2.8C539.5,551.3,541.6,551,543.2,550.2z M320,551.5c-6,0.2-9.8-0.1-15.5-1.2C306.5,558.4,314.3,554.3,320,551.5   z M587.9,197.4c0.9,0.8,1.5,1.3,2.2,2c-0.8,1-1.5,1.9-2.2,2.7c2.6,2.1,4.7-2.8,6-4.5c-0.4-1.5-0.9-2.9-2.1-4.3   C590.3,194.5,588.7,195.5,587.9,197.4z M420.8,404.4c-2.6-0.3-7.1,0.4-10,1.6c2.9,0.4,5.7,0.7,8.7,1.1   C420,406.2,420.4,405.4,420.8,404.4z M438.9,260.3c-0.2,0-0.3,0-0.5,0c0,0.6,0,1.2,0,1.8c0.2,0,0.3,0,0.5,0   C438.9,261.5,438.9,260.9,438.9,260.3z" />
	<path d="M408.8,89.7c3.7-15.1-1.8-29.3-1.2-44.3c-0.9-7.2-0.3-21.5,5.4-25.9c0.1-1.7-2-1.2-2.1-2.6c0.8-2.4,3.9-1.8,4.9-3.9   c0.5,0.3,1,0.5,1.5,0.8c0.6-0.9,1.2-1.8,1.9-2.9c0.8,0.6,1.5,1.1,2.2,1.5c3.6-3.4,8.3-4.1,13.1-4.5c1.3-0.6,1.8-2.3,3.6-2.1   c-0.1,0.7-0.2,1.4-0.3,2.1c3.4,1.2,7-1.3,10.6,0.6c4.6,2.1,8.7-2.2,13.1-1.1c-0.5,1-0.8,1.7-1.3,2.6c3,0.6,7.3-1.4,9.2,1.4   c0.6-0.1,1.2-0.1,1.9-0.2c1.3,0.8,1.3,2.3,1.9,3.7c1.5-1.1,1.7-3.2,3.8-3.8c0.8,1.1,1.4,2.6,3.2,2.6c0.1,0,0.2,0.6,0.4,1   c-0.8,0.5-1.8,0.7-1.9,2.1c2.8-0.1,5.3-2.9,7.3,0.7c-0.3,1.3-0.6,2.7-0.9,4.2c0.2,0.3,0.4,0.6,0.7,1.1c-0.4,0.6-0.9,1.2-1.4,1.9   c0.1,0.3,0.2,0.7,0.3,1.2c-4.3,2.2-9.2,2.9-14,2.5c0-0.2,0.1-0.5,0.1-0.7c4.9-0.5,11.7-1.9,12.8-7.5c-2.9,3.7-7.1,4.5-11.3,5.9   c-0.8,0.1-1.8-0.3-2.2,0.8l0,0c-2.8,0.1-6.1,1.9-8.3-0.7c1.2-0.2,2.5,0.3,3.5-0.5c-0.3-1.9-7.7-1.4-7,1c0.7,0.1,1.5,0.3,2.3,0.5   c-0.4,0.6-0.8,1-1.5,2c1.4-0.1,2.3-0.2,3.3-0.3c0.4,0.5,0.9,1.1,1.5,1.8c-2,1.6-4.1,0.5-6.2,0.2c-5.2,7.8-15.4,11.7-18.8,21.1   c-0.4-0.4-0.9-0.8-1.3-1.2c-1.2,0.8-1.1,1.9-0.8,3.1c0.5,0,0.8,0.1,1.1,0.1c0.5,0.9-0.3,2.1,1.1,2.6c0.4,0.9,1.7,1.2,1.8,2.8   c-1.4-0.6-2.6-1-3.6-1.4c-0.9,0.7-0.1,2.1-1.6,2.2c-2.5-4.6-5.2-9.7-10.3-11.8c0,0,0,0,0,0c0.4-0.7,0.9-1.4,1.4-2.1   c-0.8-0.8-1.5-1.4-2.6-0.5c0,0.5,0.1,1.1,0.1,1.3c-2.1,2.7-3.8,5.3-5.5,8.3c0.1,0.2,0,0.4-0.1,0.6c-0.4-0.2-0.9-0.3-1.3-0.5   c-2.5,1.8,0.9,4.8,2,6.6l0,0c0.1,1.2,0.4,2.3,1.5,3c0.3-0.2,0.5-0.5,0.8-0.7c0-0.5-0.1-1-0.1-1.5c2.2-0.7,4.7,3,1.4,3.1   c-1.3,0.3-3.1-1-3.5,0.9c-0.1,0.9-1.3,1-0.7,2.3c-2.1,7.5-6.4,13.8-8.3,21C409.9,89.7,409.3,89.7,408.8,89.7z M467.9,13.8   c-1.6,0.6-4,0.2-5.1,1.6c1.7,2,4.3-2.8,6.3,3.7c2.3,0.5,2.8-1.5,2.5-3.2c-0.8,0-1.3,0.1-2,0.1C469,15.3,468.5,14.6,467.9,13.8z    M446.7,36.6c0.2,0.2,0.4,0.4,0.6,0.6c1.4-1.6,5.1-2.7,5.1-4.9C450,33.2,447.8,34.3,446.7,36.6z M449,24.9   c-1.3-0.9-2.4-1.7-3.6-2.5c-0.4,0.5-0.7,1-1,1.5c1.2,0.8,2.2,1.5,3.4,2.4C448.2,25.8,448.5,25.4,449,24.9z M423.8,37.4   c-2.9-2.7-2.9-2.7-4.6-2.5C420.1,36.2,422.5,39.6,423.8,37.4z M433.1,38.3c0.8,0.8,1.3,1.3,2.2,2.2c0.3-1.2,0.5-2,0.8-2.8   c-1.4-0.3-2.6-0.5-3.9-0.8c-0.2,0.5-0.4,0.9-0.7,1.5C432.2,38.4,432.6,38.3,433.1,38.3z M427.3,20c-1.3,0.5-1.5,1.5-1.7,2.7   c1.2,0.1,2.2,1.1,3.8,0.6C428.6,22,428,21,427.3,20z M434.9,22.2c-0.8,1-1.3,1.7-2,2.5c0.6,0.5,1,0.9,1.4,1.3   C436.5,24.6,436.5,24.5,434.9,22.2z M456,27.1c-1.2,1.3-4.6,2.1-4.2,4.1C453.9,30.6,455.5,29.4,456,27.1z M442,37   c-1.6-0.6-2.2-1.6-3.7-0.7c0.1,0.6,0.2,1.1,0.3,1.8C439.8,37.7,440.7,37.4,442,37z M414.4,36.7c-1.8,1.2-1.8,1.2-1.4,2.8   C414.7,39.6,415.1,37.9,414.4,36.7z M430.2,10.6c-1.9-1-5.1,0-3.3,1.8C427.8,11.9,428.7,11.4,430.2,10.6z M412.9,41.9   c-2.5,0.3-3.5,2.1-1.6,3C411.7,44.1,412.1,43.3,412.9,41.9z M419.3,21.2c-0.6,1.4-2.4,2.9-0.1,3.1   C419.1,23.4,420.7,22.8,419.3,21.2z M455.2,27c-1.5-2.8-1.5-2.8-3-2.9C453,25,453.3,26.3,455.2,27z M458.2,11.6   c-1.3,0.1-2.1,0.1-3.3,0.2c0.4,0.8,0.7,1.3,1.1,2.1C456.7,13.1,457.2,12.6,458.2,11.6z M476.6,13.2c-1.4,2-1.5,2.4-0.6,2.6   c0.6-0.4,1.2-0.8,2.1-1.5C477.4,13.8,477.1,13.6,476.6,13.2z M423.2,16.9c-0.1-0.2-0.3-0.5-0.4-0.7c-0.6,0.1-1.2,0.2-2.2,0.5   c0.6,0.8,1,1.2,1.4,1.8C422.5,17.8,422.8,17.4,423.2,16.9z M443.1,41.9c1.4-0.2,1.9-0.7,1.9-2C443.7,39.8,443,40.2,443.1,41.9z    M412.6,54.3c1.7-1.4,1.7-1.4,0.3-2.5C412.8,52.7,412.7,53.5,412.6,54.3z M416,22.8c-1.8,1.1-2.2,1.8-1.3,3.3   C415.1,25,415.4,24.3,416,22.8z M419.7,43.2c1.8,0.1,1.3-1.4,0.4-2.1C419.2,41.9,419.5,42.3,419.7,43.2z M419,48.6   c-2.1,0.5-2.1,1.2-1.4,2.3C418,50.3,418.3,49.8,419,48.6z M436.2,43.3c-1.5,0.1-1.5,0.1-1.2,1.6C435.5,44.3,435.8,43.9,436.2,43.3z   " />
	<path fill="#030202" d="M324.8,299.4c-5-32.4-9.5-77,5.3-106.8c0.5,0.5,0.9,1,1.4,1.5c-8.1,21.9-10.7,45.2-7.8,68.5   c0.5,11.2,2,22.3,3.6,33.3c0.2,1.7,0.4,3.5-1,5C325.8,300.5,325.3,300,324.8,299.4z" />
	<path fill="#060505" d="M409.3,89.8c0.4,0,0.8,0,1.2-0.1c-1.1,7.5-9.2,8.6-14.5,12.1c-8.3,6.7-15.3,14.8-23.2,22   c-13.5,14.6-3.3,18.1-21.5,34.1c-4,6.4-7.3,13.4-9.5,20.6c-0.7,1.2-1.2,4.7-2.8,4.3c-0.2-0.8-0.5-1.5-0.7-2.3   c3.1-9.8,7.6-19.2,14.3-27.2c2.8-3.6,7.4-6.2,8-11c1.3-15.2,14.5-23.4,24.5-33c5-9.4,15.7-13.2,23.6-18.2l0,0   C409.5,90.9,409.3,90.3,409.3,89.8z" />
	<path fill="#090808" d="M348.4,347.8c-0.3,0.3-0.6,0.5-1,0.8c-3.2,0.5-4.5,3.2-7.3-0.4c-1.4,0.5-2.8,1.7-4.5,0.7   c-7.7,3.4-10.3-6-10.1-12.1c1-8.2-5.3-15.6-2.3-23.7c0.9,5.8,3.2,12.5,5.3,17.9c-0.5,4.4-1,8.2,0,12.1c1,0.5,1.9,1,2.8,1.6   c-0.6,0.6-1,1-1.4,1.5c1.3,1.3,2.5,0,3.6,0.2c1.7,0.1,3.6,2,5,0.5c0-0.6,0-1.1,0-1.7c3.1-1.9,1.3-6.9,2.1-10c2.5,2.7,1,6.4,2.2,9.5   c1.5-0.2,2.7-0.3,3.9-0.4c3.8-4.7,2.2-10.2,3-15.9C351.9,334.6,349.4,341.7,348.4,347.8z M345.3,347.5c-0.7-2-1.3-2-3.8-0.2   C342.4,349,344.1,348.9,345.3,347.5z" />
	<path fill="#0D0B0B" d="M474.7,71.5c1.6,2.1,1.5,5.1-0.4,7.2c-0.9,0.9-0.6,2.1-0.2,3.2c2.7,9.8-10.1,8.9-16.1,8.2   c-3.1,3.2-1.8,8.3-4.2,12c-6.8,10.3-6.7,20.7-0.2,31.2c-0.3,0.3-0.6,0.7-0.9,1c-10.4-10.3-5.3-25.9,0.6-37.1c0-3.7,1-9.6,5.4-9.9   c4.5,2.3,15.5,2.6,13.6-4.8c-2.3-5,3.9-6.4,0-11.1c0.5-0.2,1.1-0.5,1.6-0.7C474.2,71,474.5,71.2,474.7,71.5z" />
	<path fill="#171616" d="M474.7,71.5c-0.2-0.3-0.5-0.5-0.7-0.8c1.4-1.6,0.5-3.3,0.5-5.2c-2.3,1.6-6.1-0.8-3.8-3.3   c0.5,0.4,1.1,0.7,1.7,1.1c1.4,0,2.9,0,4.7,0c0.4-0.5,0.9-1.1,1.5-1.8c-1.1-5.3-8.1-11-4.7-16.2c3.6-4.7-2.5-10.8-1.7-16.3   c-0.5-0.3-0.9-0.5-1.3-0.8c1.8,0,3.6,0,5.4,0c-0.7,0.3-1.3,0.6-2,0.9c-1.3,5.9,6.7,14.1,0.4,18.2c0.6,6.6,10.1,13.9,2.1,18.6   c0.1,1.4,0.2,2.7,0.2,4.2C476.2,70.7,475.5,71.1,474.7,71.5z" />
	<path fill="#0B090A" d="M459.6,149.4c-1.2,0.5-0.7,1.6-1,2.5c-1.2-2.2-0.5-4.3-1.4-6.7c-9.8,11.7-21.1-13-25.9-19.8   c0.3-0.3,0.5-0.6,0.8-0.9c5.9,6.1,12.9,24.2,23.1,19.9c0.1-1.6,0.2-3.5,0.3-5.3c0.3-0.3,0.5-0.6,0.8-0.9   C459,141.5,458.4,145.6,459.6,149.4z" />
	<path fill="#0F0D0C" d="M369.4,450.7c-0.1,0.2-0.3,0.4-0.6,0.4c-0.3-0.2-0.6-0.4-0.9-0.7c7.8-8.6,13.9-17.8,18.2-28.3   C386.1,433.1,377.5,443.6,369.4,450.7z" />
	<path fill="#2A2726" d="M324.6,319.9c-2.2-6.6-1.2-13.6,0.2-20.5c0.5,0.5,1,1,1.5,1.6C325.5,307.3,324.2,313.5,324.6,319.9z" />
	<path fill="#3D3432" d="M338.4,180.6c0.2,0.8,0.5,1.5,0.7,2.3c-3.3,2.5-3.2,7.5-6.9,9.7c-0.4,0.2-0.5,1-0.7,1.6   c-0.5-0.5-0.9-1-1.4-1.5C333.6,189.2,335.5,184.6,338.4,180.6z" />
	<path fill="#4E4A48" d="M471.5,472.3c1-0.2,0.8-1.1,1-1.8c1.2,3.3,3.6,5.9,5.3,8.8c-0.1,0.4-0.1,0.8-0.2,1.3   C475.6,477.8,473.6,475,471.5,472.3z" />
	<path fill="#302827" d="M477.6,480.6c0.1-0.4,0.1-0.8,0.2-1.3c1.8,2.1,3.5,4.3,5.3,6.4c-0.3,0.3-0.6,0.6-0.9,0.9   C480.2,485,478.9,482.9,477.6,480.6z" />
	<path fill="#3C3837" d="M367.9,450.4c0.3,0.2,0.6,0.4,0.9,0.7c-1.5,1.5-1,3.5-2.4,5.3c-0.7-1.2-0.8-2.5-0.9-3.9   C366.3,451.7,367.1,451,367.9,450.4z" />
	<path fill="#413A39" d="M456.4,138.2c-0.3,0.3-0.5,0.6-0.8,0.9c-0.9-1.6-1.9-3.2-2.8-4.8c0.3-0.3,0.6-0.7,0.9-1   C454.6,134.9,455.5,136.6,456.4,138.2z" />
	<path fill="#C7C6C6" d="M482.4,15.5c-1,0.9-2.3,1-3.6,1.2c0.1-1.4,1.1-1.7,1.9-2.1C480.9,15.4,481.8,15.3,482.4,15.5z" />
	<path fill="#403532" d="M386.2,422.1c-0.7,0.7-1.1,1.5-1.6,2.3c-0.1-1.5-0.4-3.6,1.6-3.7C386.2,421.2,386.2,421.7,386.2,422.1z" />
	<path fill="#EECABA" d="M409.3,89.8c0,0.5,0.2,1.1-0.5,1.4c0-0.5,0-1,0-1.5C409,89.7,409.1,89.7,409.3,89.8z" />
	<path fill="#4B65C5" d="M363.2,348.1l0.1,0.3l-0.3,0.1c-0.1-0.1-0.1-0.1-0.2-0.2C362.9,348.3,363.1,348.2,363.2,348.1z" />
	<path fill="#3C3837" d="M370.2,450.2c0.3-0.2,0.6-0.4,0.9-0.6C370.8,449.7,370.5,449.9,370.2,450.2z" />
	<path fill="#3C3837" d="M369.4,450.7c0.2-0.2,0.5-0.3,0.7-0.5C369.9,450.4,369.6,450.5,369.4,450.7z" />
	<path fill="#EECABA" d="M408.8,91.2c-0.2,0.3-0.4,0.6-0.7,0.9C408.4,91.8,408.6,91.5,408.8,91.2z" />
	<path fill="#4B65C5" d="M361.6,351.9c-0.1,0.2-0.2,0.3-0.2,0.5C361.4,352.1,361.2,351.8,361.6,351.9z" />
	<path fill="#4B65C5" d="M362.2,350.3c0,0.2,0.1,0.5-0.2,0.5l-0.1-0.3L362.2,350.3z" />
	<path fill="#FBDFD3" d="M349,336.6c-0.5,3.2,0.7,4.8-2.2,7.6c-1.2,0.1-2.4,0.2-3.9,0.4c-1.9-5.9,0.5-11.8-1-17.8   c-3.4,5.8,1.2,13.7-3.3,18.3c0,0.6,0,1.2,0,1.7c-0.7,0.8-1.5,0.8-2.3,0.3c0.5-0.6,1.1-1.2,1.7-1.9c-1-0.7-1.8-1.2-2.8-1.8   c-0.8-3.8,2.4-15.1-2.9-15.1l0,0c-2.4-10-5.5-16.2-2-26.9c1,0.4,2.1,0.7,3.3,1.2c1.3-2,1.4-3.9,0.3-5.7c-3-5.2-0.5-11.4-3-16.5   c2.2-1,1.1-4.8-1.5-4.7c-1.7-12.6-0.1-24.9-0.1-37.4c0.6-0.6,1-1,1.5-1.6c-2-9,2.3-17.8,2.8-26.9c-0.7,1.3-1.1,2-1.4,2.7   c-0.4-0.1-0.7-0.2-1.1-0.3c-1.2-4,0.8-7.3,2.2-10.8c1.6,1.2,2.1,11.3,4.4,8.9c0.9,0.2,1.3,1.7,2.8,1.1c1.6-7.7-2.9-16,0.9-23.1   c4.2-5.5,4.9-13,9.5-17.9c0.7,0.9-0.1,2.2,1.1,2.8c-0.2,2.1,1.5,3.6,3.1,4.5c4-4.3,2.4-9.5,3-14.8c3-2.6,4.1-6.6,7.2-9.4   c1.4,4.3,3.7,7.1,7,10.4c0.6-35.1,0.7-33,22.9-60.3c29.6-0.4,34.3,39.6,24.9,61.2c-4.1-3.5-4.4-10.9-9.1-13.5l0,0   c-0.5-1.8-1.2-3.3-2.9-3.8c-4,2.1-3.8,5.7-3.8,9.4c-13.8,27.2-24.3,37.2-49.3,55.2c-1,29-9.5,57.1-8.8,86.4c0.3,0.2,0.8,0.6,1.3,1   c0.2,6.2,6.1,10.4,6.4,16.7c0.5,3,3,5.3,2.6,8.5c-0.6,5.9,4.2,13.8-2.8,17.4c-0.7-0.1-1.4-0.2-2.2-0.2c-0.6-5.6,0.6-11.1-0.4-16.3   C349,328,348.9,333.1,349,336.6z M330,240.3c0.1,0.6,0.4,0.8,1,0.7C330.9,240.4,330.3,239.1,330,240.3z M414.1,148.1   c4.1-4.3,3.3-10.6,1.1-15.9c-0.8,1.4-0.8,1.4-0.7,2.2c0.7,4,0.8,8-0.5,12C413.5,146.8,412.8,149.3,414.1,148.1z M397.3,113.2   c3.9,2.6,6.3,3.3,8.2,2.5C403,113.7,401.1,113.1,397.3,113.2z M341.8,308.5c-0.5,2.4-0.5,2.6,1.1,5.1   C344.3,312.7,342.9,309.8,341.8,308.5z M353.9,209.2c0.4-2.5,0.5-2.5-0.4-4.2C352.5,207.1,352.5,207.5,353.9,209.2z M337.2,322.5   c1.7,0.3,1.8-3.4-0.1-3.5C336.6,320.3,336.5,321.4,337.2,322.5z M344.7,319.6c1.5-1.6,1.5-1.8-0.3-4.2   C344.2,317,344,318.3,344.7,319.6z M353.3,198.9c-1.6,1-0.9,2.5,0,3.1C353.3,201.1,353.3,200.1,353.3,198.9z M337.8,214.6   c1.6-0.9,1.6-1.3,0-2.2C337.8,213.1,337.8,213.8,337.8,214.6z M331.1,243.7c-0.7,0.8-0.5,1.4,0.5,2   C332.4,244.6,332,244.1,331.1,243.7z M391.1,113c-0.5,0.7-0.6,1.3,0.2,1.4C392.1,114,391.9,113.5,391.1,113z M331.3,272.8   c-0.2,0.5-0.3,0.8-0.4,1C332.1,274.5,332.5,273.5,331.3,272.8z M394.6,113c-0.8,0.5-1.1,1-0.2,1.5   C395.3,114.4,395.2,113.7,394.6,113z M338.6,217.2c-0.1,0.3-0.4,0.6,0,0.8C339,217.8,339.1,217.6,338.6,217.2z" />
	<path fill="#4B65C5" d="M379.2,348c-22.1-45.9-26.3-36.4-7.1-86.9c0.2,1,0.4,1.8,0.6,2.6c6.2,2.6,12.6,3.8,19.3,4.3   c1.4,5.5,4.1,10.4,9.7,12.6c0,11.8,2.6,26.3,13.9,32.5c0.3-0.3,0.5-0.6,0.8-0.8c1.2,1.6,0.8,3.8,2.1,5.5c0.1,1,0.1,1.9,0.2,2.9   c-2.2-0.5-3.3-1.6-5.4-2.9c1.9,3.6,5.2,16.9,9.3,14.9c1.6,3.5,3.9,6.8,4.6,10.7c-0.5-0.1-1-0.2-1.4-0.3c-0.3-0.1-0.3-1-1-0.4   c1.9,4.2,4.2,13,9.2,13.6c4.7,10.9,8.8,21.2,13.9,32.1c0.3-0.9,0.4-1.4,0.6-1.8c1.3,1.2,0.2,2.5,0.2,4.1c2,2.3,2.4,5.4,1.5,8.6   c0.8,0.1,1.4,0.2,2,0.3c-14,1.1-28.3,1.8-42.2,4.2C404.5,382.9,390.7,365.7,379.2,348z M412.5,359.3c0.9,1,2.1,1.6,3.4,2   c-4.8-5.6-12.1-10.2-18.9-13.2c-0.1,0.1-0.1,0.3-0.2,0.4C402.1,352.1,407.3,355.7,412.5,359.3z M438.3,387.4   c0.1,0.2,0.2,0.4,0.3,0.5c0.1-0.1,0.2-0.2,0.3-0.3c-16.9-14.7-34.7-30.1-53-42.6C402.7,359.8,420.3,374.2,438.3,387.4z    M396.7,372.9c1.9,1.6,7.5,7.8,11.3,8C404.7,377.5,401.2,374.5,396.7,372.9z M405.3,327.1c-0.1,2.1,7.1,7,9.1,7.8   c0.1-0.2,0.3-0.4,0.4-0.7C411.1,332.5,409.1,328.8,405.3,327.1z M372.7,274c0.8-1.1,1.8-2.2,0.8-3.8   C371.9,271.2,372.3,272.6,372.7,274z M385.4,268.3c-1.8,1-1.8,1-1.3,3.9C384.6,270.9,384.9,269.9,385.4,268.3z" />
	<path fill="#5876E8" d="M452.1,399.5c-0.6-0.1-1.2-0.2-2-0.3c0.8-3.2,0.4-6.3-1.5-8.6c1-6-4.4-11-5.8-16.8c0.3-0.6,0.6-0.6,1.2-0.3   c3.7,1.8,8.5,4.6,12.5,2.4c-2.1-5-7.5-6.7-10.5-10.7c6.1,1.3,11,5.3,16.9,6.8c-14.1-10-27.1-6.3-32.2-26.4c8.6,4.1,17.2,9,26.5,11   c-4-2.9-7.8-5.6-11.9-8.6c6.2-1.2,11.3,2.3,17.3,1.8c-7.6-3.4-15.7-2.3-23.4-5.1c-3-3.6-8.6-4.5-11.4-8.4   c13.9,4.9,27.4,11.4,42.2,12.7c-15.8-4-29.4-9-44.5-14.9c-2.3-2.9-3-6.4-3.8-9.8c5.7-0.9,12.1,8.7,18.8,7.3c-6-6.4-13.7-11-21-15.7   c-4-11.4-9.1-22-7.5-34.5c5.3,0.9,10.2,2.7,15.6,3.4c-1.6-3.5-5-4-7.4-6.9c3.1,0.1,5.1-0.1,7.6,0.1c1.5,2.9,4.9,2.9,7.1,5.1   c3.6,2.3,6.3,6.3,10.3,7.6c0.4-2.6-3.1-4.9-2.1-6.8c1,1,2.1,2,3.4,3.4c0.4-4.8-5.6-6.4-8.8-8.6c-1.6-2.6-7-5.8-9.1-2.3   c-5.4,0-11.6,1.1-16.4-1.9c-0.7-1.5,0.4-3.1-1-4.1c-0.2-0.4,0-0.9,0-1.3c1.1-0.6,2.6-0.3,3.8-0.6c0.4-0.5,0.8-0.9,1.4-1.6   c-1.9,0.1-1-2.3-2.7-2.3c-0.2,0.9-0.4,1.7-0.6,2.8c-1.1,0-2.2,0-3.3,0c-0.1-1.5-0.2-2.9-0.1-4.4c3.8,0.1,7.4-1,11.2-0.8   c0,1.8,0,3.7,0,5.4c9.2,0.1,13-3.8,20.1,5c0.5,0.4,1.1,0.6,1.6-0.3c-1-2.7-3.5-4.1-5.4-5.8c0.2-0.6,0.3-0.9,0.3-1.3   c6.5-4.8,10.4,7.7,14.3,11.4c-3.2,33.9,4.9,17.2,8.3,35.7c0.1,2.9,1.2,5,3.3,6.9c6.9,6.9,10.1,16.5,14.8,24.9   c4.6,5.6,1.4,14.6,6.9,19.1c1.3,6.2,3.5,12.3,3.4,18.7C475.7,386.4,464.7,394.6,452.1,399.5z M439.6,318.1   c7.7-0.4,14.2,4.2,21.6,5.1C457.6,317.9,445.2,314.3,439.6,318.1z M449.3,305.4c-3.2-1.6-6.1-2.5-9.4-1.7   C443,304.5,445.7,305.5,449.3,305.4z M451.9,313c2.2,0.3,3.4-0.4,4.4-1.8C454.7,311,453.5,311.7,451.9,313z M418.4,265.5   c-1,1.1-1,1.2-0.9,1.5c0.3,0.7,0,1.8,1.4,1.9C418.8,267.7,418.6,266.7,418.4,265.5z" />
	<path fill="#CCD2E9" d="M431.4,125.4c4.8,6.8,16.1,31.5,25.9,19.8c2.9,14.1,7.5,30.2-3.6,42c-2.5,1.5-2.5,3.9-2.4,6.3   c-0.2,21.7-7.6,42.6-11.3,63.8c-4.6,1.4-9.5,2.3-14.2,1.8c-1.1-5.9-4.1-16.2-7.6-19.9c1.2-1.9-0.2-2.6-1.6-4.3   c-0.1,8.4,2.1,16.1,3.5,24.2c-6.7,0.3-12.6,1.6-19.4,0.7c-1.9-15.6,1.5-30.8,4.7-45.9c2.3,1.4,3.9,5.9,6.5,3.7   c-0.8-5.3-3.4-9.9-5.9-13.9c0.3-3.2,0.5-5.8,0.7-8.4c0.5,0.1,1,0.2,1.5,0.2c1,1,1.6,2.4,2.9,3l0,0c0,0.8,0.6,0.9,1.2,0.9   c10.3,3.1-1.6-13.3-3-16.9c2.3-2.5,4-5.5,6.9-7.4c3.7,1.1,0.5,6.8,9.4,6.8l0,0.1c8.4,1.4,19.9,9.4,26.6,1   c2.8-2.8,6.2-16.7,1.2-17.3c0.3,6.8-0.7,17.9-8.9,19.4c-20.4-16.4-25.4-8.9-18.3-38.2c2.8-19.9-7.8-44.8-30.2-45.2   c2.4-1.8,5.2-2.8,8.1-3.7C415.7,104.2,422.4,116.3,431.4,125.4z M432.3,216.2c-3.6,1.3-3.7,1.4-3.6,3.7   C430.4,219.2,432.3,218,432.3,216.2c2.2-2.6,2.9-3.7,3.4-5.7C433.9,211.9,430.9,213.8,432.3,216.2z M436.7,208.2   c2.2-1.7,9.4-8,6.9-10.2C441.4,201.5,437.4,204.1,436.7,208.2z M415.5,202.6c0.5-0.5,1-0.9,0.4-1.4   C414.9,201.4,414.9,201.6,415.5,202.6z" />
	<path fill="#FBDFD3" d="M482.2,387.3c3-1.2,5.9-1.8,9.1-2.7c1.1,5.1,0.1,10.2,0.8,15c1.5,1.1,2.7,1,3.6-1c2,3.1,3.7,5.7,5.2,8.1   c-0.9,7.8-0.6,14.9,1.2,22.3c10.6,19.2,16.6,42,24.8,62.7c0.3,3.1,2.6,4.8,3.8,7.6c3.2,5.3,4,14.8,10.4,16.9c4,4.6,5.2,9,4.2,15   c-3.5,3.7-6.5,8.2-10.7,11.4c-1.5-0.8,0.2-2.9-1.4-3.8c-1.1-3-2.7-5.3-5.5-6.9c0-0.7,0.1-1.5,0.1-2.2c-3.3-1.8-1.3-5.2-3.1-7.5l0,0   c-3.8-3.5-7.2-18.1-11.4-19.3c0.3,3.7,1.5,7.2,2.3,10.9l0,0c-15.2-26.7-46-42.1-41.7-76.5c5.6-10.4-9.1-21.1-12.5-30.3   c0.4-0.2,0.7-0.5,1.3-0.9c4,4.4,8.2,8.5,14.6,7.6c-1.8-5.3-5.8-8.7-9.4-12.3C472.3,396.1,478.2,392.7,482.2,387.3z M495.3,419   c-0.6-0.7-1.3-1-2.2-0.2c2.2,1.9,3.7,4.3,6.4,5.7C500,420.9,497.1,421.1,495.3,419z M495.4,416.8c6.8-4.7-0.8-14.4-7.6-13.5   c-0.9,1-1.8,1.9-2.4,2.6c-0.3,4.7,4.4,7.8,7.1,10.9C493.7,416.8,494.6,416.8,495.4,416.8z M482.5,433c3.1,3.5,5.4,6.9,8.7,9.7   C490.4,439.1,487.6,432.6,482.5,433z M486.8,416.5c-0.6-2.2-1.2-3.2-3-3.5C483.6,414.9,484.8,415.5,486.8,416.5z M491,445.5   c0.9,1.5,1,2.7,2.4,3C493.8,446.5,493.8,446.5,491,445.5z M496.2,453.3c0.3-1.9,0.2-1.9-1.9-2.2C494.5,452.3,495,453.1,496.2,453.3   z M489,416.1c-0.9,0.7,1.7,2.7,2.3,1.8C490.7,417.1,489.9,416.5,489,416.1z M489.3,396.5c-0.3,1.2-0.7,2.2,0.3,3.4   C490,398.7,490.3,397.7,489.3,396.5z M497.4,456.5c0.4,0.8,0.2,1.7,1.4,1.7C498.9,456.7,498.9,456.7,497.4,456.5z M500.5,461   c0.5,0.7,0.8,0.5,1.5,0.2C501.5,460.5,501.2,460.7,500.5,461z" />
	<path fill="#FBDFD3" d="M384.5,422.3c-1.1,12-11.1,21.7-19,30.1c-0.2,0-0.3,0-0.5,0c-0.1-0.7-0.2-1.4-0.2-2.2   c-1.1,0.1-1.4,0.6-1.4,1.5c-0.4,3.1-3.5,6.9-1.6,9.8c-9.5,22.8-23.5,43.9-30.2,67.7c-4.7,16.7-2.4,20.8-22.7,19.3   c4.5-14.3,10.8-26.9,12.8-41.6c-4.2,3.7-5.3,8.7-8.2,13c4.9-24.5,7.6-50,15.2-73.9c6-11.5,16.6-20.2,23.6-31.3   c2.3,0.4,5.3-0.8,7,0.6c-0.4,0.5-0.8,1.1-1.3,1.7c0,1,0,2,0,3c4,3.1,1.3,10.1,5.9,12.6c3.3-5.2,2.6-11.8,3.4-17.5   c4.6-2,9.1-0.8,13.8-1.9c3.8,0.9,8.8-2.6,11.8-0.7c-13.3,15.6-24.5,9.5-21.7,26.9c5.4,1.4,6.2-6.9,8.1-10.3c-0.6-1.1-1-2-1.5-2.8   c2-1.5,4.5-1.7,6.2-3.8C384.1,422.3,384.3,422.3,384.5,422.3z M354.9,447.9c1.1-6.5,4.8-13.6,1.9-20c-0.2,7.7-2.5,14.1-3.1,21.3   C354.6,449,354.8,448.5,354.9,447.9z M350.8,457.4c2-2.1,2.3-3.3,1.4-5.8C351.1,453.5,350.9,455.4,350.8,457.4z M365.8,443.8   c-2,2.3-2,2.4-0.4,3.3C365.5,446.2,365.6,445.4,365.8,443.8z M346.6,470.3c-1.9,1.9-1.9,2,0,2.9   C346.6,472.3,346.6,471.5,346.6,470.3z M348.4,467.5c1.2-2,1.2-2,0.8-3.2C348.5,465.3,347.5,466.1,348.4,467.5z M367.1,437.7   c-0.5-0.2-0.8-0.3-1.1-0.4c-0.6,0.9-0.7,1.7,0,3.1C366.5,439.2,366.8,438.5,367.1,437.7z" />
	<path fill="#FBDFD3" d="M454.9,196.4c1.3-2.6,0.5-4.8-0.1-7.5c3.9-6.8,9-8.4,8.5-18c8.2,6.5,15.4,15.3,20.2,24.8   c11.1-1.2,21.5,4.9,32.7,3.7c16.9-1.6,35.8-4.9,46.8-19c5.7,1.6,10.6-0.8,15.7-1.9c0.8,1.6,0.8,1.6,0.2,4.2   c-4.6,4.3-13.8,1.2-15.8,8.3c0.9-0.4,1.3-0.6,1.7-0.7c0.9,0.3,0.6,1,0.7,1.6c-1.6,2.9-3.8,4.3-6,6.8c10.4,1.2,7.5-9.5,14.1-8.9   c0.2,1.9,1,4.7-0.6,6c-1.4,0-2.7,0-4.6,0c1.2,1.7,2.2,1.4,3.9,1.6c0.5,0.5,1,1,1.4,1.3c0,1.6,0,3,0,4.4c-4.8,3.4-11.1,1.6-16.5,3.2   c-22.3,0.9-77.7,33.5-92.5,3.1c1,0,2.1,0.9,2.8-0.6c3.6,0.3,7.6-0.8,9.4-4.2C469.5,201.8,462.1,200.1,454.9,196.4z M545.9,201.7   c2.7,0.8,4.8-0.3,6.9-2.2C550.6,198.7,547.5,200.2,545.9,201.7c-1,0.3-2.4-0.6-3.1,1C544.6,203.4,544.6,203.4,545.9,201.7z    M534.8,205.3c1.2,0.7,1.9,0.3,2.5-1C536.1,203.9,535.3,204.2,534.8,205.3z M541.9,202.8c-1.4-0.6-2.1,0-2.6,1   C540.5,204.6,541.1,203.7,541.9,202.8z" />
	<path fill="#E4E4EB" d="M529.5,551.5c5,3.3,10.7,2.4,15.7-0.1c3-6,8.6-13.3,3.5-19c-0.9-16.9,2.9-9.2,14.5-6.9   c1,4.7-1.5,7.8-0.6,12.6c3.3-2.5,3.6-6.6,4.1-10.4c0.5,0.2,0.8,0.4,1.3,0.7c0.4,3.6-2.1,7.5,1.6,10c4-0.8,2.5-5.8,2.7-8.7   c1.1-0.9,1.9,0.1,3.1-0.1c0.3,2.9-1.2,6.6,2,8.1c3.2-1.6,1.3-4.8,2.2-7.1c0.3-0.1,0.6-0.2,0.9-0.2c1.1,0.8,0.6,2.4,1,3.6   c1.9,3.2,3-1.5,2.8-3.4c0.4-0.1,1-0.2,1.8-0.4c0.3,1.4,0.5,2.5,0.7,3.6c3,1.8,2.1-2.8,2.2-4.2c6-2.8,12.6-5.2,18.8-8.3   c3.4,1.1,5.6,3.2,6.2,6.8c-10.7,11.5-17.8,29.5-34.3,33.4c-12.7-6.7-1.3,13.9-32,19.1c-4.1-11.1-10.6-20.2-19.1-28.5   C529.1,551.8,529.3,551.7,529.5,551.5z" />
	<path fill="#B7BDD5" d="M412.4,199.5c-0.6-0.1-1.2-0.1-1.2-0.9c1.2-1.5-1.8-4.8-3.2-6c0.1,1.4,0.2,2.2,0.3,3   c-0.5-0.1-1-0.2-1.5-0.2c-0.2,2.6-0.5,5.2-0.7,8.4c2.5,4,5.1,8.6,5.9,13.9c-2.7,2.3-4.3-2.3-6.5-3.7c-3.2,15.2-6.7,30.3-4.7,45.9   c2.1,0.1,4.1,0.2,6.1,0.3c-11.5,2-23-1.4-34-3.4c1.9-10.4-0.7-20-0.4-30.3c0.6,0.2,0.9,0.3,1.5,0.4c0.7-8.9,0.3-17.3,0.4-26.2   c3.8-3.3,7.8-6.8,12-10.5c8.7,1.4,17-1.2,23.2-7.6c2.5,4.9,5.7,9.7,7.4,14.9c-0.6,1.4-1,2.8-2.8,2.7   C413.8,199.4,412.9,198.1,412.4,199.5z M402.7,206.3c0.5-1.5-0.2-2.5-1.8-3.2C400.9,204.9,401.4,205.8,402.7,206.3   c-0.2,1.8,1.7,6.6,3.9,4.7C405.4,209.4,404.7,207.1,402.7,206.3z" />
	<path fill="#E4E4EB" d="M334,544.8c2.5,0.4,4.3,1.7,5.6,4.1c-2.7,2.8-6.9,4.7-7.3,8.8c4.6,2.7,8.2-3.2,10.4-6.6   c0.5,1.9,0.8,3.3,1.2,4.9c-12.2,8.4-5.5,15.1,2.2,2.3c0.5,0.4,0.9,0.8,1.4,1.2c-1.2,2.5-4.8,3.7-3.9,7.2c2.6,0.4,2.6,0.4,6.7-4   c0.7,0.6,1.5,1.3,2.2,2c-1,2.5-6.2,3.4-2.4,6.6c3.1-0.5,3.7-3.4,4.9-5.9c1.4,1,2.7,1.8,3.9,2.6c-0.7,1.3-2.2,2-2.1,3.5   c2.5,1.4,2.5,1.4,6.2-1.7c5.5,1.5,11.3,1.4,16.9,1.7c1.5,1.3,1.9,2.9,1.8,4.6c-1.7,1,0.1,3.2-1.4,4.4c-14.7,1.9-24.7,8-40.4,4.6   c-6.4,0.8-12.9-6.6-16.9-3.5c-11.8,5.7-18.6,8.2-31.2,2.1c-0.9-11.2,6.8-21.4,6.5-32.7c0.5-0.5,0.9-1,1.6-1.7c3,3.1,4.2,10.1,9.5,9   c9.4-1.8,16.1-7.9,23-14C332.8,544.3,333.4,544.5,334,544.8z" />
	<path fill="#4B65C5" d="M398.2,405.3c-16.8,1-34.3-1.1-49.2-9.4c1.2-15.5,10-30,14.5-44.8c4.2-2.5,6.4-16.7,1.9-20   c0.2-0.7,0.3-1.3,0.4-1.8c7.5,11.3,15.3,24.2,22.6,36.2c0,0.3-0.1,0.5-0.1,0.8l0,0c-5.3,1-9.7,4.9-15.1,5.3   c-1.8-0.3-3.6-1.5-5.8-0.4c1.7,0.5,3.1,0.9,4.7,1.4c-0.3,0.5-0.5,0.8-0.8,1.1c1,0.4,1.9,0.4,2.7-0.4c4.7-1.2,8.9-3.9,13.6-5.4   c1,3.4,9.7,14.3,6.5,16.5c-1.7-1.6-3.7-3.1-5-5.3c0.4-0.4,0.9-0.8,1.3-1.1c-1.5-0.8-2.3,0.7-3.6,0.7c0,0,0.1-0.3,0.1-0.3   c0.1-0.3,0.3-0.7,0.4-1.1c-1-1.3-2-2.5-3-3.8c0.3,1.8-0.2,4,1.2,5.2c-2.4,0.8-4.9,1.5-7.3,2.3c-2.1,5.3-5.4,10.2-5.3,16.1   c2.2-5.2,3.6-10.6,6.5-15.5c1.7-0.3,3.4-0.6,5.2-1c0,3.8,3.2,6.5,4.7,9.5c2.1,2.4,2.1,6.2,5.2,7.5c-4,2.3-6.3-4.5-9.7-6.1   c0,4.6-0.9,8.7-0.8,13.3C388.8,405.2,393.6,403.9,398.2,405.3z" />
	<path fill="#EECABA" d="M515.6,513.8c-0.8-3.7-2-7.1-2.3-10.9c4.2,1.2,7.5,15.7,11.4,19.3c-0.4,0.1-0.8,0.2-1.5,0.3   c0.5,0.8,0.8,1.3,1.7,2.6c-0.1-1.6-0.1-2.2-0.2-2.9c1.8,2.3-0.2,5.7,3.1,7.5c-3.1,0.5,0,2.2,0.9,3.2c0.4,3.3,3,6.3,3.1,9.9   c0,0.2,0.6,0.4,0.9,0.5c1.1-1.4,0.3-3,0.5-4.4c1.5,0.9-0.2,2.9,1.4,3.8c-1.6,1.6-3.2,3.1-5,5c-1.7-9.5-6.1-6.7-7.2-12.8   c-9.9-22.3-29.9-37.8-44.9-56.4c-17.7-25.1-1.4-56.6-31.3-75.2c1-1.7,5.2-0.2,7.5-0.7c1,1.1,4.5,2.9,2.3-0.2c0-0.4,0-0.7,0-1.2   c8.7-4.5,17-10.7,26.3-13.8c-4,5.3-10,8.7-14.3,14.1c3.6,3.6,7.6,7,9.4,12.3c-6.4,0.8-10.6-3.2-14.6-7.6c-0.6,0.4-1,0.6-1.3,0.9   c3.4,9.2,18.1,19.9,12.5,30.3c-5,35,28.6,50.5,42,78C516.4,514.3,516.1,514,515.6,513.8z M456.2,405.5c1.3,2.5,2.7,4,4.5,5.2   C460.5,407.8,459.5,406.4,456.2,405.5z M522.2,520.2c0.3-0.5,0.4-0.8-0.2-1C521.7,519.6,521.7,519.9,522.2,520.2z" />
	<path fill="#EECABA" d="M392.9,412.4c-3-1.9-8,1.6-11.8,0.7c-4.7,1.2-9.2-0.1-13.8,1.9c-0.8,5.8-0.1,12.3-3.4,17.5   c-4.6-2.5-2-9.5-5.9-12.6c1.8,0.4,2-3.2,0-3c0.4-0.6,0.8-1.1,1.3-1.7c-1.7-1.4-4.7-0.2-7-0.6c-7,11.1-17.7,19.8-23.6,31.3   c-7.7,23.9-10.3,49.4-15.2,73.9c2.9-4.3,4-9.3,8.2-13c-0.8,4.8-1.3,8.8-2.9,13.1c-0.1-0.4-0.3-0.9-0.6-1.7c-0.5,0.8-0.8,1.3-1.2,2   c0.7,0.2,1.2,0.2,1.6,0.3c-3.2,9.2-6.4,18.3-9.8,27.9c3.1,0.1,5.8,0.2,8.5,0.2c-4,1-8,0.7-12.1-0.2c3.7-31.5,10.8-61.9,13.9-94.6   c5.4-20.6,25.2-32.5,32-52.5c15.5,3.5,30.7,10.2,47,5.5C397,409.7,395,411,392.9,412.4z M307.6,545.5c1.8-0.6,2.1-2.3,2.6-3.7   c1.9-5,1.8-5,1.1-7.4C309.5,538,308.4,541.7,307.6,545.5z M313.2,531.8c0-1,0-2.1,0-3.5C312.1,529.6,311.5,530.5,313.2,531.8z    M315,523.3c0,1.1,0,1.7,0,2.2C315.7,525,316.8,524.6,315,523.3z" />
	<path fill="#EECABA" d="M464.8,209.3c14.9,30.4,70.1-2.2,92.5-3.1c-0.8,0.2-1.8-0.3-2.3,0.8c-26.3,9.4-52.4,25.1-80.9,20.5   c-6.9-5.5-13-11.2-21.8-13.6c0.5-1.9,1-3.7,1.5-5.6c2.2,0.6,4.3,1.9,6.9,0.8c-2.5-0.8-4.8-1.8-7.1-3c-0.4-3.4,0.4-6.5,1.4-9.6   c7.2,3.7,14.5,5.3,22,8c-0.7,1.8-2.2,2.4-3.7,3.4c0-0.5-0.1-0.9-0.1-1.8c-0.9,0.6-1.4,0.9-2.5,1.7c1.3,0.1,1.9,0.2,2.5,0.2   c-1.7,1.1-3.7,0.7-5.6,0.8c-1.1-0.2-2-1.5-3.4-0.6C464.4,208.5,464.6,208.9,464.8,209.3z" />
	<path fill="#CFCFDC" d="M298.1,550.8c0.3,11.3-7.5,21.5-6.5,32.7c12.7,6.2,19.3,3.6,31.2-2.1c3.9-3.1,10.5,4.4,16.9,3.5   c15.7,3.4,25.8-2.8,40.4-4.6c1.5-1.2-0.3-3.4,1.4-4.4c-0.1,3.8,0.7,6.7-3.4,9c-0.6-0.2-1.2-0.5-2.1-0.9   c-10.4,8.8-24.1,6.1-36.7,6.3c-6.2,0.5-11.6-4.2-17.7-2.2c-12.1,1.8-25.4,4.8-36.4-2.5c1.2-2.2,2.7-4,3-6.5   c0.6-7.7,7.1-14.1,5.4-22.3C295.3,554.5,296.4,552.8,298.1,550.8z" />
	<path fill="#CFCFDD" d="M529.5,551.5c-0.2,0.1-0.4,0.3-0.7,0.5c8.4,8.4,15,17.4,19.1,28.5c30.7-5.2,19.3-25.7,32-19.1   c16.4-3.9,23.6-21.9,34.3-33.4c0.1,10.7-12.4,23.2-20.5,30c-4.1,6.2-12.4,3.5-17.3,7.9c-2.4,4.6-9.1,6.9-10.6,11.5   c-7.5,4.8-14.1,10.5-23.4,8.4c-1.4-5-2.2-9.9-6.2-13.4c-2.9-3.2-1-8.2-4.5-11.3c-2.1-3.2-6.3-6.1-4.2-10.3   C528.2,551.1,528.9,551.3,529.5,551.5z" />
	<path fill="#EDCABA" d="M399.7,165.4c1.3-3,1-7.2,4.5-8.7c0-3.6-0.2-7.3,3.8-9.4c1.7,0.6,2.5,2.1,2.9,3.8c-1.1-0.2-2.2-0.2-2.5,1.3   c1.1,1.1,2.2-0.2,2.5-1.3c4.8,2.6,5,10,9.1,13.5c-0.4,2.5-1.9,4.4-3.6,6.1c-2.9-3.1-4.6-7.4-7.2-11.1c-0.4-0.2-1-0.4-1.5-0.5   c-0.6-1-1.1-2-1.5-2.8c-3.8,0.6,5.7,15.8,7.3,18c-6.2,8.2-14.8,15.9-26,13.6c4.6-7.2,11.2-13.8,13.1-22.1   C400.3,165.7,400,165.5,399.7,165.4z M406.7,154.4c-0.2-0.2-0.4-0.4-0.6-0.5c-0.6,0.3-1.5,0.4-0.7,1.8   C405.9,155.2,406.3,154.8,406.7,154.4z" />
	<path fill="#ECC9B9" d="M555,207c5.5-3,13.4,0.1,18.8-3.9c0-1.5,0-2.8,0-4.4c-0.3-0.3-0.9-0.8-1.4-1.3c0.2-0.1,0.5-0.2,0.7-0.2   c1,0.3,2,0.9,3.2-0.6c-1.3,0-2.3,0-3.2,0c0-0.2,0-0.4-0.1-0.6c1.6-1.3,0.8-4.1,0.6-6c-5.9-0.7-4.5,8.5-10.2,8.2   c1-2.7,5.1-5.6,2.9-8.3c5.4-2.7,12.1-2.5,15.8-8.3c0.8,0.9,1.6,2,2.4,3c-0.4,0.7-0.8,1.5-1.1,2c-1.5,0.7-3.3-0.2-4.3,1.6   c0.8,0.3,1.4,0.5,2.1,0.7c-0.5,2-0.2,4.3,1.7,5.5c0,0.3,0.1,0.6,0.1,0.9l0,0c-1.9,0.5-0.3,2.8-0.3,4.1   C574.7,205.9,565.2,210.6,555,207z M576.5,188.1c-0.6,0.2-1.4-0.3-1.6,0.8C575.1,190.1,576.7,189.5,576.5,188.1z" />
	<path fill="#5875E7" d="M398.2,405.3c-4.5-1.5-9.4-0.1-14.2-0.7c-0.1-4.6,0.7-8.7,0.8-13.3c8.6,8.3,7.3,8.1,18,2.2   c1.5,4,3.1,8.1,4.7,12.4C404.1,406.7,401.3,405.4,398.2,405.3z" />
	<path fill="#5775E6" d="M389.1,378.8c1.3,2.2,3.3,3.7,5,5.3c3.2-2.2-5.5-13.1-6.5-16.5c0.2-0.3,0.5-0.5,0.7-0.8   c0.2,0.1,0.4,0.1,0.7,0c5,7.5,8.5,16.3,13,24.2c-0.9,3.5-5.8,4.7-8.9,5.4c-2.5-5.6-7.4-9.9-8.5-16.1   C385.9,379.5,387.3,378.7,389.1,378.8z" />
	<path fill="#B7BCD4" d="M425.7,182c-0.6,0-1.3-0.1-1.9-0.1c0.4-0.4,0.8-0.9,1.1-1.2c-0.7-2.6-5.1-4.3-5.4-1c-1.7-1-0.5-4.4-3.1-4.5   c2-3.8,4.1-7.6,6.1-11.3c1.9,12.2,14.8,13.5,22.2,21.3c-0.1,0.5-0.2,0.9-0.3,1.4C437.3,186.1,432.1,183.8,425.7,182   c1.3,0,2.6,0.7,3.9-0.2C429.2,179.8,425.6,180,425.7,182z M433.5,183.3c0.2-0.3,0.4-0.6,0.6-0.8   C433.6,181.8,432.7,182.8,433.5,183.3z" />
	<path fill="#F6DBCF" d="M583.8,177.5c-0.4,0.7-0.8,1.5-1.2,2.2c-4.7-6.8-10.9-0.2-17.9-0.7c3.5-8.4,14.9-5.4,22.1-6.3   c1.2,1.4,1.9,2.3,2.8,3.9c-0.8,2-1.5,4.2-2.5,6.1c-1.6,0.5-2.3-0.2-3-1.7c0.1-0.7,0.3-1.7,0.5-2.6c0.8-0.6,1.1-1.2,0.1-2.3   C584.4,176.6,584.1,177.1,583.8,177.5z" />
	<path fill="#0C0C0B" d="M348.1,292.6c1.8,5.1,1.4,11.5,5.1,15.6c3.2,3.2,2.7,7.9,4.9,11.7c-0.1,0.7,0.1,1.2,0.7,1.5l0,0   c-1.8,3.3,0.1,7-1.6,10.1c-1.1-2.3-0.8-4.7-0.9-7c0.4-3.2-2.1-5.6-2.6-8.5c-0.3-6.3-6.1-10.5-6.4-16.7c-0.5-0.4-1-0.8-1.3-1   c-0.5-5.9,0.4-11.4,0.7-16.9C348.7,284.4,346.2,289.3,348.1,292.6z" />
	<path fill="#090912" d="M416.5,262.4c-6.1,1.7-12,0.1-18.5,0.9c0.7,1.2,1.2,2,1.7,2.8c-1.3,1.5-4,0.2-5.3,2.2   c0.2,4.9,4.3,8.9,8.3,11.3c-0.3,0.3-0.6,0.7-0.9,1c-5.6-2.2-8.3-7-9.7-12.6c-6.2-0.8-12.6-1-18.2-4.1c0-0.3,0-0.6,0.1-1   c0.6,0,1.2,0.1,2.1,0.1c0.2-1.6,0.1-3,0.1-4.5c0.8,0.1,1.7-0.3,2.3,0.6c-0.3,0.1-0.7,0.2-1.1,0.3c0.4,1.7-0.5,4.3,1.8,4.7   c0.1-1.1,0.2-2.1,0.3-3.1c0.4-0.1,0.8-0.2,1.1-0.3c0.1,1.2,0.1,2.5,0.2,3.9c5.6,1.4,11,1.7,16.7,1.1c-0.3-1.1-0.4-1.9-0.6-2.4   c-1.5-0.9-3.1,0.1-4.2-1.1C400.7,262.4,408.6,262.4,416.5,262.4z" />
	<path fill="#F9F9F9" d="M543.2,550.2c-1.7,0.9-3.7,1.2-6,1.5c-1.4-0.9-2.8-1.8-4.6-2.8c5.9-4,9.4-8.9,14.4-13.9   C547.3,540.4,543.8,544.6,543.2,550.2z" />
	<path fill="#B4BAD1" d="M413.3,260c2.1-1.2,4.2-0.6,6.7-0.8c-1.5-7.3-2.8-14.4-3.7-21.8c0.4,0.2,0.8,0.5,1.4,0.7   c0.1-0.6,0.2-1.1,0.2-1.5c1.2,0.8,0.5,1.7,0.2,2.7c3.6,3.7,6.5,14,7.6,19.9c0.6,0.1,1.4,0.2,2.1,0.3   C423.2,260.8,418.1,259.7,413.3,260z M423.6,259.2c1.2-3.7,0.1-6.9-2.8-9.7C421.7,253,421.9,256.2,423.6,259.2z M418.7,246.2   c0.3,0,0.6,0,0.9,0c0-0.9,0.1-1.7-1.1-2.8C418.6,244.6,418.7,245.4,418.7,246.2z" />
	<path fill="#4861BE" d="M392.8,262.4c1.1,1.2,2.7,0.2,4.2,1.1c0.1,0.5,0.3,1.3,0.6,2.4c-5.8,0.6-11.2,0.3-16.7-1.1   c-0.1-1.4-0.1-2.7-0.2-3.9C384.7,260.7,388.7,262.3,392.8,262.4z" />
	<path fill="#0C0D19" d="M437.5,265.4c-0.1,0.4-0.2,0.7-0.3,1.3c1.9,1.7,4.4,3.1,5.4,5.8c-0.5,0.8-1.1,0.7-1.6,0.2   c-7.1-8.8-11-4.8-20.1-5c0-1.7,0-3.6,0-5.4c0.5,0,1.1,0,1.6,0c0.2,1.1-0.6,2.3,0.5,3.3c0.5-0.8-0.2-2.1,1-2.6   c0.1,0.9,0.2,1.9,0.3,3.1C428.9,265.7,433,264.9,437.5,265.4z" />
	<path fill="#C0AAA1" d="M357.9,329.7c-0.1-2.9-0.4-5.6,0.8-8.3c1.1,0.7,1.5,1.8,1.5,3c-1.3,2.8,3.8,5.6,2.2,9.1   c0.8,0.7,1.5,1.3,2.5,2.1c-2,0-3.6,0-5.3,0C359,333.6,358.5,331.7,357.9,329.7z" />
	<path fill="#E6CEC3" d="M586.1,185.7c4,0.7,2.8-4.5,4.6-6.8c1.6,2.1,1.6,2.1,1.5,6.6c-1,1.6-2.2,3-3.8,4.1   c-1.8-0.1-2.7,2.2-4.6,1.5c0,0,0,0,0,0c0-0.3,0-0.7,0-1c-0.3-0.8,1.2-0.9,0.9-2c0.2-0.3,0.4-0.6,0.7-0.9l0,0   C586.1,187.1,586,186.4,586.1,185.7z" />
	<path fill="#EEF0F0" d="M320,551.5c-5.7,2.8-13.6,6.9-15.5-1.2C310.2,551.5,314,551.7,320,551.5z" />
	<path fill="#19110F" d="M583.8,189.6c-0.2,0.2-0.2,0.4-0.1,0.6c-0.4,0.3-0.6,0.7,0,1l0,0c0.3,1,0.7,0.5,1.1,0.1   c0.2,0.1,0.4,0,0.5-0.2c0.3-0.2,0.7-0.4,1-0.6c0.2,0.1,0.4,0,0.5-0.2c1.5,0.1,2.4-1.7,3.7-2.4c0.3,0.6,0.5,1.2,0.8,1.8   c-2.6,1.8-5.2,3.5-8.3,4.4c-1.9-1.3-2.3-3.5-1.7-5.5c-0.7-0.2-1.3-0.4-2.1-0.7c1-1.8,2.7-0.9,4.3-1.6c0.3-0.5,0.7-1.3,1.1-2   c0.3,0.3,0.6,0.7,0.8,1c-0.1,0.7-0.1,1.3-0.2,2c0,0,0,0,0,0c-0.2,0.3-0.4,0.6-0.7,0.9C583.9,188.5,583.7,188.9,583.8,189.6z" />
	<path fill="#5270DC" d="M432.9,265.2c-2.8,0.3-5.6,0.7-8.6,1c-0.1-1.2-0.2-2.2-0.3-3.1c0.3-0.2,0.5-0.4,0.8-0.6   c2.3-0.3,4.6-0.6,6.9-0.9c0.5,0.8,0.9,1.6,1.3,2.3C433,264.3,433,264.7,432.9,265.2z" />
	<path fill="#EBD4C9" d="M587.9,197.4c0.9-1.8,2.4-2.8,3.9-4.1c1.2,1.4,1.8,2.7,2.1,4.3c-1.3,1.7-3.4,6.7-6,4.5   c0.7-0.8,1.4-1.7,2.2-2.7C589.3,198.7,588.7,198.1,587.9,197.4z" />
	<path fill="#DBBAAC" d="M351.1,331.8c0.1,3.2,0.2,6.4,0.2,9.8c0.8,0.1,1.5,0.2,2.2,0.2c-0.3,0.5-0.5,1.1-0.8,1.6   c0.5,0.5,1,0.8,1.5,1.3c-1.2,2.5-3.2,3.2-5.8,3c-0.5-1.6,0.9-2.9,1.4-4.3c1.5-3.3,0.2-7.6,0.8-11.3   C350.7,332.1,350.9,331.9,351.1,331.8z" />
	<path fill="#383635" d="M348.1,292.6c-1.9-3.3,0.6-8.2-1.4-11.3c0.2-4.1,0.5-8.2,1.3-12.3c0.5,0.7-0.2,1.9,0.9,2.4   C348.8,278.5,347.9,285.5,348.1,292.6z" />
	<path fill="#111529" d="M386.7,361.7c-2.9-4-4.9-8.5-8.2-12.3c0.8-0.2,0.8-0.9,0.8-1.5c3.1,4.1,6.1,8.2,8.4,12.8   C387.3,361.1,387,361.4,386.7,361.7z" />
	<path fill="#C3AB9F" d="M583,194.1c3-0.9,5.7-2.6,8.3-4.4c0,0.6,0.1,1.2,0.1,1.8c-2.2,1.9-4.8,3.3-5.6,6.7   c-1.1-1.3-1.9-2.2-2.7-3.2C583.1,194.8,583.1,194.4,583,194.1z" />
	<path fill="#141628" d="M388.3,366.9c-4.3,2.6-9.5,4.5-14.3,6.2c-0.8-0.3-0.9-0.9-0.8-1.6c5.4-0.4,9.8-4.3,15.1-5.3   C388.3,366.3,388.3,366.6,388.3,366.9z" />
	<path fill="#4565C6" d="M420.8,404.4c-0.4,0.9-0.8,1.8-1.3,2.8c-3-0.4-5.8-0.8-8.7-1.1C413.7,404.8,418.2,404.1,420.8,404.4z" />
	<path fill="#2A2325" d="M422.4,163.9c-1.8,3.3-3.5,6.6-5.3,9.8c0.1-1.1-0.1-2.1-0.8-3c3.2-2.5,3.6-6.5,5.2-10   c0.3,0.8-0.3,1.8,0.7,2.4C422.3,163.3,422.4,163.6,422.4,163.9z" />
	<path fill="#403532" d="M383.9,422.3c-3.4,3.1-6.4,3.6-10.5,6.3c0.8-1.4,1.1-2,1.4-2.6c2.8-1.3,5.6-2.9,8.2-4.6   C383.3,421.7,383.6,422,383.9,422.3z" />
	<path fill="#282120" d="M361.7,461.5c-1.9-2.9,1.2-6.7,1.6-9.8c2.6,1.3-1.7,5.4,0.7,6.7C363.3,459.4,362.5,460.5,361.7,461.5z" />
	<path fill="#31468A" d="M432.9,265.2c0-0.5,0.1-0.9,0.1-1.4c0.4,0,0.9-0.1,1.3-0.1c0.2,0.6,1,0.8,1.4,0.5c0.8-1.7-3.4-0.6-1.4-3.2   c0.4,0.3,0.9,0.5,1.3,0.8c0.5-0.3,1-0.6,1.4-0.9c1.1,1.1-0.3,1.8,0.1,2.8c0.9,0.1,1.8,0.2,2.8,0.3c-0.8,0.4-1.6,0.9-2.4,1.5   C436,265.3,434.5,265.3,432.9,265.2z" />
	<path fill="#23284D" d="M393,396.5c3.2-0.7,8-1.9,8.9-5.4c1.1,0.5,0.7,1.5,0.7,2.3c-2.7,1.5-5.2,3.2-8.3,3.9   C394,397.1,393.5,396.8,393,396.5z" />
	<path fill="#4560BB" d="M382.4,260.8c-1,0-1.9,0.1-2.9,0.3c-0.1,1-0.2,1.9-0.3,3.1c-2.3-0.4-1.4-3-1.8-4.7c0.4-0.1,0.8-0.2,1.1-0.3   C379.8,259.6,381.2,260,382.4,260.8z" />
	<path fill="#4159AD" d="M376.2,258.5c0.1,1.5,0.1,3-0.1,4.5c-0.9,0-1.5-0.1-2.1-0.1c-0.1-1.5-0.1-2.9,0.3-4.4   C375,258.5,375.6,258.5,376.2,258.5z" />
	<path fill="#B7C7CE" d="M334,544.8c-0.6-0.2-1.2-0.4-1.8-0.7c0.8-1.3,2-2.2,3.1-3.1c1.2,0.3,1.5,1.1,1.6,2.2   c-0.9,0.2-1.8,0.4-2.8,0.5C334.1,544,334,544.4,334,544.8z" />
	<path fill="#C3ACA3" d="M364,458.4c-1.6-1.1,0-4.7,0.9-6c0.2,0,0.3,0,0.5,0c0.1,0.8,0.2,1.6,0.3,2.4   C365.2,456,364.6,457.2,364,458.4z" />
	<path fill="#243465" d="M424.8,262.4c-1.5,0.7-1.6,1.8-1.8,3.2c-1.1-1-0.4-2.3-0.5-3.3C423.2,262.4,424,262.4,424.8,262.4z" />
	<path fill="#483934" d="M566.4,189.6c0.6,1,1.4,2.1,0.2,3.2c-0.3-0.3-0.7-0.7-1-1c-0.1-0.6,0.2-1.4-0.7-1.6   C565.1,189.5,565.7,189.5,566.4,189.6z" />
	<path fill="#EECABA" d="M455,190.4c1,1.9,1,3.5,0,5.3C455,193.9,455,192.1,455,190.4z" />
	<path fill="#5373E2" d="M434.5,263.1c2.5-0.2,1,2.5-0.1,0.6C434.4,263.5,434.5,263.3,434.5,263.1z" />
	<path fill="#68504B" d="M583.8,177.5c0.3-0.5,0.6-0.9,0.9-1.5c0.9,1.1,0.7,1.7-0.1,2.3C584.4,178.1,584.1,177.8,583.8,177.5z" />
	<path fill="#364D98" d="M438.9,260.3c0,0.6,0,1.2,0,1.8c-0.2,0-0.3,0-0.5,0c0-0.6,0-1.2,0-1.8C438.6,260.3,438.8,260.3,438.9,260.3   z" />
	<path fill="#37332F" d="M455.9,402.3c0.8,0.5,1.1,2.3-0.2,1.8C455.8,403.5,455.8,402.9,455.9,402.3z" />
	<path fill="#DCBFB0" d="M585.2,187.3c0.1-0.7,0.1-1.3,0.2-2c0.2,0.1,0.5,0.3,0.7,0.4C586,186.4,586.1,187.1,585.2,187.3z" />
	<path fill="#31468A" d="M442,264.7c-0.5-0.3-0.9-0.5-1.4-0.8C441.3,263.8,441.9,263.8,442,264.7z" />
	<path fill="#DCBFB0" d="M588.3,185.1c-0.3,0.9-1,0.8-1.7,0.6C587.2,185.5,587.7,185.3,588.3,185.1z" />
	<path fill="#C3AB9F" d="M582.3,196.6c-0.1-0.7-0.2-1.4,0.8-1.6C582.9,195.5,582.6,196.1,582.3,196.6z" />
	<path fill="#403532" d="M383,421.4c0.2-0.2,0.5-0.5,0.7-0.7C383.5,420.9,383.3,421.2,383,421.4z" />
	<path fill="#C0AAA1" d="M361.7,326.8c0.2,0.3,0.4,0.6,0.7,0.9C362.2,327.4,361.9,327.1,361.7,326.8z" />
	<path fill="#141628" d="M389.8,367.7c-0.3-0.3-0.5-0.5-0.8-0.8C389.3,367.2,389.5,367.4,389.8,367.7z" />
	<path fill="#C0AAA1" d="M361.1,325.9c0.2,0.3,0.4,0.6,0.6,0.9C361.5,326.5,361.3,326.2,361.1,325.9z" />
	<path fill="#C0AAA1" d="M360.3,324.4c0.2,0.3,0.4,0.6,0.6,0.9C360.7,325.1,360.5,324.8,360.3,324.4z" />
	<path fill="#2A2325" d="M415.6,170.1c0.2,0.2,0.5,0.4,0.7,0.6C416.1,170.5,415.8,170.3,415.6,170.1z" />
	<path fill="#141628" d="M388.3,366.1c0-0.3,0.1-0.5,0.1-0.8C389.1,365.7,388.9,365.9,388.3,366.1z" />
	<path fill="#FBDFD3" d="M470.9,28.3c0.4,0.3,0.8,0.5,1.3,0.8c-0.9,5.5,5.2,11.6,1.7,16.3c-3.4,5.2,3.6,10.9,4.7,16.2   c-0.6,0.7-1.1,1.4-1.5,1.8c-1.8,0-3.2,0-4.7,0c-0.6-0.4-1.2-0.8-1.7-1.1c-2.3,2.5,1.5,4.9,3.8,3.3c3,9-9,4-6,9c1.3,0,2.8,0,4.3,0   c0.2,0.7,0.3,1.2,0.5,1.6c-2.7,3,0,6.3-1,9.6c-2.9,4.8-11.4,3.3-15.3,0.3c-8.5-4.9-20.5-7.1-22.3-18.2c-0.6-0.2-1.1-0.3-1.6-0.4   c-0.1-0.4-0.2-0.8-0.4-1.3c-1,0.6-1.7,1-2.3,1.4c-3.8-1.2-6.1-4.1-8.7-6.8c0.5-0.5,1-0.9,1.6-1.3c-0.5-1-1-1.8-1.5-2.8   c0.6-0.4,1-0.8,1.6-1.2c0.9,1.5,1.6,2.8,1.3,4.4c0.9,4.1,11.2,2.7,6.4-1.3c-2.2-0.5-3.3-1.2-1.8-3.4c1.4-0.3,2.3-0.6,3.6-0.4   c1,1.7,1.9,3.4,2.8,5c1.5-0.1,0.7-1.5,1.6-2.2c1,0.4,2.2,0.8,3.6,1.4c-7.6-12.4,11.6-19.4,17-28.3c4.2,1.7,7.6-0.9,11.3-2.7   C469.7,28.1,470.3,28.2,470.9,28.3z M471.3,42.4c-5-2.4-13.6-3.1-16.8,2.4c1.6,0,2.9,0.3,4-0.5c3.6-2.2,7.6,0.1,11.4,0.4   C470.4,43.9,470.8,43.3,471.3,42.4z M460.1,49c0.6,2.3,2.7,0.2,4.1,1c1.4,0.7,2.6,0.1,3.8-0.8c0.1-1,0.1-2,0.2-3.1   C465,46.1,462.3,46.8,460.1,49z M448.6,65.2c-0.6-1-1.2-2-2.5-1.1C446.6,65.3,447.2,66,448.6,65.2z M445.2,62.9   c-0.8-0.8-1.4-1.4-2-2.1c-0.4,0.5-0.6,0.8-0.8,1C443.1,62.6,443.7,63.3,445.2,62.9z" />
	<path fill="#EECABA" d="M439.6,76.9c6,4.2,13.1,6.4,19.2,10.5c-4.4,0.3-5.4,6.2-5.4,9.9c-2.2,2.3-2.4,5.6-3.5,8.4   c-5.1-3.7-9-8.8-12.2-13.9c-0.9-0.5-1.7-0.8-2.4-1.2c0.4-0.1,0.9-0.2,1.5-0.3c-1.1-3.6,0.5-8.7-3-10.6c0.2,2.6,0.4,4.8,0.6,7   c-1.3-3.4-2.6-6.9-4-10.4c-1.5-0.6-2.7-1.9-4.7-1.6c-4.4,8.6-7.9,18.6-15.5,25c-1.5-1-3.8-1.3-4.5-3.2c2.6-1.5,4.3-3.7,4.7-6.8   c1.9-7.3,6.2-13.6,8.3-21c0.6-0.4,0.8-1,0.6-1.7c0.2-0.1,0.2-0.3,0.1-0.5c4.7-3.5,8,5.3,12.8,2.7c1,0.2,1.1,1.2,1,1.8   c-0.2,1.6,0.5,2.6,1.5,3.6c1.5,1.4,2.6,4.4,5.1,3.5C439.8,77.6,439.7,77.2,439.6,76.9z M416.5,86.6c1,0,1.2-0.5,1.8-1.3   C416.8,85.2,416.8,85.2,416.5,86.6z M413.5,90.2c1-0.5,1.8-0.8,1-2C413.6,88.6,412.9,88.9,413.5,90.2z" />
	<path fill="#171616" d="M470.9,28.3c-0.6-0.1-1.2-0.3-1.7-0.4c-1.7,0.9-3.4,1.7-5.1,2.5c-0.6-0.7-1.1-1.3-1.5-1.8   c-1.1,0.1-1.9,0.2-3.3,0.3c0.7-0.9,1-1.4,1.5-2c-0.9-0.2-1.6-0.3-2.3-0.5c-0.3-0.7-0.1-1,0.5-1.2c0.9,0.8,1.9,0.8,3,0.8   c2.2,2.7,5.5,0.9,8.3,0.7c0.3,0.3,0.5,0.5,0.8,0.8C470.9,27.8,470.9,28.1,470.9,28.3z" />
	<path fill="#303232" d="M470.9,27.6c-0.3-0.3-0.5-0.5-0.8-0.8c0.8-0.1,1.8,0.3,2.2-0.8c4.2-1.4,8.5-2.1,11.3-5.9   C482.6,25.7,475.8,27.1,470.9,27.6z" />
	<path fill="#1D1817" d="M432.3,69.1c-3.3,1.7-6.5-2.1-9.3-3.6c1-0.1,1.7-0.4,1.7-1.6c1.6,1.6,3.4,2.9,5.7,3.7   c0.6-0.4,1.4-0.8,2.3-1.4c0.1,0.5,0.2,0.9,0.4,1.3C432.8,68.1,432.5,68.6,432.3,69.1z" />
	<path fill="#2A2B2B" d="M467.9,13.8c0.6,0.8,1.1,1.5,1.7,2.2c0.7,0,1.2-0.1,2-0.1c0.3,1.7-0.2,3.7-2.5,3.2c-2-6.5-4.6-1.7-6.3-3.7   C463.9,14,466.3,14.4,467.9,13.8z" />
	<path fill="#D5C2B8" d="M419.2,54c1.3-2,2.7-4,4-6c0.7,0,1.5,0,2.2,0l0,0c0,0.2,0.1,0.5,0,0.7l0-0.1c-2.9,1.2-2.1,5.6-5.2,7   c-0.3-0.3-0.7-0.7-1-1C419.3,54.4,419.3,54.2,419.2,54z" />
	<path fill="#1D1817" d="M421.7,60.8c0.5,0.5,1,1,1.5,1.6c-1.3,0.1-2.5-0.3-3.8-0.8l0,0c-1.2-1.7-4.6-4.7-2-6.6   c0.4,0.2,0.9,0.3,1.3,0.5C418.8,57.8,419.5,59.7,421.7,60.8z" />
	<path fill="#C3AFA6" d="M432.9,54.8c-0.5,0-0.9,0-1.4-0.1c-2-2-4-4.1-6-6.1c0,0,0,0.1,0,0.1c0.3-0.1,0.5-0.1,0.8-0.2   C429.3,49.6,430.9,52.3,432.9,54.8z" />
	<path fill="#2A2B2B" d="M446.7,36.6c1.1-2.4,3.3-3.4,5.6-4.2c0,2.1-3.7,3.2-5.1,4.9C447.1,37,446.9,36.8,446.7,36.6z" />
	<path fill="#2B2D2D" d="M461.8,26c-1.1,0.1-2.2,0.1-3-0.8c1.8-0.9,5.7-1.7,6.5,0.2C464.3,26.4,463,25.8,461.8,26z" />
	<path fill="#B7A79E" d="M421.7,60.8c-2.2-1.1-2.9-3-3-5.3c0.1-0.2,0.2-0.4,0.1-0.6c0.2-0.1,0.4-0.2,0.6-0.3c0.3,0.3,0.7,0.7,1,1   c-0.9,1.9,1.2,3.1,2.1,4.4C422.2,60.3,421.9,60.6,421.7,60.8z" />
	<path fill="#2D2E2E" d="M449,24.9c-0.5,0.5-0.8,0.9-1.2,1.3c-1.2-0.8-2.2-1.5-3.4-2.4c0.3-0.5,0.7-1,1-1.5   C446.6,23.2,447.7,24,449,24.9z" />
	<path fill="#252727" d="M423.8,37.4c-1.3,2.2-3.6-1.2-4.6-2.5C420.8,34.7,420.8,34.7,423.8,37.4z" />
	<path fill="#161919" d="M433.1,38.3c-0.5,0.1-0.9,0.1-1.7,0.2c0.3-0.6,0.5-1,0.7-1.5c1.3,0.3,2.4,0.5,3.9,0.8   c-0.2,0.9-0.4,1.6-0.8,2.8C434.4,39.6,433.9,39.1,433.1,38.3z" />
	<path fill="#353535" d="M427.3,20c0.7,1.1,1.3,2.1,2.1,3.3c-1.6,0.5-2.6-0.5-3.8-0.6C425.7,21.5,425.9,20.4,427.3,20z" />
	<path fill="#191C1C" d="M439.1,51.8c0,1.5,0,3,0,4.5c-1.3-0.4-0.6-1.7-1.1-2.6c-0.3,0-0.6,0-1.1-0.1c-0.3-1.2-0.4-2.3,0.8-3.1   C438.3,51,438.7,51.4,439.1,51.8z" />
	<path fill="#2D2E2E" d="M434.9,22.2c1.6,2.4,1.6,2.4-0.5,3.8c-0.4-0.3-0.8-0.7-1.4-1.3C433.5,23.9,434.1,23.2,434.9,22.2z" />
	<path fill="#282929" d="M456,27.1c-0.5,2.3-2,3.4-4.2,4.1C451.4,29.3,454.8,28.5,456,27.1z" />
	<path fill="#2D3030" d="M425.4,48c-0.7,0-1.5,0-2.2,0c0.3-0.4,0.6-0.7,1-1.3c0-0.2,0-0.8-0.1-1.3c1.1-0.8,1.8-0.3,2.6,0.5   C426.3,46.7,425.8,47.3,425.4,48z" />
	<path fill="#1E1E1E" d="M442,37c-1.3,0.4-2.2,0.7-3.4,1.1c-0.1-0.7-0.2-1.2-0.3-1.8C439.8,35.4,440.5,36.4,442,37z" />
	<path fill="#313333" d="M414.4,36.7c0.7,1.2,0.3,2.9-1.4,2.8C412.6,37.8,412.6,37.8,414.4,36.7z" />
	<path fill="#202222" d="M430.2,10.6c-1.5,0.8-2.4,1.3-3.3,1.8C425.1,10.5,428.3,9.5,430.2,10.6z" />
	<path fill="#262828" d="M412.9,41.9c-0.8,1.4-1.2,2.2-1.6,3C409.4,44,410.4,42.2,412.9,41.9z" />
	<path fill="#222323" d="M419.3,21.2c1.4,1.7-0.2,2.2-0.1,3.1C416.9,24.1,418.7,22.5,419.3,21.2z" />
	<path fill="#2A2C2C" d="M455.2,27c-2-0.8-2.3-2-3-2.9C453.7,24.2,453.7,24.2,455.2,27z" />
	<path fill="#2C2B2B" d="M458.2,11.6c-0.9,0.9-1.5,1.5-2.2,2.3c-0.4-0.7-0.7-1.2-1.1-2.1C456,11.8,456.8,11.7,458.2,11.6z" />
	<path fill="#2A2D2D" d="M476.6,13.2c0.5,0.4,0.8,0.6,1.5,1.1c-0.9,0.7-1.5,1.1-2.1,1.5C475.1,15.5,475.2,15.1,476.6,13.2z" />
	<path fill="#2A2929" d="M423.2,16.9c-0.3,0.4-0.7,0.9-1.1,1.5c-0.5-0.6-0.8-1-1.4-1.8c1-0.2,1.6-0.3,2.2-0.5   C422.9,16.4,423,16.7,423.2,16.9z" />
	<path fill="#252626" d="M443.1,41.9c-0.1-1.6,0.6-2,1.9-2C445,41.1,444.5,41.7,443.1,41.9z" />
	<path fill="#282929" d="M412.6,54.3c0.1-0.8,0.2-1.6,0.3-2.5C414.3,52.9,414.3,52.9,412.6,54.3z" />
	<path fill="#282A2A" d="M419.4,61.6c0.7,0.2,1.5,0.5,2.2,0.7c0,0.5,0.1,1,0.1,1.5c-0.3,0.2-0.5,0.5-0.8,0.7   C419.8,63.9,419.5,62.8,419.4,61.6z" />
	<path fill="#252828" d="M416,22.8c-0.6,1.5-0.9,2.2-1.3,3.3C413.8,24.6,414.1,23.9,416,22.8z" />
	<path fill="#2A2A2A" d="M419.7,43.2c-0.1-0.9-0.4-1.3,0.4-2.1C420.9,41.8,421.4,43.3,419.7,43.2z" />
	<path fill="#212222" d="M419,48.6c-0.7,1.2-1,1.7-1.4,2.3C416.9,49.8,416.9,49.1,419,48.6z" />
	<path fill="#313333" d="M436.2,43.3c-0.4,0.6-0.8,1-1.2,1.6C434.7,43.3,434.7,43.3,436.2,43.3z" />
	<path fill="#1D1817" d="M421.8,65.5c-0.8,0.3-1.5,0.6-2.3,0.9C419.8,64.8,420.9,65.5,421.8,65.5z" />
	<path fill="#171616" d="M472.4,26c-0.4,1.1-1.4,0.7-2.2,0.8C470.6,25.7,471.6,26.1,472.4,26z" />
	<path fill="#1D1817" d="M419.4,66.9c0.1,0.7,0,1.3-0.6,1.7C418.6,67.9,418.5,67.3,419.4,66.9z" />
	<path fill="#1D1817" d="M419.3,54.7c-0.2,0.1-0.4,0.2-0.6,0.3c0.2-0.3,0.3-0.6,0.5-0.9C419.3,54.2,419.3,54.4,419.3,54.7z" />
	<path fill="#1D1817" d="M420.9,64.6c0.3-0.2,0.5-0.5,0.8-0.7C421.4,64.1,421.2,64.4,420.9,64.6z" />
	<path fill="#1D1817" d="M424,63.1c0.2,0.3,0.5,0.5,0.7,0.8C424.4,63.6,424.2,63.4,424,63.1z" />
	<path fill="#282A2A" d="M418.6,60.8c0.2,0.3,0.5,0.5,0.7,0.8C419.1,61.4,418.9,61.1,418.6,60.8z" />
	<path fill="#292321" d="M429.2,50.2c-0.3-0.2-0.6-0.4-1-0.5C428.6,49.8,428.9,50,429.2,50.2z" />
	<path fill="#292321" d="M427.7,49.4c-0.3-0.2-0.6-0.4-0.9-0.6C427.2,49,427.4,49.2,427.7,49.4z" />
	<path fill="#292321" d="M426.2,48.6c-0.3,0.1-0.5,0.1-0.8,0.2c0-0.2,0-0.5,0-0.7C425.7,48.2,425.9,48.4,426.2,48.6z" />
	<path fill="#1D1817" d="M423.2,62.4c0.3,0.2,0.5,0.5,0.8,0.7C423.7,62.9,423.4,62.6,423.2,62.4z" />
	<path fill="#EECABA" d="M351.9,173c-1.2-0.6-0.3-1.9-1.1-2.8c-4.6,4.9-5.3,12.4-9.5,17.9c-3.8,7.1,0.7,15.4-0.9,23.1   c-1.5,0.5-1.9-0.9-2.8-1.1c-0.5-3.4,0.9-5.9,0.6-9.4c-1.9,2.5-1.9,5.3-2.4,7.9c-1.2-2.4-1.2-5.1-2.7-7.3c-1.5,3.5-3.4,6.8-2.2,10.8   c0.3,0.1,0.7,0.2,1.1,0.3c-1.4,5.5-3,11.3-1.4,16.7c-1.1,0.8-1.1,1.3,0,2.2c-1,1.8-1,3.6,0,5.3c-0.5,0.6-0.9,1-1.5,1.6   c0,12.5-1.6,24.9,0.1,37.4c0.6,0.2,1,0.3,1.5,0.4c-0.8,2.6-0.2,5.5,1.4,7.6c-1.2,1.1-1.2,1.7,0,2.9c0.1,3.5-0.4,7.1,1.6,10.2   c1.1,1.9,1,3.8-0.3,5.7c-1.2-0.4-2.2-0.8-3.3-1.2c-3.6,10.7-0.5,16.9,2,26.9c-2.1,3.3,0.3,8.2-1.5,12c-0.3,1.1,0.1,2.2,1.1,2.9   c0.7-4.8,0.1-10,0.3-14.9c0.8,0.1,2-0.5,2.1,1c-0.4,0-0.9-0.1-1.4-0.1c0,6-0.4,11.6,0.6,17.2c-1.1-0.2-2.3,1.2-3.6-0.2   c0.4-0.4,0.8-0.8,1.4-1.5c-0.9-0.5-1.8-1-2.8-1.6c-1.1-3.9-0.5-7.7,0-12.1c-4.8-9.3-4.4-19.9-2.3-30.1   c0.1-38.2-13.3-84.4,12.8-118.1c1.6,0.4,2-3.1,2.8-4.3c2.2-7.3,5.5-14.3,9.5-20.6c18.3-16.1,8-19.5,21.5-34.1   c7.4-6.7,13.9-14.3,21.6-20.6c0.3,0.1,0.5,0.2,0.8,0.2c-22.2,27.4-22.3,25.2-22.9,60.3c-3.2-3.3-5.5-6.1-7-10.4   c-3.1,2.8-4.2,6.8-7.2,9.4c-0.6,5.3,1,10.5-3,14.8c-1.3-0.7-2.3-1.7-3-3.1c1.6,0.3,1.7-1.1,1.4-2.2c-0.3-1.3,1-3.5-1.2-3.8   c-0.5,1.1-0.8,2.2,0.5,3c0,0.3,0,0.5,0,0.8c0,0,0,0,0,0C352.5,172.5,352.2,172.7,351.9,173z M368.1,143.9c2.2-1.8,1.1-4.7,2.1-7.1   c0.3-2.6,2.6-4.4,2.1-7.1C367.7,132,367,139,368.1,143.9z M351.6,167.3c1.3-1.7,3.8-8.3,2.4-10.1   C351.1,158.6,349.5,164.7,351.6,167.3z M331.4,290.3c-3.8-0.2-2.1,9,0.5,7.2C330.8,293.8,330.8,293.8,331.4,290.3z M369.1,149.2   c1.2-1.8,1.2-1.8,0-3.4C367.5,147.3,367.5,147.3,369.1,149.2z M368.9,154c2,0.1,1.5-3-0.3-1.9C368.7,152.7,368.8,153.3,368.9,154z" />
	<path fill="#211B1D" d="M405.8,96.5c7,5.4,14.2,11.7,19,19.6c-0.3,0.3-0.5,0.5-0.8,0.8c-6-6.8-11.5-14.7-19.9-18.8   C404.7,97.5,405.2,97,405.8,96.5z" />
	<path fill="#211A19" d="M395.1,103.4c-0.3-0.1-0.5-0.2-0.8-0.2c0.5-0.5,1.1-0.9,1.6-1.4c1.8,0.9,3.9,0.6,5.9,0.8   c-0.3,0.3-0.7,0.5-1,0.8C399,103.4,397.1,103.4,395.1,103.4z" />
	<path fill="#322A27" d="M351,158.5c-0.2,0.3-0.4,0.5-0.5,0.8C350.6,159.1,350.8,158.8,351,158.5z" />
	<path fill="#322A27" d="M351.9,157c-0.2,0.3-0.4,0.6-0.6,0.9C351.5,157.6,351.7,157.3,351.9,157z" />
	<path fill="#322A27" d="M352.5,156.3c-0.2,0.2-0.4,0.5-0.5,0.7C352.1,156.7,352.3,156.5,352.5,156.3z" />
	<path fill="#322A27" d="M350.4,159.3c-0.2,0.3-0.4,0.6-0.6,1C350,160,350.2,159.7,350.4,159.3z" />
	<path fill="#2E2725" d="M333.6,346.3c-1-5.6-0.6-11.2-0.6-17.2c0.5,0,1,0.1,1.4,0.1c0,0.2,0,0.4,0.2,0.5c0.4,4.5,0.8,9.1,0.6,13.6   c1,0.6,1.8,1.2,2.8,1.8c-0.7,0.7-1.2,1.3-1.7,1.9C335.4,346.8,334.5,346.6,333.6,346.3z" />
	<path fill="#272120" d="M340.7,335.1c-0.3-2.7-0.2-5.4,1.2-8.3c1.3,3.8-0.1,6.9,0.2,10.6C341.6,336.6,341.1,335.8,340.7,335.1z" />
	<path fill="#C7A79A" d="M345.3,347.5c-1.1,1.4-2.8,1.4-3.8-0.2C344,345.5,344.6,345.6,345.3,347.5z" />
	<path fill="#241F1D" d="M351.1,331.8c-0.2,0.1-0.4,0.2-0.5,0.4c0-1.4,0-2.7-0.7-3.9c0.4-1-0.1-2.5,1.2-2.9   C352.1,327.3,350.9,329.7,351.1,331.8z" />
	<path fill="#241F1D" d="M349,336.6c-0.1-2.1-0.4-4.3,0.6-6.3C349.4,332.3,350.3,334.8,349,336.6z" />
	<path fill="#241F1D" d="M350.3,338.1c-0.1,1.8,0.7,3.9-0.6,5.4C349.9,341.7,349.2,339.6,350.3,338.1z" />
	<path fill="#FBDFD3" d="M424.7,116.1c-3.9-6.3-9.1-11.5-14.5-16.5c7.6-6.3,11.1-16.4,15.5-25c2.1-0.3,3.3,1,4.7,1.6   c1.7,4.7,4,9.3,4.8,14.2c0.7,0.4,1.5,0.7,2.4,1.2c3.2,5.1,7.1,10.3,12.2,13.9c-6.1,13.4-2.7,22.3,5.7,33.5   c-0.1,1.8-0.2,3.7-0.3,5.3c-10.1,4.3-17.1-13.8-23.1-19.9c0.1-0.2,0-0.5-0.1-0.7c0.3-0.3,0.7-0.6,1-0.9c4.6,0.5,7.4,4,11.9,4.2   c-5.3-5.2-11.5-5.4-17.8-7.7C426.4,118.3,425.6,117.2,424.7,116.1z M437.9,106.3c0.5-1.4,0.5-1.4-0.4-2.1   C436.8,105,437.1,105.7,437.9,106.3z M438.2,101.6c0-0.6,0-1.1,0-1.6C436.9,100,436.8,101.3,438.2,101.6z M437.2,94.8   c0.5-0.5,0.6-1-0.2-1.3C436.5,94,436.5,94.5,437.2,94.8z" />
	<path fill="#D7C0B2" d="M473.3,76.2c-0.1-0.5-0.3-0.9-0.5-1.6c-1.5,0-3,0-4.3,0c-0.9-1-1-1.8,0.1-2.3c0,0.6,0.1,1.1,0.2,1.9   c1.7-0.6,2.8-0.9,4.4-1.3C473.7,73.9,474.7,75,473.3,76.2z" />
	<path fill="#130E0D" d="M473.2,72.9c-1.6,0.3-2.7,0.6-4.4,1.3c-0.1-0.8-0.1-1.4-0.2-1.9c1.3-0.3,2.5-0.5,3.8-0.8   C472.7,71.9,472.9,72.4,473.2,72.9z" />
	<path fill="#3B3335" d="M432.1,123.8c0.4,0.7-0.4,1.1-0.7,1.5c-2.1-3.3-5.6-5.1-7.4-8.5c0.3-0.3,0.5-0.5,0.8-0.8   c0.8,1.1,1.7,2.1,2.5,3.2c2,0.6,4,1.3,6,1.9C431.8,121.7,430.1,122.9,432.1,123.8z" />
	<path fill="#3C3837" d="M369.6,448.7c0.2-0.2,0.3-0.5,0.5-0.7C370,448.2,369.8,448.4,369.6,448.7z" />
	<path fill="#0C0B0B" d="M422.3,163.1c-1-0.5-0.4-1.6-0.7-2.4c5.3-18.5,3.7-39-10.5-53c0.2-0.2,0.5-0.5,0.7-0.7   C428.5,120.1,429.7,144.6,422.3,163.1z" />
	<path fill="#393331" d="M414,146.3c1.3-3.9,1.2-7.9,0.5-12c-0.1-0.8-0.1-0.8,0.7-2.2c2.2,5.3,3,11.6-1.1,15.9   C414.1,147.5,414,146.9,414,146.3z" />
	<path fill="#2F2929" d="M411.8,107.1c-0.2,0.2-0.5,0.5-0.7,0.7c-3.4-1.3-6.5-3.4-10.1-4.3c0.3-0.3,0.7-0.5,1-0.8   C405.7,103.1,409,104.4,411.8,107.1z" />
	<path fill="#38302E" d="M330.1,220.7c1.1-3.9,1.2-7.4,3.4-11.1c0.4,5.3-2.1,8.6-2.7,13.5C330.5,222.4,331.1,221.3,330.1,220.7z" />
	<path fill="#2B1E1D" d="M397.3,113.2c3.8-0.1,5.7,0.5,8.2,2.5C403.5,116.5,401.2,115.9,397.3,113.2z" />
	<path fill="#4E443F" d="M335.9,208.6c0.4-2.6,0.5-5.3,2.4-7.9c0.3,3.5-1.1,6-0.6,9.4C336.5,211.6,335.9,209.7,335.9,208.6z" />
	<path fill="#615652" d="M341.8,308.5c1.1,1.3,2.5,4.2,1.1,5.1C341.3,311.1,341.3,310.8,341.8,308.5z" />
	<path fill="#453D3A" d="M353.9,209.2c-1.4-1.7-1.4-2.1-0.4-4.2C354.4,206.7,354.4,206.7,353.9,209.2z" />
	<path fill="#4A4542" d="M337.2,322.5c-0.7-1.1-0.7-2.3-0.1-3.5C339,319.2,338.9,322.9,337.2,322.5z" />
	<path fill="#EECABA" d="M335.2,337.5c-0.2-2.6-0.4-5.2-0.6-7.8C336.1,331.9,334.9,335,335.2,337.5z" />
	<path fill="#231817" d="M344.7,319.6c-0.7-1.3-0.4-2.6-0.3-4.2C346.2,317.8,346.2,318,344.7,319.6z" />
	<path fill="#252221" d="M330.1,220.7c1.5,1.8,0.4,4.5,0.6,6.6C329.2,225.5,330.3,222.9,330.1,220.7z" />
	<path fill="#140A0A" d="M330.8,280.3c-0.3-1.4-0.6-2.8,0-4.2C332.3,276.5,332.4,280,330.8,280.3z" />
	<path fill="#6F6A65" d="M353.3,198.9c0,1.2,0,2.2,0,3.1C352.5,201.4,351.7,199.9,353.3,198.9z" />
	<path fill="#B3A199" d="M337.8,214.6c0-0.8,0-1.4,0-2.2C339.4,213.3,339.4,213.6,337.8,214.6z" />
	<path fill="#A08E87" d="M331.1,243.7c0.9,0.4,1.3,0.9,0.5,2C330.6,245.1,330.3,244.5,331.1,243.7z" />
	<path fill="#93827B" d="M391.1,113c0.8,0.5,1,1,0.2,1.4C390.4,114.3,390.5,113.7,391.1,113z" />
	<path fill="#B6A29A" d="M331.3,272.8c1.2,0.7,0.8,1.7-0.4,1C331,273.6,331.1,273.3,331.3,272.8z" />
	<path fill="#372C2A" d="M332.2,286.5c-1.2-1.2-1.2-1.8,0-2.9C332.2,284.6,332.2,285.6,332.2,286.5z" />
	<path fill="#786560" d="M394.6,113c0.6,0.7,0.7,1.3-0.2,1.5C393.5,114.1,393.8,113.6,394.6,113z" />
	<path fill="#6B5D59" d="M330.7,231.3c-1.1-0.9-1.1-1.4,0-2.2C330.7,229.8,330.7,230.5,330.7,231.3z" />
	<path fill="#C8AB9E" d="M352.8,174.4c-0.3,0-0.5,0-0.8,0c0-0.5-0.1-1-0.1-1.4c0.3-0.3,0.6-0.5,0.8-0.8   C352.7,172.9,352.8,173.7,352.8,174.4z" />
	<path fill="#6B6560" d="M414,146.3c0,0.6,0.1,1.2,0.1,1.8C412.8,149.3,413.5,146.8,414,146.3z" />
	<path fill="#B09790" d="M330.8,240.3c0.1,0.2,0.1,0.5,0.2,0.7c-0.6,0.1-0.9-0.1-1-0.7C330.2,240.3,330.5,240.3,330.8,240.3z" />
	<path fill="#C0A9A1" d="M338.6,217.2c0.4,0.3,0.4,0.5,0,0.8C338.2,217.9,338.5,217.6,338.6,217.2z" />
	<path fill="#EECABA" d="M330.8,240.3c-0.3,0-0.5,0.1-0.8,0.1C330.2,239.7,330.4,239.6,330.8,240.3z" />
	<path fill="#5876E8" d="M416.4,312.3c-0.2,0.3-0.5,0.5-0.8,0.8c-10.8-6-14.2-20.2-13.7-31.8c0.3,0.1,0.5,0.1,0.8,0.2   c1.1,1.6,2.2-0.2,2.7-1.3c1.3,0.2,2.6,0.4,4.1,0.7c0.4,5.8-0.5,18.3,4.4,21.7C414.5,305.8,415.6,309,416.4,312.3z" />
	<path fill="#131629" d="M391.5,348.6c15.6,12.9,32.4,24.6,46.9,38.7l-0.1,0.1c-16.5-11.5-31.8-25.3-47.7-38   C390.9,349.1,391.2,348.9,391.5,348.6z" />
	<path fill="#1E2545" d="M442.8,373.8c1.7,4.3,3.6,8.5,5.6,12.7c-0.1,0.4-0.3,0.9-0.6,1.8c-7.5-16.2-13.5-32.7-21.4-48.1   c0.2-0.3,0.4-0.5,0.6-0.8c1.8,3.3,2.5,2.9,6,4.6c0,0.2,0,0.5,0,0.7c-0.9-0.2-1.9-0.4-3.3-0.6C434.9,353.8,438.4,363.9,442.8,373.8z   " />
	<path fill="#5774E5" d="M422.5,332.6c-4,2-7.4-11.3-9.3-14.9c2.1,1.3,3.2,2.5,5.4,2.9l0,0C420.7,324.3,421,328.7,422.5,332.6z" />
	<path fill="#5674E3" d="M427.1,343.3c3.4,3.5,5.1,8.4,6.8,12.9c-5-0.6-7.3-9.5-9.2-13.6c0.6-0.6,0.6,0.3,1,0.4   C426.2,343.1,426.6,343.2,427.1,343.3z" />
	<path fill="#1A1D37" d="M412.5,359.3c-5.2-3.6-10.5-7.2-15.7-10.8c0.1-0.1,0.1-0.3,0.2-0.4c6,2.1,11.1,6.7,16.3,10.4   C413,358.8,412.8,359.1,412.5,359.3z" />
	<path fill="#171C31" d="M422.5,332.6c-0.8-2.9-1.9-5.8-2.4-8.8c0.2-0.5,0.5-1,0.7-1.6c1.6,4,1.7,8.6,4.6,12.1c0.3,1-0.6,2.3,0.8,3   c0.3,0.7,0.5,1.4,0.8,2.2c-0.2,0.3-0.4,0.5-0.6,0.8C425.1,337.7,423.8,335.2,422.5,332.6z" />
	<path fill="#0F1326" d="M402.7,281.4c-0.3-0.1-0.5-0.1-0.8-0.2c0-0.2-0.1-0.4-0.2-0.6c0.3-0.3,0.6-0.7,0.9-1c-1.8-4-3.9-7.8-5.2-12   c3.4,2.9,7,9,6.4,13.5C403.5,281.3,403.1,281.4,402.7,281.4z" />
	<path fill="#324076" d="M416.4,312.3c-0.8-3.3-1.9-6.5-2.4-9.8c0.3-0.3,0.6-0.6,0.9-0.8c1.6,4.8,2.3,9.9,4.5,14.5   c0,0.3-0.1,0.5-0.1,0.8c-0.3,0.3-0.5,0.6-0.8,0.8C417.2,316.1,417.6,313.9,416.4,312.3z" />
	<path fill="#15172B" d="M396.7,372.9c4.5,1.5,8,4.6,11.3,8C404.2,380.7,398.6,374.5,396.7,372.9z" />
	<path fill="#212950" d="M405.3,327.1c3.8,1.7,5.8,5.4,9.5,7.1c-0.1,0.2-0.3,0.4-0.4,0.7C412.4,334.1,405.1,329.2,405.3,327.1z" />
	<path fill="#222C54" d="M418.5,317.7c0.3-0.3,0.5-0.6,0.8-0.8c0.5,1.8,1,3.5,1.5,5.3c-0.2,0.5-0.5,1-0.7,1.6   c-0.4-1.1-0.7-2.2-1.4-3.1l0,0C418.6,319.7,418.6,318.7,418.5,317.7z" />
	<path fill="#242B53" d="M391.5,348.6c-0.3,0.3-0.6,0.5-0.8,0.8c-1.7-1-3-2.5-4.8-4.4C388.5,345.2,389.5,347.2,391.5,348.6z" />
	<path fill="#1D2446" d="M372.7,274c-0.4-1.4-0.8-2.7,0.8-3.8C374.5,271.8,373.5,272.9,372.7,274z" />
	<path fill="#30407A" d="M412.5,359.3c0.2-0.3,0.5-0.5,0.7-0.8c1.3,0.5,2.1,1.5,2.6,2.8C414.6,360.9,413.4,360.4,412.5,359.3z" />
	<path fill="#293669" d="M385.4,268.3c-0.5,1.6-0.8,2.5-1.3,3.9C383.6,269.3,383.6,269.3,385.4,268.3z" />
	<path fill="#131629" d="M438.4,387.3c0.2,0.1,0.4,0.2,0.6,0.3c-0.1,0.1-0.2,0.2-0.3,0.3C438.5,387.7,438.4,387.5,438.4,387.3   L438.4,387.3z" />
	<path fill="#4B65C5" d="M442.8,373.8c-2-4.8-4.3-9.5-5.9-14.5c2.1,1.6,4.3,2.8,6.8,3.6c-0.2,0.2-0.3,0.5-0.5,0.6   c4.7,3.7,10.1,7,13.2,12.4c-4,2.2-8.8-0.7-12.5-2.4C443.4,373.2,443,373.2,442.8,373.8z" />
	<path fill="#4B65C5" d="M414.9,301.6c-0.3,0.3-0.6,0.6-0.9,0.8c-6.6-5.2-1.4-22.8-2.8-31.9c1.3,1.1,0.3,2.6,1,4.1   c2,0.7,4,2.3,6.7,2c-0.1,0.2-0.1,0.4-0.1,0.7c-0.7,0.1-1.8-0.2-1,1.5c0.4-0.6,0.7-1.1,1-1.5c2.6,0.1,5.2-0.3,7.7,0.7   c-1.9,0-3.8,0-6.2,0c2.4,2.9,5.9,3.4,7.4,6.9c-5.4-0.7-10.3-2.5-15.6-3.4C412.3,288.4,410.1,296.1,414.9,301.6z" />
	<path fill="#4B65C5" d="M420.8,322.2c-0.4-2-1.5-4-1.4-6.1c7.3,4.7,15.1,9.3,21,15.7c-6.7,1.3-13.1-8.2-18.8-7.3   C421.4,323.7,421.1,323,420.8,322.2z" />
	<path fill="#4A65C5" d="M430.6,345.6c-0.2-0.4-0.4-0.7-0.9-1.5c6,1.4,11.8,2.3,17.8,3.7c-0.6,0.1-1.2,0.1-2.3,0.2   c4.1,3,7.9,5.7,11.9,8.6C447.8,354.6,439.3,349.8,430.6,345.6z" />
	<path fill="#4A65C5" d="M443,284.2c-1,1.8,2.5,4.2,2.1,6.8c-4-1.3-6.7-5.2-10.3-7.5c-2.2-2.2-5.6-2.3-7.1-5.1   C433.2,278.7,438.8,280.5,443,284.2z" />
	<path fill="#0A0A13" d="M439.6,318.1c5.5-3.8,18-0.2,21.6,5.1C453.8,322.3,447.3,317.7,439.6,318.1z" />
	<path fill="#4B63C2" d="M427,339.5c-0.6-1.1-1.6-4.9,0.7-3c2.7,3.9,8.4,4.7,11.4,8.4C434.5,344.2,429.2,344.1,427,339.5z" />
	<path fill="#18172A" d="M443,284.2c-6.6-5.8-16-6.5-24.4-6.8l0,0c0-0.2,0-0.5,0.1-0.7c9.1-0.4,25.1,0.2,27.6,10.8   C445.1,286.2,444,285.2,443,284.2z" />
	<path fill="#2E3663" d="M427.7,336.5c-1.3-0.8-1.3-0.8-1.5,0.8c-1.4-0.7-0.5-2-0.8-3c10.2,3.4,20.2,8.2,30.3,11.2   c0,0.2,0,0.5,0,0.7C446,344.3,437.1,339.6,427.7,336.5z" />
	<path fill="#303763" d="M445.9,365.2c-0.9-0.5-1.7-1.1-2.7-1.7c0.1-0.2,0.3-0.4,0.5-0.6c6.7,3,13.2,4.2,19.1,9.1   C456.9,370.5,452,366.5,445.9,365.2z" />
	<path fill="#4362C0" d="M399.7,266.1c-0.5-0.8-1-1.6-1.7-2.8c4.1-0.4,7.8-0.3,11.5-0.2c0,0.5-0.1,1-0.1,1.5c-1.9,0-3.3-1.3-5.3-0.8   c-1.5,0.5-0.2,2.3-1.6,3.1C401.7,266.7,400.7,266.4,399.7,266.1z" />
	<path fill="#2A2E53" d="M435.2,344.3c7.1,1.1,14,3,21.2,3.7c-0.2,0.2-0.5,0.5-0.7,0.7c-7.1-0.9-14.6-1.5-21.3-3.8   C434.7,344.7,435,344.5,435.2,344.3z" />
	<path fill="#0F1427" d="M411.1,270.6c-0.6,7.1,1.1,15.3-0.7,21.8c-0.9-7.7,1-15.8-1.1-23.2c0.4,0,0.8,0,1.2,0   c0.2,0.2,0.3,0.5,0.5,0.7C411,270.2,411,270.4,411.1,270.6z" />
	<path fill="#4B63C1" d="M437.6,279c-3-0.8-6.1-1.5-9.1-2.3C430.6,273.1,435.9,276.3,437.6,279z" />
	<path fill="#33417F" d="M409.7,267.6c1.1,0,2.2,0,3.3,0c0.2-1.1,0.4-1.9,0.6-2.8c1.8,0,0.8,2.4,2.7,2.3c-0.6,0.7-1,1.2-1.4,1.6   c-1.1,0.1-2.1,0.2-3.2,0.3c-0.7-0.6-1.5-0.9-2.3-1.3L409.7,267.6z" />
	<path fill="#2E3259" d="M458,345.8c3.7,1,7.5,1.5,11.9,3.4c-4.3,0.1-8.2-0.9-11.9-2.7C458,346.3,458,346,458,345.8z" />
	<path fill="#485AAA" d="M449.3,305.4c-3.6,0.1-6.2-0.9-9.4-1.7C443.2,302.9,446.1,303.8,449.3,305.4z" />
	<path fill="#252D59" d="M408,264.6c0.5,0,1,0,1.4,0c0.1,1,0.1,1.9,0.2,2.9c-1.7,0.7-3.8,2.5-5.5,0.9c1.2-0.7,2.4-0.9,3.8-1   C407.9,266.4,408,265.5,408,264.6z" />
	<path fill="#4558A5" d="M455.7,348.7c0.2-0.2,0.5-0.5,0.7-0.7c1.9,0.5,3.9,0.6,6.1,1.9C460.2,350.3,457.6,349.9,455.7,348.7z" />
	<path fill="#1B1B2F" d="M451.9,313c1.5-1.3,2.8-2,4.4-1.8C455.3,312.6,454.1,313.4,451.9,313z" />
	<path fill="#0E1322" d="M406.5,269c0.9-0.4,1.9-0.9,2.8-1.3c0.8,0.4,1.6,0.7,2.3,1.3c-0.2,0-0.4,0.1-0.6,0.3   C409.6,269.2,408.1,269.2,406.5,269z" />
	<path fill="#151B34" d="M418.4,265.5c0.2,1.2,0.3,2.2,0.5,3.4c-1.4-0.2-1.1-1.2-1.4-1.9C417.4,266.6,417.5,266.6,418.4,265.5z" />
	<path fill="#2A2741" d="M458,345.8c0,0.2,0,0.4,0,0.6c-0.7-0.1-1.5-0.1-2.2-0.2c0-0.2,0-0.5,0-0.7   C456.5,345.6,457.3,345.7,458,345.8z" />
	<path fill="#4963C1" d="M410.5,269.2c0.2,0,0.4,0,0.6,0.1c0,0.2,0,0.4-0.1,0.7C410.8,269.7,410.7,269.5,410.5,269.2z" />
	<path fill="#0C0B0D" d="M444.3,186.6c0.1-0.5,0.2-0.9,0.3-1.4c8.2-1.5,9.1-12.6,8.9-19.4C460.2,168.2,452.9,190.1,444.3,186.6z" />
	<path fill="#252326" d="M436.7,208.2c0.7-4.1,4.7-6.7,6.9-10.2C446.1,200.2,438.9,206.5,436.7,208.2z" />
	<path fill="#0A0708" d="M419.4,179.7c0.3-3.4,4.7-1.7,5.4,1c-0.3,0.4-0.7,0.8-1.1,1.2C422.1,181.7,420.7,180.9,419.4,179.7z" />
	<path fill="#38353B" d="M408.2,195.6c-0.1-0.8-0.1-1.7-0.3-3c1.4,1.2,4.4,4.5,3.2,6.1C409.8,198,409.2,196.6,408.2,195.6z" />
	<path fill="#2D2F34" d="M432.2,216.1c0.1,1.9-1.9,3.1-3.5,3.8C428.6,217.6,428.7,217.4,432.2,216.1L432.2,216.1z" />
	<path fill="#393438" d="M432.3,216.2c-1.5-2.4,1.5-4.3,3.4-5.7C435.2,212.5,434.5,213.5,432.3,216.2L432.3,216.2z" />
	<path fill="#201012" d="M425.7,182c-0.1-2,3.5-2.2,3.9-0.2C428.3,182.7,427,182,425.7,182L425.7,182z" />
	<path fill="#484248" d="M418,236.6c-0.1,0.5-0.1,1-0.2,1.5c-0.5-0.3-1-0.5-1.4-0.7c0-0.6,0.1-1.2,0.1-2.4   C417.2,235.8,417.6,236.2,418,236.6z" />
	<path fill="#9DA1B2" d="M415.5,202.6c-0.5-1-0.5-1.2,0.4-1.4C416.4,201.7,416,202.1,415.5,202.6z" />
	<path fill="#696B77" d="M412.4,199.5c0.5-1.4,1.4-0.1,1.6,0.7C413.4,200.3,412.8,200.1,412.4,199.5z" />
	<path fill="#B7BDD5" d="M410.3,198.1c0.3,0.2,0.6,0.3,0.9,0.5C410.9,198.4,410.6,198.3,410.3,198.1z" />
	<path fill="#EECABA" d="M495.4,416.8c-0.8,0-1.7,0-2.9,0c-2.7-3.1-7.4-6.2-7.1-10.9c0.7-0.7,1.5-1.6,2.4-2.6   C494.6,402.3,502.3,412,495.4,416.8z" />
	<path fill="#201A18" d="M482.5,433c5.2-0.4,8,6.2,8.7,9.7C487.9,439.9,485.6,436.5,482.5,433z" />
	<path fill="#27211F" d="M533.1,538.8c-0.1,1.5,0.6,3-0.5,4.4c-0.3-0.2-0.9-0.3-0.9-0.5c-0.1-3.6-2.8-6.5-3.1-9.9   C531.3,533.6,531.9,536.6,533.1,538.8z" />
	<path fill="#2A2624" d="M495.3,419c1.8,2.1,4.7,1.9,4.2,5.5c-2.2-1.1-3.5-3-5.2-4.6C494.6,419.6,495,419.3,495.3,419z" />
	<path fill="#4F3E3B" d="M486.8,416.5c-2-1-3.1-1.6-3-3.5C485.6,413.3,486.1,414.4,486.8,416.5z" />
	<path fill="#403633" d="M491,445.5c2.8,1,2.8,1,2.4,3C492,448.2,491.9,447,491,445.5z" />
	<path fill="#453836" d="M496.2,453.3c-1.3-0.2-1.7-1-1.9-2.2C496.5,451.4,496.5,451.4,496.2,453.3z" />
	<path fill="#735A56" d="M489,416.1c1,0.4,1.7,1,2.3,1.8C490.7,418.8,488.1,416.9,489,416.1z" />
	<path fill="#262826" d="M527.7,531.9c-1.2-0.6-2.2-2.1,0.1-2.2C527.7,530.4,527.7,531.1,527.7,531.9z" />
	<path fill="#6F6560" d="M489.3,396.5c1,1.2,0.6,2.2,0.3,3.4C488.6,398.7,489,397.7,489.3,396.5z" />
	<path fill="#72625D" d="M497.4,456.5c1.5,0.2,1.5,0.2,1.4,1.7C497.6,458.2,497.8,457.2,497.4,456.5z" />
	<path fill="#735450" d="M495.3,419c-0.3,0.3-0.7,0.6-1,1c-0.4-0.4-0.8-0.7-1.2-1.1C494.1,418,494.7,418.2,495.3,419z" />
	<path fill="#3E302E" d="M500.5,461c0.7-0.3,1-0.5,1.5,0.2C501.3,461.5,501,461.8,500.5,461z" />
	<path fill="#EDCABA" d="M374.8,426c-0.3,0.6-0.6,1.2-1.4,2.6c2-1.1,3.2-1.8,4.4-2.4c0.5,0.9,0.9,1.8,1.5,2.8   c-1.8,3.3-2.7,11.7-8.1,10.3C370.7,435.8,370.2,426.4,374.8,426z" />
	<path fill="#322C2A" d="M354.1,445.4c1.5-6,2-11.2,2.6-17.6c3,6.4-0.8,13.5-1.9,20C353.8,447.3,354.4,446.2,354.1,445.4z" />
	<path fill="#342E2C" d="M350.8,457.4c0.2-2,0.3-3.9,1.4-5.8C353.1,454,352.8,455.2,350.8,457.4z" />
	<path fill="#2E2523" d="M358.1,416.9c1.9-0.2,1.8,3.4,0,3C358,418.9,358,417.9,358.1,416.9z" />
	<path fill="#7F6E68" d="M365.8,443.8c-0.2,1.6-0.3,2.4-0.4,3.3C363.7,446.2,363.7,446.2,365.8,443.8z" />
	<path fill="#2E1C1B" d="M346.6,470.3c0,1.3,0,2,0,2.9C344.7,472.2,344.7,472.1,346.6,470.3z" />
	<path fill="#454542" d="M354.1,445.4c0.3,0.8-0.3,1.9,0.7,2.4c0,0.7-0.3,1.2-1.2,1.3C353.2,447.8,353.5,446.6,354.1,445.4z" />
	<path fill="#544D4A" d="M348.4,467.5c-0.9-1.4,0.1-2.2,0.8-3.2C349.6,465.5,349.6,465.5,348.4,467.5z" />
	<path fill="#6E5853" d="M365,452.4c-0.3,0.3-0.5,0.6-0.8,0.9c-0.2-0.6,0-1.4-0.9-1.6c0-0.9,0.2-1.4,1.4-1.5   C364.8,451,364.9,451.7,365,452.4z" />
	<path fill="#7A716C" d="M367.1,437.7c-0.3,0.8-0.6,1.6-1.1,2.7c-0.7-1.4-0.6-2.2,0-3.1C366.3,437.4,366.6,437.5,367.1,437.7z" />
	<path fill="#9B8077" d="M318.6,520.6c-0.4-0.1-0.9-0.2-1.6-0.3c0.5-0.7,0.8-1.2,1.2-2c0.3,0.8,0.4,1.2,0.6,1.7   C318.7,520.1,318.6,520.4,318.6,520.6z" />
	<path fill="#171110" d="M565.5,191.9c0.3,0.3,0.7,0.7,1,1c-1,1.7-2,3.4-3.1,5.1c-1.4,0.6-2.3,1.5-4,0.7   C561.7,196.2,563.9,194.7,565.5,191.9z" />
	<path fill="#3A2625" d="M545.9,201.8c1.6-1.5,4.7-3.1,6.9-2.3C550.7,201.4,548.6,202.5,545.9,201.8   C545.9,201.7,545.9,201.8,545.9,201.8z" />
	<path fill="#622624" d="M573.1,195.7c0.2,0.4,0.1,0.9,0.1,1.3c-1.8,0.4-3.4,0.4-4.6-1.3C570.4,195.7,571.7,195.7,573.1,195.7z" />
	<path fill="#6A5753" d="M545.9,201.7c-1.3,1.7-1.3,1.7-3.1,1C543.5,201.1,544.9,202,545.9,201.7L545.9,201.7z" />
	<path fill="#2E1A18" d="M464.8,209.3c-0.2-0.4-0.4-0.8-0.7-1.2c1.4-0.9,2.3,0.4,3.4,0.6C467,210.1,465.8,209.3,464.8,209.3z" />
	<path fill="#937973" d="M534.8,205.3c0.6-1.1,1.3-1.4,2.5-1C536.7,205.5,536,206,534.8,205.3z" />
	<path fill="#755C57" d="M541.9,202.8c-0.8,1-1.4,1.8-2.6,1C539.8,202.8,540.5,202.2,541.9,202.8z" />
	<path fill="#211E22" d="M402.7,206.3c2.1,0.8,2.7,3.1,3.9,4.7C404.4,212.9,402.5,208.1,402.7,206.3   C402.7,206.3,402.7,206.3,402.7,206.3z" />
	<path fill="#3A383F" d="M402.7,206.3c-1.3-0.4-1.8-1.4-1.8-3.1C402.4,203.8,403.1,204.8,402.7,206.3L402.7,206.3z" />
	<path fill="#2D3C71" d="M379.3,381.3c-2.8,4.9-4.3,10.3-6.5,15.5c0.2-5.8,3-11.5,5.7-16.3C378.8,380.8,379,381.1,379.3,381.3z" />
	<path fill="#1B1F3B" d="M379.3,381.3c-0.3-0.3-0.5-0.5-0.8-0.8c2.8-0.8,5.5-1.9,8.4-2.5c0,0-0.1,0.3-0.1,0.3c0,0.2,0,0.5,0.1,0.7   C384.6,380.6,381.9,380.8,379.3,381.3z" />
	<path fill="#5572E0" d="M386.9,378.1c-0.5,0.1-0.9,0.2-1.4,0.3c-1.4-1.2-0.9-3.4-1.2-5.2c1,1.3,2,2.5,3,3.8   C387.1,377.4,387,377.7,386.9,378.1z" />
	<path fill="#29325D" d="M373.2,371.4c-0.1,0.7,0,1.3,0.8,1.6c-0.8,0.9-1.7,0.8-2.7,0.4c0.2-0.3,0.4-0.6,0.8-1.1   c-1.5-0.4-3-0.9-4.7-1.4C369.6,370,371.3,371.1,373.2,371.4z" />
	<path fill="#1C182F" d="M389.1,378.8c-0.5,0-1,0.1-1.5,0.1c0-0.2,0-0.5,0-0.7c0.9-0.5,1.7-1.2,2.8-0.6   C389.9,378.1,389.5,378.5,389.1,378.8z" />
	<path fill="#1C172C" d="M387.6,378.2c0,0.2,0,0.5,0,0.7c-0.2,0.1-0.5,0.2-0.7,0.1c0-0.2,0-0.5-0.1-0.7   C387,378.3,387.3,378.3,387.6,378.2z" />
	<path fill="#C0AAA1" d="M358.8,321.4c-0.6-0.3-0.8-0.9-0.7-1.5C358.7,320.2,358.9,320.7,358.8,321.4z" />
	<path fill="#3D312E" d="M456.2,405.5c3.3,1,4.4,2.3,4.5,5.2C458.9,409.4,457.5,407.9,456.2,405.5z" />
	<path fill="#2E2522" d="M524.6,522.2c0,0.7,0.1,1.3,0.2,2.9c-0.8-1.3-1.2-1.8-1.7-2.6C523.8,522.3,524.2,522.3,524.6,522.2   L524.6,522.2z" />
	<path fill="#1E1816" d="M522.2,520.2c-0.5-0.3-0.5-0.6-0.2-1C522.6,519.4,522.5,519.7,522.2,520.2z" />
	<path fill="#FBDFD3" d="M515.6,513.8c0.5,0.2,0.8,0.5,0.3,1.5C515.8,514.6,515.7,514.2,515.6,513.8L515.6,513.8z" />
	<path fill="#312926" d="M307.6,545.5c0.9-3.9,1.9-7.5,3.7-11.1C312.3,535.6,310.8,544,307.6,545.5z" />
	<path fill="#584540" d="M313.2,531.8c-1.7-1.2-1.1-2.2,0-3.5C313.2,529.7,313.2,530.7,313.2,531.8z" />
	<path fill="#A7877D" d="M315,523.3c1.8,1.4,0.7,1.7,0,2.2C315,524.9,315,524.4,315,523.3z" />
	<path fill="#371D1B" d="M473.2,207.9c-0.6,0-1.2-0.1-2.5-0.2c1.1-0.7,1.6-1.1,2.5-1.7C473.2,206.9,473.2,207.3,473.2,207.9   L473.2,207.9z" />
	<path fill="#3A211E" d="M410.9,151.1c-0.3,1.1-1.4,2.4-2.5,1.3C408.7,150.9,409.8,150.9,410.9,151.1L410.9,151.1z" />
	<path fill="#2D1B19" d="M406.7,154.4c-0.4,0.4-0.8,0.8-1.3,1.2c-0.8-1.4,0.1-1.5,0.7-1.8C406.3,154.1,406.5,154.2,406.7,154.4z" />
	<path fill="#7E6961" d="M576.5,188.1c0.2,1.5-1.4,2-1.6,0.8C575.1,187.7,575.9,188.3,576.5,188.1z" />
	<path fill="#280808" d="M573.1,197c0.1-0.2,0.1-0.5,0-0.7c0.9,0,1.8,0,3.2,0C575.2,197.9,574.1,197.4,573.1,197z" />
	<path fill="#C3AB9F" d="M582.2,193.5c0.3,0.2,0.5,0.4,0.8,0.7C582.8,193.9,582.5,193.7,582.2,193.5z" />
	<path fill="#797A89" d="M433.5,183.3c-0.9-0.5,0.1-1.5,0.6-0.8C434,182.7,433.8,183,433.5,183.3z" />
	<path fill="#4760BB" d="M397.5,267.6c1.3,4.2,3.4,8,5.2,12c-4-2.4-8.1-6.4-8.3-11.3c0.8-0.8,1.7-1.3,2.9-1.4   C397.3,267.2,397.4,267.4,397.5,267.6z" />
	<path fill="#15162C" d="M397.5,267.6c-0.1-0.2-0.1-0.5-0.2-0.7c0.8-0.3,1.9,0.3,2.4-0.8c1,0.3,2,0.5,2.9,0.8   c1.4-0.7,0.1-2.6,1.6-3.1c0.2,1.5,0,2.9,1.5,3.9c-2.1,2-5.2-1.6-6.9,0.6C398.3,268.1,397.9,267.9,397.5,267.6z" />
	<path fill="#212125" d="M423.6,259.2c-1.7-3.1-1.9-6.3-2.8-9.7C423.7,252.3,424.8,255.6,423.6,259.2z" />
	<path fill="#3C3940" d="M418.7,246.2c0-0.8-0.1-1.6-0.1-2.8c1.2,1.1,1.1,2,1.1,2.8C419.3,246.2,419,246.2,418.7,246.2z" />
	<path fill="#DCBFB0" d="M583.8,189.6c-0.1-0.7,0.2-1.2,0.8-1.4C584.6,188.8,584.5,189.4,583.8,189.6z" />
	<path fill="#DCBFB0" d="M588.3,189.6c-0.3,0.7-0.9,0.8-1.5,0.7C587.1,189.6,587.7,189.6,588.3,189.6z" />
	<path fill="#DCBFB0" d="M586.3,190.5c-0.3,0.2-0.7,0.4-1,0.6C585.6,190.9,586,190.7,586.3,190.5z" />
	<path fill="#DCBFB0" d="M584.6,188.1c0.2-0.3,0.4-0.6,0.6-0.9C585,187.6,584.8,187.8,584.6,188.1z" />
	<path fill="#DCBFB0" d="M583.7,191.2c-0.6-0.3-0.4-0.7,0-1C583.7,190.5,583.7,190.9,583.7,191.2z" />
	<path fill="#DCBFB0" d="M584.8,191.3c-0.4,0.5-0.8,1-1.1-0.1C584.1,191.2,584.5,191.2,584.8,191.3z" />
	<path fill="#292321" d="M422.4,60.1c-0.9-1.3-3-2.6-2.1-4.4c3.1-1.4,2.3-5.7,5.2-7c2,2,4,4.1,6,6.1c-0.7,0.2-1.3,0.3-2.2,0.5   c-1.5,2.2-0.3,2.9,1.8,3.4c3.8,2.8-1.4,4.3-3.9,3.6c-0.7-3-0.5-5.8,0.8-8.6c-0.8-0.9-1.5-1.6-2.3-2.5c-0.5,1.1-0.9,2-1.2,2.7   c0.8,2.1,2.2,3.9,1.3,6.2c-0.4,0-0.8-0.1-1.2-0.1c0.3-1.6-0.4-2.9-1.3-4.4c-0.6,0.4-1,0.7-1.6,1.2c0.5,1,1,1.8,1.5,2.8   C423,59.7,422.7,59.9,422.4,60.1z" />
	<path fill="#100B0B" d="M471.3,42.4c-0.5,0.9-0.9,1.5-1.3,2.3c-3.8-0.3-7.9-2.6-11.4-0.4c-1.2,0.8-2.4,0.5-4,0.5   C457.7,39.3,466.4,40.1,471.3,42.4z" />
	<path fill="#372E2C" d="M432.3,69.1c0.3-0.5,0.6-1.1,0.8-1.6c0.5,0.1,1,0.2,1.6,0.4c1.7,3.2,1.3,7.1,4.9,8.9   c0.1,0.4,0.2,0.7,0.3,1.1c-2.5,1.1-6.9-4.7-6.6-7.1C433.3,70.3,433.3,69.3,432.3,69.1z" />
	<path fill="#211A18" d="M460.1,49c2.3-2.2,5-2.8,8.1-2.9c-0.1,1.1-0.1,2.1-0.2,3.1c-1.2,0.9-2.4,1.6-3.8,0.8   C462.7,49.1,460.7,51.2,460.1,49z" />
	<path fill="#E6CFC4" d="M424.7,60c0.4,0,0.7,0.1,1.2,0.1c0.9-2.3-0.6-4.1-1.3-6.2c0.3-0.7,0.7-1.6,1.2-2.7c0.8,0.9,1.5,1.6,2.3,2.5   c-1.3,2.8-1.5,5.7-0.8,8.6C426,61.9,425.3,61,424.7,60z" />
	<path fill="#473A37" d="M448.6,65.2c-1.3,0.9-2,0.1-2.5-1.1C447.4,63.2,448,64.1,448.6,65.2z" />
	<path fill="#322B29" d="M445.2,62.9c-1.5,0.4-2.1-0.3-2.8-1.1c0.2-0.3,0.4-0.5,0.8-1C443.9,61.5,444.5,62.1,445.2,62.9z" />
	<path fill="#4A403C" d="M435.3,90.5c-1-3.7-1.1-6.9-1.5-10.9c3.5,1.9,1.9,7,3,10.6C436.2,90.3,435.7,90.4,435.3,90.5z" />
	<path fill="#503F3B" d="M416.5,86.6c0.2-1.4,0.2-1.4,1.8-1.3C417.8,86.1,417.5,86.6,416.5,86.6z" />
	<path fill="#392F2C" d="M413.5,90.2c-0.6-1.3,0.1-1.7,1-2C415.3,89.5,414.5,89.8,413.5,90.2z" />
	<path fill="#1F1A18" d="M368.1,143.9c-1.1-4.9-0.4-11.8,4.2-14.1c0.4,2.6-1.8,4.5-2.1,7.1C369.2,139.1,370.3,142.1,368.1,143.9z" />
	<path fill="#322A27" d="M351.6,167.3c-2.1-2.6-0.5-8.7,2.4-10.1C355.4,159,352.8,165.6,351.6,167.3z" />
	<path fill="#FBDFD3" d="M332.3,328.2c-0.2,4.9,0.3,10.1-0.3,14.9c-1-0.7-1.4-1.8-1.1-2.9C332.6,336.5,330.2,331.5,332.3,328.2   L332.3,328.2z" />
	<path fill="#241E1C" d="M331.4,290.3c-0.6,3.5-0.6,3.5,0.5,7.2C329.2,299.3,327.6,290.1,331.4,290.3z" />
	<path fill="#181413" d="M369.1,149.2c-1.6-1.9-1.6-1.9,0-3.4C370.3,147.4,370.3,147.4,369.1,149.2z" />
	<path fill="#705F57" d="M352.7,171.5c-1.2-0.8-0.9-1.8-0.5-3c1.6,0.1,1.1,1.3,1.2,2.1C353.2,170.9,353,171.2,352.7,171.5z" />
	<path fill="#3F302D" d="M368.9,154c-0.1-0.7-0.2-1.3-0.3-1.9C370.4,151,370.9,154,368.9,154z" />
	<path fill="#604F4A" d="M352.8,174.4c0-0.7,0-1.5,0-2.2l0,0c0.2,0,0.5,0,0.7,0.1C353.4,173.1,354,174,352.8,174.4z" />
	<path fill="#C8AB9E" d="M353.4,172.3c-0.2,0-0.5-0.1-0.7-0.1c0-0.3,0-0.5,0-0.8c0.2-0.3,0.5-0.5,0.7-0.8   C353.4,171.2,353.4,171.7,353.4,172.3z" />
	<path fill="#231B1A" d="M431.5,122c0.6-0.3,1.2-0.5,1.7-0.8c4.2,0.9,8.2,2.4,11.8,5.8c-1.9,0.5-2.5-0.5-3.3-0.8   C438.6,124.3,434.8,123.8,431.5,122z" />
	<path fill="#241B1A" d="M437.9,106.3c-0.9-0.6-1.2-1.2-0.4-2.1C438.4,104.8,438.4,104.8,437.9,106.3z" />
	<path fill="#B2AEA5" d="M431.5,122c0.5,0.3,1.1,0.6,1.6,0.9c-0.3,0.3-0.7,0.6-1,0.9C431.6,123.3,430.5,123,431.5,122z" />
	<path fill="#60514D" d="M438.2,101.6c-1.4-0.3-1.3-1.6,0-1.6C438.2,100.6,438.2,101,438.2,101.6z" />
	<path fill="#2D2524" d="M437.2,94.8c-0.8-0.3-0.7-0.8-0.2-1.3C437.8,93.9,437.7,94.3,437.2,94.8z" />
	<path fill="#4963C1" d="M409.6,270.5c1.5,6,0.2,12.8,0.6,19.1c-1.6-2.4-0.2-5.8-0.7-8.8c-1.5-0.2-2.8-0.4-4.1-0.7   c-0.5,1.1-1.5,2.9-2.7,1.3c0.4-0.1,0.7-0.2,1.1-0.2c1.2-3.1-1.9-6.1-2.7-9c2.6,1.2,5.3,0.6,8.1,1.5   C409.4,272.5,409.5,271.5,409.6,270.5z" />
	<path fill="#1E1E38" d="M435.2,344.3c-0.3,0.2-0.5,0.4-0.8,0.6c-0.5,0-1-0.1-1.4-0.1c0-0.2,0-0.5,0-0.7   C433.8,344.2,434.5,344.2,435.2,344.3z" />
	<path fill="#4B65C5" d="M418.7,320.6c0.2,0.3,0.3,0.5,0.5,0.8C419,321.2,418.8,320.9,418.7,320.6z" />
	<path fill="#5472E0" d="M409.6,270.5c-0.1,1-0.2,1.9-0.3,3.1c-4.5-0.8-8.8-0.2-10.5-5.3c1.2-1.8,3.7,0,5.3,0.1   c1.4,1.2,3.5,0.3,5.2,0.8C409.4,269.7,409.5,270.1,409.6,270.5z" />
	<path fill="#262E56" d="M418.6,277.4c-0.3,0.5-0.6,0.9-1,1.5C416.9,277.3,417.9,277.6,418.6,277.4L418.6,277.4z" />
	<path fill="#5775E6" d="M405.7,267.8c-0.3-0.3-0.5-0.5-0.8-0.8c0-0.8,0.4-1.7-0.5-2.4c-0.1-0.2-0.1-0.5-0.2-0.7   c1.4-0.1,2.7-0.2,3.9,0.8c-0.1,0.9-0.1,1.7-0.2,2.8C407.1,267.6,406.4,267.7,405.7,267.8z" />
	<path fill="#4362C0" d="M404.4,264.6c0.9,0.6,0.6,1.5,0.5,2.4C404.1,266.3,404.3,265.4,404.4,264.6z" />
</g>
</svg>