<?xml version='1.0' encoding='utf-8'?>
<svg xmlns="http://www.w3.org/2000/svg" version="1.2" baseProfile="tiny" id="Layer_2_00000062890689382998280110000009826254139493339797_" x="0px" y="0px" viewBox="0 0 900 600" overflow="visible" xml:space="preserve">
<g>
	<path d="M356.8,553.9c4.7-1.8,10.4-3,13.2-7.6c-0.8-0.8-1.5,0.4-2.6,0.5c9.5-22.4,26.2-40.9,44.9-55.7c3.5-3.7,5.9-8.3,11.5-8.3   c-0.2-5.7,1.6-11.6,6.8-14.7c-1.2-2.1,0.4-3.6,2.4-4.3c-1.3-11.1-1.7-26.3,6.5-34.6c8.1-6.4,15.7-15.1,25.8-18   c1.9-4.5,5.1-7.6,9.7-9.5c3-51.1-53.1-77-43.8-128.4c-6.1-17.8-3.1-42.8,11.1-55.7c0.1,0.7,0.1,1.3,0.2,2l0,0   c-8.4,15.7-15.3,35.9-9.6,54c-3.3,8.4,1.7,28.2,5.1,37.2c4.2,16.9,21.4,26.5,38.2,24.6c7.5-3.6,16.7-4.5,23.5-9.9   c9.3-9.7,21-20.7,17.8-35.4c-1.4-1-3.5-1.1-4.2-3.5c1.4,0.3,2.5,0.6,3.6,0.8c-1.3-15.1-10.8-30.8-20.9-41.9   c-1.1,6.3-2,12.5-2.3,18.5c4.4,4.2,12.2,12.5,12.6,18.1c-25.6-9.4-9-42.2-9.6-61.9c5.9-29.4-6-57.9-1-87.2   c8.4-35.3-8.3-71-4.8-105.9c0.5,1.6,0.9,2.7,1.3,3.8c2.3-0.3,4.6-0.4,5.7-3.1c-1.7-0.1-4.3,1.3-4.7-1.1c1.2-2.4,4.2-2.2,5.6-3.7   c1.3-2.7-0.8-5.5,1-8.2c0.7,0.3,1.3,0.5,1.9,0.8c0,1.5,0,3.8,0,4.9c0.7,0.8,1,1.3,1.4,1.7c-1.7,5.3-3.4,12.9-10.9,10.5   c0.7,32.3,14.1,63.3,7.9,95.8c2.6,2.8,7.2-3.9,9,0.5c-0.5,0.7-1.1,1.6-2,2.9c4.2-0.8,6.9,0.5,10.9,0c0.3,0.7,0.5,1.3,0.8,2   c0.7-0.2,1.4-0.4,2.1-0.6c2.3,0.9,1.7,3.2,2.2,5.3c2.1-1.3,2.7-3.9,4.8-5c1.5,0.3,1.3,1.4,1.5,2.4c1.1,0.5,2.2,0.9,3.2,1.3   c0.1,1.9-2.1,1.7-2.4,3.3c2.3,0.5,4.1-1.2,6.7-0.9c0.6,0.5,1.5,1.3,2.5,2.3c-0.5,1.9-1,3.8-1.6,5.8c0.3,0.3,0.6,0.7,1,1.2   c0,1.4-1.5,1.4-2.2,2.3c0.3,0.5,0.5,1,0.9,1.6c-4.4,1.9-9,2.8-13.9,3.5c-0.9,6.3,7.7,21-0.2,23.5c0.6,7,12.1,19.6,2.1,23.1   c-1.3,4,2.3,5.1-3.1,7.6c3.2,3.6,0.3,7.6-1.7,10.7c3.5,5.5-0.7,11.4-6,13.5c-6.2,0.5-11.6-3.4-16.7,1.2c-0.1,0.7-0.2,1.6-0.3,2.4   c11.6,11.9,28.2,16.2,40.2,27.5c9.8,11.3,15.8,27.8,11.8,42.9c3.5,9.8,9.5,19.2,11.2,29.8c-1.1,18-0.1,36.2-2.7,54.3   c31.2-17.2,70.2-32.7,105.5-21.5c1-0.4,1.8-0.8,3-1.3c3.1,1.1,6.4,2.3,8.9,5c-0.2,1.1-0.3,1.7-0.8,2.5   c25.3,46.9,7.8,102.1,30.4,149.4c1.1-0.9,2-2.2,2.8-3.2c6.4-1.7,9,4.9,12.4,8.7c1.6,2.5,5,4.4,5,7.6c13,12.8,29.8,21.3,48.5,18.5   c1.5,1.1,4.5,3.1,2.8,5.4c-2,4.3,2.2,11.3-3,14.1c-20.4,13.4-45.6,18.3-68.3,8.1c-7-2.1-11.6,6.1-18.6,6.3   c-11.7,1-24.8,0.3-35.1-5.9c2.2-9.6,7.1-18.3,8.7-27.9c2.8-4.6-1.2-23.1,8.2-18.6c0-17.6-8.2-35.7-11.6-53.3   c-3.8-8.7-12-16.5-15.7-24.6c-1.2-11.5-3.8-21.5,0.9-32.4c-9.4,4.7-14,15.9-22.7,22.1c-8.8,8-18.8,14-29.4,19.2   c-1.3,6.1-2.5,12.7-2.1,19c0.2,0.8-0.3,1.4-1.8,3.1c-0.8-0.9-1.3-1.9-1.8-3c-18.6,0.1-36.5,4.9-54.9,4.1c0.3,6-13.1,17.1-16.7,22.6   c-12.1,16-24.4,33.6-43.7,41.4c-2.2,0.9-4.3,2.4-6.8,2.5c-2.5,0.7-5.6-0.8-7.7,0.8c-13.5,11.3-31.3,14.1-47.7,18.9   c-3.5,4.8-8.6,7-14.1,8.6c-14.4,9.6-31.4,7.7-47.9,7c-15.9,3.7-32.5,4.6-48.9,3.4c-16.6,0.1-33.5,1.6-49.8-2.2   c-15.9-1.8-31.8,4.4-47.9-0.2c-2,1-2.9,3.4-5.5,2.7c-23.8-1.5-56.5,0.9-70.3-22.9c-1.6-8.7,4.7-15.3,10.8-20.5   c7.1-10,18.6-9.7,29.4-7.5c-23.2,0.1-18.6,3.2-34,18.5c-0.2-0.9-0.3-1.6-0.5-2.5c-1.9,2.9-3.3,5.7-2.8,9c10.8,4.1,22-2.9,31.3-7.8   c0.4,0.4,0.8,0.7,1.1,1.1c-8,5.8-22.1,12.9-32.1,9.5c6.4,16.4,41,20.1,56.7,18.3c0.1-0.6,0.3-1.1,0.5-1.9c4.3,0.1,5.7,4.1,10.6,2.5   c-7.2-9.5,5.6-17.5,14.5-16.3c6.8,0.3,6.8-7.4,11-11c0.8-5.4-0.9-6.4-4.6-8.9c-4.8-5.4-10.9-10.5-13.7-17.3c0.5,0,1,0,1.4,0   c5.9,5.2,10.4,11.7,16.5,16.8c1.7,1.5,1.8,1.5,3.6,5.3c2.9,0.8,5.2-2,8.3-0.8c0.1,0.8,0.1,1.4,0.2,2.1c-2.7,1-5.5,2.9-8.5,1.6   c-0.2,2.2-0.4,3.5-0.9,5.7c1.2,0.3,2.4,0.5,3.5,0.8c-1.3,1.2-3.1,0.4-4.8,0.7c-3,3.9-6.3,8.5-12,8.1c-3.4,3.5-2.9,8.4-2.8,12.9   c11.6,2.2,24.8-2.8,36.9-2.6c22,1.5,44.2,4.4,66.2,5.3c11.2-1.4,22.7-1.4,33.4-5.3c20.3,0.8,40.6-1,59.1-10.1   c0.3-0.8,0.6-1.5,0.8-1.9c13.9-10.1,33.5-8,46.8-18.3c-1.6,0.1-3.2-0.2-4.5,0.7c-24.7,1.1-51.3-0.4-71.7-15.8   c-3.6,4.8-10.6,11.2-16.7,8.9C356.3,555.6,356.6,554.7,356.8,553.9z M509.6,517.5c4.9-3.9,8.3-9.6,12.6-14.1   c-0.3-0.9-0.5-1.5-0.7-2.3c1.6-3.7,5.1-5.8,7.9-8.4c18.7-1.3,36.9-26.8,53.2-37.3c0.3,0.3,0.5,0.5,0.8,0.8   c-12.6,12.1-26.6,22.6-39.6,34.3c14-0.4,27.1-3,41.1-2.3c3.4-40.3,28.8-75.2,32.6-115.4c-19.8,5.7-43.1,9.8-57.9,24.9   c0.2,9.1,1.2,18.6-3.1,26.8c-0.3-6.8,1.4-12.4,0.4-19.1c-0.5,1.4-1.8,2.8-1,4.3c1.1,2.3-0.3,4.2-1,6.3c-3,3.3,0.4,9.6-4.2,11.9   c-1.3-0.3-0.3-2.1-2-2.2c-0.4,1.5,0,2.8,0.4,4c0.9,0.2,1.5,0.3,2.4,0.5c-0.8,1.8-2.3,2-3.1,2.7c-1.7,0.1-2.4,0.1-3.7-0.7   c0.7-0.4,1.4-0.8,2.2-1.1c0-1.7,0.2-3.2-0.4-4.9c-4.7,0.9-9.9-1.2-14.1,1.3c-0.1,0.7-0.3,1.5-0.4,2.3c-0.2,0-0.4,0-0.5,0.1   c-0.2-1.2,0.3-2.4-0.5-3.8c-1.4,0.9-0.5,2.1-1.6,3c-0.1-0.8-0.1-1.7-0.2-2.5c-12.1,1-23.2,0-34.1-5.9c1,1.8,2.3,2.9,1.9,4.9   c-1.7-0.3-1.7-0.3-2.9-1.4c-3.2-6.3-11.5-4.6-17.2-6c-0.1-0.4-0.1-0.7-0.2-1c1.1-1.4,2.6-0.8,4.1-0.8c0.4-1.3,0.8-2.7,1.3-4.3   c-2.6-2.2-4.8-4.4-7.5-6.6c-1.8,1.9-4.4,3.2-5.9,5.9c2.3,1.6,4.8,2.5,7,5c-0.4,0.1-0.8,0.3-1.1,0.4c-5.4-2.6-6.6-3.1-12.5-2.2   c-20.8,13.9-29.3,20.6-26.6,47.1c0.5-0.3,1-0.5,1.7-1c1.1,6.1-1.7,3.6-4.3,6.6c-0.3,7.5-6.6,1.2-5.3,18.8c-0.4,0.6-0.7,1.2-1.2,2   c2.2,0.1,3.9,0.6,4.3,2.8c-1.6,1.5-3.5,0.9-5.3,1c-1.1-1.8-3.3-2-4-4.1c-2.8,2.6-5.8,4.5-8,7.4c18.5,5.1,37.8,5.1,55.9-1.1   c0.7,0.1,1.4,0.1,1.7,0.9c-18.8,8.3-40.3,7.2-59.5,1.3c-5,4-10,8-14.5,12.9c25,9.5,49.5-5.1,73.1-12.3c0.3,0.3,0.6,0.6,0.9,0.8   c-23.4,10.9-50.1,25.7-75.8,13.3c-9.8,9.2-15.1,22.3-23.7,32.5c26.2,18.7,61.1,17.2,91.8,15.1C482.8,551.1,495.8,532.4,509.6,517.5   C509.7,517.4,509.6,517.5,509.6,517.5z M489.8,416.6c-2-1.2-3.9-2.7-6.1-3.6c-0.7,1.1-1.4,2-0.9,3.3c2.1,0.4,4.2,0.7,6.3,1.1   c1,0.9,2.1,1,3.5,0.7C491.7,417.6,490.8,417.1,489.8,416.6z M498,172.5c10.1,32.7,2.4,29.2,1.1,59c0.5-0.4,1-0.7,1.5-1.1   c6.2,0.7,17.6,4.3,19.2-4.8c-2.3-4.3-0.5-8.1,2.1-11.8c-0.8-0.9-1.5-1.7-2.2-2.5c-1.3,0.8-2.5,1.5-3.6,2.2c-0.6-0.2-1.2-0.5-2-0.8   c0.5-0.9,0.9-1.4,1.2-1.9c5.8-1.1,6.2-1.3,8-3.6c-0.2-1.6-0.5-3-0.7-4.4c-3,1.4-8.1-1.4-4.2-4.6c0.6,0.7,1.1,1.4,1.4,1.7   c3.1-0.2,5.2,1.4,7.6-0.6c2-7.8-11.6-17-3.1-23.2c1.6-6.8-4.4-13.2-2.2-20c-1.3-0.1-1.9-0.2-2.9-0.9c3.5-1.2,18.1-3.3,16.3-9.3   c-6.2,6.9-15.6,6.3-23.6,9.4c0.6,0.6,1,1,1.6,1.7c-3.4,2.2-6.5,1.8-10.1,0.8c-1.5,2.9-3.5,5.1-6.3,6.8   C497.4,167.2,497.7,169.9,498,172.5z M676.4,541.4c9.7-0.8,19-3.4,27-9.3c0.2-1.5,0-2.9-0.4-4.2c-12.7-21.1-13-49-15.1-73.3   c-1.6-13.3,2.6-27-3.2-39.6c-1-9-4.4-16.9-7.7-25.2c-2.4-7-3.3-15.1-11.2-17.9c-1.1,1.4-2.2,1.9-3.6,0.9   c-13.6-2.5-29.6-5.7-42.9-0.5c2.5,34.6-20.2,63.1-28.2,95.1c15.9-8,28.9-20.6,41.8-32.7c4.4-5.6,9.7-11,17.1-12.2   c2.1,1.9-1.7,3-2.7,4c-7.9,20.3-7.4,37.3,9.9,52c11.2,18.9,13.5,41.1,14.8,62.5C673.7,541.4,674.9,541.6,676.4,541.4z M773.5,567.1   c0.2-1,0.5-2.1,0.7-3.2c-0.8-0.9-1.5-1.7-2.1-2.4c-6.9-0.1-13.6-0.4-20-2c-1.3,1.5-1.3,1.5-2.8,2.3c-2.2-0.6-1.6-2.3-1.5-3.8   c-1.2-0.9-2.4-1.3-3.7-0.9c-1.2,7.2-7.6,4.4-4.1-1.7c-1.1-0.6-2.2-1.1-3.4-1.7c-3.2,11.4-8.7,7.2-4.1-2.1c-1.4-0.8-2.6-1.4-3.9-2.1   c-1.1,3.3-6.9,11.7-8.5,4.7c0.3-4.1,3.8-6.8,4-11c-1-1.2-1.5-3-3.1-3.8c-1.8,2.3-8.1,18.7-10.7,11c2.4-5.2,6.5-9.5,8.2-15.2   c-3-3-4-10.9-9-10.1c-0.9,1.3-1.9,2.8-2.8,4.1c0.2,1.3,0.3,2.3,0.4,3.1c-7.1,4.5-5.4,15.5-11.2,18.7c-11.1,5.3-24.1,2.6-29.5-9.3   c-3.3,3.9-1.4,9.5-1.8,14.2c-1.1,2-1.9,4.1-1.7,6.6c-0.1,4.3-3.2,8.1-4.6,12.2c-1.7,3.4-0.4,7.2-2.9,10.4c13,3.4,29.2,7.2,41.4,0.6   c2.9-2.2,6.3-3,9.9-2.1c22.7,9.1,46.9,4.7,66.9-9C773.5,572.2,773.5,569.6,773.5,567.1z M481.1,337c-12.9,4.7-21.6-1.3-32.2-6.1   c6.1,11.3,19,19.5,23.4,31.5c1.4,14.9,5.8,30,6.9,44.6c20.6,14.8,46.1,20.5,71,15.9c0.6-1.6,1.1-2.9,1.6-4.2   c-0.2-0.7-0.5-1.3-0.7-2c4.8-12.3,4.9-25.6,5.4-38.6c0-17.5,2.2-35.2-2.5-52.3c-4.6-13.3-9.8-19.6-6.7-34.5   c-3.7-26.3-32.7-34.6-50.1-50.7c-0.4,1-0.7,1.9-1,2.8c23.2,23.1,38.8,56.7,8.2,80.6C499,331.8,488.6,331.9,481.1,337z M698.7,539.7   c-9.4,4.3-17.1,6.6-27.3,4.8c6,8.9,16,7.2,24.5,3.6C696.8,544.8,697.3,543.2,698.7,539.7z M202.2,595.5c-2.4-4.6,0.3-8.3,1.7-12.2   c-1.3,0-2.5-0.1-3.5,0.3c-1.5,2.8-2.8,5.3-4.2,7.9c1.1,1.5,2.1,2.8,3,4.2C200.3,595.6,201.1,595.6,202.2,595.5z M509.7,137.8   c1,3.4,6.7-3.5,8.1,5.5c3.5-0.3,3.6-2.2,3.2-5c-0.8,0.9-1.4,1.5-1.8,2c-2.1-0.4-1.2-2.3-2.1-3.3C514.6,136.4,512.4,138,509.7,137.8   z M513.2,151.3c-1.1-2.7-4.8-0.1-7-1.1c-0.4,0.5-0.9,1.1-1.5,1.8C507.8,152.7,510.3,151.4,513.2,151.3z M501.2,152.9   c-1.8,1.7-4.2,2.6-5.3,4.6c1.3,0.4,1.3,0.4,6.1-3.3C501.9,153.8,501.7,153.5,501.2,152.9z M500,152.1c-1.2-1.4-1.9-4.6-3.9-3.2   c0.8,1.4,1.6,2.6,2.5,4C499,152.7,499.3,152.5,500,152.1z M517.4,146.8c-1.8-0.1-3.3,0-4.8,1.3c0.5,0.5,0.9,0.8,1.4,1.2   C515.2,148.4,516.3,147.6,517.4,146.8z M504.4,133.4c-1.8-0.1-2.8-0.1-4.2-0.2c0.7,1.1,1.3,1.9,1.9,2.8   C502.7,135.3,503.2,134.7,504.4,133.4z M529.2,137.9c-0.5-0.4-0.9-0.8-1.5-1.3c-0.8,1-2.1,1.4-1.8,3.2   C527.2,139.2,528.1,138.6,529.2,137.9z M557.9,395c0,1.1-0.2,1.5,0.3,2.3c0.6-1.1,2-1.8,1.5-3.1C559.1,394.5,558.6,394.7,557.9,395   z" />
	<path fill="#010101" d="M442.4,219.5c-0.1-0.6-0.1-1.3-0.2-2c-0.9,0.4-1.5,0.8-2.2,1.1c0.4-1.4,1.4-2.1,2.4-3.4   c-0.5-22.1-7.3-45.1,1.3-66.8c0-0.2-0.2-0.7-0.4-1.5c0.7-1.9,1.4-3.9,3.9-4.7c0.5-0.2,0.7-1.1,1.1-1.6c-0.8-1.4-2.8-1-2.9-3   c1.2-0.9,2.5-1.8,3.7-2.7c0.1-34.2,15-66.2,15.2-100.6c-1.5-1.2-2.9-2.3-4.3-3.4c1.1-6.2-4.8-7.3-6.5-12.4c0.9-7,11.5,4.4,13.1,7.4   c0.3,3.1-0.1,6.3,1.4,9.3c-1.8,16.1,0.8,33.8-8.2,48.5c-3.3,6.7-0.3,14.9-4.8,21.2c-3.3,11.3-1.8,23.7-2.2,35.4   c-0.8,5.3,4.1,10.8,1.1,15.7c-4,18.1-10.3,37.5-7.1,56.2c-1.1,1.3-2.1,2.5-3.1,3.7C443.6,217.2,443.2,218.3,442.4,219.5z    M459.1,21.5c-0.8-0.5-1.5-1.5-3.1-1.2c1.9,1.7,3.3,2.8,5.2,4.1c0.2,1-0.1,2.1,0.7,2.9c0,1.7-0.2,3.9,2.1,3.9   c-0.3-1.8,0.8-4.5-1.2-5.5C461.3,24.5,461.2,22.2,459.1,21.5z M447.8,166.8c0.4-1.1,2.2-3.2,0.1-3.5c-1.2,0.7-1.5,1.9-1.8,3.3   C446.8,166.7,447.3,166.7,447.8,166.8z M445.2,169.8c-1.2,1.2-1.2,1.2-1.5,3.5c1.4-0.3,1.9-1.2,2.5-2.6   C445.8,170.4,445.5,170.1,445.2,169.8z M450.4,147c-0.5,0.6-1.9,1-1,2.2C450.3,148.5,450.4,147.9,450.4,147z" />
	<path fill="#030202" d="M356.8,553.9c-0.3,0.8-0.5,1.7-0.8,2.5c-53.7-29.3-75.2,10.6-124.9,9.3c-0.1-0.6-0.1-1.3-0.2-2.1   c-0.8-0.1-1.5-0.1-2.1-0.2c0.8-0.8,1.7-0.7,2.6-0.7c0.4,0.5,0.7,0.9,1,1.2C280,560.7,309.2,524.6,356.8,553.9z" />
	<path fill="#080606" d="M503.1,22.2c-0.4-0.4-0.7-0.9-1.4-1.7c0-0.9,0-2.3,0-3.7c0.2,0.1,0.4,0.2,0.6,0.3c-0.1,0.2-0.1,0.4,0.1,0.6   c0,0.8,0,1.6,0,2.9c3.1-2.9-0.1-11.5-4.7-8.9c-0.4,0.2-0.9-0.1-1-0.7c0.4-0.3,0.7-0.5,1.2-0.9c-2.3-0.6-1.2-3.1-2.4-4.4   c-2,0.5-3.1,2-4.1,3.5c0.5,0.9,0.9,1.7,1.3,2.4c-0.6,1.3-1.7,1.1-2.6,1.1c-5.1-0.1-10.1,0.3-15.2,0.8c-5.7-1-10.5-5.9-16.5-5.1   c-0.8,2-2.2,2.5-4.4,1.8c1-1.4,0-2.8,0.9-4c0.8-0.1,1.6-0.1,2.4-0.2c0-0.2,0-0.3,0-0.5c-1.8-0.2-3.9,0.4-5.4-0.8   c1.9-1.6,6.2-1.1,7.9,0.8c0.2,0.1,0.6-0.1,0.8-0.1c-0.5-0.7-0.6-1.6-0.8-2.5c1.9-1.7,4-1.8,6.5-1c1.4,4.4,3.5,7.4,8.3,8.5   c0-1.6,0-2.9,0-4.3c5.3-1.4,9.7-3,10.4,4.1c0.9,0,1.8,0,2.8,0c2.1-3.6,4.8-8.4,9.7-5.9c0.7,2.5,1.2,5,4.2,5.6   C507.1,11.2,506.4,19,503.1,22.2z M482.4,10.8c-0.4-1.2-0.7-2.3-1-3.5c-2-0.4-3.6-0.4-5.4,0.6c0.2,1.4,0.4,2.6,0.5,3.9   C478.6,11.9,480.4,12,482.4,10.8z M461.7,3.5c0.9,2.7,1.1,2.9,4.8,3.5c-0.7-1.5-0.4-3.1-1.7-4.4C463.7,2.9,462.7,3.2,461.7,3.5z" />
	<path fill="#060505" d="M202.6,542.2c-0.5,0-1,0-1.4,0c-0.4-0.4-0.7-0.8-1.2-1c0.2,0.1,0.3,0.2,0.5,0.3c0,0.2,0,0.4,0.1,0.7   c-1.4,1-3.2,0.4-4.5-0.6c-8.2-5.1-14.5,1.2-21.3,6.6c4.1-0.1,9.5-1.8,11.7,1.2c-6.5,0.6-14.5-0.5-18.9,5.3c0,0,0,0,0,0   c-0.9,0.4-1.7,0.9-2.8,1.4c-0.1-1.2-0.2-2.2-0.3-3.1c0.5-0.5,0.9-0.9,1.4-1.4c0.9-0.2,1.5-0.7,1.5-1.6c8.7-8.4,19.8-17.9,31.4-8.7   c0.1-0.8,0.2-1.4,0.3-2C200.6,539.9,201.8,540.9,202.6,542.2z" />
	<path fill="#292423" d="M457.1,3.9c-1.6,0.3-4.1-0.7-5.2,0.8c-0.4-0.5-0.8-1-1.3-1.5c-7.3,1.8,2.1,9.5,3.7,13   c-1.2,0.4-0.8,1.5-0.9,2.3c-2.3-4.8-6.3-8.5-8-13.5c0.9-2.4,2.8-2.7,4.8-3.2C452.1,3.9,454.8,2.8,457.1,3.9z" />
	<path fill="#2E2A2C" d="M167.4,550c0,1-0.5,1.5-1.5,1.6c-0.9-2.6-4.7-0.5-6.5-2c1.3,0,2.5-0.1,3.7-0.7   C164.8,548.5,166,549.9,167.4,550z" />
	<path fill="#AFA9A9" d="M199.1,539.4c-0.1,0.6-0.2,1.2-0.3,2c-0.6-0.5-1-0.8-1.4-1.1C198,539.9,198.5,539.7,199.1,539.4z" />
	<path fill="#A79290" d="M460.1,4.7c0.1,0.3,0.3,0.5,0.4,0.8c-0.8,0.3-1.1,0-1.5-0.6C459.4,4.8,459.8,4.7,460.1,4.7z" />
	<path fill="#FBDFD3" d="M454.3,16.2c-1.6-3.5-11-11.2-3.7-13c1,1.6,2.3,2.3,4.1,2.3c0.1,0.2,0.1,0.5,0.2,0.7c-0.9,1.2,0,2.5-0.9,4   c2.2,0.8,3.7,0.2,4.4-1.8c6-0.8,10.8,4.1,16.5,5.1c5-0.5,10.1-0.8,15.2-0.8c1,0,2,0.2,2.6-1.1c-0.4-0.7-0.8-1.5-1.3-2.4   c1-1.5,2.1-2.9,4.1-3.5c1.2,1.2,0.1,3.7,2.4,4.4c-0.5,0.4-0.9,0.6-1.2,0.9c0.4,2.2,5.8-3,6.4,5.2c-0.3,0.5-0.5,1-0.8,1.5   c0.2-2.2-0.6-2.2-2.6-3c-1.8,2.7,0.4,5.5-1,8.2c-1.5,1.5-4.5,1.3-5.6,3.7c0.4,2.4,3,1,4.7,1.1c-1.2,2.7-3.4,2.7-5.7,3.1   c-0.4-1.2-0.8-2.2-1.3-3.8c-2.5,24.6,4.9,50.5,7.2,75.2c1,16.2-3.7,32.3-3.9,48.5c-1.6,1.4,0.3,3.8-1.4,5.1c-0.9-1-1.8-4.4-3.5-3   c0.4,2.2,1.6,5,2.8,6.7c0.3-0.2,0.5-0.4,0.8-0.7c8.4,26.2,5.4,55.1,1.1,81.8c-1.4,10.4-4.4,23.4,0.9,32.9c-0.1,0.6,0,1.2-0.8,1.5   c-1.3-0.8-3.6-2.8-4.5-0.3c0.6,1.2,1.2,2.5,1.7,3.6c-1.1,2.5-1.2,2.5-0.2,4.2c2.4,5.2,0,11.4,2.7,16.4c2.3-5.8,2.9-9.4,2.5-16   c4.3,9.7,10.5,17.7,18.4,24.5c-10.4,16.1-19.8,22.8-38.1,27.6c-8.9-11.7-22.7-26.4-17.5-42.3c1-2.2,0.6-4.1-0.5-6.2   c-4.9-8.7-8.6-18.1-13.2-27c-2-4.9-6.1-9.2-5.2-14.9c5.5-5.8,5.6-15.2,9.6-22c1.7-0.2,3-1.6,4.7-0.6c1,0.6,0.9,2.4,2.4,2.5l0,0   c-0.1,0.7-0.1,1.3,0.7,1.5c4,6.5,6.5,13.6,10.3,20.3c2.6-5.2-1.2-10.2-3.1-15c2.7-15.9-9.3-31-8-47.3c-1-8.7,6.8-17.5,3.1-25.7   c1-0.3,1.6,0.4,2.1,1c5.5,4.1,5.3-5.3,4.9-8.6c0,0,0.1,0,0.1,0c3.5-2.7,5.7-8.6,3.6-12.7c-1.8,3.4-2.6,6.1-4.3,9.2   c-15-31.3,3.4-63.4,3.8-95.3c-0.2-6.7,5.7-24.9-3.9-25.9C463.3,21.5,459.9,17,454.3,16.2z M490.2,197.5c3.5-0.8,4.4-21.6-0.5-18.9   C491.2,185,488.9,191.2,490.2,197.5z M485.2,36c1.3-3.8,2.4-11-1.4-13.4C483.2,25,483.1,34.9,485.2,36z M488.5,66.2   c1.1-3.6,0.8-5.1-0.9-6.6C485.2,61.1,486.4,64.5,488.5,66.2z M486.6,50.7c-1.5,1.8-1.2,5,0.9,4.8C488,52.9,488,52.9,486.6,50.7z    M487.3,215.9c-1.9,0.2-1.2,3.6,0,4.8C489.5,218.8,487.4,217.5,487.3,215.9z M492.6,310c-2.8-0.1-2.7,2.8-0.7,3.8   C493.1,312.7,493.2,311.5,492.6,310z M485.7,48.3c1.5-2.4,1.7-5.1-0.9-5.9C484.8,44.4,485.2,46,485.7,48.3z M483.2,141.3   c0.3-1.6,0.8-4.3-1.3-4.4C480.1,137.9,481.6,140.5,483.2,141.3z M472.9,261.7c0.6-1.6-2.1-5.4-3.2-3.3   C471,260.7,471,260.7,472.9,261.7z M488.3,199.5c-2.2,2.6-2.5,3.7-1.6,6.3C487.9,203.9,488.7,202.1,488.3,199.5z M485.4,144.6   c-0.5,1.8-0.9,4.8,1.1,4.5C486.9,147.7,486.9,146.3,485.4,144.6z M468.2,250c-1.1,1.8-0.6,2.7,1.8,3.9   C470.3,252.1,469.4,251.1,468.2,250z M494.4,305.9c2,0,2.6-3.5,0.6-4C494,303.1,494.2,304.5,494.4,305.9z M489.5,322.5   c1.7-1.6,1.7-1.7,0.4-3.9C488.1,320,488.1,320.1,489.5,322.5z M471.6,264.6c0.7,1.2,1.2,2,1.8,2.9c0.5-0.4,0.8-0.7,1.1-1   C473.6,264.9,473.6,264.9,471.6,264.6z M486.9,207.9c-2.1,1.2-1.6,2.8,0,4.1C486.9,210.3,486.9,209.2,486.9,207.9z M471,131.5   c-1.4,1.4-1.4,2.7-0.6,4.7C471.2,134.5,471.8,133.3,471,131.5z M450.6,8.3c1.6-0.1,1.4-1.1,1.8-2.2C450.9,6.4,450.4,6.9,450.6,8.3z    M472.2,127.6c0.3-0.6,0.5-1.2,0.8-1.9C471.5,125.6,471.5,125.6,472.2,127.6z M473.5,123.3c0.7-0.3,1.3-1.4,0.1-1.7   C473.4,122.3,472.8,122.8,473.5,123.3z" />
	<path fill="#5876E8" d="M505.3,424.8c7.8,3.1,15.9,1.4,23.9,1.6c0.3,1.8-0.2,5.3,2.4,3.3c0.1,0.2,0.2,0.3,0.4,0.5   c0.3-0.9,0.4-2,0.6-2.9c1.4-1.4,3.2-1.1,4.8-1.1c0.6,2-1,4.5,1.2,5.9c0.8-1.5,0.3-2.9,0.5-4.3c0.4-0.2,0.8-0.3,1.3-0.5   c0.1,2.4,0,4.5,1.6,6.4c1.5-0.1,3.1,0.3,4.4-0.8c0.6,0,1.2,0,2.2,0c0.8-0.6,2.3-0.9,3.1-2.7c-0.9-0.2-1.6-0.3-2.4-0.5   c-0.4-1.2-0.8-2.5-0.4-4c1.7,0.2,0.7,1.9,2,2.2c4.6-2.3,1.2-8.6,4.2-11.9c4.3,23.7-8.2,47-19.1,67.7c-0.5-0.5-0.9-0.8-1.3-1.2   c-12.5,17.2-35.8,26.7-45.4,46c12.2-8.7,20.8-21.6,32.9-30.7c0.3,0.3,0.6,0.6,0.8,0.8c-0.4,0.8-0.9,1.7-1.4,2.5   c0.2,0.7,0.4,1.4,0.7,2.3c-7.2,9.8-18.1,15.5-27.3,23.5c5.1-1.3,8.1-5.3,12.5-7.9c0,0.3,0.1,0.5,0.1,0.8   c-13.1,14.6-25.6,31.8-44.3,38.9c-30.6,2.1-65.6,3.6-91.8-15.1c0.5-0.5,0.9-0.9,1.3-1.4c4.2,4.1,10.3,2.6,12.7-2.9   c30.7-1.3,61.6-12.7,88-28.1c-10.9,3.3-22.1,12.8-34,13.2c8.3-5.1,18.2-8.2,24.6-15.6c6.1-2,13.4-3.9,18.3-7.6   c-9.6,0.5-20.9,5.2-30.4,5.4c7.5-4.1,19-7.4,25-12.4c-1.8,0.5-3.5,1-5.2,1.5c-0.3-0.3-0.7-0.6-0.9-0.9c7.7-3.5,17-5.7,22.8-12   c-15.5,7.8-32,16.2-49.8,15.7c6.4-5.4,16.3-4.5,23-9.3c-0.1,0.2-0.2,0.3-0.3,0.5c-2.5,0.3-4.9,0.9-7.3,1.5   c15.5-7.7,35.2-8.3,49-19.5c-12.1,1-23.8,6.1-35.5,8.9c-1.4-1.2-2.3-2.5-3.4-3.8c7-2.6,17.3-0.6,22.9-6.7c-8-0.4-15.2,0.4-22.7-2   c-0.2-2.4,0.2-5.8,1.5-7.7c6.6,1.6,12.9,4.2,18.7,7.5c0.1,0.6,0.1,1.2,1,1.2c0.4-7.8-13.5-8.6-19.2-11.6c10.6-1.7,21.9,4,32.7,4.4   c0.3-0.6,0.6-1.1,1-1.8c-5.9-5.5-12.9-9.5-21.3-10.5c-0.4-1.3-1.2-2.4-1.6-3.6c4-3.1,4-10,8.1-13.1c4.3,1.9,8.7,3.8,13.9,2.4   c-2.1-5.3-6.8-7.2-11.2-9.7c0.3-0.6,0.5-1.1,0.8-1.6c1.2,1.1,1.2,1.1,2.9,1.4c0.4-2-1-3.1-1.9-4.9c3,0.8,5.5,2.7,8.5,3.6   c0.4,1.1,1.1,2.1,1.1,3.2c-0.5,0.2-1,0.3-2,0.7c3.9,1.4,6.9,3.1,10.9,3.7c-2.2-2-4.9-2.8-7.6-3.5   C505.8,427,505.6,425.9,505.3,424.8z M442.3,535.6c1.8-0.7,3.6-1.6,5.1-3.2c-10.7,4.3-22.1,9.4-33.6,12.2   C424.1,544.3,433.4,540.3,442.3,535.6z M537.3,472.1c-1,1-0.8,2.1,0,3.3c0.5-5.6,13.5-28.6,8.9-30.4   C545.6,454.5,539,462.6,537.3,472.1z M504.4,496.4c6.5-1.4,31.8-21.1,32.2-27.7C528,479.9,515.4,487.5,504.4,496.4z M541.8,436.4   c-1.9-3.9-10.8-0.8-14.9-3.4c-2.6-0.3-6.1-3.2-8.3-2C524.6,434.5,535.1,439.8,541.8,436.4z" />
	<path fill="#CCD2E9" d="M520.6,282.2c-4.7-14.8-13.2-27.9-24.2-38.6c0.3-0.9,0.6-1.8,1-2.8c17.5,16.1,46.5,24.4,50.1,50.7   c-3.1,14.9,2.1,21.2,6.7,34.5c4.7,17.1,2.5,34.8,2.5,52.3c-0.4,13-0.6,26.3-5.4,38.6c0.2,0.6,0.4,1.3,0.7,2c-0.5,1.3-1,2.7-1.6,4.2   c-15.8,2.3-32.9,2.2-48-3.5c-0.2-12.3-2-24.7-0.1-36.9c1.8-12.6-3.1-16.6-11.6-24.7c-3.1-2.3-3.1-6.4-5.1-9.3   c-2.9-2.7-3.6-6.7-5.1-10.2c0.2-0.4,0.4-0.9,0.6-1.3c6.2-4,13.8-5.3,20-9.1c6.1-7.7,14.4-14,19.3-22.4c2.9,0,5.9,0.7,8.3-1.3   c4.6,3.5,8.6,1.5,13-1.2C548.7,295.6,530.9,299.3,520.6,282.2z M521.2,345.9c0.6,0.3,1.3,0.7,2,1.1c0.4-1.9-1.4-1.6-1.9-2.9   c0.7-5.9-4.9-10-8.7-13.7c-1.5,0-3,0-4.4,0c-0.6-1.9,0-4.1-1.2-6.2c-2.3,5.2-1.4,14.9,4.8,17.1   C514.1,344.7,517.3,345.8,521.2,345.9z M515.4,352.4c-0.3-0.2-0.5-0.4-0.8-0.6c-0.5-3.4-4.8-5.4-6.8-8c-2-0.3-3.8-0.6-5.7-0.8   c-0.6-0.3-1-1.2-2-0.3c0.6,5.9,7,12.7,13.2,12.6c1-0.8,1.8-1.4,2.8-2.1C515.9,352.8,515.7,352.6,515.4,352.4z M533.7,421.7   c0.6-0.3,1.3-0.7,1.9-1c3.2-5.2-3.2-18.8-8.4-20c-0.9,6.5,2.3,12.1,2.1,18.4c-0.4,2.4,0.1,4.3,2.6,5   C532.6,423.3,533.2,422.5,533.7,421.7z M544.2,322.6c-1,12.9-9.8,18.3-14.1,29.1C536.2,348,550.4,328.5,544.2,322.6z M500.8,359.1   c0.6,6.1,12.2,8.7,7.7,0.5C503.2,356.7,502.9,356.7,500.8,359.1z M531.2,356.7c-1.2,2-2.8,4.9-0.7,6.4   C531.6,361.1,533.2,359.3,531.2,356.7z M526.2,399c0.6-3.8,0.7-4.7-1.9-6.9C524.6,394.8,524.7,396.9,526.2,399z M528.9,372.9   c1.8-1.3,2.1-5.1-0.2-4.7C528.1,369.6,528.3,371,528.9,372.9z M527.4,378.5c1.3-1.2,1.3-1.2,0.8-2.5   C527.1,377.2,527.1,377.2,527.4,378.5z" />
	<path fill="#FBDFD3" d="M602.4,437.7c9.5-20.4,17.7-42.4,17-65.3c13.3-5.2,29.4-2,42.9,0.5c1.3,1.1,2.5,0.5,3.6-0.9   c8.7,1.1,17.4,34.4,18.9,43.1c5.8,12.6,1.6,26.3,3.2,39.6c2.1,24.3,2.3,52.2,15.1,73.3c0.4,1.3,0.6,2.7,0.4,4.2   c-32.6,21.4-19.7-4.5-27.7-25c0.4-0.5,0.8-1.1,1.2-1.6c-0.3-1.4,0.9-3.3-0.6-4.2c-1.4-1.9-1.4-0.7-2.6,0.3   c-4.4-20.4-30.8-39.9-23.8-56.7c1.4-6.2,4.6-12.2,3.2-18.6c3.6-0.4,6.6-2.1,9.6-3.6c0.4,0.2,0.8,0.3,1.1,0.5   c2.5,5.3,3.4,11.5,6.7,16.1c-0.2-5.2-0.1-15.8-5.8-17.5C655.2,398,617.8,436.8,602.4,437.7z M672.7,392.5L672.7,392.5   c1-4.1-1.3-6.9-4.9-8.3c-0.7-0.9,0.1-2.1-1-2.7c-0.3-2.3-3.5-6.4-4-2.1c1.6,4.3-0.2,10,2.3,13.7c2.1-0.7,4.1,1.5,6.5,0.9   c0.9,1.2,1.9,2.4,3.1,3.9C675.6,395.7,673.9,394.2,672.7,392.5z M672,454.8c1.7-1.9,2.1-8.5-0.1-9.8   C671.6,448.4,671.7,451.3,672,454.8z M696.1,524.5c-0.6,3.2-0.1,5.7,2,7.3C698.1,529.1,697.8,527.9,696.1,524.5z M670.7,463.7   c-2,2-2,3.9-0.6,5.7C671.3,467.6,671.2,466,670.7,463.7z M660.9,399c2.2-0.4,2.4-0.8,1.7-2.9C661.5,396.7,661.2,397.6,660.9,399z    M672.2,457.3c-1.4,1.8-1.5,1.9-0.2,3.2C672.9,459.5,672.9,458.6,672.2,457.3z M658.9,402.9c1.2,0.5,1.2,0.5,1.1-1   C659.5,402.3,659.2,402.6,658.9,402.9z" />
	<path fill="#FBDFD3" d="M231.2,565.7c48.6,0.5,77-38.1,124.9-9.3c6.1,2.3,13.1-4.2,16.7-8.9c13.5,10.3,29.8,13.4,45.5,19.3   c-2.4,0.6-27.1,7.8-21.9,9.8c0,0,0.1,0,0.1,0c-11.8,9.1-18.6,1.7-21.4,5.9c1.9,0.3,2.8,0.3,4.5,1c-3.7,1.3-6.8,2.8-9,5.3   c-2.8,0-5.5,0-8.3,0c0-1.2,0-2.2,0-3.2c1.4-1.1,1.8-0.5,2.7,0.4c0.9,0.1,1.9,0.4,2.1-1.2c-0.8-0.1-1.4-0.1-2.1-0.2   c2.1-3.2,7.2-3.1,9.5-6.2c-7.4-2.8-14.2,0.7-21.5,2.3c-3-6.4-22.9-1.4-30.6-2.6c-15.5,3-30.2-0.6-45.9,0   c15.1,14.2,39.2,8.8,58.1,8.8c-18.3,13-43.4,4.9-64.2,3.6c-21.5-2.3-42.7-1.6-64.2-2.9c0.1-1.9,0.9-3.5,2.3-4.9   c3.3,0.2,5.8-1.6,8.5-3.2c9.3,1.6,20.2,5,28.2-2.2c-0.3-0.8-0.6-1.4-0.9-2.1c1.6,0.3,2.3-0.6,3-2c-1.6-0.5-2.9-0.5-4.1,0.1   c-0.1,1.1,0.6,1.1,1,1.3c0,0.2,0,0.4,0,0.6c-1.5-0.2-3-0.4-4.6-0.6l0,0c-4.5-2.7-11.6-1-16.6-3.5c0-1.3-0.6-2.5,0.8-3.3   C226.7,567.9,228.8,566.5,231.2,565.7z M329.4,553.4c0.3,2.6,20.1,9.6,21.8,6.9C349.4,558.5,336,552.8,329.4,553.4z M316.8,552.1   c2.8,2,6.2,2.9,9.3,1.6C320.9,551.8,319.8,551.6,316.8,552.1z M387.2,573.3c1.1,1.6,1.7,1.7,4.4,0.7   C390.7,572.3,390.6,572.3,387.2,573.3z M315,551.9c-1-0.9-2.1-1.2-4-0.4C312.7,551.9,313.8,552.4,315,551.9z M371.4,583.3   c-2.3,0.1-2.3,0.1-2.8,1.3C369.8,584.7,370.8,584.8,371.4,583.3z M308,550.7c0.9,0.9,1.5,0.8,2-0.1   C309.4,549.8,308.8,549.5,308,550.7z M276.8,581.7c-0.1,0.2-0.1,0.3-0.2,0.5c0.4,0.1,0.8,0.3,1.2,0.4   C278.2,581.7,277.3,581.9,276.8,581.7z" />
	<path fill="#E4E4EB" d="M664.5,556c0.4-4.7-1.6-10.3,1.8-14.2c3.5,6.5,9.7,12.6,17.5,12c5.1-1,13.6-0.6,15.4-6.6   c1.1-5.6,3.5-10.9,7.8-14.8c-0.1-0.8-0.3-1.9-0.4-3.1c0.9-1.3,1.9-2.8,2.8-4.1c5-0.9,6,7.1,9,10.1c-1.7,5.6-5.9,10-8.2,15.2   c2.5,7.6,8.8-8.7,10.7-11c1.6,0.8,2.1,2.6,3.1,3.8c-0.2,4.2-3.7,6.9-4,11c1.7,7,7.5-1.4,8.5-4.7c1.2,0.7,2.5,1.4,3.9,2.1   c-4.6,9.4,0.9,13.5,4.1,2.1c1.3,0.6,2.3,1.2,3.4,1.7c-3.6,6.1,2.8,8.9,4.1,1.7c1.4-0.4,2.6,0,3.7,0.9c-0.1,1.5-0.7,3.2,1.5,3.8   c1.6-0.8,1.6-0.8,2.8-2.3c6.4,1.6,13.1,1.9,20,2c0.6,0.7,1.3,1.5,2.1,2.4c-0.3,2.5-1.8,4.3-1.7,6.8c-32,14.4-35.9,19.1-69.9,4.4   c-15.3,1-11.9,15.5-41.3,7.5C659.1,573.7,665.7,565,664.5,556z" />
	<path fill="#EECABA" d="M457.1,224.4c-1.5-0.2-1.4-1.9-2.4-2.5c-1.7-1-3,0.4-4.7,0.6c-4.1,6.8-4.1,16.2-9.6,22   c-0.9,5.7,3.3,10,5.2,14.9c4.6,8.9,8.3,18.3,13.2,27c1.1,2,1.5,3.9,0.5,6.2c-5.2,15.8,8.6,30.6,17.5,42.3   c-34.1,5.6-44.2-30.4-45.3-57.7c0.3-0.4,0.6-0.7,0.9-1.1c1.6,1.6,7.4,9.6,9.3,8.1c-1.2-1.9-2.3-4-3.8-5.7c-0.8-0.1-1.4-0.1-2-0.1   c-11.4-18.1-2.2-41.6,6.5-59l0,0c0.7-1.2,1.2-2.3,1.1-3.7c1-1.2,2-2.4,3.1-3.7c-3-17.7,2.3-36.2,6.6-53.4c0.1,0.6,0.2,1.3,0.3,1.9   c1.2-1.1,2.2-2.1,3.3-3.2c0,1.4,0.6,2.1,2,2.1c0.4-0.5,0.7-0.9,1.1-1.3c0,0,0.1,0.2,0.1,0.2c3.7,8.2-4,17-3.1,25.7   c-1.3,16.3,10.7,31.4,8,47.3C462.9,229.1,460.6,220,457.1,224.4z M448.1,288.2c-1.2-0.6-2.9-3.8-4.1-2.4   C445.6,287.8,445.7,287.9,448.1,288.2z M449.3,289c1.2,1.5,1.2,1.5,3.3,1.8c0.2-0.3,0.3-0.6,0.5-0.9   C452,288.7,450.8,288.2,449.3,289z" />
	<path fill="#4B65C5" d="M494.2,424c-0.2,0.5-0.5,1-0.8,1.6c4.4,2.5,9.1,4.4,11.2,9.7c-5.3,1.3-9.7-0.6-13.9-2.4   c-4.1,3-4.1,10-8.1,13.1c-3.1-4.1-14.8-28-20.4-21.7c10.3,8.5,15.6,21,22.4,32.2c2.3-1.3-0.3-4.8-0.4-6.9c8.3,1,15.3,5,21.3,10.5   c-0.4,0.7-0.6,1.2-1,1.8c-6.5,0.3-35-9-37.1-2.9c1.2,0.5,2.5,1,3.8,1.4c-1.3,1.8-1.7,5.2-1.5,7.7c7.4,2.4,14.7,1.7,22.7,2   c-5.6,6.1-15.9,4.1-22.9,6.7c-2.2-1.2-8-7.1-9.9-5c1.9,1.2,4,2.5,5.7,4.1c-4,0.6-9.1-3.3-12.5-1.4c-3-1.1-6-5.4-9.3-3.9   c3.1,2.4,6.7,4,10.1,6.1c-1.5,0-1.7,1.3-2.2,2.2c-6.9-1.2-13.3-6.9-15.4-13.2c1-0.4,1.5-1,1.5-2.1c26.2,18.2,22-1,0.1-1   c0-0.6-0.1-1.1-0.2-1.9c-0.7,0.4-1.2,0.7-1.7,1c-2.7-26.6,5.9-33.2,26.6-47.1c5.9-0.9,7.1-0.4,12.5,2.2   C479.9,421,490.6,416.3,494.2,424z M464.4,416.7c0.1,3.8,6.9,7.5,10.4,7.7C472.3,420.8,468.4,419.3,464.4,416.7z M458.7,435   c-2.3-2.8-6.7-5.6-9.8-3.6C452.4,432.7,455.5,433.8,458.7,435z" />
	<path fill="#5876E8" d="M560,409.9c0-4.2-0.2-7.9-0.4-12.3c14.9-15.1,38.2-19.2,57.9-24.9c-2.1,25-13.5,48.2-21.8,71.6   c-5.4-0.6-8.6,3.4-13.9,4.4c7.7-10.6,16.7-19.3,21.5-31.4c-14,9.8-24.5,23.5-34.7,36.9c-1.6-0.5-2.5-0.4-3.9,0.1   c0.4-4,5.4-6.8,5.5-10.9c9.5-15,21.8-29.2,26.3-46.8c-4.5,4.8-5.4,12.7-10.1,17.8c-7.9,4.8-14.3,13.4-20.1,20.9   c-0.2-0.3-0.4-0.4-0.6-0.6c4.2-9.2,8.9-18.5,10.2-28.7c-2.6,2.6-2.7,6.6-4.3,9.8c-1.1,0.4-0.3,1.4-0.8,2.2   c-0.7,0.3-0.7,0.9-0.6,1.5c-0.7-0.3-0.9-0.9-0.6-1.5c1.8-6.3,2.7-14.4-0.5-20.3c-5.4-0.4-0.5,12.1-1.8,15.7c-1,1.7-0.6,3.5-0.7,5.2   c-2.5,3.2-4.2,8.9-7.1,10.5C560.8,422.9,562.8,416.1,560,409.9z M564.7,394.6c-2.5,5.3-0.5,13.1-0.8,19.3   C566.5,408.3,564.8,400.7,564.7,394.6z" />
	<path fill="#EECABA" d="M400,573.6c5.5-3.5,11.7-5.1,18.2-6.8c-6.5-3.3-14.2-3.6-20.4-7c15.9,4.8,33.3,2.6,49,4.4   c-14,8.3-31.3,7.2-44.7,16.7c-0.2,0.4-0.5,1.1-0.8,1.9c-18.6,9.1-38.9,10.9-59.1,10.1c-10.6,3.9-22.2,3.9-33.4,5.3   c-29.3-0.2-59.3-8.8-88.5-2.7c0-0.4,0.1-0.8,0.1-1.2c0.4-0.4,0.7-0.8,1.6-1.7c-4.4,1.5-8.4-0.2-11.9,1.1c-0.4,0.8-0.2,1.1,0.3,1.4   c-1.3,1.2-3.2,0.4-4.8,0.5c0.1-2.7-0.6-5.4,0.5-7.9c21.5,1.3,42.7,0.6,64.2,2.9c20.8,1.4,45.9,9.4,64.2-3.6   c-18.9,0-43,5.4-58.1-8.8c20.8,1.1,40.5,0.9,61.2,0c5.3,0.2,11.7-3,15.2,2.7c7.3-1.5,14.1-5,21.5-2.3c-2.2,3.5-9.6,2.9-9.6,7.6   c-1-0.9-1.3-1.4-2.7-0.4c0,1,0,2,0,3.2c2.8,0,5.4,0,8.3,0c2.3-2.5,5.4-4.1,9-5.3c-0.7-0.2-1.1-0.4-1.5-0.5c0.2-0.4,0.9-0.5,0.6-1.3   c-0.9,0-1.8-0.1-2.7-0.1c0.7-1,1.9-0.8,2.6-0.6c6.3,2,12.7-1,17.9-4.4c2.8-0.7,8.8,2,9.3-2C404,573.6,401.9,573.6,400,573.6z    M316.3,584.9c10.8,2.6,23.7,1.3,33.4-3.1C338.9,580.7,327.3,583.6,316.3,584.9z M396.7,582.4c-5.9-1.1-10.6,0.4-16.8-0.1   C383.2,585.7,393.4,586,396.7,582.4z M306.6,584.8c1.9,2.7,6.7,0.6,8.2-0.9C311.9,583.7,309.2,584,306.6,584.8z M350.8,590.3   c2.3,0.6,5.1-0.2,5.9-2C354.4,588,352.6,588.5,350.8,590.3z M295.1,582.1c-2.7-0.6-2.7-0.6-3.8,0.6   C293.6,583.5,293.6,583.5,295.1,582.1z M224.6,592.6c2.4-0.1,3.4,0.7,5.1-1.2C227.7,591.3,226.2,591.1,224.6,592.6z M304.4,583.4   c-1.6-0.4-2.7-1.1-4.1-0.2C301.6,584.4,302.7,584.5,304.4,583.4z M237.9,590.7c-1.7-0.6-3.1-0.5-4.9,0.2   C234.9,591.4,236.2,591.4,237.9,590.7z M238.2,589.8c1.3,0.8,1.8,1,2.5-0.1C239.9,589.7,239.3,589.8,238.2,589.8z" />
	<path fill="#E4E4EB" d="M196.1,541.5c1.3,1.1,2.7,1.4,4.2,0.8c4.5,6,9.2,11.9,14.6,17.2c5.5,2.5,6.3,8.5,1.7,12.7   c-4.6-5.6-10.7-12.4-18.2-13.3c5.8,4.6,14.1,7.7,16.7,15.4c-3.9,11.2-14.7-1.7-24.7,15c-18.8-2.7-39.2,1.7-55.5-10.9   c0.9-0.8,2.2,0,2.7-1.1c7.9-3.5,16.4-6,23.1-11.4C176.3,560.2,189,559,196.1,541.5z M194,556.1c0.6-1.1,0.5-2-0.7-2.2   C192.7,554.9,193.6,555.3,194,556.1z" />
	<path fill="#B7BDD5" d="M481.1,337c-0.2,0.4-0.4,0.9-0.6,1.3c1.5,3.5,2.2,7.5,5.1,10.2c2,2.9,2,7,5.1,9.3   c8.5,8.1,13.4,12.1,11.6,24.7c-2,12.2-0.1,24.6,0.1,36.9c-8.2-3.1-15.5-8-23-12.4c-1.1-14.6-5.5-29.7-6.9-44.6   c-4.5-12-17.3-20.3-23.4-31.5C459.5,335.8,468.2,341.7,481.1,337z M486.9,373.2c-1.4-2.5-1.8-2.8-4.4-3.1   C483.1,372,485.2,373.9,486.9,373.2z M474.4,364.5c1.7,1.2,2.5,3.2,4.8,3.1c-0.9-2.1-2.2-3.4-4-4.2   C474.9,363.7,474.8,363.9,474.4,364.5z" />
	<path fill="#EECABA" d="M602.4,437.7c15-0.9,54-39.7,62.3-15.9c-0.3,0.5-0.6,0.9-0.9,1.4c-0.3-0.1-0.7-0.3-1.1-0.5   c-3,1.5-6.1,3.2-9.6,3.6c1.4,6.3-1.8,12.4-3.2,18.6c-7.1,16.7,19.4,36.4,23.8,56.7c0.2-0.1,0.3-0.3,0.5-0.4   c0.8,1.5,1.2,3.3,2.7,4.3c-0.4,0.5-0.8,1.1-1.2,1.6c0.2,0.8,0.3,1.6,0.5,2.4c-0.3-0.2-0.7-0.5-1.2-0.8c-0.5,4-0.3,5,1.2,7   c0-2,0.1-3.8,0.1-5.6c2.9,5.8,1.9,13.3,3.6,19.6c1,3.6-1.3,11.3,4.5,10.5c-2.6,0.8-5.3,1-8,1.3c-0.5-4.7,1-9.3-1.5-13.6   c-0.4,4.9-0.4,9.3-0.1,13.7c-0.8-0.1-1.7-0.2-2.7-0.4c-1.3-21.4-3.6-43.6-14.8-62.5c-17.3-14.6-17.8-31.7-9.9-52   c1.1-1,4.8-2.1,2.7-4c-7.4,1.2-12.8,6.5-17.1,12.2c-12.9,12.1-25.9,24.7-41.8,32.7C592.7,456.9,597.6,447.1,602.4,437.7z    M676.5,526.1c0.6-2.5,1.3-5.5-1.1-6.6C675.4,521.6,674.9,525.7,676.5,526.1z" />
	<path fill="#4B65C5" d="M570.2,443.5c-0.1,4.2-5.1,7-5.5,10.9c1.5-0.5,2.4-0.6,3.9-0.1c10.2-13.4,20.7-27.2,34.7-36.9   c-4.9,12-13.8,20.8-21.5,31.4c5.3-0.9,8.6-4.9,13.9-4.4c-5.6,14.1-9,28.7-10.8,43.7c-14-0.7-27,1.9-41.1,2.3   c14.8-14,33.9-26.5,46.5-41.4c-17,10.6-44.4,45.2-62.6,43.6c2.2-3.3,6.7-5.9,6.7-10.2c0.4,0.4,0.8,0.7,1.3,1.2   c0.3-0.4,0.6-0.9,0.9-1.4c0.4,0.2,0.8,0.4,1.4,0.7C549.1,470,559.6,456.7,570.2,443.5z M560.8,466.3c-6.9,3.9-11.7,11.3-19.1,15.8   c6-0.2,9.5-7.3,14.2-10.5c1.8-2.1,4.7-2.9,5.2-5.8C561,466,560.9,466.1,560.8,466.3z M578.4,476.6c-4.6,3.5-9.3,6.1-14.7,8.4   C569.6,485.8,575.1,481.2,578.4,476.6z" />
	<path fill="#FBDFD3" d="M500,221.4c2.5-15.3,5.5-30.2-1.3-45.1c1-1.5,3.4-0.2,4.7-1.2c4.7-4.5,13.2,4.5,16-1.6   c-4.2-4.5-16-3.4-20.3,0.7c-1.9-2.9-1.2-6.3-1.9-9.7c2.8-1.7,4.8-3.9,6.3-6.8c3.7,1,6.7,1.5,10.1-0.8c-0.6-0.6-1.1-1.1-1.6-1.7   c2.1-1,4.3-0.9,6.4-1.4c0.9,1.5,2,2.2,3.8,2.2c-2.2,6.8,3.8,13.2,2.2,20c-8.5,6.2,5.1,15.5,3.1,23.2c-2.4,2.1-4.5,0.5-7.6,0.6   c-0.2-0.3-0.8-1-1.4-1.7c-3.9,3.2,1.2,6,4.2,4.6c0.2,1.4,0.4,2.8,0.7,4.4c-1.8,2.4-2.1,2.6-8,3.6c-0.3,0.5-0.6,1.1-1.2,1.9   c2.4,1.2,4.9,1.1,6.7,3.3c-2.6,3-2.4,6.3-0.9,9.7c-1.7,10.1-13.4,1.1-19.8,0.5C500,224.5,500,223,500,221.4z M516.5,177.8   c-4.8-0.3-8.3,0.7-11.7,3.6c2.6,1.6,4.7,0.1,7.2,1.7c1.2-0.5,2.6-0.6,3.6-1.8c-0.2-0.6-0.5-1.1-0.7-1.6   C515.4,179.2,515.7,178.8,516.5,177.8z" />
	<path fill="#4B65C5" d="M385.5,539.3c-2.4,5.4-8.5,7-12.7,2.9c7.5-10.3,13.2-22.3,22.4-31.2c29.2,14,57.6-8.5,87.3-9.8   c-4.9,3.7-12.2,5.6-18.3,7.6c-6.4,7.4-16.3,10.5-24.6,15.6c0.8,0.2,1.2,0.3,1.6,0.4c-18,6.7-37,12.4-56,13.5   C385.1,538.6,385.3,539,385.5,539.3z M451.9,512.3c-11.6,1.5-22.7,6.1-34.4,7.6c-2.8,6.1-8.5,15.3-15.8,9.1   c-0.4-1.6-0.9-3.3-1.4-5.2c-4.1,3.7-7.8,6.5-11.1,11c23.3,0.2,44-14.2,64.6-22.7C452.9,511.3,452.4,511.7,451.9,512.3z" />
	<path fill="#CFCFDD" d="M664.5,556c1.2,9.1-5.4,17.7-3.2,26.6c29.5,8,25.9-6.5,41.3-7.5c34,14.7,37.9,9.9,69.9-4.4   c0.1-1.3,0-2.6,1-3.6c0,2.5,0,5.1,0,7.5c-20,13.7-44.2,18.1-66.9,9c-3.7-0.9-7-0.1-9.9,2.1c-12.2,6.6-28.3,2.8-41.4-0.6   C658.6,575.5,661.6,565.6,664.5,556z" />
	<path fill="#CECEDC" d="M174.9,561.3c-1.3,0.9-2.8,0.7-4.3,0.7c0.1-0.4,0.2-0.8,0.4-1.4c-15.3,2.7-28.6,19.3-45.1,13.4   c-0.4-3.3,0.9-6.1,2.8-9c0.2,0.9,0.3,1.6,0.5,2.5c12.9-12.9,16.2-24,36.8-15.8c-1.5,1.2-2.7,3.1-1.9,4.9c5.5,1.6,10.7-2.5,15.3-4.8   c-3.6-1.7-8.7,4.4-11.7,3l0,0c3.6-5.1,13.5-5.9,18.3-3.4c-3.5,4.6-8.6,6.5-13.5,9.9C173.5,561.2,174.2,561.3,174.9,561.3z    M150.9,558.9c0.5-2.6,3.4-1.1,3.9-3.2c-1.9-0.3-17.4,0.2-15.1,3.5C143.5,559.1,147.2,559,150.9,558.9z M133.7,568.7   c4.3,2.9,10.8,1,12.6,0.1C142.5,567.5,138.2,568,133.7,568.7z M158.8,558.3c-1.9,1.1-1.9,1.1-1.9,2.3   C158,560.5,158.8,560.1,158.8,558.3z" />
	<path fill="#4B65C5" d="M448.3,495.6c-1.5,0.9-3.1,1.6-4.5,2.8c-10.3,0.6-20.3-0.6-30.5-3.4c2.2-2.9,5.2-4.7,8-7.4   c0.7,2.1,2.8,2.3,4,4.1c1.9-0.1,3.7,0.6,5.3-1c-0.4-2.2-2.1-2.7-4.3-2.8c1-2.1,2.4-2.6,2.4-5c1.1,0.3,2,0.5,2.9,0.7   c2.2,3.1,4.1,6.5,6.9,8.8c10.2-4.9,21.8-6.9,31.9-11.4c-0.1-0.3-0.2-0.7-0.3-1c0.6,0.1,1.3,0.3,1.4-0.6c0.3,0.3,0.7,0.6,1.1,1.1   c11.7-2.8,23.4-7.9,35.5-8.9c-13.2,10.2-30.9,12.2-46.3,18c-9.1,5.5-19,5.3-30.1,5.2C437.6,497.1,442.5,496.3,448.3,495.6z" />
	<path fill="#EECABA" d="M514.8,307.3c-7.9-6.8-14.1-14.8-18.4-24.5c-0.5,3.8,1,7.5-0.7,10.3c-0.2-6.1,1.4-12.6-1.5-18.3   c0.7-0.2,0.7-0.9,0.8-1.5c3,3.9,6.2,7.4,11.2,8.6c-0.4-5.6-8.2-13.9-12.6-18.1c0.1-1.2-0.2-2.9,0.5-4.5c0.1,1.2,0.2,2.4,0.3,3.8   c8.4,0.5,13.1,9,19.2,14c0.2-0.8,0.3-1.2,0.4-1.7c1.8,4,2.8,8.5,2.7,11.9c-1.1-0.3-2.2-0.5-3.6-0.8c0.7,2.4,2.8,2.5,4.2,3.5   C518.5,296.1,517.7,301.9,514.8,307.3z M511.6,285.9c0.2-2,0.2-2-2.4-4.4c-0.3,0.1-0.6,0.3-1.2,0.6   C509.2,283.4,509.6,285.3,511.6,285.9z" />
	<path fill="#CFCFDD" d="M137.6,577.4c-0.5,1.2-1.8,0.3-2.7,1.1c16.4,12.6,36.7,8.2,55.5,10.9c0.4-0.4,0.9-0.7,1.3-1.1   c-0.6,2.9,0.9,5.1,2.2,7.5c-4.9,1.6-6.3-2.4-10.6-2.5c-0.2,0.7-0.3,1.3-0.5,1.9c-15.5,1.8-50.3-1.9-56.7-18.3   C130,578.8,133.7,577.5,137.6,577.4z" />
	<path fill="#4B65C5" d="M560,409.9c2.8,6.1,0.9,12.9-0.5,19.2c2.9-1.6,4.6-7.4,7.1-10.5c0.2-1.6-0.3-3.5,0.7-5.2   c1.3-3.6-3.6-16.1,1.8-15.7c3.2,5.9,2.4,14,0.5,20.3c-0.3,0.6,0,1.2,0.6,1.5c-6.4,14.2-14.6,27.7-22.6,41.1   c4.6-14.4,10.6-29.6,7.2-44.7c0.3-0.7,0.6-1.4,0.9-2.1c1.6,3.3,0.4,6.7,0.7,10.6C559.5,420.2,558.8,414.8,560,409.9z" />
	<path fill="#4B65C5" d="M423.4,511.6c-8.9,1.6-17.9,0.4-26.4-2.4c4.5-5,9.5-9,14.5-12.9c4.8,1,9.4,2.5,14.1,3.7   c-0.4,2.4,0.6,4.2,2.2,5.8C425.4,506.2,423.9,509.2,423.4,511.6z" />
	<path fill="#B7BDD5" d="M520.6,282.2c6.7,15.1,36.3,15.3,15,23.9c-2.3,1.2-4.6-1.1-6.8-1.9c-2.4,2-5.4,1.3-8.3,1.3   C522.4,297.8,521.4,290,520.6,282.2z M530.6,298.1c-1.6-1.7-1.9-1.7-3.4-0.3C528.3,298.6,529.3,298.7,530.6,298.1z M533.9,300.3   c-0.9-0.8-1.4-0.8-2-0.2C532.8,300.7,532.9,300.5,533.9,300.3z" />
	<path fill="#FADED2" d="M514.1,275.5c-0.1,0.4-0.2,0.9-0.4,1.7c-6.1-5-10.8-13.5-19.2-14c-0.9-6.1,0.4-11.5,1.4-17.7   C503.9,253.8,510.2,264.5,514.1,275.5z" />
	<path fill="#ECC9B9" d="M239.8,574.5c1.5,0.2,3,0.4,4.6,0.6c0.3,0.6,0.5,1.3,0.9,2.1c-8,7.2-18.9,3.8-28.2,2.2   c0.8-1.4,1.7-2.7,2.5-4.1c4.1-0.3,8.4,0.4,12.5-0.4c0-0.1,0-0.3,0-0.4c-3.5-0.4-6.8-0.6-10.3-1.5c0.5-2.2,0.7-3.5,0.9-5.7   c0.6,0.2,1,0.3,1.4,0.4c-1.4,0.8-0.8,2.1-0.8,3.3C228.2,573.6,235.3,571.8,239.8,574.5c-1.6-0.3-3.2-0.6-4.8,0.4   C236.6,574.9,238.2,576.1,239.8,574.5z" />
	<path fill="#4B65C4" d="M431.6,483.8c-0.9-0.2-1.8-0.4-2.9-0.7c-0.1,1.4-0.1,2.1-1.2,2.9c-1.3-17.6,5-11.3,5.3-18.8   c0.4,0,0.7,0,1.2,0c1.1,6.7,7.1,11.1,12,15.1c-2.8,2.6-7.2,4.3-8.2,8.2c-1.6-4-4.3-11.9-9.4-10.9   C429.6,481.1,430.6,482.4,431.6,483.8z" />
	<path fill="#5775E5" d="M423.4,511.6c0.5-2.3,2-5.4,4.4-5.9c0.9,0.2,1.6,1.2,2.9,0.3c-0.2-0.6-0.4-1.2-0.7-1.8   c0.1-0.4,0.1-0.7,0.2-1c10.3-3.3,21.3-1.4,31.8-4.9c0.3,0.3,0.6,0.5,0.9,0.8C449.9,503.9,437,509.5,423.4,511.6z" />
	<path fill="#FCFCFC" d="M698.7,539.7c-1.3,3.5-1.9,5.1-2.8,8.3c-8.5,3.6-18.4,5.3-24.5-3.6C681.6,546.2,689.3,544,698.7,539.7z" />
	<path fill="#020203" d="M446.1,482.3c-4.9-4-10.9-8.5-12-15.1c-0.5,0-0.8,0-1.2,0c0.5-1.3,1.7-1.5,2.8-1.6   c2.7,9.2,12.4,12.6,20.8,15.1c0.9,0.5,1.4,1.4,1.2,2.5C455.7,487.8,449.5,482.9,446.1,482.3z" />
	<path fill="#020204" d="M437.3,462.4c22.1,0,26.1,19.1-0.1,1C437.3,463.1,437.3,462.8,437.3,462.4z" />
	<path fill="#090707" d="M498,172.5c0.3,0.5,0.6,1,1,1.7c4.3-4.1,16.1-5.2,20.3-0.7c-2.8,6.1-11.3-2.9-16,1.6   c-1.3,0.9-3.6-0.4-4.7,1.2C497.5,175.3,498,173.8,498,172.5z" />
	<path fill="#4761BC" d="M476.9,418c-0.9-0.3-1.9-0.4-2.4-1.4c0.3-0.1,0.7-0.2,1.1-0.4c-2.2-2.5-4.7-3.4-7-5   c1.5-2.7,4.1-4.1,5.9-5.9c1.1,0.9,2.1,1.7,3,2.6c-0.8,2.3-2.1,3.4-1.3,6.1c1.3-2.1,1.8-2.9,2.7-4.8c1.1,0.9,2.1,1.9,3.2,2.8   c-0.5,1.6-0.9,3-1.3,4.3c-1.4,0-2.9-0.6-4.1,0.8C476.8,417.3,476.9,417.7,476.9,418z M471.7,412.2c1.9-1,2.8-2.1,2.6-4.4   C472.7,409.2,472.7,409.2,471.7,412.2z" />
	<path fill="#EBC6B7" d="M500,221.4c0,1.6,0,3.1,0,4.8c5.9,1.2,11,4.2,17,4.2c-5.8,2.6-10.8,0.6-16.4,0c-0.5,0.4-1,0.7-1.5,1.1   C498.4,228.5,499.4,224.6,500,221.4z" />
	<path fill="#F6F7F7" d="M202.2,595.5c-1.1,0.1-2,0.1-3,0.1c-1-1.3-1.9-2.7-3-4.2c1.4-2.6,2.7-5.1,4.2-7.9c1-0.5,2.2-0.4,3.5-0.3   C202.5,587.2,199.9,590.9,202.2,595.5z" />
	<path fill="#312C2D" d="M215.1,574.4c-2.6-7.7-10.9-10.7-16.7-15.4c7.5,0.9,13.6,7.7,18.2,13.3C216.1,573,215.6,573.7,215.1,574.4z   " />
	<path fill="#343636" d="M519.1,155.1c-0.3-0.4-0.6-0.9-0.9-1.3c5.6-3.2,12.8-1.9,17.2-8C537.3,151.8,522.7,153.9,519.1,155.1z" />
	<path fill="#4661BE" d="M449.7,500.7c-6.2,2.1-13.4-1-19.5,2.5c-0.1,0.3-0.1,0.6-0.2,1c-0.9-1-1.9-1.9-3-3c-0.5,0.4-1,0.7-1.4,1   c0-0.7,0-1.5,0-2.2C433.6,501.1,441.6,500.5,449.7,500.7z" />
	<path fill="#202337" d="M507.4,518.9c-4.4,2.6-7.4,6.6-12.5,7.9c6.5-4.8,12.7-11,19.7-14.7c-1,2.3-3.2,3.7-5,5.3l0,0   C508.6,517.4,507.9,518,507.4,518.9z" />
	<path fill="#5270DC" d="M541.9,426.2c1.5-0.1,3.1-0.2,4.6-0.2c0.6,1.7,0.4,3.3,0.4,4.9c-1.4,0.8-2.6,1.4-4.3,1.3   C541.5,430.3,541.8,428.3,541.9,426.2z" />
	<path fill="#161629" d="M469.2,493.9c7.3-2.7,14.2-6.3,21.3-9.5c0.2,0.2,0.5,0.5,0.7,0.7c-6.5,3.8-13.4,6.9-20.4,9.5   C470.6,493.9,469.8,494.1,469.2,493.9z" />
	<path fill="#2F3131" d="M509.7,137.8c2.6,0.2,4.9-1.4,7.4-0.8c0.9,1,0,2.9,2.1,3.3c0.5-0.5,1-1.1,1.8-2c0.5,2.8,0.4,4.7-3.2,5   C516.5,134.3,510.8,141.2,509.7,137.8z" />
	<path fill="#2C2422" d="M432.9,273.5c1,1.6,2,3.3,3,5c0.6,0,1.2,0.1,2,0.1c1.5,1.7,2.6,3.8,3.8,5.7c-1.9,1.5-7.7-6.5-9.3-8.1   c-0.3,0.4-0.6,0.7-0.9,1.1C430.8,275.5,432.6,275.1,432.9,273.5z" />
	<path fill="#241D1E" d="M157.1,566.2c3.9-2.8,9.1-4.7,13.8-5.7c-0.2,0.6-0.3,1-0.4,1.4c-4.1,1.8-8.5,2.9-12.3,5.4   C157.9,567,157.5,566.6,157.1,566.2z" />
	<path fill="#17203F" d="M541.9,426.2c-0.1,2-0.4,4.1,0.7,6c0.7-0.1,1.4-0.1,2.1-0.2c0.5,0.2,1,0.5,1.5,0.7   c-1.3,1.1-2.9,0.7-4.4,0.8c-1.5-1.9-1.5-4-1.6-6.4c-0.5,0.2-0.9,0.4-1.3,0.5c-0.6-1.4-1.1,0.7-1.5,1.3c-0.1-0.9-0.1-1.9-0.2-2.8   C538.8,426.2,540.4,426.2,541.9,426.2z" />
	<path fill="#2C2523" d="M674.8,541.5c-0.3-4.4-0.3-8.9,0.1-13.7c2.4,4.4,1,9,1.5,13.6C675.9,541.5,675.3,541.5,674.8,541.5z" />
	<path fill="#425CB4" d="M489.1,417.4c-2.1-0.4-4.2-0.8-6.3-1.1c-0.5-1.3,0.2-2.2,0.9-3.3c2.2,0.9,4.1,2.4,6.1,3.6   C489.6,416.9,489.4,417.2,489.1,417.4z" />
	<path fill="#14172C" d="M582.6,455.3c2.6-1.9,4.8-5.2,7.7-6.3c0.3,2.8-5.2,4.8-6.9,7.1C583.2,455.8,582.9,455.5,582.6,455.3z" />
	<path fill="#2F3535" d="M513.2,151.3c-2.9,0.2-5.5,1.4-8.5,0.7c0.6-0.7,1.1-1.3,1.5-1.8C508.5,151.1,512.1,148.6,513.2,151.3z" />
	<path fill="#425EB9" d="M462.8,499.1c-0.3-0.3-0.6-0.5-0.9-0.8c3-1.1,6-2.3,9-3.4c0.3,0.2,0.5,0.5,0.8,0.7   C469.2,497.7,465.8,498,462.8,499.1z" />
	<path fill="#213838" d="M205.7,595.4c1.6-0.1,3.5,0.7,4.8-0.5c3.3-0.2,6.7,0.4,9.9-0.7c0,0.4-0.1,0.8-0.1,1.2   C215.6,594.7,209.7,597.8,205.7,595.4z" />
	<path fill="#D6BCAE" d="M520.7,215.9c-1.2-1.5-2.9-1.9-4.6-2.5c1.1-0.7,2.3-1.4,3.6-2.2c0.7,0.8,1.4,1.6,2.2,2.5   C521.5,214.5,521.1,215.2,520.7,215.9z" />
	<path fill="#311D1B" d="M225.3,573.7c2.2,0.2,4.5,0.5,6.7,0.7c0,0.1,0,0.3,0,0.4c-4.1,0.8-8.3,0-12.5,0.4   C220.9,573.3,223.7,575.3,225.3,573.7z" />
	<path fill="#3A509E" d="M527.7,492.6c0.6,0,1.1,0,1.7,0.1c-2.2,1.9-4.5,3.8-6.6,5.9c-0.3-0.3-0.6-0.6-0.8-0.8   C523.9,496,525.4,493.6,527.7,492.6z" />
	<path fill="#324484" d="M556.5,417.4c-0.1-1.3,0.1-2.6-0.7-3.7c0.4-1.4,0.9-2.7,0.1-4.2c-0.8-1.6,0.5-2.9,1-4.3   C557,409.2,557.8,413.8,556.5,417.4z" />
	<path fill="#2D2F2F" d="M501.2,152.9c0.5,0.7,0.7,1,0.8,1.2c-4.8,3.7-4.8,3.7-6.1,3.3C497,155.5,499.4,154.6,501.2,152.9z" />
	<path fill="#1C1D36" d="M470,496.8c1.9-1.7,4.5-1.9,6.9-2.7c-1.2,1.7-2.1,2.2-6.1,3.5C470.6,497.4,470.3,497.1,470,496.8z" />
	<path fill="#141B34" d="M478.9,409.1c-0.9,1.9-1.3,2.8-2.7,4.8c-0.8-2.7,0.5-3.8,1.3-6.1C478,408.3,478.5,408.7,478.9,409.1z" />
	<path fill="#BCA59C" d="M492.8,155.8c1.7-1.3-0.3-3.8,1.4-5.1c0.4,3.4-0.7,6.8,0,10.3C492.9,159.5,492.8,157.7,492.8,155.8z" />
	<path fill="#2F2F2F" d="M500,152.1c-0.7,0.4-1.1,0.6-1.5,0.8c-0.9-1.4-1.6-2.7-2.5-4C498.2,147.5,498.9,150.7,500,152.1z" />
	<path fill="#161818" d="M517.4,146.8c-1.1,0.8-2.2,1.6-3.4,2.6c-0.5-0.4-0.9-0.8-1.4-1.2C514.1,146.9,515.6,146.7,517.4,146.8z" />
	<path fill="#283B74" d="M531.6,429.7c-1.2,0.6-2,1.2-2.1-0.8c1.1-0.9,0.2-2.1,1.6-3C531.8,427.3,531.4,428.6,531.6,429.7z" />
	<path fill="#303D78" d="M505.3,424.8c0.3,1.1,0.5,2.2,0.8,3.4c-0.3,0.3-0.6,0.6-0.8,0.8c-0.6-0.3-1.3-0.5-2.5-1   c1-0.3,1.5-0.5,2-0.7c0-1.1-0.8-2.2-1.1-3.2C504.2,424.3,504.8,424.5,505.3,424.8z" />
	<path fill="#2C2E2E" d="M504.4,133.4c-1.2,1.3-1.7,1.9-2.3,2.6c-0.6-0.9-1.1-1.7-1.9-2.8C501.5,133.3,502.6,133.3,504.4,133.4z" />
	<path fill="#2F3030" d="M529.2,137.9c-1.1,0.7-2.1,1.2-3.3,1.9c-0.2-1.8,1-2.2,1.8-3.2C528.3,137.1,528.7,137.5,529.2,137.9z" />
	<path fill="#25335D" d="M557.9,395c0.8-0.4,1.3-0.6,1.8-0.8c0.5,1.3-0.9,2-1.5,3.1C557.6,396.5,557.9,396.1,557.9,395z" />
	<path fill="#AEA194" d="M446.8,564.2c-0.5-1.2-1.6-0.5-2.4-0.9c1.4-0.9,2.9-0.7,4.5-0.7C448.5,563.8,447.8,564.1,446.8,564.2z" />
	<path fill="#1C274C" d="M489.1,417.4c0.2-0.3,0.5-0.5,0.7-0.8c0.9,0.5,1.8,1,2.8,1.5C491.3,418.4,490.1,418.3,489.1,417.4z" />
	<path fill="#818D98" d="M507.4,518.9c0.5-0.9,1.2-1.5,2.2-1.5c-0.4,1.1-1.1,1.8-2.2,2.3C507.5,519.4,507.4,519.2,507.4,518.9z" />
	<path fill="#060505" d="M201.9,544.4c-0.5-0.7-1.1-1.4-1.6-2l0.2-0.2c0.2,0.1,0.4,0.1,0.7,0.1C201.4,543,201.7,543.7,201.9,544.4z" />
	<path fill="#D1B9AF" d="M501.7,15.6c0.8,0.3,0.7,0.9,0.6,1.6c-0.2-0.1-0.4-0.2-0.6-0.3C501.7,16.4,501.7,16,501.7,15.6z" />
	<path fill="#010101" d="M442.5,219.4c-0.3,0.5-0.5,1-0.8,1.5C441.7,220.3,441.6,219.6,442.5,219.4z" />
	<path fill="#727474" d="M509.6,517.5c0.3-0.3,0.6-0.5,0.9-0.8C510.2,516.9,509.9,517.2,509.6,517.5z" />
	<path fill="#283B74" d="M532.1,429.6c-0.1,0.2-0.1,0.4-0.2,0.6c-0.1-0.2-0.2-0.3-0.4-0.5C531.7,429.6,531.9,429.6,532.1,429.6z" />
	<path fill="#EECABA" d="M467.1,150.6c0.5,3.4,0.6,12.8-4.9,8.6c-0.6-0.6-1.1-1.3-2.1-1l-0.1-0.2c0.2-2.1,2.2-3.5,2.6-6.1   c-2.4,0.3-3.2,1.7-4.7,3.3c-0.3-2.1-0.8-3.2-2.9-5.4c-0.1,0.6-0.1,1.2-0.2,1.8c-6.1-22.7,0.1-46,4.9-67.9c9-14.8,6.5-32.4,8.2-48.5   c-1.5-2.9-1.1-6.2-1.4-9.3c9.5,0.9,3.7,19.4,3.9,25.9c-0.5,31.8-18.8,64-3.8,95.3C465.8,149,464.8,149.5,467.1,150.6z" />
	<path fill="#F1D7CB" d="M454.7,151.6c0.1-0.6,0.1-1.2,0.2-1.8c4.6,4.2,2.6,7.6-1.4,10.7C452.4,157.2,455.2,154.7,454.7,151.6z" />
	<path fill="#DBC2B7" d="M462.9,25.7c2.1,0.9,1,3.7,1.2,5.5C461.5,31.4,461.3,26.8,462.9,25.7z" />
	<path fill="#2E3030" d="M447.8,166.8c-0.5,0-1-0.1-1.7-0.1c0.3-1.5,0.6-2.6,1.8-3.3C450,163.6,448.2,165.7,447.8,166.8z" />
	<path fill="#2B2D2D" d="M445.2,169.8c0.3,0.3,0.6,0.6,0.9,1c-0.6,1.4-1.1,2.3-2.5,2.6C444,171,444,171,445.2,169.8z" />
	<path fill="#6A655F" d="M461.3,24.5c-1-0.7-1.9-1.4-2.9-2.1c0.3-0.3,0.5-0.5,0.8-0.8c1.2,0.5,2,1.4,2.4,2.7   C461.5,24.2,461.3,24.5,461.3,24.5z" />
	<path fill="#BFB8AE" d="M459.1,21.5c-0.3,0.3-0.5,0.5-0.8,0.8c-0.7-0.6-1.4-1.2-2.3-2C457.7,20,458.3,21,459.1,21.5z" />
	<path fill="#353636" d="M450.4,147c-0.1,1-0.2,1.5-1,2.2C448.5,148,450,147.5,450.4,147z" />
	<path fill="#6A655F" d="M462.9,25.7c-0.9,0.2-0.6,1.1-0.9,1.6c-0.9-0.8-0.6-1.9-0.7-2.9c0,0,0.3-0.2,0.3-0.2   C462,24.7,462.4,25.2,462.9,25.7z" />
	<path fill="#DBC4BA" d="M482.4,10.8c-2.1,1.2-3.8,1.1-5.9,1c-0.2-1.2-0.3-2.5-0.5-3.9c1.7-1,3.4-1,5.4-0.6   C481.7,8.5,482.1,9.6,482.4,10.8z" />
	<path fill="#D4BEB4" d="M461.7,3.5c1-0.3,2-0.6,3.1-0.9c1.2,1.3,1,2.9,1.7,4.4C462.8,6.4,462.6,6.2,461.7,3.5z" />
	<path fill="#D1B9AF" d="M502.3,17.8c0.3-0.5,0.5-1,0.8-1.5c0.9,1.5,0.9,2.9-0.8,4.4C502.3,19.4,502.3,18.6,502.3,17.8z" />
	<path fill="#828B83" d="M454.9,6.2c-0.1-0.2-0.1-0.5-0.2-0.7c0.9,0,1.7,0,2.6,0c0,0.2,0,0.3,0,0.5C456.5,6.1,455.7,6.1,454.9,6.2z" />
	<path fill="#D1B9AF" d="M502.9,14.2c-0.2-0.3-0.3-0.6-0.5-0.9C502.6,13.6,502.7,13.9,502.9,14.2z" />
	<path fill="#CACBD8" d="M186,551.3c-1.8-2.2-5.8-0.5-8.4-1.1c3-1.1,5.9-0.5,9-0.8c-2.3-3.1-7.7-1.4-11.7-1.2   c6.3-4.5,11.3-11.2,19.2-7.4C192.5,543.7,188.4,549,186,551.3z" />
	<path fill="#0B0A0A" d="M186,551.3c2.5-2.3,6.5-7.6,8-10.5c0.8,0.1,1.7-0.3,2.1,0.8c-4.3,9.1-12.5,19.6-23.6,19.6   C177.3,557.8,182.4,555.9,186,551.3z" />
	<path fill="#2C272A" d="M167.7,554.7c3,1.5,8.2-4.7,11.7-3c-4.6,2.4-9.8,6.5-15.3,4.8c-0.3-1.1-0.5-2.4,0.5-3.5   c0.1,0.9,0.2,1.8,0.3,3.1C165.9,555.6,166.8,555.2,167.7,554.7z" />
	<path fill="#2C272A" d="M168.3,554c-0.2,0.3-0.4,0.5-0.7,0.8C167.9,554.5,168.1,554.2,168.3,554z" />
	<path d="M201.2,542.3c-0.2,0-0.4,0-0.7-0.1c0-0.2-0.1-0.4-0.1-0.7l0,0C200.7,541.8,201,542,201.2,542.3z" />
	<path d="M200.5,541.5c-0.2-0.1-0.3-0.2-0.5-0.3C200.1,541.3,200.3,541.4,200.5,541.5L200.5,541.5z" />
	<path fill="#050404" d="M494.2,274.9c3,7.6,2.2,16.2-0.3,23.9c-2.8-5-0.3-11.2-2.7-16.4c-0.9-1.7-0.9-1.7,0.2-4.2   c-0.5-1.1-1.2-2.4-1.7-3.6C490.6,272.1,492.9,274.1,494.2,274.9z" />
	<path fill="#050404" d="M457.1,224.4c3.7-6.4,14.8,18.6,11,21.8C464.1,239,461,231.6,457.1,224.4L457.1,224.4z" />
	<path fill="#151312" d="M490.2,197.5c-1.2-6.3,1-12.5-0.5-18.9C494.5,175.9,493.7,196.7,490.2,197.5z" />
	<path fill="#14100F" d="M467.1,150.6c-3.8-0.7,2.9-9.7,3.7-12.7C472.8,141.9,470.6,147.9,467.1,150.6   C467.1,150.6,467.1,150.6,467.1,150.6z" />
	<path fill="#161313" d="M485.2,36c-2-1.1-1.9-11-1.4-13.4C487.6,25,486.4,32.2,485.2,36z" />
	<path fill="#342C2A" d="M488.5,66.2c-2.1-1.6-3.3-5.1-0.9-6.6C489.4,61,489.6,62.5,488.5,66.2z" />
	<path fill="#26201E" d="M492.8,155.8c0,1,0.1,2,0.1,3c-0.3,0.2-0.5,0.4-0.8,0.7c-1.2-1.7-2.4-4.5-2.8-6.7   C491.1,151.5,491.9,154.9,492.8,155.8z" />
	<path fill="#352F2D" d="M486.6,50.7c1.3,2.2,1.3,2.2,0.9,4.8C485.4,55.7,485.1,52.5,486.6,50.7z" />
	<path fill="#2C2322" d="M487.3,215.9c0.1,1.5,2.2,2.9,0,4.8C486.1,219.6,485.3,216.1,487.3,215.9z" />
	<path fill="#251F1E" d="M492.6,310c0.6,1.4,0.5,2.7-0.7,3.8C489.8,312.9,489.8,309.9,492.6,310z" />
	<path fill="#322D2B" d="M485.7,48.3c-0.5-2.3-0.9-3.9-0.9-5.9C487.4,43.2,487.2,45.8,485.7,48.3z" />
	<path fill="#221D1C" d="M483.2,141.3c-1.7-0.8-3.2-3.4-1.3-4.4C484,136.9,483.5,139.7,483.2,141.3z" />
	<path fill="#423533" d="M472.9,261.7c-1.9-1-1.9-1-3.2-3.3C470.8,256.3,473.5,260.2,472.9,261.7z" />
	<path fill="#2E2725" d="M488.3,199.5c0.4,2.6-0.4,4.4-1.6,6.3C485.8,203.1,486.1,202.1,488.3,199.5z" />
	<path fill="#050605" d="M485.4,144.6c1.6,1.7,1.6,3.1,1.1,4.5C484.5,149.4,484.9,146.4,485.4,144.6z" />
	<path fill="#473D3A" d="M468.2,250c1.3,1.2,2.2,2.2,1.8,3.9C467.6,252.7,467.1,251.8,468.2,250z" />
	<path fill="#060202" d="M494.4,305.9c-0.2-1.4-0.3-2.8,0.6-4C496.9,302.4,496.4,305.9,494.4,305.9z" />
	<path fill="#2A2523" d="M489.5,322.5c-1.4-2.4-1.4-2.5,0.4-3.9C491.3,320.8,491.3,320.9,489.5,322.5z" />
	<path fill="#261E1D" d="M471.6,264.6c2,0.3,2,0.3,2.9,1.9c-0.3,0.3-0.6,0.5-1.1,1C472.8,266.6,472.3,265.9,471.6,264.6z" />
	<path fill="#171414" d="M486.9,207.9c0,1.3,0,2.4,0,4.1C485.3,210.7,484.8,209.1,486.9,207.9z" />
	<path fill="#0F0B0A" d="M471,131.5c0.8,1.7,0.1,3-0.6,4.7C469.7,134.2,469.7,132.9,471,131.5z" />
	<path fill="#473936" d="M450.6,8.3c-0.2-1.4,0.3-2,1.8-2.2C452,7.3,452.2,8.3,450.6,8.3z" />
	<path fill="#141413" d="M472.2,127.6c-0.6-2-0.6-2,0.8-1.9C472.7,126.4,472.4,127,472.2,127.6z" />
	<path fill="#9F8C85" d="M473.5,123.3c-0.7-0.5-0.1-1.1,0.1-1.7C474.8,121.9,474.2,123,473.5,123.3z" />
	<path fill="#EECABA" d="M457.1,224.4c0.2,0.5,0.4,1,0.7,1.5C456.9,225.7,456.9,225.1,457.1,224.4z" />
	<path fill="#EECABA" d="M467.1,150.6c0.3-0.1,0.5-0.3,0.8-0.4C467.7,150.3,467.4,150.4,467.1,150.6z" />
	<path fill="#010203" d="M547.7,460.6c8.4-13.5,16-27.8,23.3-41.8c2.3,3.9-2.9,9.3-4.1,13.3c-6.9,14.2-16.3,27.2-23.3,41.3   c2.5-2.4,4-5.6,6.2-8.4v0c14.8-17.4,27.9-36.3,40.1-55.6c0.8,0.2,0.7,0.9,0.8,1.5c-13.6,26.6-33.8,49.1-52.6,72.1   c-0.6-0.3-1-0.5-1.4-0.7C540.2,474.9,543.8,467.7,547.7,460.6z" />
	<path fill="#020205" d="M484.1,449.5c0.1,2.1,2.8,5.5,0.4,6.9c-6.8-11.2-12.1-23.7-22.4-32.2C467.7,417.5,481.8,444.7,484.1,449.5z   " />
	<path fill="#030306" d="M526.4,493.2c-13,11.1-23.9,24.6-37.3,35.1c7.5-15.1,24-24.7,36.4-35.9C525.8,492.7,526.1,493,526.4,493.2z   " />
	<path fill="#0C0A11" d="M385.5,539.3c-0.2-0.3-0.3-0.6-0.5-0.9c23.2-1.1,45.5-9.9,67.4-17.4c0.3,0.3,0.6,0.5,0.9,0.8   C431.6,530.1,409.1,539.3,385.5,539.3z" />
	<path fill="#050408" d="M471.1,460.3c-1.3-0.5-2.6-1-3.8-1.4c-0.3-5.3,23.2,4.5,23.5,8.1c-0.3,0.3-0.6,0.6-1,0.9   C484,464.5,477.6,461.9,471.1,460.3z" />
	<path fill="#111220" d="M504.4,496.4c11-8.9,23.6-16.5,32.2-27.7C536.3,475.3,511.1,495,504.4,496.4z" />
	<path fill="#090A13" d="M541.8,436.4c-6.7,3.4-17.3-1.9-23.2-5.4c5.8-0.3,12.9,4.9,19.8,3.5C539.8,434.4,541.6,434.7,541.8,436.4z" />
	<path fill="#21294B" d="M537.3,472.1c1.6-9.4,8.2-17.5,8.9-27.1c4.5,1.7-7.4,22.7-8.1,27.9C537.8,472.6,537.6,472.3,537.3,472.1z" />
	<path fill="#151526" d="M416.7,543.6c8.6-1.9,16.7-5.3,24.8-8.8c0.3,0.2,0.6,0.5,0.9,0.7c-7.8,4.1-16,7.7-24.8,8.8   C417.2,544.1,416.9,543.9,416.7,543.6z" />
	<path fill="#292950" d="M448.3,495.6c-5.8,0.7-10.6,1.4-16.4-0.8c7.7-0.2,14.7,0.6,21.5-1.6c0.4,0.2,0.9,0.5,1.3,0.7   C452.5,494.5,450.4,495.1,448.3,495.6z" />
	<path fill="#111323" d="M471.6,479.4c-0.2,0.9-0.8,0.7-1.4,0.6c-2.9-3.5-7.1-5.8-10.8-8.4C461.4,469.4,470,477.2,471.6,479.4z" />
	<path fill="#111428" d="M526.4,493.2c-0.3-0.3-0.6-0.5-0.9-0.8c3.1-3.2,6.2-6.9,9-10.1C534.1,486.7,529.7,490.7,526.4,493.2z" />
	<path fill="#161526" d="M453.3,521.7c-0.3-0.3-0.6-0.5-0.9-0.8c3.7-1.7,7.4-3.4,11.1-5.1c0.3,0.3,0.6,0.5,0.8,0.8   C460.8,518.7,457.2,520.4,453.3,521.7z" />
	<path fill="#4053A3" d="M454.6,493.9c-0.4-0.2-0.9-0.5-1.3-0.7c4.4-1.3,8.5-3.1,13.2-3.5l0,0C462.8,491.6,458.6,492.4,454.6,493.9z   " />
	<path fill="#292E52" d="M464.3,516.6c-0.3-0.3-0.6-0.5-0.8-0.8c3.2-1.4,6.7-4.7,10-4.7C470.6,513.4,467.4,514.9,464.3,516.6z" />
	<path fill="#1F2345" d="M505.3,429c0.3-0.3,0.6-0.6,0.8-0.8c2.7,0.8,5.5,1.5,7.6,3.5C510.7,431.4,508.1,429.9,505.3,429z" />
	<path fill="#242747" d="M442.3,535.6c-0.3-0.2-0.6-0.5-0.9-0.7c2-0.7,3.8-2.8,5.9-2.4C445.9,533.9,444.2,534.8,442.3,535.6z" />
	<path fill="#121932" d="M537.5,429c1.7-4.4,1.9,1.3,1,3C536.9,431.4,537.5,430.1,537.5,429z" />
	<path fill="#314281" d="M537.3,472.1c0.3,0.3,0.5,0.5,0.8,0.8c-0.3,0.8-0.5,1.7-0.8,2.5C536.5,474.2,536.3,473.1,537.3,472.1z" />
	<path fill="#2E3560" d="M491.3,485.2c-0.2-0.2-0.5-0.5-0.7-0.7c0.7-0.9,1.7-1,3.1-1.7C493,484.3,492.2,484.8,491.3,485.2z" />
	<path fill="#130C14" d="M416.7,543.6c0.3,0.2,0.6,0.5,0.8,0.7c-1,0.1-2.1,0.1-3.7,0.2C415,543.5,415.8,543.6,416.7,543.6z" />
	<path fill="#324477" d="M489.8,467.8c0.3-0.3,0.6-0.6,1-0.9c0.8,0.7,0.8,1.4,0,2.1C489.9,469.1,489.9,468.4,489.8,467.8z" />
	<path fill="#4B65C5" d="M483.2,447.5c-0.2-0.3-0.3-0.6-0.5-0.9C482.9,446.9,483,447.2,483.2,447.5z" />
	<path fill="#4053A3" d="M466.5,489.7c0.1-0.2,0.2-0.3,0.3-0.5C466.7,489.3,466.6,489.5,466.5,489.7   C466.5,489.6,466.5,489.7,466.5,489.7z" />
	<path fill="#B6BCD4" d="M508.2,330.4c1.5,0,2.9,0,4.4,0c3.8,3.7,9.4,7.9,8.7,13.7c-0.9-0.6-2.8-2.2-2.9-0.1   c0.6,0.5,1.3,1.1,2.1,1.7c-3.8,0.2-6.6-1.5-8.7-4.4c0.9,0.4,1.8,0.9,2.8,1.4C515.3,338,508.2,341.4,508.2,330.4z" />
	<path fill="#0B0B0C" d="M544.2,322.6c6.2,6-7.9,25.4-14.1,29.1C534.4,340.9,543.2,335.4,544.2,322.6z" />
	<path fill="#B5BBD3" d="M528.4,400.7c4.6,4.9,10.3,12.9,7.2,20c-0.6,0.3-1.2,0.7-1.9,1c-0.3-4.5,1.4-10.9-3.5-13.3   c-0.1,5.2-0.3,10-0.1,14.8c-1.1-1.1-0.8-2.6-0.7-4c0.5-5.2-2.6-9.9-2.1-15.1c0.4,0.2,0.7,0.5,1.1,0.7   C529.5,403.3,528.7,402,528.4,400.7z" />
	<path fill="#070707" d="M530,423.2c-0.2-4.8,0.1-9.6,0.1-14.8c5,2.5,3.2,8.8,3.5,13.3c-0.6,0.8-1.1,1.6-1.8,2.5   C531.2,423.8,530.6,423.5,530,423.2z" />
	<path fill="#B5BAD1" d="M502.2,342.9c1.8,0.3,3.7,0.5,5.7,0.8c1.9,2.6,6.3,4.6,6.8,8c-2.6-0.4-5-0.9-6.7-3.1c-0.7,0-1.4,0-2.3,0   C504.1,347,503.1,345,502.2,342.9z" />
	<path fill="#181719" d="M508.2,330.4c0,11.1,7,7.5,6.4,12.3c-8-1.9-10.6-11.6-7.6-18.5C508.3,326.4,507.7,328.5,508.2,330.4z" />
	<path fill="#B4BAD2" d="M500.8,359.1c2.2-2.4,2.4-2.3,7.7,0.5C513,367.7,501.4,365.1,500.8,359.1z M502.2,359.4   c1.5,0.9,2.6,2.1,4.5,1.5C505.5,358.4,504.3,358,502.2,359.4z" />
	<path fill="#161416" d="M502.2,342.9c0.8,2.1,1.9,4.1,3.4,5.8c0.8,0,1.5,0,2.3,0c0.8,0.7,1.6,1.4,2.4,2.2c-0.3,0.3-0.6,0.6-0.9,0.9   c-1.6-0.8-3.1-1.9-5-1.6c-2.6-1.9-4.4-4.2-4.3-7.5C501.2,341.7,501.7,342.5,502.2,342.9z" />
	<path fill="#AFBBD3" d="M504.5,350.1c3.7-0.6,7.6,4.7,10.9,2.2c0.2,0.2,0.5,0.4,0.8,0.8c-0.9,0.7-1.8,1.3-2.8,2.1   C509.5,355.5,506.7,353.3,504.5,350.1z" />
	<path fill="#393A40" d="M531.2,356.7c1.9,2.6,0.3,4.5-0.7,6.4C528.5,361.6,530,358.7,531.2,356.7z" />
	<path fill="#333236" d="M526.2,399c-1.5-2-1.6-4.1-1.9-6.9C526.9,394.2,526.8,395.2,526.2,399z" />
	<path fill="#313036" d="M515.4,352.4c-1.4,1.6-4.2-0.1-5.9-0.7c0.3-0.3,0.6-0.6,0.9-0.9C512,351.4,514.1,351.2,515.4,352.4z" />
	<path fill="#151215" d="M528.4,400.7c0.3,1.3,1.2,2.6,0,4.1c-0.4-0.2-0.7-0.5-1.1-0.7c0-1,0-2,0-3.3   C527.6,400.7,528,400.7,528.4,400.7z" />
	<path fill="#303034" d="M528.9,372.9c-0.6-1.9-0.7-3.3-0.2-4.7C531,367.7,530.6,371.6,528.9,372.9z" />
	<path fill="#342C31" d="M520.5,345.8c-0.7-0.6-1.4-1.2-2.1-1.7c0.2-2.5,2.9-0.1,3.6,1c-0.3,0.3-0.5,0.6-0.8,0.9   C521,345.8,520.8,345.8,520.5,345.8z" />
	<path fill="#363136" d="M527.4,378.5c-0.3-1.4-0.3-1.4,0.8-2.5C528.7,377.4,528.7,377.4,527.4,378.5z" />
	<path fill="#818D9B" d="M521.2,345.9c0.3-0.3,0.5-0.6,0.8-0.9c0.7,0.3,1.5,0.6,1.2,2C522.5,346.6,521.9,346.3,521.2,345.9z" />
	<path fill="#EAC7B7" d="M671.6,394c-2.4,0.6-4.4-1.6-6.5-0.9c1.8-3.7,1.8-7.6,1.7-11.6c1.1,0.5,0.4,1.8,1,2.7   c3.6,1.4,5.8,4.2,4.8,8.2c-0.5-0.1-1-0.2-1.8-0.4C671.2,392.9,671.4,393.4,671.6,394z" />
	<path fill="#0C0A0A" d="M663.7,423.2c0.3-0.5,0.6-0.9,0.9-1.4c5.3,1.6,5.9,10.7,4.4,15.3C667.3,432.4,665.5,427.8,663.7,423.2z" />
	<path fill="#0D0C0B" d="M666.8,381.5c0.1,4,0.1,7.9-1.7,11.6c-2.5-3.7-0.6-9.4-2.3-13.7C663.3,375.1,666.5,379.2,666.8,381.5z" />
	<path fill="#201B1A" d="M672,454.8c-0.4-3.5-0.4-6.4-0.1-9.8C674.2,446.3,673.7,452.9,672,454.8z" />
	<path fill="#36312E" d="M696.1,524.5c1.7,3.4,2,4.6,2,7.3C696,530.2,695.5,527.6,696.1,524.5z" />
	<path fill="#4D403B" d="M676.3,510.1c0,1.8-0.1,3.5-0.1,5.6c-1.5-2-1.7-3-1.2-7c0.5,0.3,0.8,0.6,1.2,0.8   C676.1,509.7,676.2,509.9,676.3,510.1z" />
	<path fill="#2F2725" d="M671.6,394c-0.2-0.5-0.4-1.1-0.7-2c0.8,0.2,1.3,0.3,1.8,0.4c1.2,1.7,3,3.3,2.1,5.5   C673.5,396.4,672.5,395.2,671.6,394z" />
	<path fill="#050605" d="M670.7,463.7c0.6,2.3,0.6,3.9-0.6,5.7C668.6,467.6,668.7,465.7,670.7,463.7z" />
	<path fill="#2B2726" d="M676.9,505.5c-1.5-1-1.9-2.8-2.7-4.3C675.9,498.4,677.2,504,676.9,505.5z" />
	<path fill="#232322" d="M669.1,437c0.9-1.6,0.6-3.4,0.7-5.2c1,2.4,0.8,4.8,0.7,7.5C669.3,438.6,669.1,437.9,669.1,437z" />
	<path fill="#3D302E" d="M660.9,399c0.2-1.4,0.5-2.4,1.7-2.9C663.3,398.2,663.1,398.6,660.9,399z" />
	<path fill="#4E4744" d="M672.2,457.3c0.7,1.3,0.6,2.3-0.2,3.2C670.8,459.2,670.8,459.1,672.2,457.3z" />
	<path fill="#3F312F" d="M658.9,402.9c0.4-0.3,0.7-0.6,1.1-1C660.1,403.5,660.1,403.5,658.9,402.9z" />
	<path fill="#EECABA" d="M676.9,503.7c-0.2-0.8-0.5-1.6-0.7-2.4C677.4,501.9,676.9,502.8,676.9,503.7z" />
	<path fill="#EAC7B7" d="M673.3,393.2c-0.2-0.2-0.4-0.5-0.6-0.7C672.9,392.7,673.1,392.9,673.3,393.2z" />
	<path fill="#0D0808" d="M329.4,553.4c6.6-0.6,20,5.1,21.8,6.9C349.5,563,329.7,556,329.4,553.4z" />
	<path fill="#130A09" d="M400,573.6c1.9,0,4,0,5.7,1c-0.5,4-6.5,1.3-9.3,2C393.2,574.4,398.4,574,400,573.6z" />
	<path fill="#3E322F" d="M316.8,552.1c3-0.5,4.1-0.3,9.3,1.6C323,555,319.6,554.2,316.8,552.1z" />
	<path fill="#2C2321" d="M387.2,573.3c3.3-1,3.5-0.9,4.4,0.7C388.9,574.9,388.3,574.9,387.2,573.3z" />
	<path fill="#352D2B" d="M244.3,574.5c-0.5-0.2-1.2-0.3-1-1.3c1.2-0.6,2.5-0.6,4.1-0.1c-0.3,0.5-0.6,1-0.9,1.4   C245.8,574.5,245,574.5,244.3,574.5z" />
	<path fill="#3A0E0E" d="M375.9,581.6c0.9,0,1.9,0.1,2.7,0.1c0.3,0.8-0.4,0.9-0.6,1.3c-0.9-0.1-1.8-0.3-3-0.5   C375.4,582,375.6,581.8,375.9,581.6z" />
	<path fill="#411E1C" d="M315,551.9c-1.2,0.5-2.3,0-4-0.4C312.9,550.7,314,551,315,551.9z" />
	<path fill="#654845" d="M371.4,583.3c-0.6,1.5-1.6,1.4-2.8,1.3C369.1,583.4,369.1,583.4,371.4,583.3z" />
	<path fill="#73605B" d="M364.9,586.1c0-0.5,0-0.9,0-1.4c0.7,0.1,1.3,0.1,2.1,0.2C366.8,586.4,365.8,586.1,364.9,586.1z" />
	<path fill="#392D2A" d="M308,550.7c0.9-1.2,1.5-0.9,2-0.1C309.4,551.5,308.8,551.6,308,550.7z" />
	<path fill="#633A37" d="M276.8,581.7c0.6,0.2,1.4,0,1,0.9c-0.4-0.1-0.8-0.3-1.2-0.4C276.6,582,276.7,581.9,276.8,581.7z" />
	<path fill="#ECC9B9" d="M244.3,574.5c0.7,0,1.4,0,2.2,0c-0.5,0.9-1.4,0.5-2.2,0.6l0,0C244.3,574.9,244.3,574.7,244.3,574.5z" />
	<path fill="#EECABA" d="M395.6,576c0.2,0.2,0.4,0.3,0.7,0.5C396.1,576.4,395.9,576.2,395.6,576z" />
	<path fill="#161110" d="M456.9,157.3c1.1-2.6,2.6-4.8,5.6-5.3c-0.4,2.5-2.3,4-2.6,6.1c-0.4,0.4-0.7,0.9-1.1,1.3   C457.4,159.4,456.8,158.7,456.9,157.3z" />
	<path fill="#796159" d="M448.1,288.2c-2.4-0.3-2.5-0.3-4.1-2.4C445.2,284.4,446.9,287.6,448.1,288.2z" />
	<path fill="#443E39" d="M449.3,289c1.6-0.7,2.7-0.2,3.9,0.9c-0.2,0.3-0.4,0.6-0.5,0.9C450.5,290.5,450.5,290.4,449.3,289z" />
	<path fill="#5876E7" d="M465.1,475.8c2,1.4,4.7,2.8,5.4,5.4c-10.1,4.5-21.8,6.5-31.9,11.4c-0.3-0.4-0.5-0.7-0.7-0.9   c0-4.7,5.3-6.5,8.3-9.3c3.2,0.9,6.3,2.9,9.6,2.7c5.6-2.6-1.5-5.9-4.6-6.3c0.6-1.8,1.7-2.4,3.7-2.4c-0.9-0.8-1.5-1.4-2.2-2   C456,472.4,461.1,476.4,465.1,475.8z" />
	<path fill="#0A0B15" d="M464.4,416.7c4,2.6,7.9,4.1,10.4,7.7C471.3,424.1,464.5,420.5,464.4,416.7z" />
	<path fill="#14162A" d="M452.6,474.3c0.7,0.6,1.3,1.2,2.2,2c-0.6,0.1-1,0.2-1.4,0.2c-3.4-2.1-6.9-3.7-10.1-6.1   C446.6,468.9,449.6,473.2,452.6,474.3z" />
	<path fill="#141528" d="M458.7,435c-3.2-1.2-6.4-2.3-9.8-3.6C452,429.4,456.4,432.2,458.7,435z" />
	<path fill="#4B64C4" d="M549,464c5.7-9.7,11-19.7,16.8-29.3c0.2,0.2,0.3,0.3,0.6,0.6c5.8-7.5,12.2-16.1,20.1-20.9   c-10.6,17.9-23.3,34.5-36.5,50.4v0C549.6,464.6,549.3,464.3,549,464z" />
	<path fill="#0D101D" d="M564.7,394.6c0.1,6.1,1.7,13.7-0.8,19.3C564.2,407.8,562.2,399.9,564.7,394.6z" />
	<path fill="#151A2F" d="M590.8,410.8c-0.1-0.6,0-1.3-0.8-1.5c2.4-4,3.1-9.5,6.6-12.6C595.3,401.6,593.6,406.5,590.8,410.8z" />
	<path fill="#131729" d="M571.8,420.4c-0.2-0.6,0-1.4-0.8-1.6c0-0.2-0.1-0.5-0.1-0.7c1.8-3.9,2.2-8.8,5.1-12   C575.3,411,574.1,415.9,571.8,420.4z" />
	<path fill="#4B65C5" d="M571.7,415.9c-0.2,0.5-0.4,1.1-0.6,1.6C571,416.8,570.9,416.2,571.7,415.9z" />
	<path fill="#4B65C5" d="M570.9,418.1c0,0.2,0.1,0.5,0.1,0.7c-0.2,0.2-0.5,0.5-0.7,0.7C570.2,418.9,570.2,418.4,570.9,418.1z" />
	<path fill="#0B0807" d="M316.3,584.9c11-1.3,22.6-4.2,33.4-3.1C340,586.2,327.1,587.5,316.3,584.9z" />
	<path fill="#130C0B" d="M396.7,582.4c-3.3,3.6-13.5,3.3-16.8-0.1C386,582.8,390.7,581.3,396.7,582.4z" />
	<path fill="#070303" d="M220.4,594.2c-1.6,0.5-11.4,2-10.2-0.7c3.5-1.3,7.5,0.4,11.9-1.1C221.2,593.4,220.8,593.8,220.4,594.2z" />
	<path fill="#4F3B37" d="M306.6,584.8c2.7-0.8,5.3-1.1,8.2-0.9C313.2,585.4,308.4,587.5,306.6,584.8z" />
	<path fill="#423531" d="M350.8,590.3c1.7-1.7,3.5-2.2,5.9-2C355.9,590.1,353.1,590.9,350.8,590.3z" />
	<path fill="#6E5A53" d="M295.1,582.1c-1.4,1.4-1.4,1.4-3.8,0.6C292.3,581.5,292.3,581.5,295.1,582.1z" />
	<path fill="#444944" d="M224.6,592.6c1.6-1.5,3.1-1.3,5.1-1.2C228,593.2,227,592.5,224.6,592.6z" />
	<path fill="#231514" d="M304.4,583.4c-1.7,1.1-2.8,1-4.1-0.2C301.7,582.3,302.8,583,304.4,583.4z" />
	<path fill="#473331" d="M237.9,590.7c-1.7,0.7-3.1,0.7-4.9,0.2C234.9,590.2,236.2,590.1,237.9,590.7z" />
	<path fill="#6C423D" d="M238.2,589.8c1.2-0.1,1.7-0.1,2.5-0.1C240,590.9,239.4,590.7,238.2,589.8z" />
	<path fill="#504648" d="M194,556.1c-0.4-0.8-1.3-1.2-0.7-2.2C194.6,554.1,194.6,554.9,194,556.1z" />
	<path fill="#332E33" d="M486.9,373.2c-1.7,0.7-3.8-1.3-4.4-3.1C485.1,370.5,485.5,370.7,486.9,373.2z" />
	<path fill="#211C1F" d="M474.4,364.5c0.4-0.6,0.6-0.8,0.8-1.1c1.8,0.8,3,2,4,4.2C476.9,367.7,476.1,365.7,474.4,364.5z" />
	<path fill="#2B2522" d="M676.5,526.1c-1.7-0.4-1.1-4.5-1.1-6.6C677.8,520.6,677.2,523.6,676.5,526.1z" />
	<path fill="#1E2446" d="M558.5,469.2c-5.7,3.9-9.9,12.2-16.9,13c6.2-4.1,10.7-9.4,16.2-13.7C558.1,468.7,558.3,468.9,558.5,469.2z" />
	<path fill="#131425" d="M578.4,476.6c-3.3,4.6-8.9,9.2-14.7,8.4C569.2,482.7,573.9,480.1,578.4,476.6z" />
	<path fill="#3A4A8E" d="M558.5,469.2c-0.2-0.2-0.5-0.5-0.7-0.7c0.7-1.1,1.4-2.2,3-2.1l0,0C560.7,467.8,559.8,468.6,558.5,469.2z" />
	<path fill="#3A4A8E" d="M560.8,466.3c0.1-0.2,0.2-0.3,0.3-0.5C561,466,560.9,466.1,560.8,466.3   C560.8,466.3,560.8,466.3,560.8,466.3z" />
	<path fill="#0C0A09" d="M516.5,177.8c-0.8,1-1.2,1.4-1.5,1.8c0.2,0.5,0.4,1.1,0.7,1.6c-1,1.2-2.4,1.2-3.6,1.8   c-2.5-1.6-4.7-0.1-7.2-1.7C508.2,178.5,511.7,177.5,516.5,177.8z" />
	<path fill="#5876E8" d="M451.9,512.3c-19.6,9.9-40.3,22.2-62.8,22.5c3.4-4.4,7.1-7.2,11.1-11c0.5,2,1,3.7,1.4,5.2   c7.4,6.2,13-3,15.8-9.1C429.2,518.4,440.2,513.8,451.9,512.3L451.9,512.3z" />
	<path fill="#5876E8" d="M451.9,512.3c0.5-0.6,1-1,1.8-0.2C453,512.1,452.5,512.2,451.9,512.3L451.9,512.3z" />
	<path fill="#1C1718" d="M150.9,558.9c-24.7,1.6-4.3-4.2,3.9-3.2C154.4,557.9,151.4,556.4,150.9,558.9z" />
	<path fill="#0C0405" d="M133.7,568.7c4.5-0.8,8.8-1.3,12.6,0.1C144.5,569.7,137.9,571.6,133.7,568.7z" />
	<path fill="#363033" d="M158.8,558.3c0,1.7-0.8,2.1-1.9,2.3C156.8,559.5,156.8,559.5,158.8,558.3z" />
	<path fill="#080A12" d="M437.9,490.5c0,0.4-0.1,0.8-0.1,1.1c-4.1-2.9-5.8-8.2-9.4-12.1C433.7,478.6,436.3,486.5,437.9,490.5z" />
	<path fill="#362D29" d="M511.6,285.9c-2-0.5-2.4-2.4-3.6-3.8c0.6-0.3,0.9-0.5,1.2-0.6C511.8,283.9,511.8,283.9,511.6,285.9z" />
	<path fill="#0D101E" d="M425.6,502.1c0.5-0.3,0.9-0.6,1.4-1c1.5,1.6,3.2,2.7,3.6,4.8c-1.2,0.9-2-0.1-2.9-0.3   C427.1,504.5,425.6,503.8,425.6,502.1z" />
	<path fill="#3B2E33" d="M530.6,298.1c-1.2,0.6-2.3,0.4-3.4-0.3C528.7,296.4,528.9,296.4,530.6,298.1z" />
	<path fill="#200A0B" d="M533.9,300.3c-1.1,0.2-1.2,0.4-2-0.2C532.5,299.5,533,299.5,533.9,300.3z" />
	<path fill="#1D0707" d="M239.8,574.5c-1.5,1.6-3.2,0.4-4.8,0.4C236.6,573.9,238.2,574.2,239.8,574.5L239.8,574.5z" />
	<path fill="#181F3C" d="M471.7,412.2c1-3,1-3,2.6-4.4C474.4,410.1,473.6,411.1,471.7,412.2z" />
	<path fill="#394E99" d="M549,464c0.3,0.3,0.6,0.6,0.9,0.9c-1,1.4-2,2.8-3,4.3c-0.3-0.2-0.5-0.5-0.8-0.7   C547.1,467,547.5,465.1,549,464z" />
	<path fill="#1C264B" d="M546.1,468.4c0.3,0.2,0.5,0.5,0.8,0.7c-0.9,1.3-1.4,2.9-2.9,3.7l0,0C544.1,471.1,545,469.8,546.1,468.4z" />
	<path fill="#1C264B" d="M544,472.8c-0.1,0.2-0.2,0.3-0.3,0.5C543.8,473.2,543.9,473,544,472.8C544,472.9,544,472.8,544,472.8z" />
	<path fill="#394E99" d="M549.9,464.9c0.2-0.3,0.5-0.5,0.7-0.8C550.4,464.4,550.1,464.6,549.9,464.9z" />
	<path fill="#394E99" d="M549.8,462.6c-0.2,0.3-0.4,0.5-0.5,0.8C549.4,463.1,549.6,462.9,549.8,462.6z" />
	<path fill="#1B1A1D" d="M502.2,359.4c2.2-1.4,3.3-1,4.5,1.5C504.7,361.5,503.6,360.3,502.2,359.4z" />
</g>
</svg>