<?xml version='1.0' encoding='utf-8'?>
<svg xmlns="http://www.w3.org/2000/svg" version="1.2" baseProfile="tiny" id="Layer_2_00000181792319443459929550000017496691453534151611_" x="0px" y="0px" viewBox="0 0 900 600" overflow="visible" xml:space="preserve">
<g>
	<path d="M675.6,124.9c-1.8,7.1-9.4,12.6-14.6,17.6c-5.2,2.9-5,10.7-8.8,15.2c-14.5,23.3-27.3,49.1-51.1,64.3   c-6.9,3.3-9.9,11.7-17.3,13.3c-19.2-8.5-19-14.9-30.9-29.3c-6.8,8.1-12.9,18.1-23.5,21.4c-7.4,6-13.6,13.6-20.1,20.6   c2,2.3,5,3.2,7.1,5.2c-0.4,1.2-0.7,2.4-1,3.6c18.2,8.6,39.7,9.8,55.6,23.2c17.7,10.8,32.6,26.3,48.3,38.5   c7.4,9.2,9.9,24.5-0.5,32.5c-3.2,2.7-3.5,6.8-5.2,10.4c-22.8,37.9-67.2,52.5-92.3,87.9c7.5,27-6.5,36.6,23.6,54.1   c3.9,7.3,3.5,15.7-5.3,18.8c-6.1,4.5-21.9-2.1-28.7-4.8c-15.1-5.1-21.1-19.3-28.3-32.2c-14.8-6.1-32-21.8-25-39.3   c10.5-0.8,15.7-10.3,25.6-12.7c4.2-1.8,6.4-7,10.9-2.3c22.6-17,33.7-36.7,44.1-62.5c2.6-11,15.9-14.7,22.4-22.8   c-3.9-0.9-7.8-1.7-11.7-2.6c-7.2,5.1-20.6-2.2-24.6,6.1c-10.1,7.1-23.3-1.9-34.3-3.2c-9.8-4.7-17.3-12.9-28.7-14.4   c-18,16.6-39.5,29.2-59.9,42.7c-9.8,7.4-19.6,17.4-31.3,21.1c-1.4-0.1-2.8,0.7-3.7,1.9c-9.6,11.6-18.8,22.8-34.8,26   c-15.7,24.1-34.2,46-54.4,66.4c-6.8,9.8-11.5,21.1-19.1,30.5c2.4,6.7,1.9,14.1-0.8,20.7c-4.2,16.4-0.4,33.4,4.4,49.4   c-2.7,5.9-11.4,8-17.3,9.6c-16,1.7-24.9-15.9-34.1-26.5c-0.3-0.1-0.9-0.2-1.4-0.3c-5.4-13,3.4-25.2,1.7-37.3   c-3.4-9.5-10-20.9-1.4-29.7c8.5-9.3,16.8-14.9,28.4-6.3c9-20.4,18.9-40.7,25.9-62c5.9-24.2,20.2-42.2,42.2-53.6   c5.5-6,15.6-7.8,19.4-14.9c12.7-25.8,26.6-51.8,47.5-71.9c0.7,0.3,0.7,0.9,0.7,1.5c-8.7,13.1-19.8,24.4-26.9,38.6   c3.8,2.6,7.8,3.7,12.1,3.9c1.2-1.3,2.3-2.4,3.5-3.6c-3.4-3.2-6.8-5.1-8.1-10c3.7,3,5.4,6.4,9.5,8.6c1.6-1.8,3.2-3.4,4.7-5.1   c0.3,0.3,0.6,0.7,0.9,1c-1.2,1.7-2.9,3.2-3.6,5.2c0.7,0.7,1.4,1.3,2.6,2.4c-2.2-0.2-2.6-0.3-4.4-0.7c-2.9,2.9-5.8,5.8-9.2,9.2   c0.7-2.3,0.9-3.2,1.2-5.2c-2.8-0.9-5.5-1.8-8.2-2.7c-0.9,6.5,4.8,10.9,8.4,15.6c8.6,13.1,26.3,14.8,40.7,14.8   c9.3-0.7,18-10.8,26.5-15c15.2-10.2,31.5-19.2,43.3-33.3c0.1,3-2,4.3-2.9,6.1c16.1,3.2,14.2,5.9,27.2,13.3   c6.7,0.9,23.8,9.5,28.4,5.2c-1.2-1.7-2.7-3.4-4.6-3.9c-11.1-18.9,22.7-46.5,37.6-55.2c-2.2-0.4-3.9,1.3-6.1,0.2   c7.7-1.7,14.3-3.6,20.9-7.8c-6.8-5.2-23-13.4-31.1-12c-0.3-0.3-0.5-0.5-0.8-0.8c0.2-0.1,0.4-0.1,0.6-0.1c0.2-0.1,0.4-0.2,0.6-0.4   c-7-4-14.3-3.9-21.4-0.2c-4.2-1.8-7.8,2.6-11.9,1.2c-2.1-5.5,11.6-3.2,12.8-7.8c-1,0.2-2,0.4-3,0.7c-0.1-0.9-0.2-1.9-0.3-2.8   c-0.5,0-0.8,0-1.2,0c-0.3-0.2-0.5-0.5-0.8-0.7c1.6-1.1,3.5-2,3.6-4.1c-0.7-0.8-0.9-2-2.1-1.7c-1.5-1-2.9-2-4.5-3   c-6.8,4.4-11.5,10.6-17.8,15.7c-2.8,0.9-11.8,0.2-4.8-2.4c0.5,0.2,0.9,0.3,1.3,0.5c0.7-0.5,1.4-1,2.1-1.5c0.1,0.4,0.2,0.8,0.3,1.5   c1.2-1.3,2.2-2.3,3.1-3.3c-1.8-0.6-2.6,0.6-3.5,1.8c-1.8-1.6-4,0.1-5.8,0.7l0,0c0.2-0.4,0.4-0.8,0.6-1.3c-3-1-5.9-1.9-8.7-2.9   c-0.5,0.6-1,1-1.4,1.5c-3-0.3-5-3.7-7.7-2.2c-0.3-0.3-0.5-0.5-0.8-0.8c0.6-1.3-1.1-1.6-1.7-2.2c-2.1,0.7-2.9,3.2-5.2,3.4   c-1.3-2.7,1.8-3.3,2.2-5c-2.8-2.2-5.6-4.1-7.6-7.1c0,0,0,0,0,0c-0.2-0.3-0.5-0.5-0.7-0.8l0,0c-0.5-0.8-0.9-1.5-1.5-2.2   c-0.4-1.4-1.7-0.2-2.5-0.9c0.2-1.1,0.9-2.3-0.8-3.1c-0.5,0.6-1.1,1.3-1.8,2c-0.3-0.2-0.5-0.4-0.8-0.7c0.6-1,1.2-1.8,1.8-2.8   c-1-1.3-1.6-2.7-2.9-3.8c-0.7,0.9-1.1,1.4-1.7,2.1l0,0c-1.5,1.2-1.5,1.5-0.6,2.9c-0.2,0.2-0.5,0.5-0.7,0.7   c-2.6-1.8-3.4-4.7-5.1-7.2c0.1-1,0.3-2.1-0.7-2.9c0.1-1.5,1.5-2.4,2.2-3.6l0,0c0.2-0.1,0.5-0.1,0.7-0.1c-0.5,1-1,2.1-1.5,3.3   c0.3,0.3,0.7,0.6,1.2,1.1c0.9-1,1.7-1.9,2.3-2.6c-0.3-1.4-1.1-1.7-2.1-1.7c0.1-0.8-0.4-1.6-1.4-1.4c-0.2-0.2-0.5-0.5-0.7-0.7   c0.1-0.4,0.3-0.9,0.5-1.5c-0.8-0.5-1.5-1.1-2.1-1.5c-1.1,0.9-2,1.7-2.8,2.3c0,3.2,1.4,5.1,3.7,6.4c-0.3,0.7-0.5,1.5-0.8,2.2   c-2.9-0.9-3.8-3.8-5.7-5.8c-16.8,1.5-30.8,14.5-39.2,28.4c-4.3,9.3-2.8,20.3-9.3,28.5c2.8,0.4,9.8,0.3,8.4,4.5   c-2.9,0.9-5.2-1.5-8.3-1.9c0.2,3.2,0.4,6.4-2,9c2.2,1.8,12.5,2.7,9.8,6.4c-3.8-0.7-7.2-2.3-10.5-4.2c-0.8-1.2-1.4,0-2.1,0.1   c-0.9-1.1-0.6-2.9,0.1-4c2.8-3.7,1-7.8,1.5-12.2c4.4-3.6,3.2-10.4,5.3-15.3c1.1-4,4.2-7.6,4.1-11.7c9.1-14.5,24.3-29.8,42.5-29.7   c1.5-3.4,3.8-5.9,7.4-7.1c13.6-21.2,24.6-43.2,31.7-67.4c3.8-13.2,15.7-20.9,20.8-33.6c-6.1-3.6-10.3-9.1-15-14.4   c-10.9,7.9-23.9,7.8-36.4,9.5c-11.8,5.6-23,12.3-34.2,19.1c-6.1,4.7-4.5,10.5-7.6,16.2c-10.8,9.5-20.1,25.8-36.1,26.9   c-2.8-6.9,7.6-8.9,10.1-13.9c-7.1,0.8-13.5,3.5-20.5,0.9c0.5-0.5,0.8-1,1.2-1.4c-0.7-1.5-2.1-2-3.9-2.3c0.2-2.2,2.1-3.3,3.4-4.5   c5.1,0,9.6,0,14.6-0.2c-1.6-3.3-7.6-1.1-10.4-3.7c-7.1-8.9,7.8-5.6,13-6c-3.4-2.9-8.5-0.6-10.3-5.7c1.7-9.9,9.2-2,15.4-5   c-0.1-3.4,1.8-5.9,3.2-8.6c1.2,0.4,0.5,1.6,0.8,2.3c-0.2,0.8-0.4,1.7-0.7,2.7c1.5-0.2,1.8-1.6,2.7-2.1l-0.1-0.1   c0.9,2.2-1.2,3.2-1.9,5c-0.6,3.1-1.6,6.2-0.6,9.5c0.4,1.3,0.6,2.6-0.6,3.8c-1.9,0-3.9,0-5.8,0c-1.5,1.7-2.7,3.3-3.3,5.6   c2.3,0.1,4.4,0.1,6.5,0.2c1.9,1.5,4.1,1.4,6.6,1.3c1.5-3.2,2.9-6.5,6.5-7.9c0.7,0.2,1.7-0.4,2.1,0.7c-4.5,1.4-5.4,5.5-7.1,9.5   c-1.5,0.5-2.9,1-4.6,1.6c-2.6,6.9-10.1,9.3-14.3,15c2.7,3.6,10.6-6.4,15.1-7.1c6.9-3.7,7-13.9,15.7-15c0.5-1.4,0.9-2.8,1.4-4.1   c-0.8-3.5,2.5-6.5,3.2-9.9c1.8-1.8,4.4-3,4.6-5.7c10.8-6.4,21-13.5,32.5-18.2c12.8-3.3,27-2.4,38.2-10.3c-1.7-0.8-4-1.2-3-3.3   l-0.1-0.2l0.1,0.2c3.8-0.8,5.9,1.9,7.2,5c4.1,4.5,8.9,8.5,14,11.7c2.2-3.1,3.9-6.1,5.5-9.3c-3.1-1.6-6.4-2.6-7.2-6.6   c3.3-1.3,5.8,2.9,8.9,4.1c10.8-12.6,21.9-19.5,38.6-21.4c-13.8-8.4-29.9-10.6-45.4-13.9c-7.3,0.4-14.8,0.8-21-4.2   c-5.3-1.7-16.5,7.5-22.9,8.9C416,78.2,406,110,376.4,118.5c-0.8-0.2-0.7-0.9-0.8-1.5c2.7-6,9.6-4,14.3-6.1   c16.3-15.5,30.4-36.4,52.9-42.2c31.8-12.5,11.4-13.3,38.9-6.6c19.4,2.3,41.4,3.6,56.9,16.8c6.4-3,12.5-5.2,19.5-7   c0.6-3,3.6-5.1,4-8.3c0.2-1.3,0.5-2.6,1.4-3.6c1.4-2.4,0.2-6.6,3.3-7.8c1.1-4.3,0.8-8.5,1.1-13c0.3-0.2,0.8-0.6,1.3-1   c-1.2-8.5,2.4-16.6,7.5-23.3c1.2-2.8,1.4-5.7,5-6.2c4.2-1.5-0.2-2.5-0.2-4.9c1-0.5,2.1-1.1,3.1-1.6c0.6,0.2,1,0.4,1.6,0.6   c0.8-0.6,1.7-1.2,2.7-2c0.5,0.6,1,1.3,1.6,1.9c0.9-0.9,1.8-1.9,2.5-2.7c1.9,0,1.9,1.5,2.6,2.6c5.4-3.1,11.8-2.7,17.6-1.2   c1.6-0.7,2.8-2.3,4.9-1.1c-0.5,0.8-0.9,1.5-1.3,2.3c0.9,1.1,2,1.1,3.1,1.1c4.8-0.1,9,2.5,12.7,5.2c1.7,0.1,3.3-0.4,4.8,0.2   c2.9,0.2,11.1-1.4,5.5,3.6c3.1,1.4,6.4,2.2,9.7,2.9c0.2,0.8,0.3,1.3,0.5,2c3.9-0.2,3,3.1,3.5,5.5c2.2-0.7,3.4-4.1,6-3   c0.1,0.7,0.2,1.5,0.4,2.5c0.7,0.5,1.6,1.1,2.7,1.9c-0.5,0.5-0.9,0.9-1.3,1.2c-2.5,0.4-2.5,0.4-3.3,2.1c2.7,0.2,5.2,0.3,7.8,0.1   c0.6,0.8,1.3,1.6,2,2.5c-0.9,1.9-1.8,3.5-2.7,5.3c0.1,0.4,0.3,0.9,0.6,1.7c-0.9,0.5-1.8,1-2.7,1.5c0.2,0.5,0.3,0.8,0.4,1.2   c-4.3,1.8-9.2,0.4-13.8,0.4c-3.8,6.9,3.1,19.2-6,22.7c-1.5,7.4,7.4,21.4-4.1,22.7c-0.2,2.3-0.6,4.1-1.4,6.4c0.3,1,0.6,2.1,1,3.6   c2.9-3.3,4.1-7.1,5.9-11c2.7-1.7,1.9-5.2,2.3-7.9c3.9-4,4.7-16.6,12.5-12.6c0.9,2.7-0.1,5-0.4,7.3c-1,1.3-0.7,2.8-0.8,4.3   c-0.8,0.9-0.5,2-0.7,3c-0.9,0.8-0.7,1.7-0.3,2.6c2.3-1.9,1.6-6.3,2.6-9.1c2.4-4.2,12.3-15.4,13.8-5.1c-4.4,4.9-7.6,12.9-6.9,17.5   c3-5.3,3.2-12,7.9-16.6c0.9-0.2,1.7-1.3,2.7-0.2c-5,4.4-6.3,11.1-8.2,17.3c-1,0.4-2.1,0.8-3.1,1.2c-4.7-6.9,4.1-14.5,5.6-21.2   c-9.9-0.8-9,12.8-13.3,18.7c-1-0.4-1.8-0.7-2.9-1.1c1.1-5.2,0.8-10.4,2.9-15.4c-0.5-0.9-1.1-1.7-1.6-2.6c-3.4,2.5-7.5,11.5-7.6,16   l0,0c-3.7,7.4-6.3,16-12,22.2c-0.4-1.7,0.2-3.5-0.8-5.1c-0.1-6.9-1.8-17.4-10.4-18.3c-3.2,3.4,3.1,9.5,3.7,13.8   c2.3,6,0.9,12.6,2.5,18.7c1.7,3.8,4.1,7.4,5.4,11.5c-0.2,12.2-11.9,20.4-19.4,29c-11.4,10.6-27.9,13.8-39.5,24.2   c0.6-4.3,6-7.3,9.3-9.9l0,0c1.8-0.4,3.2-1.5,4.7-2.4c0.2-1.1,0.9-2.2-0.3-3c1.2-9.1-6.1-17.1-5.2-25.6c-0.4-5.5,1.3-11.6-0.6-16.8   c-0.2-0.2-0.2-0.8-0.1-1c0.9-1.2,0.3-2.4,0-3.5c-1.2-7.9-7.2-11.7-13.9-15c-18.4-17-43.4-4.3-55.4,13.9c0.2,0.6,0.4,1,0.5,1.5   c-9.1,16.8-7.4,41.6,0.3,58.3c2.7-1,6.7-4.1,10.1-7.9c-0.5-4.3-3.9-9.8-1.5-13.8c6.1,9.6,6,23.8,12.1,33.8   c13.8,15.5,21.8,36.9,41.8,45.6c0.9-0.2,1.8-0.3,2.3-0.5c12-14.6,30.8-21.1,40.7-37.5c9.2-16,19-31.7,28.6-47.5   c-3.4-0.5-5,5.3-7.8,4c2.3-4.3,7.3-6.4,10.3-10.2c0.7,0.4,1.2,0.6,1.9,1c4.3-6,10.4-10.3,14.5-16.3   C674.4,124.9,675,124.9,675.6,124.9z M588.7,47.6c-3.4-3.8-6.5,2.4-9.9,3.8c-1.5,0.4-3.3,0-4.5,1.9c-0.7,3.9,2.7,8.7,0.6,12.4   c-0.2-0.1-0.4-0.1-0.6-0.1c-0.1-0.6-0.3-1.3-0.4-2c-1.5,1.1-1.4,1.4,0.3,2.2c0,0.2,0,0.3,0,0.5c-3,1.9-5.1,5-8.3,6.6   c-0.2-0.7-0.4-1.2-0.6-2c-3.4,2-5.2,5.4-8.9,6.9c-1.9-0.5-3.6-0.9-5.4-1.4c-1.3,0.6-2.7,1.2-4.8,2.1c5.3,0.4,9.1,2.7,13.3,5.4   c-0.6-2-2.2-3.8,0.4-4.4c4.1,3.6,8.9,8.4,10,14c13.3,8.7,18.4,5.9,23.3,22.8c6-1.3,9.8-5.4,13.8-9.6c1.4,0,2.6,0,3.8,0   c0.5-0.5,1.1-1,1.6-1.4c14.2,6.9,22.9,7.5,17.9-11.4c-1.3-5-7.2-9.9-3.4-15.1c3.2-1.7,5.3,1.1,8,2c0.6-0.5,1.2-0.9,2.1-1.6   c0.4,1,0.7,1.8,1,2.4c12.6,6,6.9-7.6,6.2-14.6c-1.7-7.2,6.2-6,5.1-13c0.5-4.4-1-9.5,1.3-13.4c-0.1-0.6-0.8-2.3-1.9-1.9c0,0,0,0,0,0   c1.8-1.3,3.9,0.9,6-0.6c3.7-0.1,10.4,0.2,11.5-4.3c-7.5,5.2-18.3,1.1-26,2.8c0.6,0.6,1.3,1.3,1.9,1.9c-3.5,1.7-6.5,0.1-9.3-1.6   c-8.5,8.5-36.1,11-29.8,27.9c-2.4,0.1-2.5-2.7-4.3-2.8c-1.3,0.4-0.6,2.4-2.4,2.6C594.2,57,596,53.5,588.7,47.6z M325.1,426.7   L325.1,426.7c1.1-0.5,0.8-1.4,0.7-2.2c13.3-15.5,18.1-0.4,37.7-28.8c0-0.6,0-1.4,0-2.1c3.4-2.8,8.3-1.1,11.5-4.8   c6.4-6,14.9-9,21.5-14.8c-24,2.2-46-8.6-52.9-32.4c-8.8,10.3-10.1,26.8-21.5,34.6c-14.6,12.7-35.7,20.2-45.3,37.5   c-5.9,17.2-12.9,33.7-19.4,50.7c-5.5,14.6-14.4,27.8-20.4,42c-1.5,12.9,3.5,22.6,17.4,14.5c0.6-8,8.2-13.8,11.9-20.8   c4.5-10.6,14.1-17.7,21.7-26.2c-0.1-0.7-0.2-1.2-0.3-1.7c8.1-12.8,23.1-20.3,29.4-34.2c-0.4-0.4-0.8-0.7-1.4-1.2   c0.7-1.2,0.7-2.7,2.2-3.2c0.6,0.4,1,0.8,1.6,1.2C321.4,431.9,323.2,429.3,325.1,426.7z M600.9,3.6c0.5,0.2,1.1,0.5,1.6,0.7   c1.3-0.4,2.5-0.7,4-1.1C605,1.5,601.7,1.6,600.9,3.6c-0.7,0.1-1.7-0.4-2,1c0.6,0.3,1.1,0.6,2,1C600.9,4.8,600.9,4.2,600.9,3.6z    M252.6,525.5c-1.9,0.7-4.1-0.3-6.3,1.4c4,1.2,6.7,1.1,9.3-2.3C254.5,524.7,253.4,524.7,252.6,525.5z M245.6,544.1   c2.3-0.1,4.7-0.1,7-0.2c0.8-1.4,1.2-2.8,1.6-4.6c-4,2.9-7.4,3.6-12.1,4C243.4,544.6,244.5,544.3,245.6,544.1z M371.3,137.9   c-0.3-1.8-0.6-3.7-0.9-5.7c-4.2,3.1-8.4,0.4-12.5,1.1c-0.2,0.7-0.5,1.6-0.8,2.4c3.7,3.1,9,2.3,13.5,3.8c0.3,0.6,0,1.7,1.3,1.7   C372.2,139.9,372.5,138.8,371.3,137.9z M250.7,548c-2.9,2.5-22.7,1.6-23.7-2.1c-0.2-3.4,3.9-3.3,6.4-3.7c-3.4-1.3-7-8.1-1.1-7.2   c2.8,2,5.6,3.7,9.2,3.6c4.7,0.7,9-2.3,13.6-1.6c1.2-2.9,1.2-2.9-0.4-5.7c-5.1,2.1-8.7-1.6-13-3.4c-11-2.7-10.6-16.8-6.8-25   c-3.6-1.3-6.5-4.3-10.7-4.7c-28.3,15.5-11,20.9-10.8,43.8c-2,9-2.8,17.5-2.9,27c11,14.6,27.5,39.2,46.5,20.9   c-1.1-3.8-1-8.1-3.2-11.5c-1-1.3-1.2-3.1-0.9-4.8c-0.7-8.5,1.8-18.4-1.4-26.2C251.2,547.6,251,547.8,250.7,548z M554,86   c1.3-0.1,2.6-0.2,4.4-0.4c-10.2-9.5-22.2-3.3-33.8-2c-19.4,5-30.4,22.4-38.4,39.5c-3.6,6.8-9.8,11.9-13.9,18.3   c-6.3,11.8-9.6,24.8-14.3,37.3c-5,14.7-14.3,27.1-21.7,40.7c12.8,19.2,30.3,44.4,57.1,37.2c0.8-3.4,5.2-4.3,7.8-6.3   c8.1-5.1,13.5-13.6,21.1-19.4c10-8.7,22.1-14.7,28.6-27.1c-4.9-6.7-9.8-13.5-14.5-20.2c-19.7,7.1-22.8-18.9-24.9-32.6   c-0.8-0.8-1.9,0.5-2.3-1c0.7-0.6,1.5-1.3,2.3-2c-2.8-27.4,15.5-57.2,44.8-58.4c-0.9-0.9-1.5-1.5-2.2-2.2C554,86.9,554,86.5,554,86z    M507.1,467.2c0.5-0.2,1-0.5,1.5-0.7c4-0.1,8-0.4,12.2-0.8c0.1-1.3,0.3-2.4-0.4-3.9c-5.4,2.8-11.5,5.2-17.5,3.1   c-2-0.9-1.1-4.2,1-4.2c5.7-0.1,11.2-0.6,16.6-2.4c-0.1-1.7-0.2-3.2-0.3-4.7c-9.5-2.2-22.8,8.8-26.7-4.3c-5.3-5.1,0.3-13.6-3.3-17.6   c-4.6,5.4-12.5,4.7-17,9.8c-3.3,4.3-8.4,6.4-13.7,7.2c-6.1,18.1,14.6,27.5,27.3,34.6c-0.4,7,9.2,11,8.7,18   c9,12.3,25.2,16,39.4,18.4c2.7-1.7,6.2-1.8,8.2-4.7c0.1-0.7,0.1-1.5,0.2-2.3c1.7-2.2,0.9-5.6-1.6-6.7c-5.6-4.8-11.4-9.3-16.3-14.9   c-5,1.7-8.1-2.5-1.8-4.2c-0.3-0.8-0.6-1.5-0.8-2c-9.9,3.9-12.6-3.4-1.6-4.3c0.5-1,0.4-1.6-0.4-1.8c-3.5,1.3-9.5,4.1-11.2-0.8   c2.2-4.4,7.6-2,11.6-4.1c-0.1-1-0.1-1.9-0.1-2.8c-4.7-0.1-12.7,3.9-15-1.7C506.3,468.6,506.7,467.9,507.1,467.2z M517.9,326.4   c-1.9,3.7-3.4,9.9-3.2,13.3c10.7,3.3,23.7,2.3,34.7,0.6c9.4,2.6,18.4,6,28.4,5c-0.1,0.6-0.1,0.9-0.1,1.3c-4.5,1.9-9.6,0.7-14.3,0.3   c-3.2,8.8-14.3,11.5-19.8,18.2c-10.5,27.2-26,52.7-48.8,71.2c4.5,5.6,9,9.4,15,13.4c1.8-0.2,3.9-0.5,6.1-0.8   c17.3-21.4,40.2-38.7,63.2-54c12-14.2,28.1-26,34.9-43.7c19.5-12.6,0.8-34.2-12.2-43.9c-0.8,0.1-1.2,0.1-1.7,0.2   c-8.9-10.4-20.6-17.4-31.8-24.7C548.1,292.8,529.1,306.5,517.9,326.4z M608.6,109.2c-4.4,4.4-8.5,8.8-14.8,10.3   c-3.7,21.1,3,25,5.1,44.1c17.4-6.1,28.3-18.8,38.7-33.6c2.7-6.6-5.1-12.2-6.2-18.7c-1.7,0.8-3.2,1.5-4.2,1.9   C620.7,112.2,615.1,109.1,608.6,109.2z M531.6,168.8c-3,3.7-5.9,6.5-9.5,8.5c2.7,4.3,8.8,6.4,13.1,3.3   C534,176.9,532.9,173.1,531.6,168.8z M348.2,154.2c6.1,6.8,14.5,3.4,22.1,1.2c0.5-0.6,1.2-1.5,2.1-2.7c-1.3-0.4-2.4-0.8-3-1   C362.8,155.5,355,152.3,348.2,154.2z M506.7,451.1c-5-2.2-8.8-4.9-12.4-9.1c-0.4,4.1,4,5.8,4.2,9.9   C500.7,452.7,504.9,453.3,506.7,451.1z M364,143c-3.8,0-7.2,0-10.6,0c-2.4,4,6,4.3,8.5,4.3C362.6,145.8,363.2,144.6,364,143z    M649.5,26.8c3.4,1.3,4.2-0.8,4.1-3.5c-0.8,0.4-1.3,0.7-1.8,1c-1.9-0.8-0.4-2.3-0.7-3.3c-2.3-1.4-4.9-0.5-7.3-1.2   c-0.5,0.7-0.5,0.7-0.2,1.5C647.8,20.3,651,22.8,649.5,26.8z M441.4,232.7c-0.5-2-0.3-3.3-1.4-4.7c-1.9,0.5-2.3,2.1-3.4,3.1   c0.3,2,0.4,3.2,2,4.5C439.6,234.5,440.5,233.6,441.4,232.7z M617.6,40.6c0.2,0.2,0.4,0.4,0.5,0.6c2.6-1.2,5.5-1.7,7.8-3.4   C622.8,37.2,619.3,38,617.6,40.6z M643.4,33.6c0.3-2.2-6.4-3.6-7.7-1.5C638.2,33.2,640.8,33.2,643.4,33.6z M596.9,16.1   c1.3,0.9,2.6,1.6,3.9,2.5c0.3-0.4,0.6-0.8,1-1.3c-1.5-1.3-1.3-2.8-2.2-4.4C598.5,14.2,597.7,15.2,596.9,16.1z M605.6,23.2   c1.5-0.2,2.8,0.4,3.7-1c-0.6-0.9-0.1-2.4-1.6-3.1C606.7,20.1,604.9,20.6,605.6,23.2z M604.5,38.6c-2-0.8-4.8-4.2-6.1-1.2   c0.8,0.2,1.5,0.3,2.2,0.5c0.6,1,0.3,2.3,2,2.6C603.1,39.9,603.7,39.3,604.5,38.6z M618.9,23.6c1.2,1.7,2.1,3,3,4.5   c0.7-0.4,1.3-0.8,2.2-1.3c-1.7-1.3-2.6-2.2-3.8-3.9C619.8,23.2,619.5,23.4,618.9,23.6z M625.5,35.1c2.8,0.8,4.6-0.5,6.6-1.9   C630.1,31.8,627.7,34,625.5,35.1z M588.6,34.9c0.6-0.6,1.1-1,1.7-1.7c-1.7-1.1-3.2-2.1-3.4-4c0,0-0.6,0-1.1,0   C586.4,31.3,587.4,33,588.6,34.9z M575.8,32.2c2,0.7,3-0.7,3.4-2.1c-0.4-0.4-0.9-0.8-1.4-1.2C576.6,29.8,575.4,30.4,575.8,32.2z    M627.8,26.9c0.4,2.1,0.2,3.4,1.6,4.8c2.2-1.8,0-3.2,0.1-4.9C628.9,26.8,628.5,26.9,627.8,26.9z M608,36.9   c-0.4,0.8-1.7,1.4-0.8,2.7c0.8-0.2,1.5-0.4,2.2-0.6c0.7-0.2,1.3,1,2.3,0.1C610.3,38.3,609.9,36.6,608,36.9z M590.6,12.7   c-2.6,1.1-2.6,1.1-2.2,3.2C590.2,15.5,590.2,14,590.6,12.7z M635.3,34.7c1.8,0.9,3.6,2.7,4.4-0.1C638.2,35.1,637.3,33.3,635.3,34.7   z M572.4,34.5c-0.4,1.4-1.5,2.1-0.7,3.6c1.1-0.9,2.1-1.6,2.5-3C573.7,34.9,573.2,34.8,572.4,34.5z M520.6,346.7   c0.8-0.7,1.5-1.2,2.5-2c-1.5-0.4-2.6-0.6-3.9,0.1C519.7,345.5,520.1,346,520.6,346.7z M636.1,13.1c-0.2,0.2-0.3,0.3-0.5,0.5   c0.4,0.7,0.8,1.5,1.3,2.5c0.7-0.7,1.1-1.1,1.8-1.8C637.7,13.8,636.9,13.5,636.1,13.1z M595.9,9.7c-0.2-1.2-0.2-1.8-0.3-2.3   c-2,0.1-2.2,0.3-2.3,1.4C594,9,594.6,9.2,595.9,9.7z M571.2,50.9c1-1.4,1.9-2.2,1.2-3.9C571.4,48.1,570.1,48.7,571.2,50.9z    M661.6,23.9c-1.8-1-1.8-1-2.8,1C660,25.7,660.8,25.2,661.6,23.9z M585.2,37.8c-0.5-0.6-0.8-1-1.2-1.5c-1.3,0.9-1.1,1.9-0.8,3.3   C583.8,39,584.4,38.5,585.2,37.8z M588.6,45.7c0.5-0.4,0.9-0.8,1.4-1.3c-0.7-0.6-1.3-1.1-2-1.7c-0.4,0.7-0.6,1.1-0.9,1.7   C587.7,44.8,588.1,45.2,588.6,45.7z M611,45.5c1.7-0.3,2.7-0.7,3.4-1.8C612.1,43.3,612.1,43.3,611,45.5z M577.6,47.5   c2-0.9,2-0.9,1.1-2.5C577.2,45.9,577.2,45.9,577.6,47.5z M582.2,15.8c2.1-0.7,2.1-0.7,2.5-2.4C583.6,13.7,582.5,14,582.2,15.8z    M600.1,45.6c2.2,0.8,2.4-0.6,2-2.4C601.3,44.2,600.7,44.9,600.1,45.6z M598.7,52.2c-0.4-1.2-1.1-1.1-2.1-0.4c0.3,0.5,0.6,1,1,1.6   C598.1,52.9,598.4,52.6,598.7,52.2z M599.2,57.5c2.1,0,2.4-1.3,2-2.7C600.5,55.8,600,56.5,599.2,57.5z M640,86.4   c-0.1-0.6-0.1-1-0.2-1.5C638.4,84.9,638.5,86.4,640,86.4z" />
	<path fill="#0A0808" d="M680.5,82c-1.3,5.1-2.9,6.3-2,12.2c4.3-1.4,13.5-20.2,17.1-9.3c-1.8,9.3-9.8,14.5-12.9,23.2   c-2.2,5.5-4.3,11.1-7.2,16.4c-0.3-0.3-0.6-0.6-0.9-0.9c2.6-6.1,3.5-13.1,7.3-18.6c2-7.2,14-14.4,10.7-21.8   c-5.8,2.3-9.1,14.2-15.7,12.6c-2.2-5.2,0.1-10.3,2.9-14.8C679.9,81.3,680.2,81.6,680.5,82z" />
	<path fill="#D3D5D5" d="M677.7,68.8c-4.7,4.6-4.9,11.3-7.9,16.6c-0.7-4.6,2.5-12.6,6.9-17.5C677,68.2,677.4,68.5,677.7,68.8z" />
	<path fill="#0F1121" d="M373.5,296c0.7-0.1,1.3-1.3,2.1-0.1c-0.2,0.2-0.4,0.5-0.6,0.7c1.2,2.7,9.4,5.9,7.9,8   c-3.6-1.4-6.4-4.1-8.8-6.5c-0.6,0.4-1,0.7-1.4,0.9c0-0.6,0-1.2-0.7-1.5C372.7,297.2,373.2,296.6,373.5,296z" />
	<path fill="#E0DEDE" d="M647.2,84.5c2.1-2.6,1.1-5.7,0.5-8.6c0.8,0.5,1.6,1,2.4,1.6c-0.4,2.7,0.4,6.2-2.3,7.9   C647.7,85.1,647.5,84.8,647.2,84.5z" />
	<path fill="#100F0F" d="M680.5,82c-0.3-0.4-0.5-0.7-0.8-1.1c-0.4-3,0.7-5.8,1.5-8.7C682.9,75,681.4,79,680.5,82z" />
	<path fill="#201D1D" d="M668.8,28.2c-2.6,0.1-5.1,0.1-7.8-0.1c0.9-1.6,0.9-1.6,3.3-2.1c-0.1,0.3-0.3,0.6-0.5,1.1   C665.4,28.4,667.6,26.7,668.8,28.2z" />
	<path fill="#393332" d="M375.6,117c0.1,0.6,0,1.3,0.8,1.5c-0.7,2-1.4,3.9-2.1,5.9c-0.4-0.7,0.4-1.9-0.8-2.3   C373.8,120.2,374.5,118.5,375.6,117z" />
	<path fill="#2B2726" d="M681.9,74.6c-0.3-0.8,0.3-1.8-0.7-2.3c-0.1-0.6-0.2-1.2-0.2-1.9c-0.7-0.1-1.3-0.3-2-0.4   c0.5-0.5,1-0.9,1.5-1.4C684.3,69.3,682.3,72.2,681.9,74.6z" />
	<path fill="#CDCDCD" d="M663,72.9c-0.3,1.7-0.6,3.3-0.8,5c-0.9-1.7-1-4,0.1-5.7C662.5,72.4,662.7,72.7,663,72.9z" />
	<path fill="#0A0808" d="M675.6,124.9c-0.6,0-1.1,0-1.7,0c0.2-0.5,0.5-1,0.7-1.5C674.9,123.9,675.7,124.3,675.6,124.9z" />
	<path fill="#E0DEDE" d="M650.9,75.9c-0.2,0.5-0.4,1-0.7,1.5C650,76.7,650,76.1,650.9,75.9z" />
	<path fill="#FBDFD3" d="M351.8,412.2c0.2-0.2,0.4-0.4,0.6-0.6C352.3,411.8,352.1,412,351.8,412.2z" />
	<path fill="#FBDFD3" d="M350.6,413.7c0.1-0.2,0.3-0.4,0.4-0.6C350.9,413.3,350.8,413.5,350.6,413.7z" />
	<path fill="#FBDFD3" d="M351.2,413c0.2-0.2,0.4-0.4,0.6-0.7C351.5,412.5,351.4,412.7,351.2,413z" />
	<path fill="#FBDFD3" d="M674.5,123.5c-3.5,7-10.7,11.3-15.2,17.8c-0.7-0.4-1.2-0.6-1.9-1c-3,3.8-8,5.9-10.3,10.2   c2.9,1.3,4.4-4.5,7.8-4c-9.7,15.8-19.5,31.4-28.6,47.5c-7.5,12.8-20.7,19.5-31.8,28.5c-3.8-0.7-7.5-1.3-11.3-0.2   c-1.2-0.6-2.3-1.2-3.4-1.7c-1.6-5.2-9.3-7.5-9.3-11.7c7.4,3.2,16.1,1,21.9-4.6c-2.8-0.2-5.2,0.9-7.4-0.7c0-0.2,0-0.4,0.1-0.6   c1.6-2,4.5-2.6,5.1-5.2c-4.1,0.3-5.6,5.1-9.9,5.4c-4.8-0.8-9.6-3.8-14.2-0.9c-3.1-4.5-6.1-9-8.3-14.4c4.4,1.4,9.5,3.1,12-1.7   c-6-5.1-12.3-10.2-18.1-15.5c-10-2-6.6-27.1-18.4-23.4c-1.8-2.1-4.1-3.4-7.4-2.4c-0.4,0.5-1,1.1-1.7,1.8c1.6,2.3,1.7,5.3,3.6,7.4   c-1.4,3.9-6.6,6.8-10.2,8.4c-5.3-13.8-4.3-33.3,2.9-46.5c-0.2-0.5-0.3-0.9-0.5-1.5c12.1-18.2,37-30.9,55.4-13.9   c8,3.4,15.3,10.1,14,19.4c1.7,6.1,0.7,13.3,0.1,19.7c1.8,7.6,8.7,17.6,4.4,25c-1.4,0.7-2.5,1.6-3,3.1l0,0c-1.2-0.3-1.9,0.3-2.2,1.4   c-2.3,2.6-7,4.8-7.1,8.5c-1.1-0.1-1.4,0.5-1.7,1.5c-1.4,0.8,1.4,0.1-0.7,2.8c-0.7,0.3-0.8,0.9-0.7,1.5c-1.8,3-3.4,7-1,10.6   c7.7-6.8,12.8-16.4,21.2-22.9c18.4-11.1,46.7-20.4,46.2-45.3c0.6-4.8-3-8.5-4.2-13c-1.2-3.4-4.9-5.4-4.4-9.5   c-0.8-6.4,0.2-15.8-7.4-18.2c-1.6-2.5-1.6-2.5,0-4.9c11,1.7,10.3,15.5,10.3,23.9c10.4,5.5,12.8-16,12.9-22.8l0,0   c1.3-0.4,0.6-1.9,1.6-2.6c4-3.1,3.8-8.7,6.5-12.6c0.4,0.6,0.7,1.2,1.1,1.8c-2.1,4.9-1.8,10.1-2.9,15.4c1.1,0.4,1.9,0.7,2.9,1.1   c4.3-5.8,3.4-19.5,13.3-18.7c-1.5,6.6-10.3,14.2-5.6,21.2c1-0.4,2.1-0.8,3.1-1.2c1.7-5.7,3.1-11.3,6.7-16c0.7,0.1,1.4,0.3,2,0.4   c0.7,3.6-2,6.8-1.3,10.5c-2.8,4.5-5,9.6-2.9,14.8c6.6,1.6,9.9-10.3,15.7-12.6c3.3,7.4-8.7,14.6-10.7,21.8   C678.1,110.3,677.1,117.3,674.5,123.5z M666.7,111.1c1.7-1.3,1.7-1.3,1.9-2.8c-1.4,0-1.3,1.4-2,2.1c-1.2,1-1.2,1-1.5,2.1   C666,112.6,666.4,111.9,666.7,111.1z M601,187.1c-1.1,0.7-2.5,0.9-2,2.6C600.4,189.1,601.1,188.4,601,187.1c1-0.3,1.6-0.9,2-2.2   C601.4,185.1,601.1,186,601,187.1z M671,102.5c3.1-0.3,3.5-2.6,4.2-5.2c-0.7-0.3-1.3-0.6-2-0.9c-0.9,3.1-3.3,5.4-3.7,8.1   C671,104.7,670.6,103.3,671,102.5z M541.5,114.2c-3.3-0.6-2.4,1.1-3,3.2c-7.4,6.2,15.1,27.6,23,24c6.4-5.4-8.6-10.3-10.6-15.3   C547,123.1,546.8,114.1,541.5,114.2z M563,145.8c-0.6,2.2,1.7,8.9,3.6,10.4C567.9,152.2,566.2,148.3,563,145.8z M586.7,212.1   c2.8-0.8,6.6-2.5,6.8-5.6C591.3,206.2,585.8,209.8,586.7,212.1z M516.7,148c2.4,0.7,7-1.8,4.9-3.6   C519.9,145.1,518.4,146.1,516.7,148z M642.3,159c-2.2-0.5-3.9,1-3.5,3.3C641,162.1,642.3,161.1,642.3,159z M594.5,205.7   c2.2,1,5.9-1.2,3.4-2.6C596.5,203.7,596,204.4,594.5,205.7z M657.9,87.5c-1.9,1.8-1.9,3.3-1.9,5.3C658,91.6,658.2,90.1,657.9,87.5z    M635.1,166.7c1.5,0.9,3.7-1.4,2.3-2.6C636,164.5,636,164.5,635.1,166.7z M587.6,187.1c-1.6,0.9-1.6,0.9-2.2,2.6   C586.8,190.8,589,188.2,587.6,187.1z M593.8,194.6c-1.8,0.8-2.6,1.5-2.9,3.2C592.7,197.4,593.6,196.7,593.8,194.6z M566.5,162.1   c0.9-1.2,0.9-2.1,0.1-3C565,160.1,565,160.3,566.5,162.1z M645,153.9c-1.4,1.4-2.1,2.3-3.1,3.2C644.1,157.5,644.4,157.1,645,153.9z    M666.5,91.6c-1.6,1-1.5,2.2-1.2,3.9C666.7,94.4,667.1,93.3,666.5,91.6z M598.1,192c-1.5-1.6-2.4-0.2-2.1,1.5   C596.9,192.9,597.5,192.5,598.1,192z M604.7,198.9c0.9-1,2-1.3,1.2-2.3C604.2,196.5,604.7,197.3,604.7,198.9z M602.1,200.2   c-1.2,0.1-1.4,0.7-1.6,1.8C601.6,201.7,602.6,201.5,602.1,200.2z M566.3,167c1-1.6,1-1.6-0.2-2.6C565.3,165.3,565.1,166,566.3,167z    M567.2,170.3c-0.6-0.4-1-0.7-1.3-0.9C564.8,170.9,565.9,171.7,567.2,170.3z M662.3,100.8c-0.8,1.3-2,2.7,0,2.7   C662.3,102.8,662.3,102.1,662.3,100.8z M591.2,184.7c0.3-0.4,0.6-0.8,0.9-1.2C591.2,182.8,590.1,183.7,591.2,184.7z M663.5,98.3   c-0.4,0.4-0.5,0.7-0.2,1.2C663.7,99.1,664,98.8,663.5,98.3z M672.3,67.5c-0.2-0.2-0.3-0.3-0.4,0c0.1,0.1,0.2,0.1,0.3,0.2   C672.2,67.6,672.2,67.6,672.3,67.5z" />
	<path fill="#5876E8" d="M460.1,328.4C444,345,421.9,355,403.3,368.6c-12.7,6.5-40.3,0.2-48-12.5c0.8-3.1,4.5-4.4,6.6-6.7   c1.3,6.1,4,14.7,11.1,15.6c-5.2-5.6-14.2-16-5.6-22.6c2.6,4.7,2.2,9.6,5.3,14.1c-1.5-7-1.6-13.7-0.5-20.4c3-2.4,5.8-4.7,8.5-6.9   c0.8,0.5,1.4,0.9,2.1,1.4c2.1,4.7,4.7,15,9.7,16.2c-2.1-3-3.7-6.4-5.5-9.6c0.2-0.2,0.5-0.5,0.7-0.7c6.7,3.1,7.8,3.4,11,2.1   c-5-4.6-10.6-8.6-13.8-14.6c0.5-2.7,3.7-8.6,5.8-10.7c19.7,8.6,41.5,4.2,61.7,11.1c-5.3-4.8-12.3-3.7-19.3-5.9c7-1,13.9,0,19.9-3.8   c-19.7,2.2-41,1-59.5-7c3.3-5.1,4.9-11.5,9-15.5c8.7,0.3,16.7,4.9,25.4,4.4c-0.1-0.5-0.2-1-0.3-1.4c0.8-1.3,2.3-0.1,3.4-1.1   c-6.5-6-17.2-7.1-21.5-15.6c2.6-5.2,8.5-9,8.8-15c0.7-0.9,2.4-1.6,2.3-2.7c-1.2-0.4-1.5,1.6-2.8,1c1.7-2.8,2.9-5.6,5.6-7.6   c1.5-1.1,3.5-1.7,4.2-3.7c1.7-0.9,3.6-1,5.9-1.3c-4,4.1-7.6,5.9-11,10.3c6.7-3.5,12-8.1,18.5-12c-0.1-0.7-0.5-1-1-1.3   c2.4-1.3,4.9-3.5,6.6-0.1c-5.7,7.8-15.5,14-17.3,24c9.5-2.2,14.8-13,22.2-18c1.4,1.1,2.3,4.9,4.4,3.9c-0.5-2.5-2.4-4.5-3.7-6.7   c0-0.3,0.1-0.5,0.1-0.8c0.5,0,1,0,1.5,0c1.8,1.4,3.5,2.8,5.4,4.2c-0.5,1.6-3.5,2.3-2.2,5c2.4-0.2,3.1-2.6,5.2-3.4   c4.3,2.1-0.5,2.7-0.1,5.1c2.5-0.6,3.5-4.6,6.1-1.4c-0.6,2.3-2.6,3.8-5,3.8c0.6,3,3.8,2.5,5.9,3.5c6.7,2.9,13.3-0.6,20.1-0.5   c3.1-2.7,6.2-5.5,9.3-8.3c1.8,0.9-1.5,2-0.3,3.6c3.1-2.2,4.6-5.1,7.9-7.3c-0.9,0-1.7,0-2.5,0c-0.2-0.2-0.5-0.4-0.7-0.6   c1.3-1,2.7-2,4.1-3.1c1.6,1,3,2,4.5,3c-5.1,3-10.3,6.1-13.1,11.5c-3.7,1.8-10.4,4.9-6.3,9.5c-1.5,1.4-3.7,1.9-5.4,4.1   c17-1,33-18.7,48.7-9.9c0,0.2-0.1,0.4-0.1,0.7c-4.3,0.9-7.8,2.1-9.8,3.8c14.7-6,29,0,41.2,9c-6.6,4.1-13.3,6.1-20.9,7.8   c2.2,1.1,3.9-0.6,6.1-0.2c-7.9,4.9-15.4,10.1-22.1,16.5c-10.9,1.6-22,4.4-31.9,8.6c-0.9-0.3-1.7-0.6-2.5-0.8   c0.2-1.2,0.4-2.1,0.7-3.3c6.8-2.7,14.4-4.2,20.6-7.9c-8.5,0.6-17.3,0.7-25.7,2.7c-1.2-1.3-2.8-2.3-3.2-4.3   c7.4-4.4,14.3-8.4,21.8-12.9C484.8,284.5,469.5,309.3,460.1,328.4z M452.9,306.8c-8.4,0.7-16.8,0.8-25.3,0.8   c-0.6-0.4-1.6,0.3-2-0.7c13.7-1.1,26.8-5.1,39.6-9.4l-0.1-0.1c1.3,1.9,5.3-3,7.2-3.6c2.8-2,5.1-4.3,5.1-8.1   c0.6-0.8,1.3-1.6,1.9-2.4c-1.4,0.7-1.8-0.7-2.7-1.1c-1.5,1.4-3.2,2.1-4.3,4.1c0.6,0.1,1,0.1,1.5,0.2c-19.3,13.5-45.6,17-67,22.8   c19.2-3.8,45.3,3.6,62.2-7.7C463.6,303.6,458.4,305.7,452.9,306.8z M438.5,285.8c-1.8-0.7-1.8-0.7-4.3-0.1c5.8,0.8,12.2,3.7,17.6,1   c-3.5-0.1-6.3-0.1-9-0.2C441.5,285.6,439.9,286.1,438.5,285.8z M461,283.9c4.6-2.2,17.8-2.1,19.3-6.6c-3.5,0.1-6.7,1.5-10,2.3   c-0.9-1.9,9.5-4.1,9.6-6.4c-8.7,2.5-15.7,8.9-24.4,11.5c-0.4,0.2-1.1,0.4-0.8,1.4C456.9,285.4,459,284.9,461,283.9z M439.8,325.5   c0.7,0.1,1.5,0.3,1.2-1.2c-12.1,1.4-25-4.9-36.4-2.6C416.6,323.5,427.8,326.7,439.8,325.5z M551,276.9c-2-1.2-2.3-1.2-16.5,2.6   c-12.2,3.2-14.2,3.9-16.4,5.6C529.5,283.2,540.1,279.5,551,276.9z M468.8,266.9c-2.3-3.7-9.7,4.2-11.9,6.6   C461.2,273.8,465.6,269.7,468.8,266.9z M475.7,296.5c4.1-1.3,12.3-10.2,11.2-14.3C483.5,287.3,479.8,292.1,475.7,296.5z    M413.7,275.2c4.2,2,9.5,2.2,14.2,2.6C423.5,275.6,419.1,274.4,413.7,275.2z M405,356.8c-4.4-1.7-6.6-5.8-11.2-6.4   C397.1,353.7,400.6,357.8,405,356.8z M487.8,267.8c-1.5,0.2-6.9,3-5.4,4.4C484.2,271.2,486,270.1,487.8,267.8z M449.1,261   c-1.9-0.5-3.5-0.5-4,1.6C446.7,263.3,447.6,262.2,449.1,261z" />
	<path fill="#FBDFD3" d="M574.9,347.4c6.3-1.7,15.6-0.9,18.3-8.5c1.9-1,3.5-1.5,4.8-3.1c13.5-5.1-31.6-13.9-27.6-0.3   c-7.4,0-14.2-5.1-21.7-6.1c-5.8-2.6-11.8,1-17.7-0.3c-4.1-1.4-10.2,0.3-13.1-2.7c11.3-19.9,30.2-33.5,50.4-43.7   c11.2,7.4,22.9,14.3,31.8,24.7c0.4,0,0.9-0.1,1.7-0.2c11.3,9.1,29.4,26.5,15.9,40.8c-1.6-0.6,0.1-1.9-1.3-2.9   c-1.6,0.5-2.4,1.7-3,3.5c1.2,0.1,2.2-0.5,2.8,0.7c-0.8,0.7-1.7,1.3-2.2,1.7c-6.8,17.6-22.9,29.5-34.9,43.7   c-23,15.3-45.9,32.6-63.2,54c-2.2,0.3-4.3,0.6-6.1,0.8c-3.7-3.1-7.8-4.6-10.5-8.4c0.3-0.3,0.6-0.6,0.9-0.9c2.5-0.1,5.4-2,4.8-4.7   c-1,0.3-1.8,0.4-2.6,0.6c-0.2-0.1-0.4-0.3-0.7-0.5c13.1-12.3,26.5-25.1,34.5-41.6c6.5-9.8,15.4-18,18.9-29.7   C559.6,357.2,571,356.1,574.9,347.4z M609.5,348.7c-2.4,1.6,3.5,2.8,2.2-0.6c2.8-3.5,0.7-8.3-2.9-10.2   C603.7,339.1,605.8,347,609.5,348.7L609.5,348.7z M515.9,427.5c1.5-1.5,1.5-1.5,0.8-2.9c-2.2,0.2-2.1,3.2-4,4.1   c-0.9,0.5-0.7,1.1,0.3,2.2C514.6,430.7,515.1,428.8,515.9,427.5z M572.1,378.3c5.9,1.6,14.3-10,11.8-15.1   C579.4,367.3,575.4,373.3,572.1,378.3z M604.4,333.9c4.1,1.1,7.6-2.9,8.8-6.4c-0.4-0.2-0.7-0.3-1.2-0.6   C609.6,329.5,606.9,331.3,604.4,333.9z M604,363.7c-1.2-2.5-3.2-0.2-3.8,1.5C600.3,368.3,604.1,366.2,604,363.7z M568.5,382.5   c-0.4-0.5-0.7-0.9-1.1-1.4c-1.7,0.7-2.9,1.6-3.2,3.7C566.3,385.1,567.5,384.2,568.5,382.5z M559,387.4c0.2,0.3,0.3,0.6,0.5,0.8   c1.4-0.1,2.6-0.8,3.3-2.5c-0.4-0.3-0.9-0.7-1.3-1C560.2,385.4,559.7,386.3,559,387.4z M510.3,430.7c-1.1,1.2-2.5,1.5-2.4,3.3   c1.9,0.8,2.7-0.5,3.6-1.8C511.2,431.7,510.9,431.4,510.3,430.7z M586.1,358.2c-2.1,0.8-2.4,1.6-1.2,3.4   C586.8,360.6,586.9,360.4,586.1,358.2z M554.8,391.4c2.2-0.8,2.2-0.8,1.9-2.2C555,389.6,555,389.6,554.8,391.4z M542.3,398.3   c0.3-1.7-2.5-1.3-1.8,0.1C541.1,399.1,541.7,398.9,542.3,398.3z M551.4,393.3c-0.9-1.2-1-0.9-1.7-0.1   C549.9,394,550.6,393.4,551.4,393.3z" />
	<path fill="#FBDFD3" d="M348.4,352.2c9.2,17.2,29.1,23.4,48.1,21.7c-6.5,5.8-15,8.8-21.5,14.8c-3.2,3.7-8,2.1-11.5,4.8   c0,0.7,0,1.5,0,2.1c-6.2,5.9-9.8,15.4-18.1,18.1c-0.5-3.4,5-5.4-0.1-9.8c-6.3-4.7-12.7,5.7-15.1,10.7c0.7,1.1,1.4,2.3,2.1,3.5   c-2.7,1.6-4.8,3.8-6.6,6.4c-0.2,0-0.5,0-0.7,0c-0.2-2.4,0.8-5.3-0.9-7.3c-2,0.7-2.2,8.4-1.1,10c0.9-1.1,1.5-1.9,2.1-2.7   c0.1,4.1-3.8,6.6-5.7,10.2c-0.6-0.4-1.1-0.8-1.6-1.2c-1.5,0.5-1.5,2-2.2,3.2c0.6,0.5,1,0.9,1.4,1.2c-6.3,13.9-21.3,21.4-29.4,34.2   c0.1,0.5,0.2,1.1,0.3,1.7c-7.7,8.5-17.2,15.7-21.7,26.2c-3.7,7-11.2,12.8-11.9,20.8c-4.4,2-11.9,5.8-15,0.1c-0.8-1.7-1.6-3.8,0-5.3   c1.5-2.6,8.6-10.9,7-13.2c0.7-1.2,1.4-2.4,2.1-3.6c0.8,1.8,3-0.9,2.9-2.1c-0.3-0.2-0.6-0.5-0.8-0.7c-0.2,0.1-0.4,0.1-0.6,0   c0.3-3.4,4.8,0.3,4.4-6c1.8,0.1,2.8-0.9,3.7-2.3c-0.3-0.4-0.6-0.7-0.9-1.1c-1.6,0.7-2.7,1.7-2.7,3.4c-0.5-0.1-0.9-0.1-1.6-0.2   c14.8-25.4,18.8-57.3,36-81.1c7.1-9,16.7-14.9,26.8-19.4c3.3-2.1,8.9-10.2,12.1-9.9c-1.6,5.3-3.2,10.6-4.7,15.9c0.3,1,0.6,2,1,3.2   C341.8,390.6,336.6,364.5,348.4,352.2z M349,392.2c-1.7-0.3-3.5-0.2-4.2,1.8c7.4,0.2,16.9-1.7,22.9-6.9   C364.2,384.1,352.5,389.9,349,392.2z M304.2,405.8c-2.6,2.2-8.3,6.1-8.1,8.4C299,415.2,306.6,408.9,304.2,405.8z M295,438.2   c3.5-2.4,6.7-5.5,7-9.6C299.7,428.9,293.6,435.9,295,438.2z M373.8,383.2c-1.9,0.1-3.4,1-4.6,2.9   C371.3,387.2,375.8,385.6,373.8,383.2z M288.3,446.7c-1.6-1.5-3.7,1-3.5,3C286.6,450.2,288.1,448.6,288.3,446.7z M294,416.1   c-2.7,1.5-3,1.9-2.6,4.2c2-0.2,2.6-1.7,3.4-3.2C294.6,416.8,294.3,416.4,294,416.1z M335.3,399c-1.8-1.6-4.8,1.3-3.2,3.2   C333.6,401.5,335.2,401,335.3,399z M288.9,422.6c-1.9,0.7-2.4,2.4-1.6,4C289.5,426.1,290.6,424,288.9,422.6z M325,409.9   c-2.2,1.5-1.6,4.9,0.5,3.5C326.1,412.2,326.2,411.1,325,409.9z M287.9,444.4c1.4,1.2,3.5-1.1,3-2.8   C289.3,442.3,288.3,443,287.9,444.4z M286.1,428.6c-1.9-0.6-1.9-0.6-2.6,1.5C285.1,430.4,285.1,430.4,286.1,428.6z M261.3,484.4   c0.6-0.5,1.1-1,1.7-1.5c-1.5-1.2-1.5-1.2-2.5,0.6C260.7,483.7,260.9,484,261.3,484.4z M338.7,397.7c1.5-0.7,1.5-0.7,1.4-1.9   C338.1,396.2,338.1,396.2,338.7,397.7z M281.4,434.6c-0.6-0.9-0.9-1.4-1.4-2.2c-0.5,0.8-0.8,1.3-1.3,2.2   C279.7,434.6,280.3,434.6,281.4,434.6z" />
	<path fill="#CCD2E9" d="M515.1,169.7c3.4,10.5,9.3,18.2,21.2,13.9c4.8,6.6,9.7,13.4,14.5,20.2c-6.5,12.4-18.6,18.5-28.6,27.1   c-7.6,5.8-13,14.3-21.1,19.5c-2.5,2-7,2.9-7.8,6.3c-3.7,1.5-7.2,1.4-10.8,1c2.7-6.9,1.1-14.7,3.5-21.5c-0.6-1.9-3.6-1.9-4.1-0.3   c-0.4,2.3-2.2,3.3-3.7,4.6c-0.4-0.1-0.8-0.2-1.2-0.4c-0.4,0.7-0.7,1.3-1,1.8c-1,0.4-0.7,1.2-0.6,1.9c-0.1,0.7-0.2,1.5-1,1.8   c-2.5,1.7-3.5,5.4-3.4,8.5c-0.3,0.3-0.6,0.5-0.9,0.8c-9.7-4.4-16.8-11.1-22.4-20.1c12.4-12.2,14.6-30,21.8-44.9   c1.1,3.1,3.9,3.9,5.8,5.8c2.3-0.5,3.2-3.2,4.9-4.7c8.5-8.9,6.1-22.8,5.3-34.4c1.4-2.1,2.6-4.1,4.6-5.7c2.8,3.7,7.3,3.4,11.2,2.1   c1,0.3,2,0.6,2.8,0.8c1.4-0.6,2.6-1.1,3.9-1.7c1.1,1.6,1.9,2.6,3.4,3.8c-0.5,1-1,1.9-1.4,2.7C513.1,161.8,510.2,168.2,515.1,169.7z    M511.4,181.2c-2.2,0.8-3.8-0.4-4.6,3.1c3.9-2.1,8.8-1.2,11.2-5.2C516.6,175.7,512.7,179.6,511.4,181.2z M507.9,199.8   c-0.4,3.8,2.4,6.3,4,9.5c6.1-3.2,5.9-16.1-2.9-12.8c-0.9-2.2-3-3.3-2.7-0.2c-0.8-0.7-1.7-1.5-2.2-1.9c-2.3,0-4,0-5.4,0   c-2,1.4-3.2,3.2-3.5,5.3c-6.9,1.1-7.6,13.8,0.2,6.8c1.3,0.8,2.5,1.5,3.6,2.1c0.6,1.1,1.1,2.2,1.7,3.4c1.1-1.1,1.1-1.1,1.1-2.5   c0.3-1.4,1.5-2.2,2.3-3.3c2.1-2.4,1.4-6.1,2.8-8.5C507.3,198.5,507.6,199.2,507.9,199.8z M518.3,217c0,0.2,0,0.5,0,0.7   c5,0.2,9.4-1.7,13.8-3.6C532.6,208.5,521,216.5,518.3,217z M504.2,184.4c-1.9-1.3-5.2,0.7-5,3.1   C503.1,186.9,503.8,186.5,504.2,184.4z M499.3,229c2.1-0.4,2.6-1.9,3.4-3.1C500.8,223.8,499.3,227,499.3,229z M512.2,220.1   c2.3,0.6,3.8,0.2,4.6-1.9C514.7,217.8,513.2,218,512.2,220.1z M479.8,233.4c-1.1,1.6-2,2.6-1.3,4.4   C479.6,236.6,480.8,235.8,479.8,233.4z M510.9,221.3c-0.2-0.4-0.4-0.7-0.6-1.1c-1.5,0.1-2.3,0.8-2.8,2.8   C509.1,222.4,509.9,222.4,510.9,221.3z M496.9,188c-1.5-0.1-2.1-0.1-3.2-0.2c0.6,0.9,0.9,1.4,1.3,2.1   C495.5,189.3,495.9,189,496.9,188z M533.8,210.5c0.9,1.4,1.9,0.4,1.9-0.8C534.8,209.4,534.3,209.4,533.8,210.5z M479.3,232.2   c0.4-0.9,0.5-1.3,0.7-1.6C479.2,230.1,478.9,230.7,479.3,232.2z" />
	<path fill="#FBDFD3" d="M374.3,124.3c0.7-2,1.4-3.9,2.1-5.9C406,110,416,78.2,445.2,69.8c6.4-1.4,17.7-10.6,22.9-8.9   c6.2,5,13.7,4.6,21,4.2c15.5,3.3,31.6,5.6,45.4,13.9c-13.3,1.5-24.4,6.5-33.7,16.3c-5-1.6-9.2-6.7-15-6c-4.3-2.6-7.9-10.1-13-8.8   c1.9,3.3,1.5,6.2,2.6,9.8c-3.8-2.4-8.7-3.2-12.3-1.6c1.2,2.1,3.3,3.4,4.7,5.3c-0.1,0.5-0.2,0.9-0.3,1.4c0,0-0.1-0.2-0.1-0.2   s0.1,0.2,0.1,0.2c-1.1-1.1-2.5-3.6-4.3-1.5c0.8,0.9,1.5,1.8,2.4,2.7c-9.4,7.2-20.8,4.2-31.5,6.7c-20.8,6.8-39.3,16.1-42.1,39.5   c-0.5,1.3-0.9,2.7-1.4,4.1c-3.1,0.9-5.8,2.2-7.8,4.7c-3.1,1.2-5.3,4.4-7.5,7c-1.5,2.5-5.1,3.4-6.1,6.3c-2.9,1.4-6.2,7.2-9.4,4.2   c4.1-5.6,11.7-8,14.3-15c1.7-0.6,3.1-1.1,4.6-1.6c3.3-10.8,6.1-6.5,11.3-13.9c1.2-0.3,1-1.3,0.8-2c-2.7-5.4-15.6,6-16,9.8   c-1.7,0.2-4.3,0-4.2,2.5c-2.1-0.1-4.2-0.1-6.5-0.2c0.6-2.3,1.8-3.9,3.3-5.6c1.9,0,3.9,0,5.8,0c1.2-1.3,1-2.6,0.6-3.8   c-1-3.3,0-6.4,0.6-9.5c0.7-1.8,2.8-2.8,1.9-5c1.8,0,1.8,0,2.1-2.1c-1.7-0.1-1.6,1.3-2,2.2c-1,0.5-1.2,1.9-2.7,2.1   C373.9,126,374.1,125.2,374.3,124.3z M399.3,117.6c-3.1,0.9-5,2-6.5,4.2c0.3,0.4,0.6,0.7,0.9,1.1   C395.7,121.4,398.1,120.8,399.3,117.6z M467,70.2c0.9-3.2-1.6-5.6-3.3-2.6C464.7,68.4,465.7,69.2,467,70.2z M403.6,115.5   c-1.5-0.3-2.6,0.4-3.6,2.1C401.9,118,402.9,117.1,403.6,115.5z M404.7,114.8c1.4-0.2,2.4-0.5,2.8-1.9   C406.2,111.5,404.7,112.9,404.7,114.8z M409.8,111.2c1.6,0.3,2.9-0.6,2.6-2.2C410.6,108.8,410.4,110.2,409.8,111.2z M380.6,121.1   c1.3,1.6,3.2,0.2,2.9-1.3C382.1,119.7,381.4,120.4,380.6,121.1z" />
	<path fill="#4B65C5" d="M402.6,292.3c-4.2,4-5.8,10.4-9,15.5c12.9,7.2,29.8,6,43.4,8.5c-11.1,1.8-22.2-1.6-33.3,0.3   c7.6,2,14.2,0.5,21.2,2.4c-11.9,1.2-23.1-1.2-34.1-5.7c-2.1,2.1-5.3,8-5.8,10.7c3.2,6,8.8,9.9,13.8,14.6c-3.1,1.3-4.2,1.1-11-2.1   c-0.2,0.2-0.4,0.5-0.7,0.7c-2.1-2.7-1.8-6.2-4.1-8.7c-0.1,1-0.1,1.6-0.1,2.1c-0.7-0.4-1.4-0.9-2.1-1.4c-2.8,2.2-5.5,4.4-8.5,6.9   c-1.1,6.7-1.1,13.4,0.5,20.4c-3.1-4.5-2.7-9.4-5.3-14.1c-2.4,1.5-3.5,3.7-3.4,6.4c-0.3-1-0.6-1.9-0.9-2.9c-1.5,0.8-0.9,2.3-1.2,3.5   c-2.1,2.2-5.8,3.6-6.6,6.7c-3.6-4.7-9.2-9.2-8.4-15.6c2.7,0.9,5.4,1.7,8.2,2.7c-0.3,2-0.5,2.9-1.2,5.2c3.4-3.4,6.2-6.2,9.2-9.2   c1.8,0.4,2.2,0.5,4.4,0.7c-1.2-1.1-1.9-1.7-2.6-2.4c3.1-6.5,11-11,12.8-18c-2.5,1.2-10.1,12.5-14.8,16.9c-4.2-2.2-5.8-5.6-9.5-8.6   c1.3,4.9,4.7,6.8,8.1,10c-1.2,1.2-2.2,2.3-3.5,3.6c-4.3-0.1-8.4-1.3-12.1-3.9c7.7-14.3,18.2-27,28.3-39.5c2.4,2.5,5.2,5.1,8.8,6.5   c1.5-2-6.7-5.3-7.9-8c0.2-0.2,0.4-0.5,0.6-0.7c3.3,1.9,6.8,3.5,10.5,4.2c2.7-3.7-7.6-4.6-9.8-6.4c2.4-2.6,2.2-5.7,2-9   c3.1,0.4,5.4,2.8,8.3,1.9c1.4-4.2-5.6-4.1-8.4-4.5c6.6-8.2,5-19.2,9.3-28.5c8.4-13.9,22.4-26.9,39.2-28.4c2,2.8,3.7,5.5,7.2,6.6   c2.5,4.7,5.9,9,10.3,12.1c-9.3,5.6-21.9,2.3-31.3,8.7c5.1,0.3,9.5-1.7,14.5-2.2c-0.6,2-2.7,2.6-4.2,3.7c-2.7,2-3.9,4.8-5.6,7.6   c1.3,0.6,1.6-1.3,2.8-1c0.2,1.2-1.6,1.8-2.3,2.7c-0.2-0.1-0.4-0.2-0.7-0.5c-5.7,12.7-17.6,21.2-24.2,33.9c-0.7-5-7.1-8.2-10.7-4.8   c3.8-0.6,13,3,8,7.1c-0.6-0.5-1.1-1.1-1.7-1.6c-1,2.1,0.8,2.6,1.7,3.6c-0.7,2.2-2.7,3.7-3,6c7.3-5.7,11.3-15.8,17.6-22.9   c0,0,0.2,0.2,0.2,0.2c-0.8,1.8-1.6,3.7-2.2,5.6C402.3,290.7,402.3,291.5,402.6,292.3z M416.3,240.3c2.1,0.5,3.8-0.3,5.8-1.1   c-0.3-0.7-0.5-1.1-0.8-1.7C419.3,238.2,417.3,238,416.3,240.3z M391.6,262.3c1.8,2.2,5,1.3,7.9,1.1   C396.9,261.7,394.4,262,391.6,262.3z M387.5,279.3c1.9,1,3.1-0.2,4.6,0.1C390.7,277.9,390.7,277.9,387.5,279.3z M362.6,319.2   c0.1,1.6,0.1,1.6,2.1,1.9C364.6,319.7,363.5,319.5,362.6,319.2z M397.8,277.9c0-1.1,0-1.1-1.1-1   C397.1,277.3,397.4,277.5,397.8,277.9z" />
	<path fill="#B7BDD5" d="M498.5,153.8c-3.2,0.4-6.3,0-8.5-2.9c-1.9,1.6-3.1,3.7-4.6,5.7c0.8,11.6,3.2,25.5-5.3,34.4   c-1.7,1.6-2.5,4.2-4.9,4.7c-1.8-1.9-4.7-2.7-5.8-5.8c-7.2,14.9-9.4,32.7-21.8,44.9c-4.4-4.9-7.6-10.2-11.5-15.5   c7.4-13.6,16.6-26,21.7-40.7c4.8-12.4,8.1-25.5,14.3-37.3c4.1-6.4,10.3-11.5,13.9-18.3c12.1-28,30.7-43.8,62.2-42.4   c-0.9,0.1-1.8,0.2-2.7,0.2c-2,1.6-2,1.7-2.6,3.3c-1.8-0.5-2-0.4-2.7,1.5c-5.3,2.1-10.3,5-15.3,7.8c-0.1,0.5-0.2,0.8-0.2,1.2   c-3.4-0.5-6.1-0.8-8.6,2.7c0.1,0.9,0.9,0.6,1.4,0.7c-15.3,14.9-11.8,19.2-19.2,37.3c1.1,5,3.8,10,1.8,15   C497.6,149.6,494.9,152.1,498.5,153.8z M508,100.9c-4.6-1.5-12.4,6.5-8.5,11c2-2.7,3.2-5.8,6.2-7.8   C506.8,103.2,507.9,102.4,508,100.9z M488.8,122.5c2.8,0.4,5.7-2.1,4.2-4.7C491,118.7,490.1,120.5,488.8,122.5z M486,130   c1.8-1.4,5.8-5.6,2.7-6.5C487.6,125.3,485.8,126.9,486,130z M494.9,118.1c2.9-0.9,3.9-2.7,4-5.5   C496.6,113.2,496.2,113.7,494.9,118.1z M485.9,131.4c-1.1,3.6-1.5,3.6,0.2,4.9C488.7,135.9,488.2,132.6,485.9,131.4z M493.9,149   c-1.1,0.8-2.1,2.1-0.4,2.6C495.5,151.7,495.1,150.1,493.9,149z" />
	<path fill="#FBDFD3" d="M592.2,51.3c4.2,3.4,1.9,9.2,4,13.6c1.8-0.2,1.2-2.1,2.4-2.6c1.8,0.1,1.9,2.9,4.3,2.8   c-6.3-16.9,21.2-19.4,29.8-27.9c3.1,2.1,7.6,3.7,10.8,0.5c1.4,0,2.7,0,3.7,0c1.2,0.7,1.5,2.2,2.9,2c0.2,0.4,0.6,1,0.5,1.2   c-3.1,5.6,0.5,12.6-2.2,18.4c-12,4,7.9,29.8-10.3,22.5c-0.3-0.6-0.5-1.4-1-2.4c-0.8,0.6-1.5,1.1-2.1,1.6c-2.7-0.8-4.8-3.7-8-2   c-4.3,8.1,8,15.4,4.3,27.4c-2.3,8-13.8,0.5-18.7-1c-8.7-3.5-14-13.9-21.5-19.6c-1.2-4-3.4-8.9,1.1-11.6c-0.5-0.3-1-0.7-1.5-0.9   c-0.1-0.6-0.1-1.1-0.2-1.9c-1.2,0.3-2.2,0.6-3.3,0.9c-4-2.8-5.2-7.1-7.7-11c0-0.6,0.1-1.2,0.8-1.5c1.2,2.8,2.1-0.4,0.8-1.5   c-0.4-1.5-0.2-2.7,1.3-3.4c2.6,1.7,0.9,4.6,0.9,7.4c0.9-0.5,1.4-0.7,1.8-1c0.3,0,0.6,0,0.9,0.1c-0.3,0.8-0.6,1.6-0.9,2.5   c4,4.4,11.2-0.1,4.1-3.1c-0.3-0.9-0.5-1.6-0.7-2.3c0.7-0.7,1.3-1.4,1.8-2c1.5,0.8,1.5,0.8,2.5,0.3c-0.6-1.3-1.2-2.6-1.9-3.8   c0.1-0.7,0.1-1.3-0.8-1.4c0.2-0.7,0.8-0.7,1.4-0.7c0,0,0.1,0,0.1,0C591.7,50.9,592,51.1,592.2,51.3z M604.4,70.9   c0.3,0.6,0.6,1.3,1.8,0.8c-0.5-1.3-1.7-4.1-2.9-2C603.6,70.1,604,70.5,604.4,70.9z M624,52.4c0.5,1.6,3.2,2,4.9,1.4   c5.1-1.8,8.5,4,13.6,4.2c0.5-0.6,1-1.3,1.5-2C639.9,51.1,629.4,48.6,624,52.4z M628.7,60.1c0,2.8,3,0.9,4.2,2.4   c1.6,1.6,3.4,1.3,5.6,0.6c-0.3-1.6,0.3-2.1,1.4-3.6C635.8,58.7,632.2,58.2,628.7,60.1z M606.9,72.7c0.2,2.4,0.8,3.7,2.6,2.8   C609.2,74.3,608.6,73.3,606.9,72.7z" />
	<path fill="#E4E4EB" d="M509.2,466.4l-0.3,0.1c-1.8-0.7-2.2,1.6-3,2.7c2.3,5.6,10.2,1.5,15,1.7c0,1,0.1,1.8,0.1,2.8   c-4,2.1-9.4-0.2-11.6,4.1c0.4,2.7,3.3,2.7,5.5,2.9c0.3,0.3,0.5,0.5,0.8,0.8c-2.8,1-1.9,5.1,1.1,4.5c1.9-0.2,3.7-0.8,5.9-1.2   c0.2,0.5,0.5,1.2,0.8,2c-6.3,1.7-3.2,5.9,1.8,4.2c4.9,5.6,10.7,10.1,16.3,14.9c3.6,1.5,2.8,6,0.4,8.3c-22.4,1-40.2-11.6-49.5-31.3   c0-1.3,0-2.6,0-3.8c-2.3-2.3-2.7-2.4-5.4-2.6c-11.3-0.9-20.5-17.4-23.4-27.3c0.3-0.6,0.5-1,0.7-1.5c6.1-1.8,8.7-8.6,14.7-9.9   c4.4-0.7,7.7-3.5,11-6.1c3.6,4-2,12.5,3.3,17.6c4,13,17.2,2,26.7,4.3c0.1,1.5,0.2,3,0.3,4.7c-5.5,1.8-11,2.3-16.6,2.4   c-6.2,3.2,1.9,5.7,5.4,5C509.2,465.9,509.2,466.2,509.2,466.4z" />
	<path fill="#E4E4EB" d="M252.8,573.5c-0.3,1.7-0.1,3.4,0.9,4.8c2.2,3.4,2.1,7.7,3.2,11.5c-0.9,1.5-2.6,1.7-3.9,2.4   c-4.9-5.4-13.2-2.1-18.7-6.6c-6.1-5.8-17.2-8.7-16.9-18.7c-1.1-18.1,6.3-36.6-3.6-53.5c-0.6-3.8,1.1-6.2,2-9.6   c2.8-1.9,5.5-3.8,8.2-5.6c4.2,0.5,7.2,3.4,10.7,4.7c-3.8,8.2-4.1,22.4,6.8,25c4.3,1.8,7.9,5.5,13,3.4c1.5,2.8,1.5,2.8,0.4,5.7   c-4.6-0.7-8.9,2.3-13.6,1.6c-3.6,0.1-6.4-1.6-9.2-3.6c-5.8-0.9-2.3,5.9,1.1,7.2c-2.6,0.4-6.7,0.3-6.4,3.7c2.1,4.3,9.6,1.7,13.6,3.6   c-2.1,1.5-4.8,0.5-7.2,0.3c-5.6,0.3-3,6.1,1.3,6.2c0,0.2-0.1,0.3,0,0.5c-4.2,1.8-0.9,5.7,2.6,5.2c0.2,5.5,17.6,3.2,10.3-1.9   c1.1-0.6,2.1-1.1,3.2-1.7C253.6,562.4,251.4,568.6,252.8,573.5z" />
	<path fill="#4B65C5" d="M460.1,328.4c4-8.2,8.2-17.9,15.4-23.6c0,0.6-0.7,1.3,0.3,1.8c2.9-2.9,5.9-5.8,8.8-8.7   c-1.5-0.7-3.4,1.9-5,2.5c4.9-10,18.7-14.4,29.6-13.5c-7.4,4.5-14.4,8.4-21.8,12.9c-0.3-0.1-0.7-0.2-1.2-0.4c0,0.6,0,1.2,0,1.7   c-1.2,1.2-3.1,1.3-4.5,2.9c1.4,0.6,2.6,1,3.9,1.6c0.5-1.2,2.1-0.2,2.6-1.5c0.5,0.5,1,1,1.5,1.4c-0.2,3-9.7,4.2-8.9,7   c3.7-1.2,7.1-4.9,11-4.6c0.8,1.1,1.3,2.5,2.7,3.4c0.8-2.1-1.2-3.2-1.5-4.8c0.5-0.4,1-0.9,2.1-1.8c-1.7,0.4-2.5,0.5-3.5,0.8   c-0.4-0.5-0.7-1-1-1.5c8.5-2,17.2-2.1,25.7-2.7c-6.1,3.7-13.8,5.2-20.6,7.9c-0.2,1.2-0.4,2.1-0.7,3.3c2.6,0.7,3.8,2.2,6.7,2.7   c-4.4,1.9-9.3,2.2-13.1,5.3c5.3-1.1,10.5-2.8,15.8-4.1c1.2,0.7,2.3,1.4,3.4,2.1c0.3-0.3,0.5-0.6,0.7-0.8c2.5,1.3,5,3.1,7.8,2.9l0,0   c-3.5,7.3-7.7,15.6-2.5,22.8c1.8,0.5,3.3,2.2,4.6,3.9c-4.9,4.2-21.6-4.4-28.4-5.2c-13-7.5-11-10.2-27.2-13.4c0.9-1.9,3-3.2,2.9-6.1   C463.4,324.6,462.9,327,460.1,328.4z M466.4,321.9c1.3-4.1,5.1-6.7,7.7-11.1C471.8,311.4,462.2,320.9,466.4,321.9z M502.5,338.9   c1.7,0.3,2.7,1.2,3.6,0.7C505.4,338.4,504.4,338.5,502.5,338.9z" />
	<path fill="#EECABA" d="M323.6,393.5c1.4-4.6,2.8-9.3,4.1-13.9c-3.1-0.3-8.8,7.9-12.1,9.9c-10,4.4-19.7,10.4-26.8,19.4   c-17.2,23.8-21.2,55.7-36,81.1c0.7,0.1,1.1,0.1,1.6,0.2c0,0,0,0,0,0c0,0.3-0.1,0.6-0.1,1c-2.9-0.6-3.4,1.4-2.9,3.5   c-1,0-1.5,0.5-1.3,1.5c-0.7,0.9-1.8,1.5-1.6,2.8c-0.7,1.2-1.4,2.4-2.1,3.6c-3.3-0.2-7.2,4.8-5.2,7.7c0.7-0.1,1.2-0.2,1.6-0.3   c-0.4,3.3-3.8,4.9-4.4,8c-7.8-13.1,15.2-38.4,19-53.5c5.1-12.7,9.8-25.4,15-38.1c2.9-7.4,4.1-15.9,10.5-21.3   c9-9.8,22.6-14.1,31.3-23.7c5.1-3.9,11.8-6,14.8-12.2c4.8-9.2,8.5-19,14.6-27.5c0.5,4.3,2.7,7.3,4.8,10.6   c-9.6,9.4-7,26.9-15.5,37.6c0-0.7,0.1-1.3,0.1-2.1c-2.5-0.2-2.8,1.5-3.8,3c1.3,0.8,1.9,0.5,3-0.1c-1.1,4.1-4.4,6.6-8.2,8   c-0.4-1.2-0.7-2.2-1-3.2c2,0.6,3.5-1.1,4.3-3.1C325.7,391.7,324.9,392.6,323.6,393.5z" />
	<path fill="#EECABA" d="M585,203.6c2.2,1.5,4.6,0.5,7.4,0.7c-5.8,5.6-14.5,7.8-21.9,4.6c0,4.1,7.8,6.5,9.3,11.7   c1.1,0.6,2.3,1.2,3.4,1.7c3.8-1,7.5-0.5,11.3,0.2c-3,3.1-5.6,5.7-8.8,9c-0.5,0.1-1.5,0.3-2.3,0.5c-20.5-9.8-30.6-32.1-43.8-49.4   c-1.7-2.6-8.6-37.3-11.6-28.6c-1.9-2.1-2.1-5-3.6-7.4c0.7-0.7,1.2-1.3,1.7-1.8c3.2-1,5.5,0.4,7.4,2.4c11.8-3.7,8.4,21.3,18.4,23.4   c5.8,5.3,12.1,10.4,18.1,15.5c-2.5,4.8-7.7,3.1-12,1.7c2.2,5.4,5.2,9.9,8.3,14.4c4.6-3,9.4,0,14.2,0.9c-3.8,3.2-4.1,0.5-7.2-0.1   c-0.8,0.9-0.4,1.6,0.2,2.2C576.6,209.1,582,206.8,585,203.6z M547.7,180.3c-2.4-2.5-3.2-5.3-5.7-7.9c-2.3,4,2.4,9.7,6.6,9.6   c0.8,0.5,1.4,1.3,2.4,0.4C550.3,180.2,549.1,181.2,547.7,180.3z M585.5,224.6c-1.8-0.9-4.8-1.3-6.1,0.3   C581.6,226.3,584.1,226.9,585.5,224.6z M555.2,184.1c-1.4-1.9-1.3-2.2-3.4-2.1C552.4,183.2,553,183.9,555.2,184.1z M557.4,184.6   c0.3-0.9-1.4-1.7-1.5-0.6C555.9,184.8,556.8,185.2,557.4,184.6z" />
	<path fill="#EECABA" d="M598,335.8c-1.3,1.6-2.9,2.2-4.8,3.1c-2.2,5.9-9.9,7.9-15.6,7.5c0-0.4,0.1-0.7,0.1-1.3c-10,1-19-2.4-28.4-5   c-11,1.7-23.9,2.7-34.7-0.6c-0.2-3.4,1.3-9.6,3.2-13.3c3,3,9.1,1.4,13.1,2.7c5.9,1.3,11.9-2.3,17.7,0.3c7.5,1,14.3,6,21.7,6.1   c-1.2-11.5,24.4-7.5,29.8-2.7c-1.7-0.2-3.3-0.2-4,2.1C596.9,335.2,597.5,335.5,598,335.8z M593,335.4c-1.2-3.2-4.3-2-4.2,0.9   C590.3,336.6,591.5,336.2,593,335.4z M585,334.3c-1.6-2-2.1-2-4.1-0.4C582.1,334.9,583.3,335.2,585,334.3z M581.5,343.3   c-1.4,0.4-2.4,0.9-2.6,2.4c1.5,0.6,2.3-0.4,3.3-1.3C581.9,344,581.8,343.7,581.5,343.3z M576.4,332.9c-1.8-1.2-1.9-1.2-2.7,0.4   C574.6,333.9,575.4,333.8,576.4,332.9z M588,341.8c-1.3-0.3-1.3-0.3-2,1.2C587.4,343.4,587.4,343.4,588,341.8z" />
	<path fill="#CCD2E9" d="M525,94.8c0.1-0.3,0.1-0.7,0.2-1.2c5-2.8,10-5.7,15.3-7.8c5.4,2.1,0.2-12.6,17.9-0.2   c-3,1.2-6.6-1.6-8.2,0.9c0.9,1.3,2.5,0.7,3.8,0.8c0.6,0.7,1.3,1.3,2.2,2.2c-29.3,1.2-47.6,31-44.8,58.4c-0.8,0.7-1.6,1.3-2.3,2   c0.4,1.6,1.5,0.2,2.3,1c0.5,6.2,2.4,12.6,3.7,18.7c-4.9-1.5-2-7.9-5.2-11.1c0.4-0.8,0.9-1.8,1.4-2.7c-1.4-1.2-2.3-2.2-3.4-3.8   c-1.3,0.6-2.5,1.1-3.9,1.7c-0.8-0.2-1.8-0.5-2.8-0.8c2.2-1.1,5.3-1.4,6.9-3.3c-0.8-3.9-5.1,0-6.6,1.5c-0.4-0.3-0.7-0.5-0.9-0.8   c2-5-0.7-10-1.8-15c7.4-18.1,3.9-22.4,19.2-37.3c0.7,0.1,1.3,0.1,1.5-0.7C520.9,95.6,524.1,97.2,525,94.8z M549.7,85.1   c-2.1-1.8-3.2-1.6-4.8,0.8C546.5,86.1,548.2,87.5,549.7,85.1z" />
	<path fill="#EECABA" d="M500,440.3c-0.3,0.3-0.6,0.6-0.9,0.9c-1.4-1.6-2.9-3.2-4.5-5c22.8-18.5,38.4-44,48.8-71.2   c5.5-6.7,16.6-9.4,19.8-18.2c3.8,0.5,7.8,0.7,11.7,0.6c-3.9,8.8-15.3,9.8-20.1,17c-3.5,11.7-12.4,19.9-18.9,29.7   c-8,16.5-21.4,29.2-34.5,41.6c0.3,0.2,0.5,0.4,0.7,0.5c-0.7,1.2-2.5,1.5-2.7,3.1C499.7,439.7,499.8,440,500,440.3z" />
	<path fill="#CFCFDD" d="M464.5,447.7c-0.2,0.4-0.4,0.9-0.7,1.5c2.9,9.9,12.2,26.5,23.4,27.3c2.7,0.2,3.1,0.3,5.4,2.6   c0,1.2,0,2.5,0,3.8c9.3,19.7,27.1,32.4,49.5,31.3c0.3-0.4,0.7-1,1.2-1.6c-0.1,0.8-0.1,1.7-0.2,2.3c-2.1,2.9-5.5,3.1-8.2,4.7   c-14.2-2.4-30.4-6.1-39.4-18.4c0.6-7-9-10.9-8.7-18c-12.6-7.1-33.3-16.6-27.3-34.6C461.2,448.4,462.8,448,464.5,447.7z" />
	<path fill="#CFCFDD" d="M216,503.8c-1,3.4-2.7,5.8-2,9.6c9.9,16.8,2.5,35.3,3.6,53.5c-0.3,10,10.8,12.9,16.9,18.7   c5.5,4.6,13.7,1.3,18.7,6.6c-17.8,14.6-32.4-11.1-42.6-23.2c0-9.4,0.9-18,2.9-27C215.2,529.2,198.8,511.6,216,503.8z" />
	<path fill="#EECABA" d="M577.8,184.9c0.2-0.5,0.5-1,0.7-1.4c1.7-0.3,1.7-0.4,0.7-1.5c0.3-0.6,0.6-1.1,0.9-1.7   c1-0.2,1.5-0.7,1.5-1.7c-0.5,0-1.1-0.2-1.5,0c0.1-1,0.8-0.9,1.5-1c1.4-0.3,2.3-1.2,3.2-2.1c10.4-10,26.2-11.8,36.3-22.1   c8.9-8.9,18.8-18.2,20.3-30.7c1.7-0.5,1.3-2,0.3-3c-0.7-1.3-2.2-0.4-3.3-0.6c-6.9-10.1-2.5-23.4-9.5-33.9   c7.6,2.4,6.6,11.8,7.4,18.2c-0.6,4.1,3.2,6,4.4,9.5c1.2,4.5,4.8,8.1,4.2,13c0.5,24.9-27.7,34.1-46.2,45.3   c-8.4,6.5-13.5,16-21.2,22.9c-1.9-2.6-1-5.1-0.4-7.7c0.4-0.1,0.8-0.1,1.3-0.2C578.1,185.6,578,185.3,577.8,184.9z M642.4,126.4   c-0.3,0.1-0.5,0.2-0.7,0.3c0.1,0.3,0.2,0.6,0.4,0.9C642.9,127.3,642.8,127,642.4,126.4z M642.7,123.7c-0.2,0-0.4,0-0.5,0   C642.3,125,642.7,125,642.7,123.7z" />
	<path fill="#EECABA" d="M474.6,85.2c-0.6-1.5-1.2-3.1-1.8-4.6c5.1-1.2,8.8,6.2,13,8.8c5.8-0.7,10,4.4,15,6c-1.5,1.7-3.9,2.5-4.9,5   c-3-1.3-5.6-5.5-8.9-4.1c0.8,3.9,4.1,5,7.2,6.6c-1.5,3.2-3.3,6.2-5.5,9.3c-5.1-3.3-10-7.2-14-11.7c-1.4-3.1-3.4-5.8-7.2-5   c0.1-0.5,0.2-0.9,0.3-1.4c-1.4-1.9-3.5-3.2-4.7-5.3c3.6-1.6,8.4-0.8,12.3,1.6c-0.7-2-0.8-2.8-0.7-4.6   C478.4,88.5,478.3,82.7,474.6,85.2z M485.2,94.3c0.9-2.7-1.9-4.7-2.9-2.4C482.7,93.2,483.5,94,485.2,94.3z M480.6,90.5   c0.4-0.4,0.7-0.8,0.9-1.1c-0.4-2-2.1-2.4-3.5-0.9C479,89.3,479.8,89.9,480.6,90.5z" />
	<path fill="#EDCABA" d="M601.7,96.8c3.6,2.6,6.3,8.1,10.8,8.7c-0.5,0.5-1,0.9-1.6,1.4c-1.2,0-2.4,0-3.8,0c-4,4.2-7.8,8.4-13.8,9.6   c-2.4-5.3-3.6-13.3-9.7-15.4c0.2-0.5,0.5-0.9,0.7-1.4c1.9,0.3,2.1-1.6,2.1-3c-0.6,0-0.9,0-1.3,0.1c0.5-3.2-1.1-7.6,0.7-10.2   c0.2,2.2-0.9,4.3,0.2,6.4c1.7-1.9,2.2-4.9,0.9-7.1c-0.4,0.3-0.8,0.5-1.1,0.8c0-2,0-4,0.1-6c0.9,2.4,2.1,4.5,4.3,5.9   c0.3,1.1,1.1,1.7,2.2,2.1c2.6,3.5,5.7,6.4,9.1,9.2C601.5,97.4,601.6,97.1,601.7,96.8z M594.5,93.9c-0.2-0.5-0.5-0.7-1-0.5   C593.6,93.9,593.9,93.9,594.5,93.9c0,0.6,0,1.2,0.7,1.5c0.2,1.4-0.8,3.1,1.3,4.2c0.2-1.7-0.3-3-1.3-4.2   C595.1,94.7,595.2,94.1,594.5,93.9z M589.9,89.3c-1-0.9-1.7-0.2-0.9,0.7C589.3,89.8,589.5,89.6,589.9,89.3z" />
	<path fill="#EECABA" d="M395.2,133c3.5-17.6,24.1-23.9,38.9-29.6c10.7-2.6,22.1,0.5,31.5-6.7c-0.4-0.4-0.7-0.8-1.1-1.2   c1.4-0.2,1.4-0.2,1.5-1.6c0.5,0.5,1,1.1,1.5,1.6c-1,2.1,1.3,2.5,3,3.3c-11.2,7.9-25.4,7-38.2,10.3c-11.5,4.7-21.7,11.7-32.5,18.2   C399.6,129.9,397,131.2,395.2,133z" />
	<path fill="#FBDFD3" d="M584.3,99.8c-0.2,0.5-0.5,0.9-0.7,1.4c-4.6-1.2-9-5.2-13.7-7.5c-0.6-4.8-4.8-8.1-7.4-11.9   c5.9-2.3,11.8-4.4,16.8-8.8c1.9,1.2,4,2.1,5.2,3.5c0.9,1.4-0.2,2.9,1.2,3.7c0.3,2-0.1,4.4,0,6.5l0,0   C583.7,90.2,586.3,95.7,584.3,99.8z" />
	<path fill="#EDC9BA" d="M585.8,80.2c-1.4-0.8-0.3-2.3-1.2-3.7c-1.2-1.4-3.2-2.3-5.2-3.5c-5,4.5-10.9,6.5-16.8,8.8   c-0.9-0.7-1.8-1.5-2.6-2.1c-2.6,0.6-1,2.4-0.4,4.4c-4.3-2.7-8-5.1-13.3-5.4c2-0.9,3.4-1.5,4.8-2.1c1.8,0.4,3.5,0.9,5.4,1.4   c3.7-1.5,5.4-4.9,8.9-6.9c0.2,0.7,0.4,1.2,0.6,2c3.4-1.8,5.7-5.1,9-7.1c0,0,0-0.1,0-0.1c0.8-0.1,1.6-0.3,2.5-0.4   c4.3,2.6,4.9,8.2,10,10c-0.6,0.8-1.1,1.4-1.6,2.1C585.8,78.3,585.8,79.2,585.8,80.2z" />
	<path fill="#B7BDD5" d="M470.1,255c0.3-0.3,0.6-0.5,0.9-0.8c2.2,1.5,5.8-7.8,3.4-8.5c0.8-0.3,0.9-1.1,1-1.8c1.9,0.3,3-1.6,2.8-3.4   c1.6-1.2,3.3-2.3,3.7-4.6c0.5-1.7,3.5-1.6,4.1,0.3c-2.4,6.8-0.9,14.6-3.5,21.5C478.5,256.3,474,256.5,470.1,255z" />
	<path fill="#EECABA" d="M332.4,418.2c-0.7-1.2-1.5-2.4-2.1-3.5c2.4-5,8.8-15.3,15.1-10.7c5.1,4.4-0.4,6.4,0.1,9.8   C341.2,415.6,336.9,417.2,332.4,418.2z" />
	<path fill="#EDC9B9" d="M527.9,153.9c0-1,0.4-1.6,1.6-1.5c-2.4,4,1,9.5,1.5,13.8c-3.4,3.8-7.4,6.9-10.1,7.9   c-1.6-2.4-3.8-8.7-4.4-13.1c0.4,0.4,0.8,0.8,1.2,1.3C521.4,160.7,526.6,157.8,527.9,153.9z" />
	<path fill="#4B65C5" d="M497.6,313.3c9.9-4.1,21-7,31.9-8.6c-1.7,2.1-3.4,4.3-5.1,6.4c-4-0.7-9.2,3.8-13.7,4.5   c-0.9,0.3-1.9,0.5-2.3,1.6c-0.6-0.4-1.2-0.7-1.8-1.2c2.4-1.8,5.7-1.2,8.1-3.9c-3.9,0.3-6.9,1.9-10.2,2.4c-2-0.6-4.2-1.6-6.5-1   L497.6,313.3z" />
	<path fill="#0F0E0D" d="M585.8,80.2c0-1,0-1.9,0-2.7c0.6-0.7,1-1.4,1.6-2.1c-5.1-1.8-5.7-7.4-10-10c-0.8,0.1-1.6,0.3-2.5,0.4   c2.8-4.6-5.2-14.4,3.8-14.3c-4.6,6.4,3.6,16.2,8.2,20.9c1.1-0.3,2.1-0.6,3.3-0.9c0.1,0.8,0.1,1.3,0.2,1.9c0.5,0.3,1,0.6,1.5,0.9   c-4.4,2.8-2.3,7.6-1.1,11.6c-0.3,0.3-0.5,0.6-0.8,0.9c-2.1-1.5-3.4-3.6-4.3-5.9C586,80.5,585.9,80.3,585.8,80.2z" />
	<path fill="#040303" d="M234.7,556c-4.3-0.1-6.9-6-1.3-6.2c6,1.2,11.8,0.6,18,0.4c-0.1-0.9,0.5-1.8-0.7-2.1   c0.2-0.2,0.5-0.4,0.7-0.6c3.2,7.8,0.7,17.7,1.4,26.2c-1-6.8-0.6-13.8-0.7-20.7C246.5,555.4,240.8,556.3,234.7,556z" />
	<path fill="#4862C0" d="M514.3,267.3c-6,3.3-12.3,7.5-19.6,7.1c2.1-1.4,5.3-1.7,6.3-4.2c-3.3-0.6-6,2-9.1,2.9   c-0.5-1.3-2.7-3.4-0.8-4.4c0,0.4,0,0.9,0,1.6c0.9-0.7,1.5-1.2,2.1-1.6c0.3,0,0.7,0,1,0c1.8,2,7.4-5,10.7-4.8   c0.5-0.7,0.9-1.2,1.2-1.8c0.1,0.3,0.1,0.7,0.2,1.2c1.9-0.4,3.8-0.8,5.6-1.1c0.4,0.2,0.9,0.4,1.3,0.6c-2.7,1.7-12.9,1.4-11.1,5.8   C506.4,269.8,510.1,265.5,514.3,267.3z" />
	<path fill="#EAC7B7" d="M531.6,168.8c1.3,4.4,2.5,8.1,3.6,11.8c-4.3,3.2-10.3,1-13.1-3.3C525.7,175.3,528.6,172.5,531.6,168.8z" />
	<path fill="#EDC8B9" d="M370.5,148.9c-0.1-2.5,2.4-2.3,4.2-2.5c1.4-2.6,1.7-5,4.7-6.4c3.2-1.6,6-5.6,9.9-4.9   c1.2,0.4,2.5,2.9,0.6,3.4c0-0.6,0-1.3,0-2.2c-4.1,6.2-10.6,6.6-12.8,13.8C374.6,150.3,372.4,150.4,370.5,148.9z" />
	<path fill="#ECC9B9" d="M652.2,81.6c-0.1,6.8-2.5,28.3-12.9,22.8c-0.1-1.8-0.2-3.7,0-5.6c1.1,1.6,0.4,3.4,0.8,5.1   C645.9,97.6,648.5,89,652.2,81.6z" />
	<path fill="#F5DACE" d="M348.2,154.2c6.8-1.8,14.6,1.3,21.2-2.5c0.5,0.2,1.6,0.5,3,1c-0.9,1.2-1.6,2.1-2.1,2.7   C362.7,157.5,354.4,160.9,348.2,154.2z" />
	<path fill="#5775E5" d="M508.4,317.2c0.4-1.1,1.4-1.3,2.3-1.6c4.5-0.7,9.7-5.2,13.7-4.5c-1.8,3.7-5.2,6.4-7.9,9.5c0,0,0,0,0,0   c-0.7-1.4-1.9-0.6-2.9-0.7C511.8,319.4,509.6,318.6,508.4,317.2z" />
	<path fill="#F4DACE" d="M370.6,139.4c-4.4-1.4-9.8-0.6-13.5-3.8c0.3-0.8,0.5-1.6,0.8-2.4c4.1-0.7,8.4,2,12.5-1.1   c0.3,2.1,0.6,3.9,0.9,5.7C371.1,138.4,370.9,138.9,370.6,139.4z" />
	<path fill="#080810" d="M483.2,264.9c-4.8,1-9.4,2.6-14.2,0.2c-2.1-1-5.3-0.6-5.9-3.5c1.8-0.1,3.2-0.8,4.3-2.2   c0.4,0,0.9-0.4,1.3,0.2c-0.4,0.7-0.9,1.2-1.4,1.9c2.3,1,2.3,1,4.4,0.7l0,0c0.1,0.4,0.1,0.7,0.3,1.3c1.1,0.1,2.2,0.2,3,0.3   c1.5-0.7,2.3-2,4-2.3c-0.6,1-1,1.7-1.5,2.6c2.1,0.3,2.9-1.6,4.4-1.8l0,0c0,0.5,0,1,0.1,1.4C480.6,264.2,482.8,264.5,483.2,264.9z" />
	<path fill="#506FD9" d="M471.7,262.1c-2.1,0.3-2.1,0.3-4.4-0.7c0.5-0.6,1-1.2,1.4-1.9c-0.4-0.6-0.9-0.2-1.3-0.2   c0.2-0.5,0.4-1.1,0.7-1.6c1.3,0.5,2.6,1,4.2,1.6c0.4-0.4,0.9-0.9,1.4-1.5c2.8,0.9,5.8,1.9,8.7,2.9c-0.2,0.5-0.4,0.9-0.6,1.3   c-1.5,0.2-2.3,2.1-4.4,1.8c0.5-0.9,0.9-1.6,1.5-2.6c-1.7,0.3-2.4,1.6-4,2.3c-0.7-0.1-1.9-0.2-3-0.3   C471.8,262.8,471.8,262.5,471.7,262.1c1.1,0.1,1.8-0.4,2.1-1.5c0.2,0,0.4,0,0.4-0.3c-0.1,0.1-0.2,0.2-0.3,0.3   C472.8,260.7,472.1,261.1,471.7,262.1z" />
	<path fill="#080810" d="M506.3,262c-0.4,0.6-0.8,1.1-1.2,1.8c-3.4-0.2-8.9,6.8-10.7,4.8c1.5-0.3,2.2-1.4,2.9-2.7   c-0.1,0.2-0.2,0.3-0.3,0.5c-2.8,0-3.4,2.4-5.8,3.8c0-0.8,0-1.2,0-1.6c5-6.1,13-5.6,18.8-10.8c0.3,0.2,0.5,0.5,0.8,0.7   c-0.1,0.2-0.1,0.4-0.2,0.6C509.2,260.1,507.7,261.1,506.3,262z" />
	<path fill="#EBEBEB" d="M506.7,451.1c-1.8,2.2-5.9,1.6-8.3,0.9c-0.2-4.1-4.6-5.9-4.2-9.9C497.8,446.2,501.6,448.9,506.7,451.1z" />
	<path fill="#343736" d="M648.6,39c-0.4-0.4-0.8-0.7-1.4-1.3c-1.1,0-2.3,0-3.7,0c-0.4,0.3-0.9,0.7-1.5,1.1c-0.6-0.6-1.3-1.3-1.9-1.9   c7.7-1.8,18.4,2.3,26-2.8c-1,4.5-7.7,4.2-11.5,4.3C652.5,39.9,650.5,37.7,648.6,39z" />
	<path fill="#E9D2C7" d="M364,143c-0.8,1.6-1.4,2.9-2,4.3c-2.5,0-10.9-0.3-8.5-4.3C356.8,143,360.2,143,364,143z" />
	<path fill="#5271DD" d="M510,257.9c-2.9,1.8-5.7,3.6-8.7,5.1c-0.3-0.2-0.6-0.3-0.9-0.6c3.3-4.5,7.8-6.9,12.5-9.6   c0.2,0.3,0.4,0.5,0.7,0.9C513.5,255.8,511.5,256.8,510,257.9z" />
	<path fill="#EEEFEF" d="M647.2,84.5c0.2,0.3,0.4,0.5,0.7,0.8c-1.7,3.9-3,7.7-5.9,11c-0.4-1.5-0.7-2.6-1-3.6   c0.8-2.2,1.3-4.1,1.4-6.4C644.2,85.8,646,85.8,647.2,84.5z" />
	<path fill="#E8C3B4" d="M369.2,164.9c1-2.9,4.6-3.8,6.1-6.3c2.1-2.6,4.4-5.8,7.5-7C380.7,158.2,375.4,162.3,369.2,164.9z" />
	<path fill="#E2C4B5" d="M660.2,66.4c-2.7,3.9-2.5,9.5-6.5,12.6c-1,0.7-0.2,2.2-1.6,2.6c0-4.4,4.1-13.5,7.6-16   C659.9,65.9,660,66.1,660.2,66.4z" />
	<path fill="#3E54A4" d="M434.9,223.9c0.2-0.1,0.5,0,0.7,0.1c0,0.5,0,0.9,0.1,1.4l0,0c-0.7,1.2-2.2,2.1-2.2,3.6l0,0   c-2.3-1.3-3.7-3.2-3.7-6.4c0.7-0.6,1.7-1.4,2.8-2.3c0.6,0.4,1.4,1,2.1,1.5c-0.2,0.6-0.3,1-0.5,1.5c-0.9,0.6-1.4,1.4-1.5,3.2   C433.7,225.2,434.3,224.5,434.9,223.9z" />
	<path fill="#4862C1" d="M453.7,248.4c-0.7,0-1.5,0-2.2,0l0,0c-2-2.7-5-4.1-7.2-6.6c0-0.5,0-0.9,0-1.4c0.6-0.7,1.2-1.4,1.8-2   c1.7,0.8,1,2.1,0.8,3.1c0.8,0.7,2.1-0.5,2.5,0.9c0.9,0.6,0.3,2,1.5,2.2l0,0c0.2,0.3,0.5,0.5,0.7,0.8c0,0,0,0,0,0   c0.9,0.6,0.4,2,1.6,2.1C453.3,247.9,453.5,248.1,453.7,248.4z" />
	<path fill="#303131" d="M649.5,26.8c1.4-4-1.7-6.5-5.9-5.5c-0.3-0.8-0.3-0.8,0.2-1.5c2.5,0.7,5-0.2,7.3,1.2c0.3,1-1.2,2.5,0.7,3.3   c0.5-0.2,1-0.5,1.8-1C653.7,26,652.9,28.1,649.5,26.8z" />
	<path fill="#455FB8" d="M444.3,240.5c0,0.5,0,0.9,0,1.4c-1.5-1.8-7.2-4-3.7-6.5l0,0c0.6-0.8,1-1.2,1.7-2.1c1.3,1.2,1.8,2.6,2.9,3.8   c-0.6,0.9-1.2,1.8-1.8,2.8C443.7,240.1,444,240.3,444.3,240.5z" />
	<path fill="#0B0D19" d="M367.6,331.4c4.4-6.2,8.2-10.7,10.1-11.8c-1,4.9-6,8.9-9.1,12.8C368.2,332,367.9,331.7,367.6,331.4z" />
	<path fill="#4157A6" d="M441.4,232.7c-0.8,0.9-1.7,1.8-2.8,3c-1.6-1.3-1.7-2.6-2-4.5c1.1-1,1.5-2.7,3.4-3.1   C441,229.4,440.8,230.6,441.4,232.7z" />
	<path fill="#C6CCD2" d="M509.2,466.4c0-0.2,0-0.4,0-0.6c3.9-0.6,7.6-2,11.1-3.9c0.7,1.4,0.5,2.6,0.4,3.9   C516.8,465.9,513,466.6,509.2,466.4z" />
	<path fill="#E2CCC1" d="M577.7,54.2c0.4-0.9,0.7-1.8,1.1-2.8c1.8-1.3,3.6-2.5,5.4-3.8c0.3,0.3,0.7,0.7,1,1   c-0.7,2.6-3.3,3.6-4.5,5.4C579.7,54.1,578.7,54.3,577.7,54.2z" />
	<path fill="#141428" d="M512.8,252.8c-4.7,2.7-9.1,5.1-12.5,9.6c0.4,0.2,0.6,0.4,0.9,0.6c-0.8,1.1-2,0.4-3,0.5   c0.3-0.5,0.6-0.9,0.8-1.4c0.1,0.2,0.1,0.4,0.4,0.4c-0.1-0.1-0.3-0.3-0.4-0.4C500.8,259.3,510.2,250.3,512.8,252.8z" />
	<path fill="#C8D2D9" d="M245.7,543.1c3-0.5,5.6-1.9,8.5-3.7c-0.4,1.8-0.8,3.3-1.6,4.6c-2.4,0.1-4.7,0.1-7,0.2   C245.7,543.8,245.7,543.4,245.7,543.1z" />
	<path fill="#13162C" d="M503.5,252.7c0.8,0,1.6,0,2.5,0c-3.3,2.2-4.8,5.1-7.9,7.3c-1.2-1.6,2.2-2.7,0.3-3.6   c0.4-0.8,0.9-1.5,1.3-2.3c0.1,0.4,0.1,0.9,0.3,1.6C501.3,254.6,502.4,253.7,503.5,252.7z" />
	<path fill="#B5CDD3" d="M250.7,548c1.2,0.4,0.7,1.3,0.7,2.1c-4.9,0-9.7,1-14.5,0.1C241.4,549.1,246.5,550.4,250.7,548z" />
	<path fill="#2E2F2F" d="M617.6,40.6c1.7-2.6,5.2-3.4,8.4-2.8c-2.3,1.7-5.2,2.2-7.8,3.4C618,41,617.8,40.8,617.6,40.6z" />
	<path fill="#353737" d="M643.4,33.6c-2.6-0.3-5.2-0.4-7.7-1.5C637,30,643.7,31.3,643.4,33.6z" />
	<path fill="#393939" d="M596.9,16.1c0.8-0.9,1.6-1.9,2.6-3.1c1,1.6,0.8,3.1,2.2,4.4c-0.4,0.5-0.7,0.9-1,1.3   C599.5,17.7,598.3,17,596.9,16.1z" />
	<path fill="#171A34" d="M535.3,268.7c-3.1,1.4-6.3,2.5-10.1,2.9c2.1-1.7,4.8-2.8,9.3-3.7C534.8,268.2,535.1,268.5,535.3,268.7z" />
	<path fill="#2F3030" d="M605.6,23.2c-0.7-2.6,1.1-3.1,2.1-4.1c1.5,0.7,1,2.2,1.6,3.1C608.4,23.6,607.1,23,605.6,23.2z" />
	<path fill="#B5B6B6" d="M253.7,526.5c-1.9,2.4-4.5,0.7-7.3,0.5c2.1-1.7,4.4-0.8,6.3-1.4C253,525.8,253.3,526.2,253.7,526.5z" />
	<path fill="#1B1B1B" d="M604.5,38.6c-0.8,0.7-1.4,1.3-1.9,1.8c-1.7-0.3-1.5-1.6-2-2.6c-0.7-0.1-1.4-0.3-2.2-0.5   C599.7,34.4,602.5,37.8,604.5,38.6z" />
	<path fill="#333535" d="M618.9,23.6c0.6-0.2,0.9-0.4,1.5-0.7c1.2,1.7,2.1,2.6,3.8,3.9c-0.9,0.5-1.6,0.9-2.2,1.3   C620.9,26.7,620.1,25.4,618.9,23.6z" />
	<path fill="#221615" d="M616,349.4c-0.6-1.1-1.6-0.6-2.8-0.7c0.6-1.8,1.3-3.1,3-3.5c1.5,1-0.2,2.3,1.3,2.9   C617,348.5,616.5,349,616,349.4z" />
	<path fill="#0F1223" d="M439.9,238.3c2.2,1.9,4.5,3.7,6.5,5.8c-0.5,0.1-1,0.1-1.5,0.2c-2.2-1.3-4.1-3.2-5.7-5.3   C439.4,238.7,439.7,238.5,439.9,238.3z" />
	<path fill="#4D3A36" d="M383.6,142.3c3.3-1.2,3.4-3,6.3-5.9c0,1,0,1.6,0,2.2c-1.4,1.4-2.1,3.6-4.2,4.4   C385.3,141.9,384.3,142.4,383.6,142.3z" />
	<path fill="#2B2C2C" d="M625.5,35.1c2.2-1.1,4.6-3.3,6.6-1.9C630.1,34.7,628.3,35.9,625.5,35.1z" />
	<path fill="#9D9CA1" d="M515.7,481.6c-0.3-0.3-0.5-0.5-0.8-0.8c1.9-0.7,3.7-1.3,5.7-2.1c0.8,0.2,0.9,0.8,0.4,1.8   C519.4,480.8,517.5,481.2,515.7,481.6z" />
	<path fill="#2E2F2F" d="M588.6,34.9c-1.2-1.9-2.1-3.6-2.8-5.6c0.5,0,1.1,0,1.1,0c0.3,1.9,1.8,2.9,3.4,4   C589.6,33.9,589.2,34.3,588.6,34.9z" />
	<path fill="#303131" d="M575.8,32.2c-0.4-1.8,0.8-2.4,2-3.4c0.5,0.4,1,0.9,1.4,1.2C578.8,31.5,577.8,32.9,575.8,32.2z" />
	<path fill="#262626" d="M627.8,26.9c0.6,0,1.1-0.1,1.8-0.1c-0.1,1.6,2.1,3-0.1,4.9C628,30.3,628.3,29,627.8,26.9z" />
	<path fill="#191919" d="M600.9,3.7c0.8-2,4.1-2.1,5.6-0.4c-1.4,0.4-2.7,0.7-4,1.1C602,4.1,601.5,3.9,600.9,3.7   C600.9,3.6,600.9,3.7,600.9,3.7z" />
	<path fill="#212121" d="M608,36.9c1.9-0.3,2.3,1.4,3.7,2.3c-1,0.8-1.6-0.3-2.3-0.1c-0.7,0.2-1.4,0.4-2.2,0.6   C606.3,38.4,607.6,37.8,608,36.9z" />
	<path fill="#E2BCAE" d="M590.9,167.7c0.5-2.7,4.3-2.6,4.4-5.4c1.2,0.9,0.5,1.9,0.3,3C594.1,166.2,592.7,167.3,590.9,167.7z" />
	<path fill="#374B91" d="M436.3,225.3c1,0,1.8,0.3,2.1,1.7c-0.6,0.7-1.4,1.6-2.3,2.6c-0.5-0.4-0.9-0.8-1.2-1.1   C435.4,227.4,435.8,226.3,436.3,225.3L436.3,225.3z" />
	<path fill="#283A72" d="M481.8,263.5c0-0.5,0-1-0.1-1.4c1.7-0.6,4-2.3,5.8-0.7l0,0c-0.7,0.5-1.3,0.9-2.1,1.5   c-0.4-0.1-0.8-0.3-1.3-0.5C483.5,262.7,482.7,263.1,481.8,263.5z" />
	<path fill="#262828" d="M590.6,12.7c-0.4,1.3-0.4,2.8-2.2,3.2C587.9,13.8,587.9,13.8,590.6,12.7z" />
	<path fill="#4C4A51" d="M554,87.3c-1.3-0.1-2.9,0.5-3.8-0.8c0.8-1.9,2.5-1,3.8-0.5C554,86.5,554,86.9,554,87.3z" />
	<path fill="#1C1D1D" d="M635.3,34.7c2-1.4,3,0.4,4.4-0.1C638.8,37.4,637,35.6,635.3,34.7z" />
	<path fill="#292B2B" d="M572.4,34.5c0.8,0.3,1.2,0.4,1.8,0.6c-0.4,1.5-1.5,2.2-2.5,3C570.9,36.6,572.1,35.9,572.4,34.5z" />
	<path fill="#BB9D91" d="M638.4,119.2c0.5,0,1,0,1.5,0c-0.1,1.4,1,2.4,1.5,3.5c-0.8,0.3-0.7,1.1-0.9,1.7   C639.8,122.6,639.1,120.9,638.4,119.2z" />
	<path fill="#3D56A8" d="M520.6,346.7c-0.5-0.7-0.9-1.3-1.4-2c1.3-0.7,2.4-0.5,3.9-0.1C522.1,345.5,521.4,346.1,520.6,346.7z" />
	<path fill="#343636" d="M636.1,13.1c0.8,0.4,1.5,0.7,2.6,1.3c-0.7,0.7-1.1,1.1-1.8,1.8c-0.5-1-0.9-1.8-1.3-2.5   C635.8,13.4,636,13.3,636.1,13.1z" />
	<path fill="#B9A9A0" d="M591.4,50.6c-0.6,0-1.2,0-1.4,0.7c-0.9-1.2-1.9-2.5-2.8-3.7c0-0.3,0.1-0.6,0.1-1   C589.1,47.3,590.1,49.3,591.4,50.6z" />
	<path fill="#283970" d="M487.5,261.4c0.9-1.3,1.6-2.4,3.5-1.8c-0.9,1-1.9,2-3.1,3.3C487.8,262.1,487.7,261.8,487.5,261.4   L487.5,261.4z" />
	<path fill="#2C2D2D" d="M595.9,9.7c-1.3-0.5-1.9-0.7-2.6-0.9c0-1.1,0.3-1.3,2.3-1.4C595.7,7.9,595.7,8.4,595.9,9.7z" />
	<path fill="#2D2D2D" d="M571.2,50.9c-1.1-2.2,0.2-2.8,1.2-3.9C573.1,48.7,572.2,49.5,571.2,50.9z" />
	<path fill="#2C2D2D" d="M661.6,23.9c-0.8,1.3-1.6,1.8-2.8,1C659.8,22.9,659.8,22.9,661.6,23.9z" />
	<path fill="#303131" d="M585.2,37.8c-0.8,0.7-1.3,1.2-2.1,1.8c-0.3-1.3-0.4-2.4,0.8-3.3C584.3,36.8,584.7,37.2,585.2,37.8z" />
	<path fill="#383939" d="M588.6,45.7c-0.5-0.5-1-0.9-1.5-1.3c0.3-0.5,0.5-1,0.9-1.7c0.7,0.6,1.3,1.1,2,1.7   C589.5,44.9,589.2,45.2,588.6,45.7z" />
	<path fill="#272828" d="M611,45.5c1.1-2.2,1.1-2.2,3.4-1.8C613.7,44.8,612.7,45.2,611,45.5z" />
	<path fill="#191919" d="M577.6,47.5c-0.4-1.6-0.4-1.6,1.1-2.5C579.6,46.6,579.5,46.6,577.6,47.5z" />
	<path fill="#232626" d="M582.2,15.8c0.2-1.8,1.4-2,2.5-2.4C584.4,15.1,584.4,15.1,582.2,15.8z" />
	<path fill="#4462C0" d="M503.5,252.7c-1.1,0.9-2.2,1.9-3.5,3c-0.1-0.7-0.2-1.1-0.3-1.6c1-0.7,2-1.3,3-2   C503,252.3,503.2,252.5,503.5,252.7z" />
	<path fill="#1B2142" d="M464.6,257.1c-0.6,1-1.3,1.9-2.6,2.1c0.1-1.4,0.1-1.4,1.9-2.8C464,256.6,464.3,256.9,464.6,257.1z" />
	<path fill="#77ADB2" d="M245.7,543.1c0,0.4-0.1,0.7-0.1,1.1c-1.1,0.2-2.3,0.5-3.5-0.8C243.5,543,244.6,542.9,245.7,543.1z" />
	<path fill="#C8BAB0" d="M587.3,46.7c0,0.3-0.1,0.6-0.1,1c-0.7,0.3-1.4,0.6-2,0.9c-0.3-0.3-0.7-0.7-1-1   C585.6,45.8,585.7,45.7,587.3,46.7z" />
	<path fill="#252626" d="M600.1,45.6c0.6-0.7,1.2-1.4,2-2.4C602.5,45.1,602.3,46.5,600.1,45.6z" />
	<path fill="#1A1A1A" d="M598.7,52.2c-0.3,0.3-0.6,0.7-1,1.2c-0.4-0.6-0.7-1.1-1-1.6C597.6,51.2,598.3,51,598.7,52.2z" />
	<path fill="#31468B" d="M513.5,262.7c-0.4-0.2-0.9-0.4-1.3-0.6c-0.1-0.3-0.2-0.5-0.3-0.8c1.1,0,2.2-0.4,3.4-0.6   C514.6,262,514.6,262,513.5,262.7z" />
	<path fill="#ADA39A" d="M370.6,139.4c0.2-0.5,0.5-1,0.7-1.5c1.1,0.9,0.8,2,0.6,3.2C370.6,141.1,370.9,140,370.6,139.4z" />
	<path fill="#191919" d="M600.9,3.6c0,0.6,0,1.1,0,2.1c-0.9-0.5-1.5-0.7-2-1C599.2,3.2,600.2,3.8,600.9,3.6L600.9,3.6z" />
	<path fill="#1F2020" d="M599.2,57.5c0.8-1,1.3-1.7,2-2.7C601.7,56.2,601.4,57.5,599.2,57.5z" />
	<path fill="#948F8F" d="M661.5,76.4c0.2,0.5,0.5,1,0.7,1.5c-0.2,0.7-0.4,1.5-0.6,2.2c-0.3-0.2-0.5-0.4-0.8-0.6   C661,78.4,660.6,77.3,661.5,76.4z" />
	<path fill="#2A2E2D" d="M574.1,65.8c-1.7-0.8-1.8-1.1-0.3-2.2c0.1,0.7,0.3,1.4,0.4,2L574.1,65.8z" />
	<path fill="#121930" d="M434.9,223.9c-0.6,0.7-1.2,1.3-2.2,2.5c0-1.8,0.6-2.6,1.5-3.2C434.4,223.4,434.6,223.6,434.9,223.9z" />
	<path fill="#A4B0B0" d="M253.7,526.5c-0.4-0.3-0.7-0.7-1.1-1c0.8-0.8,1.9-0.8,3-0.8C255,525.3,254.3,525.9,253.7,526.5z" />
	<path fill="#2E2B2B" d="M660.8,79.4c0.3,0.2,0.5,0.4,0.8,0.6c0.1,0.9-0.1,1.7-1.1,2C660.1,81.1,659.8,80.2,660.8,79.4z" />
	<path fill="#3E54A4" d="M434.1,231.8c-0.5-0.2-1-0.5-1.5-0.7c0.3-0.7,0.5-1.5,0.8-2.2l0,0C434.4,229.7,434.2,230.7,434.1,231.8z" />
	<path fill="#4862C0" d="M510.6,259.2c0.1-0.2,0.1-0.4,0.2-0.6c0.3,0,0.7,0,1.2,0c0.1,1,0.2,1.9,0.3,2.8l-0.4,0   C511.6,260.5,511.2,259.8,510.6,259.2z" />
	<path fill="#C5ACA6" d="M640,86.4c-1.5,0-1.7-1.5-0.2-1.5C639.9,85.4,639.9,85.9,640,86.4z" />
	<path fill="#E2BCAE" d="M588.7,169.1c0.3-1.1,1-1.7,2.2-1.4C590.2,168.1,589.5,168.6,588.7,169.1z" />
	<path fill="#171A34" d="M539.6,268.6c-1,0-1.9-0.1-2.9-0.1C538,267.6,538.3,267.6,539.6,268.6z" />
	<path fill="#433B38" d="M325.1,424.5c0.2,0,0.5,0,0.7,0c0,0.8,0.3,1.7-0.7,2.2C325.1,426,325.1,425.2,325.1,424.5L325.1,424.5z" />
	<path fill="#445CB2" d="M453.1,247.6c-0.9,0-0.9-0.7-1-1.3C452.5,246.7,452.8,247.2,453.1,247.6z" />
	<path fill="#C6CCD2" d="M507.1,467.2c0.2-0.8,0.8-0.8,1.5-0.7C508.1,466.7,507.6,467,507.1,467.2z" />
	<path fill="#374B91" d="M435.6,225.3c0-0.5,0-0.9-0.1-1.4c0.8,0.1,0.6,0.8,0.7,1.4l0,0C436.1,225.3,435.8,225.3,435.6,225.3z" />
	<path fill="#445CB2" d="M450.8,244.7c-0.8-0.1-0.8-0.7-0.8-1.3C450.3,243.8,450.6,244.3,450.8,244.7z" />
	<path fill="#343736" d="M650.1,39.7c-0.7,0.1-1.1-0.1-1.4-0.7C649.3,38.9,649.8,39,650.1,39.7z" />
	<path fill="#433B38" d="M324.5,427.5c0.2-0.3,0.4-0.5,0.6-0.8C324.9,427,324.7,427.2,324.5,427.5z" />
	<path fill="#EECABA" d="M581.6,176.5c0.2-0.3,0.3-0.7,0.5-1C581.9,175.8,581.7,176.1,581.6,176.5z" />
	<path fill="#445CB2" d="M452.1,246.3c-0.2-0.3-0.4-0.5-0.6-0.8C451.7,245.7,451.9,246,452.1,246.3z" />
	<path fill="#171A34" d="M535.1,267.8c0.1-0.2,0.1-0.4,0.1-0.7c0.2,0.1,0.3,0.2,0.5,0.3C535.5,267.6,535.3,267.7,535.1,267.8z" />
	<path fill="#445CB2" d="M451.5,245.5c-0.2-0.3-0.5-0.5-0.7-0.8C451,245,451.3,245.2,451.5,245.5z" />
	<path fill="#B9A9A0" d="M592.2,51.3c-0.2-0.2-0.5-0.4-0.7-0.6C591.7,50.9,592,51.1,592.2,51.3z" />
	<path fill="#141110" d="M589.4,48.3c-0.2-0.2-0.4-0.4-0.7-0.6C589,47.9,589.2,48.1,589.4,48.3z" />
	<path fill="#141110" d="M588.7,47.6c-0.2-0.2-0.4-0.4-0.6-0.6C588.3,47.2,588.5,47.4,588.7,47.6z" />
	<path fill="#445CB2" d="M450,243.4c-0.2-0.3-0.4-0.6-0.6-0.9C449.6,242.8,449.8,243.1,450,243.4z" />
	<path fill="#2A2E2D" d="M574.9,65.7c-0.3,0.2-0.5,0.4-0.8,0.5c0-0.2,0-0.3,0-0.5l0.2-0.2C574.5,65.6,574.7,65.7,574.9,65.7z" />
	<path fill="#4157A6" d="M440.6,235.3c-0.3,0.3-0.5,0.5-0.8,0.8C440.1,235.8,440.3,235.6,440.6,235.3z" />
	<path fill="#4157A6" d="M441.3,234.5c-0.2,0.3-0.5,0.6-0.7,0.9C440.8,235.1,441,234.8,441.3,234.5z" />
	<path fill="#374B91" d="M434.9,226.2c0.2-0.3,0.5-0.6,0.7-0.8C435.4,225.6,435.2,225.9,434.9,226.2z" />
	<path d="M675.2,124.1c-0.1-0.1-0.3-0.3-0.4-0.4C674.9,123.8,675,123.9,675.2,124.1z" />
	<path fill="#EDCABA" d="M541.5,114.2c2-0.4,3.1,0.6,3.8,2.4c3,8.9,11.1,14.6,17.7,20.6c0.9,2.2-0.2,3.3-1.5,4.2   c-11.4,1.5-18.1-9.5-23.9-17.4c-1.7-2.5-1.4-4.2,0.8-6.6c0.8-1-0.4-2.6,1.1-3.3c0.1,3.4-0.2,10.9,3.8,11.8   C543.5,122.1,542,118.1,541.5,114.2z M548.6,134.9c1.4-1.8,1.1-2.2-1.6-3.9c-0.5-1-0.2-2.4-1.4-3   C542.3,130,546.7,133.2,548.6,134.9z M552.1,137.3c1.4-1.4,0.9-3.8-1.4-3.4C550,135.8,550,135.8,552.1,137.3z" />
	<path fill="#120D0C" d="M585,203.6c-3,3.2-8.4,5.5-11.8,1.6c-0.6-0.6-1-1.4-0.2-2.2c0.8-0.2,1.3,0.2,1.8,0.7   C577.4,207.3,583.7,198.7,585,203.6z" />
	<path fill="#141110" d="M541.5,114.2c0.5,3.9,2,7.9,1.8,11.7c-4-0.9-3.7-8.4-3.8-11.8C540.3,114.2,540.9,114.2,541.5,114.2z" />
	<path fill="#191514" d="M563,145.8c3.3,2.5,5,6.4,3.6,10.4C564.7,154.7,562.4,148,563,145.8z" />
	<path fill="#171413" d="M586.7,212.1c-0.9-2.3,4.5-5.9,6.8-5.6C593.3,209.6,589.5,211.3,586.7,212.1z" />
	<path fill="#110F0E" d="M671,101.1c0.7-1.5,1.4-3,2.2-4.7c0.7,0.3,1.3,0.6,2,0.9c-0.6,2.5-1.1,4.9-4.2,5.2   C671,102,671,101.6,671,101.1z" />
	<path fill="#241F1E" d="M585.1,202.9c-0.3-0.8-1.1-0.7-1.7-0.9c2.4-1.3,3.6-4.5,6.8-4.4C589.6,200.3,586.6,200.9,585.1,202.9z" />
	<path fill="#1F1413" d="M516.7,148c1.7-1.9,3.2-2.9,4.9-3.6C523.7,146.2,519.1,148.7,516.7,148z" />
	<path fill="#2D2927" d="M642.3,159c-0.1,2.1-1.4,3.1-3.5,3.3C638.4,160,640.2,158.4,642.3,159z" />
	<path fill="#332423" d="M594.5,205.7c1.5-1.3,2-2,3.4-2.6C600.4,204.4,596.7,206.7,594.5,205.7z" />
	<path fill="#25201F" d="M657.9,87.5c0.3,2.6,0,4.1-1.9,5.3C656,90.8,656.1,89.2,657.9,87.5z" />
	<path fill="#312422" d="M635.1,166.7c0.8-2.1,0.8-2.1,2.3-2.6C638.8,165.2,636.6,167.6,635.1,166.7z" />
	<path fill="#4A3B38" d="M587.6,187.1c1.4,1.1-0.8,3.7-2.2,2.6C586,188.1,586,188.1,587.6,187.1z" />
	<path fill="#271B19" d="M593.8,194.6c-0.2,2.2-1.1,2.9-2.9,3.2C591.3,196.1,592.1,195.3,593.8,194.6z" />
	<path fill="#322221" d="M566.5,162.1c-1.5-1.8-1.5-2,0.1-3C567.4,160,567.4,161,566.5,162.1z" />
	<path fill="#382C2A" d="M645,153.9c-0.6,3.2-1,3.5-3.1,3.2C642.9,156.2,643.7,155.4,645,153.9z" />
	<path fill="#3C3230" d="M666.5,91.6c0.6,1.6,0.2,2.8-1.2,3.9C665,93.9,664.9,92.6,666.5,91.6z" />
	<path fill="#4F3937" d="M598.1,192c-0.6,0.5-1.2,0.9-2.1,1.5C595.6,191.8,596.6,190.4,598.1,192z" />
	<path fill="#543F3C" d="M600.9,187c0.2,1.4-0.5,2.1-2,2.7C598.5,187.9,599.8,187.8,600.9,187L600.9,187z" />
	<path fill="#70655F" d="M666.6,110.5c0.6-0.7,0.5-2.1,2-2.1c-0.2,1.5-0.2,1.5-1.9,2.8C666.7,110.9,666.7,110.7,666.6,110.5z" />
	<path fill="#383A37" d="M671,101.1c-0.2,1.2,0.4,3.5-1.5,3.4C669,103.3,670.5,102.2,671,101.1z" />
	<path fill="#403A38" d="M604.7,198.9c0-1.6-0.5-2.4,1.2-2.3C606.6,197.6,605.6,197.9,604.7,198.9z" />
	<path fill="#352624" d="M580.1,178.6c0.5-0.2,1,0,1.5,0c0,1.1-0.5,1.5-1.5,1.7c0-0.2,0-0.3-0.2-0.5c0-0.2,0-0.5,0-0.7   C580.1,178.9,580.1,178.8,580.1,178.6z" />
	<path fill="#292625" d="M602.1,200.2c0.5,1.3-0.4,1.4-1.6,1.8C600.7,201,600.9,200.3,602.1,200.2z" />
	<path fill="#191514" d="M566.3,167c-1.1-1-0.9-1.8-0.2-2.6C567.3,165.5,567.3,165.5,566.3,167z" />
	<path fill="#6C4E4A" d="M601,187.1c0.1-1.1,0.4-2,2-2.2C602.6,186.2,602,186.8,601,187.1L601,187.1z" />
	<path fill="#3C2422" d="M567.2,170.3c-1.4,1.4-2.4,0.5-1.3-0.9C566.3,169.7,566.6,169.9,567.2,170.3z" />
	<path fill="#473330" d="M662.3,100.8c0,1.4,0,2,0,2.7C660.3,103.5,661.4,102.1,662.3,100.8z" />
	<path fill="#C0A9A1" d="M666.6,110.5c0.3,1-0.4,2.1-1.5,2.1C665.4,111.5,665.4,111.5,666.6,110.5z" />
	<path fill="#2D2624" d="M591.2,184.7c-1.1-1-0.1-1.9,0.9-1.2C591.8,183.9,591.5,184.3,591.2,184.7z" />
	<path fill="#9C8077" d="M579.3,181.9c1,1.2,1,1.2-0.7,1.5C578.5,182.8,578.6,182.2,579.3,181.9z" />
	<path fill="#AD8E84" d="M577.8,184.9c0.2,0.4,0.3,0.8,0.5,1.3c-0.5,0.1-0.9,0.1-1.3,0.2C577,185.7,577.1,185.1,577.8,184.9z" />
	<path fill="#433836" d="M663.5,98.3c0.6,0.5,0.3,0.8-0.2,1.2C663,99,663.1,98.7,663.5,98.3z" />
	<path fill="#EECABA" d="M579.9,179.1c0,0.2,0,0.5,0,0.7C579.3,179.6,579.3,179.3,579.9,179.1z" />
	<path fill="#7F534E" d="M672.3,67.5c0,0.1-0.1,0.1-0.1,0.2c-0.1-0.1-0.2-0.1-0.3-0.2C672,67.3,672.1,67.3,672.3,67.5z" />
	<path fill="#4B65C5" d="M451.4,252c-7.4,4.9-12.6,15.8-22.2,18c1.8-10,11.6-16.1,17.3-24C448.1,248,449.8,250,451.4,252z" />
	<path fill="#4B65C5" d="M409.5,278.6c4.2,8.4,15,9.5,21.5,15.6c-1.1,1-2.6-0.2-3.4,1.1c-6.6-4-15.3-2.9-20.2-9.7   c-0.6-0.6-1.1-1.2-2.1-1l-0.2-0.2C406.6,282.5,408.1,280.5,409.5,278.6z" />
	<path fill="#09080F" d="M465.2,297.5c-7.4,1.7-14.4,5.8-22.2,6.6c-0.3-0.2-0.6-0.4-0.9-0.7c6.5-1.9,13-3.5,19.3-6.2   c-0.4-0.4-0.7-0.6-0.9-0.8c0.4-0.4,0.7-0.8,1.1-1.2c0.4-0.1,0.7-0.1,1.4-0.3c-0.9-0.5-1.2-0.2-1.3,0.3c-8.7,1.9-18.8,8.7-27.4,8   c13.4-4.6,28.1-8.5,39.7-16.7l0,0.1c0.2-0.1,0.4-0.1,0.6-0.1c0.3,0.3,0.6,0.5,0.9,0.8c-2.7,4.2-8.4,5.2-11.5,8.7   c-0.4,0.1-0.8,0.1-1.4,0.2c0.8,0.7,1.1,0.4,1.4-0.2c2.8-0.3,5.1-2.2,7.9-2.9c0.3,0.3,0.5,0.5,0.8,0.8   C470.5,294.5,466.5,299.4,465.2,297.5c0.1-0.2,0.2-0.3,0.2-0.3C465.4,297.3,465.3,297.4,465.2,297.5z" />
	<path fill="#040408" d="M409.5,278.6c-7.9,8.9-13.3,21-22,28.7c0.3-2.3,2.3-3.8,3-6c-0.9-0.9-2.7-1.5-1.7-3.6   c0.6,0.6,1.2,1.1,1.7,1.6c5-4.1-4.1-7.8-8-7.1c3.6-3.4,10-0.2,10.7,4.8c6.2-9.9,12.9-18.3,20.5-27c0.3,0.3,0.6,0.6,0.9,0.9   C413,273.5,411.3,276.1,409.5,278.6z" />
	<path fill="#08080E" d="M424.9,319c-7-2-13.7-0.5-21.2-2.4c16.8-1.2,32.6,1.4,49.5-1.8c-6,3.8-13,2.8-19.9,3.8   c7,2.1,14.1,1.1,19.3,5.9C443.4,322.7,434.3,319.8,424.9,319z" />
	<path fill="#050408" d="M427.6,250.5c-5,0.5-9.4,2.5-14.5,2.2c6.4-3.3,15.3-6.2,22.6-4.9c1.6-0.6,2.9-1.1,4.3-1.6   c0.5,0.3,1,0.6,1,1.3c-4.9,3.3-9.8,6.5-14.7,9.8c-0.3-0.3-0.5-0.5-0.8-0.8c2.5-2.3,5.1-4.6,8-7.2   C431.2,249.5,429.3,249.6,427.6,250.5z" />
	<path fill="#030306" d="M412.5,290.3c5.1,1.6,10.6,2.2,15.2,5c0.1,0.4,0.2,0.9,0.3,1.4c-8.7,0.5-16.7-4.1-25.4-4.4   c-0.3-0.8-0.3-1.5,0.5-2.1C406.2,290.2,409.3,290.3,412.5,290.3z" />
	<path fill="#0D0B14" d="M439.8,325.5c-12.1,1.2-23.2-2-35.2-3.8c10.6-2.4,22.6,3.8,33.8,2.6C438.9,324.7,439.3,325.1,439.8,325.5z" />
	<path fill="#0E0D19" d="M551,276.9c-10.9,2.6-21.5,6.2-32.9,8.3c2.2-1.7,4.2-2.4,16.4-5.6C548.8,275.8,549.1,275.7,551,276.9z" />
	<path fill="#0D0D1A" d="M434.1,303.3c0.7,1.3,2,0.4,3,0c1,1.6,3.4,0.1,5,0.1c0.3,0.2,0.6,0.4,0.9,0.7c-9.5,2.3-19,3-28.3,4.4   c-0.5-0.3-1-0.5-1.5-0.8C420.2,306.2,427.2,304.8,434.1,303.3z" />
	<path fill="#0A0C16" d="M361.9,349.5c0.3-1.2-0.3-2.7,1.2-3.5c1.1,7.8,4.3,13.6,10,19.1C365.9,364.2,363.2,355.5,361.9,349.5z" />
	<path fill="#080912" d="M459.5,283.2c6.9-2,13.6-5,20.8-5.9c-1.5,4.5-14.7,4.4-19.3,6.6C460.5,283.6,460,283.4,459.5,283.2z" />
	<path fill="#07070D" d="M468.8,266.9c-3.2,2.8-7.6,7-11.9,6.6C459,271.1,466.5,263.2,468.8,266.9z" />
	<path fill="#090912" d="M492,273.1c3-0.9,5.7-3.6,9.1-2.9c-2.6,3.5-10.1,6.3-14.5,7C488.2,275,490.5,274.5,492,273.1z" />
	<path fill="#161B32" d="M382.9,330.7c0-0.6,0.1-1.1,0.1-2.1c3.4,5.9,5.4,12.7,9.6,18.3C387.6,345.6,385,335.4,382.9,330.7z" />
	<path fill="#12152A" d="M475.7,296.5c4.1-4.4,7.8-9.2,11.2-14.3C488,286.3,479.8,295.2,475.7,296.5z" />
	<path fill="#0A0C19" d="M451.4,252c-2-2.4-3.9-4.8-5.9-7.2c0-0.2,0-0.4-0.1-0.6c2.6-0.3,4.3,2.6,6,4.3c0,0,0,0,0,0   c1.6,2.3,3.6,4.7,4.3,7.5C453.7,256.9,452.8,253.1,451.4,252z" />
	<path fill="#1F2447" d="M470.2,279.6c-2.1,1-4.2,1.9-6.5,2c4.2-4.1,10.8-6.2,16.2-8.4C479.7,275.5,469.4,277.7,470.2,279.6z" />
	<path fill="#1A2244" d="M472.4,293.9c-0.3-0.3-0.5-0.5-0.8-0.8c1.5-1.7,3.3-3,4.4-5c-0.6-0.6-1.1-1-1.6-1.5c-0.1-1.3,3-2.6,1.6-3.5   c0.2-0.2,0.5-0.5,0.7-0.7c0.9,0.4,1.3,1.7,2.7,1.1c-0.6,0.8-1.3,1.6-1.9,2.4C477.5,289.6,475.2,291.9,472.4,293.9z" />
	<path fill="#0C0C16" d="M486.2,301c0-0.6,0-1.1,0-1.7c0.5,0.2,0.9,0.3,1.2,0.4c0.6,2.6,3,3.5,4.2,5.7c1-0.2,1.9-0.4,3.5-0.8   c-1.1,0.9-1.6,1.3-2.1,1.8c0.3,1.6,2.3,2.7,1.5,4.8C491.5,307.9,488.9,304.6,486.2,301z" />
	<path fill="#15172B" d="M413.7,275.2c5.3-0.8,9.8,0.3,14.2,2.6C423.2,277.4,417.9,277.3,413.7,275.2z" />
	<path fill="#1C162B" d="M427.6,307.7c7.7,0,15.4-0.1,23.1-0.7c0.3,0.2,0.5,0.4,0.8,0.7c-7.5,1.8-16.1,0-23.9,0.5   C427.6,308,427.6,307.8,427.6,307.7z" />
	<path fill="#131528" d="M405,356.8c-4.3,1.1-7.9-3.1-11.2-6.4C398.3,351,400.6,355.1,405,356.8z" />
	<path fill="#14182E" d="M479.6,300.4c1.6-0.6,3.5-3.1,5-2.5c-3,2.9-5.9,5.8-8.8,8.7c-1.1-0.5-0.3-1.2-0.3-1.8   C476.8,303.3,478.2,301.8,479.6,300.4z" />
	<path fill="#2B3262" d="M459.3,305.3c3.2-1.5,6.6-2.2,9.8-3.4c-1.3,1.6-3.6,2.6-9,4.2C459.8,305.8,459.5,305.5,459.3,305.3z" />
	<path fill="#191D36" d="M414.8,270.9c-0.3-0.3-0.6-0.6-0.9-0.9c1.4-2.2,3.5-4.1,3.7-7c0.4,0.3,0.6,0.4,0.7,0.5   C418.6,266.7,416.7,268.8,414.8,270.9z" />
	<path fill="#263365" d="M413.3,307.7c0.5,0.3,1,0.5,1.5,0.8c-2.3,1.1-5.4,1.3-7.9,1C407.5,307.6,411.4,308.4,413.3,307.7z" />
	<path fill="#1A0D17" d="M442.8,286.5c2.7,0.1,5.5,0.1,9,0.2c-2.8,2.4-5.8,0.4-9,0.6C442.8,287,442.8,286.8,442.8,286.5z" />
	<path fill="#181C37" d="M487.8,267.8c-1.7,2.3-3.6,3.4-5.4,4.4C480.8,270.8,486.2,268,487.8,267.8z" />
	<path fill="#1B2040" d="M459.5,283.2c0.5,0.2,1,0.5,1.5,0.7c-1.9,1.1-4.1,1.6-6.2,2.1C454.6,283.8,458,284.1,459.5,283.2z" />
	<path fill="#11101E" d="M449.1,261c-1.5,1.3-2.4,2.3-4,1.6C445.5,260.5,447.1,260.5,449.1,261z" />
	<path fill="#1D264B" d="M427.6,307.7c0,0.2,0,0.4,0,0.5c-1.7-0.1-3.6,0.6-5.1-0.5c0.8-1.4,2-0.7,3.1-0.7   C426.1,307.9,427,307.3,427.6,307.7z" />
	<path fill="#0D0A13" d="M476,283c1.2,0.9-1.5,2.8-2.2,3.7l0-0.1c-0.4-0.1-0.9-0.1-1.5-0.2C473.4,284.8,474.6,283.8,476,283z" />
	<path fill="#1D1422" d="M442.8,286.5c0,0.2,0,0.5,0,0.7c-1.7-0.2-3.3-0.5-5-0.7c0.2-0.3,0.5-0.5,0.7-0.8   C439.9,286.1,441.5,285.6,442.8,286.5z" />
	<path fill="#2C3767" d="M425.5,256.4c0.3,0.3,0.5,0.5,0.8,0.8c-0.7,1.2-1.9,1.6-3.8,2.3C423.6,257.8,424.3,256.9,425.5,256.4z" />
	<path fill="#120F1A" d="M459.3,305.3c0.3,0.2,0.5,0.5,0.8,0.7c-1.2,0.3-2.4,0.5-3.5,0.8c0-0.2,0-0.5,0-0.7   C457.2,305.2,458.3,305.5,459.3,305.3z" />
	<path fill="#3A4886" d="M438.5,285.8c-0.2,0.3-0.5,0.5-0.7,0.8c-1.1-0.3-2.2-0.5-3.6-0.9C436.7,285.1,436.7,285.1,438.5,285.8z" />
	<path fill="#0F080F" d="M456.5,306.1c0,0.2,0,0.5,0,0.7c-1.2,0.2-2.4,0.5-3.6,0.7c0-0.2,0-0.4,0-0.7   C454.1,306.6,455.3,306.3,456.5,306.1z" />
	<path fill="#2D3360" d="M439.8,325.5c-0.5-0.4-0.9-0.8-1.4-1.2c0.9,0,1.8,0,2.6,0C441.3,325.8,440.5,325.6,439.8,325.5z" />
	<path fill="#10070D" d="M452.9,306.8c0,0.2,0,0.4,0,0.7c-0.4,0.1-0.9,0.1-1.3,0.2c-0.3-0.2-0.5-0.4-0.8-0.7   C451.5,306.9,452.2,306.9,452.9,306.8z" />
	<path fill="#445CB2" d="M452.1,249.2c-0.2-0.3-0.4-0.5-0.7-0.8c0.2,0,0.5,0,0.7,0C452.2,248.7,452.1,248.9,452.1,249.2z" />
	<path fill="#4862C1" d="M445.5,244.2c0.1,0.2,0.1,0.4,0.1,0.6c-0.2-0.2-0.4-0.4-0.6-0.6C445.1,244.2,445.3,244.2,445.5,244.2z" />
	<path fill="#070505" d="M572.1,378.3c3.3-5.1,7.3-11,11.8-15.1C586.4,368.3,578,379.9,572.1,378.3z" />
	<path fill="#EECABA" d="M609.6,348.7c-3.8-1.7-5.9-9.6-0.8-10.8c3.6,1.9,5.7,6.7,2.9,10.2C611,348.3,610.3,348.5,609.6,348.7z" />
	<path fill="#1C1817" d="M604.4,333.9c2.5-2.6,5.3-4.3,7.6-7c0.5,0.2,0.8,0.4,1.2,0.6C612,331,608.4,335,604.4,333.9z" />
	<path fill="#11100F" d="M500,440.3c-0.2-0.3-0.3-0.6-0.5-1c0.2-1.7,2-1.9,2.7-3.1c0.8-0.2,1.5-0.4,2.6-0.6   C505.4,438.3,502.5,440.2,500,440.3z" />
	<path fill="#1C1514" d="M604,363.7c0.2,2.5-3.7,4.6-3.8,1.5C600.8,363.5,602.7,361.2,604,363.7z" />
	<path fill="#262624" d="M598,335.8c-0.6-0.3-1.1-0.6-1.7-0.9c0.7-2.4,2.2-2.4,4-2.1C601.5,335.2,599.8,335.4,598,335.8z" />
	<path fill="#281E1D" d="M568.5,382.5c-1,1.7-2.2,2.6-4.3,2.3c0.3-2,1.5-2.9,3.2-3.7C567.8,381.6,568.1,382,568.5,382.5z" />
	<path fill="#4A3D39" d="M559,387.4c0.7-1.1,1.2-2,2.4-2.7c0.5,0.3,0.9,0.7,1.3,1c-0.7,1.8-1.8,2.4-3.3,2.5   C559.3,388,559.2,387.7,559,387.4z" />
	<path fill="#2E2B29" d="M515.9,427.5c-0.8,1.3-1.3,3.1-2.9,3.5c-2.3-2.3,1.5-2.9,2-5C515,426.7,515.1,427.3,515.9,427.5z" />
	<path fill="#3D2B29" d="M510.3,430.7c0.6,0.7,0.9,1.1,1.2,1.5c-1,1.3-1.7,2.6-3.6,1.8C507.8,432.2,509.3,431.9,510.3,430.7z" />
	<path fill="#191312" d="M586.1,358.2c0.8,2.2,0.8,2.3-1.2,3.4C583.7,359.8,584,359,586.1,358.2z" />
	<path fill="#1D1110" d="M515.9,427.5c-1.7-0.5-0.8-3.1,0.8-2.9C517.4,426.1,517.4,426.1,515.9,427.5z" />
	<path fill="#201413" d="M609.6,348.7c0.7-0.2,1.4-0.4,2.2-0.5c0.2,2.2,0.2,2.2-2.1,2C609.6,349.7,609.6,349.2,609.6,348.7   L609.6,348.7z" />
	<path fill="#150D0C" d="M554.8,391.4c0.2-1.9,0.2-1.9,1.9-2.2C557,390.7,557,390.7,554.8,391.4z" />
	<path fill="#583937" d="M542.3,398.3c-0.6,0.6-1.3,0.8-1.8,0.1C539.8,397,542.6,396.6,542.3,398.3z" />
	<path fill="#070606" d="M551.4,393.3c-0.8,0.2-1.5,0.7-1.7-0.1C550.4,392.4,550.5,392,551.4,393.3z" />
	<path fill="#EECABA" d="M609.5,348.7c0,0.5,0,1,0,1.4C608.6,349.7,608.7,349.2,609.5,348.7z" />
	<path fill="#070505" d="M349,392.2c3.5-2.3,15.3-8.1,18.6-5.2c-4.6,3.9-12.4,7.2-18.6,6.3C349,393,349,392.6,349,392.2z" />
	<path fill="#0A0807" d="M304.2,405.8c2.4,3.1-5.1,9.5-8.1,8.4C295.8,411.9,301.6,408,304.2,405.8z" />
	<path fill="#0C0909" d="M242.8,509.9c-0.5,0.1-0.9,0.2-1.6,0.3c-2-2.9,2-7.9,5.2-7.7C247.8,505.5,244.1,507.6,242.8,509.9z" />
	<path fill="#131010" d="M295,438.2c-1.4-2.3,4.7-9.3,7-9.6C301.7,432.7,298.5,435.8,295,438.2z" />
	<path fill="#433B38" d="M325.1,424.5c-0.6,0.8-1.2,1.6-2.1,2.7c-1.1-1.5-0.8-9.3,1.1-10C325.9,419.3,324.9,422.1,325.1,424.5   C325.1,424.5,325.1,424.5,325.1,424.5z" />
	<path fill="#1D1413" d="M373.8,383.2c2,2.4-2.5,4.1-4.6,2.9C370.3,384.1,371.9,383.3,373.8,383.2z" />
	<path fill="#2D2624" d="M288.3,446.7c-0.1,1.8-1.6,3.5-3.5,3C284.6,447.8,286.6,445.2,288.3,446.7z" />
	<path fill="#191615" d="M294,416.1c0.3,0.3,0.5,0.7,0.8,1.1c-0.9,1.5-1.5,3-3.4,3.2C291.1,418.1,291.3,417.6,294,416.1z" />
	<path fill="#302825" d="M332.3,390.6c-1.1,0.6-1.7,1-3,0.1c1-1.5,1.3-3.2,3.8-3c-0.1,0.8-0.1,1.5-0.1,2.1   C332.7,390.1,332.5,390.3,332.3,390.6z" />
	<path fill="#231B19" d="M323.6,393.5c1.2-0.9,2-1.8,3.7-1.1c-0.8,2-2.3,3.7-4.3,3.1C323.3,394.8,323.4,394.1,323.6,393.5z" />
	<path fill="#25201E" d="M335.3,399c-0.1,2.1-1.7,2.5-3.2,3.2C330.5,400.3,333.6,397.4,335.3,399z" />
	<path fill="#100D0C" d="M251.4,494.6c-0.5-2.1,0.1-4.1,2.9-3.5C254.3,493.5,253.9,494,251.4,494.6z" />
	<path fill="#302A28" d="M288.9,422.6c1.7,1.5,0.5,3.5-1.6,4C286.5,425,287,423.3,288.9,422.6z" />
	<path fill="#312624" d="M254.5,490.2c0-1.8,1.1-2.7,2.7-3.4c0.3,0.4,0.6,0.7,0.9,1.1C257.2,489.2,256.2,490.3,254.5,490.2   L254.5,490.2z" />
	<path fill="#2C2523" d="M325,409.9c1.3,1.2,1.1,2.3,0.5,3.5C323.4,414.8,322.8,411.4,325,409.9z" />
	<path fill="#312120" d="M349,392.2c0,0.4,0,0.7,0,1.1c-1.3,0.4-2.4,1.7-4.2,0.6C345.4,392,347.2,391.9,349,392.2z" />
	<path fill="#141211" d="M248.5,498.9c-0.2-1.3,0.9-2,1.6-2.8c0.2,0.1,0.4,0.1,0.6,0c0.3,0.2,0.6,0.5,0.8,0.7c0,1.1-0.8,1.7-1.5,2.4   C249.5,499.1,249,499,248.5,498.9L248.5,498.9z" />
	<path fill="#2E2725" d="M287.9,444.4c0.4-1.4,1.5-2.2,3-2.8C291.4,443.4,289.2,445.6,287.9,444.4z" />
	<path fill="#3B2C29" d="M286.1,428.6c-1.1,1.9-1.1,1.9-2.6,1.5C284.3,428,284.3,428,286.1,428.6z" />
	<path fill="#474542" d="M261.3,484.4c-0.4-0.4-0.6-0.7-0.8-0.9c1-1.8,1-1.8,2.5-0.6C262.4,483.4,261.9,483.9,261.3,484.4z" />
	<path fill="#342F2D" d="M338.7,397.7c-0.6-1.5-0.5-1.5,1.4-1.9C340.1,397,340.1,397,338.7,397.7z" />
	<path fill="#2E2927" d="M281.4,434.6c-1,0-1.7,0-2.7,0c0.5-0.9,0.8-1.4,1.3-2.2C280.5,433.2,280.8,433.7,281.4,434.6z" />
	<path fill="#EECABA" d="M248.5,499c0.5,0,0.9,0.1,1.4,0.1C249.4,499.9,248.9,499.7,248.5,499z" />
	<path fill="#EECABA" d="M251.4,496.8c-0.3-0.2-0.6-0.5-0.8-0.7C250.9,496.3,251.1,496.6,251.4,496.8z" />
	<path fill="#B7BDD5" d="M499,208.7c-1.1-0.7-2.2-1.3-3.6-2.1c-7.8,7-7.1-5.7-0.2-6.8c0.4-2.1,1.5-3.9,3.5-5.3c1.5,0,3.1,0,5.4,0   c0.5,0.5,1.4,1.2,2.2,1.9c0.3-0.3-0.7-1.7,0.8-2c-0.1,1.2-0.1,2.4-0.2,3.5c-0.6,0.3-0.7,0.9-0.7,1.5c0.4,4.2-2.7,7-4.5,10.3   C501.1,208.9,499.9,207.1,499,208.7z M500.7,202.3c1.7-3.3,1.6-5.4,0.1-7.1C498.4,196.2,498.4,200.9,500.7,202.3z M499.9,206.7   c0.6-0.8,1-1.3,1.5-1.9c-0.5-0.4-0.8-0.7-1.2-1C498.9,204.9,498.9,204.9,499.9,206.7z" />
	<path fill="#B7BCD4" d="M509.9,205.8c-1.4-1.7-2.2-3.7-2-6c0.4,0.2,0.8,0.5,1.4,0.8c0.9-1.5,0.2-2.7-0.2-4.2c8.4-3,8.9,8,3.8,12.2   c0-2-1.7-3.5-2-5.5c0-0.1-0.6-0.2-1.1-0.3C509.9,204,509.9,204.9,509.9,205.8z" />
	<path fill="#110F10" d="M518.3,217c2.7-0.5,14.3-8.5,13.8-2.9c-4.3,2-8.8,3.8-13.8,3.6C518.3,217.5,518.3,217.2,518.3,217z" />
	<path fill="#141113" d="M500.5,150.4c0.3,0.2,0.5,0.4,0.9,0.8c1.5-1.4,5.8-5.4,6.6-1.5c-2.4,2.3-6.4,3-9.6,4   C494.9,152.1,497.6,149.6,500.5,150.4z" />
	<path fill="#0E0E10" d="M474.4,245.7c2.4,0.7-1.2,10-3.4,8.5C470.9,251.1,471.9,247.4,474.4,245.7z" />
	<path fill="#1C191C" d="M511.4,181.2c1.3-1.6,5.2-5.5,6.5-2.1c-1.5,2.2-3.6,3.6-6.4,3.4C511.4,182.1,511.4,181.6,511.4,181.2z" />
	<path fill="#141618" d="M504.2,184.4c-0.4,2.1-1,2.5-5,3.1C499,185.1,502.3,183.1,504.2,184.4z" />
	<path fill="#24272C" d="M509.1,196.5c0.4,1.5,1,2.7,0.2,4.2c-2.7-1.1-2.2-4-2.1-6.3C508.5,194.5,508.4,195.8,509.1,196.5z" />
	<path fill="#2C2E33" d="M509.9,205.8c0-0.9,0-1.9,0-3c0.5,0.1,1,0.2,1.1,0.3c0.3,2,2,3.6,2,5.5c-0.3,0.2-0.6,0.4-1,0.6   C511.2,208.1,510.6,207,509.9,205.8z" />
	<path fill="#282326" d="M499.3,229c0-2,1.5-5.2,3.4-3.1C501.9,227.2,501.4,228.6,499.3,229z" />
	<path fill="#373237" d="M499,208.7c0.9-1.5,2.1,0.2,2.8,0.9c0,1.4,0,1.4-1.1,2.5C500.2,210.9,499.6,209.8,499,208.7z" />
	<path fill="#302F33" d="M511.4,181.2c0,0.4,0,0.9,0.1,1.3c-1.5,0.6-3,1.2-4.7,1.8C507.5,180.8,509.2,182,511.4,181.2z" />
	<path fill="#211B1D" d="M512.2,220.1c1-2.1,2.5-2.2,4.6-1.9C516,220.3,514.4,220.6,512.2,220.1z" />
	<path fill="#171619" d="M478.2,240.4c0.2,1.8-0.9,3.7-2.8,3.4c0.1-1.4,0.9-2.5,1.6-3.8C477.4,240.2,477.8,240.3,478.2,240.4z" />
	<path fill="#3D373D" d="M479.8,233.4c1,2.4-0.2,3.2-1.3,4.4C477.8,236,478.6,235,479.8,233.4z" />
	<path fill="#2B262A" d="M510.9,221.3c-1.1,1-1.8,1.1-3.4,1.7c0.5-1.9,1.3-2.7,2.8-2.8C510.5,220.6,510.7,220.9,510.9,221.3z" />
	<path fill="#2D2023" d="M496.9,188c-1,1-1.4,1.4-1.9,1.9c-0.4-0.7-0.7-1.2-1.3-2.1C494.7,187.8,495.4,187.9,496.9,188z" />
	<path fill="#2E2528" d="M533.8,210.5c0.5-1.1,1-1,1.9-0.8C535.8,210.9,534.8,211.9,533.8,210.5z" />
	<path fill="#888693" d="M479.3,232.2c-0.4-1.5-0.1-2,0.7-1.6C479.8,230.9,479.7,231.3,479.3,232.2z" />
	<path fill="#B7BDD5" d="M476,241.9c-0.2,0.5-0.4,1.1-0.6,1.6C475.3,242.9,475.2,242.2,476,241.9z" />
	<path fill="#2D2523" d="M399.3,117.6c-1.3,3.2-3.6,3.8-5.5,5.3c-0.4-0.5-0.6-0.8-0.9-1.1C394.3,119.7,396.2,118.5,399.3,117.6z" />
	<path fill="#2D2826" d="M467,70.2c-1.3-1-2.3-1.8-3.3-2.6C465.5,64.6,468,67.1,467,70.2z" />
	<path fill="#3F312F" d="M403.6,115.5c-0.7,1.6-1.7,2.4-3.6,2.1C401,116,402.1,115.3,403.6,115.5z" />
	<path fill="#503F3B" d="M404.7,114.8c0-1.9,1.5-3.3,2.8-1.9C407.1,114.2,406.2,114.6,404.7,114.8z" />
	<path fill="#433935" d="M474.6,85.2c3.8-2.5,3.8,3.3,0,0.7C474.6,85.7,474.6,85.4,474.6,85.2z" />
	<path fill="#3B302E" d="M466,93.9c-0.1,1.4-0.1,1.4-1.5,1.6c-0.4-0.5-0.9-1-1.3-1.5C464.3,92.6,465.1,93.3,466,93.9z" />
	<path fill="#251B1A" d="M409.8,111.2c0.6-1.1,0.8-2.4,2.6-2.2C412.7,110.6,411.4,111.5,409.8,111.2z" />
	<path fill="#3B2B29" d="M380.6,121.1c0.8-0.8,1.5-1.4,2.9-1.3C383.8,121.3,381.9,122.7,380.6,121.1z" />
	<path fill="#1F1B1A" d="M376.4,124.9c0.4-1,0.4-2.3,2-2.2C378.1,124.8,378.1,124.8,376.4,124.9L376.4,124.9z" />
	<path fill="#5571DE" d="M412.5,290.3c-3.1,0-6.3,0-9.4,0c0.6-1.9,1.4-3.8,2.2-5.6C408.3,285.1,410,288.6,412.5,290.3z" />
	<path fill="#121223" d="M416.3,240.3c1-2.3,3.1-2.2,5-2.8c0.3,0.6,0.5,1.1,0.8,1.7C420.1,240,418.4,240.8,416.3,240.3z" />
	<path fill="#16162A" d="M391.6,262.3c2.8-0.3,5.2-0.6,7.9,1.1C396.6,263.6,393.4,264.5,391.6,262.3z" />
	<path fill="#080407" d="M387.5,279.3c3.3-1.4,3.3-1.4,4.6,0.1C390.6,279.2,389.4,280.3,387.5,279.3z" />
	<path fill="#1B203E" d="M362.6,319.2c0.9,0.4,2,0.6,2.1,1.9C362.7,320.7,362.7,320.7,362.6,319.2z" />
	<path fill="#2F3B73" d="M397.8,277.9c-0.4-0.4-0.7-0.6-1.1-1C397.7,276.8,397.7,276.8,397.8,277.9z" />
	<path fill="#0B0A0B" d="M508,100.9c-0.1,1.5-1.2,2.4-2.3,3.2c-2.9,2-4.2,5.1-6.2,7.8C495.6,107.4,503.4,99.4,508,100.9z" />
	<path fill="#170F11" d="M525,94.8c-1.4,2.4-5.1,1.4-7.2,3.4c-0.5-0.2-1.3,0.2-1.4-0.7C518.9,94,521.6,94.3,525,94.8z" />
	<path fill="#121214" d="M488.8,122.5c1.3-2,2.2-3.8,4.2-4.7C494.5,120.4,491.6,122.9,488.8,122.5z" />
	<path fill="#1A181B" d="M486,130c-0.2-3.2,1.6-4.7,2.7-6.5C491.8,124.5,487.8,128.7,486,130z" />
	<path fill="#181619" d="M494.9,118.1c1.3-4.4,1.7-5,4-5.5C498.8,115.4,497.8,117.2,494.9,118.1z" />
	<path fill="#19181C" d="M485.9,131.4c2.2,1.2,2.8,4.4,0.2,4.9C484.4,135.1,484.9,135,485.9,131.4z" />
	<path fill="#151417" d="M493.9,149c1.2,1.1,1.6,2.7-0.4,2.6C491.7,151.1,492.8,149.8,493.9,149z" />
	<path fill="#2F2428" d="M543.2,84.3c0.1,2.3-1.2,1.8-2.7,1.5C541.2,84,541.4,83.9,543.2,84.3z" />
	<path fill="#141110" d="M585.2,48.6c0.7-0.3,1.4-0.6,2-0.9c2.3,2.7,4,5.7,5.4,9c-0.9,0.5-0.9,0.5-2.5-0.3c-0.6,0.6-1.2,1.3-1.8,2   c0.2,0.8,0.4,1.5,0.7,2.3c7,3-0.2,7.5-4.1,3.1c1-3.5,1.8-6.7,4.4-9.4c-0.7-1.3-1.4-2.5-2.2-4c-1.1,1.4-1.6,2.1-2.5,3.4   c0.7,1.8,0.9,3.6,0.4,5.4c-1.9-1-0.9-3.3-2.8-4.3c-0.7-0.1-1.4-0.1-1.6-0.9C581.9,52.2,584.5,51.2,585.2,48.6z" />
	<path fill="#090707" d="M624,52.4c5.4-3.9,15.9-1.3,20.1,3.6c-0.5,0.7-1,1.4-1.5,2c-5.1-0.2-8.5-6-13.6-4.2   C627.3,54.4,624.5,54.1,624,52.4z" />
	<path fill="#171211" d="M628.7,60.1c3.5-1.9,7.1-1.4,11.2-0.6c-1.1,1.5-1.7,2-1.4,3.6c-2.1,0.7-4,0.9-5.6-0.6   C631.7,61,628.7,62.9,628.7,60.1z" />
	<path fill="#DBC4BA" d="M585,59.2c0.4-1.8,0.3-3.6-0.4-5.4c0.9-1.3,1.4-2,2.5-3.4c0.8,1.5,1.5,2.7,2.2,4c-1.5,2.2-3.7,4-3.5,6.9   c-0.3,0-0.6,0-0.9-0.1C585,60.6,585,59.9,585,59.2z" />
	<path fill="#342A27" d="M598.7,95.4c-2.5-1.9-4.6-4.1-6.4-6.6c0.3-0.3,0.7-0.5,1-0.8c2.5,1.7,4.1,4.4,6.2,6.7   C599.2,94.9,598.9,95.2,598.7,95.4z" />
	<path fill="#1D1D1B" d="M580.6,54c0.2,0.8,0.9,0.9,1.6,0.9c-1.5,0.7-1.8,1.9-1.3,3.4c-0.3,0.5-0.5,1-0.8,1.5c0,0-0.1,0.1-0.1,0.1   c-0.7-1.9-2-3.7-1.4-5.8C579.3,54.1,580,54.1,580.6,54z" />
	<path fill="#CFB7AD" d="M578.6,54.2c-0.6,2.1,0.6,3.9,1.4,5.8c-0.7,0.2-0.6,0.8-0.7,1.3c-1.9-1.8-3.2-4.8-1.6-7.2   C578,54.2,578.3,54.2,578.6,54.2z" />
	<path fill="#5C5752" d="M585,59.2c0,0.7-0.1,1.4-0.1,2.1c-0.5,0.3-0.9,0.5-1.8,1c0.2-1.8,0.4-3.2,0.5-4.5   C584.1,58.3,584.6,58.7,585,59.2z" />
	<path fill="#3E3130" d="M606.9,72.7c1.7,0.6,2.3,1.6,2.6,2.8C607.7,76.4,607.1,75.2,606.9,72.7z" />
	<path fill="#6A5D57" d="M598.7,95.4c0.3-0.3,0.5-0.5,0.8-0.8c0.7,0.7,1.5,1.4,2.2,2.1c-0.1,0.3-0.2,0.7-0.3,1.2   C600.1,97.4,599.4,96.4,598.7,95.4z" />
	<path fill="#3F3330" d="M593.3,88c-0.3,0.3-0.7,0.5-1,0.8c-1-0.4-1.9-1-2.2-2.1c0.3-0.3,0.5-0.6,0.8-0.9   C591.7,86.5,592.5,87.3,593.3,88z" />
	<path fill="#181615" d="M604.4,70.9c-0.4-0.4-0.8-0.8-1.1-1.2c1-1.1,1-1.1,2.2,0.2C605.1,70.3,604.7,70.6,604.4,70.9z" />
	<path fill="#615D58" d="M580.1,59.9c0.3-0.5,0.5-1,0.8-1.5c0.8,0.6,0.7,1.4,0.5,2.3c-0.2,0-0.5,0-0.7,0.1   C580.5,60.4,580.3,60.2,580.1,59.9z" />
	<path fill="#555451" d="M604.4,70.9c0.3-0.3,0.7-0.7,1-1c0.3,0.6,0.5,1.2,0.8,1.8C605,72.2,604.7,71.5,604.4,70.9z" />
	<path fill="#B9A9A0" d="M590.8,52.8c-0.3-0.5-0.5-1-0.8-1.4C590.8,51.5,590.9,52.1,590.8,52.8z" />
	<path fill="#CFB7AD" d="M580.7,60.7c0.2-0.1,0.5-0.1,0.7-0.1C581.3,61.3,581,61.4,580.7,60.7z" />
	<path fill="#CFB7AD" d="M580,62.2c-0.2-0.3-0.4-0.5-0.6-0.8C579.6,61.6,579.8,61.9,580,62.2z" />
	<path fill="#020202" d="M250.7,558.1c-1,0.6-2.1,1.1-3.2,1.7c7.4,5.2-10.1,7.4-10.3,1.9c-3.5,0.4-6.8-3.4-2.6-5.2   C237.9,557.6,252,554.1,250.7,558.1z" />
	<path fill="#CAD0D6" d="M250.7,558.1c0.4-3.1-3.9-1.5-5.6-2.7c2.3-0.8,4.6-1.6,7-2.5c0,2.7,0,5.4,0,8.1   C251.4,560.1,251.8,558.7,250.7,558.1z" />
	<path fill="#53575A" d="M245.1,555.4c0.7,0.2,1.3,0.4,2,0.7c-3.9,1.3-8.3,0.2-12.4,0.5c0-0.2,0-0.3,0-0.5   C238.2,555.9,241.7,556.2,245.1,555.4z" />
	<path fill="#0C0B16" d="M508.4,317.2c0,0.2,0.1,0.4,0.3,0.5c-0.2,0.2-0.4,0.5-0.7,0.8c-1.2-0.7-2.3-1.4-3.4-2.1   c-5.3,1.4-10.4,3.1-15.8,4.1c3.8-3.1,8.7-3.4,13.1-5.3c-1.4-0.7-3.1-0.3-4-1.7c2.3-0.6,4.5,0.3,6.5,1c3.3-0.5,6.3-2.1,10.2-2.4   c-2.4,2.8-5.6,2.2-8.1,3.9C507.2,316.4,507.8,316.8,508.4,317.2z" />
	<path fill="#0E1120" d="M466.4,321.9c-4.2-1,5.3-10.5,7.7-11.1C471.6,315.3,467.7,317.8,466.4,321.9z" />
	<path fill="#5573E2" d="M486.2,301c0.7,1,1.4,2,2,2.9c-0.5,1.3-2.1,0.3-2.6,1.5c-1.3-0.5-2.5-1-3.9-1.6   C483.1,302.3,485.1,302.2,486.2,301z" />
	<path fill="#171B34" d="M489.8,305.4c0.7,0.8,1.4,1.6,2,2.4c-3.8-0.2-7.3,3.4-11,4.6C480.1,309.6,489.5,308.5,489.8,305.4z" />
	<path fill="#344281" d="M502.5,338.9c1.9-0.4,3-0.5,3.6,0.7C505.2,340.2,504.1,339.2,502.5,338.9z" />
	<path fill="#201B2D" d="M513.6,319.9c1,0.1,2.2-0.7,2.9,0.7C515.4,320.6,514.4,320.8,513.6,319.9z" />
	<path fill="#1C1715" d="M546,181.3c-3-1.6-5.9-5.7-4-8.9c2.4,2.6,3.3,5.4,5.7,7.9C547.4,181.2,546.7,181.2,546,181.3z" />
	<path d="M585.5,224.6c-1.4,2.3-3.9,1.7-6.1,0.3C580.7,223.3,583.8,223.7,585.5,224.6z" />
	<path fill="#3E2E2A" d="M546,181.3c0.7-0.1,1.5-0.2,1.7-1.1c1.4,0.9,2.6-0.1,3.3,2c-1,0.9-1.6,0.1-2.4-0.4   C547.8,181.5,546.7,182.3,546,181.3z" />
	<path fill="#331A18" d="M555.2,184.1c-2.1-0.2-2.8-0.9-3.4-2.1C553.8,181.9,553.8,182.2,555.2,184.1z" />
	<path fill="#3C2826" d="M557.4,184.6c-0.5,0.6-1.4,0.1-1.5-0.6C556,183,557.7,183.7,557.4,184.6z" />
	<path fill="#271E1B" d="M593,335.4c-1.5,0.8-2.7,1.3-4.2,0.9C588.7,333.4,591.8,332.2,593,335.4z" />
	<path fill="#180909" d="M585,334.3c-1.7,1-2.9,0.6-4.1-0.4C582.9,332.2,583.4,332.3,585,334.3z" />
	<path fill="#262321" d="M581.5,343.3c0.3,0.4,0.5,0.7,0.7,1.1c-1,0.8-1.8,1.8-3.3,1.3C579.1,344.2,580,343.7,581.5,343.3z" />
	<path fill="#3F2E2B" d="M576.4,332.9c-1,0.9-1.8,1-2.7,0.4C574.5,331.7,574.6,331.7,576.4,332.9z" />
	<path fill="#1E100F" d="M588,341.8c-0.6,1.5-0.6,1.5-2,1.2C586.7,341.5,586.7,341.5,588,341.8z" />
	<path fill="#322F34" d="M549.7,85.1c-1.5,2.3-3.2,0.9-4.8,0.8C546.5,83.5,547.6,83.3,549.7,85.1z" />
	<path fill="#B7BDD5" d="M517.8,98.2c0.5-0.2,1-0.5,1.5-0.7C519.1,98.3,518.5,98.3,517.8,98.2z" />
	<path fill="#332C29" d="M641.4,122.7c-0.5-1.2-1.6-2.1-1.5-3.5C641.8,118.3,644,122.2,641.4,122.7z" />
	<path fill="#5E4C46" d="M642.4,126.4c0.4,0.6,0.5,0.9-0.4,1.2c-0.1-0.3-0.2-0.6-0.4-0.9C641.9,126.6,642.1,126.5,642.4,126.4z" />
	<path fill="#402724" d="M642.7,123.7c0,1.4-0.4,1.4-0.5,0C642.4,123.7,642.6,123.7,642.7,123.7z" />
	<path fill="#28211F" d="M485.2,94.3c-2.1,0-4.2-3.4-1.6-3.3C485.2,91.4,485.5,92,485.2,94.3z" />
	<path fill="#382A26" d="M480.6,90.5c-0.8-0.6-1.6-1.2-2.6-2c1.4-1.5,3-1.1,3.5,0.9C481.3,89.7,481,90,480.6,90.5z" />
	<path fill="#211C1A" d="M585.8,86.7c0.4-0.3,0.8-0.5,1.1-0.8c1.3,2.2,0.9,5.3-0.9,7.1C584.9,91,586,88.9,585.8,86.7L585.8,86.7z" />
	<path fill="#312724" d="M584.3,99.8c0.3-1,0.5-1.9,0.8-2.9c0.3,0,0.7,0,1.3-0.1C586.4,98.2,586.2,100.1,584.3,99.8z" />
	<path fill="#C2A498" d="M595.1,95.3c1,1.2,1.4,2.5,1.3,4.2C594.4,98.4,595.4,96.7,595.1,95.3L595.1,95.3z" />
	<path fill="#393733" d="M589.9,89.3c-0.4,0.3-0.6,0.5-0.9,0.7C588.2,89.1,588.9,88.5,589.9,89.3z" />
	<path fill="#C2A498" d="M594.5,93.9c0.7,0.3,0.7,0.9,0.7,1.5l0,0C594.5,95.1,594.4,94.5,594.5,93.9L594.5,93.9z" />
	<path fill="#C2A498" d="M594.4,93.9c-0.5,0-0.8,0-1-0.5C594,93.2,594.2,93.4,594.4,93.9L594.4,93.9z" />
	<path fill="#5373E2" d="M510.6,259.2c0.8,0.8,1.2,1.9,1.6,2.9c-1.9,0.4-3.7,0.8-5.6,1.1c-0.1-0.5-0.2-0.9-0.2-1.2   C507.7,261.1,509.2,260.1,510.6,259.2z" />
	<path fill="#253B74" d="M496.9,266.4c-0.6,1.4-2,2.4-3.6,2.2C494.1,267.2,495.4,266.5,496.9,266.4L496.9,266.4z" />
	<path fill="#080810" d="M471.7,262.1c0.4-1,1.1-1.5,2.2-1.4l-0.1-0.1C473.5,261.7,472.8,262.2,471.7,262.1L471.7,262.1z" />
	<path fill="#080810" d="M473.9,260.7c0.1-0.1,0.2-0.2,0.3-0.3C474.2,260.6,474,260.6,473.9,260.7L473.9,260.7z" />
	<path fill="#253B74" d="M497,266.5c0.1-0.2,0.2-0.3,0.3-0.5C497.1,266.1,497,266.3,497,266.5L497,266.5z" />
	<path fill="#445CB2" d="M450,246.9c-0.2-0.2-0.4-0.4-0.6-0.7C449.6,246.4,449.8,246.6,450,246.9z" />
	<path fill="#445CB2" d="M450.8,247.6c-0.2-0.2-0.4-0.5-0.6-0.7C450.3,247.2,450.5,247.4,450.8,247.6z" />
	<path fill="#445CB2" d="M448.6,245.4c-0.2-0.2-0.5-0.4-0.7-0.6C448.1,245,448.4,245.2,448.6,245.4z" />
	<path fill="#445CB2" d="M449.3,246.1c-0.2-0.2-0.4-0.4-0.7-0.6C448.9,245.7,449.1,245.9,449.3,246.1z" />
	<path fill="#445CB2" d="M451.5,248.4c-0.2-0.3-0.4-0.5-0.7-0.8C451,247.9,451.2,248.2,451.5,248.4z" />
	<path fill="#080810" d="M499.1,262.1c0.1,0.1,0.3,0.3,0.4,0.4C499.3,262.5,499.2,262.3,499.1,262.1   C499.1,262.1,499.1,262.1,499.1,262.1z" />
	<path fill="#241B19" d="M548.6,134.9c-1.9-1.7-6.2-4.9-3.1-7c1.2,0.7,0.9,2.1,1.4,3C549.7,132.7,549.9,133.1,548.6,134.9z" />
	<path fill="#342825" d="M552.1,137.3c-2.1-1.4-2.1-1.4-1.4-3.4C553,133.5,553.5,135.9,552.1,137.3z" />
	<path fill="#4A68CC" d="M459.3,298.1c-4.9,1.7-9.8,3.6-15,4.6c-0.5-0.2-1-0.5-1.4-0.7C446.1,301.7,458.6,294.2,459.3,298.1z" />
	<path fill="#4B6AD0" d="M475.3,287.3c0.2,0.2,0.5,0.4,0.8,0.7c-2.1,3.3-4.9,5.7-8.6,6.6c-0.2-0.2-0.5-0.5-0.7-0.7   C469.5,291.6,473.2,290.4,475.3,287.3z" />
	<path fill="#344990" d="M442.9,302c0.5,0.2,1,0.5,1.4,0.7c-2.1,0.5-5.6,2.4-7.2,0.7C439,302.9,441,302.4,442.9,302z" />
	<path fill="#233569" d="M459.3,298.1c0.2-1.1-0.5-1.3-1.4-1.4c1-1,2.2-1.5,3.7-1.3l0,0c-0.4,0.4-0.7,0.8-1.1,1.2   c0.2,0.2,0.5,0.4,0.9,0.8C460.6,297.5,460,297.8,459.3,298.1z" />
	<path fill="#30478C" d="M466.7,294c0.2,0.2,0.5,0.5,0.7,0.7c-1.1,0.8-2.3,1.2-3.7,1.4l0,0C464.3,294.7,465.6,294.5,466.7,294z" />
	<path fill="#28396F" d="M463.7,296c-0.3,0.6-0.6,0.9-1.4,0.2C462.9,296.2,463.3,296.1,463.7,296C463.8,296,463.7,296,463.7,296z" />
	<path fill="#233569" d="M461.6,295.3c0.1-0.5,0.4-0.8,1.3-0.3C462.3,295.2,461.9,295.2,461.6,295.3L461.6,295.3z" />
	<path fill="#5876E8" d="M465.2,297.5c0.1-0.1,0.2-0.3,0.2-0.3C465.4,297.3,465.3,297.4,465.2,297.5   C465.2,297.5,465.2,297.5,465.2,297.5z" />
	<path fill="#5876E8" d="M473.8,286.7c0.2-0.2,0.5-0.4,0.7-0.7c-0.1,0.2-0.1,0.4-0.1,0.5C474.2,286.6,474,286.6,473.8,286.7z" />
	<path fill="#212125" d="M500.7,202.3c-2.3-1.4-2.3-6.1,0.1-7.1C502.4,197,502.4,199,500.7,202.3z" />
	<path fill="#31383F" d="M499.9,206.7c-0.9-1.8-0.9-1.8,0.3-2.9c0.3,0.3,0.7,0.6,1.2,1C500.9,205.4,500.5,205.9,499.9,206.7z" />
</g>
</svg>