<?xml version='1.0' encoding='utf-8'?>
<svg xmlns="http://www.w3.org/2000/svg" version="1.2" baseProfile="tiny" id="Layer_2_1_" x="0px" y="0px" viewBox="0 0 900 600" overflow="visible" xml:space="preserve">
<g>
	<path d="M125.1,186.7c3.6,10.6,6.6,23.8,15.4,31.3c-0.3,2.2-0.6,4.3-0.9,6.6c50.7,21.3,114.4-3,152.6,44.8   c10.5,5.7,22.3,9.8,33,15.4c13,4.9,27.8-0.3,41,4.3c18.6-0.2,36.4,8.2,54.7,11.5c4.9,1.6,6.8-4.5,11.4-5.1c1.7,0.8,3.5,1.6,5.6,2.6   c2.2-1.1,4.6-2.3,7.1-3.6c0.8,0.7,1.5,1.4,2.3,2.1c2-0.1,3.5-1.2,5-2.3c8.9,0.6,16-6.4,24.7-7.9c25.2-6.6,48,9.2,66.6,25.5   c5.7,0.1,11.1-1.1,15.5,3.4c21,2.1,40.3-7.8,59.1-16c32.7-6.6,63.3-25.8,97.2-24.1c46.2,0.1,52.3,29.2,103.8,2.3   c0.2,0.1,0.9,0.3,1.5,0.5c43-18.3,91.9-0.8,76.3,52.2c-3.1,7.4-3.3,16.5-10.8,21.7c-3.6,4.1-5.4,8.6-11.9,5.6   c-1,1.2-2.1,2.5-3.3,3.9c5.5,5.9,8.8,13.5,14.3,19.3c3.6,3.7,7.7,7.9,8.1,13.3c0.9,5.3-0.8,10.8,1.7,15.6   c2.5,4.6-0.7,12.8-6.7,10.2c-44.4-0.3-96.3,3.9-132.7-26.1c-27.3,10.9-56.2,15-85,8.2c-9.1-1.1-18.6,10-27.4,5.7   c-14.8,1.9-29.4,5.6-43.6-0.2c-22.7,1.9-46.1,1.9-68.7-1.8c-6.3,6.9-15.6-1.2-22.8-0.6c-41.9,0.1-84.7,4.3-126.2-3.8   c-8.7-2.1-16.3-4.9-25.2-3.3c0.9-3.4,2.8-6.3,3.8-9.8c-7.3-1.3-14.4-1.7-21.6-3c-9.8-0.8-17-8.4-26.1-10.5   c-14.1,1.8-25.3-10.3-39.5-8.5c-25.8,3.1-51.2-0.1-76.8-3.4c-21.9-0.5-43.6,3.9-64.7,9.3c-0.3,2.3-0.6,4.4-0.9,6.6   c-24.2,11-20.7,3.1-42.9,1.1c-12.7-0.2-36.3,4.8-44.6,14.6c-24.5,1.2-12.1-16.6-6-29.5c4.9-9.6,12.5-16.8,21.9-21.9   c6.2-4.1,15-4.7,19.8-10.6c11.6-12,23.3-37.6,43.4-29c3,13.7,21.4,15.2,24.5,28.4c20.3,0.5,41.2-3,59.7-11.5   c14.1-12,31-9.4,48.2-9.7c-49.8-18.2-95.3-47-148.2-55.3c-0.9,1.9-1.6,3.5-2.3,5c-3.7,0.6-7.1,1.3-10.6,0.5c-0.3-0.5-0.6-1-0.9-1.6   c3.5-2.3,9.5,1.3,10.9-4.5c-18-13-12.5-22.8,5.4-31.5c13.8,4.1,15.1,3.4,28.3,0.3c0.2-1.5,0.5-2.8,0.7-4.3   c-6.7-3.3-15.9-25.6-14.9-33.1C124.1,186.4,124.6,186.6,125.1,186.7z M264.7,311.8L264.7,311.8c12,10.7,23.6,22.3,39.4,27.9   c-0.1,0.8-0.1,1.3-0.2,2c15.3,16.8,33.6,30.5,55.2,38c-3.4-28.6-11-60.9,5-87.3c-33-1.1-38.7-2.9-66.8-17.7   c-6.2-0.3-9.3-5.2-13.6-8.8C274.7,259,266,251,256.4,245c-38.2-8.8-79.6-1.4-116.2-17.5c-4.4-2.7-8.5-0.4-11.7,2   c1.5,0.9,5.9,0.1,5.6,2.6c-3.7,0.6-7.3,0.2-10.7-0.9c-1.1-1.1-1.1-3-3.5-2.9c-9.8,3.6-18.3,12.5-16.3,23.7   C161.4,259.6,211,291.8,264.7,311.8z M79.5,336.9c-20.9,8-39.5,21.1-45.9,43.8l0,0c-1.5,1.9-2.3,4.2-3.3,6.4   c3.5,2.8,7.2,4.4,11.5,4.9c7.7-8.1,18.9-11.1,29.4-13.3c0.5-1.1,0.9-2,1.5-3.2c1.2,1.2,2.2,3.7,3.8,2.5c0.6-1-0.3-2.1,1.1-2.9   c0.7,1.1,1.3,2.1,2.1,3.3c0.5-0.8,0.9-1.3,1.4-2c-2.4-5.6,2.1-4.1,3.2,0.1c1.5-0.1,3,0.7,4.5-0.3c0-2.5-1.8-4.7-0.4-7.1   c4.3,0,3,5.2,4.5,8.2c1.9,0,3.3,1.2,5.4,0.7c-0.2-2.6-1.8-5-0.5-7.5c0.5,0,1,0,1.4,0c1.1,7.3,5.8,11.2,12.8,12.8   c5.5-2.4,10.4-4.5,16.3-5.9c0.7-1.8,1.1-3.1,1.1-5c-2.9,0-5.6,0-8.2,0c0.3,2.3,3.1,0.5,3.6,2.3c-0.5,2.7-3.3,1.5-5,1   c-0.8-1.1-1.7-2.3-2.7-3.6c2-1.8,0.5-4.4,0.2-6.5c-2.8-10,8.5-18.6,17-21.6c5.4-1.5,7.3-7.3,9.9-11.3   c-0.4-10.6-12.3-10.3-17.7-17.2c-1.4-2.1-3-3.8-4.8-5.4C113.8,288.4,86.3,329.2,79.5,336.9C79.4,336.9,79.5,336.9,79.5,336.9z    M826.1,357.5c-0.3,1.2-0.3,2.1,1.6,2.1c0.1-1.5-0.8-3.8,0.9-4.7c0.3,2.2,0.7,4.5,1.1,6.9c1.6,0.8,3.2,1.6,4.9,2.5   c3.3-3.7,2.9-7.7,4.2-12c0.5,0.4,0.8,0.6,1.1,0.9c0.4,4.4,0,8.6-2.3,12.3c11.5,4,27.7-1.2,35.8-10.6c0.1-2.1,0.1-4.8,1.6-6.4   c-1.7-2.6-3.3-4.9-4.7-7.1c-4.4-1.5-6.7,2.2-10.9,2c-11.4-0.8-15.9-4.9-20.1-15c-2.7-2.8-2.8-6.1-1.9-9.2c-0.4-0.8-0.6-1.2-0.8-1.7   c7-2.4,10.6-15.1,3.4-18.8c-3.6-2-7.6-1.2-12-2.3c-2,1.6-4.6,3.5-6.7,5.1c-1,0-1.6,0.6-2,1.5c-4,1.7-6.7,5.2-6,9.7   c-7.7-0.6-14.7-0.5-20.4,5.5c-0.8-1.9,1-2.6,1.3-3.9c4.3-4.1,10.1-4.4,15.7-4.2c1.5-2.6,2.9-4.9,4.4-7.5c5.1-1.4,8.8-5.7,13.5-8.3   c-0.4-3.4-4.1-4.5-7.1-4.1c-0.7-1.4-0.6-3-1.9-3.8c-0.6,0.3-1.2,0.6-1.7,0.8c-1.3-0.7-1.7-1.5-1.1-2.6c0.5-0.1,1-0.2,1.4-0.3   c-0.9-2.1-3.2-0.4-4.6,0c-14.8,6.4-31.7,8.4-47.6,5.4c-9.5,12.8,9.7,16.7,15,25.6c19.2,35.3,3,24.6,43.6,43.4   c0.7-0.8,1.2-1.4,1.7-2C825.5,356.9,825.8,357.2,826.1,357.5z M526.8,405.7c0.6-0.6,1.1-1.2,1.7-1.7l-0.1-0.1   c3.3-3.4,5.7-8,7.5-12.3c-2.1-1.8-5.2-0.4-7.3-2.8c3-0.6,5.6,1.4,8.4,0.2c2-4.5,6.6-8.8,7.6-13.5c0.2-0.5,0.5-0.9,0.8-1.6   c-1.6-0.5-3.1-1-4.5-1.4c0-0.1,0-0.3,0.1-0.4c1.8,0,3.6,0,5.5,0c1.7-2.8,2.8-4.9,3.1-8.1c-0.4-0.5-0.8-1-1.3-1.4l0,0.1   c3.4,0.5,2.5-2.9,2.6-5.2c2.5-6.2-2.3-4.6-6.3-7c2.6-0.8,4.7,0.8,7,0.6c0.3-2.4,0.4-4.8,0.1-7.3c-1.1-0.5-2.1-0.9-3.7-1.6   c1.8-0.2,3-0.3,4.1-0.4c0.4-1.4,0.7-2.5-0.3-3.4c1.2-3,0.9-6.7,0.7-9.8c-1.2-0.3-2-0.5-3.8-0.9c2.1-0.2,3.2-0.3,4.5-0.5   c0-1.1,0-2,0-2.9c-0.8-0.1-1.4-0.2-2-0.2c0-0.2-0.1-0.3-0.1-0.5c1-0.3,1.9-0.6,3-1c-0.8-1.9-2.6-0.8-3.7-1.5   c0.3-0.4,0.4-0.6,0.6-0.8c2.4,0.3,4.8,0.3,5.2-2.6c-0.4-0.8-0.7-1.5-1.1-2.3c-4.1-2.1-9,0.5-12.7-2.5c-12.5-9.2-25.7-17.1-39.1-25   c-19.2-0.6-37.9,2-54.6,12.1c-1.6-0.9-3.1-1.8-4.8-2.8c-2,1.2-4.1,2.5-6.2,3.7c-3.3-2.5-7.9-4.8-10.2,0.1   c-1.8,6.6-48.8-9.4-58.2-10c-13.3,13-11.7,29-12.3,45.5c-1.9,19.7,8.4,40,3.9,58.8c14.4-1.2,27.3,7.6,41.8,6.2   c6.4-1.1,13.8,4.7,19.3-0.3c31,8.1,63.5-2.3,94.6,2.8c1.2,1.5,2.9,0.4,4.2,1C522.7,405.9,524.7,405.8,526.8,405.7z M139.6,344.5   L139.6,344.5c-1.3,1.3-3,1.9-4.6,2.1c-4.5,6.6-6,14.5-4.3,22.3c23.5-4.7,46.8-10.1,70.9-8.7c16,0.8,31.7,4.9,47.7,5   c14.3-1.1,29.1-2.9,42.9,1.6c6.5,2.9,12.9,6.6,20.2,5.3c0-1.5-1.9-1.8-1.7-3.4c14.4,9.6,31.3,14.3,48.7,16.1c0-0.6,0-1.1,0-1.7   c-36.2-13.2-60.2-43.5-91.7-64.4c0-1,0-1.7,0-2.4c-21.3-7.8-46.5-2.1-65.4,9.2c-16.8,8.4-37.5,8.5-56.2,10.4   C144,338.8,141.5,341.4,139.6,344.5z M844.1,372.2c-17.3-9-36.5-15.1-52-26.9C780.6,366.6,763,374.1,740,376   c27.6,27.4,54.9,40.6,94.3,39.3c19.6-0.3,39.9,6.3,58.9-0.2c0.5-2.9-0.9-5.4-1.6-8c-1.2-6.2,0.7-13.6-3.5-18.9   c-8.3-6.9-11.7-17.7-19.9-24.9c-6.6,3.2-13.1,5.3-20.2,6.4c0.3,0.7,0.5,1.3,0.8,2.1C847.2,372,845.6,372.1,844.1,372.2z    M548.3,375.4c-5,9.2-10.2,18.2-15.3,27.4c45.2,4.8,92.7,7.3,137.1-3.8c27.8,6.2,57,2.4,83.2-7.2c-10.8-9.2-22.2-22.8-37.4-23.4   c-7.3-1.5-16.5,2.5-22.4-2.8c19.1,0.1,25.9-3.4,43.4,8c21.1-1.3,41.6-9,52.1-28.4c-3.3-22.3-18.6-40.5-41.3-45   c4.4-2.4,8.3,0.4,12.4,0.6c-0.6-4-0.4-7.3,0.7-11c-42.5-27.7-94.5,0.1-137.6,11.2c-20.8,8.7-41.2,20.2-64.7,17.2   C551.7,336.4,557.5,357.3,548.3,375.4z M110.9,225.7c-7.5,2.8-12.8,7.2-16.2,14c1.9,2.6,2.6,6.7,5.1,8.1c-0.6-10.4,9-15.9,16-21.2   C114.1,226.3,112.4,226,110.9,225.7z M119.1,362.5c0.9,2.2,0.5,5,2.4,7.1c1.7-0.3,3.4,0.1,5-0.7c-1.7-7.6,1.4-13.4,3.7-20.5   C125.3,352.9,120.3,355.6,119.1,362.5z M821.2,282.9c-1.2-1-2.1-1.9-2.9-0.2C818.1,284.7,820.2,284.4,821.2,282.9z M882.1,292.2   c0.6-0.7,1-1.1,1.5-1.8c-1.2,0-2,0-3.4,0C881,291.2,881.4,291.5,882.1,292.2z M890.8,318.7c-0.5,0.4-1,0.8-1.6,1.3   C890.5,320.6,891.2,320.5,890.8,318.7z" />
	<path fill="#020202" d="M125.1,186.7c-0.5-0.1-1-0.3-1.6-0.5c-0.1,0.5-0.2,1-0.3,1.5c-0.4-1.1-0.9-2.3-1.3-3.6   c-29.4-7.5-37.4,9.8-62.1,18.7c-9.7,2.4-21-1.3-30,2.6c-16.1,11.4-25.4,21.7-25.9,42.1c10.7,8.9,26.2-11.8,45.6-4   c1.2-1.5,0.6-3.9,3.1-4.9c0.1,2,0.1,3.7,0.2,5.7c0.9,0,1.5,0.1,2.2,0.1c0.9-3.2,0.4-6.4,3-8.5c0.6,0.6,1.1,1.1,1.7,1.7   c-0.5,2.2-0.9,4.4-1.4,6.5c1,0.6,1.9,0.7,2.9-0.1c0.3-3-0.5-7.3,2.8-8.8c2,1,1.4,2.6,1.4,3.9c-1.2,2.1-0.7,4.4-0.7,6.7   c1.9,1,3.6,2,5.6,2.5c0-4.5-3.3-12.7,2.6-14.1c1.3,5.1-0.1,10.4,0.3,15.7c0.9,0.4,1.5,0.7,2.3,1c0.5-4.6-1.2-9.4,2.5-13.6   c0.5,0.8,0.9,1.4,1.2,2c-0.2,5.1-0.5,10.2,0.9,15.6c3.2,3.1,8.4,6.6,12.9,4.4c0.3,0.5,0.6,1,0.9,1.6c-6.5,2.4-13.1-1.1-17.6-5.6   c-45.4-27.9-59.5,10.4-75.4-6.1c-3.1-6.2,2.3-13.1,3.2-19.3c3.2-12.2,14.7-20.2,24.8-26.7c10.4-4.3,22.8,0.1,33.4-3.8   c19.1-9.6,39.1-26.8,61.4-16.5C124.2,184.1,124.7,185.4,125.1,186.7z" />
	<path fill="#E0DEE5" d="M548.3,375.4c9.2-18.2,3.4-39,10.3-57.4c23.5,3.1,43.9-8.5,64.7-17.2c43.1-11.1,95.1-38.9,137.6-11.2   c-1.1,3.7-1.3,7-0.7,11c-4.1-0.2-8-3-12.4-0.6c22.8,4.5,38,22.7,41.3,45c-6.8,10.9-17.3,21.5-30.3,24.4c-0.3-0.4-0.6-0.8-0.9-1.2   c1.8-1.3,4-1.7,5-3.7c1.1-10.6-13.5-8.6-20.4-9c-2.8-4-7.3-4.2-11.6-4.6c-9.7-2.6-16.8-13.3-27.7-10.7c-0.8,3.3-1.6,5.9-2.8,9.1   c-13.6,2.9-41.9-3-50.3,8c3.9,5.3,10.4,4.1,16,4.2c6-0.2,11.6,2.6,17.7,1.7c1,0.9,2,1.9,2.2,3.3c-8.5,5.6-18.4,9.6-23.6,9.4   c-0.2-4-4.4-4.9-7.3-5.7c-2.2-0.3-3.3,1.6-4.8,2.6c-1.6,0.4-3.3,0.7-5.3,1.2c-0.4,0.5-1.1,1.2-1.8,1.9c-0.1,2.2,0.3,3.8,0.6,6.1   c-4.5-0.9-8.9-1.9-13.4-2.8c0.1-3.7-2.4-5.9-5-8.1c-1.1,0-2.2,0-3.4,0c-1.1,1-2.2,1.9-3.1,2.7c0.1,2.3,0.2,4.1,0.3,6   c-1.6,1-3.7,1.7-3.7,4.1c-6.2,1.6-5.6-0.1-11.1-1.7c-5.6-0.7-9.9,0.9-15.7,1.7c5.9-4.2,10-8.2,14.6-13.6   c-10.2-0.6-19.6,3.2-29.2,6.3c-8.3,3.1-16.8-0.6-25.5,0.5C548.6,376.5,548.5,376,548.3,375.4z M614.1,313.8   c2.9-0.5,4.7-1.1,6.3-2.3C618.8,310,617.7,310.4,614.1,313.8z M585.7,321.7c-2.7-1.5-4.1-1.1-5.1,1.3   C582.4,323.3,584,323.1,585.7,321.7z M604.2,316.9c2.8-0.6,4.9-1.4,7.7-2.2C608.6,313.7,606.3,313.9,604.2,316.9z M733.6,298.3   c2.4,0.7,2.4,0.7,3.9,0C735.4,296.9,735.4,296.9,733.6,298.3z M744.5,299.5c-1.7-1.2-1.7-1.2-3.5-0.9   C742.2,299.8,742.2,299.8,744.5,299.5z M591.8,320.6c2.5-0.6,4-1,6.1-1.5C595.4,318.3,593.7,318,591.8,320.6z M634,373.6   c1.9,0,1.9,0,2.2-2.4C634.7,371.4,634.2,372.3,634,373.6z M623.2,309.2c-0.1,0.2-0.3,0.3-0.4,0.5c0.5,0.3,0.8,0.4,1.1-0.2   C623.7,309.4,623.5,309.3,623.2,309.2z" />
	<path fill="#6D5CA9" d="M357.9,355.7c-1-22-5.3-47,11.4-64.7c9.4,0.6,56.4,16.6,58.2,10c2.3-4.9,6.9-2.6,10.2-0.1   c2.1-1.2,4.1-2.5,6.2-3.7c1.7,1,3.2,1.9,4.8,2.8c8.9-5.7,19.2-7.6,29.1-11.2c7.9-2.9,16.7,1.3,25.1-1c15.3,7.4,28.6,19.7,43.8,26.6   c0,0.7,0,1.5,1,1.6l-0.1,0c0,0.6-0.1,1.3-0.1,1.9c0.9,1.1,2.2,1.7,3.4,2.4c-0.2,0.2-0.3,0.4-0.6,0.8c1.1,0.7,3-0.4,3.7,1.5   c-1.1,0.3-2,0.7-3,1c0,0.2,0.1,0.3,0.1,0.5c0.6,0.1,1.2,0.1,2,0.2c0,0.9,0,1.8,0,2.9c-1.3,0.1-2.4,0.3-4.5,0.5   c1.8,0.4,2.7,0.7,3.8,0.9c0.4,2.6-0.1,5.3,0,7.9c-1.7,0.4-5.1-1.4-5.6,1c1.6,0.3,3.2,0.6,4.9,0.9c1,1,0.7,2,0.3,3.4   c-1.1,0.1-2.3,0.2-4.1,0.4c1.6,0.7,2.6,1.1,3.7,1.6c0.3,2.5,0.3,4.9-0.1,7.3c-2.3,0.2-4.3-1.5-7-0.6c3.9,2.4,8.8,0.8,6.3,7   c-2.2,0.3-4.6-1.1-6.4,0.7c1.9,0.4,4.1,0.1,5.6,1.9c-0.1,0.8-0.2,1.7-0.2,2.5c-0.5,0-1,0.1-1.5,0.1c-1.5-0.8-1.5-0.8-3.4-0.1   c1.5,0,2.5,0,3.4,0c0.4,0.5,0.9,1,1.3,1.4c-0.2,0.7-0.3,1.3-0.5,2c-1.7-0.7-3.4-1.5-5.3-1.7c-0.2,0.4-0.3,0.8-0.5,1.2   c1.7,0.6,3.3,1.1,4.7,1.6c0.1,0.7,0.2,1.1,0.3,1.5c-0.6,1.1-1.2,2.2-1.8,3.5c-1.9,0-3.7,0-5.5,0c0,0.1,0,0.3-0.1,0.4   c1.4,0.5,2.9,0.9,4.5,1.4c-0.3,0.6-0.5,1.1-0.8,1.6c-8.1-0.2-17.2,1.1-24.8-0.7c4-1.5,9.5-0.8,12.5-3.7c-7.9-1.4-15.9,3.1-23.6,4.6   c-13-2.5-26.4-1.8-39.7-1.8c-12.2-1.3-23.8-4.8-36.1-5.5c-4.3-5.8-9.6-11.6-14.3-16.7c-0.5,5.3,4.8,10.5,4.4,16   c-19.8,1.5-25.1-22.2-40.4-28.7c3.7,9.2,10.6,15.8,15.8,24.1c-6.1,0-10.9-3.3-16.7-3.9c-5.8-4.7-7.2-13.4-13.7-17.8   c-1.1-0.7-1.9-3.9-3.4-2.1c2.3,7.1,6.1,13,10.5,19.3c-2.7,0.9-4.7,0.9-6.5-0.9c-0.6,0.6-1,1.1-1.7,1.7   C363.9,358.2,360.9,357,357.9,355.7z M401.7,331.7c2.3,0.9,7.4,1.9,8.5-0.6c-7.3-0.9-15.4-0.5-21.9-4.3c-0.2,0.3-0.3,0.5-0.5,0.8   c-4.3,0.3-16-4.3-18.2-1.4c22.6,3.8,16.1-0.3,29.6,14.9c-1.5-3.7-4.3-6.7-6.5-10.1C395.6,330.2,398.6,331.6,401.7,331.7z    M428.6,335.2c3.6-0.6,6.9,0.7,10.3,1.5c1.4,3.3,2.3,5.4,3.9,9.1c0.7-3.3-1.6-5.3-1.2-7.6c0.5-0.4,0.8-0.6,1.1-0.9   c-0.6-0.5-1.2-1.1-1.9-1.6c-0.4-2.1-0.3-4.4-2-6.9c0,2.6,0,4.4,0,6.2c-3.1-0.9-6.4-0.4-9.2-2c-1.3-3.2,2.2-7.4,0.4-9.9   c-2.3,3.3-1.3,7.6-3.4,10.7c2.1,1.9-1.3,5,1.7,6C428.4,338.2,428.5,336.7,428.6,335.2z M423.5,319.7c0,0.2,0,0.5-0.1,0.7   c-0.6,0.3-0.9,0.6-0.6,1.3c0.7,0.3,1.5,0.7,2.1,1c0.2,5,0.2,5,1.3,6.2c2.7-8.4,5.3-16.4,4.2-25.2   C427.9,309.3,425.9,314.5,423.5,319.7z M521.8,351.3c-6.9-3.2-24.9,3.8-22.7-8.5c-0.2-0.3-0.5-0.6-0.7-0.8c-2,1-1.1,4.6-1.8,6.5   c-1.1,0.3-1.9,0.5-3,0.7c1.2,0.4,2.1,0.7,3.1,1.1c-0.8,3.1-1.1,6.1-0.7,9.6c2-3.1,2.3-6.1,2.5-9.2c11.4,0.3,24.5,4.3,35.2-0.1   C529.4,350.8,525.6,351.1,521.8,351.3z M539.8,357.5L539.8,357.5c-9.4-0.2-19.7-2.5-28.3,2c7.6,4.5,18.5,3.6,27.4,4   c-0.1,0.8-0.2,1.5-0.3,2.5c1.6-1.4,3-2.6,4.4-3.9c0.4-1.7,0.3-3.1-1.5-3.9c1.1-8.7,4.7-17.4,3.9-26.2c-2.1,8.1-3.5,16.3-4.9,24.5   C540.3,356.9,540,357.2,539.8,357.5z M440.6,323L440.6,323c-1.3,0-2.2-0.5-2.6-2c1-3.5,1.5-7.4,0-10.9c0.2-1.8,1.7-3.5,0.5-5.6   c-1.7,1.6-1.3,3.7-1.4,5.6c-3.7,3.2-3.8,17.3-1,21.2c0.6-2.6,0.6-4.9,2.7-6.5c7.5-0.2,6.7-18,6.9-23.8c-1.2,0.6-0.6,1.7-1,2.4   c-0.3,0.6-0.9,1-1.4,1.4c-0.2-1.3,0.5-2.9-1.2-4.1c0,7,1.1,13.3-2.2,19.3c1.1,0.4,1.4-1.7,2.4-0.4c0.1,0.7-0.4,1.3-0.8,1.8   C441.5,322,441,322.5,440.6,323z M535.4,338.5c2.1,0,4.3,0.4,5.9-1.6c-1.7-6.5-17.5-7.1-22.8-4.9   C516.2,335.6,532.7,337.6,535.4,338.5z M495.8,312.7c-9.4,1-21.9,0.1-28.5,7.7c-0.9,6.3,2.2,7.5,7.3,4.6c3.3,2,7.8,3.8,11.4,2.8   c7.3-3.4,23.8,10.1,22.6-4.7C504.5,319.2,499.5,316.9,495.8,312.7z M482.3,362.5c2.3-7.8,5.5-15.2,4.4-23.5   C486.7,342.9,479.1,362.5,482.3,362.5z M520.1,345.3c-2.6-2.6-5.3-3.2-9-3.3C513.9,344.5,516.5,345.5,520.1,345.3z M456.8,342.8   c3.7,2.2,7.1,3.3,9.5,2.9C463.2,344.5,460.5,343.2,456.8,342.8z M534.9,325.9c1.7,1.6,1.7,1.6,4.6,1.9   C538.7,325.9,538.2,325.7,534.9,325.9z M536,373.2c2-0.2,4.1-4.4,1.5-4.2C537.2,370.1,536.8,371.2,536,373.2z" />
	<path fill="#B28C7D" d="M112.9,232.4c11.7-9.6,6.6,2.6,21.2-0.2c0.3-2.5-4.1-1.7-5.6-2.6c3.3-2.4,7.2-4.8,11.7-2   c36.7,16,78.1,8.7,116.2,17.5c9.6,6,18.2,14,27.3,20.9c4.3,3.7,7.4,8.5,13.6,8.8c28.2,14.8,33.8,16.6,66.8,17.7   c-3.1,6.3-6.7,11.6-8.1,18.5c-5.3-2.1-9.5-6.5-15.6-7.1c-1.9,0-2.2-2-3.7-3c-1.2,4.1,14.8,13.7,18.6,15.2   c0.6,13.6-1.3,26.6-0.9,40.2c-14-5.2-29.9-8.5-40-20.2c-6.5-4.2-7.2-16.3-16.1-16.3c0,1.3,0,2.3,0,3.3c1.5,2.1,2.9,4.2,2.5,6.8l0,0   c-7-7.2-17.7-9.4-24.3-16.7c1.3-0.3,1.7-0.7,2.8-0.4c3.6,2,8.3-1.6,12.4-1c2.7,0,4.2-0.6,7.4-2.7c-12.6-7.4-28.2-5.9-42-8.4   c-15.2-2-28-12.7-42.3-18.1c-16.5-8-33.9-14.7-49.6-24c-16-7.3-34.6-4.7-50.4-10.7c-3.1-1.3-6.8-1.7-10.3-2.3   c-0.6-3,0.5-5.8,2.6-7.9c9,2.6,17,6.1,26.8,3.1C126.5,237,119.2,236.5,112.9,232.4z M143,232.6c-1.7-0.7-5-1-5.9,0.7   c2.5,2.2,6.2,0,9.2,1.7c1.7,0.5,2.5-0.2,3.9-1.6C147.4,233.1,145.1,233.9,143,232.6z M264.6,283.4   C264.6,283.4,264.6,283.4,264.6,283.4c0.3-0.7,0.7-1.5,1-2.1c-1.3-2.9-1.3-3-3.2-3.9c-16-3.5-29.7-13.3-45.5-17   c2,2,3.8,3.8,5.6,5.5c-0.8,3.1,5.2,3.3,7.1,5.3c2.2,1.6,1.6,4.4,4.9,4.3c1.3-0.7,2.5-0.3,3.5,0.5c3.2,3.1,7.9,3.6,11.5,6.4   c0.5-0.3,1-0.5,1.5-0.8c5.7,1.3,15.6,8.6,20.6,6.1C268.6,286.2,267.3,285.6,264.6,283.4z M318.9,292.1c2.6,2.8,4.5,4.1,8.3,4.8   C324.7,293.7,322.6,291.5,318.9,292.1z M157.2,235.8c-1.1-0.9-2.1-1-3.9,0C155.1,235.8,156.1,235.8,157.2,235.8z M333.2,299.2   c-0.4-0.1-0.8-0.4-1.1,0.1C332.6,299.6,332.9,299.8,333.2,299.2z" />
	<path fill="#D5D2DC" d="M615.6,384.2c0-2.5,2.2-3.1,3.7-4.1c-0.1-1.9-0.2-3.7-0.3-6c0.9-0.8,2-1.7,3.1-2.7c1.1,0,2.3,0,3.4,0   c2.6,2.2,5,4.4,5,8.1c4.5,0.9,8.9,1.9,13.4,2.8c-0.4-2.3-0.7-3.9-0.6-6.1c0.7-0.8,1.4-1.5,1.8-1.9c2-0.4,3.6-0.8,5.3-1.2   c-0.9,1.7-1.6,2.3-1.5,4.6c3-2.3,5.3-4.2,6.3-7.3c2.9,0.7,7.1,1.7,7.3,5.7c5.2,0.3,15.1-3.7,23.6-9.4c-0.2-0.5-0.3-1-0.5-1.6   c2.2-0.6-0.1-3.7-1.7-1.7c-6.1,0.9-11.7-1.9-17.7-1.7c-5.6-0.1-12.1,1.1-16-4.2c8.4-11,36.7-5.1,50.3-8c1.2-3.2,2-5.8,2.8-9.1   c4.4-0.7,8.6-0.4,12.4,2.3c-1.6,1.5,0.5,3.4,3,4.2c-0.6-1.2-1-2.2-1.5-3.2c11.4,9.8,19.2,5.1,25.3,12c6.8,0.4,21.5-1.6,20.4,9   c-1,2-3.1,2.4-5,3.7c0.3,0.4,0.6,0.8,0.9,1.2c-7.2,2.3-14.1,2.7-21.9,4c-17.4-11.4-24.4-7.9-43.4-8c5.9,5.3,15.1,1.3,22.4,2.8   c15.2,0.6,26.5,14.2,37.4,23.4c-26.3,9.6-55.4,13.5-83.2,7.2c-44.4,11.1-91.9,8.7-137.1,3.8c5.2-9.2,10.3-18.2,15.3-27.4   c0.1,0.5,0.3,1.1,0.5,1.9c8.7-1,17.1,2.6,25.5-0.5c9.6-3,19-6.9,29.2-6.3c-4.7,5.4-8.7,9.4-14.6,13.6c11.2-2,12.7-2.8,23.3,0.9   c1.7,1.2,2,1.2,4.7,0.3C616.4,385,616,384.6,615.6,384.2z M558.5,390.8c-5.3,0.8-11.5,1.7-15.8,4.5   C545.9,396.3,557.3,393.8,558.5,390.8z M649.3,396c-4.5-2.5-9.7-3-14.7-4.8C637.8,395.8,643.7,396.9,649.3,396z M740.6,359   c-1.8-3-6.8-2.9-10.2-3.9C732.9,358.4,736.7,359.4,740.6,359z M674.6,359.2c2.6,2.8,4.3,3.5,7.1,3   C680.1,359.7,677.9,359,674.6,359.2z M576.1,384.5c2.9,0.1,5.4-1.3,8.1-1.5C581.9,380.3,578.4,382.5,576.1,384.5z M565.6,388.2   c3.4-0.8,3.6-0.9,5.4-3C568.5,385.2,567,386.2,565.6,388.2z M627.8,390.1c-2.7-1.9-2.8-2-5.4-2.1   C623.5,390.1,625.1,390.5,627.8,390.1z M722.5,349.9c1.2,2.5,1.2,2.5,3.4,2.3C725,351,723.7,350.6,722.5,349.9z M649.4,378.6   c-2.6,1.2-2.8,2.3-1.2,4.3C648.6,381.7,648.9,380.5,649.4,378.6z" />
	<path fill="#544492" d="M519.9,374.8c5.4,1.9,12.3,0.2,18.2,0.8c0,0.5-0.1,1.1-0.1,1.6c-0.8,0.1-1.6,0.2-2.5,0.3   c0.6,2.1,1.9,1.3,3.1,1.3c-0.2-0.6-0.4-1.1-0.6-1.6c1.6-0.1,3.3,0.2,5,0.3c0.1,0.6,0.1,1,0.2,1.4c-2,3.4-4.1,6.8-6,10   c-2.9,1.1-5.5-0.9-8.4-0.2c2.1,2.3,5.1,1,7.3,2.8c-1,2.5-2.1,5.1-3.9,7.3c-2.9,0.1-5.7,0-8.6,0c-0.9,0.8-1.8,1.7-3,2.1   c0,0.2,0.1,0.4,0.1,0.5c1.2,0,2.4,0,3.6,0c1.1,1.5,2.9,0.2,4.1,1.2c0,0.3,0.1,0.7,0.2,1.1l0.1,0.1c-3.1,0.1-6.9-1.9-9.5,0   c-32-4.8-65.2,5.1-97.1-2.8c-5.5,5-12.8-0.9-19.3,0.3c-14.5,1.4-27.3-7.4-41.8-6.2c-0.9-1.8,0.6-2.9,1.4-4.1   c-0.1-11.9-1.5-23.8-4.3-35.4c3,1.2,6,2.4,9.1,3.7c0.6-0.6,1.1-1.1,1.7-1.7c1.8,1.7,3.9,1.8,6.5,0.9c-4.4-6.3-8.1-12.2-10.5-19.3   c2-2.2,12.4,12.3,12.8,14.7c-3.3-3-6.2-6.5-9-10c4.1,11,16.2,19.8,23.8,29.2c8.5,7,15.8,18.5,25.6,22.6   c-12.6-11.6-25.1-23.5-36-36.7c5.7,0.6,10.5,3.8,16.7,3.9c-5.3-8.3-12.1-14.9-15.8-24.1c15.3,6.4,20.5,30.1,40.4,28.7   c0.4-5.5-4.8-10.7-4.4-16c4.7,5.2,10,10.9,14.3,16.7c12.3,0.7,23.9,4.2,36.1,5.5c13.3,0,26.7-0.7,39.7,1.8   c-4.9,2.6-10.2,4.4-14.4,8.2C503.3,382.5,511,376.3,519.9,374.8z M505.2,396.4c-2.3-0.1-4.7-0.2-7.1-0.3   c5.3-4.9,23.1-3.9,24.9-11.6c-4.5,5.3-33.3,9.1-31.3,13c6.5-1.5,15,3,20.3-0.8C509.7,396,507.4,396.3,505.2,396.4z M532,379.9   c-5.8,5.3-9.2,12.7-14.5,18.6c6-1.5,12.2-13.5,14.9-19.1C532.2,379.5,532.1,379.7,532,379.9z M374.2,365.2c-1-2.6-1.4-3.1-4.5-4.7   c8,10.5,17.9,19.4,27.6,28.8C391.8,380.2,381.8,372.9,374.2,365.2z M533,395.9c-2.7-2.4-5.1-1.2-8.1-1c0,0.2,0,0.3,0,0.5   C527.4,395.5,529.9,395.6,533,395.9z M373,381.9c-1.5-2.7-1.5-2.7-4.1-4.3C369.8,379.9,371.4,380.9,373,381.9z M531.3,392.7   c-1.2-0.8-2.6-1-4.9,0C528.7,392.7,530,392.7,531.3,392.7z" />
	<path fill="#B1B6B7" d="M5,240c1-16,12.4-25.7,24.7-34.5c9-3.9,20.3-0.2,30-2.6c24.6-8.9,32.8-26.2,62.1-18.7   c2.8,8,3.1,16.9,8.6,23.8c2.7,3.8,2.6,9.6,7.9,11.3c-0.2,1.5-0.5,2.9-0.7,4.3c-13.2,3.1-14.5,3.8-28.3-0.3   c-15.9,8.7-23,14.5-8.5,29.8c-7.1,3.2-14.6-1-20.7-5c-0.1-4.1,0.8-7.5-2.1-10.8c-3.7,4.2-2,8.9-2.5,13.6c-0.8-0.3-1.4-0.6-2.3-1   c-0.5-5.3,0.9-10.6-0.3-15.7c-2.4-0.1-2.6,1.8-3.2,3.3c-1.6,0.9,0,3.1-1.5,4.1c-4.6-0.1-1.2-4.8-4.3-6.5c-1.4,0.6-2.1,2-2.6,3.4   c-1.4-0.6-2.5-1.5-3.5-2.6c-10,2.8-21.3-2-30.7,3.2c-1.2,0.7-2.6,1.3-4.1,1c-4.3-0.6-7.4,2.4-11,4.2C9.6,243.2,6.5,242.5,5,240z" />
	<path fill="#B28C7D" d="M874.2,370.4c3.6,3.3,4.9,8.2,7.9,12c1.7,2.3,4.7,3.2,6,5.8c2.5,2,4.7,14.6,0.7,15l0,0   c0.7-2.1-6.3-3.2-7.7-4.4c-10.8,1.1-17.7,11.3-28.5,11.2c-21.9-2.4-45.5-3.3-65-15.3c3.6-0.7,7.1,0.6,10.4-0.8   c3.8,0.5,6.3-2.8,9.6-3.3c0.1-1.8-1.6-1.8-2.1-2.7c-2-3.8-5.7-4-9.2-4.5c-12.7-1.3-25.5-3.8-37.2-9.1c0.2-0.5,0.3-0.9,0.5-1.3   c14.4-4,25.1-15.3,32.5-27.8c12.7,10.7,29.2,14.6,43.4,23.1c7.2,2.7,14.7,9.2,22.4,4.6c0.8,0,1.7,0,2.5,0c0.8-0.5,1.6-1.1,2.5-1.6   C866.7,371.2,870.4,369.9,874.2,370.4z M811.1,387.4c-1.5-1.5-1.5-1.5-3,0C809.1,387.4,810,387.4,811.1,387.4z M816.8,386   c0,0.2,0,0.4,0,0.6c0.6,0,1.2-0.1,1.8-0.1c0-0.2,0-0.4,0-0.6C818,385.9,817.4,386,816.8,386z" />
	<path fill="#B28C7D" d="M130.1,362.7c-0.1-3.3,0.1-6.6,1.8-9.5c7.4-0.8,13.9-1.6,21.5-3c3.1-4.1,11-3.3,14.6-6.5l0,0   c1.3-0.6,1.1-1.4,0.2-2.5c-9.6-2-20.1,5.3-28.6,3.4c0.9-0.1,1-0.8,1-1.5c1.8-2.3,3.7-4.7,5.5-7c18.7-1.9,39.3-2,56.2-10.4   c19-11.4,44.2-17,65.4-9.2c0,0.7,0,1.4,0,2.4c16.2,14,36.2,23.9,49.8,40.5c-2.8,0.1-4.2-2.1-6-3.3c-1.2,0-2.2,0-3.3,0   c-0.4,0.9-0.9,1.8-1.2,2.5c1.2,1.8,2.3,3.5,3.3,5c-0.6,1.3-0.8,2.8-2.6,2.6c0.1-1.7-0.9-2-2.7-2.1c0.9,1.2,1.3,2.2,2.8,2.1   c-1,1.7-2.5,0.7-3.5,0.8c-3.4-3.3-8.2-3.7-11.2-6.7c1.4-0.4,2.8-0.7,4.1-1.1c1-1.4,3.1-2.2,3.2-4.1c-9.5-5.5-20-1.6-30-1.2   c5.8-4.7,23.6-5.5,20-14.8c-5.4-0.9-11.3,2.9-16.9,2.9c-9.1,2.3-16.1,10.3-26.1,8.8l0,0c-2.2-2.1-6.6-0.3-9.5-0.8l0,0   c-14.3-5.2-29.2-11.3-44.5-13.5c3,8.1,12.1,10.5,19.1,15.1C183.8,350.3,157.3,354.5,130.1,362.7z" />
	<path fill="#B1B6B7" d="M121.7,310c9.5,14.1,20,9,22.5,22.7c-2.6,4-4.5,9.7-9.9,11.3c-8.5,2.9-19.8,11.6-17,21.6   c0.4,2.1,1.9,4.8-0.2,6.5c1,1.3,1.8,2.5,2.7,3.6c-1.5,2.2-4,2.8-6.3,4.2c-19.7-21.5-48.4-11.7-67.7,5.2c-4-0.5-8.2-0.9-11.9-3   c-0.1-0.6-0.2-1-0.3-1.4l0,0c17.7-8.1,33.7-23.8,44.9-39.6c11.8-5,22.6-10.1,32.1-18.8C115.1,318.8,115.5,311.7,121.7,310z" />
	<path fill="#977264" d="M114.8,247.9c15.8,5.9,34.4,3.3,50.4,10.6c26,14.5,54.4,25.2,80.8,39.1c16.7,7.1,37.1,1.8,53.1,11.3   c-3.2,2.1-4.7,2.7-7.4,2.7c-4.1-0.6-8.8,3-12.4,1c0.8-0.1,1.6-0.2,2.5-0.3c-0.9-1.5-1.9-1.8-3.2-1c0,0.4-0.1,0.8-0.1,1.2   c-0.5,0.1-1,0.3-1.9,0.5c6.6,7.3,17.4,9.5,24.3,16.7c0,2.4-0.5,6.9,3.3,5.7c-0.3-1.2-0.5-2.2-0.7-3.1c0.5-0.1,1-0.2,1.7-0.4   c-0.7-1.7-1.4-3.1-3.2-3.9c-0.1,0.8-0.2,1.3-0.3,1.8c-0.3,0-0.5,0-0.8,0c0-1.5,0.1-3-0.9-4.3c1.8-0.8-0.3-3.1-1.7-2.6   c0-1,0-2,0-3.3c8.9,0,9.6,12.1,16.1,16.3c10.1,11.7,26,15,40,20.2c0-1.9,0-3.4,0-5c1.4,9.4,4.9,18.9,4.7,28.4   c-21.7-7.5-39.9-21.3-55.2-38c0.1-0.7,0.1-1.3,0.2-2c-15.8-5.6-27.4-17.2-39.4-27.9l0,0c0-0.3,0-0.6-0.1-0.9   c3.5-0.1,8.7,3.5,11.2,0.5c-3.5-1.8-7.6-2.5-11.9-2c0.3,0.6,0.5,1.1,0.8,1.6c-54.3-17.9-103.1-52.1-161.2-59   c0.4-3.1-0.9-6.7,0.7-9.2c0.1,1,0.1,1.9,0.2,2.9C107.9,246.2,111.6,246.6,114.8,247.9c-1.6,0.1-3.3-0.4-4.9,0.4   C111,250.3,114.4,249.9,114.8,247.9z M314.3,343.1c1.1-2-6.4-9.1-8.7-8.8C308.2,338.1,310.9,340.7,314.3,343.1z M121.9,251.8   c1.3,0.8,2.4,0.8,3.7,0C124.3,251,123.1,251,121.9,251.8z" />
	<path fill="#977264" d="M130.1,362.7c27.2-8.1,53.7-12.4,82.4-11.2c-7-4.6-16.1-7-19.1-15.1c15.3,2.1,30.2,8.3,44.5,13.5   c-1.4,0.1-3.1-0.5-4.1,1.4c1.5,1.6,2.8,0.6,4.1-0.2c0-0.4,0-0.9,0-1.3c3,0.5,7.3-1.3,9.5,0.8c-1.3,0.1-2.8-0.6-4,0.5   c1,1.3,1,1.3,3.8,0.7c0.1-0.4,0.1-0.8,0.2-1.2c10.1,1.5,17.1-6.4,26.1-8.8c5.7,0,11.6-3.8,16.9-2.9c3.6,9.2-14.2,10.1-20,14.8   c10-0.4,20.5-4.3,30,1.2c-0.1,1.8-2.2,2.6-3.2,4.1c-0.1-0.5-0.1-1-0.2-1.7c-2,0.7-4,0.5-5.7,2.4c0.8,0.2,1.2,0.3,1.7,0.4   c3,3.1,7.8,3.5,11.2,6.7c1-0.1,2.5,0.9,3.5-0.8l0,0c1.8,0.1,1.9-1.3,2.6-2.6c-1-1.5-2.1-3.2-3.3-5c0.4-0.8,0.8-1.6,1.2-2.5   c1.1,0,2.1,0,3.3,0c1.8,1.2,3.2,3.4,6,3.3c11.8,11,27.3,17.2,41.8,24c0,0.6,0,1.1,0,1.7c-17.4-1.8-34.2-6.6-48.7-16.1   c-0.2,1.6,1.7,2,1.7,3.4c-10.2,2.1-17.9-6.6-27.7-7c-11.7-2.4-23.6-0.8-35.4,0.1c-22.2-0.3-44.3-7.7-66.6-4.4   c-17.8-0.8-34.6,5.5-52,8.1C129.9,366.6,130.1,364.6,130.1,362.7z M277.6,347c-4.6-3.5-24.1,4.8-24.1,5.8   C261.8,353.7,269.5,349,277.6,347z M282.4,360.7c2.3-0.2,5,1.3,7.3-1.4C286.8,359.3,284.4,358.4,282.4,360.7z M226.7,350   c-1.5-0.2-2.5-0.8-3.5,0.7C225.8,351.5,225.8,351.5,226.7,350z M165.8,358.8c1.7,0.9,2.5-0.3,4-1.1   C167.9,357.3,166.7,357.3,165.8,358.8z M218.2,349.4c1,0.6,1.6,0.4,2.7,0C219.2,347.7,219.2,347.7,218.2,349.4z" />
	<path fill="#B28C7D" d="M795.8,316c2.8-3.1,6.5-3.7,10.4-3.4c0.6,1.4,1.5,2.4,3.4,2.7c1.1-0.8,2.3-1.7,3.5-2.6c-0.7-4.5,2-8,6-9.7   c3.9,5.1-4.3,14.5,9.9,8.3c5.7,6.5,13.7-1.2,13.5-8c0.2,0,0.4,0,0.7,0c1.3,5.8-1,11.9-6.7,14.3c0.2,0.5,0.4,0.9,0.8,1.7   c-0.9,3-0.8,6.4,1.9,9.2c4.2,10.1,8.6,14.1,20.1,15c4.2,0.2,6.5-3.5,10.9-2c1.4,2.2,3,4.5,4.7,7.1c-0.3,0.6-0.8,1.4-1.3,2.2   c-1.7,0.3-0.6,2-1.4,2.9c-3.6-1-7.1,2.5-10.6,3c-6.7-0.1-14.9,7-20.9,1.9c0-2,0.5-4.9-1.9-6.2c-1.3,4.3-0.9,8.3-4.2,12   c-1.7-0.9-3.3-1.7-4.9-2.5c-1.2-2.6,0.6-8.7-3.1-8.5c-0.7,2-1.4,3.8-3.1,5.4c-8.7-7-40.6-11.2-32.1-27   C789.9,319.2,794.8,323.6,795.8,316z" />
	<path fill="#977264" d="M759.6,373c-0.1,0.4-0.3,0.8-0.5,1.3c11.7,5.3,24.4,7.8,37.2,9.1c3.4,0.4,7.2,0.7,9.2,4.5   c0.5,1,2.2,0.9,2.1,2.7c-3.3,0.5-5.8,3.8-9.6,3.3c-3.3,1.4-6.8,0.2-10.4,0.8c19.5,12,43.2,12.9,65,15.3   c12.6,0.7,22.1-16.8,34.8-8.5c-1.5,2.2-1.2,4.3,0.1,6.4c1.6-1.4,1.4-3.1,1.4-4.8c2.2,0.1,1.6-1.6,1.9-2.8c1.2,2.1,0.3,4.5,0.9,6.7   c0.8,2.7,2.1,5.1,1.6,8c-19.1,6.5-39.3-0.2-58.9,0.2c-39.4,1.3-66.8-12-94.3-39.3C746.4,373.7,753.1,374.6,759.6,373z M777.2,388   c1.6,4.5,16.4,5.7,19.5,1.9C790.1,389.6,783.7,388.1,777.2,388z M799.5,390c1.9,0.8,4,0.3,4.9-1.6C802,387.6,801.3,387.9,799.5,390   z M883.8,406.2c-0.2,0-0.3-0.1-0.5-0.1c-0.4,0.8-0.8,1.6-1.2,2.4c0.6,0.2,0.9,0.3,1.5,0.5C883.7,408,883.7,407.1,883.8,406.2z" />
	<path fill="#B28C7D" d="M782.9,319.5c-4.2-11.6-27.9-15.5-17.9-29.8c15.8,3,32.8,1,47.6-5.4c1.5-0.5,3.7-2.1,4.6,0   c-0.5,0.1-0.9,0.2-1.4,0.3c-0.6,1.1-0.1,1.9,1.1,2.6c0.5-0.2,1.1-0.5,1.7-0.8c1.2,0.8,1.1,2.4,1.9,3.8c1.8,0.1,3.5-0.5,4.7,1   c-8.8,2.7-16.6,9.5-18.9,19c-4.7-0.2-8.7,1.1-12.3,4.2c-1,0-1.9,0.1-2.7,0.1C788.6,316.7,785.9,318.4,782.9,319.5z M787.3,307.8   c2.6,1.6,2.6,1.6,7.1,0C793.2,306.9,793.2,306.9,787.3,307.8z M783.4,307c-1.2-0.9-2.3-0.6-3.5,0.1   C781.1,307.8,782.2,308,783.4,307z" />
	<path fill="#9AA0A1" d="M121.7,310c-6.2,1.7-6.6,8.8-11.1,12.4c-6.7,4-11.1,11.4-19.3,12.6c10.2-7.4,19.9-17.8,26.2-28.4   c-5.5,2.2-7.6,8.7-11.4,12.9c-7.4,8.5-17.6,16.1-28.5,19c0.1-0.2,0.2-0.5,0.3-0.7c0.6,0.1,1.1-0.6,1.6-0.9l0,0   C86.2,329.2,113.8,288.3,121.7,310z" />
	<path fill="#9AA1A2" d="M77.6,338.5c0.4,0,0.7,0.1,1.1,0.1c-6.6,7.2-11.4,16.2-19.8,21.9c-6.3,7.1-18.6,12.6-22.6,19.6   c-0.7,1-1.8,0.6-2.7,0.6c6.3-21.1,22.8-35.3,43.2-42.3C77,338.4,77.3,338.5,77.6,338.5z" />
	<path fill="#9BA0A1" d="M33.6,380.7c0.1,0.4,0.2,0.8,0.3,1.4c3.7,2.1,7.9,2.5,11.9,3c15.1-12.1,35.3-23.7,54.3-14.7   c-0.8,0-1.4,0-2.2,0c-1.3,2.5,0.3,4.9,0.5,7.5c-2.1,0.4-3.5-0.7-5.4-0.7c-1.5-3-0.2-8.2-4.5-8.2c-1.4,2.4,0.3,4.7,0.4,7.1   c-1.5,0.9-3,0.2-4.5,0.3c-1.2-4.2-5.7-5.6-3.2-0.1c-0.5,0.7-0.9,1.3-1.4,2c-0.8-1.2-1.4-2.2-2.1-3.3c-1.4,0.8-0.4,2-1.1,2.9   c-1.6,1.2-2.6-1.3-3.8-2.5c-0.6,1.2-1,2.1-1.5,3.2c-10.5,2.2-21.7,5.2-29.4,13.3c-4.3-0.5-8-2.1-11.5-4.9   C31.3,384.9,32.1,382.6,33.6,380.7z" />
	<path fill="#977164" d="M839.8,353.2c1.4,1.4,0.7,3.8,0.8,5.3c6.1,5.1,14.2-2,20.9-1.9c3.5-0.5,7-4,10.6-3c0.8-0.9-0.3-2.5,1.4-2.9   c-0.1,1.4-0.2,2.8-0.3,4.2c-8.1,9.4-24.3,14.6-35.8,10.6C839.8,361.7,840.3,357.5,839.8,353.2z" />
	<path fill="#967264" d="M168.1,343.6c-3.7,3.3-11.6,2.5-14.6,6.5c-7.6,1.4-14.1,2.2-21.5,3c0.4-2.4,1.4-4.5,3.1-6.6   c1.6-0.2,3.3-0.7,4.6-2.1c8.6,1.9,19-5.4,28.6-3.4C169.1,342.2,169.4,343,168.1,343.6c-0.9-1.4-1.8-1.1-3.3-0.2   C166.3,343.9,166.7,343.8,168.1,343.6z M148.9,347.9c-3.9-0.2-6.8,0.7-10.7,1.3c-0.1,0.6-0.1,1.1-0.2,1.6   C140.5,351.9,148.1,350.9,148.9,347.9z M153.9,345.9c2.4,0.4,4.1,0.9,5.4-1.1C156.3,344.4,156.3,344.4,153.9,345.9z" />
	<path fill="#999FA0" d="M99.2,370.4c5.5,1.4,10.1,5.6,14.3,9.5c2.3-1.4,4.8-2.1,6.3-4.2c1.7,0.5,4.5,1.6,5-1   c-0.6-1.8-3.3,0-3.6-2.3c2.7,0,5.3,0,8.2,0c-0.1,1.9-0.4,3.3-1.1,5c-5.9,1.4-10.8,3.5-16.3,5.9C105,381.6,100.3,377.7,99.2,370.4z" />
	<path fill="#9AA0A1" d="M79.4,239.4c1.6,2.6,0.6,5.7,0.8,8.8c6.1,3.9,13.6,8.2,20.7,5c1,0.5,2,1,3.2,1.7c-1.4,5.7-7.4,2.2-10.9,4.5   c-4.5,2.2-9.6-1.3-12.9-4.4C78.9,249.6,79.2,244.5,79.4,239.4z" />
	<path fill="#FAFAFA" d="M110.9,225.7c1.5,0.3,3.2,0.6,4.9,1c-7,5.3-16.7,10.8-16,21.2c-2.5-1.5-3.2-5.6-5.1-8.1   C98,232.9,103.4,228.5,110.9,225.7z" />
	<path fill="#957164" d="M857.9,372.9c-4.5,2.7-9.6,1.8-13.8-0.8c1.5-0.1,3.1-0.2,4.7-0.3c-0.3-0.8-0.5-1.4-0.8-2.1   c7.2-1.1,13.7-3.2,20.2-6.4c2.6,1.8,4.2,4.5,6,7c-3.8-0.5-7.5,0.8-11.3,1c-0.8,0.5-1.6,1.1-2.5,1.6c0-2.2-1.7-1.9-3.7-2.8   C857.4,371.6,857.6,372.2,857.9,372.9z M855.1,371.6c-2.9-1.7-3.2-1.7-4.7-0.2C853,373.1,853,373.1,855.1,371.6z" />
	<path fill="#AC887A" d="M821.1,301.5c1.3-1,2.6-1.9,3.9-2.9c4.6,3.7,10.7,0.4,15.5,4.2c-0.1,4.8-1.9,7.3-6.7,9   c-1.7-0.4-2.7-2.3-4.1-3.4c-2.3,0.8-4.5,1.6-7.2,2.5c0.1-1.4,0.2-2.3,0.2-3.3c0.8,0.2,1.6,0.5,2.1,0.6c2.5-0.7,2.8-3.2,4.3-4.3   c1.6,0.4,3.1,0.8,4.5,1.1c0.2,1.5,0.4,2.7,0.6,4c3.8,0.4,1.8-5.6-0.1-6.8c-8.7-0.7-5.2,1.2-10.3,3.9   C822.8,304.7,821.9,303.2,821.1,301.5z" />
	<path fill="#110D0B" d="M821.1,301.5c2.1,2.9,1.6,5.9,1.4,9.5c2.6-0.9,4.8-1.7,7.2-2.5c1.4,1.1,2.4,3,4.1,3.4   c4.7-1.7,6.6-4.3,6.7-9c-4.2-3.4-9.4-1.1-13.7-3.1c0.2-0.5,0.3-1,0.5-1.6c1.8-0.1,3.5,0.5,4.7-0.9c1.5,0,3.2-0.5,4.4,0.8   c-0.9,1.8,5.8,2.5,6.2,5.3c0.2,6.9-7.8,14.5-13.5,8c-14.2,6.2-6-3.2-9.9-8.3C819.5,302.2,820.1,301.5,821.1,301.5z" />
	<path fill="#977264" d="M112.9,232.4c6.3,4.2,13.6,4.7,21,8.4c-9.8,3-17.8-0.5-26.8-3.1C108.5,235.3,110.2,233.4,112.9,232.4z" />
	<path fill="#967163" d="M806.2,310.1c2.3-9.5,10.1-16.2,18.9-19c1.5,0.5,2.2,1.6,2.4,3.2c-4.7,2.6-8.4,6.8-13.5,8.3   c-1.5,2.6-2.8,4.9-4.4,7.5C808.7,310.1,807.4,310.1,806.2,310.1z" />
	<path fill="#F8F9F9" d="M119.1,362.5c1.3-6.9,6.2-9.5,11-14c-2.3,7.1-5.3,12.9-3.7,20.5c-1.6,0.8-3.3,0.4-5,0.7   C119.6,367.4,120,364.7,119.1,362.5z" />
	<path fill="#967163" d="M782.9,319.5c3-1.1,5.7-2.8,8.3-5.1c0.7,0,1.7-0.1,2.7-0.1c-0.3,1.3-2,2-1.3,3.9c1.1-0.8,2.1-1.5,3.1-2.2   c0.7,3.3-2.6,4.6-4.2,7c-0.2-0.6,0-1.5-1.1-1.5c-0.6,1.3-0.6,1.3-0.2,2.8c0.4-0.2,0.8-0.4,1.1-0.6c0,2.6,0,5.1,0,8   c-0.7,1.2-2,2.5-1.7,4.4C788.1,330.3,785.8,324.8,782.9,319.5z M789.7,327.5c-0.1-0.2-0.2-0.4-0.3-0.7c-0.5,0.1-0.3,0.5-0.3,0.9   C789.3,327.6,789.5,327.5,789.7,327.5z" />
	<path fill="#977264" d="M355.3,316.1c-3.7-1.4-20-11.3-18.6-15.2c1.5,0.9,1.9,3,3.7,3c6.1,0.6,10.4,4.9,15.6,7.1   C355.9,312.6,356.5,314.5,355.3,316.1z" />
	<path fill="#6B5AA6" d="M547.7,316c-1-0.1-1-0.9-1-1.6c2.8,0.2,5.7-0.4,8.3,1c0.4,0.8,0.7,1.6,1.1,2.3c-2.9,0.8-6-2.5-8.5,0.2   C547.6,317.2,547.6,316.6,547.7,316c0.7-0.1,1.4-0.1,2.5-0.1C548.9,314.9,548.2,315.1,547.7,316z" />
	<path fill="#302A5A" d="M521.6,400.5c0.6-0.5,1.2-1,1.8-1.6c2.7,1.9,5.6-0.3,8.6,0c-1,1.8-1.8,3.7-3.6,5c-0.1-0.4-0.1-0.8-0.2-1.1   c-1.2-1-3.1,0.2-4.1-1.2c1-0.1,2-0.3,3-0.4c0-0.2,0-0.3-0.1-0.5C525.2,400.6,523.4,400.5,521.6,400.5z" />
	<path fill="#1C0F1C" d="M547.5,317.9c2.5-2.7,5.6,0.6,8.5-0.2c-0.4,1-0.6,2.1-1.7,2.7c-0.1-0.5-0.2-1-0.3-1.7c-2.1,0-3.9,0-5.7,0   C548.1,318.4,547.8,318.2,547.5,317.9z" />
	<path fill="#69564D" d="M842.5,303.2c-0.4-2.8-7.1-3.5-6.2-5.3c3,0.2,7,1.6,6.8,5.3C843,303.2,842.7,303.2,842.5,303.2z" />
	<path fill="#8A7163" d="M813.1,312.7c-1.2,0.9-2.5,1.8-3.5,2.6c-1.9-0.3-2.8-1.3-3.4-2.7C808.5,312.6,810.8,312.7,813.1,312.7z" />
	<path fill="#231A2F" d="M549.9,362.5c0.1-0.8,0.2-1.7,0.2-2.5c-1.5-1.8-3.6-1.5-5.6-1.9c1.7-1.9,4.2-0.4,6.4-0.7   C550.6,359,551.9,361.9,549.9,362.5z" />
	<path fill="#3A2E53" d="M548.4,368.7c-0.1-0.4-0.2-0.8-0.3-1.5c-1.5-0.5-3-1-4.7-1.6c0.2-0.4,0.3-0.7,0.5-1.2   c1.9,0.2,3.6,1,5.3,1.7C549.2,367,549.5,368.1,548.4,368.7z" />
	<path fill="#1E1120" d="M543.1,379c-0.1-0.4-0.1-0.8-0.2-1.4c-1.3-0.1-2.7-0.2-4-0.3c0-0.5,0-1,0-1.5c1.4,0,2.7-0.1,4.1-0.1   c0.4,0.8,1,0.8,1.7,0.6C544.4,377.3,544.3,378.4,543.1,379z" />
	<path fill="#190D1C" d="M519,404c2.6-1.9,6.4,0.1,9.5,0c-0.6,0.6-1.1,1.2-1.7,1.7C525,404.2,521.5,404,519,404z" />
	<path fill="#2E254F" d="M519,404c2.5,0,6,0.1,7.8,1.7c-2.1,0.1-4.1,0.2-6.1-0.7c-1.3-0.6-3.1,0.5-4.2-1   C517.3,404,518.2,404,519,404z" />
	<path fill="#3F2C27" d="M825.2,356.7c0.5-1.1,0.9-2.3,1.3-3.3c1.5-0.3,2,0.3,2,1.6c-1,0.3-0.8,1.2-1,1.9c-0.5,0.2-1,0.5-1.5,0.7   C825.8,357.2,825.5,356.9,825.2,356.7z" />
	<path fill="#746A5E" d="M831.9,297.2c-1.2,1.5-2.9,0.8-4.7,0.9c-0.2,0.7-0.4,1.2-0.5,1.6c-0.6-0.4-1.2-0.7-1.8-1.1   c1.1-0.8,2.1-1.7,2.9-2.2C829.5,296.7,830.7,296.9,831.9,297.2z" />
	<path fill="#4D4B8A" d="M548.4,318.7c1.8,0,3.7,0,5.7,0c0.1,0.7,0.2,1.2,0.3,1.7C552.1,320.5,550.1,320.2,548.4,318.7z" />
	<path fill="#1A111F" d="M551.9,338.4c-1.6-0.3-3.2-0.6-4.9-0.9c0.5-2.4,3.8-0.6,5.6-1C552.3,337.2,552.1,337.8,551.9,338.4z" />
	<path fill="#766257" d="M821.2,282.9c-1,1.5-3.1,1.7-2.9-0.2C819.1,281,820,281.9,821.2,282.9z" />
	<path fill="#747271" d="M826.1,357.5c0.5-0.2,1-0.5,1.5-0.7c0,0.9,0.1,1.8,0.1,2.8C825.8,359.6,825.8,358.7,826.1,357.5z" />
	<path fill="#1F1F1F" d="M882.1,292.2c-0.7-0.7-1.1-1-1.9-1.8c1.4,0,2.2,0,3.4,0C883.1,291.1,882.8,291.5,882.1,292.2z" />
	<path fill="#292E2E" d="M890.8,318.7c0.4,1.9-0.3,2-1.6,1.3C889.8,319.5,890.3,319.1,890.8,318.7z" />
	<path fill="#110D0B" d="M839.8,298.8c-0.6-0.2-1.2-0.5-1.9-0.7C838.7,298,839.4,297.9,839.8,298.8z" />
	<path fill="#967264" d="M140.6,342.9c0,0.7-0.1,1.4-1,1.5C139.9,344,140.3,343.4,140.6,342.9z" />
	<path fill="#544492" d="M544.8,376.3c-0.7,0.2-1.4,0.2-1.7-0.6c0.6,0,1.1-0.1,1.7-0.1C544.8,375.8,544.8,376,544.8,376.3z" />
	<path fill="#130F0F" d="M80.3,336c-0.3,0.3-0.6,0.6-0.9,0.9C79.7,336.6,80,336.3,80.3,336z" />
	<path fill="#130F0F" d="M77.6,338.5c-0.3,0-0.5,0-0.8-0.1c0.4-0.2,0.7-0.4,1.1-0.6C77.8,338,77.7,338.2,77.6,338.5z" />
	<path fill="#271B18" d="M264.7,311.8c0.3,0.3,0.7,0.5,1,0.8C265.4,312.3,265.1,312,264.7,311.8z" />
	<path fill="#271B18" d="M263.8,311c0.3,0,0.6-0.1,0.9-0.1l-0.1-0.1c0,0.3,0,0.6,0.1,0.9C264.4,311.5,264.1,311.3,263.8,311z" />
	<path fill="#130F0F" d="M79.5,336.9c-0.3,0.2-0.7,0.5-1,0.7C78.8,337.4,79.1,337.1,79.5,336.9z" />
	<path fill="#9BA0A1" d="M5,240c1.5,2.5,4.6,3.2,7,4.5c3.6-1.8,6.8-4.8,11-4.2c1.5,0.2,2.8-0.3,4.1-1c9.4-5.2,20.8-0.4,30.7-3.2   c-2.6,2.1-2.1,5.4-3,8.5c-0.6,0-1.3-0.1-2.2-0.1c-0.1-1.9-0.1-3.7-0.2-5.7c-2.5,0.9-1.9,3.3-3.1,4.9c-19.4-7.8-34.7,12.9-45.6,4   C3.1,244.9,3.3,242.4,5,240z" />
	<path fill="#8B9091" d="M65.4,239.1c0.2,1.7,1.3,2.4,2.9,2.6c1.5-1-0.2-3.2,1.5-4.1c-0.3,3.7,0.2,6.9,0.6,10.8   c-2-0.5-3.8-1.6-5.6-2.5C64.6,243.5,64.2,241.3,65.4,239.1z" />
	<path fill="#8F9596" d="M59.6,237.6c0.6,0.3,1.2,0.6,1.8,1c-0.1,1.8-0.2,3.7-0.3,5.4c-1,0.9-1.9,0.7-2.9,0.1   C58.6,242,59.1,239.8,59.6,237.6z" />
	<path fill="#302B2C" d="M655.1,370.5c-1,3.1-3.3,5-6.3,7.3C648.7,374.1,651.5,370.7,655.1,370.5z" />
	<path fill="#373536" d="M614.1,313.8c3.6-3.4,4.7-3.7,6.3-2.3C618.8,312.7,617,313.3,614.1,313.8z" />
	<path fill="#423537" d="M585.7,321.7c-1.7,1.4-3.3,1.7-5.1,1.3C581.6,320.6,583,320.2,585.7,321.7z" />
	<path fill="#453E40" d="M604.2,316.9c2.1-2.9,4.4-3.1,7.7-2.2C609.1,315.5,607,316.3,604.2,316.9z" />
	<path fill="#3C3133" d="M717.1,343.8c0.5,1,0.9,1.9,1.5,3.2c-2.5-0.7-4.6-2.7-3-4.2C716.1,343.1,716.6,343.4,717.1,343.8z" />
	<path fill="#2A3133" d="M615.6,384.2c0.4,0.4,0.8,0.8,1.2,1.1c-2.7,0.9-3,0.9-4.7-0.3C613.2,384.2,614.4,384.2,615.6,384.2z" />
	<path fill="#4C3C3D" d="M733.6,298.3c1.8-1.4,1.8-1.4,3.9,0C736,298.9,736,298.9,733.6,298.3z" />
	<path fill="#2D2223" d="M744.5,299.5c-2.3,0.3-2.3,0.3-3.5-0.9C742.7,298.3,742.7,298.3,744.5,299.5z" />
	<path fill="#382526" d="M591.8,320.6c1.9-2.6,3.6-2.3,6.1-1.5C595.8,319.6,594.3,320,591.8,320.6z" />
	<path fill="#2C2325" d="M634,373.6c0.3-1.3,0.7-2.2,2.2-2.4C635.8,373.5,635.8,373.5,634,373.6z" />
	<path fill="#362C2E" d="M683.8,363.5c1.6-2,3.9,1.1,1.7,1.7C684.9,364.6,684.3,364.1,683.8,363.5z" />
	<path fill="#6E595C" d="M623.2,309.2c0.2,0.1,0.5,0.2,0.7,0.3c-0.3,0.6-0.6,0.5-1.1,0.2C622.9,309.5,623.1,309.4,623.2,309.2z" />
	<path fill="#544492" d="M495.8,312.7c3.7,4.3,8.7,6.5,12.8,10.5c1.3,14.9-15.3,1.3-22.6,4.7c-3.6,0.9-8.1-0.9-11.4-2.8   c-5.1,2.8-8.1,1.7-7.3-4.6C473.9,312.7,486.4,313.6,495.8,312.7z" />
	<path fill="#554592" d="M538.9,363.5c-8.9-0.4-19.7,0.5-27.4-4c8.6-4.5,18.9-2.2,28.3-2C539.9,359.6,539.5,361.6,538.9,363.5z" />
	<path fill="#554492" d="M529.4,336.8c-3.1-1.1-11.5-0.3-10.9-4.8c5.3-2.2,21.1-1.5,22.8,4.9c-1.6,2-3.8,1.6-5.9,1.6   c0.1-0.5,0.3-1,0.4-1.5C533.7,337,530.8,334.8,529.4,336.8z" />
	<path fill="#1F162F" d="M381.9,359.2c11,13.2,23.5,25,36,36.7c-9.8-4-17.1-15.5-25.6-22.6c-7.6-9.4-19.7-18.2-23.8-29.2   C373,349.2,377.2,354.5,381.9,359.2z" />
	<path fill="#0A070D" d="M519.9,374.8c-9,1.5-16.7,7.6-25.5,9c10.8-7.7,24.9-13.2,38-12.7C529.5,374,523.9,373.3,519.9,374.8z" />
	<path fill="#564692" d="M438.8,324.7c-2.1,1.6-2,4-2.7,6.5c-2.7-3.9-2.7-18,1-21.2c0.3,0,0.6,0,0.9,0c1.6,3.5,1,7.4,0,10.9   c0.4,1.5,1.3,2.1,2.6,2.1C440,323.6,439.4,324.2,438.8,324.7z" />
	<path fill="#544591" d="M430.2,309.1c1,7.1-2.1,13.1-3.9,19.8c-1.1-1.3-1.1-1.3-1.3-6.2c-0.6-0.3-1.4-0.6-2.1-1   c-0.3-0.7,0-1,0.6-1.3C426.3,320.4,428.2,311.9,430.2,309.1z" />
	<path fill="#201525" d="M400.1,331.5c-2-0.3-4-0.6-6-0.9c-1.2-1.6-2.3-0.3-3.4,0c-6.5-3.2-14.1-2.9-21.1-4.4   c2.2-2.8,13.9,1.7,18.2,1.4c0.2-0.3,0.4-0.6,0.5-0.8c3.5,2.6,7.9,2,11.9,3.7C400.1,330.9,400.1,331.2,400.1,331.5z" />
	<path fill="#271F38" d="M438.8,324.7c1.6-1.5,3.2-3.1,3.5-5.2c1.3-0.7,0.8-1.8,0.7-2.9c-0.6,0.1-1.4,1-1.7,0.3   c0.3-0.9,0.6-1.8,0.9-2.7c0.3,0.1,0.5,0.2,1,0.4c0-3.5,0-6.8,0-10c0.5-0.5,1.1-0.9,1.4-1.4c0.4-0.7-0.2-1.7,1-2.4   C445.5,306.7,446.2,324.5,438.8,324.7z" />
	<path fill="#403665" d="M538.9,363.5c0.7-2,1-4,0.9-6c0.3-0.3,0.5-0.6,0.8-0.9c1.4-8.2,2.8-16.4,4.9-24.5   C545.5,339.3,543,358.3,538.9,363.5L538.9,363.5z" />
	<path fill="#211C32" d="M482.3,362.5c-3.2-0.1,4.4-19.6,4.4-23.5C487.8,347.3,484.6,354.7,482.3,362.5z" />
	<path fill="#0C0A11" d="M498.5,350.7c-0.3,3-0.5,6.1-2.5,9.2c-0.4-3.5-0.2-6.5,0.7-9.6c-1-0.4-1.9-0.7-3.1-1.1   c1.1-0.3,1.9-0.5,3-0.7c0.7-1.9-0.2-5.5,1.8-6.5c0.2,0.3,0.5,0.6,0.7,0.8c0,1.1,0,2.3,0.1,3.4C498,347.5,498.5,349.2,498.5,350.7z" />
	<path fill="#241A31" d="M498.5,350.7c0-1.6-0.5-3.2,0.6-4.5c0.7,7.3,17.4,2.3,22.7,5.1C513.9,352.3,506.4,351.7,498.5,350.7z" />
	<path fill="#130F1E" d="M430.2,309.1c-2,2.8-3.9,11.2-6.8,11.3c1.9-5.6,4.6-10.9,7.1-16.7C431.9,306.1,430.2,307.5,430.2,309.1z" />
	<path fill="#221C33" d="M438.8,335c0-1.8,0-3.7,0-6.2c1.7,2.5,1.6,4.8,2,6.9c0.6,0.6,1.3,1.1,1.9,1.6c-0.4,0.3-0.7,0.5-1.1,0.9   c-0.3,2.3,1.9,4.3,1.2,7.6C441.3,341.6,439.1,339.1,438.8,335z" />
	<path fill="#1C182A" d="M428.6,335.2c-0.1,1.5-0.2,3-0.3,4.6c-3-1,0.4-4.1-1.7-6c2.1-3.1,1.1-7.4,3.4-10.7c1.5,2-0.8,5.8-0.7,8.5   C427.9,332.6,428.7,334,428.6,335.2z" />
	<path fill="#0B060C" d="M514,352.2c6.4-1.7,12.8-0.7,19.7-1.6C528,354.4,520.4,351.3,514,352.2z" />
	<path fill="#383157" d="M390.6,330.7c1.1-0.4,2.3-1.6,3.4,0c-0.4,0.1-0.8,0.2-1.5,0.4c2.3,3.5,5.1,6.4,6.5,10.1   c-0.3,0.3-0.3,0.4-0.4,0.4C395.7,338.4,393.4,334.2,390.6,330.7z" />
	<path fill="#392E54" d="M428.6,335.2c0.1-1.2-0.7-2.6,0.6-3.6c0.1,0.4,0.2,0.8,0.3,1.4c2.8,1.6,6.2,1.1,9.2,2c0,0.6,0,1.1,0.1,1.7   C435.5,335.9,432.2,334.6,428.6,335.2z" />
	<path fill="#564693" d="M538.9,363.5c2.2-0.8,1.7-3.5,2.6-5.2c1.8,0.8,1.9,2.2,1.5,3.9c-1.4,1.2-2.8,2.4-4.4,3.9   C538.7,365.1,538.8,364.3,538.9,363.5z" />
	<path fill="#22192C" d="M520.1,345.3c-3.6,0.2-6.2-0.8-9-3.3C514.8,342.1,517.5,342.8,520.1,345.3z" />
	<path fill="#120F1C" d="M443.3,304.7c0,3.2,0,6.5,0,10c-0.5-0.2-0.8-0.3-1-0.4c-0.1-4.4-0.1-8.9-0.2-13.7   C443.7,301.8,443.1,303.4,443.3,304.7z" />
	<path fill="#2F294A" d="M404.3,330.9c2-0.1,3.9-0.5,5.8,0.3c-1,2.5-6.1,1.4-8.5,0.6C402.5,331.4,403.7,332,404.3,330.9z" />
	<path fill="#4B3D71" d="M456.8,342.8c3.7,0.4,6.4,1.7,9.5,2.9C464,346.1,460.5,345,456.8,342.8z" />
	<path fill="#1C162A" d="M529.4,336.8c1.4-1.9,4.3,0.3,6.4,0.3c-0.1,0.4-0.3,0.9-0.4,1.5C533.2,338.7,531.3,337.7,529.4,336.8z" />
	<path fill="#1A121E" d="M534.9,325.9c3.3-0.2,3.8,0,4.6,1.9C536.6,327.5,536.6,327.5,534.9,325.9z" />
	<path fill="#3F3562" d="M438,310c-0.3,0-0.6,0-0.9,0c0.1-1.9-0.3-4,1.4-5.6C439.7,306.5,438.2,308.2,438,310z" />
	<path fill="#564692" d="M441.3,316.9c0.3,0.7,1.2-0.2,1.7-0.3c0.1,1,0.6,2.2-0.7,2.9c-1.1-1.3-1.4,0.8-2.4,0.4   C439.8,318.7,440.5,317.8,441.3,316.9z" />
	<path fill="#3D325C" d="M536,373.2c0.7-2,1.2-3.2,1.5-4.2C540.1,368.8,538,373,536,373.2z" />
	<path fill="#180A11" d="M404.3,330.9c-1,1.3-2.8,0.7-4.2,0.7c0-0.3,0-0.6,0-1C401.5,330.7,402.9,330.8,404.3,330.9z" />
	<path d="M548.4,362.6c-1,0-2,0-3.4,0C546.8,361.9,546.8,361.9,548.4,362.6L548.4,362.6z" />
	<path fill="#332651" d="M539,375.8c0,0.5,0,1,0,1.5c-0.3,0-0.6,0-0.9,0.1l0,0c0-0.5,0.1-1.1,0.1-1.6   C538.4,375.6,538.7,375.7,539,375.8z" />
	<path fill="#544492" d="M512.1,374.7c-0.4,0.7-1,0.8-1.7,0.7C511,375.2,511.6,374.9,512.1,374.7z" />
	<path fill="#554592" d="M540.6,356.6c-0.3,0.3-0.5,0.6-0.8,0.9C540,357.2,540.3,356.9,540.6,356.6z" />
	<path fill="#241A31" d="M499.1,342.8c-0.2-0.3-0.5-0.6-0.7-0.8C498.6,342.3,498.8,342.6,499.1,342.8z" />
	<path fill="#564692" d="M441.4,322.1c-0.3,0.3-0.5,0.6-0.8,0.9C440.8,322.7,441.1,322.4,441.4,322.1z" />
	<path fill="#564692" d="M442.2,320.4c-0.2,0.3-0.5,0.6-0.7,1C441.7,321,442,320.7,442.2,320.4z" />
	<path fill="#544591" d="M424.1,318.7c-0.2,0.3-0.4,0.7-0.6,1C423.7,319.4,423.9,319,424.1,318.7z" />
	<path fill="#977264" d="M240.5,278.2c-1.8-1.3-3.6-4-6.1-2.7c-0.1-0.4-0.2-0.8-0.3-1.2c0.4-0.3,0.8-0.6,1.1-1   c-1.1-1.6-4.3-4.1-5.7-2.1c-3.1-1.1-3.8-4.7-7.1-5.3c-1.8-1.8-3.6-3.6-5.6-5.5c15.9,3.7,29.6,13.5,45.5,17c1.9,0.9,1.9,0.9,3.2,3.9   c-0.3,0.6-0.7,1.4-1,2.2c-4.9-1.2-9.3-2.5-14.4-3.4c0.3,0.8,0.5,1.2,0.6,1.6c-0.5,0.2-1,0.5-1.5,0.8c-1.8-1.1-3.6-2.1-5.4-3.2   c0.7-0.3,1.8-0.2,1.5-1.8c-1.5,0.2-2.8-1.4-4.8-0.7C240.6,277.2,240.6,277.7,240.5,278.2z" />
	<path fill="#110C0A" d="M250.9,281.6c-0.2-0.4-0.3-0.8-0.6-1.6c5,0.9,9.5,2.2,14.4,3.4l0,0c2.6,2.2,4,2.8,6.9,4.3   C266.5,290.2,256.6,282.9,250.9,281.6z" />
	<path fill="#1F1412" d="M318.9,292.1c3.8-0.5,5.8,1.6,8.3,4.8C323.3,296.2,321.5,294.8,318.9,292.1z" />
	<path fill="#291916" d="M229.4,271.2c1.4-2,4.7,0.6,5.7,2.1c-0.4,0.3-0.8,0.6-1.1,1c0.1,0.4,0.2,0.8,0.3,1.2   C231.1,275.6,231.6,272.8,229.4,271.2z" />
	<path fill="#53473F" d="M143,232.6c2,1.3,4.4,0.5,7.2,0.8c-1.5,1.4-2.2,2.1-3.9,1.6c-2.9-1.7-6.7,0.4-9.2-1.7   C139.1,233.1,141.4,234,143,232.6z" />
	<path fill="#1E1614" d="M240.5,278.2c0.1-0.5,0.2-1,0.2-1.5c2-0.8,3.3,0.9,4.8,0.7c0.2,1.6-0.8,1.5-1.5,1.8   C242.8,278.8,241.6,278.5,240.5,278.2z" />
	<path fill="#4F3D36" d="M222.4,265.9c2.1,0.3,3.2,1.9,4.2,3.6C225,269.2,221.4,267.7,222.4,265.9z" />
	<path fill="#120303" d="M143,232.6c-1.6,1.4-3.9,0.6-5.9,0.7C138,231.6,141.3,231.9,143,232.6z" />
	<path fill="#3B2621" d="M278.5,312.6c0-0.4,0.1-0.8,0.1-1.2c1.3-0.7,2.4-0.4,3.2,1C280.6,312.6,279.6,312.9,278.5,312.6z" />
	<path fill="#513F38" d="M298.4,323c1.4-0.5,3.5,1.7,1.7,2.6C299.5,324.7,298.9,323.9,298.4,323z" />
	<path fill="#382421" d="M157.2,235.8c-1,0-2,0-3.9,0C155.1,234.8,156.1,234.8,157.2,235.8z" />
	<path fill="#533630" d="M333.2,299.2c-0.3,0.7-0.6,0.4-1.1,0.1C332.4,298.8,332.8,299.1,333.2,299.2z" />
	<path fill="#977264" d="M265.6,284c-0.3-0.2-0.6-0.4-1-0.6C264.9,283.6,265.3,283.8,265.6,284z" />
	<path fill="#281E1F" d="M558.5,390.8c-1.2,3-12.6,5.5-15.8,4.5C547,392.5,553.1,391.6,558.5,390.8z" />
	<path fill="#2A2021" d="M649.3,396c-5.6,0.9-11.5-0.2-14.7-4.8C639.6,393,644.7,393.5,649.3,396z" />
	<path fill="#40383B" d="M740.6,359c-3.9,0.4-7.7-0.6-10.2-3.9C733.8,356.1,738.8,356,740.6,359z" />
	<path fill="#262223" d="M674.6,359.2c3.3-0.3,5.5,0.5,7.1,3C678.9,362.7,677.2,362,674.6,359.2z" />
	<path fill="#473A3D" d="M576.1,384.5c2.3-2,5.8-4.3,8.1-1.5C581.5,383.2,579,384.6,576.1,384.5z" />
	<path fill="#5C5559" d="M565.6,388.2c1.4-2,2.9-3.1,5.4-3C569.2,387.3,569.1,387.4,565.6,388.2z" />
	<path fill="#494346" d="M627.8,390.1c-2.7,0.4-4.3,0-5.4-2.1C625,388.1,625,388.1,627.8,390.1z" />
	<path fill="#1C1314" d="M722.5,349.9c1.2,0.7,2.5,1.1,3.4,2.3C723.7,352.5,723.7,352.5,722.5,349.9z" />
	<path fill="#1C1B1C" d="M649.4,378.6c-0.5,1.9-0.8,3-1.2,4.3C646.6,380.9,646.8,379.8,649.4,378.6z" />
	<path fill="#312955" d="M374.2,365.2c7.6,7.7,17.5,15,23,24.1C389.7,381.3,380,374.2,374.2,365.2L374.2,365.2z" />
	<path fill="#160E1E" d="M499.9,393.5c7.6-3.4,16.2-4.1,23.1-9.1c-2,6.8-16,7.1-22.2,9.9C500.6,394.1,500.2,393.8,499.9,393.5z" />
	<path fill="#151022" d="M532,379.9c-2.2,5.2-9.1,17.5-14.5,18.6C522.7,392.6,526.1,385.1,532,379.9L532,379.9z" />
	<path fill="#090305" d="M499.9,393.5c0.3,0.3,0.6,0.6,1,0.8c-1,0.3-2.2,0.5-2.8,1.7c2.4,0.1,4.7,0.2,7.1,0.3   c-4.1,1.8-8.8,0.5-13.4,1.1C490.2,394.7,498,393.9,499.9,393.5z" />
	<path fill="#201934" d="M500.9,397.2c3.9-0.1,7.1-1.8,11.3-0.6C510.1,399.1,503.7,398.1,500.9,397.2z" />
	<path fill="#15060C" d="M533,395.9c-3.2-0.2-5.6-0.4-8.1-0.5c0-0.2,0-0.3,0-0.5C528,394.6,530.3,393.4,533,395.9z" />
	<path fill="#41346F" d="M373,381.9c-1.6-1-3.2-2.1-4.1-4.3C371.5,379.2,371.5,379.2,373,381.9z" />
	<path fill="#362B5B" d="M374.2,365.2c-1.8-1.1-3.2-2.6-4.5-4.8C372.8,362.1,373.2,362.6,374.2,365.2L374.2,365.2z" />
	<path fill="#1A0B17" d="M521.6,400.5c1.8,0.1,3.7,0.1,5.5,0.2c0,0.2,0,0.3,0.1,0.5c-2.2,0.4-4.4,0.4-6.6,0.4c0-0.2-0.1-0.4-0.1-0.5   C520.8,400.8,521.2,400.6,521.6,400.5z" />
	<path fill="#332651" d="M538,377.3c0.2,0.5,0.4,1,0.6,1.6c-1.2,0-2.6,0.9-3.1-1.3C536.5,377.5,537.3,377.4,538,377.3   C538,377.3,538,377.3,538,377.3z" />
	<path fill="#220F21" d="M529.3,398.9c-2.1,1.1-4,1.1-5.9,0C525.4,398.9,527.3,398.9,529.3,398.9z" />
	<path fill="#2A1834" d="M531.3,392.7c-1.3,0-2.6,0-4.9,0C528.7,391.7,530.1,391.9,531.3,392.7z" />
	<path fill="#151022" d="M532,379.9c0.1-0.2,0.2-0.4,0.3-0.6C532.2,379.5,532.1,379.7,532,379.9L532,379.9z" />
	<path fill="#0C0605" d="M888.9,403.2c0,1.7,0.2,3.4-1.4,4.8c-1.3-2.2-1.6-4.3-0.1-6.4l0.4,0C888.2,402.1,888.5,402.7,888.9,403.2   L888.9,403.2z" />
	<path fill="#332520" d="M857.9,372.9c-0.3-0.7-0.6-1.3-1.1-2.7c2,0.9,3.7,0.6,3.7,2.8C859.6,372.9,858.8,372.9,857.9,372.9z" />
	<path fill="#212320" d="M811.1,387.4c-1.1,0-2,0-3,0C809.6,385.9,809.6,385.9,811.1,387.4z" />
	<path fill="#3C3630" d="M816.8,386c0.6,0,1.2-0.1,1.8-0.1c0,0.2,0,0.4,0,0.6c-0.6,0-1.2,0.1-1.8,0.1   C816.8,386.4,816.8,386.2,816.8,386z" />
	<path fill="#977264" d="M888.9,403.2c-0.4-0.6-0.7-1.1-1.1-1.7C889,401.6,889,402.4,888.9,403.2z" />
	<path fill="#48352F" d="M293.2,360.1c-0.5-0.1-1-0.2-1.7-0.4c1.6-1.8,3.6-1.7,5.7-2.4c0.1,0.8,0.2,1.2,0.2,1.7   C295.9,359.4,294.5,359.8,293.2,360.1z" />
	<path fill="#6A4A43" d="M307.8,366c-1.4,0.1-1.9-0.9-2.8-2.1C306.9,364,307.9,364.4,307.8,366L307.8,366z" />
	<path fill="#977264" d="M306,365.4c0.3,0.2,0.6,0.4,1,0.6C306.7,365.8,306.4,365.6,306,365.4z" />
	<path fill="#120F0F" d="M37.9,377.3c12.6-9.7,25.8-19.1,35.4-31.9c0.3,0.3,0.6,0.6,0.9,1c-8.4,13.7-22.7,22.4-35.3,31.9   C38.6,378,38.3,377.6,37.9,377.3z" />
	<path fill="#130F0F" d="M77.7,339.6c7.3-4.3,15.4-7.8,22.2-13.3c0.3,0.3,0.7,0.6,1,1c-6.1,6.5-14.3,10.4-22.3,13.9   C77.7,340.9,77.6,340.3,77.7,339.6z" />
	<path fill="#373636" d="M77.7,339.6c-0.1,0.7,0.1,1.3,0.8,1.5c-2.2,1.2-2.4,3.7-4.2,5.3c-0.3-0.3-0.6-0.6-0.9-1   C74.8,343.5,75.5,341,77.7,339.6z" />
	<path fill="#3B3A3B" d="M37.9,377.3c0.3,0.3,0.7,0.7,1,1c-0.9,0.6-1.8,1.2-2.7,1.8C34.9,378.8,37.2,378.2,37.9,377.3z" />
	<path fill="#271B18" d="M264.7,310.9c-0.2-0.5-0.5-1-0.8-1.6c4.3-0.5,8.4,0.2,11.9,2C273.4,314.4,268.2,310.7,264.7,310.9   L264.7,310.9z" />
	<path fill="#140D0C" d="M314.3,343.1c-3.4-2.5-6.1-5.1-8.7-8.8C307.9,334.1,315.4,341.1,314.3,343.1z" />
	<path fill="#B28C7D" d="M303.5,332.5c0.2,0.9,0.4,1.9,0.7,3.1c-3.8,1.2-3.3-3.3-3.3-5.7l0,0c0.3,0,0.5,0,0.8,0   C302.3,330.8,302.9,331.6,303.5,332.5z" />
	<path fill="#302521" d="M303.5,332.5c-0.6-0.9-1.2-1.7-1.8-2.6c0.1-0.5,0.2-1,0.3-1.8c1.8,0.9,2.5,2.3,3.2,3.9   C304.5,332.2,304,332.3,303.5,332.5z" />
	<path fill="#090000" d="M114.8,247.9c-0.4,2-3.8,2.4-4.9,0.4C111.5,247.5,113.1,248,114.8,247.9L114.8,247.9z" />
	<path fill="#201815" d="M121.9,251.8c1.3-0.8,2.4-0.8,3.7,0C124.3,252.6,123.1,252.6,121.9,251.8z" />
	<path fill="#0D0807" d="M277.6,347c-8.1,2.1-15.8,6.7-24.1,5.8C253.2,351.9,273.2,343.4,277.6,347z" />
	<path fill="#2F1F1B" d="M282.4,360.7c1.9-2.2,4.4-1.4,7.3-1.4C287.4,362,284.8,360.5,282.4,360.7z" />
	<path fill="#291210" d="M237.9,349.8c0,0.4,0,0.8,0,1.3c-1.3,0.7-2.6,1.7-4.1,0.2C234.8,349.3,236.5,349.9,237.9,349.8L237.9,349.8   z" />
	<path fill="#2E221E" d="M247.4,350.6c-0.1,0.4-0.1,0.8-0.2,1.2c-2.8,0.6-2.8,0.6-3.8-0.7C244.6,350,246.1,350.7,247.4,350.6   L247.4,350.6z" />
	<path fill="#1C1815" d="M226.7,350c-0.9,1.6-0.9,1.6-3.5,0.7C224.2,349.2,225.2,349.8,226.7,350z" />
	<path fill="#503730" d="M165.8,358.8c0.9-1.6,2.1-1.5,4-1.1C168.3,358.6,167.5,359.7,165.8,358.8z" />
	<path fill="#27110F" d="M218.2,349.4c1-1.7,1-1.7,2.7,0C219.8,349.8,219.1,350,218.2,349.4z" />
	<path fill="#46332D" d="M791.4,323.8c-0.4,0.2-0.8,0.4-1.1,0.6c-0.5-1.4-0.5-1.4,0.2-2.8c1.1,0,0.9,0.9,1.1,1.5   C791.5,323.2,791.4,323.5,791.4,323.8z" />
	<path fill="#150D0C" d="M777.2,388c6.5,0.1,12.9,1.6,19.5,1.9C793.6,393.6,778.9,392.4,777.2,388z" />
	<path fill="#2B1B18" d="M799.5,390c1.8-2.1,2.5-2.4,4.9-1.6C803.5,390.3,801.4,390.9,799.5,390z" />
	<path fill="#050202" d="M883.8,406.2c-0.1,0.9-0.1,1.8-0.2,2.8c-0.6-0.2-0.9-0.3-1.5-0.5c0.5-0.9,0.8-1.7,1.2-2.4   C883.5,406.1,883.6,406.2,883.8,406.2z" />
	<path fill="#100505" d="M787.3,307.8c5.9-0.8,5.9-0.8,7.1,0C789.9,309.4,789.9,309.4,787.3,307.8z" />
	<path fill="#2F1311" d="M783.4,307c-1.2,0.9-2.3,0.8-3.5,0.1C781.1,306.4,782.2,306.1,783.4,307z" />
	<path fill="#201E1E" d="M106,319.5c3.8-4.2,5.9-10.7,11.4-12.9c-2,5-7,9.4-10.5,13.9C106.6,320.1,106.3,319.8,106,319.5z" />
	<path fill="#383434" d="M106,319.5c0.3,0.3,0.6,0.6,0.9,0.9c-2,2.3-4.1,4.5-6.1,6.8c-0.3-0.3-0.7-0.6-1-1   C101.9,324,104,321.8,106,319.5z" />
	<path fill="#16110F" d="M148.9,347.9c-0.8,3-8.4,4-10.9,2.9c0.1-0.6,0.1-1.1,0.2-1.6C142.1,348.6,145,347.7,148.9,347.9z" />
	<path fill="#271916" d="M153.9,345.9c2.4-1.5,2.4-1.5,5.4-1.1C158,346.8,156.3,346.3,153.9,345.9z" />
	<path fill="#281513" d="M168.1,343.6c-1.3,0.2-1.8,0.3-3.3-0.2C166.2,342.5,167.2,342.2,168.1,343.6   C168,343.6,168.1,343.6,168.1,343.6z" />
	<path fill="#2D201C" d="M855.1,371.6c-2.1,1.5-2.1,1.5-4.7-0.2C852,369.9,852.3,370,855.1,371.6z" />
	<path fill="#221917" d="M822.7,307.8c-0.1-1.2-0.1-2.4-0.2-3.6c0.4,0.7,0.9,1.3,1.4,2c5.1-2.7,1.5-4.6,10.3-3.9   c1.9,1.2,3.9,7.2,0.1,6.8c-0.2-1.3-0.4-2.5-0.6-4c-1.4-0.4-2.9-0.7-4.5-1.1c-1.6,1.1-1.8,3.6-4.3,4.3   C824.3,308.2,823.5,308,822.7,307.8z" />
	<path fill="#483730" d="M789.7,327.5c-0.2,0.1-0.4,0.1-0.5,0.2c0-0.3-0.2-0.8,0.3-0.9C789.5,327,789.6,327.2,789.7,327.5z" />
	<path fill="#18080F" d="M547.7,316c0.5-0.9,1.2-1.1,2.5-0.1C549.1,315.9,548.3,315.9,547.7,316L547.7,316z" />
</g>
</svg>