<?xml version='1.0' encoding='utf-8'?>
<svg xmlns="http://www.w3.org/2000/svg" version="1.2" baseProfile="tiny" id="Layer_2_00000111165639723626201580000018034692023581470116_" x="0px" y="0px" viewBox="0 0 900 600" overflow="visible" xml:space="preserve">
<g id="b_00000104701765973089219470000018144829368024896175_">
	<g><path d="M691.2,349.4c-6.6,32.8-12,67.8-27.5,97.4c-2.8,32.2-17.7,62.4-16.4,95.3c1.1,0.2,2,0.4,2.9,0.7c4.1,11.2,8.9,23,16.8,32.1   c5,3.8,3,9.7,1.7,14.8c-12.7,3.8-26.8,4.5-39.7,0.8c-0.4-1.3-0.7-2.5-1.1-3.8c-2.3-1.5-5.3-0.8-7.6-2.3c-1.2-5.8,3.3-11.2,2.4-17.1   c0.7-5.6-3.1-12,3.4-14.9c4.9-62.8-13.8-70,13-135.2c2.4-39.6-9.8-81.2-4.4-122c25.7-66.2,25.3-63.9-0.5-131.7   c-9.2-8.4-24.7-4-36.2-6.8c-16.4-1.2-31.1-9.2-47.5-10.7c9.4-2.8,19.7,3.3,29.2,5c18,4.3,37.1,4.4,55,7.7c-0.1,0.5-0.1,0.9-0.2,1.4   c2.3,2.7,4.1,6,5.1,9.4c17.3-1,22.4-32.4,15.6-45.3c-1.5,0.5-2.7,1.3-4.3,0.9c-15.6-3.7-33.4-6.4-47.5,3c-11.6-0.7-24.5,1.2-36,0.4   c0.2-0.5,0.3-1,0.4-1.4c-16.1-8.4-34.2-4.9-51.6-8.2c2.1-1.5,5.5-0.3,8-0.8c14,2.1,28.6-0.5,41.6,6.2c3.7,1.7,7.5,2.8,11.7,2.1   c12.3-2.2,24.8,2.3,36-5.1c11.2-2.9,23.1-1.2,34.2,1c6.5,1.6,11.3-4.9,17.4-5.9c6.3-3.2,7.7-11.4,7.8-18.1   c-1.5-0.3-2.7-0.5-3.9-0.8c-0.4,0.8-0.6,1.4-0.9,2c-2.3,0-2.3-3-5.2-2.4c-0.5,0.4-0.9,0.8-1.3,1.2c-1.3-0.2-1.9-1.7-2.9-2.5   c-0.5,0.3-1,0.7-1.4,1c-2.7,0.1-2.7-3.1-4.5-3.8c-1.2-0.2-0.8,1-1.7,1.2c-2.4,0-2.9-3.3-5.3-3.9c-1-2.1-1.9-4.1-2.8-6.2   c-0.8-0.2-1.7-0.4-2.5-0.6c-2.3-2.3-2.8-5.7-2.2-9c1.3-1.3,0.5-2.6,0.2-4c-0.5,1-1.4,2-1,3.2c-0.2,0.1-0.4,0.2-0.8,0.5   c-1.1-4.6-1.8-8.1-0.2-13c-0.9,0.5-1.5,0.8-2,1c-3.5-2.3,0.4-7.4-1-10.6c-2.4-5.6,3.2-10.8,4.5-16c-0.5-0.8-1-1.4-1.5-2.1   c1.4-2.5,2.1-5.6,5.5-5.7c-0.3-0.7-0.6-1.3-0.9-2.1c0.4-0.3,0.8-0.5,1.1-0.7c1.7,0.5,4.7-0.6,4.4-2.7c-0.3-0.3-0.6-0.5-0.8-0.8   c0.3-1.3,1.2-2.1,2.3-2.7c0.7,0.2,1.3,0.3,2,0.5c0.2-0.4,0.4-0.6,0.6-1c-0.7-0.3-1.3-0.6-2-0.9c0.1-1.4,0.1-1.4,0.8-2.3   c2.9-1.4,9.3,0.1,9.1-4.2c0.9-0.8,1.8-1.2,2.6-0.5c3.4,1.5,6.8-4.6,11.1-2.3c1.9-2.3,5-1.3,6.7,0.7c3.8-0.5,8.4-4.4,12-1.6   c-0.1,0.4-0.3,0.9-0.4,1.2c-0.9,0.2-1.6,0.4-2.5,0.7c0.5,0.5,0.9,0.8,1.2,1.1c1.3-0.4,2.4-0.8,3.1-2.1c2.4-0.7,7.4-3.3,8.6,0.1   c-1,0.4-2.1,0.9-3.2,1.4c0.6,0.4,1,1,1.3,0.9c3.5-0.5,7.1,1.1,10.6,1c1,1.3,2.7,1.6,2.5,3.3c-1.2,0.1-2.3,0.3-3.4,0.4   c0,0.3,0.1,0.7,0.1,0.9c1.2,0.1,2.3,0.2,3.4,0.3c2,1.8,4.2,3,6.8,3.9c0.5,3.2,3.5,5.2,4.4,8.5c-0.4,0.3-0.9,0.5-1.4,0.8   c0.3,1.7,2,2.9,0.4,4.8c2.5,1.6,2.6,7,0.6,8.7c0,1.6,0,2.8,0,4.4c-0.6,0.5-1.3,1.2-1.9,1.7c-0.6,2.3-1.2,4.4-1.7,6.5   c-0.6,0-1.2,0-1.7,0c-0.5,0.8-0.9,1.5-1.4,2.2c-6.2-13.6-7.2-6.3-18.3-9c-6.6,1.5-13.4,5-16.7,11.5c0.8,2.9-0.9,5.6-0.7,8.2   c-0.9,1.5-1.7,2.6-2.4,3.7c0.4,0.5,0.7,0.9,0.9,1.2c-0.6,2.1-3.4,1.8-4.7,0.7c-1.3-16.8,15.2-31,31.9-28.4   c-15.1-10.7-33.8,6-34.9,22c-1.1,0.8-0.7,1.9-0.5,2.8c0.2,1.1,1.4,0.4,2,0.9c0,0.2,0,0.3,0.1,0.4c-0.5,0-1,0.1-1.4,0.1   c-0.3,0.2-0.5,0.5-0.8,0.7c-1.2,0.2-1.4,1.1-1.5,2.1c-1.4,1.4-0.3,3.3-0.6,5c1.8,2.5,3.2,5.4,5.7,7.1c-0.4,10.4,2.6,25.8-8.5,31.3   l0,0c-0.3-0.7-0.6-0.6-0.9,0c-0.4,0.2-0.8,0.4-1.4,0.7c3.7,19.4,17.8,38.5,39.3,37.4c0.4-1.4-0.5-2.4-0.8-3.7   c0.2-0.5-0.1-1.1,0.7-1.2c0.9,1.8,1.8,3.5,2.6,5.4c3.1,0.3,6.8-0.8,9.6,0.8c-11.4,4.5-24.4,0.1-34.3-6.1   c-11.9-6.2-15.1-20-19.1-31.7c-2.3,0.6-3.7,1.8-5,3.5c7.7,16.4,2.7,43.6-16.6,49c19.5,57.7,23.8,59.6-1.2,117   c31.8-1.3,65.7,10.9,96.4-1.1c-16.4-55.4-14.5-35.4-4.4-90.4c16.3-6.2,13.5-21.6,7-34.4c0.2-0.5,0.5-1,0.7-1.6   c1.4,2.1,2.7,4.1,4.5,6.8c0.7-14.7-5.5-30.9-21.5-33.3c2.2,2.3,9.4,9.5,7,12.2c-4.6-6-8.7-12-14.9-16.6c1.7,7.4,9.5,14.2,6.5,22.3   c-2.6-6.8-4.7-14.3-8.4-20.9c-2.3-4-8.1-3.2-11.4-6.7c-0.2,0.6-0.5,1.1-0.8,1.8c-3.3-5.7,0.1-12-1-17.8c0.2-0.2,0.5-0.5,0.7-0.7   c0.2,0,0.4,0.1,0.6,0.1c0.3,0.5,0.5,1,0.8,1.5c-0.8,3.8-0.9,7.7-0.8,11.8c58.3,21.5,41.2,28.3,46,83.7c4,19.8,10.1,39.6,7.6,60   c-2.8,7.1,1.1,17.6-1.5,25c-0.8-16-0.4-31.5-1.4-47.6c-1.7-17.2-8-33.5-8.3-50.8c-2.3,3.7-6.1,4.8-9.5,6.8   c-11.5,47.2-1.1,50.8,10.8,94c0.5,0.2,0.9,0.2,1.3,0.4c0.8,10-4.5,19,0.7,28.5c-0.4,0.2-0.9,0.4-1.4,0.7c-0.1,0.8-0.5,1.8,0.6,2.3   c0.3,3,0.5,5.9,1.7,8.7c0.7-1.2,1.3-2.1,1.9-3c0.5-0.2,1-0.5,1.4-0.7c1,4.1-6.5,7.2-3.6,10c2.5,28.9-2.2,57.6-1.2,86.3   c-0.4,15.2,4.1,30.1,3.3,45.4c1.3,19.7-2.6,38.9-1.6,58.5c4-0.1,5,3.6,5.2,6.8c0.3,6.5,13.9,22.2,19.9,24.8   c6.3,1.1,7.8,6.2,8.8,11.7c0.3,12.1-36.3,10.5-43.1,3.3c-3.7,2.3-23.1,1.5-19.8-5.7c3.2-4.2,2.6-9.4,2.3-14.4   c-0.8-6.4,2.3-11.3,2.6-17.9c0.5-0.3,1.4-0.8,2.1-1.3c1.1,0.3,1.8,0.5,2.5,0.7c-2-14.8-1.8-30.9-7.4-45.1   c-7.3-17.2-10.5-35.8-7-54.3c-0.5-31.1-17-60.2-22-90.9c-0.1,0-0.3,0-0.4,0C691.3,348.5,691.3,349,691.2,349.4z M697,316L697,316   c-11.1,41.3,17.1,80.8,19.6,121.7c-6.9,25.8,7,49.2,11.3,73.9c0.5,7.3,2.8,14.4,2.9,21.8c0.1,0.9-0.1,2,1.1,2.9   c10,1.1,3.5-3.5,13.1-6.3c2.9-40,0.5-80.1-1.8-120.2c2.5-39.7,3.7-79.8-6.6-118.8c-31.9,11.8-65.8-2.1-98.3,0.8   c-7.9,41.2,6.3,83.5,4.1,124.8c-24.8,62.2-11.1,69.2-12.9,129.1c4.8-8.9,0.6-8.8,12.3-11.4c0.6,0.7,1,1.3,1.8,2.2   c1.2-25.7,12.6-49.1,15.7-74.3c-1.5-16.7,10.7-30.2,14.4-46C685.4,384.1,685.2,347.6,697,316z M726.8,243.2   c-0.3-1.8-0.6-3.6-0.9-5.4c0.7,23.4,14.3,44.5,16.3,68.3C745.7,284.7,729,264.4,726.8,243.2z M754,545.5c-0.4-0.6-0.8-1.1-1.5-2.2   c0,1.2,0,1.8,0,2.3c-4.8,1.4-9.8,0.8-13.7,4.5c-0.5-0.7-0.9-1.3-1.2-1.7c3-4.9,8.7-3.5,13.6-4.7c-0.6-3.2-1.2-6.4-1.8-9.3   c-11.4-5.9-8.7,8.2-15.5,12.6c-1.4-0.1-2.6-0.3-3.8-0.4c-1.9-2.2-1.9-6-4.2-6.7c-4,11.2-0.7,22.8-5.4,33.6c5,0.8,10.2,3.2,15.1,1.7   c1.9-0.7,3.5-0.4,5.2,0.5c11.4,6.2,26.9,6.1,38.3-0.2c-0.9-14.1-10-7.8-20.2-23.3c-0.3-1.7-2.3-2.2-2.8-3.6   c-4.5,1.4-9,1.6-12.2,4.9c-4.7-4.7,7.4-5.8,10.2-6.8C754,546.2,754,545.9,754,545.5z M666.8,587.7c2-3.4,1.8-9.1-2-11.7   c-7-8.7-12.9-20.1-15.9-30.9c-3.5-1.8-5.4-5.3-8.1-7.9c-2.3,0.8-4.3,1.3-6.5,2.3c-0.4,5.8-2.4,11.9-5.3,16.9c-1.5,0.4-2.7,0-4-1.4   c-1.2,4.3,0.5,8.7,0.3,13.2c0.2,5-2.3,9.5-2.9,14.4c1.9,0.3,3.4,0.6,4.9,0.8c1-1-0.2-2.7,1.5-3.1c2,2.4,0.8,6.1,2.5,8.7   C642.9,591.3,655.2,590.5,666.8,587.7z M730.7,538.7c-1.6,8.3,5.6,6.1,6.1,0C734.7,538.7,732.9,538.7,730.7,538.7z M630.8,548   c-2.9-0.3-4.2,3.8-1.9,4.6C630.2,551.3,629.5,549.5,630.8,548z M639.5,38.1c0.3-0.4,0.9-0.7,0.3-1.1   C639.4,37.4,638.9,37.6,639.5,38.1z M639.5,34c0.3-0.4,0.5-0.6,0.7-0.9C639.6,32.4,638.8,33.5,639.5,34z" />
	<path fill="#0E0B0A" d="M746.9,340.1c-2.8-2.7,4.6-5.9,3.6-10c2.1-1.1,2.7-4.5,0.9-6.1c-0.4,1.8,0.2,3.5-1.2,4.9   c-0.2,0.1,0.2,0.8,0.3,1.3c-0.5,0.3-1.1,0.5-1.6,0.9c0.1-1.2-0.8-0.7-1.4-0.8c-0.2-0.3-0.5-0.5-0.7-0.8c1-4.6-2.7-3.4-2.1-6.6   c0.5-0.2,1-0.5,1.4-0.7c0.8,1.9,1.6,3.8,2.4,5.8c3.2-2.3,1-4.7,0.5-7.4c0.2-6,1.9-4.1,5.6-1.4c1.8,5.8,2.3,12.7-1.6,18   c-1.1,0.8-0.5,2-0.6,2.9c-0.2,0.1-0.7,0-0.3,0.5c6-6.7,7.4-15.7,7.7-24.5c-8.4-12.8-7-26.7-6.8-41.3c0.5-2.7-1.1-6.8,0.8-8.9   c-0.6,17.6-0.8,35.6,8.5,51.2c-2.5,5-1.2,10-2.5,14.8c-2.3,4.2-8.9,17.2-12.5,7.6C747.2,339.8,747,340,746.9,340.1z M754.1,328.7   c-0.3-2.9,1.2-11.5-3.6-10c3.6,3.2,2.6,7.8,3.2,12.2c-1.6,2-3.2,4-4.9,6.1c0.6,0.6,1.1,1.2,1.7,1.8c-0.5,1.5-1.2,1.9,0.6,3.1   C749.5,336,756.5,331.8,754.1,328.7z" />
	<path fill="#221615" d="M472.7,130.3c-3.1,0.2-11.5,1-10.7-4c10.4-5.2,22.5-5.4,32.7-10.9c1.6,0.3,3,0.5,4.4,0.7   c-1.5,1.8-4.6-0.5-6.2,1.7c-4.8,4.3-11.7,4.7-17.3,7.6c-2.9-0.3-4.8,2.5-7.7,2.2c-0.3,0-0.5,0.3-1.1,0.7c1.6,1.6,3,1.3,5,1.3   C472.2,129.9,472.5,130.1,472.7,130.3z M465.5,126.8c4.7,0.3,8.7-2.3,13-4.2C474,122.8,469.3,124.4,465.5,126.8   c-0.6,0.1-1.3,0.1-2,0.2c0.1,1.3,0.4,2,1.8,1.9C465.4,128.1,465.5,127.4,465.5,126.8z" />
	<path fill="#0F0A0A" d="M552.7,145.3c-0.8,0.2-1.7-0.3-2.2,0.7c-14.4-2.3-26-12.9-39.9-16.1c2.3-0.7,4.5-3.2,6.8-2   c-0.6,0.4-1.2,0.7-1.8,1C527.5,134.8,539.8,142.1,552.7,145.3z" />
	<path fill="#221A19" d="M510.6,129.9c0.5,0.2,1.1,0.4,1.6,0.7c-4.9,1.7-7.3,2.7-13.1-0.1c-4.8,1.5-12.1,2.5-15.6-2   c-3.6,0.7-7,2-10.8,2c-0.3-0.3-0.6-0.5-0.9-0.8c5.9-0.7,11.4-3.5,17.1-3.5c0.3,0.2,0.6,0.5,0.8,0.7c-1.4,0.2-2.7,0.3-4,0.5   c0.1,5.1,9.4,3,12.6,1.8C502.3,130.3,506.5,131.1,510.6,129.9z" />
	<path fill="#151111" d="M720.4,66.2c0.7,2.1-0.1,4.3,1.2,6.1c0.8,1.6-0.8,3.5-1.9,4.6c-1.5,0.3-2.8-0.3-4.2-0.7   c-0.2-1.1,0.3-2.3-1-3c-0.3-0.2-0.3-0.8-0.5-1.2c1.7-1.6,3.8,0,5.5-1.3c0-0.4,0-1-0.1-1.6c-2.3-1.1-4.2,1.9-5.9-0.1   c0.8-1.8,2.9-1.1,3.9-2.2C718.6,66.9,719.6,66.6,720.4,66.2z M717.9,73.8l0.1-0.2h-0.2L717.9,73.8z" />
	<path fill="#393431" d="M718.2,76.9c0.5,0,1-0.1,1.5-0.1c1.8,7.8-1.4,16.3-4,23.7c-0.6-1.2-1.4-2.3-1.8-3.6   C719.2,92.6,719.3,83.5,718.2,76.9z" />
	<path fill="#2B1E1C" d="M497.6,116.8c0.6-0.1,1.3,0,1.5-0.7c8.4,1.5,16.8,0.9,25.1,2c-2.5,0.5-6-0.8-8,0.8   C510.1,119.1,503.5,118.8,497.6,116.8z" />
	<path fill="#413735" d="M701.3,110.5c-0.3-0.5-0.5-1-0.8-1.5c5.9,0.7,10.8-1,13.4-6.6c0.3,0,0.6,0,0.9,0   C713,108.7,707.1,111.2,701.3,110.5z" />
	<path fill="#3A2E29" d="M714.8,102.6c-0.3,0-0.6,0-0.9,0c0-0.3-0.1-0.7-0.1-1.1c-4.3,1.4-7.9,0.2-11.3-2.4   c3.2-0.9,7.2,3.5,10.6,1.1c0.3-0.8,0.6-1.7,1-2.5c0.5,1,1.1,2,1.6,2.9h-0.1c-0.2,0.1-0.4,0.1-0.6,0.2c0.1,0.2,0.3,0.3,0.4,0.5   C715.2,101.6,715,102.1,714.8,102.6z" />
	<path fill="#292220" d="M720.4,66.2c-0.5,0.2-1,0.5-1.5,0.7c0-3.2-1.3-6.2-2.1-9.2c0.4-0.7,0.8-1.3,1.4-2.2c0.5,0,1.1,0,1.7,0   c-0.4,0.3-0.8,0.7-1.4,1.3C719.2,59.6,720,63,720.4,66.2z" />
	<path fill="#211515" d="M646.1,21.2c0.3,0.3,0.6,0.5,0.8,0.8c-0.7,0.7-1.3,1.4-2.1,1.9c0.2,0,0.4,0.1,0.6,0.1   c-0.1,0.1-0.1,0.2,0,0.4c-0.9,1-2,0.5-3,0.5C644.1,22.4,641.8,21.6,646.1,21.2z" />
	<path fill="#736F6F" d="M692.6,7.8c-0.7,1.3-1.9,1.6-3.1,2.1c-0.4-0.3-0.7-0.6-1.2-1.1c1-0.3,1.7-0.4,2.5-0.7   c0.1-0.4,0.2-0.8,0.4-1.2C691.8,7.2,692.3,7.5,692.6,7.8z" />
	<path fill="#A8B7B7" d="M712.6,16.2c-1.2-0.1-2.3-0.2-3.4-0.3c0-0.2-0.1-0.6-0.1-0.9c1.2-0.1,2.3-0.3,3.4-0.4   C712.5,15.1,712.5,15.7,712.6,16.2z" />
	<path fill="#A9AEAE" d="M637.8,73.4c-0.4-1.3,0.5-2.2,1-3.2c0.3,1.4,1,2.7-0.2,4C638.2,73.9,637.9,73.6,637.8,73.4z" />
	<path fill="#9F9797" d="M649,16.9c0.6,0.3,1.3,0.6,2,0.9c-0.2,0.4-0.4,0.6-0.6,1c-0.7-0.2-1.3-0.3-2-0.5   C648.6,17.9,648.8,17.4,649,16.9z" />
	<path fill="#94A9A9" d="M691.2,349.4c0.1-0.4,0.1-0.9,0.2-1.3c0.1,0,0.3,0,0.4,0c0,0.4,0.1,0.9,0.1,1.3   C691.7,349.4,691.4,349.4,691.2,349.4z" />
	<path fill="#393431" d="M719.8,76.8c0.2-0.2,0.4-0.5,0.7-0.7C720.1,76.3,719.9,76.6,719.8,76.8z" />
	<path fill="#281C19" d="M715.4,101.1c-0.1-0.2-0.3-0.3-0.4-0.5c0.2-0.1,0.4-0.1,0.6-0.2C715.7,100.8,715.6,101,715.4,101.1z" />
	<path fill="#EAA388" d="M696.4,316.6c-13,42.9-13.8,90.7-35.9,131c-1.5,30.3-14.8,58.3-17.1,88.7c-0.7-0.9-1.2-1.5-1.8-2.2   c-2.5,0.7-5,1.4-7.5,2.2c-1.4-11.9,4.5-25.2,3-37.7c-1,1.1-1.9,2.2-3,3.6c0.8-25.2-2.1-47,10.8-70.5c2.9,3.2,1.4,7.8,4.7,10.7   c4.1-7.3,0.7-16.6-0.1-24.6c-0.8-3.5,1.8-7,1.1-10.8c4.9-38.1-0.4-77.2,7.5-114.8c25.9,0.5,53.1,8.2,78.4-1.4   c10.3,39,9,79.2,6.6,118.8c2.3,40,4.6,80,1.8,120.2c-2.9,1.2-6.1,2.3-6.9,5.7c-1.4-0.1-2.7-0.2-4.3-0.3   c-1.3-15.6,3.4-38.2-4.3-51.7c-0.5,4.1,0.7,9.2-0.9,12.3c-3.4-12.7-8.9-26.3-8.5-39.8c2.1-5.1-1.5-11.3,2.9-15.7   c1.7,2.5,3.2,4.9,4.9,7.2c-0.8,0.6-2.1,1.5-0.8,2.2c0.9,2,1,3.5,2.7,5c0-1.5,0-2.5,0-3.5c2,1.3,2.3,3.8,4.4,5.4   c-0.1-13.1-10.8-22.8-14.6-34.5c-5-21.6-6.8-44.5-5.4-66.8c1.3-3.2,0.5-6.8,0.7-10.2c-0.5-2.9,2.2-5.9-0.4-8.4   c-2.3,1.4-3.1,3.5-3.9,5.8c-0.2,0.5-0.3,0.9-1.1,0.7c-3.3-9.8-0.4-23.1-7.4-30.9c0.2-1,1.4-1.6,0.9-2.8c-1.7,0.3-2.1,1.9-3,2.7   c-1,0.5-1.8,1.2-2.1,2.3l0,0c-0.2,0.3-0.5,0.5-0.7,0.8c0,0.2,0,0.4,0,0.7C696.8,316.2,696.6,316.4,696.4,316.6z M674.1,303.7   c-0.3-0.5-0.5-1-1.1-0.2C673.4,303.6,673.8,303.7,674.1,303.7c2.6,2.6,6.3,4.9,9.7,6.3C680.9,307.2,677.9,304.8,674.1,303.7z    M663.3,409.4c0.6-3.7-2.5-6.2-2.9-9.6c-3.2-1.9-3.3-1.8-5.5,0.8c-0.8,4.8,3.7,7.3,6.3,9.8c-0.3,1.4,1.1,2,1.9,2.9   C664.6,412.1,663.4,410.7,663.3,409.4z M731.3,413.7c-0.8-0.3-0.9-1.1-0.9-1.8c0.2-3.3-2.9-4.9-5.3-6.4c-1.6,0.7-2.6,1.8-3.3,3.1   C721.1,413.2,734.6,420.9,731.3,413.7z M653.6,461.2c2.5-0.7,5.6-8.1,3.8-10.4C655.3,454.2,653.9,457.5,653.6,461.2z M734.9,410.7   c3.1-3.7,3.8-6,2.9-8.7C736.2,404,734.8,407.6,734.9,410.7z M729.4,458.9c0.3,1.8,0.3,3.5,2.3,4.5   C732.3,461.2,731.4,459.7,729.4,458.9z M679.7,312.9c2.2,2.2,3.6,2.9,6.4,3.3C684.4,314.3,682.5,313.4,679.7,312.9z M652.3,467.7   c1.5-1.3,1.5-1.5,0.6-4.1C651.5,464.7,651.5,464.9,652.3,467.7z M649.4,477.7c1.6-1.2,1.7-2.8,0.1-3.8   C648.9,475.4,648.6,476.3,649.4,477.7z M732.5,468.7c-0.6-2-0.6-2-2-2.4C730.4,467.4,730.7,468.3,732.5,468.7z M732.7,472.6   c-0.5-0.2-0.8-0.3-1.1-0.4C731,473.4,732,473.7,732.7,472.6z" />
	<path fill="#F5DDCE" d="M734.8,195.4c-1.2,0.8-2.3,1.6-3.6,2.3c-10.2,55.5-12.1,34.2,4.4,90.4c-23.9,9.2-51.8,4.2-76.6,1.4   c2.3-7.1,2-16.5,7.7-22.1c3.5,6.2,5,13.6,10.7,18.4c0.2-15.9-12.1-29.5-11.2-45.6c-1.7-18.8,0.3-43.4,22.1-47.7   c4.7-1.5,11.2-1.7,14.3-5.9l0,0c1.9-0.8,2.3-2.3,2.3-4.2c-19.8,0.9-30.1,3.2-44.3-11.7c-0.8-4.9-6.8-4.2-7.2-7.5   c7.4-12.1,10-26.8,3.7-39.9c1.4-1.7,2.8-2.9,5-3.5c4.3,19.9,17.2,37.5,38.8,39c26.6,2.2,22-9.7,13.2-27.8   c10.6,8.8,32.8,37.8,27.5,51.5c-7.9,9.7-20.9-0.8-30.3,2.7c-0.3,1.9,1.2,2.8,1.7,4.2c-0.4,0.6-1.6,0-1.7,1.2   c0.2,0.1,0.5,0.3,0.8,0.5c0.2,0,0.4,0,0.5,0.2c1,1.4,2.3,0.2,3.1,0.3c1.6,1.3,2.3,2.8,4.5,2.3C724.6,196.7,730.4,194.3,734.8,195.4   z M702.5,229.6c-3.3,8.4-2.3,20.9,0,29.6C702.3,249.1,704.8,239.3,702.5,229.6z M721.8,279.8c0.2,0.1,0.5,0.2,0.7,0.3   c2-3,4.4-7.2,2.7-10.8C723.4,272.9,722.9,276.1,721.8,279.8z M718.5,249.7c2.2-2,0.6-6.2-1.7-8.2   C717.4,244.3,717.9,246.8,718.5,249.7z M716.6,239.5c1.1-1.7,1.3-2.8,0.1-4.3C715.5,236.6,715.5,237.8,716.6,239.5z M720.1,283.4   c-1.2,0.6-1.7,1.3-1,2.5C720.4,285.3,720.8,284.6,720.1,283.4z M717.9,288.1c-1.1,0.8-1.8,1.3-1.5,2.4   C717.6,290.2,718,289.5,717.9,288.1z M717.7,224.9c-0.1-1.3-0.2-1.8-0.3-2.3C716,223.1,716,223.1,717.7,224.9z M717.3,233.4   c-0.4-0.1-0.6-0.4-0.9,0C716.7,233.8,716.9,233.8,717.3,233.4z M717.2,228.8c0.5-0.4,0.6-1.1-0.1-1.3   C716.7,228,716.9,228.3,717.2,228.8z" />
	<path fill="#B28C7D" d="M497.6,116.8c23,5.8,48.2,0,70.3,10.3c-0.1,0.4-0.3,0.9-0.4,1.4c11.5,0.9,24.3-1.1,36-0.4   c14.1-9.4,31.9-6.8,47.5-3c1.6,0.4,2.7-0.4,4.3-0.9c5.8,12.4,2.9,26.8-4.1,38.2c-8.5-9-21.1-33.7-34.7-33.4   c-1.3-0.4-3.9-2.9-4.2-0.3c2.7,1.4,5.9,1.2,8.4,3.2c0,0.8,0,1.7,0,2.3c4,5,9.4,8.3,9.9,14.9c-0.8,1.1-1.5,2.2-2.3,3.3   c-19.9-0.7-40.1,0.8-58.9-6.9c-11.8-4.4-24.6-5.2-35.7-11.8c1.8-0.9,3.1,1.2,4.6,0.1c-2.9-3.1-8.1-4.3-12.3-5.5   c-2.8-0.9-6.1,0.1-7.7-2.8c-9-3.3-30,11.2-32.2,1.8c4.4-1,9.5-0.1,13.3-2.6c2.3-2.1,5.3-1,7.5-3.1c-2.4-0.4-4-0.2-5.5,1.1   c-8.6-1-17.9,3.4-25.6,3c5.6-2.9,12.5-3.2,17.3-7.6C494.2,116.6,496,116.8,497.6,116.8z M603.4,138.3c-0.6,0-1.3,0-1.9,0   c0,0.2,0,0.3,0,0.5c4.8,0.2,10.2,2.3,14.4-0.9C611.9,136,607.6,138.3,603.4,138.3z M595.2,137.8c1.5,1.6,2.1,1.6,3,0.1   C597.1,137.2,596.2,137.4,595.2,137.8z M562.2,129.1c0.7,0.8,1.2,0.9,2.1-0.2C563.3,129,562.8,129,562.2,129.1z" />
	<path fill="#D69479" d="M660.7,292.2c-0.8,0.1-1.7,0.2-2.6,0.2c-7.9,37.5-2.6,76.7-7.5,114.8c0.7,3.7-1.9,7.2-1.1,10.8   c0.7,7.9,4.1,17.2,0.1,24.6c-3.3-2.8-1.8-7.4-4.7-10.7c-12.8,23.6-10,45.3-10.8,70.5c1.3-1.5,2.2-2.4,3-3.6   c1.6,12.4-4.4,25.8-3,37.7c-3.8,2-1.7,6.4-4.9,9.3c1.9-60.2-11.8-66.7,12.9-129.1c2.2-41.3-12-83.7-4.1-124.8   C645.6,291.9,653.5,290.1,660.7,292.2z" />
	<path fill="#E6CCBB" d="M702.6,186.7c-1.2,2.6-4.2,2.8-6.7,3.5c-19.4-0.6-27.8,3.6-38.9-15.8c2.9,14.8,17.3,19.7,31.3,18   c-21.9,4.3-23.9,29-22.1,47.7c-1,16.1,11.4,29.7,11.2,45.6c-1.4-1.4-3-2.3-3.3-4.1l0.1-0.1c0.4,0.2,0.8,0.5,1.4,0.8   c0-1.6-0.7-2.4-1.8-3.4c-0.1,0.6-0.2,0.9-0.3,1.2l-0.1,0.1c-1.8-2-3.6-5.7-4-8.1c0.6,0.3,1,1.5,1.9,0.3c-0.3-0.9-0.2-2.1-1.8-2.3   c-0.1,0.5-0.2,1.1-0.4,1.6c-0.7-1.3-1.4-2.6-2.3-4.2c-5.8,5.6-5.5,14.9-7.7,22.1c-6.7-0.1-13-0.3-19.8-0.3   c25-57.5,20.5-59.4,1.2-117c5.6-1.4,10-4.1,12.9-9.1c0.4,3.3,6.6,2.6,7.2,7.5c14.2,15.1,24.7,12.7,44.3,11.7   C705,184.5,704.5,185.9,702.6,186.7C702.3,184.3,700.1,186.6,702.6,186.7z M655.9,172.2c0.4-1.7,0.4-1.7-1.1-2.4   C654.4,171,654.7,171.8,655.9,172.2z M699.9,187.4c-1.5-0.1-2.3,0.2-2.7,1.4C698.4,189.2,699.2,189,699.9,187.4z M668.2,265.4   c-0.2,0-0.4,0-0.5,0C667.7,266.7,668.1,266.7,668.2,265.4z" />
	<path fill="#D69479" d="M697.6,314.5c0.3-1.1,1.2-1.8,2.1-2.3c0,0.4,0.1,0.9,0.1,1.7c0.9-0.6,1.5-1.1,2.1-1.5   c7,7.9,4.1,21.1,7.4,30.9c0.8,0.2,0.9-0.3,1.1-0.7c0.8-2.3,1.7-4.4,3.9-5.8c2.5,2.5-0.1,5.5,0.4,8.4c-0.2,3.4,0.6,6.9-0.7,10.2   c-1.4,22.3,0.4,45.2,5.4,66.8c3.8,11.7,14.5,21.4,14.6,34.5c-1.9-0.9-5.6-9.6-7.2-6.8c-1.2-0.7,0.1-1.6,0.8-2.2   c-1.6-2.3-3.1-4.7-4.9-7.2c-4.4,4.4-0.8,10.7-2.9,15.7c-0.4,13.5,5.1,27.1,8.5,39.8c1.5-3.2,0.3-8.2,0.9-12.3   c7.7,13.5,3,36.1,4.3,51.7c1.6,0.1,2.9,0.2,4.3,0.3c-1.6,1.4-4.4,0.3-6.1,0.6c-1.2-1-1-2-1.1-2.9c-0.1-7.4-2.4-14.5-2.9-21.8   c-4.1-24.7-18.2-48.1-11.3-73.9C714.1,396.5,684.8,355.2,697.6,314.5z" />
	<path fill="#B28C7D" d="M716.8,57.6c0.8,3,2.1,6.1,2.1,9.2c-1.9,0.3-4.2,0.7-5.3,2.3c1.6,1.9,3.5-1,5.9,0.1c0,0.6,0,1.1,0.1,1.6   c-1.7,1.3-3.8-0.3-5.5,1.3c-1.1,0.1-0.5,1.3-1.3,1.6c-0.2-0.5-0.3-1-0.5-1.7c-2.3,3.2-2.5,5-0.6,6.9c0.2-0.9,0.3-1.7,0.4-2.1   c1.2-0.7,1.6-1.4,2.7-1.4l0,0c0.3,0.3,0.5,0.5,0.8,0.8c0.9,0.3,1.8,0.5,2.7,0.8c1.1,5.8,0.8,13.9-2.7,18.5l0.1-0.1   c-0.3-0.8-1.3-2.2-1.6-2.5c-4.7-0.7-8.3,0.4-11.4,3c-1.3-0.5-2.3-0.6-2.7,1.1c3.9,3.1,8.4,6.7,14,4.6c-0.9,6.5-8.2,8.5-14,7.4   c-4.7-5.1-11.6-7.4-17.2-11.4l0,0c-3.2-3.3-4-7.2-5-11.5c-1.7-1.8,0.1-4.2-1.3-5.9c-0.5-0.5-0.9-1.1-0.7-1.9c1.2-0.8-0.3-1.7,0-2.4   c1.3-1.2,3.2-0.9,3.8-2.6c-0.2-0.3-0.5-0.7-0.9-1.2c0.7-1.1,1.5-2.3,2.4-3.7c-0.2-2.6,1.5-5.3,0.7-8.2c3.3-6.6,10.2-10.1,16.7-11.5   C709.6,51.4,710.7,43.9,716.8,57.6z M693.3,66.9c-1.7,0.2-3.2,0.8-4.8,2.6c10.6-3.9,14.7,2.3,16.7,0.1   C702.9,66.1,697.2,66.6,693.3,66.9z M690.4,72.8c0.5,1.2,1,2.2,1.5,3.3c3.5,1.6,7.3,0.8,11.4,0.5c-0.3-1.4-0.6-2.5-0.9-3.6   C698.8,69.8,694.5,72.1,690.4,72.8z M709,88.5c-1.7-1.7-1.7-1.7-4.1,0.1c-1.8-1,0-2.5-0.4-3.8C699.3,88.9,705.7,91.3,709,88.5z    M714.6,87.1c-1.7,0.1-2.8,1-3.8,2.2c0.7,0.7,1.2,0,1.7,0c0.7,0,1.4,0.2,2.2,0.3c0.5-0.8,1-1.6,1.5-2.3c-1.1-1.9-2-3.2-3.2-5   C712.4,83.8,714.2,85.4,714.6,87.1z" />
	<path fill="#B28C7D" d="M755.4,332.9c1.8-4.3,0.3-9.6-0.6-13.7c-2-0.8-4-4.5-5.1-1.8c-1.2,2.6,0.6,4.9-0.2,7.4   c-0.7-0.5-1.1-0.8-1.1-1.6c0-2.9-2-10.7-5.1-11.1c1.4-5.4,6.8-33.1-1.1-34.5c-3.7-18.3-14.7-35.3-9-54.5c1.5,1.2,3.2,1.5,5.1,1.3   c0.2-0.3,0.5-0.6,0.7-0.9c-5.1-6.5-5.7-16.3-5.6-24.3c3.4-2,7.2-3,9.5-6.8c0.2,17.3,6.7,33.6,8.3,50.8c1.8,15.7-0.9,31.4,1.3,47   c-0.1,0.2-0.1,0.4,0.1,0.6c0.4,9.1,2.9,17.3,7.4,25.2c-1,6.2,0.1,13-3.9,18.2C755.4,334.2,755.5,333.5,755.4,332.9z M742.2,217.2   c2.1-1.3,2.5-4.8,0.6-6.3C741.7,213.3,741.6,213.9,742.2,217.2z M740.8,218.2c-1.5,1.4-1.2,2.7-0.1,4.1   C741.7,219.7,741.7,219.7,740.8,218.2z" />
	<path fill="#B28C7D" d="M702.5,152.5c0.3,1.3,1.2,2.3,0.8,3.7c-21.5,1.1-35.5-18-39.3-37.4c0.8-0.4,1.4-0.8,2.3-0.6l0,0   c1.1,2.5,1.9,4.6,2.6,7.4c5.3-3.3,6.2-8.7,9.8-13.1c1.8-2.1,0.9-4.3,1.3-7.1c5.3,7.5,11.3,14.4,19.1,19.4c0.4,0.9,0.7,1.8,1.1,2.7   c0.3-0.7,0.5-1.2,0.8-1.8c3.2,3.4,9.1,2.6,11.4,6.7c2.6,6.8,7.6,13.3,6.8,20.8c-0.2-0.2-0.4-0.3-0.6-0.5c-0.9,1.2-1.7,2.3-2.5,3.4   c-1,0.5-2.3-0.4-3.2,0.7c-2.3,0-4.5,0-6.7,0c-1.7-2.6-2.3-6.6-4.9-8.2C700.9,149,701.4,150.3,702.5,152.5z M671.1,129.4   c1.8,1.6,4.6,1.2,6.8,0.7C676.5,128.8,672,127.4,671.1,129.4z M687,131.6c0.9,1.3,0.9,1.3,2,0C688.2,130.8,687.7,130.8,687,131.6z    M683.8,131.6c-1.2-1.6-1.7-1.6-2.3,0.1C682.4,131.9,683.1,132,683.8,131.6z" />
	<path fill="#F7EFD0" d="M758.9,552.3c9.8,15.1,21,11.6,18.3,19.1c-8.2-1.3-15.3,3.6-23.4,2.8c-4-1.4-7.9-1.7-12.1-1.4   c-2.4-3.2-5.7-1.9-8.7-0.8c-2-0.6-4-1.2-6.1-1.9c0.6-8.7-1.4-18.6,1.5-26.7c0.6,1,1.2,2.1,2,3.2c1.2,0.1,2.4,0.2,3.8,0.4   c6.8-4.4,4.2-18.5,15.5-12.6c0.6,3,1.2,6.1,1.8,9.3c-4.9,1.2-10.7-0.2-13.6,4.7c0.3,0.5,0.7,1,1.2,1.7c2.7-2.3,6.9-4.6,10.1-2.4   c-2.2,1.1-9.1,2.5-5.1,5.8c3.2-3.3,7.7-3.4,12.2-4.9c0.2,0.3,0.6,0.8,0.9,1.3c-1.1,1.8-13.7,4.5-8.4,7.8   C751.6,555.1,755.4,553.5,758.9,552.3z M761.4,556.3c-2.1-1.9-10.1,2.2-8.7,5.1C756.4,560.6,759.1,559.1,761.4,556.3z M758.5,562.7   c2.2-0.1,4.2-0.1,5.4-2.3C762.6,558.1,757.1,559.9,758.5,562.7z" />
	<path fill="#F7EFD0" d="M629,556.3c2.9-5,4.9-11.1,5.3-16.9c2.1-1.2,4.1-1.6,6.5-2.3c2.7,2.6,4.5,6.2,8.1,7.9   c3,10.9,8.9,22.2,15.9,30.9c3.1,2.3,3.4,5.4,2.7,8.9c-0.9,1-1.9,0.6-2.8,0.1c-5.9-3.8-12.4,0.7-18.7,0.8   c-4.7-0.8-10.3,0.6-14.1-2.7c0-1.2,0-2.5,0-3.9c-1.1-1.4-2.2-2.2-3.4-3.2C627.9,568.6,628.7,562.4,629,556.3z M638.4,557.1   c-0.2,1.3-1.1,3.4,1.1,3.4c1.8-3.9,6.2-4.4,10.1-5.1c-1.1-4-4.5-0.4-6.9-2.5c1.7-1.9,6.2-0.3,6.1-3.3c-4-1.4-13.4,1.4-12.5,6.8   C636.6,557.5,637.7,557,638.4,557.1z M639.7,564.6c4.3-2.2,7.2-3.3,11.6-4.8C651.1,555.1,638,560.8,639.7,564.6z M642.5,569   c3.6-1.4,7.8-2.1,9.8-5.1c-2.3-2.3-5.6,1.3-8.1,1.9C642.7,566.4,642.6,567.3,642.5,569z M644.5,571.7c2.3,1.9,8-0.6,10.1-2.3   C651.6,567.1,647,569.2,644.5,571.7z" />
	<path fill="#977264" d="M626.8,134c10.2,6.5,16.1,20,24.3,28.5c-2.4,3.8-6.6,8-11.5,7.1c-1-3.4-2.7-6.8-5.1-9.4   c0.1-0.5,0.1-0.9,0.2-1.4c-11.9-2.7-24.9-2.3-37.1-4.8c-15.5-0.5-29.5-8.4-44.8-8.6c-13-3.2-25.2-10.5-37.1-16.4   c0.6-0.3,1.1-0.7,1.8-1c-6.6-0.6-8,5.7-19,1c6.1-3.4,12.7-3.8,19.6-3.5c0.6,0.7,1.3,1.4,1.9,2.1c-0.3,0.3-0.5,0.6-0.8,0.8   c0.7,0.8,1.3,1.2,2.3,1c-0.4-0.7-0.7-1.2-1-1.7c6,0.3,13.2,2.1,17.5,6.1c-1.5,1.1-2.8-1-4.6-0.1c11.2,6.7,24,7.4,35.7,11.8   c18.8,7.8,39,6.4,58.9,6.9c0.9-1.2,1.6-2.3,2.3-3.3c-0.6-6.7-5.9-9.9-9.9-14.9c0-0.6,0-1.4,0-2.3   C622.5,132.6,624.8,135.5,626.8,134z M627.4,137.6c1.6,2.3,2.7,4.2,5,5.4C632.3,139.8,630.8,137.4,627.4,137.6z M638.2,149.8   c-0.5,2.2,0.7,3,2.3,4.2C640.9,151.9,639.3,151.3,638.2,149.8z M635.9,147.6c0.5-2.3,0-2.9-2.3-2.7   C633.9,146,634.3,147,635.9,147.6z M523,130c0.1,0.9,1.8,1.4,1.7,0.2C524.1,129.9,523.5,129.4,523,130z M643.4,156.9   c-0.5-0.5-0.9-0.9-1.3-0.3C642.4,157.4,642.5,157.4,643.4,156.9z" />
	<path fill="#977264" d="M698.9,124.7c-7.7-5.1-13.7-11.8-19.1-19.4c-0.4,2.8,0.6,5.1-1.3,7.1c-3.6,4.4-4.5,9.9-9.8,13.1   c-0.9-2.7-1.6-4.9-2.6-7.4c8.2-3.5,8.9-14.9,8.6-22.7c1.4-2,0.4-4.6,0.8-6.9c1.3,0.4,1.1,1.3,1.3,2.1c0.8,3.3,2.4,5.8,5.8,6.9l0,0   c-0.1,1.5,1.6,3.4,2.9,2.2c4.5,1.9,9.3,4.7,12.8,7.9c-3-0.9-5.3-3.4-8.1-4.2c2.7,2.5,5.5,5,9,6.2   C700.1,114.4,697.5,119.7,698.9,124.7z" />
	<path fill="#EBDDB8" d="M728.4,543.5c-2.8,8-0.9,17.9-1.5,26.7c2.2,0.7,4.1,1.3,6.1,1.9c3-1.1,6.3-2.5,8.7,0.8   c4.2-0.3,8.1,0.1,12.1,1.4c8.1,0.8,15.2-4.1,23.4-2.8c0.2-0.7,0.3-1.1,0.4-1.6c0.9,1.9,1.5,3.7,1.5,5.8   c-11.3,6.3-26.8,6.4-38.3,0.2c-1.7-0.9-3.3-1.1-5.2-0.5c-4.9,1.6-10.1-0.9-15.1-1.7c4.7-10.8,1.4-22.4,5.4-33.6   C727.7,540.8,727.7,540.8,728.4,543.5z M769,575c2.8-0.3,5.7-0.7,8.5-1c0.1-3.7-13.3-1.6-12.7,2.5C766.7,577.8,767.4,575.7,769,575   z" />
	<path fill="#977264" d="M733.3,203.7c0.5,6.9,2.7,14.3,5.1,20.7c-1.9,0.2-3.6-0.1-5.1-1.3c-5.7,19.2,5.2,36.2,9,54.5   c5.9,1.2,4.2,19.8,3.3,24.6c0-2.8,0-5.7,0-8.6c-0.4-0.1-0.8-0.2-1.3-0.4C735.3,260.1,720.6,239.4,733.3,203.7z" />
	<path fill="#EADCB7" d="M629,556.3c-0.4,6.2-1.1,12.2-0.5,19.5c1.3,1.1,2.3,1.9,3.4,3.2c0,1.4,0,2.7,0,3.9   c3.8,3.3,9.4,2.1,14.1,2.7c6.3-0.1,12.8-4.6,18.7-0.8c-3.2,0.2-6.4-0.7-9.7,0.1c-0.4,1.3-2.5,1.3-2.3,3.2c3.5-0.2,6.8-2.2,11.3-1   c0.2,0.4,0.5,0.8,0.7,1.2c-11.1,2.1-22.4,3-33.5,0.6c-1.8-2.6-0.7-6.3-2.5-8.7c-1.8,0.4-0.6,2.2-1.5,3.1c-1.5-0.2-3-0.5-4.9-0.8   c0.7-4.9,3.2-9.4,2.9-14.4c0.2-4.5-1.5-8.8-0.3-13.2C626.3,556.3,627.6,556.8,629,556.3z" />
	<path fill="#E6CBBB" d="M722,194.5c-0.6-0.3-1.1-0.5-1.7-0.8c-0.6-1.8-2.1-1.4-3.3-1.4c-0.3-0.3-0.7-0.6-1.2-1   c-0.9-0.2-2.2,1.1-3.1-0.3c0.7,0,1.3-0.1,2.5-0.2c-1.5-0.9-2.3-1-3,0c-0.3-0.2-0.5-0.3-0.8-0.5c0.1-1.3,1.3-0.6,1.7-1.2   c-0.5-1.4-2-2.3-1.7-4.2c1.8-0.9,3.3-1.6,5.5-0.7c3.6,1.6,7.9,0.5,11.7,1.8c6.9,2.1,15.7-2.2,14.1-10.3c2.5,7.3,0.2,16.9-7.8,19.5   c-3.4-1.3-8.7,1.3-12.2-0.8c3.2-0.3,6.6,0.6,9.8-0.2C731.4,193.6,721.9,192.5,722,194.5z" />
	<path fill="#B18B7C" d="M729.7,146.1c-2.1-3.9-4.4-7.7-7.8-10.8c16,2.3,22.2,18.6,21.5,33.3C737.9,161.1,734.9,153.6,729.7,146.1z" />
	<path fill="#92909F" d="M678.3,51.8c5.9-8.2,20.1-13.1,28.5-6.3c-9.9-0.8-19.8,1.7-25.6,9.9c-1.2-1-2.3-1.9-3.5-2.8   C677.9,52.4,678.1,52.1,678.3,51.8z" />
	<path fill="#8E8791" d="M677.6,52.7c1.2,1,2.3,1.9,3.5,2.8c-2.5,4.5-6,8.8-6.5,14.2c-0.5,0.6-0.9,1.2-1.4,1.8   c-0.2-0.2-0.4-0.2-0.6-0.2C670.2,65.4,674.5,57.5,677.6,52.7z" />
	<path fill="#ECECEC" d="M738.1,279.6c1.7,8.7,7.4,17.8,4,26.5c-1.6-8.6-3.4-15.9-4.7-24.3C737.9,281,737.3,280.1,738.1,279.6z" />
	<path fill="#CCCECE" d="M738.1,279.6c-1,0.6-0.4,1.6-0.7,2.3c-3.2-9.2-6.9-18.3-9.3-27.9c0.3-0.3,0.5-0.6,0.8-0.8   C731.4,262.1,735.7,270.6,738.1,279.6z" />
	<path fill="#1A1612" d="M664,587.1c-4.3-1.2-7.7,0.9-11.3,1c-0.3-2,1.9-2,2.3-3.2c3.3-0.7,6.6,0.2,9.7-0.1c1,0.5,1.9,0.9,2.8-0.1   c0,1.1,0.2,2.2-0.8,2.8C666,586.4,665,587.1,664,587.1z" />
	<path fill="#120E0D" d="M758.9,552.3c-3.5,1.4-7.3,2.9-10.4,5.5c-5.2-3.3,7.3-6.1,8.4-7.8C757.8,550.5,758.7,551.1,758.9,552.3z" />
	<path fill="#352722" d="M675.6,78.4c-0.3,1.7,2.1,2.3,1.2,4.1c-1.1-0.3-2.3-0.3-3.2-0.9c0.2,0.1,0.3,0.2,0.5,0.3   c-0.1,1.6,1.1,2.9,0,4.3c-0.8-0.2-1.3-0.7-1.4-1.5c1.5-1.8-1.4-3.8-3-4.2c-0.2-0.3-0.4-0.5-0.6-0.8c1-1.1,1-1.1,0-2.1   c0.1-1-0.5-2.2,0.6-2.9c-0.2,1.1,1,0.9,1.5,1.4c-0.6,1.3-0.7,2.1-0.4,3.5c0.9-1.8,1.2-3.5,3.4-3.4c-1.2,1.5-2.7,2.9,0.1,4.1   C674.3,79.4,674.5,76.7,675.6,78.4z" />
	<path fill="#936E61" d="M743.2,312.3c3.1,0.5,5.1,8.2,5.1,11.1c0.1,0.7,0.4,1.1,1.1,1.6c0.1-0.8,0.2-1.4,0.3-2.1   c1.2,2,0.7,3.5-1.2,5.1C746.4,322.8,744.5,317.8,743.2,312.3z" />
	<path fill="#8E6E61" d="M730.7,538.7c2.2,0,4,0,6.1,0C736.4,544.7,729.1,547,730.7,538.7z" />
	<path fill="#261C18" d="M682.7,97.6c-3.3-1.2-5-3.7-5.8-6.9c-0.2-0.8-0.1-1.7-1.3-2.1c-0.4,2.3,0.6,5-0.8,6.9c0-2.9,0-5.8,0-8.7   c1.1,0.4,2-0.2,2.8-0.8C678.6,90.3,679.4,94.2,682.7,97.6z" />
	<path fill="#241E1B" d="M729.7,146.1c3.5,4.9,6.2,10.5,9.2,15.8c-0.2,0.5-0.5,1-0.7,1.6c-2.5-5.6-6.5-10.4-9.3-15.8   C729.7,147.4,729.7,146.7,729.7,146.1z" />
	<path fill="#282724" d="M712.5,156.7c1-1,2.3-0.2,3.2-0.7c0.9-1.2,1.8-2.3,2.5-3.4c0.2,0.2,0.4,0.3,0.6,0.5   c0.1-0.9,0.1-1.9,0.2-2.7c0.8,0.9,0.4,2.3,1.4,2.9c-0.7,2.5-2.6,3.6-5.1,4.2C714.6,156.8,713.6,156.7,712.5,156.7z" />
	<path fill="#382622" d="M699.1,109.6c-3.5-1.2-6.2-3.6-9-6.2c3.3,1.4,6.8,3.3,9.7,5.5C699.6,109.1,699.3,109.4,699.1,109.6z" />
	<path fill="#7A6054" d="M674.1,76.1c-2.2-0.1-2.5,1.8-3.4,3.4c-0.2-1.5-0.1-2.3,0.4-3.5c-0.5-0.5-1.7-0.3-1.5-1.4   c0.2-1,0.3-1.9,1.5-2.1C672.1,73.8,673.1,75,674.1,76.1L674.1,76.1z" />
	<path fill="#8F6D5F" d="M677.7,86c-1.1,0.8-2.6,1.5-3.5,0.1c1.1-1.4-0.1-2.6,0-4.3l0,0c0.9,0.2,1.9,0.4,2.7,0.6   C677,83.7,676.7,85,677.7,86z" />
	<path fill="#7A6054" d="M675.6,78.4c-1.1-1.7-1.4,1.1-1.5,1.9c-2.8-1.1-1.3-2.6-0.1-4.1l0,0c1.6-0.3-0.5-1.8,0.8-2.3   c0.8,0.7,1.8,0.9,2.8,0.8c-0.7,0.4-1.3,0.8-2,1.2C675.3,76.7,676.8,77.5,675.6,78.4z" />
	<path fill="#0E0B0A" d="M752.5,290.3c-1.3-5.1-0.3-10.6-0.6-15.9C753.7,279.1,751.9,285.2,752.5,290.3z" />
	<path fill="#302624" d="M674.8,73.9c-1.2,0.5,0.8,1.9-0.8,2.3c-1-1.2-1.9-2.3-2.8-3.5c0.3-0.2,0.5-0.5,0.8-0.7   c0.3,0.4,0.6,0.8,1.2,1.6c0.1-1.1,0.3-1.4,0.2-2.1c0.5-0.6,0.9-1.2,1.4-1.8C674.8,71.1,674.3,72.4,674.8,73.9z" />
	<path fill="#6F554A" d="M630.8,548c-1.3,1.7-0.6,3.4-1.9,4.6C626.6,551.8,627.9,547.6,630.8,548z" />
	<path fill="#A8A9A9" d="M728.9,253.1c-0.3,0.3-0.5,0.6-0.8,0.8c-0.7-2.6-1.3-5.3-2-8c0.3,0,0.5,0,0.8,0   C727.7,248.4,728.3,250.7,728.9,253.1z" />
	<path fill="#B1AF99" d="M749,547.8c-0.5-1.1-1.6-0.4-2.3-0.8c2.4-0.5,4.8-1.3,7.3-1.5c0,0.3,0,0.7,0,1.2   C752.3,547.1,750.8,547.8,749,547.8z" />
	<path fill="#DFD9D9" d="M749,330.8c-0.6,1-1.2,2-1.9,3c-1.1-1.5-0.8-3-1-4.4c0.2,0,0.5-0.1,0.7,0c0.5,0.7,1.3,1.1,2.1,1.6   L749,330.8z" />
	<path fill="#6D5348" d="M669.7,80.4c1.7,0.4,4.5,2.4,3,4.2C671.4,83.4,670.4,82,669.7,80.4z" />
	<path fill="#6F7171" d="M726.1,243.9c-1.2-2-0.6-4-0.2-6.1c0.3,1.8,0.6,3.6,0.9,5.4C726.5,243.5,726.3,243.7,726.1,243.9z" />
	<path fill="#8A6A5E" d="M702.5,152.5c-1.2-2.2-1.7-3.4-1.6-4.1c1.2,0.3,1.5,2,2.3,2.8C702.4,151.4,702.7,152.1,702.5,152.5z" />
	<path fill="#595C5C" d="M746.9,329.5c-0.2,0-0.5,0-0.7,0c-0.4-1.5-1-2.8-0.8-4.3C747.3,325.7,746.8,327.9,746.9,329.5z" />
	<path fill="#A19E83" d="M664,587.1c1,0,2.1-0.7,2.7,0.6c-0.7,0.2-1.4,0.4-2.1,0.6C664.5,587.9,664.3,587.5,664,587.1z" />
	<path fill="#302624" d="M671.8,67.6c0.1,1.3-0.3,2.5,0.9,3.5C670.8,71.5,670.5,68.5,671.8,67.6z" />
	<path fill="#432D25" d="M697.6,314.5c1,1.1,1,1.4,0,2.8c-0.3-0.7-0.9-1.3-0.7-2.1C697.1,315,697.4,314.8,697.6,314.5L697.6,314.5z" />
	<path fill="#B3B4B4" d="M726.1,243.9c0.2-0.3,0.5-0.5,0.7-0.8c0.1,0.9,0.2,1.9,0.2,2.7c-0.3,0-0.5,0-0.8,0   C726.2,245.3,726.1,244.6,726.1,243.9z" />
	<path fill="#242B25" d="M754,545.5c-0.5,0-1,0.1-1.5,0.1c0-0.6,0-1.1,0-2.3C753.3,544.4,753.7,544.9,754,545.5z" />
	<path fill="#767676" d="M645.5,23.3c0.5-0.5,1-1,1.4-1.4c0.4,1.3-0.8,1.7-1.4,2.3c-0.1-0.1-0.1-0.2,0-0.4   C645.4,23.7,645.4,23.5,645.5,23.3z" />
	<path fill="#6D5D53" d="M673.4,71.7c-0.1,0.4-0.1,0.9-0.2,1.7c-0.6-0.7-0.9-1.1-1.2-1.6C672.4,71.8,672.9,71.8,673.4,71.7z" />
	<path fill="#2C2F2F" d="M639.5,38.1c-0.6-0.6-0.1-0.7,0.3-1.1C640.4,37.5,639.8,37.7,639.5,38.1z" />
	<path fill="#74594E" d="M669.1,77.6c1,1.1,1,1.1,0,2.1C669.1,79,669.1,78.3,669.1,77.6z" />
	<path fill="#3A4242" d="M639.5,34c-0.7-0.5,0.1-1.5,0.7-0.9C640,33.4,639.8,33.6,639.5,34z" />
	<path fill="#432D25" d="M696.4,316.6c0.2-0.2,0.4-0.5,0.5-0.7C696.8,316.2,696.6,316.5,696.4,316.6z" />
	<path fill="#432D25" d="M697.4,318c-0.1,0.3-0.3,0.6-0.4,0.9C697.1,318.6,697.3,318.3,697.4,318z" />
	<path fill="#977264" d="M666.2,118.2c-0.3,0-0.6,0-0.9,0C665.6,117.5,665.9,117.5,666.2,118.2z" />
	<path fill="#8E8791" d="M678.3,51.8c-0.2,0.3-0.5,0.5-0.7,0.8C677.9,52.4,678.1,52.1,678.3,51.8z" />
	<path fill="#7B5E52" d="M750.4,338.8c-0.6-0.6-1.1-1.2-1.7-1.8c1.7-2.1,3.3-4.1,4.9-6.1c-0.1-0.9-0.2-1.5-0.3-2.2   c0.2,0,0.5,0,0.7-0.1c2.4,3.2-3.4,6.4-3,10C750.8,338.7,750.6,338.8,750.4,338.8z" />
	<path fill="#614B42" d="M754.1,328.7c-0.2,0-0.5,0-0.7,0.1c0.2-3.6-0.1-7.3-2.9-10C755.3,317.1,753.7,325.7,754.1,328.7z" />
	<path fill="#7C6054" d="M750.5,330.2c-0.1-0.4-0.5-1.1-0.3-1.3c1.5-1.3,0.8-3,1.2-4.9C753.2,325.7,752.5,329.1,750.5,330.2z" />
	<path fill="#85665A" d="M755.4,332.9c0.1,0.6,0,1.3,0.8,1.5c-0.8,1.4-1.5,2.7-2.3,4.1c-0.2-0.4-0.5-0.9-0.7-1.3   C753.9,335.8,754.7,334.4,755.4,332.9z" />
	<path fill="#523D35" d="M750.4,338.8c0.2-0.1,0.5-0.1,0.7-0.1c0,0.9-0.1,1.8-0.1,3.3C749.2,340.7,749.9,340.2,750.4,338.8z" />
	<path fill="#493630" d="M753.2,337.2c0.2,0.4,0.5,0.9,0.7,1.3c0,0.9-0.6,1.3-1.3,1.6l0,0C752.7,339.2,752.1,338,753.2,337.2z" />
	<path fill="#595C5C" d="M748.9,331c-0.5-0.3-0.9-0.5-1.4-0.8C748.1,330.3,749,329.8,748.9,331z" />
	<path fill="#493630" d="M752.5,340.1c-0.1,0.2-0.2,0.3-0.3,0.5C751.8,340.1,752.3,340.2,752.5,340.1L752.5,340.1z" />
	<path fill="#595C5C" d="M747.5,330.2c-0.2-0.3-0.4-0.5-0.7-0.8C747,329.7,747.2,330,747.5,330.2z" />
	<path fill="#957062" d="M475.6,125.5c7.3,0.7,16.1-4,24.3-2.8c-3,3-7.5,1.1-11,3.4c-7.2-0.7-15.4,6.4-22.2,2.3   c0.6-0.4,0.8-0.7,1.1-0.7C470.8,128,472.8,125.2,475.6,125.5z" />
	<path fill="#93786B" d="M465.6,126.8c3.6-2.4,8.3-4,12.9-4.2C474.3,124.5,470.2,127,465.6,126.8L465.6,126.8z" />
	<path fill="#886C61" d="M465.5,126.8c0,0.7-0.1,1.4-0.1,2c-1.4,0.1-1.8-0.6-1.8-1.9C464.4,126.9,465,126.8,465.5,126.8L465.5,126.8   z" />
	<path fill="#957062" d="M477,124.8c-0.3,0.2-0.6,0.3-0.9,0.5C476.4,125.1,476.7,125,477,124.8z" />
	<path fill="#2E201C" d="M489,126c3.3-2.3,7.8-0.4,11-3.4c0.4,0,0.9-0.1,1.3-0.1c0.2,0.2,0.5,0.4,0.7,0.6c-3.8,2.5-7.6,3.2-12,3.6   C489.6,126.4,489.3,126.2,489,126z" />
	<path fill="#443632" d="M713.9,75.6c-0.5,0.4-1.1,0.7-1.9,1.3c-0.1,0.4-0.2,1.2-0.4,2.1c-2-2-1.8-3.7,0.6-6.9   c0.2,0.7,0.4,1.1,0.5,1.7c0.9-0.2,0.2-1.5,1.3-1.6c0.3,1.5,1.8,1.9,1.4,3.4c-0.2-0.1-0.5-0.1-0.7-0.1l0,0c-0.1-0.4-0.1-0.8-0.2-1.4   C714,74.5,713,74.7,713.9,75.6z" />
	<path fill="#292220" d="M716,67.5c0.5-0.2,1-0.4,1.6-0.6C717.3,67.6,716.6,67.6,716,67.5z" />
	<polygon fill="#3B3B3B" points="717.9,73.8 717.8,73.6 718.1,73.6  " />
	<path fill="#C0C6C6" d="M714.8,75.4c0.2,0,0.5,0,0.7,0.1c0.1,0.2,0.1,0.5,0.1,0.7C715.2,75.9,715,75.7,714.8,75.4z" />
	<path fill="#3C2924" d="M699.8,96.9c0.4-1.7,1.5-1.5,2.7-1.1c3.1-2.6,6.7-3.7,11.4-3c0.1,0.1,0.5,0.7,0.9,1.3   c-3.4,0.7-7.2-1.1-10.6,1.9c3.5,1.3,7.6-0.6,11.4-0.6c-0.5,0.6-1.1,1.1-1.7,1.7C709,96.8,704.7,98.2,699.8,96.9z" />
	<path fill="#906E60" d="M699.8,96.9c4.8,1,9.5,0.9,14.2,0.1c0.5,1-0.6,2.2-0.8,3.1c-3.3,2.4-7.3-2-10.6-1.1   c-0.7-0.7-1.2-1.7-2.4-1.7C700,97.4,699.9,97,699.8,96.9z" />
	<path fill="#B7CFCF" d="M645.5,23.3c-0.1,0.2-0.1,0.4,0,0.6c-0.2,0-0.4-0.1-0.6-0.1C645.1,23.6,645.3,23.5,645.5,23.3z" />
	<path fill="#D69479" d="M730.4,416.5c-4.4-0.9-7.4-3-8.5-7.7c0.7-1.4,1.7-2.4,3.3-3.1c2.4,1.5,5.5,3,5.3,6.4c0,0.7,0,1.5,0.9,1.8   C730.6,414.5,730.3,415.5,730.4,416.5z" />
	<path fill="#D39278" d="M659.8,409.3c-2.8-1.9-5.4-5.2-4.9-8.7c2.3-2.6,2.3-2.6,5.5-0.8c0,0.3,0.1,0.7,0.1,1   c-0.5-0.3-0.9-0.6-1.7-1C657.7,403.5,658.9,406.3,659.8,409.3z" />
	<path fill="#241814" d="M653.6,461.2c0.3-3.7,1.7-6.9,3.8-10.4C659.2,453,656.1,460.5,653.6,461.2z" />
	<path fill="#C78970" d="M659.8,409.3c0-0.2,0-0.5,0-0.7c1.8-1.6,0.4-5,0.8-7.1c1.8,2.3,2.8,4.9,2.7,7.9c-0.4-0.1-0.8-0.3-1.5-0.4   c0,1.3,0,2.3,0,3.2C660.6,411.6,661.8,409.1,659.8,409.3z" />
	<path fill="#2F1F1A" d="M734.9,410.7c0-3,1.3-6.7,2.9-8.7C738.7,404.7,737.9,407,734.9,410.7z" />
	<path fill="#201612" d="M660.6,401.5c-0.4,2.3,1,5.6-0.8,7.1c-1.5-2.6-1.8-5.5-1-8.8c0.7,0.5,1.2,0.7,1.7,1   C660.4,401.1,660.5,401.3,660.6,401.5z" />
	<path fill="#AC7562" d="M674.1,303.7c3.8,1.1,6.8,3.4,9.7,6.3C680.3,308.6,676.6,306.4,674.1,303.7L674.1,303.7z" />
	<path fill="#3C2922" d="M726.8,450c0.9-2,2.2,0.6,2.7,1.5c0,1.1,0,2.1,0,3.5C727.8,453.5,727.7,452,726.8,450z" />
	<path fill="#473028" d="M729.4,458.9c2,0.8,2.8,2.3,2.3,4.5C729.7,462.4,729.7,460.7,729.4,458.9z" />
	<path fill="#6D4A3E" d="M679.7,312.9c2.6,0.5,4.7,1.4,6.4,3.3C683.4,315.9,681.9,315.1,679.7,312.9z" />
	<path fill="#17110E" d="M661.9,412.2c0-1,0-2.1,0-3.2c0.6,0.2,1,0.3,1.5,0.4c0,1.3,1.3,2.6-0.3,4   C662.6,413,662.3,412.6,661.9,412.2z" />
	<path fill="#3F2720" d="M701.9,312.4c-0.6,0.4-1.2,0.9-2.1,1.5c-0.1-0.8-0.1-1.2-0.1-1.7c1.1-0.9,1.5-2.4,3-2.7   C703.3,310.8,702.1,311.5,701.9,312.4z" />
	<path fill="#18100D" d="M652.3,467.7c-0.9-2.8-0.8-3,0.6-4.1C653.8,466.3,653.8,466.5,652.3,467.7z" />
	<path fill="#231915" d="M649.4,477.7c-0.8-1.4-0.5-2.4,0.1-3.8C651.1,475,651,476.5,649.4,477.7z" />
	<path fill="#5B3F35" d="M732.5,468.7c-1.8-0.4-2.1-1.3-2-2.4C731.9,466.7,731.9,466.7,732.5,468.7z" />
	<path fill="#492E26" d="M730.4,416.5c-0.1-1.1,0.2-2,0.9-2.7C732.6,415.1,731.9,417.4,730.4,416.5z" />
	<path fill="#735245" d="M732.7,472.6c-0.7,1.2-1.7,0.8-1.1-0.4C731.9,472.3,732.2,472.4,732.7,472.6z" />
	<path fill="#AC7562" d="M674.1,303.7c-0.3-0.1-0.7-0.1-1.1-0.2C673.6,302.8,673.8,303.2,674.1,303.7L674.1,303.7z" />
	<path fill="#D69479" d="M697.6,314.5c-0.2,0.3-0.5,0.5-0.7,0.8C697.1,315,697.4,314.8,697.6,314.5z" />
	<path fill="#0C0908" d="M661.9,181.7c7.5,11.7,23,7.4,34.1,8.5c-10.7,4.2-28.6,4.3-34.7-7C661.2,182.6,661.1,182,661.9,181.7z" />
	<path fill="#E7CDBC" d="M702.5,229.6c2.3,9.8-0.2,19.6,0,29.6C700.3,250.4,699.2,237.9,702.5,229.6z" />
	<path fill="#322C29" d="M721.8,279.8c1.1-3.6,1.7-6.8,3.3-10.5c1.8,3.6-0.7,7.7-2.7,10.8C722.2,279.9,722,279.9,721.8,279.8z" />
	<path fill="#1F1614" d="M722,194.5c-0.1-2.1,9.5-1,10.5-0.1C728.9,195.2,725.3,194.4,722,194.5z" />
	<path fill="#5E5650" d="M718.5,249.7c-0.6-2.9-1.1-5.3-1.7-8.2C719.1,243.6,720.6,247.7,718.5,249.7z" />
	<path fill="#060605" d="M716.6,239.5c-1.1-1.8-1.2-2.9,0.1-4.3C717.9,236.6,717.7,237.9,716.6,239.5z" />
	<path fill="#473F3A" d="M669,271.6c0.1-0.5,0.2-1,0.4-1.6c1.6,0.3,1.5,1.5,1.8,2.3c-0.9,1.2-1.3,0-1.9-0.3   C669.2,271.9,669.1,271.8,669,271.6z" />
	<path fill="#685751" d="M716.9,192.5c1.4-0.1,2.7-0.4,3.3,1.4C718.9,194,717.7,193.7,716.9,192.5z" />
	<path fill="#50403C" d="M720.1,283.4c0.7,1.2,0.3,2-1,2.5C718.6,284.7,719,284,720.1,283.4z" />
	<path fill="#312825" d="M717.9,288.1c0.1,1.4-0.2,2.2-1.5,2.4C716,289.4,716.7,288.9,717.9,288.1z" />
	<path fill="#9C8C82" d="M717.7,224.9c-1.7-1.9-1.7-1.9-0.3-2.3C717.5,223.1,717.6,223.6,717.7,224.9z" />
	<path fill="#5D413D" d="M712,190.9c0.8-1,1.6-0.9,3,0c-1.3,0.1-1.9,0.1-2.5,0.2C712.4,191,712.3,190.9,712,190.9z" />
	<path fill="#E6CCBB" d="M674,281.7c-0.3-0.5-0.5-0.9-0.8-1.4l0.1-0.1C673.5,280.7,673.8,281.2,674,281.7L674,281.7z" />
	<path fill="#9B887E" d="M717.3,233.4c-0.3,0.4-0.5,0.4-0.9,0C716.6,233,716.9,233.3,717.3,233.4z" />
	<path fill="#352725" d="M717.2,228.8c-0.3-0.5-0.5-0.9-0.1-1.3C717.8,227.8,717.7,228.4,717.2,228.8z" />
	<path fill="#110B0A" d="M626.8,134c-3.3,1.4-7.2-3.2-10.7-4.2c0.1-0.2,0.1-0.5,0.1-0.7C619.9,127.3,623.9,132.1,626.8,134z" />
	<path fill="#2F2622" d="M603.4,138.3c4.2,0,8.5-2.3,12.5-0.4c-3.7,2.7-8.4,1.6-12.5,1C603.4,138.7,603.4,138.5,603.4,138.3z" />
	<path fill="#3B2B27" d="M616.2,129.1c0,0.2,0,0.5-0.1,0.7c-1.5,0.1-2.9-0.1-4.1-1C612.4,126.1,615,128.7,616.2,129.1z" />
	<path fill="#49423A" d="M501.9,123.1c-0.2-0.2-0.5-0.4-0.7-0.6c1.5-1.2,3-1.4,5.5-1.1C505.1,123,503.8,122.6,501.9,123.1z" />
	<path fill="#6D554C" d="M595.2,137.8c1.1-0.3,2.1-0.6,3,0.1C597.2,139.3,596.6,139.3,595.2,137.8z" />
	<path fill="#362521" d="M520.5,127.6c0.3,0.5,0.6,1,1,1.7c-1.1,0.1-1.7-0.2-2.3-1c0.2-0.3,0.5-0.5,0.8-0.8   C520,127.5,520.2,127.6,520.5,127.6z" />
	<path fill="#40302B" d="M603.4,138.3c0,0.2,0,0.4,0,0.6c-0.6,0-1.3-0.1-1.9-0.1c0-0.2,0-0.3,0-0.5   C602.1,138.3,602.7,138.3,603.4,138.3z" />
	<path fill="#4A352F" d="M562.2,129.1c0.6-0.1,1.1-0.1,2.1-0.2C563.4,130,562.9,129.9,562.2,129.1z" />
	<path fill="#27211F" d="M661.9,181.7c-0.7,0.2-0.6,0.9-0.7,1.4c-2.6-3.7-3.9-6.4-4.2-8.6C659.1,175.6,660.2,179.7,661.9,181.7z" />
	<path fill="#3D3832" d="M674.1,281.6c-0.2-0.5-0.5-1-0.7-1.4c0.1-0.3,0.2-0.7,0.3-1.2c1.1,1,1.9,1.9,1.8,3.4   C674.8,282,674.4,281.8,674.1,281.6z" />
	<path fill="#211C1A" d="M655.9,172.2c-1.2-0.5-1.5-1.3-1.1-2.4C656.3,170.7,656.3,170.7,655.9,172.2z" />
	<path fill="#3A2A26" d="M699.9,187.4c-0.7,1.6-1.5,1.8-2.7,1.4C697.6,187.5,698.4,187.3,699.9,187.4z" />
	<path fill="#AB9589" d="M702.6,186.7C700.1,186.6,702.3,184.3,702.6,186.7L702.6,186.7z" />
	<path fill="#42332E" d="M668.2,265.4c0,1.4-0.5,1.4-0.5,0C667.8,265.4,668,265.4,668.2,265.4z" />
	<path fill="#0E0A0A" d="M690.4,72.8c4.1-0.8,8.3-3.1,11.9,0.2c0.3,1.1,0.6,2.3,0.9,3.6c-3.9,0.3-7.7,1.2-11.4-0.5   C691.4,75.1,690.9,74,690.4,72.8z M696.6,73.8c-1.2,0.2-2.2-0.2-2.8,1.1c0.7,0.9,1.6,1.5,2.9,1.2C696.7,75.4,696.7,74.8,696.6,73.8   z M700.4,74.4c-0.2-0.3-0.3-0.3-0.5,0C700.1,74.6,700.2,74.7,700.4,74.4z" />
	<path fill="#8F6F61" d="M715.5,95.3c-3.7,0-7.8,1.8-11.4,0.6c3.4-3,7.1-1.3,10.6-1.9C715.1,94.4,715.2,94.8,715.5,95.3z" />
	<path fill="#170D0C" d="M693.3,66.9c3.9-0.3,9.5-1,12,2.6c-0.4,1-1.2,0.8-1.8,0.5C700.4,68.2,696.6,68.8,693.3,66.9z" />
	<path fill="#453530" d="M709,88.5c-3.3,2.9-9.6,0.4-4.5-3.7c0.4,1.3-1.4,2.8,0.4,3.8C707.2,86.8,707.2,86.8,709,88.5z" />
	<path fill="#3E2F29" d="M714.6,87.1c-0.4-1.7-2.2-3.3-1.7-4.9c1.2,1.8,2.1,3.1,3.2,5c-0.5,0.8-1,1.6-1.5,2.3   c-0.8-0.1-1.5-0.3-2.2-0.3c-0.5,0-1,0.7-1.7,0C711.7,88,712.9,87.2,714.6,87.1z" />
	<path fill="#392D28" d="M693.3,66.9c1,0.4,1.9,0.8,2.8,1.3c-2.4-0.4-4.6,1.1-7.5,1.4C690.1,67.7,691.7,67.2,693.3,66.9z" />
	<path fill="#4F3E37" d="M685.5,99.7c-1.4,1.3-2.9-0.7-2.9-2.2C683.5,98.3,684.5,98.9,685.5,99.7z" />
	<path fill="#C0C6C6" d="M713.9,75.6c-0.9-0.9,0-1.1,0.7-1.5c0.1,0.5,0.1,0.9,0.2,1.4C714.5,75.5,714.2,75.5,713.9,75.6z" />
	<path fill="#322723" d="M742.2,217.2c-0.5-3.3-0.5-3.9,0.6-6.3C744.7,212.4,744.2,216.1,742.2,217.2z" />
	<path fill="#0B0505" d="M740.8,218.2c0.9,1.6,0.9,1.6-0.1,4.1C739.6,221,739.3,219.6,740.8,218.2z" />
	<path fill="#302522" d="M738.3,224.5c0-0.5,0-1-0.1-1.4c0.3,0.2,0.5,0.3,0.8,0.5C738.8,223.9,738.5,224.2,738.3,224.5z" />
	<path fill="#362420" d="M671.1,129.4c0.9-2,5.4-0.6,6.8,0.7C675.8,130.5,672.9,130.9,671.1,129.4z" />
	<path fill="#2E211E" d="M687,131.6c0.7-0.7,1.4-0.8,2,0C687.9,132.9,687.9,132.9,687,131.6z" />
	<path fill="#13100E" d="M683.8,131.6c-0.8,0.4-1.5,0.3-2.3,0.1C682.2,130.1,682.7,130.1,683.8,131.6z" />
	<path fill="#16120F" d="M761.4,556.3c-2.3,2.8-5,4.3-8.7,5.1C751.4,558.5,759.4,554.4,761.4,556.3z" />
	<path fill="#29231E" d="M758.5,562.7c-1.4-2.7,4.1-4.6,5.4-2.3C762.7,562.6,760.7,562.6,758.5,562.7z" />
	<path fill="#0B0807" d="M636.3,556.2c-0.9-5.3,8.5-8.1,12.5-6.8c0.6,2.9-9,2.1-11.3,7C637,556.4,636.6,556.3,636.3,556.2z" />
	<path fill="#110D0C" d="M644.2,553.5c2.3,0.4,4.5-1.6,5.4,1.8c-3.8,0.7-8.3,1.2-10.1,5.1c-2.2,0-1.4-2.2-1.1-3.4   C640.1,555.4,642.2,554.5,644.2,553.5z" />
	<path fill="#13100E" d="M639.7,564.6c-1.7-3.8,11.3-9.5,11.6-4.8C647,561.3,644.1,562.4,639.7,564.6z" />
	<path fill="#171512" d="M642.5,569c0.1-1.7,0.2-2.6,1.7-3.2c2.5-0.6,5.8-4.1,8.1-1.9C650.4,566.8,646.1,567.5,642.5,569z" />
	<path fill="#191714" d="M644.5,571.7c2.5-2.5,7.1-4.6,10.1-2.3C652.5,571.2,646.9,573.6,644.5,571.7z" />
	<path fill="#C7CDB3" d="M644.2,553.5c-2.1,1-4.1,1.9-5.8,3.5c-0.8-0.1-1.9,0.5-2.2-0.8c0.3,0.1,0.7,0.1,1.2,0.3   c1.4-1.6,2.7-3.5,5.2-3.6C643.1,553,643.6,553.3,644.2,553.5z" />
	<path fill="#1A1311" d="M627.4,137.6c3.4-0.3,4.8,2.3,5,5.4C630.1,141.9,628.9,139.9,627.4,137.6z" />
	<path fill="#140E0C" d="M638.2,149.8c1.1,1.5,2.7,2.1,2.3,4.2C638.9,152.9,637.7,152,638.2,149.8z" />
	<path fill="#2E211D" d="M635.9,147.6c-1.6-0.6-2-1.6-2.3-2.7C635.9,144.6,636.4,145.2,635.9,147.6z" />
	<path fill="#41322C" d="M523,130c0.5-0.6,1.1-0.1,1.7,0.2C524.7,131.4,523.1,130.9,523,130z" />
	<path fill="#684E44" d="M643.4,156.9c-0.9,0.6-1.1,0.6-1.3-0.3C642.5,156,642.9,156.4,643.4,156.9z" />
	<path fill="#1C1511" d="M769,575c-1.6,0.8-2.3,2.8-4.2,1.6c-0.6-4.1,12.7-6.4,12.7-2.5C774.6,574.3,771.8,574.7,769,575z" />
	<path fill="#8F6D5F" d="M674.1,81.8c-0.2-0.1-0.3-0.2-0.5-0.3C673.8,81.7,673.9,81.8,674.1,81.8L674.1,81.8z" />
	<path fill="#393431" d="M712,96.9c-1.4,0.8-2.9,0.6-4.4,0.6C708.8,96.4,710.6,97,712,96.9z" />
	<path fill="#C5C9C9" d="M696.6,73.8c0.1,1,0.1,1.6,0.2,2.3c-1.5,0.3-2.3-0.3-2.9-1.2C694.5,73.6,695.4,74,696.6,73.8z" />
	<path fill="#B28C7D" d="M700.4,74.4c-0.2,0.3-0.3,0.2-0.5,0C700.1,74.1,700.2,74.1,700.4,74.4z" />
</g>
<g id="a_00000116919013832498063600000012795899070977964216_">
	<path d="M191.7,96.1c-1.3-0.1-2.5-0.3-4-0.4c-0.2,0.6-0.4,1.2-0.7,1.8c-2.5,0.1-2.2-2.8-5.5-2.4c-0.4,0.4-0.7,0.8-1,1.1   c-2.5-0.8-2.8-3.1-4.2-5c-0.1,0.1-0.3,0.1-0.4,0.2c0.2,1.1,0.4,2.1,0.7,3.1c-3.1,0.9-2.9-3.5-5.7-4.1c-0.1,0.4-0.3,0.9-0.4,1.4   c-2,0.8-2.6-1.6-3.7-2.5c-3.1-1.1-3.2-5.1-4.7-7.7c-6.9,0.7-4.3-8.8-4.1-12.8c-1.1-0.3-0.9,0.6-1.2,1c-0.5,0-0.9,0-1.4,0   c-0.4-3.4-1.2-6.6,0.4-9.9c-0.2-0.3-0.5-0.6-0.7-0.8c-0.5,0.4-1,0.7-1.7,1.2c-3.2-3.1,1.5-8.2-1.3-11.3c-1.3-4.5,2.7-7.8,3.7-11.9   c-0.4-1.3,0.8-2,1-2.9c0.9-0.8,2-1.5,2-3.1c-0.9,0.7-1.5,1.2-2.1,1.7c-2.1-1.5,0.9-3.7,1.5-5.6c1.5-0.6,3-1.2,5.1-2   c-1.3-0.2-2.1-0.4-3-0.5c0.4-0.6,0.6-1,0.8-1.4c2,0,3.9-0.2,5.2-2.1c-1.6-2-0.9-3.1,1.1-4.1c0.9-0.4,2.1,1.2,2.4-0.7   c-0.6-0.4-1.2-0.8-1.9-1.2c0.2-0.7,0.4-1.3,0.6-1.8c3-0.6,5.9-1.2,8.8-1.8c0.3-1.1,0.6-1.9,0.8-2.7c0.9-0.8,1.7-1,2.5-0.2   c0.8,0.6,1.7,0.6,2.3,0c1.8-1.8,4.2-2.2,6.4-2.9c0.7,0.2,1.4,0.3,2.2,0.5c2.5-2.3,4.9-1.5,6.7,0.7c3.7,0.2,10.6-6,12.3-0.8   c-1.1,0.3-2.1,0.7-3.4,1.1c1.7,1.2,2.9,1.1,4-0.4c1.9-1.1,8.1-3.4,9.1-0.7c-1.1,0.5-2.3,1-3.8,1.7c1,0.5,1.8,1.2,2.2,1.1   c3.4-0.6,7,1,10.3,1c0.9,0.8,1.7,1.4,2.5,2.1c0,0.4-0.1,0.9-0.1,1.4c-1,0-2.1,0-3.2,0c0,0.3-0.1,0.8-0.1,1.3c1.5,0.1,2.7,0.2,4,0.3   c1.9,2.1,4.4,3,7,4.1c-0.1,0.7-0.1,1.1-0.2,1.9c1.9,1.5,2.9,3.7,4.2,6.1c-0.6,0.4-1.1,0.7-1.8,1.1c0.4,0.9,0.9,1.8,1.4,2.8   c-0.3,0.5-0.7,1.1-1.1,1.8c0.5,0.5,1.2,1.1,1.9,1.8c0,1.8,0,3.6,0,6c-0.2,0.1-0.7,0.5-1.3,0.9c0.1,1.3,0.3,2.5,0.4,3.8   c-1.1,1.6-1.1,1.6-2.8,2.4c0.8,1.7,0.5,3.1-0.5,4.6c-1.1,0.5-0.7,1.4-0.7,2.3l0,0c-2.3-1-0.7,2.2-2.3,2.7c-4.3-7.5-3.4-11.3-13-9.3   c-7.3-2.1-13.6,1.8-19.5,5.9c0.3,1.8-2.1,3-2.9,4.6c1.2,2.6-1.5,5.2-0.7,7.9c-0.4,1.5-1.6,2.6-2.5,3.8c-1.3,0.5-0.4,2.7-2.4,2.7   c-5.6-4.6,2-13.4,4.6-18.3c4.6-8.7,15.8-10.2,24.7-10.9C209.7,32.3,187.7,53.3,191,69c-0.8,0.9-2,1.6-2.3,2.7   c-2.5,5.2-0.4,8.7,3.8,12.2l0,0c0.4,0.5,0.9,1,1.4,1.4c0.1,6.3-0.1,12.5-0.8,18.6C191.5,101.6,193.7,98.1,191.7,96.1z M186.9,7.6   c0.1,2,1.3,1.2,2.5,0C188.1,7.6,187.5,7.6,186.9,7.6z M157.4,36.3c1.1,0.2,1.1,0.2,1.3-1.2C158.2,35.6,157.8,35.9,157.4,36.3z    M154.1,46.9c-0.2,0.2-0.1,0.3,0.1,0.4c0-0.1,0.1-0.3,0.1-0.4C154.2,46.9,154.1,46.9,154.1,46.9z" />
	<path fill="#010101" d="M235.3,129c20.9,2.6,33.6,22.7,28.1,42.9c1.6,18,0.3,36.5,6.8,54c4.6,21.3,3.2,44.3,1.6,65.4   c-2.8-16.2,0.2-32.7-1.6-49c-1.8-17.6-8.3-33.6-8.3-51.5c-2.2,4.1-6.3,4.5-9.3,7.1c-12.7,46-0.4,52.3,10.3,94.1   c0.5,0.1,1.1,0.2,1.7,0.3c1,10-5.2,17.9,0.2,27.7c-0.6,1.4-0.9-0.6-1.4-0.1c-0.1,0.9-0.5,1.8,0.5,2.5c0.2,1-0.2,2.2,0.7,2.9   c4.5,31.4-1.2,63,0.5,94.3c-2.5,15.2,3,30.2,2.7,45.5c1.7,21.8-2.4,43.3-1.5,65c1.2,0.2,2.2,0.4,3.2,0.5c2.1,2.9,2.1,6.4,2.5,10.1   c6.2,6.8,10.9,16.8,19.3,20.9c7,1.1,8.7,8.3,9,14.3c-11.6,8.8-30.9,8.4-43,0.5c-5.1,2.4-17.6,1.9-20.3-3.8c3.1-4.8,4-10.4,3-16.1   c-1.3-6,3.1-11.4,2.3-17.4c2-1.7,2-1.7,5.3-1.2c0.2-34.3-21.3-64.8-14.8-99.2c-0.5-31.4-16.8-60.6-22.1-91.6   c-5.5,19.8-7.6,42.8-14.7,63c-0.9,0.3-0.8,1-0.6,1.7c-0.1,0.8-1.3,0.9-0.9,1.9l0,0c-0.7,0.2-0.8,0.8-0.7,1.4l0,0   c-0.2,0-0.5,0-0.7,0l0,0c0-0.7,0-1.5,0-2.2c1.6-0.9-0.1-2.6,1.4-3.6l0,0c4.1-16.4,7.7-34.6,11.5-51.6c3.4-14.5,2.7-31.1,10.3-44.1   v0.1c0.3,0.1,0.6,0.1,1.1,0.2c-14.9,40.6,15.7,80.9,18.2,121.4c-7.9,34.5,14.1,65.6,14.4,99.9c9.6,2.9,5.2-3.9,13.9-5.9   c2.3-40,0.7-79.8-1.8-119.9c1.8-39.8,4.2-80.8-6.9-119.7c-31.8,12.1-65.8-1.9-98.3,0.7c-2.6,7.9-1.9,13.2,4.3,18.9   c-0.1,0.2-0.1,0.5-0.1,0.7c-0.2,0.2-0.5,0.5-0.7,0.7c-4.5-4-8.7-9.2-11.2-14.6c0.4-0.7,0.6-1.1,0.8-1.5c-1.5-0.7-1.5-1.8,0.1-2.4   c3.1-36.9,7.7-73.1,13.7-109.5c1.9-6.4-1.8-15.1,3.2-20c0.5,0.5,0.9,0.9,1.2,1.2c8.5-11.6,11.7-27.3,5.8-40.7   c-10.3,7.1-24.9,6.9-30.1,19.9c-2.4,6.3-1.7,13.2-1.3,19.8c1.1,11-2.8,22-3.8,33c-2.5,8.4,0.4,17.9-2.7,26   c-0.8,6.9-4.3,13.3-3.8,20.5c-0.3,23.1,10.7,45.6,7.2,68.4c-2.8-23.2-8.5-47.3-9.5-71c6.1-22.2,5.7-45,10.1-67.5   c-0.2-47.5,6.5-35.2,42.2-56.2c0.6,0.2,1.4,0,1.7,0.9c-0.4,0.4-0.8,0.8-1.2,1.4c5,18.7,16.7,35.6,37.7,36.6   c1.2,1.5,2.6,0.2,3.5-0.8c1.9,3.1,6.7,0,9.3,2.1c-26.8,6.8-46.8-12.6-52.6-37.4c-2.3,0.6-3.8,1.8-4.8,3.6   c7.4,15.2,2.8,34.9-9.4,46.2c-2.1,63.1,26.9,41-8.9,119.4c32.3-1.8,66.1,11.1,97.2-1.2c-17.4-55-14.2-36.7-4.7-90.6   c15.7-5.9,14.2-21,7.5-33.6c0.5-1.5-1.8-1.8,0-2.9c1.8,2.5,3.1,4.9,5,7.7c0.7-14.6-5.6-32.1-21.9-33.9c3.8,3.2,6.2,7.5,8.4,11.8   c-0.3,0.3-0.6,0.6-0.9,0.9c-4.5-5.8-9-11.4-14.2-16.6C234.4,129.4,234.9,129.2,235.3,129z M245.3,239.2c0.4-1.7-0.7-3.1-1-4.6   c1,24.7,14.9,47.4,17.1,72.4c0.1,0,0.3,0,0.4-0.1C264.5,283.5,247.7,262.3,245.3,239.2z M270.4,546.6c1.1,0.1,2.1-0.3,2.8-1   c-0.2-0.3-0.4-0.6-0.6-0.9c-5.3,1.4-10.6,1.2-15.1,4.6c-3-5.5,9.2-5.5,12.6-6.3c-0.8-3.3-0.9-6.6-2-9.4c-12.5-7.6-8,15.4-19.2,12.2   c-2.1-2.1-1.4-5.3-4.1-6.8c-4.2,11.4-0.8,22.9-5.5,34c5,0.5,9.9,3.1,14.7,1.7c2-0.7,3.9-0.4,5.8,0.6c11.5,5.9,27.5,6.4,38.2-0.9   c-1.3-2.7-1.2-6.7-3-8.8c-7.9-2.3-12.7-8.3-17.8-14.4c0-1-0.6-1.5-1.5-1.7c-0.4-0.5-0.9-1-1.3-1.6c-4.2,1.4-8.7,1.5-12.1,4.9   c-0.5-0.6-0.9-1.1-1.3-1.5C262.3,547.8,267.3,547.6,270.4,546.6z M164.8,196c-5.1,14.5-6,29.2-6.4,44.4c-1.7,18.2-7.7,37-6,55.2   C166.2,258.1,183.5,237,164.8,196z M256.3,538.3c-2.5-0.1-4.4-0.2-6.5-0.3c0,2.1-0.8,4.2,1.4,5.9   C254,543.2,254.6,540.6,256.3,538.3z" />
	<path fill="#020101" d="M193.2,417.4c-3.1,9.4-4.6,20.5-10.8,28.4c-3.8,10.2-0.9,21.6-5.2,31.9c-7.3,20.6-12,42.2-11.3,64.1   c4.7-0.5,3.9,5.6,5.5,8.6c0.6,2.6,2.7,4.3,3.7,6.9c3.3,5.5,5.2,12.4,10.1,16.7c5.3,3.9,3.5,9.7,2.2,15.2c-12.7,3.6-26.6,4.3-39.5,1   c-0.4-1.5-0.8-2.7-1.3-4.2c-2.4-1.3-5.4-0.6-7.7-2.2c-0.6-6,3.5-11.5,2.5-17.5c0.5-5.4-2.9-11.7,3.5-14.2   c4.5-31.1-6.1-63.4-0.1-94.5c20.1-61,14-46.1,8.7-108.3c-0.8-0.9-1.5-1.7-2.2-2.5c0-0.3,0.1-0.6,0.1-0.9c0.5,0.2,1,0.4,1.8,0.8   c0-0.9-0.5-1.7,0.3-2.2c1.1,1.2,1.9,2.6,3.4,3.4c0.8-1.2,0.1-2-0.5-2.6c-3.8-5.6-2.8-12.4-5.8-18.4c0.8,0,1.4,0,1.7,0   c0.9,1.9,1.7,3.5,2.5,5.5c-0.5,4.5,0.8,9.7,3.9,13.3c1.7-0.8,1.2-2.2,1.2-3.4c0.3,0,0.6,0,0.9,0c0.8,3-0.6,7.3-4.2,8.5   c-0.3,27.5,10.9,55.8-1.1,82.1c-4.7,9-7.3,18.7-8.9,28.7c-4.8,27.6,4.1,55.2,1.4,83c5.3-6.7-2.5-7.9,12.3-10.6   c0.6,0.7,1.1,1.3,1.7,2c2.2-18.7,5.6-37.6,12.1-55.4c4.5-10.9,2.4-22.7,5-33.7c5.3-10.2,9-20.9,13.1-31.6c0.3,0,0.5,0,0.8,0l0,0   C193.2,415.9,193.2,416.6,193.2,417.4z M186.1,584c1.3-2.9,0.9-5.6-1.6-7.7c-7.7-8.9-13.4-20.9-17-32c-3.5-1.8-5.2-5.3-7.9-7.8   c-2.3,0.6-4.4,1.1-6.4,2.3c-0.4,3.9-3.3,22.3-9.5,15.7c-0.4,9.3,1.1,18.3-2.5,27.5c3.8,1,4.3,1,5,0.6c0.2-0.9,0.4-1.8,0.8-3   c2.9,2.2,1,6.3,3.3,9c11.9,2.1,24,2.4,35.5-1.7c-3.8-0.3-7-0.5-9.8-0.7c-1.3,1.2-2.4,2.2-4.1,1.7c-0.4-2.2,1.9-2.4,2.5-3.5   c4-0.5,7.7,0.4,11.6,0.8C185.9,584.7,186,584.3,186.1,584z M147.8,552.3c0.3-2.2,1.6-3.4,0.8-5.2   C146.3,549,146.2,549.5,147.8,552.3z" />
	<path fill="#090706" d="M235.3,129c-0.5,0.2-0.9,0.4-1.4,0.6c-0.4-0.1-0.8-0.2-1.5-0.4c3.5,8,14.7,23.2,0.8,26.9   c-2.2-1.3-4.8-0.5-7.3-0.7c2.6-0.9,6.2-0.6,8.6-0.7c1.4-1.4,2.5-2.5,3.6-3.6c-1.1-8.2-4.5-15.8-8.9-22.8c-3.4-0.5-6.7-2.2-9.7-4.4   c-0.4,0.5-0.7,0.9-1,1.3c-1.7-5.3-2.5-13,1.1-17.6c0.1,4.5-0.5,8.8-0.7,13.3C224.1,124.6,230.2,125.7,235.3,129z" />
	<path fill="#16100E" d="M266.2,347.2c-1.7-3.4-0.2-7.9-0.6-11.7c1.8-2.7,3-5.9,5.5-7.9c0.1-1.6,0.3-2.8-0.2-4.6   c-0.6,2.2-2.2,7.9-4.8,5.8c0.5-1.6-0.3-2.8-0.7-4.3c0.3-1-0.5-1.6-0.7-2.5c-0.2,0.1-0.5,0.1-0.7,0.2c-1-0.7-0.6-1.6-0.5-2.5   c0.6-0.5,0.8,1.5,1.4,0.1c1.4,2.1,1.6,4.7,2.5,7c4.9-3-2.8-9.9,3.2-12.5c1.2,1.4,2.2,2.5,3.1,3.5c0.3,3.8,2.6,7.8,1.1,11.5   c-1.6-0.5-1.4-2.1-1.8-3.4c-1.2,1.8,0,3.7-1.3,5.1c-1.2,1.3-2.3,2.6-3.4,3.9c0,0.8,0.1,1.5,0.1,2.2   C264.1,337.7,266.8,344,266.2,347.2z M272.8,323.2c0.5-2-0.5-3.2-0.3-4.4c-1.6-1.5-1.6-1.5-2.7-1.9   C270.7,318.9,271.6,320.8,272.8,323.2z" />
	<path fill="#120F0E" d="M151.6,345.8c0,0.3-0.1,0.6-0.1,0.9c-16.4-10.1-13.3-31.1-13.5-47.4c1.6,5.7,1.3,14,1.6,20.3   c-0.4,5.4,4.5,8.4,5.7,13.2c-0.8,5.2,2.5,9.2,6.4,12.3C151.6,345.3,151.6,345.5,151.6,345.8z" />
	<path fill="#110F0F" d="M271.9,291.4c1.9-4.8,0-11.3,0.8-16.7c0.4,14.5,1,28.4,8.9,41.4c-1.8,3.5-1.4,7.1-2.5,10.5   c-0.3-1,0.5-2.3-0.7-3C281,312,270.7,303.2,271.9,291.4z" />
	<path fill="#110F0E" d="M278.4,323.5c1.3,1.5,0.4,3.6,1.5,5.6c-2.2,3.5-8.3,18.2-12.7,10.5c-0.4-1.2-0.4-2.7,1.3-2.5   c1,1.2-0.4,2.4,1.1,3.2c0.8-3.3,1.3-9.3,5.2-10.3c0,0.8-0.4,1.4-0.7,2.1l0,0c-1,1.7-2.3,3.2-2,6.1   C275.2,333.4,277.9,329.3,278.4,323.5z" />
	<path fill="#473D39" d="M238.4,75.9c1.5,2-1.4,4.2,0.5,6.7c-2.1,8.6-2.9,22.7-12.8,25.7c-0.3-0.2-0.5-0.5-0.8-0.7   c3.8-1.5,6.5-3.6,7.3-7.7l0,0c0.2-0.1,0.3-0.2,0.5-0.3c-0.5-0.3-0.8-0.8-1.2-1.2c0.5-0.9,1.4-2.4,0-2.9c0-0.2,0-0.4,0.1-0.6   c0.7,0,1.4,0,2.1,0c0.1,0.6,0.2,1.2,0.2,1.7c1.2-1.9-2.4-2.9-1.7-5.3c0.8,0.9,1.7,1.7,2.6,2.7c1.4-5.9,2.9-11.1,2.5-17.1   C237.8,76.4,238.1,76.1,238.4,75.9z" />
	<path fill="#161210" d="M183.9,116.8c-0.3-0.8-1.1-0.7-1.7-0.9c7.8-2.4,10.3-12.4,9.4-19.9c2.1,2-0.2,5.5,1.5,7.8   C191.8,109,189.6,115.8,183.9,116.8z" />
	<path fill="#141211" d="M238.4,75.9c-0.3,0.3-0.6,0.6-0.8,0.9c0-2-2.1-2.1-3.3-2.8c-0.6-1.2-1.2-2.4-1.1-3.7c1.6-0.9,3.3-0.6,5-0.6   c0.9,0.5,1,1.7,2.2,1.5c0.4,1,0.1,1.6-0.9,1.7C239.7,74.1,238.6,74.7,238.4,75.9z" />
	<path fill="#2A2220" d="M240.4,71c-1.2,0.2-1.3-1-2.2-1.5c0-0.8,0-1.6,0-2.5c-2,0.4-3.6,0.6-5.5,1c-0.4-3.2,3.9-2.3,5.4-4   c0.1-0.6,0-1.3,0.8-1.6C240.4,65.2,238.9,68.5,240.4,71z" />
	<path fill="#AAA6A6" d="M165.4,18.2c-0.6,1.2,0.3,1.9,0.8,2.8c-1.3,1.9-3.1,2.2-5.2,2.1c1.1-1.6,3.8-1.2,3.6-3.6   C164.5,18.8,164.6,18.3,165.4,18.2z" />
	<path fill="#2E1615" d="M225.3,107.4c0.3,0.2,0.5,0.5,0.8,0.7c-1.9,0.2-3.7,0.5-5.7,0.7c-0.1,0.2-0.4,0.6-0.7,1c0-0.8,0-1.6,0-2.3   C221.6,107.5,223.4,107.4,225.3,107.4z" />
	<path fill="#BFE8E8" d="M231.7,14.6c-1.3-0.1-2.5-0.2-4-0.3c0-0.4,0.1-1,0.1-1.3c1.2,0,2.3,0,3.2,0   C231.3,13.5,231.5,14.1,231.7,14.6z" />
	<path fill="#313130" d="M236.1,56.7c0.9-0.2,0.6-1.1,0.8-1.6c1.1,1.3,1.3,2.8,1.3,4.5c-0.7,0.3-0.6,1-0.7,1.6   C236.7,59.8,236.4,58.3,236.1,56.7z" />
	<path fill="#2D2B2B" d="M164.6,19.4c0.2,1.7-1,2.1-2.3,2.5C160.6,20.5,163.6,19.9,164.6,19.4z" />
	<path fill="#B1C6C6" d="M211,6.6c-1.1,1.6-2.4,1.6-4,0.4c1.4-0.4,2.4-0.8,3.4-1.1C210.6,6.1,210.8,6.4,211,6.6z" />
	<path fill="#212020" d="M238.9,82.5c-0.9-1.9-0.8-3.3,0-5C238.9,79.2,238.9,80.9,238.9,82.5z" />
	<path fill="#6A7575" d="M176.6,94.5c-0.2-1.1-0.4-2.1-0.7-3.1c0.1-0.1,0.3-0.1,0.4-0.2c0.6,1,1.1,1.9,1.7,2.8   C177.5,94.2,177.1,94.4,176.6,94.5z" />
	<path fill="#9FA6A6" d="M156.6,32.5c0.6-0.5,1.3-1,2.1-1.7c0,1.7-1.1,2.4-2,3.1C156.7,33.5,156.7,33,156.6,32.5z" />
	<path fill="#5E6565" d="M155.3,69.6c0.5,0,0.9,0,1.4,0c-0.1,0.9,0.5,2.1-1.3,2.3C155.4,71,155.3,70.4,155.3,69.6z" />
	<path fill="#313130" d="M238.9,62.5c-0.8,0.3-0.7,1-0.8,1.6c-0.2-0.8-0.4-1.6-0.6-2.3c0.8-0.3,0.6-1,0.7-1.5   C238.5,60.9,238.7,61.7,238.9,62.5z" />
	<path fill="#ADB9B9" d="M209.7,349.3c-0.1-0.9-0.3-1.8,1.1-2.3c0.1,0.6,0.1,1.1,0.2,1.6C210.5,348.9,210.1,349.1,209.7,349.3z" />
	<path fill="#313130" d="M238.3,54c0-0.8-0.5-1.8,0.7-2.3C239,52.5,239.4,53.5,238.3,54z" />
	<path fill="#2A2220" d="M238.3,60.3c-0.1,0.6,0,1.3-0.7,1.5c-0.2-0.7-0.2-1.8,0.6-2.2C238.3,59.8,238.4,60,238.3,60.3z" />
	<path fill="#272221" d="M193.2,417.4c0-0.8,0-1.5-0.1-2.3c0.2,0,0.5,0,0.7,0C193.6,415.9,193.4,416.6,193.2,417.4z" />
	<path fill="#272221" d="M195.5,411.8c-0.2-0.7-0.2-1.4,0.6-1.7C195.9,410.7,195.7,411.3,195.5,411.8z" />
	<path fill="#272221" d="M194.6,413.7c-0.1-0.6,0-1.2,0.7-1.5C195.1,412.8,194.8,413.3,194.6,413.7z" />
	<path fill="#272221" d="M193.9,415.1c-0.1-0.6,0-1.2,0.7-1.4C194.4,414.1,194.1,414.6,193.9,415.1z" />
	<path fill="#313130" d="M236.9,54.8c0-1.2,0.8-0.9,1.5-0.8C237.8,54.3,237.3,54.5,236.9,54.8z" />
	<path fill="#B28C7D" d="M237.4,61.1c0.1,1,0.5,1.9,0.7,2.8c-1.5,1.8-5.9,0.8-5.4,4c1.8-0.3,3.5-0.6,5.5-1c0,0.9,0,1.7,0,2.5   c-3-0.4-5.3,0.4-7.1,2.8l0,0c0.1-0.7,0.2-1.3,0.3-2c-1.4,0.5-1.4,0.5-2.4,3.5c0.3,0.8,0.6,1.8,0.9,2.7c0.2,0,0.3,0,0.5,0   c0.1-0.7,0.2-1.4,0.3-1.9c0.8-0.6,1.9,0.2,2.4-0.8c9.1,0.5,2.6,14,2.1,19.8c-1-1-1.8-1.9-2.6-2.7c-3.2-0.8-7.2-0.1-10,2   c-1.1,1.5-3.9-0.5-3.5,2.2c0.6,0.1,1.3,0.2,2,0.4c1.1,4.2,7.5,5.7,11.5,4.1c-1.1,6.3-7.2,8.5-12.8,7.8l0,0   c-5.5-5.1-12.5-7.9-18.6-12.2l0,0c-2.6-2.8-4.4-6.9-4.3-10.8c-1.2-1.4-2.3-3.3-0.8-5c-1-1.2-1.8-2.5-1.5-4.1   c0.1-0.6,0.2-1.2-0.6-1.6c0-0.2,0-0.5-0.1-0.7l0,0c1.5-0.2,3.8,0.5,4.2-1.5c-0.2-0.3-0.4-0.7-0.6-1c0-0.4,0-0.8,0-1.1   c0.9-1.2,2.2-2.4,2.5-3.8c-0.8-2.7,1.8-5.2,0.7-7.9c0.9-1.6,3.2-2.8,2.9-4.6c8-6.3,13-6.4,22.7-6.3   C233.6,45.3,235.1,56.2,237.4,61.1z M222.6,84.8c1.8-1.4-1.3-3.2-0.8,2c0.6,1.3,1.8,1.3,2.7,1.5c1.3-0.7,2.4-1.3,3.5-1.9   c-1.7-1.9-3.1-0.7-4.4,0.3c-0.4-0.3-0.7-0.5-1-0.7C222.6,85.6,222.6,85.2,222.6,84.8z M211.1,65.5c-1.6,0.4-2.5,0.6-3.7,2   c2.1,0.3,3.3-0.3,4.5-1.2c4.3-0.2,8.2,1.6,12.5,2.1C222.1,63.9,215.3,64.2,211.1,65.5z M211,74.4c3.6,1.6,7.7,1.3,11.4,0.2   c-0.7-1.1-0.9-2.1-0.8-3.1c-3-3.2-8.9-1.6-12.5-0.2C209.7,72.3,210.2,73.2,211,74.4z M233.4,85.4c-0.1,0.1-0.3,0.2-0.4,0.3   c-0.3-0.2-0.6-0.4-0.8-0.6c-0.4,1-2.1,1-2.3,2.4c1.4,0,2.5,0,3.5,0c2.8-3-0.1-4.9-2.4-6.6C231.9,82.3,232.6,83.8,233.4,85.4z" />
	<path fill="#977264" d="M204,97.5c4.6,2.5,10,4.6,13.5,8.5c-3.1-0.5-5.7-4.3-8.5-4.2c2.3,3.1,7.1,4,9.3,7.2   c-1.4,4.4-0.9,9-0.8,13.5c-7.6-4.3-13.5-11.2-18.2-18.4c-2.4,8.1-6.3,16-13.2,21.2c-0.1,0.5-0.1,1.1-0.2,1.7   c-1.1-2.9-2.2-5.9-3.2-8.7c11.9-5.4,11.4-19.9,11.3-31.4c0.3,0,0.7,0,1.1,0c0.9,3.2,2.3,7.8,6.1,8.4l0,0c0,1.6,1.1,2.3,2.3,2.9   C203.6,98,203.8,97.7,204,97.5z" />
	<path fill="#928F9E" d="M196.8,50.3c5.3-8,20.1-13.6,27.7-7.2c-9.9,0-18.3,3.6-25.5,9.8C198.2,52,197.4,51.1,196.8,50.3z" />
	<path fill="#8D8690" d="M196.8,50.3c0.8,0.9,1.5,1.8,2.3,2.7c0.6-0.2,1-0.4,1.5-0.5c-2.7,5.6-7.1,10.5-7.4,17   C186.5,70.3,194.3,52.2,196.8,50.3z" />
	<path fill="#352823" d="M191,69c0.7,0.2,1.4,0.3,2.1,0.5c0.2,1.4,0.9,2.4,2.1,2.9c2,0,1.1-2.3,2.4-2.7c0,0.4,0,0.8,0,1.1   c0.2,0.3,0.4,0.7,0.6,1c-0.4,2-2.7,1.3-4.2,1.5c-0.1-0.2,0-0.7-0.5-0.3c0.2,0.1,0.3,0.2,0.5,0.3c0,0.2,0,0.5,0.1,0.7   c-0.8,1.2-2.8,1.3-2.7,3.4c0.4,0.2,1,0.5,1.6,0.9c0.2-1.1,0.4-1.8,0.6-2.5c0.4-0.1,0.8-0.1,1.1-0.2c-0.3,1.7,0.5,2.9,1.5,4.1   c-0.3,0.4-0.5,0.7-0.7,1c-0.9-0.3-1.7-0.5-2.6-0.8c0.5,2.5,0.5,2.5-0.2,4.1c-0.8-0.1-1.3-0.6-1.5-1.4c1.6-1-1.2-4.1-2.3-2.7   c-1.4-1.4-1.9-2.8-0.9-4.7c0.5-1-0.3-2.4,0.8-3.2c0.9,2,0.9,4,1.3,6.3c-0.4-2.1,1.2-3.1,2.4-4.5c-1.3-0.9-1.8-2.5-3.4-2.4   C189.5,70.3,190.3,69.7,191,69z M191.9,70.4c-0.3,0.2-0.5,0.3-0.6,0.3c0.2,0.4,0.5,0.7,1,0.5C192.1,70.9,192,70.7,191.9,70.4z" />
	<path fill="#201613" d="M198.1,93.3c-2.1-1.5-2.3-4.2-3-6.4c-0.4,0-0.8,0-1.1,0c0-0.5,0-1.1,0-1.6c1-0.2,1.9-0.5,2.8-0.7   c-0.1,3,1.1,6.2,2.5,8.6C198.8,93.2,198.5,93.3,198.1,93.3z" />
	<path fill="#8D6A5D" d="M196.8,84.6c-1,0.2-1.9,0.5-2.8,0.7c-0.5-0.4-1-0.9-1.4-1.4c0.7-1.6,0.7-1.6,0.2-4.1c1,0.3,1.8,0.5,2.6,0.8   C194.9,82.2,195.9,83.4,196.8,84.6z" />
	<path fill="#856659" d="M188.9,71c1.8-0.1,2.3,1.5,3.4,2.4c-1.2,1.4-2.7,2.4-2.4,4.5c-0.4-2.3-0.4-4.3-1.3-6.3   C188.8,71.5,188.9,71.3,188.9,71z" />
	<path fill="#77584D" d="M188.8,79.7c1.1-1.4,3.7,1.8,2.3,2.7C190.4,81.5,189.6,80.6,188.8,79.7z" />
	<path fill="#323232" d="M186.9,7.6c0.6,0,1.2,0,2.5,0C188.2,8.8,187,9.6,186.9,7.6z" />
	<path fill="#828282" d="M157.4,36.3c0.4-0.4,0.7-0.7,1.3-1.2C158.5,36.4,158.5,36.4,157.4,36.3z" />
	<path fill="#313130" d="M236,56.2c-0.2-0.3-0.3-0.6-0.5-0.9C235.6,55.6,235.8,55.8,236,56.2z" />
	<path fill="#7C8D8D" d="M154.1,46.9c0.1,0,0.2,0,0.2,0c0,0.1-0.1,0.3-0.1,0.4C154,47.2,153.9,47.1,154.1,46.9z" />
	<path fill="#352823" d="M192.5,83.9c0.2,0.3,0.5,0.5,0.7,0.8C192.9,84.4,192.7,84.1,192.5,83.9z" />
	<path fill="#EAA388" d="M192.4,415.1c-4.1,10.7-7.8,21.4-13.1,31.6c-2.6,11.1-0.5,22.8-5,33.7c-6.6,17.8-10,36.7-12.1,55.4   c-0.6-0.7-1.1-1.2-1.7-2c-3,0-5.8,1.8-8.7,2.4c2-12.7,4.1-25.2,4.2-38.2c-1.2,1.2-1.9,1.9-2.8,2.7c-1.4-24.2-0.7-47.6,10.1-70   c3,3.6,1.6,8.6,5.5,11.5c0.9-31.5,1.8-63,3.8-94.9c1.8-18.5-2.9-39.4,5.1-56.8c25.4,2.5,52.9,8.2,77.5-0.9   c11.2,38.9,8.6,79.9,6.9,119.7c2.5,40,4,79.8,1.8,119.9c-3.5,1-6,2.7-7.6,6.1c-1.2-0.1-2.4-0.2-3.6-0.3c-1.4-17.2,3-35.8-4.1-51.8   c-2.3,4.2-0.3,8.7-1.3,13.2c-4.7-18-13-37.9-6.1-56.3c2.5,1.9,3.6,4.5,5.3,6.8c-1.3,1-1.8,2-0.5,3.2c0.9,1.2,0.9,4.5,2.7,3.9   c0.1-0.9,0.2-1.9,0.4-3c1.1,1.5,2,2.6,3,4.1c1.5-15.8-15.9-25.9-15.4-41.5c-5.8-25.9-4-52.2-3.3-78.1c-3.1,1.8-3.4,5.1-5.1,7.6   c-2.8-10-1.2-22.5-6.5-31.1c-2-1,0.5-2.4-0.5-3.7c-1.6,0.4-2.2,1.9-3.1,3l0,0c-1.2,0.3-2,1-2.2,2.2v-0.1   c-6.4,8.5-5.2,21.2-8.1,31.5c-3.6,21.6-8.4,42.9-13.5,64.2l0,0c-0.2,0.5-0.9,0.9-0.7,1.4c-0.7,0.6-0.7,1.5-0.6,2.3   C192.3,413.5,192.4,414.3,192.4,415.1z M179.6,408c0.2,0.2,0.4,0.5,0.7,0.7c0.2,1.4,0.2,2.8,1.8,3.6c1.3-1.4-0.2-6.7-1.7-4.3l0,0   C180.1,408.1,179.9,408,179.6,408c0-0.5-0.2-1,0-1.5c0.9-0.5,0.9-1,0-1.5c-0.5-1.9,0.9-4.4-0.8-5.7c0-1.9-1.7-1.7-2.8-2.4   c-0.8,0.8-1.6,1.5-2.2,2.1c-0.6,3.9,1.1,6.7,4.3,8.8C178.6,408,179.1,408,179.6,408z M250.3,415.8c1.3-0.3,0.6-1.7,0.7-2.5   c-1.4-1.7-1.9-3.9-3-5.8c-1.9-3.2-8.2-3.4-6.7,1.5c0.8,4.6,4.8,5.3,8.1,7.4C249.7,416.7,250.2,416.3,250.3,415.8L250.3,415.8z    M172.4,461.1c2.5-3.5,5.3-7.2,3.8-10.9C173.8,453.1,172.5,456.5,172.4,461.1z M191.1,301.6c3.9,3,7.7,6,12.5,7.7   C199.1,305.7,196.2,302.8,191.1,301.6z M256.3,400.9c-0.8,2.8-2.5,5.3-2.7,8.4C255.4,407.9,259.2,403.1,256.3,400.9z M171.3,467.5   c1-2.1,1.5-3.5,0.1-5.1C170.1,464,170.2,465.4,171.3,467.5z M250.4,462.3c0.6-1.9-0.1-3.2-2-4.4C248.1,459.9,249,461.1,250.4,462.3   z M198.5,311.7c1.5,1.2,4.3,4.1,5.9,2.7C202.6,313,200.7,312.1,198.5,311.7z M168,476.8c1.8-1.9,1.8-2.1,0.3-3.5   C167.4,474.2,167.3,475.3,168,476.8z M249.7,465.2c-0.3,1.4,0,2.2,1.2,2.6C251.4,466.7,251,466,249.7,465.2z M251.1,471.7   c-0.1-0.1-0.3-0.2-0.4-0.3c-0.3,0.4-0.4,0.7,0.2,0.9C251,472.1,251,471.9,251.1,471.7z" />
	<path fill="#F5DDCE" d="M233.2,156.2c14-3.6,2.8-18.8-0.8-26.9c0.7,0.2,1.1,0.3,1.5,0.4c12.5,13.8,27.3,30.4,27.7,49.9   c-7.7,11-20.5,2.1-31.1,3.2c-0.1,1.2-0.1,2.1-0.2,3.1c1,0.9,2,1.7,2.8,2.5c-0.8,0-1.7-0.2-2.7,0.4c1.3,1,2.3,1.6,3.4,0.3   c4.4,7.3,13.5,2.2,19.4,5.1c-1.1,0.7-2.2,1.5-3.2,2.3c-9.5,53.9-12.6,35.7,4.7,90.6c-23.8,9.2-51.1,4.2-75.9,1.6   c-1.7-3.4,3-20.2,6.6-22.3c2.5,3.9,3.3,8.9,6.4,12.2h-0.1c-0.1,0.7-0.2,1.3,0.7,1.5c1.1,2.2,2,3.5,4.3,5.2   c-4.4-20.9-15-40.2-12.3-62.4c2.9-28.8,11.5-27,34.2-35.9l0,0c2.8-0.1,4.8-3.1,4.9-6.1c-12.4,1.7-28.2,2.7-38.5-5.7   c-2.3-3.5-4.7-7-9.4-6c-1.3-1.1-2.2-2-3.1-2.8c-1.1,0.4-2.5,1.4-3.1-0.1c9.1-12.6,13.6-29.1,6.4-43.6c1.1-1.9,2.5-3,4.8-3.6   C186.5,143.6,206.6,162.9,233.2,156.2z M236.7,243.6c0.6,1.7-0.5,3.2,1.4,4.4c0.5-2.5,0-5.8-1.8-7.4   C235.8,241.8,235.9,242.7,236.7,243.6z M220.5,258.6c1.8-1.7,1.2-2.8,1.1-4.9c0.3-8.8,2.4-17.4-0.2-26.2   C217.5,237.4,220.2,248.2,220.5,258.6z M240.9,278.8c2.7-2.8,4.2-6.6,3.4-10.6C242,270.8,241.4,275.3,240.9,278.8z M235.8,233.8   c-1.7,1.2-1.6,3.2,0.1,3.9C236.5,236.4,236.7,235.3,235.8,233.8z M236.6,225.8c-1.4,1.2-1.4,1.2,0,1.9   C236.6,227,236.6,226.4,236.6,225.8z M236.8,286.9c-1.4,1.1-1.4,1.1-1.4,2.4C236.5,289,236.8,288.3,236.8,286.9z M239,282.4   c-1,0.7-1,0.7-1,1.9C239,283.6,239,283.6,239,282.4z M236.1,232.1c-0.1-0.2-0.2-0.4-0.3-0.6c-0.4,0.2-0.2,0.5-0.2,0.8   C235.8,232.2,235.9,232.1,236.1,232.1z M236,221.4c-0.2,0-0.3,0-0.5,0C235.6,222.6,236,222.6,236,221.4z" />
	<path fill="#B28C7D" d="M145.3,332.8c-8-13.7-1-30.6-3.8-45.8c-1.1-18.2-10.9-51.6,0.7-66.5c1.9,3.6,4,6.5,7,9c0.6-2.8,0.6-5-1.9-7   c-7.6-21.1-5.7-28.1-0.8-50.1l0,0c0.4-0.1,0.9-0.3,1.3-0.4c0.6,0.4,1.2,0.8,1.9,1.3c0.5-0.7,0.9-1.3,1.3-1.8   c-4.1-12.6-7-26.9,1.3-38.6c6.8-4.2,15-5,21.8-10c5.9,13.5,2.7,29.1-5.8,40.7c-0.4-0.4-0.7-0.7-1.2-1.2c-5,4.9-1.4,13.6-3.2,20   c-6,36.4-10.7,72.7-13.7,109.5c-1.6,0.6-1.6,1.7-0.1,2.4c-0.2,0.4-0.5,0.8-0.8,1.5c2.5,5.4,6.7,10.6,11.2,14.6   c1.5,6.3-0.5,12.7,2.8,18.9c-0.9,0.2-1.6,0.4-2.2,0.5c-4.4-3.2-1.3-10.3-5.5-13.4c-0.4,7.4,2.6,14.8,2.4,22.1   c-2.4-1.7-3.3-3.9-2.6-6.5c-0.9-2-1.7-3.6-2.5-5.5c-0.3,0-0.9,0-1.7,0c1.2,4,4,8.5,1.4,12.4c-0.3-0.1-0.7-0.3-1.2-0.5   c-1.4-3.1-1.7-13.6-6.5-12.2c2.6,4,5.6,8.8,4.6,13.8C147.7,337.5,146.5,335.2,145.3,332.8z M148.4,321.7c-0.3,1.5-0.3,1.5,1,2.2   C149.8,322.8,149.5,322.1,148.4,321.7z M148.6,290.4c0.3-0.4,0.3-0.7-0.2-1C148.1,289.8,148.1,290.1,148.6,290.4z" />
	<path fill="#D69479" d="M177.6,290.6c-8,17.4-3.3,38.2-5.1,56.8c-2.1,31.9-2.9,63.4-3.8,94.9c-3.9-2.9-2.5-7.8-5.5-11.5   c-10.7,22.4-11.5,45.8-10.1,70c0.9-0.9,1.7-1.7,2.8-2.7c0,13.1-2.3,25.5-4.2,38.2c-2.4,2.1-1,7.4-3.5,8.2c2.7-27.7-6.2-55.4-1.4-83   c1.7-10,4.3-19.7,8.9-28.7c12-26.2,0.8-54.6,1.1-82.1c8.7-3.8,1.5-13,2.9-19.5c0.5-0.1,0.9-0.2,1.2-0.3c1.4,1.1,2.4-0.1,3.5-0.5   c-1.6-33.9-13.2-18.8-7.7-40C163.6,290.3,170.9,288.9,177.6,290.6z" />
	<path fill="#E6CCBB" d="M191.8,278.4c-1.9-1.7-2.9-4.6-3.7-7.1c0.4,0.2,0.8,0.3,1.3,0.5c0.5-1.5,0-2.5-1.3-3.5   c-0.3,0.7-0.5,1.2-0.7,1.6c-1-1.2-1.3-2.3-2.1-3.7c-3.5,2.1-8.3,18.8-6.6,22.3c-7-0.7-13.9-0.8-21.3-0.4   c35.7-78.3,6.9-56.3,8.9-119.4c1-0.9,2-1.7,2.9-2.5c0.6,1.5,2.1,0.5,3.1,0.1c1,0.9,2,1.8,3.1,2.8c4.7-1.1,7.1,2.5,9.4,6   c10.3,8.3,26.2,7.4,38.5,5.7c-0.1,2.9-2.1,6-4.9,6.1c-0.1-0.4-0.1-0.8-0.2-1.2c-1.5-0.2-2.2,0.3-2.6,1.5c0.3,0.3,0.5,0.6,0.7,0.8   c-0.7,0.4-1.4,0.8-2.1,1.2c-11.1-2.3-26.8,3.3-34.2-9.3c-2.1-4.2-2.1-4.2-4.6-5.7c4.1,12.9,15.4,17.8,28.2,17.3   c-14.7,6.8-17.7,15.9-19.3,31.4c-2.7,22.2,7.8,41.5,12.3,62.4c-1.8-1.6-3.3-2.4-3.7-4.3c0.4,0.1,0.8,0.3,1.5,0.5   c-0.3-1.6-0.9-2.5-1.9-3.5C192.3,278,192.1,278.2,191.8,278.4z M174.2,171.4c0.4-0.2,0.7-0.4,1.1-0.6c-0.4-0.7-0.7-1.2-1-1.9   c-0.4,0.2-0.7,0.4-1.1,0.6C173.6,170.2,173.9,170.7,174.2,171.4z M186.2,263.4c0,0.8,0,1.4,0,2.2   C187.7,264.8,187.7,264.5,186.2,263.4z M220.7,184.7c0.1-0.1,0.2-0.1,0.3-0.2c-0.2-0.3-0.3-0.3-0.5,0   C220.5,184.5,220.6,184.6,220.7,184.7z" />
	<path fill="#D69479" d="M216.2,313.7c0.2-1.2,1-1.9,2.2-2.2c0.7,1.7,2-0.2,2.7-0.8c6.2,9,4.5,21.9,7.4,32.6   c1.7-2.5,1.9-5.9,5.1-7.6c-0.7,25.9-2.5,52.2,3.3,78.1c-0.5,15.6,17,25.7,15.4,41.5c-1.1-1.4-2-2.6-3-4.1c-0.1,1.3-0.3,2.3-0.4,3   c-0.7,0.4-1.1,0.1-1.3-0.4c1.5-2.2,0.8-4.3-1.6-5.8c0,1.1,0,1.7,0,2.3c-1.3-1.3-0.8-2.3,0.5-3.2c-1.7-2.3-2.7-4.9-5.3-6.8   c-7.1,18.4,1.4,38.2,6.1,56.3c1-4.5-1-9.1,1.3-13.2c7.2,16,2.7,34.6,4.1,51.8c1.3,0.1,2.5,0.2,3.6,0.3c-2.1,1-4.1,0.3-6.4-0.2   c-0.3-34.3-22.4-65.4-14.4-99.9c-2.5-40.5-33.1-80.8-18.2-121.4C216.8,313.8,216.5,313.7,216.2,313.7z" />
	<path fill="#B28C7D" d="M278.4,323.5c-0.3,3.7-1.5,7.1-3.6,10c-0.8-0.2-0.7-0.9-0.8-1.5l0,0c2.6-4,0.5-9.5-0.3-14.2   c-1-1.1-2-2.3-3.1-3.5c-0.7,0.4-1.4,0.9-2,1.3c-1.2,2.6-0.1,4.9,0.3,7.3c-0.4,0.1-0.8,0.3-1.2,0.4c-0.5-5.5-3.4-9.4-5.3-14.1   c1.3-3.5,5.5-35.1-1.2-31.7c-3.8-18.8-14.9-36.5-9.2-56.1c1.4,1.7,3,1.4,4.7,1.4c1.7,1.3,1.5-0.4,1.4-1.5c2.2-0.4,2.7-2.5,1.9-4.3   c-0.5,0-0.8,0-1.2,0c-1,1.3-0.7,2.8-0.7,4.3c-0.2,0-0.5,0-0.7,0c-6-5.5-2.5-15.5-5.8-17.8c0.3-1.8,0.5-3.5,0.8-5.5   c3-2.5,7.2-2.9,9.3-7.1c0.1,23.5,11.6,45.7,8.6,69.2c-0.4,13.3,0.5,26.9,2.2,40.1C274.7,308.3,280.9,314.7,278.4,323.5z    M261.3,216.2c1.7-2.3,2.1-4.7,0.2-6.9C261.2,211.9,259.7,213.8,261.3,216.2z" />
	<path fill="#B28C7D" d="M186,126.9c0.1-0.6,0.1-1.2,0.2-1.7c7-5.2,10.9-13,13.2-21.2c4.7,7.2,10.7,14.1,18.2,18.4   c0.3,0.9,0.7,1.7,1.1,2.5c0.3-0.4,0.6-0.8,1-1.3c3,2.3,6.3,3.9,9.7,4.4c4.4,7.1,7.8,14.6,8.9,22.8c-1.2,1.2-2.3,2.3-3.6,3.6   c-2.7-0.8-9,2.2-10.7-0.7c-0.8-3.4-0.8-3.5-2.8-4.5c0.1,1.8,1.4,3.2,1.2,5C205.6,155.4,190.3,142.8,186,126.9z M189.7,127.2   c-0.1,1.3,7.2,2.6,6.9,0.9C194.5,126.8,192.3,126.4,189.7,127.2z M205.6,130c1,0.9,1,0.9,2.3,0C207,128.9,206.4,129.1,205.6,130z    M202.4,129.4c-0.8-0.7-1.7-0.6-2.5,0C201.6,130.8,201.8,130.8,202.4,129.4z" />
	<path fill="#F7EFD0" d="M266.9,547.4c-2.1,1.2-5,1.3-5.4,4.2c0.3,0.4,0.8,0.9,1.3,1.5c3.4-3.4,7.9-3.6,12.1-4.9   c0.5,0.6,0.9,1.1,1.3,1.6c-2.5,1-13.4,4-8.6,7.6c2.5-3.3,7-3.5,10-6c11.3,16.4,20.4,11.1,18.4,18.7c-6.7-0.1-12.7,2.7-19.2,3.8   c-5.5-0.7-10.7-2.6-16.3-2.1c-2.7-2.6-5.6-2.1-8.4-0.2c-2.3-1.3-6-0.6-5.9-3.7c-0.1-8.2-2.4-17.1,1.4-24.7c0.6,0.9,1.1,1.8,1.7,2.7   c11.2,3.2,6.8-19.8,19.2-12.2c1.1,2.8,1.1,6.1,2,9.4c-3.4,0.7-15.7,0.8-12.6,6.3C260.5,547.8,263.6,545.2,266.9,547.4z M272.4,561   c2-1.6,9.3-3,6.8-6.3c-4.8,1.9-6.5,2.8-7.8,4.9C271.6,560,271.9,560.4,272.4,561z M282.6,559.4c-2.4-1-5.6-0.2-5.5,2.5   C279.2,562.2,282.6,562,282.6,559.4z" />
	<path fill="#977264" d="M152.3,133.1c-8.2,11.8-5.4,25.9-1.3,38.6c-0.4,0.5-0.8,1-1.3,1.8c-0.7-0.5-1.3-0.9-1.9-1.3   c-0.4,0.1-0.8,0.3-1.3,0.4c0.2-1.4,1.5-3.4-0.6-4.1c-0.2,1.5-0.8,2.8,0.6,4.1c-2.9,14.1-7.5,29.9-1.4,43.6c-0.6-0.1-1-1.2-2-0.2   c1.6,1.3,1.6,3.4,3.3,4.3c0.1-0.7,0.1-1.4,0.2-2.1c1,1.3,0.5,2.7,0.6,4.4c0.5,0.4,1,0.9,1.5,1.4c-0.4,0.1-0.9,0.1-1.1,0.2   c-0.9,1.6,0.4,2.8,0.3,4.2c-2.5-2.2-4-4.9-5.7-7.8c-10.5,13.1-3.4,40-2,55.6c2.6,16.4,1.3,32.8,1.4,49.5   c-4.3-7.1-1.2-16.8-1.1-24.6c-1.4-13.7-3.9-28-6.8-41.9c-5-20.5,5.4-39.2,4.4-59.6c1.5-12.3,5.4-24.6,4.5-36.9   C141.4,152.1,142,139.1,152.3,133.1z M145.1,165.1c-1.8,0.1-1.8,3.3,0,3.6C145.5,167.4,145.5,166.3,145.1,165.1z" />
	<path fill="#EBDDB8" d="M247.4,543.2c-3.7,7.7-1.5,16.5-1.4,24.7c-0.1,3.1,3.6,2.5,5.9,3.7c2.8-1.9,5.7-2.5,8.4,0.2   c5.5-0.6,10.8,1.4,16.3,2.1c6.5-1.1,12.6-3.9,19.2-3.8c0.1-0.8,0.2-1.7,0.3-2.6c0.7,2.4,1.4,4.7,2.1,7.1   c-10.8,7.2-26.8,6.7-38.2,0.9c-1.9-1-3.8-1.3-5.8-0.6c-4.9,1.5-9.7-1.2-14.7-1.7c4.7-11.1,1.3-22.6,5.5-34   C246.9,539.9,247.2,541.6,247.4,543.2z M284.4,576.7c4.6-4,8-1.7,12.6-3.8c-3.8-1.8-11.4-1.9-13.3,2.6   C283.9,575.8,284.1,576.1,284.4,576.7z" />
	<path fill="#977264" d="M251.8,203.4c3.3,2.3-0.2,12.5,5.8,17.8c-0.2,0.5-0.5,1-0.7,1.5c-1.7,0-3.3,0.3-4.7-1.4   c-5.7,19.6,5.3,37.3,9.2,56.1c5.1-2.3,2.9,11.8,3.3,14.8c-0.6-0.1-1.2-0.2-1.7-0.3C254.2,252.9,239.2,246,251.8,203.4z    M263.8,288.8c-0.2,0-0.3,0-0.5,0c0,0.5,0.1,1,0.1,1.6c0.2,0,0.3,0,0.5,0C263.9,289.9,263.8,289.3,263.8,288.8z" />
	<path fill="#E6CCBB" d="M236.8,191.9c-2.1-2.2-4.1-4.1-6.4-6.1c0.1-1.1,0.1-2,0.2-3.1c10.7-1.2,23.4,7.7,31.1-3.2   c0.1-1.2,0.2-2.4,0.3-3.5c2.2,7.3-1.1,15.8-8.6,18.2c-0.3-0.9-1.1-0.8-1.7-0.9c-1-2.4-8.8-1.4-11.1-0.9c0.9,0.4,1.5,0.7,2.1,1   C240.5,193.7,238.6,192.9,236.8,191.9c0.7,0,1.4-0.1,2.5-0.1C237.9,191.2,237.1,190.6,236.8,191.9z" />
	<path fill="#B18B7C" d="M249.1,145.3c-2.3-4.2-4.6-8.5-8.4-11.8c16.3,1.9,22.6,19.3,21.9,33.9C257.3,160.2,254,152.5,249.1,145.3z" />
	<path fill="#EEEEEE" d="M256.8,277.1c2,9.3,7.6,19,5,28.6c-0.2,0-0.4,0-0.7,0C260.5,296.4,255.2,286,256.8,277.1z" />
	<path fill="#D4D5D5" d="M256.8,277.1c-1.1,0.5-0.4,1.5-0.7,2.3c-3.3-9.5-7.8-18.7-9.3-28.7c0.3,0,0.5,0,0.8,0   C250.3,259.6,254,268.1,256.8,277.1z" />
	<path fill="#1B1310" d="M161.5,310.2c2.2,6.3,1.2,13.2,2.9,20.2c-1.3,0.3-2.3,1.5-3.5,0.5c0-0.2,0-0.5,0-0.7   c0.7-0.1,1.3-0.3,2.2-0.5c-3.3-6.2-1.4-12.6-2.8-18.9c0.2-0.2,0.5-0.5,0.7-0.7C161.2,310,161.4,310.1,161.5,310.2z" />
	<path fill="#120F0D" d="M277.5,551.3c-3,2.5-7.6,2.7-10,6c-4.8-3.6,6.2-6.7,8.6-7.6C277,549.8,277.4,550.3,277.5,551.3z" />
	<path fill="#926D60" d="M262.4,309.1c1.9,4.7,4.8,8.6,5.3,14.1c0.4-0.1,0.8-0.3,1.2-0.4c0.2,1.6,0.1,3-1.7,4   C266.3,321,261.2,314.9,262.4,309.1z" />
	<path fill="#977466" d="M256.3,538.3c-1.7,2.4-2.2,5-5.1,5.6c-2.3-1.7-1.4-3.8-1.4-5.9C251.9,538.1,253.7,538.1,256.3,538.3z" />
	<path fill="#26201E" d="M249.1,145.3c3.3,4.4,5.5,9.7,8.4,14.5c-0.3,0.3-0.5,0.6-0.8,0.8c-2.5-5-6.2-9.3-8.6-14.4   C248.5,146,248.8,145.6,249.1,145.3z" />
	<path fill="#E1E3E3" d="M266.1,328.6c1.1,0.9,1.1,0.9,2.3-0.1c0.3,0.3,0.6,0.6,0.9,0.9c-1.2,2.1-2.5,4-3.6,6.1   C265.5,333.1,265,330.8,266.1,328.6z" />
	<path fill="#241513" d="M220.4,154.8c0.6-0.1,1.2-0.2,1.9-0.3c0.2-1.8-1.1-3.2-1.2-5c2.1,1.1,2.1,1.1,2.8,4.5   C223,155.1,221.6,156.4,220.4,154.8z" />
	<path fill="#BBBBBB" d="M247.5,250.6c-0.3,0-0.5,0-0.8,0c-1-2-1.5-4-1.5-6.2c0.3-0.3,0.5-0.7,0.8-1   C246.6,245.9,247.1,248.2,247.5,250.6z" />
	<path fill="#A3A6A6" d="M266.1,328.6c-0.3,0.8-0.5,1.5-0.8,2.3c-0.9-1.9-0.5-3.8-0.8-5.8c0.3-0.3,0.6-0.5,0.8-0.8   C265.8,325.8,266.6,327.1,266.1,328.6z" />
	<path fill="#909E8A" d="M267.3,545.9c1.8-0.4,3.5-0.8,5.4-1.2c0.2,0.3,0.4,0.6,0.6,0.9C271.5,547.6,269.5,545.8,267.3,545.9z" />
	<path fill="#6B6D6D" d="M244.6,240c-1.1-1.8-0.6-3.5-0.3-5.4c0.3,1.6,1.4,2.9,1,4.6C245.1,239.5,244.8,239.7,244.6,240z" />
	<path fill="#C5BFA6" d="M267.3,545.9c1.1,0,2.2,0,3,0.7c-1.2,0.3-2.4,0.5-3.5,0.8c-0.9-0.8-2-0.7-3-0.8   C264.9,545.8,266.2,546.1,267.3,545.9z" />
	<path fill="#B2B3B3" d="M244.6,240c0.2-0.2,0.5-0.5,0.7-0.7c0.2,1.4,0.5,2.8,0.7,4.2c-0.3,0.3-0.5,0.7-0.8,1   C245.1,242.9,244.8,241.5,244.6,240z" />
	<path fill="#5F6565" d="M265.4,324.3c-0.3,0.3-0.6,0.5-0.8,0.8c-0.9-0.9-0.4-2-0.7-2.9c0.2-0.1,0.5-0.1,0.7-0.2   C264.9,322.8,265.7,323.3,265.4,324.3z" />
	<path fill="#272221" d="M193.1,413c-0.1-0.9,0-1.7,0.6-2.3C193.9,411.6,194.2,412.5,193.1,413z" />
	<path fill="#272221" d="M194.5,409.3c0.3-0.7,0.5-1.5,0.8-2.2C195.3,408,195.8,408.9,194.5,409.3z" />
	<path fill="#272221" d="M192.4,415.1c0-0.8,0-1.6,0.8-2.2c0,0.7,0,1.5,0,2.2C192.9,415.1,192.6,415.1,192.4,415.1z" />
	<path fill="#D69479" d="M215.3,314.9c0-0.6,0.1-1.2,0.9-1.3C215.9,314,215.6,314.5,215.3,314.9z" />
	<path fill="#26201E" d="M257.5,162.7c-0.2-0.5-0.4-1.1-0.6-1.6C257.6,161.5,257.6,162.1,257.5,162.7z" />
	<path fill="#B28C7D" d="M261.2,305.7c0.2,0,0.4,0,0.7,0c0,0.4,0,0.8,0,1.2c-0.1,0-0.3,0-0.4,0.1   C261.3,306.5,261.3,306.1,261.2,305.7z" />
	<path fill="#26201E" d="M257.5,159.8c0.2,0.2,0.4,0.5,0.5,0.7C257.9,160.3,257.7,160,257.5,159.8z" />
	<path fill="#B28C7D" d="M262,305c0.1-0.3,0.3-0.6,0.4-0.9C262.3,304.4,262.1,304.7,262,305z" />
	<path fill="#272221" d="M194,410.1c0.2-0.3,0.4-0.6,0.6-0.8C194.3,409.6,194.1,409.8,194,410.1z" />
	<path fill="#B28C7D" d="M161.5,310.2c-0.2-0.1-0.4-0.2-0.6-0.2c0-0.2,0-0.5,0.1-0.7C161.3,309.6,161.5,309.9,161.5,310.2z" />
	<path fill="#F7EFD0" d="M147.2,555.9c3.5-4.6,5.2-11.3,5.8-17.2c2-1.2,4.1-1.8,6.4-2.3c2.7,2.5,4.4,6,7.9,7.8   c3.5,11.1,9.2,23.1,17,32c2.5,2.1,2.8,4.8,1.6,7.7c-14.6-3.3-18.3,4.3-34.1-0.3c-2-1.5-1.7-3.8-1.8-5.7   C143.1,572.8,148.9,563.4,147.2,555.9z M156.7,557.5c0,1-0.2,2,1.1,2.4c4.4-6.3,8.3-2.8,10.5-6c-2.7-2.6-6.6-0.5-9.4,0.9   c-0.3-0.3-0.6-0.6-0.9-0.9c2.7-2.2,6.2-2.6,9.4-3.8c-1-4.5-8.4,0.3-11,1.5c-1.9,0.7-2.7,5,0.1,4.3   C156.6,556.4,156.6,557,156.7,557.5z M158.9,563.9c3.8-2.3,7.6-2.9,11.3-5.1C168.8,555,156,560.5,158.9,563.9z M171.1,563.5   c-0.8-2.7-13.1,3.1-9.1,4.8C167.6,566.3,169.6,565.2,171.1,563.5z M163.4,571.6c2.8,0.4,8.3-1,10-3.2   C170.4,567.1,164.8,568.7,163.4,571.6z" />
	<path fill="#EADCB7" d="M147.2,555.9c1.6,7.5-4.2,17,2.9,22.2c0.1,2-0.2,4.2,1.8,5.7c15.8,4.6,19.4-3,34.1,0.3   c-0.1,0.3-0.1,0.7-0.2,1c-3.8-0.4-7.6-1.2-11.6-0.8c-0.7,1.2-2.9,1.3-2.5,3.5c1.8,0.4,2.8-0.5,4.1-1.7c2.8,0.2,5.9,0.4,9.8,0.7   c-11.6,4-23.7,3.6-35.5,1.7c-2.3-2.7-0.3-6.9-3.3-9c-0.3,1.3-0.5,2.2-0.8,3c-0.7,0.4-1.2,0.4-5-0.6c3.6-9.1,2.2-18.1,2.5-27.5   C144.9,555.3,145.9,556.3,147.2,555.9z" />
	<path fill="#120D0C" d="M161,330.1c0,0.2,0,0.5,0,0.7c-0.3,0.1-0.7,0.2-1.2,0.3c-1.3,3.8,1.5,7.2,1.3,11c-0.3,0-0.6,0-0.9,0   c-3.6-7.9-4.2-17.1-4.8-25.5C159.7,319.8,156.5,326.9,161,330.1z" />
	<path fill="#261D1A" d="M149.6,338.5c-0.7-4.4-2.4-8.5-5-12.2c6.7-0.5,4.8,13.9,9.1,17.9c-0.8,0.5-0.3,1.3-0.3,2.2   c-0.7-0.3-1.2-0.5-1.8-0.8c0-0.2,0-0.5,0-0.7C153.2,343.5,150,340.5,149.6,338.5z" />
	<path fill="#8E6C5F" d="M153.7,344.3c-0.9-2-2.5-3.5-2.6-5.8c0.4,0.2,0.8,0.4,1.2,0.5c1.4-1,0.7-2.4,1-3.4c1.3,3.2,1.1,6.8,3.4,9.5   c0.6,0.7,1.2,1.6,0.5,2.6C155.6,347.1,154.8,345.5,153.7,344.3z" />
	<path fill="#846357" d="M158.2,337.1c0.6,1.8,1,3.5,2,5.1c0,1.2,0.4,2.5-1.2,3.4c-2.2-2.7-3.6-5.6-3.6-9.1c0.7,0.7,1.5,1.4,2.4,2.3   C158,337.9,158.1,337.5,158.2,337.1z" />
	<path fill="#785C51" d="M147.8,552.3c-1.7-2.6-1.5-3.2,0.8-5.2C149.3,548.8,148.1,550.1,147.8,552.3z" />
	<path fill="#34231F" d="M218.3,109c-2.4-3.1-7.1-4-9.3-7.2c0.6-0.6,0.9,0,1.2,0.2c3,2.2,6.4,3.6,9.5,5.5   C219.2,108,218.8,108.5,218.3,109z" />
	<path fill="#71574C" d="M274.8,329.4c0,0.2,0,0.5-0.1,0.7c-3.9,1-4.4,6.9-5.2,10.3c-0.7-0.6-1.2-1.1-0.6-2.1   c-0.3-0.9-0.7-2.2-0.6-3.2c1.2-1.4,2.3-2.6,3.4-3.9c1.3-1.4,0.2-3.3,1.3-5.1C273.4,327.4,273.2,328.9,274.8,329.4z" />
	<path fill="#6F584E" d="M272.8,323.2c-1.3-2.5-2.2-4.3-3-6.2c1.3,0.3,1.3,0.3,2.7,1.9C272.3,320.1,273.2,321.3,272.8,323.2z" />
	<path fill="#765F55" d="M269.2,329.4c-0.3-0.3-0.6-0.6-0.9-0.9c1.4-1.9,2-3.2,2.5-5.7c0.5,1.8,0.3,3.1,0.2,4.6   C270.5,328,269.8,328.7,269.2,329.4z" />
	<path fill="#8D695C" d="M149.6,338.5c0.4,2,3.6,5,2.1,6.5c-3.9-2.9-7.1-7-6.4-12.3c1.2,2.3,2.4,4.6,3.8,7.4   C149.4,339.3,149.5,338.9,149.6,338.5z" />
	<path fill="#7A5C51" d="M274,332.2c0.1,0.6,0,1.3,0.8,1.5c-0.3,1.7-1.6,2.7-2.6,4.6C271.9,335.4,273,333.8,274,332.2z" />
	<path fill="#71574C" d="M274.6,330.7c0.2,0.7,0.1,1.2-0.6,1.5C274.2,331.7,274.4,331.2,274.6,330.7z" />
	<path fill="#8E6E61" d="M221.1,96.1c0-0.2-0.1-0.4-0.1-0.7c2.6,0.8,14.1-2.5,10.8,2.7C228.2,100.4,224.5,97.3,221.1,96.1z" />
	<path fill="#31201C" d="M231.8,95.4c-4.2,0.1-8.5,0.5-12.7-0.1c-0.4-2.6,2.5-0.7,3.5-2.2c2.7-2,6.8-2.7,10-2c0,0.3,0,0.6,0,0.9   c-1.6-0.4-3.1,0.8-4.7-0.1c-1.8,0.4-3.4,1.4-5.3,2.7c3.5,0,6.2-0.1,9.3,0.1C231.9,94.9,231.8,95.1,231.8,95.4z" />
	<path fill="#8A695C" d="M230.2,94.6c-2.5,0-4.8,0-7.7,0c1.9-1.5,3.5-2.4,5.3-2.7c1.6,0.9,3.1-0.3,4.7,0.1c0.2,0.6,0.5,1.3,0.7,1.9   C232.2,94.2,231,93.4,230.2,94.6z" />
	<path fill="#3B2B27" d="M221.1,96.1c3.4,1.2,7.1,4.2,10.7,2.1c0.3,0.3,0.5,0.6,0.8,0.9c0,0.2-0.1,0.4-0.1,0.6l0,0   C228.5,101.1,223.1,99.7,221.1,96.1z" />
	<path fill="#200908" d="M230.2,94.6c0.7-1.2,2-0.4,2.9-0.8c0.3,0.3,0.5,0.5,0.8,0.8l0,0C232.7,94.7,231.5,94.7,230.2,94.6z" />
	<path fill="#83695F" d="M233.9,94.7c0.9,0.4,0.7,1,0.2,1.7C234.1,95.8,234,95.3,233.9,94.7L233.9,94.7z" />
	<path fill="#B28C7D" d="M232.5,99.7c0-0.2,0.1-0.4,0.1-0.6c0.1,0.1,0.3,0.2,0.4,0.3C232.8,99.5,232.6,99.6,232.5,99.7z" />
	<path fill="#312621" d="M231.1,72.4c0.7-0.7,1.5-1.5,2.1-2.3c0,0.6,0.1,1.2,0.1,1.7c-1,1.2-1,1.2-0.2,2.2c-0.4,1.1-1.5,0.3-2.4,0.8   c-0.1,0.5-0.2,1.2-0.3,1.9c-0.2,0-0.3,0-0.5,0c-0.3-1-0.6-1.9-0.9-2.7c0.9-3,0.9-3,2.4-3.5C231.4,71.2,231.3,71.8,231.1,72.4   c-0.1,0.2-0.2,0.3-0.2,0.2C230.9,72.7,231,72.6,231.1,72.4z" />
	<path fill="#B0B9B8" d="M233.1,74c-0.8-1-0.8-1,0.2-2.2c0.3,0.7,0.6,1.4,1,2.1C233.8,73.9,233.4,74,233.1,74z" />
	<path fill="#16100F" d="M211,74.4c-0.7-1.2-1.3-2.1-1.9-3.1c3.6-1.4,9.4-3,12.5,0.2c-0.1,1.1,0.1,2.1,0.8,3.1   C218.7,75.7,214.6,75.9,211,74.4z M215.5,74.6c-0.1-1.2-0.2-2-0.3-2.8c-1.3,0.5-2.1,0.2-2.7,1.4C213.3,73.6,214.2,74,215.5,74.6z    M219.6,72.3c-1.1-0.8-1.6,0.2-0.4,0.7C219.3,72.8,219.4,72.6,219.6,72.3z" />
	<path fill="#1D110F" d="M211.1,65.5c4.2-1.3,11.1-1.6,13.2,2.8c-4.2-0.6-8-2.3-12.5-2.1C211.7,65.9,211.4,65.7,211.1,65.5z" />
	<path fill="#483731" d="M233.4,85.4c-0.8-1.5-1.6-2.9-2.3-4.5c2.3,1.8,5.2,3.5,2.4,6.6c-1.1,0-2.3,0-3.5,0c0.2-1.4,1.8-1.4,2.3-2.4   c0.3,0.2,0.6,0.4,0.8,0.6C233.1,85.6,233.2,85.5,233.4,85.4z" />
	<path fill="#4C3A33" d="M222.6,86c0.3,0.2,0.6,0.4,1,0.7c1.4-1,2.7-2.2,4.4-0.3c-1.2,0.6-2.3,1.2-3.5,1.9c-0.9-0.1-2.1-0.2-2.7-1.5   C222,86.5,222.3,86.2,222.6,86z" />
	<path fill="#89695D" d="M194.5,75.5c-0.3,0-0.7,0.1-1.1,0.2c-0.2,0.8-0.4,1.6-0.6,2.5c-0.7-0.4-1.2-0.6-1.6-0.9   c-0.1-2.2,2-2.3,2.7-3.4C194.7,74.2,194.6,74.9,194.5,75.5z" />
	<path fill="#362421" d="M211.1,65.5c0.3,0.2,0.6,0.5,0.8,0.7c-1.2,0.9-2.5,1.6-4.5,1.2C208.6,66,209.5,65.8,211.1,65.5z" />
	<path fill="#4B3B35" d="M204,97.5c-0.2,0.3-0.4,0.5-0.7,0.9c-1.2-0.8-2.3-1.5-2.3-2.9C202,96.1,203,96.7,204,97.5z" />
	<path fill="#4B3B35" d="M198.1,93.3c0.4,0,0.8-0.1,1.1-0.1c0.6,0.7,1.3,1.5,1.9,2.2C199.5,95.5,198.9,94.3,198.1,93.3z" />
	<path fill="#1B1211" d="M222.6,86c-0.3,0.3-0.5,0.5-0.8,0.8c0-0.9,0.1-1.9,0.1-2.7c0.2,0.2,0.5,0.5,0.7,0.7   C222.6,85.2,222.6,85.6,222.6,86z" />
	<path fill="#4C3A33" d="M222.6,84.8c-0.2-0.2-0.5-0.5-0.7-0.7C222.3,82.3,224.1,84,222.6,84.8z" />
	<path fill="#4B3B35" d="M198.9,92.5c-0.7-0.3-0.7-0.9-0.7-1.5C198.4,91.5,198.6,92,198.9,92.5z" />
	<path d="M198.1,71.7c-0.2-0.3-0.4-0.7-0.6-1C197.7,71,197.9,71.4,198.1,71.7z" />
	<path fill="#664F46" d="M191.9,70.4c0.1,0.3,0.2,0.6,0.4,0.8c-0.5,0.2-0.7,0-1-0.5C191.5,70.7,191.7,70.6,191.9,70.4z" />
	<path fill="#B28C7D" d="M193.9,73.2c-0.2-0.1-0.3-0.2-0.5-0.3C193.9,72.5,193.8,73,193.9,73.2L193.9,73.2z" />
	<path fill="#D59378" d="M250.3,415.8c-0.1,0.6-0.6,0.9-1,0.5c-3.3-2.1-7.4-2.7-8.1-7.4c-1.5-4.9,4.9-4.7,6.7-1.5   c1.2,1.9,1.7,4.1,3,5.8C249.5,412.8,248.9,415.3,250.3,415.8z" />
	<path fill="#D29277" d="M178.1,408c-3.1-2.2-4.9-4.9-4.3-8.8c0.6-0.6,1.4-1.3,2.2-2.1c1.2,0.7,2.7,0.5,2.8,2.3   c-0.4-0.1-0.8-0.2-1.4-0.4C176.9,402.3,177.5,405,178.1,408z" />
	<path fill="#31221D" d="M172.4,461.1c0.1-4.5,1.4-8,3.8-10.9C177.7,453.9,175,457.5,172.4,461.1z" />
	<path fill="#180F0C" d="M178.1,407.3c-1.1-2.6-1-5.4-0.7-8.3c0.6,0.1,1,0.3,1.4,0.4v0.1c0.9,2.5,0.8,5.2,0.6,7.7   C179,407.2,178.6,407.3,178.1,407.3z" />
	<path fill="#B17C69" d="M191.1,301.6c5.1,1.3,8.1,4.1,12.5,7.7C198.7,307.6,195,304.6,191.1,301.6z" />
	<path fill="#1F1512" d="M256.3,400.9c3,2.2-0.8,7-2.7,8.4C253.8,406.2,255.5,403.7,256.3,400.9z" />
	<path fill="#372721" d="M246.1,450.2c0-0.6,0-1.2,0-2.3c2.4,1.5,3,3.6,1.6,5.8C247.1,452.6,246.6,451.4,246.1,450.2z" />
	<path fill="#020202" d="M171.3,467.5c-1.1-2.1-1.2-3.5,0.1-5.1C172.8,464,172.2,465.4,171.3,467.5z" />
	<path fill="#362620" d="M182.3,408.8c0.1,1.1,0.5,2.3-0.3,3.5c-1.6-0.9-1.7-2.3-1.8-3.6c0.1-0.2,0.2-0.4,0.2-0.7l0,0   c0.5,0,0.9-0.1,1.4-0.1C181.9,408.3,182.1,408.5,182.3,408.8z" />
	<path fill="#432F28" d="M250.4,462.3c-1.4-1.1-2.3-2.4-2-4.4C250.3,459,251,460.3,250.4,462.3z" />
	<path fill="#6A473D" d="M198.5,311.7c2.2,0.4,4.1,1.4,5.9,2.7C202.8,315.8,200,312.8,198.5,311.7z" />
	<path fill="#120B0A" d="M168,476.8c-0.7-1.5-0.5-2.5,0.3-3.5C169.8,474.7,169.8,474.9,168,476.8z" />
	<path fill="#3A241E" d="M221.1,310.7c-0.8,0.6-2.1,2.5-2.7,0.8l0,0c1-1.1,1.6-2.5,3.1-3C222.1,309.4,221.2,310,221.1,310.7z" />
	<path fill="#211E19" d="M250.3,415.8c-1.4-0.5-0.8-3,0.7-2.5c0,0.4,0.1,0.7,0.1,1.1C250.8,414.8,250.6,415.3,250.3,415.8   L250.3,415.8z" />
	<path fill="#4D352D" d="M249.7,465.2c1.3,0.8,1.7,1.5,1.2,2.6C249.7,467.4,249.5,466.6,249.7,465.2z" />
	<path fill="#BA816A" d="M179.5,401.7c-0.2-0.8-0.4-1.5-0.6-2.3C179.9,399.9,179.6,400.8,179.5,401.7z" />
	<path fill="#BA816A" d="M181.7,408c-0.5,0-0.9,0.1-1.4,0.1C180.9,407.1,181.1,407.1,181.7,408z" />
	<path fill="#D59378" d="M250.3,415.8c0.2-0.5,0.5-1,0.7-1.5C251.2,414.9,251.2,415.6,250.3,415.8z" />
	<path fill="#6A4037" d="M251.1,471.7c-0.1,0.2-0.2,0.4-0.2,0.6c-0.6-0.2-0.5-0.5-0.2-0.9C250.8,471.5,251,471.6,251.1,471.7z" />
	<path fill="#BA816A" d="M179.6,406.6c0-0.5,0-1,0-1.5C180.5,405.6,180.5,406.1,179.6,406.6z" />
	<path fill="#BA816A" d="M178.1,407.3c0.5-0.1,0.9-0.1,1.4-0.2c0,0.3,0.1,0.6,0.1,0.8l0,0c-0.5,0-1,0-1.5,0   C178.1,407.8,178.1,407.6,178.1,407.3z" />
	<path fill="#BA816A" d="M182.3,408.8c-0.2-0.3-0.4-0.6-0.6-0.9C181.9,408.3,182.1,408.5,182.3,408.8z" />
	<path fill="#BA816A" d="M180.4,408.1c0,0.2,0,0.5-0.2,0.7c-0.2-0.2-0.4-0.5-0.7-0.7l0,0C179.9,408,180.1,408.1,180.4,408.1z" />
	<path fill="#D69479" d="M218.8,310.7c-0.2,0.3-0.4,0.5-0.6,0.8C218.5,311.2,218.6,311,218.8,310.7z" />
	<path fill="#0E0A09" d="M203.9,191.4c-9-0.5-20.6-0.9-24.4-10.6c0.3-0.3,0.6-0.6,0.9-1c7.5,12.6,23.1,7.1,34.2,9.3   C211.2,190.5,207.5,190.8,203.9,191.4z" />
	<path fill="#E7CDBC" d="M220.5,258.6c-0.3-10.5-2.9-21.2,0.9-31.1c2.5,8.8,0.5,17.5,0.2,26.2C221.7,255.8,222.2,257,220.5,258.6z" />
	<path fill="#3A3532" d="M240.9,278.8c0.4-3.5,1.1-8,3.4-10.6C245.2,272.3,243.6,276,240.9,278.8z" />
	<path fill="#45332F" d="M242.6,193.3c-0.6-0.3-1.2-0.6-2.1-1c2.3-0.5,10-1.5,11.1,0.9C248.6,193.2,245.6,193.3,242.6,193.3z" />
	<path fill="#5C433E" d="M216.7,187.8c-0.2-0.3-0.4-0.5-0.7-0.8c0.5-1.1,1.2-1.6,2.6-1.5c0.1,0.4,0.1,0.8,0.2,1.2l0,0   C218.1,187.2,217.4,187.7,216.7,187.8z" />
	<path fill="#282422" d="M235.8,233.8c0.9,1.5,0.7,2.5,0.1,3.9C234.2,237.1,234.1,235,235.8,233.8z" />
	<path fill="#584D46" d="M187.5,269.9c0.2-0.5,0.4-0.9,0.7-1.6c1.4,1.1,1.8,2.1,1.3,3.5c-0.5-0.2-0.9-0.3-1.3-0.5   C187.9,270.9,187.7,270.4,187.5,269.9z" />
	<path fill="#594A44" d="M191.8,278.4c0.3-0.2,0.5-0.4,0.8-0.7c1,1,1.7,2,1.9,3.5c-0.7-0.2-1.1-0.4-1.5-0.5   C192.6,280.1,192.2,279.2,191.8,278.4L191.8,278.4z" />
	<path fill="#5B554F" d="M237.7,244c1,1.2,0.7,2.4,0.3,4c-1.5-1-1.1-1.8-1.2-3.2C237.1,244.6,237.4,244.3,237.7,244z" />
	<path fill="#7B635D" d="M233.2,188.4c0.2,0.2,0.5,0.5,0.7,0.7c-1.1,1.3-2.2,0.8-3.4-0.3C231.6,188.2,232.4,188.4,233.2,188.4z" />
	<path fill="#695B56" d="M236.7,243.6c-0.8-0.9-0.9-1.9-0.4-2.9c1,0.5,1.3,1.2,1.2,2.1C237.2,243,237,243.3,236.7,243.6z" />
	<path fill="#81726A" d="M236.6,225.8c0,0.6,0,1.2,0,1.9C235.2,227,235.2,227,236.6,225.8z" />
	<path fill="#4D423E" d="M236.8,286.9c0.1,1.5-0.3,2.2-1.4,2.4C235.4,287.9,235.4,287.9,236.8,286.9z" />
	<path fill="#1B1918" d="M239,282.4c-0.1,1.3-0.1,1.3-1,1.9C238.1,283.1,238.1,283.1,239,282.4z" />
	<path fill="#24201E" d="M236.7,243.6c0.3-0.3,0.5-0.6,0.8-0.8c0.1,0.4,0.2,0.8,0.2,1.2c-0.3,0.3-0.5,0.6-0.8,0.9   C236.9,244.4,236.8,244,236.7,243.6z" />
	<path fill="#E6CCBB" d="M217.5,187.6c0.5-0.3,0.9-0.6,1.4-0.8C218.8,187.7,218.1,187.6,217.5,187.6z" />
	<path fill="#9F9086" d="M236.1,232.1c-0.1,0.1-0.3,0.2-0.4,0.3c-0.1-0.3-0.2-0.7,0.2-0.8C235.9,231.7,236,231.9,236.1,232.1z" />
	<path fill="#E6CCBB" d="M191.8,278.4c0.2,0.5,0.5,1,0.7,1.5C191.7,279.7,191.8,279.1,191.8,278.4z" />
	<path fill="#5D544F" d="M236,221.4c0,1.3-0.4,1.3-0.5,0C235.7,221.4,235.9,221.4,236,221.4z" />
	<path fill="#171210" d="M147.9,228.4c0.1-1.4-1.1-2.5-0.3-4.2c0.3,0,0.7-0.1,1.1-0.2c0.9,2.8,0.9,2.8,0.4,5.6   C148.7,229.2,148.3,228.8,147.9,228.4z" />
	<path fill="#563F37" d="M145.1,218.5c-0.6-0.8-1.3-1.6-1.9-2.4c1-1,1.4,0.1,2,0.2c0.3,0.5,0.5,1,0.8,1.4   C145.7,217.9,145.4,218.2,145.1,218.5z" />
	<path fill="#221715" d="M145.1,218.5c0.3-0.3,0.6-0.5,0.9-0.8c0.3,0.2,0.6,0.5,0.8,0.7c-0.1,0.7-0.1,1.4-0.2,2.1   C145.5,220.1,145.3,219.3,145.1,218.5z" />
	<path fill="#453731" d="M148.4,321.7c1.1,0.4,1.4,1.1,1,2.2C148.2,323,148.2,323,148.4,321.7z" />
	<path fill="#362C27" d="M148.6,290.4c-0.5-0.3-0.4-0.5-0.2-1C148.9,289.7,148.8,289.9,148.6,290.4z" />
	<path fill="#846357" d="M160.9,338.7c-0.1-0.3-0.3-0.6-0.4-0.9C160.6,338.1,160.7,338.4,160.9,338.7z" />
	<path fill="#2D2623" d="M180.4,179.8c-0.3,0.3-0.6,0.6-0.9,1c-1.6-1.9-2.7-4-3.7-6.6C178.3,175.6,178.3,175.6,180.4,179.8z" />
	<path fill="#39302B" d="M174.2,171.4c-0.3-0.6-0.7-1.2-1-1.8c0.4-0.2,0.7-0.4,1.1-0.6c0.3,0.6,0.7,1.2,1,1.9   C174.9,171,174.7,171.2,174.2,171.4z" />
	<path fill="#7C6B63" d="M186.2,263.4c1.6,1.1,1.6,1.3,0,2.2C186.2,264.9,186.2,264.2,186.2,263.4z" />
	<path fill="#7A5D55" d="M220.7,184.7c-0.1-0.1-0.1-0.2-0.2-0.2c0.2-0.2,0.3-0.2,0.5,0C220.9,184.5,220.8,184.6,220.7,184.7z" />
	<path fill="#261C19" d="M261.3,216.2c-1.6-2.3-0.1-4.2,0.2-6.9C263.3,211.4,262.9,213.8,261.3,216.2z" />
	<path fill="#1C1715" d="M259,217c0.3,0,0.7,0,1.2,0c0.6,1.3,0.6,2.5-0.4,3.7C258.7,219.6,258.9,218.3,259,217z" />
	<path fill="#977264" d="M259,217c-0.1,1.4-0.3,2.6,0.7,3.7c-0.5,0.2-1,0.4-1.5,0.6l0,0C258.2,219.8,258,218.2,259,217z" />
	<path fill="#5D4D45" d="M256.9,222.7c0.2-0.5,0.5-1,0.7-1.5c0.2,0,0.5,0,0.7,0l0,0C258.3,222.3,258.4,223.9,256.9,222.7z" />
	<path fill="#30201D" d="M189.7,127.2c2.6-0.8,4.8-0.4,6.9,0.9C196.8,129.9,189.6,128.5,189.7,127.2z" />
	<path fill="#1A110F" d="M205.6,130c0.8-0.9,1.5-1.1,2.3,0C206.6,130.9,206.6,130.9,205.6,130z" />
	<path fill="#201B19" d="M202.4,129.4c-0.8,1.4-0.9,1.4-2.5,0C200.9,128.8,201.7,128.7,202.4,129.4z" />
	<path fill="#13110F" d="M272.4,561c-0.5-0.5-0.8-1-1.2-1.3c1.5-2.1,3.1-3.1,7.8-4.9C281.7,558,274.4,559.5,272.4,561z" />
	<path fill="#251F1B" d="M282.6,559.4c0,2.6-3.4,2.8-5.5,2.5C277.1,559.1,280.4,558.4,282.6,559.4z" />
	<path fill="#0C0707" d="M145.1,165.1c0.4,1.2,0.4,2.5,0,3.6C143.3,168.3,143.3,165.2,145.1,165.1z" />
	<path fill="#0D0B0A" d="M146.6,172.6c-1.4-1.2-0.8-2.6-0.6-4.1C148.1,169.2,146.8,171.2,146.6,172.6L146.6,172.6z" />
	<path fill="#181310" d="M284.4,576.7c-0.3-0.6-0.5-0.9-0.7-1.2c2-4.5,9.5-4.4,13.3-2.6C292.5,575.1,289,572.8,284.4,576.7z" />
	<path fill="#010101" d="M263.8,288.8c0,0.5,0.1,1,0.1,1.6c-0.2,0-0.3,0-0.5,0c0-0.5-0.1-1-0.1-1.6   C263.4,288.8,263.6,288.8,263.8,288.8z" />
	<path fill="#4A312E" d="M236.8,191.9c0.5-1.4,1.3-0.8,2.5-0.1C238,191.8,237.4,192,236.8,191.9z" />
	<path fill="#100C0B" d="M156.6,555.9c-2.8,0.6-2-3.6-0.1-4.3c2.5-1.3,10-6,11-1.5C163.9,551.5,158.2,551.8,156.6,555.9z" />
	<path fill="#14110F" d="M158.9,554.7c2.8-1.3,6.7-3.4,9.4-0.9c-2.2,3-6.2-0.2-10.5,6c-1.3-0.4-1.2-1.4-1.1-2.4   C157.4,556.6,158.2,555.6,158.9,554.7z" />
	<path fill="#15110F" d="M158.9,563.9c-2.8-3.3,9.9-8.8,11.3-5.1C166.5,560.9,162.7,561.6,158.9,563.9z" />
	<path fill="#1D1916" d="M171.1,563.5c-1.4,1.8-3.4,2.8-9.1,4.8C157.9,566.6,170.3,560.7,171.1,563.5z" />
	<path fill="#1B1714" d="M163.4,571.6c1.4-3,7-4.6,10-3.2C171.7,570.7,166.3,572,163.4,571.6z" />
	<path fill="#BBB6A0" d="M158.9,554.7c-0.8,1-1.5,1.9-2.3,2.8c-0.1-1.4-0.1-3,1.4-3.6C158.3,554.2,158.6,554.5,158.9,554.7z" />
	<path fill="#B28C7D" d="M231.1,72.4c-0.1,0.1-0.2,0.3-0.2,0.2C230.9,72.7,231,72.6,231.1,72.4C231.2,72.5,231.1,72.4,231.1,72.4z" />
	<path fill="#D1DDDC" d="M215.5,74.6c-1.3-0.6-2.1-1-3-1.5c0.7-1.2,1.5-0.9,2.7-1.4C215.2,72.6,215.3,73.4,215.5,74.6z" />
	<path fill="#434545" d="M219.6,72.3c-0.2,0.3-0.3,0.5-0.4,0.7C218,72.5,218.5,71.5,219.6,72.3z" />
</g>
</g></svg>