<?xml version='1.0' encoding='utf-8'?>
<svg xmlns="http://www.w3.org/2000/svg" version="1.2" baseProfile="tiny" id="Layer_2_00000140695785274145356730000004789548526439859108_" x="0px" y="0px" viewBox="0 0 900 600" overflow="visible" xml:space="preserve">
<g id="b">
	<g><path d="M208.4,500.1c-11.7-0.7-20.9-12-23-23c-1.7,0.6-2.6,0.5-3.6,2.1c1,0.3,1.7,0.5,2.3,0.6c0,0.4-0.1,0.7-0.1,1.2   c-2.2,0.1-3.5,1.4-4,3.6c-1.1,0.2-2.1,0.4-3.2,0.6c0,1.2,0.3,2.3,0.8,3.4c-0.2,0.3-0.4,0.6-0.6,0.8c1.6,0.9,2.5-0.7,3.8-0.8   c0.8,1.6,1.9,2.6,3.4,3.6c-0.6,0.6-1.2,1-1.8,1.6c1,1.4,2.7-0.2,3.6,1.2c-1.1,0.8-2.1,1.7-3.7,2.9c1.5,0.1,2.4,0.1,3.5,0.2   c-0.1,0.5-0.1,1.1-0.3,1.1c-2.5,0.9-3.5,2.9-4.3,5.1c-1,0.5-1.8,0.8-2.8,1.2c0.2,0.6,0.3,0.9,0.5,1.3c-1.7,1.7-4,0.5-6.3,1.3   c-0.3,0.4-0.7,1-1,1.5c-3.9-0.4-7.7-1.6-8.7,3.6c-5,2.7-10.2,2.3-16.6,1.8c-0.1,0.5-0.2,1.2-0.4,2.1c-4,0-8.1,0.3-12.5-0.5   c-0.2,0.4-0.6,1-1,1.7c0.2,1,0.4,2,0.6,3.3c-4,1.9-8.7,0.9-11.7-1.9c-1.7-0.1-3-0.2-4.4-0.3c-0.4-0.6-0.6-1.6-2-1   c0.4,0.7,0.6,1.4,1,2c-0.2,0.5-0.4,0.9-0.6,1.7c-1.1-0.9-1.9-1.7-2.8-2.4c-5.7,0-9.7-2.9-13.1-7.6c-1.1,1.7-3.3,0.6-4.7,2.2   c1.5,0.6,4-0.4,3.7,2.7c-5.1-0.3-9.4,1.7-12.6-4c-1.3-0.1-2.6-0.3-4-0.6c-0.3-1.1-0.5-2.2-0.7-3.2c-1.4-0.4-2.7-0.7-4.1-1.2   c0,1,0,1.8,0,2.6c-7,0-5.7-0.4-10.6-5.2c-5-0.6-10.2,1-14.8,2.7c-1.9-0.6-3.6-1.2-5.5-1.9c-0.5-1.1-1-2.5-1.6-4   c-1.7-0.2-2.7-0.3-4.3-0.4c0.1-2.3,0.3-4.4-0.3-6.7c-3.9-0.8-3.3-4-3.2-7.1c-0.6-0.8-1.2-1.7-1.8-2.7c0.5-0.7,0.8-1.3,1.1-1.8   c-0.4-0.7-0.7-1.4-1-1.8c0.6-1.9,2-1.7,3.2-2.3c1.4-5.9-4.6-13.2-0.6-18.4c0.6-4.2-1.2-7.7,1.2-11.1c1.7-3.6-0.6-13.2,6.6-9.6   c0.6-0.5,1.1-0.8,1.8-1.5c0.6-5.2-0.2-8.6,6-11c0.6,0.7,1.1,1.5,1.7,2.3c1.9-0.6,3.7-2,5.1-3.9c1.1,0.2,2.1,0.4,3.6,0.6   c-0.6,1.1-1.2,1.8-1.7,2.7c0.6,0.8,1.3,1.7,1.9,2.4c1.9-0.7,2.5-3.5,4-4.7c4.6,0.2,0.9,7.7,9.7,1.4c1.3,0.1,2.7,0.2,4,0.3   c-0.1,1.6-0.1,1.6-1.2,2.6c0.5,1.3,1.8,1.7,2.9,2.8c1.6-0.7,3.1-2.8,5-2.1c0.2,0.7,0.3,1.6,0.5,2.4c1.4-0.8,1.6-2,1.3-3.3   c4.4-8.6,9.7-18,19-21.8c0.4,0.3,0.7,0.6,1,0.8c-2.2,1.7-4.4,3.3-6.5,4.9c-4.2,13.6,5.2,20.5,15.8,26.1c0.6,1.5,1.7,0.6,2.6,0.8   c0.5,0.6,0.9,1,1.2,1.4c3.9,0.2,5.1,4,7.8,6.3c0.1,1.8,2.1,2.2,2.6,4c0.6-0.6,1.1-1,1.6-1.5c0.3,0.6,0.6,1.1,0.9,1.6   c-0.8,0.6-1,1.1,0,1.7c0,0.3,0,0.6,0,0.9c-0.3,0.3-0.5,0.6-0.7,0.8c-14.8-8.7-28.1-20.4-39.4-33.1c-2.7,7.6-9.9,15.2-8.4,23.5   c0.9-0.3,1.6-0.4,2.4-0.6c0.7,1.5,1.6,2.9,2.3,4.2c2.9,0.6,5.7,0.6,7.4,3c1.6-0.1,3.1-0.3,4.6-0.4c0.6,0.3,1.1,0.6,1.7,0.9l0,0   c0.4,0.7,0.7,0.7,1,0v0.1c0.5,0.3,0.8,0.6,1.3,0.9c-0.4,0.7-0.6,1.4-0.9,2c6,2,12.3,0,17.8,3.1c0.2,1.1-0.6,1.7-1.4,2.3   c-1.3-0.6-4.2,0.3-2.9,2.1c2.2-0.6,5.1-1.6,7,0.2c-0.5,0.4-0.8,0.8-1.6,1.5c0.9,0,1.5,0,2.2,0c-0.3-0.6-0.5-1.1-0.6-1.6   c1.2-0.2,2.6,0.6,3.5-0.7c0.9,0.6,1.9,1,3.1,0.8c11.9,11,15-1.8,18.6,1.7c-0.3,0.5-0.5,0.9-0.7,1.5c1.1,1.1,2.2,2.1,3.5,3.2   c2.6-2.2,11.3-2.1,12.7,1.4c-0.1,0.6-0.3,1.4-0.4,2c-2.4,0.5-4.8,0.8-7.3,1.3c0.1,0.4,0.2,0.7,0.3,1.2c2.8,0.2,5.4,0.4,7-2.5   c4.7,0,8.6-2.9,13.1-3.5c4.3,0.3,3.6-3,1.9-5.6c1.3-7.1,3-13.3,7.3-19.4c4.2-1.6,7.7-5.1,11.7-7.1c3.2-2.6,8.8-3.6,10.6-7.4   c-7.3-0.8-14.2-2-21.2-2.9c-2.2-2.3,2.5-7.3,1.6-10.8c0.3-0.8-0.4-2,0.8-2.6c1.6,3.6,0.8,7.4,0.5,11.1   c37.1,13.3,43.4-33.8,75.2-37.3c24.7-7,28.2,6.1,46.9,12.7c0,0.3,0,0.6,0,0.7c-10.5,2.4-21.6-15.9-41-12.5   c6.6,2.8,16,3.1,18.4,10.1c-0.3,0.3-0.6,0.6-0.8,0.9c-1.6-1.1-3.3-2-4-4c-34.9-15.6-50.5,20.9-74.8,37c0.1-0.2,0.3-0.4,0.4-0.6   c25.9-12.6,60.2,7.8,42.2,37.8c11,5.2,21.4,11.2,32,17.2c-0.4,0.4-0.6,0.6-1,1c-14.1-3.9-25.1-14-38.3-20.1c0.4-0.4,0.7-0.6,1.1-1   c1,0.4,2,0.7,2.9,1c5.5-4,5.4-12.3,5.2-18.2c-9.4-27.2-43.4-17.8-62.3-6.1c-18.5,12.9-8.7,48.4,12.7,53   C208.7,499.4,208.6,499.7,208.4,500.1z M150.7,473.2c1.5,1,2.4,1.9,4,1.8c0-1.7-0.9-2.3-2-2.9C152.3,472.5,151.8,472.7,150.7,473.2   z M76.9,436.5c-0.5,1.8,2.9,3,2.9,0.9C79.1,436.2,78.2,435.6,76.9,436.5z M54.3,465.8c1.5,0.4,2.8,0.6,3.7-1.1   C56.5,464.2,55.2,464.1,54.3,465.8z M57.2,498.8c-0.4,1.2-0.1,1.8,1.3,1.8C57.9,499.8,57.5,499.4,57.2,498.8z M67.5,466.3   c-0.8-1.2-1.9-0.7-1.1,0.5C66.7,466.6,67,466.4,67.5,466.3z M184.3,473.6c-1.5,0.6-1.7,0.4-2.4,1.4   C183.2,475.5,183.8,475.3,184.3,473.6z M84.4,456c-0.4,0.6-0.6,0.9-1,1.7c0.9-0.1,1.5-0.1,2.4-0.1C85.2,457,84.9,456.6,84.4,456z    M116.5,462c-0.8,0.9-0.5,0.9,0.3,1.5C117.5,463.1,116.8,462.6,116.5,462z M56.4,503c0.7,0.6,1.1,1,1.7,1.5   C58.3,503.3,58.1,502.7,56.4,503z M131,513.8c-0.2,0.3-0.1,0.4,0.1,0.6c0.1-0.2,0.1-0.4,0.2-0.6C131.2,513.8,131.1,513.8,131,513.8   z" />
	<path fill="#010000" d="M332.2,404.3c39.9,9.2,80.7-1.7,121.1,4.7c29.9-25.6,93.5-127.6,134.5-115.9c12.8,8,17.7,23.1,25,35.5   c24.4,33,40.6,72.2,68.4,102.6c6.6-0.6,13.1-1.7,19.3,1.3c7.6-2.7,15.7-4.3,23.7-5.4c24.5-4.1,26.3-31.3,46.6-9.9   c1.6,7.1-2.8,13.3-5.2,19.6c10.5,3.2,23.5,0.2,34.4-1.7c-1.4-6.1,8.1-9.1,11-13.7c9.2-12.6,21.5-26.6,20.1-43   c-0.1-6.9,8.7-14.4,15.2-10.3c15.9,19.3,19.1,35,13.2,59.1c-1.7,6.6-7.6,8.7-8.1,15.8c7.1,13.2,5.7,36.8-10.9,41.6   c-11.2-2.7-21.8-8.6-33.1-11.3c-6.9-1.3-6.5-4.9-9.1-9.7c-24.8,4.7-50,10-74.7,16.2c-9.8,9.8-23,29.8-38.9,23.5   c-2.1-7.9-5-14.8-9.7-21.9c-56.2-17.4-107.1-4.5-163.7,0.2c-23.6,32.7-69.5,7.5-101.8,6.3c-35.6-4-71.4,2.9-106.6,7.5   c16.8,13.9,33.7,26.9,53.7,35.7c-0.4,0.3-0.6,0.6-1,0.9c-24.9-6.5-41.7-27-63.2-39.3c0.4-0.3,0.6-0.6,1-0.9   c28.1,1.6,55.4-7.6,83.5-8.1c20.1-2.2,40.2,2.3,59.6,4.7c-4.5-16.8-5.4-48.8,5.2-63.2c1.3,0.6,0.6,1.7,0.8,2.6   c-8.6,19.6-5.2,42.1-1.4,62.7c19,6.9,41.1,5.4,59.8-1.7c15.9-12,16.6-32.8,25.4-48.9c18.1-29.6,38.7-58.5,52.1-90.6   c0.9,0.1,2.1-0.3,2.7,1c-1.8,33,31.2,51.1,52.6,70.5c13.4,10.3,22,25.4,33.3,37.1c6.3-5.8,10.9-13.2,16.9-19.6   c-30.8-33.1-51.7-75.1-76.2-112.4l0.1,0.1c-4.1-12-13.2-29.6-26.4-32.1c-53,12.6-89.8,85.6-130.2,120.6c-0.4-0.4-0.6-0.6-1-1   c0.5-0.6,0.8-1.3,1.5-2.2c-2.1-0.3-3.8-0.5-5.2,0c-0.5,2.6-0.9,4.9-1.3,7.2c-2.9-1.8-0.8-5.2-3-7.5c-40-4.6-80.1,5.4-119.5-5.8   C325.6,403.7,329,404.5,332.2,404.3z M813.2,445.1c-1.9-4-4.9-7.2-8.9-8.6c-2.7,0.8-5.2,1.6-7.7,2.4c1.8,7.2,2.3,14,0,21.2   C804.9,459.8,821.9,456.7,813.2,445.1z M678,451.1c-1.2,0.9-1.8,2.3-2.7,3.8c6,5.2,9.4,0.6,10.7,3.2c-0.6,0.6-1.2,1-2.3,2   c6.8,1.6,13.8-7.6,11-13.2c-3.1-2.5-5.9-4.6-8.6-6.7C683.1,443.3,680.8,447.6,678,451.1z M795.5,451.1c0.2-4-0.1-7.9-1.9-11.7   c-10.2,2.3-19.8,1.9-30.1,1.6c-7.4,15.3-24,20.3-34.1,33.5c21.7-3.3,42.8-8.2,64-13.6C794.9,457.6,795.9,454.5,795.5,451.1z    M661.5,456.8c-9.8-13.9-19.9-28.9-38.4-29.3c-10.7-4.2-21.6,1.4-32.4-0.7c-15.7-2.4-31.4-5.2-47.1-7.5   c-13.8,17.8-20.4,38.1-29.1,58.5c53.4-4.5,107.5-16.9,160,0.6c-1.7-4.9-5.2-7.8-7.4-12.2C667.9,461.6,664,459.7,661.5,456.8z    M635.5,426.8c-21.1-21.2-52.7-35.8-57.1-68.4c-8.6,20.3-22.8,37.3-32.4,57c19.4,3.5,40.6,10.1,60.3,8.2c10.3-2.6,21.3,3,30.9,4.6   C636.6,427.7,636,427.3,635.5,426.8z M766.5,416.6c-8.4-11.5-15.5,0.6-23.4,5.1c-0.5,1.3-0.9,2.4-1.4,3.8c-1.2-0.7-2.1-1.2-3.1-1.8   c-0.6,0.4-1.2,0.6-1.7,0.9c-0.3,2,1.2,4-0.4,6c-1.8-0.6-2.1-1.9-2.8-3.7c-1.3,0.9-2.2,1.7-3.3,2.4c0.6,1.7,2.6,4.4-0.5,5   c-1-1.2-1.9-2.5-2.9-4c-2.1,0.7-4.4,0.4-6.2,1.4c-0.1,2.4,2.1,6.9-1.6,6.7c-2.2-1.4-1.4-4.3-3.2-6.2c-1.2,0.3-2.4,0.5-3.9,0.7   c0.8,2.8,3.8,6.6,0.6,8.7c-2.3-2.3-2.5-5.7-4.8-7.9c-7.9,2.9-15.4-1.8-23.4,0.2c2.3,5.6,6.9,6.4,11.5,9c6.9,7-4,21.5-13,21.2   c-3.7-2.6-16.3-3.7-12.3,3.7c2.1,2.6,3.8,5.4,5.2,8.5c2.3,7.5,9.4,13.2,10,21.2c-0.1,1.6,0.5,2.9,1.7,4.1   c21.3-2.9,31.5-26.2,47.5-38.4c15.7-10.9,29.7-25,33.9-44.5C768.6,418.1,767.5,417.3,766.5,416.6z M809.7,461.8   c-2.9,0.3-5.2,1.5-7.1,3.4c0.4,3.6,2.4,4.9,5.5,5.4c7.5,1.6,14.6,5.3,21.8,8.1c25.4,10.9,25.8-21.4,19.4-37.3   c0.2-7.4,8.8-10.9,8.6-18.4c4.4-19.1,0.5-38.1-13.3-52.7c-3.2-0.4-5.9,1.9-8.9,2.9c-2.8,3.7-1.7,8.2-1.7,12.4   c-0.5,6.6-4.7,12-7.1,18.1c1.9,1.7,4.5,2.1,5.1,5.2c-2.9,1.5-4.5-1.2-6.7-1.9c-1.1,0.8-1.8,1.9-2.1,3.2c1.4,1.9,4.9,1.3,4.9,4.5   c-2.5,1.5-4.6-0.9-7.2-1.4c-0.6,0.9-1.1,1.7-1.6,2.4c1.4,2.8,4.9,3,6,5.8c-2.1,3.1-5.9-1.4-8.3-2.6c-0.6,0.7-1,1.4-1.7,2.1   c3.1,2.4,6.8,2.6,8.7,6.1c-3.6,2.5-10.9-5.9-12-1.7c3,1.3,4.3,4.4,7.1,5.9c0.5,0.3,0.5,1.1,0.8,1.8c-4.7,1-7.7-3.4-11.4-5.7   c-1.4,1.3-2.7,2.5-4.3,4.1C814.6,438.8,826.3,454.9,809.7,461.8z M669.7,461.8c3.2-1.1,4.7-1.7,7.7-3.3c-1.6-0.9-2.8-1.6-4-2.3   C671.7,457.7,669.7,458.7,669.7,461.8z" />
	<path fill="#977264" d="M208.4,500.1c0.1-0.4,0.2-0.7,0.4-1.1c-14-2.9-19.9-16-22.1-28.7c23.8,28.5,11.7,11.2,39.3,20.5   c-0.4,1.8-2.1,2.9-2,4.5c7.3,5,16.6,6.4,24.4,10.2c0.4-2.6-1.4-4.5-1.6-6.8c2.7-4.1,4.2,0.2,5.8,2.3c-0.4,0.1-0.7,0.2-1.1,0.3   c-0.5,1.2,1.1,3.2,2.1,1.5c34.1,38.5,55.2,19.4,90.2,42.5c0.6-0.6,0.9-1.1,1.4-1.7c0.3,1.4,0.6,2.8,0.9,4.1c-0.4,0.4-0.7,0.6-1.1,1   c-3.5-3.5-7.3-5.6-12.3-5.2c-29.3-9.6-52.1-5.9-76.8-27.4c0.4-0.7,0.6-1.4,1-2.1c-1.6-2.3-1.6-2.3-4-3c0.6,1.4,0.1,1.8-1.1,1.7   c-12.7-5.9-26.9-17-41.3-13.9c-0.1,0.4-0.3,0.8-0.4,1.2C209.5,500.1,208.9,500.1,208.4,500.1z M305.4,533.1   c1.4,1.3,1.4,1.3,2.7,0.6C307.5,532.8,306.6,532.4,305.4,533.1z M254.4,509.9c-0.6-2.4-1.3-2.5-2.6-1.6   C252.5,508.7,253,509,254.4,509.9z M314.9,536.5c-1-0.6-1.2-0.9-2.2-0.6C313.1,537.2,313.7,537.1,314.9,536.5z" />
	<path fill="#030302" d="M210.1,500.1c0.1-0.4,0.3-0.7,0.4-1.2c18.1-3.8,44.8,16.4,58.8,26.8c14.2,9.7,31.6,9,47.8,12.9   c5.2,1.7,9.8,4.9,15.6,4.9c2.9,0.4,6.1-0.3,8.3,1.9c-9.3,3.6-18.2-2.9-27-5c-11.1-1.4-22.5-3.1-33.5-5.6   c-12.4-3-19.1-13.9-29.8-19.7C237.6,509.3,224.4,502.5,210.1,500.1z" />
	<path fill="#0D0909" d="M335.8,546.2c1.7-0.2,3.7,0.4,5.2-0.8c9.1,5.2,8.7,19.1,18.4,23.4c11,4.6,22.7,8.5,25.6-7.4   c-5.5-2.5-6.3,2.2-8.6,6.4c-1.1-2.9,0.1-4.7,1.1-7.5c-1.1-0.4-2.2,0.6-2.9-0.2c1.4-1.7,1.3-1.7,4-1.7c1.9,1.7,5.6,0.1,8.1,1.3   c1.6-4.5,2.8-3.3,6.1-5.4c0.6-2.2,2.1-3.7,4.3-4.9c-1-2.5-2.1-6.7-5.4-5.8c-2.6,3.2,0.7,5.3,1.1,8c-0.6,0.8-1.2,1.7-1.7,2.6   c-0.7-0.9-0.6-1.7-0.1-2.8c-2.2-3.3-3-6.5,0-9.7c7-1.3,5.9,5,9.1,8.6c3.2,6.9-1.5,14.4-6.3,19.6c-3.6,3.5-9.2,2.6-13.7,3.5   c-8.3,4-15.7-1.6-23.5-4.3C346.4,565,348.7,546.3,335.8,546.2z M394.4,562.7c0.6,1.5-0.7,2.8,0,4.1c2.7-1.6,2.9-5.5,4.7-7.6   c-0.2-2.8-0.4-5.2-0.6-7.6c-6.8,0.9-2.4,7-3.4,11.1C394.8,562.7,394.7,562.7,394.4,562.7c-0.2-1.1,0.6-2.4-0.7-3.3   c-0.4-0.8-0.7-1.7-1-2.4c-4,0.2-4,1.9-4.1,4.9c-1.5,0.9-0.4,2.8-1.1,4c-0.5-0.5-0.6-0.7-1.2-1.3c-0.6,3-2.3,5.2-4.6,7.7   c5.2-0.7,9.3-1.5,10.3-6.8l0,0c0.6-0.8,1.2-1.7,1.7-2.6C393.9,562.7,394.1,562.7,394.4,562.7z" />
	<path fill="#241817" d="M109.9,410.1c-0.4-0.3-0.7-0.6-1-0.8c8.6-5.8,20.9-7,30.6-3.5c0.3-0.3,0.6-0.6,1-1c5.5,9.2,15-11,21.2-2.9   c-0.3,0.3-0.6,0.6-0.9,0.9c-9.7-4-10.8,11.3-25,4.1h0.1C127.8,404,117.6,406.6,109.9,410.1z" />
	<path fill="#170F0E" d="M392.7,554.5c-0.8,1.2-2.4,0.8-3.5,1.6c0-0.7,0-1.6,0-2.4c-5.8,0.6-7.4-6.6-10.8-10   c-5-8-15.4-7.3-22.6-11.6c0.4-0.3,0.6-0.6,1-0.9c12.1,1.7,23.2,7.4,28.1,19.2c2.2,0.8,3.8,2,6,1.4c-0.6,1-0.7,1.8,0.1,2.8   C391.6,554.5,392.2,554.5,392.7,554.5z" />
	<path fill="#291D1B" d="M193.3,416c-1.1,0.6-0.6,1.7-0.8,2.6c-1-7.7-9.1-2.9-12.7-7.6c0.7-3.1-1.6-6.2-4.7-4   c0.4,3.7-1.4,6.4-1.7,9.8c-0.5,0.3-0.8,0.6-1.7,1.2c0.4-2,0.5-2.9,0.1-4.5c0.6-0.3,1.1-0.6,1.7-0.8c-0.3-2.3,0.5-4.7-0.1-7   c-1.3-0.9-2.5-1.6-3.9-1.3c-0.3-0.3-0.6-0.6-0.9-0.7c1.5-0.6,3.2-0.6,4.4,0.1c13.6,1.7,5.1,7,11.7,8.2   C187.9,411.5,193,411.5,193.3,416z" />
	<path fill="#20100F" d="M332.2,404.3c-5.7-1.1-11.5,3.4-16.2-0.7c0-0.3,0-0.6,0-0.7C321.3,404.1,327.1,402.6,332.2,404.3z" />
	<path fill="#4B3838" d="M177.5,488.4c-0.3-0.6-0.5-1.2-0.7-1.7c2.9-0.4,5.1-1,7.5,1.6c-0.6,0.6-1.2,1.1-1.7,1.7   c0,0.3,0.1,0.7,0.1,1.1c-0.8-0.6-1.5-1.6-2-2.5C179.6,488,178.6,487.8,177.5,488.4z" />
	<path fill="#473531" d="M168.4,403.7c0.3,0.3,0.6,0.6,0.9,0.7c0,1.1-0.1,2.2-0.1,3.3c-0.7-0.5-1.6-1-2.2-1.5   c-1.5,0.9-2.9,0.8-4.4,0.4c0-0.3,0.1-0.5,0.1-0.7c0.3-0.3,0.6-0.6,0.8-0.9C165.4,405.9,166.7,404.2,168.4,403.7z" />
	<path fill="#A5B5B5" d="M184,481c0-0.4,0.1-0.7,0.1-1.2c-0.6-0.2-1.3-0.4-2.3-0.6c1-1.7,1.8-1.5,3.6-2.1c0.2,0.9,0.3,1.7,0.4,2.4   C185.2,480,184.7,480.4,184,481z" />
	<path fill="#191211" d="M163.4,405c-0.3,0.3-0.6,0.6-0.8,0.9c-0.6-1.1-1.9-1.9-1.8-3.2c0.3-0.3,0.6-0.6,0.9-0.9   C163.1,402.5,162.9,404,163.4,405z" />
	<path fill="#A89E9E" d="M89.9,431c0.3,1.3,0.1,2.5-1.3,3.3c-0.2-0.8-0.3-1.6-0.5-2.4C88.7,431.7,89.3,431.3,89.9,431z" />
	<path fill="#9AA7A7" d="M115.8,520.3c-0.3-0.6-0.6-1.3-1-2c1.4-0.5,1.7,0.4,2,1C116.4,519.6,116.1,520,115.8,520.3z" />
	<path fill="#F5DDCE" d="M316,403.5c2.2,1.6,3.9,2.8,6.6,1.6c39.4,11.2,79.5,1.3,119.5,5.8c4.3,7.7-1,16.1-5.2,22.6   c-5.3,0.8-14.3-1.8-17.2,3.7c1.2,1,3.2,0.6,4,2.3c3,2.4,7.1-1.8,10.9,0.6c-0.1,7.8,0,15.7-0.9,23.5c-42.9-1-64-20.8-110.7-1.8   c-0.2-1.5-0.4-2.6-0.6-4c-3.9,1.5-6.5,4-9.3,6.7c-2.2-0.6-4.2,1.3-6.6,0.6c0.3-1.2,1.6-1.8,0.6-3.2c-0.6-0.8,1.3-2.4-0.8-3.1   c-4.1,1.6-7.3,5.7-10.7,8.2c-11.9,0.8-22.4,0.5-34-1c1.8-31.4-15-34.7-41.3-35.9c21.6-16.6,37.3-46.9,68.6-32.1   c0.6,1.9,2.4,2.9,4,4c0.4,0.8,0.9,1.6,2.1,1.3c-0.1-1-0.3-1.8-1.3-2.2c-2.4-7-11.8-7.4-18.4-10.1c6.7-1.5,22,2.8,27,7.5   c-1.6,3.2-6.4,6.2-0.9,9.3c1-0.1,2-0.1,3.4-0.2c1.1-1.6,2.2-3.2,3.3-4.9C310.4,403.4,313.1,404.3,316,403.5z M297.5,409.7   c0-1,0.6-2.2-0.8-2.8c-1.3-0.2-1.4,0.7-1.6,1.7c-1.7,2.3-3.4,4.6-5.4,7.3c-3.2,0.8-5.5,4.6-8.3,6.6c-5.6,6.1-23.6,5.8-22.1,13.9   C273.9,448.2,301.8,426.2,297.5,409.7z M331.1,422.7c0.8,0.8,1.6,1.6,2.9,2.9c-1.7-6.3-9.2-10.5-14.3-12.8   c-0.2,0.3-0.4,0.6-0.6,0.9C323.2,416.7,327.1,419.7,331.1,422.7z M336.3,427.2c1.6,2.4,4,3.2,6.8,3.3   C341.1,428.9,339,427.6,336.3,427.2z M349.2,432.7c1,1.7,1,1.7,2.5,1.2C350.8,433.3,350,433.1,349.2,432.7z" />
	<path fill="#B28C7D" d="M355.8,532c18.6,7.1,17.5,4.2,29.9,20.9c-1.5,2.5-4.8,4-7.2,5.7c-2.8-0.1-2.8,0-4,1.7   c0.7,0.8,1.8-0.2,2.9,0.2c-0.6,1.4-1,2.7-1.5,4c-3.5-0.1-7-0.2-10.7-0.3c0.3-1.7,0.5-3.1,0.7-4.6c1.7,0,3.1-0.2,4.1-1.7   c2-1.1,9.1-1.6,8.6-4.2c-2.2,0.3-3.7,2.2-6,1.7c-0.1-0.8-0.2-1.6-0.3-2.4c-1.3-0.7-2.4-1.5-3.6-2.1c-1.3-3.8-4.3-4.5-7.8-4.6   c-1.8-1.4-3.5-1-5.2,0.9c1,6.4,7.4,3.4,8.2,11.5c-0.7,2.8-0.7,5.8-4.2,6.5c-2.5-5.7-4.2-12.6-10.4-15.4c-1.6-1.9-1.7-6.1-4.4-6.2   c-0.5,0.5-0.8,1-1.4,1.7c-5.9-6.6-15.6-5.8-22.7-10.8c-8.1-3.4-17.2-3.1-25.7-5c-13.9-1.9-24.5-10.9-34.7-20.1   c-5.8-0.6-9.7-17-14-10.7c0.2,2.3,1.9,4.2,1.6,6.8c-7.8-3.8-17.1-5.2-24.4-10.2c-0.1-1.6,1.7-2.7,2-4.5c-26.2-9.3-15.7,8-38.2-19.3   c-13.6-29.9,57.9-52.2,67.3-24.5c-6.3,0.9-10.9,7.2-16.6,9.1c-0.7-0.2-1.3-1.2-2.2-0.3c0.2,0.6,0.3,1.3,0.5,1.9   c-6.4,7.3,8.3,9.4,12.4,12.6c13.2,6.3,24.1,16.3,38.3,20.1C311.9,501.5,328.9,525.2,355.8,532z M364.4,540.2c0.4,0.5,0.7,1,1.3,1.7   C366.1,540.2,365.1,540.4,364.4,540.2c-0.3-8.9-28.7-6.9-21.3,1.9c0.7-2.8,1.7-4.9,3.9-6.1c3.9,0,7.7,0.1,11.6,0.1   C360.4,537.5,362.4,538.9,364.4,540.2z M337.9,529.6c2.2,1.5,6.1,2.9,7.9,1.6C344.5,529.1,340.6,528.7,337.9,529.6z M277.3,487.6   c-3.1-0.9-3.6-1.7-6.4-1.4C272.8,487.6,274.3,488.1,277.3,487.6z M324.1,523.5c0.6,2.3,1.7,2.9,2.5,1.7   C325.8,524.7,324.9,524.1,324.1,523.5z M331.9,528.2c0.8,1.1,1.7,1.7,3.2,1.1C334.2,527.7,334.2,527.7,331.9,528.2z M265.3,484.9   c0.8,1.5,0.8,1.5,2.2,0.1C266.9,484.1,266.2,484.2,265.3,484.9z M328.7,526.6c0,1,1.3,1.7,2,0.8   C331.3,526.2,329.3,525.6,328.7,526.6z" />
	<path fill="#E6CCBB" d="M260.8,464.2c0.2,0.6,0.3,1,0.5,1.7c11.7,1.4,22.2,1.8,34,1c3.4-2.5,6.6-6.7,10.7-8.2   c2.2,0.7,0.3,2.4,0.8,3.1c1,1.3-0.3,2-0.6,3.2c2.4,0.6,4.4-1.3,6.6-0.6c2.8-2.8,5.5-5.2,9.3-6.7c0.3,1.5,0.5,2.7,0.6,4   c46.7-18.9,67.7,0.8,110.7,1.8c1.6,8.3-0.8,17.1,3,24.8c-30.2-5.4-62.5-6.9-93.5-1.4c-43.7,9.4-49.1,6.3-86.6-14.8   C258,469.5,259.4,466.8,260.8,464.2z" />
	<path fill="#B28C7D" d="M160.8,402.7c0,0.3,0,0.6,0,0.8c-0.3,0.3-0.5,0.6-0.7,0.9c0,1.6-0.9,3.3,1.2,4.7c0.4-0.5,0.7-0.9,1.1-1.5   c0-0.4,0.1-0.7,0.1-1.1c1.5,0.5,2.9,0.6,4.4-0.4c0.7,0.5,1.5,0.9,2.2,1.5l0,0c-0.1,0.7,0.1,1.4,0.8,1.7l0,0   c0.3,0.3,0.6,0.6,0.9,0.8l0,0c0.4,1.1-0.5,2.7,0.8,3.3c0.5,1.7,0.3,2.5-0.1,4.5c2.1-1.3,2.8-2.3,4.3-3.9c2,0.2,3.3-1.5,5-2.3   c2.8,3.2,7.2,0.1,10.3,3.2c5.4,11.5-8.9,18.6-13.6,27.7c-5.7,6.4-11.1,10.9-20.3,11c-0.2,2,2.5,1.7,2.7,3.8   c-5.9,7.3-16,17.4-24.9,8.6c0.9-0.6,1.7-1.1,2.6-1.8c1.4-0.2,1.6,1.4,2.4,1.8c0.1,0.2,0.3,0.4,0.4,0.6c0.1-0.1,0.3-0.3,0.4-0.4   c-0.2-0.1-0.4-0.3-0.6-0.4c-0.3-1.1-0.6-2.2-0.9-3.2c0.6-0.6,1.2-1.1,1.7-1.7c2.7,0.3,5.8-0.7,8.2,0.6c-1.3,1.2-2.6,2.4-4,3.7   c-2.5-0.2-1.1-2.7-2.9-3.4c-2.3,3.4,1.6,6,4.8,4.8c0.6-3,4.8-4,6-6.4c-0.1-6.9-2.3-7-7.3-3.5c-1.7-0.6-3.1-1.2-4.5-1.7   c-2.1,0.7-4,3.9-6.3,2.5c0-0.3,0.1-0.6,0-0.8l0.2,0.1c0.3-0.7,2.1-1.3,0.7-1.7l0,0c0-0.6,0-1.1,0-1.7c0.7,0.3,1.4,0.5,2.2,0.7   c0.3-3.2-0.8-3.2-3-3.2c-1.2-1.3-2.7-1.5-4.2-1.6c-2.8-2.3-3.9-6.2-7.8-6.3c-1-0.9-1.7-2.4-2.4-3.8c-0.6,0.6-1,1.1-1.5,1.6   c-11-6.2-19.8-11.7-15.8-26.1c8.5-7.4,21.8-11.5,32.5-8c-1.2,1.2-1.2,1.2,0.6,2.6c0.3,0.9,0.6,1.9,0.9,2.9c-1.4,0.9-4.5,0.9-4,2.9   c1.5,2,1.7,5.7,4.2,6.3c-0.9-2-1.7-3.8-2.7-5.7c0.4-0.5,0.6-0.9,0.9-1.4c4.4,0.8,2.1,7.8,3.6,11.8c0.7-2.1,3.2-3.9,2.1-5.2   c0.6-1.1,2.1-1.7,1.8-3.3c0.1-0.1,0.2-0.4,0.2-0.3c1.3,0.5,2,0,2.3-1.3c0.5,1,1,2,1.7,3.3c1.9-1.5,0.6-4.7-1.7-4   c-1.5-1.9-3.8-1.8-5.6-2.2c-1.7-2.2-2.9-4-4.3-6.3C150.1,414,151,398.8,160.8,402.7z M131.5,409.6c-0.7-0.5-1-0.7-1.3-0.9   c-6,4-5,11.8-0.5,16.6c0.4,0.6,0.9,1.1,1.7,0.4C127.2,420.4,128.7,415.2,131.5,409.6z M160.8,412.7c-0.7-0.3-1.4-0.6-2-0.6   s-1.2-1.4-2-0.2c1.6,2.7,8.3,2,6.8-1.8C162.6,411.1,161.8,411.8,160.8,412.7z" />
	<path fill="#977264" d="M177.5,442.8c3.2-3.7,5.4-8.8,9.3-11.7c-0.2,0.7-0.5,1.5-0.6,2.2c2-0.9,3.6-2.1,4.7-3.9   c3.5,0.6,7.5,0.6,10.9,1.6c-1.2,0.1-2.5,0.2-3.6,0.2c-8.4,13-20.2,21.4-34.4,26.5c-0.6,2.4-1.3,4.8-1.9,7c6.5,4.1,14-1.9,20.7,1.4   c1.7,2.6,2.4,5.8-1.9,5.6c-4.5,0.6-8.4,3.5-13.1,3.5l0,0c0.1-0.6,0.3-1.4,0.4-2c-1.4-3.5-10.1-3.6-12.7-1.4   c-1.3-1.2-2.3-2.2-3.5-3.2c0.3-0.6,0.6-1,0.7-1.5c4.9-2.7,9.5-6.6,9.7-12.4C169.3,454.9,175.3,449,177.5,442.8z" />
	<path fill="#B28C7D" d="M182.5,466.1c-6.7-3.2-14.2,2.8-20.7-1.4c0.6-2.3,1.3-4.6,1.9-7c14.2-5.2,26-13.5,34.4-26.5   c4.6-0.6,9.3,0.6,13.9,1c-1.7,3.8-7.4,4.8-10.6,7.4c-4,2-7.5,5.5-11.7,7.1C185.6,452.7,183.8,459,182.5,466.1z" />
	<path fill="#9592A1" d="M104.1,453.6c-1.5,0.1-3,0.3-4.6,0.4c-1.7-2.4-4.5-2.4-7.4-3c-0.7-1.4-1.5-2.8-2.3-4.2   c-0.9,0.3-1.5,0.4-2.4,0.6c-1.6-8.4,5.7-15.8,8.4-23.5c5.8,5.3,10.3,12.1,16.8,17c-3.8,3.3-5.9,8.3-5.9,13.6v-0.1c-0.4,0-0.7,0-1,0   l0,0C105.6,453.5,104.8,453.6,104.1,453.6z" />
	<path fill="#908993" d="M106.8,454.6c0-5.3,2.1-10.3,5.9-13.6c6.9,5.1,13.7,10.1,20.6,15.3c0.6,3.1-3.1,5.2-2.3,8.3   c-0.9,1.4-2.3,0.6-3.5,0.7l0.1,0.1c-1.1-1.2-2.6-0.8-4-0.9c0-0.5,0-0.9,0-1.4c0.8-0.6,1.6-1.1,1.4-2.3c-5.4-3.2-11.8-1.1-17.8-3.1   c0.3-0.6,0.6-1.3,0.9-2C107.6,455.1,107.1,454.9,106.8,454.6z M110.3,456.5c0.4,0.1,0.7,0.5,1,0C110.9,456.1,110.7,456,110.3,456.5   z" />
	<path fill="#977264" d="M235.1,459.5c0.6-0.6,1.1-1.2,1.7-1.8c1.2,1.1,1.6,1.5,3.5,1.7c-0.7-1.5-1.3-2.4-1.7-3.3   c1.5,0.3,2-1.2,3.1-1.7c-0.1,3.2,3.4,0.1,0-0.1c4.5-2.3,8.4-6.7,13.4-7.5c1,1.6,1.9,3.2,3.1,5.2c0.2,6,0.3,14.3-5.2,18.2   C246.4,468.1,241,462.6,235.1,459.5z" />
	<path fill="#1B1412" d="M130.9,464.4c-0.7-3.1,2.9-5.2,2.3-8.3c0.6,0.3,1.2,0.5,1.7,0.7c0,0.3,0,0.6,0,0.8c-1,1.1-1.3,2.5-1.5,4.8   c2.9-3.5,4-5.4,7.7-7.3c1.4,0.6,2.9,1.1,4.5,1.7c5-3.6,7.1-3.4,7.3,3.5c-1.2,2.4-5.2,3.4-6,6.4c-3.2,1.2-7.1-1.3-4.8-4.8   c1.8,0.7,0.4,3.2,2.9,3.4c2-1.8,3.9-3.9,6.2-5.1c-0.3-1.5-0.5-2.7-0.6-4c-1,0.6-1.8,1.2-2.8,1.8c0.4,0.4,0.7,0.6,1.3,1.1   c-0.6,0.4-1.2,0.7-1.7,1c-2.4-1.1-3.9-3.6-6.7-3.3c-2.5,2.3-6.3,4.9-6.7,8.3C132.9,465.4,131.9,465,130.9,464.4z" />
	<path fill="#100A09" d="M175.8,446c-3.3,4.9-7.4,8.9-13.6,8.6c-0.2,5.8-4.8,9.7-9.7,12.4c-0.3-0.8-0.8-0.9-1.6-0.9   c3-2.7,6.8-5.2,8.9-8.6c-0.2-2-2.9-1.7-2.7-3.8c7.1-0.6,13.6-2.4,17.8-8.6C175.3,445.6,175.6,445.7,175.8,446z" />
	<path fill="#E5CCBB" d="M307.6,402.7c-1.1,1.7-2.2,3.2-3.3,4.9c-1.4,0.1-2.4,0.2-3.4,0.2c-5.5-3.1-0.7-6.1,0.9-9.3   C304.1,399.4,306,401,307.6,402.7z" />
	<path fill="#110A09" d="M235.1,459.5c5.1,2.9,9.8,6.9,15.2,9.8c-0.4,0.4-0.7,0.6-1.1,1C244.7,466.6,235,466.7,235.1,459.5z" />
	<path fill="#323737" d="M167.6,475.2c-1.6,2.9-4.2,2.7-7,2.5c-0.1-0.5-0.2-0.7-0.3-1.2C162.8,476.1,165.2,475.6,167.6,475.2   L167.6,475.2z" />
	<path fill="#302521" d="M190.9,429.4c-1.1,1.8-2.7,2.9-4.7,3.9c0.3-2.5,2.3-3.8,3.9-5.5C190.1,428.5,190,429.2,190.9,429.4z" />
	<path fill="#3A2723" d="M130.8,449.5c1.6,0.1,3.1,0.3,4.2,1.6c0,0.3-0.1,0.6-0.1,0.9c-0.5,0.5-0.9,0.8-1.6,1.5   C132.9,451.7,130.9,451.4,130.8,449.5z" />
	<path fill="#85675B" d="M134.9,451.9c0-0.3,0.1-0.6,0.1-0.9c2.2,0,3.2,0,3,3.2c-0.8-0.3-1.5-0.5-2.2-0.7   C135.5,453,135.2,452.5,134.9,451.9z" />
	<path fill="#372622" d="M288.4,489.4c1.7,0.8,3.4,1.6,5.2,2.4c-0.4,0.3-0.6,0.6-1,0.9c-1.9-0.3-3.6-1.2-5.2-2.3   C287.8,490.1,288.1,489.7,288.4,489.4z" />
	<path fill="#8B6D60" d="M134,465.2c0.2-0.9,0-1.9,1-2.6c0.8,0.6,1.7,1.1,2.5,1.7c-0.8,0.7-1.7,1.3-2.6,1.8   C134.6,465.9,134.3,465.5,134,465.2z" />
	<path fill="#C9C0B3" d="M220,430.1c0.3,1,1.2,0.9,1.9,1.1c-1.7,0.8-3.4,1.7-5.2,2.5c-0.3-0.3-0.6-0.6-0.8-0.9   C217.3,431.9,218.6,430.9,220,430.1z" />
	<path fill="#2B2C2C" d="M150.7,473.2c1-0.6,1.6-0.7,2.1-1c1.1,0.6,1.9,1.2,2,2.9C153.2,475.1,152.2,474.3,150.7,473.2z" />
	<path fill="#242525" d="M76.9,436.5c1.3-0.9,2.2-0.3,2.9,0.9C79.7,439.5,76.4,438.3,76.9,436.5z" />
	<path fill="#3E3F41" d="M123.4,462.9c0,0.5,0,0.9,0,1.4c-1,0.3-2,0.6-2.9,0.7C119.3,463.1,122.1,462.4,123.4,462.9z" />
	<path fill="#2F3131" d="M54.3,465.8c0.9-1.7,2.2-1.6,3.7-1.1C57.1,466.4,55.8,466.2,54.3,465.8z" />
	<path fill="#442C27" d="M119.2,441.1c0.4-0.5,0.8-0.9,1.5-1.6c0.4,0.8,0.7,1.6,1.1,2.4C120.8,441.7,119.6,442.4,119.2,441.1z" />
	<path fill="#ABCECE" d="M177.5,488.4c1.1-0.7,2.1-0.6,3.2,0c-1.3,0.1-2.1,1.7-3.8,0.8C177.1,489,177.3,488.7,177.5,488.4z" />
	<path fill="#988D83" d="M293.4,401.1c1,0.4,1.2,1.2,1.3,2.2c-1.2,0.3-1.7-0.4-2.1-1.3C292.8,401.7,293.1,401.4,293.4,401.1z" />
	<path fill="#5E4D48" d="M215.9,432.8c0.3,0.3,0.6,0.6,0.8,0.9c-0.6,1-1.6,0.9-2.5,0.7l-0.1-0.1C214.4,433.4,215,433,215.9,432.8z" />
	<path fill="#252626" d="M57.2,498.8c0.4,0.6,0.7,1,1.3,1.8C57.1,500.7,56.8,500,57.2,498.8z" />
	<path fill="#908993" d="M127.4,465.2c0.2,0.5,0.4,0.9,0.6,1.6c-0.7,0-1.2,0-2.2,0C126.6,466,127.1,465.6,127.4,465.2L127.4,465.2z" />
	<path fill="#2A2E2E" d="M67.5,466.3c-0.6,0.2-0.8,0.4-1.1,0.5C65.6,465.5,66.7,465.1,67.5,466.3z" />
	<path fill="#727373" d="M184.3,473.6c-0.6,1.7-1.2,1.9-2.4,1.4C182.7,474,182.8,474.3,184.3,473.6z" />
	<path fill="#202424" d="M84.4,456c0.5,0.6,0.7,0.9,1.3,1.6c-0.9,0-1.4,0.1-2.4,0.1C83.9,457.1,84,456.7,84.4,456z" />
	<path fill="#44464B" d="M116.5,462c0.3,0.5,1,1.1,0.3,1.5C116,462.9,115.6,462.9,116.5,462z" />
	<path fill="#809191" d="M56.4,503c1.8-0.3,1.9,0.4,1.7,1.5C57.5,504,57,503.6,56.4,503z" />
	<path fill="#85675B" d="M135.8,453.6c0,0.6,0,1.1,0,1.7C134.7,454.7,135,454.1,135.8,453.6z" />
	<path fill="#908993" d="M104.1,453.6c0.7,0,1.5-0.1,1.7,0.9C105.2,454.2,104.6,453.9,104.1,453.6z" />
	<path fill="#82AFAF" d="M131,513.8c0.1,0,0.2,0,0.3,0c-0.1,0.2-0.1,0.4-0.2,0.6C130.9,514.2,130.9,514.1,131,513.8z" />
	<path fill="#5E4D48" d="M214.3,434.4c-0.1,0.2-0.3,0.4-0.4,0.6C213.3,434.4,214,434.5,214.3,434.4L214.3,434.4z" />
	<path fill="#85675B" d="M135.8,455.2c0.7,0.3,0.7,0.6,0,0.9C135.9,455.8,135.9,455.5,135.8,455.2z" />
	<path fill="#908993" d="M105.7,454.5c0.4,0,0.7,0,1,0C106.4,455.2,106,455.2,105.7,454.5z" />
	<path fill="#85675B" d="M135.8,456.1c-0.3,0.3-0.5,0.6-0.7,0.8C135.4,456.7,135.6,456.4,135.8,456.1z" />
	<path fill="#EAA388" d="M607.9,326c24.6,37.2,45.4,79.3,76.2,112.4c-3.3,3.8-6.2,7.6-9.7,11c-6.9-5.6-11.1-17.7-19.8-21.3   c1.5,4.9,5.1,7.9,6.2,12.7c-16.6-16-31.4-34.8-49.6-47.9c-6.6-15.7-24.5-23.9-26-44.5c-1-0.8-0.1-2.7-1.7-3.1   c0.9-2.8,2.4-5.4,1.7-8.7c1.6-1.4,3.2-2.8,4.8-4.2c-24.2-2.9-31.8,29.1-44.1,44.9c-17.8,23.6-31.9,50.4-51.1,72.6   c-16.7,11.6-36.3,14.3-56.2,14.7c-3.8-27.9,3.9-28.1,7.7-53c1.4-0.5,3.1-0.3,5.2,0c-1.1,2.2-2.8,2.3-2.6,5.2   c42.2-35.2,77.9-109,132.4-122.4C594.8,296.4,603.8,314.1,607.9,326c-1.8-0.9-3.4-3.2-5.7-2.9c0.2,1.6,4.1,5.1,5.7,4.2   C607.9,326.8,607.9,326.4,607.9,326z M597,347.7c0.1-0.7,0.1-1.5-0.8-1.7c-1.4-1.5-1.8-3-4.2-3.3c1.3,2.3,1,3.9,1,6.2   c2.7,1.8,7.6,10.5,10.7,8.1C603,353.1,600.5,349.7,597,347.7L597,347.7z M599.7,322.7c1.4-1.1,0.6-2.5,0.6-4.3   c-3.9-3.5-9.3-9.1-14.8-5.8c1.5,1.3,2.7,2.4,3.9,3.5C589.3,320.7,595.8,325.3,599.7,322.7z M445.5,445c0.6,0.1,0.9-0.2,1-0.6   c-1.4-3.5,1.1-9-1.9-11.3C444,437.2,444.5,441.1,445.5,445z M448.2,428c-2.7-0.8,0.6,13.9,2.6,11.8   C449.8,435.7,449,431.9,448.2,428z M608,364.9c0.3,0,0.5,0,0.7,0.1c-0.2-1,0.7-4.6-1.3-3.5C607.7,362.6,607.9,363.7,608,364.9z    M611.9,368.9c-0.3,0-0.5,0-0.7,0.1c0.1,0.6,0.2,1.2,0.4,1.7c0.2,0,0.3,0,0.5-0.1C611.9,370.1,611.9,369.5,611.9,368.9z" />
	<path fill="#D69479" d="M437.9,451.1c1.7,4.1,0.2,8.7,0.9,13.2c19.9-0.5,39.5-3.1,56.2-14.7c19.2-22.1,33.4-48.9,51.1-72.6   c12.2-15.7,20-47.7,44.1-44.9c-1.7,1.5-3.2,2.9-4.8,4.2c0.2,3-0.1,5.7-1.7,8.1c-0.4-0.6-0.7-1.1-1.2-1.9c-0.2,0.7-0.4,1.2-0.5,1.7   c-3-6.5-2.5,2.4-3.2,5.1c-13.2,32.1-33.9,61-52.1,90.6c-8.7,16.1-9.5,37-25.4,48.9c-18.7,7.1-40.8,8.6-59.8,1.7   C437.9,477.5,438,464.4,437.9,451.1z" />
	<path fill="#EAA388" d="M523.6,455c3.3-13.2,13.3-24,20.1-35.8c20.9,1.7,41.8,9.8,62.7,7.1c23.8-2,38.7,5.9,51.6,25.7   c-0.6,1.2-1.7,0.9-2.6,0.8c-10.2-0.1-18.4,7.5-28.3,9.4c-9.4,2.6-19.2,1.2-28.9,1.5c-17.7-1-35.2-7.7-53-5.1   c-5.8-0.6-11.8-2.6-17.8-0.9c-1.2,0.3-2.5,0.6-3.5-0.4C523.7,456.4,523.7,455.7,523.6,455z M601.2,436.2c3,1.2,5.7,2,8.9,2.9   c0.5,0.6,0.4,2.4,2.2,1.8c1,0.1,3.7,0.1,2.3-1.6c2.8-3.3,9-3.4,10.9-7.5c-1-1.5-1.7-0.3-2.3,0.1c-5.6-3.8-12.4-0.3-18.5-0.9   c-2.6,2.3-5.2,3.9-7.5,0.4c-1,0.6-2.3,0.9-2.6,2.4C596.6,435.3,598.9,435.4,601.2,436.2z" />
	<path fill="#F7EFD0" d="M809.7,461.8c16.6-6.9,4.9-23-5.5-30.2c1.7-1.6,2.9-2.8,4.3-4.1c3.7,2.3,6.7,6.7,11.4,5.7   c-0.5-2.9-3.2-2.7-4.3-5.2c-0.6-1.2-2.4-1.8-3.5-2.7c1.2-4.1,8.5,4.2,12,1.7c-1.9-3.5-5.6-3.7-8.7-6.1c0.6-0.8,1.1-1.4,1.7-2.1   c2.4,1.1,6.2,5.6,8.3,2.6c-1.1-2.7-4.6-2.9-6-5.8c0.5-0.6,0.9-1.5,1.6-2.4c2.5,0.5,4.7,2.8,7.2,1.4c0-3.2-3.5-2.6-4.9-4.5   c0.3-1.3,1-2.4,2.1-3.2c2.2,0.7,3.9,3.4,6.7,1.9c-0.5-3-3-3.4-5.1-5.2c2.5-6.1,6.6-11.5,7.1-18.1c0-4.2-1-8.8,1.7-12.4   c3-1,5.7-3.2,8.9-2.9c4.5,5.4,8.9,11.2,11,17.9c-1.5,2.3-1.2,4.8-0.7,7.3c1.7,8.5-2.1,16.1-1,24.6c-0.6,6.7-7.8,10.7-9,17.4   c-0.3,6.5,7.2,12.1,4,19c-0.8,6-1.7,13.4-6.9,17.2c-8.7,0.1-16.1-6-24.5-7.6C815.2,464.8,810.3,464.9,809.7,461.8z" />
	<path fill="#F7EFD0" d="M679.7,462.7c9.7,6.3,24.4-11.9,16.7-19.7c-4.6-2.6-9.2-3.4-11.5-9c8-2,15.5,2.8,23.4-0.2   c2.2,2.2,2.5,5.6,4.8,7.9c3.1-2,0.2-6-0.6-8.7c1.5-0.3,2.7-0.6,3.9-0.7c1.8,1.8,1,4.8,3.2,6.2c3.6,0.1,1.4-4.4,1.6-6.7   c1.7-1,4-0.6,6.2-1.4c0.9,1.5,1.8,2.7,2.9,4c3-0.6,1-3.1,0.5-5c1.1-0.8,2.1-1.5,3.3-2.4c0.6,1.7,0.9,3,2.8,3.7c1.6-2.1,0-4,0.4-6   c0.5-0.3,1-0.6,1.7-0.9c1,0.6,1.9,1.1,3.1,1.8c0.5-1.4,0.9-2.5,1.4-3.8c7.9-4.4,15-16.6,23.4-5.1c-14.1,24.7-22.4,35.9-46,50   c-5.2,11.8-16.1,19.1-27.8,23.5c-7.6-4-7.7-13.4-12.2-20c-1.4-2.3-3.4-4.3-3.9-7.3C677.8,462.9,678.7,462.8,679.7,462.7z" />
	<path fill="#D69479" d="M523.6,455c0.1,0.6,0.2,1.4,0.3,2.1c1.1,0.9,2.3,0.6,3.5,0.4c12.7-0.5,25.4-0.1,37.9,1.7   c20.5,1.3,41.3,7.8,61.8,2.8c9.9-1.8,18.1-9.4,28.3-9.4c0.9,0.1,2,0.4,2.6-0.8c1.7,1.3,2.7,3,3.6,4.9c-1,0.4-1.6,1-1.9,1.9   c-1.3,4.1-5.2,5-7.5,8c5.5-0.1,9.5,1.3,14.7,1c0.2-0.7,0.4-1.3,0.5-1.7c2,4.5,5.6,7.4,7.4,12.2c-52.4-17.5-106.5-5.1-160-0.6   C517.6,470.1,522.1,463.3,523.6,455z" />
	<path fill="#D69479" d="M583.6,345.1c1.6,0.6,0.6,2.4,1.7,3.1c1.6,20.5,19.3,28.8,26,44.5c18.2,13.2,32.9,31.9,49.6,47.9   c-1.1-4.8-4.7-7.8-6.2-12.7c8.6,3.7,12.8,15.7,19.8,21.3c-2.2,2.9-4.2,6.4-7.3,8.6c-11.3-11.7-19.9-26.8-33.3-37.1   C612.9,401.3,572.3,379.2,583.6,345.1z" />
	<path fill="#EBDDB8" d="M679.7,462.7c-0.9,0.1-1.9,0.2-2.9,0.2c0.5,2.9,2.4,5.1,3.9,7.3c4.5,6.5,4.6,15.9,12.2,20   c11.7-4.4,22.6-11.7,27.8-23.5c23.5-14.1,32-25.5,46-50c1,0.7,2,1.4,3,2.2c-4.2,19.5-18.2,33.5-33.9,44.5   c-16,12.1-26,35.5-47.5,38.4c-1.3-1.2-1.8-2.6-1.7-4.1c-0.6-7.9-7.7-13.6-10-21.2c-0.6-4.4-9.6-9.7-4.3-13.2   C674.6,461.6,677.1,461.7,679.7,462.7z" />
	<path fill="#EAA388" d="M738,466c8.7-8.4,20.4-13.3,25.6-25c10.3,0.4,19.9,0.7,30.1-1.6c1.8,3.8,2.1,7.6,1.9,11.7   c-6.2,2.5-13.9,0.2-19.6,4.6c2,2.3,5.5-0.2,6.7,2.6c-13.3,2.9-26.9,4.7-40.1,8.4C741.1,467,739.3,467.6,738,466z" />
	<path fill="#EBDDB8" d="M809.7,461.8c0.6,3,5.5,2.9,7.9,4.1c8.4,1.7,15.7,7.7,24.5,7.6c5.2-3.8,6.1-11.2,6.9-17.2   c3.2-6.9-4.2-12.4-4-19c1.2-6.6,8.4-10.7,9-17.4c-1.1-8.6,2.8-16.1,1-24.6c-0.5-2.4-0.6-5,0.7-7.3c2.9,6.3,5.6,12.9,4,20   c-2.4,8,0.3,17.6-6.1,24.1c-2.5,2.4-4.2,5.6-4.5,9.1c6.3,15.8,6,48.2-19.4,37.3c-7.2-2.8-14.3-6.4-21.8-8.1   c-3.1-0.5-5.2-1.8-5.5-5.4C804.5,463.3,806.8,462.1,809.7,461.8z" />
	<path fill="#D69479" d="M738,466c1.3,1.7,3.1,1,4.6,0.6c13.2-3.8,26.8-5.5,40.1-8.4c-1.1-2.8-4.7-0.2-6.7-2.6   c5.7-4.4,13.4-2.1,19.6-4.6c0.4,3.4-0.7,6.5-2.1,9.7c-21.2,5.5-42.3,10.3-64,13.6C732.2,471,735,468.5,738,466z" />
	<path fill="#B18B7C" d="M678,451.1c2.8-3.5,5.1-7.8,8.2-10.9c7.9,5.2,13.9,10.5,3.7,18.5C686.3,455.4,681.4,454.1,678,451.1z" />
	<path fill="#B18B7C" d="M798.2,446.9c-0.6-2.7-1-5.3-1.6-8.1c2.6-0.8,5-1.6,7.7-2.4c14.7,8,9.6,14.9-5.2,15.2   C798.9,449.8,799.3,448.3,798.2,446.9z" />
	<path fill="#957063" d="M798.2,446.9c1.1,1.4,0.7,2.9,0.8,4.8c4.9-1.6,13.9,0.6,14.2-6.5c8.7,11.6-8.3,14.7-16.6,14.9   C797.8,455.6,798.4,451.3,798.2,446.9z" />
	<path fill="#E8A287" d="M667.2,466c-0.1,0.5-0.3,1-0.5,1.7c-5.2,0.3-9.2-1.2-14.7-1c2.4-3,6.3-3.9,7.5-8c0.4-0.9,1-1.7,1.9-1.9   C664,459.7,667.9,461.6,667.2,466z" />
	<path fill="#E6CBBB" d="M423.6,439.5c-0.8-1.7-2.9-1.4-4-2.3c2.9-5.4,11.9-2.9,17.2-3.7c-1.5,3.9-1.2,8.1-2.3,11.9   c0-1.7,0-3.6,0-5.4c-2.8-1.5-5.2-0.2-7.7,0c0.3-0.6,1.3-0.7,0.8-1.9C426,437.7,424.8,438.6,423.6,439.5z" />
	<path fill="#906B5E" d="M678,451.1c3.4,3,8.4,4.3,11.9,7.6c-1.5,2.3-3.6,1.3-6.2,1.4c1.1-0.9,1.7-1.5,2.3-2   c-1.2-2.6-4.8,1.9-10.7-3.2C676.1,453.4,676.8,452,678,451.1z" />
	<path fill="#816357" d="M669.7,461.8c0-3.1,2.1-4.1,3.9-5.5c1.2,0.6,2.3,1.4,4,2.3C674.4,460.1,672.9,460.7,669.7,461.8z" />
	<path fill="#221714" d="M583.6,345.1c-0.7,1.7-1.6,3.4-2.3,5.2c-0.6-1.3-1.7-0.9-2.7-1c0.6-1.6,0.2-7.8,1.7-7.5   c0,2.2,0.1,4,0.2,6.3c1.3-1.4,1.7-2.6,1.4-4c0.2-0.5,0.3-0.9,0.5-1.7c0.6,0.8,0.8,1.4,1.2,1.9C583.5,344.8,583.5,344.9,583.6,345.1   z" />
	<path fill="#41342E" d="M445.2,418.5c-0.1,3.3-1.1,6.3-2.4,9.3c-0.4-0.8,0.4-2-0.8-2.6c0.9-2.7,1.7-5.4,1.7-8.4   C444.1,417.4,444.7,418,445.2,418.5z" />
	<path fill="#503E34" d="M451.3,414.6c-0.6,0.6-1.2,1-2.1,1.8c0-1.5,0.1-2.4,1.1-2.9C450.6,413.8,450.9,414.2,451.3,414.6z" />
	<path fill="#B1BEBE" d="M634.6,427.8c0.3-0.4,0.6-0.6,0.9-1c0.6,0.5,1.1,0.9,1.7,1.4C636,428.9,635.3,428.5,634.6,427.8z" />
	<path fill="#946F62" d="M346.8,551.9c-0.6-1.1-1.3-2.1-1.8-3.2c0.4-0.4,0.7-0.6,1.1-1c1.4,3.7,5.2,5.1,7.2,8.1   c2.3,2.9,4,13.4,8.6,10.9c1.4-0.6,2.6-1.7,4.2-1.3c-0.2,0.4-0.4,0.7-0.6,1.3c3.7,1.8,7.4,3.4,11.2,3.7c2.4-1.5,4.6-2.9,6.8-4.2   c-4.2,11.2-16.2,5.7-24.2,2.6C352.1,566.2,351.3,557.2,346.8,551.9z" />
	<path fill="#17100E" d="M357.7,565.3c-1.7-9.2-11.2-12.8-12.5-21.7c2.7,0.1,2.9,4.2,4.4,6.2C354.3,552.3,360.3,560.1,357.7,565.3z" />
	<path fill="#1F110F" d="M255.9,516.1c-1.9-0.1-2.8-2.2-4.1-3.4c1.2,0.1,1.7-0.4,1.1-1.7c2.4,0.6,2.4,0.6,4,3   C256.6,514.6,256.2,515.4,255.9,516.1z" />
	<path fill="#3B2722" d="M305.4,533.1c1.1-0.7,1.9-0.4,2.7,0.6C306.8,534.4,306.8,534.4,305.4,533.1z" />
	<path fill="#362622" d="M252.6,501c0.4,0.6,0.6,1.1,1,1.7c-1,1.7-2.6-0.3-2.1-1.5C251.8,501.2,252.3,501.1,252.6,501z" />
	<path fill="#342722" d="M254.4,509.9c-1.3-0.8-1.9-1.2-2.6-1.6C253.1,507.4,253.7,507.5,254.4,509.9z" />
	<path fill="#1C1513" d="M314.9,536.5c-1.2,0.6-1.8,0.6-2.2-0.6C313.7,535.7,313.9,536,314.9,536.5z" />
	<path fill="#AC897A" d="M383.5,566.1c-2.2,1.4-4.4,2.8-6.8,4.2c-4-0.2-7.6-1.8-11.2-3.7c0.3-0.6,0.4-0.9,0.6-1.3   c1.8-0.6,3.4,0.2,4.9,0.9c1.7-0.4,3.4-1.6,5,0c0.1,0.4,0.2,0.7,0.5,1.7c2.1-4.2,3-8.9,8.6-6.4C384.4,563,384,564.6,383.5,566.1z" />
	<path fill="#241816" d="M376,566.2c-1.6-1.6-3.2-0.4-5,0c-5.1-3.9-10.9,3.8-13.3-1c1.1-0.9,0.9-2.2,0.9-3.5   c0.5,1.1,0.8,2.2,1.3,3.3c3.5-0.7,3.5-3.8,4.2-6.5c-0.7-2.4-1.1-5.2-3.9-6.7c-0.5-1.2-2.1-1.7-1.7-3.3c0.9-0.8,1.7-1.6,2.6-2.4   c0.2,0,0.4,0,0.6,0c0.1,0.3,0.1,0.5,0.2,0.7c0,0.3,0,0.6,0,0.8c-0.2,0.5-0.5,0.9-0.6,1.6c4,3.8,5.3,9.6,4,14.8   c3.7,0.1,7.2,0.2,10.7,0.3C376,565,376,565.6,376,566.2z" />
	<path fill="#8E6B5E" d="M392,565.3c-1.1,5.3-5.1,6.1-10.3,6.8c2.3-2.6,4-4.7,4.6-7.7c0.5,0.6,0.7,0.8,1.2,1.3c0.7-1.2-0.4-3,1.1-4   c0.1,1,0.2,2,0.2,3.2C390,565.1,391,565.2,392,565.3z" />
	<path fill="#A58375" d="M392.7,554.5c-0.6,0-1.2,0-1.7-0.1c0.6-0.9,1.2-1.7,1.7-2.6c-0.4-2.8-3.7-4.8-1.1-8   c3.3-0.9,4.4,3.3,5.4,5.8C394.9,550.8,393.4,552.3,392.7,554.5z" />
	<path fill="#AC8879" d="M392,565.3c-1-0.1-2-0.2-3.2-0.4c-0.1-3.6-1.6-7.9,4-8C394.1,559.6,394.2,563.1,392,565.3L392,565.3z" />
	<path fill="#AB8778" d="M395,553.6c0.8-1.1,1.9-1.8,3.5-2c0.2,2.5,0.4,4.9,0.6,7.6c-0.6,1-1.4,2.3-2.1,3.6   c-1.9-0.7-0.1-3.2-1.7-4.3C395,557,395.1,555.3,395,553.6z" />
	<path fill="#927165" d="M386.9,553.6c0.6,0,1.4,0,2.3,0c0,0.8,0,1.7,0,2.4c-1.7,0.7-1.7,2.6-2.6,3.9c-1.9-0.4-3.2-0.5-4.9-1.9   c2-1.1,3.9-2.1,5.7-3.1C387.2,554.4,387,554,386.9,553.6z" />
	<path fill="#302521" d="M386.9,553.6c0.2,0.4,0.3,0.7,0.6,1.2c-1.8,1-3.7,2-5.7,3.1c0.8,0.6,1.4,1,1.9,1.4c-1.2,0-2.4,0-3.7,0   c-0.3-3.5,4.8-3.6,5.7-6.3C386.1,553.2,386.5,553.4,386.9,553.6z" />
	<path fill="#76584D" d="M395.9,561c0.1,0.7,0,1.6,1,1.8c-0.5,1.7-0.9,3.2-2.6,4c-0.8-1.8,0.9-3.7,0.9-5.6   C395.6,561.2,395.8,561.1,395.9,561z" />
	<path fill="#29211D" d="M395,553.6c0,1.4,0.1,2.8,0.1,4.1C394,556.4,394,555,395,553.6z" />
	<path fill="#29211D" d="M393.6,562.7c0-1.1,0-2.2,0.1-3.3c1.3,0.9,0.6,2.2,0.7,3.3l0,0C394.1,562.7,393.9,562.7,393.6,562.7z" />
	<path fill="#927165" d="M380.2,557.8c-0.1,0.6-0.1,1-0.2,1.6c-0.6,0.1-1.2,0-1.5-0.7C379.1,558.3,379.7,558.1,380.2,557.8z" />
	<path fill="#29211D" d="M395.9,561c-0.2,0.1-0.5,0.1-0.6,0.2c0-0.9-0.1-1.7-0.1-2.7C396.2,559.2,395.9,560.2,395.9,561z" />
	<path fill="#17100E" d="M346.8,551.9c0.2,0.3,0.5,0.6,0.6,0.8C347.3,552.4,347.1,552.2,346.8,551.9z" />
	<path fill="#29211D" d="M395.1,562.7c-0.2,0.4-0.4,0.6-0.6,1c0-0.4-0.1-0.6-0.1-1l0,0C394.7,562.7,394.8,562.7,395.1,562.7z" />
	<path fill="#8E6B5E" d="M392,565.3c0.3-0.3,0.5-0.6,0.7-0.9C392.4,564.8,392.2,565,392,565.3z" />
	<path fill="#906F62" d="M175.9,414.3c-0.8,0.8-1.7,1.7-2.6,2.6c0.3-3.4,2.1-6.2,1.7-9.8c3.2-2.2,5.4,0.8,4.7,4   C178.3,411.9,176.8,412.6,175.9,414.3z" />
	<path fill="#8F6D60" d="M171.6,413.6c-0.8-0.4-0.7-1.1-0.7-1.7c1.1-0.6,0.8-1.1-0.1-1.6l0,0c-0.3-0.3-0.6-0.6-0.9-0.8l0,0   c0-0.7,0.1-1.5-0.8-1.7l0,0c0-1.1,0.1-2.2,0.1-3.3c1.5-0.3,2.7,0.3,3.9,1.3c0.6,2.2-0.2,4.7,0.1,7   C172.7,413,172.2,413.3,171.6,413.6z" />
	<path fill="#4B3D37" d="M175.9,414.3c0.8-1.7,2.4-2.4,3.9-3.2c0.4,0.3,0.7,0.6,1,0.9C179.2,412.8,177.9,414.5,175.9,414.3z" />
	<path fill="#6A5B52" d="M160.1,404.5c0.3-0.3,0.5-0.6,0.7-0.9c0.6,0.8,1.2,1.7,1.7,2.4c-0.1,0.6-0.2,1.2-0.2,1.7   C161.7,406.7,160.8,405.6,160.1,404.5z" />
	<path fill="#E5CBBB" d="M297.5,410.2c3.9,16.4-23.9,37.9-38.2,26.1c-1.7-8,16.5-7.9,22.1-13.9c2.8-2,5.1-5.8,8.3-6.6   c2-2.7,3.7-5,5.4-7.3c0.7,1.4,0,3.1,1.7,4C297.1,411.7,297.3,411,297.5,410.2z M260.6,434.5c2,4,12.1,2.5,14.8-0.1   C270.3,434.9,266,434.9,260.6,434.5z M294.8,416.1c-1.6,1.2-1.6,2.5-0.9,4.1C295.6,419.1,295.5,417.8,294.8,416.1z" />
	<path fill="#281F1D" d="M331.1,422.7c-4-2.9-7.9-6-12-9c0.2-0.3,0.4-0.6,0.6-0.9c4.2,1.5,8.8,4.9,12.2,8.9   C331.6,422,331.4,422.4,331.1,422.7z" />
	<path fill="#54403B" d="M336.3,427.2c2.7,0.5,4.8,1.7,6.8,3.3C340.4,430.4,337.9,429.6,336.3,427.2z" />
	<path fill="#0B0C0B" d="M297.5,410.2c-0.3,0.7-0.5,1.5-0.7,2.3c-1.4-0.6-2.8-6.1-0.1-5.6c0.3,0.9,0.6,1.8,0.8,2.8   C297.3,409.9,297.4,410.1,297.5,410.2z" />
	<path fill="#473734" d="M423.6,439.5c1.2-0.9,2.3-1.8,3.9-1.4c0.5,1.2-0.6,1.4-0.8,1.9C425.7,440,424.5,441,423.6,439.5z" />
	<path fill="#5D514B" d="M331.1,422.7c0.3-0.3,0.6-0.6,0.9-0.9c1.2,0.7,1.7,1.7,1.9,3.9C332.7,424.3,331.8,423.5,331.1,422.7z" />
	<path fill="#97867D" d="M349.2,432.7c0.7,0.4,1.6,0.7,2.5,1.2C350.2,434.3,350.2,434.3,349.2,432.7z" />
	<path fill="#E5CBBB" d="M297.5,409.7c-0.3-0.9-0.6-1.8-0.8-2.8C298.2,407.5,297.5,408.7,297.5,409.7z" />
	<path fill="#977164" d="M361.9,546.9c-0.1-0.3-0.2-0.5-0.2-0.7c3.3,0.1,6.1,1,7.3,4.5c1.1,0.6,2.3,1.3,3.6,2.1   c0.1,0.8,0.2,1.6,0.3,2.4c-0.7,0.3-4.3,2.1-4.6,2.4c0.7,0,1.4,0.1,2,0.1c-1,1.5-2.5,1.7-4.1,1.7c-1.2-3.6-1.6-7.6-4.8-10.2   c0.3-0.6,0.5-1,0.6-1.6C362.6,547.5,362.6,547.2,361.9,546.9z" />
	<path fill="#331210" d="M358.4,536.2c-4.4,0-8.7-0.1-13.2,0c4.1-2.4,9.5-2.7,14-0.7C359,535.7,358.7,535.9,358.4,536.2z" />
	<path fill="#906D60" d="M361.2,546.2c-0.8,0.7-1.7,1.6-2.6,2.4c-0.5,1.6,1.3,2.1,1.7,3.3c-2.6,0.1-4-2.7-4.3-4.8   C357.6,545.2,359.2,544.8,361.2,546.2z" />
	<path fill="#47322C" d="M370.2,557.8c-0.6,0-1.3-0.1-2-0.1c0.2-0.4,3.8-2.1,4.6-2.4c2.3,0.6,3.9-1.4,6-1.7   C379.3,556.2,372.2,556.7,370.2,557.8z" />
	<path fill="#221815" d="M337.9,529.6c2.8-0.9,6.7-0.6,7.9,1.6C343.9,532.6,340.1,531.1,337.9,529.6z" />
	<path fill="#241A17" d="M345.3,536.2c0.6,0,1,0,1.6,0c-2.1,1.2-3.1,3.3-3.9,6.1C340.1,539.9,342.4,536.7,345.3,536.2z" />
	<path fill="#57433C" d="M358.4,536.2c0.3-0.3,0.6-0.5,0.8-0.7c1.8,1.4,5.3,2,5.1,4.9l0,0C362.4,538.9,360.4,537.5,358.4,536.2z" />
	<path fill="#221916" d="M238.6,456c0.5,0.9,1,1.8,1.7,3.3c-1.9-0.2-2.3-0.6-3.5-1.7c-0.2-0.6-0.3-1.3-0.5-1.9   C237.3,454.8,237.8,455.9,238.6,456z" />
	<path d="M277.3,487.6c-2.9,0.5-4.5,0-6.4-1.4C273.7,485.9,274.2,486.7,277.3,487.6z" />
	<path fill="#685048" d="M324.1,523.5c0.8,0.6,1.7,1.2,2.5,1.7C325.9,526.4,324.8,525.8,324.1,523.5z" />
	<path fill="#281B18" d="M331.9,528.2c2.3-0.5,2.3-0.5,3.2,1.1C333.8,529.7,332.8,529.3,331.9,528.2z" />
	<path fill="#43342F" d="M265.3,484.9c0.8-0.7,1.6-0.7,2.2,0.1C266.3,486.4,266.3,486.4,265.3,484.9z" />
	<path fill="#523E37" d="M328.7,526.6c0.6-0.9,2.7-0.4,2,0.8C329.9,528.2,328.7,527.6,328.7,526.6z" />
	<path fill="#57433C" d="M364.3,540.3c0.7,0.1,1.7-0.1,1.4,1.7C365.1,541.2,364.8,540.8,364.3,540.3L364.3,540.3z" />
	<path fill="#927165" d="M381,556.9c-0.3,0.3-0.5,0.6-0.7,0.8C380.5,557.5,380.7,557.1,381,556.9z" />
	<path fill="#0C0A09" d="M141.5,420.9c1.1,1.4-1.4,3.1-2.1,5.2c-1.4-4,0.8-10.9-3.6-11.8c-0.6-0.2-1.5,0.1-1.7-0.9   c0.9-0.4,1.9-0.8,3.1-1.3c-0.3-0.9-0.6-1.8-0.9-2.9c0.4,0,0.7,0,1,0c0.8,1.2,1.7,2.3,2.8,3.7c1.8,0.5,4.1,0.3,5.6,2.2   c0,0.3,0,0.5,0.1,0.7c-0.3,1.3-1,1.7-2.3,1.3c0,0-0.2,0.2-0.2,0.3c-1,0.1-1.9,0.3-3.3,0.5C141,419.2,140,420.5,141.5,420.9z" />
	<path fill="#0E0A09" d="M131.5,409.6c-2.8,5.6-4.3,10.8-0.1,16c-0.8,0.7-1.4,0.2-1.7-0.4c-4.5-4.8-5.4-12.6,0.5-16.6   C130.5,408.9,130.8,409.1,131.5,409.6z" />
	<path fill="#8D6E61" d="M135.9,461.8c1.2-2,3-3.5,4.9-5c2.9-0.3,4.3,2.2,6.7,3.3c0.5-0.3,1-0.6,1.7-1c-0.6-0.5-0.9-0.8-1.3-1.1   c0.9-0.6,1.7-1.2,2.8-1.8c0.3,1.4,0.5,2.6,0.6,4c-0.6,0.5-1.5,0.9-2.2,1.4c-2.4-1.4-5.5-0.4-8.2-0.6c0.8-0.7,1.3-1,1.5-2.3   c-1.2,0.5-2.1,0.8-3.1,1.2c0.3,1.2,1,1.1,1.7,1.2c-0.6,0.6-1.1,1.1-1.7,1.7C138,462.5,136.9,462.1,135.9,461.8z" />
	<path fill="#463731" d="M134.2,413.6c0.3,0.9,1.1,0.7,1.7,0.9c-0.3,0.5-0.6,0.9-0.9,1.4c0.8,1.8,1.7,3.7,2.7,5.7   C136.2,421.6,131.7,414,134.2,413.6z" />
	<path fill="#45332D" d="M160.8,412.7c0.9-0.9,1.7-1.7,2.7-2.7c1.5,3.9-5.2,4.6-6.8,1.8c0.9-1.2,1.4,0.1,2,0.2   C159.5,412.2,160.1,412.5,160.8,412.7z" />
	<path fill="#463731" d="M135.9,461.8c1.1,0.3,2.1,0.6,3.2,0.8c0.3,1.1,0.6,2.2,0.9,3.2l-0.2,0.2c-0.9-0.5-1.1-1.9-2.4-1.8   c-0.8-0.6-1.7-1.1-2.5-1.7C135.3,462.4,135.5,462.1,135.9,461.8z" />
	<path fill="#85675B" d="M137.4,457.6c-1.1,1.4-2.2,2.8-4,4.8c0.2-2.3,0.5-3.6,1.5-4.8C135.7,458.4,136.5,458,137.4,457.6z" />
	<path fill="#1B1311" d="M160.1,404.5c0.7,1.1,1.5,2.2,2.3,3.2c-0.4,0.5-0.7,0.9-1.1,1.5C159.3,407.9,160.1,406.1,160.1,404.5z" />
	<path fill="#473731" d="M145.8,416c-0.1-0.3-0.1-0.5-0.1-0.7c2.3-0.6,3.6,2.6,1.7,4C146.9,418.1,146.3,417,145.8,416z" />
	<path fill="#E5F0EF" d="M141.5,420.9c-1.7-0.4-0.6-1.8-1.5-2.9c1.4-0.2,2.3-0.3,3.3-0.5C143.6,419.3,142.2,419.9,141.5,420.9z" />
	<path fill="#4F362F" d="M175.8,446c-0.3-0.3-0.6-0.6-0.8-0.8c0.5-1.2,1.3-2,2.5-2.5C177.4,444.1,177,445.3,175.8,446z" />
	<path fill="#241817" d="M137.4,409.4c-0.4,0-0.7,0-1,0c-1.7-1.4-1.7-1.4-0.6-2.6h-0.1C136.3,407.7,136.8,408.6,137.4,409.4z" />
	<path fill="#473531" d="M169.1,407.7c1,0.2,0.8,1,0.8,1.7C169.2,409.1,169.1,408.5,169.1,407.7z" />
	<path fill="#473531" d="M170.8,410.2c0.9,0.5,1.2,0.9,0.1,1.6C170.9,411.3,170.9,410.7,170.8,410.2z" />
	<path fill="#463731" d="M140.1,466c0.2,0.1,0.4,0.3,0.6,0.4c-0.1,0.1-0.3,0.3-0.4,0.4c-0.1-0.2-0.3-0.4-0.4-0.6   C140,466.2,140.1,466,140.1,466z" />
	<path fill="#473531" d="M169.9,409.4c0.3,0.3,0.6,0.6,0.9,0.8C170.6,410,170.2,409.7,169.9,409.4z" />
	<path fill="#85675B" d="M138.3,456.9c-0.3,0.3-0.6,0.5-0.8,0.7C137.8,457.3,138,457.2,138.3,456.9z" />
	<path fill="#3B3538" d="M110.3,456.5c0.4-0.5,0.6-0.4,1,0C111.1,457,110.7,456.7,110.3,456.5z" />
	<path fill="#372A25" d="M241.7,454.3C245,454.5,241.6,457.5,241.7,454.3L241.7,454.3z" />
	<path fill="#D69479" d="M599.6,322.8c-3.9,2.4-10.3-2-10.3-6.6c-1.2-1.1-2.4-2.2-3.9-3.5c5.5-3.3,10.9,2.3,14.8,5.8   C600.2,320.2,601.1,321.6,599.6,322.8C599.6,319.5,596.3,322.6,599.6,322.8z" />
	<path fill="#D19277" d="M597,347.7c1.1,0.8,2.3,1.7,3.4,2.5c-2.4,1.7,1.4,5.2,1.8,7.5c-3.7-2.1-6.1-5.7-9.2-8.6c0-1.3,0-2.6,0-4   c1.8,1.1,1.5,4,4,5.1C597,349.1,597,348.4,597,347.7z" />
	<path fill="#4F3931" d="M445.5,445c-1-3.9-1.5-7.8-0.8-12c3,2.3,0.6,7.9,1.9,11.3C446.5,444.8,446.2,445.2,445.5,445z" />
	<path fill="#583E34" d="M448.2,428c0.8,3.9,1.7,7.8,2.6,11.8C448.8,441.9,445.5,427.2,448.2,428z" />
	<path fill="#2E1E19" d="M607.9,326c0,0.4,0,0.8,0,1.3c-1.6,0.8-5.5-2.7-5.7-4.2C604.5,322.8,606,325.1,607.9,326L607.9,326z" />
	<path fill="#473028" d="M597,347.7c0,0.6,0,1.3,0,2.4c-2.5-1.1-2.1-4-4-5.1c-0.3-0.6-0.6-1.2-1-2.3   C594.8,343.1,595.8,345.6,597,347.7L597,347.7z" />
	<path fill="#38251F" d="M602.3,357.6c-0.5-2.2-4.2-5.7-1.8-7.5c1.7,2,2.8,4.3,3.3,6.8C603.4,357.9,602.7,357.5,602.3,357.6z" />
	<path fill="#33241F" d="M608,364.9c-0.2-1.2-0.4-2.3-0.6-3.4c2-1.1,1.1,2.5,1.3,3.5C608.5,364.9,608.2,364.9,608,364.9z" />
	<path fill="#493029" d="M611.9,368.9c0,0.6,0,1.2,0,1.7c-0.2,0-0.3,0-0.5,0.1c-0.1-0.6-0.2-1.2-0.4-1.7   C611.5,368.9,611.6,368.9,611.9,368.9z" />
	<path fill="#D19277" d="M597,347.7c-0.3-0.6-0.6-1.1-0.8-1.7C597.1,346.3,597.1,347,597,347.7z" />
	<path fill="#926555" d="M581.9,344.2c0.4,1.5-0.1,2.7-1.4,4c-0.1-2.4-0.1-4.1-0.2-6.3C581,342.5,581.5,343.4,581.9,344.2z" />
	<path fill="#D69479" d="M612.3,440.9c-1.8,0.6-1.7-1.2-2.2-1.8c-1.7-0.5-3.2-0.9-4.8-1.4c0.3-1.9-1.5-1.7-2.6-2.3   c-0.8-0.6-1.6-1.2-2.4-1.7c1.8,0.2,2.5-1.6,4.2-2.5c6.1,0.6,12.9-2.9,18.5,0.9c0,0.7,0,1.6,0,2.3c-2.6,2.1-6.3,2.6-8.6,5.2   c-1,0-2,0-3.1,0C611.7,440.2,611.7,440.4,612.3,440.9z" />
	<path fill="#281A16" d="M600.4,433.6c0.8,0.6,1.6,1.2,2.4,1.7c-0.6,0.3-1.1,0.6-1.6,0.8c-2.2-0.7-4.6-0.9-6.5-2.3   c0.3-1.6,1.6-1.8,2.6-2.4C598,432.5,598.9,433.4,600.4,433.6z" />
	<path fill="#300605" d="M612.3,440.9c-0.6-0.6-0.6-0.7-0.8-1.6c1.1,0,2.1,0,3.1,0C616,441,613.3,441.1,612.3,440.9z" />
	<path fill="#412A24" d="M623.1,434.3c0-0.7,0-1.6,0-2.3c0.7-0.4,1.4-1.6,2.3-0.1C625.3,433.2,624.1,433.6,623.1,434.3z" />
	<path fill="#735143" d="M601.2,436.2c0.6-0.3,1.1-0.6,1.6-0.8c1.1,0.6,2.8,0.4,2.6,2.3C603.9,437.2,602.5,436.6,601.2,436.2z" />
	<path fill="#906D60" d="M361.9,546.9c0.7,0.3,0.7,0.6,0,0.8C361.8,547.5,361.8,547.2,361.9,546.9z" />
	<path fill="#1F1E1B" d="M260.6,434.5c5.3,0.4,9.7,0.4,14.8-0.1C272.8,437,262.7,438.5,260.6,434.5z" />
	<path fill="#453934" d="M294.8,416.1c0.7,1.7,0.8,2.9-0.9,4.1C293.2,418.6,293.1,417.3,294.8,416.1z" />
	<path fill="#4D3730" d="M140.9,461.1c-0.6-0.1-1.4,0-1.7-1.2c0.9-0.4,1.8-0.7,3.1-1.2C142.2,460.1,141.7,460.4,140.9,461.1z" />
	<path fill="#704A3D" d="M599.6,322.8C596.3,322.6,599.6,319.5,599.6,322.8L599.6,322.8z" />
</g>
<g id="a">
	<path d="M201.2,159.5c-8.5-3.4-13.1-12.3-15.4-20.7c-2.7,0.4-4.7,1.3-5.4,4.2c-1.1,0.1-2,0.2-3,0.2c-0.2,1-0.5,2.1-0.7,3.5   c0.2,0.6,0.5,1.5,0.8,2.4c-3.7,6.8,6.1-2.4,4.9,5.4c-0.9,1.8-2.1,2-4.1,2.8c0.7,0.5,1.2,0.7,1.8,1c1.9-0.8,3.7-2.5,6.3-1.9   c-0.1,0.5,0,0.9-0.3,1.1c-2.8,1.9-2.8,1.9-4.4,5.1c-0.8,0.4-1.8,0.7-2.6,1.1c0.2,0.6,0.3,0.9,0.5,1.3c-1.7,1.7-4,0.6-6.1,0.9   c-0.5,0.6-0.9,1.4-1.4,2c-3-1-8.8-0.9-8.4,3.3c-5.4,3-10.5,2.3-16.8,1.9c-0.1,0.5-0.2,1.2-0.4,2.1c-5.2-0.3-11.3,1.5-14.9-3.3   c-0.6,0.2-1,0.5-1.5,0.6c-0.2,3,3.4,4.2,3.6,7.1c-4.7,2.1-8.6,1.2-11.8-1.8c-1.7-0.1-3-0.2-4.4-0.3c-1.7-1.8-0.8-3.8-3-5.9   c-0.4,2,0.1,3.2,1,4.4c0,0.9,0,1.8,0.9,2.5c-0.2,0.5-0.4,0.9-0.6,1.7c-1.1-0.9-1.9-1.7-2.8-2.4c-5.6,0.1-9.4-3-13.1-7.5   c-1.8-0.5-4.1-1.2-6.5-1.8c-0.4,1.6,1.2,2.5,1.9,3.9c1.2,0.5,3.4-0.4,3.7,1.8c-0.3,0.9-0.8,0.8-1.4,0.8c-4.7-0.2-8.7,0.9-11.3-4.2   c-1.3,0-2.6-0.3-4-0.7c0-3.2-1.7-3.7-4.6-4.3c-0.1,0.9-0.2,1.8-0.3,2.6c-6.6,0-5.6-0.5-10.2-4.9c-5.1-0.9-10.2,0.8-14.9,2.4   c-1.9-0.6-3.6-1.2-5.5-1.8c-0.5-1.1-1-2.5-1.7-4c-1.5-0.1-2.8-0.2-4.2-0.3c-0.5-2.7,1.3-4.5,1.9-6.6c-5.4-0.2-6.3-1.5-5.2-7.2   c-0.7-0.7-1.5-1.5-2.4-2.5c1.5-1.8,2.8-1.8,4.9-1.6c-1.8-3.1-0.7-6.5-1.5-10.1c-1.1-3.8-4.2-7.8,1.5-9.5c-2.9-3-3.5-13.7,3-10.3   c0.7,0.7,0.6,2.3,2.6,2.3c-1.2-6.6-4.9-3.1-5.8-7.3c-0.6-3.5,2.3-7,5.9-4.8c2.3-1.8,2.3-1.8,3.8-4.8c-4.2-3.1,1.4-6.1,4.2-7.6   c0.6,0.7,1,1.4,1.7,2.2c1.9-0.4,3.4-2,4.9-3.7c1.1,0.1,2.2,0.3,3.6,0.4c-0.6,1.1-1.1,2-1.8,3c0.5,0.7,0.9,1.5,1.6,2.5   c3-1,2.6-5.8,6.3-4.8c0.5,1,0.9,2,1.4,3.1c4.4,1.3,6.7-4.2,11.3-1.3c-0.9,1-1.6,1.8-2.1,2.6c1,0.6,2.1,1.4,3.3,2.2   c1.3-0.7,2.7-1.6,4.3-2.6c0.6,0.7,0.9,1.4,1.4,2c4.2-8.9,9.4-19.6,19.1-23.7c0.4,0.3,0.6,0.6,1,0.8c-1.8,1.5-3.7,2.9-5.5,4.3   c-4.7,13.1,5.6,21.3,16,26.3c0.4-0.4,0.6-0.7,0.9-1.1c1.4,1.8,3,2.8,5,3.5c2.2,3.6,7.1,6.3,10.3,8.7v-0.1c0.1,1.1-0.7,2.2,0,3.4   c0.1,0.1-0.4,0.6-0.6,0.9c-0.6,0-1.2-0.1-1.8-0.1c-13.4-9.9-26.9-19.5-37.3-32.6c-3,7.5-10,15.1-8.7,23.3c0.8-0.2,1.6-0.4,2.5-0.6   c0.8,1.7,1.7,3.2,2.5,4.9c2.8-0.1,5.4-0.2,7,2.6c1.9,0,3.7,0,5.5,0c0.5,1.6,2.4,0.2,3,1.5c-0.2,0.6-0.5,1.1-0.7,1.8   c5.8,2.2,12.1,0.4,17.6,3.2c0.3,2.2-1.5,2.6-3.5,3.3c3.7,0.6,6.1,1.4,9.4,1.1c1,0.6,2.1,1,3.3,0.8c4,2.7,8.9,6.5,13.6,2.6   c4-3.9,10.5-5.9,12.1-11.5c-0.8-0.8-3-1.3-2.4-2.8c1.5,0,3-0.3,4.2,0.8c1.3,6.8-6.6,9.1-10,13.7c1.1,1,2.1,2,3,3   c4.2-1.3,9.1-1.8,12.7,0.9c0,5.3-4.4,2.2-7.3,3.9c0,0.6,0.1,1.1,0.1,1.8c8.4-0.6,14.9-6.7,23.4-6.8c-4-23.3,13.4-27.4,28.9-38.8   c-7.1-1.2-13-0.6-19.6-3c-1.1-0.7-2,0-2.9,0.6c-0.4-0.3-0.6-0.6-1-0.9c3.2-3.4,2.1-8.9,4.2-12.5c1.8,3.2,0.1,6.7-0.3,10.1   c2.9,2.2,6.7,1.1,10.1,1.6c6.8-0.2,14.4,2.8,19.9-3.3c20.4-20.5,41.2-47.2,73.7-32.8c0.2,1,0.5,1.9,0.6,3c-7.6-1-15.4-6.2-23-3.9   c5.3,1.7,9.7,1.8,13.9,5.3c-0.4,0.4-0.7,0.6-1,1c-7.3-1.7-14.6-2.9-22.1-4.1c-20.5,8.7-32,28.5-50.3,40.3   c25.5-11.3,59.8,9.9,41.3,38.4c9.5,4.6,18.8,9.6,27.9,15c-1.2,2.1-4.1,0.2-5.9,0.1c-9.4-6.4-19.7-11.7-29.9-17.5   c1-1.9,3.4,0.3,4.8,0.6c29.8-65.8-114.8-31.6-51.4,26.1C201.9,158.9,201.6,159.2,201.2,159.5z M55.2,128.4c1.8,0.4,2.9-0.4,4-1.6   C57.1,126,57.1,126,55.2,128.4z M152.9,134.3c-0.4,2.2,0.3,2.8,2.6,1.9C154.6,135.6,153.9,135,152.9,134.3z M66.9,129.9   c1.3-1.3,2.2-2.7,0-2.8C66.9,127.8,66.9,128.5,66.9,129.9z M186.2,137.6c-2-1.8-1.7-1.8-3.8,0C183.9,137.6,184.6,137.6,186.2,137.6   z M80.4,99.9c-0.6-1.2-1.4-1.7-2.8-0.9C78.5,100.3,79.3,100.6,80.4,99.9z M84.4,118.9c0.2,1,1.8,1.8,1.9,0.5   C85.9,118.5,85.3,118.6,84.4,118.9z M118,125.9c-0.5-1.6-0.5-1.6-1.8-0.8C116.8,125.3,117.3,125.6,118,125.9z M53.4,96.3   c1-0.9,1.3-1.6,0.1-2.5C53.5,94.7,53.4,95.3,53.4,96.3z M87.5,98.2c1.6,0.1,1.6,0.1,1.1-1.3C88.3,97.4,87.9,97.7,87.5,98.2z    M128.9,128.3c-0.1-0.2-0.1-0.4-0.2-0.6c-0.6,0.3-1.6,0.1-1.2,1.1C128,128.6,128.4,128.4,128.9,128.3z" />
	<path fill="#010000" d="M297.9,57.3c-0.2-1-0.5-1.9-0.6-3c1.8,0.1,3.4,0.8,4.3,2.1c5.1,6.1,12.4,8.6,20.1,9c14-0.7,26.8,6.3,41,5   c14.9,0,29.8-1.8,44.7-1.9c61,4.1,123.4-0.5,182.8,15.5c13.8-3.5,29.3-1.2,42.5,3.4c-1.3,1.9-4.8,0.9-6.8,0.9   c-12.3-4.1-25.6-2.7-38.2-2.4c-46.1-11.3-94.5-10.5-141.9-12.8c1.8,6.3-1.5,11-4,16.6c-7.7,16.7-3.6,44.6-0.4,62.6   c24.4,9.7,49.9,1.9,73.3-6.5c30.7-1.8,60.7-8.8,91.5-9c25.7-3,49.4,4.6,74.2,9.7c39.3-0.1,78.4-7.7,116.1-18.4   c3.1-6.6,2.6-13.9,0.3-20.8c-22.3,3.9-44.9-1.5-67.4,0.3c-28,0.5-58.7,2.3-84.3-8.5c26.5,4.3,56.3,6.9,84.4,5.1   c20.3-2.9,41.3,4.1,61.1-0.4c-1-1.7-1.8-3-2.6-4.2c-42.3-0.2-88.9,2.2-130.1-3.1c-1.5,2.8-4.5,1.8-7,1.8c0-0.3,0-0.6,0-0.8   c1.8-0.6,3.5-1.1,5.4-0.9c0-0.2,0-0.4,0.1-0.6c-1-0.3-2-0.6-3-0.8l0.1-0.3c26.2-0.3,53.7,3.5,80.4,0.6c21.4-0.7,42.8,4,63.9-1   c-3.7-6,2.5-10.2,5.8-14.8c6.9-8.1,13.5-16.5,18.4-26.1c5.7-8.1,0.3-20.7,8.9-26.6c10.9-6.4,10.7,3.6,18.1,8.3   C859.3,48,869.8,65.1,864.6,82c-0.4,26.6-15.5,16.2-6.1,39.2c1.4,11.6-1.8,27.4-14.4,31c-11.6-2.3-22.5-8.9-34.2-11.4   c-4.3-0.6-6.6-5.1-8-9.6c-35.4,5.8-70,18.4-106.2,18.4c-20.4,1.1-40.5-6.3-60.4-9.6c-18.2,0.8-36.6-0.9-54.7,2.1   c-21.6,2.3-43,6.5-64.8,7c-3.5-0.3-6.6,0.8-9.4,2.6c-15.5,8.7-34.2,9.2-51.4,6.8c-49.6-16.9-101.9-7.8-152.5-1.8   c17.3,13.5,33.4,27.4,54,35.7c-28.1-2.7-46.7-33.6-73.4-42.3c0.7-0.1,1.6,0,1.8-1c1.4,0.6,3,0.8,4.1,1.8l0,0   c22.5,8.8,48.8-3.5,72.4-4.2c25.7-3,50.7-1.1,75.9,3.9c-5.8-18.1-3-38.5-0.7-57.1c2.6-6.5,10.4-13.5,6.2-20.7   c-40.3-4.3-80.5,5.2-120.3-5.6c-2.2,1.1-4-0.1-5.3-1.3c-3.1,0.2-5.4-0.3-8.2-0.8C305.6,62.2,301.4,60.2,297.9,57.3z M801.6,120.2   c-0.6,3-1.2,5.1-2.5,8c6.6-2,15.2-0.6,19-6.9c1.3-9.9-8.6-20.2-18.2-14.8C800.5,111.3,801,115.8,801.6,120.2z M853.2,115.3   c-0.9-5.5-0.9-11.1,3.7-15c11.3-19.2,6-45.5-8.9-61.5c-3.1-0.6-6.1,1.8-9.1,2.7c-1.8,3.1-2.5,6.5-1.8,10.1c1,7.4-4.5,13.7-6.9,20.5   c1.3,1.8,4.2,2,4.8,4.7c-1.8,3.1-4.5-1.5-7-1.2c-0.6,1-1.2,2-1.8,3c1.6,1.8,4.6,1.5,5.2,4.2c-0.4,0.3-0.7,0.6-1.2,1   c-2-0.7-4-1.4-6-2.1c-4.6,4.2,3.3,4.8,4.2,8.4c-2.9,2.4-5.7-1.7-8.4-3c-0.6,0.8-1,1.4-1.3,2.1c2.4,2.4,6.1,2.7,8.4,5.7   c-3.7,2.3-7.4-1.8-11.1-2.9c-0.4,0.5-0.7,0.8-1.1,1.2c1.5,1.2,3.4,2,4.2,3.5c0.9,2,3.4,1.8,4.2,4c-0.4,0.4-0.8,0.6-1.2,1   c-4.2-0.6-6.8-3.6-10-5.9c-1.7,1-3.2,2-4.1,4.1c6.5,6.3,18.5,16.1,11.3,25.2c-3.5,4.7-10.1,4.2-13.7,8.4c0.4,1,0.8,2.2,1.3,3.5   c13.8,3.5,26.2,12.3,40.9,11.6C856.2,140.9,859.2,125.2,853.2,115.3z M838.9,28.1c-3.2,1.2-6,2.2-8.8,3.2c-2.1,4.2-2.1,4.2-2,8.4   c1.2,8.5-4.8,15.2-7.8,22.8c0.9,1.1,4.5,4,1,4.7c-1.1-0.6-2-2-3.5-1.8c-0.4,0.6-0.9,1.5-1.5,2.3c1.1,2.2,3.5,2.4,4.2,4.6   c-0.6,0.4-1.1,0.7-1.7,1.1c-1.6-0.9-3-1.8-4.4-2.7c-0.6,1.2-1.1,2.1-1.7,3.1c1.7,1.8,3.8,3,4.5,5.3c-3.3,1.8-4.3-1.8-6.8-2.4   c-0.6,0.6-1.1,1.1-1.7,1.7c1.7,2.8,4.9,3.3,7,6c-0.5,0.5-0.8,0.8-1.2,1.2c-3-1.5-5.7-2.9-8.5-4.2c-0.5,0.5-0.7,0.8-1.2,1.4   c3.1,2.3,6.3,4.1,8.9,6.7c32.5-36.5,11.1-47.5,30.2-54.3C842.4,32.8,840.7,30.6,838.9,28.1z M812.7,90.8c-3.7-1.9-6.9-3.6-10.7-5.6   c-0.4,2.3-2.8,3.1-3,5.4c1.8,2.6,4,4.9,7.1,6C808.1,94.8,810.3,93,812.7,90.8z M803.6,98c-3.5-1.4-8.2,0.9-12.1,1.8   c0.8,1.7,1.6,3.1,2.4,4.6c3.2,0.6,6-0.7,8.7-1C803,101.4,803.2,99.8,803.6,98z" />
	<path fill="#040303" d="M332.8,207.7c-7.2,0.7-12.5-4.9-19.3-5.4c-13.7-2.5-28.3-2.8-40.9-9.2c-8.5-3.4-12.6-12.3-21-15.8   c-13-6-26.2-12-40.1-15.3c0-0.3,0-0.6,0-0.8c14.9-3.6,28.9,9.4,42.2,13.7c0-0.6-0.6-1.3,0.4-1.9c1.5,0.8,2.9,1.7,3.2,3.9   c-0.9,0-1.6,0-3,0c22,16.7,30.7,19.3,57.9,22.7c2.8,1.6,6.7,0.7,9.6,2.8c5.6,4,13,2.1,18.7,4.6   C338.2,208.3,335.4,207.4,332.8,207.7z" />
	<path fill="#0E0909" d="M332.8,207.7c2.6-0.3,5.4,0.6,7.7-0.9c10,5.2,9,19.3,19,23.8c10.8,4.9,22.8,8.5,25.7-7.1   c-5.4-3.2-6.3,2.9-8.5,5.6c-0.5-0.5-0.8-0.9-1.5-1.7c-1.6,0.2-3.3,1.2-4.8,0.1c0.4-0.3,0.6-0.6,1-0.8c1.5-0.1,3-0.2,4.2-0.3   c2.2-3.7,2.2-3.7,1.8-4.2c-0.9,0.1-1.8,0.2-3.1,0.4c1.4-1.9,2.5-2.8,4.4-2c2.5,0.6,5.6-0.2,7.8,1.4c1.3-2.3,3-3.9,3-6.6   c-1.7-0.3-2.9,0-4.2-0.9c0.3-1,1.2-0.9,2-1.1c0.9,0.3,1.8,0.6,2.7,1c0.3-0.3,0.6-0.6,0.9-0.7c-1.4-3.3-3-7.1,0.8-9.8   c4.9-0.2,5.7,3.9,7,7.4c9.9,18.5-16,28.5-30.6,25.2c-25-9.4-12.4-11.9-27.3-27.4C337.9,208.4,335.4,208.1,332.8,207.7z    M392.8,214.3c-0.7,0.6-1.6,1-1.4,2.4c1.3,0.3,1.9-0.5,2.1-1.7c0.2-2,2.4-2.1,3.4-3.6c-0.6-2.7-2-6.9-5.5-5.2   c-0.3,0.7-0.6,1.6-0.9,2.4C391.6,210.4,392.8,212.1,392.8,214.3z M392.7,226.7c1.8-2.3,1.7-5.9-0.2-8c-3.5,0.4-3.9,2.6-3.9,5.4   c-1.3,1-0.4,2.6-0.9,4c-0.4-0.3-0.8-0.6-1.4-1c-1.1,3-2,4.5-4.4,7c3-0.6,5.2-1.1,7.6-1.6C390.5,230.5,391.6,228.6,392.7,226.7z    M394.6,227.8c4.7-5.2,5.6-9.2,3.6-14.3c-1.3,0.5-2.4,1.3-3.1,2.7C395.9,220,396.2,223.9,394.6,227.8z" />
	<path fill="#201614" d="M109.9,72.7c-0.4-0.3-0.6-0.6-1-0.8c8.5-6.3,21.3-7,31.3-4.1c0.4-0.3,0.6-0.6,1-0.7   c7.4,9,17.5-15.7,23.7,0.8c3-1,5.4-3.4,8.5-1.9c3.7,1.5,9.5,0.9,8.9,6.5c3.2,4.5,10.8-1.9,11.7,6.3c-0.9,0.3-0.7,1.1-0.9,1.8   c-1.2-6.6-8.3-3.4-12.4-6.6c-0.1-1.9,0.2-3.8-1.8-5.2c-0.8,0.1-1.8,0.2-2.6,0.3c-0.7,3.6-2.1,6.5-2.1,9.8l-0.3-0.1   c-0.2,0.3-0.5,0.6-0.6,0.9l0,0c-0.3,0-0.6,0-0.9,0c0-0.6,0-1.1,0-1.7c0.9-0.6,1-1.1,0-1.7l0,0c0.5-0.5,0.9-0.9,1.5-1.6   c0-2.1,0-4.3,0-6.5c-1.4-1.4-2.8-1.3-4.4-1c0.2,0.9,0.3,1.7,0.4,2.4c-0.3,0-0.6,0-0.8,0c-0.3-0.5-0.6-0.8-1-1.3   c-1.2,0.5-2.3,0.8-3.5,1.2c-5.5-9.9-9.1-4.2-16.2,0.6C136.6,73.2,130,61.6,109.9,72.7z" />
	<path fill="#1C1413" d="M387.3,213.3c-0.7,0.2-1.7,0.1-2,1.1c-9.1-15.1-15.6-15.2-30.7-20.9c0.7-0.1,1.5,0,1.7-0.9   C375.4,197.1,375.8,199.9,387.3,213.3z" />
	<path fill="#211615" d="M627.6,88.7c1.7-0.4,4.2,0.6,5.2-1.1c7.7,1.9,15.3,3.6,22.6,6.7C646.1,97.4,637.1,88.7,627.6,88.7z" />
	<path fill="#322424" d="M182.4,154.4c-0.2-1.5,0.3-3.5-1.8-3.4c0.1-0.3,0.1-0.5,0-0.7c0.2-0.1,0.4-0.3,0.6-0.4   c-1.3-0.5-3,1.1-4.6,1.2c0.4-0.6,0.6-1.3,1-1.9c4.2-0.9,4.7-1,7,1c0.4,1.2-0.9,0.8-1.1,1.3C183,152.4,182.8,153.5,182.4,154.4z" />
	<path fill="#1D1312" d="M211.4,161c0,0.3,0,0.6,0,0.8c-3.7,0.4-7.2,0.2-10.2-2.3c0.4-0.3,0.7-0.6,1-0.9   C205.2,159.9,208.2,160.9,211.4,161z" />
	<path fill="#8D8A8A" d="M44.2,110.3c1.2,1,1,2.5,1.8,4c-2,0.1-1.9-1.6-2.6-2.3C44.3,111.7,44.1,110.9,44.2,110.3z" />
	<path fill="#A5ABAB" d="M116.5,178.5c-0.9-0.6-0.9-1.6-0.9-2.5c0.3,0,0.6,0,0.9,0c0.4,0.5,0.6,1,1,1.5   C117.2,177.8,116.9,178.2,116.5,178.5z" />
	<path fill="#B28C7D" d="M384.4,211c-0.2-0.3-0.5-0.6-0.6-0.9C384,210.5,384.2,210.7,384.4,211z" />
	<path fill="#B28C7D" d="M385.5,212.5c-0.3-0.3-0.6-0.6-0.7-0.8C385,211.9,385.2,212.2,385.5,212.5z" />
	<path fill="#F5DDCE" d="M297.9,57.3c1.8,1.3,3.4,2.6,5.2,3.9c-9.6,5.8,0.4,14.7,4.5,4.4c3.3-0.6,5.9,1,9.5,0.6   c1.3,1.1,3,2.3,5.3,1.3c39.8,10.8,80,1.3,120.3,5.6c4.2,7.2-3.6,14.2-6.2,20.7c-5.5,1.1-12.4,1.1-16.9,4.9   c2.8,3.9,10.8,0.6,14.8,1.2c0.4,9.1,0,18.5-0.9,27.7c-44.3-7.4-64.7-19.6-110.2-4.4c-0.1-1.1-0.2-2.2-0.4-3.4   c-7.5,3.3-8.1,7.3-17.3,8.1c1.9-2.3,2-4.3,1.3-6.6c-6.6,1-9.5,9.7-17.3,8.3c-9.1-1-20.3,1.9-28.2-2.9c4.7-25.5-17.2-37.4-39.8-32.9   c-0.6-0.3-1.1-0.6-1.7-0.8c16-11.9,27.1-29.3,46-37.4c14.1,2.6,18.6,1.2,29.5,10.3c-1.4-2.1-1.8-3.3-2.9-5.9   c-5.8-2.6-10.9-5.4-17.5-6.6C282.5,51.1,290.3,56.2,297.9,57.3z M341.3,91.2c-1.6-0.6-2.8-2.3-5.3-1.3c2.9,1,4.8,3.7,7.6,2.4   C342.7,91.8,342,91.4,341.3,91.2z M295.5,69.6L295.5,69.6c-3.1,7.5-10.1,11.3-15.9,16.6c-5.9,4.6-14.8,4.2-20,9.2   c0.1,0.9,0.1,2,0.2,3.1c1.1,1,2.1,1.9,3,2.7c13.7,1.3,28-3.9,32.5-17.6c4.6-4.2,3.8-9.7,1.2-14.7C296.1,68.7,295.6,68.9,295.5,69.6   z M332.1,83.7c-3.4-3.8-7.9-8.5-13.3-8.2c5.6,4.1,10,7.5,14.9,11.4C333.9,85.3,333.1,84.3,332.1,83.7z M349.1,95   c0.7,1.4,1.8,2.4,3.8,1.7C351.7,95.3,350.6,94.9,349.1,95z" />
	<path fill="#B28C7D" d="M354.6,193.5c21.6,7.8,17.3,4.5,32.2,21.8c-2.5,1.4-5.9,2.4-6.6,5.6c-2.5-0.6-4.2-1.1-6,1.8   c1.4-0.2,2.3-0.3,3.1-0.4c0.5,0.5,0.5,0.5-1.8,4.2c-1.3,0.1-2.8,0.2-4.2,0.3c-1.7-1.5-4.1,0-5.8-1.3c0.3-1.6,0.5-3,0.6-4.5   c1.8,0.1,3.7-0.1,5-1.6c2.6-0.9,6.8-1.3,8-3.8c-1.9-0.4-3.7,1.8-5.9,1c-0.9-1.8-2.2-3.2-4.2-3.4c-1.4-5.1-9.3-7.6-12.7-4.2   c-1.2,2.9,2.3,5,4.7,5.4c4.5,3.4,3.7,10.8-0.8,13.2c-1.8-1.3,0.2-3.9-1.6-4.9c-2.5-2.7-3-7-6.3-9c-4-1.6-3.8-6.5-6.9-8.3   c-1.1,0.6-1.1,0.6-0.3,1.6c0,0.3,0.1,0.6,0.1,0.8c-36.7-23.2-58.9-4.4-93.2-44.9c0-1.9-1.8-2.7-2.3-4.1c-2.2,0-2.2,1.7-2.8,3   c0.7,2.2,1.9,3.9,1.4,6.4c-7.6-5.1-16.7-5.4-23.8-10.5c0.6-1.7,1-3.2,1.6-4.9c-9.2-4.5-20.8,1.3-28.2-7.5   c-4.2-3.6-5.5-9.9-10.7-12.2c-10.3-29.6,60.7-51.6,67.1-23.6c-3.9,1.4-8,3.7-10.6,7c-2.9-0.5-3.9,2.7-7.1,1.5   c0.2,0.8,0.3,1.3,0.5,1.8c-10,8.1,32.1,19.5,36.6,27.5c-0.3,0.3-0.6,0.6-0.8,0.8c-0.7,0.1-1.8-0.3-1.2,1.4c2.2,0.7,4.7,1.9,7,0.3   C307.9,156.9,325.3,185.8,354.6,193.5z M364.6,201.7c-5.2-11-28.6-3.1-21.3,1.6c0.5-1.3,1-2.6,1.6-4c4.2-1.9,8.5-1.7,12.9-1.6   c3.2,2,6.1,3.8,8.7,6.4C366.5,202.7,366.1,201.8,364.6,201.7z M338.2,191.4c2.5,2.7,5.3,1.8,8.1,3   C345.4,190.8,341.9,190.9,338.2,191.4z M335.9,192.1c-1.6-2.8-2.6-3.7-3.9-1.6C333.1,190.9,334.1,191.3,335.9,192.1z M326.9,187.2   c-0.7-1-1.5-1.8-3-0.8C324.8,187.2,325.5,188.1,326.9,187.2z M265.1,146.9c1.6,0.9,2.2,1.3,2.9-0.1   C267.2,146.8,266.6,146.8,265.1,146.9z M329.2,188.6c0,0.2,0,0.4,0,0.6c0.6,0,1.3,0.1,1.9,0.1c0-0.2,0-0.4,0-0.6   C330.4,188.6,329.7,188.6,329.2,188.6z" />
	<path fill="#E6CCBB" d="M261.3,126.6c8,4.8,19.1,1.8,28.2,2.9c7.8,1.4,10.7-7.3,17.3-8.3c0.7,2.3,0.6,4.3-1.3,6.6   c9.2-0.8,9.9-4.8,17.3-8.1c0.1,1.2,0.3,2.3,0.4,3.4c45.5-15.1,66-3,110.2,4.4c0.2-1,0.3-1.8,0.5-2.6c2.1,8.7-1.4,17.7,3.4,25.8   c-25.2-5-50.2-6.9-75.9-3.9c-22.8,1.9-45.1,9.2-68.2,6.5c-0.4-0.7-1-0.8-1.8-0.7c-0.8-0.6-1.8-0.9-2.6-1.6l0,0   c-10.7-5.3-21-11.8-31.9-16.9C258.4,131.6,259.8,129.1,261.3,126.6z" />
	<path fill="#B28C7D" d="M180.7,73.8c3.2,3.2,10.8-0.2,11.7,5.5c3.1,11.3-11.3,17.8-15.1,26.7l0,0c-4.2,2.8-6.6,8.2-12.2,8.5   c-3.2,0.5-10.9,0.6-4.5,4.2c-1.6,5.6-8.2,7.7-12.1,11.5c-4.3,3.6-8.9,0.5-12.6-1.9c1.1-0.6,2.2-1,3.3-1.6c0.6,0.7,1.3,1.6,1.9,2.3   c0.1-0.1,0.3-0.1,0.4-0.2c-1.2-2.6-0.7-4.2,0.9-6.3c2.1,1.1,4.9,0.2,6.6,1.6c-1,1.1-2,2.2-3,3.2c-2.8,0.4-1.1-3-3.4-3   c-1.5,3,1.9,6.1,5.2,4.2c0.3-3.4,4.8-3.5,6-6.5c-0.4-1.8-0.7-3.5-1-5.2c-3.2-1.8-5,3-7.9,1.3c-3.5-2-5.8,0.7-8.3,2.8   c-1.6-0.6-0.7-2.6-0.1-3.3c-0.6-1.2,0.2-2.3,0-3.4c1,0.6,1.2,1.3,2.7,1.2c-0.6-0.8-1.1-1.5-1.7-2.2c-0.5,0.6-0.7,0.8-0.9,1.1   c-3.2-2.4-8.1-5-10.3-8.7c-2-0.7-3.6-1.7-5-3.5c-0.3,0.3-0.6,0.6-0.9,1.1c-33.1-15.4-13-40.8,16.2-34.6c13.7,8.4,17.2-9.8,25-3.4   c-1.1,1.8-1.4,3.7-0.4,5.8c0.6-0.1,1.2-0.2,2-0.3c-0.4-1.3-1.2-1.9-0.2-2.9c0.5,0.5,0.9,0.9,1.5,1.4c1.2-0.5,2.3-0.8,3.5-1.2   c1.4,1.7,2.3,3.6,3.4,5.4c0.1,0.8-0.4,1.9,0.9,2.4l0,0c0,0.8-0.5,5.4,0.8,3.4l0,0c0.2-0.3,0.5-0.6,0.6-0.9l0.3,0.1   c0.9-0.9,1.7-2,3.2-1.8C178.5,76.2,179.6,74.7,180.7,73.8z M143.2,83c0.3-0.7,0.6-1.5,0.9-2.4c-0.9-0.1-1.7-0.2-2.4-0.3   c1.2-1.5,2.8-0.3,4.3-0.6c0.2-0.6,0.5-1.4,0.6-2c-2.4-1.8-2.4-1.8-6.1-2.6c-1.6-3.2-1.8-3.5-4.7-5.1c0.2,1.7,2.5,2.3,2,4.5   c-1.2,0.6-3.4,0.7-3.7,2.4c0.6,2.1,1.6,6.6,4.1,6.3c-0.8-2.1-2.7-3.8-2.5-6.2c0.8,0,1.6-0.1,2.5-0.1c1.1,3,1.3,5.9,1.7,9   c0.1,0.6-0.4,1.4,0.9,1.7C141.5,86,142.3,84.4,143.2,83z M130.9,71.1c-6.3,3.6-5.4,14.5,1.5,17c-4.4-5.2-3.1-10.5-0.4-16.1   C131.5,71.5,131.2,71.3,130.9,71.1z M157.4,73.7c1.8,4,8.8,2.1,6.7-1.8c-0.8,1-1.5,1.8-2.3,2.7C160.4,74.4,159.1,74.1,157.4,73.7z    M147.3,76.8c0,2.1-0.2,3.4,1,4.5C149,79.5,149,79.5,147.3,76.8z" />
	<path fill="#977264" d="M187.4,132.7c5.2,2.3,6.5,8.6,10.7,12.2c7.5,8.7,19,3,28.2,7.5c-0.6,1.8-1,3.2-1.6,4.9   c7.1,5.2,16.2,5.4,23.8,10.5c0.6-2.5-0.6-4.2-1.4-6.4c0.6-1.3,0.6-2.9,2.8-3c4.7,5.4-0.5,4.3,3.6,7.7c0.3-0.9,0.4-1.4,0.5-1.8   c27.8,35.6,58.7,22.1,90,42.7c1.3,0.6,2.7,0.9,2.4,2.9c-0.3,0.4-0.6,0.6-0.9,1c-3.8-4.1-8.1-5.9-13.7-5.7   c-5.9-0.1-10.6-3.9-16.2-5.1c-0.2-1.7-0.9-2.8-2.7-2.4c-0.3,0.6-0.6,1.2-0.7,1.8c-27.3-3.4-36-6-57.9-22.7c1.5,0,2.1,0,3,0   c-0.4-2.1-1.8-3-3.2-3.9c-1,0.6-0.4,1.4-0.4,1.9C214.8,150.8,196.2,173.3,187.4,132.7z M305.3,194c0.6,2.5,3,3.6,3.3,1.6   C307.9,195.2,307,194.7,305.3,194z M252.9,169.2c-0.3,1.8-0.3,1.8,1.8,1.6C254,170.2,253.4,169.7,252.9,169.2z" />
	<path fill="#977264" d="M177.3,105.3c3.2-3.3,5.9-7.7,9.2-10.8c0.1,0.5,0.2,0.8,0.4,1.8c6.1-7.7,5.1-4,12.9-3.3   c-9.5,11.5-20,23-35.3,26.3c-0.6,3-1.3,5.5-1.9,8.1c7.6,1.4,13.7-1.5,20.7,0.4c0.7,2.4,1.6,2.1,1.1,5.4c-4.9,0.1-9.1,2.4-13.7,3.7   c-0.8-0.1-1.6-0.1-1.8-1.3c-2.5-4.3-9.1-3.3-13.5-2.1c-1-0.9-2-1.9-3-3c3.4-4.5,11.3-6.8,10-13.7c3.3-1.2,8.3-0.6,10-4.2   c1.7-2.1,5-3.7,5-6.7l0,0c0.2-0.1,0.5-0.3,0.6-0.4C177.8,105.6,177.5,105.5,177.3,105.3z" />
	<path fill="#B28C7D" d="M183.2,127.8c-7-1.8-13.1,1-20.7-0.4c0.6-2.6,1.2-5.2,1.9-8.1c15.2-3.4,25.8-14.9,35.3-26.3   c4.3,0.8,8.3,1,13.5,1.6C200.3,103.8,183.8,109.3,183.2,127.8z" />
	<path fill="#9592A1" d="M105.7,116.2c-1.8,0-3.6,0-5.5,0c-1.6-2.8-4.3-2.7-7-2.6c-0.8-1.7-1.7-3.2-2.5-4.9   c-0.9,0.3-1.7,0.5-2.5,0.6c-1.3-8.2,5.5-15.9,8.7-23.3c5.5,5.7,10.1,12.1,16.4,16.9c-3.9,3.5-4.8,8.2-6.2,13   C106.4,116,106.1,116.1,105.7,116.2z" />
	<path fill="#908A94" d="M105.7,116.2c0.4-0.1,0.8-0.2,1.4-0.3c1.4-4.8,2.3-9.5,6.2-13c6.9,5.3,13.9,10.5,20.9,15.7   c-0.7,2.8-2.8,5.4-2.6,8.3c-3.3,0.4-5.7-0.6-9.4-1.1c2-0.7,3.8-1.1,3.5-3.3c-5.5-2.9-11.8-1-17.6-3.2c0.3-0.6,0.5-1.2,0.7-1.8   C108.1,116.3,106.2,117.7,105.7,116.2z" />
	<path fill="#977264" d="M236.5,121.2c0.3-0.6,0.6-1.1,0.8-1.7c0.9,1.2,1.5,1.7,3.2,1.5c-0.7-1.3-1.2-2.2-1.7-3.1   c1.6,0.3,2.2-1.4,3.5-1.8c0,0.7,0.1,1.5,0.1,2.2c1.4-0.3,1.5-1.2,1.5-2.1c2.6-3.3,6.7-5.6,10.6-7c0.1-0.8,0.3-1.7,0.4-2.4   c5.9,9.5,4.8,16.1-1.2,25.7C247.6,129.5,241.2,126.3,236.5,121.2z" />
	<path fill="#1C1412" d="M131.5,126.9c-0.3-3,1.8-5.5,2.6-8.3c0.6,0,1.2,0.1,1.8,0.1c-0.6,1.9-2.2,3.5-1.8,5.7   c-0.3,0.1-0.5,0.1-0.5,0.4c9.4-12.3,7.8-4.1,15-7.1c1.1-1,2.4-1.3,4.1-0.6c0.3,1.6,0.6,3.3,1,5.2c-1.2,3-5.6,3-6,6.5   c-3.2,1.9-6.6-1.1-5.2-4.2c2.3,0,0.6,3.4,3.4,3c1.5-2.4,4-3.4,5.9-5.3c-0.7-1.3,0.3-3-1.4-3.7c-0.5,0.5-1,1-1.6,1.7   c-0.4,0.1-0.8,0.2-1.6,0.3c1,0.5,1.4,0.3,1.5-0.4c0.3,0.4,0.6,0.7,0.9,1.1c-4.2,1.6-4.5-1.4-7.7-2.9c-2.1,2-4.8,3-5.7,5.9   c-1.7,0.6-1.8,1.9-1.8,3.3C133.6,127.9,132.6,127.5,131.5,126.9z" />
	<path fill="#130C0B" d="M236.5,121.2c3.8,4.7,9.3,6.6,14.1,10c-0.6,0-1.3,0-1.6,0.7C245.4,129.1,232.7,127.2,236.5,121.2z" />
	<path fill="#1D1411" d="M172.3,112.8c-1.7,3.6-6.7,3-10,4.2c-1.1-1.2-2.7-0.8-4.2-0.8c3.9-2.1,9.6-0.6,13.2-4.2   C171.7,112.2,172,112.5,172.3,112.8z" />
	<path fill="#2B2828" d="M168.2,134.4c0.9,1,0.8,2.7,2.5,2.5c-3,1.4-5.9,3.3-9.7,3.1c0-0.7-0.1-1.3-0.1-1.8   C163.7,136.7,168.2,139.7,168.2,134.4z" />
	<path fill="#1D1615" d="M293.1,64.5c-2.1-1.2-3.3-3.3-5.2-4.8c0.4-0.4,0.7-0.6,1-1c1.4,0.5,2.7,1,3.6,1.4c0.6,1.6,1.1,2.7,1.5,3.7   C293.7,64,293.4,64.2,293.1,64.5z" />
	<path fill="#8B7063" d="M134.9,127.8c0-1.4,0-2.8,1.8-3.3l0,0c0.8,0.9,1.6,1.8,2.6,2.5c-1.1,0.6-2.2,1-3.3,1.6   C135.4,128.3,135.1,128,134.9,127.8z" />
	<path fill="#2B1E1A" d="M190.8,92.1c-1.2,1.3-2.4,2.5-3.9,4.2c-0.2-0.9-0.3-1.3-0.4-1.8c1-1.2,2.1-2.3,3.3-3.3   C190.1,91.4,190.5,91.8,190.8,92.1z" />
	<path fill="#80675C" d="M278.8,149.4c-0.6,0.3-1.1,0.5-1.7,0.7c-0.8-1.6-2.9-1.4-4.2-2.4c0.3-0.3,0.6-0.6,0.8-0.8   C275.6,147.6,277.5,147.8,278.8,149.4z" />
	<path fill="#252626" d="M55.2,128.4c1.8-2.4,1.8-2.4,4-1.6C58.1,128.1,57,128.8,55.2,128.4z" />
	<path fill="#949595" d="M116.5,176c-0.3,0-0.6,0-0.9,0c-0.9-1.1-1.4-2.4-1-4.4C116.1,173.1,116.2,174.6,116.5,176z" />
	<path fill="#373A3A" d="M152.9,134.3c0.9,0.6,1.7,1.3,2.6,1.9C153.2,137,152.6,136.6,152.9,134.3z" />
	<path fill="#CEC1B4" d="M219.8,92.8c0.6,0.3,1.1,0.6,1.7,0.8c-1.1,0.6-2.2,1.1-3.3,1.7c-0.3-0.3-0.6-0.6-0.9-0.9   C218.1,93.9,218.9,93.4,219.8,92.8z" />
	<path fill="#B0BEBE" d="M180.5,150.2c0.1,0.3,0,0.5,0,0.7c-1.1,0.1-3.8,2-4,0.1C177.9,150.8,179.2,149.9,180.5,150.2z" />
	<path fill="#252727" d="M66.9,129.9c0-1.4,0-2.1,0-2.8C69.2,127.2,68.2,128.6,66.9,129.9z" />
	<path fill="#DCE7E7" d="M186.2,137.6c-1.5,0-2.2,0-3.8,0C184.4,135.8,184.1,135.7,186.2,137.6z" />
	<path fill="#2C2E2E" d="M80.4,99.9c-1.1,0.6-1.9,0.4-2.8-0.9C79,98.3,79.9,98.6,80.4,99.9z" />
	<path fill="#1E1E1E" d="M84.4,118.9c0.9-0.5,2.6,0.1,1.7,1.1C85.1,120.1,84.8,119.7,84.4,118.9z" />
	<path fill="#8F8178" d="M217.3,94.5c0.3,0.3,0.6,0.6,0.9,0.9c-0.6,0.8-1.4,1.1-2.7,0.5C216.2,95.3,216.7,95,217.3,94.5z" />
	<path fill="#394045" d="M118,125.9c-0.7-0.3-1.2-0.6-1.8-0.8C117.6,124.3,117.6,124.3,118,125.9z" />
	<path fill="#E1DEDE" d="M53.4,96.3c0.1-1,0.1-1.7,0.1-2.5C54.7,94.8,54.3,95.4,53.4,96.3z" />
	<path fill="#837C7C" d="M87.5,98.2c0.4-0.5,0.7-0.8,1.1-1.3C89.1,98.3,89.1,98.3,87.5,98.2z" />
	<path fill="#977264" d="M204.1,93.6c-0.9,0-1.9,0.5-2.6-0.6C202.4,92.7,203.3,92.7,204.1,93.6z" />
	<path fill="#6D7A81" d="M128.9,128.3c-0.5,0.2-0.9,0.4-1.4,0.6c-0.5-1,0.5-0.8,1.2-1.1C128.8,127.9,128.9,128.1,128.9,128.3z" />
	<path fill="#2B1E1A" d="M189.9,91.2c0.3-0.3,0.6-0.6,0.7-0.9C190.3,90.5,190,90.8,189.9,91.2z" />
	<path fill="#EAA388" d="M645.1,99.5c25.7,10.8,56.5,8.9,84.3,8.5c22.6-1.7,45.1,3.6,67.4-0.3c1.8,4,1.7,7.5,1,11.7   c-11.3,0.3-23,1.4-33,6.7c8.7,0.1,16.1-0.3,24.5,0.3c-48.8,5.1-106.8,22.9-152.1-1.6c4.2-3.6,8.3-7.2,12.5-10.9   c-0.4-0.4-0.7-0.7-1.2-1.1c-30,8-61.1,7.9-91.4,14.1c-38.5,4.1-78.9,13.3-117.3,3.5c-8.9-33.3,6.2-36.6,5.9-57.1   c47.4,2.3,95.8,1.6,141.9,12.8c-0.5,1.1-0.9,2.1-1.4,3.2c-42.5-7.4-85.8-8.6-128.9-9c4.5,4.7,16.8,3.4,23.7,2.7c13,0.9,26,1.8,39,2   c25.4,0.5,50.3,5.6,75.3,9.6c7.3,1.9,14.2-1.4,21.4-0.9C626.4,95,635.6,97.5,645.1,99.5z M603.4,103.7c4.2,0.8,6.9,5.4,11.2,4.7   c3.5,0.6,12.5,0.3,8.9-5.3c-3.7-4-9.4-1.3-13.9-1.7c-1.8-1-3.2,0.6-5.1,0.4c-1.4-0.7-2.8-1.5-4.2-2.3c-0.7,0.6-1.5,1.3-2.3,2   C599.7,103,601.5,103.5,603.4,103.7z M658.6,118.3c1.4,0.8,2.6,0,3.9-0.5c2.4-1.3,5.4-1.1,7.2-3.4   C665.8,114.6,660.7,114.7,658.6,118.3z M681,112.4c-3-1.2-5.4-0.6-7.2,1.8C676.3,114.5,676.7,114.4,681,112.4z M687.7,111.5   c-1.8-0.8-5.4-1-4.7,1.4C684.6,112.8,686.3,113.6,687.7,111.5z M627.9,99.2c-1.7,1.6-1.9,2-1.3,2.6c1.2-0.1,1.9-0.7,2.3-2   C628.5,99.7,628.2,99.4,627.9,99.2z" />
	<path fill="#D69479" d="M438.7,126.9c0.6,1.2,0.9,2.1,1.2,3.5c38.4,9.8,78.8,0.6,117.3-3.5c30.4-6.2,61.5-6.2,91.4-14.1   c0.5,0.4,0.8,0.7,1.2,1.1c-4.2,3.7-8.2,7.4-12.5,10.9c45.9,24.5,102.8,6.6,152.1,1.6c-8.4-0.6-15.9-0.2-24.5-0.3   c10-5.4,21.8-6.5,33-6.7c0.2-1.3,0.3-2.4,0.4-3.5c1.2,4.2,0.1,8.5-1.7,12.5c-37.7,10.7-76.8,18.2-116.1,18.4   c-14.6-1.3-28.3-7.9-42.6-9.6c-16.5-0.6-32.9,0-49.4,0.6c-2.8-1.6-7.4-0.3-10.8-0.7c-3.3,2-30.4,0.4-29.3,4.2c3.2,0,6.4,0,9.5,0   c-15.5,4.4-32.3,2.5-47.9,6.1c-21.1,9.6-46.2,13.6-68.5,5.4C438.7,144.2,438.8,135.6,438.7,126.9z" />
	<path fill="#F7EFD0" d="M809.1,131c20.7-6.2,11-21.4-1.2-31.2c0.8-2,2.4-3,4.1-4.1c3.1,2.3,5.8,5.3,10,5.9c0.4-0.4,0.8-0.6,1.2-1   c-0.6-2.1-3.2-2-4.2-4c-0.6-1.5-2.6-2.3-4.2-3.5c0.4-0.4,0.6-0.7,1.1-1.2c3.7,0.9,7.5,5.1,11.1,2.9c-2.3-3-6.1-3.3-8.4-5.7   c0.4-0.8,0.7-1.3,1.3-2.1c2.7,1.3,5.5,5.4,8.4,3c-0.9-3.7-8.9-4.3-4.2-8.4c2,0.7,4,1.4,6,2.1c0.5-0.4,0.8-0.7,1.2-1   c-0.6-2.9-3.6-2.4-5.2-4.2c0.6-1,1.2-2,1.8-3c2.5-0.3,5.3,4.4,7,1.2c-0.5-2.6-3.5-2.9-4.8-4.7c2.4-6.7,7.9-13,6.9-20.5   c-0.6-3.6-0.1-6.8,1.8-10.1c3-0.7,5.9-3.2,9.1-2.7c18.8,19.6,13.7,36.7,4,59.2c-9.9,5.4,3.4,15.9,1.3,23.8   c-1.6,6.7-1.3,14.8-5.8,20.1c-7-0.1-13.5-5.5-20.5-6.6C821.4,133.1,812.3,136.8,809.1,131z" />
	<path fill="#E9A287" d="M654.3,98.7c1.5,0.1,2.7-0.5,3.5-1.9c41.2,5.3,87.9,3,130.1,3.1c0.7,1.2,1.6,2.6,2.6,4.2   c-19.7,4.4-40.9-2.5-61.1,0.4c-25.7,0.6-52.4,1.4-77.6-4.4C652.7,99.8,653.5,99.3,654.3,98.7z" />
	<path fill="#F6EECF" d="M838.9,28.1c1.8,2.5,3.4,4.7,5.2,7.1c-19.1,6.7,2.3,17.8-30.2,54.3c-2.7-2.7-5.9-4.4-8.9-6.7   c0.5-0.5,0.7-0.8,1.2-1.4c2.8,1.4,5.4,2.7,8.5,4.2c0.5-0.5,0.8-0.8,1.2-1.2c-2-2.7-5.3-3.2-7-6c0.6-0.6,1-1,1.7-1.7   c2.4,0.6,3.5,4.2,6.8,2.4c-0.7-2.2-3-3.4-4.5-5.3c0.6-1,1-1.9,1.7-3.1c1.5,0.9,2.9,1.8,4.4,2.7c0.6-0.4,1.1-0.7,1.7-1.1   c-0.7-2.2-3.1-2.4-4.2-4.6c0.6-0.9,1-1.7,1.5-2.3c1.5-0.3,2.4,1.2,3.5,1.8c3.5-0.7-0.1-3.6-1-4.7c3-7.6,9.1-14.3,7.8-22.8   c-0.1-4.2-0.1-4.2,2-8.4C832.9,30.3,835.7,29.3,838.9,28.1z" />
	<path fill="#020101" d="M645.1,99.5c-9.4-2-18.7-4.5-28.3-5.7c-7.2-0.5-14.1,2.9-21.4,0.9c-25-4-49.9-9.1-75.3-9.6   c-13-0.3-26-1.1-39-2c-7.1,0.7-19,2-23.7-2.7c30.3,1.7,61-0.1,91.3,3.4c19.1,2.9,37.9,7.6,57.2,8.9c15.4-6.2,29.8,5.9,45,5.2   c0,0.3,0,0.6,0,0.8c-0.3,0.3-0.6,0.6-0.8,0.8C648.5,98.6,646.4,98.1,645.1,99.5z" />
	<path fill="#EBDCB8" d="M809.1,131c3.2,5.8,12.4,1.9,17.8,4.3c7,1,13.4,6.5,20.5,6.6c4.4-5.9,6.9-19.4,5.1-26.7c0.3,0,0.6,0,0.8,0   c6,10,3,25.7-5.4,33.3c-14.7,0.6-27-8.1-40.9-11.6c-0.5-1.3-0.9-2.4-1.3-3.5C806.5,132,807.6,131.3,809.1,131z" />
	<path fill="#E6A186" d="M594.9,91.3c-3.9-0.2-7.8-0.6-11.4-1.8c0.9,0,1.8-0.1,2.9-0.1c0.5-1.1,0.9-2.2,1.4-3.2   c22.9-3.1,44.4,4,65.8,9.1l-0.1,0.3c0.3,0.5,0.6,0.9,0.8,1.4c-15.7,4.3-30.5-10.3-46.4-4.8c-2.5-1.9-4.7-4.2-8.2-3.1   c-0.6,0.6-1.2,1.4-1.8,2.1C596.8,91.1,595.8,91.2,594.9,91.3z M587.4,88.2c1.5,1.9,3.2,1.2,4.9,0.9   C590.8,88.3,589.5,87.1,587.4,88.2z" />
	<path fill="#EADCB7" d="M853.2,115.3c-0.3,0-0.6,0-0.8,0c-1.3-5.4-8.5-13.7-0.5-17.3c3.6-10.8,8.9-21.3,9.8-32.8   c3.2,6.4,0.2,30-4.8,35.2C852.1,104.2,852.2,109.7,853.2,115.3z" />
	<path fill="#B18B7D" d="M801.6,120.2c-0.6-4.5-1-8.9-1.6-13.7c7.8-4.2,13.7,0.6,17.5,7.8C814.8,119,806.5,118.8,801.6,120.2z" />
	<path fill="#967163" d="M801.6,120.2c4.9-1.6,13.3-1.3,15.9-5.9c5,12-10.1,12.2-18.4,13.9C800.3,125.4,801,123.2,801.6,120.2z" />
	<path fill="#F1EACC" d="M812.7,90.8c-2.5,2.2-4.5,4.1-6.6,5.9c-3.1-1.2-5.3-3.4-7.1-6c0.2-2.4,2.7-3.1,3-5.4   C805.7,87.2,809,88.9,812.7,90.8z" />
	<path fill="#E5CBBA" d="M434.5,104.5c-0.1-1.6-0.2-3.2-0.3-4.7c-4-0.7-12,2.7-14.8-1.2c4.5-3.8,11.3-3.8,16.9-4.9   C435.7,97.4,435.8,101.1,434.5,104.5z" />
	<path fill="#DA937B" d="M557.8,141.2c-3.1,0-6.3,0-9.5,0c-1.1-3.8,26.1-2.1,29.3-4.2c3.4,0.5,8-0.8,10.8,0.7   C578.5,138.7,567.7,139.5,557.8,141.2z" />
	<path fill="#AC8779" d="M803.6,98c-0.4,1.8-0.6,3.4-1,5.4c-2.7,0.3-5.5,1.6-8.7,1c-0.7-1.5-1.5-3-2.4-4.6   C795.4,98.9,800.1,96.6,803.6,98z" />
	<path fill="#E4CBBB" d="M308.8,65.3c-0.4,0.1-0.8,0.2-1.3,0.3c-4.2,10.2-14.1,1.3-4.5-4.4C305.3,62,306.9,63.8,308.8,65.3z" />
	<path fill="#D69479" d="M581.9,138.5c1.5-1.3,3.4-0.6,5.3-0.6C585.4,138.8,583.7,138.6,581.9,138.5z" />
	<path fill="#5C4D44" d="M650.1,99.5c0.3-0.3,0.6-0.6,0.8-0.8c1.1,0.1,2.3,0.1,3.4,0.2c-0.8,0.5-1.7,0.9-2.5,1.4   C651.3,99.9,650.7,99.7,650.1,99.5z" />
	<path fill="#B6826D" d="M654.2,96.9c-0.3-0.5-0.6-0.9-0.8-1.4c1,0.3,2,0.6,3,0.8c0,0.2,0,0.4-0.1,0.6   C655.6,96.9,654.9,96.9,654.2,96.9z" />
	<path fill="#D69479" d="M559.4,140.9c1-1.3,2.4-0.6,3.6-0.6C561.8,140.5,560.6,140.7,559.4,140.9z" />
	<path fill="#B28C7D" d="M291.3,152.7c0.7-0.1,1.4,0,1.8,0.7C292.3,153.6,291.7,153.5,291.3,152.7z" />
	<path fill="#B28C7D" d="M290.2,152.1c0.4,0.2,0.7,0.5,1.1,0.6C291,152.5,290.6,152.3,290.2,152.1z" />
	<path fill="#B28C7D" d="M288.8,151.1c0.3,0.2,0.6,0.5,0.9,0.6C289.4,151.6,289.1,151.3,288.8,151.1z" />
	<path fill="#B28C7D" d="M287.8,150.4c0.4,0.3,0.6,0.5,1,0.7C288.5,150.9,288.1,150.6,287.8,150.4z" />
	<path fill="#533831" d="M312.1,199.4c0.2-0.6,0.5-1,0.7-1.8c1.8-0.3,2.5,0.7,2.7,2.4C314.3,200,313,200.6,312.1,199.4z" />
	<path fill="#936E61" d="M345.5,210.9c0.3-0.4,0.6-0.6,0.9-1c1.3,4.1,5.9,4.7,7.3,8.5c0.3,0.7,0.4,1.8,0.9,2.2   c2.9,2.5,1.8,7.1,5.7,8.6c1.3-1,2.8-1.1,4.2-1.6c6.2,4.7,13.1,5.3,19,0.7c-4.8,11.1-16.1,5.3-24.2,2.1   C351.2,227.3,351,217,345.5,210.9z" />
	<path fill="#AC897A" d="M383.6,228.4c-6,4.5-12.8,4-19-0.7c1.9-0.6,3.9-1.4,5.8-0.1c1.5,1.1,3.2,0.1,4.8-0.1c0.6,0.6,1,1.2,1.5,1.7   c2.3-2.8,3.1-8.9,8.5-5.6C384.6,225.1,384.2,226.7,383.6,228.4z" />
	<path fill="#150D0C" d="M370.4,227.5c-3-1.8-6,0.5-9,1c-0.4-0.4-0.6-0.6-1-1c4.5-2.4,5.4-9.8,0.8-13.2c-1.1-1.1-2.2-2.6-2.5-4.2   c1.3-0.6,2.3-1.1,3.3-1.6c-0.2,0.9-0.4,1.8-0.6,3c4.1,3,5.3,9.1,4.2,13.8c1.8,1.2,4.2-0.2,5.8,1.3   C371.1,226.9,370.8,227.3,370.4,227.5z" />
	<path fill="#906C5F" d="M392.7,226.7c-1,1.8-2.1,3.8-3.2,5.7c-2.4,0.5-4.6,0.9-7.6,1.6c2.4-2.5,3.3-4.1,4.4-7   c0.6,0.5,0.9,0.7,1.4,1c0.6-1.3-0.4-2.9,0.9-4c0.1,0.7,0.2,1.6,0.4,2.6C390.3,226.6,391.5,226.6,392.7,226.7z" />
	<path fill="#A07D70" d="M394.6,227.8c1.7-3.9,1.4-7.8,0.4-11.6c0.8-1.5,1.8-2.2,3.1-2.7C400.1,218.6,399.3,222.7,394.6,227.8z" />
	<path fill="#A98678" d="M392.7,226.7c-1.2,0-2.4-0.1-3.7-0.1c-0.6-3.4-1-7.6,3.6-7.9C394.3,220.8,394.5,224.3,392.7,226.7z" />
	<path fill="#A98577" d="M392.8,214.3c-0.1-2.1-1.2-3.8-2.3-5.5c0.4-0.9,0.6-1.7,0.9-2.4c3.5-1.7,5,2.6,5.5,5.2   c-1,1.5-3.2,1.6-3.4,3.6C393.3,214.7,393.1,214.4,392.8,214.3z" />
	<path fill="#A28073" d="M388,215.2c0.4,0.1,0.8,0.1,1.5,0.2c0,2.7-1.7,4.2-3,6.6c-1.3-0.8-3.3-1.2-5-1.2c1.5-2.3,4.2-2.6,6.3-3.9   C387.9,216.3,388,215.7,388,215.2z" />
	<path fill="#31211D" d="M388,215.2c-0.1,0.6-0.2,1-0.3,1.7c-2,1.3-4.8,1.6-6.3,3.9c-0.4,0-0.8,0.1-1.2,0.1   C381.1,217.6,385,215.5,388,215.2z" />
	<path fill="#725D53" d="M392.8,214.3c0.3,0.3,0.5,0.6,0.7,0.7c-0.2,1.2-0.8,1.8-2.1,1.7C391.3,215.3,392.1,214.7,392.8,214.3z" />
	<path fill="#916F61" d="M178.1,76.2c-0.3,0.3-0.6,0.7-0.9,0.7c-1.6-0.2-2.3,0.8-3.2,1.8c0-3.3,1.4-6.2,2.1-9.8   c0.7-0.1,1.8-0.2,2.6-0.3C184,73.5,176.8,73.6,178.1,76.2z" />
	<path fill="#906E60" d="M172.4,76.1c-1.2-0.5-0.7-1.6-0.9-2.4c0.3-0.3,0.6-0.5,1-0.8c-1.5-1.8-3-3.2-3-5.8c1.6-0.3,3-0.4,4.4,1   c0,2.1,0,4.4,0,6.5C173.2,75.2,172.8,75.7,172.4,76.1z" />
	<path fill="#322824" d="M163.1,68c-1,0.9-0.2,1.7,0.2,2.9c-0.8,0.1-1.4,0.2-2,0.3c-1-2.1-0.7-4,0.4-5.8   C162.1,66.3,162.5,67.2,163.1,68z" />
	<path fill="#55443C" d="M169.8,69.5c0.8,1.1,1.7,2.2,2.6,3.3c-0.5,0.4-0.7,0.6-1,0.8c-0.8-1.4-1.7-2.8-2.5-4.2   C169.3,69.5,169.6,69.5,169.8,69.5z" />
	<path fill="#3F2D28" d="M178.1,76.2c-1.2-1.4,1.7-2.3,2.4-3.4c0,0.4,0,0.7,0.1,1C179.8,74.7,179,75.4,178.1,76.2z" />
	<path fill="#906E60" d="M172.3,77.8c0-0.6,0-1.1,0-1.7C173.3,76.7,173.2,77.3,172.3,77.8z" />
	<path fill="#1C1A17" d="M173.8,78.6c-0.2,0.3-0.5,0.6-0.6,0.9C173.4,79.3,173.6,78.9,173.8,78.6z" />
	<path fill="#1C1A17" d="M173.2,79.5c-0.4,0.8-0.6,0.8-0.9,0C172.6,79.5,172.9,79.5,173.2,79.5z" />
	<path fill="#6E8888" d="M180.5,150.2c-0.3-0.1-0.6-0.1-0.8-0.2c0.5-0.3,0.9-0.7,1.4-0.2C180.9,149.9,180.7,150.1,180.5,150.2z" />
	<path fill="#E6CCBB" d="M298,72.8c3.2,4.8-2.2,9-4.1,13.1c-4.2,12.6-19.2,16-31.1,15.1c-0.8-0.8-1.8-1.7-3-2.7   c-0.1-1.1-0.1-2.2-0.2-3.1c5.2-5,14-4.6,20-9.2c5.8-5.3,12.6-9.1,15.9-16.6c0.3,1.8,0.4,3.6,1.2,5.8   C297.3,74.2,297.7,73.5,298,72.8z M274.7,96.9c-4.5,0.3-8.9-0.5-13.4,0.1c2.5,3.6,16.1,1.6,17.9-1.8   C277.7,96,275.8,95.9,274.7,96.9z M294.1,82.7c1.8-1.4,1.8-2.6,0.8-4.3C293.7,79.6,293.7,80.8,294.1,82.7z" />
	<path fill="#2A1F1D" d="M331.1,84.6c-4-3-7.9-5.9-12.3-9.1c5.4-0.3,9.9,4.4,13.3,8.2C331.8,84,331.5,84.3,331.1,84.6z" />
	<path fill="#151715" d="M298,72.8c-0.4,0.6-0.6,1.4-1.2,2.5c-0.9-2.2-1-4.1-1.2-5.8l0,0c0.4-0.3,0.7-0.5,1.1-0.7   C297.1,70.1,297.5,71.5,298,72.8z" />
	<path fill="#B5A096" d="M349.1,95c1.5-0.1,2.7,0.4,3.8,1.7C350.9,97.3,349.8,96.3,349.1,95z" />
	<path fill="#453531" d="M340.3,92.1c-1.3-0.6-2.6-1.4-4.3-2.2c2.6-0.9,3.8,0.7,5.3,1.3C341,91.4,340.7,91.8,340.3,92.1z" />
	<path fill="#56504B" d="M331.1,84.6c0.4-0.3,0.6-0.6,1-0.9c1,0.6,1.8,1.6,1.7,3.2C332.5,86.4,331.8,85.5,331.1,84.6z" />
	<path fill="#736A63" d="M340.3,92.1c0.3-0.3,0.6-0.6,0.9-0.9c0.7,0.4,1.4,0.6,2.3,1.1C342,92.9,342,92.9,340.3,92.1z" />
	<path fill="#B0A095" d="M293.1,64.5c0.3-0.3,0.6-0.6,0.9-0.8c0.5,0.7,0.8,1.4,1.4,2.2C293.8,66.2,293.4,65.3,293.1,64.5z" />
	<path fill="#E6CCBB" d="M296.6,68.8c-0.4,0.3-0.7,0.5-1.1,0.7C295.6,68.9,296.1,68.7,296.6,68.8z" />
	<path fill="#967163" d="M366.3,220.9c-1.5-3.2-1.4-7.5-4.9-9.4c0.3-1.6,0.6-2.6,0.6-3.9c3.3,1.2,5.7,1.4,7.1,5.5   c2,0.2,3.2,1.6,4.2,3.4c0.7,0.1,1.4,0.1,2,0.1c-2.4,2-4.6-0.5-7.1,2.4c1.1,0.1,2,0.1,3,0.2C370,220.9,368.1,221,366.3,220.9z" />
	<path fill="#16100E" d="M360.4,227.5c0.4,0.4,0.6,0.6,1,1c-0.4,0.2-0.6,0.5-1,0.7c-4-1.6-2.9-6.1-5.7-8.6c-0.6-0.4-0.6-1.5-0.9-2.2   c-0.8-3.7-5.7-3.7-6.6-7.5c-1.1-0.9-0.4-2.5-1.7-3.2c-0.3-0.8,0-1.6,0.2-2.4c3.1,1.9,3,6.7,6.9,8.3   C356.7,217,358.5,222.8,360.4,227.5z" />
	<path fill="#916F62" d="M362.1,207.6c0,0.3,0,0.6-0.1,0.9c-1,0.5-2,1-3.3,1.6c0.3,1.6,1.4,3,2.5,4.2   C354.6,213.2,354.7,206,362.1,207.6z" />
	<path fill="#46312C" d="M371.3,219.4c-0.9-0.1-1.8-0.1-3-0.2c2.5-2.9,4.7-0.5,7.1-2.4c1.3-0.3,2.7-1.8,3.9-1.2   C378.1,218.1,373.8,218.4,371.3,219.4z" />
	<path fill="#2A1C19" d="M338.2,191.4c3.7-0.5,7.1-0.6,8.1,3C343.5,193.2,340.7,194,338.2,191.4z" />
	<path fill="#160F0D" d="M348,196.8c3.6-0.6,7.1-1.3,10.7,0.1c-0.3,0.3-0.6,0.6-0.8,0.8C354.6,197.5,350.9,198.6,348,196.8z" />
	<path fill="#493832" d="M357.8,197.7c0.3-0.3,0.6-0.6,0.8-0.8c1.8,1,3.4,2.1,5.2,3.1c-0.3,0.4-0.6,0.6-0.9,1   C361.2,200,359.5,198.8,357.8,197.7z" />
	<path fill="#1D1411" d="M238.8,117.8c0.5,0.9,1,1.8,1.7,3.1c-2.4,0.3-3.3-1.1-3.7-3.2C237.6,117.7,238.2,117.8,238.8,117.8z" />
	<path fill="#513731" d="M348,196.8c0.6,0.3,1.1,0.6,1.8,0.9c-2,0.5-4,1.8-6.1,1.4C344.8,197.7,346.2,197,348,196.8z" />
	<path fill="#2F231F" d="M273,147.7c1.3,1,3.2,0.8,4.2,2.4c-2,0.5-3.6-0.6-5.4-1C271.1,147.5,272.3,147.8,273,147.7z" />
	<path fill="#191311" d="M343.7,199.1c0.5,0.1,0.8,0.1,1.3,0.2c-0.6,1.4-1.1,2.7-1.6,4C340.9,203.6,342.1,199.7,343.7,199.1z" />
	<path fill="#381F1C" d="M335.9,192.1c-1.8-0.7-2.8-1.1-3.9-1.6C333.3,188.4,334.3,189.3,335.9,192.1z" />
	<path fill="#4B3831" d="M254,164.3c-0.1,0.5-0.3,0.9-0.5,1.8c-1.4-1.2-2.3-2-1.3-3.6C252.8,163.2,253.4,163.8,254,164.3z" />
	<path fill="#5D473F" d="M326.9,187.2c-1.4,0.9-2,0-3-0.8C325.3,185.6,326.1,186.2,326.9,187.2z" />
	<path fill="#786056" d="M364.6,201.7c1.5,0.1,1.9,0.9,1.8,2.4C365.2,203.8,365.2,202.6,364.6,201.7L364.6,201.7z" />
	<path fill="#4A3731" d="M243.9,116.2c0,0.9-0.1,1.8-1.5,2.1c0-0.7-0.1-1.5-0.1-2.2C242.8,116.2,243.4,116.2,243.9,116.2z" />
	<path fill="#211513" d="M265.1,146.9c1.5-0.1,2-0.1,2.9-0.1C267.4,148.2,266.7,147.8,265.1,146.9z" />
	<path fill="#35221E" d="M329.2,188.6c0.6,0,1.3,0.1,1.9,0.1c0,0.2,0,0.4,0,0.6c-0.6,0-1.3-0.1-1.9-0.1   C329.1,189,329.1,188.8,329.2,188.6z" />
	<path fill="#786056" d="M362.9,201.1c0.3-0.4,0.6-0.6,0.9-1c0.7,0.3,0.8,0.9,0.8,1.7l-0.1,0.1C364,201.6,363.4,201.3,362.9,201.1z" />
	<path fill="#936E61" d="M359.4,224.4c-0.3-0.6-0.5-1.2-0.7-1.8C359.7,222.9,359.6,223.7,359.4,224.4z" />
	<path fill="#977264" d="M345.6,205.2c-0.1,0.6-0.2,1-0.3,1.6C344.5,205.8,344.5,205.8,345.6,205.2z" />
	<path fill="#0E0B0B" d="M134.1,77c0.3-1.7,2.5-1.8,3.7-2.4c0.5-2.2-1.8-2.9-2-4.5c2.8,1.5,3.1,1.8,4.7,5.1c3.7,0.8,3.7,0.8,6.1,2.6   c-0.2,0.6-0.5,1.4-0.6,2c-7.3-1.4-4.4,5.1-3.4,3.3c0.2,0,0.5,0,0.6,0c-0.8,1.6-1.6,3.1-2.4,4.6c-1.3-0.3-0.8-1.1-0.9-1.7   c-0.5-3.1-0.6-6-1.7-9C136.7,77,135.5,77.1,134.1,77z" />
	<path fill="#8B6D60" d="M149.1,120.3c0.6-0.6,1.1-1.1,1.6-1.7c1.7,0.6,0.6,2.4,1.4,3.7c-0.6,1.2-1.9,1.5-3,2   c-1.8-1.5-4.5-0.5-6.6-1.6c0.2-0.5,0.3-0.9,0.6-1.9c-1.2,0.6-1.9,1-3.5,1.9c1.6,0,2.2,0,2.9,0c-0.4,1.3-2,1.8-1.8,3.4   c-1.2-0.9-2.3-2.3-4.2-1.8l0,0c0.8-2.9,3.6-4,5.7-5.9c3.1,1.5,3.5,4.4,7.7,2.9C149.5,121,149.3,120.6,149.1,120.3L149.1,120.3z" />
	<path fill="#0C0908" d="M130.9,71.1c0.3,0.2,0.6,0.5,1.2,0.8c-2.8,5.6-4.1,10.9,0.4,16.1C125.5,85.5,124.6,74.7,130.9,71.1z" />
	<path fill="#4E3A34" d="M157.4,73.7c1.8,0.4,3,0.6,4.4,0.9c0.8-0.9,1.5-1.8,2.3-2.7C166.1,75.9,159.1,77.7,157.4,73.7z" />
	<path fill="#362521" d="M172.3,112.8c-0.4-0.3-0.6-0.6-1-0.9c1.8-2,3.5-4.3,5.9-5.8C177.3,109.1,174.1,110.6,172.3,112.8z" />
	<path fill="#4E3F39" d="M134.1,77c0.6,0,1.1,0.1,1.7,0.1c-0.3,2.4,1.6,4.1,2.5,6.2C135.6,83.5,134.8,79.1,134.1,77z" />
	<path fill="#3A2A25" d="M136.5,124.4c1.8-0.6,2.9,0.8,4.2,1.8c0.3,0.9,0.6,1.9,0.7,2.9c-0.1,0.1-0.3,0.1-0.4,0.2   C139.8,127.3,138,126,136.5,124.4z" />
	<path fill="#F5F0EF" d="M143.2,83c-0.6,0-1,0-1.6-0.2c-0.2-0.8-0.8-1.7,0-2.5c0.7,0.1,1.5,0.2,2.4,0.3   C143.7,81.5,143.4,82.2,143.2,83z" />
	<path fill="#6E574D" d="M134,124.5c-0.2-1.9,0.5-3.5,1.7-5c0,0.7,0,1.5,0.9,1.8C135.7,122.3,134.9,123.3,134,124.5L134,124.5z" />
	<path fill="#3D312C" d="M147.3,76.8c1.8,2.7,1.8,2.7,1,4.5C147.1,80.2,147.3,78.9,147.3,76.8z" />
	<path fill="#402C27" d="M136.5,114.5c0.3-0.3,0.5-0.6,0.9-1.1c0.6,0.7,1,1.4,1.7,2.2C137.7,115.7,137.4,115.1,136.5,114.5   L136.5,114.5z" />
	<path fill="#362521" d="M177.3,105.3c0.2,0.2,0.4,0.3,0.6,0.5c-0.2,0.1-0.5,0.3-0.6,0.4C177.3,105.8,177.3,105.6,177.3,105.3z" />
	<path fill="#4C3730" d="M305.3,194c1.8,0.8,2.5,1.2,3.3,1.6C308.3,197.6,306,196.4,305.3,194z" />
	<path fill="#37221E" d="M252.9,169.2c0.6,0.6,1.1,0.9,1.8,1.6C252.5,171,252.5,171,252.9,169.2z" />
	<path fill="#8B6D60" d="M149,120.2c-0.2,0.6-0.5,0.8-1.5,0.4C148.2,120.4,148.6,120.3,149,120.2C149.1,120.3,149,120.2,149,120.2z" />
	<path fill="#6E574D" d="M134,124.4c-0.1,0.2-0.3,0.3-0.4,0.5C133.7,124.6,133.8,124.5,134,124.4C134,124.5,134,124.4,134,124.4z" />
	<path fill="#D59378" d="M604.4,102c5-0.5,10-0.9,15.1-0.7c6.6,0.6,5.7,8.4-1.1,7.4c-0.6-1.8-3.2-1.9-3.9-0.2c-2.8,0.7-4.9-1.6-7-3   c0.5-0.2,0.8-0.3,1.7-0.6C607.3,103.6,605.7,103.4,604.4,102z" />
	<path fill="#2A1815" d="M658.6,118.3c2.1-3.6,7.2-3.7,11.1-3.8c-1.8,2.2-4.8,2.1-7.2,3.4C661.2,118.4,660,119.1,658.6,118.3z" />
	<path fill="#1F1411" d="M604.4,102c0.3,0.3,0.6,0.6,0.8,0.8c-1.7,2.2-5.2,0.2-7.4-1.1c0.9-0.7,1.7-1.5,2.3-2   C601.6,100.4,603,101.2,604.4,102z" />
	<path fill="#2F201A" d="M681,112.4c-4.2,2-4.7,2.1-7.2,1.8C675.6,111.8,678,111.1,681,112.4z" />
	<path fill="#1D0D0B" d="M687.7,111.5c-1.4,2-3.1,1.3-4.7,1.4C682.4,110.5,685.9,110.7,687.7,111.5z" />
	<path fill="#634539" d="M603.4,103.7c0.6-0.2,1.6,0.1,1.8-0.9c1.2,0.6,2.4,1.2,4.1,2.1c-0.8,0.3-1.2,0.5-1.7,0.6   C606.2,104.9,604.8,104.5,603.4,103.7z" />
	<path fill="#2C211C" d="M627.9,99.2c0.3,0.2,0.6,0.4,0.9,0.6c-0.3,1.3-1.1,1.9-2.3,2C626,101.2,626.3,100.8,627.9,99.2z" />
	<path fill="#13100E" d="M614.7,108.4c0.6-1.8,3.2-1.6,3.9,0.2C617.2,108.6,615.9,108.5,614.7,108.4z" />
	<path fill="#D08B72" d="M594.9,91.3c0.9-0.1,1.9-0.2,2.9-0.3c0.6-0.7,1.2-1.5,1.8-2.1c3.5-1,5.7,1.3,8.2,3.1   C603.7,93.4,599.1,92.3,594.9,91.3z" />
	<path fill="#251411" d="M587.4,88.2c2-1.1,3.4,0,4.9,0.9C590.6,89.5,588.8,90.2,587.4,88.2z" />
	<path fill="#221412" d="M274.6,97.7c-4,0.9-10.4,2.6-13.3-0.7c4.4-0.6,8.9,0.2,13.4-0.1C274.6,97.2,274.6,97.4,274.6,97.7z" />
	<path fill="#393733" d="M294.1,82.7c-0.5-1.8-0.5-3,0.8-4.3C296,80.1,296,81.2,294.1,82.7z" />
	<path fill="#9A897D" d="M274.6,97.7c-0.1-2.1,3-1.6,4.6-2.4C278.3,97,278.3,97,274.6,97.7z" />
	<path fill="#B28C7D" d="M141.6,82.8c0.3,0.1,0.6,0.1,0.9,0.2C142.1,83.6,141.8,83.7,141.6,82.8z" />
	<path fill="#3D241F" d="M142.3,122.7c-0.6,0-1.3,0-2.9,0c1.6-0.8,2.3-1.3,3.5-1.9C142.6,121.8,142.5,122.3,142.3,122.7L142.3,122.7   z" />
</g>
</g></svg>