<?xml version='1.0' encoding='utf-8'?>
<svg xmlns="http://www.w3.org/2000/svg" version="1.2" baseProfile="tiny" id="Layer_2_00000010989447698587206400000011997732382375498127_" x="0px" y="0px" viewBox="0 0 900 600" overflow="visible" xml:space="preserve">
<g id="b_00000055667705494734388310000006122944287362795152_">
	<g><path d="M315.1,396.8c0,0.4,0,0.8,0,1.4c-2.4-1.7-4.3-2.4-6.4-4.7c-0.2,1.4-0.3,2.5-0.5,3.7c-1.5-0.9-1.9-2.5-3.7-2.7   c-0.2-0.6-0.5-1.2-0.7-1.8c-3.6-0.4-6.2,1.2-7.7-3c0.4-1,0.9-2,1.4-3.2c-2.2,0.9-1.2,2.5-2.5,4.2c-0.9,0-1.1-0.7-1.1-1.2   c0-2.2-2.2-2.9-3-4.4c-1.2,0-2,0-2.8,0c-0.7-3.8-5.5-4.7-3.5-8.7c0.3-0.8,0.7-1.6,0.1-2.5c-1.7-0.2-2.5,1.5-4,2.3   c-0.7-3-2.1-6.7-0.1-9.4c0.3-0.5,0.5-1.2,0.1-1.8c-2,0.1-2.2,3-4.3,2.9c-2.9-3.8,0.2-6.3-0.1-10.6c1.1-1.2,2.8-0.7,3-2.9   c-1.4,1.1-2.8,1.1-3.7,2.4c-0.3,0-0.6,0-1,0c0.9-4,0.7-8.3,4.4-11.5c-0.4-1.9,1.1-3.6,0.4-5.5c-1.5,1.8-2,3.8-2.9,6.2   c-1.6-3.3-2.8-8.4,1.9-9.3c1.7-2.1,0.6-4.8,1.7-7c0.6-0.4,1.1-0.8,0.4-1.6c-0.6,0.7-1.4,1.3-2.5,1.1c-1.9-3.1,3.1-4.5,3-7.5   c1.6-0.6,3-1.2,4.5-1.8c1.8-3.4,3.9-6.4,6-9.6c-0.2-0.3-0.4-0.7-0.7-1.2c0.2-0.5,0.4-1,0.6-1.5c3.7-1.4,7.4-3.7,11.3-2.4   c0.6-3.4,0.9-3.7,4.4-3.8c0.6-0.5,1.3-1,1.8-1.4c1.5,0.5,1.1,1.8,1.5,2.4c3.6-1.1,6.8-1.5,10.2-3.5c0.8,0.5,1.7,1.1,2.4,1.5   c2.4-0.6,5.3-3.1,7.1-0.3c-0.2,0.9-0.4,1.8-0.6,2.6c-0.2,0-0.4,0.1-0.5,0.2c0.1,0.1,0.2,0.2,0.3,0.3c0-0.2,0.1-0.3,0.2-0.5   c1.9-0.3,2-0.4,2-2.6c1.8-1.3,3.4-1.1,5.1,0.3c0,0.8,0,1.7,0,2.6c1,0.5,1.9,1.1,2.8,1.6c2-2.7,4.1,0.1,5.8,1.7   c-0.4,0.6-0.7,1.2-1.1,1.7c0.2,1.4,1.5,1.8,2.5,2.6c0,0.6,0,1.4,0.1,2.4c-0.8-0.3-1.4-0.5-2.2-0.7c-0.4,0.3-0.8,0.7-1.3,1.1   c0.9,1.7,3.4,1.1,3.7,3.4c-0.6,0.5-1.3,1.1-2,1.7c-0.3,2.6,3.2,3.7,2,6.6c-0.7-0.2-1.3-0.3-1.9-0.5c-0.3,0.5-0.7,1.1-1.2,1.7   c0.7,0.8,1.3,1.6,2.1,2.5c-0.3,0.4-0.5,0.8-0.8,1.1c6.4,2.1,13.7,4.7,17.2,10.8c-0.2,0.2-0.3,0.4-0.5,0.7c-1.3-1.3-2.6-2.6-3.8-3.8   c-3.9-0.4-7.1,0.5-10,2.6c-0.7-0.2-0.8-0.7-0.8-1.3c1.4-1.9,3.1-3.2,4.3-5.3c-5.2-1.2-9.8-4.4-15.1-3.3c-0.4,1.9-1.4,2.7-2.9,3.7   c1.4,2.9-2.1,5.1-0.2,7.8c-0.3,0.7-0.7,1.5-1,2.1c-0.4,0.1-0.8,0.2-1.3,0.4c-0.3,4,1,7.5,0,11.6c-0.6-0.3-1.1-0.5-1.5-0.7   c-0.5-0.8-0.4-2.1-1.8-2.5c0.6,2.4,0.8,4.4,0.7,6.8c0.7,0.1,1.2,0.1,1.8,0.2c-0.5,0.3-1,0.7-1.5,1c0.5,0.4,1,0.7,1.5,1.1   c-3-0.2-2.9,3.5-3.9,5.5c0.2,2.4,2,3.7,3.3,5.5c-5.8,2.6,1.4,8.6-2.8,11.9c-0.1,0-0.3,0-0.4,0c-1.6-1.3-1.9-3.2-2.3-5   c-4.5,2.4,9,9.8-2.5,9.2c1.2,9.6-3,17.9-11.1,22.8c-0.2-0.2-0.4-0.4-0.7-0.7c2.9-3.1,5.2-5.8,8.6-8.5c0.2-1.8,0.6-4,0.9-6.1   c-1.3-1.1-2.7-1.2-4.2-1.5c-0.4-0.7-0.9-2.6-2-1.2C313.6,394.9,314.3,395.9,315.1,396.8z M318.2,392.8c-0.2-1.1-0.4-2.1-0.7-3.5   c-1.2,1.9-0.3,2.8,0.7,4.1C318.2,393.2,318.2,393,318.2,392.8z M291,379.5c1.2-1,1.3-1.7,0.5-4.3C290.3,376.6,290.7,378,291,379.5z    M306.8,380.8c1.3,0,1.4-1.4,0.6-2.3C306.1,378.8,306.6,379.7,306.8,380.8z M320.5,310.8c0,1.4,0.4,1.8,1.5,2.5   C322.3,311.9,321.6,311.3,320.5,310.8z M324.6,376.4c1-0.8,1.5-1.4,0.8-2.4C324.4,374.4,324.2,375.1,324.6,376.4z M314.8,312.8   c-0.5-0.6-2,0-1.2,0.8C314.1,313.9,314.7,313.4,314.8,312.8z M341.4,324.5c0.5-0.7,0.7-1-0.1-1.2   C340.7,323.6,341.1,324,341.4,324.5z M294.6,309.7c-0.3-0.3-0.6-0.3-1-0.1C293.9,309.9,294.1,310,294.6,309.7z M342.5,307   c-0.3-0.3-0.6-0.3-1-0.1C341.9,307.2,342.1,307.3,342.5,307z M319.9,391.8c-0.2-0.1-0.4-0.2-0.6-0.3c-0.4,0.5,0,0.7,0.4,0.9   C319.7,392.3,319.8,392.1,319.9,391.8z M281.4,337.1c0-0.1-0.1-0.1-0.2-0.2c0,0-0.1,0.1-0.2,0.2c0.1,0.1,0.2,0.1,0.3,0.2   C281.4,337.3,281.4,337.2,281.4,337.1z" />
	<path fill="#020101" d="M599.2,559.2c-1.4-0.8-1.4-2.4-2-3.6c-25.7,4-49.6,17.7-76.1,14.7c-22.2-3.9-34.3-11.2-57.3-2.3   c-17.6,3.5-35.3,4.8-53.2,5.6c-31,4.7-69.1,5.4-77-32.5c-3-11.1-12.5-18.8-18.6-28.2c-1.2-4.6-4.3-8.7-4.6-13.7   c-0.5-1.4-1.5,0-2,0.6c-0.7-3.4-0.2-7.1,0.5-10.5c0.5,1,0.8,1.7,1.2,2.4c5.4-12.2,12.9-23.6,16.1-36.7c0.9-3.6,2.6-4.9,6.5-5.1   c0,0.3,0,0.6,0.1,1c-7.4,2-5.7,11.1-8.5,16.8c-4.2,9.8-10.4,18.5-13.8,28.7c3.8,15.6,16.5,26.1,23.5,39.6   c4.1,9.6,6.5,21.2,14.6,28.2c6.9,3.8,14.9,9.8,23,6.7c0.3,0.2,0.5,0.5,0.8,0.8c-0.3,0.3-0.7,0.7-1.2,1.2   c37.6,2.2,75.6-3.6,112.5-10.9c13.4-2,25.2,6.8,38.5,6.5c25.7,2.8,48.6-10.2,73.4-13.9c2.9-5.2,0.5-11.4-1.8-16.6   c-24.4,4.1-48.5,1.6-72.7-2.1c-8.3-1.1-18.8,2.2-26.2-2c-19.1-3.7-37.9-4.9-57.1-7.7c-10.3-1.3-21.2,0.4-31.1-3.2   c-0.2-0.3-0.3-0.7-0.8-1.5c6.1,1.8,15.2,5.5,17.5-2.7c5.4-11.2,7.7-23.8,14.1-34.5c0.2,0.4,0.4,0.8,0.6,1.3   c-5.3,12.7-7.9,25.9-15.4,37.7c14.2-0.4,28.2,1.1,41.8,5.3c9,1.8,18.5-0.4,27.5,2.9c0.4,1.2,1.6-0.4,2.3-0.7   c6.1,4.9,15.9,3.4,17-5.4c-9.3-12.1-21.1-22.4-28.6-35.8c-6-11.9-16.4-21-22.3-32.8c0.2-0.3,0.5-0.5,0.8-0.8   c7.9,12.6,19.1,23.1,25.4,37c8.2,12,19.4,21.9,28.4,33.1c3.9-11.2,12.7,6.4,17.5,9.1c20.4,3.9,41.3,4.5,61.8,0.8   c-2.5-3.4-7.7,0.1-10-3.8c0.2-0.2,0.5-0.5,0.7-0.7c1,0.6,2.1,1.6,3.3,1.2c3.6-0.4,7.6,1.3,9.9,4c0,0.3,0,0.6-0.1,0.9   c-0.6-0.2-1.2-0.3-1.9-0.6c0.1,5.5,3.7,10.5,2.2,16c1.3-0.5,1.7-1.4,1.9-2.4c0.1,0,0.3,0,0.5-0.1c0.2,0.2,0.5,0.5,0.8,0.7l0,0   c-0.9,1.4-3.4,3.6-2.2,5.2c0.1,0.7,0.3,1.4,0.8,2c0,0.2-0.1,0.4-0.1,0.6C599.6,559.2,599.4,559.2,599.2,559.2z M512.9,533.8   c5.1,0.3,9.8,0.5,14.7,0.8c-2.5-4.2-5.1-8.9-9.7-10.6C517.1,527.6,515.1,530.5,512.9,533.8z M512.6,527.1c-0.4,2.8-2.1,4.7-4.5,6.8   c1.5-0.2,2.3-0.3,3.2-0.4C512,531.4,515.5,528.7,512.6,527.1z" />
	<path fill="#050303" d="M371.7,497.3c1.6,2.2,2.7,4.4,4.7,6.3c12.4-23.2,24.1-40.4,46.9-55c11.6-13.1,21.1-12.6,32.6,0   c-0.2,0.2-0.4,0.5-0.7,0.7c-15.5-15.9-23.6-6.5-37.3,5.3c-17.8,12.9-30.2,31-40,50.4c4.1,5.6,11.8,8.1,16.3,13.7   c7.8,15.5-4.4,35.1-15.3,46.4c-0.3-0.3-0.6-0.6-0.8-0.9c8.5-12.2,18.4-25.6,16.7-41.3c-4.1-8.5-15.6-11.8-21.2-19.7l0,0   c-0.9-1.7-1.9-3.4-2.8-5C371.2,497.9,371.4,497.6,371.7,497.3z" />
	<path fill="#0B0808" d="M255.9,581.5c20.7-8,20.3-7.6,22.8-30.2c-3.4-0.2-6.7-0.5-9.8-0.7c-2.4-2.9,0.9-4,2.6-6   c0.3,0,0.6,0,0.9,0.1c-0.1,0.3-0.3,0.7-0.6,1.3c2.5-1,4.5-0.7,7.1-0.7c0.8-0.6,0.8-0.6,0-1.3c2.6-24,8.2-48.7,14.5-72.3   c0.2,0.2,0.4,0.5,0.7,0.7c-0.5,7.6-3.1,15.2-4.6,22.5c0.8,2.2,1.1,4.6-0.2,6.5c-0.3-1-0.5-1.7-0.9-2.6c-7.1,24.3-6.2,49.6-12,74.1   c1.4,0,2.3,0.7,3.5,1.2c-2.9-0.4-4.9-0.2-7.2,1.8c-5.3,2.5-10.9,5.3-16.2,6.9c-0.8,0.1-1.5,0.1-2.4-0.1   C254.9,582.2,255.4,581.8,255.9,581.5z M278.9,546c-3.9-0.1-6.3,0.8-9.7,2.4c3.1,1.2,6.2,0.8,9.5,0.9   C278.8,548.2,278.9,547.3,278.9,546z" />
	<path fill="#050404" d="M308.5,500c8.6-5.7-12.5,43.5-12,48.6c-0.7,0.8-0.7,1.7,0,2.7c3.4-1.7,8.8,1.5,10.8-2.6l0,0   c1.5-1.7,0-3.2-0.9-4.7c-0.6,0.5-1,0.9-1.7,1.5c-1.5-4.5,0.3-9.4,2.5-13.3c2.4,2.5-2.6,5.8-0.7,8.9c5.2,1.2,3.4,9,0,11.8   c-3.7,0.6-7.5-1.5-10.9,0.6c-3.2,7.5-5.4,15.2-6.2,23.3c-0.4-0.4-0.8-0.9-1.3-1.3c1.8-15.4,6.8-30.7,11.9-45.4   C303.7,520.4,309.7,510.8,308.5,500z" />
	<path fill="#100E0D" d="M294.1,472.4c-0.2-0.2-0.4-0.5-0.7-0.7c4.9-18-3.5-40.4,10.4-55.3c0.2,0.2,0.5,0.5,0.8,0.8   c-7.6,9-8.1,21.2-7.8,32.7c2.7-4.8,0.4-10,1.9-15c1.3,3.9,0.4,8.7,1,12.7C296.2,455.4,297.2,464.4,294.1,472.4z" />
	<path fill="#080706" d="M590.1,520.3c2-1.9,3.8-3.8,5.3-6.4c-0.9-3.6,1.9-7.5,0.3-11.2c0.3-1.3,0-3,1-4.1c0.3,1.2,0.5,2.5,0.8,3.9   c1.3,0.5,2.4,0.7,3.9,0.5c-0.1,0.8-0.2,1.4-0.3,1.9c-1.1,0.3-2.1,0.5-3,0.8c0,0.6,0,1.1,0,1.6c1.2,0,2.3,0,3.2,0   c1.5,2.6-2.5,1.9-3.9,2.1c0.9,2.4,1.8,1.3,3.4,2.2c1.1,0.4,0.6,2-0.4,2.1c-1,0.1-1.9-0.4-2.9-0.1c-0.2,0.5-0.4,1.1-0.6,1.6   c1.7,1.2,4.2,0.7,4.9,2.9c-2.1,3.1-4.3-1.3-7.1,0c1.6,2.2,4.5,1.8,5.2,4.8c-2.5,2.9-5.9-4-8.9-1.6   C590.7,520.8,590.4,520.6,590.1,520.3z" />
	<path fill="#201816" d="M318.4,404.5c1-0.6,1.3-1.7,1.9-2.5c0,0.6,0.1,1.2,0.2,1.8c19.2,2.4,25,24.9,40.1,33.9   c-0.4-1-0.6-1.6-0.8-2.1c0.2-0.2,0.4-0.4,0.6-0.6c3.1,4,6.2,7.8,9.9,11.2c-0.2,0.3-0.5,0.5-0.8,0.8c-5.4-6.6-14.2-9.1-19-16.1   C341.9,420,333.4,406.2,318.4,404.5z" />
	<path fill="#0C0B0A" d="M599.2,559.2c7.5-0.9,15-3.2,22.6-1.3c9.5-5.3,1.3-16.8,4.4-24.4c2.8,7.2,2.9,15,1.2,22.5   c-1.7,1.3-3.4,2.6-4.8,3.7c-6.7-1-12.6-1-19.2,0.1C602,559.6,600,560.6,599.2,559.2z" />
	<path fill="#151311" d="M626.2,533.5c-0.2,0.2-0.4,0.5-0.6,0.8c-9.7-14.1,5.2-18-13.8-42.7c0.3-0.3,0.6-0.6,0.8-0.8   C631.8,513,618.9,518.4,626.2,533.5z" />
	<path fill="#0D0C0C" d="M369.6,446.8c0.2-0.3,0.5-0.5,0.8-0.8c7.9,7.1,2.4,18.4-3.9,24.7c-0.5,5.5,1,12.4-0.7,17.4   c-0.2-6-2-12.5-0.6-18.4C371.1,464.1,374.3,454.1,369.6,446.8z" />
	<path fill="#170F0E" d="M273.1,588.7c-10.8-0.7-21.8,5.9-32.9,0.5c0.2-0.2,0.4-0.3,0.7-0.5c1.1,0,2.2,0,3.5,0   c1.3-1.2,3.2-1.2,5-1.4c0,0.3,0,0.6,0,0.8c-1,0.5-2.1,0.5-3.1,0.9c5,4.4,11.5-1.5,17.1-0.9c5.9-0.6,14-0.8,16.9-6.7   c0.2,0,0.5,0,0.8,0c0,0.7-0.1,1.5-0.1,2.2c-2.3,1.7-4.4,3.3-6.6,5C273.9,588.7,273.5,588.7,273.1,588.7z" />
	<path fill="#1A1615" d="M351.3,395.3c-4.6,3.6-3.9,11.1-4.6,16.4c-1.1,7.8,6.9,12.9,10.6,19c-0.3,0.3-0.6,0.6-0.9,0.9   c-6.9-7.4-13.1-15.7-11-26.3c1-3.4,1.2-9.3,5-10.7C350.7,394.9,351,395.1,351.3,395.3z" />
	<path fill="#28221F" d="M612.6,490.7c-0.3,0.3-0.6,0.6-0.8,0.8c-10-10.2-18.5-8.2-15,7.1c-0.8,0.8-0.7,1.8-0.7,2.8   C589.9,485.6,600.9,477.1,612.6,490.7z" />
	<path fill="#201514" d="M240.8,588.7c-0.2,0.2-0.4,0.3-0.7,0.5c-1.6-0.8-1.3-2.3-1.4-3.7c5.6-1.2,11.3-4.2,17.2-4   c-0.5,0.3-1,0.6-1.7,1c0.4,0.1,0.8,0.2,1.1,0.3c-4.8,1.3-9.8,3-14.5,5C240.8,588.3,240.8,588.5,240.8,588.7z M240.4,586.7   c1.9-0.3,1.9-0.3,3.3-1.3c-1.3,0-2.4,0.1-3.4,0.1C240.4,586,240.4,586.2,240.4,586.7z" />
	<path fill="#352926" d="M367,361.9c0.4,5.3,11.1,9.1,3.2,13.7c0.2,1.5,2.4,2.8,0.9,4c-0.4-1-1.4-0.5-2.1-0.6   c0.2-0.4,0.4-0.8,0.5-1.1c-0.2-1.1-0.5-2.1-0.7-3.1c-0.7,0.1-1.5,0.2-1.4-0.9c1-1.4,2.3-0.5,3.5-0.5c2.8-5.1-8.5-7.7-4.7-14.2   C366.6,360,365.9,361.2,367,361.9z" />
	<path fill="#181514" d="M307.9,533.6c-0.1-0.5,0-1.2-0.7-1.4c2.7-6.3,5.4-12.7,7.8-19.2c0.3,0.3,0.6,0.6,1,0.9   C313.9,520.8,311.3,527.3,307.9,533.6z" />
	<path fill="#221B1A" d="M351.3,395.3c-0.2-0.2-0.5-0.4-0.8-0.6c0.4-0.5,0.9-0.6,1.5-0.5c0.4,0.7,0.8,0.7,1.3,0   c7.5,0,14.9,4.4,13.8-6.7c0.2,0,0.4,0,0.6-0.1C371.7,399.6,358.4,395.7,351.3,395.3z" />
	<path fill="#211C1A" d="M367,361.9c-1.2-1-0.4-2.6-0.6-3.9c1.5-5-1.7-12-4.5-16.5c0.2-0.2,0.3-0.4,0.5-0.7c5,5.4,5.7,12.8,5.4,19.9   C367.8,360.9,367.4,361.4,367,361.9z" />
	<path fill="#2D2928" d="M365.8,488.1c1.5-2.5,0.2-6.4,0.7-9.4c0.8,6.6,0.6,13.1,5.2,18.6c-0.2,0.3-0.5,0.6-0.8,0.8   C368.4,495.2,366.4,492,365.8,488.1z" />
	<path fill="#362925" d="M367.8,388.3c-0.9-3.2,4.3-1.4,2-5.3c-2.3-0.4-5.7,1.1-7.2-1.3c1-0.8,2.1,0.1,3-0.7c0.1,0.3,0.2,0.6,0.3,1   c1.7,0.2,3.3,0.4,4.9-0.9c0-0.5,0.1-1,0.2-1.5c0.2-0.3,0.4-0.6,0.7-0.8c0.9,1.8-0.3,3.6,0,5.5C372,386.6,369.4,387.2,367.8,388.3z" />
	<path fill="#1B1A19" d="M289.4,582.8c2.4,4.2-3.7,5.4-6.4,6.7c-0.2-0.2-0.5-0.5-0.8-0.7c0.9-0.9,1.7-2,3-2.4   c0.3,0.3,0.4,0.5,0.7,0.8C288.1,586.2,287.8,584.2,289.4,582.8z" />
	<path fill="#1B1716" d="M590.1,520.3c0.3,0.3,0.6,0.5,0.9,0.8c-2.2,2.5-4.6,4.8-6.8,7.1c-0.2-0.2-0.5-0.5-0.7-0.8   C584.7,524.4,587.9,522.7,590.1,520.3z" />
	<path fill="#3B312E" d="M282.2,588.7c0.2,0.2,0.5,0.5,0.8,0.7c-2.3,2.6-8,5.4-10,1.2c0.9-0.4,0.5-1.3,0.6-2c0.2,0,0.5,0,0.7,0   C273.6,593.4,280.5,591.2,282.2,588.7z" />
	<path fill="#2C211F" d="M455.2,449.3c0.2-0.2,0.4-0.5,0.7-0.7c1.7,2.5,3.5,4.9,5.2,7.3c-0.2,0.3-0.5,0.5-0.8,0.8   C458.5,454.4,456.5,452.1,455.2,449.3z" />
	<path fill="#362F2D" d="M289.4,582.8c-0.4,0.4-0.8,0.9-1.2,1.3c0-2.8,0-5.7,0-8.6c0.4,0.4,0.8,0.9,1.3,1.3   C289.4,578.8,289.4,580.9,289.4,582.8z" />
	<path fill="#342C2A" d="M304.6,417.2c-0.2-0.2-0.5-0.5-0.8-0.8c1.7-2.1,3.8-3.7,6-5.2c0.2,0.2,0.4,0.4,0.7,0.7   C308.5,413.7,306.6,415.4,304.6,417.2z" />
	<path fill="#493633" d="M278.9,542.8c0,0.4,0,0.8,0,1.2c-2.5-0.1-5,0.5-7.4,0.6C273.5,542.6,276.3,542.8,278.9,542.8z" />
	<path fill="#5F5953" d="M583.4,527.4c0.2,0.2,0.5,0.5,0.7,0.8c-0.3,0.7-0.5,1.4-0.8,2c0.6,0.5,1.1,0.9,1.5,1.3   c-0.2,0.2-0.5,0.5-0.7,0.7c-0.6-0.3-1.2-0.7-1.8-1C581.8,529.6,582.3,528.5,583.4,527.4z" />
	<path fill="#3B312E" d="M356.4,431.6c0.3-0.3,0.6-0.6,0.9-0.9c1,1.4,2.1,2.8,3.1,4.2c-0.2,0.2-0.4,0.4-0.6,0.6   C358.7,434.2,357.6,432.9,356.4,431.6z" />
	<path fill="#536060" d="M275.6,356.6c0.9-1.2,2.3-1.2,3.7-2.4c-0.2,2.2-1.9,1.7-3,2.9C276,357,275.8,356.8,275.6,356.6z" />
	<path fill="#A2A3A3" d="M315.1,396.8c-0.8-0.9-1.5-1.8-2-2.8C314.7,392.3,315.3,395.7,315.1,396.8z" />
	<path fill="#CFCBCB" d="M329.6,302.7c0.2-0.9,0.4-1.8,0.6-2.6c0.4,0,0.9,0,1.3,0C331.6,302.2,331.5,302.3,329.6,302.7L329.6,302.7z   " />
	<path fill="#737575" d="M295.5,389.6c0.2-2.1,0.2-2.1,1.9-3.2c-0.5,1.2-0.9,2.2-1.4,3.2C295.8,389.6,295.6,389.6,295.5,389.6z" />
	<path fill="#919595" d="M278.2,329.1c1.1,0.3,1.8-0.3,2.5-1.1c0.6,0.8,0.1,1.2-0.4,1.6C279.5,329.6,278.6,330.1,278.2,329.1z" />
	<path fill="#393B3A" d="M600.6,559.9c0.9,0,1.9,0,2.8,0C602.4,560.6,601.5,560.5,600.6,559.9z" />
	<path fill="#040202" d="M273.6,588.7c0,0.7,0.3,1.6-0.6,2c-0.6-0.7-0.6-1.3,0-2C273.2,588.7,273.4,588.7,273.6,588.7z" />
	<path fill="#362925" d="M371.6,378.3c-0.2-0.2-0.4-0.5-0.6-0.7C371.2,377.8,371.4,378.1,371.6,378.3z" />
	<path fill="#919595" d="M280.1,330.2c-0.1,0.3-0.2,0.5-0.3,0.8C279.8,330.8,279.9,330.5,280.1,330.2z" />
	<path fill="#493633" d="M279.4,541.8c0.1,0.4,0,0.7-0.5,0.9C279.1,542.4,279.3,542.1,279.4,541.8z" />
	<path fill="#B28C7D" d="M365.7,381c-1,0.8-2-0.1-3,0.7c0.5,1.3,1.5,1.1,2.4,1.3c8.4,18.4-10.3,11.9-18.5,3.9c-0.4,0-0.8,0-1.2-0.1   l0,0c-4.2-2.9-6-6.4-7.1-11.5c-0.7,0.9-1.3,1.6-1.9,2.4c-2.9-1.2-5.6-3.5-7.5-6c0.2-0.2,0.5-0.5,0.7-0.7c1.7,0.6,2.6,1.7,3.9,2.9   c1.2-1,3.1-0.3,3.9-2.2c-0.7-0.9-1.4-1.9-2.1-2.9c0.2-1.1,0.4-2.1,0.6-3c-1.1-2.2-3.2-2.9-5-4.6c2.9,0.4,6.5,2.2,7.3-1.6   c1.3-3.1,3.8-5.7,5.1-8.8c-0.2-0.2-0.3-0.5-0.4-0.6c1.8-7.6,6.2-13.9,15.1-12.6c5.7,4.5,8.1,11.7,8.8,18.8c-1.4,0.7-2.7,2.6-4.5,2   c-0.1-0.8-0.4-1.5-1.5-1.8c-0.3,0.3-0.8,0.8-1.2,1.2c-1.4-0.2-1.7,0.9-2.5,1.7c0.1,0,0.3,0.1,0.4,0.1c0.9-0.3,1.7-0.9,2-1.9   c0.9,0,1.7,0.1,1.7,1.4c-2,1.3-4.4,1.9-6.7,2.1c-0.2,1.7,3.6,1.5,5,2.6c0.1-0.6,0.1-1,0.2-1.4c0.9,0.8,0.4,2.1,0.9,3.1   c-0.5,0.2-0.9,0.3-1.8,0.6c0.8,0.4,1.2,0.7,1.7,1c0.6-0.6,1.1-1.1,1.6-1.5c-0.1-0.4-0.2-0.7-0.3-1c1.4-2.6,1.4-5.2,4.5-6.7   c-3.8,8.8,7.3,9.8,4.6,15.3c-1.2,0-2.5-0.8-3.5,0.5c-0.1,1.2,0.6,1.1,1.4,0.9c0.2,1,0.5,2.1,0.7,3.1c-0.1,0.3-0.3,0.7-0.5,1.1l0,0   c-0.9,0-1.8,0.4-1.9,1.4l0,0C366.6,380.6,366.2,380.8,365.7,381z M353.8,356.6c3.2-2.8,6.5-2.6,10.3-1.5c0.5-0.9,0.3-1.5-0.3-1.8   C359.9,351.1,355.6,352.2,353.8,356.6z M367.1,375.7c-0.7-0.6-1.3-1.1-1.9-1.6c0-0.4,0-0.8,0-1.1c0-0.4,0.6-0.7,0-1.2   C363.6,372.9,364.5,376.9,367.1,375.7z" />
	<path fill="#F5DDCE" d="M369.6,446.8c3.4,5.3,2.8,12.4-0.6,17.5c-0.7-0.2-0.5-0.9-0.7-1.4c1.3-4.8,1.3-5.1,0.2-7.8   c-1.1,2-0.1,4.1-1.5,5.9c-5.7,2.9-12.5,1.6-18.2-0.8c-2-1.2-3.6-3.1-5.9-3.5c5-18.6-5.9-53.5-30.3-45c-0.2-0.2-0.5-0.4-0.7-0.6   c2.2-2.3,4.4-4.5,6.5-6.7c15,1.7,23.5,15.5,32.2,26.2C355.4,437.8,364.2,440.3,369.6,446.8z" />
	<path fill="#977264" d="M346.5,386.9c3.4,3.4,8,5,12,7.7c-2.5,0.1-5.8-1.2-8,0c-3.9,1.4-4,7.3-5,10.7c0-0.7-0.1-1.5-0.1-2.4   c-4.5-5.2-7.2-11.9-8.6-18.5c-1.5-0.5-2.9-0.9-4.4-1.4c-4,6.7-3.7,14.9-9.3,20.9c-0.7,0-1.5-0.1-2.4-0.2c-0.4-4.9,1.9-9.6,1.1-14.8   c2.6,0.2,6.2-0.1,4-3.5c0.2-0.2,0.5-0.5,0.7-0.7c5.3-1.7-2.4-8.9,2.5-11c2.5,2.8,5,5.5,9.1,5.4c1.5,3.7,2.9,6.7,7.5,7.6l0,0   C345.9,387.6,345.9,387.6,346.5,386.9z" />
	<path fill="#9492A0" d="M333.4,342c-1.9-2.7,1.6-5,0.2-7.8c1.6-0.9,2.5-1.8,2.9-3.7c5.3-1.1,10,2.1,15.1,3.3   c-3.9,4.7-7.7,9.1-10.8,14.4C338.6,346,334.1,345.1,333.4,342z" />
	<path fill="#8F8892" d="M333.4,342c0.7,3.2,5.2,4.1,7.5,6.2c-1.8,4.2-4.2,8.1-6.2,12.2c-2.2,0.1-4-0.4-6.2-0.7c0-1.2,0-2.4-0.1-3.6   c0.4-0.2,0.8-0.4,1.2-0.7c0.4,0.2,0.9,0.4,1.5,0.7c1.1-4.2-0.3-7.6,0-11.6c0.5-0.1,0.9-0.2,1.3-0.4   C332.8,343.4,333.1,342.7,333.4,342z" />
	<path fill="#A58475" d="M329.6,371.1c-0.2,0.2-0.5,0.5-0.7,0.7c-1.6-1-2.1-2.6-2.5-4.4c0.9-2,0.9-5.8,3.9-5.5c0,0.2,0,0.4,0.1,0.5   c-0.1,1.7-1.1,2.4-2.1,4.1c2.3-0.5,2.3-2,3.2-3.4c0.4,0.4,0.9,0.9,1.3,1.4c-1,1.5-0.9,1.8,0.5,2.1c-0.2-0.7-0.3-1.4-0.5-2.1   c4.7,0.6-1.2,5.1,1.3,6.7c0,0.4,0,0.8,0,1.2c-2-0.2-2.8-2.4-4.8-3.3c0.7-0.8,2.7-1.3,1.5-2.2c-1.5,0-2.3,0.9-2.5,2.5   C328.8,369.8,329.2,370.4,329.6,371.1z" />
	<path fill="#281E1A" d="M334.2,371.1c-2.5-1.6,3.4-6.1-1.3-6.7l0,0c-0.6-1.1-2.4-1.4-2.6-2.5c-0.5-0.3-0.9-0.7-1.5-1.1   c0.4-0.3,0.9-0.6,1.5-1c1.5,0.4,3,0.5,4.5,0.4c-0.2,0.5-0.3,1-0.5,1.5c-0.9-0.2-1.9-0.3-3.1-0.6c1.7,1.7,3.9,2.5,5,4.6   c-0.2,0.9-0.4,2-0.6,3c0.7,1,1.4,2,2.1,2.9c-0.8,1.9-2.7,1.2-3.9,2.2c-1.6-2.1-4-2.5-5.1-4.7c0.2-1.6,1-2.5,2.5-2.5   c1.1,0.9-0.8,1.4-1.5,2.2c2.6,1.6,3.5,4.2,6.9,3.1c-0.8-0.7-1.3-2.3-2-1.9C334.3,370.5,334.2,370.8,334.2,371.1z" />
	<path fill="#C7B8AC" d="M311.8,411.3c0.2,0.2,0.5,0.4,0.7,0.6c-7.8,5.2-11.9,12-13.8,21c-0.2,0-0.5,0-0.7,0   C298.9,423.9,303.9,415.7,311.8,411.3z" />
	<path fill="#1D1311" d="M345.4,386.8c-4.5-0.9-5.9-3.9-7.5-7.6c-4.2,0-6.7-2.6-9.1-5.4c0.2-0.3,0.5-0.5,0.8-0.8   c2.2,1.7,4,4,6.7,4.8c0.6-0.8,1.1-1.4,1.9-2.4C339.4,380.5,341.2,384,345.4,386.8z" />
	<path fill="#1D1818" d="M343.3,344.7c0.7-2.4,2.3-4.1,4-5.7c0,0.6,0.1,1.1,0.8,1.3c-1.6,1.9-3.5,3.4-3.4,6.2c0,0.3-0.4,0.7-0.6,1   C344.2,346.4,344,345.5,343.3,344.7z" />
	<path fill="#5A4940" d="M326.4,384.8c-0.2,0.2-0.5,0.5-0.7,0.7c-1.2-0.8-4.1-5.4-1.6-5.7C324.5,381.6,324.8,383.5,326.4,384.8z" />
	<path fill="#2D2E2E" d="M291,379.5c-0.3-1.5-0.7-2.9,0.5-4.3C292.4,377.8,292.3,378.6,291,379.5z" />
	<path fill="#1B1B1B" d="M306.8,380.8c-0.2-1.1-0.6-2,0.6-2.3C308.1,379.4,308.1,380.8,306.8,380.8z" />
	<path fill="#222525" d="M320.5,310.8c1,0.6,1.8,1.1,1.5,2.5C320.9,312.6,320.5,312.2,320.5,310.8z" />
	<path fill="#323536" d="M329.5,355.4c-0.4,0.2-0.8,0.4-1.2,0.7c-0.2-1-0.4-2-0.6-3.2C329.1,353.3,329,354.5,329.5,355.4z" />
	<path fill="#685349" d="M324.6,376.4c-0.4-1.3-0.1-2,0.8-2.4C326.1,375,325.5,375.6,324.6,376.4z" />
	<path fill="#A7ADAD" d="M317.8,392.8c-1-0.9-1.2-2-0.3-3.5c0.3,1.4,0.5,2.5,0.7,3.5C318,392.8,317.9,392.8,317.8,392.8z" />
	<path fill="#232727" d="M314.8,312.8c0,0.6-0.6,1.1-1.2,0.8C312.8,312.8,314.2,312.2,314.8,312.8z" />
	<path fill="#2D2C2C" d="M341.4,324.5c-0.3-0.5-0.7-0.9-0.1-1.2C342.1,323.5,342,323.8,341.4,324.5z" />
	<path fill="#85C3C3" d="M294.6,309.7c-0.4,0.4-0.7,0.3-1-0.1C293.9,309.3,294.2,309.3,294.6,309.7z" />
	<path fill="#899898" d="M342.5,307c-0.4,0.4-0.6,0.2-1-0.1C341.9,306.6,342.2,306.7,342.5,307z" />
	<path fill="#C6C7C7" d="M319.9,391.8c-0.1,0.3-0.2,0.5-0.3,0.6c-0.4-0.2-0.8-0.4-0.4-0.9C319.4,391.7,319.7,391.8,319.9,391.8z" />
	<path fill="#5A4940" d="M327.6,384.2c-0.2,0.2-0.5,0.4-0.7,0.6C327.1,384.6,327.3,384.4,327.6,384.2z" />
	<path fill="#9C8B8B" d="M281.4,337.1c0,0.1,0,0.1-0.1,0.2c-0.1-0.1-0.2-0.1-0.3-0.2c0,0,0.1-0.1,0.2-0.2   C281.3,337,281.4,337.1,281.4,337.1z" />
	<path fill="#BEC7C7" d="M317.8,392.8c0.1,0,0.3,0,0.4,0c0,0.2,0,0.3,0,0.5C318,393.2,317.9,393,317.8,392.8z" />
	<path fill="#889494" d="M329.6,302.6c0,0.2-0.1,0.3-0.2,0.5c-0.1-0.1-0.2-0.2-0.3-0.3C329.3,302.8,329.5,302.7,329.6,302.6   L329.6,302.6z" />
	<path fill="#EAA388" d="M455.2,449.3c17.2,26.2,34.8,52.5,56,76c0,3.5-2.8,5.5-5.2,7.6c-4.2-3.5-9.7-12.6-15.2-12.8   c0.5,1.3,1.1,2.6,1.6,3.9c-12.8-10-26.8-20-36.9-33.2c-4.6-6-5.3-14.6-5.7-22c0-0.8-0.3-1.1-1.2-1c-0.2-0.5-0.5-1-0.7-1.5   c0.3-1.2,2.3-3.1,0.6-4c0-3.2,0.2-6.6-2.5-9.1c-4,6.9-3.1,15.6-9,21.8c-7.8,8.2-13.5,17.9-21.2,26.3c-2.9,6.5-15.1,14-11,20.9   c16.6,5.5,36.2,2,53.6,6.6c12.2,3.1,24.1,1,36.3,5c7.4,4.2,17.9,0.9,26.2,2c24.2,3.7,48.4,6.2,72.7,2.1c2.6,3.8,1.8,8.1,2.8,12   c-11.9,3-23.6,1.1-35.2,5.7c2,0.2,2.5-0.2,3.7,0.9c-22.3,8.6-48.2,6.7-70.3-1.1c0.2-1.7,1.1-2.5,2.7-2.8c3.3,2.8,11.4-0.5,14.2-2.7   c-1.3-1.5-4.1,0.6-5.9,0.7c-6.2-3.7-17.4-2-23.2,2.4c-27.8,2.4-54.8,12.4-82.9,8.1c-3.7,0.3-7.3-1.5-11-0.3c-1.5,0.3-4,0.9-4.6-1   c7.8-11,17.5-27.9,10.2-41c-4.6-5.6-12.2-8.1-16.3-13.7c10.9-24.5,29.4-42.9,50.2-59.2c0.4,0.4,0.8,0.9,1.2,1.4   c2.1-0.4,2.1-0.5,3.3-1.9c-1.3,0-2.4,0.3-3.3-0.7c3-3.6,8.1-3.1,12.3-4.4C446.9,442.4,451.1,445.9,455.2,449.3z M403.9,530.9   c0.5-0.9,1.9-0.8,1.6-2.1c-0.1-0.3,0.2-0.8,0.3-1.2c1.5-0.4,3.1-0.5,4.3-1.6c-2.7,0-5.4,0.1-7.5,2.1c0.1,2.2-2.8,2.6-2.7,4.7   c-0.9,0.5-1.8,1-1.9,2.5c1.2-0.7,2-1.3,1.9-2.5c0.4,0.2,0.9,0.4,1.4,0.6C402.2,532.6,403.1,531.8,403.9,530.9z M437.4,444.9   c-0.1-1.4-2.4-0.9-2.4,0.4C435.8,445.6,436.7,445.7,437.4,444.9z M469.1,534.1c0.3,0.8,0.7,1.3,1.7,1.2c0-0.3,0.1-0.6,0.2-1.1   C470.2,534.2,469.7,534.2,469.1,534.1c-0.5-1.3-4.4-4.4-4.9-2.2C465.7,532.9,467.1,534.2,469.1,534.1z M439,445.4   c0.6,0.9,2.2,0.9,3.2,1.5c0.7-0.8,1.8-1.2,1.8-2.5c-0.5-0.5-1.2-1.1-1.8-1.6C440.5,442.4,436.3,443.7,439,445.4z M488.9,538.8   c-1.1-1.9-22.2-3.9-15.9-0.1c0.7,4.9,7.6,1.6,10.9,3.2c1.4-0.1,3-0.3,4.2-1.2c1-1,2.8-0.5,3.9-2.2   C490.8,538.7,489.8,538.7,488.9,538.8z M398.4,542.5c2.8-3.4,4.8-7.7,8.3-10.7c0.8-0.9,1.4-1.1,0.6-2.5   C403.1,533.1,399.7,536.9,398.4,542.5z M457.6,469.9c3.1,1.8,5.1,3.9,7.9,5.2C465.1,473.3,459.6,467.7,457.6,469.9z M498.4,536.9   c-2-0.5-5-0.9-6.1,1C496.7,538.3,497.4,538.2,498.4,536.9z M519.8,549.5c-2.7-0.5-4.6,0.2-6.8,1.7   C515.7,551.4,517.6,550.9,519.8,549.5z M526.9,549.6c-1.9-0.4-3.6-0.6-5.3,0.7C524.7,551,525.7,550.9,526.9,549.6z M470.1,480.7   c-0.3-2.2-0.8-2.6-2.6-2.6C468.1,479.2,468.9,480.1,470.1,480.7z M528.6,550c0,0.2,0,0.5,0,0.7c1,0.5,1.9,0.3,3.1-0.7   C530.4,550,529.5,550,528.6,550z M475.3,488.1c0.6-0.5,0-1.1-0.1-1.7C473.9,486.4,474.6,488,475.3,488.1z M402.6,521.5   c-0.9-0.6-1.4-1.4-2.5-0.9C400.6,521.5,401.3,521.9,402.6,521.5z M537.3,551c-1.1-0.7-2-0.7-2.9-0.1   C535.3,551.6,536.1,551.4,537.3,551z M472.7,482.1c-0.4,1.6-0.3,1.7,1.2,1.6C473.5,483.2,473.1,482.7,472.7,482.1z" />
	<path fill="#B28C7D" d="M288.2,575.6c-0.4,3.3,1.1,7.6-0.7,10.5c-0.8-0.2-1.6-0.4-2.5-0.6c-2.7,1.3-5.7,2.8-6.7,5.9   c-1.1,0-2.3,0-3.2,0c-1.1-0.9-0.7-1.8-0.7-2.5c2.2-1.7,4.3-3.3,6.6-5c0-0.7,0.1-1.5,0.1-2.2c1-0.5,1.6-1.5,2.6-2.6   c-9.9,8.1-23.9,8.3-36.3,11.1c-0.2-0.2-0.4-0.4-0.6-0.7c0-0.1,0-0.3,0-0.5c0.9-0.3,2.1,0.2,2.6-0.7l0-0.2c0.5,0.1,1,0,1.6-0.1   c1-1.3,3,0.3,3.7-1.1c4.2-3.3,8.7-2.2,13.3-5.3c-3.3,0.1-5.4,1.6-8.7,1.3c0-0.2,0-0.4,0-0.5c4.2-2.7,9.2-4,13.5-6.5   c2.3-2,4.3-2.2,7.2-1.8c-0.8-0.4-1.5-0.7-2.3-1.1c0.9-3.9,3.9-7.3,3.9-11.5c0.7-4.6,0.1-10.1,2.6-14.1c2-13.3,3.7-26.5,5.4-39.8   c1.9,0.8,1.1,2.4,3.1,3c0.1-5,0.6-9.5-1.1-13.9c0.7-0.7,0.2-2,1.3-2.5c0.4,0.3,0.7,0.6,1.2,0.9c0.1-1.3,0-2.1,0.8-3.1   c1.6,1.3,2.6,6.7,4.3,5.7c-0.4-17.3-8.8-8-0.8-33.3c1.2,1.2,2.2,2.2,3.4,3.4c0.6-7.1-2.5-14.5,0.9-21.2c2.2,2,4.6,5.8,7.8,4.9   c-7.7-16-3.2-22.3,2.1-37.2c21.7-11.7,35.1,25.7,28.2,42.2c-2.5-5.7-12.8-9.9-14.4-1.4c-3.3,13-10.7,24.5-16.1,36.7   c-0.3-0.7-0.6-1.3-1.2-2.4c-2.2,7.7,1.5,15.9-2.1,23.4C298.9,533.1,290.7,553.8,288.2,575.6z M299.1,500c-1.1,1.3-1.1,1.3,0,2.3   C299.4,501.4,299.3,501,299.1,500z M298.4,505.4c0-0.6,0-1,0.1-2.1C297.7,504.7,297.1,504.5,298.4,505.4z M308.6,487.7   c0.7-1,0.9-1.5,0-2C308.6,486.3,308.6,486.7,308.6,487.7z M309.1,483.6c-0.1-0.2-0.1-0.3-0.2-0.5c-0.3,0.1-0.2,0.4-0.1,0.8   C308.8,483.8,309,483.7,309.1,483.6z" />
	<path fill="#E6CCBB" d="M379.5,561.7c-7.6,16.7-24.9,9-34.7-1.2c-4.9-7.5-7.7-16.1-10.9-24.5c-6.9-13.5-19.7-24.1-23.5-39.6   c3.4-10.2,9.7-18.9,13.8-28.7c1.8,0.3,3.5-0.3,5.2-0.6c-1.4,4.9,2.9,9,3.5,13.6c2.5,3,5.8,4.1,8.4,6.9c-2.4,1.8-4.3,2.1-7,1.5   c-0.9,7,8.5,4.1,10.7,9.4c-1.8,2.2-4.3,1.3-6.7,1.7c0.8,13.2,9,23.6,11.1,36.4c5.9,5.8,10.8,12.5,16.9,17.9   C370.8,556.8,375.9,558.5,379.5,561.7z M332.8,493.7c-0.7,2,0.6,4.3,2.6,3.3C334.6,496.1,333.9,495.1,332.8,493.7z M335,486.7   c-1.5-2.3-2.5-3-4.1-2.9C331.9,485.1,333,486.1,335,486.7z M335.6,486.3c0.6,1.3,1.7,1.5,3.2,1.9   C337.9,486.6,337.2,485.9,335.6,486.3z M339,497c0.5,0.5,0.8,0.7,1.2,1.1C340.6,496.8,340.6,496.8,339,497z" />
	<path fill="#D69479" d="M384.2,559.8c1.9,3.3,6.9-0.7,9.8,0.8c30,5.3,59-4.6,88.7-7.6c5.8-4.3,17-6.1,23.2-2.4   c-0.4,0.9-2.2,0.4-2.2,2c0.7,0,1.5,0,2.2,0c-2.4,1.3-6,2-8.3,0.1c-1.6,0.3-2.5,1.1-2.7,2.8c22.1,7.8,48,9.7,70.3,1.1   c-1.2-1.1-1.6-0.6-3.7-0.9c11.6-4.7,23.4-2.7,35.2-5.7c0.3,1.6,0,3-1.1,4.6c-24.8,3.7-47.7,16.8-73.4,13.9   c-13.3,0.3-25.1-8.4-38.5-6.5c-36.9,7.3-74.8,13.1-112.5,10.9C376.4,569.3,379.6,564.1,384.2,559.8z" />
	<path fill="#F7EFD0" d="M584.8,531.5c-0.5-0.4-0.9-0.8-1.5-1.3c1.8-3.8,5.5-7.2,8.8-9.7c2.7-0.1,5.5,4.8,7.7,2.2   c-0.3-1.7-1.8-2-2.6-3c1-1.9,3.4,0.6,4.5-1.7c-0.7-2.2-3.2-1.7-4.9-2.9c0.2-0.5,0.4-1.1,0.6-1.6c1-0.3,1.9,0.2,2.9,0.1   c1-0.1,1.5-1.7,0.4-2.1c-1.6-0.9-2.5,0.1-3.4-2.2c1.4-0.2,5.4,0.5,3.9-2.1c-1,0-2,0-3.2,0c0-0.5,0-1,0-1.6c0.9-0.2,1.9-0.5,3-0.8   c0.1-0.5,0.2-1.1,0.3-1.9c-1.5,0.1-2.5,0-3.9-0.5c-0.9-6.5-5-16,4.2-17.6c2.4,0.7,4.6,1.9,6.3,3.7c3.9,12.3,14.5,17.4,10.3,32.6   c-0.9,0.9-2.3,1.2-2.5,2.7c7.5,8.9,9.7,21.4,4.8,32c-7.2-0.7-14.3-0.2-21.4,0.7c-1.2-1.6,1.3-3.9,2.2-5.2l0,0   c6.1-6.3-0.4-13.9-6.4-17c-2.2-0.8-4.2-2.3-6.9-1.6C586.9,533.1,585.9,532.1,584.8,531.5z" />
	<path fill="#D69479" d="M406.7,522.9c-11.1-2.8,16.9-27.6,19.2-34c2.9-5.2,7.6-9.2,11.3-13.8c5.9-6.1,5.1-14.9,9-21.8   c2.6,2.5,2.5,5.9,2.5,9.1c-1.8,1.9-1.2,3.5,0,5.4c-0.3,1.5-1.6,2.3-2.2,3.6c-0.3-0.2-0.4-0.4-0.6-0.5c0.5-2,1.4-3.7,0.4-5.9   c-2.6,11.1-10.9,19.7-14.1,30.6c-3.6,9.1-5.9,19.6-11.8,27.5c-5,1.5-9.6-0.3-14.6-1.8C406.3,522.2,406.5,522.6,406.7,522.9z" />
	<path fill="#D69479" d="M449.9,468.9c-1.2,26.3,25,40.5,42.6,55.1c-0.5-1.3-1.1-2.6-1.6-3.9c5.4,0.2,11,9.3,15.2,12.8   c-1.8,1.1-5,0.8-7.1,0.3c-8.9-4.9-15.7-13.5-24.5-19.1c-13.9-8.9-30.4-21.3-30.4-39.1c0.4,0.1,0.8,0.2,1.2,0.3   C446.8,473.1,448.3,471,449.9,468.9z M446.3,476.8c1.3-1,1.3-1,0.9-2.3C446.9,475.5,445.7,475.4,446.3,476.8z" />
	<path fill="#B18B7C" d="M315,513c-2.7,10.9-12.2,21.1-10.3,32.5c0.6-0.6,1.1-1,1.7-1.5c0.3,0.4,0.6,0.9,0.9,1.3c0,1.1,0,2.3,0,3.4   l0,0c-2.1-0.4-5,0.7-6.6-0.7c0.1-0.6,0.9-1.4-0.6-1.7c-0.2,0.8-0.5,1.6-0.8,2.4c-0.9,0-1.8,0-2.7,0c2.7-17,13.4-32.2,13.9-49.3   C310.7,504.3,313.8,508.4,315,513z M299.3,544c1,0.4,1.3,0.5,1.5,0.5C301.4,543.3,300.5,543.5,299.3,544z" />
	<path fill="#EADCB8" d="M599.2,556.5c7.2-0.9,14.3-1.4,21.4-0.7c4.9-10.5,2.7-23-4.8-32c0.2-1.6,1.6-1.9,2.5-2.7   c4.1-15-6.4-20.4-10.3-32.6c23.2,20.8,8.4,36,17.6,45.7c-1.2,7.9,5,18.4-3.8,23.7c-7.1-1.7-14.2,0-21.1,1.1   C599.8,558.5,599.3,557.6,599.2,556.5z" />
	<path fill="#0B0807" d="M444,478.3c0.3,0.6-0.3,1.5,0.6,2c6.2,25.3,34,32.6,49.7,50.5c-0.6,0.2-1.8,1.8-2.3,0.7   C478.3,512.9,443.2,504.9,444,478.3z" />
	<path fill="#F3EBCD" d="M512.9,533.8c2.2-3.3,4.2-6.2,5-9.8c4.6,1.7,7.3,6.4,9.7,10.6C522.7,534.3,518,534.1,512.9,533.8z" />
	<path fill="#B08B7C" d="M325,466.4c1.1-4.3,1.5-9.5,3.9-13.1c2.7,2.2,4.5,5.2,7.4,7.3C333.2,463.3,329.4,466.6,325,466.4z" />
	<path fill="#967164" d="M336.3,460.6c-2.9-2-4.7-5-7.4-7.3c0.9-1.4,2.7-1.3,3.9-2.3c0-0.3,0-0.6-0.1-1c2.6,1.9,6.5,2.9,7.8,6.5   C339.5,458.2,338.2,459.7,336.3,460.6z" />
	<path fill="#AC8879" d="M600.6,550.6c-0.6,0.2-1.3,0-1.9,0c-0.3-4.7-2.5-8.9-2.6-13.6C601.8,538.6,603.2,545.7,600.6,550.6z" />
	<path fill="#271F1C" d="M336.3,460.6c6.8-3,5.9-11,5.8-17.2c1.1,2.2,0.3,4.8,0.6,7.2c0.9,1.7,0.6,3.4-0.1,5.1   c-4.5,5.5-10.7,12.2-18.3,12c0.2-0.4,0.4-0.9,0.7-1.4C329.4,466.6,333.2,463.3,336.3,460.6z" />
	<path fill="#211917" d="M444,478.3c-0.7,0.2-0.5,0.9-0.7,1.5c-0.3-0.4-0.6-0.9-1-1.5c-1.7,2.3-2.8,4.9-4.2,7.3   c-0.2-0.4-0.4-0.8-0.6-1.3c3.2-6.3,7.3-12.2,8.9-19.1C448.4,470,442.4,473.6,444,478.3z" />
	<path fill="#191513" d="M600.6,550.6c2.4-4.7,1.4-9.5-2.6-12.9c0-0.3,0-0.6,0.1-0.9c5.3,3,8.1,9.8,3.3,14.6   C601.1,551,600.9,550.8,600.6,550.6z" />
	<path fill="#251A16" d="M379,565.1c-1.8,2.6-3.7,5.1-6.6,6.6c-0.3-0.2-0.5-0.5-0.8-0.8c2.6-1.9,4.4-4.5,6.6-6.7   C378.4,564.5,378.7,564.8,379,565.1z" />
	<path fill="#917568" d="M512.6,527.1c2.9,1.6-0.7,4.4-1.2,6.4c-0.9,0.1-1.8,0.2-3.2,0.4C510.5,531.7,512.2,529.8,512.6,527.1z" />
	<path fill="#896559" d="M598.7,550.6c0.5,0,0.9,0,1.4,0.1c-0.2,1-0.6,1.9-1.9,2.4C598.4,552.1,598.5,551.3,598.7,550.6z" />
	<path fill="#D69479" d="M596.7,549.3c-1.1-1.1-0.4-2.7-0.5-4.2C596.9,546.4,596.7,547.9,596.7,549.3z" />
	<path fill="#271F1C" d="M324.3,467.7c-0.2,0.2-0.4,0.5-0.6,0.7C323.9,468.2,324.1,468,324.3,467.7z" />
	<path fill="#191513" d="M601.4,551.3c-0.2,0.2-0.4,0.5-0.7,0.7C600.9,551.8,601.2,551.5,601.4,551.3z" />
	<path fill="#393B3A" d="M599.4,557.7c0.2,0.2,0.3,0.5,0.5,0.8C599.8,558.2,599.6,558,599.4,557.7z" />
	<path fill="#393B3A" d="M600,558.5c0.2,0.2,0.4,0.4,0.7,0.6c-0.2,0-0.5,0-0.8,0C599.9,558.9,599.9,558.7,600,558.5z" />
	<path fill="#F5DDCE" d="M329.6,467.1c2.9-2,5.7-3.9,8.6-5.9c3.2,2.5,4.2,6.9,8.5,8.3c3.1,3.6,7.9,3.3,12,1.6c2.1,2,4.6-0.3,6.6-1.4   c-2.1,12.1,1.3,23.8,8.5,33.5c-2.3,1.7-3.8,4.3-5.7,6.4c2.3,0.4,5.4-4.2,5.7-6.5c5.6,7.9,17.2,11.2,21.2,19.7   c1.3,14.5-6.5,28-15.3,38.9c-3.6-3.2-8.7-4.9-13.1-7.3c-6-5.4-10.9-12.1-16.9-17.9c-2.1-12.8-10.4-23.2-11.1-36.4   c2.4-0.4,4.9,0.5,6.7-1.7c-2.2-5.2-11.6-2.4-10.7-9.4c2.7,0.6,4.7,0.3,7-1.5c-2.6-2.8-5.9-3.9-8.4-6.9   C332.5,476.1,328.1,471.9,329.6,467.1z M373.2,511.9c0.7-0.7,1.7-1.3,1.8-2.9c-2,1-1.8,2.5-3.2,3.7   C372.8,513.3,372.9,512.5,373.2,511.9z M382.4,530.7c2.6,0.2,6.2,0.2,8.1-1.5c-0.6-0.9-1.3-1-2.1-0.9c-3.3,0.2-6.4-1.1-9.7-0.7   c-2.1-0.6-4-1.2-5.7,0.5c-0.6,0.2-1.5,0.3-1,1.2C375.4,529.8,378.8,531.5,382.4,530.7z M341.9,506.3c2.5,0.3,3.9-0.1,5.5-1.1   C345.4,502,338.1,501.5,341.9,506.3z M344.2,487.6c-0.7-1-1.6-0.6-0.9,0.4C343.5,487.9,343.7,487.8,344.2,487.6z" />
	<path fill="#553D33" d="M429.5,444.7c0.9,1,2,0.6,3.3,0.7c-1.2,1.5-1.2,1.5-3.3,1.9c-0.4-0.4-0.8-0.9-1.2-1.4   C428.6,445.5,429.1,445.1,429.5,444.7z" />
	<path fill="#977264" d="M302.5,446.7c-2.3,5.4-2.1,11.9-0.6,17.7c-1,0.7-1,1.1,0,1.9c0,0.4-0.1,0.8-0.2,1.5   c-1.2-1.2-2.3-2.3-3.4-3.4c-3.6,12.3-5,16.1,0.4,27.7c-0.4,0-0.8,0.1-1.3,0.1c0,1.4,0,2.5,0,3.7c-0.8-1.3-1.6-2.5-2.5-4   c-0.9,1-0.7,1.8-0.8,3.1c-0.4-0.3-0.8-0.6-1.2-0.9c-1.1,0.5-0.6,1.8-1.3,2.5c1.8,4.4,1.2,9,1.1,13.9c-1.9-0.6-1.2-2.3-3.1-3   c-1.8,13.2-3.5,26.5-5.4,39.8c-2.5,4-1.9,9.5-2.6,14.1c0,4.3-3,7.7-3.9,11.5c-0.3,0-0.6,0-1.2,0c5.8-24.5,5-49.8,12-74.1   c0.3,1,0.5,1.7,0.9,2.6c1.3-1.9,1-4.4,0.2-6.5c4.4-15.3,5.6-32,10.2-47.3c-1.2-12,1.1-26.6,12.7-33.2c-5.3,14.9-9.8,21.2-2.1,37.2   c-1.6,0.7-4.1-0.7-5.1-2.2c1.2-0.6,0.8-1.4,0.1-3c0,1.5-0.1,2.3-0.1,3c-0.7-0.6-1.3-1.2-2-1.8c1.1-1.9,1-3.1-0.2-3.9   C302.5,444.4,302.8,445.7,302.5,446.7z M301.7,436.5c-1.3,2.3-2,5.3,0,7.8C302.1,441.6,302.1,439.3,301.7,436.5z M299.2,460.9   c0.1,1.4,0.2,2.1,0.3,2.8C300.9,463,300.9,462.9,299.2,460.9z M298.4,461.4c0.2-1.2,0.7-2.5-0.2-4.2   C297.8,458.9,297.8,460.1,298.4,461.4z" />
	<path fill="#9A7A6D" d="M259.2,582.2c0,0.2,0,0.4,0,0.5c-5.5,3.3-12.3,5.7-18.4,5.9c0-0.2,0-0.4,0-0.9   C246.8,585.5,252.9,583,259.2,582.2z" />
	<path fill="#9A7B6D" d="M278.9,546c-0.1,1.3-0.1,2.2-0.2,3.2c-3.3,0-6.4,0.3-9.5-0.9C272.6,546.8,275.1,545.9,278.9,546z" />
	<path fill="#98776A" d="M274.4,544.1c1.5,0,3-0.1,4.5-0.1l0,0c0,0.4,0,0.8-0.1,1.3c-1.5,0-3,0-4.5,0   C274.4,544.9,274.4,544.5,274.4,544.1z" />
	<path fill="#5F4D45" d="M274.4,544.1c0,0.4,0,0.7-0.1,1.1c-0.7,0.2-1.5,0.4-2.5,0.8c0.3-0.6,0.4-1,0.6-1.3   C273.1,544.5,273.7,544.3,274.4,544.1z" />
	<path fill="#493633" d="M278.8,545.3c0-0.4,0-0.8,0.1-1.3C279.7,544.7,279.7,544.7,278.8,545.3z" />
	<path fill="#31221E" d="M258,582.2c-0.5,0.1-0.9,0.3-1.4,0.5C256.9,582.1,257.4,582.1,258,582.2z" />
	<path fill="#926E60" d="M296.5,548.6c1.4,0,2.8,0.2,4.1-0.6c1.6,1.4,4.6,0.3,6.6,0.7c-2,4.2-7.4,1-10.8,2.6   C295.8,550.3,295.8,549.4,296.5,548.6z" />
	<path fill="#926E60" d="M307.3,548.7c0-1.1,0-2.3,0-3.4C308.1,546.4,308.2,547.5,307.3,548.7z" />
	<path fill="#D4C0B3" d="M298,432.9c0.2,0,0.5,0,0.7,0c-1.1,5.7,0.6,11.6-1.9,17C296.9,444,296,438.2,298,432.9z" />
	<path fill="#352B27" d="M298.7,434.9c-0.2-2.4,1.1-4.5,1.8-6.7c0.2,0.4,0.4,0.9,0.6,1.4c-0.6,2.2-0.5,4.8-1.8,6.8   C299.2,435.8,298.9,435.4,298.7,434.9z" />
	<path fill="#BDC4AB" d="M598.8,518.9c-0.5,0.2-1.3,0-1.5,0.8c-0.9-0.4-2-0.6-2.6-1.8C596.4,517.3,597.6,518.3,598.8,518.9z" />
	<path fill="#B28C7D" d="M323,404c5.5-5.9,5.3-14.2,9.3-20.9c1.5,0.5,2.9,0.9,4.4,1.4c1.4,6.7,4.2,13.3,8.6,18.5   c-2.3,17.9,7.1,21.5,15.3,34.7c-14.3-8.5-19.4-27.8-36.3-33.1C324,404,323.5,403.9,323,404z" />
	<path fill="#977264" d="M323,404c0.5,0,1.1,0,1.4,0.5C323.8,404.6,323.2,404.6,323,404z" />
	<path fill="#393B3A" d="M603.1,559c0.2-0.1,0.5-0.3,0.8-0.4C603.7,558.7,603.4,558.9,603.1,559z" />
	<path fill="#1D1816" d="M365.2,469.7c-2,1.1-4.5,3.3-6.6,1.4c6.8-2.2,8.6-9.7,9.9-15.8c2.5,3.5-1.5,9.7-3.2,13.7   c0.1,0.1,0.3,0.2,0.5,0.3C365.6,469.4,365.4,469.5,365.2,469.7z" />
	<path fill="#BEAB9C" d="M365.8,469.3c-0.1-0.1-0.3-0.2-0.5-0.3c0.5-2.1,2.1-3.9,3-5.9c0.1,0.5,0,1.2,0.7,1.4   C368.3,466.3,367.2,467.9,365.8,469.3z" />
	<path fill="#966E61" d="M247.3,590.1c10.8-2.5,22.2-3.1,32.2-7.9c-2.4,5.5-10.9,5.2-16.2,6C258,587.8,252.7,592.2,247.3,590.1z" />
	<path fill="#31221E" d="M249.3,587.3c3.3-1.6,6.9-2.4,9.9-4.6c3.2,0.2,5.3-1.2,8.7-1.3c-3.9,3-7.9,1.6-11.6,4.4   c-1.6,1.4-3.7,1.2-5.4,2.1c-0.4-0.4-0.7-0.3-0.9,0.1c-0.2,0-0.4,0-0.7,0C249.3,587.8,249.3,587.6,249.3,587.3z" />
	<path fill="#382723" d="M280.2,581.5c1.5-2,1.5-2,3.4-2.5c-1,1.1-1.6,2-2.6,2.6C280.7,581.5,280.5,581.5,280.2,581.5z" />
	<path fill="#9A7A6D" d="M249.3,588.2c-0.3,0.6-0.8,0.6-1.4,0.5C248.4,588.5,248.8,588.4,249.3,588.2z" />
	<path fill="#9A7A6D" d="M246.7,588.8c0,0.1,0,0.3,0,0.5c-0.1-0.1-0.3-0.2-0.4-0.3C246.4,589,246.5,588.9,246.7,588.8z" />
	<path fill="#4A4039" d="M240.4,586.7c0-0.5,0-0.7-0.1-1.1c1.1,0,2.1-0.1,3.4-0.1C242.3,586.4,242.3,586.4,240.4,586.7z" />
	<path fill="#8F6E60" d="M365.7,381c0.5-0.2,1-0.4,1.5-0.7c0,0.2,0.1,0.3,0.3,0.3c-0.1-0.1-0.2-0.2-0.3-0.3c0.1-0.7,0.6-1.2,1.4-1.3   c0.1,0.1,0.2,0.3,0.3,0.4c0.1-0.1,0.1-0.3,0.2-0.5l0,0c0.7,0.1,1.6-0.4,2.1,0.6c0,0.5-0.1,1-0.2,1.5c-1.5,1.3-3.2,1.1-4.9,0.9   C365.9,381.6,365.8,381.3,365.7,381z" />
	<path fill="#86695C" d="M367,387.4c0.1-1.2-1.2-1.7-1.6-2.7c-0.2-0.5,0.1-1.2-0.4-1.8c1.6,0,3.2,0,4.8,0c1.9,3.7-1.6,2.1-2.2,4.3   C367.5,387.4,367.3,387.4,367,387.4z" />
	<path fill="#1A1615" d="M352,394.2c0.4,0,0.8,0,1.3,0C352.8,394.9,352.4,394.9,352,394.2z" />
	<path fill="#432D28" d="M366.4,357.9c-0.6,0.4-1.2,0.9-1.8,1.4c-0.7-0.2-1.8,0.4-2.1-0.8c1.7,0.6,3-1.3,4.5-2   C367.1,357,367.2,357.6,366.4,357.9z" />
	<path fill="#926B5E" d="M278.2,591.3c1-3.1,4-4.6,6.7-5.9c0.9,0.2,1.7,0.4,2.5,0.6c-0.5,0.3-0.9,0.7-1.4,1.1   c-0.3-0.3-0.5-0.5-0.7-0.8C282.5,587.3,281.2,591,278.2,591.3z" />
	<path fill="#070505" d="M343.3,344.7c1.5,1.7,0.4,3.6-0.2,5.6c0.1,0.1,0.2,0.3,0.4,0.6c-2.5,2.9-5,12.8-9.4,10.9   C336.9,356,339.7,350,343.3,344.7z" />
	<path fill="#1B1513" d="M362.5,358.5c0.3,1.3,1.4,0.6,2.1,0.8c-0.5,0.5-1,1.1-1.5,1.6c-0.2,1.2-0.1,2.7-1.2,3.7   c-0.5,0-1-0.1-1.4-0.1c-0.1-0.7,0.1-1.5-0.6-2c-0.4-1.4-2.4-0.5-2.1,0.6c-0.6-0.2-1.3-0.5-1.9-0.7c0.2-0.4,0.4-0.8,0.6-1.2   c1.6-0.7,3.5-0.8,5-2c0-1.3-0.7-1.4-1.7-1.4v0c0.4-0.4,0.8-0.9,1.2-1.2C362.1,357,362.5,357.7,362.5,358.5z" />
	<path fill="#19110F" d="M353.8,356.6c1.8-4.3,6.1-5.5,10-3.2c0.7,0.2,0.9,0.8,0.3,1.8C360.3,354,357.1,353.8,353.8,356.6z" />
	<path fill="#4D3A34" d="M367.1,375.7c-2.6,1.1-3.5-2.8-1.9-3.9c0.6,0.5,0,0.8,0,1.2s0,0.6,0,1.1   C365.8,374.6,366.4,375.1,367.1,375.7z" />
	<path fill="#5B4B43" d="M360.5,364.5c0.5,0,1,0.1,1.4,0.1c0.1,0.3,0.2,0.6,0.3,1c-0.4,0.4-1,0.9-1.6,1.5c-0.5-0.3-0.9-0.5-1.7-1   c0.8-0.3,1.3-0.4,1.8-0.6C360.7,365.2,360.6,364.8,360.5,364.5z" />
	<path fill="#DCE2E0" d="M357.8,363.2c0-2.3,2.9-1.6,1.9,0.8C358.9,363.7,358.4,363.4,357.8,363.2z" />
	<path fill="#4D342F" d="M356.6,361.3c-0.2,0.4-0.4,0.8-0.6,1.2c-0.7,0-1.3,0-1.2-1.1C355.4,361.3,355.9,361.3,356.6,361.3z" />
	<path fill="#4D3630" d="M359.8,357.9c-0.3,1-1.1,1.5-2,1.9C357.8,358.6,358.7,357.7,359.8,357.9L359.8,357.9z" />
	<path fill="#1D1311" d="M346.5,386.9c-0.6,0.7-0.7,0.7-1.2-0.1C345.7,386.8,346.1,386.9,346.5,386.9z" />
	<path fill="#352926" d="M369.1,379c-0.1,0.1-0.1,0.3-0.2,0.5c-0.1-0.1-0.2-0.3-0.3-0.4C368.7,379,368.9,379,369.1,379z" />
	<path fill="#3B2521" d="M357.8,359.2c0,0.2,0,0.4,0,0.6c-0.1,0-0.3-0.1-0.4-0.1C357.6,359.5,357.7,359.4,357.8,359.2z" />
	<path fill="#E6CCBB" d="M367,461.2c-1.6,6.7-7.4,10.8-14.1,11.2c-6.7-0.3-10.6-6.9-14.8-11.1c1.5-1.8,3-3.6,4.5-5.4   c0,0.3,0.1,0.6,0.2,1.1c3.6,0.6,5.9,4.9,9.8,4.9C358.3,462.5,361.6,464.1,367,461.2z M357.5,469.6c-2.6,0.2-4.2-0.4-6,0.3   C351.7,471.8,356.1,471.4,357.5,469.6z M347.6,468.5c1.9,1.2,1.9,1.2,2.5,0C349.5,468.5,348.9,468.5,347.6,468.5z M347.5,466.6   c-0.6-0.7-0.8-0.8-1.4-0.2C346.5,467.1,346.7,467.1,347.5,466.6z" />
	<path fill="#0C0807" d="M301.1,429.5c-2.5-7.8,6.6-13,11.4-17.6c21.6-8.3,35,22.3,30.8,40c-1.4-7.9-1.3-16.4-4.6-24.2   C329.9,406.4,307.5,407.2,301.1,429.5z" />
	<path fill="#483A34" d="M330.4,362.5c0.4,0.2,0.8,0.4,1.2,0.6c-0.9,1.5-1,2.9-3.2,3.4C329.3,364.9,330.3,364.2,330.4,362.5z" />
	<path fill="#725950" d="M334.2,371.1c0-0.3,0.1-0.6,0.1-0.9c0.7-0.4,1.2,1.2,2,1.9c-0.9,0.1-1.5,0.1-2.1,0.2   C334.2,371.9,334.2,371.6,334.2,371.1z" />
	<path fill="#543F38" d="M332.9,364.4c0.2,0.7,0.3,1.4,0.5,2.1C331.9,366.3,331.9,366,332.9,364.4   C332.9,364.5,332.9,364.4,332.9,364.4z" />
	<path fill="#D69479" d="M473,536.8c5.3,0.2,11.1-0.8,15.9,2c-0.6,0.4-1.3,0.8-2.3,1.4c0.7,0.3,1.1,0.4,1.6,0.6   c-2.1,1.4-4.7,1.2-7,0.6c-2.7-0.4-7.9,1.4-8.1-2.7C475,538.7,474,537.6,473,536.8z" />
	<path fill="#DB977C" d="M398.4,542.5c1.3-5.5,4.8-9.4,8.9-13.2c0.8,1.4,0.2,1.6-0.6,2.5C403.1,534.7,401.2,539,398.4,542.5z" />
	<path fill="#D69379" d="M439,445.4c-2.6-1.7,1.5-3,3.2-2.6c0.6,0.6,1.3,1.1,1.8,1.6c0,1.4-1,1.7-1.8,2.5c-1-0.4-2-0.8-3-1.1   c0.5-0.1,0.9-0.3,1.7-0.5C439.9,444.4,439.3,444.5,439,445.4z" />
	<path fill="#664639" d="M444.1,475c0.1-1.6,1-2.8,1.8-4c0.1,0.1,0.3,0.2,0.6,0.5c0.7-1.3,1.9-2.1,2.2-3.6c0.8-0.1,1.2,0.2,1.2,1   c-1.5,2.1-3,4.2-4.6,6.4C444.9,475.2,444.5,475.1,444.1,475z" />
	<path fill="#261915" d="M505.9,552.6c-0.7,0-1.4,0-2.2,0c0-1.6,1.7-1.1,2.2-2C514.4,547.9,512.9,550.9,505.9,552.6z" />
	<path fill="#291814" d="M457.6,469.9c2-2.2,7.5,3.4,7.9,5.2C462.7,473.8,460.7,471.6,457.6,469.9z" />
	<path fill="#CB8D74" d="M401.3,533.5c-0.4-0.2-0.9-0.4-1.4-0.6l0,0c-0.1-2.1,2.8-2.5,2.7-4.7c1.1,0,2.2-0.1,3.2-0.5   c-0.5,1,0,2.3-1.3,2.5c-0.3-0.2-0.5-0.5-1-0.8C402.8,530.9,401.4,531.8,401.3,533.5z" />
	<path fill="#190806" d="M498.4,536.9c-1.1,1.2-1.8,1.4-6.1,1C493.5,536,496.4,536.5,498.4,536.9z" />
	<path fill="#553129" d="M405.9,527.7c-1,0.4-2.2,0.5-3.2,0.5c2.1-2,4.8-2.1,7.5-2.1C409,527.1,407.4,527.2,405.9,527.7z" />
	<path fill="#402620" d="M519.8,549.5c-2.2,1.4-4.1,1.9-6.8,1.7C515.2,549.7,517.1,548.9,519.8,549.5z" />
	<path fill="#46261F" d="M526.9,549.6c-1.2,1.3-2.2,1.4-5.3,0.7C523.3,549,525,549.1,526.9,549.6z" />
	<path fill="#36211C" d="M469.1,534.1c-2,0.1-3.3-1.2-4.9-2.2C464.7,529.8,468.5,532.9,469.1,534.1L469.1,534.1z" />
	<path fill="#4C332A" d="M488.1,540.8c-0.4-0.1-0.8-0.3-1.6-0.6c2.1-1.5,2.9-1.5,5.5-1.6C491,540.3,489.2,539.8,488.1,540.8z" />
	<path fill="#593D32" d="M448,466.4c-1.3-1.1-0.2-2.9,0.6-4C450.3,463.4,448.3,465.2,448,466.4z" />
	<path fill="#986E5C" d="M401.3,533.5c0.1-1.7,1.5-2.5,2.3-4.1c0.4,0.3,0.7,0.6,1,0.8C403.5,531.3,402.5,532.4,401.3,533.5z" />
	<path fill="#3B2821" d="M470.1,480.7c-1.2-0.6-2.1-1.4-2.6-2.6C469.4,478.1,469.8,478.6,470.1,480.7z" />
	<path fill="#3C2F27" d="M473,536.8c1,0.8,2,1.9,0,1.9C471.8,538.1,470.9,536.3,473,536.8z" />
	<path fill="#3E0E0C" d="M528.6,550c0.9,0,1.9,0,3.1,0c-1.2,1.1-2.2,1.3-3.1,0.7C528.6,550.5,528.6,550.3,528.6,550z" />
	<path fill="#5F3F35" d="M475.3,488.1c-0.7,0-1.4-1.7-0.1-1.7C475.2,486.9,476,487.5,475.3,488.1z" />
	<path fill="#CB8D74" d="M400,532.8c0,1.2-0.7,1.9-1.9,2.5C398.2,533.9,399.1,533.3,400,532.8L400,532.8z" />
	<path fill="#251F1A" d="M437.4,444.9c-0.7,0.8-1.6,0.7-2.4,0.4c0-0.9,0.6-0.9,1-1.1C436.5,444.4,437,444.6,437.4,444.9z" />
	<path fill="#613C32" d="M402.6,521.5c-1.3,0.4-2,0-2.5-0.9C401.2,520.1,401.8,520.9,402.6,521.5z" />
	<path fill="#553A31" d="M469,534.2c0.6,0,1.2,0,2,0.1c-0.1,0.5-0.1,0.8-0.2,1.1C469.8,535.5,469.3,535,469,534.2L469,534.2z" />
	<path fill="#38251F" d="M537.3,551c-1.2,0.5-2.1,0.6-2.9-0.1C535.3,550.2,536.2,550.3,537.3,551z" />
	<path fill="#321A16" d="M439,445.4c0.4-0.8,0.9-0.9,1.9-0.2c-0.7,0.2-1.2,0.4-1.7,0.5C439,445.6,439,445.5,439,445.4z" />
	<path fill="#2E1915" d="M472.7,482.1c0.4,0.6,0.8,1.1,1.2,1.6C472.4,483.9,472.3,483.7,472.7,482.1z" />
	<path fill="#D69379" d="M437.4,444.9c-0.4-0.2-0.9-0.5-1.4-0.7C436.7,444.1,437.3,444,437.4,444.9z" />
	<path fill="#CB8D74" d="M404,530.9c0.2-0.2,0.4-0.4,0.6-0.6C404.4,530.5,404.2,530.7,404,530.9z" />
	<path fill="#CB8D74" d="M403.3,531.5c0.2-0.2,0.4-0.4,0.6-0.6C403.7,531.1,403.5,531.3,403.3,531.5z" />
	<path fill="#281F1B" d="M297.3,496c0-1.2,0-2.4,0-3.7c0.5,0,0.9-0.1,1.3-0.1c0.5,1.9,1,3.7,0.4,5.6   C297.7,498.5,297.6,496.9,297.3,496z" />
	<path fill="#2F231F" d="M302.5,446.7c0.2-1,0-2.3,0.4-3.1c1.2,0.7,1.3,2.1,0.2,3.9C303,447.2,302.8,447,302.5,446.7z" />
	<path fill="#231714" d="M299.1,500c0.2,0.9,0.3,1.4,0,2.3C298.1,501.4,298.1,501.4,299.1,500z" />
	<path fill="#291D1A" d="M298.4,505.4c-1.3-0.8-0.8-0.6,0.1-2.1C298.5,504.4,298.5,504.8,298.4,505.4z" />
	<path fill="#241E1A" d="M301.9,466.4c-0.9-0.8-0.9-1.2,0-1.9C301.9,465.1,301.9,465.7,301.9,466.4z" />
	<path fill="#2D1E1A" d="M308.6,487.7c0-1,0-1.4,0-2C309.5,486.2,309.4,486.6,308.6,487.7z" />
	<path fill="#554039" d="M309.1,483.6c-0.1,0.1-0.2,0.1-0.4,0.2c0-0.3-0.2-0.6,0.1-0.8C308.9,483.3,309,483.4,309.1,483.6z" />
	<path fill="#9A7A6D" d="M253.2,587.4c0.4-0.2,0.9-0.4,1.4-0.6C254.3,587.5,253.8,587.4,253.2,587.4z" />
	<path fill="#9A7A6D" d="M250,588.1c0.2-0.5,0.5-0.5,0.9-0.1C250.6,588,250.3,588,250,588.1z" />
	<path fill="#473C37" d="M332.8,493.7c1,1.3,1.8,2.3,2.6,3.3C333.4,498,332.1,495.7,332.8,493.7z" />
	<path fill="#42322E" d="M335,486.7c-2-0.6-3.1-1.7-4.1-2.9C332.4,483.7,333.5,484.4,335,486.7z" />
	<path fill="#5C4F49" d="M335.6,486.3c1.6-0.4,2.3,0.3,3.2,1.9C337.3,487.8,336.2,487.6,335.6,486.3z" />
	<path fill="#6B554E" d="M339,497c1.6-0.2,1.6-0.2,1.2,1.1C339.9,497.7,339.6,497.5,339,497z" />
	<path fill="#211917" d="M443.5,480.9c0.6,0.3,0.6,0.8,0.5,1.4C443.8,481.8,443.7,481.4,443.5,480.9z" />
	<path fill="#664639" d="M446.2,469.8c0.1-0.3,0.2-0.5,0.4-0.8C446.4,469.3,446.3,469.6,446.2,469.8z" />
	<path fill="#462E26" d="M446.3,476.8c-0.5-1.4,0.6-1.3,0.9-2.3C447.6,475.8,447.6,475.8,446.3,476.8z" />
	<path fill="#211917" d="M444.6,480.2c-0.6-0.3-0.5-0.9-0.5-1.4C444.3,479.3,444.4,479.7,444.6,480.2z" />
	<path fill="#624941" d="M300.6,548c-0.4,0.2-0.9,0.4-1.4,0.6c0.2-0.8,0.5-1.6,0.8-2.4C301.6,546.5,300.8,547.4,300.6,548z" />
	<path fill="#85695E" d="M299.3,544c1.2-0.5,2.1-0.6,1.5,0.5C300.6,544.4,300.4,544.3,299.3,544z" />
	<path fill="#DFC7B7" d="M373,528.1c1.8-1.7,3.7-1.2,5.7-0.5c3.3-0.4,6.4,0.9,9.7,0.7c0.8,0,1.5,0,2.1,0.9c-1.9,1.7-5.2,1.8-7.8,1.6   c1.1-0.9,3-0.3,4-1.8c-1.7-0.4-3.1,0.1-4.4,0.9c0,0.4,0,0.6,0.1,0.8c-3.6,0.8-7-0.9-10.4-1.4c-0.3-0.6-0.1-0.9,0.4-1.1   c0.8,1.2,1.8,0.6,2.8,0.1C374.4,528.3,373.7,528.2,373,528.1z M378.1,530c1.6-0.4,2.7-0.8,4-1.7C379.4,528.4,379.3,528.5,378.1,530   z" />
	<path fill="#E7CDBC" d="M341.9,506.3c-3.8-4.9,3.4-4.4,5.5-1.1C345.8,506.2,344.4,506.7,341.9,506.3z" />
	<path fill="#60524C" d="M373.6,503.2c-0.3,2.3-3.4,6.9-5.7,6.5C369.9,507.6,371.4,504.9,373.6,503.2L373.6,503.2z" />
	<path fill="#4F3E39" d="M382.4,530.7c0-0.2,0-0.4-0.1-0.8c1.3-0.8,2.6-1.3,4.4-0.9c-1,1.6-2.8,0.9-4,1.8   C382.7,530.7,382.5,530.7,382.4,530.7z" />
	<path fill="#92847B" d="M372.8,511.6c0.3-1,0.9-1.9,2.2-2.5c-0.1,1.6-1,2.2-1.8,2.9C373,511.8,372.9,511.7,372.8,511.6z" />
	<path fill="#563631" d="M373,528.1c0.7,0.1,1.5,0.2,2.2,0.2c-1,0.5-2,1.1-2.8-0.1C372.6,528.2,372.8,528.2,373,528.1z" />
	<path fill="#A6968C" d="M344.2,487.6c-0.4,0.2-0.7,0.3-0.9,0.4C342.6,487,343.4,486.6,344.2,487.6z" />
	<path fill="#92847B" d="M373.2,511.9c-0.2,0.6-0.3,1.3-1.4,0.8c0.4-0.4,0.7-0.8,1.1-1.1C372.9,511.7,373,511.8,373.2,511.9z" />
	<path fill="#281D1A" d="M301.7,436.5c0.4,2.8,0.4,5,0,7.8C299.8,441.8,300.5,438.8,301.7,436.5z" />
	<path fill="#342924" d="M299.2,460.9c1.7,2,1.7,2.1,0.3,2.8C299.4,463,299.4,462.3,299.2,460.9z" />
	<path fill="#100E0D" d="M298.4,461.4c-0.6-1.3-0.6-2.5-0.2-4.2C299.1,458.9,298.6,460.1,298.4,461.4z" />
	<path fill="#231613" d="M305.2,449.3c0-0.8,0-1.5,0.1-3C306,447.9,306.4,448.8,305.2,449.3L305.2,449.3z" />
	<path fill="#362925" d="M367.1,380.3c0.1,0.1,0.2,0.2,0.3,0.3C367.2,380.7,367.2,380.5,367.1,380.3L367.1,380.3z" />
	<path fill="#312622" d="M357.5,469.6c-1.3,1.8-5.8,2.2-6,0.3C353.3,469.2,354.9,469.8,357.5,469.6z" />
	<path fill="#4A1B19" d="M347.6,468.5c1.2,0,1.9,0,2.5,0C349.6,469.6,349.6,469.6,347.6,468.5z" />
	<path fill="#806A61" d="M347.5,466.6c-0.7,0.4-0.9,0.5-1.4-0.2C346.7,465.8,346.9,466,347.5,466.6z" />
	<path fill="#49312D" d="M378.1,530c1.2-1.5,1.3-1.6,4-1.7C380.8,529.2,379.7,529.6,378.1,530z" />
</g>
<g id="a_00000122698386693000140120000011867095968179669144_">
	<path d="M295.9,99.4c-1.5,0.8-1.5-2.1-2-3.1c-0.9-0.7-1.8-1.4-2.8-2.2c-0.6,0-1.4,0-2.3,0c-0.3-0.9-0.7-1.8-1.1-2.8   c-5.2-2.9-1.4-4.6-2.3-8.3c-1.8,0-2.6,1.2-3.6,2.5c-1.7-2-0.6-3.9-1.5-6.2c-0.3-1.5,0.8-2.9,1.6-4.2c-0.2-0.3-0.4-0.7-0.6-1   c-1.8,0.5-2.2,2.5-3.8,3.2c-1.9-3.1-1.9-4.6-0.1-8c-0.1-0.9-0.2-1.7-0.4-2.5c1-1.4,2.7-0.7,3.2-2.9c-1.3,1.2-2.5,0.9-3.3,2.1   c-0.4,0-0.8,0.1-1.6,0.2c0.5-1,0.8-1.7,1.2-2.3c-0.4-3.5,0.9-6.4,3.5-9c0.2-1.7,0.5-3.5,0.9-5.6c-2.1,1.8-2.1,3.8-3.5,5.7   c-1.5-3.2-2.2-8.6,2.3-8.7c1.2-2.9,0.6-5.6,2.1-8.6c-0.9,0.1-1.2,1.9-2.7,0.8c-1-2.9,2.5-4.7,3.7-7.5c1-0.4,2.4-0.9,3.9-1.5   c0.5-1.9,2.3-3,2.8-5c1.7-1.1,1.6-3.5,3.3-4.6c-0.3-0.3-0.6-0.7-0.8-1c0.5-2.6,4-2.4,5.9-3.7c2.1-1.3,3.9-0.5,6.1-0.1   c-0.3-2.9,1.8-4.1,4.4-3.9c0.3-0.4,0.7-0.8,1-1.2c1.9-0.5,1.6,1.5,1.8,2.9c1.8-2.3,4.4-1.1,6.7-2.5c3-1.7,5.9-2.7,5.5,1.9   c1-0.4,0.6-1.2,0.7-1.9c1.8-1.6,6.8-3.4,6.8,0.4c0,0.6-0.7,1.2,0,1.8c-0.3,0-0.7,0-0.3,0c1.2,0,1.9-1.6,2-3.1   c2.9-1,5.1-0.6,4.8,3.2c1,0.8,1.9,1.3,3.3,1.8c0.3-0.5,0.6-1.1,0.8-1.6c2.1,0.6,3.3,1.8,4.4,3.4c-0.4,0.4-0.8,0.7-1.2,1.1   c0.2,1.5,1.7,2,2.7,3c0,0.7,0,1.3,0,2.1c-0.7-0.2-1.4-0.4-2.1-0.6c-0.3,0.3-0.8,0.7-1.2,1.1c0.9,1.6,3,1.4,3.8,3.5   c-0.8,0.6-1.5,1.1-2.1,1.6c-0.6,2.7,3.4,3.9,1.7,6.7c-0.4-0.1-0.9-0.3-1.5-0.5c-0.4,0.4-0.8,1-1.4,1.7c0.6,0.8,1.2,1.7,1.9,2.7   c-0.2,0.3-0.5,0.6-0.7,0.9c-0.9-0.2-0.8,0.6-0.8,1.3c-2.6-0.8-5.3-1.2-8-0.6c0,0.5,0,1,0,1.6c-0.8,0.6-1.7,1.3-2.4,1.9   c0.3,3.1-1.5,5.6-0.7,8.6c-0.4,0.3-0.6,0.6,0,0.9h0c-0.6,0.4-1.2,0.7-1.8,1.2c-0.3,3.7,0.4,7.5-0.2,11.1c-0.9-0.1-1.6-0.3-2.5-0.4   c0.2,1.6-0.4,3,0.3,4.2c0.6,0.1,1.2,0.2,1.7,0.3c-0.5,0.3-1,0.6-1.6,0.9c0.3,0.3,0.6,0.7,1,1c-2.4-0.1-2.1,2.6-2.8,4.1   c-1.9,3.8,2.5,6.5,4.7,9c-0.2,0.2-0.5,0.4-0.7,0.7c-0.8-0.7-1.6-1.3-2.6-2.1c-0.6,0.9-1.2,1.7-1.7,2.4c1.3,2.8,1.4,3.9,1,8   c-0.6,0-1.3,0.1-1.8,0.1c-1.9-1.6-0.6-3.2-2.6-4.8c-0.8,4.4,7.5,10.3-1.1,9.4c-1.3,1.1-0.6,16.6-3.6,14.1c0.3-2.2,0.5-4.4,0.8-6.5   c-0.6-0.4-1-0.8-1.5-1.1c1.2-0.6,0.9-1.7,0.8-2.7c0.4,0.1,0.8,0.2,1.3,0.4c0-0.8,0-1.5,0-2.1c-1.1,0.2-1.5,0.8-1.2,1.8   c-0.9-0.7-0.7-1.7-0.8-2.7c-2.3-2.1-0.6,3.3,0,4.3c-0.1,0.2-0.4,0.6-0.6,0.9c-0.6,0-1.2,0-1.9,0c-0.8-0.5-0.7-1.9-2.1-2.2   c-0.4,1.5,0.5,2.2,1.3,3c0.1,0.5,0.2,1,0.3,1.6c-0.2,0.1-0.5,0.3-0.6,0.2c-1.8-1.9-4.1-2.5-6-4.5c-0.1,0.8-0.2,1.4-0.3,2   c-0.4,0.2-0.8,0.4-1.1,0.6c-0.4-1.2-1.7-1.2-2.6-1.8c-0.1-0.5-0.2-1.1-0.3-1.6c-3.2-0.8-5.7,1.7-7.7-2.4c0.1-0.7,0.1-1.5,0.3-2.2   c0.1-0.6,1.1-0.9,0.7-1.9C296.2,95.9,296.5,97.8,295.9,99.4z M292.7,85.2c-0.4,0.1-0.7,0.2-1.1,0.4c0.4,1.4,0.3,1.9,0.2,3.7   C293.1,87.7,292.5,86.5,292.7,85.2z M282.4,48.8c0.1,0,0.2,0,0.3,0c0-0.9,0.8-3.7-1-2.5C281.9,47,282.2,47.9,282.4,48.8z    M321.7,21.2c-0.6,0.5,0,2,0.8,1.3C322.8,21.8,322.3,21.2,321.7,21.2z M325.7,85.3c0.8-0.1,1.3-1.6,0.1-1.6   C325.1,83.9,325,85,325.7,85.3z M303.1,96.5c-0.3-0.2-0.6-0.5-0.9-0.8C301.3,96.6,302.5,98.1,303.1,96.5z M315.6,22.1   c-0.9,0.1-1.4,0.2-2,0.2c0.4,0.4,0.6,0.7,0.9,1C314.8,23.1,315.1,22.8,315.6,22.1z M341.6,34.1c1.2-1.1,1.2-1.1,0.1-1.8   C341.7,32.7,341.7,33.1,341.6,34.1z M308.1,87.9c-0.1,0-0.3,0-0.4,0c0,0.4,0.1,0.8,0.1,1.3c0.1,0,0.3,0,0.4,0   C308.3,88.8,308.2,88.3,308.1,87.9z M294,19.2c0,0.1,0,0.3,0,0.4c0.5,0,1,0,1.6,0c0-0.1,0-0.3,0-0.4C295,19.2,294.5,19.2,294,19.2z    M341.8,16.4c0,0.1,0,0.2,0,0.4c0.5,0,1,0,1.5,0c0-0.1,0-0.2,0-0.4C342.8,16.4,342.3,16.4,341.8,16.4z M283.1,63.9   c0.1,0,0.1-0.1,0.2-0.2C283.2,63.3,282.7,63.7,283.1,63.9z M344,39.1c0.1,0,0.1-0.1,0.2-0.2c-0.1-0.2-0.2-0.2-0.4,0   C343.8,38.9,343.9,39,344,39.1z" />
	<path fill="#040302" d="M461.3,165.4c7.7,12.2,18.4,22.4,24.6,35.6c7.7,12.4,19.6,21.8,28.3,33.6c4.5-11.4,12.5,6.3,17.6,9.1   c19.4,4.9,38.5,2,57.7,2.8c-21.4,4.2-43.1,1.2-64.4-1.7c-9.7-2.4-21.6,2.1-30.4-2.5c-19.8-3.6-39.4-5.2-59.2-8   c-9.8-1.5-20.9,1.7-29.6-4c5.2,0,12,4.7,16.4-0.1c0.5,0.5,0.7,1,0.9,1.7c16.8-1.8,32.7,4.2,49,6c7.2-1.6,13.8,1.6,20.7,1.9   c-15.8-17.3-44.4-24.7-49.1-50.1c0.2-0.4,0.4-0.9,0.7-1.4c4.6,21.5,25.6,29.7,40.7,42.8c7.2,7.4,21.4,18.9,25.9,2.8   c-18.7-20.9-35.3-44.1-50.3-67.7C460.8,165.9,461.1,165.6,461.3,165.4z M526.9,242.9c-2-4.1-5.3-9.2-9.5-10.5   c-0.8,3.6-2.8,6.5-4.9,9.7C517.5,242.4,522.1,242.7,526.9,242.9z M512.4,235.3c-0.6,3-3.1,4.6-3.8,6.9c0.8-0.2,1.7-0.3,2.3-0.5   c1.2-1.8,2-3.5,2.7-5.4C513.2,236,512.9,235.8,512.4,235.3z" />
	<path fill="#020202" d="M592.1,264.6c-24,4.2-46.3,16.6-71.3,13.8c-20.5-3-34.5-11.6-55.7-2.6c-18.1,4.1-36.6,4.9-55.1,6   c-22.4,2.1-54.4,7.2-68.2-15.1c-5.7-8.8-6.9-19.9-13-28.3c-3.9-5-19.3-23.3-16-28.5c4.3,9.9,9.9,19.1,17.4,26.9   c12.7,21.8,10,41.5,41.5,43.7c8.6,3.3,19.6,0.8,28.9,0.4c12.5-1.7,25.2-1,37.7-2.7c37.6-4.7,40.6-13.6,79.2-1.8   c27.1,3.8,51.4-9.4,77.5-13.9c1.6-2.8,0-6.4,1.6-8.9c1.5,3.1-0.1,6.7,0.7,9.4c6.5-1,9.1-4,8.4-10.7c0.2-0.2,0.5-0.5,0.7-0.7   c3.3,9.7-4,11.6-11.3,14.4c-0.3-0.6-0.6-1.2-0.9-1.8C593.5,264,592.7,263.7,592.1,264.6z" />
	<path fill="#080605" d="M376.6,212.3c11.3-17.4,22-42.6,42.3-49.6c-18,13.2-30.6,31.1-40.5,50.9c0.8,0.9,1.7,2.1,2.6,3.3   c-0.2,0.2-0.5,0.4-0.7,0.6c-1.9-1.1-3.3-2.8-4.6-4.5C376,212.8,376.3,212.6,376.6,212.3z" />
	<path fill="#070505" d="M298.5,260.2c-0.7,0.3-1.4,0.6-2.1,1c-3.2,8-5.9,16.7-6.4,25.1c-0.2,0-0.5,0-0.7,0   c1-23.7,11.5-46.5,19.8-68.6c0.9,0.4,0.4,1.4,0.7,2c-3.7,13.5-11.3,25.7-13,39.7c0.7,0,1.3,0,1.8,0   C298.5,259.7,298.5,259.9,298.5,260.2z" />
	<path fill="#080706" d="M600.6,234.6c5.7-2.9,12-0.6,17.9-3.5c2.8-4.5,8.6-7.1,9.6-12.8c1.6,1.2-0.2,3.5-0.3,5.2   c0.5,0.9,1,1.9,1.6,2.9c-1.8,2.2-2.4,0.3-4.3-0.1c-0.3,0.6-0.6,1-0.9,1.5c1.1,0.6,1.9,1.1,2.8,1.8c-1.3,2.9-2.7,0.3-4.2-0.7   c-0.2,0.4-0.5,0.7-0.7,1c0.9,1.7,3.6,2.9,0.8,4.5c-0.8-0.7-1.7-1.5-2.6-2.2c-0.6,0.3-1.2,0.4-1.6,1.1c0.7,1.6,2.7,2.9,2.1,4.9   c-0.8,0.8-1.6,0.5-2.2-0.2c-1.2-0.8-1.8-4.4-3.4-3.5c0.6,1.9,1.2,3.7,1.8,5.7c-0.6,0.5-1,0.9-1.6,1.4c-2.1-2-1.7-5.4-4.2-7.2   c-3.5,0.4-7,0.8-10.6,1.2C600.6,235.1,600.6,234.8,600.6,234.6z" />
	<path fill="#080606" d="M344.9,40.6c0-0.2,0-0.5,0-0.7c5.4,0.1,10.2,3.4,14.4,6.4c-0.2,0.2-0.5,0.5-0.8,0.8   c-8.2-1-14.4,5.6-14.6,13.4c-1.4,1.2-1.3,3-2.3,4.2c-1.1,1.8-2.8,3.3-2.9,5.5c-2.1,2.2-4.8,0.8-6.9,0.4c0.2-0.2,0.5-0.5,0.8-0.8   c0.7,0,1.5,0.1,2.3,0.1c5.6-9.3,9.4-18.9,17.3-26.6C349.6,42.4,347.4,41.6,344.9,40.6z" />
	<path fill="#100D0C" d="M275.6,281c1.9-7.2,4.2-14.6,4-22.1c-3.2-1-11.2,1.3-10.3-3.2c2.3,0.3,1.4-2.2,3.1-2.8c0.8,0.5,1.2,2,2,0.7   c1.9,0,3.8,0,5.7-0.1c0.6-6.6,1.4-13.1,2.9-19.5c1.3,1.1,0.5,3.2,0.5,4.7c-1.9,13.9-2.2,28.1-5.8,41.7c-0.6,0.2-0.6,0.8-0.6,1.4   l0,0C276.4,281.7,275.8,281.7,275.6,281z M270.4,256.7c3.1,1.1,6,0.9,9,0.8c0.3-1.2,0.9-1.8,0.5-3   C276.4,253.7,273.7,255.1,270.4,256.7z" />
	<path fill="#120F0E" d="M283.6,236.1c-0.2-0.7,0.2-1.7-0.7-2.1c2.1-18.5,7.4-36.3,11.7-54.3c0.2,0,0.5,0,0.7,0   c-0.8,8.2-3.2,16.3-5,23.9c0.7,1.9,1.1,4.6-0.1,6.1c0-1.2-0.1-2.3-0.1-3.5c-0.1,0-0.2,0-0.3,0C286.5,215.9,285.8,226.3,283.6,236.1   z" />
	<path fill="#0A0807" d="M629.4,268c-2.8,6.2-6.1,12-12.2,15.7c-1.9,0-3.8,0-5.7,0c-3.8-3.6-7.4-7.5-12.1-9.9   c0.4-0.2,0.9-0.4,1.4-0.6c4.7,1.3,7.8,5.6,11.3,8.6c10,1,11.3-9.4,16.8-15.2C629.4,266.8,629.3,267.4,629.4,268z" />
	<path fill="#11100F" d="M644.4,220.3c6.8,30.7-12.8,30.5-13.8,44.4c-0.9-0.5-0.3-1.5-0.7-2.1c4.5-16.5,17.3-11.7,13.7-42.3   C643.9,220.3,644.1,220.3,644.4,220.3z" />
	<path fill="#1E1412" d="M275.6,281c0.2,0.7,0.8,0.7,1.4,0.8c-10.4,7.3-22.6,9.3-34,13.6c-0.4-0.8-1.3-0.4-1.9-0.5   c-0.2-0.2-0.5-0.4-0.8-0.6C251.1,289,265.3,288.9,275.6,281z" />
	<path fill="#211D1C" d="M297.1,161.7c-2.7-13.1-0.6-30.3,10.5-39c0.2,0.1,0.5,0.3,0.7,0.4c-9.3,8.6-12,23-9.9,34.9   c-0.1,0.4,0,1-0.3,1.1C297.1,159.7,297.3,160.7,297.1,161.7z" />
	<path fill="#150F0E" d="M600.6,234.6c0,0.2,0,0.5,0,0.8c-0.5,0.4-1,0.7-1.5,1.1c0.2,1.6,0,3.2,1.2,4.5c4.8,1.3,5.5,6.6,6.1,10.8   c-0.2,0.2-0.5,0.5-0.7,0.7c-0.2,0-0.3-0.1-0.5-0.2c-0.2-3.6-1-6.8-4.2-8.8c-2.2,0.8-4.2,1.5-6.3,2.2c0.6,2.8,1.8,5.3,1.9,8   c-1,0.4-0.5,1.4-0.7,2.1c-0.1-0.1-0.3-0.2-0.5-0.3c-0.1-3.2-1.1-6-2.4-9.1c-1.3,0-2.4,0-3.6,0c-0.8-0.7-1.8-0.6-2.8-0.7   c4.3-0.8,8.7-1.4,12.6-3.6c-0.6-1.9-1.2-3.6-1.8-5.3C597.8,235.3,599.1,234.5,600.6,234.6z" />
	<path fill="#1D1A1A" d="M376.6,212.3c-0.3,0.2-0.6,0.5-0.9,0.8c-9.4-9.2-10.9-22.1-10.5-34.7c0.9-0.7,1.8-1.4,2.6-2   c0.2,0.2,0.5,0.5,0.8,0.8c-0.4,0.6-0.9,1.2-1.5,2C366,191.5,368.1,202.9,376.6,212.3z" />
	<path fill="#19100F" d="M418.8,162.7c-0.2-0.6-0.7-0.6-1.2-0.6c8.1-6.2,19.4-21.1,30-11.2c-0.3,0.2-0.5,0.5-0.8,0.8   c-1.7-0.9-3.4-1.7-5-2.5c-4.9,1.3-10.5,0.9-13.2,5.7l0,0C425.5,157.6,422.3,160.4,418.8,162.7z" />
	<path fill="#1F1816" d="M319.3,112.2c0.3,1.1,0.9-0.1,1.5-0.4c0,0.7,0.2,1.2,1.1,1.2c8.7,1.5,15.6,7.8,21.2,14.4   c-0.2,0.2-0.4,0.4-0.6,0.7c-6.4-6.5-13.6-13.5-23.2-14.4c-3.2,3.2-5.8,6.9-10.1,8.6c-0.1-0.4-0.1-0.6-0.2-0.7   C312.6,118.6,315.3,114.6,319.3,112.2z" />
	<path fill="#181514" d="M298.5,260.2c0-0.2,0-0.5,0-0.7c2.3-1.6,5.2,0.3,7.7-0.8c3-0.5,2.6-5.2,0.5-6.8c-0.5,1.3-0.5,1.3-1.4,1.6   c-0.7-3.3-0.3-6.6,1-9.6c1.4,1.3,0.4,3.7,0.7,5.4c1,0.6,2,1.2,3.1,1.8c0.2,3.7,0.2,7.1-3,9.7C304.4,260.5,301.4,260.4,298.5,260.2z    M308.9,251.3c0,0-0.1-0.1-0.1-0.2c-0.2,0.1-0.2,0.2,0,0.4C308.7,251.4,308.8,251.4,308.9,251.3z" />
	<path fill="#100F0F" d="M368.6,177.2c-0.2-0.2-0.5-0.5-0.8-0.8c4-6.9,7.5-15.6,0.7-22.2c0.2-0.2,0.5-0.5,0.8-0.7   C377.5,158.8,375,171.3,368.6,177.2z" />
	<path fill="#191514" d="M297.1,161.7c0.2-0.9,0-1.9,1.1-2.5c1.1-3.8,0.9-8,1.1-12.1c1.3,2.2-0.2,5,1.2,7.2c0.3,2.8-1.2,5.4-1.7,8.1   c-1.9,5.7-1,11.9-3.5,17.4c-0.2,0-0.5,0-0.7,0C295.4,173.7,295.7,167.6,297.1,161.7z" />
	<path fill="#C6B5A9" d="M299.3,147.1c-0.4,3,0.4,6.4-0.7,9.2c-0.4-3.2,0.7-7.1-0.6-9.8c0.8-8.7,3.7-17.2,10.4-23.3   c-0.2-0.1-0.5-0.3-0.7-0.4c0.4-0.4,0.8-0.8,1.3-1.2c0,0.2,0.1,0.4,0.2,0.7c1.8-0.5,3-1.8,4.5-2.7c0.3,0.3,0.5,0.5,0.8,0.8   C304.9,126.5,299.3,135.8,299.3,147.1z" />
	<path fill="#1F1918" d="M361.8,145.1c1.4,1.7,2.7,3.4,4,5.2c-0.2,0.2-0.5,0.5-0.7,0.7c-7.3-4.4-13.7-9.6-18.3-17   c0.2-0.2,0.4-0.5,0.7-0.7C350.2,135.7,358.6,148.9,361.8,145.1z" />
	<path fill="#26201E" d="M644.4,220.3c-0.2,0-0.5,0-0.8,0c-1.3-2.5-1.6-8.9-5.1-8.5c-5.2-0.1-7.9,3.6-9.8,7.9   c-0.1-0.5,0-1.2-0.7-1.4c1.3-5.7,7.1-9.1,12.5-8C642.9,213.4,644.2,216.6,644.4,220.3z" />
	<path fill="#211D1C" d="M307.1,245.3c-0.1-0.5,0-1.2-0.7-1.5c3.1-8,8-15.6,9.1-24.2c0.7,0.7,1.1,1.9,1.9,2.6c-0.2,0-0.4,0-0.8,0   C314.2,230.2,310.8,237.9,307.1,245.3z" />
	<path fill="#23201F" d="M356.7,104.6c-10.5-2.6-8.5,11.6-9.9,18.3c-0.4,0.2-0.8,0.4-1.2,0.6c0.9-8-1.3-22.3,11.1-19.7   C356.7,104.1,356.7,104.3,356.7,104.6z" />
	<path fill="#2A2422" d="M367.2,58.8c1.9,3.7,0.9,7.2,1.1,11.1c-0.2,0.3-0.6,1.1-0.9,1.7c0.2,4.8,9.7,7.4,4.5,12.1   c-1-0.4-0.1-0.8,0-1.3c2-5.1-7.7-5.8-5.2-15.2l0,0c1.7-2.5,0-5.7-0.1-8.5C366.6,58.8,366.9,58.8,367.2,58.8z" />
	<path fill="#2A1F1C" d="M446.8,151.7c0.3-0.2,0.5-0.5,0.8-0.8c6,3.4,10.5,8.4,13.7,14.5c-0.2,0.2-0.5,0.5-0.7,0.8   C456.8,160.5,452.7,155.4,446.8,151.7z" />
	<path fill="#231E1D" d="M274,295.6c-6,2.2-12.5,2-18.6,3.7c-0.2-0.2-0.5-0.4-0.7-0.6c5.4-3.3,12.4-2.2,18.4-3.8   C273.3,295.1,273.6,295.3,274,295.6z" />
	<path fill="#3D2E2A" d="M371.9,91.1c1.1,2.7-0.3,5.2-2.9,5.7c-1.5,1.9,0,3.5-1.7,5.2c-0.1-2.2-0.4-4.4,0.5-6.5   c2.1,0.1,4.2-0.4,2.4-3.2c-2.7,0-4.8,0.4-7.5-0.9c1.7-1.2,2.3-0.2,3.8-1.1c0.1,0.3,0.1,0.6,0.2,1c1.9,0.5,3.5,0,5-1.1   C371.8,90.4,371.8,90.8,371.9,91.1z" />
	<path fill="#1D1615" d="M254.6,298.7c0.2,0.2,0.5,0.4,0.7,0.6c-3.3,0.4-15.5,0-15.1-4.5c0.2,0,0.4,0,0.7,0c0.3,0.2,0.5,0.5,0.8,0.8   c0,0.3,0,0.6,0.1,1.1c1.2,0,2.4,0.1,3.7,0.2c1.2-1.5,2.9-1.3,4.5-1.5c0.2,0.2,0.4,0.4,0.7,0.6c-1.3,0.5-1.7,0.9-3.5,1   C249.4,299.2,251.9,298.6,254.6,298.7z" />
	<path fill="#292625" d="M289.3,286.3c0.2,0,0.5,0,0.7,0c0.9,7.9,1.9,8.6-6.3,11.3c-0.3-0.2-0.5-0.5-0.8-0.7c1.2-1,2.3-2.1,3.6-3.2   c0.3,0.6,0.5,1,0.8,1.5C290.7,292.7,288.4,289,289.3,286.3z" />
	<path fill="#211A18" d="M274,295.6c-0.3-0.2-0.6-0.4-0.9-0.6c3-0.7,7.2-2,7.8-5.4c1.2,0.6,0.5,1.7,0.6,2.6   c-1.9,1.7-9.9,5.3-4.6,7.4c-0.4,0.2-0.9,0.4-1.4,0.6c-2.3-1.5-2.3-2.3-0.9-4.3C274.4,295.7,274.2,295.6,274,295.6z" />
	<path fill="#403431" d="M371.9,91.1c-0.1-1.1-0.2-1.9-0.4-3c-1.6,0.1-2.1,1.3-3.6,1.4c0.8-0.8,1.6-1.7,2.3-2.5   c-0.4-0.9-0.8-1.8-1.3-2.6c-0.4,0-0.7-0.1-1-0.1l0,0c0.2-2.8,2.1-1.9,3.9-1.9c0,0.4-1,0.9,0,1.3c-0.4,0.3-0.8,0.7-1.2,1.1   C370.8,87.1,374,88.6,371.9,91.1z" />
	<path fill="#271F1D" d="M367.3,102c0.4-0.6,0.7-1.3,1.1-1.9c1.6,6.6-7.7,6-11.6,4.6c0-0.2,0-0.5,0-0.8   C360,103.1,365.5,105.8,367.3,102z" />
	<path fill="#2D2523" d="M367.2,58.8c-0.2,0-0.5,0-0.8,0c-1.6-4.6-4.2-8.5-7.8-11.7c0.2-0.2,0.5-0.5,0.8-0.8   C363.6,49.3,365.8,54,367.2,58.8z" />
	<path fill="#2B2421" d="M600.7,273.2c-0.4,0.2-0.9,0.4-1.4,0.6c-4-1.4-8-4.4-5-8.9c-0.8-0.1-1.5-0.2-2.1-0.2   c0.6-0.9,1.4-0.6,2.2-0.4c0.3,0.8,0.9,1.5,0.9,2.4c-0.8,1-0.5,2.2-0.4,3.4C596.8,271,598.8,272.1,600.7,273.2z" />
	<path fill="#251B1A" d="M351.5,132c2.2,2.7,4.5,5.5,6.7,8.2c0,0.4-0.1,0.7-0.1,1.1c-3-2.1-4.7-5.9-7.2-8.6   C351,132.5,351.2,132.3,351.5,132z" />
	<path fill="#352D2A" d="M351.5,132c-0.2,0.2-0.4,0.5-0.7,0.7c-2.1-2.8-4.3-5.7-5.1-9.3c0.4-0.2,0.8-0.4,1.2-0.6   C347.3,126.4,349.6,129.1,351.5,132z" />
	<path fill="#533B38" d="M274.3,253.6c-0.8,1.4-1.2-0.1-2-0.7c2.1-2.1,5.1-1.8,7.8-2c0,0.5,0,1,0,1.5c-2.1-0.2-4-0.1-6,0.7   C274.2,253.3,274.3,253.4,274.3,253.6z" />
	<path fill="#515452" d="M275.5,300.1c1.2-0.7,3.1-0.8,4.3-0.9c1.2-0.9,2.1-1.7,3-2.4c0.3,0.2,0.5,0.5,0.8,0.7   C281.6,299.9,278.7,301.9,275.5,300.1z" />
	<path fill="#4A3F3B" d="M358,141.4c0-0.4,0.1-0.7,0.1-1.1c1.2,1.6,2.5,3.3,3.7,4.9c-0.2,0.2-0.4,0.4-0.6,0.7   C360.1,144.3,359.1,142.9,358,141.4z" />
	<path fill="#473E3C" d="M365.2,151c0.2-0.2,0.5-0.5,0.7-0.7c1.1,1.1,2.2,2.1,3.4,3.3c-0.2,0.2-0.5,0.5-0.8,0.7   C367,153.5,366,152.3,365.2,151z" />
	<path fill="#868B8B" d="M318.1,104.5c0.2-0.3,0.4-0.7,0.6-0.9c-0.4-1.1-0.8-2-1.1-3c0.4-0.4,0.8-0.8,1.2-1.3c0,0.9-0.1,1.9,0.8,2.7   l0,0c0.2,1.1,0.3,2.3-1.1,2.8L318.1,104.5z" />
	<path fill="#33312E" d="M629.9,262.6c0.3,0.7-0.2,1.6,0.7,2.1c0,1.3-0.4,2.3-1.2,3.3c-0.1-0.5,0-1.2-0.7-1.4   C629.1,265.3,629.5,264,629.9,262.6z" />
	<path fill="#939F9F" d="M295.9,99.4c0.5-1.5,0.3-3.5,2.2-4c0.4,0.9-0.5,1.2-0.7,1.9c-0.1,0.7-0.2,1.5-0.3,2.2   C296.7,99.4,296.3,99.4,295.9,99.4z" />
	<path fill="#A3B1B1" d="M315.5,105.2c-0.8-0.8-1.8-1.5-1.3-3c1.4,0.3,1.3,1.7,2.1,2.2C316,104.7,315.8,105,315.5,105.2z" />
	<path fill="#292625" d="M290.1,285.1c0-1.4-0.5-3,0.5-4.1C290.7,282.5,290.8,283.9,290.1,285.1z" />
	<path fill="#F7EFD0" d="M599.4,234.7c-1,0.3-1.7,1.1-1.9,2.1C597.4,234.7,597.4,234.7,599.4,234.7z" />
	<path fill="#354444" d="M307.8,105.2c0.4-0.2,0.8-0.4,1.1-0.6c0,0.5,0,1,0.1,1.5C308.1,106.2,307.8,105.9,307.8,105.2z" />
	<path fill="#494242" d="M324,10.4c0,0.7,0.3,1.5-0.7,1.9c-0.5-0.7,0.1-1.3,0.1-2C323.6,10.3,323.8,10.3,324,10.4z" />
	<path fill="#33312E" d="M630.8,263c-0.1-1-0.6-2.1,0.5-2.9C631.2,261.1,631,262.1,630.8,263z" />
	<path fill="#917367" d="M271.1,254.9c-0.3,0.8-1.1,0.7-1.8,0.8C269.5,254.7,270.3,254.9,271.1,254.9z" />
	<path fill="#A0ABAB" d="M278.2,65.8c-0.4,0.3-0.7,0.6-1.1,0.9c-0.4-1,0.2-1.6,1.2-1.7C278.2,65.3,278.2,65.6,278.2,65.8z" />
	<path fill="#C6B5A9" d="M307.2,123c-0.2,0.2-0.5,0.4-0.8,0.6C306.7,123.4,307,123.2,307.2,123z" />
	<path fill="#181111" d="M241,294.8c-0.2,0-0.4,0-0.7,0c0-0.2,0-0.4-0.1-0.6C240.5,294.4,240.7,294.6,241,294.8z" />
	<path fill="#9491A0" d="M345.7,39.7c-0.2,0-0.5,0.1-0.7,0.1c0-0.5,0.3-0.6,0.7-0.5C345.8,39.5,345.8,39.6,345.7,39.7z" />
	<path fill="#231E1D" d="M274,295.6c0.2,0,0.4,0.1,0.6,0.2c-0.1,0.1-0.2,0.2-0.3,0.3C274.2,296,274.1,295.8,274,295.6z" />
	<path fill="#B28C7D" d="M358.6,47.1c5.3,4.9,10.3,13,7.9,20.2c0-0.3-0.1-0.7-0.3-1.7c-1.1,1.2-1.8,2-2.4,2.9c-0.1,0-0.2,0-0.3,0   c-0.2-0.9-0.6-1.8-1.4-2.3c-1.8,0.7-1.8,0.7-2.7,1.9l0,0c-1.5-0.1-2.1,1.2-2,2.5c-0.7,0.1-1.5,0.3-2.2,0.4c1,0.8,1,0.8,2.6,1.4   c0.3-0.3,0.6-0.5,0.9-0.8c0.2,1.8,0.2,1.8,1.9,1.8c0.3,0.4,0.7,0.8,1,1.2c1.5-1.4,1.5-1.4,1.9-4.3c1.1-0.8,2-1.8,3-2.7   c-2.4,9.4,7.2,10.1,5.2,15.2c-1.8-0.1-3.8-0.9-3.9,1.9c-0.6-0.1-1.2-0.1-1.9-0.2c-0.1-1.1-0.2-1.9-0.3-3c-1.1,1.4-1.4,1.9-1.1,2.4   c0.8,1.2,2.3,3.7,3.2,0.8c0.3,0,0.6,0.1,1,0.1c0.4,0.8,0.8,1.7,1.3,2.6c-0.8,0.8-1.6,1.7-2.3,2.5l0,0c-0.2,0.2-0.4,0.4-0.7,0.7   c-1-0.1-1.7,0.9-2.8,0.4c-0.2-0.1-0.8,0.3-1.7,0.7c1.2,0.4,1.8,0.7,2.5,0.9c0.5,1.4,1.1,2.8,2.6,3.2h0c-0.9,2.1-0.6,4.3-0.5,6.5   c-5.1,7.3-23.6-6.5-26.7-11.8c-0.8-1.6-0.7-3.9-2.1-5.1c-0.5,0.6-1,1.3-1.4,1.8c-6.1-1.4-14.5-11.8-6.6-15.6   c0.9,1.3-0.2,1.8,0.1,3.6c0.7-1,1.1-1.6,1.7-2.4c1.2,0.9,2.4,1.7,3.2,3.1c-0.6,1.3-1.2,2.5-1.8,3.9c0.5,0.5,1,1.3,1.3,2   c-1.6-0.1-3.4-2-4.5-3.2c-0.5-1.5,1.6-0.9,1.7-1.9c-0.9-1-1.6-0.2-2.2,0.2c-2.8,2.9,2.9,4.7,4.2,6.3c1.3-0.4,2.4-0.8,3.5-1.1   c0.5-3.6-2.8-2.2-1.1-7.2c-1.7-1.6-3-2.8-4.7-4.2c2.1,0.4,4.8,1.9,6.9-0.4c0-3.1,3.2-4.5,3.8-7.4c0-0.8,0.9-1.6,1.5-2.3   C344.2,52.7,350.4,46,358.6,47.1z M356.1,64.7c3.9-2.9,6,0.9,9.3-1c-2.1-1.9-4.4-2.4-6.9-2.2c-1.5,1.9-4.4,2-4.1,4.8   C355.1,65.6,355.6,65.2,356.1,64.7z M334.4,76c-0.4-0.7-0.9-1.3-1.5-2.2C332.6,75.6,332.6,75.6,334.4,76z" />
	<path fill="#977264" d="M346.9,96c3.4,3.6,8.2,5.3,12.4,7.7c-1,0-2.1,0-3.1,0c-6.1-3-9.1,3.6-10,8.6c-4.3-5.2-8.1-11.7-8.6-18.6   c-1.8-0.6-3.2-1.1-4.8-1.6c-3.9,6.7-3.5,15.1-9.4,20.8c-1.6,0.1-3.3-0.3-2.2-2.1c1-4.2,0.5-8.8,1.8-12.8c1.9,0.3,5.3,0,3.6-3.3   c3.8-1.9,2-7.1,0.9-9.5c0.5-0.7,1-1.5,1.7-2.4c3.2,2.3,5,6.1,9.5,5.4c0.9,4.2,3.8,7.2,7.9,8.4C346.7,96.4,346.8,96.2,346.9,96z" />
	<path fill="#9491A0" d="M344.9,40.6c2.5,1,4.7,1.8,7.3,2.8c-3.9,4.3-7.3,8.6-10.3,13.5c-0.4,0.1-0.8,0.2-1.2,0.3   c-2.4-1.3-4.3-3.8-7-4.2h0c-0.7-3.3,0.8-6,0.7-9.5c0.7-0.6,1.6-1.3,2.4-1.9c0-0.6,0-1.1,0-1.6C339.6,39.4,342.3,39.9,344.9,40.6z" />
	<path fill="#908993" d="M333.7,53c2.7,0.4,4.6,2.9,7,4.2c0.3-0.1,0.7-0.2,1.2-0.3c-2,4.4-4.2,8.9-7,13.1c-0.8,0-1.6-0.1-2.3-0.1   c-0.8-0.9-2-0.3-3.2-0.8c-0.7-1.3,0-2.7-0.3-4.2c0.9,0.1,1.6,0.3,2.5,0.4c0.6-3.6,0-7.4,0.2-11.1C332.5,53.7,333.1,53.3,333.7,53z" />
	<path fill="#291E1B" d="M331.2,69.3c0.6-0.1,1.1,0,1.5,0.5c-0.2,0.2-0.5,0.5-0.8,0.8c1.7,1.4,3,2.6,4.7,4.2   c-1.7,5.1,1.6,3.7,1.1,7.2c-1.1,0.3-2.2,0.7-3.5,1.1c-1.3-1.7-7-3.5-4.2-6.3c0.6-0.4,1.4-1.2,2.2-0.2c-0.1,1-2.1,0.4-1.7,1.9   c1.6,1.6,3.4,3.7,5.8,3.1c-0.1-0.8-0.3-1.2-0.9-1.5c-0.4,0.2-0.7,0.3-1,0.4c-0.2-0.3-0.5-0.6-0.7-0.9c0.6-1.4,1.2-2.6,1.8-3.9   c-0.8-1.4-2-2.2-3.2-3.1c-0.5,0.8-0.9,1.4-1.7,2.4c-0.1-2.2,0.7-3.3-1.1-4.6C330.1,69.9,330.6,69.6,331.2,69.3z" />
	<path fill="#1A110F" d="M342.3,94.1c-2.6-0.7-2.7-3.7-3.6-5.8c-3,0.4-5.2-0.9-7-3.2c0.2-0.2,0.5-0.4,0.7-0.7   c1.6,0.7,2.5,2.5,4.7,2.5c0.4-0.5,0.9-1.2,1.4-1.8c2.2,2.2,1.5,6.6,4.4,8.5C342.7,93.7,342.5,93.9,342.3,94.1z" />
	<path fill="#5E4B42" d="M328.5,93.3c-0.5,0.7-1.2,1.2-1.9,1.6c-1.6-1.5-2.6-3.3-2.4-6.2c1.9,1.7,0.7,3.2,2.6,4.8   C327.2,93.4,327.8,93.3,328.5,93.3z" />
	<path fill="#373737" d="M292.7,85.2c-0.1,1.3,0.4,2.5-0.9,4c0.2-1.8,0.3-2.2-0.2-3.7C292,85.4,292.2,85.3,292.7,85.2z" />
	<path fill="#666E6E" d="M282.4,48.8c-0.2-0.9-0.5-1.8-0.7-2.5c1.9-1.2,1,1.7,1,2.5C282.6,48.8,282.5,48.8,282.4,48.8z" />
	<path fill="#B0B2B2" d="M319.5,102c-0.3-1,0.1-1.6,1.2-1.8c0,0.7,0,1.4,0,2.1C320.2,102.2,319.8,102,319.5,102   C319.4,101.9,319.5,102,319.5,102z" />
	<path fill="#2B2A2A" d="M321.7,21.2c0.8,0,1.4,1.5,0.3,1.5C321.3,22.5,321.3,21.6,321.7,21.2z" />
	<path fill="#848383" d="M278.2,65.8c0-0.2,0-0.5,0-0.7c0.6-0.3,1.1-0.7,2-1.3C280.1,65.5,278.9,65.4,278.2,65.8z" />
	<path fill="#71554B" d="M325.7,85.3c-0.6-0.3-0.6-1.4,0.1-1.6C327,83.7,326.4,85.2,325.7,85.3z" />
	<path fill="#212222" d="M303.1,96.5c-0.5,1.6-1.8,0.1-0.9-0.8C302.5,96,302.8,96.3,303.1,96.5z" />
	<path fill="#232B2B" d="M315.6,22.1c-0.5,0.6-0.8,0.9-1.1,1.3c-0.3-0.3-0.5-0.5-0.9-1C314.3,22.3,314.7,22.2,315.6,22.1z" />
	<path fill="#282C2C" d="M341.6,34.1c0-0.9,0.1-1.3,0.1-1.8C342.8,32.9,342.8,32.9,341.6,34.1z" />
	<path fill="#B8CDCD" d="M318.7,99.3c-0.4,0.4-0.8,0.8-1.2,1.3C317.3,99.7,317.8,97.8,318.7,99.3z" />
	<path fill="#2C2F2F" d="M308.1,87.9c0,0.4,0.1,0.8,0.1,1.3c-0.1,0-0.3,0-0.4,0c0-0.4-0.1-0.8-0.1-1.3   C307.8,87.9,308,87.9,308.1,87.9z" />
	<ellipse fill="#A1DEDE" cx="294.8" cy="19.3" rx="1.1" ry="0.3" />
	<ellipse fill="#C2D1D1" cx="342.5" cy="16.6" rx="1.1" ry="0.3" />
	<path fill="#1A110F" d="M329.9,81.8c0.2,0.2,0.4,0.4,0.6,0.6C330.3,82.2,330.1,82,329.9,81.8z" />
	<path fill="#1A110F" d="M329.2,81.2c0.2,0.2,0.4,0.4,0.6,0.5C329.6,81.5,329.4,81.4,329.2,81.2z" />
	<path fill="#747373" d="M283.1,63.9c-0.4-0.2,0-0.6,0.2-0.2C283.3,63.8,283.2,63.8,283.1,63.9z" />
	<path fill="#908993" d="M333.7,52.1c0,0.3,0,0.6,0,0.9C333.2,52.7,333.3,52.4,333.7,52.1z" />
	<path fill="#9491A0" d="M344,39.1c0-0.1-0.1-0.1-0.2-0.2c0.2-0.2,0.3-0.2,0.4,0C344.1,38.9,344,39,344,39.1z" />
	<path fill="#1A110F" d="M331.8,83.7c0.2,0.2,0.4,0.4,0.6,0.6C332.2,84.1,332,83.9,331.8,83.7z" />
	<path fill="#1A110F" d="M331.2,83.1c0.2,0.2,0.4,0.4,0.6,0.6C331.6,83.4,331.4,83.3,331.2,83.1z" />
	<path fill="#1A110F" d="M330.5,82.4c0.2,0.2,0.4,0.4,0.6,0.6C330.9,82.8,330.7,82.6,330.5,82.4z" />
	<path fill="#EAA388" d="M446.8,151.7c5.8,3.7,10,8.8,13.7,14.5c15,23.6,31.6,46.7,50.3,67.7c-0.3,3.2-2.7,5.5-5.1,7.4   c-5.7-4.2-9.6-11.4-16.4-13.8c1,1.6,2.1,3.1,2.7,5.4c-17.4-15-43.2-28.7-42.5-54.8c1.6-1.3-1.4-1.6-1.5-2.9c0.3-1.1,1.8-3,0.1-3.7   c-0.1-3.3,0.7-6.7-2-9.3c-4,5.8-2.8,13.6-7.2,19.3c-7.5,8.5-13.5,17.8-21.1,26.1c-24.5,28.6-11.4,25.1,17.4,26.7   c12.1,0.2,23.8,4.2,35.8,5c8.1-1,15.4,1.5,23.4,3c8.9,4.6,20.7,0.1,30.4,2.5c22.6,3.7,45.3,4.9,68,1.7c1.8,4,2.9,7.9,2.1,12.3   c-12,1.9-23.1,1.2-34.8,5.3c2.1,0.2,2.3-0.1,3.8,0.9c-21.3,8.3-49.2,7.1-70.1-1.7c0.9-0.9,1.7-1.6,2.4-2.3c4.3,2.9,11.7-0.3,15.3-3   c-2.6-0.4-4.5,0.9-6.6,1.1c-0.4-0.4-0.9-0.9-1.5-1.4c-7.7-1.4-15.8-0.1-22.6,3.9c-12.7,1.4-25.2,2.9-37.8,6   c-14.5,3.5-29,3.4-43.6,1.9c-3.9,0.3-7.6-1.5-11.5-0.2c-1.4,0.3-3,0.8-4.2-0.6c7.4-9.2,13.2-21.4,13.2-33.7   c0.1-11.1-13.3-13.8-18.9-21.1c11.1-24.3,28.9-43.3,50.3-58.8c0.2,0.4,0.5,0.9,0.9,1.6c1-0.7,2.3-0.6,3-1.9c-1.5-1-2.6,0.4-3.9,0.4   c2.7-4.9,8.4-4.5,13.2-5.7C443.4,150,445.1,150.8,446.8,151.7z M473.1,247.1L473.1,247.1c0,4.2,4.2,2.1,6.8,2.6   c1.7-0.3,3.1,1.2,4.6,0.2c0.9-0.6,2.2,0.3,3-0.7c1.4-0.6,2.8-1.1,4.2-1.7c0-0.1,0-0.2-0.1-0.4c-1.2-0.1-2.6,0.2-3.7-0.1   c-5-3.2-11.2-1.3-16.7-1.7C471.7,246.2,471.9,247.3,473.1,247.1z M464,181.7c-1.5-1.7-3.1-3.2-5.4-3.9c-0.2,0.3-0.4,0.6-0.5,0.8   c2.1,1.8,4.6,4.1,7.2,5C465.3,182.5,464.7,182.1,464,181.7z M434.7,153.8c1,1.1,2.4,0.3,3.6,0.2c0.3,0.4,0.6,0.7,0.8,0.9   c6.7,0.9,5.8-4.4-0.3-3C437.6,153.6,435.3,152.1,434.7,153.8z M398.7,250.1c2.6-3.5,7.3-8.1,8.7-12   C403.8,241.5,399.3,245.3,398.7,250.1z M410.2,234.7c-2.5-0.3-7,0-6.8,2.2C405.6,236.2,407.9,235.5,410.2,234.7z M492,246.3   c1.9,0,5,0.9,5.9-1C495.6,245,492.9,244.2,492,246.3z M468.8,242.4c-1.3-1.7-2.7-2.4-4.3-3.1c-0.2,0.4-0.3,0.6-0.5,1   C465.4,241.1,466.6,242.5,468.8,242.4z M513.3,259.3c1.7,0,5.1,0.1,5.3-1.8C516.5,257.4,514.8,258,513.3,259.3z M521.2,258.6   c1.9,0.3,4.1,1.1,4.8-0.7C523.2,257.4,523.2,257.4,521.2,258.6z M406,237.2c-2.3,0.6-4.3,2.4-4.7,4.7   C402.9,240.3,404.2,239,406,237.2z M467.6,186.2c-0.1,1.7,0.6,2.4,2.6,2.6C469.7,187.5,468.9,186.7,467.6,186.2z M530.9,258.4   c-1.6-0.2-1.6-0.2-2.8,0.3C529.3,259.4,529.3,259.4,530.9,258.4z M472.2,190.9c-0.8,1.1,0.5,2.1,1.4,1.6   C473.6,191.7,473.3,191,472.2,190.9z M471,243.4c-0.3-1.1-1-1.1-1.8-0.6C469.5,243.9,470.1,244,471,243.4z M403.1,229.7   c-0.9-0.3-1.4-1.3-2.6-0.6C401.2,229.9,401.8,230.5,403.1,229.7z M475.5,196.3c-0.2-0.4-0.5-0.9-0.9-1.6   C474.4,196.1,474.4,196.1,475.5,196.3z M536.4,259.1c-0.8-0.6-1.6-0.6-2.4,0C534.8,259.8,535.6,259.7,536.4,259.1z" />
	<path fill="#D69479" d="M448.2,175c0.1,1.3,3,1.6,1.5,2.9c-0.3-0.2-0.4-0.4-0.8-0.8c-1,1.3-1.9,2.5-2.9,3.7c-0.4-2.4,2.1-5.2,0-7   c-2.1,11-11,20.1-14,31c-2.7,8.7-6.4,17-9.9,25.3c-4.3,4.8-11.2,0.1-16.4,0.1c-4.9-6.4,9.4-16.5,12.1-22.7   c7.5-8.3,13.6-17.6,21.1-26.1c4.3-5.7,3.1-13.5,7.2-19.3C450.9,166.4,446.2,173.1,448.2,175z" />
	<path fill="#D69479" d="M449.7,177.8c-0.7,26.2,25.1,39.8,42.5,54.8c-0.7-2.3-1.7-3.8-2.7-5.4c6.8,2.4,10.7,9.6,16.4,13.8   c-1.9,1.5-4.3,0.5-6.5,0.8c-19.1-16.8-52-30.2-55.6-57.7C446.8,183,447.6,180.1,449.7,177.8L449.7,177.8z M447.6,183.7   c-1.8,0.7-2.1,1.1-1.5,1.8C447,185.4,447.6,185,447.6,183.7z" />
	<path fill="#F2EBCC" d="M526.9,242.9c-4.7-0.2-9.4-0.5-14.5-0.8c2.1-3.2,4.1-6.1,4.9-9.7C521.6,233.8,524.8,238.9,526.9,242.9z" />
	<path fill="#0B0909" d="M422.1,230.1c6.2-12.2,8.6-26.2,15.7-37.8c0.2,0.2,0.4,0.5,0.6,0.8c-5.9,12.3-7.5,26.6-15.8,37.8   C422.6,230.5,422.4,230.3,422.1,230.1z" />
	<path fill="#362721" d="M438.6,193c-0.2-0.2-0.4-0.5-0.6-0.8c2.9-6.4,7.1-11.8,8.1-18.5c2,1.8-0.4,4.6,0,7c0.9-1.2,1.9-2.4,2.9-3.7   c0.3,0.3,0.4,0.5,0.6,0.7c-2,2.4-2.8,5.2-5.8,6.5c0.2,1.3,0.4,2.6,0.7,3.9c-0.2,0.4-0.4,0.9-0.7,1.4c-0.3-0.9-0.7-1.7-1.2-2.8   C440.6,188.6,440.1,191,438.6,193z" />
	<path fill="#8C7266" d="M512.4,235.3c0.5,0.4,0.8,0.7,1.2,1.1c-0.7,1.9-1.5,3.6-2.7,5.4c-0.7,0.1-1.5,0.3-2.3,0.5   C509.3,239.9,511.8,238.3,512.4,235.3z" />
	<path fill="#979494" d="M489.4,239.3c0.6-0.4,1.6,0.3,2-0.7c0.3,0.3,0.7,0.6,1.3,1.1C491.3,240,490.3,240,489.4,239.3z" />
	<path fill="#E6CCBB" d="M370.4,279.7c-32.4,1.3-29.6-36-48.4-53c-17.4-24-7.3-27.2,2.7-50.1c0.2,0,0.4,0,0.6-0.2   c1.6,0,3.1-0.3,4.6-0.5c-0.1,8.8,5.1,15.6,12.4,20.3c-1.2,0.7-2.2,1.2-3.5,1.9c-1.3-0.1-2.7-0.3-4.2-0.4c0.3,1.3,0.5,2.4,0.8,3.7   c3.1,2,8.2,2,10.1,5.5c-1.6,1.8-3.9,1.6-6.3,1.9c0,12.5,8.1,22.1,10.2,33.9c3.2,7.5,10.9,11.9,15.3,18.8c4.5,3.8,10.7,4.6,15,8.7   c0,0.2,0,0.4,0,0.6c-0.2,0.1-0.3,0.2-0.3,0.4c-0.2,0.3-0.4,0.6-0.6,0.9l0,0C376.4,274.8,373.9,277.9,370.4,279.7z M331.3,192.2   c1.9,2.3,2.1,2.5,4.4,3C334.5,193.6,333.5,192.3,331.3,192.2z M336.3,205.9c-1.3-1.5-1.6-2.4-2.9-3.2   C333.1,204.6,333.6,205.3,336.3,205.9z M339.4,196.6c-1-1.4-1.8-1.8-3.1-1.8C337,196,337.8,196.3,339.4,196.6z M341,206.6   c0.1-0.2,0.3-0.3,0.4-0.5c-0.3-0.5-0.5-1.3-1.6-0.4C340.2,206,340.6,206.3,341,206.6z" />
	<path fill="#D69479" d="M384,268.5c1.3,1.4,2.9,0.9,4.2,0.6c3.9-1.3,7.6,0.5,11.5,0.2c14.6,1.6,29.1,1.6,43.6-1.9   c12.6-3.1,25.1-4.6,37.8-6c6.7-4,14.9-5.4,22.6-3.9c0.6,0.5,1,1,1.5,1.4c-0.4,0.8-1.9,0.5-1.9,2c0.6,0,1.2,0,1.8,0   c-2.8,1.4-5.9,1.7-8.7-0.1c-0.7,0.7-1.5,1.5-2.4,2.3c20.9,8.7,48.8,10,70.1,1.7c-1.5-1-1.7-0.6-3.8-0.9c11.7-4,22.9-3.3,34.8-5.3   c0.1-1.1,0.2-2.2,0.2-3.3c0.1,0.1,0.3,0.2,0.5,0.3c0.2,2.4-0.1,4.5-0.9,6.8c-26,4.5-50.4,17.7-77.5,13.9c-11.4-0.9-21.9-8-33.8-6.3   c-23.4,4-46.6,9.9-70.6,9.7c-13.5,0.1-28.7,4.7-41.5,0.6C377,277.8,379.6,272.2,384,268.5z" />
	<path fill="#F7EFD0" d="M595.3,266.6c0-0.2,0-0.4-0.1-0.6c5.2-2.2,13.3-3.7,11.9-11.3c-1.3-4.9-0.8-12.1-6.8-13.9   c-1.2-1.3-1-2.9-1.2-4.5c0.4-0.3,0.9-0.7,1.5-1.1c3.6-0.4,7.1-0.8,10.6-1.2c2.5,1.8,2,5.1,4.2,7.2c0.6-0.5,1-0.9,1.6-1.4   c-0.6-1.9-1.2-3.8-1.8-5.7c1.6-0.9,2.3,2.7,3.4,3.5c0.6,0.8,1.4,1.1,2.2,0.2c0.5-1.9-1.4-3.3-2.1-4.9c0.4-0.6,1-0.7,1.6-1.1   c0.9,0.8,1.8,1.6,2.6,2.2c2.8-1.6,0-2.8-0.8-4.5c0.2-0.3,0.5-0.7,0.7-1c1.5,1,2.9,3.6,4.2,0.7c-0.9-0.7-1.7-1.2-2.8-1.8   c0.2-0.4,0.5-0.9,0.9-1.5c1.9,0.4,2.5,2.3,4.3,0.1c-0.5-1-1.1-2-1.6-2.9c1.2-5.7,4.1-11.8,10.8-11.7c3.3,13.6,4.7,31.5-7.6,41.2   c-4.5-0.9-3.5,3.5-3.5,6.4c-1.9,6.6-6.7,12.5-9.3,18.9c-1.5,0-2.8,0-3.9,0C608.8,272.8,601.8,270.2,595.3,266.6z" />
	<path fill="#B18B7C" d="M315.5,219.6c-0.8,11.8-11.9,21.7-10.1,33.8c0.9-0.2,0.9-0.2,1.4-1.6c1.3,1.2,1.8,2.6,1.6,4.3   c-2.3,0.9-4.8,0.6-7.2,0.6c0.2-0.8,1.1-1.4,0.3-2.5c-1.1,0.7-1.8,3.5-3.5,2c0.8-16.8,14.2-30.8,12.6-48.1c0.1,0,0.3,0,0.4,0   C312.6,212,312.9,216.2,315.5,219.6z M301.7,252.4c0-0.1-0.1-0.3-0.2-0.5c-0.3,0.1-0.2,0.4-0.2,0.6   C301.4,252.5,301.6,252.5,301.7,252.4z" />
	<path fill="#060505" d="M312.2,211.3c-0.4-1-0.8-2-1.2-3.1c-0.1,0-0.3,0-0.4,0c-0.1,2-0.2,4.1-0.3,6.1c-0.2,0-0.4,0-0.6,0   c-0.3-5.2-1.5-11.3,0.5-16c0.1,0.9,0.2,1.7,0.4,2.8c5.4-12.7,13.1-23.8,16.3-37.2c0.8-3.8,2.8-5.1,6.8-5.1c0,0.3,0,0.6,0,1   c-6.4,1.2-5.8,8.3-7.6,13.2c-0.7,0.3-0.7,0.9-0.5,1.5c0.2,0.2,0.3,0.4,0.5,0.5c0,0.4,0,0.8,0,1.2c-0.2,0-0.4,0-0.6,0   c-0.1-0.1-0.3-0.2-0.4-0.3c-2.7,11.1-16.3,22.9-12,33.8C312.2,210.1,312.3,210.7,312.2,211.3z" />
	<path fill="#B18B7C" d="M596.7,253.6c-0.1-2.7-1.3-5.2-1.9-8c2.1-0.7,4.1-1.5,6.3-2.2c4.8,2.9,3.7,8.5,4.7,12.8   c-0.4-0.2-0.8-0.4-1.2-0.6c-0.1-0.8-0.2-1.6-1.4-1.3c-0.2,0.2-0.3,0.5-0.5,0.7l0,0c-1,0.2-1.5,0.9-1.3,1.9l0,0   c-0.9,0.2-0.9,1.3-1.4,1.8C597.3,259.5,597.3,255.4,596.7,253.6z" />
	<path fill="#8D6B5E" d="M604.6,255.6c0.4,0.2,0.8,0.4,1.2,0.6c-0.2,4.8-4.3,5.9-8.4,6.9c-1-1.5,0.3-4.2,0-6.2   c0.6,0.8,0.6,2.1,1.9,2c-0.1,0.3-0.3,0.7-0.6,1.4c0.8-0.1,1.3-0.2,2.1-0.4c-0.4-0.5-0.7-0.8-0.9-1.1c0.5-0.5,0.5-1.6,1.4-1.8   c0,0.6,0,1.2,0.1,1.9C603.4,258.4,603.8,256.8,604.6,255.6z" />
	<path fill="#201613" d="M378.9,273.8c-1.9,2.7-4,5.2-7.1,6.6c-0.2-0.7-0.8-0.6-1.4-0.7c3.3-1.6,5.5-4.5,7.9-7.1   C378.4,273.2,378.3,273.7,378.9,273.8z" />
	<path fill="#8D6B5E" d="M605.8,254.9c-1-0.8-0.5-1.8-0.5-2.8c0.2,0,0.3,0.1,0.5,0.2C605.8,253.2,605.8,254.1,605.8,254.9z" />
	<path fill="#F5DDCE" d="M379.8,270c-4.3-4.1-10.5-5-15-8.7c-4.4-6.9-12.1-11.2-15.3-18.8c-2.1-11.8-10.3-21.5-10.2-33.9   c2.3-0.3,4.7,0,6.3-1.9c-1.9-3.4-7-3.5-10.1-5.5c-0.3-1.2-0.5-2.3-0.8-3.7c1.5,0.1,2.9,0.3,4.2,0.4c1.2-0.7,2.2-1.2,3.5-1.9   c-7.3-4.7-12.5-11.5-12.4-20.3c3.1-1.9,6.1-3.9,9.1-6.1c4.1,5,9.3,12.7,16.7,10.9c3.2-1.2,6.9,0.9,9.5-2.1l0,0   c-5.6,52.4,58,34.9,15.1,91.5C380.1,270,379.9,270,379.8,270z M385.8,238c0.5,0,1,0.1,1.4-0.7c-1.2-0.2-2.2-0.3-3.2,0.5   c-0.5,0-1.1-0.1-1.1,0.7C384.3,238.7,384.3,238.7,385.8,238z M341,213.2c2.9,2.5,4.2,2.5,6.5,0.3   C345.7,211.2,343.2,209.7,341,213.2z M373.3,212.3c-1.6,1.9-3.2,3.8-5,6C370.7,217.6,372.2,216,373.3,212.3z M382.5,237   c-0.4-1.3-5.5,0.2-3.8,1.5C379.9,238,381,237.6,382.5,237z M375.4,217.7c-1.7,0.5-2.7,2.3-2.9,4.1   C373.9,220.4,375.1,219.5,375.4,217.7z M376.1,237.2c-1.5-0.8-2.4-0.8-3.8,0C373.7,237.2,374.6,237.2,376.1,237.2z M344.1,196.4   c0.2-0.4,0.3-0.6-0.1-0.8C343.7,196,343.6,196.2,344.1,196.4z" />
	<path fill="#080605" d="M380.3,270c8.3-11.2,16-24.1,15-38.5c-1.9-6.4-10.5-9-14.9-13.9c0.2-0.2,0.5-0.4,0.7-0.6   c25.7,11.1,15.9,33.9,3,51.6h0c-1.7,1.8-3.5,3.5-5.1,5.3c-0.6-0.2-0.5-0.7-0.6-1.2c0.2-0.3,0.4-0.5,0.6-0.8l0,0   c0.2-0.3,0.4-0.6,0.6-0.9c0-0.2,0.1-0.3,0.3-0.4C379.9,270.4,380.1,270.1,380.3,270z" />
	<path fill="#B28C7D" d="M333.6,158.9c-4,0-5.9,1.2-6.8,5.1c-3.2,13.4-11,24.5-16.3,37.2c-0.1-1.1-0.3-1.9-0.4-2.8   c0.3,30.2-20.5,57.3-20.9,87.9c-0.8,2.7,1.4,6.4-2,8.8c-0.3-0.5-0.5-0.9-0.8-1.5c-6.6,8.5-18.6,7-4.9-1.5c0.2-0.3,0.6-0.6,0.6-1   c0-2,1.4-2.6,2.7-4.1c-2-0.3-3.1,1-3.8,2.6l-0.1-0.1c-9.7,5.7-21.4,5.7-32.1,8.6c-0.3-0.3-0.7-0.6-1.5-1.2c1.4-0.4,2.8,0.2,3.4-0.9   l0.1,0c0.7,0,1.7,0.4,2-0.5c3.5,0,5.7-3.2,9.3-3.5c2.1-0.2,4.4-0.7,6.6-2.5c-3.5,0.4-6.3,1.8-9.4,1.3l0,0c0-0.2,0-0.4,0.1-0.6   c0.8-0.4,2,0.2,2.4-0.8c4.6-3.2,10.7-4.1,15.1-7.8l0,0c1.4-0.3,2.7,1.3,4.4,0.3c-0.9-0.4-1.7-0.8-2.4-1.1   c6.2-20.9,9.1-43.6,11.1-65.7c2.1,0.7,1.3,3.3,3.1,4.1c0.2-3.4,1.6-6.3,0.2-9.6c-0.1-1.8-2.3-7.2,1-6.7c0.4-0.9,0.8-1.8,1.3-2.8   c1.5,1.8,1.7,6.6,4.1,6c-1-16.9-7.4-9.8-1.3-32c2.4-0.4,2.6,1.4,3.8,2.1c0.3-0.5,0.5-0.9,0.8-1.3c0-0.6,0-1.2,0-1.8   c-0.2-0.2-0.4-0.5-0.6-0.7v0c-0.2-5.1-2-12.3,1.4-16.5l0,0c0.6,0.4,1.2,0.9,1.9,1.4c0,0.2,0.1,0.3,0.1,0.5c1.9,1.6,2.8,2.1,5,2.4   c-6.8-15.9-3-22,2.1-36.9c6.2-6.2,15.1-1,20.4,3.8c9,9.6,10.6,24.1,8.9,36.6c-0.4,0.4-0.8,0.9-1.2,1.3   C339.6,162.1,336.8,160.4,333.6,158.9z M310.1,194.3c-1.8,0.1-1.1,1.2,0,2.2C310.1,195.4,310.1,194.8,310.1,194.3z M299.1,208.1   c0.1,1.4,0.1,2,0.2,2.9C300.4,209.8,300.4,209.8,299.1,208.1z M298.7,212.3c0,0.6,0,1.2,0,1.9C299.7,213.1,299.7,213.1,298.7,212.3   z M310.4,192.1c-0.5-0.3-0.9-0.7-1.2-0.1C309.4,192.8,309.7,192.7,310.4,192.1z" />
	<path fill="#946F62" d="M297.8,254.9c0,0.5,0.1,1,0.1,1.6c1.4,1.4,1.7-0.4,2.4-0.8c0.2,2.7,6,1.1,7.9,0.7c-0.7,5.1-7,1.2-9.8,3.2   c-0.5,0-1,0-1.8,0C297,257.7,297.3,256.4,297.8,254.9z" />
	<path fill="#2B231F" d="M309,217.7c0-1.1,0-2.3,0.6-3.3c0.2,0,0.4,0,0.6,0c0,1.8,0.4,3.7-0.5,5.4C309.5,219.1,310,218.1,309,217.7z   " />
	<path fill="#977264" d="M303.8,156.2c-3.4,4.2-1.6,11.3-1.4,16.5c-1,1.5-0.9,2.1,0.6,2.4c-0.2,0.4-0.5,0.8-0.8,1.3   c-1.2-0.8-1.4-2.6-3.8-2.1c-2.6,13-4.4,14.7,1.3,27.1c-0.5-0.2-0.8-1.1-1.6-0.4c0.1,1.7,0.2,3.3,0.2,5c-0.9-1.8-1.8-3.7-2.7-5.7   c-0.5,1.1-0.9,1.9-1.3,2.8c-3.4-0.5-1.1,5-1,6.7c1.3,3.4,0,6.3-0.2,9.6c-1.8-0.8-1-3.5-3.1-4.1c-2,22-4.9,44.8-11.1,65.7   c-0.6,0.1-1.1,0-1.4-0.6c5.7-23.2,4.5-47.5,11.2-70.6c0.4,0,0.9,0,1.3,0c2.2-2.4-0.9-5.9,0.4-8.6c4.8-12.4,5.2-26,8.2-38.8   c3.4-13.5-0.6-30.7,14.2-38.8c-5.2,14.9-8.9,21-2.1,36.9c-2.1-0.3-3.1-0.8-5-2.4c0.3,0,0.6,0,1,0c0.3-0.9,0.8-1.8-0.7-2.5   c-0.1,0.8-0.2,1.4-0.4,2C305,157.1,304.4,156.6,303.8,156.2c1.3-0.7,0.7-2.5,0.3-3.9C303.4,153.7,303.7,155,303.8,156.2z    M302.1,146.1c-0.5,2.3-0.5,3.9,0,6.4C303.3,148.9,303.3,147.6,302.1,146.1z M298.8,170.4c1.3-0.8,1.4-2.5,0.1-4.3   C298.2,167.6,298.4,168.9,298.8,170.4z M300.5,172.2c0.2,0,0.4,0,0.6,0c0-0.6-0.1-1.3-0.1-1.9c-0.1,0-0.2,0-0.4,0   C300.6,170.9,300.5,171.6,300.5,172.2z" />
	<path fill="#917367" d="M270.4,256.7c3.3-1.5,5.9-2.9,9.4-2.2c0.4,1.2-0.1,1.9-0.5,3C276.5,257.5,273.5,257.8,270.4,256.7z" />
	<path fill="#907266" d="M274.3,253.6c0-0.1-0.1-0.3-0.2-0.5c1.9-0.8,3.9-0.9,6-0.7c0,0.3,0,0.6-0.1,1.2   C278.1,253.5,276.2,253.6,274.3,253.6z" />
	<path fill="#36231F" d="M277.6,280.4c0.3,0.6,0.8,0.7,1.4,0.6c0.8,0.3,1.5,0.7,2.4,1.1c-1.7,1-3-0.6-4.4-0.3   C276.9,281.2,276.9,280.7,277.6,280.4z" />
	<path fill="#72594E" d="M290.1,209.7c-0.4,0-0.9,0-1.3,0c0.3-1.2,0.6-2.4,0.9-3.6c0.1,0,0.2,0,0.3,0   C290,207.5,290,208.6,290.1,209.7z" />
	<path fill="#EBDCB8" d="M595.3,266.6c6.5,3.6,13.5,6.2,18.9,11.8c1.1,0,2.4,0,3.9,0c2.6-6.5,7.4-12.3,9.3-18.9c0-3-1-7.3,3.5-6.4   c12.3-9.7,10.9-27.6,7.6-41.2c10.1,6.2,6.1,34.2-3.6,41.3c-4.8,3.2-4.7,8.6-6.3,13.5c-5.4,5.7-6.8,16.2-16.8,15.2   c-4.6-5.5-10.8-8.7-17-11.9C594.8,268.7,594.5,267.6,595.3,266.6z" />
	<path fill="#33312E" d="M630.2,259.5c0.1-0.3,0.3-0.6,0.4-0.9C630.4,258.9,630.3,259.2,630.2,259.5z" />
	<path fill="#9F7F72" d="M250.1,295.4c-1.6,0.1-3.3,0-4.5,1.5c-1.3,0-2.4-0.1-3.7-0.2c0-0.4,0-0.7-0.1-1.1   c5.8-1.5,11.4-4.7,17.5-4.7l0,0C256.9,293.4,253.1,293.9,250.1,295.4z" />
	<path fill="#181111" d="M242.9,295.3c-0.3,0.1-0.7,0.1-1.1,0.2c-0.3-0.2-0.5-0.5-0.8-0.8C241.6,294.9,242.5,294.5,242.9,295.3z" />
	<path fill="#3E2E29" d="M261.8,289.5c-0.2,0.6-0.7,0.6-1.3,0.5C261,289.9,261.5,289.7,261.8,289.5z" />
	<path fill="#3E2E29" d="M259.3,290.9c-0.4,0-0.9-0.1-1.4-0.1c0.3-0.6,0.9-0.6,1.5-0.4C259.3,290.5,259.3,290.7,259.3,290.9z" />
	<path fill="#3E2E29" d="M262.5,288.9c-0.2,0.2-0.4,0.4-0.6,0.6C262.1,289.3,262.3,289.1,262.5,288.9z" />
	<path fill="#EAD3C5" d="M298,146.4c1.3,3.4,0.3,7.8,0.5,11.6C296.9,154.7,298.4,150.2,298,146.4z" />
	<path fill="#BDAB9E" d="M369.1,173.8c-0.7,2-2.1,3.4-3.8,4.6l0,0c0.7-2.2,2-4,3.2-6C368.6,172.9,368.8,173.4,369.1,173.8z" />
	<path fill="#F5DDCE" d="M369.1,173.8c-1.5-2.9,2.7-6.9-0.3-9.8c0.7,8.5-8.2,8.4-14,6.6c-4.8,0.2-7.9-3.9-11.8-5.5   c6.4-18.1-5.3-50.9-28.5-44.8c-0.3-0.3-0.5-0.5-0.8-0.8c1.9-1.9,3.8-3.9,5.7-5.9c16.7,1.9,24.6,18.1,34.8,29.2   C364.5,150.9,379.3,158.8,369.1,173.8z" />
	<path fill="#B28C7D" d="M323.4,113c5.9-5.7,5.5-14.1,9.4-20.8c1.6,0.5,3.1,1,4.8,1.6c0.5,6.8,4.3,13.3,8.6,18.6   c-3.8,14,7.2,23.4,15,33.4C347.1,139.7,341.3,117.4,323.4,113z" />
	<path fill="#3C322E" d="M343,127.4c1.4,2,2.8,4,4.5,5.9c-0.2,0.2-0.4,0.5-0.7,0.7c-1.9-1.7-3.6-3.5-4.4-5.9   C342.6,127.8,342.9,127.6,343,127.4z" />
	<path fill="#757D7D" d="M308.9,251.3c0,0-0.1,0.1-0.2,0.2c-0.2-0.1-0.2-0.2,0-0.4C308.8,251.2,308.8,251.2,308.9,251.3z" />
	<path fill="#BDAB9E" d="M369.3,173.4c0.1-0.3,0.3-0.5,0.5-0.8C369.6,172.8,369.4,173.1,369.3,173.4z" />
	<path fill="#221B19" d="M301.7,139.2c-1.6,4.9-1.3,10-1.3,15.1c-1.2-5-1.9-10.9,0.6-15.8C301.3,138.7,301.5,138.9,301.7,139.2z" />
	<path fill="#0B0807" d="M301.7,139.2c-0.2-0.2-0.4-0.5-0.6-0.7c13.5-42.5,52.6-5.1,42,25.7c-0.3,0-0.5,0-0.8,0   C349.2,134.3,317.6,98.3,301.7,139.2z" />
	<path fill="#271F1D" d="M350.7,103.9c1.9-1,3.7-0.8,5.5,0C354.4,103.9,352.5,103.9,350.7,103.9z" />
	<path fill="#352D2A" d="M345.7,120.2c0-1.4-0.3-2.8,0.5-4.1C346.1,117.5,346.7,119.1,345.7,120.2z" />
	<path fill="#976F61" d="M248.7,298.1c10.8-2.9,22.5-2.9,32.1-8.6c-4.6,9.4-18.7,3.9-26.3,9.1C252.6,298.5,250.5,299,248.7,298.1z" />
	<path fill="#8A6B5E" d="M366.5,94.7c-0.6-0.8-0.9-1.7-1.3-2.5c1.7,0,3.4,0,5,0c1.9,2.8-0.3,3.4-2.4,3.2h0   C367.6,94.8,366.9,93.6,366.5,94.7z" />
	<path fill="#8F6E61" d="M366.5,90.2c0.2,0,0.5,0,0.7,0c0.2-0.2,0.4-0.4,0.7-0.7l0,0c1.5-0.1,2-1.3,3.6-1.4c0.1,0.8,0.2,1.4,0.3,1.9   c-1.5,1.1-3.1,1.7-5,1.1C366.6,90.8,366.5,90.5,366.5,90.2z" />
	<path fill="#3E2E29" d="M250.1,295.4c3.1-1.5,6.8-1.9,9.2-4.5c3.1,0.4,5.9-0.9,9.4-1.3c-2.2,1.9-4.5,2.3-6.6,2.5   c-4,0.6-7.1,3.9-11.3,3.9C250.5,295.8,250.3,295.6,250.1,295.4z" />
	<path fill="#9F7F72" d="M250.4,296.5c-0.3,0-0.7,0.1-1,0.2c0.2-0.2,0.5-0.4,0.8-0.6C250.2,296.3,250.3,296.4,250.4,296.5z" />
	<path fill="#3E2E29" d="M250.4,296.5c-0.1-0.1-0.2-0.2-0.2-0.4c0.1,0,0.3,0,0.5,0C250.6,296.3,250.5,296.4,250.4,296.5z" />
	<path fill="#503C36" d="M280.9,289.6c0.7-1.6,1.9-2.9,3.8-2.6c-1.3,1.5-2.7,2-2.7,4.1c0,0.3-0.4,0.7-0.6,1   C281.4,291.3,282.1,290.3,280.9,289.6z" />
	<path fill="#4A3F3B" d="M357.4,141.1c-0.2-0.2-0.4-0.4-0.7-0.6C356.9,140.7,357.2,140.9,357.4,141.1z" />
	<path fill="#0F0C0C" d="M364.6,69.2c-0.3,0.2-0.7,0.5-1,0.8c-0.4,3-0.4,3-1.9,4.3c-0.3-0.4-0.7-0.8-1-1.2c-0.2-2-0.3-2.1-1.9-1.8   c-0.3,0.2-0.6,0.5-0.9,0.8c-1.7-0.5-1.7-0.5-2.6-1.4c2.8-0.5,5.7-1.2,8.3-2.4c0.1,0,0.2,0,0.3,0C364,68.7,364.3,69,364.6,69.2z" />
	<path fill="#160C0B" d="M355.4,64c1-0.8,2-1.7,3-2.5c2.5-0.2,4.8,0.4,6.9,2.2c-3.2,1.9-5.4-1.9-9.3,1   C355.9,64.5,355.7,64.3,355.4,64z" />
	<path fill="#9C7C6F" d="M361.8,69.1c-1.5,0.4-3,0.8-4.5,1.3c0-0.4,0-0.8,0-1.2c1,0.1,1.7-0.3,1.9-1.3l0,0c0.7-0.2,1.4-0.3,2.3-0.6   C361.7,68,361.7,68.5,361.8,69.1z" />
	<path fill="#5C4840" d="M367.8,84.3c-0.9,2.8-2.4,0.4-3.2-0.8c-0.3-0.5,0-1,1.1-2.4c0.1,1.1,0.2,1.9,0.3,3   C366.7,84.1,367.3,84.2,367.8,84.3L367.8,84.3z" />
	<path fill="#47322C" d="M361.8,69.1c0-0.6-0.1-1.2-0.1-1.8c-0.9,0.2-1.7,0.4-2.3,0.6c1-1.2,1-1.2,2.7-1.9c0.8,0.6,1.1,1.4,1.4,2.3   C362.9,68.7,362.3,68.9,361.8,69.1z" />
	<path fill="#3A2723" d="M342.3,94.1c0.2-0.2,0.4-0.4,0.6-0.6c1.4,0.8,2.7,1.7,4,2.5c-0.1,0.2-0.2,0.3-0.4,0.6   C344.8,96.4,343.6,95.2,342.3,94.1z" />
	<path fill="#47322C" d="M364.6,69.2c-0.2-0.2-0.5-0.5-0.8-0.8c0.7-0.8,1.4-1.6,2.4-2.9c0.1,1,0.2,1.4,0.3,1.7l0,0   C365.9,67.9,365.2,68.6,364.6,69.2z" />
	<path fill="#E5ECEB" d="M358.7,71.4c1.7-0.3,1.8-0.2,1.9,1.8C358.9,73.1,358.9,73.1,358.7,71.4z" />
	<path fill="#6C554C" d="M334.4,76c-1.8-0.4-1.8-0.4-1.5-2.2C333.5,74.6,333.9,75.3,334.4,76z" />
	<path fill="#44352F" d="M355.4,64c0.2,0.2,0.4,0.4,0.7,0.7c-0.5,0.4-1,0.9-1.9,1.6C354.1,64.9,354.6,64.4,355.4,64z" />
	<path fill="#756157" d="M334.5,80.4c0.3-0.1,0.6-0.2,1-0.4c0.7,0.3,0.8,0.7,0.9,1.5c-0.5,0-0.9,0-1.3,0   C334.9,81.2,334.7,80.8,334.5,80.4z" />
	<path fill="#543B35" d="M359.3,67.9c-0.3,1-0.9,1.4-1.9,1.3C357.8,68.3,358.3,67.8,359.3,67.9z" />
	<path fill="#433630" d="M366.5,94.7c0.4-1.1,1.1,0.1,1.4,0.7C367.4,95.2,366.9,95,366.5,94.7z" />
	<path fill="#3D2E2A" d="M367.8,89.5c-0.2,0.2-0.4,0.4-0.7,0.7C367.4,89.9,367.6,89.7,367.8,89.5z" />
	<path fill="#D59479" d="M487.5,249.2c-0.8,1.1-2.1,0.1-3,0.7c-1.6,1-2.9-0.5-4.6-0.2c-2.6-0.5-6.9,1.6-6.8-2.6   c0.4-0.3,0.7-0.5,1.2-0.9c-0.5-0.4-1-0.7-1.4-1c5.5-0.1,11-0.7,15.9,1.9C488,247.8,485.9,247.8,487.5,249.2z" />
	<path fill="#D29177" d="M434.7,153.8c0.7-1.7,3-0.2,4-1.9c6.2-1.4,7,3.9,0.3,3c-0.2-0.2-0.5-0.5-0.8-0.9c-0.3,0.1-0.7,0.2-1.1,0.3   C436.4,153.2,436.2,153.2,434.7,153.8z M439.3,153.7c0,0.1,0,0.3,0,0.4C440.5,154.1,440.5,153.7,439.3,153.7z" />
	<path fill="#DA977C" d="M398.7,250.1c0.5-4.8,5.1-8.6,8.7-12C406,241.9,401.3,246.6,398.7,250.1z" />
	<path fill="#351F1A" d="M505.1,260.9c-0.6,0-1.2,0-1.8,0c0-1.5,1.4-1.2,1.9-2c2.1-0.1,4-1.6,6.6-1.1   C510.3,259.9,507.3,259.6,505.1,260.9z" />
	<path fill="#2B1A16" d="M463.2,182.4c-1.7-1.3-3.8-2.2-5.1-3.8c0.1-0.2,0.3-0.4,0.5-0.8c2.2,0.8,3.8,2.2,5.4,3.9   C463.7,181.9,463.5,182.2,463.2,182.4z" />
	<path fill="#5B3930" d="M410.2,234.7c-2.2,0.7-4.5,1.5-6.8,2.2C403.2,234.8,407.6,234.4,410.2,234.7z" />
	<path fill="#221A16" d="M492,246.3c0.9-2.1,3.6-1.4,5.9-1C497,247.2,494,246.3,492,246.3z" />
	<path fill="#3B2721" d="M468.8,242.4c-2.2,0.1-3.4-1.3-4.8-2c0.2-0.4,0.3-0.7,0.5-1C466,239.9,467.5,240.7,468.8,242.4z" />
	<path fill="#361C17" d="M513.3,259.3c1.5-1.3,3.3-1.9,5.3-1.8C518.3,259.4,514.9,259.3,513.3,259.3z" />
	<path fill="#43241F" d="M521.2,258.6c1.9-1.2,1.9-1.2,4.8-0.7C525.3,259.6,523.1,258.9,521.2,258.6z" />
	<path fill="#996B5A" d="M406,237.2c-1.9,1.8-3.1,3.1-4.7,4.7C401.7,239.6,403.7,237.8,406,237.2z" />
	<path fill="#462F28" d="M487.5,249.2c-1.9-2,2.8-2.1,4.1-2c0,0.1,0,0.2,0.1,0.4C490.3,248,488.9,248.6,487.5,249.2z" />
	<path fill="#472E27" d="M428.6,154.9c1.3,0,2.4-1.4,3.9-0.4c-0.6,1.2-1.9,1.1-3,1.9C429.2,155.7,428.9,155.2,428.6,154.9   L428.6,154.9z" />
	<path fill="#483028" d="M467.6,186.2c1.3,0.5,2.1,1.3,2.6,2.6C468.2,188.7,467.5,187.9,467.6,186.2z" />
	<path fill="#321814" d="M473,245.2c0.4,0.3,0.8,0.6,1.4,1c-0.4,0.3-0.8,0.6-1.2,0.9c-0.4-0.2-0.9-0.4-1.3-0.6   c-0.2-0.3-0.3-0.7-0.7-1.2C471.9,245.2,472.4,245.2,473,245.2z" />
	<path fill="#492E26" d="M448.2,175c-1.6-0.7-0.1-2.5,0.1-3.7C450,172,448.5,173.9,448.2,175z" />
	<path fill="#40120F" d="M530.9,258.4c-1.6,1-1.6,1-2.8,0.3C529.4,258.2,529.4,258.1,530.9,258.4z" />
	<path fill="#5A3A31" d="M472.2,190.9c1.1,0,1.4,0.7,1.4,1.6C472.7,193.1,471.4,192,472.2,190.9z" />
	<path fill="#65483D" d="M471,243.4c-0.9,0.7-1.5,0.5-1.8-0.6C470,242.3,470.7,242.2,471,243.4z" />
	<path fill="#46322A" d="M463.2,182.4c0.2-0.2,0.5-0.5,0.8-0.7c0.7,0.4,1.4,0.9,1.3,1.9C464.2,183.7,463.7,183.1,463.2,182.4z" />
	<path fill="#6C3F36" d="M403.1,229.7c-1.2,0.7-1.8,0.1-2.6-0.6C401.6,228.5,402.1,229.5,403.1,229.7z" />
	<path fill="#161614" d="M434.7,153.8c1.6-0.5,1.7-0.5,2.4,0.4C436.2,154.3,435.3,154.6,434.7,153.8z" />
	<path fill="#3C2622" d="M475.5,196.3c-1.1-0.2-1.1-0.2-0.9-1.6C475,195.4,475.2,195.9,475.5,196.3z" />
	<path fill="#251815" d="M536.4,259.1c-0.8,0.6-1.6,0.6-2.4,0C534.8,258.6,535.6,258.6,536.4,259.1z" />
	<path fill="#D69479" d="M384.1,268.5c0.3-0.4,0.5-0.7,0.8-1.1C384.8,268,384.8,268.5,384.1,268.5z" />
	<path fill="#D59479" d="M471.8,246.5c0.4,0.2,0.9,0.4,1.3,0.6C472.6,247.1,472,247.1,471.8,246.5z" />
	<path fill="#D69479" d="M423.6,230c0.1-0.1,0.2-0.3,0.3-0.5C423.8,229.6,423.7,229.8,423.6,230z" />
	<path fill="#5C4035" d="M447.6,183.7c0,1.3-0.6,1.7-1.5,1.8C445.5,184.8,445.9,184.3,447.6,183.7z" />
	<path fill="#2C211F" d="M342.2,164c0.3,0,0.5,0,0.8,0c0,0.4-0.1,0.7-0.1,1.1c-4.2,5.2-10,10.7-16.9,11.2c0-0.4,0-0.8,0-1.2   C332.6,174.5,338.1,168.9,342.2,164z" />
	<path fill="#4F3D39" d="M331.3,192.2c2.1,0.1,3.2,1.5,4.4,3C333.5,194.6,333.3,194.5,331.3,192.2z" />
	<path fill="#413530" d="M336.3,205.9c-2.7-0.6-3.2-1.2-2.9-3.2C334.7,203.5,335,204.4,336.3,205.9z" />
	<path fill="#412B27" d="M339.4,196.6c-1.6-0.3-2.4-0.6-3.1-1.8C337.6,194.8,338.4,195.2,339.4,196.6z" />
	<path fill="#8A796E" d="M341,206.6c-0.3-0.3-0.7-0.6-1.1-1c1.1-0.9,1.3-0.1,1.6,0.4C341.2,206.2,341.1,206.4,341,206.6z" />
	<path fill="#B18B7C" d="M312.2,207.2c-0.2-0.4-0.3-0.9-0.5-1.4C312.3,206.1,312.4,206.7,312.2,207.2z" />
	<path fill="#201613" d="M380.3,270c-0.1,0.2-0.3,0.4-0.5,0.6c0-0.2,0-0.4,0-0.6C379.9,270,380.1,270,380.3,270z" />
	<path fill="#201613" d="M379.5,271c-0.2,0.3-0.4,0.6-0.6,0.9C379.1,271.6,379.3,271.3,379.5,271z" />
	<path fill="#201613" d="M378.9,271.9c-0.2,0.2-0.3,0.5-0.5,0.7C378.6,272.3,378.7,272.1,378.9,271.9z" />
	<path fill="#2C211F" d="M324.7,176.6c0-0.2,0.1-0.3,0.1-0.5c0.1,0.1,0.3,0.2,0.4,0.3C325.2,176.5,325,176.6,324.7,176.6z" />
	<path fill="#201613" d="M379.6,273.1c0.1-0.2,0.3-0.3,0.5-0.5C379.9,272.7,379.7,272.9,379.6,273.1z" />
	<path fill="#201613" d="M378.9,273.8c0.2-0.2,0.4-0.4,0.6-0.6C379.3,273.4,379.1,273.6,378.9,273.8z" />
	<path fill="#57443D" d="M301.2,256.9c-0.7-0.2-0.7-0.8-0.7-1.4c0.3-0.4,0.7-0.7,1-1.1C302.2,255.5,301.3,256.1,301.2,256.9z" />
	<path fill="#735A51" d="M301.7,252.4c-0.1,0-0.2,0.1-0.4,0.1c0-0.2-0.1-0.5,0.2-0.6C301.6,252.1,301.6,252.3,301.7,252.4z" />
	<path fill="#B08B7C" d="M336.4,169.9c-3.3,2.1-6.2,5.5-10.5,5.3c-0.2-0.2-0.3-0.4-0.5-0.5c2-4,1.4-9.5,4.4-12.8   C331.7,164.8,334.9,167,336.4,169.9z" />
	<path fill="#977264" d="M336.4,169.9c-1.6-2.9-4.7-5.1-6.6-8c1.1-1,2.4-1.5,3.8-1.9c0-0.4,0-0.7,0-1c3.1,1.5,6,3.2,7.4,6.4   C339.8,167.2,338.2,168.7,336.4,169.9z" />
	<path fill="#2C211F" d="M325.9,173.2c-0.2,0.5-0.3,1-0.5,1.5C325.3,174,325.3,173.5,325.9,173.2z" />
	<path fill="#140F0E" d="M604.6,255.6c-0.7,1.3-1.1,2.9-3.2,3.3c0-0.7,0-1.3-0.1-1.9l0,0c0.9-0.3,1.3-1,1.3-1.9l0,0   c0.2-0.2,0.3-0.5,0.5-0.7C604.3,254,604.5,254.7,604.6,255.6z" />
	<path fill="#32211D" d="M599.9,258.7c0.2,0.3,0.5,0.6,0.9,1.1c-0.8,0.1-1.3,0.2-2.1,0.4c0.3-0.7,0.4-1,0.6-1.4   C599.5,258.8,599.7,258.8,599.9,258.7z" />
	<path fill="#8D6B5E" d="M602.7,255c0,0.9-0.5,1.6-1.3,1.9C601.2,255.9,601.6,255.2,602.7,255z" />
	<path fill="#8D6B5E" d="M603.1,254.2c-0.2,0.2-0.3,0.5-0.5,0.7C602.8,254.8,603,254.5,603.1,254.2z" />
	<path fill="#E6CCBB" d="M339,169.8c1.3-1.5,2.6-3.1,3.8-4.6c6.8,4.1,17,9.8,24.8,4.1c-1.2,4.5-3.9,8.7-8.3,10.5c0,0.2,0,0.4,0,0.6   C348.6,182.1,345.3,177.9,339,169.8z M357.3,178.7c-3-0.5-3.3-0.5-5.1,0.2C352.8,179.8,356.7,180.7,357.3,178.7z M348.5,177.2   c0.5,1.4,2,1.4,2.3,0C350,177.2,349.3,177.2,348.5,177.2z M347.9,175.5c-0.2-1.1-1.9-1.1-1.3,0.1   C347,175.7,347.7,175.9,347.9,175.5z" />
	<path fill="#181312" d="M359.4,180.4c0-0.2,0-0.4,0-0.6c6.1-2.5,8.8-9.4,9.3-15.7c3.4,4.7-2,10-3.5,14.5   C363.5,179.8,361.7,180.9,359.4,180.4z" />
	<path fill="#E7CDBC" d="M341,213.2c2.2-3.5,4.7-2,6.5,0.3C345.2,215.7,343.9,215.7,341,213.2z" />
	<path fill="#524642" d="M373.3,212.3c-1.1,3.7-2.6,5.3-5,6C370.1,216.1,371.7,214.2,373.3,212.3z" />
	<path fill="#5C504A" d="M382.5,237c-1.5,0.6-2.7,1.1-3.8,1.5C377.1,237.2,382.1,235.7,382.5,237z" />
	<path fill="#988980" d="M375.4,217.7c-0.3,1.8-1.5,2.7-2.9,4.1C372.7,220,373.7,218.2,375.4,217.7z" />
	<path fill="#381412" d="M384,237.8c0.9-0.8,2-0.7,3.2-0.5C386.4,238.7,385,237.7,384,237.8z" />
	<path fill="#5C3A36" d="M376.1,237.2c-1.5,0-2.4,0-3.8,0C373.7,236.3,374.6,236.3,376.1,237.2z" />
	<path fill="#2C1F1D" d="M384,237.8c0.6,0,1.2,0.1,1.8,0.1c-1.5,0.7-1.5,0.7-2.9,0.5C382.8,237.7,383.5,237.9,384,237.8z" />
	<path fill="#8B7E77" d="M344.1,196.4c-0.4-0.2-0.3-0.4-0.1-0.8C344.4,195.8,344.3,196.1,344.1,196.4z" />
	<path fill="#1A1210" d="M298.4,205.9c-0.1-1.7-0.2-3.3-0.2-5c0.7-0.6,1.1,0.2,1.6,0.4c0,1.6,0,3.2,0,4.8   C299.1,206.7,298.8,206.4,298.4,205.9z" />
	<path fill="#402E28" d="M305.6,157.5c0.1-0.6,0.2-1.2,0.4-2c1.5,0.6,1,1.6,0.7,2.5c-0.3,0-0.7,0-1,0   C305.7,157.9,305.7,157.7,305.6,157.5z" />
	<path fill="#483A34" d="M303,175.1c-1.5-0.3-1.7-1-0.6-2.5c0.2,0.2,0.4,0.5,0.6,0.7C303,173.9,303,174.5,303,175.1z" />
	<path fill="#4F3B34" d="M310.1,194.3c0,0.5,0,1.1,0,2.2C309,195.5,308.3,194.4,310.1,194.3z" />
	<path fill="#281A17" d="M299.1,208.1c1.3,1.7,1.3,1.7,0.2,2.9C299.3,210.2,299.2,209.5,299.1,208.1z" />
	<path fill="#37312C" d="M298.7,212.3c1.1,0.8,1.1,0.8,0,1.9C298.7,213.5,298.7,213,298.7,212.3z" />
	<path fill="#735950" d="M310.4,192.1c-0.7,0.6-1,0.7-1.2-0.1C309.4,191.4,309.8,191.8,310.4,192.1z" />
	<path fill="#9F7F72" d="M251.4,296.1c0.4-0.2,0.9-0.4,1.4-0.5C252.5,296.2,251.9,296.1,251.4,296.1z" />
	<path fill="#977264" d="M303,173.3c-0.2-0.2-0.4-0.5-0.6-0.7C302.6,172.8,302.8,173.1,303,173.3z" />
	<path fill="#080605" d="M302.1,146.1c1.2,1.5,1.2,2.8,0,6.4C301.6,150,301.6,148.5,302.1,146.1z" />
	<path fill="#2C1F1B" d="M298.8,170.4c-0.4-1.5-0.5-2.8,0.1-4.3C300.2,167.9,300.1,169.6,298.8,170.4z" />
	<path fill="#120D0B" d="M303.8,156.2c0-1.2-0.4-2.5,0.3-3.9C304.5,153.6,305.1,155.5,303.8,156.2L303.8,156.2z" />
	<path fill="#14110F" d="M300.5,172.2c0-0.6,0.1-1.3,0.1-1.9c0.1,0,0.2,0,0.4,0c0,0.6,0.1,1.3,0.1,1.9   C300.9,172.2,300.7,172.2,300.5,172.2z" />
	<path fill="#BDAB9E" d="M368.6,171.9c0.2-0.4,0.3-0.9,0.5-1.4C369.3,171.1,369.2,171.6,368.6,171.9z" />
	<path fill="#2C1310" d="M439.3,153.7c1.2,0,1.2,0.4,0,0.4C439.3,154,439.3,153.8,439.3,153.7z" />
	<path fill="#281C1A" d="M357.3,178.7c-0.5,2-4.5,1.1-5.1,0.2C354,178.2,354.3,178.2,357.3,178.7z" />
	<path fill="#5B2F2B" d="M348.5,177.2c0.8,0,1.5,0,2.3,0C350.5,178.7,349,178.7,348.5,177.2z" />
	<path fill="#89756B" d="M347.9,175.5c-0.2,0.4-0.9,0.1-1.3,0.1C346.1,174.4,347.7,174.4,347.9,175.5z" />
</g>
</g></svg>