<?xml version='1.0' encoding='utf-8'?>
<svg xmlns="http://www.w3.org/2000/svg" version="1.2" baseProfile="tiny" id="Layer_2_00000005263103058477934500000005374148776007002041_" x="0px" y="0px" viewBox="0 0 900 600" overflow="visible" xml:space="preserve">
<g>
	<path d="M581.7,325.8c-9.5,0.2-18.6-3.9-28.1-2.3c-6.7,1-13.8,1.7-20.5,0.2c-4.1,1.5-8.3,1.9-12.5,0.4   c-20.9,13.6-26.3,37.7-56.6,35.6c-12,3.6-25.1,5.2-35.6,12.3c-34,10.1-71.8,8.4-107.4,11c-8.1-4.4-7.5-13.8-11.3-21   c-4.6-8.2-7-17-10.1-25.8c-13.4,3-28,4.2-40.8-1.8c-1.1,0.9-2.5,0.9-3.8,0.6c-5.7-1.6-12.1,1.4-17.2-2.5c-4.1-2.3-9.5,0.4-13.6-1.7   c24.7-3.3,49.8,9.8,74.9,2.9c-1.4-3.9-1.5-7.8-2.8-11.3c-3.9,0-7.3,0.9-10.8-0.6c0.2-0.4,0.5-0.9,0.7-1.3c3.1-0.4,6.3-0.8,9.5-1.2   c-1.1-16.1-4.7-32.6,1-48.2c-9.5-1-18.4-2.1-27.5-0.3c-1.4-1-4.2-1.1-5.1,0.3c0,0,0.1,0,0.1,0c-23-0.3-47.1-9.1-69.2,0.6   c-37,16-71.4,39.2-112.9,40.5c-0.5,4-0.9,7.9,0.3,11.8c3.2,0.6,6.5-0.5,9.9,1.3c-3.3,1.7-5.7,2.3-9.1,3.1   c0.9,5.7,3.6,10.6,6.2,15.6c31.2,0.1,61.2-8.5,92.3-9.4c13-1.1,25.8-3.9,38.8-5.3c1,0,2.3,0,2.5,1.4   c-43.3,8.2-88.8,13.3-133.2,17.1c0.3,0.8,0.5,1.6,0.7,2.3c-0.4,1.6-1.5,2.3-2.8,2.9c-1-0.1-1.6,0.3-2.1,1.5   c12.6-2.4,12.1,0.3,4.7,9.2c-2.5,3.3-6,3.7-10,3.4c-3.7,1.2-1.6,5.1-4.6,6.9c13.4,3.8,12.2,19.7,0.2,24.8   c1,9.3-12.3,10.8-18.5,14.7c-8.8,4.3-18.2-2.6-26.3-3c-25.2-12.7-21.6-32.6-24-56.7c1.5-7.9-3.7-14.6-3.3-22.3   c1.9-13.1,5.5-26.6,9.8-39.1c1.5-1,2.6-1.7,3.8-2.6c4.5-0.1,8.6,1.9,13.2,2.7c-0.5-4.5,2.4-8.2,6-10.4c5.6-1.3,8.3-7.1,14-8.6   c8.6,3.3,15.4,10.3,23.4,14.7c6.5,2,13.9,5,16.3,11.8c16.4-1.9,32.6-4.8,48-10.8c4.9-0.7,14.7-8.1,18.5-5.5   c-21.2,10.1-43.8,18-67.5,17.9c-2.1,2.7-4.5,5-8.2,5.1c0.6,0.9,1.1,1.7,1.6,2.7c59.1-0.9,103-56.6,163.3-43.4   c-1.3,1-2.5,0.7-4.3,0.8c2.6,1.6,5,1.5,8.2,1.1c-1.3-0.4-2-0.6-3.2-1c8.3-1.4,16.1,3.9,24.2,0.9c8.4-2.8,17.6,1.2,26.3,1.3   c1.3-13,27.9-6.6,38.8-12.8c12.2-4.2,25.1-5.5,37.3-9.5c7.1-1.9,16.5,1,21.9-4.5c3.7-0.2,7.3,0.5,10.9-0.8   c4.2-1.6,8.7,1.7,12.7-0.9c10-17.5,14.6-17.1,31.3-24c9.3-9.6,39.3-5.3,52.5-4.7c5.9-0.2,8,4.6,12.3,7c2,1.1,4.5,1.4,5.7,3.6   c2.2,2.8,7.7-1.7,11.5,0.6c2.9,0.6,3.8,2.1,3.7,5c53.6-2.9,102.7-27.4,156.9-29c17.7-1.6,31.8,10.5,49.1,10.2   c8.5-0.3,19.6,2.5,25.8-4.7c0.6,0.1,0.8-0.2,0.7-0.8c0.1,0,0.3-0.1,0.4-0.1c-0.3,0.5-1.2,0.2-0.9,1c-0.4-0.1-0.9-0.2-1.5-0.4   c0.7-9.5,10.7-14.4,15.7-22c10-12.4,24.1-19.8,37.8-27.3c-0.3-1.2-0.7-2.6-1-4c2.3-6,2.5,1.2,5.5,0.6c1-0.6,0.9-2.8,3-2.6   c2,0.8-0.9,2.9,0.9,4.1c0.9-0.8,1.8-1.6,2.8-2.5c41.8,8.6,32.4,29.3,58.2,47.2c-1.8,0.3-2.2,0.3-3.6,0.2c-0.2-0.7-0.9-0.7-1.5-0.7   c-1.7-1.2-3.3-2.3-4.9-3.4c-0.7-3.5-1-4.1-3.7-5.8c-0.8,2,1.7,2.5,1.9,4c-0.3,0.5-0.6,0.9-1,1.4c2.3,1.5,4.5,2.9,6.5,4.3   c0.6-0.3,1-0.4,1.3-0.5c0.2,0.8,0.9,0.7,1.5,0.7c2.4,2.8,7,3.2,10.3,5.6c-0.8,0.9-1.8,1.6-2,2.4c-0.8,1.9-3,1.1-3.9,3   c-0.9-0.1-1.8-0.9-2.6-0.2c0.3,0.5,0.5,1,0.8,1.5c1,0.2,2,0.6,2.7-0.5c0.4-0.2,0.8-0.4,1.2-0.5c0,5.1-15.9,7.6-20.6,7.4   c-2.3,5.9-4.9,11.6-8.4,16.7c-0.5-0.3-1.2,1-1.7-0.1c1.9-5.4,6.5-11,6.9-16.3c-9.9,3.7-20.9,1.3-30.4,6.2c-2.5,1.2-5.3,1.1-7.7,2.8   c-0.1,0.1-0.4-0.2-0.6-0.3c0.9-4.2,5.7-7,8.1-10.6c6.6-12.4-10.4-13.7-13.8-3.7c1.3,3.4-8.7,15-0.9,13c0.3,0.3,0.6,0.6,0.9,0.9   c-0.1,0.4-0.1,0.8-0.2,1.2c-12,1.1-0.2-12.9-1-18.8c-2.7,1.7-5.8,0.8-8.5,1.6c-1.5,3.4-2.8,0.5-3.9,2.5c-0.7-0.2-1.4-0.5-2.2-0.8   c-2.7,1.1-9,11.3-9.6,4c-3.6,2-7.5,1.8-11.3,3.3c-2.6,1.1-3-2.5-4.7-3.6c-0.4-1.8,1.2-2.4,1.3-4.2c-1.6,0.2-2.3,1.1-2.8,2.2   c-2.5,1-6,1.7-6.1-2.1c-1.2,0.2-2.3,0.3-3.3,0.5c-0.3-0.2-0.6-0.4-0.9-0.7c0.5-1.1,1-2.2,1.5-3.3c-0.4-0.5-0.8-1.1-1.2-1.6   c-10.9,10-27.4,5.4-40.9,4.8c-0.7-0.9-1.6-1.2-2.7-1.2c0.6,2.2,6,2.5,7.9,4.4c-0.5,0.2-1,0.5-1.5,0.7c-3.1-1.1-6.2-2.2-9.3-3.3   c-0.5-1-1-2-1.4-2.8c-24.8-12.4-52.6-3.4-78,0.9c-2.8-0.3-5.5,2-8.1,1.5c-5.8-2.4-11.4,1.4-16.9,2.9c-19.8,7.2-39.9,12.4-60.2,15.5   c-2.8-1.2-6.1,0.2-9.1,0.2c-4.7,0.8-9.9-0.7-13.9,2.6c2.2,29.6,0.8,59.3-3.7,88.6c9.7,3.1,20-1.1,30,0.1c8,2.1,16.8,2.4,24.4,5.1   C585.4,325.7,583.5,325.7,581.7,325.8z M530.2,236.4L530.2,236.4c0.4-0.3,0.8-0.7,1.9-1.6c-2.3,0.4-2.8,0.5-4.7,1   c-0.7-0.3-1.8,0.2-2.3-0.7c1.4-1.3-1.5-2.1-2.4-0.2c-0.4-0.2-0.8-0.5-1.2-0.7c0-1.2-0.1-2.4-0.1-3.6c1.4-1.1,0.1-2.9,1.2-4.2   c0.3,1.4,0.5,2.6,0.8,4c1-0.3,1.8-0.5,3.1-0.8c-1.9-1.1-3.1-2.3-3.4-4c-0.7-0.2-1.2-0.3-1.7-0.4c-3.7-4.3-10.1-4.4-13.1-9.4   c-18.6-4.4-38.7,1-57.7,2.5c-5.2,6.2-16.1,4.8-20,12.3c-0.4,0-0.7,0-0.7,0c-2.6,3.4-6.4,5.2-6.7,9.6c5.2,2.1,12-0.7,13.6,6.5   c-0.5,0-1.1,0-1.6,0c-1-0.7-1.9-1.5-2.8-2.2c-3.6-0.1-7-0.5-10-2.3c-6.9,3.9-15.3,0.8-22.9,1.7c-2.1-0.5-3.6,1.3-5,2.6   c-4.1,2-8.8,0.9-13.2,1.9c0.3,0.6,0.5,0.9,0.6,1.2c-0.3,0.3-0.6,0.6-0.9,0.9c-1-0.5-1.9-1-3-1.6c-3,0.4-6.4,0.1-9.3,1.5   c-9.6,4.7-20.7,3.6-30.5,7.8c-11.8,5.1-24.7,3.4-36.6,7.5c-11.3,37.7,1.1,80.9,19.9,113.7c28.4-2.4,57.6-0.9,85.6-5.6   c9.8-0.7,18.6-4.2,27.1-9.1c12.5-5,25.8-6.8,39-9.4c19.9,2.5,31.1-33.8,53-34.4c-1.4-1.3-4.6,0.7-4.8-2c0.9-0.5,1.7-1,3-1.7   c-1.7-0.2-2.2-0.4-3.5-1.2c0.8-1.4,2.6-0.2,3.1-1.8c-1.3-0.7-3.2-0.1-4-1.9c0.3-1.3,1.8-1.2,2.7-1.9c0.2-0.7,0.5-1.5,0.8-2.3   c-0.1-0.4-0.3-0.9-0.4-1.2c0.9-1.6,3-1.6,3.2-3.7c-5.6-3.2,2.8-4.9,3.7-8c0.9,0.1,1.6,0.2,2.3,0.3c0.4,1.7-1.7,2-1.8,3.3   c0.5,0.2,1.1,0.5,1.4,0.6c0.4,1.4-1.9,0.9-1.2,2.5c0.7,0,1.5-0.1,2.5-0.1c0-3.1,0-5.6,0-8.5c-2.3,0.1-4.2,1.5-6.3,1.2   c0.5-1.9,2.4-1.6,3.4-2.7c1.3-0.3,2.1-0.9,3.5-1.2c-0.3-3.1,1-6.3-0.2-9.2c-2.2,0.7-4.6,1-7,0.7c0-0.3,0-0.5,0-0.8   c1.9-0.8,4.2-0.7,5.4-2.5c-2.3-0.6-4.5,0.2-7-0.7c2.6-2.3,5.8-1.8,9-1.7c3.1,1.6,1.1-25,0.1-27.5c0.1-5.8,0.1-19.2-0.4-21.4   c-2.2-0.9-3-1-4.8-0.8c3.2,1.4,4.7,1.4,3.7,5.3l0,0c-0.7,0.2-1.5,0.2-1.4,1.2c0.8,0.7,1.6,1.3,2.4,2c-1,3.6-5.5,4.8-8.8,5.1   c0.2,0.6,0.3,1.1,0.4,1.5c-0.5-0.1-1-0.1-1.4-0.2c-0.4-0.4-0.8-0.7-1.2-1.1C524.4,238.1,528.2,238.5,530.2,236.4z M840.1,173.7   c-1,0-2.2-0.2-2.6,1.3c1.7,0.5,2.3-0.5,2.9-1.8C840.3,173.4,840.2,173.5,840.1,173.7z M845.3,180.3c1.4,0,2.1-0.8,3-2.4   C846.5,178.3,845.2,178.4,845.3,180.3c-0.1,0.2-0.2,0.3-0.3,0.5C845.1,180.7,845.2,180.5,845.3,180.3z M531.1,313.2   c0.9-0.6,0.7-1.4,0.6-2.3c0.3-2.2,1.5-4.2,0.8-6.4c-1.6,0.6-2.9,1.1-4.4,1.7c0.9,0.7,1.6,1.3,2.5,2c-0.7,3.4-4.8,1.5-6,4.1   c1.9,0.1,3.9-0.2,5.6,0.9c0.3,1.9-1.5,1.8-2.4,2.5c0.2,0.3,0.4,0.6,0.6,0.9c-0.9,0.2-1.8,0.4-3.4,0.7c2.3,0.2,3.8,0.4,5.5,0.6   C531.2,316.4,531,314.8,531.1,313.2L531.1,313.2z M69.8,310.1c2-0.4,3-2.2,4.6-3.3c-1.6-1-3.2-1.4-5.1-1.4   C69.5,307.2,69.7,308.7,69.8,310.1c-0.2,0.3-0.4,0.5-0.7,0.7c-2.5-1.4-2.6-3.8-2.8-6.2c-6.3-2.6-14.1-6.2-21-4.1   c-1.7,0.7-3.4,0.3-4.8-0.9c-5.8-6-14.8-4.8-22.4-6.8c-4.9,3.3-11.5,32.2-10.9,39c2.6,9.8,4.9,19.5,4.4,29.8   c0.6,9.4-0.2,26.6,6.2,33.5c12.7,17.5,38.1,20.4,54.8,7.2c0.3-1.5,0.3-2.7-0.5-3.8c-0.1-1.8-0.2-3.7-0.2-5.4   c-2.8-2.5-5.3-5.3-9.2-6c-1.8,7.5-2,7.9-4.7,9.3c-2.6-0.8-1.2-3.2-0.8-4.9c0.6-0.3,0.8-0.7,0.2-1.3c-1.4,1.6-3.5,2.5-5.4,3.3   c-1.5-1.1-1.5-1.1-1.3-2.8c3.5-1.7,6.6-3.9,8.9-6.7c-0.4-1-0.7-1.7-1-2.5c1.3-0.4,2.4-0.8,3.6-1.1c-1.1-1.6-3.6-1.6-3.3-3.9   c1-1.2,2.5-0.2,3.5-0.8c-0.3-1-1.8-1.5-1.2-2.9c3.7-0.8,6.9-3,10.7-2c0.3-1,0.6-2,1-3c0.8,0.1,1.5,0.2,2.2,0.3   c1.9-1.9,4.1-3.7,6.8-2.3c3.2-2.6,6.1-5.3,9-8.4c-6.5-0.5-13.1,1.8-18.9-0.7c-0.3-1.6-1.4-2.2-2.8-2.5c-7.9-1-12-8.2-14.7-14.9   c-3.3-6.6,4-13.9,8.3-18.4c2.4-2,5.9-3,6.8-6.5c-0.2-0.5-0.4-1.1-0.6-1.7C70,311.9,69.8,311,69.8,310.1z M79,387.8   c5-4.9-0.9-10.2-5.6-11.8c-3.5,2.7-7,4.5-9.5,8.4c5,1.1,8.6,3.9,12.3,6.9C77.5,390.3,78.4,389.2,79,387.8z M79.7,351.6   c2.3-0.3,4.5-0.9,6.5-2.3c-0.1-4.7-3.8-7.8-5.2-12.1c-3-7.9-3.6-16-1.8-24.2c0.3-1.6,0.2-2.8-0.8-4c-0.6,3-3.5,2.1-5.6,3   c-0.5,6.2-4.4,9.9-9.2,13.3c-1.8,10.5,5.4,19.4,13,25.5c0,0.5-0.1,0.9-0.1,1.3c-8.5,0.2-18.4-16.7-15.1-24.9   c-2.9,1.7-3.7,5.7-5,8.7c2.3,10.1,10,13.1,17.3,18.7C75.8,353.6,77.7,352.6,79.7,351.6z M40.3,294.1c1,0.9,1.7,2,1.7,3.6   c13.3-1.1,25.5,5.7,38.7,6.8c1.9-2.1,4.5-3.7,5.8-6.4c-2.7-5.4-9.2-6.3-14.4-7.8c-8.4-1.8-12.6-11.6-21.1-13.6   c-6.7,4.7-13.9,8.7-18.6,15.7C35.4,293,37.8,293.6,40.3,294.1z M871,209.9c-2.6,2.3-4.8,4.7-8.3,5.4c-0.8,0.3-2.4,0.9-1.2,2   c2.4-1.1,4.9-2.2,7.6-3.5c0.3,0.1,0.9,0.2,1.4,0.4c0.6-0.6,1.1-1.2,1.7-1.9c0.3,0.8,0.5,1.4,0.8,2c0.7,0,1.4-0.1,2.1-0.1   c-0.3-0.9-2-0.3-1.5-1.8c1.6-0.7,3.4,0.1,5.2-0.7C876.2,211.1,873.7,210.5,871,209.9z M879.6,204.6c-3.7-1.5-7.1-1.5-9-4.2   c-1.9,0-1.9,0-3.1,0.7c1.5,1.2,3,2.3,4.5,3.5C874.2,204.6,876.5,204.6,879.6,204.6z M828.6,169.8c1.5,0,2.7,0,3.9,0   c0.2-1.2,1-2.2,0.7-3.3c-1.3-0.5-2.9-0.2-4.2-0.2C828.8,167.5,828.7,168.5,828.6,169.8z M778.4,191.7c0.2,0.2,0.4,0.4,0.6,0.5   c2.2-2.5,7.1-4.8,6.2-8.6C782.9,186.4,780.6,189,778.4,191.7z M847.9,187.5c4-1,4-1,4.9-4.2C851,184.3,846.3,184.5,847.9,187.5z    M872.1,207.4c2.4,1.9,5.9,0.8,9.3,0.7C878.1,208,874.1,204.5,872.1,207.4z M815.9,161.5c-3.3,2-5.8,3.7-7.7,6.1   C811.1,166.2,815.1,165,815.9,161.5z M816,160.3c2.9-0.3,7.7-2,7.2-4.3C821,157.3,818.5,157.8,816,160.3z M827.3,200.5   c-2.5,0.3-4.3,0.5-6,0.8c-0.3,1.1,0.3,1.2,1,2.1C823.7,202.3,825.5,202.2,827.3,200.5z M862.4,169.5c-2.3-0.4-2.9-2.9-5.6-2.6   c1.3,1.7,2.4,3.1,4,3.9C861.3,170.4,861.6,170.2,862.4,169.5z M815.6,171.7c-4.8,0.7-5,0.8-6.1,3.4   C812,175.1,813,172.9,815.6,171.7z M840.6,156.9c1.9,1.5,4,2.6,6.5,2.3C845.2,157.9,843,157.2,840.6,156.9z M805.4,187.7   c0.9,2,0.9,2,4.3,2.8c0-0.6,0.1-1.1,0.1-1.7C808.3,188.4,807.1,188.1,805.4,187.7z M855.6,183.4c-0.6,1.2-1,2.1-1.6,3.2   c2.7-0.9,4.3-2.3,3.9-3.2C857.3,183.4,856.7,183.4,855.6,183.4z M882.5,201.1c-1.4-0.5-2.8-1-4.3-1.6c-0.4,0.5-0.6,0.8-0.9,1.2   C878.8,202.5,880.7,201.4,882.5,201.1z M831.8,158.6c0-0.4-0.1-0.7-0.1-1.1c-1.8,0.1-3.6,0.8-5.6,0.9c0.2,0.5,0.3,0.9,0.5,1.3   C828.4,159.3,830.1,158.9,831.8,158.6z M869.6,184.1c1.5,2,1.5,2,3.1,2.2c-1-1.5-1.2-3.2-2.9-4.5   C869.7,182.9,869.7,183.6,869.6,184.1z M805.8,183.4c-2.8,0.1-4.8-0.9-4.4,2.5C802.6,185.2,803.8,184.5,805.8,183.4z M795.2,182.7   c1.7,1.1,2.9,0.4,4.1-0.7c-1.1-0.3-2.1-0.6-3.2-1C795.7,181.7,795.4,182.2,795.2,182.7z M865.1,192.6c-2.5,1-2.2,3-1.9,5.3   C863.9,195.9,864.5,194.3,865.1,192.6z M778,210.9c1.2-1.5,2-2.6,2.8-3.7c-0.1-0.1-0.2-0.3-0.4-0.4c-1,0.7-2,1.4-3.1,2.1   C777.5,209.6,777.6,210,778,210.9z M797.7,210.5c-0.1-0.2-0.1-0.5-0.2-0.7c-1.3,0.5-2.4-0.7-4.2-0.2   C794.8,211.7,795.8,211.2,797.7,210.5z M801.7,169c0.3,0.4,0.5,0.6,0.8,0.9c1.8-1.3,1.8-1.3,2.5-3.1   C803.8,167.7,802.9,168.3,801.7,169z M814.8,207.1c0,0.2,0,0.3,0.1,0.5c1.3-0.3,4.4,1,4.1-1.4C817.5,206.6,816.2,206.9,814.8,207.1   z M528.1,309.2c-2-1.3-2-1.3-3.5,1.1C525.8,309.9,526.8,309.6,528.1,309.2z M820.8,179.8c-1.3-0.4-2.1-0.1-2.7,1.2   c0.3,0.2,0.5,0.5,0.9,0.8C819.7,181.1,820.2,180.5,820.8,179.8z M803.9,171.5c2.2-0.5,2.2-0.5,1.8-2.1   C805.1,170.1,804.5,170.8,803.9,171.5z M841.7,198c-0.5,0.5-1.1,0.9-1.7,1.5C841.5,200.1,841.5,200.1,841.7,198z M530.5,229.6   c-0.3-1.6-1.1-1.5-2.7-1C529.1,229.1,529.8,229.4,530.5,229.6z M524.8,231.5c-0.8-0.5-2.4-0.1-1.7,0.9   C524,232.7,524.4,232.3,524.8,231.5z M852.5,162.4c1.1,1.6,1.8,1.9,2.9,1.3C854.1,163,854.3,163.1,852.5,162.4z M825.6,188.2   c0.8,0.5,2.2,0.1,1.6-0.9C826.4,187,826,187.5,825.6,188.2z M861.1,193.7c0.6-1.4-0.6-2.3-1.5-0.9   C860.1,193.1,860.5,193.4,861.1,193.7z M798.1,198.5c-0.3-1.5-1.9-1.3-1.8,0.3C796.9,198.7,797.4,198.6,798.1,198.5z M841.1,211.1   c0.9-0.2,1.6-1.7,0.4-1.8C840.8,209.7,840.9,210.3,841.1,211.1z M843.7,178.4c-1.1,0.1-1.1,0.1-1,1.1   C843.1,179.1,843.3,178.8,843.7,178.4z" />
	<path d="M792.1,263c-2.2,0.5-4.3,0.9-6.1,2.2c-0.7,1.8-1.4,3.4-2.1,5.3c9.2,6.1,6.5,19.3,7.1,28.8c1.2,10.7-6,18.4-10.3,27.4   c-9,18.6-14.4,26.7-11.5,48c15.3,4.4,31.3,2,44.5-6.6c5-3,11-0.4,16.1-2.9c1.8-0.8,3.4-0.6,4.6,1c3.1,3.2,8.8,4.3,9.7,9.3   c0.9,0.6,1.8,1.3,2.7,1.9c6.1-2.4,17.7,3.4,11.2,10.3c1.2,2.2,1.3,4.5-0.4,6.7c-0.5-0.2-0.9-0.5-1.4-0.7c-1.1-2.8-1.4-5.6-4.9-6.7   c0.9-2.7-0.6-4.5-1.9-6.6c-1.6,0.3-3.1,0.5-4.6,0.8c-0.5-0.8-0.2-2.2-1.2-2.1c-1.5,0.2-4.5-1.1-4.4,1.3l0,0c-0.2,0.3-0.4,0.6-0.6,1   c1.2,0.5,2.1,0.7,2.9-0.3l0,0c0.5-0.1,0.9,0,1.3,0.1c0,0.2,0,0.5,0.2,0.7c-0.2,0.1-0.2,0.3-0.2,0.5c-1.1,0.1-2.1,0.3-3.2,0.3   c-1,0-1.8,1.4-3.3,0.5c0.1-2.4,1.6-4.6,1.5-7.1c0.3-0.2,0.7-0.3,1-0.5c0.7,0.4,1.4,0.8,2.3,1.4c0.2-0.9,0.4-1.6,0.5-2.2   c-19.1-12.8-25.5,25.7-57.3,27.5c0,0,0,0.2-0.1,0.5c-7,0.8-14.5,0-20.9-2.9c1.1-17.7,1.6-35.8,4.3-53.2c7.6-21.4,26-42.2,18.4-66.7   c-1.3-4.5-6-8-3.9-13.1c-10.9-15.9,11-39.1-33.8-31.7c-0.3,1,0.2,1.9,0.7,2.7l0.1,0c-1.6-0.1-1.8-1.8-2.9-2.7   c-34,1.6-71.1,32.7-66.2,68.6c13.9,1.7,30.6-5.3,42.5,4.3c2.2,17.6-15.5,28.9-17.4,45.6c-3.3,13,2.2,26.5-1.5,39.2   c-1.3,11.5-3.7,25.3,3.7,35.1c2.8,4.7,0.8,12.1,5.7,15.7c23.7,12.8,60.1-0.9,81.9-14.5c0.1-0.4,0.2-0.9,0.4-1.5   c15-6.1,29-11.1,45.3-6.8c-7.6,3.9-16.7-1.4-24.1,2.2c-4.7,3.5-10.5,3.8-15.8,5.7c-22.6,18.9-53.9,26.4-82.9,21   c-11.5-2.6-10.9-15.7-15.2-24.2c-5.9-4.1-2-16.2-2.7-22.6c-2.5-7.5,2.3-15,1.2-22.8c-2.2-19.2-0.9-33,10.5-49.1   c-15.4,2.2-31.3,0.5-45.6-6.1c-0.1-0.2-0.1-0.5-0.1-0.7l-0.1,0.1c10.3-1.3,21.1,6.5,30.8,4.1c-9.3-5.2-19.5-10.3-20.8-22.1   c-4.5-1.7-9.3-2.8-12.9-6.3c4-2,8.1,3.3,12.5,2.6c-0.9-29.2,17.6-56.8,45.6-66.2c17.1-4.4,38.6-12.1,54.6-1.3   c0.1,0.8,0.9,0.5,1.5,0.5c0.7,0.9,1.4,1.8,2.2,3c-4.7-14.1-23.9-14.3-35.3-20.8c11.9-1.5,39.2,10.8,39.4,23.9   c-1.6,1.4-0.9,3.2-0.9,4.8c0.4,5.1-3.4,13.9,1.8,17c2.7-1.6,5.5-2.6,8.5-3.3C798.6,260.3,795.9,262.9,792.1,263z M792.9,397.3   c1.4-2.3,3.5-0.6,5.2-2.1c1.5-0.8,3.4-0.9,4.5-2.4l-0.1,0.1c2.2-0.2,3.9-1.3,5.2-2.9c0.4-0.1,0.9-0.2,0.7-0.8   c1.2,0.2,2-0.5,2.6-1.4c2.7-4.3,7-7.3,9.8-11.6c2.7-4.9,9.7-3.8,12.3-8.2c-0.3-0.3-0.6-0.6-0.9-0.9c-31,6.3-27.1,15.4-63,10.5   c-0.2,7.5-3.2,13.8-4.1,20.9c2.7,0.6,5.5,1.2,8.2,1.7c5.7-2,11.5-0.2,17.2-2.2C791.5,398.3,792.2,397.7,792.9,397.3z M713.6,326.8   c2.7-5.6,7.6-10.5,7.7-16.7c-9-8.9-20,2.1-30.4-1.2c-3.3-0.4-7.1-3.4-10.1-1.2c1.5,10.8,13.2,15.4,21.2,20.6   C706.2,327.8,709.8,327.3,713.6,326.8z M855.5,386.9c2.5-2.8,0.9-8.3-3.3-7c0.6,1.2,1.1,2.3,1.7,3.4   C854.4,384.4,853.4,386.1,855.5,386.9z" />
	<path fill="#020203" d="M581.7,325.8c1.9-0.1,3.8-0.1,5.9-0.2c-1.3-1.1-2.4-0.2-3.4-1.4c3.3,0.3,7.2-0.9,10.2,0.8   c1.9,1,1.9,1,2.8-0.7c-3.3-1.1-6.5-0.5-9.9-1.2c7.1-3.4,15,2,22.7,1.6c9.6-2.1,17.7,2.9,28.1-1.7c-1.8,3.2-5.3,3.6-8.4,4.4   c1.9,0.3,3.8,1,5.6-0.2c10.7,2.3,20.7-6.2,30.9-3l0.1-0.1c-1.3,0-2.7-0.6-3.7,0.8c-9.4,2.9-18.7,7.7-28.8,5.5   c-7.6-0.6-15.1,1.9-22.5-1c-5.2-2.7-11.2-0.3-16.4-3C590.4,324.9,585.9,327,581.7,325.8z M624.1,327.8c-2.6-1.1-5.2-0.6-7.8-0.3   c3.2,1.2,6.8,1.9,10.2,0.5C625.6,327.9,624.9,327.9,624.1,327.8z" />
	<path fill="#0E0E0D" d="M845.4,258.8c-0.5,3.4-5.4,0.5-7.7,0.6c-0.6,1-1.1,1.9-1.8,2.9c-1.3,0.3-2.6,0.6-4.2,1   c-1.1,1.8-3,2.7-5.2,2.5c-2.9,3.3-5.4,6.6-8.2,9.6c-4.5,0-8.8,0.4-12.8-1.4c12.7-2.4,9.7,2.6,19.6-9.2c2.6-0.6,4.2-1,5.4-3.5   c3.5,0.9,5.2-1.9,6.7-4.2c0.5,0.2,1.1,0.5,1.7,0.7c0-0.8,0.1-1.5,0.1-2.2c0.8,0.6,1.6,1.3,2.7,2.2c0.7,0,1.8,0,2.8,0   C844.8,258.1,845.1,258.5,845.4,258.8z" />
	<path fill="#121111" d="M840.8,420.8c-1.4-0.9-3-0.7-4.6-0.8c22.6-2.2,9.4-5.3,18.5-15.9c1.8-3-1.5-6.6,1.3-9.1   c0.3-0.2,0.2-0.9,0.3-1.4c0.5,0.2,0.9,0.5,1.4,0.7c-1.6,5.1,3.7,10.1-3.5,13.4C854.9,417.1,850,421.3,840.8,420.8z" />
	<path fill="#161414" d="M845.4,258.8c-0.3-0.3-0.6-0.7-0.9-1c0.8-5.2,6.6-12.6,5.1-17c-0.1-1.5,0-2.8,1.6-3.6c1.3,0,4,2,4.5,0   c1.5,0,3,0,4.4,0c-1.4,1.1-3.5,0.8-5,2.2c-0.1,0.6-0.2,1.3-0.3,2.2c-0.8-0.3-1.5-0.6-2.4-0.9C850.3,246.9,848.1,252.9,845.4,258.8z   " />
	<path fill="#151414" d="M157,283.7c-0.3-0.9-1.1-0.8-1.7-0.9c7.9-4,16.4-7.5,25.3-8c-0.1,0.2-0.3,0.5-0.4,0.5   c-1.3,0-1.7,1.1-2.5,1.7c-0.4-0.9-1-0.8-1.5-0.1C169.5,278.4,163.3,281.3,157,283.7z" />
	<path fill="#141312" d="M860.1,237.2c-2.9,0.2-5.6-0.2-8.1-1.5l0,0c0-0.2,0-0.5,0-0.7c2.6-1.4,5.7-0.6,8.3,0c0.5-0.6,0.9-1,1.3-1.5   c0.5,1,1.1-0.2,1.7,0.1C862.7,235.2,861.3,236.1,860.1,237.2z" />
	<path fill="#1A1918" d="M792.1,263c1.2-0.3,2.4-0.6,3.7-0.8c2.5,2.3,4.6,4.9,6.2,7.9c-0.3,0.3-0.6,0.6-0.9,1   C797.8,268.6,796.4,263.9,792.1,263z" />
	<path fill="#2F2A28" d="M250.1,266.6c-0.8,0.1-1.7,0.2-3.1,0.3c1.2,0.4,1.8,0.6,3.2,1c-3.2,0.4-5.6,0.5-8.2-1.1   C245,267.1,247.2,264.9,250.1,266.6z" />
	<path fill="#0C0A09" d="M221.9,331.7c0.3-0.3,0.7-0.6,1-0.9c3.3,1.1,6.7,0.9,10.2,0.9C229.4,332.8,225.6,332.9,221.9,331.7z" />
	<path fill="#383432" d="M801,271.1c0.3-0.3,0.6-0.6,0.9-1c2,2.3,4.7,2.4,7.4,3c-1.3,0.1-2.7-0.1-3.8,0.8   C803.7,273.5,802.3,272.4,801,271.1z" />
	<path fill="#2D2D2D" d="M891,209.9c-0.7,1.1-1.6,0.7-2.7,0.5c-0.2-0.5-0.5-1-0.8-1.5c0.8-0.7,1.7,0.1,2.6,0.2   C890.5,209.4,890.8,209.6,891,209.9z" />
	<path fill="#8B8B8B" d="M89.9,353.8c-1.2,1-2.6,0.7-4.3,0.7c0.4-1.1,1.1-1.5,2.1-1.5C88.1,354.2,89.2,353.4,89.9,353.8z" />
	<path fill="#B7BDD5" d="M662.4,325c1-1.4,2.4-0.8,3.7-0.8c0,0.2,0,0.5,0.1,0.7C664.9,324.9,663.6,325,662.4,325z" />
	<path fill="#282828" d="M887.6,199.4c-1,0-1.4-0.6-1.7-1.4l0,0c0.5,0,1.1,0,1.6,0C887.5,198.5,887.5,199,887.6,199.4z" />
	<path fill="#2D2D2D" d="M890.3,209.1c0.2-0.2,0.4-0.5,0.6-0.7C890.7,208.6,890.5,208.8,890.3,209.1z" />
	<path fill="#4B65C5" d="M396,375.1c-24.7,3.3-49.7,2.1-74.4,4.3c-2.3-3.7-6.1-6.9-6-11.6c-5-12.9-12.8-25.6-13.9-39.9   c2-1.5,1.1-3.8,1.8-6.2c1-1,3.1-2.2,3.3-4.1c3.6,0.5,7.5-2,11.4-0.3c3,1.1,5.4-1.8,8.5-1.3c0.3,0,0.6-0.4,0.9-0.6   c6.1,0.5,8.5,8.4,13.3,11.6c-1.8-5.2-7.6-7.2-8.9-12.3c10.3-2.9,21-3.7,31.4-4.3c5.7,4.1,9.5,11.5,15.2,14.9   c-4.4-6.2-9.8-12.2-15-17.3c7.3-1,15.4-2.1,22.2-4.5c2.6,1.9,4.2,5.5,7.5,6.1c-1.6-2.1-3.2-4-4.7-6c31.9-5.8,64.6-7.3,96.3-13.8   c-16.7-0.5-34.3-4.6-50.4,0.4c-14.9-4.9-33,4.8-49,2.8c23.1-6.3,47.2-11,71.2-10.9c-2.7,2.6-7.2,1.6-10.1,3.9   c6.5-0.5,12.9-3,19-5.3c12.1,2.3,25.1,1.1,37.7,1.5c-1.7,3.2-7.2,6-7.1,9.5c3.6-3.4,7.1-6.9,10.6-10.4c1,1.7,3.4,0.3,5,1.4   c3.6,1.7,7,0.5,10.5-0.6c-0.1,8-0.9,15.7-1.7,23.7c-4.3,4.1-16.9,7.4-11.6,15.1c2.3-5.8,9.2-9.3,13-13.4c0.6,0.2,1.2,0.4,1.8,0.6   c-0.3,0.8-0.6,1.6-0.8,2.3c-1,0.8-2.4,0.6-2.7,1.9c0.8,1.8,2.7,1.2,4,1.9c-0.5,1.6-2.3,0.5-3.1,1.8c1.3,0.8,1.8,0.9,3.5,1.2   c-1.3,0.7-2.1,1.2-3,1.7c0.2,2.7,3.4,0.6,4.8,2c-2.8,1.1-2.8,1.1-6.2,0.9c-3.8,2.3-7.8,4.2-11.2,7c-0.3,0-0.5-0.1-0.8-0.1   c1.6-2.2,4.2-3.8,4.3-6.8c-1.6,0.6-7.3,6.8-5.7,7.5c0.5-0.3,1-0.5,1.5-0.8c0,0.3,0.1,0.5,0.1,0.8c-32.3,38.6-32.4,19.5-73.9,35.3   c-9.1,4.6-19.9,10.6-30.2,8.3c4-0.6,7.2-2.8,9.7-5.9c6.5-3.5,14.4-4.9,19.8-9.9c-13.2,0.2-21.7,14.7-34.5,15.3   C397.4,373,394.2,372.6,396,375.1z M452.1,348.7c-1.5,2.1-3.5,2.6-3.7,5.6c17.8-17,33.3-37.4,45.3-58.6   C479.7,313.2,468,332.6,452.1,348.7z M503,304.4c-5.5,13.1-10.4,26.6-20.5,37.1c-1.6,2.5-5.3,4.4-4.4,7.8   c17.7-15.5,24.4-38.9,31.9-60.3C506.5,293.1,505,299.2,503,304.4z M386,305.1c-4.8,0-9.4,2.1-14,3   C376.5,309.9,381.5,306.4,386,305.1z" />
	<path fill="#CCD2E9" d="M744.3,217.8c10.9,5.8,24.8,6.2,33.1,16.4c0,0.4,0,0.9,0,1.3c-16.7-10.8-38.3-4.2-56.2,0.8   c-25.4,8.4-40.9,30.5-45.6,56.1c-3.4-3.9-7.7-5-12.8-4.4c-9.3-1-18.2-5.2-27.7-5.2c-5.1,0-10.2-0.1-15.1,1.6   c-7,1.4-11.8-4.7-18.8-2.4c-0.1,0.8,0.5,0.8,1.1,0.9c0.6,0.8,1.5,0.7,2.4,0.6c6.2-0.8,11.4,3.7,17.6,3.7c0.6-0.4,1.2-0.9,1.9-1.4   c0.4,0.5,0.8,0.9,1.2,1.4c-0.5,0.4-1,0.9-1.6,1.4c1.4,0.5,2.3,0.4,3.1-0.5c1.6,1.1,3.9,0.8,5.2,2.9c0,1,0,2.2,0,3.1   c0.8,1,1.4,1.7,1.7,2.1c-0.1,1.8-0.1,3.1-0.2,4.4c-0.7,0.4-1.8-0.5-2.2,0.8c-1.4,1-2.9,2-4.3,3c-1.4-0.3-2.7,1.4-4.2,0.4   c1.8-3.5,1.1-5.2-2.6-7.7c1.2-1.2,2-1.4,2-3.5c-2.4,1.6-3.6,3-5.6,4.2c-4.6-1.8-9.8-0.3-14.8-0.7c1.1-2.5,5.7-3.4,4.7-6.4   c-2.8,2.6-6,4.7-8.3,7.7c-7.7-0.3-15.4,3.5-22.5,2.9l0,0c1.3-0.3,1.1-2.5,1.9-3.4c5.7-3,17.6-9.5,13.6-16.9   c-16.6,11.3-36.7,18.9-55.9,24.9c2.4-24.6,3.4-49.4,1.5-74c3.9-3.3,9.2-1.8,13.9-2.6c2.1,4,2.3,8,4.5,11.9c0-1.7,0.4-2.9-0.6-4   c-0.4-2.9-1.6-5.5-3-8c2.7,0,5.6-1.3,8.2-0.1c0,0.9-0.4,2,1.2,2.3c0.1-1,0.2-1.9,0.3-2.8c2.9-0.3,5.9-0.6,8.8-0.9   c1.4,3.1,1.5,14.8,4.1,15.1c-0.4-5.4-2.2-10.3-2.5-15.7c24.6-3.4,48.6-16.8,73.4-17.9c25.4-4.2,53.3-13.3,78-0.9   c0.4,0.8,0.9,1.8,1.4,2.8C731.2,213,737.4,216.7,744.3,217.8z M661,210.1c5.3-0.3,10.6-1.2,15.9-1.9c-7.1-1.3-13.4,1.4-20.5,1.3   C658.1,210.8,659.5,210.7,661,210.1z M545.8,246.7c-0.2,1.6-0.4,3.2,0.6,4.7c-0.7-6.4,1.8-14.5-0.8-20   C545.7,236.6,545.7,241.6,545.8,246.7z M629,224.5c-10.5,2.7-27,3.5-34.4,11.3c14.9-5.5,30.1-10.3,46-12.5   C636.6,222.8,632.7,223,629,224.5z M647.5,225.2c0.5,0.3,1,0.6,1.5,0.9c18.8-13.7,41.3-5.8,62.4-11.5c-1-1-1-1-1.3-1   c-17.2,4.9-35.8-2-52.1,5.8c-4.7,0.6-15.1-2.5-14.1,5.1c-1.9,1.9-5.9,2.9-5.8,6c-1.2,1-2.5,1.9-3.7,2.9c-5.9-0.5-10.9,2.8-16.8,3.1   c-1,1.1-2.6,1.9-3.2,3.8c5.7,1.7,11.3,0.9,17,1.8c1.9-3.4,4.5-6.3,7.5-9.7c-0.4-0.8-0.6-1.4-0.9-2   C641,228.4,644.3,226.8,647.5,225.2z M542.9,243.7c-0.3,7.9-0.2,9.3,0.7,10.9c1.8-2.4,0.2-6.8,0.7-9.8c-0.5-3.6,1.3-8.5-0.7-11.3   C541.6,236,543.4,240.5,542.9,243.7z M710.2,207.4c-10.2-2.2-19.9-1.4-29.7-0.1C689.9,209.9,700.5,207.6,710.2,207.4z M636.2,240.1   c-1.9,0.6-3.8,2.6-3.1,4.5c0.5-0.1,0.9-0.2,1.4-0.3c0.3,0.3,0.5,0.6,0.8,0.9c2,0.1,2.3-1.7,0.8-2.8   C636.3,241.6,637,240.9,636.2,240.1z M592.1,275.7c-2.6,1.6-2.6,1.6-2.2,3.6C591.7,278.9,591.7,278.9,592.1,275.7z M594.6,275.9   c1,1.2,3.8-0.6,2.2-1.7C596.1,274.7,594.7,274.3,594.6,275.9z M588.3,236.9c1.7,0.8,5.1,0,3.5-1.8   C590.8,235.6,589.7,236.2,588.3,236.9z M647.2,210.9c0,0.1,0,0.2,0.1,0.4c1-0.1,4,0.6,2.7-1.4C649.1,210.2,648.1,210.6,647.2,210.9   z" />
	<path fill="#5876E8" d="M306.7,317.6c-0.2,1.8-2.3,3.1-3.3,4.1c-0.7,2.4,0.2,4.8-1.8,6.2c-3.8-20.5-7.5-42.2,0.1-62.2   c11.9-4.1,24.9-2.4,36.6-7.5c9.8-4.2,20.9-3.1,30.5-7.8c9.7-4.7,15.5,3.2,22,7.2c-2.9-3.1-5.1-6.1-8.8-8c-0.2-0.3-0.3-0.6-0.6-1.2   c4.4-1,9.1,0.1,13.2-1.9c3.1,0.6,5.9,2.1,8.8,3.2c-0.2,0.4-0.3,0.8-0.6,1.5c11.7,5.1,23.1,9.9,34.6,15.5c0.5-0.6,0.9-1.2,1.4-1.7   c-6.1-9.5-20-11.8-29.1-18.4c-1,3-3.1,0.6-4.7-0.7c-0.3,0.9-0.6,1.5-0.8,2.2c-2.7-1.1-5.3-2.1-8-3.2c7.9-3.8,18.4,2.1,26.2-2.8   c3,1.8,6.4,2.2,10,2.3c2.2,1.4,3.4,3.4,6,4c-5.7-9.9-5.8-5.6-15.2-8.3c0.3-4.5,4.2-6.2,6.7-9.6c0,0,0.3,0,0.7,0   c0.8,1,1.8,0.7,2.8,0.4c-0.4-1-1.1-1.3-2-1.3c3.7-6.9,14.6-5.3,19.2-11.5c19-1.5,39.1-6.9,57.7-2.5c3.1,5,9.4,5.2,13.1,9.4   c0,8.9,0,17.6,0,26.5c0.8-0.4,1.4-0.6,1.9-0.8c0.3,0.1,0.7,0.2,1,0.3c0,0.5,0.1,1,0.1,1.5c-0.5,0.8-1.6,1.6-0.3,2.7   c3.1-2.3,9.6-2.3,9.1-7.2c0.2,0,0.4,0,0.7,0c0,4.4,1.3,8.6,1.4,13.1c-1.5,2.1,0.6,5.2-1.4,6.8c-0.6-1-0.7-2.8-2.2-2.2   c-1.1-0.1-2.2-0.2-3.1,0.6c-0.8,0-1.6,0-2,0.8c-1.9,0.5-1.9,0.5-1.7,2.2c-0.4,0-0.8,0.1-1.2,0.1c-1.9-3.7,0.3-8.2-1.5-12.1   c-0.1,8.2,0.2,16.4-0.1,24.5c-3.4,1.1-6.9,2.3-10.5,0.6c-1.6-1.1-4,0.2-5-1.4c2.4-3.4,6.8-5,8.2-8.8c-4.7,2.2-7.9,6.3-11.8,9.7   c-12.3-0.4-25.2,0.9-37-1.4c13.7-3.7,27.7-5.7,40.9-10.8c0.6-0.2,1.4-0.6,0.7-1.7c-39.6,15.6-82.1,12.4-122.5,24.6   c15.8,1.5,32.3-6.2,47.5-3.6c-15.5,4.4-31.4,8.2-47.1,11.7c-3.3-2.8-5.7-7.8-10.2-8.5c3.5,3.7,6.9,7.3,10.2,10.8   c-6.8,2.4-14.8,3.4-22.2,4.5c-15.2-13.2-33.7-23.4-46.6-38.3c1.6,4.4,5,6.7,7.6,10.2c0,0,0,0,0,0c-3.3,1.7-6-3-10-0.9   c15.5,6.3,28.7,17.1,39.9,29.3c-0.5,0.5-0.9,0.8-1.3,1.1c-7.6,0.7-15.1,1.9-22.3,4.4c-10.9-7.8-18.7-20.8-26.8-30.9   c2.9,8.6,9.8,14.9,15.2,22c-3,0.6-4.6-5.1-8.3-4c2.4,4.6,5.6,8.4,8,12.6C315.4,316.3,310.1,314.6,306.7,317.6z M511.8,265.2   c1.7,0.2,8.1-0.1,6-2.9c-2,0.5-4.2,0.9-6.1,2.1c-1.3,0-2.2,0.5-3.5,2C510.2,266.1,510.6,266.1,511.8,265.2z M362.8,263.7   c0.9,1.8,1.9,3.5,3.3,5c0.6-1.7-1.8-4-2.4-5.9c-1.3-2.7-1.3-6-3.7-7.9C359.4,258.6,361.1,261.2,362.8,263.7z M508.1,223.1   c4.2,1.6,7.8,5.1,12.4,5c-2.6-3.3-12.4-4.9-17.1-9.2c-2.8-1.3-4.5,2-7.3,3.5c2.9-0.2,4.6-1.6,6.2-2.6   C504.4,221,506.2,222.1,508.1,223.1z M501.4,245.9c-4.8,1.2-17,2.2-14.3,9.4c3.7,0.8,6-3.5,9.1-4.9c17.4,2.5,27.6-9.9,11.1-5.1   c-0.2-0.4-0.4-0.8-0.8-1.4C504.7,244.6,503,245.2,501.4,245.9z M505.2,234.2c0.1,0.3,0.3,0.7,0.4,1c-0.4,0.8-1.9,0.7-1.6,2.4   c2.9,1.5,6.2,1.9,9.7,1.8c-0.1,0.6-0.2,1.1-0.3,1.5c1.5,1.5,3.8-0.1,5.6-0.2c1.6-0.5,0.6-2.5,0.9-3.7c-0.5-0.8-1-1.5-1.4-2.2   c0.3-0.5,0.6-1,0.9-1.5c-5.4-3.4-13.4-3-19.2-1C502,233.1,503.6,233.6,505.2,234.2z M353.2,285.1c-0.2-0.1-0.3-0.2-0.5-0.3   c2.5,1.9,22,25.5,21.5,15.2C367.2,295.1,361.1,288.5,353.2,285.1z M455.9,241.4c-1,2-1,2-0.7,4.9c6.4,4.8,14.6,2.2,21.9,1.9   C500.9,249.1,472.8,225.6,455.9,241.4z M441,251.6c2.2,5.8,9.9,8.9,13.4,14.4C455.7,261,446.1,250.2,441,251.6z M437.2,253.6   c-0.7-4.1-5.1-5.9-8.2-8c-1.7-1.1-5.6,0.1-3.8,2.6C428.6,251.3,432.8,251.6,437.2,253.6z M503.1,255.1c6,1.4,9-2,14.2-3.6   C511.5,250.5,508.3,253.8,503.1,255.1z M451.2,244.5c-1-1.5-7.8,0.8-5.3,2.7C448.1,247,449.9,246.2,451.2,244.5z M533.3,261.1   c-2.7-0.7-4.9,0-7.4,1.6C530.9,263,532.1,262.8,533.3,261.1z M442.2,234.6c-3.4,2.2-4.4,3.6-4.6,6.2   C439.2,241.2,441.1,236.5,442.2,234.6z M532.7,259.9c-1.8-1.6-2.5-1.5-6.4,0C528.5,261.2,530.5,259.7,532.7,259.9z" />
	<path fill="#FBDFD3" d="M285.4,321.9c1,0.3,1.9,0.6,2.9,0.9c-11.1,9.1-28.7,1.2-41.1-1.8c14.3-16.7,17.2-1.6,25.2-9.8   c-8.9,2.6-16.6-4.5-25.5-1.5c1.8,1,3.1,0.4,4.4-0.1l0-0.1c1.1,0.8,2.5,1,3.8,1.4c-1.7,2.8-4.7,2-7.4,2.5   c-6.8,3.3-13.7,5.9-20.9,7.7c-9,1-20.2-3.7-27.9,2.1c6.3,0.6,12.5-0.7,18.5-1.3c0.1,0.4,0.3,0.8,0.4,1.2c-11.7,2.5-24,5.5-35.8,3.3   c3.5-0.5,7.8-0.7,10.2-3.5c-3.4,0-5.6,2-8.8,2.6c-3.7,0.4-8.8-1-11.8,0.8l0,0c-15-1.9-29.5,0.8-44.3,2.2c-14.3,1.1-29,0.4-42.8,5.2   c-0.8-1.6-1.4-3.3-1.6-5.4c12.6-2.8,28.4-1,38.5-9.8c-8.6-1.5-16.3,1.7-24.7,2.1c-5,2.1-9.7-2.4-14.2,1.2c-0.9-3.3-1.5-6-0.6-9.6   c81-4.9,92.2-59.1,179.4-41.1c-0.1,0.6-0.2,1.2-0.2,1.9c4.8,1.4,9.6,2.4,14.5,1.6c1.8,0.3,3.1,2.1,5.1,1.3c1.4-0.4,3.1-0.1,4.2-1.7   c-2.5-1.9-5.3-0.6-7.9-0.4c-2.7-0.3-5.3-0.8-8-1.3c8.2-5.5,18.2-1.2,27.5-1.2c-7.8,12.7-8.6,28.2-8.6,43.3   c-7.2,0.7-15.1-0.7-21.5,2.8c0.5,0.4,1.1,0.9,1.6,1.3c-0.4,2.6-2.5,0.2-2.5,2.5c4.3,0.8,8.7-1.1,12.8,0.1c0.8-0.2,1.5-0.4,2.2-0.6   C282.3,322,283.2,322.2,285.4,321.9z M237.4,312.5c-0.2,0.3-0.4,0.6-0.7,1c1.7,0.7,6.3-0.5,6.7-2.5   C241.3,311.9,239.1,311.2,237.4,312.5z M167,310.1c-1.2,0.5-4.2-0.8-3.9,1.3c7.9,1.4,79.3-0.7,74.2-12.4c-2.7-5.2-17.5,3.5-23.4,3   C198.1,304.6,181.7,304,167,310.1z M241.9,301.7c1.6-0.9,3-1.4,3.4-3.2c-1.4,0.7-3.1,0.3-4.3,1.7   C241.3,300.6,241.5,301,241.9,301.7z M153.4,312.7c1.7,1.9,3.6,1.6,5.3-0.2C156.6,312.4,155.1,312,153.4,312.7z M148.9,314.1   c-0.7-0.8-0.8-0.2-1.3,0.2C148.1,314.8,148.4,314.4,148.9,314.1z" />
	<path fill="#E4E4EB" d="M69.2,312.5c0.2,0.6,0.4,1.2,0.6,1.7c-1.8,5.1-8.3,6-10.9,10.7c-4.8,6.9-7.2,10.9-2.3,18.6   c4.1,11,13.2,8.4,15.6,13c5.9,2.5,12.4,0.2,18.9,0.7c-2.9,3.1-5.8,5.8-9,8.4c-2.7-1.4-4.9,0.4-6.8,2.3c-0.7-0.1-1.4-0.2-2.2-0.3   c-0.3,1-0.6,2-1,3c-3.8-1-7,1.2-10.7,2c-0.6,1.4,0.9,1.9,1.2,2.9c-1.1,0.7-2.5-0.4-3.5,0.8c-0.2,2.4,2.3,2.3,3.3,3.9   c-1.2,0.4-2.3,0.7-3.6,1.1c0.3,0.8,0.6,1.5,1,2.5c-2.3,2.9-5.5,5.1-8.9,6.7c-0.2,1.7-0.2,1.7,1.3,2.8c1.7-0.4,3.4-2.4,5.2-2   c-0.4,1.7-1.9,4.1,0.8,4.9c2.7-1.4,2.9-1.8,4.7-9.3c3.8,0.7,6.3,3.5,9.2,6c0.1,2.7,0.4,5.8-0.2,8.4c-14.8,2.5-29.1,0.8-43.1-3   c-12.9-14.8-15.8-22-12.6-41.8c2.6-3.9,2.8-5.3,1.3-9.6c-10.7-20.5-0.6-33.1,3-53.8c5.6,1.5,12.3,0.6,17.2,4.1   c2.2,1.7,4.7,4.5,7.7,3.2c6.9-2.1,14.7,1.5,21,4.1c0.1,2.4,0.3,4.9,2.8,6.2C69.2,311.4,69.2,312,69.2,312.5z M30.8,296.9   c-1.8,1-2.1,2-2.3,5.7C29.8,301.5,30,301,30.8,296.9z" />
	<path fill="#B7BDD5" d="M633.6,300.6c0.1-1.3,0.1-2.6,0.2-4.4c-0.3-0.3-0.9-1.1-1.7-2.1c0-1,0-2.2,0-3.1c-1.3-2.1-3.6-1.9-5.2-2.9   c-0.2-0.8-0.9-0.8-1.5-0.9c-0.4-0.4-0.7-0.9-1.2-1.4c-0.7,0.5-1.3,1-1.9,1.4c0.7-1.6-0.7-2-1.5-2.7c13-4.5,26.9,0.5,39.8,3.4   c5.6,0.1,11.1-0.3,15,4.6c0,3.3,0,6.6,0,10.1c-4.4,0.8-8.5-4.6-12.5-2.6c3.6,3.4,8.4,4.5,12.9,6.3c1.3,11.8,11.5,16.9,20.8,22.1   c-9.7,2.4-20.6-5.4-30.8-4.1c-10.6-3.7-21.8,6.8-32.5,2.2c1.6-0.9,3.4-1.4,4.3-3.4c-10.4,4.6-18.4-0.4-28.1,1.7   c-7.6,0.3-15.5-5-22.7-1.6c0.6,0.1,1,0.3,1.4,0.4c0,0.2,0,0.5-0.1,0.7c-8.6,0.4-16.9-2.2-25.3-3.7c-10-1.2-20.3,2.9-30-0.1   c0.7-4.9,1-9.8,2.2-14.6c18.9-5.1,36.6-14.1,54-22.8c-8.3,16.4-30.8,21.4-45.3,28.5c4.4,1,8.2,0,10.9-3.3c7.6-1.4,14.8-1.6,20.8-7   c7.1,0.6,14.8-3.1,22.5-2.9c0.3-0.3,0.7-0.9,1.2-1.4c0.1,0.4,0.2,0.8,0.5,1.5c1-1,1.4-1.3,0.3-2.2c0.5-0.5,1-0.9,1.5-1.4   c0.2,0.9,0.8,0.7,1.4,0.7c-0.4,0.5-0.9,1-1.4,1.6c5,0.4,10.2-1.1,14.8,0.7c-0.2,0.4-0.3,0.8-0.7,1.6c1.7-0.9,3-1.5,4.3-2.2   c3.7,2.4,4.3,4.2,2.6,7.7c1.5,1,2.8-0.6,4.2-0.4c-0.7,2.7-3.4,3-4.4,5.9c4.3-2.1,7.7-6.6,12.6-8.7c2.6-0.8,5.4-0.9,7.8-2.5   c0,2.1-2.6,2-3.3,3.7c1.7,1,2,2.8,2.4,4.4c3.3-0.3,6.1-3.2,9.3-4.5c-1.2-3.3-3.4-4.9-6-7.1c-0.8,1.5-0.6,3.4-2.4,3.5   c0.3-0.8,0.6-1.5,0.9-2.3c-0.5-0.3-0.8-0.4-1.3-0.7C639.7,297.4,637,301.2,633.6,300.6z M584.1,314.6c1.6-0.1,2-0.6,4.1-1.4   c-4.5-0.7-6.8,1.2-10.7,2.1c-4.3-1.3-9.3-1.2-13.3,0.7c-4.2-1.6-9.3-0.4-9.6,0.4c2.6,1.3,5.2,2,8.1,1c1.3,0.5,2.4-0.2,3.5-0.7   C571.9,313.1,578.7,319,584.1,314.6z M653.6,307.4c2.8-0.6,5.2-1.8,6.3-4.6c-2.5-2.4-5.5,2.8-7.9,3.8c-1.9,0.9-6.6,1.7-5.8,4.3   c1.7-0.4,2.9-1.6,3.7-2.6C651.4,307.9,652.5,307.6,653.6,307.4z M590.3,312.9c7.8,3.2,17.6,2.4,24.8-0.6c-5.9-2-13.5,2.1-20.1-0.3   C593.4,311.9,590.8,310.3,590.3,312.9z M650.8,294c2.1,1.9,5.6,7.6,7.4,4C656.9,295.2,654.6,294.1,650.8,294z M608.1,305.6   c1.9,0.4,2,0.4,2.4,0.1c1.3-1.3,5.2-2.5,3.6-4.8C612.3,303,608.1,301.9,608.1,305.6z M668.8,311.3c-2.5-0.2-4.5,0.3-6.2,2.3   C666.7,313.8,667.5,313.5,668.8,311.3z M650,294c-1.8-2.4-3.5-3.5-6.3-2.8C645.8,293.1,647.1,295.2,650,294z M636.6,289.3   c-2-1.5-4-2.1-6.5-1.6C632.3,289.5,633.7,289.9,636.6,289.3z M542,313c-1.5-0.6-3.6-1-3.8,0.8c0.6,0.3,1.3,0.5,2,0.9   C540.8,314.1,541.4,313.6,542,313z M668.7,319.7c3.1-0.1,3.1-0.1,4.6-1.3C672,317.7,671.8,317.8,668.7,319.7z M644.3,315   c3-1.7,3-1.7,1.5-3.6C645.4,312.6,645,313.4,644.3,315z M660.9,314.7c-1.4-0.3-2.1,0.2-2.8,1.4   C659.6,316.3,660.4,316.1,660.9,314.7z M639.1,290.9c1,0,1.6,0,3,0c-1.2-0.7-1.6-1-2.1-1.3C639.8,289.9,639.7,290.1,639.1,290.9z" />
	<path fill="#EECABA" d="M84.7,333.8c13.8-4.8,28.5-4,42.8-5.2c14.7-1.4,29.3-4.1,44.3-2.2c14.5,1.5,31.1,0.8,46.1-3.2   c-0.1-0.3-0.3-0.8-0.4-1.2c6.3,1.8,14,2.9,18.7-2.7c-1.1-0.2-1.8-0.3-2.5-0.4c4.6-1.4,9.6-2.9,14-5.5c2.7-0.6,5.6,0.2,7.4-2.5   c1.3,0.4,2.6,0.9,3.9,1.3c-4.9,1.4-7.9,5.4-11.8,8.7c8.3,2.3,29.6,9.3,36.8,4.4c3.4-3.3,7.7-2.7,12.2-2.9c1.3,3.5,1.4,7.4,2.8,11.3   c-20.2,4.1-41.9,0.4-61.6-4.5c-0.8-0.9-1.9-0.9-3-0.8l0.1,0.1c3.1-3,9.2-2.5,11.5-6.4c-3.2-1.5-12,3.5-16.3,3.9   c-17.6,5.7-36.6,7-55,9c-1.1-2.5-13.1-1.9-15.2-0.1c2.4,0.2,3.3-0.3,4.8,0.8c-25.1,1.5-49.6,9-75.1,8.1   C87.7,340.8,85.5,337.5,84.7,333.8z M165.6,328.4c0.3-0.3,0.5-0.6,0.7-0.8C165.7,326.9,164.7,327.9,165.6,328.4z" />
	<path fill="#FBDFD3" d="M861.5,233.5c-0.4,0.4-0.8,0.9-1.3,1.5c-3.3-0.5-8.1-2.7-11-0.8c1,0.4,2,0.6,2.6,1.5c0,0,0,0,0,0   c-0.3,0.5-0.5,1-0.8,1.5c-1.5,0.7-1.7,2.1-1.6,3.6c-0.4,0-0.7,0-1.3,0c-2.1,4.9-4.4,9.8-9.1,12.6c-3,2.7-2.8,9.2-8.7,7.9   c-1.2,2.5-2.8,2.9-5.4,3.5c-2.3,2.5-4.7,5.1-7.2,7.8c-1.5,0-3.1,0-4.7,0c-1.5-2.8-1.9-5.7-4-8.1c0-0.9,0.1-1.7-0.6-2.4   c-5.2-13.1,1.6-21.7,9-32.1c2.1-0.9,3.6-2.5,5.9-2.7c0.4-0.3,0.4-1.2,0.5-1.8c1.5-1.2,1.5-1.2,0.6-2.3c0-1.7,0.6-3.3,0.9-5   c1.7,0.6,2.7,1.9,4.4,1.6c0.6-0.9,1.2-1.8,1.7-2.5c-0.1-0.8-0.2-1.3-0.3-1.9c1-0.1,1.9-0.1,2.9-0.2c0.3-0.2,0.5-0.5,0.8-0.7   c2.6-0.3,3.3-3.9,2.4-5.9c-1.9-1-3.9-0.8-5.8-0.9c-0.6,0.7-1.1,1.4-1.6,2c-0.1-0.1-0.1-0.2-0.2-0.3c-1.2,0.7-2.4,1.4-3.7,2.1   c-1.1-0.4-0.7-1.4-0.8-2.2c5.7-8.1,18.3-4.1,12.4,6.1c-2.4,3.6-7.2,6.5-8.1,10.6c0.2,0.1,0.5,0.4,0.6,0.3c2.5-1.7,5.2-1.5,7.7-2.8   c9.5-4.9,20.5-2.5,30.4-6.2C868,222.5,863.4,228.1,861.5,233.5z" />
	<path fill="#FBDFD3" d="M781.9,256.4c-0.2-3.3,1-6.5,0.9-9.8c0-1.6-0.7-3.4,0.9-4.8c-4.8-22.4-34.6-21-51.2-29.8   c0.5-0.9,1.5-0.3,2.2-0.7c4.1,0.2,8.2,1.2,12.3,0.2c0.7,1.5,0.7,1.5,2.3,1c0-0.4,0.1-0.7,0.1-1.1c1,0,1.9,0,2.9,0   c0.1,0.3,0.3,0.7,0.4,1c-0.3,0.3-0.5,0.6-0.9,1.1c6.3,0,13.8,3.1,18.9-2.3l0,0c1.5,0.1,2.7-0.2,4.4-0.4c0,3.8,3.6,3,6.1,2.1   c1.9,1.6,3.5,6.7,6.2,5.7c3.8-1.5,7.7-1.4,11.3-3.3c0.6,7.3,6.9-2.9,9.6-4c1.6,0.6,2.8,0.9,4.3,1c1.1,3.4-0.8,6.4-0.5,9.1   c-0.9,1.1-0.9,2.4-1.9,2.7c-0.5,0-0.8,0.2-0.9,0.8c-0.2,0.6-1.2,1-0.3,2c0.8-0.7,1.9-1.2,2.4-2.3c0,0,0,0,0,0   c1.4,0.8,0.7,2.1,0.8,3.2c-1.7,1.9-4.9,8.1-4.4,1.6c-6.2,15.1-10.9,19.6-24.6,28.2C782.5,257,782.2,256.7,781.9,256.4z    M786.3,225.4c0.4,2.2,2.2-0.9,2.2-2.1C787.3,223.9,786.6,224.4,786.3,225.4z M791.1,220.1c0.3-0.2,0.3-0.3,0-0.5   c-0.1,0.1-0.2,0.2-0.3,0.3C790.9,220,791,220,791.1,220.1z" />
	<path fill="#CFCFDD" d="M20.5,293.3c-3.7,20.6-13.7,33.5-3,53.8c1.5,4.3,1.2,5.8-1.3,9.6c-3.2,20-0.3,27,12.6,41.8   c14,3.8,28.3,5.4,43.1,3c0.1-0.9,0.3-1.9,0.4-3c0.8,1.1,0.8,2.3,0.5,3.8c-16.7,13.1-42.1,10.3-54.8-7.2c-6.5-7.1-5.6-24-6.2-33.5   c0.4-10.3-1.8-20-4.4-29.8c-0.6-7,6-35.5,10.9-39C18.8,292.9,19.6,293.1,20.5,293.3z" />
	<path fill="#E4E4EB" d="M47.7,279.1c0.8-1.2,1.8-1.9,3.4-2.4c8.5,2,12.6,11.8,21.1,13.6c5.2,1.6,11.8,2.4,14.4,7.8   c-1.3,2.7-3.9,4.2-5.8,6.4c-13.2-1-25.5-7.9-38.7-6.8c0-1.6-0.7-2.7-1.7-3.6c-0.2-0.6-0.4-1.1-0.6-1.8   C42,287.8,46.1,284,47.7,279.1z" />
	<path fill="#EECABA" d="M810.6,223.8c0.4-0.7,0.8-1.4,1.4-2.4c-0.3-2.7,1.6-5.7,0.5-9.1c-0.7-0.1-1.4-0.2-2.1-0.3   c1.1-2,2.4,0.9,3.9-2.5c2.7-0.8,5.8,0.1,8.5-1.6c0.8,5.9-11,19.9,1,18.8c-0.1,0.2-0.2,0.6-0.3,0.6c-2.3,0.2-3.8,1.9-5.9,2.7   c-1.7,3.8-5,6.5-7,10.1c-0.1-0.6,0.5-1.5-0.7-1.8c-2.4,3.1-4.1,7.3-4.2,11.2c0.5-0.2,0.9-0.3,1.2-0.4c-0.1,0.8,0.3,1.7-0.7,2.2   c-3-2.1,1,14.6,2.9,13.3c2.1,2.3,2.5,5.3,4,8.1c1.6,0,3.2,0,4.7,0c-2.6,1.4-6.7,0.7-9.5,0.3c-6.7,0.5-8.1-7.2-12.6-10.6   c1.9-4.8-9.4,0.1-11.1,1.3c-3.2-0.6-2.1-4.8-2.7-7.2c0.3,0.3,0.6,0.7,1.1,1.2c4.7-3.9,10.5-6.6,15-10.8c-1,1.9-2.8,3.6-3,5.8   c6.2-5.5,9.1-13.3,12.5-20.6c1.4,1.3,3.1-3.3,4.4-4.3C812.3,226.1,812,224.9,810.6,223.8z M793,252.6c-0.7,2.4-3.5,2.6-4.4,5.6   c2.2-1.9,3.9-2.5,5.5-4.6C793.8,253.4,793.6,253.2,793,252.6z" />
	<path fill="#F9DED2" d="M157,283.7c4.1-1.6,8.1-3.6,12.4-4.6c0.5,0.2,1.3,0,1.5,0.7c-28.3,13-56.1,28.4-88,29.5   c-0.6-1-1.1-1.8-1.6-2.7c3.7-0.1,6-2.4,8.2-5.1C113.2,301.8,135.8,293.8,157,283.7z" />
	<path fill="#EDC9B9" d="M284.6,322c-2.2-0.1-2.2-0.1-3.8-1.5c-0.7,0.2-1.5,0.4-2.2,0.6c0-0.4,0-0.7,0.1-1.4c-3.7-0.1-7.4,0.6-11,0   c0.1-0.3,0.3-0.7,0.5-1.2c-0.5-0.4-1-0.8-1.6-1.3c6.3-3.5,14.3-2.1,21.5-2.8c0.9-12.6-1.1-28.7,7-38.9c-3.1,14.7-0.6,29.2,0.6,43.9   c-4.6,0.7-8.6,1-13.2,1.3C283.4,321.3,284,321.7,284.6,322z" />
	<path fill="#EDC9BA" d="M81.8,319.1c0.7,1,0.8,1.6,0.9,2.9c4.5-3.6,9.3,0.9,14.2-1.2c8.5-0.4,16.1-3.6,24.7-2.1   c-1.2,2.8-5,2.7-7.4,4.1c-0.7-1.6-2.8-1.3-3.5,0.4c0.4,0.2,0.9,0.3,1.3,0.5c-7.4,2.5-15.7,3.9-23.7,3.6c1.2-0.5,2.3-1.1,4-1.8   c-3.4-1.7-6.8-0.7-9.9-1.3C81.5,322.5,81.6,320.8,81.8,319.1z M99.3,323.4c2.6,0.3,5.4,2.2,7.4-0.5c-3.3,0-13.4-2.2-13.8,1.7   C95.1,325.4,97.2,324,99.3,323.4z" />
	<path fill="#F8F8F8" d="M76.6,350.8c0.9,0.7,2,0.8,3.1,0.8c-1.9,1-3.9,2-6,3.1c-7.3-5.6-15-8.6-17.3-18.7c1.2-3,2-7,5-8.7   c-3.3,8.1,6.6,25.1,15.1,24.9C76.5,351.7,76.5,351.3,76.6,350.8z" />
	<path fill="#4963C1" d="M530.3,291.8c-1,1.1-2.9,0.8-3.4,2.7c2.1,0.3,4-1.1,6.3-1.2c0,0.7,0,1.4,0,2.1c-1,0.2-1.9-0.1-3.1-0.2   c-0.8,3.1-9.3,4.8-3.7,8c0.1,1.7-1.4,1.7-2.1,2.5c-0.7,0-1.4,0-2.3,0c0.1-1.4,0.1-2.4,0.2-3.5c1.4-6.3,0.8-13.4,1.4-20   c0.3,0,0.5,0,0.8,0c1.5,1.4,2.2,3.6,4.6,3.8c-0.3,0.2-0.6,0.4-0.9,0.7c-0.9,0-1.6,0.2-2,1.3c0.7,0,1.3,0.1,2,0.1   c0,0.6,0.1,1.1,0.1,1.5C528.9,290.4,529.6,291.1,530.3,291.8z" />
	<path fill="#E1E1E8" d="M65.2,384.9c-0.4-0.1-0.9-0.3-1.4-0.5c2.4-3.9,6-5.7,9.5-8.4c4.7,1.6,10.6,6.9,5.6,11.8   C71.9,384.9,74,381.2,65.2,384.9z" />
	<path fill="#05060C" d="M533.3,248.3c-0.1,0.2-0.1,0.4-0.1,0.7c-0.6,0.3-0.5,0.5,0,0.8c-0.9,3.5-6.3,3.6-9.1,5.7   c-1.9-1.7,1-3.1,2.3-3.7c0-0.2-0.1-0.3-0.1-0.5c-1,0-2,0.1-3-0.3c0-0.5-0.1-1.2,0.1-1.3c1.5-0.8,1.4-2.4,2-3.5   c1.8-1.1,3.8-1.3,5.4-2.8c-1.7-1-3.1,0.5-4.6,0.3c0.1-0.3,0.2-0.6,0.3-0.8c-0.5-0.3-0.9-0.6-1.4-1c-0.1-0.4-0.2-0.9-0.4-1.5   c0.5,0,1,0,1.4,0c1.4,1.2,4.2,1.3,4.7-0.8c-0.8-0.1-1.4-0.1-2-0.2c0.8-0.4,1.6-0.8,2.5-1.3c0.4,0.7,0.8,1.4,1.2,2   c-0.2,0.5-0.3,0.8-0.4,1.2c0.3,0.6,0.7,1.2,1,1.8c-0.7,1.2-1.3,2.3-1.8,3.2C532.1,247.1,532.7,247.7,533.3,248.3z" />
	<path fill="#04050A" d="M522.2,302.2c0,1.1-0.1,2.2-0.2,3.5c0.9,0,1.6,0,2.3,0c-0.4,0.4-0.8,0.8-1.2,1.2c0.1,0.4,0.2,0.8,0.4,1.2   c-0.6-0.2-1.2-0.4-1.8-0.6c-3.8,4.1-10.7,7.6-13,13.4c-5.3-7.7,7.3-11,11.6-15.1c0.4-4,0.7-7.9,1.1-11.8   C523,296.2,521.8,299.6,522.2,302.2z" />
	<path fill="#CCCCDA" d="M47.7,279.1c-1.6,4.8-5.7,8.6-8,13.2c0.2,0.7,0.4,1.2,0.6,1.8c-2.5-0.5-5-1.1-7.8-1.7   C36.3,286.3,42.2,283.2,47.7,279.1z" />
	<path fill="#0C0A09" d="M220.4,329.4c7.7-3.1,15.9-4.8,23.7-7.4c0.7-0.2,1.4-0.6,1.9,0.4c-2.3,3.9-8.4,3.4-11.5,6.4   c-3.9,0.4-8.1,0.3-11.7,1.6C222.3,329.2,221.2,329.5,220.4,329.4z" />
	<path fill="#536FDA" d="M524.4,282.2c-0.3,0-0.5,0-0.8,0c0.1-2.7-0.5-5.4,0.4-8c3.9-1.4,9,3.3,9.9-2.4l0,0c0.2,0,0.5,0.1,0.7,0.1   c0,0.5,0,1,0,1.5c-1.1,0.8-0.4,2.1-0.6,3.1c-3.1,0-6.4-0.6-9,1.7c2.4,1,4.6,0.1,7,0.7C530.2,281.1,526.8,280.9,524.4,282.2z" />
	<path fill="#CACAD8" d="M65.2,384.9c8.7-3.7,6.6,0.1,13.7,2.9c-0.5,1.4-1.5,2.5-2.8,3.5C72.7,388.7,69.7,385.9,65.2,384.9z" />
	<path fill="#E1C8BD" d="M753.9,213.5c-0.6,0-1.2,0-2.1,0c0.4-0.5,0.7-0.8,0.9-1.1c-0.1-0.3-0.3-0.7-0.4-1   c7.4,1.6,13.3-0.8,18.8-5.7c0.4,0.5,0.8,1,1.2,1.6c-0.5,1.1-1,2.2-1.5,3.3c0,0,0,0,0,0c-3.8,0.6-7.5,1.4-11,3.1   C757.9,213.4,755.4,211.7,753.9,213.5z" />
	<path fill="#0C1020" d="M534.6,273.3c0-1.5,0-2.7,0-4.3c-1,0.4-1.7,0.6-2.3,0.8c0.6,0.7,1.1,1.3,1.6,1.9l0,0c-3.5,0-7.6,1-10.7-1.1   c0.1-0.3,0.3-0.7,0.4-1c13.7-3,9.8,1.4,11.7-8.3c-0.4,4.9,1.1,10.4-0.6,14.9C534.7,275.3,534.6,274.3,534.6,273.3z" />
	<path fill="#4158AC" d="M533.3,248.3c-0.6-0.6-1.2-1.2-2-2c0.5-0.9,1.1-2,1.8-3.2c-0.3-0.6-0.7-1.2-1-1.8c0.1-0.4,0.2-0.7,0.4-1.2   c-0.4-0.6-0.8-1.3-1.2-2c1.3-0.4,1.7-1.5,2.2-2.9c-0.8-0.6-1.6-1.3-2.4-2c0-1,0.8-1,1.4-1.2c0.1,0.1,0.2,0.3,0.2,0.2   c0,0-0.1-0.1-0.2-0.2c1-3.9-0.4-3.9-3.7-5.3c1.8-0.3,2.6-0.1,4.8,0.8c0.4,2,0.6,14.9,0.4,20.7C533.7,248.2,533.5,248.3,533.3,248.3   z" />
	<path fill="#E8CDC2" d="M825.4,209.2c0.1,0.8-0.3,1.8,0.8,2.2c0.5,4.1-3.4,6.9-2.8,11c0.5,0,0.8,0,1.2,0c0,0.3,0,0.5,0,0.8   c-3.2,3.9-6.3,0.6-3.4-3.1C824,216.9,822.9,212.1,825.4,209.2z" />
	<path fill="#323232" d="M871,209.9c2.7,0.6,5.1,1.2,7.8,1.8c-1.8,0.8-3.6,0-5.2,0.7c-0.6,1.5,1.2,0.8,1.5,1.8   c-0.7,0-1.4,0.1-2.1,0.1c-0.2-0.7-0.4-1.2-0.8-2c-0.6,0.7-1.1,1.2-1.7,1.9c-0.5-0.1-1.1-0.3-1.4-0.4c-2.7,1.2-5.2,2.4-7.6,3.5   c-1.3-1.1,0.3-1.7,1.2-2C866.2,214.5,868.4,212.1,871,209.9z" />
	<path fill="#526ED7" d="M525.1,241.7c0.5,0.3,0.9,0.7,1.4,1c-0.1,0.3-0.2,0.5-0.3,0.8c1.5,0.2,2.9-1.2,4.6-0.3   c-1.5,1.5-3.6,1.7-5.4,2.8c-0.6,1.1-0.5,2.8-2,3.5c-0.2,0.1-0.1,0.9-0.1,1.3c-0.5,0.2-1.1,0.5-1.9,0.8c0-1.3,0-2.5,0-3.6   C523.7,246.7,521.1,240.6,525.1,241.7z" />
	<path fill="#141212" d="M275.7,274.7c-4.9,0.8-9.7-0.2-14.5-1.6c0.1-0.7,0.2-1.3,0.2-1.9C266.1,271.9,271.5,272.3,275.7,274.7z" />
	<path fill="#5471DD" d="M528.9,286c-1.9-0.1-2.8-1.6-3.8-3c0.5-0.3,1-0.5,1.4-0.8c2.4,0.3,4.8,0,7-0.7c0.9,1,0.5,2,0.4,2.9   c-0.6,0-1.2,0-1.4,0.7C531.3,285.4,530.1,285.7,528.9,286z" />
	<path fill="#EFD4C8" d="M164.3,336c-1.5-1.1-2.4-0.6-4.8-0.8c2-1.8,14.1-2.5,15.2,0.1C171.2,335.9,167.8,336.4,164.3,336z" />
	<path fill="#455CB4" d="M526.6,311c1.7-0.7,3.4-0.8,3.9-2.8c-0.9-0.7-1.6-1.3-2.5-2c1.5-0.6,2.9-1.1,4.4-1.7   c0.7,2.2-0.5,4.2-0.8,6.4c-1,0.5-0.6,1.4-0.6,2.3l0,0c-0.3,0-0.6,0-0.9,0c-1.3-0.9-2.8-0.8-4.2-0.9   C526.2,311.9,526.4,311.5,526.6,311z" />
	<path fill="#506CD4" d="M532.5,285.1c0.3-0.7,0.9-0.7,1.4-0.7c0,2.1-0.1,4.2-0.1,6.3c-1.1,0.6-2.1-0.1-2.8,1   c-0.2,0.1-0.5,0.1-0.7,0.2c-0.7-0.7-1.4-1.5-2.2-2.4c0-0.4-0.1-1.4,0-2c1.9-0.3,4.5,0.6,5.1-1.9   C533.1,285.4,532.8,285.3,532.5,285.1z" />
	<path fill="#161D39" d="M523.6,241.6c-2,1.4-0.2,5.1-2.2,6.6c0-4.6,0-9.3,0.1-13.9c0.4,0.2,0.8,0.5,1.2,0.7   c0.5,1.2,1.5,0.3,2.4,0.2c0.5,1,1.6,0.4,2.3,0.7c-1.5,0.4-2.9,0.7-4.4,1.1c-0.2,0.9-0.6,1.9,0.6,2.5c-0.4,0.4-0.8,0.7-1.2,1.1   C522.8,240.8,523.2,241.2,523.6,241.6z" />
	<path fill="#383838" d="M879.6,204.6c-3.1,0-5.4,0-7.6,0c-1.5-1.2-3-2.3-4.5-3.5c1.2-0.7,1.2-0.7,3.1-0.7   C872.6,203,876,203.1,879.6,204.6z" />
	<path fill="#282828" d="M884.4,197.3c-0.3,0.1-0.7,0.3-1.3,0.5c-2-1.3-4.2-2.8-6.5-4.3c0.4-0.5,0.7-1,1-1.4c-0.1-1.6-2.7-2-1.9-4   c2.7,1.7,3.1,2.3,3.7,5.8C881,195,882.7,196.2,884.4,197.3C884.4,197.3,884.4,197.3,884.4,197.3z" />
	<path fill="#0D1223" d="M403.3,249.8c-2.9-1.1-5.7-2.7-8.8-3.2c0.5-0.5,1.1-1.1,1.6-1.6c3.7,1.5,7.5,2.7,10.9,4.7   c-0.3,0.3-0.5,0.5-0.8,0.8C405.2,250.3,404.3,250.1,403.3,249.8z" />
	<path fill="#393939" d="M828.6,169.8c0.1-1.3,0.2-2.3,0.3-3.5c1.4,0.1,2.9-0.2,4.2,0.2c0.3,1-0.5,2.1-0.7,3.3   C831.2,169.8,830,169.8,828.6,169.8z" />
	<path fill="#292829" d="M735.3,213.6c3.6,1.5,7.5,2.2,11.2,3.5c-4.2,1.4-8.9-1-12.7-2.8C734.3,214.1,734.8,213.9,735.3,213.6z" />
	<path fill="#3F56A7" d="M404.1,373.1c0.9,0.8,2,0.7,3.1,0.7c-3.4,1-7.5,1.4-11.2,1.4c-0.5-1.3-1.2-2,0.8-2.2c1.7,1.2,3.4,1,5.2,0   C402.7,373,403.4,373,404.1,373.1z" />
	<path fill="#5370DC" d="M523.6,239.4c-1.2-0.6-0.7-1.6-0.6-2.5c2.3-0.6,4.6-1.1,6.9-1.7c0.1,0.4,0.1,0.8,0.2,1.2l0,0   C528.5,238.1,525.8,238.3,523.6,239.4z" />
	<path fill="#343434" d="M778.4,191.7c2.2-2.7,4.5-5.3,6.8-8.1c0.9,3.9-4,6.1-6.2,8.6C778.8,192.1,778.6,191.9,778.4,191.7z" />
	<path fill="#343434" d="M847.9,187.5c-1.6-2.9,3.1-3.2,4.9-4.2C852,186.5,852,186.5,847.9,187.5z" />
	<path fill="#C5C5CB" d="M69.9,310.2c-0.2-1.5-0.4-3-0.6-4.8c1.9,0,3.5,0.4,5.1,1.4C72.8,308,71.8,309.7,69.9,310.2L69.9,310.2z" />
	<path fill="#2B2B2B" d="M872.1,207.4c2-2.9,6,0.6,9.3,0.7C878,208.3,874.6,209.3,872.1,207.4z" />
	<path fill="#2E2E2E" d="M815.9,161.5c-0.8,3.5-4.7,4.7-7.7,6.1C810.1,165.1,812.6,163.4,815.9,161.5z" />
	<path fill="#4A64C4" d="M521.4,230.6c0-1.8,0-3.5,0-5.3c0.5,0.1,1,0.2,1.7,0.4c0.3,1.6,1.5,2.9,3.4,4c-1.3,0.3-2.1,0.5-3.1,0.8   c-0.3-1.4-0.5-2.7-0.8-4C521.5,227.7,522.8,229.5,521.4,230.6z" />
	<path fill="#E5CCC0" d="M231.5,328.8c0.5,0,1,0,1.4,0c-0.2,0.4-0.5,0.8-0.7,1.3c-3.1,0.2-6.2,1.1-9.3,0.7c0-0.2,0-0.3-0.2-0.4   C225.3,328.5,229.1,330.4,231.5,328.8z" />
	<path fill="#29386D" d="M532.4,295.5c0.3,0,0.5-0.1,0.8-0.1c0,2.1,0,4.1,0,6.4c-1,0-1.8,0.1-2.5,0.1c-0.7-1.7,1.6-1.2,1.2-2.5   c-0.3-0.1-0.8-0.4-1.4-0.6C530.7,297.5,532.8,297.2,532.4,295.5z" />
	<path fill="#35488C" d="M530.1,313.3c0.3,0,0.6,0,0.9,0c-0.1,1.5,0.1,3.1-0.6,4.7c-1.7-0.2-3.2-0.3-5.5-0.6   c1.6-0.3,2.4-0.5,3.4-0.7c-0.2-0.4-0.4-0.6-0.6-0.9C528.6,315,530.5,315.2,530.1,313.3z" />
	<path fill="#282828" d="M816,160.3c2.4-2.5,5-3,7.2-4.3C823.7,158.3,818.9,159.9,816,160.3z" />
	<path fill="#181818" d="M827.3,200.5c-1.8,1.8-3.6,1.8-5.1,2.8c-0.6-0.8-1.2-1-1-2.1C823,201,824.8,200.8,827.3,200.5z" />
	<path fill="#262626" d="M862.4,169.5c-0.8,0.7-1.1,0.9-1.5,1.3c-1.7-0.8-2.7-2.2-4-3.9C859.5,166.6,860.2,169.1,862.4,169.5z" />
	<path fill="#565861" d="M553.7,236.6c-1-2.5-2-4.9-3-7.4c0.3,0,0.6-0.1,0.9-0.1c1.1,2.2,2.4,4.2,2.7,6.7   C554.2,236,554,236.3,553.7,236.6z" />
	<path fill="#2B2B2B" d="M815.6,171.7c-2.6,1.2-3.5,3.4-6.1,3.4C810.6,172.5,810.8,172.4,815.6,171.7z" />
	<path fill="#42444B" d="M571.7,226.9c0.2,2.1,0.5,4.3,0.7,6.4c-0.3,0.5-0.5,1-0.8,1.6c-0.5-2.5-1-4.9-1.5-7.4   C570.7,227.3,571.2,227.1,571.7,226.9z" />
	<path fill="#B4A098" d="M170.9,279.9c-0.2-0.8-1-0.6-1.5-0.7c2.1-1.2,4.4-1.8,6.7-2.2c0,0.3,0,0.6,0,0.8   C174.4,278.5,172.7,279.2,170.9,279.9z" />
	<path fill="#1C1C1C" d="M840.6,156.9c2.4,0.2,4.6,1,6.5,2.3C844.6,159.5,842.5,158.4,840.6,156.9z" />
	<path fill="#313131" d="M805.4,187.7c1.7,0.4,3,0.7,4.4,1.1c0,0.6-0.1,1.1-0.1,1.7C806.3,189.7,806.3,189.7,805.4,187.7z" />
	<path fill="#353535" d="M855.6,183.4c1,0,1.7,0,2.4,0c0.4,0.9-1.2,2.3-3.9,3.2C854.6,185.4,855.1,184.5,855.6,183.4z" />
	<path fill="#1A1A1A" d="M882.5,201.1c-1.8,0.3-3.6,1.4-5.3-0.4c0.3-0.4,0.6-0.7,0.9-1.2C879.6,200.1,881,200.6,882.5,201.1z" />
	<path fill="#202020" d="M831.8,158.6c-1.7,0.4-3.4,0.7-5.2,1.1c-0.1-0.4-0.3-0.7-0.5-1.3c2,0,3.7-0.8,5.6-0.9   C831.8,157.9,831.8,158.2,831.8,158.6z" />
	<path fill="#1B2447" d="M382,249.7c1.9,0.7,3.4,2.1,4.5,3.7c-0.3,0-0.6,0.1-0.9,0.1c-1.5-1-3-2-4.5-3   C381.4,250.3,381.7,250,382,249.7z" />
	<path fill="#C7B1A7" d="M269.1,272.5c-1.8,0.1-3.5-0.5-5.1-1.2l-0.1,0c2.4-0.1,4.9-0.4,7.3-0.1   C270.6,271.6,269.9,272.1,269.1,272.5z" />
	<path fill="#333333" d="M869.6,184.1c0-0.6,0.1-1.3,0.1-2.3c1.7,1.3,2,3,2.9,4.5C871.2,186.1,871.2,186.1,869.6,184.1z" />
	<path fill="#303030" d="M782.6,214.9c-0.5-0.7-1-1.4-1.5-2c0.5-1.1,1.2-2,2.8-2.2C783.9,212.5,782.3,213.1,782.6,214.9z" />
	<path fill="#303030" d="M805.8,183.4c-2,1.1-3.2,1.8-4.4,2.5C801,182.5,803,183.5,805.8,183.4z" />
	<path fill="#353535" d="M795.2,182.7c0.3-0.5,0.5-1,0.9-1.7c1.1,0.3,2.1,0.6,3.2,1C798,183.1,796.9,183.8,795.2,182.7z" />
	<path fill="#202020" d="M865.1,192.6c-0.6,1.7-1.2,3.3-1.9,5.3C862.9,195.6,862.6,193.7,865.1,192.6z" />
	<path fill="#272727" d="M778,210.9c-0.3-0.9-0.5-1.3-0.7-1.9c1.1-0.7,2.1-1.4,3.1-2.1c0.1,0.1,0.2,0.3,0.4,0.4   C780,208.3,779.2,209.4,778,210.9z" />
	<path fill="#232323" d="M797.7,210.5c-1.9,0.7-2.9,1.2-4.3-0.9c1.7-0.5,2.9,0.7,4.2,0.2C797.6,210,797.7,210.3,797.7,210.5z" />
	<path fill="#4259AF" d="M528.8,239.3c0.6,0,1.2,0.1,2,0.2c-0.5,2.1-3.3,2-4.7,0.8C527,239.9,527.9,239.6,528.8,239.3z" />
	<path fill="#232323" d="M801.7,169c1.1-0.7,2.1-1.4,3.2-2.1c-0.7,1.7-0.7,1.8-2.5,3.1C802.3,169.7,802,169.4,801.7,169z" />
	<path fill="#2B2726" d="M814.8,207.1c1.4-0.2,2.7-0.5,4.1-1c0.4,2.4-2.7,1.2-4.1,1.4C814.8,207.4,814.8,207.2,814.8,207.1z" />
	<path fill="#242424" d="M845.3,180.3c-0.1-1.9,1.2-2.1,3-2.3C847.4,179.5,846.7,180.4,845.3,180.3L845.3,180.3z" />
	<path fill="#202C55" d="M528.1,309.2c-1.3,0.4-2.3,0.7-3.5,1.1C526,307.8,526,307.8,528.1,309.2z" />
	<path fill="#465FBA" d="M525.2,235.1c-0.9,0.1-1.9,1-2.4-0.2C523.6,232.9,526.6,233.8,525.2,235.1z" />
	<path fill="#242424" d="M820.8,179.8c-0.6,0.7-1.1,1.3-1.8,2c-0.4-0.4-0.7-0.6-0.9-0.8C818.8,179.7,819.5,179.4,820.8,179.8z" />
	<path fill="#1E1E1E" d="M803.9,171.5c0.6-0.7,1.2-1.3,1.8-2.1C806.1,171,806.1,171,803.9,171.5z" />
	<path fill="#685C57" d="M730.3,211.2c-2.4-0.8-2.4-0.8-2.8-2c1.1,0.1,2,0.4,2.7,1.2C730.2,210.8,730.2,211,730.3,211.2z" />
	<path fill="#141212" d="M269.1,271c-1.7,0.1-3.4,0.2-5.1,0.3C264.9,269.9,267.7,270,269.1,271z" />
	<path fill="#B09C94" d="M730.3,211.2c0-0.2,0-0.5-0.1-0.7c1.5,0.1,3.1-0.1,4.5,0.7c-0.7,0.4-1.7-0.2-2.2,0.7   C731.7,211.7,731,211.5,730.3,211.2z" />
	<path fill="#2E2E2E" d="M841.7,198c-0.2,2.1-0.2,2.1-1.7,1.5C840.6,199,841.2,198.5,841.7,198z" />
	<path fill="#51535C" d="M561.3,228.4c-0.1,0.9-0.2,1.9-0.3,2.8c-1.6-0.3-1.2-1.4-1.2-2.3C560.4,228.8,560.9,228.6,561.3,228.4z" />
	<path fill="#3B4F9C" d="M530.5,229.6c-0.7-0.3-1.4-0.5-2.7-1C529.4,228.1,530.2,228,530.5,229.6z" />
	<path fill="#BAA69D" d="M232.2,330c0.2-0.4,0.5-0.8,0.7-1.3c0.5,0,1,0,1.5,0l-0.1-0.1c0.2,0.5,0.4,1,0.6,1.4   C234,330.1,233.1,330,232.2,330z" />
	<path fill="#2A386E" d="M436.8,246.8c0.4,0.5,0.9,1,1.6,1.8c-1.9-0.6-1.9-0.6-3.3-1.9C435.7,246.7,436.2,246.7,436.8,246.8z" />
	<path fill="#4158AC" d="M534.6,253.4c-1.1-1.2-0.5-3-0.6-4.5C535.1,250.3,534.6,251.9,534.6,253.4z" />
	<path fill="#2C396A" d="M431.4,229.8c0.9,0,1.6,0.2,2,1.3c-1,0.3-2,0.6-2.8-0.4C430.9,230.3,431.2,230,431.4,229.8z" />
	<path fill="#5A504C" d="M749.4,211.4c0,0.4-0.1,0.7-0.1,1.1c-1.5,0.5-1.5,0.5-2.3-1C747.8,211.4,748.6,211.4,749.4,211.4z" />
	<path fill="#352E2B" d="M284.6,322c-0.6-0.4-1.2-0.7-2.1-1.3c1.4-0.2,2.5-0.4,3.6-0.1c-0.2,0.4-0.5,0.9-0.7,1.3   C285.1,322,284.8,322,284.6,322z" />
	<path fill="#202020" d="M840.1,173.7c-0.5,1.1-1.3,1.7-2.6,1.3C838,173.5,839.1,173.7,840.1,173.7L840.1,173.7z" />
	<path fill="#4962C1" d="M534.6,273.3c0.1,1,0.1,2,0.2,3c-0.2,0.3-0.4,0.9-0.8,0.1C534.2,275.4,533.4,274.2,534.6,273.3z" />
	<path fill="#2D3C76" d="M524.8,231.5c-0.3,0.9-1.9,1.6-1.8,0.3C523.5,231.1,524.1,231.2,524.8,231.5z" />
	<path fill="#242424" d="M852.5,162.4c1.8,0.7,1.6,0.5,2.9,1.3C854.3,164.3,853.6,164,852.5,162.4z" />
	<path fill="#2B2B2B" d="M825.6,188.2c0.3-0.8,1.8-1.5,1.8-0.3C826.9,188.6,826.3,188.5,825.6,188.2z" />
	<path fill="#202020" d="M861.1,193.7c-0.6-0.4-1.1-0.6-1.5-0.9C860.5,191.4,861.7,192.4,861.1,193.7z" />
	<path fill="#0C0A09" d="M235,330.1c-0.2-0.5-0.4-1-0.6-1.4c1.1-0.1,2.2-0.2,3,0.8C236.6,329.6,235.8,329.9,235,330.1z" />
	<path fill="#262626" d="M798.1,198.5c-0.7,0.1-1.2,0.2-1.8,0.3C796.2,197.2,797.7,197,798.1,198.5z" />
	<path fill="#222222" d="M841.1,211.1c-0.4-0.8,0.1-2.3,1-1.5C842.2,210.4,841.8,210.7,841.1,211.1z" />
	<path fill="#5D534E" d="M823.1,224.5c0.5-0.5,1-0.9,1.5-1.4c0.9,1.1,0.9,1.2-0.6,2.3C823.7,225.2,823.4,224.9,823.1,224.5z" />
	<path fill="#202B54" d="M526.6,311c-0.2,0.4-0.4,0.9-0.7,1.3c-0.4,0-0.9,0-1.4,0C525,311.1,525.7,310.9,526.6,311z" />
	<path fill="#222D59" d="M526.6,282.2c-0.5,0.3-1,0.5-1.4,0.8c-0.2-0.3-0.5-0.5-0.7-0.8c0.7-0.3,1.5-0.5,2.2-0.8   C526.6,281.7,526.6,281.9,526.6,282.2z" />
	<path fill="#161D39" d="M530.2,236.4c-0.1-0.4-0.1-0.8-0.2-1.2c0.4-0.1,0.8-0.1,2.1-0.4C531.1,235.7,530.6,236,530.2,236.4z" />
	<path fill="#9A9A9F" d="M57.4,391.4c-0.3-0.1-0.6-0.1-0.9-0.2c0.4-0.4,0.8-0.8,1.2-1.2C58.2,390.7,58,391.1,57.4,391.4z" />
	<path fill="#756862" d="M176.1,277.8c0-0.3,0-0.6,0-0.8c0.6-0.7,1.1-0.8,1.5,0.1C177.1,277.3,176.6,277.5,176.1,277.8z" />
	<path fill="#2E2E2E" d="M843.7,178.4c-0.4,0.4-0.6,0.7-1,1.1C842.6,178.5,842.6,178.5,843.7,178.4z" />
	<path fill="#C5C5CB" d="M69.2,312.5c0-0.6,0-1.1-0.1-1.7c0.3-0.2,0.5-0.4,0.8-0.7l-0.1-0.1C69.8,311,70,311.9,69.2,312.5z" />
	<path fill="#35488C" d="M531.1,313.2c0-0.8-0.4-1.7,0.6-2.3C531.7,311.8,531.9,312.7,531.1,313.2z" />
	<path fill="#282828" d="M884.4,197.3c0.6,0,1.2,0,1.5,0.7l0,0C885.3,198,884.6,198,884.4,197.3L884.4,197.3z" />
	<path fill="#4963C1" d="M531,291.7c0.3-0.7,0.9-0.7,1.5-0.6C532,291.3,531.5,291.5,531,291.7z" />
	<path fill="#161D39" d="M529.5,237.1c0.2-0.3,0.5-0.5,0.7-0.8C530,236.6,529.7,236.9,529.5,237.1z" />
	<path fill="#242424" d="M845.3,180.3c-0.1,0.2-0.2,0.3-0.3,0.5C845.1,180.7,845.2,180.5,845.3,180.3   C845.3,180.3,845.3,180.3,845.3,180.3z" />
	<path fill="#202020" d="M840.1,173.7c0.1-0.2,0.2-0.3,0.3-0.5C840.3,173.4,840.2,173.5,840.1,173.7   C840.1,173.7,840.1,173.7,840.1,173.7z" />
	<path fill="#E1C8BD" d="M771.7,211.3c-0.3,0-0.7,0-1-0.1c-0.1-0.3,0-0.5,0.2-0.6c0,0,0,0,0,0C771.1,210.8,771.4,211,771.7,211.3z" />
	<path fill="#212A4A" d="M508.1,328.7c0.3,0,0.5,0.1,0.8,0.1c-0.2,0.2-0.4,0.5-0.7,0.7C508.2,329.2,508.2,328.9,508.1,328.7   L508.1,328.7z" />
	<path fill="#212A4A" d="M506.6,330.9c0.3-0.2,0.5-0.5,0.8-0.7C507.1,330.4,506.9,330.6,506.6,330.9z" />
	<path fill="#9A9A9F" d="M55.9,391.5c-0.3,0.2-0.6,0.4-0.8,0.6C55.4,391.9,55.6,391.7,55.9,391.5z" />
	<path fill="#9A9A9F" d="M56.8,393.1c0.1-0.3,0.3-0.6,0.4-1C57.1,392.4,56.9,392.7,56.8,393.1z" />
	<path fill="#FBDFD3" d="M856.4,393.6c-0.1,0.5,0,1.2-0.3,1.4c-2.8,2.6,0.5,6.1-1.3,9.1c-3.9,2.2-2.8,7.4-4.2,10.9   c-11.5,2.3-23.3,1.6-35.1,0.9c0,0-0.2,0.3-0.5,0.6c-16.1,0.4-16.5,4.4-29.6,11c-18.6,4.1-38.3,20.1-57.5,12.5c0-1.3,0-2.6,0-4.6   c-0.7,1.5-1.1,2.3-1.5,3.2c-0.3,0.1-0.7,0.3-1.1,0.5c-1-0.7-2.1-1.5-3.3-2.4c0.5-19.4-24.1-24.9-1-46.7c5.6,0.2,8.4,4.5,8.8,9.7   c0.7-0.8,1-1.2,1.3-1.5c3,1.6,6.1,2.9,7.9,6.4c0.7,1.8,1.8,0.2,3.1,0.5c0.6,0.9,1.3,2.1,2.1,3.2c4.9-23-20.3-36.9-25.7-57.6   c3.5-12.1,9.4-23.2,15.9-33.9c2.2,3.6,3.4,7.3,7.6,8.9c2.3,4.7,6.5,7.5,10.2,11c1.3,0,0.5-1.5,1.3-1.8c1.2,0.2,1.2,0.2,2.2-0.7   c-2.9-17-17.8-29.5-16.9-47.4c-0.4-0.5-1-1.1-1.3-1.6c-1.6,0-2.8,0-3.8,0c-3.3,2.1-3.5,5.3-3.6,8.4c-1.4,0.4-2.5,0.8-3.7,1.2l0,0   c0.1-0.8,0.4-1.8-0.6-2.3c-0.3-0.8-0.7-1.5-1.1-2.5c-0.7,0.7-1.3,1.2-1.8,1.8c-1.4,0.4-0.4,2.1-1.7,2.9   c-13.6-0.4-27.6-0.8-41.2-1.5c3.7-31.8,35.1-56.5,66.5-58.2c1.1,0.9,1.3,2.6,2.9,2.7c1,4.7,5.5,7.9,6.6,12.8   c0.2,0.7,0.7,0.9,1.4,0.4c1.2-6-7.8-10.4-8.7-15.9c44.8-7.5,22.9,15.7,33.8,31.7c-2,5.1,2.6,8.5,3.9,13.1   c7.6,24.5-10.8,45.2-18.4,66.7c-2.8,17.4-3.2,35.6-4.3,53.2c6.4,3,13.9,3.7,20.9,2.9c0-0.2,0.1-0.4,0.1-0.5   c31.9-1.9,38.5-40.4,57.3-27.5c-0.1,0.6-0.3,1.2-0.5,2.2c-1-0.6-1.6-1-2.3-1.4c-4.1,1.8-5.9,3-5.4,7.5c1.2,1.2,2.1,3,4.8,2.3   c0.6-2,3.7-1.4,4.5-3c-0.1-0.4,0.3-0.6,0.6-0.8c-0.2-0.1-0.4-0.2-0.6-0.3c-0.2,0-0.4,0-0.6-0.1c-0.3-0.7-0.5-0.6-0.7,0.1l0,0   c-0.8-0.3-1.8,0.2-2.3-0.8l0,0c2.1-1,5.1-2.7,5.6,0.8c1.5-0.3,3-0.5,4.6-0.8c1.3,2.1,2.8,3.9,1.9,6.6   C855,388.1,855.3,390.8,856.4,393.6z M834.8,401.6c-0.6,0.3-0.9,0.6-0.3,1.4c1.4-0.6,2.1-0.9,3.7-1.7   C836.6,400.8,835.7,400.8,834.8,401.6z M793.6,418.6c-0.3,0.1-0.6,0.2-1,0.4c0.1,0.2,0.3,0.4,0.4,0.6c3.4-0.9,7.8-2.2,10.7-4.3   c-0.3-0.4-0.5-0.6-0.6-0.9C799.7,415.5,797,417.7,793.6,418.6z M724.5,428.2c-0.3-1.5-0.6-3-2-4.1c-0.3,0.2-0.6,0.4-0.8,0.6   c1.7,2.6,1.4,5.4,4.3,7.2C725.3,430.4,724.9,429.3,724.5,428.2z M738.2,429.1c-1-2.1-1.4,1.3-1.2,2.2c-0.2,1.6-1.2,3.2-0.7,4.9   C739,435.7,737.9,431.2,738.2,429.1z M767.3,316.2c5.5-6.6,10.7-22.3,9.8-27.3c-4.9,7.8-4.8,19.7-11,27c-1.8,1.4-3.6,3.3-3.4,5.7   C765.1,320.2,766.4,318.4,767.3,316.2z M752.2,394.4c-0.9,3.1,4.5-4.1,2.9-5.9c0.7-3.2,3.3-5.8,2.7-9.5c5.9-4.6,4.9-19.3-1.4-23   c-3.4-8.3-3.4-8.3-5.7-10.1C758.7,366.6,758.3,373.1,752.2,394.4z M765.1,406.6c-0.3-2.6-1.9-4.2-2.8-6.5c-0.4,0.1-0.7,0.2-1.2,0.3   c0,3.7,2.5,7.5,5.3,9.7C765.9,408.8,765.5,407.7,765.1,406.6z M809.3,412.9c2.2-0.6,4.5-1,5.8-3.4c-0.5-0.3-0.8-0.6-1.3-0.9   c-3,1.6-6,3-8.9,4.6C806.5,413.4,808,414,809.3,412.9z M725.1,274.8c1.3-2.4,1.3-7-1.8-7.9c-0.4,3.7,1.5,7.2,0.7,10.7   c-1.4,3.3-2,7.8-0.5,11C727.3,286.7,724.5,278.7,725.1,274.8z M777,270.1c4.6-1.4,1.1-9.9-3.2-7.7c-0.3,0.8,0.2,1.5,0.7,2   C776.6,265.9,776.3,267.6,777,270.1z M760.3,348.3c0.2-2.7-1.1-8.2-3.7-8.6C754.1,342.8,758.6,345.6,760.3,348.3z M757.7,424.7   c-1.8,2-7.1,3-6.7,5.9C754.2,431,757.1,427.7,757.7,424.7z M749.2,407.3c-0.6-4,2.9-6.8,2.3-10.6   C747.9,399.9,748.2,403.6,749.2,407.3z M774.3,277.8c0.6,2.7,1.1,5.2,2.4,8.2C776.7,282.8,778.3,277.8,774.3,277.8z M850.8,398.3   c-2.6-0.7-3.7,1-5.2,2.4C847.9,401.1,850.3,400.7,850.8,398.3z M721.7,265c2.7-1,0.2-4.8-1.9-6C720.3,261.4,720.7,263.3,721.7,265z    M770.3,253.2c2.6-0.8,0.3-4-1.5-4.6C768.9,250.3,768.8,252,770.3,253.2z M762.6,414.3c-2.4-0.2-3.3,3.2-1.4,4   C762.1,417.2,762.5,416,762.6,414.3z M758.5,326.7c2-1.8,2-1.8,2.5-3.8C758.8,323.5,758.4,324,758.5,326.7z M771.1,254.7   c0.2,1.7,0.3,2.9,0.5,4.7C773.5,257.6,773.3,256.2,771.1,254.7z M782.3,292.3c0.6-2.5,0-5-1.5-3.7   C781.2,289.8,781.7,291,782.3,292.3z M760,422.9c1.1-0.7,1.7-1.4,1.2-2.5C759.2,421.5,759.3,421.5,760,422.9z M767.9,246.4   c1.8-1.2,1.8-1.6,0-3C767.9,244.3,767.9,245.1,767.9,246.4z M845.4,408.2c1,0.6,1.9,0.5,2.8-0.2   C847.9,406.4,846.2,407.3,845.4,408.2z M841.6,400.3c-0.6,0.3-1.2,0.7-1.9,1.1C841,402.1,841.6,401.7,841.6,400.3z M848.1,388.2   c-0.9-1.3-2.9,0.6-1.5,1.4C847.1,389.1,847.6,388.6,848.1,388.2z M841.3,390.5c2.5,0,2.5,0,2.1-1.4   C842.8,389.4,842.4,389.7,841.3,390.5z M754.5,338.7c-1,0.9-1.5,1.7,0,2.7C754.5,340.3,754.5,339.5,754.5,338.7z M841.6,409   c-1-0.9-1.8-0.8-3.3,0C839.8,409,840.6,409,841.6,409z M718.3,258.2c-0.1-0.1-0.2-0.3-0.2-0.4c-0.4,0.2-0.1,0.4,0,0.7   C718.1,258.4,718.2,258.3,718.3,258.2z" />
	<path fill="#EECABA" d="M727.9,393.6c-2.3-1.9-3.3-3.7-6.9-3.6c-23.2,21.8,1.5,27.2,1,46.7c1.2,0.9,2.3,1.6,3.3,2.4   c0.4-0.2,0.8-0.3,1.1-0.5c0.1,0,0.3,0.1,0.4,0c-0.7,2.1-2.6,3.7-2.4,6.4c2.3-1,2.7-3,3.1-4.8c0.2-0.1,0.4-0.1,0.6-0.2   c19.2,7.6,38.9-8.4,57.5-12.5c9.2-4,16.5-12.6,27.6-10.2c-3.8,1.8-7.3,1.9-11,4.3c3.3,0.3,5.4-0.8,7.8,0.8   c-4.8,1.8-9.6,3.5-14.3,5.3c-0.2,0.7-0.3,1.1-0.4,1.5c-21.7,13.5-58.2,27.2-81.9,14.5c-4.9-3.6-2.9-11-5.7-15.7   c-7.4-9.8-4.9-23.6-3.7-35.1c3.7-12.7-1.8-26.2,1.5-39.2c1.9-16.7,19.6-28,17.4-45.6c-11.9-9.7-28.6-2.6-42.5-4.3   c-0.9-3.5-1.2-6.9-0.3-10.5c13.6,0.7,27.6,1.1,41.2,1.5c1.3-0.8,0.3-2.5,1.7-2.9c-0.2,2.5-1.1,6.2,2.6,6.6c1-1,1.1-2.2,0.9-3.6   c1.2-0.4,2.3-0.7,3.7-1.2c0.2-3.1,0.3-6.4,3.6-8.4c1,0,2.2,0,3.8,0c0.4,0.4,0.9,1.1,1.3,1.6c-0.9,17.9,14,30.4,16.9,47.4   c-1,0.9-1,0.9-2.2,0.7c-0.8,0.3-0.1,1.8-1.3,1.8c-0.1-8-8.7-13.1-13-19.2c-4.7-3.8-3.2-11.3-7.2-14.9c-0.7,8.1,3.6,15.7,9.9,20.3   c0.1,1.1,0.1,2,0.2,2.8c-4.2-1.6-5.4-5.2-7.6-8.9c-6.4,10.7-12.4,21.8-15.9,33.9c5.4,20.6,30.6,34.5,25.7,57.6   c-0.7-1.1-1.5-2.3-2.1-3.2c-1.3-0.2-2.4,1.3-3.1-0.5c0.5,0,1.1,0,1.8-0.1c-0.8-2.8-2.8-4.6-3.9-6.8c-0.9,0.1-1.6,0.2-2.3,0.3   c-5.9-4.5-5.3-13-11.6-17.4c-2.8-2.4-2.8-6-5.2-8.7C716.8,380.6,726.5,385.4,727.9,393.6z M797.8,423c-4.3,1.8-6.9,4.9-11.1,7.4   c2.7-0.2,2.8-0.3,7-3.5c1.9-1.8,6.5-2.1,6.3-5.2C799.2,422.2,798.5,422.6,797.8,423z M714.6,382.4c0.1,6.1-9,11.6-4.3,17.4   c0-7.9,7-13.5,6.5-21.2C714.9,379.2,715.2,380.9,714.6,382.4z M780.5,433.1c0,0.2,0.1,0.4,0.1,0.7c0.8-0.1,1.6-0.1,1.7-1.2   C781.6,432.2,781.1,432.8,780.5,433.1z" />
	<path fill="#FBDFD3" d="M767.7,389c0.5-3.8,1-7.5,1.6-11.5c36,4.8,31.9-4.2,63-10.5c0.3,0.3,0.6,0.7,0.9,0.9   c-0.9,2.2-3.4,2.9-5.5,3.6c-6.9,1.8-9.2,9.5-14.7,13.3c-1.7-0.9-2.8-2.8-5.3-3c-1.7,1.7-6.2,1.7-5,5.1c-10.9,3.4-23,3.8-34.5,4.4   C767.9,390.4,767.8,389.7,767.7,389z M801.6,383.4c0.3-1.9,0.6-3.2-1.1-4.2C799.6,380.9,800.7,381.9,801.6,383.4z" />
	<path fill="#EECABA" d="M713.6,326.8c-3.8,0.5-7.4,1-11.5,1.5c-8-5.2-19.8-9.8-21.2-20.6c3-2.2,6.8,0.8,10.1,1.2   c10.4,3.3,21.4-7.7,30.4,1.2C721.1,316.3,716.3,321.1,713.6,326.8z" />
	<path fill="#ECC9B9" d="M767.7,389c0.1,0.7,0.2,1.4,0.4,2.3c11.5-0.6,23.6-1,34.5-4.4c1.3,1.7,3.1,2.2,5.1,2.3c0,0.3,0,0.5,0,0.8   c-1.4,1.6-3.1,2.7-5.2,2.9c0.3-1.3,1-2.4,0.1-3.7c-1.8,2-1.8,2.1,0,3.6c-1.1,1.5-3,1.6-4.5,2.4c-3.9-0.3-7.9-0.4-11.8,0.6   c-1-0.3-1.6,0.4-2.3,0.8l0,0c-1.1-1.3-3-1-4.3,0.5c1.5,0.9,2.9,1.1,4.2,0.1c2.2,0.2,4.6-0.3,6.6,0.7c-5.8,2-11.5,0.2-17.2,2.2   c-2.7-0.6-5.4-1.2-8.2-1.7C764.8,394.9,766.9,392.2,767.7,389z M774,397c1.3,0.3,1.3,0.3,2.4-0.1C775.2,396.6,775.2,396.6,774,397z   " />
	<path fill="#E9C6B6" d="M815.1,416.6c0.2-0.3,0.4-0.5,0.5-0.6c11.7,0.7,23.6,1.4,35.1-0.9c-8.3,9.9-24.5,1.1-35.3,5.3   c-0.3-0.3-0.7-0.5-1-0.8c0.8-0.7,3.3-1.7,1.9-3C815.8,416.6,815.4,416.6,815.1,416.6z" />
	<path fill="#EAC7B7" d="M803.1,384.1c1.6-0.3,3.3-1.6,4.5-2.3c2.6,0.2,3.6,2.1,5.3,3c-1.3,1.6-2,4.6-4.5,4.4c0,0,0.1,0.1,0.1,0.1   C807.4,386.9,804.1,386.8,803.1,384.1z" />
	<path fill="#E6C4B5" d="M843,382.3c-0.8,1.6-3.9,1-4.5,3c-2.7,0.7-3.6-1.1-4.8-2.3c-0.2-4.1,0.4-5.1,4.4-7c0.1,2.5-1.4,4.7-1.5,7.1   c1.4,0.9,2.2-0.5,3.3-0.5C840.8,382.6,841.9,382.4,843,382.3z" />
	<path fill="#D5B5A7" d="M855.5,386.9c-2.1-0.8-1.1-2.5-1.7-3.7c-0.5-1.1-1.1-2.2-1.7-3.4C856.4,378.7,858,384.1,855.5,386.9z" />
	<path fill="#241F1D" d="M786.3,395.9c3.9-1,7.8-1,11.8-0.6c-1.7,1.5-3.9-0.3-5.2,2.1C791.4,395.3,788,397.9,786.3,395.9z" />
	<path fill="#CEAFA1" d="M814.3,419.6c0.3,0.3,0.7,0.5,1,0.8c-1.7,1-3.4,1.9-5.4,2c-0.8-0.9-1.9-0.8-3.1-0.8   C809.3,420.9,811.8,420.2,814.3,419.6z" />
	<path fill="#9B847A" d="M786.3,395.9c1.7,2,5.1-0.5,6.6,1.4c-2.5,1.5-5.9-0.7-8.9-0.1c0-0.2,0-0.4,0-0.6   C784.7,396.3,785.4,395.6,786.3,395.9z" />
	<path fill="#727582" d="M777.4,235.6c0-0.4,0-0.9,0-1.3c1.5,0.9,2.5,2.1,2.2,4.3C778.7,237.4,778,236.5,777.4,235.6z" />
	<path fill="#C5AB9F" d="M842.4,379c-1,0.4-2,0.9-3,1.3C839.2,378.5,841.2,378.9,842.4,379z" />
	<path fill="#C5AB9F" d="M839.4,380.3c0.5,1,1.5,0.5,2.3,0.8c-0.8,0.9-1.7,0.7-2.9,0.3C839,381,839.2,380.6,839.4,380.3z" />
	<path fill="#EECABA" d="M680.7,288c0,1.3,0.3,2.7-0.6,3.8C680,290.5,679.9,289.2,680.7,288z" />
	<path fill="#C5AB9F" d="M844.4,379.6c-0.2-0.2-0.4-0.4-0.6-0.6C844.2,379,844.5,379.1,844.4,379.6z" />
	<path fill="#C5AB9F" d="M841.6,381.1c0.2-0.7,0.4-0.7,0.7-0.1C842.1,381.1,841.9,381.1,841.6,381.1z" />
	<path fill="#727582" d="M775.8,235.1c0.3,0.2,0.6,0.3,0.9,0.5C776.2,235.8,775.9,235.6,775.8,235.1z" />
	<path fill="#C5AB9F" d="M843,381.2c0.2,0.1,0.4,0.2,0.6,0.3c-0.1,0.1-0.3,0.2-0.4,0.3C843,381.6,842.9,381.4,843,381.2z" />
	<path fill="#EAC7B7" d="M807.7,390c0-0.3,0-0.5,0-0.8c0.3,0,0.5,0,0.8,0c0,0-0.1-0.1-0.1-0.1C808.6,389.8,808.1,389.9,807.7,390z" />
	<path fill="#545761" d="M621.1,328.6c-1.8,0.4-3.2-0.7-4.8-1.1c2.6-0.3,5.3-0.8,7.8,0.3C623,327.9,622,327.9,621.1,328.6z" />
	<path fill="#646875" d="M633.6,326.5c0.5,0.3,1,0.5,1.5,0.8c-1.8,1.2-3.7,0.5-5.6,0.2C630.8,327.1,632.2,326.8,633.6,326.5z" />
	<path fill="#32333A" d="M588.5,324.2c0.1-0.2,0.1-0.4,0.1-0.7c2.3,0.1,4.6-0.4,6.7,0.5c-0.3,0.3-0.7,0.7-1,1   C592.7,323.7,590.4,324.4,588.5,324.2z" />
	<path fill="#7E8293" d="M621.1,328.6c1.6-1.1,3.5-0.7,5.3-0.6C624.7,328.9,622.9,328.7,621.1,328.6z" />
	<path fill="#747887" d="M594.3,325.1c0.3-0.3,0.7-0.7,1-1c0.6,0.1,1.1,0.2,1.8,0.3C596.2,326,596.2,326,594.3,325.1z" />
	<path fill="#211D1C" d="M837.1,257.1c0-2.5,2.2-3.8,4-5.3c4-2.4,5.1-7.2,7.2-11c0.7,0,1-0.1,1.4,0c-1.8,6.4-5,11.3-10.8,14.8   c0,0.7-0.1,1.3-0.1,2.2C838.2,257.5,837.7,257.3,837.1,257.1z" />
	<path fill="#F2D7CC" d="M839,255.7c2.3-2.1,5-3.7,7.2-5.9c0.2,0.5,0.5,1,0.7,1.5c-0.8,2.2-1.5,4.4-2.3,6.6c-1.1,0-2.1,0-2.8,0   C840.6,256.9,839.8,256.3,839,255.7z" />
	<path fill="#AC9990" d="M846.8,251.2c-0.2-0.5-0.5-1-0.7-1.5c1.2-3,2.4-6,3.6-9C851.3,243.8,847.4,248,846.8,251.2z" />
	<path fill="#C5AFA6" d="M851.2,237.2c0.3-0.5,0.5-1,0.8-1.5c1.2,0.5,2.5,1,3.7,1.5C855.2,239.2,852.6,237.2,851.2,237.2z" />
	<path fill="#5C514D" d="M851.2,234.9c-0.6-0.2-1.2-0.5-1.9-0.8c1.6-1.5,5-0.5,7.2-0.1C854.6,234,853,234.6,851.2,234.9z" />
	<path fill="#C5AFA6" d="M851.2,234.9c0.3,0,0.5,0,0.8,0c0,0.2,0,0.5,0,0.7C851.7,235.4,851.5,235.2,851.2,234.9z" />
	<path fill="#5876E8" d="M434.3,290.3c16.1-5,33.7-0.9,50.4-0.4c-31.6,6.4-64.4,8-96.3,13.8c-0.4-0.5-0.9-1.1-1.3-1.6   C402.9,298.5,418.7,294.7,434.3,290.3z" />
	<path fill="#040509" d="M503.8,305.9c-4.7,16.4-12.8,31.9-25.6,43.4c-0.9-3.4,2.8-5.3,4.4-7.8c10-10.5,15-24,20.5-37.1   C503.8,304.6,503.6,305.3,503.8,305.9z" />
	<path fill="#080B16" d="M332.7,285c13.3,9.2,27.3,18,37.5,30.3c-0.3,0.3-0.5,0.5-0.8,0.8c-2-1.9-3.9-4-6.1-5.8   c-2.4-0.3-5,0.4-7.1-0.8c1.6-0.1,3.3-0.2,5.2-0.3c-8.4-8.9-19.8-15.6-29.5-23.4C332.1,285.6,332.4,285.3,332.7,285z" />
	<path fill="#05060C" d="M482.4,313.3c-6.9,10.6-14.2,21.5-23.5,30.2c-0.3-0.3-0.7-0.7-1-1c8.6-10.1,16.6-20.9,24.5-31.5   c0.7,0.2,0.6,0.8,0.7,1.4C482.8,312.7,482.6,313,482.4,313.3z" />
	<path fill="#0C101F" d="M319.3,305c-4.4-6.1-10.5-11.4-13.4-18.4c0.3,0,0.6,0,0.9,0c7.9,9.6,15,21.7,25.8,28   c-0.2,0.1-0.4,0.1-0.6,0.1c-0.5,0.5-1,1-1.6,1.4c-1.5-1.5-3.8,0.2-5.1-1.4c0.8-0.1,1.7-0.2,2.8-0.3   C325.3,310.9,322.5,307.8,319.3,305z" />
	<path fill="#070912" d="M413,366.3c6.2-3.8,13.6-8.6,20.7-9.1c-5.4,5-13.4,6.5-19.8,9.9C413.5,366.9,413.2,366.6,413,366.3z" />
	<path fill="#13192E" d="M503.1,282.2c3.9-3.4,7.1-7.5,11.8-9.7c-5,7-12.8,12.7-18.9,19.2C495.9,288.3,501.4,285.4,503.1,282.2z" />
	<path fill="#181F3D" d="M332.5,314.6c-0.5-0.2-1.1-0.5-1.6-0.7c9.9-3.4,20.3-5.2,30.5-3.5C351.9,311.5,341.9,311.6,332.5,314.6z" />
	<path fill="#151C37" d="M387.2,302.1c2,2.5,3.9,4.9,6,7.5c-7-3.7-11.5-11.3-17.6-16.9c4.5,0.7,6.9,5.7,10.2,8.5   C385.9,302.1,386.5,302.1,387.2,302.1z" />
	<path fill="#1E2749" d="M486.9,275.7c-6.8,2.2-13.9,3.2-20.8,5.2c-0.2-0.1-0.5-0.1-0.7-0.1c-0.2-0.2-0.5-0.5-0.7-0.7   c7-2.2,14.2-3.8,21.4-5.1C486.3,275.2,486.6,275.4,486.9,275.7z" />
	<path fill="#151C34" d="M503.8,305.9c-0.1-0.6,0-1.3-0.8-1.5c2-5.1,3.5-11.2,7.1-15.4C509,294.6,505.8,300.4,503.8,305.9z" />
	<path fill="#232E56" d="M325.2,314.7c0.5,1,1.5,0.5,2.3,0.7c-1.7,1.2-4,0.4-5.8,1.7c-1.1,0.6-2.4,0.5-3.6,0.2   c-3.9-1.7-7.7,0.8-11.4,0.3C312.1,314.2,319.3,317.7,325.2,314.7z" />
	<path fill="#1F2951" d="M522.2,302.2c-0.4-2.6,0.8-6-0.8-8.1c0.4-4.7,0.4-9.3,0.7-14C523.6,286.2,523.5,296,522.2,302.2z" />
	<path fill="#141B34" d="M413,366.3c0.3,0.3,0.6,0.6,0.9,0.9c-2.9,3.6-7.1,6.3-11.9,5.8c-0.2-0.2-0.5-0.5-0.7-0.7   C406.1,372.1,409.7,369.7,413,366.3z" />
	<path fill="#222E5A" d="M386,305.1c-4.5,1.3-9.5,4.8-14,3C376.7,307.2,381.2,305.1,386,305.1z" />
	<path fill="#212A4A" d="M508.1,328.7c-0.5,0.3-1,0.6-1.5,0.8c-1.5-0.8,4.1-6.9,5.7-7.5C512.3,324.9,509.7,326.5,508.1,328.7   L508.1,328.7z" />
	<path fill="#4156A7" d="M458.7,282.9c-3.9,1.5-8.1,3-12.3,3.1c2.9-2.2,7.3-1.3,10.1-3.9c0.5,0,1,0,1.5,0   C458.2,282.5,458.5,282.7,458.7,282.9z" />
	<path fill="#13192F" d="M483,312.4c0-0.6,0.1-1.2-0.7-1.4c1.7-2.5,3.4-5,5.1-7.4c0.3,0.3,0.5,0.5,0.8,0.8   C486.5,307,484.8,309.7,483,312.4z" />
	<path fill="#1E284F" d="M330.3,316.1c0.5-0.5,1.1-0.9,1.6-1.4c0.4,2.9,3.7,4.8,5.1,7.3c0,0.3,0,0.5-0.1,0.8   C334.8,320.6,332.5,318.4,330.3,316.1z" />
	<path fill="#0E1324" d="M457.9,342.5c0.3,0.3,0.7,0.7,1,1c-2,2-4,3.9-6,5.9c-0.2-0.2-0.5-0.5-0.7-0.7   C454,346.6,455.9,344.6,457.9,342.5z" />
	<path fill="#2C3A6C" d="M488.3,304.4c-0.3-0.3-0.5-0.5-0.8-0.8c2.1-2.6,3.7-5.7,6.2-7.9C493.8,298.5,489.6,301.5,488.3,304.4z" />
	<path fill="#171F3E" d="M369.4,316.2c0.3-0.3,0.5-0.5,0.8-0.8c2.2,1.5,3.5,3.9,5.2,5.9c-0.3,0.2-0.5,0.5-0.8,0.7   C372.9,320.1,371.1,318.1,369.4,316.2z" />
	<path fill="#2E3C71" d="M434.3,290.3c-2.5,0.7-5,1.4-7.4,2.1c-0.3-0.2-0.5-0.5-0.8-0.7c2.1-1.2,4.6-1.1,6.7-2.2   C433.4,289.6,434.1,289.5,434.3,290.3z" />
	<path fill="#313F76" d="M458.7,282.9c-0.2-0.2-0.5-0.5-0.7-0.7c2.1-1.1,4.4-1.5,6.6-2.2c0.2,0.2,0.5,0.5,0.7,0.7   C463.4,282.2,460.9,282.2,458.7,282.9z" />
	<path fill="#384B92" d="M337,322.8c0-0.3,0-0.5,0.1-0.8c1.7,1.1,2.9,2.6,3.8,5C338.5,326.1,338.1,324.1,337,322.8z" />
	<path fill="#263365" d="M452.1,348.7c0.2,0.2,0.5,0.5,0.7,0.7c-1.3,1.4-2.6,2.8-4.4,4.9C448.6,351.3,450.6,350.7,452.1,348.7z" />
	<path fill="#334688" d="M374.6,322c0.3-0.2,0.5-0.5,0.8-0.7c1.6,0.9,1.9,2.6,3.1,4C376.5,325.3,376,323.1,374.6,322z" />
	<path fill="#253262" d="M401.2,372.3c0.2,0.2,0.5,0.5,0.7,0.7c-1.7,1-3.4,1.2-5.2,0C398.2,372.7,399.7,372.4,401.2,372.3z" />
	<path fill="#13192F" d="M481.5,312.3c-0.2,0.3-0.5,0.6-0.7,0.9C481,312.9,481.3,312.6,481.5,312.3z" />
	<path fill="#13192F" d="M482.4,313.3c0.2-0.3,0.4-0.6,0.6-0.9C482.8,312.7,482.6,313,482.4,313.3z" />
	<path fill="#181F3D" d="M363.3,310.4c0.3,0.2,0.6,0.5,0.9,0.7C363.9,310.8,363.6,310.6,363.3,310.4z" />
	<path fill="#13192F" d="M481.6,314.6c0.2-0.2,0.4-0.5,0.5-0.7C481.9,314.2,481.8,314.4,481.6,314.6z" />
	<path fill="#13192F" d="M482.3,311c-0.2,0.2-0.4,0.5-0.6,0.7C482,311.5,482.2,311.3,482.3,311z" />
	<path fill="#040405" d="M556.8,306.6c13.6-6.1,26.9-12.2,34.5-25.7c4,7.4-7.9,13.9-13.6,16.9c-0.5,1.1-1.1,2.4-1.9,3.4c0,0,0,0,0,0   C570.7,305,563,309.3,556.8,306.6z" />
	<path fill="#B7BDD4" d="M632,241.4c-0.4,1-1.5,1.1-2.4,0.9c-5.1-1.6-10.1,0.2-15.2-1.8c0.6-1.9,2.2-2.7,3.2-3.8   c6-0.3,10.9-3.7,16.8-3.1c-0.9,1.1-1.7,2.2-2.1,3.8c-0.3,1.4-2.1,2.4-1.5,4.3C631.3,241.5,631.6,241.5,632,241.4z" />
	<path fill="#2A2B2F" d="M666.5,216.4c12.5-2.3,26.1,1.3,38.8-2c2.3,0,4.1-1.8,6.1,0.2C696.9,218,681,218.2,666.5,216.4z" />
	<path fill="#19191C" d="M710.2,207.4c-9.7,0.2-20.3,2.5-29.7-0.1C690.3,206,700.1,205.3,710.2,207.4z" />
	<path fill="#B4BAD2" d="M643.9,224.6c-1-7.6,9.4-4.5,14.1-5.1c-2.7,1.8-5.5,3.5-8.4,4.9c-0.4-0.4-0.8-0.8-1.2-1.2   C646.8,223.5,645.3,224,643.9,224.6z" />
	<path fill="#151517" d="M608.5,230.5c-4.5,2.1-8.9,4.8-13.9,5.3c1.6-2.5,7.2-5.3,12.3-6.2C607.5,229.9,608.3,229.6,608.5,230.5z" />
	<path fill="#191A1D" d="M653.4,222.3c4-2.8,8.4-4.7,13.1-6c0.6,0.3,1.1,0.5,1.7,0.8c-4.4,2.5-9.2,4.3-13.9,6.1   C654,222.9,653.7,222.6,653.4,222.3z" />
	<path fill="#121315" d="M620.8,284.5c0.8,0.8,2.2,1.2,1.5,2.7c-6.2,0.1-11.4-4.5-17.6-3.7c-0.8,0.1-1.7,0.2-2.4-0.6   c1.9-0.4,4.7,0.7,6.1-0.9C612.3,284.3,616.5,284.6,620.8,284.5z" />
	<path fill="#131315" d="M632,241.4c-0.4,0-0.7,0.1-1.2,0.1c-0.6-1.9,1.2-2.8,1.5-4.3c0.7-3.2,3.4-4.8,5.8-6.7l-0.1-0.1   c0.3,0.6,0.6,1.3,0.9,2C636.4,235.8,633.4,238.2,632,241.4z" />
	<path fill="#9CA0AF" d="M543.5,233.5c2,2.9,0.2,7.8,0.7,11.3c-0.5,3.1,1,7.5-0.7,9.8C541.6,252.7,544,238.6,543.5,233.5z" />
	<path fill="#1A1B1E" d="M633.6,300.6c1.1,0.5,2.1,0,3-0.6c0.6,0.2,1.1,0.5,1.7,0.7c-4.7,0.6-8.1,4.3-12.1,6.7   c-0.5-3.6,4.2-5.3,6.9-6.7C633.3,300.8,633.4,300.8,633.6,300.6z" />
	<path fill="#18191C" d="M643.9,224.6c1.5-0.6,2.9-1.1,4.5-1.5c-0.3,0.7-0.5,1.4-0.8,2.1c-3.3,1.6-6.5,3.2-9.5,5.3   c0,0,0.1,0.1,0.1,0.1C637.9,227.4,641.9,226.4,643.9,224.6z" />
	<path fill="#3E4047" d="M612.3,227.7c4.1-0.7,8.3-1.5,12.4-2.2c0,0.3,0.1,0.6,0.1,0.9c-4,1.5-8.1,2.1-12.4,2.2   C612.4,228.3,612.3,228,612.3,227.7z" />
	<path fill="#1F2022" d="M636.2,240.1c0.8,0.8,0.2,1.6,0,2.4c1.5,1.1,1.2,2.9-0.8,2.8c-0.2-0.3-0.5-0.6-0.8-0.9   c-0.5,0.1-1,0.2-1.4,0.3C632.4,242.6,634.3,240.6,636.2,240.1z" />
	<path fill="#38393F" d="M665.1,209c3.8-1,7.7-1.9,11.7-0.8c-3.6,0.5-7.3,1-10.9,1.6C665.7,209.5,665.4,209.3,665.1,209z" />
	<path fill="#46484F" d="M629,224.5c3.8-1.6,7.6-1.7,11.6-1.3c-3.2,1.5-7.3,0.8-10.7,2C629.5,225,629.2,224.8,629,224.5z" />
	<path fill="#202124" d="M545.8,246.7c-0.1-5.1-0.2-10.2-0.1-15.3c2.3,3.9,0.5,10.5,0.8,15.3C546.3,246.7,546,246.7,545.8,246.7z" />
	<path fill="#040405" d="M608.5,282.2c-0.5,1.1-7.6,1.5-7.2-0.1C604.4,281.2,606,281.2,608.5,282.2z" />
	<path fill="#474951" d="M620.3,297.1c-1.3,0.7-2.6,1.4-4.3,2.2c0.4-0.8,0.5-1.2,0.7-1.6c2-1.2,3.2-2.5,5.6-4.2   C622.3,295.6,621.5,295.9,620.3,297.1z" />
	<path fill="#575A64" d="M647.5,225.2c0.3-0.7,0.5-1.4,0.8-2.1c0.4,0.4,0.8,0.8,1.2,1.2c1.3-0.7,2.6-1.3,3.9-2   c0.3,0.3,0.6,0.6,0.9,0.9c-1.7,1-3.5,1.9-5.3,2.9C648.5,225.8,648,225.5,647.5,225.2z" />
	<path fill="#2B2C30" d="M543.5,233.5c-0.4,3.3,0.8,7.3-0.7,10.2C543.4,240.5,541.6,236,543.5,233.5z" />
	<path fill="#35363C" d="M592.1,275.7c-0.4,3.2-0.4,3.2-2.2,3.6C589.5,277.3,589.6,277.2,592.1,275.7z" />
	<path fill="#828593" d="M612.3,227.7c0,0.3,0.1,0.6,0.1,0.8c-1.3,0.8-2.4,1.9-3.9,2c-0.1-0.9-1-0.6-1.5-0.9   C608.7,229.1,610.4,228.1,612.3,227.7z" />
	<path fill="#A2A7B8" d="M573.2,237.1c1,1.7,0.7,3.6,1,5.6c-1.8,0.8-1.3-3-1.8-4.1C573.2,238.4,573,237.6,573.2,237.1z" />
	<path fill="#636670" d="M661,210.1c-1.5,0.6-3,0.7-4.7-0.6c1.8-0.5,3.2-0.4,4.6-0.2C661,209.5,661,209.8,661,210.1z" />
	<path fill="#42444C" d="M594.6,275.9c0.1-1.6,1.5-1.2,2.2-1.7C598.4,275.3,595.6,277.1,594.6,275.9z" />
	<path fill="#6D707B" d="M573.2,237.1c-0.2,0.5,0,1.3-0.9,1.5c-0.2-1.2-0.5-2.4-0.7-3.7c0.3-0.5,0.5-1,0.8-1.6   C573.4,234.4,573,235.8,573.2,237.1z" />
	<path fill="#3D3F45" d="M629,224.5c0.3,0.2,0.6,0.5,0.9,0.7c-1.7,0.4-3.4,0.7-5,1.1c0-0.3-0.1-0.6-0.1-0.9   C626.1,225.2,627.5,224.8,629,224.5z" />
	<path fill="#474950" d="M603.3,295.4c-0.6,0-1.2,0.2-1.4-0.7c0.9-0.8,1.9-1.6,2.8-2.4c0.3,0.3,0.6,0.6,0.9,0.9   C604.8,294,604.1,294.7,603.3,295.4z" />
	<path fill="#202124" d="M588.3,236.9c1.5-0.8,2.5-1.3,3.5-1.8C593.4,237,589.9,237.7,588.3,236.9z" />
	<path fill="#212226" d="M661,210.1c0-0.3-0.1-0.6-0.1-0.9c1.4-0.1,2.8-0.1,4.2-0.2c0.3,0.2,0.6,0.5,0.8,0.7   C664.3,209.9,662.7,210,661,210.1z" />
	<path fill="#7F8290" d="M554.7,237.1c1,1.1,0.6,2.3,0.6,4c-1-1.2-1.5-2.1-1.4-3.2C554.2,237.6,554.5,237.3,554.7,237.1z" />
	<path fill="#242529" d="M605.6,293.3c-0.3-0.3-0.6-0.6-0.9-0.9c0.6-0.5,1.2-1.1,1.9-1.8C607.5,292.3,606.4,292.7,605.6,293.3z" />
	<path fill="#3C3E45" d="M625.4,287.2c0.6,0.1,1.3,0.1,1.5,0.9c-0.8,1-1.7,1.1-3.1,0.5C624.5,288.1,624.9,287.6,625.4,287.2z" />
	<path fill="#8D91A1" d="M647.2,210.9c0.9-0.3,1.9-0.7,2.8-1c1.3,1.9-1.7,1.3-2.7,1.4C647.2,211.2,647.2,211,647.2,210.9z" />
	<path fill="#41434A" d="M545.8,246.7c0.2,0,0.4,0,0.6,0c0,1.6,0,3.1,0,4.7C545.5,249.9,545.7,248.3,545.8,246.7z" />
	<path fill="#45464E" d="M600.3,296.2c1.1,0.9,0.7,1.2-0.3,2.2c-0.2-0.7-0.3-1.1-0.5-1.5C599.8,296.7,600.1,296.4,600.3,296.2z" />
	<path fill="#3B3C42" d="M554.7,237.1c-0.3,0.3-0.5,0.5-0.8,0.8c-0.1-0.4-0.1-0.8-0.2-1.3c0.2-0.3,0.5-0.6,0.7-0.8   C554.5,236.2,554.6,236.6,554.7,237.1z" />
	<path fill="#B7BDD5" d="M633.1,300.8c-0.6,0.2-1.1,0.5-1.7,0.7C631.7,300.5,632.3,300.6,633.1,300.8z" />
	<path fill="#B7BDD5" d="M575.9,301.3c0.3-0.4,0.6-0.9,0.9-1.3C576.8,300.6,576.7,301.2,575.9,301.3z" />
	<path fill="#B7BDD5" d="M617.9,296.9c-0.2,0.2-0.4,0.4-0.6,0.6C617.5,297.3,617.7,297.1,617.9,296.9z" />
	<path fill="#4B65C5" d="M455.9,241.4c17-15.8,45,7.6,21.2,6.8c-7.3,0.3-15.5,2.9-21.9-1.9C455,243.4,455,243.4,455.9,241.4z" />
	<path fill="#4B65C5" d="M356.2,309.6c-1-0.1-2-0.1-3-0.2c0.4-0.3,0.7-0.6,1.3-1.1c-11.3-12.2-24.4-23-39.9-29.3   c3.9-2,6.6,2.6,10,0.9c11.7,10.4,26.1,18.3,36.8,29.4C359.5,309.4,357.8,309.5,356.2,309.6z" />
	<path fill="#4B65C6" d="M403.3,249.8c2.8-0.1,5.9,3.3,8.1,2.1c3.7,1.2,10.8,6.9,14.1,5.2c4.7,2.3,9.8,3.9,13.2,8   c-0.4,0.5-0.9,1.1-1.4,1.7c-11.5-5.6-22.9-10.3-34.6-15.5C403,250.7,403.2,250.3,403.3,249.8z" />
	<path fill="#4B65C5" d="M325.2,314.7c-4.8,1.9-9.8,1.4-14.8,1.3c2.3-1.6,6.4-0.1,8.6-2.4c-2.4-4.2-5.6-8-8-12.6   c3.8-1.1,5.3,4.6,8.3,4c3.2,2.8,6,5.9,8.7,9.4C326.9,314.5,326,314.6,325.2,314.7z" />
	<path fill="#4B66C6" d="M353.2,285.1c8,3.4,14,10,21,14.9C374.9,310.2,355.4,287.5,353.2,285.1L353.2,285.1z" />
	<path fill="#4B65C5" d="M507.3,245.3c16.5-4.8,6.3,7.6-11.1,5.1C499.3,247.5,503.3,246.2,507.3,245.3z" />
	<path fill="#4B65C5" d="M513.3,240.9c0.1-0.5,0.2-0.9,0.3-1.5c-3.5,0.1-6.8-0.2-9.7-1.8c-0.3-1.6,1.2-1.6,1.6-2.4   c-0.1-0.3-0.3-0.7-0.4-1c4.4,0.7,8.8,0.9,13.2,0.6c0.5,0.7,0.9,1.4,1.4,2.2c-0.2,1.2,0.7,3.2-0.9,3.7c0-0.3,0-0.7,0-1.1   C517,238.8,515.2,240.4,513.3,240.9z" />
	<path fill="#020306" d="M502.2,246.7c-5.3,1.7-9.9,9-15.1,8.7c-2.7-7.3,9.5-8.2,14.3-9.4C501.6,246.1,501.9,246.4,502.2,246.7z" />
	<path fill="#04050A" d="M518.4,234.8c-6.4,0.3-12.3,0.3-18.3-2.5c5.7-2,13.7-2.4,19.2,1C519,233.8,518.7,234.3,518.4,234.8z" />
	<path fill="#04060C" d="M441,251.6c5.1-1.4,14.6,9.4,13.4,14.4C450.9,260.5,443.3,257.4,441,251.6z" />
	<path fill="#4C66C7" d="M437.2,253.6c-4.5-2-8.6-2.4-12-5.4c-1.8-2.5,2-3.6,3.8-2.6C432.2,247.7,436.5,249.5,437.2,253.6z" />
	<path fill="#506BD3" d="M425.5,257.1c-4.9,1.4-15.9-6.9-21.4-8.9c0.3-0.7,0.5-1.3,0.8-2.2c1.4,0.9,2.8,3.4,4.3,1.6   c5,3.6,10.5,6.2,15.8,9.4C425.2,257,425.4,257,425.5,257.1z" />
	<path fill="#0E1326" d="M424,256.4c-4.9-2.9-10.1-5.5-14.8-8.8c0.1-0.2,0.2-0.4,0.4-0.8c8.2,5.2,17.5,8.4,25.4,14.1   c0,0.3,0,0.6,0.1,0.9C431.4,259.9,427.6,258.2,424,256.4z" />
	<path fill="#1A213D" d="M426.1,291.7c0.3,0.2,0.5,0.5,0.8,0.7c-10.5,2.6-20.9,5.5-31.5,7.6c-0.3-0.3-0.5-0.6-0.8-0.8   C405.1,296.6,415.5,294,426.1,291.7z" />
	<path fill="#1B2341" d="M488.1,274.7c6.6-2.2,13.4-3.3,19.7-6.3c0.8,3.1-15.7,6.1-18.9,6.9C488.6,275.2,488.3,274.9,488.1,274.7z" />
	<path fill="#12182D" d="M503.1,255.1c5.1-1.4,8.4-4.6,14.2-3.6C512.1,253.1,509.1,256.5,503.1,255.1z" />
	<path fill="#171F3B" d="M508.1,222.4c6.4,1.9,9.8,3.5,12.4,5.8c-4.6,0.1-8.2-3.5-12.4-5C508.1,222.9,508.1,222.6,508.1,222.4z" />
	<path fill="#161C35" d="M331.8,285.9c-2.4-2-4.9-4-7.3-6l0,0c-0.9-0.9-1.6-1.9-2.3-2.9c0.2-0.2,0.4-0.5,0.7-0.7   c3.3,2.9,6.7,5.7,9.8,8.7C332.4,285.3,332.1,285.6,331.8,285.9z" />
	<path fill="#283569" d="M523.6,269.7c-0.1,0.3-0.3,0.6-0.4,1c0.6,0.4,1.3,0.7,1.9,1.1c-1.8,0.3-1.8,0.4-0.8,1.6   c0.7-0.1,1.4,0,2.1,0.1c0.1,0.2,0.1,0.4,0.2,0.6c-0.8,0.1-1.7,0.1-2.6,0.2c-0.7,1.4-0.3,2.9-0.5,4.3c-1.5-4.5-1.3-9.7-1.4-14.7   c0.2,0,0.5,0,0.6,0C523,265.8,522.5,267.9,523.6,269.7z" />
	<path fill="#313F77" d="M508.1,222.4c0,0.3,0,0.5,0,0.8c-1.9-1.1-3.8-2.1-5.8-3.3c-1.5,1-3.2,2.4-6.2,2.6   C501.7,217.8,502.9,217.9,508.1,222.4z" />
	<path fill="#3C519E" d="M522.2,271.8c1.2,5.5,2.3,12,0.8,17.7c-0.5-3,0.8-7-0.8-9.5C522.2,277.3,522.2,274.6,522.2,271.8z" />
	<path fill="#171F3D" d="M362.8,263.7c-1.7-2.6-3.3-5.1-2.8-8.8c2.4,1.9,2.4,5.3,3.7,7.9C363.4,263.2,363.1,263.5,362.8,263.7z" />
	<path fill="#141A31" d="M451.2,244.5c-1.3,1.7-3.2,2.4-5.3,2.7C443.5,245.3,450.3,243,451.2,244.5z" />
	<path fill="#0D1121" d="M511.8,264.5c1.9-1.2,4-1.6,6.1-2.1c2,2.8-4.3,3.1-6,2.9C511.8,265,511.8,264.7,511.8,264.5z" />
	<path fill="#0A0D1A" d="M533.3,261.1c-1.2,1.7-2.4,2-7.4,1.6C528.4,261.1,530.6,260.3,533.3,261.1z" />
	<path fill="#0D1224" d="M533.9,268.2c-3.1-0.2-6,1.1-9,1.4c-0.2-1.6-0.2-1.6,1.7-2.2c0.3,0.2,0.6,0.7,0.8,0.6   c1.9-0.9,4-0.2,5.9-1.3C533.4,267.2,533.7,267.7,533.9,268.2z" />
	<path fill="#242E55" d="M322.9,276.3c-0.2,0.2-0.4,0.5-0.7,0.7c-1.9-2.2-4.2-4.1-5.3-7.3C319.9,270.4,320.8,274.3,322.9,276.3z" />
	<path fill="#141A30" d="M442.2,234.6c-1.1,1.9-3,6.6-4.6,6.2C437.8,238.2,438.8,236.8,442.2,234.6z" />
	<path fill="#2F3E77" d="M394.5,299.2c0.3,0.3,0.5,0.6,0.8,0.8c-2.8,0.5-7.5,3.5-9.6,1.2C388.8,301.2,391.6,300,394.5,299.2z" />
	<path fill="#06070F" d="M532.7,259.9c-2.1-0.2-4.2,1.4-6.4,0C530.2,258.3,530.9,258.3,532.7,259.9z" />
	<path fill="#171E3B" d="M513.3,240.9c1.8-0.5,3.7-2.1,5.6-1.3c0,0.4,0,0.8,0,1.1C517.1,240.8,514.9,242.4,513.3,240.9z" />
	<path fill="#29386D" d="M362.8,263.7c0.3-0.3,0.6-0.6,0.9-0.9c0.6,1.9,3,4.1,2.4,5.9C364.6,267.3,363.7,265.5,362.8,263.7z" />
	<path fill="#1C2445" d="M502.2,246.7c-0.3-0.3-0.5-0.5-0.8-0.8c1.7-0.6,3.3-1.3,5.2-2c0.3,0.6,0.6,1,0.8,1.4   C505.6,245.7,503.9,246.2,502.2,246.7z" />
	<path fill="#4158AD" d="M385.6,253.5c0.3,0,0.6-0.1,0.9-0.1c1.6,1.1,2.9,2.5,4.3,4.2C388.8,257,388.8,257,385.6,253.5z" />
	<path fill="#0C1020" d="M533.2,266.7c-1.9,1.1-4,0.4-5.9,1.3c-0.1,0.1-0.5-0.4-0.8-0.6c1.3-1.9,3.8,0.4,5.2-1.4   C532.4,265.9,533.1,265.6,533.2,266.7z" />
	<path fill="#344585" d="M435.1,261.7c0-0.3,0-0.6-0.1-0.9c1.3,1.4,3.6,2.2,3.7,4.3C437.5,264,436.3,262.8,435.1,261.7z" />
	<path fill="#384A93" d="M522.8,263.8c-0.2,0-0.5,0-0.6,0c0-2,0-4.1,0-6.1C523.1,259.6,522.9,261.7,522.8,263.8z" />
	<path fill="#253057" d="M306.7,286.6c-0.3,0-0.6,0-0.9,0c-1-0.9-1.4-2.1-1.8-3.6C305.9,283.4,305.8,285.3,306.7,286.6z" />
	<path fill="#283460" d="M511.8,264.5c0,0.3,0,0.5,0,0.8c-1.2,0.9-1.6,0.8-3.5,1.2C509.6,265,510.5,264.4,511.8,264.5z" />
	<path fill="#4257AD" d="M524.3,251.2c0.7,0,1.3,0,2,0c0,0.2,0.1,0.3,0.1,0.5c-0.7,0.4-1.3,0.7-2,1.1   C524.4,252.3,524.4,251.7,524.3,251.2z" />
	<path fill="#111527" d="M488.1,274.7c0.3,0.2,0.6,0.5,0.8,0.7c-0.7,0.1-1.3,0.2-2,0.3c-0.3-0.2-0.6-0.5-0.9-0.7   C486.7,274.9,487.4,274.8,488.1,274.7z" />
	<path fill="#4B65C5" d="M459.5,281.5c-0.9,0.6-1.9,0.9-3,0.7C457.2,280.9,458.5,281.6,459.5,281.5z" />
	<path fill="#0D1224" d="M531.7,266c-0.8,1.2-2.1,0.5-3.1,0.6C529.5,265.8,530.6,265.9,531.7,266z" />
	<path fill="#4B65C5" d="M323.7,279.1c0.3,0.3,0.5,0.5,0.8,0.8C324.2,279.7,324,279.4,323.7,279.1z" />
	<path fill="#4B66C6" d="M353.2,285.1c-0.2-0.1-0.3-0.2-0.5-0.3C352.9,284.9,353,285,353.2,285.1L353.2,285.1z" />
	<path fill="#4158AC" d="M533.2,249.7c-0.6-0.2-0.6-0.5,0-0.8C533.2,249.2,533.2,249.5,533.2,249.7z" />
	<path fill="#ECC8B9" d="M218.4,307.9c-18.3,2.8-36.9,5-55.3,3.5c-0.3-1.3,0.6-1.1,1.3-1.1c11.5,2.4,24.3-2.7,35.8-2.3   c-6.5-3.8-21.7,1.9-30,1.6c13.1-6.8,29.3-4.4,43.7-7.5c6.1,0.5,20.6-8.2,23.4-3c-0.2,1.1,0.6,3.1-0.8,3.8   c1.6-6.3-15.8,1.9-19.5,1.7c-4.7-1.1-9.4,0.4-14,2C208.6,306.7,213,307.4,218.4,307.9z" />
	<path fill="#030303" d="M218.4,307.9c-4-0.8-8.1-0.3-12-1.4c0.2-0.5,0.5-0.9,0.7-1.4c3.3-0.2,6.8-2,9.9-0.6c3.7,0.2,21-8,19.5-1.7   C231.4,307.1,224.7,307.3,218.4,307.9z" />
	<path fill="#282321" d="M233.7,319c0.7,0.1,1.3,0.2,2.5,0.4c-5.2,6.2-13.4,4-20.2,2.4c0-0.4,0-0.8,0-1.2   C221.8,321.9,228.4,322.2,233.7,319z" />
	<path fill="#23201E" d="M258.9,312.3c-2.5-1-5.3-1.5-7.7-2.8l0,0.1c0-0.3,0.1-0.5,0.1-0.8c7.1,0.1,13.7,4.6,21,2.4   C270.2,315.8,262.9,312.9,258.9,312.3z" />
	<path fill="#100E0E" d="M216,320.6c0,0.4,0,0.8,0,1.2c-4.8,1.7-10.3,1.7-15.4,1.5c0.2-0.4,0.4-0.9,0.7-1.3   C206,320.7,211,319.9,216,320.6z" />
	<path fill="#282322" d="M275.7,274.7c-0.7-0.4-1.5-0.9-2.2-1.3c3.9,1.3,7.9-1.5,11.5,0.9c-1.1,1.6-2.8,1.3-4.2,1.7   C278.8,276.8,277.5,275,275.7,274.7z" />
	<path fill="#151211" d="M182.3,309.6c-3.9,1.1-8,0.8-12,1.3c-0.9-0.8-2-0.8-3.2-0.8c4.4-0.9,9-0.9,13.5-1.3   C180.9,309.6,181.6,309.5,182.3,309.6z" />
	<path fill="#453C38" d="M269.1,320c3.1,0.1,6.3-0.3,9.5-0.2c0,0.7-0.1,1-0.1,1.4C275.4,319.7,271.9,322.4,269.1,320z" />
	<path fill="#332E2C" d="M241.9,301.7c-0.4-0.7-0.6-1.1-0.9-1.5c1.2-1.4,3-1,4.3-1.7C244.9,300.3,243.5,300.8,241.9,301.7z" />
	<path fill="#3A3431" d="M153.4,312.7c1.7-0.6,3.2-0.3,5.3-0.2C157,314.3,155.1,314.6,153.4,312.7z" />
	<path fill="#5C504B" d="M177.7,326.6c-1.7,0.8-4.6,1.4-6-0.1c0,0,0,0,0,0c1.2-0.6,2.4-0.8,3.7-0.7   C175.9,326.9,177,326.2,177.7,326.6z" />
	<path fill="#615652" d="M237.4,312.5c1.7-1.2,3.9-0.6,6-1.6c-0.6,1.9-2,1.9-3.2,2.2C239.4,312.4,238.4,312.4,237.4,312.5z" />
	<path fill="#857670" d="M183.5,325.7c1.5-0.5,3-0.9,4.5-1.4c0.3,0.3,0.6,0.6,0.8,0.8c-1.7,0.8-3.5,1.2-5.4,1.2   C183.5,326.1,183.5,325.9,183.5,325.7z" />
	<path fill="#3D3633" d="M188.8,325.2c-0.3-0.3-0.6-0.6-0.8-0.8c1.2-0.6,2.4-1.4,4.3-1.2C191.5,324.6,190.2,324.6,188.8,325.2z" />
	<path fill="#4B403B" d="M112,323.6c-0.4-0.2-0.8-0.3-1.3-0.5c0.6-1.7,2.8-2,3.5-0.4C113.4,323.1,112.7,323.3,112,323.6z" />
	<path fill="#0C0B0A" d="M167,310.1c1.1,0.1,2.3,0,3.2,0.8c-1.9-0.2-4.2,0.8-5.8-0.6C165.3,310.2,166.2,310.2,167,310.1z" />
	<path fill="#0A0908" d="M237.4,312.5c1-0.1,2-0.1,2.9,0.6c-1.1,0.3-2.1,1.1-3.5,0.3C236.9,313.1,237.2,312.8,237.4,312.5z" />
	<path fill="#3D3634" d="M269.1,320c0.7,0.4,1.4,0.7,2.1,1.2c-1,0-1.9,0-2.9,0.1c-0.5-0.4-0.9-0.8-1.4-1.3c0.2,0,0.4-0.1,0.6-0.2   C268.1,319.8,268.6,319.9,269.1,320z" />
	<path fill="#2A2624" d="M251.4,308.9c0,0.3-0.1,0.5-0.1,0.8c-1.3,0.5-2.6,1.1-4.4,0.1C248.7,309.4,250,309.1,251.4,308.9z" />
	<path fill="#25201F" d="M177.7,326.6c-0.7-0.4-1.8,0.3-2.3-0.8c1.7,0,3.4-0.1,5.1-0.1c0,0.2-0.1,0.4-0.1,0.7   C179.6,326.4,178.7,326.5,177.7,326.6z" />
	<path fill="#9F8E87" d="M267,320c0.5,0.4,0.9,0.8,1.4,1.3c-0.9,0-1.8-0.1-2.7-0.1C265.6,319.7,266.3,319.9,267,320z" />
	<path fill="#605550" d="M201.2,322c-0.2,0.4-0.4,0.9-0.7,1.3c-0.5,0-1,0-1.6,0C199.3,321.9,200.3,322.1,201.2,322z" />
	<path fill="#5B504C" d="M180.5,326.3c0-0.2,0-0.4,0.1-0.7c1,0,2,0,2.9,0c0,0.2,0,0.4,0,0.6C182.5,326.6,181.5,326.6,180.5,326.3z" />
	<path fill="#8D7E78" d="M148.9,314.1c-0.5,0.4-0.8,0.8-1.3,0.2C148.1,313.8,148.2,313.2,148.9,314.1z" />
	<path fill="#EECABA" d="M173.4,325.8c-0.6,0.2-1.1,0.4-1.7,0.7C172,325.6,172.7,325.7,173.4,325.8z" />
	<path fill="#2A2624" d="M251.3,309.6c0.3,0.2,0.6,0.3,0.9,0.5C251.8,309.9,251.5,309.8,251.3,309.6z" />
	<path fill="#616164" d="M30.8,296.9c-0.7,4.1-1,4.6-2.3,5.7C28.7,298.9,29,297.9,30.8,296.9z" />
	<path fill="#CBD1E8" d="M643,299c1.9-0.1,1.7-2,2.4-3.5c2.6,2.3,4.8,3.8,6,7.1c-3.3,1.4-6,4.3-9.3,4.5c-0.4-1.6-0.8-3.4-2.4-4.4   C640.3,300.9,642.9,301.1,643,299z" />
	<path fill="#0B0B0D" d="M590.3,312.9c0.5-2.6,3.1-1,4.7-1c6.5,2.4,14.2-1.7,20.1,0.3C607.9,315.3,598.1,316.1,590.3,312.9z" />
	<path fill="#0C0D0E" d="M556.8,306.6c0.3,0.8,1.1,0.7,1.7,0.8c-1,0.3-2.1,0.5-3.5,0.9c-2.7,3.3-6.5,4.3-10.9,3.3   C546.3,310.1,551.7,308,556.8,306.6z" />
	<path fill="#101113" d="M652,306.6c2.4-1,5.4-6.2,7.9-3.8C658.9,305.4,654.5,308.8,652,306.6z" />
	<path fill="#0F0F11" d="M562.6,317.5c-2.8,1-5.4,0.3-8.1-1c1.3-1.1,2.1-1.2,8.1-1C562.7,316.1,562.6,316.8,562.6,317.5z" />
	<path fill="#0F1011" d="M650.8,294c3.7,0.2,6.1,1.3,7.4,4C656.5,301.5,652.9,295.9,650.8,294z" />
	<path fill="#5D606C" d="M562.6,317.5c0-0.7,0-1.3,0-2c0.4,0.2,0.9,0.4,1.5,0.6c4-1.9,9.1-2,13.3-0.7c0,0.2,0,0.5,0,0.7   c-3.9-0.3-7.7-1.5-11.4,0.7C565,317.3,563.9,317.9,562.6,317.5z" />
	<path fill="#121315" d="M638.3,300.8c-0.6-0.2-1.1-0.5-1.7-0.7c2-1.4,4.1-2.7,6-4c0.5,0.2,0.8,0.4,1.3,0.7   c-0.3,0.8-0.6,1.6-0.9,2.3C641.4,299.5,640.1,301,638.3,300.8z" />
	<path fill="#17171A" d="M608.1,305.6c0-3.7,4.3-2.6,6-4.7c1.6,2.4-2.3,3.5-3.6,4.8C610,306,610,306,608.1,305.6z" />
	<path fill="#0F0F11" d="M668.8,311.3c-1.3,2.2-2.1,2.4-6.2,2.3C664.3,311.6,666.3,311.1,668.8,311.3z" />
	<path fill="#202226" d="M650,294c-2.9,1.2-4.2-1-6.3-2.8C646.5,290.5,648.2,291.7,650,294z" />
	<path fill="#292A2F" d="M652,306.6c0.3,0.8,1,0.6,1.6,0.8c-1.1,0.3-2.3,0.6-3.8,0.9c-0.8,1.1-1.9,2.3-3.7,2.6   C645.4,308.3,650.1,307.4,652,306.6z" />
	<path fill="#222328" d="M636.6,289.3c-2.9,0.6-4.4,0.2-6.5-1.6C632.6,287.2,634.6,287.7,636.6,289.3z" />
	<path fill="#232429" d="M577.5,316.1c0-0.2,0-0.5,0-0.7c1.7-0.5,3.4-1,5.1-1.5c0.5,0.2,1.3,0,1.5,0.8   C582,316,580,317.1,577.5,316.1z" />
	<path fill="#40424A" d="M542,313c-0.6,0.5-1.1,1.1-1.8,1.6c-0.8-0.3-1.4-0.6-2-0.9C538.3,312,540.4,312.4,542,313z" />
	<path fill="#17171A" d="M668.7,319.7c3.1-1.9,3.4-2,4.6-1.3C671.7,319.6,671.7,319.6,668.7,319.7z" />
	<path fill="#3E4048" d="M626.1,306.4c0,0.4,0.1,0.7,0.1,1.1c-1.2,1.3-1.5,2.9-3.6,2.8C623.3,308.2,624.9,307.5,626.1,306.4z" />
	<path fill="#6B6F7D" d="M584.1,314.6c-0.2-0.8-0.9-0.6-1.5-0.8c1.5-1.3,3.2-0.5,5.6-0.6C586.1,314,585.7,314.5,584.1,314.6z" />
	<path fill="#33343B" d="M644.3,315c0.7-1.6,1-2.4,1.5-3.6C647.4,313.3,647.4,313.3,644.3,315z" />
	<path fill="#303138" d="M660.9,314.7c-0.6,1.4-1.4,1.6-2.8,1.4C658.8,314.9,659.5,314.4,660.9,314.7z" />
	<path fill="#5D606B" d="M639.1,290.9c0.6-0.8,0.7-1,0.9-1.3c0.4,0.3,0.9,0.6,2.1,1.3C640.7,290.9,640.1,290.9,639.1,290.9z" />
	<path fill="#79685F" d="M165.6,328.4c-0.9-0.6,0.1-1.6,0.7-0.8C166.1,327.8,165.8,328.1,165.6,328.4z" />
	<path fill="#161312" d="M824.6,222.4c-0.4,0-0.7,0-1.2,0c-0.7-4.1,3.3-6.9,2.8-11c1.2-0.7,2.4-1.4,3.7-2.1c0.1,0.1,0.1,0.2,0.2,0.3   c0.5-0.7,1-1.3,1.6-2c1.9,0.1,3.9-0.1,5.8,0.9c1.1,2.4-0.2,6.2-3.2,5.8l0,0c-0.1-1.6,1.9-1.9,2.1-3.4c-0.5-2.1-2.1-1.7-3.6-1.7   c-0.9,1.1-1.6,2-2.3,3c-0.7-0.4-1.2-0.7-1.7-1c-1.5,1.3-1.2,2.8-1.1,4.6c1.1-0.6,1.9-1.1,2.8-1.6c0.3,0.3,0.6,0.7,1,1   c0.1,0.6,0.2,1.2,0.3,1.9c-0.5,0.8-1.1,1.6-1.7,2.5c-1.7,0.3-2.7-0.9-4.4-1.6C825.2,219.6,824.9,221,824.6,222.4z" />
	<path fill="#2E2926" d="M806.9,249c-0.3,0.1-0.7,0.2-1.2,0.4c0.1-3.9,1.8-8.1,4.2-11.2c1.2,0.4,0.6,1.2,0.7,1.8   C808.7,242.8,807.9,245.9,806.9,249z" />
	<path fill="#3F3733" d="M807.8,263.6c-1.3-3-1.8-6.3-2.3-9.5c0.3-0.3,0.6-0.7,0.8-1c1.1,2.9,1.8,5.8,2.3,8.9   C808.3,262.6,808.1,263.1,807.8,263.6z" />
	<path fill="#393330" d="M831.4,215.2c-0.3-0.3-0.6-0.7-1-1c1.3-1.4,2.5-0.9,3.8,0.1l0,0c0,0.3,0.1,0.5,0.1,0.8   C833.3,215.1,832.4,215.2,831.4,215.2z" />
	<path fill="#3C3532" d="M806.3,253.1c-0.3,0.3-0.6,0.7-0.8,1c-0.2-1.1-1.4-3.4,0.8-2.9C806.3,251.8,806.3,252.5,806.3,253.1z" />
	<path fill="#6F615A" d="M807.8,263.6c0.3-0.5,0.5-1.1,0.8-1.6c0.7,0.7,0.6,1.6,0.6,2.4C808.5,264.5,807.9,264.4,807.8,263.6z" />
	<path fill="#DEC5BB" d="M835.1,214.3c0.5-0.2,0.9-0.5,1.4-0.7C836.2,214.3,835.6,214.3,835.1,214.3z" />
	<path fill="#DEC5BB" d="M834.3,215c0-0.3-0.1-0.5-0.1-0.8c0.3,0,0.5,0.1,0.8,0.1C834.8,214.6,834.5,214.8,834.3,215z" />
	<path fill="#171413" d="M770.8,210.6c-0.2,0.2-0.3,0.4-0.2,0.6l0,0c-2.8,3.1-7,3.5-10.9,3c0-0.2,0-0.4,0-0.6   C763.3,211.9,767,211.2,770.8,210.6z" />
	<path fill="#2F2825" d="M802.6,242.4c-1.6,4-4.3,7.3-7.5,10.2c1-4.2,4.4-7.5,6.5-11.2C801.9,241.7,802.3,242.1,802.6,242.4z" />
	<path fill="#413A37" d="M807.7,232c-0.8,1.7-1.5,3.4-2.3,5.1c-0.3-0.3-0.6-0.6-0.9-0.9c0.8-2.2,1.2-4.6,3.2-6.9   C807.7,230.6,807.7,231.3,807.7,232z" />
	<path fill="#82726A" d="M804.5,236.3c0.3,0.3,0.6,0.6,0.9,0.9c-0.9,1.8-1.9,3.5-2.8,5.3c-0.3-0.3-0.6-0.7-1-1   C803.3,240.1,803.5,238,804.5,236.3z" />
	<path fill="#5C534E" d="M810.6,223.8c0.2,0.2,0.4,0.5,0.6,0.7c0,0,0,0,0,0c-0.5,1-1.5,1.6-2.4,2.3c-0.9-1,0.1-1.4,0.3-2   c0.3-0.3,0.6-0.5,0.9-0.8C810.3,224,810.5,223.9,810.6,223.8z" />
	<path fill="#83756F" d="M786.3,225.4c0.2-1,1-1.5,2.2-2.1c-0.4,1.2-0.3,2.3-1.5,2.8C786.8,225.9,786.6,225.6,786.3,225.4z" />
	<path fill="#7C6E68" d="M759.8,213.6c0,0.2,0,0.4,0,0.6c-1.3,0.2-2.7,0.4-3.9-0.5c0.3-0.3,0.5-0.5,0.8-0.8   C757.7,213.1,758.8,213.4,759.8,213.6z" />
	<path fill="#443C39" d="M756.7,212.9c-0.3,0.3-0.5,0.5-0.8,0.8c-0.7,0-1.4-0.1-2-0.1C754.6,212.3,755.7,212.9,756.7,212.9z" />
	<path fill="#E1C8BD" d="M769.9,212c0.3-0.3,0.5-0.5,0.8-0.8C770.4,211.5,770.2,211.7,769.9,212z" />
	<path fill="#1A1817" d="M786.3,225.4c0.2,0.2,0.5,0.5,0.7,0.7C786.4,226.3,786.2,225.9,786.3,225.4z" />
	<path fill="#EECABA" d="M810.8,225.4c0.2-0.3,0.3-0.6,0.5-0.8C811.1,224.8,810.9,225.1,810.8,225.4z" />
	<path fill="#EECABA" d="M810.1,224c-0.3,0.3-0.6,0.5-0.9,0.8C809.3,224.2,809.6,224,810.1,224z" />
	<path fill="#605652" d="M791.1,220.1c-0.1,0-0.2-0.1-0.2-0.1c0.1-0.1,0.2-0.2,0.3-0.3C791.3,219.8,791.3,219.9,791.1,220.1z" />
	<path fill="#6D5E57" d="M793,252.6c0.6,0.6,0.8,0.7,1.2,1.1c-1.6,2.1-3.3,2.6-5.5,4.6C789.5,255.3,792.3,255,793,252.6z" />
	<path fill="#6A5A53" d="M97.1,322.6c3-1.1,6.3,0.3,9.7,0.3C104.1,325.9,100.2,323.2,97.1,322.6z" />
	<path fill="#221D1B" d="M97.1,322.6c0.7,0.2,1.5,0.5,2.2,0.7c-2.1,0.6-4.2,2-6.3,1.2C92.6,322.1,95.6,323,97.1,322.6z" />
	<path fill="#11172D" d="M532.5,285.1c0.3,0.2,0.6,0.4,0.7,0.5c-0.7,2.6-3.3,1.6-5.1,1.9c0-0.3,0-0.6,0-0.8   C529.3,285.5,531,285.6,532.5,285.1z" />
	<path fill="#263465" d="M528.1,286.6c0,0.5,0,0.9-0.1,1.4c-0.6,0-1.3-0.1-2-0.1C526.5,286.8,527.2,286.6,528.1,286.6z" />
	<path fill="#BAA69D" d="M231.5,328.8c-0.6,0.9-1.5,0.6-2.3,0.6C229.9,329.2,230.7,329,231.5,328.8z" />
	<path fill="#0C1020" d="M526.5,273.4c-0.5,0-0.9-0.1-1.4-0.1c0-0.2,0-0.3,0-0.5c2.4-0.5,5-0.2,7.3,0.6c-0.3,0.5-0.6,0.9-0.8,1.4   C529.9,274.3,527.9,274.4,526.5,273.4z" />
	<path fill="#4962C1" d="M533.9,271.8c-0.5-0.6-1-1.3-1.6-1.9c0.5-0.2,1.3-0.5,2.3-0.8c0,1,0,1.9,0,2.8   C534.3,271.9,534.1,271.8,533.9,271.8z" />
	<path fill="#4962C1" d="M531.6,274.7c0.6-0.9,1-1.7,1.1-2.8c0.4-0.1,0.8-0.1,1.2-0.2C533.3,272.9,533.4,275.2,531.6,274.7z" />
	<path fill="#0E1325" d="M526.5,273.4c0.3,0.2,0.6,0.4,0.8,0.6c-0.2,0.1-0.5,0.1-0.7,0C526.6,273.8,526.5,273.6,526.5,273.4z" />
	<path fill="#0E1325" d="M532.7,271.9c-0.1,0.5-0.2,0.9-0.3,1.4c-2.2-0.8-4.4-0.8-6.7-0.8c0.1-0.2,0.2-0.4,0.1-0.7   C528.1,271.9,530.4,271.9,532.7,271.9z" />
	<path fill="#465FBB" d="M525.8,271.9c0.1,0.2,0,0.5-0.1,0.7c-0.6,0-0.9,0.5-1.3,0.8c-1-1.2-1-1.2,0.8-1.6   C525.4,271.9,525.6,271.9,525.8,271.9z" />
	<path d="M532.5,232c0.1,0.1,0.2,0.2,0.2,0.2C532.7,232.2,532.6,232.1,532.5,232C532.5,232,532.5,232,532.5,232z" />
	<path fill="#202B54" d="M407,249.8c1.5,0.7,2.9,1.5,4.4,2.2c-1.4,1.3-3.5-1.1-5.2-1.4C406.5,250.3,406.7,250,407,249.8z" />
	<path fill="#040404" d="M756.6,378.8c-0.3-7.5,1.2-15.4-2.1-22.5c-1.2-3.4-4.1-6.8-3.9-10.4c2.3,1.8,2.3,1.8,5.7,10.1   c6.2,3.7,7.3,18.4,1.4,23C757.3,378.9,757,378.9,756.6,378.8z" />
	<path fill="#090707" d="M742,325.7c0-0.9-0.1-1.7-0.2-2.8c-6.2-4.6-10.6-12.2-9.9-20.3c4,3.5,2.5,11.1,7.2,14.9   c4.3,6.2,12.9,11.2,13,19.2C748.5,333.2,744.3,330.4,742,325.7z" />
	<path fill="#090808" d="M727.9,393.6c-1.4-8.2-11.2-13-10-21.7c3.3,7.6,10.5,12.3,12.6,20.6c0.5,2.3,2.3,4,4.2,5.5   c0.7-0.1,1.4-0.2,2.3-0.3c1,2.3,3,4,3.9,6.8c-0.7,0-1.3,0.1-1.8,0.1c-1.9-3.5-5-4.8-7.9-6.4c-0.3,0.3-0.6,0.7-1.3,1.5   C729.3,397.3,729.4,395.2,727.9,393.6z" />
	<path fill="#0F0D0C" d="M770,308.7c2.6-6.3,3.8-14.1,7.1-19.7c0.7,4.4-1.8,13-6.3,21.3C769.9,310.1,770.2,309.2,770,308.7z" />
	<path fill="#221D1B" d="M814.3,419.6c-4.4,1.2-7.4,2.4-12.3,2c4.7-2.4,9.2-3.8,14.2-5C817.6,417.8,815.2,418.9,814.3,419.6z" />
	<path fill="#131110" d="M725.1,274.8c-0.6,3.9,2.2,11.9-1.6,13.8c-1.6-2.3-0.3-5-0.6-7.6c0-2.1,2.1-4.1,1.3-6.2   C724.5,274.8,724.8,274.8,725.1,274.8z" />
	<path fill="#0D0C0B" d="M777,270.1c-0.7-2.5-0.4-4.2-2.5-5.8c-0.5-0.5-1-1.2-0.7-2C778.1,260.1,781.5,268.6,777,270.1z" />
	<path fill="#100E0D" d="M726.4,294.8c0.2,1.4,0.1,2.6-0.9,3.6c-3.7-0.4-2.8-4.1-2.6-6.6c0.6-0.6,1.2-1.1,1.8-1.8   C725.5,291.7,726,293.1,726.4,294.8C726.4,294.8,726.4,294.8,726.4,294.8z" />
	<path fill="#25211F" d="M752.5,241.4c3.6,3.6,4.9,6.1,4.9,9.7c-2.5,0.4-3.4-7-5.8-8.8C751.9,242,752.2,241.7,752.5,241.4z" />
	<path fill="#151312" d="M760.3,348.3c-1.7-2.8-6.2-5.6-3.7-8.6C759.2,340.2,760.5,345.6,760.3,348.3z" />
	<path fill="#181514" d="M806.9,412.1c2.3-1.2,4.6-2.3,6.9-3.5c0.5,0.3,0.8,0.6,1.3,0.9c-1.3,2.4-3.7,2.8-5.8,3.4   C808.5,412.6,807.4,413.3,806.9,412.1z" />
	<path fill="#0C0B0A" d="M725.1,274.8c-0.3,0-0.6,0-0.9,0c-0.7-2.6-0.7-5.2-0.9-7.9C726.4,267.8,726.3,272.4,725.1,274.8z" />
	<path fill="#282322" d="M757.7,424.7c-0.6,3-3.5,6.3-6.7,5.9C750.6,427.8,756,426.7,757.7,424.7z" />
	<path fill="#171514" d="M756.6,378.8c0.4,0,0.7,0.1,1.1,0.1c0.1,3-0.5,5.7-2.5,8c-0.2,0-0.4,0-0.7,0   C754.3,384,755.1,381.4,756.6,378.8z" />
	<path fill="#2F2A28" d="M764.2,407.6c-1.6-2.2-3.2-4.3-3-7.2c0.4-0.1,0.7-0.2,1.2-0.3c0.9,2.3,2.5,3.9,2.8,6.5   C764.8,407,764.5,407.3,764.2,407.6z" />
	<path fill="#2A2523" d="M749.2,407.3c-1-3.8-1.2-7.5,2.3-10.6C752.1,400.5,748.6,403.3,749.2,407.3z" />
	<path fill="#201C1B" d="M754.6,387c0.2,0,0.4,0,0.7,0c-0.2,2.8,0.1,5.3-2.2,7.4c-0.3,0-0.6,0-0.9,0   C752,391.6,753.2,389.3,754.6,387z" />
	<path fill="#1A1716" d="M774.3,277.8c4,0,2.4,5,2.4,8.2C775.4,283,774.9,280.5,774.3,277.8z" />
	<path fill="#24201F" d="M767.3,316.2c-0.9,2.2-2.3,4-4.6,5.5c-0.2-2.5,1.5-4.3,3.4-5.7C766.5,316,766.9,316.1,767.3,316.2z" />
	<path fill="#49423E" d="M767.3,316.2c-0.4-0.1-0.8-0.2-1.3-0.2c2.4-1.7,2.7-4.8,3.9-7.3c0.2,0.6-0.1,1.4,0.8,1.6   C769.6,312.2,769.6,315.3,767.3,316.2z" />
	<path fill="#1D1A19" d="M850.8,398.3c-0.5,2.4-2.9,2.8-5.2,2.4C847.2,399.3,848.2,397.6,850.8,398.3z" />
	<path fill="#302B29" d="M721.7,265c-1-1.7-1.4-3.6-1.9-6C721.9,260.2,724.4,264.1,721.7,265z" />
	<path fill="#524945" d="M737.7,434.6c-0.1,0.9-0.1,1.8-1.5,1.6c-0.4-2.5,0.7-5,2-7.1c0,1.2,0,2.4,0,3.7   C737.4,433.2,737.6,433.9,737.7,434.6z" />
	<path fill="#4F4642" d="M770.3,253.2c-1.5-1.2-1.4-2.9-1.5-4.6C770.6,249.2,772.9,252.4,770.3,253.2z" />
	<path fill="#3C3633" d="M798.8,416.6c1.3-0.9,2.5-1.9,4.2-2.2c0.2,0.3,0.4,0.6,0.6,0.9c-1.3,1.7-3.2,1.7-4.9,2   C798.8,417.1,798.8,416.8,798.8,416.6z" />
	<path fill="#352F2D" d="M762.6,414.3c0,1.7-0.5,2.9-1.4,4C759.3,417.5,760.2,414.1,762.6,414.3z" />
	<path fill="#463F3B" d="M758.5,326.7c-0.1-2.6,0.3-3.2,2.5-3.8C760.4,324.8,760.4,324.8,758.5,326.7z" />
	<path fill="#7A6D68" d="M723.6,429c-0.6-1.4-1.3-2.8-2-4.3c0.2-0.1,0.5-0.3,0.8-0.6c1.4,1.1,1.8,2.6,2,4.1   C724.2,428.5,723.9,428.7,723.6,429z" />
	<path fill="#81746E" d="M798.8,416.6c0,0.3,0,0.5,0,0.8c-1.3,0.7-2.5,1.4-3.8,2c-0.5-0.2-1-0.5-1.5-0.7   C795.3,418,797.1,417.3,798.8,416.6z" />
	<path fill="#2A2624" d="M771.1,254.7c2.2,1.5,2.4,3,0.5,4.7C771.4,257.6,771.3,256.4,771.1,254.7z" />
	<path fill="#BCA89F" d="M782.3,292.3c-0.6-1.3-1.1-2.5-1.5-3.7C782.2,287.3,782.9,289.8,782.3,292.3z" />
	<path fill="#766A65" d="M752.5,241.4c-0.3,0.3-0.6,0.6-0.9,0.9c-1.1-1.3-2.2-2.6-2.2-4.5l-0.1,0   C750.7,238.7,751.5,240.1,752.5,241.4z" />
	<path fill="#5A504C" d="M728,440.1c-0.2,0.1-0.4,0.1-0.6,0.2c-0.2-0.5-0.4-1.1-0.7-1.6c-0.1,0-0.3,0-0.4,0c0.4-0.8,0.8-1.7,1.5-3.2   C727.9,437.5,727.9,438.8,728,440.1z" />
	<path fill="#514845" d="M764.2,407.6c0.3-0.3,0.6-0.7,0.9-1c0.4,1.1,0.8,2.2,1.3,3.5C765,409.2,765,409.2,764.2,407.6z" />
	<path fill="#554C48" d="M806.9,412.1c0.4,1.2,1.6,0.5,2.4,0.8c-1.3,1-2.8,0.5-4.4,0.3C805.6,412.9,806.3,412.5,806.9,412.1z" />
	<path fill="#2A2624" d="M760,422.9c-0.7-1.4-0.7-1.4,1.2-2.5C761.7,421.5,761.1,422.1,760,422.9z" />
	<path fill="#BCA89F" d="M723.6,429c0.3-0.2,0.6-0.5,0.9-0.7c0.4,1.1,0.9,2.1,1.5,3.7C724.2,431.2,724.1,430,723.6,429z" />
	<path fill="#504844" d="M767.9,246.4c0-1.2,0-2,0-3C769.7,244.8,769.7,245.2,767.9,246.4z" />
	<path fill="#5A504C" d="M845.4,408.2c0.7-0.9,2.5-1.8,2.8-0.2C847.4,408.7,846.5,408.8,845.4,408.2z" />
	<path fill="#6B5F5A" d="M841.6,400.3c0,1.4-0.7,1.8-1.9,1.1C840.4,401,841,400.6,841.6,400.3z" />
	<path fill="#80726C" d="M834.8,401.6c0.8-0.9,1.8-0.8,3.4-0.3c-1,0.5-1.5,0.7-1.9,1C835.8,402.1,835.3,401.9,834.8,401.6z" />
	<path fill="#6C605B" d="M848.1,388.2c-0.5,0.5-1,0.9-1.5,1.4C845.2,388.7,847.2,386.8,848.1,388.2z" />
	<path fill="#A7958D" d="M841.3,390.5c1.1-0.7,1.6-1,2.1-1.4C843.7,390.5,843.7,390.5,841.3,390.5z" />
	<path fill="#635954" d="M738.2,429.1c-0.4,0.7-0.8,1.4-1.2,2.2C736.8,430.4,737.2,427,738.2,429.1z" />
	<path fill="#272321" d="M754.5,338.7c0,0.8,0,1.6,0,2.7C753,340.4,753.5,339.6,754.5,338.7z" />
	<path fill="#3C3633" d="M834.8,401.6c0.5,0.2,1,0.4,1.5,0.7c-0.6,0.3-1.2,0.5-1.8,0.8C833.9,402.3,834.3,401.9,834.8,401.6z" />
	<path fill="#81736D" d="M841.6,409c-1,0-1.8,0-3.3,0C839.8,408.2,840.6,408.1,841.6,409z" />
	<path fill="#EECABA" d="M726.4,294.8c-0.2-0.8-0.4-1.5-0.6-2.3C726.9,293.1,726.5,294,726.4,294.8z" />
	<path fill="#252220" d="M793.6,418.6c0.5,0.2,1,0.5,1.5,0.7c-0.7,0.1-1.3,0.2-2,0.2c-0.1-0.2-0.3-0.4-0.4-0.6   C792.9,418.9,793.3,418.8,793.6,418.6z" />
	<path fill="#655A56" d="M752.2,394.4c0.3,0,0.6,0,0.9,0C752.8,395.3,751.2,395.3,752.2,394.4z" />
	<path fill="#635954" d="M737.7,434.6c-0.1-0.7-0.3-1.4,0.5-1.8C738.1,433.4,737.9,434,737.7,434.6z" />
	<path fill="#3D3734" d="M718.3,258.2c-0.1,0.1-0.2,0.2-0.2,0.3c-0.1-0.3-0.4-0.5,0-0.7C718.1,258,718.2,258.1,718.3,258.2z" />
	<path fill="#352D2A" d="M713.9,387.7c-1.1,4.4-3.4,7.4-3.6,12.1c-3.6-3.6,0.6-8.9,2.7-12.2C713.3,387.6,713.6,387.7,713.9,387.7z" />
	<path fill="#211C1A" d="M714.6,382.4c0.6-1.5,0.3-3.2,2.2-3.8c0.9,2.5-0.3,4.3-1.3,6.2C714.3,384.3,714.9,383.2,714.6,382.4z" />
	<path fill="#2E2724" d="M798.9,423.9c-1.7,1-3.4,2-5.1,3c-0.3-0.3-0.6-0.6-0.9-0.9c1.5-1.3,3-2.5,5-3.1   C798.2,423.3,798.5,423.6,798.9,423.9z" />
	<path fill="#191614" d="M726.7,438.7c0.2,0.5,0.4,1.1,0.7,1.6c-0.4,1.9-0.7,3.8-3.1,4.8C724.1,442.4,726.1,440.8,726.7,438.7z" />
	<path fill="#584B45" d="M792.9,426.1c0.3,0.3,0.6,0.6,0.9,0.9c-4.3,3.2-4.3,3.2-7,3.5C789,428.8,791,427.4,792.9,426.1z" />
	<path fill="#4F443F" d="M714.6,382.4c0.3,0.8-0.3,1.9,0.9,2.4c-0.5,1-0.5,2.2-1.6,2.9c-0.3,0-0.6-0.1-0.9-0.1   C714.3,386.2,713.9,384.1,714.6,382.4z" />
	<path fill="#50443F" d="M798.9,423.9c-0.3-0.3-0.7-0.6-1-1c0.7-0.4,1.4-0.8,2.2-1.3C800.4,423.1,799.8,423.6,798.9,423.9z" />
	<path fill="#B2988D" d="M780.5,433.1c0.6-0.3,1.1-0.9,1.9-0.5c-0.1,1.1-0.9,1.1-1.7,1.2C780.6,433.5,780.6,433.3,780.5,433.1z" />
	<path fill="#211D1B" d="M808.4,389.2c-2.2,0-4.4-0.5-5.9-2.4c0-0.9-0.6-2.3,0.5-2.7C804.1,386.8,807.4,386.9,808.4,389.2z" />
	<path fill="#36302D" d="M801.6,383.4c-0.9-1.5-2-2.5-1.1-4.2C802.2,380.2,802,381.5,801.6,383.4z" />
	<path fill="#050504" d="M802.5,392.8c-1.8-1.6-1.8-1.6,0-3.6C803.4,390.5,802.7,391.6,802.5,392.8L802.5,392.8z" />
	<path fill="#181513" d="M784,396.6c-0.1,0.2-0.1,0.4,0,0.6c-1.4,1-2.7,0.9-4.2-0.1c0.2-0.3,0.4-0.5,0.6-0.7   C781.6,396.6,782.8,396.6,784,396.6L784,396.6z" />
	<path fill="#9B847A" d="M784,396.6c-1.2,0-2.4-0.1-3.7-0.1C782.2,395.5,782.8,395.5,784,396.6z" />
	<path fill="#574A45" d="M774,397c1.2-0.4,1.2-0.4,2.4-0.1C775.3,397.3,775.3,397.3,774,397z" />
	<path fill="#4B65C6" d="M424,256.4c0.3,0.2,0.6,0.4,1,0.6C424.7,256.8,424.4,256.6,424,256.4z" />
	<path fill="#0E1325" d="M524.4,273.3c0.2-0.2,0.5-0.4,0.7-0.6c0,0.2,0,0.3,0,0.5C524.9,273.3,524.6,273.3,524.4,273.3z" />
	<path fill="#141110" d="M182.3,309.6c-0.6-0.1-1.4,0-1.7-0.8c3.7-2.1,7.7-2.1,11.8-1.4c0,0.2,0,0.4,0,0.6   C189.1,309.3,185.7,309.8,182.3,309.6z" />
	<path fill="#3E3532" d="M192.4,308c0-0.2,0-0.4,0-0.6c2.5-0.1,5.2-1.4,7.6-0.2C197.3,307.5,195.1,308.3,192.4,308z" />
	<path fill="#0D0B0B" d="M196.8,308c0.9-0.7,2-0.7,3.1-0.8c0.1,0.3,0.2,0.5,0.3,0.8C199.1,308.7,198,308.3,196.8,308z" />
	<path fill="#5D4F4A" d="M207.1,305.1c-0.2,0.5-0.5,0.9-0.7,1.4c-0.8,0-1.6,0-3.4,0C205.1,305.6,205.4,305.4,207.1,305.1z" />
	<path fill="#DEC5BB" d="M834.2,214.3c-2.3-2.2-4.1,0.4-6.5,1.5c-0.1-1.8-0.5-3.3,1.1-4.6c0.5,0.3,1,0.6,1.7,1   c0.7-0.9,1.4-1.9,2.3-3c1.4-0.1,3.1-0.4,3.6,1.7C836.1,212.4,834.1,212.7,834.2,214.3z" />
</g>
</svg>